o convex_0
v 0.005086 -0.006949 -0.055579
v -0.000704 -0.026058 -0.068313
v -0.001862 -0.024899 -0.067732
v 0.000453 -0.000579 -0.072366
v -0.003021 -0.000579 -0.041099
v 0.001612 -0.010426 -0.041099
v -0.004758 -0.015052 -0.057312
v 0.002770 -0.000579 -0.041099
v 0.002770 -0.023163 -0.065996
v -0.003021 -0.000579 -0.064838
v -0.001862 -0.010426 -0.041099
v -0.001283 -0.019107 -0.072944
v 0.002770 -0.016212 -0.070049
v 0.003349 -0.000579 -0.063102
v 0.005086 -0.012161 -0.055002
v -0.000704 -0.025477 -0.063679
v -0.004758 -0.004056 -0.049790
v -0.004179 -0.012743 -0.064260
v 0.002191 -0.023163 -0.061365
v 0.001032 -0.019689 -0.072944
v -0.001862 -0.000579 -0.070049
v -0.003021 -0.022003 -0.061365
v 0.002770 -0.008687 -0.041099
v 0.004507 -0.002896 -0.049212
v -0.003021 -0.007530 -0.041099
v 0.004507 -0.015633 -0.061943
v -0.003021 -0.018529 -0.068891
v -0.004758 -0.009268 -0.059626
v 0.003927 -0.018529 -0.058468
v 0.002191 -0.000579 -0.068891
v 0.004507 -0.011004 -0.061943
v -0.003600 -0.000579 -0.061365
v 0.001032 -0.026058 -0.067732
v -0.004179 -0.017950 -0.062521
v -0.004758 -0.013895 -0.055002
v 0.003927 -0.000579 -0.056738
v 0.000453 -0.024899 -0.062521
v 0.005086 -0.009268 -0.052107
v 0.001032 -0.024318 -0.070627
v -0.000704 -0.015633 -0.073525
v -0.002441 -0.013895 -0.070627
f 40 12 41 
f 4 5 8 
f 5 6 8 
f 5 4 10 
f 6 5 11 
f 2 3 12 
f 4 8 14 
f 3 2 16 
f 4 13 20 
f 10 4 21 
f 18 10 21 
f 3 16 22 
f 16 11 22 
f 8 6 23 
f 6 19 23 
f 8 23 24 
f 11 5 25 
f 5 17 25 
f 9 13 26 
f 1 15 26 
f 12 3 27 
f 7 17 28 
f 10 18 28 
f 19 9 29 
f 15 23 29 
f 23 19 29 
f 9 26 29 
f 26 15 29 
f 13 4 30 
f 4 14 30 
f 14 1 31 
f 26 13 31 
f 1 26 31 
f 13 30 31 
f 30 14 31 
f 5 10 32 
f 17 5 32 
f 10 28 32 
f 28 17 32 
f 16 2 33 
f 9 19 33 
f 3 22 34 
f 22 7 34 
f 27 3 34 
f 18 27 34 
f 7 28 34 
f 28 18 34 
f 17 7 35 
f 7 22 35 
f 22 11 35 
f 11 25 35 
f 25 17 35 
f 1 14 36 
f 14 8 36 
f 24 1 36 
f 8 24 36 
f 6 11 37 
f 11 16 37 
f 19 6 37 
f 16 33 37 
f 33 19 37 
f 15 1 38 
f 23 15 38 
f 1 24 38 
f 24 23 38 
f 2 12 39 
f 13 9 39 
f 12 20 39 
f 20 13 39 
f 33 2 39 
f 9 33 39 
f 20 12 40 
f 4 20 40 
f 21 4 40 
f 21 40 41 
f 18 21 41 
f 12 27 41 
f 27 18 41 
o convex_1
v 0.002189 0.026057 -0.074100
v -0.000703 -0.000579 -0.072364
v 0.000453 -0.000579 -0.072364
v 0.001611 0.003477 -0.041108
v -0.007074 0.016211 -0.067733
v 0.007403 0.009267 -0.065416
v 0.001030 0.021423 -0.085110
v -0.003020 -0.000579 -0.041108
v 0.003927 -0.000579 -0.053264
v -0.007074 0.010426 -0.068892
v -0.004176 0.021423 -0.081629
v -0.001861 0.026638 -0.074681
v 0.006244 0.019686 -0.070628
v -0.001861 0.003477 -0.041108
v 0.005086 0.017951 -0.079312
v -0.004176 0.000002 -0.059635
v 0.001030 0.027794 -0.082788
v 0.002769 -0.000579 -0.041108
v -0.003020 0.016792 -0.082206
v -0.007074 0.007530 -0.061371
v 0.007403 0.014474 -0.066574
v 0.002189 -0.000579 -0.069469
v -0.003020 0.026638 -0.081052
v 0.001030 0.016211 -0.083365
v -0.004757 0.022579 -0.071786
v 0.005086 0.023163 -0.078153
v 0.006823 0.013898 -0.072945
v -0.005915 0.014474 -0.075840
v -0.005915 0.020842 -0.076417
v 0.003927 0.013323 -0.078735
v 0.006823 0.006371 -0.060212
v -0.001861 0.024898 -0.084524
v -0.002440 -0.000579 -0.068310
v 0.000453 0.025476 -0.072364
v 0.002769 0.001739 -0.041108
v -0.007074 0.011583 -0.062530
v 0.005086 0.020264 -0.068892
v 0.002769 0.024898 -0.083365
v -0.006495 0.005214 -0.061371
v 0.003927 -0.000579 -0.059635
v 0.001611 0.027794 -0.076999
v -0.002440 0.002899 -0.041108
v -0.000703 0.018529 -0.084524
v -0.001283 -0.000579 -0.071786
v 0.002769 0.017370 -0.082788
v -0.000703 0.028375 -0.078735
v 0.006244 0.017951 -0.067733
v 0.003927 0.025476 -0.076417
v 0.006823 0.017370 -0.073522
v 0.007403 0.010426 -0.063107
v -0.003600 0.026057 -0.076999
v -0.007074 0.016792 -0.071786
v -0.006495 0.017951 -0.068310
v 0.003348 0.024319 -0.072364
v -0.001861 0.013898 -0.081629
f 85 60 96 
f 43 44 49 
f 49 44 50 
f 49 45 55 
f 45 49 59 
f 49 50 59 
f 46 51 61 
f 50 44 63 
f 44 43 65 
f 55 53 66 
f 62 47 68 
f 47 63 68 
f 52 60 69 
f 64 52 70 
f 52 69 70 
f 63 44 71 
f 68 63 71 
f 56 68 71 
f 59 50 72 
f 58 48 73 
f 60 52 73 
f 52 64 73 
f 64 58 73 
f 43 49 74 
f 49 57 74 
f 45 42 75 
f 55 45 75 
f 53 55 75 
f 45 59 76 
f 59 72 76 
f 46 61 77 
f 61 49 77 
f 48 58 79 
f 67 56 79 
f 58 67 79 
f 57 49 80 
f 49 61 80 
f 61 51 80 
f 74 57 80 
f 51 74 80 
f 50 63 81 
f 63 47 81 
f 72 50 81 
f 47 72 81 
f 75 42 82 
f 53 75 82 
f 49 55 83 
f 55 66 83 
f 77 49 83 
f 46 77 83 
f 48 65 84 
f 73 48 84 
f 60 73 84 
f 51 69 85 
f 69 60 85 
f 43 74 85 
f 74 51 85 
f 44 65 86 
f 65 48 86 
f 71 44 86 
f 56 71 86 
f 48 79 86 
f 79 56 86 
f 58 64 87 
f 53 82 87 
f 82 58 87 
f 62 54 88 
f 45 76 88 
f 76 62 88 
f 78 45 88 
f 54 78 88 
f 54 67 89 
f 67 58 89 
f 58 82 89 
f 54 62 90 
f 67 54 90 
f 56 67 90 
f 62 68 90 
f 68 56 90 
f 47 62 91 
f 72 47 91 
f 62 76 91 
f 76 72 91 
f 66 53 92 
f 64 70 92 
f 70 66 92 
f 53 87 92 
f 87 64 92 
f 51 46 93 
f 69 51 93 
f 46 70 93 
f 70 69 93 
f 70 46 94 
f 66 70 94 
f 46 83 94 
f 83 66 94 
f 42 45 95 
f 45 78 95 
f 78 54 95 
f 82 42 95 
f 54 89 95 
f 89 82 95 
f 65 43 96 
f 60 84 96 
f 84 65 96 
f 43 85 96 
o convex_2
v -0.038923 -0.031842 -0.026041
v -0.032554 -0.012161 0.008122
v -0.032554 -0.010427 0.007541
v -0.042977 -0.020847 -0.019093
v -0.038343 -0.001158 -0.021409
v -0.032554 -0.032425 -0.009828
v -0.040659 -0.039377 -0.016198
v -0.032554 -0.015058 -0.012141
v -0.034872 -0.022001 0.005225
v -0.040081 -0.005793 -0.014457
v -0.038923 -0.022001 -0.003461
v -0.042397 -0.017379 -0.026041
v -0.036030 -0.020847 -0.023147
v -0.041239 -0.039377 -0.022568
v -0.036609 -0.038797 -0.020252
v -0.032554 -0.006951 -0.004618
v -0.032554 -0.030691 -0.003461
v -0.039501 -0.013899 -0.026622
v -0.041239 -0.005793 -0.024303
v -0.041817 -0.031842 -0.013879
v -0.037188 -0.039377 -0.013301
v -0.038923 -0.001158 -0.016198
v -0.036030 -0.005793 -0.019671
v -0.042977 -0.028953 -0.024303
v -0.033714 -0.028374 -0.016773
v -0.032554 -0.022001 0.006963
v -0.038343 -0.030691 -0.004618
v -0.033133 -0.010427 0.007541
v -0.032554 -0.006951 0.002909
v -0.041239 -0.030112 -0.026622
v -0.041239 -0.011002 -0.015035
v -0.037188 -0.017958 0.000593
v -0.036030 -0.030691 -0.022568
v -0.042397 -0.035322 -0.019093
v -0.036609 -0.001737 -0.017936
v -0.039501 -0.040535 -0.022568
v -0.041817 -0.007531 -0.021409
v -0.038343 -0.006372 -0.024303
v -0.037766 -0.035901 -0.008672
v -0.041239 -0.022001 -0.010985
v -0.036609 -0.039956 -0.015613
v -0.040081 -0.029532 -0.007515
v -0.035451 -0.016220 -0.021409
v -0.042977 -0.017379 -0.023147
v -0.037188 -0.017379 -0.024885
v -0.040659 -0.002896 -0.019671
v -0.032554 -0.030691 -0.012141
v -0.042977 -0.027215 -0.018514
v -0.038923 -0.036480 -0.024885
v -0.036609 -0.022001 0.002331
v -0.033134 -0.009268 -0.010985
v -0.040081 -0.041115 -0.019093
v -0.037188 -0.001158 -0.015035
v -0.033133 -0.007531 0.004647
v -0.032554 -0.020271 -0.013301
v -0.038923 -0.026632 -0.026622
v -0.033714 -0.014478 0.007541
v -0.041817 -0.034163 -0.025463
v -0.040659 -0.035322 -0.012141
v -0.035451 -0.035322 -0.019671
v -0.037188 -0.028374 -0.024885
f 152 141 157 
f 99 98 102 
f 99 102 104 
f 99 104 112 
f 102 98 113 
f 114 108 115 
f 113 98 122 
f 122 105 123 
f 98 99 124 
f 99 112 125 
f 108 114 126 
f 120 108 126 
f 124 106 128 
f 127 107 128 
f 106 127 128 
f 109 121 129 
f 110 103 130 
f 120 110 130 
f 119 101 131 
f 125 112 131 
f 100 127 133 
f 115 101 134 
f 114 115 134 
f 101 119 134 
f 103 117 135 
f 117 113 135 
f 113 122 135 
f 122 123 135 
f 127 100 136 
f 107 127 136 
f 111 102 137 
f 102 113 137 
f 113 117 137 
f 132 111 137 
f 136 116 138 
f 107 136 138 
f 119 104 139 
f 121 109 139 
f 134 119 139 
f 115 108 140 
f 108 120 140 
f 120 100 140 
f 100 133 140 
f 133 115 140 
f 114 134 141 
f 139 109 141 
f 134 139 141 
f 101 115 142 
f 106 118 142 
f 118 101 142 
f 127 106 142 
f 115 133 142 
f 133 127 142 
f 104 102 143 
f 100 120 144 
f 130 116 144 
f 120 130 144 
f 136 100 144 
f 116 136 144 
f 126 97 145 
f 129 111 145 
f 111 132 145 
f 123 105 146 
f 128 107 146 
f 107 138 146 
f 138 123 146 
f 112 104 147 
f 104 119 147 
f 119 131 147 
f 131 112 147 
f 103 110 148 
f 117 103 148 
f 110 132 148 
f 137 117 148 
f 132 137 148 
f 101 118 149 
f 131 101 149 
f 125 131 149 
f 118 106 150 
f 124 99 150 
f 106 124 150 
f 99 125 150 
f 149 118 150 
f 125 149 150 
f 139 104 151 
f 121 139 151 
f 104 143 151 
f 143 121 151 
f 97 126 152 
f 126 114 152 
f 114 141 152 
f 122 98 153 
f 105 122 153 
f 98 124 153 
f 124 128 153 
f 146 105 153 
f 128 146 153 
f 110 120 154 
f 120 126 154 
f 132 110 154 
f 126 145 154 
f 145 132 154 
f 130 103 155 
f 116 130 155 
f 103 135 155 
f 135 123 155 
f 138 116 155 
f 123 138 155 
f 102 111 156 
f 111 129 156 
f 129 121 156 
f 143 102 156 
f 121 143 156 
f 109 129 157 
f 141 109 157 
f 145 97 157 
f 129 145 157 
f 97 152 157 
o convex_3
v -0.029080 -0.017950 -0.004615
v -0.029080 -0.001159 0.019125
v -0.029659 -0.001159 0.019125
v -0.029659 0.003473 0.000595
v -0.032554 -0.031270 -0.005774
v -0.032554 -0.007530 -0.004038
v -0.029080 -0.021425 0.009857
v -0.032554 -0.019686 0.008697
v -0.031974 -0.020264 -0.011566
v -0.032554 -0.005794 0.005221
v -0.029080 -0.026056 -0.003458
v -0.029080 -0.001159 -0.003458
v -0.029659 0.005212 0.009280
v -0.029659 -0.008108 0.018545
v -0.032554 -0.028953 -0.010987
v -0.032554 -0.012165 -0.008670
v -0.032554 -0.011004 0.009280
v -0.029080 0.005212 0.006384
v -0.031974 -0.028953 -0.010987
v -0.029659 0.002894 0.015649
v -0.029080 -0.026056 0.000595
v -0.032554 -0.028374 -0.000562
v -0.032554 -0.005212 0.001754
v -0.031395 -0.020846 0.009280
v -0.031974 -0.031270 -0.008670
f 168 178 182 
f 158 159 164 
f 163 162 165 
f 163 165 167 
f 158 164 168 
f 159 158 169 
f 158 166 169 
f 159 160 171 
f 164 159 171 
f 160 165 171 
f 162 163 172 
f 163 161 173 
f 161 169 173 
f 169 166 173 
f 172 163 173 
f 166 172 173 
f 165 160 174 
f 160 167 174 
f 167 165 174 
f 159 169 175 
f 169 161 175 
f 161 170 175 
f 166 158 176 
f 158 168 176 
f 172 166 176 
f 160 159 177 
f 167 160 177 
f 170 167 177 
f 159 175 177 
f 175 170 177 
f 164 162 178 
f 168 164 178 
f 162 164 179 
f 165 162 179 
f 161 163 180 
f 163 167 180 
f 170 161 180 
f 167 170 180 
f 164 171 181 
f 171 165 181 
f 179 164 181 
f 165 179 181 
f 162 172 182 
f 176 168 182 
f 172 176 182 
f 178 162 182 
o convex_4
v 0.037514 -0.035898 -0.023724
v 0.029988 -0.004059 0.017967
v 0.029988 -0.001163 0.017386
v 0.042727 -0.021419 -0.017352
v 0.038093 -0.002900 -0.022568
v 0.029408 -0.019103 -0.005196
v 0.038672 -0.037056 -0.010408
v 0.029408 0.001733 -0.000565
v 0.029408 -0.026632 -0.000565
v 0.040410 -0.002321 -0.019093
v 0.042727 -0.027794 -0.025461
v 0.036355 -0.019682 -0.023724
v 0.035778 -0.023157 0.003485
v 0.029408 -0.019682 0.011010
v 0.042147 -0.035898 -0.017932
v 0.038093 -0.041106 -0.020246
v 0.029408 0.004049 0.008696
v 0.039251 -0.020840 -0.004616
v 0.041568 -0.011583 -0.026042
v 0.040989 -0.009271 -0.015039
v 0.034620 -0.033581 -0.017928
v 0.029408 -0.003479 -0.003459
v 0.038672 -0.023736 -0.026622
v 0.035778 -0.037635 -0.010980
v 0.040410 -0.031844 -0.009251
v 0.041568 -0.037056 -0.024305
v 0.039831 -0.001158 -0.021407
v 0.042727 -0.014479 -0.023144
v 0.029988 0.003470 0.011590
v 0.037514 -0.010429 -0.024305
v 0.029408 -0.026632 -0.004040
v 0.039831 -0.040531 -0.016200
v 0.029408 -0.007533 0.017386
v 0.035199 -0.029527 -0.020831
v 0.036355 -0.039373 -0.018509
v 0.040989 -0.030111 -0.026622
v 0.035199 -0.016800 -0.020831
v 0.038093 -0.023157 -0.001146
v 0.030567 -0.020840 0.009853
v 0.041568 -0.028953 -0.012145
v 0.038093 -0.000584 -0.019670
v 0.039831 -0.013320 -0.026622
v 0.040410 -0.016220 -0.009827
v 0.029408 -0.021999 0.008696
v 0.040989 -0.005217 -0.024305
v 0.042727 -0.033581 -0.019670
v 0.040989 -0.039952 -0.022563
v 0.029988 0.001154 0.015649
v 0.029408 0.004049 0.005222
v 0.036355 -0.008113 -0.021402
v 0.042147 -0.009850 -0.020831
v 0.038672 -0.037635 -0.024305
v 0.029988 -0.007533 0.017386
v 0.042147 -0.019112 -0.026622
v 0.038093 -0.031844 -0.005196
v 0.029408 -0.024894 -0.005196
v 0.035778 -0.038794 -0.014454
v 0.039252 -0.000579 -0.018513
v 0.036936 -0.030107 -0.024305
v 0.034620 -0.020261 -0.019670
v 0.029408 -0.000005 0.016806
v 0.040989 -0.038214 -0.015619
f 229 197 244 
f 190 188 191 
f 190 191 196 
f 190 196 199 
f 185 184 200 
f 190 187 204 
f 188 190 204 
f 186 193 210 
f 205 194 212 
f 191 188 213 
f 189 206 214 
f 199 196 215 
f 183 203 216 
f 183 198 217 
f 203 183 217 
f 213 203 217 
f 193 208 218 
f 212 194 219 
f 184 195 220 
f 200 184 220 
f 195 207 220 
f 186 200 222 
f 207 197 222 
f 200 220 222 
f 220 207 222 
f 187 190 223 
f 209 187 223 
f 212 187 224 
f 205 212 224 
f 218 205 224 
f 185 200 225 
f 200 186 225 
f 202 185 225 
f 186 202 225 
f 196 191 226 
f 191 206 226 
f 206 189 226 
f 189 221 226 
f 221 196 226 
f 187 209 227 
f 209 192 227 
f 210 201 227 
f 224 187 227 
f 201 224 227 
f 193 186 228 
f 208 193 228 
f 186 222 228 
f 222 197 228 
f 214 198 229 
f 208 228 229 
f 228 197 229 
f 185 202 230 
f 202 192 230 
f 192 211 230 
f 190 199 231 
f 223 190 231 
f 204 187 232 
f 187 212 232 
f 219 204 232 
f 212 219 232 
f 192 202 233 
f 202 186 233 
f 186 210 233 
f 227 192 233 
f 210 227 233 
f 198 183 234 
f 205 218 234 
f 218 208 234 
f 229 198 234 
f 208 229 234 
f 195 184 235 
f 184 215 235 
f 215 196 235 
f 221 195 235 
f 196 221 235 
f 201 210 236 
f 210 193 236 
f 193 218 236 
f 224 201 236 
f 218 224 236 
f 189 207 237 
f 207 195 237 
f 221 189 237 
f 195 221 237 
f 213 188 238 
f 203 213 238 
f 216 203 238 
f 206 191 239 
f 191 213 239 
f 214 206 239 
f 198 214 239 
f 217 198 239 
f 213 217 239 
f 192 209 240 
f 211 192 240 
f 199 211 240 
f 209 223 240 
f 231 199 240 
f 223 231 240 
f 194 205 241 
f 183 216 241 
f 216 194 241 
f 234 183 241 
f 205 234 241 
f 188 204 242 
f 194 216 242 
f 204 219 242 
f 219 194 242 
f 238 188 242 
f 216 238 242 
f 184 185 243 
f 211 199 243 
f 215 184 243 
f 199 215 243 
f 185 230 243 
f 230 211 243 
f 207 189 244 
f 197 207 244 
f 189 214 244 
f 214 229 244 
o convex_5
v -0.005916 0.022573 0.028958
v -0.000700 -0.029533 -0.007504
v 0.001029 -0.029533 -0.007504
v 0.000451 0.023161 -0.039935
v 0.029408 -0.000578 0.020279
v -0.029079 -0.020265 0.011591
v 0.008557 -0.011574 0.042285
v 0.029408 -0.026058 -0.002874
v -0.001862 -0.010422 -0.041099
v -0.026183 0.011001 -0.004029
v 0.005082 0.032429 -0.027773
v -0.022707 -0.000578 0.037654
v 0.017242 0.019686 0.023745
v 0.024192 0.007525 -0.013299
v -0.006494 -0.022582 0.029531
v -0.029079 -0.025475 -0.002292
v -0.007650 0.032429 0.006952
v 0.017242 -0.001730 0.042285
v -0.020389 0.000575 -0.021978
v -0.004754 0.032429 -0.028937
v -0.027339 0.009260 0.017377
v 0.017242 -0.005788 -0.026035
v -0.003019 -0.024899 -0.025462
v 0.026511 0.012735 0.002912
v 0.007401 0.032429 0.007534
v -0.010547 -0.005206 0.045178
v 0.020717 -0.015626 0.032433
v 0.003347 -0.027216 0.016795
v -0.017498 -0.014473 0.037064
v 0.005660 0.015634 0.035908
v 0.002769 -0.009263 -0.041099
v -0.005332 0.020844 -0.038198
v 0.005660 0.019680 -0.038198
v -0.016335 0.013317 0.033597
v -0.022707 0.018527 0.009854
v -0.029079 0.000581 -0.004029
v 0.029408 -0.001154 -0.004029
v 0.023614 0.005208 0.033597
v 0.025933 -0.006946 0.031860
v 0.005660 -0.024317 -0.025462
v 0.013189 -0.020842 0.030122
v 0.003926 0.027795 0.022016
v -0.029079 -0.001160 0.022008
v 0.023036 0.017951 0.011009
v -0.003597 -0.001154 0.045751
v -0.014601 -0.016208 -0.026035
v -0.022129 0.011001 -0.015610
v -0.003019 -0.028951 0.008690
v 0.029408 -0.022000 0.009280
v -0.017498 0.020844 0.020852
v -0.023864 -0.008099 0.035335
v -0.011704 0.006943 0.040547
v -0.014601 -0.022576 0.024909
v 0.022458 0.018527 -0.002292
v -0.020389 0.020844 -0.002292
v 0.021879 0.000581 -0.019667
v -0.005916 -0.017366 0.037646
v 0.015507 0.012735 0.034753
v -0.017498 -0.008099 -0.025462
v -0.024442 0.008101 0.028958
v 0.013767 -0.018519 -0.025462
v 0.007979 -0.002895 0.045760
v -0.011126 -0.021424 -0.025453
v 0.025349 0.012153 0.019697
f 288 257 308 
f 255 248 264 
f 261 255 264 
f 247 246 267 
f 246 260 267 
f 255 261 269 
f 262 251 271 
f 253 248 275 
f 248 253 276 
f 264 248 276 
f 248 255 277 
f 255 258 277 
f 275 248 277 
f 266 275 277 
f 254 265 279 
f 260 250 280 
f 263 260 280 
f 265 254 280 
f 249 252 281 
f 268 249 281 
f 258 268 281 
f 262 271 283 
f 249 282 283 
f 282 262 283 
f 252 247 284 
f 247 267 284 
f 267 253 284 
f 253 275 284 
f 271 251 285 
f 272 252 285 
f 259 272 285 
f 261 245 286 
f 257 269 286 
f 269 261 286 
f 245 274 286 
f 280 250 287 
f 265 280 287 
f 269 257 288 
f 254 264 291 
f 276 263 291 
f 264 276 291 
f 280 254 291 
f 263 280 291 
f 246 247 292 
f 247 252 292 
f 260 246 292 
f 252 272 292 
f 272 259 292 
f 252 249 293 
f 249 283 293 
f 283 271 293 
f 285 252 293 
f 271 285 293 
f 245 261 294 
f 278 245 294 
f 261 279 294 
f 279 265 294 
f 270 256 295 
f 250 273 295 
f 273 270 295 
f 287 250 295 
f 256 287 295 
f 256 270 296 
f 274 245 296 
f 245 278 296 
f 278 256 296 
f 270 289 296 
f 289 274 296 
f 250 260 297 
f 273 250 297 
f 259 273 297 
f 260 292 297 
f 292 259 297 
f 258 255 298 
f 268 258 298 
f 255 269 298 
f 288 268 298 
f 269 288 298 
f 264 254 299 
f 261 264 299 
f 254 279 299 
f 279 261 299 
f 252 266 300 
f 277 258 300 
f 266 277 300 
f 281 252 300 
f 258 281 300 
f 251 270 301 
f 273 259 301 
f 270 273 301 
f 285 251 301 
f 259 285 301 
f 282 257 302 
f 262 282 302 
f 257 286 302 
f 286 274 302 
f 260 263 303 
f 276 253 303 
f 263 276 303 
f 253 290 303 
f 290 260 303 
f 256 278 304 
f 287 256 304 
f 265 287 304 
f 278 294 304 
f 294 265 304 
f 266 252 305 
f 275 266 305 
f 252 284 305 
f 284 275 305 
f 251 262 306 
f 270 251 306 
f 289 270 306 
f 274 289 306 
f 262 302 306 
f 302 274 306 
f 253 267 307 
f 267 260 307 
f 290 253 307 
f 260 290 307 
f 249 268 308 
f 282 249 308 
f 257 282 308 
f 268 288 308 
o convex_6
v -0.004757 0.034167 -0.026041
v 0.007403 0.033008 0.005804
v 0.007403 0.032429 0.005804
v -0.007074 0.033008 0.006963
v 0.001611 0.040536 0.008121
v 0.001611 0.040536 -0.025458
v 0.003928 0.032429 -0.030096
v -0.004757 0.040536 -0.007520
v 0.005086 0.040536 -0.004623
v -0.003599 0.032429 -0.030676
v -0.002441 0.032429 0.011014
v -0.004178 0.040536 0.005804
v -0.003020 0.040536 -0.024303
v -0.007653 0.032429 -0.001148
v 0.005086 0.033008 -0.026041
v 0.003348 0.040536 -0.023145
v 0.003928 0.033008 0.010439
v 0.004507 0.040536 0.004641
v 0.007403 0.033008 -0.002886
v -0.005337 0.039957 0.000011
v -0.001861 0.034167 -0.030676
v -0.003599 0.040536 -0.022565
v -0.001861 0.040536 0.008121
v 0.002769 0.033008 -0.031251
v -0.007653 0.033008 -0.001148
v 0.003928 0.040536 -0.019094
v -0.004757 0.032429 -0.028359
v 0.005665 0.033008 0.009280
v -0.004757 0.033008 0.009859
f 331 320 337 
f 313 314 316 
f 314 313 317 
f 315 311 318 
f 318 311 319 
f 313 316 320 
f 316 314 321 
f 319 312 322 
f 318 319 322 
f 314 317 324 
f 323 315 324 
f 319 311 325 
f 313 319 325 
f 310 317 326 
f 317 313 326 
f 310 311 327 
f 311 315 327 
f 317 310 327 
f 315 323 327 
f 312 320 328 
f 320 316 328 
f 321 314 329 
f 318 321 329 
f 316 321 330 
f 319 313 331 
f 313 320 331 
f 315 318 332 
f 314 324 332 
f 324 315 332 
f 329 314 332 
f 318 329 332 
f 322 312 333 
f 312 328 333 
f 328 316 333 
f 330 309 333 
f 316 330 333 
f 324 317 334 
f 323 324 334 
f 317 327 334 
f 327 323 334 
f 321 318 335 
f 318 322 335 
f 309 330 335 
f 330 321 335 
f 333 309 335 
f 322 333 335 
f 311 310 336 
f 325 311 336 
f 313 325 336 
f 310 326 336 
f 326 313 336 
f 312 319 337 
f 320 312 337 
f 319 331 337 
o convex_7
v 0.001032 0.055010 0.004646
v -0.001862 0.040536 -0.024885
v -0.001862 0.041117 -0.024885
v -0.004758 0.040536 0.003489
v 0.005086 0.040536 0.001173
v -0.001862 0.063697 -0.003461
v 0.003927 0.056746 -0.007515
v 0.002770 0.041698 -0.023725
v -0.004179 0.053853 -0.008097
v 0.002770 0.063116 -0.000566
v 0.002191 0.040536 0.007541
v -0.002441 0.063116 0.000594
v -0.003600 0.040536 -0.021409
v -0.002441 0.041117 0.007541
v 0.002191 0.060799 -0.006937
v 0.003927 0.040536 -0.017935
v -0.003600 0.059644 -0.005777
v 0.003927 0.041117 0.005806
v -0.001283 0.052121 -0.015619
v -0.004758 0.041117 -0.007515
v -0.004179 0.056170 -0.002882
v -0.001283 0.061961 0.002329
v 0.003927 0.057327 -0.001144
v 0.005086 0.041117 -0.003461
v 0.002191 0.060223 0.002329
v 0.001612 0.047487 -0.019670
v -0.003021 0.052693 -0.013880
v -0.003021 0.058484 0.001751
v -0.000704 0.041698 0.008122
v 0.001612 0.064278 0.000013
v 0.003349 0.040536 -0.022569
v -0.003600 0.060223 -0.001144
v 0.002191 0.063697 -0.002882
v -0.003600 0.040536 0.006384
f 351 365 371 
f 341 339 342 
f 339 340 345 
f 341 342 348 
f 340 339 350 
f 339 341 350 
f 344 345 352 
f 342 339 353 
f 349 343 354 
f 350 346 354 
f 348 342 355 
f 343 352 356 
f 350 341 357 
f 346 350 357 
f 354 346 358 
f 357 341 358 
f 346 357 358 
f 344 347 360 
f 355 342 360 
f 342 353 361 
f 353 344 361 
f 360 342 361 
f 344 360 361 
f 338 348 362 
f 348 355 362 
f 359 338 362 
f 360 347 362 
f 355 360 362 
f 345 340 363 
f 352 345 363 
f 340 356 363 
f 356 352 363 
f 340 350 364 
f 354 343 364 
f 350 354 364 
f 356 340 364 
f 343 356 364 
f 359 349 365 
f 351 359 365 
f 348 338 366 
f 351 348 366 
f 338 359 366 
f 359 351 366 
f 343 349 367 
f 349 359 367 
f 359 362 367 
f 362 347 367 
f 345 344 368 
f 339 345 368 
f 353 339 368 
f 344 353 368 
f 349 354 369 
f 358 341 369 
f 354 358 369 
f 341 365 369 
f 365 349 369 
f 347 344 370 
f 352 343 370 
f 344 352 370 
f 343 367 370 
f 367 347 370 
f 341 348 371 
f 348 351 371 
f 365 341 371 
