o convex_0
v 0.041218 0.017172 -0.030225
v 0.051167 0.034314 -0.029670
v 0.055040 0.032650 -0.029670
v 0.022969 0.006114 -0.005895
v 0.040667 0.007778 -0.005895
v 0.029053 0.026015 -0.005895
v 0.032372 0.025463 -0.025800
v 0.058909 0.023802 -0.030225
v 0.041771 0.021589 -0.005895
v 0.035137 0.003347 -0.007557
v 0.023526 0.017175 -0.014747
v 0.022969 0.006114 -0.010322
v 0.047848 0.015514 -0.030225
v 0.033476 0.029889 -0.018060
v 0.022969 0.020486 -0.005895
v 0.037352 0.021040 -0.030225
v 0.045087 0.028230 -0.013640
v 0.058909 0.026572 -0.028565
v 0.040667 0.029889 -0.030225
v 0.042875 0.012750 -0.005895
v 0.031818 0.026569 -0.005895
v 0.024076 0.020486 -0.014747
v 0.039010 0.005559 -0.008110
v 0.048956 0.034314 -0.030225
v 0.039564 0.013301 -0.025800
v 0.032372 0.022144 -0.026352
v 0.053379 0.018830 -0.030225
v 0.042875 0.019379 -0.005895
v 0.036798 0.017730 -0.028565
v 0.030160 0.006114 -0.012535
v 0.034030 0.029889 -0.015852
v 0.035691 0.003347 -0.005895
v 0.025184 0.023253 -0.008665
v 0.046748 0.032650 -0.023587
v 0.039010 0.024360 -0.005895
v 0.046198 0.027121 -0.013640
v 0.040114 0.030992 -0.028012
v 0.056698 0.031547 -0.029670
v 0.032372 0.028782 -0.019162
v 0.059466 0.024911 -0.029670
v 0.022969 0.018827 -0.012535
v 0.024076 0.017727 -0.015852
v 0.033476 0.024360 -0.027460
f 16 26 43 
f 4 5 6 
f 6 5 9 
f 10 4 12 
f 1 8 13 
f 4 6 15 
f 12 4 15 
f 8 1 16 
f 3 2 17 
f 8 16 19 
f 9 5 20 
f 6 9 21 
f 8 5 23 
f 10 13 23 
f 2 3 24 
f 8 19 24 
f 1 13 25 
f 13 8 27 
f 8 23 27 
f 23 13 27 
f 9 20 28 
f 20 18 28 
f 16 1 29 
f 1 25 29 
f 25 12 29 
f 12 26 29 
f 26 16 29 
f 10 12 30 
f 13 10 30 
f 12 25 30 
f 25 13 30 
f 14 6 31 
f 6 21 31 
f 24 14 31 
f 5 4 32 
f 4 10 32 
f 23 5 32 
f 10 23 32 
f 6 14 33 
f 15 6 33 
f 22 15 33 
f 17 2 34 
f 21 17 34 
f 2 24 34 
f 31 21 34 
f 24 31 34 
f 21 9 35 
f 17 21 35 
f 9 28 36 
f 28 18 36 
f 35 9 36 
f 17 35 36 
f 19 7 37 
f 24 19 37 
f 14 24 37 
f 3 17 38 
f 24 3 38 
f 8 24 38 
f 17 36 38 
f 36 18 38 
f 7 22 39 
f 33 14 39 
f 22 33 39 
f 37 7 39 
f 14 37 39 
f 5 8 40 
f 20 5 40 
f 18 20 40 
f 8 38 40 
f 38 18 40 
f 11 12 41 
f 12 15 41 
f 22 11 41 
f 15 22 41 
f 12 11 42 
f 22 7 42 
f 11 22 42 
f 7 26 42 
f 26 12 42 
f 7 19 43 
f 19 16 43 
f 26 7 43 
o convex_1
v -0.033439 0.010531 0.025623
v -0.041176 -0.016008 0.035575
v -0.042282 -0.015453 0.033916
v -0.024036 -0.003288 -0.005895
v -0.024036 -0.002735 0.028389
v -0.049472 -0.002180 0.028942
v -0.024036 0.014402 -0.004785
v -0.040069 0.000580 0.037239
v -0.024036 0.014402 0.020645
v -0.044493 -0.003840 0.017884
v -0.035098 -0.015453 0.037239
v -0.048920 -0.012134 0.037239
v -0.035098 0.011639 0.015672
v -0.024036 -0.007711 0.009592
v -0.045600 -0.009921 0.023960
v -0.026801 0.008874 -0.005895
v -0.029015 0.002240 0.032814
v -0.046707 -0.000525 0.037239
v -0.038413 0.007216 0.012357
v -0.024590 0.016618 0.015672
v -0.041176 0.007216 0.026725
v -0.032335 -0.007708 0.037239
v -0.024036 -0.006606 0.024513
v -0.026801 0.002793 -0.005895
v -0.024036 -0.006606 0.002406
v -0.043941 -0.000525 0.016778
v -0.050027 -0.001627 0.032809
v -0.049472 -0.011029 0.032256
v -0.043386 -0.012687 0.026725
v -0.024036 0.003345 0.028389
v -0.024590 -0.003288 -0.005895
v -0.025142 0.013300 -0.005895
v -0.030121 0.003895 0.032809
v -0.031780 0.013297 0.020645
v -0.026801 -0.009924 0.024513
v -0.030121 0.014405 0.014570
v -0.048365 -0.006050 0.025623
v -0.042282 0.006108 0.023960
v -0.036756 -0.015453 0.033363
v -0.030121 0.010531 0.026176
v -0.032884 -0.012134 0.037239
v -0.044493 -0.015453 0.037239
v -0.049472 -0.004945 0.037239
v -0.024590 0.014402 -0.004785
v -0.032884 -0.004945 0.037239
v -0.047259 -0.013795 0.034469
v -0.049472 -0.001075 0.030044
v -0.024590 0.006108 0.027832
v -0.037306 0.008874 0.012910
v -0.043386 0.000580 0.037239
v -0.038413 0.006108 0.011255
v -0.041730 -0.012687 0.025623
v -0.024036 0.016063 0.017880
v -0.024036 -0.005498 0.026725
v -0.045048 -0.005498 0.019539
f 58 80 98 
f 48 47 50 
f 48 50 52 
f 54 51 55 
f 47 48 57 
f 55 51 61 
f 61 44 64 
f 51 54 65 
f 57 48 66 
f 59 47 67 
f 45 46 68 
f 47 57 68 
f 67 53 69 
f 59 67 69 
f 61 64 70 
f 70 49 71 
f 48 52 73 
f 65 48 73 
f 60 65 73 
f 67 47 74 
f 53 67 74 
f 47 68 74 
f 72 58 74 
f 50 47 75 
f 47 59 75 
f 56 64 77 
f 64 44 77 
f 54 57 78 
f 66 54 78 
f 57 66 78 
f 77 63 79 
f 56 77 79 
f 49 69 80 
f 69 53 80 
f 71 49 80 
f 58 71 80 
f 64 56 81 
f 54 45 82 
f 57 54 82 
f 45 68 82 
f 68 57 82 
f 51 76 83 
f 76 52 83 
f 48 65 84 
f 65 54 84 
f 46 45 85 
f 45 54 85 
f 54 55 85 
f 55 61 86 
f 61 70 86 
f 71 55 86 
f 70 71 86 
f 63 50 87 
f 50 75 87 
f 56 79 87 
f 79 63 87 
f 51 65 88 
f 65 60 88 
f 76 51 88 
f 60 76 88 
f 55 71 89 
f 71 58 89 
f 58 72 89 
f 72 46 89 
f 46 85 89 
f 85 55 89 
f 69 49 90 
f 62 69 90 
f 49 70 90 
f 70 64 90 
f 64 81 90 
f 73 52 91 
f 60 73 91 
f 52 76 91 
f 76 60 91 
f 75 62 92 
f 81 56 92 
f 56 87 92 
f 87 75 92 
f 62 90 92 
f 90 81 92 
f 44 61 93 
f 61 51 93 
f 83 44 93 
f 51 83 93 
f 69 62 94 
f 59 69 94 
f 75 59 94 
f 62 75 94 
f 68 46 95 
f 46 72 95 
f 74 68 95 
f 72 74 95 
f 52 50 96 
f 50 63 96 
f 77 44 96 
f 63 77 96 
f 44 83 96 
f 83 52 96 
f 66 48 97 
f 54 66 97 
f 48 84 97 
f 84 54 97 
f 53 74 98 
f 74 58 98 
f 80 53 98 
o convex_2
v 0.017989 0.012747 0.040559
v -0.014082 -0.000519 0.030605
v -0.014082 -0.000519 0.033925
v 0.013566 -0.014348 0.033922
v 0.004721 0.002794 0.059358
v 0.000298 0.018272 0.027841
v 0.003617 0.021040 0.049399
v 0.022416 -0.001627 0.027838
v -0.004679 -0.013792 0.027841
v 0.015224 0.002794 0.053274
v -0.004679 -0.000519 0.053826
v -0.009655 0.013847 0.038899
v 0.003063 -0.012688 0.043326
v 0.013566 0.017171 0.030605
v -0.010209 -0.009920 0.037242
v -0.004679 0.006110 0.054934
v -0.012971 0.006110 0.027841
v 0.008036 0.020487 0.049399
v 0.013566 -0.001627 0.052722
v 0.018543 -0.010476 0.035030
v 0.011905 -0.013796 0.027838
v 0.000298 0.021040 0.034477
v 0.000298 -0.016008 0.035582
v 0.019651 0.008874 0.027838
v -0.002467 0.014403 0.052718
v -0.005783 0.018272 0.035030
v 0.006378 0.005558 0.059358
v 0.013566 0.013851 0.050509
v 0.022416 0.001689 0.031710
v 0.008036 0.021040 0.034474
v 0.014670 0.017723 0.039454
v -0.012421 0.007766 0.037794
v -0.012971 -0.003287 0.027841
v 0.005825 -0.012688 0.043326
v -0.010209 0.011635 0.027841
v 0.004721 -0.001627 0.056035
v 0.018543 0.002241 0.045529
v -0.005233 0.018272 0.041114
v -0.005233 0.002245 0.054934
v 0.009697 0.017723 0.027838
v 0.018543 -0.010476 0.030050
v 0.018543 0.013295 0.033925
v 0.008036 -0.016008 0.032262
v -0.005233 -0.012688 0.038347
v 0.018543 0.006106 0.044980
v -0.012971 0.000029 0.037794
v -0.009655 0.007214 0.044977
v -0.010759 -0.009920 0.033925
v 0.021862 -0.001627 0.033370
v 0.006932 0.020487 0.050509
v -0.003575 0.014403 0.051611
v 0.013013 -0.013796 0.036134
v 0.020755 0.008319 0.035030
v 0.007482 0.003346 0.059358
v -0.006336 0.015511 0.027841
v 0.014670 0.005002 0.053823
v -0.005233 -0.013792 0.036134
v 0.004721 0.005558 0.059358
v 0.006932 -0.015452 0.036687
v 0.011905 0.013851 0.052166
v 0.012459 0.019383 0.035585
v -0.011313 -0.007708 0.037242
v -0.004129 -0.001075 0.053826
v -0.001914 0.020487 0.038899
f 124 136 162 
f 100 101 115 
f 108 117 118 
f 106 119 122 
f 106 122 127 
f 105 116 128 
f 104 120 128 
f 120 105 128 
f 126 99 129 
f 116 126 129 
f 115 101 130 
f 110 115 130 
f 100 115 131 
f 119 107 131 
f 111 121 132 
f 115 110 133 
f 110 124 133 
f 111 132 134 
f 132 117 134 
f 108 118 135 
f 124 110 136 
f 112 122 138 
f 122 119 138 
f 104 128 138 
f 128 112 138 
f 131 115 138 
f 119 131 138 
f 115 133 138 
f 118 102 139 
f 106 118 139 
f 102 119 139 
f 119 106 139 
f 122 112 140 
f 129 99 140 
f 119 102 141 
f 107 119 141 
f 121 107 141 
f 121 111 142 
f 99 126 143 
f 108 135 143 
f 135 127 143 
f 130 101 144 
f 144 137 145 
f 110 130 145 
f 137 114 145 
f 130 144 145 
f 101 100 146 
f 100 131 146 
f 131 107 146 
f 118 106 147 
f 106 127 147 
f 135 118 147 
f 127 135 147 
f 116 105 148 
f 105 123 148 
f 126 116 148 
f 123 105 149 
f 114 123 149 
f 105 136 149 
f 136 110 149 
f 110 145 149 
f 145 114 149 
f 102 118 150 
f 118 117 150 
f 117 132 150 
f 127 122 151 
f 122 140 151 
f 140 99 151 
f 99 143 151 
f 143 127 151 
f 117 108 152 
f 125 103 152 
f 103 134 152 
f 134 117 152 
f 120 104 153 
f 124 120 153 
f 133 124 153 
f 104 138 153 
f 138 133 153 
f 143 126 154 
f 108 143 154 
f 152 108 154 
f 125 152 154 
f 107 121 155 
f 142 113 155 
f 121 142 155 
f 113 146 155 
f 146 107 155 
f 123 114 156 
f 103 125 156 
f 137 103 156 
f 114 137 156 
f 148 123 156 
f 125 148 156 
f 132 121 157 
f 141 102 157 
f 121 141 157 
f 102 150 157 
f 150 132 157 
f 148 125 158 
f 126 148 158 
f 125 154 158 
f 154 126 158 
f 112 128 159 
f 128 116 159 
f 116 129 159 
f 140 112 159 
f 129 140 159 
f 113 109 160 
f 109 137 160 
f 144 101 160 
f 137 144 160 
f 101 146 160 
f 146 113 160 
f 109 113 161 
f 134 103 161 
f 111 134 161 
f 103 137 161 
f 137 109 161 
f 142 111 161 
f 113 142 161 
f 105 120 162 
f 120 124 162 
f 136 105 162 
o convex_3
v 0.057254 0.012747 -0.035756
v 0.056700 0.021595 -0.032992
v 0.061121 0.017171 -0.033545
v 0.040667 0.017723 -0.030228
v 0.047856 0.021595 -0.036863
v 0.038453 0.021595 -0.030228
v 0.053380 0.018277 -0.030228
v 0.061121 0.016620 -0.036863
v 0.060017 0.013301 -0.032992
v 0.056145 0.021595 -0.030228
v 0.051170 0.016620 -0.036863
v 0.056145 0.021595 -0.036863
v 0.042324 0.019936 -0.034097
v 0.060017 0.013301 -0.036863
v 0.057807 0.012747 -0.033545
f 176 171 177 
f 164 167 168 
f 168 166 169 
f 169 166 171 
f 170 165 171 
f 165 164 172 
f 164 168 172 
f 168 169 172 
f 169 171 172 
f 171 165 172 
f 163 166 173 
f 167 170 173 
f 164 165 174 
f 167 164 174 
f 165 170 174 
f 170 167 174 
f 168 167 175 
f 166 168 175 
f 173 166 175 
f 167 173 175 
f 170 171 176 
f 163 173 176 
f 173 170 176 
f 166 163 177 
f 171 166 177 
f 163 176 177 
o convex_4
v 0.047856 0.021595 -0.036863
v 0.054490 0.043162 -0.035203
v 0.055042 0.042609 -0.034097
v 0.070526 0.027680 -0.036309
v 0.038453 0.021595 -0.030228
v 0.060015 0.024363 -0.030228
v 0.051177 0.042054 -0.036863
v 0.049513 0.034864 -0.030228
v 0.063889 0.038184 -0.032992
v 0.064442 0.039844 -0.036863
v 0.057252 0.021595 -0.030228
v 0.069418 0.029894 -0.032440
v 0.039008 0.026573 -0.030781
v 0.056147 0.021595 -0.036863
v 0.046754 0.033204 -0.036863
v 0.041219 0.029894 -0.030228
v 0.067760 0.025469 -0.036863
v 0.056147 0.032653 -0.030228
v 0.041219 0.021595 -0.033545
v 0.068866 0.026020 -0.033545
v 0.052282 0.042609 -0.034097
v 0.070526 0.030447 -0.034650
v 0.064442 0.039844 -0.034650
v 0.069971 0.030447 -0.036863
v 0.069418 0.027680 -0.032440
f 199 189 202 
f 182 183 185 
f 180 185 186 
f 184 179 187 
f 178 184 187 
f 182 178 188 
f 183 182 188 
f 178 187 191 
f 188 178 191 
f 184 178 192 
f 190 184 192 
f 182 185 193 
f 190 182 193 
f 184 190 193 
f 191 187 194 
f 188 191 194 
f 185 183 195 
f 186 185 195 
f 183 189 195 
f 189 186 195 
f 178 182 196 
f 182 190 196 
f 192 178 196 
f 190 192 196 
f 194 181 197 
f 188 194 197 
f 180 179 198 
f 179 184 198 
f 185 180 198 
f 184 193 198 
f 193 185 198 
f 189 199 200 
f 179 180 200 
f 180 186 200 
f 187 179 200 
f 186 189 200 
f 199 187 200 
f 181 194 201 
f 194 187 201 
f 199 181 201 
f 187 199 201 
f 183 188 202 
f 189 183 202 
f 188 197 202 
f 197 181 202 
f 181 199 202 
o convex_5
v -0.033993 -0.003291 0.039451
v -0.048921 -0.012137 0.037239
v -0.046706 -0.014348 0.037239
v -0.045049 -0.014900 0.050510
v -0.046155 -0.002739 0.049402
v -0.032333 -0.015452 0.050510
v -0.033993 -0.014348 0.037239
v -0.045049 0.000026 0.037239
v -0.033437 -0.004397 0.049957
v -0.041176 -0.017667 0.044425
v -0.032333 -0.007162 0.037239
v -0.038414 -0.000526 0.046638
v -0.048921 -0.006610 0.045532
v -0.048921 -0.003291 0.037239
v -0.047813 -0.011029 0.050510
v -0.038414 0.000026 0.037239
v -0.039522 -0.002184 0.050510
v -0.031778 -0.006056 0.048298
v -0.038968 -0.016560 0.037792
v -0.036755 -0.017112 0.050510
v -0.031778 -0.010477 0.041111
v -0.041730 0.000582 0.042217
v -0.033993 -0.002739 0.046638
v -0.033993 -0.016560 0.049957
v -0.041730 -0.017667 0.046638
v -0.042284 -0.001078 0.048851
v -0.043390 -0.016008 0.037239
v -0.047813 -0.012687 0.047745
v -0.047261 -0.007162 0.050510
f 217 219 231 
f 205 204 209 
f 209 204 210 
f 209 210 213 
f 207 210 216 
f 210 204 216 
f 204 215 216 
f 215 207 216 
f 206 208 217 
f 215 204 217 
f 203 213 218 
f 213 210 218 
f 208 211 219 
f 211 214 219 
f 217 208 219 
f 211 208 220 
f 213 203 220 
f 208 206 222 
f 208 209 223 
f 209 213 223 
f 220 208 223 
f 213 220 223 
f 210 207 224 
f 218 210 224 
f 214 218 224 
f 214 211 225 
f 203 218 225 
f 218 214 225 
f 220 203 225 
f 211 220 225 
f 209 208 226 
f 221 209 226 
f 212 221 226 
f 222 212 226 
f 208 222 226 
f 206 205 227 
f 212 222 227 
f 222 206 227 
f 207 219 228 
f 219 214 228 
f 224 207 228 
f 214 224 228 
f 205 209 229 
f 209 221 229 
f 221 212 229 
f 227 205 229 
f 212 227 229 
f 204 205 230 
f 205 206 230 
f 217 204 230 
f 206 217 230 
f 207 215 231 
f 215 217 231 
f 219 207 231 
o convex_6
v -0.016291 -0.011029 -0.005340
v 0.003610 0.023807 -0.004231
v 0.005824 0.023254 -0.001467
v -0.024030 0.005002 0.027283
v 0.021861 -0.002731 0.027838
v 0.022411 -0.006050 -0.005895
v -0.000809 -0.016561 0.020095
v -0.024030 0.014956 -0.005895
v 0.001400 0.018275 0.027838
v 0.022411 0.019935 -0.005895
v -0.024030 -0.004944 0.026177
v -0.024030 0.016616 0.016776
v 0.022411 0.018275 0.012906
v 0.010799 -0.014344 0.027838
v 0.005270 -0.014344 -0.005895
v -0.024030 -0.003837 -0.005895
v -0.009103 0.023254 -0.005895
v 0.017987 0.011084 0.027838
v 0.022411 -0.008263 0.006827
v -0.024030 -0.007710 0.014012
v -0.004679 -0.013795 0.027838
v 0.008034 -0.016557 0.015118
v -0.008548 -0.014348 -0.005895
v -0.007443 0.021041 0.012906
v 0.006379 0.018275 0.027838
v -0.007443 -0.014902 0.019540
v 0.021861 -0.008263 -0.002019
v 0.022411 0.002244 0.027838
v -0.024030 -0.002178 0.027838
v -0.019610 0.018828 -0.005895
v -0.024030 0.011641 0.022858
v 0.017987 0.019931 0.010700
v 0.016882 -0.011582 0.018988
v -0.002469 0.023254 0.001851
v -0.003019 0.017169 0.027838
v 0.012458 0.016062 0.027838
v -0.004679 -0.014902 -0.005895
v -0.024030 -0.007157 0.002957
v 0.003610 0.021041 0.014564
v -0.010762 -0.013795 -0.005895
v -0.002469 -0.016561 0.015670
v -0.024030 -0.006050 0.023964
v -0.009103 0.023254 -0.003128
v 0.010249 -0.012685 -0.005895
v 0.022411 0.019935 0.000745
v -0.012972 0.022148 -0.005340
v -0.014632 0.019378 0.014564
v 0.013563 -0.013791 0.015118
v 0.003610 0.023807 -0.005895
v -0.024030 0.015509 0.018988
v 0.009144 0.021037 0.011800
v 0.020756 0.006662 0.027838
v 0.013013 -0.012685 0.027838
v 0.000846 -0.014902 -0.005895
v -0.024030 0.003350 0.027838
v 0.009694 -0.013791 -0.000912
v 0.001400 0.023807 -0.002019
v 0.007484 -0.016557 0.018434
v -0.024030 -0.007710 0.006276
v -0.005784 0.023807 -0.003683
v 0.022411 -0.008263 -0.000361
v 0.019097 -0.008816 0.020095
v 0.022411 -0.001628 0.027838
v -0.024030 0.016616 0.010700
f 243 261 295 
f 237 239 241 
f 235 239 242 
f 239 235 243 
f 237 241 244 
f 236 240 245 
f 239 237 246 
f 242 239 247 
f 239 246 247 
f 241 239 248 
f 240 236 249 
f 237 244 250 
f 242 247 251 
f 238 245 252 
f 245 240 252 
f 247 246 254 
f 240 249 256 
f 238 252 257 
f 249 236 259 
f 250 244 259 
f 235 242 260 
f 252 240 260 
f 242 252 260 
f 248 239 261 
f 243 235 262 
f 256 244 263 
f 240 243 266 
f 260 240 266 
f 262 235 266 
f 249 244 267 
f 244 256 267 
f 256 249 267 
f 254 246 268 
f 247 232 269 
f 251 247 269 
f 255 240 270 
f 240 256 270 
f 265 255 270 
f 232 247 271 
f 247 254 271 
f 257 251 271 
f 257 271 272 
f 253 238 272 
f 238 257 272 
f 268 253 272 
f 254 268 272 
f 271 254 272 
f 242 251 273 
f 252 242 273 
f 251 257 273 
f 257 252 273 
f 246 237 275 
f 237 258 275 
f 233 234 276 
f 241 233 276 
f 244 241 276 
f 234 263 276 
f 263 244 276 
f 261 243 277 
f 248 261 277 
f 274 248 277 
f 243 274 277 
f 243 240 278 
f 240 255 278 
f 274 243 278 
f 255 274 278 
f 245 253 279 
f 264 245 279 
f 250 264 279 
f 233 241 280 
f 241 248 280 
f 243 262 281 
f 266 243 281 
f 262 266 281 
f 263 234 282 
f 256 263 282 
f 270 256 282 
f 244 249 283 
f 249 259 283 
f 259 244 283 
f 236 245 284 
f 245 264 284 
f 246 253 285 
f 253 268 285 
f 268 246 285 
f 235 260 286 
f 266 235 286 
f 260 266 286 
f 253 246 287 
f 246 275 287 
f 275 258 287 
f 234 233 288 
f 265 270 288 
f 233 280 288 
f 282 234 288 
f 270 282 288 
f 245 238 289 
f 238 253 289 
f 253 245 289 
f 269 232 290 
f 251 269 290 
f 232 271 290 
f 271 251 290 
f 255 265 291 
f 248 274 291 
f 274 255 291 
f 280 248 291 
f 265 288 291 
f 288 280 291 
f 237 250 292 
f 258 237 292 
f 279 253 292 
f 250 279 292 
f 253 287 292 
f 287 258 292 
f 250 236 293 
f 264 250 293 
f 236 284 293 
f 284 264 293 
f 236 250 294 
f 259 236 294 
f 250 259 294 
f 239 243 295 
f 261 239 295 
o convex_7
v 0.025184 -0.006052 -0.003682
v 0.022971 0.005560 0.018437
v 0.029055 0.008882 0.014011
v 0.022416 0.020489 -0.005895
v 0.042877 0.018276 -0.005895
v 0.022971 0.017722 0.013459
v 0.034579 0.001136 0.005166
v 0.022416 -0.007159 0.010141
v 0.033473 0.026019 -0.005340
v 0.022416 -0.006052 -0.005895
v 0.041216 0.019382 -0.000917
v 0.039003 0.005560 -0.005895
v 0.036239 0.006112 0.006821
v 0.022416 0.000584 0.017882
v 0.041769 0.010533 -0.003128
v 0.029608 0.026019 -0.005895
v 0.031264 -0.002734 0.001295
v 0.022416 0.018828 0.011246
v 0.027395 -0.003285 0.010694
v 0.026287 0.015506 0.013459
v 0.032921 0.010533 0.010694
v 0.032370 0.005560 0.011246
v 0.039003 0.023807 -0.005340
v 0.023523 -0.007713 0.006271
v 0.041216 0.016064 0.000188
v 0.034028 0.021591 0.001850
v 0.026842 -0.005501 0.007376
v 0.022971 -0.004395 0.014564
v 0.022416 0.012194 0.016777
v 0.030711 0.001136 0.010694
v 0.022971 0.001691 0.018437
v 0.036239 0.002242 0.002400
v 0.027395 0.024913 -0.005340
v 0.023523 -0.007713 -0.000365
v 0.042877 0.013300 -0.005895
v 0.029055 -0.004395 -0.000365
v 0.024631 0.017170 0.013459
f 324 315 332 
f 299 300 305 
f 303 299 305 
f 296 305 307 
f 305 300 307 
f 299 303 309 
f 300 299 311 
f 301 304 313 
f 299 309 313 
f 304 311 313 
f 306 315 316 
f 315 298 316 
f 308 316 317 
f 316 298 317 
f 306 300 318 
f 300 311 318 
f 311 304 318 
f 300 306 320 
f 308 310 320 
f 306 316 320 
f 316 308 320 
f 304 301 321 
f 318 304 321 
f 306 318 321 
f 312 302 322 
f 302 314 322 
f 303 319 322 
f 309 303 323 
f 322 314 323 
f 303 322 323 
f 297 298 324 
f 309 297 324 
f 301 313 324 
f 313 309 324 
f 298 315 324 
f 302 308 325 
f 314 302 325 
f 308 317 325 
f 323 314 325 
f 323 325 326 
f 298 297 326 
f 297 309 326 
f 317 298 326 
f 309 323 326 
f 325 317 326 
f 308 302 327 
f 307 310 327 
f 310 308 327 
f 302 312 327 
f 312 307 327 
f 311 299 328 
f 299 313 328 
f 313 311 328 
f 305 296 329 
f 303 305 329 
f 319 303 329 
f 307 300 330 
f 310 307 330 
f 300 320 330 
f 320 310 330 
f 296 307 331 
f 307 312 331 
f 312 322 331 
f 322 319 331 
f 329 296 331 
f 319 329 331 
f 315 306 332 
f 321 301 332 
f 306 321 332 
f 301 324 332 
o convex_8
v -0.036197 -0.043658 -0.014746
v -0.013531 -0.043104 -0.009217
v -0.013531 -0.044763 -0.009217
v -0.022378 -0.039789 -0.036860
v -0.026245 -0.035916 -0.015300
v -0.024038 -0.047527 -0.019723
v -0.030670 -0.035916 -0.036305
v -0.017403 -0.035916 -0.029670
v -0.025693 -0.045869 -0.005901
v -0.029010 -0.040894 -0.036860
v -0.035645 -0.040894 -0.011981
v -0.016851 -0.040340 -0.007004
v -0.015191 -0.047527 -0.011981
v -0.035092 -0.045316 -0.014746
v -0.019613 -0.048082 -0.008111
v -0.032327 -0.035916 -0.024142
v -0.031775 -0.041448 -0.008111
v -0.018508 -0.035916 -0.018616
v -0.024038 -0.041999 -0.035199
v -0.022378 -0.035916 -0.036860
v -0.028458 -0.046976 -0.019723
v -0.031775 -0.045869 -0.009217
v -0.015743 -0.045869 -0.006453
v -0.019061 -0.046421 -0.021381
v -0.017956 -0.039235 -0.029670
v -0.014086 -0.041448 -0.008665
v -0.026245 -0.042550 -0.005901
v -0.014086 -0.045869 -0.012536
v -0.036197 -0.041448 -0.014194
v -0.030670 -0.038682 -0.036305
v -0.027353 -0.041999 -0.035754
v -0.016296 -0.042550 -0.005901
v -0.036197 -0.043658 -0.011981
v -0.021273 -0.047527 -0.019723
v -0.029563 -0.035916 -0.018065
v -0.020720 -0.040340 -0.034093
v -0.030670 -0.046421 -0.009772
v -0.022378 -0.035916 -0.015300
v -0.032327 -0.044209 -0.008111
v -0.016296 -0.048082 -0.008665
v -0.030670 -0.045869 -0.020829
v -0.017403 -0.035916 -0.022481
f 350 358 374 
f 339 337 340 
f 333 342 346 
f 337 339 348 
f 337 343 349 
f 344 337 349 
f 340 337 350 
f 339 340 352 
f 340 336 352 
f 336 342 352 
f 342 339 352 
f 338 347 353 
f 335 334 355 
f 341 347 355 
f 334 340 358 
f 350 344 358 
f 344 349 359 
f 334 335 360 
f 340 334 360 
f 335 345 360 
f 345 356 360 
f 357 340 360 
f 339 333 361 
f 348 339 361 
f 343 348 361 
f 333 339 362 
f 342 333 362 
f 339 342 362 
f 342 336 363 
f 336 351 363 
f 338 353 363 
f 355 334 364 
f 341 355 364 
f 334 358 364 
f 358 344 364 
f 359 341 364 
f 344 359 364 
f 333 346 365 
f 346 354 365 
f 361 333 365 
f 343 361 365 
f 356 345 366 
f 351 356 366 
f 338 363 366 
f 363 351 366 
f 343 337 367 
f 337 348 367 
f 348 343 367 
f 336 340 368 
f 351 336 368 
f 356 351 368 
f 340 357 368 
f 360 356 368 
f 357 360 368 
f 347 341 369 
f 346 353 369 
f 353 347 369 
f 354 346 369 
f 341 354 369 
f 337 344 370 
f 350 337 370 
f 344 350 370 
f 349 343 371 
f 354 341 371 
f 341 359 371 
f 359 349 371 
f 343 365 371 
f 365 354 371 
f 345 335 372 
f 347 338 372 
f 335 355 372 
f 355 347 372 
f 338 366 372 
f 366 345 372 
f 346 342 373 
f 353 346 373 
f 342 363 373 
f 363 353 373 
f 340 350 374 
f 358 340 374 
o convex_9
v -0.034543 -0.023198 -0.024696
v -0.014082 -0.020985 -0.021933
v -0.014082 -0.021539 -0.021933
v -0.022378 -0.035916 -0.036863
v -0.026247 -0.035916 -0.015851
v -0.025141 -0.020985 -0.011978
v -0.027351 -0.020985 -0.031884
v -0.030671 -0.035916 -0.035755
v -0.017953 -0.035362 -0.019169
v -0.033986 -0.032045 -0.023039
v -0.016848 -0.020985 -0.030225
v -0.016295 -0.034810 -0.030778
v -0.032880 -0.020985 -0.017510
v -0.019061 -0.021539 -0.013639
v -0.027905 -0.024857 -0.034649
v -0.032880 -0.020985 -0.028566
v -0.029011 -0.035362 -0.016957
v -0.022378 -0.035916 -0.015851
v -0.032330 -0.035916 -0.024145
v -0.025692 -0.030384 -0.036863
v -0.014637 -0.029830 -0.024145
v -0.033435 -0.033151 -0.029672
v -0.031777 -0.025965 -0.016404
v -0.033435 -0.024304 -0.030225
v -0.015189 -0.020985 -0.018063
v -0.017403 -0.035916 -0.022486
v -0.014637 -0.020985 -0.026355
v -0.029564 -0.034256 -0.036863
v -0.022932 -0.025411 -0.034649
v -0.016848 -0.029278 -0.031884
v -0.027905 -0.022092 -0.013086
v -0.022378 -0.021539 -0.011978
v -0.030118 -0.024304 -0.033543
v -0.019061 -0.027071 -0.033543
v -0.033986 -0.033703 -0.026907
v -0.033986 -0.020985 -0.020275
v -0.033435 -0.027071 -0.019169
v -0.015189 -0.031492 -0.028566
f 404 401 412 
f 380 376 381 
f 378 379 382 
f 381 376 385 
f 380 381 387 
f 387 381 390 
f 379 378 392 
f 383 388 392 
f 382 379 393 
f 379 391 393 
f 391 384 393 
f 375 390 398 
f 382 396 398 
f 377 376 399 
f 376 380 399 
f 380 388 399 
f 388 383 399 
f 395 377 399 
f 383 395 399 
f 378 386 400 
f 392 378 400 
f 383 392 400 
f 395 383 400 
f 386 395 400 
f 376 377 401 
f 385 376 401 
f 378 382 402 
f 394 378 402 
f 389 394 402 
f 382 398 402 
f 381 385 403 
f 389 381 403 
f 394 389 403 
f 386 378 404 
f 385 401 404 
f 379 380 405 
f 380 387 405 
f 391 379 405 
f 387 397 405 
f 397 391 405 
f 380 379 406 
f 388 380 406 
f 379 392 406 
f 392 388 406 
f 381 389 407 
f 390 381 407 
f 398 390 407 
f 389 402 407 
f 402 398 407 
f 378 394 408 
f 403 385 408 
f 394 403 408 
f 404 378 408 
f 385 404 408 
f 384 375 409 
f 382 393 409 
f 393 384 409 
f 396 382 409 
f 375 398 409 
f 398 396 409 
f 375 384 410 
f 390 375 410 
f 387 390 410 
f 384 391 411 
f 397 387 411 
f 391 397 411 
f 410 384 411 
f 387 410 411 
f 377 395 412 
f 395 386 412 
f 401 377 412 
f 386 404 412 
o convex_10
v -0.010211 -0.008818 -0.036860
v 0.004166 0.023807 -0.005901
v -0.006338 0.023807 -0.005901
v -0.005786 -0.014901 -0.005901
v 0.005825 0.013296 -0.036860
v 0.005825 -0.014348 -0.014194
v -0.010211 0.020487 -0.026906
v -0.010211 -0.013795 -0.005901
v 0.005825 -0.007711 -0.036860
v 0.005825 -0.013795 -0.005901
v -0.010211 0.013853 -0.036860
v 0.005825 0.022701 -0.019171
v -0.010211 0.022701 -0.005901
v -0.004128 -0.014901 -0.025248
v 0.005825 0.023254 -0.005901
v 0.005825 0.018273 -0.031328
v -0.010211 -0.013795 -0.028012
v 0.005825 -0.009924 -0.034647
v -0.002469 -0.016008 -0.013642
v -0.006891 0.023254 -0.016407
v -0.000811 -0.014901 -0.025248
v -0.009657 -0.011581 -0.033541
v -0.009657 0.016617 -0.034093
v 0.005825 0.021594 -0.024142
v 0.002507 0.023807 -0.013088
v -0.009657 0.022147 -0.021929
v -0.008550 -0.014901 -0.011981
v 0.005825 -0.012134 -0.028012
v 0.001954 -0.015455 -0.009772
v 0.001402 -0.015455 -0.018065
v -0.007998 0.018827 -0.030777
v -0.009657 0.023254 -0.013088
f 432 438 444 
f 414 415 416 
f 416 415 420 
f 419 413 420 
f 413 417 421 
f 417 418 421 
f 414 416 422 
f 418 417 422 
f 417 413 423 
f 413 419 423 
f 422 417 424 
f 420 415 425 
f 419 420 425 
f 414 422 427 
f 424 414 427 
f 422 424 427 
f 424 417 428 
f 420 413 429 
f 413 421 430 
f 421 418 430 
f 429 426 431 
f 426 429 433 
f 431 426 433 
f 429 413 434 
f 413 430 434 
f 433 429 434 
f 430 433 434 
f 417 423 435 
f 423 419 435 
f 428 417 435 
f 424 428 436 
f 415 414 437 
f 414 424 437 
f 432 415 437 
f 424 432 437 
f 432 424 438 
f 436 419 438 
f 424 436 438 
f 416 420 439 
f 420 429 439 
f 431 416 439 
f 429 431 439 
f 430 418 440 
f 433 430 440 
f 422 416 441 
f 418 422 441 
f 416 431 441 
f 431 433 442 
f 440 418 442 
f 433 440 442 
f 418 441 442 
f 441 431 442 
f 435 419 443 
f 428 435 443 
f 419 436 443 
f 436 428 443 
f 425 415 444 
f 419 425 444 
f 415 432 444 
f 438 419 444 
o convex_11
v 0.015227 -0.050292 -0.010872
v 0.020757 -0.039789 -0.032437
v 0.020757 -0.039234 -0.032437
v 0.034582 -0.048634 -0.018064
v 0.024074 -0.039234 -0.015852
v 0.015227 -0.055269 -0.018064
v 0.014123 -0.039234 -0.021929
v 0.025178 -0.053609 -0.011980
v 0.033475 -0.050292 -0.020276
v 0.028497 -0.039234 -0.028012
v 0.012462 -0.051951 -0.018064
v 0.025178 -0.048080 -0.025800
v 0.015227 -0.039789 -0.028565
v 0.016335 -0.039234 -0.016958
v 0.012462 -0.053057 -0.013086
v 0.034025 -0.046978 -0.016958
v 0.026282 -0.039789 -0.031331
v 0.029050 -0.039234 -0.020829
v 0.025178 -0.054715 -0.016405
v 0.015781 -0.055269 -0.012533
v 0.030156 -0.049740 -0.013639
v 0.016888 -0.047528 -0.025800
v 0.012462 -0.049740 -0.013086
v 0.030156 -0.053057 -0.015299
v 0.017440 -0.049740 -0.010872
v 0.034025 -0.046424 -0.020276
v 0.019098 -0.039234 -0.015852
v 0.017994 -0.055269 -0.018064
v 0.015227 -0.053057 -0.010872
v 0.017994 -0.055822 -0.013639
v 0.014123 -0.039234 -0.024694
v 0.018546 -0.047528 -0.026353
v 0.013016 -0.054163 -0.017511
v 0.025178 -0.054715 -0.013086
v 0.025178 -0.050846 -0.011980
v 0.029050 -0.053057 -0.018064
f 463 472 480 
f 449 447 451 
f 447 449 454 
f 447 446 457 
f 449 451 458 
f 446 447 461 
f 447 454 461 
f 456 446 461 
f 453 456 461 
f 454 449 462 
f 449 460 462 
f 460 449 465 
f 448 460 465 
f 457 446 466 
f 445 458 467 
f 458 451 467 
f 459 445 467 
f 455 459 467 
f 453 448 468 
f 465 452 468 
f 448 465 468 
f 448 453 470 
f 460 448 470 
f 453 461 470 
f 461 454 470 
f 454 462 470 
f 462 460 470 
f 458 445 471 
f 449 458 471 
f 445 469 471 
f 469 449 471 
f 450 456 472 
f 445 459 473 
f 464 452 473 
f 459 464 473 
f 469 445 473 
f 452 469 473 
f 464 450 474 
f 450 472 474 
f 472 463 474 
f 451 447 475 
f 447 457 475 
f 457 455 475 
f 467 451 475 
f 455 467 475 
f 446 456 476 
f 456 450 476 
f 450 466 476 
f 466 446 476 
f 455 457 477 
f 459 455 477 
f 464 459 477 
f 450 464 477 
f 466 450 477 
f 457 466 477 
f 452 464 478 
f 468 452 478 
f 463 468 478 
f 474 463 478 
f 464 474 478 
f 465 449 479 
f 452 465 479 
f 449 469 479 
f 469 452 479 
f 456 453 480 
f 453 468 480 
f 468 463 480 
f 472 456 480 
o convex_12
v 0.017440 -0.037019 -0.034094
v 0.030711 -0.020434 -0.019169
v 0.030711 -0.023752 -0.019169
v 0.011910 -0.020434 -0.014193
v 0.023520 -0.039234 -0.015852
v 0.026283 -0.030383 -0.036857
v 0.014123 -0.019879 -0.027459
v 0.022415 -0.019879 -0.009213
v 0.029049 -0.039234 -0.025800
v 0.014123 -0.039234 -0.022487
v 0.011910 -0.029829 -0.027459
v 0.026283 -0.021539 -0.030224
v 0.016887 -0.039234 -0.016958
v 0.019652 -0.029829 -0.036857
v 0.023520 -0.038126 -0.035201
v 0.028495 -0.025409 -0.014193
v 0.030157 -0.029284 -0.028566
v 0.016887 -0.020434 -0.009771
v 0.029049 -0.039234 -0.021383
v 0.029604 -0.019879 -0.024141
v 0.010803 -0.019879 -0.016406
v 0.026837 -0.034255 -0.036857
v 0.014677 -0.039234 -0.028011
v 0.020757 -0.023199 -0.032988
v 0.018545 -0.033702 -0.036857
v 0.012465 -0.019879 -0.026352
v 0.030711 -0.031491 -0.026352
v 0.029049 -0.019879 -0.014193
v 0.013019 -0.031491 -0.030224
v 0.011356 -0.025963 -0.018065
v 0.025732 -0.039234 -0.032435
v 0.026283 -0.037019 -0.016406
v 0.019652 -0.039234 -0.015852
v 0.030157 -0.021539 -0.025248
v 0.010803 -0.019879 -0.021935
v 0.011356 -0.029284 -0.024693
v 0.026283 -0.024305 -0.011982
v 0.015228 -0.039234 -0.018617
v 0.019652 -0.020988 -0.009213
v 0.013019 -0.028731 -0.030224
v 0.021862 -0.037019 -0.036857
v 0.019098 -0.039234 -0.032435
v 0.024073 -0.028731 -0.036857
v 0.023520 -0.021539 -0.031329
v 0.024627 -0.019879 -0.027459
v 0.030711 -0.030938 -0.021935
v 0.030157 -0.024858 -0.016958
v 0.014123 -0.020988 -0.011982
f 518 493 528 
f 489 485 490 
f 490 485 493 
f 485 489 499 
f 487 488 500 
f 488 487 501 
f 484 498 501 
f 498 488 501 
f 494 486 502 
f 486 497 502 
f 489 490 503 
f 494 487 504 
f 494 502 505 
f 487 494 506 
f 501 487 506 
f 482 483 507 
f 499 489 507 
f 489 502 507 
f 502 497 507 
f 482 500 508 
f 500 488 508 
f 481 503 509 
f 503 491 509 
f 505 481 509 
f 484 501 510 
f 502 489 511 
f 495 502 511 
f 489 503 511 
f 485 499 512 
f 499 496 512 
f 493 485 513 
f 498 493 513 
f 486 492 514 
f 497 486 514 
f 500 482 514 
f 492 500 514 
f 482 507 514 
f 507 497 514 
f 501 506 515 
f 503 490 516 
f 491 503 516 
f 490 510 516 
f 510 501 516 
f 501 515 516 
f 515 491 516 
f 488 485 517 
f 496 508 517 
f 508 488 517 
f 485 512 517 
f 512 496 517 
f 490 493 518 
f 510 490 518 
f 484 510 518 
f 485 488 519 
f 488 498 519 
f 513 485 519 
f 498 513 519 
f 494 505 520 
f 506 494 520 
f 509 491 520 
f 505 509 520 
f 515 506 520 
f 491 515 520 
f 502 495 521 
f 481 505 521 
f 505 502 521 
f 503 481 522 
f 495 511 522 
f 511 503 522 
f 521 495 522 
f 481 521 522 
f 492 486 523 
f 486 494 523 
f 494 504 523 
f 523 504 524 
f 504 487 524 
f 492 523 524 
f 492 524 525 
f 487 500 525 
f 500 492 525 
f 524 487 525 
f 507 483 526 
f 499 507 526 
f 483 482 527 
f 496 499 527 
f 482 508 527 
f 508 496 527 
f 526 483 527 
f 499 526 527 
f 498 484 528 
f 493 498 528 
f 484 518 528 
o convex_13
v 0.018544 -0.009370 -0.036308
v 0.022969 0.019936 -0.005895
v 0.022969 0.019936 -0.007559
v 0.005826 0.023254 -0.005898
v 0.017438 -0.019879 -0.009214
v 0.005826 0.013299 -0.036863
v 0.005826 -0.013795 -0.005898
v 0.005826 -0.010476 -0.034095
v 0.022969 0.003343 -0.035756
v 0.022969 -0.019879 -0.028011
v 0.022969 -0.019322 -0.009214
v 0.012463 0.018825 -0.028011
v 0.010803 -0.019879 -0.023586
v 0.022969 -0.005494 -0.005898
v 0.019096 0.011082 -0.034095
v 0.005826 0.022148 -0.021928
v 0.006933 -0.008264 -0.036863
v 0.013015 -0.018220 -0.030221
v 0.021861 -0.003839 -0.036863
v 0.016332 0.009976 -0.036863
v 0.011357 -0.019879 -0.014743
v 0.022969 -0.016003 -0.031885
v 0.009145 0.017170 -0.032437
v 0.022415 0.007214 -0.034095
v 0.006380 -0.013795 -0.026350
v 0.006380 0.023254 -0.013640
v 0.010803 0.021042 -0.022479
v 0.013015 -0.016008 -0.032437
v 0.017438 0.014405 -0.030779
v 0.012463 -0.019879 -0.027457
v 0.014122 0.013299 -0.035199
v 0.010251 -0.019879 -0.018614
v 0.005826 0.018825 -0.030221
v 0.020755 -0.019322 -0.008663
v 0.020755 0.006108 -0.036863
v 0.005826 -0.008817 -0.036308
v 0.016332 -0.011025 -0.035756
v 0.022969 -0.009923 -0.034647
v 0.022969 -0.019879 -0.009769
v 0.005826 -0.013795 -0.015850
v 0.010251 -0.012689 -0.005898
v 0.008593 0.022148 -0.019721
v 0.008039 0.019936 -0.028011
f 551 561 571 
f 530 532 535 
f 532 534 535 
f 535 534 536 
f 531 530 537 
f 537 530 538 
f 538 530 539 
f 538 533 541 
f 539 530 542 
f 534 532 544 
f 529 545 547 
f 545 534 547 
f 547 534 548 
f 533 535 549 
f 541 533 549 
f 537 538 550 
f 531 537 552 
f 543 531 552 
f 536 541 553 
f 530 531 554 
f 532 530 554 
f 544 532 554 
f 531 540 555 
f 538 546 556 
f 550 538 556 
f 540 531 557 
f 531 543 557 
f 541 536 558 
f 538 541 558 
f 546 538 558 
f 536 546 558 
f 548 534 559 
f 543 548 559 
f 551 540 559 
f 534 551 559 
f 540 557 559 
f 557 543 559 
f 549 535 560 
f 541 549 560 
f 553 541 560 
f 534 544 561 
f 551 534 561 
f 535 533 562 
f 539 542 562 
f 537 547 563 
f 548 543 563 
f 547 548 563 
f 552 537 563 
f 543 552 563 
f 536 534 564 
f 534 545 564 
f 546 536 564 
f 545 556 564 
f 556 546 564 
f 545 529 565 
f 529 550 565 
f 556 545 565 
f 550 556 565 
f 547 537 566 
f 529 547 566 
f 537 550 566 
f 550 529 566 
f 533 538 567 
f 538 539 567 
f 562 533 567 
f 539 562 567 
f 535 536 568 
f 536 553 568 
f 560 535 568 
f 553 560 568 
f 530 535 569 
f 542 530 569 
f 535 562 569 
f 562 542 569 
f 554 531 570 
f 544 554 570 
f 555 544 570 
f 531 555 570 
f 540 551 571 
f 544 555 571 
f 555 540 571 
f 561 544 571 
o convex_14
v -0.026800 0.001130 -0.036863
v -0.010211 0.022697 -0.011428
v -0.010211 0.022697 -0.016405
v -0.014084 -0.020977 -0.025248
v -0.032882 -0.020985 -0.017510
v -0.010211 0.013294 -0.036863
v -0.010211 -0.013789 -0.011428
v -0.024589 0.011640 -0.011428
v -0.027351 -0.018214 -0.034094
v -0.010211 -0.009368 -0.036863
v -0.021272 0.014954 -0.030223
v -0.030671 0.000582 -0.028565
v -0.026246 -0.020985 -0.011983
v -0.033433 -0.020985 -0.027459
v -0.033990 -0.014901 -0.020276
v -0.017955 -0.020985 -0.031331
v -0.020720 0.017720 -0.018618
v -0.012424 0.020482 -0.026354
v -0.025140 0.008873 -0.034647
v -0.026246 -0.009924 -0.036863
v -0.015741 -0.020977 -0.016957
v -0.019060 0.011640 -0.036863
v -0.017953 0.019931 -0.011428
v -0.010211 -0.014345 -0.028012
v -0.022929 -0.019878 -0.011428
v -0.029563 -0.002732 -0.034094
v -0.015741 0.020482 -0.022487
v -0.017401 -0.012686 -0.036863
v -0.025694 0.009425 -0.031331
v -0.010211 0.018272 -0.031331
v -0.029011 -0.013237 -0.034647
v -0.028459 -0.017663 -0.013088
v -0.016295 0.017164 -0.031331
v -0.022929 0.014954 -0.011428
v -0.015190 -0.019322 -0.031883
v -0.029563 -0.020985 -0.031331
v -0.032882 -0.016008 -0.017510
v -0.030117 0.002237 -0.027459
v -0.019614 -0.020985 -0.013088
v -0.016847 -0.017663 -0.034094
v -0.028459 0.003345 -0.033542
v -0.025140 0.009425 -0.011428
v -0.012424 0.015505 -0.035200
v -0.033990 -0.014901 -0.023040
v -0.033990 -0.020985 -0.019723
v -0.014084 -0.020977 -0.020276
v -0.011873 0.022697 -0.013088
v -0.024589 0.007214 -0.036863
v -0.020720 0.017168 -0.024145
v -0.020720 0.013299 -0.034094
v -0.018507 0.017720 -0.028012
v -0.011873 -0.017663 -0.021382
f 578 617 623 
f 574 573 577 
f 577 573 578 
f 578 573 579 
f 572 577 581 
f 577 578 581 
f 584 576 585 
f 584 585 587 
f 572 581 591 
f 577 572 593 
f 579 573 594 
f 581 578 595 
f 578 579 596 
f 574 589 598 
f 588 594 598 
f 591 581 599 
f 580 591 599 
f 582 590 600 
f 574 577 601 
f 589 574 601 
f 572 591 602 
f 591 580 602 
f 585 597 602 
f 597 572 602 
f 576 584 603 
f 589 601 604 
f 579 594 605 
f 594 588 605 
f 588 600 605 
f 575 587 606 
f 595 575 606 
f 581 595 606 
f 580 587 607 
f 587 585 607 
f 602 580 607 
f 585 602 607 
f 576 603 608 
f 586 579 609 
f 583 586 609 
f 579 605 609 
f 605 600 609 
f 584 587 610 
f 592 578 610 
f 578 596 610 
f 596 584 610 
f 587 580 611 
f 599 581 611 
f 580 599 611 
f 606 587 611 
f 581 606 611 
f 597 583 612 
f 572 597 612 
f 600 590 612 
f 583 609 612 
f 609 600 612 
f 579 586 613 
f 596 579 613 
f 584 596 613 
f 603 584 613 
f 586 608 613 
f 608 603 613 
f 577 593 614 
f 601 577 614 
f 604 601 614 
f 586 583 615 
f 583 597 615 
f 597 585 615 
f 585 576 616 
f 576 608 616 
f 608 586 616 
f 586 615 616 
f 615 585 616 
f 587 575 617 
f 578 592 617 
f 610 587 617 
f 592 610 617 
f 573 574 618 
f 594 573 618 
f 574 598 618 
f 598 594 618 
f 593 572 619 
f 572 612 619 
f 612 590 619 
f 588 598 620 
f 600 588 620 
f 582 600 620 
f 590 582 621 
f 614 593 621 
f 604 614 621 
f 593 619 621 
f 619 590 621 
f 598 589 622 
f 589 604 622 
f 582 620 622 
f 620 598 622 
f 621 582 622 
f 604 621 622 
f 575 595 623 
f 595 578 623 
f 617 575 623 
o convex_15
v -0.011320 0.022701 -0.005895
v -0.026799 0.003349 -0.006449
v -0.026799 0.003349 -0.005895
v -0.010213 -0.013796 -0.011425
v -0.021822 0.016617 -0.011425
v -0.010213 -0.013796 -0.005895
v -0.010213 0.022701 -0.011425
v -0.024034 -0.001628 -0.011425
v -0.023480 0.015510 -0.005895
v -0.021822 -0.006051 -0.005895
v -0.025140 0.009979 -0.011425
v -0.016849 -0.010477 -0.011425
v -0.010213 0.022701 -0.005895
v -0.017955 0.019936 -0.011425
v -0.026245 0.010533 -0.006449
v -0.015189 -0.011581 -0.005895
v -0.024586 -0.002736 -0.007002
v -0.019611 0.018829 -0.005895
v -0.025692 0.004453 -0.010871
f 634 631 642 
f 624 626 629 
f 629 627 630 
f 627 628 630 
f 628 627 631 
f 626 624 632 
f 629 626 633 
f 628 631 634 
f 631 627 635 
f 624 629 636 
f 629 630 636 
f 630 624 636 
f 624 630 637 
f 630 628 637 
f 628 632 637 
f 625 626 638 
f 626 632 638 
f 632 628 638 
f 634 625 638 
f 628 634 638 
f 627 629 639 
f 629 633 639 
f 635 627 639 
f 633 635 639 
f 626 625 640 
f 625 631 640 
f 633 626 640 
f 631 635 640 
f 635 633 640 
f 632 624 641 
f 624 637 641 
f 637 632 641 
f 631 625 642 
f 625 634 642 
o convex_16
v 0.022969 -0.000524 -0.010319
v 0.034582 0.006112 -0.005895
v 0.034582 0.002793 -0.005895
v 0.033476 0.006112 -0.011978
v 0.022969 0.006112 -0.005895
v 0.023524 -0.005501 -0.005895
v 0.022969 0.005558 -0.010872
v 0.034582 0.005004 -0.010872
v 0.022969 -0.004394 -0.007555
f 643 650 651 
f 645 644 647 
f 644 646 647 
f 645 647 648 
f 646 643 649 
f 643 647 649 
f 647 646 649 
f 644 645 650 
f 646 644 650 
f 643 646 650 
f 645 648 650 
f 650 648 651 
f 647 643 651 
f 648 647 651 
o convex_17
v -0.045601 -0.014349 0.050511
v -0.033992 -0.002736 0.061016
v -0.032887 -0.003843 0.061016
v -0.048918 -0.014349 0.061016
v -0.032332 -0.017114 0.056593
v -0.041730 -0.003289 0.050511
v -0.032332 -0.011030 0.050511
v -0.049471 -0.007714 0.058251
v -0.038969 -0.017114 0.050511
v -0.042835 -0.003843 0.061016
v -0.035098 -0.004396 0.050511
v -0.047813 -0.008269 0.050511
v -0.033439 -0.008269 0.061016
v -0.032887 -0.016561 0.050511
v -0.049471 -0.011582 0.054935
v -0.032332 -0.015455 0.058251
v -0.050027 -0.009375 0.061016
v -0.047813 -0.014902 0.061016
v -0.047813 -0.006055 0.053830
v -0.032332 -0.004949 0.060463
v -0.033439 -0.006608 0.050511
v -0.045601 -0.014902 0.061016
v -0.037863 -0.002736 0.061016
v -0.037863 -0.003289 0.050511
v -0.036758 -0.017114 0.055488
f 656 669 676 
f 654 653 655 
f 652 657 658 
f 652 658 660 
f 655 653 661 
f 653 654 662 
f 658 657 662 
f 657 652 663 
f 654 655 664 
f 658 656 665 
f 656 660 665 
f 660 658 665 
f 652 655 666 
f 663 652 666 
f 659 663 666 
f 656 658 667 
f 655 661 668 
f 661 659 668 
f 666 655 668 
f 659 666 668 
f 655 652 669 
f 652 660 669 
f 664 655 669 
f 661 657 670 
f 659 661 670 
f 657 663 670 
f 663 659 670 
f 654 664 671 
f 667 658 671 
f 664 667 671 
f 662 654 672 
f 658 662 672 
f 654 671 672 
f 671 658 672 
f 656 667 673 
f 667 664 673 
f 669 656 673 
f 664 669 673 
f 653 657 674 
f 661 653 674 
f 657 661 674 
f 657 653 675 
f 653 662 675 
f 662 657 675 
f 660 656 676 
f 669 660 676 
o convex_18
v -0.024589 -0.012138 0.058804
v -0.032330 -0.017114 0.052723
v -0.032330 -0.016561 0.051618
v -0.032330 -0.008819 0.056593
v -0.029012 -0.015455 0.060463
v -0.031777 -0.011585 0.050511
v -0.024589 -0.016008 0.056593
v -0.032330 -0.017114 0.056593
v -0.026249 -0.017114 0.059357
v -0.026249 -0.012691 0.061016
v -0.025696 -0.012138 0.055488
v -0.028459 -0.014902 0.052171
v -0.031777 -0.008819 0.053276
v -0.032330 -0.010479 0.058251
f 681 686 690 
f 679 678 680 
f 679 680 682 
f 678 679 683 
f 680 678 684 
f 678 683 685 
f 683 677 685 
f 684 678 685 
f 681 684 685 
f 677 680 686 
f 685 677 686 
f 681 685 686 
f 677 683 687 
f 687 683 688 
f 679 682 688 
f 683 679 688 
f 682 687 688 
f 680 677 689 
f 682 680 689 
f 677 687 689 
f 687 682 689 
f 680 684 690 
f 684 681 690 
f 686 680 690 
o convex_19
v -0.038414 -0.008820 0.069311
v -0.050027 -0.012690 0.061019
v -0.049473 -0.013796 0.061019
v -0.038414 -0.003842 0.061019
v -0.042838 -0.017112 0.062678
v -0.043393 -0.009927 0.070970
v -0.043393 -0.004396 0.065996
v -0.042285 -0.013796 0.070970
v -0.038414 -0.012690 0.067652
v -0.050027 -0.009927 0.061019
v -0.047813 -0.015455 0.065442
v -0.038414 -0.008820 0.061019
v -0.043945 -0.004396 0.061019
v -0.045602 -0.017667 0.064889
v -0.040074 -0.013796 0.070970
v -0.049473 -0.009927 0.063230
v -0.039520 -0.006055 0.068205
v -0.040074 -0.009373 0.071524
v -0.044495 -0.015455 0.061019
v -0.043393 -0.006608 0.068758
f 696 708 710 
f 693 692 694 
f 694 691 699 
f 694 692 700 
f 692 693 701 
f 698 696 701 
f 693 694 702 
f 694 699 702 
f 699 695 702 
f 697 694 703 
f 694 700 703 
f 700 697 703 
f 701 693 704 
f 698 701 704 
f 699 691 705 
f 695 699 705 
f 704 695 705 
f 698 704 705 
f 700 692 706 
f 697 700 706 
f 692 701 706 
f 701 696 706 
f 691 694 707 
f 694 697 707 
f 696 698 708 
f 705 691 708 
f 698 705 708 
f 691 707 708 
f 693 702 709 
f 702 695 709 
f 704 693 709 
f 695 704 709 
f 706 696 710 
f 697 706 710 
f 707 697 710 
f 708 707 710 
o convex_20
v -0.038413 -0.004396 0.063782
v -0.030120 -0.005501 0.069863
v -0.030120 -0.007159 0.069863
v -0.032332 -0.006606 0.061017
v -0.035095 -0.008818 0.070417
v -0.035648 -0.001630 0.065443
v -0.037859 -0.008818 0.061017
v -0.033438 -0.002738 0.061017
v -0.035095 -0.004396 0.070970
v -0.032332 -0.009372 0.067652
v -0.037859 -0.002738 0.061017
v -0.031779 -0.003290 0.069312
v -0.031779 -0.008266 0.071524
v -0.031226 -0.003842 0.064337
v -0.036753 -0.006606 0.068758
f 715 719 725 
f 714 717 718 
f 716 711 719 
f 714 713 720 
f 717 714 720 
f 715 717 720 
f 711 716 721 
f 717 711 721 
f 716 718 721 
f 718 717 721 
f 718 716 722 
f 719 712 722 
f 716 719 722 
f 713 712 723 
f 712 719 723 
f 719 715 723 
f 720 713 723 
f 715 720 723 
f 712 713 724 
f 713 714 724 
f 714 718 724 
f 722 712 724 
f 718 722 724 
f 711 717 725 
f 717 715 725 
f 719 711 725 
o convex_21
v 0.022969 0.003346 -0.035202
v 0.023522 -0.013242 -0.009766
v 0.024628 -0.012137 -0.010873
v 0.025183 -0.019879 -0.028010
v 0.030158 -0.013242 -0.016961
v 0.022969 -0.019879 -0.009766
v 0.030158 -0.019879 -0.022489
v 0.022969 0.004450 -0.025247
v 0.022969 -0.014900 -0.032437
v 0.026288 0.000581 -0.029671
v 0.025734 -0.005502 -0.032991
v 0.029052 -0.019879 -0.014193
v 0.022969 -0.019879 -0.028010
v 0.024075 0.001687 -0.022489
v 0.025734 -0.015455 -0.030775
v 0.028498 -0.011580 -0.014745
v 0.022969 -0.008817 -0.011979
v 0.023523 -0.004396 -0.035757
v 0.023523 0.006112 -0.028565
v 0.025183 0.000581 -0.033541
v 0.024628 -0.007713 -0.013638
v 0.025181 -0.016007 -0.010321
v 0.030158 -0.013796 -0.019726
v 0.023523 0.006112 -0.032437
v 0.025734 0.002239 -0.028565
v 0.030158 -0.019879 -0.016404
v 0.029604 -0.014900 -0.014745
f 751 730 752 
f 731 729 732 
f 726 731 733 
f 731 726 734 
f 731 732 737 
f 729 731 738 
f 731 734 738 
f 734 729 738 
f 732 729 740 
f 729 734 740 
f 736 732 740 
f 730 739 741 
f 727 728 742 
f 731 727 742 
f 733 731 742 
f 739 733 742 
f 734 726 743 
f 740 734 743 
f 736 740 743 
f 733 739 744 
f 735 732 745 
f 732 736 745 
f 743 726 745 
f 736 743 745 
f 728 741 746 
f 741 739 746 
f 739 742 746 
f 742 728 746 
f 728 727 747 
f 727 731 747 
f 731 737 747 
f 730 732 748 
f 732 735 748 
f 735 730 748 
f 726 733 749 
f 733 744 749 
f 735 745 749 
f 745 726 749 
f 730 735 750 
f 739 730 750 
f 744 739 750 
f 749 744 750 
f 735 749 750 
f 732 730 751 
f 737 732 751 
f 737 751 752 
f 741 728 752 
f 730 741 752 
f 728 747 752 
f 747 737 752 
