o convex_0
v 0.039872 -0.062205 -0.018346
v 0.024640 0.065457 0.020106
v 0.026817 0.064745 0.019378
v 0.015206 0.065457 -0.020521
v 0.015206 -0.062930 0.016474
v 0.039872 0.064745 -0.019070
v 0.037697 -0.061468 0.009944
v 0.015206 -0.062930 -0.019794
v 0.039872 0.064745 0.004141
v 0.015206 0.065457 0.016470
v 0.024640 -0.062205 0.020106
v 0.038423 -0.047687 -0.020525
v 0.040601 -0.062205 0.001962
v 0.033342 0.046616 0.015023
v 0.030441 -0.062917 0.017198
v 0.040601 0.058935 -0.018346
v 0.038423 0.064745 -0.020525
v 0.021010 0.058948 0.020106
v 0.036245 0.065457 0.011395
v 0.040601 -0.047687 -0.019070
v 0.038423 0.066207 -0.019070
v 0.015206 -0.038979 -0.020525
v 0.038423 -0.063667 0.000514
v 0.040601 0.048778 0.001962
v 0.021010 -0.060743 0.020106
v 0.015206 0.066207 0.015023
v 0.015206 -0.063654 0.015023
v 0.034794 -0.062917 -0.019798
v 0.039149 -0.013579 0.007040
v 0.015206 0.066207 -0.019794
v 0.034794 -0.060018 0.013575
v 0.036971 0.066207 0.007768
v 0.029715 0.064745 0.017926
v 0.036971 0.064745 0.010668
v 0.026817 -0.062205 0.019378
v 0.015935 -0.063667 -0.003833
v 0.040601 0.064745 -0.004561
v 0.034794 -0.063667 0.011395
v 0.040601 -0.062917 -0.011088
v 0.039872 0.058948 -0.019794
v 0.040601 -0.058569 0.002689
v 0.033342 -0.062205 0.015023
v 0.026817 0.066207 0.017926
v 0.034794 0.021216 0.013575
v 0.039149 0.064745 0.006317
v 0.039872 0.023390 0.004865
v 0.039149 -0.060743 0.007040
v 0.039149 -0.060018 -0.019794
v 0.028992 -0.063667 0.016474
v 0.039149 0.066207 0.000514
v 0.035520 -0.049861 -0.020525
v 0.032616 0.017593 0.015751
v 0.021736 0.065457 0.020106
v 0.040601 -0.060743 -0.018346
v 0.028266 -0.062205 0.018650
v 0.040601 0.064745 -0.014719
v 0.021010 -0.062917 0.019374
v 0.039872 -0.044064 -0.019794
f 48 12 58 
f 5 4 8 
f 4 5 10 
f 3 2 11 
f 10 5 18 
f 11 2 18 
f 16 13 20 
f 6 17 21 
f 8 4 22 
f 4 17 22 
f 17 12 22 
f 13 16 24 
f 18 5 25 
f 11 18 25 
f 4 10 26 
f 5 8 27 
f 17 4 30 
f 21 17 30 
f 4 26 30 
f 26 21 30 
f 21 26 32 
f 2 3 33 
f 14 19 33 
f 19 14 34 
f 7 29 34 
f 3 11 35 
f 11 15 35 
f 33 3 35 
f 27 8 36 
f 8 28 36 
f 28 23 36 
f 9 24 37 
f 24 16 37 
f 13 7 38 
f 23 13 38 
f 36 23 38 
f 20 13 39 
f 13 23 39 
f 28 1 39 
f 23 28 39 
f 6 16 40 
f 17 6 40 
f 12 17 40 
f 16 20 40 
f 13 24 41 
f 7 31 42 
f 38 7 42 
f 15 38 42 
f 19 32 43 
f 32 26 43 
f 2 33 43 
f 33 19 43 
f 31 7 44 
f 34 14 44 
f 7 34 44 
f 32 19 45 
f 9 32 45 
f 19 34 45 
f 34 29 45 
f 24 9 46 
f 41 24 46 
f 29 41 46 
f 9 45 46 
f 45 29 46 
f 7 13 47 
f 29 7 47 
f 13 41 47 
f 41 29 47 
f 1 28 48 
f 15 11 49 
f 27 36 49 
f 38 15 49 
f 36 38 49 
f 32 9 50 
f 21 32 50 
f 9 37 50 
f 8 22 51 
f 22 12 51 
f 28 8 51 
f 12 48 51 
f 48 28 51 
f 33 15 52 
f 14 33 52 
f 42 31 52 
f 15 42 52 
f 31 44 52 
f 44 14 52 
f 18 2 53 
f 10 18 53 
f 26 10 53 
f 2 43 53 
f 43 26 53 
f 39 1 54 
f 20 39 54 
f 1 48 54 
f 48 20 54 
f 15 33 55 
f 35 15 55 
f 33 35 55 
f 16 6 56 
f 6 21 56 
f 37 16 56 
f 21 50 56 
f 50 37 56 
f 25 5 57 
f 11 25 57 
f 5 27 57 
f 49 11 57 
f 27 49 57 
f 12 40 58 
f 40 20 58 
f 20 48 58 
o convex_1
v -0.040661 0.058948 -0.019072
v -0.019622 -0.004883 0.020831
v -0.020348 -0.004883 0.020831
v -0.033403 -0.062917 -0.019797
v -0.015267 0.065470 -0.020525
v -0.037032 0.064745 0.010666
v -0.039933 -0.062917 0.004140
v -0.015267 -0.063667 -0.019068
v -0.015267 0.064020 0.016475
v -0.015267 -0.062917 0.016475
v -0.028327 -0.062205 0.018653
v -0.039933 -0.061468 -0.018347
v -0.026150 0.064745 0.019378
v -0.040661 0.065457 0.002691
v -0.034855 0.063296 -0.020525
v -0.036306 -0.062917 0.011395
v -0.018170 -0.057844 0.020831
v -0.018896 0.065457 0.020102
v -0.015267 -0.010680 -0.020525
v -0.037758 0.066207 -0.017619
v -0.034855 0.058223 0.013573
v -0.039210 -0.055671 -0.019797
v -0.040661 0.015407 0.003412
v -0.022525 -0.062917 0.020831
v -0.039933 0.037184 0.006318
v -0.015267 0.066207 0.015022
v -0.039210 -0.063667 0.001238
v -0.018896 -0.063667 0.019378
v -0.031954 0.066207 0.014297
v -0.037758 0.050964 -0.020525
v -0.015267 -0.062917 -0.019797
v -0.031228 0.064745 0.016475
v -0.030502 -0.062205 0.017200
v -0.038484 -0.060018 0.008492
v -0.040661 0.019767 -0.018347
v -0.015267 0.066207 -0.019072
v -0.038484 -0.063667 -0.017619
v -0.024700 0.045154 0.020102
v -0.034129 0.016869 -0.020525
v -0.039933 0.065457 -0.018347
v -0.018170 0.056774 0.020102
v -0.035580 0.034997 0.012848
v -0.017447 -0.038254 0.020102
v -0.040661 0.008885 0.001238
v -0.039933 0.061846 -0.019797
v -0.031954 -0.063667 0.015026
v -0.039933 0.060397 0.006318
v -0.034129 0.013233 0.014297
v -0.026875 -0.020838 0.019378
v -0.023249 0.065457 0.020102
v -0.029053 0.064745 0.017924
v -0.039210 -0.058569 0.007043
v -0.036306 0.065457 -0.019797
v -0.036306 0.066207 0.009217
v -0.015267 -0.063667 0.015751
v -0.040661 0.037908 0.004140
v -0.037758 -0.060743 -0.019797
v -0.040661 0.064745 -0.016894
v -0.028325 -0.017214 0.018653
v -0.039933 -0.053484 -0.019072
v -0.039933 -0.062917 -0.013992
v -0.015993 -0.027372 0.017924
v -0.039210 0.066207 -0.008911
f 112 78 121 
f 66 63 67 
f 66 67 68 
f 60 61 75 
f 61 60 76 
f 63 66 77 
f 73 63 77 
f 72 59 81 
f 75 61 82 
f 67 63 84 
f 76 67 84 
f 74 65 85 
f 68 75 86 
f 75 82 86 
f 85 66 86 
f 84 78 87 
f 73 77 88 
f 66 62 89 
f 62 77 89 
f 77 66 89 
f 64 79 90 
f 87 64 90 
f 65 74 92 
f 81 59 93 
f 84 63 94 
f 78 84 94 
f 62 66 95 
f 66 85 95 
f 82 61 96 
f 88 77 97 
f 80 88 97 
f 60 75 99 
f 76 60 99 
f 67 76 99 
f 79 64 100 
f 92 74 100 
f 83 92 100 
f 75 68 101 
f 99 75 101 
f 67 99 101 
f 65 81 102 
f 93 70 102 
f 81 93 102 
f 80 59 103 
f 73 88 103 
f 88 80 103 
f 82 69 104 
f 74 85 104 
f 86 82 104 
f 85 86 104 
f 91 74 104 
f 69 91 104 
f 64 72 105 
f 100 64 105 
f 83 100 105 
f 90 79 106 
f 74 91 106 
f 91 90 106 
f 79 100 106 
f 100 74 106 
f 69 82 107 
f 96 71 107 
f 82 96 107 
f 61 76 108 
f 76 84 108 
f 84 87 108 
f 71 96 108 
f 96 61 108 
f 87 90 109 
f 71 108 109 
f 108 87 109 
f 65 92 110 
f 92 83 110 
f 63 73 111 
f 94 63 111 
f 78 94 111 
f 98 78 111 
f 73 103 111 
f 103 98 111 
f 72 64 112 
f 64 87 112 
f 87 78 112 
f 66 68 113 
f 86 66 113 
f 68 86 113 
f 81 65 114 
f 72 81 114 
f 105 72 114 
f 83 105 114 
f 65 110 114 
f 110 83 114 
f 77 62 115 
f 70 80 115 
f 62 95 115 
f 95 70 115 
f 97 77 115 
f 80 97 115 
f 59 72 116 
f 72 98 116 
f 103 59 116 
f 98 103 116 
f 91 69 117 
f 90 91 117 
f 69 107 117 
f 107 71 117 
f 109 90 117 
f 71 109 117 
f 59 80 118 
f 80 70 118 
f 93 59 118 
f 70 93 118 
f 85 65 119 
f 70 95 119 
f 95 85 119 
f 65 102 119 
f 102 70 119 
f 68 67 120 
f 67 101 120 
f 101 68 120 
f 98 72 121 
f 78 98 121 
f 72 112 121 
o convex_2
v 0.015206 -0.028116 0.028088
v -0.015267 -0.031015 0.016478
v -0.015267 -0.029568 0.016478
v -0.009462 -0.028116 0.038244
v 0.002869 -0.040449 0.025912
v 0.006499 -0.021585 0.016478
v 0.010851 -0.036820 0.016478
v -0.003658 -0.020860 0.030261
v 0.007224 -0.031739 0.038244
v -0.009462 -0.036820 0.032436
v -0.004382 -0.039723 0.016478
v 0.005771 -0.022311 0.033161
v -0.010187 -0.022311 0.021557
v 0.010851 -0.036094 0.032436
v 0.015206 -0.031015 0.016478
v -0.002205 -0.036820 0.036065
v -0.014539 -0.027392 0.028814
v -0.006560 -0.024489 0.038244
v -0.013814 -0.035370 0.024461
v 0.013029 -0.023763 0.023010
v -0.005832 -0.021585 0.016478
v 0.003597 -0.020134 0.025912
v 0.007224 -0.026664 0.037516
v 0.013754 -0.035370 0.027363
v -0.005832 -0.039723 0.026639
v -0.009462 -0.031015 0.038244
v 0.005771 -0.039723 0.016478
v -0.015267 -0.031739 0.027363
v 0.011576 -0.023763 0.030261
v 0.013029 -0.028844 0.033161
v -0.008734 -0.022311 0.030985
v 0.002869 -0.038268 0.033889
v 0.008674 -0.038998 0.026639
v -0.010187 -0.037546 0.017204
v 0.015206 -0.028116 0.016478
v -0.002205 -0.020134 0.020833
v 0.002144 -0.034643 0.038244
v 0.002144 -0.024489 0.038244
v -0.013089 -0.024489 0.020833
v -0.010187 -0.038268 0.025912
v -0.003658 -0.038998 0.031712
v 0.012304 -0.036820 0.020106
v -0.013089 -0.034643 0.030261
v 0.015206 -0.031015 0.028814
v 0.010851 -0.022311 0.025188
v -0.003658 -0.020134 0.025912
v 0.002869 -0.020860 0.030985
v -0.012365 -0.025213 0.016478
v 0.012304 -0.024489 0.016478
v -0.013089 -0.025213 0.028814
v 0.015206 -0.033191 0.021557
v -0.001480 -0.040449 0.020833
v 0.012304 -0.033191 0.033161
v -0.005107 -0.033919 0.038244
v -0.014539 -0.033191 0.016478
v 0.002869 -0.020860 0.016478
v -0.013089 -0.031739 0.032436
f 149 164 178 
f 123 124 127 
f 123 127 128 
f 123 128 132 
f 128 127 136 
f 125 130 139 
f 127 124 142 
f 130 125 147 
f 132 128 148 
f 124 123 149 
f 138 124 149 
f 122 141 150 
f 133 144 150 
f 150 144 151 
f 144 130 151 
f 122 150 151 
f 139 129 152 
f 145 135 154 
f 126 148 154 
f 153 126 154 
f 135 153 154 
f 122 136 156 
f 136 127 156 
f 141 122 156 
f 142 134 157 
f 135 130 158 
f 130 147 158 
f 153 135 158 
f 137 153 158 
f 139 130 159 
f 130 144 159 
f 144 133 159 
f 124 138 160 
f 132 146 161 
f 146 131 161 
f 155 132 161 
f 140 155 161 
f 137 131 162 
f 146 126 162 
f 131 146 162 
f 126 153 162 
f 153 137 162 
f 128 136 163 
f 148 128 163 
f 145 154 163 
f 154 148 163 
f 131 147 164 
f 149 140 164 
f 161 131 164 
f 140 161 164 
f 136 122 165 
f 122 151 165 
f 141 127 166 
f 127 143 166 
f 150 141 166 
f 133 150 166 
f 152 129 167 
f 134 152 167 
f 157 134 167 
f 143 157 167 
f 129 139 168 
f 159 133 168 
f 139 159 168 
f 133 166 168 
f 166 143 168 
f 167 129 168 
f 143 167 168 
f 142 124 169 
f 134 142 169 
f 124 160 169 
f 160 134 169 
f 127 141 170 
f 156 127 170 
f 141 156 170 
f 138 125 171 
f 125 139 171 
f 152 134 171 
f 139 152 171 
f 160 138 171 
f 134 160 171 
f 163 136 172 
f 145 163 172 
f 136 165 172 
f 165 145 172 
f 126 146 173 
f 146 132 173 
f 148 126 173 
f 132 148 173 
f 130 135 174 
f 135 145 174 
f 151 130 174 
f 145 165 174 
f 165 151 174 
f 131 137 175 
f 147 131 175 
f 158 147 175 
f 137 158 175 
f 123 132 176 
f 149 123 176 
f 140 149 176 
f 132 155 176 
f 155 140 176 
f 127 142 177 
f 143 127 177 
f 142 157 177 
f 157 143 177 
f 125 138 178 
f 147 125 178 
f 138 149 178 
f 164 147 178 
o convex_3
v 0.014478 0.003083 0.030262
v -0.014539 0.000182 0.016478
v -0.015267 -0.001268 0.020833
v 0.005771 -0.007799 0.016478
v -0.003658 -0.004171 0.038970
v -0.002205 0.010339 0.020106
v -0.006560 0.007436 0.035337
v 0.013029 0.004535 0.016478
v 0.012304 -0.005622 0.028811
v -0.004382 -0.009251 0.025912
v 0.006499 0.004535 0.038970
v 0.007224 0.009613 0.028087
v -0.014539 0.003808 0.028811
v -0.010187 0.007436 0.016478
v -0.012365 -0.002719 0.033164
v 0.007949 -0.004896 0.036066
v -0.010187 -0.006347 0.017931
v 0.014478 -0.000543 0.016478
v -0.007285 0.003083 0.038970
v 0.005046 -0.008524 0.030262
v -0.007285 0.009613 0.028087
v 0.005771 0.008888 0.016478
v -0.010912 -0.006347 0.029538
v 0.002144 0.010339 0.030262
v 0.013754 -0.001268 0.032440
v -0.002205 -0.007072 0.035337
v 0.007224 -0.001994 0.038970
v 0.011576 0.007436 0.028811
v -0.005107 -0.007799 0.016478
v 0.010126 -0.007072 0.020833
v 0.015206 -0.001994 0.023010
v -0.014539 0.004535 0.021557
v 0.003597 -0.009251 0.022284
v 0.004322 0.008161 0.035337
v 0.010851 0.008161 0.020833
v 0.015206 0.003083 0.022284
v -0.014539 -0.003446 0.025912
v -0.011637 0.007436 0.028087
v -0.013089 0.003083 0.033164
v 0.005046 0.010339 0.023010
v -0.003658 0.005260 0.038970
v -0.009462 -0.007799 0.022284
v 0.010851 0.005260 0.034615
v -0.008010 -0.007072 0.032440
v -0.007285 0.008888 0.016478
v -0.009462 -0.001994 0.036790
v -0.002205 -0.009251 0.020106
v 0.004322 -0.006347 0.036066
v 0.012304 0.002357 0.034615
v -0.015267 -0.000543 0.027363
v -0.002930 -0.009251 0.028811
v 0.012304 -0.004896 0.018657
v -0.013089 -0.004896 0.020106
v -0.010912 0.008161 0.023010
v 0.009402 -0.007799 0.025187
v -0.005107 0.010339 0.023737
v -0.003658 0.008161 0.035337
v 0.015206 -0.001994 0.026636
v 0.009402 0.007436 0.033164
v 0.010126 -0.005622 0.033164
v -0.010912 0.005985 0.033164
v 0.003597 -0.004171 0.038970
f 204 226 240 
f 182 180 186 
f 186 180 192 
f 182 186 196 
f 183 189 197 
f 186 192 200 
f 189 183 205 
f 194 203 205 
f 180 182 207 
f 195 180 207 
f 180 181 210 
f 192 180 210 
f 182 208 211 
f 186 200 213 
f 190 206 213 
f 213 206 214 
f 196 186 214 
f 206 179 214 
f 209 196 214 
f 186 213 214 
f 201 193 215 
f 185 199 216 
f 210 191 216 
f 200 184 218 
f 184 202 218 
f 202 190 218 
f 190 213 218 
f 213 200 218 
f 185 197 219 
f 197 189 219 
f 189 212 219 
f 188 201 220 
f 195 207 220 
f 179 206 221 
f 201 188 222 
f 193 201 222 
f 204 183 222 
f 184 200 223 
f 200 192 223 
f 183 197 224 
f 197 217 224 
f 217 193 224 
f 222 183 224 
f 193 222 224 
f 207 182 225 
f 211 188 225 
f 182 211 225 
f 188 220 225 
f 220 207 225 
f 204 198 226 
f 203 179 227 
f 189 205 227 
f 205 203 227 
f 179 221 227 
f 221 189 227 
f 210 181 228 
f 191 210 228 
f 181 215 228 
f 215 193 228 
f 193 217 228 
f 217 191 228 
f 198 204 229 
f 188 211 229 
f 211 198 229 
f 222 188 229 
f 204 222 229 
f 182 196 230 
f 208 182 230 
f 187 208 230 
f 196 209 230 
f 209 187 230 
f 181 180 231 
f 180 195 231 
f 215 181 231 
f 201 215 231 
f 220 201 231 
f 195 220 231 
f 192 210 232 
f 216 199 232 
f 210 216 232 
f 223 192 232 
f 208 187 233 
f 198 211 233 
f 211 208 233 
f 202 184 234 
f 199 202 234 
f 184 223 234 
f 232 199 234 
f 223 232 234 
f 199 185 235 
f 202 199 235 
f 212 202 235 
f 185 219 235 
f 219 212 235 
f 179 203 236 
f 203 187 236 
f 187 209 236 
f 214 179 236 
f 209 214 236 
f 190 202 237 
f 206 190 237 
f 212 189 237 
f 202 212 237 
f 189 221 237 
f 221 206 237 
f 187 203 238 
f 203 194 238 
f 194 226 238 
f 226 198 238 
f 233 187 238 
f 198 233 238 
f 197 185 239 
f 185 216 239 
f 216 191 239 
f 217 197 239 
f 191 217 239 
f 183 204 240 
f 205 183 240 
f 194 205 240 
f 226 194 240 
o convex_4
v -0.012364 0.005260 0.051301
v 0.007225 0.001631 0.045503
v 0.006499 0.003082 0.046954
v 0.002146 -0.006348 0.056379
v -0.005106 -0.003445 0.038970
v 0.001420 0.005260 0.062908
v 0.002870 0.005985 0.039699
v -0.010187 0.010339 0.059283
v -0.004380 -0.007799 0.054205
v 0.004322 -0.004171 0.038970
v -0.005832 0.004532 0.038970
v -0.013090 0.003808 0.055655
v 0.001420 0.007435 0.052752
v -0.000031 0.003082 0.062908
v 0.007225 0.003808 0.038970
v -0.000031 -0.007799 0.047678
v 0.004322 -0.001994 0.057830
v -0.008009 -0.001268 0.041876
v 0.007225 -0.001268 0.044053
v -0.011639 0.008888 0.053478
v -0.008009 0.010339 0.060007
v -0.009461 -0.001994 0.054929
v 0.001420 -0.007799 0.053478
v -0.002933 0.006711 0.041876
v -0.005106 -0.007074 0.050582
v -0.002211 -0.004896 0.038970
v 0.005048 0.005985 0.043326
v -0.009461 0.005260 0.044053
v -0.008009 0.010339 0.057830
v 0.005773 -0.003445 0.049131
v -0.013090 0.008162 0.054205
v -0.010913 0.008888 0.059283
v 0.007225 -0.001268 0.038970
v 0.000695 0.006711 0.060734
v 0.003596 0.000183 0.060007
v -0.002933 -0.008525 0.054205
v -0.007286 -0.000542 0.039699
v -0.007286 -0.002718 0.041876
f 258 277 278 
f 250 245 251 
f 243 242 255 
f 251 247 255 
f 250 251 255 
f 252 241 258 
f 255 242 259 
f 242 257 259 
f 254 246 261 
f 249 254 262 
f 254 252 262 
f 256 250 263 
f 247 251 264 
f 251 260 264 
f 249 262 265 
f 245 250 266 
f 250 256 266 
f 265 245 266 
f 256 265 266 
f 246 243 267 
f 243 255 267 
f 255 247 267 
f 260 251 268 
f 260 248 269 
f 248 261 269 
f 261 253 269 
f 247 264 269 
f 264 260 269 
f 253 267 269 
f 267 247 269 
f 257 244 270 
f 259 257 270 
f 244 263 270 
f 263 250 270 
f 241 252 271 
f 248 260 271 
f 268 241 271 
f 260 268 271 
f 252 254 272 
f 261 248 272 
f 254 261 272 
f 271 252 272 
f 248 271 272 
f 250 255 273 
f 255 259 273 
f 270 250 273 
f 259 270 273 
f 261 246 274 
f 253 261 274 
f 246 267 274 
f 267 253 274 
f 242 243 275 
f 243 246 275 
f 254 244 275 
f 246 254 275 
f 257 242 275 
f 244 257 275 
f 244 254 276 
f 254 249 276 
f 263 244 276 
f 256 263 276 
f 265 256 276 
f 249 265 276 
f 251 245 277 
f 258 241 277 
f 241 268 277 
f 268 251 277 
f 252 258 278 
f 262 252 278 
f 245 265 278 
f 265 262 278 
f 277 245 278 
o convex_5
v -0.007285 -0.024488 0.038244
v 0.011578 -0.032468 0.049127
v 0.011578 -0.033918 0.049127
v -0.004383 -0.031742 0.062184
v -0.004383 -0.033918 0.038244
v 0.002142 -0.022310 0.049853
v -0.011639 -0.024489 0.056383
v 0.007222 -0.028116 0.038244
v 0.001417 -0.035368 0.062910
v -0.010187 -0.030290 0.039698
v 0.007949 -0.023762 0.047675
v -0.005833 -0.033192 0.059284
v 0.007949 -0.036821 0.050579
v 0.005772 -0.032468 0.038244
v 0.000695 -0.033192 0.063639
v 0.002870 -0.024488 0.038244
v -0.008735 -0.023036 0.044051
v -0.000755 -0.025215 0.056383
v -0.002205 -0.035370 0.048401
v -0.011639 -0.026665 0.057109
v 0.011578 -0.028842 0.047675
v -0.008007 -0.032468 0.049853
v -0.004383 -0.022310 0.052028
v 0.000695 -0.036093 0.060735
v -0.004383 -0.023036 0.041150
v -0.008007 -0.032468 0.038244
v 0.003595 -0.035370 0.042602
v -0.004383 -0.030289 0.062184
v 0.010851 -0.035370 0.048401
v 0.011578 -0.031739 0.046226
v 0.005772 -0.036821 0.056383
v 0.009399 -0.025214 0.045500
v -0.011639 -0.024489 0.052028
v 0.002142 -0.036093 0.046226
v -0.009460 -0.028116 0.038244
v -0.001480 -0.034643 0.063639
v 0.003595 -0.036821 0.053479
v -0.009460 -0.023036 0.053479
v 0.010124 -0.025940 0.047675
f 299 310 317 
f 283 279 286 
f 281 280 287 
f 283 286 292 
f 287 280 293 
f 286 279 294 
f 284 289 294 
f 289 284 296 
f 293 289 296 
f 280 281 299 
f 293 280 299 
f 297 290 300 
f 298 288 300 
f 290 298 300 
f 296 284 301 
f 285 296 301 
f 290 297 302 
f 294 279 303 
f 284 294 303 
f 279 295 303 
f 301 284 303 
f 295 301 303 
f 279 283 304 
f 283 297 304 
f 300 288 304 
f 297 300 304 
f 283 292 305 
f 296 285 306 
f 293 296 306 
f 298 282 306 
f 285 298 306 
f 291 305 307 
f 305 292 307 
f 292 286 308 
f 299 281 308 
f 286 299 308 
f 281 307 308 
f 307 292 308 
f 281 287 309 
f 287 302 309 
f 307 281 309 
f 291 307 309 
f 286 294 310 
f 294 289 310 
f 299 286 310 
f 298 285 311 
f 288 298 311 
f 297 283 312 
f 283 305 312 
f 305 291 312 
f 295 279 313 
f 279 304 313 
f 304 288 313 
f 311 295 313 
f 288 311 313 
f 287 293 314 
f 282 298 314 
f 298 290 314 
f 302 287 314 
f 290 302 314 
f 306 282 314 
f 293 306 314 
f 302 297 315 
f 291 309 315 
f 309 302 315 
f 297 312 315 
f 312 291 315 
f 301 295 316 
f 285 301 316 
f 311 285 316 
f 295 311 316 
f 289 293 317 
f 293 299 317 
f 310 289 317 
o convex_6
v 0.012304 -0.036080 -0.020525
v 0.015205 0.065470 0.016478
v 0.015205 0.066207 0.015025
v -0.000029 0.066207 0.014301
v -0.000029 -0.062205 0.015750
v -0.000029 0.065457 -0.020525
v 0.015205 -0.062917 0.016478
v -0.000029 -0.062917 -0.019797
v 0.015205 0.065470 -0.020525
v 0.015205 -0.062917 -0.019797
v -0.000029 0.008885 0.016478
v -0.000029 0.065457 0.015750
v -0.000029 -0.063667 0.014301
v -0.000029 -0.021562 -0.020525
v 0.015205 0.066207 -0.019797
v 0.015205 -0.063667 -0.003831
v -0.000029 -0.040428 0.016478
v -0.000029 0.066207 -0.019073
v -0.000029 -0.063667 -0.006008
v 0.015205 -0.038254 -0.020525
v 0.004325 0.046616 0.016478
v 0.015205 -0.063667 0.015025
v 0.007949 -0.059294 0.016478
v 0.008675 0.061846 0.016478
f 329 338 341 
f 319 320 321 
f 322 321 323 
f 320 319 324 
f 322 323 325 
f 318 323 326 
f 320 324 326 
f 326 324 327 
f 321 322 328 
f 324 319 328 
f 319 321 329 
f 321 328 329 
f 324 322 330 
f 322 325 330 
f 323 318 331 
f 318 325 331 
f 325 323 331 
f 321 320 332 
f 320 326 332 
f 326 323 332 
f 327 324 333 
f 328 322 334 
f 324 328 334 
f 323 321 335 
f 321 332 335 
f 332 323 335 
f 325 327 336 
f 330 325 336 
f 327 333 336 
f 333 330 336 
f 325 318 337 
f 318 326 337 
f 326 327 337 
f 327 325 337 
f 328 319 338 
f 329 328 338 
f 324 330 339 
f 333 324 339 
f 330 333 339 
f 322 324 340 
f 334 322 340 
f 324 334 340 
f 319 329 341 
f 338 319 341 
o convex_7
v -0.000032 -0.021562 -0.020525
v -0.014541 0.054575 0.016478
v -0.015267 0.054575 0.016478
v -0.015267 -0.062930 0.016478
v -0.015267 0.065457 -0.020525
v -0.000030 0.065470 0.015750
v -0.015267 -0.062930 -0.019797
v -0.000032 -0.062205 0.015750
v -0.000030 0.065470 -0.020525
v -0.000032 -0.062917 -0.019797
v -0.015267 0.066207 0.015025
v -0.000032 -0.039703 0.016478
v -0.000032 -0.063667 0.014301
v -0.015267 -0.011417 -0.020525
v -0.000030 0.066207 -0.019073
v -0.015267 -0.063654 -0.019073
v -0.000030 0.008885 0.016478
v -0.015267 0.066207 -0.019073
v -0.015267 -0.063654 0.015750
v -0.000030 0.066207 0.014301
v -0.003659 -0.063667 -0.019073
v -0.015267 0.065457 0.015750
v -0.010913 -0.062205 0.016478
v -0.000032 -0.063667 -0.006736
f 354 362 365 
f 343 344 345 
f 345 344 346 
f 344 343 347 
f 345 346 348 
f 342 346 350 
f 348 342 351 
f 342 350 351 
f 346 344 352 
f 343 345 353 
f 349 345 354 
f 346 342 355 
f 342 348 355 
f 348 346 355 
f 347 350 356 
f 345 348 357 
f 347 343 358 
f 350 347 358 
f 351 350 358 
f 343 353 358 
f 353 349 358 
f 349 354 358 
f 350 346 359 
f 346 352 359 
f 356 350 359 
f 352 356 359 
f 354 345 360 
f 345 357 360 
f 352 347 361 
f 347 356 361 
f 356 352 361 
f 348 351 362 
f 357 348 362 
f 354 360 362 
f 360 357 362 
f 344 347 363 
f 352 344 363 
f 347 352 363 
f 345 349 364 
f 353 345 364 
f 349 353 364 
f 351 358 365 
f 358 354 365 
f 362 351 365 
