o convex_0
v -0.049775 0.017560 0.038846
v -0.024722 -0.023246 -0.008397
v -0.028303 -0.023242 -0.008402
v -0.047627 0.024002 -0.008402
v -0.057649 -0.021810 -0.001949
v -0.021859 0.023284 0.013076
v -0.027584 -0.022528 0.030969
v -0.056934 -0.021810 0.030969
v -0.056934 0.024720 0.021663
v -0.022574 0.024002 -0.007682
v -0.027584 0.022565 0.031689
v -0.057649 0.003953 -0.008402
v -0.037606 -0.008203 0.040281
v -0.021140 -0.019664 0.009502
v -0.056934 0.024720 -0.006253
v -0.057649 0.021138 0.029540
v -0.051923 -0.017513 0.038127
v -0.051208 -0.022528 -0.008402
v -0.021140 0.011113 -0.008397
v -0.032599 0.012541 0.038127
v -0.043331 -0.023242 0.030250
v -0.054786 0.024720 0.029540
v -0.054786 0.006817 0.038127
v -0.021140 0.019706 0.013076
v -0.021859 -0.023246 -0.004818
v -0.026870 -0.021091 0.030969
v -0.048346 0.010400 0.040281
v -0.057649 -0.019659 0.030250
v -0.031166 -0.018227 0.035983
v -0.031880 0.024002 0.029540
v -0.026155 0.021133 0.030255
v -0.057649 -0.019659 -0.007682
v -0.022574 -0.023246 0.015225
v -0.030451 -0.004625 0.036693
v -0.056219 0.024002 0.031689
v -0.021859 -0.020378 0.014505
v -0.021140 -0.016795 -0.006967
v -0.056934 -0.022528 0.028110
v -0.057649 0.021138 -0.006967
v -0.042613 0.024716 0.005203
v -0.053353 -0.008926 0.038846
v -0.041902 -0.018945 0.037417
v -0.021140 0.022570 -0.005533
v -0.045479 0.018987 0.038127
v -0.055501 0.016123 0.036693
v -0.030451 0.018269 0.035983
v -0.055501 -0.016800 0.035983
v -0.039750 0.005385 0.040281
v -0.021859 0.021852 -0.008397
v -0.027584 -0.023242 0.030250
v -0.021859 -0.021810 -0.008397
v -0.035461 -0.014649 0.038846
v -0.052638 0.008963 0.039561
v -0.053353 -0.022528 -0.006967
v -0.041902 0.013259 0.039561
v -0.022574 0.024002 0.003774
v -0.041902 0.024716 -0.006967
v -0.027584 0.023284 0.030969
v -0.050494 -0.006057 0.039561
v -0.056219 -0.006775 0.035268
v -0.033313 -0.023242 -0.006967
v -0.026870 -0.006062 0.031689
v -0.021859 0.016123 0.015940
v -0.051208 0.023284 -0.008402
f 39 15 64 
f 4 3 12 
f 12 5 16 
f 9 15 16 
f 12 3 18 
f 15 9 22 
f 14 19 24 
f 16 5 28 
f 7 26 29 
f 24 6 31 
f 5 12 32 
f 12 18 32 
f 21 2 33 
f 25 14 33 
f 2 25 33 
f 20 13 34 
f 29 26 34 
f 9 16 35 
f 22 9 35 
f 30 22 35 
f 14 24 36 
f 33 14 36 
f 26 33 36 
f 19 14 37 
f 14 25 37 
f 21 8 38 
f 28 5 38 
f 8 28 38 
f 12 16 39 
f 16 15 39 
f 22 30 40 
f 17 8 42 
f 8 21 42 
f 7 29 42 
f 6 24 43 
f 24 19 43 
f 35 1 44 
f 1 35 45 
f 35 16 45 
f 31 11 46 
f 20 34 46 
f 34 31 46 
f 11 44 46 
f 8 17 47 
f 28 8 47 
f 17 41 47 
f 41 23 47 
f 13 20 48 
f 27 13 48 
f 3 4 49 
f 4 10 49 
f 19 3 49 
f 10 43 49 
f 43 19 49 
f 26 7 50 
f 21 33 50 
f 33 26 50 
f 7 42 50 
f 42 21 50 
f 2 3 51 
f 3 19 51 
f 25 2 51 
f 19 37 51 
f 37 25 51 
f 13 17 52 
f 34 13 52 
f 29 34 52 
f 17 42 52 
f 42 29 52 
f 27 1 53 
f 23 41 53 
f 1 45 53 
f 45 23 53 
f 5 32 54 
f 32 18 54 
f 38 5 54 
f 21 38 54 
f 1 27 55 
f 44 1 55 
f 20 46 55 
f 46 44 55 
f 48 20 55 
f 27 48 55 
f 40 30 56 
f 6 43 56 
f 43 10 56 
f 10 4 57 
f 4 15 57 
f 15 22 57 
f 22 40 57 
f 56 10 57 
f 40 56 57 
f 31 6 58 
f 11 31 58 
f 30 35 58 
f 44 11 58 
f 35 44 58 
f 6 56 58 
f 56 30 58 
f 17 13 59 
f 13 27 59 
f 41 17 59 
f 27 53 59 
f 53 41 59 
f 16 28 60 
f 23 45 60 
f 45 16 60 
f 28 47 60 
f 47 23 60 
f 3 2 61 
f 18 3 61 
f 2 21 61 
f 54 18 61 
f 21 54 61 
f 34 26 62 
f 31 34 62 
f 26 36 62 
f 62 36 63 
f 24 31 63 
f 36 24 63 
f 31 62 63 
f 4 12 64 
f 15 4 64 
f 12 39 64 
o convex_1
v -0.042620 0.025436 -0.018430
v -0.049775 0.016845 -0.032741
v -0.048348 0.016845 -0.032741
v -0.051209 0.026868 -0.042766
v -0.054071 0.024721 -0.011983
v -0.049775 0.034027 -0.024874
v -0.043335 0.024005 -0.039185
v -0.056221 0.024005 -0.033455
v -0.046199 0.020428 -0.008402
v -0.042620 0.018995 -0.029163
v -0.054788 0.020428 -0.015564
v -0.051209 0.020428 -0.043477
v -0.047632 0.034027 -0.028441
v -0.047632 0.025436 -0.009124
v -0.056221 0.026151 -0.022008
v -0.056221 0.021142 -0.031307
v -0.046914 0.020428 -0.043477
v -0.041902 0.025436 -0.029878
v -0.046914 0.025436 -0.044195
v -0.051209 0.033311 -0.028441
v -0.042620 0.019711 -0.017716
v -0.048348 0.033311 -0.021290
v -0.051923 0.017562 -0.024152
v -0.051923 0.021142 -0.008402
v -0.054788 0.026151 -0.038466
v -0.044767 0.017562 -0.026304
v -0.043335 0.024721 -0.014131
v -0.050491 0.033311 -0.022008
v -0.043335 0.020428 -0.038466
v -0.050491 0.026151 -0.009838
v -0.054071 0.021142 -0.039899
v -0.046914 0.033311 -0.024152
v -0.056221 0.026151 -0.030593
v -0.044767 0.026151 -0.040614
v -0.056221 0.021142 -0.021290
v -0.052641 0.017562 -0.028441
v -0.041902 0.021142 -0.032741
v -0.048348 0.033311 -0.031307
v -0.050491 0.023290 -0.044914
v -0.041902 0.021142 -0.019860
v -0.055503 0.025436 -0.016279
v -0.046914 0.019711 -0.010550
v -0.044767 0.025436 -0.011983
v -0.054071 0.026151 -0.040614
f 103 95 108 
f 67 66 76 
f 79 72 80 
f 67 76 81 
f 71 81 83 
f 70 77 84 
f 77 70 86 
f 66 67 87 
f 69 75 88 
f 73 78 88 
f 75 87 88 
f 67 74 90 
f 74 85 90 
f 87 67 90 
f 73 85 91 
f 70 84 92 
f 84 79 92 
f 86 70 92 
f 74 67 93 
f 81 71 93 
f 67 81 93 
f 78 86 94 
f 69 88 94 
f 88 78 94 
f 92 69 94 
f 86 92 94 
f 76 66 95 
f 80 72 95 
f 72 89 95 
f 65 82 96 
f 82 77 96 
f 77 86 96 
f 91 65 96 
f 72 79 97 
f 79 84 97 
f 89 72 97 
f 84 89 97 
f 82 71 98 
f 77 82 98 
f 71 83 98 
f 79 80 99 
f 66 87 100 
f 87 75 100 
f 95 66 100 
f 80 95 100 
f 75 99 100 
f 99 80 100 
f 71 82 101 
f 74 93 101 
f 93 71 101 
f 83 68 102 
f 68 84 102 
f 84 77 102 
f 77 98 102 
f 98 83 102 
f 81 76 103 
f 68 83 103 
f 83 81 103 
f 76 95 103 
f 82 65 104 
f 85 74 104 
f 65 91 104 
f 91 85 104 
f 101 82 104 
f 74 101 104 
f 75 69 105 
f 69 92 105 
f 92 79 105 
f 99 75 105 
f 79 99 105 
f 85 73 106 
f 73 88 106 
f 88 87 106 
f 90 85 106 
f 87 90 106 
f 78 73 107 
f 86 78 107 
f 73 91 107 
f 96 86 107 
f 91 96 107 
f 84 68 108 
f 89 84 108 
f 95 89 108 
f 68 103 108 
o convex_2
v -0.012547 0.023287 0.036699
v 0.001051 -0.023246 -0.007681
v 0.005349 -0.023246 -0.007681
v -0.003242 0.023287 -0.009118
v 0.005349 0.015411 0.038130
v -0.014697 -0.021813 0.035268
v -0.014697 -0.019666 -0.008397
v 0.004630 -0.019666 0.035262
v -0.014697 0.022571 -0.006966
v 0.005349 0.023287 -0.007681
v -0.013981 0.002525 0.043140
v -0.001095 0.022571 0.039561
v -0.001811 -0.007493 0.043140
v -0.014697 0.021137 0.038846
v -0.002528 -0.022529 0.038130
v -0.013981 -0.022529 -0.006966
v 0.005349 -0.015370 -0.009118
v -0.013981 -0.019666 0.039556
v 0.005349 -0.014653 0.037414
v -0.011832 -0.023246 0.025959
v -0.014697 0.003242 -0.009118
v -0.013981 0.024004 -0.004819
v -0.001811 0.024004 0.027390
v -0.002528 0.012548 0.042424
v 0.005349 0.018991 0.033836
v -0.013263 0.022571 0.040277
v -0.006105 -0.022529 -0.009118
v -0.011116 0.001091 0.043860
v 0.005349 0.016845 -0.009118
v 0.005349 -0.023246 0.000196
v -0.001811 -0.021096 0.039561
v 0.005349 0.023287 0.001627
v 0.004630 0.007534 0.039561
v -0.001095 0.023287 0.038130
v -0.014697 -0.007493 0.041708
v -0.005389 0.024004 -0.006966
v -0.001811 -0.023246 0.028822
v -0.012547 -0.012507 0.041708
v -0.001811 0.005388 0.043140
v -0.013981 0.023287 -0.007681
v -0.001095 -0.022529 0.037414
v -0.012547 0.013265 0.042424
v 0.004630 -0.005347 0.039561
v -0.012547 -0.022529 0.036699
v -0.013263 0.024004 0.010215
v -0.013981 0.023287 0.031689
v -0.007537 0.022571 -0.009118
v -0.001095 0.015411 0.041708
v 0.005349 -0.018950 0.033831
v 0.004630 -0.015370 0.038130
v -0.001095 -0.001050 0.043140
v -0.013981 -0.003196 0.043140
v -0.009684 0.003242 0.043860
v -0.014697 0.009685 0.041708
v -0.014697 -0.021813 -0.005534
f 115 124 163 
f 115 114 117 
f 113 111 118 
f 117 114 122 
f 118 111 125 
f 111 113 127 
f 110 111 128 
f 114 124 128 
f 124 110 128 
f 115 117 129 
f 112 125 129 
f 113 118 133 
f 120 113 133 
f 111 110 135 
f 124 115 135 
f 110 124 135 
f 125 111 135 
f 115 129 135 
f 129 125 135 
f 112 118 137 
f 125 112 137 
f 118 125 137 
f 111 127 138 
f 128 111 138 
f 126 123 139 
f 118 131 140 
f 133 118 140 
f 131 109 142 
f 120 133 142 
f 109 134 142 
f 134 120 142 
f 140 131 142 
f 133 140 142 
f 122 114 143 
f 114 126 143 
f 118 112 144 
f 131 118 144 
f 130 131 144 
f 128 138 145 
f 139 121 146 
f 126 139 146 
f 129 117 148 
f 117 130 148 
f 144 112 148 
f 130 144 148 
f 138 116 149 
f 116 139 149 
f 139 123 149 
f 123 145 149 
f 145 138 149 
f 132 134 150 
f 119 136 150 
f 127 113 151 
f 113 141 151 
f 126 114 152 
f 123 126 152 
f 114 128 152 
f 145 123 152 
f 128 145 152 
f 109 131 153 
f 131 130 153 
f 117 122 154 
f 130 117 154 
f 134 109 154 
f 122 134 154 
f 109 153 154 
f 153 130 154 
f 112 129 155 
f 148 112 155 
f 129 148 155 
f 113 120 156 
f 120 134 156 
f 134 132 156 
f 141 113 156 
f 132 147 156 
f 147 141 156 
f 127 116 157 
f 116 138 157 
f 138 127 157 
f 116 127 158 
f 139 116 158 
f 121 139 158 
f 127 151 158 
f 151 121 158 
f 141 147 159 
f 121 151 159 
f 151 141 159 
f 136 119 160 
f 121 136 160 
f 119 143 160 
f 143 126 160 
f 146 121 160 
f 126 146 160 
f 136 121 161 
f 147 132 161 
f 132 150 161 
f 150 136 161 
f 121 159 161 
f 159 147 161 
f 134 122 162 
f 122 143 162 
f 143 119 162 
f 119 150 162 
f 150 134 162 
f 114 115 163 
f 124 114 163 
o convex_3
v -0.061945 -0.003913 -0.024150
v -0.049058 0.013979 -0.024150
v -0.049058 0.013979 -0.025583
v -0.031879 -0.014652 -0.008404
v -0.031879 -0.002484 -0.035604
v -0.055500 -0.012503 -0.034888
v -0.031879 0.004674 -0.008404
v -0.059797 -0.004630 -0.009121
v -0.059797 0.012547 -0.015564
v -0.059797 0.004671 -0.033455
v -0.031879 0.013264 -0.019142
v -0.046912 0.011114 -0.035604
v -0.059797 -0.011788 -0.018426
v -0.033315 -0.014652 -0.022004
v -0.057648 0.004671 -0.008404
v -0.031879 0.008253 -0.033455
v -0.047627 -0.014652 -0.013415
v -0.059797 0.012547 -0.026299
v -0.049773 -0.011788 -0.035604
v -0.061945 0.006103 -0.019858
v -0.034746 0.013261 -0.025583
v -0.060512 -0.006063 -0.031307
v -0.041191 -0.013935 -0.008404
v -0.059797 0.008250 -0.010553
v -0.050491 -0.014652 -0.019858
v -0.055500 0.000378 -0.035604
v -0.059797 -0.009641 -0.013415
v -0.049773 0.011829 -0.034888
v -0.031879 0.011832 -0.016280
v -0.061945 0.003957 -0.027012
v -0.061945 -0.000337 -0.016280
v -0.032600 0.006103 -0.035604
v -0.039758 -0.008209 -0.034888
v -0.031879 -0.014652 -0.020574
v -0.059797 -0.011788 -0.024150
v -0.056933 0.011829 -0.014131
v -0.055500 0.013979 -0.026299
v -0.044054 0.012547 -0.032739
v -0.059797 0.008968 -0.031307
v -0.055500 -0.006777 -0.008404
v -0.059797 0.000378 -0.034172
v -0.059081 0.013261 -0.017710
v -0.061227 -0.008209 -0.019142
v -0.055500 -0.011071 -0.035604
v -0.061227 0.003957 -0.012702
v -0.061227 0.009682 -0.024866
v -0.060512 -0.008924 -0.028445
v -0.031879 0.013264 -0.023434
v -0.061227 0.004671 -0.030593
f 209 202 212 
f 167 168 170 
f 166 165 174 
f 170 168 174 
f 167 170 178 
f 174 168 179 
f 177 167 180 
f 175 168 182 
f 177 169 182 
f 167 178 186 
f 180 167 186 
f 178 170 187 
f 171 178 187 
f 169 177 188 
f 180 176 188 
f 177 180 188 
f 175 182 189 
f 176 180 190 
f 180 186 190 
f 189 173 191 
f 175 189 191 
f 170 174 192 
f 164 183 193 
f 185 164 193 
f 183 164 194 
f 168 175 195 
f 179 168 195 
f 175 179 195 
f 168 177 196 
f 182 168 196 
f 177 182 196 
f 168 167 197 
f 167 177 197 
f 177 168 197 
f 169 188 198 
f 188 176 198 
f 174 172 199 
f 187 170 199 
f 172 187 199 
f 170 192 199 
f 192 174 199 
f 165 166 200 
f 191 181 200 
f 191 200 201 
f 179 175 201 
f 166 184 201 
f 184 179 201 
f 175 191 201 
f 200 166 201 
f 181 191 202 
f 191 173 202 
f 178 171 203 
f 186 178 203 
f 171 190 203 
f 190 186 203 
f 173 189 204 
f 174 165 205 
f 172 174 205 
f 181 172 205 
f 165 200 205 
f 200 181 205 
f 190 171 206 
f 176 190 206 
f 194 164 206 
f 171 194 206 
f 198 176 206 
f 182 169 207 
f 169 185 207 
f 189 182 207 
f 185 204 207 
f 204 189 207 
f 172 183 208 
f 187 172 208 
f 171 187 208 
f 183 194 208 
f 194 171 208 
f 172 181 209 
f 183 172 209 
f 193 183 209 
f 181 202 209 
f 164 185 210 
f 185 169 210 
f 169 198 210 
f 206 164 210 
f 198 206 210 
f 166 174 211 
f 174 179 211 
f 184 166 211 
f 179 184 211 
f 185 193 212 
f 202 173 212 
f 204 185 212 
f 173 204 212 
f 193 209 212 
o convex_4
v -0.019709 -0.006779 -0.032742
v -0.025435 0.015413 -0.008402
v -0.025435 0.015413 -0.009118
v -0.031879 -0.014655 -0.019143
v -0.031879 0.006104 -0.035604
v -0.024005 -0.013937 -0.008402
v -0.017561 0.008252 -0.024147
v -0.031163 0.015413 -0.008402
v -0.028300 -0.011073 -0.036323
v -0.019709 0.011831 -0.029878
v -0.018995 -0.002482 -0.011266
v -0.031879 -0.014655 -0.008402
v -0.019709 -0.012507 -0.022717
v -0.019709 0.002525 -0.034890
v -0.031879 0.013265 -0.023431
v -0.017561 -0.006064 -0.027730
v -0.031163 -0.009643 -0.036323
v -0.018995 0.010401 -0.015562
v -0.026150 -0.014655 -0.026298
v -0.024005 0.013980 -0.026298
v -0.017561 -0.004630 -0.018427
v -0.027582 0.005388 -0.036323
v -0.024720 -0.009643 -0.036323
v -0.021858 0.003240 -0.008402
v -0.019709 0.013265 -0.021294
v -0.018277 0.004673 -0.013414
v -0.017561 0.001809 -0.030594
v -0.031879 0.004673 -0.008402
v -0.018995 -0.007494 -0.014130
v -0.031879 0.008968 -0.032742
v -0.020427 -0.013222 -0.024147
v -0.024720 -0.014655 -0.008402
v -0.018995 0.008968 -0.032026
v -0.030445 -0.012507 -0.032026
v -0.024005 0.013980 -0.008402
v -0.031879 -0.002482 -0.035604
v -0.024720 -0.011073 -0.034890
v -0.024720 0.011831 -0.030594
v -0.018995 0.006104 -0.011982
v -0.019709 -0.009643 -0.029878
v -0.019709 0.013265 -0.026298
v -0.019709 -0.001767 -0.034890
v -0.017561 0.006104 -0.018427
f 238 233 255 
f 214 215 220 
f 218 214 220 
f 217 216 224 
f 218 220 224 
f 217 224 227 
f 224 216 231 
f 220 215 232 
f 227 220 232 
f 228 219 233 
f 225 228 233 
f 229 217 234 
f 221 229 234 
f 221 234 235 
f 234 226 235 
f 214 218 236 
f 218 223 236 
f 215 214 237 
f 230 219 237 
f 223 233 238 
f 219 228 239 
f 224 220 240 
f 220 227 240 
f 227 224 240 
f 223 218 241 
f 218 225 241 
f 233 223 241 
f 225 233 241 
f 217 227 242 
f 218 224 244 
f 225 218 244 
f 224 231 244 
f 243 225 244 
f 231 243 244 
f 222 219 245 
f 234 222 245 
f 226 234 245 
f 219 239 245 
f 239 226 245 
f 216 229 246 
f 229 221 246 
f 231 216 246 
f 221 231 246 
f 214 236 247 
f 237 214 247 
f 230 237 247 
f 216 217 248 
f 229 216 248 
f 217 229 248 
f 231 221 249 
f 221 235 249 
f 243 231 249 
f 232 222 250 
f 227 232 250 
f 234 217 250 
f 222 234 250 
f 217 242 250 
f 242 227 250 
f 236 223 251 
f 238 230 251 
f 223 238 251 
f 247 236 251 
f 230 247 251 
f 213 228 252 
f 228 225 252 
f 235 213 252 
f 225 243 252 
f 249 235 252 
f 243 249 252 
f 219 222 253 
f 232 215 253 
f 222 232 253 
f 215 237 253 
f 237 219 253 
f 228 213 254 
f 213 235 254 
f 235 226 254 
f 226 239 254 
f 239 228 254 
f 219 230 255 
f 233 219 255 
f 230 238 255 
o convex_5
v -0.036174 0.026867 -0.031307
v -0.023288 0.022572 -0.019145
v -0.023288 0.021855 -0.019145
v -0.028300 0.020425 -0.044914
v -0.031878 0.015413 -0.008402
v -0.028300 0.027584 -0.014846
v -0.026868 0.026867 -0.037748
v -0.036174 0.019710 -0.037748
v -0.036174 0.025436 -0.014846
v -0.025437 0.015413 -0.008402
v -0.028300 0.016131 -0.032026
v -0.024004 0.020425 -0.037037
v -0.033309 0.024719 -0.044195
v -0.037607 0.020425 -0.023438
v -0.029018 0.024004 -0.008402
v -0.023288 0.025436 -0.029163
v -0.031878 0.016131 -0.032026
v -0.025437 0.025436 -0.013416
v -0.037607 0.024719 -0.032741
v -0.026868 0.025436 -0.042766
v -0.031878 0.019710 -0.044914
v -0.035458 0.027584 -0.022008
v -0.032593 0.026152 -0.010550
v -0.033309 0.016845 -0.008402
v -0.037607 0.019710 -0.029878
v -0.032593 0.026867 -0.039899
v -0.023288 0.019710 -0.028441
v -0.027585 0.027584 -0.028441
v -0.037607 0.025436 -0.022008
v -0.036889 0.021855 -0.016279
v -0.033309 0.022572 -0.008402
v -0.024004 0.026152 -0.021290
v -0.036174 0.025436 -0.038466
v -0.036174 0.021142 -0.039899
v -0.026154 0.019710 -0.042047
v -0.024722 0.023287 -0.039899
v -0.024004 0.019710 -0.035600
v -0.026868 0.022572 -0.008402
v -0.028300 0.025436 -0.044195
v -0.028300 0.026152 -0.010550
v -0.033309 0.027584 -0.015564
f 278 261 296 
f 258 257 265 
f 265 260 266 
f 260 265 270 
f 257 258 271 
f 266 260 272 
f 265 257 273 
f 262 271 275 
f 268 259 276 
f 272 263 276 
f 266 272 276 
f 260 270 279 
f 263 272 280 
f 272 260 280 
f 269 274 280 
f 260 279 280 
f 279 269 280 
f 256 277 281 
f 258 265 282 
f 271 258 282 
f 267 271 282 
f 277 261 283 
f 262 281 283 
f 281 277 283 
f 256 274 284 
f 274 269 284 
f 277 256 284 
f 264 277 284 
f 269 279 285 
f 264 284 285 
f 284 269 285 
f 278 264 286 
f 270 278 286 
f 279 270 286 
f 285 279 286 
f 264 285 286 
f 257 271 287 
f 271 262 287 
f 273 257 287 
f 261 273 287 
f 283 261 287 
f 262 283 287 
f 274 256 288 
f 256 281 288 
f 281 268 288 
f 268 276 289 
f 276 263 289 
f 263 280 289 
f 280 274 289 
f 288 268 289 
f 274 288 289 
f 259 275 290 
f 276 259 290 
f 266 276 290 
f 271 267 291 
f 275 271 291 
f 267 290 291 
f 290 275 291 
f 265 266 292 
f 282 265 292 
f 267 282 292 
f 266 290 292 
f 290 267 292 
f 270 265 293 
f 265 273 293 
f 259 268 294 
f 275 259 294 
f 262 275 294 
f 268 281 294 
f 281 262 294 
f 273 261 295 
f 261 278 295 
f 278 270 295 
f 270 293 295 
f 293 273 295 
f 261 277 296 
f 277 264 296 
f 264 278 296 
o convex_6
v -0.030447 0.029016 -0.021288
v -0.031163 0.027584 -0.032743
v -0.029732 0.027584 -0.032743
v -0.031163 0.033311 -0.031311
v -0.028300 0.032595 -0.024152
v -0.032595 0.032595 -0.024152
v -0.027584 0.027584 -0.028445
v -0.032595 0.027584 -0.023437
v -0.028300 0.032595 -0.030595
v -0.032595 0.031880 -0.030595
v -0.029016 0.027584 -0.022006
v -0.029016 0.033311 -0.022720
f 307 301 308 
f 299 298 300 
f 298 299 303 
f 297 302 304 
f 298 303 304 
f 299 300 305 
f 303 299 305 
f 301 303 305 
f 300 298 306 
f 302 300 306 
f 298 304 306 
f 304 302 306 
f 303 301 307 
f 297 304 307 
f 304 303 307 
f 302 297 308 
f 300 302 308 
f 305 300 308 
f 301 305 308 
f 297 307 308 
o convex_7
v 0.006065 0.011112 0.035979
v 0.019666 -0.018951 0.018084
v 0.005349 -0.018234 -0.008398
v 0.019666 0.015409 -0.034880
v 0.020383 0.015409 0.030961
v 0.005349 0.015409 -0.034174
v 0.020383 -0.013220 -0.034880
v 0.005349 -0.011073 0.035258
v 0.005349 -0.013220 -0.035602
v 0.005349 0.018993 0.024515
v 0.020383 -0.005342 0.038128
v 0.020383 0.018993 -0.009105
v 0.013939 -0.018234 -0.034174
v 0.011078 0.018993 -0.033453
v 0.005349 -0.017513 0.026671
v 0.020383 -0.015370 0.031689
v 0.020383 0.018272 0.024515
v 0.005349 -0.002479 0.038849
v 0.020383 0.004671 0.038128
v 0.016802 0.013975 -0.036323
v 0.020383 -0.018234 -0.009097
v 0.019666 -0.012503 -0.036323
v 0.005349 0.005388 -0.036323
v 0.005349 0.018993 -0.008398
v 0.008214 -0.018234 -0.029877
v 0.020383 0.012545 -0.035602
v 0.018234 -0.018234 -0.029877
v 0.020383 -0.018234 0.025943
v 0.005349 -0.018234 0.023794
v 0.005349 0.016126 0.030954
v 0.015369 0.018993 -0.032025
v 0.005349 0.003238 0.038849
v 0.005349 0.014696 -0.035602
v 0.005349 -0.016083 0.030240
v 0.020383 0.011832 0.034552
v 0.013223 0.018993 0.023080
v 0.020383 -0.010356 0.035979
v 0.006065 -0.011073 -0.036323
v 0.005349 -0.006063 0.038128
v 0.014654 -0.002479 0.038849
v 0.010362 0.018272 0.026671
v 0.005349 -0.015370 -0.029877
v 0.013939 0.018993 -0.034174
v 0.019666 0.013262 -0.036323
v 0.015369 0.007535 0.037407
v 0.015369 0.013975 0.033117
v 0.011793 -0.018234 -0.034174
f 333 317 355 
f 314 311 316 
f 311 314 317 
f 314 316 318 
f 315 313 319 
f 313 315 320 
f 318 320 322 
f 316 311 323 
f 315 319 324 
f 313 320 325 
f 318 316 326 
f 319 313 327 
f 315 324 329 
f 315 321 330 
f 328 330 331 
f 317 314 331 
f 314 318 332 
f 322 314 332 
f 318 322 332 
f 310 311 333 
f 312 320 334 
f 320 315 334 
f 315 330 334 
f 310 321 335 
f 321 315 335 
f 329 310 335 
f 315 329 335 
f 310 329 336 
f 329 324 336 
f 311 310 337 
f 323 311 337 
f 310 336 337 
f 336 323 337 
f 318 326 338 
f 320 312 339 
f 322 320 339 
f 309 338 340 
f 338 326 340 
f 314 322 341 
f 328 331 341 
f 331 314 341 
f 316 323 342 
f 324 316 342 
f 323 336 342 
f 336 324 342 
f 327 313 343 
f 320 318 344 
f 325 320 344 
f 324 319 345 
f 316 324 345 
f 330 317 346 
f 331 330 346 
f 317 331 346 
f 326 316 347 
f 316 345 347 
f 345 319 347 
f 319 327 348 
f 340 326 348 
f 327 340 348 
f 326 347 348 
f 347 319 348 
f 313 325 349 
f 338 313 349 
f 318 338 349 
f 344 318 349 
f 325 344 349 
f 311 317 350 
f 333 311 350 
f 317 333 350 
f 339 312 351 
f 322 339 351 
f 341 322 351 
f 328 341 351 
f 330 328 352 
f 312 334 352 
f 334 330 352 
f 351 312 352 
f 328 351 352 
f 340 327 353 
f 309 340 353 
f 343 309 353 
f 327 343 353 
f 338 309 354 
f 313 338 354 
f 309 343 354 
f 343 313 354 
f 321 310 355 
f 330 321 355 
f 317 330 355 
f 310 333 355 
o convex_8
v 0.008929 0.026867 -0.042763
v 0.020383 0.021143 0.001621
v 0.020383 0.018993 0.001621
v 0.005349 0.022573 0.001621
v 0.010362 0.020426 -0.044913
v 0.018234 0.028299 -0.029879
v 0.011078 0.029015 -0.016277
v 0.018950 0.021143 -0.038467
v 0.005349 0.018993 -0.008403
v 0.005349 0.026151 -0.029879
v 0.018950 0.018993 -0.029879
v 0.014654 0.026151 -0.045627
v 0.011078 0.029732 -0.032739
v 0.006065 0.021143 -0.036316
v 0.020383 0.022573 0.000903
v 0.020383 0.024719 -0.030593
v 0.005349 0.018993 0.001621
v 0.013939 0.029015 -0.015563
v 0.006781 0.027582 -0.019146
v 0.010362 0.018993 -0.032739
v 0.018234 0.026867 -0.039899
v 0.016087 0.021143 -0.044913
v 0.005349 0.023290 0.000903
v 0.018950 0.027582 -0.022719
v 0.014654 0.029732 -0.032739
v 0.020383 0.021857 -0.029879
v 0.013939 0.028299 -0.041331
v 0.007497 0.028299 -0.032739
v 0.007497 0.026151 -0.041331
v 0.011078 0.024006 -0.046345
v 0.010362 0.029732 -0.025578
v 0.015369 0.029732 -0.025578
v 0.005349 0.021857 -0.032025
v 0.016802 0.028299 -0.017709
v 0.007497 0.021857 -0.042045
v 0.010362 0.023290 0.000903
v 0.007497 0.020426 -0.038467
v 0.019666 0.026867 -0.032739
v 0.015369 0.020426 -0.044195
f 360 377 394 
f 358 357 359 
f 364 359 365 
f 358 364 366 
f 357 358 370 
f 359 357 370 
f 370 358 371 
f 358 359 372 
f 364 358 372 
f 359 364 372 
f 366 364 375 
f 371 363 376 
f 376 363 377 
f 367 376 377 
f 365 359 378 
f 373 362 378 
f 362 374 378 
f 374 365 378 
f 361 376 380 
f 358 366 381 
f 366 363 381 
f 371 358 381 
f 363 371 381 
f 367 356 382 
f 356 368 382 
f 376 367 382 
f 368 380 382 
f 380 376 382 
f 368 356 383 
f 365 374 383 
f 369 365 384 
f 383 356 384 
f 365 383 384 
f 356 367 385 
f 377 360 385 
f 367 377 385 
f 384 356 385 
f 362 373 386 
f 374 362 386 
f 380 368 386 
f 368 383 386 
f 383 374 386 
f 379 361 387 
f 361 380 387 
f 386 373 387 
f 380 386 387 
f 364 365 388 
f 369 364 388 
f 365 369 388 
f 373 370 389 
f 370 379 389 
f 379 387 389 
f 387 373 389 
f 369 384 390 
f 385 360 390 
f 384 385 390 
f 359 370 391 
f 370 373 391 
f 378 359 391 
f 373 378 391 
f 364 369 392 
f 360 375 392 
f 375 364 392 
f 390 360 392 
f 369 390 392 
f 370 371 393 
f 376 361 393 
f 371 376 393 
f 361 379 393 
f 379 370 393 
f 363 366 394 
f 375 360 394 
f 366 375 394 
f 377 363 394 
o convex_9
v 0.010360 0.032595 -0.028446
v 0.015371 0.030448 -0.025585
v 0.015371 0.029732 -0.025585
v 0.013939 0.029732 -0.033459
v 0.013939 0.034743 -0.029878
v 0.011077 0.029732 -0.023437
v 0.013939 0.034743 -0.024154
v 0.011077 0.029732 -0.032742
v 0.011792 0.034026 -0.032025
v 0.011792 0.034743 -0.024869
v 0.014655 0.034026 -0.031310
f 403 399 405 
f 398 397 400 
f 397 396 401 
f 400 397 401 
f 398 400 402 
f 400 395 402 
f 402 395 403 
f 398 402 403 
f 395 400 404 
f 400 401 404 
f 401 399 404 
f 399 403 404 
f 403 395 404 
f 396 397 405 
f 397 398 405 
f 401 396 405 
f 399 401 405 
f 398 403 405 
o convex_10
v 0.060474 0.003957 -0.010549
v 0.020383 -0.023958 -0.007686
v 0.020383 -0.023958 -0.000527
v 0.020383 0.018277 -0.009118
v 0.060474 0.018277 0.000189
v 0.059756 -0.024672 -0.000527
v 0.020383 0.018277 0.000905
v 0.051166 -0.023958 -0.010549
v 0.059756 0.018277 -0.009832
v 0.049733 -0.023958 0.000905
v 0.026113 -0.011069 -0.010549
v 0.060474 -0.022530 -0.008401
v 0.029695 0.018277 -0.010549
v 0.020383 -0.023244 0.000905
v 0.051880 0.018277 0.000905
v 0.020383 -0.021808 -0.009118
v 0.058324 -0.025394 -0.005536
v 0.031124 -0.023244 -0.010549
v 0.056177 -0.007491 0.000905
v 0.059756 -0.023240 -0.009832
v 0.060474 -0.022530 -0.000527
v 0.059042 -0.024672 0.000189
v 0.050448 0.018277 -0.010549
v 0.056891 -0.025394 -0.001243
v 0.046869 -0.024676 -0.009118
v 0.060474 0.018277 -0.009118
v 0.059042 -0.024672 -0.009118
v 0.060474 -0.003909 -0.010549
f 417 425 433 
f 407 408 409 
f 409 408 412 
f 410 409 412 
f 409 410 414 
f 406 413 416 
f 406 410 417 
f 409 414 418 
f 416 409 418 
f 406 416 418 
f 412 408 419 
f 415 412 419 
f 410 412 420 
f 412 415 420 
f 407 409 421 
f 409 416 421 
f 416 413 423 
f 407 421 423 
f 421 416 423 
f 410 420 424 
f 420 415 424 
f 417 410 426 
f 411 417 426 
f 415 419 427 
f 410 424 427 
f 424 415 427 
f 426 410 427 
f 411 426 427 
f 414 406 428 
f 406 418 428 
f 418 414 428 
f 408 407 429 
f 419 408 429 
f 407 422 429 
f 422 411 429 
f 427 419 429 
f 411 427 429 
f 422 407 430 
f 407 423 430 
f 423 413 430 
f 410 406 431 
f 406 414 431 
f 414 410 431 
f 417 411 432 
f 411 422 432 
f 413 425 432 
f 425 417 432 
f 422 430 432 
f 430 413 432 
f 413 406 433 
f 406 417 433 
f 425 413 433 
o convex_11
v 0.031839 0.026866 -0.011982
v 0.031839 0.018277 -0.034887
v 0.033268 0.018277 -0.034887
v 0.033268 0.034027 -0.032739
v 0.039713 0.021858 -0.019862
v 0.026112 0.021142 -0.019147
v 0.031124 0.025438 -0.046345
v 0.038995 0.025438 -0.039180
v 0.037564 0.018277 -0.009834
v 0.025394 0.025438 -0.030595
v 0.038279 0.026866 -0.017711
v 0.037564 0.020428 -0.042046
v 0.027543 0.020428 -0.041331
v 0.029690 0.018277 -0.009834
v 0.031124 0.034027 -0.024869
v 0.027543 0.026152 -0.015563
v 0.027543 0.026866 -0.039898
v 0.034701 0.034027 -0.026306
v 0.039713 0.026866 -0.024869
v 0.039713 0.020428 -0.031310
v 0.033983 0.026866 -0.045627
v 0.033983 0.020428 -0.045627
v 0.034701 0.026152 -0.011270
v 0.026112 0.020428 -0.036320
v 0.031124 0.034027 -0.031310
v 0.028259 0.018277 -0.017711
v 0.026112 0.026152 -0.020577
v 0.036133 0.018277 -0.029158
v 0.029690 0.021858 -0.009834
v 0.036848 0.025438 -0.044198
v 0.033268 0.034027 -0.023440
v 0.039713 0.026866 -0.031310
v 0.030406 0.020428 -0.045627
v 0.029690 0.026152 -0.044909
v 0.025394 0.021142 -0.024869
v 0.026112 0.024721 -0.038468
v 0.034701 0.034027 -0.029873
v 0.036848 0.026152 -0.013415
v 0.034701 0.021858 -0.046345
v 0.039713 0.021858 -0.036320
v 0.038279 0.026866 -0.039180
v 0.030406 0.018277 -0.033458
f 446 466 475 
f 435 436 442 
f 442 438 444 
f 435 442 447 
f 434 448 449 
f 437 448 451 
f 444 438 452 
f 451 444 452 
f 438 442 453 
f 452 438 453 
f 436 435 455 
f 445 436 455 
f 448 437 458 
f 443 448 458 
f 450 443 458 
f 447 439 459 
f 435 447 459 
f 448 443 460 
f 439 449 460 
f 449 448 460 
f 442 436 461 
f 436 445 461 
f 453 442 461 
f 445 453 461 
f 439 447 462 
f 447 442 462 
f 449 439 462 
f 434 449 462 
f 442 456 462 
f 456 434 462 
f 441 445 463 
f 454 437 463 
f 448 434 464 
f 444 451 464 
f 451 448 464 
f 434 456 464 
f 451 452 465 
f 452 453 465 
f 455 435 466 
f 437 454 467 
f 454 440 467 
f 458 437 467 
f 450 458 467 
f 466 446 467 
f 440 466 467 
f 443 457 468 
f 459 439 468 
f 457 459 468 
f 439 460 468 
f 460 443 468 
f 443 450 469 
f 457 443 469 
f 446 457 469 
f 467 446 469 
f 450 467 469 
f 437 451 470 
f 451 465 470 
f 442 444 471 
f 456 442 471 
f 444 464 471 
f 464 456 471 
f 440 454 472 
f 445 455 472 
f 463 445 472 
f 454 463 472 
f 466 440 472 
f 455 466 472 
f 445 441 473 
f 453 445 473 
f 441 465 473 
f 465 453 473 
f 463 437 474 
f 441 463 474 
f 465 441 474 
f 437 470 474 
f 470 465 474 
f 457 446 475 
f 435 459 475 
f 459 457 475 
f 466 435 475 
o convex_12
v 0.035415 0.022573 -0.001243
v 0.029694 0.018277 -0.009834
v 0.020383 0.018277 -0.009117
v 0.040429 0.018277 0.000905
v 0.020383 0.018277 0.000905
v 0.020383 0.022573 -0.008401
v 0.040429 0.021856 -0.008401
v 0.020383 0.022573 0.000905
v 0.040429 0.018277 -0.009117
v 0.039711 0.021856 0.000905
v 0.033985 0.022573 -0.009834
f 482 484 486 
f 478 477 479 
f 478 479 480 
f 478 480 481 
f 480 479 483 
f 481 480 483 
f 476 481 483 
f 479 477 484 
f 482 479 484 
f 482 476 485 
f 479 482 485 
f 476 483 485 
f 483 479 485 
f 477 478 486 
f 478 481 486 
f 481 476 486 
f 476 482 486 
f 484 477 486 
o convex_13
v 0.044726 0.025438 -0.016993
v 0.049022 0.018277 -0.034888
v 0.051881 0.018277 -0.034888
v 0.049737 0.034027 -0.032737
v 0.055462 0.021858 -0.014131
v 0.056177 0.025438 -0.041332
v 0.046157 0.024721 -0.044195
v 0.051881 0.034027 -0.024870
v 0.048304 0.019709 -0.010549
v 0.043292 0.020428 -0.032737
v 0.050452 0.026152 -0.011271
v 0.057611 0.021142 -0.024156
v 0.052599 0.021142 -0.046343
v 0.056893 0.026866 -0.020578
v 0.043292 0.025438 -0.032026
v 0.052599 0.026866 -0.045625
v 0.053315 0.018277 -0.016993
v 0.049022 0.034027 -0.024870
v 0.046157 0.020428 -0.043480
v 0.056893 0.021142 -0.037748
v 0.057611 0.026866 -0.030589
v 0.051881 0.034027 -0.032026
v 0.046157 0.018277 -0.026300
v 0.043292 0.021142 -0.022723
v 0.054746 0.026866 -0.014849
v 0.053315 0.019709 -0.010549
v 0.048304 0.025438 -0.046343
v 0.044726 0.026152 -0.039896
v 0.046872 0.026152 -0.013416
v 0.043292 0.025438 -0.024156
v 0.048304 0.033310 -0.031307
v 0.056177 0.026866 -0.039896
v 0.044726 0.020428 -0.016993
v 0.053315 0.018277 -0.032026
v 0.048304 0.020428 -0.045625
v 0.044010 0.022574 -0.039184
v 0.049022 0.018277 -0.016279
v 0.047588 0.021858 -0.010549
v 0.048304 0.026866 -0.044913
v 0.056177 0.019709 -0.020578
v 0.057611 0.022574 -0.035603
v 0.054031 0.021142 -0.044913
f 506 520 528 
f 491 498 500 
f 488 489 503 
f 494 490 504 
f 497 494 504 
f 494 500 507 
f 500 498 507 
f 490 494 508 
f 502 490 508 
f 494 507 508 
f 488 503 509 
f 496 505 509 
f 505 488 509 
f 501 496 510 
f 496 509 510 
f 494 497 511 
f 500 494 511 
f 491 500 511 
f 511 497 512 
f 491 511 512 
f 502 499 513 
f 504 487 515 
f 497 504 515 
f 487 504 516 
f 510 487 516 
f 501 510 516 
f 504 490 517 
f 490 514 517 
f 514 501 517 
f 516 504 517 
f 501 516 517 
f 492 502 518 
f 502 508 518 
f 508 507 518 
f 487 510 519 
f 510 509 519 
f 503 489 520 
f 489 488 521 
f 499 489 521 
f 505 493 521 
f 488 505 521 
f 493 513 521 
f 513 499 521 
f 496 501 522 
f 493 505 522 
f 505 496 522 
f 501 514 522 
f 514 493 522 
f 509 503 523 
f 512 495 523 
f 503 512 523 
f 495 519 523 
f 519 509 523 
f 495 512 524 
f 512 497 524 
f 515 487 524 
f 497 515 524 
f 487 519 524 
f 519 495 524 
f 490 502 525 
f 513 493 525 
f 502 513 525 
f 514 490 525 
f 493 514 525 
f 498 491 526 
f 506 498 526 
f 491 512 526 
f 512 503 526 
f 503 520 526 
f 520 506 526 
f 506 492 527 
f 498 506 527 
f 507 498 527 
f 492 518 527 
f 518 507 527 
f 489 499 528 
f 502 492 528 
f 499 502 528 
f 492 506 528 
f 520 489 528 
o convex_14
v 0.059040 0.021857 -0.001243
v 0.046156 0.018277 -0.010549
v 0.040429 0.018277 -0.009116
v 0.049739 0.018277 0.007349
v 0.040429 0.021857 0.000188
v 0.060474 0.018277 -0.009116
v 0.048305 0.021857 -0.010549
v 0.060474 0.018277 0.000188
v 0.040429 0.018277 0.000905
v 0.059756 0.021140 -0.008402
v 0.040429 0.021857 -0.008402
v 0.049739 0.018994 0.007349
v 0.052598 0.021857 -0.010549
v 0.059756 0.021140 0.000188
f 540 536 542 
f 531 530 532 
f 532 530 534 
f 530 531 535 
f 533 529 535 
f 532 534 536 
f 531 532 537 
f 533 531 537 
f 536 534 538 
f 531 533 539 
f 535 531 539 
f 533 535 539 
f 529 533 540 
f 532 536 540 
f 537 532 540 
f 533 537 540 
f 534 530 541 
f 530 535 541 
f 535 529 541 
f 529 538 541 
f 538 534 541 
f 538 529 542 
f 536 538 542 
f 529 540 542 
o convex_15
v -0.048346 -0.027542 -0.021288
v -0.049062 -0.033269 -0.029163
v -0.048346 -0.033269 -0.029163
v -0.050493 -0.027542 -0.032027
v -0.051208 -0.031836 -0.022722
v -0.046914 -0.027542 -0.029878
v -0.047630 -0.032552 -0.022722
v -0.051925 -0.027542 -0.024870
v -0.051208 -0.032552 -0.029878
v -0.047630 -0.031836 -0.031310
f 544 551 552 
f 546 543 548 
f 544 545 549 
f 543 547 549 
f 547 544 549 
f 548 543 549 
f 543 546 550 
f 547 543 550 
f 547 550 551 
f 544 547 551 
f 550 546 551 
f 551 546 552 
f 545 544 552 
f 546 548 552 
f 549 545 552 
f 548 549 552 
o convex_16
v -0.035459 -0.024681 -0.041330
v -0.023288 -0.021099 -0.022724
v -0.023288 -0.023247 -0.022724
v -0.034741 -0.019668 -0.008405
v -0.031162 -0.033269 -0.023438
v -0.026152 -0.020384 -0.042045
v -0.038323 -0.020384 -0.029162
v -0.026152 -0.018235 -0.008405
v -0.026870 -0.026108 -0.042045
v -0.036889 -0.018235 -0.029876
v -0.026152 -0.022531 -0.008405
v -0.037606 -0.024681 -0.021292
v -0.029016 -0.033269 -0.028444
v -0.032595 -0.020384 -0.044908
v -0.026152 -0.018235 -0.029876
v -0.032595 -0.032553 -0.030593
v -0.033309 -0.024681 -0.010555
v -0.024006 -0.025396 -0.034171
v -0.031878 -0.026108 -0.044194
v -0.037606 -0.024681 -0.034171
v -0.034741 -0.018235 -0.008405
v -0.024006 -0.025396 -0.019860
v -0.035459 -0.019668 -0.041330
v -0.023288 -0.020384 -0.029162
v -0.029016 -0.032553 -0.022724
v -0.036174 -0.024681 -0.014850
v -0.037606 -0.019668 -0.019142
v -0.032595 -0.032553 -0.022724
v -0.029734 -0.023247 -0.045626
v -0.029016 -0.019668 -0.043476
v -0.029734 -0.024681 -0.009837
v -0.025437 -0.021817 -0.008405
v -0.024006 -0.023247 -0.037035
v -0.037606 -0.025396 -0.026302
v -0.029734 -0.033269 -0.029876
v -0.031878 -0.018235 -0.033457
v -0.037606 -0.020384 -0.035603
v -0.024006 -0.026108 -0.024156
f 574 577 590 
f 560 556 563 
f 562 560 567 
f 565 561 570 
f 553 566 571 
f 568 553 571 
f 553 568 572 
f 556 560 573 
f 560 562 573 
f 566 553 575 
f 554 555 576 
f 560 554 576 
f 558 567 576 
f 567 560 576 
f 555 570 576 
f 557 565 577 
f 569 556 578 
f 562 559 579 
f 559 564 579 
f 556 573 579 
f 573 562 579 
f 564 578 579 
f 578 556 579 
f 568 557 580 
f 557 569 580 
f 578 564 580 
f 569 578 580 
f 558 561 581 
f 561 571 581 
f 571 566 581 
f 567 558 582 
f 566 575 582 
f 558 581 582 
f 581 566 582 
f 563 556 583 
f 556 569 583 
f 569 557 583 
f 557 577 583 
f 577 563 583 
f 555 554 584 
f 554 560 584 
f 560 563 584 
f 574 555 584 
f 563 577 584 
f 577 574 584 
f 561 558 585 
f 570 561 585 
f 558 576 585 
f 576 570 585 
f 564 559 586 
f 559 572 586 
f 572 568 586 
f 580 564 586 
f 568 580 586 
f 565 557 587 
f 561 565 587 
f 557 568 587 
f 571 561 587 
f 568 571 587 
f 562 567 588 
f 575 562 588 
f 567 582 588 
f 582 575 588 
f 559 562 589 
f 553 572 589 
f 572 559 589 
f 562 575 589 
f 575 553 589 
f 570 555 590 
f 565 570 590 
f 555 574 590 
f 577 565 590 
o convex_17
v -0.031880 -0.018234 -0.033459
v -0.024720 -0.014655 -0.008402
v -0.038321 -0.014655 -0.008402
v -0.025438 -0.018234 -0.008402
v -0.026155 -0.014655 -0.024151
v -0.036888 -0.018234 -0.011267
v -0.041902 -0.014655 -0.019858
v -0.026155 -0.018234 -0.029162
v -0.030449 -0.016088 -0.033459
v -0.041902 -0.016803 -0.016994
v -0.041902 -0.015372 -0.011267
v -0.035455 -0.018234 -0.008402
v -0.032598 -0.015372 -0.031310
v -0.024720 -0.015372 -0.020577
f 598 595 604 
f 592 593 594 
f 593 592 595 
f 591 594 596 
f 593 595 597 
f 594 591 598 
f 595 598 599 
f 598 591 599 
f 591 596 600 
f 597 591 600 
f 597 600 601 
f 593 597 601 
f 600 596 601 
f 601 596 602 
f 594 593 602 
f 596 594 602 
f 593 601 602 
f 591 597 603 
f 597 595 603 
f 595 599 603 
f 599 591 603 
f 592 594 604 
f 595 592 604 
f 594 598 604 
o convex_18
v -0.003243 -0.026826 -0.023437
v -0.006106 -0.032553 -0.031310
v -0.006106 -0.031120 -0.032743
v -0.007538 -0.026826 -0.024869
v -0.003243 -0.026826 -0.032026
v -0.003958 -0.032553 -0.024153
v -0.006106 -0.031836 -0.022720
v -0.007538 -0.026826 -0.031310
v -0.003243 -0.031120 -0.031310
v -0.007538 -0.031120 -0.029879
f 608 612 614 
f 608 605 609 
f 605 608 611 
f 606 610 611 
f 610 605 611 
f 608 609 612 
f 609 607 612 
f 606 607 613 
f 609 605 613 
f 607 609 613 
f 610 606 613 
f 605 610 613 
f 607 606 614 
f 606 611 614 
f 611 608 614 
f 612 607 614 
o convex_19
v -0.012549 -0.023246 -0.031309
v 0.002485 -0.020383 -0.026303
v 0.002485 -0.021099 -0.026303
v -0.008254 -0.018951 -0.009121
v -0.006104 -0.015371 -0.033455
v -0.002529 -0.026826 -0.039183
v -0.004675 -0.026826 -0.014849
v -0.003243 -0.018951 -0.045624
v -0.001811 -0.018951 -0.009121
v -0.011117 -0.018951 -0.039183
v -0.008967 -0.025394 -0.041329
v 0.001053 -0.025394 -0.019858
v -0.011117 -0.025394 -0.019144
v -0.011831 -0.017520 -0.024872
v 0.001053 -0.023960 -0.038465
v -0.003243 -0.015371 -0.030592
v 0.001053 -0.018951 -0.037751
v -0.007536 -0.015371 -0.025586
v -0.010401 -0.026108 -0.033455
v -0.006104 -0.023960 -0.045624
v -0.006822 -0.023960 -0.009839
v -0.001811 -0.025394 -0.012703
v -0.011831 -0.019669 -0.018426
v -0.006822 -0.018951 -0.045624
v 0.001767 -0.018951 -0.024154
v -0.008254 -0.026826 -0.016998
v -0.001811 -0.023960 -0.044192
v -0.002529 -0.018237 -0.009121
v 0.001053 -0.022528 -0.016280
v -0.006822 -0.026826 -0.039897
v -0.001097 -0.026826 -0.018426
v -0.010401 -0.023246 -0.041329
v 0.001053 -0.025394 -0.034173
v -0.010401 -0.023960 -0.014135
v -0.011831 -0.017520 -0.029878
v -0.001097 -0.018951 -0.043478
v -0.012549 -0.022528 -0.022722
v -0.001811 -0.021099 -0.009121
v -0.012549 -0.018951 -0.029160
v -0.011831 -0.024678 -0.034887
v -0.003243 -0.015371 -0.032741
f 631 650 655 
f 616 617 629 
f 616 629 631 
f 628 618 632 
f 630 619 632 
f 635 621 636 
f 618 628 637 
f 619 622 638 
f 624 619 638 
f 622 634 638 
f 616 631 639 
f 620 621 640 
f 627 633 640 
f 621 635 640 
f 629 620 641 
f 634 622 641 
f 620 634 641 
f 618 623 642 
f 632 618 642 
f 630 632 642 
f 623 639 642 
f 639 630 642 
f 617 616 643 
f 626 617 643 
f 636 626 643 
f 616 639 643 
f 639 623 643 
f 633 625 644 
f 625 634 644 
f 634 620 644 
f 620 640 644 
f 640 633 644 
f 621 620 645 
f 636 621 645 
f 626 636 645 
f 634 625 646 
f 624 638 646 
f 638 634 646 
f 617 626 647 
f 629 617 647 
f 620 629 647 
f 645 620 647 
f 626 645 647 
f 635 618 648 
f 618 637 648 
f 627 640 648 
f 640 635 648 
f 619 624 649 
f 628 632 649 
f 632 619 649 
f 631 629 650 
f 629 641 650 
f 641 622 650 
f 615 627 651 
f 627 648 651 
f 648 637 651 
f 623 618 652 
f 618 635 652 
f 635 636 652 
f 636 643 652 
f 643 623 652 
f 624 615 653 
f 637 628 653 
f 649 624 653 
f 628 649 653 
f 615 651 653 
f 651 637 653 
f 615 624 654 
f 627 615 654 
f 625 633 654 
f 633 627 654 
f 624 646 654 
f 646 625 654 
f 622 619 655 
f 619 630 655 
f 630 639 655 
f 639 631 655 
f 650 622 655 
o convex_20
v -0.017561 -0.007496 -0.029160
v 0.005349 0.017559 -0.009118
v 0.005349 0.017559 -0.011269
v 0.005349 -0.014653 -0.022719
v 0.005349 0.014697 -0.035606
v -0.016126 0.003953 -0.009837
v -0.011833 0.015412 -0.032739
v 0.003200 -0.013220 -0.009123
v -0.011116 -0.013938 -0.034887
v 0.005349 -0.013220 -0.035604
v -0.016126 -0.010355 -0.015564
v -0.016843 0.011831 -0.019143
v -0.016126 0.003953 -0.034887
v -0.007537 0.018277 -0.026297
v -0.012549 -0.014653 -0.022008
v -0.014697 -0.004631 -0.009123
v -0.010401 0.014693 -0.014132
v -0.004675 0.007533 -0.036320
v 0.005349 -0.013220 -0.009123
v -0.003960 0.018277 -0.033455
v -0.017561 -0.002483 -0.013418
v -0.017561 0.008248 -0.028444
v -0.003960 -0.015371 -0.033455
v -0.011833 0.012546 -0.035604
v -0.011833 -0.011791 -0.035604
v 0.001052 -0.010355 -0.036320
v -0.016843 -0.011073 -0.025581
v -0.011833 -0.013938 -0.016997
v -0.016843 -0.002483 -0.034171
v -0.016126 0.013261 -0.022008
v -0.016126 0.008969 -0.012702
v 0.004631 0.005386 -0.036320
v -0.016843 0.010399 -0.029876
v -0.017561 0.006100 -0.014848
v -0.013262 0.005386 -0.009123
v 0.005349 -0.014653 -0.033455
v 0.005349 0.015412 -0.034887
v -0.010401 -0.014653 -0.019859
v -0.017561 -0.008925 -0.021292
v 0.004631 0.017559 -0.009118
v -0.016843 -0.008925 -0.030592
v -0.006106 -0.002483 -0.036320
v -0.011833 0.014693 -0.015564
v -0.006106 0.018277 -0.033455
v -0.017561 0.003238 -0.032022
v -0.006106 0.018277 -0.023432
v -0.006821 -0.015371 -0.029160
v -0.002527 0.018277 -0.031309
f 675 701 703 
f 658 657 659 
f 658 659 660 
f 660 659 665 
f 659 657 674 
f 657 663 674 
f 671 661 676 
f 666 671 676 
f 656 676 677 
f 664 665 678 
f 660 673 679 
f 665 664 680 
f 668 679 680 
f 665 680 681 
f 664 670 682 
f 670 666 682 
f 666 670 683 
f 663 671 683 
f 671 666 683 
f 668 680 684 
f 669 662 685 
f 660 665 687 
f 673 660 687 
f 665 681 687 
f 681 673 687 
f 677 667 688 
f 679 668 688 
f 662 679 688 
f 685 662 688 
f 667 685 688 
f 676 661 689 
f 667 677 689 
f 677 676 689 
f 661 686 689 
f 686 667 689 
f 661 671 690 
f 686 661 690 
f 665 659 691 
f 659 678 691 
f 678 665 691 
f 658 660 692 
f 660 675 692 
f 659 674 693 
f 674 663 693 
f 663 683 693 
f 683 670 693 
f 676 656 694 
f 666 676 694 
f 656 682 694 
f 682 666 694 
f 663 657 695 
f 671 663 695 
f 672 686 695 
f 690 671 695 
f 686 690 695 
f 680 664 696 
f 682 656 696 
f 664 682 696 
f 656 684 696 
f 684 680 696 
f 679 673 697 
f 680 679 697 
f 673 681 697 
f 681 680 697 
f 669 685 698 
f 685 667 698 
f 686 672 698 
f 667 686 698 
f 672 695 698 
f 662 669 699 
f 675 660 699 
f 669 675 699 
f 660 679 699 
f 679 662 699 
f 656 677 700 
f 668 684 700 
f 684 656 700 
f 677 688 700 
f 688 668 700 
f 675 669 701 
f 695 657 701 
f 669 698 701 
f 698 695 701 
f 670 664 702 
f 678 659 702 
f 664 678 702 
f 659 693 702 
f 693 670 702 
f 657 658 703 
f 658 692 703 
f 692 675 703 
f 701 657 703 
o convex_21
v -0.000379 0.026868 -0.014135
v -0.006822 0.018279 -0.033455
v -0.003961 0.018279 -0.033455
v -0.003961 0.034742 -0.031309
v -0.011117 0.022575 -0.015566
v -0.010401 0.026152 -0.040614
v 0.000335 0.025437 -0.041329
v -0.002529 0.018996 -0.009121
v 0.002485 0.021142 -0.024872
v -0.006822 0.034024 -0.024154
v -0.006822 0.026868 -0.010553
v -0.002529 0.021142 -0.044910
v -0.012549 0.024721 -0.030592
v 0.001767 0.026868 -0.020576
v -0.003243 0.026868 -0.044910
v -0.008254 0.021142 -0.044192
v -0.009686 0.018996 -0.024154
v -0.003961 0.034742 -0.023440
v -0.011117 0.026868 -0.017712
v 0.001767 0.026868 -0.034173
v -0.007536 0.020427 -0.009121
v 0.001767 0.021142 -0.035605
v -0.011831 0.021142 -0.032741
v -0.001097 0.018279 -0.023440
v -0.006822 0.026868 -0.044910
v -0.006104 0.034742 -0.030592
v -0.011831 0.027583 -0.029878
v -0.003243 0.026152 -0.009839
v 0.001053 0.021142 -0.015566
v -0.007536 0.018279 -0.021290
v -0.011831 0.021142 -0.020576
v -0.003243 0.034742 -0.025586
v -0.010401 0.026152 -0.014135
v -0.001811 0.022575 -0.009121
v -0.005390 0.022575 -0.046342
v -0.011831 0.023290 -0.037033
v -0.011831 0.026868 -0.021290
v 0.002485 0.024721 -0.032023
v -0.002529 0.027583 -0.044192
v -0.011117 0.026868 -0.037751
v 0.000335 0.026868 -0.039897
v 0.001053 0.026868 -0.016998
v 0.000335 0.021142 -0.040614
f 725 727 746 
f 706 705 715 
f 715 705 719 
f 713 714 721 
f 719 705 726 
f 705 720 726 
f 705 706 727 
f 725 712 727 
f 719 709 728 
f 721 707 729 
f 713 721 729 
f 707 728 729 
f 728 709 729 
f 713 729 730 
f 704 721 731 
f 721 714 731 
f 714 724 731 
f 712 717 732 
f 711 727 732 
f 727 712 732 
f 720 705 733 
f 711 724 733 
f 724 720 733 
f 705 727 733 
f 727 711 733 
f 724 708 734 
f 720 724 734 
f 716 726 734 
f 726 720 734 
f 707 721 735 
f 723 707 735 
f 717 723 735 
f 714 713 736 
f 722 708 736 
f 713 722 736 
f 724 714 736 
f 708 724 736 
f 724 711 737 
f 704 731 737 
f 731 724 737 
f 711 732 737 
f 718 715 738 
f 715 719 738 
f 728 718 738 
f 719 728 738 
f 709 719 739 
f 726 716 739 
f 719 726 739 
f 708 722 740 
f 722 713 740 
f 730 716 740 
f 713 730 740 
f 734 708 740 
f 716 734 740 
f 717 712 741 
f 710 723 741 
f 723 717 741 
f 712 725 741 
f 725 710 741 
f 710 715 742 
f 715 718 742 
f 728 707 742 
f 718 728 742 
f 729 709 743 
f 716 730 743 
f 730 729 743 
f 709 739 743 
f 739 716 743 
f 707 723 744 
f 723 710 744 
f 710 742 744 
f 742 707 744 
f 721 704 745 
f 732 717 745 
f 717 735 745 
f 735 721 745 
f 704 737 745 
f 737 732 745 
f 706 715 746 
f 715 710 746 
f 710 725 746 
f 727 706 746 
o convex_22
v 0.006065 -0.023247 -0.037032
v 0.020383 -0.021101 -0.025584
v 0.020383 -0.022532 -0.025584
v 0.009644 -0.018235 -0.009834
v 0.011793 -0.032553 -0.024155
v 0.014654 -0.018951 -0.045627
v 0.014654 -0.025394 -0.044198
v 0.016087 -0.018235 -0.009834
v 0.005349 -0.018951 -0.024869
v 0.006065 -0.024679 -0.020577
v 0.013939 -0.024679 -0.010556
v 0.014654 -0.032553 -0.025584
v 0.018950 -0.024679 -0.037750
v 0.011078 -0.031836 -0.032021
v 0.008212 -0.018951 -0.042764
v 0.018950 -0.018235 -0.031310
v 0.018234 -0.024679 -0.015563
v 0.010362 -0.024679 -0.044909
v 0.008929 -0.024679 -0.012700
v 0.006065 -0.018235 -0.031310
v 0.018950 -0.020384 -0.039898
v 0.013939 -0.032553 -0.030595
v 0.019666 -0.025394 -0.024869
v 0.018950 -0.018235 -0.017711
v 0.005349 -0.023965 -0.030595
v 0.007497 -0.024679 -0.040616
v 0.017518 -0.024679 -0.042046
v 0.006065 -0.019669 -0.018429
v 0.011078 -0.020384 -0.046345
v 0.014654 -0.021814 -0.046345
v 0.019666 -0.024679 -0.034172
v 0.006065 -0.020384 -0.037750
v 0.016802 -0.024679 -0.012700
v 0.006781 -0.023965 -0.016277
v 0.011078 -0.023247 -0.009834
v 0.006065 -0.025394 -0.024155
v 0.019666 -0.022532 -0.019147
f 770 754 783 
f 757 751 758 
f 750 754 762 
f 753 760 764 
f 751 757 765 
f 755 750 766 
f 752 761 766 
f 750 762 766 
f 762 752 766 
f 762 748 767 
f 752 762 767 
f 758 751 768 
f 760 753 768 
f 751 760 768 
f 763 758 769 
f 748 762 770 
f 762 754 770 
f 756 755 771 
f 764 760 772 
f 761 764 772 
f 771 747 772 
f 760 771 772 
f 767 759 773 
f 768 753 773 
f 759 768 773 
f 750 755 774 
f 755 756 774 
f 761 752 775 
f 764 761 775 
f 764 775 776 
f 753 764 776 
f 752 767 776 
f 773 753 776 
f 767 773 776 
f 775 752 776 
f 748 749 777 
f 767 748 777 
f 759 767 777 
f 758 768 777 
f 768 759 777 
f 749 769 777 
f 769 758 777 
f 755 766 778 
f 766 761 778 
f 771 755 778 
f 747 771 778 
f 772 747 778 
f 761 772 778 
f 754 757 779 
f 757 758 779 
f 763 754 779 
f 758 763 779 
f 756 751 780 
f 751 765 780 
f 765 750 780 
f 750 774 780 
f 774 756 780 
f 754 750 781 
f 757 754 781 
f 750 765 781 
f 765 757 781 
f 751 756 782 
f 760 751 782 
f 756 771 782 
f 771 760 782 
f 749 748 783 
f 754 763 783 
f 769 749 783 
f 763 769 783 
f 748 770 783 
o convex_23
v 0.025394 -0.021817 -0.032737
v 0.040429 -0.021817 -0.024870
v 0.039712 -0.021817 -0.019863
v 0.033269 -0.033269 -0.032737
v 0.035415 -0.019668 -0.045625
v 0.029690 -0.018235 -0.010549
v 0.029690 -0.026108 -0.013416
v 0.029690 -0.025396 -0.044913
v 0.036848 -0.018235 -0.010549
v 0.038280 -0.025396 -0.015564
v 0.038280 -0.025396 -0.040614
v 0.031123 -0.033269 -0.025585
v 0.026111 -0.018235 -0.029874
v 0.026111 -0.025396 -0.021293
v 0.028975 -0.019668 -0.044195
v 0.034701 -0.033269 -0.026300
v 0.038995 -0.018953 -0.032026
v 0.026111 -0.025396 -0.035603
v 0.034701 -0.025396 -0.011271
v 0.039712 -0.026108 -0.025585
v 0.034701 -0.025396 -0.045625
v 0.033983 -0.018235 -0.034888
v 0.039712 -0.021099 -0.037036
v 0.026111 -0.019668 -0.020578
v 0.031123 -0.033269 -0.031307
v 0.039712 -0.025396 -0.034888
v 0.034701 -0.033269 -0.031307
v 0.026828 -0.024681 -0.016993
v 0.030408 -0.023963 -0.010549
v 0.032554 -0.021099 -0.047061
v 0.026828 -0.020384 -0.039896
v 0.033269 -0.033269 -0.024156
v 0.025394 -0.024681 -0.027737
v 0.036848 -0.022531 -0.044913
v 0.027543 -0.025396 -0.040614
v 0.027543 -0.018235 -0.015564
f 807 811 819 
f 786 785 792 
f 786 792 793 
f 789 792 796 
f 795 787 799 
f 792 785 800 
f 793 792 802 
f 785 786 803 
f 786 793 803 
f 793 799 803 
f 787 791 804 
f 796 792 805 
f 788 798 805 
f 798 796 805 
f 792 800 805 
f 800 788 805 
f 800 785 806 
f 788 800 806 
f 796 784 807 
f 791 787 808 
f 787 795 808 
f 785 803 809 
f 794 806 809 
f 806 785 809 
f 799 787 810 
f 803 799 810 
f 787 804 810 
f 804 794 810 
f 794 809 810 
f 809 803 810 
f 795 790 811 
f 797 795 811 
f 807 797 811 
f 792 789 812 
f 790 802 812 
f 802 792 812 
f 789 811 812 
f 811 790 812 
f 791 798 813 
f 798 788 813 
f 804 791 813 
f 784 796 814 
f 798 791 814 
f 796 798 814 
f 801 784 814 
f 790 795 815 
f 799 793 815 
f 795 799 815 
f 802 790 815 
f 793 802 815 
f 795 797 816 
f 784 801 816 
f 807 784 816 
f 797 807 816 
f 808 795 816 
f 801 808 816 
f 794 804 817 
f 788 806 817 
f 806 794 817 
f 813 788 817 
f 804 813 817 
f 791 808 818 
f 808 801 818 
f 814 791 818 
f 801 814 818 
f 789 796 819 
f 796 807 819 
f 811 789 819 
o convex_24
v 0.056893 -0.020384 -0.017715
v 0.049737 -0.033269 -0.031307
v 0.050452 -0.033269 -0.031307
v 0.049022 -0.019668 -0.046343
v 0.046872 -0.018235 -0.010549
v 0.043292 -0.024681 -0.032026
v 0.056893 -0.023963 -0.039896
v 0.048304 -0.025396 -0.011986
v 0.056893 -0.018235 -0.031307
v 0.056177 -0.024681 -0.015564
v 0.048304 -0.025396 -0.045625
v 0.044010 -0.018953 -0.032026
v 0.044010 -0.025396 -0.020578
v 0.051881 -0.033269 -0.026300
v 0.053315 -0.018235 -0.010549
v 0.057611 -0.025396 -0.024870
v 0.044726 -0.024681 -0.040614
v 0.054031 -0.020384 -0.045625
v 0.052599 -0.024681 -0.046343
v 0.048304 -0.032553 -0.027737
v 0.052599 -0.024681 -0.011271
v 0.052599 -0.032553 -0.032026
v 0.043292 -0.020384 -0.024156
v 0.049022 -0.018235 -0.034888
v 0.057611 -0.019668 -0.034888
v 0.045441 -0.020384 -0.042762
v 0.057611 -0.024681 -0.035603
v 0.049737 -0.033269 -0.025585
v 0.043292 -0.021099 -0.034174
v 0.045441 -0.025396 -0.016279
v 0.055462 -0.025396 -0.042047
v 0.057611 -0.019668 -0.023437
v 0.052599 -0.019668 -0.046343
v 0.047588 -0.022531 -0.010549
v 0.056177 -0.019668 -0.041332
v 0.049737 -0.032553 -0.033455
f 838 841 855 
f 821 822 833 
f 828 824 834 
f 829 820 834 
f 820 829 835 
f 829 833 835 
f 830 823 838 
f 832 825 839 
f 836 821 839 
f 825 836 839 
f 833 829 840 
f 829 834 840 
f 833 822 841 
f 835 833 841 
f 824 831 842 
f 825 832 842 
f 832 824 842 
f 824 828 843 
f 831 824 843 
f 823 831 843 
f 823 830 845 
f 831 823 845 
f 830 836 845 
f 835 841 846 
f 844 835 846 
f 826 844 846 
f 821 833 847 
f 839 821 847 
f 840 827 847 
f 833 840 847 
f 836 825 848 
f 842 831 848 
f 825 842 848 
f 831 845 848 
f 845 836 848 
f 824 832 849 
f 832 839 849 
f 847 827 849 
f 839 847 849 
f 837 826 850 
f 838 837 850 
f 841 838 850 
f 826 846 850 
f 846 841 850 
f 834 820 851 
f 828 834 851 
f 820 835 851 
f 844 828 851 
f 835 844 851 
f 838 823 852 
f 837 838 852 
f 843 828 852 
f 823 843 852 
f 834 824 853 
f 827 840 853 
f 840 834 853 
f 824 849 853 
f 849 827 853 
f 826 837 854 
f 828 844 854 
f 844 826 854 
f 837 852 854 
f 852 828 854 
f 822 821 855 
f 821 836 855 
f 836 830 855 
f 830 838 855 
f 841 822 855 
o convex_25
v 0.025396 -0.008206 -0.036320
v 0.037565 0.018277 -0.010549
v 0.029691 0.018277 -0.010549
v 0.029691 -0.018235 -0.010549
v 0.041145 -0.014654 -0.036320
v 0.033983 0.018277 -0.034173
v 0.041145 -0.014654 -0.010549
v 0.041145 0.012548 -0.036320
v 0.024678 0.010396 -0.026299
v 0.025396 -0.015369 -0.034173
v 0.025396 0.012548 -0.035605
v 0.041145 0.012548 -0.010549
v 0.025396 -0.014654 -0.021289
v 0.036132 -0.018235 -0.032026
v 0.026111 0.006815 -0.037039
v 0.036848 -0.018235 -0.010549
v 0.041145 0.015411 -0.027730
v 0.031840 -0.018235 -0.034886
v 0.028260 0.018277 -0.014130
v 0.026827 -0.018235 -0.024865
v 0.030408 0.018277 -0.032742
v 0.024678 -0.008206 -0.029161
v 0.026111 -0.012506 -0.036320
v 0.041145 -0.015369 -0.035605
v 0.027544 -0.018235 -0.015562
v 0.024678 0.005389 -0.032026
v 0.025396 0.011833 -0.022723
v 0.035415 0.018277 -0.032026
v 0.027544 0.017555 -0.018427
v 0.027544 0.001090 -0.037039
v 0.026111 0.011833 -0.036320
v 0.025396 0.013263 -0.034173
v 0.041145 0.013978 -0.034886
v 0.028975 0.018277 -0.011983
f 868 880 889 
f 857 858 859 
f 858 857 861 
f 857 859 862 
f 862 860 863 
f 857 862 867 
f 862 863 867 
f 856 866 870 
f 862 859 871 
f 859 869 871 
f 857 867 872 
f 867 863 872 
f 869 859 873 
f 858 861 874 
f 868 865 875 
f 865 873 875 
f 873 859 875 
f 861 866 876 
f 874 861 876 
f 856 865 877 
f 868 864 877 
f 865 868 877 
f 865 856 878 
f 856 870 878 
f 860 873 878 
f 873 865 878 
f 860 862 879 
f 862 871 879 
f 871 869 879 
f 873 860 879 
f 869 873 879 
f 875 859 880 
f 868 875 880 
f 866 856 881 
f 864 866 881 
f 856 877 881 
f 877 864 881 
f 864 868 882 
f 868 874 882 
f 861 857 883 
f 857 872 883 
f 874 876 884 
f 864 882 884 
f 882 874 884 
f 863 860 885 
f 870 863 885 
f 878 870 885 
f 860 878 885 
f 861 863 886 
f 866 861 886 
f 863 870 886 
f 870 866 886 
f 866 864 887 
f 876 866 887 
f 864 884 887 
f 884 876 887 
f 863 861 888 
f 872 863 888 
f 861 883 888 
f 883 872 888 
f 859 858 889 
f 858 874 889 
f 874 868 889 
f 880 859 889 
o convex_26
v 0.063336 -0.006062 -0.032026
v 0.041862 0.012548 -0.010549
v 0.052599 0.018277 -0.019145
v 0.041145 0.012548 -0.036320
v 0.046157 -0.018235 -0.010549
v 0.041145 -0.015369 -0.035605
v 0.061903 0.004671 -0.011983
v 0.057609 0.013263 -0.036320
v 0.056894 -0.018235 -0.026299
v 0.057609 -0.013221 -0.037039
v 0.061903 -0.009639 -0.014846
v 0.041145 -0.014654 -0.010549
v 0.062621 0.011115 -0.025583
v 0.053312 -0.018235 -0.010549
v 0.048307 0.018277 -0.033455
v 0.049022 -0.018235 -0.034886
v 0.041145 0.015411 -0.026299
v 0.061903 0.002523 -0.036320
v 0.064054 0.001808 -0.019142
v 0.060473 0.003956 -0.010549
v 0.062621 -0.011791 -0.022723
v 0.043295 -0.007495 -0.037039
v 0.053312 0.018277 -0.031308
v 0.061903 0.009682 -0.015562
v 0.057609 0.010396 -0.037039
v 0.041145 0.012548 -0.010549
v 0.063336 0.004671 -0.032026
v 0.049022 0.018277 -0.019858
v 0.061903 -0.005347 -0.011983
v 0.061903 -0.012506 -0.028443
v 0.056176 -0.018235 -0.031308
v 0.064054 -0.006062 -0.022723
v 0.041145 -0.016087 -0.030595
v 0.051169 0.018277 -0.034886
v 0.061903 0.011833 -0.020574
v 0.061903 0.008963 -0.033455
v 0.064054 0.003956 -0.027730
v 0.041862 -0.014654 -0.036320
v 0.062621 -0.004629 -0.034886
v 0.058324 -0.010354 -0.010549
v 0.046874 -0.018235 -0.031308
v 0.055461 0.013978 -0.016280
v 0.063336 -0.001762 -0.014846
v 0.061903 -0.012506 -0.020574
v 0.063336 0.007537 -0.019142
v 0.041145 0.013978 -0.034886
v 0.061903 0.011833 -0.027730
v 0.046874 0.018277 -0.029161
v 0.062621 -0.009639 -0.031308
v 0.064054 -0.002484 -0.029877
f 928 916 939 
f 894 891 901 
f 893 895 901 
f 891 894 903 
f 894 898 903 
f 898 894 905 
f 893 901 906 
f 891 903 909 
f 904 892 912 
f 909 896 913 
f 893 897 914 
f 897 907 914 
f 907 899 914 
f 911 893 914 
f 899 911 914 
f 891 892 915 
f 901 891 915 
f 906 901 915 
f 892 904 917 
f 915 892 917 
f 906 915 917 
f 896 909 918 
f 910 898 919 
f 898 905 920 
f 905 899 920 
f 899 919 920 
f 919 898 920 
f 900 910 921 
f 894 901 922 
f 901 895 922 
f 897 893 923 
f 912 897 923 
f 904 912 923 
f 912 892 924 
f 892 913 924 
f 907 897 925 
f 902 916 925 
f 916 907 925 
f 916 902 926 
f 908 921 926 
f 895 893 927 
f 905 895 927 
f 899 905 927 
f 893 911 927 
f 911 899 927 
f 899 907 928 
f 907 916 928 
f 903 900 929 
f 909 903 929 
f 900 918 929 
f 918 909 929 
f 905 894 930 
f 895 905 930 
f 894 922 930 
f 922 895 930 
f 892 891 931 
f 891 909 931 
f 913 892 931 
f 909 913 931 
f 908 896 932 
f 918 900 932 
f 896 918 932 
f 900 921 932 
f 921 908 932 
f 903 898 933 
f 900 903 933 
f 898 910 933 
f 910 900 933 
f 896 908 934 
f 913 896 934 
f 902 924 934 
f 924 913 934 
f 926 902 934 
f 908 926 934 
f 893 906 935 
f 923 893 935 
f 904 923 935 
f 897 912 936 
f 912 924 936 
f 924 902 936 
f 925 897 936 
f 902 925 936 
f 917 904 937 
f 906 917 937 
f 935 906 937 
f 904 935 937 
f 919 899 938 
f 910 919 938 
f 890 921 938 
f 921 910 938 
f 928 890 938 
f 899 928 938 
f 921 890 939 
f 916 926 939 
f 926 921 939 
f 890 928 939 
o convex_27
v 0.044007 0.011113 0.033832
v 0.045438 -0.020383 0.016659
v 0.046872 -0.020383 0.016659
v 0.020383 0.016124 0.000905
v 0.020383 -0.010358 0.035978
v 0.020383 -0.015369 0.000905
v 0.046872 0.010398 0.000905
v 0.020383 0.017558 0.026674
v 0.046872 -0.004629 0.038848
v 0.046872 0.016843 0.022378
v 0.024679 0.001808 0.042429
v 0.046154 -0.013938 0.000905
v 0.020383 -0.017514 0.028105
v 0.046872 -0.017514 0.030251
v 0.042576 0.014693 0.000905
v 0.020383 -0.018948 0.017375
v 0.025395 -0.004629 0.041705
v 0.020383 0.011832 0.034552
v 0.029691 0.018277 0.016659
v 0.046872 0.003954 0.037413
v 0.044722 -0.020383 0.023813
v 0.043291 -0.016084 0.000905
v 0.041860 0.014693 0.030251
v 0.046872 -0.013219 0.034552
v 0.020383 -0.015369 0.031686
v 0.046872 0.016843 0.017375
v 0.020383 0.018277 0.015229
v 0.020383 0.004669 0.038132
v 0.042576 0.017558 0.023094
v 0.046872 -0.013938 0.001625
v 0.046872 0.013263 0.030971
v 0.023966 -0.003195 0.042429
v 0.029691 -0.016084 0.000905
v 0.026113 0.003238 0.041705
v 0.043291 0.017558 0.017375
v 0.025395 0.016124 0.000905
v 0.023251 0.014693 0.031686
v 0.025395 0.018277 0.023813
v 0.020383 -0.018948 0.021667
v 0.034698 -0.013934 0.033836
v 0.043291 0.016124 0.027390
v 0.046872 0.009683 0.034552
v 0.026113 0.001808 0.042429
v 0.046872 -0.001764 0.038848
v 0.038276 0.012544 0.033117
v 0.020383 -0.005344 0.038132
v 0.046872 0.016124 0.013079
v 0.046872 -0.019664 0.025959
v 0.026113 -0.003195 0.042429
v 0.046872 -0.011073 0.035978
f 988 956 989 
f 944 943 945 
f 945 943 946 
f 943 944 947 
f 942 946 948 
f 948 946 949 
f 945 946 951 
f 944 945 952 
f 942 948 953 
f 946 943 954 
f 952 945 955 
f 947 944 957 
f 948 949 959 
f 941 942 960 
f 955 941 960 
f 942 941 961 
f 945 951 961 
f 953 948 963 
f 944 952 964 
f 952 953 964 
f 956 944 964 
f 949 946 965 
f 943 947 966 
f 957 944 967 
f 950 957 967 
f 946 942 969 
f 951 946 969 
f 942 961 969 
f 961 951 969 
f 959 949 970 
f 962 940 970 
f 944 956 971 
f 950 967 971 
f 941 955 972 
f 955 945 972 
f 961 941 972 
f 945 961 972 
f 957 950 973 
f 949 965 974 
f 958 968 974 
f 968 949 974 
f 954 943 975 
f 943 966 975 
f 966 958 975 
f 974 954 975 
f 958 974 975 
f 947 957 976 
f 962 947 976 
f 966 947 977 
f 958 966 977 
f 968 958 977 
f 952 955 978 
f 960 952 978 
f 955 960 978 
f 953 963 979 
f 963 956 979 
f 956 964 979 
f 964 953 979 
f 947 962 980 
f 949 968 980 
f 970 949 980 
f 962 970 980 
f 977 947 980 
f 968 977 980 
f 959 970 981 
f 970 940 981 
f 940 973 981 
f 981 973 982 
f 950 971 982 
f 973 950 982 
f 959 981 982 
f 948 959 983 
f 982 948 983 
f 959 982 983 
f 940 962 984 
f 973 940 984 
f 957 973 984 
f 976 957 984 
f 962 976 984 
f 967 944 985 
f 944 971 985 
f 971 967 985 
f 946 954 986 
f 965 946 986 
f 954 974 986 
f 974 965 986 
f 942 953 987 
f 953 952 987 
f 960 942 987 
f 952 960 987 
f 971 956 988 
f 948 982 988 
f 982 971 988 
f 963 948 989 
f 956 963 989 
f 948 988 989 
o convex_28
v 0.051169 0.012546 0.031684
v 0.048305 -0.023962 0.000905
v 0.049736 -0.023962 0.000905
v 0.050453 0.018277 0.000905
v 0.059043 -0.003194 0.013794
v 0.046872 -0.004629 0.043854
v 0.056895 -0.016086 0.030252
v 0.056895 0.011831 0.030252
v 0.046872 0.016842 0.017376
v 0.046872 -0.020382 0.023814
v 0.056895 0.001809 0.001623
v 0.046872 0.011116 0.000905
v 0.051169 0.000378 0.044576
v 0.056895 -0.016801 0.011652
v 0.056895 0.014696 0.016658
v 0.056895 -0.005348 0.035984
v 0.046872 0.015412 0.027392
v 0.056179 -0.020382 0.023814
v 0.049736 -0.008209 0.043144
v 0.056179 -0.008209 0.000905
v 0.054745 0.016127 0.023814
v 0.046872 -0.013936 0.000905
v 0.047589 0.002524 0.043854
v 0.056895 0.009685 0.007352
v 0.046872 -0.017516 0.030252
v 0.056895 0.006105 0.034548
v 0.055461 -0.018228 0.029538
v 0.058325 0.007535 0.019522
v 0.048305 0.018277 0.000905
v 0.056895 -0.018947 0.016658
v 0.051169 -0.006063 0.043854
v 0.059043 -0.003194 0.016658
v 0.056895 -0.011075 0.004487
v 0.057609 0.004674 0.031684
v 0.051169 0.016842 0.023091
v 0.056179 0.010401 0.033116
v 0.056179 -0.013936 0.033830
v 0.047589 -0.023243 0.000905
v 0.057609 -0.000337 0.003055
v 0.054745 0.008970 0.000905
v 0.057609 -0.016086 0.019522
v 0.057609 -0.007494 0.030970
v 0.057609 0.011116 0.013794
v 0.055461 0.015412 0.025960
v 0.050453 0.003239 0.043144
v 0.049736 0.018277 0.008784
v 0.048305 -0.023962 0.003055
v 0.046872 0.013262 0.030970
v 0.056179 0.013262 0.009498
v 0.046872 0.016842 0.022390
v 0.056179 0.001094 0.037416
v 0.048305 -0.007494 0.043854
v 0.056179 -0.017516 0.009498
v 0.054745 -0.013221 0.000905
f 1042 992 1043 
f 992 991 993 
f 995 998 999 
f 993 991 1001 
f 999 998 1001 
f 998 995 1006 
f 992 993 1009 
f 1004 993 1010 
f 1001 991 1011 
f 999 1001 1011 
f 995 1002 1012 
f 995 999 1014 
f 999 1007 1016 
f 1007 996 1016 
f 1014 999 1016 
f 1008 1014 1016 
f 1004 997 1017 
f 993 1001 1018 
f 1001 998 1018 
f 1007 992 1019 
f 1005 1002 1020 
f 994 1017 1021 
f 994 1003 1022 
f 997 1015 1023 
f 1015 1005 1023 
f 1017 997 1023 
f 1021 1017 1023 
f 1015 997 1025 
f 1002 1015 1025 
f 996 1005 1026 
f 1016 996 1026 
f 1008 1016 1026 
f 1005 1020 1026 
f 1020 1008 1026 
f 1011 991 1027 
f 999 1011 1027 
f 1009 1000 1028 
f 1000 1013 1028 
f 994 1022 1028 
f 1022 1009 1028 
f 1009 993 1029 
f 1000 1009 1029 
f 1013 1000 1029 
f 1003 994 1030 
f 996 1007 1030 
f 1019 1003 1030 
f 1007 1019 1030 
f 1021 996 1030 
f 994 1021 1030 
f 1005 996 1031 
f 996 1021 1031 
f 1023 1005 1031 
f 1021 1023 1031 
f 1004 1017 1032 
f 1017 994 1032 
f 1028 1013 1032 
f 994 1028 1032 
f 997 1004 1033 
f 1006 990 1033 
f 1004 1010 1033 
f 1024 1006 1033 
f 1010 1024 1033 
f 990 1025 1033 
f 1025 997 1033 
f 1012 1002 1034 
f 1025 990 1034 
f 1002 1025 1034 
f 1010 993 1035 
f 993 1018 1035 
f 1024 1010 1035 
f 991 992 1036 
f 992 1007 1036 
f 1007 999 1036 
f 1027 991 1036 
f 999 1027 1036 
f 990 1006 1037 
f 1006 995 1037 
f 995 1012 1037 
f 1034 990 1037 
f 1012 1034 1037 
f 993 1004 1038 
f 1029 993 1038 
f 1013 1029 1038 
f 1004 1032 1038 
f 1032 1013 1038 
f 998 1006 1039 
f 1018 998 1039 
f 1006 1024 1039 
f 1035 1018 1039 
f 1024 1035 1039 
f 1002 1005 1040 
f 1015 1002 1040 
f 1005 1015 1040 
f 1002 995 1041 
f 995 1014 1041 
f 1014 1008 1041 
f 1020 1002 1041 
f 1008 1020 1041 
f 1019 992 1042 
f 1003 1019 1042 
f 1022 1003 1042 
f 1022 1042 1043 
f 992 1009 1043 
f 1009 1022 1043 
o convex_29
v -0.054788 -0.024677 -0.037748
v -0.041902 -0.021100 -0.019860
v -0.041902 -0.021816 -0.019860
v -0.052641 -0.019668 -0.008402
v -0.050491 -0.018952 -0.044195
v -0.045482 -0.027541 -0.019145
v -0.044052 -0.024677 -0.039899
v -0.054788 -0.026109 -0.017716
v -0.056221 -0.018952 -0.031307
v -0.044767 -0.018952 -0.008402
v -0.042620 -0.019668 -0.036318
v -0.047632 -0.026109 -0.009838
v -0.049061 -0.026825 -0.039185
v -0.043335 -0.026109 -0.016279
v -0.042620 -0.026109 -0.027726
v -0.056221 -0.022531 -0.018430
v -0.051923 -0.027541 -0.028441
v -0.050491 -0.024677 -0.044195
v -0.046199 -0.018952 -0.043477
v -0.051209 -0.027541 -0.014846
v -0.052641 -0.025393 -0.010550
v -0.056221 -0.025393 -0.024874
v -0.054071 -0.020384 -0.041333
v -0.055503 -0.018952 -0.021290
v -0.042620 -0.018952 -0.029163
v -0.041902 -0.023961 -0.031307
v -0.044767 -0.026825 -0.034170
v -0.056221 -0.022531 -0.034170
v -0.050491 -0.023961 -0.008402
v -0.046914 -0.023247 -0.044195
v -0.051923 -0.018952 -0.008402
v -0.047632 -0.027541 -0.031307
v -0.053356 -0.026109 -0.036318
v -0.045482 -0.025393 -0.010550
f 1055 1057 1077 
f 1046 1045 1053 
f 1048 1052 1053 
f 1046 1053 1057 
f 1055 1049 1057 
f 1046 1057 1058 
f 1057 1049 1058 
f 1050 1056 1061 
f 1048 1053 1062 
f 1054 1050 1062 
f 1049 1055 1063 
f 1051 1060 1063 
f 1060 1049 1063 
f 1059 1051 1064 
f 1047 1059 1064 
f 1051 1063 1064 
f 1063 1055 1064 
f 1051 1059 1065 
f 1059 1052 1065 
f 1060 1051 1065 
f 1052 1048 1066 
f 1061 1044 1066 
f 1048 1061 1066 
f 1053 1052 1067 
f 1059 1047 1067 
f 1052 1059 1067 
f 1053 1045 1068 
f 1045 1054 1068 
f 1062 1053 1068 
f 1054 1062 1068 
f 1045 1046 1069 
f 1054 1045 1069 
f 1050 1054 1069 
f 1046 1058 1069 
f 1058 1050 1069 
f 1056 1050 1070 
f 1050 1058 1070 
f 1058 1049 1070 
f 1044 1065 1071 
f 1065 1052 1071 
f 1066 1044 1071 
f 1052 1066 1071 
f 1053 1047 1072 
f 1055 1053 1072 
f 1047 1064 1072 
f 1064 1055 1072 
f 1061 1048 1073 
f 1050 1061 1073 
f 1048 1062 1073 
f 1062 1050 1073 
f 1047 1053 1074 
f 1067 1047 1074 
f 1053 1067 1074 
f 1049 1060 1075 
f 1060 1056 1075 
f 1056 1070 1075 
f 1070 1049 1075 
f 1056 1060 1076 
f 1044 1061 1076 
f 1061 1056 1076 
f 1065 1044 1076 
f 1060 1065 1076 
f 1053 1055 1077 
f 1057 1053 1077 
o convex_30
v 0.020383 -0.023962 -0.001243
v 0.008929 -0.018951 -0.009834
v 0.008929 -0.018235 -0.009834
v 0.005349 -0.018235 0.001621
v 0.020383 -0.018235 0.000905
v 0.005349 -0.023246 -0.007685
v 0.020383 -0.021814 -0.009116
v 0.005349 -0.023246 0.000189
v 0.020383 -0.018235 -0.009116
v 0.020383 -0.023246 0.000905
v 0.005349 -0.018235 -0.008402
v 0.013939 -0.022530 -0.009834
v 0.020383 -0.023246 -0.008402
f 1089 1084 1090 
f 1080 1081 1082 
f 1082 1078 1084 
f 1083 1078 1085 
f 1081 1083 1085 
f 1080 1082 1086 
f 1082 1084 1086 
f 1078 1082 1087 
f 1082 1081 1087 
f 1085 1078 1087 
f 1081 1085 1087 
f 1080 1079 1088 
f 1081 1080 1088 
f 1079 1083 1088 
f 1083 1081 1088 
f 1079 1080 1089 
f 1083 1079 1089 
f 1080 1086 1089 
f 1086 1084 1089 
f 1078 1083 1090 
f 1084 1078 1090 
f 1083 1089 1090 
o convex_31
v -0.050493 -0.018234 -0.009119
v -0.041902 -0.014655 -0.011265
v -0.041902 -0.015372 -0.011265
v -0.046912 -0.014655 -0.019856
v -0.041902 -0.016803 -0.016276
v -0.049777 -0.015372 -0.008402
v -0.044766 -0.018950 -0.008402
v -0.041902 -0.014655 -0.019856
v -0.049777 -0.018950 -0.009119
v -0.046912 -0.015372 -0.019856
v -0.044050 -0.015372 -0.008402
f 1096 1097 1101 
f 1092 1093 1095 
f 1092 1094 1096 
f 1094 1091 1096 
f 1095 1093 1097 
f 1094 1092 1098 
f 1092 1095 1098 
f 1096 1091 1099 
f 1095 1097 1099 
f 1097 1096 1099 
f 1091 1094 1100 
f 1094 1098 1100 
f 1098 1095 1100 
f 1099 1091 1100 
f 1095 1099 1100 
f 1093 1092 1101 
f 1092 1096 1101 
f 1097 1093 1101 
o convex_32
v -0.055505 -0.018950 -0.027732
v -0.047629 -0.016803 -0.029879
v -0.047629 -0.018950 -0.029879
v -0.049779 -0.018234 -0.022004
v -0.051924 -0.015371 -0.026301
v -0.049779 -0.016088 -0.032742
v -0.054788 -0.018950 -0.022722
v -0.048346 -0.018950 -0.033459
v -0.054788 -0.017519 -0.029879
f 1109 1102 1110 
f 1104 1103 1105 
f 1105 1103 1106 
f 1106 1103 1107 
f 1102 1104 1108 
f 1104 1105 1108 
f 1105 1106 1108 
f 1104 1102 1109 
f 1103 1104 1109 
f 1107 1103 1109 
f 1107 1109 1110 
f 1106 1107 1110 
f 1102 1108 1110 
f 1108 1106 1110 
