o convex_0
v 0.010651 0.030437 -0.027792
v 0.004788 0.013498 -0.052548
v 0.009347 0.013498 -0.052548
v 0.005441 0.025875 -0.055155
v 0.000227 0.021970 -0.027792
v 0.009999 0.016756 -0.027792
v 0.013257 0.019364 -0.053199
v 0.000227 0.022617 -0.053853
v 0.003486 0.030437 -0.028445
v 0.014561 0.021970 -0.027792
v 0.011953 0.023270 -0.055155
v 0.013908 0.027177 -0.029096
v 0.003486 0.018059 -0.028445
v 0.001530 0.016105 -0.050592
v 0.000227 0.025875 -0.027792
v 0.011953 0.015454 -0.049293
v 0.007394 0.023270 -0.056460
v 0.009347 0.025223 -0.055806
v 0.008044 0.031089 -0.029096
v 0.000227 0.020668 -0.054504
v 0.002835 0.025223 -0.055155
v 0.006092 0.013498 -0.047337
v 0.012605 0.018059 -0.029096
v 0.012605 0.016756 -0.053853
v 0.012605 0.029133 -0.029096
v 0.001530 0.028482 -0.029096
v 0.009347 0.013498 -0.049293
v 0.003486 0.014150 -0.049941
v 0.014561 0.025223 -0.029096
v 0.005441 0.017410 -0.027792
v 0.005441 0.031089 -0.027792
v 0.000227 0.019364 -0.053199
v 0.006092 0.014150 -0.053199
v 0.013908 0.020014 -0.027792
v 0.001530 0.020014 -0.027792
f 13 30 35 
f 1 5 6 
f 1 6 10 
f 1 10 12 
f 5 1 15 
f 8 5 15 
f 11 17 18 
f 17 4 18 
f 18 4 19 
f 1 18 19 
f 5 8 20 
f 17 20 21 
f 4 17 21 
f 20 8 21 
f 2 3 22 
f 7 10 24 
f 11 7 24 
f 16 3 24 
f 17 11 24 
f 1 12 25 
f 12 11 25 
f 11 18 25 
f 18 1 25 
f 8 15 26 
f 15 9 26 
f 21 8 26 
f 9 21 26 
f 3 16 27 
f 22 3 27 
f 6 22 27 
f 23 6 27 
f 16 23 27 
f 14 2 28 
f 2 22 28 
f 22 13 28 
f 10 7 29 
f 7 11 29 
f 11 12 29 
f 12 10 29 
f 6 5 30 
f 22 6 30 
f 13 22 30 
f 15 1 31 
f 9 15 31 
f 19 4 31 
f 1 19 31 
f 21 9 31 
f 4 21 31 
f 2 14 32 
f 14 5 32 
f 5 20 32 
f 20 2 32 
f 3 2 33 
f 2 20 33 
f 20 17 33 
f 24 3 33 
f 17 24 33 
f 10 6 34 
f 6 23 34 
f 23 16 34 
f 24 10 34 
f 16 24 34 
f 5 14 35 
f 14 28 35 
f 28 13 35 
f 30 5 35 
o convex_1
v -0.006288 -0.012564 -0.031701
v -0.008242 -0.029504 -0.055154
v -0.006939 -0.029504 -0.055154
v -0.006939 -0.026246 -0.031701
v 0.000877 -0.018429 -0.031701
v -0.002381 -0.017777 -0.055154
v -0.012803 -0.020386 -0.054503
v -0.012803 -0.021683 -0.031701
v -0.000426 -0.026246 -0.053852
v -0.008894 -0.016476 -0.055808
v -0.012150 -0.015171 -0.031701
v -0.001729 -0.024941 -0.032355
v -0.010848 -0.028851 -0.053198
v -0.003684 -0.029504 -0.051898
v 0.000877 -0.016476 -0.032355
v 0.000225 -0.022334 -0.053852
v -0.012803 -0.025593 -0.054503
v -0.004987 -0.013217 -0.036262
v -0.008894 -0.012564 -0.032355
v -0.009545 -0.025593 -0.031701
v -0.010197 -0.029504 -0.053198
v -0.000426 -0.022988 -0.031701
v -0.006288 -0.016476 -0.055808
v -0.012150 -0.019734 -0.055808
v -0.011500 -0.014521 -0.034311
v -0.012803 -0.016476 -0.031701
v -0.000426 -0.019734 -0.053852
v -0.001729 -0.028199 -0.051898
v -0.004987 -0.026246 -0.031701
v -0.006288 -0.022988 -0.055808
v -0.001729 -0.014521 -0.033006
v -0.009545 -0.016476 -0.055154
v -0.010848 -0.026246 -0.055808
f 59 65 68 
f 36 39 40 
f 39 36 43 
f 43 36 46 
f 37 38 49 
f 38 44 49 
f 36 40 50 
f 40 44 51 
f 44 41 51 
f 50 40 51 
f 43 42 52 
f 48 43 52 
f 46 36 54 
f 36 53 54 
f 39 43 55 
f 43 48 55 
f 55 48 56 
f 37 49 56 
f 49 39 56 
f 48 52 56 
f 39 55 56 
f 40 39 57 
f 44 40 57 
f 53 41 58 
f 45 54 58 
f 54 53 58 
f 52 42 59 
f 45 58 59 
f 42 46 60 
f 46 54 60 
f 59 42 60 
f 42 43 61 
f 46 42 61 
f 43 46 61 
f 41 50 62 
f 51 41 62 
f 50 51 62 
f 49 44 63 
f 47 49 63 
f 44 57 63 
f 57 47 63 
f 39 49 64 
f 49 47 64 
f 57 39 64 
f 47 57 64 
f 44 38 65 
f 41 44 65 
f 58 41 65 
f 59 58 65 
f 36 50 66 
f 50 41 66 
f 41 53 66 
f 53 36 66 
f 54 45 67 
f 45 59 67 
f 60 54 67 
f 59 60 67 
f 38 37 68 
f 37 56 68 
f 56 52 68 
f 52 59 68 
f 65 38 68 
o convex_2
v -0.000426 -0.014522 -0.029095
v -0.013453 -0.019734 -0.028443
v -0.013453 -0.019734 -0.027792
v 0.000225 -0.037972 -0.027792
v -0.003032 -0.036016 -0.031701
v -0.011499 -0.013868 -0.031701
v 0.000876 -0.016478 -0.031701
v -0.004986 -0.011913 -0.027792
v -0.005637 -0.037321 -0.027792
v -0.012801 -0.021687 -0.031701
v 0.000876 -0.015827 -0.027792
v 0.001529 -0.034711 -0.031049
v -0.010848 -0.012566 -0.027792
v -0.005637 -0.012566 -0.031701
v 0.001529 -0.036670 -0.027792
v -0.004335 -0.037321 -0.030398
v -0.013453 -0.016478 -0.028443
v 0.001529 -0.024945 -0.027792
f 83 80 86 
f 73 74 75 
f 71 72 76 
f 72 71 77 
f 71 70 78 
f 74 73 78 
f 77 71 78 
f 75 69 79 
f 76 72 79 
f 69 76 79 
f 72 73 80 
f 73 75 80 
f 71 76 81 
f 81 76 82 
f 75 74 82 
f 69 75 82 
f 76 69 82 
f 74 81 82 
f 79 72 83 
f 72 80 83 
f 73 72 84 
f 72 77 84 
f 78 73 84 
f 77 78 84 
f 70 71 85 
f 78 70 85 
f 74 78 85 
f 71 81 85 
f 81 74 85 
f 75 79 86 
f 80 75 86 
f 79 83 86 
o convex_3
v 0.001530 -0.034063 -0.031049
v 0.018470 -0.019731 -0.027792
v 0.018470 -0.021686 -0.027792
v 0.001530 -0.036020 -0.027792
v 0.001530 -0.024945 -0.027792
v 0.010650 -0.019731 -0.029746
v 0.017819 -0.023641 -0.028444
v 0.001530 -0.030155 -0.031049
v 0.017165 -0.019731 -0.029095
v 0.009350 -0.019731 -0.027792
v 0.002833 -0.035368 -0.029746
v 0.003487 -0.032761 -0.031049
f 97 87 98 
f 89 88 90 
f 87 90 91 
f 90 88 91 
f 88 89 93 
f 89 90 93 
f 87 91 94 
f 91 92 94 
f 92 88 95 
f 88 93 95 
f 91 88 96 
f 88 92 96 
f 92 91 96 
f 90 87 97 
f 93 90 97 
f 93 97 98 
f 87 94 98 
f 94 92 98 
f 92 95 98 
f 95 93 98 
o convex_4
v 0.006742 -0.002792 -0.051245
v 0.010652 -0.019731 -0.032355
v 0.011302 -0.019731 -0.032355
v 0.011302 -0.006050 -0.028444
v 0.015863 -0.007352 -0.055808
v 0.002833 -0.011259 -0.053850
v 0.004137 -0.013215 -0.027792
v 0.018470 -0.019731 -0.027792
v 0.011953 -0.015170 -0.055155
v 0.016514 -0.008004 -0.027792
v 0.011953 -0.002139 -0.053200
v 0.006092 -0.018428 -0.027792
v 0.004137 -0.004096 -0.052547
v 0.008047 -0.006701 -0.027792
v 0.007394 -0.015170 -0.053850
v 0.014559 -0.013215 -0.055808
v 0.018470 -0.013215 -0.028444
v 0.003485 -0.005397 -0.053850
v 0.005440 -0.009310 -0.027792
v 0.005440 -0.017124 -0.037566
v 0.015211 -0.005397 -0.055155
v 0.004788 -0.017124 -0.027792
v 0.015863 -0.010612 -0.055808
v 0.008047 -0.019731 -0.029097
v 0.006742 -0.009310 -0.055155
v 0.002833 -0.007352 -0.052547
v 0.014559 -0.006701 -0.027792
v 0.013257 -0.006050 -0.055808
v 0.017818 -0.010612 -0.027792
v 0.018470 -0.019731 -0.028444
v 0.009351 -0.015170 -0.055155
v 0.004137 -0.004096 -0.051245
f 124 117 130 
f 100 101 106 
f 101 100 107 
f 105 106 108 
f 99 102 109 
f 106 105 110 
f 99 109 111 
f 102 99 112 
f 105 108 112 
f 111 109 116 
f 105 112 117 
f 104 113 118 
f 109 108 119 
f 105 104 120 
f 110 105 120 
f 118 110 120 
f 104 118 120 
f 114 103 121 
f 103 115 121 
f 100 106 122 
f 106 110 122 
f 113 100 122 
f 110 118 122 
f 118 113 122 
f 104 116 123 
f 104 105 124 
f 116 104 124 
f 105 117 124 
f 109 102 125 
f 108 109 125 
f 102 112 125 
f 112 108 125 
f 103 114 126 
f 116 109 126 
f 109 119 126 
f 119 103 126 
f 114 123 126 
f 123 116 126 
f 108 106 127 
f 115 103 127 
f 106 115 127 
f 119 108 127 
f 103 119 127 
f 106 101 128 
f 101 107 128 
f 107 114 128 
f 115 106 128 
f 114 121 128 
f 121 115 128 
f 107 100 129 
f 100 113 129 
f 113 104 129 
f 114 107 129 
f 104 123 129 
f 123 114 129 
f 99 111 130 
f 112 99 130 
f 111 116 130 
f 117 112 130 
f 116 124 130 
o convex_5
v -0.016059 0.012846 -0.055807
v -0.011503 0.027180 -0.055155
v -0.010199 0.026528 -0.053204
v -0.018667 0.022619 -0.047989
v -0.007593 0.016105 -0.047989
v -0.009546 0.016105 -0.059717
v -0.020620 0.023270 -0.058413
v -0.007593 0.025224 -0.057762
v -0.017363 0.015454 -0.047989
v -0.009546 0.024572 -0.047989
v -0.020620 0.016756 -0.057762
v -0.015408 0.027180 -0.058413
v -0.010850 0.013499 -0.047989
v -0.015408 0.027180 -0.053204
v -0.006288 0.021314 -0.053204
v -0.017363 0.015454 -0.059717
v -0.008895 0.014150 -0.055807
v -0.011503 0.023921 -0.059717
v -0.020620 0.024572 -0.055155
v -0.021274 0.018712 -0.055155
v -0.006941 0.017408 -0.055807
v -0.011503 0.012846 -0.056458
v -0.015408 0.025224 -0.047989
v -0.006941 0.019363 -0.047989
v -0.016712 0.013499 -0.058413
v -0.018667 0.017408 -0.047989
v -0.019317 0.023270 -0.059065
f 148 146 157 
f 132 133 138 
f 135 134 139 
f 134 135 140 
f 138 133 140 
f 131 139 141 
f 132 138 142 
f 139 131 143 
f 135 139 143 
f 133 132 144 
f 140 133 144 
f 132 142 144 
f 138 140 145 
f 141 137 146 
f 135 143 147 
f 138 136 148 
f 142 138 148 
f 136 146 148 
f 142 137 149 
f 144 142 149 
f 137 141 150 
f 149 137 150 
f 134 149 150 
f 136 138 151 
f 145 135 151 
f 138 145 151 
f 147 136 151 
f 135 147 151 
f 143 131 152 
f 136 147 152 
f 147 143 152 
f 134 140 153 
f 140 144 153 
f 149 134 153 
f 144 149 153 
f 140 135 154 
f 135 145 154 
f 145 140 154 
f 131 141 155 
f 146 136 155 
f 141 146 155 
f 152 131 155 
f 136 152 155 
f 139 134 156 
f 141 139 156 
f 134 150 156 
f 150 141 156 
f 137 142 157 
f 146 137 157 
f 142 148 157 
o convex_6
v -0.018668 0.018060 -0.027792
v -0.003682 0.020011 -0.027792
v -0.003682 0.016757 -0.027792
v -0.010849 0.013498 -0.047989
v -0.015410 0.025225 -0.047989
v -0.014757 0.025225 -0.027792
v -0.008897 0.023922 -0.047989
v -0.013453 0.011543 -0.027792
v -0.018014 0.016757 -0.047989
v -0.006940 0.018060 -0.047989
v -0.007593 0.024572 -0.027792
v -0.018668 0.022618 -0.047989
v -0.007593 0.012195 -0.029096
v -0.016061 0.012846 -0.031704
v -0.018014 0.022618 -0.027792
v -0.016061 0.014151 -0.047337
v -0.008244 0.014803 -0.047337
v -0.011501 0.025225 -0.047989
v -0.018014 0.015454 -0.029096
v -0.008897 0.011543 -0.027792
v -0.018668 0.018060 -0.047989
v -0.009548 0.025225 -0.027792
v -0.004335 0.021315 -0.029096
v -0.006940 0.019361 -0.047989
v -0.012152 0.012195 -0.037568
v -0.016711 0.024572 -0.046685
v -0.004335 0.015454 -0.028444
f 177 170 184 
f 160 159 158 
f 158 159 163 
f 161 162 164 
f 160 158 165 
f 162 161 166 
f 159 160 167 
f 161 164 167 
f 163 159 168 
f 162 166 169 
f 158 163 172 
f 169 158 172 
f 166 161 173 
f 165 171 173 
f 171 166 173 
f 161 167 174 
f 170 161 174 
f 162 163 175 
f 164 162 175 
f 168 164 175 
f 165 158 176 
f 171 165 176 
f 166 171 176 
f 160 165 177 
f 161 170 177 
f 158 169 178 
f 169 166 178 
f 176 158 178 
f 166 176 178 
f 163 168 179 
f 175 163 179 
f 168 175 179 
f 168 159 180 
f 164 168 180 
f 159 167 181 
f 167 164 181 
f 180 159 181 
f 164 180 181 
f 173 161 182 
f 165 173 182 
f 177 165 182 
f 161 177 182 
f 163 162 183 
f 162 169 183 
f 172 163 183 
f 169 172 183 
f 167 160 184 
f 174 167 184 
f 170 174 184 
f 160 177 184 
o convex_7
v 0.033452 -0.023642 0.006086
v -0.006940 -0.048397 -0.010193
v -0.006940 -0.048397 -0.008899
v -0.006940 -0.005397 -0.022579
v -0.006940 -0.005397 0.009346
v 0.030194 -0.005401 -0.022575
v 0.028893 -0.030152 -0.024531
v 0.009354 -0.043180 0.009346
v -0.005635 -0.037971 -0.027792
v 0.027589 -0.005401 0.009346
v 0.018467 -0.044485 -0.008899
v 0.014561 -0.006703 -0.027792
v -0.006940 -0.035365 0.009346
v 0.036062 -0.005401 -0.012803
v 0.032151 -0.031457 0.001527
v 0.003486 -0.043834 -0.020623
v -0.006940 -0.011269 -0.027792
v 0.024983 -0.035365 0.009346
v 0.017815 -0.045786 -0.001080
v 0.035409 -0.023642 -0.008252
v 0.030847 -0.025594 -0.025181
v -0.003030 -0.049702 -0.004337
v 0.030847 -0.033409 -0.011498
v 0.016514 -0.038622 -0.023229
v 0.017815 -0.024948 -0.027792
v 0.005444 -0.048397 -0.010851
v 0.036062 -0.006052 -0.006947
v 0.032151 -0.019084 0.009346
v -0.000424 -0.038626 -0.027792
v 0.026288 -0.039272 -0.000433
v 0.030847 -0.030807 -0.021924
v 0.008697 -0.047746 0.002828
v 0.004139 -0.042533 0.009346
v -0.004330 -0.043834 -0.021274
v 0.023030 -0.009964 -0.026487
v -0.006940 -0.027550 -0.027792
v 0.032151 -0.026244 0.009346
v 0.031499 -0.009964 0.007387
v 0.018467 -0.039927 -0.019972
v 0.003486 -0.047746 -0.014108
v -0.003030 -0.005397 -0.024531
v 0.020420 -0.016478 -0.027792
v 0.005444 -0.049047 -0.008252
v 0.035409 -0.024293 -0.005645
v 0.029546 -0.024943 -0.025836
v 0.018467 -0.043834 -0.011498
v -0.005635 -0.049047 -0.010193
v 0.031499 -0.025594 -0.023880
v 0.031499 -0.015172 -0.023229
v 0.031499 -0.005401 0.004133
v 0.010655 -0.046441 0.004133
v 0.022378 -0.005401 -0.025185
v -0.006940 -0.044489 -0.016711
v 0.008049 -0.006703 -0.027792
v 0.029546 -0.031457 -0.023229
v 0.028241 -0.029501 -0.025181
v -0.004983 -0.049047 -0.004991
v 0.030194 -0.015172 -0.024531
v 0.032800 -0.020390 0.008692
v 0.004791 -0.049047 -0.001080
v 0.026288 -0.039272 -0.003039
v -0.006288 -0.036670 -0.027792
v -0.003682 -0.049047 -0.003686
v 0.031499 -0.005401 -0.021274
f 198 233 248 
f 186 187 188 
f 188 187 189 
f 189 192 194 
f 189 187 197 
f 192 189 197 
f 186 188 201 
f 196 193 201 
f 194 192 202 
f 193 196 209 
f 194 202 212 
f 208 200 213 
f 193 209 213 
f 199 202 214 
f 202 203 214 
f 207 199 214 
f 207 195 215 
f 204 207 215 
f 192 197 217 
f 216 192 217 
f 206 216 217 
f 193 213 218 
f 213 200 218 
f 186 201 220 
f 201 193 220 
f 202 199 221 
f 212 202 221 
f 194 212 222 
f 200 208 224 
f 218 200 224 
f 208 223 224 
f 188 189 225 
f 189 198 225 
f 201 188 225 
f 209 196 226 
f 196 219 226 
f 195 203 227 
f 210 195 227 
f 224 210 227 
f 204 198 228 
f 199 207 228 
f 207 204 228 
f 211 185 228 
f 198 211 228 
f 185 221 228 
f 221 199 228 
f 209 226 229 
f 226 219 229 
f 195 210 230 
f 215 195 230 
f 210 224 230 
f 224 223 230 
f 187 186 231 
f 186 218 231 
f 218 224 231 
f 227 206 231 
f 224 227 231 
f 198 204 232 
f 215 205 232 
f 204 215 232 
f 198 232 233 
f 232 205 233 
f 189 194 234 
f 198 189 234 
f 211 198 234 
f 194 222 234 
f 222 211 234 
f 202 192 235 
f 203 202 235 
f 192 216 235 
f 216 203 235 
f 190 219 236 
f 219 196 236 
f 225 190 236 
f 218 186 237 
f 193 218 237 
f 186 220 237 
f 196 201 238 
f 201 225 238 
f 236 196 238 
f 225 236 238 
f 191 205 239 
f 208 191 239 
f 205 215 239 
f 223 208 239 
f 215 230 239 
f 230 223 239 
f 205 191 240 
f 191 208 240 
f 208 213 240 
f 213 209 240 
f 229 205 240 
f 209 229 240 
f 197 187 241 
f 187 231 241 
f 231 206 241 
f 219 190 242 
f 205 229 242 
f 229 219 242 
f 190 233 242 
f 233 205 242 
f 185 211 243 
f 221 185 243 
f 212 221 243 
f 211 222 243 
f 222 212 243 
f 203 216 244 
f 216 206 244 
f 227 203 244 
f 206 227 244 
f 203 195 245 
f 195 207 245 
f 214 203 245 
f 207 214 245 
f 220 193 246 
f 193 237 246 
f 237 220 246 
f 217 197 247 
f 206 217 247 
f 197 241 247 
f 241 206 247 
f 190 225 248 
f 225 198 248 
f 233 190 248 
o convex_8
v -0.037560 -0.005397 -0.005630
v -0.012807 0.005027 0.026278
v -0.012807 0.003070 0.026278
v -0.012807 -0.005397 -0.018670
v -0.023230 0.010240 -0.016714
v -0.040818 0.008936 0.017808
v -0.024536 -0.005397 0.023679
v -0.012807 0.010240 -0.018670
v -0.018019 0.010240 0.028892
v -0.037560 0.006331 -0.014759
v -0.025836 -0.004093 -0.023882
v -0.012807 -0.005397 0.022372
v -0.041469 0.010240 0.008036
v -0.019322 -0.000184 0.030847
v -0.034954 -0.005397 0.013897
v -0.012807 0.010240 0.025629
v -0.027139 0.010240 0.028238
v -0.032348 -0.003441 0.021065
v -0.036909 0.010240 -0.008893
v -0.038863 -0.004093 -0.004987
v -0.025188 -0.000184 -0.023882
v -0.034954 -0.005397 -0.012798
v -0.016064 -0.002138 0.030188
v -0.021279 -0.005397 -0.023229
v -0.042123 0.007633 0.008690
v -0.038212 0.004373 -0.014100
v -0.040818 0.007633 0.017808
v -0.036909 -0.005397 0.006734
v -0.015413 0.001772 0.030842
v -0.019973 0.000470 -0.023229
v -0.027139 -0.005397 -0.022575
v -0.027139 0.008936 0.028238
v -0.019322 -0.002790 0.029540
v -0.031045 -0.005397 0.020422
v -0.015413 -0.004093 0.027585
v -0.036909 0.006981 -0.014759
v -0.014110 -0.000836 0.028892
v -0.042123 0.008285 0.007388
v -0.040166 0.009588 0.017160
v -0.023882 0.010240 0.028892
f 262 277 288 
f 250 251 252 
f 249 252 255 
f 250 252 256 
f 256 253 257 
f 252 251 260 
f 255 252 260 
f 257 253 261 
f 249 255 263 
f 250 256 264 
f 256 257 264 
f 257 261 265 
f 261 253 267 
f 258 261 267 
f 253 256 269 
f 259 258 269 
f 252 249 270 
f 249 268 270 
f 252 270 272 
f 258 259 274 
f 270 268 274 
f 265 254 275 
f 263 266 275 
f 254 273 275 
f 275 273 276 
f 249 263 276 
f 268 249 276 
f 273 268 276 
f 263 275 276 
f 250 264 277 
f 264 257 277 
f 262 271 277 
f 256 252 278 
f 269 256 278 
f 259 269 278 
f 252 272 278 
f 272 259 278 
f 259 272 279 
f 272 270 279 
f 274 259 279 
f 270 274 279 
f 262 265 280 
f 266 262 280 
f 265 275 280 
f 275 266 280 
f 262 266 281 
f 271 262 281 
f 263 255 282 
f 266 263 282 
f 255 281 282 
f 281 266 282 
f 255 260 283 
f 281 255 283 
f 271 281 283 
f 267 253 284 
f 258 267 284 
f 253 269 284 
f 269 258 284 
f 251 250 285 
f 260 251 285 
f 250 277 285 
f 277 271 285 
f 283 260 285 
f 271 283 285 
f 254 261 286 
f 261 258 286 
f 273 254 286 
f 268 273 286 
f 274 268 286 
f 258 274 286 
f 261 254 287 
f 254 265 287 
f 265 261 287 
f 257 265 288 
f 265 262 288 
f 277 257 288 
o convex_9
v -0.012804 0.008285 -0.019316
v 0.036713 0.003724 -0.011499
v 0.036713 0.002421 -0.011499
v 0.003487 0.006981 0.032802
v -0.012804 -0.005397 0.022373
v -0.002378 -0.005397 -0.024528
v 0.026287 -0.005397 0.013252
v 0.027586 0.010240 -0.025837
v -0.012804 0.010240 0.025627
v 0.031498 0.010240 0.008689
v 0.030848 -0.005397 -0.022577
v -0.012804 -0.005397 -0.018668
v -0.006939 0.010240 -0.023225
v 0.008048 0.001772 0.032802
v 0.018469 0.010240 0.026281
v 0.036059 -0.005397 -0.008238
v 0.019768 -0.005397 0.021724
v 0.035410 0.010240 -0.016711
v 0.021722 -0.005397 -0.025183
v 0.010001 -0.005397 0.024978
v -0.012804 0.010240 -0.019316
v 0.002837 0.010240 0.030839
v 0.017820 0.001119 0.026281
v -0.012804 0.003070 0.025627
v 0.034106 0.009588 0.002180
v 0.036713 0.003070 -0.015408
v 0.031498 -0.005397 0.003482
v -0.004981 0.010240 -0.023874
v 0.003487 0.004373 0.032802
v 0.036059 -0.005397 -0.012802
v -0.007589 -0.005397 -0.022571
v 0.036059 0.010240 -0.009541
v -0.009542 -0.005397 0.023676
v 0.006090 0.007633 0.032802
v 0.032802 0.010240 -0.020619
v 0.031498 0.008936 0.008689
v 0.024984 0.010240 -0.025837
v -0.010846 0.009588 -0.021268
v 0.026937 0.000470 -0.025183
v 0.008702 0.003724 0.032802
v -0.012150 0.010240 0.026281
v 0.002837 -0.005397 0.024973
v 0.014562 -0.005397 0.024330
v 0.033451 0.008936 0.004131
f 324 315 332 
f 293 294 295 
f 289 293 297 
f 296 297 298 
f 295 294 299 
f 293 289 300 
f 294 293 300 
f 297 296 301 
f 298 297 303 
f 295 299 304 
f 293 295 305 
f 296 298 306 
f 299 294 307 
f 293 305 308 
f 289 297 309 
f 297 301 309 
f 303 297 310 
f 305 295 311 
f 302 305 311 
f 297 293 312 
f 291 290 313 
f 304 291 313 
f 290 291 314 
f 295 304 315 
f 294 301 316 
f 301 296 316 
f 302 292 317 
f 312 293 317 
f 291 304 318 
f 304 299 318 
f 314 291 318 
f 299 314 318 
f 294 300 319 
f 301 294 319 
f 306 298 320 
f 313 290 320 
f 298 313 320 
f 290 314 320 
f 314 306 320 
f 293 308 321 
f 302 317 321 
f 317 293 321 
f 292 302 322 
f 310 292 322 
f 303 310 322 
f 299 296 323 
f 296 306 323 
f 314 299 323 
f 306 314 323 
f 298 303 324 
f 311 295 324 
f 303 311 324 
f 295 315 324 
f 307 294 325 
f 296 307 325 
f 294 316 325 
f 316 296 325 
f 300 289 326 
f 289 309 326 
f 309 301 326 
f 319 300 326 
f 301 319 326 
f 296 299 327 
f 307 296 327 
f 299 307 327 
f 311 303 328 
f 302 311 328 
f 322 302 328 
f 303 322 328 
f 292 310 329 
f 310 297 329 
f 297 312 329 
f 317 292 329 
f 312 317 329 
f 308 302 330 
f 321 308 330 
f 302 321 330 
f 305 302 331 
f 302 308 331 
f 308 305 331 
f 304 313 332 
f 313 298 332 
f 315 304 332 
f 298 324 332 
o convex_10
v -0.036258 -0.005397 0.008693
v -0.023229 -0.037323 0.001524
v -0.024532 -0.036020 0.000874
v -0.022577 -0.005397 -0.023231
v -0.022577 -0.005397 0.009346
v -0.035606 -0.012566 -0.016713
v -0.028443 -0.030151 0.009346
v -0.022577 -0.036020 -0.007590
v -0.033653 -0.022985 -0.012150
v -0.038214 -0.008657 -0.010849
v -0.022577 -0.034716 0.009346
v -0.034954 -0.016479 0.006735
v -0.023881 -0.011913 -0.021923
v -0.035606 -0.005397 -0.012803
v -0.026486 -0.005397 -0.023231
v -0.031045 -0.017129 -0.017363
v -0.035606 -0.009960 0.009346
v -0.029095 -0.030151 0.006087
v -0.038214 -0.009960 -0.010195
v -0.036910 -0.008657 0.006087
v -0.023229 -0.036670 -0.006942
v -0.023229 -0.037323 0.005434
v -0.035606 -0.010610 -0.016713
v -0.036910 -0.005397 -0.009544
v -0.031697 -0.022335 -0.014108
v -0.022577 -0.011913 -0.021923
v -0.036910 -0.005397 0.006735
v -0.033653 -0.022985 -0.010195
v -0.025836 -0.007353 -0.023231
v -0.023229 -0.034060 -0.008894
f 345 358 362 
f 336 333 337 
f 336 337 340 
f 337 339 343 
f 340 337 343 
f 333 336 346 
f 346 336 347 
f 337 333 349 
f 339 337 349 
f 344 339 349 
f 341 335 350 
f 339 344 350 
f 338 341 351 
f 342 338 351 
f 349 333 352 
f 344 349 352 
f 351 344 352 
f 334 335 353 
f 340 334 353 
f 335 341 353 
f 335 334 354 
f 334 340 354 
f 343 339 354 
f 340 343 354 
f 350 335 354 
f 339 350 354 
f 338 342 355 
f 342 346 355 
f 347 338 355 
f 346 347 355 
f 333 346 356 
f 346 342 356 
f 341 338 357 
f 338 348 357 
f 353 341 357 
f 336 340 358 
f 342 351 359 
f 352 333 359 
f 351 352 359 
f 333 356 359 
f 356 342 359 
f 341 350 360 
f 350 344 360 
f 351 341 360 
f 344 351 360 
f 347 336 361 
f 338 347 361 
f 348 338 361 
f 345 348 361 
f 336 358 361 
f 358 345 361 
f 348 345 362 
f 340 353 362 
f 357 348 362 
f 353 357 362 
f 358 340 362 
o convex_11
v -0.012153 -0.043187 -0.004337
v -0.006940 -0.005397 0.009346
v -0.006940 -0.005397 -0.022579
v -0.022577 -0.005397 -0.023229
v -0.022577 -0.034716 0.009346
v -0.022577 -0.005397 0.009346
v -0.006940 -0.028849 -0.027137
v -0.020621 -0.037320 -0.013454
v -0.006940 -0.035367 0.009346
v -0.006940 -0.040579 -0.010851
v -0.013458 -0.020386 -0.027792
v -0.022577 -0.037320 -0.006293
v -0.006940 -0.011915 -0.027792
v -0.016712 -0.036669 -0.018667
v -0.014108 -0.040579 0.007391
v -0.018666 -0.041881 -0.004337
v -0.006940 -0.041881 0.000222
v -0.021273 -0.020386 -0.021274
v -0.022577 -0.037971 0.005435
v -0.007592 -0.035367 -0.021274
v -0.015409 -0.043187 -0.001080
v -0.010199 -0.038626 0.009346
v -0.012805 -0.014519 -0.027792
v -0.022577 -0.024939 -0.014759
v -0.010199 -0.024939 -0.027792
v -0.016060 -0.037320 -0.018013
v -0.022577 -0.007354 -0.023229
v -0.014759 -0.043187 -0.004337
v -0.021273 -0.036669 -0.012803
v -0.011501 -0.040579 0.007391
v -0.019970 -0.022339 -0.021924
f 380 389 393 
f 364 365 366 
f 367 364 368 
f 364 366 368 
f 366 367 368 
f 365 364 369 
f 364 367 371 
f 369 364 371 
f 369 371 372 
f 367 366 374 
f 366 365 375 
f 365 369 375 
f 374 370 378 
f 372 371 379 
f 363 372 379 
f 367 374 381 
f 377 367 381 
f 374 378 381 
f 369 372 382 
f 376 369 382 
f 363 379 383 
f 377 381 383 
f 381 378 383 
f 371 367 384 
f 367 377 384 
f 379 371 384 
f 373 366 385 
f 366 375 385 
f 375 373 385 
f 374 366 386 
f 375 369 387 
f 373 375 387 
f 369 376 387 
f 376 373 387 
f 370 376 388 
f 378 370 388 
f 382 372 388 
f 376 382 388 
f 366 373 389 
f 386 366 389 
f 380 386 389 
f 372 363 390 
f 363 383 390 
f 383 378 390 
f 388 372 390 
f 378 388 390 
f 370 374 391 
f 380 370 391 
f 374 386 391 
f 386 380 391 
f 383 379 392 
f 377 383 392 
f 384 377 392 
f 379 384 392 
f 376 370 393 
f 373 376 393 
f 370 380 393 
f 389 373 393 
o convex_12
v 0.006086 -0.056865 0.011953
v 0.019773 -0.038626 0.024983
v 0.020425 -0.043191 0.024983
v -0.010849 -0.039278 0.024983
v 0.013907 -0.038626 0.009346
v 0.013255 -0.060126 0.024983
v -0.004332 -0.038626 0.010650
v 0.018469 -0.054262 0.013908
v 0.000885 -0.056216 0.024983
v -0.004984 -0.045142 0.013259
v 0.006738 -0.060778 0.017165
v 0.019121 -0.038626 0.015210
v 0.010650 -0.053608 0.009998
v 0.016516 -0.059472 0.016516
v 0.020425 -0.052957 0.020422
v 0.002183 -0.057517 0.017814
v -0.001075 -0.040583 0.009346
v -0.009545 -0.038626 0.017165
v 0.014559 -0.056216 0.011303
v 0.017817 -0.056216 0.024983
v -0.003028 -0.052307 0.024331
v 0.009346 -0.061430 0.022375
v 0.011954 -0.060126 0.013908
v -0.010849 -0.038626 0.024983
v 0.015211 -0.060778 0.020422
v 0.004788 -0.058823 0.014560
v 0.005434 -0.060778 0.021071
v 0.020425 -0.052957 0.018466
v -0.010194 -0.039278 0.019770
v 0.018469 -0.057517 0.021071
v 0.006086 -0.059472 0.024983
v 0.019773 -0.038626 0.017814
v 0.011954 -0.061430 0.017814
v -0.002379 -0.041885 0.009998
v -0.006940 -0.039929 0.012605
v 0.006086 -0.045793 0.009346
v 0.008045 -0.056865 0.011303
v -0.002379 -0.051001 0.017165
v 0.019773 -0.051001 0.024983
v 0.018469 -0.038626 0.013908
f 405 401 433 
f 396 395 397 
f 396 397 399 
f 395 398 400 
f 399 397 402 
f 398 395 405 
f 400 398 410 
f 395 400 411 
f 398 401 412 
f 406 398 412 
f 401 407 412 
f 396 399 413 
f 402 397 414 
f 412 407 416 
f 397 395 417 
f 395 411 417 
f 413 399 418 
f 399 415 418 
f 403 394 419 
f 409 403 419 
f 416 404 419 
f 402 414 420 
f 414 409 420 
f 404 415 420 
f 409 419 420 
f 419 404 420 
f 401 405 421 
f 407 401 421 
f 396 408 421 
f 411 403 422 
f 414 397 422 
f 397 417 422 
f 417 411 422 
f 408 413 423 
f 413 418 423 
f 418 407 423 
f 407 421 423 
f 421 408 423 
f 399 402 424 
f 415 399 424 
f 402 420 424 
f 420 415 424 
f 395 396 425 
f 405 395 425 
f 396 421 425 
f 421 405 425 
f 415 404 426 
f 416 407 426 
f 404 416 426 
f 407 418 426 
f 418 415 426 
f 394 403 427 
f 400 410 427 
f 411 400 428 
f 403 411 428 
f 400 427 428 
f 427 403 428 
f 398 406 429 
f 410 398 429 
f 406 410 429 
f 410 406 430 
f 406 412 430 
f 412 416 430 
f 419 394 430 
f 416 419 430 
f 394 427 430 
f 427 410 430 
f 403 409 431 
f 409 414 431 
f 422 403 431 
f 414 422 431 
f 408 396 432 
f 396 413 432 
f 413 408 432 
f 401 398 433 
f 398 405 433 
o convex_13
v -0.023875 -0.034059 0.009998
v 0.027589 -0.005397 0.009998
v 0.027589 -0.005397 0.009346
v -0.035608 -0.005397 0.009346
v -0.018018 -0.006701 0.024983
v 0.019769 -0.038626 0.024983
v 0.024983 -0.034713 0.009346
v 0.019769 -0.006051 0.024331
v -0.011498 -0.038626 0.024983
v -0.028438 -0.019081 0.020422
v -0.014104 -0.038626 0.009346
v 0.031496 -0.026243 0.011953
v -0.023875 -0.005397 0.023679
v 0.022376 -0.017126 0.024983
v 0.014556 -0.038626 0.009346
v -0.027138 -0.032108 0.009346
v 0.028239 -0.009964 0.014560
v -0.033651 -0.017126 0.013259
v -0.031695 -0.005397 0.018466
v -0.023225 -0.026897 0.022375
v 0.013906 -0.005397 0.024983
v 0.032153 -0.020385 0.009346
v -0.020618 -0.011919 0.024983
v 0.022376 -0.008656 0.024331
v 0.030189 -0.026246 0.014560
v -0.033651 -0.017126 0.009346
v 0.030846 -0.028198 0.009346
v -0.026481 -0.032108 0.011303
v -0.034951 -0.006051 0.013908
v 0.019119 -0.038626 0.015210
v 0.022376 -0.021036 0.024983
v 0.030189 -0.014521 0.012605
v -0.023875 -0.027544 0.021071
v 0.020419 -0.005397 0.023027
v -0.035608 -0.009307 0.009998
v 0.030846 -0.027544 0.013259
v 0.030846 -0.013870 0.009998
v -0.030395 -0.006051 0.019770
v 0.030189 -0.024288 0.014560
f 469 445 472 
f 435 436 437 
f 437 436 440 
f 439 438 442 
f 437 440 444 
f 442 434 444 
f 439 442 444 
f 435 437 446 
f 438 439 447 
f 444 440 448 
f 439 444 448 
f 444 434 449 
f 437 444 449 
f 446 437 452 
f 435 446 454 
f 446 438 454 
f 438 447 454 
f 440 436 455 
f 442 438 456 
f 438 446 456 
f 446 443 456 
f 453 442 456 
f 443 453 456 
f 450 435 457 
f 441 454 457 
f 454 447 457 
f 437 449 459 
f 449 451 459 
f 439 440 460 
f 440 455 460 
f 455 445 460 
f 434 442 461 
f 449 434 461 
f 451 449 461 
f 451 443 462 
f 452 437 462 
f 443 452 462 
f 440 439 463 
f 439 448 463 
f 448 440 463 
f 447 439 464 
f 439 458 464 
f 458 447 464 
f 450 457 465 
f 443 451 466 
f 442 453 466 
f 453 443 466 
f 461 442 466 
f 451 461 466 
f 435 454 467 
f 454 441 467 
f 457 435 467 
f 441 457 467 
f 437 459 468 
f 459 451 468 
f 462 437 468 
f 451 462 468 
f 458 439 469 
f 439 460 469 
f 460 445 469 
f 436 435 470 
f 435 450 470 
f 455 436 470 
f 450 465 470 
f 465 455 470 
f 443 446 471 
f 446 452 471 
f 452 443 471 
f 445 455 472 
f 457 447 472 
f 447 458 472 
f 455 465 472 
f 465 457 472 
f 458 469 472 
o convex_14
v -0.012151 0.010240 -0.021278
v 0.000878 0.044772 -0.017367
v 0.003482 0.044119 -0.017367
v 0.009346 0.031085 -0.027792
v 0.015864 0.010240 -0.017367
v -0.019969 0.032390 -0.017367
v -0.015408 0.012197 -0.027792
v -0.008894 0.035649 -0.025185
v 0.014560 0.021972 -0.027792
v 0.015864 0.033043 -0.017367
v -0.014758 0.010240 -0.017367
v -0.018665 0.021320 -0.027792
v 0.004135 0.010240 -0.023881
v -0.013454 0.041513 -0.018019
v -0.019969 0.021320 -0.017367
v -0.004333 0.040209 -0.023229
v 0.010650 0.017409 -0.027792
v 0.010000 0.040857 -0.018019
v 0.013257 0.028483 -0.027792
v 0.003482 0.040857 -0.021929
v -0.005636 0.034344 -0.026489
v -0.016712 0.036298 -0.019973
v -0.018015 0.015456 -0.026489
v -0.008894 0.011548 -0.027792
v 0.015864 0.010240 -0.018670
v -0.008236 0.044119 -0.017367
v -0.016058 0.024575 -0.027792
v -0.010847 0.039553 -0.021929
v -0.020622 0.024575 -0.018019
v -0.002379 0.044119 -0.019322
v 0.000878 0.038251 -0.024533
v -0.018015 0.015456 -0.017367
v 0.015864 0.033043 -0.018019
v 0.011303 0.030436 -0.027792
v -0.019319 0.034344 -0.018019
v -0.008236 0.042162 -0.020625
v 0.004785 0.043464 -0.018670
v 0.014560 0.025883 -0.027792
v 0.012603 0.038251 -0.018019
v -0.018665 0.018062 -0.027792
v -0.012801 0.034993 -0.023881
v -0.003679 0.029128 -0.027792
f 499 493 514 
f 475 474 477 
f 477 474 478 
f 479 476 481 
f 475 477 482 
f 473 477 483 
f 477 478 483 
f 479 473 483 
f 476 479 484 
f 477 473 485 
f 483 478 487 
f 479 481 489 
f 475 482 490 
f 481 476 491 
f 480 488 493 
f 479 483 495 
f 473 479 496 
f 485 473 496 
f 479 489 496 
f 489 485 496 
f 482 477 497 
f 477 485 497 
f 489 481 497 
f 485 489 497 
f 478 474 498 
f 486 478 498 
f 476 484 499 
f 480 493 499 
f 488 480 500 
f 494 486 500 
f 478 484 501 
f 487 478 501 
f 492 488 502 
f 498 474 502 
f 488 492 503 
f 476 493 503 
f 493 488 503 
f 483 487 504 
f 495 483 504 
f 487 495 504 
f 482 497 505 
f 490 491 506 
f 491 476 506 
f 503 492 506 
f 476 503 506 
f 484 478 507 
f 478 486 507 
f 494 484 507 
f 486 494 507 
f 486 498 508 
f 488 500 508 
f 500 486 508 
f 502 488 508 
f 498 502 508 
f 474 475 509 
f 475 490 509 
f 502 474 509 
f 492 502 509 
f 490 506 509 
f 506 492 509 
f 481 491 510 
f 497 481 510 
f 491 505 510 
f 505 497 510 
f 490 482 511 
f 491 490 511 
f 482 505 511 
f 505 491 511 
f 484 479 512 
f 479 495 512 
f 495 487 512 
f 501 484 512 
f 487 501 512 
f 484 494 513 
f 499 484 513 
f 480 499 513 
f 494 500 513 
f 500 480 513 
f 493 476 514 
f 476 499 514 
o convex_15
v 0.025639 0.033695 -0.019323
v 0.015864 0.010240 -0.019323
v 0.015864 0.010240 -0.017367
v 0.034757 0.010240 -0.017367
v 0.026938 0.010240 -0.026489
v 0.015864 0.031085 -0.017367
v 0.036062 0.026526 -0.019323
v 0.034757 0.027827 -0.017367
v 0.024988 0.026526 -0.023230
v 0.024336 0.012848 -0.025837
v 0.035409 0.026526 -0.020626
v 0.015864 0.027827 -0.018671
v 0.019122 0.034999 -0.018019
v 0.028891 0.014154 -0.025837
v 0.024336 0.034999 -0.017367
v 0.018472 0.010240 -0.021928
v 0.030848 0.010892 -0.023230
v 0.033454 0.027178 -0.021277
v 0.035409 0.023921 -0.020626
v 0.024336 0.033695 -0.019973
v 0.034757 0.028482 -0.019323
v 0.025639 0.012848 -0.026489
v 0.026287 0.026526 -0.023230
f 536 523 537 
f 517 516 518 
f 518 516 519 
f 516 517 520 
f 517 518 520 
f 518 521 522 
f 520 518 522 
f 516 520 526 
f 526 520 527 
f 523 526 527 
f 520 522 529 
f 527 520 529 
f 519 516 530 
f 524 519 530 
f 516 526 530 
f 526 524 530 
f 518 519 531 
f 519 528 531 
f 525 528 532 
f 521 518 533 
f 525 521 533 
f 528 525 533 
f 518 531 533 
f 531 528 533 
f 523 527 534 
f 529 515 534 
f 527 529 534 
f 515 532 534 
f 522 521 535 
f 521 525 535 
f 515 529 535 
f 529 522 535 
f 532 515 535 
f 525 532 535 
f 519 524 536 
f 526 523 536 
f 524 526 536 
f 528 519 536 
f 528 536 537 
f 532 528 537 
f 523 534 537 
f 534 532 537 
o convex_16
v 0.013259 0.010240 0.028233
v -0.023226 0.012847 -0.017367
v -0.023226 0.010240 -0.016711
v 0.034750 0.010240 -0.017362
v 0.030197 0.025225 0.006740
v -0.038212 0.025225 0.011299
v 0.034750 0.025225 -0.017362
v -0.040812 0.010240 0.011299
v -0.036908 0.025225 -0.011501
v -0.015401 0.025225 0.025628
v -0.026482 0.010240 0.028237
v 0.007386 0.025225 0.026930
v 0.032798 0.010240 0.006089
v -0.040812 0.014803 -0.009547
v -0.020618 0.025225 -0.017367
v 0.024981 0.018058 0.019115
v -0.042772 0.022617 -0.001071
v 0.000225 0.011544 0.030847
v -0.032995 0.016756 0.023027
v -0.042116 0.014803 0.013248
v -0.037556 0.010240 -0.008891
v 0.036062 0.016756 -0.010193
v 0.022372 0.025225 0.019115
v -0.037556 0.021968 -0.013454
v 0.018468 0.012197 0.026284
v 0.034750 0.025225 -0.007588
v -0.029090 0.025225 0.019115
v -0.016057 0.021968 0.026935
v -0.038212 0.012847 -0.011501
v 0.036062 0.010240 -0.012803
v 0.013907 0.014152 0.028233
v 0.030845 0.023269 0.007387
v 0.028237 0.010893 0.014556
v 0.005434 0.024573 0.027586
v 0.004130 0.010240 0.030847
v -0.041468 0.014152 -0.006286
v -0.042116 0.023921 0.002181
v 0.034750 0.018058 -0.002378
v 0.019772 0.010240 0.024981
v -0.033651 0.012197 0.022376
v -0.004976 0.016106 0.029540
v -0.042116 0.016756 0.012597
v -0.017361 0.023269 0.026284
v 0.036062 0.010240 -0.009542
v -0.015401 0.010240 -0.017367
v -0.026482 0.010893 0.028237
v -0.035603 0.020012 0.018463
v 0.036062 0.018058 -0.014106
v 0.017812 0.019359 0.024330
v -0.040812 0.010240 0.006740
v 0.032149 0.012847 0.007387
v 0.004130 0.011544 0.030847
v -0.042772 0.020663 -0.001727
v 0.025629 0.017407 0.018463
v 0.023677 0.025225 0.017812
f 591 569 592 
f 538 540 541 
f 543 542 544 
f 540 538 545 
f 543 544 546 
f 542 543 547 
f 545 538 548 
f 542 547 549 
f 538 541 550 
f 546 544 552 
f 540 545 558 
f 542 549 560 
f 552 539 561 
f 546 552 561 
f 554 546 561 
f 551 554 561 
f 553 560 562 
f 544 542 563 
f 547 543 564 
f 539 540 566 
f 540 558 566 
f 558 551 566 
f 561 539 566 
f 551 561 566 
f 550 541 567 
f 538 562 568 
f 563 542 569 
f 549 547 571 
f 547 565 571 
f 568 549 571 
f 548 538 572 
f 555 548 572 
f 538 568 572 
f 551 558 573 
f 543 546 574 
f 546 554 574 
f 559 563 575 
f 563 569 575 
f 538 550 576 
f 562 538 576 
f 550 570 576 
f 545 548 577 
f 548 556 577 
f 556 557 577 
f 557 545 577 
f 571 565 578 
f 555 571 578 
f 557 556 579 
f 554 557 579 
f 543 574 579 
f 574 554 579 
f 547 564 580 
f 564 556 580 
f 565 547 580 
f 550 567 581 
f 567 559 581 
f 575 550 581 
f 559 575 581 
f 540 539 582 
f 541 540 582 
f 544 541 582 
f 539 552 582 
f 552 544 582 
f 548 555 583 
f 556 548 583 
f 555 578 583 
f 578 565 583 
f 580 556 583 
f 565 580 583 
f 564 543 584 
f 556 564 584 
f 543 579 584 
f 579 556 584 
f 541 544 585 
f 544 563 585 
f 563 559 585 
f 567 541 585 
f 559 567 585 
f 560 549 586 
f 562 560 586 
f 549 568 586 
f 568 562 586 
f 545 557 587 
f 558 545 587 
f 557 573 587 
f 573 558 587 
f 570 550 588 
f 550 575 588 
f 575 569 588 
f 571 555 589 
f 568 571 589 
f 572 568 589 
f 555 572 589 
f 554 551 590 
f 557 554 590 
f 551 573 590 
f 573 557 590 
f 553 562 591 
f 562 576 591 
f 576 570 591 
f 588 569 591 
f 570 588 591 
f 542 560 592 
f 560 553 592 
f 569 542 592 
f 553 591 592 
o convex_17
v 0.002177 0.032397 0.026938
v -0.020618 0.025225 -0.017367
v -0.027782 0.025225 -0.014756
v -0.002378 0.054545 -0.001078
v 0.034759 0.025225 -0.017367
v -0.037561 0.025225 0.011950
v 0.023682 0.025225 0.017809
v 0.015207 0.051285 0.007388
v -0.021923 0.048679 0.010645
v -0.009541 0.044115 -0.017367
v 0.020417 0.046724 -0.012150
v -0.036257 0.036303 -0.001724
v -0.008893 0.044115 0.023677
v 0.028237 0.043467 -0.002379
v -0.014752 0.025225 0.024982
v 0.015207 0.038258 0.021070
v -0.014752 0.051285 -0.004330
v -0.000432 0.053239 0.011950
v -0.036257 0.025880 -0.011499
v -0.021923 0.030440 0.023677
v 0.029541 0.029789 0.008038
v 0.015207 0.052588 -0.004330
v 0.000224 0.045418 -0.017367
v 0.006739 0.025225 0.026938
v -0.034304 0.033049 -0.010198
v 0.005434 0.044115 0.021725
v -0.024531 0.038907 0.017813
v -0.029742 0.044115 0.005432
v 0.032799 0.035649 -0.011499
v -0.012150 0.051936 0.013255
v 0.023682 0.038258 0.011950
v -0.023876 0.044115 -0.007592
v 0.028892 0.033049 -0.017367
v 0.034759 0.025225 -0.007592
v -0.007588 0.040207 0.026283
v -0.019314 0.035652 -0.017367
v -0.038866 0.031092 -0.003680
v -0.019969 0.050633 0.005432
v -0.007588 0.027834 0.026938
v 0.005434 0.051936 -0.007592
v 0.021722 0.033049 0.018464
v -0.038210 0.025880 0.011295
v 0.027588 0.044770 -0.004330
v -0.038210 0.025225 -0.007592
v 0.015863 0.042813 0.017163
v -0.036905 0.036303 0.000878
v -0.012150 0.051936 -0.004985
v 0.009348 0.053891 -0.001724
v -0.023876 0.026531 0.023026
v 0.011957 0.027834 0.024982
v 0.029541 0.038907 0.000228
v -0.020618 0.049330 -0.001073
v -0.000432 0.046073 0.021725
v 0.032150 0.036952 -0.012150
v -0.004331 0.054545 0.001529
v -0.014103 0.041512 -0.017367
v 0.010652 0.036306 0.023677
v -0.029742 0.043464 0.006737
v 0.030197 0.025225 0.006087
v -0.004979 0.040207 0.026283
v 0.005434 0.046073 0.019769
v -0.004331 0.045418 -0.017367
v -0.010190 0.043467 0.023677
v 0.006739 0.043467 -0.017367
f 603 625 656 
f 595 594 597 
f 595 597 598 
f 598 597 599 
f 597 594 602 
f 598 599 607 
f 597 602 615 
f 607 599 616 
f 606 600 623 
f 609 602 624 
f 617 604 624 
f 597 615 625 
f 599 597 626 
f 597 621 626 
f 594 595 628 
f 602 594 628 
f 595 611 628 
f 611 617 628 
f 604 617 629 
f 617 611 629 
f 620 601 630 
f 601 622 630 
f 607 616 631 
f 616 593 631 
f 593 627 631 
f 627 612 631 
f 614 603 632 
f 603 615 632 
f 599 613 633 
f 613 623 633 
f 612 619 634 
f 600 606 635 
f 603 614 635 
f 614 600 635 
f 595 598 636 
f 611 595 636 
f 629 611 636 
f 598 634 636 
f 634 629 636 
f 618 608 637 
f 623 600 637 
f 608 633 637 
f 633 623 637 
f 620 604 638 
f 604 629 638 
f 629 634 638 
f 602 609 639 
f 609 630 639 
f 596 632 639 
f 610 600 640 
f 600 614 640 
f 632 596 640 
f 614 632 640 
f 598 607 641 
f 607 631 641 
f 631 612 641 
f 634 598 641 
f 612 634 641 
f 616 599 642 
f 593 616 642 
f 599 633 642 
f 633 608 642 
f 621 606 643 
f 606 623 643 
f 623 613 643 
f 613 626 643 
f 626 621 643 
f 604 620 644 
f 609 624 644 
f 624 604 644 
f 630 609 644 
f 620 630 644 
f 622 605 645 
f 610 622 645 
f 621 597 646 
f 606 621 646 
f 597 625 646 
f 625 603 646 
f 635 606 646 
f 603 635 646 
f 622 610 647 
f 630 622 647 
f 596 639 647 
f 639 630 647 
f 640 596 647 
f 610 640 647 
f 624 602 648 
f 617 624 648 
f 602 628 648 
f 628 617 648 
f 608 618 649 
f 593 642 649 
f 642 608 649 
f 619 601 650 
f 601 620 650 
f 634 619 650 
f 620 638 650 
f 638 634 650 
f 613 599 651 
f 599 626 651 
f 626 613 651 
f 627 593 652 
f 605 627 652 
f 618 645 652 
f 645 605 652 
f 649 618 652 
f 593 649 652 
f 600 610 653 
f 618 637 653 
f 637 600 653 
f 610 645 653 
f 645 618 653 
f 615 602 654 
f 632 615 654 
f 602 639 654 
f 639 632 654 
f 601 619 655 
f 619 612 655 
f 622 601 655 
f 605 622 655 
f 627 605 655 
f 612 627 655 
f 615 603 656 
f 625 615 656 
o convex_18
v 0.019121 -0.052303 0.024983
v -0.006940 -0.047094 0.027589
v -0.006940 -0.047094 0.029544
v 0.012606 -0.006054 0.025635
v 0.024334 -0.021690 0.029544
v -0.006940 -0.021690 0.024983
v -0.005636 -0.021690 0.029544
v 0.014559 -0.054912 0.029544
v 0.004139 -0.058168 0.024983
v 0.022378 -0.017779 0.024983
v 0.006744 -0.009960 0.028892
v 0.006092 -0.005397 0.024983
v -0.006940 -0.045792 0.024983
v 0.002183 -0.055563 0.029544
v 0.019773 -0.047745 0.029544
v 0.013252 -0.059475 0.025635
v 0.017817 -0.007356 0.025635
v 0.013907 -0.009309 0.028892
v -0.003028 -0.052954 0.027589
v -0.006940 -0.022993 0.029544
v 0.024334 -0.023644 0.028892
v 0.017817 -0.055563 0.024983
v 0.019773 -0.050349 0.024983
v 0.018469 -0.008007 0.024983
v 0.006092 -0.005397 0.025635
v 0.005440 -0.018430 0.029544
v 0.009343 -0.059475 0.026287
v -0.003028 -0.052303 0.024983
v 0.011302 -0.056214 0.029544
v -0.003680 -0.052303 0.029544
f 675 665 686 
f 658 659 662 
f 659 661 663 
f 661 659 664 
f 662 657 665 
f 657 662 666 
f 666 662 668 
f 658 662 669 
f 662 665 669 
f 664 659 670 
f 661 664 671 
f 661 673 674 
f 673 660 674 
f 662 659 676 
f 659 663 676 
f 666 661 677 
f 661 671 677 
f 665 657 678 
f 657 671 678 
f 671 664 678 
f 664 672 678 
f 672 665 678 
f 657 666 679 
f 671 657 679 
f 666 677 679 
f 677 671 679 
f 661 666 680 
f 668 660 680 
f 666 668 680 
f 673 661 680 
f 660 673 680 
f 663 667 681 
f 668 662 681 
f 660 668 681 
f 667 674 681 
f 674 660 681 
f 662 676 681 
f 676 663 681 
f 663 661 682 
f 667 663 682 
f 661 674 682 
f 674 667 682 
f 670 665 683 
f 665 672 683 
f 658 669 684 
f 669 665 684 
f 675 658 684 
f 665 675 684 
f 664 670 685 
f 672 664 685 
f 670 683 685 
f 683 672 685 
f 659 658 686 
f 670 659 686 
f 665 670 686 
f 658 675 686 
o convex_19
v -0.017367 -0.039277 0.037363
v -0.011501 -0.031459 0.030196
v -0.011501 -0.031459 0.029544
v -0.023879 -0.037974 0.030848
v -0.011501 -0.038624 0.029544
v -0.023228 -0.041232 0.029544
v -0.011501 -0.040579 0.035408
v -0.015410 -0.036021 0.036711
v -0.023879 -0.041232 0.033454
v -0.019969 -0.036670 0.035408
v -0.011501 -0.037322 0.036711
v -0.023228 -0.037322 0.029544
f 690 696 698 
f 689 688 691 
f 689 691 692 
f 691 688 693 
f 692 691 693 
f 690 692 695 
f 693 687 695 
f 692 693 695 
f 694 688 696 
f 687 694 696 
f 690 695 696 
f 695 687 696 
f 687 693 697 
f 693 688 697 
f 688 694 697 
f 694 687 697 
f 688 689 698 
f 689 692 698 
f 692 690 698 
f 696 688 698 
o convex_20
v -0.003029 -0.051653 0.034108
v 0.027592 -0.017780 0.037361
v 0.027592 -0.017780 0.036711
v -0.008891 -0.024948 0.030197
v 0.000232 -0.034070 0.043877
v 0.017815 -0.051002 0.029544
v 0.010648 -0.043834 0.042573
v 0.024982 -0.021035 0.029546
v -0.011501 -0.038623 0.029544
v 0.000882 -0.019737 0.032804
v -0.011501 -0.039924 0.036060
v 0.008045 -0.056218 0.029544
v -0.001724 -0.026901 0.040618
v 0.026937 -0.021035 0.039317
v 0.000882 -0.045791 0.041922
v 0.000232 -0.019082 0.029544
v 0.017815 -0.045791 0.036711
v 0.009993 -0.051002 0.037363
v 0.005443 -0.034720 0.044530
v -0.005635 -0.049697 0.029544
v 0.003488 -0.025599 0.041270
v -0.008241 -0.030811 0.038014
v 0.027592 -0.018431 0.033455
v 0.023681 -0.022341 0.040619
v 0.019770 -0.047093 0.029544
v -0.004330 -0.039924 0.041922
v -0.001724 -0.049697 0.038014
v -0.011501 -0.029509 0.029544
v -0.000423 -0.022341 0.036711
v 0.026287 -0.017780 0.038014
v 0.014558 -0.054261 0.030197
v 0.015209 -0.044485 0.039966
v -0.007586 -0.024294 0.032804
v 0.009347 -0.039924 0.043877
v 0.002183 -0.041226 0.043877
v -0.007586 -0.046442 0.036060
v 0.002183 -0.051002 0.038014
v -0.006285 -0.032764 0.040618
v 0.003488 -0.029509 0.043226
v 0.001536 -0.054912 0.030197
v 0.019770 -0.046442 0.032152
v 0.007391 -0.046442 0.041922
v 0.027592 -0.020384 0.038014
v -0.004330 -0.045140 0.039966
v -0.011501 -0.034720 0.035409
v 0.012603 -0.041226 0.042573
v 0.013908 -0.048395 0.038014
v 0.026937 -0.021035 0.032151
v 0.009993 -0.019082 0.029544
v 0.023681 -0.020384 0.039968
v 0.009347 -0.056218 0.030197
v -0.004330 -0.025599 0.038014
v -0.010846 -0.028207 0.031501
v -0.011501 -0.040575 0.033456
v -0.003029 -0.021686 0.034108
v -0.004330 -0.021039 0.029544
v 0.001536 -0.021686 0.036711
v -0.001724 -0.053610 0.029544
v -0.002374 -0.031462 0.042573
v 0.001536 -0.052304 0.036060
f 738 749 758 
f 707 704 710 
f 704 707 714 
f 707 710 718 
f 701 700 721 
f 704 714 723 
f 707 709 726 
f 714 707 726 
f 711 719 727 
f 700 701 728 
f 712 700 728 
f 701 714 728 
f 714 708 728 
f 710 704 729 
f 704 715 729 
f 715 712 730 
f 722 717 732 
f 717 703 733 
f 703 724 733 
f 724 713 733 
f 705 732 733 
f 732 717 733 
f 718 699 734 
f 699 725 734 
f 713 725 735 
f 709 724 736 
f 703 717 737 
f 719 711 737 
f 717 722 737 
f 715 704 739 
f 712 715 739 
f 704 723 739 
f 705 733 740 
f 733 713 740 
f 713 735 740 
f 735 716 740 
f 700 712 741 
f 721 700 741 
f 712 739 741 
f 739 723 741 
f 713 724 742 
f 724 709 742 
f 725 713 742 
f 709 734 742 
f 734 725 742 
f 726 709 743 
f 709 736 743 
f 736 720 743 
f 712 722 744 
f 705 730 744 
f 730 712 744 
f 732 705 744 
f 722 732 744 
f 729 715 745 
f 716 729 745 
f 730 705 745 
f 715 730 745 
f 705 740 745 
f 740 716 745 
f 706 721 746 
f 723 706 746 
f 721 741 746 
f 741 723 746 
f 714 701 747 
f 701 721 747 
f 721 706 747 
f 706 723 747 
f 723 714 747 
f 722 712 748 
f 712 728 748 
f 728 719 748 
f 719 737 748 
f 737 722 748 
f 710 729 749 
f 729 716 749 
f 716 735 749 
f 738 710 749 
f 711 727 750 
f 731 720 750 
f 736 711 750 
f 720 736 750 
f 702 726 751 
f 731 702 751 
f 720 731 751 
f 726 743 751 
f 743 720 751 
f 709 707 752 
f 707 718 752 
f 718 734 752 
f 734 709 752 
f 708 714 753 
f 750 727 753 
f 731 750 753 
f 714 726 754 
f 726 702 754 
f 702 731 754 
f 753 714 754 
f 731 753 754 
f 727 719 755 
f 728 708 755 
f 719 728 755 
f 708 753 755 
f 753 727 755 
f 699 718 756 
f 718 710 756 
f 738 699 756 
f 710 738 756 
f 724 703 757 
f 711 736 757 
f 736 724 757 
f 703 737 757 
f 737 711 757 
f 725 699 758 
f 735 725 758 
f 699 738 758 
f 749 735 758 
o convex_21
v -0.021273 -0.036023 0.026939
v -0.023880 -0.040580 0.028892
v -0.023880 -0.040580 0.029544
v -0.006940 -0.045793 0.028241
v -0.006940 -0.027550 0.029544
v -0.006940 -0.027550 0.024983
v -0.007593 -0.044487 0.024983
v -0.019317 -0.037319 0.024983
v -0.006940 -0.045793 0.029544
v -0.010852 -0.027550 0.029544
v -0.010852 -0.027550 0.024983
v -0.023227 -0.037319 0.029544
v -0.021925 -0.038625 0.026287
f 760 770 771 
f 761 760 762 
f 763 762 764 
f 762 760 765 
f 764 762 765 
f 764 765 766 
f 761 762 767 
f 762 763 767 
f 763 761 767 
f 761 763 768 
f 763 764 768 
f 768 764 769 
f 764 766 769 
f 766 759 769 
f 769 759 770 
f 760 761 770 
f 761 768 770 
f 768 769 770 
f 765 760 771 
f 766 765 771 
f 759 766 771 
f 770 759 771 
o convex_22
v -0.012805 -0.007353 0.026287
v -0.019971 -0.011915 0.024983
v -0.016060 -0.024290 0.024983
v -0.010198 -0.027550 0.029544
v -0.006940 -0.027550 0.024983
v -0.010198 -0.011262 0.028892
v -0.007592 -0.011915 0.024983
v -0.006940 -0.023639 0.029544
v -0.013455 -0.015825 0.029544
v -0.017364 -0.007353 0.025635
v -0.019971 -0.011915 0.025635
v -0.013455 -0.010611 0.028892
v -0.011501 -0.007353 0.024983
v -0.015410 -0.025594 0.025635
v -0.006940 -0.027550 0.029544
f 776 779 786 
f 774 773 776 
f 776 773 778 
f 776 778 779 
f 778 777 779 
f 775 779 780 
f 779 777 780 
f 773 774 782 
f 775 780 782 
f 781 773 782 
f 777 772 783 
f 780 777 783 
f 772 781 783 
f 782 780 783 
f 781 782 783 
f 772 777 784 
f 777 778 784 
f 778 773 784 
f 781 772 784 
f 773 781 784 
f 776 775 785 
f 774 776 785 
f 782 774 785 
f 775 782 785 
f 775 776 786 
f 779 775 786 
