o convex_0
v -0.026664 -0.024162 0.005899
v -0.034994 -0.041420 0.017198
v -0.033208 -0.041420 0.017198
v -0.030831 -0.024162 0.033269
v -0.039160 -0.024162 0.011845
v -0.023092 -0.024758 0.027907
v -0.034994 -0.030113 -0.000653
v -0.038564 -0.037254 0.020173
v -0.029044 -0.037254 0.011845
v -0.034994 -0.024162 0.030885
v -0.036181 -0.024162 -0.000055
v -0.032613 -0.040824 0.020173
v -0.039160 -0.032495 0.010657
v -0.032017 -0.030710 -0.000653
v -0.039755 -0.027138 0.017796
v -0.026664 -0.025353 0.032671
v -0.023687 -0.024162 0.017198
v -0.036181 -0.039633 0.021362
v -0.029641 -0.024162 0.001134
v -0.030236 -0.030113 0.000539
v -0.030831 -0.038444 0.010657
v -0.039755 -0.030113 0.010657
v -0.036778 -0.040229 0.017198
v -0.036778 -0.028924 0.000539
v -0.031423 -0.040229 0.018981
v -0.024878 -0.027138 0.029099
v -0.030831 -0.025947 0.032671
v -0.034399 -0.031304 -0.000055
v -0.023092 -0.025353 0.026721
v -0.039160 -0.024162 0.018390
v -0.025473 -0.024162 0.032077
v -0.037374 -0.025353 0.001728
v -0.033803 -0.040824 0.020768
v -0.023687 -0.024758 0.017198
v -0.028448 -0.028328 0.003518
v -0.039755 -0.033087 0.016604
f 15 22 36 
f 4 1 5 
f 4 5 10 
f 5 1 11 
f 7 11 14 
f 8 10 15 
f 1 4 17 
f 10 8 18 
f 11 1 19 
f 14 11 19 
f 14 19 20 
f 19 1 20 
f 20 9 21 
f 3 2 21 
f 9 3 21 
f 14 20 21 
f 15 5 22 
f 8 13 23 
f 2 18 23 
f 18 8 23 
f 11 7 24 
f 13 22 24 
f 23 13 24 
f 3 9 25 
f 12 3 25 
f 12 25 26 
f 16 12 26 
f 4 10 27 
f 16 4 27 
f 10 18 27 
f 7 14 28 
f 21 2 28 
f 14 21 28 
f 2 23 28 
f 24 7 28 
f 23 24 28 
f 17 6 29 
f 25 9 29 
f 26 25 29 
f 6 26 29 
f 10 5 30 
f 5 15 30 
f 15 10 30 
f 4 16 31 
f 17 4 31 
f 6 17 31 
f 26 6 31 
f 16 26 31 
f 5 11 32 
f 22 5 32 
f 11 24 32 
f 24 22 32 
f 2 3 33 
f 3 12 33 
f 12 16 33 
f 18 2 33 
f 16 27 33 
f 27 18 33 
f 1 17 34 
f 17 29 34 
f 29 9 34 
f 20 1 35 
f 9 20 35 
f 1 34 35 
f 34 9 35 
f 13 8 36 
f 8 15 36 
f 22 13 36 
o convex_1
v -0.039158 -0.012259 0.015404
v -0.017143 -0.018211 0.039810
v -0.017143 -0.021185 0.039810
v -0.017143 -0.012259 -0.022665
v -0.036777 -0.024162 0.001140
v -0.033803 -0.012259 0.046953
v -0.018333 -0.023566 0.006493
v -0.035587 -0.024162 0.030878
v -0.017143 -0.012259 0.038028
v -0.035587 -0.012259 -0.007191
v -0.017143 -0.018805 -0.014928
v -0.017143 -0.024162 0.023148
v -0.039158 -0.024162 0.017795
v -0.029044 -0.016427 0.047540
v -0.021307 -0.012855 -0.022665
v -0.039158 -0.015237 0.029096
v -0.024285 -0.012259 0.048141
v -0.021902 -0.020590 0.043375
v -0.026665 -0.024162 0.033268
v -0.029637 -0.024162 0.001140
v -0.031421 -0.017021 0.046953
v -0.034992 -0.012855 0.045765
v -0.020712 -0.016427 -0.019094
v -0.039158 -0.024162 0.013035
v -0.037969 -0.020590 0.029690
v -0.039158 -0.012259 0.029096
v -0.017143 -0.021185 -0.005402
v -0.035587 -0.024162 -0.000056
v -0.036182 -0.012259 -0.005409
v -0.018333 -0.021779 0.040404
v -0.031421 -0.024162 0.033268
v -0.034992 -0.013450 -0.007786
v -0.020117 -0.012259 0.043976
v -0.037969 -0.012259 0.005305
v -0.017143 -0.015237 -0.020883
v -0.025473 -0.012855 0.048735
v -0.017143 -0.024162 0.018382
f 63 48 73 
f 38 39 40 
f 40 37 42 
f 38 40 45 
f 40 42 45 
f 37 40 46 
f 40 39 47 
f 44 41 48 
f 47 39 48 
f 41 44 49 
f 46 40 51 
f 37 49 52 
f 45 42 53 
f 39 53 54 
f 44 48 55 
f 48 41 56 
f 54 50 57 
f 57 42 58 
f 44 57 58 
f 49 37 60 
f 41 49 60 
f 49 44 61 
f 52 49 61 
f 58 52 61 
f 44 58 61 
f 42 37 62 
f 37 52 62 
f 58 42 62 
f 52 58 62 
f 47 48 63 
f 56 47 63 
f 43 56 63 
f 41 51 64 
f 56 41 64 
f 47 56 64 
f 59 47 64 
f 51 59 64 
f 37 46 65 
f 46 41 65 
f 41 60 65 
f 48 39 66 
f 39 54 66 
f 55 48 66 
f 55 66 67 
f 44 55 67 
f 57 44 67 
f 54 57 67 
f 66 54 67 
f 41 46 68 
f 46 51 68 
f 51 41 68 
f 39 38 69 
f 38 45 69 
f 53 39 69 
f 45 53 69 
f 60 37 70 
f 37 65 70 
f 65 60 70 
f 40 47 71 
f 51 40 71 
f 47 59 71 
f 59 51 71 
f 53 42 72 
f 50 54 72 
f 54 53 72 
f 42 57 72 
f 57 50 72 
f 56 43 73 
f 48 56 73 
f 43 63 73 
o convex_2
v -0.032613 0.000239 0.048734
v -0.021307 -0.012259 -0.023266
v -0.023687 -0.011066 -0.023266
v -0.017143 0.035350 -0.002425
v -0.043918 0.000836 0.008877
v -0.017141 -0.012259 0.038623
v -0.039159 -0.012259 0.029099
v -0.026069 0.022851 0.036837
v -0.027854 0.028206 -0.011354
v -0.036777 0.021062 0.031473
v -0.017143 0.007384 -0.028616
v -0.017143 0.015707 0.040401
v -0.042729 -0.005115 0.040996
v -0.040944 -0.002734 -0.004219
v -0.026069 0.016303 -0.024457
v -0.025472 -0.012259 0.048742
v -0.039754 -0.011066 -0.000647
v -0.017141 -0.012259 -0.022663
v -0.042729 0.010949 0.020766
v -0.017143 0.031184 -0.016719
v -0.019523 0.030587 0.022552
v -0.021902 0.034754 0.005305
v -0.039159 0.011545 -0.000647
v -0.035587 0.024040 0.016012
v -0.033803 0.008577 0.046361
v -0.024877 0.000836 -0.026838
v -0.044516 -0.006304 0.009472
v -0.020713 -0.003330 0.048139
v -0.033803 -0.012259 0.046949
v -0.021902 0.010953 0.045766
v -0.024877 0.029991 0.024337
v -0.043324 -0.002137 0.039211
v -0.017143 0.024040 0.033266
v -0.020713 0.032969 -0.014338
v -0.036182 -0.012259 -0.006600
v -0.029044 0.019873 -0.018504
v -0.039159 0.003814 -0.007195
v -0.017738 0.021658 -0.024449
v -0.017143 -0.002137 0.045171
v -0.035587 0.022255 0.005900
v -0.026069 -0.006900 -0.023861
v -0.031421 0.018685 0.040409
v -0.017143 -0.001545 -0.028616
v -0.026664 0.030587 -0.007790
v -0.025472 0.000836 0.049330
v -0.027854 0.030587 0.012433
v -0.017143 0.033560 0.011242
v -0.039159 0.012137 0.036242
v -0.042729 0.010949 0.023742
v -0.044516 -0.002734 0.016012
v -0.029044 0.008577 0.047544
v -0.040944 0.015110 0.018385
v -0.036182 0.021658 0.032075
v -0.023092 0.020465 0.039218
v -0.030828 0.028206 0.002924
v -0.019523 0.034754 -0.010171
v -0.039754 -0.012259 0.017797
v -0.037375 0.007976 0.042782
v -0.038564 -0.000944 -0.008378
v -0.026069 0.006191 -0.025639
v -0.017143 0.007384 0.043972
v -0.020118 -0.012259 0.043980
v -0.028449 -0.009281 0.049330
v -0.024282 0.003809 -0.027425
f 99 133 137 
f 75 79 80 
f 80 79 89 
f 79 75 91 
f 77 79 91 
f 77 91 93 
f 91 84 93 
f 78 92 96 
f 86 74 98 
f 80 86 100 
f 78 87 100 
f 87 90 100 
f 74 86 102 
f 86 80 102 
f 80 89 102 
f 81 94 104 
f 100 86 105 
f 85 79 106 
f 94 81 106 
f 76 75 108 
f 75 80 108 
f 90 87 108 
f 96 82 109 
f 82 107 109 
f 107 88 109 
f 87 78 110 
f 78 96 110 
f 109 88 110 
f 96 109 110 
f 84 88 111 
f 93 84 111 
f 88 107 111 
f 107 93 111 
f 82 96 113 
f 99 76 114 
f 76 108 114 
f 108 87 114 
f 75 76 116 
f 91 75 116 
f 84 91 116 
f 76 99 116 
f 107 82 117 
f 89 101 118 
f 101 103 118 
f 104 95 119 
f 79 77 120 
f 77 95 120 
f 104 94 120 
f 95 104 120 
f 106 79 120 
f 94 106 120 
f 105 121 122 
f 121 83 122 
f 92 78 123 
f 78 100 123 
f 100 105 123 
f 105 122 123 
f 122 92 123 
f 98 74 124 
f 115 98 124 
f 74 118 124 
f 118 103 124 
f 96 92 125 
f 83 97 125 
f 113 96 125 
f 97 113 125 
f 92 122 125 
f 122 83 125 
f 97 83 126 
f 81 104 126 
f 115 81 126 
f 119 97 126 
f 104 119 126 
f 83 121 126 
f 103 85 127 
f 85 106 127 
f 106 81 127 
f 81 115 127 
f 115 124 127 
f 124 103 127 
f 82 113 128 
f 113 97 128 
f 95 117 128 
f 117 82 128 
f 97 119 128 
f 119 95 128 
f 77 93 129 
f 95 77 129 
f 93 107 129 
f 117 95 129 
f 107 117 129 
f 80 100 130 
f 100 90 130 
f 108 80 130 
f 90 108 130 
f 86 98 131 
f 105 86 131 
f 98 115 131 
f 121 105 131 
f 115 126 131 
f 126 121 131 
f 87 110 132 
f 99 114 132 
f 114 87 132 
f 110 88 133 
f 99 132 133 
f 132 110 133 
f 79 85 134 
f 85 103 134 
f 103 101 134 
f 112 79 134 
f 101 112 134 
f 89 79 135 
f 101 89 135 
f 79 112 135 
f 112 101 135 
f 74 102 136 
f 102 89 136 
f 118 74 136 
f 89 118 136 
f 88 84 137 
f 84 116 137 
f 116 99 137 
f 133 88 137 
o convex_3
v -0.010594 -0.022375 -0.063735
v -0.006429 -0.004524 -0.044691
v -0.008214 -0.004524 -0.044691
v -0.010594 -0.005713 -0.063137
v -0.001668 -0.010476 -0.056592
v -0.004643 -0.018210 -0.044691
v -0.014760 -0.015232 -0.057188
v -0.004049 -0.017615 -0.062544
v -0.009999 -0.016421 -0.044691
v -0.004643 -0.005713 -0.061355
v -0.010594 -0.024162 -0.059567
v -0.013570 -0.007500 -0.062544
v -0.002263 -0.009285 -0.045290
v -0.005834 -0.002738 -0.055997
v -0.010594 -0.009880 -0.044691
v -0.013570 -0.021186 -0.061355
v -0.003454 -0.018210 -0.053621
v -0.008807 -0.024162 -0.061949
v -0.005834 -0.009285 -0.063735
v -0.014164 -0.015232 -0.063735
v -0.002263 -0.014041 -0.044691
v -0.012974 -0.006309 -0.059567
v -0.008214 -0.002738 -0.057188
v -0.013570 -0.007500 -0.058376
v -0.013570 -0.020590 -0.058376
v -0.003454 -0.008689 -0.061949
v -0.001668 -0.013450 -0.055401
v -0.008214 -0.018210 -0.044691
v -0.003454 -0.006309 -0.058974
v -0.004643 -0.004524 -0.049452
v -0.003454 -0.018210 -0.060164
v -0.014760 -0.012263 -0.058376
v -0.008214 -0.002738 -0.053621
f 160 159 170 
f 139 140 143 
f 143 140 146 
f 146 140 152 
f 144 146 152 
f 138 148 153 
f 138 145 155 
f 148 138 155 
f 143 148 155 
f 154 143 155 
f 145 138 156 
f 141 147 156 
f 149 141 157 
f 153 144 157 
f 138 153 157 
f 156 138 157 
f 141 156 157 
f 139 143 158 
f 150 139 158 
f 143 154 158 
f 141 149 159 
f 147 141 160 
f 151 147 160 
f 141 159 160 
f 152 140 161 
f 159 149 161 
f 140 159 161 
f 146 144 162 
f 144 153 162 
f 153 148 162 
f 142 145 163 
f 145 156 163 
f 156 147 163 
f 142 150 164 
f 150 158 164 
f 158 154 164 
f 143 146 165 
f 148 143 165 
f 146 162 165 
f 162 148 165 
f 150 142 166 
f 147 151 166 
f 142 163 166 
f 163 147 166 
f 139 150 167 
f 151 139 167 
f 150 166 167 
f 166 151 167 
f 145 142 168 
f 155 145 168 
f 154 155 168 
f 142 164 168 
f 164 154 168 
f 144 152 169 
f 149 157 169 
f 157 144 169 
f 161 149 169 
f 152 161 169 
f 140 139 170 
f 139 151 170 
f 159 140 170 
f 151 160 170 
o convex_4
v -0.007026 0.016308 -0.060758
v -0.008215 0.029398 -0.044691
v -0.009999 0.029398 -0.044691
v -0.012379 0.032970 -0.062544
v -0.016545 0.018092 -0.059567
v -0.009999 0.015712 -0.044691
v -0.004048 0.024634 -0.047072
v -0.007026 0.029398 -0.061949
v -0.012379 0.015117 -0.063137
v -0.012379 0.026420 -0.044691
v -0.016545 0.027016 -0.063137
v -0.004048 0.018092 -0.053026
v -0.010594 0.013331 -0.054806
v -0.004644 0.018690 -0.044691
v -0.006429 0.022258 -0.063137
v -0.015355 0.030588 -0.060758
v -0.012379 0.019284 -0.044691
v -0.016545 0.025230 -0.057783
v -0.009999 0.031776 -0.063735
v -0.015950 0.018690 -0.063735
v -0.009999 0.032970 -0.058974
v -0.005238 0.027016 -0.044691
v -0.004644 0.024042 -0.057188
v -0.006429 0.015712 -0.050644
v -0.012379 0.032970 -0.058376
v -0.009999 0.017498 -0.063735
v -0.011783 0.013331 -0.055401
v -0.009999 0.013331 -0.058376
v -0.011189 0.016308 -0.044691
v -0.011189 0.028802 -0.044691
v -0.014759 0.029992 -0.063735
v -0.007026 0.016308 -0.044691
f 194 184 202 
f 172 173 176 
f 176 173 180 
f 172 176 184 
f 182 177 184 
f 182 171 185 
f 176 180 187 
f 187 180 188 
f 181 175 188 
f 180 186 188 
f 186 181 188 
f 175 187 188 
f 178 185 189 
f 179 175 190 
f 175 181 190 
f 189 174 191 
f 178 189 191 
f 177 178 192 
f 172 184 192 
f 184 177 192 
f 191 172 192 
f 178 191 192 
f 178 177 193 
f 177 182 193 
f 185 178 193 
f 182 185 193 
f 182 184 194 
f 173 172 195 
f 174 186 195 
f 172 191 195 
f 191 174 195 
f 171 179 196 
f 185 171 196 
f 189 185 196 
f 190 189 196 
f 179 190 196 
f 175 179 197 
f 183 176 197 
f 183 197 198 
f 179 171 198 
f 171 182 198 
f 182 194 198 
f 194 183 198 
f 197 179 198 
f 187 175 199 
f 176 187 199 
f 175 197 199 
f 197 176 199 
f 180 173 200 
f 186 180 200 
f 173 195 200 
f 195 186 200 
f 186 174 201 
f 181 186 201 
f 174 189 201 
f 189 190 201 
f 190 181 201 
f 176 183 202 
f 184 176 202 
f 183 194 202 
o convex_5
v 0.046537 0.009167 -0.052430
v 0.032254 0.012737 -0.061353
v 0.032254 0.012737 -0.060758
v 0.038803 0.024043 -0.061353
v 0.041180 0.009167 -0.062545
v 0.039396 0.007381 -0.050645
v 0.035232 0.021066 -0.055405
v 0.042964 0.015708 -0.050645
v 0.041775 0.003214 -0.050645
v 0.041775 0.019873 -0.062545
v 0.034635 0.007381 -0.061353
v 0.033445 0.020471 -0.062545
v 0.033445 0.009760 -0.056000
v 0.044752 0.003214 -0.051239
v 0.033445 0.017496 -0.055405
v 0.039988 0.005597 -0.060758
v 0.045941 0.012144 -0.050645
v 0.039396 0.023447 -0.057783
v 0.039396 0.014519 -0.050645
v 0.043559 0.011547 -0.060758
v 0.033445 0.021659 -0.058973
v 0.043559 0.017496 -0.060163
v 0.036420 0.007979 -0.062545
v 0.046537 0.005597 -0.051239
v 0.035825 0.024043 -0.061948
v 0.037016 0.023447 -0.057187
v 0.041180 0.021659 -0.058973
f 224 212 229 
f 210 208 211 
f 212 207 214 
f 205 204 215 
f 211 208 215 
f 204 213 215 
f 213 211 215 
f 205 215 217 
f 215 208 217 
f 211 213 218 
f 216 211 218 
f 210 211 219 
f 210 219 220 
f 210 209 221 
f 208 210 221 
f 209 217 221 
f 217 208 221 
f 207 212 222 
f 204 205 223 
f 214 204 223 
f 217 209 223 
f 205 217 223 
f 219 203 224 
f 203 222 224 
f 222 212 224 
f 213 204 225 
f 204 214 225 
f 214 207 225 
f 207 218 225 
f 218 213 225 
f 211 216 226 
f 218 207 226 
f 216 218 226 
f 219 211 226 
f 203 219 226 
f 222 203 226 
f 207 222 226 
f 206 212 227 
f 212 214 227 
f 214 223 227 
f 227 223 228 
f 209 210 228 
f 220 206 228 
f 210 220 228 
f 223 209 228 
f 206 227 228 
f 212 206 229 
f 206 220 229 
f 220 219 229 
f 219 224 229 
o convex_6
v 0.041777 0.015116 -0.049450
v 0.042968 -0.000357 -0.031007
v 0.044750 -0.000357 -0.031007
v 0.042372 0.013926 -0.030413
v 0.048917 0.006192 -0.045880
v 0.039992 0.006192 -0.050643
v 0.037610 0.010353 -0.030413
v 0.045345 0.002619 -0.050045
v 0.047130 0.006192 -0.030413
v 0.045345 0.013329 -0.050643
v 0.039398 0.002025 -0.030413
v 0.039398 0.013926 -0.050643
v 0.042968 0.000833 -0.046474
v 0.048321 0.002025 -0.045284
v 0.047130 0.010949 -0.042309
v 0.039398 0.013926 -0.030413
v 0.047130 0.001430 -0.030413
v 0.047130 0.006192 -0.050643
v 0.037610 0.007973 -0.031007
v 0.044156 0.012734 -0.030413
v 0.043559 0.015116 -0.050045
v 0.041183 0.003811 -0.050643
v 0.048917 0.006192 -0.042309
v 0.039398 0.007973 -0.050643
v 0.038207 0.004406 -0.031007
v 0.046536 0.000833 -0.044689
f 243 232 255 
f 233 236 238 
f 238 236 240 
f 239 235 241 
f 232 231 242 
f 231 240 242 
f 234 239 244 
f 233 230 245 
f 236 233 245 
f 230 241 245 
f 241 236 245 
f 231 232 246 
f 240 231 246 
f 238 240 246 
f 232 243 246 
f 235 239 247 
f 239 234 247 
f 234 243 247 
f 243 237 247 
f 236 241 248 
f 233 238 249 
f 238 244 249 
f 249 244 250 
f 230 233 250 
f 241 230 250 
f 239 241 250 
f 244 239 250 
f 233 249 250 
f 237 242 251 
f 242 240 251 
f 235 247 251 
f 247 237 251 
f 243 234 252 
f 244 238 252 
f 234 244 252 
f 238 246 252 
f 246 243 252 
f 241 235 253 
f 248 241 253 
f 248 253 254 
f 240 236 254 
f 236 248 254 
f 235 251 254 
f 251 240 254 
f 253 235 254 
f 232 242 255 
f 242 237 255 
f 237 243 255 
o convex_7
v 0.008449 0.021657 -0.017314
v 0.010830 -0.020591 -0.006002
v 0.011425 -0.020591 -0.006002
v 0.001308 0.010352 0.027913
v 0.001308 -0.008686 -0.023857
v 0.011425 0.013923 0.014224
v 0.001308 0.025828 -0.006600
v 0.011425 0.009157 -0.028615
v 0.001308 -0.015825 0.004103
v 0.011425 -0.011067 0.013027
v 0.001308 0.016895 -0.024455
v 0.011425 0.024038 0.001128
v 0.011425 -0.012853 -0.023857
v 0.001308 -0.016420 -0.010760
v 0.001308 0.022847 0.009460
v 0.001308 0.001433 -0.028022
v 0.001308 0.003209 0.026124
v 0.010235 -0.017610 0.007078
v 0.010235 0.003209 0.018977
v 0.011425 0.017495 -0.024455
v 0.011425 -0.003329 -0.028615
v 0.011425 0.020467 0.008269
v 0.001308 -0.009277 0.014219
v 0.007854 -0.015229 -0.019691
v 0.011425 0.024038 -0.006600
v 0.001904 0.011538 0.027315
v 0.007854 -0.019991 -0.001249
v 0.004284 0.025828 0.000535
v 0.001308 0.008562 -0.028022
v 0.001308 0.021662 -0.017907
v 0.001904 0.007371 0.027913
v 0.004284 -0.018801 -0.007193
v 0.011425 -0.004515 0.016008
v 0.008449 0.025233 -0.006600
v 0.010235 0.001433 -0.029214
v 0.011425 -0.019396 0.003504
v 0.008449 -0.005710 -0.027424
v 0.001308 -0.011658 -0.020882
v 0.001904 0.021662 0.011842
v 0.010235 -0.016420 -0.018499
v 0.003690 0.024633 -0.011359
v 0.005474 -0.017610 0.004701
v 0.001904 -0.017610 -0.001836
v 0.006069 -0.018801 -0.010168
v 0.010235 0.005590 0.018977
v 0.004879 0.016895 -0.025048
v 0.011425 0.020467 -0.019098
v 0.001308 0.025828 0.001128
v 0.009640 -0.013444 -0.023264
f 295 279 304 
f 260 259 262 
f 261 258 263 
f 259 260 264 
f 258 261 265 
f 260 262 266 
f 261 263 267 
f 263 258 268 
f 264 260 269 
f 262 259 270 
f 260 266 271 
f 259 264 272 
f 265 272 273 
f 267 263 275 
f 263 268 276 
f 261 267 277 
f 272 264 278 
f 273 272 278 
f 267 275 280 
f 270 259 281 
f 261 277 281 
f 270 267 283 
f 271 266 284 
f 266 262 285 
f 256 275 285 
f 259 272 286 
f 272 265 286 
f 281 259 286 
f 257 282 287 
f 265 261 288 
f 286 265 288 
f 274 286 288 
f 267 280 289 
f 262 283 289 
f 283 267 289 
f 263 276 290 
f 276 271 290 
f 284 263 290 
f 271 284 290 
f 257 258 291 
f 258 265 291 
f 265 273 291 
f 282 257 291 
f 260 271 292 
f 276 268 292 
f 271 276 292 
f 269 260 293 
f 279 269 293 
f 267 270 294 
f 277 267 294 
f 270 281 294 
f 281 277 294 
f 258 257 295 
f 268 258 295 
f 256 285 296 
f 285 262 296 
f 262 289 296 
f 278 264 297 
f 273 278 297 
f 291 273 297 
f 282 291 297 
f 264 269 298 
f 269 287 298 
f 287 282 298 
f 297 264 298 
f 282 297 298 
f 269 279 299 
f 287 269 299 
f 257 287 299 
f 295 257 299 
f 279 295 299 
f 261 281 300 
f 286 274 300 
f 281 286 300 
f 288 261 300 
f 274 288 300 
f 275 263 301 
f 263 284 301 
f 284 266 301 
f 266 285 301 
f 285 275 301 
f 275 256 302 
f 280 275 302 
f 289 280 302 
f 256 296 302 
f 296 289 302 
f 262 270 303 
f 283 262 303 
f 270 283 303 
f 260 292 304 
f 292 268 304 
f 293 260 304 
f 279 293 304 
f 268 295 304 
o convex_8
v 0.011425 0.017491 -0.023858
v 0.028683 -0.021777 0.007077
v 0.011425 -0.020584 -0.006008
v 0.011425 0.010948 0.015410
v 0.029277 0.007974 -0.016719
v 0.029277 0.012136 0.011842
v 0.021542 -0.011068 -0.024453
v 0.029279 -0.014638 0.017792
v 0.012021 0.024038 0.000532
v 0.011425 -0.016422 0.008865
v 0.029279 -0.019396 -0.012548
v 0.011425 -0.012853 -0.023858
v 0.016781 0.002019 -0.029218
v 0.020946 0.018684 -0.011953
v 0.029279 -0.007493 -0.020885
v 0.011425 -0.004520 0.016009
v 0.029277 0.001427 0.018387
v 0.022136 0.007373 -0.025642
v 0.011425 -0.000946 -0.029218
v 0.011425 0.019872 0.008865
v 0.029279 -0.021185 0.012437
v 0.029277 0.013329 0.004698
v 0.019759 0.015114 -0.022070
v 0.016781 -0.016422 -0.020286
v 0.011425 0.021061 -0.017313
v 0.029277 0.009759 0.014815
v 0.011425 -0.019992 0.001726
v 0.029277 0.012136 -0.008981
v 0.012021 0.010948 -0.028025
v 0.024516 0.001422 -0.025642
v 0.028683 -0.003924 0.018986
v 0.018568 -0.020589 -0.009575
v 0.017972 -0.005709 -0.028025
v 0.011425 0.006185 0.016603
v 0.028683 -0.018207 0.016004
v 0.029279 -0.021185 -0.005409
v 0.011425 -0.008090 0.014815
v 0.014997 -0.018207 -0.016714
v 0.023920 -0.005709 -0.025642
v 0.012021 0.015710 0.013027
v 0.023328 0.017491 0.003509
v 0.011425 0.024038 -0.004824
v 0.028683 -0.009278 0.018986
v 0.029277 0.000243 -0.020885
v 0.023920 -0.015234 -0.020286
v 0.016186 0.010351 -0.027425
v 0.017377 0.019280 -0.016714
v 0.015591 0.021061 0.005293
v 0.025706 0.011540 -0.018498
v 0.029277 0.006781 0.016599
v 0.014401 0.016899 -0.023858
v 0.018568 -0.015234 -0.022070
v 0.014401 -0.009875 -0.026236
v 0.028087 -0.011068 -0.020286
v 0.011425 -0.014633 -0.022070
v 0.014401 0.022850 -0.005413
v 0.025112 0.005588 -0.023858
v 0.028683 -0.021777 0.010649
v 0.011425 -0.018804 0.005293
v 0.011425 -0.000946 0.016603
v 0.029277 0.013329 0.008865
v 0.013211 0.018684 0.010054
v 0.011425 0.004996 -0.029218
v 0.011425 -0.005709 -0.028025
f 337 357 368 
f 305 307 308 
f 308 307 314 
f 307 305 316 
f 312 315 319 
f 308 314 320 
f 316 305 323 
f 305 308 324 
f 315 312 325 
f 305 324 329 
f 312 310 330 
f 314 307 331 
f 319 309 332 
f 318 326 332 
f 326 319 332 
f 317 322 334 
f 323 317 337 
f 308 320 338 
f 321 308 338 
f 335 321 338 
f 314 325 339 
f 325 312 339 
f 306 307 340 
f 325 306 340 
f 315 325 340 
f 307 336 340 
f 336 315 340 
f 312 320 341 
f 320 314 341 
f 339 312 341 
f 314 339 341 
f 328 315 342 
f 336 307 342 
f 315 336 342 
f 317 334 343 
f 334 319 343 
f 311 337 343 
f 337 317 343 
f 324 308 344 
f 326 318 345 
f 324 313 346 
f 329 324 346 
f 320 312 347 
f 312 321 347 
f 321 335 347 
f 335 338 347 
f 309 319 348 
f 319 334 348 
f 322 317 350 
f 327 322 350 
f 317 333 350 
f 318 327 351 
f 329 346 351 
f 313 324 352 
f 327 318 353 
f 332 309 353 
f 318 332 353 
f 308 321 354 
f 321 312 354 
f 312 330 354 
f 344 308 354 
f 330 344 354 
f 305 329 355 
f 333 305 355 
f 327 350 355 
f 350 333 355 
f 351 327 355 
f 329 351 355 
f 315 328 356 
f 311 349 356 
f 349 315 356 
f 337 311 357 
f 356 316 357 
f 311 356 357 
f 319 315 358 
f 311 343 358 
f 343 319 358 
f 349 311 358 
f 315 349 358 
f 307 316 359 
f 342 307 359 
f 328 342 359 
f 356 328 359 
f 316 356 359 
f 313 345 360 
f 345 318 360 
f 346 313 360 
f 318 351 360 
f 351 346 360 
f 322 327 361 
f 334 322 361 
f 309 348 361 
f 348 334 361 
f 353 309 361 
f 327 353 361 
f 307 306 362 
f 306 325 362 
f 331 307 362 
f 331 362 363 
f 325 314 363 
f 314 331 363 
f 362 325 363 
f 338 320 364 
f 320 347 364 
f 347 338 364 
f 310 312 365 
f 312 319 365 
f 319 326 365 
f 345 313 365 
f 326 345 365 
f 352 310 365 
f 313 352 365 
f 330 310 366 
f 324 344 366 
f 344 330 366 
f 310 352 366 
f 352 324 366 
f 323 305 367 
f 317 323 367 
f 333 317 367 
f 305 333 367 
f 316 323 368 
f 323 337 368 
f 357 316 368 
o convex_9
v -0.015355 -0.000359 -0.029218
v -0.017141 -0.024162 0.017785
v -0.015950 -0.024162 0.017785
v -0.016545 0.000238 0.043384
v -0.012975 0.000238 0.039809
v -0.012975 -0.015829 -0.023266
v -0.017141 0.000238 -0.028619
v -0.012975 -0.019992 0.024329
v -0.017141 -0.021778 0.038025
v -0.012975 0.000238 -0.029218
v -0.017141 -0.018207 -0.016707
v -0.012975 -0.021186 -0.009571
v -0.017141 -0.002143 0.044576
v -0.013570 -0.014042 -0.026235
v -0.016545 -0.021778 0.038025
v -0.017141 -0.014042 -0.023266
v -0.017141 -0.021186 -0.006595
v -0.012975 -0.015829 0.029696
v -0.012975 -0.021778 0.007094
v -0.017141 0.000238 0.043384
v -0.016545 -0.002738 0.044576
v -0.012975 -0.000954 0.039809
v -0.017141 -0.003930 -0.028026
f 382 384 391 
f 372 373 375 
f 374 373 376 
f 370 371 377 
f 375 370 377 
f 373 374 378 
f 369 375 378 
f 375 373 378 
f 370 375 379 
f 371 370 380 
f 374 376 380 
f 379 374 380 
f 375 377 381 
f 378 374 382 
f 369 378 382 
f 374 379 382 
f 371 376 383 
f 377 371 383 
f 379 375 384 
f 382 379 384 
f 370 379 385 
f 380 370 385 
f 379 380 385 
f 376 373 386 
f 383 376 386 
f 376 371 387 
f 371 380 387 
f 380 376 387 
f 372 375 388 
f 381 372 388 
f 375 381 388 
f 373 372 389 
f 372 381 389 
f 381 377 389 
f 377 383 389 
f 389 383 390 
f 386 373 390 
f 383 386 390 
f 373 389 390 
f 375 369 391 
f 369 382 391 
f 384 375 391 
o convex_10
v -0.008808 -0.005118 -0.044691
v -0.012975 -0.021781 -0.003614
v -0.011784 -0.021781 -0.003614
v -0.012975 0.000238 0.039220
v 0.001308 -0.006310 0.017791
v 0.001308 0.000238 -0.027426
v -0.004644 -0.018208 -0.044691
v -0.012975 0.000238 -0.029217
v 0.001308 -0.016423 0.001125
v -0.012379 -0.019400 0.022555
v -0.011188 -0.016425 -0.040519
v 0.001308 0.000238 0.020173
v -0.002264 -0.014043 -0.044691
v -0.006429 -0.009881 0.028493
v 0.001308 -0.014043 -0.022662
v -0.004644 -0.020589 -0.029800
v -0.008808 -0.020587 -0.033964
v -0.012975 -0.015828 -0.028609
v -0.005239 -0.020589 -0.007787
v -0.012975 -0.014043 0.029684
v -0.004048 -0.006905 -0.044691
v -0.004048 -0.000954 0.029692
v -0.010594 -0.015233 -0.044691
v 0.001308 -0.014638 0.006480
v -0.007023 -0.004523 -0.044691
v 0.001308 -0.017018 -0.004822
v -0.010594 -0.020587 0.011836
v -0.012379 -0.000954 0.039220
v -0.011188 -0.011662 -0.042901
v -0.010594 -0.018805 -0.036954
v -0.012975 -0.021781 0.005881
v -0.002264 -0.009881 -0.044691
v -0.008214 -0.018210 -0.044691
v 0.000712 -0.015233 -0.023262
v -0.005239 -0.009881 0.026711
v -0.010594 -0.009881 -0.044691
v -0.012379 -0.017613 -0.029808
v 0.001308 -0.009287 0.014817
v -0.012379 -0.014043 0.029684
v -0.011784 -0.014043 -0.039328
v -0.003452 -0.019400 -0.030399
f 425 417 432 
f 393 395 399 
f 395 397 399 
f 397 396 400 
f 396 397 403 
f 397 395 403 
f 398 392 404 
f 397 400 406 
f 404 397 406 
f 394 393 408 
f 407 394 408 
f 398 407 408 
f 393 399 409 
f 394 407 410 
f 395 393 411 
f 404 392 412 
f 403 395 413 
f 396 403 413 
f 392 398 414 
f 400 396 415 
f 401 400 415 
f 392 399 416 
f 399 397 416 
f 412 392 416 
f 397 412 416 
f 406 400 417 
f 400 410 417 
f 410 407 417 
f 400 401 418 
f 410 400 418 
f 395 411 419 
f 413 395 419 
f 405 413 419 
f 408 393 421 
f 393 394 422 
f 394 410 422 
f 411 393 422 
f 401 411 422 
f 418 401 422 
f 410 418 422 
f 397 404 423 
f 412 397 423 
f 404 412 423 
f 398 408 424 
f 414 398 424 
f 402 414 424 
f 408 421 424 
f 421 402 424 
f 398 404 425 
f 404 406 425 
f 406 417 425 
f 405 401 426 
f 396 413 426 
f 413 405 426 
f 401 415 426 
f 399 392 427 
f 392 414 427 
f 420 399 427 
f 414 420 427 
f 393 409 428 
f 409 402 428 
f 421 393 428 
f 402 421 428 
f 415 396 429 
f 396 426 429 
f 426 415 429 
f 401 405 430 
f 411 401 430 
f 419 411 430 
f 405 419 430 
f 409 399 431 
f 402 409 431 
f 414 402 431 
f 399 420 431 
f 420 414 431 
f 407 398 432 
f 417 407 432 
f 398 425 432 
o convex_11
v -0.011187 0.014521 -0.029813
v -0.008214 0.031779 -0.029813
v -0.008214 0.031779 -0.030409
v -0.002263 0.020474 -0.029813
v -0.007024 0.016308 -0.044691
v -0.010594 0.029396 -0.044691
v -0.004049 0.024635 -0.044691
v -0.014165 0.022854 -0.034576
v -0.012379 0.018689 -0.044691
v -0.013570 0.028206 -0.029813
v -0.005834 0.015117 -0.029813
v -0.004049 0.027612 -0.029813
v -0.007621 0.029396 -0.044691
v -0.004049 0.019878 -0.044691
v -0.012379 0.027015 -0.044691
v -0.014165 0.021069 -0.029813
v -0.011784 0.031183 -0.031005
v -0.011187 0.016308 -0.044691
v -0.002263 0.023446 -0.030409
v -0.005834 0.028803 -0.039929
v -0.013570 0.019285 -0.035171
v -0.013570 0.024635 -0.040525
v -0.007024 0.014521 -0.031005
f 450 437 455 
f 434 433 436 
f 437 438 439 
f 438 437 441 
f 433 434 442 
f 436 433 443 
f 435 434 444 
f 434 436 444 
f 438 435 445 
f 439 438 445 
f 437 439 446 
f 436 443 446 
f 443 437 446 
f 438 441 447 
f 433 442 448 
f 442 440 448 
f 434 435 449 
f 435 438 449 
f 442 434 449 
f 438 447 449 
f 447 442 449 
f 441 437 450 
f 444 436 451 
f 439 444 451 
f 446 439 451 
f 436 446 451 
f 435 444 452 
f 444 439 452 
f 439 445 452 
f 445 435 452 
f 440 441 453 
f 448 440 453 
f 433 448 453 
f 450 433 453 
f 441 450 453 
f 441 440 454 
f 440 442 454 
f 447 441 454 
f 442 447 454 
f 443 433 455 
f 437 443 455 
f 433 450 455 
o convex_12
v -0.008212 0.030584 0.017197
v -0.017141 0.000238 -0.029214
v -0.017141 0.002024 -0.029214
v 0.001308 0.001430 -0.028022
v -0.017141 0.000238 0.043382
v -0.017141 0.032967 -0.013142
v 0.001308 0.006788 0.028501
v -0.004050 0.027609 -0.029806
v 0.001308 0.025823 0.001139
v -0.017141 0.022849 0.033861
v 0.001308 0.000238 0.020765
v -0.012973 0.035945 0.004707
v -0.011783 0.031181 -0.029806
v -0.002860 0.015117 0.030286
v 0.001308 0.018682 -0.022662
v -0.013569 0.010357 0.041590
v -0.009402 0.035347 0.002923
v -0.015355 0.034753 0.013022
v 0.001308 0.000238 -0.027423
v -0.007620 0.031779 -0.028614
v 0.001308 0.022254 0.011837
v -0.017141 0.021066 -0.025046
v -0.010593 0.024631 0.029101
v -0.011783 0.001430 -0.029806
v -0.017141 0.034753 -0.003621
v 0.001308 0.025823 -0.006005
v -0.004644 0.024040 0.023149
v 0.001308 0.010951 0.028501
v -0.013569 0.019280 0.036837
v -0.013569 0.035945 -0.003029
v -0.013569 0.034753 0.014221
v -0.002264 0.023443 -0.029813
v -0.013569 0.028207 -0.029806
v 0.001308 0.002028 0.025525
v -0.017141 0.013335 0.040998
v -0.002264 0.006788 0.032669
v -0.017141 0.033561 0.011245
v -0.004050 0.030584 -0.011358
v -0.008808 0.034753 0.006492
v -0.016545 0.001430 0.043981
v 0.001308 0.010360 -0.027423
v -0.015949 0.035945 -0.000652
v -0.012379 0.000238 0.039214
v -0.005836 0.021066 0.028501
v -0.010593 0.031779 -0.029806
v -0.017141 0.028801 -0.019693
v -0.006430 0.031181 -0.027423
v -0.005836 0.029399 0.014221
v 0.001308 0.023443 -0.013741
v 0.000116 0.010360 0.030286
v -0.007620 0.017497 0.033262
v -0.015355 0.027609 0.026717
v -0.002264 0.019874 -0.029813
v -0.012379 0.035945 -0.003029
v -0.017141 0.005596 0.043981
v -0.014165 0.025827 -0.029813
v -0.008808 0.030584 0.018381
f 494 486 512 
f 458 457 460 
f 458 460 461 
f 462 459 464 
f 461 460 465 
f 460 457 466 
f 459 462 466 
f 464 459 470 
f 466 457 474 
f 459 466 474 
f 462 464 476 
f 458 461 477 
f 474 457 479 
f 459 474 479 
f 461 465 480 
f 464 470 481 
f 472 464 481 
f 462 476 483 
f 476 482 483 
f 478 465 484 
f 467 473 486 
f 466 462 489 
f 465 460 490 
f 484 465 490 
f 471 484 490 
f 489 462 491 
f 465 473 492 
f 480 465 492 
f 472 481 493 
f 464 472 494 
f 472 467 494 
f 467 486 494 
f 491 471 495 
f 470 459 496 
f 459 487 496 
f 487 470 496 
f 473 467 497 
f 461 480 497 
f 467 485 497 
f 492 473 497 
f 480 492 497 
f 460 466 498 
f 466 489 498 
f 489 491 498 
f 495 460 498 
f 491 495 498 
f 482 478 499 
f 469 483 499 
f 483 482 499 
f 478 484 499 
f 468 461 500 
f 475 463 500 
f 463 487 500 
f 461 497 500 
f 497 485 500 
f 461 468 501 
f 477 461 501 
f 468 488 501 
f 488 477 501 
f 463 475 502 
f 475 472 502 
f 481 463 502 
f 472 493 502 
f 493 481 502 
f 476 464 503 
f 456 482 503 
f 482 476 503 
f 494 456 503 
f 464 494 503 
f 463 481 504 
f 481 470 504 
f 487 463 504 
f 470 487 504 
f 462 483 505 
f 483 469 505 
f 471 491 505 
f 491 462 505 
f 484 471 506 
f 469 499 506 
f 499 484 506 
f 505 469 506 
f 471 505 506 
f 473 465 507 
f 465 478 507 
f 486 473 507 
f 478 486 507 
f 459 479 508 
f 487 459 508 
f 467 472 509 
f 472 475 509 
f 485 467 509 
f 475 500 509 
f 500 485 509 
f 490 460 510 
f 471 490 510 
f 460 495 510 
f 495 471 510 
f 457 458 511 
f 458 477 511 
f 479 457 511 
f 488 468 511 
f 477 488 511 
f 468 500 511 
f 500 487 511 
f 508 479 511 
f 487 508 511 
f 482 456 512 
f 478 482 512 
f 486 478 512 
f 456 494 512 
o convex_13
v 0.049513 -0.032491 -0.058972
v 0.059034 -0.025950 -0.047072
v 0.060224 -0.026545 -0.048262
v 0.059034 -0.037252 -0.047072
v 0.059034 -0.037252 -0.061948
v 0.056057 -0.022972 -0.060758
v 0.053680 -0.029520 -0.047072
v 0.052488 -0.039038 -0.061948
v 0.051299 -0.024164 -0.056593
v 0.061415 -0.028924 -0.057186
v 0.054275 -0.035466 -0.047072
v 0.051299 -0.025354 -0.061948
v 0.060820 -0.034872 -0.048859
v 0.053085 -0.039633 -0.057783
v 0.059034 -0.025950 -0.061354
v 0.049513 -0.028924 -0.055996
v 0.058439 -0.039038 -0.060758
v 0.050703 -0.036061 -0.056593
v 0.050703 -0.034872 -0.062545
v 0.060820 -0.035466 -0.057186
v 0.057843 -0.037847 -0.062545
v 0.060820 -0.027734 -0.047072
v 0.053085 -0.022972 -0.056593
v 0.056652 -0.025950 -0.047072
v 0.060820 -0.026545 -0.057186
v 0.049513 -0.028329 -0.060758
v 0.057843 -0.023568 -0.057783
v 0.054871 -0.024164 -0.061948
v 0.049513 -0.031302 -0.055996
f 530 523 541 
f 516 514 519 
f 516 519 523 
f 516 523 526 
f 522 517 527 
f 519 521 528 
f 516 526 529 
f 526 520 529 
f 520 526 530 
f 526 523 530 
f 530 513 531 
f 520 530 531 
f 517 522 532 
f 525 516 532 
f 522 525 532 
f 529 517 532 
f 516 529 532 
f 527 517 533 
f 517 529 533 
f 529 520 533 
f 520 531 533 
f 515 514 534 
f 514 516 534 
f 516 525 534 
f 525 522 534 
f 518 524 535 
f 524 521 535 
f 519 514 536 
f 521 519 536 
f 514 535 536 
f 535 521 536 
f 522 527 537 
f 515 534 537 
f 534 522 537 
f 521 524 538 
f 528 521 538 
f 513 528 538 
f 531 513 538 
f 524 531 538 
f 514 515 539 
f 527 518 539 
f 535 514 539 
f 518 535 539 
f 515 537 539 
f 537 527 539 
f 524 518 540 
f 518 527 540 
f 531 524 540 
f 527 533 540 
f 533 531 540 
f 523 519 541 
f 519 528 541 
f 528 513 541 
f 513 530 541 
o convex_14
v 0.060222 -0.030116 -0.038740
v 0.053678 -0.034277 -0.047072
v 0.053678 -0.028925 -0.047072
v 0.041181 -0.025948 -0.030409
v 0.045943 -0.036063 -0.030409
v 0.056652 -0.034277 -0.030409
v 0.059032 -0.037252 -0.047072
v 0.046539 -0.023567 -0.030409
v 0.058438 -0.025948 -0.047072
v 0.059032 -0.028925 -0.033981
v 0.041181 -0.031895 -0.031004
v 0.057842 -0.037849 -0.038147
v 0.056652 -0.025354 -0.037551
v 0.060820 -0.027735 -0.047072
v 0.055462 -0.036658 -0.047072
v 0.052484 -0.025948 -0.030409
v 0.041779 -0.024758 -0.031004
v 0.055462 -0.038445 -0.040525
v 0.059628 -0.034277 -0.036360
v 0.043563 -0.034872 -0.031599
v 0.060820 -0.033087 -0.045881
v 0.041181 -0.028925 -0.031599
v 0.056652 -0.025948 -0.047072
v 0.057842 -0.030116 -0.031004
v 0.051296 -0.036063 -0.030409
v 0.044159 -0.023567 -0.031004
v 0.059032 -0.034277 -0.033385
v 0.056058 -0.038445 -0.038147
f 547 566 569 
f 545 546 547 
f 543 544 548 
f 545 547 549 
f 548 544 550 
f 546 545 552 
f 550 549 554 
f 554 551 555 
f 548 550 555 
f 551 542 555 
f 550 554 555 
f 543 548 556 
f 549 547 557 
f 554 549 557 
f 551 554 557 
f 556 548 559 
f 553 548 560 
f 552 543 561 
f 546 552 561 
f 543 556 561 
f 559 546 561 
f 556 559 561 
f 555 542 562 
f 548 555 562 
f 542 560 562 
f 560 548 562 
f 544 543 563 
f 543 552 563 
f 552 545 563 
f 558 544 563 
f 545 558 563 
f 550 544 564 
f 544 558 564 
f 557 547 565 
f 551 557 565 
f 547 546 566 
f 545 549 567 
f 549 550 567 
f 558 545 567 
f 550 564 567 
f 564 558 567 
f 542 551 568 
f 547 553 568 
f 560 542 568 
f 553 560 568 
f 565 547 568 
f 551 565 568 
f 553 547 569 
f 548 553 569 
f 546 559 569 
f 559 548 569 
f 566 546 569 
o convex_15
v 0.066769 -0.005713 -0.053614
v 0.060821 -0.021781 -0.032790
v 0.062605 -0.021781 -0.032790
v 0.062605 -0.013450 -0.030409
v 0.058439 -0.015234 -0.031007
v 0.064984 -0.012858 -0.051832
v 0.066769 -0.015828 -0.042903
v 0.066769 -0.005118 -0.048257
v 0.063795 -0.019994 -0.030409
v 0.066769 -0.014042 -0.051832
v 0.062011 -0.014042 -0.045287
v 0.063795 -0.008690 -0.050047
v 0.066769 -0.011665 -0.041719
v 0.058439 -0.018805 -0.030409
v 0.062605 -0.018805 -0.042311
v 0.059631 -0.013450 -0.030409
v 0.063795 -0.015234 -0.030409
v 0.065580 -0.005713 -0.050641
v 0.065580 -0.017615 -0.044690
f 584 579 588 
f 576 570 577 
f 571 572 578 
f 575 570 579 
f 570 576 579 
f 575 580 581 
f 570 575 581 
f 580 574 581 
f 576 577 582 
f 578 576 582 
f 578 573 583 
f 571 578 583 
f 574 580 583 
f 583 580 584 
f 572 571 584 
f 575 579 584 
f 580 575 584 
f 571 583 584 
f 573 577 585 
f 583 573 585 
f 574 583 585 
f 577 573 586 
f 573 578 586 
f 582 577 586 
f 578 582 586 
f 577 570 587 
f 570 581 587 
f 581 574 587 
f 585 577 587 
f 574 585 587 
f 578 572 588 
f 576 578 588 
f 579 576 588 
f 572 584 588 
o convex_16
v 0.066771 -0.004523 -0.053022
v 0.066771 -0.014640 -0.050641
v 0.067368 -0.014640 -0.050641
v 0.066771 -0.011662 -0.042907
v 0.075697 -0.002738 -0.055996
v 0.073911 -0.010473 -0.056592
v 0.068558 -0.006309 -0.056592
v 0.073911 -0.003333 -0.051236
v 0.067368 -0.014640 -0.043503
v 0.066771 -0.003928 -0.049454
v 0.075697 -0.007501 -0.054807
v 0.067368 -0.011662 -0.055402
v 0.069748 -0.003333 -0.057189
v 0.070938 -0.012854 -0.056592
v 0.072126 -0.002142 -0.052426
v 0.075101 -0.008094 -0.057189
v 0.067963 -0.005120 -0.047669
f 603 598 605 
f 589 590 592 
f 590 591 597 
f 592 590 597 
f 596 592 597 
f 589 592 598 
f 593 596 599 
f 597 594 599 
f 596 597 599 
f 590 589 600 
f 589 595 600 
f 595 589 601 
f 589 598 601 
f 591 590 602 
f 594 597 602 
f 597 591 602 
f 590 600 602 
f 600 595 602 
f 595 601 602 
f 596 593 603 
f 593 601 603 
f 601 598 603 
f 593 599 604 
f 599 594 604 
f 601 593 604 
f 594 602 604 
f 602 601 604 
f 592 596 605 
f 598 592 605 
f 596 603 605 
o convex_17
v 0.030469 0.012736 0.009464
v 0.029279 -0.012855 -0.016719
v 0.029279 -0.010472 -0.019097
v 0.034635 -0.012258 -0.014933
v 0.034039 -0.012855 0.020771
v 0.034635 0.010353 -0.012548
v 0.029279 -0.012855 0.018390
v 0.034635 0.008567 0.016600
v 0.029279 0.010353 -0.012548
v 0.029279 0.005594 0.017199
v 0.029875 -0.000353 -0.020292
v 0.034635 -0.005117 0.021367
v 0.034635 0.012139 0.010055
v 0.034635 -0.002737 -0.016719
v 0.029279 0.012139 0.011837
v 0.029279 0.012139 -0.007198
v 0.034635 -0.012855 0.020771
v 0.029875 -0.005713 0.019577
v 0.029875 -0.008093 -0.020292
v 0.029279 0.005594 -0.017315
v 0.034635 -0.012855 -0.014334
v 0.034635 0.009760 -0.013743
v 0.034635 0.011543 -0.007198
v 0.034039 0.005594 0.018390
v 0.034039 -0.008093 -0.017315
f 624 616 630 
f 607 608 609 
f 608 607 612 
f 607 610 612 
f 609 611 613 
f 608 612 614 
f 614 612 615 
f 609 613 617 
f 613 611 618 
f 611 609 619 
f 614 615 620 
f 615 613 620 
f 618 606 620 
f 613 618 620 
f 611 614 621 
f 620 606 621 
f 614 620 621 
f 610 607 622 
f 609 617 622 
f 617 610 622 
f 612 610 623 
f 615 612 623 
f 610 617 623 
f 617 615 623 
f 609 608 624 
f 608 616 624 
f 608 614 625 
f 616 608 625 
f 607 609 626 
f 622 607 626 
f 609 622 626 
f 614 611 627 
f 611 619 627 
f 619 616 627 
f 625 614 627 
f 616 625 627 
f 606 618 628 
f 618 611 628 
f 611 621 628 
f 621 606 628 
f 613 615 629 
f 617 613 629 
f 615 617 629 
f 619 609 630 
f 616 619 630 
f 609 624 630 
o convex_18
v 0.045347 0.010949 0.001128
v 0.034635 -0.012855 -0.014338
v 0.034635 -0.012258 -0.014932
v 0.055464 -0.012855 -0.001250
v 0.034635 -0.012855 0.020767
v 0.038802 0.013925 -0.029809
v 0.034635 0.010355 0.014816
v 0.047726 0.003212 -0.030409
v 0.047726 -0.002735 0.016005
v 0.034635 0.010355 -0.016122
v 0.048322 0.009161 -0.004223
v 0.047133 -0.012855 0.018983
v 0.045347 -0.000353 -0.030409
v 0.042968 0.014519 -0.020884
v 0.038802 0.005594 0.018389
v 0.037611 0.006782 -0.030409
v 0.048917 0.003806 0.008864
v 0.055464 -0.012258 0.005296
v 0.037016 0.013925 -0.000655
v 0.045942 0.009758 -0.030409
v 0.042372 -0.012855 -0.013148
v 0.041777 0.012140 0.005891
v 0.037611 -0.007496 0.021962
v 0.036421 0.014519 -0.020284
v 0.049512 0.006782 -0.005413
v 0.041777 -0.000356 -0.030409
v 0.041181 0.007973 0.014816
v 0.034635 0.002617 0.019578
v 0.049512 0.002617 -0.019689
v 0.051296 -0.012855 -0.006602
v 0.035827 0.010949 -0.023862
v 0.053082 -0.011661 0.011248
v 0.041777 -0.008093 0.021362
v 0.034635 0.012140 0.010059
v 0.043563 0.013328 -0.030409
v 0.040586 0.013925 -0.000655
v 0.041181 0.015116 -0.023263
v 0.045347 0.012734 -0.009575
v 0.050701 0.002617 0.002912
v 0.038802 0.002617 -0.030409
v 0.046536 0.000238 -0.030409
v 0.047133 0.010949 -0.011359
v 0.044156 0.001426 0.017199
v 0.050701 -0.012855 0.015410
v 0.048917 -0.000353 0.013032
v 0.055464 -0.012258 -0.001250
v 0.034635 -0.007496 -0.016716
v 0.042372 -0.012855 0.020767
v 0.037611 0.010355 0.014216
v 0.047133 0.004997 0.010648
v 0.037611 0.011543 -0.030409
v 0.034635 0.012140 -0.009575
v 0.038207 0.015116 -0.020284
v 0.047726 0.004400 -0.030409
v 0.038802 0.002617 0.019578
v 0.045942 -0.009878 0.019578
v 0.034635 -0.005117 0.021362
f 653 658 687 
f 633 632 635 
f 632 634 635 
f 633 635 637 
f 633 637 640 
f 635 634 642 
f 638 643 646 
f 641 631 647 
f 638 646 650 
f 634 632 651 
f 632 643 651 
f 632 633 656 
f 643 632 656 
f 646 643 656 
f 637 635 658 
f 645 637 658 
f 650 655 659 
f 634 651 660 
f 651 643 660 
f 640 654 661 
f 640 637 664 
f 649 654 664 
f 650 646 665 
f 652 631 666 
f 664 652 666 
f 649 664 666 
f 665 636 667 
f 644 665 667 
f 666 644 667 
f 631 641 668 
f 666 631 668 
f 644 666 668 
f 641 647 669 
f 647 648 669 
f 655 641 669 
f 648 655 669 
f 633 646 670 
f 656 633 670 
f 646 656 670 
f 638 634 671 
f 643 638 671 
f 634 660 671 
f 660 643 671 
f 641 655 672 
f 655 650 672 
f 665 644 672 
f 650 665 672 
f 668 641 672 
f 644 668 672 
f 657 645 673 
f 642 634 674 
f 634 648 674 
f 662 639 674 
f 648 662 674 
f 648 647 675 
f 639 662 675 
f 662 648 675 
f 673 639 675 
f 634 638 676 
f 648 634 676 
f 655 648 676 
f 659 655 676 
f 633 640 677 
f 646 633 677 
f 640 661 677 
f 661 646 677 
f 635 642 678 
f 653 635 678 
f 642 663 678 
f 663 653 678 
f 637 645 679 
f 645 657 679 
f 657 652 679 
f 664 637 679 
f 652 664 679 
f 647 631 680 
f 631 652 680 
f 652 657 680 
f 657 673 680 
f 675 647 680 
f 673 675 680 
f 654 636 681 
f 646 661 681 
f 661 654 681 
f 636 665 681 
f 665 646 681 
f 654 640 682 
f 640 664 682 
f 664 654 682 
f 636 654 683 
f 654 649 683 
f 649 666 683 
f 667 636 683 
f 666 667 683 
f 638 650 684 
f 650 659 684 
f 676 638 684 
f 659 676 684 
f 645 658 685 
f 658 653 685 
f 653 663 685 
f 673 645 685 
f 663 673 685 
f 663 642 686 
f 639 673 686 
f 673 663 686 
f 642 674 686 
f 674 639 686 
f 635 653 687 
f 658 635 687 
o convex_19
v 0.032257 -0.027139 -0.006599
v 0.053678 -0.029517 -0.023265
v 0.053678 -0.031301 -0.023265
v 0.045344 -0.022379 0.016008
v 0.042964 -0.022379 -0.028620
v 0.040588 -0.035467 -0.011365
v 0.030473 -0.022379 0.013035
v 0.042964 -0.034872 -0.030409
v 0.045344 -0.030707 0.008869
v 0.032257 -0.022379 -0.015526
v 0.050104 -0.022379 0.007675
v 0.051891 -0.035467 -0.030409
v 0.052488 -0.025948 -0.030409
v 0.035827 -0.029517 0.010058
v 0.048916 -0.028329 0.007675
v 0.040588 -0.026544 -0.030409
v 0.034637 -0.030707 -0.013743
v 0.044749 -0.035467 -0.007793
v 0.037612 -0.025353 0.016602
v 0.048321 -0.022379 -0.025044
v 0.038209 -0.030112 -0.026837
v 0.034042 -0.030112 -0.000059
v 0.048321 -0.031301 0.002314
v 0.053678 -0.034277 -0.029215
v 0.043559 -0.036064 -0.026242
v 0.029874 -0.022974 0.011247
v 0.030473 -0.022974 -0.007793
v 0.039991 -0.034872 -0.022071
v 0.044155 -0.028329 0.013035
v 0.033446 -0.022974 0.016602
v 0.037612 -0.029517 0.011841
v 0.053678 -0.027734 -0.030409
v 0.034637 -0.028924 -0.018504
v 0.042370 -0.035467 -0.007198
v 0.041776 -0.024164 -0.030409
v 0.050104 -0.036064 -0.030409
v 0.041182 -0.022379 0.017796
v 0.050104 -0.022379 -0.007198
v 0.047725 -0.026544 0.011841
v 0.045938 -0.034872 -0.006599
v 0.034042 -0.022379 -0.019098
v 0.034637 -0.029517 0.007675
v 0.034637 -0.027734 0.012431
v 0.047131 -0.023569 -0.030409
v 0.050104 -0.026544 0.004702
v 0.053678 -0.033682 -0.026242
v 0.039991 -0.033682 -0.026242
v 0.039397 -0.034872 -0.018504
v 0.044749 -0.033087 0.001725
f 727 710 736 
f 691 692 694 
f 694 692 697 
f 690 689 698 
f 692 691 698 
f 699 695 700 
f 700 695 703 
f 692 698 707 
f 703 695 708 
f 688 704 709 
f 702 696 710 
f 689 690 711 
f 688 709 713 
f 694 697 714 
f 704 688 714 
f 688 713 714 
f 713 694 714 
f 695 712 715 
f 696 716 718 
f 716 706 718 
f 698 689 719 
f 700 698 719 
f 699 700 719 
f 689 711 719 
f 711 699 719 
f 697 708 720 
f 714 697 720 
f 704 714 720 
f 693 712 721 
f 712 705 721 
f 718 701 721 
f 700 703 722 
f 695 699 723 
f 699 705 723 
f 712 695 723 
f 705 712 723 
f 691 694 724 
f 716 691 724 
f 706 716 724 
f 694 717 724 
f 717 706 724 
f 698 700 725 
f 707 698 725 
f 700 707 725 
f 698 691 726 
f 696 702 726 
f 702 698 726 
f 716 696 726 
f 691 716 726 
f 705 699 727 
f 699 711 727 
f 697 692 728 
f 708 697 728 
f 703 708 728 
f 692 722 728 
f 722 703 728 
f 709 693 729 
f 713 709 729 
f 693 721 729 
f 721 701 729 
f 694 713 730 
f 717 694 730 
f 706 717 730 
f 701 718 730 
f 718 706 730 
f 729 701 730 
f 713 729 730 
f 692 707 731 
f 707 700 731 
f 722 692 731 
f 700 722 731 
f 690 698 732 
f 698 702 732 
f 732 702 733 
f 702 710 733 
f 711 690 733 
f 710 727 733 
f 727 711 733 
f 690 732 733 
f 708 695 734 
f 715 704 734 
f 695 715 734 
f 720 708 734 
f 704 720 734 
f 693 709 735 
f 709 704 735 
f 712 693 735 
f 704 715 735 
f 715 712 735 
f 710 696 736 
f 696 718 736 
f 721 705 736 
f 718 721 736 
f 705 727 736 
o convex_20
v 0.029279 -0.022376 0.007081
v 0.053678 -0.014640 0.011247
v 0.053678 -0.017615 0.011247
v 0.044154 -0.022376 -0.028028
v 0.029279 -0.012855 -0.016120
v 0.029279 -0.012855 0.018388
v 0.053678 -0.012855 -0.003628
v 0.044751 -0.022376 0.016601
v 0.053678 -0.022376 -0.000060
v 0.031662 -0.022376 -0.014338
v 0.044751 -0.012855 0.020174
v 0.033449 -0.022376 0.017199
v 0.042962 -0.012855 -0.013148
v 0.047129 -0.021781 -0.025644
v 0.037019 -0.017615 0.020174
v 0.053678 -0.018805 -0.006599
v 0.029279 -0.019996 -0.011959
v 0.037612 -0.022376 -0.023266
v 0.053678 -0.021781 0.007678
v 0.053678 -0.012855 0.010654
v 0.029279 -0.021185 0.013625
v 0.050105 -0.018210 0.015412
v 0.043561 -0.021781 -0.028028
v 0.034638 -0.013450 0.020772
v 0.038804 -0.021185 0.018985
v 0.047727 -0.022376 -0.024455
v 0.050703 -0.012855 0.015412
v 0.051295 -0.012855 -0.006599
v 0.033449 -0.022376 -0.017911
v 0.031662 -0.018210 0.018388
f 751 760 766 
f 741 737 742 
f 738 739 743 
f 741 742 743 
f 737 740 744 
f 743 739 745 
f 744 740 745 
f 740 737 746 
f 743 742 747 
f 737 744 748 
f 741 743 749 
f 743 745 752 
f 737 741 753 
f 746 737 753 
f 740 746 754 
f 745 739 755 
f 744 745 755 
f 738 743 756 
f 742 737 757 
f 737 748 757 
f 747 744 758 
f 755 739 758 
f 744 755 758 
f 741 749 759 
f 749 750 759 
f 750 740 759 
f 740 754 759 
f 754 741 759 
f 747 742 760 
f 751 747 760 
f 744 747 761 
f 748 744 761 
f 747 751 761 
f 751 748 761 
f 745 740 762 
f 750 743 762 
f 740 750 762 
f 743 752 762 
f 752 745 762 
f 739 738 763 
f 743 747 763 
f 738 756 763 
f 756 743 763 
f 758 739 763 
f 747 758 763 
f 749 743 764 
f 743 750 764 
f 750 749 764 
f 753 741 765 
f 746 753 765 
f 741 754 765 
f 754 746 765 
f 748 751 766 
f 742 757 766 
f 757 748 766 
f 760 742 766 
o convex_21
v 0.053678 -0.034278 -0.029813
v 0.054274 -0.029519 -0.025053
v 0.054274 -0.028923 -0.025648
v 0.056654 -0.033088 -0.030409
v 0.053678 -0.028328 -0.030409
v 0.056654 -0.029519 -0.029813
f 770 771 772 
f 768 767 770 
f 770 767 771 
f 767 768 771 
f 768 769 771 
f 771 769 772 
f 769 768 772 
f 768 770 772 
o convex_22
v 0.053678 -0.019400 -0.008392
v 0.063795 -0.017617 -0.028028
v 0.063795 -0.018804 -0.028028
v 0.054274 -0.014046 0.010059
v 0.059629 -0.013451 -0.030409
v 0.056059 -0.022375 0.001725
v 0.060224 -0.022375 -0.029216
v 0.053678 -0.012855 -0.003631
v 0.059629 -0.020590 -0.005417
v 0.056059 -0.012855 0.003512
v 0.053678 -0.022375 0.004700
v 0.057845 -0.016426 -0.028622
v 0.063199 -0.014640 -0.030409
v 0.060224 -0.022972 -0.016124
v 0.059033 -0.015830 -0.003631
v 0.056655 -0.021781 -0.019099
v 0.063199 -0.021186 -0.030409
v 0.055464 -0.018804 0.007679
v 0.058441 -0.018804 -0.030409
v 0.054870 -0.022972 -0.003631
v 0.053678 -0.012855 0.009461
v 0.062010 -0.013451 -0.029810
v 0.053678 -0.015830 -0.008990
v 0.058441 -0.014640 -0.030409
v 0.063199 -0.014640 -0.028028
v 0.057249 -0.016426 0.003512
v 0.060224 -0.018209 -0.007200
v 0.062010 -0.020590 -0.017911
v 0.053678 -0.019400 0.009461
v 0.053678 -0.022375 -0.001844
f 788 792 802 
f 780 773 783 
f 774 775 785 
f 781 778 786 
f 785 775 789 
f 777 785 789 
f 786 779 789 
f 778 781 790 
f 773 784 791 
f 788 773 791 
f 779 788 791 
f 777 789 791 
f 789 779 791 
f 778 783 792 
f 779 786 792 
f 786 778 792 
f 788 779 792 
f 776 782 793 
f 782 780 793 
f 780 783 793 
f 777 780 794 
f 780 782 794 
f 785 777 794 
f 773 780 795 
f 784 773 795 
f 784 795 796 
f 780 777 796 
f 791 784 796 
f 777 791 796 
f 795 780 796 
f 774 785 797 
f 782 787 797 
f 794 782 797 
f 785 794 797 
f 782 776 798 
f 787 782 798 
f 790 781 798 
f 776 790 798 
f 775 774 799 
f 774 797 799 
f 797 787 799 
f 798 781 799 
f 787 798 799 
f 781 786 800 
f 789 775 800 
f 786 789 800 
f 775 799 800 
f 799 781 800 
f 783 778 801 
f 778 790 801 
f 790 776 801 
f 776 793 801 
f 793 783 801 
f 783 773 802 
f 773 788 802 
f 792 783 802 
