o convex_0
v -0.007827 0.003972 0.023548
v -0.005011 0.003505 0.044666
v -0.005482 0.003505 0.044666
v -0.002197 -0.012450 0.023548
v -0.001259 0.005382 0.031998
v 0.000150 -0.002593 0.037156
v 0.000150 -0.005876 0.023548
v -0.005950 -0.004001 0.036215
v -0.008297 0.007259 0.037156
v -0.008767 0.000687 0.024019
v -0.002668 0.008197 0.038092
v -0.004543 0.005382 0.023548
v -0.005011 -0.010571 0.023548
v -0.000790 0.004912 0.041379
v -0.002668 -0.002122 0.040908
v -0.007827 0.004441 0.042785
v -0.006889 0.007259 0.042785
v -0.005950 0.008668 0.036215
v -0.000790 -0.011978 0.024019
v -0.004075 -0.006817 0.034808
v -0.002668 0.003972 0.023548
v -0.005011 -0.001188 0.041848
v 0.000150 -0.000718 0.031998
v -0.007827 0.002095 0.039502
v -0.001259 0.002095 0.042316
v -0.002197 0.007259 0.032935
v -0.003606 0.008197 0.040908
v -0.001259 -0.004938 0.036215
v -0.005482 -0.007753 0.030121
v 0.000150 -0.009161 0.024958
v -0.000790 0.005851 0.037156
v -0.007827 0.005851 0.028242
v -0.004075 -0.011509 0.024958
v -0.005011 0.006318 0.043725
v -0.006420 0.001158 0.042785
v -0.004543 0.008668 0.035748
v -0.003606 0.001158 0.043725
v -0.008767 0.000687 0.024958
v -0.001729 -0.011040 0.026837
v -0.008297 0.006318 0.031529
v 0.000150 -0.005407 0.033406
v -0.001729 0.004441 0.042785
v -0.008297 0.005382 0.039031
v -0.005482 0.005382 0.023548
v -0.005482 0.008668 0.039502
f 11 36 45 
f 4 1 7 
f 7 1 12 
f 1 4 13 
f 10 1 13 
f 16 3 17 
f 9 16 17 
f 4 7 19 
f 5 7 21 
f 7 12 21 
f 20 15 22 
f 8 20 22 
f 6 7 23 
f 7 5 23 
f 14 6 23 
f 6 14 25 
f 15 6 25 
f 5 21 26 
f 21 12 26 
f 14 11 27 
f 6 15 28 
f 15 20 28 
f 20 8 29 
f 8 24 29 
f 7 6 30 
f 19 7 30 
f 11 14 31 
f 23 5 31 
f 14 23 31 
f 5 26 31 
f 26 11 31 
f 13 4 33 
f 29 13 33 
f 20 29 33 
f 3 2 34 
f 17 3 34 
f 27 17 34 
f 3 16 35 
f 22 3 35 
f 8 22 35 
f 24 8 35 
f 16 24 35 
f 11 26 36 
f 26 12 36 
f 2 3 37 
f 3 22 37 
f 22 15 37 
f 15 25 37 
f 9 10 38 
f 10 13 38 
f 13 29 38 
f 29 24 38 
f 4 19 39 
f 19 28 39 
f 28 20 39 
f 33 4 39 
f 20 33 39 
f 10 9 40 
f 1 10 40 
f 9 18 40 
f 32 1 40 
f 18 32 40 
f 6 28 41 
f 28 19 41 
f 30 6 41 
f 19 30 41 
f 25 14 42 
f 14 27 42 
f 34 2 42 
f 27 34 42 
f 2 37 42 
f 37 25 42 
f 16 9 43 
f 24 16 43 
f 9 38 43 
f 38 24 43 
f 12 1 44 
f 1 32 44 
f 32 18 44 
f 36 12 44 
f 18 36 44 
f 9 17 45 
f 18 9 45 
f 27 11 45 
f 17 27 45 
f 36 18 45 
o convex_1
v -0.021434 0.039642 0.000081
v 0.000150 0.040111 -0.004140
v 0.000150 0.039642 -0.004140
v -0.017213 0.041521 -0.016342
v -0.007830 0.052782 0.002430
v -0.016743 0.052782 -0.016342
v -0.004544 0.052782 -0.014933
v -0.010177 0.039642 0.010408
v -0.005954 0.039642 -0.016342
v -0.016743 0.052782 -0.001325
v -0.003607 0.052782 -0.002265
v -0.003139 0.041050 0.005713
v -0.021434 0.039642 -0.009770
v -0.013927 0.041521 0.009468
v -0.019087 0.050434 -0.007892
v -0.001260 0.039642 -0.011178
v -0.002197 0.052782 -0.007892
v -0.018150 0.040111 0.007122
v -0.012051 0.051841 0.003367
v -0.005486 0.050434 -0.016342
v -0.008301 0.041989 0.009468
v -0.019560 0.039642 -0.013993
v -0.003607 0.041521 -0.015402
v -0.004544 0.039642 0.007590
v -0.017213 0.047617 0.002898
v -0.018150 0.052782 -0.006015
v -0.005486 0.041989 0.008059
v -0.000790 0.041050 -0.000388
v -0.020966 0.044335 -0.005546
v -0.018150 0.052312 -0.012587
v -0.005015 0.052312 0.000552
v -0.002668 0.052782 -0.010707
v -0.020497 0.041521 0.001490
v -0.002197 0.052782 -0.006015
v -0.011583 0.041050 0.010408
v -0.015804 0.039642 -0.016342
v -0.002197 0.040582 0.004307
v 0.000150 0.040111 -0.005546
v -0.006891 0.052782 -0.016342
v -0.020966 0.042460 -0.010241
v -0.019087 0.049964 -0.004609
v -0.014396 0.039642 0.009468
v -0.021907 0.040111 -0.006486
v -0.009706 0.049964 0.004776
v -0.017213 0.052782 -0.015870
v -0.019560 0.042460 -0.013993
v -0.004076 0.050434 -0.014933
v -0.019560 0.040582 0.004776
v -0.020029 0.047617 -0.008363
v -0.006891 0.052312 0.002430
v -0.013457 0.049027 0.004776
v -0.021434 0.040582 -0.000388
f 93 78 97 
f 51 50 52 
f 46 48 53 
f 48 46 54 
f 49 51 54 
f 50 51 55 
f 52 50 56 
f 54 46 58 
f 48 54 61 
f 52 56 62 
f 50 55 64 
f 54 51 65 
f 54 58 67 
f 61 54 68 
f 54 65 68 
f 53 48 69 
f 66 53 69 
f 63 59 70 
f 55 51 71 
f 69 57 72 
f 66 69 72 
f 48 47 73 
f 60 71 75 
f 56 50 76 
f 57 56 76 
f 72 57 76 
f 52 62 77 
f 47 62 79 
f 62 56 79 
f 73 47 79 
f 64 59 80 
f 53 66 80 
f 49 54 81 
f 67 49 81 
f 54 67 81 
f 56 57 82 
f 69 48 82 
f 57 69 82 
f 48 73 82 
f 79 56 82 
f 73 79 82 
f 47 48 83 
f 48 61 83 
f 62 47 83 
f 61 77 83 
f 77 62 83 
f 51 52 84 
f 65 51 84 
f 52 65 84 
f 55 71 86 
f 71 60 86 
f 78 55 86 
f 46 53 87 
f 63 46 87 
f 59 63 87 
f 53 80 87 
f 80 59 87 
f 58 46 88 
f 85 58 88 
f 50 64 89 
f 66 50 89 
f 64 80 89 
f 80 66 89 
f 71 51 90 
f 75 71 90 
f 85 75 90 
f 85 90 91 
f 51 49 91 
f 49 67 91 
f 67 58 91 
f 58 85 91 
f 90 51 91 
f 65 52 92 
f 61 68 92 
f 68 65 92 
f 77 61 92 
f 52 77 92 
f 46 63 93 
f 70 55 93 
f 63 70 93 
f 55 78 93 
f 60 75 94 
f 75 85 94 
f 86 60 94 
f 74 86 94 
f 88 74 94 
f 85 88 94 
f 50 66 95 
f 66 72 95 
f 76 50 95 
f 72 76 95 
f 59 64 96 
f 64 55 96 
f 55 70 96 
f 70 59 96 
f 86 74 97 
f 78 86 97 
f 88 46 97 
f 74 88 97 
f 46 93 97 
o convex_2
v -0.000791 0.054189 -0.002733
v -0.024251 0.057943 -0.016342
v -0.024251 0.058413 -0.016342
v -0.011578 0.053251 0.001959
v -0.000791 0.058413 0.006184
v -0.005483 0.052782 -0.015402
v -0.000322 0.058413 -0.006955
v -0.018151 0.052782 -0.015870
v -0.008300 0.058413 -0.014933
v -0.022843 0.056536 -0.009771
v -0.006892 0.052782 0.001490
v -0.016745 0.052782 -0.001796
v -0.020028 0.057943 -0.007425
v -0.006892 0.055129 -0.016342
v 0.002027 0.057943 -0.001796
v -0.002668 0.052782 -0.010710
v -0.023314 0.055597 -0.011178
v -0.003605 0.058413 0.005245
v -0.002199 0.052782 -0.002733
v -0.024723 0.058413 -0.013526
v 0.002027 0.057943 0.002429
v -0.015802 0.053251 -0.000856
v -0.000791 0.057943 0.006184
v -0.017682 0.052782 -0.016342
v -0.015336 0.058413 -0.016342
v 0.001087 0.058413 -0.005079
v -0.018151 0.052782 -0.007425
v -0.004074 0.053721 -0.013993
v -0.024723 0.057005 -0.014463
v -0.007360 0.052782 -0.016342
v -0.011578 0.052782 0.001959
v -0.001259 0.054189 -0.000387
f 118 120 129 
f 100 102 104 
f 100 104 106 
f 105 103 108 
f 105 108 109 
f 99 100 111 
f 106 104 111 
f 108 103 113 
f 112 98 113 
f 109 107 114 
f 102 100 115 
f 113 98 116 
f 108 113 116 
f 107 110 117 
f 114 107 117 
f 115 100 117 
f 110 115 117 
f 98 112 118 
f 116 98 118 
f 107 109 119 
f 110 107 119 
f 101 115 119 
f 115 110 119 
f 102 115 120 
f 118 102 120 
f 105 99 121 
f 103 105 121 
f 99 111 121 
f 100 106 122 
f 111 100 122 
f 106 111 122 
f 104 102 123 
f 112 113 123 
f 102 118 123 
f 118 112 123 
f 105 109 124 
f 114 105 124 
f 109 114 124 
f 103 111 125 
f 111 104 125 
f 113 103 125 
f 104 123 125 
f 123 113 125 
f 100 99 126 
f 99 105 126 
f 105 114 126 
f 117 100 126 
f 114 117 126 
f 111 103 127 
f 103 121 127 
f 121 111 127 
f 109 108 128 
f 115 101 128 
f 101 119 128 
f 119 109 128 
f 108 120 128 
f 120 115 128 
f 108 116 129 
f 116 118 129 
f 120 108 129 
o convex_3
v 0.003434 0.059353 0.002898
v -0.025192 0.058413 -0.016342
v -0.025192 0.058413 -0.014464
v 0.000148 0.066391 0.008530
v -0.002669 0.064983 -0.007894
v -0.007832 0.058413 -0.014464
v -0.003136 0.058413 0.006183
v -0.014393 0.064044 -0.015401
v 0.005311 0.065452 0.002898
v 0.001085 0.064044 0.011346
v 0.001555 0.058413 -0.004606
v -0.008772 0.065452 -0.000386
v 0.004371 0.064513 0.011346
v -0.024252 0.060291 -0.014932
v -0.001729 0.064044 0.009468
v 0.001555 0.062168 -0.005078
v 0.005781 0.066391 0.005714
v 0.001085 0.058882 0.007121
v 0.005781 0.062636 0.003836
v -0.000795 0.061229 0.009937
v -0.009706 0.064983 -0.009300
v -0.016742 0.058413 -0.016342
v -0.000795 0.065921 0.009468
v 0.004371 0.066391 0.011346
v 0.004841 0.061229 0.006183
v -0.020026 0.062168 -0.013526
v -0.015803 0.058413 -0.005078
v -0.023309 0.060760 -0.016342
v 0.003434 0.063105 -0.002267
v 0.002491 0.058413 0.002430
v 0.001555 0.061229 0.010406
v -0.012989 0.063105 -0.015401
v -0.025192 0.058882 -0.014464
v 0.000148 0.064044 -0.006013
v 0.005781 0.064983 0.007590
v -0.000795 0.065452 -0.005078
v -0.005482 0.065921 0.002430
v 0.004371 0.066391 0.004774
v -0.007832 0.058882 -0.014464
v 0.002961 0.059353 -0.002267
v 0.003434 0.062168 0.010406
v 0.001085 0.065921 0.011346
f 153 133 171 
f 132 131 135 
f 132 135 136 
f 136 135 140 
f 140 135 145 
f 138 146 148 
f 139 144 149 
f 137 141 150 
f 135 131 151 
f 139 142 153 
f 146 133 153 
f 130 148 154 
f 141 137 155 
f 143 141 155 
f 132 136 156 
f 144 132 156 
f 136 149 156 
f 149 144 156 
f 131 143 157 
f 151 131 157 
f 137 151 157 
f 155 137 157 
f 143 155 157 
f 140 145 158 
f 138 148 158 
f 136 140 159 
f 147 136 159 
f 130 154 159 
f 154 147 159 
f 142 139 160 
f 136 147 160 
f 149 136 160 
f 139 149 160 
f 137 134 161 
f 151 137 161 
f 131 132 162 
f 143 131 162 
f 141 143 162 
f 132 144 162 
f 152 141 162 
f 144 152 162 
f 138 158 163 
f 158 145 163 
f 148 146 164 
f 153 142 164 
f 146 153 164 
f 142 154 164 
f 154 148 164 
f 134 137 165 
f 146 138 165 
f 137 150 165 
f 163 134 165 
f 138 163 165 
f 150 141 166 
f 152 133 166 
f 141 152 166 
f 133 146 167 
f 146 165 167 
f 165 150 167 
f 166 133 167 
f 150 166 167 
f 145 135 168 
f 135 151 168 
f 161 134 168 
f 151 161 168 
f 134 163 168 
f 163 145 168 
f 148 130 169 
f 140 158 169 
f 158 148 169 
f 159 140 169 
f 130 159 169 
f 147 154 170 
f 154 142 170 
f 142 160 170 
f 160 147 170 
f 144 139 171 
f 133 152 171 
f 152 144 171 
f 139 153 171 
o convex_4
v 0.021268 -0.036845 -0.016811
v -0.027537 -0.011977 -0.011649
v -0.027537 -0.011977 -0.010242
v -0.000321 0.039642 -0.006487
v 0.017513 -0.047171 -0.006487
v -0.015804 0.039642 -0.016340
v -0.022373 0.037288 -0.006487
v -0.018150 -0.021830 -0.016811
v 0.021268 -0.003541 -0.013993
v 0.021268 0.001621 -0.006487
v -0.024251 -0.017131 -0.006957
v -0.004071 0.037760 -0.016340
v 0.008125 -0.045762 -0.013993
v 0.001083 -0.042472 -0.006487
v 0.019858 -0.006814 -0.016811
v 0.021268 -0.044353 -0.006487
v 0.014694 -0.044826 -0.016811
v -0.026128 -0.010096 -0.014463
v -0.020027 0.039642 -0.013525
v -0.001262 0.039642 -0.011649
v -0.020027 -0.022766 -0.013993
v -0.012986 0.030716 -0.016811
v -0.025187 -0.013386 -0.006487
v -0.020969 -0.009623 -0.016811
v 0.015167 0.013356 -0.008834
v 0.020326 -0.043881 -0.016340
v -0.023314 -0.020421 -0.008834
v 0.010939 -0.048116 -0.010242
v -0.021905 0.039642 -0.006487
v -0.027064 -0.010096 -0.007426
v -0.017682 0.039642 -0.015872
v 0.003902 -0.044353 -0.010711
v -0.027537 -0.008214 -0.011180
v 0.014694 -0.047643 -0.013525
v 0.007657 -0.042944 -0.016340
v 0.017981 0.003030 -0.013993
v -0.020027 -0.021830 -0.015872
v 0.008593 -0.047171 -0.006487
v -0.005949 0.031653 -0.016811
v -0.021905 0.037760 -0.009304
v 0.021268 -0.044826 -0.012587
v -0.022841 -0.010096 -0.016340
v -0.022841 -0.018540 -0.015401
v 0.021268 -0.006814 -0.015872
v -0.005481 0.039642 -0.016340
v 0.000147 -0.041544 -0.009773
v -0.003603 0.038224 -0.015872
v -0.025187 -0.017603 -0.012118
v 0.015167 0.013820 -0.006487
v -0.026596 -0.014794 -0.007896
v -0.027537 -0.010096 -0.008364
v 0.013758 0.012411 -0.012587
v -0.019091 0.039642 -0.014933
v 0.020326 -0.046234 -0.009773
v 0.015167 -0.048116 -0.008364
v -0.017682 0.015701 -0.016811
v -0.026596 -0.010568 -0.013993
v 0.010471 -0.043889 -0.016811
v 0.007189 -0.046698 -0.010242
v -0.001730 0.039642 -0.012587
v 0.021268 -0.011513 -0.016811
v -0.021905 -0.017603 -0.016340
v 0.019858 0.002094 -0.011180
v -0.024719 -0.009623 -0.015401
f 233 189 235 
f 176 175 178 
f 175 176 181 
f 172 180 181 
f 176 178 185 
f 172 179 186 
f 172 181 187 
f 181 176 187 
f 179 172 188 
f 175 177 190 
f 177 175 191 
f 186 179 193 
f 185 178 194 
f 182 185 194 
f 193 179 195 
f 191 175 196 
f 188 172 197 
f 185 182 198 
f 178 175 200 
f 175 190 200 
f 194 178 201 
f 190 177 202 
f 173 174 204 
f 188 197 205 
f 199 184 205 
f 184 203 208 
f 203 192 208 
f 179 206 208 
f 206 184 208 
f 176 185 209 
f 183 186 210 
f 193 177 210 
f 186 193 210 
f 178 200 211 
f 200 190 211 
f 204 178 211 
f 190 204 211 
f 172 187 212 
f 197 172 212 
f 205 197 212 
f 180 172 215 
f 207 180 215 
f 177 191 216 
f 210 177 216 
f 183 210 216 
f 185 198 217 
f 198 192 217 
f 192 203 217 
f 203 185 217 
f 186 183 218 
f 215 186 218 
f 207 215 218 
f 183 216 218 
f 192 198 219 
f 208 192 219 
f 173 214 219 
f 214 208 219 
f 175 181 220 
f 196 175 220 
f 181 196 220 
f 174 173 221 
f 182 194 221 
f 198 182 221 
f 194 201 221 
f 173 219 221 
f 219 198 221 
f 201 178 222 
f 204 174 222 
f 178 204 222 
f 174 221 222 
f 221 201 222 
f 196 207 223 
f 190 202 224 
f 187 176 225 
f 212 187 225 
f 205 212 225 
f 199 205 226 
f 176 209 226 
f 209 199 226 
f 225 176 226 
f 205 225 226 
f 177 193 227 
f 193 195 227 
f 202 177 227 
f 195 213 227 
f 213 202 227 
f 173 204 228 
f 204 190 228 
f 214 173 228 
f 224 189 228 
f 190 224 228 
f 179 188 229 
f 205 184 229 
f 188 205 229 
f 206 179 229 
f 184 206 229 
f 184 199 230 
f 203 184 230 
f 185 203 230 
f 209 185 230 
f 199 209 230 
f 191 196 231 
f 216 191 231 
f 207 218 231 
f 218 216 231 
f 196 223 231 
f 223 207 231 
f 172 186 232 
f 215 172 232 
f 186 215 232 
f 195 179 233 
f 179 208 233 
f 213 195 233 
f 208 214 233 
f 214 228 233 
f 228 189 233 
f 181 180 234 
f 196 181 234 
f 180 207 234 
f 207 196 234 
f 202 213 235 
f 189 224 235 
f 224 202 235 
f 213 233 235 
o convex_5
v 0.017510 -0.039187 0.014158
v -0.023315 0.014291 0.001025
v -0.023315 0.014291 0.001495
v 0.000617 0.039163 -0.005546
v 0.010942 -0.047646 -0.006484
v -0.008765 0.001620 0.023548
v 0.020796 0.001158 0.001963
v -0.014866 -0.021356 -0.006487
v -0.004074 0.025561 0.018385
v -0.021905 0.039642 -0.006487
v -0.007827 -0.024175 0.015098
v 0.021268 -0.044357 -0.006487
v 0.013757 -0.021356 0.021199
v -0.017214 0.033532 0.012752
v 0.021263 0.002090 -0.006487
v -0.017214 -0.007753 0.013220
v 0.010471 0.013359 0.013220
v 0.007656 -0.036368 0.018382
v -0.005951 0.039642 0.008998
v 0.021268 -0.029806 0.014158
v 0.001084 -0.042007 0.001963
v -0.020967 0.022271 0.011344
v -0.022372 0.005849 -0.006487
v 0.002022 0.008660 0.021669
v -0.002193 -0.019006 0.022607
v 0.010471 0.022271 0.002433
v 0.013757 -0.044357 0.009465
v -0.011580 0.025082 0.019323
v -0.019091 -0.009624 0.003841
v 0.009066 -0.021356 0.023077
v 0.002965 0.029312 0.010403
v -0.013457 -0.020416 0.008060
v -0.012990 0.002098 0.021199
v -0.020967 0.039642 0.001963
v 0.019387 -0.022765 0.016507
v -0.005012 -0.035907 -0.006487
v 0.002022 -0.039666 0.010406
v -0.000321 0.039642 -0.006487
v 0.013757 -0.033095 0.020261
v -0.009704 -0.010103 0.021669
v -0.023315 0.031183 0.000555
v -0.020967 0.004439 0.009468
v 0.021263 -0.004464 0.005714
v -0.011580 0.039642 0.010406
v 0.006718 0.011480 0.017915
v 0.021268 -0.042007 0.004779
v -0.003603 0.004909 0.023548
v -0.015333 0.023202 0.017912
v 0.006718 -0.043408 0.008998
v -0.003132 -0.025577 0.019323
v -0.000792 0.039642 0.001022
v -0.020029 -0.008215 -0.001792
v 0.018448 -0.046228 -0.002262
v -0.023315 0.029781 -0.005546
v 0.003903 -0.044827 -0.006487
v 0.000617 0.026022 0.015569
v 0.009066 -0.032156 0.021199
v -0.018152 0.003508 0.015098
v 0.013286 0.006311 0.013220
v 0.012819 0.013829 0.008531
v -0.010642 -0.017135 0.017445
v -0.011580 -0.026525 -0.002729
v -0.001255 -0.038256 0.005717
v -0.022372 0.030721 0.005714
f 269 276 299 
f 243 245 247 
f 247 245 250 
f 247 250 255 
f 238 237 258 
f 245 243 258 
f 250 239 261 
f 242 250 261 
f 236 253 262 
f 248 259 265 
f 241 260 265 
f 264 243 267 
f 251 264 267 
f 254 245 269 
f 243 247 271 
f 239 250 273 
f 250 245 273 
f 245 254 273 
f 253 236 274 
f 236 255 274 
f 248 265 274 
f 270 248 274 
f 255 270 274 
f 260 241 275 
f 268 251 275 
f 241 268 275 
f 237 238 276 
f 269 245 276 
f 257 238 277 
f 264 251 277 
f 250 242 278 
f 255 250 278 
f 270 255 278 
f 244 254 279 
f 263 244 279 
f 249 263 279 
f 254 269 279 
f 269 249 279 
f 244 259 280 
f 259 248 280 
f 248 270 280 
f 255 236 281 
f 247 255 281 
f 236 262 281 
f 259 244 282 
f 244 263 282 
f 263 241 282 
f 241 265 282 
f 265 259 282 
f 249 257 283 
f 263 249 283 
f 241 263 283 
f 257 268 283 
f 268 241 283 
f 240 262 284 
f 262 253 284 
f 253 272 284 
f 272 256 284 
f 246 272 285 
f 272 253 285 
f 260 275 285 
f 261 239 286 
f 254 266 286 
f 266 261 286 
f 239 273 286 
f 273 254 286 
f 238 258 287 
f 258 243 287 
f 243 264 287 
f 277 238 287 
f 264 277 287 
f 240 247 288 
f 262 240 288 
f 247 281 288 
f 281 262 288 
f 258 237 289 
f 245 258 289 
f 237 276 289 
f 276 245 289 
f 247 240 290 
f 271 247 290 
f 256 271 290 
f 240 284 290 
f 284 256 290 
f 254 244 291 
f 252 266 291 
f 266 254 291 
f 244 280 291 
f 280 252 291 
f 265 260 292 
f 253 274 292 
f 274 265 292 
f 285 253 292 
f 260 285 292 
f 251 268 293 
f 268 257 293 
f 257 277 293 
f 277 251 293 
f 270 278 294 
f 252 280 294 
f 280 270 294 
f 242 261 295 
f 266 252 295 
f 261 266 295 
f 278 242 295 
f 252 294 295 
f 294 278 295 
f 267 246 296 
f 251 267 296 
f 275 251 296 
f 246 285 296 
f 285 275 296 
f 267 243 297 
f 243 271 297 
f 297 271 298 
f 246 267 298 
f 271 256 298 
f 272 246 298 
f 256 272 298 
f 267 297 298 
f 238 257 299 
f 257 249 299 
f 249 269 299 
f 276 238 299 
o convex_6
v 0.021268 -0.044358 -0.009770
v 0.021737 -0.028401 0.013223
v 0.021268 -0.028401 0.013223
v 0.021268 -0.010110 -0.016341
v 0.026430 -0.011984 -0.008362
v 0.025021 -0.037316 0.000082
v 0.021268 -0.010110 0.005244
v 0.023614 -0.033564 -0.014932
v 0.025960 -0.012454 -0.001794
v 0.021737 -0.039194 0.008528
v 0.025491 -0.036381 -0.005545
v 0.021268 -0.041541 -0.015870
v 0.024083 -0.033095 0.007591
v 0.025491 -0.010103 -0.011178
v 0.021737 -0.020431 0.011815
v 0.025491 -0.030748 0.001961
v 0.023614 -0.042011 -0.008362
v 0.022676 -0.013862 -0.016341
v 0.025021 -0.033564 -0.011178
v 0.021268 -0.042480 0.002428
v 0.024552 -0.010110 0.000552
v 0.025960 -0.032626 -0.004140
v 0.023145 -0.042011 -0.000856
v 0.024552 -0.020431 -0.013995
v 0.026430 -0.012454 -0.003669
v 0.022207 -0.030278 -0.016811
v 0.024083 -0.029340 0.007591
v 0.022207 -0.042011 -0.014462
v 0.024083 -0.038255 0.003833
v 0.021268 -0.036847 0.010407
v 0.025960 -0.010103 -0.005545
v 0.021737 -0.044358 -0.006016
v 0.022207 -0.037316 0.009463
v 0.025491 -0.031217 -0.009770
v 0.021268 -0.034973 -0.016811
v 0.025021 -0.028870 -0.012116
v 0.024552 -0.039664 -0.002732
v 0.021737 -0.010110 0.005244
v 0.024083 -0.011045 -0.013995
v 0.021268 -0.013392 -0.016811
v 0.023145 -0.032156 -0.015870
v 0.021737 -0.043888 -0.012583
v 0.021268 -0.020431 0.011815
v 0.021737 -0.041541 -0.015870
f 327 341 343 
f 300 302 303 
f 303 302 306 
f 300 303 311 
f 303 306 313 
f 302 301 314 
f 312 305 315 
f 310 316 318 
f 302 300 319 
f 314 308 320 
f 305 310 321 
f 315 305 321 
f 309 319 322 
f 313 304 323 
f 320 308 324 
f 321 304 324 
f 315 321 324 
f 301 312 326 
f 314 301 326 
f 308 314 326 
f 312 315 326 
f 324 308 326 
f 315 324 326 
f 307 318 327 
f 318 316 327 
f 305 312 328 
f 309 322 328 
f 301 302 329 
f 302 319 329 
f 319 309 329 
f 313 306 330 
f 304 313 330 
f 324 304 330 
f 320 324 330 
f 319 300 331 
f 316 322 331 
f 322 319 331 
f 312 301 332 
f 328 312 332 
f 309 328 332 
f 301 329 332 
f 329 309 332 
f 310 318 333 
f 304 321 333 
f 321 310 333 
f 311 303 334 
f 318 307 335 
f 323 304 335 
f 307 323 335 
f 304 333 335 
f 333 318 335 
f 310 305 336 
f 316 310 336 
f 322 316 336 
f 305 328 336 
f 328 322 336 
f 306 314 337 
f 314 320 337 
f 330 306 337 
f 320 330 337 
f 303 313 338 
f 317 303 338 
f 313 323 338 
f 323 317 338 
f 303 317 339 
f 317 325 339 
f 334 303 339 
f 325 334 339 
f 323 307 340 
f 317 323 340 
f 325 317 340 
f 300 311 341 
f 327 316 341 
f 331 300 341 
f 316 331 341 
f 306 302 342 
f 302 314 342 
f 314 306 342 
f 307 327 343 
f 311 334 343 
f 334 325 343 
f 340 307 343 
f 325 340 343 
f 341 311 343 
o convex_7
v 0.022206 0.008198 -0.011178
v 0.021737 -0.004941 0.004776
v 0.025491 0.000224 -0.001326
v 0.021737 -0.010103 -0.016342
v 0.025491 -0.010103 -0.010707
v 0.025491 0.011484 -0.013991
v 0.021268 -0.010103 0.004776
v 0.025021 0.011484 -0.008832
v 0.021268 0.003505 -0.005549
v 0.025021 -0.010103 -0.000857
v 0.021268 -0.007753 -0.015870
v 0.025491 0.006322 -0.014932
v 0.023145 0.010075 -0.008363
v 0.024552 0.009134 -0.014932
v 0.021268 -0.004001 0.004305
v 0.025491 0.009134 -0.006483
v 0.024552 -0.010103 -0.013053
v 0.024083 -0.010103 0.001490
v 0.025491 -0.010103 -0.002734
v 0.021268 -0.010103 -0.016342
v 0.021268 0.003036 -0.008363
v 0.022676 0.007260 -0.013053
v 0.022206 0.007260 -0.006483
v 0.024552 0.011013 -0.013991
f 357 365 367 
f 346 348 349 
f 347 348 350 
f 350 348 353 
f 350 352 354 
f 349 348 355 
f 355 347 357 
f 349 355 357 
f 350 345 358 
f 352 350 358 
f 351 356 358 
f 345 346 359 
f 346 349 359 
f 349 351 359 
f 358 345 359 
f 351 358 359 
f 348 347 360 
f 347 355 360 
f 355 348 360 
f 346 345 361 
f 345 350 361 
f 353 346 361 
f 350 353 361 
f 348 346 362 
f 346 353 362 
f 353 348 362 
f 347 350 363 
f 350 354 363 
f 354 357 363 
f 357 347 363 
f 352 344 364 
f 344 354 364 
f 354 352 364 
f 354 344 365 
f 357 354 365 
f 344 352 366 
f 356 344 366 
f 352 358 366 
f 358 356 366 
f 351 349 367 
f 344 356 367 
f 356 351 367 
f 349 357 367 
f 365 344 367 
o convex_8
v 0.030653 0.003973 -0.014933
v 0.025961 -0.000247 -0.001324
v 0.027838 -0.000247 -0.002264
v 0.025961 -0.010103 -0.008833
v 0.025491 0.011483 -0.014462
v 0.032530 0.001627 -0.006957
v 0.029245 0.011014 -0.008833
v 0.031591 -0.007287 -0.006957
v 0.025491 -0.008225 -0.002733
v 0.031121 -0.003532 -0.013524
v 0.025491 0.007259 -0.015402
v 0.025491 0.008668 -0.006020
v 0.029714 0.010544 -0.014933
v 0.033000 0.002097 -0.010710
v 0.025491 -0.008225 -0.010710
v 0.029245 -0.006348 -0.003205
v 0.029245 0.003036 -0.003672
v 0.031121 -0.006348 -0.012117
v 0.027838 0.008198 -0.016342
v 0.031591 0.006322 -0.007895
v 0.026900 0.012423 -0.011647
v 0.032060 -0.004002 -0.005549
v 0.032530 -0.004939 -0.010710
v 0.029714 -0.002593 -0.013994
v 0.032060 0.004913 -0.013524
v 0.029714 -0.008694 -0.005549
v 0.030653 -0.008225 -0.010240
v 0.026900 0.009137 -0.006020
v 0.030184 0.010544 -0.013056
v 0.033000 -0.002123 -0.008364
v 0.026430 0.011951 -0.009302
v 0.028777 0.011951 -0.014462
v 0.030653 0.005852 -0.006020
v 0.025491 0.001160 -0.001795
v 0.032530 -0.001186 -0.012586
v 0.025491 -0.010103 -0.006487
v 0.031591 -0.000717 -0.005080
v 0.032530 0.004443 -0.009771
v 0.026430 0.011483 -0.015402
v 0.025491 0.011951 -0.010710
f 398 388 407 
f 376 372 378 
f 372 376 379 
f 376 378 382 
f 370 369 383 
f 369 376 383 
f 369 370 384 
f 371 382 385 
f 368 377 386 
f 380 368 386 
f 383 375 389 
f 382 378 391 
f 377 385 391 
f 385 382 391 
f 386 377 391 
f 378 386 391 
f 368 380 392 
f 375 383 393 
f 383 376 393 
f 371 385 394 
f 390 375 394 
f 385 390 394 
f 393 371 394 
f 375 393 394 
f 374 387 396 
f 392 380 396 
f 381 373 397 
f 373 389 397 
f 389 375 397 
f 390 381 397 
f 375 390 397 
f 374 388 398 
f 379 395 398 
f 395 374 398 
f 388 374 399 
f 374 396 399 
f 396 380 399 
f 387 374 400 
f 373 387 400 
f 395 384 400 
f 374 395 400 
f 376 369 401 
f 379 376 401 
f 369 384 401 
f 395 379 401 
f 384 395 401 
f 377 368 402 
f 385 377 402 
f 381 390 402 
f 390 385 402 
f 368 392 402 
f 392 381 402 
f 382 371 403 
f 376 382 403 
f 371 393 403 
f 393 376 403 
f 370 383 404 
f 384 370 404 
f 389 373 404 
f 383 389 404 
f 373 400 404 
f 400 384 404 
f 373 381 405 
f 387 373 405 
f 381 392 405 
f 396 387 405 
f 392 396 405 
f 378 372 406 
f 386 378 406 
f 380 386 406 
f 372 388 406 
f 399 380 406 
f 388 399 406 
f 372 379 407 
f 388 372 407 
f 379 398 407 
