o convex_0
v -0.013422 -0.012049 -0.042052
v -0.038603 -0.022114 -0.050446
v -0.038603 -0.022114 -0.049325
v -0.008386 -0.038344 -0.049325
v -0.020700 -0.000856 -0.052124
v -0.036923 -0.009250 -0.042052
v -0.029648 -0.025476 -0.042052
v -0.027410 -0.038908 -0.051005
v -0.007269 -0.027712 -0.052124
v -0.036923 -0.006455 -0.051565
v -0.025730 0.000823 -0.042052
v -0.034126 -0.035549 -0.047091
v -0.015664 -0.003096 -0.042613
v -0.019579 -0.025476 -0.042052
v -0.033564 -0.000856 -0.049886
v -0.010625 -0.037784 -0.052124
v -0.022377 -0.038908 -0.047646
v -0.031887 -0.015412 -0.052124
v -0.016223 -0.008694 -0.052685
v -0.035243 -0.034426 -0.051005
v -0.007269 -0.031626 -0.047646
v -0.013422 -0.009250 -0.050446
v -0.036364 -0.017091 -0.042052
v -0.024612 0.001383 -0.050446
v -0.006707 -0.028272 -0.048767
v -0.034126 -0.003656 -0.042052
v -0.029086 -0.000856 -0.052124
v -0.019579 0.000263 -0.042052
v -0.037482 -0.006455 -0.048206
v -0.015664 -0.022114 -0.042052
v -0.009507 -0.037784 -0.048206
v -0.036364 -0.033310 -0.048767
v -0.006707 -0.035549 -0.051565
v -0.016223 -0.035549 -0.052124
v -0.038603 -0.011489 -0.051005
v -0.022933 -0.004775 -0.052685
v -0.036923 -0.020994 -0.051565
v -0.026851 -0.039468 -0.048206
v -0.030207 0.000823 -0.048206
v -0.027410 -0.036109 -0.051565
v -0.011184 -0.038908 -0.051005
v -0.034126 -0.036669 -0.049886
v -0.016223 -0.005895 -0.052124
v -0.012302 -0.011493 -0.050446
v -0.013981 -0.007574 -0.042052
v -0.034126 -0.007574 -0.052124
v -0.025171 -0.036669 -0.046531
f 38 17 47 
f 1 6 7 
f 6 1 11 
f 1 7 14 
f 9 16 19 
f 6 3 23 
f 7 6 23 
f 12 7 23 
f 1 21 25 
f 6 11 26 
f 10 15 27 
f 24 5 27 
f 15 24 27 
f 11 1 28 
f 13 5 28 
f 5 24 28 
f 24 11 28 
f 15 10 29 
f 6 26 29 
f 26 15 29 
f 1 14 30 
f 21 1 30 
f 21 30 31 
f 17 4 31 
f 14 17 31 
f 4 21 31 
f 30 14 31 
f 3 2 32 
f 2 20 32 
f 23 3 32 
f 12 23 32 
f 4 16 33 
f 16 9 33 
f 21 4 33 
f 9 25 33 
f 25 21 33 
f 19 16 34 
f 2 3 35 
f 3 6 35 
f 6 29 35 
f 29 10 35 
f 5 19 36 
f 27 5 36 
f 19 34 36 
f 34 18 36 
f 20 2 37 
f 2 35 37 
f 35 10 37 
f 4 17 38 
f 11 24 39 
f 24 15 39 
f 26 11 39 
f 15 26 39 
f 16 8 40 
f 8 20 40 
f 34 16 40 
f 18 34 40 
f 37 18 40 
f 20 37 40 
f 16 4 41 
f 8 16 41 
f 4 38 41 
f 38 8 41 
f 20 8 42 
f 32 20 42 
f 12 32 42 
f 8 38 42 
f 38 12 42 
f 5 13 43 
f 19 5 43 
f 9 19 43 
f 13 22 43 
f 43 22 44 
f 22 13 44 
f 25 9 44 
f 9 43 44 
f 25 44 45 
f 1 25 45 
f 28 1 45 
f 13 28 45 
f 44 13 45 
f 10 27 46 
f 36 18 46 
f 27 36 46 
f 37 10 46 
f 18 37 46 
f 7 12 47 
f 14 7 47 
f 17 14 47 
f 12 38 47 
o convex_1
v -0.012863 -0.008133 -0.039813
v -0.036924 -0.012602 -0.042051
v -0.036924 -0.012602 -0.041491
v -0.022935 -0.025478 -0.042051
v -0.028529 -0.018203 -0.031980
v -0.027968 -0.000857 -0.032540
v -0.013423 -0.014845 -0.031980
v -0.021258 0.000823 -0.042051
v -0.016780 -0.001977 -0.031980
v -0.014541 -0.018763 -0.042051
v -0.035244 -0.005892 -0.036457
v -0.031325 -0.001417 -0.042051
v -0.032446 -0.022678 -0.041491
v -0.033005 -0.011493 -0.031980
v -0.018460 -0.019880 -0.031980
v -0.016780 -0.001417 -0.042051
v -0.027406 0.001383 -0.037575
v -0.012863 -0.005892 -0.035338
v -0.018460 -0.023798 -0.041491
v -0.026850 -0.025478 -0.041491
v -0.020140 0.001383 -0.037575
v -0.034685 -0.015403 -0.036457
v -0.032446 -0.005892 -0.031980
v -0.030769 -0.000297 -0.036457
v -0.035244 -0.005335 -0.042051
v -0.012302 -0.012048 -0.035338
v -0.015100 -0.001977 -0.039254
v -0.021258 0.000263 -0.033100
v -0.012863 -0.009250 -0.031980
v -0.025172 -0.019880 -0.031980
v -0.013423 -0.014285 -0.042051
v -0.034685 -0.019880 -0.042051
v -0.035803 -0.010933 -0.036457
v -0.015100 -0.017643 -0.031980
f 62 66 81 
f 51 49 55 
f 52 54 56 
f 51 55 57 
f 55 49 59 
f 52 56 61 
f 54 52 62 
f 57 55 63 
f 55 59 64 
f 51 57 66 
f 62 51 66 
f 52 60 67 
f 51 62 67 
f 63 55 68 
f 55 64 68 
f 60 52 69 
f 52 61 69 
f 56 53 70 
f 61 56 70 
f 53 64 71 
f 64 59 71 
f 70 53 71 
f 58 70 71 
f 49 50 72 
f 50 58 72 
f 59 49 72 
f 58 71 72 
f 71 59 72 
f 54 57 73 
f 48 65 73 
f 48 63 74 
f 65 48 74 
f 56 65 74 
f 68 56 74 
f 63 68 74 
f 53 56 75 
f 64 53 75 
f 56 68 75 
f 68 64 75 
f 56 54 76 
f 65 56 76 
f 54 73 76 
f 73 65 76 
f 62 52 77 
f 52 67 77 
f 67 62 77 
f 63 48 78 
f 57 63 78 
f 48 73 78 
f 73 57 78 
f 50 49 79 
f 49 51 79 
f 51 67 79 
f 67 60 79 
f 69 50 79 
f 60 69 79 
f 58 50 80 
f 50 69 80 
f 69 61 80 
f 70 58 80 
f 61 70 80 
f 57 54 81 
f 54 62 81 
f 66 57 81 
o convex_2
v -0.006707 -0.010366 -0.024703
v -0.032447 -0.011486 -0.031979
v -0.032447 -0.011486 -0.031417
v -0.019577 0.006419 -0.014632
v -0.023492 -0.019880 -0.019110
v -0.019577 -0.000856 -0.031979
v -0.015102 -0.020441 -0.031417
v -0.005587 0.000261 -0.014634
v -0.025730 -0.009247 -0.014632
v -0.012304 -0.013722 -0.014632
v -0.031325 -0.004775 -0.031979
v -0.012304 -0.002539 -0.030298
v -0.010064 -0.018199 -0.021348
v -0.024052 -0.022680 -0.028060
v -0.010627 0.005858 -0.015192
v -0.010064 -0.014286 -0.031979
v -0.031325 -0.015961 -0.025264
v -0.029087 -0.004217 -0.020791
v -0.015662 -0.021561 -0.020791
v -0.024052 0.003061 -0.014632
v -0.027970 -0.018199 -0.031979
v -0.028527 -0.001975 -0.031979
v -0.005587 -0.004775 -0.014634
v -0.019017 -0.014844 -0.014632
v -0.028527 -0.014844 -0.019110
v -0.008947 -0.009808 -0.030298
v -0.018460 0.006419 -0.016313
v -0.006707 0.002500 -0.015753
v -0.016222 -0.022119 -0.029738
v -0.010627 -0.017641 -0.029738
v -0.028527 -0.019880 -0.026383
v -0.007267 -0.013725 -0.024145
v -0.013982 0.001378 -0.026383
v -0.031325 -0.007572 -0.025264
v -0.021812 -0.022680 -0.024143
v -0.024609 -0.019880 -0.031979
v -0.026290 -0.020999 -0.023583
v -0.029087 -0.007572 -0.019668
v -0.032447 -0.006453 -0.031417
v -0.022372 -0.013722 -0.014632
v -0.008947 0.003619 -0.017991
v -0.025730 -0.002539 -0.014632
v -0.013424 -0.020999 -0.026943
v -0.008387 -0.004775 -0.025821
v -0.031885 -0.014286 -0.025821
f 115 120 126 
f 89 85 91 
f 85 90 91 
f 87 83 92 
f 85 89 96 
f 83 87 97 
f 87 93 97 
f 94 91 100 
f 90 85 101 
f 83 97 102 
f 87 92 103 
f 101 85 103 
f 92 101 103 
f 82 89 104 
f 89 91 104 
f 91 94 104 
f 91 90 105 
f 86 100 105 
f 100 91 105 
f 97 93 107 
f 82 97 107 
f 85 96 108 
f 103 85 108 
f 87 103 108 
f 96 89 109 
f 88 97 111 
f 110 88 111 
f 98 83 112 
f 102 95 112 
f 83 102 112 
f 97 82 113 
f 82 104 113 
f 104 94 113 
f 94 111 113 
f 111 97 113 
f 93 87 114 
f 108 96 114 
f 87 108 114 
f 100 86 116 
f 110 100 116 
f 95 110 116 
f 97 88 117 
f 95 102 117 
f 102 97 117 
f 88 110 117 
f 110 95 117 
f 86 106 118 
f 106 98 118 
f 112 95 118 
f 98 112 118 
f 116 86 118 
f 95 116 118 
f 106 90 119 
f 99 115 119 
f 83 84 120 
f 92 83 120 
f 101 92 120 
f 99 101 120 
f 115 99 120 
f 86 105 121 
f 105 90 121 
f 106 86 121 
f 90 106 121 
f 96 109 122 
f 109 93 122 
f 93 114 122 
f 114 96 122 
f 90 101 123 
f 101 99 123 
f 119 90 123 
f 99 119 123 
f 94 100 124 
f 100 110 124 
f 111 94 124 
f 110 111 124 
f 89 82 125 
f 82 107 125 
f 107 93 125 
f 109 89 125 
f 93 109 125 
f 84 83 126 
f 83 98 126 
f 98 106 126 
f 106 119 126 
f 119 115 126 
f 120 84 126 
o convex_3
v -0.005027 -0.004770 -0.012393
v -0.025732 -0.008128 -0.014632
v -0.025170 -0.009809 -0.014632
v -0.024052 -0.005331 -0.009036
v -0.006707 0.019850 -0.009596
v -0.010625 -0.011486 -0.009036
v -0.004467 0.014253 -0.014072
v -0.024052 0.003059 -0.014632
v -0.010065 -0.012047 -0.014632
v -0.019575 0.011453 -0.009036
v -0.004467 -0.002534 -0.009036
v -0.020693 -0.014286 -0.014072
v -0.004467 0.019850 -0.009036
v -0.020135 -0.011486 -0.009036
v -0.005027 -0.002534 -0.014632
v -0.024052 0.000266 -0.009036
v -0.021815 0.005298 -0.014632
v -0.006149 0.016491 -0.012953
v -0.013422 0.016491 -0.009596
v -0.006707 -0.008128 -0.009036
v -0.014542 -0.014286 -0.014632
f 132 138 147 
f 128 129 130 
f 129 128 134 
f 129 134 135 
f 130 132 136 
f 136 132 137 
f 137 133 139 
f 136 137 139 
f 130 129 140 
f 132 130 140 
f 129 138 140 
f 138 132 140 
f 127 135 141 
f 135 134 141 
f 137 127 141 
f 133 137 141 
f 128 130 142 
f 134 128 142 
f 130 136 142 
f 136 134 142 
f 134 136 143 
f 133 141 143 
f 141 134 143 
f 131 139 144 
f 139 133 144 
f 133 143 144 
f 144 143 145 
f 139 131 145 
f 136 139 145 
f 143 136 145 
f 131 144 145 
f 135 127 146 
f 132 135 146 
f 127 137 146 
f 137 132 146 
f 135 132 147 
f 129 135 147 
f 138 129 147 
o convex_4
v 0.036941 0.010892 -0.051005
v 0.012321 0.001937 -0.043172
v 0.013442 -0.001422 -0.051005
v 0.035262 -0.023798 -0.049325
v 0.036941 0.004177 -0.042052
v 0.047574 -0.007567 -0.052124
v 0.021839 0.017045 -0.052124
v 0.029109 -0.022679 -0.052685
v 0.027430 0.015371 -0.042052
v 0.024075 -0.009807 -0.042052
v 0.014003 0.010888 -0.042052
v 0.014003 0.009210 -0.052685
v 0.024075 -0.020439 -0.048767
v 0.044215 -0.015402 -0.048767
v 0.030785 0.014805 -0.052685
v 0.031903 -0.008687 -0.042052
v 0.048135 -0.004769 -0.049886
v 0.034144 0.010888 -0.042052
v 0.035262 -0.022117 -0.052685
v 0.015122 -0.003100 -0.042052
v 0.030228 0.016487 -0.048767
v 0.029667 -0.024356 -0.048767
v 0.036941 -0.002538 -0.042052
v 0.017358 -0.008687 -0.052124
v 0.044776 -0.015960 -0.051565
v 0.012885 0.009210 -0.051565
v 0.019041 -0.013166 -0.048206
v 0.020717 0.017045 -0.049886
v 0.043655 -0.004769 -0.052685
v 0.045895 -0.001422 -0.052124
v 0.019041 0.014247 -0.042052
v 0.024075 -0.020439 -0.051565
v 0.026312 -0.021001 -0.047091
v 0.047574 -0.008687 -0.049325
v 0.017358 0.014805 -0.052124
v 0.014003 0.000255 -0.052685
v 0.012321 0.008090 -0.042052
v 0.012321 0.003615 -0.051565
v 0.033583 -0.024918 -0.051565
v 0.043097 0.003057 -0.049886
v 0.033583 0.013128 -0.044851
v 0.031346 0.015929 -0.052124
v 0.025193 0.017611 -0.049886
v 0.029667 -0.018761 -0.045970
v 0.029109 -0.024918 -0.051005
v 0.034144 -0.023798 -0.048767
f 191 169 193 
f 152 156 157 
f 157 156 158 
f 159 154 162 
f 155 159 162 
f 152 157 163 
f 156 152 165 
f 152 164 165 
f 155 162 166 
f 157 158 167 
f 152 163 170 
f 163 161 170 
f 161 151 172 
f 166 153 172 
f 149 150 174 
f 167 149 174 
f 160 167 174 
f 150 171 174 
f 153 166 176 
f 166 162 176 
f 164 153 177 
f 153 176 177 
f 176 162 177 
f 158 156 178 
f 156 175 178 
f 175 158 178 
f 171 155 179 
f 160 174 179 
f 174 171 179 
f 157 167 180 
f 167 160 180 
f 160 169 180 
f 164 152 181 
f 153 164 181 
f 152 170 181 
f 170 161 181 
f 161 172 181 
f 172 153 181 
f 154 159 182 
f 173 158 182 
f 159 173 182 
f 158 175 182 
f 175 154 182 
f 159 155 183 
f 171 150 183 
f 155 171 183 
f 149 167 184 
f 167 158 184 
f 158 173 184 
f 184 173 185 
f 150 149 185 
f 173 159 185 
f 159 183 185 
f 183 150 185 
f 149 184 185 
f 155 166 186 
f 172 151 186 
f 166 172 186 
f 165 164 187 
f 177 148 187 
f 164 177 187 
f 156 165 188 
f 168 156 188 
f 187 148 188 
f 165 187 188 
f 162 154 189 
f 148 177 189 
f 177 162 189 
f 168 188 189 
f 188 148 189 
f 156 168 190 
f 175 156 190 
f 154 175 190 
f 189 154 190 
f 168 189 190 
f 163 157 191 
f 157 180 191 
f 180 169 191 
f 169 160 192 
f 179 155 192 
f 160 179 192 
f 155 186 192 
f 186 169 192 
f 151 161 193 
f 161 163 193 
f 186 151 193 
f 169 186 193 
f 163 191 193 
o convex_5
v 0.016241 -0.005331 -0.037014
v 0.026868 0.015373 -0.041491
v 0.026868 0.015373 -0.042052
v 0.035819 -0.003092 -0.041491
v 0.029106 0.010335 -0.031422
v 0.012325 0.008096 -0.042052
v 0.013444 0.008096 -0.031422
v 0.025190 -0.007011 -0.031422
v 0.025190 -0.009250 -0.042052
v 0.034700 0.009774 -0.042052
v 0.031903 -0.000296 -0.031422
v 0.020157 0.014811 -0.035338
v 0.012885 -0.000296 -0.031422
v 0.012885 0.000266 -0.042052
v 0.018479 -0.007011 -0.031981
v 0.016241 0.013693 -0.038693
v 0.026309 0.013693 -0.032541
v 0.031343 -0.008129 -0.042052
v 0.036381 0.005298 -0.041491
v 0.011204 0.005855 -0.038134
v 0.029665 -0.004771 -0.031981
v 0.019598 0.014811 -0.042052
v 0.018479 -0.006449 -0.042052
v 0.031343 0.013134 -0.038693
v 0.021276 0.013134 -0.031422
v 0.033581 0.008656 -0.037014
v 0.013444 0.010335 -0.034779
v 0.031903 0.003621 -0.031422
v 0.012885 -0.001412 -0.034779
v 0.011766 0.005855 -0.032541
v 0.015682 0.011454 -0.032541
v 0.023514 -0.007570 -0.031422
v 0.011204 0.003621 -0.039253
f 223 213 226 
f 198 200 201 
f 199 196 202 
f 202 196 203 
f 198 201 204 
f 201 200 206 
f 199 202 207 
f 195 205 210 
f 203 197 211 
f 202 203 211 
f 197 203 212 
f 204 197 212 
f 197 204 214 
f 204 201 214 
f 201 211 214 
f 211 197 214 
f 195 196 215 
f 196 199 215 
f 205 195 215 
f 199 209 215 
f 209 205 215 
f 207 202 216 
f 194 207 216 
f 208 194 216 
f 202 208 216 
f 196 195 217 
f 203 196 217 
f 210 198 217 
f 195 210 217 
f 200 198 218 
f 198 210 218 
f 210 205 218 
f 212 203 219 
f 203 217 219 
f 217 198 219 
f 209 199 220 
f 199 213 220 
f 198 204 221 
f 204 212 221 
f 219 198 221 
f 212 219 221 
f 207 194 222 
f 194 208 222 
f 208 206 222 
f 206 200 223 
f 200 220 223 
f 220 213 223 
f 205 209 224 
f 200 218 224 
f 218 205 224 
f 209 220 224 
f 220 200 224 
f 201 206 225 
f 208 202 225 
f 206 208 225 
f 211 201 225 
f 202 211 225 
f 199 207 226 
f 213 199 226 
f 207 222 226 
f 222 206 226 
f 206 223 226 
o convex_6
v 0.025187 -0.010926 -0.023585
v 0.015123 0.013694 -0.014632
v 0.017920 0.013132 -0.014632
v 0.025749 0.012572 -0.031420
v 0.009525 -0.000854 -0.028061
v 0.007285 -0.003652 -0.014632
v 0.031344 -0.001411 -0.019670
v 0.025749 -0.010926 -0.030858
v 0.005046 0.009215 -0.016873
v 0.034144 0.005858 -0.030299
v 0.013442 0.007536 -0.031420
v 0.023509 -0.003652 -0.014632
v 0.017362 -0.010926 -0.030299
v 0.030786 0.008094 -0.021348
v 0.035264 -0.001414 -0.028061
v 0.025187 0.006977 -0.014632
v 0.020712 0.012572 -0.031420
v 0.004488 -0.000854 -0.014632
v 0.019037 -0.010366 -0.020789
v 0.030786 -0.007569 -0.023026
v 0.006727 0.011453 -0.014632
v 0.031344 -0.001411 -0.031420
v 0.016243 -0.007569 -0.031420
v 0.012322 -0.005331 -0.030299
v 0.029105 -0.010366 -0.029178
v 0.003927 0.005858 -0.016873
v 0.019595 -0.005331 -0.014632
v 0.026865 -0.008128 -0.019670
v 0.018479 -0.011488 -0.025262
v 0.031905 0.003617 -0.020229
v 0.007847 0.010894 -0.019110
v 0.010086 0.013132 -0.015192
v 0.034144 -0.002533 -0.030299
v 0.033025 0.006977 -0.024705
v 0.009525 0.003060 -0.028061
v 0.028546 0.010894 -0.028061
v 0.005608 0.000265 -0.020229
v 0.020712 0.012013 -0.014632
v 0.025749 0.001941 -0.014632
v 0.015123 -0.009807 -0.021908
v 0.034144 -0.000854 -0.024145
v 0.003927 0.007536 -0.014632
v 0.010086 -0.004771 -0.014632
f 266 245 269 
f 228 229 230 
f 229 228 232 
f 229 232 238 
f 229 238 242 
f 228 230 243 
f 230 237 243 
f 232 228 244 
f 239 232 244 
f 244 228 247 
f 230 236 248 
f 237 230 248 
f 234 239 249 
f 237 248 249 
f 248 234 249 
f 231 237 250 
f 239 244 250 
f 237 249 250 
f 249 239 250 
f 227 234 251 
f 246 227 251 
f 241 246 251 
f 238 232 253 
f 253 245 254 
f 233 238 254 
f 245 227 254 
f 227 246 254 
f 246 233 254 
f 238 253 254 
f 234 227 255 
f 239 234 255 
f 227 245 255 
f 240 242 256 
f 237 235 257 
f 243 237 257 
f 235 247 257 
f 257 247 258 
f 228 243 258 
f 247 228 258 
f 243 257 258 
f 236 241 259 
f 248 236 259 
f 234 248 259 
f 251 234 259 
f 241 251 259 
f 241 236 260 
f 240 256 260 
f 237 231 261 
f 235 237 261 
f 231 252 261 
f 252 235 261 
f 236 230 262 
f 260 236 262 
f 240 260 262 
f 231 250 263 
f 250 244 263 
f 252 231 263 
f 244 252 263 
f 230 229 264 
f 229 242 264 
f 242 240 264 
f 262 230 264 
f 240 262 264 
f 238 233 265 
f 242 238 265 
f 233 256 265 
f 256 242 265 
f 232 239 266 
f 239 255 266 
f 255 245 266 
f 233 246 267 
f 246 241 267 
f 256 233 267 
f 241 260 267 
f 260 256 267 
f 247 235 268 
f 244 247 268 
f 235 252 268 
f 252 244 268 
f 253 232 269 
f 245 253 269 
f 232 266 269 
o convex_7
v 0.023510 0.001943 -0.010715
v -0.004467 -0.002534 -0.009596
v -0.004467 -0.002534 -0.009036
v -0.004467 0.019850 -0.009036
v 0.003929 0.008097 -0.014632
v 0.019031 -0.005332 -0.014632
v 0.019594 0.012575 -0.014632
v 0.021272 0.009215 -0.009036
v -0.001669 -0.012048 -0.009036
v -0.004467 0.014251 -0.014072
v 0.005607 -0.002534 -0.014632
v 0.019031 -0.003093 -0.009036
v 0.009523 0.019288 -0.009596
v 0.025191 0.006418 -0.014632
v -0.000548 -0.010927 -0.010715
v 0.022393 -0.004211 -0.014072
v 0.005607 -0.010927 -0.009036
v -0.001669 0.015931 -0.013512
v 0.011201 0.018725 -0.009036
v -0.004467 0.012013 -0.014072
v 0.015678 0.013692 -0.014632
v 0.025191 0.000267 -0.014632
v -0.002786 -0.010927 -0.009596
v 0.023510 0.009215 -0.013512
v 0.009523 -0.004773 -0.014632
f 284 280 294 
f 271 272 273 
f 275 274 276 
f 273 272 277 
f 277 272 278 
f 271 273 279 
f 274 275 280 
f 270 277 281 
f 277 278 281 
f 275 276 283 
f 277 270 283 
f 270 281 285 
f 281 278 286 
f 278 284 286 
f 284 275 286 
f 275 285 286 
f 285 281 286 
f 279 273 287 
f 273 282 287 
f 273 277 288 
f 282 273 288 
f 276 282 288 
f 271 279 289 
f 279 274 289 
f 274 280 289 
f 280 284 289 
f 276 274 290 
f 274 279 290 
f 282 276 290 
f 279 287 290 
f 287 282 290 
f 283 270 291 
f 275 283 291 
f 285 275 291 
f 270 285 291 
f 272 271 292 
f 278 272 292 
f 284 278 292 
f 271 289 292 
f 289 284 292 
f 283 276 293 
f 277 283 293 
f 288 277 293 
f 276 288 293 
f 280 275 294 
f 275 284 294 
o convex_8
v 0.038622 0.000264 0.001039
v 0.027430 0.010894 0.021180
v 0.027430 0.012013 0.020620
v 0.026870 -0.003090 0.006076
v 0.038622 -0.009249 0.011110
v 0.038622 0.008657 0.011668
v 0.026870 0.012013 0.011110
v 0.026870 -0.004213 0.016703
v 0.036942 -0.000294 0.016703
v 0.038061 -0.010928 0.006634
v 0.035823 0.006419 0.003278
v 0.033584 -0.005332 0.002159
v 0.029669 0.001941 0.003836
v 0.038622 0.008657 0.006076
v 0.026870 0.004737 0.021180
v 0.027989 -0.005332 0.006076
v 0.026870 0.013134 0.019501
v 0.038622 0.002500 0.015025
v 0.031907 -0.003090 0.017263
v 0.038622 -0.007567 0.003278
v 0.027430 0.013134 0.015585
v 0.038061 -0.010928 0.009432
v 0.033025 0.003621 0.002719
v 0.026870 0.006419 0.007754
f 301 317 318 
f 299 295 300 
f 301 298 302 
f 306 298 307 
f 300 295 308 
f 295 305 308 
f 305 301 308 
f 301 302 309 
f 303 296 309 
f 302 298 310 
f 306 304 310 
f 298 306 310 
f 296 297 311 
f 297 300 311 
f 309 296 311 
f 301 309 311 
f 297 296 312 
f 299 300 312 
f 300 297 312 
f 296 303 312 
f 303 299 312 
f 302 299 313 
f 299 303 313 
f 309 302 313 
f 303 309 313 
f 295 299 314 
f 299 304 314 
f 306 295 314 
f 304 306 314 
f 300 308 315 
f 308 301 315 
f 311 300 315 
f 301 311 315 
f 299 302 316 
f 304 299 316 
f 302 310 316 
f 310 304 316 
f 305 295 317 
f 301 305 317 
f 295 306 317 
f 306 307 317 
f 317 307 318 
f 298 301 318 
f 307 298 318 
o convex_9
v 0.045899 -0.019322 0.006634
v 0.041424 0.008658 0.009431
v 0.041424 0.008658 0.007193
v 0.067721 -0.019878 0.009431
v 0.050377 -0.020442 0.017825
v 0.038622 -0.000856 0.001037
v 0.038622 -0.009809 0.011669
v 0.054849 -0.009247 0.015585
v 0.038622 0.001941 0.014466
v 0.058204 -0.020442 0.003835
v 0.047016 0.001383 0.003277
v 0.045899 0.006977 0.008313
v 0.062679 -0.020442 0.015585
v 0.046458 -0.020442 0.016144
v 0.040302 -0.013167 0.004954
v 0.059885 -0.011486 0.005515
v 0.057646 -0.007570 0.012786
v 0.038622 0.007538 0.012226
v 0.038622 0.005858 0.002716
v 0.045341 0.006977 0.005515
v 0.052613 -0.020442 0.004396
v 0.059885 -0.009247 0.007193
v 0.058763 -0.016522 0.003835
v 0.052613 -0.010928 0.016704
v 0.042544 -0.017639 0.010548
v 0.038622 -0.011486 0.006075
v 0.065479 -0.020442 0.006634
v 0.067160 -0.019322 0.011669
v 0.038622 -0.003095 0.014466
v 0.045341 -0.020442 0.008313
v 0.054288 -0.004778 0.013347
v 0.058763 -0.007570 0.009989
v 0.040302 0.003060 0.001597
v 0.038622 -0.007006 0.002716
v 0.059885 -0.019878 0.016704
v 0.040302 0.006977 0.012226
v 0.038622 0.008658 0.006075
v 0.039744 -0.013167 0.011669
f 332 347 356 
f 324 325 327 
f 321 320 330 
f 323 328 331 
f 328 323 332 
f 326 331 335 
f 324 327 336 
f 324 336 337 
f 321 330 338 
f 334 329 338 
f 324 328 339 
f 328 332 339 
f 319 333 339 
f 322 334 340 
f 338 330 340 
f 334 338 340 
f 328 324 341 
f 329 334 341 
f 327 323 342 
f 325 324 344 
f 322 331 345 
f 331 328 345 
f 334 322 345 
f 328 341 345 
f 341 334 345 
f 331 322 346 
f 335 331 346 
f 323 327 347 
f 327 325 347 
f 332 323 347 
f 333 319 348 
f 319 339 348 
f 339 332 348 
f 332 343 348 
f 344 333 348 
f 343 344 348 
f 335 330 349 
f 326 335 349 
f 330 335 350 
f 322 340 350 
f 340 330 350 
f 346 322 350 
f 335 346 350 
f 324 337 351 
f 338 329 351 
f 337 338 351 
f 341 324 351 
f 329 341 351 
f 324 339 352 
f 339 333 352 
f 333 344 352 
f 344 324 352 
f 331 326 353 
f 323 331 353 
f 342 323 353 
f 326 342 353 
f 330 320 354 
f 320 336 354 
f 336 327 354 
f 327 342 354 
f 342 326 354 
f 349 330 354 
f 326 349 354 
f 320 321 355 
f 336 320 355 
f 337 336 355 
f 321 338 355 
f 338 337 355 
f 343 332 356 
f 344 343 356 
f 325 344 356 
f 347 325 356 
o convex_10
v -0.050909 -0.027716 0.010550
v -0.024613 -0.016524 0.016705
v -0.024613 -0.017085 0.016705
v -0.059868 -0.034991 0.017824
v -0.052027 -0.016524 0.017824
v -0.037485 -0.016524 0.006075
v -0.041961 -0.033869 0.017824
v -0.035811 -0.023240 0.008312
v -0.053711 -0.019325 0.012787
v -0.050353 -0.036669 0.014466
v -0.030769 -0.017085 0.006634
v -0.048669 -0.016524 0.009992
v -0.057069 -0.038908 0.017263
v -0.036926 -0.016524 0.017824
v -0.035249 -0.024918 0.010550
v -0.043079 -0.024918 0.008312
v -0.053152 -0.023240 0.011111
v -0.024613 -0.017085 0.015025
v -0.053711 -0.032751 0.012787
v -0.043079 -0.019883 0.007193
v -0.055385 -0.021003 0.017263
v -0.046437 -0.034430 0.013347
v -0.049794 -0.037786 0.017824
v -0.059868 -0.033308 0.017263
v -0.026853 -0.017085 0.017263
v -0.050909 -0.033308 0.012228
v -0.036370 -0.020444 0.006634
v -0.039728 -0.026038 0.008872
f 372 383 384 
f 361 358 362 
f 361 360 363 
f 362 358 367 
f 361 362 368 
f 365 361 368 
f 358 361 370 
f 361 363 370 
f 364 367 371 
f 365 368 373 
f 358 359 374 
f 359 363 374 
f 367 358 374 
f 363 371 374 
f 371 367 374 
f 369 360 375 
f 373 357 375 
f 368 362 376 
f 372 357 376 
f 357 373 376 
f 373 368 376 
f 360 361 377 
f 361 365 377 
f 371 363 378 
f 364 371 378 
f 363 360 379 
f 360 369 379 
f 369 366 379 
f 378 363 379 
f 366 378 379 
f 365 373 380 
f 375 360 380 
f 373 375 380 
f 360 377 380 
f 377 365 380 
f 359 358 381 
f 363 359 381 
f 358 370 381 
f 370 363 381 
f 366 369 382 
f 357 372 382 
f 369 375 382 
f 375 357 382 
f 378 366 382 
f 362 367 383 
f 367 364 383 
f 376 362 383 
f 372 376 383 
f 364 378 384 
f 382 372 384 
f 378 382 384 
f 383 364 384 
o convex_11
v -0.042519 -0.035550 0.049163
v -0.034126 -0.030514 0.064271
v -0.035806 -0.030514 0.064271
v -0.040280 -0.038347 0.048045
v -0.039162 -0.033313 0.049163
v -0.036366 -0.032753 0.063709
v -0.034126 -0.032194 0.062030
v -0.038602 -0.036110 0.048045
v -0.041959 -0.034431 0.047483
v -0.042519 -0.037788 0.048045
f 393 388 394 
f 387 386 389 
f 387 385 390 
f 386 387 390 
f 390 388 391 
f 389 386 391 
f 386 390 391 
f 391 388 392 
f 389 391 392 
f 385 387 393 
f 387 389 393 
f 392 388 393 
f 389 392 393 
f 390 385 394 
f 388 390 394 
f 385 393 394 
o convex_12
v 0.053731 -0.037786 0.008871
v 0.067718 -0.020442 0.011669
v 0.067718 -0.020442 0.008871
v 0.045338 -0.020442 0.013908
v 0.055412 -0.023242 0.001037
v 0.062124 -0.037227 0.012788
v 0.066598 -0.033310 0.005516
v 0.043098 -0.031631 0.011669
v 0.048139 -0.020442 0.006633
v 0.066037 -0.024921 0.013908
v 0.044780 -0.032750 0.013908
v 0.060443 -0.026598 0.001037
v 0.069400 -0.027159 0.010549
v 0.059884 -0.020442 0.002716
v 0.045897 -0.031631 0.008311
v 0.056527 -0.027159 0.001037
v 0.067718 -0.023242 0.006633
v 0.055412 -0.037227 0.007194
v 0.059884 -0.038908 0.012227
v 0.061563 -0.036108 0.013908
v 0.064920 -0.020442 0.013908
v 0.045338 -0.020442 0.009429
v 0.061004 -0.038908 0.009988
v 0.061004 -0.032750 0.003835
v 0.043098 -0.024921 0.013908
v 0.068280 -0.026598 0.012788
v 0.068280 -0.031070 0.006633
v 0.057086 -0.038908 0.012227
v 0.061563 -0.024360 0.001597
v 0.044218 -0.031631 0.009429
f 416 403 424 
f 396 397 398 
f 398 397 403 
f 402 395 405 
f 404 398 405 
f 397 396 407 
f 403 397 408 
f 399 403 408 
f 399 406 410 
f 409 399 410 
f 397 407 411 
f 408 397 411 
f 409 410 412 
f 404 405 414 
f 413 400 414 
f 396 398 415 
f 398 404 415 
f 398 403 416 
f 401 400 417 
f 395 412 417 
f 400 413 417 
f 406 401 418 
f 410 406 418 
f 412 410 418 
f 401 417 418 
f 417 412 418 
f 402 405 419 
f 405 398 419 
f 398 416 419 
f 416 402 419 
f 407 396 420 
f 400 407 420 
f 404 414 420 
f 414 400 420 
f 396 415 420 
f 415 404 420 
f 400 401 421 
f 407 400 421 
f 411 407 421 
f 405 395 422 
f 414 405 422 
f 413 414 422 
f 395 417 422 
f 417 413 422 
f 406 399 423 
f 401 406 423 
f 399 408 423 
f 408 411 423 
f 421 401 423 
f 411 421 423 
f 395 402 424 
f 403 399 424 
f 399 409 424 
f 412 395 424 
f 409 412 424 
f 402 416 424 
o convex_13
v 0.045338 -0.034429 0.015027
v 0.064363 -0.020442 0.014467
v 0.064363 -0.038347 0.018384
v 0.038625 -0.028838 0.018384
v 0.061560 -0.034987 0.013908
v 0.045338 -0.020442 0.013908
v 0.052608 -0.020442 0.017824
v 0.060446 -0.041706 0.018384
v 0.038065 -0.030516 0.014467
v 0.038065 -0.033869 0.018384
v 0.051488 -0.035549 0.013908
v 0.061006 -0.021004 0.016705
v 0.064363 -0.030516 0.013908
v 0.063803 -0.041144 0.017264
v 0.047578 -0.020442 0.017264
v 0.037502 -0.028276 0.016705
v 0.064363 -0.020442 0.013908
f 437 430 441 
f 428 427 431 
f 426 430 431 
f 427 428 432 
f 432 428 434 
f 425 432 434 
f 433 425 434 
f 430 429 435 
f 432 425 435 
f 425 433 435 
f 433 430 435 
f 427 426 436 
f 431 427 436 
f 426 431 436 
f 426 427 437 
f 429 430 437 
f 427 432 438 
f 435 429 438 
f 432 435 438 
f 437 427 438 
f 429 437 438 
f 428 431 439 
f 431 430 439 
f 430 433 440 
f 434 428 440 
f 433 434 440 
f 428 439 440 
f 439 430 440 
f 430 426 441 
f 426 437 441 
o convex_14
v 0.058768 -0.042825 0.020064
v 0.062684 -0.036110 0.018945
v 0.063803 -0.037230 0.019505
v 0.055410 -0.043384 0.027337
v 0.059327 -0.036110 0.018385
v 0.063803 -0.040588 0.018385
v 0.057089 -0.045623 0.026777
v 0.054290 -0.043384 0.023980
v 0.054851 -0.041705 0.026217
v 0.059327 -0.041146 0.018385
f 449 446 451 
f 446 443 447 
f 443 444 447 
f 442 447 448 
f 444 445 448 
f 447 444 448 
f 448 445 449 
f 442 448 449 
f 446 449 450 
f 444 443 450 
f 445 444 450 
f 443 446 450 
f 449 445 450 
f 446 447 451 
f 447 442 451 
f 442 449 451 
o convex_15
v -0.038605 -0.032750 0.026215
v -0.062106 -0.040026 0.021184
v -0.062104 -0.043944 0.021744
v -0.047001 -0.047299 0.017825
v -0.038605 -0.016528 0.017825
v -0.056506 -0.038902 0.030695
v -0.053151 -0.017645 0.017825
v -0.040846 -0.047858 0.025659
v -0.045879 -0.018207 0.022305
v -0.053148 -0.049537 0.026776
v -0.043641 -0.039461 0.030695
v -0.060425 -0.037223 0.017825
v -0.037491 -0.026601 0.017825
v -0.055946 -0.050099 0.020064
v -0.061539 -0.033871 0.022862
v -0.041967 -0.027163 0.026776
v -0.054267 -0.033312 0.029574
v -0.055387 -0.045620 0.030135
v -0.039727 -0.046182 0.022862
v -0.044763 -0.044502 0.030695
v -0.061542 -0.045061 0.024540
v -0.038048 -0.038347 0.026215
v -0.050913 -0.016528 0.019504
v -0.036924 -0.019328 0.018385
v -0.061539 -0.034426 0.018946
v -0.057063 -0.034985 0.029016
v -0.048120 -0.048979 0.018385
v -0.040286 -0.027163 0.026215
v -0.043082 -0.016528 0.020625
v -0.058184 -0.041147 0.029574
v -0.050910 -0.047299 0.017825
v -0.050913 -0.018207 0.021184
v -0.059863 -0.047299 0.023980
v -0.058744 -0.047858 0.020064
v -0.050910 -0.048979 0.027895
v -0.052591 -0.050099 0.022305
v -0.053710 -0.019328 0.019504
v -0.062104 -0.040026 0.023980
f 472 481 489 
f 456 455 458 
f 458 455 463 
f 455 456 464 
f 462 467 468 
f 457 462 468 
f 467 460 468 
f 455 464 470 
f 462 457 471 
f 457 469 471 
f 452 462 473 
f 459 470 473 
f 470 464 473 
f 471 459 473 
f 462 471 473 
f 456 458 474 
f 464 456 475 
f 452 473 475 
f 473 464 475 
f 454 453 476 
f 463 454 476 
f 458 463 476 
f 453 466 476 
f 466 458 476 
f 457 468 477 
f 455 470 478 
f 470 459 478 
f 462 452 479 
f 467 462 479 
f 475 456 479 
f 452 475 479 
f 460 467 480 
f 456 474 480 
f 474 460 480 
f 479 456 480 
f 467 479 480 
f 469 457 481 
f 472 469 481 
f 457 477 481 
f 477 466 481 
f 463 455 482 
f 455 478 482 
f 478 465 482 
f 468 460 483 
f 460 474 483 
f 477 468 483 
f 465 461 484 
f 461 469 484 
f 472 454 484 
f 469 472 484 
f 454 463 485 
f 463 482 485 
f 482 465 485 
f 484 454 485 
f 465 484 485 
f 461 459 486 
f 469 461 486 
f 459 471 486 
f 471 469 486 
f 459 461 487 
f 461 465 487 
f 478 459 487 
f 465 478 487 
f 458 466 488 
f 474 458 488 
f 466 477 488 
f 483 474 488 
f 477 483 488 
f 453 454 489 
f 466 453 489 
f 454 472 489 
f 481 466 489 
o convex_16
v -0.022935 0.008661 0.045243
v -0.016221 0.023767 0.041328
v -0.015101 0.023206 0.042447
v -0.012861 0.007538 0.040210
v -0.039162 0.011457 0.039089
v -0.033566 0.014253 0.044684
v -0.019020 0.023206 0.039089
v -0.012861 0.019849 0.044126
v -0.038599 0.008660 0.039089
v -0.012861 0.007538 0.043006
v -0.030770 0.018169 0.041328
v -0.015660 0.022645 0.039089
v -0.019020 0.010898 0.045805
v -0.012861 0.009219 0.039651
v -0.036361 0.010337 0.043006
v -0.028530 0.013695 0.045805
v -0.012861 0.020968 0.041888
v -0.016782 0.022645 0.043006
v -0.031887 0.017608 0.039089
v -0.036923 0.013136 0.043006
v -0.026293 0.009780 0.045805
v -0.038599 0.008660 0.040210
f 510 504 511 
f 494 496 498 
f 493 497 499 
f 498 493 499 
f 491 496 500 
f 491 492 501 
f 496 491 501 
f 498 496 501 
f 499 497 502 
f 490 499 502 
f 497 493 503 
f 493 498 503 
f 498 501 503 
f 502 497 505 
f 492 497 506 
f 501 492 506 
f 497 503 506 
f 503 501 506 
f 492 491 507 
f 497 492 507 
f 491 500 507 
f 500 495 507 
f 495 505 507 
f 505 497 507 
f 496 494 508 
f 500 496 508 
f 500 508 509 
f 495 500 509 
f 504 495 509 
f 508 494 509 
f 490 502 510 
f 495 504 510 
f 505 495 510 
f 502 505 510 
f 494 498 511 
f 499 490 511 
f 498 499 511 
f 509 494 511 
f 504 509 511 
f 490 510 511 
o convex_17
v -0.035245 -0.027157 0.043004
v -0.054271 -0.050658 0.036855
v -0.052591 -0.052339 0.036855
v -0.036927 -0.029957 0.031257
v -0.039164 -0.037231 0.047483
v -0.044201 -0.043945 0.030695
v -0.048674 -0.039467 0.030695
v -0.049235 -0.043945 0.046921
v -0.035810 -0.032195 0.031818
v -0.039722 -0.028838 0.035173
v -0.050352 -0.051777 0.038531
v -0.042521 -0.034993 0.047483
v -0.047557 -0.045624 0.047483
v -0.053710 -0.047303 0.037970
v -0.039165 -0.028278 0.031818
v -0.048676 -0.043945 0.030695
v -0.035245 -0.029957 0.043004
v -0.037486 -0.027719 0.043004
v -0.039724 -0.038350 0.046361
v -0.049235 -0.045624 0.047483
v -0.048114 -0.038907 0.033494
v -0.035810 -0.029400 0.031818
f 515 526 533 
f 515 517 518 
f 517 515 520 
f 514 517 522 
f 516 512 523 
f 516 523 524 
f 518 513 525 
f 519 523 525 
f 515 518 526 
f 518 521 526 
f 514 513 527 
f 517 514 527 
f 518 517 527 
f 513 518 527 
f 512 516 528 
f 520 512 528 
f 516 520 528 
f 523 512 529 
f 512 526 529 
f 526 521 529 
f 520 516 530 
f 517 520 530 
f 522 517 530 
f 524 522 530 
f 516 524 530 
f 513 514 531 
f 514 522 531 
f 523 519 531 
f 522 524 531 
f 524 523 531 
f 525 513 531 
f 519 525 531 
f 521 518 532 
f 518 525 532 
f 525 523 532 
f 523 529 532 
f 529 521 532 
f 512 520 533 
f 520 515 533 
f 526 512 533 
o convex_18
v -0.020133 0.015370 0.029574
v -0.000550 0.032161 0.013351
v -0.000550 0.032161 0.012789
v 0.026870 -0.001975 0.009431
v -0.030769 0.007541 0.009433
v 0.008957 0.000264 0.031255
v 0.016793 0.023206 0.027895
v -0.030204 -0.001971 0.016709
v 0.024066 0.023206 0.009431
v -0.013419 0.028799 0.009433
v 0.026870 0.005303 0.021740
v -0.003901 0.023764 0.031255
v -0.001673 -0.001975 0.031255
v -0.020133 -0.001971 0.009433
v -0.007823 0.031041 0.020067
v -0.028529 0.011458 0.020067
v -0.023490 -0.001971 0.024539
v 0.011755 0.022644 0.031255
v 0.019033 -0.001975 0.025096
v -0.019016 0.013138 0.031255
v 0.022390 0.023206 0.020621
v -0.018458 0.024883 0.015028
v 0.010638 0.029361 0.009433
v 0.026870 0.013696 0.019505
v -0.026847 0.011458 0.024539
v 0.003924 0.029922 0.020067
v -0.025172 0.017609 0.011112
v 0.026870 -0.001975 0.017826
v -0.007823 0.032161 0.009993
v 0.000009 0.028241 0.025658
v 0.010638 0.002503 0.031255
v -0.012861 0.026003 0.023419
v 0.026870 0.011458 0.010552
v 0.012319 0.028241 0.017267
v -0.022373 0.019286 0.020067
v -0.028529 -0.001971 0.012789
v -0.030769 0.009780 0.012789
v -0.011180 0.030480 0.016709
v -0.007823 0.027683 0.025658
v 0.024066 0.023206 0.016149
v -0.015659 0.017609 0.031255
v 0.026870 0.010900 0.021740
v -0.005024 0.032161 0.017829
v -0.004466 -0.000855 0.031255
v 0.025189 0.021525 0.009431
v 0.016793 0.020964 0.028454
v -0.021250 -0.001971 0.025658
v -0.022373 0.010900 0.029016
v -0.025172 -0.001971 0.023419
v -0.029087 0.010338 0.020619
v 0.010080 0.023764 0.030693
v 0.020150 0.023206 0.024536
v -0.030204 0.010338 0.009433
v 0.016235 0.024322 0.026218
v -0.018458 0.023764 0.018948
v 0.003924 -0.001975 0.031255
v 0.000009 0.031599 0.009433
v 0.007281 0.029922 0.017267
v -0.010062 0.031596 0.014470
f 548 576 592 
f 537 538 542 
f 539 545 546 
f 538 537 547 
f 545 539 551 
f 546 537 552 
f 546 545 553 
f 536 535 556 
f 544 537 557 
f 555 543 560 
f 537 544 561 
f 552 537 561 
f 544 552 561 
f 535 536 562 
f 551 539 564 
f 552 544 564 
f 539 552 564 
f 557 537 566 
f 549 558 568 
f 558 534 568 
f 560 549 568 
f 555 560 568 
f 541 538 569 
f 537 546 569 
f 546 541 569 
f 547 537 569 
f 538 547 569 
f 538 541 570 
f 549 560 570 
f 565 548 571 
f 545 563 572 
f 563 548 572 
f 548 565 572 
f 542 556 573 
f 554 557 573 
f 567 554 573 
f 556 567 573 
f 534 553 574 
f 553 545 574 
f 565 534 574 
f 545 572 574 
f 572 565 574 
f 544 557 575 
f 557 554 575 
f 535 562 576 
f 548 563 576 
f 563 559 576 
f 546 553 577 
f 537 542 578 
f 566 537 578 
f 557 566 578 
f 542 573 578 
f 573 557 578 
f 540 551 579 
f 551 564 579 
f 564 544 579 
f 544 575 579 
f 575 540 579 
f 550 546 580 
f 546 577 580 
f 577 553 580 
f 553 534 581 
f 534 558 581 
f 550 580 581 
f 580 553 581 
f 541 546 582 
f 546 550 582 
f 558 541 582 
f 550 581 582 
f 581 558 582 
f 541 558 583 
f 558 549 583 
f 570 541 583 
f 549 570 583 
f 551 540 584 
f 545 551 584 
f 563 545 584 
f 559 563 584 
f 554 567 585 
f 540 575 585 
f 575 554 585 
f 542 538 586 
f 543 542 586 
f 560 543 586 
f 538 570 586 
f 570 560 586 
f 584 540 587 
f 559 584 587 
f 540 585 587 
f 585 567 587 
f 534 565 588 
f 568 534 588 
f 555 568 588 
f 571 555 588 
f 565 571 588 
f 539 546 589 
f 552 539 589 
f 546 552 589 
f 542 543 590 
f 536 556 590 
f 556 542 590 
f 562 536 590 
f 543 562 590 
f 556 535 591 
f 567 556 591 
f 535 576 591 
f 576 559 591 
f 559 587 591 
f 587 567 591 
f 543 555 592 
f 562 543 592 
f 555 571 592 
f 571 548 592 
f 576 562 592 
o convex_19
v -0.038602 0.011456 0.033493
v -0.012861 0.018171 0.032374
v -0.012861 0.018171 0.031255
v -0.013981 0.013135 0.031255
v -0.012861 0.014812 0.032934
v -0.039722 0.014254 0.034053
v -0.035804 0.010896 0.034053
v -0.037482 0.013135 0.032934
f 598 595 600 
f 595 594 597 
f 596 595 597 
f 594 595 598 
f 597 594 598 
f 597 598 599 
f 593 596 599 
f 596 597 599 
f 598 593 599 
f 595 596 600 
f 596 593 600 
f 593 598 600 
o convex_20
v -0.009504 -0.002534 0.035173
v -0.012302 0.019287 0.044126
v -0.012302 0.019850 0.043565
v -0.012861 0.004742 0.037969
v -0.009504 0.019850 0.031255
v -0.012861 0.018728 0.031255
v -0.009504 0.002502 0.043565
v -0.009504 0.013693 0.043006
v -0.012861 0.008094 0.043565
v -0.011742 -0.001415 0.036853
v -0.012861 0.013693 0.031255
v -0.010063 -0.004213 0.039648
v -0.012861 0.019850 0.043565
v -0.009504 0.014811 0.031255
f 611 605 614 
f 601 605 607 
f 607 605 608 
f 603 602 608 
f 605 603 608 
f 602 607 608 
f 606 604 609 
f 607 602 609 
f 609 604 610 
f 601 610 611 
f 606 605 611 
f 604 606 611 
f 610 604 611 
f 601 607 612 
f 607 609 612 
f 609 610 612 
f 610 601 612 
f 602 603 613 
f 603 605 613 
f 605 606 613 
f 609 602 613 
f 606 609 613 
f 605 601 614 
f 601 611 614 
o convex_21
v 0.008400 0.013693 0.046921
v -0.009501 -0.005332 0.037412
v -0.009501 -0.005332 0.039091
v 0.013998 -0.007568 0.037973
v -0.003906 0.023207 0.031259
v -0.005023 0.003064 0.048041
v 0.010640 0.022645 0.031255
v 0.002249 -0.005891 0.031259
v -0.009501 0.013134 0.043005
v 0.019032 0.006415 0.036294
v 0.007841 -0.001974 0.047481
v -0.009501 0.014811 0.031259
v 0.002807 -0.011485 0.039650
v 0.000570 0.017051 0.045802
v 0.013998 -0.001412 0.032375
v 0.017915 0.009773 0.040208
v 0.014557 0.000828 0.044684
v -0.002227 -0.003651 0.046921
v 0.006162 0.008095 0.049160
v -0.004467 -0.007009 0.033495
v 0.009520 -0.011485 0.037412
v 0.003927 0.019849 0.042444
v -0.009501 0.020408 0.032377
v 0.013998 0.015929 0.040208
v -0.001106 0.010891 0.048600
v -0.002785 0.018728 0.043005
v 0.010640 -0.010367 0.040208
v 0.018473 0.000265 0.039091
v 0.011199 0.008655 0.047483
v -0.006705 0.002505 0.031259
v -0.009501 0.000824 0.043564
v 0.000570 0.001942 0.049160
v 0.009520 -0.005891 0.031818
v 0.002249 -0.004770 0.046921
v -0.005023 -0.008690 0.039650
v 0.017356 0.002505 0.034054
v -0.009501 -0.001412 0.034056
v 0.001128 -0.008127 0.032377
v 0.010640 0.002505 0.031255
v -0.004467 0.012571 0.046921
v 0.010082 0.002505 0.048041
v -0.002227 0.023207 0.032936
v 0.006721 0.018728 0.043005
v 0.002249 -0.011485 0.037971
v -0.007822 0.005304 0.046361
v 0.017356 0.012012 0.039650
v 0.008961 0.023207 0.031818
v 0.004486 0.013693 0.048041
v -0.005584 -0.001412 0.046361
v 0.013439 -0.008127 0.039650
v 0.011761 -0.003651 0.044684
v 0.018473 0.006974 0.040208
f 630 643 666 
f 616 617 623 
f 619 621 626 
f 616 623 626 
f 619 626 637 
f 626 623 637 
f 628 636 640 
f 637 623 640 
f 627 635 641 
f 615 633 643 
f 622 634 644 
f 623 617 645 
f 620 632 646 
f 639 620 646 
f 633 639 646 
f 629 618 647 
f 618 635 647 
f 632 627 648 
f 641 625 648 
f 627 641 648 
f 646 632 648 
f 625 646 648 
f 617 616 649 
f 627 632 649 
f 616 634 649 
f 621 624 650 
f 629 621 650 
f 618 629 650 
f 642 618 650 
f 624 642 650 
f 616 626 651 
f 634 616 651 
f 626 644 651 
f 644 634 651 
f 634 622 652 
f 622 647 652 
f 647 635 652 
f 626 621 653 
f 621 629 653 
f 622 644 653 
f 644 626 653 
f 647 622 653 
f 629 647 653 
f 620 639 654 
f 639 628 654 
f 640 623 654 
f 628 640 654 
f 631 643 655 
f 643 633 655 
f 646 625 655 
f 633 646 655 
f 619 637 656 
f 640 636 656 
f 637 640 656 
f 636 628 657 
f 615 638 657 
f 638 621 657 
f 635 627 658 
f 627 649 658 
f 649 634 658 
f 634 652 658 
f 652 635 658 
f 623 645 659 
f 620 654 659 
f 654 623 659 
f 624 621 660 
f 630 624 660 
f 638 615 660 
f 621 638 660 
f 643 630 660 
f 615 643 660 
f 621 619 661 
f 619 656 661 
f 656 636 661 
f 657 621 661 
f 636 657 661 
f 633 615 662 
f 628 639 662 
f 639 633 662 
f 615 657 662 
f 657 628 662 
f 632 620 663 
f 645 617 663 
f 617 649 663 
f 649 632 663 
f 659 645 663 
f 620 659 663 
f 635 618 664 
f 641 635 664 
f 618 642 664 
f 642 631 664 
f 625 641 665 
f 655 625 665 
f 631 655 665 
f 664 631 665 
f 641 664 665 
f 624 630 666 
f 642 624 666 
f 631 642 666 
f 643 631 666 
o convex_22
v 0.040300 -0.047299 0.038525
v 0.036384 -0.053455 0.041885
v 0.036943 -0.052334 0.040204
v 0.038062 -0.029395 0.018946
v 0.040300 -0.033875 0.018384
v 0.035824 -0.051216 0.043566
v 0.036384 -0.037233 0.023985
v 0.040860 -0.051776 0.039087
v 0.040860 -0.029958 0.018946
v 0.038062 -0.034993 0.019508
v 0.040860 -0.048978 0.034611
v 0.036384 -0.035554 0.025661
v 0.040860 -0.050097 0.040204
v 0.039740 -0.032756 0.022863
f 675 670 680 
f 668 672 673 
f 671 670 675 
f 669 668 676 
f 670 671 676 
f 673 670 676 
f 668 673 676 
f 668 669 677 
f 674 668 677 
f 671 675 677 
f 675 674 677 
f 669 676 677 
f 676 671 677 
f 672 670 678 
f 670 673 678 
f 673 672 678 
f 672 668 679 
f 667 672 679 
f 668 674 679 
f 675 667 679 
f 674 675 679 
f 672 667 680 
f 670 672 680 
f 667 675 680 
o convex_23
v 0.049254 -0.032753 0.018386
v 0.040860 -0.050100 0.036848
v 0.041420 -0.050100 0.036848
v 0.048694 -0.039470 0.020066
v 0.052612 -0.034434 0.018946
v 0.040860 -0.043383 0.032373
v 0.041420 -0.047300 0.037968
v 0.047015 -0.037232 0.018946
v 0.052051 -0.037232 0.018386
v 0.041979 -0.044502 0.029015
v 0.050373 -0.033315 0.020066
v 0.041420 -0.049538 0.038526
v 0.047015 -0.034992 0.018946
f 688 690 693 
f 683 682 684 
f 686 682 687 
f 683 684 689 
f 681 685 689 
f 684 688 689 
f 688 681 689 
f 684 682 690 
f 682 686 690 
f 688 684 690 
f 685 681 691 
f 681 686 691 
f 686 687 691 
f 687 685 691 
f 682 683 692 
f 687 682 692 
f 685 687 692 
f 683 689 692 
f 689 685 692 
f 686 681 693 
f 681 688 693 
f 690 686 693 
o convex_24
v -0.040279 0.009220 0.035733
v -0.035247 0.026563 0.037410
v -0.035247 0.026563 0.036292
v -0.016219 0.019847 0.039089
v -0.020699 0.019847 0.034614
v -0.046433 0.017054 0.038529
v -0.035805 0.008659 0.039089
v -0.041396 0.014814 0.034053
v -0.045316 0.026000 0.038529
v -0.033009 0.011458 0.034053
v -0.016779 0.023205 0.039089
v -0.045316 0.026000 0.036292
v -0.031331 0.020967 0.034053
v -0.019018 0.015934 0.038529
v -0.046433 0.016493 0.036292
v -0.039718 0.009220 0.039089
v -0.021256 0.021526 0.034614
v -0.034127 0.023762 0.034614
v -0.045316 0.013696 0.036292
v -0.017900 0.022646 0.036851
f 698 710 713 
f 695 696 702 
f 700 694 703 
f 694 701 703 
f 696 695 704 
f 700 697 704 
f 695 702 704 
f 699 702 705 
f 702 696 705 
f 698 703 706 
f 703 701 706 
f 698 697 707 
f 697 700 707 
f 703 698 707 
f 700 703 707 
f 705 701 708 
f 699 705 708 
f 694 700 709 
f 702 699 709 
f 700 704 709 
f 704 702 709 
f 698 706 710 
f 710 706 711 
f 705 696 711 
f 701 705 711 
f 706 701 711 
f 696 710 711 
f 701 694 712 
f 699 708 712 
f 708 701 712 
f 694 709 712 
f 709 699 712 
f 697 698 713 
f 696 704 713 
f 704 697 713 
f 710 696 713 
o convex_25
v 0.003370 -0.010367 0.025656
v -0.015659 -0.010367 0.009431
v -0.015659 -0.001975 0.009431
v 0.026870 -0.003094 0.009431
v -0.012296 -0.001975 0.027897
v 0.003928 -0.014286 0.009431
v 0.018473 -0.001975 0.025098
v -0.011738 -0.012047 0.021179
v 0.026870 -0.004214 0.016149
v -0.015659 -0.004773 0.025656
v 0.026870 -0.001975 0.009431
v -0.005023 -0.009808 0.027337
v 0.003370 -0.013166 0.018948
v -0.013978 -0.013166 0.010550
v -0.001110 -0.002535 0.029017
v 0.008961 -0.007013 0.026777
v 0.009519 -0.011487 0.018948
v -0.005585 -0.013726 0.017828
v 0.008403 -0.013166 0.009431
v -0.015659 -0.009249 0.021741
v -0.011180 -0.009808 0.026218
v -0.015659 -0.001975 0.026218
v 0.026870 -0.001975 0.017828
v 0.009519 -0.009249 0.023980
v -0.005585 -0.012047 0.023420
v -0.006143 -0.014286 0.009431
v 0.009519 -0.012606 0.013909
v 0.017915 -0.003655 0.024536
v 0.002808 -0.014286 0.013909
v 0.026870 -0.004214 0.012792
f 722 732 743 
f 715 716 717 
f 715 717 719 
f 716 718 720 
f 716 715 723 
f 717 716 724 
f 716 720 724 
f 722 717 724 
f 720 718 728 
f 718 725 728 
f 728 725 729 
f 725 714 729 
f 720 728 729 
f 714 726 730 
f 721 727 731 
f 719 717 732 
f 723 715 733 
f 715 727 733 
f 727 721 733 
f 718 723 734 
f 725 718 734 
f 723 733 734 
f 733 721 734 
f 718 716 735 
f 716 723 735 
f 723 718 735 
f 724 720 736 
f 722 724 736 
f 729 714 737 
f 730 722 737 
f 714 730 737 
f 714 725 738 
f 726 714 738 
f 721 731 738 
f 731 726 738 
f 725 734 738 
f 734 721 738 
f 715 719 739 
f 727 715 739 
f 731 727 739 
f 722 730 740 
f 730 726 740 
f 732 722 740 
f 720 729 741 
f 736 720 741 
f 722 736 741 
f 737 722 741 
f 729 737 741 
f 726 731 742 
f 719 732 742 
f 739 719 742 
f 731 739 742 
f 740 726 742 
f 732 740 742 
f 717 722 743 
f 732 717 743 
o convex_26
v -0.033569 -0.002535 0.015025
v -0.035807 -0.013726 0.004394
v -0.037486 -0.012047 0.004955
v -0.049232 -0.016524 0.020062
v -0.033007 -0.016524 0.017265
v -0.049793 -0.016524 0.011111
v -0.042518 -0.006452 0.009992
v -0.033007 -0.016524 0.005514
v -0.033007 -0.004773 0.007753
v -0.033007 -0.005893 0.017265
v -0.051472 -0.015963 0.017824
v -0.036367 -0.002535 0.014466
v -0.039165 -0.007572 0.006073
v -0.044757 -0.016524 0.020623
v -0.034688 -0.001975 0.011111
v -0.036367 -0.004214 0.016705
v -0.043078 -0.016524 0.007193
v -0.033007 -0.010927 0.004955
v -0.042518 -0.006452 0.013347
v -0.033007 -0.015405 0.017824
f 753 757 763 
f 748 747 749 
f 748 749 751 
f 748 751 752 
f 752 744 753 
f 748 752 753 
f 749 747 754 
f 750 749 754 
f 745 746 756 
f 749 750 756 
f 747 748 757 
f 744 752 758 
f 750 755 758 
f 755 744 758 
f 756 750 758 
f 752 756 758 
f 753 744 759 
f 754 747 759 
f 755 754 759 
f 744 755 759 
f 747 757 759 
f 757 753 759 
f 746 745 760 
f 745 751 760 
f 751 749 760 
f 756 746 760 
f 749 756 760 
f 751 745 761 
f 752 751 761 
f 745 756 761 
f 756 752 761 
f 750 754 762 
f 755 750 762 
f 754 755 762 
f 748 753 763 
f 757 748 763 
o convex_27
v -0.033007 -0.001975 0.013350
v -0.033007 -0.016524 0.005515
v -0.033007 -0.015963 0.004954
v -0.024613 -0.001975 0.022861
v -0.033007 -0.016524 0.017264
v -0.025174 -0.011487 0.008872
v -0.024613 -0.016524 0.017264
v -0.024613 -0.002535 0.011671
v -0.031887 -0.008132 0.006074
v -0.033007 -0.007572 0.017822
v -0.027971 -0.011487 0.021182
v -0.033007 -0.002535 0.009993
v -0.024613 -0.016524 0.013908
v -0.024613 -0.013166 0.020621
v -0.031887 -0.011487 0.019503
v -0.030208 -0.015963 0.006074
v -0.029649 -0.010927 0.006074
f 769 779 780 
f 766 765 764 
f 764 765 768 
f 768 765 770 
f 764 767 771 
f 767 770 771 
f 767 764 773 
f 764 768 773 
f 766 764 775 
f 764 771 775 
f 772 766 775 
f 771 772 775 
f 770 765 776 
f 769 771 776 
f 771 770 776 
f 770 767 777 
f 768 770 777 
f 774 768 777 
f 767 774 777 
f 767 773 778 
f 773 768 778 
f 768 774 778 
f 774 767 778 
f 765 766 779 
f 776 765 779 
f 769 776 779 
f 771 769 780 
f 766 772 780 
f 772 771 780 
f 779 766 780 
o convex_28
v 0.004481 -0.016524 0.003274
v -0.024050 -0.004773 -0.009036
v -0.024609 -0.003094 0.006070
v 0.026870 -0.001976 0.007189
v 0.018475 -0.001976 -0.009036
v -0.016214 -0.013726 0.008869
v -0.019011 -0.011487 -0.009036
v -0.020130 -0.001975 0.009431
v 0.008397 -0.013166 0.009431
v 0.002244 -0.012047 -0.009036
v -0.024050 -0.001975 -0.009036
v 0.013995 -0.012605 0.003834
v 0.026870 -0.002536 0.009431
v -0.007260 -0.016524 0.006633
v 0.021272 -0.007012 0.001593
v -0.017892 -0.013726 0.007189
v 0.009520 -0.009250 -0.009036
v 0.008961 -0.015405 0.007750
v -0.006705 -0.016524 0.003274
v -0.022372 -0.008691 -0.008474
v 0.002803 -0.016524 0.008308
v -0.013977 -0.015405 0.004393
v -0.024609 -0.001975 0.007750
v -0.003349 -0.012606 -0.008474
v -0.013977 -0.013166 0.009431
v 0.006719 -0.015963 0.002715
v 0.022950 -0.005893 0.002155
v 0.017356 -0.003655 -0.009036
v 0.013436 -0.013166 0.006633
v -0.019011 -0.012047 0.008308
v 0.002244 -0.016524 0.002155
v -0.012858 -0.015405 0.008308
f 801 805 812 
f 782 785 787 
f 787 785 790 
f 782 783 791 
f 784 785 791 
f 785 782 791 
f 788 784 791 
f 784 788 793 
f 788 789 793 
f 790 785 797 
f 795 792 797 
f 793 789 798 
f 781 794 799 
f 783 782 800 
f 782 787 800 
f 787 796 800 
f 794 781 801 
f 798 789 801 
f 781 798 801 
f 796 787 802 
f 787 799 802 
f 799 794 802 
f 791 783 803 
f 788 791 803 
f 787 790 804 
f 799 787 804 
f 788 786 805 
f 789 788 805 
f 801 789 805 
f 790 797 806 
f 797 792 806 
f 798 781 806 
f 785 784 807 
f 784 793 807 
f 792 795 807 
f 807 795 808 
f 797 785 808 
f 795 797 808 
f 785 807 808 
f 793 798 809 
f 806 792 809 
f 798 806 809 
f 807 793 809 
f 792 807 809 
f 786 788 810 
f 796 786 810 
f 783 800 810 
f 800 796 810 
f 788 803 810 
f 803 783 810 
f 781 799 811 
f 804 790 811 
f 799 804 811 
f 806 781 811 
f 790 806 811 
f 786 796 812 
f 794 801 812 
f 802 794 812 
f 796 802 812 
f 805 786 812 
o convex_29
v -0.029086 0.008102 0.000477
v 0.000565 0.028800 0.000477
v 0.005043 0.028240 0.000477
v 0.020151 -0.001411 -0.009036
v 0.020151 -0.001975 0.000477
v -0.024048 -0.001969 -0.009036
v -0.006709 0.020965 -0.009036
v 0.021827 0.020965 -0.001761
v -0.019571 -0.001969 0.000477
v 0.014558 0.018727 -0.008476
v -0.018455 0.020404 -0.002881
v -0.022372 0.011458 -0.007917
v 0.022953 0.020407 0.000477
v 0.021827 0.006984 -0.009036
v -0.007264 0.028800 0.000477
v 0.000565 0.027679 -0.002322
v -0.023488 0.017049 0.000477
v 0.009520 0.019847 -0.009036
v 0.010081 0.024884 -0.003441
v -0.018455 0.013690 -0.009036
v 0.019591 -0.001975 -0.009036
v -0.007264 0.027679 -0.002322
v 0.021827 0.001947 -0.008476
v -0.026845 0.010900 -0.002881
v 0.018470 0.019847 -0.005678
v -0.017895 0.022643 -0.000082
v 0.012877 0.026002 -0.000082
v -0.014533 0.019287 -0.006797
f 823 834 840 
f 815 814 813 
f 815 813 817 
f 816 818 819 
f 817 813 821 
f 813 818 821 
f 818 817 821 
f 815 817 825 
f 820 825 826 
f 816 819 826 
f 813 814 827 
f 814 815 828 
f 827 814 828 
f 813 827 829 
f 826 819 830 
f 822 826 830 
f 819 828 830 
f 830 828 831 
f 828 815 831 
f 822 830 831 
f 819 818 832 
f 824 823 832 
f 818 824 832 
f 816 817 833 
f 818 816 833 
f 817 818 833 
f 828 819 834 
f 827 828 834 
f 817 816 835 
f 825 817 835 
f 826 825 835 
f 816 826 835 
f 818 813 836 
f 823 824 836 
f 824 818 836 
f 829 823 836 
f 813 829 836 
f 820 826 837 
f 826 822 837 
f 822 831 837 
f 823 829 838 
f 829 827 838 
f 834 823 838 
f 827 834 838 
f 815 825 839 
f 825 820 839 
f 831 815 839 
f 820 837 839 
f 837 831 839 
f 819 832 840 
f 832 823 840 
f 834 819 840 
o convex_30
v -0.031888 0.006423 0.006072
v 0.012877 0.034959 0.006632
v 0.013992 0.034395 0.006632
v 0.021274 0.022645 0.000477
v 0.026870 -0.001975 0.009431
v 0.020152 -0.001975 0.000477
v -0.024048 0.016492 0.000477
v -0.016773 0.026564 0.009431
v -0.020689 -0.001975 0.009431
v -0.019568 -0.001975 0.000477
v -0.022369 0.028242 0.003276
v 0.024627 0.022645 0.009431
v -0.006702 0.029359 0.000477
v 0.026306 0.021528 0.001597
v -0.031324 0.009222 0.009431
v 0.011761 0.034395 0.002716
v -0.007823 0.032717 0.008871
v -0.024612 0.027121 0.007752
v -0.030766 0.010339 0.002156
v 0.026870 0.022645 0.007192
v 0.023511 -0.001975 0.001597
v -0.007265 0.032717 0.003276
v -0.024612 -0.001975 0.002716
v 0.003364 0.031040 0.009431
v -0.029087 0.007541 0.000477
v -0.025170 -0.001975 0.007752
v 0.026870 -0.001975 0.007192
v -0.025170 0.026000 0.003836
v -0.031888 0.009782 0.006632
v 0.024627 0.017609 0.000477
v 0.026870 0.022645 0.003836
v -0.022933 0.028798 0.007192
v 0.006165 0.028242 0.000477
v 0.012319 0.034959 0.007192
v -0.031324 0.005306 0.008871
v -0.030766 0.005306 0.002716
v -0.006702 0.033278 0.005513
v -0.016773 0.023762 0.000477
v 0.013434 0.033838 0.002716
v 0.025185 0.011456 0.001037
v 0.009518 0.034959 0.003836
v -0.029087 0.009782 0.000477
f 859 868 882 
f 844 846 847 
f 846 845 849 
f 845 848 849 
f 847 846 850 
f 846 849 850 
f 848 845 852 
f 844 847 853 
f 849 848 855 
f 855 848 858 
f 848 857 858 
f 843 852 860 
f 852 845 860 
f 845 846 861 
f 853 851 862 
f 856 853 862 
f 850 849 863 
f 848 852 864 
f 857 848 864 
f 847 850 865 
f 850 863 865 
f 863 849 866 
f 860 845 867 
f 845 861 867 
f 868 859 869 
f 855 858 869 
f 859 841 869 
f 858 868 869 
f 846 844 870 
f 844 854 870 
f 843 860 871 
f 860 867 871 
f 867 854 871 
f 858 857 872 
f 862 851 872 
f 851 868 872 
f 868 858 872 
f 844 853 873 
f 853 856 873 
f 843 842 874 
f 852 843 874 
f 864 852 874 
f 857 864 874 
f 849 855 875 
f 866 849 875 
f 869 841 875 
f 855 869 875 
f 841 859 876 
f 859 865 876 
f 865 863 876 
f 863 866 876 
f 875 841 876 
f 866 875 876 
f 872 857 877 
f 862 872 877 
f 857 874 877 
f 847 851 878 
f 853 847 878 
f 851 853 878 
f 842 843 879 
f 854 844 879 
f 856 842 879 
f 843 871 879 
f 871 854 879 
f 844 873 879 
f 873 856 879 
f 861 846 880 
f 854 867 880 
f 867 861 880 
f 846 870 880 
f 870 854 880 
f 842 856 881 
f 856 862 881 
f 874 842 881 
f 862 877 881 
f 877 874 881 
f 851 847 882 
f 847 865 882 
f 865 859 882 
f 868 851 882 
o convex_31
v -0.023493 -0.001975 0.024539
v -0.024612 -0.016524 0.014467
v -0.024052 -0.016524 0.014467
v -0.015660 -0.001975 0.009431
v -0.015660 -0.005893 0.025098
v -0.024612 -0.001975 0.012229
v -0.015660 -0.009250 0.009431
v -0.024612 -0.013166 0.020622
v -0.019017 -0.013726 0.018383
v -0.015660 -0.001975 0.026219
v -0.024612 -0.011487 0.011110
v -0.020136 -0.001975 0.009431
v -0.015660 -0.009808 0.019503
v -0.024612 -0.001975 0.023420
v -0.020136 -0.004214 0.025658
v -0.023493 -0.016524 0.017266
f 891 887 898 
f 883 886 888 
f 885 884 889 
f 886 887 889 
f 888 884 890 
f 885 889 891 
f 886 883 892 
f 887 886 892 
f 884 888 893 
f 889 884 893 
f 889 893 894 
f 888 886 894 
f 886 889 894 
f 893 888 894 
f 889 887 895 
f 891 889 895 
f 887 891 895 
f 883 888 896 
f 890 883 896 
f 888 890 896 
f 883 890 897 
f 890 887 897 
f 892 883 897 
f 887 892 897 
f 884 885 898 
f 890 884 898 
f 887 890 898 
f 885 891 898 
