o convex_0
v 0.002754 0.009721 0.037134
v 0.004126 0.055780 0.001396
v 0.010318 0.055088 0.001396
v -0.030239 0.000095 0.000709
v 0.030256 0.000095 0.000705
v -0.029550 0.031709 0.020637
v 0.030256 0.000095 0.029576
v -0.028861 0.000095 0.031636
v 0.029567 0.038588 0.014456
v -0.029550 0.047527 0.000709
v -0.004798 0.039280 0.023387
v 0.030256 0.045462 0.000705
v 0.021314 0.023473 0.029576
v -0.010990 0.022100 0.033014
v -0.017177 0.047527 0.011708
v 0.013756 0.000095 0.036451
v 0.010318 0.044775 0.017210
v -0.030239 0.017287 0.027516
v 0.006192 0.030336 0.029572
v -0.014428 0.004221 0.036447
v 0.030256 0.016600 0.027516
v -0.019237 0.032402 0.025452
v -0.010301 0.055088 0.000709
v -0.004798 0.047527 0.015142
v 0.019943 0.015226 0.033014
v -0.030239 0.044088 0.006207
v -0.024052 0.017973 0.030949
v 0.030944 0.033088 0.000705
v 0.026818 0.047527 0.004833
v 0.015816 0.036528 0.023387
v -0.002737 0.000095 0.037825
v 0.005503 0.020034 0.034387
v 0.030944 0.000095 0.019267
v 0.030256 0.028275 0.022014
v -0.030239 0.000095 0.029576
v -0.027490 0.040649 0.014459
v -0.004109 0.029654 0.030259
v 0.027507 0.005600 0.031636
v 0.017188 0.046148 0.013082
v -0.010301 0.013847 0.035761
v -0.015117 0.038588 0.022014
v -0.026112 0.049588 0.002082
v 0.002066 0.052340 0.008271
v 0.002754 0.038588 0.024074
v -0.012362 0.052340 0.006207
v -0.020614 0.009034 0.034387
v 0.013756 0.009721 0.035761
v 0.023380 0.050961 0.000709
v 0.013067 0.051648 0.006894
v 0.026129 0.032396 0.022014
v 0.013756 0.020726 0.033014
v -0.026801 0.029649 0.024074
v -0.004109 0.018660 0.035078
v -0.027490 0.009034 0.031636
v -0.019926 0.000095 0.035078
v 0.021314 0.043401 0.014459
v -0.015117 0.027589 0.029576
v -0.030239 0.046148 0.000709
v 0.004126 0.047527 0.015142
v -0.011673 0.034467 0.026135
v 0.017877 0.028275 0.028202
v 0.021314 0.001474 0.034387
v -0.005486 0.009034 0.037134
v -0.013050 0.046154 0.015142
f 24 45 64 
f 4 5 7 
f 4 7 8 
f 5 4 12 
f 8 7 16 
f 2 3 23 
f 12 10 23 
f 21 13 25 
f 4 18 26 
f 18 6 26 
f 5 12 28 
f 9 12 29 
f 16 1 31 
f 8 16 31 
f 7 5 33 
f 21 7 33 
f 5 28 33 
f 33 28 34 
f 12 9 34 
f 13 21 34 
f 28 12 34 
f 21 33 34 
f 4 8 35 
f 18 4 35 
f 8 18 35 
f 26 6 36 
f 32 19 37 
f 7 21 38 
f 21 25 38 
f 14 27 40 
f 36 22 41 
f 23 10 42 
f 10 26 42 
f 36 15 42 
f 26 36 42 
f 3 2 43 
f 30 17 44 
f 19 30 44 
f 11 37 44 
f 37 19 44 
f 2 23 45 
f 23 42 45 
f 42 15 45 
f 43 2 45 
f 24 43 45 
f 40 27 46 
f 20 40 46 
f 1 16 47 
f 32 1 47 
f 23 3 48 
f 12 23 48 
f 29 12 48 
f 29 48 49 
f 17 39 49 
f 39 29 49 
f 3 43 49 
f 48 3 49 
f 34 9 50 
f 13 34 50 
f 25 13 51 
f 19 32 51 
f 32 47 51 
f 47 25 51 
f 6 18 52 
f 18 27 52 
f 36 6 52 
f 22 36 52 
f 1 32 53 
f 37 14 53 
f 32 37 53 
f 14 40 53 
f 18 8 54 
f 27 18 54 
f 8 46 54 
f 46 27 54 
f 8 31 55 
f 31 20 55 
f 46 8 55 
f 20 46 55 
f 9 29 56 
f 17 30 56 
f 39 17 56 
f 29 39 56 
f 50 9 56 
f 30 50 56 
f 27 14 57 
f 14 37 57 
f 52 27 57 
f 22 52 57 
f 12 4 58 
f 10 12 58 
f 4 26 58 
f 26 10 58 
f 24 11 59 
f 43 24 59 
f 11 44 59 
f 44 17 59 
f 17 49 59 
f 49 43 59 
f 37 11 60 
f 11 41 60 
f 41 22 60 
f 57 37 60 
f 22 57 60 
f 30 19 61 
f 50 30 61 
f 13 50 61 
f 51 13 61 
f 19 51 61 
f 16 7 62 
f 7 38 62 
f 38 25 62 
f 47 16 62 
f 25 47 62 
f 31 1 63 
f 20 31 63 
f 40 20 63 
f 1 53 63 
f 53 40 63 
f 11 24 64 
f 15 36 64 
f 41 11 64 
f 36 41 64 
f 45 15 64 
o convex_1
v 0.004821 -0.049405 0.011701
v -0.006863 -0.046653 -0.023352
v -0.006863 -0.045279 -0.023352
v 0.030252 -0.043218 -0.020601
v 0.006884 -0.065214 -0.019914
v -0.030237 -0.040466 0.004826
v 0.028881 -0.040468 0.006199
v -0.026796 -0.059025 -0.015790
v -0.027482 -0.040466 -0.021975
v 0.028189 -0.056963 -0.013039
v -0.004800 -0.061086 -0.002046
v -0.010305 -0.041154 0.015822
v 0.021312 -0.040466 -0.023352
v -0.019233 -0.060401 -0.022662
v 0.024753 -0.055587 -0.023352
v 0.015127 -0.056963 0.000701
v -0.018547 -0.053526 0.003452
v -0.030237 -0.054214 -0.020601
v -0.013740 -0.064526 -0.017163
v 0.013069 -0.040466 0.015135
v 0.011006 -0.063836 -0.011665
v 0.022690 -0.048717 0.005513
v 0.029567 -0.056961 -0.019228
v -0.029545 -0.050781 -0.002733
v -0.031615 -0.040466 -0.017850
v -0.019233 -0.060401 -0.008227
v -0.004114 -0.052840 0.008950
v 0.030252 -0.048717 -0.002050
v -0.021989 -0.044594 0.009637
v 0.030944 -0.040468 -0.005480
v 0.012383 -0.062462 -0.022662
v 0.006192 -0.058337 0.002079
v 0.019254 -0.062462 -0.019914
v -0.006177 -0.064526 -0.011665
v 0.020626 -0.058337 -0.005480
v -0.028174 -0.052154 -0.022662
v -0.030923 -0.052154 -0.013039
v 0.013069 -0.052154 0.007577
v -0.005492 -0.065214 -0.020601
v 0.030944 -0.052840 -0.012352
v -0.014426 -0.049405 0.009637
v -0.003428 -0.044594 0.015135
v -0.013054 -0.056963 0.002079
v -0.015804 -0.040466 0.014449
v 0.026811 -0.040466 -0.021975
v 0.017191 -0.044594 0.011701
v -0.003428 -0.056275 -0.023352
v -0.028174 -0.058337 -0.019914
v -0.024738 -0.040466 -0.022662
v 0.005507 -0.062462 -0.005480
v 0.016505 -0.063148 -0.014416
v 0.006884 -0.041154 0.016513
v -0.028860 -0.054899 -0.008227
v 0.021312 -0.054214 0.000701
v 0.028881 -0.055587 -0.021975
v 0.026811 -0.044594 -0.023352
v -0.028174 -0.047343 0.002765
v 0.030944 -0.041154 0.002075
v 0.028881 -0.052152 -0.004106
v -0.011676 -0.062462 -0.007540
v 0.004135 -0.065214 -0.014416
v -0.008241 -0.063148 -0.022662
v 0.013069 -0.061086 -0.005480
v 0.003443 -0.054899 0.006890
f 96 102 128 
f 66 67 77 
f 73 70 77 
f 66 77 79 
f 77 70 84 
f 70 73 89 
f 72 83 90 
f 71 86 92 
f 87 74 97 
f 69 95 97 
f 67 66 100 
f 82 89 100 
f 89 73 100 
f 88 70 101 
f 89 82 101 
f 70 89 101 
f 96 80 102 
f 83 78 103 
f 95 69 103 
f 98 83 103 
f 87 68 104 
f 74 87 104 
f 68 94 104 
f 93 81 105 
f 91 65 106 
f 76 105 106 
f 105 91 106 
f 81 90 107 
f 75 91 107 
f 91 105 107 
f 105 81 107 
f 84 70 108 
f 70 93 108 
f 105 76 108 
f 93 105 108 
f 77 84 109 
f 84 71 109 
f 94 68 109 
f 71 94 109 
f 71 84 110 
f 86 71 110 
f 65 102 110 
f 102 86 110 
f 66 79 111 
f 100 66 111 
f 78 100 111 
f 78 83 112 
f 83 72 112 
f 100 78 112 
f 82 100 112 
f 101 82 112 
f 77 67 113 
f 73 77 113 
f 67 100 113 
f 100 73 113 
f 96 75 114 
f 75 98 114 
f 69 97 115 
f 97 74 115 
f 74 99 115 
f 106 65 116 
f 76 106 116 
f 108 76 116 
f 84 108 116 
f 65 110 116 
f 110 84 116 
f 81 88 117 
f 90 81 117 
f 72 90 117 
f 88 101 117 
f 112 72 117 
f 101 112 117 
f 80 99 118 
f 102 80 118 
f 86 102 118 
f 68 87 119 
f 95 79 119 
f 87 97 119 
f 97 95 119 
f 79 77 120 
f 109 68 120 
f 77 109 120 
f 68 119 120 
f 119 79 120 
f 70 88 121 
f 88 81 121 
f 93 70 121 
f 81 93 121 
f 71 92 122 
f 94 71 122 
f 92 104 122 
f 104 94 122 
f 92 86 123 
f 99 74 123 
f 74 104 123 
f 104 92 123 
f 86 118 123 
f 118 99 123 
f 90 83 124 
f 83 98 124 
f 98 75 124 
f 75 107 124 
f 107 90 124 
f 103 69 125 
f 98 103 125 
f 85 114 125 
f 114 98 125 
f 69 115 125 
f 115 85 125 
f 79 95 126 
f 103 78 126 
f 95 103 126 
f 111 79 126 
f 78 111 126 
f 80 96 127 
f 99 80 127 
f 96 114 127 
f 114 85 127 
f 85 115 127 
f 115 99 127 
f 65 91 128 
f 91 75 128 
f 75 96 128 
f 102 65 128 
o convex_2
v 0.004817 -0.014342 0.033011
v 0.027508 -0.021904 -0.027481
v 0.027508 -0.021215 -0.027481
v -0.039173 -0.021904 -0.026100
v -0.024048 -0.010904 -0.022658
v 0.034374 -0.010904 -0.017161
v 0.028192 -0.021904 0.015138
v -0.028862 -0.010904 0.028888
v -0.024733 -0.021904 0.017886
v 0.029561 -0.010904 0.028201
v 0.037811 -0.021904 -0.024033
v -0.038481 -0.013656 -0.016473
v -0.039857 -0.021904 -0.003411
v 0.021318 -0.010904 -0.023352
v -0.006863 -0.021904 0.023384
v -0.010300 -0.011592 0.035073
v 0.036443 -0.021904 -0.002723
v -0.037112 -0.019841 -0.026788
v 0.037127 -0.014342 -0.021290
v 0.015813 -0.021904 0.021322
v 0.034374 -0.019841 -0.027481
v -0.039857 -0.016404 -0.006853
v 0.014444 -0.010904 0.034385
v 0.036443 -0.012968 -0.010289
v -0.030238 -0.010904 -0.006159
v 0.025440 -0.012968 0.029575
v -0.018550 -0.015029 0.029569
v -0.029546 -0.015029 0.024071
v -0.030238 -0.010904 0.026139
v -0.039173 -0.016404 -0.022658
v 0.030937 -0.010904 0.024071
v -0.003426 -0.010904 -0.023352
v -0.029546 -0.021904 0.013763
v 0.030253 -0.019152 0.017199
v 0.035751 -0.012968 -0.021977
v 0.006878 -0.021904 0.023384
v 0.014444 -0.013656 0.032324
v -0.007547 -0.012968 0.034385
v 0.003441 -0.010904 0.035766
v -0.023364 -0.012280 0.030943
v 0.036443 -0.018466 -0.003417
v -0.014429 -0.021904 0.022010
v -0.039857 -0.020528 -0.024033
v 0.035751 -0.018466 -0.026788
v -0.039173 -0.014342 -0.010976
v 0.030253 -0.013656 0.024765
v -0.038481 -0.021904 -0.026788
v 0.037127 -0.021904 -0.026788
v 0.028877 -0.015718 0.024071
v -0.029546 -0.011592 0.028194
v -0.017174 -0.010904 0.033692
v -0.039857 -0.019841 -0.003411
v 0.007562 -0.012968 0.034385
v -0.026801 -0.010904 -0.019228
v -0.039173 -0.017777 -0.024726
v -0.039857 -0.016404 -0.019909
v 0.037127 -0.014342 -0.015786
v 0.028192 -0.010904 -0.021977
v -0.002734 -0.015029 0.032324
v -0.027485 -0.013656 0.027513
v 0.022002 -0.015718 0.027513
v -0.015113 -0.012280 0.033692
v -0.008924 -0.015718 0.030949
v 0.019257 -0.021904 0.019948
f 177 189 192 
f 132 130 135 
f 134 133 136 
f 132 135 137 
f 134 136 138 
f 135 130 139 
f 132 137 141 
f 133 134 142 
f 137 135 143 
f 135 139 145 
f 143 135 148 
f 130 131 149 
f 131 146 149 
f 138 136 151 
f 147 134 152 
f 136 133 153 
f 138 151 154 
f 136 153 157 
f 153 140 157 
f 140 133 158 
f 134 138 159 
f 152 134 159 
f 133 142 160 
f 146 133 160 
f 149 146 160 
f 142 149 160 
f 141 137 161 
f 156 141 161 
f 137 156 161 
f 135 145 162 
f 134 147 163 
f 143 148 164 
f 164 148 165 
f 154 151 165 
f 151 136 167 
f 144 166 167 
f 145 139 169 
f 159 145 169 
f 152 159 169 
f 137 143 170 
f 155 137 170 
f 132 141 171 
f 141 150 171 
f 149 142 172 
f 163 147 172 
f 157 140 173 
f 150 157 173 
f 159 138 174 
f 145 159 174 
f 162 145 174 
f 131 130 175 
f 130 132 175 
f 146 131 175 
f 139 130 176 
f 147 139 176 
f 130 149 176 
f 172 147 176 
f 149 172 176 
f 138 154 177 
f 135 162 177 
f 174 138 177 
f 162 174 177 
f 141 156 178 
f 157 141 178 
f 136 157 178 
f 168 136 178 
f 167 136 179 
f 144 167 179 
f 136 168 179 
f 150 141 180 
f 157 150 180 
f 141 157 180 
f 129 164 181 
f 164 165 181 
f 165 151 181 
f 166 129 181 
f 151 167 181 
f 167 166 181 
f 133 140 182 
f 153 133 182 
f 140 153 182 
f 133 146 183 
f 158 133 183 
f 132 171 183 
f 175 132 183 
f 146 175 183 
f 140 158 184 
f 171 150 184 
f 173 140 184 
f 150 173 184 
f 158 183 184 
f 183 171 184 
f 139 147 185 
f 147 152 185 
f 169 139 185 
f 152 169 185 
f 142 134 186 
f 134 163 186 
f 172 142 186 
f 163 172 186 
f 164 129 187 
f 143 164 187 
f 129 166 187 
f 137 155 188 
f 156 137 188 
f 155 168 188 
f 178 156 188 
f 168 178 188 
f 165 148 189 
f 154 165 189 
f 177 154 189 
f 166 144 190 
f 168 155 190 
f 144 179 190 
f 179 168 190 
f 170 143 191 
f 155 170 191 
f 143 187 191 
f 187 166 191 
f 166 190 191 
f 190 155 191 
f 148 135 192 
f 135 177 192 
f 189 148 192 
o convex_3
v 0.013753 -0.001968 0.036451
v -0.003423 -0.010904 -0.023356
v -0.025425 -0.010904 -0.022667
v -0.027485 0.000095 -0.022667
v 0.029566 0.000095 -0.021973
v 0.030250 -0.010904 0.026826
v -0.028859 -0.010904 0.029575
v -0.028859 0.000095 0.031636
v 0.030940 -0.010904 -0.019913
v 0.030250 0.000095 0.029575
v -0.002048 -0.010904 0.036451
v -0.030240 -0.008842 -0.019913
v -0.010303 0.000095 0.037140
v -0.030240 0.000095 0.029575
v 0.026132 -0.009527 -0.023356
v 0.023382 -0.010216 0.032318
v -0.030240 0.000095 -0.020601
v -0.020611 -0.008152 0.034385
v 0.026816 0.000095 -0.023356
v -0.030240 -0.010904 0.026820
v 0.031631 -0.010216 -0.010288
v 0.030940 0.000095 0.019262
v 0.003445 0.000095 0.037828
v 0.009628 -0.008842 0.036451
v -0.030240 -0.010904 -0.007539
v 0.030250 0.000095 -0.020601
v 0.030940 -0.010904 0.024071
v 0.022692 0.000095 0.033702
v -0.005488 -0.008152 0.037140
v -0.002739 0.000095 -0.023356
v 0.029566 -0.006091 0.030258
v -0.016486 -0.010904 0.034385
v 0.018567 -0.010904 0.033696
v 0.027500 -0.010904 -0.022662
v 0.017877 -0.006779 0.035073
v -0.019926 0.000095 0.035073
v -0.012362 -0.008152 0.036445
v 0.031631 -0.010216 -0.017852
v -0.028175 -0.010216 -0.021973
v -0.029550 -0.008152 0.030258
v 0.006885 -0.007466 0.037140
v -0.002739 -0.001968 0.037828
v 0.024067 -0.006091 0.033007
v 0.028191 -0.010904 0.029575
v -0.026800 -0.005405 0.032324
v 0.028875 0.000095 0.030947
f 220 235 238 
f 194 195 196 
f 195 194 198 
f 195 198 199 
f 197 196 200 
f 198 194 201 
f 197 200 202 
f 199 198 203 
f 202 200 205 
f 200 196 206 
f 206 196 209 
f 204 206 209 
f 196 197 211 
f 207 194 211 
f 195 199 212 
f 206 204 212 
f 197 202 214 
f 202 205 215 
f 195 212 217 
f 212 204 217 
f 201 197 218 
f 197 214 218 
f 198 201 219 
f 202 198 219 
f 201 213 219 
f 214 202 219 
f 213 214 219 
f 215 193 220 
f 202 215 220 
f 194 196 222 
f 211 194 222 
f 196 211 222 
f 198 202 223 
f 199 203 224 
f 210 199 224 
f 203 198 225 
f 216 203 225 
f 201 194 226 
f 197 201 226 
f 194 207 226 
f 211 197 226 
f 207 211 226 
f 193 216 227 
f 220 193 227 
f 225 208 227 
f 216 225 227 
f 205 200 228 
f 228 210 229 
f 203 221 229 
f 224 203 229 
f 210 224 229 
f 205 228 229 
f 213 201 230 
f 214 213 230 
f 201 218 230 
f 218 214 230 
f 196 195 231 
f 209 196 231 
f 204 209 231 
f 195 217 231 
f 217 204 231 
f 200 206 232 
f 199 210 232 
f 212 199 232 
f 206 212 232 
f 193 215 233 
f 216 193 233 
f 203 216 233 
f 221 203 233 
f 221 233 234 
f 215 205 234 
f 229 221 234 
f 205 229 234 
f 233 215 234 
f 208 223 235 
f 220 227 235 
f 227 208 235 
f 198 223 236 
f 223 208 236 
f 225 198 236 
f 208 225 236 
f 228 200 237 
f 210 228 237 
f 200 232 237 
f 232 210 237 
f 202 220 238 
f 223 202 238 
f 235 223 238 
o convex_4
v -0.039176 -0.021904 -0.001358
v -0.027492 -0.040466 -0.021292
v -0.026804 -0.040466 -0.021292
v -0.026804 -0.040466 0.008266
v -0.026804 -0.021904 -0.019223
v -0.038488 -0.037026 -0.023352
v -0.026804 -0.021904 0.015142
v -0.039176 -0.021904 -0.026791
v -0.039176 -0.039088 -0.010982
v -0.039176 -0.030841 -0.001358
v -0.030242 -0.030156 -0.027477
v -0.037114 -0.040466 -0.017854
v -0.029554 -0.039775 0.006892
v -0.030242 -0.022594 -0.026791
v -0.036426 -0.032213 -0.027477
v -0.029554 -0.022594 0.013077
v -0.039862 -0.023279 -0.006170
v -0.039176 -0.032902 -0.025417
v -0.039176 -0.035653 -0.004110
v -0.028867 -0.026717 -0.026791
v -0.037114 -0.026032 -0.028169
v -0.037800 -0.039775 -0.008230
v -0.029554 -0.031526 0.010326
v -0.032303 -0.021904 -0.027477
v -0.031616 -0.035653 -0.025417
v -0.037800 -0.038402 -0.022666
v -0.029554 -0.040466 0.006201
v -0.027492 -0.036339 0.010326
v -0.026804 -0.032902 -0.021975
v -0.039176 -0.039088 -0.015102
v -0.038488 -0.030841 -0.027477
v -0.037800 -0.035653 -0.025417
f 256 269 270 
f 240 241 242 
f 242 241 243 
f 243 239 245 
f 242 243 245 
f 239 243 246 
f 240 242 250 
f 245 239 254 
f 239 248 254 
f 239 246 255 
f 248 239 255 
f 255 246 256 
f 251 248 257 
f 255 247 257 
f 248 255 257 
f 241 249 258 
f 252 243 258 
f 249 253 259 
f 247 250 260 
f 257 247 260 
f 248 251 261 
f 254 248 261 
f 246 243 262 
f 243 252 262 
f 258 249 262 
f 252 258 262 
f 259 246 262 
f 249 259 262 
f 241 240 263 
f 249 241 263 
f 253 249 263 
f 240 250 264 
f 250 242 265 
f 242 251 265 
f 251 257 265 
f 260 250 265 
f 257 260 265 
f 242 245 266 
f 251 242 266 
f 245 254 266 
f 261 251 266 
f 254 261 266 
f 243 241 267 
f 241 258 267 
f 258 243 267 
f 250 247 268 
f 247 255 268 
f 256 244 268 
f 255 256 268 
f 244 264 268 
f 264 250 268 
f 256 246 269 
f 246 259 269 
f 259 253 269 
f 244 256 270 
f 263 240 270 
f 253 263 270 
f 264 244 270 
f 240 264 270 
f 269 253 270 
o convex_5
v 0.013068 -0.021904 0.021325
v 0.028881 -0.028092 -0.028169
v 0.028881 -0.030156 -0.027476
v -0.026800 -0.040466 -0.021287
v 0.030254 -0.040466 0.004822
v -0.026800 -0.021904 -0.019230
v -0.024738 -0.040466 0.010325
v 0.037819 -0.021904 -0.025415
v -0.026800 -0.021904 0.015135
v 0.026813 -0.040466 -0.020604
v -0.002049 -0.040466 0.017201
v 0.029565 -0.021904 0.013078
v 0.037819 -0.035653 -0.017856
v -0.013732 -0.022594 0.021325
v -0.021987 -0.021904 -0.022666
v 0.015813 -0.040466 0.014453
v 0.036440 -0.026032 -0.001363
v -0.023359 -0.040466 -0.022666
v 0.035751 -0.033590 -0.025415
v 0.020627 -0.040466 -0.023353
v 0.033005 -0.021904 -0.028169
v -0.026800 -0.040466 0.008258
v 0.006193 -0.022594 0.022699
v -0.015801 -0.039775 0.015135
v 0.022689 -0.036339 0.013078
v 0.036440 -0.021904 -0.002732
v 0.037130 -0.033590 -0.006168
v 0.035751 -0.038402 -0.016476
v -0.006863 -0.021904 0.022704
v -0.025428 -0.022594 0.016509
v 0.020627 -0.022594 0.018576
v 0.011696 -0.034964 0.017889
v 0.037130 -0.028092 -0.027476
v 0.027502 -0.023279 -0.028159
v -0.005490 -0.034275 0.019263
v 0.004826 -0.038402 0.017889
v -0.004111 -0.040466 -0.023353
v 0.036440 -0.037713 -0.011666
v 0.027502 -0.039775 0.008263
v 0.036440 -0.036339 -0.021979
v -0.021297 -0.035653 0.014453
v 0.036440 -0.031526 -0.002732
v 0.030254 -0.040466 -0.013727
v 0.028875 -0.022594 0.013766
v -0.019925 -0.022594 0.019263
v 0.030254 -0.032902 0.008263
v -0.015801 -0.034275 0.017201
v -0.026111 -0.035653 0.011699
v 0.037819 -0.034275 -0.022661
v -0.024738 -0.026717 -0.021979
v 0.018565 -0.036339 0.015140
v 0.034378 -0.030156 -0.027476
v -0.010987 -0.037713 0.017201
v -0.006863 -0.022594 0.022704
v -0.022676 -0.024657 -0.022666
v 0.013068 -0.022594 0.021325
v 0.035751 -0.023279 -0.028169
v 0.008255 -0.040466 0.016514
v 0.000013 -0.039088 0.017889
v 0.027502 -0.037026 0.009637
v 0.037130 -0.035653 -0.008917
v 0.024068 -0.040466 0.010330
f 330 295 332 
f 274 275 277 
f 276 271 278 
f 271 276 279 
f 276 274 279 
f 275 274 280 
f 277 275 281 
f 278 271 282 
f 276 278 285 
f 281 275 286 
f 280 274 288 
f 280 288 290 
f 285 278 291 
f 274 277 292 
f 279 274 292 
f 277 281 294 
f 278 282 296 
f 282 287 296 
f 296 287 297 
f 283 278 297 
f 278 296 297 
f 271 279 299 
f 293 271 299 
f 282 271 301 
f 272 288 304 
f 291 272 304 
f 285 291 304 
f 302 293 306 
f 272 273 307 
f 288 272 307 
f 273 290 307 
f 290 288 307 
f 275 298 308 
f 298 283 308 
f 280 290 310 
f 290 289 310 
f 298 280 310 
f 283 298 310 
f 277 294 311 
f 287 282 312 
f 297 287 312 
f 275 297 312 
f 275 280 313 
f 298 275 313 
f 280 298 313 
f 282 301 314 
f 301 295 314 
f 299 279 315 
f 284 299 315 
f 279 300 315 
f 300 311 315 
f 275 312 316 
f 312 282 316 
f 282 314 316 
f 311 294 317 
f 284 315 317 
f 315 311 317 
f 292 277 318 
f 279 292 318 
f 300 279 318 
f 277 311 318 
f 311 300 318 
f 278 283 319 
f 303 278 319 
f 289 303 319 
f 310 289 319 
f 283 310 319 
f 274 276 320 
f 276 285 320 
f 288 274 320 
f 295 301 321 
f 302 286 321 
f 273 272 322 
f 290 273 322 
f 289 290 322 
f 303 289 322 
f 294 281 323 
f 281 305 323 
f 317 294 323 
f 284 317 323 
f 299 284 324 
f 293 299 324 
f 323 305 324 
f 284 323 324 
f 304 288 325 
f 285 304 325 
f 320 285 325 
f 288 320 325 
f 271 293 326 
f 301 271 326 
f 293 302 326 
f 321 301 326 
f 302 321 326 
f 272 291 327 
f 291 278 327 
f 278 303 327 
f 322 272 327 
f 303 322 327 
f 281 286 328 
f 286 302 328 
f 302 306 328 
f 328 306 329 
f 305 281 329 
f 306 293 329 
f 293 324 329 
f 324 305 329 
f 281 328 329 
f 309 275 330 
f 314 295 330 
f 275 316 330 
f 316 314 330 
f 283 297 331 
f 297 275 331 
f 308 283 331 
f 275 308 331 
f 286 275 332 
f 275 309 332 
f 321 286 332 
f 295 321 332 
f 309 330 332 
o convex_6
v -0.037114 0.024160 -0.026789
v -0.030240 0.031029 0.000702
v -0.030240 0.036528 -0.002048
v -0.030240 0.017971 -0.025415
v -0.037114 0.014535 -0.008235
v -0.035739 0.039964 -0.015793
v -0.030240 0.035841 -0.024728
v -0.030240 0.013162 -0.006172
v -0.036427 0.028966 -0.000674
v -0.035739 0.013848 -0.019917
v -0.037114 0.036528 -0.008235
v -0.030240 0.041340 -0.010296
v -0.037114 0.033092 -0.025415
v -0.030929 0.020034 0.000013
v -0.030240 0.031029 -0.027478
v -0.030240 0.012472 -0.017167
v -0.035739 0.037901 -0.005485
v -0.037114 0.022097 -0.002048
v -0.037114 0.018661 -0.024728
v -0.031616 0.039277 -0.020604
v -0.035739 0.017971 -0.002735
v -0.035052 0.037901 -0.022665
v -0.036427 0.023470 -0.027478
v -0.035739 0.013162 -0.011672
v -0.035739 0.034465 -0.002048
v -0.030240 0.022783 -0.027478
v -0.037114 0.037215 -0.020604
v -0.035739 0.030342 -0.027478
v -0.030240 0.040651 -0.017854
v -0.035739 0.039964 -0.010983
v -0.036427 0.023470 -0.000674
v -0.037114 0.014535 -0.018541
v -0.035739 0.015222 -0.022665
v -0.030929 0.040651 -0.007548
v -0.030240 0.023470 0.000702
v -0.035739 0.033778 -0.026102
v -0.030240 0.013848 -0.020604
v -0.035052 0.019347 -0.026102
v -0.030929 0.012472 -0.008235
v -0.035739 0.014535 -0.006172
f 371 340 372 
f 335 334 336 
f 335 336 339 
f 336 334 340 
f 333 337 343 
f 335 339 344 
f 333 343 345 
f 339 336 347 
f 336 340 348 
f 343 337 350 
f 341 343 350 
f 337 333 351 
f 340 346 353 
f 350 337 353 
f 352 339 354 
f 351 333 355 
f 342 348 356 
f 334 335 357 
f 341 334 357 
f 343 341 357 
f 335 349 357 
f 349 343 357 
f 347 336 358 
f 355 347 358 
f 345 343 359 
f 354 345 359 
f 338 354 359 
f 333 345 360 
f 355 333 360 
f 347 355 360 
f 338 344 361 
f 344 339 361 
f 339 352 361 
f 354 338 361 
f 352 354 361 
f 344 338 362 
f 343 349 362 
f 338 359 362 
f 359 343 362 
f 334 341 363 
f 341 350 363 
f 353 346 363 
f 350 353 363 
f 337 351 364 
f 356 337 364 
f 342 356 364 
f 364 351 365 
f 342 364 365 
f 335 344 366 
f 349 335 366 
f 344 362 366 
f 362 349 366 
f 340 334 367 
f 346 340 367 
f 334 363 367 
f 363 346 367 
f 339 347 368 
f 354 339 368 
f 345 354 368 
f 360 345 368 
f 347 360 368 
f 336 348 369 
f 348 342 369 
f 365 336 369 
f 342 365 369 
f 351 355 370 
f 358 336 370 
f 355 358 370 
f 336 365 370 
f 365 351 370 
f 348 340 371 
f 356 348 371 
f 356 371 372 
f 353 337 372 
f 340 353 372 
f 337 356 372 
o convex_7
v -0.028175 0.054401 -0.020603
v -0.007554 0.055088 0.000705
v -0.007554 0.055775 0.000015
v -0.007554 0.000095 -0.022667
v -0.030240 0.000095 0.000700
v -0.007554 0.000095 0.000705
v -0.030240 0.000095 -0.020603
v -0.007554 0.055088 -0.022667
v -0.030240 0.046839 0.000700
v -0.030240 0.030340 -0.027476
v -0.021990 0.056462 -0.011673
v -0.028863 0.023470 -0.027476
v -0.030240 0.052340 -0.015103
v -0.008242 0.057155 -0.020603
v -0.027489 0.000095 -0.022664
v -0.021990 0.054401 -0.022664
v -0.024740 0.051648 -0.000674
v -0.021304 0.057155 -0.017853
v -0.010305 0.056462 -0.002045
v -0.027489 0.053714 -0.009610
v -0.028175 0.030340 -0.027476
v -0.030240 0.022783 -0.027476
v -0.029552 0.051648 -0.021290
v -0.007554 0.057155 -0.008923
v -0.019241 0.053027 0.000700
v -0.015804 0.056462 -0.004796
v -0.019927 0.056462 -0.021290
v -0.026114 0.052340 -0.022664
v -0.026114 0.055775 -0.015792
v -0.029552 0.048207 0.000700
v -0.016492 0.057155 -0.009610
v -0.030240 0.051648 -0.019917
v -0.018555 0.055088 -0.022664
v -0.029552 0.053714 -0.016479
f 373 404 406 
f 375 374 376 
f 374 377 378 
f 376 374 378 
f 377 376 378 
f 376 377 379 
f 375 376 380 
f 377 374 381 
f 379 377 381 
f 379 381 382 
f 382 381 385 
f 376 379 387 
f 380 376 393 
f 382 380 393 
f 376 384 393 
f 384 382 393 
f 379 382 394 
f 384 376 394 
f 382 384 394 
f 376 387 394 
f 387 379 394 
f 375 380 396 
f 380 386 396 
f 386 390 396 
f 391 375 396 
f 374 375 397 
f 375 391 397 
f 397 391 398 
f 383 392 398 
f 392 389 398 
f 389 397 398 
f 388 373 399 
f 373 390 399 
f 390 386 399 
f 373 388 400 
f 388 382 400 
f 382 395 400 
f 395 373 400 
f 390 373 401 
f 383 390 401 
f 392 383 401 
f 381 374 402 
f 385 381 402 
f 389 392 402 
f 374 397 402 
f 397 389 402 
f 390 383 403 
f 396 390 403 
f 391 396 403 
f 398 391 403 
f 383 398 403 
f 382 385 404 
f 395 382 404 
f 373 395 404 
f 380 382 405 
f 386 380 405 
f 382 388 405 
f 399 386 405 
f 388 399 405 
f 401 373 406 
f 392 401 406 
f 385 402 406 
f 402 392 406 
f 404 385 406 
o convex_8
v 0.024755 0.054401 -0.008922
v -0.007552 0.000095 -0.022666
v -0.002741 0.000095 -0.023354
v 0.027507 0.000095 0.000700
v -0.007552 0.055775 0.000700
v 0.025441 0.052335 -0.023354
v -0.007552 0.000095 0.000700
v -0.007552 0.055088 -0.022666
v 0.026817 0.000095 -0.023354
v 0.027507 0.048900 0.000705
v 0.027507 0.054401 -0.021293
v 0.006882 0.057155 -0.018540
v 0.011007 0.056462 -0.002736
v 0.027507 0.000095 -0.022666
v -0.007552 0.057155 -0.009610
v 0.003447 0.052340 -0.023354
v 0.020630 0.056462 -0.019916
v 0.016508 0.053709 0.000700
v -0.007552 0.057155 -0.019916
v 0.022692 0.055083 -0.022666
v 0.021316 0.056462 -0.013041
v 0.027507 0.053027 -0.022669
v 0.027507 0.054401 -0.013729
v 0.000011 0.056462 -0.000673
v 0.006882 0.055775 0.000700
v 0.015132 0.056462 -0.021291
v 0.026817 0.050961 -0.002048
v 0.019254 0.055083 -0.004799
v 0.024755 0.055775 -0.020603
v 0.008944 0.053714 -0.023354
v 0.026817 0.047526 -0.023354
f 428 415 437 
f 408 409 410 
f 408 410 413 
f 411 408 413 
f 409 408 414 
f 408 411 414 
f 410 409 415 
f 409 412 415 
f 413 410 416 
f 411 413 416 
f 416 410 417 
f 410 415 420 
f 417 410 420 
f 414 411 421 
f 419 418 421 
f 412 409 422 
f 409 414 422 
f 414 421 425 
f 421 418 425 
f 418 419 427 
f 423 418 427 
f 420 415 428 
f 417 420 428 
f 412 426 428 
f 426 417 428 
f 416 417 429 
f 427 407 429 
f 421 411 430 
f 419 421 430 
f 411 416 431 
f 416 424 431 
f 424 419 431 
f 430 411 431 
f 419 430 431 
f 418 423 432 
f 414 425 432 
f 425 418 432 
f 426 414 432 
f 424 416 433 
f 429 407 433 
f 416 429 433 
f 419 424 434 
f 407 427 434 
f 427 419 434 
f 433 407 434 
f 424 433 434 
f 417 426 435 
f 423 427 435 
f 429 417 435 
f 427 429 435 
f 432 423 435 
f 426 432 435 
f 412 422 436 
f 422 414 436 
f 426 412 436 
f 414 426 436 
f 415 412 437 
f 412 428 437 
o convex_9
v 0.028195 0.053714 -0.021978
v 0.028195 0.048903 0.000702
v 0.027507 0.048903 0.000702
v 0.027507 0.000095 -0.022665
v 0.030944 0.011099 -0.007548
v 0.030944 0.030339 -0.027478
v 0.027507 0.000095 0.000702
v 0.030257 0.046149 0.000702
v 0.030257 0.000095 -0.020604
v 0.030257 0.000095 0.000702
v 0.027507 0.030339 -0.026102
v 0.030257 0.052342 -0.019228
v 0.030944 0.034459 0.000702
v 0.030944 0.020722 -0.027478
v 0.027507 0.054405 -0.015793
v 0.028195 0.023476 -0.027478
v 0.027507 0.052342 -0.022665
v 0.030944 0.039275 -0.008235
v 0.029569 0.052342 -0.010983
v 0.030944 0.020722 0.000702
v 0.030944 0.011099 -0.018541
v 0.030944 0.038584 -0.020604
v 0.028882 0.000095 -0.022665
v 0.030257 0.049588 -0.006172
v 0.029569 0.029648 -0.027478
f 448 454 462 
f 439 440 444 
f 440 441 444 
f 439 444 445 
f 444 441 446 
f 444 446 447 
f 445 444 447 
f 446 442 447 
f 441 440 448 
f 443 438 449 
f 442 443 450 
f 445 447 450 
f 443 442 451 
f 440 439 452 
f 448 440 452 
f 449 438 452 
f 441 448 453 
f 443 451 453 
f 451 441 453 
f 438 443 454 
f 452 438 454 
f 448 452 454 
f 445 450 455 
f 450 443 455 
f 452 439 456 
f 449 452 456 
f 447 442 457 
f 442 450 457 
f 450 447 457 
f 442 446 458 
f 451 442 458 
f 446 451 458 
f 443 449 459 
f 455 443 459 
f 449 455 459 
f 446 441 460 
f 441 451 460 
f 451 446 460 
f 439 445 461 
f 455 449 461 
f 445 455 461 
f 456 439 461 
f 449 456 461 
f 453 448 462 
f 443 453 462 
f 454 443 462 
o convex_10
v 0.031633 0.038592 -0.007546
v 0.030944 0.011782 -0.017855
v 0.030944 0.012471 -0.019915
v 0.039194 0.019348 -0.023352
v 0.038505 0.022786 -0.001362
v 0.038505 0.035154 -0.024039
v 0.030944 0.031031 -0.027476
v 0.030944 0.020032 -0.000675
v 0.038505 0.033779 -0.003422
v 0.037818 0.013157 -0.010296
v 0.030944 0.031031 0.000015
v 0.037818 0.021408 -0.027476
v 0.030944 0.038592 -0.020605
v 0.038505 0.038592 -0.010296
v 0.037130 0.013157 -0.020605
v 0.030944 0.017970 -0.026102
v 0.030944 0.014533 -0.004799
v 0.039194 0.035843 -0.009609
v 0.039194 0.031717 -0.025416
v 0.037818 0.016595 -0.004112
v 0.037130 0.039281 -0.016481
v 0.035756 0.011782 -0.011670
v 0.035756 0.028969 -0.028166
v 0.031633 0.023469 -0.028166
v 0.030944 0.037216 -0.004799
v 0.037818 0.028969 -0.000675
v 0.036444 0.016595 -0.025416
v 0.039194 0.031031 -0.004799
v 0.038505 0.017284 -0.005486
v 0.037818 0.035154 -0.003422
v 0.030944 0.011782 -0.009609
v 0.037130 0.033779 -0.026102
v 0.030944 0.039281 -0.010296
v 0.038505 0.015219 -0.021978
v 0.035756 0.013157 -0.007546
v 0.037130 0.011782 -0.016481
v 0.036444 0.022094 -0.000675
v 0.038505 0.028277 -0.027476
v 0.037130 0.038592 -0.008236
v 0.033695 0.037905 -0.021978
v 0.030944 0.034468 -0.025416
v 0.038505 0.014533 -0.014417
v 0.032320 0.014533 -0.023352
f 478 489 505 
f 465 464 469 
f 469 464 470 
f 469 470 473 
f 469 473 475 
f 464 465 477 
f 465 469 478 
f 470 464 479 
f 468 476 480 
f 476 471 480 
f 480 466 481 
f 468 480 481 
f 470 479 482 
f 476 468 483 
f 474 478 486 
f 478 469 486 
f 469 485 486 
f 485 474 486 
f 475 473 487 
f 467 471 488 
f 478 474 489 
f 471 467 490 
f 466 480 490 
f 480 471 490 
f 467 482 491 
f 482 472 491 
f 466 490 491 
f 490 467 491 
f 471 476 492 
f 487 473 492 
f 488 471 492 
f 473 488 492 
f 479 464 493 
f 464 484 493 
f 468 481 494 
f 485 469 494 
f 483 475 495 
f 487 463 495 
f 475 487 495 
f 474 466 496 
f 489 474 496 
f 477 489 496 
f 472 482 497 
f 482 479 497 
f 484 472 497 
f 479 493 497 
f 493 484 497 
f 464 477 498 
f 484 464 498 
f 472 484 498 
f 477 496 498 
f 473 470 499 
f 482 467 499 
f 470 482 499 
f 467 488 499 
f 488 473 499 
f 466 474 500 
f 481 466 500 
f 474 485 500 
f 494 481 500 
f 485 494 500 
f 476 483 501 
f 463 487 501 
f 492 476 501 
f 487 492 501 
f 495 463 501 
f 483 495 501 
f 475 483 502 
f 483 468 502 
f 468 494 502 
f 502 494 503 
f 469 475 503 
f 494 469 503 
f 475 502 503 
f 466 491 504 
f 491 472 504 
f 496 466 504 
f 472 498 504 
f 498 496 504 
f 477 465 505 
f 465 478 505 
f 489 477 505 
