o convex_0
v -0.022179 -0.056191 -0.006948
v 0.023473 -0.058013 0.017996
v 0.023473 -0.058622 0.017996
v -0.016088 -0.060450 0.027131
v -0.006351 -0.048276 0.013735
v 0.014947 -0.060448 -0.014862
v 0.013731 -0.048276 -0.016686
v -0.013045 -0.065317 0.010690
v 0.017382 -0.065926 0.020433
v 0.016167 -0.053756 0.025911
v -0.019131 -0.048276 -0.002687
v -0.015481 -0.057404 -0.017907
v -0.018524 -0.053146 0.021649
v 0.018602 -0.048276 -0.000255
v 0.021645 -0.063490 -0.002083
v 0.015559 -0.062274 0.029564
v -0.013653 -0.062274 -0.008777
v -0.019131 -0.063492 0.020433
v 0.022253 -0.054974 -0.009385
v -0.015481 -0.050712 -0.016083
v -0.011830 -0.054973 0.027131
v -0.011830 -0.064710 0.024086
v 0.016775 -0.064708 -0.000255
v -0.022179 -0.061664 0.003399
v -0.022179 -0.054364 0.014343
v -0.000260 -0.048276 -0.018510
v 0.018602 -0.050714 0.016172
v 0.013731 -0.058013 -0.017299
v 0.022861 -0.052538 0.012524
v 0.022253 -0.062882 0.022257
v 0.014339 -0.058013 0.030172
v -0.019131 -0.049494 0.011303
v 0.021038 -0.056799 0.025302
v 0.005822 -0.048276 0.013740
v -0.011830 -0.051322 0.021649
v -0.020351 -0.058622 -0.012430
v -0.020959 -0.051930 -0.011209
v -0.021567 -0.059840 0.019825
v 0.022861 -0.064100 0.007042
v 0.022861 -0.052538 -0.003295
v -0.011830 -0.061664 0.028348
v 0.016775 -0.065926 0.010087
v 0.019818 -0.058013 -0.013646
v -0.013045 -0.054364 -0.019128
v -0.011222 -0.059840 -0.016083
v 0.016167 -0.062882 -0.008777
v 0.016167 -0.064708 0.026519
v -0.019739 -0.063492 0.004011
v -0.010614 -0.064100 -0.000863
v -0.021567 -0.050104 0.004011
v 0.023473 -0.059840 -0.001471
v 0.017382 -0.048276 -0.013033
v 0.012516 -0.051930 0.023478
v -0.014873 -0.048276 -0.011822
v -0.014265 -0.065317 0.017996
v 0.008253 -0.048276 -0.018510
v -0.013045 -0.057404 0.028348
v 0.011904 -0.065926 0.022257
v 0.021645 -0.061666 -0.007561
v 0.011296 -0.063490 0.028956
v -0.019131 -0.053146 -0.015475
v -0.010002 -0.056191 -0.019128
v -0.019739 -0.060450 -0.009993
v -0.019739 -0.056799 0.023478
f 57 13 64 
f 5 7 11 
f 7 5 14 
f 4 18 22 
f 1 24 25 
f 11 7 26 
f 14 27 29 
f 3 2 30 
f 10 21 31 
f 5 11 32 
f 25 13 32 
f 27 10 33 
f 2 29 33 
f 29 27 33 
f 30 2 33 
f 16 30 33 
f 31 16 33 
f 10 31 33 
f 14 5 34 
f 27 14 34 
f 13 21 35 
f 5 32 35 
f 32 13 35 
f 24 1 36 
f 36 1 37 
f 18 4 38 
f 24 18 38 
f 25 24 38 
f 3 30 39 
f 30 9 39 
f 29 2 40 
f 14 29 40 
f 4 22 41 
f 16 31 41 
f 23 15 42 
f 15 39 42 
f 39 9 42 
f 6 28 43 
f 28 7 43 
f 20 26 44 
f 28 6 45 
f 15 23 46 
f 45 6 46 
f 17 45 46 
f 9 30 47 
f 30 16 47 
f 18 24 48 
f 42 8 49 
f 23 42 49 
f 46 23 49 
f 17 46 49 
f 8 48 49 
f 48 17 49 
f 1 25 50 
f 32 11 50 
f 25 32 50 
f 11 37 50 
f 37 1 50 
f 2 3 51 
f 3 39 51 
f 40 2 51 
f 19 40 51 
f 7 14 52 
f 14 40 52 
f 40 19 52 
f 43 7 52 
f 19 43 52 
f 21 10 53 
f 10 27 53 
f 34 5 53 
f 27 34 53 
f 35 21 53 
f 5 35 53 
f 11 26 54 
f 26 20 54 
f 37 11 54 
f 20 37 54 
f 22 18 55 
f 48 8 55 
f 18 48 55 
f 26 7 56 
f 7 28 56 
f 44 26 56 
f 21 13 57 
f 31 21 57 
f 4 41 57 
f 41 31 57 
f 8 42 58 
f 42 9 58 
f 9 47 58 
f 47 22 58 
f 22 55 58 
f 55 8 58 
f 39 15 59 
f 6 43 59 
f 43 19 59 
f 46 6 59 
f 15 46 59 
f 51 39 59 
f 19 51 59 
f 16 41 60 
f 41 22 60 
f 22 47 60 
f 47 16 60 
f 12 36 61 
f 37 20 61 
f 36 37 61 
f 44 12 61 
f 20 44 61 
f 12 44 62 
f 28 45 62 
f 45 12 62 
f 56 28 62 
f 44 56 62 
f 36 12 63 
f 24 36 63 
f 45 17 63 
f 12 45 63 
f 17 48 63 
f 48 24 63 
f 13 25 64 
f 38 4 64 
f 25 38 64 
f 4 57 64 
o convex_1
v 0.045992 0.011376 -0.002692
v 0.044167 0.047289 0.004002
v 0.045992 0.046679 0.005828
v 0.026517 0.021117 0.007046
v 0.026517 0.027208 -0.005736
v 0.064256 0.025991 -0.000257
v 0.057558 0.020510 0.005828
v 0.052080 0.033892 -0.006344
v 0.027736 0.038156 0.008263
v 0.031999 0.041808 -0.001475
v 0.058774 0.039373 0.005828
v 0.032604 0.011987 0.002784
v 0.049645 0.021117 -0.006954
v 0.055124 0.043026 -0.000866
v 0.050251 0.039373 0.008263
v 0.051470 0.012594 0.004002
v 0.026517 0.041201 0.005219
v 0.057558 0.015033 -0.001473
v 0.026517 0.023552 -0.005736
v 0.042952 0.041808 -0.003910
v 0.061818 0.030854 -0.003300
v 0.042952 0.013812 0.005828
v 0.035648 0.014422 -0.003910
v 0.026517 0.016247 0.000352
v 0.063646 0.033285 0.003393
v 0.040517 0.032068 -0.006954
v 0.058168 0.022334 -0.005128
v 0.036258 0.041808 0.008872
v 0.026517 0.029022 0.008263
v 0.062427 0.021121 0.002784
v 0.033214 0.045461 0.005219
v 0.041736 0.046068 -0.000257
v 0.059993 0.028426 0.006435
v 0.046601 0.010159 0.001566
v 0.063037 0.035720 0.000352
v 0.047817 0.016247 -0.005736
v 0.055124 0.044243 0.003393
v 0.026517 0.040591 0.001566
v 0.036867 0.037545 -0.005128
v 0.040517 0.021117 -0.006954
v 0.037477 0.010769 -0.000866
v 0.056949 0.038763 -0.003300
v 0.035648 0.012594 0.005219
v 0.050251 0.044243 0.007046
v 0.052689 0.028426 -0.006954
v 0.032604 0.044854 0.001566
v 0.062427 0.021121 -0.001473
v 0.027736 0.015640 0.004610
v 0.055733 0.016250 -0.003908
v 0.049036 0.042419 -0.003301
v 0.056949 0.014422 0.002175
v 0.049645 0.046068 0.000959
v 0.030174 0.014422 -0.001475
v 0.041127 0.010769 0.004002
v 0.034433 0.044854 0.007046
v 0.048426 0.037545 -0.005736
v 0.052689 0.011987 -0.000866
v 0.041127 0.016247 -0.005736
v 0.058774 0.030243 -0.005128
v 0.058168 0.036327 0.007044
v 0.063037 0.027815 0.004609
v 0.045386 0.043637 0.008263
v 0.061212 0.038763 0.003393
v 0.030780 0.016247 0.006437
f 112 107 128 
f 69 68 81 
f 68 69 83 
f 71 79 86 
f 80 71 86 
f 68 83 88 
f 83 69 90 
f 81 68 93 
f 73 81 93 
f 86 79 93 
f 92 73 93 
f 79 92 93 
f 84 74 96 
f 79 71 97 
f 70 85 99 
f 89 70 99 
f 74 69 102 
f 69 81 102 
f 69 74 103 
f 74 84 103 
f 90 69 103 
f 90 77 104 
f 83 90 104 
f 77 100 104 
f 87 65 105 
f 65 98 105 
f 78 99 106 
f 99 85 106 
f 101 67 108 
f 75 101 108 
f 90 72 109 
f 77 90 109 
f 91 77 109 
f 95 66 110 
f 81 95 110 
f 66 96 110 
f 96 74 110 
f 74 102 110 
f 102 81 110 
f 85 70 111 
f 91 85 111 
f 70 94 111 
f 94 82 111 
f 68 88 112 
f 88 76 112 
f 76 107 112 
f 77 91 113 
f 65 100 113 
f 100 77 113 
f 111 82 113 
f 91 111 113 
f 84 96 114 
f 78 106 114 
f 71 80 115 
f 94 71 115 
f 82 94 115 
f 66 67 116 
f 96 66 116 
f 67 101 116 
f 101 78 116 
f 78 114 116 
f 114 96 116 
f 83 87 117 
f 88 83 117 
f 76 88 117 
f 87 105 117 
f 105 76 117 
f 80 86 118 
f 98 80 118 
f 76 105 118 
f 105 98 118 
f 107 76 118 
f 86 107 118 
f 67 66 119 
f 81 73 119 
f 73 92 119 
f 66 95 119 
f 95 81 119 
f 72 90 120 
f 103 84 120 
f 90 103 120 
f 106 72 120 
f 84 114 120 
f 114 106 120 
f 98 65 121 
f 80 98 121 
f 65 113 121 
f 113 82 121 
f 115 80 121 
f 82 115 121 
f 65 87 122 
f 87 83 122 
f 100 65 122 
f 83 104 122 
f 104 100 122 
f 85 91 123 
f 72 106 123 
f 106 85 123 
f 109 72 123 
f 91 109 123 
f 89 75 124 
f 79 97 124 
f 75 108 124 
f 108 79 124 
f 70 89 125 
f 71 94 125 
f 94 70 125 
f 97 71 125 
f 89 124 125 
f 124 97 125 
f 92 79 126 
f 79 108 126 
f 108 67 126 
f 67 119 126 
f 119 92 126 
f 75 89 127 
f 99 78 127 
f 89 99 127 
f 101 75 127 
f 78 101 127 
f 93 68 128 
f 86 93 128 
f 107 86 128 
f 68 112 128 
o convex_2
v -0.031312 0.035112 -0.001475
v -0.062353 0.023550 0.007653
v -0.062353 0.023550 0.009481
v -0.034359 0.010768 0.007653
v -0.033745 0.042417 0.011305
v -0.052610 0.043028 0.004005
v -0.048960 0.021726 -0.000258
v -0.028269 0.018077 0.012524
v -0.053221 0.014420 0.013133
v -0.055046 0.036326 0.012524
v -0.028269 0.044242 0.004003
v -0.028269 0.021119 0.000960
v -0.049567 0.011378 0.005827
v -0.050178 0.037547 -0.000258
v -0.042877 0.046681 0.008261
v -0.041663 0.044245 0.000962
v -0.060525 0.033284 0.004614
v -0.037398 0.019294 -0.000258
v -0.044095 0.010768 0.012524
v -0.057482 0.024161 0.002179
v -0.028269 0.041807 0.010088
v -0.058699 0.038158 0.008870
v -0.044095 0.032680 -0.002084
v -0.057482 0.029631 0.013133
v -0.056871 0.015031 0.006434
v -0.038616 0.012596 0.003396
v -0.028269 0.014424 0.005827
v -0.034966 0.014420 0.013133
v -0.036791 0.027207 -0.002084
v -0.048353 0.044245 0.010087
v -0.028269 0.039371 0.000351
v -0.050178 0.015031 0.002786
v -0.055656 0.013203 0.010087
v -0.034355 0.046681 0.006436
v -0.042270 0.041810 0.011914
v -0.054435 0.032070 0.000352
v -0.061739 0.031459 0.010087
v -0.060525 0.021122 0.011914
v -0.045917 0.009550 0.008261
v -0.030095 0.013206 0.010697
v -0.041052 0.038765 -0.001475
v -0.040441 0.046681 0.003396
v -0.034355 0.043024 0.000351
v -0.028877 0.027207 -0.000866
v -0.028269 0.021729 0.012524
v -0.048960 0.045459 0.007653
v -0.038616 0.010161 0.011307
v -0.056871 0.038158 0.003396
v -0.031920 0.014424 0.003394
v -0.047742 0.027207 -0.001475
v -0.060525 0.018684 0.007653
v -0.043488 0.019294 -0.000258
v -0.034966 0.045459 0.009481
v -0.028269 0.038765 0.011305
v -0.056871 0.019294 0.003396
v -0.060525 0.025989 0.004005
v -0.050178 0.010768 0.011307
v -0.047742 0.042414 0.000962
v -0.054435 0.041810 0.009481
v -0.045917 0.046070 0.004005
v -0.062353 0.030242 0.007044
v -0.029484 0.044852 0.007653
v -0.038616 0.010161 0.006434
v -0.059307 0.037547 0.006434
f 189 165 192 
f 139 136 140 
f 136 139 149 
f 140 136 155 
f 137 147 156 
f 152 137 156 
f 151 129 157 
f 139 140 159 
f 141 153 160 
f 154 141 160 
f 153 141 161 
f 138 152 163 
f 158 138 163 
f 142 151 164 
f 138 150 165 
f 152 138 165 
f 152 165 166 
f 137 152 166 
f 161 137 166 
f 165 131 166 
f 132 155 168 
f 155 136 168 
f 136 156 168 
f 129 151 169 
f 151 142 169 
f 143 162 170 
f 162 139 170 
f 139 159 171 
f 159 129 171 
f 169 144 171 
f 129 169 171 
f 170 139 171 
f 144 170 171 
f 140 146 172 
f 157 129 172 
f 146 157 172 
f 159 140 172 
f 129 159 172 
f 136 149 173 
f 156 136 173 
f 152 156 173 
f 163 152 173 
f 158 143 174 
f 156 147 175 
f 147 167 175 
f 132 168 175 
f 168 156 175 
f 142 164 176 
f 164 145 176 
f 146 140 177 
f 154 146 177 
f 155 132 177 
f 140 155 177 
f 135 148 178 
f 151 157 178 
f 148 164 178 
f 164 151 178 
f 131 130 179 
f 153 161 179 
f 166 131 179 
f 161 166 179 
f 146 154 180 
f 157 146 180 
f 160 135 180 
f 154 160 180 
f 135 178 180 
f 178 157 180 
f 133 149 181 
f 143 158 181 
f 162 143 181 
f 163 133 181 
f 158 163 181 
f 149 133 182 
f 133 163 182 
f 173 149 182 
f 163 173 182 
f 148 135 183 
f 135 160 183 
f 160 153 183 
f 153 179 183 
f 183 179 184 
f 145 164 184 
f 164 148 184 
f 179 130 184 
f 148 183 184 
f 147 137 185 
f 137 161 185 
f 161 141 185 
f 167 147 185 
f 141 167 185 
f 169 142 186 
f 144 169 186 
f 176 134 186 
f 142 176 186 
f 150 138 187 
f 138 158 187 
f 174 134 187 
f 158 174 187 
f 143 170 188 
f 170 144 188 
f 134 174 188 
f 174 143 188 
f 144 186 188 
f 186 134 188 
f 130 131 189 
f 131 165 189 
f 184 130 189 
f 145 184 189 
f 149 139 190 
f 139 162 190 
f 181 149 190 
f 162 181 190 
f 141 154 191 
f 167 141 191 
f 132 175 191 
f 175 167 191 
f 177 132 191 
f 154 177 191 
f 165 150 192 
f 134 176 192 
f 176 145 192 
f 150 187 192 
f 187 134 192 
f 145 189 192 
o convex_3
v -0.013653 0.012600 -0.024599
v 0.026511 0.034505 0.008260
v 0.026511 0.030242 0.008260
v -0.013653 0.028413 0.033819
v -0.008784 0.050328 -0.013639
v 0.008252 0.000420 0.013124
v 0.020425 0.019907 -0.022775
v -0.028261 0.014424 0.009478
v -0.028261 0.043631 0.003995
v 0.008863 0.050938 0.002783
v 0.013733 0.027198 0.031390
v 0.011298 0.040588 -0.025816
v -0.005738 0.000420 -0.017293
v -0.020957 0.032066 -0.022775
v -0.006350 0.003463 0.021036
v 0.021642 0.007727 0.000966
v -0.003304 0.049719 0.011301
v 0.010081 0.000420 -0.015469
v 0.003989 0.019292 -0.028857
v -0.014871 0.000420 -0.008775
v -0.025826 0.018687 -0.013646
v 0.026511 0.040593 0.002790
v 0.002166 0.018682 0.035655
v 0.011298 0.033895 0.029560
v -0.007567 0.037544 -0.028252
v 0.019208 0.010770 0.016172
v 0.007035 0.049114 -0.017905
v 0.025905 0.027808 -0.013034
v -0.009396 0.033895 0.032607
v -0.012436 0.013209 0.028342
v -0.028261 0.041197 0.010083
v -0.012436 0.001035 0.011301
v -0.011830 0.044851 -0.022163
v 0.020425 0.038154 -0.019122
v 0.024077 0.013204 -0.009986
v 0.010081 0.009556 0.025907
v 0.006429 0.008336 -0.024599
v -0.003304 0.052767 -0.002687
v 0.026511 0.018687 0.005824
v 0.011904 0.031456 -0.028252
v 0.010081 0.047285 0.011301
v 0.014338 0.047285 -0.013646
v -0.016088 0.022341 -0.026428
v -0.027655 0.027198 -0.009381
v 0.016773 0.024769 0.028342
v -0.020351 0.009556 -0.016081
v -0.028261 0.019292 0.012519
v -0.003915 0.046680 -0.023381
v -0.010002 0.049109 0.010083
v -0.016699 0.007117 0.018607
v 0.026511 0.040593 0.005219
v 0.014338 0.001644 0.006430
v -0.018523 0.043027 -0.017293
v 0.002777 0.041197 0.023471
v 0.002777 0.005902 0.025295
v 0.016773 0.013819 -0.023381
v -0.005133 0.029627 0.035043
v -0.022786 0.021731 -0.020952
v -0.005738 0.026594 -0.029469
v -0.005133 0.011380 -0.026422
v 0.020425 0.029632 -0.023381
v -0.025220 0.031461 -0.016081
v -0.012436 0.024165 0.034431
v 0.009469 0.050938 -0.007557
f 202 243 256 
f 198 205 210 
f 205 198 212 
f 194 195 214 
f 201 200 223 
f 196 221 223 
f 198 207 224 
f 200 212 224 
f 212 198 224 
f 217 206 225 
f 214 220 226 
f 208 210 227 
f 199 220 227 
f 198 218 228 
f 210 205 229 
f 197 201 230 
f 209 202 230 
f 219 197 230 
f 214 195 231 
f 218 208 231 
f 220 214 231 
f 208 227 231 
f 227 220 231 
f 217 204 232 
f 202 209 233 
f 204 219 234 
f 226 204 234 
f 214 226 234 
f 206 217 235 
f 200 201 236 
f 213 200 236 
f 195 194 237 
f 203 215 237 
f 215 228 237 
f 228 218 237 
f 231 195 237 
f 218 231 237 
f 193 205 238 
f 212 200 238 
f 205 212 238 
f 200 213 238 
f 200 222 239 
f 196 223 239 
f 223 200 239 
f 204 217 240 
f 197 219 240 
f 219 204 240 
f 225 197 240 
f 217 225 240 
f 221 209 241 
f 201 223 241 
f 223 221 241 
f 230 201 241 
f 209 230 241 
f 222 200 242 
f 207 222 242 
f 224 207 242 
f 200 224 242 
f 194 214 243 
f 216 203 243 
f 202 233 243 
f 233 216 243 
f 237 194 243 
f 203 237 243 
f 198 210 244 
f 210 208 244 
f 208 218 244 
f 218 198 244 
f 201 197 245 
f 197 225 245 
f 225 206 245 
f 209 221 246 
f 221 216 246 
f 233 209 246 
f 216 233 246 
f 207 198 247 
f 222 207 247 
f 215 222 247 
f 198 228 247 
f 228 215 247 
f 199 227 248 
f 227 210 248 
f 210 229 248 
f 229 211 248 
f 232 199 248 
f 211 232 248 
f 215 203 249 
f 203 216 249 
f 221 196 249 
f 216 221 249 
f 235 193 250 
f 206 235 250 
f 193 238 250 
f 238 213 250 
f 232 211 251 
f 217 232 251 
f 235 217 251 
f 235 251 252 
f 205 193 252 
f 229 205 252 
f 211 229 252 
f 193 235 252 
f 251 211 252 
f 220 199 253 
f 204 226 253 
f 226 220 253 
f 199 232 253 
f 232 204 253 
f 236 201 254 
f 213 236 254 
f 201 245 254 
f 245 206 254 
f 206 250 254 
f 250 213 254 
f 222 215 255 
f 196 239 255 
f 239 222 255 
f 215 249 255 
f 249 196 255 
f 230 202 256 
f 219 230 256 
f 214 234 256 
f 234 219 256 
f 243 214 256 
o convex_4
v -0.033136 -0.025754 0.002174
v -0.033745 -0.037319 -0.001474
v -0.033136 -0.037319 -0.001474
v -0.038005 -0.030626 0.009481
v -0.034962 -0.029407 -0.003910
v -0.039223 -0.029407 0.007655
v -0.033136 -0.031233 0.004608
v -0.033136 -0.025146 -0.002690
v -0.036179 -0.036711 0.000960
v -0.034962 -0.037319 0.002784
v -0.033745 -0.033058 -0.005737
v -0.039223 -0.031233 0.008872
v -0.035571 -0.032449 -0.002690
v -0.036787 -0.029407 0.008872
v -0.033136 -0.035493 0.002784
f 270 260 271 
f 259 257 263 
f 257 259 264 
f 261 262 264 
f 262 257 264 
f 258 259 266 
f 265 258 266 
f 259 258 267 
f 264 259 267 
f 261 264 267 
f 258 265 267 
f 260 262 268 
f 262 265 268 
f 266 260 268 
f 265 266 268 
f 262 261 269 
f 265 262 269 
f 261 267 269 
f 267 265 269 
f 262 260 270 
f 257 262 270 
f 263 257 270 
f 263 270 271 
f 259 263 271 
f 266 259 271 
f 260 266 271 
o convex_5
v -0.024615 -0.017842 -0.011213
v -0.023397 -0.016626 0.005220
v -0.020962 -0.012972 0.004609
v -0.027049 -0.038536 -0.004516
v -0.033136 -0.022705 0.000350
v -0.020962 -0.025752 -0.010604
v -0.021571 -0.005667 -0.004516
v -0.033136 -0.039146 0.000350
v -0.033136 -0.033057 -0.006343
v -0.020962 -0.025752 0.000959
v -0.030090 -0.018454 0.004002
v -0.030700 -0.017842 -0.004516
v -0.033136 -0.031231 0.004002
v -0.020962 -0.009321 -0.009386
v -0.026442 -0.011147 0.000959
v -0.023397 -0.022705 0.004609
v -0.025223 -0.025139 -0.011213
v -0.020962 -0.008102 0.002782
v -0.028264 -0.019673 -0.009386
v -0.027049 -0.038536 -0.002695
v -0.020962 -0.028187 -0.003909
v -0.020962 -0.014800 -0.011824
v -0.033136 -0.027578 -0.005736
v -0.024615 -0.011756 -0.008170
v -0.028264 -0.019061 0.005220
v -0.031918 -0.039146 0.000350
v -0.031309 -0.017842 0.000350
v -0.022788 -0.008712 0.002782
v -0.027049 -0.011756 -0.002695
v -0.020962 -0.023317 0.002782
v -0.033136 -0.039146 -0.001477
v -0.031309 -0.033663 -0.006952
v -0.028264 -0.022108 -0.009997
v -0.025223 -0.022705 0.005220
v -0.023397 -0.025752 -0.011213
v -0.020962 -0.005667 -0.000261
v -0.031918 -0.020276 -0.004516
v -0.033136 -0.027578 0.004002
f 284 296 309 
f 279 276 280 
f 277 274 281 
f 276 279 284 
f 274 277 285 
f 274 273 287 
f 274 285 289 
f 275 277 292 
f 277 281 292 
f 291 275 292 
f 281 291 292 
f 272 285 293 
f 285 277 293 
f 288 272 293 
f 280 276 294 
f 285 272 295 
f 278 285 295 
f 290 283 295 
f 272 290 295 
f 273 274 296 
f 284 279 297 
f 275 291 297 
f 276 282 298 
f 282 286 298 
f 286 282 299 
f 274 289 299 
f 296 274 299 
f 282 296 299 
f 286 278 300 
f 278 295 300 
f 295 283 300 
f 283 298 300 
f 298 286 300 
f 281 274 301 
f 274 287 301 
f 291 281 301 
f 287 297 301 
f 297 291 301 
f 279 280 302 
f 275 297 302 
f 297 279 302 
f 280 288 303 
f 302 280 303 
f 275 302 303 
f 272 288 304 
f 288 280 304 
f 290 272 304 
f 280 294 304 
f 294 290 304 
f 287 273 305 
f 273 296 305 
f 296 284 305 
f 284 297 305 
f 297 287 305 
f 277 275 306 
f 293 277 306 
f 288 293 306 
f 275 303 306 
f 303 288 306 
f 285 278 307 
f 278 286 307 
f 289 285 307 
f 286 299 307 
f 299 289 307 
f 283 290 308 
f 294 276 308 
f 290 294 308 
f 276 298 308 
f 298 283 308 
f 282 276 309 
f 276 284 309 
f 296 282 309 
o convex_6
v 0.005210 -0.017239 -0.023998
v 0.000947 -0.019064 0.021655
v -0.002700 -0.019064 0.021655
v 0.005210 -0.048266 -0.019122
v -0.020962 -0.030007 -0.013036
v -0.015481 0.000415 -0.009385
v 0.021038 -0.005671 -0.001475
v 0.007036 -0.048266 0.013736
v -0.017915 -0.044010 0.008870
v 0.019817 -0.041575 -0.015471
v -0.006350 0.000415 0.014348
v 0.019817 -0.033663 0.010693
v -0.019132 -0.017239 0.011913
v 0.011903 -0.000805 -0.016691
v -0.016698 -0.048266 -0.009993
v 0.006427 0.000415 0.013128
v -0.014265 -0.025141 -0.020342
v 0.018600 -0.020280 -0.021558
v 0.019209 -0.048276 -0.002083
v -0.011218 -0.005066 -0.019122
v -0.011218 -0.037314 0.017999
v -0.020962 -0.005066 -0.000264
v 0.014341 -0.013588 0.015564
v -0.019132 -0.011758 -0.016079
v -0.011218 -0.048266 0.011913
v -0.009393 -0.040355 -0.019730
v 0.011903 -0.035488 -0.022773
v 0.005210 0.000415 -0.018514
v 0.008861 -0.038529 0.017387
v -0.020349 -0.040355 0.002779
v -0.010610 -0.014803 0.019215
v 0.021038 -0.011153 -0.012428
v 0.021038 -0.040359 0.000956
v -0.017915 -0.031838 0.014952
v -0.003917 -0.040355 0.018607
v 0.016775 -0.045226 0.009473
v 0.013733 0.000415 -0.003299
v -0.000874 -0.034268 -0.022773
v 0.016167 -0.048266 -0.015471
v 0.008252 -0.006892 -0.022165
v -0.018524 -0.034878 -0.016687
v 0.010078 -0.017849 0.019215
v 0.021038 -0.020890 0.007042
v -0.005134 -0.014803 -0.022773
v 0.017992 -0.008107 -0.017907
v -0.010001 -0.048266 -0.016079
v -0.017307 -0.009327 0.010693
v 0.016775 -0.039749 -0.020342
v -0.019132 -0.046441 -0.003906
v 0.002776 0.000415 0.014956
v 0.020426 -0.032448 -0.017907
v -0.005742 0.000415 -0.017907
v 0.017383 -0.033053 0.013741
v -0.020349 -0.033663 0.007650
v -0.020962 -0.006282 -0.006949
v 0.000338 -0.006282 -0.022165
v 0.014950 -0.008107 0.011913
v -0.010610 0.000415 0.009473
v 0.014341 -0.019064 -0.023381
v -0.016698 -0.016019 -0.019122
v 0.016775 -0.002631 -0.012428
v -0.020349 -0.040965 -0.009385
v -0.017307 -0.003846 -0.013644
v -0.017307 -0.048266 0.003387
f 339 358 373 
f 315 320 325 
f 328 317 334 
f 330 318 334 
f 315 325 337 
f 312 320 340 
f 330 312 340 
f 328 319 342 
f 341 316 342 
f 318 330 343 
f 340 322 343 
f 330 340 343 
f 311 312 344 
f 312 330 344 
f 334 317 344 
f 330 334 344 
f 317 338 344 
f 338 311 344 
f 317 328 345 
f 338 317 345 
f 342 321 345 
f 328 342 345 
f 325 316 346 
f 337 325 346 
f 323 337 346 
f 313 335 347 
f 335 326 347 
f 336 313 347 
f 310 336 347 
f 328 313 348 
f 319 328 348 
f 337 323 349 
f 314 333 350 
f 326 335 350 
f 311 338 351 
f 332 321 352 
f 342 316 352 
f 321 342 352 
f 310 347 353 
f 347 326 353 
f 341 327 354 
f 349 323 354 
f 313 328 355 
f 328 324 355 
f 335 313 355 
f 324 350 355 
f 350 335 355 
f 331 322 356 
f 340 320 356 
f 322 340 356 
f 313 336 357 
f 336 327 357 
f 348 313 357 
f 319 348 357 
f 312 311 359 
f 320 312 359 
f 325 320 359 
f 332 325 359 
f 311 351 359 
f 351 332 359 
f 327 341 360 
f 342 319 360 
f 341 342 360 
f 319 357 360 
f 357 327 360 
f 315 337 361 
f 321 332 362 
f 338 345 362 
f 345 321 362 
f 332 351 362 
f 351 338 362 
f 331 314 363 
f 322 331 363 
f 339 318 363 
f 314 339 363 
f 318 343 363 
f 343 322 363 
f 314 331 364 
f 331 315 364 
f 333 314 364 
f 349 310 365 
f 337 349 365 
f 353 329 365 
f 310 353 365 
f 329 361 365 
f 361 337 365 
f 316 325 366 
f 325 332 366 
f 332 352 366 
f 352 316 366 
f 320 315 367 
f 315 331 367 
f 356 320 367 
f 331 356 367 
f 336 310 368 
f 327 336 368 
f 310 349 368 
f 354 327 368 
f 349 354 368 
f 333 329 369 
f 350 333 369 
f 326 350 369 
f 353 326 369 
f 329 353 369 
f 316 341 370 
f 346 316 370 
f 323 346 370 
f 354 323 370 
f 341 354 370 
f 339 314 371 
f 314 350 371 
f 350 324 371 
f 324 358 371 
f 358 339 371 
f 329 333 372 
f 315 361 372 
f 361 329 372 
f 364 315 372 
f 333 364 372 
f 324 328 373 
f 334 318 373 
f 328 334 373 
f 318 339 373 
f 358 324 373 
o convex_7
v 0.021041 -0.017843 -0.014867
v 0.030168 -0.028795 0.004002
v 0.028342 -0.028795 0.004002
v 0.021041 -0.007494 0.000959
v 0.021041 -0.030015 -0.003914
v 0.031385 -0.023925 -0.006951
v 0.026518 -0.030015 -0.011214
v 0.026518 -0.012364 -0.005129
v 0.030776 -0.020272 0.000349
v 0.032601 -0.030015 0.002176
v 0.021041 -0.019665 0.002176
v 0.021648 -0.011755 -0.012429
v 0.021041 -0.027580 -0.013040
v 0.028342 -0.021489 -0.011214
v 0.021041 -0.006885 -0.006345
v 0.030168 -0.030015 -0.008170
v 0.026518 -0.030015 0.003393
v 0.025909 -0.024536 -0.013648
v 0.021648 -0.009320 0.002176
v 0.028950 -0.016626 -0.006345
v 0.022257 -0.006885 -0.001476
v 0.028950 -0.020272 0.002783
v 0.024083 -0.011755 -0.009996
v 0.021041 -0.025753 0.000349
v 0.025300 -0.016626 -0.012429
v 0.031993 -0.023318 -0.003914
v 0.032601 -0.030015 -0.002695
v 0.021041 -0.030015 -0.009996
v 0.025300 -0.011147 -0.000259
v 0.023474 -0.025753 -0.014258
v 0.021648 -0.014802 0.002783
v 0.028950 -0.028189 -0.010604
v 0.028950 -0.016019 -0.002085
f 402 382 406 
f 377 374 378 
f 378 380 383 
f 377 378 384 
f 378 374 386 
f 374 377 388 
f 385 374 388 
f 383 380 389 
f 375 376 390 
f 383 375 390 
f 378 383 390 
f 379 387 393 
f 388 377 394 
f 381 388 394 
f 375 383 395 
f 383 382 395 
f 392 375 395 
f 388 381 396 
f 385 388 396 
f 381 393 396 
f 384 378 397 
f 378 390 397 
f 390 384 397 
f 374 385 398 
f 391 374 398 
f 387 391 398 
f 393 387 398 
f 385 396 398 
f 396 393 398 
f 382 383 399 
f 379 393 399 
f 383 389 400 
f 389 379 400 
f 379 399 400 
f 399 383 400 
f 380 378 401 
f 378 386 401 
f 386 380 401 
f 377 392 402 
f 381 394 402 
f 394 377 402 
f 395 382 402 
f 392 395 402 
f 386 374 403 
f 380 386 403 
f 374 391 403 
f 391 380 403 
f 376 375 404 
f 377 384 404 
f 390 376 404 
f 384 390 404 
f 375 392 404 
f 392 377 404 
f 387 379 405 
f 389 380 405 
f 379 389 405 
f 380 391 405 
f 391 387 405 
f 393 381 406 
f 382 399 406 
f 399 393 406 
f 381 402 406 
o convex_8
v 0.022257 -0.030017 -0.010604
v 0.034428 -0.031842 0.013131
v 0.034428 -0.033059 0.013131
v 0.030777 -0.030017 -0.006952
v 0.027736 -0.042189 0.004000
v 0.022867 -0.030017 -0.000862
v 0.031383 -0.037319 -0.002693
v 0.024083 -0.040970 -0.002082
v 0.027126 -0.030625 -0.010604
v 0.033211 -0.035495 -0.000256
v 0.031383 -0.039753 0.008263
v 0.033211 -0.033059 0.013131
v 0.027736 -0.042189 0.005218
v 0.032602 -0.030017 0.005824
v 0.032602 -0.030017 -0.002691
v 0.023473 -0.040362 -0.001473
v 0.021648 -0.030625 -0.003908
v 0.029560 -0.036102 -0.005734
v 0.033211 -0.031233 0.012522
v 0.028949 -0.041579 0.002785
v 0.034428 -0.031233 0.008870
v 0.021648 -0.030625 -0.009386
f 422 423 428 
f 410 407 412 
f 414 407 415 
f 407 410 415 
f 413 410 416 
f 413 416 417 
f 416 409 417 
f 409 408 418 
f 417 409 418 
f 418 412 419 
f 414 411 419 
f 417 418 419 
f 410 412 420 
f 416 410 421 
f 410 420 421 
f 419 412 422 
f 414 419 422 
f 412 407 423 
f 422 412 423 
f 410 413 424 
f 413 414 424 
f 414 415 424 
f 415 410 424 
f 418 408 425 
f 412 418 425 
f 420 412 425 
f 411 414 426 
f 414 413 426 
f 413 417 426 
f 419 411 426 
f 417 419 426 
f 408 409 427 
f 409 416 427 
f 416 421 427 
f 421 420 427 
f 425 408 427 
f 420 425 427 
f 407 414 428 
f 414 422 428 
f 423 407 428 
