o convex_0
v -0.020088 -0.055329 -0.006374
v 0.026858 -0.033246 0.006748
v 0.026858 -0.038770 0.006748
v -0.016638 -0.029105 0.049539
v -0.018018 -0.022199 -0.016043
v 0.024783 -0.023578 0.045397
v 0.008902 -0.059474 0.014343
v 0.016497 -0.043596 -0.016732
v 0.020643 -0.022199 -0.011205
v -0.027683 -0.022199 0.023991
v -0.026993 -0.051878 0.008126
v 0.018573 -0.057406 0.000525
v 0.009592 -0.033246 0.050235
v -0.026303 -0.040838 -0.012590
v -0.012493 -0.058091 0.015707
v -0.006973 -0.039459 -0.020881
v -0.022853 -0.022199 0.041944
v 0.020643 -0.051878 0.017085
v 0.002692 -0.058091 -0.007752
v -0.029753 -0.026344 0.000532
v 0.026163 -0.040838 -0.008448
v 0.008212 -0.029795 -0.020185
v -0.008353 -0.061546 0.003288
v 0.025473 -0.022199 0.001221
v -0.006283 -0.051189 0.028133
v -0.029753 -0.042214 0.012268
v -0.016638 -0.032553 0.048153
v 0.024783 -0.022199 0.044701
v -0.011113 -0.048427 -0.016732
v 0.024783 -0.049120 0.008816
v -0.003517 -0.022195 -0.018800
v -0.023543 -0.050499 0.018464
v -0.027683 -0.022199 -0.004299
v 0.009592 -0.051189 -0.014658
v -0.029063 -0.046358 -0.001543
v -0.014563 -0.031867 -0.020178
v -0.004207 -0.022195 0.046775
v 0.024783 -0.026340 0.044701
v 0.009592 -0.060853 -0.000164
v -0.020088 -0.058095 0.006748
v 0.019953 -0.033246 -0.016043
v 0.008902 -0.053261 0.024687
v 0.017187 -0.053261 -0.009130
v -0.027683 -0.044282 0.017775
v -0.018708 -0.042903 -0.017421
v -0.022853 -0.030484 -0.016043
v 0.005452 -0.043596 -0.019496
v 0.017187 -0.055329 0.016396
v -0.015948 -0.053261 0.021917
v -0.007663 -0.057402 -0.008448
v 0.008902 -0.029795 0.050235
v -0.000073 -0.060853 0.012268
v 0.024093 -0.050499 -0.001543
v -0.030449 -0.031174 0.010890
v -0.030449 -0.037391 -0.000847
v 0.013048 -0.022195 -0.016036
v 0.026163 -0.033246 -0.007759
v -0.024923 -0.053950 -0.001543
v 0.019263 -0.056716 0.010194
v -0.028373 -0.033242 0.022606
v -0.018018 -0.031174 0.048153
v -0.028373 -0.035319 -0.009137
v 0.008212 -0.061546 0.006059
v -0.023543 -0.049810 -0.009827
f 58 35 64 
f 3 2 6 
f 2 3 21 
f 13 4 27 
f 25 13 27 
f 6 2 28 
f 2 24 28 
f 21 3 30 
f 20 10 33 
f 31 5 33 
f 11 26 35 
f 22 16 36 
f 5 31 36 
f 31 22 36 
f 17 4 37 
f 10 17 37 
f 33 10 37 
f 31 33 37 
f 3 6 38 
f 6 13 38 
f 30 3 38 
f 18 30 38 
f 23 19 39 
f 1 23 40 
f 23 15 40 
f 32 11 40 
f 21 8 41 
f 8 22 41 
f 13 25 42 
f 8 21 43 
f 34 8 43 
f 19 34 43 
f 12 39 43 
f 39 19 43 
f 26 11 44 
f 11 32 44 
f 16 29 45 
f 36 16 45 
f 36 45 46 
f 33 5 46 
f 5 36 46 
f 45 14 46 
f 22 8 47 
f 16 22 47 
f 29 16 47 
f 8 34 47 
f 34 29 47 
f 38 13 48 
f 18 38 48 
f 42 7 48 
f 13 42 48 
f 15 25 49 
f 25 27 49 
f 27 32 49 
f 40 15 49 
f 32 40 49 
f 23 1 50 
f 19 23 50 
f 1 29 50 
f 34 19 50 
f 29 34 50 
f 4 13 51 
f 13 6 51 
f 6 28 51 
f 37 4 51 
f 28 37 51 
f 15 23 52 
f 25 15 52 
f 7 42 52 
f 42 25 52 
f 21 30 53 
f 43 21 53 
f 12 43 53 
f 10 20 54 
f 35 26 55 
f 54 20 55 
f 26 54 55 
f 24 9 56 
f 28 24 56 
f 22 31 56 
f 37 28 56 
f 31 37 56 
f 9 41 56 
f 41 22 56 
f 2 21 57 
f 24 2 57 
f 9 24 57 
f 21 41 57 
f 41 9 57 
f 11 35 58 
f 1 40 58 
f 40 11 58 
f 30 18 59 
f 48 7 59 
f 18 48 59 
f 12 53 59 
f 53 30 59 
f 17 10 60 
f 26 44 60 
f 10 54 60 
f 54 26 60 
f 4 17 61 
f 27 4 61 
f 32 27 61 
f 44 32 61 
f 17 60 61 
f 60 44 61 
f 20 33 62 
f 14 35 62 
f 33 46 62 
f 46 14 62 
f 55 20 62 
f 35 55 62 
f 39 12 63 
f 23 39 63 
f 52 23 63 
f 7 52 63 
f 59 7 63 
f 12 59 63 
f 29 1 64 
f 35 14 64 
f 14 45 64 
f 45 29 64 
f 1 58 64 
o convex_1
v -0.027682 -0.021504 -0.003615
v 0.025477 -0.021504 0.006745
v 0.024094 -0.014602 0.012942
v -0.010427 -0.022195 0.046085
v -0.022157 -0.013910 0.037803
v -0.001452 -0.013910 -0.028469
v 0.023406 -0.020813 0.044704
v 0.002691 -0.021504 -0.027081
v 0.019951 -0.013910 -0.021567
v 0.009594 -0.013910 0.043324
v -0.018708 -0.013910 -0.020187
v -0.023539 -0.022195 0.042634
v 0.022023 -0.022195 -0.009136
v -0.020779 -0.022195 -0.013975
v -0.026994 -0.013910 0.019843
v 0.024094 -0.022195 0.044704
v -0.008350 -0.013910 0.045395
v 0.019951 -0.013910 0.031584
v -0.006284 -0.020813 -0.027088
v -0.029065 -0.022195 0.012251
v -0.024922 -0.018052 0.042634
v -0.026994 -0.013910 0.006055
v 0.022712 -0.013910 -0.011207
v 0.017186 -0.014602 -0.024328
v -0.001452 -0.018052 -0.029857
v -0.001452 -0.018743 0.046783
v 0.024783 -0.022195 -0.002917
v 0.024094 -0.020124 0.043324
v -0.015259 -0.014602 -0.023638
v 0.002691 -0.013910 0.045395
v 0.023406 -0.013910 0.019153
v 0.004762 -0.022195 -0.018109
v -0.025611 -0.018052 0.041254
v 0.014426 -0.013910 0.040563
v 0.004762 -0.021504 -0.026398
v -0.025611 -0.013910 -0.000847
v -0.026300 -0.022195 -0.007066
v -0.024233 -0.015981 0.041254
v -0.000070 -0.022195 0.046783
v -0.001452 -0.015292 -0.029857
v -0.029065 -0.020813 0.007435
v -0.024922 -0.020813 0.042634
v 0.000619 -0.018052 -0.029857
v -0.014570 -0.013910 0.044014
v -0.024233 -0.018743 0.043324
v 0.025477 -0.021504 0.001906
v -0.009044 -0.017362 0.046085
v -0.002136 -0.021504 -0.027081
v -0.027682 -0.015292 0.016392
v 0.023406 -0.019432 0.043324
v 0.020640 -0.014602 -0.020187
v 0.017880 -0.022195 -0.013285
v 0.017186 -0.013910 -0.024328
v -0.028376 -0.022195 0.019161
v -0.026994 -0.018052 -0.002235
v -0.011116 -0.022195 -0.018109
v 0.022023 -0.013910 -0.016038
f 91 115 121 
f 70 69 73 
f 73 69 74 
f 69 70 75 
f 68 76 77 
f 77 76 78 
f 69 75 79 
f 68 77 80 
f 74 69 81 
f 73 74 82 
f 78 76 84 
f 79 75 86 
f 73 82 87 
f 80 71 90 
f 66 80 91 
f 80 77 91 
f 66 67 92 
f 80 66 92 
f 71 80 92 
f 75 70 93 
f 78 75 93 
f 83 78 93 
f 89 83 93 
f 71 74 94 
f 74 81 94 
f 90 71 94 
f 81 90 94 
f 67 87 95 
f 87 82 95 
f 92 67 95 
f 77 78 96 
f 82 74 98 
f 96 72 99 
f 86 75 100 
f 65 75 101 
f 75 78 101 
f 78 84 101 
f 84 65 101 
f 69 79 102 
f 79 97 102 
f 97 85 102 
f 68 80 103 
f 80 90 103 
f 90 68 103 
f 93 70 104 
f 89 93 104 
f 65 84 105 
f 76 68 106 
f 85 97 106 
f 72 89 107 
f 88 99 107 
f 99 72 107 
f 89 104 107 
f 81 69 108 
f 69 102 108 
f 102 85 108 
f 106 68 109 
f 85 106 109 
f 81 108 109 
f 108 85 109 
f 67 66 110 
f 87 67 110 
f 66 91 110 
f 68 90 111 
f 90 81 111 
f 109 68 111 
f 81 109 111 
f 78 83 112 
f 89 72 112 
f 83 89 112 
f 72 96 112 
f 79 86 113 
f 97 79 113 
f 84 97 113 
f 105 84 113 
f 86 105 113 
f 74 71 114 
f 71 92 114 
f 95 82 114 
f 92 95 114 
f 98 74 114 
f 82 98 114 
f 88 73 115 
f 77 88 115 
f 91 77 115 
f 88 77 116 
f 77 96 116 
f 99 88 116 
f 96 99 116 
f 70 73 117 
f 73 88 117 
f 104 70 117 
f 88 107 117 
f 107 104 117 
f 84 76 118 
f 97 84 118 
f 76 106 118 
f 106 97 118 
f 75 65 119 
f 100 75 119 
f 86 100 119 
f 65 105 119 
f 105 86 119 
f 96 78 120 
f 78 112 120 
f 112 96 120 
f 73 87 121 
f 87 110 121 
f 110 91 121 
f 115 73 121 
o convex_2
v -0.006968 -0.013906 0.045402
v 0.029620 0.004040 -0.020876
v 0.028927 0.004040 -0.005002
v -0.026996 0.004038 -0.028463
v 0.017189 -0.013906 -0.025704
v -0.007661 0.004038 0.030210
v -0.026996 -0.013906 0.008801
v 0.018569 -0.013906 0.033659
v -0.017326 -0.005622 -0.040896
v 0.028234 0.004040 -0.040896
v -0.024231 0.004038 0.011560
v 0.014429 0.004038 0.023304
v -0.020778 -0.013217 0.039185
v -0.015946 -0.013906 -0.025014
v 0.023402 -0.013906 0.001904
v -0.024924 0.003350 -0.041586
v 0.023402 -0.005622 -0.039508
v 0.004759 -0.007003 0.041255
v 0.027547 -0.004933 -0.031231
v -0.012493 -0.004246 0.038495
v 0.023402 -0.013906 0.018467
v 0.026167 0.004040 0.007422
v -0.021471 -0.010455 -0.025014
v -0.026996 -0.013906 0.019156
v 0.013050 -0.012527 0.040556
v -0.026996 0.004038 0.000533
v 0.019949 -0.005622 -0.040896
v -0.006968 -0.013906 -0.027084
v 0.021329 -0.013906 -0.020876
v -0.024924 -0.000794 -0.037439
v -0.000068 0.004038 0.030899
v -0.016639 -0.002865 0.033659
v 0.020642 0.004038 0.017079
v 0.029620 0.001278 -0.025704
v -0.004901 -0.005622 0.041255
v -0.024924 0.004038 -0.041586
v -0.024924 -0.013217 0.028822
v 0.004759 -0.013906 0.044703
v 0.017189 -0.007693 -0.038128
v -0.020091 -0.003556 -0.041586
v 0.006831 -0.000103 0.033659
v -0.015259 0.004038 0.024683
v -0.013879 -0.013906 0.044014
v -0.024924 -0.013906 -0.002226
v 0.028234 -0.000103 -0.040206
v -0.026304 0.001969 -0.035369
v 0.023402 -0.013217 -0.013969
v -0.016639 -0.006312 -0.040206
v 0.003379 -0.011836 0.044703
v -0.021471 -0.008384 0.032960
v -0.021471 -0.005622 -0.036757
v 0.021329 -0.013217 0.026752
v 0.027547 0.003350 0.003275
v 0.029620 0.003350 -0.038137
v -0.008348 -0.009074 0.043324
v 0.026167 -0.006312 -0.033300
v 0.016497 -0.013217 0.037107
v 0.028234 -0.003554 -0.022945
v 0.001312 -0.004246 0.039875
v -0.011113 -0.004246 -0.041594
v -0.019398 -0.013906 -0.020186
v 0.028234 -0.002175 -0.012598
v 0.009597 -0.009074 0.040556
v -0.005588 -0.000103 0.035728
f 156 180 185 
f 126 122 128 
f 122 126 129 
f 124 123 131 
f 126 128 135 
f 129 126 136 
f 129 136 142 
f 124 131 143 
f 131 125 143 
f 125 128 145 
f 128 122 145 
f 143 125 147 
f 132 143 147 
f 125 145 147 
f 126 135 149 
f 136 126 150 
f 126 138 150 
f 143 127 152 
f 133 143 152 
f 141 127 153 
f 134 141 153 
f 143 133 154 
f 133 146 154 
f 123 124 155 
f 125 131 157 
f 145 134 158 
f 132 147 158 
f 147 145 158 
f 122 129 159 
f 138 126 160 
f 148 138 160 
f 126 149 160 
f 151 137 161 
f 133 152 162 
f 143 132 163 
f 127 143 163 
f 153 127 163 
f 132 153 163 
f 141 134 164 
f 145 122 164 
f 134 145 164 
f 135 128 165 
f 128 151 165 
f 151 144 165 
f 148 131 166 
f 138 148 166 
f 128 125 167 
f 151 128 167 
f 137 151 167 
f 125 157 167 
f 157 137 167 
f 140 136 168 
f 136 150 168 
f 130 148 169 
f 149 135 169 
f 148 160 169 
f 160 149 169 
f 122 159 170 
f 159 146 170 
f 153 132 171 
f 134 153 171 
f 132 158 171 
f 158 134 171 
f 144 151 172 
f 161 130 172 
f 151 161 172 
f 130 169 172 
f 169 135 172 
f 129 142 173 
f 143 129 173 
f 143 173 174 
f 142 124 174 
f 124 143 174 
f 173 142 174 
f 131 123 175 
f 123 155 175 
f 155 140 175 
f 140 166 175 
f 166 131 175 
f 156 141 176 
f 141 164 176 
f 164 122 176 
f 122 170 176 
f 170 156 176 
f 150 138 177 
f 138 166 177 
f 166 140 177 
f 140 168 177 
f 168 150 177 
f 129 143 178 
f 143 154 178 
f 154 146 178 
f 159 129 178 
f 146 159 178 
f 136 140 179 
f 142 136 179 
f 140 155 179 
f 139 162 180 
f 162 152 180 
f 170 139 180 
f 156 170 180 
f 148 130 181 
f 131 148 181 
f 157 131 181 
f 137 157 181 
f 130 161 181 
f 161 137 181 
f 135 165 182 
f 165 144 182 
f 172 135 182 
f 144 172 182 
f 124 142 183 
f 155 124 183 
f 142 179 183 
f 179 155 183 
f 146 133 184 
f 162 139 184 
f 133 162 184 
f 139 170 184 
f 170 146 184 
f 127 141 185 
f 152 127 185 
f 141 156 185 
f 180 152 185 
o convex_3
v -0.018020 0.008876 0.021918
v 0.031001 0.017850 -0.002240
v 0.031001 0.013707 -0.002240
v -0.024919 0.010947 -0.041594
v 0.028926 0.004042 -0.040210
v -0.018706 0.019922 -0.034685
v -0.020775 0.019922 0.019844
v 0.002003 0.004042 0.029516
v -0.026994 0.004042 -0.029849
v 0.025473 0.019922 -0.031923
v 0.017191 0.019922 0.023303
v 0.025473 0.004042 0.009491
v -0.028377 0.019922 0.005351
v -0.024233 0.004042 0.011564
v 0.026165 0.012327 -0.040898
v -0.024919 0.004042 -0.041594
v -0.008348 0.019922 0.027443
v 0.031001 0.019922 -0.016733
v -0.028377 0.019922 -0.012586
v -0.010423 0.004042 0.028131
v 0.027548 0.019922 0.010876
v 0.016499 0.004734 0.021918
v -0.023542 0.015088 -0.040891
v -0.027680 0.004734 -0.005009
v 0.005450 0.019922 -0.035374
v 0.028926 0.004042 -0.002936
v 0.006142 0.019922 0.027443
v 0.024096 0.015778 0.016393
v 0.029617 0.004042 -0.038825
v 0.028926 0.007496 -0.040898
v -0.002135 0.004734 0.030212
v -0.026302 0.007496 -0.038825
v -0.015259 0.019922 0.024687
v -0.024919 0.019922 -0.027087
v 0.031001 0.010947 -0.003632
v 0.028234 0.019922 -0.027783
v -0.022850 0.011637 0.016400
v -0.028377 0.010947 -0.007758
v -0.027680 0.009566 0.003966
v 0.027548 0.013017 0.009491
v -0.020775 0.004042 0.017778
v 0.017882 0.013017 0.022607
v 0.021335 0.004042 0.016393
v 0.001312 0.019922 0.028131
v 0.029617 0.019922 0.005351
v -0.021472 0.013707 -0.041594
v -0.025611 0.011637 -0.039514
v -0.007662 0.004734 0.029516
v 0.028234 0.004042 -0.040898
v -0.024919 0.019230 0.013631
v -0.026994 0.004042 0.001204
v 0.024096 0.019922 0.017089
v 0.028234 0.011637 -0.039514
v 0.029617 0.004042 -0.016045
v 0.013047 0.018539 0.025376
v 0.027548 0.005424 0.005351
v 0.006828 0.004042 0.027443
v 0.031001 0.010947 -0.009831
v -0.017328 0.017850 0.023296
v 0.030303 0.019922 -0.021562
v 0.029617 0.007496 -0.038825
v 0.024096 0.019922 -0.032611
v -0.026994 0.014398 0.008113
v -0.017328 0.004042 -0.041594
f 215 234 249 
f 190 193 194 
f 191 192 195 
f 195 192 196 
f 193 190 197 
f 192 191 198 
f 194 193 199 
f 190 194 201 
f 196 192 202 
f 187 188 203 
f 195 196 203 
f 198 191 204 
f 199 193 205 
f 203 196 206 
f 191 195 210 
f 208 191 210 
f 200 208 210 
f 197 190 211 
f 196 202 212 
f 211 190 214 
f 214 190 215 
f 205 193 216 
f 193 212 216 
f 201 194 217 
f 189 201 217 
f 194 204 217 
f 202 192 218 
f 204 191 219 
f 191 208 219 
f 203 188 220 
f 195 203 221 
f 186 192 222 
f 204 194 223 
f 198 204 223 
f 194 209 223 
f 223 209 224 
f 198 223 224 
f 206 213 225 
f 213 197 225 
f 220 188 225 
f 205 186 226 
f 199 205 226 
f 186 222 226 
f 222 199 226 
f 213 227 228 
f 193 197 228 
f 197 213 228 
f 227 207 228 
f 212 202 229 
f 202 216 229 
f 216 212 229 
f 188 187 230 
f 187 203 230 
f 203 206 230 
f 225 188 230 
f 206 225 230 
f 201 189 231 
f 189 208 231 
f 208 200 231 
f 200 215 231 
f 208 189 232 
f 189 217 232 
f 217 204 232 
f 204 219 232 
f 219 208 232 
f 205 216 233 
f 216 202 233 
f 202 218 233 
f 218 205 233 
f 190 201 234 
f 215 190 234 
f 192 198 235 
f 222 192 235 
f 194 199 236 
f 209 194 236 
f 224 209 236 
f 199 224 236 
f 206 196 237 
f 213 206 237 
f 196 227 237 
f 227 213 237 
f 200 195 238 
f 215 200 238 
f 195 221 238 
f 211 214 239 
f 220 211 239 
f 214 220 239 
f 212 193 240 
f 196 212 240 
f 227 196 240 
f 197 211 241 
f 211 220 241 
f 225 197 241 
f 220 225 241 
f 207 227 242 
f 193 228 242 
f 228 207 242 
f 240 193 242 
f 227 240 242 
f 214 203 243 
f 203 220 243 
f 220 214 243 
f 192 186 244 
f 186 205 244 
f 218 192 244 
f 205 218 244 
f 221 203 245 
f 238 221 245 
f 238 245 246 
f 203 214 246 
f 214 215 246 
f 215 238 246 
f 245 203 246 
f 195 200 247 
f 210 195 247 
f 200 210 247 
f 199 222 248 
f 198 224 248 
f 224 199 248 
f 235 198 248 
f 222 235 248 
f 201 231 249 
f 231 215 249 
f 234 201 249 
o convex_4
v -0.016637 0.050989 0.008115
v 0.001999 0.019922 -0.035375
v 0.005453 0.019922 -0.035375
v 0.001310 0.019922 0.028141
v -0.028377 0.019922 -0.011897
v 0.006835 0.059960 -0.009828
v -0.020091 0.047535 -0.040208
v 0.006835 0.042703 0.021916
v -0.020781 0.028208 0.019848
v 0.006835 0.046846 -0.032611
v -0.020091 0.019922 -0.033990
v -0.025613 0.040633 -0.002245
v 0.006835 0.019922 0.026755
v 0.000617 0.060658 0.001897
v -0.010426 0.051682 -0.040201
v -0.009737 0.042013 0.021923
v -0.016637 0.054442 -0.020182
v -0.024924 0.019922 0.013637
v -0.020781 0.037184 -0.040904
v 0.006835 0.019922 -0.034679
v -0.011116 0.019922 0.026748
v -0.026302 0.030281 0.009494
v -0.004215 0.048225 -0.040201
v -0.019402 0.052372 -0.004314
v -0.022159 0.046156 -0.035375
v -0.019402 0.042013 0.015712
v -0.004215 0.050295 0.016401
v 0.006835 0.052368 0.012948
v -0.013187 0.054438 -0.030536
v -0.000072 0.029592 0.027438
v -0.026302 0.019922 -0.022947
v -0.027685 0.030975 -0.009822
v -0.028377 0.020616 0.005344
v 0.006835 0.053058 -0.025021
v -0.013187 0.030971 0.024680
v -0.021470 0.050299 -0.017418
v -0.022159 0.043392 0.008798
v -0.014566 0.055131 0.000519
v -0.018020 0.035808 -0.040904
v -0.018709 0.050299 -0.038829
v -0.022159 0.043392 -0.038133
v -0.012494 0.046156 0.017780
v 0.006835 0.028898 0.026755
v 0.006835 0.044082 -0.033990
v -0.000072 0.059960 0.003972
v -0.017330 0.019922 0.023301
v -0.021470 0.049605 -0.001556
v -0.013187 0.019922 -0.035369
v 0.001999 0.060658 -0.005003
v 0.006835 0.059960 -0.003624
v -0.027685 0.030975 0.001897
v -0.007665 0.051682 -0.039512
v -0.023541 0.046846 -0.011897
v -0.007665 0.035118 0.025370
v -0.026302 0.038563 -0.008443
v 0.004760 0.047535 0.019159
v 0.002692 0.057891 0.007419
v -0.015259 0.041319 0.019848
v -0.013187 0.053748 0.006737
v -0.009737 0.044772 -0.040897
v -0.012494 0.056511 -0.008443
v -0.004215 0.044772 0.021227
v -0.024924 0.019922 -0.027090
v -0.012494 0.053748 -0.034679
f 301 264 313 
f 251 252 253 
f 251 253 254 
f 255 257 259 
f 251 254 260 
f 253 252 262 
f 259 257 262 
f 254 253 267 
f 262 252 269 
f 259 262 269 
f 267 253 270 
f 267 258 271 
f 269 252 272 
f 271 258 275 
f 257 255 277 
f 270 253 279 
f 260 254 280 
f 254 267 282 
f 267 271 282 
f 281 254 282 
f 255 259 283 
f 273 266 285 
f 261 271 286 
f 275 250 286 
f 271 275 286 
f 273 250 287 
f 266 273 287 
f 252 251 288 
f 260 268 288 
f 264 256 289 
f 256 274 289 
f 266 278 289 
f 285 266 289 
f 274 285 289 
f 256 268 290 
f 274 256 290 
f 280 254 290 
f 254 281 290 
f 281 274 290 
f 250 275 291 
f 253 262 292 
f 262 257 292 
f 279 253 292 
f 257 279 292 
f 259 269 293 
f 272 259 293 
f 269 272 293 
f 263 287 294 
f 258 267 295 
f 267 270 295 
f 284 258 295 
f 270 284 295 
f 250 273 296 
f 273 285 296 
f 261 286 296 
f 286 250 296 
f 251 260 297 
f 288 251 297 
f 260 288 297 
f 278 266 298 
f 277 255 299 
f 255 298 299 
f 298 263 299 
f 271 261 300 
f 282 271 300 
f 281 282 300 
f 259 272 301 
f 272 264 301 
f 255 283 301 
f 283 259 301 
f 285 274 302 
f 261 296 302 
f 296 285 302 
f 279 257 303 
f 270 279 303 
f 284 270 303 
f 265 284 303 
f 274 281 304 
f 300 261 304 
f 281 300 304 
f 261 302 304 
f 302 274 304 
f 257 277 305 
f 305 277 306 
f 294 276 306 
f 263 294 306 
f 277 299 306 
f 299 263 306 
f 276 305 306 
f 275 258 307 
f 258 284 307 
f 284 265 307 
f 291 275 307 
f 265 291 307 
f 287 250 308 
f 250 291 308 
f 291 276 308 
f 276 294 308 
f 294 287 308 
f 256 264 309 
f 268 256 309 
f 264 272 309 
f 272 252 309 
f 252 288 309 
f 288 268 309 
f 287 263 310 
f 266 287 310 
f 263 298 310 
f 298 266 310 
f 291 265 311 
f 276 291 311 
f 303 257 311 
f 265 303 311 
f 257 305 311 
f 305 276 311 
f 268 260 312 
f 260 280 312 
f 290 268 312 
f 280 290 312 
f 264 289 313 
f 289 278 313 
f 298 255 313 
f 278 298 313 
f 255 301 313 
o convex_5
v 0.015812 0.050297 0.009492
v 0.006835 0.019922 -0.034687
v 0.006835 0.030972 -0.034687
v 0.029619 0.042011 -0.038135
v 0.028929 0.019926 0.008115
v 0.006835 0.019922 0.026760
v 0.006835 0.059968 -0.009828
v 0.030310 0.046844 -0.003626
v 0.030310 0.019922 -0.021569
v 0.013740 0.049603 -0.039518
v 0.020642 0.035805 0.019155
v 0.006835 0.047538 0.018473
v 0.024784 0.049607 -0.036064
v 0.026166 0.034426 -0.040213
v 0.021336 0.055131 -0.010523
v 0.025475 0.019926 -0.031920
v 0.006835 0.046844 -0.033297
v 0.020642 0.020616 0.021227
v 0.031001 0.019922 -0.002931
v 0.013049 0.031666 0.024688
v 0.027547 0.030282 0.011564
v 0.007526 0.057204 0.002582
v 0.031001 0.044774 -0.003626
v 0.010980 0.044080 -0.039518
v 0.022715 0.050297 -0.038135
v 0.022024 0.042704 0.012947
v 0.031001 0.024069 -0.016737
v 0.007526 0.039945 0.023305
v 0.028929 0.037185 -0.039512
v 0.013049 0.044080 0.019162
v 0.017194 0.057200 -0.013283
v 0.028238 0.044774 -0.039512
v 0.017884 0.052367 0.003965
v 0.007526 0.059968 -0.005009
v 0.030310 0.026833 0.003965
v 0.027547 0.047538 -0.033992
v 0.022715 0.054441 -0.012588
v 0.006835 0.052367 -0.026400
v 0.026166 0.033736 0.012947
v 0.008217 0.052367 0.012258
v 0.025475 0.026139 0.015707
v 0.013049 0.019922 0.025376
v 0.006835 0.028902 0.026760
v 0.028929 0.048228 -0.002938
v 0.016503 0.050987 -0.038135
v 0.013049 0.045464 -0.040213
v 0.017194 0.038565 0.020538
v 0.010289 0.059270 -0.011899
v 0.019263 0.028213 0.021915
v 0.009598 0.046844 -0.038142
v 0.021336 0.047538 0.008115
v 0.028238 0.019926 -0.027784
v 0.024096 0.019926 -0.032609
v 0.024096 0.019926 0.017083
v 0.014431 0.045464 0.017090
v 0.016503 0.054441 0.000517
v 0.027547 0.042011 -0.040213
v 0.022024 0.049607 -0.039512
v 0.028929 0.044774 -0.037440
v 0.022715 0.027523 0.019155
v 0.024784 0.034426 -0.040213
v 0.009598 0.019922 -0.034687
v 0.006835 0.053747 0.010187
v 0.029619 0.037875 -0.038135
f 365 342 377 
f 316 315 319 
f 316 319 320 
f 319 315 322 
f 320 319 325 
f 316 320 330 
f 319 322 332 
f 332 322 340 
f 317 336 340 
f 336 332 340 
f 329 327 342 
f 325 341 343 
f 326 338 344 
f 338 326 345 
f 317 342 345 
f 328 344 347 
f 318 332 348 
f 334 318 348 
f 332 336 348 
f 336 334 348 
f 345 326 349 
f 326 344 350 
f 344 328 350 
f 321 349 350 
f 349 326 350 
f 320 323 351 
f 330 320 351 
f 336 321 352 
f 334 336 352 
f 321 339 352 
f 339 324 352 
f 314 346 353 
f 346 335 353 
f 318 334 354 
f 334 352 354 
f 319 332 355 
f 355 333 356 
f 325 319 356 
f 341 325 356 
f 333 341 356 
f 319 355 356 
f 339 321 357 
f 321 350 357 
f 350 328 357 
f 323 320 358 
f 315 337 359 
f 324 339 360 
f 341 333 360 
f 343 341 360 
f 344 338 361 
f 320 347 361 
f 347 344 361 
f 358 320 361 
f 338 358 361 
f 355 331 362 
f 333 355 362 
f 324 360 362 
f 360 333 362 
f 315 316 363 
f 316 330 363 
f 337 315 363 
f 351 323 363 
f 330 351 363 
f 359 337 363 
f 323 359 363 
f 346 314 364 
f 339 357 364 
f 357 346 364 
f 322 329 365 
f 329 342 365 
f 327 329 366 
f 332 318 367 
f 318 354 367 
f 331 355 367 
f 355 332 367 
f 325 343 368 
f 353 325 368 
f 314 353 368 
f 360 339 368 
f 343 360 368 
f 364 314 368 
f 339 364 368 
f 335 346 369 
f 347 335 369 
f 328 347 369 
f 357 328 369 
f 346 357 369 
f 342 327 370 
f 345 342 370 
f 327 359 370 
f 370 359 371 
f 338 345 371 
f 323 358 371 
f 358 338 371 
f 359 323 371 
f 345 370 371 
f 336 317 372 
f 321 336 372 
f 317 345 372 
f 349 321 372 
f 345 349 372 
f 352 324 373 
f 354 352 373 
f 362 331 373 
f 324 362 373 
f 367 354 373 
f 331 367 373 
f 327 315 374 
f 315 359 374 
f 359 327 374 
f 322 315 375 
f 315 327 375 
f 329 322 375 
f 327 366 375 
f 366 329 375 
f 320 325 376 
f 347 320 376 
f 335 347 376 
f 325 353 376 
f 353 335 376 
f 317 340 377 
f 340 322 377 
f 342 317 377 
f 322 365 377 
