o convex_0
v 0.020950 0.034879 -0.009941
v -0.023353 -0.015315 -0.009941
v -0.023353 -0.015315 -0.009349
v 0.014454 -0.043091 -0.009941
v 0.018589 -0.007052 0.004826
v -0.008582 0.036051 0.004826
v -0.015671 -0.014133 0.004826
v -0.012129 0.039019 -0.009941
v 0.008545 0.041969 0.004826
v -0.006809 -0.047232 -0.006986
v 0.024497 -0.017101 -0.009941
v 0.007365 -0.021233 0.004826
v -0.018625 -0.000574 0.004826
v 0.019769 0.010657 0.004826
v -0.020987 0.016557 -0.009349
v -0.014490 -0.044273 -0.009941
v 0.000280 0.044928 -0.009941
v 0.025090 0.008880 -0.008168
v 0.010319 -0.046636 -0.008168
v 0.015047 0.033110 0.004826
v -0.000900 0.042564 0.004826
v 0.010907 0.043746 -0.009941
v 0.023904 0.024838 -0.009349
v 0.020362 -0.032455 -0.009349
v 0.014454 -0.020646 0.002463
v -0.020394 -0.029496 -0.009349
v 0.000280 -0.021233 0.004826
v -0.013898 0.020697 0.004826
v -0.016259 0.031920 -0.009349
v -0.013898 -0.045445 -0.008758
v 0.022136 -0.013556 -0.002852
v -0.012717 -0.017101 0.004826
v 0.018589 0.038424 -0.009349
v -0.018625 -0.010001 0.002463
v 0.004411 0.043151 0.004826
v 0.005003 -0.047232 -0.007577
v -0.006809 0.042564 -0.009349
v -0.022760 -0.001747 -0.009941
v 0.008545 -0.046636 -0.009349
v 0.012680 0.037828 0.004826
v 0.018001 -0.009415 0.004826
v 0.022724 0.008880 -0.001673
v 0.012088 -0.044868 -0.008168
v -0.005035 0.040201 0.004235
v 0.006777 0.044928 -0.009349
v -0.018033 0.027193 -0.009941
v 0.023904 0.024838 -0.009941
v 0.024497 -0.017101 -0.009349
v 0.011500 -0.021233 0.003643
v 0.014454 0.041969 -0.009349
v -0.018033 0.027193 -0.009349
v -0.013310 -0.045445 -0.009941
v 0.016227 0.031333 0.003643
v -0.022760 -0.001747 -0.009349
v 0.020950 0.034879 -0.009349
v 0.023316 0.012425 -0.003442
v -0.013898 0.036647 -0.009349
v 0.025090 0.008880 -0.009349
v -0.006809 -0.047232 -0.008168
v 0.019769 -0.007052 0.003054
v 0.015047 -0.014738 0.004826
v -0.011536 0.039606 -0.009349
v 0.023316 0.027788 -0.009349
v -0.014490 -0.044273 -0.008758
f 16 30 64 
f 2 1 4 
f 5 6 7 
f 1 2 8 
f 6 5 9 
f 4 1 11 
f 5 7 12 
f 7 6 13 
f 9 5 14 
f 2 4 16 
f 1 8 17 
f 9 14 20 
f 6 9 21 
f 1 17 22 
f 4 11 24 
f 3 2 26 
f 2 16 26 
f 12 7 27 
f 10 12 27 
f 13 6 28 
f 15 13 28 
f 27 7 32 
f 10 27 32 
f 7 30 32 
f 30 10 32 
f 1 22 33 
f 13 3 34 
f 7 13 34 
f 3 26 34 
f 26 7 34 
f 21 9 35 
f 17 21 35 
f 12 10 36 
f 19 12 36 
f 17 8 37 
f 21 17 37 
f 2 3 38 
f 8 2 38 
f 4 19 39 
f 19 36 39 
f 9 20 40 
f 33 9 40 
f 5 12 41 
f 25 24 41 
f 31 5 41 
f 24 31 41 
f 19 4 43 
f 4 24 43 
f 24 25 43 
f 6 21 44 
f 21 37 44 
f 9 22 45 
f 22 17 45 
f 35 9 45 
f 17 35 45 
f 29 8 46 
f 8 38 46 
f 38 15 46 
f 11 1 47 
f 23 18 47 
f 11 18 48 
f 24 11 48 
f 31 24 48 
f 18 42 48 
f 42 31 48 
f 12 19 49 
f 19 43 49 
f 43 25 49 
f 22 9 50 
f 9 33 50 
f 33 22 50 
f 28 6 51 
f 15 28 51 
f 6 29 51 
f 46 15 51 
f 29 46 51 
f 16 4 52 
f 30 16 52 
f 4 39 52 
f 20 14 53 
f 3 13 54 
f 13 15 54 
f 38 3 54 
f 15 38 54 
f 1 33 55 
f 40 20 55 
f 33 40 55 
f 20 53 55 
f 18 23 56 
f 23 14 56 
f 42 18 56 
f 14 42 56 
f 29 6 57 
f 8 29 57 
f 18 11 58 
f 11 47 58 
f 47 18 58 
f 10 30 59 
f 36 10 59 
f 39 36 59 
f 30 52 59 
f 52 39 59 
f 14 5 60 
f 5 31 60 
f 42 14 60 
f 31 42 60 
f 41 12 61 
f 25 41 61 
f 12 49 61 
f 49 25 61 
f 37 8 62 
f 6 44 62 
f 44 37 62 
f 57 6 62 
f 8 57 62 
f 14 23 63 
f 47 1 63 
f 23 47 63 
f 53 14 63 
f 1 55 63 
f 55 53 63 
f 7 26 64 
f 26 16 64 
f 30 7 64 
o convex_1
v 0.002637 -0.080306 -0.019396
v -0.036348 -0.041312 -0.028252
v -0.036348 -0.041312 -0.026483
v 0.023902 0.004165 -0.014079
v 0.028043 -0.039551 -0.028846
v -0.023353 -0.001755 -0.009942
v -0.026305 0.004165 -0.024119
v 0.017407 -0.042502 -0.009944
v -0.011535 -0.069673 -0.012896
v 0.019774 0.003562 -0.023527
v 0.025085 -0.062587 -0.025300
v -0.034574 -0.024204 -0.029437
v -0.026305 -0.067308 -0.024710
v 0.023317 0.003562 -0.009944
v -0.023938 -0.036599 -0.011715
v 0.011498 -0.069086 -0.013488
v 0.026268 -0.059039 -0.021756
v 0.000863 -0.020070 -0.028846
v -0.022762 0.004157 -0.010534
v -0.015669 -0.040725 -0.009942
v -0.023938 -0.069673 -0.019396
v -0.005034 -0.046041 -0.028846
v 0.024493 -0.020070 -0.009944
v 0.000863 -0.070260 -0.011715
v 0.020359 -0.070260 -0.018804
v -0.012126 -0.078537 -0.021756
v 0.023902 -0.025378 -0.028844
v -0.035757 -0.027156 -0.025300
v 0.028634 -0.043685 -0.024121
v -0.032214 -0.054905 -0.022346
v 0.015041 -0.075585 -0.022346
v -0.011535 -0.077950 -0.017033
v 0.026860 -0.055492 -0.027073
v -0.033391 -0.052540 -0.027664
v -0.003272 0.002974 -0.024710
v 0.009730 -0.077950 -0.017033
v -0.035757 -0.035416 -0.029437
v -0.031622 -0.014745 -0.028252
v 0.007955 -0.036020 -0.029437
v -0.035757 -0.040129 -0.024710
v 0.000863 -0.060222 -0.026483
v 0.020950 -0.041907 -0.011125
v -0.024530 -0.011206 -0.010534
v 0.020359 0.004165 -0.022938
v -0.026896 0.004165 -0.022936
v -0.000906 -0.074394 -0.012896
v -0.002089 -0.024204 -0.029437
v -0.015669 -0.068490 -0.014079
v 0.023902 0.002379 -0.009944
v -0.004442 -0.079711 -0.017033
v -0.022762 -0.023014 -0.009942
v -0.019804 -0.074402 -0.022936
v 0.028634 -0.038955 -0.026481
v 0.027451 -0.033060 -0.027664
v 0.005004 -0.071442 -0.012306
v -0.002680 -0.044859 -0.009942
v -0.016852 -0.076172 -0.018214
v -0.028665 -0.063174 -0.021165
v 0.003821 -0.080306 -0.021165
v -0.006217 -0.072029 -0.012306
v 0.028043 -0.047224 -0.028254
v 0.000863 -0.054310 -0.027664
v 0.007364 0.004165 -0.024119
v 0.028043 -0.051953 -0.023529
f 125 93 128 
f 78 68 83 
f 70 78 83 
f 79 73 84 
f 75 81 89 
f 66 67 92 
f 70 83 92 
f 75 89 95 
f 75 95 97 
f 67 66 98 
f 94 67 98 
f 89 80 100 
f 95 89 100 
f 66 92 101 
f 92 76 101 
f 98 66 101 
f 86 98 101 
f 71 99 102 
f 99 82 102 
f 91 69 103 
f 101 76 103 
f 86 101 103 
f 92 67 104 
f 67 94 104 
f 94 79 104 
f 97 95 105 
f 77 98 105 
f 72 80 106 
f 81 87 106 
f 87 72 106 
f 80 89 106 
f 89 81 106 
f 70 92 107 
f 104 79 107 
f 92 104 107 
f 71 68 108 
f 91 74 108 
f 68 71 109 
f 83 68 109 
f 76 92 109 
f 92 83 109 
f 71 102 109 
f 102 76 109 
f 82 91 111 
f 76 102 111 
f 102 82 111 
f 91 103 111 
f 103 76 111 
f 73 79 112 
f 79 85 112 
f 68 78 113 
f 78 70 113 
f 87 93 113 
f 96 90 114 
f 65 100 114 
f 110 96 114 
f 100 110 114 
f 84 70 115 
f 79 84 115 
f 70 107 115 
f 107 79 115 
f 85 77 116 
f 77 105 116 
f 105 95 116 
f 68 113 117 
f 113 93 117 
f 69 91 118 
f 108 68 118 
f 91 108 118 
f 68 117 118 
f 117 69 118 
f 80 72 119 
f 72 88 119 
f 100 80 119 
f 88 110 119 
f 110 100 119 
f 70 84 120 
f 72 87 120 
f 88 72 120 
f 84 88 120 
f 113 70 120 
f 87 113 120 
f 96 73 121 
f 90 96 121 
f 73 112 121 
f 112 85 121 
f 85 116 121 
f 116 90 121 
f 77 85 122 
f 85 79 122 
f 79 94 122 
f 94 98 122 
f 98 77 122 
f 100 65 123 
f 95 100 123 
f 65 114 123 
f 114 90 123 
f 90 116 123 
f 116 95 123 
f 84 73 124 
f 88 84 124 
f 73 96 124 
f 110 88 124 
f 96 110 124 
f 103 69 125 
f 86 103 125 
f 69 117 125 
f 117 93 125 
f 98 86 126 
f 97 105 126 
f 105 98 126 
f 86 125 126 
f 125 97 126 
f 74 91 127 
f 91 82 127 
f 99 71 127 
f 82 99 127 
f 71 108 127 
f 108 74 127 
f 81 75 128 
f 87 81 128 
f 93 87 128 
f 75 97 128 
f 97 125 128 
o convex_2
v -0.025713 0.007124 -0.019983
v 0.003819 0.047291 -0.025300
v 0.003819 0.047291 -0.025892
v 0.023908 0.004165 -0.013488
v -0.010354 0.040790 -0.009942
v 0.020361 0.008893 -0.029437
v -0.022166 0.027792 -0.028846
v 0.020949 0.035471 -0.009942
v -0.022166 0.004165 -0.009942
v 0.023908 0.036062 -0.028252
v -0.026307 0.004165 -0.024119
v -0.013307 0.041377 -0.028846
v 0.023908 0.008302 -0.009942
v 0.009725 0.044332 -0.009942
v -0.018625 0.031334 -0.012306
v -0.023942 0.013621 -0.029437
v 0.016819 0.043741 -0.028252
v 0.020361 0.004165 -0.022936
v 0.025090 0.021895 -0.028252
v 0.024496 0.025433 -0.011715
v -0.013307 0.042559 -0.021756
v 0.021543 0.022482 -0.029437
v 0.000277 0.044923 -0.009942
v -0.021578 0.030743 -0.022346
v -0.004442 0.046700 -0.027664
v 0.020949 0.007124 -0.028846
v -0.021578 0.015985 -0.009942
v 0.022725 0.004165 -0.009942
v -0.025125 0.017167 -0.022346
v 0.019772 0.041377 -0.022346
v -0.017442 0.038426 -0.021756
v 0.024496 0.034293 -0.023527
v 0.019772 0.039608 -0.028846
v -0.012124 0.026610 -0.029437
v -0.025713 0.014803 -0.028252
v -0.007400 0.045518 -0.021165
v 0.013272 0.045514 -0.024710
v 0.015637 0.041377 -0.009942
v -0.018625 0.036653 -0.028252
v 0.007366 0.046700 -0.028252
v -0.015671 0.034884 -0.009942
v 0.024496 0.012439 -0.010534
v -0.012718 0.043150 -0.028252
v 0.022132 0.008302 -0.028252
v 0.025090 0.030743 -0.022346
v -0.020395 0.026610 -0.012896
v 0.022725 0.038426 -0.023527
v 0.023314 0.028970 -0.009942
v -0.000312 0.047291 -0.024710
v 0.006183 0.004165 -0.024119
v -0.015671 0.036653 -0.011715
v -0.003854 0.043150 -0.028846
v 0.007366 0.044923 -0.009942
v -0.022760 0.021891 -0.029437
v 0.025090 0.031334 -0.028252
v -0.004442 0.043741 -0.009942
v 0.022132 0.039608 -0.027664
v 0.008543 0.046700 -0.024119
v 0.018590 0.039013 -0.010534
v -0.026307 0.004760 -0.021165
v -0.022760 0.006533 -0.010534
v 0.015637 0.044336 -0.023527
v 0.018590 0.008302 -0.029437
v -0.022760 0.027201 -0.027073
f 152 167 192 
f 136 133 137 
f 132 137 139 
f 136 137 141 
f 133 136 142 
f 132 139 146 
f 134 144 150 
f 147 134 150 
f 133 142 151 
f 132 146 154 
f 134 147 154 
f 137 133 155 
f 137 132 156 
f 132 141 156 
f 141 137 156 
f 129 155 157 
f 152 143 159 
f 138 150 161 
f 150 144 162 
f 144 139 163 
f 149 133 164 
f 142 136 166 
f 140 135 167 
f 152 159 167 
f 153 131 168 
f 145 161 168 
f 165 145 168 
f 155 133 169 
f 143 155 169 
f 141 132 170 
f 132 147 170 
f 153 140 171 
f 159 149 171 
f 149 164 171 
f 164 153 171 
f 140 167 171 
f 167 159 171 
f 147 132 172 
f 132 154 172 
f 154 147 172 
f 160 148 173 
f 170 147 173 
f 148 170 173 
f 143 152 174 
f 155 143 174 
f 152 157 174 
f 157 155 174 
f 160 138 175 
f 136 160 175 
f 136 141 176 
f 148 160 176 
f 160 136 176 
f 141 170 176 
f 170 148 176 
f 130 131 177 
f 131 153 177 
f 164 151 177 
f 153 164 177 
f 146 139 178 
f 139 154 178 
f 154 146 178 
f 133 149 179 
f 159 143 179 
f 149 159 179 
f 169 133 179 
f 143 169 179 
f 140 153 180 
f 161 150 180 
f 150 162 180 
f 162 140 180 
f 153 168 180 
f 168 161 180 
f 151 142 181 
f 130 177 181 
f 177 151 181 
f 135 140 182 
f 140 162 182 
f 162 144 182 
f 144 163 182 
f 163 135 182 
f 150 138 183 
f 147 150 183 
f 138 160 183 
f 173 147 183 
f 160 173 183 
f 133 151 184 
f 164 133 184 
f 151 164 184 
f 145 158 185 
f 138 161 185 
f 161 145 185 
f 175 138 185 
f 158 175 185 
f 131 130 186 
f 142 165 186 
f 168 131 186 
f 165 168 186 
f 181 142 186 
f 130 181 186 
f 158 166 187 
f 166 136 187 
f 136 175 187 
f 175 158 187 
f 139 137 188 
f 129 157 188 
f 163 139 188 
f 157 163 188 
f 155 129 189 
f 137 155 189 
f 188 137 189 
f 129 188 189 
f 158 145 190 
f 165 142 190 
f 145 165 190 
f 166 158 190 
f 142 166 190 
f 144 134 191 
f 139 144 191 
f 134 154 191 
f 154 139 191 
f 157 152 192 
f 135 163 192 
f 163 157 192 
f 167 135 192 
o convex_3
v 0.015047 0.034884 0.016641
v -0.018036 -0.003513 0.004828
v -0.018036 -0.003513 0.005419
v 0.013863 -0.016505 0.007192
v -0.012717 -0.013552 0.016641
v -0.003267 0.041377 0.004828
v -0.009763 0.037237 0.016641
v 0.019182 0.012439 0.004828
v 0.014453 -0.005873 0.016641
v 0.000868 -0.021231 0.004828
v 0.008544 0.041963 0.004828
v 0.003229 0.046096 0.016641
v 0.003819 -0.018272 0.016641
v -0.016852 0.001807 0.016641
v -0.013307 0.023652 0.005419
v -0.012717 -0.017098 0.004828
v 0.017998 -0.008826 0.004828
v 0.018588 0.010666 0.011915
v 0.015047 0.033104 0.004828
v 0.012683 0.041963 0.016050
v -0.005037 0.045510 0.016050
v -0.007992 0.036650 0.004828
v -0.002083 -0.018278 0.016641
v -0.016262 -0.012959 0.007192
v -0.015082 0.014792 0.016641
v 0.016818 0.011259 0.016641
v 0.010318 -0.015912 0.015460
v 0.000868 0.043143 0.004828
v 0.010318 -0.018865 0.004828
v -0.018036 0.000040 0.004828
v 0.015637 -0.002326 0.016641
v -0.016262 -0.004099 0.016641
v 0.018588 -0.005279 0.006010
v -0.012127 0.029558 0.016641
v -0.009172 -0.016505 0.014869
v 0.013863 -0.016505 0.008372
v 0.003819 -0.021231 0.005419
v -0.015082 0.015972 0.006601
v 0.012093 0.038424 0.004828
v -0.011537 0.030744 0.008963
v 0.006183 0.045510 0.016641
v 0.005003 0.043143 0.004828
v 0.008544 -0.017092 0.015460
v -0.015082 -0.012372 0.013097
v -0.002083 0.046110 0.016641
v 0.018588 0.012439 0.011915
v 0.016818 0.017745 0.016641
v -0.001493 -0.020645 0.005419
v -0.015668 -0.013552 0.004828
v -0.012717 -0.014732 0.014278
v 0.017998 -0.008826 0.005419
v -0.014488 0.018332 0.004828
v 0.010909 -0.012959 0.016641
f 205 219 245 
f 197 193 199 
f 194 198 200 
f 193 197 201 
f 194 200 202 
f 200 198 203 
f 199 193 204 
f 201 197 205 
f 197 199 206 
f 194 202 208 
f 202 200 209 
f 193 200 211 
f 200 203 211 
f 193 211 212 
f 198 194 214 
f 213 198 214 
f 199 213 214 
f 205 197 215 
f 195 194 216 
f 206 199 217 
f 193 201 218 
f 203 198 220 
f 198 213 220 
f 209 196 221 
f 202 209 221 
f 194 195 222 
f 195 206 222 
f 214 194 222 
f 206 217 222 
f 218 201 223 
f 210 218 223 
f 206 195 224 
f 197 206 224 
f 195 216 224 
f 209 200 225 
f 200 210 225 
f 210 223 225 
f 217 199 226 
f 215 197 227 
f 196 209 228 
f 201 219 228 
f 221 196 228 
f 205 215 229 
f 215 202 229 
f 202 221 229 
f 222 217 230 
f 226 207 230 
f 217 226 230 
f 211 203 231 
f 203 212 231 
f 212 211 231 
f 199 214 232 
f 214 207 232 
f 226 199 232 
f 207 226 232 
f 204 193 233 
f 212 203 233 
f 193 212 233 
f 203 220 234 
f 204 233 234 
f 233 203 234 
f 219 205 235 
f 228 219 235 
f 221 228 235 
f 205 229 235 
f 229 221 235 
f 197 224 236 
f 224 216 236 
f 199 204 237 
f 213 199 237 
f 220 213 237 
f 234 220 237 
f 204 234 237 
f 200 193 238 
f 210 200 238 
f 218 210 238 
f 218 238 239 
f 193 218 239 
f 238 193 239 
f 208 202 240 
f 202 215 240 
f 227 208 240 
f 215 227 240 
f 194 208 241 
f 216 194 241 
f 208 216 241 
f 216 208 242 
f 227 197 242 
f 208 227 242 
f 197 236 242 
f 236 216 242 
f 223 201 243 
f 209 225 243 
f 225 223 243 
f 228 209 243 
f 201 228 243 
f 207 214 244 
f 214 222 244 
f 230 207 244 
f 222 230 244 
f 201 205 245 
f 219 201 245 
o convex_4
v 0.016818 0.032517 0.029049
v -0.021581 0.026019 0.020187
v -0.020986 0.024836 0.019007
v -0.005037 -0.014733 0.029049
v 0.015043 -0.004691 0.016643
v 0.013272 0.043150 0.016643
v -0.003857 0.049062 0.029049
v -0.012719 -0.013549 0.016643
v 0.026270 0.020699 0.024322
v -0.017445 -0.000555 0.028457
v 0.012092 -0.011780 0.029049
v -0.004442 0.046695 0.016643
v 0.001464 -0.018284 0.016643
v 0.010907 0.048464 0.029049
v -0.020396 0.028380 0.026684
v 0.020954 0.036061 0.018417
v -0.016850 0.000037 0.016643
v -0.014489 -0.010596 0.029049
v -0.010944 0.043150 0.019597
v 0.012092 -0.013556 0.019597
v 0.005000 0.049062 0.019597
v 0.024495 0.025421 0.026094
v 0.025085 0.022475 0.020779
v -0.012719 0.030748 0.029049
v 0.018588 0.040783 0.024912
v -0.009173 -0.015917 0.022550
v 0.016818 0.003582 0.029049
v 0.006181 -0.014733 0.029049
v 0.012682 0.046695 0.020187
v -0.010944 0.041375 0.017234
v -0.021581 0.028972 0.023141
v 0.015637 -0.005283 0.028457
v -0.003857 0.049062 0.020187
v -0.009763 0.044334 0.025504
v -0.016850 -0.004691 0.027866
v -0.020396 0.027203 0.018417
v 0.009136 -0.015917 0.021369
v 0.016228 0.004174 0.016643
v 0.008546 -0.015325 0.016643
v -0.012719 0.027203 0.016643
v 0.003230 0.049654 0.029049
v -0.002082 -0.016508 0.025504
v -0.016260 0.006534 0.029049
v 0.026270 0.020699 0.022550
v 0.018588 0.040198 0.017825
v -0.007403 0.045518 0.029049
v -0.002082 -0.018284 0.016643
v -0.013899 -0.011780 0.016643
v 0.023905 0.024836 0.019597
v 0.007361 0.046096 0.016643
v 0.020359 0.037238 0.025504
v 0.026270 0.022475 0.024322
v 0.017998 0.022475 0.029049
v 0.015637 0.033109 0.016643
v 0.012092 0.047879 0.022550
v -0.021581 0.028380 0.020779
v 0.013862 0.043150 0.029049
v -0.016850 0.024244 0.028457
v 0.002640 -0.016508 0.025504
v -0.021581 0.027203 0.023731
v -0.015670 -0.006460 0.016643
v -0.010944 -0.012964 0.029049
v 0.020954 0.036653 0.021960
v -0.005037 -0.017100 0.022550
f 304 287 309 
f 249 246 252 
f 251 250 253 
f 246 249 256 
f 251 253 257 
f 253 250 258 
f 252 246 259 
f 247 248 262 
f 257 253 262 
f 249 252 263 
f 263 252 269 
f 263 253 271 
f 246 256 272 
f 254 267 272 
f 256 249 273 
f 264 257 275 
f 256 265 277 
f 272 256 277 
f 254 272 277 
f 257 264 278 
f 266 257 278 
f 264 276 279 
f 278 264 279 
f 252 278 279 
f 255 247 280 
f 247 262 280 
f 263 255 280 
f 248 247 281 
f 262 248 281 
f 265 256 282 
f 256 273 282 
f 250 251 283 
f 258 250 284 
f 250 265 284 
f 265 282 284 
f 282 258 284 
f 257 262 285 
f 275 257 285 
f 262 281 285 
f 281 275 285 
f 252 259 286 
f 259 266 286 
f 278 252 286 
f 266 278 286 
f 273 249 287 
f 260 255 288 
f 255 263 288 
f 263 269 288 
f 265 250 289 
f 250 268 289 
f 268 261 289 
f 254 277 289 
f 277 265 289 
f 251 274 290 
f 269 252 291 
f 276 260 291 
f 252 279 291 
f 279 276 291 
f 253 258 292 
f 271 253 292 
f 262 253 293 
f 253 263 293 
f 263 280 293 
f 268 250 294 
f 261 268 294 
f 250 283 294 
f 283 261 294 
f 251 257 295 
f 257 266 295 
f 274 251 295 
f 266 274 295 
f 270 259 296 
f 267 254 297 
f 254 289 297 
f 289 261 297 
f 296 267 297 
f 267 246 298 
f 246 272 298 
f 272 267 298 
f 283 251 299 
f 261 283 299 
f 290 261 299 
f 251 290 299 
f 266 259 300 
f 259 270 300 
f 274 266 300 
f 270 290 300 
f 290 274 300 
f 264 275 301 
f 276 264 301 
f 247 276 301 
f 281 247 301 
f 275 281 301 
f 259 246 302 
f 246 267 302 
f 267 296 302 
f 296 259 302 
f 260 288 303 
f 288 269 303 
f 291 260 303 
f 269 291 303 
f 258 282 304 
f 282 273 304 
f 273 287 304 
f 247 255 305 
f 255 260 305 
f 276 247 305 
f 260 276 305 
f 280 262 306 
f 262 293 306 
f 293 280 306 
f 249 263 307 
f 271 249 307 
f 263 271 307 
f 261 290 308 
f 290 270 308 
f 270 296 308 
f 297 261 308 
f 296 297 308 
f 249 271 309 
f 287 249 309 
f 292 258 309 
f 271 292 309 
f 258 304 309 
o convex_5
v 0.003234 0.059697 0.041454
v -0.003267 0.053199 0.034366
v -0.003267 0.053199 0.036140
v 0.010911 0.053199 0.036729
v 0.000278 0.053199 0.044407
v 0.010320 0.058515 0.045590
v -0.003267 0.058515 0.044998
v 0.010911 0.056743 0.037321
v -0.002676 0.057924 0.037321
v 0.008548 0.053199 0.044407
v 0.007365 0.053790 0.034366
v -0.002676 0.059697 0.044407
v 0.010320 0.056153 0.045590
v 0.010320 0.059106 0.042043
v -0.002676 0.053199 0.041454
v 0.003822 0.057924 0.037321
v -0.000312 0.056743 0.045590
v 0.005595 0.059697 0.044407
v -0.001495 0.059697 0.040863
v -0.003267 0.056743 0.044998
v 0.010911 0.053199 0.034958
f 320 317 330 
f 312 311 313 
f 312 313 314 
f 311 312 316 
f 311 316 318 
f 314 313 319 
f 311 318 320 
f 316 315 321 
f 318 316 321 
f 313 317 322 
f 317 315 322 
f 319 313 322 
f 314 319 322 
f 315 317 323 
f 312 314 324 
f 317 320 325 
f 320 318 325 
f 310 323 325 
f 323 317 325 
f 315 316 326 
f 314 322 326 
f 322 315 326 
f 310 321 327 
f 321 315 327 
f 323 310 327 
f 315 323 327 
f 321 310 328 
f 318 321 328 
f 310 325 328 
f 325 318 328 
f 316 312 329 
f 312 324 329 
f 324 314 329 
f 314 326 329 
f 326 316 329 
f 313 311 330 
f 317 313 330 
f 311 320 330 
o convex_6
v 0.015636 0.027788 0.046772
v 0.010911 -0.011786 0.047362
v 0.010911 -0.011786 0.049135
v 0.016819 0.002986 0.047953
v 0.013275 0.028977 0.047362
v 0.015636 -0.001742 0.046772
v 0.010911 0.002399 0.046772
v 0.013865 -0.002924 0.049135
v 0.016819 0.023064 0.047362
v 0.012093 0.018934 0.047953
v 0.012684 -0.010596 0.046772
v 0.012093 0.021292 0.046772
v 0.016819 0.003580 0.046772
f 339 334 343 
f 332 333 337 
f 331 336 337 
f 333 334 338 
f 335 338 339 
f 331 335 339 
f 338 334 339 
f 337 333 340 
f 333 338 340 
f 338 335 340 
f 333 332 341 
f 334 333 341 
f 336 334 341 
f 332 337 341 
f 337 336 341 
f 335 331 342 
f 331 337 342 
f 337 340 342 
f 340 335 342 
f 336 331 343 
f 334 336 343 
f 331 339 343 
o convex_7
v 0.016226 0.039605 0.037319
v -0.018031 0.002986 0.036728
v -0.017442 0.000037 0.032594
v 0.013863 -0.011781 0.037319
v 0.010318 0.049063 0.029049
v 0.013274 -0.010594 0.029049
v -0.007403 0.047869 0.037319
v -0.013308 0.030146 0.029049
v -0.012126 -0.011191 0.029049
v -0.012715 -0.012961 0.037319
v 0.017997 0.024248 0.029049
v -0.000902 -0.017693 0.031412
v -0.003855 0.049646 0.029049
v 0.010318 0.053192 0.036728
v 0.017997 0.010668 0.037319
v -0.017442 0.018336 0.037319
v 0.016226 -0.001150 0.029049
v -0.016260 0.007122 0.029049
v -0.003265 0.053199 0.033774
v -0.012126 0.038425 0.033184
v 0.011500 -0.014140 0.037319
v 0.013863 0.044927 0.030822
v -0.017442 0.017163 0.033184
v -0.015671 -0.010601 0.035546
v -0.007992 -0.016500 0.031412
v -0.007992 0.044920 0.029049
v -0.014489 0.032513 0.037319
v -0.000313 0.052595 0.037319
v 0.010907 0.053192 0.034365
v 0.009729 -0.012961 0.029049
v 0.017997 0.023068 0.037319
v -0.016853 0.000627 0.029640
v 0.017997 0.013034 0.029049
v 0.015634 0.037828 0.029049
v 0.015045 0.044927 0.037319
v -0.015078 0.029557 0.033184
v -0.002676 -0.014147 0.029049
v 0.005003 -0.016507 0.031412
v -0.006218 -0.017089 0.032594
v -0.013900 -0.009422 0.029049
v 0.016226 -0.001733 0.037319
v -0.015078 -0.011191 0.037319
v -0.018031 0.011258 0.034365
v -0.012126 0.036655 0.030231
v -0.002676 0.053199 0.036137
v 0.005595 0.049646 0.029049
v 0.017408 0.005352 0.033184
v -0.010944 -0.014737 0.032594
v -0.007992 -0.013557 0.037319
v -0.018031 0.014804 0.037319
v -0.010352 0.042554 0.034365
v 0.011500 -0.012371 0.029049
v 0.010318 0.051422 0.037319
f 378 357 396 
f 347 344 350 
f 348 349 351 
f 351 349 352 
f 347 350 353 
f 349 348 354 
f 348 351 356 
f 344 347 358 
f 353 350 359 
f 347 349 360 
f 349 354 360 
f 351 352 361 
f 347 353 364 
f 351 361 366 
f 345 346 367 
f 356 351 369 
f 362 356 369 
f 350 362 369 
f 359 350 370 
f 350 344 371 
f 365 348 372 
f 352 349 373 
f 354 344 374 
f 344 358 374 
f 358 354 374 
f 366 361 375 
f 367 346 375 
f 354 358 376 
f 360 354 376 
f 344 354 377 
f 354 348 377 
f 348 365 377 
f 377 365 378 
f 371 344 378 
f 372 357 378 
f 365 372 378 
f 344 377 378 
f 366 359 379 
f 351 366 379 
f 359 370 379 
f 370 363 379 
f 368 352 380 
f 355 368 380 
f 352 373 380 
f 373 355 380 
f 364 355 381 
f 355 373 381 
f 355 364 382 
f 353 368 382 
f 368 355 382 
f 361 352 383 
f 375 361 383 
f 367 375 383 
f 358 347 384 
f 347 360 384 
f 353 359 385 
f 345 367 385 
f 346 345 386 
f 375 346 386 
f 366 375 386 
f 369 351 387 
f 363 369 387 
f 351 379 387 
f 379 363 387 
f 362 350 388 
f 350 371 388 
f 371 357 388 
f 357 372 388 
f 372 362 388 
f 348 356 389 
f 356 362 389 
f 372 348 389 
f 362 372 389 
f 376 358 390 
f 360 376 390 
f 358 384 390 
f 384 360 390 
f 368 353 391 
f 352 368 391 
f 383 352 391 
f 367 383 391 
f 353 385 391 
f 385 367 391 
f 364 353 392 
f 353 382 392 
f 382 364 392 
f 359 366 393 
f 345 385 393 
f 385 359 393 
f 386 345 393 
f 366 386 393 
f 350 369 394 
f 369 363 394 
f 370 350 394 
f 363 370 394 
f 349 347 395 
f 347 364 395 
f 373 349 395 
f 364 381 395 
f 381 373 395 
f 357 371 396 
f 371 378 396 
o convex_8
v -0.005040 0.016571 0.047363
v -0.013310 -0.012375 0.046772
v -0.012128 -0.013555 0.046772
v -0.005631 -0.009420 0.052088
v -0.003267 -0.018284 0.047363
v -0.010355 0.005346 0.049725
v -0.010946 -0.014145 0.050907
v -0.003267 -0.004104 0.052088
v -0.003267 0.014207 0.046772
v -0.009765 0.014797 0.046772
v -0.003267 -0.016510 0.050316
v -0.003267 -0.014145 0.046772
v -0.008583 -0.003514 0.051497
v -0.005631 -0.018284 0.049135
v -0.013310 -0.010604 0.047363
v -0.009174 0.014207 0.047954
v -0.003267 -0.010604 0.052088
v -0.008583 -0.015920 0.050907
f 413 400 414 
f 398 399 403 
f 399 398 405 
f 397 404 405 
f 404 401 405 
f 405 398 406 
f 397 405 406 
f 401 404 407 
f 401 399 408 
f 399 405 408 
f 405 401 408 
f 403 400 409 
f 402 403 409 
f 400 404 409 
f 404 402 409 
f 399 401 410 
f 403 399 410 
f 401 407 410 
f 403 402 411 
f 398 403 411 
f 406 398 411 
f 402 406 411 
f 404 397 412 
f 402 404 412 
f 406 402 412 
f 397 406 412 
f 404 400 413 
f 407 404 413 
f 407 413 414 
f 400 403 414 
f 403 410 414 
f 410 407 414 
o convex_9
v 0.008548 0.001208 0.050316
v -0.003267 -0.018875 0.047954
v -0.002676 -0.018875 0.047363
v -0.003267 0.001802 0.046772
v -0.003267 -0.003516 0.052088
v 0.010911 -0.011782 0.046772
v 0.005003 -0.009418 0.052088
v 0.010911 0.002393 0.046772
v 0.010320 -0.012373 0.049725
v 0.010911 0.000029 0.050907
v -0.003267 -0.010602 0.052088
v 0.007365 0.004165 0.047954
v -0.003267 -0.017691 0.046772
v -0.000902 -0.018284 0.049135
v -0.003267 -0.000562 0.050907
v 0.006776 -0.001153 0.052088
v 0.000869 -0.018284 0.047363
v 0.006776 -0.014148 0.050316
v 0.009138 -0.005880 0.051497
f 424 430 433 
f 418 416 419 
f 420 418 422 
f 420 422 424 
f 423 420 424 
f 419 416 425 
f 421 419 425 
f 422 418 426 
f 415 424 426 
f 424 422 426 
f 417 416 427 
f 416 418 427 
f 418 420 427 
f 416 417 428 
f 425 416 428 
f 418 419 429 
f 426 418 429 
f 426 429 430 
f 419 421 430 
f 424 415 430 
f 415 426 430 
f 429 419 430 
f 420 423 431 
f 417 427 431 
f 427 420 431 
f 428 417 431 
f 428 431 432 
f 423 421 432 
f 421 425 432 
f 425 428 432 
f 431 423 432 
f 421 423 433 
f 423 424 433 
f 430 421 433 
o convex_10
v 0.016226 0.040194 0.037319
v 0.004414 -0.017693 0.040274
v 0.004414 -0.017693 0.040864
v 0.004414 0.053199 0.044409
v 0.016817 0.001806 0.046772
v 0.004414 0.052595 0.037319
v 0.013863 -0.011781 0.037319
v 0.004414 -0.013557 0.046772
v 0.015637 0.042554 0.045590
v 0.017999 0.010078 0.037319
v 0.004414 -0.011191 0.037319
v 0.016818 0.028974 0.046772
v 0.012092 -0.012371 0.046772
v 0.010322 0.053199 0.039682
v 0.012682 0.028967 0.046772
v 0.017409 0.030743 0.046180
v 0.012682 0.050825 0.044409
v 0.013863 0.047869 0.037319
v 0.004414 0.000037 0.046772
v 0.017999 0.022471 0.037319
v 0.017999 0.013034 0.043227
v 0.011500 -0.014147 0.037319
v 0.016226 0.042554 0.041455
v 0.013863 -0.010601 0.045590
v 0.007368 0.051415 0.044999
v 0.017409 0.003576 0.039682
v 0.009731 0.053199 0.044409
v 0.017409 0.004762 0.046180
v 0.016818 0.039015 0.042636
v 0.005005 -0.014147 0.037319
v 0.014455 0.039598 0.046180
v 0.016817 0.000627 0.044999
v 0.010912 0.051415 0.037319
v 0.008550 -0.015910 0.040864
v 0.013863 0.048459 0.044999
f 458 464 468 
f 435 436 437 
f 435 437 439 
f 439 434 440 
f 437 436 441 
f 440 434 443 
f 435 439 444 
f 439 440 444 
f 441 438 445 
f 441 436 446 
f 438 441 446 
f 439 437 447 
f 441 445 448 
f 442 445 449 
f 447 450 451 
f 434 439 451 
f 437 441 452 
f 441 448 452 
f 443 434 453 
f 453 449 454 
f 443 453 454 
f 444 440 455 
f 440 446 455 
f 434 451 456 
f 446 440 457 
f 438 446 457 
f 437 452 458 
f 452 448 458 
f 440 443 459 
f 447 437 460 
f 450 447 460 
f 437 458 460 
f 445 438 461 
f 449 445 461 
f 454 449 461 
f 443 454 461 
f 459 443 461 
f 442 449 462 
f 453 434 462 
f 449 453 462 
f 456 442 462 
f 434 456 462 
f 435 444 463 
f 455 435 463 
f 444 455 463 
f 445 442 464 
f 448 445 464 
f 458 448 464 
f 438 457 465 
f 457 440 465 
f 440 459 465 
f 461 438 465 
f 459 461 465 
f 439 447 466 
f 447 451 466 
f 451 439 466 
f 436 435 467 
f 446 436 467 
f 435 455 467 
f 455 446 467 
f 451 450 468 
f 442 456 468 
f 456 451 468 
f 450 460 468 
f 460 458 468 
f 464 442 468 
o convex_11
v 0.003822 -0.017691 0.041455
v -0.018627 0.005937 0.040864
v -0.018627 0.005937 0.043227
v 0.004413 0.019525 0.037319
v -0.005632 0.019525 0.046772
v 0.004413 -0.012966 0.046772
v -0.012718 -0.012376 0.037319
v -0.013900 -0.011782 0.046772
v -0.016852 0.019525 0.037319
v -0.018036 0.018931 0.046180
v 0.004413 -0.011782 0.037319
v 0.004413 0.000032 0.046772
v -0.005632 -0.018281 0.039682
v 0.004413 0.019525 0.040864
v -0.002678 -0.016510 0.046772
v -0.017443 -0.000558 0.037319
v -0.017443 0.000618 0.046772
v -0.015079 -0.011192 0.043817
v -0.018036 0.015387 0.037319
v -0.000314 -0.018875 0.039682
v 0.004413 -0.017691 0.039682
v -0.016852 0.013026 0.046772
v -0.018036 0.019525 0.043817
v -0.007991 -0.017101 0.040864
v 0.000277 -0.013556 0.037319
v 0.000277 -0.016510 0.046772
v -0.013900 -0.011192 0.037319
v -0.017443 -0.001148 0.044999
v -0.012718 -0.012966 0.046772
v -0.018627 0.010662 0.039092
v -0.005632 -0.018281 0.040864
f 497 492 499 
f 474 473 476 
f 473 472 477 
f 472 475 477 
f 472 474 479 
f 475 472 479 
f 474 472 480 
f 473 474 480 
f 472 473 482 
f 480 472 482 
f 473 480 482 
f 474 476 483 
f 477 475 484 
f 476 473 485 
f 478 471 485 
f 476 485 486 
f 477 484 487 
f 481 475 488 
f 474 469 489 
f 479 474 489 
f 469 488 489 
f 473 478 490 
f 485 473 490 
f 478 485 490 
f 473 477 491 
f 478 473 491 
f 477 487 491 
f 475 481 492 
f 486 475 492 
f 475 479 493 
f 488 475 493 
f 479 489 493 
f 489 488 493 
f 469 474 494 
f 474 483 494 
f 488 469 494 
f 483 488 494 
f 484 475 495 
f 486 484 495 
f 475 486 495 
f 471 470 496 
f 470 484 496 
f 485 471 496 
f 484 486 496 
f 486 485 496 
f 483 476 497 
f 476 486 497 
f 486 492 497 
f 470 471 498 
f 471 478 498 
f 484 470 498 
f 487 484 498 
f 478 491 498 
f 491 487 498 
f 481 488 499 
f 488 483 499 
f 492 481 499 
f 483 497 499 
o convex_12
v -0.007992 0.047876 0.040864
v -0.018036 0.019528 0.042636
v -0.018036 0.019528 0.043817
v 0.004413 0.019528 0.040864
v 0.002049 0.052012 0.044999
v 0.004413 0.052602 0.037319
v -0.016854 0.019528 0.037319
v -0.015081 0.023664 0.046772
v 0.004413 0.019528 0.037319
v -0.012718 0.037245 0.037319
v -0.012718 0.037838 0.044999
v 0.004413 0.049060 0.044409
v -0.005040 0.051422 0.044409
v -0.002087 0.052602 0.037319
v -0.017445 0.019528 0.046180
v 0.004413 0.053195 0.044409
v -0.006812 0.045517 0.045590
v -0.016854 0.026027 0.042045
v -0.014489 0.023664 0.046772
v -0.007400 0.047876 0.037319
v -0.002678 0.053195 0.039092
v -0.013309 0.037245 0.039682
v -0.015669 0.029570 0.045590
v -0.002087 0.053195 0.044409
v -0.016263 0.024847 0.037319
v -0.007992 0.047876 0.044409
v -0.015669 0.019528 0.046180
f 518 514 526 
f 502 501 503 
f 503 501 506 
f 505 503 508 
f 503 506 508 
f 506 505 508 
f 505 506 509 
f 503 505 511 
f 505 509 513 
f 502 503 514 
f 511 505 515 
f 504 511 515 
f 501 502 517 
f 503 511 518 
f 511 504 518 
f 507 514 518 
f 504 516 518 
f 516 507 518 
f 513 509 519 
f 513 519 520 
f 500 512 520 
f 505 513 520 
f 515 505 520 
f 519 500 520 
f 500 519 521 
f 519 509 521 
f 502 514 522 
f 514 507 522 
f 507 516 522 
f 516 510 522 
f 517 502 522 
f 510 521 522 
f 521 517 522 
f 504 515 523 
f 516 504 523 
f 512 516 523 
f 520 512 523 
f 515 520 523 
f 506 501 524 
f 509 506 524 
f 501 517 524 
f 521 509 524 
f 517 521 524 
f 512 500 525 
f 510 516 525 
f 516 512 525 
f 500 521 525 
f 521 510 525 
f 514 503 526 
f 503 518 526 
