o convex_0
v 0.035559 0.059301 -0.030222
v -0.036840 -0.020560 -0.003357
v -0.036840 -0.020560 -0.002607
v 0.036311 -0.033252 -0.002607
v -0.027131 -0.031017 -0.036944
v -0.035344 0.042130 -0.002607
v -0.036088 0.056308 -0.033956
v 0.033318 -0.028762 -0.036191
v 0.034814 0.042120 -0.002607
v 0.030332 0.051080 -0.036191
v -0.034599 0.063781 -0.024253
v -0.034599 -0.033252 -0.033956
v -0.035344 -0.034000 -0.002607
v 0.036311 -0.033252 -0.033956
v 0.033318 0.063781 -0.023503
v -0.030868 0.050341 -0.036194
v -0.015939 -0.035497 -0.004103
v -0.036840 0.040633 -0.002607
v -0.036088 0.010799 -0.034702
v 0.035559 0.055560 -0.033956
v 0.034070 -0.034748 -0.002611
v 0.032573 -0.033990 -0.032460
v -0.035344 0.063781 -0.026491
v -0.015194 0.042868 -0.002607
v -0.036840 0.045861 -0.023506
v -0.009215 0.056308 -0.034699
v 0.036311 0.014512 -0.028729
v 0.035559 0.031673 -0.002607
v -0.030868 -0.025788 -0.036944
v 0.034070 0.063781 -0.025745
v -0.033103 -0.034000 -0.028733
v 0.034070 0.042868 -0.002611
v -0.035344 -0.032503 -0.027983
v -0.011456 0.063781 -0.023506
v -0.036840 0.006319 -0.019776
v 0.032573 0.048097 -0.036191
v 0.036311 -0.013845 -0.034702
v -0.033103 -0.033252 -0.035448
v -0.019670 -0.025788 -0.036944
v -0.036088 0.063033 -0.024253
v 0.030332 0.061527 -0.028729
v 0.035559 -0.033252 -0.034702
v -0.036088 0.054073 -0.034702
v -0.028627 0.051828 -0.036194
v -0.034599 -0.032503 -0.035448
v 0.034814 0.056308 -0.033956
v 0.034814 0.063033 -0.023506
v -0.036088 -0.033252 -0.004103
v -0.017428 -0.035497 -0.002607
v 0.031084 -0.031017 -0.036191
v 0.035559 0.059301 -0.027237
v -0.032358 0.057056 -0.033956
v -0.035344 -0.025788 -0.032460
v -0.036840 -0.011600 -0.011568
v -0.004740 0.063781 -0.026491
v -0.036840 0.051080 -0.013806
v -0.024145 -0.023553 -0.036944
v 0.036311 -0.028024 -0.002607
v -0.028627 -0.034748 -0.004103
v 0.036311 0.014512 -0.027237
v -0.011456 -0.033252 -0.035448
v 0.034070 -0.034748 -0.004106
v -0.027131 -0.034000 -0.029479
f 31 38 63 
f 3 4 6 
f 6 4 9 
f 4 3 13 
f 2 3 18 
f 3 6 18 
f 14 4 21 
f 11 15 23 
f 6 9 24 
f 11 6 24 
f 2 18 25 
f 4 14 27 
f 20 1 27 
f 9 4 28 
f 23 15 30 
f 13 12 31 
f 24 9 32 
f 15 24 32 
f 15 11 34 
f 11 24 34 
f 24 15 34 
f 2 25 35 
f 25 19 35 
f 10 20 36 
f 27 14 37 
f 20 27 37 
f 8 36 37 
f 36 20 37 
f 31 12 38 
f 5 29 39 
f 36 8 39 
f 10 36 39 
f 6 11 40 
f 18 6 40 
f 11 23 40 
f 23 7 40 
f 7 25 40 
f 14 22 42 
f 8 37 42 
f 37 14 42 
f 19 25 43 
f 25 7 43 
f 16 29 43 
f 26 10 44 
f 29 16 44 
f 43 7 44 
f 16 43 44 
f 29 5 45 
f 12 33 45 
f 5 38 45 
f 38 12 45 
f 19 43 45 
f 43 29 45 
f 1 20 46 
f 20 10 46 
f 10 26 46 
f 30 1 46 
f 26 41 46 
f 41 30 46 
f 1 30 47 
f 30 15 47 
f 32 9 47 
f 15 32 47 
f 3 2 48 
f 13 3 48 
f 12 13 48 
f 2 33 48 
f 33 12 48 
f 4 13 49 
f 21 4 49 
f 17 21 49 
f 31 17 49 
f 5 39 50 
f 39 8 50 
f 8 42 50 
f 27 1 51 
f 9 28 51 
f 1 47 51 
f 47 9 51 
f 7 23 52 
f 44 7 52 
f 26 44 52 
f 35 19 53 
f 45 33 53 
f 19 45 53 
f 33 2 54 
f 2 35 54 
f 53 33 54 
f 35 53 54 
f 23 30 55 
f 41 26 55 
f 30 41 55 
f 52 23 55 
f 26 52 55 
f 25 18 56 
f 18 40 56 
f 40 25 56 
f 39 29 57 
f 10 39 57 
f 44 10 57 
f 29 44 57 
f 4 27 58 
f 28 4 58 
f 13 31 59 
f 49 13 59 
f 31 49 59 
f 27 51 60 
f 51 28 60 
f 58 27 60 
f 28 58 60 
f 38 5 61 
f 22 38 61 
f 42 22 61 
f 5 50 61 
f 50 42 61 
f 14 21 62 
f 21 17 62 
f 17 22 62 
f 22 14 62 
f 22 17 63 
f 17 31 63 
f 38 22 63 
o convex_1
v -0.033852 -0.028780 0.051884
v -0.024153 -0.037732 0.072784
v -0.021168 -0.036987 0.071289
v -0.027882 -0.014596 0.048899
v -0.018929 -0.022063 0.048899
v -0.024153 -0.044454 0.065317
v -0.033852 -0.039225 0.071289
v -0.025646 -0.027286 0.048151
v -0.018929 -0.042212 0.069794
v -0.033106 -0.043706 0.066809
v -0.018929 -0.024305 0.057859
v -0.034599 -0.025799 0.058604
v -0.027882 -0.027286 0.063824
v -0.033106 -0.019076 0.048151
v -0.019674 -0.040719 0.063824
v -0.030121 -0.035496 0.055616
v -0.021913 -0.015344 0.048151
v -0.035346 -0.037732 0.062332
v -0.021913 -0.024305 0.060099
v -0.017433 -0.026541 0.057111
v -0.030866 -0.043706 0.069794
v -0.031613 -0.034000 0.069052
v -0.035346 -0.026541 0.054124
v -0.024899 -0.032509 0.052631
v -0.031613 -0.025799 0.048151
v -0.035346 -0.037732 0.067554
v -0.018929 -0.035496 0.068302
v -0.032360 -0.022063 0.056366
v -0.022660 -0.039971 0.072784
v -0.017433 -0.028034 0.055616
v -0.019674 -0.017583 0.048151
v -0.028627 -0.041467 0.061586
v -0.030866 -0.038480 0.072784
v -0.033106 -0.038480 0.060099
v -0.021913 -0.044454 0.068302
v -0.025646 -0.031016 0.067554
v -0.034599 -0.042212 0.069052
v -0.024153 -0.028780 0.049646
v -0.030866 -0.044454 0.066062
v -0.020421 -0.031016 0.066062
v -0.035346 -0.031016 0.063077
v -0.024153 -0.020570 0.056366
v -0.021913 -0.015344 0.048899
v -0.018182 -0.039225 0.065317
v -0.030121 -0.015344 0.048151
v -0.030866 -0.041467 0.072037
f 100 84 109 
f 71 77 80 
f 77 64 86 
f 75 77 86 
f 64 81 86 
f 78 69 87 
f 79 71 87 
f 64 77 88 
f 77 71 88 
f 79 64 88 
f 71 79 88 
f 86 81 89 
f 66 72 90 
f 83 74 90 
f 76 67 91 
f 75 85 91 
f 85 76 91 
f 66 65 92 
f 72 66 92 
f 78 68 93 
f 68 83 93 
f 68 71 94 
f 71 80 94 
f 74 83 94 
f 83 68 94 
f 87 69 95 
f 79 87 95 
f 85 70 96 
f 92 65 96 
f 64 79 97 
f 73 81 97 
f 81 64 97 
f 79 95 97 
f 69 78 98 
f 78 72 98 
f 72 92 98 
f 76 85 99 
f 96 65 99 
f 85 96 99 
f 81 73 100 
f 73 84 100 
f 70 89 100 
f 89 81 100 
f 71 68 101 
f 68 78 101 
f 87 71 101 
f 78 87 101 
f 84 73 102 
f 95 69 102 
f 73 97 102 
f 97 95 102 
f 69 98 102 
f 98 84 102 
f 65 66 103 
f 74 82 103 
f 66 90 103 
f 90 74 103 
f 99 65 103 
f 82 99 103 
f 70 85 104 
f 85 75 104 
f 75 86 104 
f 89 70 104 
f 86 89 104 
f 67 76 105 
f 99 82 105 
f 76 99 105 
f 80 67 106 
f 82 74 106 
f 94 80 106 
f 74 94 106 
f 67 105 106 
f 105 82 106 
f 72 78 107 
f 90 72 107 
f 83 90 107 
f 78 93 107 
f 93 83 107 
f 77 75 108 
f 67 80 108 
f 80 77 108 
f 91 67 108 
f 75 91 108 
f 96 70 109 
f 92 96 109 
f 84 98 109 
f 98 92 109 
f 70 100 109 
o convex_2
v 0.010932 -0.046693 0.049646
v 0.018393 -0.040718 0.079502
v 0.013920 -0.040718 0.079502
v 0.013172 -0.010864 0.048151
v 0.026606 -0.042960 0.048151
v 0.026606 -0.013110 0.048900
v 0.007201 -0.056396 0.065315
v 0.021381 -0.057887 0.064569
v 0.026606 -0.036985 0.070544
v 0.006453 -0.042214 0.077262
v 0.006453 -0.036235 0.048151
v 0.019141 -0.045942 0.078753
v 0.007949 -0.023554 0.059349
v 0.025860 -0.021317 0.060098
v 0.028100 -0.029529 0.064569
v 0.026606 -0.048184 0.057858
v 0.017647 -0.059383 0.063827
v 0.010187 -0.022808 0.061593
v 0.006453 -0.041464 0.048151
v 0.009441 -0.057887 0.061593
v 0.022873 -0.054900 0.058607
v 0.022873 -0.011614 0.050395
v 0.024366 -0.036235 0.074273
v 0.024366 -0.041464 0.074273
v 0.007949 -0.025050 0.048151
v 0.025114 -0.010864 0.048151
v 0.028100 -0.028037 0.057858
v 0.017647 -0.058633 0.066064
v 0.008695 -0.040718 0.078753
v 0.025114 -0.044451 0.048151
v 0.025114 -0.051917 0.061586
v 0.013172 -0.044451 0.078753
v 0.006453 -0.050421 0.068304
v 0.013920 -0.011614 0.050395
v 0.008695 -0.044451 0.048151
v 0.021381 -0.043705 0.078008
v 0.009441 -0.018330 0.051886
v 0.025860 -0.030274 0.069050
v 0.015412 -0.052663 0.055618
v 0.007201 -0.042960 0.078008
v 0.026606 -0.047434 0.053381
v 0.007201 -0.028033 0.051137
v 0.022873 -0.055650 0.064569
v 0.007201 -0.056396 0.063084
v 0.019887 -0.058633 0.062335
v 0.028100 -0.031761 0.064569
v 0.019887 -0.057887 0.066810
v 0.027352 -0.030274 0.067558
v 0.008695 -0.022808 0.060095
v 0.026606 -0.013110 0.048151
v 0.013920 -0.057141 0.066810
v 0.024366 -0.053408 0.057858
f 154 130 161 
f 113 114 120 
f 111 112 121 
f 112 111 127 
f 111 123 127 
f 119 120 128 
f 120 114 128 
f 126 116 129 
f 127 123 131 
f 118 132 133 
f 113 120 134 
f 114 113 135 
f 123 115 135 
f 113 131 135 
f 131 123 135 
f 115 124 136 
f 116 126 137 
f 112 127 138 
f 128 114 139 
f 125 118 140 
f 118 133 140 
f 121 112 141 
f 112 138 141 
f 116 119 142 
f 119 128 142 
f 131 113 143 
f 127 131 143 
f 110 129 144 
f 139 110 144 
f 128 139 144 
f 111 121 145 
f 132 111 145 
f 133 132 145 
f 122 113 146 
f 113 134 146 
f 134 122 146 
f 123 111 147 
f 111 132 147 
f 129 110 148 
f 110 139 148 
f 139 130 148 
f 119 116 149 
f 138 119 149 
f 116 141 149 
f 141 138 149 
f 114 136 150 
f 139 114 150 
f 120 119 151 
f 119 122 151 
f 134 120 151 
f 122 134 151 
f 140 133 152 
f 133 145 152 
f 129 116 153 
f 116 142 153 
f 142 128 153 
f 144 129 153 
f 128 144 153 
f 117 126 154 
f 126 129 154 
f 129 148 154 
f 148 130 154 
f 124 118 155 
f 118 125 155 
f 136 124 155 
f 125 150 155 
f 150 136 155 
f 126 117 156 
f 121 137 156 
f 137 126 156 
f 145 121 156 
f 117 152 156 
f 152 145 156 
f 115 123 157 
f 124 115 157 
f 118 124 157 
f 132 118 157 
f 123 147 157 
f 147 132 157 
f 113 122 158 
f 122 119 158 
f 119 138 158 
f 138 127 158 
f 143 113 158 
f 127 143 158 
f 114 135 159 
f 135 115 159 
f 136 114 159 
f 115 136 159 
f 116 137 160 
f 137 121 160 
f 141 116 160 
f 121 141 160 
f 130 139 161 
f 125 140 161 
f 150 125 161 
f 139 150 161 
f 152 117 161 
f 140 152 161 
f 117 154 161 
o convex_3
v -0.037587 0.002578 0.013068
v -0.024149 -0.013836 0.048151
v -0.021162 -0.008613 0.046656
v 0.002717 -0.033990 -0.002607
v 0.002721 0.042134 -0.002602
v -0.036092 -0.033245 -0.002607
v 0.002717 -0.011601 0.045910
v -0.036838 0.039884 -0.002607
v -0.030122 -0.025787 0.048151
v 0.002717 -0.034743 0.025753
v -0.036838 -0.005625 0.044415
v -0.036838 -0.034750 0.018300
v 0.002721 -0.004887 0.045165
v -0.035346 0.041382 -0.001857
v -0.037587 -0.013098 0.043670
v -0.024149 -0.025779 0.048151
v -0.018179 -0.034743 -0.002607
v -0.018925 0.021980 0.018300
v 0.002721 0.042134 -0.001857
v -0.035346 -0.004880 0.044415
v -0.036838 -0.021309 -0.002607
v -0.033105 -0.022054 0.048151
v -0.037587 0.015997 0.022027
v -0.037587 -0.021309 0.028739
v -0.035346 -0.034750 0.019796
v -0.036838 -0.034750 0.010087
v -0.003253 -0.034743 0.025753
v -0.015942 0.042134 -0.001857
v 0.002717 -0.034743 0.009342
v -0.010718 -0.001892 0.042174
v -0.030122 -0.014588 0.048151
v -0.035346 -0.033990 -0.002607
v -0.037587 0.010774 0.011578
v -0.019671 -0.020556 0.048151
v -0.037587 -0.004880 0.042924
v -0.006240 -0.034743 -0.002607
v -0.036092 0.031673 0.007847
v -0.027136 -0.008613 0.046656
f 181 192 199 
f 166 165 169 
f 165 167 169 
f 164 163 174 
f 165 166 174 
f 163 168 174 
f 168 171 174 
f 166 169 175 
f 163 170 177 
f 171 168 177 
f 170 171 177 
f 167 165 178 
f 174 166 180 
f 169 167 182 
f 170 163 183 
f 173 170 183 
f 172 176 183 
f 176 173 183 
f 162 176 184 
f 176 162 185 
f 173 176 185 
f 162 182 185 
f 170 173 186 
f 182 167 187 
f 173 185 187 
f 185 182 187 
f 186 173 187 
f 171 170 188 
f 170 186 188 
f 186 171 188 
f 166 175 189 
f 175 179 189 
f 179 180 189 
f 180 166 189 
f 165 174 190 
f 174 171 190 
f 171 186 190 
f 186 187 190 
f 180 179 191 
f 174 180 191 
f 181 174 191 
f 179 181 191 
f 181 172 192 
f 183 163 192 
f 172 183 192 
f 167 178 193 
f 187 167 193 
f 178 187 193 
f 182 162 194 
f 169 182 194 
f 162 184 194 
f 184 169 194 
f 168 163 195 
f 163 177 195 
f 177 168 195 
f 176 172 196 
f 184 176 196 
f 178 165 197 
f 187 178 197 
f 165 190 197 
f 190 187 197 
f 175 169 198 
f 179 175 198 
f 172 181 198 
f 181 179 198 
f 169 184 198 
f 196 172 198 
f 184 196 198 
f 163 164 199 
f 164 174 199 
f 174 181 199 
f 192 163 199 
o convex_4
v 0.034815 0.014514 0.025009
v 0.002724 -0.034743 -0.001114
v 0.034818 -0.034750 0.010083
v 0.034818 0.041382 -0.002607
v 0.002724 0.013017 0.027251
v 0.002724 0.042134 -0.002607
v 0.002724 -0.034743 0.025757
v 0.036308 -0.033245 -0.002607
v 0.035561 -0.025787 0.027251
v 0.034069 0.013017 0.027251
v 0.003470 -0.034743 -0.002607
v 0.034815 -0.034743 0.019783
v 0.031829 0.032418 0.008592
v 0.002724 -0.027277 0.027251
v 0.035561 0.030928 -0.001859
v 0.002724 0.042134 -0.001859
v 0.034815 -0.034743 -0.002607
v 0.034069 0.042134 -0.001859
v 0.035561 0.004061 0.018293
v 0.011677 -0.034743 0.025757
v 0.031083 0.020475 0.020529
v 0.034069 -0.027277 0.027251
v 0.036308 -0.032500 0.001873
v 0.035561 -0.034750 0.018293
v 0.035561 -0.018321 0.027251
v 0.002724 -0.033990 -0.002607
v 0.028844 0.029438 0.011576
v 0.035561 0.014507 0.012322
v 0.034815 0.011526 0.027251
f 218 227 228 
f 201 204 205 
f 201 202 206 
f 204 201 206 
f 205 203 207 
f 204 208 209 
f 202 201 210 
f 205 207 210 
f 204 206 213 
f 208 204 213 
f 203 200 214 
f 207 203 214 
f 205 204 215 
f 202 210 216 
f 210 207 216 
f 200 203 217 
f 203 205 217 
f 209 200 217 
f 212 209 217 
f 205 215 217 
f 215 212 217 
f 213 206 219 
f 204 209 220 
f 209 212 220 
f 211 208 221 
f 208 213 221 
f 219 211 221 
f 213 219 221 
f 207 214 222 
f 206 202 223 
f 208 211 223 
f 202 216 223 
f 216 207 223 
f 219 206 223 
f 211 219 223 
f 207 222 223 
f 222 208 223 
f 209 208 224 
f 208 222 224 
f 222 218 224 
f 201 205 225 
f 210 201 225 
f 205 210 225 
f 215 204 226 
f 212 215 226 
f 204 220 226 
f 220 212 226 
f 214 200 227 
f 222 214 227 
f 218 222 227 
f 200 209 228 
f 209 224 228 
f 224 218 228 
f 227 200 228 
o convex_5
v 0.031082 -0.042214 0.012322
v 0.002721 -0.065351 0.022023
v 0.015416 -0.066100 0.024263
v 0.028096 -0.037740 -0.000363
v 0.002727 -0.039977 0.010081
v 0.002721 -0.057891 0.025757
v 0.031831 -0.063111 0.026501
v 0.003475 -0.038485 0.000384
v 0.028099 -0.064605 0.020529
v 0.032576 -0.034751 0.003368
v 0.028844 -0.054160 0.023516
v 0.004214 -0.064605 0.019782
v 0.032576 -0.039231 0.001877
v 0.023613 -0.034751 0.005606
v 0.002721 -0.065351 0.026501
v 0.002727 -0.036248 0.001877
v 0.016906 -0.037740 -0.001113
v 0.003475 -0.048931 0.019038
v 0.031831 -0.064605 0.022023
v 0.017648 -0.061619 0.027251
v 0.027351 -0.066100 0.026501
v 0.028838 -0.041468 0.012322
v 0.004968 -0.035503 0.004859
v 0.031831 -0.057891 0.025007
v 0.016167 -0.036248 -0.001113
v 0.028844 -0.059379 0.026501
v 0.032576 -0.047440 0.015301
v 0.031082 -0.034751 0.005606
v 0.027351 -0.063859 0.019782
v 0.002727 -0.041468 0.002621
v 0.004968 -0.035503 0.002621
v 0.028096 -0.050425 0.020532
v 0.002721 -0.053411 0.022767
v 0.028096 -0.046694 0.006353
v 0.031085 -0.063859 0.020529
v 0.004968 -0.039977 0.001130
v 0.016909 -0.065351 0.027251
v 0.028096 -0.036248 -0.000363
v 0.004962 -0.066100 0.025757
v 0.002721 -0.060128 0.026501
f 243 265 268 
f 231 230 240 
f 237 231 240 
f 234 230 243 
f 242 233 246 
f 231 237 249 
f 247 235 249 
f 237 247 249 
f 242 246 250 
f 233 242 251 
f 244 233 251 
f 229 239 252 
f 236 244 253 
f 245 236 253 
f 239 234 254 
f 234 248 254 
f 248 235 254 
f 235 252 254 
f 252 239 254 
f 241 238 255 
f 235 247 255 
f 247 241 255 
f 229 252 255 
f 252 235 255 
f 238 242 256 
f 250 229 256 
f 242 250 256 
f 229 255 256 
f 255 238 256 
f 237 240 257 
f 240 245 257 
f 240 230 258 
f 230 244 258 
f 244 236 258 
f 242 238 259 
f 251 242 259 
f 244 251 259 
f 238 253 259 
f 253 244 259 
f 239 229 260 
f 229 250 260 
f 250 246 260 
f 230 234 261 
f 234 239 261 
f 244 230 261 
f 233 244 261 
f 246 233 261 
f 239 260 261 
f 260 246 261 
f 232 241 262 
f 245 232 262 
f 257 245 262 
f 257 262 263 
f 247 237 263 
f 241 247 263 
f 237 257 263 
f 262 241 263 
f 236 245 264 
f 245 240 264 
f 240 258 264 
f 258 236 264 
f 235 248 265 
f 249 235 265 
f 241 232 266 
f 238 241 266 
f 232 245 266 
f 253 238 266 
f 245 253 266 
f 230 231 267 
f 243 230 267 
f 231 249 267 
f 265 243 267 
f 249 265 267 
f 234 243 268 
f 248 234 268 
f 265 248 268 
o convex_6
v 0.026607 -0.004892 0.045164
v 0.002721 -0.026532 0.027251
v 0.026607 -0.026532 0.027251
v 0.002721 0.012276 0.027251
v 0.007946 -0.031011 0.048151
v 0.026607 0.012276 0.027251
v 0.002721 -0.004892 0.045164
v 0.025113 -0.033257 0.046658
v 0.026607 -0.011605 0.048151
v 0.010935 -0.033257 0.036956
v 0.007201 -0.033257 0.045909
v 0.011680 -0.010121 0.048151
v 0.025859 -0.031760 0.048151
v 0.022873 -0.033257 0.036956
v 0.002721 -0.011605 0.045909
v 0.002721 0.012276 0.027997
v 0.026607 0.012276 0.027997
v 0.009441 -0.033257 0.048151
v 0.025113 -0.033257 0.039939
v 0.007201 -0.033257 0.041433
v 0.026607 -0.018322 0.048151
f 277 281 289 
f 271 270 272 
f 269 271 274 
f 271 272 274 
f 272 270 275 
f 271 269 277 
f 270 271 278 
f 278 276 279 
f 269 275 280 
f 273 277 280 
f 277 269 280 
f 277 273 281 
f 278 271 282 
f 276 278 282 
f 275 270 283 
f 270 279 283 
f 279 273 283 
f 280 275 283 
f 273 280 283 
f 274 272 284 
f 272 275 284 
f 275 269 284 
f 269 274 285 
f 284 269 285 
f 274 284 285 
f 279 276 286 
f 273 279 286 
f 276 281 286 
f 281 273 286 
f 271 281 287 
f 281 276 287 
f 282 271 287 
f 276 282 287 
f 270 278 288 
f 278 279 288 
f 279 270 288 
f 271 277 289 
f 281 271 289 
o convex_7
v 0.026607 -0.026539 0.027251
v 0.031086 -0.005646 0.045912
v 0.033325 -0.004894 0.045165
v 0.026607 0.012276 0.027251
v 0.035565 -0.024297 0.027251
v 0.034817 0.010783 0.027251
v 0.026607 -0.007872 0.045912
v 0.034817 -0.013097 0.039937
v 0.034071 -0.026539 0.027998
v 0.034817 -0.006387 0.043672
v 0.034071 0.012276 0.027998
v 0.033325 -0.008621 0.045165
v 0.026607 -0.005646 0.045912
v 0.026607 -0.017580 0.036954
v 0.026607 0.012276 0.027998
v 0.034817 -0.001163 0.039937
f 295 300 305 
f 290 293 294 
f 294 293 295 
f 293 290 296 
f 290 294 298 
f 294 297 298 
f 297 294 299 
f 295 293 300 
f 292 291 301 
f 291 296 301 
f 298 297 301 
f 299 292 301 
f 297 299 301 
f 291 292 302 
f 296 291 302 
f 293 296 302 
f 296 290 303 
f 290 298 303 
f 301 296 303 
f 298 301 303 
f 292 300 304 
f 300 293 304 
f 302 292 304 
f 293 302 304 
f 294 295 305 
f 292 299 305 
f 299 294 305 
f 300 292 305 
o convex_8
v -0.010715 -0.045204 0.007098
v 0.002721 -0.060872 0.026504
v 0.002721 -0.058635 0.025754
v 0.002721 -0.042217 0.003366
v -0.006983 -0.064607 0.019782
v -0.009221 -0.047442 0.016796
v -0.010715 -0.061622 0.025754
v 0.002721 -0.040722 0.010832
v 0.002721 -0.064607 0.020530
v -0.009967 -0.040722 0.009340
v -0.007729 -0.041469 0.002618
v -0.010715 -0.064607 0.025754
v -0.006983 -0.055649 0.024264
v 0.002721 -0.065355 0.026504
v -0.010715 -0.063115 0.020530
v 0.002721 -0.052669 0.022024
v -0.006983 -0.047442 0.017547
v 0.002721 -0.040722 0.003366
v -0.009221 -0.060872 0.026504
v -0.009967 -0.040722 0.003366
v -0.003997 -0.042962 0.003366
v -0.009221 -0.065355 0.026504
v -0.009967 -0.041469 0.010832
v -0.009967 -0.054900 0.022770
v -0.008476 -0.065355 0.022770
v -0.009967 -0.047442 0.007844
f 325 316 331 
f 308 307 309 
f 308 309 313 
f 309 307 314 
f 312 306 317 
f 314 307 319 
f 317 306 320 
f 308 313 321 
f 318 308 321 
f 318 321 322 
f 321 313 322 
f 313 309 323 
f 315 313 323 
f 309 316 323 
f 307 308 324 
f 312 317 324 
f 308 318 324 
f 319 307 324 
f 306 315 325 
f 315 323 325 
f 323 316 325 
f 309 314 326 
f 314 310 326 
f 310 316 326 
f 316 309 326 
f 324 317 327 
f 319 324 327 
f 306 312 328 
f 315 306 328 
f 313 315 328 
f 311 322 328 
f 322 313 328 
f 318 322 329 
f 322 311 329 
f 312 324 329 
f 324 318 329 
f 328 312 329 
f 311 328 329 
f 310 314 330 
f 314 319 330 
f 320 310 330 
f 317 320 330 
f 327 317 330 
f 319 327 330 
f 316 310 331 
f 320 306 331 
f 310 320 331 
f 306 325 331 
o convex_9
v 0.015407 -0.036990 0.027251
v -0.028630 -0.040721 0.020533
v -0.028630 -0.040721 0.025011
v -0.008477 -0.034751 0.024264
v 0.016157 -0.039227 0.026504
v 0.011676 -0.034751 0.024265
v -0.027880 -0.036990 0.020533
v -0.020414 -0.040721 0.020533
v 0.003465 -0.040721 0.027251
v -0.015189 -0.037736 0.026504
v -0.006982 -0.034751 0.025757
v -0.027880 -0.039974 0.025757
v 0.003465 -0.036244 0.027251
v -0.020414 -0.037736 0.020533
v 0.011676 -0.034751 0.025757
f 342 344 346 
f 332 336 337 
f 333 334 338 
f 335 337 338 
f 334 333 339 
f 337 336 339 
f 333 338 339 
f 339 336 340 
f 336 332 340 
f 334 339 340 
f 337 335 342 
f 335 338 342 
f 338 334 343 
f 334 340 343 
f 340 341 343 
f 342 338 343 
f 341 342 343 
f 340 332 344 
f 341 340 344 
f 342 341 344 
f 338 337 345 
f 337 339 345 
f 339 338 345 
f 332 337 346 
f 337 342 346 
f 344 332 346 
o convex_10
v -0.025644 -0.052663 0.026505
v -0.024151 -0.048188 0.038447
v -0.015194 -0.039230 0.030984
v -0.016688 -0.062369 0.038447
v -0.032362 -0.049681 0.030984
v -0.021168 -0.042219 0.020533
v -0.030122 -0.062369 0.038447
v -0.029373 -0.040723 0.020533
v -0.015942 -0.054903 0.029490
v -0.029373 -0.040723 0.025013
v -0.027880 -0.045948 0.020533
v -0.015194 -0.038482 0.026505
v -0.028630 -0.063862 0.037700
v -0.015194 -0.056396 0.037700
v -0.030868 -0.053410 0.037700
v -0.031615 -0.054156 0.029490
v -0.025644 -0.045202 0.035459
v -0.018180 -0.063862 0.037700
v -0.015942 -0.054903 0.038447
v -0.015942 -0.038482 0.030237
v -0.031615 -0.046695 0.030237
v -0.024896 -0.045948 0.020533
v -0.032362 -0.055649 0.034714
v -0.015194 -0.057889 0.033967
v -0.019676 -0.040723 0.021281
v -0.031615 -0.048931 0.025757
v -0.023405 -0.042961 0.033967
v -0.030122 -0.057142 0.030984
v -0.016688 -0.057889 0.031729
v -0.015194 -0.041468 0.026505
v -0.031615 -0.045202 0.025757
v -0.027136 -0.049681 0.038447
f 363 367 378 
f 350 348 353 
f 354 352 357 
f 350 353 359 
f 358 349 360 
f 359 353 362 
f 350 359 364 
f 349 348 365 
f 348 350 365 
f 360 349 365 
f 350 360 365 
f 354 356 366 
f 358 354 366 
f 349 358 366 
f 351 361 367 
f 363 356 367 
f 352 355 368 
f 347 357 368 
f 357 352 368 
f 353 361 369 
f 361 351 369 
f 362 353 369 
f 360 350 370 
f 358 360 370 
f 350 364 370 
f 352 354 371 
f 355 352 371 
f 354 358 371 
f 354 357 372 
f 357 362 372 
f 369 351 372 
f 362 369 372 
f 348 349 373 
f 363 348 373 
f 356 363 373 
f 349 366 373 
f 366 356 373 
f 357 347 374 
f 347 359 374 
f 362 357 374 
f 359 362 374 
f 359 347 375 
f 364 359 375 
f 347 368 375 
f 368 355 375 
f 355 370 375 
f 370 364 375 
f 370 355 376 
f 358 370 376 
f 355 371 376 
f 371 358 376 
f 356 354 377 
f 351 367 377 
f 367 356 377 
f 372 351 377 
f 354 372 377 
f 353 348 378 
f 361 353 378 
f 348 363 378 
f 367 361 378 
o convex_11
v -0.015194 -0.057891 0.042180
v -0.032362 -0.067591 0.042928
v -0.032362 -0.067591 0.044418
v -0.025644 -0.048933 0.038447
v -0.018180 -0.064605 0.038447
v -0.023405 -0.064605 0.048151
v -0.015194 -0.055654 0.046657
v -0.031615 -0.063859 0.046657
v -0.030868 -0.060872 0.038447
v -0.021913 -0.069087 0.044418
v -0.015942 -0.055654 0.038447
v -0.030868 -0.055654 0.039194
v -0.024897 -0.051919 0.042180
v -0.015194 -0.060128 0.045165
v -0.027136 -0.068339 0.041434
v -0.028630 -0.064605 0.038447
v -0.021913 -0.066844 0.047405
v -0.024151 -0.048933 0.039194
v -0.016688 -0.055654 0.046657
v -0.015942 -0.060872 0.038447
v -0.025644 -0.066844 0.047405
f 388 395 399 
f 382 383 387 
f 381 380 388 
f 383 382 389 
f 385 379 389 
f 380 381 390 
f 386 382 390 
f 381 386 390 
f 382 387 390 
f 387 380 390 
f 382 386 391 
f 379 385 392 
f 388 383 392 
f 388 380 393 
f 383 388 393 
f 387 383 394 
f 380 387 394 
f 383 393 394 
f 393 380 394 
f 385 384 395 
f 392 385 395 
f 388 392 395 
f 389 382 396 
f 385 389 396 
f 382 391 396 
f 396 391 397 
f 384 385 397 
f 386 384 397 
f 391 386 397 
f 385 396 397 
f 389 379 398 
f 383 389 398 
f 379 392 398 
f 392 383 398 
f 386 381 399 
f 384 386 399 
f 381 388 399 
f 395 384 399 
o convex_12
v -0.004746 -0.058636 0.046657
v -0.005490 -0.054904 0.038447
v -0.005490 -0.054158 0.038447
v -0.015194 -0.055651 0.046657
v -0.015194 -0.060129 0.042926
v -0.001012 -0.054158 0.045165
v -0.000266 -0.057889 0.041434
v -0.013701 -0.058636 0.047405
v -0.004746 -0.060129 0.042926
v -0.000266 -0.054158 0.039195
v -0.015194 -0.057889 0.042180
v -0.006238 -0.056398 0.047405
v -0.006238 -0.060129 0.045911
v -0.005490 -0.054158 0.045911
v -0.000266 -0.057889 0.043672
f 412 408 414 
f 403 404 407 
f 404 401 408 
f 401 406 408 
f 401 402 409 
f 402 405 409 
f 406 401 409 
f 402 401 410 
f 403 402 410 
f 404 403 410 
f 401 404 410 
f 400 405 411 
f 407 400 411 
f 403 407 411 
f 400 407 412 
f 407 404 412 
f 404 408 412 
f 402 403 413 
f 405 402 413 
f 411 405 413 
f 403 411 413 
f 405 400 414 
f 408 406 414 
f 409 405 414 
f 406 409 414 
f 400 412 414 
o convex_13
v 0.022877 -0.054160 0.028744
v 0.027354 -0.063112 0.048151
v 0.023622 -0.063112 0.048151
v 0.023622 -0.044454 0.036210
v 0.033325 -0.049680 0.030238
v 0.016157 -0.044454 0.027251
v 0.021384 -0.068340 0.042926
v 0.016157 -0.055654 0.047405
v 0.031085 -0.065355 0.039939
v 0.028097 -0.049680 0.041433
v 0.031085 -0.044454 0.027251
v 0.032576 -0.060126 0.043669
v 0.018400 -0.066844 0.043669
v 0.031085 -0.051920 0.027251
v 0.016157 -0.051920 0.030984
v 0.028844 -0.068340 0.045909
v 0.016157 -0.044454 0.033223
v 0.018400 -0.066100 0.046658
v 0.034072 -0.057141 0.035463
v 0.020637 -0.051920 0.027251
v 0.032576 -0.049680 0.034718
v 0.027354 -0.044454 0.036210
v 0.016157 -0.059381 0.042926
v 0.019890 -0.058635 0.033223
v 0.032576 -0.063860 0.042926
v 0.028097 -0.066100 0.048151
v 0.020637 -0.054908 0.046658
v 0.033325 -0.054908 0.039192
v 0.031829 -0.058635 0.033223
v 0.031085 -0.061621 0.045909
v 0.028844 -0.068340 0.042926
v 0.025114 -0.052668 0.044418
f 444 424 446 
f 417 416 422 
f 421 415 423 
f 420 418 425 
f 425 419 428 
f 420 425 428 
f 422 420 429 
f 418 420 431 
f 420 422 431 
f 422 418 431 
f 417 422 432 
f 427 421 432 
f 421 430 432 
f 428 419 433 
f 428 415 434 
f 420 428 434 
f 429 420 434 
f 419 425 435 
f 418 422 436 
f 422 424 436 
f 425 418 436 
f 435 425 436 
f 424 435 436 
f 422 429 437 
f 429 427 437 
f 432 422 437 
f 427 432 437 
f 415 421 438 
f 421 427 438 
f 427 429 438 
f 434 415 438 
f 429 434 438 
f 433 426 439 
f 423 433 439 
f 416 417 440 
f 417 432 440 
f 432 430 440 
f 430 439 440 
f 422 416 441 
f 424 422 441 
f 424 426 442 
f 433 419 442 
f 426 433 442 
f 419 435 442 
f 435 424 442 
f 423 415 443 
f 415 428 443 
f 433 423 443 
f 428 433 443 
f 426 424 444 
f 439 426 444 
f 416 440 444 
f 440 439 444 
f 421 423 445 
f 430 421 445 
f 423 439 445 
f 439 430 445 
f 441 416 446 
f 424 441 446 
f 416 444 446 
o convex_14
v 0.023618 -0.040722 0.032475
v -0.015194 -0.041467 0.026504
v -0.012203 -0.043706 0.027253
v -0.007728 -0.043706 0.035462
v 0.030339 -0.044453 0.027251
v 0.003472 -0.036990 0.027251
v 0.026604 -0.044453 0.035461
v -0.015194 -0.038484 0.030237
v 0.014664 -0.037737 0.030984
v 0.028842 -0.041467 0.027251
v -0.009217 -0.044453 0.033967
v -0.011459 -0.037737 0.026504
v 0.025111 -0.042959 0.035461
v 0.015408 -0.036990 0.027251
v 0.002723 -0.043706 0.036208
v -0.015194 -0.043706 0.029492
v -0.009966 -0.044453 0.028745
v 0.002723 -0.037737 0.026504
v 0.014664 -0.036990 0.029491
f 456 460 465 
f 449 448 451 
f 453 451 456 
f 451 453 457 
f 448 454 458 
f 454 452 458 
f 447 455 459 
f 456 447 459 
f 453 456 459 
f 458 452 460 
f 454 450 461 
f 455 454 461 
f 450 457 461 
f 457 453 461 
f 453 459 461 
f 459 455 461 
f 448 449 462 
f 454 448 462 
f 450 454 462 
f 457 450 462 
f 457 462 463 
f 449 451 463 
f 451 457 463 
f 462 449 463 
f 451 448 464 
f 456 451 464 
f 448 458 464 
f 460 456 464 
f 458 460 464 
f 452 454 465 
f 454 455 465 
f 455 447 465 
f 447 456 465 
f 460 452 465 
o convex_15
v 0.008694 -0.043706 0.048151
v 0.025859 -0.033257 0.045910
v 0.025859 -0.033257 0.042926
v 0.007201 -0.033257 0.047405
v 0.010186 -0.034005 0.037701
v 0.025114 -0.043706 0.048151
v 0.022875 -0.033257 0.037701
v 0.025114 -0.033257 0.048151
v 0.017647 -0.044454 0.047405
v 0.007201 -0.033257 0.041434
v 0.006453 -0.040720 0.048151
v 0.022875 -0.034005 0.037701
v 0.026607 -0.040720 0.046658
v 0.010933 -0.043706 0.046658
v 0.006453 -0.035499 0.048151
v 0.007201 -0.037738 0.042926
v 0.025114 -0.042213 0.045910
f 477 478 482 
f 467 468 469 
f 469 468 472 
f 467 469 473 
f 466 471 473 
f 471 466 474 
f 469 472 475 
f 472 470 475 
f 466 473 476 
f 472 468 477 
f 470 472 477 
f 468 467 478 
f 467 473 478 
f 473 471 478 
f 477 468 478 
f 474 466 479 
f 470 477 479 
f 477 474 479 
f 473 469 480 
f 469 475 480 
f 476 473 480 
f 475 476 480 
f 475 470 481 
f 466 476 481 
f 476 475 481 
f 479 466 481 
f 470 479 481 
f 471 474 482 
f 474 477 482 
f 478 471 482 
o convex_16
v -0.013704 -0.036991 0.000380
v -0.033853 -0.057140 0.016053
v -0.033105 -0.057890 0.016053
v -0.012958 -0.050422 0.016800
v -0.033105 -0.034751 0.004857
v -0.028628 -0.037736 -0.001114
v -0.016691 -0.057890 0.016053
v -0.032357 -0.047442 0.016800
v -0.012208 -0.036246 0.004111
v -0.012958 -0.046694 0.007100
v -0.033105 -0.039229 0.001127
v -0.028628 -0.045949 0.004860
v -0.027880 -0.034751 0.005604
v -0.015200 -0.048934 0.016800
v -0.015944 -0.041471 0.001872
v -0.012958 -0.056395 0.016800
v -0.032357 -0.034751 0.001872
v -0.033853 -0.048187 0.016800
v -0.033105 -0.057890 0.016800
v -0.017435 -0.054155 0.012320
v -0.033853 -0.038483 0.006351
v -0.012208 -0.038483 0.001127
v -0.026387 -0.047442 0.016800
v -0.012208 -0.049677 0.010826
v -0.031614 -0.053408 0.011573
v -0.012208 -0.036246 0.001872
f 491 504 508 
f 485 484 493 
f 493 488 494 
f 487 490 495 
f 491 495 496 
f 490 486 496 
f 486 491 496 
f 494 488 497 
f 486 490 498 
f 489 492 498 
f 483 488 499 
f 493 487 499 
f 488 493 499 
f 487 495 499 
f 490 487 500 
f 498 490 500 
f 498 500 501 
f 484 485 501 
f 485 489 501 
f 489 498 501 
f 500 484 501 
f 489 485 502 
f 492 489 502 
f 497 492 502 
f 494 497 502 
f 493 484 503 
f 487 493 503 
f 484 500 503 
f 500 487 503 
f 488 483 504 
f 497 488 504 
f 492 497 504 
f 495 490 505 
f 496 495 505 
f 490 496 505 
f 491 486 506 
f 486 498 506 
f 498 492 506 
f 504 491 506 
f 492 504 506 
f 485 493 507 
f 493 494 507 
f 502 485 507 
f 494 502 507 
f 495 491 508 
f 483 499 508 
f 499 495 508 
f 504 483 508 
o convex_17
v -0.009967 -0.040721 0.003366
v 0.002719 -0.034751 0.019039
v -0.007728 -0.034751 0.019786
v -0.006236 -0.035497 -0.002607
v 0.002719 -0.040721 0.009335
v -0.011460 -0.039228 0.015306
v 0.002719 -0.039228 0.001126
v -0.011460 -0.034751 0.009335
v 0.002719 -0.034751 0.009335
v 0.001226 -0.039228 0.015306
v -0.002505 -0.040721 0.001873
v 0.002719 -0.036990 0.001126
v -0.011460 -0.034751 0.019039
v -0.006981 -0.036990 -0.002607
v -0.008475 -0.040721 0.009335
v -0.009967 -0.036243 0.001873
v -0.009220 -0.035497 0.019786
f 521 514 525 
f 510 513 515 
f 511 510 516 
f 509 514 516 
f 510 515 517 
f 516 510 517 
f 512 516 517 
f 513 510 518 
f 514 513 518 
f 513 509 519 
f 515 513 519 
f 515 512 520 
f 517 515 520 
f 512 517 520 
f 511 516 521 
f 516 514 521 
f 512 515 522 
f 519 509 522 
f 515 519 522 
f 509 513 523 
f 513 514 523 
f 514 509 523 
f 516 512 524 
f 509 516 524 
f 512 522 524 
f 522 509 524 
f 510 511 525 
f 518 510 525 
f 514 518 525 
f 511 521 525 
o convex_18
v 0.007944 -0.052665 0.043673
v -0.009222 -0.045202 0.029490
v -0.009222 -0.046694 0.030983
v 0.016157 -0.046695 0.030237
v 0.007944 -0.044454 0.036955
v -0.005489 -0.054158 0.037698
v -0.004743 -0.053409 0.045165
v -0.007727 -0.044454 0.036209
v 0.016157 -0.044454 0.033225
v 0.007944 -0.052665 0.036955
v 0.016157 -0.044454 0.029490
v -0.006982 -0.054158 0.041432
v 0.007199 -0.050425 0.042925
v 0.000481 -0.054158 0.043671
v -0.009222 -0.044454 0.034719
v 0.009437 -0.052665 0.042178
v -0.009222 -0.044454 0.029490
v -0.006234 -0.049677 0.033223
f 529 531 543 
f 533 530 534 
f 531 529 535 
f 529 527 536 
f 534 529 536 
f 533 534 536 
f 528 531 537 
f 532 526 538 
f 530 533 538 
f 533 532 538 
f 526 534 538 
f 534 530 538 
f 526 532 539 
f 531 535 539 
f 537 531 539 
f 532 537 539 
f 527 528 540 
f 532 533 540 
f 533 536 540 
f 528 537 540 
f 537 532 540 
f 529 534 541 
f 534 526 541 
f 535 529 541 
f 526 539 541 
f 539 535 541 
f 536 527 542 
f 527 540 542 
f 540 536 542 
f 528 527 543 
f 527 529 543 
f 531 528 543 
o convex_19
v 0.029588 -0.042960 0.020532
v 0.002721 -0.035497 0.009336
v 0.002721 -0.034750 0.009336
v 0.034070 -0.035497 0.010083
v 0.022126 -0.035498 0.020532
v 0.002721 -0.034751 0.019038
v 0.034812 -0.034751 0.019038
v 0.021380 -0.043708 0.019785
v 0.002721 -0.038482 0.012322
v 0.034070 -0.037736 0.012322
v 0.002721 -0.038484 0.016054
v 0.035565 -0.034750 0.010830
v 0.021380 -0.043708 0.020532
v 0.035565 -0.037737 0.016054
v 0.016905 -0.038482 0.012322
v 0.028845 -0.043708 0.019785
v 0.028845 -0.035498 0.020532
v 0.016159 -0.036990 0.020532
f 549 556 561 
f 545 546 547 
f 546 545 549 
f 549 548 550 
f 549 545 552 
f 549 552 554 
f 552 551 554 
f 547 546 555 
f 546 549 555 
f 549 550 555 
f 553 547 555 
f 544 548 556 
f 549 554 556 
f 554 551 556 
f 550 544 557 
f 555 550 557 
f 553 555 557 
f 545 547 558 
f 551 552 558 
f 552 545 558 
f 547 553 558 
f 558 553 559 
f 544 556 559 
f 556 551 559 
f 557 544 559 
f 553 557 559 
f 551 558 559 
f 548 544 560 
f 550 548 560 
f 544 550 560 
f 548 549 561 
f 556 548 561 
o convex_20
v -0.030866 -0.066101 0.025010
v -0.012955 -0.051918 0.018295
v -0.012955 -0.051918 0.016800
v -0.033854 -0.051918 0.016800
v -0.017434 -0.064607 0.019788
v -0.015942 -0.058638 0.025757
v -0.032360 -0.053412 0.022025
v -0.033108 -0.058638 0.016800
v -0.014449 -0.065353 0.025757
v -0.033854 -0.060129 0.025757
v -0.012955 -0.057144 0.016800
v -0.033854 -0.064607 0.021280
v -0.030866 -0.065353 0.026504
v -0.022659 -0.051918 0.020533
v -0.032360 -0.064607 0.019788
v -0.012955 -0.063113 0.024264
v -0.013703 -0.064607 0.021280
v -0.016690 -0.060876 0.026504
v -0.034602 -0.054159 0.021280
v -0.027883 -0.059382 0.016800
v -0.033854 -0.065353 0.025757
v -0.015942 -0.057144 0.025010
v -0.017434 -0.065353 0.021280
v -0.014449 -0.059382 0.025757
v -0.033108 -0.051918 0.020533
v -0.033108 -0.057891 0.025010
v -0.015194 -0.065353 0.026504
f 585 579 588 
f 563 564 565 
f 565 564 569 
f 564 563 572 
f 569 564 572 
f 565 569 573 
f 563 565 575 
f 562 573 576 
f 573 569 576 
f 572 563 577 
f 572 577 578 
f 566 572 578 
f 577 570 578 
f 571 574 579 
f 565 573 580 
f 569 572 581 
f 572 566 581 
f 566 576 581 
f 576 569 581 
f 573 562 582 
f 574 571 582 
f 562 574 582 
f 571 580 582 
f 580 573 582 
f 563 575 583 
f 575 568 583 
f 570 562 584 
f 562 576 584 
f 576 566 584 
f 566 578 584 
f 578 570 584 
f 577 563 585 
f 567 579 585 
f 583 567 585 
f 563 583 585 
f 575 565 586 
f 568 575 586 
f 565 580 586 
f 586 580 587 
f 579 567 587 
f 571 579 587 
f 580 571 587 
f 567 583 587 
f 583 568 587 
f 568 586 587 
f 562 570 588 
f 574 562 588 
f 570 577 588 
f 579 574 588 
f 577 585 588 
o convex_21
v -0.031613 -0.048184 0.016801
v -0.021914 -0.040722 0.020532
v -0.021914 -0.041469 0.020532
v -0.012955 -0.051171 0.016801
v -0.030122 -0.051918 0.020532
v -0.027883 -0.040722 0.017547
v -0.028630 -0.040722 0.020532
v -0.033855 -0.051918 0.016801
v -0.015942 -0.051918 0.019039
v -0.033855 -0.049677 0.018294
v -0.024896 -0.040722 0.017547
v -0.033109 -0.051918 0.019786
f 598 596 600 
f 591 590 593 
f 593 590 595 
f 590 594 595 
f 589 592 596 
f 594 589 596 
f 593 596 597 
f 590 591 597 
f 592 590 597 
f 591 593 597 
f 596 592 597 
f 595 594 598 
f 594 596 598 
f 590 592 599 
f 592 589 599 
f 594 590 599 
f 589 594 599 
f 593 595 600 
f 596 593 600 
f 595 598 600 
o convex_22
v 0.022129 -0.045945 0.021280
v 0.028099 -0.035498 0.021280
v 0.028099 -0.035498 0.020533
v 0.031085 -0.051172 0.027251
v 0.016904 -0.042217 0.027251
v 0.016157 -0.037738 0.020533
v 0.020636 -0.051172 0.026503
v 0.028099 -0.040724 0.027251
v 0.029591 -0.043706 0.020533
v 0.031832 -0.045945 0.027251
v 0.019890 -0.037738 0.024264
v 0.016157 -0.046692 0.027251
v 0.016157 -0.040724 0.020533
v 0.031085 -0.050423 0.025757
v 0.029591 -0.036991 0.021280
v 0.027353 -0.045199 0.020533
f 609 614 616 
f 602 603 606 
f 605 604 608 
f 606 603 609 
f 608 604 610 
f 602 606 611 
f 606 605 611 
f 608 602 611 
f 605 608 611 
f 604 605 612 
f 605 606 612 
f 607 604 612 
f 607 612 613 
f 601 607 613 
f 606 609 613 
f 612 606 613 
f 604 607 614 
f 610 604 614 
f 609 610 614 
f 603 602 615 
f 602 608 615 
f 609 603 615 
f 608 610 615 
f 610 609 615 
f 607 601 616 
f 601 613 616 
f 613 609 616 
f 614 607 616 
o convex_23
v 0.010932 -0.057143 0.047405
v 0.004961 -0.053412 0.036955
v 0.003468 -0.054158 0.037701
v 0.016157 -0.059383 0.042924
v 0.016157 -0.054158 0.045911
v 0.003468 -0.052665 0.044419
v 0.006453 -0.058636 0.044419
v 0.009439 -0.052665 0.038448
v 0.016157 -0.058636 0.046658
v 0.004961 -0.057890 0.041435
v 0.016157 -0.056396 0.042180
v 0.003468 -0.055652 0.044419
v 0.002721 -0.052665 0.037701
f 619 628 629 
f 619 618 620 
f 617 621 622 
f 620 618 624 
f 622 621 624 
f 621 617 625 
f 620 621 625 
f 623 620 625 
f 617 623 625 
f 619 620 626 
f 620 623 626 
f 621 620 627 
f 620 624 627 
f 624 621 627 
f 617 622 628 
f 623 617 628 
f 619 626 628 
f 626 623 628 
f 618 619 629 
f 624 618 629 
f 622 624 629 
f 628 622 629 
o convex_24
v -0.021168 -0.039974 0.020533
v -0.035348 -0.035497 0.009336
v -0.035348 -0.034751 0.009336
v -0.011462 -0.034751 0.009336
v -0.026390 -0.040721 0.009336
v -0.035348 -0.034751 0.019038
v -0.011462 -0.034751 0.019038
v -0.011462 -0.039228 0.013069
v -0.035348 -0.039228 0.014562
v -0.028628 -0.040721 0.020533
v -0.030869 -0.040721 0.009336
v -0.027883 -0.036243 0.020533
v -0.021913 -0.040721 0.020533
v -0.011462 -0.039228 0.015307
v -0.036841 -0.037736 0.013069
v -0.036841 -0.035497 0.017546
f 644 638 645 
f 631 632 633 
f 631 633 634 
f 633 632 635 
f 633 635 636 
f 633 636 637 
f 634 633 637 
f 634 639 640 
f 631 634 640 
f 639 638 640 
f 630 636 641 
f 636 635 641 
f 635 639 641 
f 639 630 641 
f 636 630 642 
f 634 637 642 
f 630 639 642 
f 639 634 642 
f 637 636 643 
f 636 642 643 
f 642 637 643 
f 632 631 644 
f 631 640 644 
f 640 638 644 
f 635 632 645 
f 639 635 645 
f 638 639 645 
f 632 644 645 
