o convex_0
v -0.008867 -0.030848 -0.008616
v 0.001644 0.038166 -0.006643
v 0.001644 0.038166 -0.007958
v 0.043053 -0.000606 -0.001386
v -0.040424 -0.002579 0.011100
v 0.040424 -0.002587 0.011100
v 0.000329 -0.036767 0.011100
v -0.040424 0.019755 -0.008616
v -0.005588 0.033559 0.011100
v 0.040424 0.019755 -0.008616
v 0.032534 -0.017036 -0.008616
v 0.023330 0.031586 0.009127
v -0.036479 -0.012445 -0.008616
v -0.023330 0.031586 0.009127
v -0.009524 -0.034134 0.011100
v -0.023330 0.034872 -0.008616
v 0.023330 0.034872 -0.008616
v 0.037128 -0.014410 0.001242
v 0.013469 -0.029535 -0.007958
v 0.040424 0.017129 0.003870
v 0.009524 -0.034134 0.011100
v -0.037794 0.011863 0.011100
v -0.037128 -0.014410 0.001242
v -0.043053 0.002672 -0.007299
v -0.040424 0.017129 0.003870
v 0.037794 0.011863 0.011100
v 0.042396 0.001352 -0.008616
v -0.032534 -0.017044 -0.008616
v 0.001644 -0.032821 -0.008616
v -0.023330 0.035525 -0.005985
v 0.023330 0.035532 -0.005985
v 0.005588 0.033559 0.011100
v 0.033192 -0.013097 0.011100
v -0.033183 -0.013097 0.011100
v -0.043053 -0.000606 0.000586
v -0.013469 -0.029527 -0.007958
v 0.023330 0.028300 0.011100
v -0.023330 0.028300 0.011100
v 0.043053 0.007264 -0.003357
v 0.036479 -0.012437 -0.008616
v -0.043053 0.007264 -0.003357
v -0.000978 0.038166 -0.005985
v -0.042387 0.001352 -0.008616
v 0.000329 0.034219 0.011100
v 0.043053 -0.000606 0.000586
v -0.000320 0.038166 -0.008616
v -0.002301 -0.032813 -0.007958
v -0.037128 -0.014410 -0.000728
v 0.043053 0.005298 -0.007958
v 0.035164 -0.015731 -0.004015
v 0.007552 -0.034794 0.010442
v -0.007552 -0.034786 0.010442
v 0.034507 -0.013758 0.007813
v -0.040424 0.019755 -0.007299
v 0.040424 0.019755 -0.007299
v -0.040424 -0.007178 -0.000728
v -0.034498 -0.013750 0.007813
v 0.008867 -0.030848 -0.008616
v -0.035164 -0.015731 -0.004015
v 0.037794 -0.013097 -0.000728
v -0.000320 -0.036767 0.010442
v -0.043053 0.005298 -0.007958
v 0.040424 -0.001266 0.011100
v -0.040424 -0.001266 0.011100
f 25 35 64 
f 6 5 7 
f 5 6 9 
f 1 8 10 
f 1 10 11 
f 8 1 13 
f 7 5 15 
f 10 8 16 
f 10 16 17 
f 6 7 21 
f 19 11 21 
f 5 9 22 
f 22 14 25 
f 9 6 26 
f 20 12 26 
f 11 10 27 
f 13 1 28 
f 1 11 29 
f 14 9 30 
f 16 8 30 
f 25 14 30 
f 3 2 31 
f 17 3 31 
f 10 17 31 
f 12 20 31 
f 9 26 32 
f 12 31 32 
f 6 21 33 
f 15 5 34 
f 23 5 35 
f 28 1 36 
f 15 28 36 
f 26 12 37 
f 32 26 37 
f 12 32 37 
f 9 14 38 
f 22 9 38 
f 14 22 38 
f 27 4 40 
f 11 27 40 
f 24 35 41 
f 35 25 41 
f 2 3 42 
f 30 9 42 
f 8 13 43 
f 35 24 43 
f 31 2 44 
f 9 32 44 
f 32 31 44 
f 2 42 44 
f 42 9 44 
f 6 18 45 
f 4 39 45 
f 39 20 45 
f 3 17 46 
f 17 16 46 
f 16 30 46 
f 42 3 46 
f 30 42 46 
f 1 29 47 
f 15 23 48 
f 4 27 49 
f 27 10 49 
f 39 4 49 
f 10 39 49 
f 18 21 50 
f 21 11 50 
f 11 40 50 
f 21 7 51 
f 19 21 51 
f 7 29 51 
f 36 1 52 
f 15 36 52 
f 1 47 52 
f 18 6 53 
f 21 18 53 
f 6 33 53 
f 33 21 53 
f 30 8 54 
f 25 30 54 
f 8 41 54 
f 41 25 54 
f 10 31 55 
f 31 20 55 
f 20 39 55 
f 39 10 55 
f 23 35 56 
f 43 13 56 
f 35 43 56 
f 48 23 56 
f 13 48 56 
f 5 23 57 
f 23 15 57 
f 34 5 57 
f 15 34 57 
f 11 19 58 
f 29 11 58 
f 19 51 58 
f 51 29 58 
f 13 28 59 
f 28 15 59 
f 15 48 59 
f 48 13 59 
f 40 4 60 
f 4 45 60 
f 45 18 60 
f 18 50 60 
f 50 40 60 
f 7 15 61 
f 29 7 61 
f 47 29 61 
f 15 52 61 
f 52 47 61 
f 41 8 62 
f 24 41 62 
f 8 43 62 
f 43 24 62 
f 26 6 63 
f 20 26 63 
f 6 45 63 
f 45 20 63 
f 5 22 64 
f 22 25 64 
f 35 5 64 
o convex_1
v -0.004273 -0.059772 0.028189
v 0.014130 -0.028882 0.025560
v 0.014130 -0.028882 0.022933
v -0.014787 -0.029538 0.024244
v -0.000326 -0.038085 0.011102
v 0.016760 -0.057796 0.016362
v -0.016760 -0.057799 0.016362
v 0.006242 -0.047937 0.034104
v -0.010184 -0.028882 0.032791
v -0.010845 -0.028882 0.011102
v 0.010844 -0.028882 0.011102
v -0.013470 -0.053199 0.030820
v 0.018733 -0.056481 0.024246
v 0.010188 -0.028882 0.032791
v -0.018733 -0.056484 0.024244
v 0.009528 -0.060428 0.025560
v -0.004925 -0.037426 0.034764
v 0.013474 -0.053196 0.030820
v 0.018073 -0.044655 0.025560
v -0.000326 -0.061087 0.020306
v -0.005585 -0.054514 0.032791
v -0.018073 -0.044658 0.025560
v 0.001643 -0.052540 0.013733
v 0.004269 -0.028882 0.034764
v -0.013470 -0.059772 0.024904
v 0.004925 -0.055828 0.032133
v 0.009528 -0.034797 0.011102
v -0.009528 -0.034797 0.011102
v 0.011501 -0.034797 0.032791
v 0.016100 -0.032823 0.026217
v -0.011501 -0.034797 0.032791
v -0.006238 -0.047937 0.034104
v -0.016100 -0.032823 0.026215
v 0.010844 -0.057796 0.029504
v 0.000323 -0.061087 0.026875
v 0.014787 -0.059769 0.023586
v -0.010845 -0.057799 0.029504
v 0.016100 -0.032823 0.024246
v 0.018733 -0.053196 0.022933
v -0.016100 -0.032823 0.024244
v -0.018733 -0.053199 0.022933
v -0.004273 -0.028882 0.034764
v -0.001643 -0.052540 0.013733
v 0.013474 -0.047281 0.031475
v -0.013470 -0.047278 0.031475
v -0.016760 -0.059113 0.020962
v -0.000326 -0.057143 0.031475
v -0.016760 -0.055169 0.016362
v 0.016760 -0.055169 0.016362
v 0.004925 -0.037426 0.034764
v 0.002296 -0.049911 0.034104
v 0.003612 -0.060428 0.018991
v 0.017416 -0.045308 0.026873
v -0.017413 -0.045308 0.026875
v -0.010845 -0.060428 0.024904
v -0.014127 -0.028882 0.025560
v 0.006898 -0.053855 0.032791
v 0.016760 -0.059113 0.020964
f 100 116 122 
f 66 67 73 
f 73 67 74 
f 74 67 75 
f 69 74 75 
f 66 73 78 
f 70 71 87 
f 78 73 88 
f 75 70 91 
f 69 75 91 
f 87 69 91 
f 70 87 91 
f 74 69 92 
f 71 74 92 
f 78 88 93 
f 67 66 94 
f 66 78 94 
f 78 93 94 
f 76 85 96 
f 81 95 96 
f 95 73 97 
f 77 82 98 
f 84 80 99 
f 80 98 99 
f 80 84 100 
f 98 80 100 
f 77 98 100 
f 76 79 101 
f 85 76 101 
f 79 89 101 
f 75 67 102 
f 67 94 102 
f 94 83 102 
f 77 70 103 
f 83 77 103 
f 102 83 103 
f 68 74 104 
f 97 68 104 
f 86 97 104 
f 71 79 105 
f 79 86 105 
f 86 104 105 
f 88 73 106 
f 81 88 106 
f 95 81 106 
f 73 95 106 
f 69 87 107 
f 87 71 107 
f 92 69 107 
f 71 92 107 
f 72 82 108 
f 82 77 108 
f 93 72 108 
f 79 76 109 
f 76 96 109 
f 96 95 109 
f 79 71 110 
f 71 84 110 
f 89 79 110 
f 90 85 111 
f 98 90 111 
f 99 98 111 
f 65 99 111 
f 101 65 111 
f 85 101 111 
f 74 71 112 
f 104 74 112 
f 71 105 112 
f 105 104 112 
f 70 75 113 
f 75 102 113 
f 103 70 113 
f 102 103 113 
f 88 81 114 
f 72 93 114 
f 93 88 114 
f 81 96 115 
f 96 85 115 
f 72 114 115 
f 114 81 115 
f 71 70 116 
f 84 71 116 
f 100 84 116 
f 77 83 117 
f 83 94 117 
f 94 93 117 
f 108 77 117 
f 93 108 117 
f 86 79 118 
f 97 86 118 
f 95 97 118 
f 79 109 118 
f 109 95 118 
f 84 99 119 
f 99 65 119 
f 65 101 119 
f 101 89 119 
f 110 84 119 
f 89 110 119 
f 74 68 120 
f 73 74 120 
f 68 97 120 
f 97 73 120 
f 82 72 121 
f 85 90 121 
f 98 82 121 
f 90 98 121 
f 72 115 121 
f 115 85 121 
f 70 77 122 
f 77 100 122 
f 116 70 122 
o convex_2
v 0.000984 -0.027564 0.036736
v -0.016761 -0.021649 0.011102
v -0.016761 -0.020992 0.011102
v 0.016761 -0.020992 0.011102
v 0.011501 -0.028879 0.011102
v 0.006241 -0.020992 0.038046
v -0.014130 -0.028879 0.025562
v 0.014130 -0.028879 0.025562
v -0.006241 -0.020992 0.038046
v -0.011501 -0.028879 0.011102
v -0.008213 -0.028879 0.033450
v 0.009529 -0.028879 0.032790
v 0.014789 -0.020992 0.019652
v -0.014789 -0.020992 0.019652
v -0.006241 -0.022964 0.038708
v 0.006241 -0.022964 0.038708
v 0.016102 -0.023622 0.011102
v -0.016102 -0.023622 0.011102
v -0.002297 -0.025592 0.038046
f 138 137 141 
f 124 125 126 
f 124 126 127 
f 126 125 128 
f 125 124 129 
f 129 127 130 
f 128 125 131 
f 124 127 132 
f 127 129 132 
f 129 130 133 
f 123 133 134 
f 133 130 134 
f 126 128 135 
f 130 126 135 
f 128 130 135 
f 125 129 136 
f 131 125 136 
f 129 131 136 
f 128 131 137 
f 131 129 137 
f 129 133 137 
f 130 128 138 
f 123 134 138 
f 134 130 138 
f 128 137 138 
f 127 126 139 
f 126 130 139 
f 130 127 139 
f 129 124 140 
f 124 132 140 
f 132 129 140 
f 133 123 141 
f 137 133 141 
f 123 138 141 
o convex_3
v -0.016102 -0.020992 0.018988
v 0.002955 0.033564 0.011760
v 0.016102 0.029618 0.011760
v -0.018077 -0.020992 0.011102
v 0.041732 -0.003241 0.020961
v -0.041076 0.008583 0.020961
v 0.031216 -0.014412 0.011102
v -0.037790 0.011210 0.011102
v 0.001643 0.023044 0.020961
v 0.014782 -0.020992 0.020961
v 0.037789 0.011210 0.011102
v 0.039765 0.009896 0.020961
v -0.039765 -0.006525 0.020961
v -0.022020 0.027642 0.011102
v -0.039765 -0.003241 0.011102
v 0.018069 -0.020992 0.011102
v 0.039765 -0.003241 0.011102
v 0.023331 0.026991 0.011102
v -0.031216 -0.014418 0.011102
v -0.025298 -0.016388 0.020961
v 0.030560 -0.013756 0.020961
v -0.001635 0.023044 0.020961
v -0.016102 0.029613 0.011760
v -0.041732 -0.004554 0.018330
v -0.025962 0.015157 0.020961
v 0.041732 -0.004554 0.018330
v 0.041076 0.008583 0.020303
v -0.002955 0.033564 0.011102
v -0.014790 -0.020992 0.020961
v -0.023331 0.026991 0.011760
v -0.042396 0.000049 0.020303
v 0.025962 0.015157 0.020961
v 0.037789 -0.008495 0.020961
v -0.032536 -0.012442 0.020961
v -0.002955 0.033564 0.011760
v 0.039765 0.000706 0.011102
v -0.039765 0.009896 0.020961
v 0.042396 0.000049 0.020303
v 0.022020 0.027647 0.011760
v -0.029249 -0.015726 0.011760
v -0.039765 0.000706 0.011102
v 0.027929 -0.016388 0.011760
v 0.016102 -0.020992 0.018988
v 0.000324 0.029618 0.015703
f 176 163 185 
f 148 145 149 
f 144 143 150 
f 147 146 150 
f 142 145 151 
f 146 147 151 
f 148 149 152 
f 150 146 153 
f 151 147 154 
f 152 149 155 
f 149 145 156 
f 145 148 157 
f 151 145 157 
f 148 152 158 
f 143 144 159 
f 152 155 159 
f 156 145 160 
f 151 154 161 
f 146 151 162 
f 147 150 163 
f 160 154 165 
f 156 160 165 
f 147 163 166 
f 163 164 166 
f 148 158 167 
f 159 153 168 
f 152 159 168 
f 143 159 169 
f 159 155 169 
f 155 164 169 
f 142 151 170 
f 161 142 170 
f 151 161 170 
f 149 147 171 
f 155 149 171 
f 164 155 171 
f 166 164 171 
f 154 147 172 
f 165 154 172 
f 156 165 172 
f 144 150 173 
f 150 153 173 
f 146 162 174 
f 162 148 174 
f 167 146 174 
f 148 167 174 
f 154 160 175 
f 161 154 175 
f 164 163 176 
f 143 169 176 
f 169 164 176 
f 158 152 177 
f 152 168 177 
f 147 166 178 
f 171 147 178 
f 166 171 178 
f 153 146 179 
f 146 167 179 
f 167 158 179 
f 168 153 179 
f 158 177 179 
f 177 168 179 
f 159 144 180 
f 153 159 180 
f 144 173 180 
f 173 153 180 
f 145 142 181 
f 160 145 181 
f 142 161 181 
f 175 160 181 
f 161 175 181 
f 147 149 182 
f 149 156 182 
f 172 147 182 
f 156 172 182 
f 157 148 183 
f 148 162 183 
f 183 162 184 
f 151 157 184 
f 162 151 184 
f 157 183 184 
f 150 143 185 
f 163 150 185 
f 143 176 185 
o convex_4
v 0.002955 -0.032155 -0.011247
v 0.004922 0.037508 -0.008618
v 0.010184 0.036847 -0.008618
v 0.000979 0.017123 -0.046084
v -0.042396 0.005957 -0.008618
v 0.042396 -0.017698 -0.021765
v -0.000324 -0.021643 -0.037539
v -0.042396 -0.017698 -0.021765
v 0.040421 0.019753 -0.008618
v -0.031880 0.023698 -0.025708
v 0.032527 0.022383 -0.026364
v 0.039765 -0.019013 -0.009278
v 0.001635 0.033557 -0.030959
v -0.023331 0.034872 -0.008621
v -0.023331 0.008580 -0.038852
v -0.039765 -0.019013 -0.009278
v -0.000979 -0.009154 -0.044763
v 0.024642 0.009241 -0.038195
v -0.000979 -0.032823 -0.008618
v -0.040421 0.015809 -0.021765
v 0.042396 0.006611 -0.023735
v -0.000979 -0.030847 -0.021765
v 0.023331 0.032242 -0.023082
v -0.023331 0.032242 -0.023082
v -0.040421 0.019753 -0.008618
v -0.042396 0.006611 -0.023738
v 0.042396 0.002012 -0.008618
v 0.023331 0.034878 -0.008618
v 0.001635 -0.008500 -0.044763
v -0.003610 0.016463 -0.045424
v -0.003610 0.033557 -0.030303
v -0.023331 0.011210 -0.038852
v -0.012815 -0.029525 -0.008621
v -0.042396 -0.018359 -0.011251
v 0.002299 -0.030847 -0.021112
v 0.012815 -0.029532 -0.008618
v -0.000979 0.037508 -0.011907
v 0.042396 -0.018359 -0.011251
v 0.040421 0.015815 -0.021765
v 0.022020 0.011210 -0.039508
v -0.029905 0.005296 -0.034249
v -0.014126 -0.008493 -0.038852
v -0.013471 -0.028217 -0.017823
v 0.034503 0.025013 -0.012567
v 0.016758 -0.008493 -0.037535
v 0.001635 -0.022304 -0.036218
v -0.034503 0.025013 -0.012567
v 0.002299 0.034217 -0.028994
v 0.029905 0.005303 -0.034249
v 0.013471 -0.028217 -0.017823
v 0.001635 -0.020989 -0.037539
v 0.023331 0.034878 -0.010594
v -0.023331 0.034872 -0.010594
v -0.036478 -0.012438 -0.008618
v -0.000979 -0.002587 -0.045424
v -0.001635 0.017777 -0.045424
v 0.003610 0.016463 -0.045424
v -0.001635 -0.022304 -0.036218
v -0.002299 0.034217 -0.028994
v -0.032536 0.022390 -0.026364
v 0.033847 0.022383 -0.024391
v 0.036478 -0.012438 -0.008618
v 0.022675 0.007265 -0.038848
v -0.042396 -0.018359 -0.017166
f 228 218 249 
f 188 187 190 
f 188 190 194 
f 192 193 202 
f 194 190 204 
f 203 196 206 
f 189 198 208 
f 190 187 210 
f 187 199 210 
f 193 190 211 
f 190 210 211 
f 210 205 211 
f 194 204 212 
f 191 206 212 
f 206 194 212 
f 188 194 213 
f 192 202 214 
f 215 200 217 
f 190 193 219 
f 201 190 219 
f 218 201 219 
f 186 204 220 
f 204 207 220 
f 204 186 221 
f 212 204 221 
f 199 187 222 
f 191 212 223 
f 212 197 223 
f 221 191 223 
f 197 221 223 
f 194 206 224 
f 206 196 224 
f 196 203 225 
f 200 193 226 
f 193 211 226 
f 217 200 226 
f 211 217 226 
f 193 200 227 
f 202 193 227 
f 200 202 227 
f 193 207 228 
f 207 204 228 
f 204 218 228 
f 213 194 229 
f 191 214 230 
f 207 192 231 
f 191 220 231 
f 220 207 231 
f 195 205 232 
f 209 195 232 
f 210 199 232 
f 205 210 232 
f 208 198 233 
f 222 187 233 
f 191 203 234 
f 206 191 234 
f 203 206 234 
f 186 220 235 
f 220 191 235 
f 191 221 235 
f 221 186 235 
f 214 191 236 
f 192 214 236 
f 191 231 236 
f 231 192 236 
f 187 188 237 
f 188 213 237 
f 229 208 237 
f 213 229 237 
f 233 187 237 
f 208 233 237 
f 199 222 238 
f 209 232 238 
f 232 199 238 
f 190 201 239 
f 204 190 239 
f 201 218 239 
f 218 204 239 
f 202 200 240 
f 189 214 240 
f 214 202 240 
f 215 189 240 
f 200 215 240 
f 198 189 241 
f 195 209 241 
f 189 215 241 
f 215 195 241 
f 209 216 241 
f 216 198 241 
f 189 208 242 
f 208 196 242 
f 214 189 242 
f 196 225 242 
f 225 214 242 
f 193 192 243 
f 192 207 243 
f 207 193 243 
f 216 209 244 
f 198 216 244 
f 233 198 244 
f 222 233 244 
f 209 238 244 
f 238 222 244 
f 205 195 245 
f 211 205 245 
f 195 215 245 
f 217 211 245 
f 215 217 245 
f 196 208 246 
f 194 224 246 
f 224 196 246 
f 208 229 246 
f 229 194 246 
f 197 212 247 
f 221 197 247 
f 212 221 247 
f 203 191 248 
f 225 203 248 
f 214 225 248 
f 191 230 248 
f 230 214 248 
f 219 193 249 
f 218 219 249 
f 193 228 249 
o convex_5
v 0.042396 -0.013760 -0.010589
v 0.063425 -0.007846 -0.030308
v 0.063425 -0.007188 -0.030308
v 0.043056 -0.007188 -0.023076
v 0.043714 -0.017705 -0.023076
v 0.052914 -0.017048 -0.019136
v 0.064083 -0.007188 -0.023732
v 0.051601 -0.016389 -0.028336
v 0.065399 -0.009818 -0.029648
v 0.043056 -0.018362 -0.011906
v 0.042396 -0.007188 -0.019136
v 0.051601 -0.007188 -0.028336
v 0.042396 -0.017705 -0.022420
v 0.064741 -0.009161 -0.024392
v 0.048312 -0.007188 -0.019136
v 0.043714 -0.015076 -0.010589
v 0.052914 -0.016389 -0.027678
v 0.045027 -0.018362 -0.013220
v 0.066059 -0.007188 -0.030308
f 263 258 268 
f 252 253 256 
f 252 251 257 
f 257 251 258 
f 256 253 260 
f 253 252 261 
f 252 257 261 
f 257 253 261 
f 253 257 262 
f 257 254 262 
f 259 250 262 
f 250 260 262 
f 260 253 262 
f 255 258 263 
f 250 256 264 
f 260 250 264 
f 256 260 264 
f 256 250 265 
f 250 259 265 
f 263 256 265 
f 254 257 266 
f 258 255 266 
f 257 258 266 
f 262 254 267 
f 259 262 267 
f 255 263 267 
f 265 259 267 
f 263 265 267 
f 254 266 267 
f 266 255 267 
f 251 252 268 
f 252 256 268 
f 258 251 268 
f 256 263 268 
o convex_6
v -0.042398 -0.013102 -0.011248
v -0.066054 -0.009162 -0.030308
v -0.066054 -0.005874 -0.030308
v -0.043058 -0.005874 -0.023076
v -0.051600 -0.016388 -0.028336
v -0.042398 -0.018362 -0.011906
v -0.065398 -0.005874 -0.024392
v -0.042398 -0.017705 -0.022420
v -0.052914 -0.017047 -0.019136
v -0.042398 -0.005874 -0.019136
v -0.053571 -0.005874 -0.028992
v -0.043715 -0.015074 -0.010589
v -0.064741 -0.009162 -0.024392
v -0.045685 -0.005874 -0.019136
v -0.045028 -0.018362 -0.013220
v -0.048972 -0.005874 -0.027019
v -0.052914 -0.016388 -0.027678
v -0.062113 -0.005874 -0.023076
v -0.043058 -0.013761 -0.010589
v -0.065398 -0.009819 -0.028336
f 285 277 288 
f 271 270 275 
f 272 271 275 
f 269 274 276 
f 272 275 278 
f 269 276 278 
f 276 272 278 
f 270 271 279 
f 271 272 279 
f 273 270 279 
f 275 270 281 
f 280 275 281 
f 278 275 282 
f 269 278 282 
f 276 274 283 
f 274 280 283 
f 281 277 283 
f 280 281 283 
f 272 276 284 
f 276 273 284 
f 279 272 284 
f 273 279 284 
f 270 273 285 
f 273 276 285 
f 276 283 285 
f 283 277 285 
f 282 275 286 
f 282 286 287 
f 274 269 287 
f 280 274 287 
f 275 280 287 
f 269 282 287 
f 286 275 287 
f 277 281 288 
f 281 270 288 
f 270 285 288 
o convex_7
v 0.046999 -0.007186 -0.025708
v 0.062114 0.014501 -0.023736
v 0.062770 0.013844 -0.023736
v 0.062770 0.012528 -0.030965
v 0.066712 -0.007186 -0.028993
v 0.042401 0.007927 -0.023079
v 0.062114 -0.007186 -0.023079
v 0.068027 0.005298 -0.023736
v 0.053571 -0.007186 -0.028993
v 0.043057 -0.007186 -0.022422
v 0.057513 0.013844 -0.022422
v 0.051600 0.010556 -0.028336
v 0.068683 0.003332 -0.028993
v 0.066056 -0.007186 -0.030308
v 0.061455 0.006613 -0.022422
v 0.065400 -0.007186 -0.024394
v 0.042401 0.007927 -0.022422
v 0.061455 0.008585 -0.030965
v 0.050285 0.011216 -0.026366
v 0.052915 -0.007186 -0.022422
v 0.048970 -0.007186 -0.027021
v 0.068683 0.002672 -0.026366
v 0.068027 0.005298 -0.028993
v 0.060140 0.013844 -0.022422
v 0.063426 -0.007186 -0.030308
v 0.050285 0.011870 -0.022422
v 0.059484 0.013844 -0.025708
f 314 299 315 
f 290 291 292 
f 289 293 295 
f 293 289 297 
f 294 289 298 
f 289 295 298 
f 293 297 302 
f 292 301 302 
f 301 293 302 
f 295 296 303 
f 299 298 303 
f 295 293 304 
f 296 295 304 
f 294 298 305 
f 298 299 305 
f 297 300 306 
f 300 292 306 
f 292 302 306 
f 300 294 307 
f 292 300 307 
f 298 295 308 
f 295 303 308 
f 303 298 308 
f 289 294 309 
f 297 289 309 
f 294 300 309 
f 300 297 309 
f 293 301 310 
f 301 296 310 
f 304 293 310 
f 296 304 310 
f 292 291 311 
f 291 296 311 
f 301 292 311 
f 296 301 311 
f 291 290 312 
f 296 291 312 
f 290 299 312 
f 303 296 312 
f 299 303 312 
f 302 297 313 
f 297 306 313 
f 306 302 313 
f 294 305 314 
f 305 299 314 
f 307 294 314 
f 307 314 315 
f 290 292 315 
f 299 290 315 
f 292 307 315 
o convex_8
v 0.052911 0.013185 -0.021105
v 0.042398 -0.007186 -0.022421
v 0.051596 -0.007186 -0.022421
v 0.042398 0.002672 -0.013220
v 0.042398 0.007927 -0.022421
v 0.059484 0.009899 -0.022421
v 0.046999 0.007271 -0.013877
v 0.043712 0.009243 -0.014535
v 0.048971 -0.007186 -0.019791
v 0.058827 0.013843 -0.021762
v 0.042398 -0.007186 -0.019133
v 0.059484 0.009899 -0.021762
v 0.046999 0.005955 -0.013877
v 0.050285 0.012528 -0.017820
v 0.051596 0.012528 -0.022421
v 0.043055 0.000702 -0.013877
v 0.042398 0.007271 -0.013877
f 322 323 332 
f 318 317 320 
f 317 319 320 
f 318 320 321 
f 317 318 324 
f 319 317 326 
f 317 324 326 
f 318 321 327 
f 324 318 327 
f 321 325 327 
f 325 322 327 
f 322 319 328 
f 324 327 328 
f 327 322 328 
f 320 323 329 
f 323 322 329 
f 325 316 329 
f 322 325 329 
f 321 320 330 
f 316 325 330 
f 325 321 330 
f 329 316 330 
f 320 329 330 
f 319 326 331 
f 326 324 331 
f 328 319 331 
f 324 328 331 
f 320 319 332 
f 319 322 332 
f 323 320 332 
o convex_9
v 0.016758 -0.020332 0.024907
v -0.038448 -0.007846 0.020963
v -0.038448 -0.007188 0.020963
v -0.006901 -0.017045 0.038049
v 0.038452 -0.007188 0.021620
v 0.016103 -0.007188 0.035420
v -0.012817 -0.020992 0.020963
v 0.005587 -0.020992 0.038049
v -0.021354 -0.007188 0.034105
v -0.029242 -0.015730 0.024249
v 0.012814 -0.020992 0.020963
v -0.005591 -0.020992 0.038049
v 0.032528 -0.013762 0.024249
v 0.031873 -0.007846 0.028852
v -0.031215 -0.009162 0.028852
v 0.038452 -0.007846 0.020963
v -0.022671 -0.019018 0.022935
v -0.016107 -0.007188 0.035420
v 0.022675 -0.019018 0.022935
v 0.006897 -0.016390 0.038049
v 0.021357 -0.007188 0.034105
v -0.031869 -0.013762 0.024907
v 0.031218 -0.013762 0.020963
v -0.031215 -0.013762 0.020963
v -0.008218 -0.008503 0.036077
v 0.031873 -0.010476 0.027537
v -0.031869 -0.007188 0.028852
v 0.025302 -0.017704 0.024249
v -0.013472 -0.020992 0.024907
f 344 349 361 
f 337 335 338 
f 334 335 339 
f 338 335 341 
f 339 335 343 
f 333 340 343 
f 340 339 343 
f 340 336 344 
f 339 340 344 
f 336 341 344 
f 344 341 347 
f 335 337 348 
f 343 335 348 
f 337 345 348 
f 344 342 349 
f 341 336 350 
f 338 341 350 
f 340 333 351 
f 333 343 351 
f 336 340 352 
f 337 338 353 
f 346 337 353 
f 340 346 353 
f 338 352 353 
f 352 340 353 
f 342 344 354 
f 347 334 354 
f 344 347 354 
f 343 348 355 
f 348 345 355 
f 351 343 355 
f 345 351 355 
f 334 339 356 
f 339 349 356 
f 349 342 356 
f 354 334 356 
f 342 354 356 
f 350 336 357 
f 338 350 357 
f 352 338 357 
f 336 352 357 
f 345 337 358 
f 340 345 358 
f 337 346 358 
f 346 340 358 
f 335 334 359 
f 341 335 359 
f 334 347 359 
f 347 341 359 
f 345 340 360 
f 340 351 360 
f 351 345 360 
f 339 344 361 
f 349 339 361 
o convex_10
v -0.018082 -0.007188 0.035418
v -0.015451 0.026991 0.034107
v -0.015451 0.026991 0.033448
v -0.043053 0.010554 0.026879
v -0.000329 -0.007188 0.020965
v -0.000329 0.022388 0.020965
v -0.000329 0.006616 0.038706
v -0.038449 -0.007188 0.020961
v -0.018082 0.019758 0.038707
v -0.040423 0.009902 0.020961
v -0.022021 -0.004559 0.036734
v -0.000329 -0.007188 0.034105
v -0.007560 0.025014 0.035420
v -0.035162 0.008590 0.033448
v -0.017421 -0.001270 0.038707
v -0.009534 0.019758 0.040021
v -0.033188 -0.007188 0.028192
v -0.018082 0.023047 0.026220
v -0.042392 -0.001270 0.021620
v -0.014790 -0.005214 0.038049
v -0.043053 0.007931 0.026879
v -0.024648 0.015817 0.020961
v -0.016764 0.026332 0.032133
v -0.033848 0.009902 0.034107
v -0.000329 0.011210 0.034762
v -0.003616 0.008590 0.039362
v -0.016764 0.023703 0.036734
v -0.043053 0.010554 0.025566
v -0.018082 -0.000614 0.038707
v -0.042392 0.002016 0.020961
v -0.016108 0.026991 0.034107
v -0.015451 0.020417 0.039364
v -0.017421 0.025014 0.029508
v -0.018734 -0.005873 0.037392
v -0.000329 0.022388 0.021621
v -0.035162 0.009902 0.033448
f 370 388 397 
f 366 367 368 
f 366 362 369 
f 362 366 373 
f 366 368 373 
f 364 363 374 
f 367 364 374 
f 374 363 377 
f 368 374 377 
f 369 362 378 
f 372 375 378 
f 369 378 380 
f 373 368 381 
f 375 365 382 
f 378 375 382 
f 380 378 382 
f 367 366 383 
f 366 369 383 
f 369 371 383 
f 379 367 383 
f 371 379 383 
f 364 367 384 
f 375 372 385 
f 368 367 386 
f 374 368 386 
f 368 377 387 
f 377 376 387 
f 381 368 387 
f 376 381 387 
f 382 365 389 
f 380 382 389 
f 376 377 390 
f 370 385 390 
f 385 372 390 
f 371 369 391 
f 369 380 391 
f 389 371 391 
f 380 389 391 
f 363 364 392 
f 377 363 392 
f 364 384 392 
f 365 388 392 
f 388 377 392 
f 389 365 392 
f 384 389 392 
f 388 370 393 
f 377 388 393 
f 370 390 393 
f 390 377 393 
f 367 379 394 
f 379 371 394 
f 384 367 394 
f 371 389 394 
f 389 384 394 
f 362 373 395 
f 378 362 395 
f 372 378 395 
f 373 381 395 
f 381 376 395 
f 390 372 395 
f 376 390 395 
f 367 374 396 
f 386 367 396 
f 374 386 396 
f 365 375 397 
f 385 370 397 
f 375 385 397 
f 388 365 397 
o convex_11
v -0.050286 0.012529 -0.017820
v -0.059484 0.009900 -0.022421
v -0.059484 0.009900 -0.021762
v -0.042398 -0.005874 -0.022421
v -0.043055 0.000701 -0.013877
v -0.042398 0.007929 -0.022421
v -0.052253 -0.005874 -0.021762
v -0.042398 0.007271 -0.013877
v -0.046999 0.005957 -0.013877
v -0.058827 0.013845 -0.021762
v -0.042398 -0.005874 -0.019133
v -0.051596 0.012529 -0.022421
v -0.052253 -0.005874 -0.022421
v -0.043712 0.009244 -0.014535
v -0.048314 -0.005874 -0.019791
v -0.046999 0.007271 -0.013877
f 405 411 413 
f 401 399 403 
f 400 399 404 
f 401 403 405 
f 400 404 406 
f 404 402 406 
f 402 405 406 
f 399 400 407 
f 404 401 408 
f 401 405 408 
f 405 402 408 
f 403 399 409 
f 398 403 409 
f 399 407 409 
f 407 398 409 
f 399 401 410 
f 404 399 410 
f 401 404 410 
f 403 398 411 
f 405 403 411 
f 402 404 412 
f 404 408 412 
f 408 402 412 
f 400 406 413 
f 406 405 413 
f 407 400 413 
f 398 407 413 
f 411 398 413 
o convex_12
v 0.011502 -0.007188 0.036077
v 0.016105 0.026991 0.034105
v 0.016105 0.026991 0.033448
v 0.042391 -0.001270 0.020961
v -0.000329 -0.007188 0.020965
v -0.000329 0.022388 0.020965
v -0.000329 0.007275 0.038049
v 0.033847 0.009902 0.034105
v 0.040420 0.009902 0.020961
v 0.009536 0.019758 0.040021
v 0.033847 -0.007188 0.027536
v 0.018076 -0.004559 0.038049
v 0.043053 0.010554 0.026877
v -0.000329 -0.007188 0.034105
v 0.038450 -0.007188 0.020961
v 0.007561 0.025014 0.035420
v 0.018076 0.023047 0.026222
v 0.018076 0.019758 0.038706
v 0.000330 0.006619 0.038706
v 0.018076 -0.000614 0.038706
v 0.035163 0.008587 0.033448
v 0.043053 0.007931 0.026877
v 0.022016 -0.004559 0.036734
v 0.013477 -0.004559 0.038049
v 0.024649 0.015813 0.020961
v 0.003621 0.008590 0.039362
v 0.023991 -0.007188 0.033448
v 0.043053 0.010554 0.025564
v 0.017417 0.025014 0.029508
v 0.016105 0.021732 0.038706
v 0.039762 -0.005870 0.021620
v -0.000329 0.022388 0.021621
v 0.000988 0.022388 0.020965
v 0.033193 -0.007188 0.028192
v 0.018734 -0.005873 0.037390
v 0.015447 0.020417 0.039362
f 431 443 449 
f 419 418 420 
f 414 418 424 
f 416 415 426 
f 418 414 427 
f 420 418 427 
f 422 417 428 
f 424 418 428 
f 415 416 429 
f 416 419 429 
f 420 423 429 
f 421 426 431 
f 423 420 432 
f 420 427 432 
f 421 431 433 
f 426 421 434 
f 421 433 434 
f 426 434 435 
f 433 425 436 
f 434 433 436 
f 427 414 437 
f 432 427 437 
f 425 433 437 
f 418 419 438 
f 428 418 438 
f 422 428 438 
f 430 422 438 
f 423 432 439 
f 433 423 439 
f 432 437 439 
f 437 433 439 
f 414 424 440 
f 417 422 441 
f 416 426 441 
f 435 417 441 
f 426 435 441 
f 422 430 442 
f 441 422 442 
f 416 441 442 
f 426 415 443 
f 415 429 443 
f 429 423 443 
f 431 426 443 
f 428 417 444 
f 424 428 444 
f 417 435 444 
f 435 424 444 
f 419 420 445 
f 429 419 445 
f 420 429 445 
f 419 416 446 
f 438 419 446 
f 430 438 446 
f 416 442 446 
f 442 430 446 
f 424 435 447 
f 435 434 447 
f 434 436 447 
f 440 424 447 
f 436 440 447 
f 436 425 448 
f 437 414 448 
f 425 437 448 
f 414 440 448 
f 440 436 448 
f 423 433 449 
f 433 431 449 
f 443 423 449 
o convex_13
v -0.046999 -0.005874 -0.025708
v -0.061455 0.014503 -0.023736
v -0.057513 0.013844 -0.022422
v -0.064741 -0.005874 -0.023736
v -0.062770 0.012530 -0.030965
v -0.042401 0.007929 -0.022422
v -0.066056 -0.005874 -0.030308
v -0.068027 0.005298 -0.023736
v -0.043057 -0.005874 -0.022422
v -0.051600 0.010557 -0.028336
v -0.053571 -0.005874 -0.028993
v -0.068683 0.001359 -0.028993
v -0.061455 0.006614 -0.022422
v -0.052915 -0.005874 -0.022422
v -0.042401 0.007929 -0.023079
v -0.061455 0.008585 -0.030965
v -0.050285 0.011216 -0.026366
v -0.066712 -0.005874 -0.027678
v -0.068027 0.005298 -0.028993
v -0.062770 0.013844 -0.023736
v -0.062770 -0.005215 -0.023079
v -0.062770 -0.005874 -0.030308
v -0.048973 -0.005874 -0.027021
v -0.060140 0.013844 -0.022422
v -0.050285 0.011872 -0.022422
v -0.068027 0.003329 -0.023736
v -0.061455 0.012530 -0.030965
f 466 459 476 
f 450 453 456 
f 453 450 458 
f 455 452 458 
f 450 456 460 
f 454 456 461 
f 458 452 462 
f 458 462 463 
f 453 458 463 
f 458 450 464 
f 455 458 464 
f 456 454 465 
f 451 452 466 
f 464 459 466 
f 456 453 467 
f 461 456 467 
f 454 461 468 
f 461 457 468 
f 451 454 469 
f 454 468 469 
f 468 457 469 
f 463 462 470 
f 453 463 470 
f 460 456 471 
f 456 465 471 
f 465 460 471 
f 450 460 472 
f 460 459 472 
f 464 450 472 
f 459 464 472 
f 452 451 473 
f 462 452 473 
f 457 462 473 
f 451 469 473 
f 469 457 473 
f 452 455 474 
f 455 464 474 
f 466 452 474 
f 464 466 474 
f 457 461 475 
f 462 457 475 
f 467 453 475 
f 461 467 475 
f 453 470 475 
f 470 462 475 
f 454 451 476 
f 459 460 476 
f 465 454 476 
f 460 465 476 
f 451 466 476 
