# https://github.com/mikedh/trimesh
v 0.02187501 -0.00333650 0.03510426
v -0.02187499 -0.00333650 0.03510426
v 0.02500001 -0.00685210 0.03119801
v -0.02499999 -0.00685210 0.03119801
v 0.02734376 -0.00880525 0.02572926
v -0.02734374 -0.00880525 0.02572926
v 0.01757811 -0.01271150 0.02768241
v -0.01757814 -0.01271150 0.02768241
v 0.01757811 -0.00997710 0.03276051
v -0.01757814 -0.00997710 0.03276051
v 0.01757811 -0.00489900 0.03588551
v -0.01757814 -0.00489900 0.03588551
v 0.01367186 -0.00333650 0.03666676
v -0.01367189 -0.00333650 0.03666676
v 0.01015626 -0.00685210 0.03393241
v -0.01015624 -0.00685210 0.03393241
v 0.00781251 -0.00880525 0.02924491
v -0.00781249 -0.00880525 0.02924491
v 0.00390626 0.00056975 0.02963551
v -0.00390624 0.00056975 0.02963551
v 0.00703126 0.00056975 0.03393241
v -0.00703124 0.00056975 0.03393241
v 0.01210936 0.00056975 0.03666676
v -0.01210939 0.00056975 0.03666676
v 0.01367186 0.00486665 0.03666676
v -0.01367189 0.00486665 0.03666676
v 0.01015626 0.00799165 0.03393241
v -0.01015624 0.00799165 0.03393241
v 0.00781251 0.01033540 0.02924491
v -0.00781249 0.01033540 0.02924491
v 0.01757811 0.01424165 0.02768241
v -0.01757814 0.01424165 0.02768241
v 0.01757811 0.01111665 0.03276051
v -0.01757814 0.01111665 0.03276051
v 0.01757811 0.00642915 0.03588551
v -0.01757814 0.00642915 0.03588551
v 0.02187501 0.00486665 0.03510426
v -0.02187499 0.00486665 0.03510426
v 0.02500001 0.00799165 0.03119801
v -0.02499999 0.00799165 0.03119801
v 0.02734376 0.01033540 0.02572926
v -0.02734374 0.01033540 0.02572926
v 0.03125001 0.00056975 0.02494801
v -0.03124999 0.00056975 0.02494801
v 0.02812501 0.00056975 0.03041676
v -0.02812499 0.00056975 0.03041676
v 0.02343751 0.00056975 0.03471366
v -0.02343749 0.00056975 0.03471366
v 0.02382811 0.00056975 0.03549491
v -0.02382814 0.00056975 0.03549491
v 0.02226561 0.00525725 0.03588551
v -0.02226564 0.00525725 0.03588551
v 0.01757811 0.00721040 0.03705741
v -0.01757814 0.00721040 0.03705741
v 0.01328126 0.00525725 0.03783866
v -0.01328124 0.00525725 0.03783866
v 0.01132811 0.00056975 0.03783866
v -0.01132814 0.00056975 0.03783866
v 0.01328126 -0.00372710 0.03783866
v -0.01328124 -0.00372710 0.03783866
v 0.01757811 0.00056975 0.03822926
v -0.01757814 0.00056975 0.03822926
v 0.01757811 -0.00568025 0.03705741
v -0.01757814 -0.00568025 0.03705741
v 0.02226561 -0.00372710 0.03588551
v -0.02226564 -0.00372710 0.03588551
v 0.00000001 0.00994475 0.03393241
v 0.00000001 0.00603850 0.03783866
v 0.00000001 -0.04552400 0.03354176
v 0.00000001 -0.02755525 0.03588551
v 0.00000001 -0.02091460 0.03666676
v 0.00000001 -0.05021150 0.03276051
v 0.00000001 0.00877290 0.02690116
v 0.00000001 0.01697600 0.02533866
v 0.00000001 0.03338225 -0.03052074
v 0.00000001 0.01658540 -0.04575509
v 0.00000001 -0.00802400 -0.04458324
v 0.00000001 -0.03068025 -0.02075509
v 0.01015626 -0.02091460 0.02494801
v -0.01015624 -0.02091460 0.02494801
v 0.01562501 -0.03341460 0.02533866
v -0.01562499 -0.03341460 0.02533866
v 0.01757811 -0.04630525 0.02533866
v -0.01757814 -0.04630525 0.02533866
v 0.01835936 -0.05607085 0.02338551
v -0.01835939 -0.05607085 0.02338551
v 0.01640626 -0.05880525 0.02299491
v -0.01640624 -0.05880525 0.02299491
v 0.00898436 -0.05997710 0.02455741
v -0.00898439 -0.05997710 0.02455741
v 0.00000001 -0.06075835 0.02572926
v 0.02187501 -0.01857085 0.02338551
v -0.02187499 -0.01857085 0.02338551
v 0.03164061 -0.01349275 0.02377616
v -0.03164064 -0.01349275 0.02377616
v 0.04140626 -0.00411775 0.01908866
v -0.04140624 -0.00411775 0.01908866
v 0.04296876 0.00994475 0.02651051
v -0.04296874 0.00994475 0.02651051
v 0.03554686 0.01267915 0.02807301
v -0.03554689 0.01267915 0.02807301
v 0.02460936 0.01853850 0.03119801
v -0.02460939 0.01853850 0.03119801
v 0.01601561 0.02635100 0.03354176
v -0.01601564 0.02635100 0.03354176
v 0.00781251 0.02439790 0.03471366
v -0.00781249 0.02439790 0.03471366
v 0.00312501 0.01306975 0.03432301
v -0.00312499 0.01306975 0.03432301
v 0.00820311 0.00916350 0.03549491
v -0.00820314 0.00916350 0.03549491
v 0.00625001 0.00369475 0.03510426
v -0.00624999 0.00369475 0.03510426
v 0.01875001 -0.01075835 0.03197926
v -0.01874999 -0.01075835 0.03197926
v 0.02460936 -0.00841460 0.03041676
v -0.02460939 -0.00841460 0.03041676
v 0.03125001 -0.00216460 0.02924491
v -0.03124999 -0.00216460 0.02924491
v 0.03203126 0.00330415 0.02924491
v -0.03203124 0.00330415 0.02924491
v 0.03007811 0.00721040 0.03002616
v -0.03007814 0.00721040 0.03002616
v 0.02148436 0.01033540 0.03276051
v -0.02148439 0.01033540 0.03276051
v 0.01250001 0.01189790 0.03471366
v -0.01249999 0.01189790 0.03471366
v 0.00000001 -0.04982085 0.03354176
v 0.00546876 -0.04747710 0.03354176
v -0.00546874 -0.04747710 0.03354176
v 0.00585936 -0.05333650 0.03236991
v -0.00585939 -0.05333650 0.03236991
v 0.00312501 -0.05568025 0.03158866
v -0.00312499 -0.05568025 0.03158866
v 0.00000001 -0.05607085 0.03119801
v 0.00000001 -0.02130525 0.03432301
v 0.00000001 -0.01857085 0.03393241
v 0.00507811 -0.01896150 0.03393241
v -0.00507814 -0.01896150 0.03393241
v 0.00625001 -0.02286775 0.03432301
v -0.00624999 -0.02286775 0.03432301
v 0.00429686 -0.02599275 0.03393241
v -0.00429689 -0.02599275 0.03393241
v 0.01992186 -0.01388335 0.03041676
v -0.01992189 -0.01388335 0.03041676
v 0.03085936 -0.00880525 0.02807301
v -0.03085939 -0.00880525 0.02807301
v 0.03632811 -0.00138335 0.02690116
v -0.03632814 -0.00138335 0.02690116
v 0.03710936 0.00721040 0.02963551
v -0.03710939 0.00721040 0.02963551
v 0.03437501 0.00916350 0.03315116
v -0.03437499 0.00916350 0.03315116
v 0.02187501 0.01580415 0.03666676
v -0.02187499 0.01580415 0.03666676
v 0.01562501 0.02049165 0.03861991
v -0.01562499 0.02049165 0.03861991
v 0.01015626 0.01931975 0.03940116
v -0.01015624 0.01931975 0.03940116
v 0.00507811 0.00994475 0.03901051
v -0.00507814 0.00994475 0.03901051
v 0.00625001 -0.01661775 0.03744801
v -0.00624999 -0.01661775 0.03744801
v 0.01054686 -0.03380525 0.03236991
v -0.01054689 -0.03380525 0.03236991
v 0.01250001 -0.04669585 0.03119801
v -0.01249999 -0.04669585 0.03119801
v 0.01328126 -0.05255525 0.03002616
v -0.01328124 -0.05255525 0.03002616
v 0.01171876 -0.05724275 0.02846366
v -0.01171874 -0.05724275 0.02846366
v 0.00820311 -0.05802400 0.02846366
v -0.00820314 -0.05802400 0.02846366
v 0.00000001 -0.05880525 0.02885426
v 0.00000001 -0.00919585 0.03315116
v 0.00000001 -0.00099275 0.03510426
v 0.01640626 0.01228850 0.03393241
v -0.01640624 0.01228850 0.03393241
v 0.00820311 -0.00450835 0.03432301
v -0.00820314 -0.00450835 0.03432301
v 0.00664061 -0.00099275 0.03471366
v -0.00664064 -0.00099275 0.03471366
v 0.00585936 -0.04591460 0.03354176
v -0.00585939 -0.04591460 0.03354176
v 0.00390626 -0.03380525 0.03432301
v -0.00390624 -0.03380525 0.03432301
v 0.00000001 -0.03380525 0.03432301
v 0.00000001 -0.02794585 0.03393241
v 0.00468751 -0.02521150 0.03588551
v -0.00468749 -0.02521150 0.03588551
v 0.00664061 -0.02286775 0.03666676
v -0.00664064 -0.02286775 0.03666676
v 0.00546876 -0.01818025 0.03588551
v -0.00546874 -0.01818025 0.03588551
v 0.00195311 -0.01778960 0.03588551
v -0.00195314 -0.01778960 0.03588551
v 0.00000001 -0.02169585 0.03822926
v 0.00234376 -0.01896150 0.03744801
v -0.00234374 -0.01896150 0.03744801
v 0.00468751 -0.01935210 0.03744801
v -0.00468749 -0.01935210 0.03744801
v 0.00546876 -0.02286775 0.03822926
v -0.00546874 -0.02286775 0.03822926
v 0.00390626 -0.02403960 0.03705741
v -0.00390624 -0.02403960 0.03705741
v 0.00000001 -0.02599275 0.03705741
v 0.01289061 -0.02716460 0.02455741
v -0.01289064 -0.02716460 0.02455741
v 0.00820311 -0.02364900 0.03236991
v -0.00820314 -0.02364900 0.03236991
v 0.00898436 -0.02716460 0.03236991
v -0.00898439 -0.02716460 0.03236991
v 0.01171876 -0.02403960 0.02455741
v -0.01171874 -0.02403960 0.02455741
v 0.00000001 -0.05528960 0.03119801
v 0.00234376 -0.05489900 0.03119801
v -0.00234374 -0.05489900 0.03119801
v 0.00468751 -0.05255525 0.03236991
v -0.00468749 -0.05255525 0.03236991
v 0.00468751 -0.04864900 0.03315116
v -0.00468749 -0.04864900 0.03315116
v 0.00000001 -0.05060210 0.02963551
v 0.00468751 -0.04903960 0.03002616
v -0.00468749 -0.04903960 0.03002616
v 0.00468751 -0.05216460 0.02885426
v -0.00468749 -0.05216460 0.02885426
v 0.00234376 -0.05411775 0.02846366
v -0.00234374 -0.05411775 0.02846366
v 0.00000001 -0.05450835 0.02846366
v 0.00859376 -0.00060210 0.03588551
v -0.00859374 -0.00060210 0.03588551
v 0.00937501 -0.00372710 0.03549491
v -0.00937499 -0.00372710 0.03549491
v 0.01679686 0.00994475 0.03471366
v -0.01679689 0.00994475 0.03471366
v 0.01367186 0.00955415 0.03549491
v -0.01367189 0.00955415 0.03549491
v 0.02109376 0.00838225 0.03549491
v -0.02109374 0.00838225 0.03549491
v 0.02812501 0.00603850 0.03158866
v -0.02812499 0.00603850 0.03158866
v 0.02929686 0.00291350 0.03119801
v -0.02929689 0.00291350 0.03119801
v 0.02890626 -0.00177400 0.03080741
v -0.02890624 -0.00177400 0.03080741
v 0.02382811 -0.00646150 0.03276051
v -0.02382814 -0.00646150 0.03276051
v 0.01875001 -0.00841460 0.03393241
v -0.01874999 -0.00841460 0.03393241
v 0.01132811 -0.00607085 0.03588551
v -0.01132814 -0.00607085 0.03588551
v 0.00898436 0.00330415 0.03588551
v -0.00898439 0.00330415 0.03588551
v 0.01054686 0.00721040 0.03588551
v -0.01054689 0.00721040 0.03588551
v 0.01171876 0.00642915 0.03471366
v -0.01171874 0.00642915 0.03471366
v 0.00976561 0.00330415 0.03471366
v -0.00976564 0.00330415 0.03471366
v 0.01210936 -0.00528960 0.03471366
v -0.01210939 -0.00528960 0.03471366
v 0.01875001 -0.00724275 0.03315116
v -0.01874999 -0.00724275 0.03315116
v 0.02304686 -0.00568025 0.03197926
v -0.02304689 -0.00568025 0.03197926
v 0.02734376 -0.00099275 0.03041676
v -0.02734374 -0.00099275 0.03041676
v 0.02773436 0.00252290 0.03041676
v -0.02773439 0.00252290 0.03041676
v 0.02656251 0.00525725 0.03080741
v -0.02656249 0.00525725 0.03080741
v 0.02070311 0.00799165 0.03432301
v -0.02070314 0.00799165 0.03432301
v 0.01406251 0.00838225 0.03510426
v -0.01406249 0.00838225 0.03510426
v 0.01679686 0.00877290 0.03432301
v -0.01679689 0.00877290 0.03432301
v 0.01015626 -0.00294585 0.03432301
v -0.01015624 -0.00294585 0.03432301
v 0.00976561 -0.00021150 0.03432301
v -0.00976564 -0.00021150 0.03432301
v 0.00546876 0.01150725 0.02729176
v -0.00546874 0.01150725 0.02729176
v 0.00976561 0.02166350 0.02768241
v -0.00976564 0.02166350 0.02768241
v 0.01679686 0.02283540 0.02651051
v -0.01679689 0.02283540 0.02651051
v 0.02421876 0.01619475 0.02455741
v -0.02421874 0.01619475 0.02455741
v 0.03398436 0.01111665 0.02143241
v -0.03398439 0.01111665 0.02143241
v 0.03984376 0.00877290 0.01986991
v -0.03984374 0.00877290 0.01986991
v 0.03867186 -0.00333650 0.01557301
v -0.03867189 -0.00333650 0.01557301
v 0.03007811 -0.01153960 0.01752616
v -0.03007814 -0.01153960 0.01752616
v 0.02187501 -0.01622710 0.02026051
v -0.02187499 -0.01622710 0.02026051
v 0.00000001 0.03338225 0.01127616
v 0.00000001 0.03767915 -0.00708324
v 0.00000001 -0.02130525 -0.03677074
v 0.00000001 -0.03458650 0.00619801
v 0.00000001 -0.06036775 0.01986991
v 0.00000001 -0.05177400 0.01401051
v 0.00000001 -0.04005525 0.01283866
v 0.00000001 -0.03575835 0.01088551
v 0.04257811 0.00017915 -0.00044259
v -0.04257814 0.00017915 -0.00044259
v 0.04296876 0.00447600 -0.00552074
v -0.04296874 0.00447600 -0.00552074
v 0.03867186 0.00174165 -0.02505199
v -0.03867189 0.00174165 -0.02505199
v 0.02304686 0.01033540 -0.03833324
v -0.02304689 0.01033540 -0.03833324
v 0.03671876 -0.01388335 0.00033866
v -0.03671874 -0.01388335 0.00033866
v 0.02968751 -0.01778960 -0.01138009
v -0.02968749 -0.01778960 -0.01138009
v 0.03203126 -0.01193025 -0.02466134
v -0.03203124 -0.01193025 -0.02466134
v 0.01679686 -0.00880525 -0.03638009
v -0.01679689 -0.00880525 -0.03638009
v 0.01171876 -0.02911775 0.01713551
v -0.01171874 -0.02911775 0.01713551
v 0.00898436 -0.03224275 0.00971366
v -0.00898439 -0.03224275 0.00971366
v 0.01445311 -0.04708650 0.01596366
v -0.01445314 -0.04708650 0.01596366
v 0.01250001 -0.03653960 0.01635426
v -0.01249999 -0.03653960 0.01635426
v 0.01640626 -0.05724275 0.01674491
v -0.01640624 -0.05724275 0.01674491
v 0.00703126 -0.04943025 0.01518241
v -0.00703124 -0.04943025 0.01518241
v 0.00625001 -0.03849275 0.01479176
v -0.00624999 -0.03849275 0.01479176
v 0.00820311 -0.05880525 0.01869801
v -0.00820314 -0.05880525 0.01869801
v 0.01093751 -0.02560210 0.01830741
v -0.01093749 -0.02560210 0.01830741
v 0.01054686 -0.02286775 0.02026051
v -0.01054689 -0.02286775 0.02026051
v 0.01015626 -0.02013335 0.02182301
v -0.01015624 -0.02013335 0.02182301
v 0.01054686 -0.03107085 0.00502616
v -0.01054689 -0.03107085 0.00502616
v 0.01484376 -0.02716460 -0.01645824
v -0.01484374 -0.02716460 -0.01645824
v 0.01718751 -0.01896150 -0.03013009
v -0.01718749 -0.01896150 -0.03013009
v 0.02265626 0.03181975 -0.02231759
v -0.02265624 0.03181975 -0.02231759
v 0.02265626 0.03494475 -0.00669259
v -0.02265624 0.03494475 -0.00669259
v 0.02265626 0.03103850 0.00854176
v -0.02265624 0.03103850 0.00854176
v 0.02304686 0.01463225 0.01830741
v -0.02304689 0.01463225 0.01830741
v 0.03632811 0.00877290 0.01361991
v -0.03632814 0.00877290 0.01361991
v 0.03164061 0.01111665 0.01088551
v -0.03164064 0.01111665 0.01088551
v 0.03203126 0.02361665 -0.00044259
v -0.03203124 0.02361665 -0.00044259
v 0.03984376 0.01658540 0.00307301
v -0.03984374 0.01658540 0.00307301
v 0.03984376 0.01931975 -0.00903634
v -0.03984374 0.01931975 -0.00903634
v 0.03203126 0.02596040 -0.01294259
v -0.03203124 0.02596040 -0.01294259
v 0.03203126 0.02244475 -0.02544259
v -0.03203124 0.02244475 -0.02544259
v 0.03984376 0.01541350 -0.02114574
v -0.03984374 0.01541350 -0.02114574
v 0.03085936 0.00486665 -0.03247384
v -0.03085939 0.00486665 -0.03247384
v 0.02421876 -0.01036775 -0.03052074
v -0.02421874 -0.01036775 -0.03052074
v 0.04101561 0.00486665 -0.01333324
v -0.04101564 0.00486665 -0.01333324
v 0.02031251 -0.02013335 0.00424491
v -0.02031249 -0.02013335 0.00424491
v 0.02148436 -0.02130525 -0.01372384
v -0.02148439 -0.02130525 -0.01372384
v 0.04453126 0.00877290 -0.01489574
v -0.04453124 0.00877290 -0.01489574
v 0.03867186 -0.01857085 -0.00942699
v -0.03867189 -0.01857085 -0.00942699
v 0.05195311 -0.01661775 -0.01958324
v -0.05195314 -0.01661775 -0.01958324
v 0.06406251 -0.00880525 -0.02466134
v -0.06406249 -0.00880525 -0.02466134
v 0.06757811 0.00447600 -0.02427074
v -0.06757814 0.00447600 -0.02427074
v 0.06171876 0.01385100 -0.02427074
v -0.06171874 0.01385100 -0.02427074
v 0.05117186 0.01228850 -0.01880199
v -0.05117189 0.01228850 -0.01880199
v 0.05078126 0.00916350 -0.01763009
v -0.05078124 0.00916350 -0.01763009
v 0.05937501 0.01033540 -0.02270824
v -0.05937499 0.01033540 -0.02270824
v 0.06328126 0.00291350 -0.02348949
v -0.06328124 0.00291350 -0.02348949
v 0.06054686 -0.00763335 -0.02348949
v -0.06054689 -0.00763335 -0.02348949
v 0.05156251 -0.01349275 -0.01841134
v -0.05156249 -0.01349275 -0.01841134
v 0.04140626 -0.01505525 -0.00981759
v -0.04140624 -0.01505525 -0.00981759
v 0.04609376 0.00642915 -0.01411449
v -0.04609374 0.00642915 -0.01411449
v 0.04726561 0.00369475 -0.01763009
v -0.04726564 0.00369475 -0.01763009
v 0.04414061 -0.01271150 -0.01372384
v -0.04414064 -0.01271150 -0.01372384
v 0.05195311 -0.01153960 -0.02153634
v -0.05195314 -0.01153960 -0.02153634
v 0.05937501 -0.00685210 -0.02544259
v -0.05937499 -0.00685210 -0.02544259
v 0.06171876 0.00096040 -0.02544259
v -0.06171874 0.00096040 -0.02544259
v 0.05859376 0.00642915 -0.02505199
v -0.05859374 0.00642915 -0.02505199
v 0.05117186 0.00564790 -0.02114574
v -0.05117189 0.00564790 -0.02114574
v 0.04218751 0.00291350 -0.01372384
v -0.04218749 0.00291350 -0.01372384
v 0.04179686 -0.00294585 -0.01684884
v -0.04179689 -0.00294585 -0.01684884
v 0.03789061 -0.00685210 -0.01684884
v -0.03789064 -0.00685210 -0.01684884
v 0.04101561 -0.00724275 -0.01684884
v -0.04101564 -0.00724275 -0.01684884
v 0.04218751 -0.01075835 -0.01684884
v -0.04218749 -0.01075835 -0.01684884
v 0.04062501 -0.01232085 -0.01684884
v -0.04062499 -0.01232085 -0.01684884
v 0.03632811 -0.01153960 -0.00669259
v -0.03632814 -0.01153960 -0.00669259
v 0.03593751 -0.01271150 -0.01177074
v -0.03593749 -0.01271150 -0.01177074
v 0.03593751 -0.00958650 -0.01255199
v -0.03593749 -0.00958650 -0.01255199
v 0.03984376 -0.00138335 -0.01372384
v -0.03984374 -0.00138335 -0.01372384
v 0.04453126 0.00056975 -0.01645824
v -0.04453124 0.00056975 -0.01645824
v 0.04453126 0.00017915 -0.01919259
v -0.04453124 0.00017915 -0.01919259
v 0.04062501 -0.01232085 -0.01919259
v -0.04062499 -0.01232085 -0.01919259
v 0.04257811 -0.01075835 -0.01919259
v -0.04257814 -0.01075835 -0.01919259
v 0.04140626 -0.00763335 -0.01919259
v -0.04140624 -0.00763335 -0.01919259
v 0.03828126 -0.00685210 -0.01919259
v -0.03828124 -0.00685210 -0.01919259
v 0.04218751 -0.00294585 -0.01919259
v -0.04218749 -0.00294585 -0.01919259
v 0.05195311 0.00486665 -0.02388009
v -0.05195314 0.00486665 -0.02388009
v 0.05937501 0.00564790 -0.02739574
v -0.05937499 0.00564790 -0.02739574
v 0.06289061 0.00056975 -0.02778634
v -0.06289064 0.00056975 -0.02778634
v 0.06054686 -0.00724275 -0.02739574
v -0.06054689 -0.00724275 -0.02739574
v 0.05234376 -0.01153960 -0.02427074
v -0.05234374 -0.01153960 -0.02427074
v 0.04414061 -0.01232085 -0.01645824
v -0.04414064 -0.01232085 -0.01645824
v 0.04765626 0.00291350 -0.02036449
v -0.04765624 0.00291350 -0.02036449
v 0.04453126 -0.00607085 -0.01958324
v -0.04453124 -0.00607085 -0.01958324
v 0.04687501 -0.00841460 -0.01997384
v -0.04687499 -0.00841460 -0.01997384
v 0.05000001 -0.00528960 -0.02153634
v -0.04999999 -0.00528960 -0.02153634
v 0.04804686 -0.00294585 -0.02075509
v -0.04804689 -0.00294585 -0.02075509
v 0.05078126 0.00017915 -0.02192699
v -0.05078124 0.00017915 -0.02192699
v 0.05273436 -0.00216460 -0.02231759
v -0.05273439 -0.00216460 -0.02231759
v 0.05546876 -0.00099275 -0.02270824
v -0.05546874 -0.00099275 -0.02270824
v 0.05429686 0.00213225 -0.02270824
v -0.05429689 0.00213225 -0.02270824
v 0.05117186 0.01033540 -0.02739574
v -0.05117189 0.01033540 -0.02739574
v 0.06250001 0.01189790 -0.03052074
v -0.06249999 0.01189790 -0.03052074
v 0.06835936 0.00330415 -0.02817699
v -0.06835939 0.00330415 -0.02817699
v 0.06562501 -0.00880525 -0.02973949
v -0.06562499 -0.00880525 -0.02973949
v 0.05195311 -0.01583650 -0.02778634
v -0.05195314 -0.01583650 -0.02778634
v 0.03945311 -0.01778960 -0.01958324
v -0.03945314 -0.01778960 -0.01958324
v 0.04296876 0.00760100 -0.02231759
v -0.04296874 0.00760100 -0.02231759
f 1 3 45
f 45 47 1
f 2 48 46
f 46 4 2
f 3 5 43
f 43 45 3
f 4 46 44
f 44 6 4
f 9 7 5
f 5 3 9
f 10 4 6
f 6 8 10
f 11 9 3
f 3 1 11
f 12 2 4
f 4 10 12
f 13 15 9
f 9 11 13
f 14 12 10
f 10 16 14
f 15 17 7
f 7 9 15
f 16 10 8
f 8 18 16
f 21 19 17
f 17 15 21
f 22 16 18
f 18 20 22
f 23 21 15
f 15 13 23
f 24 14 16
f 16 22 24
f 25 27 21
f 21 23 25
f 26 24 22
f 22 28 26
f 27 29 19
f 19 21 27
f 28 22 20
f 20 30 28
f 33 31 29
f 29 27 33
f 34 28 30
f 30 32 34
f 35 33 27
f 27 25 35
f 36 26 28
f 28 34 36
f 37 39 33
f 33 35 37
f 38 36 34
f 34 40 38
f 39 41 31
f 31 33 39
f 40 34 32
f 32 42 40
f 45 43 41
f 41 39 45
f 46 40 42
f 42 44 46
f 47 45 39
f 39 37 47
f 48 38 40
f 40 46 48
f 37 51 49
f 49 47 37
f 38 48 50
f 50 52 38
f 35 53 51
f 51 37 35
f 36 38 52
f 52 54 36
f 25 55 53
f 53 35 25
f 26 36 54
f 54 56 26
f 23 57 55
f 55 25 23
f 24 26 56
f 56 58 24
f 13 59 57
f 57 23 13
f 14 24 58
f 58 60 14
f 11 63 59
f 59 13 11
f 12 14 60
f 60 64 12
f 1 65 63
f 63 11 1
f 2 12 64
f 64 66 2
f 47 49 65
f 65 1 47
f 48 2 66
f 66 50 48
f 65 49 61
f 66 62 50
f 65 61 63
f 66 64 62
f 59 63 61
f 60 62 64
f 57 59 61
f 58 62 60
f 55 57 61
f 56 62 58
f 53 55 61
f 54 62 56
f 51 53 61
f 52 62 54
f 49 51 61
f 50 62 52
f 172 174 91
f 91 89 172
f 173 90 91
f 91 174 173
f 170 172 89
f 89 87 170
f 171 88 90
f 90 173 171
f 168 170 87
f 87 85 168
f 169 86 88
f 88 171 169
f 166 168 85
f 85 83 166
f 167 84 86
f 86 169 167
f 164 166 83
f 83 81 164
f 165 82 84
f 84 167 165
f 92 144 162
f 162 79 92
f 93 80 163
f 163 145 93
f 94 146 144
f 144 92 94
f 95 93 145
f 145 147 95
f 96 148 146
f 146 94 96
f 97 95 147
f 147 149 97
f 98 150 148
f 148 96 98
f 99 97 149
f 149 151 99
f 100 152 150
f 150 98 100
f 101 99 151
f 151 153 101
f 102 154 152
f 152 100 102
f 103 101 153
f 153 155 103
f 104 156 154
f 154 102 104
f 105 103 155
f 155 157 105
f 106 158 156
f 156 104 106
f 107 105 157
f 157 159 107
f 108 160 158
f 158 106 108
f 109 107 159
f 159 161 109
f 67 68 160
f 160 108 67
f 67 109 161
f 161 68 67
f 126 158 160
f 160 110 126
f 127 111 161
f 161 159 127
f 177 156 158
f 158 126 177
f 178 127 159
f 159 157 178
f 154 156 177
f 177 124 154
f 155 125 178
f 178 157 155
f 152 154 124
f 124 122 152
f 153 123 125
f 125 155 153
f 150 152 122
f 122 120 150
f 151 121 123
f 123 153 151
f 148 150 120
f 120 118 148
f 149 119 121
f 121 151 149
f 146 148 118
f 118 116 146
f 147 117 119
f 119 149 147
f 144 146 116
f 116 114 144
f 145 115 117
f 117 147 145
f 162 144 114
f 114 15 162
f 163 16 115
f 115 145 163
f 179 175 162
f 162 15 179
f 180 16 163
f 163 175 180
f 160 68 112
f 112 110 160
f 161 111 113
f 113 68 161
f 68 176 181
f 181 112 68
f 68 113 182
f 182 176 68
f 179 181 176
f 176 175 179
f 180 175 176
f 176 182 180
f 135 174 172
f 172 133 135
f 135 134 173
f 173 174 135
f 133 172 170
f 170 131 133
f 134 132 171
f 171 173 134
f 131 170 168
f 168 129 131
f 132 130 169
f 169 171 132
f 185 183 166
f 166 164 185
f 186 165 167
f 167 184 186
f 168 166 183
f 183 129 168
f 169 130 184
f 184 167 169
f 188 187 185
f 185 142 188
f 188 143 186
f 186 187 188
f 185 187 69
f 69 183 185
f 186 184 69
f 69 187 186
f 129 183 69
f 69 128 129
f 130 128 69
f 69 184 130
f 191 189 142
f 142 140 191
f 192 141 143
f 143 190 192
f 193 191 140
f 140 138 193
f 194 139 141
f 141 192 194
f 195 193 138
f 138 137 195
f 196 137 139
f 139 194 196
f 71 195 137
f 137 136 71
f 71 136 137
f 137 196 71
f 142 189 70
f 70 188 142
f 143 188 70
f 70 190 143
f 189 204 206
f 206 70 189
f 190 70 206
f 206 205 190
f 197 198 195
f 195 71 197
f 197 71 196
f 196 199 197
f 198 200 193
f 193 195 198
f 199 196 194
f 194 201 199
f 200 202 191
f 191 193 200
f 201 194 192
f 192 203 201
f 202 204 189
f 189 191 202
f 203 192 190
f 190 205 203
f 202 200 198
f 198 197 202
f 203 197 199
f 199 201 203
f 206 204 202
f 202 197 206
f 206 197 203
f 203 205 206
f 138 162 175
f 175 137 138
f 139 137 175
f 175 163 139
f 140 209 162
f 162 138 140
f 141 139 163
f 163 210 141
f 142 211 209
f 209 140 142
f 143 141 210
f 210 212 143
f 185 164 211
f 211 142 185
f 186 143 212
f 212 165 186
f 207 211 164
f 164 81 207
f 208 82 165
f 165 212 208
f 213 209 211
f 211 207 213
f 214 208 212
f 212 210 214
f 162 209 213
f 213 79 162
f 163 80 214
f 214 210 163
f 128 72 220
f 220 129 128
f 128 130 221
f 221 72 128
f 129 220 218
f 218 131 129
f 130 132 219
f 219 221 130
f 131 218 216
f 216 133 131
f 132 134 217
f 217 219 132
f 133 216 215
f 215 135 133
f 134 135 215
f 215 217 134
f 216 227 229
f 229 215 216
f 217 215 229
f 229 228 217
f 218 225 227
f 227 216 218
f 219 217 228
f 228 226 219
f 220 223 225
f 225 218 220
f 221 219 226
f 226 224 221
f 72 222 223
f 223 220 72
f 72 221 224
f 224 222 72
f 229 227 223
f 223 222 229
f 229 222 224
f 224 228 229
f 227 225 223
f 228 224 226
f 179 232 230
f 230 181 179
f 180 182 231
f 231 233 180
f 181 230 252
f 252 112 181
f 182 113 253
f 253 231 182
f 112 252 254
f 254 110 112
f 113 111 255
f 255 253 113
f 15 250 232
f 232 179 15
f 16 180 233
f 233 251 16
f 114 248 250
f 250 15 114
f 115 16 251
f 251 249 115
f 116 246 248
f 248 114 116
f 117 115 249
f 249 247 117
f 118 244 246
f 246 116 118
f 119 117 247
f 247 245 119
f 120 242 244
f 244 118 120
f 121 119 245
f 245 243 121
f 122 240 242
f 242 120 122
f 123 121 243
f 243 241 123
f 124 238 240
f 240 122 124
f 125 123 241
f 241 239 125
f 177 234 238
f 238 124 177
f 178 125 239
f 239 235 178
f 126 236 234
f 234 177 126
f 127 178 235
f 235 237 127
f 110 254 236
f 236 126 110
f 111 127 237
f 237 255 111
f 254 256 274
f 274 236 254
f 255 237 275
f 275 257 255
f 236 274 276
f 276 234 236
f 237 235 277
f 277 275 237
f 234 276 272
f 272 238 234
f 235 239 273
f 273 277 235
f 238 272 270
f 270 240 238
f 239 241 271
f 271 273 239
f 240 270 268
f 268 242 240
f 241 243 269
f 269 271 241
f 242 268 266
f 266 244 242
f 243 245 267
f 267 269 243
f 244 266 264
f 264 246 244
f 245 247 265
f 265 267 245
f 246 264 262
f 262 248 246
f 247 249 263
f 263 265 247
f 248 262 260
f 260 250 248
f 249 251 261
f 261 263 249
f 250 260 278
f 278 232 250
f 251 233 279
f 279 261 251
f 252 258 256
f 256 254 252
f 253 255 257
f 257 259 253
f 230 280 258
f 258 252 230
f 231 253 259
f 259 281 231
f 232 278 280
f 280 230 232
f 233 231 281
f 281 279 233
f 108 282 73
f 73 67 108
f 109 67 73
f 73 283 109
f 106 284 282
f 282 108 106
f 107 109 283
f 283 285 107
f 104 286 284
f 284 106 104
f 105 107 285
f 285 287 105
f 102 288 286
f 286 104 102
f 103 105 287
f 287 289 103
f 100 290 288
f 288 102 100
f 101 103 289
f 289 291 101
f 98 292 290
f 290 100 98
f 99 101 291
f 291 293 99
f 96 294 292
f 292 98 96
f 97 99 293
f 293 295 97
f 94 296 294
f 294 96 94
f 95 97 295
f 295 297 95
f 92 298 296
f 296 94 92
f 93 95 297
f 297 299 93
f 307 326 336
f 336 306 307
f 307 306 337
f 337 327 307
f 306 336 334
f 334 305 306
f 306 305 335
f 335 337 306
f 305 334 338
f 338 304 305
f 305 304 339
f 339 335 305
f 91 304 338
f 338 89 91
f 91 90 339
f 339 304 91
f 89 338 332
f 332 87 89
f 90 88 333
f 333 339 90
f 87 332 328
f 328 85 87
f 88 86 329
f 329 333 88
f 85 328 330
f 330 83 85
f 86 84 331
f 331 329 86
f 334 336 330
f 330 328 334
f 335 329 331
f 331 337 335
f 332 338 334
f 334 328 332
f 333 329 335
f 335 339 333
f 330 336 326
f 326 324 330
f 331 325 327
f 327 337 331
f 83 330 324
f 324 81 83
f 84 82 325
f 325 331 84
f 340 342 213
f 213 207 340
f 341 208 214
f 214 343 341
f 324 340 207
f 207 81 324
f 325 82 208
f 208 341 325
f 213 342 344
f 344 79 213
f 214 80 345
f 345 343 214
f 344 298 92
f 92 79 344
f 345 80 93
f 93 299 345
f 322 350 302
f 302 77 322
f 323 77 302
f 302 351 323
f 350 348 78
f 78 302 350
f 351 302 78
f 78 349 351
f 348 346 303
f 303 78 348
f 349 78 303
f 303 347 349
f 346 326 307
f 307 303 346
f 347 303 307
f 307 327 347
f 326 346 340
f 340 324 326
f 327 325 341
f 341 347 327
f 296 316 308
f 308 294 296
f 297 295 309
f 309 317 297
f 314 322 77
f 77 76 314
f 315 76 77
f 77 323 315
f 356 354 301
f 301 300 356
f 357 300 301
f 301 355 357
f 354 352 75
f 75 301 354
f 355 301 75
f 75 353 355
f 352 314 76
f 76 75 352
f 353 75 76
f 76 315 353
f 292 360 362
f 362 290 292
f 293 291 363
f 363 361 293
f 360 366 364
f 364 362 360
f 361 363 365
f 365 367 361
f 366 368 370
f 370 364 366
f 367 365 371
f 371 369 367
f 368 374 372
f 372 370 368
f 369 371 373
f 373 375 369
f 376 372 374
f 374 312 376
f 377 313 375
f 375 373 377
f 352 372 376
f 376 314 352
f 353 315 377
f 377 373 353
f 354 370 372
f 372 352 354
f 355 353 373
f 373 371 355
f 356 364 370
f 370 354 356
f 357 355 371
f 371 365 357
f 358 362 364
f 364 356 358
f 359 357 365
f 365 363 359
f 290 362 358
f 358 288 290
f 291 289 359
f 359 363 291
f 358 356 300
f 300 74 358
f 359 74 300
f 300 357 359
f 284 286 288
f 288 282 284
f 285 283 289
f 289 287 285
f 288 358 74
f 74 282 288
f 289 283 74
f 74 359 289
f 282 74 73
f 283 73 74
f 294 308 360
f 360 292 294
f 295 293 361
f 361 309 295
f 310 366 360
f 360 308 310
f 311 309 361
f 361 367 311
f 380 368 366
f 366 310 380
f 381 311 367
f 367 369 381
f 374 368 380
f 380 312 374
f 375 313 381
f 381 369 375
f 348 384 382
f 382 346 348
f 349 347 383
f 383 385 349
f 382 384 318
f 318 316 382
f 383 317 319
f 319 385 383
f 298 382 316
f 316 296 298
f 299 297 317
f 317 383 299
f 342 340 382
f 382 298 342
f 343 299 383
f 383 341 343
f 346 382 340
f 347 341 383
f 344 342 298
f 345 299 343
f 320 378 376
f 376 312 320
f 321 313 377
f 377 379 321
f 376 378 322
f 322 314 376
f 377 315 323
f 323 379 377
f 384 378 320
f 320 318 384
f 385 319 321
f 321 379 385
f 350 378 384
f 384 348 350
f 351 349 385
f 385 379 351
f 378 350 322
f 379 323 351
f 386 412 400
f 400 398 386
f 387 399 401
f 401 413 387
f 400 402 396
f 396 398 400
f 401 399 397
f 397 403 401
f 402 404 394
f 394 396 402
f 403 397 395
f 395 405 403
f 404 406 392
f 392 394 404
f 405 395 393
f 393 407 405
f 406 408 390
f 390 392 406
f 407 393 391
f 391 409 407
f 408 410 388
f 388 390 408
f 409 391 389
f 389 411 409
f 418 416 410
f 410 408 418
f 419 409 411
f 411 417 419
f 420 418 408
f 408 406 420
f 421 407 409
f 409 419 421
f 422 420 406
f 406 404 422
f 423 405 407
f 407 421 423
f 424 422 404
f 404 402 424
f 425 403 405
f 405 423 425
f 426 424 402
f 402 400 426
f 427 401 403
f 403 425 427
f 412 414 426
f 426 400 412
f 413 401 427
f 427 415 413
f 318 442 440
f 440 316 318
f 319 317 441
f 441 443 319
f 388 410 442
f 442 318 388
f 389 319 443
f 443 411 389
f 316 440 310
f 310 308 316
f 317 309 311
f 311 441 317
f 428 412 386
f 386 380 428
f 429 381 387
f 387 413 429
f 416 438 442
f 442 410 416
f 417 411 443
f 443 439 417
f 444 442 438
f 438 436 444
f 445 437 439
f 439 443 445
f 444 436 434
f 434 432 444
f 445 433 435
f 435 437 445
f 446 444 432
f 432 430 446
f 447 431 433
f 433 445 447
f 446 430 448
f 448 428 446
f 447 429 449
f 449 431 447
f 428 448 414
f 414 412 428
f 429 413 415
f 415 449 429
f 446 428 380
f 380 310 446
f 447 311 381
f 381 429 447
f 440 444 446
f 446 310 440
f 441 311 447
f 447 445 441
f 442 444 440
f 443 441 445
f 448 450 474
f 474 414 448
f 449 415 475
f 475 451 449
f 430 460 450
f 450 448 430
f 431 449 451
f 451 461 431
f 432 458 460
f 460 430 432
f 433 431 461
f 461 459 433
f 434 456 458
f 458 432 434
f 435 433 459
f 459 457 435
f 436 454 456
f 456 434 436
f 437 435 457
f 457 455 437
f 438 452 454
f 454 436 438
f 439 437 455
f 455 453 439
f 416 472 452
f 452 438 416
f 417 439 453
f 453 473 417
f 414 474 462
f 462 426 414
f 415 427 463
f 463 475 415
f 426 462 464
f 464 424 426
f 427 425 465
f 465 463 427
f 424 464 466
f 466 422 424
f 425 423 467
f 467 465 425
f 422 466 468
f 468 420 422
f 423 421 469
f 469 467 423
f 420 468 470
f 470 418 420
f 421 419 471
f 471 469 421
f 418 470 472
f 472 416 418
f 419 417 473
f 473 471 419
f 454 478 476
f 476 456 454
f 455 457 477
f 477 479 455
f 478 480 482
f 482 476 478
f 479 477 483
f 483 481 479
f 480 486 484
f 484 482 480
f 481 483 485
f 485 487 481
f 486 488 490
f 490 484 486
f 487 485 491
f 491 489 487
f 474 484 490
f 490 462 474
f 475 463 491
f 491 485 475
f 482 484 474
f 474 450 482
f 483 451 475
f 475 485 483
f 460 476 482
f 482 450 460
f 461 451 483
f 483 477 461
f 476 460 458
f 458 456 476
f 477 457 459
f 459 461 477
f 472 478 454
f 454 452 472
f 473 453 455
f 455 479 473
f 480 478 472
f 472 470 480
f 481 471 473
f 473 479 481
f 486 480 470
f 470 468 486
f 487 469 471
f 471 481 487
f 488 486 468
f 468 466 488
f 489 467 469
f 469 487 489
f 490 488 466
f 466 464 490
f 491 465 467
f 467 489 491
f 490 464 462
f 491 463 465
f 388 502 500
f 500 390 388
f 389 391 501
f 501 503 389
f 390 500 498
f 498 392 390
f 391 393 499
f 499 501 391
f 392 498 496
f 496 394 392
f 393 395 497
f 497 499 393
f 394 496 494
f 494 396 394
f 395 397 495
f 495 497 395
f 396 494 492
f 492 398 396
f 397 399 493
f 493 495 397
f 398 492 504
f 504 386 398
f 399 387 505
f 505 493 399
f 500 502 504
f 504 492 500
f 501 493 505
f 505 503 501
f 494 498 500
f 500 492 494
f 495 493 501
f 501 499 495
f 496 498 494
f 497 495 499
f 380 386 504
f 504 312 380
f 381 313 505
f 505 387 381
f 504 502 320
f 320 312 504
f 505 313 321
f 321 503 505
f 320 502 388
f 388 318 320
f 321 319 389
f 389 503 321