o convex_0
v -0.040583 0.018477 0.004786
v -0.065976 0.002364 -0.018166
v -0.065976 0.002364 0.004783
v -0.039605 -0.006428 0.003320
v -0.043025 0.019940 -0.018655
v -0.039605 -0.005450 -0.018655
v -0.057672 -0.007403 -0.017675
v -0.057672 -0.006916 0.004783
v -0.045955 0.019452 0.004297
v -0.056698 0.012126 -0.017675
v -0.039605 0.016033 -0.018655
v -0.064019 0.005781 0.004783
v -0.039605 -0.001543 0.004786
v -0.044489 0.020430 -0.018164
v -0.039605 0.017008 0.004786
v -0.065976 0.003830 -0.018166
v -0.039605 -0.006428 -0.017189
v -0.057672 -0.007403 0.004295
v -0.042537 0.020430 0.004786
v -0.057672 0.011148 0.004783
v -0.047906 -0.004474 -0.018655
v -0.042537 0.020430 -0.012306
v -0.064509 0.000411 0.004783
v -0.039605 -0.005937 0.004297
v -0.065976 0.003830 0.004783
v -0.063531 0.006268 -0.018166
v -0.057672 -0.006916 -0.018166
v -0.056208 -0.007403 0.004295
v -0.045467 0.019452 -0.018655
v -0.044489 0.020430 0.004297
v -0.064509 0.000411 -0.017189
v -0.056698 0.012126 -0.010351
v -0.056208 -0.007403 -0.016698
v -0.040095 0.017008 -0.018164
f 5 22 34 
f 6 5 11 
f 4 6 11 
f 4 11 13 
f 10 9 14 
f 1 13 15 
f 13 11 15 
f 2 3 16 
f 6 4 17 
f 7 6 17 
f 13 1 19 
f 3 13 19 
f 12 19 20 
f 5 6 21 
f 2 16 21 
f 5 14 22 
f 19 1 22 
f 14 19 22 
f 3 2 23 
f 13 3 23 
f 8 13 23 
f 7 18 23 
f 18 8 23 
f 13 8 24 
f 4 13 24 
f 16 3 25 
f 3 19 25 
f 19 12 25 
f 16 25 26 
f 25 12 26 
f 7 2 27 
f 6 7 27 
f 21 6 27 
f 2 21 27 
f 17 4 28 
f 18 7 28 
f 8 18 28 
f 24 8 28 
f 4 24 28 
f 14 5 29 
f 10 14 29 
f 5 21 29 
f 21 16 29 
f 26 10 29 
f 16 26 29 
f 14 9 30 
f 19 14 30 
f 9 20 30 
f 20 19 30 
f 2 7 31 
f 23 2 31 
f 7 23 31 
f 9 10 32 
f 20 9 32 
f 12 20 32 
f 10 26 32 
f 26 12 32 
f 7 17 33 
f 17 28 33 
f 28 7 33 
f 11 5 34 
f 1 15 34 
f 15 11 34 
f 22 1 34 
o convex_1
v -0.045464 0.019452 0.008207
v -0.045952 0.000408 0.020898
v -0.046929 0.000898 0.004786
v -0.035210 0.007734 0.004786
v -0.035210 0.010176 0.027245
v -0.054254 0.013104 0.026757
v -0.054254 0.013104 0.004786
v -0.042049 0.020430 0.026757
v -0.041560 0.019940 0.004786
v -0.044002 0.001386 0.027245
v -0.053765 0.010662 0.026757
v -0.035210 0.007734 0.026757
v -0.035699 0.011150 0.004786
v -0.047417 0.001386 0.026757
v -0.054744 0.012128 0.005766
v -0.044977 0.000898 0.004786
v -0.043514 0.020430 0.026757
v -0.053765 0.012616 0.027245
v -0.044002 0.020430 0.005278
v -0.050346 0.005292 0.005278
v -0.039120 0.016522 0.026757
v -0.053277 0.014080 0.020410
v -0.044491 0.000898 0.020898
v -0.054744 0.013104 0.006743
v -0.044491 0.018476 0.027245
v -0.046440 0.000898 0.027245
v -0.035210 0.010176 0.004786
v -0.048881 0.003340 0.026757
v -0.042049 0.020430 0.004786
f 53 42 63 
f 38 37 41 
f 38 41 43 
f 38 39 46 
f 39 44 46 
f 38 43 47 
f 37 36 48 
f 45 40 49 
f 36 37 50 
f 37 38 50 
f 44 39 52 
f 40 45 52 
f 51 40 52 
f 35 51 53 
f 51 42 53 
f 41 37 54 
f 37 48 54 
f 45 49 54 
f 49 41 54 
f 42 39 55 
f 43 42 55 
f 39 47 55 
f 47 43 55 
f 40 51 56 
f 51 35 56 
f 44 36 57 
f 38 46 57 
f 46 44 57 
f 36 50 57 
f 50 38 57 
f 41 49 58 
f 49 40 58 
f 35 53 58 
f 53 41 58 
f 40 56 58 
f 56 35 58 
f 39 42 59 
f 42 51 59 
f 52 39 59 
f 51 52 59 
f 36 44 60 
f 48 36 60 
f 44 52 60 
f 52 45 60 
f 39 38 61 
f 38 47 61 
f 47 39 61 
f 54 48 62 
f 45 54 62 
f 48 60 62 
f 60 45 62 
f 43 41 63 
f 42 43 63 
f 41 53 63 
o convex_2
v 0.010693 0.013104 0.025783
v -0.001511 -0.003987 0.004300
v -0.001511 0.013592 0.004300
v 0.014600 0.002363 0.004300
v -0.001511 -0.003987 0.026272
v -0.001511 0.013592 0.026272
v 0.007275 0.017500 0.004300
v 0.014600 0.002363 0.026272
v 0.005323 0.017500 0.026272
v 0.014600 0.006756 0.004300
v -0.001024 0.000897 0.027250
v 0.014112 0.007732 0.026272
v 0.007764 0.017500 0.026272
v -0.000535 -0.003987 0.026272
v 0.005323 0.017500 0.004300
v -0.000535 -0.003987 0.004300
v 0.008251 0.016522 0.004300
v -0.001024 0.014080 0.026272
v 0.014600 0.006756 0.025780
v -0.001511 0.011636 0.026760
v -0.001024 0.014080 0.004300
v 0.014112 0.007732 0.010161
f 80 64 85 
f 65 66 67 
f 66 65 68 
f 66 68 69 
f 67 66 70 
f 67 70 73 
f 71 67 73 
f 74 71 75 
f 70 72 76 
f 74 75 76 
f 75 64 76 
f 68 65 77 
f 67 71 77 
f 74 68 77 
f 71 74 77 
f 70 66 78 
f 72 70 78 
f 65 67 79 
f 77 65 79 
f 67 77 79 
f 73 70 80 
f 70 76 80 
f 76 64 80 
f 66 69 81 
f 72 78 81 
f 71 73 82 
f 73 75 82 
f 75 71 82 
f 69 68 83 
f 68 74 83 
f 76 72 83 
f 74 76 83 
f 81 69 83 
f 72 81 83 
f 78 66 84 
f 66 81 84 
f 81 78 84 
f 64 75 85 
f 75 73 85 
f 73 80 85 
o convex_3
v -0.034722 -0.017172 -0.018655
v -0.039116 0.016035 0.004786
v -0.039605 0.016035 0.004786
v -0.038628 0.015057 -0.018655
v -0.039605 -0.011796 -0.018164
v -0.034722 -0.016682 0.004297
v -0.034722 0.010662 0.004297
v -0.039605 -0.011309 0.004297
v -0.034722 0.010662 -0.018164
v -0.039605 0.015057 -0.018655
v -0.035210 -0.017172 -0.001074
v -0.037163 0.014081 -0.018164
v -0.034722 0.006267 0.004786
v -0.039605 -0.001541 0.004786
v -0.036675 0.013591 0.004297
v -0.039605 -0.011309 -0.018655
v -0.034722 0.010174 -0.018655
v -0.035699 -0.016682 -0.018164
v -0.038628 -0.012771 0.004297
v -0.035210 0.011637 -0.008887
f 97 100 105 
f 88 87 89 
f 91 86 92 
f 88 90 93 
f 92 86 94 
f 88 89 95 
f 89 86 95 
f 90 88 95 
f 86 91 96 
f 89 87 97 
f 87 88 98 
f 91 92 98 
f 92 87 98 
f 88 93 99 
f 98 88 99 
f 91 98 99 
f 87 92 100 
f 97 87 100 
f 95 86 101 
f 90 95 101 
f 86 89 102 
f 94 86 102 
f 89 97 102 
f 97 94 102 
f 86 96 103 
f 96 90 103 
f 101 86 103 
f 90 101 103 
f 93 90 104 
f 90 96 104 
f 96 91 104 
f 99 93 104 
f 91 99 104 
f 92 94 105 
f 94 97 105 
f 100 92 105 
o convex_4
v -0.026417 -0.004962 0.026269
v -0.009816 0.015058 0.025780
v -0.009816 0.015058 0.016016
v -0.001514 -0.003985 0.004786
v -0.035210 0.010173 0.004786
v -0.001514 -0.003985 0.026269
v -0.001514 0.013591 0.004786
v -0.034230 0.011150 0.026759
v -0.024952 -0.006427 0.004786
v -0.001514 0.012126 0.026759
v -0.035210 0.006265 0.026269
v -0.020071 0.014080 0.004786
v -0.022023 -0.006917 0.026269
v -0.035210 0.006265 0.004786
v -0.030813 -0.000077 0.026759
v -0.020071 0.014080 0.026269
v -0.033742 0.011638 0.004786
v -0.012748 0.015058 0.004786
v -0.014701 -0.005938 0.004786
v -0.004935 -0.003985 0.026759
v -0.001514 0.013591 0.026269
v -0.030813 -0.000077 0.004786
v -0.022999 -0.006917 0.007720
v -0.023976 -0.006917 0.026269
v -0.033254 0.011638 0.026759
v -0.012748 0.015058 0.026269
v -0.014213 -0.005938 0.026269
v -0.035210 0.010173 0.026269
v -0.015677 -0.005450 0.026759
v -0.010304 0.015058 0.004786
v -0.014213 -0.005938 0.008696
f 132 118 136 
f 111 109 112 
f 108 107 112 
f 109 110 112 
f 110 109 114 
f 111 112 115 
f 112 110 117 
f 110 114 119 
f 116 110 119 
f 116 119 120 
f 115 113 120 
f 113 116 120 
f 121 117 122 
f 117 110 122 
f 107 108 123 
f 112 117 123 
f 117 121 123 
f 114 109 124 
f 111 115 125 
f 115 120 125 
f 112 107 126 
f 115 112 126 
f 114 106 127 
f 119 114 127 
f 120 119 127 
f 106 120 127 
f 114 124 128 
f 106 114 129 
f 120 106 129 
f 114 128 129 
f 128 118 129 
f 113 115 130 
f 121 122 130 
f 122 113 130 
f 107 123 131 
f 123 121 131 
f 126 107 131 
f 115 126 131 
f 130 115 131 
f 121 130 131 
f 109 111 132 
f 111 125 132 
f 116 113 133 
f 110 116 133 
f 122 110 133 
f 113 122 133 
f 125 120 134 
f 120 129 134 
f 129 118 134 
f 118 132 134 
f 132 125 134 
f 108 112 135 
f 123 108 135 
f 112 123 135 
f 124 109 136 
f 118 128 136 
f 128 124 136 
f 109 132 136 
o convex_5
v 0.009229 -0.030358 -0.014745
v 0.007277 0.017500 0.004297
v 0.005323 0.017500 0.004297
v 0.007277 0.017500 -0.019143
v 0.000928 -0.029374 -0.019143
v 0.014601 -0.026451 0.003809
v 0.014601 0.006262 -0.019143
v 0.000928 -0.001552 0.004297
v 0.000928 0.014567 -0.018652
v 0.014601 0.006754 0.004297
v 0.013624 -0.030358 -0.018652
v 0.003370 -0.029374 -0.007909
v 0.000928 0.014567 0.004297
v 0.012159 -0.027425 0.003320
v 0.014601 -0.028404 -0.013767
v 0.000928 -0.029866 -0.013283
v 0.013136 -0.030358 -0.019143
v 0.004346 0.017008 -0.019143
v 0.007764 -0.028891 -0.002051
v 0.013624 -0.030358 -0.013767
v 0.008253 0.016521 -0.009864
v 0.014601 -0.012772 -0.018652
v 0.009717 -0.022052 0.003809
v 0.001416 0.015055 -0.019143
v 0.012647 0.009686 -0.018166
v 0.001416 -0.003993 0.003809
v 0.012159 0.010661 0.004297
v 0.001416 -0.029866 -0.018652
v 0.003370 -0.028887 -0.007423
v 0.013624 -0.027425 0.003320
v 0.014601 0.002359 0.004297
v 0.002882 0.016034 0.004297
v 0.008253 0.016521 0.004297
v 0.009717 -0.030358 -0.013283
v 0.010206 -0.028891 -0.002051
v 0.005323 0.017500 -0.019143
f 140 154 172 
f 139 138 140 
f 141 140 143 
f 138 139 144 
f 141 144 145 
f 142 143 146 
f 138 144 146 
f 144 139 149 
f 145 144 149 
f 143 142 151 
f 144 141 152 
f 141 143 153 
f 147 137 153 
f 140 141 154 
f 137 147 156 
f 151 142 156 
f 147 151 156 
f 140 138 157 
f 143 151 158 
f 151 147 158 
f 153 143 158 
f 147 153 158 
f 142 144 159 
f 150 142 159 
f 155 150 159 
f 141 145 160 
f 145 149 160 
f 154 141 160 
f 143 140 161 
f 146 143 161 
f 140 157 161 
f 159 144 162 
f 155 159 162 
f 138 146 163 
f 146 161 163 
f 161 157 163 
f 152 141 164 
f 137 152 164 
f 141 153 164 
f 153 137 164 
f 144 152 165 
f 152 148 165 
f 148 155 165 
f 162 144 165 
f 155 162 165 
f 142 150 166 
f 150 155 166 
f 156 142 166 
f 144 142 167 
f 142 146 167 
f 146 144 167 
f 149 139 168 
f 139 154 168 
f 160 149 168 
f 154 160 168 
f 157 138 169 
f 138 163 169 
f 163 157 169 
f 152 137 170 
f 148 152 170 
f 155 148 170 
f 137 156 170 
f 170 156 171 
f 166 155 171 
f 156 166 171 
f 155 170 171 
f 139 140 172 
f 154 139 172 
o convex_6
v 0.045855 0.019935 0.004297
v 0.030717 -0.019124 -0.015235
v 0.030717 -0.019124 -0.008395
v 0.059041 -0.012283 -0.019142
v 0.030717 0.014566 -0.019142
v 0.056598 -0.006913 0.003321
v 0.030717 -0.017657 0.003808
v 0.045364 0.020913 -0.019142
v 0.030717 0.013103 0.004297
v 0.034138 -0.023516 -0.019631
v 0.035602 -0.023516 -0.007908
v 0.059041 -0.010821 -0.007908
v 0.047806 0.016028 -0.019631
v 0.041951 0.020424 -0.008885
v 0.058550 -0.012772 -0.008395
v 0.053180 -0.001059 0.004297
v 0.030717 -0.016680 -0.019631
v 0.058550 -0.009843 -0.019631
v 0.056107 -0.003495 0.003321
v 0.033159 -0.024005 -0.007908
v 0.047806 0.016522 -0.012305
v 0.034626 -0.024005 -0.018165
v 0.033159 0.015055 -0.019631
v 0.030717 -0.010332 0.004297
v 0.031207 0.015055 -0.008395
v 0.056598 -0.004473 -0.019142
v 0.044391 0.021407 -0.017678
v 0.032671 -0.017657 0.003321
v 0.037066 0.016517 0.004297
v 0.048294 0.015055 0.004297
v 0.033159 -0.024005 -0.018655
v 0.054643 -0.014728 -0.008395
v 0.044391 0.021407 -0.008395
v 0.043415 0.019446 0.004297
v 0.032183 0.015544 -0.018655
v 0.043415 0.020424 -0.019631
v 0.058550 -0.012772 -0.016701
v 0.055131 -0.005451 0.003808
v 0.045855 0.020424 -0.007908
v 0.054643 -0.014239 -0.019631
v 0.030717 0.005778 -0.019631
v 0.056598 -0.004473 -0.008395
v 0.052204 -0.015706 -0.007908
v 0.031207 -0.020098 -0.019142
f 182 203 216 
f 174 175 177 
f 177 175 179 
f 177 179 181 
f 184 178 187 
f 176 184 187 
f 173 181 188 
f 174 177 189 
f 185 182 189 
f 184 176 190 
f 182 185 190 
f 178 184 191 
f 175 174 192 
f 179 175 192 
f 185 180 193 
f 183 192 194 
f 185 189 195 
f 181 179 196 
f 179 188 196 
f 188 181 196 
f 177 181 197 
f 184 190 198 
f 190 185 198 
f 185 193 198 
f 178 179 200 
f 183 178 200 
f 179 192 200 
f 192 183 200 
f 181 173 201 
f 197 181 201 
f 186 197 201 
f 173 188 202 
f 188 191 202 
f 191 193 202 
f 192 174 203 
f 182 194 203 
f 194 192 203 
f 183 194 204 
f 180 199 205 
f 199 186 205 
f 201 173 206 
f 186 201 206 
f 173 205 206 
f 205 186 206 
f 177 197 207 
f 197 186 207 
f 186 199 207 
f 207 199 208 
f 180 185 208 
f 195 177 208 
f 185 195 208 
f 199 180 208 
f 177 207 208 
f 176 187 209 
f 194 176 209 
f 187 204 209 
f 204 194 209 
f 179 178 210 
f 188 179 210 
f 178 191 210 
f 191 188 210 
f 193 180 211 
f 173 202 211 
f 202 193 211 
f 205 173 211 
f 180 205 211 
f 190 176 212 
f 182 190 212 
f 176 194 212 
f 194 182 212 
f 189 177 213 
f 177 195 213 
f 195 189 213 
f 191 184 214 
f 193 191 214 
f 184 198 214 
f 198 193 214 
f 178 183 215 
f 187 178 215 
f 183 204 215 
f 204 187 215 
f 174 189 216 
f 189 182 216 
f 203 174 216 
o convex_7
v -0.002495 -0.012289 -0.019143
v -0.013236 -0.021566 -0.019143
v -0.013236 -0.019125 -0.019143
v -0.007865 -0.004965 0.004786
v -0.034722 -0.004476 -0.018654
v -0.031787 -0.021076 0.004296
v -0.002495 -0.018149 0.004296
v -0.034722 -0.004476 0.004296
v -0.034722 -0.017659 -0.018654
v -0.007865 -0.004476 -0.018166
v -0.011774 -0.022054 0.004296
v -0.003961 -0.019612 -0.018654
v -0.022020 -0.022544 -0.017677
v -0.000537 -0.014730 0.003807
v -0.034722 -0.017659 0.004296
v -0.031787 -0.021076 -0.018654
v -0.001515 -0.017659 -0.019143
v -0.022020 -0.022544 0.004296
v -0.007865 -0.004476 0.004786
v -0.011774 -0.022054 -0.018654
v -0.007865 -0.005454 -0.019143
v -0.031302 -0.021566 -0.004984
v -0.025931 -0.005942 0.004786
v -0.000537 -0.014730 -0.012306
v -0.006400 -0.005942 0.002832
v -0.004934 -0.020102 -0.005958
v -0.000537 -0.016683 0.003807
v -0.004449 -0.019612 0.003809
v -0.004934 -0.008383 -0.018654
v -0.031302 -0.021566 -0.015723
v -0.033741 -0.019124 -0.018164
v -0.001515 -0.017659 0.003809
v -0.000537 -0.016683 -0.012306
v -0.001515 -0.013752 -0.019143
v -0.012751 -0.007894 -0.019143
v -0.021046 -0.022544 0.004296
f 239 234 252 
f 217 218 219 
f 219 218 221 
f 221 218 225 
f 224 221 225 
f 221 224 226 
f 223 220 227 
f 224 225 231 
f 225 218 232 
f 218 229 232 
f 218 217 233 
f 228 218 233 
f 220 223 235 
f 226 224 235 
f 223 230 235 
f 218 228 236 
f 229 218 236 
f 217 219 237 
f 221 226 237 
f 234 222 238 
f 229 234 238 
f 227 220 239 
f 231 222 239 
f 224 231 239 
f 222 234 239 
f 220 235 239 
f 235 224 239 
f 226 235 241 
f 235 230 241 
f 230 240 241 
f 227 236 242 
f 236 228 242 
f 230 223 243 
f 240 230 243 
f 223 227 244 
f 227 242 244 
f 217 237 245 
f 237 226 245 
f 226 241 245 
f 241 240 245 
f 232 229 246 
f 229 238 246 
f 246 238 247 
f 222 231 247 
f 231 225 247 
f 225 232 247 
f 238 222 247 
f 232 246 247 
f 228 233 248 
f 242 228 248 
f 243 223 248 
f 233 243 248 
f 223 244 248 
f 244 242 248 
f 233 240 249 
f 243 233 249 
f 240 243 249 
f 233 217 250 
f 240 233 250 
f 217 245 250 
f 245 240 250 
f 219 221 251 
f 237 219 251 
f 221 237 251 
f 234 229 252 
f 236 227 252 
f 229 236 252 
f 227 239 252 
o convex_8
v -0.010307 0.015058 0.004786
v -0.011282 -0.003009 -0.019143
v -0.011282 -0.001544 -0.019143
v -0.034722 0.005777 0.004786
v -0.001514 -0.003986 0.004786
v -0.001514 0.013592 -0.019143
v -0.033743 0.011638 -0.018654
v -0.034722 -0.004476 -0.018654
v -0.034722 -0.004476 0.004296
v -0.001514 -0.003986 -0.018654
v -0.001514 0.013592 0.004786
v -0.033743 0.011638 0.004786
v -0.012745 0.015058 -0.018654
v -0.007866 -0.004476 -0.019143
v -0.034722 0.011148 -0.018164
v -0.006887 -0.004476 0.004786
v -0.020071 0.014081 0.004786
v -0.032765 0.012125 -0.018164
v -0.034722 0.010662 0.004786
v -0.026420 -0.004476 0.004786
v -0.010307 0.015058 -0.018654
v -0.009332 0.013102 -0.019143
v -0.012745 0.015058 0.004786
v -0.001514 -0.003498 -0.019143
v -0.032277 0.012125 0.000389
v -0.020071 0.014081 -0.018654
f 265 274 278 
f 253 256 257 
f 254 255 258 
f 255 254 260 
f 259 255 260 
f 256 260 261 
f 258 257 262 
f 253 257 263 
f 257 258 263 
f 258 253 263 
f 256 253 264 
f 254 258 266 
f 260 254 266 
f 261 260 266 
f 260 256 267 
f 259 260 267 
f 264 259 267 
f 257 256 268 
f 262 257 268 
f 261 266 268 
f 266 262 268 
f 264 253 269 
f 259 264 270 
f 256 264 271 
f 267 256 271 
f 264 267 271 
f 256 261 272 
f 268 256 272 
f 261 268 272 
f 253 258 273 
f 265 253 273 
f 258 265 273 
f 258 255 274 
f 255 259 274 
f 265 258 274 
f 253 265 275 
f 269 253 275 
f 265 269 275 
f 258 262 276 
f 266 258 276 
f 262 266 276 
f 264 269 277 
f 269 270 277 
f 270 264 277 
f 269 265 278 
f 270 269 278 
f 259 270 278 
f 274 259 278 
o convex_9
v -0.028861 0.002364 0.027739
v -0.020071 0.005289 0.042877
v -0.019095 0.005780 0.042388
v -0.016164 -0.004964 0.026761
v -0.016164 0.012617 0.026761
v -0.028861 0.010662 0.026761
v -0.024464 -0.000080 0.041899
v -0.016164 0.002851 0.037015
v -0.031792 0.005780 0.028228
v -0.022516 0.007242 0.039457
v -0.021537 -0.001544 0.040435
v -0.016164 0.012617 0.028717
v -0.031792 0.004802 0.026761
v -0.016655 -0.004964 0.029694
v -0.027394 0.010662 0.029694
v -0.023978 0.001386 0.042388
v -0.017142 -0.004964 0.027250
v -0.016164 -0.004475 0.030669
v -0.021537 0.000409 0.042388
v -0.022516 -0.001544 0.040435
v -0.030326 0.003339 0.031158
v -0.020562 0.006267 0.042388
v -0.016164 0.004802 0.036527
v -0.028373 0.009197 0.030183
f 294 288 302 
f 283 282 284 
f 282 283 286 
f 283 284 290 
f 286 283 290 
f 284 282 291 
f 287 284 291 
f 290 284 293 
f 288 290 293 
f 287 285 294 
f 279 291 295 
f 291 282 295 
f 282 292 295 
f 282 286 296 
f 292 282 296 
f 289 292 296 
f 281 280 297 
f 286 281 297 
f 294 285 297 
f 280 294 297 
f 296 286 297 
f 289 296 297 
f 292 289 298 
f 279 295 298 
f 295 292 298 
f 297 285 298 
f 289 297 298 
f 285 287 299 
f 291 279 299 
f 287 291 299 
f 279 298 299 
f 298 285 299 
f 280 281 300 
f 281 290 300 
f 290 288 300 
f 288 294 300 
f 294 280 300 
f 281 286 301 
f 290 281 301 
f 286 290 301 
f 284 287 302 
f 293 284 302 
f 288 293 302 
f 287 294 302 
o convex_10
v -0.004445 -0.003986 0.026761
v -0.009327 0.007242 0.042388
v -0.008352 0.007730 0.041897
v -0.016164 0.012617 0.026761
v -0.016164 -0.004961 0.029206
v -0.001514 0.002850 0.026761
v -0.013233 0.001874 0.042388
v -0.016164 0.004803 0.037016
v -0.016164 -0.004961 0.026761
v -0.011768 0.001385 0.042388
v -0.002003 0.001874 0.029692
v -0.016164 0.012125 0.030180
v -0.005911 -0.003010 0.030668
v -0.010303 0.007730 0.041897
v -0.011768 0.010174 0.036037
v -0.008352 0.006265 0.041897
v -0.015675 0.012617 0.026761
v -0.003956 0.004803 0.033112
v -0.016164 0.003338 0.037016
v -0.001514 0.000409 0.027739
v -0.015186 -0.005452 0.027739
v -0.012746 0.003826 0.042388
f 316 314 324 
f 303 306 308 
f 306 307 310 
f 306 303 311 
f 307 306 311 
f 304 309 312 
f 309 307 312 
f 306 310 314 
f 312 307 315 
f 313 312 315 
f 304 305 316 
f 314 316 317 
f 316 305 317 
f 305 304 318 
f 304 312 318 
f 313 305 318 
f 312 313 318 
f 308 306 319 
f 306 314 319 
f 314 317 319 
f 319 317 320 
f 313 308 320 
f 305 313 320 
f 317 305 320 
f 308 319 320 
f 307 309 321 
f 310 307 321 
f 309 310 321 
f 303 308 322 
f 308 313 322 
f 315 303 322 
f 313 315 322 
f 311 303 323 
f 307 311 323 
f 303 315 323 
f 315 307 323 
f 309 304 324 
f 310 309 324 
f 314 310 324 
f 304 316 324 
o convex_11
v -0.000537 0.014570 -0.014745
v 0.000439 -0.005941 -0.018652
v 0.000928 -0.005941 -0.018652
v -0.001514 -0.003987 0.004297
v 0.000928 0.014080 0.004297
v 0.000928 -0.002521 0.004297
v -0.001514 -0.003497 -0.019143
v -0.001514 0.013592 0.004297
v 0.000928 0.013592 -0.019143
v -0.001514 0.013592 -0.019143
v 0.000928 -0.005941 -0.013283
v -0.000537 -0.003987 0.004297
v -0.000049 0.014570 -0.018652
v -0.001514 -0.003987 -0.018652
f 328 331 338 
f 327 329 330 
f 329 328 330 
f 327 326 331 
f 331 328 332 
f 329 325 332 
f 328 329 332 
f 329 327 333 
f 327 331 333 
f 333 331 334 
f 331 332 334 
f 332 325 334 
f 326 327 335 
f 328 326 335 
f 327 330 335 
f 335 330 336 
f 330 328 336 
f 328 335 336 
f 325 329 337 
f 329 333 337 
f 333 334 337 
f 334 325 337 
f 326 328 338 
f 331 326 338 
o convex_12
v 0.024370 -0.020587 -0.019142
v 0.030717 0.013101 0.004297
v 0.030717 0.014570 -0.008395
v 0.021438 0.009197 0.004297
v 0.030717 -0.018144 0.004297
v 0.021438 -0.023521 0.003808
v 0.021438 0.009682 -0.019142
v 0.030717 -0.018144 -0.019142
v 0.030717 0.014078 -0.019142
v 0.021438 -0.013752 -0.019142
v 0.028274 -0.019121 -0.019631
v 0.021927 -0.023521 -0.002540
v 0.021438 0.010170 -0.007908
v 0.024370 -0.022540 0.003321
v 0.030717 0.005778 -0.019631
v 0.030228 0.014570 -0.018655
v 0.021927 -0.015706 0.004297
v 0.021438 -0.023521 -0.002540
v 0.030228 0.014570 -0.008395
v 0.023393 -0.019610 -0.019142
v 0.029739 0.013101 0.004297
v 0.021438 0.010170 -0.018655
v 0.030228 -0.018637 -0.017188
v 0.026808 -0.019121 -0.019631
v 0.025346 -0.020587 -0.019142
v 0.021927 -0.016191 -0.019142
v 0.023393 -0.023029 -0.002053
v 0.030717 -0.015706 -0.019631
v 0.030228 -0.018637 0.004297
f 352 361 367 
f 341 340 343 
f 340 342 343 
f 344 342 345 
f 341 343 346 
f 341 346 347 
f 344 345 348 
f 345 342 351 
f 345 347 353 
f 347 346 353 
f 347 345 354 
f 341 347 354 
f 343 342 355 
f 342 344 355 
f 344 348 356 
f 350 344 356 
f 339 350 356 
f 340 341 357 
f 351 342 357 
f 341 354 357 
f 354 351 357 
f 339 356 358 
f 342 340 359 
f 340 357 359 
f 357 342 359 
f 345 351 360 
f 354 345 360 
f 351 354 360 
f 346 343 361 
f 348 345 362 
f 349 339 362 
f 345 353 362 
f 353 349 362 
f 339 358 362 
f 339 349 363 
f 349 346 363 
f 350 339 363 
f 346 361 363 
f 356 348 364 
f 358 356 364 
f 348 362 364 
f 362 358 364 
f 344 350 365 
f 352 344 365 
f 361 352 365 
f 350 363 365 
f 363 361 365 
f 346 349 366 
f 353 346 366 
f 349 353 366 
f 344 352 367 
f 343 355 367 
f 355 344 367 
f 361 343 367 
o convex_13
v 0.022902 -0.018146 0.004297
v 0.019485 0.008219 0.026273
v 0.018510 0.008219 0.026273
v 0.024856 0.010663 0.004297
v 0.014601 0.006264 0.004297
v 0.025833 -0.020591 0.025782
v 0.014601 0.000892 0.025782
v 0.025833 0.010171 0.014554
v 0.025833 -0.020591 0.004297
v 0.025833 -0.006426 0.026273
v 0.014601 0.000892 0.004297
v 0.019973 -0.012288 0.025782
v 0.014601 0.006264 0.026273
v 0.024368 -0.020591 0.025782
v 0.025833 0.010663 0.004297
v 0.020949 0.006753 0.026273
v 0.023878 -0.019125 0.026273
v 0.016067 0.007240 0.004297
v 0.018997 -0.009847 0.007229
v 0.023878 -0.020101 0.004297
v 0.024856 -0.002526 0.026273
v 0.025344 0.010663 0.014066
v 0.023878 -0.020101 0.021876
v 0.016556 -0.003991 0.004297
v 0.014601 0.001381 0.026273
v 0.015090 0.006753 0.026273
f 385 372 393 
f 371 368 372 
f 375 373 376 
f 368 371 376 
f 369 370 377 
f 373 375 377 
f 372 368 378 
f 374 372 378 
f 372 374 380 
f 377 370 380 
f 376 373 381 
f 375 376 382 
f 376 371 382 
f 375 369 383 
f 369 377 383 
f 373 377 384 
f 377 380 384 
f 379 381 384 
f 381 373 384 
f 370 371 385 
f 371 372 385 
f 368 379 386 
f 368 376 387 
f 379 368 387 
f 376 381 387 
f 377 375 388 
f 375 383 388 
f 383 377 388 
f 370 369 389 
f 371 370 389 
f 369 375 389 
f 382 371 389 
f 375 382 389 
f 381 379 390 
f 379 387 390 
f 387 381 390 
f 378 368 391 
f 374 378 391 
f 379 374 391 
f 368 386 391 
f 386 379 391 
f 374 379 392 
f 380 374 392 
f 379 384 392 
f 384 380 392 
f 380 370 393 
f 372 380 393 
f 370 385 393 
o convex_14
v 0.051225 0.007242 0.014552
v 0.031693 -0.010336 0.004297
v 0.032184 -0.010336 0.004297
v 0.044877 0.019942 0.004297
v 0.031693 0.012615 0.015529
v 0.053669 -0.000567 0.004297
v 0.032184 -0.009847 0.015040
v 0.031693 0.013590 0.004297
v 0.052690 -0.000567 0.015040
v 0.045854 0.019453 0.014552
v 0.048295 0.015058 0.004297
v 0.049758 0.007242 0.015529
v 0.053669 -0.001056 0.009669
v 0.037555 0.016522 0.014064
v 0.031693 -0.002031 0.015529
v 0.042440 -0.004962 0.015529
v 0.035604 -0.008869 0.014064
v 0.053669 0.000411 0.014064
v 0.032184 0.014079 0.012597
v 0.048295 0.015058 0.014552
v 0.044877 0.019942 0.013575
v 0.045854 0.019942 0.004297
v 0.053669 0.000411 0.004297
v 0.037067 0.016522 0.004297
v 0.052200 -0.001545 0.014064
v 0.031693 -0.010336 0.014064
v 0.053178 -0.001056 0.004297
v 0.048784 0.014079 0.006739
f 411 416 421 
f 396 395 397 
f 396 397 399 
f 397 395 401 
f 395 398 401 
f 399 397 404 
f 402 394 405 
f 403 398 405 
f 398 403 407 
f 398 395 408 
f 405 398 408 
f 405 408 409 
f 402 405 409 
f 408 400 409 
f 396 406 410 
f 394 402 411 
f 406 399 411 
f 402 406 411 
f 401 398 412 
f 398 407 412 
f 405 394 413 
f 403 405 413 
f 407 403 414 
f 412 407 414 
f 404 397 415 
f 413 404 415 
f 403 413 415 
f 397 414 415 
f 414 403 415 
f 399 404 416 
f 411 399 416 
f 397 401 417 
f 401 412 417 
f 414 397 417 
f 412 414 417 
f 406 402 418 
f 409 400 418 
f 402 409 418 
f 400 410 418 
f 410 406 418 
f 395 396 419 
f 408 395 419 
f 400 408 419 
f 396 410 419 
f 410 400 419 
f 396 399 420 
f 399 406 420 
f 406 396 420 
f 394 411 421 
f 413 394 421 
f 404 413 421 
f 416 404 421 
o convex_15
v 0.040970 -0.004964 0.017972
v 0.034136 0.012617 0.018949
v 0.039509 0.011149 0.028225
v 0.049762 0.007242 0.015531
v 0.032673 -0.002520 0.030667
v 0.031693 -0.002031 0.015531
v 0.039997 0.003339 0.030178
v 0.031693 0.012617 0.015531
v 0.031693 0.005289 0.027249
v 0.048296 0.000899 0.015531
v 0.040970 0.010173 0.030667
v 0.040485 -0.004964 0.015531
v 0.048782 0.008218 0.017972
v 0.034136 0.004802 0.030667
v 0.032673 0.012617 0.018949
v 0.031693 -0.002031 0.030178
v 0.039509 0.010662 0.030178
v 0.047808 0.000899 0.016996
v 0.034626 -0.002520 0.029689
v 0.047320 0.008708 0.015531
v 0.031693 -0.002520 0.016020
v 0.042436 -0.004964 0.016509
v 0.045367 0.008218 0.023831
v 0.035114 -0.003498 0.025294
v 0.042924 0.010173 0.027249
v 0.033648 0.012617 0.015531
v 0.046830 0.000899 0.018461
v 0.048782 0.004312 0.016996
f 434 444 449 
f 425 427 429 
f 429 427 430 
f 427 425 431 
f 426 428 432 
f 427 431 433 
f 426 432 435 
f 424 423 436 
f 423 429 436 
f 429 430 436 
f 430 427 437 
f 435 430 437 
f 426 435 437 
f 432 424 438 
f 430 435 438 
f 435 432 438 
f 424 436 438 
f 436 430 438 
f 426 422 440 
f 428 426 440 
f 425 429 441 
f 434 425 441 
f 427 433 442 
f 426 437 442 
f 437 427 442 
f 422 433 443 
f 433 431 443 
f 431 439 443 
f 440 422 443 
f 432 428 444 
f 434 432 444 
f 422 426 445 
f 433 422 445 
f 426 442 445 
f 442 433 445 
f 423 424 446 
f 424 432 446 
f 432 434 446 
f 441 423 446 
f 434 441 446 
f 429 423 447 
f 423 441 447 
f 441 429 447 
f 439 428 448 
f 428 440 448 
f 443 439 448 
f 440 443 448 
f 431 425 449 
f 425 434 449 
f 428 439 449 
f 439 431 449 
f 444 428 449 
o convex_16
v -0.000537 -0.029381 -0.018655
v -0.001026 -0.014247 -0.012306
v 0.000928 -0.010826 -0.012795
v 0.000439 -0.005941 -0.018655
v 0.000928 -0.029381 -0.012795
v 0.000928 -0.029381 -0.019143
v -0.001514 -0.014731 -0.019143
v -0.000537 -0.029381 -0.013283
v -0.001514 -0.014247 -0.012306
v 0.000928 -0.005941 -0.013283
v 0.000928 -0.009848 -0.019143
v -0.001514 -0.017177 -0.012306
v 0.000439 -0.005941 -0.013283
f 458 459 462 
f 452 451 454 
f 452 454 455 
f 454 450 455 
f 455 450 456 
f 450 454 457 
f 453 456 458 
f 451 452 459 
f 452 455 459 
f 458 451 459 
f 455 456 460 
f 456 453 460 
f 459 455 460 
f 453 459 460 
f 454 451 461 
f 456 450 461 
f 450 457 461 
f 457 454 461 
f 458 456 461 
f 451 458 461 
f 453 458 462 
f 459 453 462 
o convex_17
v 0.031693 0.005290 0.026271
v 0.025833 -0.005452 0.004300
v 0.025833 0.011149 0.004300
v 0.031693 0.013593 0.004300
v 0.031693 -0.005452 0.004300
v 0.025833 -0.000566 0.020410
v 0.031693 -0.002031 0.029203
v 0.025833 0.010661 0.014555
v 0.025833 -0.005452 0.014555
v 0.031693 0.012615 0.016993
v 0.031693 -0.005452 0.015043
v 0.031204 0.004799 0.026758
v 0.031204 0.013593 0.013090
v 0.025833 0.006265 0.017968
v 0.031204 -0.000566 0.029203
v 0.031204 -0.002031 0.029203
v 0.031204 0.012615 0.016993
v 0.026810 -0.000079 0.022363
f 478 477 480 
f 464 465 466 
f 466 463 467 
f 464 466 467 
f 465 464 468 
f 467 463 469 
f 465 468 470 
f 464 467 471 
f 468 464 471 
f 463 466 472 
f 467 469 473 
f 471 467 473 
f 466 465 475 
f 465 470 475 
f 472 466 475 
f 470 468 476 
f 474 470 476 
f 469 463 477 
f 463 474 477 
f 468 471 478 
f 473 469 478 
f 471 473 478 
f 469 477 478 
f 463 472 479 
f 474 463 479 
f 470 474 479 
f 475 470 479 
f 472 475 479 
f 476 468 480 
f 474 476 480 
f 477 474 480 
f 468 478 480 
o convex_18
v 0.020950 -0.024009 0.003320
v 0.014601 -0.028404 -0.013771
v 0.014601 -0.013754 -0.013771
v 0.014601 -0.026448 0.003809
v 0.014601 -0.013754 0.003809
v 0.021438 -0.013754 -0.002052
v 0.021438 -0.025961 -0.007420
v 0.021438 -0.014732 0.003809
v 0.016555 -0.016198 -0.013283
v 0.017043 -0.028404 -0.013283
v 0.021438 -0.025961 -0.002052
v 0.017532 -0.028404 -0.007910
v 0.017043 -0.025961 -0.013771
v 0.021438 -0.023520 0.003809
v 0.016555 -0.014243 -0.012794
v 0.020950 -0.023032 -0.007910
v 0.014601 -0.028404 -0.007420
v 0.020950 -0.013754 0.003809
v 0.015578 -0.026448 0.003809
f 497 492 499 
f 483 482 484 
f 483 484 485 
f 483 485 486 
f 485 484 488 
f 487 486 488 
f 487 488 491 
f 487 491 492 
f 490 487 492 
f 482 490 492 
f 482 483 493 
f 483 489 493 
f 487 490 493 
f 490 482 493 
f 488 484 494 
f 481 491 494 
f 491 488 494 
f 483 486 495 
f 489 483 495 
f 489 495 496 
f 486 487 496 
f 493 489 496 
f 487 493 496 
f 495 486 496 
f 484 482 497 
f 482 492 497 
f 486 485 498 
f 485 488 498 
f 488 486 498 
f 491 481 499 
f 492 491 499 
f 481 494 499 
f 494 484 499 
f 484 497 499 
o convex_19
v 0.017043 -0.004962 -0.019143
v 0.021438 0.008709 0.004297
v 0.021438 0.009686 -0.007909
v 0.021438 -0.013265 -0.019143
v 0.014601 -0.013754 0.003809
v 0.014601 0.006268 -0.019143
v 0.021438 -0.013754 0.004297
v 0.014601 0.006268 0.004297
v 0.014601 -0.013754 -0.013767
v 0.021438 0.009686 -0.019143
v 0.014601 -0.005939 -0.018166
v 0.020461 0.009686 -0.007909
v 0.015090 0.006756 0.004297
v 0.019485 0.009198 -0.018166
v 0.021438 -0.013754 -0.010837
v 0.018507 0.008220 0.004297
v 0.015090 0.006756 -0.019143
v 0.020950 -0.013265 -0.019143
f 508 510 517 
f 502 501 503 
f 503 500 505 
f 503 501 506 
f 504 506 507 
f 505 504 507 
f 506 501 507 
f 504 505 508 
f 506 504 508 
f 502 503 509 
f 503 505 509 
f 505 500 510 
f 508 505 510 
f 501 502 511 
f 502 509 511 
f 507 501 512 
f 505 507 512 
f 512 511 513 
f 511 509 513 
f 503 506 514 
f 508 503 514 
f 506 508 514 
f 501 511 515 
f 512 501 515 
f 511 512 515 
f 509 505 516 
f 505 512 516 
f 512 513 516 
f 513 509 516 
f 500 503 517 
f 503 508 517 
f 510 500 517 
o convex_20
v 0.028763 -0.011801 0.026273
v 0.025833 -0.020103 0.004297
v 0.025833 -0.005452 0.004297
v 0.031693 -0.005452 0.004297
v 0.031204 -0.018146 0.025782
v 0.025833 -0.020103 0.025782
v 0.025833 -0.006918 0.025782
v 0.031204 -0.017659 0.004788
v 0.031693 -0.005452 0.015042
v 0.029251 -0.019125 0.004297
v 0.027298 -0.020103 0.025782
v 0.025833 -0.005452 0.015042
v 0.031693 -0.010338 0.004297
v 0.026322 -0.007407 0.026273
v 0.030716 -0.015217 0.025782
v 0.025833 -0.017171 0.026273
v 0.031693 -0.010338 0.014554
f 530 526 534 
f 519 520 521 
f 520 519 523 
f 520 523 524 
f 521 520 526 
f 519 521 527 
f 525 522 527 
f 523 519 528 
f 519 527 528 
f 527 522 528 
f 520 524 529 
f 526 520 529 
f 524 526 529 
f 522 525 530 
f 521 526 530 
f 527 521 530 
f 525 527 530 
f 518 526 531 
f 526 524 531 
f 518 522 532 
f 526 518 532 
f 522 526 532 
f 522 518 533 
f 524 523 533 
f 528 522 533 
f 523 528 533 
f 518 531 533 
f 531 524 533 
f 526 522 534 
f 522 530 534 
