o convex_0
v -0.054797 0.030796 0.027693
v -0.042233 0.021536 -0.000089
v -0.050171 0.016912 0.003221
v -0.042233 0.011618 0.026370
v -0.070009 0.016248 0.014468
v -0.037598 0.032781 0.003224
v -0.066040 0.007649 0.019094
v -0.060748 0.031459 0.013807
v -0.040910 0.011618 0.008514
v -0.037598 0.023522 0.025048
v -0.056119 0.020878 0.030341
v -0.048848 0.035431 0.021075
v -0.065380 0.028152 0.023725
v -0.037598 0.016912 0.001237
v -0.050831 0.028152 0.003882
v -0.062734 0.006325 0.016446
v -0.064057 0.018237 0.008514
v -0.060085 0.014265 0.027693
v -0.037598 0.032781 0.014465
v -0.054797 0.035431 0.019094
v -0.039584 0.015587 0.027693
v -0.066700 0.024844 0.013142
v -0.037598 0.014265 0.013804
v -0.056119 0.011618 0.007852
v -0.068686 0.018895 0.020416
v -0.046862 0.034106 0.007852
v -0.038924 0.030137 -0.000089
v -0.044876 0.010296 0.025706
v -0.040910 0.024180 0.027032
v -0.067363 0.010957 0.013807
v -0.060085 0.032781 0.025048
v -0.042233 0.031459 0.022400
v -0.066700 0.028152 0.019094
v -0.047525 0.012279 0.005204
v -0.040910 0.034764 0.010500
v -0.052154 0.022200 0.030341
v -0.062734 0.026169 0.009836
v -0.042893 0.014265 0.028354
v -0.058762 0.028813 0.028354
v -0.062068 0.016248 0.027032
v -0.042233 0.010957 0.008514
v -0.058102 0.034106 0.016446
v -0.051494 0.024844 0.003221
v -0.048848 0.032123 0.005866
v -0.037598 0.018237 -0.000089
v -0.070009 0.020878 0.016446
v -0.060748 0.006325 0.017110
v -0.061408 0.012279 0.009175
v -0.037598 0.016912 0.024384
v -0.051494 0.033445 0.025048
v -0.062734 0.009632 0.023064
v -0.068686 0.020220 0.012481
v -0.040247 0.018237 0.028354
v -0.064057 0.023519 0.025706
v -0.066700 0.014926 0.022400
v -0.069346 0.013604 0.017110
v -0.063394 0.031459 0.019752
v -0.056779 0.034764 0.023064
v -0.067363 0.015587 0.011159
v -0.068686 0.024180 0.020416
v -0.053477 0.026169 0.029677
v -0.066040 0.007649 0.015787
v -0.058762 0.013604 0.027693
v -0.040247 0.011618 0.009836
f 28 41 64 
f 6 10 14 
f 10 6 19 
f 14 10 23 
f 26 6 27 
f 10 19 32 
f 19 12 32 
f 29 10 32 
f 8 22 33 
f 24 3 34 
f 16 24 34 
f 19 6 35 
f 12 19 35 
f 20 12 35 
f 6 26 35 
f 26 20 35 
f 22 8 37 
f 4 21 38 
f 28 4 38 
f 36 11 38 
f 1 31 39 
f 31 13 39 
f 18 11 40 
f 14 9 41 
f 34 14 41 
f 16 34 41 
f 20 26 42 
f 2 3 43 
f 3 17 43 
f 27 2 43 
f 15 27 43 
f 37 15 43 
f 17 37 43 
f 27 15 44 
f 26 27 44 
f 37 8 44 
f 15 37 44 
f 8 42 44 
f 42 26 44 
f 3 2 45 
f 6 14 45 
f 2 27 45 
f 27 6 45 
f 34 3 45 
f 14 34 45 
f 33 22 46 
f 7 16 47 
f 41 28 47 
f 16 41 47 
f 17 3 48 
f 3 24 48 
f 21 4 49 
f 10 21 49 
f 4 23 49 
f 23 10 49 
f 1 29 50 
f 31 1 50 
f 32 12 50 
f 29 32 50 
f 18 40 51 
f 7 47 51 
f 47 28 51 
f 37 17 52 
f 22 37 52 
f 5 46 52 
f 46 22 52 
f 21 10 53 
f 10 29 53 
f 29 36 53 
f 38 21 53 
f 36 38 53 
f 11 39 54 
f 39 13 54 
f 40 11 54 
f 40 54 55 
f 7 51 55 
f 51 40 55 
f 54 25 55 
f 5 30 56 
f 46 5 56 
f 25 46 56 
f 7 55 56 
f 55 25 56 
f 13 31 57 
f 8 33 57 
f 33 13 57 
f 42 8 57 
f 42 57 58 
f 12 20 58 
f 20 42 58 
f 31 50 58 
f 50 12 58 
f 57 31 58 
f 30 5 59 
f 17 48 59 
f 48 30 59 
f 5 52 59 
f 52 17 59 
f 13 33 60 
f 46 25 60 
f 33 46 60 
f 54 13 60 
f 25 54 60 
f 29 1 61 
f 11 36 61 
f 36 29 61 
f 39 11 61 
f 1 39 61 
f 16 7 62 
f 24 16 62 
f 48 24 62 
f 30 48 62 
f 56 30 62 
f 7 56 62 
f 11 18 63 
f 38 11 63 
f 28 38 63 
f 18 51 63 
f 51 28 63 
f 9 14 64 
f 23 4 64 
f 14 23 64 
f 4 28 64 
f 41 9 64 
o convex_1
v 0.042444 -0.052547 -0.028531
v 0.015323 -0.044612 -0.031176
v 0.015987 -0.045268 -0.033161
v 0.042444 -0.028736 -0.021258
v 0.027235 -0.054530 -0.013323
v 0.025249 -0.028739 -0.010012
v 0.025910 -0.030722 -0.033161
v 0.041780 -0.045268 -0.015968
v 0.032520 -0.060488 -0.025226
v 0.033181 -0.045930 -0.035806
v 0.034503 -0.028739 -0.008027
v 0.018634 -0.028739 -0.018616
v 0.020620 -0.053206 -0.016628
v 0.023927 -0.057175 -0.029191
v 0.039136 -0.035353 -0.030516
v 0.033842 -0.054530 -0.014642
v 0.021942 -0.028739 -0.029191
v 0.027896 -0.037336 -0.036472
v 0.043105 -0.032708 -0.016628
v 0.044430 -0.043291 -0.025886
v 0.042444 -0.053868 -0.024560
v 0.032520 -0.028739 -0.030516
v 0.033842 -0.052547 -0.033161
v 0.022603 -0.045268 -0.035806
v 0.027235 -0.057837 -0.015968
v 0.038472 -0.041967 -0.033161
v 0.021281 -0.039322 -0.035806
v 0.044430 -0.046592 -0.021258
v 0.033842 -0.050561 -0.012663
v 0.027235 -0.029398 -0.008689
v 0.019298 -0.031384 -0.028531
v 0.019298 -0.032708 -0.016628
v 0.019298 -0.051885 -0.031176
v 0.035167 -0.059164 -0.022575
v 0.037150 -0.057837 -0.027871
v 0.037811 -0.050561 -0.033161
v 0.033842 -0.033367 -0.033161
v 0.015323 -0.042629 -0.029856
v 0.025910 -0.049899 -0.034487
v 0.042444 -0.041305 -0.029193
v 0.038472 -0.028739 -0.011337
v 0.023266 -0.057175 -0.026546
v 0.042444 -0.047254 -0.017290
v 0.029876 -0.060488 -0.023241
v 0.022603 -0.055854 -0.016628
v 0.029876 -0.056516 -0.030516
v 0.019959 -0.053206 -0.018616
v 0.024588 -0.053868 -0.013983
v 0.042444 -0.048578 -0.029856
v 0.029215 -0.029398 -0.008027
v 0.016648 -0.041967 -0.033161
v 0.022603 -0.034691 -0.034487
v 0.030535 -0.039984 -0.036472
v 0.043105 -0.030060 -0.017953
v 0.029876 -0.052547 -0.012663
v 0.037150 -0.030060 -0.028531
v 0.029876 -0.057837 -0.015968
v 0.023927 -0.043953 -0.036472
v 0.021281 -0.051885 -0.032501
v 0.043766 -0.050564 -0.027208
v 0.040458 -0.055854 -0.023898
v 0.044430 -0.041305 -0.019935
f 118 83 126 
f 68 70 75 
f 70 68 76 
f 76 68 81 
f 81 68 86 
f 71 81 86 
f 72 75 93 
f 70 77 94 
f 76 81 95 
f 70 76 96 
f 77 70 96 
f 66 67 97 
f 65 85 99 
f 98 73 99 
f 87 74 100 
f 74 90 100 
f 65 99 100 
f 99 87 100 
f 82 71 101 
f 71 86 101 
f 79 90 101 
f 76 95 102 
f 96 76 102 
f 77 96 102 
f 74 87 103 
f 79 68 104 
f 68 84 104 
f 90 79 104 
f 68 75 105 
f 75 72 105 
f 72 83 105 
f 97 78 106 
f 83 72 107 
f 85 92 107 
f 72 93 107 
f 93 80 107 
f 78 73 108 
f 73 98 108 
f 106 78 108 
f 106 108 109 
f 108 89 109 
f 73 78 110 
f 99 73 110 
f 87 99 110 
f 103 87 110 
f 66 97 111 
f 102 66 111 
f 77 102 111 
f 97 106 111 
f 106 109 111 
f 109 77 111 
f 89 69 112 
f 94 77 112 
f 77 109 112 
f 109 89 112 
f 65 100 113 
f 100 90 113 
f 104 84 113 
f 90 104 113 
f 75 70 114 
f 70 94 114 
f 112 69 114 
f 94 112 114 
f 67 66 115 
f 91 67 115 
f 66 102 115 
f 102 95 115 
f 81 71 116 
f 71 82 116 
f 82 91 116 
f 95 81 116 
f 91 115 116 
f 115 95 116 
f 90 74 117 
f 82 101 117 
f 101 90 117 
f 84 68 118 
f 68 105 118 
f 105 83 118 
f 69 80 119 
f 93 75 119 
f 80 93 119 
f 114 69 119 
f 75 114 119 
f 68 79 120 
f 86 68 120 
f 79 101 120 
f 101 86 120 
f 80 69 121 
f 69 89 121 
f 98 80 121 
f 108 98 121 
f 89 108 121 
f 88 67 122 
f 67 91 122 
f 91 82 122 
f 74 103 122 
f 103 88 122 
f 82 117 122 
f 117 74 122 
f 67 88 123 
f 97 67 123 
f 78 97 123 
f 88 103 123 
f 110 78 123 
f 103 110 123 
f 85 65 124 
f 84 92 124 
f 92 85 124 
f 65 113 124 
f 113 84 124 
f 80 98 125 
f 99 85 125 
f 98 99 125 
f 107 80 125 
f 85 107 125 
f 92 84 126 
f 83 107 126 
f 107 92 126 
f 84 118 126 
o convex_2
v -0.035611 -0.002936 -0.057640
v -0.006510 0.033447 -0.061607
v -0.007170 0.032775 -0.058303
v 0.000769 0.010296 -0.052348
v -0.018421 0.001034 -0.070209
v -0.039578 0.017568 -0.058964
v -0.002538 0.026830 -0.069545
v -0.037592 0.015585 -0.068221
v -0.019737 0.028813 -0.052348
v -0.030318 0.009640 -0.052348
v -0.017100 0.032123 -0.065578
v -0.029653 -0.006906 -0.063590
v 0.002089 0.016912 -0.066237
v 0.000104 0.024844 -0.052348
v -0.007831 0.003020 -0.052348
v -0.036931 0.001697 -0.068885
v -0.015774 -0.001613 -0.065578
v -0.042229 0.006326 -0.058964
v -0.023704 -0.006242 -0.058964
v -0.013128 0.032123 -0.068221
v -0.034946 0.022193 -0.063590
v 0.002754 0.022197 -0.060950
v -0.002538 0.016249 -0.070209
v -0.003864 0.008313 -0.065578
v -0.026346 -0.003596 -0.069545
v -0.018421 0.002361 -0.052348
v -0.036931 -0.003596 -0.063590
v -0.042229 0.011623 -0.063590
v -0.015774 0.032775 -0.058303
v -0.009156 0.030796 -0.052348
v -0.003203 0.031460 -0.064913
v -0.005189 0.004344 -0.055656
v -0.021062 -0.005583 -0.063590
v -0.031639 0.021538 -0.068221
v -0.041564 0.005003 -0.064913
v -0.030318 0.013598 -0.052348
v -0.023044 0.000378 -0.070209
v -0.029653 -0.006242 -0.058303
v -0.032960 0.023520 -0.060287
v 0.002089 0.012943 -0.052348
v -0.041564 0.008313 -0.057640
v 0.001429 0.025507 -0.064913
v -0.032299 -0.002273 -0.069545
v 0.000104 0.010956 -0.061607
v -0.039578 0.017568 -0.064254
v -0.039578 0.015585 -0.057640
v -0.003864 0.031456 -0.058303
v -0.033620 0.002361 -0.054999
v -0.040238 0.000378 -0.060950
v -0.021719 0.030137 -0.064913
v -0.025030 0.023520 -0.052348
v 0.000104 0.027490 -0.058964
v -0.009156 0.033447 -0.065578
v -0.000557 0.023520 -0.069545
v -0.022383 -0.004919 -0.066901
v -0.004529 0.026830 -0.069545
v -0.038913 0.012943 -0.068221
v -0.002538 0.012283 -0.068221
v 0.002089 0.019547 -0.052348
v -0.006510 0.030796 -0.068885
v -0.034946 -0.004919 -0.058964
v -0.042229 0.012943 -0.060950
v -0.040899 0.003020 -0.058303
v -0.020398 0.028813 -0.068221
f 186 182 190 
f 130 135 136 
f 135 130 140 
f 130 136 141 
f 143 131 150 
f 141 136 152 
f 129 128 155 
f 135 140 156 
f 129 155 156 
f 155 135 156 
f 130 141 158 
f 143 150 158 
f 145 138 159 
f 141 145 159 
f 158 141 159 
f 143 158 159 
f 142 153 161 
f 144 154 161 
f 136 135 162 
f 149 131 163 
f 131 151 163 
f 134 160 163 
f 138 145 164 
f 145 141 164 
f 152 127 164 
f 141 152 164 
f 132 135 165 
f 147 132 165 
f 135 155 165 
f 140 130 166 
f 139 148 166 
f 136 162 167 
f 148 139 168 
f 133 157 168 
f 151 138 169 
f 138 153 169 
f 153 142 169 
f 134 163 169 
f 163 151 169 
f 150 139 170 
f 130 158 170 
f 158 150 170 
f 166 130 170 
f 139 166 170 
f 132 147 171 
f 160 134 171 
f 147 160 171 
f 167 162 172 
f 128 129 173 
f 129 156 173 
f 156 140 173 
f 157 128 173 
f 127 152 174 
f 152 136 174 
f 136 167 174 
f 144 161 175 
f 161 153 175 
f 155 137 176 
f 160 147 176 
f 147 165 176 
f 165 155 176 
f 135 132 177 
f 162 135 177 
f 132 172 177 
f 172 162 177 
f 140 148 178 
f 148 168 178 
f 168 157 178 
f 173 140 178 
f 157 173 178 
f 146 137 179 
f 155 128 179 
f 137 155 179 
f 128 157 179 
f 149 133 180 
f 139 149 180 
f 133 168 180 
f 168 139 180 
f 131 143 181 
f 151 131 181 
f 138 151 181 
f 159 138 181 
f 143 159 181 
f 133 149 182 
f 149 163 182 
f 163 160 182 
f 142 161 183 
f 161 154 183 
f 134 169 183 
f 169 142 183 
f 171 134 183 
f 154 171 183 
f 131 149 184 
f 149 139 184 
f 139 150 184 
f 150 131 184 
f 148 140 185 
f 140 166 185 
f 166 148 185 
f 157 133 186 
f 146 179 186 
f 179 157 186 
f 133 182 186 
f 153 138 187 
f 138 164 187 
f 164 127 187 
f 175 153 187 
f 154 144 188 
f 144 167 188 
f 132 171 188 
f 171 154 188 
f 172 132 188 
f 167 172 188 
f 167 144 189 
f 127 174 189 
f 174 167 189 
f 144 175 189 
f 187 127 189 
f 175 187 189 
f 137 146 190 
f 176 137 190 
f 160 176 190 
f 182 160 190 
f 146 186 190 
o convex_3
v -0.007832 0.029477 -0.048377
v -0.028998 0.009635 -0.052348
v -0.025687 0.006325 -0.052348
v -0.021058 0.003018 -0.036472
v 0.002093 -0.003598 -0.037134
v -0.016429 0.025504 -0.036472
v 0.002093 0.012945 -0.052348
v 0.001429 0.020878 -0.036472
v -0.020398 0.028151 -0.052348
v -0.009819 0.002358 -0.052348
v -0.024363 0.016244 -0.036472
v 0.000106 0.024844 -0.052348
v -0.017750 0.002358 -0.052348
v -0.015763 -0.000288 -0.036472
v -0.028998 0.014918 -0.051686
v -0.007832 0.026164 -0.036472
v -0.013127 0.030800 -0.052348
v -0.022379 0.020878 -0.036472
v -0.024363 0.008311 -0.036472
v -0.005184 0.004342 -0.052348
v 0.002093 0.019554 -0.036472
v -0.003200 0.028151 -0.050362
v 0.001429 -0.003598 -0.036472
v -0.025027 0.022861 -0.052348
v 0.002093 0.020214 -0.052348
v -0.013778 0.027491 -0.039780
v 0.000769 0.010298 -0.052348
v -0.021058 0.024844 -0.042425
v -0.017750 0.029477 -0.051024
v -0.021719 0.003682 -0.052348
v -0.005184 0.029477 -0.052348
v 0.000106 0.022197 -0.036472
f 212 206 222 
f 192 193 194 
f 193 192 197 
f 196 194 198 
f 197 192 199 
f 193 197 200 
f 194 196 201 
f 197 199 202 
f 193 200 203 
f 200 195 203 
f 198 194 204 
f 196 198 206 
f 202 199 207 
f 201 196 208 
f 205 201 208 
f 192 194 209 
f 194 201 209 
f 205 192 209 
f 201 205 209 
f 195 200 210 
f 200 197 210 
f 195 197 211 
f 202 198 211 
f 198 204 211 
f 198 202 212 
f 191 206 212 
f 203 195 213 
f 204 203 213 
f 195 211 213 
f 211 204 213 
f 199 192 214 
f 192 205 214 
f 205 208 214 
f 197 202 215 
f 211 197 215 
f 202 211 215 
f 206 191 216 
f 196 206 216 
f 191 207 216 
f 197 195 217 
f 195 210 217 
f 210 197 217 
f 208 196 218 
f 199 214 218 
f 214 208 218 
f 207 199 219 
f 196 216 219 
f 216 207 219 
f 218 196 219 
f 199 218 219 
f 194 193 220 
f 193 203 220 
f 204 194 220 
f 203 204 220 
f 207 191 221 
f 202 207 221 
f 212 202 221 
f 191 212 221 
f 206 198 222 
f 198 212 222 
o convex_4
v 0.019950 -0.020130 0.029018
v 0.009366 0.038077 0.032327
v 0.011351 0.037404 0.033651
v -0.034946 -0.020130 0.041585
v 0.030534 -0.010867 0.043571
v -0.012453 0.028814 0.043571
v -0.019734 0.029472 0.029018
v 0.037814 0.017560 0.029018
v -0.017749 -0.015498 0.029018
v -0.007165 -0.036674 0.040262
v 0.029208 0.025499 0.038279
v -0.037598 -0.004252 0.037615
v -0.019074 -0.025428 0.043571
v 0.031193 -0.018147 0.035634
v 0.008707 0.027489 0.043571
v -0.022378 0.020209 0.043571
v 0.020609 0.035428 0.029018
v 0.015980 -0.026079 0.043571
v 0.039799 0.003680 0.031004
v -0.015764 -0.036674 0.039600
v 0.002752 -0.025428 0.029018
v 0.037814 0.014253 0.036295
v 0.000108 -0.035349 0.036956
v -0.024363 -0.000293 0.029018
v 0.028549 0.006321 0.043571
v 0.033844 -0.010208 0.029018
v -0.005180 0.036087 0.036295
v 0.029874 0.030131 0.034310
v -0.034287 -0.021454 0.040262
v -0.023044 -0.032693 0.042248
v 0.000108 0.036753 0.029018
v 0.037814 -0.004918 0.034974
v 0.002752 0.030797 0.042909
v 0.019283 0.035428 0.034974
v -0.034946 0.002348 0.035634
v -0.034287 -0.018147 0.042248
v -0.015764 0.030131 0.038939
v -0.037598 -0.005576 0.039600
v -0.037598 -0.007559 0.037615
v -0.023703 -0.032693 0.040262
v 0.026564 -0.020789 0.040923
v 0.034503 0.025506 0.030341
v -0.025688 0.011604 0.043571
v 0.021276 -0.024762 0.036956
v 0.011351 -0.024762 0.029018
v 0.028549 -0.019471 0.033651
v 0.022594 0.015577 0.043571
v 0.033844 0.022858 0.036956
v 0.039132 0.012936 0.034974
v -0.001210 -0.024762 0.029018
v -0.014445 -0.036001 0.041585
v 0.035163 -0.008225 0.038939
v 0.031193 -0.003593 0.043571
v 0.025238 0.030789 0.036956
v -0.008491 0.035428 0.032990
v 0.037814 -0.002269 0.029018
v -0.023703 -0.021454 0.043571
v -0.034287 0.003672 0.036956
v -0.001877 0.034763 0.038939
v 0.027890 -0.016823 0.043571
v -0.020400 0.025499 0.038939
v 0.036488 -0.008884 0.032327
v 0.027890 0.031455 0.029018
v 0.037147 0.020209 0.034310
f 244 271 286 
f 223 229 230 
f 229 223 231 
f 227 228 235 
f 228 227 237 
f 235 228 238 
f 230 229 239 
f 227 235 240 
f 231 223 243 
f 240 232 245 
f 232 242 245 
f 242 243 245 
f 229 231 246 
f 237 227 247 
f 223 230 248 
f 240 235 252 
f 226 251 252 
f 224 239 253 
f 239 229 253 
f 249 224 253 
f 228 237 255 
f 224 225 256 
f 239 224 256 
f 250 239 256 
f 229 246 257 
f 226 252 258 
f 238 228 259 
f 228 249 259 
f 226 258 260 
f 246 231 261 
f 251 226 261 
f 231 251 261 
f 234 257 261 
f 257 246 261 
f 226 260 261 
f 260 234 261 
f 231 242 262 
f 251 231 262 
f 242 252 262 
f 252 251 262 
f 235 238 265 
f 238 260 265 
f 260 258 265 
f 240 245 266 
f 236 263 266 
f 263 240 266 
f 243 223 267 
f 245 243 267 
f 223 248 268 
f 248 236 268 
f 236 266 268 
f 266 245 268 
f 267 223 268 
f 245 267 268 
f 233 237 269 
f 237 247 269 
f 247 233 269 
f 233 247 270 
f 247 244 270 
f 250 233 270 
f 241 230 271 
f 254 241 271 
f 242 231 272 
f 231 243 272 
f 243 242 272 
f 232 240 273 
f 242 232 273 
f 252 242 273 
f 240 252 273 
f 236 254 274 
f 254 271 274 
f 274 271 275 
f 247 227 275 
f 244 247 275 
f 271 244 275 
f 227 274 275 
f 237 233 276 
f 233 250 276 
f 255 237 276 
f 250 256 276 
f 256 255 276 
f 253 229 277 
f 249 253 277 
f 229 259 277 
f 259 249 277 
f 230 241 278 
f 248 230 278 
f 252 235 279 
f 258 252 279 
f 235 265 279 
f 265 258 279 
f 229 257 280 
f 257 234 280 
f 234 260 280 
f 260 238 280 
f 225 224 281 
f 224 249 281 
f 249 228 281 
f 228 255 281 
f 256 225 281 
f 255 256 281 
f 227 240 282 
f 263 236 282 
f 240 263 282 
f 274 227 282 
f 236 274 282 
f 238 259 283 
f 259 229 283 
f 229 280 283 
f 280 238 283 
f 236 248 284 
f 254 236 284 
f 241 254 284 
f 278 241 284 
f 248 278 284 
f 230 239 285 
f 239 250 285 
f 264 230 285 
f 250 264 285 
f 230 264 286 
f 264 250 286 
f 270 244 286 
f 250 270 286 
f 271 230 286 
o convex_5
v 0.030538 -0.006897 0.043571
v -0.025691 0.000375 0.045556
v -0.025691 0.000375 0.047540
v 0.001438 0.029477 0.044235
v -0.003196 -0.010211 0.059448
v 0.002099 -0.027413 0.043571
v -0.003856 0.010288 0.056137
v -0.022377 0.020211 0.043571
v -0.018409 -0.008223 0.057463
v 0.005401 -0.022117 0.054153
v -0.015762 -0.022117 0.043571
v 0.017306 -0.000282 0.052170
v -0.017088 0.010950 0.054816
v 0.017967 0.019548 0.043571
v -0.008491 -0.020791 0.055478
v 0.021269 -0.018141 0.048864
v 0.018627 -0.024762 0.043571
v -0.011799 0.024182 0.048202
v 0.013338 -0.010874 0.054815
v -0.003196 0.001032 0.058786
v 0.006722 0.013601 0.052170
v -0.023704 0.006317 0.052168
v 0.026564 0.008305 0.044235
v -0.019735 -0.012188 0.054154
v -0.015101 -0.000944 0.058786
v -0.021717 -0.011531 0.043571
v -0.010472 0.028809 0.043571
v 0.004075 -0.000282 0.057461
v 0.025243 -0.004258 0.048204
v -0.007164 -0.015496 0.058786
v -0.005183 0.018886 0.052168
v -0.000549 -0.025425 0.050188
v -0.019075 0.021531 0.046881
v -0.025691 0.009625 0.043571
v 0.010691 -0.026087 0.047542
v 0.027885 -0.015501 0.044895
v -0.024364 -0.003595 0.051509
v 0.004735 -0.016827 0.056799
v 0.012678 0.020874 0.046218
v 0.017306 0.006985 0.050187
v -0.010472 0.010950 0.056137
v -0.021056 0.000375 0.056137
v 0.002099 0.021536 0.049526
v -0.013780 -0.017484 0.055478
v 0.023922 -0.012856 0.048864
v 0.012678 -0.016827 0.054153
v 0.013998 -0.023442 0.049526
v -0.011138 -0.010868 0.059448
v -0.022377 -0.010211 0.049526
v -0.005183 -0.024762 0.049526
v -0.023704 0.013595 0.048202
v 0.006062 -0.006240 0.057461
v 0.005401 0.003678 0.056139
v -0.014441 0.017566 0.052168
v -0.000549 -0.020791 0.056137
v -0.020396 0.010288 0.053492
v -0.010472 -0.002270 0.059448
v -0.025691 0.006980 0.048202
v 0.030538 -0.004258 0.044235
v 0.019288 0.015583 0.045557
v -0.011799 -0.015496 0.058124
v 0.009370 0.026170 0.043571
v 0.024583 -0.020134 0.044235
v 0.002754 -0.024105 0.052830
f 296 341 350 
f 287 292 294 
f 294 292 297 
f 287 294 300 
f 292 287 303 
f 287 300 309 
f 294 297 312 
f 300 294 313 
f 304 290 313 
f 298 305 315 
f 309 298 315 
f 290 304 317 
f 313 294 319 
f 304 313 319 
f 288 289 320 
f 312 288 320 
f 294 312 320 
f 292 303 321 
f 318 292 321 
f 310 295 323 
f 291 316 324 
f 298 309 326 
f 306 293 327 
f 299 311 327 
f 293 317 327 
f 295 311 328 
f 311 299 328 
f 308 323 328 
f 323 295 328 
f 293 307 329 
f 317 293 329 
f 290 317 329 
f 325 290 329 
f 307 325 329 
f 297 301 330 
f 310 297 330 
f 315 305 331 
f 302 322 331 
f 324 296 332 
f 305 324 332 
f 302 331 332 
f 331 305 332 
f 321 303 333 
f 332 296 333 
f 302 332 333 
f 311 295 334 
f 316 291 334 
f 289 288 335 
f 297 310 335 
f 288 312 335 
f 312 297 335 
f 323 289 335 
f 310 323 335 
f 297 292 336 
f 301 297 336 
f 292 318 336 
f 318 301 336 
f 319 294 337 
f 294 320 337 
f 305 298 338 
f 306 291 338 
f 298 314 338 
f 314 306 338 
f 291 324 338 
f 324 305 338 
f 293 306 339 
f 307 293 339 
f 314 298 339 
f 306 314 339 
f 298 326 339 
f 326 307 339 
f 317 304 340 
f 304 319 340 
f 299 327 340 
f 327 317 340 
f 316 301 341 
f 296 324 341 
f 324 316 341 
f 328 299 342 
f 308 328 342 
f 337 308 342 
f 319 337 342 
f 299 340 342 
f 340 319 342 
f 291 306 343 
f 306 327 343 
f 327 311 343 
f 334 291 343 
f 311 334 343 
f 320 289 344 
f 289 323 344 
f 323 308 344 
f 308 337 344 
f 337 320 344 
f 287 309 345 
f 309 315 345 
f 322 287 345 
f 315 331 345 
f 331 322 345 
f 309 300 346 
f 300 325 346 
f 325 307 346 
f 326 309 346 
f 307 326 346 
f 295 310 347 
f 301 316 347 
f 330 301 347 
f 310 330 347 
f 334 295 347 
f 316 334 347 
f 313 290 348 
f 300 313 348 
f 290 325 348 
f 325 300 348 
f 303 287 349 
f 287 322 349 
f 322 302 349 
f 302 333 349 
f 333 303 349 
f 301 318 350 
f 318 321 350 
f 333 296 350 
f 321 333 350 
f 341 301 350 
o convex_6
v 0.031861 -0.000296 -0.058305
v -0.003861 -0.024097 -0.064254
v -0.003196 -0.025421 -0.065578
v 0.015322 0.009629 -0.070209
v 0.006727 0.006986 -0.052348
v 0.021273 -0.031379 -0.061607
v 0.023920 -0.023439 -0.069545
v 0.008052 -0.017486 -0.052348
v 0.029875 0.001690 -0.052348
v 0.027228 0.010292 -0.066237
v 0.000772 -0.013518 -0.070209
v 0.009374 -0.030055 -0.070209
v 0.006727 -0.034027 -0.060950
v 0.029875 0.002352 -0.069545
v 0.020612 0.010954 -0.052348
v 0.027228 -0.011532 -0.052348
v 0.010696 0.010954 -0.064913
v -0.003861 -0.018810 -0.060948
v 0.028550 -0.017486 -0.064254
v 0.003419 0.001690 -0.061607
v 0.017308 -0.032703 -0.059626
v 0.002758 -0.001616 -0.052348
v -0.001214 -0.028731 -0.060948
v 0.014661 0.012940 -0.059626
v 0.017308 -0.033361 -0.065578
v 0.004080 -0.032703 -0.066237
v 0.000772 -0.025421 -0.070209
v -0.002536 -0.013518 -0.065578
v 0.007391 0.005000 -0.067560
v 0.031197 -0.004926 -0.066898
v 0.021934 0.012940 -0.065578
v 0.002758 -0.008893 -0.052348
v 0.021273 -0.016819 -0.052348
v 0.029875 -0.006907 -0.052348
v 0.025242 -0.026083 -0.060950
v 0.015322 -0.030055 -0.070209
v 0.029875 0.006981 -0.062266
v 0.019951 0.009629 -0.070209
v 0.023920 -0.027412 -0.066901
v 0.031861 -0.004926 -0.058967
v 0.031861 0.002352 -0.064913
v 0.025906 0.007643 -0.052348
v 0.025906 0.011616 -0.062931
v 0.003419 0.001690 -0.052348
v 0.013343 0.010954 -0.052348
v 0.011360 -0.034689 -0.064254
v 0.015983 0.012940 -0.066237
v 0.023256 -0.028069 -0.059626
v -0.003196 -0.018810 -0.066901
v 0.011360 -0.033361 -0.059626
v 0.003419 -0.032032 -0.060287
v 0.025906 -0.018810 -0.069545
v 0.010038 0.010954 -0.060287
v 0.011360 0.006319 -0.070209
v 0.021273 0.012940 -0.059626
v 0.006066 0.006319 -0.061607
v -0.003196 -0.022777 -0.060289
v 0.025245 0.008967 -0.069545
v -0.002536 -0.012856 -0.062270
v 0.026567 -0.023439 -0.065574
v 0.005405 -0.014842 -0.052348
v 0.010038 -0.034027 -0.066237
v 0.027228 -0.021458 -0.061607
v 0.006727 0.005662 -0.066237
f 370 406 414 
f 355 358 359 
f 361 354 362 
f 355 359 365 
f 359 358 366 
f 358 355 372 
f 352 353 373 
f 356 371 375 
f 373 353 376 
f 361 362 377 
f 376 353 377 
f 362 376 377 
f 358 372 382 
f 372 368 382 
f 366 358 383 
f 351 359 384 
f 359 366 384 
f 362 354 386 
f 359 351 387 
f 386 354 388 
f 364 386 388 
f 356 375 389 
f 385 356 389 
f 386 357 389 
f 375 386 389 
f 369 380 390 
f 351 384 390 
f 364 360 391 
f 380 364 391 
f 387 351 391 
f 360 387 391 
f 351 390 391 
f 390 380 391 
f 365 359 392 
f 359 387 392 
f 392 387 393 
f 360 381 393 
f 387 360 393 
f 365 392 393 
f 372 355 394 
f 368 372 394 
f 355 365 395 
f 365 374 395 
f 375 371 396 
f 363 376 396 
f 354 367 397 
f 367 374 397 
f 374 381 397 
f 388 354 397 
f 381 388 397 
f 371 356 398 
f 366 383 398 
f 383 371 398 
f 384 366 398 
f 385 384 398 
f 356 385 398 
f 353 352 399 
f 352 368 399 
f 377 353 399 
f 361 377 399 
f 378 361 399 
f 368 378 399 
f 383 358 400 
f 371 383 400 
f 363 396 400 
f 396 371 400 
f 373 376 401 
f 376 363 401 
f 400 358 401 
f 363 400 401 
f 364 380 402 
f 357 386 402 
f 386 364 402 
f 374 367 403 
f 355 395 403 
f 395 374 403 
f 354 361 404 
f 367 354 404 
f 361 379 404 
f 374 365 405 
f 381 374 405 
f 393 381 405 
f 365 393 405 
f 394 355 406 
f 370 394 406 
f 403 367 406 
f 355 403 406 
f 368 352 407 
f 352 373 407 
f 382 368 407 
f 360 364 408 
f 381 360 408 
f 364 388 408 
f 388 381 408 
f 378 368 409 
f 370 378 409 
f 394 370 409 
f 368 394 409 
f 380 369 410 
f 389 357 410 
f 385 389 410 
f 402 380 410 
f 357 402 410 
f 358 382 411 
f 401 358 411 
f 373 401 411 
f 407 373 411 
f 382 407 411 
f 376 362 412 
f 362 386 412 
f 386 375 412 
f 375 396 412 
f 396 376 412 
f 384 385 413 
f 369 390 413 
f 390 384 413 
f 410 369 413 
f 385 410 413 
f 361 378 414 
f 378 370 414 
f 379 361 414 
f 367 404 414 
f 404 379 414 
f 406 367 414 
o convex_7
v 0.002093 -0.006903 -0.049700
v 0.002754 0.017565 -0.036472
v 0.002754 0.018232 -0.037796
v 0.003416 -0.008889 -0.052348
v 0.003416 -0.010211 -0.036472
v 0.002093 -0.008228 -0.036472
v 0.002093 0.016907 -0.041767
v 0.003416 -0.000949 -0.052348
v 0.003416 0.001034 -0.036472
v 0.002754 -0.010875 -0.045732
v 0.002093 0.017565 -0.036472
v 0.002754 -0.000949 -0.052348
f 421 422 426 
f 419 416 420 
f 415 420 421 
f 419 418 422 
f 421 417 422 
f 417 416 423 
f 416 419 423 
f 422 417 423 
f 419 422 423 
f 415 418 424 
f 418 419 424 
f 420 415 424 
f 419 420 424 
f 416 417 425 
f 420 416 425 
f 417 421 425 
f 421 420 425 
f 418 415 426 
f 415 421 426 
f 422 418 426 
o convex_8
v 0.029876 -0.004258 -0.049700
v 0.003416 -0.011533 -0.048377
v 0.003416 -0.011533 -0.036472
v 0.013341 0.010952 -0.050362
v 0.020614 0.008967 -0.036472
v 0.019951 -0.016825 -0.036472
v 0.016646 -0.017487 -0.052348
v 0.003416 0.002353 -0.036472
v 0.003416 0.001691 -0.052348
v 0.025906 0.007645 -0.052348
v 0.027890 -0.000954 -0.036472
v 0.008710 -0.017487 -0.052348
v 0.026566 -0.012195 -0.052348
v 0.026566 -0.009551 -0.036472
v 0.011357 -0.017487 -0.036472
v 0.010694 0.008967 -0.036472
v 0.006726 0.006983 -0.052348
v 0.029876 0.001031 -0.052348
v 0.019951 0.010952 -0.052348
v 0.027227 0.001691 -0.036472
v 0.022598 -0.016162 -0.052348
v 0.003416 -0.010873 -0.052348
v 0.007387 -0.016162 -0.036472
v 0.016646 0.010290 -0.039780
v 0.006066 0.006320 -0.037134
v 0.029213 -0.008225 -0.052348
v 0.023922 -0.013517 -0.036472
v 0.006726 -0.016162 -0.052348
v 0.027227 0.005660 -0.049040
v 0.027890 -0.006243 -0.037134
v 0.017967 -0.017487 -0.036472
v 0.010694 0.009627 -0.052348
f 443 451 458 
f 431 429 432 
f 428 429 434 
f 429 431 434 
f 428 434 435 
f 433 435 436 
f 431 432 437 
f 435 433 438 
f 433 436 439 
f 437 432 440 
f 432 429 441 
f 438 433 441 
f 434 431 442 
f 435 434 443 
f 436 435 443 
f 437 427 444 
f 439 436 444 
f 431 436 445 
f 436 443 445 
f 431 437 446 
f 437 444 446 
f 433 439 447 
f 428 435 448 
f 435 438 448 
f 441 429 449 
f 438 441 449 
f 430 442 450 
f 442 431 450 
f 445 430 450 
f 431 445 450 
f 434 442 451 
f 443 434 451 
f 444 427 452 
f 439 444 452 
f 440 432 453 
f 432 447 453 
f 447 439 453 
f 452 440 453 
f 439 452 453 
f 429 428 454 
f 428 448 454 
f 448 438 454 
f 449 429 454 
f 438 449 454 
f 436 431 455 
f 444 436 455 
f 431 446 455 
f 446 444 455 
f 427 437 456 
f 437 440 456 
f 452 427 456 
f 440 452 456 
f 432 441 457 
f 441 433 457 
f 447 432 457 
f 433 447 457 
f 442 430 458 
f 430 445 458 
f 445 443 458 
f 451 442 458 
o convex_9
v -0.010474 -0.008887 -0.030518
v -0.007824 0.026170 -0.035148
v -0.007164 0.024845 -0.030518
v 0.027892 -0.004259 -0.036472
v -0.024368 0.008302 -0.036472
v 0.026567 0.001032 -0.030518
v 0.011348 -0.017490 -0.036472
v 0.017303 -0.017490 -0.030518
v -0.023703 0.013601 -0.030518
v 0.020607 0.008968 -0.036472
v -0.018408 0.024183 -0.036472
v 0.023917 -0.013520 -0.036472
v 0.026567 -0.008225 -0.030518
v -0.020393 0.002357 -0.036472
v -0.003855 -0.013520 -0.031180
v -0.021718 0.004340 -0.030518
v 0.021932 0.006981 -0.030518
v 0.000115 0.022200 -0.036472
v -0.016423 0.022862 -0.030518
v -0.002535 0.023520 -0.031180
v -0.022378 0.020212 -0.035810
v 0.027227 0.001695 -0.036472
v 0.007379 -0.016165 -0.036472
v 0.017963 -0.017490 -0.036472
v 0.012013 -0.017490 -0.030518
v -0.013779 0.026170 -0.036472
v 0.021932 -0.014840 -0.030518
v -0.024368 0.015584 -0.036472
v -0.021053 0.018888 -0.030518
v 0.025907 0.003682 -0.032504
f 480 468 488 
f 461 459 464 
f 463 462 465 
f 464 459 466 
f 459 461 467 
f 462 463 468 
f 468 463 469 
f 465 462 470 
f 462 464 471 
f 464 466 471 
f 470 462 471 
f 463 465 472 
f 459 472 473 
f 459 467 474 
f 467 463 474 
f 472 459 474 
f 463 472 474 
f 461 464 475 
f 468 469 476 
f 467 461 477 
f 460 461 478 
f 461 475 478 
f 475 468 478 
f 468 476 478 
f 476 460 478 
f 464 462 480 
f 462 468 480 
f 472 465 481 
f 465 473 481 
f 473 472 481 
f 466 465 482 
f 465 470 482 
f 466 459 483 
f 465 466 483 
f 473 465 483 
f 459 473 483 
f 461 460 484 
f 460 476 484 
f 476 469 484 
f 477 461 484 
f 469 477 484 
f 471 466 485 
f 470 471 485 
f 466 482 485 
f 482 470 485 
f 463 467 486 
f 469 463 486 
f 467 479 486 
f 479 469 486 
f 467 477 487 
f 477 469 487 
f 479 467 487 
f 469 479 487 
f 475 464 488 
f 468 475 488 
f 464 480 488 
o convex_10
v 0.026563 -0.028736 -0.009350
v 0.011350 0.015586 -0.000089
v 0.012677 0.014922 -0.000089
v 0.003417 -0.020796 -0.000089
v -0.025689 0.005659 -0.009350
v 0.012017 0.014922 -0.009350
v 0.034502 -0.008228 -0.000089
v -0.021715 0.015586 -0.000089
v -0.025029 -0.012193 -0.004719
v 0.039795 -0.010870 -0.009350
v -0.009149 -0.024102 -0.009350
v 0.035162 -0.028736 -0.008026
v 0.001437 -0.028736 -0.004719
v -0.019069 0.015586 -0.009350
v 0.030529 -0.018809 -0.000089
v -0.024362 -0.008228 -0.001412
v 0.022596 0.008306 -0.000750
v -0.025029 -0.010211 -0.009350
v 0.041122 -0.018150 -0.007364
v -0.027675 -0.005590 -0.005379
v 0.002097 -0.026089 -0.002075
v -0.021715 -0.003599 -0.000089
v 0.022596 0.007646 -0.009350
v 0.036489 -0.005590 -0.004719
v 0.001437 -0.028736 -0.008688
v 0.037149 -0.027412 -0.009350
v 0.033842 -0.016827 -0.000750
v -0.015102 -0.020796 -0.008688
v -0.023702 -0.010870 -0.002075
v 0.010690 0.015586 -0.009350
v 0.033176 -0.028736 -0.007364
v -0.000550 -0.028072 -0.004719
v 0.040455 -0.011534 -0.006704
v 0.033842 -0.004263 -0.000750
v -0.026349 -0.008228 -0.002735
v -0.027009 -0.009547 -0.007364
v -0.022382 0.012275 -0.009350
v 0.041122 -0.018150 -0.009350
v 0.004077 -0.026089 -0.002075
v -0.008489 -0.014180 -0.000089
v 0.017963 0.011616 -0.004719
v 0.039135 -0.008887 -0.008026
v 0.024583 0.005659 -0.000089
f 522 505 531 
f 491 490 492 
f 490 491 494 
f 489 493 494 
f 491 492 495 
f 492 490 496 
f 489 494 498 
f 493 489 499 
f 489 500 501 
f 494 493 502 
f 496 490 502 
f 495 492 503 
f 493 499 506 
f 496 493 508 
f 492 496 510 
f 496 504 510 
f 498 494 511 
f 511 505 512 
f 499 489 513 
f 489 501 513 
f 489 498 514 
f 500 489 514 
f 507 500 514 
f 495 503 515 
f 503 500 515 
f 507 495 515 
f 500 507 515 
f 506 499 516 
f 490 494 518 
f 502 490 518 
f 494 502 518 
f 501 500 519 
f 500 503 519 
f 501 509 520 
f 499 513 520 
f 513 501 520 
f 497 516 520 
f 516 499 520 
f 517 497 520 
f 509 517 520 
f 495 507 521 
f 521 512 522 
f 512 505 522 
f 495 521 522 
f 504 496 523 
f 496 508 523 
f 497 517 523 
f 517 504 523 
f 493 506 524 
f 508 493 524 
f 516 497 524 
f 506 516 524 
f 523 508 524 
f 497 523 524 
f 493 496 525 
f 502 493 525 
f 496 502 525 
f 514 498 526 
f 507 514 526 
f 521 507 526 
f 498 521 526 
f 503 492 527 
f 509 501 527 
f 492 509 527 
f 501 519 527 
f 519 503 527 
f 509 492 528 
f 492 510 528 
f 510 504 528 
f 504 517 528 
f 517 509 528 
f 494 491 529 
f 491 505 529 
f 511 494 529 
f 505 511 529 
f 498 511 530 
f 511 512 530 
f 521 498 530 
f 512 521 530 
f 491 495 531 
f 505 491 531 
f 495 522 531 
o convex_11
v -0.036273 0.017571 -0.000089
v -0.028993 0.034108 -0.000089
v -0.028993 0.034108 -0.001412
v 0.010693 0.015586 -0.001412
v -0.018409 0.015586 -0.009350
v 0.000098 0.022202 -0.009350
v -0.031643 0.025507 -0.006042
v 0.003413 0.020878 -0.000089
v 0.009362 0.015586 -0.009350
v -0.041567 0.022863 -0.000750
v -0.023044 0.015586 -0.000089
v -0.027673 0.030799 -0.005379
v -0.040242 0.028154 -0.000089
v -0.009820 0.022863 -0.009350
v -0.031643 0.018233 -0.005379
v 0.010028 0.015586 -0.000089
v 0.001428 0.022202 -0.002735
v -0.028993 0.032785 -0.004059
v 0.010693 0.016247 -0.004719
v -0.040242 0.028154 -0.000750
v -0.033628 0.016909 -0.002075
v -0.004526 0.023525 -0.009350
f 543 549 553 
f 533 532 539 
f 535 536 540 
f 536 537 540 
f 536 535 542 
f 539 532 542 
f 532 533 544 
f 533 534 544 
f 541 532 544 
f 537 536 545 
f 536 538 545 
f 538 543 545 
f 538 536 546 
f 541 538 546 
f 535 539 547 
f 542 535 547 
f 539 542 547 
f 534 533 548 
f 537 534 548 
f 533 539 548 
f 543 538 549 
f 539 535 550 
f 535 540 550 
f 540 537 550 
f 537 548 550 
f 548 539 550 
f 538 541 551 
f 544 534 551 
f 541 544 551 
f 534 549 551 
f 549 538 551 
f 532 541 552 
f 542 532 552 
f 536 542 552 
f 546 536 552 
f 541 546 552 
f 534 537 553 
f 537 545 553 
f 545 543 553 
f 549 534 553 
o convex_12
v 0.029873 -0.018147 -0.000089
v -0.028989 0.034108 0.001234
v -0.028332 0.033444 0.002557
v -0.013121 -0.018810 0.003880
v 0.019950 0.011611 0.004542
v -0.037598 0.017567 -0.000089
v -0.037598 0.032775 0.004542
v 0.020607 0.009632 -0.000089
v 0.025901 -0.012196 0.004542
v -0.009814 -0.013512 -0.000089
v -0.037598 0.015577 0.004542
v -0.006506 -0.021459 0.004542
v 0.033845 -0.008225 0.000573
v -0.028989 0.034108 -0.000089
v 0.006054 -0.020795 -0.000089
v -0.000555 0.022860 -0.000089
v -0.037598 0.030796 -0.000089
v 0.000760 -0.021459 0.004542
v -0.026346 0.031459 0.004542
v 0.027223 -0.005577 0.004542
v 0.031859 -0.003597 -0.000089
v -0.021059 -0.002928 -0.000089
v -0.015765 -0.016167 0.004542
v 0.000103 0.022196 0.001897
v 0.029209 -0.016161 0.001897
v 0.033845 -0.012854 0.000573
v -0.011793 -0.016825 0.001897
v -0.015765 -0.016167 0.003880
v 0.019292 0.012275 0.004542
f 577 572 582 
f 556 555 560 
f 554 559 561 
f 558 560 562 
f 559 554 563 
f 560 559 564 
f 562 560 564 
f 562 564 565 
f 560 555 567 
f 561 559 567 
f 563 554 568 
f 565 557 568 
f 567 555 569 
f 561 567 569 
f 559 560 570 
f 567 559 570 
f 560 567 570 
f 562 565 571 
f 568 554 571 
f 565 568 571 
f 556 560 572 
f 560 558 572 
f 558 562 573 
f 566 558 573 
f 554 561 574 
f 561 558 574 
f 558 566 574 
f 559 563 575 
f 565 564 576 
f 557 565 576 
f 555 556 577 
f 569 555 577 
f 556 572 577 
f 571 554 578 
f 562 571 578 
f 573 562 579 
f 566 573 579 
f 554 574 579 
f 574 566 579 
f 578 554 579 
f 562 578 579 
f 563 568 580 
f 568 557 580 
f 575 563 580 
f 575 580 581 
f 564 559 581 
f 559 575 581 
f 557 576 581 
f 576 564 581 
f 580 557 581 
f 558 561 582 
f 561 569 582 
f 572 558 582 
f 569 577 582 
o convex_13
v -0.036274 0.014925 0.011819
v -0.036936 0.021543 0.024387
v -0.037598 0.021543 0.024387
v -0.037598 0.032124 0.011819
v -0.032967 0.027492 0.012481
v -0.037598 0.014263 0.012481
v -0.032967 0.022202 0.011819
v -0.036936 0.032124 0.014466
v -0.036936 0.018235 0.023064
v -0.035613 0.015586 0.013806
f 591 588 592 
f 585 586 588 
f 586 583 588 
f 583 586 589 
f 586 587 589 
f 587 584 589 
f 585 584 590 
f 586 585 590 
f 587 586 590 
f 584 587 590 
f 584 585 591 
f 585 588 591 
f 589 584 591 
f 589 591 592 
f 588 583 592 
f 583 589 592 
o convex_14
v -0.011137 -0.024767 0.011157
v -0.027014 -0.005578 0.011157
v -0.025690 -0.002283 0.009172
v -0.011137 0.018232 0.011819
v -0.011137 -0.020133 0.004542
v -0.021057 0.018232 0.004542
v -0.011799 0.018232 0.004542
v -0.025690 0.006320 0.011819
v -0.018415 -0.012855 0.004542
v -0.019076 -0.020793 0.011819
v -0.011137 -0.024767 0.011819
v -0.021057 -0.006243 0.005204
v -0.013786 -0.019472 0.004542
v -0.021719 0.010955 0.011819
v -0.027014 0.002347 0.011819
v -0.011137 0.006986 0.004542
v -0.019076 -0.020793 0.011157
v -0.013124 -0.024767 0.011157
f 602 609 610 
f 596 593 597 
f 598 596 599 
f 597 598 599 
f 598 597 601 
f 596 600 602 
f 593 596 603 
f 596 602 603 
f 594 595 604 
f 595 598 604 
f 601 594 604 
f 598 601 604 
f 601 597 605 
f 596 598 606 
f 600 596 606 
f 598 600 606 
f 595 594 607 
f 598 595 607 
f 600 598 607 
f 594 602 607 
f 602 600 607 
f 596 597 608 
f 599 596 608 
f 597 599 608 
f 594 601 609 
f 602 594 609 
f 601 605 609 
f 609 605 610 
f 597 593 610 
f 593 603 610 
f 603 602 610 
f 605 597 610 
o convex_15
v -0.011137 0.018894 0.004543
v -0.025028 0.030139 0.005204
v -0.025028 0.030139 0.004543
v -0.027014 0.018894 0.004543
v -0.027014 0.024185 0.008511
v -0.011799 0.022202 0.005204
v -0.012461 0.018232 0.005865
v -0.027014 0.027491 0.008511
v -0.027014 0.030139 0.004543
v -0.024366 0.018232 0.005204
f 611 617 620 
f 613 611 614 
f 611 613 616 
f 613 612 616 
f 611 616 617 
f 614 615 618 
f 616 612 618 
f 615 617 618 
f 617 616 618 
f 612 613 619 
f 613 614 619 
f 618 612 619 
f 614 618 619 
f 614 611 620 
f 615 614 620 
f 617 615 620 
o convex_16
v -0.013117 -0.018151 -0.025226
v -0.002536 0.024847 -0.019275
v -0.004518 0.023521 -0.009350
v 0.040461 -0.018151 -0.009350
v -0.025026 -0.010209 -0.009350
v 0.025243 0.003676 -0.030518
v -0.022377 0.016244 -0.030518
v 0.015983 -0.017486 -0.030518
v 0.020613 0.008967 -0.009350
v -0.023038 0.011614 -0.009350
v -0.018408 -0.018151 -0.009350
v -0.012457 0.024182 -0.030518
v -0.021717 0.004333 -0.030518
v 0.036485 -0.018151 -0.018612
v -0.026347 -0.003597 -0.019275
v -0.015105 0.023521 -0.017290
v 0.037812 -0.008227 -0.010013
v 0.017304 0.013601 -0.023241
v -0.003197 0.023521 -0.030518
v -0.007827 -0.012857 -0.030518
v -0.021717 -0.014178 -0.020593
v 0.026564 -0.007562 -0.030518
v -0.027014 0.003676 -0.012000
v 0.006070 0.020874 -0.019275
v 0.039133 -0.016826 -0.015305
v 0.023922 0.007641 -0.023241
v -0.022377 0.016244 -0.017290
v -0.000548 -0.018151 -0.029194
v -0.012457 0.021539 -0.009350
v -0.016426 -0.012196 -0.027209
v -0.023698 0.010953 -0.030518
v 0.004742 0.019552 -0.009350
v -0.011796 0.024847 -0.016627
v -0.019735 -0.018151 -0.015305
v 0.019953 -0.016161 -0.030518
v -0.017087 0.022199 -0.030518
v -0.027014 -0.001610 -0.009350
v -0.023038 -0.009548 -0.022578
v 0.006070 0.020874 -0.023241
v 0.021934 0.009627 -0.019275
v -0.025026 -0.010209 -0.016627
v 0.026564 0.000372 -0.030518
v 0.015983 0.013601 -0.025887
v -0.020396 0.016244 -0.011335
v -0.027014 0.003019 -0.015968
v 0.017304 0.013601 -0.019934
v 0.038473 -0.010870 -0.012000
v -0.025026 0.010292 -0.013981
v -0.027014 -0.004258 -0.014642
v 0.037812 -0.008227 -0.009350
v -0.003197 0.024847 -0.023241
v 0.023262 0.005658 -0.030518
v 0.023922 -0.012192 -0.030518
v -0.017747 -0.018151 -0.021256
v -0.018408 0.020874 -0.017953
v -0.013117 -0.008227 -0.030518
v -0.019075 -0.012196 -0.025226
v 0.038473 -0.018151 -0.016627
v -0.012457 0.024847 -0.021256
v -0.025026 -0.006240 -0.021256
f 658 661 680 
f 624 623 625 
f 627 626 628 
f 623 624 629 
f 625 623 630 
f 621 624 631 
f 624 625 631 
f 626 627 632 
f 627 628 633 
f 624 621 634 
f 626 632 639 
f 633 628 640 
f 628 626 642 
f 637 626 646 
f 634 621 648 
f 628 634 648 
f 621 640 648 
f 640 628 648 
f 630 623 649 
f 640 621 650 
f 627 633 651 
f 622 623 652 
f 623 629 652 
f 644 622 652 
f 623 622 653 
f 649 623 653 
f 636 649 653 
f 621 631 654 
f 631 625 654 
f 634 628 655 
f 628 642 655 
f 632 627 656 
f 625 630 657 
f 630 643 657 
f 622 644 659 
f 644 638 659 
f 646 638 660 
f 654 625 661 
f 641 654 661 
f 658 641 661 
f 642 626 662 
f 639 659 663 
f 659 638 663 
f 647 630 664 
f 630 649 664 
f 649 636 664 
f 627 651 665 
f 651 635 665 
f 657 643 665 
f 638 644 666 
f 652 629 666 
f 644 652 666 
f 629 660 666 
f 660 638 666 
f 637 624 667 
f 626 637 667 
f 624 645 667 
f 662 626 667 
f 645 662 667 
f 643 630 668 
f 630 647 668 
f 647 627 668 
f 627 665 668 
f 665 643 668 
f 625 657 669 
f 661 625 669 
f 635 661 669 
f 665 635 669 
f 657 665 669 
f 629 624 670 
f 624 637 670 
f 637 646 670 
f 660 629 670 
f 646 660 670 
f 639 632 671 
f 653 622 671 
f 622 659 671 
f 659 639 671 
f 626 639 672 
f 646 626 672 
f 638 646 672 
f 663 638 672 
f 639 663 672 
f 642 634 673 
f 634 655 673 
f 655 642 673 
f 621 654 674 
f 654 641 674 
f 627 647 675 
f 656 627 675 
f 636 656 675 
f 647 664 675 
f 664 636 675 
f 633 640 676 
f 640 650 676 
f 650 633 676 
f 650 621 677 
f 633 650 677 
f 641 658 677 
f 658 633 677 
f 621 674 677 
f 674 641 677 
f 624 634 678 
f 634 642 678 
f 645 624 678 
f 642 662 678 
f 662 645 678 
f 636 653 679 
f 632 656 679 
f 656 636 679 
f 671 632 679 
f 653 671 679 
f 651 633 680 
f 635 651 680 
f 633 658 680 
f 661 635 680 
o convex_17
v -0.027014 0.029477 0.007851
v -0.037598 0.014924 0.005866
v -0.037598 0.014924 0.011819
v -0.037598 0.032785 0.004542
v -0.027014 0.018896 0.004542
v -0.037598 0.031462 0.011819
v -0.031645 0.023524 0.011819
v -0.027014 0.030799 0.004542
v -0.037598 0.015587 0.004542
v -0.027014 0.022865 0.008510
v -0.034289 0.032785 0.007851
v -0.032306 0.015587 0.004542
v -0.030983 0.028154 0.011157
v -0.036936 0.014924 0.011819
f 692 685 694 
f 682 683 684 
f 684 683 686 
f 686 683 687 
f 681 685 688 
f 685 684 688 
f 682 684 689 
f 684 685 689 
f 685 681 690 
f 686 681 691 
f 684 686 691 
f 681 688 691 
f 688 684 691 
f 682 689 692 
f 689 685 692 
f 681 686 693 
f 686 687 693 
f 690 681 693 
f 687 690 693 
f 683 682 694 
f 687 683 694 
f 685 690 694 
f 690 687 694 
f 682 692 694 
o convex_18
v 0.038476 -0.014177 0.025046
v 0.015321 0.036754 0.029018
v 0.015321 0.036754 0.028356
v -0.030317 -0.016826 0.016452
v 0.023261 0.013593 0.011819
v -0.017091 -0.016826 0.029018
v -0.019072 0.032782 0.021740
v 0.017968 -0.017490 0.011819
v -0.007162 0.027483 0.011819
v 0.037811 0.016243 0.029018
v -0.020396 0.028811 0.029018
v -0.027671 0.001699 0.011819
v 0.031859 -0.016163 0.029018
v 0.035164 -0.012191 0.015129
v -0.032306 -0.008225 0.018437
v -0.021054 -0.017490 0.011819
v -0.024366 -0.000286 0.029018
v 0.026566 0.030797 0.027031
v 0.010028 0.024181 0.011819
v 0.029871 0.001036 0.011819
v 0.031194 -0.017490 0.027031
v -0.027671 -0.017490 0.021740
v -0.018414 0.028147 0.015790
v 0.034499 0.024181 0.028356
v 0.001436 0.036754 0.029018
v 0.038476 -0.010210 0.019758
v -0.016426 0.032119 0.018437
v -0.019731 0.032782 0.025708
v -0.028329 0.004344 0.014467
v 0.037146 -0.014840 0.020418
v -0.029652 -0.016826 0.013805
v 0.038476 0.002363 0.029018
v 0.029871 -0.012191 0.012480
v -0.002534 0.027489 0.011819
v -0.011139 -0.017490 0.029018
v -0.024366 0.008974 0.011819
v 0.037811 0.016243 0.028356
v -0.024366 0.004344 0.029018
v 0.029213 0.030133 0.029018
v 0.037146 -0.010869 0.017113
v 0.036488 -0.014840 0.027695
v 0.021938 0.034105 0.027695
v 0.012674 0.036754 0.027695
v -0.017091 0.033446 0.021078
v 0.019949 0.016906 0.011819
v -0.018414 0.032119 0.028356
v -0.032306 -0.012191 0.017113
v 0.033183 -0.014177 0.015129
v 0.031194 0.027489 0.027695
v -0.019072 -0.014177 0.029018
v 0.022596 -0.017490 0.029018
v -0.026347 -0.008888 0.011819
v 0.033841 -0.016826 0.025046
v -0.027006 0.005666 0.012480
v -0.032306 -0.010869 0.018437
v 0.038476 0.012935 0.028356
v -0.020396 0.030797 0.027695
f 740 722 751 
f 699 702 703 
f 696 700 704 
f 700 696 705 
f 703 702 706 
f 704 700 707 
f 706 702 710 
f 700 705 711 
f 699 703 713 
f 702 699 714 
f 710 702 715 
f 710 715 716 
f 714 699 718 
f 696 697 719 
f 705 696 719 
f 717 701 721 
f 703 717 721 
f 706 709 723 
f 722 701 723 
f 720 695 724 
f 710 716 725 
f 716 698 725 
f 704 707 726 
f 695 720 726 
f 702 714 727 
f 714 708 727 
f 697 713 728 
f 713 703 728 
f 703 721 728 
f 707 700 729 
f 716 715 729 
f 700 716 729 
f 703 706 730 
f 717 703 730 
f 718 704 731 
f 714 718 731 
f 705 709 732 
f 711 705 732 
f 709 711 732 
f 696 704 733 
f 704 718 733 
f 708 714 734 
f 724 708 734 
f 720 724 734 
f 714 731 734 
f 731 720 734 
f 707 715 735 
f 695 726 735 
f 726 707 735 
f 697 696 736 
f 713 697 736 
f 712 713 736 
f 696 733 736 
f 733 712 736 
f 719 697 737 
f 697 728 737 
f 728 721 737 
f 721 701 738 
f 701 722 738 
f 722 719 738 
f 719 737 738 
f 737 721 738 
f 699 713 739 
f 713 712 739 
f 705 719 740 
f 719 722 740 
f 709 706 741 
f 698 716 741 
f 725 698 741 
f 706 725 741 
f 724 702 742 
f 708 724 742 
f 702 727 742 
f 727 708 742 
f 718 699 743 
f 712 733 743 
f 733 718 743 
f 699 739 743 
f 739 712 743 
f 700 711 744 
f 716 700 744 
f 711 716 744 
f 715 707 745 
f 707 729 745 
f 729 715 745 
f 706 710 746 
f 725 706 746 
f 710 725 746 
f 715 702 747 
f 702 724 747 
f 724 695 747 
f 695 735 747 
f 735 715 747 
f 701 717 748 
f 706 723 748 
f 723 701 748 
f 730 706 748 
f 717 730 748 
f 711 709 749 
f 716 711 749 
f 709 741 749 
f 741 716 749 
f 704 726 750 
f 726 720 750 
f 731 704 750 
f 720 731 750 
f 709 705 751 
f 723 709 751 
f 722 723 751 
f 705 740 751 
o convex_19
v -0.015101 -0.021460 -0.010013
v -0.002537 -0.018813 -0.028534
v -0.004520 -0.020137 -0.027210
v 0.017969 -0.020799 -0.010013
v 0.004737 -0.026751 -0.017952
v 0.017969 -0.018151 -0.023238
v -0.017752 -0.018151 -0.009350
v 0.006057 -0.027413 -0.009350
v 0.017969 -0.018151 -0.009350
v -0.009151 -0.024766 -0.018611
v -0.017085 -0.018151 -0.021255
v 0.013995 -0.023442 -0.020592
v 0.005394 -0.023442 -0.024564
v 0.000103 -0.027413 -0.009350
v 0.005394 -0.018151 -0.028534
v -0.003197 -0.026089 -0.019931
v 0.010691 -0.026089 -0.015965
v -0.017752 -0.020137 -0.015306
v -0.009811 -0.022782 -0.022577
v -0.008491 -0.025427 -0.012659
v 0.011348 -0.020137 -0.025884
v -0.012454 -0.018151 -0.025225
v 0.017969 -0.020799 -0.019272
v 0.013335 -0.024766 -0.011999
v -0.001210 -0.024104 -0.023901
v -0.013778 -0.022782 -0.017291
v 0.004077 -0.026089 -0.020592
v -0.003197 -0.026751 -0.016628
f 771 761 779 
f 758 759 760 
f 755 757 760 
f 757 758 760 
f 759 755 760 
f 758 757 762 
f 758 752 765 
f 756 759 765 
f 759 758 765 
f 762 757 766 
f 764 753 766 
f 759 756 768 
f 752 758 769 
f 758 762 769 
f 767 761 770 
f 765 752 771 
f 757 763 772 
f 763 764 772 
f 766 757 772 
f 764 766 772 
f 753 754 773 
f 766 753 773 
f 762 766 773 
f 770 762 773 
f 754 770 773 
f 757 755 774 
f 763 757 774 
f 755 759 775 
f 759 768 775 
f 768 763 775 
f 774 755 775 
f 763 774 775 
f 754 753 776 
f 753 764 776 
f 770 754 776 
f 767 770 776 
f 752 769 777 
f 769 762 777 
f 762 770 777 
f 770 761 777 
f 771 752 777 
f 761 771 777 
f 764 763 778 
f 756 767 778 
f 768 756 778 
f 763 768 778 
f 776 764 778 
f 767 776 778 
f 756 765 779 
f 761 767 779 
f 767 756 779 
f 765 771 779 
o convex_20
v 0.024582 0.012274 0.011819
v -0.011133 -0.025427 0.011157
v -0.004517 -0.027409 0.009833
v -0.010472 0.008309 0.004542
v 0.025243 -0.010207 0.004542
v -0.010472 0.024842 0.011819
v 0.011352 0.023522 0.005204
v 0.014657 -0.024101 0.011819
v -0.011133 -0.020125 0.004542
v 0.030534 -0.003592 0.011819
v 0.022599 0.012936 0.004542
v 0.002757 -0.024101 0.005866
v 0.010027 0.025505 0.011157
v -0.006503 0.026168 0.008510
v 0.025243 0.014262 0.007188
v 0.000774 -0.029397 0.011819
v 0.006722 0.022197 0.004542
v 0.029873 0.000368 0.008510
v 0.008048 -0.028072 0.010495
v -0.011133 -0.025427 0.011819
v -0.011133 0.021534 0.010495
v -0.002534 0.027493 0.011819
v 0.010027 0.026168 0.007188
v -0.001208 -0.022776 0.004542
v 0.024582 0.014919 0.009833
v 0.029212 -0.006242 0.009833
v -0.011133 0.007646 0.004542
v -0.009812 0.024842 0.009172
v 0.029873 0.001687 0.011157
v 0.024582 0.011611 0.005204
v 0.023921 -0.011533 0.004542
v 0.011352 0.024185 0.011819
v 0.012013 0.025505 0.009172
v 0.023256 0.016244 0.006528
v -0.006503 0.027493 0.009833
v 0.011352 -0.023439 0.007851
v 0.010692 -0.027409 0.011157
v -0.007825 0.023522 0.007851
f 807 793 817 
f 780 785 787 
f 782 781 788 
f 783 784 788 
f 780 787 789 
f 784 783 790 
f 781 782 795 
f 787 785 795 
f 790 783 796 
f 786 790 796 
f 795 791 798 
f 788 781 799 
f 781 795 799 
f 795 785 799 
f 788 799 800 
f 799 785 800 
f 785 780 801 
f 786 796 802 
f 796 793 802 
f 782 788 803 
f 788 784 803 
f 795 782 803 
f 791 795 803 
f 787 784 805 
f 789 787 805 
f 784 797 805 
f 797 789 805 
f 783 788 806 
f 788 800 806 
f 806 800 807 
f 800 785 807 
f 780 789 808 
f 789 797 808 
f 797 794 808 
f 804 780 808 
f 794 804 808 
f 784 790 809 
f 797 784 809 
f 794 797 809 
f 784 787 810 
f 803 784 810 
f 791 803 810 
f 801 780 811 
f 792 801 811 
f 780 804 811 
f 811 804 812 
f 801 792 812 
f 802 801 812 
f 792 811 812 
f 790 786 813 
f 786 802 813 
f 804 794 813 
f 809 790 813 
f 794 809 813 
f 812 804 813 
f 802 812 813 
f 785 801 814 
f 802 793 814 
f 801 802 814 
f 807 785 814 
f 793 807 814 
f 798 791 815 
f 791 810 815 
f 815 810 816 
f 787 795 816 
f 795 798 816 
f 810 787 816 
f 798 815 816 
f 796 783 817 
f 793 796 817 
f 783 806 817 
f 806 807 817 
o convex_21
v -0.013784 -0.036010 0.024386
v -0.032967 -0.028734 0.020416
v -0.032967 -0.028734 0.023063
v -0.011799 -0.017490 0.011819
v -0.012462 -0.017490 0.028356
v -0.011799 -0.033365 0.013143
v -0.028995 -0.017490 0.013803
v -0.026349 -0.037335 0.018435
v -0.025690 -0.034025 0.027694
v -0.028336 -0.020800 0.025708
v -0.023042 -0.025428 0.011819
v -0.018417 -0.039320 0.023063
v -0.028336 -0.033365 0.016450
v -0.018417 -0.034025 0.027694
v -0.028336 -0.026753 0.027694
v -0.028336 -0.036672 0.023725
v -0.011799 -0.028076 0.025046
v -0.027673 -0.017490 0.021740
v -0.032302 -0.023445 0.023725
v -0.018417 -0.030057 0.011819
v -0.017091 -0.017490 0.028356
v -0.017091 -0.038655 0.019098
v -0.024364 -0.032704 0.028356
v -0.030980 -0.030057 0.026372
v -0.031643 -0.031382 0.018435
v -0.021061 -0.017490 0.011819
v -0.021724 -0.038655 0.025046
v -0.023042 -0.037335 0.017112
v -0.011799 -0.019475 0.027694
v -0.012462 -0.035350 0.022402
v -0.022383 -0.039320 0.020416
v -0.029658 -0.017490 0.014465
v -0.030980 -0.034025 0.023063
v -0.011799 -0.025428 0.011819
v -0.013123 -0.032040 0.025708
f 847 834 852 
f 822 821 824 
f 824 828 830 
f 823 821 834 
f 822 824 835 
f 827 835 836 
f 819 820 836 
f 832 827 836 
f 828 821 837 
f 830 828 837 
f 827 832 838 
f 822 835 838 
f 835 827 838 
f 831 822 840 
f 826 831 840 
f 822 838 840 
f 838 832 840 
f 833 826 841 
f 836 820 841 
f 832 836 841 
f 826 840 841 
f 840 832 841 
f 824 830 842 
f 830 825 842 
f 824 821 843 
f 821 828 843 
f 828 824 843 
f 829 818 844 
f 818 831 844 
f 831 826 844 
f 826 833 844 
f 825 830 845 
f 837 823 845 
f 830 837 845 
f 823 839 845 
f 821 822 846 
f 822 831 846 
f 834 821 846 
f 818 829 847 
f 823 834 847 
f 839 823 847 
f 829 839 847 
f 833 825 848 
f 839 829 848 
f 829 844 848 
f 844 833 848 
f 825 845 848 
f 845 839 848 
f 835 824 849 
f 836 835 849 
f 819 836 849 
f 842 819 849 
f 824 842 849 
f 820 819 850 
f 825 833 850 
f 841 820 850 
f 833 841 850 
f 819 842 850 
f 842 825 850 
f 821 823 851 
f 837 821 851 
f 823 837 851 
f 831 818 852 
f 846 831 852 
f 834 846 852 
f 818 847 852 
o convex_22
v -0.001876 -0.035351 0.015790
v 0.022600 -0.017490 0.028356
v 0.022600 -0.017490 0.023723
v -0.011799 -0.017490 0.027695
v -0.011799 -0.017490 0.011819
v 0.017963 -0.018152 0.011819
v -0.011136 -0.030058 0.023062
v 0.009367 -0.025429 0.029018
v -0.011799 -0.033365 0.013142
v 0.011354 -0.027411 0.011819
v -0.000549 -0.036012 0.018437
v 0.019290 -0.022782 0.025708
v -0.008489 -0.019475 0.029018
v 0.019290 -0.022782 0.019758
v -0.000549 -0.024768 0.029018
v -0.010476 -0.026091 0.011819
v 0.017963 -0.017490 0.011819
v 0.013333 -0.027411 0.015129
v 0.021936 -0.017490 0.029018
v -0.011799 -0.034027 0.015129
v 0.006717 -0.029396 0.011819
v -0.011799 -0.026751 0.025046
v 0.015983 -0.022782 0.011819
v 0.018627 -0.022782 0.027031
v -0.009812 -0.017490 0.029018
v -0.003859 -0.036012 0.017775
v -0.010476 -0.034027 0.013142
v 0.003417 -0.025429 0.029018
v 0.000771 -0.035351 0.017113
f 873 862 881 
f 854 855 856 
f 856 855 857 
f 856 857 861 
f 857 858 862 
f 855 854 864 
f 858 855 866 
f 855 864 866 
f 860 865 867 
f 861 857 868 
f 857 862 868 
f 857 855 869 
f 855 858 869 
f 858 857 869 
f 866 864 870 
f 854 856 871 
f 865 860 871 
f 856 861 872 
f 868 862 873 
f 859 867 874 
f 867 865 874 
f 856 872 874 
f 872 859 874 
f 862 858 875 
f 858 866 875 
f 870 862 875 
f 866 870 875 
f 860 863 876 
f 863 864 876 
f 864 854 876 
f 854 871 876 
f 871 860 876 
f 871 856 877 
f 865 871 877 
f 856 874 877 
f 874 865 877 
f 863 859 878 
f 853 863 878 
f 859 872 878 
f 878 872 879 
f 861 868 879 
f 872 861 879 
f 873 853 879 
f 868 873 879 
f 853 878 879 
f 863 860 880 
f 859 863 880 
f 860 867 880 
f 867 859 880 
f 863 853 881 
f 864 863 881 
f 862 870 881 
f 870 864 881 
f 853 873 881 
o convex_23
v 0.019953 -0.018151 -0.010012
v 0.019953 -0.028736 -0.023242
v 0.017969 -0.018814 -0.022579
v 0.017969 -0.020137 -0.010012
v 0.020615 -0.018151 -0.016626
v 0.020615 -0.028736 -0.016626
v 0.018631 -0.028736 -0.019272
v 0.020615 -0.025427 -0.022579
f 886 887 889 
f 882 884 885 
f 884 882 886 
f 882 885 887 
f 886 882 887 
f 884 883 888 
f 885 884 888 
f 883 887 888 
f 887 885 888 
f 883 884 889 
f 884 886 889 
f 887 883 889 
o convex_24
v 0.037150 -0.028074 -0.009350
v 0.025248 -0.028736 -0.030518
v 0.023925 -0.028736 -0.029855
v 0.027893 -0.018151 -0.019275
v 0.023263 -0.024767 -0.009350
v 0.039798 -0.018151 -0.014642
v 0.041781 -0.028736 -0.021915
v 0.024585 -0.018151 -0.009350
v 0.020615 -0.028736 -0.015968
v 0.034507 -0.022784 -0.025226
v 0.039798 -0.018151 -0.009350
v 0.020615 -0.024767 -0.022578
v 0.025910 -0.028736 -0.009350
v 0.042445 -0.028736 -0.018612
v 0.033844 -0.028074 -0.029194
v 0.027893 -0.021461 -0.025226
v 0.037150 -0.018151 -0.018612
v 0.039798 -0.025427 -0.023241
v 0.024585 -0.018151 -0.015968
v 0.024585 -0.022122 -0.024561
v 0.020615 -0.028736 -0.025887
v 0.031201 -0.028074 -0.030518
v 0.023263 -0.020799 -0.009350
v 0.038475 -0.028736 -0.011335
f 902 903 913 
f 892 891 896 
f 894 890 897 
f 895 893 897 
f 892 896 898 
f 897 890 900 
f 895 897 900 
f 890 894 902 
f 894 898 902 
f 898 896 902 
f 896 895 903 
f 895 900 903 
f 902 896 903 
f 896 891 904 
f 893 895 906 
f 899 905 906 
f 905 893 906 
f 895 896 907 
f 896 904 907 
f 904 899 907 
f 906 895 907 
f 899 906 907 
f 897 893 908 
f 901 897 908 
f 891 892 909 
f 892 901 909 
f 905 891 909 
f 893 905 909 
f 908 893 909 
f 901 908 909 
f 892 898 910 
f 901 892 910 
f 898 901 910 
f 904 891 911 
f 899 904 911 
f 905 899 911 
f 891 905 911 
f 894 897 912 
f 898 894 912 
f 897 901 912 
f 901 898 912 
f 900 890 913 
f 890 902 913 
f 903 900 913 
