o convex_0
v -0.009124 0.027659 0.003488
v 0.013943 0.028087 0.002635
v 0.013943 0.027659 0.002635
v -0.001860 0.027659 -0.009325
v -0.005279 0.041329 0.009468
v -0.001433 0.041329 -0.003771
v 0.006679 0.027659 0.014596
v 0.009671 0.041329 0.006906
v 0.004972 0.041329 0.013741
v 0.004972 0.028514 -0.007616
v -0.004852 0.041329 -0.001636
v 0.009671 0.040900 0.003490
v 0.001129 0.027659 0.013313
v -0.004852 0.028087 -0.007616
v 0.008815 0.028087 0.013313
v -0.006988 0.041329 0.004342
v 0.001556 0.041329 0.013741
v 0.001129 0.040900 -0.003771
v 0.013514 0.028514 0.000502
v -0.006988 0.027659 0.006906
v -0.006988 0.041329 0.007761
v 0.001556 0.027659 -0.009325
v -0.008695 0.028514 0.001783
v 0.013514 0.029369 0.003916
v 0.003690 0.028087 0.014596
v 0.005826 0.041329 0.013313
v 0.009671 0.037483 0.001355
v 0.001129 0.035773 -0.006335
v 0.009242 0.040900 0.008187
v -0.003569 0.029796 -0.008042
f 14 11 30 
f 3 1 4 
f 1 3 7 
f 6 5 8 
f 8 5 9 
f 5 6 11 
f 8 2 12 
f 6 8 12 
f 1 7 13 
f 4 1 14 
f 7 3 15 
f 5 11 16 
f 9 5 17 
f 5 13 17 
f 6 12 18 
f 2 3 19 
f 12 2 19 
f 1 13 20 
f 13 5 20 
f 16 1 21 
f 5 16 21 
f 1 20 21 
f 20 5 21 
f 3 4 22 
f 19 3 22 
f 10 19 22 
f 14 1 23 
f 11 14 23 
f 1 16 23 
f 16 11 23 
f 3 2 24 
f 2 8 24 
f 15 3 24 
f 7 9 25 
f 13 7 25 
f 9 17 25 
f 17 13 25 
f 9 7 26 
f 8 9 26 
f 7 15 26 
f 10 18 27 
f 18 12 27 
f 19 10 27 
f 12 19 27 
f 4 6 28 
f 6 18 28 
f 18 10 28 
f 22 4 28 
f 10 22 28 
f 24 8 29 
f 15 24 29 
f 8 26 29 
f 26 15 29 
f 6 4 30 
f 11 6 30 
f 4 14 30 
o convex_1
v 0.008816 0.041329 0.003064
v -0.006132 0.066104 0.017586
v -0.007840 0.066104 0.017586
v 0.002408 0.041758 0.014167
v -0.003996 0.041329 -0.002491
v -0.006986 0.041329 0.007760
v 0.002834 0.058841 0.017586
v -0.001006 0.054141 0.004346
v -0.007840 0.059268 0.017586
v 0.003690 0.057134 0.012032
v 0.009671 0.041329 0.006908
v 0.000700 0.041758 -0.003345
v 0.002834 0.051585 0.017586
v -0.008695 0.064819 0.017158
v -0.003570 0.051158 0.002209
v 0.005826 0.041329 0.013314
v -0.006986 0.042185 0.004346
v 0.006680 0.049019 0.006481
v -0.002716 0.060977 0.010749
v -0.000152 0.063112 0.017158
v 0.000700 0.047738 0.000072
v -0.006132 0.041329 0.009040
v 0.006680 0.051585 0.009895
v -0.004852 0.043468 -0.000780
v -0.001434 0.052438 0.017586
v -0.000152 0.041329 0.012886
v -0.000152 0.057987 0.008614
v -0.004424 0.059268 0.009040
v -0.002288 0.046455 -0.001208
v 0.004544 0.054995 0.015449
v -0.008695 0.061402 0.017586
v 0.009244 0.041758 0.003492
v 0.004970 0.055848 0.014167
f 60 41 63 
f 35 31 36 
f 32 33 37 
f 37 33 39 
f 36 31 41 
f 31 35 42 
f 37 39 43 
f 36 41 46 
f 43 34 46 
f 35 36 47 
f 33 32 49 
f 32 37 50 
f 49 32 50 
f 38 48 51 
f 39 36 52 
f 36 46 52 
f 48 40 53 
f 44 45 54 
f 35 47 54 
f 47 44 54 
f 34 43 55 
f 43 39 55 
f 46 34 56 
f 39 52 56 
f 52 46 56 
f 34 55 56 
f 55 39 56 
f 48 38 57 
f 40 48 57 
f 38 49 57 
f 50 40 57 
f 49 50 57 
f 44 33 58 
f 38 45 58 
f 45 44 58 
f 33 49 58 
f 49 38 58 
f 42 35 59 
f 45 38 59 
f 51 42 59 
f 38 51 59 
f 35 54 59 
f 54 45 59 
f 37 43 60 
f 46 41 60 
f 43 46 60 
f 39 33 61 
f 36 39 61 
f 33 44 61 
f 47 36 61 
f 44 47 61 
f 41 31 62 
f 31 42 62 
f 42 51 62 
f 51 48 62 
f 53 41 62 
f 48 53 62 
f 50 37 63 
f 40 50 63 
f 53 40 63 
f 41 53 63 
f 37 60 63 
o convex_2
v 0.000699 0.062257 0.021004
v -0.014250 0.069520 0.025274
v -0.013822 0.068665 0.025274
v -0.007842 0.059698 0.017586
v -0.006560 0.066531 0.017586
v 0.001982 0.052008 0.018014
v -0.003572 0.067386 0.025702
v -0.002718 0.063111 0.025702
v 0.001982 0.060981 0.017586
v -0.009550 0.071656 0.025274
v -0.000582 0.052436 0.018014
v -0.011686 0.066531 0.025702
v -0.004001 0.067810 0.022285
v -0.011686 0.069520 0.021857
v -0.009124 0.064395 0.017586
v 0.002837 0.053293 0.017586
v -0.013822 0.072085 0.025702
v -0.004854 0.063111 0.025702
v -0.001008 0.063966 0.017586
v -0.001863 0.063111 0.025274
f 69 79 83 
f 66 65 67 
f 67 68 72 
f 70 64 72 
f 65 66 75 
f 66 67 75 
f 71 70 75 
f 67 74 75 
f 70 72 76 
f 73 70 76 
f 68 73 76 
f 73 68 77 
f 67 65 78 
f 68 67 78 
f 65 77 78 
f 77 68 78 
f 67 72 79 
f 72 64 79 
f 74 67 79 
f 69 74 79 
f 70 73 80 
f 65 75 80 
f 75 70 80 
f 77 65 80 
f 73 77 80 
f 69 71 81 
f 74 69 81 
f 71 75 81 
f 75 74 81 
f 72 68 82 
f 68 76 82 
f 76 72 82 
f 64 70 83 
f 71 69 83 
f 70 71 83 
f 79 64 83 
o convex_3
v -0.002716 0.063972 0.025702
v -0.031335 0.084473 0.045352
v -0.030053 0.084042 0.045352
v -0.009126 0.071661 0.025702
v -0.014250 0.069098 0.025702
v -0.028346 0.079346 0.043216
v -0.013826 0.074220 0.036378
v -0.005281 0.063541 0.026130
v -0.032618 0.083618 0.043644
v -0.013826 0.072513 0.025702
v -0.015960 0.073794 0.038088
v -0.021512 0.080199 0.038088
v -0.005281 0.069098 0.027413
v -0.012116 0.066959 0.025702
v -0.027918 0.080627 0.045352
v -0.019374 0.078916 0.039369
v -0.014250 0.075927 0.032968
v -0.030053 0.080627 0.042361
v -0.025356 0.081055 0.044069
v -0.025781 0.081479 0.039369
v -0.032190 0.082762 0.046207
v -0.003144 0.063972 0.026557
v -0.014678 0.071661 0.025702
v -0.012543 0.073370 0.026985
v -0.002716 0.065678 0.026130
v -0.009981 0.065678 0.026130
f 97 91 109 
f 87 84 88 
f 87 88 93 
f 85 86 95 
f 88 84 97 
f 84 91 97 
f 89 91 98 
f 91 94 98 
f 95 86 99 
f 90 96 99 
f 99 96 100 
f 96 87 100 
f 95 99 100 
f 92 88 101 
f 88 97 101 
f 97 89 101 
f 94 90 102 
f 86 98 102 
f 98 94 102 
f 90 99 102 
f 99 86 102 
f 92 85 103 
f 93 92 103 
f 85 95 103 
f 86 85 104 
f 85 92 104 
f 98 86 104 
f 89 98 104 
f 92 101 104 
f 101 89 104 
f 91 84 105 
f 90 94 105 
f 94 91 105 
f 88 92 106 
f 93 88 106 
f 92 93 106 
f 87 93 107 
f 100 87 107 
f 95 100 107 
f 93 103 107 
f 103 95 107 
f 84 87 108 
f 87 96 108 
f 96 90 108 
f 105 84 108 
f 90 105 108 
f 91 89 109 
f 89 97 109 
o convex_4
v -0.006563 0.002029 -0.044354
v -0.013823 -0.003099 -0.047769
v -0.013823 -0.003099 -0.045634
v -0.002289 -0.011213 -0.047342
v -0.008696 0.002029 -0.048197
v -0.012114 0.002029 -0.041790
v -0.003999 -0.007369 -0.043500
v -0.001862 -0.003953 -0.047342
v -0.013823 0.002029 -0.048197
v -0.002717 -0.009931 -0.048197
v -0.002717 -0.005658 -0.043927
v -0.007418 -0.007369 -0.044354
v -0.008696 0.002029 -0.041790
v -0.003999 -0.011213 -0.046488
v -0.013823 0.001601 -0.042646
v -0.005280 0.000319 -0.047769
v -0.002289 -0.010358 -0.045207
f 121 123 126 
f 110 114 115 
f 111 112 118 
f 115 114 118 
f 117 113 119 
f 111 118 119 
f 118 114 119 
f 117 110 120 
f 116 115 121 
f 110 115 122 
f 115 116 122 
f 120 110 122 
f 116 120 122 
f 112 111 123 
f 111 119 123 
f 119 113 123 
f 121 112 123 
f 118 112 124 
f 115 118 124 
f 112 121 124 
f 121 115 124 
f 114 110 125 
f 110 117 125 
f 117 119 125 
f 119 114 125 
f 113 117 126 
f 120 116 126 
f 117 120 126 
f 116 121 126 
f 123 113 126 
o convex_5
v -0.008700 0.002029 -0.041792
v -0.027916 0.002029 -0.048625
v -0.028771 0.002029 -0.048197
v -0.015106 0.011854 -0.037520
v -0.011689 0.005447 -0.048197
v -0.024498 0.005875 -0.037520
v -0.019801 0.010571 -0.042646
v -0.007418 0.010571 -0.037520
v -0.008274 0.002029 -0.047769
v -0.030051 0.002029 -0.043497
v -0.024927 0.008862 -0.037520
v -0.006565 0.010145 -0.040937
v -0.016815 0.004594 -0.037520
v -0.020654 0.007154 -0.047769
v -0.030480 0.002457 -0.046915
v -0.015535 0.010145 -0.043925
v -0.006565 0.002029 -0.044779
v -0.019801 0.002029 -0.040937
v -0.021081 0.011425 -0.038374
v -0.007418 0.008862 -0.037520
v -0.014253 0.006729 -0.048197
v -0.006565 0.008436 -0.043072
v -0.010409 0.002457 -0.048625
v -0.009554 0.010998 -0.040937
v -0.012118 0.005447 -0.037520
v -0.006139 0.008436 -0.039229
v -0.021936 0.005447 -0.048625
v -0.028342 0.002029 -0.042219
v -0.018519 0.011854 -0.039229
f 150 142 155 
f 129 128 127 
f 130 132 134 
f 127 128 135 
f 129 127 136 
f 132 130 137 
f 136 132 137 
f 134 132 139 
f 129 136 141 
f 136 137 141 
f 140 129 141 
f 133 140 141 
f 140 133 142 
f 127 135 143 
f 136 127 144 
f 127 139 144 
f 137 130 145 
f 133 141 145 
f 141 137 145 
f 134 139 146 
f 140 142 147 
f 135 131 148 
f 143 135 148 
f 131 147 148 
f 147 138 148 
f 135 128 149 
f 131 135 149 
f 147 131 149 
f 130 134 150 
f 134 138 150 
f 138 147 150 
f 147 142 150 
f 139 127 151 
f 127 146 151 
f 146 139 151 
f 138 134 152 
f 127 143 152 
f 134 146 152 
f 146 127 152 
f 143 148 152 
f 148 138 152 
f 128 129 153 
f 129 140 153 
f 140 147 153 
f 149 128 153 
f 147 149 153 
f 132 136 154 
f 139 132 154 
f 136 144 154 
f 144 139 154 
f 142 133 155 
f 145 130 155 
f 133 145 155 
f 130 150 155 
o convex_6
v -0.019800 0.005019 -0.036236
v -0.016812 0.014844 -0.029830
v -0.013825 0.013562 -0.029830
v -0.008272 0.010999 -0.037518
v -0.021509 0.011425 -0.037518
v -0.020656 0.006729 -0.029830
v -0.024926 0.011425 -0.029830
v -0.013825 0.007584 -0.029830
v -0.025356 0.006729 -0.037518
v -0.012116 0.005874 -0.037518
v -0.007419 0.009291 -0.037090
v -0.019800 0.014844 -0.030685
v -0.011689 0.011853 -0.029830
v -0.016387 0.012279 -0.037090
v -0.024926 0.009291 -0.029830
v -0.025356 0.008438 -0.037518
v -0.016387 0.006729 -0.029830
v -0.021509 0.014415 -0.030258
f 171 162 173 
f 157 158 159 
f 158 157 161 
f 161 157 162 
f 158 161 163 
f 160 159 164 
f 156 161 164 
f 156 164 165 
f 164 159 165 
f 165 159 166 
f 163 165 166 
f 159 158 168 
f 158 163 168 
f 166 159 168 
f 163 166 168 
f 157 159 169 
f 159 160 169 
f 167 157 169 
f 160 167 169 
f 161 162 170 
f 164 161 170 
f 162 164 170 
f 160 164 171 
f 164 162 171 
f 161 156 172 
f 163 161 172 
f 165 163 172 
f 156 165 172 
f 162 157 173 
f 157 167 173 
f 167 160 173 
f 160 171 173 
o convex_7
v 0.019922 0.016126 -0.039656
v 0.010526 0.005874 -0.047342
v 0.010526 0.005874 -0.046488
v 0.018642 0.005447 -0.047342
v 0.017786 0.016126 -0.048625
v 0.013518 0.016126 -0.043927
v 0.013091 0.001604 -0.045634
v 0.015226 0.015271 -0.040510
v 0.020351 0.014843 -0.048625
v 0.011809 0.001175 -0.048196
v 0.012235 0.011426 -0.048196
v 0.020351 0.009290 -0.046061
v 0.017359 0.005447 -0.044779
v 0.012662 0.005447 -0.043927
v 0.019068 0.015698 -0.039229
v 0.013518 0.001175 -0.048196
v 0.012662 0.005874 -0.048625
v 0.010955 0.005447 -0.045207
v 0.012662 0.013990 -0.046915
v 0.020351 0.010145 -0.048196
v 0.020351 0.015698 -0.040083
f 188 186 194 
f 174 178 179 
f 174 179 181 
f 178 174 182 
f 176 175 183 
f 180 177 186 
f 177 185 186 
f 181 187 188 
f 174 181 188 
f 180 186 188 
f 187 180 188 
f 177 180 189 
f 180 183 189 
f 189 183 190 
f 178 182 190 
f 183 175 190 
f 175 184 190 
f 184 178 190 
f 182 189 190 
f 179 176 191 
f 181 179 191 
f 176 183 191 
f 183 180 191 
f 180 187 191 
f 187 181 191 
f 175 176 192 
f 179 178 192 
f 176 179 192 
f 184 175 192 
f 178 184 192 
f 185 177 193 
f 182 185 193 
f 177 189 193 
f 189 182 193 
f 182 174 194 
f 185 182 194 
f 186 185 194 
f 174 188 194 
o convex_8
v 0.023339 0.016126 -0.038375
v 0.017792 0.016126 -0.048624
v 0.016937 0.016126 -0.048196
v 0.020780 0.024669 -0.035385
v 0.033593 0.016553 -0.046487
v 0.010955 0.020823 -0.034957
v 0.019071 0.021678 -0.044778
v 0.027184 0.019544 -0.034957
v 0.009671 0.021250 -0.040937
v 0.014371 0.016126 -0.041364
v 0.027184 0.018689 -0.048196
v 0.025472 0.023386 -0.034957
v 0.033593 0.016126 -0.042643
v 0.017792 0.017836 -0.034957
v 0.023339 0.022106 -0.043497
v 0.017364 0.024669 -0.034957
v 0.010526 0.019117 -0.043497
v 0.019497 0.018261 -0.048624
v 0.030603 0.016126 -0.048624
v 0.010955 0.019972 -0.043925
v 0.009671 0.019544 -0.039229
v 0.011381 0.022533 -0.034957
v 0.031029 0.016126 -0.040084
v 0.013947 0.016126 -0.044778
v 0.028893 0.020397 -0.041791
v 0.016080 0.016126 -0.039229
v 0.023339 0.018261 -0.034957
v 0.010955 0.021678 -0.041364
f 216 210 222 
f 197 196 195 
f 197 195 204 
f 200 202 206 
f 195 196 207 
f 199 206 207 
f 206 202 207 
f 202 200 208 
f 201 198 209 
f 205 201 209 
f 198 206 209 
f 198 201 210 
f 206 198 210 
f 200 206 210 
f 201 205 212 
f 205 199 213 
f 207 196 213 
f 199 207 213 
f 196 212 213 
f 212 205 213 
f 196 197 214 
f 197 211 214 
f 211 203 214 
f 212 196 214 
f 201 212 214 
f 200 203 215 
f 203 211 215 
f 203 200 216 
f 200 210 216 
f 195 207 217 
f 207 202 217 
f 197 204 218 
f 211 197 218 
f 204 215 218 
f 215 211 218 
f 199 205 219 
f 206 199 219 
f 205 209 219 
f 209 206 219 
f 204 195 220 
f 195 208 220 
f 208 200 220 
f 200 215 220 
f 215 204 220 
f 208 195 221 
f 202 208 221 
f 195 217 221 
f 217 202 221 
f 210 201 222 
f 201 214 222 
f 214 203 222 
f 203 216 222 
o convex_9
v 0.011382 0.022531 -0.034955
v 0.027613 0.016126 -0.018299
v 0.027613 0.015698 -0.018299
v 0.027185 0.019972 -0.034955
v 0.018644 0.026805 -0.024275
v 0.013945 0.015698 -0.018727
v 0.016083 0.018262 -0.034955
v 0.024193 0.025521 -0.028117
v 0.011380 0.024241 -0.026409
v 0.017789 0.016553 -0.015733
v 0.022911 0.015698 -0.027263
v 0.017791 0.025095 -0.034526
v 0.015225 0.026805 -0.024704
v 0.013945 0.015698 -0.023421
v 0.010953 0.021253 -0.034955
v 0.025475 0.023387 -0.034955
v 0.023337 0.025096 -0.023848
v 0.023767 0.016126 -0.015733
v 0.016511 0.026805 -0.029828
v 0.025473 0.023814 -0.026409
v 0.019072 0.025096 -0.022143
v 0.026329 0.019116 -0.034955
v 0.014800 0.025096 -0.022994
v 0.019495 0.026805 -0.029828
v 0.027613 0.015698 -0.022143
v 0.014800 0.016553 -0.017445
v 0.018218 0.015698 -0.027263
v 0.022911 0.018262 -0.034955
v 0.013945 0.025950 -0.029399
v 0.027185 0.020825 -0.034526
v 0.016934 0.015698 -0.015733
f 232 248 253 
f 223 226 229 
f 225 228 233 
f 233 228 236 
f 223 229 237 
f 231 223 237 
f 228 231 237 
f 236 228 237 
f 229 236 237 
f 226 223 238 
f 223 234 238 
f 230 227 239 
f 225 224 240 
f 224 239 240 
f 234 223 241 
f 235 227 241 
f 238 230 242 
f 239 224 242 
f 230 239 242 
f 227 235 243 
f 239 227 243 
f 232 240 243 
f 240 239 243 
f 229 226 244 
f 235 231 245 
f 232 243 245 
f 243 235 245 
f 227 230 246 
f 230 238 246 
f 238 234 246 
f 241 227 246 
f 234 241 246 
f 224 225 247 
f 225 233 247 
f 244 226 247 
f 233 244 247 
f 231 228 248 
f 245 231 248 
f 232 245 248 
f 229 233 249 
f 236 229 249 
f 233 236 249 
f 233 229 250 
f 229 244 250 
f 244 233 250 
f 223 231 251 
f 231 235 251 
f 241 223 251 
f 235 241 251 
f 226 238 252 
f 242 224 252 
f 238 242 252 
f 224 247 252 
f 247 226 252 
f 228 225 253 
f 225 240 253 
f 240 232 253 
f 248 228 253 
o convex_10
v -0.005705 -0.037697 0.024848
v -0.005705 -0.033427 0.004771
v -0.005705 -0.032999 0.004771
v 0.007536 -0.033427 0.011182
v 0.000700 -0.038124 0.008617
v -0.017667 -0.038124 0.012888
v -0.009551 -0.032999 0.021002
v 0.000273 -0.032999 0.023993
v 0.003263 -0.038124 0.018864
v -0.010405 -0.038124 0.006054
v -0.012114 -0.032999 0.010325
v -0.012968 -0.038124 0.021855
v 0.004972 -0.032999 0.007336
v -0.012541 -0.032999 0.017158
v 0.005826 -0.032999 0.017585
v -0.001437 -0.038124 0.024418
v 0.003690 -0.038124 0.011608
v -0.005705 -0.038124 0.006054
v -0.017667 -0.037697 0.015448
v -0.004856 -0.032999 0.023563
v -0.013395 -0.037697 0.008191
v 0.007106 -0.034281 0.013745
f 262 270 275 
f 256 260 261 
f 259 258 262 
f 256 255 263 
f 258 259 263 
f 260 256 264 
f 259 262 265 
f 255 256 266 
f 256 261 266 
f 260 264 267 
f 257 266 268 
f 266 261 268 
f 261 254 269 
f 254 265 269 
f 265 262 269 
f 262 268 269 
f 268 261 269 
f 262 258 270 
f 266 257 270 
f 258 266 270 
f 263 255 271 
f 258 263 271 
f 255 266 271 
f 266 258 271 
f 264 259 272 
f 259 265 272 
f 265 260 272 
f 267 264 272 
f 260 267 272 
f 254 261 273 
f 261 260 273 
f 260 265 273 
f 265 254 273 
f 256 263 274 
f 263 259 274 
f 259 264 274 
f 264 256 274 
f 257 268 275 
f 268 262 275 
f 270 257 275 
o convex_11
v -0.036890 -0.006514 -0.047770
v -0.023648 0.002029 -0.043073
v -0.023648 0.002029 -0.048624
v -0.031336 0.002029 -0.045634
v -0.023648 -0.002244 -0.047770
v -0.033900 -0.005232 -0.044354
v -0.034754 -0.008223 -0.048624
v -0.033045 -0.000962 -0.048624
v -0.034754 -0.002244 -0.044354
v -0.023648 -0.002244 -0.046061
v -0.027066 0.002029 -0.042217
v -0.034754 -0.008223 -0.046488
v -0.035607 -0.002244 -0.047342
v -0.030058 0.002029 -0.048197
v -0.031763 -0.004804 -0.044354
v -0.036461 -0.007795 -0.046061
f 282 287 291 
f 277 278 279 
f 278 277 280 
f 278 280 282 
f 282 276 283 
f 278 282 283 
f 280 277 285 
f 282 280 285 
f 277 279 286 
f 279 284 286 
f 284 281 286 
f 282 285 287 
f 283 276 288 
f 284 279 288 
f 276 284 288 
f 279 278 289 
f 278 283 289 
f 288 279 289 
f 283 288 289 
f 285 277 290 
f 277 286 290 
f 286 281 290 
f 281 287 290 
f 287 285 290 
f 276 282 291 
f 281 284 291 
f 284 276 291 
f 287 281 291 
o convex_12
v -0.013823 -0.003099 -0.045634
v -0.023648 -0.002671 -0.047343
v -0.023648 -0.002671 -0.046488
v -0.021083 -0.012495 -0.047770
v -0.019803 0.001601 -0.041363
v -0.013823 0.002029 -0.048197
v -0.023648 0.002029 -0.048624
v -0.020656 -0.010786 -0.044781
v -0.013823 0.002029 -0.042645
v -0.023648 0.002029 -0.043072
v -0.016388 -0.008223 -0.048197
v -0.017241 -0.008648 -0.044354
v -0.023219 -0.008223 -0.046488
v -0.015959 -0.009076 -0.046061
v -0.017241 -0.005233 -0.048624
v -0.016388 0.001601 -0.041363
v -0.013823 -0.002671 -0.048197
v -0.018949 -0.012495 -0.046916
v -0.021083 -0.012067 -0.048197
f 302 309 310 
f 293 294 298 
f 292 297 300 
f 297 298 300 
f 300 298 301 
f 298 294 301 
f 299 296 301 
f 296 300 301 
f 294 293 304 
f 293 298 304 
f 295 299 304 
f 301 294 304 
f 299 301 304 
f 292 300 305 
f 300 303 305 
f 298 297 306 
f 296 299 307 
f 300 296 307 
f 299 303 307 
f 303 300 307 
f 297 292 308 
f 292 305 308 
f 305 302 308 
f 306 297 308 
f 302 306 308 
f 299 295 309 
f 303 299 309 
f 302 305 309 
f 305 303 309 
f 304 298 310 
f 295 304 310 
f 298 306 310 
f 306 302 310 
f 309 295 310 
o convex_13
v 0.029748 0.004166 -0.044779
v 0.020351 0.009290 -0.047342
v 0.023341 0.004166 -0.047342
v 0.030603 0.016126 -0.048625
v 0.021632 0.016126 -0.039229
v 0.030603 0.016126 -0.040510
v 0.020351 0.016126 -0.048625
v 0.027185 0.000321 -0.048196
v 0.026330 0.002458 -0.044352
v 0.030603 0.004166 -0.047342
v 0.020351 0.015697 -0.039656
v 0.022914 0.004593 -0.045634
v 0.024196 0.015697 -0.039229
v 0.028893 -0.000107 -0.047770
v 0.028038 0.003738 -0.043927
v 0.030603 0.010571 -0.048625
v 0.025902 0.000321 -0.046488
v 0.020351 0.010143 -0.048196
f 317 318 328 
f 314 315 316 
f 315 314 317 
f 316 311 320 
f 314 316 320 
f 317 312 321 
f 315 317 321 
f 319 315 321 
f 319 321 322 
f 312 313 322 
f 321 312 322 
f 316 315 323 
f 315 319 323 
f 320 311 324 
f 311 316 325 
f 316 323 325 
f 323 319 325 
f 324 311 325 
f 319 324 325 
f 317 314 326 
f 318 317 326 
f 314 320 326 
f 324 318 326 
f 320 324 326 
f 313 318 327 
f 319 322 327 
f 322 313 327 
f 318 324 327 
f 324 319 327 
f 313 312 328 
f 312 317 328 
f 318 313 328 
o convex_14
v 0.040425 0.004166 -0.048197
v 0.034450 0.016126 -0.044354
v 0.035729 0.015271 -0.043500
v 0.030603 0.010144 -0.045634
v 0.030603 0.016126 -0.048624
v 0.030603 0.015698 -0.040510
v 0.042990 0.008865 -0.047342
v 0.041282 0.006728 -0.044354
v 0.030603 0.010571 -0.048624
v 0.043844 0.003738 -0.049052
v 0.037863 0.013562 -0.047769
v 0.038717 0.006301 -0.044781
v 0.042134 0.008438 -0.044354
v 0.040855 0.008865 -0.049052
v 0.031885 0.016126 -0.040510
v 0.043417 0.004166 -0.046488
f 341 336 344 
f 333 332 334 
f 329 332 337 
f 332 333 337 
f 329 337 338 
f 330 331 339 
f 333 330 339 
f 331 335 339 
f 332 329 340 
f 334 332 340 
f 336 334 340 
f 335 331 341 
f 337 333 342 
f 338 337 342 
f 335 338 342 
f 333 339 342 
f 339 335 342 
f 331 330 343 
f 330 333 343 
f 333 334 343 
f 334 336 343 
f 341 331 343 
f 336 341 343 
f 338 335 344 
f 329 338 344 
f 340 329 344 
f 336 340 344 
f 335 341 344 
o convex_15
v -0.033897 -0.056492 0.005199
v 0.003691 -0.038125 0.017157
v 0.003691 -0.038125 0.014168
v -0.023218 -0.039835 0.012457
v -0.020656 -0.056066 0.019295
v -0.006134 -0.047950 0.005626
v -0.010835 -0.038125 0.006053
v -0.030481 -0.053076 0.019295
v -0.015532 -0.038125 0.019295
v -0.005284 -0.050513 0.019295
v -0.024072 -0.058202 0.006908
v -0.030908 -0.054356 0.002635
v -0.004430 -0.050085 0.008617
v -0.034751 -0.052221 0.007762
v -0.033043 -0.057774 0.010326
v -0.024072 -0.055639 0.002635
v 0.001125 -0.038125 0.009044
v -0.017667 -0.044108 0.003490
v 0.000271 -0.044961 0.019295
v -0.032189 -0.050936 0.004772
v -0.024072 -0.042825 0.018440
v -0.001010 -0.047097 0.009471
v -0.012116 -0.053929 0.019295
v 0.002833 -0.038125 0.019295
v -0.006134 -0.038125 0.006053
v -0.034751 -0.052221 0.009899
v -0.023649 -0.042398 0.008190
v -0.022364 -0.057347 0.016730
v -0.029627 -0.058629 0.006053
v -0.035609 -0.056066 0.009046
v -0.017667 -0.045818 0.003063
v -0.018948 -0.038125 0.013313
v -0.030908 -0.053929 0.018868
v -0.009554 -0.052646 0.009471
v -0.008700 -0.048377 0.004772
v -0.025780 -0.042398 0.013741
v -0.025353 -0.057774 0.015022
v -0.021083 -0.054784 0.003063
v -0.029627 -0.056066 0.002635
v -0.021083 -0.039407 0.016304
v -0.000583 -0.046669 0.018012
v -0.033043 -0.052646 0.003917
v 0.003691 -0.038982 0.015022
v -0.001864 -0.047524 0.008190
v 0.003260 -0.038554 0.012032
v -0.035609 -0.054356 0.006908
v -0.021937 -0.041970 0.019295
f 384 365 391 
f 346 347 351 
f 352 349 353 
f 346 351 353 
f 353 349 354 
f 351 347 361 
f 353 354 363 
f 358 348 364 
f 354 349 367 
f 357 354 367 
f 346 353 368 
f 363 346 368 
f 353 363 368 
f 361 350 369 
f 351 361 369 
f 362 351 369 
f 352 365 370 
f 348 351 371 
f 351 362 371 
f 364 348 371 
f 362 364 371 
f 367 349 372 
f 355 367 372 
f 359 345 373 
f 360 355 373 
f 345 359 374 
f 360 356 375 
f 356 362 375 
f 362 369 375 
f 351 348 376 
f 353 351 376 
f 349 352 377 
f 352 370 377 
f 374 359 377 
f 370 374 377 
f 355 357 378 
f 367 355 378 
f 357 367 378 
f 369 350 379 
f 375 369 379 
f 348 358 380 
f 358 370 380 
f 370 365 380 
f 372 349 381 
f 355 372 381 
f 359 373 381 
f 373 355 381 
f 349 377 381 
f 377 359 381 
f 350 357 382 
f 357 355 382 
f 355 360 382 
f 360 375 382 
f 379 350 382 
f 375 379 382 
f 345 356 383 
f 356 360 383 
f 373 345 383 
f 360 373 383 
f 376 348 384 
f 353 376 384 
f 348 380 384 
f 380 365 384 
f 354 357 385 
f 363 354 385 
f 357 366 385 
f 356 345 386 
f 362 356 386 
f 358 364 386 
f 364 362 386 
f 347 346 387 
f 346 363 387 
f 363 385 387 
f 385 366 387 
f 357 350 388 
f 350 361 388 
f 366 357 388 
f 366 388 389 
f 361 347 389 
f 347 387 389 
f 387 366 389 
f 388 361 389 
f 370 358 390 
f 345 374 390 
f 374 370 390 
f 386 345 390 
f 358 386 390 
f 352 353 391 
f 365 352 391 
f 353 384 391 
o convex_16
v -0.020657 0.003310 -0.022568
v -0.016814 0.015271 -0.025986
v -0.016814 0.015271 -0.028121
v -0.025782 0.011854 -0.025558
v -0.014680 0.007155 -0.029830
v -0.024927 0.009291 -0.029830
v -0.013398 0.010144 -0.022568
v -0.023646 0.013135 -0.022568
v -0.012116 0.012707 -0.029830
v -0.021083 0.014844 -0.029830
v -0.013824 0.005874 -0.022568
v -0.024927 0.006301 -0.022568
v -0.021083 0.006728 -0.029830
v -0.017669 0.013989 -0.022568
v -0.022791 0.014844 -0.024704
v -0.017669 0.003310 -0.022995
v -0.012970 0.013562 -0.026411
v -0.011688 0.011426 -0.029830
v -0.024927 0.012707 -0.028974
v -0.023219 0.004592 -0.022995
f 397 404 411 
f 392 398 399 
f 396 397 400 
f 394 400 401 
f 400 397 401 
f 398 392 402 
f 395 397 403 
f 399 395 403 
f 392 399 403 
f 397 396 404 
f 399 398 405 
f 399 405 406 
f 393 394 406 
f 395 399 406 
f 394 401 406 
f 405 393 406 
f 402 392 407 
f 396 402 407 
f 392 404 407 
f 404 396 407 
f 394 393 408 
f 400 394 408 
f 393 405 408 
f 405 398 408 
f 396 400 409 
f 402 396 409 
f 398 402 409 
f 400 408 409 
f 408 398 409 
f 397 395 410 
f 401 397 410 
f 395 406 410 
f 406 401 410 
f 403 397 411 
f 392 403 411 
f 404 392 411 
o convex_17
v -0.014252 0.009291 -0.017014
v -0.028345 -0.003949 -0.011463
v -0.027917 -0.004375 -0.012318
v -0.012544 -0.004375 -0.009754
v -0.017242 0.002886 -0.022566
v -0.025781 0.007152 -0.011890
v -0.024074 0.012280 -0.022566
v -0.015106 0.005873 -0.009754
v -0.013399 0.009715 -0.022566
v -0.020229 -0.006941 -0.014026
v -0.024500 0.005019 -0.022566
v -0.027062 -0.005230 -0.009754
v -0.017242 0.013563 -0.022139
v -0.011263 0.002886 -0.009754
v -0.012971 0.000749 -0.018722
v -0.028345 0.004162 -0.016159
v -0.027062 0.002031 -0.009754
v -0.023219 -0.004804 -0.016159
v -0.015961 -0.006941 -0.010609
v -0.023646 0.008436 -0.012744
v -0.011690 0.001175 -0.016159
v -0.016387 -0.006086 -0.014026
v -0.027917 0.005445 -0.012744
v -0.021938 -0.007369 -0.009754
v -0.026636 -0.005230 -0.013598
v -0.023219 0.013134 -0.022139
v -0.024074 0.005445 -0.009754
v -0.013399 0.005873 -0.022566
v -0.025355 0.006727 -0.022566
v -0.019378 -0.004375 -0.017014
v -0.021083 0.002886 -0.022566
v -0.017242 0.008862 -0.013598
v -0.011263 -0.002242 -0.010182
v -0.028345 -0.002667 -0.009754
v -0.027062 0.008008 -0.016159
f 417 437 446 
f 416 418 420 
f 418 416 422 
f 413 414 423 
f 415 419 423 
f 419 412 424 
f 412 420 424 
f 420 418 424 
f 419 415 425 
f 412 419 425 
f 420 412 425 
f 414 413 427 
f 423 419 428 
f 420 425 432 
f 426 415 433 
f 415 430 433 
f 430 421 433 
f 428 417 434 
f 415 423 435 
f 430 415 435 
f 421 430 435 
f 423 414 436 
f 429 421 436 
f 422 429 436 
f 421 435 436 
f 435 423 436 
f 424 418 437 
f 417 431 437 
f 431 424 437 
f 417 428 438 
f 428 419 438 
f 431 417 438 
f 419 431 438 
f 416 420 439 
f 426 416 439 
f 420 432 439 
f 432 426 439 
f 418 422 440 
f 414 427 440 
f 427 418 440 
f 436 414 440 
f 422 436 440 
f 416 426 441 
f 421 429 441 
f 433 421 441 
f 426 433 441 
f 422 416 442 
f 429 422 442 
f 416 441 442 
f 441 429 442 
f 419 424 443 
f 431 419 443 
f 424 431 443 
f 425 415 444 
f 415 426 444 
f 432 425 444 
f 426 432 444 
f 413 423 445 
f 427 413 445 
f 423 428 445 
f 434 427 445 
f 428 434 445 
f 418 427 446 
f 434 417 446 
f 427 434 446 
f 437 418 446 
o convex_18
v -0.014677 -0.006513 -0.009325
v -0.014677 0.012277 0.010752
v -0.014677 0.013989 0.009897
v -0.028347 -0.003093 -0.009325
v -0.014677 0.012277 -0.008043
v -0.017668 -0.001815 0.004343
v -0.022791 0.010998 0.000074
v -0.023646 -0.002242 0.000925
v -0.025356 0.003738 -0.009753
v -0.015107 0.016551 -0.001209
v -0.021512 -0.006940 -0.006335
v -0.014677 -0.003093 0.003063
v -0.024074 0.006727 0.001353
v -0.016386 0.004167 0.009042
v -0.014677 0.008009 -0.009753
v -0.023646 -0.006940 -0.009753
v -0.018096 0.013133 -0.005480
v -0.019805 0.011427 0.006479
v -0.016386 0.016551 0.003488
v -0.022364 -0.005660 -0.002489
v -0.015532 -0.006087 -0.003344
v -0.021512 0.000749 0.004343
v -0.026638 0.002031 -0.003344
v -0.014677 0.003311 0.009042
v -0.017668 -0.007369 -0.009753
v -0.020660 0.012704 -0.002064
v -0.024501 -0.005231 -0.003772
v -0.014677 0.016980 0.005198
v -0.025783 0.005015 -0.002917
v -0.027065 -0.005231 -0.009753
v -0.016386 0.011427 -0.008470
v -0.015107 0.009718 0.010752
f 460 470 478 
f 449 448 447 
f 449 447 451 
f 447 448 458 
f 451 447 461 
f 455 461 462 
f 456 451 463 
f 448 449 464 
f 453 459 464 
f 464 449 465 
f 453 464 465 
f 452 454 466 
f 458 452 466 
f 447 458 467 
f 458 466 467 
f 466 457 467 
f 454 452 468 
f 459 454 468 
f 452 460 468 
f 464 459 468 
f 450 454 469 
f 454 459 469 
f 458 448 470 
f 452 458 470 
f 460 452 470 
f 461 447 471 
f 462 461 471 
f 457 462 471 
f 447 467 471 
f 467 457 471 
f 455 453 472 
f 463 455 472 
f 456 463 472 
f 453 465 472 
f 465 456 472 
f 454 450 473 
f 462 457 473 
f 466 454 473 
f 457 466 473 
f 449 451 474 
f 451 456 474 
f 456 465 474 
f 465 449 474 
f 455 450 475 
f 453 455 475 
f 459 453 475 
f 450 469 475 
f 469 459 475 
f 450 455 476 
f 455 462 476 
f 473 450 476 
f 462 473 476 
f 451 461 477 
f 461 455 477 
f 463 451 477 
f 455 463 477 
f 448 464 478 
f 468 460 478 
f 464 468 478 
f 470 448 478 
o convex_19
v -0.011687 0.008008 -0.009753
v -0.011260 0.013134 0.013315
v -0.011687 0.013134 0.013315
v -0.011260 -0.011640 0.009894
v -0.014677 -0.005231 0.005197
v -0.014677 0.017405 0.001357
v -0.014677 -0.006086 -0.009753
v -0.011260 0.020824 0.000503
v -0.011260 -0.009502 -0.004623
v -0.014677 0.012279 0.011179
v -0.014677 0.010999 -0.008897
v -0.013395 -0.011640 0.006907
v -0.011260 -0.002669 -0.009753
v -0.011687 -0.009931 0.011179
v -0.012115 0.018686 0.006480
v -0.012115 -0.011640 -0.001635
v -0.011260 0.013560 -0.007188
v -0.013823 -0.009502 0.008187
v -0.013823 -0.011640 0.003488
v -0.014677 0.014844 -0.005481
v -0.014677 0.015270 0.009040
v -0.014677 0.010144 0.011179
v -0.011260 0.016121 0.011179
v -0.014677 0.008431 -0.009753
f 485 489 502 
f 483 484 485 
f 480 482 486 
f 486 482 487 
f 484 483 488 
f 485 484 489 
f 485 479 491 
f 487 485 491 
f 486 487 491 
f 480 481 492 
f 482 480 492 
f 490 482 492 
f 486 484 493 
f 485 487 494 
f 487 482 494 
f 482 490 494 
f 479 489 495 
f 491 479 495 
f 486 491 495 
f 490 492 496 
f 483 485 497 
f 485 494 497 
f 494 490 497 
f 496 483 497 
f 490 496 497 
f 484 486 498 
f 489 484 498 
f 495 489 498 
f 486 495 498 
f 488 481 499 
f 484 488 499 
f 493 484 499 
f 481 488 500 
f 488 483 500 
f 492 481 500 
f 483 496 500 
f 496 492 500 
f 481 480 501 
f 480 486 501 
f 486 493 501 
f 499 481 501 
f 493 499 501 
f 479 485 502 
f 489 479 502 
o convex_20
v 0.006254 0.014416 -0.013171
v -0.004425 0.012706 -0.013171
v -0.004425 0.012706 -0.012743
v 0.003263 0.002883 -0.013171
v -0.001007 0.016552 -0.016587
v -0.001434 0.020824 -0.012743
v 0.001981 0.008865 -0.016159
v 0.006254 0.005874 -0.012743
v 0.004117 0.016125 -0.015732
v -0.001862 0.010147 -0.015732
v 0.003263 0.019967 -0.012743
v -0.000580 0.004592 -0.012743
v -0.003998 0.016552 -0.014878
v 0.004972 0.009720 -0.015305
v 0.001981 0.018260 -0.015732
v 0.003263 0.013988 -0.016587
f 517 511 518 
f 508 505 510 
f 509 506 512 
f 507 509 512 
f 508 510 513 
f 510 503 513 
f 503 511 513 
f 505 504 514 
f 510 505 514 
f 506 510 514 
f 504 512 514 
f 512 506 514 
f 504 505 515 
f 508 507 515 
f 505 508 515 
f 512 504 515 
f 507 512 515 
f 506 509 516 
f 510 506 516 
f 503 510 516 
f 511 503 516 
f 507 508 517 
f 508 513 517 
f 513 511 517 
f 509 507 518 
f 516 509 518 
f 511 516 518 
f 507 517 518 
o convex_21
v -0.006133 -0.000534 0.015019
v 0.022487 -0.002671 0.004769
v 0.022487 -0.004808 0.004769
v -0.011260 0.000320 -0.010175
v -0.011260 -0.011640 -0.002914
v 0.008814 -0.011640 0.020149
v 0.013515 -0.011640 -0.005907
v 0.011804 0.000320 0.020575
v 0.017786 0.000320 -0.006759
v -0.011260 -0.010786 0.011174
v -0.000580 -0.011640 -0.011883
v -0.011260 0.000320 0.009466
v 0.004976 0.000320 -0.012316
v 0.019068 -0.011640 0.001357
v 0.004546 -0.008648 0.020575
v 0.020349 -0.007794 0.008614
v 0.013085 -0.003952 -0.009752
v 0.018641 0.000320 0.012033
v 0.020775 -0.004808 -0.002914
v -0.006133 -0.011640 0.015019
v 0.006680 0.000320 0.021001
v 0.021205 0.000320 -0.001207
v -0.003144 -0.011640 -0.011457
v -0.008693 -0.004380 0.014167
v 0.012659 -0.003097 0.019720
v 0.017357 -0.011640 0.008611
v -0.011260 -0.002244 -0.009749
v 0.007962 -0.006512 0.021431
v 0.001127 0.000320 -0.012316
v 0.010525 -0.011640 0.018867
v 0.019068 -0.005235 0.011604
v 0.022487 -0.003953 0.000075
v 0.012233 -0.001389 -0.010604
v 0.021205 -0.009076 0.004346
v -0.003996 -0.004808 0.016730
v 0.018641 -0.006512 -0.004626
v -0.010404 -0.011213 -0.005052
v -0.011260 -0.003952 0.012030
v 0.004976 -0.011640 0.020149
v 0.020349 -0.009076 -0.000351
v 0.006254 -0.011213 -0.009752
v 0.021631 0.000320 0.004346
v -0.011260 -0.011640 0.010322
v 0.019923 -0.000107 -0.005052
v 0.011378 -0.006940 0.020149
v 0.016078 -0.003525 -0.008041
v -0.004422 0.000320 0.015875
v 0.016930 -0.011640 -0.002918
v 0.006254 -0.006085 -0.011460
v -0.001862 -0.011640 -0.011883
v 0.005402 -0.003952 0.021001
f 565 553 569 
f 524 523 525 
f 522 526 527 
f 522 523 528 
f 525 523 529 
f 526 522 530 
f 522 528 530 
f 522 527 531 
f 524 525 532 
f 527 526 536 
f 523 524 538 
f 526 530 539 
f 527 536 540 
f 529 523 541 
f 528 538 542 
f 536 526 543 
f 524 532 544 
f 523 522 545 
f 522 541 545 
f 526 539 546 
f 522 531 547 
f 531 529 547 
f 524 544 548 
f 544 534 548 
f 521 520 549 
f 534 521 549 
f 520 536 549 
f 536 543 549 
f 548 534 549 
f 520 521 550 
f 531 527 551 
f 521 534 552 
f 544 532 552 
f 534 544 552 
f 550 521 552 
f 538 533 553 
f 542 538 553 
f 541 523 555 
f 523 545 555 
f 545 541 555 
f 519 530 556 
f 530 528 556 
f 542 519 556 
f 528 542 556 
f 538 524 557 
f 533 538 557 
f 524 546 557 
f 546 533 557 
f 537 550 558 
f 552 532 558 
f 550 552 558 
f 554 537 558 
f 525 529 559 
f 535 525 559 
f 536 520 560 
f 540 536 560 
f 520 550 560 
f 550 540 560 
f 528 523 561 
f 523 538 561 
f 538 528 561 
f 527 540 562 
f 550 537 562 
f 540 550 562 
f 537 554 562 
f 543 526 563 
f 546 524 563 
f 526 546 563 
f 524 548 563 
f 549 543 563 
f 548 549 563 
f 525 535 564 
f 551 527 564 
f 535 551 564 
f 554 525 564 
f 527 562 564 
f 562 554 564 
f 530 519 565 
f 539 530 565 
f 519 542 565 
f 542 553 565 
f 532 525 566 
f 525 554 566 
f 558 532 566 
f 554 558 566 
f 529 531 567 
f 531 551 567 
f 551 535 567 
f 559 529 567 
f 535 559 567 
f 541 522 568 
f 529 541 568 
f 522 547 568 
f 547 529 568 
f 533 546 569 
f 546 539 569 
f 553 533 569 
f 539 565 569 
o convex_22
v -0.029197 -0.049657 0.024847
v 0.002410 -0.038127 0.019723
v 0.002410 -0.038555 0.019723
v -0.030055 -0.053074 0.019295
v -0.006991 -0.053501 0.023993
v -0.006991 -0.038127 0.024847
v -0.015529 -0.038127 0.019296
v -0.011687 -0.054356 0.019296
v -0.007420 -0.044109 0.026555
v -0.013823 -0.056064 0.023139
v -0.023646 -0.045817 0.026130
v -0.000587 -0.046244 0.019296
v -0.001436 -0.038555 0.024420
v -0.020658 -0.041545 0.019295
v -0.019800 -0.056064 0.019296
v -0.010833 -0.056064 0.021432
v -0.023646 -0.047096 0.026130
v -0.016381 -0.039835 0.023139
v -0.028346 -0.047949 0.024847
v -0.004855 -0.048802 0.024420
v -0.030055 -0.050937 0.023992
v -0.030055 -0.050084 0.022713
v 0.002410 -0.038127 0.019296
v -0.029626 -0.053499 0.019723
v -0.009552 -0.043254 0.026555
f 580 586 594 
f 575 571 576 
f 577 573 581 
f 572 571 582 
f 571 575 582 
f 581 573 583 
f 573 577 584 
f 579 584 585 
f 574 579 585 
f 581 574 585 
f 577 581 585 
f 584 577 585 
f 574 578 586 
f 570 579 586 
f 579 574 586 
f 580 570 586 
f 575 576 587 
f 580 575 587 
f 570 580 588 
f 576 583 588 
f 587 576 588 
f 580 587 588 
f 578 574 589 
f 581 572 589 
f 574 581 589 
f 572 582 589 
f 582 578 589 
f 579 570 590 
f 583 573 591 
f 570 588 591 
f 588 583 591 
f 590 570 591 
f 573 590 591 
f 571 572 592 
f 576 571 592 
f 572 581 592 
f 583 576 592 
f 581 583 592 
f 573 584 593 
f 584 579 593 
f 579 590 593 
f 590 573 593 
f 575 580 594 
f 582 575 594 
f 578 582 594 
f 586 578 594 
o convex_23
v -0.012541 -0.023601 0.007759
v 0.010098 -0.011640 0.018864
v 0.009670 -0.011640 0.019291
v -0.007841 -0.011640 -0.007189
v 0.010098 -0.023601 -0.002489
v 0.004117 -0.025737 0.021000
v -0.010831 -0.011640 0.011177
v 0.010098 -0.011640 -0.007189
v -0.004852 -0.024455 -0.007189
v 0.010098 -0.025737 0.013740
v -0.007413 -0.025737 0.016731
v -0.001009 -0.016342 -0.011888
v -0.012541 -0.017622 -0.003771
v 0.004544 -0.011640 0.019719
v -0.005705 -0.025737 -0.004198
v -0.012541 -0.011640 -0.000353
v -0.003143 -0.011640 -0.011461
v 0.010098 -0.025737 0.002638
v -0.000156 -0.025309 0.021004
v -0.006133 -0.011640 0.015022
v -0.012541 -0.016342 0.010746
v 0.010098 -0.020611 -0.005476
v -0.011684 -0.025737 0.008186
v -0.012541 -0.021891 -0.000780
v -0.004852 -0.021036 -0.009752
v -0.003143 -0.023172 -0.008470
v -0.003571 -0.025737 -0.005052
v 0.001127 -0.011640 -0.011461
v 0.007961 -0.011640 0.020146
v -0.009122 -0.025737 0.015022
v -0.003143 -0.015912 -0.011888
v -0.012541 -0.014632 -0.003771
v 0.001127 -0.015486 -0.011461
v -0.012541 -0.011640 0.008186
v -0.000581 -0.018476 -0.011034
v 0.010098 -0.018901 -0.006331
v 0.006681 -0.024455 0.018864
v 0.001127 -0.025737 0.021431
v -0.005279 -0.023601 -0.008043
v -0.011684 -0.015486 0.011604
f 615 624 634 
f 597 596 598 
f 597 598 601 
f 598 596 602 
f 596 599 602 
f 599 596 604 
f 604 600 605 
f 597 601 608 
f 604 605 609 
f 601 598 610 
f 607 595 610 
f 598 602 611 
f 599 604 612 
f 604 609 612 
f 613 608 614 
f 608 601 614 
f 605 613 614 
f 610 595 615 
f 602 599 616 
f 609 605 617 
f 609 617 618 
f 595 607 618 
f 617 595 618 
f 616 599 620 
f 609 603 621 
f 599 612 621 
f 612 609 621 
f 620 599 621 
f 603 620 621 
f 611 602 622 
f 600 597 623 
f 597 608 623 
f 615 595 624 
f 595 617 624 
f 617 605 624 
f 606 619 625 
f 619 607 625 
f 622 606 625 
f 611 622 625 
f 610 598 626 
f 607 610 626 
f 598 611 626 
f 625 607 626 
f 611 625 626 
f 622 602 627 
f 606 622 627 
f 601 610 628 
f 615 601 628 
f 610 615 628 
f 619 606 629 
f 616 620 629 
f 620 619 629 
f 606 627 629 
f 629 627 630 
f 602 616 630 
f 627 602 630 
f 616 629 630 
f 596 597 631 
f 597 600 631 
f 600 604 631 
f 604 596 631 
f 605 600 632 
f 613 605 632 
f 608 613 632 
f 600 623 632 
f 623 608 632 
f 603 609 633 
f 609 618 633 
f 618 607 633 
f 607 619 633 
f 620 603 633 
f 619 620 633 
f 614 601 634 
f 605 614 634 
f 601 615 634 
f 624 605 634 
o convex_24
v -0.027919 -0.024883 -0.004627
v -0.032614 -0.029154 -0.018722
v -0.032614 -0.028300 -0.018722
v -0.018096 -0.030862 -0.015732
v -0.030053 -0.031717 -0.011462
v -0.025786 -0.023601 -0.008898
v -0.034751 -0.025738 -0.008471
v -0.022368 -0.029580 -0.008898
v -0.024931 -0.023601 -0.005054
v -0.032616 -0.023601 -0.008898
v -0.018525 -0.029580 -0.016159
v -0.035609 -0.029580 -0.012316
v -0.030908 -0.027871 -0.006336
v -0.028772 -0.031717 -0.015732
v -0.019805 -0.031289 -0.012742
v -0.024931 -0.028300 -0.006336
v -0.034750 -0.027872 -0.015732
v -0.025359 -0.030862 -0.017867
v -0.031333 -0.027872 -0.018295
v -0.018525 -0.029580 -0.013170
v -0.031333 -0.023601 -0.005910
v -0.034751 -0.027871 -0.008471
v -0.034750 -0.030008 -0.014878
v -0.027919 -0.031717 -0.011034
f 650 647 658 
f 643 640 644 
f 640 643 645 
f 648 638 649 
f 643 635 650 
f 642 643 650 
f 635 647 650 
f 637 636 651 
f 644 637 651 
f 641 644 651 
f 646 641 651 
f 636 637 652 
f 637 645 652 
f 645 638 652 
f 648 636 652 
f 638 648 652 
f 637 644 653 
f 644 640 653 
f 645 637 653 
f 640 645 653 
f 643 642 654 
f 638 645 654 
f 645 643 654 
f 642 649 654 
f 649 638 654 
f 635 643 655 
f 644 641 655 
f 643 644 655 
f 647 635 655 
f 647 655 656 
f 646 639 656 
f 641 646 656 
f 639 647 656 
f 655 641 656 
f 639 646 657 
f 636 648 657 
f 648 639 657 
f 651 636 657 
f 646 651 657 
f 647 639 658 
f 639 648 658 
f 649 642 658 
f 648 649 658 
f 642 650 658 
o convex_25
v 0.020776 -0.015912 -0.011888
v 0.010099 -0.025737 0.003487
v 0.010099 -0.025309 0.001783
v 0.010099 -0.011640 0.018441
v 0.010099 -0.011640 -0.006761
v 0.016931 -0.021465 0.006907
v 0.018642 -0.011640 0.005194
v 0.013089 -0.018901 -0.011888
v 0.010526 -0.025737 0.013314
v 0.020776 -0.019328 -0.005906
v 0.017359 -0.013351 -0.011888
v 0.016079 -0.019755 -0.011888
v 0.020776 -0.019328 -0.000776
v 0.013944 -0.024455 0.001783
v 0.010099 -0.020611 -0.005479
v 0.021632 -0.016767 -0.006334
v 0.010526 -0.012068 0.018441
v 0.018642 -0.011640 0.000928
v 0.018214 -0.018050 0.006049
v 0.013089 -0.015486 -0.011888
v 0.011809 -0.025737 0.009466
v 0.010099 -0.025737 0.013314
v 0.017359 -0.011640 0.008183
v 0.010099 -0.023601 -0.002489
v 0.019067 -0.013776 -0.011888
v 0.016079 -0.011640 -0.003772
f 683 669 684 
f 661 660 662 
f 661 662 663 
f 663 662 665 
f 659 666 669 
f 666 659 670 
f 659 668 670 
f 668 671 672 
f 660 661 672 
f 661 670 672 
f 670 668 672 
f 661 663 673 
f 663 666 673 
f 668 659 674 
f 665 671 674 
f 671 668 674 
f 667 664 675 
f 663 665 676 
f 674 659 676 
f 665 674 676 
f 664 671 677 
f 671 665 677 
f 675 664 677 
f 666 663 678 
f 663 669 678 
f 669 666 678 
f 667 660 679 
f 664 667 679 
f 671 664 679 
f 672 671 679 
f 660 672 679 
f 662 660 680 
f 660 667 680 
f 675 662 680 
f 667 675 680 
f 665 662 681 
f 662 675 681 
f 677 665 681 
f 675 677 681 
f 670 661 682 
f 666 670 682 
f 661 673 682 
f 673 666 682 
f 659 669 683 
f 676 659 683 
f 676 683 684 
f 669 663 684 
f 663 676 684 
o convex_26
v -0.032191 -0.023601 -0.007189
v -0.018525 -0.011640 -0.004628
v -0.018525 -0.011640 -0.005909
v -0.012541 -0.018473 -0.002918
v -0.021941 -0.017621 -0.009325
v -0.024928 -0.015485 -0.002918
v -0.024072 -0.012068 -0.008043
v -0.027061 -0.023601 -0.009325
v -0.026634 -0.023174 -0.004200
v -0.020231 -0.012922 -0.009325
v -0.012541 -0.013777 -0.002918
v -0.031333 -0.023174 -0.009325
v -0.026207 -0.013777 -0.005055
v -0.021514 -0.012495 -0.002918
v -0.024501 -0.023601 -0.005055
v -0.012541 -0.017621 -0.003773
v -0.029200 -0.020183 -0.004628
v -0.017671 -0.013350 -0.008043
v -0.027919 -0.015914 -0.006761
v -0.024501 -0.023601 -0.007616
f 692 700 704 
f 686 687 691 
f 688 690 693 
f 691 687 694 
f 689 692 694 
f 687 686 695 
f 690 688 695 
f 692 685 696 
f 691 694 696 
f 694 692 696 
f 686 691 698 
f 695 686 698 
f 690 695 698 
f 697 690 698 
f 691 697 698 
f 685 692 699 
f 693 685 699 
f 688 693 699 
f 692 689 700 
f 695 688 700 
f 685 693 701 
f 693 690 701 
f 697 685 701 
f 690 697 701 
f 694 687 702 
f 689 694 702 
f 687 695 702 
f 700 689 702 
f 695 700 702 
f 696 685 703 
f 691 696 703 
f 685 697 703 
f 697 691 703 
f 699 692 704 
f 688 699 704 
f 700 688 704 
o convex_27
v -0.013824 -0.011640 0.004770
v -0.012969 -0.023601 0.005198
v -0.012541 -0.023601 0.005198
v -0.013396 -0.018900 -0.002918
v -0.023648 -0.015058 -0.002489
v -0.012541 -0.016768 0.010324
v -0.012541 -0.013777 -0.002918
v -0.015532 -0.021892 0.006906
v -0.020657 -0.012495 -0.002918
v -0.022793 -0.016768 -0.002918
v -0.012969 -0.011640 0.007334
v -0.012541 -0.022319 0.000074
v -0.021510 -0.014631 0.000928
v -0.012541 -0.011640 0.000074
v -0.012969 -0.018900 0.010324
v -0.012969 -0.013777 0.009468
v -0.018520 -0.017196 0.004770
v -0.012541 -0.022319 0.009041
v -0.022365 -0.013350 -0.001635
f 717 715 723 
f 710 707 711 
f 711 708 713 
f 706 712 714 
f 712 709 714 
f 709 713 714 
f 713 708 714 
f 705 713 715 
f 707 706 716 
f 711 707 716 
f 708 711 716 
f 706 714 716 
f 714 708 716 
f 710 711 718 
f 713 705 718 
f 711 713 718 
f 715 710 718 
f 705 715 718 
f 710 715 720 
f 715 717 720 
f 719 710 720 
f 709 712 721 
f 717 709 721 
f 712 719 721 
f 720 717 721 
f 719 720 721 
f 706 707 722 
f 707 710 722 
f 712 706 722 
f 710 719 722 
f 719 712 722 
f 713 709 723 
f 715 713 723 
f 709 717 723 
o convex_28
v 0.007962 -0.027874 -0.015306
v 0.001129 -0.029581 -0.027267
v 0.001129 -0.027874 -0.027267
v -0.004851 -0.028300 -0.018724
v 0.006254 -0.032572 -0.022566
v 0.012662 -0.026164 -0.018724
v -0.001435 -0.032143 -0.020434
v -0.005279 -0.026592 -0.023848
v -0.005279 -0.030008 -0.025984
v 0.004972 -0.026164 -0.015306
v 0.004972 -0.032143 -0.025984
v 0.009244 -0.031290 -0.019579
v -0.003997 -0.030008 -0.017870
v 0.003690 -0.027447 -0.026839
v 0.005826 -0.031290 -0.017870
v 0.011380 -0.026592 -0.015733
v 0.002839 -0.032572 -0.025557
v 0.010952 -0.030008 -0.020006
v 0.001983 -0.028728 -0.015733
v -0.004851 -0.028300 -0.026839
v 0.004542 -0.030862 -0.026839
v 0.003265 -0.027019 -0.026412
f 743 731 745 
f 727 731 732 
f 731 727 733 
f 729 731 733 
f 727 732 736 
f 732 730 736 
f 730 728 738 
f 735 724 738 
f 728 735 738 
f 736 730 738 
f 733 724 739 
f 729 733 739 
f 724 735 739 
f 728 730 740 
f 732 725 740 
f 730 732 740 
f 734 728 740 
f 728 734 741 
f 735 728 741 
f 729 739 741 
f 739 735 741 
f 724 733 742 
f 733 727 742 
f 727 736 742 
f 738 724 742 
f 736 738 742 
f 726 725 743 
f 725 732 743 
f 732 731 743 
f 725 726 744 
f 726 737 744 
f 737 729 744 
f 740 725 744 
f 734 740 744 
f 741 734 744 
f 729 741 744 
f 731 729 745 
f 737 726 745 
f 729 737 745 
f 726 743 745 
o convex_29
v 0.006683 -0.026164 -0.019149
v 0.018641 -0.013349 -0.013598
v 0.019068 -0.013777 -0.011889
v 0.018641 -0.021037 -0.016159
v 0.005401 -0.026164 -0.015307
v 0.015222 -0.014205 -0.017440
v 0.013515 -0.014631 -0.012317
v 0.015651 -0.020182 -0.011889
v 0.012660 -0.026164 -0.018722
v 0.004118 -0.025735 -0.017440
v 0.018212 -0.014631 -0.017868
v 0.012234 -0.026164 -0.015734
v 0.020351 -0.017194 -0.011889
v 0.010954 -0.025735 -0.020004
v 0.012660 -0.018476 -0.011889
v 0.019922 -0.014631 -0.016159
v 0.013088 -0.018049 -0.018722
v 0.012660 -0.015485 -0.016159
v 0.019068 -0.018476 -0.017014
v 0.016931 -0.021890 -0.013598
f 749 758 765 
f 748 747 752 
f 747 751 752 
f 750 746 754 
f 746 750 755 
f 750 752 755 
f 751 747 756 
f 753 750 757 
f 750 754 757 
f 754 749 757 
f 748 753 758 
f 754 746 759 
f 748 752 760 
f 752 750 760 
f 753 748 760 
f 750 753 760 
f 747 748 761 
f 756 747 761 
f 748 758 761 
f 746 755 762 
f 755 751 762 
f 751 756 762 
f 759 746 762 
f 756 759 762 
f 752 751 763 
f 751 755 763 
f 755 752 763 
f 749 754 764 
f 758 749 764 
f 754 759 764 
f 759 756 764 
f 756 761 764 
f 761 758 764 
f 757 749 765 
f 753 757 765 
f 758 753 765 
o convex_30
v -0.011686 -0.027019 0.010323
v 0.011807 -0.025738 0.008616
v 0.010952 -0.025738 0.012032
v 0.007961 -0.032998 0.012883
v -0.004850 -0.026165 -0.003772
v -0.009124 -0.032998 0.021001
v 0.002836 -0.025738 0.021428
v -0.009977 -0.032998 0.007339
v 0.005825 -0.032998 0.007339
v 0.000701 -0.032998 0.023562
v -0.009124 -0.025738 0.015449
v 0.009243 -0.025738 0.003066
v -0.012541 -0.032998 0.016299
v -0.009977 -0.025738 0.003919
v -0.006132 -0.032998 0.004773
v -0.003570 -0.030008 0.022711
v -0.012112 -0.030863 0.009045
v -0.003141 -0.026165 -0.003772
v 0.003263 -0.032144 0.021428
v -0.006132 -0.025738 -0.002913
v 0.011807 -0.026165 0.006912
v 0.005825 -0.025738 0.019295
v -0.006132 -0.025738 0.018012
v -0.003141 -0.032144 0.023994
v 0.010525 -0.026165 0.013310
v 0.000701 -0.032998 0.005629
v 0.005825 -0.032998 0.017582
v -0.010403 -0.032144 0.019719
v 0.009243 -0.026165 0.003066
v 0.000701 -0.025738 0.021428
f 781 789 795 
f 768 767 772 
f 769 771 773 
f 769 773 774 
f 771 769 775 
f 772 767 776 
f 776 767 777 
f 773 771 778 
f 776 766 778 
f 766 776 779 
f 776 777 779 
f 773 770 780 
f 774 773 780 
f 778 766 782 
f 773 778 782 
f 766 779 782 
f 780 770 783 
f 770 773 785 
f 779 777 785 
f 773 782 785 
f 782 779 785 
f 777 783 785 
f 783 770 785 
f 767 769 786 
f 769 774 786 
f 777 767 786 
f 768 772 787 
f 772 775 787 
f 775 784 787 
f 772 776 788 
f 771 775 789 
f 775 772 789 
f 781 771 789 
f 767 768 790 
f 769 767 790 
f 768 787 790 
f 787 784 790 
f 774 780 791 
f 783 774 791 
f 780 783 791 
f 775 769 792 
f 784 775 792 
f 769 790 792 
f 790 784 792 
f 778 771 793 
f 776 778 793 
f 771 781 793 
f 788 776 793 
f 781 788 793 
f 774 783 794 
f 783 777 794 
f 786 774 794 
f 777 786 794 
f 772 788 795 
f 788 781 795 
f 789 772 795 
o convex_31
v 0.012234 0.007583 -0.013597
v 0.028039 0.015698 -0.018724
v 0.028893 0.013989 -0.017871
v 0.021206 0.003311 -0.021712
v 0.018218 0.015698 -0.026839
v 0.028039 0.001602 -0.012743
v 0.017362 0.015698 -0.015307
v 0.028893 0.004166 -0.020430
v 0.024619 0.010144 -0.012743
v 0.013090 0.003739 -0.012743
v 0.013516 0.012278 -0.022139
v 0.023765 0.015271 -0.026412
v 0.013516 0.015698 -0.020430
v 0.024195 0.001175 -0.019153
v 0.012662 0.010144 -0.012743
v 0.029321 0.005447 -0.012743
v 0.030603 0.005447 -0.017871
v 0.027611 0.015698 -0.022566
v 0.020780 0.000747 -0.012743
v 0.018643 0.002884 -0.019580
v 0.024619 0.015271 -0.015307
v 0.015226 0.009288 -0.022139
v 0.024619 0.003311 -0.021712
v 0.028893 0.002029 -0.018297
v 0.020780 0.015271 -0.027267
v 0.020780 0.011426 -0.012743
v 0.026331 0.000747 -0.013597
v 0.012662 0.004166 -0.013171
v 0.030175 0.002884 -0.015734
v 0.028465 0.007583 -0.012743
v 0.014372 0.015698 -0.017443
v 0.014372 0.015698 -0.023849
v 0.015654 0.012278 -0.024275
f 806 827 828 
f 797 800 802 
f 801 804 805 
f 802 800 808 
f 806 796 808 
f 805 804 810 
f 808 796 810 
f 804 801 811 
f 798 811 812 
f 797 798 813 
f 800 797 813 
f 807 800 813 
f 803 807 813 
f 812 803 813 
f 798 812 813 
f 801 805 814 
f 809 814 815 
f 799 809 815 
f 814 805 815 
f 798 797 816 
f 797 802 816 
f 799 815 817 
f 807 803 818 
f 809 799 818 
f 809 818 819 
f 803 812 819 
f 818 803 819 
f 799 800 820 
f 800 807 820 
f 818 799 820 
f 807 818 820 
f 802 810 821 
f 810 804 821 
f 816 802 821 
f 804 816 821 
f 801 814 822 
f 814 809 822 
f 809 819 822 
f 819 801 822 
f 796 806 823 
f 810 796 823 
f 805 810 823 
f 815 805 823 
f 806 817 823 
f 817 815 823 
f 811 801 824 
f 812 811 824 
f 801 819 824 
f 819 812 824 
f 811 798 825 
f 804 811 825 
f 798 816 825 
f 816 804 825 
f 802 808 826 
f 810 802 826 
f 808 810 826 
f 808 800 827 
f 806 808 827 
f 800 799 828 
f 799 817 828 
f 817 806 828 
f 827 800 828 
o convex_32
v -0.009549 0.026803 0.003484
v 0.018215 0.020398 0.003063
v 0.013942 0.027659 0.003915
v 0.000702 0.021679 -0.012743
v 0.002410 0.019970 0.016304
v -0.011260 0.019970 -0.000780
v 0.007107 0.027659 0.014595
v -0.003568 0.027659 -0.008897
v 0.013942 0.019970 -0.005051
v 0.004969 0.027659 -0.008042
v 0.009242 0.019970 0.016304
v -0.002714 0.019970 -0.012743
v -0.007841 0.020826 0.009040
v 0.000702 0.027659 0.013313
v 0.013942 0.027659 0.000502
v 0.015650 0.019970 0.009467
v -0.008268 0.027659 0.005624
v 0.003264 0.020398 -0.012743
v -0.010830 0.019970 0.004769
v -0.004849 0.027659 -0.007615
v 0.008815 0.027659 0.013313
v 0.005399 0.023388 0.016304
v -0.001006 0.019970 0.014595
v 0.002410 0.027659 -0.009324
v 0.015223 0.020398 -0.003769
v -0.009122 0.027659 0.002208
v 0.016931 0.020398 0.007330
v 0.017785 0.019970 0.000929
v -0.011260 0.021679 0.000502
f 854 848 857 
f 835 831 836 
f 833 834 837 
f 836 831 838 
f 833 837 839 
f 836 832 840 
f 837 834 840 
f 835 836 842 
f 831 830 843 
f 838 831 843 
f 839 837 844 
f 842 836 845 
f 841 842 845 
f 838 837 846 
f 840 832 846 
f 837 840 846 
f 834 833 847 
f 845 829 847 
f 841 845 847 
f 836 840 848 
f 840 834 848 
f 845 836 848 
f 831 835 849 
f 835 839 849 
f 839 844 849 
f 839 835 850 
f 833 839 850 
f 842 833 850 
f 835 842 850 
f 833 842 851 
f 842 841 851 
f 847 833 851 
f 841 847 851 
f 832 836 852 
f 836 838 852 
f 846 832 852 
f 838 846 852 
f 837 838 853 
f 838 843 853 
f 829 845 854 
f 845 848 854 
f 830 831 855 
f 844 830 855 
f 831 849 855 
f 849 844 855 
f 843 830 856 
f 830 844 856 
f 844 837 856 
f 837 853 856 
f 853 843 856 
f 834 847 857 
f 847 829 857 
f 848 834 857 
f 829 854 857 
o convex_33
v 0.014796 0.019970 0.011175
v -0.004424 0.012707 -0.012743
v -0.004424 0.017831 -0.012743
v 0.029319 0.003313 -0.012743
v -0.003998 0.000320 0.016303
v -0.011260 0.000320 -0.010177
v -0.011260 0.016552 0.011175
v 0.011805 0.000320 0.020574
v 0.027609 0.013134 -0.002062
v 0.003693 0.019970 -0.012743
v 0.004122 0.019970 0.017159
v -0.011260 0.019970 -0.001205
v 0.024193 0.000320 -0.012311
v -0.011260 0.000320 0.009469
v 0.028038 0.005875 0.001354
v 0.020777 0.015698 0.010322
v -0.004424 0.007583 0.018012
v 0.018212 0.019970 0.000076
v 0.025903 0.009718 -0.012743
v 0.008819 0.014840 0.019293
v 0.029319 0.002884 -0.005052
v 0.001557 0.001603 -0.012743
v 0.008389 0.000749 0.021431
v -0.010405 0.013134 0.014165
v -0.011260 0.010145 -0.008896
v 0.018212 0.000320 0.012456
v 0.017786 0.008437 0.015018
v 0.025048 0.014842 0.005197
v -0.009975 0.019970 0.007331
v 0.013941 0.019970 -0.005477
v 0.009244 0.019970 0.016731
v -0.011260 0.007156 0.012884
v 0.006254 0.011426 0.020146
v -0.005279 0.014840 0.016303
v 0.028893 0.010997 -0.002915
v 0.024193 0.014842 -0.005477
v -0.003143 0.019970 -0.012743
v 0.010950 0.014840 0.018440
v 0.026328 0.000749 -0.008896
v 0.028893 0.007156 -0.012743
v -0.004424 0.004592 0.018012
v 0.010525 0.004592 0.021003
v 0.018641 0.004592 0.013737
v 0.018641 0.019970 0.003063
v -0.001433 0.019970 0.014593
v 0.023338 0.013986 0.008188
v 0.029748 0.004165 -0.003771
v -0.011260 0.013561 -0.007187
v 0.000702 0.000320 -0.012315
v 0.026328 0.000749 -0.012743
v 0.020777 0.017404 0.008188
v -0.008269 0.016125 0.014165
v 0.021202 0.000320 0.005625
v -0.006134 0.004165 0.016731
v 0.029748 0.005875 -0.008043
v 0.026758 0.011426 0.003491
v 0.028038 0.011853 -0.005477
v 0.006683 0.000320 0.021003
v 0.028893 0.004594 -0.000781
f 892 913 916 
f 859 860 861 
f 860 859 863 
f 862 863 865 
f 861 860 867 
f 858 867 868 
f 868 867 869 
f 863 864 869 
f 865 863 870 
f 863 862 871 
f 864 863 871 
f 867 858 875 
f 861 867 876 
f 859 861 879 
f 863 859 879 
f 860 863 882 
f 863 869 882 
f 865 870 883 
f 868 869 886 
f 869 864 886 
f 867 875 887 
f 876 867 887 
f 858 868 888 
f 873 858 888 
f 868 877 888 
f 864 871 889 
f 881 864 889 
f 877 868 890 
f 874 880 890 
f 881 874 891 
f 890 868 891 
f 874 890 891 
f 866 885 892 
f 875 866 893 
f 887 875 893 
f 876 887 893 
f 867 860 894 
f 869 867 894 
f 884 873 895 
f 873 888 895 
f 888 877 895 
f 861 876 897 
f 874 881 898 
f 880 865 899 
f 865 884 899 
f 877 890 899 
f 890 880 899 
f 895 877 899 
f 884 895 899 
f 865 883 900 
f 883 872 900 
f 884 865 900 
f 875 858 901 
f 866 875 901 
f 885 866 901 
f 886 864 902 
f 868 886 902 
f 873 884 903 
f 885 873 903 
f 884 900 903 
f 878 861 904 
f 860 882 905 
f 882 869 905 
f 894 860 905 
f 869 894 905 
f 870 863 906 
f 863 879 906 
f 906 879 907 
f 861 878 907 
f 879 861 907 
f 896 870 907 
f 878 896 907 
f 870 906 907 
f 858 873 908 
f 873 885 908 
f 901 858 908 
f 885 901 908 
f 864 881 909 
f 891 868 909 
f 881 891 909 
f 902 864 909 
f 868 902 909 
f 883 870 910 
f 878 883 910 
f 870 896 910 
f 896 878 910 
f 871 862 911 
f 889 871 911 
f 881 889 911 
f 862 898 911 
f 898 881 911 
f 861 897 912 
f 897 892 912 
f 904 861 912 
f 892 904 912 
f 892 885 913 
f 900 872 913 
f 885 903 913 
f 903 900 913 
f 866 892 914 
f 893 866 914 
f 876 893 914 
f 897 876 914 
f 892 897 914 
f 862 865 915 
f 865 880 915 
f 880 874 915 
f 898 862 915 
f 874 898 915 
f 872 883 916 
f 883 878 916 
f 878 904 916 
f 904 892 916 
f 913 872 916 
