o convex_0
v -0.020924 -0.002924 -0.009586
v -0.018380 0.022514 0.010764
v -0.020924 0.022514 0.010764
v -0.018380 0.022514 -0.010434
v -0.018380 -0.002924 0.009915
v -0.020924 0.022514 -0.010434
v -0.018380 -0.002075 -0.010434
v -0.020924 -0.001226 0.010764
v -0.020924 -0.002924 0.009915
v -0.020924 -0.002075 -0.010434
v -0.018380 -0.001226 0.010764
v -0.018380 -0.002924 -0.009586
f 7 5 12 
f 3 2 4 
f 4 2 5 
f 1 3 6 
f 3 4 6 
f 6 4 7 
f 4 5 7 
f 3 1 8 
f 2 3 8 
f 5 8 9 
f 1 5 9 
f 8 1 9 
f 1 6 10 
f 6 7 10 
f 7 1 10 
f 5 2 11 
f 2 8 11 
f 8 5 11 
f 5 1 12 
f 1 7 12 
o convex_1
v 0.018081 0.078475 0.003976
v -0.020924 0.022514 -0.010428
v -0.020924 0.022514 0.010758
v 0.018081 0.023366 -0.012127
v -0.017530 0.078475 -0.014671
v -0.017530 0.078475 0.015001
v 0.018081 0.027605 0.014153
v 0.017230 0.078475 -0.014671
v 0.017230 0.080174 0.013302
v -0.018377 0.027605 -0.014671
v -0.017530 0.035242 0.015001
v 0.017230 0.022514 0.012454
v -0.019225 0.078475 -0.003649
v 0.018081 0.027605 -0.014671
v 0.017230 0.078475 0.015001
v -0.017530 0.080174 -0.012975
v -0.017530 0.080174 0.013302
v 0.017230 0.080174 -0.012975
v 0.017230 0.034389 0.015001
v -0.018377 0.027605 0.014153
v 0.017230 0.022514 -0.012127
v -0.019225 0.074231 0.009061
v 0.018081 0.073390 -0.009582
v -0.019225 0.070839 -0.010428
v -0.020924 0.027605 0.010758
v -0.017530 0.022514 -0.012127
v -0.017530 0.022514 0.012454
v -0.020924 0.027605 -0.010428
v -0.019225 0.039480 -0.014671
v 0.018081 0.072532 0.009909
v -0.019225 0.039480 0.014153
v -0.019225 0.078475 0.003976
v 0.018081 0.023366 0.012454
v -0.019225 0.075930 -0.007883
v 0.018081 0.039480 -0.014671
v 0.018081 0.039480 0.014153
v -0.019225 0.072532 0.009909
v -0.019225 0.029298 0.014153
v -0.019225 0.029298 -0.014671
v 0.018081 0.078475 -0.003649
v -0.016682 0.034389 0.015001
v 0.018081 0.070839 -0.010428
v -0.019225 0.077623 0.005672
f 44 37 55 
f 16 13 19 
f 17 20 22 
f 15 14 24 
f 13 16 26 
f 22 20 26 
f 21 18 27 
f 13 21 27 
f 18 23 27 
f 20 17 28 
f 28 25 29 
f 18 21 29 
f 21 28 29 
f 21 13 30 
f 20 28 30 
f 28 21 30 
f 19 27 31 
f 27 23 31 
f 24 19 32 
f 19 31 32 
f 24 14 33 
f 16 24 33 
f 26 16 33 
f 22 26 33 
f 13 26 35 
f 20 30 35 
f 14 15 37 
f 14 22 38 
f 33 14 38 
f 22 33 38 
f 15 24 39 
f 32 15 39 
f 24 32 39 
f 14 37 40 
f 37 25 40 
f 17 22 41 
f 36 17 41 
f 14 40 41 
f 40 36 41 
f 19 13 42 
f 13 27 42 
f 23 18 43 
f 37 15 43 
f 18 37 43 
f 29 25 44 
f 25 37 44 
f 16 19 45 
f 24 16 45 
f 19 24 45 
f 28 17 46 
f 25 28 46 
f 17 36 46 
f 36 40 46 
f 40 25 46 
f 26 20 47 
f 35 26 47 
f 27 19 48 
f 19 42 48 
f 42 27 48 
f 18 34 49 
f 37 18 49 
f 34 37 49 
f 15 32 50 
f 32 23 50 
f 23 43 50 
f 43 15 50 
f 22 14 51 
f 14 41 51 
f 41 22 51 
f 30 13 52 
f 13 35 52 
f 35 30 52 
f 31 23 53 
f 23 32 53 
f 32 31 53 
f 20 35 54 
f 47 20 54 
f 35 47 54 
f 18 29 55 
f 34 18 55 
f 37 34 55 
f 29 44 55 
o convex_2
v 0.018081 0.074235 0.009068
v 0.018081 0.058128 -0.001954
v 0.018081 0.058978 -0.004498
v 0.024017 0.065759 -0.001954
v 0.018081 0.075934 -0.007890
v 0.019778 0.060671 0.007372
v 0.024017 0.070847 0.002285
v 0.019778 0.064066 -0.009586
v 0.019778 0.078478 0.003131
v 0.019778 0.074235 -0.008737
v 0.019778 0.071691 0.009916
v 0.018081 0.063215 0.009068
v 0.019778 0.058128 -0.001104
v 0.024017 0.069996 -0.002803
v 0.019778 0.078478 -0.003649
v 0.018081 0.066610 -0.010434
v 0.024017 0.066610 0.002285
v 0.018081 0.078478 0.003980
v 0.019778 0.064914 0.009916
v 0.019778 0.059825 -0.006193
v 0.019778 0.076779 0.006524
v 0.019778 0.058978 0.004829
v 0.018081 0.058978 0.004829
v 0.019778 0.072540 -0.009586
v 0.018081 0.078478 -0.003649
v 0.018081 0.062369 -0.008737
v 0.024017 0.065759 0.001436
v 0.018081 0.064914 0.009916
v 0.024017 0.070847 -0.001954
v 0.018929 0.070847 -0.010434
v 0.019778 0.077628 -0.005347
v 0.019778 0.075084 0.008219
v 0.019778 0.058128 0.001436
v 0.024017 0.066610 -0.002803
v 0.019778 0.062369 -0.008737
v 0.018081 0.073390 -0.009586
v 0.018081 0.072540 0.009916
v 0.019778 0.058978 -0.004498
f 75 59 93 
f 58 57 56 
f 58 56 60 
f 56 57 67 
f 62 59 69 
f 64 62 70 
f 58 60 71 
f 59 62 72 
f 62 66 72 
f 60 56 73 
f 64 70 73 
f 67 61 74 
f 61 72 74 
f 72 66 74 
f 62 64 76 
f 73 56 76 
f 64 73 76 
f 67 57 78 
f 61 67 78 
f 77 61 78 
f 69 63 79 
f 65 69 79 
f 60 73 80 
f 73 70 80 
f 58 71 81 
f 71 63 81 
f 75 58 81 
f 68 59 82 
f 59 72 82 
f 72 61 82 
f 61 77 82 
f 56 67 83 
f 67 74 83 
f 74 66 83 
f 62 69 84 
f 69 65 84 
f 70 62 84 
f 63 71 85 
f 79 63 85 
f 65 60 86 
f 60 80 86 
f 80 70 86 
f 84 65 86 
f 70 84 86 
f 66 62 87 
f 62 76 87 
f 76 56 87 
f 57 68 88 
f 78 57 88 
f 77 78 88 
f 68 82 88 
f 82 77 88 
f 69 59 89 
f 63 69 89 
f 59 75 90 
f 81 63 90 
f 75 81 90 
f 89 59 90 
f 63 89 90 
f 60 65 91 
f 71 60 91 
f 65 79 91 
f 85 71 91 
f 79 85 91 
f 56 83 92 
f 83 66 92 
f 87 56 92 
f 66 87 92 
f 57 58 93 
f 68 57 93 
f 59 68 93 
f 58 75 93 
o convex_3
v 0.018081 0.028447 -0.014674
v 0.018930 0.039466 0.014156
v 0.018930 0.040321 0.013306
v 0.020625 -0.002073 -0.010432
v 0.018930 -0.002924 0.009914
v 0.020625 0.028447 0.010764
v 0.020625 0.028447 -0.010432
v 0.020625 -0.001227 0.010764
v 0.018081 0.028447 0.014156
v 0.018930 -0.002924 -0.009586
v 0.018081 0.040321 -0.012978
v 0.018930 0.039466 -0.014674
v 0.018081 0.040321 0.013306
v 0.018081 0.025903 -0.010432
v 0.020625 -0.002924 0.009914
v 0.018930 0.040321 -0.012978
v 0.018081 0.025903 0.010764
v 0.018930 0.028447 -0.014674
v 0.018930 -0.002073 -0.010432
v 0.018930 -0.001227 0.010764
v 0.018930 0.028447 0.014156
v 0.020625 -0.002924 -0.009586
v 0.018081 0.039466 -0.014674
f 104 105 116 
f 96 95 99 
f 99 97 100 
f 96 99 100 
f 99 95 101 
f 97 99 101 
f 94 102 104 
f 100 97 105 
f 95 96 106 
f 102 95 106 
f 96 104 106 
f 104 102 106 
f 102 94 107 
f 94 103 107 
f 103 98 107 
f 97 101 108 
f 101 98 108 
f 98 103 108 
f 96 100 109 
f 104 96 109 
f 100 105 109 
f 105 104 109 
f 98 102 110 
f 102 107 110 
f 107 98 110 
f 97 94 111 
f 94 105 111 
f 105 97 111 
f 94 97 112 
f 103 94 112 
f 97 103 112 
f 98 101 113 
f 102 98 113 
f 101 102 113 
f 101 95 114 
f 95 102 114 
f 102 101 114 
f 103 97 115 
f 97 108 115 
f 108 103 115 
f 94 104 116 
f 105 94 116 
