o convex_0
v -0.005758 -0.008310 -0.019369
v 0.001620 0.002760 0.023440
v -0.001331 0.002760 0.023440
v -0.012402 -0.035619 0.017532
v 0.014905 -0.033404 -0.017152
v 0.014905 0.009404 -0.017152
v 0.014905 -0.033404 0.016794
v -0.014619 0.010139 -0.017152
v -0.014619 -0.034139 -0.017152
v -0.014619 0.010139 0.016794
v 0.012688 0.011619 0.017532
v 0.012688 -0.035619 -0.017152
v -0.014619 -0.033404 0.017532
v 0.014905 0.009404 0.016794
v 0.012688 -0.035619 0.017532
v -0.013142 0.011619 -0.017152
v 0.008998 0.005714 -0.019369
v 0.012688 0.011619 -0.017152
v -0.012402 0.011619 0.017532
v -0.013142 -0.035619 -0.017152
v -0.002071 -0.002405 0.023440
v -0.010189 0.002760 -0.019365
v -0.002808 0.010139 -0.019369
v 0.003830 -0.009794 -0.019369
v -0.014619 0.009404 0.017532
v 0.002357 -0.001670 0.023440
v 0.014165 0.010139 0.017532
v 0.014165 -0.034139 0.017532
v -0.002808 0.001285 0.023440
v 0.009738 -0.003890 -0.019369
v -0.002808 0.010139 0.019011
v -0.013142 -0.035619 0.016794
v 0.003094 0.010139 -0.019369
v -0.009452 -0.004620 -0.019365
v -0.007238 0.007925 -0.019365
v -0.013142 0.011619 0.016794
v -0.014619 -0.034139 0.016794
v 0.007521 -0.007575 -0.019369
v 0.003094 0.010139 0.019011
v -0.003545 -0.009794 -0.019369
v 0.002357 0.002020 0.023440
v 0.001620 -0.002405 0.023440
v 0.009738 0.004230 -0.019369
v -0.006498 -0.008310 -0.019365
v -0.002808 -0.000930 0.023440
v 0.006044 0.008664 -0.019369
v -0.010189 -0.002405 -0.019365
f 34 9 47 
f 5 6 7 
f 8 9 10 
f 5 7 12 
f 10 9 13 
f 7 6 14 
f 6 11 14 
f 4 12 15 
f 12 7 15 
f 8 10 16 
f 11 6 18 
f 16 11 18 
f 6 17 18 
f 11 16 19 
f 12 4 20 
f 2 3 21 
f 13 4 21 
f 4 15 21 
f 9 8 22 
f 17 1 23 
f 16 18 23 
f 1 22 23 
f 1 17 24 
f 12 20 24 
f 10 13 25 
f 2 21 26 
f 11 2 27 
f 7 14 27 
f 14 11 27 
f 27 26 28 
f 15 7 28 
f 26 15 28 
f 7 27 28 
f 3 19 29 
f 21 3 29 
f 25 13 29 
f 19 25 29 
f 6 5 30 
f 24 17 30 
f 3 2 31 
f 19 3 31 
f 11 19 31 
f 4 13 32 
f 9 20 32 
f 20 4 32 
f 17 23 33 
f 23 18 33 
f 8 16 35 
f 22 8 35 
f 16 23 35 
f 23 22 35 
f 16 10 36 
f 19 16 36 
f 10 25 36 
f 25 19 36 
f 13 9 37 
f 32 13 37 
f 9 32 37 
f 5 12 38 
f 12 24 38 
f 30 5 38 
f 24 30 38 
f 2 11 39 
f 31 2 39 
f 11 31 39 
f 1 24 40 
f 24 20 40 
f 2 26 41 
f 27 2 41 
f 26 27 41 
f 21 15 42 
f 15 26 42 
f 26 21 42 
f 17 6 43 
f 6 30 43 
f 30 17 43 
f 20 9 44 
f 34 1 44 
f 9 34 44 
f 1 40 44 
f 40 20 44 
f 13 21 45 
f 21 29 45 
f 29 13 45 
f 18 17 46 
f 17 33 46 
f 33 18 46 
f 22 1 47 
f 9 22 47 
f 1 34 47 
