o convex_0
v -0.021153 -0.003153 -0.010513
v -0.014625 0.028181 0.012986
v -0.018541 0.028181 0.012986
v -0.018541 0.028181 -0.013125
v -0.014625 0.022957 -0.013125
v -0.018541 -0.003153 0.010374
v -0.021153 0.028181 0.010374
v -0.021153 -0.003153 0.010374
v -0.021153 0.028181 -0.010513
v -0.018541 -0.003153 -0.010513
v -0.014625 0.022957 0.012986
v -0.014625 0.028181 -0.013125
v -0.018541 0.022957 0.012986
v -0.018541 0.022957 -0.013125
f 4 5 14 
f 3 2 4 
f 3 4 7 
f 7 1 8 
f 1 6 8 
f 3 7 8 
f 4 1 9 
f 7 4 9 
f 1 7 9 
f 1 5 10 
f 5 6 10 
f 6 1 10 
f 2 3 11 
f 5 2 11 
f 6 5 11 
f 8 6 11 
f 4 2 12 
f 5 4 12 
f 2 5 12 
f 3 8 13 
f 11 3 13 
f 8 11 13 
f 1 4 14 
f 5 1 14 
o convex_1
v -0.014625 0.026878 -0.018345
v 0.002344 0.071254 0.023431
v -0.002871 0.071254 0.023431
v 0.003651 0.079093 -0.019653
v 0.015403 0.022958 0.012980
v -0.014625 0.028182 0.019513
v -0.014625 0.079093 -0.017038
v 0.014095 0.028182 -0.019653
v 0.015403 0.079093 0.016898
v -0.014625 0.079093 0.018201
v 0.015403 0.079093 -0.017038
v 0.014095 0.028182 0.019513
v -0.014625 0.022958 -0.013124
v 0.015403 0.022958 -0.013120
v -0.014625 0.022958 0.012984
v 0.012790 0.080403 0.018201
v -0.014625 0.039934 -0.019653
v -0.013317 0.080403 -0.017038
v 0.014095 0.080403 -0.017038
v -0.013317 0.080403 0.018201
v -0.009399 0.075179 -0.019653
v 0.002344 0.066036 0.023431
v 0.010177 0.072564 -0.019653
v -0.014625 0.028182 -0.019653
v 0.014095 0.079093 0.018205
v 0.015403 0.034710 -0.017038
v 0.015403 0.034710 0.016898
v 0.014095 0.039934 0.019513
v -0.014625 0.039934 0.019513
v 0.003651 0.079093 0.019513
v 0.014095 0.039934 -0.019653
v -0.002871 0.066036 0.023431
v 0.014095 0.026878 0.018201
v -0.002871 0.079093 -0.019653
v -0.010704 0.071254 -0.019653
v 0.014095 0.080403 0.016898
v 0.014095 0.026878 -0.018345
v -0.014625 0.026878 0.018201
v -0.002871 0.079093 0.019513
v 0.008872 0.075179 -0.019653
f 25 37 54 
f 15 20 21 
f 21 20 24 
f 23 19 25 
f 20 15 27 
f 25 19 28 
f 19 27 28 
f 27 19 29 
f 20 27 29 
f 15 21 31 
f 18 22 31 
f 21 24 32 
f 32 30 33 
f 23 25 33 
f 18 32 33 
f 24 17 34 
f 32 24 34 
f 30 32 34 
f 18 31 35 
f 21 32 35 
f 16 17 36 
f 26 16 36 
f 20 26 36 
f 22 18 37 
f 22 15 38 
f 15 31 38 
f 31 22 38 
f 30 16 39 
f 22 25 40 
f 28 22 40 
f 25 28 40 
f 19 23 41 
f 26 19 41 
f 23 26 41 
f 16 26 42 
f 26 23 42 
f 39 16 42 
f 23 39 42 
f 20 17 43 
f 17 24 43 
f 24 20 43 
f 17 16 44 
f 16 30 44 
f 30 34 44 
f 25 22 45 
f 22 37 45 
f 37 25 45 
f 17 20 46 
f 36 17 46 
f 20 36 46 
f 26 20 47 
f 19 26 47 
f 29 19 47 
f 32 18 48 
f 18 35 48 
f 35 32 48 
f 31 21 49 
f 35 31 49 
f 21 35 49 
f 33 30 50 
f 23 33 50 
f 39 23 50 
f 30 39 50 
f 15 22 51 
f 27 15 51 
f 22 28 51 
f 28 27 51 
f 20 29 52 
f 47 20 52 
f 29 47 52 
f 34 17 53 
f 17 44 53 
f 44 34 53 
f 18 33 54 
f 33 25 54 
f 37 18 54 
o convex_2
v 0.018014 -0.003153 -0.010513
v 0.018014 0.028181 0.012986
v 0.015403 0.028181 0.012986
v 0.015403 0.028181 -0.013125
v 0.020625 0.028181 -0.010513
v 0.020625 -0.003153 0.010374
v 0.020625 -0.003153 -0.010513
v 0.020625 0.028181 0.010374
v 0.018014 -0.003153 0.010374
v 0.015403 0.022957 0.012986
v 0.015403 0.022957 -0.013125
v 0.018014 0.028181 -0.013125
v 0.018014 0.022957 0.012986
v 0.018014 0.022957 -0.013125
f 66 61 68 
f 57 56 58 
f 58 56 59 
f 59 60 61 
f 60 55 61 
f 59 56 62 
f 56 60 62 
f 60 59 62 
f 55 60 63 
f 63 60 64 
f 56 57 64 
f 57 58 64 
f 55 63 64 
f 55 64 65 
f 61 55 65 
f 64 58 65 
f 65 58 66 
f 58 59 66 
f 59 61 66 
f 60 56 67 
f 64 60 67 
f 56 64 67 
f 61 65 68 
f 65 66 68 
