o convex_0
v -0.020632 -0.002650 -0.008652
v -0.018826 0.022631 0.010006
v -0.018826 0.022631 -0.010156
v -0.020632 0.022631 0.010006
v -0.018826 -0.002349 0.009406
v -0.020632 0.022631 -0.010156
v -0.018826 -0.001143 -0.010156
v -0.020632 -0.001747 0.010006
v -0.020632 -0.001143 -0.010156
v -0.018826 -0.002650 -0.008652
v -0.020632 -0.002650 0.008804
v -0.018826 -0.001747 0.010006
v -0.018826 -0.002650 0.008804
f 11 10 13 
f 2 3 4 
f 3 2 5 
f 4 3 6 
f 1 4 6 
f 3 5 7 
f 6 3 7 
f 2 4 8 
f 4 1 8 
f 1 6 9 
f 7 1 9 
f 6 7 9 
f 1 7 10 
f 7 5 10 
f 8 1 11 
f 5 8 11 
f 1 10 11 
f 5 2 12 
f 2 8 12 
f 8 5 12 
f 10 5 13 
f 5 11 13 
o convex_1
v -0.002271 0.077710 -0.009252
v 0.000735 0.045206 0.010309
v -0.000767 0.045206 0.010309
v -0.002271 0.044005 -0.010158
v 0.010067 0.074999 -0.001728
v -0.008591 0.076803 0.004890
v -0.010097 0.044001 -0.002331
v 0.009163 0.044001 -0.005039
v 0.006455 0.076504 0.007598
v 0.008863 0.044001 0.005491
v -0.008591 0.074995 -0.005640
v 0.004951 0.074999 -0.008952
v 0.001939 0.083729 -0.001125
v -0.001367 0.076803 0.009706
v -0.008291 0.044001 0.006394
v -0.005281 0.082524 0.000977
v 0.002541 0.044005 -0.010158
v -0.010097 0.075298 0.000977
v -0.007087 0.044001 -0.007750
v -0.005281 0.074696 0.008802
v 0.009465 0.076201 0.003385
v 0.002843 0.082224 0.005192
v 0.010067 0.044001 0.002481
v -0.002873 0.074396 -0.009855
v 0.006153 0.081318 -0.003535
v 0.003747 0.044005 0.009706
v 0.003143 0.075298 0.009706
v 0.007959 0.074696 -0.006544
v -0.003175 0.081622 -0.005941
v 0.007057 0.044005 -0.007748
v -0.010097 0.044001 0.002481
v -0.003777 0.044005 0.009706
v -0.003175 0.080716 0.006997
v 0.001339 0.074093 -0.010158
v 0.003445 0.080412 -0.007147
v 0.007659 0.080416 0.002181
v -0.007689 0.080416 -0.002028
v -0.005581 0.074093 -0.008651
v 0.006153 0.044304 0.008502
v -0.008893 0.074696 0.005190
v 0.008561 0.074093 0.005791
v -0.002271 0.074093 0.010006
v 0.010067 0.044001 -0.002631
v -0.010097 0.074696 -0.001728
v -0.001367 0.083426 0.003084
v -0.006183 0.078911 -0.006544
v 0.009465 0.074093 -0.004136
v 0.003143 0.080416 0.007298
v -0.008591 0.044001 -0.005943
v 0.005853 0.074093 0.008502
v -0.007689 0.080113 0.002782
v -0.003175 0.083422 -0.001427
v 0.007659 0.079211 -0.004438
v -0.006485 0.044603 0.008201
v -0.006785 0.075598 0.007598
v 0.010067 0.074696 0.001878
v 0.001339 0.082823 -0.004737
v -0.003475 0.044005 -0.009855
v 0.004649 0.082823 0.001580
v 0.002241 0.073797 0.010006
v 0.001339 0.079214 -0.008649
v -0.009495 0.074995 -0.003835
v 0.006153 0.079813 0.005791
v 0.009465 0.074696 0.003986
f 36 69 77 
f 20 21 23 
f 20 23 28 
f 21 20 32 
f 17 30 32 
f 30 21 32 
f 23 21 36 
f 15 16 39 
f 28 23 39 
f 21 30 43 
f 30 25 43 
f 41 21 43 
f 25 41 43 
f 20 28 44 
f 31 20 44 
f 39 16 45 
f 28 39 45 
f 33 27 46 
f 30 17 47 
f 25 30 47 
f 37 14 47 
f 17 37 47 
f 34 18 49 
f 32 24 51 
f 14 37 51 
f 39 23 52 
f 19 31 53 
f 44 28 53 
f 31 44 53 
f 34 22 54 
f 52 23 54 
f 16 15 55 
f 27 33 55 
f 45 16 55 
f 33 45 55 
f 18 36 56 
f 36 21 56 
f 20 31 57 
f 31 50 57 
f 29 46 58 
f 46 35 58 
f 42 14 59 
f 50 42 59 
f 14 51 59 
f 51 24 59 
f 21 41 60 
f 18 56 60 
f 56 21 60 
f 27 40 61 
f 40 22 61 
f 46 27 61 
f 35 46 61 
f 32 20 62 
f 24 32 62 
f 22 40 63 
f 40 39 63 
f 39 52 63 
f 54 22 63 
f 52 54 63 
f 31 19 64 
f 19 46 64 
f 46 29 64 
f 29 50 64 
f 50 31 64 
f 50 29 65 
f 42 50 65 
f 58 26 65 
f 29 58 65 
f 41 25 66 
f 48 38 66 
f 25 48 66 
f 49 18 66 
f 38 49 66 
f 18 60 66 
f 60 41 66 
f 45 33 67 
f 28 45 67 
f 46 19 68 
f 33 46 68 
f 19 53 68 
f 53 28 68 
f 67 33 68 
f 28 67 68 
f 18 34 69 
f 36 18 69 
f 26 38 70 
f 38 48 70 
f 65 26 70 
f 42 65 70 
f 17 32 71 
f 37 17 71 
f 32 51 71 
f 51 37 71 
f 38 26 72 
f 49 38 72 
f 26 58 72 
f 58 35 72 
f 15 39 73 
f 40 27 73 
f 39 40 73 
f 55 15 73 
f 27 55 73 
f 14 42 74 
f 47 14 74 
f 25 47 74 
f 48 25 74 
f 70 48 74 
f 42 70 74 
f 20 57 75 
f 57 50 75 
f 59 24 75 
f 50 59 75 
f 62 20 75 
f 24 62 75 
f 22 34 76 
f 34 49 76 
f 61 22 76 
f 35 61 76 
f 72 35 76 
f 49 72 76 
f 23 36 77 
f 34 54 77 
f 54 23 77 
f 69 34 77 
o convex_2
v 0.018796 -0.002650 -0.008652
v 0.020602 0.022631 0.010006
v 0.020602 0.022631 -0.010156
v 0.018796 0.022631 0.010006
v 0.020602 -0.002349 0.009406
v 0.018796 0.022631 -0.010156
v 0.020602 -0.001143 -0.010156
v 0.018796 -0.001747 0.010006
v 0.018796 -0.001143 -0.010156
v 0.020602 -0.002650 -0.008652
v 0.018796 -0.002650 0.008804
v 0.020602 -0.001747 0.010006
v 0.020602 -0.002650 0.008804
f 88 87 90 
f 79 80 81 
f 80 79 82 
f 81 80 83 
f 78 81 83 
f 80 82 84 
f 83 80 84 
f 79 81 85 
f 81 78 85 
f 78 83 86 
f 84 78 86 
f 83 84 86 
f 78 84 87 
f 84 82 87 
f 85 78 88 
f 82 85 88 
f 78 87 88 
f 82 79 89 
f 79 85 89 
f 85 82 89 
f 87 82 90 
f 82 88 90 
o convex_3
v -0.017321 0.034670 -0.001729
v -0.010399 0.034670 0.013316
v -0.011303 0.034670 0.013316
v -0.024243 0.027748 -0.008950
v -0.010399 0.027748 -0.013165
v -0.022136 0.027748 0.012411
v -0.010399 0.034670 -0.013165
v -0.010399 0.027748 0.013316
v -0.024243 0.033165 0.009101
v -0.023640 0.033165 -0.010757
v -0.020029 0.027748 -0.013165
v -0.020931 0.033165 0.013012
v -0.024243 0.027748 0.009101
v -0.020029 0.033165 -0.013165
v -0.024243 0.033165 -0.008950
v -0.019126 0.027748 0.013316
v -0.016119 0.034670 0.006696
v -0.021835 0.027748 -0.012561
v -0.023340 0.033165 0.011208
v -0.015516 0.034670 -0.008048
v -0.021835 0.033165 -0.012561
v -0.019126 0.033165 0.013316
v -0.023640 0.027748 -0.010757
v -0.011303 0.034670 -0.013165
v -0.023340 0.027748 0.011208
f 109 103 115 
f 93 92 91 
f 94 95 96 
f 91 92 97 
f 92 95 97 
f 92 93 98 
f 95 92 98 
f 96 95 98 
f 95 94 101 
f 97 95 101 
f 94 96 103 
f 99 94 103 
f 97 101 104 
f 99 91 105 
f 94 99 105 
f 100 94 105 
f 98 93 106 
f 96 98 106 
f 102 96 106 
f 93 91 107 
f 91 99 107 
f 101 94 108 
f 104 101 108 
f 102 93 109 
f 96 102 109 
f 99 103 109 
f 93 107 109 
f 107 99 109 
f 91 97 110 
f 105 91 110 
f 100 105 110 
f 108 100 111 
f 104 108 111 
f 93 102 112 
f 106 93 112 
f 102 106 112 
f 94 100 113 
f 108 94 113 
f 100 108 113 
f 97 104 114 
f 110 97 114 
f 100 110 114 
f 111 100 114 
f 104 111 114 
f 103 96 115 
f 96 109 115 
o convex_4
v -0.016718 0.034671 -0.002030
v -0.010400 0.034972 0.013017
v -0.010700 0.034972 0.013017
v -0.010400 0.037078 -0.008952
v -0.010400 0.034671 -0.012867
v -0.013108 0.037078 0.004889
v -0.010400 0.037078 0.009103
v -0.014612 0.034671 0.008502
v -0.013108 0.037078 -0.005040
v -0.014311 0.034972 -0.008952
v -0.016718 0.034972 0.001879
v -0.010400 0.034671 0.013017
v -0.014311 0.036777 -0.001128
v -0.014612 0.034972 0.008502
v -0.016417 0.034972 -0.003837
v -0.011001 0.034972 -0.012867
f 125 119 131 
f 119 117 120 
f 119 121 122 
f 118 117 122 
f 117 119 122 
f 116 120 123 
f 121 119 124 
f 120 116 125 
f 124 119 125 
f 116 123 126 
f 117 118 127 
f 120 117 127 
f 118 123 127 
f 123 120 127 
f 121 124 128 
f 126 121 128 
f 122 121 129 
f 118 122 129 
f 123 118 129 
f 126 123 129 
f 121 126 129 
f 125 116 130 
f 124 125 130 
f 116 126 130 
f 128 124 130 
f 126 128 130 
f 119 120 131 
f 120 125 131 
o convex_5
v -0.013107 0.037078 0.004288
v -0.010700 0.037078 -0.008653
v -0.010399 0.037078 -0.008653
v -0.010700 0.042496 -0.001429
v -0.010399 0.037078 0.008503
v -0.013408 0.037379 -0.002933
v -0.010399 0.042496 0.001278
v -0.013408 0.037681 0.001278
v -0.010700 0.041593 0.003084
v -0.011603 0.037379 -0.007449
v -0.011302 0.037379 0.007900
v -0.010700 0.042496 0.001278
v -0.012806 0.037078 -0.005041
f 135 141 144 
f 132 133 134 
f 134 133 135 
f 132 134 136 
f 134 135 138 
f 136 134 138 
f 137 132 139 
f 135 137 139 
f 136 138 140 
f 135 133 141 
f 132 136 142 
f 140 132 142 
f 136 140 142 
f 138 135 143 
f 139 132 143 
f 135 139 143 
f 140 138 143 
f 132 140 143 
f 133 132 144 
f 132 137 144 
f 137 135 144 
f 141 133 144 
o convex_6
v -0.000464 0.037981 -0.013167
v 0.007960 0.044001 -0.006546
v 0.011571 0.037678 -0.006546
v -0.010399 0.026244 -0.006546
v 0.011874 0.022934 -0.012263
v -0.010399 0.022932 -0.012263
v -0.007990 0.044001 -0.006546
v 0.011270 0.026244 -0.006546
v 0.011874 0.034368 -0.013167
v -0.010399 0.034968 -0.013167
v 0.000439 0.043700 -0.010458
v 0.011874 0.022934 -0.010458
v -0.010399 0.027750 -0.013167
v -0.010399 0.038880 -0.006546
v -0.010399 0.022932 -0.010458
v 0.011874 0.027750 -0.013167
v -0.002572 0.044001 -0.010157
v 0.004348 0.044001 -0.009556
v 0.011874 0.027750 -0.006848
v -0.004981 0.044001 -0.009256
v 0.011874 0.037076 -0.007450
v 0.002843 0.037678 -0.013167
v 0.002543 0.044001 -0.010157
v 0.006755 0.044001 -0.008052
v -0.002873 0.037678 -0.013167
v -0.007990 0.044001 -0.006848
f 164 154 170 
f 147 146 148 
f 148 146 151 
f 147 148 152 
f 150 148 154 
f 145 153 154 
f 150 149 156 
f 149 153 156 
f 150 154 157 
f 154 153 157 
f 148 151 158 
f 154 148 158 
f 148 150 159 
f 152 148 159 
f 150 156 159 
f 156 152 159 
f 149 150 160 
f 153 149 160 
f 150 157 160 
f 157 153 160 
f 151 146 161 
f 155 145 161 
f 161 146 162 
f 147 152 163 
f 152 156 163 
f 156 153 163 
f 151 161 164 
f 161 154 164 
f 146 147 165 
f 153 146 165 
f 147 163 165 
f 163 153 165 
f 153 145 166 
f 145 155 166 
f 155 161 167 
f 161 162 167 
f 162 153 167 
f 153 166 167 
f 166 155 167 
f 146 153 168 
f 162 146 168 
f 153 162 168 
f 145 154 169 
f 161 145 169 
f 154 161 169 
f 158 151 170 
f 154 158 170 
f 151 164 170 
o convex_7
v 0.023912 0.027748 0.010007
v 0.020602 0.027748 -0.012867
v 0.020602 0.033165 -0.012867
v 0.020602 0.027748 0.013017
v 0.024214 0.033165 -0.009254
v 0.020602 0.033165 0.013017
v 0.024214 0.027748 -0.009254
v 0.024214 0.033165 0.009103
v 0.020903 0.033467 -0.006244
v 0.023009 0.033165 -0.011362
v 0.023311 0.033165 0.011211
v 0.024214 0.027748 0.009103
v 0.021806 0.027748 -0.012565
v 0.022107 0.027748 0.012414
v 0.020602 0.033467 0.006394
v 0.023612 0.027748 -0.010759
v 0.021806 0.033467 0.001578
f 185 178 187 
f 173 172 174 
f 172 171 174 
f 173 174 176 
f 171 172 177 
f 177 175 178 
f 173 179 180 
f 179 175 180 
f 171 178 181 
f 171 177 182 
f 177 178 182 
f 178 171 182 
f 172 173 183 
f 177 172 183 
f 173 180 183 
f 174 171 184 
f 176 174 184 
f 171 181 184 
f 181 176 184 
f 173 176 185 
f 179 173 185 
f 176 181 185 
f 181 178 185 
f 175 177 186 
f 180 175 186 
f 177 183 186 
f 183 180 186 
f 178 175 187 
f 175 179 187 
f 179 185 187 
o convex_8
v -0.010096 0.044001 -0.002631
v 0.010367 0.044001 0.000981
v 0.010367 0.044001 -0.001126
v 0.011874 0.026245 -0.005041
v -0.010399 0.026245 0.010008
v -0.010399 0.026245 -0.006546
v 0.011874 0.026245 0.010008
v -0.002873 0.044001 0.010008
v 0.007960 0.044001 -0.006546
v 0.011874 0.035571 0.010008
v -0.007990 0.044001 -0.006546
v -0.010399 0.036776 0.010008
v 0.011270 0.037978 -0.006546
v 0.006155 0.044001 0.008502
v 0.010969 0.026245 -0.006546
v -0.008892 0.044001 0.005492
v 0.011874 0.039784 -0.001427
v -0.010399 0.039183 -0.006546
v -0.010399 0.044001 0.000981
v 0.002843 0.044001 0.010008
v 0.008562 0.044001 0.006094
v -0.006184 0.044001 0.008502
v 0.011874 0.038281 -0.005041
v 0.009765 0.044001 -0.003835
v 0.011874 0.039183 0.003385
v 0.010066 0.044001 0.002784
v -0.009795 0.044001 0.003687
v -0.009193 0.044001 -0.005041
f 198 205 215 
f 188 189 190 
f 191 192 193 
f 192 191 194 
f 192 194 195 
f 189 188 195 
f 188 190 196 
f 194 191 197 
f 195 194 197 
f 188 196 198 
f 196 193 198 
f 193 192 199 
f 192 195 199 
f 193 196 200 
f 189 195 201 
f 191 193 202 
f 200 191 202 
f 193 200 202 
f 195 188 203 
f 190 189 204 
f 197 191 204 
f 198 193 205 
f 193 199 205 
f 205 199 206 
f 203 188 206 
f 188 205 206 
f 195 197 207 
f 201 195 207 
f 197 201 207 
f 189 201 208 
f 201 197 208 
f 199 195 209 
f 195 203 209 
f 203 199 209 
f 191 200 210 
f 190 204 210 
f 204 191 210 
f 196 190 211 
f 200 196 211 
f 190 210 211 
f 210 200 211 
f 204 189 212 
f 197 204 212 
f 189 208 213 
f 208 197 213 
f 212 189 213 
f 197 212 213 
f 199 203 214 
f 206 199 214 
f 203 206 214 
f 188 198 215 
f 205 188 215 
o convex_9
v -0.010399 0.022932 0.010309
v 0.001640 0.044001 0.010309
v 0.002843 0.043097 0.010309
v 0.011271 0.034669 0.013318
v -0.010399 0.034968 0.013318
v 0.011873 0.022934 0.010309
v -0.010399 0.022932 0.012114
v -0.010399 0.036475 0.010008
v 0.011873 0.027750 0.013318
v 0.011873 0.035572 0.010008
v 0.011873 0.022934 0.012114
v -0.010399 0.027750 0.013318
v 0.001640 0.037678 0.013318
v -0.001670 0.044001 0.010008
v -0.010399 0.026244 0.010008
v 0.011873 0.026244 0.010008
v -0.003174 0.037379 0.013318
v -0.001670 0.044001 0.010309
v 0.011873 0.034368 0.013318
v 0.001640 0.044001 0.010008
f 225 229 235 
f 220 216 222 
f 216 221 222 
f 216 220 223 
f 219 220 224 
f 224 221 225 
f 222 221 226 
f 221 224 226 
f 224 222 226 
f 220 222 227 
f 224 220 227 
f 222 224 227 
f 219 217 228 
f 220 219 228 
f 225 223 229 
f 216 223 230 
f 223 225 230 
f 230 225 231 
f 221 216 231 
f 225 221 231 
f 216 230 231 
f 220 228 232 
f 223 220 233 
f 228 217 233 
f 229 223 233 
f 217 229 233 
f 232 228 233 
f 220 232 233 
f 218 217 234 
f 217 219 234 
f 219 224 234 
f 225 218 234 
f 224 225 234 
f 217 218 235 
f 218 225 235 
f 229 217 235 
o convex_10
v 0.018796 0.034067 0.001579
v 0.018796 0.022631 -0.010155
v 0.018194 0.026245 -0.010155
v 0.020602 0.033164 -0.012862
v 0.020602 0.022631 0.010006
v 0.018194 0.027749 0.013316
v 0.020602 0.033164 0.013012
v 0.020602 0.022631 -0.010155
v 0.018194 0.033164 -0.013165
v 0.018194 0.033164 0.013316
v 0.018796 0.022631 0.010006
v 0.018194 0.027749 -0.013165
v 0.020602 0.027749 0.013012
v 0.020602 0.027749 -0.012862
v 0.018194 0.034067 -0.003836
v 0.018194 0.026245 0.010306
v 0.020602 0.033465 -0.007447
v 0.020000 0.027749 -0.013165
v 0.018194 0.034067 0.003686
v 0.020602 0.033465 0.007297
f 254 242 255 
f 240 239 242 
f 239 240 243 
f 240 237 243 
f 238 241 244 
f 241 242 245 
f 244 241 245 
f 238 237 246 
f 237 240 246 
f 240 241 246 
f 237 238 247 
f 243 237 247 
f 238 244 247 
f 241 240 248 
f 240 242 248 
f 242 241 248 
f 239 243 249 
f 239 244 250 
f 244 245 250 
f 241 238 251 
f 238 246 251 
f 246 241 251 
f 242 239 252 
f 250 236 252 
f 239 250 252 
f 244 239 253 
f 243 247 253 
f 247 244 253 
f 239 249 253 
f 249 243 253 
f 245 242 254 
f 236 250 254 
f 250 245 254 
f 252 236 255 
f 242 252 255 
f 236 254 255 
o convex_11
v -0.018525 0.027747 0.010008
v -0.020632 0.022631 -0.010158
v -0.020632 0.027145 -0.010158
v -0.020632 0.022631 0.010008
v -0.018826 0.022631 -0.010158
v -0.018525 0.027747 -0.010158
v -0.020330 0.027747 0.010008
v -0.018826 0.022631 0.010008
v -0.020632 0.027145 0.010008
v -0.020330 0.027747 -0.010158
v -0.018525 0.026242 -0.010158
v -0.018525 0.026242 0.010008
f 266 256 267 
f 258 257 259 
f 257 258 260 
f 259 257 260 
f 260 258 261 
f 259 256 262 
f 256 261 262 
f 256 259 263 
f 259 260 263 
f 258 259 264 
f 262 258 264 
f 259 262 264 
f 261 258 265 
f 258 262 265 
f 262 261 265 
f 261 256 266 
f 260 261 266 
f 263 260 266 
f 263 266 267 
f 256 263 267 
o convex_12
v 0.012476 0.035272 -0.010459
v 0.011874 0.022935 -0.012264
v 0.016990 0.022935 -0.012264
v 0.011874 0.034368 -0.013167
v 0.018194 0.033164 -0.013167
v 0.018194 0.026244 -0.010158
v 0.011874 0.022935 -0.010459
v 0.018194 0.033464 -0.010158
v 0.018194 0.027749 -0.013167
v 0.011874 0.035272 -0.010158
v 0.011874 0.027749 -0.013167
v 0.017592 0.023236 -0.010459
v 0.011874 0.026244 -0.010158
v 0.018194 0.024439 -0.012264
f 273 279 281 
f 271 268 272 
f 269 270 274 
f 271 269 274 
f 272 268 275 
f 273 272 275 
f 270 269 276 
f 271 272 276 
f 272 273 276 
f 268 271 277 
f 271 274 277 
f 273 275 277 
f 275 268 277 
f 269 271 278 
f 276 269 278 
f 271 276 278 
f 274 270 279 
f 273 274 279 
f 274 273 280 
f 277 274 280 
f 273 277 280 
f 270 276 281 
f 276 273 281 
f 279 270 281 
o convex_13
v 0.018194 0.026244 0.005493
v 0.012175 0.034368 0.013318
v 0.011874 0.034368 0.013318
v 0.012777 0.036474 0.005493
v 0.011874 0.022935 0.010308
v 0.018194 0.033163 0.013318
v 0.017592 0.023236 0.012113
v 0.018194 0.033766 0.005493
v 0.013078 0.026244 0.005493
v 0.011874 0.027750 0.013318
v 0.011874 0.036777 0.006698
v 0.018194 0.027750 0.013318
v 0.011874 0.022935 0.012113
v 0.011874 0.027750 0.006698
v 0.016990 0.022935 0.010308
v 0.012175 0.036777 0.007600
v 0.018194 0.024439 0.012113
v 0.013379 0.036474 0.006095
v 0.018194 0.033465 0.012113
f 289 299 300 
f 283 284 287 
f 282 285 289 
f 287 282 289 
f 285 282 290 
f 282 286 290 
f 284 286 291 
f 287 284 291 
f 286 284 292 
f 282 287 293 
f 287 291 293 
f 293 291 294 
f 291 286 294 
f 288 293 294 
f 285 290 295 
f 290 286 295 
f 286 292 295 
f 292 285 295 
f 286 282 296 
f 282 288 296 
f 294 286 296 
f 288 294 296 
f 284 283 297 
f 283 287 297 
f 292 284 297 
f 288 282 298 
f 282 293 298 
f 293 288 298 
f 289 285 299 
f 285 292 299 
f 292 297 299 
f 299 297 300 
f 287 289 300 
f 297 287 300 
o convex_14
v -0.018224 0.026844 -0.012265
v -0.010399 0.027748 -0.010158
v -0.010399 0.026243 -0.010158
v -0.018224 0.027748 -0.010158
v -0.017020 0.022933 -0.010459
v -0.010399 0.022933 -0.012265
v -0.010399 0.027446 -0.011963
v -0.017621 0.023234 -0.012265
v -0.010399 0.022933 -0.010459
v -0.018224 0.027748 -0.011663
v -0.018224 0.024438 -0.010459
v -0.010399 0.026844 -0.012265
f 307 306 312 
f 303 302 304 
f 303 304 305 
f 302 303 306 
f 302 306 307 
f 306 305 308 
f 301 306 308 
f 303 305 309 
f 306 303 309 
f 305 306 309 
f 304 302 310 
f 301 304 310 
f 307 301 310 
f 302 307 310 
f 304 301 311 
f 305 304 311 
f 301 308 311 
f 308 305 311 
f 306 301 312 
f 301 307 312 
o convex_15
v -0.018525 0.026243 -0.010158
v -0.010399 0.027748 0.010008
v -0.018525 0.027748 0.010008
v -0.010399 0.026243 0.010008
v -0.010399 0.027748 -0.010158
v -0.018525 0.026243 0.010008
v -0.018525 0.027748 -0.010158
v -0.010399 0.026243 -0.010158
f 317 316 320 
f 314 315 316 
f 315 314 317 
f 314 316 317 
f 315 313 318 
f 316 315 318 
f 313 316 318 
f 313 315 319 
f 317 313 319 
f 315 317 319 
f 316 313 320 
f 313 317 320 
o convex_16
v 0.012777 0.037076 0.005493
v 0.011874 0.026244 -0.010158
v 0.011874 0.035572 -0.010158
v 0.018194 0.026244 -0.010158
v 0.011874 0.026244 0.004891
v 0.018194 0.033766 0.005493
v 0.018194 0.033465 -0.010158
v 0.018194 0.026244 0.005493
v 0.011874 0.039184 -0.001733
v 0.011874 0.038281 0.004589
v 0.018194 0.034068 -0.005041
v 0.012175 0.039184 0.001881
v 0.012777 0.026244 0.005493
v 0.012175 0.038882 -0.002933
v 0.018194 0.034068 0.004891
v 0.012175 0.039184 -0.001733
v 0.011874 0.037979 0.005190
v 0.012175 0.036776 -0.007749
f 334 327 338 
f 322 323 324 
f 323 322 325 
f 322 324 325 
f 324 323 327 
f 326 324 327 
f 325 324 328 
f 326 321 328 
f 324 326 328 
f 323 325 329 
f 329 325 330 
f 326 327 331 
f 329 330 332 
f 328 321 333 
f 325 328 333 
f 323 329 334 
f 330 326 335 
f 326 331 335 
f 331 332 335 
f 332 330 335 
f 331 327 336 
f 329 332 336 
f 332 331 336 
f 327 334 336 
f 334 329 336 
f 321 326 337 
f 330 325 337 
f 326 330 337 
f 333 321 337 
f 325 333 337 
f 327 323 338 
f 323 334 338 
o convex_17
v -0.017923 0.023836 0.010309
v -0.010399 0.027748 0.011813
v -0.010399 0.027446 0.012114
v -0.010399 0.022933 0.010309
v -0.017019 0.022933 0.012114
v -0.018525 0.027748 0.010008
v -0.018223 0.027446 0.012114
v -0.010399 0.027748 0.010008
v -0.010399 0.022933 0.012114
v -0.017019 0.022933 0.010309
v -0.018223 0.024438 0.012114
v -0.018525 0.026243 0.010008
f 349 344 350 
f 340 341 342 
f 341 340 345 
f 343 341 345 
f 340 344 345 
f 340 342 346 
f 344 340 346 
f 342 341 347 
f 343 342 347 
f 341 343 347 
f 343 339 348 
f 342 343 348 
f 339 343 349 
f 345 344 349 
f 343 345 349 
f 346 342 350 
f 344 346 350 
f 348 339 350 
f 342 348 350 
f 339 349 350 
