o convex_0
v 0.011844 -0.017730 -0.025374
v 0.005044 0.022518 -0.000995
v 0.006172 0.023082 -0.004399
v -0.013668 0.016851 -0.040684
v -0.013668 -0.009790 -0.000995
v 0.024887 0.008347 -0.040684
v -0.010830 -0.013760 -0.040684
v 0.019215 0.002112 -0.000995
v -0.013668 0.015714 -0.000995
v 0.010146 0.024791 -0.040684
v 0.005610 -0.016593 -0.000995
v 0.019781 -0.010358 -0.040684
v -0.013668 -0.016025 -0.035012
v -0.011966 0.021385 -0.023672
v 0.011278 -0.018867 -0.040684
v 0.010712 0.020253 -0.001563
v -0.006293 -0.016597 -0.000995
v 0.024317 -0.001854 -0.032176
v 0.010712 -0.014328 -0.000995
v -0.005727 0.022518 -0.000995
v 0.014679 0.021954 -0.035012
v 0.023751 0.007778 -0.028777
v -0.005161 0.021954 -0.040117
v 0.018079 0.006646 -0.000995
v 0.009010 -0.018867 -0.032743
v 0.024887 -0.002418 -0.040684
v -0.013668 -0.010927 -0.040684
v 0.011844 0.023082 -0.021403
v 0.019781 0.016283 -0.039546
v -0.013668 -0.013192 -0.010638
v 0.007874 0.024791 -0.040684
v -0.013668 0.020249 -0.023101
v 0.019215 -0.009794 -0.031038
v 0.007308 -0.018867 -0.040684
v -0.008562 0.021385 -0.000995
v -0.011400 0.020817 -0.035012
v 0.024317 0.003244 -0.028777
v 0.006172 -0.017157 -0.003831
v -0.006863 0.022522 -0.028773
v -0.009132 -0.015461 -0.000995
v 0.023185 -0.002418 -0.027071
v 0.018649 0.015719 -0.028206
v 0.015245 -0.016029 -0.040117
v -0.013668 -0.016025 -0.029344
v 0.017513 -0.001854 -0.000995
v 0.014112 -0.015461 -0.025374
v 0.013546 0.023082 -0.040684
v 0.009576 0.024791 -0.036143
v 0.009576 0.021385 -0.000995
v 0.022615 -0.004687 -0.030475
v 0.011844 0.024223 -0.033311
v 0.023185 0.010043 -0.032743
v 0.019215 0.003813 -0.000995
v -0.010830 0.019684 -0.040684
v 0.014112 0.021385 -0.025937
v 0.009576 -0.015461 -0.000995
v -0.005161 -0.016029 -0.040684
v 0.024887 0.004377 -0.033874
v 0.023751 -0.004687 -0.038979
v 0.002775 -0.017157 -0.003264
v 0.012414 0.017415 -0.001563
v 0.023751 0.002116 -0.024806
v -0.012532 0.017415 -0.000995
v 0.012414 -0.017730 -0.027642
f 19 56 64 
f 4 6 7 
f 2 5 8 
f 4 5 9 
f 5 2 9 
f 6 4 10 
f 8 5 11 
f 7 6 12 
f 5 4 13 
f 7 12 15 
f 11 5 17 
f 8 11 19 
f 2 3 20 
f 9 2 20 
f 2 8 24 
f 15 1 25 
f 12 6 26 
f 4 7 27 
f 13 4 27 
f 7 13 27 
f 5 13 30 
f 10 4 31 
f 4 9 32 
f 7 15 34 
f 15 25 34 
f 25 17 34 
f 9 20 35 
f 20 14 35 
f 14 32 35 
f 4 32 36 
f 32 14 36 
f 25 1 38 
f 14 20 39 
f 20 31 39 
f 31 23 39 
f 23 36 39 
f 36 14 39 
f 17 5 40 
f 5 30 40 
f 18 8 41 
f 15 12 43 
f 12 33 43 
f 30 13 44 
f 13 34 44 
f 34 17 44 
f 17 40 44 
f 40 30 44 
f 8 19 45 
f 41 8 45 
f 19 41 45 
f 33 19 46 
f 43 33 46 
f 6 10 47 
f 29 6 47 
f 21 29 47 
f 20 3 48 
f 10 31 48 
f 31 20 48 
f 3 2 49 
f 2 24 49 
f 28 3 49 
f 16 28 49 
f 19 33 50 
f 18 41 50 
f 41 19 50 
f 3 28 51 
f 28 21 51 
f 47 10 51 
f 21 47 51 
f 48 3 51 
f 10 48 51 
f 16 22 52 
f 22 6 52 
f 6 29 52 
f 42 16 52 
f 29 42 52 
f 24 8 53 
f 22 24 53 
f 31 4 54 
f 23 31 54 
f 4 36 54 
f 36 23 54 
f 28 16 55 
f 21 28 55 
f 29 21 55 
f 16 42 55 
f 42 29 55 
f 19 11 56 
f 11 38 56 
f 38 1 56 
f 13 7 57 
f 7 34 57 
f 34 13 57 
f 6 22 58 
f 26 6 58 
f 18 26 58 
f 37 18 58 
f 22 37 58 
f 12 26 59 
f 26 18 59 
f 33 12 59 
f 18 50 59 
f 50 33 59 
f 11 17 60 
f 17 25 60 
f 38 11 60 
f 25 38 60 
f 22 16 61 
f 24 22 61 
f 49 24 61 
f 16 49 61 
f 8 18 62 
f 18 37 62 
f 37 22 62 
f 53 8 62 
f 22 53 62 
f 32 9 63 
f 9 35 63 
f 35 32 63 
f 1 15 64 
f 15 43 64 
f 46 19 64 
f 43 46 64 
f 56 1 64 
o convex_1
v -0.040884 0.002676 -0.000995
v -0.034080 -0.032474 -0.030478
v -0.035782 -0.031340 -0.032743
v -0.032947 -0.001291 -0.040117
v -0.051087 -0.018296 -0.018579
v -0.032947 -0.012633 -0.000995
v -0.045418 -0.014897 -0.039550
v -0.045985 -0.000161 -0.020277
v -0.033514 0.004945 -0.000995
v -0.032947 -0.027938 -0.040117
v -0.045418 -0.009799 -0.000995
v -0.044283 -0.023966 -0.040684
v -0.032947 -0.030206 -0.021966
v -0.049386 -0.006962 -0.016306
v -0.035782 0.005514 -0.003264
v -0.046551 -0.005831 -0.000995
v -0.047684 -0.021129 -0.017440
v -0.040884 -0.014897 -0.003831
v -0.045985 -0.008665 -0.033311
v -0.045418 -0.024532 -0.029344
v -0.032947 0.004380 -0.006100
v -0.049386 -0.012633 -0.025937
v -0.048819 -0.019995 -0.030478
v -0.044283 0.001539 -0.011201
v -0.051087 -0.017727 -0.015743
v -0.033514 -0.001291 -0.040117
v -0.045418 -0.017162 -0.040684
v -0.032947 -0.006962 -0.040684
v -0.047684 -0.018296 -0.012903
v -0.045985 -0.023966 -0.034445
v -0.032947 -0.026235 -0.040684
v -0.043717 -0.003559 -0.029911
v -0.033514 -0.032474 -0.027642
v -0.040884 -0.026800 -0.039550
v -0.047120 -0.002994 -0.010638
v -0.043717 -0.009230 -0.037277
v -0.032947 -0.030771 -0.036143
v -0.033514 -0.030206 -0.021966
v -0.039183 -0.013759 -0.002130
v -0.049386 -0.006962 -0.018008
v -0.045985 -0.021698 -0.039550
v -0.051087 -0.015462 -0.016873
v -0.038050 0.004941 -0.000995
v -0.032947 0.004380 -0.000995
v -0.047120 -0.022832 -0.024806
v -0.032947 -0.014328 -0.002697
v -0.049386 -0.013759 -0.009503
v -0.047684 -0.008665 -0.027642
f 86 104 112 
f 65 70 73 
f 68 70 74 
f 70 65 75 
f 74 70 77 
f 75 65 80 
f 67 66 84 
f 70 68 85 
f 68 79 85 
f 79 73 85 
f 83 71 86 
f 69 86 87 
f 79 72 88 
f 80 65 88 
f 69 81 89 
f 72 79 90 
f 79 68 90 
f 86 71 91 
f 87 86 91 
f 71 90 91 
f 91 90 92 
f 68 74 92 
f 90 68 92 
f 76 91 92 
f 82 75 93 
f 89 81 93 
f 67 84 94 
f 69 87 94 
f 74 76 95 
f 92 74 95 
f 76 92 95 
f 83 72 96 
f 72 90 96 
f 76 74 98 
f 67 94 98 
f 94 76 98 
f 72 78 99 
f 78 80 99 
f 88 72 99 
f 80 88 99 
f 71 83 100 
f 90 71 100 
f 83 96 100 
f 96 90 100 
f 66 67 101 
f 74 77 101 
f 97 66 101 
f 77 97 101 
f 67 98 101 
f 98 74 101 
f 93 81 102 
f 82 93 102 
f 97 77 102 
f 81 97 102 
f 70 75 103 
f 75 82 103 
f 82 102 103 
f 78 72 104 
f 91 76 105 
f 87 91 105 
f 76 94 105 
f 94 87 105 
f 80 78 106 
f 86 69 106 
f 69 89 106 
f 78 104 106 
f 104 86 106 
f 65 73 107 
f 73 79 107 
f 88 65 107 
f 79 88 107 
f 73 70 108 
f 70 85 108 
f 85 73 108 
f 81 69 109 
f 84 66 109 
f 94 84 109 
f 69 94 109 
f 66 97 109 
f 97 81 109 
f 77 70 110 
f 102 77 110 
f 70 103 110 
f 103 102 110 
f 75 80 111 
f 93 75 111 
f 89 93 111 
f 80 106 111 
f 106 89 111 
f 72 83 112 
f 83 86 112 
f 104 72 112 
o convex_2
v 0.032826 0.016286 0.024517
v 0.032258 -0.011494 0.009781
v 0.039065 -0.011494 0.009214
v 0.052102 0.009479 0.001275
v 0.058903 -0.002987 0.018280
v 0.032258 -0.004123 0.030753
v 0.032258 0.013451 0.006376
v 0.056070 0.016283 0.014312
v 0.060606 -0.008091 0.008648
v 0.033397 0.008915 0.030753
v 0.052670 -0.001855 0.000706
v 0.063442 0.008347 0.008648
v 0.054370 -0.010359 0.016578
v 0.032258 -0.000722 0.004110
v 0.043598 0.018554 0.011480
v 0.058335 0.010047 0.018280
v 0.032258 -0.011494 0.021682
v 0.046998 -0.012630 0.010913
v 0.061171 0.013448 0.008648
v 0.032258 0.017419 0.010347
v 0.063442 -0.002987 0.008648
v 0.055503 0.007211 0.001275
v 0.054370 -0.005823 0.002974
v 0.053802 0.016283 0.016578
v 0.033397 0.002114 0.031323
v 0.053802 0.013448 0.004677
v 0.032258 -0.008659 0.006945
v 0.032258 0.006647 0.004110
v 0.061739 0.008347 0.014881
v 0.032258 0.010615 0.030187
v 0.032826 -0.009226 0.026219
v 0.062874 -0.004690 0.011483
v 0.048131 0.018554 0.012049
v 0.057203 0.007779 0.019413
v 0.032258 0.017419 0.021115
v 0.055503 -0.001287 0.001275
v 0.056635 -0.010359 0.009214
v 0.056635 -0.004123 0.019413
v 0.048131 -0.012630 0.013182
v 0.056635 0.016283 0.009781
v 0.056070 0.012883 0.018280
v 0.052102 0.007211 0.000706
v 0.062307 0.011747 0.011483
v 0.040198 -0.012630 0.012616
v 0.040765 0.017419 0.009214
v 0.032826 -0.004123 0.030753
v 0.046998 0.018554 0.013752
v 0.054938 -0.008091 0.018280
v 0.063442 0.003811 0.008078
v 0.056635 0.012883 0.004677
v 0.061171 -0.006391 0.013179
v 0.048131 0.017419 0.009214
v 0.032258 -0.005258 0.005246
v 0.063442 0.007779 0.010913
v 0.061739 -0.002422 0.014881
v 0.032826 0.014583 0.026785
v 0.052102 -0.003555 0.001275
v 0.057203 -0.010359 0.012043
v 0.057203 -0.001855 0.019413
v 0.062307 -0.005823 0.008078
v 0.052670 0.011180 0.002408
v 0.053802 -0.008091 0.005243
v 0.032258 0.009482 0.004677
v 0.062874 0.010047 0.008078
f 162 131 176 
f 114 118 119 
f 114 119 126 
f 118 114 129 
f 114 115 130 
f 119 118 132 
f 115 114 139 
f 114 126 139 
f 135 115 139 
f 126 119 140 
f 128 117 141 
f 132 118 142 
f 118 137 142 
f 137 122 142 
f 118 129 143 
f 129 125 143 
f 117 128 146 
f 128 122 146 
f 122 137 146 
f 127 132 147 
f 142 113 147 
f 132 142 147 
f 123 134 148 
f 125 129 151 
f 130 149 151 
f 120 131 152 
f 145 120 152 
f 122 128 153 
f 120 136 153 
f 136 142 153 
f 142 122 153 
f 123 126 154 
f 116 134 154 
f 134 123 154 
f 126 140 154 
f 131 120 155 
f 128 141 155 
f 153 128 155 
f 120 153 155 
f 129 114 156 
f 114 130 156 
f 151 129 156 
f 130 151 156 
f 119 132 157 
f 132 127 157 
f 137 118 158 
f 118 143 158 
f 143 125 158 
f 150 137 158 
f 113 136 159 
f 136 120 159 
f 145 127 159 
f 120 145 159 
f 127 147 159 
f 147 113 159 
f 117 150 160 
f 158 125 160 
f 150 158 160 
f 124 133 161 
f 133 148 161 
f 148 134 161 
f 134 116 162 
f 152 131 162 
f 138 152 162 
f 121 144 163 
f 117 160 163 
f 160 125 163 
f 127 145 164 
f 152 138 164 
f 145 152 164 
f 157 127 164 
f 138 157 164 
f 126 123 165 
f 139 126 165 
f 133 124 166 
f 144 133 166 
f 124 155 166 
f 155 141 166 
f 141 117 167 
f 117 163 167 
f 163 144 167 
f 144 166 167 
f 166 141 167 
f 136 113 168 
f 113 142 168 
f 142 136 168 
f 135 139 169 
f 123 148 169 
f 148 135 169 
f 165 123 169 
f 139 165 169 
f 149 121 170 
f 125 151 170 
f 151 149 170 
f 121 163 170 
f 163 125 170 
f 117 146 171 
f 146 137 171 
f 150 117 171 
f 137 150 171 
f 121 135 172 
f 144 121 172 
f 133 144 172 
f 148 133 172 
f 135 148 172 
f 116 119 173 
f 119 157 173 
f 157 138 173 
f 162 116 173 
f 138 162 173 
f 130 115 174 
f 115 135 174 
f 135 121 174 
f 121 149 174 
f 149 130 174 
f 119 116 175 
f 140 119 175 
f 116 154 175 
f 154 140 175 
f 155 124 176 
f 131 155 176 
f 124 161 176 
f 161 134 176 
f 134 162 176 
o convex_3
v 0.029428 0.002679 0.040964
v 0.047000 0.004379 0.081785
v 0.047000 0.001546 0.081785
v 0.019784 0.003810 0.048336
v 0.019784 -0.004692 0.038695
v 0.019784 0.010050 0.038127
v 0.026588 -0.002424 0.038127
v 0.026588 0.008347 0.038695
v 0.042463 0.001546 0.078943
v 0.045297 0.000412 0.075545
v 0.045297 0.005513 0.075545
v 0.043598 0.004944 0.079511
v 0.020354 -0.000722 0.047199
v 0.019784 0.008347 0.043798
v 0.027723 0.006078 0.038127
v 0.044730 0.000979 0.081216
v 0.019784 -0.002989 0.043234
v 0.043028 0.003810 0.080075
v 0.020354 -0.004692 0.038127
v 0.027723 -0.000155 0.038127
v 0.023754 0.009482 0.038695
v 0.045865 0.000412 0.079511
v 0.019784 0.002113 0.048336
v 0.045865 0.003810 0.076114
v 0.044160 0.005513 0.078379
v 0.019784 0.006646 0.046071
v 0.041893 0.000979 0.067609
v 0.024321 -0.003558 0.039263
v 0.019784 0.008914 0.042669
v 0.020919 0.010050 0.038695
v 0.042463 -0.000155 0.069870
f 195 204 207 
f 181 180 182 
f 182 180 190 
f 183 182 191 
f 182 184 191 
f 184 187 191 
f 179 178 192 
f 185 189 192 
f 192 189 193 
f 180 181 193 
f 181 192 193 
f 178 188 194 
f 192 178 194 
f 185 192 194 
f 181 182 195 
f 182 183 195 
f 183 191 196 
f 191 177 196 
f 184 182 197 
f 187 184 197 
f 186 179 198 
f 179 192 198 
f 192 181 198 
f 181 195 198 
f 189 185 199 
f 193 189 199 
f 180 193 199 
f 194 180 199 
f 185 194 199 
f 178 179 200 
f 179 186 200 
f 187 178 200 
f 177 191 200 
f 191 187 200 
f 178 187 201 
f 188 178 201 
f 190 180 202 
f 188 190 202 
f 180 194 202 
f 194 188 202 
f 196 177 203 
f 177 200 203 
f 200 186 203 
f 195 183 204 
f 182 190 205 
f 190 188 205 
f 201 182 205 
f 188 201 205 
f 197 182 206 
f 187 197 206 
f 201 187 206 
f 182 201 206 
f 183 196 207 
f 186 198 207 
f 198 195 207 
f 196 203 207 
f 203 186 207 
f 204 183 207 
o convex_4
v -0.030676 -0.031905 -0.036148
v -0.013668 0.017986 -0.014603
v -0.013668 0.018551 -0.017439
v -0.032944 -0.000161 -0.014603
v -0.030676 0.004374 -0.040684
v -0.014804 -0.023966 -0.024810
v -0.013668 0.016282 -0.040684
v -0.029542 -0.025666 -0.014603
v -0.017638 -0.023966 -0.040684
v -0.013668 -0.013193 -0.014603
v -0.032944 -0.028500 -0.040112
v -0.022174 -0.033604 -0.021409
v -0.032944 -0.030770 -0.021976
v -0.013668 -0.017727 -0.037845
v -0.022174 0.013447 -0.038412
v -0.020472 -0.030770 -0.038412
v -0.032944 -0.000161 -0.040112
v -0.028974 -0.035309 -0.022545
v -0.032944 -0.023396 -0.014603
v -0.014236 0.019121 -0.020840
v -0.025574 -0.034739 -0.031042
v -0.018204 -0.030200 -0.023676
v -0.031810 -0.027930 -0.040684
v -0.032944 -0.033034 -0.028777
v -0.013668 -0.010358 -0.040684
v -0.017638 -0.027365 -0.037281
v -0.014236 0.019121 -0.029911
v -0.023306 -0.028500 -0.017439
v -0.021608 -0.033604 -0.031042
v -0.023874 -0.031335 -0.038982
v -0.021040 -0.029070 -0.040684
v -0.013668 -0.019432 -0.028208
v -0.022174 0.013447 -0.039548
v -0.018772 -0.030770 -0.030477
v -0.026708 -0.025096 -0.014603
v -0.015370 -0.021696 -0.039548
v -0.014236 0.017986 -0.014603
v -0.014804 -0.023966 -0.027079
v -0.032944 -0.006400 -0.040684
v -0.029542 -0.029635 -0.017439
v -0.025574 -0.031905 -0.038412
v -0.023874 0.011177 -0.040684
v -0.027274 -0.035309 -0.022545
v -0.032944 -0.032469 -0.032178
v -0.017638 -0.028500 -0.022545
v -0.028974 -0.035309 -0.024810
f 231 251 253 
f 210 209 214 
f 209 211 215 
f 212 214 216 
f 214 209 217 
f 209 215 217 
f 211 218 220 
f 214 217 221 
f 212 211 222 
f 211 212 224 
f 218 211 224 
f 215 211 226 
f 211 220 226 
f 222 211 227 
f 212 216 230 
f 220 218 231 
f 225 220 231 
f 216 214 232 
f 214 221 232 
f 210 214 234 
f 227 210 234 
f 222 227 234 
f 219 217 235 
f 228 223 236 
f 229 219 236 
f 223 228 237 
f 237 230 238 
f 216 223 238 
f 230 216 238 
f 223 237 238 
f 217 213 239 
f 221 217 239 
f 212 222 240 
f 234 214 240 
f 222 234 240 
f 223 233 241 
f 236 223 241 
f 229 236 241 
f 217 215 242 
f 215 235 242 
f 235 217 242 
f 223 216 243 
f 216 232 243 
f 232 221 243 
f 233 223 243 
f 209 210 244 
f 211 209 244 
f 210 227 244 
f 227 211 244 
f 213 229 245 
f 239 213 245 
f 221 239 245 
f 229 241 245 
f 241 233 245 
f 243 221 245 
f 233 243 245 
f 224 212 246 
f 218 224 246 
f 212 230 246 
f 230 218 246 
f 220 225 247 
f 215 226 247 
f 226 220 247 
f 235 215 247 
f 219 235 247 
f 208 218 248 
f 228 208 248 
f 218 230 248 
f 237 228 248 
f 230 237 248 
f 214 212 249 
f 212 240 249 
f 240 214 249 
f 228 236 250 
f 236 219 250 
f 219 247 250 
f 247 225 250 
f 218 208 251 
f 208 228 251 
f 231 218 251 
f 213 217 252 
f 217 219 252 
f 229 213 252 
f 219 229 252 
f 225 231 253 
f 250 225 253 
f 228 250 253 
f 251 228 253 
o convex_5
v 0.032258 0.013447 0.006380
v -0.014802 -0.010356 0.005243
v -0.014802 -0.010356 0.025083
v -0.008565 0.022523 0.006376
v 0.001077 0.020816 0.038127
v 0.019217 -0.017164 0.031322
v 0.015813 -0.020563 0.002976
v 0.032258 0.001548 0.031885
v -0.009698 -0.015462 0.038127
v 0.008447 0.021952 -0.000995
v 0.015813 0.027624 0.017719
v -0.009698 0.021386 0.038127
v -0.014802 0.014013 -0.000995
v 0.032258 -0.011492 0.010348
v 0.026583 0.007775 0.038127
v -0.005160 -0.017159 -0.000995
v 0.019784 0.002114 -0.000995
v 0.032258 0.016851 0.023946
v 0.013546 -0.022836 0.014886
v -0.014802 0.003240 0.038127
v 0.010142 0.028189 0.004676
v 0.019217 0.023083 0.031322
v 0.026016 -0.002422 0.038127
v 0.032258 -0.011492 0.022816
v 0.023183 0.023083 0.004109
v 0.032258 -0.004119 0.004680
v 0.009576 -0.022836 0.006376
v -0.006294 0.022518 -0.000995
v -0.014802 0.013447 0.027351
v 0.005043 0.027624 0.015448
v -0.014802 -0.008654 -0.000995
v -0.007998 -0.017164 0.006376
v 0.010142 -0.014896 -0.000995
v 0.028854 0.021381 0.015448
v 0.027154 -0.016593 0.014315
v 0.024316 -0.013189 0.002409
v 0.002210 -0.014891 0.038127
v 0.023750 0.017417 0.001842
v 0.004476 -0.021699 0.014886
v -0.014802 0.015715 0.003543
v 0.032258 0.007210 0.004109
v 0.015813 0.028189 0.009214
v 0.032258 -0.005255 0.030188
v 0.032258 0.011750 0.029618
v 0.032258 0.017417 0.010348
v -0.014802 -0.002987 0.036989
v 0.024316 -0.016593 0.004676
v 0.016379 -0.022265 0.009214
v 0.011275 0.028760 0.014315
v 0.018650 -0.017725 0.030751
v 0.016946 -0.014331 0.034722
v 0.019217 0.024220 0.002409
v 0.016379 0.019119 0.035289
v 0.016946 -0.021699 0.016582
v 0.014680 0.027624 0.018849
v 0.006181 -0.019432 0.026784
v -0.009131 -0.015462 -0.000995
v 0.007880 0.028189 0.007510
v 0.027721 0.002114 0.001842
v -0.010264 0.020250 -0.000995
v 0.027721 0.001553 0.038127
v 0.014680 0.027058 0.003543
v -0.005727 0.023654 0.017719
v 0.030554 -0.013760 0.019412
f 303 307 317 
f 262 258 265 
f 255 256 266 
f 254 261 267 
f 258 262 268 
f 266 263 269 
f 269 263 270 
f 261 254 271 
f 262 265 273 
f 266 256 273 
f 265 258 275 
f 268 262 276 
f 267 261 277 
f 254 267 279 
f 269 260 280 
f 263 266 281 
f 273 265 282 
f 266 273 282 
f 255 266 284 
f 266 269 284 
f 256 255 285 
f 262 256 285 
f 269 280 285 
f 260 269 286 
f 269 270 286 
f 264 275 287 
f 275 271 287 
f 260 286 289 
f 286 270 289 
f 276 262 290 
f 270 263 291 
f 278 254 291 
f 272 262 292 
f 280 272 292 
f 262 285 292 
f 285 280 292 
f 265 257 293 
f 282 265 293 
f 266 282 293 
f 254 279 294 
f 291 254 294 
f 264 287 295 
f 287 278 295 
f 276 259 296 
f 277 261 296 
f 259 277 296 
f 261 271 297 
f 275 268 297 
f 271 275 297 
f 271 254 298 
f 254 278 298 
f 287 271 298 
f 278 287 298 
f 256 262 299 
f 273 256 299 
f 262 273 299 
f 279 267 300 
f 267 288 300 
f 260 289 300 
f 289 279 300 
f 280 260 301 
f 272 280 301 
f 260 300 301 
f 300 288 301 
f 283 265 302 
f 295 274 302 
f 264 295 302 
f 259 290 303 
f 290 262 303 
f 259 276 304 
f 290 259 304 
f 276 290 304 
f 291 263 305 
f 278 291 305 
f 258 268 306 
f 275 258 306 
f 268 275 306 
f 272 301 307 
f 301 288 307 
f 303 272 307 
f 265 275 308 
f 275 264 308 
f 264 302 308 
f 302 265 308 
f 262 272 309 
f 303 262 309 
f 272 303 309 
f 255 284 310 
f 284 269 310 
f 269 285 310 
f 285 255 310 
f 281 257 311 
f 274 281 311 
f 257 283 311 
f 283 302 311 
f 302 274 311 
f 279 289 312 
f 289 270 312 
f 270 291 312 
f 294 279 312 
f 291 294 312 
f 257 281 313 
f 281 266 313 
f 293 257 313 
f 266 293 313 
f 268 276 314 
f 276 296 314 
f 296 261 314 
f 261 297 314 
f 297 268 314 
f 263 281 315 
f 281 274 315 
f 274 295 315 
f 295 278 315 
f 305 263 315 
f 278 305 315 
f 257 265 316 
f 283 257 316 
f 265 283 316 
f 267 277 317 
f 277 259 317 
f 288 267 317 
f 259 303 317 
f 307 288 317 
o convex_6
v -0.011965 0.020254 0.051732
v -0.010265 0.019120 0.038127
v -0.010265 0.021389 0.038127
v 0.012413 0.014019 0.038696
v -0.002326 0.013451 0.038127
v 0.002206 0.020254 0.038127
v -0.009699 0.021389 0.052301
v -0.010832 0.017420 0.049464
v -0.003462 0.015720 0.046631
v -0.011965 0.017987 0.044365
v -0.009130 0.019120 0.052301
v -0.000627 0.013451 0.040964
v 0.012413 0.013451 0.038127
v -0.012534 0.021389 0.049464
v -0.000060 0.020821 0.038127
v 0.012413 0.013451 0.038696
v 0.002206 0.020254 0.038696
v -0.012534 0.020821 0.044931
f 327 331 335 
f 319 320 322 
f 322 320 323 
f 319 322 327 
f 325 318 327 
f 322 325 327 
f 321 324 328 
f 324 318 328 
f 318 325 328 
f 325 326 328 
f 325 322 329 
f 326 325 329 
f 322 323 330 
f 323 321 330 
f 329 322 330 
f 318 324 331 
f 324 320 331 
f 327 318 331 
f 323 320 332 
f 320 324 332 
f 321 328 333 
f 328 326 333 
f 326 329 333 
f 329 330 333 
f 330 321 333 
f 321 323 334 
f 324 321 334 
f 323 332 334 
f 332 324 334 
f 320 319 335 
f 319 327 335 
f 331 320 335 
o convex_7
v -0.032945 -0.022834 -0.014603
v -0.019338 0.011184 -0.000995
v -0.019338 0.011184 -0.003264
v -0.032945 0.004379 -0.005532
v -0.019338 0.009481 -0.014603
v -0.022175 -0.009788 -0.000995
v -0.019905 -0.016593 -0.014603
v -0.032945 -0.012628 -0.000995
v -0.032945 0.000407 -0.014603
v -0.027843 -0.024537 -0.014036
v -0.032945 0.004379 -0.000995
v -0.019338 -0.004694 -0.000995
v -0.022741 0.011184 -0.001563
v -0.025575 -0.012628 -0.000995
v -0.022741 -0.021131 -0.014036
v -0.019905 0.010614 -0.011767
v -0.019338 -0.010358 -0.014603
v -0.020473 -0.018295 -0.014036
v -0.032945 0.003243 -0.009500
v -0.030108 -0.024537 -0.014036
v -0.021040 0.008914 -0.014603
v -0.027843 -0.024537 -0.014603
v -0.032945 -0.014327 -0.002696
f 355 345 358 
f 338 337 340 
f 336 340 342 
f 339 336 343 
f 341 337 343 
f 336 339 344 
f 340 336 344 
f 343 337 346 
f 339 343 346 
f 340 337 347 
f 337 341 347 
f 337 338 348 
f 346 337 348 
f 339 346 348 
f 341 343 349 
f 349 345 350 
f 341 349 350 
f 338 340 351 
f 348 338 351 
f 339 348 351 
f 342 340 352 
f 340 347 352 
f 347 342 352 
f 347 341 353 
f 342 347 353 
f 341 350 353 
f 350 342 353 
f 344 339 354 
f 339 351 354 
f 340 344 356 
f 351 340 356 
f 344 354 356 
f 354 351 356 
f 336 342 357 
f 350 345 357 
f 342 350 357 
f 355 336 357 
f 345 355 357 
f 343 336 358 
f 349 343 358 
f 345 349 358 
f 336 355 358 
o convex_8
v -0.016503 -0.011494 -0.013468
v -0.013668 0.015149 -0.000995
v -0.013668 0.017987 -0.014036
v -0.019338 0.011180 -0.000995
v -0.013668 -0.009223 -0.000995
v -0.019338 0.010613 -0.014603
v -0.019338 -0.004690 -0.000995
v -0.013668 -0.013197 -0.014603
v -0.019338 -0.008661 -0.014603
v -0.014236 0.017987 -0.014603
v -0.014236 -0.011494 -0.006098
f 366 363 369 
f 361 360 363 
f 360 362 363 
f 362 364 365 
f 363 362 365 
f 361 363 366 
f 364 366 367 
f 365 364 367 
f 359 365 367 
f 366 359 367 
f 360 361 368 
f 362 360 368 
f 364 362 368 
f 361 366 368 
f 366 364 368 
f 365 359 369 
f 363 365 369 
f 359 366 369 
o convex_9
v -0.026143 -0.001292 0.035288
v -0.026710 -0.016032 0.013751
v -0.025575 -0.016032 0.013751
v -0.025577 0.005514 -0.000995
v -0.046553 -0.005824 -0.000988
v -0.039746 0.004946 0.010917
v -0.026143 -0.012628 -0.000988
v -0.038047 -0.009226 0.019981
v -0.025577 0.004946 0.020549
v -0.041450 -0.011493 -0.000988
v -0.036914 0.005514 -0.000988
v -0.042582 0.002110 0.010917
v -0.025575 -0.010928 0.026214
v -0.038614 -0.011493 0.016585
v -0.034080 -0.006389 0.027350
v -0.029544 -0.000725 0.032450
v -0.032382 -0.014897 0.015452
v -0.042582 0.003244 0.007514
v -0.025575 -0.002992 0.035288
v -0.045417 -0.004129 0.004680
v -0.045417 -0.009226 -0.000424
v -0.036347 -0.006389 0.024516
v -0.031813 -0.008091 0.027350
v -0.039179 0.005514 0.007514
v -0.040881 0.002677 -0.000988
v -0.025575 -0.012063 -0.000988
v -0.027844 0.003812 0.023380
v -0.028410 -0.012628 0.022815
v -0.036914 0.004946 0.014316
v -0.026710 -0.000157 0.034152
v -0.026143 -0.015464 0.017711
v -0.025577 0.005514 0.009780
v -0.038614 -0.012063 -0.000988
v -0.028410 -0.004694 0.033019
v -0.026143 -0.014897 0.007514
v -0.045417 -0.002425 0.001278
v -0.039179 -0.010928 0.016585
v -0.031813 -0.002425 0.030185
v -0.046553 -0.006959 -0.000424
v -0.030678 -0.015464 0.014316
v -0.044849 -0.002425 0.006381
v -0.039179 0.005514 0.004112
f 394 387 411 
f 374 373 379 
f 377 383 384 
f 375 381 385 
f 383 379 386 
f 381 375 387 
f 378 370 388 
f 382 372 388 
f 374 379 390 
f 379 383 390 
f 377 384 391 
f 389 377 391 
f 384 383 392 
f 373 380 393 
f 387 375 393 
f 373 374 394 
f 380 373 394 
f 372 376 395 
f 376 373 395 
f 388 372 395 
f 373 388 395 
f 383 386 397 
f 392 383 397 
f 382 392 397 
f 375 385 398 
f 378 393 398 
f 393 375 398 
f 396 378 398 
f 396 398 399 
f 370 378 399 
f 385 370 399 
f 378 396 399 
f 398 385 399 
f 371 372 400 
f 372 382 400 
f 382 397 400 
f 397 386 400 
f 388 373 401 
f 378 388 401 
f 373 393 401 
f 393 378 401 
f 373 376 402 
f 379 373 402 
f 370 385 403 
f 388 370 403 
f 382 388 403 
f 384 392 403 
f 392 382 403 
f 372 371 404 
f 376 372 404 
f 371 402 404 
f 402 376 404 
f 394 374 405 
f 387 394 405 
f 383 377 406 
f 377 389 406 
f 390 383 406 
f 385 381 407 
f 391 384 407 
f 381 391 407 
f 403 385 407 
f 384 403 407 
f 389 374 408 
f 374 390 408 
f 406 389 408 
f 390 406 408 
f 386 379 409 
f 371 400 409 
f 400 386 409 
f 402 371 409 
f 379 402 409 
f 381 387 410 
f 374 389 410 
f 391 381 410 
f 389 391 410 
f 387 405 410 
f 405 374 410 
f 393 380 411 
f 387 393 411 
f 380 394 411 
o convex_10
v -0.025006 -0.001854 0.036423
v -0.023872 -0.016599 0.013748
v -0.022171 -0.016599 0.013748
v -0.014802 0.014015 -0.000995
v -0.014804 -0.002420 0.037556
v -0.025574 0.006077 -0.000995
v -0.014804 -0.008089 -0.000995
v -0.015369 0.013449 0.025650
v -0.025574 -0.010927 -0.000995
v -0.023872 0.011749 0.006376
v -0.014804 -0.010358 0.026213
v -0.025574 -0.012061 0.025083
v -0.025574 0.000408 0.033589
v -0.014802 0.002677 0.038127
v -0.018772 -0.012061 0.026784
v -0.014802 0.015152 0.008077
v -0.019339 -0.015461 0.019412
v -0.021038 0.012881 0.013748
v -0.021605 -0.005258 0.035289
v -0.023872 0.010612 -0.000995
v -0.025574 -0.016030 0.016582
v -0.020470 0.000977 0.037556
v -0.025574 0.004377 0.022816
v -0.014804 -0.010927 0.019412
v -0.025006 -0.013761 0.004676
v -0.015369 0.015152 0.004109
v -0.014802 0.012881 0.026784
v -0.019906 -0.001854 0.038127
v -0.025574 -0.002989 0.035856
v -0.014804 -0.009227 0.003543
v -0.014804 -0.006958 0.032455
v -0.025574 0.006646 0.008643
v -0.023306 -0.016599 0.016582
v -0.018772 -0.014892 0.016582
v -0.023872 0.011749 0.002976
v -0.015369 0.012881 0.026784
v -0.015369 0.014015 0.022816
v -0.025574 -0.014892 0.007510
v -0.020470 -0.012061 0.026784
v -0.023306 -0.013192 0.004109
f 436 420 451 
f 417 415 418 
f 417 418 420 
f 417 420 423 
f 417 423 424 
f 418 415 425 
f 425 415 427 
f 422 426 428 
f 424 419 429 
f 415 417 431 
f 423 420 432 
f 424 412 433 
f 417 424 434 
f 424 429 434 
f 429 421 434 
f 425 422 435 
f 422 428 435 
f 427 415 437 
f 421 429 437 
f 429 427 437 
f 425 427 438 
f 416 425 439 
f 430 416 439 
f 433 412 439 
f 425 433 439 
f 412 424 440 
f 424 423 440 
f 423 430 440 
f 439 412 440 
f 430 439 440 
f 414 418 441 
f 418 425 441 
f 425 435 441 
f 425 416 442 
f 422 425 442 
f 426 422 442 
f 416 430 442 
f 430 426 442 
f 417 434 443 
f 434 421 443 
f 413 414 444 
f 414 428 444 
f 432 413 444 
f 423 432 444 
f 428 414 445 
f 435 428 445 
f 414 441 445 
f 441 435 445 
f 415 431 446 
f 431 417 446 
f 437 415 446 
f 421 437 446 
f 417 443 446 
f 443 421 446 
f 419 424 447 
f 424 433 447 
f 433 425 447 
f 438 419 447 
f 425 438 447 
f 429 419 448 
f 427 429 448 
f 419 438 448 
f 438 427 448 
f 414 413 449 
f 413 432 449 
f 432 420 449 
f 436 414 449 
f 420 436 449 
f 428 426 450 
f 430 423 450 
f 426 430 450 
f 423 444 450 
f 444 428 450 
f 418 414 451 
f 420 418 451 
f 414 436 451 
o convex_11
v -0.001760 -0.009228 0.044931
v -0.010265 -0.015464 0.038127
v -0.010831 -0.016032 0.049464
v 0.010146 -0.009795 0.038127
v -0.006864 -0.010363 0.039262
v 0.001072 -0.014897 0.038127
v -0.010265 -0.013197 0.052301
v -0.011966 -0.012063 0.046631
v -0.008562 -0.015464 0.051166
v -0.003461 -0.009228 0.038127
v 0.010146 -0.009228 0.038696
v -0.008562 -0.010363 0.046631
v -0.012534 -0.015464 0.050600
v -0.010265 -0.013197 0.038127
v -0.008562 -0.012630 0.051732
v -0.012534 -0.014897 0.044931
v -0.009131 -0.014897 0.052301
v 0.010146 -0.009795 0.038696
v -0.011966 -0.012063 0.044365
v -0.005161 -0.009228 0.040397
f 470 463 471 
f 454 453 457 
f 453 455 457 
f 454 457 460 
f 455 453 461 
f 455 461 462 
f 461 452 462 
f 459 458 463 
f 453 454 464 
f 458 459 464 
f 454 460 464 
f 461 453 465 
f 456 461 465 
f 462 452 466 
f 452 463 466 
f 463 458 466 
f 453 464 467 
f 464 459 467 
f 465 453 467 
f 458 464 468 
f 464 460 468 
f 466 458 468 
f 462 466 468 
f 457 455 469 
f 460 457 469 
f 455 462 469 
f 468 460 469 
f 462 468 469 
f 459 463 470 
f 456 465 470 
f 467 459 470 
f 465 467 470 
f 452 461 471 
f 461 456 471 
f 463 452 471 
f 456 470 471 
o convex_12
v 0.009577 -0.006393 0.047198
v -0.002895 -0.009228 0.038127
v -0.003462 -0.009228 0.039829
v 0.015815 -0.008661 0.044931
v 0.018081 -0.006393 0.038127
v 0.000508 -0.006393 0.038127
v 0.011843 -0.009228 0.038127
v -0.001761 -0.009228 0.043795
v 0.017516 -0.006393 0.043228
v 0.006179 -0.006393 0.046065
v 0.017516 -0.008094 0.040962
v -0.002328 -0.008661 0.043228
v 0.011843 -0.006960 0.047198
f 475 480 484 
f 476 473 477 
f 473 474 477 
f 472 476 477 
f 474 473 478 
f 473 476 478 
f 474 478 479 
f 478 475 479 
f 476 472 480 
f 472 477 481 
f 479 472 481 
f 475 478 482 
f 478 476 482 
f 480 475 482 
f 476 480 482 
f 477 474 483 
f 474 479 483 
f 481 477 483 
f 479 481 483 
f 472 479 484 
f 479 475 484 
f 480 472 484 
o convex_13
v 0.009572 -0.006393 0.047763
v 0.013546 0.013451 0.038696
v 0.019784 0.008349 0.043231
v 0.001073 0.005511 0.052301
v -0.018771 -0.001290 0.038127
v 0.018648 -0.006393 0.038127
v -0.001188 0.013451 0.038127
v 0.019784 0.001548 0.047763
v -0.000625 -0.006393 0.038127
v 0.019784 0.010615 0.038127
v -0.018771 0.000979 0.038696
v 0.002205 0.001548 0.051732
v 0.003903 0.010048 0.047197
v 0.015810 -0.006393 0.045497
v -0.001188 0.013451 0.039262
v 0.005605 -0.005826 0.047197
v 0.019784 0.003809 0.047763
v 0.019784 -0.005259 0.038696
v 0.009010 -0.002990 0.050031
v -0.018771 -0.001290 0.038696
v 0.007877 0.008349 0.048332
v 0.003337 0.003250 0.052301
v 0.000507 0.003809 0.052301
v 0.004473 -0.002990 0.049464
v 0.007304 0.013451 0.040397
v -0.000625 0.006647 0.049464
v 0.003903 -0.006393 0.044365
v 0.014108 -0.005826 0.047197
v 0.009010 0.011183 0.044365
v 0.018082 -0.006393 0.042096
v 0.002205 0.005511 0.052301
v 0.019784 0.006647 0.045497
v 0.002205 0.008349 0.049464
f 515 505 517 
f 490 489 491 
f 489 490 493 
f 490 485 493 
f 486 487 494 
f 491 486 494 
f 490 491 494 
f 487 492 494 
f 491 489 495 
f 485 490 498 
f 486 491 499 
f 491 495 499 
f 492 487 501 
f 490 494 502 
f 494 492 502 
f 489 493 504 
f 495 489 504 
f 492 501 506 
f 503 492 506 
f 496 503 506 
f 488 495 507 
f 495 504 507 
f 504 496 507 
f 506 488 507 
f 496 506 507 
f 500 485 508 
f 485 503 508 
f 503 496 508 
f 496 504 508 
f 504 500 508 
f 486 499 509 
f 499 497 509 
f 495 488 510 
f 499 495 510 
f 493 485 511 
f 485 500 511 
f 504 493 511 
f 500 504 511 
f 485 498 512 
f 498 492 512 
f 492 503 512 
f 503 485 512 
f 487 486 513 
f 497 505 513 
f 486 509 513 
f 509 497 513 
f 498 490 514 
f 492 498 514 
f 490 502 514 
f 502 492 514 
f 501 505 515 
f 488 506 515 
f 506 501 515 
f 501 487 516 
f 505 501 516 
f 487 513 516 
f 513 505 516 
f 497 499 517 
f 505 497 517 
f 510 488 517 
f 499 510 517 
f 488 515 517 
