o convex_0
v 0.042431 0.026252 -0.041430
v -0.048008 -0.007136 -0.041430
v -0.048008 -0.007136 -0.012099
v 0.015535 -0.044625 -0.012913
v 0.005766 0.050700 -0.003951
v -0.026005 0.043364 -0.041430
v -0.008077 -0.046257 -0.041430
v 0.039166 -0.007146 -0.003951
v 0.042431 -0.022625 -0.041430
v -0.012971 -0.043809 -0.003951
v -0.029262 0.034395 -0.003951
v 0.047316 0.014028 -0.012099
v 0.009022 0.049884 -0.041430
v -0.036602 -0.030768 -0.041430
v -0.045562 0.019732 -0.012099
v 0.032644 0.038476 -0.012099
v 0.039985 -0.026697 -0.012099
v 0.024503 -0.040544 -0.041430
v -0.046371 0.017283 -0.041430
v -0.031709 -0.035656 -0.012099
v -0.039040 -0.007136 -0.003951
v 0.011469 -0.044625 -0.003951
v 0.048135 -0.006330 -0.041430
v -0.009706 0.049884 -0.003951
v 0.030207 0.032763 -0.003951
v -0.034155 0.036844 -0.012099
v 0.048135 -0.007146 -0.012099
v 0.026132 0.043364 -0.041430
v -0.041487 -0.024248 -0.012099
v -0.008896 0.049884 -0.041430
v -0.039858 0.030324 -0.041430
v -0.021121 -0.042176 -0.041430
v -0.010524 -0.046257 -0.007212
v 0.008204 -0.046257 -0.041430
v 0.048135 0.009956 -0.041430
v 0.032644 -0.034850 -0.012099
v -0.048008 0.010773 -0.012099
v 0.017982 0.047435 -0.012913
v 0.042431 0.026252 -0.012099
v -0.045562 -0.016105 -0.040612
v -0.039040 0.010773 -0.003951
v -0.017855 0.047435 -0.012099
v 0.035091 -0.032401 -0.041430
v 0.039166 0.010773 -0.003951
v 0.009832 -0.046257 -0.007212
v 0.032644 -0.021809 -0.003951
v 0.036719 0.034395 -0.041430
v -0.033337 -0.020993 -0.003951
v 0.019610 0.044987 -0.003951
v 0.044869 -0.017728 -0.012099
v -0.041487 0.027884 -0.012099
v -0.048008 0.010773 -0.041430
v -0.026005 -0.039728 -0.012099
v 0.026132 -0.039737 -0.012099
v -0.028452 -0.038095 -0.041430
v -0.028452 0.041731 -0.012099
v -0.045562 -0.016105 -0.012099
v -0.031709 0.039283 -0.041430
v 0.046497 0.017283 -0.040612
v -0.019484 0.044987 -0.003951
v 0.048135 0.010773 -0.012099
v -0.017855 0.047435 -0.041430
v 0.026132 0.043364 -0.012099
v 0.039985 0.030324 -0.012099
f 16 49 64 
f 1 2 6 
f 2 1 7 
f 7 1 9 
f 8 5 10 
f 10 5 11 
f 1 6 13 
f 2 7 14 
f 7 9 18 
f 6 2 19 
f 10 11 21 
f 8 10 22 
f 9 1 23 
f 11 5 24 
f 5 8 25 
f 1 13 28 
f 14 20 29 
f 5 13 30 
f 13 6 30 
f 24 5 30 
f 6 19 31 
f 19 15 31 
f 14 7 32 
f 22 10 33 
f 32 7 33 
f 18 4 34 
f 7 18 34 
f 33 7 34 
f 23 1 35 
f 27 23 35 
f 2 3 37 
f 15 19 37 
f 3 21 37 
f 13 5 38 
f 28 13 38 
f 3 2 40 
f 2 14 40 
f 14 29 40 
f 11 15 41 
f 21 11 41 
f 15 37 41 
f 37 21 41 
f 9 17 43 
f 18 9 43 
f 17 36 43 
f 36 18 43 
f 25 8 44 
f 8 27 44 
f 12 39 44 
f 39 25 44 
f 22 33 45 
f 33 34 45 
f 34 4 45 
f 8 22 46 
f 36 17 46 
f 22 36 46 
f 1 28 47 
f 28 16 47 
f 20 10 48 
f 10 21 48 
f 29 20 48 
f 5 25 49 
f 38 5 49 
f 17 9 50 
f 9 23 50 
f 27 8 50 
f 23 27 50 
f 8 46 50 
f 46 17 50 
f 15 11 51 
f 11 26 51 
f 31 15 51 
f 26 31 51 
f 19 2 52 
f 2 37 52 
f 37 19 52 
f 10 20 53 
f 32 33 53 
f 33 10 53 
f 4 18 54 
f 18 36 54 
f 36 22 54 
f 45 4 54 
f 22 45 54 
f 20 14 55 
f 14 32 55 
f 53 20 55 
f 32 53 55 
f 42 6 56 
f 21 3 57 
f 3 40 57 
f 40 29 57 
f 48 21 57 
f 29 48 57 
f 6 31 58 
f 31 26 58 
f 26 56 58 
f 56 6 58 
f 35 1 59 
f 1 39 59 
f 39 12 59 
f 11 24 60 
f 26 11 60 
f 24 42 60 
f 56 26 60 
f 42 56 60 
f 27 35 61 
f 44 27 61 
f 12 44 61 
f 35 59 61 
f 59 12 61 
f 30 6 62 
f 24 30 62 
f 6 42 62 
f 42 24 62 
f 16 28 63 
f 28 38 63 
f 49 16 63 
f 38 49 63 
f 39 1 64 
f 25 39 64 
f 1 47 64 
f 47 16 64 
f 49 25 64 
o convex_1
v -0.006452 -0.041364 0.005825
v 0.038357 -0.002260 0.009086
v 0.038357 -0.008783 0.009086
v 0.038357 -0.002260 -0.003951
v -0.038231 -0.002260 0.009086
v -0.037406 -0.010409 -0.003951
v 0.010649 -0.044628 -0.003951
v 0.029391 -0.029955 0.009086
v -0.029265 -0.029955 0.009086
v -0.012157 -0.043811 -0.003951
v -0.038231 -0.002260 -0.003951
v 0.034279 -0.017746 -0.003951
v 0.013910 -0.038921 0.009086
v -0.033336 -0.025882 0.008270
v -0.016228 -0.038108 0.009086
v -0.030892 -0.022635 -0.003951
v 0.033462 -0.025882 0.008270
v -0.037406 -0.016112 0.009086
v 0.037540 -0.016112 0.008270
v 0.015544 -0.040551 -0.003951
v 0.002507 -0.044628 -0.001506
v 0.004134 -0.040551 0.008270
v 0.038357 -0.006337 -0.003951
v -0.010530 -0.044628 -0.003135
v 0.031018 -0.022635 -0.003951
v 0.011466 -0.043811 -0.001506
v -0.016228 -0.039738 -0.003951
v -0.038231 -0.010409 0.008270
v -0.008079 -0.039738 0.009086
v -0.034153 -0.017746 -0.003951
v -0.036597 -0.019371 0.008270
v 0.035906 -0.021001 0.009086
v 0.035906 -0.014482 -0.003951
v -0.012974 -0.042998 -0.000690
v -0.038231 -0.007149 -0.003951
f 95 82 99 
f 66 67 68 
f 67 66 69 
f 66 68 69 
f 70 68 71 
f 67 69 72 
f 72 69 73 
f 70 71 74 
f 69 68 75 
f 68 70 75 
f 71 68 76 
f 72 73 77 
f 74 73 78 
f 77 73 79 
f 70 74 80 
f 73 69 82 
f 78 73 82 
f 72 71 84 
f 71 76 84 
f 81 72 84 
f 65 85 86 
f 68 67 87 
f 76 68 87 
f 67 83 87 
f 74 71 88 
f 85 65 88 
f 71 85 88 
f 76 81 89 
f 84 76 89 
f 81 84 89 
f 71 72 90 
f 72 77 90 
f 85 71 90 
f 77 86 90 
f 86 85 90 
f 74 78 91 
f 80 74 91 
f 78 80 91 
f 69 75 92 
f 82 69 92 
f 77 79 93 
f 86 77 93 
f 65 86 93 
f 88 65 93 
f 79 88 93 
f 70 80 94 
f 80 78 94 
f 78 82 95 
f 70 94 95 
f 94 78 95 
f 67 72 96 
f 72 81 96 
f 83 67 96 
f 83 96 97 
f 81 76 97 
f 76 87 97 
f 87 83 97 
f 96 81 97 
f 73 74 98 
f 79 73 98 
f 74 88 98 
f 88 79 98 
f 75 70 99 
f 92 75 99 
f 82 92 99 
f 70 95 99 
o convex_2
v 0.029389 0.013214 0.052270
v -0.030083 0.001002 0.049824
v -0.027634 -0.006332 0.049824
v -0.003195 0.008336 0.065305
v -0.005638 0.045812 0.049824
v 0.009836 -0.023436 0.049824
v 0.015544 0.015656 0.062044
v -0.014597 0.027070 0.059600
v 0.004129 -0.010405 0.061230
v 0.022059 0.036028 0.049824
v 0.004944 0.032774 0.059600
v -0.015412 -0.006332 0.059600
v 0.028575 -0.003883 0.050641
v -0.024376 0.032774 0.050639
v -0.009710 -0.023443 0.050639
v -0.021933 0.015663 0.058784
v 0.017172 -0.003883 0.059600
v 0.013915 0.040101 0.053085
v 0.019610 0.027063 0.057158
v -0.006453 0.040108 0.055529
v -0.004009 0.021367 0.063674
v 0.008208 0.006712 0.064490
v 0.017981 -0.013659 0.054714
v -0.004824 -0.017739 0.057160
v 0.030210 0.017287 0.049824
v -0.030083 0.018106 0.049824
v -0.017861 0.005894 0.061230
v -0.002380 -0.003883 0.063674
v 0.022059 0.005894 0.058786
v -0.018669 -0.015290 0.053085
v -0.026005 0.000190 0.054714
v 0.006579 0.019729 0.063674
v -0.012968 0.016475 0.062859
v 0.005764 0.045812 0.050641
v 0.004129 -0.021812 0.053899
v 0.023688 -0.012841 0.049824
v -0.015412 0.040108 0.052271
v 0.026131 0.019729 0.054714
v -0.027634 0.016475 0.053899
v -0.010525 0.003444 0.063674
v -0.017861 -0.018551 0.049824
v 0.012280 0.031136 0.058786
v -0.021933 0.025440 0.056345
v 0.006579 0.040101 0.055528
v -0.004009 0.031143 0.060415
v 0.005764 -0.002259 0.063674
v 0.024503 0.032767 0.050641
v 0.010651 -0.015290 0.057158
v -0.017861 0.040108 0.049824
v 0.015544 0.004263 0.062044
v -0.009710 -0.014478 0.057969
v -0.021933 -0.007144 0.055529
v -0.004824 -0.025073 0.050639
v 0.026131 -0.002252 0.053899
v -0.013783 0.035209 0.056345
v 0.022059 0.014838 0.058786
v 0.013100 -0.021805 0.050641
v 0.013100 0.043362 0.049824
v -0.004009 -0.010405 0.061230
v 0.004129 0.027070 0.062044
v -0.025191 0.005075 0.056345
v -0.030083 0.006706 0.051455
v 0.002506 0.010772 0.065305
v 0.013100 -0.008768 0.059600
f 147 122 163 
f 102 101 104 
f 102 104 105 
f 105 104 109 
f 105 109 124 
f 100 112 124 
f 104 101 125 
f 101 102 130 
f 121 106 131 
f 107 115 132 
f 103 120 132 
f 120 107 132 
f 115 126 132 
f 104 119 133 
f 108 123 134 
f 112 122 135 
f 105 124 135 
f 124 112 135 
f 119 104 136 
f 100 124 137 
f 113 125 138 
f 126 111 139 
f 127 103 139 
f 111 127 139 
f 103 132 139 
f 132 126 139 
f 102 105 140 
f 129 102 140 
f 114 129 140 
f 118 117 141 
f 106 118 141 
f 131 106 141 
f 115 107 142 
f 113 138 142 
f 138 115 142 
f 119 110 143 
f 117 133 143 
f 133 119 143 
f 110 141 143 
f 141 117 143 
f 110 119 144 
f 107 120 144 
f 103 127 145 
f 127 108 145 
f 109 117 146 
f 117 118 146 
f 124 109 146 
f 118 137 146 
f 137 124 146 
f 108 134 147 
f 104 125 148 
f 125 113 148 
f 136 104 148 
f 113 136 148 
f 106 121 149 
f 128 106 149 
f 116 128 149 
f 145 116 149 
f 121 145 149 
f 114 123 150 
f 111 129 150 
f 129 114 150 
f 111 126 151 
f 102 129 151 
f 129 111 151 
f 130 102 151 
f 126 130 151 
f 123 114 152 
f 105 134 152 
f 134 123 152 
f 140 105 152 
f 114 140 152 
f 112 100 153 
f 122 112 153 
f 116 122 153 
f 100 128 153 
f 128 116 153 
f 136 113 154 
f 119 136 154 
f 142 107 154 
f 113 142 154 
f 107 144 154 
f 144 119 154 
f 118 106 155 
f 128 100 155 
f 106 128 155 
f 137 118 155 
f 100 137 155 
f 134 105 156 
f 105 135 156 
f 135 122 156 
f 122 147 156 
f 147 134 156 
f 109 104 157 
f 117 109 157 
f 104 133 157 
f 133 117 157 
f 123 108 158 
f 108 127 158 
f 127 111 158 
f 150 123 158 
f 111 150 158 
f 120 131 159 
f 141 110 159 
f 131 141 159 
f 110 144 159 
f 144 120 159 
f 126 115 160 
f 130 126 160 
f 115 138 160 
f 160 138 161 
f 125 101 161 
f 101 130 161 
f 138 125 161 
f 130 160 161 
f 120 103 162 
f 131 120 162 
f 121 131 162 
f 103 145 162 
f 145 121 162 
f 122 116 163 
f 145 108 163 
f 116 145 163 
f 108 147 163 
o convex_3
v -0.022749 0.043368 -0.003135
v 0.003322 0.055589 0.009086
v 0.003322 0.049885 0.009086
v -0.028454 0.040923 0.009086
v 0.003322 0.044183 -0.003951
v -0.009720 0.052329 0.000124
v -0.017860 0.051515 0.009086
v 0.003322 0.050699 -0.003951
v -0.013785 0.040923 -0.003951
v -0.011350 0.049885 -0.003951
v -0.025194 0.040923 0.009086
v -0.004830 0.055589 0.006641
v -0.023561 0.040923 -0.003951
v -0.026824 0.044183 0.007455
v -0.017860 0.049070 0.000939
v 0.001689 0.054773 0.003380
v -0.012970 0.053958 0.008270
v 0.003322 0.044183 -0.003135
v -0.006460 0.051515 -0.003135
v -0.028454 0.041738 0.005825
v -0.022749 0.047442 0.005825
v -0.007275 0.055589 0.009086
f 175 180 185 
f 166 165 167 
f 165 166 168 
f 167 165 170 
f 165 168 171 
f 171 168 172 
f 171 172 173 
f 166 167 174 
f 167 172 174 
f 172 167 176 
f 173 172 176 
f 164 173 176 
f 167 170 177 
f 173 164 178 
f 169 173 178 
f 165 171 179 
f 175 165 179 
f 175 169 180 
f 169 178 180 
f 178 170 180 
f 168 166 181 
f 172 168 181 
f 166 174 181 
f 174 172 181 
f 171 173 182 
f 173 169 182 
f 169 175 182 
f 179 171 182 
f 175 179 182 
f 164 176 183 
f 176 167 183 
f 167 177 183 
f 177 164 183 
f 177 170 184 
f 164 177 184 
f 170 178 184 
f 178 164 184 
f 170 165 185 
f 165 175 185 
f 180 170 185 
o convex_4
v 0.048132 0.009149 0.000124
v 0.029389 0.040923 0.009086
v 0.029389 0.040923 0.007455
v 0.008218 -0.002260 0.009086
v 0.003322 0.040103 -0.003951
v 0.008218 -0.002260 -0.003951
v 0.044059 -0.000628 0.009086
v 0.044059 0.017294 -0.003951
v 0.003322 0.027071 0.009086
v 0.038354 -0.002260 -0.003951
v 0.049764 0.020549 0.009086
v 0.024506 0.040923 -0.003951
v 0.003322 0.009965 -0.003951
v 0.047318 0.022996 0.003380
v 0.003322 0.009965 0.009086
v 0.049764 0.005890 0.006641
v 0.025320 0.040923 0.009086
v 0.038354 -0.002260 0.009086
v 0.049764 0.015667 0.002567
v 0.044059 0.022181 -0.001506
v 0.047318 0.024624 0.007455
v 0.003322 0.036848 0.000124
v 0.049764 0.005890 0.009086
v 0.044059 0.009965 -0.003951
v 0.028575 0.040923 0.004194
v 0.048132 0.004262 0.004194
v 0.015546 0.040923 -0.003135
v 0.047318 0.018110 -0.000690
v 0.003322 0.031958 0.005011
f 202 207 214 
f 187 189 192 
f 191 190 193 
f 189 187 194 
f 189 191 195 
f 191 193 195 
f 187 192 196 
f 187 188 197 
f 193 190 197 
f 191 189 198 
f 190 191 198 
f 194 190 198 
f 189 194 200 
f 198 189 200 
f 194 198 200 
f 194 187 202 
f 187 197 202 
f 192 189 203 
f 189 195 203 
f 195 192 203 
f 199 196 204 
f 201 186 204 
f 196 201 204 
f 193 197 205 
f 197 199 205 
f 188 187 206 
f 187 196 206 
f 196 199 206 
f 190 194 207 
f 202 190 207 
f 196 192 208 
f 192 201 208 
f 201 196 208 
f 186 195 209 
f 195 193 209 
f 197 188 210 
f 199 197 210 
f 188 206 210 
f 206 199 210 
f 195 186 211 
f 192 195 211 
f 186 201 211 
f 201 192 211 
f 197 190 212 
f 190 202 212 
f 202 197 212 
f 204 186 213 
f 199 204 213 
f 193 205 213 
f 205 199 213 
f 186 209 213 
f 209 193 213 
f 194 202 214 
f 207 194 214 
o convex_5
v 0.026135 0.041738 0.000124
v 0.007397 0.055589 0.009086
v 0.007397 0.055589 0.008270
v 0.003322 0.044183 -0.002320
v 0.024506 0.040923 0.009086
v 0.008213 0.050699 -0.003951
v 0.003322 0.049885 0.009086
v 0.020431 0.049885 0.008270
v 0.013919 0.040923 -0.003951
v 0.003322 0.050699 -0.003951
v 0.017983 0.046627 -0.003951
v 0.027764 0.043368 0.009086
v 0.003322 0.055589 0.006641
v 0.023690 0.040923 -0.003951
v 0.013919 0.051515 0.001753
v 0.028580 0.040923 0.009086
v 0.003322 0.044183 -0.003951
v 0.013103 0.053958 0.009086
v 0.023690 0.046627 0.005825
f 222 226 233 
f 218 219 221 
f 219 216 221 
f 219 218 223 
f 220 223 224 
f 218 221 224 
f 223 220 225 
f 216 219 226 
f 216 217 227 
f 217 220 227 
f 221 216 227 
f 220 224 227 
f 224 221 227 
f 219 223 228 
f 225 215 228 
f 223 225 228 
f 220 217 229 
f 225 220 229 
f 222 225 229 
f 215 226 230 
f 226 219 230 
f 228 215 230 
f 219 228 230 
f 223 218 231 
f 224 223 231 
f 218 224 231 
f 217 216 232 
f 216 226 232 
f 226 222 232 
f 229 217 232 
f 222 229 232 
f 225 222 233 
f 215 225 233 
f 226 215 233 
o convex_6
v -0.022754 -0.038918 0.011531
v -0.041488 -0.007964 0.023751
v -0.041488 -0.007964 0.024566
v -0.021123 -0.001445 0.009086
v -0.021123 -0.019374 0.024566
v -0.039044 -0.003077 0.009086
v -0.028456 -0.042995 0.020492
v -0.030900 -0.001445 0.024566
v -0.021123 -0.046255 0.024566
v -0.034969 -0.024266 0.009086
v -0.021123 -0.034844 0.009086
v -0.033340 -0.034844 0.014791
v -0.041488 -0.001445 0.024566
v -0.034156 -0.030771 0.024566
v -0.021938 -0.047887 0.018861
v -0.021123 -0.001445 0.012347
v -0.037413 -0.017742 0.009901
v -0.039044 -0.001445 0.009086
v -0.030086 -0.030771 0.009086
v -0.030086 -0.039736 0.015606
v -0.029271 -0.039736 0.024566
v -0.034969 -0.029958 0.013976
v -0.033340 -0.034844 0.018861
v -0.022754 -0.047887 0.022120
v -0.021123 -0.044627 0.015606
v -0.030086 -0.002263 0.024566
v -0.038229 -0.012037 0.009086
v -0.024383 -0.046255 0.018047
f 258 248 261 
f 236 238 241 
f 237 238 242 
f 238 236 242 
f 239 237 243 
f 237 242 244 
f 243 237 244 
f 235 236 246 
f 241 237 246 
f 236 241 246 
f 242 236 247 
f 238 237 249 
f 237 241 249 
f 239 235 251 
f 237 239 251 
f 235 246 251 
f 246 237 251 
f 244 234 252 
f 243 244 252 
f 245 243 252 
f 240 245 253 
f 252 234 253 
f 245 252 253 
f 242 247 254 
f 236 235 255 
f 243 245 255 
f 235 250 255 
f 250 243 255 
f 245 240 256 
f 247 236 256 
f 240 254 256 
f 254 247 256 
f 236 255 256 
f 255 245 256 
f 248 242 257 
f 254 240 257 
f 242 254 257 
f 234 244 258 
f 244 242 258 
f 242 248 258 
f 241 238 259 
f 238 249 259 
f 249 241 259 
f 235 239 260 
f 239 243 260 
f 250 235 260 
f 243 250 260 
f 240 253 261 
f 253 234 261 
f 257 240 261 
f 248 257 261 
f 234 258 261 
o convex_7
v -0.007266 -0.051146 0.024566
v 0.040802 -0.014481 0.035976
v 0.040802 -0.016114 0.035976
v -0.021925 -0.014481 0.049824
v -0.039040 -0.014481 0.024566
v -0.006453 -0.046251 0.045747
v 0.031829 -0.035663 0.024566
v 0.023686 -0.039733 0.044120
v -0.033338 -0.032408 0.040857
v 0.022059 -0.014481 0.049824
v 0.038353 -0.014481 0.024566
v -0.025187 -0.043807 0.024566
v 0.014730 -0.049513 0.025382
v 0.004131 -0.032408 0.049824
v -0.039854 -0.014481 0.037598
v 0.034278 -0.030782 0.040857
v -0.018671 -0.042181 0.044931
v 0.005766 -0.046251 0.045747
v -0.034152 -0.030782 0.024566
v 0.026127 -0.042996 0.024566
v -0.008901 -0.029968 0.049824
v -0.014604 -0.049513 0.025382
v -0.040675 -0.016929 0.034345
v 0.002504 -0.051146 0.027011
v -0.023560 -0.040551 0.043304
v 0.017170 -0.042996 0.044931
v 0.035091 -0.014481 0.041673
v -0.037413 -0.025076 0.039230
v -0.029263 -0.034034 0.043304
v 0.014730 -0.036474 0.047376
v 0.037540 -0.025894 0.038414
v 0.036726 -0.023447 0.024566
v -0.030890 -0.037289 0.024566
v 0.030202 -0.034849 0.042489
v 0.020432 -0.047065 0.024566
v -0.031703 -0.015300 0.044120
v -0.004004 -0.045436 0.046561
v -0.021925 -0.016114 0.049824
v -0.013790 -0.044625 0.044931
v 0.028575 -0.037289 0.041673
v -0.019485 -0.038918 0.045747
v -0.034152 -0.027524 0.041673
v 0.014730 -0.044625 0.044120
v -0.021925 -0.046251 0.025382
v -0.038227 -0.024261 0.036792
v 0.007392 -0.051146 0.024566
v 0.034278 -0.026709 0.041673
v 0.006579 -0.044625 0.046561
v -0.028449 -0.037289 0.041673
v 0.022059 -0.041366 0.043304
v 0.022059 -0.015300 0.049824
v 0.033464 -0.032408 0.040046
v -0.010528 -0.042996 0.046561
v 0.039167 -0.021821 0.035976
v 0.009019 -0.029968 0.049824
v 0.040802 -0.015300 0.032718
v 0.020432 -0.047065 0.025382
v -0.027636 -0.041366 0.026198
v -0.025187 -0.038104 0.044120
v -0.035779 -0.029149 0.039230
v 0.022873 -0.038104 0.044931
v -0.004004 -0.032408 0.049824
v 0.036726 -0.025076 0.040046
v 0.030202 -0.031593 0.043304
f 312 322 325 
f 265 263 266 
f 262 266 268 
f 263 265 271 
f 266 263 272 
f 268 266 272 
f 266 262 273 
f 271 265 275 
f 265 266 276 
f 266 273 280 
f 262 268 281 
f 275 265 282 
f 262 267 283 
f 273 262 283 
f 276 266 284 
f 266 280 284 
f 267 262 285 
f 279 267 285 
f 263 271 288 
f 276 284 289 
f 268 272 293 
f 280 273 294 
f 262 281 296 
f 265 276 297 
f 276 289 297 
f 267 279 298 
f 282 265 299 
f 265 297 299 
f 283 267 300 
f 278 286 300 
f 295 269 301 
f 282 299 302 
f 289 270 303 
f 270 290 303 
f 297 289 303 
f 290 299 303 
f 299 297 303 
f 279 274 304 
f 287 279 304 
f 273 283 305 
f 283 300 305 
f 300 286 305 
f 284 280 306 
f 289 284 306 
f 280 294 306 
f 274 279 307 
f 285 262 307 
f 279 285 307 
f 262 296 307 
f 296 274 307 
f 279 287 309 
f 287 291 309 
f 298 279 309 
f 275 298 309 
f 273 305 310 
f 305 286 310 
f 269 287 311 
f 301 269 311 
f 287 304 311 
f 271 275 312 
f 288 271 312 
f 308 288 312 
f 281 268 313 
f 268 292 313 
f 292 277 313 
f 277 295 313 
f 301 281 313 
f 295 301 313 
f 267 298 314 
f 300 267 314 
f 278 300 314 
f 302 278 314 
f 282 302 314 
f 264 292 315 
f 292 268 315 
f 268 293 315 
f 275 309 316 
f 309 291 316 
f 312 275 316 
f 291 312 316 
f 263 264 317 
f 272 263 317 
f 293 272 317 
f 264 315 317 
f 315 293 317 
f 274 296 318 
f 296 281 318 
f 281 301 318 
f 304 274 318 
f 301 311 318 
f 311 304 318 
f 270 294 319 
f 294 273 319 
f 310 270 319 
f 273 310 319 
f 286 278 320 
f 290 270 320 
f 299 290 320 
f 278 302 320 
f 302 299 320 
f 270 310 320 
f 310 286 320 
f 270 289 321 
f 294 270 321 
f 289 306 321 
f 306 294 321 
f 287 269 322 
f 291 287 322 
f 269 295 322 
f 312 291 322 
f 275 282 323 
f 298 275 323 
f 314 298 323 
f 282 314 323 
f 264 263 324 
f 263 288 324 
f 292 264 324 
f 277 292 324 
f 288 308 324 
f 308 277 324 
f 295 277 325 
f 277 308 325 
f 308 312 325 
f 322 295 325 
o convex_8
v -0.044748 0.021365 -0.001506
v -0.049638 0.005890 0.006641
v -0.048007 0.004262 0.004194
v -0.020306 0.017298 0.009086
v -0.020306 -0.002260 -0.003951
v -0.020306 0.040923 -0.003951
v -0.029273 0.040923 0.009086
v -0.020306 -0.002260 0.009086
v -0.038231 -0.002260 -0.003951
v -0.049638 0.020553 0.009086
v -0.043933 -0.000628 0.009086
v -0.043933 0.017298 -0.003951
v -0.025196 0.040923 -0.003135
v -0.025196 0.040923 0.009086
v -0.048007 0.022176 0.003380
v -0.048007 0.010780 -0.000690
v -0.038231 -0.002260 0.009086
v -0.020306 0.040923 -0.000690
v -0.047192 0.024624 0.006641
v -0.049638 0.014851 0.001753
v -0.049638 0.005890 0.009086
v -0.029273 0.040923 0.006641
v -0.043933 0.009149 -0.003951
v -0.026827 0.038476 -0.003951
v -0.048007 0.005890 0.001753
v -0.046373 0.025440 0.009086
v -0.047192 0.016487 -0.001506
f 348 341 352 
f 329 330 331 
f 330 329 333 
f 329 332 333 
f 331 330 334 
f 330 333 334 
f 333 332 335 
f 333 335 336 
f 327 328 336 
f 328 334 336 
f 331 334 337 
f 332 331 338 
f 332 329 339 
f 331 332 339 
f 334 333 342 
f 333 336 342 
f 336 334 342 
f 329 331 343 
f 339 329 343 
f 331 339 343 
f 340 335 344 
f 338 340 344 
f 327 335 345 
f 335 340 345 
f 335 327 346 
f 336 335 346 
f 327 336 346 
f 332 338 347 
f 338 344 347 
f 337 334 348 
f 337 326 349 
f 331 337 349 
f 338 331 349 
f 326 340 349 
f 340 338 349 
f 328 327 350 
f 334 328 350 
f 327 345 350 
f 345 341 350 
f 348 334 350 
f 341 348 350 
f 335 332 351 
f 344 335 351 
f 332 347 351 
f 347 344 351 
f 326 337 352 
f 340 326 352 
f 345 340 352 
f 341 345 352 
f 337 348 352 
o convex_9
v 0.003320 0.036848 0.000124
v -0.020306 -0.002260 -0.003951
v -0.008087 -0.002260 -0.003951
v -0.020306 -0.002260 0.009086
v -0.020306 0.040923 -0.003951
v 0.003320 0.027071 0.009086
v 0.003320 0.010780 0.009086
v 0.003320 0.010780 -0.003951
v -0.020306 0.018110 0.009086
v 0.003320 0.040103 -0.003951
v -0.008087 -0.002260 0.009086
v -0.020306 0.040923 -0.001506
v -0.011341 0.025440 0.009086
v 0.002503 0.040923 -0.003135
v -0.006459 0.027071 0.009086
v 0.000875 0.029514 0.007455
v -0.015417 0.022996 0.009086
f 365 364 369 
f 354 355 356 
f 355 354 357 
f 354 356 357 
f 353 358 359 
f 358 356 359 
f 355 357 360 
f 353 359 360 
f 359 355 360 
f 357 356 361 
f 356 358 361 
f 353 360 362 
f 360 357 362 
f 356 355 363 
f 355 359 363 
f 359 356 363 
f 357 361 364 
f 361 358 365 
f 358 353 366 
f 353 362 366 
f 362 357 366 
f 357 364 366 
f 365 358 367 
f 364 365 367 
f 358 366 368 
f 366 364 368 
f 367 358 368 
f 364 367 368 
f 364 361 369 
f 361 365 369 
o convex_10
v 0.009836 -0.051141 0.018861
v 0.036728 -0.021000 0.024566
v 0.036728 -0.022630 0.024566
v 0.035912 -0.021000 0.009086
v -0.021121 -0.021006 0.024566
v -0.021121 -0.035670 0.009086
v -0.019484 -0.047884 0.024566
v -0.021121 -0.023449 0.009086
v 0.024497 -0.044624 0.024566
v 0.016354 -0.038107 0.009086
v 0.030210 -0.040553 0.017231
v -0.010526 -0.052771 0.020492
v 0.007396 -0.052771 0.024566
v -0.005634 -0.039737 0.009086
v -0.008895 -0.021006 0.009086
v -0.021121 -0.048697 0.019676
v 0.017979 -0.050327 0.019676
v 0.030210 -0.030780 0.009086
v 0.034282 -0.032406 0.014791
v 0.031020 -0.037293 0.024566
v 0.024497 -0.046254 0.018047
v -0.018675 -0.043810 0.013976
v 0.002509 -0.053584 0.020492
v -0.008080 -0.052771 0.024566
v 0.009836 -0.044624 0.013160
v -0.021121 -0.046254 0.024566
v 0.023687 -0.047067 0.022120
v 0.031835 -0.038107 0.019676
v -0.016229 -0.051141 0.022934
v -0.009711 -0.044624 0.013160
v 0.020425 -0.042180 0.013160
v 0.017979 -0.050327 0.022934
v -0.014598 -0.039737 0.009901
v 0.032651 -0.034036 0.013160
v 0.035912 -0.025076 0.012347
v 0.013908 -0.051957 0.020492
v 0.026943 -0.044624 0.020492
v 0.035097 -0.028336 0.024566
v -0.002372 -0.052771 0.019676
v 0.004949 -0.039737 0.009086
v 0.017169 -0.046254 0.015606
v -0.021121 -0.021006 0.022120
f 384 377 411 
f 371 372 373 
f 372 371 374 
f 371 373 374 
f 372 374 376 
f 373 375 377 
f 375 374 377 
f 372 376 378 
f 375 373 379 
f 378 376 382 
f 375 379 383 
f 373 377 384 
f 374 375 385 
f 379 373 387 
f 372 378 389 
f 385 375 391 
f 381 385 391 
f 382 376 393 
f 381 392 393 
f 392 382 393 
f 370 392 394 
f 376 374 395 
f 374 385 395 
f 385 376 395 
f 386 390 396 
f 380 388 397 
f 376 385 398 
f 385 381 398 
f 393 376 398 
f 381 393 398 
f 381 391 399 
f 379 387 400 
f 387 390 400 
f 378 382 401 
f 396 378 401 
f 386 396 401 
f 375 383 402 
f 391 375 402 
f 383 399 402 
f 399 391 402 
f 387 373 403 
f 373 388 403 
f 388 380 403 
f 380 390 403 
f 390 387 403 
f 373 372 404 
f 372 388 404 
f 388 373 404 
f 370 386 405 
f 382 392 405 
f 392 370 405 
f 401 382 405 
f 386 401 405 
f 389 378 406 
f 390 380 406 
f 378 396 406 
f 396 390 406 
f 380 397 406 
f 397 389 406 
f 388 372 407 
f 372 389 407 
f 397 388 407 
f 389 397 407 
f 392 381 408 
f 394 392 408 
f 399 383 408 
f 381 399 408 
f 383 379 409 
f 379 394 409 
f 408 383 409 
f 394 408 409 
f 386 370 410 
f 390 386 410 
f 394 379 410 
f 370 394 410 
f 379 400 410 
f 400 390 410 
f 374 373 411 
f 377 374 411 
f 373 384 411 
o convex_11
v -0.044746 0.016477 0.022934
v -0.049634 0.005891 0.009086
v -0.048006 0.003445 0.009086
v -0.030898 0.027887 0.009086
v -0.030898 -0.001445 0.024566
v -0.030898 -0.001445 0.009086
v -0.033345 0.027887 0.024566
v -0.048006 0.023813 0.009086
v -0.041489 -0.001445 0.024566
v -0.049634 0.011596 0.017231
v -0.037419 0.027887 0.024566
v -0.048006 0.022182 0.016421
v -0.043932 -0.000630 0.009086
v -0.041489 0.027887 0.009086
v -0.049634 0.020554 0.009086
v -0.043932 0.027071 0.013976
v -0.048006 0.003445 0.013976
v -0.048006 0.014846 0.020492
v -0.040674 -0.001445 0.009086
v -0.049634 0.007519 0.015606
v -0.030898 0.027887 0.010718
v -0.043932 0.015664 0.023751
v -0.049634 0.018920 0.015606
v -0.047191 0.019735 0.019676
v -0.048006 0.009150 0.019676
f 431 420 436 
f 414 413 415 
f 414 415 417 
f 415 416 417 
f 415 413 419 
f 417 416 420 
f 416 418 420 
f 418 415 422 
f 420 418 422 
f 414 417 424 
f 415 419 425 
f 422 415 425 
f 419 413 426 
f 413 421 426 
f 423 419 426 
f 419 423 427 
f 423 422 427 
f 425 419 427 
f 422 425 427 
f 413 414 428 
f 414 424 428 
f 424 420 428 
f 417 420 430 
f 424 417 430 
f 420 424 430 
f 421 413 431 
f 413 428 431 
f 428 420 431 
f 416 415 432 
f 415 418 432 
f 418 416 432 
f 422 412 433 
f 420 422 433 
f 412 429 433 
f 429 420 433 
f 426 421 434 
f 423 426 434 
f 421 429 434 
f 434 429 435 
f 412 422 435 
f 422 423 435 
f 429 412 435 
f 423 434 435 
f 420 429 436 
f 429 421 436 
f 421 431 436 
o convex_12
v -0.026008 0.046626 0.014792
v -0.037415 0.027887 0.009086
v -0.037415 0.027887 0.024566
v -0.019494 0.045810 0.009086
v -0.020308 0.045810 0.024566
v -0.030900 0.027887 0.011531
v -0.030900 0.040920 0.024566
v -0.032528 0.028703 0.024566
v -0.029270 0.041736 0.009086
v -0.034156 0.036033 0.014792
v -0.026008 0.046626 0.024566
v -0.030084 0.028703 0.009086
v -0.024380 0.046626 0.009086
v -0.037415 0.029519 0.022120
v -0.020308 0.046626 0.024566
v -0.029270 0.043367 0.018047
v -0.036600 0.031148 0.011531
v -0.034156 0.036033 0.024566
f 452 446 454 
f 439 438 442 
f 439 441 443 
f 441 439 444 
f 439 442 444 
f 442 441 444 
f 440 438 445 
f 443 441 447 
f 438 440 448 
f 440 441 448 
f 441 442 448 
f 442 438 448 
f 440 445 449 
f 445 437 449 
f 437 447 449 
f 438 439 450 
f 441 440 451 
f 447 441 451 
f 440 449 451 
f 449 447 451 
f 437 445 452 
f 445 446 452 
f 447 437 452 
f 443 447 452 
f 445 438 453 
f 446 445 453 
f 438 450 453 
f 450 446 453 
f 439 443 454 
f 450 439 454 
f 446 450 454 
f 443 452 454 
o convex_13
v -0.008081 -0.020184 0.011530
v 0.019618 -0.001445 0.013975
v 0.019618 -0.001445 0.009086
v -0.021121 -0.001445 0.009086
v -0.009712 -0.001445 0.022937
v 0.010653 -0.021000 0.009086
v 0.003320 -0.008780 0.022937
v -0.021121 -0.012034 0.009086
v 0.009840 -0.003076 0.022937
v 0.017987 -0.016111 0.009900
v -0.006454 -0.007149 0.022937
v -0.013788 -0.019369 0.009900
v -0.021121 -0.001445 0.013160
v 0.004951 -0.021000 0.011530
v -0.021121 -0.010411 0.010715
v 0.009840 -0.001445 0.022937
v 0.019618 -0.009593 0.012345
v -0.010526 -0.021000 0.009086
v -0.002379 -0.016111 0.016418
v 0.010653 -0.020184 0.010715
v 0.008209 -0.007149 0.022122
v 0.019618 -0.013665 0.009086
v -0.010526 -0.003889 0.022122
v -0.018676 -0.015294 0.009900
v -0.003192 -0.008780 0.022937
f 473 461 479 
f 456 457 458 
f 456 458 459 
f 458 457 460 
f 458 460 462 
f 459 461 463 
f 461 459 465 
f 459 458 467 
f 458 462 467 
f 467 462 469 
f 456 459 470 
f 463 456 470 
f 459 463 470 
f 457 456 471 
f 456 463 471 
f 462 460 472 
f 455 466 472 
f 468 455 472 
f 460 468 472 
f 455 468 473 
f 468 461 473 
f 460 464 474 
f 468 460 474 
f 461 468 474 
f 463 461 475 
f 471 463 475 
f 464 471 475 
f 461 474 475 
f 474 464 475 
f 460 457 476 
f 464 460 476 
f 457 471 476 
f 471 464 476 
f 465 459 477 
f 459 467 477 
f 467 469 477 
f 477 469 478 
f 466 465 478 
f 469 462 478 
f 462 472 478 
f 472 466 478 
f 465 477 478 
f 461 465 479 
f 465 466 479 
f 466 455 479 
f 455 473 479 
o convex_14
v 0.038357 -0.012851 0.010715
v 0.019618 -0.012851 0.009086
v 0.019618 -0.012851 0.009901
v 0.039172 -0.001445 0.013974
v 0.022062 -0.021000 0.013974
v 0.019618 -0.001445 0.013159
v 0.039172 -0.001445 0.009086
v 0.035912 -0.021000 0.009086
v 0.036728 -0.020184 0.013974
v 0.019618 -0.001445 0.009086
v 0.022062 -0.021000 0.009086
v 0.030208 -0.001445 0.013974
v 0.039172 -0.008780 0.013974
f 483 488 492 
f 482 481 484 
f 482 484 485 
f 481 482 485 
f 485 483 486 
f 486 480 487 
f 481 486 487 
f 483 484 488 
f 487 480 488 
f 484 487 488 
f 481 485 489 
f 485 486 489 
f 486 481 489 
f 484 481 490 
f 487 484 490 
f 481 487 490 
f 484 483 491 
f 485 484 491 
f 483 485 491 
f 486 483 492 
f 480 486 492 
f 488 480 492 
o convex_15
v 0.021247 -0.021000 0.017235
v 0.041616 -0.001445 0.024566
v 0.041616 -0.007149 0.024566
v 0.039172 -0.001445 0.013974
v 0.035910 -0.021000 0.013974
v 0.020432 -0.020184 0.024566
v 0.030214 -0.001445 0.013974
v 0.036727 -0.021000 0.024566
v 0.030214 -0.001445 0.024566
v 0.022064 -0.019369 0.013974
v 0.038355 -0.015294 0.013974
v 0.039984 -0.002260 0.014790
v 0.037542 -0.020184 0.023750
v 0.020432 -0.021000 0.024566
v 0.022064 -0.021000 0.013974
f 502 497 507 
f 495 494 498 
f 494 496 499 
f 496 497 499 
f 493 497 500 
f 495 498 500 
f 498 494 501 
f 499 498 501 
f 494 499 501 
f 493 498 502 
f 498 499 502 
f 499 497 502 
f 497 496 503 
f 494 495 504 
f 496 494 504 
f 495 503 504 
f 503 496 504 
f 500 497 505 
f 495 500 505 
f 503 495 505 
f 497 503 505 
f 498 493 506 
f 493 500 506 
f 500 498 506 
f 497 493 507 
f 493 502 507 
o convex_16
v -0.012155 0.022998 0.010715
v -0.024380 -0.001445 0.009086
v -0.008904 -0.001445 0.009086
v -0.008904 -0.001445 0.022937
v 0.001693 0.026257 0.009086
v 0.001693 0.012406 0.022937
v -0.010532 0.007520 0.022122
v 0.001693 0.010779 0.009086
v -0.021121 0.015663 0.009086
v -0.024380 0.007520 0.009900
v -0.003197 0.012406 0.022937
v -0.005642 0.026257 0.009900
v -0.010532 -0.001445 0.022937
v 0.001693 0.010779 0.022937
v -0.017043 0.020552 0.009900
v -0.021121 0.014033 0.010715
v -0.006456 0.010779 0.022937
v -0.008904 0.025441 0.009086
v 0.001693 0.019738 0.016418
v -0.017043 0.000185 0.017233
v -0.010532 0.005074 0.022937
f 517 527 528 
f 509 510 511 
f 510 509 512 
f 511 510 515 
f 510 512 515 
f 512 513 515 
f 512 509 516 
f 516 509 517 
f 511 513 518 
f 508 518 519 
f 509 511 520 
f 511 518 520 
f 513 511 521 
f 511 515 521 
f 515 513 521 
f 516 517 523 
f 514 522 523 
f 522 516 523 
f 518 508 524 
f 520 518 524 
f 522 514 524 
f 508 522 524 
f 512 516 525 
f 519 512 525 
f 508 519 525 
f 516 522 525 
f 522 508 525 
f 513 512 526 
f 518 513 526 
f 512 519 526 
f 519 518 526 
f 517 509 527 
f 509 520 527 
f 527 520 528 
f 514 523 528 
f 523 517 528 
f 524 514 528 
f 520 524 528 
o convex_17
v 0.019613 0.016479 0.010715
v 0.001693 0.010779 0.009086
v 0.009028 -0.001445 0.009086
v 0.001693 0.010779 0.022937
v 0.001693 0.026257 0.009086
v 0.024506 -0.001445 0.009086
v 0.010659 -0.000629 0.022937
v 0.006583 0.010779 0.022937
v 0.013910 0.022998 0.009086
v 0.024506 0.007520 0.009900
v 0.009028 -0.001445 0.022937
v 0.010659 0.007520 0.022122
v 0.005768 0.025441 0.010715
v 0.013910 0.022998 0.009900
v 0.003323 0.012406 0.022937
v 0.021246 0.015663 0.009086
v 0.020428 -0.001445 0.013975
v 0.001693 0.020552 0.015604
v 0.010659 0.004260 0.022937
f 535 545 547 
f 530 531 532 
f 531 530 533 
f 530 532 533 
f 531 533 534 
f 532 535 536 
f 534 533 537 
f 532 531 539 
f 531 534 539 
f 535 532 539 
f 529 536 540 
f 538 529 540 
f 537 533 541 
f 537 541 542 
f 536 529 542 
f 536 542 543 
f 532 536 543 
f 542 541 543 
f 534 537 544 
f 538 534 544 
f 529 538 544 
f 537 542 544 
f 542 529 544 
f 534 538 545 
f 539 534 545 
f 535 539 545 
f 533 532 546 
f 541 533 546 
f 532 543 546 
f 543 541 546 
f 536 535 547 
f 540 536 547 
f 538 540 547 
f 545 538 547 
o convex_18
v 0.045690 0.001001 0.009086
v 0.049764 0.014849 0.016421
v 0.049764 0.014849 0.015606
v 0.032657 0.014849 0.009086
v 0.031024 -0.001443 0.024566
v 0.035917 0.014849 0.024566
v 0.041614 -0.001443 0.024566
v 0.031024 -0.001443 0.009086
v 0.048131 0.014849 0.009086
v 0.044059 0.014849 0.023751
v 0.049764 0.005889 0.012347
v 0.040801 -0.001443 0.009086
v 0.048131 0.009961 0.019676
v 0.049764 0.005889 0.009086
v 0.031024 0.000186 0.024566
v 0.049764 0.009146 0.016421
v 0.044059 -0.000629 0.012347
f 554 559 564 
f 549 550 551 
f 549 551 553 
f 553 552 554 
f 551 548 555 
f 554 552 555 
f 551 550 556 
f 548 551 556 
f 549 553 557 
f 553 554 557 
f 550 549 558 
f 555 548 559 
f 554 555 559 
f 549 557 560 
f 557 554 560 
f 548 556 561 
f 556 550 561 
f 550 558 561 
f 558 548 561 
f 552 553 562 
f 553 551 562 
f 551 555 562 
f 555 552 562 
f 558 549 563 
f 554 558 563 
f 549 560 563 
f 560 554 563 
f 558 554 564 
f 548 558 564 
f 559 548 564 
o convex_19
v 0.048132 0.014850 0.009086
v 0.034285 0.035220 0.024566
v 0.034285 0.035220 0.011531
v 0.032657 0.014850 0.009901
v 0.039983 0.014850 0.024566
v 0.049764 0.019739 0.014791
v 0.030212 0.033589 0.024566
v 0.028580 0.035220 0.009086
v 0.048132 0.023817 0.009086
v 0.035914 0.014850 0.024566
v 0.048132 0.014850 0.019676
v 0.047319 0.018110 0.020492
v 0.044060 0.015668 0.023751
v 0.032657 0.014850 0.009086
v 0.048132 0.022999 0.014791
v 0.033470 0.035220 0.009086
v 0.028580 0.033589 0.009901
v 0.030212 0.035220 0.024566
v 0.049764 0.018926 0.009086
v 0.049764 0.014850 0.016421
v 0.035102 0.014850 0.022120
f 574 571 585 
f 568 565 569 
f 569 566 571 
f 566 567 572 
f 567 566 573 
f 565 572 573 
f 568 569 574 
f 569 571 574 
f 569 565 575 
f 566 569 577 
f 569 575 577 
f 575 576 577 
f 576 566 577 
f 565 568 578 
f 572 565 578 
f 573 566 579 
f 570 573 579 
f 576 570 579 
f 566 576 579 
f 572 567 580 
f 567 573 580 
f 573 572 580 
f 568 571 581 
f 578 568 581 
f 572 578 581 
f 571 566 582 
f 566 572 582 
f 581 571 582 
f 572 581 582 
f 573 570 583 
f 565 573 583 
f 575 565 584 
f 570 576 584 
f 576 575 584 
f 583 570 584 
f 565 583 584 
f 571 568 585 
f 568 574 585 
o convex_20
v 0.031837 0.013220 0.049009
v 0.018803 -0.014481 0.036789
v 0.018803 -0.014481 0.049824
v 0.040802 -0.014481 0.035158
v 0.018803 0.021369 0.040862
v 0.036725 0.021369 0.035158
v 0.018803 0.021369 0.049824
v 0.028583 -0.005519 0.049824
v 0.020433 -0.013664 0.035158
v 0.029395 0.021369 0.049824
v 0.030209 0.021369 0.035158
v 0.040802 0.004258 0.035974
v 0.039985 -0.012850 0.037603
v 0.022879 -0.014481 0.049824
v 0.034281 0.020551 0.043305
v 0.031021 0.003444 0.049824
v 0.035097 -0.014481 0.041677
v 0.035911 0.021369 0.039232
f 600 597 603 
f 588 587 589 
f 587 588 590 
f 590 588 592 
f 591 590 592 
f 592 588 593 
f 589 587 594 
f 587 590 594 
f 591 589 594 
f 591 592 595 
f 592 593 595 
f 590 591 596 
f 594 590 596 
f 591 594 596 
f 589 591 597 
f 597 586 598 
f 589 597 598 
f 588 589 599 
f 593 588 599 
f 595 586 600 
f 586 597 600 
f 586 595 601 
f 595 593 601 
f 598 586 601 
f 598 601 602 
f 589 598 602 
f 599 589 602 
f 593 599 602 
f 601 593 602 
f 591 595 603 
f 597 591 603 
f 595 600 603 
o convex_21
v -0.004826 0.057218 0.015606
v -0.023564 0.046626 0.009086
v -0.024378 0.046626 0.011531
v 0.000878 0.049886 0.024566
v 0.000878 0.050702 0.009086
v -0.024378 0.048257 0.024566
v 0.000878 0.057218 0.024566
v -0.011347 0.054774 0.009086
v -0.013787 0.054774 0.024566
v 0.000878 0.056403 0.009086
v -0.017860 0.046626 0.024566
v -0.017860 0.046626 0.009086
v -0.021119 0.050702 0.014791
v -0.012158 0.055588 0.017231
v -0.025195 0.046626 0.024566
v -0.005643 0.057218 0.022934
v -0.018674 0.051517 0.009901
v -0.025195 0.047441 0.014791
v -0.020305 0.051517 0.022934
f 616 621 622 
f 609 607 610 
f 607 608 610 
f 608 605 611 
f 609 610 612 
f 604 610 613 
f 610 608 613 
f 611 604 613 
f 608 611 613 
f 606 605 614 
f 607 609 614 
f 608 607 615 
f 605 608 615 
f 614 605 615 
f 607 614 615 
f 604 611 617 
f 606 614 618 
f 614 609 618 
f 610 604 619 
f 612 610 619 
f 617 612 619 
f 604 617 619 
f 611 605 620 
f 616 617 620 
f 617 611 620 
f 605 606 621 
f 606 618 621 
f 618 609 621 
f 620 605 621 
f 616 620 621 
f 609 612 622 
f 612 617 622 
f 617 616 622 
f 621 609 622 
o convex_22
v 0.021247 0.045812 0.009086
v 0.034283 0.036035 0.020492
v 0.034283 0.035220 0.020492
v 0.022063 0.045812 0.024566
v 0.027765 0.035220 0.009086
v 0.027765 0.044181 0.011531
v 0.029395 0.035220 0.024566
v 0.026952 0.045812 0.024566
v 0.032653 0.036851 0.009086
v 0.033468 0.036851 0.024566
v 0.025322 0.045812 0.009086
v 0.022063 0.044997 0.024566
v 0.031023 0.040921 0.015606
v 0.033468 0.035220 0.009901
v 0.021247 0.044997 0.010718
f 627 634 637 
f 627 625 629 
f 623 626 630 
f 626 629 630 
f 627 623 631 
f 625 624 632 
f 629 625 632 
f 630 629 632 
f 623 630 633 
f 630 628 633 
f 631 623 633 
f 628 631 633 
f 629 626 634 
f 627 629 634 
f 628 630 635 
f 624 631 635 
f 631 628 635 
f 632 624 635 
f 630 632 635 
f 624 625 636 
f 625 627 636 
f 631 624 636 
f 627 631 636 
f 626 623 637 
f 623 627 637 
f 634 626 637 
o convex_23
v 0.024504 0.048258 0.018047
v 0.000878 0.050701 0.009086
v 0.000878 0.056402 0.009086
v 0.000878 0.049886 0.024566
v 0.009027 0.056402 0.024566
v 0.024504 0.045814 0.009086
v 0.026136 0.045814 0.024566
v 0.013910 0.053959 0.009901
v 0.000878 0.057216 0.024566
v 0.019614 0.045814 0.009086
v 0.018803 0.052329 0.023751
v 0.019614 0.045814 0.024566
v 0.004952 0.057216 0.015606
v 0.019614 0.050701 0.009086
v 0.001694 0.049886 0.009086
v 0.012288 0.055587 0.018047
v 0.018803 0.052329 0.016421
v 0.008211 0.055587 0.009086
v 0.026136 0.046628 0.015606
f 643 651 656 
f 640 639 641 
f 639 640 643 
f 642 641 644 
f 640 641 646 
f 641 642 646 
f 639 643 647 
f 643 644 647 
f 644 638 648 
f 642 644 648 
f 644 641 649 
f 641 647 649 
f 647 644 649 
f 640 646 650 
f 646 642 650 
f 643 640 651 
f 641 639 652 
f 639 647 652 
f 647 641 652 
f 642 648 653 
f 650 642 653 
f 648 638 654 
f 638 651 654 
f 651 645 654 
f 653 648 654 
f 645 653 654 
f 640 650 655 
f 651 640 655 
f 645 651 655 
f 650 653 655 
f 653 645 655 
f 644 643 656 
f 638 644 656 
f 651 638 656 
o convex_24
v -0.030901 0.014036 0.036788
v -0.043118 -0.005515 0.031084
v -0.042303 -0.006333 0.026198
v -0.020308 -0.014481 0.036788
v -0.035785 0.014036 0.024566
v -0.024383 -0.014481 0.024566
v -0.040672 -0.014481 0.036788
v -0.038227 0.012405 0.036788
v -0.039042 -0.014481 0.024566
v -0.040672 0.014036 0.024566
v -0.042303 0.000997 0.034341
v -0.020308 -0.012851 0.035971
v -0.030086 0.012405 0.035971
v -0.024383 -0.013666 0.024566
v -0.039857 0.014036 0.030270
v -0.042303 0.005887 0.026198
v -0.041488 -0.013666 0.033528
v -0.041488 -0.007961 0.024566
v -0.040672 0.000997 0.036788
f 664 667 675 
f 660 657 663 
f 662 660 663 
f 663 657 664 
f 661 662 665 
f 662 663 665 
f 657 661 666 
f 661 665 666 
f 658 663 667 
f 657 660 668 
f 660 662 668 
f 661 657 669 
f 657 668 669 
f 661 669 670 
f 662 661 670 
f 668 662 670 
f 669 668 670 
f 664 657 671 
f 657 666 671 
f 667 664 671 
f 666 667 671 
f 659 658 672 
f 658 667 672 
f 667 666 672 
f 658 659 673 
f 663 658 673 
f 665 663 673 
f 665 673 674 
f 666 665 674 
f 659 672 674 
f 672 666 674 
f 673 659 674 
f 663 664 675 
f 667 663 675 
o convex_25
v -0.024383 -0.012851 0.049824
v -0.039861 -0.014481 0.036788
v -0.039861 -0.014481 0.037603
v -0.037416 0.014036 0.036788
v -0.012973 -0.014481 0.038420
v -0.012973 0.014036 0.049824
v -0.030894 0.014036 0.049824
v -0.012973 -0.014481 0.049824
v -0.012973 0.014036 0.044120
v -0.030083 0.014036 0.036788
v -0.018682 -0.014481 0.036788
v -0.030894 0.002627 0.049824
v -0.039861 0.002627 0.037603
v -0.034152 -0.014481 0.042492
v -0.029267 -0.003888 0.049824
v -0.032526 0.009145 0.048192
v -0.033341 0.014036 0.046565
v -0.022751 -0.014481 0.049824
v -0.012973 -0.013666 0.038420
f 686 685 694 
f 678 677 680 
f 676 681 682 
f 681 679 682 
f 678 680 683 
f 681 676 683 
f 680 681 683 
f 679 681 684 
f 681 680 684 
f 677 679 685 
f 679 684 685 
f 680 677 686 
f 677 685 686 
f 676 682 687 
f 677 678 688 
f 679 677 688 
f 678 683 689 
f 676 687 690 
f 687 678 690 
f 689 676 690 
f 678 689 690 
f 678 687 691 
f 687 682 691 
f 688 678 691 
f 688 691 692 
f 682 679 692 
f 679 688 692 
f 691 682 692 
f 683 676 693 
f 676 689 693 
f 689 683 693 
f 684 680 694 
f 685 684 694 
f 680 686 694 
o convex_26
v -0.035785 0.032771 0.024566
v -0.026824 0.027892 0.049824
v -0.027640 0.027892 0.049824
v -0.035785 0.014036 0.024566
v -0.026824 0.044997 0.024566
v -0.026824 0.014036 0.039230
v -0.036600 0.014036 0.040046
v -0.032528 0.034405 0.036792
v -0.026824 0.014036 0.049824
v -0.039861 0.018927 0.025382
v -0.027640 0.042548 0.034345
v -0.036600 0.024631 0.035976
v -0.026824 0.039290 0.024566
v -0.031713 0.014851 0.049008
v -0.039861 0.014036 0.024566
v -0.033343 0.026261 0.042489
v -0.027640 0.036847 0.043304
v -0.031713 0.039290 0.028643
v -0.039861 0.014851 0.029459
v -0.036600 0.029516 0.029459
v -0.026824 0.039290 0.040046
v -0.034157 0.021370 0.043304
v -0.030083 0.020555 0.049824
v -0.030083 0.031959 0.044120
v -0.027640 0.044997 0.024566
f 712 705 719 
f 698 695 699 
f 699 696 700 
f 698 700 701 
f 696 697 703 
f 700 696 703 
f 701 700 703 
f 698 699 707 
f 699 700 707 
f 700 698 707 
f 701 703 708 
f 695 698 709 
f 698 701 709 
f 704 695 709 
f 702 706 710 
f 697 696 711 
f 705 702 711 
f 702 705 712 
f 701 706 713 
f 706 704 713 
f 709 701 713 
f 704 709 713 
f 695 704 714 
f 706 702 714 
f 704 706 714 
f 712 695 714 
f 702 712 714 
f 696 699 715 
f 699 705 715 
f 711 696 715 
f 705 711 715 
f 706 701 716 
f 701 708 716 
f 710 706 716 
f 710 716 717 
f 703 697 717 
f 708 703 717 
f 697 710 717 
f 716 708 717 
f 710 697 718 
f 702 710 718 
f 697 711 718 
f 711 702 718 
f 699 695 719 
f 705 699 719 
f 695 712 719 
o convex_27
v -0.021120 0.050699 0.025382
v -0.012973 0.043361 0.049824
v -0.013788 0.043361 0.049824
v -0.026824 0.014036 0.040046
v -0.012973 0.014853 0.043304
v -0.026824 0.029524 0.049824
v -0.012973 0.047441 0.024566
v -0.026824 0.040103 0.024566
v -0.012973 0.014036 0.049824
v -0.026824 0.040921 0.039230
v -0.026824 0.014036 0.049824
v -0.013788 0.053953 0.030270
v -0.019492 0.045806 0.042489
v -0.012973 0.054774 0.024566
v -0.026824 0.045806 0.024566
v -0.023565 0.035218 0.049824
v -0.022750 0.048250 0.031902
v -0.013788 0.051512 0.037598
v -0.013788 0.014036 0.043304
v -0.026010 0.040103 0.024566
v -0.025193 0.014036 0.040046
v -0.018677 0.044179 0.045747
v -0.012973 0.049064 0.042489
v -0.025193 0.039290 0.044120
f 735 741 743 
f 721 722 725 
f 721 724 726 
f 723 725 727 
f 724 721 728 
f 721 725 728 
f 727 725 729 
f 725 723 730 
f 723 728 730 
f 728 725 730 
f 721 726 733 
f 726 727 733 
f 720 731 733 
f 727 729 734 
f 733 727 734 
f 720 733 734 
f 725 722 735 
f 731 720 736 
f 729 732 736 
f 720 734 736 
f 734 729 736 
f 731 736 737 
f 736 732 737 
f 726 724 738 
f 728 723 738 
f 724 728 738 
f 727 726 739 
f 723 727 739 
f 726 738 739 
f 739 738 740 
f 738 723 740 
f 723 739 740 
f 735 722 741 
f 722 721 742 
f 721 733 742 
f 733 731 742 
f 737 732 742 
f 731 737 742 
f 732 741 742 
f 741 722 742 
f 729 725 743 
f 732 729 743 
f 725 735 743 
f 741 732 743 
o convex_28
v 0.003324 0.054769 0.035976
v -0.012970 0.021369 0.042489
v -0.012970 0.021369 0.049824
v 0.020429 0.021369 0.049824
v 0.020429 0.045810 0.024566
v -0.012970 0.054769 0.024566
v -0.012970 0.044178 0.049824
v 0.017984 0.040918 0.049824
v 0.020429 0.021369 0.040857
v -0.012970 0.047438 0.024566
v 0.015538 0.053958 0.024566
v 0.020429 0.048256 0.035976
v 0.005763 0.049067 0.046561
v -0.008079 0.052327 0.040046
v -0.002377 0.057218 0.026198
v 0.013910 0.050698 0.039230
v 0.020429 0.038479 0.049824
v -0.004823 0.046624 0.049824
v -0.012970 0.053141 0.034345
v 0.010651 0.055587 0.027827
v 0.020429 0.050698 0.024566
v 0.010651 0.044996 0.049824
v 0.003324 0.057218 0.024566
v -0.012970 0.022186 0.041673
v -0.005637 0.055587 0.032718
v -0.001563 0.051509 0.043304
v 0.020429 0.043364 0.044931
v 0.017984 0.021369 0.040857
v 0.018798 0.050698 0.032718
v 0.013910 0.045810 0.047376
v 0.010651 0.053958 0.034345
v -0.012970 0.047438 0.045747
v -0.010525 0.055587 0.027827
v 0.005763 0.053141 0.039230
v 0.003324 0.056401 0.030270
f 774 763 778 
f 746 745 747 
f 745 746 749 
f 749 746 750 
f 746 747 750 
f 750 747 751 
f 747 745 752 
f 748 747 752 
f 745 749 753 
f 749 748 753 
f 748 749 754 
f 747 748 755 
f 751 747 760 
f 747 755 760 
f 750 751 761 
f 749 750 762 
f 748 754 764 
f 755 748 764 
f 761 751 765 
f 756 761 765 
f 754 749 766 
f 749 758 766 
f 763 754 766 
f 745 753 767 
f 762 757 768 
f 761 756 769 
f 757 761 769 
f 744 768 769 
f 768 757 769 
f 755 759 770 
f 751 760 770 
f 760 755 770 
f 752 745 771 
f 748 752 771 
f 753 748 771 
f 745 767 771 
f 767 753 771 
f 759 755 772 
f 754 763 772 
f 764 754 772 
f 755 764 772 
f 759 756 773 
f 765 751 773 
f 756 765 773 
f 770 759 773 
f 751 770 773 
f 759 772 774 
f 772 763 774 
f 750 761 775 
f 761 757 775 
f 762 750 775 
f 757 762 775 
f 758 749 776 
f 749 762 776 
f 768 758 776 
f 762 768 776 
f 756 759 777 
f 744 769 777 
f 769 756 777 
f 774 744 777 
f 759 774 777 
f 766 758 778 
f 763 766 778 
f 768 744 778 
f 758 768 778 
f 744 774 778 
o convex_29
v 0.034280 0.035225 0.024566
v 0.021250 0.037662 0.049824
v 0.020432 0.037662 0.049824
v 0.029395 0.021369 0.049824
v 0.020432 0.021369 0.040857
v 0.020432 0.049885 0.024566
v 0.035098 0.021369 0.024566
v 0.031838 0.034410 0.038414
v 0.038356 0.022184 0.031088
v 0.024508 0.045810 0.034345
v 0.020432 0.021369 0.049824
v 0.020432 0.044992 0.024566
v 0.031838 0.027889 0.044120
v 0.021250 0.045810 0.040046
v 0.026953 0.045810 0.025382
v 0.039172 0.021369 0.024566
v 0.025325 0.036844 0.046561
v 0.032651 0.036029 0.033534
v 0.035911 0.021369 0.039230
v 0.035911 0.029517 0.032718
v 0.027766 0.041737 0.035976
v 0.026953 0.029517 0.049824
v 0.020432 0.049885 0.029459
v 0.036727 0.030335 0.026198
v 0.034280 0.022184 0.024566
v 0.030209 0.040922 0.030270
v 0.034280 0.027077 0.040046
v 0.020432 0.022184 0.040046
f 790 803 806 
f 780 781 782 
f 783 781 784 
f 784 779 785 
f 782 783 785 
f 782 781 789 
f 783 782 789 
f 781 783 789 
f 783 784 790 
f 784 785 790 
f 781 780 792 
f 779 784 793 
f 785 779 794 
f 782 785 794 
f 791 786 795 
f 792 780 795 
f 791 782 797 
f 782 794 797 
f 794 787 797 
f 796 786 798 
f 788 792 799 
f 795 786 799 
f 792 795 799 
f 786 796 799 
f 780 782 800 
f 782 791 800 
f 795 780 800 
f 791 795 800 
f 784 781 801 
f 781 792 801 
f 792 788 801 
f 793 784 801 
f 788 793 801 
f 794 779 802 
f 787 794 802 
f 779 796 802 
f 798 787 802 
f 796 798 802 
f 785 783 803 
f 790 785 803 
f 779 793 804 
f 793 788 804 
f 796 779 804 
f 788 799 804 
f 799 796 804 
f 786 791 805 
f 797 787 805 
f 791 797 805 
f 798 786 805 
f 787 798 805 
f 783 790 806 
f 803 783 806 
o convex_30
v 0.018803 -0.006334 0.049824
v -0.012158 -0.014481 0.037603
v -0.012973 -0.014481 0.038418
v 0.018803 -0.014481 0.049824
v -0.012973 -0.006334 0.049824
v 0.018803 -0.006334 0.042492
v 0.018803 -0.014481 0.037603
v -0.012973 -0.014481 0.049824
v -0.012973 -0.006334 0.043307
v -0.012158 -0.013666 0.037603
v 0.018803 -0.013666 0.037603
f 816 812 817 
f 809 808 810 
f 810 807 811 
f 807 810 812 
f 811 807 812 
f 810 808 813 
f 812 810 813 
f 809 810 814 
f 810 811 814 
f 811 809 814 
f 809 811 815 
f 811 812 815 
f 815 812 816 
f 808 809 816 
f 813 808 816 
f 809 815 816 
f 813 816 817 
f 812 813 817 
o convex_31
v -0.012973 0.018923 0.042492
v 0.018803 0.021369 0.049823
v 0.018803 -0.006334 0.049823
v 0.018803 0.021369 0.041677
v -0.012973 0.021369 0.049823
v -0.012973 -0.006334 0.044121
v 0.018803 -0.006334 0.043307
v -0.012973 -0.006334 0.049823
v -0.012973 0.021369 0.042492
v 0.017988 0.018109 0.041677
v 0.015543 -0.006334 0.043307
f 827 824 828 
f 819 820 821 
f 820 819 822 
f 819 821 822 
f 822 818 823 
f 821 820 824 
f 820 823 824 
f 820 822 825 
f 823 820 825 
f 822 823 825 
f 818 822 826 
f 822 821 826 
f 821 824 827 
f 818 826 827 
f 826 821 827 
f 823 818 828 
f 824 823 828 
f 818 827 828 
o convex_32
v 0.043246 -0.000627 0.031899
v 0.021247 -0.014481 0.034343
v 0.021247 -0.014481 0.035158
v 0.031028 0.021369 0.034343
v 0.024507 -0.013664 0.024566
v 0.039170 0.021369 0.024566
v 0.039170 -0.014481 0.024566
v 0.040798 -0.014481 0.035158
v 0.037542 0.020551 0.035158
v 0.035095 0.021369 0.024566
v 0.041616 -0.007961 0.024566
v 0.041616 0.009143 0.024566
v 0.041616 0.001815 0.035158
v 0.031028 0.021369 0.035158
v 0.039170 0.021369 0.027827
v 0.043246 -0.003073 0.029457
v 0.024507 -0.014481 0.024566
v 0.041616 -0.012850 0.035158
v 0.021247 -0.013664 0.034343
f 842 832 847 
f 833 834 835 
f 831 830 835 
f 831 835 836 
f 831 836 837 
f 833 832 838 
f 832 834 838 
f 834 833 838 
f 835 834 839 
f 839 834 840 
f 829 837 841 
f 837 836 841 
f 834 832 842 
f 831 837 842 
f 842 837 843 
f 837 829 843 
f 829 840 843 
f 840 834 843 
f 834 842 843 
f 840 829 844 
f 839 840 844 
f 830 833 845 
f 833 835 845 
f 835 830 845 
f 836 835 846 
f 835 839 846 
f 829 841 846 
f 841 836 846 
f 844 829 846 
f 839 844 846 
f 830 831 847 
f 832 833 847 
f 833 830 847 
f 831 842 847 
