o convex_0
v 0.001721 -0.070625 0.004289
v -0.036363 -0.036341 -0.017284
v -0.036363 -0.036341 -0.016012
v 0.027110 0.004278 0.014445
v 0.027744 -0.033174 -0.022364
v -0.024936 0.004271 0.016347
v -0.023662 0.004271 -0.020458
v -0.007159 -0.065537 0.015713
v 0.018858 0.004278 -0.020458
v 0.019492 -0.057926 0.009369
v -0.026838 -0.055390 0.004927
v -0.024936 -0.058557 -0.010302
v 0.020126 -0.059833 -0.010302
v -0.027471 -0.028093 -0.022994
v 0.027110 -0.001441 0.016351
v 0.004262 -0.066175 0.016347
v 0.025842 -0.047772 -0.017918
v 0.015683 -0.007160 -0.023632
v -0.034456 -0.018576 -0.019186
v -0.014143 -0.068081 -0.001421
v -0.027471 -0.042691 -0.019186
v 0.028384 -0.040146 -0.014744
v -0.019853 -0.060463 0.011271
v -0.033188 -0.039516 -0.002693
v -0.027471 0.004278 -0.013476
v -0.019853 -0.002079 -0.022994
v 0.013148 -0.063638 0.013811
v 0.025208 -0.043959 0.003021
v -0.027471 0.003002 0.008101
v 0.012508 -0.067443 -0.001421
v 0.027744 -0.026194 -0.019824
v -0.028112 -0.054114 -0.013476
v 0.024568 -0.024933 -0.023632
v -0.035089 -0.027462 -0.009030
v -0.007799 -0.069350 0.011271
v -0.035089 -0.024925 -0.021726
v -0.022395 -0.010965 -0.023632
v -0.024936 -0.000803 0.016347
v -0.020493 -0.063638 0.006829
v -0.031280 -0.051570 -0.007762
v -0.019220 -0.036341 -0.021726
v 0.025842 -0.050301 -0.012208
v 0.015049 -0.049671 -0.017284
v 0.026476 0.004278 0.008735
v 0.005530 -0.069988 0.008735
v 0.001087 -0.066813 -0.003957
v 0.020126 -0.042053 -0.020458
v 0.016957 -0.063000 0.008097
v -0.014143 -0.063631 0.013811
v -0.034456 -0.035711 -0.020458
v 0.027110 0.004278 0.016351
v 0.020766 0.004271 -0.015378
v -0.031280 -0.014140 -0.022360
v -0.035723 -0.023657 -0.015378
v -0.015411 -0.061101 -0.009034
v -0.028745 -0.050939 0.003655
v 0.028384 -0.028731 -0.018552
v 0.015049 0.004278 -0.021092
v -0.024296 -0.056651 0.008097
v 0.008705 -0.064899 0.015713
v -0.026204 -0.058564 -0.009668
v -0.032554 -0.048402 -0.014744
v -0.000821 -0.066813 0.016351
v 0.020766 -0.057919 0.004927
f 48 13 64 
f 17 5 22 
f 4 9 25 
f 10 15 27 
f 15 10 28 
f 22 15 28 
f 6 25 29 
f 25 19 29 
f 5 14 33 
f 18 9 33 
f 9 31 33 
f 31 5 33 
f 3 24 34 
f 24 6 34 
f 6 29 34 
f 20 1 35 
f 26 18 37 
f 33 14 37 
f 18 33 37 
f 6 24 38 
f 20 35 39 
f 24 3 40 
f 39 11 40 
f 14 5 41 
f 13 17 42 
f 17 22 42 
f 22 28 42 
f 17 13 43 
f 32 21 43 
f 9 4 44 
f 1 30 45 
f 35 1 45 
f 1 20 46 
f 13 30 46 
f 30 1 46 
f 5 17 47 
f 41 5 47 
f 21 41 47 
f 17 43 47 
f 43 21 47 
f 10 27 48 
f 30 13 48 
f 27 45 48 
f 45 30 48 
f 35 8 49 
f 8 38 49 
f 38 23 49 
f 23 39 49 
f 39 35 49 
f 21 32 50 
f 2 36 50 
f 36 14 50 
f 14 41 50 
f 41 21 50 
f 15 22 51 
f 4 25 51 
f 25 6 51 
f 31 9 52 
f 9 44 52 
f 44 31 52 
f 25 7 53 
f 19 25 53 
f 7 26 53 
f 36 19 53 
f 14 36 53 
f 26 37 53 
f 37 14 53 
f 2 3 54 
f 29 19 54 
f 3 34 54 
f 34 29 54 
f 36 2 54 
f 19 36 54 
f 20 12 55 
f 12 32 55 
f 43 13 55 
f 32 43 55 
f 13 46 55 
f 46 20 55 
f 38 24 56 
f 24 40 56 
f 40 11 56 
f 22 5 57 
f 5 31 57 
f 44 4 57 
f 31 44 57 
f 4 51 57 
f 51 22 57 
f 9 18 58 
f 25 9 58 
f 7 25 58 
f 26 7 58 
f 18 26 58 
f 23 38 59 
f 11 39 59 
f 39 23 59 
f 56 11 59 
f 38 56 59 
f 15 16 60 
f 27 15 60 
f 16 45 60 
f 45 27 60 
f 12 20 61 
f 32 12 61 
f 20 39 61 
f 39 40 61 
f 61 40 62 
f 3 2 62 
f 40 3 62 
f 2 50 62 
f 50 32 62 
f 32 61 62 
f 16 15 63 
f 8 35 63 
f 6 38 63 
f 38 8 63 
f 45 16 63 
f 35 45 63 
f 51 6 63 
f 15 51 63 
f 28 10 64 
f 13 42 64 
f 42 28 64 
f 10 48 64 
o convex_1
v -0.011606 0.052514 -0.002054
v -0.027476 0.004278 -0.012841
v -0.027476 0.004278 -0.010944
v 0.005532 0.004278 -0.002689
v 0.005529 0.046800 -0.022366
v 0.003625 0.004278 -0.020461
v -0.024300 0.034745 -0.021731
v 0.005529 0.056325 -0.000784
v -0.026203 0.006824 -0.000784
v -0.007799 0.058866 -0.016018
v -0.018591 0.013171 -0.023001
v -0.020491 0.043632 -0.005231
v 0.005529 0.059503 -0.017921
v -0.019858 0.049341 -0.018554
v -0.023667 0.004278 -0.020461
v -0.019224 0.041724 -0.000784
v -0.014145 0.004278 -0.000784
v 0.005529 0.009365 -0.021096
v -0.024300 0.039821 -0.017288
v -0.005893 0.012533 -0.023001
v -0.024934 0.027772 -0.006497
v -0.014145 0.056319 -0.014748
v -0.003357 0.056325 -0.001421
v 0.005529 0.044897 -0.000784
v 0.002989 0.053790 -0.020461
v -0.020491 0.018247 -0.023001
v -0.010972 0.004916 -0.021731
v -0.026203 0.004278 -0.000784
v -0.016685 0.049341 -0.003959
v -0.020491 0.049341 -0.016018
v -0.017321 0.042994 -0.021094
v -0.004623 0.059503 -0.014748
v -0.021761 0.034107 -0.000784
v 0.005529 0.012538 -0.002054
v 0.005532 0.004278 -0.019824
v -0.010972 0.038551 -0.022364
v -0.027476 0.006824 -0.010944
v -0.011606 0.051249 -0.000784
v -0.026203 0.004278 -0.016653
v 0.005529 0.056957 -0.001421
v -0.024300 0.039183 -0.020461
v -0.010339 0.058228 -0.014113
v -0.005260 0.058228 -0.017288
v -0.023031 0.036015 -0.005864
v -0.009069 0.054422 -0.002054
v -0.004623 0.014435 -0.023001
v -0.024934 0.035377 -0.019189
v -0.008436 0.022058 -0.023001
v -0.015415 0.055055 -0.016653
v -0.024300 0.029042 -0.021731
v -0.023031 0.043632 -0.019824
v 0.002989 0.059503 -0.014748
v -0.022394 0.045535 -0.016653
v 0.000453 0.056963 -0.001421
v -0.018591 0.051881 -0.015381
v -0.012875 0.052514 -0.003324
f 109 86 120 
f 67 66 68 
f 68 66 70 
f 70 66 79 
f 73 72 80 
f 67 68 81 
f 72 73 81 
f 82 70 84 
f 68 72 88 
f 72 81 88 
f 77 69 89 
f 75 79 90 
f 84 75 90 
f 70 79 91 
f 79 75 91 
f 75 84 91 
f 84 70 91 
f 73 67 92 
f 67 81 92 
f 81 73 92 
f 76 80 93 
f 76 93 94 
f 89 69 95 
f 78 89 95 
f 77 74 96 
f 73 80 97 
f 80 76 97 
f 85 73 97 
f 81 68 98 
f 68 88 98 
f 88 81 98 
f 68 70 99 
f 77 68 99 
f 69 77 99 
f 82 69 99 
f 70 82 99 
f 69 90 100 
f 90 71 100 
f 95 69 100 
f 71 95 100 
f 66 67 101 
f 67 73 101 
f 73 85 101 
f 80 72 102 
f 72 87 102 
f 93 80 102 
f 66 71 103 
f 79 66 103 
f 72 68 104 
f 68 77 104 
f 74 86 106 
f 96 74 106 
f 87 96 106 
f 74 77 107 
f 77 89 107 
f 89 78 107 
f 83 85 108 
f 97 76 108 
f 85 97 108 
f 102 87 109 
f 65 102 109 
f 106 86 109 
f 87 106 109 
f 69 82 110 
f 82 84 110 
f 84 90 110 
f 71 66 111 
f 85 83 111 
f 66 101 111 
f 101 85 111 
f 105 71 111 
f 83 105 111 
f 90 69 112 
f 69 110 112 
f 110 90 112 
f 86 74 113 
f 74 107 113 
f 107 78 113 
f 71 90 114 
f 90 79 114 
f 103 71 114 
f 79 103 114 
f 94 78 115 
f 95 71 115 
f 78 95 115 
f 71 105 115 
f 105 83 115 
f 77 96 116 
f 104 77 116 
f 76 94 117 
f 108 76 117 
f 83 108 117 
f 115 83 117 
f 94 115 117 
f 87 72 118 
f 96 87 118 
f 72 104 118 
f 116 96 118 
f 104 116 118 
f 93 86 119 
f 94 93 119 
f 78 94 119 
f 86 113 119 
f 113 78 119 
f 86 93 120 
f 102 65 120 
f 93 102 120 
f 65 109 120 
o convex_2
v 0.027112 0.048070 -0.010945
v 0.005532 0.004278 -0.019827
v 0.005532 0.004278 -0.002689
v 0.005532 0.059503 -0.016017
v 0.028383 0.025863 -0.023001
v 0.022669 0.004278 0.001120
v 0.005532 0.055692 0.001120
v 0.027112 0.037280 0.001120
v 0.019495 0.054417 -0.021731
v 0.005532 0.047438 -0.022366
v 0.018861 0.008727 -0.023001
v 0.031558 0.036015 -0.014112
v 0.018861 0.052514 0.001120
v 0.029018 0.043632 -0.023001
v 0.009343 0.014435 -0.023636
v 0.020129 0.004278 -0.017922
v 0.014420 0.004278 0.001120
v 0.018229 0.056319 -0.009041
v 0.029652 0.025863 -0.019827
v 0.030921 0.031572 -0.010308
v 0.027112 0.044897 -0.002054
v 0.018229 0.056963 -0.020459
v 0.015055 0.037918 -0.023636
v 0.030286 0.044265 -0.019827
v 0.027112 0.024593 -0.023636
v 0.009977 0.056963 -0.002054
v 0.005532 0.058866 -0.018554
v 0.027112 0.030307 0.001120
v 0.030286 0.041724 -0.009675
v 0.005532 0.046800 0.001120
v 0.030921 0.032837 -0.020459
v 0.018229 0.004278 -0.021094
v 0.023938 0.048703 -0.000149
v 0.030286 0.027139 -0.011570
v 0.014420 0.057595 -0.008403
v 0.005532 0.008722 -0.021094
v 0.020766 0.004278 -0.016017
v 0.020129 0.055055 -0.008403
v 0.013783 0.008089 -0.023001
v 0.029652 0.037918 -0.005229
v 0.029018 0.046167 -0.020459
v 0.013149 0.053790 -0.021731
v 0.014420 0.050616 -0.022366
v 0.022669 0.015711 -0.023636
v 0.011246 0.058866 -0.018554
v 0.025209 0.045535 0.001120
v 0.029018 0.029674 -0.004594
v 0.029652 0.030939 -0.023001
v 0.016323 0.053790 0.001120
v 0.030921 0.039821 -0.020459
v 0.027746 0.023960 -0.023001
v 0.021401 0.037918 -0.023636
v 0.005532 0.056963 -0.001419
v 0.011246 0.058228 -0.008403
v 0.028383 0.046800 -0.012208
v 0.030286 0.027139 -0.017287
v 0.027746 0.046800 -0.022366
v 0.027746 0.041086 -0.000784
v 0.024575 0.048703 -0.001419
v 0.016958 0.057595 -0.017922
f 165 155 180 
f 122 123 124 
f 123 122 126 
f 124 123 127 
f 127 126 128 
f 122 124 130 
f 127 128 133 
f 126 122 136 
f 123 126 137 
f 126 127 137 
f 135 130 143 
f 135 143 145 
f 130 124 147 
f 128 126 148 
f 132 144 149 
f 127 123 150 
f 123 137 150 
f 137 127 150 
f 136 122 152 
f 140 126 154 
f 132 140 154 
f 122 130 156 
f 130 135 156 
f 126 136 157 
f 139 126 157 
f 138 133 158 
f 142 138 158 
f 152 122 159 
f 131 152 159 
f 122 156 159 
f 156 135 159 
f 140 132 160 
f 128 148 160 
f 132 149 160 
f 144 134 161 
f 142 129 162 
f 130 147 162 
f 147 142 162 
f 129 134 163 
f 143 130 163 
f 162 129 163 
f 130 162 163 
f 135 145 164 
f 152 131 164 
f 131 159 164 
f 159 135 164 
f 147 124 165 
f 142 147 165 
f 133 128 166 
f 153 133 166 
f 126 140 167 
f 148 126 167 
f 140 160 167 
f 160 148 167 
f 139 125 168 
f 125 145 168 
f 145 134 168 
f 151 139 168 
f 127 133 169 
f 133 138 169 
f 146 127 169 
f 138 155 169 
f 155 146 169 
f 144 132 170 
f 134 144 170 
f 132 151 170 
f 168 134 170 
f 151 168 170 
f 125 139 171 
f 145 125 171 
f 136 152 171 
f 157 136 171 
f 139 157 171 
f 164 145 171 
f 152 164 171 
f 134 145 172 
f 145 143 172 
f 163 134 172 
f 143 163 172 
f 124 127 173 
f 127 146 173 
f 173 146 174 
f 146 155 174 
f 165 124 174 
f 155 165 174 
f 124 173 174 
f 141 149 175 
f 149 144 175 
f 158 121 175 
f 142 158 175 
f 161 142 175 
f 144 161 175 
f 126 139 176 
f 139 151 176 
f 151 132 176 
f 154 126 176 
f 132 154 176 
f 134 129 177 
f 129 142 177 
f 142 161 177 
f 161 134 177 
f 149 141 178 
f 128 160 178 
f 160 149 178 
f 166 128 178 
f 141 166 178 
f 133 153 179 
f 158 133 179 
f 121 158 179 
f 166 141 179 
f 153 166 179 
f 141 175 179 
f 175 121 179 
f 138 142 180 
f 155 138 180 
f 142 165 180 
o convex_3
v -0.021127 0.030940 0.018261
v -0.003355 0.039191 0.032223
v -0.003991 0.039191 0.033493
v -0.009703 0.028399 0.029049
v -0.008435 0.037285 0.016355
v -0.014145 0.039191 0.028413
v -0.015415 0.028399 0.031587
v -0.011608 0.028399 0.016991
v -0.016682 0.039191 0.016355
v -0.021764 0.028399 0.016355
v -0.003991 0.039191 0.024608
v -0.008435 0.039191 0.034763
v -0.017954 0.036650 0.023973
v -0.018589 0.029034 0.027777
v -0.009071 0.028399 0.025244
v -0.006530 0.039191 0.018261
v -0.012244 0.028399 0.031587
v -0.011608 0.039191 0.032223
v -0.017318 0.039191 0.019530
v -0.003991 0.038556 0.024608
v -0.021127 0.029670 0.021435
v -0.012244 0.028399 0.016355
v -0.005896 0.038556 0.034763
v -0.003355 0.038556 0.032223
f 195 200 204 
f 183 182 186 
f 184 187 188 
f 186 182 189 
f 181 189 190 
f 188 187 190 
f 189 185 190 
f 189 182 191 
f 183 186 192 
f 190 187 194 
f 186 193 194 
f 184 188 195 
f 188 185 196 
f 185 189 196 
f 189 191 196 
f 184 183 197 
f 187 184 197 
f 192 186 198 
f 187 192 198 
f 186 194 198 
f 194 187 198 
f 186 189 199 
f 189 181 199 
f 181 193 199 
f 193 186 199 
f 191 182 200 
f 195 188 200 
f 188 196 200 
f 196 191 200 
f 181 190 201 
f 193 181 201 
f 190 194 201 
f 194 193 201 
f 185 188 202 
f 188 190 202 
f 190 185 202 
f 183 192 203 
f 192 187 203 
f 197 183 203 
f 187 197 203 
f 182 183 204 
f 183 184 204 
f 184 195 204 
f 200 182 204 
o convex_4
v -0.015413 0.042367 0.018896
v 0.007434 0.048076 0.045555
v 0.006164 0.048076 0.045555
v 0.005529 0.055058 0.016355
v -0.004625 0.039192 0.021437
v 0.007434 0.048711 0.016355
v -0.005257 0.044271 0.043648
v -0.005892 0.051884 0.021437
v 0.007434 0.043636 0.043014
v -0.009065 0.039192 0.035394
v -0.016048 0.039192 0.016355
v -0.006527 0.051884 0.016355
v 0.001721 0.051250 0.034759
v -0.016048 0.040463 0.023975
v -0.010970 0.046809 0.025881
v -0.002722 0.048076 0.040473
v 0.007434 0.053154 0.029051
v 0.007434 0.043636 0.036028
v -0.002722 0.039192 0.034125
v -0.001452 0.041732 0.043648
v -0.007797 0.039192 0.016355
v -0.001452 0.053788 0.021437
v 0.007434 0.054423 0.016355
v -0.016048 0.039192 0.024612
v -0.010335 0.048711 0.016355
v -0.005257 0.042367 0.043648
v 0.007434 0.045540 0.045555
v 0.002991 0.055058 0.017627
v 0.004259 0.052519 0.031586
v -0.005892 0.044904 0.041745
v -0.001452 0.045540 0.044917
v -0.002722 0.039192 0.027782
v -0.002722 0.053788 0.016355
v -0.002722 0.040463 0.040473
v -0.014143 0.043000 0.025247
v -0.008432 0.049346 0.024612
v -0.001452 0.051250 0.031586
v 0.005529 0.049980 0.040473
f 221 233 242 
f 210 206 213 
f 209 214 215 
f 208 210 215 
f 208 215 216 
f 205 215 218 
f 206 210 221 
f 209 210 222 
f 210 213 222 
f 222 213 223 
f 214 209 223 
f 210 209 225 
f 209 215 225 
f 215 210 225 
f 210 208 227 
f 221 210 227 
f 208 221 227 
f 215 214 228 
f 211 218 228 
f 218 215 228 
f 215 205 229 
f 212 216 229 
f 216 215 229 
f 205 219 229 
f 211 228 230 
f 228 214 230 
f 206 207 231 
f 213 206 231 
f 224 213 231 
f 230 224 231 
f 221 208 232 
f 232 226 233 
f 226 217 233 
f 221 232 233 
f 218 211 234 
f 211 220 234 
f 220 219 234 
f 207 220 235 
f 220 211 235 
f 211 230 235 
f 231 207 235 
f 230 231 235 
f 209 222 236 
f 222 223 236 
f 223 209 236 
f 208 216 237 
f 216 212 237 
f 212 226 237 
f 232 208 237 
f 226 232 237 
f 223 213 238 
f 214 223 238 
f 213 224 238 
f 224 230 238 
f 230 214 238 
f 205 218 239 
f 219 205 239 
f 218 234 239 
f 234 219 239 
f 220 212 240 
f 219 220 240 
f 212 229 240 
f 229 219 240 
f 220 217 241 
f 212 220 241 
f 226 212 241 
f 217 226 241 
f 207 206 242 
f 220 207 242 
f 217 220 242 
f 206 221 242 
f 233 217 242 
o convex_5
v 0.015055 0.039825 0.023339
v 0.029017 0.029671 0.022072
v 0.029017 0.028399 0.022072
v 0.019498 0.039825 0.037302
v 0.018228 0.028399 0.029049
v 0.025844 0.039825 0.016355
v 0.019498 0.028399 0.016355
v 0.023304 0.028399 0.031588
v 0.026478 0.039825 0.024608
v 0.017594 0.039825 0.016355
v 0.029017 0.028399 0.016355
v 0.016324 0.039190 0.036667
v 0.026478 0.029036 0.028414
v 0.017594 0.028399 0.023972
v 0.015055 0.039190 0.034126
v 0.028382 0.034747 0.016991
v 0.023940 0.039825 0.030952
v 0.028382 0.034112 0.023339
v 0.018228 0.029036 0.018260
v 0.020768 0.028399 0.031588
v 0.016324 0.038554 0.018260
v 0.015055 0.038554 0.023972
f 243 263 264 
f 243 246 248 
f 245 247 249 
f 247 245 250 
f 248 246 251 
f 243 248 252 
f 248 249 252 
f 244 245 253 
f 249 248 253 
f 245 249 253 
f 245 244 255 
f 250 245 255 
f 246 250 255 
f 249 247 256 
f 246 243 257 
f 254 246 257 
f 247 254 257 
f 256 247 257 
f 248 251 258 
f 244 253 258 
f 253 248 258 
f 251 246 259 
f 246 255 259 
f 259 255 260 
f 255 244 260 
f 244 258 260 
f 258 251 260 
f 251 259 260 
f 249 256 261 
f 250 246 262 
f 247 250 262 
f 246 254 262 
f 254 247 262 
f 243 252 263 
f 252 249 263 
f 249 261 263 
f 263 261 264 
f 257 243 264 
f 256 257 264 
f 261 256 264 
o convex_6
v 0.007436 0.050615 0.038569
v 0.026479 0.040463 0.020803
v 0.025844 0.041732 0.023342
v 0.011880 0.054424 0.016358
v 0.016326 0.039827 0.017627
v 0.016958 0.045539 0.046820
v 0.007436 0.043636 0.043011
v 0.007436 0.048711 0.016358
v 0.018859 0.039827 0.038569
v 0.018225 0.051885 0.016358
v 0.017590 0.047443 0.044281
v 0.025208 0.039827 0.016358
v 0.007436 0.054424 0.021436
v 0.007436 0.048077 0.045550
v 0.022669 0.046808 0.024611
v 0.014421 0.039827 0.034761
v 0.007436 0.043636 0.037300
v 0.013787 0.043636 0.046820
v 0.023939 0.039827 0.030322
v 0.013149 0.053788 0.020803
v 0.022669 0.047443 0.016358
v 0.013787 0.049346 0.041742
v 0.007436 0.054424 0.016358
v 0.018225 0.043000 0.044917
v 0.019495 0.045539 0.041742
v 0.009341 0.053154 0.028420
v 0.018225 0.051250 0.022072
v 0.016958 0.039827 0.016358
v 0.015056 0.039827 0.022072
v 0.007436 0.045539 0.027783
v 0.016958 0.039827 0.038569
v 0.007436 0.044905 0.045550
v 0.015690 0.046808 0.046820
v 0.025844 0.041097 0.025244
v 0.025208 0.043000 0.024611
v 0.016326 0.052519 0.021436
v 0.013149 0.048711 0.044281
f 278 297 301 
f 271 265 272 
f 272 268 274 
f 273 269 276 
f 272 274 276 
f 272 265 277 
f 265 271 278 
f 269 273 280 
f 271 272 281 
f 280 271 281 
f 276 266 283 
f 273 276 283 
f 268 277 284 
f 266 276 285 
f 276 274 285 
f 274 279 285 
f 268 272 287 
f 272 277 287 
f 277 268 287 
f 270 282 288 
f 282 273 288 
f 273 283 288 
f 288 283 289 
f 275 270 289 
f 279 275 289 
f 270 288 289 
f 277 265 290 
f 284 277 290 
f 265 286 290 
f 286 284 290 
f 279 274 291 
f 275 279 291 
f 269 272 292 
f 276 269 292 
f 272 276 292 
f 269 280 293 
f 280 281 293 
f 293 281 294 
f 272 269 294 
f 281 272 294 
f 269 293 294 
f 271 280 295 
f 280 273 295 
f 273 282 295 
f 282 271 295 
f 278 271 296 
f 271 282 296 
f 282 278 296 
f 270 275 297 
f 282 270 297 
f 278 282 297 
f 266 267 298 
f 283 266 298 
f 289 283 298 
f 289 298 299 
f 267 266 299 
f 266 285 299 
f 285 279 299 
f 279 289 299 
f 298 267 299 
f 274 268 300 
f 268 284 300 
f 286 275 300 
f 284 286 300 
f 291 274 300 
f 275 291 300 
f 265 278 301 
f 286 265 301 
f 275 286 301 
f 297 275 301 
o convex_7
v -0.009704 0.028399 0.025877
v -0.024936 0.004911 0.016355
v -0.024301 -0.002066 0.016355
v -0.023032 0.010622 0.025877
v -0.009704 -0.028093 0.016991
v -0.012244 0.028399 0.016355
v -0.010975 -0.017938 0.025877
v -0.021761 0.028399 0.020164
v -0.016052 -0.026187 0.016355
v -0.019222 0.028399 0.025877
v -0.009704 -0.000799 0.016355
v -0.021761 0.028399 0.016355
v -0.021761 0.004273 0.025877
v -0.009704 -0.017938 0.025877
v -0.024936 0.012528 0.016991
v -0.010339 0.028399 0.020164
v -0.014148 -0.029365 0.016991
v -0.023032 0.015700 0.025877
v -0.013514 -0.018571 0.023971
v -0.016052 -0.026187 0.016991
v -0.023665 -0.002699 0.018261
v -0.009704 -0.028093 0.016355
v -0.024936 0.007450 0.018896
v -0.023665 0.021416 0.017625
v -0.009704 0.028399 0.022701
v -0.009704 -0.024921 0.020799
v -0.019222 -0.002066 0.025877
f 314 321 328 
f 304 303 307 
f 302 305 308 
f 302 307 309 
f 304 307 310 
f 305 302 311 
f 302 309 311 
f 302 306 312 
f 310 307 312 
f 307 303 313 
f 309 307 313 
f 308 305 314 
f 306 302 315 
f 302 308 315 
f 313 303 316 
f 307 302 317 
f 312 307 317 
f 305 311 319 
f 311 309 319 
f 318 308 320 
f 318 320 321 
f 304 310 321 
f 310 318 321 
f 321 314 322 
f 314 305 322 
f 304 321 322 
f 312 306 323 
f 310 312 323 
f 306 318 323 
f 318 310 323 
f 303 304 324 
f 316 303 324 
f 305 319 324 
f 319 316 324 
f 304 322 324 
f 322 305 324 
f 309 313 325 
f 313 316 325 
f 319 309 325 
f 316 319 325 
f 302 312 326 
f 317 302 326 
f 312 317 326 
f 306 315 327 
f 315 308 327 
f 318 306 327 
f 308 318 327 
f 308 314 328 
f 320 308 328 
f 321 320 328 
o convex_8
v -0.018588 -0.002704 0.025877
v -0.009704 0.009988 0.049363
v -0.009704 0.012528 0.048092
v -0.009704 -0.012225 0.025877
v -0.009704 0.028399 0.025877
v -0.021762 0.020144 0.026513
v -0.016684 0.006809 0.044919
v -0.017954 0.028399 0.029051
v -0.012243 -0.016035 0.026513
v -0.023032 0.011258 0.025877
v -0.009704 -0.001434 0.044285
v -0.017318 0.010623 0.043650
v -0.014782 0.028399 0.032229
v -0.016052 0.001107 0.041742
v -0.019223 0.028399 0.025877
v -0.015417 0.011258 0.046188
v -0.020493 0.016973 0.034132
v -0.010974 0.028399 0.030957
v -0.012878 -0.000164 0.044285
v -0.021762 0.005556 0.026513
v -0.014782 0.006809 0.047455
v -0.009704 -0.012225 0.030957
v -0.015417 -0.004609 0.036036
v -0.021762 0.009988 0.030957
v -0.016052 0.016338 0.041742
v -0.009704 0.028399 0.029051
v -0.010339 0.008083 0.049363
v -0.019223 0.018874 0.035401
v -0.010974 -0.016035 0.025877
v -0.023032 0.014433 0.026513
v -0.014782 -0.010955 0.027148
v -0.020493 0.001742 0.026513
v -0.010339 0.012528 0.048092
v -0.015417 0.000472 0.042377
f 342 351 362 
f 331 330 332 
f 332 329 333 
f 331 332 333 
f 333 329 338 
f 332 330 339 
f 333 336 341 
f 336 333 343 
f 333 338 343 
f 340 335 344 
f 336 343 345 
f 343 334 345 
f 341 331 346 
f 333 341 346 
f 337 339 347 
f 338 329 348 
f 330 344 349 
f 344 335 349 
f 332 339 350 
f 339 337 350 
f 335 340 352 
f 342 335 352 
f 340 345 352 
f 338 348 352 
f 348 342 352 
f 341 336 353 
f 331 333 354 
f 346 331 354 
f 333 346 354 
f 339 330 355 
f 347 339 355 
f 330 349 355 
f 349 347 355 
f 340 344 356 
f 345 340 356 
f 336 345 356 
f 353 336 356 
f 344 353 356 
f 329 332 357 
f 337 329 357 
f 332 350 357 
f 350 337 357 
f 334 343 358 
f 343 338 358 
f 345 334 358 
f 338 352 358 
f 352 345 358 
f 329 337 359 
f 337 351 359 
f 359 351 360 
f 348 329 360 
f 342 348 360 
f 351 342 360 
f 329 359 360 
f 330 331 361 
f 331 341 361 
f 344 330 361 
f 341 353 361 
f 353 344 361 
f 335 342 362 
f 337 347 362 
f 349 335 362 
f 347 349 362 
f 351 337 362 
o convex_9
v -0.008432 -0.029363 0.017625
v -0.006528 0.009356 0.029050
v -0.009703 0.009356 0.029050
v -0.009703 -0.000800 0.016355
v -0.000181 -0.002074 0.016355
v -0.000181 -0.014760 0.028415
v -0.000181 -0.034443 0.016355
v -0.009703 -0.010957 0.029050
v -0.000181 -0.001435 0.029050
v -0.009703 -0.028728 0.016355
v -0.009703 -0.019206 0.025242
v -0.002086 -0.034443 0.016990
v -0.007163 0.008717 0.026509
v -0.000181 -0.024921 0.023335
v -0.009703 0.009356 0.027144
v -0.000181 -0.009688 0.029050
v -0.005894 0.008717 0.028415
v -0.002086 -0.001435 0.016355
f 375 367 380 
f 366 367 369 
f 367 368 369 
f 364 365 370 
f 365 366 370 
f 368 367 371 
f 364 370 371 
f 366 369 372 
f 370 366 372 
f 370 372 373 
f 368 370 373 
f 372 363 373 
f 363 372 374 
f 372 369 374 
f 373 363 374 
f 369 368 376 
f 368 373 376 
f 373 374 376 
f 374 369 376 
f 365 364 377 
f 366 365 377 
f 364 375 377 
f 375 366 377 
f 370 368 378 
f 368 371 378 
f 371 370 378 
f 364 371 379 
f 371 367 379 
f 375 364 379 
f 367 375 379 
f 367 366 380 
f 366 375 380 
o convex_10
v -0.007163 -0.011589 0.029053
v -0.002721 0.006816 0.050631
v -0.000181 0.008084 0.049995
v -0.009703 0.015065 0.034767
v -0.000181 -0.000797 0.029053
v -0.009703 0.006816 0.049361
v -0.000181 -0.004605 0.043013
v -0.009703 -0.011589 0.031592
v -0.005894 0.016336 0.036670
v -0.009703 0.009989 0.029053
v -0.009703 0.013797 0.046822
v -0.000181 -0.010318 0.030958
v -0.009703 -0.001434 0.044283
v -0.003990 0.013797 0.034767
v -0.001452 0.002374 0.049361
v -0.007797 0.016336 0.042378
v -0.000181 0.008718 0.045552
v -0.005894 0.009352 0.029053
v -0.000181 -0.010318 0.033497
v -0.009703 -0.011589 0.029053
v -0.000181 -0.009683 0.029053
v -0.009067 0.011257 0.049361
v -0.003356 -0.003336 0.044283
v -0.009067 -0.011589 0.032227
v -0.003990 0.003642 0.049995
v -0.005894 0.016336 0.040474
v -0.009703 0.016336 0.037306
v -0.004626 0.013797 0.033497
v -0.000181 0.003642 0.049995
v -0.007163 0.015699 0.043647
f 383 406 410 
f 385 383 387 
f 386 384 388 
f 385 381 390 
f 388 384 390 
f 384 386 391 
f 385 387 392 
f 386 388 393 
f 383 385 397 
f 385 394 397 
f 394 389 397 
f 385 390 398 
f 381 392 399 
f 392 387 399 
f 381 388 400 
f 390 381 400 
f 388 390 400 
f 381 385 401 
f 392 381 401 
f 385 392 401 
f 382 383 402 
f 386 382 402 
f 383 391 402 
f 391 386 402 
f 387 395 403 
f 388 381 404 
f 393 388 404 
f 399 387 404 
f 381 399 404 
f 387 403 404 
f 403 393 404 
f 382 386 405 
f 386 393 405 
f 393 403 405 
f 403 395 405 
f 389 396 406 
f 383 397 406 
f 397 389 406 
f 389 384 407 
f 384 391 407 
f 396 389 407 
f 391 396 407 
f 384 389 408 
f 390 384 408 
f 394 385 408 
f 389 394 408 
f 385 398 408 
f 398 390 408 
f 383 382 409 
f 387 383 409 
f 395 387 409 
f 382 405 409 
f 405 395 409 
f 391 383 410 
f 396 391 410 
f 406 396 410 
o convex_11
v 0.025842 0.001735 0.026509
v -0.000181 -0.034443 0.016355
v 0.000455 -0.035076 0.016355
v 0.027114 0.003008 0.016355
v -0.000181 -0.001441 0.029685
v -0.000181 -0.002074 0.016355
v 0.014415 -0.034443 0.017626
v 0.013149 -0.014135 0.029685
v 0.013149 0.003008 0.029685
v -0.000181 -0.014768 0.028414
v 0.024573 0.001735 0.029685
v 0.016956 -0.030630 0.016355
v 0.008075 -0.035076 0.018261
v 0.025209 -0.009052 0.016990
v 0.018861 0.003008 0.016355
v 0.016320 -0.011592 0.029685
v -0.000181 -0.024918 0.023337
v 0.024573 0.003008 0.029685
v 0.006806 -0.017936 0.027779
v -0.000181 -0.009689 0.029685
v 0.013782 -0.035713 0.016355
v 0.016956 -0.030630 0.016990
v 0.026478 -0.004614 0.016355
v -0.000181 -0.001441 0.021435
v 0.011246 -0.035076 0.018261
v 0.026478 0.002372 0.025241
v 0.000455 -0.035076 0.016990
f 431 423 437 
f 413 412 414 
f 412 415 416 
f 414 412 416 
f 415 418 419 
f 415 412 420 
f 419 418 421 
f 413 414 422 
f 414 416 425 
f 419 414 425 
f 418 417 426 
f 417 421 426 
f 421 418 426 
f 420 412 427 
f 414 419 428 
f 419 421 428 
f 418 420 429 
f 420 427 429 
f 427 423 429 
f 418 415 430 
f 415 420 430 
f 420 418 430 
f 413 422 431 
f 411 421 432 
f 421 417 432 
f 424 411 432 
f 422 424 432 
f 431 422 432 
f 417 431 432 
f 422 414 433 
f 424 422 433 
f 416 415 434 
f 415 419 434 
f 425 416 434 
f 419 425 434 
f 417 418 435 
f 418 429 435 
f 429 423 435 
f 431 417 435 
f 423 431 435 
f 421 411 436 
f 411 424 436 
f 414 428 436 
f 428 421 436 
f 433 414 436 
f 424 433 436 
f 412 413 437 
f 427 412 437 
f 423 427 437 
f 413 431 437 
o convex_12
v 0.001089 0.008721 0.048091
v 0.008705 -0.010957 0.032224
v 0.009340 -0.010957 0.032224
v 0.009340 -0.000804 0.029685
v -0.000181 -0.009685 0.029685
v 0.009340 0.002373 0.049362
v -0.000181 -0.004608 0.043013
v -0.000181 -0.000804 0.029685
v 0.009340 0.007450 0.043013
v -0.000181 0.003008 0.049998
v -0.000181 0.005547 0.039209
v 0.007435 -0.004608 0.043647
v 0.009340 0.006816 0.049998
v -0.000181 -0.010321 0.033497
v 0.009340 -0.009685 0.029685
v 0.009340 -0.010957 0.034131
v -0.000181 0.007450 0.049998
v 0.004264 0.005547 0.038575
v -0.000181 0.008721 0.045552
v 0.009340 0.008086 0.048725
v 0.001089 -0.004608 0.043647
v 0.009340 -0.005243 0.042381
f 449 453 459 
f 440 439 442 
f 440 441 443 
f 441 442 445 
f 442 444 445 
f 443 441 446 
f 445 444 447 
f 445 447 448 
f 443 447 449 
f 443 446 450 
f 447 443 450 
f 442 439 451 
f 444 442 451 
f 441 440 452 
f 442 441 452 
f 440 442 452 
f 439 440 453 
f 440 443 453 
f 451 439 453 
f 448 447 454 
f 447 450 454 
f 441 445 455 
f 446 441 455 
f 445 448 455 
f 455 448 456 
f 448 454 456 
f 454 438 456 
f 446 455 456 
f 450 446 457 
f 438 454 457 
f 454 450 457 
f 456 438 457 
f 446 456 457 
f 447 444 458 
f 449 447 458 
f 444 451 458 
f 453 449 458 
f 451 453 458 
f 443 449 459 
f 453 443 459 
o convex_13
v 0.011881 -0.012860 0.029685
v 0.012515 0.006185 0.049998
v 0.014420 0.006820 0.049362
v 0.019494 0.028399 0.029685
v 0.027749 0.010622 0.030321
v 0.009977 0.011889 0.030958
v 0.022668 0.006820 0.045552
v 0.009340 0.007452 0.049362
v 0.023304 0.028399 0.031592
v 0.009340 -0.005240 0.042381
v 0.015689 -0.011589 0.030958
v 0.009340 -0.009686 0.029685
v 0.019494 -0.000799 0.043013
v 0.027113 0.021416 0.029685
v 0.023304 -0.000164 0.029685
v 0.022668 0.009986 0.044920
v 0.010611 0.013792 0.036036
v 0.009977 0.002375 0.049362
v 0.026479 0.014432 0.036036
v 0.009340 -0.000164 0.029685
v 0.026479 0.006185 0.031592
v 0.020765 -0.000799 0.040474
v 0.015056 0.009351 0.048091
v 0.015689 -0.002702 0.043647
v 0.025208 0.027764 0.030321
v 0.014420 -0.011589 0.032863
v 0.019494 0.003011 0.046186
v 0.019494 0.028399 0.030958
v 0.009340 -0.010953 0.034131
v 0.009977 0.010622 0.029685
v 0.016959 -0.010322 0.029685
v 0.009340 0.008083 0.048725
v 0.026479 0.009351 0.035400
v 0.020765 0.028399 0.031592
v 0.011247 -0.005240 0.042381
v 0.022033 0.008719 0.046186
v 0.027113 0.007452 0.029685
v 0.014420 0.004913 0.049362
v 0.013150 -0.013496 0.030321
f 494 488 498 
f 463 460 471 
f 469 467 471 
f 460 463 473 
f 460 473 474 
f 463 465 476 
f 461 467 477 
f 467 469 477 
f 464 473 478 
f 475 466 478 
f 463 471 479 
f 471 467 479 
f 474 480 481 
f 466 472 481 
f 472 470 481 
f 480 466 481 
f 461 462 482 
f 467 461 482 
f 463 468 484 
f 473 463 484 
f 468 475 484 
f 478 473 484 
f 475 478 484 
f 470 472 485 
f 472 483 485 
f 472 466 486 
f 483 472 486 
f 477 483 486 
f 468 463 487 
f 463 476 487 
f 471 460 488 
f 469 471 488 
f 465 463 489 
f 463 479 489 
f 479 465 489 
f 460 474 490 
f 474 481 490 
f 481 470 490 
f 476 465 491 
f 465 479 491 
f 479 467 491 
f 487 476 491 
f 464 478 492 
f 478 466 492 
f 480 464 492 
f 466 480 492 
f 467 482 493 
f 482 468 493 
f 468 487 493 
f 491 467 493 
f 487 491 493 
f 477 469 494 
f 483 477 494 
f 485 483 494 
f 469 488 494 
f 466 475 495 
f 475 468 495 
f 482 462 495 
f 468 482 495 
f 473 464 496 
f 474 473 496 
f 464 480 496 
f 480 474 496 
f 462 461 497 
f 461 477 497 
f 486 466 497 
f 477 486 497 
f 495 462 497 
f 466 495 497 
f 470 485 498 
f 488 460 498 
f 460 490 498 
f 490 470 498 
f 485 494 498 
o convex_14
v -0.026206 0.004278 0.011910
v -0.014781 0.004913 0.001123
v -0.014781 0.004278 0.001123
v -0.015416 0.015069 0.016353
v -0.023031 0.015069 -0.000782
v -0.016686 0.004278 0.016353
v -0.024300 0.015069 0.016353
v -0.026841 0.004278 -0.000782
v -0.015416 0.015069 -0.000782
v -0.024936 0.004913 0.016353
v -0.014781 0.004278 -0.000782
v -0.027476 0.004913 0.003661
v -0.024936 0.014434 0.009371
v -0.025571 0.011260 0.014448
v -0.016051 0.005548 0.016353
v -0.026206 0.007452 -0.000782
f 510 511 514 
f 501 500 502 
f 499 501 504 
f 504 502 505 
f 502 503 505 
f 501 499 506 
f 502 500 507 
f 503 502 507 
f 506 503 507 
f 499 504 508 
f 504 505 508 
f 500 501 509 
f 501 506 509 
f 506 507 509 
f 507 500 509 
f 506 499 510 
f 505 503 511 
f 511 510 512 
f 499 508 512 
f 508 505 512 
f 510 499 512 
f 505 511 512 
f 501 502 513 
f 504 501 513 
f 502 504 513 
f 503 506 514 
f 506 510 514 
f 511 503 514 
o convex_15
v -0.002085 0.055059 0.003659
v -0.008432 0.037286 -0.000784
v -0.007796 0.037286 -0.000784
v -0.008432 0.044907 0.008103
v 0.005530 0.050615 0.008103
v 0.005530 0.055695 -0.000784
v -0.008432 0.052520 -0.000784
v 0.005530 0.045541 -0.000784
v -0.008432 0.050615 0.008103
v 0.005530 0.054424 0.008103
v -0.007796 0.037286 -0.000149
v -0.003989 0.055059 -0.000784
v -0.002085 0.053790 0.008103
v -0.007796 0.053154 0.002391
v 0.001087 0.055695 0.003659
v 0.005530 0.045541 -0.000149
f 525 522 530 
f 517 516 520 
f 516 518 521 
f 520 516 521 
f 517 520 522 
f 520 519 522 
f 518 519 523 
f 521 518 523 
f 519 520 524 
f 523 519 524 
f 516 517 525 
f 518 516 525 
f 519 518 525 
f 517 522 525 
f 520 521 526 
f 523 524 527 
f 521 523 528 
f 515 526 528 
f 526 521 528 
f 527 515 528 
f 523 527 528 
f 524 520 529 
f 526 515 529 
f 520 526 529 
f 515 527 529 
f 527 524 529 
f 522 519 530 
f 519 525 530 
o convex_16
v -0.004623 0.053154 0.013180
v -0.008432 0.039827 0.015085
v -0.008432 0.039827 0.016355
v 0.005530 0.049346 0.016355
v 0.005530 0.050615 0.008103
v -0.008432 0.049980 0.008103
v -0.008432 0.050615 0.016355
v 0.005530 0.054424 0.016355
v 0.000453 0.054424 0.008103
v -0.007796 0.044905 0.008103
v 0.005530 0.054424 0.008103
v -0.000817 0.054424 0.016355
v -0.007796 0.039827 0.015085
v -0.008432 0.051250 0.011277
f 531 539 544 
f 532 533 536 
f 536 533 537 
f 533 534 537 
f 534 535 538 
f 537 534 538 
f 535 536 539 
f 532 536 540 
f 536 535 540 
f 538 535 541 
f 535 539 541 
f 539 538 541 
f 531 537 542 
f 537 538 542 
f 539 531 542 
f 538 539 542 
f 533 532 543 
f 534 533 543 
f 535 534 543 
f 532 540 543 
f 540 535 543 
f 536 537 544 
f 537 531 544 
f 539 536 544 
o convex_17
v 0.012514 0.055060 0.002392
v 0.014418 0.043634 0.001122
v 0.015053 0.043634 0.001122
v 0.013783 0.048078 0.016352
v 0.005532 0.047444 0.001122
v 0.005532 0.054425 0.016352
v 0.015053 0.053155 0.016352
v 0.005532 0.055695 0.001122
v 0.005532 0.049348 0.016352
v 0.015053 0.053789 0.001122
v 0.011243 0.054425 0.016352
v 0.015053 0.048078 0.016352
v 0.009342 0.055695 0.003027
v 0.014418 0.043634 0.001757
v 0.014418 0.053789 0.016352
f 557 555 559 
f 547 546 549 
f 550 548 551 
f 547 549 552 
f 549 550 552 
f 548 550 553 
f 550 549 553 
f 551 547 554 
f 552 545 554 
f 547 552 554 
f 550 551 555 
f 547 551 556 
f 551 548 556 
f 545 552 557 
f 552 550 557 
f 550 555 557 
f 546 547 558 
f 549 546 558 
f 548 553 558 
f 553 549 558 
f 547 556 558 
f 556 548 558 
f 554 545 559 
f 551 554 559 
f 555 551 559 
f 545 557 559 
o convex_18
v 0.027114 0.039829 0.003661
v 0.015688 0.053154 0.016352
v 0.016323 0.053790 0.001757
v 0.018864 0.036654 0.001122
v 0.026479 0.036017 0.016352
v 0.018230 0.036017 0.016352
v 0.015053 0.043002 0.001122
v 0.023304 0.046805 0.016352
v 0.027114 0.036017 0.001122
v 0.022669 0.048712 0.001122
v 0.015053 0.046805 0.016352
v 0.015053 0.053790 0.001122
v 0.026479 0.042365 0.010006
v 0.020134 0.050614 0.014449
v 0.027749 0.036654 0.007469
v 0.019499 0.036017 0.001122
v 0.015053 0.053154 0.016352
v 0.019499 0.051884 0.001122
v 0.017594 0.052520 0.015718
v 0.026479 0.037924 0.016352
v 0.023939 0.046805 0.001122
f 567 572 580 
f 564 561 565 
f 563 565 566 
f 561 564 567 
f 564 565 568 
f 563 566 568 
f 568 566 569 
f 565 561 570 
f 566 565 570 
f 566 570 571 
f 569 566 571 
f 567 569 573 
f 568 560 574 
f 564 568 574 
f 560 572 574 
f 565 563 575 
f 568 565 575 
f 563 568 575 
f 561 562 576 
f 570 561 576 
f 571 570 576 
f 562 571 576 
f 571 562 577 
f 569 571 577 
f 573 569 577 
f 573 577 578 
f 562 561 578 
f 561 567 578 
f 567 573 578 
f 577 562 578 
f 567 564 579 
f 572 567 579 
f 564 574 579 
f 574 572 579 
f 560 568 580 
f 568 569 580 
f 569 567 580 
f 572 560 580 
o convex_19
v 0.018227 0.012530 0.029049
v 0.009975 0.006818 0.026511
v 0.009975 0.006818 0.027780
v 0.018227 0.003008 0.022069
v 0.018227 0.003008 0.029684
v 0.013785 0.003008 0.029684
v 0.011245 0.011260 0.029684
v 0.016323 0.007452 0.023973
v 0.018227 0.012530 0.029684
v 0.011245 0.011260 0.029049
v 0.009975 0.008085 0.029684
f 587 590 591 
f 584 581 585 
f 583 582 586 
f 582 584 586 
f 584 585 586 
f 586 585 587 
f 584 582 588 
f 581 584 588 
f 585 581 589 
f 587 585 589 
f 581 587 589 
f 587 581 590 
f 588 582 590 
f 581 588 590 
f 582 583 591 
f 583 586 591 
f 586 587 591 
f 590 582 591 
o convex_20
v 0.026478 0.003008 0.025876
v 0.025208 0.028399 0.029685
v 0.018862 0.028399 0.029685
v 0.029018 0.028399 0.016355
v 0.019498 0.003008 0.016355
v 0.018227 0.003008 0.029685
v 0.018862 0.028399 0.016990
v 0.027113 0.003008 0.016355
v 0.027748 0.009356 0.029685
v 0.029018 0.028399 0.022070
v 0.018227 0.028399 0.019531
v 0.018227 0.003008 0.021435
v 0.027748 0.004279 0.021435
v 0.027748 0.018242 0.029685
v 0.019498 0.028399 0.016355
v 0.024574 0.003008 0.029685
v 0.018227 0.028399 0.029050
v 0.029018 0.022686 0.016355
v 0.028384 0.012533 0.023970
v 0.026478 0.027129 0.029050
f 605 601 611 
f 594 593 595 
f 593 594 597 
f 596 592 597 
f 594 595 598 
f 592 596 599 
f 596 595 599 
f 593 597 600 
f 595 593 601 
f 594 598 602 
f 602 598 603 
f 596 597 603 
f 598 596 603 
f 597 602 603 
f 592 599 604 
f 600 592 604 
f 593 600 605 
f 600 601 605 
f 595 596 606 
f 598 595 606 
f 596 598 606 
f 597 592 607 
f 600 597 607 
f 592 600 607 
f 597 594 608 
f 594 602 608 
f 602 597 608 
f 599 595 609 
f 595 601 609 
f 604 599 609 
f 604 609 610 
f 601 600 610 
f 600 604 610 
f 609 601 610 
f 601 593 611 
f 593 605 611 
o convex_21
v -0.012244 0.050615 -0.000783
v -0.023668 0.015069 0.003659
v -0.023668 0.015069 0.006198
v -0.014149 0.017610 -0.000783
v -0.008436 0.042997 0.006198
v -0.018588 0.039822 0.006198
v -0.022396 0.029675 -0.000783
v -0.008436 0.036017 -0.000783
v -0.018588 0.015707 0.006198
v -0.008436 0.052521 0.002390
v -0.023031 0.015069 -0.000783
v -0.018588 0.042997 -0.000783
v -0.011609 0.048708 0.006198
v -0.021127 0.033483 0.006198
v -0.014782 0.015707 -0.000148
v -0.008436 0.052521 -0.000783
v -0.014149 0.048708 0.001755
v -0.008436 0.049980 0.006198
v -0.015418 0.015069 -0.000783
v -0.020492 0.037919 -0.000148
v -0.023668 0.016976 0.006198
v -0.015418 0.044903 0.006198
v -0.016684 0.046171 0.000486
f 617 633 634 
f 614 616 617 
f 612 615 618 
f 615 612 619 
f 616 614 620 
f 616 619 621 
f 614 613 622 
f 613 618 622 
f 618 615 622 
f 612 618 623 
f 617 616 624 
f 614 617 625 
f 617 623 625 
f 615 619 626 
f 619 616 626 
f 616 620 626 
f 619 612 627 
f 612 621 627 
f 621 619 627 
f 621 612 628 
f 624 621 628 
f 616 621 629 
f 624 616 629 
f 621 624 629 
f 620 614 630 
f 614 622 630 
f 622 615 630 
f 615 626 630 
f 626 620 630 
f 623 618 631 
f 618 625 631 
f 625 623 631 
f 613 614 632 
f 618 613 632 
f 614 625 632 
f 625 618 632 
f 617 624 633 
f 624 628 633 
f 633 628 634 
f 612 623 634 
f 623 617 634 
f 628 612 634 
o convex_22
v -0.010339 0.048706 0.016355
v -0.024301 0.015069 0.006199
v -0.024301 0.015069 0.016355
v -0.014782 0.015709 0.016355
v -0.008435 0.043630 0.006199
v -0.019858 0.037279 0.006199
v -0.018589 0.015069 0.006199
v -0.021762 0.029670 0.016355
v -0.008435 0.038549 0.016355
v -0.008435 0.049980 0.006199
v -0.016051 0.044263 0.010009
v -0.008435 0.049980 0.016355
v -0.021762 0.031576 0.007468
v -0.011609 0.048706 0.006199
v -0.015417 0.015069 0.013816
v -0.023666 0.022056 0.015085
v -0.020493 0.033476 0.015719
v -0.010339 0.049980 0.010642
v -0.015417 0.041726 0.016355
v -0.020493 0.035376 0.011277
v -0.016051 0.044263 0.006199
v -0.014147 0.046166 0.012546
v -0.008435 0.038549 0.015085
f 639 643 657 
f 635 637 638 
f 639 636 640 
f 637 636 641 
f 636 639 641 
f 637 635 642 
f 635 638 643 
f 643 639 644 
f 639 640 644 
f 635 643 646 
f 643 644 646 
f 640 636 647 
f 644 640 648 
f 638 637 649 
f 639 638 649 
f 637 641 649 
f 641 639 649 
f 636 637 650 
f 637 642 650 
f 647 636 650 
f 642 647 650 
f 635 646 652 
f 646 644 652 
f 644 648 652 
f 642 635 653 
f 651 642 653 
f 645 640 654 
f 640 647 654 
f 647 642 654 
f 642 651 654 
f 651 645 654 
f 640 645 655 
f 648 640 655 
f 645 652 655 
f 652 648 655 
f 645 651 656 
f 635 652 656 
f 652 645 656 
f 653 635 656 
f 651 653 656 
f 638 639 657 
f 643 638 657 
o convex_23
v 0.025845 0.020146 0.006199
v 0.015688 0.004280 0.001120
v 0.015688 0.004280 0.002390
v 0.025208 0.004280 0.006199
v 0.023939 0.020146 0.001120
v 0.020766 0.020146 0.006199
v 0.023306 0.004280 0.001120
v 0.016958 0.019511 0.001120
v 0.017594 0.004280 0.006199
v 0.015688 0.013163 0.001755
v 0.025208 0.004280 0.004929
v 0.024575 0.018242 0.001755
f 658 668 669 
f 660 659 661 
f 661 658 663 
f 658 662 663 
f 661 659 664 
f 659 662 664 
f 662 659 665 
f 663 662 665 
f 660 661 666 
f 661 663 666 
f 659 660 667 
f 665 659 667 
f 663 665 667 
f 666 663 667 
f 660 666 667 
f 658 661 668 
f 661 664 668 
f 668 664 669 
f 662 658 669 
f 664 662 669 
o convex_24
v 0.017593 0.004280 0.006199
v 0.027114 0.020146 0.016355
v 0.027114 0.020146 0.011911
v 0.027114 0.004280 0.016355
v 0.025844 0.004280 0.006199
v 0.021402 0.020146 0.016355
v 0.022036 0.020146 0.006199
v 0.019498 0.004280 0.015719
v 0.025844 0.020146 0.006199
v 0.017593 0.004915 0.008103
v 0.020132 0.004280 0.016355
v 0.027114 0.004915 0.013181
f 674 672 681 
f 672 671 673 
f 673 670 674 
f 671 672 675 
f 673 671 675 
f 674 670 676 
f 675 672 676 
f 670 673 677 
f 672 674 678 
f 674 676 678 
f 676 672 678 
f 676 670 679 
f 675 676 679 
f 670 677 679 
f 677 675 679 
f 673 675 680 
f 677 673 680 
f 675 677 680 
f 672 673 681 
f 673 674 681 
o convex_25
v 0.028384 0.036015 0.005563
v 0.017593 0.020149 0.001120
v 0.017593 0.020149 0.001756
v 0.019498 0.036015 0.001120
v 0.027749 0.030303 0.001120
v 0.022037 0.020149 0.006833
v 0.021403 0.036015 0.006198
v 0.025843 0.020149 0.006833
v 0.024574 0.020149 0.001120
v 0.028384 0.027132 0.006833
v 0.027113 0.036015 0.001120
v 0.028384 0.036015 0.006833
v 0.022671 0.036015 0.006833
v 0.020768 0.020784 0.006198
v 0.019498 0.036015 0.002391
v 0.028384 0.028399 0.004293
f 682 691 697 
f 683 684 685 
f 683 685 686 
f 684 683 687 
f 682 685 688 
f 687 683 689 
f 683 686 690 
f 689 683 690 
f 687 689 691 
f 685 682 692 
f 682 686 692 
f 686 685 692 
f 682 688 693 
f 691 682 693 
f 687 691 693 
f 693 688 694 
f 687 693 694 
f 684 687 695 
f 688 684 695 
f 687 694 695 
f 694 688 695 
f 685 684 696 
f 684 688 696 
f 688 685 696 
f 686 682 697 
f 690 686 697 
f 689 690 697 
f 691 689 697 
o convex_26
v 0.029018 0.022688 0.016355
v 0.018862 0.032207 0.015719
v 0.018862 0.032207 0.016355
v 0.028382 0.036015 0.006833
v 0.022671 0.020149 0.006833
v 0.026478 0.036015 0.016355
v 0.022037 0.036015 0.006833
v 0.021401 0.020149 0.016355
v 0.026478 0.020149 0.007469
v 0.018862 0.036015 0.016355
v 0.029018 0.027765 0.006833
v 0.029018 0.031572 0.016355
v 0.027113 0.020149 0.016355
v 0.020768 0.020784 0.015719
v 0.019498 0.035380 0.013179
f 707 704 712 
f 700 698 703 
f 703 701 704 
f 701 702 704 
f 698 700 705 
f 705 702 706 
f 699 700 707 
f 700 703 707 
f 703 704 707 
f 702 701 708 
f 706 702 708 
f 698 706 708 
f 703 698 709 
f 701 703 709 
f 698 708 709 
f 708 701 709 
f 698 705 710 
f 705 706 710 
f 706 698 710 
f 700 699 711 
f 699 702 711 
f 705 700 711 
f 702 705 711 
f 702 699 712 
f 704 702 712 
f 699 707 712 
