o convex_0
v -0.007487 -0.051258 -0.003666
v 0.020236 0.057151 0.001371
v 0.020236 0.057151 -0.000304
v -0.052031 0.003360 -0.007872
v 0.046284 0.005048 -0.037281
v 0.051332 0.000018 0.019025
v -0.048669 -0.006721 0.019025
v -0.037734 -0.005872 -0.037281
v 0.007637 0.046210 -0.033076
v -0.004125 0.047059 0.018181
v -0.036896 -0.041156 0.019025
v -0.012524 -0.039490 -0.037281
v 0.054694 0.035291 -0.017109
v 0.053856 -0.010074 -0.015422
v 0.041246 0.042019 0.019025
v 0.015199 -0.037802 0.019025
v -0.039420 -0.032762 -0.022152
v -0.025972 0.036978 -0.007028
v 0.007637 -0.044520 -0.022152
v -0.043620 0.010927 -0.026352
v 0.022760 0.039493 -0.037281
v -0.040258 0.015967 0.019025
v 0.058894 0.017644 0.005571
v -0.052031 -0.011751 -0.008709
v -0.000763 0.053787 -0.008715
v 0.029484 0.052938 -0.018784
v -0.017573 -0.048722 -0.018784
v 0.026122 -0.034438 0.004733
v 0.044608 0.047059 0.004733
v 0.060580 0.005886 -0.009542
v 0.050494 -0.013427 0.004733
v -0.000763 -0.044520 -0.031395
v -0.006638 -0.048722 0.014819
v -0.042782 -0.017630 -0.032232
v 0.042933 0.035291 -0.031395
v -0.047820 -0.026034 0.019025
v 0.026960 0.049585 0.019025
v 0.043770 -0.010074 -0.029708
v 0.005113 -0.048722 -0.006196
v -0.043620 0.000007 -0.033913
v -0.004962 0.044534 -0.025508
v -0.045307 0.015967 0.003890
v 0.053856 0.029412 0.012295
v 0.046284 -0.017630 -0.017109
v 0.055532 0.015967 -0.025508
v -0.023448 0.035291 0.014819
v -0.024297 -0.043681 -0.027195
v 0.013512 0.053777 -0.022990
v 0.011837 0.057151 0.007252
v -0.043620 0.017644 -0.015422
v 0.005950 0.036968 -0.037281
v -0.007487 -0.049571 -0.024671
v -0.001600 -0.037792 -0.037281
v 0.058056 -0.005033 -0.002829
v -0.007487 0.049574 0.003895
v 0.042084 -0.016791 0.016500
v 0.042933 0.047898 -0.013741
v -0.026810 -0.045369 0.019025
v -0.029334 -0.027721 -0.037281
v -0.049506 0.003360 0.014819
v -0.026810 -0.046207 -0.008715
v 0.053856 0.017644 0.018176
v 0.057218 0.031089 -0.005347
v -0.045307 -0.027721 -0.010379
f 36 24 64 
f 6 7 11 
f 8 5 12 
f 7 6 15 
f 6 11 16 
f 5 8 21 
f 7 15 22 
f 5 21 35 
f 21 26 35 
f 11 7 36 
f 7 24 36 
f 22 15 37 
f 10 22 37 
f 29 2 37 
f 15 29 37 
f 5 14 38 
f 28 16 39 
f 33 1 39 
f 16 33 39 
f 4 20 40 
f 20 9 40 
f 24 4 40 
f 8 34 40 
f 34 24 40 
f 9 20 41 
f 18 25 41 
f 29 15 43 
f 14 31 44 
f 31 28 44 
f 19 32 44 
f 38 14 44 
f 32 38 44 
f 28 39 44 
f 39 19 44 
f 14 5 45 
f 13 30 45 
f 30 14 45 
f 5 35 45 
f 35 13 45 
f 22 10 46 
f 18 42 46 
f 42 22 46 
f 21 9 48 
f 3 26 48 
f 26 21 48 
f 9 41 48 
f 41 25 48 
f 2 3 49 
f 37 2 49 
f 10 37 49 
f 3 48 49 
f 48 25 49 
f 20 4 50 
f 41 20 50 
f 18 41 50 
f 4 42 50 
f 42 18 50 
f 21 8 51 
f 9 21 51 
f 8 40 51 
f 40 9 51 
f 1 27 52 
f 12 32 52 
f 32 19 52 
f 19 39 52 
f 39 1 52 
f 27 47 52 
f 47 12 52 
f 12 5 53 
f 32 12 53 
f 5 38 53 
f 38 32 53 
f 23 6 54 
f 14 30 54 
f 30 23 54 
f 6 31 54 
f 31 14 54 
f 25 18 55 
f 46 10 55 
f 18 46 55 
f 10 49 55 
f 49 25 55 
f 6 16 56 
f 16 28 56 
f 31 6 56 
f 28 31 56 
f 3 2 57 
f 26 3 57 
f 2 29 57 
f 29 13 57 
f 13 35 57 
f 35 26 57 
f 16 11 58 
f 1 33 58 
f 33 16 58 
f 8 12 59 
f 34 8 59 
f 17 34 59 
f 47 17 59 
f 12 47 59 
f 7 22 60 
f 4 24 60 
f 24 7 60 
f 42 4 60 
f 22 42 60 
f 11 17 61 
f 27 1 61 
f 17 47 61 
f 47 27 61 
f 58 11 61 
f 1 58 61 
f 15 6 62 
f 6 23 62 
f 43 15 62 
f 23 43 62 
f 13 29 63 
f 30 13 63 
f 23 30 63 
f 43 23 63 
f 29 43 63 
f 17 11 64 
f 34 17 64 
f 24 34 64 
f 11 36 64 
o convex_1
v 0.035368 0.018485 0.033309
v -0.008331 -0.045375 0.019025
v -0.006649 -0.045375 0.019025
v 0.006796 0.049588 0.019025
v -0.008331 0.001688 0.043396
v 0.047130 -0.008388 0.019025
v 0.006796 -0.022685 0.038350
v -0.008331 0.041175 0.019025
v 0.047971 0.031926 0.019025
v 0.018565 0.036974 0.033309
v 0.040408 0.003370 0.031628
v -0.002444 0.026051 0.038350
v 0.024440 -0.026041 0.026592
v -0.008331 -0.031088 0.038350
v 0.019406 0.004207 0.040032
v 0.026963 0.048733 0.021549
v 0.014365 -0.037800 0.021549
v 0.018565 0.025206 0.038350
v 0.037050 0.034455 0.029111
v 0.051336 0.016802 0.021549
v -0.005808 0.035300 0.030793
v 0.000074 -0.006715 0.043396
v -0.004967 0.012610 0.043396
v -0.000762 -0.038636 0.029953
v 0.019406 -0.012590 0.037510
v 0.011842 0.045377 0.026592
v 0.032845 -0.012590 0.029951
v 0.040408 0.042012 0.019025
v -0.008331 0.018485 0.040030
v 0.050495 -0.000831 0.020706
v 0.019406 -0.020993 0.034149
v 0.024440 -0.030242 0.019027
v 0.044607 0.016802 0.028269
v -0.007490 -0.021003 0.041711
v -0.007490 -0.044529 0.024070
v 0.005955 0.010082 0.042551
v 0.030321 0.019321 0.035831
v 0.052177 0.007563 0.019025
v 0.032003 0.005053 0.035831
v -0.008331 0.039502 0.024070
v 0.045448 0.027734 0.024910
v 0.013524 -0.010071 0.040032
v 0.029480 -0.026041 0.020706
v 0.005120 0.018485 0.041711
v 0.014365 -0.026877 0.032467
v 0.045448 -0.008388 0.021549
v 0.027798 0.048733 0.019027
v 0.000074 0.047059 0.019869
v 0.016047 0.018485 0.040032
v 0.000915 0.031099 0.035829
v 0.025281 0.034455 0.033309
v -0.005808 -0.036126 0.034149
v 0.046289 0.005044 0.026592
v 0.047971 0.031090 0.020706
v 0.030321 -0.018474 0.028271
v 0.040408 0.042012 0.019867
v 0.015200 -0.001668 0.040872
v 0.020247 -0.026041 0.029951
v 0.052177 0.019331 0.019025
v 0.032003 0.024369 0.034149
v 0.016047 -0.036126 0.019027
v 0.014365 0.049588 0.020706
v 0.005955 -0.014273 0.040872
v 0.027798 0.008399 0.037510
f 101 113 128 
f 67 66 68 
f 67 68 70 
f 68 66 72 
f 66 69 72 
f 70 68 73 
f 69 66 78 
f 69 86 87 
f 74 80 90 
f 75 89 91 
f 73 68 92 
f 72 69 93 
f 76 85 93 
f 87 76 93 
f 69 87 93 
f 89 71 95 
f 91 89 95 
f 65 75 97 
f 69 78 98 
f 78 71 98 
f 86 69 98 
f 66 67 99 
f 78 66 99 
f 67 81 99 
f 81 88 99 
f 87 86 100 
f 70 73 102 
f 94 70 102 
f 84 94 102 
f 75 65 103 
f 89 75 103 
f 65 101 103 
f 72 93 104 
f 93 85 104 
f 83 97 105 
f 97 84 105 
f 71 89 106 
f 77 81 107 
f 96 70 107 
f 81 96 107 
f 74 76 108 
f 82 74 108 
f 76 87 108 
f 87 100 108 
f 95 71 109 
f 75 91 110 
f 70 94 110 
f 94 75 110 
f 107 70 110 
f 92 68 111 
f 68 72 112 
f 90 68 112 
f 85 90 112 
f 72 104 112 
f 104 85 112 
f 100 79 113 
f 101 82 113 
f 82 108 113 
f 108 100 113 
f 76 74 114 
f 85 76 114 
f 74 90 114 
f 90 85 114 
f 80 74 115 
f 74 82 115 
f 83 80 115 
f 71 78 116 
f 78 99 116 
f 99 88 116 
f 109 71 116 
f 88 109 116 
f 94 84 117 
f 75 94 117 
f 97 75 117 
f 84 97 117 
f 83 105 118 
f 105 84 118 
f 91 95 119 
f 77 107 119 
f 110 91 119 
f 107 110 119 
f 80 83 120 
f 73 92 120 
f 111 80 120 
f 92 111 120 
f 118 73 120 
f 83 118 120 
f 79 100 121 
f 100 86 121 
f 89 103 121 
f 103 79 121 
f 86 106 121 
f 106 89 121 
f 81 77 122 
f 88 81 122 
f 109 88 122 
f 95 109 122 
f 77 119 122 
f 119 95 122 
f 102 73 123 
f 84 102 123 
f 73 118 123 
f 118 84 123 
f 65 97 124 
f 97 83 124 
f 101 65 124 
f 82 101 124 
f 115 82 124 
f 83 115 124 
f 67 70 125 
f 81 67 125 
f 70 96 125 
f 96 81 125 
f 68 90 126 
f 90 80 126 
f 111 68 126 
f 80 111 126 
f 98 71 127 
f 86 98 127 
f 106 86 127 
f 71 106 127 
f 79 103 128 
f 103 101 128 
f 113 79 128 
o convex_2
v 0.021928 0.036977 -0.049045
v 0.004275 -0.021845 -0.038123
v 0.005118 -0.021845 -0.038123
v 0.019403 0.040344 -0.037282
v 0.046294 0.005049 -0.037282
v 0.037887 0.000009 -0.051566
v 0.005118 0.029417 -0.051566
v 0.004275 0.034451 -0.037282
v 0.039569 0.015130 -0.051566
v 0.026119 -0.001671 -0.051566
v 0.039569 0.021010 -0.037282
v 0.013521 0.036977 -0.051566
v 0.038730 -0.003351 -0.037282
v 0.005957 0.021010 -0.051566
v 0.004275 -0.021845 -0.037282
v 0.046294 0.009249 -0.044005
v 0.027802 0.034451 -0.043165
v 0.004275 0.024370 -0.050726
v 0.025284 0.033617 -0.051566
v 0.009317 0.038651 -0.038963
v 0.041251 0.003369 -0.051566
v 0.039569 0.017650 -0.048205
v 0.009317 0.035297 -0.051566
v 0.023610 0.038651 -0.037282
v 0.037048 -0.003351 -0.043165
v 0.044612 0.014290 -0.038123
v 0.011839 0.013450 -0.051566
v 0.029484 -0.002511 -0.051566
v 0.046294 0.005049 -0.040644
v 0.036209 -0.001671 -0.050726
v 0.014360 0.040344 -0.037282
v 0.004275 0.034451 -0.039804
v 0.004275 -0.008398 -0.042325
v 0.041251 0.011763 -0.051566
v 0.019403 0.036977 -0.051566
v 0.038730 0.000009 -0.050726
v 0.046294 0.010089 -0.037282
v 0.015203 0.038651 -0.046524
f 163 140 166 
f 133 132 136 
f 134 135 137 
f 135 134 138 
f 132 133 139 
f 137 135 140 
f 133 136 141 
f 135 138 142 
f 130 131 143 
f 136 130 143 
f 131 141 143 
f 141 136 143 
f 130 136 146 
f 135 142 146 
f 137 140 147 
f 129 145 147 
f 134 137 149 
f 144 137 150 
f 137 147 150 
f 147 145 150 
f 140 135 151 
f 148 140 151 
f 129 132 152 
f 132 139 152 
f 139 145 152 
f 145 129 152 
f 141 131 153 
f 145 139 154 
f 144 150 154 
f 150 145 154 
f 142 138 155 
f 131 130 156 
f 130 138 156 
f 138 134 156 
f 133 141 157 
f 144 133 157 
f 149 144 157 
f 153 131 158 
f 131 156 158 
f 156 134 158 
f 136 132 159 
f 148 136 159 
f 146 136 160 
f 135 146 160 
f 136 148 160 
f 151 135 160 
f 148 151 160 
f 138 130 161 
f 130 146 161 
f 146 142 161 
f 155 138 161 
f 142 155 161 
f 137 144 162 
f 149 137 162 
f 144 149 162 
f 132 129 163 
f 129 147 163 
f 147 140 163 
f 134 149 164 
f 141 153 164 
f 157 141 164 
f 149 157 164 
f 153 158 164 
f 158 134 164 
f 139 133 165 
f 133 144 165 
f 154 139 165 
f 144 154 165 
f 140 148 166 
f 159 132 166 
f 148 159 166 
f 132 163 166 
o convex_3
v -0.015899 0.034455 0.024907
v -0.046988 -0.001676 0.019025
v -0.046988 -0.001676 0.019869
v -0.008331 -0.001676 0.019025
v -0.010015 -0.001676 0.043396
v -0.036900 0.000007 0.039190
v -0.008331 0.041184 0.019025
v -0.008331 0.018500 0.040030
v -0.040260 0.015135 0.019869
v -0.012535 0.026890 0.034989
v -0.030176 0.018500 0.029953
v -0.029340 -0.001676 0.042551
v -0.025980 0.030255 0.019025
v -0.041104 -0.000832 0.034989
v -0.008331 -0.001676 0.042551
v -0.008331 0.035298 0.028273
v -0.044461 0.008410 0.020709
v -0.025143 0.029416 0.023230
v -0.021779 0.012614 0.039190
v -0.012535 0.007575 0.042551
v -0.011695 0.040341 0.019869
v -0.040260 0.013457 0.022388
v -0.022619 0.028577 0.026592
v -0.044461 0.008410 0.019025
v -0.022619 0.021009 0.033307
v -0.029340 -0.000832 0.042551
v -0.035220 0.010931 0.031628
v -0.041104 -0.001676 0.034989
v -0.010855 0.036980 0.025750
v -0.008331 0.006732 0.042551
v -0.009175 0.018500 0.040030
v -0.046145 0.000007 0.022388
f 194 180 198 
f 169 168 170 
f 169 170 171 
f 170 168 173 
f 170 173 174 
f 169 171 178 
f 173 168 179 
f 171 170 181 
f 170 174 181 
f 174 173 182 
f 176 174 182 
f 168 169 183 
f 179 175 184 
f 176 172 185 
f 173 179 187 
f 184 167 187 
f 179 184 187 
f 175 183 188 
f 183 180 188 
f 184 175 188 
f 177 184 188 
f 167 184 189 
f 184 177 189 
f 179 168 190 
f 175 179 190 
f 168 183 190 
f 183 175 190 
f 172 176 191 
f 177 172 191 
f 176 189 191 
f 189 177 191 
f 178 171 192 
f 172 178 192 
f 185 172 192 
f 171 186 192 
f 172 177 193 
f 180 172 193 
f 177 188 193 
f 188 180 193 
f 169 178 194 
f 178 172 194 
f 172 180 194 
f 182 173 195 
f 176 182 195 
f 173 187 195 
f 187 167 195 
f 167 189 195 
f 189 176 195 
f 171 181 196 
f 181 174 196 
f 186 171 196 
f 174 186 196 
f 174 176 197 
f 176 185 197 
f 186 174 197 
f 185 192 197 
f 192 186 197 
f 183 169 198 
f 180 183 198 
f 169 194 198 
o convex_4
v 0.002589 -0.033602 -0.038123
v -0.037744 -0.010080 -0.038123
v -0.037744 -0.010080 -0.037282
v 0.004271 0.006728 -0.037282
v -0.019252 0.002525 -0.051566
v -0.003293 -0.035290 -0.051566
v -0.033541 -0.013441 -0.051566
v -0.016735 -0.037805 -0.037282
v 0.001749 -0.020160 -0.051566
v -0.031019 0.004204 -0.037282
v 0.004271 0.006728 -0.043165
v -0.015900 -0.034443 -0.051566
v -0.032702 -0.002520 -0.051566
v -0.033541 -0.021002 -0.038123
v -0.005814 -0.039493 -0.037282
v -0.024294 0.006728 -0.038123
v 0.004271 -0.029408 -0.037282
v -0.025138 0.004204 -0.047364
v 0.001749 -0.026879 -0.051566
v -0.010857 -0.037805 -0.047364
v -0.036901 -0.004198 -0.040644
v -0.030180 -0.025205 -0.038123
v -0.031858 -0.016798 -0.050726
v -0.034380 -0.007560 -0.051566
v -0.014222 -0.001678 -0.051566
v -0.027659 0.001684 -0.051566
v -0.036062 -0.016798 -0.037282
v -0.034380 0.000842 -0.039804
v -0.029337 0.003367 -0.045683
v 0.004271 -0.028566 -0.038963
v 0.000067 -0.032769 -0.049885
v -0.000772 -0.036964 -0.038963
v -0.017574 -0.036964 -0.039804
v -0.012539 -0.039493 -0.038123
v -0.036901 -0.003357 -0.037282
v -0.034380 -0.013441 -0.049885
v 0.004271 -0.002520 -0.043165
v -0.012539 -0.036131 -0.051566
v -0.001615 0.006728 -0.043165
v 0.000906 -0.018482 -0.051566
f 223 209 238 
f 203 204 205 
f 202 201 206 
f 204 203 207 
f 201 202 208 
f 205 204 210 
f 203 205 211 
f 202 206 213 
f 208 202 214 
f 202 209 214 
f 209 202 215 
f 213 199 215 
f 202 213 215 
f 204 207 217 
f 207 209 217 
f 204 213 218 
f 220 212 221 
f 205 210 221 
f 210 220 221 
f 211 205 222 
f 200 219 222 
f 219 211 222 
f 207 203 223 
f 203 209 223 
f 203 211 224 
f 216 203 224 
f 201 200 225 
f 206 201 225 
f 220 206 225 
f 212 220 225 
f 211 219 226 
f 208 214 227 
f 214 216 227 
f 224 211 227 
f 216 224 227 
f 226 208 227 
f 211 226 227 
f 215 199 228 
f 209 215 228 
f 217 228 229 
f 204 217 229 
f 228 199 229 
f 204 229 230 
f 199 213 230 
f 213 204 230 
f 229 199 230 
f 220 210 231 
f 206 220 231 
f 213 206 232 
f 218 213 232 
f 206 231 232 
f 200 201 233 
f 201 208 233 
f 219 200 233 
f 208 226 233 
f 226 219 233 
f 221 212 234 
f 205 221 234 
f 200 222 234 
f 222 205 234 
f 225 200 234 
f 212 225 234 
f 217 209 235 
f 209 228 235 
f 228 217 235 
f 210 204 236 
f 204 218 236 
f 231 210 236 
f 218 232 236 
f 232 231 236 
f 209 203 237 
f 214 209 237 
f 203 216 237 
f 216 214 237 
f 209 207 238 
f 207 223 238 
o convex_5
v -0.058750 -0.047050 0.026593
v -0.033542 -0.028563 0.061044
v -0.034385 -0.028563 0.061044
v -0.046987 -0.001676 0.019025
v -0.024298 -0.045371 0.019025
v -0.024298 -0.001676 0.042547
v -0.059589 -0.004199 0.035835
v -0.024298 -0.047890 0.046755
v -0.050349 -0.034441 0.055997
v -0.024298 -0.001676 0.019025
v -0.041110 -0.010087 0.054315
v -0.052029 -0.051258 0.034152
v -0.061269 -0.004199 0.024067
v -0.061269 -0.042012 0.034996
v -0.047827 -0.031927 0.019025
v -0.024298 -0.022691 0.057679
v -0.052029 -0.022691 0.055997
v -0.041110 -0.040333 0.057679
v -0.055391 -0.001676 0.036678
v -0.033542 -0.015124 0.058522
v -0.057070 -0.047895 0.038360
v -0.052868 -0.042852 0.021550
v -0.024298 -0.048734 0.029953
v -0.035225 -0.036125 0.061044
v -0.054548 -0.050414 0.027432
v -0.024298 -0.034446 0.056840
v -0.051186 -0.014285 0.052637
v -0.033542 -0.044526 0.053480
v -0.060433 -0.042852 0.026593
v -0.042785 -0.021851 0.059357
v -0.046148 -0.034441 0.059357
v -0.054548 -0.021007 0.051797
v -0.025141 -0.011766 0.053480
v -0.060433 -0.007563 0.023232
v -0.036064 -0.003360 0.045068
v -0.030183 -0.009242 0.053480
v -0.052868 -0.028563 0.055158
v -0.049506 -0.051258 0.029110
v -0.058750 -0.001676 0.026593
v -0.024298 -0.043692 0.051797
v -0.051186 -0.046215 0.022389
v -0.061269 -0.004199 0.029110
v -0.049506 -0.023526 0.019025
v -0.057070 -0.042012 0.023232
v -0.031862 -0.019327 0.060200
v -0.052868 -0.050414 0.036678
v -0.059589 -0.042012 0.039195
v -0.046148 -0.037809 0.057679
v -0.061269 -0.043687 0.029110
v -0.036064 -0.042007 0.019025
v -0.055391 -0.002520 0.038360
v -0.025141 -0.029403 0.058522
v -0.059589 -0.047050 0.034996
v -0.024298 -0.048734 0.036678
v -0.042785 -0.016808 0.057679
v -0.060433 -0.036970 0.037517
v -0.056227 -0.050414 0.032474
v -0.047827 -0.051258 0.032474
v -0.057910 -0.045366 0.040034
v -0.051186 -0.022691 0.056840
v -0.054548 -0.048734 0.039195
v -0.041949 -0.026884 0.060200
v -0.027664 -0.005883 0.049276
v -0.048667 -0.005879 0.019025
f 281 272 302 
f 243 244 246 
f 243 242 248 
f 244 243 248 
f 242 244 248 
f 242 243 253 
f 246 244 254 
f 244 242 257 
f 243 246 261 
f 240 241 262 
f 246 254 264 
f 262 256 266 
f 256 262 269 
f 255 265 270 
f 265 245 270 
f 254 244 271 
f 251 242 272 
f 267 251 272 
f 244 257 273 
f 249 258 274 
f 258 271 274 
f 247 269 275 
f 255 270 275 
f 243 261 276 
f 250 263 276 
f 263 243 276 
f 242 251 277 
f 257 242 277 
f 245 257 277 
f 246 264 278 
f 264 262 278 
f 266 246 278 
f 262 266 278 
f 263 239 279 
f 243 263 279 
f 252 245 280 
f 251 252 280 
f 277 251 280 
f 245 277 280 
f 242 253 281 
f 253 260 281 
f 272 281 282 
f 239 267 282 
f 267 272 282 
f 279 239 282 
f 260 279 282 
f 281 260 282 
f 241 240 283 
f 254 271 283 
f 271 258 283 
f 250 246 284 
f 246 266 284 
f 275 270 285 
f 269 247 286 
f 256 269 286 
f 252 251 287 
f 251 267 287 
f 267 239 287 
f 253 243 288 
f 260 253 288 
f 279 260 288 
f 243 279 288 
f 257 245 289 
f 265 249 289 
f 245 265 289 
f 249 273 289 
f 273 257 289 
f 240 262 290 
f 264 254 290 
f 262 264 290 
f 283 240 290 
f 254 283 290 
f 285 252 291 
f 252 287 291 
f 287 239 291 
f 261 246 292 
f 258 249 293 
f 249 265 293 
f 268 283 293 
f 283 258 293 
f 245 252 294 
f 270 245 294 
f 252 285 294 
f 285 270 294 
f 239 263 295 
f 263 250 295 
f 250 284 295 
f 284 259 295 
f 259 291 295 
f 291 239 295 
f 246 250 296 
f 276 261 296 
f 250 276 296 
f 292 246 296 
f 261 292 296 
f 247 275 297 
f 275 285 297 
f 286 247 297 
f 259 286 297 
f 291 259 297 
f 285 291 297 
f 265 255 298 
f 275 269 298 
f 255 275 298 
f 293 265 298 
f 268 293 298 
f 266 256 299 
f 259 284 299 
f 284 266 299 
f 286 259 299 
f 256 286 299 
f 262 241 300 
f 269 262 300 
f 241 283 300 
f 283 268 300 
f 268 298 300 
f 298 269 300 
f 271 244 301 
f 244 273 301 
f 273 249 301 
f 249 274 301 
f 274 271 301 
f 272 242 302 
f 242 281 302 
o convex_6
v -0.015896 -0.060502 0.033313
v -0.023456 -0.021853 0.056842
v -0.019254 -0.021006 0.055998
v -0.024298 -0.001676 0.019025
v -0.008331 -0.001676 0.019025
v -0.024298 -0.045375 0.019025
v -0.008331 -0.001676 0.042553
v -0.008331 -0.045375 0.019025
v -0.010853 -0.052936 0.040869
v -0.024298 -0.047051 0.047595
v -0.024298 -0.001676 0.042553
v -0.019254 -0.059662 0.028272
v -0.024298 -0.032759 0.056842
v -0.008331 -0.023528 0.041713
v -0.015055 -0.052936 0.045074
v -0.024298 -0.015127 0.054313
v -0.014214 -0.029419 0.050116
v -0.020094 -0.055458 0.043393
v -0.024298 -0.050414 0.032473
v -0.010013 -0.052936 0.038348
v -0.014214 -0.059662 0.029112
v -0.019254 -0.028573 0.055157
v -0.009172 -0.001676 0.043393
v -0.011693 -0.057139 0.036678
v -0.019254 -0.058815 0.038348
v -0.009172 -0.017643 0.044234
v -0.008331 -0.036127 0.034154
v -0.012535 -0.049573 0.044234
v -0.014214 -0.056299 0.041713
v -0.011693 -0.046210 0.019025
v -0.024298 -0.042012 0.051796
v -0.021775 -0.032759 0.055998
v -0.024298 -0.048732 0.045914
v -0.011693 -0.057139 0.032473
v -0.016733 -0.025215 0.053477
v -0.024298 -0.011764 0.051796
v -0.016733 -0.053777 0.045074
v -0.015055 -0.059662 0.028272
v -0.019254 -0.059662 0.034998
f 327 335 341 
f 306 307 308 
f 307 306 309 
f 307 309 310 
f 308 307 310 
f 306 308 312 
f 309 306 313 
f 306 312 313 
f 305 304 315 
f 313 312 315 
f 310 309 316 
f 304 305 318 
f 315 304 318 
f 313 315 318 
f 312 308 321 
f 308 314 321 
f 316 311 322 
f 305 309 325 
f 309 313 325 
f 318 305 325 
f 322 311 326 
f 303 323 326 
f 316 309 328 
f 311 316 328 
f 310 316 329 
f 322 310 329 
f 316 322 329 
f 317 311 330 
f 311 328 330 
f 328 319 330 
f 311 317 331 
f 303 326 331 
f 326 311 331 
f 327 303 331 
f 320 327 331 
f 308 310 332 
f 314 308 332 
f 315 312 333 
f 312 320 333 
f 305 315 334 
f 315 317 334 
f 324 305 334 
f 317 330 334 
f 330 324 334 
f 320 312 335 
f 312 321 335 
f 327 320 335 
f 310 322 336 
f 323 310 336 
f 322 326 336 
f 326 323 336 
f 309 305 337 
f 305 324 337 
f 328 309 337 
f 319 328 337 
f 324 330 337 
f 330 319 337 
f 313 318 338 
f 325 313 338 
f 318 325 338 
f 317 315 339 
f 331 317 339 
f 320 331 339 
f 315 333 339 
f 333 320 339 
f 303 314 340 
f 323 303 340 
f 310 323 340 
f 332 310 340 
f 314 332 340 
f 314 303 341 
f 321 314 341 
f 303 327 341 
f 335 321 341 
o convex_7
v 0.000912 0.012613 -0.044003
v 0.004275 0.019334 -0.037281
v 0.004275 0.006728 -0.037281
v -0.010852 0.007570 -0.037281
v 0.004275 0.007570 -0.044003
v 0.003434 0.019334 -0.041482
v -0.005809 0.006728 -0.042322
v -0.002449 0.017651 -0.038123
v 0.004275 0.013449 -0.044844
v -0.000768 0.019334 -0.037281
v -0.006650 0.009250 -0.040643
f 349 347 352 
f 344 343 345 
f 343 344 346 
f 344 345 348 
f 346 344 348 
f 343 346 350 
f 347 343 350 
f 342 347 350 
f 348 342 350 
f 346 348 350 
f 345 343 351 
f 343 347 351 
f 349 345 351 
f 347 349 351 
f 347 342 352 
f 348 345 352 
f 342 348 352 
f 345 349 352 
o convex_8
v 0.000914 0.026895 -0.038123
v 0.004275 0.033620 -0.037281
v 0.004275 0.033620 -0.038962
v 0.004275 0.019334 -0.037281
v 0.003434 0.024377 -0.048206
v 0.000073 0.019334 -0.037281
v 0.004275 0.020174 -0.044843
v 0.003434 0.027736 -0.048206
v 0.002593 0.032779 -0.037281
v 0.004275 0.027736 -0.048206
f 357 360 362 
f 355 354 356 
f 356 354 358 
f 358 357 359 
f 355 356 359 
f 356 358 359 
f 358 353 360 
f 357 358 360 
f 354 355 361 
f 358 354 361 
f 353 358 361 
f 360 353 361 
f 355 360 361 
f 359 357 362 
f 355 359 362 
f 360 355 362 
