o convex_0
v -0.024282 -0.012712 0.024303
v 0.004953 0.031503 0.041423
v 0.004953 0.031503 0.036430
v 0.027066 -0.014850 0.025019
v -0.001460 -0.005579 0.064949
v -0.030703 0.016522 0.051400
v 0.025640 0.020083 0.058535
v 0.006379 -0.027693 0.053542
v -0.015010 0.024364 0.024303
v 0.021355 0.017237 0.024303
v -0.031412 -0.004865 0.049262
v -0.013584 -0.025550 0.024303
v 0.033486 0.007960 0.049262
v -0.005738 0.020803 0.061390
v 0.008522 -0.031974 0.033576
v 0.020646 -0.019846 0.049975
v -0.008590 -0.026979 0.049258
v -0.033554 0.010812 0.038572
v 0.029201 0.022941 0.041423
v -0.025708 0.003685 0.059248
v 0.012799 -0.001304 0.064237
v -0.010016 0.030074 0.044986
v 0.019929 0.027936 0.053542
v 0.007805 0.027222 0.024303
v -0.026418 0.009389 0.024303
v 0.027775 -0.003442 0.024303
v 0.007805 -0.026264 0.024303
v -0.020714 -0.021268 0.025019
v -0.015010 0.027936 0.032154
v -0.000041 0.003685 0.065670
v -0.025708 0.015093 0.058535
v -0.033554 -0.002727 0.040710
v 0.029918 0.010104 0.055680
v 0.021355 -0.021983 0.044986
v -0.005738 0.027936 0.053542
v 0.033486 0.009389 0.040710
v -0.032838 0.007245 0.052830
v -0.011442 -0.006294 0.062103
v 0.026349 0.026507 0.044274
v -0.005022 0.030788 0.030725
v -0.008590 -0.028408 0.044986
v -0.032128 0.015808 0.041427
v -0.027851 -0.002013 0.055680
v 0.029201 -0.009860 0.037143
v 0.003527 0.021512 0.061390
v 0.032053 0.016522 0.050688
v 0.008522 -0.026979 0.054251
v -0.028560 0.018660 0.052117
v 0.009231 0.005823 0.064949
v -0.022147 0.020797 0.027874
v -0.005022 -0.025550 0.052830
v -0.027134 0.001541 0.024303
v 0.025640 0.009389 0.025019
v -0.007164 0.001541 0.064949
v 0.022781 -0.019131 0.024303
v -0.015010 -0.023406 0.044274
v -0.002170 0.031503 0.044986
v 0.004237 -0.031974 0.036430
v -0.005738 0.017951 0.062815
v 0.017794 -0.025550 0.044278
v 0.016361 0.023655 0.025732
v 0.017794 -0.001304 0.061390
v -0.032128 -0.005579 0.046412
v 0.024924 0.027216 0.049975
f 46 39 64 
f 1 9 10 
f 1 10 12 
f 10 9 24 
f 9 1 25 
f 12 10 26 
f 15 12 27 
f 12 26 27 
f 1 12 28 
f 5 21 30 
f 1 28 32 
f 16 13 33 
f 7 21 33 
f 13 16 34 
f 31 14 35 
f 4 26 36 
f 31 6 37 
f 20 31 37 
f 18 32 37 
f 24 3 39 
f 3 24 40 
f 24 9 40 
f 9 29 40 
f 29 22 40 
f 8 17 41 
f 28 12 41 
f 37 6 42 
f 18 37 42 
f 11 17 43 
f 37 11 43 
f 20 37 43 
f 38 20 43 
f 34 4 44 
f 13 34 44 
f 4 36 44 
f 36 13 44 
f 7 23 45 
f 35 14 45 
f 23 35 45 
f 7 33 46 
f 33 13 46 
f 13 36 46 
f 36 19 46 
f 19 39 46 
f 5 8 47 
f 8 15 47 
f 21 5 47 
f 22 29 48 
f 6 31 48 
f 35 22 48 
f 31 35 48 
f 29 42 48 
f 42 6 48 
f 21 7 49 
f 30 21 49 
f 7 45 49 
f 9 25 50 
f 25 18 50 
f 29 9 50 
f 18 42 50 
f 42 29 50 
f 8 5 51 
f 17 8 51 
f 5 38 51 
f 43 17 51 
f 38 43 51 
f 25 1 52 
f 18 25 52 
f 32 18 52 
f 1 32 52 
f 10 19 53 
f 26 10 53 
f 19 36 53 
f 36 26 53 
f 5 30 54 
f 31 20 54 
f 38 5 54 
f 20 38 54 
f 26 4 55 
f 15 27 55 
f 27 26 55 
f 17 11 56 
f 41 17 56 
f 28 41 56 
f 2 3 57 
f 23 2 57 
f 22 35 57 
f 35 23 57 
f 3 40 57 
f 40 22 57 
f 15 8 58 
f 12 15 58 
f 8 41 58 
f 41 12 58 
f 14 31 59 
f 45 14 59 
f 30 49 59 
f 49 45 59 
f 54 30 59 
f 31 54 59 
f 4 34 60 
f 34 16 60 
f 47 15 60 
f 16 47 60 
f 55 4 60 
f 15 55 60 
f 19 10 61 
f 10 24 61 
f 39 19 61 
f 24 39 61 
f 16 33 62 
f 33 21 62 
f 21 47 62 
f 47 16 62 
f 32 28 63 
f 11 37 63 
f 37 32 63 
f 56 11 63 
f 28 56 63 
f 3 2 64 
f 2 23 64 
f 23 7 64 
f 39 3 64 
f 7 46 64 
o convex_1
v -0.010733 0.022235 -0.054151
v -0.008593 0.055040 -0.040604
v -0.008593 0.055040 -0.041316
v 0.035626 0.008680 -0.040602
v -0.030696 0.008680 -0.040604
v 0.009231 0.032214 -0.053437
v 0.002813 0.008680 -0.050585
v -0.021430 0.025084 -0.054151
v -0.017860 0.051473 -0.041316
v -0.021430 0.008680 -0.051298
v -0.009308 0.042197 -0.051298
v 0.018504 0.032214 -0.042028
v 0.032771 0.009397 -0.044882
v -0.029987 0.019385 -0.044170
v 0.000680 0.030085 -0.054866
v 0.014225 0.032926 -0.048446
v 0.010662 0.020093 -0.052012
v -0.029272 0.024372 -0.040604
v -0.015005 0.045051 -0.048445
v -0.028563 0.010109 -0.046308
v -0.016435 0.029368 -0.054866
v -0.006454 0.047906 -0.047734
v 0.019219 0.031506 -0.040602
v 0.000680 0.032921 -0.054866
v -0.023569 0.025084 -0.052010
v 0.035626 0.009397 -0.042028
v 0.030632 0.008680 -0.045595
v -0.022145 0.017960 -0.053437
v -0.015720 0.010109 -0.052010
v 0.010662 0.032214 -0.052725
v -0.012872 0.054323 -0.042029
v 0.012801 0.010822 -0.049872
v -0.007169 0.054323 -0.041316
v -0.017860 0.051473 -0.040604
v -0.028563 0.022947 -0.044882
v -0.017860 0.025084 -0.054866
v 0.017795 0.032214 -0.044168
v -0.024993 0.017243 -0.051298
v 0.009231 0.027939 -0.053437
v -0.016435 0.047193 -0.046308
v 0.000680 0.021522 -0.053437
v -0.005745 0.043627 -0.050585
v -0.007878 0.032921 -0.054866
v -0.031418 0.016526 -0.041316
v 0.034195 0.010109 -0.043455
v 0.009946 0.033638 -0.052012
v -0.029987 0.012247 -0.044882
v -0.010017 0.047906 -0.047734
v -0.017860 0.050043 -0.042743
f 95 104 113 
f 68 69 71 
f 71 69 74 
f 74 69 84 
f 72 83 85 
f 83 75 85 
f 69 68 87 
f 82 69 87 
f 70 79 88 
f 79 85 88 
f 87 68 90 
f 76 87 90 
f 68 71 91 
f 90 68 91 
f 77 90 91 
f 71 74 93 
f 74 92 93 
f 77 70 94 
f 66 67 95 
f 67 86 95 
f 71 81 96 
f 91 71 96 
f 81 91 96 
f 67 66 97 
f 86 67 97 
f 66 87 97 
f 87 76 97 
f 73 82 98 
f 87 66 98 
f 82 87 98 
f 66 95 98 
f 95 73 98 
f 82 73 99 
f 78 82 99 
f 89 78 99 
f 79 65 100 
f 72 85 100 
f 85 79 100 
f 92 72 100 
f 65 93 100 
f 93 92 100 
f 76 90 101 
f 97 76 101 
f 80 97 101 
f 74 84 102 
f 78 89 102 
f 89 72 102 
f 92 74 102 
f 72 92 102 
f 70 77 103 
f 79 70 103 
f 81 79 103 
f 77 91 103 
f 91 81 103 
f 83 72 104 
f 72 89 104 
f 95 83 104 
f 65 79 105 
f 81 71 105 
f 79 81 105 
f 93 65 105 
f 71 93 105 
f 86 70 106 
f 70 88 106 
f 88 75 106 
f 85 75 107 
f 88 85 107 
f 75 88 107 
f 69 82 108 
f 82 78 108 
f 90 77 109 
f 77 94 109 
f 94 80 109 
f 101 90 109 
f 80 101 109 
f 70 86 110 
f 94 70 110 
f 80 94 110 
f 97 80 110 
f 86 97 110 
f 84 69 111 
f 102 84 111 
f 78 102 111 
f 69 108 111 
f 108 78 111 
f 75 83 112 
f 83 95 112 
f 95 86 112 
f 86 106 112 
f 106 75 112 
f 73 95 113 
f 99 73 113 
f 89 99 113 
f 104 89 113 
o convex_2
v -0.001460 -0.031974 -0.013500
v 0.005666 0.040775 -0.029899
v 0.005666 0.040775 -0.032755
v -0.037122 -0.002009 -0.037747
v 0.034906 -0.014848 -0.040601
v 0.012087 0.032927 -0.011359
v -0.029271 0.019369 -0.011359
v -0.015725 0.040775 -0.040601
v -0.027849 -0.026263 -0.040601
v 0.028492 -0.018416 -0.011359
v 0.037047 0.007961 -0.040601
v -0.020717 -0.026263 -0.011359
v -0.012155 0.033640 -0.011359
v 0.024211 0.019369 -0.011359
v 0.017079 0.034352 -0.040601
v -0.034263 -0.014136 -0.026332
v -0.029990 0.022937 -0.040601
v 0.036336 -0.004152 -0.026332
v 0.032766 -0.017704 -0.040601
v -0.027849 0.029353 -0.023487
v 0.018501 0.033640 -0.025628
v 0.015650 -0.028407 -0.011359
v -0.027849 -0.027687 -0.027760
v -0.029990 0.002264 -0.011359
v 0.035618 -0.016984 -0.029899
v -0.036404 -0.012712 -0.040601
v -0.004311 0.040056 -0.023487
v -0.012155 -0.031974 -0.011359
v 0.036336 0.009385 -0.034178
v -0.031412 0.022937 -0.027045
v -0.037122 -0.004152 -0.032040
v -0.020006 0.035064 -0.021346
v 0.004954 -0.029119 -0.021346
v 0.027774 0.003688 -0.011359
v 0.019930 0.027216 -0.011359
v -0.025709 -0.026975 -0.039173
v 0.037765 -0.006288 -0.040601
v -0.022857 0.027936 -0.011359
v 0.006384 0.039344 -0.040601
v 0.012798 0.038632 -0.029189
v -0.028560 0.028641 -0.033468
v -0.031412 -0.020559 -0.024199
v 0.037047 0.003688 -0.030614
v 0.001392 0.035064 -0.011359
v 0.018501 0.034352 -0.033468
v -0.027849 -0.008425 -0.011359
v 0.024922 -0.023408 -0.011359
v 0.033484 -0.019135 -0.033468
v 0.007095 0.038632 -0.021346
v -0.032130 -0.022696 -0.031324
v 0.036336 -0.011288 -0.026332
v -0.014295 0.037919 -0.022771
v 0.009946 -0.029831 -0.014213
v -0.030701 0.013665 -0.012787
v -0.025709 0.032208 -0.024915
v -0.027138 -0.027687 -0.036316
v -0.036404 -0.007008 -0.029189
v 0.002103 -0.028407 -0.024915
v 0.012798 0.038632 -0.034891
v 0.037765 0.002983 -0.032755
v -0.032130 -0.021976 -0.040601
v 0.012798 0.037207 -0.022771
v -0.016436 -0.030543 -0.011359
v -0.031412 0.021512 -0.035606
f 143 154 177 
f 115 116 121 
f 121 118 122 
f 119 120 123 
f 118 121 124 
f 123 120 125 
f 120 119 126 
f 119 123 127 
f 124 121 128 
f 121 122 130 
f 122 118 132 
f 123 125 135 
f 125 120 137 
f 117 130 139 
f 130 122 139 
f 115 121 140 
f 114 135 141 
f 135 125 141 
f 120 133 143 
f 117 139 144 
f 143 117 144 
f 127 123 147 
f 123 131 147 
f 119 127 148 
f 127 142 148 
f 142 134 148 
f 122 132 149 
f 118 124 150 
f 138 118 150 
f 120 126 151 
f 133 120 151 
f 126 145 151 
f 121 116 152 
f 128 121 152 
f 116 115 153 
f 121 130 154 
f 143 133 154 
f 136 125 155 
f 142 127 156 
f 127 147 156 
f 147 131 156 
f 126 119 157 
f 140 126 157 
f 124 128 158 
f 142 124 158 
f 134 142 158 
f 153 134 158 
f 125 137 159 
f 137 129 159 
f 155 125 159 
f 129 155 159 
f 123 135 160 
f 138 123 160 
f 138 160 161 
f 132 118 161 
f 118 138 161 
f 160 135 161 
f 115 140 162 
f 153 115 162 
f 157 119 162 
f 140 157 162 
f 129 139 163 
f 136 155 163 
f 155 129 163 
f 131 123 164 
f 123 138 164 
f 138 150 164 
f 140 121 165 
f 126 140 165 
f 145 126 165 
f 121 145 165 
f 135 114 166 
f 114 146 166 
f 146 132 166 
f 132 161 166 
f 161 135 166 
f 137 120 167 
f 120 143 167 
f 143 144 167 
f 145 121 168 
f 133 151 168 
f 151 145 168 
f 121 154 168 
f 154 133 168 
f 114 141 169 
f 141 136 169 
f 122 149 169 
f 149 114 169 
f 129 137 170 
f 139 129 170 
f 144 139 170 
f 137 167 170 
f 167 144 170 
f 146 114 171 
f 132 146 171 
f 149 132 171 
f 114 149 171 
f 152 116 172 
f 128 152 172 
f 116 153 172 
f 158 128 172 
f 153 158 172 
f 124 142 173 
f 150 124 173 
f 142 156 173 
f 156 131 173 
f 131 164 173 
f 164 150 173 
f 139 122 174 
f 136 163 174 
f 163 139 174 
f 169 136 174 
f 122 169 174 
f 119 148 175 
f 148 134 175 
f 134 153 175 
f 153 162 175 
f 162 119 175 
f 125 136 176 
f 141 125 176 
f 136 141 176 
f 130 117 177 
f 117 143 177 
f 154 130 177 
o convex_3
v -0.011447 0.060032 -0.029193
v -0.016438 0.040775 -0.040601
v -0.006455 0.040775 -0.040601
v -0.015013 0.055037 -0.019204
v -0.017864 0.052185 -0.040601
v -0.004316 0.050760 -0.040601
v -0.010022 0.055037 -0.021347
v -0.018580 0.055751 -0.027764
v -0.013586 0.056466 -0.039173
v -0.010735 0.059316 -0.021347
v -0.016438 0.059316 -0.027764
v -0.003602 0.044341 -0.039887
v -0.007883 0.057176 -0.036318
v -0.018580 0.044341 -0.039887
v -0.008596 0.040775 -0.039173
v -0.007169 0.056466 -0.030613
v -0.015013 0.059316 -0.020633
v -0.007883 0.055037 -0.040601
v -0.010735 0.054324 -0.020633
v -0.017864 0.052185 -0.027052
v -0.015727 0.040775 -0.039173
v -0.018580 0.054324 -0.036318
v -0.015013 0.053612 -0.020633
v -0.013586 0.058605 -0.034892
v -0.011447 0.058605 -0.019204
v -0.016438 0.057176 -0.035606
v -0.009309 0.056466 -0.022771
f 187 202 204 
f 180 179 182 
f 180 182 183 
f 180 183 189 
f 178 187 190 
f 182 179 191 
f 179 180 192 
f 189 183 193 
f 183 190 193 
f 190 187 193 
f 185 181 194 
f 187 178 194 
f 188 185 194 
f 178 188 194 
f 183 182 195 
f 182 186 195 
f 190 183 195 
f 180 189 196 
f 189 184 196 
f 192 180 196 
f 181 185 197 
f 191 179 197 
f 185 191 197 
f 179 192 198 
f 197 179 198 
f 185 188 199 
f 182 191 199 
f 191 185 199 
f 196 181 200 
f 192 196 200 
f 181 197 200 
f 198 192 200 
f 197 198 200 
f 188 178 201 
f 178 190 201 
f 195 186 201 
f 190 195 201 
f 194 181 202 
f 187 194 202 
f 181 196 202 
f 196 184 202 
f 186 182 203 
f 182 199 203 
f 199 188 203 
f 188 201 203 
f 201 186 203 
f 184 189 204 
f 193 187 204 
f 189 193 204 
f 202 184 204 
o convex_4
v -0.000038 0.029356 0.000766
v -0.034979 -0.021979 0.002904
v -0.034267 -0.025546 0.000766
v -0.006457 -0.046938 0.011465
v 0.000674 -0.031963 -0.011359
v -0.027135 0.022939 -0.011359
v -0.023572 0.012239 0.011465
v -0.024284 -0.039813 -0.007791
v 0.000674 0.022939 0.011465
v 0.000674 0.034356 -0.011359
v -0.034267 -0.021979 0.011465
v 0.000674 -0.034105 0.011465
v -0.017865 -0.048364 0.011465
v -0.029275 -0.002028 -0.011359
v -0.015728 0.028639 -0.004225
v -0.033555 -0.011279 0.011465
v -0.016440 -0.044797 -0.001372
v -0.030703 -0.034105 -0.004225
v -0.029991 0.015805 -0.011359
v -0.019292 -0.028404 -0.011359
v -0.009309 0.022222 0.010750
v -0.010733 0.033631 -0.010644
v -0.027851 -0.039097 -0.000660
v -0.009309 -0.049080 0.010750
v -0.027851 0.015805 -0.002083
v -0.020004 0.020797 0.004331
v -0.034979 -0.015562 0.008609
v -0.032131 -0.029829 0.006471
v -0.021432 0.028639 -0.010644
v -0.024284 -0.042663 -0.003513
v -0.019292 -0.041955 -0.006366
v -0.015016 -0.049797 0.010750
v -0.025711 -0.038388 -0.007791
v -0.026423 0.007247 0.011465
v -0.020004 -0.046230 0.011465
v 0.000674 -0.034813 0.004331
v -0.015728 0.018656 0.011465
v -0.029991 0.002972 -0.011359
v -0.023572 0.022222 -0.002800
v -0.012876 -0.031963 -0.011359
v -0.003605 0.023647 0.010750
v -0.029275 0.018664 -0.010644
v -0.005745 0.033631 -0.008506
v -0.028563 -0.036246 -0.006366
v -0.027851 -0.009146 -0.011359
v -0.010021 0.027923 0.000766
v -0.012876 0.032914 -0.011359
v -0.032843 -0.028404 -0.002083
v -0.032131 -0.026971 0.011465
v -0.034979 -0.016987 0.004331
v -0.013589 0.022931 0.007184
v -0.020004 -0.040530 -0.007791
v -0.032843 -0.029829 0.002189
v -0.020720 -0.044097 -0.002800
v 0.000674 0.032923 -0.006366
v -0.027135 -0.039813 -0.004938
f 248 237 260 
f 211 208 213 
f 209 210 214 
f 213 209 214 
f 206 207 215 
f 208 211 215 
f 209 213 216 
f 213 208 216 
f 208 215 217 
f 210 209 218 
f 215 211 220 
f 207 206 223 
f 210 218 223 
f 218 209 224 
f 209 208 228 
f 221 209 228 
f 206 215 231 
f 215 220 231 
f 219 226 233 
f 230 219 233 
f 217 227 234 
f 209 221 235 
f 208 217 236 
f 228 208 236 
f 221 228 236 
f 217 234 236 
f 224 212 237 
f 220 211 238 
f 211 229 238 
f 229 220 238 
f 217 215 239 
f 227 217 239 
f 232 227 239 
f 208 209 240 
f 216 208 240 
f 209 216 240 
f 211 213 241 
f 213 225 241 
f 230 211 241 
f 218 222 242 
f 207 223 242 
f 223 218 242 
f 210 229 243 
f 229 211 243 
f 211 230 243 
f 233 210 243 
f 230 233 243 
f 224 209 244 
f 212 224 244 
f 213 205 245 
f 225 213 245 
f 210 223 246 
f 229 210 246 
f 220 229 246 
f 231 220 246 
f 223 231 246 
f 214 226 247 
f 245 205 247 
f 222 218 248 
f 237 248 249 
f 218 224 249 
f 224 237 249 
f 248 218 249 
f 226 219 250 
f 225 245 250 
f 247 226 250 
f 245 247 250 
f 214 210 251 
f 226 214 251 
f 233 226 251 
f 210 233 251 
f 222 207 252 
f 207 242 252 
f 242 222 252 
f 215 232 253 
f 239 215 253 
f 232 239 253 
f 223 206 254 
f 206 231 254 
f 231 223 254 
f 219 230 255 
f 241 225 255 
f 230 241 255 
f 250 219 255 
f 225 250 255 
f 209 235 256 
f 235 212 256 
f 244 209 256 
f 212 244 256 
f 215 207 257 
f 207 222 257 
f 222 227 257 
f 232 215 257 
f 227 232 257 
f 234 212 258 
f 212 235 258 
f 235 221 258 
f 221 236 258 
f 236 234 258 
f 205 213 259 
f 213 214 259 
f 247 205 259 
f 214 247 259 
f 227 222 260 
f 212 234 260 
f 234 227 260 
f 237 212 260 
f 222 248 260 
o convex_5
v -0.012159 -0.055509 0.018596
v -0.012159 -0.035540 0.012179
v -0.012159 -0.035540 0.011466
v 0.000677 -0.050516 0.013606
v -0.005030 -0.041962 0.023588
v -0.020005 -0.045529 0.011466
v -0.014298 -0.043386 0.022874
v -0.004316 -0.056221 0.012179
v -0.005030 -0.051230 0.022162
v -0.019291 -0.035540 0.012179
v -0.000751 -0.043386 0.020022
v -0.014298 -0.049092 0.022874
v -0.007170 -0.038395 0.021448
v -0.012159 -0.056221 0.013606
v -0.006456 -0.040536 0.011466
v -0.000037 -0.049092 0.020022
v -0.005030 -0.056937 0.015032
v -0.017153 -0.047665 0.019310
v -0.015012 -0.054083 0.017171
v -0.002889 -0.040536 0.017884
v -0.010021 -0.048377 0.024301
v -0.011445 -0.040536 0.022874
v -0.020719 -0.039824 0.012179
v -0.003604 -0.046239 0.023588
v 0.000677 -0.046949 0.015745
v -0.015724 -0.049804 0.011466
v 0.000677 -0.051942 0.015745
v -0.001465 -0.053371 0.012179
v -0.010733 -0.043386 0.024301
v -0.012872 -0.051942 0.022162
v -0.005744 -0.047665 0.011466
v -0.005030 -0.039107 0.021448
v -0.016436 -0.044100 0.020736
v -0.005030 -0.054083 0.019310
f 287 276 294 
f 262 263 270 
f 263 266 270 
f 262 270 273 
f 266 263 275 
f 261 274 277 
f 274 268 277 
f 272 278 279 
f 274 261 279 
f 266 274 279 
f 278 266 279 
f 275 263 280 
f 270 267 282 
f 265 273 282 
f 273 270 282 
f 270 266 283 
f 266 278 283 
f 271 265 284 
f 269 276 284 
f 276 271 284 
f 281 269 284 
f 264 275 285 
f 271 276 285 
f 280 271 285 
f 275 280 285 
f 274 266 286 
f 268 274 286 
f 266 275 286 
f 277 268 287 
f 264 285 287 
f 285 276 287 
f 275 264 288 
f 264 287 288 
f 287 268 288 
f 267 272 289 
f 272 281 289 
f 282 267 289 
f 265 282 289 
f 284 265 289 
f 281 284 289 
f 261 269 290 
f 272 279 290 
f 279 261 290 
f 269 281 290 
f 281 272 290 
f 268 286 291 
f 286 275 291 
f 275 288 291 
f 288 268 291 
f 263 262 292 
f 265 271 292 
f 262 273 292 
f 273 265 292 
f 280 263 292 
f 271 280 292 
f 267 270 293 
f 272 267 293 
f 278 272 293 
f 270 283 293 
f 283 278 293 
f 269 261 294 
f 276 269 294 
f 261 277 294 
f 277 287 294 
o convex_6
v -0.002891 0.027937 0.024301
v -0.034271 -0.020551 0.011466
v -0.034271 -0.020551 0.012179
v 0.000677 -0.034114 0.011466
v 0.000677 0.022944 0.011466
v 0.000677 -0.027694 0.024301
v -0.024997 0.012242 0.024301
v -0.024282 0.010808 0.011466
v -0.020002 -0.022695 0.024301
v -0.027135 -0.031253 0.012179
v 0.000677 0.027937 0.024301
v -0.014303 0.024365 0.023588
v -0.031414 -0.020551 0.017884
v -0.012165 0.020089 0.011466
v -0.033552 -0.011999 0.011466
v -0.025708 -0.007717 0.024301
v -0.008597 -0.029832 0.020736
v -0.003606 -0.033397 0.015745
v -0.026423 0.007243 0.024301
v -0.012876 -0.026267 0.024301
v -0.029273 -0.026267 0.016458
v -0.022140 0.017229 0.024301
v -0.011453 -0.034114 0.011466
v -0.033552 -0.014137 0.014319
v -0.006455 0.022227 0.011466
v -0.019291 0.015807 0.011466
v -0.030703 -0.028398 0.011466
v -0.007174 0.027220 0.023588
v -0.026423 0.006539 0.011466
v -0.028561 -0.020551 0.020022
v -0.007885 -0.032681 0.016458
v 0.000677 -0.034114 0.013606
v -0.016444 0.022938 0.023588
f 306 320 327 
f 298 296 299 
f 298 299 300 
f 300 295 301 
f 299 296 302 
f 300 301 303 
f 299 295 305 
f 295 300 305 
f 300 299 305 
f 299 302 308 
f 296 297 309 
f 302 296 309 
f 303 301 310 
f 300 311 312 
f 301 309 313 
f 310 301 313 
f 307 310 313 
f 300 303 314 
f 311 300 314 
f 304 311 314 
f 307 297 315 
f 314 303 315 
f 304 314 315 
f 301 295 316 
f 302 301 316 
f 295 306 316 
f 296 298 317 
f 297 307 318 
f 309 297 318 
f 307 313 318 
f 313 309 318 
f 299 308 319 
f 308 302 320 
f 306 308 320 
f 297 296 321 
f 315 297 321 
f 304 315 321 
f 296 317 321 
f 317 304 321 
f 295 299 322 
f 306 295 322 
f 308 306 322 
f 299 319 322 
f 319 308 322 
f 301 302 323 
f 309 301 323 
f 302 309 323 
f 303 310 324 
f 310 307 324 
f 307 315 324 
f 315 303 324 
f 311 304 325 
f 312 311 325 
f 304 317 325 
f 317 312 325 
f 298 300 326 
f 300 312 326 
f 317 298 326 
f 312 317 326 
f 302 316 327 
f 316 306 327 
f 320 302 327 
o convex_7
v 0.017080 0.028646 -0.007792
v 0.000680 -0.034821 0.005757
v 0.024924 -0.039107 0.007184
v 0.002818 -0.031966 -0.011359
v 0.000680 0.025072 0.007898
v 0.028493 -0.019123 -0.011359
v 0.030630 -0.001311 0.007898
v 0.000680 0.034356 -0.011359
v 0.025639 0.014380 -0.011359
v 0.030630 -0.039107 0.007898
v 0.022786 0.016522 0.007898
v 0.030630 -0.029111 -0.007078
v 0.000680 -0.034821 0.007898
v 0.000680 -0.031966 -0.011359
v 0.029918 -0.005583 -0.009215
v 0.012802 0.023656 0.007898
v 0.021358 0.025080 -0.011359
v 0.010662 0.032925 -0.009932
v 0.030630 -0.034109 -0.001376
v 0.002818 0.031494 -0.003511
v 0.024924 0.015091 0.002193
v 0.016368 -0.028407 -0.011359
v 0.029918 -0.039107 0.006471
v 0.028493 0.001537 -0.011359
v 0.018508 0.020801 0.007898
v 0.000680 -0.034109 -0.001376
v 0.030630 -0.010566 -0.005653
v 0.015655 0.030782 -0.011359
v 0.006386 0.028646 0.001478
v 0.023499 0.020801 -0.009932
v 0.019221 0.027934 -0.010644
v 0.024211 -0.024121 -0.011359
v 0.014230 0.027934 -0.002086
v 0.004246 0.025792 0.007184
v 0.025639 0.011525 0.007898
v 0.000680 0.034356 -0.009932
f 347 345 363 
f 329 332 335 
f 333 331 335 
f 333 335 336 
f 334 332 337 
f 332 334 338 
f 334 337 339 
f 329 330 340 
f 332 329 340 
f 330 337 340 
f 337 332 340 
f 329 335 341 
f 335 331 341 
f 339 333 342 
f 332 338 343 
f 336 335 344 
f 331 339 346 
f 339 337 346 
f 344 338 348 
f 331 333 349 
f 339 331 349 
f 337 330 350 
f 330 341 350 
f 341 331 350 
f 331 346 350 
f 346 337 350 
f 333 336 351 
f 336 334 351 
f 342 333 351 
f 334 342 351 
f 343 338 352 
f 330 329 353 
f 341 330 353 
f 329 341 353 
f 334 339 354 
f 342 334 354 
f 339 342 354 
f 344 335 355 
f 335 345 355 
f 345 328 355 
f 343 345 356 
f 345 347 356 
f 334 336 357 
f 336 344 357 
f 348 334 357 
f 344 348 357 
f 338 344 358 
f 328 352 358 
f 352 338 358 
f 355 328 358 
f 344 355 358 
f 333 339 359 
f 349 333 359 
f 339 349 359 
f 328 345 360 
f 345 343 360 
f 352 328 360 
f 343 352 360 
f 332 343 361 
f 347 332 361 
f 343 356 361 
f 356 347 361 
f 338 334 362 
f 334 348 362 
f 348 338 362 
f 335 332 363 
f 345 335 363 
f 332 347 363 
o convex_8
v 0.040616 -0.022696 -0.000660
v 0.031348 -0.001306 0.007898
v 0.030633 -0.001306 0.007898
v 0.030633 -0.039107 0.007898
v 0.030633 -0.024128 -0.008505
v 0.040616 -0.006301 0.007898
v 0.039904 -0.009154 -0.002086
v 0.037050 -0.025553 -0.009219
v 0.036337 -0.033394 0.007898
v 0.034914 -0.031973 -0.003512
v 0.039904 -0.017716 -0.007079
v 0.030633 -0.027688 -0.008505
v 0.037765 -0.007015 -0.000660
v 0.039191 -0.026267 -0.004940
v 0.040616 -0.005587 0.002905
v 0.041331 -0.017716 -0.002800
v 0.040616 -0.013431 0.007185
v 0.032060 -0.019855 -0.007079
v 0.034200 -0.036964 0.006471
v 0.037765 -0.002020 0.007185
v 0.034914 -0.021986 -0.009219
v 0.030633 -0.001306 0.007185
v 0.030633 -0.034111 -0.001371
v 0.041331 -0.010578 -0.000660
v 0.034914 -0.028406 -0.008505
v 0.039904 -0.022696 -0.007079
v 0.039191 -0.005587 0.000766
f 385 383 390 
f 365 366 367 
f 367 366 368 
f 365 367 369 
f 369 367 372 
f 367 368 375 
f 364 372 377 
f 369 372 380 
f 372 364 380 
f 364 379 380 
f 372 367 382 
f 367 373 382 
f 377 372 382 
f 373 377 382 
f 365 369 383 
f 369 378 383 
f 370 374 384 
f 374 371 384 
f 375 368 384 
f 371 375 384 
f 376 370 384 
f 368 381 384 
f 381 376 384 
f 366 365 385 
f 368 366 385 
f 381 368 385 
f 376 381 385 
f 365 383 385 
f 373 367 386 
f 367 375 386 
f 374 370 387 
f 378 369 387 
f 370 378 387 
f 379 374 387 
f 369 380 387 
f 380 379 387 
f 375 371 388 
f 371 377 388 
f 377 373 388 
f 373 386 388 
f 386 375 388 
f 371 374 389 
f 364 377 389 
f 377 371 389 
f 379 364 389 
f 374 379 389 
f 370 376 390 
f 378 370 390 
f 383 378 390 
f 376 385 390 
o convex_9
v 0.036337 0.000825 0.015034
v 0.000677 -0.034827 0.007898
v 0.002108 -0.034827 0.007898
v 0.000677 -0.027694 0.024303
v 0.000677 0.025080 0.007898
v 0.002820 0.027937 0.024303
v 0.035622 -0.026982 0.007898
v 0.027779 -0.013429 0.024303
v 0.020652 0.018660 0.007898
v 0.019936 0.018660 0.024303
v 0.040618 -0.007002 0.007898
v 0.012805 -0.026982 0.022162
v 0.037049 -0.008434 0.017170
v 0.000677 0.027937 0.024303
v 0.006386 -0.033396 0.013605
v 0.022790 -0.019849 0.024303
v 0.026356 0.004394 0.024303
v 0.013517 0.022942 0.007898
v 0.013517 0.024367 0.024303
v 0.032768 -0.026982 0.011468
v 0.034910 0.003681 0.010752
v 0.037760 -0.013429 0.014318
v 0.036337 -0.004152 0.017883
v 0.008524 -0.029832 0.020019
v 0.000677 -0.034108 0.013605
v 0.039899 -0.012716 0.010039
v 0.027067 -0.015567 0.024303
v 0.038476 -0.002026 0.007898
v 0.039187 -0.004152 0.012896
v 0.013517 -0.024838 0.024303
v 0.024217 0.010814 0.024303
v 0.006386 0.027218 0.023588
v 0.035622 -0.026982 0.008613
v 0.011378 0.023655 0.007898
v 0.037760 0.000112 0.012183
v 0.006386 -0.034108 0.009326
v 0.034910 -0.004864 0.019306
v 0.009240 -0.031970 0.015744
f 414 415 428 
f 393 392 395 
f 392 394 395 
f 393 395 397 
f 396 394 398 
f 397 395 399 
f 396 398 400 
f 397 399 401 
f 395 394 404 
f 394 396 404 
f 396 395 404 
f 398 394 406 
f 400 398 407 
f 399 395 408 
f 396 400 409 
f 400 399 409 
f 399 408 409 
f 399 400 411 
f 402 394 414 
f 410 402 414 
f 392 393 415 
f 394 392 415 
f 414 394 415 
f 397 401 416 
f 403 412 416 
f 403 398 417 
f 398 406 417 
f 406 410 417 
f 412 403 417 
f 401 399 418 
f 399 411 418 
f 391 413 419 
f 413 403 419 
f 416 401 419 
f 403 416 419 
f 394 402 420 
f 406 394 420 
f 402 410 420 
f 410 406 420 
f 391 400 421 
f 400 407 421 
f 413 391 421 
f 407 413 421 
f 396 409 422 
f 409 408 422 
f 410 405 423 
f 397 416 423 
f 416 412 423 
f 417 410 423 
f 412 417 423 
f 395 396 424 
f 408 395 424 
f 396 422 424 
f 422 408 424 
f 400 391 425 
f 411 400 425 
f 401 418 425 
f 418 411 425 
f 391 419 425 
f 419 401 425 
f 393 397 426 
f 415 393 426 
f 405 415 426 
f 397 423 426 
f 423 405 426 
f 398 403 427 
f 407 398 427 
f 403 413 427 
f 413 407 427 
f 405 410 428 
f 410 414 428 
f 415 405 428 
o convex_10
v -0.030703 0.008680 -0.040601
v -0.020722 0.007966 -0.051300
v -0.021433 0.006540 -0.050584
v -0.008597 -0.000592 -0.040601
v -0.034268 -0.000592 -0.041316
v -0.008597 0.008680 -0.040601
v -0.008597 -0.000592 -0.049159
v -0.008597 0.008680 -0.050584
v -0.019294 -0.000592 -0.049159
v -0.027848 0.008680 -0.046305
v -0.034268 -0.000592 -0.040601
v -0.031414 -0.000592 -0.043456
v -0.014304 0.007253 -0.051300
f 435 437 441 
f 429 432 434 
f 434 432 435 
f 432 433 435 
f 429 434 436 
f 434 435 436 
f 431 430 437 
f 435 433 437 
f 433 429 438 
f 436 430 438 
f 429 436 438 
f 432 429 439 
f 429 433 439 
f 433 432 439 
f 430 431 440 
f 431 437 440 
f 437 433 440 
f 433 438 440 
f 438 430 440 
f 430 436 441 
f 436 435 441 
f 437 430 441 
o convex_11
v 0.000679 0.007966 -0.050586
v 0.013516 0.008680 -0.040602
v 0.013516 -0.011291 -0.040602
v -0.008595 0.008680 -0.040602
v -0.008595 -0.011291 -0.046306
v 0.013516 -0.009150 -0.046306
v -0.008595 -0.011291 -0.040602
v -0.008595 0.008680 -0.050586
v 0.012801 0.008680 -0.049158
v -0.007880 -0.001306 -0.049158
v 0.012087 -0.011291 -0.045594
v 0.013516 0.008680 -0.048445
v -0.007166 -0.009864 -0.047019
v 0.007808 0.007253 -0.049872
f 442 450 455 
f 444 443 445 
f 443 444 447 
f 444 445 448 
f 445 446 448 
f 446 444 448 
f 445 443 449 
f 446 445 449 
f 449 443 450 
f 442 449 450 
f 442 447 451 
f 449 442 451 
f 446 449 451 
f 444 446 452 
f 447 444 452 
f 443 447 453 
f 450 443 453 
f 447 450 453 
f 446 451 454 
f 451 447 454 
f 452 446 454 
f 447 452 454 
f 447 442 455 
f 450 447 455 
o convex_12
v 0.014229 -0.021280 -0.044169
v 0.013516 -0.032685 -0.052726
v 0.023499 -0.036964 -0.052726
v 0.021364 -0.018423 -0.053439
v 0.032060 -0.018423 -0.041314
v 0.032060 -0.039817 -0.047022
v 0.013516 -0.031259 -0.043455
v 0.032060 -0.035540 -0.052011
v 0.013516 -0.018423 -0.052011
v 0.032060 -0.035540 -0.043455
v 0.032060 -0.018423 -0.045595
v 0.013516 -0.018423 -0.045595
v 0.030633 -0.040533 -0.051298
v 0.013516 -0.032685 -0.045595
v 0.027777 -0.019139 -0.041314
v 0.013516 -0.031259 -0.053439
v 0.030633 -0.038393 -0.052726
v 0.031346 -0.032685 -0.042742
v 0.023499 -0.037676 -0.048445
v 0.022076 -0.019139 -0.053439
f 472 471 475 
f 460 461 463 
f 460 459 464 
f 457 462 464 
f 461 460 465 
f 462 461 465 
f 459 460 466 
f 460 463 466 
f 462 456 467 
f 460 464 467 
f 464 462 467 
f 457 458 468 
f 463 461 468 
f 461 462 469 
f 462 457 469 
f 456 462 470 
f 467 456 470 
f 460 467 470 
f 458 457 471 
f 457 464 471 
f 464 459 471 
f 468 458 472 
f 463 468 472 
f 458 471 472 
f 465 460 473 
f 462 465 473 
f 470 462 473 
f 460 470 473 
f 457 468 474 
f 468 461 474 
f 461 469 474 
f 469 457 474 
f 459 466 475 
f 466 463 475 
f 471 459 475 
f 463 472 475 
o convex_13
v 0.044182 -0.024132 -0.045595
v 0.032060 -0.040533 -0.052011
v 0.037053 -0.037676 -0.053439
v 0.032060 -0.018423 -0.045595
v 0.041331 -0.018423 -0.052726
v 0.037053 -0.035540 -0.043455
v 0.045611 -0.033400 -0.051298
v 0.032060 -0.018423 -0.041314
v 0.044896 -0.018423 -0.052726
v 0.032060 -0.039817 -0.046309
v 0.041331 -0.036964 -0.046309
v 0.041331 -0.019139 -0.044169
v 0.042044 -0.031971 -0.044169
v 0.037053 -0.040533 -0.051298
v 0.032060 -0.036252 -0.052011
v 0.046324 -0.029831 -0.048445
v 0.032060 -0.033400 -0.042742
v 0.045611 -0.029125 -0.052726
v 0.044896 -0.018423 -0.049158
v 0.038481 -0.029831 -0.042742
v 0.039903 -0.037676 -0.053439
v 0.036339 -0.039817 -0.046309
v 0.046324 -0.022706 -0.052011
v 0.042757 -0.036964 -0.051298
f 496 482 499 
f 479 477 483 
f 480 479 483 
f 478 480 484 
f 480 483 484 
f 483 477 485 
f 481 486 488 
f 476 487 488 
f 485 477 489 
f 478 477 490 
f 477 479 490 
f 479 480 490 
f 480 478 490 
f 486 482 491 
f 476 488 491 
f 488 486 491 
f 485 481 492 
f 483 485 492 
f 484 483 494 
f 487 476 494 
f 483 487 494 
f 476 491 494 
f 487 483 495 
f 481 488 495 
f 488 487 495 
f 492 481 495 
f 483 492 495 
f 477 478 496 
f 478 484 496 
f 489 477 496 
f 493 482 496 
f 484 493 496 
f 481 485 497 
f 486 481 497 
f 485 489 497 
f 489 486 497 
f 491 482 498 
f 482 493 498 
f 493 484 498 
f 484 494 498 
f 494 491 498 
f 482 486 499 
f 486 489 499 
f 489 496 499 
o convex_14
v 0.034197 -0.042671 0.017169
v 0.017795 -0.044097 0.012179
v 0.018508 -0.045523 0.010752
v 0.035626 -0.026986 0.007898
v 0.017795 -0.026986 0.017169
v 0.017795 -0.026986 0.007898
v 0.028490 -0.048376 0.008613
v 0.029205 -0.035543 0.021450
v 0.020650 -0.043383 0.019309
v 0.036339 -0.033402 0.007898
v 0.032772 -0.046949 0.013606
v 0.024929 -0.049092 0.012179
v 0.029205 -0.042671 0.020735
v 0.022077 -0.036257 0.021450
v 0.030630 -0.033402 0.020021
v 0.031343 -0.026986 0.012891
v 0.024217 -0.048376 0.008613
v 0.034197 -0.035543 0.017169
v 0.018508 -0.041243 0.018597
v 0.033484 -0.046235 0.011465
v 0.024929 -0.039817 0.007898
v 0.019222 -0.046949 0.012891
v 0.028490 -0.046235 0.017169
v 0.036339 -0.027698 0.008613
v 0.032059 -0.041957 0.020021
v 0.019937 -0.046235 0.009326
v 0.022789 -0.040531 0.021450
v 0.027067 -0.031976 0.020021
v 0.017795 -0.042671 0.016457
v 0.019222 -0.039105 0.020021
v 0.029205 -0.049092 0.011465
v 0.034912 -0.040531 0.015742
v 0.024217 -0.046235 0.017169
f 522 512 532 
f 502 501 505 
f 504 503 505 
f 501 504 505 
f 505 503 509 
f 503 504 515 
f 506 509 519 
f 500 510 519 
f 505 509 520 
f 509 506 520 
f 516 505 520 
f 506 516 520 
f 501 502 521 
f 516 511 521 
f 509 503 523 
f 503 515 523 
f 515 514 523 
f 514 517 523 
f 510 500 524 
f 507 512 524 
f 514 507 524 
f 500 517 524 
f 517 514 524 
f 522 510 524 
f 512 522 524 
f 502 505 525 
f 505 516 525 
f 521 502 525 
f 516 521 525 
f 512 507 526 
f 508 512 526 
f 507 513 526 
f 504 513 527 
f 513 507 527 
f 507 514 527 
f 515 504 527 
f 514 515 527 
f 504 501 528 
f 518 504 528 
f 508 518 528 
f 501 521 528 
f 521 508 528 
f 513 504 529 
f 504 518 529 
f 518 508 529 
f 508 526 529 
f 526 513 529 
f 516 506 530 
f 511 516 530 
f 506 519 530 
f 519 510 530 
f 522 511 530 
f 510 522 530 
f 517 500 531 
f 500 519 531 
f 519 509 531 
f 509 523 531 
f 523 517 531 
f 512 508 532 
f 508 521 532 
f 521 511 532 
f 511 522 532 
o convex_15
v -0.022146 -0.026270 -0.041315
v -0.029991 -0.037680 -0.049160
v -0.029991 -0.037680 -0.044168
v -0.029991 -0.021276 -0.047020
v -0.021433 -0.037680 -0.047020
v -0.029991 -0.021276 -0.040601
v -0.021433 -0.021276 -0.045593
v -0.021433 -0.036253 -0.042741
v -0.021433 -0.021276 -0.042028
v -0.026424 -0.026983 -0.040601
v -0.028565 -0.037680 -0.043455
v -0.023572 -0.021990 -0.040601
v -0.029278 -0.036966 -0.049160
f 539 537 545 
f 534 535 536 
f 535 534 537 
f 536 535 538 
f 536 538 539 
f 537 539 540 
f 539 538 541 
f 540 539 541 
f 533 540 541 
f 540 533 542 
f 540 542 543 
f 535 537 543 
f 538 535 543 
f 537 540 543 
f 542 538 543 
f 533 541 544 
f 541 538 544 
f 542 533 544 
f 538 542 544 
f 534 536 545 
f 537 534 545 
f 536 539 545 
o convex_16
v -0.008595 -0.036967 -0.052725
v 0.013516 -0.020563 -0.044882
v 0.013516 -0.021990 -0.044169
v -0.008595 -0.021277 -0.045596
v -0.008595 -0.034826 -0.043454
v 0.013516 -0.031971 -0.053439
v -0.008595 -0.020563 -0.052725
v 0.013516 -0.031971 -0.044169
v 0.013516 -0.020563 -0.052011
v -0.007880 -0.036967 -0.046307
v 0.011375 -0.033401 -0.052011
v -0.008595 -0.031971 -0.053439
v -0.007166 -0.025557 -0.044169
v 0.013516 -0.028408 -0.043454
v 0.013516 -0.032686 -0.045596
v -0.008595 -0.020563 -0.046307
v 0.013516 -0.029834 -0.053439
v -0.006454 -0.036252 -0.053439
v -0.007880 -0.036252 -0.044169
f 555 560 564 
f 548 547 549 
f 549 546 550 
f 547 548 551 
f 546 549 552 
f 551 548 553 
f 547 551 554 
f 552 547 554 
f 550 546 555 
f 555 546 556 
f 546 552 557 
f 548 549 558 
f 549 550 558 
f 558 550 559 
f 550 553 559 
f 553 548 559 
f 548 558 559 
f 551 553 560 
f 555 556 560 
f 556 551 560 
f 549 547 561 
f 547 552 561 
f 552 549 561 
f 554 551 562 
f 552 554 562 
f 551 557 562 
f 557 552 562 
f 556 546 563 
f 551 556 563 
f 546 557 563 
f 557 551 563 
f 553 550 564 
f 550 555 564 
f 560 553 564 
o convex_17
v 0.005668 -0.018422 -0.040602
v -0.008595 -0.020563 -0.053438
v -0.008595 -0.014858 -0.053438
v 0.013516 -0.011291 -0.053438
v -0.008595 -0.011291 -0.040602
v 0.013516 -0.020563 -0.052011
v 0.013516 -0.011291 -0.040602
v -0.008595 -0.018422 -0.040602
v 0.013516 -0.020563 -0.044882
v -0.008595 -0.011291 -0.047020
v -0.008595 -0.020563 -0.046308
v 0.013516 -0.016995 -0.053438
v 0.013516 -0.015571 -0.040602
v -0.005028 -0.019136 -0.040602
f 575 573 578 
f 566 567 568 
f 567 566 569 
f 570 568 571 
f 569 565 571 
f 568 569 571 
f 565 569 572 
f 569 566 572 
f 566 570 573 
f 570 571 573 
f 568 567 574 
f 569 568 574 
f 567 569 574 
f 572 566 575 
f 566 573 575 
f 566 568 576 
f 570 566 576 
f 568 570 576 
f 571 565 577 
f 573 571 577 
f 565 573 577 
f 565 572 578 
f 573 565 578 
f 572 575 578 
o convex_18
v 0.020648 0.005109 -0.048447
v 0.013516 -0.018423 -0.052013
v 0.013516 -0.018423 -0.048447
v 0.024214 -0.018423 -0.048447
v 0.027780 0.007966 -0.054152
v 0.017795 0.001547 -0.054152
v 0.021359 -0.018423 -0.053439
v 0.027780 0.007251 -0.048447
v 0.014943 -0.005582 -0.048447
v 0.013516 -0.011286 -0.053439
v 0.027780 0.003686 -0.054152
v 0.016370 -0.012001 -0.054152
v 0.024214 0.007966 -0.053439
v 0.027780 0.000119 -0.048447
v 0.022786 -0.018423 -0.052725
v 0.018510 0.003686 -0.051300
v 0.013516 -0.016282 -0.053439
v 0.024214 -0.018423 -0.049874
f 593 589 596 
f 581 580 582 
f 579 581 582 
f 582 580 585 
f 579 582 586 
f 581 579 587 
f 587 584 588 
f 580 581 588 
f 581 587 588 
f 584 583 589 
f 583 586 589 
f 588 584 590 
f 584 589 590 
f 589 585 590 
f 583 584 591 
f 579 586 591 
f 586 583 591 
f 586 582 592 
f 589 586 592 
f 582 585 593 
f 585 589 593 
f 587 579 594 
f 584 587 594 
f 591 584 594 
f 579 591 594 
f 585 580 595 
f 580 588 595 
f 590 585 595 
f 588 590 595 
f 592 582 596 
f 589 592 596 
f 582 593 596 
o convex_19
v 0.032774 -0.017709 -0.040602
v 0.036338 0.008680 -0.040602
v 0.037050 0.007252 -0.040602
v 0.027782 0.007252 -0.048446
v 0.013516 0.008680 -0.040602
v 0.013516 -0.018423 -0.048446
v 0.042758 -0.018423 -0.047019
v 0.013516 -0.014855 -0.040602
v 0.013516 0.008680 -0.048446
v 0.037050 0.000119 -0.047019
v 0.037760 -0.005583 -0.040602
v 0.024928 -0.018423 -0.048446
v 0.029920 -0.018423 -0.040602
v 0.033484 0.008680 -0.044879
v 0.040617 -0.018423 -0.044168
v 0.013516 -0.018423 -0.045593
v 0.040617 -0.008437 -0.047019
v 0.042758 -0.016282 -0.046305
f 603 613 614 
f 599 598 597 
f 601 602 604 
f 601 598 605 
f 600 602 605 
f 602 601 605 
f 598 599 606 
f 599 597 607 
f 602 600 608 
f 600 603 608 
f 603 602 608 
f 597 598 609 
f 598 601 609 
f 602 603 609 
f 601 604 609 
f 605 598 610 
f 600 605 610 
f 598 606 610 
f 606 600 610 
f 607 597 611 
f 597 609 611 
f 609 603 611 
f 604 602 612 
f 602 609 612 
f 609 604 612 
f 603 600 613 
f 606 599 613 
f 600 606 613 
f 599 607 614 
f 607 611 614 
f 611 603 614 
f 613 599 614 
o convex_20
v 0.037049 0.000832 -0.047734
v 0.027780 -0.004161 -0.047734
v 0.039904 -0.018423 -0.052012
v 0.027780 0.007966 -0.054151
v 0.039904 -0.004161 -0.053438
v 0.043470 -0.018423 -0.047021
v 0.027780 0.007251 -0.047021
v 0.037049 -0.018423 -0.047021
v 0.044898 -0.017707 -0.052725
v 0.027780 0.003686 -0.054151
v 0.033489 0.005825 -0.053438
v 0.039904 -0.005582 -0.047021
v 0.041329 -0.016282 -0.053438
v 0.032773 0.005825 -0.047021
v 0.037763 -0.001307 -0.054151
v 0.044898 -0.017707 -0.049160
v 0.039189 -0.002020 -0.050586
v 0.027780 -0.004161 -0.047021
f 622 621 632 
f 618 616 621 
f 616 617 622 
f 617 620 622 
f 620 621 622 
f 620 617 623 
f 617 616 624 
f 616 618 624 
f 621 620 626 
f 623 617 627 
f 617 624 627 
f 618 621 628 
f 615 625 628 
f 625 618 628 
f 626 615 628 
f 621 626 628 
f 619 623 629 
f 624 618 629 
f 625 619 629 
f 618 625 629 
f 623 627 629 
f 627 624 629 
f 620 623 630 
f 626 620 630 
f 626 630 631 
f 623 619 631 
f 625 615 631 
f 619 625 631 
f 615 626 631 
f 630 623 631 
f 621 616 632 
f 616 622 632 
o convex_21
v -0.037837 -0.036253 -0.052724
v -0.029993 -0.021276 -0.040601
v -0.031419 -0.021276 -0.040601
v -0.037123 -0.021276 -0.054150
v -0.029993 -0.037680 -0.049871
v -0.033558 -0.021276 -0.054150
v -0.030706 -0.037680 -0.044169
v -0.037123 -0.034114 -0.048445
v -0.034270 -0.037680 -0.054150
v -0.037123 -0.021276 -0.048445
v -0.029993 -0.021276 -0.047732
v -0.034983 -0.036966 -0.046308
v -0.036409 -0.037680 -0.054150
v -0.037837 -0.024129 -0.050585
v -0.029993 -0.037680 -0.044169
f 639 637 647 
f 635 634 636 
f 636 634 638 
f 634 635 639 
f 638 637 641 
f 636 638 641 
f 637 639 641 
f 635 636 642 
f 640 635 642 
f 634 637 643 
f 638 634 643 
f 637 638 643 
f 639 635 644 
f 635 640 644 
f 640 633 644 
f 633 636 645 
f 636 641 645 
f 641 639 645 
f 639 644 645 
f 644 633 645 
f 636 633 646 
f 633 640 646 
f 642 636 646 
f 640 642 646 
f 637 634 647 
f 634 639 647 
o convex_22
v -0.008596 -0.026272 -0.044169
v -0.021431 -0.049092 -0.052724
v -0.021431 -0.049092 -0.048445
v -0.021431 -0.021276 -0.042030
v -0.015014 -0.021276 -0.053439
v -0.008596 -0.036965 -0.053439
v -0.008596 -0.035538 -0.043456
v -0.008596 -0.021276 -0.052724
v -0.021431 -0.044809 -0.044169
v -0.021431 -0.021276 -0.046309
v -0.016440 -0.047665 -0.049159
v -0.021431 -0.045525 -0.053439
v -0.008596 -0.021276 -0.045595
v -0.010735 -0.041958 -0.052012
v -0.020718 -0.029123 -0.042030
v -0.018578 -0.046952 -0.045595
v -0.018578 -0.048378 -0.053439
v -0.019292 -0.021989 -0.042030
f 662 654 665 
f 649 650 651 
f 653 648 654 
f 652 651 655 
f 653 652 655 
f 648 653 655 
f 651 650 656 
f 649 651 657 
f 651 652 657 
f 652 653 659 
f 649 657 659 
f 657 652 659 
f 648 655 660 
f 655 651 660 
f 653 654 661 
f 654 658 661 
f 651 656 662 
f 656 654 662 
f 656 650 663 
f 654 656 663 
f 650 658 663 
f 658 654 663 
f 650 649 664 
f 658 650 664 
f 649 659 664 
f 659 653 664 
f 653 661 664 
f 661 658 664 
f 654 648 665 
f 648 660 665 
f 660 651 665 
f 651 662 665 
o convex_23
v -0.032842 -0.003447 -0.054150
v -0.037124 -0.021276 -0.054150
v -0.033555 -0.021276 -0.054150
v -0.032129 -0.021276 -0.040601
v -0.023572 -0.003447 -0.054150
v -0.035695 -0.001307 -0.040601
v -0.023572 -0.021276 -0.040601
v -0.023572 -0.000592 -0.040601
v -0.023572 -0.021276 -0.045595
v -0.028567 -0.000592 -0.053438
v -0.036409 -0.012001 -0.040601
v -0.035695 -0.009867 -0.054150
v -0.037124 -0.021276 -0.048445
v -0.036409 -0.002732 -0.041316
v -0.023572 -0.000592 -0.053438
v -0.034983 -0.000592 -0.041316
v -0.037124 -0.016996 -0.053438
f 679 677 682 
f 668 667 666 
f 667 668 669 
f 668 666 670 
f 669 668 672 
f 671 669 672 
f 672 670 673 
f 671 672 673 
f 668 670 674 
f 670 672 674 
f 672 668 674 
f 670 666 675 
f 669 671 676 
f 666 667 677 
f 667 669 678 
f 669 676 678 
f 678 676 679 
f 671 666 679 
f 676 671 679 
f 666 677 679 
f 673 670 680 
f 670 675 680 
f 675 673 680 
f 666 671 681 
f 671 673 681 
f 675 666 681 
f 673 675 681 
f 677 667 682 
f 667 678 682 
f 678 679 682 
o convex_24
v -0.018579 -0.002020 -0.053438
v -0.023572 -0.021276 -0.045595
v -0.015015 -0.021276 -0.053438
v -0.008595 -0.000592 -0.040601
v -0.023572 -0.000592 -0.040601
v -0.008595 -0.018421 -0.040601
v -0.008595 -0.014854 -0.053438
v -0.023572 -0.001307 -0.054150
v -0.023572 -0.020559 -0.040601
v -0.008595 -0.000592 -0.049159
v -0.008595 -0.021276 -0.046308
v -0.009309 -0.021276 -0.053438
v -0.023572 -0.003447 -0.054150
v -0.009309 -0.016996 -0.054150
v -0.023572 -0.000592 -0.052724
v -0.017865 -0.004160 -0.054150
v -0.022146 -0.021276 -0.041316
v -0.012876 -0.019136 -0.054150
f 695 696 700 
f 686 687 688 
f 686 688 689 
f 684 687 690 
f 687 684 691 
f 688 687 691 
f 687 686 692 
f 686 689 692 
f 683 690 692 
f 684 685 693 
f 689 688 693 
f 693 685 694 
f 689 693 694 
f 685 684 695 
f 684 690 695 
f 689 694 696 
f 695 690 696 
f 690 687 697 
f 687 692 697 
f 692 690 697 
f 690 683 698 
f 692 689 698 
f 683 692 698 
f 689 696 698 
f 696 690 698 
f 691 684 699 
f 688 691 699 
f 684 693 699 
f 693 688 699 
f 694 685 700 
f 685 695 700 
f 696 694 700 
o convex_25
v -0.032129 -0.046238 -0.052725
v -0.021433 -0.037682 -0.043454
v -0.021433 -0.041248 -0.043454
v -0.022147 -0.046238 -0.054151
v -0.036408 -0.037682 -0.054151
v -0.034270 -0.039821 -0.046308
v -0.022860 -0.049092 -0.047735
v -0.021433 -0.037682 -0.047021
v -0.029278 -0.046238 -0.046308
v -0.030703 -0.037682 -0.044169
v -0.021433 -0.049092 -0.053437
v -0.034981 -0.043387 -0.050584
v -0.025713 -0.046951 -0.054863
v -0.034270 -0.037682 -0.054151
v -0.026426 -0.044098 -0.044169
v -0.037124 -0.037682 -0.050584
v -0.021433 -0.046238 -0.044883
v -0.027853 -0.048377 -0.049159
v -0.035697 -0.041961 -0.053437
f 712 716 719 
f 702 703 708 
f 705 702 708 
f 703 702 710 
f 702 705 710 
f 708 703 711 
f 704 708 711 
f 709 706 712 
f 711 701 713 
f 704 711 713 
f 708 704 714 
f 705 708 714 
f 713 705 714 
f 704 713 714 
f 706 709 715 
f 703 710 715 
f 710 706 715 
f 710 705 716 
f 706 710 716 
f 712 706 716 
f 709 707 717 
f 711 703 717 
f 707 711 717 
f 703 715 717 
f 715 709 717 
f 707 709 718 
f 701 711 718 
f 711 707 718 
f 712 701 718 
f 709 712 718 
f 701 712 719 
f 713 701 719 
f 705 713 719 
f 716 705 719 
