o convex_0
v -0.025747 -0.062476 0.027541
v -0.021601 -0.058336 0.002665
v -0.021601 -0.057149 0.002665
v 0.003275 -0.050634 0.023987
v -0.011537 -0.070178 0.015107
v -0.031076 -0.050632 0.023983
v -0.005017 -0.050634 0.005039
v -0.010945 -0.051226 0.037612
v -0.029301 -0.064847 0.011556
v -0.029301 -0.050632 0.009182
v -0.015088 -0.069584 0.023392
v -0.011537 -0.066030 0.006815
v -0.001466 -0.054780 0.029908
v 0.002680 -0.051819 0.015107
v -0.022193 -0.050632 0.035833
v -0.026930 -0.067806 0.021024
v -0.019234 -0.066623 0.005628
v -0.031671 -0.061291 0.018069
v -0.019822 -0.065437 0.028129
v -0.006796 -0.066030 0.018069
v -0.019234 -0.050632 0.002665
v -0.022193 -0.070178 0.019252
v -0.015088 -0.059521 0.002665
v -0.028709 -0.061291 0.007410
v -0.007983 -0.064847 0.009182
v -0.008575 -0.055967 0.034057
v -0.031671 -0.054780 0.012736
v -0.028114 -0.051226 0.030500
v -0.004425 -0.050634 0.035238
v -0.009758 -0.067217 0.022803
v -0.029893 -0.061882 0.023392
v 0.000312 -0.050634 0.009777
v -0.018642 -0.051819 0.037016
v -0.013312 -0.070178 0.012148
v 0.001496 -0.054189 0.024579
v -0.026339 -0.054780 0.005039
v -0.022784 -0.067806 0.025170
v -0.011537 -0.063662 0.005039
v -0.023968 -0.065437 0.006223
v -0.012129 -0.050632 0.002665
v -0.007388 -0.066623 0.013920
v 0.002680 -0.053004 0.019252
v -0.013312 -0.066623 0.026357
v -0.012721 -0.054780 0.035833
v -0.013904 -0.070771 0.019848
v -0.027522 -0.066623 0.012148
v -0.031671 -0.050632 0.016294
v -0.031076 -0.060112 0.010961
v -0.004425 -0.055373 0.032275
v 0.000904 -0.051226 0.029908
v -0.023968 -0.061291 0.003856
v -0.016271 -0.064252 0.003856
v -0.002058 -0.051819 0.007406
v -0.015088 -0.070771 0.014518
v -0.019822 -0.070178 0.022803
v -0.008575 -0.067217 0.021024
v -0.029301 -0.066030 0.018069
v -0.024560 -0.064847 0.026946
v -0.016863 -0.067806 0.006815
v -0.029893 -0.055373 0.008590
v -0.023968 -0.050632 0.004444
v -0.010945 -0.068401 0.010369
v -0.015088 -0.066623 0.026946
v -0.025155 -0.051819 0.033459
f 28 31 64 
f 10 6 15 
f 2 3 21 
f 10 15 21 
f 2 21 23 
f 15 6 28 
f 15 8 29 
f 4 15 29 
f 8 26 29 
f 6 18 31 
f 28 6 31 
f 4 14 32 
f 14 25 32 
f 8 15 33 
f 3 2 36 
f 23 7 38 
f 25 12 38 
f 9 24 39 
f 15 4 40 
f 21 15 40 
f 7 23 40 
f 23 21 40 
f 4 32 40 
f 32 7 40 
f 20 5 41 
f 25 14 41 
f 14 4 42 
f 4 35 42 
f 35 20 42 
f 20 41 42 
f 41 14 42 
f 11 30 43 
f 26 8 44 
f 8 33 44 
f 33 19 44 
f 30 11 45 
f 22 16 46 
f 9 39 46 
f 6 10 47 
f 18 6 47 
f 10 27 47 
f 27 18 47 
f 9 18 48 
f 24 9 48 
f 18 27 48 
f 13 29 49 
f 29 26 49 
f 30 13 49 
f 26 43 49 
f 43 30 49 
f 4 29 50 
f 29 13 50 
f 35 4 50 
f 13 35 50 
f 36 2 51 
f 24 36 51 
f 17 39 51 
f 39 24 51 
f 2 23 52 
f 38 12 52 
f 23 38 52 
f 51 2 52 
f 17 51 52 
f 7 32 53 
f 32 25 53 
f 38 7 53 
f 25 38 53 
f 34 5 54 
f 45 22 54 
f 5 45 54 
f 22 46 54 
f 16 22 55 
f 37 16 55 
f 19 37 55 
f 45 11 55 
f 22 45 55 
f 5 20 56 
f 13 30 56 
f 35 13 56 
f 20 35 56 
f 45 5 56 
f 30 45 56 
f 18 9 57 
f 16 31 57 
f 31 18 57 
f 9 46 57 
f 46 16 57 
f 15 1 58 
f 1 31 58 
f 31 16 58 
f 33 15 58 
f 19 33 58 
f 16 37 58 
f 37 19 58 
f 39 17 59 
f 46 39 59 
f 52 12 59 
f 17 52 59 
f 34 54 59 
f 54 46 59 
f 27 10 60 
f 10 36 60 
f 36 24 60 
f 24 48 60 
f 48 27 60 
f 21 3 61 
f 10 21 61 
f 3 36 61 
f 36 10 61 
f 12 25 62 
f 5 34 62 
f 41 5 62 
f 25 41 62 
f 59 12 62 
f 34 59 62 
f 11 43 63 
f 43 26 63 
f 26 44 63 
f 44 19 63 
f 55 11 63 
f 19 55 63 
f 1 15 64 
f 15 28 64 
f 31 1 64 
o convex_1
v -0.022191 -0.003840 0.013914
v 0.013932 0.022814 0.026942
v 0.012157 0.022814 0.027542
v -0.000282 0.021032 -0.039980
v 0.013932 -0.003840 -0.020424
v -0.015677 0.022814 0.014507
v 0.013932 -0.003840 0.020428
v -0.021600 -0.003840 -0.014510
v 0.013932 0.022814 -0.024571
v -0.015677 0.022219 -0.012730
v -0.007977 -0.003840 0.023982
v 0.011566 0.012740 -0.039386
v -0.009162 -0.003840 -0.024578
v -0.006202 0.022814 0.023982
v -0.002057 0.016889 -0.039980
v 0.003273 -0.003840 0.024575
v -0.021006 0.002677 -0.013316
v 0.012751 0.016296 -0.039386
v -0.002057 0.022814 -0.029905
v -0.018640 -0.003245 0.018648
v 0.001497 -0.003840 -0.025171
v 0.003863 0.022219 0.027542
v -0.016861 -0.003840 -0.021024
v -0.002057 0.019255 -0.039980
v -0.021006 0.000308 -0.015690
v 0.001497 0.022219 -0.038793
v -0.014492 0.022814 0.016874
v -0.016267 0.021627 0.013320
v -0.015677 0.022814 -0.009769
v 0.009791 -0.003840 0.022795
v -0.011532 -0.001468 0.022795
v 0.013932 0.012151 -0.029905
v -0.022191 -0.002653 0.013320
v 0.012157 0.018665 -0.037606
v -0.002651 0.022814 0.025762
v -0.019821 -0.002653 -0.018057
v 0.006827 -0.003840 -0.023984
v -0.016267 0.021627 -0.010949
v -0.015677 0.021032 -0.013916
v 0.013932 0.020442 0.026942
v -0.009756 0.022814 0.021615
v -0.021600 -0.003245 0.015687
v 0.009791 0.022814 -0.030492
v -0.005014 -0.003840 0.024575
v -0.001463 0.016296 -0.039980
v -0.022191 -0.002653 -0.007402
v -0.016267 -0.003840 0.020428
v -0.005608 -0.003840 -0.025171
v -0.000282 0.022219 -0.038199
v 0.000903 0.019847 -0.040573
v 0.012751 0.013927 -0.039386
v 0.010972 0.021032 0.027542
v 0.010381 0.012740 -0.039386
f 109 114 117 
f 67 66 70 
f 65 69 71 
f 69 66 71 
f 69 65 72 
f 66 69 73 
f 70 66 73 
f 65 71 75 
f 69 72 77 
f 67 70 78 
f 75 71 80 
f 70 73 83 
f 69 77 85 
f 77 72 87 
f 72 81 89 
f 81 74 89 
f 78 70 91 
f 70 83 93 
f 92 70 93 
f 80 71 94 
f 73 69 96 
f 82 73 96 
f 70 92 97 
f 92 81 97 
f 73 82 98 
f 82 90 98 
f 67 78 99 
f 86 67 99 
f 75 86 99 
f 95 75 99 
f 78 95 99 
f 87 72 100 
f 79 87 100 
f 88 79 100 
f 72 89 100 
f 89 88 100 
f 76 69 101 
f 69 85 101 
f 85 76 101 
f 74 81 102 
f 81 92 102 
f 92 93 102 
f 93 74 102 
f 74 88 103 
f 89 74 103 
f 88 89 103 
f 66 67 104 
f 71 66 104 
f 94 71 104 
f 80 94 104 
f 78 91 105 
f 105 91 106 
f 91 70 106 
f 97 65 106 
f 70 97 106 
f 84 105 106 
f 83 73 107 
f 90 83 107 
f 73 98 107 
f 98 90 107 
f 75 80 108 
f 86 75 108 
f 77 87 109 
f 87 79 109 
f 72 65 110 
f 81 72 110 
f 65 97 110 
f 97 81 110 
f 65 75 111 
f 75 95 111 
f 95 78 111 
f 78 105 111 
f 105 84 111 
f 106 65 111 
f 84 106 111 
f 76 85 112 
f 85 77 112 
f 77 109 112 
f 68 88 113 
f 88 74 113 
f 90 68 113 
f 83 90 113 
f 74 93 113 
f 93 83 113 
f 79 88 114 
f 88 68 114 
f 68 90 114 
f 90 82 114 
f 109 79 114 
f 69 76 115 
f 96 69 115 
f 82 96 115 
f 76 114 115 
f 114 82 115 
f 67 86 116 
f 104 67 116 
f 80 104 116 
f 108 80 116 
f 86 108 116 
f 76 112 117 
f 112 109 117 
f 114 76 117 
o convex_2
v -0.027521 -0.041748 0.033460
v -0.003245 -0.038787 -0.002073
v -0.003245 -0.038194 -0.002073
v 0.010382 -0.044117 0.032280
v -0.023970 -0.050632 0.004443
v 0.006827 -0.050632 0.026947
v -0.023373 -0.050632 0.035242
v -0.032853 -0.038194 0.022798
v -0.003245 -0.038194 0.035242
v -0.002653 -0.050632 0.006222
v -0.027521 -0.038194 0.007997
v -0.031668 -0.050632 0.016292
v -0.004426 -0.050632 0.035242
v 0.003865 -0.038194 0.015701
v -0.024558 -0.038194 0.035242
v 0.009786 -0.048263 0.028131
v -0.030483 -0.049447 0.027539
v -0.010943 -0.050632 0.002672
v -0.021600 -0.040563 0.003260
v 0.008601 -0.041748 0.033460
v 0.002087 -0.049447 0.011555
v -0.002056 -0.038787 -0.001478
v -0.031076 -0.041157 0.012738
v -0.029298 -0.050632 0.009184
v -0.032853 -0.038194 0.025764
v -0.019230 -0.050632 0.002672
v 0.010382 -0.043526 0.029909
v 0.003272 -0.038194 0.026947
v 0.005642 -0.045301 0.034647
v 0.009197 -0.048855 0.029318
v -0.031668 -0.050632 0.021618
v -0.028706 -0.047078 0.031688
v 0.009786 -0.041748 0.032280
v -0.025151 -0.042934 0.005035
v -0.021600 -0.038194 0.003855
v 0.000902 -0.050632 0.010368
v -0.032261 -0.045301 0.016292
v -0.018637 -0.045892 0.002076
v -0.027521 -0.050632 0.031688
v -0.025151 -0.047078 0.035242
v -0.030483 -0.038194 0.012738
v -0.005611 -0.050632 0.004443
v 0.002680 -0.045892 0.010963
v -0.028706 -0.041748 0.008589
v -0.032261 -0.046484 0.023389
f 154 129 162 
f 122 123 124 
f 120 125 126 
f 123 122 127 
f 125 120 128 
f 122 124 129 
f 124 123 130 
f 126 124 130 
f 120 126 131 
f 124 126 132 
f 126 125 132 
f 127 122 135 
f 119 120 139 
f 120 131 139 
f 122 129 141 
f 118 132 142 
f 132 125 142 
f 119 135 143 
f 135 122 143 
f 121 133 144 
f 133 139 144 
f 139 131 144 
f 131 126 145 
f 126 130 146 
f 121 137 146 
f 137 126 146 
f 130 123 147 
f 123 133 147 
f 133 121 147 
f 146 130 147 
f 121 146 147 
f 129 124 148 
f 118 142 149 
f 142 134 149 
f 137 121 150 
f 126 137 150 
f 121 144 150 
f 144 131 150 
f 145 126 150 
f 131 145 150 
f 136 122 151 
f 122 141 151 
f 128 120 152 
f 120 136 152 
f 136 151 152 
f 151 128 152 
f 123 127 153 
f 133 123 153 
f 138 133 153 
f 139 138 153 
f 127 139 153 
f 125 140 154 
f 141 129 154 
f 140 141 154 
f 120 119 155 
f 136 120 155 
f 122 136 155 
f 119 143 155 
f 143 122 155 
f 148 124 156 
f 134 148 156 
f 149 134 156 
f 149 156 157 
f 132 118 157 
f 124 132 157 
f 118 149 157 
f 156 124 157 
f 125 128 158 
f 140 125 158 
f 135 119 159 
f 127 135 159 
f 119 139 159 
f 139 127 159 
f 133 138 160 
f 139 133 160 
f 138 139 160 
f 141 140 161 
f 128 151 161 
f 151 141 161 
f 158 128 161 
f 140 158 161 
f 142 125 162 
f 134 142 162 
f 129 148 162 
f 148 134 162 
f 125 154 162 
o convex_3
v 0.003867 -0.033453 0.013320
v 0.017490 -0.025163 -0.038793
v 0.016897 -0.025163 -0.025765
v 0.003867 -0.025163 -0.021617
v 0.010973 -0.034638 -0.047087
v 0.013343 -0.025756 0.012734
v 0.012751 -0.035232 -0.012150
v 0.004460 -0.031678 -0.047681
v 0.003867 -0.025163 0.020435
v 0.003867 -0.037602 -0.001482
v 0.005645 -0.025163 -0.047681
v 0.015713 -0.032270 -0.047087
v 0.009198 -0.034638 0.005626
v 0.016897 -0.025163 -0.047681
v 0.013935 -0.034638 -0.045901
v 0.015120 -0.028127 -0.005629
v 0.012159 -0.025163 0.015694
v 0.003867 -0.029903 -0.042940
v 0.006237 -0.033453 -0.047087
v 0.010973 -0.029903 0.012734
v 0.013343 -0.034048 -0.009776
v 0.005053 -0.037009 0.003846
v 0.007422 -0.027534 0.018061
v 0.015120 -0.031678 -0.025171
v 0.011567 -0.035824 -0.010369
v 0.015713 -0.025163 -0.005629
v 0.013343 -0.034048 -0.047681
v 0.004460 -0.035232 0.010360
v 0.016897 -0.028717 -0.045307
v 0.016305 -0.025756 -0.013336
v 0.010973 -0.031678 0.009180
v 0.015120 -0.033453 -0.041753
v 0.004460 -0.032270 0.015101
v 0.004460 -0.032270 -0.047087
v 0.003867 -0.031678 -0.042940
v 0.004460 -0.037602 -0.001482
v 0.008606 -0.032862 0.010953
f 195 190 199 
f 165 164 166 
f 165 166 171 
f 166 163 171 
f 163 166 172 
f 166 164 173 
f 173 164 176 
f 170 173 176 
f 165 171 179 
f 172 166 180 
f 166 173 180 
f 173 170 180 
f 167 172 181 
f 168 179 182 
f 175 169 183 
f 178 168 183 
f 179 171 185 
f 182 179 185 
f 178 183 186 
f 169 175 187 
f 177 169 187 
f 175 184 187 
f 168 178 188 
f 165 179 188 
f 179 168 188 
f 170 176 189 
f 176 174 189 
f 177 167 189 
f 174 177 189 
f 167 181 189 
f 181 170 189 
f 163 172 190 
f 172 184 190 
f 184 175 190 
f 176 164 191 
f 174 176 191 
f 186 191 192 
f 164 165 192 
f 178 186 192 
f 165 188 192 
f 188 178 192 
f 191 164 192 
f 168 182 193 
f 175 183 193 
f 183 168 193 
f 169 177 194 
f 177 174 194 
f 183 169 194 
f 186 183 194 
f 174 191 194 
f 191 186 194 
f 171 163 195 
f 185 171 195 
f 182 185 195 
f 163 190 195 
f 170 181 196 
f 181 172 196 
f 172 180 197 
f 180 170 197 
f 196 172 197 
f 170 196 197 
f 172 167 198 
f 167 177 198 
f 184 172 198 
f 177 187 198 
f 187 184 198 
f 190 175 199 
f 193 182 199 
f 175 193 199 
f 182 195 199 
o convex_4
v -0.011533 0.028145 -0.039390
v -0.006796 0.042359 -0.031096
v -0.010939 0.042359 -0.031096
v -0.006203 0.044729 -0.047678
v -0.003833 0.029330 -0.031096
v -0.000871 0.039398 -0.047088
v -0.013901 0.029330 -0.048273
v -0.005612 0.026368 -0.047678
v -0.014495 0.032292 -0.031096
v -0.012125 0.042950 -0.047088
v -0.001465 0.039990 -0.031096
v -0.000871 0.042950 -0.043532
v -0.009163 0.044729 -0.038797
v -0.014495 0.033478 -0.047678
v -0.013309 0.038805 -0.031096
v -0.007978 0.028738 -0.031096
v -0.003833 0.028145 -0.047088
v -0.004427 0.029923 -0.048273
v -0.001465 0.037619 -0.031096
v -0.010347 0.044729 -0.047678
v -0.001465 0.042950 -0.047678
v -0.000871 0.042359 -0.038207
v -0.013901 0.028738 -0.041163
v -0.005019 0.026963 -0.039390
v -0.013309 0.030516 -0.031096
v -0.011533 0.043543 -0.039390
v -0.009163 0.026963 -0.042348
v -0.013309 0.028145 -0.047678
v -0.014495 0.034662 -0.041756
v -0.014495 0.029330 -0.047678
v -0.004427 0.044134 -0.041163
v -0.012125 0.034662 -0.048273
f 220 217 231 
f 201 202 204 
f 204 202 208 
f 201 204 210 
f 202 201 212 
f 208 202 214 
f 204 208 215 
f 216 207 217 
f 207 206 217 
f 205 216 217 
f 210 204 218 
f 204 216 218 
f 216 205 218 
f 212 203 219 
f 213 209 219 
f 211 205 220 
f 203 211 220 
f 205 217 220 
f 201 210 221 
f 205 211 221 
f 210 218 221 
f 218 205 221 
f 204 215 223 
f 216 204 223 
f 207 216 223 
f 200 215 224 
f 215 208 224 
f 222 200 224 
f 208 222 224 
f 202 212 225 
f 209 214 225 
f 214 202 225 
f 219 209 225 
f 212 219 225 
f 215 200 226 
f 200 222 226 
f 207 223 226 
f 223 215 226 
f 206 207 227 
f 207 226 227 
f 226 222 227 
f 213 208 228 
f 209 213 228 
f 214 209 228 
f 208 214 228 
f 213 206 229 
f 208 213 229 
f 222 208 229 
f 206 227 229 
f 227 222 229 
f 211 203 230 
f 203 212 230 
f 212 201 230 
f 201 221 230 
f 221 211 230 
f 206 213 231 
f 217 206 231 
f 219 203 231 
f 213 219 231 
f 203 220 231 
o convex_5
v -0.005608 0.045318 0.016869
v 0.001497 0.022814 -0.031096
v 0.007420 0.022814 -0.031096
v 0.012751 0.022814 0.027537
v 0.013936 0.053020 -0.003846
v -0.014493 0.032294 -0.031096
v -0.015679 0.022814 0.014504
v -0.011531 0.042356 -0.030499
v 0.013342 0.054798 0.016875
v 0.013936 0.034072 -0.024574
v -0.009162 0.048280 0.004433
v 0.001497 0.034072 0.026946
v 0.000311 0.053017 -0.002658
v 0.013936 0.022814 -0.024574
v 0.013936 0.049467 0.022795
v -0.013899 0.022814 -0.012729
v -0.001463 0.040578 -0.031096
v -0.012122 0.037623 0.016284
v -0.007385 0.022814 0.023392
v 0.013936 0.048277 -0.015094
v -0.015679 0.030519 -0.006809
v 0.013936 0.024000 0.027537
v -0.010939 0.046505 -0.015691
v 0.005051 0.053017 -0.006809
v -0.005017 0.038218 0.022801
v -0.002646 0.051834 0.006804
v -0.015679 0.022814 -0.007395
v 0.005642 0.031111 0.028135
v -0.010348 0.042948 -0.030499
v -0.010939 0.031111 0.020429
v -0.012716 0.041173 -0.004438
v -0.013308 0.038806 -0.031096
v 0.012156 0.051834 -0.009766
v -0.012716 0.029927 -0.031096
v 0.003274 0.022814 0.027537
v 0.013936 0.043540 -0.019837
v -0.009162 0.047688 -0.016283
v 0.013936 0.031699 0.027537
v -0.009757 0.046505 0.009176
v -0.003240 0.029927 0.025763
v 0.006234 0.054204 -0.000298
v 0.013342 0.050650 0.022203
v -0.002646 0.022814 -0.028134
v -0.015679 0.030519 -0.018648
v -0.006794 0.050058 -0.000895
v -0.005608 0.049463 0.009767
v 0.001497 0.053612 0.002659
v -0.006794 0.042356 -0.031096
v -0.001463 0.039398 0.023983
v 0.009788 0.023409 -0.029908
v 0.013936 0.054798 0.013321
v -0.015085 0.025779 0.015687
v -0.009757 0.040581 0.017467
v 0.008605 0.034664 0.027537
v -0.002646 0.042948 0.021021
v 0.013342 0.053609 0.019247
v -0.015679 0.026962 -0.018063
v -0.011531 0.045318 -0.009175
v 0.013936 0.038806 -0.022799
v -0.006203 0.032294 0.023983
v -0.000280 0.025187 0.026946
v 0.003274 0.037034 0.026355
v 0.013936 0.022814 0.026946
v -0.009757 0.037031 0.019838
f 261 291 295 
f 233 234 235 
f 234 233 237 
f 233 235 238 
f 235 234 245 
f 241 236 245 
f 245 236 246 
f 233 238 247 
f 234 237 248 
f 238 235 250 
f 236 241 251 
f 245 246 253 
f 247 238 258 
f 238 252 258 
f 235 253 259 
f 252 249 262 
f 248 237 263 
f 254 239 263 
f 236 251 264 
f 255 236 264 
f 260 255 264 
f 237 233 265 
f 250 235 266 
f 235 259 266 
f 251 241 267 
f 248 251 267 
f 239 254 268 
f 244 255 268 
f 260 239 268 
f 255 260 268 
f 253 246 269 
f 259 253 269 
f 262 249 270 
f 236 255 272 
f 255 244 272 
f 233 247 274 
f 265 233 274 
f 247 265 274 
f 258 252 275 
f 252 262 275 
f 262 263 275 
f 263 237 275 
f 254 242 276 
f 242 257 276 
f 268 254 276 
f 244 268 276 
f 240 257 277 
f 257 242 277 
f 270 232 277 
f 242 270 277 
f 257 240 278 
f 240 272 278 
f 272 244 278 
f 276 257 278 
f 244 276 278 
f 251 248 279 
f 239 260 279 
f 248 263 279 
f 263 239 279 
f 264 251 279 
f 260 264 279 
f 256 243 280 
f 245 234 281 
f 241 245 281 
f 234 248 281 
f 248 241 281 
f 246 236 282 
f 236 272 282 
f 272 240 282 
f 238 250 283 
f 252 238 283 
f 249 252 283 
f 261 249 283 
f 250 261 283 
f 232 270 284 
f 270 249 284 
f 243 259 285 
f 269 246 285 
f 259 269 285 
f 256 280 286 
f 280 273 286 
f 232 284 286 
f 284 256 286 
f 273 246 287 
f 277 232 287 
f 240 277 287 
f 282 240 287 
f 246 282 287 
f 232 286 287 
f 286 273 287 
f 247 258 288 
f 237 265 288 
f 265 247 288 
f 275 237 288 
f 258 275 288 
f 242 254 289 
f 254 263 289 
f 263 262 289 
f 270 242 289 
f 262 270 289 
f 241 248 290 
f 267 241 290 
f 248 267 290 
f 243 256 291 
f 261 250 291 
f 271 243 291 
f 250 271 291 
f 259 243 292 
f 250 266 292 
f 266 259 292 
f 243 271 292 
f 271 250 292 
f 246 273 293 
f 280 243 293 
f 273 280 293 
f 243 285 293 
f 285 246 293 
f 235 245 294 
f 253 235 294 
f 245 253 294 
f 249 261 295 
f 256 284 295 
f 284 249 295 
f 291 256 295 
o convex_6
v 0.028150 0.016891 -0.047087
v 0.026377 0.032882 -0.029912
v 0.024600 0.032882 -0.029912
v 0.028150 0.035845 -0.046494
v 0.034074 0.025776 -0.029912
v 0.020452 0.020446 -0.029912
v 0.021045 0.023998 -0.047678
v 0.035259 0.032882 -0.046494
v 0.029928 0.018076 -0.029912
v 0.031704 0.019260 -0.047678
v 0.021045 0.019854 -0.048273
v 0.025191 0.034659 -0.047087
v 0.033482 0.029921 -0.029912
v 0.035259 0.028143 -0.046494
v 0.032890 0.033475 -0.039387
v 0.023416 0.031106 -0.029912
v 0.025191 0.017484 -0.041754
v 0.031704 0.018668 -0.040570
v 0.032890 0.025776 -0.047678
v 0.024600 0.034659 -0.039978
v 0.026970 0.035251 -0.039387
v 0.026970 0.018076 -0.029912
v 0.029928 0.016891 -0.041163
v 0.035259 0.031696 -0.040570
v 0.020452 0.022223 -0.035836
v 0.029334 0.017484 -0.048273
v 0.022230 0.018668 -0.047678
v 0.031704 0.019854 -0.029912
v 0.023416 0.022815 -0.048273
v 0.030520 0.034659 -0.047087
v 0.020452 0.019854 -0.043534
f 306 322 326 
f 297 298 300 
f 300 298 301 
f 300 301 304 
f 306 302 307 
f 297 300 308 
f 303 299 310 
f 297 308 310 
f 301 298 311 
f 309 300 313 
f 305 309 313 
f 303 309 314 
f 309 305 314 
f 299 307 315 
f 307 302 315 
f 311 298 315 
f 298 297 316 
f 297 310 316 
f 310 299 316 
f 315 298 316 
f 299 315 316 
f 304 301 317 
f 301 312 317 
f 317 312 318 
f 312 296 318 
f 313 304 318 
f 305 313 318 
f 304 317 318 
f 308 300 319 
f 300 309 319 
f 309 303 319 
f 303 310 319 
f 310 308 319 
f 301 311 320 
f 315 302 320 
f 311 315 320 
f 314 305 321 
f 318 296 321 
f 305 318 321 
f 296 312 322 
f 312 301 322 
f 321 296 322 
f 306 321 322 
f 300 304 323 
f 304 313 323 
f 313 300 323 
f 306 307 324 
f 321 306 324 
f 314 321 324 
f 299 303 325 
f 307 299 325 
f 303 314 325 
f 324 307 325 
f 314 324 325 
f 302 306 326 
f 301 320 326 
f 320 302 326 
f 322 301 326 
o convex_7
v 0.015121 0.058352 -0.029317
v 0.024006 0.059537 -0.031094
v 0.024006 0.057760 -0.031094
v 0.018082 0.057760 -0.019842
v 0.015121 0.060129 -0.021028
v 0.020452 0.061314 -0.032872
v 0.015713 0.056575 -0.021028
v 0.018675 0.056575 -0.029910
v 0.017491 0.059537 -0.019842
v 0.022228 0.061314 -0.031094
v 0.020452 0.059537 -0.033465
v 0.015713 0.060129 -0.029910
v 0.014529 0.057760 -0.019842
f 335 331 339 
f 329 328 330 
f 329 330 333 
f 333 327 334 
f 329 333 334 
f 330 328 335 
f 328 332 336 
f 332 331 336 
f 335 328 336 
f 331 335 336 
f 328 329 337 
f 332 328 337 
f 334 327 337 
f 329 334 337 
f 327 331 338 
f 331 332 338 
f 332 337 338 
f 337 327 338 
f 331 327 339 
f 327 333 339 
f 333 330 339 
f 330 335 339 
o convex_8
v 0.013936 0.054799 0.012142
v 0.019859 0.056575 0.002664
v 0.019859 0.055983 0.002664
v 0.014529 0.058944 -0.019842
v 0.018674 0.056575 -0.018655
v 0.017490 0.059537 -0.009773
v 0.015121 0.056575 0.013917
v 0.018082 0.053614 0.013325
v 0.013936 0.053614 0.012733
v 0.018674 0.058944 -0.018655
v 0.014529 0.057760 -0.019842
v 0.018082 0.057760 0.007401
v 0.015714 0.054207 0.018658
v 0.013936 0.055391 0.016287
v 0.015714 0.057760 0.007993
v 0.018082 0.053614 0.009180
v 0.016898 0.056575 -0.018655
v 0.015121 0.059537 -0.018064
v 0.018674 0.055983 0.010955
v 0.018674 0.058351 0.002072
v 0.019859 0.055391 0.000885
v 0.019266 0.058351 -0.016285
f 360 344 361 
f 344 343 349 
f 340 343 350 
f 343 344 350 
f 348 340 350 
f 348 347 352 
f 348 352 353 
f 343 340 353 
f 340 348 353 
f 352 346 353 
f 353 346 354 
f 346 351 354 
f 347 348 355 
f 355 348 356 
f 350 344 356 
f 348 350 356 
f 344 355 356 
f 349 343 357 
f 345 349 357 
f 343 353 357 
f 353 354 357 
f 354 345 357 
f 342 341 358 
f 347 342 358 
f 341 351 358 
f 351 346 358 
f 352 347 358 
f 346 352 358 
f 349 345 359 
f 351 341 359 
f 345 354 359 
f 354 351 359 
f 341 342 360 
f 342 347 360 
f 355 344 360 
f 347 355 360 
f 344 349 361 
f 359 341 361 
f 349 359 361 
f 341 360 361 
o convex_9
v -0.023969 -0.048263 0.035242
v -0.021601 -0.043526 0.047088
v -0.022786 -0.043526 0.047088
v -0.024563 -0.038194 0.035242
v -0.014495 -0.038194 0.035242
v -0.014495 -0.050632 0.037612
v -0.014495 -0.038194 0.038204
v -0.023969 -0.045892 0.045311
v -0.014495 -0.050632 0.035242
v -0.022786 -0.038194 0.039981
v -0.025748 -0.042342 0.040575
v -0.022194 -0.050632 0.035836
v -0.014495 -0.047669 0.038798
v -0.023378 -0.041748 0.045902
v -0.025748 -0.042934 0.035242
v -0.021008 -0.045301 0.046495
v -0.025156 -0.039380 0.038798
v -0.021601 -0.041157 0.045311
f 371 375 379 
f 362 365 366 
f 366 365 368 
f 367 366 368 
f 362 366 370 
f 366 367 370 
f 368 365 371 
f 362 369 372 
f 369 362 373 
f 367 369 373 
f 362 370 373 
f 370 367 373 
f 367 368 374 
f 364 363 375 
f 369 364 375 
f 372 369 375 
f 365 362 376 
f 362 372 376 
f 363 364 377 
f 368 363 377 
f 364 369 377 
f 369 367 377 
f 367 374 377 
f 374 368 377 
f 371 365 378 
f 375 371 378 
f 372 375 378 
f 365 376 378 
f 376 372 378 
f 363 368 379 
f 368 371 379 
f 375 363 379 
o convex_10
v -0.003833 -0.048855 0.035242
v -0.007980 -0.047078 0.047681
v -0.006797 -0.047669 0.047088
v -0.004426 -0.038194 0.035835
v -0.014495 -0.050632 0.035242
v -0.014495 -0.038194 0.038206
v -0.010348 -0.050039 0.047088
v -0.014495 -0.038194 0.035242
v -0.006203 -0.050632 0.041757
v -0.003833 -0.047078 0.040574
v -0.014495 -0.047669 0.038796
v -0.003241 -0.039972 0.035242
v -0.010939 -0.047078 0.047088
v -0.005019 -0.050632 0.035242
v -0.010348 -0.038194 0.038206
v -0.008573 -0.045892 0.047088
v -0.006203 -0.050039 0.044717
v -0.014495 -0.050632 0.037612
f 392 390 397 
f 381 382 383 
f 382 381 386 
f 380 384 387 
f 384 385 387 
f 385 383 387 
f 385 384 390 
f 383 382 391 
f 380 387 391 
f 387 383 391 
f 382 389 391 
f 389 380 391 
f 386 381 392 
f 385 390 392 
f 384 380 393 
f 388 384 393 
f 383 385 394 
f 394 385 395 
f 381 383 395 
f 392 381 395 
f 385 392 395 
f 383 394 395 
f 382 386 396 
f 386 388 396 
f 389 382 396 
f 380 389 396 
f 393 380 396 
f 388 393 396 
f 384 388 397 
f 388 386 397 
f 390 384 397 
f 386 392 397 
o convex_11
v -0.025746 -0.025163 -0.006218
v 0.003867 -0.037600 0.023982
v 0.003867 -0.038194 0.023982
v 0.003867 -0.030496 -0.024581
v 0.003867 -0.025163 0.020427
v -0.026341 -0.038194 0.033461
v -0.025155 -0.038194 0.006221
v -0.017455 -0.026943 0.029317
v 0.003867 -0.025163 -0.021615
v -0.001467 -0.038194 -0.006212
v -0.006796 -0.037600 0.037009
v -0.021601 -0.025756 -0.016286
v -0.013310 -0.033455 -0.013917
v -0.026341 -0.029903 0.025167
v -0.017455 -0.025163 0.023392
v -0.022192 -0.038194 0.038796
v -0.010941 -0.030496 0.034050
v 0.003867 -0.037600 -0.003253
v -0.013901 -0.025163 -0.021020
v -0.026341 -0.038194 0.007405
v -0.006796 -0.036415 -0.011547
v -0.026341 -0.025163 0.002076
v 0.000904 -0.038194 0.031091
v -0.005018 -0.034046 0.034646
v -0.021601 -0.027533 0.027536
v -0.012124 -0.029311 -0.019246
v -0.010941 -0.026348 0.028126
v 0.003867 -0.032861 -0.020424
v -0.022192 -0.037600 0.038796
v -0.007981 -0.025163 -0.022800
v -0.026341 -0.032270 0.029317
v -0.018638 -0.029311 0.032270
v -0.010941 -0.034639 0.037016
v -0.022784 -0.025756 -0.015095
v -0.007981 -0.037600 -0.007986
v -0.018047 -0.031679 -0.012136
v -0.007387 -0.029903 0.032276
v -0.022784 -0.026943 0.023392
v -0.011532 -0.036415 -0.009171
v -0.001467 -0.035824 0.032865
v -0.010941 -0.038194 0.038194
v 0.003273 -0.031088 -0.023979
v -0.022784 -0.030496 0.031091
v -0.015087 -0.031679 0.035235
v -0.025155 -0.025163 0.007405
v 0.001496 -0.038194 -0.003842
v -0.011532 -0.025163 0.024577
v 0.000310 -0.025163 -0.022800
v -0.011532 -0.027533 0.030496
v -0.009758 -0.034639 -0.013917
v -0.013901 -0.025756 -0.021020
v -0.026341 -0.025756 -0.003253
f 417 419 449 
f 399 400 401 
f 399 401 402 
f 400 403 404 
f 398 402 406 
f 402 401 406 
f 400 404 407 
f 402 398 412 
f 403 400 413 
f 401 400 415 
f 398 406 416 
f 404 403 417 
f 410 404 417 
f 403 411 417 
f 412 398 419 
f 417 411 419 
f 400 399 420 
f 399 402 420 
f 413 400 420 
f 405 412 422 
f 410 409 423 
f 401 415 425 
f 407 418 425 
f 403 413 426 
f 416 406 427 
f 411 403 428 
f 422 411 428 
f 403 426 428 
f 405 422 429 
f 421 414 430 
f 408 421 430 
f 398 416 431 
f 416 409 431 
f 417 398 431 
f 407 404 432 
f 418 407 432 
f 409 410 433 
f 410 417 433 
f 431 409 433 
f 417 431 433 
f 421 402 434 
f 414 421 434 
f 422 412 435 
f 411 422 435 
f 404 410 436 
f 432 404 436 
f 418 432 436 
f 420 402 437 
f 408 420 437 
f 402 421 437 
f 421 408 437 
f 420 408 438 
f 413 420 438 
f 426 413 438 
f 408 430 438 
f 430 426 438 
f 410 423 439 
f 401 425 439 
f 425 418 439 
f 422 428 440 
f 428 426 440 
f 426 429 440 
f 429 422 440 
f 429 426 441 
f 414 429 441 
f 430 414 441 
f 426 430 441 
f 419 411 442 
f 412 419 442 
f 411 435 442 
f 435 412 442 
f 400 407 443 
f 415 400 443 
f 425 415 443 
f 407 425 443 
f 412 405 444 
f 402 412 444 
f 405 424 444 
f 424 402 444 
f 406 401 445 
f 401 427 445 
f 427 406 445 
f 424 405 446 
f 402 424 446 
f 405 429 446 
f 429 414 446 
f 434 402 446 
f 414 434 446 
f 436 410 447 
f 418 436 447 
f 410 439 447 
f 439 418 447 
f 409 416 448 
f 423 409 448 
f 427 401 448 
f 416 427 448 
f 401 439 448 
f 439 423 448 
f 398 417 449 
f 419 398 449 
o convex_12
v -0.022197 -0.023386 -0.044127
v -0.021605 -0.007987 -0.031689
v -0.026338 -0.007987 -0.031689
v -0.023969 -0.004432 -0.047679
v -0.030487 -0.018648 -0.047679
v -0.016272 -0.009171 -0.048273
v -0.019233 -0.021017 -0.031689
v -0.028708 -0.018054 -0.031689
v -0.016272 -0.010356 -0.031689
v -0.020419 -0.022201 -0.048273
v -0.016272 -0.006802 -0.042349
v -0.026933 -0.006210 -0.047679
v -0.029301 -0.013909 -0.034653
v -0.029301 -0.021017 -0.041757
v -0.015679 -0.009765 -0.043533
v -0.028117 -0.021017 -0.048273
v -0.024561 -0.005026 -0.040572
v -0.022197 -0.021017 -0.031689
v -0.018049 -0.006210 -0.048273
v -0.030487 -0.017462 -0.041163
v -0.019233 -0.021017 -0.042940
v -0.027523 -0.009171 -0.031689
v -0.016272 -0.012134 -0.031689
v -0.028117 -0.011540 -0.048273
v -0.021605 -0.005026 -0.042349
v -0.021010 -0.023386 -0.047086
v -0.030487 -0.016870 -0.047679
v -0.015679 -0.009171 -0.047086
v -0.026338 -0.005618 -0.041757
v -0.029301 -0.015093 -0.031689
v -0.016865 -0.006210 -0.047679
v -0.028117 -0.021609 -0.047679
v -0.027523 -0.019240 -0.031689
f 463 467 482 
f 451 452 456 
f 456 452 457 
f 451 456 458 
f 451 458 460 
f 460 458 464 
f 455 459 465 
f 452 451 466 
f 450 456 467 
f 456 457 467 
f 463 450 467 
f 455 465 468 
f 454 463 469 
f 463 457 469 
f 457 452 471 
f 461 462 471 
f 458 456 472 
f 464 458 472 
f 456 470 472 
f 470 464 472 
f 461 453 473 
f 465 454 473 
f 453 468 473 
f 468 465 473 
f 451 460 474 
f 466 451 474 
f 453 466 474 
f 456 450 475 
f 465 459 475 
f 470 456 475 
f 459 470 475 
f 462 461 476 
f 454 469 476 
f 469 462 476 
f 461 473 476 
f 473 454 476 
f 459 455 477 
f 460 464 477 
f 470 459 477 
f 464 470 477 
f 453 461 478 
f 452 466 478 
f 466 453 478 
f 471 452 478 
f 461 471 478 
f 469 457 479 
f 462 469 479 
f 457 471 479 
f 471 462 479 
f 468 453 480 
f 455 468 480 
f 474 460 480 
f 453 474 480 
f 477 455 480 
f 460 477 480 
f 450 463 481 
f 463 454 481 
f 454 465 481 
f 475 450 481 
f 465 475 481 
f 457 463 482 
f 467 457 482 
o convex_13
v -0.023970 -0.009764 0.013321
v -0.015679 -0.025163 -0.020429
v -0.014496 -0.025163 -0.020429
v -0.023378 -0.007395 -0.031689
v -0.014496 -0.003840 0.021019
v -0.026340 -0.025163 0.004437
v -0.014496 -0.025163 0.019837
v -0.029301 -0.016869 -0.031689
v -0.014496 -0.003840 -0.022202
v -0.024563 -0.004433 -0.010357
v -0.016273 -0.012133 -0.031689
v -0.029893 -0.022199 -0.010954
v -0.021011 -0.021609 -0.031092
v -0.023970 -0.017461 0.015099
v -0.022195 -0.003840 0.015099
v -0.029301 -0.016869 -0.007403
v -0.028708 -0.023978 -0.013914
v -0.027523 -0.009171 -0.031689
v -0.017458 -0.014502 0.021019
v -0.026340 -0.022792 0.008584
v -0.026340 -0.007395 -0.009176
v -0.023378 -0.003840 -0.013914
v -0.023970 -0.025163 -0.015692
v -0.026340 -0.019832 -0.031689
v -0.020419 -0.023978 0.016281
v -0.019234 -0.021014 -0.031689
v -0.022195 -0.010356 0.017468
v -0.029301 -0.014502 -0.028127
v -0.025154 -0.015683 0.012730
v -0.016866 -0.009764 -0.031689
v -0.015088 -0.008580 0.022212
v -0.029893 -0.019240 -0.008585
v -0.014496 -0.015683 -0.023980
v -0.023970 -0.004433 -0.018061
v -0.022785 -0.025163 0.012730
v -0.019826 -0.003840 0.018059
v -0.016273 -0.019240 0.021019
v -0.025748 -0.005618 -0.020429
v -0.014496 -0.016278 0.022212
v -0.021011 -0.017461 0.018059
v -0.029893 -0.019832 -0.021020
v -0.028708 -0.018647 -0.031092
v -0.025748 -0.005618 -0.011545
v -0.026340 -0.007987 -0.031689
f 520 516 526 
f 484 485 488 
f 485 487 489 
f 488 485 489 
f 487 485 491 
f 490 486 493 
f 485 484 495 
f 487 491 497 
f 483 497 498 
f 488 494 499 
f 486 490 500 
f 494 488 502 
f 498 497 503 
f 497 491 504 
f 492 497 504 
f 484 488 505 
f 495 484 505 
f 488 499 505 
f 505 499 506 
f 490 493 506 
f 495 505 506 
f 493 485 508 
f 485 495 508 
f 506 493 508 
f 495 506 508 
f 497 483 509 
f 500 490 510 
f 498 503 510 
f 503 500 510 
f 483 498 511 
f 502 496 511 
f 509 483 511 
f 496 509 511 
f 486 491 512 
f 493 486 512 
f 491 493 512 
f 509 501 513 
f 494 502 514 
f 498 510 514 
f 511 498 514 
f 502 511 514 
f 491 485 515 
f 485 493 515 
f 493 491 515 
f 491 486 516 
f 504 491 516 
f 488 489 517 
f 502 488 517 
f 496 502 517 
f 489 507 517 
f 507 496 517 
f 487 497 518 
f 497 509 518 
f 513 487 518 
f 509 513 518 
f 507 489 519 
f 492 504 520 
f 504 516 520 
f 489 487 521 
f 487 513 521 
f 513 501 521 
f 501 519 521 
f 519 489 521 
f 496 507 522 
f 509 496 522 
f 501 509 522 
f 519 501 522 
f 507 519 522 
f 499 494 523 
f 510 490 523 
f 494 514 523 
f 514 510 523 
f 506 499 524 
f 490 506 524 
f 499 523 524 
f 523 490 524 
f 497 492 525 
f 503 497 525 
f 500 503 525 
f 520 500 525 
f 492 520 525 
f 486 500 526 
f 516 486 526 
f 500 520 526 
o convex_14
v 0.008013 -0.018056 -0.047681
v 0.018675 -0.021017 -0.041165
v 0.018675 -0.021608 -0.041165
v 0.005052 -0.025163 -0.026358
v 0.011569 -0.018056 -0.026358
v 0.006237 -0.025163 -0.047681
v 0.016897 -0.025163 -0.026358
v 0.016897 -0.025163 -0.047681
v 0.016304 -0.018056 -0.047086
v 0.006829 -0.018056 -0.026358
v 0.016304 -0.020426 -0.026358
v 0.012158 -0.016871 -0.047681
v 0.005645 -0.023978 -0.041165
v 0.017489 -0.018648 -0.041755
v 0.008607 -0.016871 -0.039979
v 0.018081 -0.020426 -0.047681
v 0.018081 -0.024570 -0.046495
v 0.012158 -0.016871 -0.041755
v 0.008013 -0.017464 -0.047086
v 0.015120 -0.019241 -0.026358
f 540 531 546 
f 530 532 533 
f 529 528 533 
f 531 530 533 
f 532 527 534 
f 533 532 534 
f 530 531 536 
f 533 528 537 
f 531 533 537 
f 534 527 538 
f 532 530 539 
f 530 536 539 
f 537 528 540 
f 536 531 541 
f 528 529 542 
f 534 538 542 
f 538 535 542 
f 540 528 542 
f 535 540 542 
f 529 533 543 
f 533 534 543 
f 542 529 543 
f 534 542 543 
f 535 538 544 
f 540 535 544 
f 531 540 544 
f 541 531 544 
f 538 541 544 
f 527 532 545 
f 538 527 545 
f 532 539 545 
f 539 536 545 
f 536 541 545 
f 541 538 545 
f 531 537 546 
f 537 540 546 
o convex_15
v -0.012122 -0.008580 0.023394
v 0.021044 -0.003840 0.012140
v 0.020449 -0.003840 0.013915
v 0.013342 -0.025163 0.014509
v -0.012122 -0.010949 -0.025171
v 0.016897 -0.025163 -0.026358
v -0.014495 -0.025163 0.019839
v 0.006827 -0.003840 -0.023984
v -0.014495 -0.025163 -0.021023
v -0.014495 -0.003840 0.021619
v -0.014495 -0.003840 -0.022209
v 0.020449 -0.003840 -0.013319
v 0.005049 -0.013318 0.023987
v 0.003275 -0.003840 0.024581
v -0.002646 -0.022199 0.023394
v 0.016306 -0.019832 -0.026358
v 0.005049 -0.025163 -0.026358
v -0.005018 -0.006211 -0.025764
v 0.012156 -0.021014 0.018657
v 0.016306 -0.024570 -0.006807
v 0.013934 -0.004433 0.020432
v 0.002092 -0.025163 0.021619
v -0.006793 -0.016278 0.024581
v 0.013934 -0.003840 -0.020434
v -0.014495 -0.016869 -0.023984
v 0.021044 -0.005026 0.011542
v 0.021044 -0.004433 -0.011544
v -0.006201 -0.013913 -0.026358
v -0.005610 -0.003840 0.024581
v -0.013308 -0.018054 0.022801
v 0.002092 -0.003840 -0.025171
v 0.015120 -0.018054 0.016877
v -0.011531 -0.019240 -0.024578
v 0.005049 -0.018054 0.023394
v 0.000909 -0.016278 0.024581
v 0.017489 -0.022792 -0.018654
v -0.008570 -0.023978 0.022207
v 0.015711 -0.019240 0.014509
v -0.009162 -0.003840 -0.024578
v 0.008013 -0.025163 0.019246
v 0.011565 -0.015683 0.020432
v 0.016306 -0.003840 0.018657
v -0.009753 -0.023978 -0.023396
v 0.009196 -0.003840 0.022801
v 0.019858 -0.003840 -0.014506
v -0.014495 -0.018054 0.022207
v -0.008570 -0.016869 -0.025764
v 0.016897 -0.021014 -0.026358
v -0.014495 -0.009171 -0.023984
v -0.003832 -0.011542 -0.026358
v 0.006827 -0.021609 0.021619
v 0.007418 -0.015683 0.022801
f 580 597 598 
f 552 550 553 
f 549 548 554 
f 552 553 555 
f 555 553 556 
f 549 554 556 
f 555 556 557 
f 556 554 557 
f 554 548 558 
f 549 556 560 
f 552 555 563 
f 562 552 563 
f 550 552 566 
f 553 550 568 
f 554 558 570 
f 562 554 570 
f 555 557 571 
f 548 549 572 
f 558 548 573 
f 548 572 573 
f 562 563 574 
f 551 564 574 
f 556 547 575 
f 560 556 575 
f 547 569 575 
f 569 560 575 
f 569 547 576 
f 557 554 577 
f 554 562 577 
f 565 550 578 
f 572 549 578 
f 555 571 579 
f 561 568 580 
f 559 560 581 
f 560 569 581 
f 569 561 581 
f 580 559 581 
f 561 580 581 
f 566 552 582 
f 572 566 582 
f 552 573 582 
f 573 572 582 
f 553 568 583 
f 568 561 583 
f 561 569 583 
f 576 553 583 
f 569 576 583 
f 550 566 584 
f 566 572 584 
f 578 550 584 
f 572 578 584 
f 564 551 585 
f 557 577 585 
f 577 564 585 
f 550 565 586 
f 568 550 586 
f 565 578 587 
f 549 560 588 
f 578 549 588 
f 567 587 588 
f 587 578 588 
f 563 555 589 
f 555 579 589 
f 579 563 589 
f 560 559 590 
f 588 560 590 
f 567 588 590 
f 570 558 591 
f 562 570 591 
f 556 553 592 
f 547 556 592 
f 553 576 592 
f 576 547 592 
f 571 551 593 
f 574 563 593 
f 551 574 593 
f 563 579 593 
f 579 571 593 
f 552 562 594 
f 558 573 594 
f 573 552 594 
f 591 558 594 
f 562 591 594 
f 551 571 595 
f 571 557 595 
f 585 551 595 
f 557 585 595 
f 562 574 596 
f 574 564 596 
f 577 562 596 
f 564 577 596 
f 580 568 597 
f 586 565 597 
f 568 586 597 
f 565 587 597 
f 597 587 598 
f 559 580 598 
f 587 567 598 
f 590 559 598 
f 567 590 598 
o convex_16
v 0.026375 0.009190 0.007996
v 0.013936 -0.003840 -0.019839
v 0.013936 0.002678 -0.021024
v 0.013936 0.010375 0.023396
v 0.015121 -0.003840 0.019840
v 0.018676 0.010375 -0.019839
v 0.021042 -0.003840 -0.012732
v 0.021042 -0.003840 0.013323
v 0.025190 0.010375 0.015694
v 0.025190 0.009190 -0.012141
v 0.013936 0.010375 -0.021619
v 0.013936 -0.003840 0.019840
v 0.026375 0.010375 -0.005034
v 0.021042 0.009783 0.019840
v 0.022228 0.009783 -0.016878
v 0.021635 -0.003247 -0.009180
v 0.016900 -0.003840 -0.018063
v 0.022228 -0.002060 0.010957
v 0.025782 0.008004 -0.007995
v 0.026375 0.009783 0.012733
v 0.015121 0.009783 0.023396
v 0.019861 -0.002655 0.015694
v 0.024004 0.008596 -0.014507
v 0.016900 0.009783 -0.021024
f 604 615 622 
f 601 600 602 
f 603 600 605 
f 603 605 606 
f 604 602 607 
f 601 602 609 
f 602 604 609 
f 602 600 610 
f 600 603 610 
f 604 607 611 
f 607 602 612 
f 604 611 613 
f 611 608 613 
f 606 605 614 
f 605 600 615 
f 604 613 615 
f 614 599 616 
f 606 614 616 
f 605 608 617 
f 611 599 617 
f 608 611 617 
f 599 614 617 
f 614 605 617 
f 607 606 618 
f 599 611 618 
f 611 607 618 
f 616 599 618 
f 606 616 618 
f 602 610 619 
f 610 603 619 
f 612 602 619 
f 603 612 619 
f 603 606 620 
f 606 607 620 
f 612 603 620 
f 607 612 620 
f 608 605 621 
f 613 608 621 
f 605 615 621 
f 615 613 621 
f 600 601 622 
f 601 609 622 
f 609 604 622 
f 615 600 622 
o convex_17
v 0.027559 0.041763 0.013910
v 0.013936 0.010375 -0.023984
v 0.013936 0.010968 -0.027533
v 0.013936 0.053614 0.019247
v 0.013936 0.010375 0.023392
v 0.034073 0.025781 -0.029912
v 0.013936 0.050059 -0.012134
v 0.026374 0.010375 0.013910
v 0.032297 0.039990 0.002066
v 0.030519 0.025185 0.016874
v 0.028151 0.012745 -0.017466
v 0.024005 0.032282 -0.029906
v 0.018084 0.031110 0.026356
v 0.024596 0.047684 -0.006212
v 0.034667 0.028147 -0.006803
v 0.033482 0.029921 -0.029912
v 0.013936 0.037023 -0.023388
v 0.018084 0.053614 0.013325
v 0.031704 0.019263 -0.029912
v 0.015121 0.048874 0.023392
v 0.025781 0.026966 0.022205
v 0.013936 0.016301 -0.029315
v 0.033482 0.029921 0.009765
v 0.013936 0.025185 0.027542
v 0.034667 0.033472 -0.015689
v 0.023413 0.016893 0.021615
v 0.028151 0.034060 0.018657
v 0.029336 0.013338 -0.012140
v 0.014529 0.053021 -0.003249
v 0.026374 0.010375 -0.005031
v 0.028744 0.044726 -0.002669
v 0.033482 0.035842 0.006807
v 0.020452 0.050059 -0.007399
v 0.029929 0.019263 0.014506
v 0.019269 0.022226 0.025760
v 0.014529 0.047684 -0.015689
v 0.029336 0.043541 0.006807
v 0.016306 0.053614 0.018651
v 0.031704 0.019856 -0.003850
v 0.024005 0.032879 0.022796
v 0.019862 0.010375 0.021024
v 0.021637 0.010375 -0.017466
v 0.024596 0.048874 -0.000302
v 0.031704 0.034064 0.013325
v 0.031704 0.031110 -0.029912
v 0.027559 0.017486 0.018060
v 0.018084 0.048874 -0.012134
v 0.029929 0.018078 -0.029912
v 0.026966 0.037023 0.018657
v 0.013936 0.041763 -0.021026
v 0.013936 0.033472 0.026946
v 0.026374 0.032879 -0.029906
v 0.034073 0.034657 0.004434
v 0.019862 0.051244 -0.003845
v 0.013936 0.013338 -0.029315
v 0.014529 0.012745 0.024573
v 0.029336 0.041170 0.011542
v 0.026966 0.046503 0.005620
v 0.024596 0.022814 0.022796
v 0.026966 0.045907 -0.005616
v 0.032297 0.026374 0.013325
v 0.020452 0.020453 -0.029906
v 0.026966 0.010968 0.012138
v 0.034667 0.029328 -0.023984
f 638 647 686 
f 625 624 626 
f 626 624 627 
f 625 626 629 
f 627 624 630 
f 625 629 639 
f 638 628 641 
f 625 639 644 
f 639 634 644 
f 626 627 646 
f 643 632 649 
f 633 641 650 
f 629 626 651 
f 626 640 651 
f 630 624 652 
f 650 630 652 
f 633 650 652 
f 631 647 653 
f 636 638 655 
f 629 651 655 
f 643 635 657 
f 635 646 657 
f 631 653 659 
f 654 631 659 
f 640 626 660 
f 626 642 660 
f 659 640 660 
f 628 637 661 
f 641 628 661 
f 650 641 661 
f 637 656 661 
f 642 635 662 
f 635 643 662 
f 643 649 662 
f 627 630 663 
f 648 657 663 
f 624 625 664 
f 625 633 664 
f 652 624 664 
f 633 652 664 
f 649 632 666 
f 645 654 666 
f 638 641 667 
f 655 638 667 
f 656 632 668 
f 630 656 668 
f 663 630 668 
f 648 663 668 
f 629 655 669 
f 658 629 669 
f 655 667 669 
f 667 658 669 
f 633 625 670 
f 641 633 670 
f 667 641 670 
f 660 642 671 
f 623 660 671 
f 642 662 671 
f 662 649 671 
f 649 666 671 
f 639 629 672 
f 634 639 672 
f 629 658 672 
f 642 626 673 
f 635 642 673 
f 626 646 673 
f 646 635 673 
f 667 634 674 
f 658 667 674 
f 634 672 674 
f 672 658 674 
f 645 637 675 
f 647 631 675 
f 637 647 675 
f 631 654 675 
f 654 645 675 
f 651 640 676 
f 636 655 676 
f 655 651 676 
f 665 636 676 
f 640 665 676 
f 625 644 677 
f 670 625 677 
f 646 627 678 
f 657 646 678 
f 627 663 678 
f 663 657 678 
f 654 659 679 
f 660 623 679 
f 659 660 679 
f 666 654 679 
f 623 671 679 
f 671 666 679 
f 640 659 680 
f 659 653 680 
f 653 665 680 
f 665 640 680 
f 632 643 681 
f 643 657 681 
f 657 648 681 
f 668 632 681 
f 648 668 681 
f 638 636 682 
f 647 638 682 
f 653 647 682 
f 636 665 682 
f 665 653 682 
f 637 645 683 
f 632 656 683 
f 656 637 683 
f 666 632 683 
f 645 666 683 
f 644 634 684 
f 634 667 684 
f 667 670 684 
f 677 644 684 
f 670 677 684 
f 630 650 685 
f 656 630 685 
f 650 661 685 
f 661 656 685 
f 637 628 686 
f 628 638 686 
f 647 637 686 
o convex_18
v -0.026933 -0.031087 0.013923
v -0.026341 -0.037600 0.032873
v -0.026341 -0.038194 0.032873
v -0.035818 -0.029902 0.026948
v -0.029303 -0.038194 0.010960
v -0.034040 -0.038194 0.024582
v -0.026341 -0.030495 0.024579
v -0.026341 -0.038194 0.007996
v -0.035818 -0.029310 0.022210
v -0.033448 -0.029902 0.031685
v -0.035818 -0.033455 0.020435
v -0.032264 -0.034046 0.032279
v -0.032264 -0.028717 0.025763
v -0.026341 -0.029902 0.018659
v -0.026933 -0.036416 0.008590
v -0.031671 -0.029310 0.030499
v -0.026341 -0.032864 0.029315
v -0.034633 -0.037600 0.022804
v -0.035225 -0.031086 0.019845
v -0.035818 -0.028717 0.026948
v -0.031671 -0.036416 0.031093
f 698 692 707 
f 691 689 692 
f 688 689 693 
f 689 691 694 
f 693 689 694 
f 690 695 697 
f 689 688 698 
f 690 692 698 
f 688 696 698 
f 696 690 698 
f 694 687 700 
f 693 694 700 
f 687 695 700 
f 695 699 700 
f 687 694 701 
f 694 691 701 
f 696 688 702 
f 693 700 702 
f 700 699 702 
f 688 693 703 
f 702 688 703 
f 693 702 703 
f 691 692 704 
f 692 690 704 
f 697 691 704 
f 690 697 704 
f 695 687 705 
f 691 697 705 
f 697 695 705 
f 687 701 705 
f 701 691 705 
f 695 690 706 
f 690 696 706 
f 699 695 706 
f 696 702 706 
f 702 699 706 
f 692 689 707 
f 689 698 707 
