o convex_0
v 0.017965 0.058130 0.028603
v -0.029147 -0.004451 0.017356
v -0.029147 -0.004451 0.019460
v 0.027810 -0.041020 0.006103
v -0.027041 0.058130 0.006100
v 0.015854 -0.041030 0.030012
v 0.027810 0.056712 0.006103
v -0.027741 -0.041724 0.006100
v -0.021413 0.054611 0.029307
v -0.022119 -0.041030 0.028603
v 0.027810 -0.036797 0.022976
v 0.027104 0.054611 0.024385
v -0.027741 0.056712 0.022274
v 0.019371 0.053897 0.030012
v -0.012974 -0.040326 0.030012
v -0.027741 -0.037501 0.023680
v 0.023587 -0.039622 0.027900
v -0.029147 0.052489 0.010323
v -0.010163 -0.043142 0.006805
v 0.028510 0.020143 0.011727
v -0.004535 0.056712 0.030012
v 0.020776 -0.042438 0.021571
v -0.019302 -0.042438 0.027198
v -0.022119 0.058130 0.026491
v 0.025699 0.058130 0.006805
v -0.027041 0.049674 0.025087
v -0.028447 -0.039622 0.006100
v 0.028510 -0.039613 0.006103
v -0.029147 0.037729 0.020867
v 0.027810 0.049684 0.022274
v -0.024930 -0.031177 0.027196
v 0.028510 -0.031880 0.018056
v 0.022887 0.044053 0.028603
v 0.019371 -0.033288 0.030012
v 0.026404 -0.031880 0.025791
v 0.020071 -0.042438 0.006100
v -0.028447 0.056712 0.006100
v -0.021413 -0.035400 0.029307
v -0.028447 -0.039622 0.019460
v 0.025699 -0.041724 0.023680
v 0.025699 0.057416 0.024385
v -0.025636 -0.042438 0.018758
v -0.024230 0.051082 0.027898
v -0.010863 0.053907 0.030012
v 0.017965 -0.041724 0.029307
v 0.028510 0.014522 0.006103
v -0.029147 0.051795 0.019460
v -0.017896 0.057426 0.029307
v -0.028447 0.046859 0.022976
v 0.024293 0.056008 0.027198
v -0.028447 -0.034696 0.022274
v -0.027041 -0.031880 0.025087
v -0.015085 -0.043142 0.006100
v 0.021482 -0.029769 0.029307
v 0.027810 -0.040326 0.020867
v -0.027041 -0.041724 0.021569
v -0.028447 0.057416 0.017356
v -0.018602 -0.041734 0.029307
v 0.015154 0.057416 0.030012
v -0.023524 0.056712 0.027898
v 0.027104 -0.041724 0.006103
v -0.029147 0.008188 0.013134
v 0.027810 0.054611 0.019460
v -0.026336 -0.042438 0.006805
f 42 56 64 
f 6 14 15 
f 2 3 18 
f 15 14 21 
f 19 22 23 
f 1 5 24 
f 5 1 25 
f 7 5 25 
f 3 2 27 
f 5 8 27 
f 18 3 29 
f 12 11 30 
f 28 20 32 
f 30 11 32 
f 20 30 32 
f 14 6 34 
f 11 12 35 
f 17 11 35 
f 33 17 35 
f 5 7 36 
f 8 5 36 
f 22 19 36 
f 28 4 36 
f 5 27 37 
f 27 18 37 
f 15 9 38 
f 31 10 38 
f 3 27 39 
f 27 8 39 
f 11 17 40 
f 25 1 41 
f 7 25 41 
f 38 9 43 
f 31 38 43 
f 9 15 44 
f 15 21 44 
f 23 22 45 
f 17 34 45 
f 34 6 45 
f 40 17 45 
f 22 40 45 
f 7 20 46 
f 20 28 46 
f 36 7 46 
f 28 36 46 
f 18 29 47 
f 1 24 48 
f 9 44 48 
f 44 21 48 
f 26 13 49 
f 13 47 49 
f 47 29 49 
f 14 33 50 
f 35 12 50 
f 33 35 50 
f 12 41 50 
f 41 1 50 
f 29 3 51 
f 3 39 51 
f 39 16 51 
f 16 49 51 
f 49 29 51 
f 16 10 52 
f 10 31 52 
f 43 26 52 
f 31 43 52 
f 26 49 52 
f 49 16 52 
f 19 23 53 
f 8 36 53 
f 36 19 53 
f 23 42 53 
f 33 14 54 
f 17 33 54 
f 34 17 54 
f 14 34 54 
f 4 28 55 
f 32 11 55 
f 28 32 55 
f 11 40 55 
f 10 16 56 
f 23 10 56 
f 16 39 56 
f 39 8 56 
f 42 23 56 
f 24 5 57 
f 13 24 57 
f 5 37 57 
f 37 18 57 
f 47 13 57 
f 18 47 57 
f 6 15 58 
f 10 23 58 
f 38 10 58 
f 15 38 58 
f 45 6 58 
f 23 45 58 
f 21 14 59 
f 1 48 59 
f 48 21 59 
f 50 1 59 
f 14 50 59 
f 24 13 60 
f 13 26 60 
f 43 9 60 
f 26 43 60 
f 48 24 60 
f 9 48 60 
f 36 4 61 
f 22 36 61 
f 40 22 61 
f 4 55 61 
f 55 40 61 
f 2 18 62 
f 27 2 62 
f 18 27 62 
f 20 7 63 
f 12 30 63 
f 30 20 63 
f 7 41 63 
f 41 12 63 
f 8 53 64 
f 53 42 64 
f 56 8 64 
o convex_1
v -0.023527 -0.064232 -0.026951
v -0.017902 0.058130 0.006100
v -0.017902 0.058130 -0.009375
v -0.028449 0.056713 0.006100
v -0.017902 -0.045945 0.005394
v -0.028449 0.020842 -0.031170
v -0.028449 -0.039624 0.006100
v -0.017902 -0.064934 -0.026951
v -0.019308 0.021545 -0.031170
v -0.029153 -0.048053 -0.030468
v -0.026339 -0.066339 -0.006561
v -0.027043 0.053903 -0.019918
v -0.017902 0.052498 -0.021323
v -0.017902 -0.067041 -0.004450
v -0.021419 -0.049470 -0.031877
v -0.029153 0.020152 -0.029062
v -0.029153 -0.054374 -0.023434
v -0.027747 0.057415 -0.012189
v -0.024932 -0.066339 -0.024137
v -0.017902 -0.043136 0.006100
v -0.017902 0.015223 -0.027654
v -0.027043 -0.049457 -0.031877
v -0.025636 0.020140 -0.031877
v -0.027747 -0.063517 -0.009375
v -0.022121 -0.067041 -0.004450
v -0.017902 -0.067756 -0.023434
v -0.017902 0.057415 -0.016401
v -0.028449 0.053903 -0.012189
v -0.019308 -0.050874 -0.030468
v -0.027043 0.058130 0.006100
v -0.020011 0.019437 -0.031877
v -0.027747 -0.041731 0.006100
v -0.026339 -0.063530 -0.025546
v -0.026339 0.051796 -0.021327
v -0.027747 0.051784 -0.020624
v -0.029153 -0.040314 -0.022029
v -0.023527 0.058130 -0.013587
v -0.022121 -0.067756 -0.019215
v -0.025636 0.022949 -0.031170
v -0.024230 0.056713 -0.017810
v -0.027043 -0.064934 -0.015698
v -0.028449 -0.050160 -0.031170
v -0.024230 -0.067041 -0.005152
v -0.017902 0.031390 -0.026248
v -0.027043 -0.064232 -0.005859
v -0.021419 0.022949 -0.031170
v -0.024230 -0.065637 -0.026248
v -0.025636 -0.067041 -0.012888
v -0.029153 -0.053672 -0.026248
v -0.029153 0.018735 -0.027654
v -0.029153 0.019437 -0.029765
v -0.022823 0.052498 -0.021327
v -0.020011 -0.050874 -0.031170
v -0.028449 0.056010 -0.008669
f 82 92 118 
f 67 66 69 
f 66 68 71 
f 67 69 72 
f 67 72 77 
f 72 69 78 
f 80 74 81 
f 69 66 84 
f 66 71 84 
f 72 73 85 
f 77 72 85 
f 72 65 86 
f 79 72 86 
f 79 86 87 
f 86 70 87 
f 71 81 88 
f 78 69 89 
f 72 78 90 
f 67 77 91 
f 73 72 93 
f 66 67 94 
f 68 66 94 
f 82 68 94 
f 79 87 95 
f 73 93 95 
f 69 84 96 
f 84 71 96 
f 89 69 96 
f 82 76 99 
f 92 82 99 
f 98 70 99 
f 76 98 99 
f 71 68 100 
f 81 71 100 
f 80 81 100 
f 67 91 101 
f 94 67 101 
f 82 94 101 
f 78 89 102 
f 90 78 102 
f 83 90 102 
f 87 70 103 
f 70 98 103 
f 76 82 104 
f 91 77 104 
f 82 101 104 
f 101 91 104 
f 75 88 105 
f 88 81 105 
f 97 83 105 
f 74 70 106 
f 70 86 106 
f 89 96 107 
f 102 89 107 
f 73 77 108 
f 85 73 108 
f 77 85 108 
f 71 88 109 
f 88 75 109 
f 96 71 109 
f 75 107 109 
f 107 96 109 
f 77 73 110 
f 73 95 110 
f 95 87 110 
f 87 103 110 
f 65 72 111 
f 86 65 111 
f 72 90 111 
f 90 83 111 
f 83 97 111 
f 106 86 111 
f 97 106 111 
f 83 102 112 
f 75 105 112 
f 105 83 112 
f 107 75 112 
f 102 107 112 
f 81 74 113 
f 105 81 113 
f 97 105 113 
f 74 106 113 
f 106 97 113 
f 68 80 114 
f 100 68 114 
f 80 100 114 
f 70 74 115 
f 74 80 115 
f 80 92 115 
f 99 70 115 
f 92 99 115 
f 98 76 116 
f 103 98 116 
f 76 104 116 
f 104 77 116 
f 77 110 116 
f 110 103 116 
f 72 79 117 
f 93 72 117 
f 79 95 117 
f 95 93 117 
f 80 68 118 
f 68 82 118 
f 92 80 118 
o convex_2
v 0.016556 0.055998 -0.018512
v -0.017901 -0.067756 -0.023437
v 0.006712 -0.067756 -0.023437
v -0.015084 -0.048767 0.006100
v -0.017901 0.053903 -0.020622
v 0.019373 0.058130 0.006100
v 0.017260 -0.064232 0.002583
v -0.017901 0.058130 0.006100
v 0.019373 -0.043136 -0.026954
v -0.015785 0.027164 -0.026954
v 0.019373 0.025759 -0.026954
v -0.017901 -0.067041 -0.004454
v 0.019373 -0.044541 0.006100
v -0.017901 -0.064934 -0.026954
v 0.019373 -0.065637 -0.025546
v -0.009458 -0.067041 0.003285
v 0.019373 -0.067756 -0.005861
v -0.011567 0.058130 -0.013591
v 0.019373 0.051094 -0.021324
v -0.017901 -0.045945 0.006100
v -0.017901 0.031390 -0.026248
v 0.011634 -0.064934 0.003987
v 0.019373 0.057415 -0.015697
v -0.017901 0.057403 -0.016403
v -0.014384 -0.062827 0.003987
v 0.004603 -0.062827 -0.026954
v 0.019373 -0.067756 -0.022731
v 0.013039 -0.067041 0.002583
v 0.015151 0.058130 -0.013591
v -0.014384 0.044045 -0.023437
v 0.019373 -0.064232 -0.026248
v -0.008757 -0.067756 -0.012184
v -0.010866 -0.065637 0.003987
v -0.016489 -0.066339 -0.026248
v 0.016556 -0.046648 0.006100
v -0.017901 0.015913 -0.026954
v 0.019373 -0.052982 0.003987
v 0.015151 0.032795 -0.025546
v -0.017901 0.049677 -0.022029
v -0.004536 -0.060720 0.004693
v 0.013743 0.054606 -0.019920
v -0.013679 -0.066339 0.002583
v -0.017901 0.058130 -0.010084
v -0.017901 0.056713 -0.017810
v 0.007417 -0.067756 -0.005156
v 0.016556 -0.061422 0.003987
v 0.019373 -0.067041 -0.003752
v 0.007417 0.051796 -0.021327
v 0.008825 -0.067041 -0.024841
v 0.011634 0.057403 -0.016403
v -0.012271 0.031390 -0.026248
v 0.008825 -0.067041 0.003285
v -0.015084 -0.062827 0.003285
v -0.017901 -0.067756 -0.018512
v 0.018665 0.048272 -0.022029
f 156 169 173 
f 123 120 126 
f 122 124 126 
f 127 128 129 
f 124 127 129 
f 126 120 130 
f 124 122 131 
f 127 124 131 
f 120 123 132 
f 128 127 132 
f 127 131 133 
f 120 121 135 
f 133 131 135 
f 126 124 136 
f 124 129 137 
f 122 126 138 
f 126 130 138 
f 132 123 139 
f 137 119 141 
f 124 137 141 
f 123 126 142 
f 122 138 143 
f 132 127 144 
f 135 121 145 
f 133 135 145 
f 125 140 146 
f 136 124 147 
f 124 141 147 
f 142 136 147 
f 127 133 149 
f 144 127 149 
f 132 144 149 
f 120 135 150 
f 122 143 151 
f 121 120 152 
f 120 132 152 
f 149 133 152 
f 132 149 152 
f 131 122 153 
f 128 132 154 
f 139 128 154 
f 132 139 154 
f 135 131 155 
f 139 123 157 
f 148 139 157 
f 122 151 158 
f 151 140 158 
f 153 122 158 
f 140 153 158 
f 119 137 159 
f 130 134 160 
f 134 151 160 
f 151 143 160 
f 126 136 161 
f 142 126 161 
f 136 142 161 
f 123 142 162 
f 119 159 162 
f 159 123 162 
f 134 150 163 
f 150 135 163 
f 140 125 164 
f 131 153 164 
f 153 140 164 
f 125 155 164 
f 155 131 164 
f 125 146 165 
f 146 135 165 
f 155 125 165 
f 135 155 165 
f 157 123 166 
f 148 157 166 
f 123 159 166 
f 159 137 166 
f 145 121 167 
f 133 145 167 
f 121 152 167 
f 152 133 167 
f 141 119 168 
f 147 141 168 
f 142 147 168 
f 119 162 168 
f 162 142 168 
f 129 128 169 
f 128 139 169 
f 139 148 169 
f 156 129 169 
f 135 146 170 
f 146 140 170 
f 151 134 170 
f 140 151 170 
f 163 135 170 
f 134 163 170 
f 138 130 171 
f 143 138 171 
f 130 160 171 
f 160 143 171 
f 130 120 172 
f 134 130 172 
f 120 150 172 
f 150 134 172 
f 137 129 173 
f 129 156 173 
f 166 137 173 
f 148 166 173 
f 169 148 173 
o convex_3
v 0.027812 0.049680 -0.020624
v 0.024998 0.058130 0.006100
v 0.019374 0.058130 0.006100
v 0.019374 -0.016417 0.006100
v 0.019374 0.018747 -0.029062
v 0.028515 -0.016417 -0.024843
v 0.027812 -0.016417 0.006100
v 0.019374 -0.016417 -0.026248
v 0.019374 0.056721 -0.017107
v 0.029218 0.022958 -0.030468
v 0.027812 0.056714 0.006100
v 0.029218 0.020856 -0.010780
v 0.021484 0.020856 -0.031877
v 0.028515 0.054605 -0.014293
v 0.027812 0.018054 -0.031877
v 0.028515 0.006094 0.006100
v 0.019374 0.052496 -0.020624
v 0.027108 0.057422 -0.012888
v 0.028515 -0.016417 -0.007264
v 0.028515 0.047571 0.000472
v 0.027107 -0.016417 -0.026248
v 0.027108 0.023658 -0.031170
v 0.029218 0.011020 -0.023434
v 0.020781 0.017346 -0.031877
v 0.026405 0.053905 -0.019215
v 0.019374 0.058130 -0.003747
v 0.020077 0.021550 -0.031170
v 0.024296 0.050388 -0.021327
v 0.029218 0.027183 -0.017810
v 0.029218 0.016639 -0.030468
v 0.028515 0.015238 0.006100
v 0.028515 0.054605 -0.007264
v 0.020781 0.057422 -0.015698
v 0.027812 0.057422 -0.005859
v 0.028515 -0.012192 -0.003045
v 0.028515 0.051789 -0.017810
v 0.027108 0.056014 -0.016401
v 0.024296 0.058130 -0.003747
v 0.029218 0.014530 -0.014293
f 208 192 212 
f 175 176 177 
f 177 176 178 
f 175 177 180 
f 177 179 180 
f 177 178 181 
f 179 177 181 
f 178 176 182 
f 175 180 184 
f 184 180 189 
f 178 182 190 
f 180 179 192 
f 179 181 194 
f 174 183 195 
f 183 188 195 
f 188 186 195 
f 186 190 195 
f 183 185 196 
f 192 179 196 
f 186 188 197 
f 194 181 197 
f 188 194 197 
f 190 182 198 
f 176 175 199 
f 182 176 199 
f 181 178 200 
f 178 190 200 
f 190 186 200 
f 197 181 200 
f 186 197 200 
f 174 195 201 
f 195 190 201 
f 198 174 201 
f 190 198 201 
f 185 183 202 
f 183 187 202 
f 188 183 203 
f 179 194 203 
f 194 188 203 
f 196 179 203 
f 183 196 203 
f 184 189 204 
f 189 185 204 
f 193 184 204 
f 185 193 204 
f 184 193 205 
f 193 185 205 
f 185 202 205 
f 202 187 205 
f 182 199 206 
f 175 184 207 
f 187 191 207 
f 184 205 207 
f 205 187 207 
f 189 180 208 
f 185 189 208 
f 180 192 208 
f 183 174 209 
f 187 183 209 
f 174 198 209 
f 209 198 210 
f 191 187 210 
f 198 182 210 
f 182 206 210 
f 206 191 210 
f 187 209 210 
f 199 175 211 
f 191 206 211 
f 206 199 211 
f 175 207 211 
f 207 191 211 
f 196 185 212 
f 192 196 212 
f 185 208 212 
o convex_4
v 0.024295 -0.067756 -0.020624
v 0.027811 -0.016417 0.006100
v 0.019373 -0.016417 0.006100
v 0.019373 -0.016417 -0.026248
v 0.029922 -0.044544 -0.030468
v 0.019373 -0.067053 -0.003747
v 0.028514 -0.062831 -0.006561
v 0.019373 -0.063530 -0.026248
v 0.028515 -0.016417 -0.024840
v 0.028514 -0.039629 0.006100
v 0.020780 -0.049469 -0.031877
v 0.019373 -0.043841 0.006100
v 0.028514 -0.063530 -0.024843
v 0.029922 -0.049464 -0.010784
v 0.026405 -0.067053 -0.005859
v 0.028514 -0.045946 -0.031877
v 0.028515 -0.016417 -0.005156
v 0.019373 -0.067053 -0.024137
v 0.029922 -0.055796 -0.021323
v 0.029218 -0.050876 -0.031170
v 0.027108 -0.016417 -0.026248
v 0.028515 -0.025563 0.006100
v 0.029922 -0.041031 -0.024137
v 0.027108 -0.041740 0.006100
v 0.020780 -0.045243 -0.031877
v 0.028514 -0.064937 -0.023434
v 0.026405 -0.065641 -0.004450
v 0.020077 -0.048765 0.004691
v 0.024997 -0.064937 -0.025546
v 0.020077 -0.044544 -0.031170
v 0.019373 -0.067756 -0.005859
v 0.029922 -0.051575 -0.029761
v 0.028514 -0.064937 -0.010780
v 0.027108 -0.067053 -0.018513
v 0.027108 -0.044544 -0.031877
v 0.029922 -0.044544 -0.014290
v 0.022891 -0.066349 -0.003747
v 0.024295 -0.067756 -0.006561
v 0.019373 -0.067756 -0.022029
v 0.024997 -0.067053 -0.023434
v 0.027811 -0.051575 -0.031170
v 0.029922 -0.055092 -0.015698
v 0.019373 -0.043841 -0.027654
v 0.028515 -0.022046 0.003985
v 0.027811 -0.064937 -0.005859
v 0.020077 -0.065641 -0.025546
f 253 241 258 
f 215 214 216 
f 215 216 218 
f 218 216 220 
f 216 214 221 
f 214 215 222 
f 215 218 224 
f 222 215 224 
f 222 219 226 
f 221 214 229 
f 218 220 230 
f 217 226 231 
f 228 217 232 
f 216 221 233 
f 221 217 233 
f 217 228 233 
f 214 222 234 
f 222 226 234 
f 217 221 235 
f 226 217 235 
f 221 229 235 
f 222 224 236 
f 228 223 237 
f 222 236 239 
f 224 218 240 
f 236 224 240 
f 232 225 241 
f 223 220 242 
f 216 237 242 
f 237 223 242 
f 218 230 243 
f 217 231 244 
f 225 232 244 
f 232 217 244 
f 238 225 244 
f 231 238 244 
f 238 231 245 
f 238 245 246 
f 245 227 246 
f 216 233 247 
f 233 228 247 
f 237 216 247 
f 228 237 247 
f 226 235 248 
f 235 229 248 
f 218 227 249 
f 227 239 249 
f 239 236 249 
f 236 240 249 
f 240 218 249 
f 227 218 250 
f 243 213 250 
f 218 243 250 
f 213 246 250 
f 246 227 250 
f 213 243 251 
f 243 230 251 
f 225 238 252 
f 241 225 252 
f 238 246 252 
f 246 213 252 
f 213 251 252 
f 251 230 252 
f 223 228 253 
f 228 232 253 
f 232 241 253 
f 226 219 254 
f 231 226 254 
f 219 245 254 
f 245 231 254 
f 220 216 255 
f 216 242 255 
f 242 220 255 
f 229 214 256 
f 214 234 256 
f 234 226 256 
f 226 248 256 
f 248 229 256 
f 219 222 257 
f 222 239 257 
f 239 227 257 
f 245 219 257 
f 227 245 257 
f 220 223 258 
f 230 220 258 
f 252 230 258 
f 241 252 258 
f 223 253 258 
