o convex_0
v 0.044881 -0.011820 -0.036967
v 0.038649 -0.041600 -0.030737
v 0.032417 -0.040906 -0.032814
v 0.026182 -0.015283 -0.002344
v 0.053887 -0.029823 -0.005807
v 0.028262 -0.020825 -0.043205
v 0.052501 -0.029823 -0.043205
v 0.053193 -0.011128 -0.016202
v 0.028262 -0.036056 -0.009275
v 0.052501 -0.040906 -0.019662
v 0.029648 -0.009742 -0.028661
v 0.027571 -0.034670 -0.039737
v 0.053193 -0.016666 -0.039741
v 0.051115 -0.017361 -0.005807
v 0.051115 -0.038137 -0.037660
v 0.045572 -0.031209 -0.003731
v 0.028262 -0.040906 -0.021044
v 0.026182 -0.012511 -0.004424
v 0.049730 -0.009047 -0.026580
v 0.047652 -0.039519 -0.012045
v 0.047652 -0.022208 -0.045285
v 0.032417 -0.033284 -0.043205
v 0.026182 -0.022208 -0.002344
v 0.026182 -0.027054 -0.030040
v 0.028262 -0.013897 -0.037665
v 0.050421 -0.024288 -0.003037
v 0.033805 -0.009047 -0.018968
v 0.053193 -0.039519 -0.030044
v 0.053887 -0.011820 -0.026580
v 0.033111 -0.016666 -0.042511
v 0.033111 -0.041600 -0.018279
v 0.033111 -0.035364 -0.006501
v 0.032417 -0.027054 -0.045285
v 0.046267 -0.032595 -0.043898
v 0.047652 -0.010434 -0.014121
v 0.051115 -0.036056 -0.007888
v 0.050421 -0.041600 -0.028657
v 0.051115 -0.013897 -0.039048
v 0.053887 -0.020825 -0.005807
v 0.031725 -0.038137 -0.038358
v 0.027571 -0.038825 -0.031431
v 0.051115 -0.013206 -0.009964
v 0.033111 -0.038825 -0.010658
v 0.032417 -0.010434 -0.033508
v 0.053193 -0.033284 -0.039741
v 0.032417 -0.031209 -0.003731
v 0.026182 -0.022208 -0.029350
v 0.027571 -0.030515 -0.042511
v 0.046961 -0.041600 -0.017585
v 0.049038 -0.016666 -0.042511
v 0.034497 -0.020133 -0.044588
v 0.026182 -0.029823 -0.023814
v 0.046961 -0.038825 -0.037660
v 0.053193 -0.021516 -0.042511
v 0.053193 -0.038137 -0.012734
v 0.049038 -0.027054 -0.045285
v 0.049038 -0.009742 -0.031431
v 0.033111 -0.009047 -0.028661
v 0.047652 -0.009047 -0.019662
v 0.028262 -0.011128 -0.032120
v 0.048347 -0.028440 -0.003037
v 0.033111 -0.013897 -0.039737
v 0.052501 -0.010434 -0.030044
v 0.031031 -0.041600 -0.029350
f 17 41 64 
f 4 14 18 
f 17 9 23 
f 4 18 23 
f 23 18 24 
f 14 4 26 
f 4 23 26 
f 11 18 27 
f 6 25 30 
f 7 15 34 
f 22 33 34 
f 16 32 36 
f 28 10 37 
f 15 28 37 
f 31 2 37 
f 14 26 39 
f 26 5 39 
f 5 29 39 
f 29 8 39 
f 12 22 40 
f 22 34 40 
f 24 12 41 
f 40 3 41 
f 12 40 41 
f 18 14 42 
f 8 35 42 
f 35 18 42 
f 39 8 42 
f 14 39 42 
f 9 17 43 
f 17 31 43 
f 32 9 43 
f 20 36 43 
f 36 32 43 
f 15 7 45 
f 5 28 45 
f 28 15 45 
f 29 5 45 
f 23 9 46 
f 32 16 46 
f 9 32 46 
f 24 18 47 
f 25 6 47 
f 22 12 48 
f 12 24 48 
f 6 33 48 
f 33 22 48 
f 24 47 48 
f 47 6 48 
f 10 20 49 
f 37 10 49 
f 31 37 49 
f 43 31 49 
f 20 43 49 
f 1 38 50 
f 38 13 50 
f 6 30 51 
f 33 6 51 
f 21 33 51 
f 50 21 51 
f 30 50 51 
f 17 23 52 
f 23 24 52 
f 41 17 52 
f 24 41 52 
f 2 3 53 
f 34 15 53 
f 37 2 53 
f 15 37 53 
f 3 40 53 
f 40 34 53 
f 13 29 54 
f 45 7 54 
f 29 45 54 
f 50 13 54 
f 21 50 54 
f 20 10 55 
f 10 28 55 
f 28 5 55 
f 5 36 55 
f 36 20 55 
f 33 21 56 
f 7 34 56 
f 34 33 56 
f 54 7 56 
f 21 54 56 
f 38 1 57 
f 1 44 57 
f 57 44 58 
f 11 27 58 
f 27 19 58 
f 44 11 58 
f 19 57 58 
f 8 19 59 
f 27 18 59 
f 19 27 59 
f 35 8 59 
f 18 35 59 
f 18 11 60 
f 11 44 60 
f 44 25 60 
f 47 18 60 
f 25 47 60 
f 5 26 61 
f 26 23 61 
f 36 5 61 
f 16 36 61 
f 46 16 61 
f 23 46 61 
f 30 25 62 
f 44 1 62 
f 25 44 62 
f 1 50 62 
f 50 30 62 
f 19 8 63 
f 8 29 63 
f 29 13 63 
f 13 38 63 
f 57 19 63 
f 38 57 63 
f 3 2 64 
f 2 31 64 
f 31 17 64 
f 41 3 64 
o convex_1
v 0.001945 0.022123 0.044061
v 0.034489 0.038050 0.037136
v 0.037261 0.037357 0.037828
v 0.045574 0.025586 0.041292
v 0.028944 0.019350 0.049602
v -0.002214 0.020043 0.049602
v 0.015110 0.034584 0.035751
v 0.037955 0.018657 0.045447
v 0.013724 0.035277 0.039213
v 0.045574 0.028354 0.043368
v 0.038648 0.035277 0.035751
v -0.002907 0.018657 0.047524
v 0.037261 0.018657 0.048909
v 0.044876 0.033202 0.040599
v 0.023403 0.038050 0.035058
v 0.046268 0.030428 0.038521
v 0.009565 0.031814 0.039213
v -0.002907 0.018657 0.049602
v 0.040034 0.036664 0.036444
v 0.033796 0.035970 0.035058
v -0.000828 0.019350 0.046138
v 0.046268 0.026279 0.043368
f 80 78 86 
f 71 68 72 
f 65 71 72 
f 67 66 73 
f 70 67 73 
f 74 69 77 
f 76 72 77 
f 67 70 78 
f 70 69 78 
f 69 74 78 
f 73 66 79 
f 71 73 79 
f 71 65 81 
f 70 73 81 
f 73 71 81 
f 76 70 81 
f 65 76 81 
f 69 70 82 
f 70 76 82 
f 77 69 82 
f 76 77 82 
f 66 67 83 
f 67 78 83 
f 79 66 83 
f 80 75 83 
f 78 80 83 
f 68 71 84 
f 71 79 84 
f 80 68 84 
f 75 80 84 
f 79 83 84 
f 83 75 84 
f 65 72 85 
f 76 65 85 
f 72 76 85 
f 72 68 86 
f 77 72 86 
f 74 77 86 
f 78 74 86 
f 68 80 86 
o convex_2
v -0.035461 -0.009047 -0.024504
v -0.050002 -0.042293 -0.028661
v -0.035461 -0.042293 -0.028661
v -0.050695 -0.029129 -0.002344
v -0.056234 -0.018748 -0.041124
v -0.033383 -0.028440 -0.044592
v -0.030613 -0.028440 -0.004424
v -0.054158 -0.013203 -0.009964
v -0.054851 -0.038824 -0.011351
v -0.054851 -0.034671 -0.041124
v -0.029227 -0.015979 -0.009968
v -0.029920 -0.040213 -0.017585
v -0.031305 -0.016669 -0.039741
v -0.054158 -0.010434 -0.031431
v -0.030613 -0.036751 -0.037665
v -0.034076 -0.020825 -0.003041
v -0.033383 -0.036751 -0.007198
v -0.055544 -0.020131 -0.005118
v -0.052773 -0.022211 -0.044588
v -0.029227 -0.022901 -0.036278
v -0.034076 -0.011127 -0.012739
v -0.055544 -0.010434 -0.020359
v -0.055544 -0.040213 -0.029350
v -0.050002 -0.041600 -0.015504
v -0.035461 -0.013896 -0.039048
v -0.035461 -0.038137 -0.039048
v -0.031305 -0.011127 -0.030044
v -0.035461 -0.021518 -0.044592
v -0.051388 -0.015979 -0.041124
v -0.050002 -0.018748 -0.003731
v -0.051388 -0.031899 -0.043898
v -0.050695 -0.040213 -0.035588
v -0.056234 -0.015283 -0.012734
v -0.050695 -0.009741 -0.016891
v -0.035461 -0.042293 -0.018972
v -0.053466 -0.033978 -0.005118
v -0.033383 -0.030516 -0.003041
v -0.056234 -0.028440 -0.042511
v -0.029227 -0.036054 -0.027274
v -0.036847 -0.015283 -0.006501
v -0.029227 -0.030516 -0.009271
v -0.034769 -0.011127 -0.034197
v -0.055544 -0.040213 -0.020359
v -0.055544 -0.027053 -0.004424
v -0.030613 -0.025670 -0.042511
v -0.029227 -0.015979 -0.029350
v -0.030613 -0.040907 -0.028661
v -0.034769 -0.040213 -0.012045
v -0.051388 -0.038137 -0.008581
v -0.032691 -0.009741 -0.019662
v -0.036154 -0.034671 -0.042511
v -0.056234 -0.011820 -0.032120
v -0.052773 -0.013203 -0.037665
v -0.052080 -0.042293 -0.020359
v -0.050695 -0.022211 -0.002344
v -0.033383 -0.024287 -0.002344
v -0.050695 -0.036751 -0.040435
v -0.040310 -0.027053 -0.045285
v -0.052773 -0.009741 -0.029350
v -0.045849 -0.033978 -0.004424
v -0.050695 -0.013896 -0.007892
v -0.031305 -0.037441 -0.009271
v -0.029227 -0.018748 -0.007198
v -0.035461 -0.017359 -0.042511
f 105 115 150 
f 105 91 115 
f 94 104 116 
f 89 88 118 
f 88 109 118 
f 109 96 118 
f 112 89 118 
f 104 94 119 
f 94 108 119 
f 108 94 120 
f 88 89 121 
f 91 105 124 
f 96 109 124 
f 117 96 124 
f 105 117 124 
f 119 91 124 
f 106 97 125 
f 101 106 125 
f 97 107 126 
f 116 102 126 
f 125 97 127 
f 98 125 127 
f 99 111 128 
f 113 99 128 
f 87 113 128 
f 124 109 129 
f 119 124 129 
f 104 119 130 
f 122 90 130 
f 95 122 130 
f 129 95 130 
f 119 129 130 
f 101 92 131 
f 99 106 131 
f 106 101 131 
f 92 114 131 
f 114 99 131 
f 97 106 132 
f 106 99 132 
f 113 97 132 
f 99 113 132 
f 89 112 133 
f 112 101 133 
f 121 89 133 
f 98 121 133 
f 125 98 133 
f 101 125 133 
f 121 98 134 
f 110 121 134 
f 95 110 135 
f 122 95 135 
f 134 103 135 
f 110 134 135 
f 107 97 136 
f 97 113 136 
f 113 87 136 
f 87 120 136 
f 120 107 136 
f 92 101 137 
f 101 112 137 
f 108 100 138 
f 91 119 138 
f 119 108 138 
f 111 115 139 
f 115 91 139 
f 100 128 139 
f 128 111 139 
f 138 100 139 
f 91 138 139 
f 109 88 140 
f 110 95 140 
f 88 121 140 
f 121 110 140 
f 95 129 140 
f 129 109 140 
f 102 116 141 
f 116 104 141 
f 130 90 141 
f 104 130 141 
f 90 123 142 
f 123 93 142 
f 102 141 142 
f 141 90 142 
f 96 117 143 
f 118 96 143 
f 112 118 143 
f 137 112 143 
f 117 137 143 
f 114 92 144 
f 105 114 144 
f 117 105 144 
f 92 137 144 
f 137 117 144 
f 100 108 145 
f 120 87 145 
f 108 120 145 
f 87 128 145 
f 128 100 145 
f 90 122 146 
f 123 90 146 
f 103 123 146 
f 135 103 146 
f 122 135 146 
f 94 116 147 
f 107 120 147 
f 120 94 147 
f 126 107 147 
f 116 126 147 
f 93 123 148 
f 123 103 148 
f 127 93 148 
f 98 127 148 
f 103 134 148 
f 134 98 148 
f 97 126 149 
f 126 102 149 
f 93 127 149 
f 127 97 149 
f 142 93 149 
f 102 142 149 
f 111 99 150 
f 99 114 150 
f 114 105 150 
f 115 111 150 
o convex_3
v -0.009830 -0.048524 0.019134
v 0.016486 -0.031905 0.039208
v 0.015791 -0.031905 0.040595
v -0.011217 -0.031905 0.008046
v 0.013020 -0.047140 -0.002344
v -0.009139 -0.031905 0.041982
v 0.013020 -0.035369 -0.002344
v -0.012604 -0.046446 -0.002344
v 0.012329 -0.045062 0.029511
v -0.007060 -0.040906 0.037131
v -0.012604 -0.036061 -0.002344
v 0.014407 -0.031905 0.008740
v 0.013715 -0.047831 0.018436
v -0.009139 -0.049217 0.003200
v -0.010525 -0.043675 0.030209
v 0.010942 -0.036754 0.039901
v 0.015791 -0.043677 0.023976
v 0.008171 -0.049217 0.012203
v -0.008447 -0.046446 0.028124
v -0.002903 -0.032599 0.043369
v -0.010525 -0.034676 -0.002344
v -0.011909 -0.031905 0.012203
v 0.015791 -0.040906 0.033668
v 0.008171 -0.047831 0.022589
v 0.006787 -0.048524 -0.000956
v 0.007479 -0.031905 0.005970
v -0.012604 -0.047140 0.003200
v 0.013715 -0.045753 -0.002344
v -0.009139 -0.048524 -0.002344
v -0.009830 -0.033292 0.040590
v 0.013020 -0.040216 0.036442
v -0.007755 -0.049217 0.016365
v 0.013715 -0.047831 0.004583
v -0.008447 -0.036754 0.040590
v -0.002903 -0.042984 0.034362
v 0.013715 -0.032599 0.041982
v 0.008866 -0.034676 -0.002344
v 0.013715 -0.036754 -0.002344
v 0.016486 -0.031905 0.035055
v 0.015099 -0.046448 0.021900
v -0.011217 -0.045753 0.022589
v -0.004981 -0.048524 0.021202
v 0.012329 -0.048524 0.003894
f 155 183 193 
f 153 152 154 
f 153 154 156 
f 157 155 158 
f 157 158 161 
f 154 152 162 
f 165 151 169 
f 160 165 169 
f 153 156 170 
f 161 154 171 
f 157 161 171 
f 156 154 172 
f 154 161 172 
f 152 153 173 
f 167 152 173 
f 163 159 174 
f 168 163 174 
f 159 169 174 
f 168 164 175 
f 154 162 176 
f 171 154 176 
f 161 158 177 
f 158 164 177 
f 164 151 177 
f 172 161 177 
f 155 157 178 
f 158 155 179 
f 164 158 179 
f 155 175 179 
f 175 164 179 
f 156 172 180 
f 166 160 181 
f 159 173 181 
f 151 164 182 
f 164 168 182 
f 155 178 183 
f 165 160 184 
f 160 166 184 
f 170 156 184 
f 166 170 184 
f 156 180 184 
f 180 165 184 
f 169 159 185 
f 160 169 185 
f 159 181 185 
f 181 160 185 
f 153 170 186 
f 170 166 186 
f 173 153 186 
f 166 181 186 
f 181 173 186 
f 162 157 187 
f 157 171 187 
f 176 162 187 
f 171 176 187 
f 157 162 188 
f 178 157 188 
f 167 178 188 
f 162 152 189 
f 152 167 189 
f 188 162 189 
f 167 188 189 
f 159 163 190 
f 173 159 190 
f 167 173 190 
f 178 167 190 
f 163 183 190 
f 183 178 190 
f 151 165 191 
f 177 151 191 
f 172 177 191 
f 165 180 191 
f 180 172 191 
f 169 151 192 
f 168 174 192 
f 174 169 192 
f 151 182 192 
f 182 168 192 
f 163 168 193 
f 175 155 193 
f 168 175 193 
f 183 163 193 
o convex_4
v 0.001250 -0.004892 0.060684
v 0.008171 -0.005584 0.050295
v -0.002905 -0.007662 0.052375
v -0.011219 -0.004892 0.051682
v 0.021334 -0.004892 0.052375
v 0.013715 -0.007662 0.053760
v 0.009557 -0.006277 0.059297
v -0.002905 -0.006970 0.056527
v 0.015098 -0.004892 0.058605
v 0.020639 -0.005584 0.050295
v -0.007755 -0.005584 0.057219
f 201 194 204 
f 195 196 197 
f 197 194 198 
f 196 199 201 
f 199 200 201 
f 200 194 201 
f 198 194 202 
f 199 198 202 
f 200 199 202 
f 194 200 202 
f 196 195 203 
f 195 197 203 
f 197 198 203 
f 198 199 203 
f 199 196 203 
f 197 196 204 
f 194 197 204 
f 196 201 204 
o convex_5
v -0.022992 -0.023590 0.074536
v 0.013023 -0.004894 0.064841
v 0.013023 -0.005586 0.064841
v -0.027147 -0.006279 0.063456
v -0.004990 -0.022898 0.071072
v -0.027147 -0.004894 0.066226
v 0.013023 -0.005586 0.062069
v -0.035460 -0.018743 0.069687
v -0.002915 -0.019436 0.073150
v -0.034766 -0.014588 0.071072
v -0.004990 -0.006279 0.066919
v -0.030607 -0.022205 0.071072
v -0.027147 -0.004894 0.063456
v -0.002915 -0.021512 0.073150
v -0.032682 -0.019436 0.073150
v -0.035460 -0.013205 0.067611
v -0.013986 -0.018743 0.073150
v 0.006789 -0.009743 0.068303
v -0.011907 -0.024281 0.074536
v -0.023686 -0.024281 0.072457
v 0.006789 -0.005586 0.062069
v -0.009837 -0.022205 0.074536
v -0.000831 -0.020127 0.069687
f 207 218 227 
f 206 207 211 
f 206 210 215 
f 212 208 216 
f 210 206 217 
f 206 211 217 
f 214 212 219 
f 216 205 219 
f 212 216 219 
f 208 212 220 
f 214 210 220 
f 212 214 220 
f 210 217 220 
f 217 208 220 
f 210 214 221 
f 215 210 221 
f 214 219 221 
f 207 206 222 
f 206 215 222 
f 218 207 222 
f 213 218 222 
f 221 213 222 
f 215 221 222 
f 209 218 223 
f 205 216 224 
f 216 209 224 
f 223 205 224 
f 209 223 224 
f 211 209 225 
f 209 216 225 
f 216 208 225 
f 208 217 225 
f 217 211 225 
f 218 213 226 
f 219 205 226 
f 213 221 226 
f 221 219 226 
f 205 223 226 
f 223 218 226 
f 211 207 227 
f 209 211 227 
f 218 209 227 
o convex_6
v -0.015371 -0.004892 -0.036972
v 0.022027 -0.004198 0.014966
v 0.022027 -0.004892 0.014966
v -0.019524 -0.004198 0.017040
v 0.010253 -0.000044 -0.037661
v -0.010524 -0.000044 0.026746
v -0.015371 -0.000044 -0.036276
v 0.015789 -0.000044 0.026746
v 0.010942 -0.004892 -0.037661
v -0.004984 -0.004892 0.026746
v -0.020915 -0.004892 0.010812
v 0.013023 -0.004892 0.026746
v 0.011636 -0.000044 -0.036270
v -0.018835 -0.002813 0.012886
v -0.012601 -0.003507 -0.039052
v 0.022027 -0.004198 0.008732
v 0.020640 -0.002813 0.010812
v 0.008172 -0.004892 -0.039052
v -0.013988 -0.000044 -0.038356
v -0.014677 -0.004892 0.021890
v -0.012601 -0.000044 0.012886
v 0.008866 -0.000044 -0.038356
v 0.011636 -0.004892 -0.036270
v 0.015789 -0.002813 0.026746
v -0.020915 -0.004198 0.012886
f 241 234 252 
f 233 232 234 
f 230 229 235 
f 232 233 235 
f 230 228 236 
f 228 230 237 
f 235 233 237 
f 234 228 238 
f 228 237 238 
f 237 230 239 
f 235 237 239 
f 232 235 240 
f 236 232 240 
f 229 230 243 
f 243 240 244 
f 235 229 244 
f 240 235 244 
f 229 243 244 
f 236 228 245 
f 232 236 245 
f 228 242 245 
f 228 234 246 
f 234 232 246 
f 242 228 246 
f 233 231 247 
f 237 233 247 
f 231 238 247 
f 238 237 247 
f 233 234 248 
f 241 233 248 
f 234 241 248 
f 232 245 249 
f 245 242 249 
f 242 246 249 
f 246 232 249 
f 230 236 250 
f 236 240 250 
f 243 230 250 
f 240 243 250 
f 230 235 251 
f 239 230 251 
f 235 239 251 
f 231 233 252 
f 234 238 252 
f 238 231 252 
f 233 241 252 
o convex_7
v 0.010250 0.033895 0.019819
v -0.011909 0.028354 -0.009270
v 0.011634 0.028354 -0.009270
v 0.010942 0.057443 -0.007191
v -0.011217 0.057443 0.017740
v -0.009830 0.028354 0.020513
v 0.015101 0.057443 0.016353
v -0.011909 0.057443 -0.006497
v 0.015101 0.028354 0.017740
v 0.014406 0.057443 -0.004419
v -0.013297 0.028354 -0.005112
v -0.007062 0.057443 0.019125
v 0.013714 0.028354 -0.007191
v -0.011909 0.028354 0.014971
v -0.012602 0.057443 0.000429
v 0.013021 0.057443 0.017740
v -0.010525 0.057443 -0.007191
v 0.004015 0.028354 0.020513
v 0.015101 0.028354 0.011507
v -0.011909 0.056748 0.012892
v 0.012329 0.028354 0.019819
v -0.009138 0.035973 0.020513
v -0.012602 0.055365 -0.005806
v -0.011217 0.028354 0.019125
v 0.009558 0.029740 -0.009270
v 0.013714 0.057443 -0.005803
v 0.015101 0.057443 0.010814
v -0.013297 0.029048 -0.007191
f 267 275 280 
f 254 255 258 
f 256 257 259 
f 257 256 260 
f 258 255 261 
f 256 259 262 
f 254 258 263 
f 259 257 264 
f 261 255 265 
f 263 258 266 
f 257 260 267 
f 264 253 268 
f 259 264 268 
f 254 260 269 
f 260 256 269 
f 258 261 270 
f 253 264 270 
f 259 261 271 
f 261 265 271 
f 265 262 271 
f 266 257 272 
f 263 266 272 
f 267 263 272 
f 257 267 272 
f 261 259 273 
f 268 253 273 
f 259 268 273 
f 253 270 273 
f 270 261 273 
f 257 258 274 
f 264 257 274 
f 258 270 274 
f 270 264 274 
f 260 254 275 
f 267 260 275 
f 258 257 276 
f 257 266 276 
f 266 258 276 
f 255 254 277 
f 256 255 277 
f 254 269 277 
f 269 256 277 
f 255 256 278 
f 256 262 278 
f 265 255 278 
f 262 265 278 
f 262 259 279 
f 259 271 279 
f 271 262 279 
f 254 263 280 
f 263 267 280 
f 275 254 280 
o convex_8
v 0.013020 0.080989 0.023971
v -0.010524 0.057446 -0.007186
v 0.010944 0.057446 -0.007186
v -0.009830 0.085835 -0.009267
v -0.009830 0.066450 0.024666
v 0.013020 0.079603 -0.013423
v 0.015098 0.057446 0.016353
v -0.010524 0.089298 0.012197
v 0.015098 0.088607 0.005278
v -0.013297 0.071991 -0.013423
v -0.011215 0.057446 0.017739
v -0.010524 0.080294 0.023975
v 0.015792 0.071300 0.024666
v 0.013713 0.069914 -0.013423
v 0.010944 0.088607 -0.003034
v -0.010524 0.071991 -0.015503
v 0.011635 0.086530 0.018434
v -0.011909 0.088607 -0.000958
v 0.016486 0.082375 0.018434
v -0.006367 0.069222 0.026746
v 0.014404 0.057446 -0.004416
v 0.008174 0.068528 -0.014804
v -0.007752 0.084452 0.022586
v -0.004291 0.077526 0.026746
v 0.007481 0.089993 0.007346
v 0.009559 0.066450 0.024666
v -0.011215 0.080989 -0.013423
v 0.015098 0.085835 -0.003034
v -0.012603 0.057446 0.000427
v -0.004982 0.057446 0.019120
v 0.010250 0.083758 -0.011343
v -0.009136 0.089993 0.001126
v 0.007481 0.076140 -0.015499
v 0.013020 0.074757 0.026051
v -0.012603 0.085835 -0.003725
v -0.010524 0.065065 -0.012732
v -0.011215 0.065759 0.021200
v 0.015792 0.060910 0.014968
v 0.014404 0.071991 -0.012033
v -0.002216 0.088607 0.015659
v -0.013297 0.064373 -0.008576
v 0.014404 0.088607 0.011506
v 0.013020 0.057446 0.017739
v -0.009136 0.076140 0.026746
v -0.011215 0.085835 0.015659
v -0.003597 0.087912 -0.005805
v 0.016486 0.076834 0.023276
v 0.011635 0.085835 -0.008572
v 0.007481 0.080294 -0.014114
v -0.009136 0.076140 -0.015503
v -0.008446 0.089993 0.010816
v 0.012329 0.068528 0.025357
v 0.009559 0.089993 0.003893
v 0.015098 0.085144 0.019124
v -0.012603 0.084452 -0.008576
v -0.007752 0.080989 0.025361
v 0.010250 0.073377 -0.015499
v -0.009136 0.087221 0.018429
v 0.008174 0.089298 0.012197
v -0.008446 0.066450 0.025361
v 0.013020 0.067836 -0.013423
v 0.012329 0.083066 0.022586
v -0.010524 0.069914 0.025361
v -0.011909 0.057446 -0.006496
f 321 290 344 
f 282 283 287 
f 282 287 291 
f 287 283 301 
f 296 290 307 
f 295 289 308 
f 289 299 308 
f 282 291 309 
f 291 287 310 
f 307 284 311 
f 284 298 312 
f 298 288 312 
f 281 304 314 
f 304 300 314 
f 283 282 316 
f 290 296 316 
f 302 283 316 
f 296 302 316 
f 309 291 317 
f 293 287 318 
f 287 301 318 
f 318 301 319 
f 294 286 319 
f 301 294 319 
f 286 308 319 
f 308 299 319 
f 299 318 319 
f 315 290 321 
f 309 317 321 
f 317 315 321 
f 299 289 322 
f 310 287 323 
f 306 310 323 
f 300 304 324 
f 288 298 325 
f 298 315 325 
f 317 292 325 
f 315 317 325 
f 284 312 326 
f 312 295 326 
f 281 314 327 
f 314 293 327 
f 293 318 327 
f 318 299 327 
f 308 286 328 
f 295 308 328 
f 311 284 328 
f 286 311 328 
f 284 326 328 
f 326 295 328 
f 307 311 329 
f 311 286 329 
f 286 313 329 
f 329 313 330 
f 296 307 330 
f 307 329 330 
f 312 288 331 
f 305 312 331 
f 287 293 332 
f 300 306 332 
f 293 314 332 
f 314 300 332 
f 323 287 332 
f 306 323 332 
f 289 295 333 
f 295 312 333 
f 312 305 333 
f 322 289 333 
f 305 322 333 
f 299 322 334 
f 322 297 334 
f 281 327 334 
f 327 299 334 
f 298 284 335 
f 284 307 335 
f 307 290 335 
f 315 298 335 
f 290 315 335 
f 303 292 336 
f 304 281 336 
f 292 324 336 
f 324 304 336 
f 286 294 337 
f 302 296 337 
f 313 286 337 
f 330 313 337 
f 296 330 337 
f 292 303 338 
f 303 297 338 
f 297 320 338 
f 288 325 338 
f 325 292 338 
f 331 288 338 
f 320 331 338 
f 320 297 339 
f 297 322 339 
f 322 305 339 
f 305 331 339 
f 331 320 339 
f 285 291 340 
f 306 300 340 
f 291 310 340 
f 310 306 340 
f 301 283 341 
f 294 301 341 
f 283 302 341 
f 337 294 341 
f 302 337 341 
f 297 303 342 
f 281 334 342 
f 334 297 342 
f 336 281 342 
f 303 336 342 
f 291 285 343 
f 317 291 343 
f 292 317 343 
f 324 292 343 
f 300 324 343 
f 285 340 343 
f 340 300 343 
f 282 309 344 
f 316 282 344 
f 290 316 344 
f 309 321 344 
o convex_9
v -0.010526 0.006191 0.035057
v 0.005399 0.018657 0.027439
v 0.011637 0.017961 0.028132
v 0.015100 -0.004892 0.026746
v 0.016486 -0.004892 0.038521
v -0.009141 -0.004196 0.026746
v -0.009831 -0.004892 0.038521
v 0.000561 0.008266 0.038521
v -0.009141 0.018657 0.026746
v 0.015790 0.008266 0.035750
v 0.015790 0.015886 0.026746
v -0.007752 0.008266 0.038521
v 0.012329 0.006883 0.038521
v -0.010526 -0.004892 0.029518
v -0.007060 0.015886 0.031595
v -0.010526 0.017272 0.027439
v 0.013712 0.012422 0.033672
v 0.015790 -0.003506 0.026746
v 0.016486 0.008957 0.032289
v -0.009831 0.005500 0.038521
v 0.016486 0.002731 0.038521
v -0.010526 -0.002813 0.026746
v 0.008866 0.013805 0.032978
f 352 361 367 
f 348 349 351 
f 351 349 352 
f 348 350 353 
f 346 347 355 
f 353 346 355 
f 348 353 355 
f 351 352 356 
f 352 349 357 
f 350 348 358 
f 351 345 358 
f 348 351 358 
f 347 346 359 
f 346 353 359 
f 356 352 359 
f 356 359 360 
f 358 345 360 
f 359 353 360 
f 355 347 361 
f 354 355 361 
f 352 357 361 
f 357 354 361 
f 349 348 362 
f 348 355 362 
f 362 355 363 
f 355 354 363 
f 349 362 363 
f 345 351 364 
f 351 356 364 
f 356 360 364 
f 360 345 364 
f 357 349 365 
f 354 357 365 
f 349 363 365 
f 363 354 365 
f 353 350 366 
f 350 358 366 
f 360 353 366 
f 358 360 366 
f 347 359 367 
f 359 352 367 
f 361 347 367 
o convex_10
v 0.013021 -0.046447 -0.002344
v -0.012603 -0.036753 -0.027278
v -0.012603 -0.037446 -0.026584
v -0.012603 -0.036059 -0.002344
v 0.012330 -0.036059 -0.023121
v -0.011218 -0.047833 -0.002344
v 0.013021 -0.036059 -0.002344
v 0.007481 -0.043677 -0.016888
v -0.012603 -0.044370 -0.014122
v 0.009558 -0.036753 -0.027278
v -0.013989 -0.036059 -0.025889
v 0.008864 -0.047833 -0.004423
v -0.013295 -0.045062 -0.004423
v -0.009832 -0.045062 -0.014122
v 0.013021 -0.042984 -0.013427
v -0.011218 -0.041601 -0.021042
v 0.013715 -0.036753 -0.003730
v 0.007481 -0.040216 -0.023121
v -0.010526 -0.047833 -0.005116
v 0.011635 -0.044370 -0.013427
v 0.006095 -0.046447 -0.009963
v -0.013989 -0.036059 -0.017578
v 0.009558 -0.036059 -0.027278
v -0.013989 -0.040216 -0.019658
f 380 389 391 
f 368 371 373 
f 371 368 374 
f 372 371 374 
f 370 369 377 
f 369 370 378 
f 371 372 378 
f 368 373 379 
f 373 371 380 
f 376 373 380 
f 377 372 382 
f 376 370 383 
f 375 381 383 
f 381 376 383 
f 374 368 384 
f 372 374 384 
f 368 382 384 
f 382 372 384 
f 370 377 385 
f 383 370 385 
f 375 383 385 
f 373 376 386 
f 379 373 386 
f 376 381 386 
f 368 379 387 
f 382 368 387 
f 377 382 387 
f 385 377 387 
f 375 385 387 
f 381 375 388 
f 379 386 388 
f 386 381 388 
f 387 379 388 
f 375 387 388 
f 371 378 389 
f 380 371 389 
f 377 369 390 
f 372 377 390 
f 369 378 390 
f 378 372 390 
f 370 376 391 
f 378 370 391 
f 376 380 391 
f 389 378 391 
o convex_11
v 0.005399 -0.016671 0.046832
v -0.010526 -0.031904 0.026054
v 0.015100 -0.031904 0.026054
v 0.009558 -0.004892 0.026054
v -0.009831 -0.004892 0.043368
v -0.008448 -0.031904 0.043368
v 0.016486 -0.004892 0.041983
v 0.015790 -0.031904 0.041290
v -0.008448 -0.004892 0.027443
v 0.015790 -0.004892 0.028132
v -0.007060 -0.010434 0.046832
v 0.013712 -0.023591 0.045443
v 0.012329 -0.005585 0.044753
v -0.007752 -0.021510 0.046832
v -0.010526 -0.004892 0.029517
v 0.016486 -0.031904 0.035753
v -0.009141 -0.009048 0.026054
v -0.009831 -0.028437 0.042675
v 0.015100 -0.012512 0.045443
v -0.004291 -0.029825 0.044753
v 0.016486 -0.022203 0.044058
v 0.015790 -0.022203 0.026054
v -0.007060 -0.004892 0.045443
v 0.013019 -0.031904 0.042675
v 0.016486 -0.004892 0.034366
v -0.010526 -0.031904 0.030904
v 0.013019 -0.012512 0.046138
v -0.009141 -0.013205 0.046138
v -0.004291 -0.022898 0.046832
v 0.014408 -0.004892 0.026747
v 0.009558 -0.027745 0.044753
v -0.010526 -0.004892 0.032981
f 417 409 423 
f 394 393 395 
f 393 394 397 
f 395 396 398 
f 397 394 399 
f 396 395 400 
f 395 398 401 
f 392 402 405 
f 396 400 406 
f 399 394 407 
f 395 393 408 
f 400 395 408 
f 393 406 408 
f 406 400 408 
f 397 405 409 
f 398 404 410 
f 405 397 411 
f 403 399 412 
f 399 407 412 
f 407 398 412 
f 398 410 412 
f 410 403 412 
f 394 395 413 
f 407 394 413 
f 398 396 414 
f 404 398 414 
f 402 404 414 
f 397 399 415 
f 399 403 415 
f 411 397 415 
f 401 398 416 
f 398 407 416 
f 413 401 416 
f 407 413 416 
f 393 397 417 
f 406 393 417 
f 397 409 417 
f 402 392 418 
f 392 403 418 
f 404 402 418 
f 403 410 418 
f 410 404 418 
f 405 402 419 
f 396 409 419 
f 409 405 419 
f 414 396 419 
f 402 414 419 
f 403 392 420 
f 392 405 420 
f 405 411 420 
f 395 401 421 
f 413 395 421 
f 401 413 421 
f 415 403 422 
f 411 415 422 
f 403 420 422 
f 420 411 422 
f 396 406 423 
f 409 396 423 
f 406 417 423 
o convex_12
v 0.011636 0.019348 -0.021741
v -0.004291 0.011035 -0.045285
v -0.004291 0.011729 -0.045285
v -0.013989 0.019348 -0.021741
v 0.012330 -0.000044 -0.021741
v -0.015374 -0.000044 -0.034893
v 0.010250 0.008269 -0.043898
v -0.013989 -0.000044 -0.021741
v -0.013294 0.017963 -0.040434
v 0.010944 0.016576 -0.040434
v 0.009559 -0.000044 -0.038357
v -0.014680 0.007575 -0.043898
v -0.006368 0.019348 -0.036278
v -0.015374 0.013805 -0.043204
v -0.011214 0.020735 -0.022433
v -0.006368 -0.000044 -0.039049
v 0.008170 0.018654 -0.037663
v 0.007481 0.015192 -0.043898
v 0.011636 0.007575 -0.041127
v 0.005401 0.006190 -0.043898
v 0.012330 0.016576 -0.029359
v -0.015374 0.017271 -0.036972
v -0.013294 0.013805 -0.044589
v 0.010250 0.020039 -0.022433
v 0.011636 -0.000044 -0.036278
v -0.014680 0.016576 -0.024509
v -0.013989 -0.000044 -0.038357
v -0.012603 0.007575 -0.044589
v 0.006096 0.010346 -0.045285
v 0.007481 0.017963 -0.040434
v -0.013989 0.018654 -0.038357
v 0.012330 0.018654 -0.021741
v -0.012603 0.017271 -0.041819
f 453 441 456 
f 424 427 428 
f 428 427 431 
f 429 428 431 
f 428 429 434 
f 435 429 437 
f 427 424 438 
f 434 429 439 
f 433 430 441 
f 430 433 442 
f 430 434 443 
f 434 439 443 
f 428 442 444 
f 442 433 444 
f 437 429 445 
f 426 425 446 
f 435 437 446 
f 441 426 446 
f 424 433 447 
f 438 424 447 
f 436 438 447 
f 433 440 447 
f 440 436 447 
f 428 434 448 
f 434 430 448 
f 442 428 448 
f 430 442 448 
f 431 427 449 
f 429 431 449 
f 427 445 449 
f 445 429 449 
f 429 435 450 
f 439 429 450 
f 439 450 451 
f 443 439 451 
f 446 425 451 
f 435 446 451 
f 450 435 451 
f 425 426 452 
f 426 441 452 
f 441 430 452 
f 430 443 452 
f 451 425 452 
f 443 451 452 
f 432 436 453 
f 440 433 453 
f 436 440 453 
f 433 441 453 
f 436 432 454 
f 432 437 454 
f 427 438 454 
f 438 436 454 
f 445 427 454 
f 437 445 454 
f 424 428 455 
f 433 424 455 
f 428 444 455 
f 444 433 455 
f 437 432 456 
f 446 437 456 
f 441 446 456 
f 432 453 456 
o convex_13
v -0.011214 0.022811 -0.018965
v 0.019256 0.017271 0.013586
v 0.015789 0.015884 0.026746
v -0.013986 -0.000044 -0.021737
v -0.011214 0.028354 0.019124
v -0.010523 -0.000044 0.026746
v 0.012326 -0.000044 -0.021737
v 0.013022 0.028354 -0.008577
v 0.015789 -0.000044 0.026746
v -0.018145 0.013121 -0.005800
v 0.015097 0.028354 0.017739
v 0.012326 0.019347 -0.021737
v 0.017869 0.006191 -0.016194
v -0.013294 0.028354 -0.007186
v -0.010523 0.017960 0.026746
v -0.016757 0.017960 0.012200
v -0.013986 0.019347 -0.021737
v -0.018145 0.005499 -0.012032
v 0.004711 0.028354 0.020510
v 0.019256 0.018655 0.006657
v -0.018145 0.008963 -0.016886
v 0.017177 0.010350 -0.017579
v 0.019256 0.011731 0.002505
v 0.013022 0.018655 0.026746
v 0.008866 0.020732 -0.021737
v -0.011214 0.028354 -0.009953
v -0.009139 0.019347 0.026746
v 0.013713 0.028354 -0.007186
v 0.010250 0.028354 -0.009953
v 0.017177 0.004115 -0.015501
v -0.016757 0.015884 0.012200
v -0.016757 0.019347 0.010815
v -0.009831 0.028354 0.020510
v 0.019256 0.016576 0.001817
v -0.017449 0.004115 -0.012032
v 0.012326 0.028354 0.019817
v 0.013713 0.006191 -0.021737
v -0.016065 0.018655 0.014279
v -0.012602 0.020732 -0.021737
v 0.017869 0.005499 -0.011339
v -0.018145 0.010350 -0.015501
v -0.011910 0.028354 0.014967
v 0.019256 0.019347 0.008736
v -0.011214 0.013121 0.026053
f 471 494 500 
f 462 460 463 
f 458 459 465 
f 459 462 465 
f 462 463 465 
f 459 458 467 
f 464 461 467 
f 463 460 468 
f 461 464 470 
f 462 459 471 
f 468 460 473 
f 467 461 475 
f 473 460 477 
f 460 474 477 
f 474 466 477 
f 458 465 479 
f 476 458 479 
f 459 467 480 
f 471 459 480 
f 464 468 481 
f 468 473 481 
f 470 464 482 
f 471 480 483 
f 480 475 483 
f 464 467 484 
f 468 464 484 
f 478 468 484 
f 481 457 485 
f 464 481 485 
f 482 464 485 
f 457 482 485 
f 465 463 486 
f 463 469 486 
f 472 466 487 
f 474 462 487 
f 466 474 487 
f 470 466 488 
f 466 472 488 
f 461 471 489 
f 475 461 489 
f 471 483 489 
f 483 475 489 
f 469 478 490 
f 479 469 490 
f 476 479 490 
f 484 476 490 
f 478 484 490 
f 460 462 491 
f 474 460 491 
f 462 474 491 
f 467 475 492 
f 480 467 492 
f 475 480 492 
f 463 468 493 
f 469 463 493 
f 468 478 493 
f 478 469 493 
f 471 461 494 
f 487 462 494 
f 472 487 494 
f 461 488 494 
f 488 472 494 
f 473 470 495 
f 457 481 495 
f 481 473 495 
f 470 482 495 
f 482 457 495 
f 479 465 496 
f 469 479 496 
f 465 486 496 
f 486 469 496 
f 466 470 497 
f 470 473 497 
f 477 466 497 
f 473 477 497 
f 461 470 498 
f 488 461 498 
f 470 488 498 
f 467 458 499 
f 458 476 499 
f 484 467 499 
f 476 484 499 
f 462 471 500 
f 494 462 500 
o convex_14
v -0.009141 -0.004892 0.056528
v 0.007476 0.015887 0.057222
v 0.012325 0.015193 0.058608
v -0.027149 -0.004198 0.065532
v 0.013015 -0.004892 0.064839
v 0.001932 0.009653 0.067610
v 0.025490 -0.000043 0.056528
v -0.007755 0.013114 0.056528
v 0.015788 0.009653 0.065532
v -0.004982 0.013114 0.062761
v -0.017452 0.004112 0.056528
v 0.019250 -0.004892 0.056528
v 0.009553 0.004806 0.067610
v 0.017864 0.013114 0.056528
v -0.027149 -0.004892 0.063452
v 0.007476 0.014499 0.063452
v 0.019940 0.011038 0.060684
v -0.002906 0.011729 0.065532
v 0.016478 0.006189 0.065532
v 0.002628 -0.004892 0.065532
v -0.016756 -0.000043 0.056528
v -0.000144 0.015193 0.060684
v 0.025490 0.002727 0.057222
v 0.013015 0.012423 0.064839
v 0.024789 -0.001428 0.057222
v -0.019528 0.003423 0.060684
v 0.001932 0.004112 0.067610
v 0.009553 0.008957 0.067610
v -0.009141 0.011729 0.059993
v -0.001520 0.015193 0.056528
v -0.027149 -0.004892 0.065532
v 0.019940 0.008268 0.062761
f 519 523 532 
f 507 501 508 
f 508 501 511 
f 505 501 512 
f 501 507 512 
f 502 503 514 
f 507 508 514 
f 501 505 515 
f 503 502 516 
f 514 503 517 
f 504 506 518 
f 510 504 518 
f 506 516 518 
f 513 505 519 
f 505 513 520 
f 515 505 520 
f 511 501 521 
f 501 515 521 
f 515 511 521 
f 508 510 522 
f 516 502 522 
f 510 518 522 
f 518 516 522 
f 507 514 523 
f 514 517 523 
f 503 516 524 
f 516 506 524 
f 509 517 524 
f 517 503 524 
f 505 512 525 
f 512 507 525 
f 519 505 525 
f 507 523 525 
f 523 519 525 
f 508 511 526 
f 515 504 526 
f 511 515 526 
f 506 504 527 
f 513 506 527 
f 520 513 527 
f 506 513 528 
f 513 519 528 
f 519 509 528 
f 524 506 528 
f 509 524 528 
f 504 510 529 
f 510 508 529 
f 526 504 529 
f 508 526 529 
f 502 514 530 
f 514 508 530 
f 522 502 530 
f 508 522 530 
f 504 515 531 
f 515 520 531 
f 527 504 531 
f 520 527 531 
f 517 509 532 
f 509 519 532 
f 523 517 532 
o convex_15
v 0.012328 -0.009050 -0.002344
v -0.013295 -0.013898 -0.039745
v -0.013295 -0.007665 -0.039745
v -0.028530 -0.013898 -0.002344
v 0.012328 -0.036059 -0.023812
v -0.029224 -0.034668 -0.030738
v -0.011910 -0.036059 -0.002344
v 0.010943 -0.004892 -0.037661
v -0.013986 -0.004892 -0.008578
v 0.013023 -0.036059 -0.002344
v 0.008863 -0.029823 -0.035582
v -0.029224 -0.015979 -0.029355
v -0.029224 -0.036059 -0.019664
v -0.015375 -0.004892 -0.036973
v -0.029224 -0.028438 -0.036278
v 0.013023 -0.005587 -0.008582
v -0.003602 -0.004892 -0.002344
v -0.026454 -0.024283 -0.002344
v 0.006092 -0.015979 -0.039745
v 0.013023 -0.028438 -0.029351
v -0.023683 -0.008358 -0.006502
v 0.006092 -0.036059 -0.028663
v -0.029224 -0.033979 -0.014121
v -0.029224 -0.020131 -0.034890
v 0.012328 -0.004892 -0.025888
v 0.010943 -0.018053 -0.037661
v 0.008863 -0.004892 -0.039049
v -0.029224 -0.018749 -0.003731
v 0.006787 -0.030516 -0.035582
v -0.029224 -0.036059 -0.026580
v -0.023683 -0.034668 -0.031430
v 0.010943 -0.031208 -0.033510
v -0.005678 -0.019441 -0.039049
v -0.029224 -0.015283 -0.026580
v 0.011637 -0.005587 -0.036973
v 0.007477 -0.005587 -0.002344
v 0.012328 -0.004892 -0.009274
v -0.029224 -0.031208 -0.034890
v 0.008863 -0.033283 -0.032818
v -0.013295 -0.004892 -0.039049
v 0.006787 -0.029131 -0.036278
v -0.029224 -0.022898 -0.036278
v 0.007477 -0.006972 -0.039745
v 0.013023 -0.009050 -0.018968
v -0.018832 -0.006280 -0.007886
v 0.013023 -0.011128 -0.002344
v -0.027144 -0.011820 -0.003731
v 0.009557 -0.015979 -0.039049
v -0.028530 -0.020820 -0.002344
f 560 555 581 
f 533 536 539 
f 533 539 542 
f 539 537 542 
f 537 539 545 
f 544 538 545 
f 541 540 546 
f 535 534 547 
f 538 544 547 
f 536 533 549 
f 540 541 549 
f 539 536 550 
f 534 535 551 
f 542 537 552 
f 548 542 552 
f 537 545 554 
f 545 539 555 
f 544 545 555 
f 539 550 555 
f 544 546 556 
f 547 544 556 
f 540 549 557 
f 546 540 559 
f 544 555 560 
f 545 538 562 
f 554 545 562 
f 554 562 563 
f 562 538 563 
f 552 537 564 
f 543 558 564 
f 558 552 564 
f 547 534 565 
f 534 551 565 
f 546 544 566 
f 553 546 566 
f 560 536 566 
f 544 560 566 
f 540 557 567 
f 552 558 567 
f 533 548 568 
f 549 533 568 
f 549 568 569 
f 557 549 569 
f 548 557 569 
f 568 548 569 
f 538 547 570 
f 563 538 570 
f 563 570 571 
f 537 554 571 
f 561 543 571 
f 554 563 571 
f 564 537 571 
f 543 564 571 
f 570 561 571 
f 556 546 572 
f 546 559 572 
f 543 561 573 
f 547 565 573 
f 565 551 573 
f 570 547 573 
f 561 570 573 
f 535 547 574 
f 547 556 574 
f 572 535 574 
f 556 572 574 
f 551 535 575 
f 535 572 575 
f 572 559 575 
f 548 552 576 
f 557 548 576 
f 567 557 576 
f 552 567 576 
f 541 546 577 
f 549 541 577 
f 546 553 577 
f 553 549 577 
f 533 542 578 
f 548 533 578 
f 542 548 578 
f 536 549 579 
f 549 553 579 
f 566 536 579 
f 553 566 579 
f 558 543 580 
f 559 540 580 
f 540 567 580 
f 567 558 580 
f 543 573 580 
f 573 551 580 
f 551 575 580 
f 575 559 580 
f 550 536 581 
f 555 550 581 
f 536 560 581 
o convex_16
v -0.004284 -0.031211 0.001813
v 0.021333 -0.004892 0.006660
v 0.022718 -0.006280 0.006660
v 0.028260 -0.017361 -0.002344
v -0.027839 -0.014593 -0.002344
v -0.022986 -0.012512 0.006660
v -0.007748 -0.004892 -0.002344
v 0.009553 -0.028437 0.005968
v 0.010242 -0.031904 -0.002344
v -0.019522 -0.004892 0.006660
v -0.022296 -0.027745 -0.002344
v -0.013985 -0.027745 0.005968
v 0.010937 -0.004892 -0.001651
v 0.024797 -0.022898 0.001813
v -0.025760 -0.022203 0.002504
v 0.023407 -0.015283 0.006660
v 0.001242 -0.029130 0.006660
v -0.011217 -0.031904 -0.002344
v 0.022023 -0.027054 -0.001651
v 0.017175 -0.027054 0.004582
v 0.017864 -0.004892 0.001813
v -0.016059 -0.004892 0.001813
v -0.028534 -0.018741 -0.000265
v -0.019522 -0.026359 0.004582
v 0.010242 -0.005585 -0.002344
v -0.022986 -0.009741 0.006660
v 0.006784 -0.029825 0.005275
v -0.027144 -0.022898 -0.002344
v -0.014680 -0.031211 -0.001651
v -0.004284 -0.029130 0.006660
v 0.028260 -0.019434 -0.001651
v 0.024102 -0.008358 0.006660
f 597 612 613 
f 583 584 585 
f 584 583 587 
f 585 586 588 
f 586 585 590 
f 587 583 591 
f 583 588 591 
f 586 590 592 
f 588 583 594 
f 584 587 597 
f 597 587 598 
f 589 597 598 
f 590 582 599 
f 592 590 599 
f 590 585 600 
f 600 595 601 
f 597 589 601 
f 595 597 601 
f 590 600 601 
f 583 585 602 
f 594 583 602 
f 585 594 602 
f 588 586 603 
f 586 591 603 
f 591 588 603 
f 596 587 604 
f 593 587 605 
f 587 596 605 
f 596 592 605 
f 585 588 606 
f 594 585 606 
f 588 594 606 
f 587 591 607 
f 591 586 607 
f 586 604 607 
f 604 587 607 
f 582 590 608 
f 589 598 608 
f 601 589 608 
f 590 601 608 
f 586 592 609 
f 592 596 609 
f 604 586 609 
f 596 604 609 
f 599 582 610 
f 592 599 610 
f 593 605 610 
f 605 592 610 
f 587 593 611 
f 598 587 611 
f 582 608 611 
f 608 598 611 
f 610 582 611 
f 593 610 611 
f 597 595 612 
f 600 585 612 
f 595 600 612 
f 585 584 613 
f 584 597 613 
f 612 585 613 
o convex_17
v -0.018141 -0.000733 0.053064
v 0.037264 0.018657 0.048911
v 0.037264 0.018657 0.046140
v 0.022718 -0.004892 0.052372
v 0.004717 0.015886 0.056527
v -0.019525 0.006191 0.046140
v 0.025487 -0.001425 0.056527
v 0.027563 -0.000040 0.046140
v -0.002902 0.018657 0.047526
v -0.018141 0.004808 0.056527
v -0.011906 -0.004892 0.050988
v -0.009829 -0.004892 0.056527
v 0.024794 0.007574 0.056527
v 0.002635 -0.001425 0.046140
v -0.017448 0.010345 0.052372
v 0.022718 -0.004892 0.049603
v -0.006369 0.013805 0.056527
v -0.009829 0.014499 0.046140
v -0.003594 0.018657 0.050296
v 0.016483 0.013805 0.056527
v 0.019246 -0.004892 0.056527
v -0.019525 0.002731 0.046834
v 0.028255 -0.000040 0.051680
v 0.036566 0.018657 0.049603
v -0.014680 0.012422 0.047526
v -0.017448 -0.001425 0.048911
v -0.019525 0.004808 0.054449
v -0.016064 -0.001425 0.056527
v 0.027563 0.002035 0.055834
v 0.027563 -0.001425 0.047526
v -0.015372 -0.003506 0.053064
v -0.000826 0.016578 0.046140
f 631 622 645 
f 619 616 621 
f 615 616 622 
f 620 618 623 
f 620 623 625 
f 624 617 625 
f 618 620 626 
f 619 621 627 
f 617 624 629 
f 627 621 629 
f 624 627 629 
f 623 618 630 
f 628 623 630 
f 616 619 631 
f 615 622 632 
f 630 618 632 
f 628 630 632 
f 618 626 633 
f 617 620 634 
f 625 617 634 
f 620 625 634 
f 619 627 635 
f 616 615 636 
f 620 617 636 
f 615 632 637 
f 632 618 637 
f 618 633 637 
f 633 626 637 
f 619 628 638 
f 631 619 638 
f 622 631 638 
f 628 632 638 
f 632 622 638 
f 627 624 639 
f 614 635 639 
f 635 627 639 
f 628 619 640 
f 623 628 640 
f 619 635 640 
f 635 614 640 
f 625 623 641 
f 640 614 641 
f 623 640 641 
f 626 620 642 
f 636 615 642 
f 620 636 642 
f 615 637 642 
f 637 626 642 
f 621 616 643 
f 617 629 643 
f 629 621 643 
f 616 636 643 
f 636 617 643 
f 624 625 644 
f 614 639 644 
f 639 624 644 
f 641 614 644 
f 625 641 644 
f 622 616 645 
f 616 631 645 
o convex_18
v 0.024796 -0.024286 -0.018966
v 0.013716 -0.026362 -0.030048
v 0.013023 -0.027747 -0.029355
v 0.026182 -0.029132 -0.027969
v 0.026182 -0.022208 -0.028662
v 0.013716 -0.021514 -0.023123
v 0.013023 -0.029132 -0.020353
v 0.026182 -0.029132 -0.021046
v 0.013023 -0.022901 -0.028662
v 0.013023 -0.029825 -0.027278
v 0.021334 -0.022208 -0.019659
v 0.026182 -0.027054 -0.030048
v 0.026182 -0.021514 -0.025198
v 0.015794 -0.024978 -0.018966
v 0.026182 -0.029825 -0.023123
v 0.014409 -0.021514 -0.027278
v 0.024103 -0.027054 -0.018966
v 0.018564 -0.023593 -0.030048
f 654 661 663 
f 649 650 653 
f 647 648 654 
f 648 652 654 
f 652 651 654 
f 652 648 655 
f 648 647 657 
f 650 649 657 
f 655 648 657 
f 649 655 657 
f 646 653 658 
f 653 650 658 
f 656 646 658 
f 651 656 658 
f 651 652 659 
f 646 656 659 
f 656 651 659 
f 653 652 660 
f 649 653 660 
f 655 649 660 
f 652 655 660 
f 654 651 661 
f 658 650 661 
f 651 658 661 
f 653 646 662 
f 652 653 662 
f 659 652 662 
f 646 659 662 
f 647 654 663 
f 657 647 663 
f 650 657 663 
f 661 650 663 
o convex_19
v 0.017871 -0.011820 -0.018273
v 0.013716 -0.014591 -0.002344
v 0.013023 -0.014591 -0.002344
v 0.013023 -0.031211 -0.005808
v 0.026182 -0.022896 -0.002344
v 0.022717 -0.008359 -0.007192
v 0.026182 -0.023589 -0.010655
v 0.013023 -0.008359 -0.018273
v 0.026182 -0.014591 -0.014116
v 0.013023 -0.005587 -0.008579
v 0.013023 -0.018053 -0.016888
v 0.013716 -0.031211 -0.002344
v 0.026182 -0.015284 -0.002344
v 0.020641 -0.029129 -0.005115
v 0.013716 -0.029129 -0.009270
v 0.022717 -0.013207 -0.016888
v 0.017181 -0.006282 -0.010655
v 0.026182 -0.011128 -0.005808
v 0.020641 -0.010435 -0.016194
v 0.024796 -0.026360 -0.008579
f 667 678 683 
f 665 666 668 
f 667 666 671 
f 668 670 672 
f 666 665 673 
f 671 666 673 
f 667 671 674 
f 671 664 674 
f 666 667 675 
f 668 666 675 
f 665 668 676 
f 668 672 676 
f 673 665 676 
f 669 673 676 
f 675 667 677 
f 668 675 677 
f 674 670 678 
f 667 674 678 
f 672 670 679 
f 674 664 679 
f 670 674 679 
f 673 669 680 
f 671 673 680 
f 672 669 681 
f 669 676 681 
f 676 672 681 
f 664 671 682 
f 669 672 682 
f 679 664 682 
f 672 679 682 
f 680 669 682 
f 671 680 682 
f 670 668 683 
f 668 677 683 
f 677 667 683 
f 678 670 683 
o convex_20
v -0.011219 -0.027056 0.022587
v -0.001520 -0.031904 0.006660
v -0.001520 -0.031211 0.006660
v 0.015101 -0.031904 0.026054
v 0.015101 -0.023592 0.022587
v -0.010523 -0.031904 0.026054
v 0.014408 -0.031904 0.008741
v -0.010523 -0.023592 0.026054
v -0.009833 -0.027056 0.010127
v 0.012327 -0.026364 0.010820
v -0.011911 -0.031904 0.010127
v 0.015101 -0.023592 0.026054
v -0.008448 -0.023592 0.021205
v 0.010944 -0.028440 0.008046
v -0.011219 -0.027056 0.011509
v -0.007755 -0.026364 0.010820
v -0.007755 -0.027748 0.008741
v -0.010523 -0.031211 0.008046
v 0.014408 -0.027748 0.010820
v 0.009559 -0.031904 0.006660
f 697 690 703 
f 685 687 689 
f 687 685 690 
f 688 687 690 
f 684 689 691 
f 689 687 691 
f 685 689 694 
f 689 684 694 
f 687 688 695 
f 691 687 695 
f 688 691 695 
f 691 688 696 
f 688 693 696 
f 684 691 698 
f 694 684 698 
f 691 696 698 
f 696 692 698 
f 692 696 699 
f 696 693 699 
f 697 686 700 
f 693 697 700 
f 692 699 700 
f 699 693 700 
f 686 685 701 
f 685 694 701 
f 694 698 701 
f 698 692 701 
f 700 686 701 
f 692 700 701 
f 688 690 702 
f 693 688 702 
f 690 697 702 
f 697 693 702 
f 685 686 703 
f 690 685 703 
f 686 697 703 
o convex_21
v 0.015092 -0.004892 0.023280
v -0.022993 -0.013206 0.006660
v -0.022993 -0.014586 0.008046
v 0.019256 -0.019433 0.006660
v -0.010525 -0.023592 0.026054
v 0.022024 -0.004892 0.006660
v -0.018834 -0.004892 0.019125
v 0.015092 -0.023592 0.026054
v -0.006366 -0.022899 0.006660
v -0.004980 -0.004892 0.026054
v -0.020220 -0.004892 0.006660
v 0.025490 -0.012512 0.014975
v -0.023686 -0.011127 0.015668
v -0.016061 -0.009049 0.023973
v 0.006096 -0.023592 0.010820
v 0.023410 -0.009049 0.019125
v 0.013023 -0.008355 0.026054
v -0.018140 -0.019433 0.008046
v 0.024797 -0.015278 0.010127
v -0.020913 -0.017358 0.014975
v 0.012329 -0.022207 0.006660
v 0.024099 -0.005586 0.012202
v 0.024797 -0.009741 0.006660
v -0.022295 -0.012512 0.018432
v -0.022993 -0.006971 0.009434
v 0.019256 -0.010435 0.023280
v -0.011219 -0.008355 0.026054
v -0.011902 -0.022207 0.008741
v 0.022024 -0.004892 0.017046
v 0.009552 -0.004892 0.026054
v -0.021606 -0.007663 0.018432
v 0.023410 -0.013206 0.019125
v -0.014675 -0.005586 0.023280
v 0.022717 -0.017358 0.008046
v 0.025490 -0.008355 0.014282
v 0.024099 -0.015278 0.016357
v -0.018140 -0.012512 0.022587
v -0.021606 -0.004892 0.012896
v -0.017452 -0.019433 0.006660
f 731 721 742 
f 707 705 709 
f 704 709 710 
f 705 707 712 
f 704 710 713 
f 708 711 713 
f 709 705 714 
f 710 709 714 
f 705 706 716 
f 711 708 718 
f 708 712 718 
f 713 711 720 
f 716 706 723 
f 706 721 723 
f 721 708 723 
f 707 711 724 
f 712 707 724 
f 711 718 724 
f 718 712 724 
f 707 709 726 
f 715 722 726 
f 709 725 726 
f 716 723 727 
f 723 708 727 
f 714 705 728 
f 705 716 728 
f 719 704 729 
f 704 720 729 
f 720 711 729 
f 708 713 730 
f 717 708 730 
f 712 708 731 
f 708 721 731 
f 709 704 732 
f 704 719 732 
f 725 709 732 
f 704 713 733 
f 720 704 733 
f 713 720 733 
f 716 727 734 
f 715 719 735 
f 719 729 735 
f 729 711 735 
f 713 710 736 
f 730 713 736 
f 717 730 736 
f 710 734 736 
f 734 717 736 
f 711 707 737 
f 722 711 737 
f 707 726 737 
f 726 722 737 
f 719 715 738 
f 715 726 738 
f 726 725 738 
f 732 719 738 
f 725 732 738 
f 711 722 739 
f 722 715 739 
f 735 711 739 
f 715 735 739 
f 708 717 740 
f 727 708 740 
f 717 734 740 
f 734 727 740 
f 710 714 741 
f 714 728 741 
f 728 716 741 
f 734 710 741 
f 716 734 741 
f 706 705 742 
f 705 712 742 
f 721 706 742 
f 712 731 742 
o convex_22
v 0.013712 -0.004892 0.044060
v 0.006784 0.016579 0.046139
v 0.013020 0.015884 0.046139
v 0.010250 0.013803 0.039213
v -0.018833 0.004810 0.046139
v -0.009823 -0.004892 0.038521
v 0.016481 -0.004892 0.038521
v 0.028948 0.002035 0.046139
v -0.010525 0.012420 0.041291
v 0.025486 0.008958 0.041985
v -0.008443 -0.004892 0.044754
v -0.009135 0.006188 0.038521
v -0.009135 0.014501 0.046139
v -0.016756 0.009648 0.043369
v -0.000135 0.014501 0.039906
v 0.007472 -0.001426 0.046139
v 0.020640 0.013807 0.046139
v 0.019255 0.011728 0.039906
v 0.013712 0.005499 0.038521
v 0.028948 0.004114 0.044753
v 0.027563 0.008265 0.046139
v 0.027563 0.000650 0.046139
v -0.004289 0.015884 0.045447
f 757 751 765 
f 744 745 746 
f 745 744 747 
f 743 748 749 
f 745 747 750 
f 748 743 753 
f 747 748 753 
f 749 748 754 
f 747 744 755 
f 755 751 756 
f 748 747 756 
f 754 748 756 
f 751 754 756 
f 747 755 756 
f 744 746 757 
f 746 754 757 
f 754 751 757 
f 750 747 758 
f 753 743 758 
f 747 753 758 
f 745 750 759 
f 759 752 760 
f 746 745 760 
f 752 749 760 
f 745 759 760 
f 760 749 761 
f 754 746 761 
f 749 754 761 
f 746 760 761 
f 750 749 762 
f 749 752 762 
f 759 750 763 
f 752 759 763 
f 750 762 763 
f 762 752 763 
f 743 749 764 
f 749 750 764 
f 758 743 764 
f 750 758 764 
f 755 744 765 
f 751 755 765 
f 744 757 765 
