o convex_0
v -0.000305 0.023969 -0.035481
v -0.013416 0.027391 -0.041181
v -0.012845 0.020549 -0.041181
v -0.002015 0.033658 -0.041181
v -0.006575 0.031379 -0.035481
v -0.006575 0.019979 -0.041750
v -0.010565 0.037650 -0.041750
v -0.000875 0.033658 -0.035481
v -0.006575 0.021690 -0.035481
v -0.013416 0.030809 -0.040040
v -0.009995 0.038221 -0.040040
v 0.000266 0.033658 -0.038901
v -0.012275 0.019409 -0.039471
v -0.003725 0.019979 -0.037191
v -0.008854 0.030238 -0.042321
v -0.003155 0.022260 -0.040040
v -0.007715 0.024540 -0.035481
v -0.011706 0.018839 -0.041750
v -0.004865 0.028528 -0.042321
v -0.007715 0.037650 -0.041750
v -0.013416 0.030809 -0.041750
f 15 18 21 
f 5 1 8 
f 1 5 9 
f 2 3 10 
f 5 8 11 
f 7 10 11 
f 10 5 11 
f 8 1 12 
f 10 3 13 
f 1 9 14 
f 9 13 14 
f 12 1 16 
f 4 12 16 
f 1 14 16 
f 14 6 16 
f 9 5 17 
f 5 10 17 
f 13 9 17 
f 10 13 17 
f 13 3 18 
f 6 14 18 
f 14 13 18 
f 18 15 19 
f 4 16 19 
f 16 6 19 
f 6 18 19 
f 7 11 20 
f 11 8 20 
f 12 4 20 
f 8 12 20 
f 15 7 20 
f 19 15 20 
f 4 19 20 
f 3 2 21 
f 2 10 21 
f 10 7 21 
f 7 15 21 
f 18 3 21 
o convex_1
v 0.006536 0.027960 -0.022370
v -0.007715 0.025109 -0.035481
v -0.007145 0.023401 -0.035481
v -0.006574 0.025109 -0.021799
v -0.000305 0.035940 -0.022940
v -0.001443 0.033658 -0.035481
v 0.001975 0.021121 -0.028640
v -0.005434 0.033088 -0.021799
v -0.000874 0.021121 -0.021799
v 0.000264 0.025680 -0.035481
v 0.006536 0.031949 -0.021799
v -0.007145 0.030809 -0.035481
v -0.005434 0.021121 -0.035481
v 0.005966 0.029668 -0.025790
v -0.007145 0.029668 -0.021799
v 0.004256 0.022262 -0.021799
v 0.004826 0.023970 -0.026931
v -0.004864 0.033088 -0.035481
v 0.004256 0.033658 -0.025790
v -0.000874 0.021691 -0.034910
v 0.000835 0.035940 -0.025221
v 0.003685 0.034800 -0.021799
v 0.001406 0.020549 -0.027500
v -0.005434 0.021121 -0.032628
v 0.000264 0.029668 -0.035481
f 35 31 46 
f 23 24 25 
f 24 23 27 
f 29 25 30 
f 24 27 31 
f 29 30 32 
f 27 23 33 
f 24 31 34 
f 32 22 35 
f 23 25 36 
f 25 29 36 
f 33 23 36 
f 29 33 36 
f 22 32 37 
f 32 30 37 
f 35 22 38 
f 31 35 38 
f 22 37 38 
f 37 28 38 
f 29 26 39 
f 27 33 39 
f 33 29 39 
f 35 27 40 
f 32 35 40 
f 34 31 41 
f 38 28 41 
f 31 38 41 
f 39 26 42 
f 27 39 42 
f 40 27 42 
f 40 42 43 
f 26 29 43 
f 29 32 43 
f 32 40 43 
f 42 26 43 
f 28 37 44 
f 37 30 44 
f 41 28 44 
f 34 41 44 
f 25 24 45 
f 30 25 45 
f 24 34 45 
f 44 30 45 
f 34 44 45 
f 31 27 46 
f 27 35 46 
o convex_2
v 0.043020 -0.019356 -0.037190
v 0.028769 -0.027335 -0.041180
v 0.028769 -0.027335 -0.039470
v 0.039600 -0.040448 -0.040040
v 0.037319 -0.025628 -0.032061
v 0.037319 -0.012515 -0.032061
v 0.035612 -0.017078 -0.040610
v 0.043020 -0.024488 -0.032061
v 0.031050 -0.036453 -0.038900
v 0.039600 -0.039877 -0.041750
v 0.028769 -0.023917 -0.041750
v 0.030479 -0.037025 -0.041750
v 0.041310 -0.018787 -0.039470
v 0.041878 -0.014227 -0.032631
v 0.035041 -0.014795 -0.039470
v 0.035612 -0.020496 -0.032061
v 0.042449 -0.030186 -0.038900
v 0.039600 -0.034176 -0.041750
v 0.028769 -0.023917 -0.039470
v 0.037319 -0.039308 -0.038900
v 0.041878 -0.026197 -0.032061
v 0.036178 -0.013655 -0.032061
v 0.033901 -0.015370 -0.037760
v 0.043020 -0.016510 -0.032061
f 47 60 70 
f 52 51 54 
f 48 49 57 
f 57 56 58 
f 49 48 58 
f 55 49 58 
f 56 50 58 
f 48 57 58 
f 47 59 60 
f 60 59 61 
f 53 57 61 
f 59 53 61 
f 52 60 61 
f 51 52 62 
f 49 55 62 
f 55 51 62 
f 47 54 63 
f 54 50 63 
f 50 56 63 
f 59 47 63 
f 59 63 64 
f 57 53 64 
f 56 57 64 
f 53 59 64 
f 63 56 64 
f 57 49 65 
f 49 62 65 
f 51 55 66 
f 55 58 66 
f 58 50 66 
f 50 54 67 
f 54 51 67 
f 66 50 67 
f 51 66 67 
f 62 52 68 
f 65 62 68 
f 65 68 69 
f 52 61 69 
f 61 57 69 
f 57 65 69 
f 68 52 69 
f 54 47 70 
f 52 54 70 
f 60 52 70 
o convex_3
v 0.025352 -0.029617 -0.021799
v 0.040167 -0.011375 -0.026930
v 0.040167 -0.012516 -0.024651
v 0.042447 -0.025626 -0.032060
v 0.036180 -0.013657 -0.032060
v 0.037889 -0.024485 -0.021799
v 0.030482 -0.015366 -0.021799
v 0.036746 -0.025055 -0.032060
v 0.023638 -0.025055 -0.022371
v 0.044161 -0.016507 -0.029209
v 0.043018 -0.018787 -0.024651
v 0.042447 -0.014796 -0.032060
v 0.038458 -0.015366 -0.021799
v 0.030482 -0.029617 -0.021799
v 0.042447 -0.024485 -0.028070
v 0.037319 -0.011946 -0.031490
v 0.025920 -0.020496 -0.022371
v 0.043018 -0.013657 -0.025790
v 0.023638 -0.028476 -0.022371
v 0.035607 -0.019928 -0.032060
v 0.025920 -0.029617 -0.022940
v 0.041879 -0.011946 -0.029209
f 88 80 92 
f 73 72 77 
f 71 76 77 
f 75 74 78 
f 71 77 79 
f 74 75 82 
f 80 74 82 
f 73 77 83 
f 77 76 83 
f 76 81 83 
f 76 71 84 
f 76 84 85 
f 74 80 85 
f 81 76 85 
f 80 81 85 
f 84 74 85 
f 77 72 86 
f 82 75 86 
f 75 79 87 
f 79 77 87 
f 77 86 87 
f 86 75 87 
f 72 73 88 
f 81 80 88 
f 73 83 88 
f 83 81 88 
f 71 79 89 
f 89 79 90 
f 75 78 90 
f 79 75 90 
f 78 89 90 
f 78 74 91 
f 84 71 91 
f 74 84 91 
f 71 89 91 
f 89 78 91 
f 80 82 92 
f 86 72 92 
f 82 86 92 
f 72 88 92 
o convex_4
v 0.046443 0.001165 -0.017807
v 0.039032 -0.022206 0.003282
v 0.039032 -0.021064 -0.000707
v 0.039032 0.000596 0.004422
v 0.055559 0.002305 -0.006976
v 0.047582 -0.012513 0.007273
v 0.053850 -0.004536 -0.012108
v 0.039032 -0.011374 -0.013818
v 0.039032 -0.000546 -0.014387
v 0.047582 -0.016503 -0.002989
v 0.039602 -0.002255 0.008414
v 0.053279 0.002877 -0.018379
v 0.039032 -0.022206 0.008414
v 0.042453 0.002877 -0.012108
v 0.054419 0.002877 -0.004702
v 0.040742 -0.012513 -0.012677
v 0.051571 -0.007389 0.000431
v 0.056700 0.002305 -0.014387
v 0.044732 0.002877 -0.002989
v 0.045303 -0.010801 0.008414
v 0.047012 -0.007956 -0.013818
v 0.044732 -0.018783 0.003282
v 0.040742 -0.016503 -0.008116
v 0.043592 -0.019923 -0.000707
v 0.047582 -0.010801 0.007273
v 0.046443 0.002877 -0.017807
v 0.048150 -0.012513 -0.008116
v 0.039032 -0.007389 -0.014956
v 0.039032 0.001165 0.000431
v 0.053279 0.002305 -0.018379
v 0.041313 -0.003966 0.008414
v 0.039602 -0.022206 0.008414
f 116 114 124 
f 95 94 96 
f 95 96 100 
f 100 96 101 
f 96 94 105 
f 103 96 105 
f 104 106 107 
f 96 103 107 
f 98 102 109 
f 102 99 109 
f 97 107 109 
f 104 107 110 
f 107 97 110 
f 97 109 110 
f 109 99 110 
f 107 106 111 
f 96 107 111 
f 103 105 112 
f 108 100 113 
f 102 98 114 
f 95 100 115 
f 100 108 115 
f 94 95 116 
f 102 114 116 
f 95 115 116 
f 115 102 116 
f 98 109 117 
f 109 107 117 
f 112 98 117 
f 104 93 118 
f 101 106 118 
f 106 104 118 
f 99 102 119 
f 113 99 119 
f 108 113 119 
f 102 115 119 
f 115 108 119 
f 93 100 120 
f 100 101 120 
f 118 93 120 
f 101 118 120 
f 101 96 121 
f 106 101 121 
f 96 111 121 
f 111 106 121 
f 100 93 122 
f 93 104 122 
f 110 99 122 
f 104 110 122 
f 99 113 122 
f 113 100 122 
f 107 103 123 
f 103 112 123 
f 117 107 123 
f 112 117 123 
f 105 94 124 
f 98 112 124 
f 112 105 124 
f 114 98 124 
f 94 116 124 
o convex_5
v 0.044731 0.002877 -0.016098
v 0.070949 0.029100 -0.017808
v 0.071524 0.028525 -0.017808
v 0.053857 0.003449 -0.004697
v 0.057841 0.002877 -0.014388
v 0.044731 0.003449 -0.004697
v 0.055565 0.008578 -0.020089
v 0.062400 0.024536 -0.016668
v 0.069239 0.025108 -0.013815
v 0.071524 0.026248 -0.019518
v 0.054423 0.013709 -0.019518
v 0.043020 0.003449 -0.012110
v 0.055565 0.002877 -0.006409
v 0.053857 0.002877 -0.018378
v 0.070382 0.023399 -0.016668
v 0.061262 0.023399 -0.014388
v 0.069239 0.028525 -0.019518
v 0.066962 0.025675 -0.013815
v 0.053282 0.015418 -0.014957
v 0.051006 0.005728 -0.019518
v 0.053857 0.015988 -0.012110
v 0.044731 0.002877 -0.004697
v 0.049864 0.009720 -0.017808
v 0.061828 0.016558 -0.009829
v 0.067531 0.027957 -0.016098
f 140 142 149 
f 127 126 133 
f 126 127 134 
f 125 129 137 
f 133 128 137 
f 129 125 138 
f 134 129 138 
f 131 134 138 
f 127 133 139 
f 134 127 139 
f 129 134 139 
f 137 129 139 
f 133 137 139 
f 126 134 141 
f 134 131 141 
f 131 135 141 
f 135 132 141 
f 133 126 142 
f 140 130 142 
f 140 132 143 
f 135 131 144 
f 138 125 144 
f 131 138 144 
f 136 130 145 
f 130 140 145 
f 143 136 145 
f 140 143 145 
f 128 130 146 
f 136 125 146 
f 130 136 146 
f 125 137 146 
f 137 128 146 
f 132 135 147 
f 125 136 147 
f 143 132 147 
f 136 143 147 
f 144 125 147 
f 135 144 147 
f 130 128 148 
f 128 133 148 
f 142 130 148 
f 133 142 148 
f 132 140 149 
f 126 141 149 
f 141 132 149 
f 142 126 149 
o convex_6
v -0.011136 -0.012516 -0.025220
v -0.021967 -0.034747 -0.032629
v -0.021967 -0.034747 -0.030919
v -0.008856 -0.027904 -0.030919
v -0.018546 -0.021639 -0.034909
v -0.020256 -0.015936 -0.025220
v -0.013417 -0.028473 -0.025220
v -0.010567 -0.025054 -0.033769
v -0.021967 -0.034174 -0.036050
v -0.021967 -0.026763 -0.036050
v -0.021967 -0.032464 -0.028071
v -0.009426 -0.024482 -0.025220
v -0.009426 -0.020496 -0.032059
v -0.018546 -0.014228 -0.026932
v -0.014558 -0.020496 -0.034339
v -0.013417 -0.031324 -0.029211
v -0.018546 -0.025623 -0.025220
v -0.008285 -0.023346 -0.029211
v -0.021967 -0.022779 -0.032059
v -0.014558 -0.011945 -0.025791
v -0.012847 -0.030183 -0.033769
v -0.013988 -0.022779 -0.034909
v -0.011706 -0.011945 -0.025791
v -0.009995 -0.014795 -0.025220
v -0.019114 -0.032464 -0.027501
f 166 160 174 
f 150 155 156 
f 151 152 158 
f 158 152 159 
f 159 152 160 
f 150 156 161 
f 153 157 162 
f 152 151 165 
f 151 158 165 
f 153 161 165 
f 161 156 165 
f 156 155 166 
f 155 160 166 
f 161 153 167 
f 153 162 167 
f 154 159 168 
f 160 155 168 
f 159 160 168 
f 163 154 168 
f 155 163 168 
f 155 150 169 
f 154 163 169 
f 163 155 169 
f 164 154 169 
f 157 153 170 
f 158 157 170 
f 165 158 170 
f 153 165 170 
f 157 158 171 
f 159 154 171 
f 158 159 171 
f 162 157 171 
f 154 164 171 
f 164 162 171 
f 150 162 172 
f 162 164 172 
f 169 150 172 
f 164 169 172 
f 150 161 173 
f 162 150 173 
f 161 167 173 
f 167 162 173 
f 160 152 174 
f 152 165 174 
f 165 156 174 
f 156 166 174 
o convex_7
v -0.009426 -0.023341 -0.024079
v -0.020827 -0.009090 -0.022370
v -0.020827 -0.009090 -0.021800
v -0.007146 0.014271 -0.022370
v -0.015694 0.001733 -0.025220
v -0.010567 -0.023912 -0.021800
v -0.017974 -0.026188 -0.025220
v -0.015694 0.015413 -0.021800
v -0.009426 -0.018779 -0.025220
v -0.004295 0.002872 -0.021800
v -0.019114 -0.022770 -0.021800
v -0.020254 -0.015361 -0.025220
v -0.020827 0.001733 -0.022370
v -0.013983 -0.027902 -0.025220
v -0.007146 0.011423 -0.022940
v -0.013415 0.017694 -0.022370
v -0.020254 -0.021631 -0.025220
v -0.004295 0.002872 -0.022370
v -0.012844 -0.002257 -0.025220
v -0.009426 0.016551 -0.021800
v -0.009426 -0.023912 -0.025220
v -0.016265 0.014271 -0.022370
v -0.015124 -0.025050 -0.021800
f 181 188 197 
f 177 180 182 
f 181 179 183 
f 180 175 184 
f 182 180 184 
f 180 177 185 
f 179 181 186 
f 176 177 187 
f 177 182 187 
f 186 176 187 
f 179 186 187 
f 181 183 188 
f 178 189 190 
f 189 179 190 
f 177 176 191 
f 185 177 191 
f 181 185 191 
f 186 181 191 
f 176 186 191 
f 178 184 192 
f 189 178 192 
f 183 189 192 
f 183 179 193 
f 179 189 193 
f 189 183 193 
f 184 178 194 
f 182 184 194 
f 178 190 194 
f 190 182 194 
f 175 180 195 
f 184 175 195 
f 180 188 195 
f 188 183 195 
f 183 192 195 
f 192 184 195 
f 187 182 196 
f 179 187 196 
f 182 190 196 
f 190 179 196 
f 180 185 197 
f 185 181 197 
f 188 180 197 
o convex_8
v 0.020785 -0.006814 -0.021799
v 0.004257 0.004017 -0.021799
v 0.004257 0.004017 -0.022369
v 0.000838 -0.002253 -0.021799
v 0.014518 -0.003394 -0.023509
v 0.018506 -0.000544 -0.022370
v 0.011096 -0.007384 -0.022370
v -0.000874 0.000595 -0.022369
f 204 201 205 
f 198 199 201 
f 202 200 203 
f 199 198 203 
f 200 199 203 
f 198 202 203 
f 198 201 204 
f 202 198 204 
f 202 204 205 
f 199 200 205 
f 201 199 205 
f 200 202 205 
o convex_9
v 0.028769 0.025678 -0.038332
v 0.012237 0.021694 -0.040611
v 0.012808 0.020550 -0.041180
v 0.025348 0.039930 -0.041751
v 0.020786 0.030238 -0.036621
v 0.023638 0.011429 -0.038902
v 0.021927 0.010287 -0.036621
v 0.020786 0.017131 -0.041751
v 0.015658 0.035937 -0.041751
v 0.012808 0.023972 -0.038332
v 0.027058 0.031374 -0.036621
v 0.022497 0.038788 -0.038902
v 0.026486 0.029665 -0.041751
v 0.016228 0.033657 -0.038332
v 0.028196 0.018840 -0.036621
v 0.026486 0.018840 -0.040041
v 0.017938 0.019411 -0.036621
v 0.017368 0.017131 -0.041751
v 0.013378 0.019982 -0.038332
v 0.024778 0.010858 -0.037192
v 0.012808 0.023972 -0.041751
v 0.015088 0.034799 -0.040041
v 0.025348 0.039930 -0.040041
v 0.023068 0.040501 -0.040611
v 0.027058 0.035370 -0.040611
v 0.028769 0.022833 -0.038902
f 218 230 231 
f 209 213 214 
f 210 212 216 
f 210 216 217 
f 213 209 218 
f 215 210 219 
f 210 217 219 
f 206 216 220 
f 216 212 220 
f 211 213 221 
f 213 218 221 
f 212 210 222 
f 210 215 222 
f 211 212 223 
f 212 208 223 
f 213 211 223 
f 214 213 223 
f 207 208 224 
f 208 212 224 
f 215 207 224 
f 212 222 224 
f 222 215 224 
f 212 211 225 
f 220 212 225 
f 211 221 225 
f 208 207 226 
f 223 208 226 
f 214 223 226 
f 207 215 227 
f 215 219 227 
f 219 217 227 
f 226 207 227 
f 214 226 227 
f 217 216 228 
f 217 228 229 
f 209 214 229 
f 214 227 229 
f 227 217 229 
f 228 209 229 
f 216 206 230 
f 218 209 230 
f 209 228 230 
f 228 216 230 
f 206 220 231 
f 221 218 231 
f 220 225 231 
f 225 221 231 
f 230 206 231 
o convex_10
v 0.031619 0.017699 -0.029781
v 0.018508 0.018843 -0.036621
v 0.018508 0.018843 -0.035479
v 0.026487 0.031950 -0.036621
v 0.022501 0.023968 -0.026362
v 0.023640 0.009719 -0.036621
v 0.023070 0.010858 -0.026362
v 0.029908 0.022828 -0.026362
v 0.031619 0.010858 -0.030351
v 0.020219 0.029097 -0.036049
v 0.028767 0.019982 -0.036621
v 0.029337 0.009719 -0.026362
v 0.024780 0.031950 -0.034339
v 0.022501 0.009719 -0.030351
v 0.031619 0.012570 -0.026931
v 0.028767 0.008577 -0.029211
v 0.021929 0.022828 -0.026362
v 0.029908 0.010289 -0.032630
v 0.028198 0.027955 -0.036621
v 0.031619 0.014848 -0.032059
v 0.021929 0.010289 -0.036621
v 0.030478 0.022828 -0.027502
v 0.018508 0.022256 -0.035479
v 0.025917 0.024537 -0.026362
v 0.026487 0.031378 -0.033770
f 255 239 256 
f 233 235 237 
f 236 238 239 
f 235 233 241 
f 237 235 242 
f 239 238 243 
f 235 241 244 
f 241 236 244 
f 238 234 245 
f 240 232 246 
f 239 243 246 
f 243 240 246 
f 243 238 247 
f 240 243 247 
f 245 237 247 
f 238 245 247 
f 238 236 248 
f 234 238 248 
f 236 241 248 
f 237 242 249 
f 247 237 249 
f 240 247 249 
f 242 235 250 
f 242 250 251 
f 232 240 251 
f 249 242 251 
f 240 249 251 
f 250 232 251 
f 234 233 252 
f 233 237 252 
f 245 234 252 
f 237 245 252 
f 246 232 253 
f 239 246 253 
f 232 250 253 
f 250 235 253 
f 233 234 254 
f 241 233 254 
f 234 248 254 
f 248 241 254 
f 236 239 255 
f 244 236 255 
f 244 255 256 
f 235 244 256 
f 253 235 256 
f 239 253 256 
o convex_11
v 0.032757 -0.030756 -0.018948
v 0.035607 -0.013655 -0.012679
v 0.035607 -0.014226 -0.012679
v 0.015657 -0.013655 -0.012679
v 0.033326 -0.014226 -0.021798
v 0.017369 -0.033607 -0.012679
v 0.022503 -0.029047 -0.021798
v 0.015657 -0.013655 -0.019518
v 0.039030 -0.022207 -0.021798
v 0.029336 -0.031895 -0.012679
v 0.035607 -0.027906 -0.016100
v 0.020219 -0.033607 -0.017808
v 0.015657 -0.030756 -0.013820
v 0.029336 -0.030186 -0.021798
v 0.037886 -0.015369 -0.021798
v 0.018510 -0.030756 -0.018378
v 0.024212 -0.034177 -0.016100
v 0.025351 -0.020499 -0.021798
v 0.035035 -0.029613 -0.019518
v 0.027625 -0.033607 -0.013250
v 0.023640 -0.033607 -0.018948
v 0.039030 -0.020499 -0.020658
v 0.032757 -0.013655 -0.018948
v 0.036749 -0.026765 -0.017239
f 265 278 280 
f 259 258 260 
f 259 260 262 
f 260 258 264 
f 263 261 265 
f 259 262 266 
f 259 266 267 
f 262 260 269 
f 260 264 269 
f 268 262 269 
f 263 265 270 
f 265 261 271 
f 264 263 272 
f 263 268 272 
f 269 264 272 
f 268 269 272 
f 262 268 273 
f 261 263 274 
f 263 264 274 
f 264 261 274 
f 257 270 275 
f 270 265 275 
f 266 262 276 
f 267 266 276 
f 273 257 276 
f 262 273 276 
f 257 275 276 
f 275 267 276 
f 268 263 277 
f 270 257 277 
f 263 270 277 
f 257 273 277 
f 273 268 277 
f 258 259 278 
f 271 258 278 
f 265 271 278 
f 264 258 279 
f 261 264 279 
f 258 271 279 
f 271 261 279 
f 259 267 280 
f 275 265 280 
f 267 275 280 
f 278 259 280 
o convex_12
v 0.029338 0.022258 -0.025219
v 0.018508 0.017696 -0.022370
v 0.022500 0.012568 -0.026359
v 0.028197 0.010288 -0.021799
v 0.020219 0.025679 -0.021799
v 0.022500 0.024538 -0.026359
v 0.031049 0.012568 -0.026359
v 0.029338 0.017696 -0.021799
v 0.024778 0.009147 -0.021799
v 0.029338 0.009719 -0.026359
v 0.026487 0.023396 -0.021799
v 0.029338 0.022828 -0.026359
v 0.021360 0.011429 -0.021799
v 0.021360 0.022258 -0.026359
v 0.023070 0.010858 -0.026359
v 0.018508 0.023396 -0.021799
f 286 294 296 
f 283 286 287 
f 287 281 288 
f 285 284 288 
f 284 287 288 
f 284 285 289 
f 283 287 290 
f 287 284 290 
f 284 289 290 
f 288 281 291 
f 285 288 291 
f 286 285 292 
f 287 286 292 
f 281 287 292 
f 291 281 292 
f 285 291 292 
f 289 285 293 
f 283 282 294 
f 286 283 294 
f 282 283 295 
f 283 290 295 
f 290 289 295 
f 293 282 295 
f 289 293 295 
f 285 286 296 
f 282 293 296 
f 293 285 296 
f 294 282 296 
o convex_13
v -0.027099 -0.002822 -0.010967
v -0.034510 0.021689 0.008414
v -0.027099 0.019977 -0.001277
v -0.027099 -0.002252 0.008414
v -0.045337 0.017697 0.007843
v -0.028240 0.011996 -0.013817
v -0.040206 0.002309 0.002713
v -0.039067 0.010854 -0.004695
v -0.045337 0.021689 0.007843
v -0.040777 0.002309 0.008414
v -0.027099 0.014276 0.008414
v -0.027099 0.019977 -0.005266
v -0.028240 -0.004534 0.000432
v -0.029381 -0.000543 -0.010967
v -0.032800 0.014276 -0.009257
v -0.027099 0.008007 -0.014388
v -0.033370 -0.000543 -0.005835
v -0.045337 0.021689 0.008414
v -0.037356 0.012564 -0.006407
v -0.029950 -0.002252 0.008414
v -0.042486 0.004588 0.008414
v -0.044197 0.014846 0.004992
v -0.028240 -0.004534 -0.002987
v -0.027670 0.016558 -0.009826
v -0.027670 0.008007 -0.014388
v -0.033941 0.021689 0.004992
v -0.027099 -0.004534 0.002142
f 309 319 323 
f 297 299 300 
f 300 298 306 
f 299 298 307 
f 300 299 307 
f 298 300 307 
f 299 297 308 
f 308 297 312 
f 303 304 313 
f 310 297 313 
f 304 310 313 
f 298 305 314 
f 305 301 314 
f 306 298 314 
f 304 305 315 
f 311 302 315 
f 305 311 315 
f 300 306 316 
f 306 309 316 
f 303 306 317 
f 314 301 317 
f 306 314 317 
f 304 303 318 
f 301 305 318 
f 305 304 318 
f 317 301 318 
f 303 317 318 
f 306 303 319 
f 309 306 319 
f 303 313 319 
f 313 297 319 
f 305 308 320 
f 302 311 320 
f 311 305 320 
f 312 302 320 
f 308 312 320 
f 297 310 321 
f 310 304 321 
f 302 312 321 
f 312 297 321 
f 304 315 321 
f 315 302 321 
f 298 299 322 
f 305 298 322 
f 299 308 322 
f 308 305 322 
f 297 300 323 
f 300 316 323 
f 316 309 323 
f 319 297 323 
o convex_14
v 0.016799 0.027959 -0.014388
v 0.033329 0.007440 0.008414
v 0.033329 0.005727 0.008414
v 0.009959 0.017124 0.008414
v 0.009959 0.005727 -0.020087
v 0.029337 0.013139 -0.021799
v 0.009959 0.005727 0.008414
v 0.024206 0.023396 -0.002419
v 0.026487 0.023396 -0.021799
v 0.026487 0.006870 -0.018948
v 0.013379 0.027959 -0.010966
v 0.020788 0.018834 0.008414
v 0.018510 0.024538 -0.021799
v 0.009959 0.020547 -0.010395
v 0.029337 0.020545 -0.017236
v 0.031618 0.011999 0.007272
v 0.009959 0.011999 -0.019516
v 0.020219 0.025677 -0.002990
v 0.029909 0.005727 -0.008115
v 0.013379 0.023968 -0.000139
v 0.014520 0.026249 -0.017236
v 0.025345 0.008578 -0.021799
v 0.027628 0.022828 -0.014956
v 0.029909 0.018266 -0.020087
v 0.021925 0.026249 -0.021228
v 0.009959 0.021115 0.001571
v 0.029909 0.017696 -0.001848
v 0.033329 0.005727 0.005563
v 0.032187 0.012569 0.002712
v 0.024778 0.018834 0.005563
v 0.017940 0.005727 -0.019516
v 0.022497 0.025109 -0.004699
v 0.017940 0.017696 -0.021799
v 0.016231 0.022826 0.002712
v 0.027626 0.009148 -0.021799
v 0.020788 0.023968 0.000432
f 341 357 359 
f 326 325 327 
f 326 327 330 
f 327 328 330 
f 328 326 330 
f 327 325 335 
f 332 329 336 
f 328 327 337 
f 335 325 339 
f 336 328 340 
f 328 337 340 
f 324 334 341 
f 326 328 342 
f 341 334 343 
f 334 324 344 
f 337 334 344 
f 336 340 344 
f 340 337 344 
f 336 329 345 
f 338 332 346 
f 329 332 347 
f 332 338 347 
f 332 336 348 
f 344 324 348 
f 336 344 348 
f 346 332 348 
f 334 337 349 
f 337 327 349 
f 327 343 349 
f 343 334 349 
f 331 339 350 
f 338 346 350 
f 346 331 350 
f 325 326 351 
f 326 342 351 
f 342 329 351 
f 347 325 351 
f 329 347 351 
f 339 325 352 
f 325 347 352 
f 347 338 352 
f 338 350 352 
f 350 339 352 
f 339 331 353 
f 335 339 353 
f 342 328 354 
f 333 342 354 
f 328 345 354 
f 345 333 354 
f 324 341 355 
f 341 331 355 
f 331 346 355 
f 348 324 355 
f 346 348 355 
f 328 336 356 
f 345 328 356 
f 336 345 356 
f 327 335 357 
f 343 327 357 
f 341 343 357 
f 329 342 358 
f 342 333 358 
f 333 345 358 
f 345 329 358 
f 331 341 359 
f 353 331 359 
f 335 353 359 
f 357 335 359 
o convex_15
v 0.030472 -0.029044 0.008414
v 0.002553 0.021689 0.008986
v 0.002553 0.021689 0.008414
v -0.017972 -0.011939 0.008414
v 0.011655 -0.013077 0.023236
v 0.033317 0.003440 0.015255
v -0.023677 0.005150 0.011835
v 0.045871 -0.012511 0.008414
v 0.011097 0.009142 0.019815
v 0.007680 -0.028472 0.014686
v 0.033317 -0.016497 0.019244
v -0.000306 -0.008519 0.022094
v 0.024202 0.016554 0.008414
v -0.016835 0.018264 0.008414
v 0.031044 -0.027334 0.015825
v 0.030472 0.001164 0.019244
v 0.017925 -0.031897 0.008414
v -0.014548 0.014277 0.012407
v 0.019069 -0.013077 0.023236
v -0.003723 -0.024480 0.008414
v 0.020213 0.014277 0.013544
v 0.040166 -0.015930 0.015255
v -0.023677 0.011995 0.008414
v 0.007680 -0.026762 0.016394
v -0.009993 -0.006819 0.017532
v 0.032180 0.010280 0.008986
v 0.026482 -0.027905 0.016394
v -0.000306 -0.006819 0.022094
v -0.004860 0.015987 0.013544
v 0.040166 -0.021060 0.008986
v 0.014508 0.010852 0.018674
v -0.017972 -0.011939 0.008986
v -0.023677 0.000592 0.010698
v 0.026482 0.013134 0.011835
v 0.021914 -0.031897 0.010125
v 0.019634 0.018835 0.008986
v 0.005971 -0.027334 0.015256
v 0.044155 -0.012511 0.011266
v 0.008823 -0.010229 0.023236
v -0.023677 -0.001118 0.008414
v -0.015691 0.017692 0.010126
v -0.004295 -0.023914 0.010125
v 0.013371 0.009142 0.019815
v 0.042447 -0.015930 0.012975
v -0.002580 0.021689 0.008986
v 0.011655 0.011995 0.018101
v 0.019069 -0.011939 0.023236
v 0.027054 -0.016497 0.020955
v -0.006004 -0.018779 0.012978
v 0.031044 0.000020 0.019244
v -0.000306 -0.026190 0.008986
v 0.045299 -0.011367 0.008986
v 0.031044 -0.028472 0.012405
v 0.002546 -0.009657 0.022666
v 0.032752 0.002297 0.016964
v -0.023677 0.011995 0.008986
v -0.005432 0.010280 0.015825
v 0.032180 0.010280 0.008414
v 0.032180 0.006860 0.013547
v -0.016263 -0.003399 0.014687
v 0.025911 -0.031320 0.008984
f 412 374 420 
f 362 360 363 
f 360 362 367 
f 367 362 372 
f 362 363 373 
f 363 360 376 
f 363 376 379 
f 370 374 381 
f 373 363 382 
f 371 366 384 
f 378 364 386 
f 383 369 386 
f 364 383 386 
f 366 371 387 
f 377 366 387 
f 377 368 388 
f 360 367 389 
f 363 379 391 
f 366 382 392 
f 385 372 393 
f 390 375 393 
f 380 390 393 
f 369 376 394 
f 386 369 394 
f 374 386 394 
f 362 361 395 
f 372 362 395 
f 390 380 395 
f 393 372 395 
f 380 393 395 
f 369 383 396 
f 383 371 396 
f 371 384 396 
f 364 378 398 
f 368 387 398 
f 382 363 399 
f 363 391 399 
f 391 392 399 
f 392 382 399 
f 377 388 400 
f 391 379 401 
f 369 396 401 
f 375 390 402 
f 368 398 402 
f 381 374 403 
f 389 367 403 
f 374 389 403 
f 367 397 403 
f 397 381 403 
f 361 362 404 
f 362 373 404 
f 373 400 404 
f 400 388 404 
f 388 368 405 
f 395 361 405 
f 390 395 405 
f 368 402 405 
f 402 390 405 
f 361 404 405 
f 404 388 405 
f 378 370 406 
f 398 378 406 
f 375 402 406 
f 402 398 406 
f 374 370 407 
f 370 378 407 
f 386 374 407 
f 378 386 407 
f 384 391 408 
f 396 384 408 
f 391 401 408 
f 401 396 408 
f 370 381 409 
f 381 397 409 
f 406 370 409 
f 375 406 409 
f 376 369 410 
f 379 376 410 
f 369 401 410 
f 401 379 410 
f 397 367 411 
f 360 389 412 
f 389 374 412 
f 371 383 413 
f 383 364 413 
f 387 371 413 
f 364 398 413 
f 398 387 413 
f 393 375 414 
f 375 409 414 
f 409 397 414 
f 411 365 414 
f 397 411 414 
f 366 377 415 
f 382 366 415 
f 373 382 415 
f 400 373 415 
f 377 400 415 
f 368 377 416 
f 387 368 416 
f 377 387 416 
f 367 372 417 
f 372 385 417 
f 385 411 417 
f 411 367 417 
f 385 393 418 
f 365 411 418 
f 411 385 418 
f 414 365 418 
f 393 414 418 
f 384 366 419 
f 391 384 419 
f 392 391 419 
f 366 392 419 
f 376 360 420 
f 374 394 420 
f 394 376 420 
f 360 412 420 
o convex_16
v -0.025959 -0.029620 -0.038332
v -0.037928 -0.036460 -0.041181
v -0.037358 -0.043867 -0.041181
v -0.028240 -0.039306 -0.042322
v -0.025959 -0.045007 -0.037761
v -0.037358 -0.034180 -0.038902
v -0.033367 -0.030760 -0.042322
v -0.025959 -0.046147 -0.041181
v -0.033367 -0.047856 -0.039471
v -0.030518 -0.029620 -0.037761
v -0.033937 -0.047856 -0.041751
v -0.023107 -0.039875 -0.037761
v -0.036787 -0.042155 -0.038902
v -0.028810 -0.031329 -0.041751
v -0.037928 -0.033040 -0.041751
v -0.032225 -0.039306 -0.037761
v -0.030518 -0.045007 -0.042322
v -0.025959 -0.037030 -0.040611
v -0.025959 -0.046716 -0.038902
f 432 425 439 
f 421 427 430 
f 429 423 431 
f 421 430 432 
f 430 425 432 
f 422 423 433 
f 426 422 433 
f 429 425 433 
f 423 429 433 
f 427 421 434 
f 424 427 434 
f 423 422 435 
f 422 426 435 
f 426 430 435 
f 430 427 435 
f 431 423 435 
f 425 430 436 
f 430 426 436 
f 426 433 436 
f 433 425 436 
f 427 424 437 
f 424 428 437 
f 428 431 437 
f 435 427 437 
f 431 435 437 
f 428 424 438 
f 421 432 438 
f 432 428 438 
f 434 421 438 
f 424 434 438 
f 425 429 439 
f 431 428 439 
f 429 431 439 
f 428 432 439 
o convex_17
v -0.021967 -0.035317 -0.035480
v -0.031658 -0.035317 -0.037760
v -0.031658 -0.035317 -0.037190
v -0.022537 -0.023346 -0.032061
v -0.022537 -0.031900 -0.028071
v -0.027666 -0.044439 -0.037190
v -0.023107 -0.030188 -0.037760
v -0.029377 -0.031900 -0.031491
v -0.023107 -0.043865 -0.037760
v -0.029377 -0.029051 -0.037760
v -0.028237 -0.036457 -0.030921
v -0.021967 -0.024488 -0.029211
v -0.021967 -0.025630 -0.035480
v -0.028806 -0.029051 -0.032061
v -0.021967 -0.033040 -0.028641
v -0.024247 -0.039308 -0.032631
f 454 450 455 
f 442 441 445 
f 445 441 448 
f 446 440 448 
f 441 446 448 
f 441 442 449 
f 446 441 449 
f 442 445 450 
f 447 442 450 
f 444 447 450 
f 447 444 451 
f 440 446 452 
f 446 449 452 
f 449 443 452 
f 451 440 452 
f 443 451 452 
f 442 447 453 
f 449 442 453 
f 443 449 453 
f 451 443 453 
f 447 451 453 
f 448 440 454 
f 444 450 454 
f 440 451 454 
f 451 444 454 
f 445 448 455 
f 450 445 455 
f 448 454 455 
o convex_18
v -0.021967 -0.006807 -0.021799
v -0.011138 0.019405 0.008414
v -0.011707 0.021113 0.006702
v -0.027097 0.014277 0.008414
v -0.009425 -0.019353 0.008414
v -0.009425 0.029668 -0.018945
v -0.009996 -0.022774 -0.021799
v -0.025386 -0.013080 -0.005841
v -0.027097 0.012563 -0.014388
v -0.019116 0.029093 -0.008115
v -0.027097 -0.002248 0.008414
v -0.017978 -0.023343 -0.021799
v -0.027097 -0.007951 -0.014956
v -0.013416 0.019405 -0.021799
v -0.009425 0.029099 -0.005270
v -0.018545 -0.014793 0.007272
v -0.027097 0.019974 -0.005841
v -0.019116 0.026811 -0.015526
v -0.009425 -0.009659 -0.021799
v -0.009425 0.018267 0.008414
v -0.009996 -0.021635 0.003283
v -0.019116 0.016553 -0.020087
v -0.009996 0.032520 -0.016094
v -0.018545 0.026811 -0.002419
v -0.020827 -0.018784 -0.008686
v -0.012847 -0.025056 -0.021228
v -0.024816 -0.013080 -0.018375
v -0.025386 -0.002248 -0.018948
v -0.009425 0.018267 -0.021799
v -0.027097 0.019974 -0.001278
v -0.020827 0.004008 -0.021799
v -0.012847 0.030801 -0.007544
v -0.015696 0.019405 0.008414
v -0.009425 -0.021061 -0.014956
v -0.018545 0.029093 -0.013817
v -0.024816 -0.012505 -0.001848
v -0.026526 -0.011372 -0.012105
v -0.016267 0.025672 -0.018375
v -0.019116 -0.022199 -0.021799
v -0.015696 -0.024482 -0.020658
v -0.024246 -0.011372 -0.020087
v -0.013987 0.022257 0.005563
v -0.009425 -0.021635 0.003283
v -0.025386 -0.013649 -0.014956
v -0.011138 -0.024482 -0.021799
v -0.019116 0.021688 -0.018375
v -0.012276 0.031945 -0.010395
v -0.026526 -0.004525 -0.017236
v -0.010567 -0.019353 0.008414
f 471 476 504 
f 457 459 460 
f 460 459 466 
f 459 464 466 
f 456 462 467 
f 466 464 468 
f 462 456 469 
f 458 457 470 
f 460 461 470 
f 464 459 472 
f 464 472 473 
f 461 460 474 
f 462 469 474 
f 457 460 475 
f 470 457 475 
f 460 470 475 
f 470 461 478 
f 476 471 480 
f 469 461 484 
f 461 474 484 
f 474 469 484 
f 472 459 485 
f 465 472 485 
f 459 479 485 
f 479 465 485 
f 469 456 486 
f 464 477 486 
f 477 469 486 
f 483 464 486 
f 456 483 486 
f 465 479 487 
f 459 457 488 
f 479 459 488 
f 474 460 489 
f 462 474 489 
f 472 465 490 
f 473 472 490 
f 466 463 491 
f 471 466 491 
f 463 480 491 
f 480 471 491 
f 463 466 492 
f 466 468 492 
f 461 469 493 
f 478 461 493 
f 473 490 493 
f 490 478 493 
f 456 467 494 
f 480 463 494 
f 467 480 494 
f 480 467 495 
f 476 480 495 
f 467 481 495 
f 481 476 495 
f 483 456 496 
f 456 494 496 
f 494 482 496 
f 457 458 497 
f 458 470 497 
f 470 487 497 
f 487 479 497 
f 488 457 497 
f 479 488 497 
f 460 476 498 
f 476 481 498 
f 489 460 498 
f 462 489 498 
f 468 482 499 
f 463 492 499 
f 492 468 499 
f 494 463 499 
f 482 494 499 
f 467 462 500 
f 481 467 500 
f 462 498 500 
f 498 481 500 
f 464 473 501 
f 477 464 501 
f 469 477 501 
f 493 469 501 
f 473 493 501 
f 470 478 502 
f 487 470 502 
f 465 487 502 
f 490 465 502 
f 478 490 502 
f 468 464 503 
f 482 468 503 
f 464 483 503 
f 496 482 503 
f 483 496 503 
f 460 466 504 
f 466 471 504 
f 476 460 504 
o convex_19
v -0.000873 -0.027327 -0.007544
v 0.001406 0.022253 0.008414
v 0.003113 0.022826 0.007272
v -0.007714 0.030237 -0.021799
v 0.009957 0.003443 -0.021799
v 0.009957 -0.029044 0.008414
v -0.009425 -0.019922 0.008414
v -0.009425 -0.009089 -0.021799
v 0.009957 0.021681 0.001003
v -0.009425 0.018258 0.008414
v 0.009957 -0.023911 -0.015526
v 0.006534 0.032514 -0.021799
v -0.009425 0.032514 -0.013817
v -0.009425 -0.020488 -0.016668
v 0.009957 0.017692 0.008414
v 0.009957 -0.012511 -0.021228
v -0.005434 -0.026188 0.004422
v -0.002013 0.034798 -0.015526
v 0.005394 -0.029617 -0.002419
v 0.009957 0.021115 -0.010966
v 0.003684 0.034798 -0.020087
v -0.004864 0.023964 0.004992
v -0.002584 0.035370 -0.021799
v -0.009425 0.029664 -0.020087
v -0.000873 -0.029044 -0.000710
v 0.009957 -0.026188 -0.012676
v 0.004254 -0.013650 -0.021228
v -0.005434 0.034225 -0.013246
v -0.001444 -0.027327 0.007272
v -0.008283 -0.023911 -0.001848
v -0.009425 0.029092 -0.005841
v 0.007674 -0.024477 -0.015526
v 0.009957 0.011992 -0.019516
v 0.009957 -0.010228 -0.021799
v 0.002544 -0.029044 -0.005841
v -0.004864 -0.026761 -0.002990
v 0.009957 0.021115 0.003283
v 0.000266 -0.029044 0.004422
v 0.008816 -0.018784 -0.018948
v -0.009425 -0.019922 -0.017236
v -0.009425 -0.022200 0.003283
v 0.009957 -0.029044 0.001571
v -0.007145 0.033653 -0.019516
v 0.004825 0.022253 0.007272
v -0.009425 0.017692 -0.021799
v -0.003153 0.023398 0.006702
v -0.007714 0.034225 -0.014388
v 0.002544 0.023398 0.006702
v 0.006534 0.032514 -0.019516
v -0.004293 -0.024483 0.008414
v -0.006574 0.020542 0.008414
v 0.007105 -0.029044 -0.005270
v 0.007674 -0.025049 -0.014956
f 518 544 557 
f 510 506 511 
f 508 509 512 
f 510 509 513 
f 511 506 514 
f 512 511 514 
f 509 510 515 
f 509 508 516 
f 512 514 517 
f 511 512 518 
f 506 510 519 
f 510 513 519 
f 509 515 520 
f 513 509 524 
f 516 513 524 
f 516 508 527 
f 525 516 527 
f 522 525 527 
f 512 517 528 
f 515 510 530 
f 517 514 535 
f 509 516 537 
f 524 509 537 
f 516 524 537 
f 512 509 538 
f 509 520 538 
f 531 512 538 
f 520 531 538 
f 505 518 539 
f 529 505 539 
f 523 529 539 
f 518 505 540 
f 505 529 540 
f 529 521 540 
f 534 518 540 
f 521 534 540 
f 519 513 541 
f 523 510 542 
f 521 529 542 
f 529 523 542 
f 510 533 542 
f 533 521 542 
f 520 515 543 
f 531 520 543 
f 515 536 543 
f 543 536 544 
f 518 512 544 
f 512 531 544 
f 531 543 544 
f 511 518 545 
f 521 511 545 
f 518 534 545 
f 534 521 545 
f 510 523 546 
f 530 510 546 
f 527 508 547 
f 508 528 547 
f 528 517 547 
f 507 506 548 
f 506 519 548 
f 519 541 548 
f 541 525 548 
f 508 512 549 
f 528 508 549 
f 512 528 549 
f 535 526 550 
f 532 535 550 
f 522 527 551 
f 532 522 551 
f 517 535 551 
f 535 532 551 
f 527 547 551 
f 547 517 551 
f 506 507 552 
f 525 522 552 
f 522 532 552 
f 507 548 552 
f 548 525 552 
f 550 506 552 
f 532 550 552 
f 513 516 553 
f 516 525 553 
f 541 513 553 
f 525 541 553 
f 510 511 554 
f 511 521 554 
f 533 510 554 
f 521 533 554 
f 514 506 555 
f 535 514 555 
f 526 535 555 
f 506 550 555 
f 550 526 555 
f 523 539 556 
f 539 530 556 
f 546 523 556 
f 530 546 556 
f 515 530 557 
f 536 515 557 
f 539 518 557 
f 530 539 557 
f 544 536 557 
o convex_20
v 0.037889 -0.023343 0.008414
v 0.009957 -0.030185 0.001002
v 0.011098 -0.031325 -0.001279
v 0.009957 0.005727 -0.012678
v 0.009957 0.005727 0.008414
v 0.039030 -0.000550 -0.012678
v 0.027058 -0.033604 -0.012678
v 0.033327 0.005727 0.008414
v 0.016801 -0.031891 0.008414
v 0.009957 -0.026196 -0.012678
v 0.039030 -0.013660 -0.012104
v 0.039030 -0.001689 0.008414
v 0.023068 -0.035884 0.000432
v 0.027058 0.005727 -0.012678
v 0.009957 -0.029046 0.008414
v 0.018509 -0.035884 -0.009257
v 0.039030 -0.022203 0.002142
v 0.025347 -0.031891 0.008414
v 0.029909 -0.031895 0.001002
v 0.017939 -0.035884 -0.001279
v 0.028768 -0.032465 -0.012678
v 0.039030 0.000594 -0.009825
v 0.018509 -0.034174 -0.012678
v 0.031050 0.005727 -0.006406
v 0.039030 0.001164 0.003283
v 0.039030 -0.017641 -0.007548
v 0.039030 -0.022203 0.008414
v 0.024209 -0.035884 -0.004696
v 0.013380 -0.033034 -0.005836
v 0.020219 -0.034744 0.004423
v 0.031050 -0.030185 0.004993
v 0.039030 -0.013090 -0.012678
v 0.028768 -0.033034 -0.005836
v 0.010529 -0.030185 0.006702
v 0.020219 -0.036458 -0.006406
f 585 570 592 
f 561 559 562 
f 561 563 564 
f 562 558 565 
f 561 562 565 
f 558 562 566 
f 560 559 567 
f 559 561 567 
f 561 564 567 
f 565 558 569 
f 568 563 569 
f 563 561 571 
f 561 565 571 
f 562 559 572 
f 566 562 572 
f 568 569 574 
f 558 566 575 
f 564 563 578 
f 569 563 579 
f 563 571 579 
f 567 564 580 
f 564 573 580 
f 571 565 581 
f 565 579 581 
f 579 571 581 
f 565 569 582 
f 579 565 582 
f 569 579 582 
f 568 574 583 
f 578 568 583 
f 574 578 583 
f 569 558 584 
f 574 569 584 
f 558 576 584 
f 576 574 584 
f 576 570 585 
f 560 567 586 
f 577 560 586 
f 573 577 586 
f 567 580 586 
f 580 573 586 
f 575 566 587 
f 570 575 587 
f 577 570 587 
f 558 575 588 
f 575 570 588 
f 570 576 588 
f 576 558 588 
f 563 568 589 
f 578 563 589 
f 568 578 589 
f 574 576 590 
f 564 578 590 
f 578 574 590 
f 585 564 590 
f 576 585 590 
f 559 560 591 
f 572 559 591 
f 566 572 591 
f 560 577 591 
f 587 566 591 
f 577 587 591 
f 573 564 592 
f 570 577 592 
f 577 573 592 
f 564 585 592 
o convex_21
v -0.027099 -0.047855 0.026656
v -0.029951 -0.026769 0.032927
v -0.030520 -0.026769 0.032927
v -0.040779 -0.023919 0.019247
v -0.027099 -0.026769 0.029506
v -0.035077 -0.037598 0.026086
v -0.038497 -0.033037 0.018105
v -0.027669 -0.048429 0.028934
v -0.036786 -0.027340 0.027795
v -0.039637 -0.033037 0.019817
v -0.037356 -0.030759 0.018677
v -0.025957 -0.038164 0.028365
v -0.032801 -0.042154 0.021525
v -0.026529 -0.038164 0.031216
v -0.029380 -0.037029 0.031785
v -0.035649 -0.023919 0.022665
v -0.040779 -0.023919 0.021525
v -0.033937 -0.042154 0.023807
v -0.027669 -0.026769 0.032357
v -0.029380 -0.045003 0.029506
v -0.032229 -0.027340 0.032357
v -0.026529 -0.045574 0.026656
v -0.025957 -0.047284 0.028934
v -0.039637 -0.030191 0.022096
v -0.033938 -0.042154 0.021525
v -0.027669 -0.027911 0.028365
v -0.032229 -0.038735 0.022096
f 603 618 619 
f 596 599 602 
f 599 596 603 
f 599 603 605 
f 594 595 607 
f 606 594 607 
f 600 606 607 
f 595 594 608 
f 603 596 608 
f 596 602 609 
f 595 608 609 
f 608 596 609 
f 598 602 610 
f 604 597 611 
f 594 606 611 
f 606 604 611 
f 608 594 611 
f 597 608 611 
f 601 598 612 
f 600 607 612 
f 598 610 612 
f 610 600 612 
f 607 595 613 
f 595 609 613 
f 609 601 613 
f 601 612 613 
f 612 607 613 
f 593 605 614 
f 600 593 615 
f 606 600 615 
f 604 606 615 
f 593 614 615 
f 614 604 615 
f 598 601 616 
f 602 598 616 
f 601 609 616 
f 609 602 616 
f 593 600 617 
f 602 599 617 
f 605 593 617 
f 599 605 617 
f 600 610 617 
f 610 602 617 
f 597 604 618 
f 608 597 618 
f 603 608 618 
f 605 603 619 
f 604 614 619 
f 614 605 619 
f 618 604 619 
o convex_22
v -0.033368 -0.006244 0.020954
v -0.047049 -0.012518 0.013546
v -0.046479 -0.013088 0.012975
v -0.039640 -0.023916 0.023236
v -0.041348 -0.006244 0.023236
v -0.035079 -0.022773 0.022664
v -0.036220 -0.006244 0.017536
v -0.032798 -0.006244 0.023236
v -0.043057 -0.017642 0.022095
v -0.043627 -0.006244 0.015826
v -0.040207 -0.023916 0.019245
v -0.044198 -0.006244 0.019815
v -0.044198 -0.019924 0.018105
v -0.044769 -0.011948 0.012975
v -0.045339 -0.014227 0.018675
v -0.035649 -0.023916 0.023236
v -0.039640 -0.023344 0.019245
f 630 633 636 
f 624 620 626 
f 620 625 626 
f 620 624 627 
f 624 623 627 
f 625 620 627 
f 623 624 628 
f 622 621 629 
f 624 626 629 
f 628 624 631 
f 629 621 631 
f 624 629 631 
f 621 622 632 
f 623 628 632 
f 622 630 632 
f 630 623 632 
f 622 629 633 
f 629 626 633 
f 630 622 633 
f 631 621 634 
f 628 631 634 
f 621 632 634 
f 632 628 634 
f 627 623 635 
f 625 627 635 
f 623 630 635 
f 630 625 635 
f 626 625 636 
f 625 630 636 
f 633 626 636 
o convex_23
v -0.023677 0.002883 0.011834
v -0.059591 0.034799 0.013544
v -0.059591 0.034799 0.014115
v -0.044197 0.001173 0.012974
v -0.045909 0.009148 0.008414
v -0.034511 0.021682 0.008414
v -0.028240 0.017120 0.014115
v -0.023677 -0.001113 0.008414
v -0.033938 -0.003964 0.014115
v -0.056740 0.036510 0.011834
v -0.023677 0.012000 0.008414
v -0.035650 0.026245 0.014115
v -0.030518 -0.002253 0.008414
v -0.045909 0.023393 0.008414
v -0.048756 0.008008 0.014115
v -0.047048 0.004590 0.011264
v -0.026528 0.002313 0.014115
v -0.056170 0.037650 0.014115
v -0.057879 0.032518 0.011834
v -0.040780 0.002313 0.008414
v -0.056740 0.025104 0.013544
v -0.050468 0.034799 0.013544
v -0.048187 0.008582 0.010125
v -0.026528 0.013140 0.014115
v -0.035081 -0.003964 0.013544
v -0.030518 -0.002824 0.014115
v -0.044197 0.001173 0.014115
v -0.035650 0.026245 0.013544
f 658 648 664 
f 641 642 644 
f 643 639 645 
f 637 644 647 
f 644 642 647 
f 639 643 648 
f 643 647 648 
f 641 644 649 
f 644 645 649 
f 642 641 650 
f 646 642 650 
f 645 639 651 
f 643 645 653 
f 638 639 654 
f 646 638 654 
f 639 648 654 
f 638 646 655 
f 650 641 655 
f 646 650 655 
f 641 649 656 
f 652 641 656 
f 640 652 656 
f 639 638 657 
f 651 639 657 
f 652 651 657 
f 638 655 657 
f 642 646 658 
f 646 654 658 
f 654 648 658 
f 641 652 659 
f 655 641 659 
f 652 657 659 
f 657 655 659 
f 647 643 660 
f 637 647 660 
f 653 637 660 
f 643 653 660 
f 649 645 661 
f 640 656 661 
f 656 649 661 
f 644 637 662 
f 645 644 662 
f 637 653 662 
f 653 645 662 
f 645 651 663 
f 652 640 663 
f 651 652 663 
f 640 661 663 
f 661 645 663 
f 647 642 664 
f 648 647 664 
f 642 658 664 
o convex_24
v -0.011134 0.024539 0.023806
v -0.013986 0.008007 0.028368
v -0.012844 0.008007 0.028368
v -0.013986 0.008578 0.034067
v -0.001444 0.014849 0.023806
v -0.013986 0.018267 0.023236
v -0.003725 0.016556 0.026088
v -0.013986 0.015990 0.030644
v -0.006006 0.013708 0.023236
v -0.011134 0.008007 0.032356
v -0.013986 0.023398 0.023236
v -0.001444 0.017126 0.023236
v -0.009995 0.014849 0.030076
v -0.012844 0.010289 0.026088
v -0.006577 0.010859 0.026088
f 669 674 679 
f 666 668 670 
f 670 668 672 
f 666 667 674 
f 668 666 674 
f 671 668 674 
f 669 671 674 
f 670 672 675 
f 672 665 675 
f 673 670 675 
f 673 675 676 
f 665 671 676 
f 671 669 676 
f 669 673 676 
f 675 665 676 
f 671 665 677 
f 668 671 677 
f 672 668 677 
f 665 672 677 
f 667 666 678 
f 666 670 678 
f 673 667 678 
f 670 673 678 
f 667 673 679 
f 673 669 679 
f 674 667 679 
o convex_25
v -0.012844 -0.000543 0.032926
v -0.009993 0.008007 0.031787
v -0.009993 0.008007 0.031217
v 0.001406 -0.002252 0.030076
v -0.008285 0.003445 0.034636
v -0.003155 -0.001682 0.028366
v -0.013986 0.008007 0.030076
v -0.013986 0.006295 0.035207
v 0.000835 0.000597 0.028366
v -0.004297 0.004015 0.032926
v -0.003155 -0.002824 0.032356
v -0.013986 0.002876 0.030647
v -0.013986 0.000597 0.034636
v -0.004297 -0.003394 0.029507
v -0.012274 0.008007 0.034066
v -0.004297 -0.000543 0.033495
f 692 690 695 
f 681 682 686 
f 682 681 688 
f 683 685 688 
f 686 682 688 
f 685 686 688 
f 688 681 689 
f 683 688 689 
f 686 685 691 
f 687 686 691 
f 687 691 692 
f 684 687 692 
f 680 690 692 
f 691 680 692 
f 685 683 693 
f 690 680 693 
f 683 690 693 
f 680 691 693 
f 691 685 693 
f 681 686 694 
f 687 684 694 
f 686 687 694 
f 684 689 694 
f 689 681 694 
f 683 689 695 
f 689 684 695 
f 690 683 695 
f 684 692 695 
o convex_26
v -0.016266 -0.031329 0.034637
v -0.024817 -0.027910 0.033498
v -0.024817 -0.027910 0.035207
v -0.016838 -0.043296 0.032927
v -0.016838 -0.037025 0.037487
v -0.020826 -0.022206 0.037487
v -0.023676 -0.022206 0.031787
v -0.024817 -0.022206 0.037487
v -0.021396 -0.033606 0.036916
v -0.015697 -0.036455 0.032927
v -0.020256 -0.022206 0.033498
v -0.014556 -0.038736 0.035777
v -0.017407 -0.042724 0.035207
v -0.024817 -0.022780 0.031787
v -0.022535 -0.028480 0.038057
v -0.019117 -0.027910 0.038057
f 703 710 711 
f 697 698 703 
f 701 702 703 
f 699 702 705 
f 705 702 706 
f 701 696 706 
f 702 701 706 
f 696 705 706 
f 705 696 707 
f 699 705 707 
f 698 697 708 
f 697 699 708 
f 704 698 708 
f 700 704 708 
f 699 707 708 
f 707 700 708 
f 699 697 709 
f 702 699 709 
f 697 703 709 
f 703 702 709 
f 703 698 710 
f 698 704 710 
f 704 700 710 
f 696 701 711 
f 701 703 711 
f 700 707 711 
f 707 696 711 
f 710 700 711 
o convex_27
v -0.045910 0.026248 0.036918
v -0.058451 0.029097 0.036918
v -0.057880 0.027957 0.036918
v -0.039639 0.010859 0.048887
v -0.054459 0.035370 0.037489
v -0.050469 0.018840 0.036918
v -0.045910 0.014848 0.047177
v -0.039639 0.009722 0.046037
v -0.041920 0.018270 0.046607
v -0.057310 0.033656 0.038058
v -0.044199 0.011429 0.046607
v -0.047051 0.018840 0.036918
v -0.044199 0.017133 0.047747
v -0.038498 0.011429 0.046607
v -0.054459 0.022259 0.037489
v -0.049328 0.030806 0.038058
v -0.054459 0.035370 0.036918
v -0.058451 0.029097 0.037489
v -0.041920 0.009722 0.046037
v -0.045910 0.021689 0.036918
f 712 725 731 
f 714 713 712 
f 714 712 717 
f 715 718 722 
f 717 712 723 
f 719 717 723 
f 718 715 724 
f 720 716 724 
f 715 720 724 
f 716 721 724 
f 721 718 724 
f 715 719 725 
f 712 720 725 
f 720 715 725 
f 714 717 726 
f 717 722 726 
f 720 712 727 
f 716 720 727 
f 712 713 728 
f 713 721 728 
f 721 716 728 
f 727 712 728 
f 716 727 728 
f 713 714 729 
f 721 713 729 
f 718 721 729 
f 722 718 729 
f 714 726 729 
f 726 722 729 
f 719 715 730 
f 717 719 730 
f 722 717 730 
f 715 722 730 
f 723 712 731 
f 719 723 731 
f 725 719 731 
o convex_28
v 0.022501 -0.010234 -0.020658
v 0.026486 0.005727 -0.012679
v 0.039030 -0.000547 -0.012679
v 0.009960 -0.013655 -0.012679
v 0.009960 0.005727 -0.020658
v 0.038455 -0.013084 -0.012679
v 0.009960 -0.013655 -0.020658
v 0.009960 0.005727 -0.012679
v 0.023071 -0.003964 -0.021798
v 0.017373 0.005727 -0.020088
v 0.039030 -0.002255 -0.014960
v 0.009960 0.003445 -0.021798
v 0.039030 -0.007383 -0.014960
v 0.025916 -0.013655 -0.017808
v 0.009960 -0.010234 -0.021798
v 0.022501 -0.007383 -0.021798
v 0.039030 -0.011375 -0.013820
v 0.020791 0.005727 -0.018378
v 0.020222 -0.000547 -0.021798
v 0.036745 -0.013655 -0.013250
v 0.039030 -0.001114 -0.014390
v 0.025347 -0.012515 -0.018948
f 748 751 753 
f 734 733 735 
f 734 735 737 
f 735 736 738 
f 735 733 739 
f 736 735 739 
f 733 736 739 
f 736 733 741 
f 738 736 743 
f 736 741 743 
f 740 742 744 
f 742 734 744 
f 735 738 745 
f 738 743 746 
f 743 740 746 
f 732 738 747 
f 740 744 747 
f 738 746 747 
f 746 740 747 
f 734 737 748 
f 744 734 748 
f 747 744 748 
f 741 733 749 
f 742 740 750 
f 741 742 750 
f 740 743 750 
f 743 741 750 
f 737 735 751 
f 735 745 751 
f 748 737 751 
f 733 734 752 
f 742 741 752 
f 734 742 752 
f 749 733 752 
f 741 749 752 
f 738 732 753 
f 745 738 753 
f 732 747 753 
f 747 748 753 
f 751 745 753 
o convex_29
v -0.044772 0.031378 0.016966
v -0.060731 0.033656 0.017536
v -0.060731 0.033656 0.018675
v -0.048190 -0.002254 0.018106
v -0.044199 0.030237 0.023236
v -0.044199 0.001740 0.014115
v -0.044772 0.001169 0.023236
v -0.060731 0.035368 0.023236
v -0.059020 0.038220 0.014115
v -0.051611 -0.000542 0.014686
v -0.044199 0.029096 0.014115
v -0.058448 0.024536 0.023236
v -0.050471 0.035934 0.023236
v -0.050471 0.000028 0.019244
v -0.052180 0.037650 0.016395
v -0.060158 0.038791 0.018106
v -0.059590 0.033656 0.014115
v -0.044199 -0.001113 0.020955
v -0.051041 0.000599 0.014115
v -0.048190 0.004588 0.023236
v -0.049900 0.035368 0.014115
v -0.051611 -0.001113 0.015826
v -0.055030 0.037079 0.023236
v -0.047050 -0.001683 0.015826
f 757 775 777 
f 755 756 761 
f 760 758 761 
f 754 758 764 
f 758 759 764 
f 759 762 764 
f 756 755 765 
f 760 761 765 
f 761 756 765 
f 758 754 766 
f 761 758 766 
f 757 760 767 
f 766 754 768 
f 755 761 769 
f 762 755 769 
f 768 762 769 
f 755 762 770 
f 762 759 770 
f 763 755 770 
f 759 758 771 
f 758 760 771 
f 760 757 771 
f 759 763 772 
f 770 759 772 
f 763 770 772 
f 760 765 773 
f 767 760 773 
f 765 767 773 
f 754 764 774 
f 764 762 774 
f 768 754 774 
f 762 768 774 
f 755 763 775 
f 765 755 775 
f 757 767 775 
f 767 765 775 
f 761 766 776 
f 766 768 776 
f 768 769 776 
f 769 761 776 
f 763 759 777 
f 771 757 777 
f 759 771 777 
f 775 763 777 
o convex_30
v -0.023677 0.013141 0.022095
v -0.044199 -0.006244 0.017536
v -0.043629 -0.006244 0.016395
v -0.044199 0.030237 0.015257
v -0.044199 0.030237 0.023236
v -0.024247 0.031944 0.016395
v -0.027098 0.001739 0.014115
v -0.032799 -0.006244 0.023236
v -0.023677 0.023965 0.023236
v -0.044199 0.000598 0.023236
v -0.044199 0.029096 0.014115
v -0.044199 0.001168 0.014115
v -0.034506 0.034230 0.018675
v -0.032799 -0.003962 0.014115
v -0.028241 0.017693 0.014115
v -0.023677 0.029666 0.020955
v -0.041347 -0.006244 0.023236
v -0.023677 0.012000 0.023236
v -0.036784 0.031374 0.022664
v -0.023677 0.024531 0.017536
v -0.035077 0.034230 0.016966
v -0.026529 0.002880 0.014115
v -0.035645 0.026243 0.014115
v -0.035645 -0.006244 0.016966
v -0.025390 0.031944 0.019244
f 796 793 802 
f 781 779 782 
f 779 780 785 
f 782 785 786 
f 782 779 787 
f 785 782 787 
f 779 781 788 
f 788 784 789 
f 780 779 789 
f 779 788 789 
f 784 785 791 
f 789 784 791 
f 780 789 791 
f 784 788 792 
f 786 778 793 
f 779 785 794 
f 787 779 794 
f 785 787 794 
f 785 784 795 
f 778 786 795 
f 786 785 795 
f 782 786 796 
f 790 782 796 
f 786 793 796 
f 793 778 797 
f 783 793 797 
f 781 782 798 
f 788 781 798 
f 783 788 798 
f 782 790 798 
f 790 783 798 
f 792 783 799 
f 784 792 799 
f 778 795 799 
f 795 784 799 
f 797 778 799 
f 783 797 799 
f 788 783 800 
f 783 792 800 
f 792 788 800 
f 785 780 801 
f 780 791 801 
f 791 785 801 
f 783 790 802 
f 793 783 802 
f 790 796 802 
o convex_31
v -0.019687 0.027385 0.018678
v -0.023105 -0.000542 0.039197
v -0.024247 -0.000542 0.039197
v -0.024817 -0.003391 0.029507
v -0.014556 -0.003391 0.034066
v -0.013986 0.015413 0.031216
v -0.023676 0.030237 0.020387
v -0.013986 0.018262 0.023237
v -0.023676 0.025105 0.017535
v -0.016266 -0.003391 0.038057
v -0.017409 0.014272 0.032925
v -0.013986 0.022825 0.025519
v -0.024817 0.016555 0.028937
v -0.024817 -0.003391 0.038627
v -0.024817 0.009722 0.023237
v -0.013986 0.006304 0.035207
v -0.013986 0.009150 0.027228
v -0.015698 0.008015 0.035775
v -0.024247 -0.001680 0.028366
v -0.021966 0.030810 0.017535
v -0.024817 0.022253 0.023237
v -0.016838 0.020542 0.028366
v -0.013986 0.022825 0.023237
v -0.024247 0.009722 0.023237
v -0.013986 0.001738 0.031216
v -0.014556 -0.003391 0.036916
f 827 818 828 
f 803 810 811 
f 806 807 812 
f 808 810 814 
f 805 813 815 
f 813 809 815 
f 804 805 816 
f 812 804 816 
f 806 812 816 
f 805 815 816 
f 815 806 816 
f 806 815 817 
f 810 808 818 
f 810 818 819 
f 805 804 820 
f 804 812 820 
f 808 813 820 
f 813 805 820 
f 818 808 820 
f 812 818 820 
f 807 806 821 
f 806 817 821 
f 811 809 822 
f 803 811 822 
f 809 814 822 
f 809 811 823 
f 815 809 823 
f 811 817 823 
f 817 815 823 
f 813 808 824 
f 809 813 824 
f 814 809 824 
f 808 814 824 
f 810 803 825 
f 814 810 825 
f 803 822 825 
f 822 814 825 
f 811 810 826 
f 817 811 826 
f 810 819 826 
f 821 817 826 
f 819 821 826 
f 819 818 827 
f 807 821 827 
f 821 819 827 
f 812 807 828 
f 818 812 828 
f 807 827 828 
o convex_32
v -0.013986 0.019977 0.023236
v -0.010564 0.024539 0.022665
v 0.012237 0.012569 0.017536
v -0.001442 0.014849 0.023236
v 0.010525 0.011998 0.016965
v -0.004863 0.014279 0.022665
v -0.001442 0.017129 0.023236
v -0.012844 0.023967 0.022095
v -0.013986 0.019977 0.022665
v -0.011134 0.024539 0.023236
f 836 829 838 
f 830 831 833 
f 831 832 833 
f 832 829 834 
f 833 832 834 
f 832 831 835 
f 829 832 835 
f 830 833 836 
f 836 833 837 
f 834 829 837 
f 833 834 837 
f 829 836 837 
f 831 830 838 
f 829 835 838 
f 835 831 838 
f 830 836 838 
o convex_33
v -0.024817 -0.015938 0.036915
v -0.041349 -0.019927 0.023236
v -0.041349 -0.015938 0.023236
v -0.028238 -0.026765 0.028367
v -0.033937 -0.023915 0.032926
v -0.034507 -0.014225 0.023236
v -0.039065 -0.026765 0.023236
v -0.028808 -0.014225 0.036915
v -0.024817 -0.026195 0.036345
v -0.024817 -0.014225 0.031786
v -0.035648 -0.026765 0.023236
v -0.038497 -0.014225 0.026658
v -0.032228 -0.026765 0.032355
v -0.024817 -0.019927 0.031215
v -0.037358 -0.024485 0.028939
v -0.025390 -0.022775 0.037487
v -0.033937 -0.018217 0.032926
v -0.024817 -0.026765 0.033496
f 852 847 856 
f 840 841 844 
f 840 844 845 
f 846 839 848 
f 844 846 848 
f 839 847 848 
f 844 842 849 
f 842 845 849 
f 845 844 849 
f 844 841 850 
f 846 844 850 
f 845 842 851 
f 847 843 851 
f 842 844 852 
f 844 848 852 
f 848 847 852 
f 841 840 853 
f 840 845 853 
f 845 851 853 
f 851 843 853 
f 839 846 854 
f 846 843 854 
f 847 839 854 
f 843 847 854 
f 843 846 855 
f 850 841 855 
f 846 850 855 
f 841 853 855 
f 853 843 855 
f 851 842 856 
f 847 851 856 
f 842 852 856 
o convex_34
v -0.026527 -0.011374 0.038627
v -0.041349 -0.005105 0.023236
v -0.041349 -0.003394 0.023236
v -0.024817 -0.003964 0.029507
v -0.034507 -0.014225 0.023236
v -0.040208 -0.014225 0.024376
v -0.039638 -0.003394 0.028937
v -0.024817 -0.014225 0.031785
v -0.024817 -0.003394 0.035207
v -0.029379 -0.011945 0.039197
v -0.031659 -0.003394 0.023236
v -0.028238 -0.014225 0.037487
v -0.029379 -0.009664 0.039197
v -0.024817 -0.014225 0.035776
v -0.025390 -0.008525 0.029507
v -0.028238 -0.003394 0.034637
v -0.040208 -0.003964 0.028367
v -0.040208 -0.014225 0.023236
f 861 862 874 
f 858 859 861 
f 862 861 864 
f 859 863 865 
f 864 860 865 
f 861 859 867 
f 859 865 867 
f 865 860 867 
f 862 864 868 
f 866 862 868 
f 857 866 868 
f 857 865 869 
f 863 866 869 
f 866 857 869 
f 865 857 870 
f 864 865 870 
f 857 868 870 
f 868 864 870 
f 860 864 871 
f 864 861 871 
f 861 867 871 
f 867 860 871 
f 865 863 872 
f 863 869 872 
f 869 865 872 
f 859 858 873 
f 858 862 873 
f 863 859 873 
f 862 866 873 
f 866 863 873 
f 858 861 874 
f 862 858 874 
o convex_35
v -0.021968 -0.003967 0.030648
v -0.021968 -0.003396 0.038627
v -0.024247 -0.003396 0.038627
v -0.021397 -0.022204 0.037486
v -0.024817 -0.022204 0.031787
v -0.020256 -0.022204 0.034068
v -0.024817 -0.003396 0.030076
v -0.024817 -0.022204 0.037486
v -0.020256 -0.003396 0.037486
v -0.020256 -0.003396 0.032357
v -0.020827 -0.022204 0.032927
v -0.024817 -0.003396 0.035777
v -0.023106 -0.022204 0.031787
f 885 879 887 
f 876 877 878 
f 878 879 880 
f 877 876 881 
f 881 879 882 
f 878 877 882 
f 879 878 882 
f 876 878 883 
f 878 880 883 
f 881 876 883 
f 881 883 884 
f 875 881 884 
f 883 880 884 
f 884 880 885 
f 880 879 885 
f 875 884 885 
f 877 881 886 
f 881 882 886 
f 882 877 886 
f 881 875 887 
f 879 881 887 
f 875 885 887 
o convex_36
v -0.015696 -0.012517 0.036347
v -0.013984 -0.003396 0.036347
v -0.013413 -0.003967 0.036347
v -0.003155 -0.019923 0.040338
v -0.001445 -0.021634 0.036917
v -0.017976 -0.003967 0.032357
v -0.019685 -0.003396 0.038057
v -0.000874 -0.018784 0.037487
v -0.007147 -0.019923 0.039767
v -0.020256 -0.006246 0.033497
v -0.013413 -0.006817 0.039197
v -0.006576 -0.020494 0.036917
v -0.014555 -0.010806 0.039767
v -0.015124 -0.003396 0.033497
v -0.000874 -0.019354 0.039197
v -0.018543 -0.009096 0.036917
v -0.020256 -0.003967 0.032357
f 894 901 904 
f 892 891 896 
f 890 889 898 
f 889 894 898 
f 896 888 899 
f 892 896 899 
f 888 897 899 
f 896 891 900 
f 898 894 900 
f 891 898 900 
f 889 890 901 
f 892 893 901 
f 894 889 901 
f 890 895 901 
f 895 892 901 
f 891 892 902 
f 895 890 902 
f 892 895 902 
f 890 898 902 
f 898 891 902 
f 888 896 903 
f 897 888 903 
f 894 897 903 
f 900 894 903 
f 896 900 903 
f 893 892 904 
f 897 894 904 
f 892 899 904 
f 899 897 904 
f 901 893 904 
o convex_37
v -0.048187 0.012567 0.031787
v -0.030518 0.013138 0.030075
v -0.030518 0.013138 0.023236
v -0.030518 -0.003394 0.024377
v -0.051040 0.013138 0.023236
v -0.043059 0.001168 0.032925
v -0.041918 -0.003394 0.023236
v -0.030518 -0.002253 0.032925
v -0.039640 0.013138 0.034067
v -0.044768 0.006866 0.034637
v -0.040210 -0.003394 0.028936
v -0.047619 0.004587 0.023806
v -0.031088 -0.003394 0.023236
v -0.050469 0.012567 0.027798
v -0.031088 -0.003394 0.032355
v -0.046476 0.013138 0.033495
v -0.030518 0.001737 0.032925
f 906 913 921 
f 907 906 908 
f 906 907 909 
f 909 907 911 
f 908 906 912 
f 906 909 913 
f 910 912 914 
f 912 913 914 
f 910 911 915 
f 911 908 915 
f 909 911 916 
f 911 910 916 
f 907 908 917 
f 911 907 917 
f 908 911 917 
f 914 905 918 
f 910 914 918 
f 909 916 918 
f 916 910 918 
f 908 912 919 
f 912 910 919 
f 910 915 919 
f 915 908 919 
f 913 909 920 
f 905 914 920 
f 914 913 920 
f 918 905 920 
f 909 918 920 
f 912 906 921 
f 913 912 921 
o convex_38
v -0.045911 0.013140 0.034065
v -0.056170 0.039361 0.031216
v -0.053320 0.038786 0.031784
v -0.030518 0.013140 0.023236
v -0.058451 0.024542 0.023236
v -0.036220 0.018839 0.035775
v -0.036789 0.029668 0.023236
v -0.058451 0.027956 0.036917
v -0.051607 0.013140 0.023236
v -0.060160 0.036506 0.023236
v -0.050470 0.033087 0.036917
v -0.061869 0.038218 0.033495
v -0.030518 0.013140 0.030076
v -0.057879 0.022260 0.033495
v -0.050470 0.018269 0.036917
v -0.030518 0.021123 0.023808
v -0.051039 0.036506 0.023808
v -0.062441 0.035936 0.028368
v -0.033371 0.018839 0.032925
v -0.055598 0.035936 0.036917
v -0.061869 0.039361 0.028368
v -0.050470 0.013140 0.028937
v -0.036789 0.016562 0.035775
v -0.049898 0.034797 0.034635
v -0.059019 0.023972 0.026656
v -0.051607 0.038218 0.027797
v -0.035080 0.027956 0.023808
v -0.052748 0.018269 0.035775
v -0.045342 0.020551 0.036917
v -0.039639 0.013140 0.034065
v -0.059019 0.034797 0.036917
v -0.061301 0.031378 0.030076
v -0.060729 0.038786 0.034065
v -0.030518 0.017702 0.028937
v -0.061301 0.035369 0.034635
f 939 953 956 
f 925 926 928 
f 925 922 930 
f 926 925 930 
f 928 926 931 
f 922 925 934 
f 932 929 936 
f 925 928 937 
f 934 925 937 
f 928 931 938 
f 931 926 939 
f 932 927 940 
f 927 934 940 
f 929 932 941 
f 938 931 942 
f 931 939 942 
f 939 933 942 
f 930 922 943 
f 935 930 943 
f 934 927 944 
f 928 924 945 
f 932 940 945 
f 924 941 945 
f 941 932 945 
f 926 930 946 
f 930 935 946 
f 939 926 946 
f 923 924 947 
f 924 928 947 
f 928 938 947 
f 942 923 947 
f 938 942 947 
f 937 928 948 
f 928 945 948 
f 945 940 948 
f 929 935 949 
f 922 936 949 
f 936 929 949 
f 943 922 949 
f 935 943 949 
f 927 932 950 
f 932 936 950 
f 944 927 950 
f 936 944 950 
f 922 934 951 
f 936 922 951 
f 934 944 951 
f 944 936 951 
f 929 941 952 
f 946 935 953 
f 939 946 953 
f 924 923 954 
f 941 924 954 
f 923 942 954 
f 942 933 954 
f 933 952 954 
f 952 941 954 
f 934 937 955 
f 940 934 955 
f 937 948 955 
f 948 940 955 
f 935 929 956 
f 933 939 956 
f 929 952 956 
f 952 933 956 
f 953 935 956 
o convex_39
v -0.030518 0.020548 0.023237
v -0.024817 -0.001112 0.035206
v -0.024817 0.009145 0.031786
v -0.024817 0.008579 0.023237
v -0.030518 -0.003394 0.024947
v -0.030518 0.001741 0.032926
v -0.024817 0.021119 0.023237
v -0.030518 0.016555 0.029506
v -0.024817 -0.003394 0.029506
v -0.030518 -0.003394 0.032926
v -0.029947 -0.001112 0.023237
v -0.024817 0.016555 0.028937
v -0.025958 -0.003394 0.035206
f 962 966 969 
f 959 958 960 
f 957 961 962 
f 959 960 963 
f 960 957 963 
f 958 959 964 
f 962 958 964 
f 957 962 964 
f 963 957 964 
f 960 958 965 
f 961 965 966 
f 962 961 966 
f 957 960 967 
f 961 957 967 
f 960 965 967 
f 965 961 967 
f 959 963 968 
f 964 959 968 
f 963 964 968 
f 958 962 969 
f 965 958 969 
f 966 965 969 
o convex_40
v 0.010527 -0.025055 -0.014389
v 0.015657 -0.013656 -0.012678
v 0.015657 -0.013656 -0.019519
v 0.009957 -0.013656 -0.012678
v 0.009957 -0.013656 -0.020659
v 0.015657 -0.021635 -0.012678
v 0.015087 -0.020495 -0.017808
v 0.009957 -0.025625 -0.012678
v 0.010527 -0.019926 -0.018379
f 977 974 978 
f 971 972 973 
f 973 972 974 
f 972 971 975 
f 971 973 975 
f 974 972 976 
f 975 970 976 
f 972 975 976 
f 973 974 977 
f 970 975 977 
f 975 973 977 
f 976 970 978 
f 974 976 978 
f 970 977 978 
