o convex_0
v -0.021457 -0.033531 -0.038128
v -0.001109 0.037400 -0.022707
v 0.003213 0.029995 -0.022090
v 0.032815 0.014571 -0.038128
v 0.019247 -0.032291 -0.022707
v -0.038108 -0.013175 -0.022707
v -0.031944 0.023200 -0.038128
v 0.021713 -0.030441 -0.038128
v 0.035905 0.000386 -0.022709
v 0.005055 0.036776 -0.038128
v -0.033793 0.020742 -0.022707
v -0.010355 -0.037846 -0.022707
v -0.039964 -0.003921 -0.038128
v 0.023562 0.027522 -0.022707
v 0.033432 -0.014408 -0.038128
v 0.001357 -0.038470 -0.038128
v -0.015902 0.034919 -0.038128
v 0.029733 -0.021812 -0.022707
v -0.023307 0.031228 -0.022707
v -0.030095 -0.026743 -0.022707
v -0.034409 -0.021188 -0.038128
v -0.039341 0.007790 -0.022707
v -0.006033 -0.027359 -0.022090
v 0.019864 0.030604 -0.038128
v -0.032560 0.005934 -0.022090
v 0.029117 0.001002 -0.022090
v 0.006295 -0.037838 -0.022707
v 0.013083 0.034310 -0.022707
v -0.037491 0.013954 -0.038128
v 0.032815 0.014571 -0.022709
v 0.035905 0.000386 -0.038128
v 0.012459 -0.035997 -0.038128
v 0.035281 -0.007627 -0.022709
v -0.010355 -0.037846 -0.038128
v 0.029117 0.021358 -0.038128
v -0.022690 -0.032915 -0.022707
v -0.009122 0.036776 -0.022707
v -0.002951 0.037400 -0.038128
v 0.018014 -0.023037 -0.022090
v -0.039964 -0.003921 -0.022707
v -0.023307 0.031228 -0.038128
v 0.029733 -0.021812 -0.038128
v -0.028238 -0.028592 -0.038128
v -0.039964 0.002852 -0.038128
v 0.035281 0.006550 -0.022709
v -0.018984 0.025673 -0.022090
v -0.039341 -0.008860 -0.038128
v -0.033177 -0.006387 -0.022090
v 0.024178 0.017660 -0.022090
v 0.029117 0.021358 -0.022707
v -0.005416 -0.038470 -0.022707
v -0.034409 -0.021188 -0.022707
v -0.016519 -0.035997 -0.022707
v 0.013083 0.034310 -0.038128
v 0.033432 -0.014408 -0.022709
v -0.015902 0.034919 -0.022707
v 0.012459 -0.035997 -0.022707
v -0.037491 0.013954 -0.022707
v 0.005055 0.036776 -0.022707
v 0.035281 -0.007627 -0.038128
v 0.034665 0.009023 -0.038128
v 0.027268 -0.024894 -0.022707
v -0.026389 0.028763 -0.022707
v -0.037491 -0.015024 -0.038128
f 21 52 64 
f 4 1 7 
f 1 4 8 
f 4 7 10 
f 7 1 13 
f 8 4 15 
f 1 8 16 
f 10 7 17 
f 13 1 21 
f 4 10 24 
f 23 3 25 
f 3 23 26 
f 14 24 28 
f 11 7 29 
f 7 13 29 
f 15 4 31 
f 8 5 32 
f 16 8 32 
f 27 16 32 
f 9 26 33 
f 31 9 33 
f 1 16 34 
f 4 24 35 
f 24 14 35 
f 30 4 35 
f 3 2 37 
f 2 10 38 
f 10 17 38 
f 37 2 38 
f 17 37 38 
f 26 23 39 
f 23 27 39 
f 25 22 40 
f 17 7 41 
f 19 17 41 
f 8 15 42 
f 15 18 42 
f 21 1 43 
f 20 21 43 
f 1 36 43 
f 36 20 43 
f 29 13 44 
f 22 29 44 
f 13 40 44 
f 40 22 44 
f 26 9 45 
f 9 31 45 
f 25 3 46 
f 11 25 46 
f 3 37 46 
f 13 21 47 
f 6 40 47 
f 40 13 47 
f 23 25 48 
f 20 36 48 
f 36 23 48 
f 40 6 48 
f 25 40 48 
f 3 26 49 
f 28 3 49 
f 14 28 49 
f 26 45 49 
f 45 30 49 
f 35 14 50 
f 30 35 50 
f 14 49 50 
f 49 30 50 
f 23 12 51 
f 16 27 51 
f 27 23 51 
f 12 34 51 
f 34 16 51 
f 21 20 52 
f 48 6 52 
f 20 48 52 
f 12 23 53 
f 1 34 53 
f 34 12 53 
f 36 1 53 
f 23 36 53 
f 24 10 54 
f 10 28 54 
f 28 24 54 
f 18 15 55 
f 15 33 55 
f 33 26 55 
f 39 18 55 
f 26 39 55 
f 17 19 56 
f 37 17 56 
f 19 46 56 
f 46 37 56 
f 32 5 57 
f 27 32 57 
f 5 39 57 
f 39 27 57 
f 25 11 58 
f 22 25 58 
f 11 29 58 
f 29 22 58 
f 2 3 59 
f 10 2 59 
f 3 28 59 
f 28 10 59 
f 15 31 60 
f 33 15 60 
f 31 33 60 
f 4 30 61 
f 31 4 61 
f 30 45 61 
f 45 31 61 
f 5 8 62 
f 39 5 62 
f 18 39 62 
f 8 42 62 
f 42 18 62 
f 7 11 63 
f 41 7 63 
f 19 41 63 
f 11 46 63 
f 46 19 63 
f 47 21 64 
f 6 47 64 
f 52 6 64 
o convex_1
v -0.005419 -0.014412 0.061184
v 0.003212 0.013960 0.063035
v 0.003212 0.013960 0.054396
v 0.013696 -0.007627 0.054398
v 0.003212 -0.001460 0.080914
v -0.017142 -0.000228 0.054396
v -0.006035 0.004706 0.080299
v -0.006035 -0.011327 0.072897
v -0.006035 0.013960 0.063035
v -0.014057 -0.011946 0.054396
v 0.003212 -0.013796 0.068580
v 0.012465 0.005322 0.056867
v 0.003212 0.009641 0.075981
v 0.000742 -0.014412 0.054396
v -0.013438 0.008407 0.054396
v -0.006035 -0.003310 0.080299
v 0.009998 0.001622 0.067965
v -0.012822 -0.004542 0.066734
v -0.006035 0.009641 0.075981
v 0.003212 -0.006392 0.078448
v 0.011230 -0.011946 0.055016
v -0.013438 0.004091 0.064268
v -0.006035 0.013960 0.054396
v 0.011230 0.007791 0.054398
v 0.003212 0.005941 0.079681
v 0.010614 -0.004542 0.065499
v 0.003212 0.012107 0.071046
v 0.014315 -0.000228 0.055631
v -0.006035 -0.013796 0.068580
v -0.016523 -0.007627 0.055016
v -0.012203 0.001622 0.069195
v -0.006035 0.012107 0.071046
v 0.000126 -0.015030 0.056867
v 0.003212 -0.009477 0.075364
v 0.010614 0.005322 0.063648
v -0.006035 -0.006392 0.078448
v -0.014057 0.005322 0.061184
v -0.016523 -0.000228 0.057482
v 0.007529 0.002240 0.073515
v 0.009379 0.009638 0.056867
v -0.006035 0.002240 0.080914
v -0.002953 -0.015030 0.060566
v 0.003212 0.002240 0.080914
v 0.013081 -0.007627 0.056867
v -0.015907 0.004706 0.055016
v -0.012203 0.009641 0.056249
v -0.010355 0.004706 0.071664
v -0.002953 -0.015030 0.056867
v -0.009739 -0.001460 0.074130
v 0.006910 0.005322 0.072897
v -0.006035 0.013342 0.066734
v 0.003212 -0.012561 0.071046
v 0.000742 -0.014412 0.067352
v 0.006910 -0.002076 0.074130
v 0.011846 -0.000228 0.063648
v 0.013696 0.002856 0.054398
v -0.014057 -0.000841 0.064884
v -0.006035 -0.009477 0.075364
v -0.014057 -0.011946 0.055016
f 122 94 123 
f 66 67 73 
f 70 67 74 
f 67 68 78 
f 74 67 78 
f 67 70 79 
f 69 80 84 
f 78 68 85 
f 73 67 87 
f 67 79 87 
f 83 71 89 
f 77 83 89 
f 83 77 91 
f 70 74 94 
f 83 91 96 
f 78 85 97 
f 85 75 97 
f 90 84 98 
f 91 77 99 
f 92 76 99 
f 80 82 100 
f 84 80 100 
f 98 84 100 
f 83 96 101 
f 70 94 102 
f 95 86 102 
f 86 101 102 
f 67 66 104 
f 88 67 104 
f 76 88 104 
f 66 91 104 
f 99 76 104 
f 91 99 104 
f 80 69 105 
f 71 95 105 
f 93 65 106 
f 89 71 107 
f 69 103 107 
f 103 89 107 
f 105 69 107 
f 71 105 107 
f 85 68 108 
f 68 92 108 
f 98 85 108 
f 90 98 108 
f 79 70 109 
f 70 102 109 
f 102 101 109 
f 73 87 110 
f 87 79 110 
f 101 96 110 
f 79 109 110 
f 109 101 110 
f 71 83 111 
f 95 71 111 
f 86 95 111 
f 101 86 111 
f 83 101 111 
f 65 74 112 
f 74 78 112 
f 78 97 112 
f 106 65 112 
f 97 106 112 
f 82 80 113 
f 80 105 113 
f 105 95 113 
f 77 89 114 
f 81 99 114 
f 99 77 114 
f 89 103 114 
f 103 81 114 
f 66 73 115 
f 91 66 115 
f 96 91 115 
f 73 110 115 
f 110 96 115 
f 75 85 116 
f 72 93 116 
f 98 72 116 
f 85 98 116 
f 97 75 117 
f 93 106 117 
f 106 97 117 
f 75 116 117 
f 116 93 117 
f 69 84 118 
f 84 90 118 
f 103 69 118 
f 103 118 119 
f 99 81 119 
f 92 99 119 
f 81 103 119 
f 108 92 119 
f 90 108 119 
f 118 90 119 
f 68 67 120 
f 67 88 120 
f 88 76 120 
f 76 92 120 
f 92 68 120 
f 94 82 121 
f 102 94 121 
f 95 102 121 
f 82 113 121 
f 113 95 121 
f 82 94 122 
f 72 98 122 
f 100 82 122 
f 98 100 122 
f 74 65 123 
f 65 93 123 
f 93 72 123 
f 94 74 123 
f 72 122 123 
o convex_2
v -0.030711 0.012108 -0.022090
v 0.001976 0.023827 0.014919
v 0.001976 0.024444 0.012448
v 0.001976 -0.026749 -0.022090
v -0.022691 -0.016878 0.014919
v 0.001976 0.029998 -0.022090
v 0.001976 -0.018113 0.014919
v -0.019606 0.017656 0.014919
v -0.033793 -0.007006 -0.021471
v -0.014059 0.028139 -0.021471
v -0.027626 -0.005771 0.014919
v -0.015292 -0.023661 -0.022090
v -0.022691 -0.018731 0.012448
v -0.007892 0.023827 0.014299
v -0.026393 0.006554 0.012448
v -0.023311 0.022591 -0.022090
v -0.003574 -0.027367 -0.020855
v -0.000489 -0.021196 0.006282
v -0.033176 -0.005153 -0.014686
v -0.023928 0.015191 0.006282
v -0.004807 0.029998 -0.020855
v -0.015908 0.021356 0.011217
v -0.033176 -0.008241 -0.019004
v -0.031944 0.007172 -0.019004
v -0.010358 -0.026126 -0.021471
v -0.027626 0.017656 -0.020239
v -0.025160 0.009020 0.014919
v -0.028858 -0.011942 -0.022090
v -0.002342 0.025680 0.007514
v -0.027626 0.011490 -0.001738
v -0.002342 -0.024278 -0.006053
v -0.018990 0.025674 -0.020855
v -0.021459 0.020121 -0.001738
v -0.002958 -0.018731 0.014919
v -0.012210 0.025062 0.001348
v 0.001976 -0.024278 -0.007284
v -0.007892 0.028762 -0.014686
v -0.027626 -0.006388 0.014919
v -0.011594 0.022591 0.014919
v -0.018374 -0.021190 -0.022090
v -0.027626 0.006554 0.006282
v -0.032560 0.004701 -0.022090
v -0.022691 -0.018731 0.009365
v -0.001106 0.027527 -0.003586
v -0.009125 0.029380 -0.022090
v -0.022691 0.014573 0.013684
v -0.031327 -0.010089 -0.017153
v -0.006656 0.026909 -0.001738
v -0.007892 -0.026749 -0.020855
v -0.030091 0.012726 -0.018388
v 0.000743 -0.027367 -0.021471
v -0.002958 0.024444 0.014299
v -0.002342 -0.020578 0.008750
v -0.017757 0.023821 -0.006669
v -0.033793 -0.005153 -0.019004
v -0.004807 -0.027367 -0.022090
v -0.033176 -0.007624 -0.022090
v -0.023928 0.021974 -0.020855
f 149 156 181 
f 126 125 127 
f 126 127 129 
f 127 124 129 
f 127 125 130 
f 125 128 130 
f 128 125 131 
f 128 131 134 
f 124 127 135 
f 129 124 139 
f 142 132 146 
f 136 135 148 
f 139 124 149 
f 134 131 150 
f 138 134 150 
f 124 135 151 
f 143 149 153 
f 136 140 154 
f 133 139 155 
f 131 145 156 
f 149 143 156 
f 130 128 157 
f 128 136 157 
f 141 130 157 
f 127 130 159 
f 130 141 159 
f 141 154 159 
f 133 158 160 
f 128 134 161 
f 136 128 161 
f 134 142 161 
f 146 136 161 
f 142 146 161 
f 131 125 162 
f 145 131 162 
f 137 158 162 
f 158 145 162 
f 151 135 163 
f 134 138 164 
f 142 134 164 
f 147 142 164 
f 138 150 164 
f 153 147 164 
f 150 153 164 
f 147 124 165 
f 124 151 165 
f 135 136 166 
f 136 146 166 
f 163 135 166 
f 126 129 167 
f 129 144 167 
f 152 126 167 
f 129 139 168 
f 139 133 168 
f 144 129 168 
f 133 160 168 
f 160 144 168 
f 150 131 169 
f 143 153 169 
f 153 150 169 
f 131 156 169 
f 156 143 169 
f 146 151 170 
f 151 163 170 
f 166 146 170 
f 163 166 170 
f 158 137 171 
f 144 160 171 
f 160 158 171 
f 167 144 171 
f 152 167 171 
f 140 136 172 
f 136 148 172 
f 124 147 173 
f 149 124 173 
f 147 153 173 
f 153 149 173 
f 154 140 174 
f 127 159 174 
f 159 154 174 
f 125 126 175 
f 126 152 175 
f 162 125 175 
f 137 162 175 
f 171 137 175 
f 152 171 175 
f 136 154 176 
f 154 141 176 
f 157 136 176 
f 141 157 176 
f 133 155 177 
f 156 145 177 
f 155 156 177 
f 158 133 177 
f 145 158 177 
f 132 142 178 
f 142 147 178 
f 165 132 178 
f 147 165 178 
f 135 127 179 
f 148 135 179 
f 140 172 179 
f 172 148 179 
f 127 174 179 
f 174 140 179 
f 146 132 180 
f 151 146 180 
f 132 165 180 
f 165 151 180 
f 139 149 181 
f 155 139 181 
f 156 155 181 
o convex_3
v 0.006298 -0.033532 0.017391
v 0.028503 -0.019350 0.044524
v 0.022332 -0.019350 0.044524
v 0.010617 -0.019350 0.014922
v 0.026651 -0.019967 0.014922
v 0.015554 -0.036000 0.023557
v 0.009999 -0.025518 0.037737
v 0.013699 -0.036619 0.014922
v 0.022948 -0.027984 0.040206
v 0.003213 -0.030449 0.014922
v 0.014318 -0.019350 0.043289
v 0.016781 -0.033532 0.031571
v 0.005681 -0.030449 0.026640
v 0.026651 -0.019350 0.014922
v 0.028503 -0.020584 0.044524
v 0.007533 -0.026752 0.031571
v 0.026035 -0.021201 0.014922
v 0.022332 -0.024901 0.042672
v 0.020482 -0.031066 0.036506
v 0.013086 -0.036000 0.021708
v 0.012467 -0.024284 0.040206
v 0.007533 -0.028598 0.032189
v 0.003832 -0.031683 0.019856
v 0.019250 -0.031066 0.036506
v 0.010617 -0.019967 0.019856
v 0.011853 -0.036619 0.014922
v 0.014318 -0.036619 0.016156
v 0.003213 -0.030449 0.016773
v 0.013699 -0.019350 0.040820
v 0.025419 -0.024901 0.042055
v 0.003832 -0.032298 0.014922
v 0.020482 -0.028598 0.039589
v 0.020482 -0.031066 0.035272
v 0.014318 -0.035383 0.025408
v 0.015554 -0.036000 0.022322
v 0.014935 -0.020584 0.043289
f 202 199 217 
f 184 183 185 
f 185 186 189 
f 185 189 191 
f 184 185 192 
f 185 183 195 
f 186 185 195 
f 183 186 195 
f 183 184 196 
f 186 183 196 
f 188 192 197 
f 189 186 198 
f 186 196 198 
f 196 184 199 
f 193 187 200 
f 192 188 202 
f 194 193 203 
f 188 197 203 
f 197 194 203 
f 182 201 204 
f 201 194 204 
f 193 200 205 
f 202 188 205 
f 188 203 205 
f 203 193 205 
f 191 189 207 
f 201 182 207 
f 187 201 207 
f 189 198 208 
f 187 207 208 
f 207 189 208 
f 185 191 209 
f 194 197 209 
f 204 194 209 
f 206 185 209 
f 197 206 209 
f 192 185 210 
f 197 192 210 
f 185 206 210 
f 206 197 210 
f 198 196 211 
f 199 190 211 
f 196 199 211 
f 190 200 211 
f 182 204 212 
f 207 182 212 
f 191 207 212 
f 209 191 212 
f 204 209 212 
f 190 199 213 
f 200 190 213 
f 199 202 213 
f 205 200 213 
f 202 205 213 
f 200 187 214 
f 198 211 214 
f 211 200 214 
f 187 193 215 
f 193 194 215 
f 201 187 215 
f 194 201 215 
f 208 198 216 
f 187 208 216 
f 214 187 216 
f 198 214 216 
f 184 192 217 
f 199 184 217 
f 192 202 217 
o convex_4
v -0.009118 -0.010712 0.045143
v 0.016781 0.015811 0.050077
v 0.009997 0.009642 0.054396
v -0.019604 0.015811 0.049462
v -0.002337 -0.014413 0.054396
v 0.016781 0.000391 0.045143
v -0.017755 0.015811 0.045143
v -0.016521 -0.008245 0.054396
v 0.011227 -0.013180 0.053777
v -0.006035 0.013959 0.054396
v 0.015548 0.015811 0.045143
v -0.018373 -0.001458 0.045143
v 0.006911 -0.010712 0.045143
v 0.014314 -0.005156 0.054396
v -0.013434 -0.013795 0.052544
v -0.015906 0.005323 0.054396
v 0.001976 -0.011946 0.045143
v -0.020226 0.009024 0.047611
v 0.014933 -0.004541 0.045143
v 0.010612 -0.013795 0.052544
v -0.002952 0.015811 0.052544
v 0.003213 0.013959 0.054396
v 0.014314 -0.008857 0.052544
v 0.017400 0.009639 0.048846
v -0.019604 0.015811 0.050077
v -0.014057 -0.007627 0.045143
v -0.017140 -0.008245 0.051310
v 0.013699 0.003471 0.054396
v -0.013434 -0.013180 0.054396
v -0.017140 -0.004544 0.054396
v -0.006035 -0.011946 0.045143
v 0.017400 0.012107 0.046994
v -0.019604 0.012110 0.045762
v 0.010612 -0.013180 0.054396
v -0.018373 -0.002692 0.051310
v -0.020226 0.011491 0.049462
v -0.010970 0.010876 0.054396
v 0.011227 -0.008245 0.045143
v -0.001107 -0.014413 0.053777
v -0.016521 -0.005159 0.045143
v 0.015548 -0.003307 0.051310
v -0.018988 0.001006 0.045143
f 244 252 259 
f 223 218 224 
f 221 219 224 
f 222 220 225 
f 225 220 227 
f 223 224 228 
f 224 219 228 
f 224 218 229 
f 218 223 230 
f 220 222 231 
f 225 227 233 
f 218 230 234 
f 230 223 236 
f 234 230 237 
f 219 221 238 
f 238 227 239 
f 220 219 239 
f 227 220 239 
f 219 238 239 
f 231 226 240 
f 236 223 240 
f 226 237 240 
f 237 236 240 
f 219 231 241 
f 238 221 242 
f 227 238 242 
f 229 218 243 
f 218 232 243 
f 232 225 244 
f 219 220 245 
f 220 231 245 
f 231 219 245 
f 222 225 246 
f 232 222 246 
f 225 232 246 
f 225 233 247 
f 233 242 247 
f 232 218 248 
f 218 234 248 
f 228 219 249 
f 223 228 249 
f 219 241 249 
f 241 223 249 
f 221 224 250 
f 231 222 251 
f 226 231 251 
f 222 237 251 
f 237 226 251 
f 244 225 252 
f 225 247 252 
f 252 247 253 
f 242 221 253 
f 247 242 253 
f 221 250 253 
f 250 235 253 
f 235 252 253 
f 233 227 254 
f 242 233 254 
f 227 242 254 
f 230 236 255 
f 237 230 255 
f 236 237 255 
f 222 232 256 
f 237 222 256 
f 234 237 256 
f 232 248 256 
f 248 234 256 
f 229 243 257 
f 243 232 257 
f 232 244 257 
f 244 229 257 
f 240 223 258 
f 231 240 258 
f 223 241 258 
f 241 231 258 
f 224 229 259 
f 229 244 259 
f 250 224 259 
f 235 250 259 
f 252 235 259 
o convex_5
v -0.018369 0.016428 0.046378
v 0.002594 0.026914 0.053161
v 0.002594 0.026914 0.051927
v 0.016783 0.015811 0.050076
v 0.005679 0.025679 0.045143
v -0.018992 0.015811 0.050693
v 0.014931 0.015811 0.045143
v -0.012202 0.023829 0.045143
v -0.010969 0.025063 0.053161
v 0.011846 0.023212 0.052544
v -0.002950 0.026914 0.045143
v -0.017756 0.015811 0.045143
v 0.010613 0.023212 0.045143
v -0.015287 0.022596 0.051927
v 0.016164 0.015811 0.050693
v -0.002950 0.026296 0.053779
v -0.009117 0.026296 0.052544
v 0.016164 0.017662 0.048846
v 0.006295 0.026296 0.053161
v -0.018992 0.017662 0.049461
v -0.016524 0.019513 0.045143
v -0.005415 0.026914 0.053161
v -0.007268 0.026296 0.045761
v 0.011846 0.021978 0.052544
v -0.014671 0.021978 0.052544
f 283 275 284 
f 263 265 266 
f 264 266 267 
f 261 262 270 
f 262 264 270 
f 264 267 270 
f 265 260 271 
f 266 265 271 
f 267 266 271 
f 266 264 272 
f 265 263 274 
f 263 269 274 
f 267 273 276 
f 273 268 276 
f 263 266 277 
f 269 263 277 
f 266 272 277 
f 272 269 277 
f 262 261 278 
f 264 262 278 
f 272 264 278 
f 269 272 278 
f 261 275 278 
f 260 265 279 
f 265 273 279 
f 279 273 280 
f 271 260 280 
f 267 271 280 
f 273 267 280 
f 260 279 280 
f 261 270 281 
f 268 275 281 
f 275 261 281 
f 276 268 281 
f 276 281 282 
f 270 267 282 
f 267 276 282 
f 281 270 282 
f 265 274 283 
f 274 269 283 
f 269 278 283 
f 278 275 283 
f 273 265 284 
f 268 273 284 
f 275 268 284 
f 265 283 284 
o convex_6
v 0.029120 -0.007005 -0.018388
v 0.003215 0.023825 0.014919
v 0.001980 0.023825 0.014919
v 0.011849 -0.036610 0.014919
v 0.001980 -0.026744 -0.022090
v 0.001980 0.029381 -0.022090
v 0.029120 0.005319 0.014919
v 0.023567 0.018276 -0.022090
v 0.002599 -0.031680 0.014299
v 0.029120 -0.016871 0.013684
v 0.017399 -0.024892 -0.021471
v 0.013701 0.023206 -0.002354
v 0.012465 -0.035997 -0.001119
v 0.028501 0.007171 -0.022090
v 0.027884 -0.019962 0.009365
v 0.010000 0.028142 -0.020855
v 0.001980 -0.031680 0.003196
v 0.011849 0.020734 0.014919
v 0.024800 -0.013793 -0.022090
v 0.014933 -0.035377 0.014919
v 0.013701 -0.031674 -0.013454
v 0.019867 0.021973 -0.019620
v 0.001980 -0.018110 0.014919
v 0.016782 0.018889 0.006898
v 0.027884 -0.018730 0.014919
v 0.027268 0.011488 -0.021471
v 0.011233 -0.035997 -0.001119
v 0.003831 0.029381 -0.018388
v 0.008767 0.025058 0.000729
v 0.016166 0.025058 -0.022090
v 0.013084 -0.037236 0.010601
v 0.029120 -0.008238 -0.017772
v 0.028501 -0.003927 -0.022090
v 0.018634 -0.023047 -0.022090
v 0.011849 -0.034145 -0.007897
v 0.003215 -0.032293 0.014919
v 0.011233 -0.036610 0.003196
v 0.029120 0.002854 -0.004202
v 0.014933 -0.029209 -0.017153
v 0.018015 0.020121 -0.002970
v 0.015550 0.018276 0.013684
v 0.003831 0.026290 0.001348
v 0.006916 0.023206 0.013684
v 0.001980 0.029381 -0.017772
v 0.029120 -0.016871 0.008134
v 0.024800 0.016418 -0.021471
v 0.003831 -0.032913 0.012448
v 0.013701 -0.032300 -0.011603
v 0.027884 -0.019962 0.012448
v 0.001980 -0.031061 -0.001119
v 0.001980 -0.031680 0.008750
v 0.014933 0.025058 -0.016533
v 0.004448 -0.026744 -0.022090
v 0.012465 -0.037236 0.013068
v 0.005683 0.029381 -0.022090
f 300 314 339 
f 286 287 288 
f 289 287 290 
f 286 288 291 
f 289 290 292 
f 285 291 294 
f 289 292 298 
f 287 289 301 
f 286 291 302 
f 289 298 303 
f 291 288 304 
f 291 292 306 
f 288 287 307 
f 287 301 307 
f 296 302 308 
f 294 291 309 
f 291 304 309 
f 291 298 310 
f 298 292 310 
f 302 296 313 
f 292 290 314 
f 306 292 314 
f 297 299 315 
f 299 304 315 
f 285 294 316 
f 299 303 316 
f 316 303 317 
f 298 285 317 
f 303 298 317 
f 285 316 317 
f 299 295 318 
f 289 303 318 
f 303 299 318 
f 289 305 319 
f 297 311 319 
f 311 289 319 
f 288 307 320 
f 307 293 320 
f 311 297 321 
f 301 311 321 
f 297 315 321 
f 291 285 322 
f 285 298 322 
f 298 291 322 
f 291 306 324 
f 308 291 324 
f 296 308 324 
f 302 291 325 
f 291 308 325 
f 308 302 325 
f 287 286 326 
f 300 312 326 
f 313 300 326 
f 313 326 327 
f 286 302 327 
f 302 313 327 
f 326 286 327 
f 290 287 328 
f 312 290 328 
f 287 326 328 
f 326 312 328 
f 294 299 329 
f 316 294 329 
f 299 316 329 
f 292 291 330 
f 291 310 330 
f 310 292 330 
f 301 321 331 
f 295 299 332 
f 299 297 332 
f 319 305 332 
f 297 319 332 
f 323 295 332 
f 305 323 332 
f 299 294 333 
f 304 299 333 
f 294 309 333 
f 309 304 333 
f 301 289 334 
f 289 311 334 
f 311 301 334 
f 293 307 335 
f 307 301 335 
f 320 293 335 
f 301 331 335 
f 331 320 335 
f 300 313 336 
f 313 296 336 
f 314 300 336 
f 306 314 336 
f 324 306 336 
f 296 324 336 
f 305 289 337 
f 289 318 337 
f 318 295 337 
f 295 323 337 
f 323 305 337 
f 304 288 338 
f 315 304 338 
f 288 320 338 
f 321 315 338 
f 320 331 338 
f 331 321 338 
f 290 312 339 
f 312 300 339 
f 314 290 339 
o convex_7
v 0.030354 -0.000845 -0.010368
v 0.029120 -0.013180 0.013685
v 0.029738 -0.013180 0.013685
v 0.029120 0.005325 0.014919
v 0.038372 0.001007 0.014919
v 0.029120 -0.007010 -0.017156
v 0.036521 -0.000227 0.000731
v 0.029738 0.004707 0.003814
v 0.031588 -0.005161 -0.014070
v 0.038372 -0.000227 0.013067
v 0.029738 -0.013180 0.014919
v 0.029120 0.002240 -0.004814
v 0.034670 -0.000227 -0.004814
v 0.037138 0.001007 0.004433
v 0.029738 -0.008242 -0.012836
v 0.029738 0.005325 0.007516
v 0.033438 -0.002078 -0.009752
v 0.029738 -0.002694 -0.013451
f 356 348 357 
f 341 343 345 
f 348 346 349 
f 349 344 350 
f 341 342 350 
f 343 341 350 
f 344 343 350 
f 342 349 350 
f 345 343 351 
f 351 347 352 
f 340 351 352 
f 349 346 353 
f 344 349 353 
f 352 347 353 
f 346 352 353 
f 342 341 354 
f 341 345 354 
f 345 348 354 
f 348 349 354 
f 349 342 354 
f 343 344 355 
f 351 343 355 
f 347 351 355 
f 344 353 355 
f 353 347 355 
f 346 348 356 
f 352 346 356 
f 340 352 356 
f 348 345 357 
f 345 351 357 
f 351 340 357 
f 340 356 357 
o convex_8
v -0.026387 -0.013177 0.016154
v 0.003215 0.023825 0.015536
v 0.003215 0.023825 0.014919
v 0.027267 -0.019344 0.014919
v 0.037749 -0.002692 0.030340
v -0.024537 -0.009475 0.030340
v -0.004801 0.023825 0.030340
v 0.025418 -0.019344 0.030340
v -0.023304 0.012722 0.014919
v 0.038372 0.001007 0.014919
v -0.024537 -0.017497 0.022321
v -0.025770 0.004088 0.029105
v 0.004441 0.022591 0.030340
v -0.022688 -0.015641 0.014919
v -0.030093 -0.008241 0.021705
v -0.015289 0.020740 0.015536
v -0.023304 -0.015024 0.029105
v -0.019605 0.012722 0.030340
v -0.002334 -0.019344 0.016770
v 0.012463 0.020123 0.015536
v 0.038372 -0.000227 0.023553
v 0.013080 -0.019344 0.030340
v -0.028237 -0.006390 0.014919
v 0.037132 -0.005160 0.030340
v -0.006650 0.023825 0.014919
v -0.028860 -0.012556 0.025404
v -0.017755 0.016425 0.026019
v -0.018988 -0.017497 0.027254
v -0.002334 -0.019344 0.023553
v 0.038372 -0.000840 0.016770
v -0.025154 -0.016880 0.018004
v -0.025770 0.006552 0.014919
v -0.030093 -0.009475 0.019239
v 0.001982 0.023825 0.030340
v -0.023921 0.007790 0.029722
v -0.025770 -0.003921 0.030340
v -0.022071 0.014569 0.016154
v -0.006034 -0.018110 0.014919
v 0.007524 0.022591 0.014919
v 0.038372 -0.001457 0.027254
v -0.009123 -0.015641 0.030340
v -0.007267 0.022591 0.030340
v -0.026387 0.003471 0.027254
v -0.026387 -0.014412 0.027872
v 0.038372 -0.002692 0.026019
v -0.012823 0.021974 0.014919
v 0.035899 -0.007007 0.030340
v -0.029476 -0.007007 0.016770
v -0.026387 -0.016258 0.019855
v -0.015289 0.017042 0.030340
v -0.028237 -0.007624 0.026638
v -0.018988 0.017655 0.017387
v 0.038372 0.001007 0.016154
v 0.011230 -0.019344 0.014919
v -0.024537 0.010254 0.016154
f 400 392 412 
f 363 362 364 
f 359 360 364 
f 362 363 365 
f 360 361 366 
f 361 360 367 
f 364 362 370 
f 366 361 371 
f 363 364 375 
f 361 365 376 
f 377 370 378 
f 365 363 379 
f 376 365 379 
f 366 371 380 
f 371 358 380 
f 362 365 381 
f 364 360 382 
f 360 366 382 
f 379 374 385 
f 379 385 386 
f 368 376 386 
f 376 379 386 
f 385 368 386 
f 361 367 387 
f 367 378 387 
f 358 371 388 
f 376 368 388 
f 366 380 389 
f 383 372 390 
f 358 388 390 
f 359 364 391 
f 364 370 391 
f 370 377 391 
f 375 384 392 
f 363 375 393 
f 392 369 393 
f 375 392 393 
f 373 366 394 
f 392 384 394 
f 371 361 395 
f 388 371 395 
f 376 388 395 
f 360 359 396 
f 367 360 396 
f 377 367 396 
f 359 391 396 
f 391 377 396 
f 370 362 397 
f 378 370 397 
f 387 378 397 
f 363 374 398 
f 379 363 398 
f 374 379 398 
f 364 373 399 
f 375 364 399 
f 373 384 399 
f 372 369 400 
f 389 372 400 
f 369 392 400 
f 374 363 401 
f 368 385 401 
f 385 374 401 
f 363 393 401 
f 393 383 401 
f 381 361 402 
f 362 381 402 
f 361 387 402 
f 397 362 402 
f 387 397 402 
f 373 364 403 
f 366 373 403 
f 364 382 403 
f 382 366 403 
f 365 361 404 
f 361 381 404 
f 381 365 404 
f 380 358 405 
f 372 389 405 
f 389 380 405 
f 358 390 405 
f 390 372 405 
f 388 368 406 
f 383 390 406 
f 390 388 406 
f 368 401 406 
f 401 383 406 
f 384 375 407 
f 375 399 407 
f 399 384 407 
f 369 372 408 
f 372 383 408 
f 383 393 408 
f 393 369 408 
f 384 373 409 
f 373 394 409 
f 394 384 409 
f 367 377 410 
f 377 378 410 
f 378 367 410 
f 361 376 411 
f 395 361 411 
f 376 395 411 
f 366 389 412 
f 394 366 412 
f 392 394 412 
f 389 400 412 
o convex_9
v 0.030350 -0.017493 0.044523
v 0.028502 0.002239 0.031577
v 0.028502 0.002239 0.030344
v 0.013082 -0.019348 0.032810
v 0.019255 -0.011946 0.045142
v 0.035899 -0.007016 0.030344
v 0.025418 -0.019344 0.030344
v 0.018634 -0.005161 0.030340
v 0.034668 -0.008250 0.040205
v 0.014316 -0.019348 0.042673
v 0.023571 -0.005780 0.042673
v 0.037754 -0.003312 0.032194
v 0.029120 -0.019344 0.044523
v 0.013082 -0.019348 0.030344
v 0.018634 -0.005161 0.032809
v 0.026655 -0.001463 0.038355
v 0.032202 -0.013795 0.043906
v 0.029120 -0.019344 0.041438
v 0.034668 -0.010710 0.040823
v 0.016787 -0.018112 0.044523
v 0.026034 -0.000229 0.036511
v 0.037754 -0.002699 0.030344
v 0.023571 -0.007631 0.043906
v 0.027268 0.002239 0.031577
v 0.014316 -0.018729 0.042673
v 0.037136 -0.003929 0.034044
v 0.026655 -0.005780 0.042056
v 0.024191 -0.013795 0.045142
v 0.013082 -0.018729 0.032810
v 0.037754 -0.004546 0.031577
v 0.022337 -0.007014 0.043292
f 435 423 443 
f 418 419 420 
f 420 419 426 
f 422 416 426 
f 419 418 430 
f 413 425 430 
f 425 422 430 
f 422 426 430 
f 426 419 430 
f 429 413 431 
f 421 429 431 
f 413 430 431 
f 422 425 432 
f 423 428 433 
f 428 414 433 
f 415 414 434 
f 418 420 434 
f 420 415 434 
f 414 424 434 
f 414 415 436 
f 415 420 436 
f 420 427 436 
f 433 414 436 
f 427 433 436 
f 416 422 437 
f 417 427 437 
f 432 417 437 
f 422 432 437 
f 424 414 438 
f 428 421 438 
f 414 428 438 
f 431 424 438 
f 421 431 438 
f 428 423 439 
f 421 428 439 
f 429 421 439 
f 423 435 439 
f 435 429 439 
f 425 413 440 
f 413 429 440 
f 417 432 440 
f 432 425 440 
f 435 417 440 
f 429 435 440 
f 420 426 441 
f 426 416 441 
f 427 420 441 
f 416 437 441 
f 437 427 441 
f 430 418 442 
f 424 431 442 
f 431 430 442 
f 418 434 442 
f 434 424 442 
f 427 417 443 
f 433 427 443 
f 423 433 443 
f 417 435 443 
o convex_10
v 0.003210 0.025058 0.034043
v -0.025161 -0.005160 0.030342
v -0.024542 -0.007624 0.030342
v -0.018991 -0.001458 0.045142
v 0.009379 -0.014408 0.032808
v 0.012466 0.020743 0.045142
v -0.012822 0.023211 0.045142
v 0.002595 -0.012561 0.045142
v 0.012466 0.015807 0.030342
v -0.015905 0.016424 0.030342
v -0.009740 -0.017497 0.036509
v 0.012466 -0.008241 0.045142
v 0.002595 -0.016876 0.030342
v -0.018991 0.012726 0.045142
v -0.005427 0.023828 0.030342
v 0.000124 0.026914 0.045142
v -0.023308 0.007172 0.030342
v -0.014671 -0.008241 0.045142
v 0.004448 -0.018114 0.035893
v 0.012466 -0.000224 0.030342
v -0.008506 -0.017497 0.031575
v -0.006657 -0.014412 0.043290
v -0.006657 0.025680 0.038357
v 0.009379 0.023207 0.040207
v 0.012466 -0.010710 0.037741
v 0.005063 0.023207 0.030958
v -0.020840 0.001010 0.043907
v -0.025161 -0.000224 0.030958
v -0.017139 0.018275 0.044525
v 0.004448 -0.015642 0.041440
v -0.010358 0.023211 0.035893
v -0.011592 -0.015646 0.038357
v 0.005678 0.025675 0.045142
v -0.018991 -0.003926 0.044525
v 0.009379 -0.011327 0.030342
v 0.007530 -0.016259 0.037126
v -0.002340 0.025062 0.031575
v -0.022689 -0.009475 0.030958
v -0.007272 -0.016880 0.039590
v -0.009121 -0.016263 0.030342
v -0.006657 0.026297 0.045142
v -0.001106 0.026914 0.040824
v -0.018991 0.013343 0.030342
v -0.012822 0.023211 0.043290
v -0.017139 -0.007007 0.043907
v -0.008506 -0.011944 0.045142
v 0.004448 -0.017493 0.031575
v -0.009740 -0.015029 0.041440
v -0.006657 -0.018114 0.032808
v 0.002595 0.023824 0.030342
v 0.005063 0.025675 0.040207
v -0.024542 -0.007624 0.030958
v 0.012466 -0.009475 0.043907
v -0.023308 0.006555 0.032808
v -0.006657 -0.018114 0.036509
v -0.008506 0.023211 0.032193
v -0.022074 0.009640 0.030342
v -0.022074 0.002866 0.040207
v -0.009740 -0.017497 0.032808
v 0.007530 -0.016259 0.032193
v 0.002595 -0.017493 0.038357
v 0.010613 -0.010710 0.032193
f 478 463 505 
f 447 449 450 
f 449 447 451 
f 446 445 452 
f 452 445 453 
f 449 451 455 
f 452 449 455 
f 446 452 456 
f 447 450 457 
f 452 453 458 
f 450 449 459 
f 453 445 460 
f 451 447 461 
f 452 455 463 
f 456 452 463 
f 449 452 467 
f 463 455 468 
f 467 452 469 
f 447 457 470 
f 460 445 471 
f 445 470 471 
f 457 450 472 
f 455 451 473 
f 451 465 473 
f 459 449 476 
f 449 467 476 
f 461 447 477 
f 447 470 477 
f 456 463 478 
f 448 468 479 
f 473 462 479 
f 458 466 480 
f 454 475 481 
f 473 465 482 
f 446 456 483 
f 456 464 483 
f 481 446 483 
f 464 481 483 
f 450 459 484 
f 466 484 485 
f 444 480 485 
f 480 466 485 
f 484 459 485 
f 453 460 486 
f 486 472 487 
f 472 450 487 
f 474 453 487 
f 466 474 487 
f 450 484 487 
f 484 466 487 
f 453 486 487 
f 475 461 488 
f 461 477 488 
f 481 475 488 
f 451 461 489 
f 465 451 489 
f 464 456 490 
f 475 454 491 
f 461 475 491 
f 454 482 491 
f 482 465 491 
f 489 461 491 
f 465 489 491 
f 464 490 492 
f 490 462 492 
f 452 458 493 
f 444 469 493 
f 469 452 493 
f 480 444 493 
f 458 480 493 
f 469 444 494 
f 467 469 494 
f 459 476 494 
f 476 467 494 
f 444 485 494 
f 485 459 494 
f 445 446 495 
f 470 445 495 
f 477 470 495 
f 446 481 495 
f 488 477 495 
f 481 488 495 
f 468 455 496 
f 455 473 496 
f 479 468 496 
f 473 479 496 
f 471 457 497 
f 460 471 497 
f 457 472 497 
f 472 460 497 
f 482 454 498 
f 454 492 498 
f 492 462 498 
f 458 453 499 
f 466 458 499 
f 453 474 499 
f 474 466 499 
f 460 472 500 
f 486 460 500 
f 472 486 500 
f 470 457 501 
f 457 471 501 
f 471 470 501 
f 481 464 502 
f 454 481 502 
f 492 454 502 
f 464 492 502 
f 478 448 503 
f 456 478 503 
f 448 479 503 
f 479 462 503 
f 490 456 503 
f 462 490 503 
f 462 473 504 
f 473 482 504 
f 482 498 504 
f 498 462 504 
f 468 448 505 
f 463 468 505 
f 448 478 505 
o convex_11
v 0.018633 -0.007628 0.030342
v 0.013084 0.020129 0.045142
v 0.013084 0.020129 0.044525
v 0.012466 -0.010096 0.037741
v 0.012466 0.015809 0.030342
v 0.022952 0.000392 0.030958
v 0.016167 -0.003927 0.045142
v 0.018633 0.003475 0.043907
v 0.021717 0.006555 0.030340
v 0.012466 -0.007628 0.045142
v 0.012466 -0.002693 0.030342
v 0.022952 -0.004540 0.030958
v 0.016167 0.013342 0.045142
v 0.012466 0.020129 0.045142
v 0.013700 -0.009477 0.041440
v 0.020484 0.009022 0.030340
v 0.014934 -0.008244 0.030342
v 0.017401 -0.003927 0.043907
v 0.020484 0.006555 0.036509
v 0.014934 0.017043 0.045142
v 0.013084 0.015809 0.030342
v 0.019250 0.001626 0.042676
v 0.015550 -0.006395 0.043907
v 0.022952 -0.004540 0.030340
f 506 522 529 
f 510 509 515 
f 512 507 515 
f 509 510 516 
f 507 512 518 
f 512 513 518 
f 507 508 519 
f 508 510 519 
f 510 515 519 
f 515 507 519 
f 509 506 520 
f 515 509 520 
f 506 517 520 
f 508 507 521 
f 516 510 521 
f 506 509 522 
f 509 516 522 
f 513 512 523 
f 511 514 524 
f 518 513 524 
f 518 524 525 
f 507 518 525 
f 521 507 525 
f 514 521 525 
f 524 514 525 
f 510 508 526 
f 508 521 526 
f 521 510 526 
f 517 511 527 
f 513 523 527 
f 523 517 527 
f 511 524 527 
f 524 513 527 
f 512 515 528 
f 515 520 528 
f 520 517 528 
f 523 512 528 
f 517 523 528 
f 514 511 529 
f 517 506 529 
f 511 517 529 
f 521 514 529 
f 516 521 529 
f 522 516 529 
