o convex_0
v 0.050285 0.001466 0.026514
v 0.041492 -0.012462 0.025781
v 0.042226 -0.012462 0.025781
v 0.041492 0.023451 0.025781
v 0.051752 0.015383 0.025781
v 0.041492 0.023451 0.026514
v 0.041492 -0.012462 0.026514
v 0.051018 0.020516 0.026514
v 0.049553 -0.000734 0.025781
f 3 5 9 
f 3 2 4 
f 3 4 5 
f 4 2 6 
f 3 1 7 
f 2 3 7 
f 6 2 7 
f 1 6 7 
f 1 5 8 
f 5 4 8 
f 6 1 8 
f 4 6 8 
f 1 3 9 
f 5 1 9 
o convex_1
v 0.028293 -0.020510 0.035309
v 0.016567 0.055699 0.031647
v 0.016567 0.055699 0.030179
v -0.039125 0.020509 0.027250
v 0.003381 0.016854 0.050700
v 0.053215 0.021242 0.026514
v 0.000452 -0.022715 0.026514
v 0.037825 0.022707 0.045567
v -0.007610 -0.009520 0.040437
v 0.002656 0.042504 0.042636
v -0.006876 0.047632 0.026514
v 0.046622 -0.009528 0.027248
v 0.026833 -0.002194 0.047035
v 0.037825 0.046900 0.034577
v 0.050276 0.000004 0.034580
v 0.020966 0.037376 0.046301
v 0.034161 0.048365 0.026514
v 0.052480 0.029309 0.032380
v -0.009080 0.047632 0.033844
v -0.010540 0.023448 0.044833
v -0.008345 -0.019052 0.032380
v 0.008505 -0.008796 0.045567
v -0.009805 0.005132 0.044833
v 0.024629 0.012466 0.050700
v 0.022435 -0.024913 0.026514
v 0.008505 -0.024181 0.033844
v 0.043683 0.005865 0.041902
v 0.041489 -0.013916 0.033846
v 0.010700 0.004408 0.050700
v -0.020071 -0.007330 0.032380
v -0.039125 0.021975 0.026514
v -0.014204 0.033705 0.039703
v -0.017867 -0.010253 0.027250
v 0.009240 0.024913 0.050700
v 0.054684 0.011001 0.032380
v 0.016567 0.051296 0.037511
v 0.038559 0.034437 0.041902
v 0.046622 0.039566 0.027982
v 0.003381 0.054226 0.032380
v 0.036356 -0.019785 0.026514
v 0.026099 0.028576 0.048498
v 0.048082 0.021975 0.038971
v 0.022435 -0.013191 0.042636
v -0.017867 0.000004 0.038240
v 0.010700 0.053493 0.026514
v 0.035621 -0.009520 0.040437
v 0.001921 0.032972 0.047035
v 0.052480 0.003667 0.026514
v -0.002477 0.001477 0.047035
v 0.026099 0.053493 0.033844
v 0.026833 0.041031 0.043370
v -0.009080 0.048365 0.027982
v 0.004850 -0.016114 0.040437
v -0.016407 0.011001 0.041902
v 0.047347 0.036635 0.034580
v 0.037090 0.005873 0.045567
v 0.031223 0.052028 0.028713
v 0.020966 -0.024913 0.032380
v 0.010700 0.038108 0.046301
v 0.016567 -0.018320 0.039703
v 0.051011 -0.002927 0.031647
v 0.009240 -0.025654 0.030179
v -0.039125 0.021975 0.027250
v -0.010540 0.039566 0.038971
f 72 41 73 
f 15 16 20 
f 15 20 26 
f 14 29 32 
f 16 15 34 
f 31 22 38 
f 22 33 38 
f 33 14 38 
f 30 18 39 
f 20 16 40 
f 16 30 42 
f 39 13 42 
f 30 39 42 
f 13 40 42 
f 40 16 42 
f 14 33 43 
f 15 27 44 
f 36 24 44 
f 15 26 47 
f 27 15 47 
f 11 12 48 
f 28 19 48 
f 45 11 48 
f 19 45 48 
f 34 15 49 
f 37 10 49 
f 21 37 49 
f 33 17 50 
f 25 43 50 
f 43 33 50 
f 17 46 50 
f 17 36 51 
f 44 27 51 
f 36 44 51 
f 46 17 51 
f 22 31 52 
f 18 32 53 
f 13 39 53 
f 39 18 53 
f 26 20 54 
f 48 12 54 
f 24 36 55 
f 10 37 55 
f 37 24 55 
f 22 52 55 
f 52 10 55 
f 29 14 56 
f 41 29 56 
f 14 43 56 
f 15 44 57 
f 49 15 57 
f 21 49 57 
f 18 31 58 
f 32 18 58 
f 14 32 58 
f 31 38 58 
f 38 14 58 
f 12 11 59 
f 11 45 59 
f 59 45 60 
f 45 25 60 
f 46 23 60 
f 25 50 60 
f 50 46 60 
f 23 59 60 
f 20 40 61 
f 28 48 61 
f 54 20 61 
f 48 54 61 
f 18 30 62 
f 31 18 62 
f 30 35 62 
f 32 29 63 
f 13 53 63 
f 53 32 63 
f 23 46 64 
f 47 23 64 
f 27 47 64 
f 51 27 64 
f 46 51 64 
f 17 33 65 
f 33 22 65 
f 36 17 65 
f 22 55 65 
f 55 36 65 
f 47 26 66 
f 23 47 66 
f 54 12 66 
f 26 54 66 
f 12 59 66 
f 59 23 66 
f 34 49 67 
f 49 10 67 
f 43 25 68 
f 45 19 68 
f 25 45 68 
f 19 56 68 
f 56 43 68 
f 52 31 69 
f 10 52 69 
f 31 62 69 
f 62 35 69 
f 35 67 69 
f 67 10 69 
f 37 21 70 
f 24 37 70 
f 44 24 70 
f 21 57 70 
f 57 44 70 
f 30 16 71 
f 16 34 71 
f 35 30 71 
f 34 67 71 
f 67 35 71 
f 40 13 72 
f 29 41 72 
f 61 40 72 
f 28 61 72 
f 13 63 72 
f 63 29 72 
f 19 28 73 
f 56 19 73 
f 41 56 73 
f 28 72 73 
o convex_2
v 0.012910 0.002197 0.061692
v 0.013645 0.027116 0.058030
v 0.013645 0.027116 0.057298
v 0.026833 0.013193 0.059496
v 0.014374 0.018317 0.070485
v 0.003380 0.011727 0.050702
v 0.023901 0.010261 0.050702
v 0.002649 0.015386 0.064624
v 0.019504 0.024184 0.050702
v 0.021701 0.023450 0.063890
v 0.005581 0.021984 0.050702
v 0.018769 0.008797 0.069021
v 0.018769 0.002931 0.055100
v 0.006315 0.008063 0.066822
v 0.007049 0.024184 0.063158
v 0.007049 0.005863 0.050702
v 0.003380 0.007331 0.060228
v 0.021701 0.004397 0.061692
v 0.023167 0.016117 0.067555
v 0.025367 0.019052 0.053634
v 0.001914 0.018317 0.058030
v 0.012176 0.024184 0.066822
v 0.008515 0.017586 0.069753
v 0.013645 0.003663 0.050702
v 0.012176 0.007331 0.069021
v 0.023901 0.009527 0.065356
v 0.023901 0.005863 0.056564
v 0.025367 0.020515 0.060228
v 0.008515 0.002931 0.059496
v 0.022433 0.024184 0.056564
v 0.001914 0.010261 0.056564
v 0.008515 0.024184 0.050702
v 0.018769 0.005129 0.066088
v 0.019504 0.021984 0.067555
v 0.007049 0.024916 0.055832
v 0.016572 0.026379 0.062424
v 0.004846 0.021984 0.063890
v 0.010710 0.012458 0.070485
v 0.018035 0.016117 0.070485
v 0.021701 0.006597 0.050702
v 0.024633 0.017586 0.050702
v 0.012176 0.003663 0.065356
v 0.026833 0.013927 0.055832
v 0.001914 0.016854 0.054366
v 0.001914 0.011727 0.062424
v 0.012176 0.002197 0.055832
v 0.009978 0.026379 0.060960
v 0.004846 0.013193 0.067555
v 0.025367 0.016117 0.064624
v 0.006315 0.004397 0.055100
v 0.004846 0.006597 0.063890
v 0.002649 0.020515 0.059496
v 0.017303 0.026379 0.055100
v 0.025367 0.009527 0.062424
v 0.005581 0.019786 0.066822
v 0.018035 0.002931 0.062424
v 0.023901 0.020515 0.064624
v 0.011444 0.026379 0.054366
v 0.025367 0.008797 0.055100
v 0.015103 0.010992 0.070485
v 0.003380 0.008063 0.054366
v 0.008515 0.021984 0.067555
f 110 128 135 
f 80 79 82 
f 82 79 84 
f 79 80 89 
f 89 80 97 
f 92 85 99 
f 91 86 100 
f 93 82 103 
f 83 101 103 
f 101 93 103 
f 82 84 105 
f 85 98 106 
f 91 99 106 
f 99 85 106 
f 95 78 107 
f 105 84 108 
f 83 103 109 
f 107 83 109 
f 95 107 109 
f 78 96 111 
f 87 98 111 
f 85 92 112 
f 92 107 112 
f 107 78 112 
f 78 111 112 
f 86 97 113 
f 97 80 113 
f 100 86 113 
f 80 82 114 
f 82 93 114 
f 98 87 115 
f 102 74 115 
f 106 98 115 
f 101 77 116 
f 93 101 116 
f 80 114 116 
f 114 93 116 
f 84 79 117 
f 79 104 117 
f 104 94 117 
f 81 94 118 
f 104 90 118 
f 94 104 118 
f 86 74 119 
f 97 86 119 
f 74 102 119 
f 75 76 120 
f 88 95 120 
f 108 88 120 
f 109 75 120 
f 95 109 120 
f 111 96 121 
f 87 111 121 
f 81 118 121 
f 92 99 122 
f 77 101 122 
f 89 97 123 
f 102 90 123 
f 97 119 123 
f 119 102 123 
f 90 102 124 
f 115 87 124 
f 102 115 124 
f 118 90 124 
f 87 121 124 
f 121 118 124 
f 94 81 125 
f 88 108 125 
f 108 84 125 
f 81 110 125 
f 110 88 125 
f 84 117 125 
f 117 94 125 
f 76 75 126 
f 103 82 126 
f 75 109 126 
f 109 103 126 
f 99 91 127 
f 91 100 127 
f 77 122 127 
f 122 99 127 
f 110 81 128 
f 81 121 128 
f 121 96 128 
f 74 86 129 
f 86 91 129 
f 91 106 129 
f 115 74 129 
f 106 115 129 
f 101 83 130 
f 83 107 130 
f 107 92 130 
f 92 122 130 
f 122 101 130 
f 82 105 131 
f 105 108 131 
f 120 76 131 
f 108 120 131 
f 76 126 131 
f 126 82 131 
f 113 80 132 
f 100 113 132 
f 116 77 132 
f 80 116 132 
f 77 127 132 
f 127 100 132 
f 98 85 133 
f 111 98 133 
f 85 112 133 
f 112 111 133 
f 79 89 134 
f 104 79 134 
f 90 104 134 
f 89 123 134 
f 123 90 134 
f 78 95 135 
f 95 88 135 
f 96 78 135 
f 88 110 135 
f 128 96 135 
o convex_3
v 0.032697 -0.007322 -0.036517
v 0.032697 -0.033716 0.021381
v 0.032697 -0.032979 0.018444
v 0.041492 -0.014656 0.023577
v 0.032697 0.024184 0.026514
v 0.041492 0.023447 0.025780
v 0.033430 0.001463 -0.032852
v 0.033430 -0.019054 -0.024054
v 0.032697 -0.031517 0.026514
v 0.040758 -0.006597 0.012583
v 0.038559 -0.024920 0.022115
v 0.032697 0.009522 -0.018192
v 0.041492 -0.013188 0.026514
v 0.033430 -0.007322 -0.036517
v 0.036361 -0.012457 -0.015255
v 0.033430 -0.002941 -0.036517
v 0.041492 -0.002935 0.017716
v 0.033430 -0.028581 0.003056
v 0.038559 0.024184 0.026514
v 0.039293 -0.017586 0.011120
v 0.032697 -0.019054 -0.024054
v 0.034163 -0.032979 0.024311
v 0.033430 -0.014650 -0.031383
v 0.039293 -0.021984 0.025780
v 0.041492 -0.012457 0.019912
v 0.033430 0.009522 -0.018192
v 0.038559 0.024184 0.025780
v 0.032697 0.002194 -0.032117
v 0.033430 -0.024183 -0.010856
v 0.041492 0.023447 0.026514
v 0.037094 -0.003678 -0.012325
v 0.032697 0.024184 0.025780
f 162 147 167 
f 138 137 136 
f 136 137 140 
f 140 137 144 
f 136 140 147 
f 139 141 148 
f 140 144 148 
f 149 145 150 
f 142 141 151 
f 149 136 151 
f 141 139 152 
f 137 138 153 
f 140 148 154 
f 146 143 155 
f 139 146 155 
f 138 136 156 
f 144 137 157 
f 137 153 157 
f 153 146 157 
f 136 149 158 
f 149 150 158 
f 155 143 158 
f 150 155 158 
f 156 136 158 
f 143 156 158 
f 146 139 159 
f 139 148 159 
f 148 144 159 
f 144 157 159 
f 157 146 159 
f 150 145 160 
f 152 139 160 
f 145 152 160 
f 139 155 160 
f 155 150 160 
f 141 142 161 
f 140 154 162 
f 154 141 162 
f 141 161 162 
f 161 147 162 
f 136 147 163 
f 142 151 163 
f 151 136 163 
f 161 142 163 
f 147 161 163 
f 143 146 164 
f 153 138 164 
f 146 153 164 
f 138 156 164 
f 156 143 164 
f 148 141 165 
f 141 154 165 
f 154 148 165 
f 145 149 166 
f 151 141 166 
f 149 151 166 
f 141 152 166 
f 152 145 166 
f 147 140 167 
f 140 162 167 
o convex_4
v -0.025206 -0.035185 -0.043843
v -0.005415 -0.046906 0.025775
v -0.042056 -0.021995 0.026514
v -0.005415 -0.021995 -0.045306
v -0.034729 -0.042510 0.024312
v -0.038390 -0.021995 -0.040178
v -0.005415 -0.043239 -0.040909
v -0.005415 -0.037382 0.018446
v -0.017875 -0.051301 0.023581
v -0.005415 -0.021995 -0.026250
v -0.048654 -0.022724 0.023581
v -0.027403 -0.036650 -0.038715
v -0.005415 -0.052772 0.025044
v -0.041324 -0.035914 0.022110
v -0.032533 -0.021995 0.020647
v -0.014946 -0.042507 -0.039446
v -0.025206 -0.048373 0.025775
v -0.031068 -0.021995 -0.046044
v -0.005415 -0.036650 -0.046044
v -0.036194 -0.026388 -0.040909
v -0.025206 -0.048373 0.021379
v -0.009080 -0.049837 0.002323
v -0.040591 -0.034450 0.026514
v -0.044989 -0.030054 0.019916
v -0.009084 -0.049105 0.026514
v -0.033265 -0.030786 -0.040178
v -0.014946 -0.038111 -0.045306
v -0.020808 -0.040310 -0.039446
v -0.005415 -0.038843 0.020647
v -0.048654 -0.021995 0.025044
v -0.039859 -0.022724 -0.032841
v -0.033265 -0.042510 0.016244
v -0.033265 -0.036650 -0.013792
v -0.032533 -0.027123 -0.044574
v -0.012746 -0.052037 0.020647
v -0.005415 -0.024191 -0.046044
v -0.039127 -0.031522 -0.007940
v -0.011281 -0.043974 -0.035050
v -0.047922 -0.022724 0.016244
v -0.005415 -0.052034 0.016244
v -0.028135 -0.042510 -0.003536
v -0.020072 -0.046173 -0.005738
v -0.022273 -0.031522 -0.046044
v -0.011281 -0.041042 -0.043843
v -0.046453 -0.027123 0.025775
v -0.028135 -0.045441 0.026514
v -0.020808 -0.038111 -0.043843
v -0.042056 -0.026388 -0.009403
v -0.015679 -0.051301 0.025775
v -0.036194 -0.022724 -0.043843
v -0.047186 -0.021995 0.026514
v -0.006151 -0.043974 -0.037237
v -0.014946 -0.048373 -0.001342
v -0.025938 -0.032254 -0.045306
v -0.027403 -0.035182 -0.042380
v -0.041324 -0.035182 0.025775
v -0.039127 -0.038111 0.021379
v -0.005415 -0.040307 -0.044574
f 211 194 225 
f 170 171 173 
f 171 169 174 
f 169 171 175 
f 171 170 177 
f 175 171 177 
f 174 169 180 
f 177 170 182 
f 175 177 182 
f 173 171 185 
f 171 174 186 
f 184 172 188 
f 176 184 188 
f 169 170 192 
f 180 169 192 
f 170 190 192 
f 170 169 196 
f 169 175 196 
f 182 170 196 
f 175 182 196 
f 170 173 197 
f 173 187 198 
f 188 172 199 
f 193 179 200 
f 181 193 200 
f 179 199 200 
f 193 187 201 
f 180 176 202 
f 185 171 203 
f 171 186 203 
f 186 185 203 
f 181 191 204 
f 193 181 204 
f 187 193 204 
f 183 174 205 
f 189 202 205 
f 191 178 206 
f 197 173 206 
f 178 197 206 
f 173 198 206 
f 174 180 207 
f 180 202 207 
f 202 189 207 
f 179 195 208 
f 195 188 208 
f 188 199 208 
f 199 179 208 
f 176 188 209 
f 188 195 209 
f 195 183 209 
f 185 186 210 
f 186 194 210 
f 174 183 211 
f 178 191 212 
f 191 181 212 
f 197 178 212 
f 172 184 213 
f 192 190 213 
f 183 195 214 
f 211 183 214 
f 194 211 214 
f 198 187 215 
f 204 191 215 
f 187 204 215 
f 191 206 215 
f 206 198 215 
f 176 180 216 
f 184 176 216 
f 180 192 216 
f 213 184 216 
f 192 213 216 
f 173 185 217 
f 187 173 217 
f 185 201 217 
f 201 187 217 
f 190 170 218 
f 170 197 218 
f 212 190 218 
f 197 212 218 
f 205 174 219 
f 189 205 219 
f 174 207 219 
f 207 189 219 
f 202 176 220 
f 183 205 220 
f 205 202 220 
f 176 209 220 
f 209 183 220 
f 201 185 221 
f 168 201 221 
f 185 210 221 
f 210 194 221 
f 214 168 221 
f 194 214 221 
f 179 193 222 
f 195 179 222 
f 201 168 222 
f 193 201 222 
f 168 214 222 
f 214 195 222 
f 181 172 223 
f 190 212 223 
f 212 181 223 
f 172 213 223 
f 213 190 223 
f 172 181 224 
f 199 172 224 
f 181 200 224 
f 200 199 224 
f 186 174 225 
f 194 186 225 
f 174 211 225 
o convex_5
v 0.005579 -0.042508 -0.038715
v 0.032697 -0.026389 0.026514
v 0.032697 -0.032252 0.026514
v -0.005415 -0.052034 0.025775
v -0.005415 -0.025657 -0.026250
v 0.026097 -0.025657 -0.042380
v 0.020233 -0.046173 0.022849
v -0.005415 -0.038115 0.019916
v -0.005415 -0.038848 -0.045306
v -0.005415 -0.025657 -0.046044
v 0.019502 -0.025657 0.019177
v 0.019502 -0.035185 -0.040178
v 0.032697 -0.034450 0.020647
v 0.004848 -0.052034 0.025044
v -0.005415 -0.043973 -0.037237
v 0.032697 -0.025657 -0.008664
v 0.016569 -0.032252 -0.045306
v -0.003214 -0.052769 0.020647
v -0.005415 -0.046906 0.025775
v 0.026828 -0.027854 -0.037237
v 0.010712 -0.043241 -0.024055
v 0.011444 -0.049839 0.019177
v 0.029764 -0.038115 0.021379
v 0.020968 -0.044706 0.026514
v 0.018770 -0.025657 -0.046044
v 0.004848 -0.041043 -0.043111
v 0.031231 -0.025657 0.025775
v 0.004113 -0.048371 -0.003536
v 0.012179 -0.040310 -0.037969
v -0.000281 -0.043241 -0.040909
v -0.005415 -0.037383 0.018446
v 0.001916 -0.036650 -0.046044
v -0.001748 -0.050569 0.026514
v 0.023900 -0.031520 -0.037969
v 0.022434 -0.041775 0.005988
v 0.016569 -0.035918 -0.043111
v -0.005415 -0.052769 0.021379
v 0.030496 -0.037380 0.025044
v 0.028298 -0.026389 -0.035050
v 0.016569 -0.043241 -0.007201
v 0.013641 -0.049104 0.025775
v 0.023900 -0.027854 -0.043843
v 0.025366 -0.036650 -0.007201
v 0.004848 -0.052034 0.022849
v 0.026097 -0.041775 0.022849
v 0.018039 -0.036650 -0.038715
v 0.009978 -0.038848 -0.043843
v -0.005415 -0.042508 -0.042380
v 0.020968 -0.025657 0.020647
v 0.032697 -0.028587 -0.001349
v 0.003382 -0.038848 -0.045306
v 0.004113 -0.051301 0.026514
v -0.005415 -0.038848 0.020647
v 0.007045 -0.043241 -0.032117
f 254 246 279 
f 230 229 233 
f 229 230 234 
f 230 231 235 
f 234 230 235 
f 231 230 236 
f 227 228 238 
f 229 234 240 
f 231 236 241 
f 227 238 241 
f 233 229 244 
f 228 227 249 
f 235 231 250 
f 227 241 252 
f 241 236 252 
f 244 227 252 
f 243 240 255 
f 251 226 255 
f 226 253 255 
f 253 243 255 
f 230 233 256 
f 236 230 256 
f 234 235 257 
f 235 250 257 
f 250 242 257 
f 227 244 258 
f 244 229 258 
f 249 227 258 
f 245 238 259 
f 238 248 259 
f 239 229 262 
f 229 240 262 
f 243 239 262 
f 240 243 262 
f 238 228 263 
f 248 238 263 
f 228 249 263 
f 231 241 264 
f 245 231 264 
f 238 245 264 
f 232 247 265 
f 247 246 265 
f 246 254 265 
f 260 232 265 
f 239 247 266 
f 247 232 266 
f 232 249 266 
f 231 245 267 
f 250 231 267 
f 242 250 267 
f 259 237 267 
f 245 259 267 
f 237 261 267 
f 261 242 267 
f 237 259 268 
f 259 248 268 
f 260 237 268 
f 239 243 269 
f 247 239 269 
f 243 253 269 
f 253 247 269 
f 249 232 270 
f 232 260 270 
f 248 263 270 
f 263 249 270 
f 268 248 270 
f 260 268 270 
f 237 260 271 
f 261 237 271 
f 254 261 271 
f 265 254 271 
f 260 265 271 
f 226 251 272 
f 254 226 272 
f 242 261 272 
f 261 254 272 
f 240 234 273 
f 255 240 273 
f 251 255 273 
f 233 252 274 
f 252 236 274 
f 256 233 274 
f 236 256 274 
f 241 238 275 
f 264 241 275 
f 238 264 275 
f 234 257 276 
f 257 242 276 
f 272 251 276 
f 242 272 276 
f 273 234 276 
f 251 273 276 
f 229 239 277 
f 258 229 277 
f 249 258 277 
f 239 266 277 
f 266 249 277 
f 233 244 278 
f 252 233 278 
f 244 252 278 
f 246 247 279 
f 253 226 279 
f 247 253 279 
f 226 254 279 
o convex_6
v -0.044256 -0.011731 -0.024780
v -0.025206 -0.021255 -0.005007
v -0.027404 -0.021255 0.003055
v -0.025206 -0.005132 -0.014524
v -0.050852 -0.005132 0.026514
v -0.048654 -0.021989 0.025775
v -0.031802 -0.021989 -0.046044
v -0.039127 -0.005132 -0.044574
v -0.025206 -0.005132 -0.046044
v -0.036198 -0.005132 0.019916
v -0.039127 -0.021989 -0.039446
v -0.031802 -0.021989 0.019177
v -0.025206 -0.021989 -0.046044
v -0.050852 -0.014660 0.020647
v -0.042058 -0.005132 -0.040178
v -0.042058 -0.020522 0.026514
v -0.051588 -0.005132 0.022110
v -0.044989 -0.005132 0.026514
v -0.040594 -0.015391 -0.041641
v -0.047921 -0.021989 0.014774
v -0.041325 -0.016858 -0.037237
v -0.035467 -0.005132 -0.046044
v -0.042792 -0.008799 -0.036513
v -0.036931 -0.019057 -0.044574
v -0.025206 -0.021989 -0.005007
v -0.033267 -0.020522 0.020647
v -0.050852 -0.011731 0.026514
v -0.031802 -0.021255 0.019177
v -0.051588 -0.008799 0.022110
v -0.039127 -0.012462 -0.044574
v -0.042058 -0.021989 0.026514
v -0.050852 -0.016123 0.024312
f 306 308 311 
f 282 281 283 
f 284 283 287 
f 283 281 288 
f 287 283 288 
f 283 284 289 
f 286 285 290 
f 285 286 291 
f 288 281 292 
f 286 288 292 
f 291 286 292 
f 284 287 294 
f 284 294 296 
f 289 284 297 
f 284 295 297 
f 290 285 299 
f 293 280 300 
f 298 290 300 
f 290 299 300 
f 299 293 300 
f 288 286 301 
f 287 288 301 
f 280 293 302 
f 296 294 302 
f 294 298 302 
f 300 280 302 
f 298 300 302 
f 286 290 303 
f 290 298 303 
f 281 282 304 
f 282 291 304 
f 292 281 304 
f 291 292 304 
f 289 297 305 
f 297 295 305 
f 295 284 306 
f 284 296 306 
f 282 283 307 
f 283 289 307 
f 291 282 307 
f 289 305 307 
f 305 291 307 
f 302 293 308 
f 296 302 308 
f 306 296 308 
f 294 287 309 
f 298 294 309 
f 301 286 309 
f 287 301 309 
f 286 303 309 
f 303 298 309 
f 285 291 310 
f 291 305 310 
f 305 295 310 
f 306 285 310 
f 295 306 310 
f 299 285 311 
f 293 299 311 
f 285 306 311 
f 308 293 311 
o convex_7
v -0.041327 0.023447 0.026514
v -0.035467 -0.005132 -0.046044
v -0.025206 -0.005132 -0.046044
v -0.044989 -0.005132 0.026514
v -0.025203 0.035909 0.025775
v -0.025937 0.024182 -0.042380
v -0.025206 -0.000729 0.003786
v -0.041327 0.003666 -0.038715
v -0.051586 -0.005132 0.022110
v -0.045723 0.016851 0.020647
v -0.036201 -0.005132 0.019909
v -0.036201 0.014657 -0.040178
v -0.025206 0.017586 0.022110
v -0.036201 0.028578 0.019177
v -0.041327 -0.005132 -0.042380
v -0.049388 0.009531 0.025044
v -0.025206 0.019783 -0.045306
v -0.025206 -0.005132 -0.014524
v -0.025203 0.027846 0.026514
v -0.036931 0.007334 -0.044574
v -0.031066 0.032973 0.021379
v -0.029602 0.022716 -0.038715
v -0.041327 0.024178 0.024312
v -0.051586 0.000002 0.025044
v -0.039863 0.008796 -0.037237
v -0.025937 0.029313 -0.017450
v -0.042061 -0.002927 -0.040178
v -0.050852 -0.005132 0.026514
v -0.048654 0.008065 0.015512
v -0.033267 0.019048 -0.038715
v -0.049388 -0.000729 0.008190
v -0.025203 0.025649 -0.037976
v -0.028871 0.013926 -0.046044
v -0.031066 0.018317 -0.043843
v -0.031066 0.032973 0.026514
v -0.025937 0.035909 0.022103
v -0.043525 0.017586 0.009646
v -0.050121 0.005132 0.019909
v -0.047187 0.014657 0.022849
v -0.050121 0.005132 0.026514
v -0.039863 0.004397 -0.042380
v -0.037665 0.000002 -0.045306
v -0.025937 0.025649 -0.037976
v -0.037665 -0.005132 0.021379
v -0.044989 0.019048 0.025775
v -0.032533 0.027846 -0.000617
v -0.036201 0.029313 0.025775
v -0.036931 0.010993 -0.043111
v -0.036201 0.023447 -0.005014
v -0.042792 -0.005132 -0.035774
f 342 338 361 
f 313 314 315 
f 313 315 320 
f 315 314 322 
f 322 318 324 
f 313 320 326 
f 322 314 329 
f 318 322 329 
f 312 315 330 
f 324 318 330 
f 318 329 330 
f 315 312 339 
f 320 315 339 
f 335 320 339 
f 336 319 340 
f 320 335 342 
f 319 338 342 
f 314 328 343 
f 328 317 343 
f 329 314 343 
f 316 330 343 
f 330 329 343 
f 314 313 344 
f 328 314 344 
f 344 331 345 
f 317 328 345 
f 333 317 345 
f 323 341 345 
f 341 333 345 
f 328 344 345 
f 312 330 346 
f 330 316 346 
f 337 332 347 
f 316 343 347 
f 343 337 347 
f 346 316 347 
f 332 346 347 
f 321 334 348 
f 323 336 348 
f 341 323 348 
f 334 341 348 
f 335 327 349 
f 327 340 349 
f 340 319 349 
f 342 335 349 
f 319 342 349 
f 340 327 350 
f 336 340 350 
f 321 348 350 
f 348 336 350 
f 327 335 351 
f 339 312 351 
f 335 339 351 
f 319 336 352 
f 326 338 352 
f 338 319 352 
f 313 326 353 
f 344 313 353 
f 331 344 353 
f 352 331 353 
f 326 352 353 
f 317 333 354 
f 332 337 354 
f 343 317 354 
f 337 343 354 
f 315 322 355 
f 322 324 355 
f 330 315 355 
f 324 330 355 
f 334 321 356 
f 312 334 356 
f 350 327 356 
f 321 350 356 
f 351 312 356 
f 327 351 356 
f 325 332 357 
f 333 325 357 
f 332 354 357 
f 354 333 357 
f 332 325 358 
f 334 312 358 
f 325 334 358 
f 312 346 358 
f 346 332 358 
f 336 323 359 
f 345 331 359 
f 323 345 359 
f 331 352 359 
f 352 336 359 
f 325 333 360 
f 334 325 360 
f 333 341 360 
f 341 334 360 
f 326 320 361 
f 338 326 361 
f 320 342 361 
o convex_8
v 0.017305 0.035172 0.026514
v -0.005413 -0.009528 0.025780
v -0.005413 -0.009528 0.026514
v 0.017303 -0.024921 0.025780
v -0.005413 0.038833 0.011123
v 0.017303 0.002197 0.011123
v -0.005413 0.041041 0.026514
v 0.017305 0.033706 0.011123
v -0.005413 0.022710 0.011123
v 0.003382 -0.022719 0.025780
v 0.008508 0.039569 0.025780
v 0.017303 -0.024921 0.026514
v 0.015104 -0.022719 0.022848
v 0.001183 0.038833 0.011123
v 0.016569 0.002197 0.011123
v 0.010708 0.036631 0.011123
v 0.003382 -0.022719 0.026514
v 0.017305 0.035172 0.019917
v -0.000282 0.040298 0.019917
v 0.017303 -0.022719 0.022848
f 374 367 381 
f 363 364 366 
f 364 362 368 
f 366 364 368 
f 367 366 369 
f 363 366 370 
f 366 367 370 
f 364 363 371 
f 363 370 371 
f 368 362 372 
f 362 364 373 
f 369 362 373 
f 365 369 373 
f 371 365 373 
f 365 371 374 
f 369 366 375 
f 370 367 376 
f 371 370 376 
f 367 374 376 
f 374 371 376 
f 369 375 377 
f 375 372 377 
f 364 371 378 
f 373 364 378 
f 371 373 378 
f 362 369 379 
f 372 362 379 
f 369 377 379 
f 377 372 379 
f 366 368 380 
f 368 372 380 
f 375 366 380 
f 372 375 380 
f 369 365 381 
f 367 369 381 
f 365 374 381 
o convex_9
v 0.023169 0.030045 0.011856
v 0.017306 -0.024916 0.025780
v 0.018039 -0.025654 0.011123
v 0.032697 -0.025654 0.025780
v 0.017306 0.035178 0.026514
v 0.032697 0.019785 0.011123
v 0.032697 0.024180 0.026514
v 0.032697 -0.025654 0.011123
v 0.017306 0.032969 0.011123
v 0.017306 -0.024916 0.026514
v 0.032697 -0.020521 0.026514
v 0.023903 0.032242 0.025780
v 0.017306 0.001469 0.011123
v 0.018039 0.035178 0.022115
v 0.026833 0.027115 0.013324
v 0.020973 -0.025654 0.020650
f 385 391 397 
f 385 387 388 
f 385 384 389 
f 384 387 389 
f 387 385 389 
f 383 386 390 
f 382 387 390 
f 387 384 390 
f 383 384 391 
f 386 383 391 
f 388 386 391 
f 388 391 392 
f 385 388 392 
f 391 385 392 
f 386 388 393 
f 384 383 394 
f 390 384 394 
f 383 390 394 
f 382 390 395 
f 390 386 395 
f 393 382 395 
f 386 393 395 
f 387 382 396 
f 388 387 396 
f 382 393 396 
f 393 388 396 
f 384 385 397 
f 391 384 397 
o convex_10
v -0.020072 0.021245 -0.046044
v -0.005415 0.037376 0.004527
v -0.005415 0.037376 0.000126
v -0.005415 -0.021989 -0.045307
v -0.025203 -0.021989 -0.007200
v -0.025203 0.032972 0.004527
v -0.005415 -0.012459 0.003789
v -0.025203 -0.021989 -0.046044
v -0.005415 0.030043 -0.043109
v -0.025203 0.024912 -0.041644
v -0.025203 -0.001465 0.003789
v -0.006881 -0.020519 -0.012334
v -0.015675 0.030037 -0.039446
v -0.012012 -0.013918 0.004527
v -0.005415 0.024912 -0.046044
v -0.016407 0.036633 0.003789
v -0.025203 0.017584 -0.046044
v -0.005415 -0.021989 -0.024783
v -0.007615 0.031507 -0.040178
v -0.009082 -0.015388 0.003789
v -0.023003 0.034442 0.003789
v -0.012744 -0.021989 -0.046044
v -0.015675 0.027840 -0.043842
v -0.021539 0.027840 -0.039446
v -0.009082 0.037376 0.000126
v -0.025203 0.012447 0.004527
v -0.006881 -0.011727 0.004527
v -0.012744 0.033710 -0.021125
v -0.025203 0.029311 -0.019660
v -0.022271 0.022715 -0.045307
v -0.009082 0.027108 -0.045307
v -0.018606 0.032239 -0.020393
v -0.005415 0.031507 -0.039446
v -0.005415 0.012459 -0.046044
v -0.005415 -0.019055 -0.011601
f 404 417 432 
f 400 399 401 
f 401 399 404 
f 401 402 405 
f 402 403 405 
f 400 401 406 
f 405 403 407 
f 403 402 408 
f 399 403 411 
f 408 402 411 
f 405 398 412 
f 406 401 412 
f 403 399 413 
f 398 405 414 
f 405 407 414 
f 402 401 415 
f 401 404 415 
f 409 402 415 
f 402 409 417 
f 411 402 417 
f 403 413 418 
f 401 405 419 
f 405 412 419 
f 416 406 420 
f 410 416 420 
f 420 407 421 
f 410 420 421 
f 399 400 422 
f 413 399 422 
f 400 416 422 
f 403 408 423 
f 411 403 423 
f 408 411 423 
f 404 399 424 
f 399 411 424 
f 417 404 424 
f 411 417 424 
f 416 410 425 
f 413 422 425 
f 422 416 425 
f 407 403 426 
f 403 418 426 
f 421 407 426 
f 418 421 426 
f 398 414 427 
f 414 407 427 
f 407 420 427 
f 427 420 428 
f 412 398 428 
f 406 412 428 
f 420 406 428 
f 398 427 428 
f 418 413 429 
f 421 418 429 
f 410 421 429 
f 425 410 429 
f 413 425 429 
f 400 406 430 
f 416 400 430 
f 406 416 430 
f 412 401 431 
f 401 419 431 
f 419 412 431 
f 415 404 432 
f 409 415 432 
f 417 409 432 
o convex_11
v -0.013479 0.038107 0.009657
v -0.025201 0.013190 0.004527
v -0.024467 0.013190 0.004527
v -0.024467 0.016123 0.013321
v -0.005417 0.021989 0.013321
v -0.005417 0.038107 0.004527
v -0.025201 0.032974 0.004527
v -0.025201 0.034443 0.013321
v -0.005417 0.021989 0.004527
v -0.005417 0.038842 0.013321
v -0.017139 0.036643 0.005260
v -0.025201 0.015390 0.012588
v -0.015675 0.038107 0.013321
v -0.023001 0.035174 0.008191
v -0.024467 0.013190 0.005993
f 437 444 447 
f 435 434 438 
f 438 434 439 
f 436 437 440 
f 439 434 440 
f 437 435 441 
f 435 438 441 
f 438 437 441 
f 437 438 442 
f 438 433 442 
f 440 437 442 
f 433 438 443 
f 438 439 443 
f 437 436 444 
f 440 434 444 
f 436 440 444 
f 442 433 445 
f 440 442 445 
f 433 443 445 
f 445 443 446 
f 439 440 446 
f 443 439 446 
f 440 445 446 
f 434 435 447 
f 435 437 447 
f 444 434 447 
o convex_12
v -0.005415 -0.008064 0.026513
v -0.022272 0.014654 0.025780
v -0.006882 -0.007330 0.025780
v -0.005415 0.016122 0.018453
v -0.005415 0.016122 0.026513
v -0.022272 0.016122 0.026513
v -0.006882 0.015388 0.018453
f 453 451 454 
f 448 449 450 
f 448 450 451 
f 448 451 452 
f 449 448 453 
f 448 452 453 
f 452 451 453 
f 450 449 454 
f 451 450 454 
f 449 453 454 
o convex_13
v -0.020803 0.038109 0.025780
v -0.025201 0.016122 0.013321
v -0.024467 0.016122 0.013321
v -0.023001 0.016122 0.026514
v -0.005417 0.021254 0.013321
v -0.005417 0.016122 0.026514
v -0.005417 0.038841 0.013321
v -0.005417 0.041041 0.026514
v -0.025201 0.034440 0.013321
v -0.025201 0.035906 0.026514
v -0.005417 0.016122 0.017721
v -0.016407 0.038109 0.013321
v -0.012013 0.041041 0.025780
v -0.025201 0.017588 0.022114
v -0.024467 0.036641 0.021383
v -0.024467 0.017588 0.026514
v -0.006151 0.039575 0.014790
f 466 467 471 
f 456 457 458 
f 457 456 459 
f 458 457 460 
f 459 456 461 
f 460 459 461 
f 458 460 462 
f 460 461 462 
f 461 456 463 
f 458 462 464 
f 463 456 464 
f 457 459 465 
f 460 457 465 
f 459 460 465 
f 461 463 466 
f 455 464 467 
f 464 462 467 
f 456 458 468 
f 464 456 468 
f 464 455 469 
f 463 464 469 
f 466 463 469 
f 455 467 469 
f 467 466 469 
f 458 464 470 
f 468 458 470 
f 464 468 470 
f 462 461 471 
f 461 466 471 
f 467 462 471 
o convex_14
v -0.001750 0.027107 -0.045305
v 0.002646 0.035905 -0.006475
v -0.005414 0.035905 -0.006475
v 0.006311 -0.025654 -0.022596
v -0.005414 -0.025642 -0.046040
v 0.006311 0.022714 -0.046040
v -0.005414 -0.018315 -0.011603
v 0.006311 -0.025654 -0.046040
v 0.006311 0.011717 -0.006475
v -0.005414 0.030042 -0.043108
v 0.006311 0.035175 -0.007207
v 0.006311 0.030042 -0.039444
v -0.005414 -0.002196 -0.006475
v 0.004845 -0.010252 -0.011603
v -0.005414 -0.025642 -0.026256
v -0.005414 0.024908 -0.046040
v -0.000284 0.031506 -0.038712
v -0.001016 -0.001461 -0.006475
v -0.005414 0.033705 -0.025524
v 0.006311 0.027842 -0.043840
v 0.000449 0.035905 -0.009403
v -0.001750 -0.016115 -0.011603
v 0.003379 0.031506 -0.035780
v 0.005578 -0.010258 -0.012335
v 0.001913 0.030042 -0.042376
v -0.005414 0.031506 -0.039444
v 0.006311 0.035175 -0.006475
f 480 482 498 
f 474 476 478 
f 475 476 479 
f 477 475 479 
f 476 477 479 
f 473 474 480 
f 475 477 480 
f 476 474 481 
f 480 477 482 
f 482 477 483 
f 474 478 484 
f 480 474 484 
f 476 475 486 
f 475 478 486 
f 478 476 486 
f 472 477 487 
f 477 476 487 
f 481 472 487 
f 476 481 487 
f 484 478 489 
f 480 484 489 
f 485 480 489 
f 481 474 490 
f 477 472 491 
f 483 477 491 
f 474 473 492 
f 473 482 492 
f 490 474 492 
f 488 490 492 
f 478 475 493 
f 475 485 493 
f 489 478 493 
f 485 489 493 
f 482 483 494 
f 483 488 494 
f 492 482 494 
f 488 492 494 
f 475 480 495 
f 480 485 495 
f 485 475 495 
f 472 481 496 
f 488 483 496 
f 491 472 496 
f 483 491 496 
f 481 490 497 
f 490 488 497 
f 496 481 497 
f 488 496 497 
f 473 480 498 
f 482 473 498 
o convex_15
v 0.021700 -0.021988 -0.046044
v 0.032697 -0.007331 0.011123
v 0.024631 -0.007331 0.011123
v 0.032697 -0.025654 0.011123
v 0.006312 -0.025654 -0.021121
v 0.006312 -0.007331 -0.045306
v 0.032697 -0.007331 -0.040907
v 0.027562 -0.025654 -0.040180
v 0.006312 -0.025654 -0.046044
v 0.017309 -0.025654 0.010390
v 0.006312 -0.007331 -0.024786
v 0.032697 -0.024187 -0.015267
v 0.026098 -0.007331 -0.046044
v 0.029763 -0.019789 -0.042379
v 0.022433 -0.025654 -0.045306
v 0.032697 -0.016127 -0.034315
v 0.029763 -0.011729 -0.044578
v 0.017309 -0.024920 0.010390
v 0.018040 -0.025654 0.011123
v 0.013644 -0.007331 -0.046044
v 0.032697 -0.025654 -0.010869
v 0.029763 -0.021988 -0.039447
v 0.026098 -0.019789 -0.045306
v 0.031230 -0.014663 -0.042379
f 512 515 522 
f 500 501 502 
f 501 500 504 
f 500 502 505 
f 504 500 505 
f 502 503 506 
f 506 503 507 
f 503 504 507 
f 503 502 508 
f 501 504 509 
f 504 503 509 
f 505 502 510 
f 504 505 511 
f 499 507 511 
f 506 507 513 
f 507 499 513 
f 512 506 513 
f 505 510 514 
f 511 505 515 
f 503 508 516 
f 509 503 516 
f 501 509 516 
f 502 501 517 
f 508 502 517 
f 501 516 517 
f 516 508 517 
f 507 504 518 
f 504 511 518 
f 511 507 518 
f 502 506 519 
f 510 502 519 
f 510 519 520 
f 506 512 520 
f 514 510 520 
f 512 514 520 
f 519 506 520 
f 499 511 521 
f 512 513 521 
f 513 499 521 
f 511 515 521 
f 515 512 521 
f 505 514 522 
f 514 512 522 
f 515 505 522 
o convex_16
v 0.023167 0.027845 0.000127
v 0.013642 -0.007331 -0.046044
v 0.026831 -0.007331 -0.046044
v 0.024633 -0.007331 0.011123
v 0.006312 0.037376 0.009657
v 0.007045 0.028580 -0.042379
v 0.006312 -0.007331 -0.024047
v 0.032694 0.019053 0.011123
v 0.027565 0.013924 -0.039447
v 0.006312 0.015386 0.011123
v 0.032697 -0.007331 -0.040913
v 0.032697 -0.007331 0.011123
v 0.006312 -0.007331 -0.045306
v 0.006312 0.022712 -0.046044
v 0.015108 0.026379 -0.039447
v 0.019504 0.032243 0.011123
v 0.023903 0.013924 -0.044578
v 0.032694 0.003666 -0.034310
v 0.023167 0.019784 -0.039447
v 0.011444 0.035175 0.003059
v 0.030496 0.002935 -0.043112
v 0.028298 0.024913 0.009657
v 0.006312 0.030046 -0.038714
v 0.032694 0.016117 -0.002811
v 0.018040 0.019049 -0.045306
v 0.007779 0.037376 0.011123
v 0.023167 0.008064 -0.046044
v 0.018773 0.023447 -0.040913
v 0.031230 0.008064 -0.035049
v 0.031230 0.021250 0.008924
v 0.009246 0.029311 -0.038714
v 0.014375 0.023447 -0.044578
v 0.015108 0.034444 0.008924
v 0.008512 0.012463 0.011123
v 0.029029 -0.005126 -0.045306
v 0.025367 0.014655 -0.043112
v 0.031230 0.004397 -0.040913
v 0.020235 0.029311 -0.004271
v 0.027565 0.007329 -0.044578
v 0.023903 -0.006596 0.011123
v 0.026831 0.019784 -0.021121
v 0.007045 0.035175 -0.005738
v 0.023167 0.024913 -0.015267
v 0.006312 0.009526 -0.046044
v 0.032694 0.010261 -0.020387
v 0.006312 0.025644 -0.045306
v 0.014375 0.027845 -0.033582
v 0.025367 0.027845 0.010390
f 544 565 570 
f 524 525 526 
f 524 526 529 
f 527 529 532 
f 526 530 532 
f 526 525 533 
f 530 526 534 
f 526 533 534 
f 533 530 534 
f 524 529 535 
f 529 527 535 
f 525 524 536 
f 535 527 536 
f 532 530 538 
f 536 527 545 
f 530 533 546 
f 527 532 548 
f 532 538 548 
f 525 536 549 
f 536 547 549 
f 547 539 549 
f 544 530 552 
f 530 546 552 
f 537 528 553 
f 528 545 553 
f 528 537 554 
f 537 550 554 
f 548 538 555 
f 542 548 555 
f 526 532 556 
f 532 529 556 
f 533 525 557 
f 543 533 557 
f 525 549 557 
f 541 531 558 
f 539 547 558 
f 550 541 558 
f 547 554 558 
f 554 550 558 
f 540 533 559 
f 533 543 559 
f 531 551 559 
f 551 540 559 
f 558 531 559 
f 543 558 559 
f 550 537 560 
f 555 538 560 
f 549 539 561 
f 543 557 561 
f 557 549 561 
f 539 558 561 
f 558 543 561 
f 529 526 562 
f 526 556 562 
f 556 529 562 
f 531 541 563 
f 541 544 563 
f 546 531 563 
f 544 552 563 
f 552 546 563 
f 545 527 564 
f 527 548 564 
f 548 542 564 
f 542 553 564 
f 553 545 564 
f 544 541 565 
f 541 550 565 
f 560 523 565 
f 550 560 565 
f 524 535 566 
f 536 524 566 
f 535 536 566 
f 533 540 567 
f 546 533 567 
f 531 546 567 
f 551 531 567 
f 540 551 567 
f 536 545 568 
f 545 528 568 
f 547 536 568 
f 528 554 568 
f 554 547 568 
f 537 553 569 
f 553 542 569 
f 542 555 569 
f 560 537 569 
f 555 560 569 
f 538 530 570 
f 530 544 570 
f 523 560 570 
f 560 538 570 
f 565 523 570 
o convex_17
v -0.001016 0.011725 -0.005734
v 0.000449 0.038842 0.011123
v -0.005414 0.038842 0.011123
v -0.005414 0.035906 -0.006467
v 0.006311 0.035176 -0.006467
v 0.006311 0.016123 0.011123
v -0.005414 0.011725 -0.001336
v 0.006311 0.012460 -0.006467
v -0.005414 0.022719 0.011123
v 0.006311 0.037372 0.011123
v -0.005414 0.011725 -0.006467
v 0.000449 0.036639 -0.004268
v 0.004112 0.038107 0.008924
f 582 572 583 
f 572 573 576 
f 573 574 577 
f 577 571 578 
f 574 575 578 
f 575 576 578 
f 576 577 578 
f 576 573 579 
f 573 577 579 
f 577 576 579 
f 572 576 580 
f 576 575 580 
f 577 574 581 
f 571 577 581 
f 578 571 581 
f 574 578 581 
f 573 572 582 
f 574 573 582 
f 575 574 582 
f 575 582 583 
f 572 580 583 
f 580 575 583 
o convex_18
v 0.004846 -0.000002 0.003794
v -0.005415 -0.011729 -0.000604
v -0.005415 -0.011729 0.003794
v -0.005414 0.011725 -0.001337
v -0.000284 0.003662 -0.006467
v -0.005415 0.009525 0.003794
v -0.004681 -0.010994 -0.005732
v -0.001018 0.011725 -0.006467
v 0.004113 -0.003664 0.000862
v -0.005414 0.011725 -0.006467
v -0.001750 0.011725 -0.002802
v 0.004846 0.001460 0.003794
v 0.004846 -0.000002 0.000862
v -0.005414 -0.000732 -0.006467
v 0.001181 -0.006598 0.003060
v 0.000448 0.005859 0.003794
f 589 595 599 
f 586 584 589 
f 585 586 589 
f 590 588 592 
f 585 589 593 
f 589 587 593 
f 591 588 593 
f 587 591 593 
f 587 589 594 
f 591 587 594 
f 591 594 595 
f 589 584 595 
f 588 591 596 
f 584 592 596 
f 592 588 596 
f 591 595 596 
f 595 584 596 
f 590 585 597 
f 588 590 597 
f 585 593 597 
f 593 588 597 
f 584 586 598 
f 586 585 598 
f 585 590 598 
f 592 584 598 
f 590 592 598 
f 594 589 599 
f 595 594 599 
