# https://github.com/mikedh/trimesh
v 0.02623109 0.02760439 0.02594769
v 0.02838149 0.05249719 0.03142609
v 0.04097669 -0.01222761 0.02618609
v 0.00749189 0.02887159 -0.03920911
v -0.00397691 -0.04293481 -0.03923471
v -0.01442171 -0.01132681 0.00333649
v -0.00387451 -0.01818601 -0.02509071
v 0.02233989 0.04778199 0.03856369
v 0.04753029 0.00667319 0.03772529
v 0.02868869 -0.00496041 -0.04442191
v -0.02783611 -0.03089001 -0.04395791
v -0.02046331 0.02238199 0.02427249
v -0.01513851 0.02915959 -0.03997071
v -0.00776571 -0.01296841 -0.00945551
v -0.00878971 -0.02012041 -0.02489391
v 0.00278149 0.03946999 0.02641009
v 0.01650309 0.02364279 0.06558289
v -0.02435451 0.00426679 0.03170929
v -0.04637051 0.01451319 0.02418609
v -0.00960891 -0.01683401 0.03226609
v 0.02926629 -0.00473641 0.04429969
v -0.00002011 0.00826039 -0.01027311
v -0.02715611 -0.01536521 -0.01343471
v 0.03162149 0.00124119 -0.03903951
v -0.01445851 -0.04774281 0.00024369
v -0.01128411 -0.04558601 0.02124049
v 0.03172389 -0.02656521 0.02520849
v -0.02592731 0.01785879 0.01921329
v 0.02025509 0.03219479 0.02619409
v -0.04149211 0.01033399 0.02516209
v 0.00049189 -0.02722761 -0.02585711
v 0.01636389 -0.01595401 -0.01854191
v -0.03708891 -0.00629961 -0.04498511
v 0.00489509 -0.02394601 0.02796689
v -0.03596251 0.01048279 -0.04272271
v -0.01077211 0.02296759 0.04362289
v 0.00182309 0.02229079 0.00814289
v -0.01599451 0.04073399 0.02889009
v -0.01282011 0.04420599 0.02882769
v 0.02605509 -0.00088201 0.04662129
v -0.01265211 0.02013559 0.00194289
v 0.02513349 0.01066199 0.06119249
v -0.04511291 -0.00517641 0.02580369
v -0.01050171 0.03066679 0.04180209
v -0.00200251 -0.01558121 -0.01282511
v -0.00405051 0.04974039 0.02811089
v -0.01869371 0.02096759 0.01120369
v -0.00917051 -0.01443561 -0.00908271
v -0.00384571 -0.00433001 -0.00897551
v -0.02268731 0.02476599 0.02352529
v 0.03393989 -0.01964361 -0.01294351
v -0.02575931 -0.00597481 -0.01600431
v 0.01724869 0.00326519 0.06057649
v 0.02564549 0.01755159 0.04929009
v -0.02258491 -0.00678441 -0.02173711
v 0.02267589 0.02179799 0.06227409
v 0.01223109 -0.00025321 -0.01968911
v -0.02442811 0.02326519 0.02650129
v -0.02647611 -0.03229321 0.02065489
v -0.00128571 -0.02115721 -0.02603311
v -0.01483931 -0.01297161 0.02867249
v -0.02006171 -0.02677481 -0.00884751
v 0.01669989 0.00326519 0.05477329
v -0.00521371 0.03234839 0.04373009
v -0.03767451 -0.02901481 0.02470289
v 0.03789669 -0.01700521 0.02657809
v 0.04209509 -0.01381001 0.02883569
v -0.00070811 0.02795959 -0.04375311
v 0.02253669 0.00759479 0.05345489
v -0.00459931 0.05026039 0.03183249
v -0.00982171 0.02124279 0.01843569
v 0.04066149 -0.00655561 0.03770929
v -0.03900571 -0.03462121 0.02593009
v -0.02221211 0.03672759 0.02544209
v -0.00122011 -0.01546441 -0.02698671
v -0.00852731 0.02100119 0.00189169
v -0.03576571 -0.03023401 0.02159889
v 0.02505989 0.01916279 0.05668689
v -0.00637691 0.01729399 0.00073809
v -0.00002811 0.02085559 0.01213649
v -0.00617211 -0.02028841 -0.02507951
v -0.00719611 -0.00229961 -0.00566351
v 0.00959749 0.02560599 0.04930929
v -0.02286331 -0.01751721 -0.04557231
v 0.00335109 -0.04081001 -0.04228111
v 0.00335109 0.01893879 0.01162769
v -0.02910971 0.02660279 0.02583409
v 0.02331909 0.03048599 0.02245969
v 0.03069189 -0.00558441 -0.04279791
v 0.03069189 -0.02513321 0.02116369
v -0.00699131 -0.02010921 -0.01489871
v -0.00166651 0.00584759 0.00340529
v -0.00668411 -0.02352681 -0.02720271
v 0.00488709 0.00679799 0.06024849
v 0.01748229 0.00560599 0.04990449
v 0.00181509 -0.00540201 0.04487889
v 0.00294149 -0.00037321 0.04692689
v 0.02393349 0.01335639 0.05003889
v 0.03341989 -0.01943401 0.02176369
v -0.03262811 0.01965239 0.02110449
v -0.01163611 -0.01836681 -0.01921711
v 0.00208549 -0.00232041 0.02364209
v 0.00945829 -0.03814921 -0.04308751
v -0.00835931 0.01314039 0.00333489
v -0.00938331 -0.00219881 0.04168849
v -0.01767771 -0.00773481 -0.00947151
v 0.02010789 -0.00103401 -0.00489551
v 0.04109989 -0.01205001 0.02300849
v -0.02177371 -0.00313001 0.02870769
v -0.02382171 0.02423319 0.02448049
v 0.01498789 0.00186359 -0.01237071
v 0.00454309 0.01812439 0.05005649
v -0.01010011 -0.01427561 -0.00763151
v -0.02474331 0.01866039 0.03309329
v 0.01406629 0.01290999 -0.00236111
v 0.00894629 0.01940119 0.00801169
v -0.01931611 -0.01052201 -0.02531791
v 0.02266789 0.00273239 0.00854449
v -0.01921371 0.02635319 -0.04234351
v -0.02535771 0.01938199 0.02105809
v 0.03655749 0.00607479 0.04480529
v 0.03553349 -0.02804361 0.02499249
v 0.01146949 0.03712759 0.02371729
v 0.01986629 0.00781719 0.00288849
v -0.01157051 0.04034039 0.02646129
v -0.01361851 0.02809559 -0.04264591
v -0.03450811 -0.02045321 0.02045489
v 0.01269829 0.02457239 0.05015249
v 0.00327749 0.00969399 0.06121969
v 0.00747589 -0.02485321 -0.02394671
v 0.00542789 0.00912919 0.04985009
v -0.04280251 -0.00558761 0.02113969
v 0.01802309 -0.02326121 0.02430929
v 0.00440389 0.01122199 0.06478289
v -0.00081851 0.03055479 -0.03961071
v 0.02857029 0.00795959 -0.04165711
v -0.00808891 0.03603159 -0.00401551
v 0.03604549 0.01471159 0.02594129
v -0.01945531 0.01327319 -0.00146511
v -0.01525691 0.04198519 0.03158609
v -0.02570171 0.00983479 0.03119409
v 0.00788549 0.00681719 0.05045169
v 0.04669509 -0.00862121 0.03092049
v 0.03727429 0.04686039 0.03328049
v -0.01607611 0.02342679 0.01857649
v 0.01433669 -0.01777161 -0.02367791
v -0.01597371 -0.02375241 -0.02424271
v -0.00757691 -0.00341961 -0.00464431
v -0.02113051 -0.00693961 -0.02306991
v 0.00405989 0.00942839 0.05372849
v -0.02942491 0.01612759 0.02100849
v -0.00321051 0.02349719 -0.04552431
v 0.01675749 -0.02441961 0.00173809
v 0.03150309 -0.01657321 0.03593969
v -0.03137051 -0.03974921 0.02590769
v -0.02819611 0.01546679 0.01891889
v 0.02843109 -0.03124841 0.02491569
v 0.00119269 -0.02699881 -0.04554191
v -0.03116571 -0.00507881 -0.00434031
v -0.03116571 -0.01250441 -0.00197711
v 0.00344549 0.01951479 0.05596689
v -0.04058651 0.02366679 0.02535889
v 0.01296869 -0.02868681 0.00390289
v 0.00354789 0.00131639 0.00346929
v -0.02369051 0.02769559 0.03018929
v -0.01734171 0.00246519 0.03808209
v -0.02881051 0.02180279 -0.03917551
v -0.00669211 -0.00765321 0.04057009
v 0.05331429 0.00752759 0.02804369
v -0.02741371 -0.00122601 -0.01235791
v 0.02818949 -0.02104201 0.02125009
v -0.00744571 0.01102839 0.00375089
v -0.01686651 0.01035799 0.00294129
v 0.04815749 -0.00141961 0.02635089
v 0.01989509 -0.02383401 0.03265169
v -0.00734331 -0.00931241 -0.00676751
v -0.04082811 -0.03421321 0.02544209
v -0.00406651 0.02116919 0.00057489
v -0.00703611 0.00624919 0.00024849
v -0.02270331 -0.00554601 -0.02087311
v -0.00898171 0.03003799 -0.04138831
v -0.01840251 -0.01353961 -0.02643791
v 0.01098629 -0.00997161 -0.04513231
v 0.01098629 -0.02115241 -0.02574831
v -0.02464891 0.01228759 0.03332529
v -0.01205371 -0.02714121 -0.02305391
v -0.02147451 -0.01155241 -0.02335151
v -0.02249851 0.02328919 0.02361809
v -0.02454651 0.02441719 0.03162449
v 0.00484229 0.02186199 0.06075889
v -0.01819771 0.01134839 -0.04556271
v -0.01604731 0.01162199 0.04095729
v -0.04000891 -0.00628361 -0.04283311
v -0.02427611 -0.00657161 -0.01807951
v -0.00953051 0.01080439 0.04474129
v -0.02314971 0.02951319 0.02596209
v 0.00419109 0.01615799 0.05004849
v -0.01782491 0.03745399 0.02719889
v -0.02304731 0.02618679 0.02142289
v 0.04934949 0.03392439 0.02897809
v 0.01791269 0.00646999 -0.00529711
v -0.03543771 -0.02575721 -0.04067151
v 0.01596709 0.00695959 -0.00410511
v -0.00707291 -0.00200361 -0.00315151
v -0.01434331 -0.03821321 -0.04424591
v 0.00460069 0.01928919 -0.00107311
v -0.01209051 0.01545399 0.00072849
v 0.02374949 0.01618359 0.05053969
v -0.01710811 -0.01136041 -0.02339151
v 0.04371749 -0.00887881 0.02639889
v 0.01244869 0.02513879 0.06378129
v 0.02504389 -0.02339081 0.02788849
v 0.01357509 -0.02085001 -0.01867311
v 0.03354309 -0.01988201 0.02618609
v -0.01151291 -0.03006121 -0.01250671
v 0.02207429 0.01932919 0.06597969
v 0.02422469 -0.03629481 0.02507089
v -0.03342651 -0.03435081 0.02495089
v 0.01377989 0.00480919 0.04996049
v -0.01028411 -0.01935081 -0.02458031
v 0.03692229 0.01141719 0.04539409
v 0.02330309 0.01321719 -0.04396111
v 0.03282629 0.05045399 0.03169809
v 0.00251589 0.01253559 0.06147729
v 0.02873029 -0.01424841 0.03899409
v 0.00886469 -0.02486921 0.03077969
v 0.01726149 -0.00935241 -0.01983471
v 0.00364229 -0.01097321 -0.02213231
v -0.00260411 -0.00113801 0.04515729
v 0.00159429 -0.03860841 -0.04450671
v 0.02473669 0.01984599 0.05964529
v -0.03701051 -0.00119721 0.02028049
v -0.00762171 -0.03901801 0.02001169
v -0.01489211 -0.04570281 0.02481809
v 0.02398309 0.00005879 0.00829969
v -0.04186011 -0.00834121 -0.03742991
v -0.01554331 0.03744439 0.01395569
v 0.00125029 -0.02073161 0.03409329
v 0.04640869 0.03698839 0.02756049
v 0.00032869 -0.02628361 -0.02730191
v 0.04446309 -0.00057321 0.03797009
v 0.03821669 -0.01707721 0.03022449
v 0.02777189 -0.03035401 0.02086449
v 0.00790629 0.00480279 0.06186929
v 0.00585829 0.02148279 0.04956209
v 0.01845349 -0.03964361 0.02123569
v 0.04886629 -0.00426121 0.02773489
v -0.03602331 -0.02143881 0.02081649
v -0.02865051 0.02626999 0.02467729
v -0.00653211 -0.05128201 0.02575569
v 0.01763429 0.03384119 0.02610449
v -0.04421531 -0.01585001 0.02603729
v -0.00329211 -0.00832521 -0.01044431
v 0.00090629 0.03226999 0.04598609
v -0.00851451 0.02360439 0.01341969
v 0.00725509 0.02676759 -0.04321711
v 0.03664389 0.04648439 0.02745489
v -0.00411131 -0.04896841 0.02576529
v -0.02612731 -0.00267081 -0.04555791
v -0.03134971 0.01238839 0.01993169
v 0.04729349 0.03141559 0.02664209
v 0.02845189 0.02593879 0.02258449
v 0.02322949 0.00655479 0.05705649
v -0.01445371 -0.00345641 0.03803569
v -0.00288251 -0.01534601 -0.01195471
v 0.00971269 0.01920759 0.00662769
v 0.02548229 0.01298359 -0.04234511
v 0.00766469 -0.03579721 -0.04498671
v -0.02797051 0.02916919 0.02662449
v 0.02445829 -0.02943401 0.02051089
v 0.02241029 -0.04271881 0.02579249
v 0.02036229 -0.03221321 -0.04161871
v -0.02469371 0.01357079 0.02702449
v 0.00786949 0.03972279 0.02668849
v -0.04343291 0.00540599 0.02544049
v -0.00564731 0.01562359 -0.04551631
v 0.02374149 -0.02180521 0.02072529
v -0.05070331 -0.00823721 0.02574769
v 0.02906629 -0.02146921 -0.03855791
v 0.01022469 -0.02997801 0.00287729
v 0.01339909 -0.04361161 0.02506449
v 0.02599429 -0.02010441 0.03498129
v -0.02223611 -0.01506761 -0.02704111
v 0.00397829 -0.04559561 0.02126289
v 0.02077189 0.01034199 0.06751089
v 0.02814469 -0.03743241 0.02562609
v -0.03159131 0.02710519 -0.00097071
v -0.03159131 0.01077239 0.01781809
v 0.02298789 0.02205239 0.05543729
v -0.03773531 -0.01859081 -0.04266831
v 0.00107429 0.03610839 -0.00197071
v 0.04101029 -0.01300521 0.03320049
v 0.01285029 -0.02400681 0.03281809
v -0.02278491 0.02804119 0.02298929
v 0.00342949 -0.01251881 0.04148049
v 0.01500069 -0.02498281 -0.00096271
v -0.02268251 0.03159799 0.02673649
v -0.02370651 -0.04196521 0.02494129
v 0.01407909 0.02175479 0.06799089
v 0.03824549 0.00983959 0.02565489
v -0.03619931 -0.00152201 0.01825169
v 0.01213349 0.00340279 -0.01614511
v -0.00250971 -0.04652041 0.02168369
v -0.02452571 -0.01458441 -0.02488431
v -0.02339931 0.00486199 0.03341009
v -0.03589211 -0.01818601 -0.04432591
v 0.02073509 0.00463639 0.05596369
v -0.03265211 -0.03648841 -0.00990191
v -0.00746171 -0.04619401 0.02141329
v 0.02295109 0.03333239 0.04667089
v 0.00933189 -0.00801001 0.04498449
v -0.02835131 0.02555959 0.02180529
v 0.00421189 0.00042679 0.00219089
v 0.05039429 0.02435319 0.02658129
v -0.00295611 -0.02133321 0.02824689
v -0.02589371 0.01250359 0.02887409
v 0.02131269 -0.00662601 0.04531729
v -0.01012411 0.02379639 0.01290289
v 0.00574789 0.02094199 0.06440209
v -0.00152251 -0.01799721 -0.02720751
v 0.03308869 -0.02028841 0.03071889
v -0.00879291 -0.01562441 -0.01151311
v -0.01821371 0.02523639 -0.04383791
v 0.00175429 -0.03980681 0.02046769
v 0.01332549 0.02638359 0.05780689
v 0.00185669 -0.00841801 -0.01196911
v 0.00407269 -0.05050441 0.02583729
v 0.01246949 0.00248279 0.04897169
v -0.03985691 -0.00045001 -0.04231311
v -0.02296091 -0.00860681 -0.01941711
v 0.01165029 -0.02834121 -0.00127951
v 0.01277669 0.00383159 0.06403569
v -0.02285851 -0.00754281 -0.01960271
v -0.01866011 -0.01962601 -0.02745711
v 0.03274469 0.04472279 0.03751569
v -0.03750171 -0.02607081 0.02103569
v 0.03909349 -0.01599081 0.02747569
v -0.04569371 -0.01342281 -0.00813711
v 0.02670309 -0.02026441 -0.04373551
v -0.00473371 0.02242199 0.04652369
v 0.01318629 -0.00495241 -0.02477071
v -0.01507611 0.01329719 0.00055409
v -0.00667931 -0.03080361 -0.01338351
v 0.02270949 0.01228439 0.06649809
v 0.01748709 0.03437559 0.02281009
v -0.04436251 -0.00478601 0.02432529
v -0.00135451 -0.02305961 -0.02768431
v -0.03698971 0.00360759 0.02087409
v 0.01441509 -0.04197321 0.02126129
v 0.00919269 0.02185399 0.06667249
v -0.02746651 0.01681239 -0.04501391
v 0.03653349 0.03396919 0.04191409
v -0.00538491 -0.00985961 -0.01025551
v -0.01060731 -0.01529961 0.00304209
v -0.00640891 0.04593559 0.02670289
v -0.02422651 -0.00402281 -0.01972271
v 0.01038469 -0.02009001 0.03675569
v -0.00743291 -0.05178441 0.02533649
v -0.02525051 0.01804279 0.02129809
v 0.01775749 0.00752439 -0.00348111
v 0.00209029 -0.02321801 0.03036689
v 0.01048709 0.00544439 0.05033809
v 0.03260549 -0.01855721 0.02181809
v 0.01796229 0.01165559 0.06930289
v -0.01859451 -0.00838121 0.02976529
v -0.03426171 0.00796599 0.02035729
v -0.02586491 0.00082519 0.00340369
v 0.04233349 0.00594679 0.04157169
v -0.00169851 0.02051159 -0.00087951
v -0.00169851 -0.01556841 -0.01510031
v 0.02349189 -0.00617961 0.00259729
v 0.03086469 0.02254999 0.02609329
v -0.03620731 0.02271639 -0.00095631
v -0.05085051 -0.00022441 0.02456849
v 0.00587909 0.01320919 -0.04551151
v -0.00343931 0.00726679 0.00257329
v -0.02545531 0.01842039 0.02151729
v -0.03067771 0.00369399 0.00254609
v -0.00968571 -0.01420521 -0.00431631
v 0.03229829 -0.03264841 0.02562129
v 0.01028229 0.00958199 0.06858609
v -0.02637691 0.01201399 0.00385009
v -0.02426331 0.02425239 -0.04165071
v 0.00195109 0.04659319 0.03837489
v 0.02714149 0.02157719 0.04861169
v 0.00410149 0.01310199 0.05042769
v 0.04291109 0.04314519 0.03143889
v 0.01362469 0.02294679 -0.04384591
v -0.03665371 -0.00716361 0.01860689
v -0.02917851 0.03253879 0.02636689
v 0.04014629 0.00499319 0.02229169
v -0.02692571 0.01846359 0.02095729
v 0.00256549 -0.01247401 -0.01431151
v -0.01627611 -0.01479241 -0.02777391
v 0.01311269 0.00780279 0.06824689
v 0.00266789 -0.03839721 0.02004049
v 0.03308069 -0.02127721 0.02248209
v -0.02876891 -0.03282921 -0.04174191
v -0.02037211 0.02310679 0.02153489
v -0.01719771 -0.00933481 0.02771569
v 0.03113509 -0.01555561 -0.03904431
v 0.02171429 -0.00687081 -0.00439471
v 0.00399909 -0.01128521 -0.02712591
v 0.02499109 -0.01153321 0.01207889
v -0.00853051 -0.01433321 -0.01063791
v -0.02634811 0.03048279 -0.00244751
v -0.03157051 0.01454199 -0.04408591
v 0.01358789 -0.00698281 -0.02738991
v -0.03566651 -0.01422121 0.01821329
v 0.04512709 -0.00859081 0.03311409
v -0.02296891 0.03554839 0.02650449
v -0.01457211 0.03910039 0.02666449
v 0.00222149 0.01654839 0.05919729
v -0.02081851 -0.04244201 0.02124849
v 0.02014149 0.04380759 0.04184209
v -0.00709691 0.04788279 0.03322929
v 0.02649029 0.00825399 -0.04374671
v -0.02696251 0.00495639 -0.00595951
v -0.02378811 -0.01779881 -0.02179311
v 0.01829829 -0.04628361 0.02392369
v 0.00887749 0.05467479 0.03190449
v -0.00054331 -0.00615721 -0.00189711
v 0.02044869 0.01861239 -0.04293231
v 0.01522629 -0.01287721 -0.02674031
v -0.01723451 -0.04987401 0.02567729
v -0.02542651 -0.00040521 -0.00806991
v -0.00965691 -0.01721481 0.02826929
v -0.01481371 -0.04153321 -0.03948271
v 0.01774949 -0.02031561 -0.00562671
v -0.02095771 -0.01330761 -0.02550351
v 0.00003429 0.00196279 -0.00774831
v -0.03764891 -0.02990441 0.02550609
v -0.00078491 -0.01443081 -0.01966991
v -0.00805531 -0.01401641 0.00284849
v -0.02269851 0.02301079 0.02200689
v 0.04242789 0.04184279 0.03365329
v 0.03198309 -0.00806601 -0.04054511
v -0.01092251 -0.03431081 -0.04557391
v 0.03208549 0.01526679 -0.00208591
v 0.02798949 0.02697399 0.02654929
v -0.01071771 -0.01506441 -0.01036751
v -0.01594011 -0.02818441 -0.01265071
v 0.02286949 0.03207959 0.02660209
v -0.04840091 0.00991639 0.02477649
v 0.00419589 -0.00339241 -0.02062991
v 0.00327429 0.02003799 0.04915729
v 0.02846469 0.00509879 0.04761329
v 0.03163909 -0.01898121 0.02262289
v -0.04485371 -0.02758601 0.02558769
v 0.05273349 0.01491479 0.02690289
v 0.01289989 -0.02985161 -0.04554831
v -0.01843451 -0.00757481 0.00298609
v -0.02980091 -0.00076521 -0.00649391
v -0.00461051 0.00221399 -0.00632111
v 0.00798469 0.02419799 0.06176849
v -0.02550011 -0.00040041 0.00172209
v 0.02488069 -0.02313001 0.02071569
v 0.00603909 0.03888279 0.02328049
v -0.00338171 -0.01734761 -0.02403791
v -0.01802491 0.03765079 0.02634929
v 0.05341349 0.00699159 0.03156849
v -0.00003931 -0.03045001 -0.01422191
v -0.02512731 0.01500439 -0.04555471
v -0.01560411 -0.01415241 -0.02722351
v 0.00538789 0.00512919 0.04880049
v -0.04069211 0.01002999 0.02177169
v 0.02013349 -0.03709641 0.02054769
v 0.00968869 0.01272439 0.06944529
v 0.01388709 0.02603959 -0.03868431
v -0.00065371 0.02309559 0.04782129
v 0.02033829 0.02248919 0.06481009
v -0.02154331 -0.00452681 -0.01157711
v -0.02154331 0.02686519 0.02262449
v -0.02881371 -0.03582761 0.02087249
v -0.00782171 -0.01105161 -0.00799951
v -0.04765531 -0.00977481 0.00194609
v -0.01816411 -0.02135081 -0.02624591
v 0.02501189 0.05279479 0.03335729
v 0.00934469 0.05447799 0.02895889
v -0.00304571 -0.02123561 0.03121649
v 0.02316869 -0.02226441 0.02154289
v 0.01169989 0.03642039 0.04614769
v 0.02644549 0.01906199 -0.01876591
v 0.05378629 0.01838199 0.02815569
v -0.00488891 -0.00988361 0.00354609
v -0.00591291 0.02654839 -0.04469711
v -0.01953211 0.03548439 0.02724369
v -0.03734971 -0.00658921 0.02003089
v 0.03607109 -0.00445801 0.04157969
v -0.00796091 0.01684919 0.04570929
v -0.04779451 -0.00166441 0.00290609
v -0.02680251 -0.02997481 0.01920049
v -0.00570811 -0.01366601 0.03714449
v -0.02772411 -0.02353001 0.00425329
v -0.02352571 -0.00399721 -0.01951791
v -0.03919291 0.00390199 -0.04179471
v -0.01605051 0.03846039 0.02649969
v 0.00913989 -0.01481801 0.04085969
v -0.04431291 0.00089239 0.02511089
v 0.03023429 -0.01466121 -0.04214031
v 0.00306149 -0.00849001 -0.01273071
v -0.02509851 0.00278999 0.00327569
v 0.01371109 -0.00330121 -0.02213711
v -0.01874971 -0.00762281 0.03179409
v 0.01903589 -0.01969481 -0.00151151
v -0.02806811 -0.00404361 -0.01256271
v 0.02651109 -0.00606121 -0.04530191
v -0.01434651 0.01493559 0.02457009
v 0.02354149 -0.00282921 0.00400689
v -0.04250651 0.00656599 -0.01920111
v -0.01731611 0.02219799 0.01557489
v 0.00889829 0.03065719 0.04797969
v -0.00891931 -0.02741321 -0.02534671
v -0.02141211 -0.00705641 -0.02355631
v 0.03521509 -0.02626281 0.02605009
v 0.02477029 0.01836279 0.05438129
v 0.02169829 -0.00406601 -0.00399311
v 0.02487269 -0.01055881 0.04253489
v 0.05426149 0.01394999 0.02858289
v -0.04639771 0.00311159 -0.00092271
v 0.03757029 -0.02264681 0.02561809
v -0.01376891 0.02158839 0.00719249
v -0.02421371 0.00161079 0.00377649
v 0.05442949 0.01369399 0.03130609
v -0.00844411 0.01785399 0.00049169
v 0.00415109 -0.02059401 -0.04513231
v 0.02094469 -0.01301161 -0.00463631
v -0.01469051 -0.03688841 0.01882609
v -0.01151611 -0.02418281 -0.02772591
v 0.01787269 -0.03540841 -0.03917551
v -0.01038971 -0.04321001 -0.03499631
v 0.01480069 0.02597079 0.04941329
v -0.04285051 0.01746999 0.01247889
v 0.03896709 0.03922839 0.03781489
v -0.02810491 -0.03963881 0.02540049
v -0.02912891 -0.00207241 -0.00919311
v -0.04274811 -0.00274121 -0.02999791
v -0.00916091 0.02761399 -0.04407791
v 0.01602949 -0.02328521 -0.00403311
v -0.02800251 0.00009399 -0.00996751
v -0.03424891 -0.04096041 0.02554929
v -0.01847931 0.01053559 -0.00097551
v -0.04991611 0.00466039 0.02425649
v -0.02052731 0.00808439 -0.00306991
v -0.03199611 -0.02092201 -0.04526511
v 0.02882949 -0.02453321 0.02053169
v 0.00169349 -0.03772361 0.01841009
v -0.02656891 -0.03911401 0.02132529
v -0.02656891 0.00089399 -0.00272911
v 0.00916869 -0.03918601 -0.04191151
v 0.01756549 0.02421719 0.05189649
v -0.01677531 -0.01266761 -0.02579951
v -0.03141851 -0.01919561 0.00821809
v 0.02940709 0.05079799 0.03377169
v -0.01882331 -0.03292361 0.01037809
v 0.04097829 0.01522039 0.04335249
v -0.02087131 -0.01467561 -0.02748911
v 0.02008869 -0.02507241 -0.04524111
v 0.05162789 0.02955159 0.02977969
v 0.02756389 -0.02483241 -0.03754351
v 0.00780069 -0.00990281 -0.02781871
v 0.02674469 0.01341079 -0.03926191
v -0.02035931 -0.00373001 0.02761489
v 0.01005349 -0.04956841 0.02084209
v 0.01220389 -0.02341161 -0.01599951
v 0.01240869 -0.03374121 0.01905969
v 0.00929989 -0.03697161 0.02038449
v -0.01374011 0.02316279 0.01387569
v 0.01564869 0.00550199 -0.00630671
v 0.04186309 0.04342839 0.02853969
v 0.00940229 -0.03219241 0.00688689
v -0.00309051 0.02313079 0.00776049
v 0.00223429 0.01815799 -0.00265231
v -0.01138491 0.01400599 0.00291729
v -0.00718651 -0.04101801 0.02053009
v -0.01660731 0.01869239 0.00169329
v 0.03694789 0.01382199 0.02285329
v -0.02172731 0.02560759 0.02200849
v -0.01005371 0.03837879 0.03842769
v 0.00899269 -0.04422441 -0.01536111
v -0.04026171 -0.01341481 -0.04117231
v -0.02654011 0.00082199 -0.00975951
v 0.03326149 0.00207639 0.04523569
v 0.02599109 -0.02539401 -0.04154831
v -0.01906491 0.03124439 0.03522609
v 0.01776229 -0.02046441 0.03638289
v -0.03046811 -0.04221801 0.01046449
v -0.00394651 -0.00825001 -0.00456271
v -0.01961371 0.03631959 0.02909009
v -0.02483611 -0.01898601 -0.01495791
v -0.02370971 0.02123959 0.02128209
v -0.04347291 0.01104919 -0.00287311
v -0.00148891 -0.03457001 0.00283409
v -0.00353691 -0.05240521 0.02369649
v -0.00875931 -0.01862281 -0.01184911
v -0.00660891 0.00798039 0.00135569
v 0.00393829 -0.00959561 -0.01869071
v 0.03230309 0.04120919 0.04020049
v -0.03794331 -0.01277161 0.02075889
v -0.00633851 -0.02655881 -0.02711311
v -0.01463291 -0.02483561 -0.04554511
v -0.00203771 -0.02939081 -0.01999311
v -0.02927611 0.00223479 -0.00324911
v -0.01350651 0.00388279 0.04135569
v 0.01065989 0.00306359 0.05995889
v -0.03757051 -0.03188361 0.02597489
v -0.00715771 0.00863479 0.00033649
v -0.03439611 -0.01790441 0.01813169
v -0.02180091 -0.00417481 -0.00298351
v -0.02180091 0.03048759 0.03271569
v 0.01178629 -0.02065801 0.02416849
v -0.02487291 -0.00190601 -0.01601711
v 0.02755589 0.00255319 -0.04436431
v 0.00564229 0.02485719 -0.04482991
v -0.00060411 -0.04240361 -0.04083311
v -0.02364411 0.02193079 0.02605009
v 0.01414149 0.00351479 -0.01332431
v -0.00674811 -0.02843401 -0.02398671
v -0.03490811 0.02107159 0.02566129
v -0.02231291 0.03105879 0.02725489
v 0.02284549 0.01940439 0.05122289
v 0.02291109 -0.02357961 0.02494769
v -0.01272411 -0.05162761 0.02415089
v 0.01768869 0.02571639 0.05674929
v 0.00939429 -0.03393161 0.01373329
v 0.00325029 0.00954199 -0.01036271
v 0.01062309 0.00612919 0.06629009
v -0.02593371 0.00064439 -0.00825231
v -0.00176731 -0.00900681 -0.00986831
v 0.01922469 -0.00671241 -0.01211471
v 0.02454949 0.00995799 0.05421169
v 0.01830309 0.02784919 -0.01256911
v -0.02572891 -0.00279561 -0.01675631
v -0.00463451 -0.02287721 -0.02718671
v -0.02347611 0.02759959 0.02792209
v 0.00806309 -0.02122601 -0.02769231
v -0.00760411 -0.02459721 -0.02762671
v -0.04108891 -0.02524681 -0.01155631
v -0.01378491 0.03317399 0.03870769
v -0.00211131 -0.03583401 -0.04556751
v -0.01153211 -0.01606761 0.02938609
v 0.02307909 -0.02264841 0.02022449
v -0.00938171 -0.01401321 0.00375249
v 0.01478469 0.00503319 0.06583569
v -0.00303291 0.01370999 -0.00263631
v -0.04706491 0.00668119 0.02647729
v 0.02953029 0.01060119 0.04814449
v -0.00610491 0.00538359 -0.00392111
v -0.03856571 -0.03758921 0.02379089
v 0.02963269 -0.02118921 0.03228529
v -0.00180411 0.05146679 0.02962449
v 0.02441029 0.01564279 0.06461169
v -0.03211451 0.01829239 -0.04039791
v 0.01929029 0.02356759 0.04987889
v 0.01406789 0.01142359 0.06982129
v -0.03416251 0.02010199 0.02155409
v -0.00794811 0.04787959 0.02833329
v -0.00057531 0.00542039 0.00310609
v -0.04245691 0.02027639 0.02603409
v -0.01091771 -0.00958601 0.03701809
v 0.01642309 0.00166519 -0.01229871
v -0.00651451 -0.03361001 -0.00214831
v 0.04597989 0.03667159 0.03408849
v 0.03655909 0.01721879 0.02642129
v -0.01167131 -0.01504041 -0.01155791
v 0.02293989 -0.02782281 -0.04305551
v 0.02509029 0.03992439 0.04326769
v -0.02928411 0.00373399 -0.00005711
v -0.01034011 -0.02148681 -0.02774831
v 0.02427109 -0.03486121 0.02133009
v 0.00123109 0.04074519 0.04206609
v -0.04065051 -0.02389801 0.02528849
v -0.01965851 -0.00837961 -0.02070351
v -0.01955611 0.01752279 0.02604369
v 0.01505509 0.05219959 0.02685649
v -0.04362011 -0.00977961 0.02187569
v -0.01945371 0.00829399 0.00273169
v -0.04669211 0.01229719 0.02607889
v 0.04772069 0.02199959 0.03794609
v 0.00164069 -0.02208361 0.02705649
v -0.02242331 0.02423479 0.02177649
v 0.03420389 0.01804439 0.02560049
v -0.01402651 -0.04373961 0.02071889
v 0.01218789 0.02601559 0.05608849
v -0.00767771 -0.01158441 0.00385009
v -0.02969371 0.01902359 -0.04282031
v -0.02215291 0.02260759 -0.04423471
v -0.01795451 -0.03732041 0.02050129
v 0.00723589 -0.02327241 0.03316209
v 0.01675909 0.01281719 0.00499249
v -0.00208251 -0.01122921 0.04041649
v 0.00211589 0.05120439 0.02715409
v -0.01355131 -0.03391081 0.00512529
v 0.01686149 0.00976599 -0.00255791
v -0.00300411 0.01741079 -0.00241871
v 0.03611269 -0.01924681 0.02630129
v 0.03928709 0.00902199 0.02628049
v 0.03406469 -0.02144041 0.02523409
v 0.04676229 -0.00645321 0.02700209
v -0.01191291 0.04366039 0.02756369
v 0.02167429 0.00226839 0.04836849
v -0.00341371 0.04050199 0.02661489
v -0.01805691 0.00812119 0.00361489
v -0.00546171 -0.01040201 -0.00552911
v 0.01553029 0.00368279 -0.00909231
v -0.00119771 -0.02457481 -0.02796111
v 0.01979429 0.02460279 0.06156369
v -0.03570651 0.00796279 -0.04394031
v 0.01467429 0.00256599 0.05860209
v 0.04099109 -0.00369641 0.02599249
v 0.02010149 0.05308599 0.03413009
v 0.00238629 -0.02281001 0.03211409
v 0.03914789 -0.00073161 0.04146129
v -0.00375771 -0.02021161 -0.02562031
v 0.00463909 0.03391639 -0.01199951
v 0.00463909 0.00029559 0.00283249
v -0.02259931 0.03412599 0.00750449
v 0.03515429 -0.01150281 -0.01807791
v -0.04451291 -0.00927881 0.02528849
v 0.04467749 -0.01122281 0.03042769
v 0.01539109 -0.00772201 -0.02676431
v -0.02434011 0.01688759 0.02674929
v 0.01242149 -0.01489961 -0.02776911
v -0.02007611 0.01885719 0.03777329
v -0.03369531 -0.00017961 0.00873009
v 0.00091589 0.00393239 0.00356689
v -0.01792571 -0.05041321 0.02390929
v 0.03880389 -0.02131081 0.02502769
v 0.01576389 -0.04261481 -0.00636431
v 0.04935109 0.03200279 0.03347409
v 0.03685829 0.04805079 0.03173649
v 0.01904069 0.01143159 -0.04554511
v 0.02323909 -0.01634441 0.00824369
v 0.00542149 -0.00204041 -0.02083471
v -0.00184891 0.04842199 0.02668209
v -0.01638971 0.01211479 0.00034609
v -0.02243131 -0.00535241 -0.01314191
v -0.00348731 -0.02191561 -0.02585071
v 0.00705989 0.02172759 0.05045169
v -0.04100251 -0.02070121 0.02161169
v -0.02625691 0.00200759 0.00150769
v 0.03774309 -0.02469801 0.02336049
v 0.01470309 -0.01350121 0.04205969
v 0.02309989 -0.04313961 0.02363249
v -0.00413851 0.02989399 -0.04190511
v 0.03262309 0.01781559 0.04731249
v -0.02605211 0.00849399 -0.00270991
v -0.03547291 0.01407319 -0.03954351
v 0.05156709 0.00146359 0.02779729
v -0.05011611 -0.00574921 0.01698769
v 0.04112229 -0.00809481 0.02581489
v 0.00548709 0.01991479 0.05074769
v -0.03854491 0.02513399 0.02619089
v 0.02228069 0.01562999 0.06702769
v 0.02647909 0.04589559 0.03904369
v 0.02340709 0.01098359 0.05115089
v -0.02472091 0.00720439 -0.00565871
v -0.04253851 0.00897239 0.02583889
v -0.03834011 -0.01234441 -0.04386991
v -0.00792731 0.00354999 0.00370449
v -0.00034971 -0.01613161 0.03761009
v 0.00282469 0.02891159 -0.04211631
v -0.02431131 0.01820119 0.01564689
v -0.00331931 -0.01112201 -0.01193871
v 0.00637189 -0.01792201 -0.02767631
v 0.00534789 0.03614519 0.04545009
v -0.03335931 0.00746679 -0.04519471
v 0.01384709 -0.01623721 -0.02640111
v -0.00079611 -0.00583401 0.00372689
v -0.02475771 0.00329879 -0.00688911
v 0.00565509 0.01574679 0.06685489
v 0.02244869 -0.00800681 0.01426129
v -0.00898811 -0.03295241 -0.00325711
v -0.00683771 -0.01936841 0.03049169
v 0.05296389 0.02496759 0.02898449
v -0.02352891 0.00504279 0.02740849
v 0.04569349 0.03953879 0.02888689
v -0.01195771 0.04418999 0.03312049
v 0.01845509 0.02237079 -0.04077711
v -0.02752251 -0.02781481 0.01587889
v -0.03694331 -0.01158121 0.02007569
v -0.02530651 -0.02018441 -0.01159151
v -0.00533851 0.05011639 0.03040689
v -0.00533851 0.00895639 0.00332689
v 0.01145509 0.02411959 0.05099889
v 0.04606629 -0.00910121 0.02836369
v -0.01148251 -0.01429961 -0.00817551
v 0.03572389 -0.01084681 0.03818449
v 0.02210469 0.02410039 -0.01679151
v 0.05149349 0.02954839 0.03202609
v -0.02397531 -0.03038281 0.01357329
v 0.00756389 0.00435959 0.05808049
v 0.01913509 0.00602199 -0.00291151
v 0.02333349 -0.01063081 0.00305329
v -0.00175451 -0.00065161 -0.00714031
v 0.01503909 0.02611479 0.06075249
v 0.01923749 0.02301559 0.05076529
v -0.00165211 0.05189719 0.03119889
v 0.02353829 0.01801879 0.05008049
v -0.03820891 -0.03049001 -0.00952271
v 0.03316389 -0.03286281 0.02367089
v -0.00957371 -0.04688841 0.02519249
v 0.01899589 0.00599159 0.06529809
v -0.04490171 0.00598679 0.02630449
v -0.03230651 -0.03046601 -0.03954191
v 0.01909829 0.00627959 0.05029009
v 0.00343109 -0.00957481 -0.01633871
v 0.01295429 0.01658199 0.07001489
v -0.02882491 0.02957559 0.00135249
v 0.02053189 -0.01195241 0.04251089
v -0.02350011 -0.01322121 -0.02592431
v -0.04131771 -0.00208841 -0.03916271
v 0.01530949 -0.01741801 0.03921009
v 0.01745989 0.02532279 0.05438609
v 0.00384069 -0.05154761 0.02419249
v -0.02544571 -0.03064041 -0.04486511
v -0.03906491 -0.02495561 0.02166289
v 0.01971269 0.00610839 0.04955569
v -0.00643611 -0.01253321 -0.01120591
v 0.02397669 -0.02042601 0.01950289
v -0.02107931 0.01615959 0.00151089
v 0.04189669 0.03297239 0.03911409
v -0.00725531 0.03077879 -0.03949871
v -0.00510491 0.02740439 0.04538129
v 0.03687909 -0.01694281 0.03267089
v 0.00441829 0.02607959 0.04843089
v -0.01022491 0.04376919 0.02695249
v 0.03073509 0.05120279 0.02882769
v -0.03111451 0.03207959 0.02552369
v 0.00984549 0.00558679 -0.04510191
v -0.00899611 -0.02315241 -0.04514191
v 0.03401189 -0.01994281 0.02566129
v 0.00155109 -0.02066761 -0.02735631
v 0.01732069 0.05452919 0.03271409
v 0.05193189 0.00083799 0.03006929
v 0.01107429 -0.02606121 -0.01089071
v -0.03398171 -0.01403241 -0.04553711
v -0.02343451 0.03640759 0.02393169
v 0.00277989 -0.03206921 -0.00446191
v 0.02377189 0.00804119 0.06151729
v 0.00073189 -0.01219241 -0.01194351
v 0.02291589 0.01032119 0.04994129
v 0.01666949 -0.01132201 -0.02418351
v -0.05122171 -0.00702601 0.02469809
v -0.00503931 -0.01854281 -0.02125071
v 0.01595269 0.00192119 -0.04552271
v 0.03182469 -0.02104361 0.02780849
v -0.03842171 0.01390679 -0.02383631
v -0.00800891 -0.01981801 -0.01232911
v 0.01195909 0.03165719 -0.01055151
v 0.05076869 0.00021079 0.03258449
v 0.02875269 -0.01980841 -0.04177391
v 0.01933189 0.00290359 -0.00516911
v 0.01410949 0.04391959 0.04217969
v 0.04247429 -0.00164201 0.02616529
v 0.04145029 -0.00423401 0.02249969
v -0.00258171 0.00776919 -0.00441391
v 0.00591749 -0.02407881 -0.02663471
v 0.02588549 0.05169399 0.02738609
v 0.00209189 0.01259639 0.05842449
v 0.02103589 -0.02514281 0.01879889
v -0.00098011 0.05105239 0.03348209
v -0.02504411 0.00761879 0.02796849
v -0.04910811 -0.01524361 0.01661169
v -0.02176731 -0.00329641 0.03058289
v 0.02124069 0.00050199 -0.00317391
v -0.00272091 0.00694999 0.00313649
v 0.00782629 0.04284919 0.04245009
v -0.02248411 0.00853239 -0.00453071
v -0.00988891 0.02196759 0.00507889
v 0.02472229 -0.02222761 0.02143889
v 0.00495909 -0.01042441 -0.01337391
v -0.00333531 -0.04524201 0.02071569
v 0.00506149 -0.01792361 0.03773969
v -0.03880251 0.00809399 -0.03877711
v 0.01362629 0.05399639 0.03363889
v 0.00000709 -0.04703881 0.02506289
v -0.02088251 -0.01879721 -0.02641231
v 0.02949829 -0.02845321 0.02165649
v 0.01065669 -0.02236681 0.02520049
v 0.01905349 -0.04027241 0.02494129
v 0.00123589 0.00709719 -0.01219151
v -0.00501051 0.01832279 -0.00004591
v 0.01618629 0.02434519 0.05034769
v 0.00901829 0.02133239 -0.04540271
v 0.00379589 0.01337559 0.04978449
v -0.02856251 0.03031959 0.00457809
v -0.02323771 -0.03341961 0.02000689
v 0.02505829 0.01359799 0.06317649
v 0.03877989 0.02139799 0.04420209
v -0.01467291 0.01753559 0.04194929
v 0.01154149 0.00742839 -0.01183471
v 0.03775589 -0.01615561 0.00503569
v 0.00212069 0.00315319 0.00276529
v 0.02004069 -0.01200361 -0.00840751
v 0.01379429 0.02458519 0.05133169
v -0.00402331 0.00723959 0.00338289
v 0.00334949 0.01987959 0.05890769
v 0.00754789 0.00965559 0.06733329
v -0.01026971 -0.00318121 0.02694769
v -0.02173851 -0.00351561 -0.00974351
v -0.04375451 -0.00205481 0.02166929
v -0.03535771 0.00422519 0.01972849
v 0.01399909 -0.03444521 -0.04395791
v 0.00775269 0.00461719 0.05521969
v -0.01006491 -0.01930921 -0.01226191
v 0.00253029 0.01235639 0.05515249
v 0.03089509 -0.00958441 0.04120849
v -0.02767771 0.00108919 -0.00947791
v -0.03494811 -0.02379561 -0.04305871
v 0.02382949 0.00742999 -0.04516591
v -0.01805211 -0.01125801 -0.02580591
v -0.01170331 -0.01299241 0.00382769
v 0.01457669 -0.00968201 -0.02765071
v -0.03467771 0.02820119 0.02640209
v 0.02215429 0.02337079 0.05880369
v 0.02635269 0.01463639 0.05832689
v -0.00928251 -0.04049961 -0.04334671
v 0.02532869 0.01657239 0.06214769
v 0.00966149 -0.04394921 0.02111729
v -0.02279931 0.01932439 0.01965169
v -0.01020411 -0.02008521 -0.01505391
v 0.01918469 0.02122679 0.06683569
v -0.02054651 0.01565719 0.00041329
v -0.01419771 0.01062039 0.00314449
v -0.00989691 -0.01640041 0.02772209
v 0.01949189 -0.04136361 0.02585649
v 0.01119749 -0.03946921 -0.03898031
v -0.02228731 0.02233559 0.02221009
v -0.02331131 0.00418839 -0.00507791
v -0.04112891 -0.00575881 -0.04114671
v 0.03966469 0.00521559 0.02586929
v 0.01146789 -0.01836521 -0.02732111
v -0.02519131 0.02488599 -0.03760431
v 0.02518949 0.00969719 0.05778449
v 0.00317349 0.01794199 0.06222449
v 0.01576869 0.05476119 0.02900689
v 0.01576869 -0.04657161 0.02582289
v 0.01894309 0.00448919 0.04919729
v -0.01771611 -0.01540681 -0.02766831
v 0.00645029 -0.00883881 -0.02606511
v -0.00297051 -0.03814921 0.01751569
v -0.02601051 -0.01103881 -0.02170831
v -0.01341531 -0.01727721 -0.02755311
v -0.02693211 -0.03564681 -0.03884911
v -0.01955931 0.00905719 0.03791409
v -0.00696411 -0.01960041 -0.02435631
v -0.01740891 0.02285559 -0.04519471
v -0.01310811 0.00005559 0.00366769
v 0.01310629 -0.04865961 0.02466929
v 0.00266149 0.05347959 0.03119249
v 0.02365349 0.00746679 0.04907569
v -0.02662491 0.00258999 -0.00825551
v 0.00798629 -0.02927241 -0.00671631
v -0.00143451 0.01565079 0.04816209
v -0.02027611 -0.03424521 0.01811569
v -0.00768091 -0.03671081 0.01158449
v -0.02549851 0.02519479 0.02111409
v -0.02549851 -0.00950601 -0.02047311
v -0.00542811 0.00929399 0.00283249
v -0.02102971 0.02303799 0.02383089
v 0.01481029 -0.00032521 -0.01598991
v -0.00290491 0.03319639 -0.02359951
v -0.01334971 -0.01335241 0.03266609
v 0.00344389 -0.00241321 0.00300209
v 0.02023749 -0.01560361 -0.00446991
v 0.02443589 -0.01645961 0.01607409
v -0.00700091 0.01143159 0.00241009
v -0.00802491 -0.01278601 -0.00782351
v 0.01614149 -0.01374281 -0.02426511
v -0.04878011 -0.01843561 0.02578289
v 0.02781509 -0.03076521 -0.01349231
v -0.02246331 -0.02890921 -0.04555471
v -0.02553531 -0.03509161 -0.04222191
v -0.00034491 -0.00829961 -0.00992431
v -0.02645691 -0.00410761 -0.01395951
v 0.03017029 0.00621399 -0.03941551
v 0.02812229 -0.03560361 0.02600369
v 0.02204389 -0.01623561 0.03937169
v 0.01999589 0.01786519 0.06819409
v -0.04185371 -0.01610121 0.02114609
v -0.01246491 -0.01763881 -0.01432111
v -0.01031451 0.02345559 -0.04551151
v -0.04062491 0.00266679 -0.03859791
v 0.02132709 -0.00973801 -0.00477231
v 0.01610469 -0.00936361 -0.02594031
v 0.02450149 0.01331159 0.04971249
v -0.01533211 -0.02234601 -0.02700111
v 0.02347749 0.05376759 0.02897169
v -0.03939611 0.01480439 0.02575249
v 0.00258789 0.01932119 -0.00202191
v 0.02573029 -0.01641641 -0.04496751
v -0.04031771 -0.01618121 -0.03832271
v -0.03192091 -0.02465321 0.02025809
v -0.00673051 0.00253399 -0.00115791
v -0.02342171 0.00944759 -0.00389551
v 0.00811749 0.01713239 0.06849009
v 0.01866469 -0.03086921 -0.04398191
v 0.01350789 0.00304119 0.06194929
v 0.01043589 -0.02498761 0.02845969
v -0.01987451 -0.04386761 0.02466129
v -0.03349371 0.01164759 0.02092529
v 0.01791109 -0.01789801 -0.00941871
v -0.03124091 -0.02389641 0.01779249
v 0.00756869 0.00679959 0.04970449
v 0.02856069 0.02945719 0.04663409
v 0.04228229 -0.01280681 0.02749649
v 0.00244869 0.01634359 0.05541169
v -0.00482171 -0.02542601 -0.02700911
v 0.01412229 -0.02499881 0.03117009
v 0.04873349 0.01439319 0.03770769
v -0.00881531 -0.03783881 0.01777969
v 0.00275589 -0.00787241 -0.01292911
v -0.01803131 -0.00653961 0.03337969
v -0.03584891 -0.01670601 0.02025489
v 0.02917509 -0.03767721 0.02412689
v 0.01555589 0.00249559 -0.00964111
v 0.01766949 0.00405239 0.06291729
v -0.02421211 -0.04796041 0.02274449
v -0.01581531 -0.01297801 -0.01241871
v 0.05135909 0.02550039 0.03379889
v -0.00834011 -0.02052361 -0.01586991
v 0.00425509 -0.00072681 0.00161009
v 0.01582629 -0.00342761 -0.01995951
v -0.02083291 0.03375479 0.02715089
v 0.02115109 -0.00985961 -0.00523951
v 0.02115109 -0.00985801 -0.00523791
v 0.04531749 0.02837239 0.03841329
v 0.00128549 -0.02297641 -0.02804591
v -0.02595291 0.01504279 0.03132049
v -0.01018331 0.01612919 0.00088369
v -0.01018331 -0.02032041 -0.02696271
v 0.00558629 0.01343959 0.06692369
v 0.00159269 -0.00479561 -0.01053551
v -0.04336091 -0.01537481 0.02473489
v 0.02801189 -0.02259401 0.03025009
v 0.05320229 0.02410519 0.03178129
v 0.00497189 0.00674359 0.05605489
v 0.03958309 -0.01492361 0.02608049
v 0.01234469 0.00466679 0.04971409
v -0.02748891 -0.00699401 -0.01677391
v 0.02391589 0.02683479 0.04837649
v -0.02011611 -0.03748841 -0.04310991
v -0.04524091 -0.00636201 -0.01513071
v 0.04179909 0.04078679 0.02701329
v -0.04309051 -0.00965801 -0.02854351
v -0.02312251 0.01422519 0.00091569
v -0.00213051 -0.04080361 -0.04330991
v -0.01994811 -0.00892521 -0.02480431
v 0.01046469 0.02588599 0.05929649
v 0.04302789 -0.01275881 0.03127729
v 0.01578949 0.02549879 0.06250289
v -0.00612411 0.01579799 0.00084849
v -0.05005371 -0.01611401 0.02395249
v 0.00554949 0.00744439 0.06357489
v 0.00974789 -0.04245801 0.02058769
v 0.01814469 -0.01999881 -0.00308431
v -0.03838011 -0.00533641 0.02084689
v 0.02981829 0.00207799 -0.04271311
v -0.01103931 -0.01447561 -0.00147631
v -0.02455611 0.00426679 0.00046129
v -0.00776251 -0.03878761 -0.04461071
v 0.05203909 0.00648919 0.02690289
v -0.04124731 0.00659799 0.02113969
v 0.00176069 -0.00287241 -0.00006831
v -0.02025531 -0.01066121 -0.02371791
v -0.02435131 0.01917559 0.02164529
v 0.04906949 -0.00316361 0.03274129
v 0.05326789 0.01483319 0.03312849
v 0.01660869 0.00332439 -0.00944271
v 0.02189669 -0.02220361 0.01429809
v 0.00950629 0.02326519 0.05047249
v 0.02107749 -0.02464041 0.03058609
v -0.01558171 -0.04700041 0.02580369
v 0.00336229 0.03900599 0.02595089
v -0.03749531 0.00133079 -0.04425711
v -0.04271771 -0.02404361 0.02612049
v -0.02274971 -0.00028841 0.02810769
v 0.01513829 0.01885719 0.06947889
v -0.02356891 -0.00287081 -0.01377391
v 0.03623269 0.04832919 0.02910929
v -0.02766491 -0.00964681 -0.01723631
v 0.04053349 0.00071319 0.02575569
v 0.00909669 -0.04529641 0.02499569
v -0.01496731 0.01011479 0.02598769
v -0.02541211 0.01812279 0.02773649
v -0.03165851 -0.03487401 0.02147569
v 0.01554789 0.00508279 0.05021969
v -0.03159291 -0.02546921 -0.04445391
v -0.04203771 -0.02044201 0.02526929
v -0.02944251 -0.00472361 -0.01088271
v -0.01357051 -0.04059881 -0.04217871
v 0.00854789 0.00643479 0.06537329
v -0.01449211 -0.03594921 -0.04519151
v -0.00599291 -0.01884041 -0.01895151
v -0.03323131 0.00096119 -0.04555471
v 0.03179269 -0.02027561 0.02080529
v 0.01817349 0.00326359 0.05735409
v 0.03496709 0.02886999 0.04444529
v -0.01111291 0.03964439 0.02593009
v 0.00987909 0.01559639 -0.00414191
v -0.04459771 -0.02953481 0.02327889
v -0.02360571 0.01837719 0.01795089
v 0.01213189 -0.03206921 0.01260049
v -0.03190011 -0.03705481 0.02571569
v -0.02350331 -0.00938601 -0.02002031
v 0.00271109 0.01307479 0.04927889
v 0.05309189 0.00472919 0.02976529
v 0.02595589 0.01402039 0.05545489
v 0.00711429 0.01490359 -0.00415951
v 0.04909829 -0.00482441 0.02889169
v -0.00428891 0.02039479 -0.00010351
v -0.02732891 -0.04494121 0.02581969
v 0.00625829 -0.03341961 0.00650129
v -0.02200411 -0.00098441 0.03259889
v -0.04402011 0.00076279 -0.01899471
v -0.00940891 -0.03493321 0.00542609
v -0.00940891 -0.01937161 -0.02081551
v -0.03664731 0.02781239 0.02477649
v 0.04005029 0.02737239 0.04228369
v -0.02599771 0.01738999 0.03060369
v 0.01598629 -0.03535401 -0.04222031
v -0.00490331 0.01232439 -0.00243151
v 0.01086629 0.01944279 0.06884209
v -0.03838811 -0.02109161 -0.03942031
v -0.01217371 -0.02515561 -0.02691151
v 0.04762789 0.03724279 0.03169329
v -0.03715931 0.01813399 0.02581969
v 0.02376869 -0.01881641 0.01933649
v 0.01014949 0.03580759 0.01087089
v 0.00185509 0.05251479 0.02857009
v 0.04066469 -0.01229801 0.02547089
v -0.02220891 -0.02318761 -0.01408751
v 0.03151429 0.02290679 0.02646609
v 0.01267269 -0.04570121 0.02583249
v 0.02946629 0.03414199 0.04473809
v -0.00494011 0.04325079 0.03817969
v 0.02127429 0.00806359 0.04993809
v 0.02127429 -0.02424841 0.02598129
v -0.04262331 0.00480599 0.02179729
v -0.01640891 0.03883799 0.02416049
v 0.03601989 -0.01877641 0.02684049
v -0.00483771 -0.01871561 0.03341329
v 0.01830469 0.01738039 -0.04470351
v 0.02147909 0.00586999 0.06233489
v 0.01523269 0.05512599 0.03109969
v 0.01943109 0.05363799 0.02787089
v 0.01001029 -0.00181161 0.04764529
v -0.01599931 -0.01015881 -0.01121231
v -0.04630971 0.00594679 0.00250769
v 0.02502629 -0.00680361 0.01030449
v 0.01468389 -0.03380681 0.02038769
v -0.04286491 -0.01516841 0.02163729
v -0.00927771 0.04741879 0.03126129
v -0.00395291 0.03976119 0.02587409
v 0.02123749 -0.00978761 -0.00501071
v -0.00804891 -0.02108041 -0.02685231
v -0.01746971 0.01675959 0.00055249
v 0.00669669 0.05294039 0.03398609
v 0.01089509 0.01128599 -0.00766511
v 0.05083109 0.01091159 0.02638449
v -0.02463771 0.02703159 0.02187409
v -0.00149531 0.00551799 0.04730289
v -0.02658331 -0.04111721 -0.00962511
v -0.00241691 0.01096919 0.04771889
v 0.00495589 -0.00867401 -0.02151951
v 0.02072549 0.02426359 0.05658769
v -0.01071131 -0.03904041 0.02030769
v -0.02948731 -0.02880201 0.02057329
v 0.00307589 0.00956279 0.05684849
v 0.00420229 -0.01078121 -0.01695791
v 0.01679749 0.04873239 0.03852689
v -0.04085371 -0.03489001 0.02273809
v -0.02928251 -0.04513001 0.02477009
v 0.03993989 -0.01843721 0.02388049
v -0.03860091 0.01400759 0.02161969
v -0.02600571 -0.00046441 -0.00348911
v 0.00440709 -0.03527721 0.01054289
v 0.00440709 -0.00978121 -0.01234831
v 0.05058949 0.02974199 0.02761489
v 0.02232709 0.00468279 0.00674609
v 0.00450949 0.02156599 0.05681489
v -0.02375291 -0.00526281 -0.02059311
v 0.00665989 0.02048119 0.00643089
v -0.00061051 -0.01061641 -0.01162991
v -0.01105531 0.01227319 0.00350289
v -0.02887291 -0.03837001 0.02442609
v -0.00265851 -0.03892201 0.01975569
v 0.03195269 0.02368119 0.04689489
v 0.02888069 -0.01211401 -0.04392911
v -0.04556411 -0.00188041 0.02609009
v -0.03081851 0.00668919 0.00650289
v 0.02161029 0.02162999 0.05215889
v 0.02478469 -0.01059721 0.01363569
v 0.02376069 -0.02312521 0.03233809
v 0.03215749 -0.00415241 -0.03988911
v 0.01853829 -0.00184041 0.04756529
v -0.02129531 -0.04452201 0.02566609
v -0.01795291 0.03098679 -0.02294511
v -0.01580251 -0.01181161 0.03060049
v 0.01461029 0.01048599 -0.00413231
v -0.01262811 0.01049719 -0.04503471
v 0.00314149 0.01455319 0.06378289
v 0.05249829 0.00758999 0.03320049
v -0.04601051 -0.00994121 0.02618769
v 0.03263269 0.02097239 0.02277009
v 0.05362469 0.02034039 0.03254289
v -0.01242331 -0.01397641 0.00194769
v 0.01399589 0.01599479 0.00659249
v 0.02136869 0.00709079 0.06451089
v 0.02556709 -0.03618761 -0.00105391
v -0.02051291 -0.03922601 -0.04003311
v 0.00365349 -0.04733001 -0.00472271
v 0.05403429 0.00921399 0.02976849
v 0.01000229 -0.04903081 0.02582929
v -0.03187931 -0.02885641 -0.04265711
v -0.04754651 -0.02214121 0.01933009
v -0.02133211 -0.00717961 -0.01428911
v -0.04017371 0.01649239 -0.00478671
v 0.00600869 0.01842999 0.06645489
v -0.02225371 -0.00957801 -0.04505551
v 0.01655589 -0.00597961 -0.02120591
v -0.02532571 0.02858519 0.02573009
v -0.02003771 -0.02088681 -0.02435951
v -0.02106171 -0.00857161 -0.02398671
v 0.00412869 -0.04655881 0.02492849
v 0.01467589 -0.03181641 -0.04487791
v 0.01887429 0.03760439 0.04543569
v -0.04287291 -0.01829801 -0.01807471
v -0.01665851 0.02543799 0.03931889
v -0.04911931 -0.01111241 0.02617649
v -0.05014331 -0.01258121 0.01940049
v -0.04696891 -0.02469001 0.02471889
v 0.00023749 0.01851159 -0.00249071
v 0.01703109 0.01950999 0.06879409
v -0.02280251 -0.01559401 -0.02591951
v 0.02962629 0.04948759 0.02706769
v -0.02270011 -0.03434281 -0.04425551
v 0.02348229 -0.03016361 -0.03884591
v 0.03085509 0.04696599 0.02681329
v 0.01723589 0.03059959 0.04819569
v 0.04979909 -0.00356521 0.03101329
v -0.00979771 0.03990039 0.02386289
v -0.00764731 -0.00754441 -0.00738511
v 0.01754309 -0.01329641 -0.01699951
v -0.01594171 -0.04451081 0.02147089
v 0.00505029 -0.00947241 -0.01307311
v 0.00931429 0.04872919 0.03832849
v -0.00430491 -0.04735561 0.02531409
v 0.01566309 -0.03193961 0.01993009
v 0.00101989 -0.01635241 -0.02779631
v 0.01781349 0.00310839 -0.00840591
v 0.02201189 0.02057079 0.05011409
v 0.01996389 0.00866039 0.00697169
v -0.04290971 0.01801719 0.02647089
v -0.00410011 -0.02755881 -0.02601871
v 0.02426469 0.01391159 0.05187729
v 0.05262949 0.02223319 0.02741809
v 0.00439909 -0.04753961 0.02567249
v -0.02591131 0.00061239 -0.00631631
v -0.02058651 0.02738839 -0.03841871
v 0.00880229 0.00187159 -0.01666671
v 0.01197669 0.00302039 0.05561489
v 0.02354789 0.00991959 0.06422289
v 0.02354789 -0.02375241 -0.04441071
v 0.01832549 -0.02861481 0.01869489
v -0.00143771 -0.00770121 0.00275889
v 0.01535589 -0.03116201 0.01871409
v 0.01245189 0.01439319 0.07012209
v -0.01990651 0.01903159 0.00858129
v 0.01470469 -0.00852521 0.04493489
v -0.00731131 0.00330039 -0.00200431
v -0.00731131 0.01225559 0.00313009
v -0.02512891 -0.00756841 -0.01812591
v 0.02115589 0.00487319 0.05996209
v 0.01603589 0.00767799 0.06810769
v -0.00802811 -0.04205161 -0.04159791
v -0.03526651 0.02256599 0.02638289
v 0.04450309 0.02109399 0.04067409
v 0.00784389 0.02448439 0.05659089
v 0.02361349 0.01972119 0.06341489
v -0.00120411 -0.05150121 0.02571729
v 0.01139109 0.02618679 -0.04166031
v -0.02424411 -0.04778761 0.02506289
v -0.03038811 0.03247639 0.02331089
v 0.02316709 0.05389239 0.03153649
v -0.02506331 0.02247479 0.02828689
v -0.00509531 0.00260919 -0.00021871
v 0.02009509 0.01469399 0.06863249
v -0.01943131 0.03621079 0.03161969
v 0.01937829 0.00898679 0.06773489
v 0.03197349 -0.02906761 0.02603729
v 0.02470309 -0.03711081 0.02581009
v -0.00775771 0.00408119 0.04453489
v 0.01845669 -0.02494601 0.02879729
v -0.04441691 0.01811159 0.02518769
v 0.00074149 0.02062519 0.00016049
v -0.01390171 -0.02066761 -0.02807471
v -0.02332251 0.02866839 0.02595729
v -0.02219611 0.00610679 -0.00022831
v -0.02219611 -0.01906601 -0.02185551
v 0.00401829 -0.00240361 0.00169649
v -0.02213051 0.03151159 0.03082449
v -0.05029051 -0.00273161 0.02604209
v 0.01268549 0.03636119 0.02622769
v 0.04944709 0.03414359 0.03137809
v 0.01278789 0.02350999 0.06612689
v 0.00234309 0.03024439 -0.03906511
v 0.00551749 0.00913079 0.05060529
v -0.01752251 0.03800919 0.03315569
v 0.00869189 0.01625239 0.06905169
v 0.03490629 -0.02106121 0.02593489
v 0.00766789 -0.03618601 0.01915089
v -0.01957051 -0.04423081 -0.01234511
v 0.04565829 0.01353719 0.04014289
v 0.02057029 -0.02777321 0.02020689
v -0.00144571 0.00790999 -0.00518351
v 0.05425989 0.01920919 0.02978129
v -0.02223291 0.02839639 0.02477649
v -0.02745531 0.00681719 -0.00154831
v -0.00124091 0.03996599 0.02264209
v -0.04947131 0.00454039 0.02599409
v -0.02428091 0.00296599 0.03028529
v -0.00742171 -0.00749001 -0.00578031
v -0.01264411 0.03328439 -0.01786351
v -0.00424731 0.03743639 0.04193969
v -0.01674011 -0.03673961 0.01983409
v 0.01787109 -0.00105961 -0.01263631
v -0.02298651 0.02570359 0.03351569
v -0.01878811 -0.00582121 0.00368049
v 0.00742629 -0.05061001 0.02459409
v 0.01060069 0.05353399 0.02751569
v 0.01694949 0.01514359 0.06997649
v 0.03374309 0.00910359 -0.01049391
v -0.04070171 0.01480119 0.02636689
v -0.03322651 -0.04251721 0.02357809
v 0.00558309 -0.04150761 -0.03929071
v 0.02237669 -0.01081801 -0.04567791
v 0.02247909 0.01872439 -0.04019631
v -0.00895771 -0.04892841 0.00180209
v 0.01019109 0.01644599 -0.00110671
v -0.01909531 -0.02521961 -0.01469551
v -0.03476251 -0.01030441 0.01128529
f 686 167 383
f 383 687 686
f 167 934 383
f 653 686 35
f 407 686 351
f 351 686 687
f 653 167 686
f 875 748 35
f 35 496 875
f 496 984 875
f 329 984 496
f 984 329 812
f 35 407 708
f 35 686 407
f 708 407 767
f 767 351 463
f 767 407 351
f 463 1096 767
f 1076 708 767
f 767 33 1076
f 496 1076 329
f 33 767 1096
f 1076 496 35
f 708 1076 35
f 875 984 510
f 984 1116 510
f 748 653 35
f 687 948 351
f 323 383 119
f 687 383 323
f 538 948 323
f 323 948 687
f 948 463 351
f 538 983 948
f 463 948 983
f 463 983 191
f 276 191 983
f 1202 191 276
f 259 1096 463
f 259 463 191
f 259 191 1202
f 1221 259 1202
f 152 276 983
f 375 1202 276
f 183 1221 1202
f 183 1202 830
f 837 759 33
f 290 581 759
f 306 759 837
f 290 759 306
f 545 306 837
f 837 973 545
f 1125 290 910
f 910 290 306
f 1125 910 202
f 306 545 1089
f 1089 910 306
f 1216 202 910
f 910 1089 1216
f 202 1216 805
f 1089 545 816
f 816 11 1089
f 11 1216 1089
f 11 398 1216
f 545 973 816
f 11 816 1238
f 1216 398 805
f 11 974 398
f 1238 974 11
f 931 812 329
f 984 812 537
f 812 931 236
f 537 812 236
f 1076 193 329
f 33 193 1076
f 193 931 329
f 193 33 759
f 193 759 581
f 193 581 931
f 581 236 931
f 236 581 993
f 1125 581 290
f 1125 993 581
f 537 1116 984
f 537 236 1046
f 993 1046 236
f 1046 993 1229
f 1125 1229 993
f 1229 1125 638
f 33 1096 837
f 259 837 1096
f 1221 84 259
f 84 837 259
f 973 837 84
f 800 1125 202
f 800 202 805
f 638 1125 800
f 805 308 800
f 805 398 945
f 945 398 974
f 308 805 945
f 945 1164 308
f 1094 816 973
f 1094 1238 816
f 973 438 1094
f 1043 974 1238
f 205 1043 1238
f 205 1238 1094
f 84 1221 601
f 601 973 84
f 601 1221 831
f 1221 183 831
f 526 831 183
f 601 831 158
f 973 601 438
f 974 1212 945
f 1043 1212 974
f 601 158 438
f 1092 1212 1043
f 1092 428 1212
f 640 1062 1094
f 1062 205 1094
f 1092 1043 205
f 205 918 1092
f 1092 918 1277
f 428 1092 1277
f 526 158 831
f 1338 526 183
f 158 526 1338
f 451 640 158
f 158 640 438
f 640 1094 438
f 1062 918 205
f 918 1062 1048
f 1277 918 1048
f 640 230 1062
f 1048 1062 230
f 531 428 1277
f 1277 5 531
f 1277 1048 615
f 5 1277 615
f 230 640 268
f 640 451 268
f 230 103 85
f 103 230 268
f 85 615 1048
f 85 1048 230
f 103 550 85
f 85 1337 615
f 1337 85 550
f 428 1314 1212
f 945 1212 1164
f 531 1314 428
f 1338 451 158
f 1338 992 558
f 1338 558 451
f 451 558 1227
f 1227 998 904
f 558 1265 998
f 558 998 1227
f 904 998 1122
f 272 1122 998
f 530 1122 272
f 1265 558 992
f 666 998 1265
f 666 272 998
f 268 451 1227
f 103 268 904
f 1227 904 268
f 1122 550 103
f 103 904 1122
f 928 550 1122
f 530 928 1122
f 550 928 1337
f 848 510 592
f 1219 653 848
f 1219 848 592
f 653 1219 373
f 533 1219 592
f 809 406 287
f 887 406 809
f 887 809 287
f 533 373 1219
f 1119 287 373
f 373 533 162
f 1119 373 162
f 1141 838 74
f 460 74 411
f 1285 287 1119
f 1119 162 753
f 915 1119 753
f 659 1255 753
f 753 162 659
f 717 887 1285
f 887 287 1285
f 1162 312 958
f 958 100 392
f 392 100 151
f 312 249 87
f 100 958 656
f 619 656 87
f 87 656 312
f 958 312 656
f 591 199 958
f 120 958 392
f 1285 1119 829
f 390 829 915
f 915 269 390
f 829 1119 915
f 915 753 1255
f 269 915 1255
f 1278 269 1255
f 619 87 1278
f 1285 838 717
f 829 838 1285
f 269 87 1223
f 1223 249 312
f 1223 312 1162
f 196 1162 294
f 196 1223 1162
f 294 1319 196
f 1319 50 1299
f 74 838 829
f 74 829 390
f 74 390 411
f 269 297 390
f 411 390 297
f 1025 411 297
f 1025 297 620
f 269 1223 196
f 269 196 297
f 1299 196 1319
f 620 297 196
f 620 196 1299
f 620 635 165
f 635 620 1299
f 87 269 1278
f 1223 87 249
f 1299 50 110
f 110 635 1299
f 110 58 635
f 58 110 616
f 616 1086 58
f 722 1086 616
f 635 58 1287
f 189 165 1287
f 165 635 1287
f 1086 1287 58
f 1121 189 1287
f 1025 487 411
f 460 411 487
f 589 198 487
f 140 38 589
f 140 589 1290
f 140 1290 1310
f 589 487 1025
f 1303 589 1025
f 1303 1025 620
f 610 1290 1303
f 589 1303 1290
f 620 165 1303
f 189 1303 165
f 610 1303 189
f 1310 1290 610
f 610 585 1310
f 639 1310 585
f 610 189 1329
f 1329 189 114
f 724 1329 114
f 585 610 1329
f 585 1329 1230
f 1230 1329 724
f 323 126 538
f 13 181 126
f 823 181 13
f 1325 823 13
f 486 983 538
f 126 181 538
f 152 983 486
f 181 823 745
f 745 538 181
f 137 823 1325
f 963 823 137
f 963 135 823
f 1308 135 963
f 715 1308 963
f 1261 383 934
f 167 406 934
f 848 748 875
f 848 653 748
f 510 848 875
f 373 167 653
f 1261 119 383
f 119 1261 13
f 126 323 119
f 126 119 13
f 1199 13 1261
f 13 1199 1325
f 287 167 373
f 406 167 287
f 406 1199 1261
f 406 1261 934
f 996 757 869
f 996 747 757
f 139 996 869
f 68 486 538
f 486 68 614
f 614 152 486
f 614 885 152
f 135 745 823
f 762 68 745
f 745 135 762
f 745 68 538
f 614 68 256
f 762 256 68
f 885 732 152
f 256 388 614
f 1308 762 135
f 762 1308 4
f 4 256 762
f 256 4 1283
f 1283 388 256
f 469 1283 4
f 388 885 614
f 1144 885 388
f 388 1283 779
f 469 779 1283
f 779 423 388
f 423 1144 388
f 779 789 1339
f 715 4 1308
f 850 4 715
f 850 469 4
f 789 779 469
f 789 469 632
f 276 152 375
f 152 732 375
f 375 830 1202
f 846 375 732
f 885 1144 732
f 375 846 830
f 911 732 1144
f 222 911 1144
f 417 911 222
f 423 222 1144
f 267 423 1339
f 1339 423 779
f 267 222 423
f 267 1339 562
f 846 183 830
f 1338 183 846
f 561 914 408
f 561 408 341
f 734 445 561
f 626 882 734
f 882 22 445
f 882 445 734
f 1317 431 22
f 431 1034 22
f 302 892 1262
f 302 617 892
f 1034 445 22
f 626 734 1262
f 1262 57 302
f 483 1339 789
f 1339 483 562
f 483 439 562
f 1334 562 439
f 561 1262 734
f 1262 561 341
f 1024 341 408
f 503 341 1024
f 57 1262 341
f 57 341 503
f 914 721 408
f 1024 408 721
f 721 914 986
f 1222 721 986
f 721 1222 1024
f 843 1222 986
f 227 1328 1222
f 302 57 503
f 617 503 962
f 617 302 503
f 962 503 1024
f 111 617 962
f 661 111 962
f 1024 661 962
f 1024 1222 1328
f 1252 661 1024
f 1024 1328 1252
f 137 291 963
f 963 291 715
f 717 1199 406
f 717 406 887
f 237 1199 717
f 1199 237 1325
f 821 924 576
f 1270 821 576
f 576 924 1158
f 576 1158 41
f 342 41 1158
f 924 821 1047
f 1047 747 996
f 1047 382 747
f 924 1047 996
f 996 139 924
f 924 139 1158
f 139 869 736
f 542 869 544
f 736 869 542
f 677 542 544
f 542 677 736
f 1047 821 1270
f 736 1158 139
f 736 342 1158
f 677 173 736
f 677 703 173
f 382 1047 763
f 156 382 763
f 47 1270 522
f 522 1270 576
f 576 41 522
f 1321 291 137
f 1297 369 991
f 991 206 1297
f 207 76 342
f 1031 525 207
f 525 76 207
f 79 525 1031
f 736 173 342
f 574 342 925
f 342 574 207
f 925 1186 574
f 173 925 342
f 703 925 173
f 949 925 703
f 883 645 695
f 695 645 22
f 1053 1123 883
f 1123 645 883
f 1234 882 626
f 1234 695 882
f 626 573 1234
f 695 22 882
f 1272 648 607
f 857 1123 454
f 857 1317 645
f 1317 22 645
f 795 857 454
f 648 454 1123
f 1053 648 1123
f 607 648 1053
f 607 1053 968
f 179 1272 607
f 179 995 1272
f 1288 995 179
f 1288 179 596
f 607 596 179
f 376 1288 596
f 1123 857 645
f 894 1288 376
f 870 41 76
f 870 522 41
f 41 342 76
f 178 76 1112
f 525 1112 76
f 1112 525 883
f 883 525 79
f 870 76 178
f 207 574 1031
f 574 79 1031
f 883 79 1053
f 178 572 870
f 1186 104 574
f 79 574 104
f 1053 79 968
f 968 79 1273
f 79 104 1273
f 1273 104 172
f 172 1186 760
f 1112 695 369
f 883 695 1112
f 178 1112 369
f 369 695 1234
f 369 1297 178
f 1234 991 369
f 991 1234 573
f 572 178 1297
f 1184 1297 206
f 1184 37 1297
f 968 596 607
f 960 596 968
f 172 784 1273
f 1273 784 968
f 968 784 960
f 784 172 897
f 897 172 760
f 376 596 960
f 960 784 376
f 376 784 897
f 867 376 897
f 867 897 92
f 376 867 658
f 867 92 658
f 726 92 897
f 658 894 376
f 658 92 726
f 838 237 717
f 237 137 1325
f 1243 137 237
f 838 1141 237
f 1141 1243 237
f 1321 137 1243
f 145 255 399
f 28 156 763
f 392 156 28
f 28 763 1103
f 511 1103 763
f 681 199 591
f 681 591 435
f 591 958 120
f 435 591 929
f 921 929 591
f 929 921 399
f 28 359 392
f 359 28 1103
f 359 1103 921
f 392 377 120
f 359 377 392
f 1067 377 359
f 1067 359 921
f 1067 591 120
f 921 591 1067
f 377 1067 120
f 921 511 399
f 921 1103 511
f 511 568 318
f 145 399 511
f 145 511 318
f 318 255 145
f 1162 958 199
f 294 1162 199
f 294 199 473
f 473 199 578
f 473 578 50
f 1319 294 473
f 1319 473 50
f 578 199 681
f 578 681 50
f 188 681 435
f 50 681 188
f 188 435 929
f 961 188 929
f 961 929 399
f 110 50 188
f 110 188 616
f 961 12 188
f 616 188 12
f 12 674 616
f 255 961 399
f 255 71 961
f 12 961 71
f 12 508 674
f 12 71 508
f 71 102 508
f 1130 715 291
f 458 291 1321
f 1130 291 458
f 255 318 572
f 255 572 37
f 71 255 80
f 86 71 80
f 86 772 71
f 572 1297 37
f 116 37 1184
f 80 255 37
f 80 37 116
f 116 86 80
f 102 71 772
f 1130 850 715
f 850 632 469
f 991 1101 206
f 1262 1110 626
f 431 1317 857
f 795 431 857
f 1160 1262 892
f 1101 1110 1160
f 1201 115 1160
f 1262 1160 1110
f 617 1201 1160
f 569 203 617
f 1101 991 573
f 573 1110 1101
f 206 1101 1341
f 1341 1184 206
f 658 726 894
f 1160 115 1101
f 1341 1101 115
f 203 1201 617
f 694 203 360
f 115 1201 694
f 694 1201 203
f 115 1209 1341
f 690 115 694
f 690 694 124
f 483 1206 439
f 569 617 705
f 203 569 201
f 705 617 111
f 111 1017 705
f 1017 661 1070
f 1017 111 661
f 661 1252 1070
f 1017 1070 705
f 1070 569 705
f 1070 201 569
f 201 1070 1252
f 853 1252 1328
f 107 1328 630
f 517 107 630
f 203 201 360
f 201 793 360
f 694 360 793
f 124 694 793
f 1252 853 201
f 793 201 853
f 866 793 853
f 866 853 107
f 866 107 517
f 866 517 509
f 793 1181 124
f 1181 793 866
f 1181 866 509
f 1130 345 850
f 345 632 850
f 88 632 345
f 88 789 632
f 266 1184 1341
f 1184 266 116
f 116 266 1209
f 1341 1209 266
f 116 1209 86
f 690 1209 115
f 1209 690 1254
f 1254 690 124
f 1209 1254 86
f 1254 772 86
f 262 789 88
f 262 483 789
f 262 1206 483
f 1181 1254 124
f 235 1181 509
f 1181 118 1254
f 118 772 1254
f 1181 235 118
f 1338 846 732
f 417 613 911
f 507 732 911
f 1338 732 507
f 911 613 507
f 10 507 613
f 1059 10 613
f 1059 89 10
f 417 222 267
f 562 136 267
f 136 417 267
f 977 136 562
f 1334 977 562
f 136 1059 417
f 1059 613 417
f 977 1059 136
f 24 1059 977
f 1059 1196 89
f 1059 24 1196
f 507 10 1190
f 10 89 1190
f 500 1190 89
f 89 437 500
f 507 992 1338
f 992 507 1190
f 339 1265 992
f 992 1190 339
f 500 339 1190
f 852 339 500
f 401 852 500
f 1196 437 89
f 718 401 437
f 401 500 437
f 24 977 1334
f 437 1196 718
f 856 1196 24
f 856 718 1196
f 24 1334 391
f 391 856 24
f 657 783 46
f 783 651 46
f 70 651 783
f 46 735 355
f 1131 692 46
f 692 735 46
f 46 651 1131
f 675 735 692
f 70 798 651
f 951 651 798
f 70 862 798
f 862 951 798
f 651 951 1131
f 951 479 1131
f 675 1240 735
f 692 1131 1332
f 479 1332 1131
f 692 1332 675
f 1147 675 1332
f 1159 862 384
f 1159 951 862
f 1248 1159 384
f 937 1332 479
f 1146 937 479
f 1159 421 951
f 421 479 951
f 479 421 1146
f 876 1146 421
f 421 1159 876
f 876 834 1146
f 1248 876 1159
f 1248 1172 876
f 1147 1332 937
f 1146 989 937
f 675 1147 859
f 989 1147 937
f 1286 1146 834
f 1286 989 1146
f 1286 834 478
f 834 876 711
f 876 1172 711
f 711 478 834
f 8 478 711
f 8 711 1172
f 1172 415 8
f 1154 39 140
f 355 827 657
f 702 125 827
f 355 702 827
f 39 657 700
f 827 700 657
f 497 1243 1141
f 497 1141 460
f 497 1100 1243
f 412 497 38
f 700 412 38
f 497 412 1100
f 700 125 412
f 74 460 1141
f 198 460 487
f 497 460 198
f 497 198 38
f 38 198 589
f 125 1100 412
f 39 700 38
f 140 39 38
f 125 700 827
f 1155 1321 1243
f 702 1155 125
f 1321 1155 1075
f 355 735 702
f 1075 1155 702
f 702 16 1075
f 1243 1100 1155
f 1100 125 1155
f 416 1154 778
f 1137 416 778
f 1154 657 39
f 1154 783 657
f 70 783 1154
f 70 1154 416
f 862 70 416
f 1154 140 778
f 778 140 1310
f 579 778 1310
f 579 1137 778
f 579 1310 639
f 46 355 657
f 579 639 44
f 639 585 1230
f 1230 724 891
f 1230 891 36
f 44 639 1230
f 1230 36 44
f 36 824 44
f 458 1321 1075
f 1075 123 458
f 123 1130 458
f 123 345 1130
f 274 702 735
f 16 702 274
f 274 735 1240
f 274 1305 16
f 1075 16 1305
f 1305 123 1075
f 1305 345 123
f 443 1305 274
f 443 274 1240
f 1326 1137 579
f 416 1137 862
f 1137 384 862
f 384 868 1248
f 868 384 671
f 671 384 1137
f 671 1137 1326
f 766 868 671
f 1326 254 671
f 254 766 671
f 579 44 1326
f 44 824 64
f 1326 44 64
f 64 254 1326
f 824 254 64
f 254 824 470
f 36 340 824
f 340 470 824
f 854 1248 868
f 1248 854 1172
f 868 766 482
f 482 854 868
f 854 415 1172
f 1228 415 854
f 8 415 755
f 1228 667 415
f 1228 854 482
f 482 1241 1228
f 310 1228 1241
f 766 254 512
f 254 826 512
f 83 512 826
f 482 766 512
f 254 470 826
f 446 826 470
f 245 826 446
f 83 826 245
f 1072 83 245
f 1072 245 739
f 245 446 112
f 112 752 245
f 739 245 752
f 739 752 1182
f 1280 739 1182
f 1280 1072 739
f 1241 482 512
f 532 512 83
f 1241 512 532
f 654 1241 532
f 83 128 532
f 128 83 1072
f 785 128 1072
f 896 128 785
f 532 128 884
f 684 896 785
f 884 128 896
f 551 884 896
f 551 896 814
f 797 884 551
f 654 532 884
f 859 1147 989
f 675 859 1237
f 1286 2 989
f 828 989 2
f 478 2 1286
f 989 828 859
f 223 828 2
f 828 1237 859
f 1237 828 257
f 223 1081 828
f 1081 257 828
f 1237 1240 675
f 257 1240 1237
f 554 2 478
f 554 223 2
f 755 478 8
f 478 755 554
f 554 755 335
f 335 755 598
f 731 1081 223
f 223 554 144
f 731 223 144
f 144 554 335
f 335 534 144
f 1240 257 1045
f 570 1045 257
f 570 257 1081
f 387 570 1081
f 239 1045 570
f 387 777 570
f 261 1240 1045
f 777 239 570
f 239 261 1045
f 731 387 1081
f 144 387 731
f 144 436 387
f 534 436 144
f 1127 777 387
f 436 1127 387
f 663 1127 436
f 345 1305 251
f 443 251 1305
f 440 443 1240
f 29 345 251
f 251 443 29
f 29 88 345
f 29 1 88
f 443 1 29
f 1 262 88
f 443 440 1
f 372 1 440
f 1134 372 440
f 1 372 262
f 1206 262 372
f 440 664 1134
f 1206 577 439
f 577 1334 439
f 1334 577 391
f 682 1206 372
f 577 1206 682
f 682 372 1134
f 682 1134 138
f 1134 664 138
f 682 138 577
f 300 577 138
f 697 300 138
f 138 664 697
f 1161 697 664
f 300 391 577
f 932 391 300
f 697 932 300
f 755 667 598
f 415 667 755
f 1136 598 667
f 1228 310 667
f 1136 667 310
f 310 1006 1136
f 1136 352 598
f 534 335 598
f 598 352 534
f 1136 1099 352
f 1099 1136 1006
f 1042 310 1241
f 1006 310 1042
f 1042 1241 654
f 1189 1042 385
f 54 385 1042
f 797 654 884
f 1253 654 797
f 1253 1042 654
f 621 799 1253
f 54 1042 1253
f 54 1253 799
f 208 799 621
f 1257 98 208
f 1006 1042 1189
f 1006 1189 1099
f 1189 890 1099
f 746 385 54
f 54 799 987
f 987 647 54
f 208 987 799
f 208 98 987
f 54 647 746
f 1189 385 746
f 440 1240 261
f 261 664 440
f 261 239 1180
f 239 777 200
f 1127 200 777
f 200 1180 239
f 1306 559 200
f 261 1180 314
f 822 534 352
f 436 534 663
f 663 534 822
f 1028 663 822
f 1120 822 352
f 352 1099 1120
f 822 1120 1028
f 1279 1028 1120
f 730 1306 1127
f 1127 663 730
f 1306 200 1127
f 790 1306 730
f 790 559 1306
f 730 663 1028
f 1021 730 1028
f 1028 1279 679
f 1028 679 1021
f 1120 1099 890
f 890 1189 746
f 1279 1120 890
f 890 746 556
f 746 221 556
f 647 221 746
f 679 1279 1011
f 1279 890 556
f 556 1315 1279
f 1315 1011 1279
f 556 368 1315
f 368 9 1315
f 221 368 556
f 190 1280 1182
f 455 1280 190
f 684 1072 1280
f 785 1072 684
f 1050 684 1280
f 325 684 1050
f 455 1050 1280
f 1050 796 325
f 1050 211 796
f 455 211 1050
f 684 814 896
f 325 814 684
f 814 325 624
f 1167 814 624
f 325 796 624
f 624 796 707
f 624 707 1167
f 707 916 1167
f 211 455 350
f 350 1307 211
f 796 211 1052
f 707 796 1052
f 1052 211 17
f 17 211 1307
f 299 17 1307
f 1052 17 707
f 471 707 17
f 923 17 299
f 471 17 923
f 471 923 216
f 551 814 797
f 1193 1253 797
f 797 814 1167
f 289 1193 797
f 797 1167 289
f 1253 1193 621
f 621 1193 289
f 621 289 516
f 208 621 516
f 516 1109 208
f 1109 1257 208
f 916 289 1167
f 289 916 231
f 78 516 289
f 1109 516 78
f 917 1109 78
f 231 78 289
f 231 917 78
f 56 231 916
f 1281 231 56
f 916 707 56
f 56 707 471
f 471 216 56
f 216 1281 56
f 1281 919 231
f 697 1161 855
f 1083 391 932
f 932 697 855
f 932 855 1083
f 174 1161 1063
f 749 174 1063
f 1180 200 559
f 1180 1258 314
f 775 1180 559
f 1258 1180 775
f 261 314 664
f 314 1161 664
f 314 1258 450
f 484 450 1258
f 775 484 1258
f 1318 484 775
f 519 484 1318
f 1037 1318 775
f 1037 1207 1318
f 524 519 1318
f 1021 1037 790
f 790 1037 559
f 1037 775 559
f 1037 1021 1207
f 1021 790 730
f 1207 1021 679
f 450 1161 314
f 1063 1161 450
f 1069 524 1207
f 1318 1207 524
f 524 1069 1204
f 1204 461 524
f 241 851 9
f 851 1204 9
f 519 1063 450
f 519 450 484
f 169 1063 519
f 1214 169 519
f 1214 519 524
f 1214 524 461
f 749 1063 169
f 749 169 1108
f 169 1214 1108
f 1108 1214 461
f 1108 835 749
f 461 835 1108
f 835 461 851
f 461 1204 851
f 1207 679 1011
f 1207 1011 1069
f 1204 1069 1011
f 1011 1315 9
f 1011 9 1204
f 382 1320 747
f 1270 763 1047
f 47 763 1270
f 522 568 47
f 949 1186 925
f 1186 949 760
f 1186 172 104
f 511 763 47
f 511 47 568
f 870 318 522
f 318 568 522
f 870 572 318
f 1110 573 626
f 617 1160 892
f 853 1328 107
f 1116 537 1044
f 1044 338 476
f 520 592 510
f 1116 520 510
f 1116 491 520
f 491 1116 1044
f 1150 592 520
f 491 1150 520
f 491 1044 476
f 864 338 1217
f 491 476 750
f 864 476 338
f 1217 638 1102
f 543 1322 444
f 543 374 1322
f 1322 374 1304
f 1304 646 1322
f 844 1304 374
f 592 1150 444
f 533 592 19
f 19 592 444
f 444 1150 543
f 491 543 1150
f 1296 533 19
f 1140 1064 466
f 1140 466 275
f 1064 1176 466
f 348 1064 132
f 260 288 156
f 725 378 1192
f 903 725 1192
f 903 301 725
f 348 903 366
f 348 1002 1064
f 366 1002 348
f 288 903 1192
f 288 260 366
f 366 903 288
f 232 301 903
f 491 750 374
f 491 374 543
f 750 476 864
f 750 1232 844
f 1054 844 1232
f 864 1232 750
f 1191 804 646
f 499 275 1191
f 275 804 1191
f 1140 902 1064
f 499 902 1140
f 1140 275 499
f 1064 902 132
f 346 902 499
f 43 346 499
f 1191 43 499
f 374 750 844
f 676 902 346
f 1231 646 1304
f 1304 844 278
f 646 1231 1205
f 1205 1191 646
f 1231 1304 278
f 1191 1205 43
f 346 43 719
f 719 43 1205
f 1205 252 719
f 232 488 301
f 389 159 301
f 488 232 1058
f 389 301 488
f 348 132 1058
f 1058 232 348
f 232 903 348
f 902 676 132
f 676 346 719
f 1058 132 599
f 132 676 1153
f 981 132 1153
f 719 1035 1153
f 676 719 1153
f 1035 719 252
f 1058 599 488
f 599 781 488
f 488 781 389
f 599 132 981
f 1296 1255 659
f 1296 19 678
f 1255 1296 678
f 162 1296 659
f 678 19 444
f 646 1255 678
f 678 444 1322
f 678 1322 646
f 162 533 1296
f 1064 656 1176
f 656 1128 1176
f 1176 30 466
f 990 30 1176
f 990 1176 1128
f 646 1335 1255
f 1278 1255 1335
f 990 1278 1335
f 1278 990 1128
f 656 619 1128
f 619 1278 1128
f 1335 646 804
f 1335 30 990
f 1335 758 30
f 758 1335 804
f 758 275 30
f 466 30 275
f 100 656 1064
f 1002 100 1064
f 151 100 1002
f 392 151 260
f 392 260 156
f 151 1002 260
f 1002 366 260
f 1287 1086 1121
f 1121 1086 316
f 1030 114 1121
f 114 189 1121
f 114 1030 185
f 1121 316 1030
f 1030 316 141
f 275 758 804
f 864 1054 1232
f 1054 864 1217
f 981 1153 740
f 1217 1233 1054
f 1233 1217 1102
f 449 1233 1102
f 278 844 1054
f 278 1054 971
f 278 971 1231
f 1205 1231 252
f 971 1054 1233
f 252 1231 1077
f 1090 1035 252
f 252 1077 1090
f 1153 1035 1090
f 1090 740 1153
f 1090 672 740
f 1231 971 1077
f 971 1233 449
f 449 1077 971
f 672 1090 1077
f 73 1077 449
f 1044 537 1046
f 1044 1046 338
f 170 976 633
f 1041 1091 1082
f 976 506 52
f 1041 52 506
f 1046 1229 338
f 1217 338 1229
f 1217 1229 638
f 514 1225 1049
f 811 304 283
f 959 943 811
f 187 811 430
f 1106 959 187
f 811 187 959
f 811 943 304
f 514 1049 149
f 149 1049 209
f 283 304 1236
f 811 283 557
f 878 283 1236
f 557 283 334
f 878 334 283
f 334 940 557
f 1298 394 940
f 1298 940 334
f 912 117 394
f 182 394 117
f 430 811 557
f 182 430 557
f 1049 1225 117
f 1066 117 1225
f 430 182 187
f 1066 187 182
f 1049 117 912
f 209 1049 912
f 117 1066 182
f 1236 304 1301
f 552 912 394
f 182 557 940
f 940 394 182
f 552 394 464
f 220 552 464
f 912 552 209
f 552 220 101
f 356 1183 495
f 495 1183 180
f 194 55 1183
f 194 333 55
f 180 514 149
f 333 1066 55
f 1225 514 55
f 1066 1225 55
f 180 1183 514
f 55 514 1183
f 180 1218 495
f 673 180 149
f 612 633 356
f 612 356 495
f 633 1183 356
f 633 194 1183
f 495 1080 612
f 633 976 194
f 737 495 1218
f 495 737 1080
f 1218 180 673
f 52 1041 1274
f 1274 1041 959
f 943 959 1041
f 943 1041 1082
f 1274 1106 330
f 194 1274 330
f 959 1106 1274
f 330 1066 333
f 330 1106 187
f 330 187 1066
f 330 333 194
f 194 52 1274
f 194 976 52
f 673 149 209
f 101 209 552
f 101 673 209
f 1218 673 982
f 334 878 477
f 304 419 1301
f 1224 1342 147
f 590 1133 419
f 590 23 782
f 782 1133 590
f 1133 1301 419
f 1342 1224 1301
f 1342 1301 1133
f 1133 62 1342
f 62 442 1342
f 540 536 170
f 909 170 633
f 909 633 612
f 540 170 909
f 536 976 170
f 612 582 909
f 418 909 953
f 953 909 582
f 540 603 453
f 603 540 909
f 869 953 770
f 770 953 628
f 953 582 628
f 582 901 426
f 901 582 612
f 628 582 426
f 1177 628 426
f 901 1177 426
f 1091 1041 506
f 159 1082 1091
f 536 506 976
f 506 536 1091
f 453 536 540
f 159 536 453
f 159 1091 536
f 668 378 603
f 453 378 725
f 453 725 159
f 757 953 869
f 757 418 953
f 603 418 747
f 1320 603 747
f 668 603 1320
f 757 747 418
f 603 909 418
f 378 453 603
f 544 869 770
f 628 930 770
f 544 770 930
f 628 1260 930
f 1177 1260 628
f 1177 549 1260
f 549 930 1260
f 549 1300 930
f 1061 1300 549
f 456 549 1177
f 1061 549 741
f 1300 544 930
f 741 549 367
f 456 367 549
f 456 1177 609
f 553 23 160
f 409 160 1343
f 1343 160 159
f 160 409 553
f 612 1080 901
f 472 901 1080
f 472 1080 737
f 1218 1020 737
f 472 737 1149
f 1020 1149 737
f 1177 901 609
f 609 901 106
f 901 472 1149
f 106 901 1149
f 1218 982 1020
f 1149 1020 665
f 906 665 1020
f 106 1149 787
f 441 1149 665
f 787 1149 441
f 609 106 787
f 452 456 609
f 609 787 1208
f 452 609 1208
f 648 82 454
f 82 1272 148
f 454 82 1244
f 148 1244 82
f 1244 1324 176
f 113 787 48
f 379 787 113
f 379 113 969
f 148 1324 1244
f 204 1324 148
f 782 23 553
f 494 782 553
f 782 494 1133
f 555 442 62
f 787 1060 1208
f 1060 787 379
f 1060 354 1208
f 434 1060 379
f 1060 434 354
f 1164 1212 1314
f 1173 800 308
f 1102 800 1173
f 1102 638 800
f 649 1173 308
f 1336 308 587
f 791 62 1133
f 308 1164 587
f 693 442 555
f 494 791 1133
f 555 62 791
f 1019 587 1164
f 1164 1314 1019
f 727 1314 25
f 727 1019 1314
f 464 394 944
f 944 220 464
f 1298 944 394
f 944 1298 669
f 669 1032 944
f 1157 1032 669
f 220 944 1032
f 15 220 1032
f 1032 1157 15
f 15 1157 738
f 1157 634 738
f 738 634 347
f 15 1118 220
f 220 1118 101
f 947 1118 15
f 1118 947 1095
f 445 941 561
f 445 1166 941
f 75 7 320
f 459 7 75
f 947 15 81
f 81 15 738
f 7 947 81
f 7 714 320
f 714 7 81
f 60 714 81
f 738 60 81
f 459 947 7
f 845 947 459
f 75 320 1251
f 1251 320 833
f 765 1251 833
f 320 714 60
f 738 347 60
f 833 320 60
f 433 845 459
f 947 845 1095
f 988 1298 334
f 988 334 477
f 988 529 1298
f 529 988 1126
f 147 988 477
f 988 147 1126
f 1126 147 186
f 147 1342 186
f 669 529 637
f 1298 529 669
f 637 1157 669
f 637 93 1157
f 1126 600 529
f 1009 93 637
f 600 637 529
f 600 1009 637
f 93 634 1157
f 600 1256 1009
f 706 93 1009
f 706 634 93
f 634 706 347
f 1009 240 706
f 240 1009 1256
f 618 31 1256
f 442 186 1342
f 982 101 922
f 922 101 1118
f 1022 922 1118
f 1029 347 706
f 706 240 1029
f 1251 561 403
f 75 1251 403
f 941 403 561
f 765 561 1251
f 228 403 941
f 1166 228 941
f 914 561 765
f 914 765 723
f 833 1029 765
f 765 1029 636
f 636 1029 240
f 723 765 636
f 636 933 723
f 636 240 858
f 184 636 858
f 184 858 130
f 723 424 914
f 723 933 768
f 768 933 184
f 723 768 424
f 970 768 146
f 933 636 184
f 146 184 213
f 146 768 184
f 31 240 1256
f 580 1337 928
f 14 819 353
f 441 665 322
f 405 441 322
f 322 595 265
f 48 441 405
f 787 441 48
f 405 14 48
f 819 405 322
f 14 405 819
f 353 819 764
f 1185 764 841
f 265 841 764
f 764 322 265
f 849 91 45
f 45 265 849
f 819 322 764
f 597 228 1166
f 1171 228 597
f 1166 445 1034
f 1013 807 1166
f 1013 501 807
f 807 1171 597
f 1166 807 597
f 1171 393 228
f 807 1247 1171
f 872 393 1171
f 1247 872 1171
f 45 841 265
f 841 393 872
f 841 45 393
f 370 45 91
f 49 454 353
f 49 353 253
f 629 49 253
f 975 629 1185
f 454 49 795
f 49 629 795
f 431 795 1034
f 629 975 795
f 795 975 1034
f 353 1244 475
f 475 14 353
f 454 1244 353
f 176 475 1244
f 704 475 176
f 588 704 176
f 475 969 14
f 48 969 113
f 969 48 14
f 704 969 475
f 969 704 379
f 764 253 353
f 253 764 629
f 629 764 1185
f 1324 588 176
f 588 1324 204
f 588 422 704
f 434 379 704
f 434 704 1267
f 1013 1166 1034
f 326 975 1185
f 841 326 1185
f 501 1013 326
f 501 326 1179
f 1179 326 841
f 501 1179 1247
f 326 1034 975
f 1034 326 1013
f 501 1247 807
f 1179 841 872
f 872 1247 1179
f 922 906 982
f 849 906 922
f 906 1020 982
f 665 906 595
f 849 595 906
f 849 922 1022
f 1022 91 849
f 322 665 595
f 265 595 849
f 986 914 424
f 986 424 843
f 843 424 970
f 970 424 768
f 1222 843 227
f 1245 227 843
f 227 630 1328
f 630 227 1245
f 331 836 954
f 954 839 1114
f 539 429 565
f 539 565 836
f 836 331 539
f 25 1314 531
f 1340 531 5
f 1340 25 531
f 615 1213 5
f 1213 594 5
f 1213 615 1337
f 580 1213 1337
f 693 215 442
f 594 1340 5
f 773 215 693
f 773 693 662
f 662 215 773
f 1117 662 693
f 957 593 1117
f 662 593 462
f 593 662 1117
f 839 462 593
f 727 25 1340
f 580 928 729
f 564 1213 580
f 1320 382 1192
f 382 288 1192
f 301 159 725
f 502 1300 1061
f 1061 741 502
f 677 544 1300
f 677 1300 502
f 502 703 677
f 703 502 523
f 703 523 949
f 502 741 367
f 367 523 502
f 523 367 1330
f 367 456 452
f 1330 367 452
f 1330 949 523
f 156 288 382
f 1343 159 389
f 608 553 409
f 1343 389 409
f 781 409 389
f 781 1015 409
f 1015 781 599
f 409 1015 608
f 6 1330 452
f 1272 82 648
f 148 1272 204
f 204 1272 995
f 1288 204 995
f 913 949 1330
f 685 949 913
f 485 949 685
f 949 485 769
f 434 485 685
f 897 760 726
f 1330 6 913
f 6 452 1208
f 1208 354 6
f 354 913 6
f 685 913 643
f 354 643 913
f 685 643 434
f 643 354 434
f 273 1086 722
f 616 674 722
f 1086 273 316
f 316 273 863
f 674 273 722
f 1030 141 185
f 141 316 863
f 1323 141 863
f 1323 18 141
f 273 776 863
f 863 776 1078
f 1323 863 1078
f 563 1078 776
f 1323 1115 18
f 305 185 141
f 305 141 18
f 508 1085 674
f 900 1085 102
f 776 273 900
f 900 563 776
f 563 109 1078
f 400 109 563
f 109 1323 1078
f 865 1323 109
f 865 1115 1323
f 18 1115 305
f 865 109 365
f 504 865 365
f 1115 865 504
f 504 1014 1115
f 563 900 400
f 365 109 400
f 264 1115 1014
f 660 264 1014
f 365 400 61
f 1200 504 365
f 504 1200 964
f 1014 504 964
f 964 660 1014
f 926 61 400
f 1200 365 61
f 1200 61 641
f 964 1200 20
f 20 1200 641
f 900 926 400
f 61 926 427
f 641 61 427
f 493 964 20
f 660 964 493
f 774 641 427
f 774 427 315
f 315 427 926
f 20 641 774
f 680 926 900
f 315 480 774
f 1143 493 20
f 20 774 480
f 480 1143 20
f 1143 480 712
f 238 1143 712
f 740 336 981
f 981 336 248
f 608 1004 553
f 336 740 817
f 817 77 336
f 1169 248 336
f 1169 336 474
f 474 336 77
f 218 77 65
f 553 1004 494
f 780 494 1004
f 1004 127 994
f 492 780 1004
f 994 492 1004
f 474 77 1087
f 492 791 780
f 981 248 599
f 127 1015 599
f 127 599 248
f 1015 1004 608
f 127 1004 1015
f 994 127 248
f 994 248 1169
f 817 740 672
f 672 65 817
f 817 65 77
f 1077 432 672
f 65 672 432
f 606 1077 73
f 432 1077 606
f 432 218 65
f 492 994 1169
f 474 59 1169
f 77 218 1087
f 888 492 1169
f 1169 59 888
f 1102 1173 177
f 449 1102 177
f 177 1173 649
f 649 541 177
f 649 308 1336
f 541 649 1336
f 474 1087 548
f 177 73 449
f 218 432 606
f 218 606 1105
f 155 606 73
f 541 73 177
f 218 1187 1087
f 1105 606 155
f 1187 218 1105
f 541 155 73
f 1087 1187 548
f 535 1187 1105
f 155 541 1113
f 535 1105 155
f 1336 1174 541
f 541 1174 1113
f 791 494 780
f 956 791 492
f 956 555 791
f 528 693 555
f 555 956 528
f 528 957 693
f 492 888 956
f 59 688 888
f 474 688 59
f 1327 888 688
f 956 888 1327
f 956 1327 528
f 688 1168 1327
f 1327 1168 528
f 528 1168 233
f 1019 1336 587
f 1336 1019 1174
f 1174 1019 1284
f 414 474 548
f 548 1187 298
f 298 1187 535
f 1198 535 155
f 298 535 1198
f 548 298 414
f 298 1001 414
f 1001 298 1198
f 1284 1113 1174
f 1198 155 1113
f 688 474 683
f 414 683 474
f 1246 414 1001
f 234 1246 1001
f 575 688 683
f 683 414 1246
f 234 26 1246
f 1198 234 1001
f 234 1198 1074
f 802 234 1074
f 1284 1019 727
f 425 1284 727
f 1113 1284 425
f 425 1074 1113
f 425 727 623
f 1113 1074 1198
f 1074 425 250
f 588 204 1288
f 1065 422 588
f 894 1065 1288
f 588 1288 1065
f 769 760 949
f 1023 1065 894
f 1065 1023 1302
f 1302 422 1065
f 1302 1267 422
f 704 422 1267
f 1267 769 485
f 485 434 1267
f 726 760 769
f 769 164 726
f 894 726 164
f 716 313 894
f 1023 894 313
f 769 965 164
f 716 164 965
f 716 1023 313
f 716 1302 1023
f 716 965 1302
f 894 164 716
f 769 1267 965
f 1302 965 1267
f 630 1245 895
f 517 630 895
f 517 895 402
f 402 895 1026
f 985 402 1026
f 985 1026 1156
f 1026 1027 1156
f 1027 985 1156
f 1027 1026 527
f 1026 895 527
f 985 1027 527
f 402 985 527
f 966 895 1003
f 966 1003 429
f 1057 966 429
f 527 895 966
f 733 527 966
f 966 1057 505
f 371 517 402
f 371 402 794
f 402 527 794
f 527 733 794
f 509 517 371
f 509 371 794
f 505 733 966
f 163 153 296
f 1114 331 954
f 331 280 296
f 280 331 1114
f 1114 571 280
f 163 296 280
f 1057 429 539
f 539 296 1057
f 296 539 331
f 153 505 296
f 1266 153 163
f 1266 163 1104
f 163 571 1104
f 505 1071 733
f 1071 505 153
f 680 315 926
f 102 611 680
f 680 34 315
f 34 680 880
f 880 1000 34
f 880 680 611
f 481 880 611
f 880 481 133
f 133 1000 880
f 226 1000 1010
f 1010 1000 1295
f 1151 1194 235
f 235 1194 118
f 1194 772 118
f 1151 235 509
f 509 794 1151
f 404 794 733
f 1194 1151 404
f 1194 404 967
f 772 1129 102
f 1194 1129 772
f 1268 1266 1104
f 1268 1250 1266
f 1266 1250 1316
f 1071 153 1266
f 1071 861 967
f 861 1071 1266
f 1316 861 1266
f 611 102 481
f 1000 133 1139
f 1295 1000 1139
f 1139 133 481
f 967 1129 1194
f 967 820 1129
f 820 967 861
f 820 861 642
f 1129 820 277
f 1129 481 102
f 277 481 1129
f 642 277 820
f 277 642 457
f 481 277 871
f 871 277 457
f 457 171 871
f 212 871 171
f 457 1097 171
f 171 1097 363
f 1097 457 546
f 212 171 448
f 448 171 363
f 861 1316 642
f 1316 457 642
f 1316 270 457
f 270 546 457
f 1152 270 1316
f 546 270 243
f 90 546 243
f 1139 481 622
f 212 622 481
f 1139 622 212
f 212 481 871
f 693 957 1117
f 593 957 942
f 1178 839 593
f 1114 839 1178
f 1178 593 942
f 528 1012 957
f 1012 942 957
f 233 1012 528
f 575 1168 688
f 942 1012 233
f 575 233 1168
f 1188 942 233
f 575 324 233
f 1188 233 324
f 625 1178 1313
f 1178 942 547
f 547 942 1188
f 1188 396 547
f 324 575 873
f 396 1188 324
f 1313 1178 547
f 396 1313 547
f 873 1056 324
f 623 727 1340
f 623 1340 594
f 594 1213 815
f 873 575 683
f 1246 26 683
f 309 683 26
f 873 683 309
f 26 234 802
f 802 309 26
f 1249 309 802
f 1249 303 309
f 623 358 425
f 358 250 425
f 258 802 1074
f 250 258 1074
f 594 358 623
f 309 303 873
f 873 303 284
f 1249 877 303
f 1056 873 284
f 1282 358 594
f 358 1282 250
f 729 564 580
f 1114 1178 625
f 571 1114 625
f 625 1104 571
f 420 729 744
f 815 1213 564
f 324 567 396
f 315 361 480
f 315 34 361
f 361 712 480
f 712 361 226
f 361 34 226
f 226 34 1000
f 226 689 712
f 1249 802 258
f 877 284 303
f 1226 284 877
f 1259 877 258
f 258 877 1249
f 1226 877 1259
f 1282 327 258
f 327 1259 258
f 258 250 1282
f 594 815 1282
f 327 1282 815
f 1313 566 625
f 1152 566 1313
f 1313 567 1152
f 1268 1104 625
f 625 566 1268
f 1268 566 1250
f 1152 1316 1250
f 1250 566 1152
f 396 567 1313
f 1056 567 324
f 1152 567 1056
f 284 920 1056
f 1056 467 1152
f 467 1056 349
f 920 349 1056
f 1084 349 920
f 281 349 1084
f 281 1135 927
f 467 270 1152
f 670 467 246
f 349 246 467
f 881 246 349
f 281 881 349
f 938 420 271
f 243 270 467
f 243 467 670
f 670 217 157
f 217 670 246
f 217 1293 157
f 217 246 881
f 881 927 217
f 927 881 281
f 1135 271 927
f 271 1135 938
f 1293 217 927
f 978 1293 271
f 1293 927 271
f 744 271 420
f 1084 284 1226
f 1084 1226 1259
f 1084 920 284
f 327 815 1331
f 1215 1259 327
f 327 1331 1215
f 1331 815 564
f 1331 564 950
f 1259 1135 1084
f 281 1084 1135
f 1135 1259 1215
f 938 1135 1215
f 1215 950 938
f 950 1215 1331
f 950 564 420
f 420 564 729
f 938 950 420
f 339 852 584
f 1265 339 666
f 584 666 339
f 852 279 584
f 852 401 279
f 279 560 584
f 584 272 666
f 1239 272 584
f 584 560 1239
f 272 1239 530
f 972 1239 560
f 51 279 401
f 729 928 530
f 1239 1211 530
f 1211 1239 972
f 401 718 51
f 51 560 279
f 744 729 530
f 893 51 718
f 742 560 51
f 893 742 51
f 744 530 1211
f 801 1211 972
f 972 560 801
f 1175 742 893
f 363 1097 99
f 546 90 1097
f 99 1097 90
f 99 90 397
f 27 397 90
f 879 90 243
f 801 560 742
f 90 879 27
f 879 157 27
f 879 243 157
f 157 243 670
f 157 1292 27
f 122 380 801
f 744 1211 1016
f 1211 801 1016
f 271 1016 286
f 1292 157 1293
f 286 1016 380
f 978 1292 1293
f 380 978 286
f 978 271 286
f 380 1016 801
f 1016 271 744
f 114 185 724
f 724 185 946
f 891 724 192
f 192 724 946
f 946 185 305
f 166 946 305
f 946 166 604
f 192 946 604
f 36 891 490
f 891 192 195
f 490 891 195
f 604 195 192
f 1294 195 604
f 166 305 1115
f 1115 264 166
f 264 604 166
f 105 604 264
f 1294 229 1163
f 105 264 168
f 168 264 660
f 660 493 168
f 1143 761 493
f 1143 238 761
f 691 168 493
f 493 761 691
f 761 295 691
f 604 105 1294
f 1294 105 229
f 229 105 168
f 96 229 168
f 96 168 691
f 96 97 229
f 96 295 311
f 96 691 295
f 36 490 340
f 955 340 490
f 1165 490 195
f 1165 955 490
f 340 955 470
f 1165 195 1294
f 446 470 955
f 446 955 1107
f 1107 955 1165
f 112 446 1107
f 112 1107 197
f 197 1107 886
f 197 886 386
f 1107 131 886
f 386 886 131
f 386 131 1309
f 1165 1294 1163
f 97 1163 229
f 1107 1165 1163
f 1107 1163 465
f 1163 97 465
f 1148 465 97
f 1005 131 465
f 1107 465 131
f 142 1309 131
f 142 131 1005
f 1005 465 328
f 142 1005 1040
f 362 142 1040
f 328 1040 1005
f 328 465 1148
f 752 112 197
f 197 1008 752
f 752 1008 161
f 1008 197 386
f 1008 386 907
f 161 1182 752
f 898 161 413
f 898 1182 161
f 161 1008 413
f 860 1008 907
f 413 1008 860
f 1309 150 386
f 907 386 150
f 1170 907 150
f 1038 1170 150
f 860 907 1170
f 224 860 129
f 1170 129 860
f 94 129 1170
f 94 1170 1038
f 150 1309 1038
f 1038 1309 142
f 905 1038 142
f 905 142 362
f 362 1263 905
f 1263 362 219
f 1038 905 792
f 94 1038 792
f 244 94 792
f 244 792 605
f 905 1263 792
f 605 792 1263
f 96 1148 97
f 311 1148 96
f 238 712 689
f 689 874 238
f 874 689 357
f 761 238 874
f 295 761 874
f 498 295 874
f 498 874 357
f 293 226 1010
f 293 357 689
f 357 293 586
f 357 586 813
f 311 498 743
f 1271 311 743
f 295 498 311
f 979 810 743
f 743 810 1271
f 357 813 498
f 743 498 813
f 813 979 743
f 1010 1295 1073
f 175 293 1010
f 586 293 175
f 1139 1073 1295
f 175 1010 1073
f 175 1073 1195
f 282 586 175
f 175 1195 282
f 847 212 448
f 214 847 448
f 1036 212 847
f 321 1036 847
f 212 1036 1073
f 1139 212 1073
f 1195 1073 1036
f 650 1195 1036
f 1195 650 282
f 650 1036 321
f 979 518 810
f 225 518 979
f 586 282 979
f 979 813 586
f 979 282 225
f 650 825 154
f 825 650 321
f 225 154 788
f 225 282 154
f 788 154 825
f 825 292 788
f 282 650 154
f 1040 328 219
f 328 939 219
f 1197 939 328
f 1197 701 939
f 317 40 1197
f 40 317 21
f 1138 806 818
f 69 806 1138
f 219 362 1040
f 1088 219 939
f 1088 1263 219
f 1088 63 1263
f 939 95 1088
f 95 939 818
f 1088 95 806
f 63 1088 806
f 806 95 818
f 63 709 1263
f 709 605 1263
f 709 63 1098
f 63 806 307
f 307 806 69
f 263 307 69
f 1098 63 307
f 818 939 1138
f 939 952 1138
f 447 647 952
f 701 447 952
f 952 987 842
f 756 842 98
f 987 98 842
f 987 952 647
f 98 1257 756
f 1109 756 1257
f 842 1138 952
f 756 1138 842
f 1138 756 69
f 631 69 756
f 1197 40 701
f 952 939 701
f 701 40 447
f 1271 1148 311
f 1271 1197 1148
f 1197 328 1148
f 317 1197 1271
f 317 1271 810
f 810 518 317
f 489 583 21
f 583 489 713
f 241 368 713
f 489 908 788
f 788 292 72
f 489 788 72
f 21 908 489
f 72 713 489
f 447 121 647
f 121 447 583
f 647 121 221
f 447 40 583
f 21 583 40
f 121 368 221
f 713 121 583
f 368 121 713
f 908 21 518
f 225 908 518
f 317 518 21
f 908 225 788
f 293 689 226
f 936 898 413
f 190 898 936
f 898 190 1182
f 319 190 936
f 190 319 455
f 319 350 455
f 1220 319 936
f 1220 936 1203
f 1203 771 1220
f 413 224 1203
f 224 413 860
f 936 413 1203
f 1203 224 134
f 134 224 129
f 129 94 1055
f 129 1055 134
f 1033 1203 134
f 1033 771 1203
f 1033 134 899
f 899 134 1055
f 899 1055 1093
f 468 899 381
f 1055 94 244
f 1093 1055 244
f 1093 244 332
f 709 999 605
f 627 1093 332
f 627 899 1093
f 899 627 381
f 381 627 395
f 644 627 332
f 395 627 644
f 350 319 1220
f 350 299 1307
f 299 350 1124
f 771 997 1220
f 350 997 1124
f 1220 997 350
f 997 1311 1124
f 1269 1311 468
f 1311 808 1124
f 1269 808 1311
f 1033 1311 771
f 1311 1033 468
f 1311 997 771
f 899 468 1033
f 1079 299 1124
f 1235 299 1079
f 923 299 1235
f 1079 1124 808
f 808 1333 1079
f 1333 808 1269
f 923 1235 980
f 216 923 980
f 1235 1079 1333
f 1333 1289 980
f 980 1235 1333
f 468 381 655
f 655 381 395
f 395 1276 655
f 364 1276 1291
f 644 1276 395
f 1333 1269 655
f 468 655 1269
f 364 1333 655
f 1276 364 655
f 605 332 244
f 332 605 999
f 919 917 231
f 53 709 1098
f 999 709 53
f 53 1018 999
f 307 263 1275
f 1098 1275 53
f 1275 1098 307
f 1018 53 1275
f 332 999 1018
f 644 332 1018
f 644 1018 803
f 803 1018 1145
f 840 263 935
f 1275 263 840
f 1275 840 1145
f 1210 1145 840
f 42 840 935
f 1018 1275 1145
f 1145 1210 803
f 631 756 1109
f 631 1109 935
f 631 263 69
f 935 263 631
f 917 935 1109
f 935 917 42
f 1281 652 919
f 652 889 919
f 919 889 917
f 917 889 42
f 1264 840 42
f 889 1264 42
f 344 889 652
f 344 1264 889
f 216 980 754
f 216 652 1281
f 754 652 216
f 980 1289 754
f 1289 364 285
f 1289 285 344
f 1289 1333 364
f 344 754 1289
f 344 652 754
f 1210 1291 803
f 1276 644 803
f 1276 803 1291
f 1264 1210 840
f 285 1291 1210
f 285 1210 1264
f 1264 344 285
f 285 364 1291
f 893 718 108
f 108 718 856
f 1175 893 108
f 751 108 856
f 751 1132 108
f 3 1132 751
f 1132 1175 108
f 1039 1175 1132
f 1039 728 1175
f 3 337 1132
f 337 1039 1132
f 1007 337 3
f 1083 856 391
f 856 1083 710
f 1083 855 710
f 710 751 856
f 855 1161 174
f 710 210 751
f 710 855 174
f 710 174 210
f 751 210 3
f 1007 3 210
f 210 699 1007
f 1007 699 786
f 786 67 1007
f 67 786 720
f 1051 242 67
f 67 720 1051
f 410 1051 143
f 143 1051 720
f 410 292 1051
f 72 292 410
f 699 210 174
f 174 749 247
f 247 699 174
f 247 749 1111
f 1111 749 835
f 1111 786 247
f 247 786 699
f 143 1111 1242
f 143 786 1111
f 143 720 786
f 832 363 99
f 214 448 363
f 832 99 397
f 214 363 832
f 397 698 832
f 698 397 27
f 832 698 1312
f 696 832 1312
f 1312 1292 515
f 515 696 1312
f 728 742 1175
f 1142 696 66
f 242 1142 337
f 337 1142 66
f 242 337 67
f 214 832 696
f 1142 214 696
f 1142 847 214
f 321 847 1142
f 242 321 1142
f 728 1039 66
f 696 515 521
f 66 696 521
f 521 728 66
f 337 66 1039
f 337 1007 67
f 1292 698 27
f 698 1292 1312
f 515 1292 380
f 380 1292 978
f 122 801 742
f 521 122 728
f 515 122 521
f 122 742 728
f 122 515 380
f 292 825 1051
f 825 321 242
f 1051 825 242
f 1068 241 410
f 241 1068 851
f 713 72 241
f 241 72 410
f 410 143 1068
f 1111 835 1242
f 1068 1242 851
f 835 851 1242
f 1068 143 1242
f 368 241 9
f 878 1236 1301
f 943 1082 304
f 23 304 1082
f 982 673 101
f 878 1224 477
f 1301 1224 878
f 147 477 1224
f 23 590 304
f 419 304 590
f 160 1082 159
f 378 668 1320
f 160 23 1082
f 403 228 75
f 833 60 1029
f 347 1029 60
f 433 1095 845
f 433 459 75
f 228 433 75
f 513 1126 186
f 1126 513 600
f 513 1256 600
f 618 1256 513
f 618 513 186
f 1022 1118 1095
f 91 1022 1095
f 215 186 442
f 186 215 618
f 618 215 343
f 618 602 31
f 31 602 462
f 602 618 343
f 565 130 836
f 130 565 184
f 240 31 858
f 130 858 31
f 954 130 31
f 91 1095 433
f 433 393 370
f 91 433 370
f 433 228 393
f 370 393 45
f 215 662 343
f 343 462 602
f 662 462 343
f 146 32 970
f 970 1245 843
f 1245 970 32
f 213 184 565
f 32 146 213
f 1003 32 213
f 1003 1245 32
f 895 1245 1003
f 429 1003 213
f 429 213 565
f 462 954 31
f 130 954 836
f 839 954 462
f 378 1320 1192
f 674 900 273
f 674 1085 900
f 1085 508 102
f 163 280 571
f 296 505 1057
f 680 900 102
f 404 1151 794
f 404 733 967
f 967 733 1071