o convex_0
v 0.005349 -0.025264 -0.001703
v 0.031911 0.025915 -0.012068
v 0.032564 0.025263 -0.013364
v -0.028329 0.001291 -0.014013
v -0.023795 0.025915 -0.000407
v 0.006002 -0.028503 -0.014013
v 0.031911 0.010363 -0.000407
v -0.017966 0.025915 -0.014013
v -0.019260 -0.010359 -0.000407
v 0.029970 -0.009065 -0.014013
v 0.022841 0.025915 -0.000407
v 0.013771 -0.022024 -0.000407
v -0.006309 -0.026563 -0.014013
v -0.027035 -0.005825 -0.006240
v 0.036452 0.014897 -0.014013
v 0.031911 0.002590 -0.002351
v -0.026389 0.014897 -0.000407
v -0.027682 -0.007124 -0.014013
v -0.001767 -0.023323 -0.000407
v 0.029970 0.020077 -0.000407
v 0.023488 -0.011011 -0.000407
v 0.024788 -0.014897 -0.013364
v -0.003715 -0.027204 -0.010125
v -0.025095 -0.000655 -0.000407
v 0.035152 0.004530 -0.013364
v 0.031911 0.025915 -0.014013
v -0.011490 -0.017490 -0.000407
v -0.025095 -0.008418 -0.006240
v -0.019913 0.023317 -0.014013
v 0.033211 0.019430 -0.006240
v -0.026389 0.018783 -0.001703
v -0.028983 -0.002591 -0.013364
v 0.009883 -0.026563 -0.012068
v 0.035152 0.009716 -0.008181
v 0.000173 -0.029156 -0.013364
v 0.028676 -0.002585 -0.000407
v 0.028676 -0.011011 -0.013364
v 0.026729 0.025915 -0.002999
v 0.032564 -0.003884 -0.013364
v 0.007296 -0.026563 -0.006240
v 0.015712 -0.021377 -0.003647
v 0.002120 -0.024617 -0.000407
v -0.028329 -0.003232 -0.008829
v 0.035152 0.020724 -0.013364
v -0.006309 -0.026563 -0.013364
v 0.033858 0.015543 -0.005592
v -0.025742 -0.009065 -0.012717
v -0.022501 -0.006472 -0.000407
v 0.012478 -0.024617 -0.014013
f 22 33 49 
f 5 2 8 
f 6 4 8 
f 7 5 9 
f 6 8 10 
f 2 5 11 
f 5 7 11 
f 7 9 12 
f 4 6 13 
f 10 8 15 
f 9 5 17 
f 4 13 18 
f 12 9 19 
f 11 7 20 
f 7 12 21 
f 9 17 24 
f 10 15 25 
f 2 3 26 
f 8 2 26 
f 15 8 26 
f 19 9 27 
f 23 19 27 
f 14 18 28 
f 27 9 28 
f 8 4 29 
f 5 8 29 
f 2 20 30 
f 17 5 31 
f 29 4 31 
f 5 29 31 
f 4 18 32 
f 31 4 32 
f 17 31 32 
f 7 16 34 
f 25 15 34 
f 16 25 34 
f 13 6 35 
f 16 7 36 
f 7 21 36 
f 36 21 37 
f 22 10 37 
f 10 36 37 
f 2 11 38 
f 20 2 38 
f 11 20 38 
f 10 25 39 
f 25 16 39 
f 36 10 39 
f 16 36 39 
f 12 1 40 
f 6 33 40 
f 33 12 40 
f 1 35 40 
f 35 6 40 
f 21 12 41 
f 12 33 41 
f 33 22 41 
f 37 21 41 
f 22 37 41 
f 1 12 42 
f 12 19 42 
f 19 23 42 
f 35 1 42 
f 23 35 42 
f 18 14 43 
f 14 24 43 
f 24 17 43 
f 17 32 43 
f 32 18 43 
f 3 2 44 
f 26 3 44 
f 15 26 44 
f 2 30 44 
f 23 27 45 
f 27 28 45 
f 13 35 45 
f 35 23 45 
f 20 7 46 
f 30 20 46 
f 7 34 46 
f 34 15 46 
f 15 44 46 
f 44 30 46 
f 18 13 47 
f 28 18 47 
f 13 45 47 
f 45 28 47 
f 9 24 48 
f 24 14 48 
f 28 9 48 
f 14 28 48 
f 6 10 49 
f 10 22 49 
f 33 6 49 
o convex_1
v 0.018304 0.034337 -0.007537
v -0.019910 0.025915 -0.026970
v -0.023154 0.025915 -0.001057
v 0.033212 0.025915 -0.020491
v 0.003407 0.038872 -0.026970
v 0.022845 0.025915 -0.000407
v -0.019910 0.030453 -0.000407
v 0.026084 0.036929 -0.026970
v 0.033212 0.025915 -0.026970
v 0.007291 0.038225 -0.013369
v -0.014729 0.032394 -0.025670
v 0.010535 0.033042 -0.001704
v 0.029968 0.026564 -0.009482
v -0.006304 0.036279 -0.017896
v 0.011181 0.039521 -0.019193
v -0.021852 0.029804 -0.001057
v 0.020897 0.028507 -0.000407
v 0.003407 0.038872 -0.018543
v -0.019259 0.028507 -0.026970
v 0.009233 0.036279 -0.007537
v 0.023491 0.032394 -0.009482
v 0.031265 0.030451 -0.021783
v -0.010188 0.034983 -0.023728
v 0.009879 0.039521 -0.026318
v 0.017659 0.036279 -0.012071
v 0.028677 0.031746 -0.017251
v 0.011181 0.031747 -0.000407
v -0.023154 0.026564 -0.000407
v -0.004356 0.036929 -0.026318
v 0.025433 0.026564 -0.002352
v 0.031916 0.029804 -0.026970
v 0.032561 0.027212 -0.016601
v -0.017322 0.030453 -0.026970
v 0.013774 0.038872 -0.017896
v 0.016362 0.033042 -0.003649
v 0.026084 0.036929 -0.026320
v 0.003407 0.033689 -0.003002
v 0.011181 0.036929 -0.009482
v 0.004058 0.036929 -0.010129
v 0.002116 0.038872 -0.021138
f 54 78 89 
f 52 51 53 
f 52 53 55 
f 51 54 57 
f 53 51 58 
f 51 57 58 
f 55 53 62 
f 56 63 65 
f 56 55 66 
f 63 56 67 
f 59 64 67 
f 54 51 68 
f 50 66 70 
f 60 65 72 
f 65 63 72 
f 57 54 73 
f 64 57 73 
f 50 70 74 
f 70 62 75 
f 61 56 76 
f 56 66 76 
f 51 52 77 
f 52 55 77 
f 55 56 77 
f 56 65 77 
f 68 51 77 
f 65 68 77 
f 60 72 78 
f 72 63 78 
f 55 62 79 
f 66 55 79 
f 62 70 79 
f 70 66 79 
f 53 58 80 
f 58 57 80 
f 80 71 81 
f 62 53 81 
f 75 62 81 
f 71 75 81 
f 53 80 81 
f 65 60 82 
f 54 68 82 
f 68 65 82 
f 78 54 82 
f 60 78 82 
f 66 50 84 
f 69 61 84 
f 61 76 84 
f 76 66 84 
f 57 64 85 
f 74 70 85 
f 70 75 85 
f 75 71 85 
f 80 57 85 
f 71 80 85 
f 64 83 85 
f 83 74 85 
f 56 61 86 
f 69 56 86 
f 61 69 86 
f 64 59 87 
f 59 69 87 
f 50 74 87 
f 83 64 87 
f 74 83 87 
f 84 50 87 
f 69 84 87 
f 67 56 88 
f 59 67 88 
f 56 69 88 
f 69 59 88 
f 63 67 89 
f 67 64 89 
f 73 54 89 
f 64 73 89 
f 78 63 89 
o convex_2
v 0.037100 0.011663 -0.017254
v 0.000164 0.013603 -0.043816
v 0.000164 0.016840 -0.043816
v -0.040641 0.012313 -0.015961
v -0.028987 -0.000648 -0.038629
v 0.033207 -0.000648 -0.014013
v 0.032560 0.025915 -0.014013
v 0.029322 -0.000648 -0.039927
v -0.035461 0.022673 -0.034095
v 0.027380 0.025915 -0.040572
v -0.028339 -0.000648 -0.014013
v -0.018612 0.025915 -0.014013
v -0.026389 0.017488 -0.043165
v 0.006646 0.025915 -0.043816
v 0.015718 0.003244 -0.043816
v -0.036109 0.000002 -0.033445
v 0.035797 0.019435 -0.030209
v -0.039993 0.013603 -0.036038
v 0.035149 -0.000648 -0.030209
v -0.039346 0.021375 -0.025679
v -0.040641 0.003891 -0.019847
v -0.015375 0.025915 -0.037984
v -0.026389 0.007779 -0.042514
v 0.021545 0.022023 -0.043816
v -0.041288 0.016193 -0.017904
v -0.036109 -0.000648 -0.017257
v 0.013776 -0.000648 -0.042517
v 0.033855 0.016193 -0.035390
v 0.034502 0.025262 -0.023733
v -0.030921 0.020083 -0.040572
v -0.038698 0.014251 -0.014666
v -0.036756 0.012313 -0.039276
v -0.042591 0.013603 -0.023085
v -0.039346 0.020083 -0.034743
v 0.024783 0.007779 -0.043165
v 0.035797 0.019435 -0.014013
v 0.029322 0.021375 -0.040572
v 0.037100 0.014898 -0.027619
v -0.021210 0.025915 -0.029559
v 0.035797 0.000649 -0.019197
v 0.032560 0.025915 -0.032797
v -0.034814 0.023320 -0.028269
v -0.038051 -0.000648 -0.025031
v -0.035461 0.009718 -0.014013
v 0.037092 0.010369 -0.028269
v -0.040641 0.004536 -0.023733
v 0.033855 0.000002 -0.034092
v 0.037100 0.018138 -0.020495
v -0.034814 0.002594 -0.037333
v 0.006646 0.004536 -0.043816
v 0.036444 0.010369 -0.014013
v -0.038051 0.016193 -0.038629
v 0.020250 0.000649 -0.043165
v -0.038698 0.005184 -0.015961
v 0.018955 0.025915 -0.043816
v -0.027684 0.020730 -0.041219
v 0.031912 0.007129 -0.037984
v 0.030617 0.023968 -0.038629
v 0.022848 0.007129 -0.043816
v -0.032216 0.005184 -0.039924
v -0.038698 0.018788 -0.019200
v -0.029634 0.016840 -0.042514
v -0.040641 0.020083 -0.027622
v 0.024783 0.020083 -0.043165
f 124 148 153 
f 95 94 97 
f 94 95 100 
f 95 96 100 
f 100 96 101 
f 96 99 101 
f 92 91 102 
f 91 92 103 
f 101 99 103 
f 92 102 103 
f 91 103 104 
f 95 97 108 
f 101 103 111 
f 104 103 113 
f 94 100 115 
f 97 94 116 
f 94 112 116 
f 114 93 120 
f 101 114 120 
f 110 93 122 
f 93 114 122 
f 109 98 123 
f 98 119 123 
f 107 122 123 
f 96 95 125 
f 118 96 125 
f 97 124 126 
f 111 98 128 
f 101 111 128 
f 95 108 129 
f 99 96 130 
f 96 118 130 
f 118 106 130 
f 109 101 131 
f 98 109 131 
f 128 98 131 
f 101 128 131 
f 105 94 132 
f 94 115 132 
f 115 110 132 
f 100 101 133 
f 101 120 133 
f 117 106 134 
f 127 90 134 
f 106 127 134 
f 90 129 134 
f 129 108 134 
f 107 105 135 
f 122 107 135 
f 110 122 135 
f 105 132 135 
f 132 110 135 
f 108 97 136 
f 117 134 136 
f 134 108 136 
f 106 118 137 
f 125 90 137 
f 118 125 137 
f 90 127 137 
f 127 106 137 
f 94 105 138 
f 105 107 138 
f 107 121 138 
f 102 91 139 
f 91 104 139 
f 112 102 139 
f 104 116 139 
f 116 112 139 
f 90 125 140 
f 125 95 140 
f 129 90 140 
f 95 129 140 
f 121 107 141 
f 123 119 141 
f 107 123 141 
f 97 116 142 
f 116 104 142 
f 93 110 143 
f 115 100 143 
f 110 115 143 
f 120 93 143 
f 100 133 143 
f 133 120 143 
f 103 99 144 
f 113 103 144 
f 103 102 145 
f 98 111 145 
f 111 103 145 
f 102 119 145 
f 119 98 145 
f 97 126 146 
f 126 117 146 
f 136 97 146 
f 117 136 146 
f 106 117 147 
f 126 99 147 
f 117 126 147 
f 99 130 147 
f 130 106 147 
f 104 113 148 
f 124 97 148 
f 97 142 148 
f 142 104 148 
f 112 94 149 
f 121 112 149 
f 94 138 149 
f 138 121 149 
f 101 109 150 
f 114 101 150 
f 109 114 150 
f 102 112 151 
f 119 102 151 
f 112 121 151 
f 141 119 151 
f 121 141 151 
f 114 109 152 
f 122 114 152 
f 109 123 152 
f 123 122 152 
f 99 126 153 
f 126 124 153 
f 144 99 153 
f 113 144 153 
f 148 113 153 
o convex_3
v 0.005347 0.038873 -0.028916
v 0.007289 0.025915 -0.043816
v 0.007289 0.026563 -0.043816
v -0.019915 0.025915 -0.031508
v 0.019607 0.025915 -0.026970
v 0.019607 0.035631 -0.035393
v -0.019915 0.026563 -0.026970
v 0.019607 0.037577 -0.026970
v 0.003405 0.035631 -0.036038
v 0.019607 0.026563 -0.043816
v -0.016673 0.027859 -0.035393
v -0.005013 0.036279 -0.026970
v 0.007939 0.031747 -0.041222
v -0.014731 0.026563 -0.037982
v -0.015377 0.031100 -0.030212
v 0.017015 0.034984 -0.037982
v 0.011827 0.038225 -0.032156
v -0.005659 0.034984 -0.031508
v 0.014419 0.029803 -0.043168
v 0.019607 0.025915 -0.043816
v 0.014419 0.038873 -0.026970
v -0.017969 0.029803 -0.026970
v -0.019915 0.025915 -0.026970
v 0.007939 0.035631 -0.037334
v 0.004051 0.037577 -0.032804
v 0.017657 0.037577 -0.032156
v -0.014731 0.025915 -0.037982
v 0.000813 0.038225 -0.026970
v 0.018957 0.030452 -0.041870
v -0.002421 0.031747 -0.037982
f 166 167 183 
f 157 155 158 
f 160 158 161 
f 158 159 161 
f 155 156 163 
f 159 158 163 
f 160 161 165 
f 156 155 167 
f 157 164 167 
f 166 156 167 
f 162 164 171 
f 164 168 171 
f 168 165 171 
f 163 156 172 
f 156 166 172 
f 166 169 172 
f 158 155 173 
f 155 163 173 
f 163 158 173 
f 165 161 174 
f 170 154 174 
f 157 160 175 
f 164 157 175 
f 160 165 175 
f 168 164 175 
f 165 168 175 
f 157 158 176 
f 160 157 176 
f 158 160 176 
f 166 162 177 
f 169 166 177 
f 170 169 177 
f 170 177 178 
f 154 170 178 
f 162 171 178 
f 177 162 178 
f 161 159 179 
f 159 169 179 
f 169 170 179 
f 174 161 179 
f 170 174 179 
f 155 157 180 
f 167 155 180 
f 157 167 180 
f 171 165 181 
f 165 174 181 
f 174 154 181 
f 154 178 181 
f 178 171 181 
f 159 163 182 
f 169 159 182 
f 163 172 182 
f 172 169 182 
f 164 162 183 
f 162 166 183 
f 167 164 183 
o convex_4
v 0.025439 0.025915 -0.041222
v 0.042282 0.045352 -0.034748
v 0.042282 0.045352 -0.039926
v 0.019607 0.037576 -0.026970
v 0.033208 0.025915 -0.026970
v 0.042930 0.033691 -0.039926
v 0.019607 0.027861 -0.043168
v 0.019607 0.025915 -0.026970
v 0.025439 0.040167 -0.036686
v 0.044226 0.041461 -0.032156
v 0.038394 0.040814 -0.043816
v 0.038394 0.031746 -0.042520
v 0.026738 0.038223 -0.026970
v 0.027383 0.038223 -0.041870
v 0.019607 0.034987 -0.037334
v 0.026087 0.041461 -0.031508
v 0.044226 0.036280 -0.034748
v 0.019607 0.025915 -0.043168
v 0.043578 0.041461 -0.041222
v 0.039691 0.036929 -0.043816
v 0.032562 0.025915 -0.031508
v 0.038394 0.045352 -0.037334
v 0.040983 0.041461 -0.030860
v 0.034507 0.041461 -0.042520
v 0.029328 0.036280 -0.043816
v 0.028678 0.025915 -0.039278
v 0.040337 0.031746 -0.040574
v 0.037744 0.044052 -0.032804
v 0.032562 0.031746 -0.043816
v 0.024142 0.040167 -0.034748
v 0.043578 0.034987 -0.040574
v 0.022202 0.036280 -0.039278
f 213 192 215 
f 184 188 191 
f 188 187 191 
f 187 190 191 
f 186 185 193 
f 187 188 196 
f 190 187 198 
f 188 189 200 
f 193 188 200 
f 184 191 201 
f 191 190 201 
f 195 184 201 
f 186 193 202 
f 194 186 202 
f 193 200 202 
f 194 202 203 
f 188 184 204 
f 185 186 205 
f 193 185 206 
f 188 193 206 
f 196 188 206 
f 186 194 207 
f 197 192 207 
f 205 186 207 
f 192 205 207 
f 190 197 208 
f 201 190 208 
f 194 203 208 
f 207 194 208 
f 197 207 208 
f 184 195 209 
f 204 184 209 
f 204 209 210 
f 189 188 210 
f 195 189 210 
f 188 204 210 
f 209 195 210 
f 187 196 211 
f 199 187 211 
f 185 205 211 
f 205 199 211 
f 206 185 211 
f 196 206 211 
f 195 201 212 
f 203 195 212 
f 201 208 212 
f 208 203 212 
f 198 187 213 
f 187 199 213 
f 205 192 213 
f 199 205 213 
f 189 195 214 
f 200 189 214 
f 202 200 214 
f 195 203 214 
f 203 202 214 
f 192 197 215 
f 197 190 215 
f 190 198 215 
f 198 213 215 
o convex_5
v -0.028989 -0.011663 0.034582
v -0.033518 -0.041466 0.052720
v -0.031574 -0.041466 0.052720
v -0.023155 -0.024621 0.018384
v -0.021858 -0.013608 0.052070
v -0.039351 -0.031098 0.053366
v -0.021858 -0.036279 0.054016
v -0.037405 -0.031742 0.039757
v -0.021858 -0.011663 0.019030
v -0.036112 -0.016199 0.036518
v -0.021858 -0.036279 0.033290
v -0.032223 -0.036929 0.038461
v -0.034816 -0.023977 0.054016
v -0.022507 -0.011663 0.050774
v -0.038054 -0.038225 0.054016
v -0.034816 -0.014904 0.040410
v -0.025749 -0.040815 0.054016
v -0.034816 -0.017494 0.033290
v -0.025749 -0.011663 0.022269
v -0.022507 -0.023977 0.054016
v -0.021858 -0.038872 0.044292
v -0.032870 -0.039517 0.043649
v -0.021858 -0.024621 0.018384
v -0.035461 -0.034986 0.039114
v -0.034816 -0.029152 0.034582
v -0.039351 -0.034336 0.049481
v -0.025749 -0.022031 0.020977
v -0.026394 -0.036279 0.033932
v -0.024451 -0.039517 0.043649
v -0.037405 -0.026564 0.054016
v -0.036112 -0.016199 0.040410
v -0.035461 -0.038225 0.044946
v -0.023155 -0.018792 0.018384
v -0.028340 -0.011663 0.039114
v -0.039351 -0.031098 0.049481
v -0.035461 -0.040815 0.054016
v -0.038054 -0.029799 0.041703
v -0.034816 -0.014904 0.035875
v -0.029634 -0.038872 0.040410
f 226 244 254 
f 220 222 224 
f 224 222 226 
f 224 216 229 
f 220 224 229 
f 228 220 229 
f 222 228 230 
f 228 229 231 
f 217 218 232 
f 222 230 232 
f 223 225 233 
f 233 225 234 
f 216 224 234 
f 222 220 235 
f 220 228 235 
f 228 222 235 
f 226 222 236 
f 222 232 236 
f 226 219 238 
f 224 226 238 
f 219 227 239 
f 227 237 239 
f 223 233 240 
f 219 239 240 
f 239 223 240 
f 230 221 241 
f 223 239 241 
f 233 234 242 
f 219 240 242 
f 240 233 242 
f 219 226 243 
f 227 219 243 
f 232 218 244 
f 226 236 244 
f 236 232 244 
f 221 230 245 
f 230 228 245 
f 225 221 246 
f 231 225 246 
f 228 231 246 
f 221 245 246 
f 245 228 246 
f 239 237 247 
f 230 241 247 
f 241 239 247 
f 234 224 248 
f 238 219 248 
f 224 238 248 
f 242 234 248 
f 219 242 248 
f 229 216 249 
f 216 231 249 
f 231 229 249 
f 221 225 250 
f 241 221 250 
f 217 232 251 
f 232 230 251 
f 237 217 251 
f 230 247 251 
f 247 237 251 
f 225 223 252 
f 223 241 252 
f 250 225 252 
f 241 250 252 
f 231 216 253 
f 225 231 253 
f 234 225 253 
f 216 234 253 
f 218 217 254 
f 217 237 254 
f 237 227 254 
f 243 226 254 
f 227 243 254 
f 244 218 254 
o convex_6
v -0.031578 -0.042110 0.054019
v -0.033520 -0.038871 0.079929
v -0.034813 -0.038871 0.079929
v -0.030282 -0.022677 0.054019
v -0.043239 -0.038871 0.061146
v -0.025747 -0.045996 0.070859
v -0.021858 -0.026568 0.055315
v -0.036109 -0.050533 0.072801
v -0.036109 -0.029807 0.072801
v -0.027042 -0.034342 0.074744
v -0.021858 -0.036927 0.054019
v -0.036757 -0.025919 0.054019
v -0.041941 -0.034991 0.071505
v -0.032871 -0.047294 0.059203
v -0.041941 -0.044055 0.060497
v -0.039350 -0.046645 0.075394
v -0.027693 -0.027217 0.066328
v -0.030282 -0.046645 0.077337
v -0.023156 -0.040815 0.067619
v -0.039350 -0.035637 0.054019
v -0.027693 -0.047294 0.063089
v -0.041295 -0.031751 0.067619
v -0.036757 -0.042759 0.079929
v -0.035462 -0.045350 0.055964
v -0.023803 -0.023328 0.054019
v -0.035462 -0.027217 0.067619
v -0.030282 -0.049884 0.069562
v -0.043239 -0.042110 0.065032
v -0.039997 -0.037576 0.076687
v -0.026398 -0.041461 0.054019
v -0.032226 -0.031102 0.074744
v -0.021858 -0.031102 0.060497
v -0.038055 -0.047294 0.061146
v -0.024451 -0.040166 0.071505
v -0.030282 -0.042759 0.078633
v -0.042588 -0.034342 0.063089
v -0.024451 -0.029158 0.065032
v -0.031578 -0.049884 0.066328
v -0.039997 -0.033047 0.054668
v -0.035462 -0.024624 0.055315
v -0.023156 -0.033047 0.066328
v -0.023156 -0.042110 0.065681
v -0.025747 -0.022677 0.054668
v -0.034813 -0.035637 0.078633
v -0.042588 -0.044055 0.061793
v -0.039997 -0.043406 0.076041
v -0.031578 -0.027863 0.069562
v -0.031578 -0.045996 0.056611
v -0.039350 -0.030454 0.070209
v -0.034813 -0.047294 0.077337
v -0.028987 -0.036286 0.077337
v -0.028987 -0.048589 0.073448
v -0.025747 -0.045350 0.062442
v -0.038055 -0.038871 0.054019
v -0.043239 -0.036286 0.065681
v -0.038699 -0.036286 0.077337
v -0.034166 -0.050533 0.073448
v -0.027042 -0.044055 0.074744
v -0.026398 -0.036927 0.074744
v -0.021858 -0.036927 0.059850
f 296 265 314 
f 255 258 265 
f 258 255 266 
f 266 255 274 
f 269 259 274 
f 256 257 277 
f 265 258 279 
f 261 265 279 
f 275 260 281 
f 255 265 284 
f 264 271 285 
f 265 261 286 
f 278 268 287 
f 269 278 287 
f 260 273 288 
f 256 277 289 
f 277 272 289 
f 276 266 290 
f 271 264 291 
f 261 279 291 
f 279 271 291 
f 275 281 292 
f 262 287 292 
f 287 268 292 
f 266 274 293 
f 274 259 293 
f 259 290 293 
f 290 266 293 
f 258 266 294 
f 266 276 294 
f 280 258 294 
f 286 261 295 
f 273 286 295 
f 288 273 295 
f 291 264 295 
f 261 291 295 
f 273 260 296 
f 279 258 297 
f 271 279 297 
f 258 280 297 
f 257 256 298 
f 285 263 298 
f 259 269 299 
f 262 270 299 
f 282 259 299 
f 270 282 299 
f 287 262 299 
f 269 287 299 
f 270 277 300 
f 267 282 300 
f 282 270 300 
f 283 267 300 
f 277 283 300 
f 280 263 301 
f 263 285 301 
f 285 271 301 
f 271 297 301 
f 297 280 301 
f 278 255 302 
f 268 278 302 
f 255 284 302 
f 284 275 302 
f 292 268 302 
f 275 292 302 
f 276 267 303 
f 263 280 303 
f 294 276 303 
f 280 294 303 
f 270 262 304 
f 277 270 304 
f 272 277 304 
f 264 285 305 
f 256 289 305 
f 298 256 305 
f 285 298 305 
f 281 260 306 
f 260 275 307 
f 284 265 307 
f 275 284 307 
f 296 260 307 
f 265 296 307 
f 274 255 308 
f 269 274 308 
f 255 278 308 
f 278 269 308 
f 267 276 309 
f 259 282 309 
f 282 267 309 
f 290 259 309 
f 276 290 309 
f 277 257 310 
f 267 283 310 
f 283 277 310 
f 257 298 310 
f 298 263 310 
f 303 267 310 
f 263 303 310 
f 262 292 311 
f 292 281 311 
f 304 262 311 
f 272 304 311 
f 306 272 311 
f 281 306 311 
f 260 288 312 
f 289 272 312 
f 306 260 312 
f 272 306 312 
f 295 264 313 
f 288 295 313 
f 264 305 313 
f 305 289 313 
f 312 288 313 
f 289 312 313 
f 265 286 314 
f 286 273 314 
f 273 296 314 
o convex_7
v -0.021858 0.012305 0.026809
v -0.022507 -0.011663 0.019031
v -0.021858 -0.011663 0.019031
v -0.021858 -0.010362 0.050129
v -0.028337 -0.011663 0.037817
v -0.027689 0.010361 0.015790
v -0.021858 0.016197 0.015790
v -0.022507 0.001299 0.043000
v -0.028337 -0.011663 0.028751
v -0.027689 0.005829 0.015790
v -0.024451 -0.011663 0.048183
v -0.021858 -0.003236 0.016439
v -0.025745 -0.011663 0.022271
v -0.022507 0.012305 0.026809
v -0.027689 0.010361 0.016439
v -0.028337 -0.010362 0.037168
v -0.021858 -0.011663 0.049480
v -0.022507 -0.008420 0.017088
v -0.021858 -0.003236 0.046888
v -0.025098 -0.010362 0.046888
v -0.022507 0.016197 0.017088
v -0.022507 -0.007125 0.049480
v -0.021858 0.002589 0.015790
f 326 324 337 
f 317 315 318 
f 316 317 319 
f 315 317 321 
f 316 319 323 
f 323 320 324 
f 320 321 324 
f 319 317 325 
f 321 317 326 
f 316 323 327 
f 323 324 327 
f 322 315 328 
f 322 328 329 
f 323 319 330 
f 320 323 330 
f 322 329 330 
f 329 320 330 
f 317 318 331 
f 325 317 331 
f 318 325 331 
f 317 316 332 
f 326 317 332 
f 324 326 332 
f 316 327 332 
f 327 324 332 
f 318 315 333 
f 315 322 333 
f 319 325 334 
f 330 319 334 
f 322 330 334 
f 315 321 335 
f 321 320 335 
f 328 315 335 
f 329 328 335 
f 320 329 335 
f 325 318 336 
f 318 333 336 
f 333 322 336 
f 334 325 336 
f 322 334 336 
f 324 321 337 
f 321 326 337 
o convex_8
v -0.003071 0.040805 0.013199
v -0.021858 -0.007121 -0.000407
v -0.020562 -0.008421 -0.000407
v -0.008902 -0.018137 0.013199
v 0.000818 -0.023325 -0.000407
v 0.000818 0.030449 -0.000407
v -0.021858 0.029148 0.008015
v 0.000818 -0.021371 0.013199
v -0.021858 0.003889 0.013199
v -0.021858 0.030442 -0.000407
v 0.000818 0.023320 0.013199
v -0.013435 0.036277 0.013199
v -0.008902 0.039511 0.006718
v -0.009550 -0.018784 -0.000407
v -0.021858 0.018786 0.013199
v -0.016673 -0.008421 0.013199
v -0.017321 0.034330 0.001538
v -0.006958 0.041464 0.013199
v -0.004365 -0.020724 0.013199
v -0.020562 0.032389 0.002833
v -0.005661 0.040811 0.009311
v -0.001127 -0.023325 0.000242
v -0.002423 0.040164 0.013199
v -0.012141 -0.016837 0.000242
v -0.021858 -0.007121 0.000242
v -0.014081 -0.012302 0.013199
v -0.011493 0.038871 0.006718
v -0.012789 0.037570 0.011903
v -0.015377 0.033689 0.000889
f 354 350 366 
f 340 339 342 
f 342 339 343 
f 338 341 345 
f 342 343 345 
f 341 338 346 
f 344 339 346 
f 343 339 347 
f 339 344 347 
f 338 345 348 
f 345 343 348 
f 346 338 349 
f 340 342 351 
f 344 346 352 
f 346 349 352 
f 349 344 352 
f 341 346 353 
f 349 338 355 
f 345 341 356 
f 341 351 356 
f 347 344 357 
f 354 347 357 
f 338 343 358 
f 343 350 358 
f 350 355 358 
f 355 338 358 
f 342 345 359 
f 351 342 359 
f 345 356 359 
f 356 351 359 
f 343 338 360 
f 338 348 360 
f 348 343 360 
f 340 351 361 
f 351 341 361 
f 339 340 362 
f 346 339 362 
f 353 346 362 
f 340 361 362 
f 361 341 362 
f 341 353 363 
f 362 341 363 
f 353 362 363 
f 350 354 364 
f 355 350 364 
f 354 357 364 
f 364 357 365 
f 344 349 365 
f 349 355 365 
f 357 344 365 
f 355 364 365 
f 343 347 366 
f 350 343 366 
f 347 354 366 
o convex_9
v 0.011834 0.031098 -0.000407
v 0.031269 0.013607 0.000892
v 0.031269 0.008422 0.000892
v 0.000818 0.008422 0.048185
v 0.000818 0.008422 -0.000407
v 0.000818 0.031098 -0.000407
v 0.017012 0.009719 0.034572
v 0.026085 0.023970 -0.000402
v 0.001468 0.014253 0.042349
v 0.022195 0.027210 0.000245
v 0.031269 0.008422 -0.000402
v 0.029322 0.018141 0.002837
v 0.006654 0.031746 0.000245
v 0.016365 0.008422 0.034572
v 0.015071 0.030449 0.000245
v 0.000818 0.016847 0.037169
v 0.003414 0.009070 0.047533
v 0.013775 0.012310 0.033925
v 0.027379 0.021379 0.002190
v 0.029972 0.018787 -0.000402
v 0.017012 0.029801 0.000245
v 0.029972 0.009070 0.004778
v 0.000818 0.031098 0.000245
v 0.001468 0.016847 0.037169
f 387 381 390 
f 369 370 371 
f 367 371 372 
f 371 370 372 
f 374 367 376 
f 368 369 377 
f 371 367 377 
f 369 371 377 
f 373 368 378 
f 367 372 379 
f 370 369 380 
f 367 379 381 
f 372 370 382 
f 370 375 382 
f 373 375 383 
f 375 370 383 
f 370 380 383 
f 380 373 383 
f 375 373 384 
f 373 376 384 
f 376 375 384 
f 374 376 385 
f 376 373 385 
f 373 378 385 
f 385 378 386 
f 367 374 386 
f 368 377 386 
f 377 367 386 
f 378 368 386 
f 374 385 386 
f 376 367 387 
f 375 376 387 
f 367 381 387 
f 369 368 388 
f 368 373 388 
f 380 369 388 
f 373 380 388 
f 379 372 389 
f 382 379 389 
f 372 382 389 
f 381 379 390 
f 379 382 390 
f 382 375 390 
f 375 387 390 
o convex_10
v 0.010530 -0.034336 -0.017253
v 0.035156 -0.000648 -0.019197
v 0.035156 -0.000648 -0.025027
v -0.037408 -0.000648 -0.025027
v -0.028330 -0.000648 -0.014015
v 0.020900 -0.036281 -0.025027
v 0.033210 -0.003240 -0.014015
v -0.005011 -0.027858 -0.014015
v -0.008897 -0.027858 -0.025027
v 0.018954 -0.033689 -0.017253
v -0.036754 -0.001299 -0.018549
v 0.009237 -0.037578 -0.023730
v -0.027684 -0.013608 -0.024378
v 0.024786 -0.032395 -0.024378
v 0.009884 -0.026564 -0.014015
v 0.033210 -0.000648 -0.014015
v -0.027684 -0.007130 -0.014015
v 0.023486 -0.033042 -0.021138
v 0.029971 -0.009722 -0.014015
v 0.011830 -0.037578 -0.021138
v 0.034503 -0.004538 -0.020490
v 0.009237 -0.037578 -0.025027
v 0.016362 -0.033689 -0.016605
v 0.033210 -0.008424 -0.025027
v -0.026391 -0.009071 -0.014662
v -0.001126 -0.029156 -0.014015
v 0.024786 -0.015553 -0.014015
v -0.028330 -0.012961 -0.025027
v -0.005011 -0.028501 -0.015957
v 0.020900 -0.034336 -0.019197
v 0.014422 -0.037578 -0.021138
v 0.033210 -0.005832 -0.016605
f 404 411 422 
f 392 393 394 
f 392 394 395 
f 394 393 396 
f 397 395 398 
f 394 396 399 
f 395 394 401 
f 397 398 405 
f 392 395 406 
f 395 397 406 
f 397 392 406 
f 398 395 407 
f 395 401 407 
f 396 404 408 
f 397 405 409 
f 408 397 409 
f 398 402 410 
f 393 392 411 
f 399 396 412 
f 402 399 412 
f 410 402 412 
f 396 393 414 
f 404 396 414 
f 393 411 414 
f 411 404 414 
f 403 398 415 
f 401 403 415 
f 398 407 415 
f 407 401 415 
f 405 398 416 
f 410 391 416 
f 398 410 416 
f 391 413 416 
f 413 405 416 
f 409 405 417 
f 400 409 417 
f 405 413 417 
f 413 400 417 
f 394 399 418 
f 401 394 418 
f 399 403 418 
f 403 401 418 
f 402 398 419 
f 399 402 419 
f 403 399 419 
f 398 403 419 
f 396 408 420 
f 409 400 420 
f 408 409 420 
f 391 410 421 
f 412 396 421 
f 410 412 421 
f 413 391 421 
f 400 413 421 
f 396 420 421 
f 420 400 421 
f 392 397 422 
f 397 408 422 
f 408 404 422 
f 411 392 422 
o convex_11
v -0.023802 0.026563 0.002833
v -0.027042 0.012304 0.001536
v -0.027042 0.012304 0.002833
v -0.021858 -0.006480 -0.000407
v -0.022507 0.029155 -0.000407
v -0.021858 -0.005182 0.002833
v -0.026393 0.018788 -0.000407
v -0.021858 0.027857 0.002833
v -0.024450 -0.001942 -0.000407
v -0.021858 0.029155 -0.000407
v -0.026393 0.020727 0.002833
v -0.023155 -0.004533 0.002184
v -0.023802 0.028502 0.000241
f 429 433 435 
f 423 425 428 
f 427 426 429 
f 423 428 430 
f 428 426 430 
f 425 424 431 
f 424 429 431 
f 429 426 431 
f 426 427 432 
f 427 430 432 
f 430 426 432 
f 425 423 433 
f 424 425 433 
f 429 424 433 
f 428 425 434 
f 426 428 434 
f 425 431 434 
f 431 426 434 
f 427 429 435 
f 423 430 435 
f 430 427 435 
f 433 423 435 
o convex_12
v -0.027689 0.016193 0.003481
v -0.021858 0.016193 0.015790
v -0.021858 0.027854 0.008018
v -0.021858 0.009071 0.003481
v -0.028337 0.007131 0.015790
v -0.021858 0.002591 0.015790
v -0.027040 0.008423 0.004129
v -0.021858 0.028502 0.002833
v -0.027689 0.011666 0.015142
v -0.024451 0.025912 0.005425
v -0.025098 0.003888 0.011255
v -0.026393 0.009071 0.002833
v -0.028337 0.014903 0.006073
v -0.025745 0.023322 0.002833
v -0.022507 0.027854 0.008018
v -0.025098 0.002591 0.015142
v -0.021858 0.005186 0.008665
v -0.022507 0.009071 0.002833
v -0.028337 0.007131 0.013198
f 442 451 454 
f 438 437 439 
f 437 440 441 
f 439 437 441 
f 438 439 443 
f 440 437 444 
f 446 442 447 
f 442 436 447 
f 436 442 448 
f 440 444 448 
f 444 445 448 
f 448 445 449 
f 445 443 449 
f 447 436 449 
f 443 447 449 
f 436 448 449 
f 437 438 450 
f 438 443 450 
f 444 437 450 
f 443 445 450 
f 445 444 450 
f 441 440 451 
f 446 441 451 
f 442 446 451 
f 439 441 452 
f 441 446 452 
f 446 447 452 
f 452 447 453 
f 443 439 453 
f 447 443 453 
f 439 452 453 
f 448 442 454 
f 440 448 454 
f 451 440 454 
o convex_13
v -0.019915 -0.025910 0.017087
v -0.021210 -0.029151 0.055960
v -0.021858 -0.029151 0.055960
v -0.017324 0.026563 0.013852
v -0.016675 -0.036279 0.046236
v -0.021858 0.018135 0.013199
v -0.016675 0.003237 0.050125
v -0.016675 -0.022023 0.015794
v -0.021858 -0.036279 0.033935
v -0.021858 0.002584 0.042997
v -0.016675 0.026563 0.013199
v -0.016675 -0.013600 0.055311
v -0.021858 -0.024610 0.017740
v -0.016675 -0.034332 0.030695
v -0.021858 -0.038226 0.047534
v -0.017972 -0.006478 0.013199
v -0.017972 0.017488 0.030695
v -0.021858 -0.013600 0.052720
v -0.021858 0.013600 0.026806
v -0.016675 -0.027857 0.017740
v -0.021210 -0.032385 0.055960
v -0.016675 -0.030451 0.051418
v -0.017972 -0.003897 0.053365
v -0.021858 0.003231 0.013199
v -0.018619 -0.037573 0.039761
v -0.019915 -0.000003 0.049480
v -0.017324 0.011659 0.040406
v -0.016675 0.017488 0.031988
v -0.016675 -0.007125 0.013199
v -0.019267 0.009712 0.039761
v -0.017324 -0.010366 0.055311
v -0.021210 -0.027204 0.019034
v -0.019915 -0.023963 0.016439
v -0.017972 0.005178 0.047534
v -0.021858 -0.003244 0.048183
f 472 480 489 
f 461 459 462 
f 457 460 463 
f 460 457 464 
f 460 458 465 
f 461 462 465 
f 459 461 466 
f 463 460 467 
f 462 459 468 
f 457 463 469 
f 460 465 470 
f 464 457 472 
f 458 460 473 
f 460 464 473 
f 471 458 473 
f 455 462 474 
f 462 468 474 
f 468 463 474 
f 456 457 475 
f 466 456 475 
f 457 469 475 
f 469 459 475 
f 459 466 476 
f 466 475 476 
f 475 459 476 
f 467 460 478 
f 460 470 478 
f 468 459 479 
f 463 468 479 
f 469 463 479 
f 459 469 479 
f 477 461 480 
f 472 477 480 
f 465 458 482 
f 461 465 482 
f 458 471 482 
f 481 461 482 
f 471 481 482 
f 465 462 483 
f 462 470 483 
f 470 465 483 
f 473 464 484 
f 471 473 484 
f 481 471 484 
f 457 456 485 
f 456 466 485 
f 466 461 485 
f 472 457 485 
f 461 477 485 
f 477 472 485 
f 467 455 486 
f 463 467 486 
f 455 474 486 
f 474 463 486 
f 462 455 487 
f 455 467 487 
f 470 462 487 
f 467 478 487 
f 478 470 487 
f 464 480 488 
f 480 461 488 
f 461 481 488 
f 484 464 488 
f 481 484 488 
f 464 472 489 
f 480 464 489 
o convex_14
v -0.009547 -0.018127 0.013199
v -0.005014 -0.007121 0.056608
v -0.006311 -0.007121 0.056608
v -0.005662 0.042750 0.014495
v -0.016675 0.026557 0.036522
v 0.000818 -0.025262 0.015791
v -0.016675 -0.036277 0.044944
v -0.001127 0.040810 0.028755
v -0.016675 0.028497 0.013199
v 0.000818 -0.018135 0.052720
v -0.016675 -0.027851 0.017737
v 0.000818 0.022669 0.013199
v -0.016675 -0.013598 0.055307
v -0.011490 0.036273 0.038460
v -0.008900 -0.038874 0.037814
v 0.000818 0.006467 0.050774
v 0.000818 -0.030449 0.031347
v -0.008900 0.000006 0.055957
v 0.000169 0.040810 0.020329
v -0.016026 -0.031090 0.050774
v -0.016026 0.001289 0.052720
v -0.008252 -0.038217 0.042352
v -0.006958 0.035623 0.039114
v -0.012787 0.037571 0.035872
v 0.000818 -0.021374 0.013199
v -0.016675 -0.008411 0.013199
v -0.007607 -0.015546 0.056608
v -0.014083 0.034982 0.013199
v -0.005014 0.044049 0.026159
v 0.000818 -0.029799 0.021629
v -0.001775 0.039511 0.013199
v 0.000818 -0.005822 0.055307
v -0.012139 -0.038217 0.035226
v -0.013436 0.032385 0.040406
v -0.005014 0.040161 0.034580
v -0.004365 0.002587 0.054661
v -0.016026 0.030445 0.036522
v -0.008900 0.040810 0.013849
v -0.016675 -0.035627 0.035226
v 0.000818 -0.021374 0.049478
v -0.001127 0.043399 0.020329
v -0.012787 -0.014247 0.056608
v -0.016675 -0.008411 0.055307
v -0.011490 0.032385 0.041052
v 0.000169 0.040810 0.023567
v -0.011490 0.001946 0.054661
v -0.001775 -0.012949 0.055957
v -0.016026 0.024609 0.041052
v -0.008900 0.040161 0.035226
v -0.003071 -0.022023 0.013199
v -0.016026 -0.023314 0.015791
v 0.000818 0.014901 0.042352
v -0.010843 -0.038874 0.042352
v -0.003718 -0.018135 0.054661
v 0.000818 -0.029799 0.033934
v -0.012139 -0.030441 0.021629
v -0.008900 0.041451 0.024863
v -0.002422 0.038862 0.032638
v -0.003718 0.043399 0.028755
v -0.016675 0.002587 0.051419
v -0.016675 -0.033687 0.048832
v -0.004365 -0.000635 0.055957
v -0.012139 -0.038874 0.037168
v -0.015379 -0.020075 0.054661
f 516 531 553 
f 496 494 498 
f 496 498 500 
f 490 498 501 
f 499 495 501 
f 494 496 502 
f 499 501 505 
f 495 499 506 
f 492 491 507 
f 504 506 511 
f 499 509 511 
f 490 501 514 
f 501 495 514 
f 498 490 515 
f 500 498 515 
f 491 492 516 
f 501 498 517 
f 500 495 519 
f 495 506 519 
f 506 504 519 
f 508 501 520 
f 501 517 520 
f 499 505 521 
f 519 504 522 
f 503 513 523 
f 512 505 524 
f 505 512 525 
f 498 494 526 
f 517 498 526 
f 513 517 526 
f 523 513 526 
f 518 493 527 
f 493 520 527 
f 520 517 527 
f 496 500 528 
f 500 522 528 
f 506 499 529 
f 499 511 529 
f 493 518 530 
f 520 493 530 
f 508 520 530 
f 492 507 531 
f 516 492 531 
f 494 502 532 
f 531 507 532 
f 502 531 532 
f 512 503 533 
f 503 523 533 
f 507 525 533 
f 525 512 533 
f 497 505 534 
f 501 508 534 
f 530 497 534 
f 508 530 534 
f 523 510 535 
f 510 532 535 
f 532 507 535 
f 507 533 535 
f 533 523 535 
f 491 516 536 
f 499 521 536 
f 521 491 536 
f 526 494 537 
f 523 526 537 
f 503 512 538 
f 513 503 538 
f 518 513 538 
f 512 524 538 
f 495 500 539 
f 490 514 539 
f 514 495 539 
f 515 490 540 
f 500 515 540 
f 490 539 540 
f 539 500 540 
f 505 501 541 
f 534 505 541 
f 501 534 541 
f 504 511 542 
f 509 499 543 
f 516 509 543 
f 536 516 543 
f 499 536 543 
f 511 506 544 
f 506 529 544 
f 529 511 544 
f 500 519 545 
f 522 500 545 
f 519 522 545 
f 517 513 546 
f 513 518 546 
f 527 517 546 
f 518 527 546 
f 505 497 547 
f 497 524 547 
f 524 505 547 
f 524 497 548 
f 497 530 548 
f 530 518 548 
f 518 538 548 
f 538 524 548 
f 510 523 549 
f 494 532 549 
f 532 510 549 
f 523 537 549 
f 537 494 549 
f 502 496 550 
f 509 502 550 
f 511 509 550 
f 496 542 550 
f 542 511 550 
f 507 491 551 
f 521 505 551 
f 491 521 551 
f 525 507 551 
f 505 525 551 
f 522 504 552 
f 496 528 552 
f 528 522 552 
f 542 496 552 
f 504 542 552 
f 502 509 553 
f 509 516 553 
f 531 502 553 
o convex_15
v 0.009890 -0.031098 0.015792
v 0.029971 -0.012312 0.008024
v 0.029971 -0.012960 0.008024
v 0.001468 -0.012312 0.054664
v 0.000818 -0.012312 -0.000407
v 0.000818 -0.023971 -0.000407
v 0.019607 -0.020086 0.031339
v 0.000818 -0.029155 0.034573
v 0.020902 -0.024620 0.003485
v 0.015072 -0.028506 0.026805
v 0.021550 -0.012312 0.035872
v 0.026732 -0.012312 0.000892
v 0.002116 -0.020736 0.049478
v 0.016365 -0.030450 0.017091
v 0.015717 -0.029155 0.007372
v 0.000818 -0.030450 0.024218
v 0.009890 -0.023971 -0.000407
v 0.000818 -0.012312 0.054664
v 0.020902 -0.026562 0.010612
v 0.004707 -0.016200 0.051424
v 0.021550 -0.012312 -0.000407
v 0.024138 -0.018144 0.000892
v 0.011185 -0.031098 0.012552
v 0.013129 -0.031098 0.019684
v 0.017013 -0.029154 0.020972
v 0.029971 -0.012960 0.005431
v 0.021550 -0.012960 0.035872
v 0.009242 -0.012960 0.048831
v 0.000818 -0.017497 0.052718
v 0.001468 -0.030450 0.030039
v 0.015717 -0.027210 0.028099
v 0.007946 -0.017497 0.046880
v 0.019607 -0.027210 0.006078
v 0.001468 -0.027210 0.038460
v 0.015072 -0.031098 0.013851
v 0.014424 -0.029801 0.024218
v 0.024789 -0.020734 0.005431
v 0.020255 -0.021381 0.026805
v 0.020902 -0.017495 0.031980
v 0.021550 -0.022027 0.001539
v 0.018311 -0.026562 0.004132
f 570 593 594 
f 557 555 558 
f 558 559 561 
f 556 555 564 
f 555 557 564 
f 558 555 565 
f 561 559 569 
f 559 558 570 
f 568 559 570 
f 557 558 571 
f 558 561 571 
f 558 565 574 
f 570 558 574 
f 570 574 575 
f 574 565 575 
f 559 568 576 
f 554 569 576 
f 569 559 576 
f 554 576 577 
f 572 556 578 
f 567 572 578 
f 555 556 579 
f 565 555 579 
f 575 565 579 
f 556 564 580 
f 573 580 581 
f 564 557 581 
f 557 573 581 
f 580 564 581 
f 561 566 582 
f 557 571 582 
f 571 561 582 
f 573 557 582 
f 566 573 582 
f 569 554 583 
f 561 569 583 
f 554 577 583 
f 566 563 584 
f 578 560 584 
f 563 578 584 
f 573 566 585 
f 560 580 585 
f 580 573 585 
f 566 584 585 
f 584 560 585 
f 572 567 586 
f 561 563 587 
f 566 561 587 
f 563 566 587 
f 576 568 588 
f 567 577 588 
f 577 576 588 
f 586 567 588 
f 568 586 588 
f 563 561 589 
f 577 567 589 
f 578 563 589 
f 567 578 589 
f 561 583 589 
f 583 577 589 
f 556 572 590 
f 562 575 590 
f 579 556 590 
f 575 579 590 
f 586 562 590 
f 572 586 590 
f 578 556 591 
f 560 578 591 
f 556 580 592 
f 580 560 592 
f 591 556 592 
f 560 591 592 
f 570 575 593 
f 575 562 593 
f 568 570 594 
f 586 568 594 
f 562 586 594 
f 593 562 594 
o convex_16
v 0.023491 -0.022023 -0.043165
v 0.004057 -0.034986 -0.029563
v 0.004706 -0.035633 -0.029563
v 0.035156 -0.000652 -0.025029
v 0.004057 -0.000648 -0.038630
v 0.004057 -0.000648 -0.025027
v 0.021546 -0.036281 -0.025027
v 0.026733 -0.000648 -0.041221
v 0.008596 -0.028501 -0.043165
v 0.026085 -0.031097 -0.036686
v 0.004057 -0.034336 -0.025027
v 0.015722 -0.007777 -0.043814
v 0.032562 -0.004538 -0.036039
v 0.004057 -0.025913 -0.041870
v 0.018313 -0.033042 -0.039279
v 0.028027 -0.028505 -0.032156
v 0.011187 -0.037578 -0.028269
v 0.020252 -0.028501 -0.043165
v 0.004057 -0.032395 -0.037335
v 0.011835 -0.000648 -0.041870
v 0.025436 -0.031097 -0.025027
v 0.009244 -0.019435 -0.043814
v 0.022843 -0.007777 -0.043814
v 0.035156 -0.001299 -0.029563
v 0.024788 -0.025266 -0.041870
v 0.029323 -0.000652 -0.039926
v 0.022843 -0.033042 -0.037982
v 0.034508 -0.005189 -0.025029
v 0.020900 -0.024619 -0.043814
v 0.009244 -0.037578 -0.025027
v 0.028027 -0.028505 -0.034097
v 0.004057 -0.019435 -0.041870
v 0.026733 -0.031744 -0.034098
v 0.013777 -0.031744 -0.041221
v 0.020900 -0.036281 -0.028916
v 0.021546 -0.003240 -0.043165
v 0.029323 -0.007130 -0.039926
v 0.006651 -0.035633 -0.032156
v 0.026733 -0.025913 -0.038630
v 0.010538 -0.014255 -0.043814
v 0.024788 -0.009722 -0.043165
v 0.034508 -0.005189 -0.029563
v 0.011187 -0.027211 -0.043814
v 0.033211 -0.005836 -0.034097
v 0.015074 -0.037578 -0.027622
v 0.034508 -0.000652 -0.032156
v 0.022843 -0.032395 -0.039279
v 0.006651 -0.030450 -0.041221
f 628 613 642 
f 599 596 600 
f 599 600 602 
f 600 598 602 
f 596 597 605 
f 600 596 605 
f 601 600 605 
f 596 599 608 
f 597 596 613 
f 596 608 613 
f 599 602 614 
f 598 600 615 
f 600 601 615 
f 603 608 616 
f 616 606 617 
f 598 615 622 
f 615 610 622 
f 618 598 622 
f 617 595 623 
f 616 617 623 
f 595 619 623 
f 619 612 623 
f 605 597 624 
f 601 605 624 
f 597 611 624 
f 622 610 625 
f 608 599 626 
f 616 608 626 
f 615 601 627 
f 610 615 627 
f 621 604 627 
f 604 625 627 
f 625 610 627 
f 603 612 628 
f 627 601 629 
f 621 627 629 
f 614 602 630 
f 606 614 630 
f 602 617 630 
f 617 606 630 
f 619 595 631 
f 607 619 631 
f 620 607 631 
f 611 597 632 
f 609 611 632 
f 597 613 632 
f 628 609 632 
f 613 628 632 
f 619 607 633 
f 604 619 633 
f 625 604 633 
f 599 614 634 
f 614 606 634 
f 606 616 634 
f 626 599 634 
f 616 626 634 
f 595 617 635 
f 617 602 635 
f 602 620 635 
f 631 595 635 
f 620 631 635 
f 618 622 636 
f 622 625 636 
f 612 603 637 
f 603 616 637 
f 623 612 637 
f 616 623 637 
f 633 607 638 
f 625 633 638 
f 618 636 638 
f 636 625 638 
f 611 609 639 
f 609 621 639 
f 601 624 639 
f 624 611 639 
f 629 601 639 
f 621 629 639 
f 602 598 640 
f 598 618 640 
f 620 602 640 
f 607 620 640 
f 638 607 640 
f 618 638 640 
f 619 604 641 
f 612 619 641 
f 604 621 641 
f 621 609 641 
f 609 628 641 
f 628 612 641 
f 608 603 642 
f 613 608 642 
f 603 628 642 
o convex_17
v 0.011831 -0.001944 0.048831
v 0.000818 -0.012311 -0.000407
v 0.000818 0.008422 -0.000407
v 0.000818 -0.012311 0.054664
v 0.012480 -0.012311 -0.000407
v 0.012480 0.008422 -0.000407
v 0.000818 0.008422 0.048184
v 0.012480 -0.012311 0.045586
v 0.012480 0.008422 0.039759
v 0.001466 -0.003239 0.054664
v 0.007943 0.003239 0.048831
v 0.006649 -0.007775 0.052718
v 0.012480 -0.007127 0.048184
v 0.006649 -0.012311 0.051424
v 0.004057 0.001295 0.052071
v 0.003410 0.008422 0.047527
v 0.011183 0.005181 0.044939
v 0.009887 -0.000650 0.050125
v 0.000818 0.006478 0.050125
f 658 649 661 
f 645 644 646 
f 644 645 647 
f 646 644 647 
f 647 645 648 
f 645 646 649 
f 648 645 649 
f 646 647 650 
f 647 648 650 
f 650 648 651 
f 648 649 651 
f 652 646 654 
f 650 651 655 
f 651 643 655 
f 643 654 655 
f 655 654 656 
f 646 650 656 
f 654 646 656 
f 650 655 656 
f 657 653 658 
f 651 649 658 
f 651 658 659 
f 643 651 659 
f 658 653 659 
f 659 653 660 
f 654 643 660 
f 652 654 660 
f 657 652 660 
f 653 657 660 
f 643 659 660 
f 649 646 661 
f 646 652 661 
f 652 657 661 
f 657 658 661 
o convex_18
v -0.019915 -0.003241 -0.043814
v -0.038702 -0.018140 -0.036686
v -0.038702 -0.018140 -0.033451
v -0.021213 -0.026562 -0.035391
v -0.019915 -0.000648 -0.025027
v -0.036758 -0.000648 -0.025027
v -0.026395 -0.020082 -0.025027
v -0.033518 -0.011018 -0.043165
v -0.024452 -0.020730 -0.043165
v -0.032223 -0.000648 -0.037335
v -0.034167 -0.023972 -0.030213
v -0.019915 -0.016842 -0.025027
v -0.032223 -0.024620 -0.039279
v -0.019915 -0.020730 -0.041870
v -0.036758 -0.006481 -0.037982
v -0.025101 -0.000648 -0.041221
v -0.035461 -0.020082 -0.028269
v -0.027044 -0.027212 -0.037982
v -0.032223 -0.018140 -0.043165
v -0.023804 -0.025915 -0.031507
v -0.029632 -0.003241 -0.042517
v -0.019915 -0.022672 -0.029563
v -0.036109 -0.023320 -0.036686
v -0.019915 -0.000648 -0.039926
v -0.036109 -0.016842 -0.041221
v -0.038702 -0.012313 -0.035391
v -0.021213 -0.015548 -0.043814
v -0.030927 -0.009073 -0.043814
v -0.030279 -0.020082 -0.025678
v -0.023804 -0.022672 -0.026972
v -0.029632 -0.026562 -0.032804
v -0.019915 -0.024620 -0.038630
v -0.034814 -0.000648 -0.034098
v -0.036758 -0.009721 -0.039926
v -0.037405 -0.020082 -0.030860
v -0.022510 -0.024620 -0.040573
v -0.029632 -0.022672 -0.041870
v -0.027692 -0.023972 -0.028269
v -0.029632 -0.017493 -0.043814
v -0.032870 -0.004541 -0.041221
v -0.024452 -0.002593 -0.043814
v -0.035461 -0.020082 -0.040573
v -0.022510 -0.027212 -0.036686
f 697 693 704 
f 666 667 668 
f 667 666 671 
f 662 666 673 
f 666 668 673 
f 662 673 675 
f 671 666 677 
f 671 677 682 
f 675 673 683 
f 681 665 683 
f 664 663 684 
f 674 679 684 
f 666 662 685 
f 662 677 685 
f 677 666 685 
f 669 680 686 
f 663 664 687 
f 664 667 687 
f 667 676 687 
f 675 670 688 
f 662 675 688 
f 669 682 689 
f 662 688 689 
f 668 667 690 
f 667 678 690 
f 678 672 690 
f 673 668 691 
f 683 673 691 
f 681 683 691 
f 672 684 692 
f 684 679 692 
f 683 665 693 
f 675 683 693 
f 667 671 694 
f 676 667 694 
f 686 663 695 
f 669 686 695 
f 663 687 695 
f 687 676 695 
f 667 664 696 
f 678 667 696 
f 672 678 696 
f 664 684 696 
f 684 672 696 
f 670 675 697 
f 675 693 697 
f 679 674 698 
f 670 697 698 
f 697 679 698 
f 668 690 699 
f 690 672 699 
f 691 668 699 
f 681 691 699 
f 692 681 699 
f 672 692 699 
f 680 669 700 
f 688 670 700 
f 689 688 700 
f 669 689 700 
f 670 698 700 
f 698 680 700 
f 682 669 701 
f 671 682 701 
f 694 671 701 
f 676 694 701 
f 669 695 701 
f 695 676 701 
f 677 662 702 
f 682 677 702 
f 662 689 702 
f 689 682 702 
f 684 663 703 
f 674 684 703 
f 663 686 703 
f 686 680 703 
f 698 674 703 
f 680 698 703 
f 665 681 704 
f 692 679 704 
f 681 692 704 
f 693 665 704 
f 679 697 704 
o convex_19
v -0.013436 -0.036280 -0.041221
v -0.009549 -0.000648 -0.025027
v -0.009549 -0.000648 -0.028269
v -0.019915 -0.000648 -0.025027
v -0.019915 -0.003889 -0.043814
v -0.018619 -0.032392 -0.032156
v -0.009549 -0.025915 -0.025027
v -0.009549 -0.014255 -0.043814
v -0.009549 -0.038226 -0.034098
v -0.019915 -0.028504 -0.038630
v -0.019915 -0.016851 -0.025027
v -0.009549 -0.031741 -0.043814
v -0.016027 -0.000648 -0.038630
v -0.014085 -0.035633 -0.029563
v -0.015378 -0.031741 -0.043165
v -0.016027 -0.036928 -0.037982
v -0.019915 -0.014906 -0.043814
v -0.012789 -0.003242 -0.038630
v -0.019915 -0.000648 -0.039926
v -0.009549 -0.038226 -0.039279
v -0.009549 -0.034335 -0.028916
v -0.016027 -0.005184 -0.043165
v -0.019915 -0.029155 -0.034098
v -0.016675 -0.032392 -0.041870
v -0.011493 -0.000648 -0.033451
v -0.017971 -0.034335 -0.037982
v -0.014732 -0.036928 -0.032804
v -0.012789 -0.032392 -0.043814
v -0.012789 -0.033691 -0.028269
v -0.009549 -0.012960 -0.043165
f 722 729 734 
f 706 707 708 
f 707 706 711 
f 706 708 711 
f 707 711 712 
f 712 711 713 
f 708 709 714 
f 711 708 715 
f 708 714 715 
f 709 712 716 
f 712 713 716 
f 708 707 717 
f 715 710 718 
f 714 709 721 
f 709 716 721 
f 709 708 723 
f 708 717 723 
f 717 709 723 
f 705 716 724 
f 716 713 724 
f 720 705 724 
f 713 720 724 
f 713 711 725 
f 718 713 725 
f 712 709 726 
f 709 717 726 
f 717 722 726 
f 710 715 727 
f 715 714 727 
f 719 705 728 
f 705 720 728 
f 714 721 728 
f 721 719 728 
f 717 707 729 
f 722 717 729 
f 720 710 730 
f 710 727 730 
f 727 714 730 
f 728 720 730 
f 714 728 730 
f 718 710 731 
f 713 718 731 
f 720 713 731 
f 710 720 731 
f 716 705 732 
f 705 719 732 
f 721 716 732 
f 719 721 732 
f 711 715 733 
f 715 718 733 
f 725 711 733 
f 718 725 733 
f 707 712 734 
f 712 726 734 
f 726 722 734 
f 729 707 734 
o convex_20
v -0.003717 -0.035634 -0.041870
v 0.004057 -0.000648 -0.025027
v 0.004057 -0.000648 -0.037982
v -0.009549 -0.000648 -0.025027
v 0.004057 -0.034332 -0.025027
v -0.009549 -0.014261 -0.043814
v -0.009549 -0.034332 -0.028916
v 0.003409 -0.026560 -0.043165
v -0.009549 -0.038223 -0.039279
v -0.009549 -0.027858 -0.025027
v 0.004057 -0.031746 -0.039279
v -0.009549 -0.031099 -0.043814
v -0.006957 -0.000648 -0.031507
v 0.002113 -0.019439 -0.043814
v -0.003068 -0.038223 -0.034098
v -0.009549 -0.038223 -0.033451
v 0.001466 -0.029153 -0.043814
v -0.001126 -0.015552 -0.043814
v -0.009549 -0.012315 -0.042517
v -0.002423 -0.037576 -0.037335
v 0.004057 -0.018792 -0.042517
v 0.004057 -0.034986 -0.027622
v -0.009549 -0.000648 -0.028916
v 0.001466 -0.000648 -0.037335
v -0.007604 -0.034332 -0.043165
v -0.007604 -0.038874 -0.038630
v 0.002113 -0.034332 -0.037982
v 0.002761 -0.034332 -0.025027
v -0.008900 -0.013610 -0.043814
v 0.002113 -0.030448 -0.043165
f 745 761 764 
f 736 737 738 
f 737 736 739 
f 736 738 739 
f 738 740 741 
f 741 740 743 
f 739 738 744 
f 738 741 744 
f 737 739 745 
f 743 740 746 
f 738 737 747 
f 746 740 748 
f 741 743 750 
f 749 739 750 
f 748 742 751 
f 746 748 751 
f 737 748 752 
f 748 740 752 
f 740 738 753 
f 737 745 755 
f 745 742 755 
f 748 737 755 
f 742 748 755 
f 745 739 756 
f 739 749 756 
f 749 754 756 
f 738 747 757 
f 753 738 757 
f 747 753 757 
f 747 737 758 
f 753 747 758 
f 735 743 759 
f 743 746 759 
f 746 751 759 
f 743 735 760 
f 750 743 760 
f 749 750 760 
f 735 754 760 
f 754 749 760 
f 754 735 761 
f 745 756 761 
f 756 754 761 
f 739 744 762 
f 744 741 762 
f 750 739 762 
f 741 750 762 
f 737 752 763 
f 752 740 763 
f 740 753 763 
f 758 737 763 
f 753 758 763 
f 742 745 764 
f 751 742 764 
f 735 759 764 
f 759 751 764 
f 761 735 764 
o convex_21
v 0.031268 -0.011014 0.008020
v 0.012480 -0.012311 -0.000407
v 0.012480 0.008422 -0.000407
v 0.012480 -0.012311 0.030044
v 0.031917 0.007125 0.030044
v 0.031268 0.008422 -0.000407
v 0.012480 0.008422 0.030044
v 0.023492 -0.012311 0.029391
v 0.027379 -0.012311 0.000890
v 0.031917 -0.000002 0.030044
v 0.031917 -0.007773 0.004130
v 0.022845 -0.011661 -0.000407
v 0.018313 0.008422 0.029391
v 0.031917 -0.009717 0.009963
v 0.029970 -0.012311 0.004780
v 0.030619 0.002589 -0.000407
v 0.031917 0.004532 0.014500
v 0.022845 -0.012311 0.030044
v 0.031917 -0.000650 0.029391
f 778 774 783 
f 767 766 768 
f 766 767 770 
f 767 768 771 
f 768 769 771 
f 770 767 771 
f 768 766 772 
f 772 766 773 
f 769 768 774 
f 769 774 775 
f 766 770 776 
f 773 766 776 
f 769 770 777 
f 771 769 777 
f 770 771 777 
f 772 765 778 
f 765 775 778 
f 775 774 778 
f 765 772 779 
f 772 773 779 
f 773 775 779 
f 775 765 779 
f 770 775 780 
f 775 773 780 
f 776 770 780 
f 773 776 780 
f 770 769 781 
f 769 775 781 
f 775 770 781 
f 768 772 782 
f 774 768 782 
f 772 774 782 
f 774 772 783 
f 772 778 783 
o convex_22
v 0.030617 -0.004534 0.046887
v 0.012480 -0.012311 0.030044
v 0.022845 -0.012311 0.030044
v 0.017664 0.008422 0.030044
v 0.012480 -0.001297 0.048184
v 0.031917 0.007125 0.030044
v 0.014426 -0.012311 0.045592
v 0.012480 0.008422 0.039117
v 0.031917 -0.009070 0.037174
v 0.031917 0.001295 0.043648
v 0.012480 0.008422 0.030044
v 0.025434 -0.011014 0.044298
v 0.031917 0.005828 0.037174
v 0.031917 -0.000002 0.030044
v 0.022198 -0.009715 0.047536
v 0.021551 0.001295 0.046240
v 0.012480 -0.012311 0.043648
v 0.031917 -0.006478 0.045592
v 0.015722 -0.005829 0.048833
v 0.020258 -0.001297 0.048184
v 0.031266 -0.009715 0.039760
v 0.025434 0.003886 0.042352
v 0.024139 -0.011661 0.042352
v 0.031266 -0.001944 0.046240
v 0.013779 -0.010366 0.046887
f 798 802 808 
f 786 785 787 
f 786 787 789 
f 785 786 790 
f 785 788 791 
f 789 787 791 
f 792 789 793 
f 787 785 794 
f 785 791 794 
f 791 787 794 
f 789 791 796 
f 793 789 796 
f 786 789 797 
f 789 792 797 
f 792 786 797 
f 790 795 798 
f 791 788 799 
f 788 785 800 
f 785 790 800 
f 792 793 801 
f 784 798 801 
f 798 795 801 
f 798 784 802 
f 799 788 803 
f 802 784 803 
f 788 802 803 
f 786 792 804 
f 792 801 804 
f 801 795 804 
f 796 791 805 
f 793 796 805 
f 791 799 805 
f 799 793 805 
f 790 786 806 
f 795 790 806 
f 786 804 806 
f 804 795 806 
f 793 799 807 
f 784 801 807 
f 801 793 807 
f 803 784 807 
f 799 803 807 
f 790 798 808 
f 788 800 808 
f 800 790 808 
f 802 788 808 
o convex_23
v 0.037100 0.007126 0.017733
v 0.031917 -0.009071 0.006721
v 0.031917 -0.005182 0.004128
v 0.031917 0.007126 0.026805
v 0.042931 0.001943 0.026805
v 0.031917 -0.001295 0.026805
v 0.041634 0.007773 0.020973
v 0.037747 0.001294 0.010610
v 0.031917 0.001294 0.008665
v 0.041634 0.008422 0.026805
v 0.032564 -0.009071 0.009959
v 0.041634 0.001943 0.020323
v 0.032564 -0.009071 0.006721
v 0.031917 0.005182 0.015786
v 0.037747 0.004533 0.012552
v 0.037100 0.008422 0.023564
v 0.042283 0.001294 0.026805
v 0.033214 -0.003239 0.004777
v 0.042931 0.007126 0.025508
f 820 815 827 
f 811 810 812 
f 812 810 814 
f 813 812 814 
f 811 812 817 
f 812 813 818 
f 814 810 819 
f 816 815 820 
f 816 820 821 
f 810 811 821 
f 819 810 821 
f 813 819 821 
f 820 813 821 
f 817 812 822 
f 817 822 823 
f 809 815 823 
f 815 816 823 
f 822 809 823 
f 815 809 824 
f 812 818 824 
f 818 815 824 
f 809 822 824 
f 822 812 824 
f 813 814 825 
f 819 813 825 
f 814 819 825 
f 811 817 826 
f 816 821 826 
f 821 811 826 
f 817 823 826 
f 823 816 826 
f 818 813 827 
f 815 818 827 
f 813 820 827 
o convex_24
v 0.033860 0.002590 0.041704
v 0.031917 -0.009071 0.037170
v 0.031917 -0.000648 0.026805
v 0.042931 0.001943 0.026805
v 0.031917 0.007126 0.026805
v 0.039043 -0.001943 0.043000
v 0.042931 0.007773 0.028750
v 0.031917 -0.005831 0.045593
v 0.031917 0.005830 0.037170
v 0.035804 -0.007126 0.038463
v 0.040987 0.006477 0.034582
v 0.041634 -0.000001 0.037170
v 0.041634 0.008422 0.026805
v 0.040338 -0.002592 0.031340
v 0.031917 -0.000648 0.044944
v 0.038394 0.008422 0.030045
v 0.041634 0.000646 0.026805
v 0.033214 -0.007775 0.043000
v 0.039043 0.003886 0.039112
v 0.042931 0.005182 0.032637
v 0.041634 -0.001295 0.033286
v 0.031917 0.007126 0.033286
f 836 843 849 
f 830 829 832 
f 831 830 832 
f 832 829 835 
f 832 835 836 
f 831 832 840 
f 834 831 840 
f 837 829 841 
f 835 833 842 
f 828 836 842 
f 836 835 842 
f 838 834 843 
f 836 838 843 
f 840 832 843 
f 834 840 843 
f 829 830 844 
f 830 831 844 
f 841 829 844 
f 831 841 844 
f 835 829 845 
f 833 835 845 
f 829 837 845 
f 837 833 845 
f 836 828 846 
f 833 838 846 
f 838 836 846 
f 828 842 846 
f 842 833 846 
f 831 834 847 
f 838 833 847 
f 834 838 847 
f 839 831 847 
f 833 839 847 
f 833 837 848 
f 831 839 848 
f 839 833 848 
f 841 831 848 
f 837 841 848 
f 832 836 849 
f 843 832 849 
