o convex_0
v 0.011927 0.004304 -0.002307
v -0.015886 -0.009868 0.004781
v -0.015338 -0.010962 0.004235
v 0.010290 -0.024591 0.005327
v -0.000613 0.016302 0.005327
v -0.013157 -0.006601 -0.003399
v 0.004291 -0.021866 -0.003399
v -0.008794 0.014666 -0.003399
v -0.005520 -0.031140 0.005327
v 0.016837 -0.007148 0.005327
v 0.016290 -0.014234 -0.003399
v -0.012064 0.009758 0.005327
v 0.000476 0.017943 -0.003399
v -0.006609 -0.029504 0.000964
v 0.002654 -0.032771 0.003691
v -0.014793 0.003215 -0.003399
v 0.011927 0.003215 0.005327
v 0.016290 -0.005512 -0.003399
v -0.006065 0.016302 0.005327
v -0.004431 -0.020225 -0.003399
v -0.010428 -0.025138 0.003691
v 0.015745 -0.014776 0.005327
v -0.015886 -0.006601 0.005327
v 0.001565 -0.030588 0.000964
v -0.012612 0.010305 -0.003399
v 0.002109 -0.033323 0.005327
v 0.011927 -0.018595 -0.003399
v 0.015745 -0.003334 0.005327
v -0.009883 -0.026227 0.005327
v -0.003342 -0.032229 0.002600
v -0.008246 -0.028957 0.002054
v -0.014793 0.000485 0.005327
v 0.010838 0.005939 -0.003399
v -0.009883 0.013025 0.005327
v -0.009339 -0.014234 -0.003399
v 0.009746 0.005939 0.005327
v -0.001161 -0.021866 -0.003399
v 0.016837 -0.012051 0.000419
v -0.001161 0.017943 -0.002853
v 0.015197 -0.002240 -0.003399
v 0.001565 0.016849 -0.002853
v 0.004291 -0.031677 0.004781
v -0.007702 -0.028405 0.000964
v -0.003342 0.016849 0.005327
v 0.015745 -0.015318 -0.002853
v -0.002798 -0.030588 0.000964
f 37 24 46 
f 3 2 6 
f 7 6 8 
f 4 5 9 
f 5 4 10 
f 7 8 11 
f 9 5 12 
f 11 8 13 
f 6 2 16 
f 8 6 16 
f 5 10 17 
f 11 13 18 
f 12 5 19 
f 6 7 20 
f 2 3 21 
f 3 6 21 
f 10 4 22 
f 9 12 23 
f 16 2 23 
f 8 16 25 
f 16 12 25 
f 4 9 26 
f 7 11 27 
f 24 7 27 
f 15 24 27 
f 1 17 28 
f 17 10 28 
f 10 18 28 
f 2 21 29 
f 23 2 29 
f 9 23 29 
f 24 15 30 
f 26 9 30 
f 15 26 30 
f 21 6 31 
f 9 29 31 
f 29 21 31 
f 30 9 31 
f 14 30 31 
f 12 16 32 
f 23 12 32 
f 16 23 32 
f 17 1 33 
f 18 13 33 
f 12 19 34 
f 19 8 34 
f 8 25 34 
f 25 12 34 
f 6 20 35 
f 5 17 36 
f 17 33 36 
f 20 7 37 
f 14 20 37 
f 7 24 37 
f 18 10 38 
f 11 18 38 
f 10 22 38 
f 22 11 38 
f 13 8 39 
f 8 19 39 
f 1 28 40 
f 28 18 40 
f 33 1 40 
f 18 33 40 
f 13 5 41 
f 33 13 41 
f 5 36 41 
f 36 33 41 
f 4 26 42 
f 26 15 42 
f 20 14 43 
f 31 6 43 
f 14 31 43 
f 6 35 43 
f 35 20 43 
f 5 13 44 
f 19 5 44 
f 13 39 44 
f 39 19 44 
f 22 4 45 
f 11 22 45 
f 27 11 45 
f 15 27 45 
f 4 42 45 
f 42 15 45 
f 30 14 46 
f 24 30 46 
f 14 37 46 
o convex_1
v -0.014792 -0.019686 -0.048665
v 0.033744 0.015762 -0.043757
v 0.034287 0.015212 -0.043757
v 0.019563 0.010304 -0.052482
v 0.020106 -0.016412 -0.048120
v -0.020791 -0.008233 -0.043757
v 0.013015 -0.020774 -0.043757
v -0.007153 0.002667 -0.052482
v 0.007023 -0.020232 -0.052482
v 0.023925 -0.002237 -0.052482
v -0.006610 0.004304 -0.044304
v 0.034830 0.002671 -0.043757
v -0.010973 -0.022957 -0.045395
v -0.010429 -0.010412 -0.052482
v 0.016835 0.011392 -0.052482
v 0.031016 0.002125 -0.049211
v -0.016971 -0.018049 -0.043757
v 0.016292 -0.015870 -0.052482
v -0.012065 -0.022957 -0.048665
v 0.011380 -0.021866 -0.047030
v -0.006610 -0.017503 -0.052482
v 0.022833 -0.013683 -0.043757
v -0.002796 0.005942 -0.048665
v -0.013700 -0.000604 -0.043757
v -0.021340 -0.009324 -0.044304
v 0.036471 0.010850 -0.044304
v 0.030467 0.005942 -0.049211
v -0.010429 -0.004962 -0.052482
v 0.032651 0.015762 -0.043757
v -0.008245 -0.023503 -0.048120
v -0.012608 -0.020774 -0.043757
v 0.033744 0.015762 -0.044304
v 0.011380 -0.021866 -0.044849
v 0.034287 0.002671 -0.045395
v -0.008245 0.002667 -0.050846
v -0.020791 -0.013137 -0.044304
v -0.016428 -0.016412 -0.048120
v 0.001567 -0.020232 -0.052482
v -0.012065 -0.021320 -0.049756
v -0.007153 0.003759 -0.043757
v 0.010288 -0.021866 -0.048120
v 0.023925 0.000488 -0.052482
v -0.011516 -0.023503 -0.046485
v -0.002796 0.005942 -0.047030
v -0.007702 0.003759 -0.047030
v -0.015884 -0.002783 -0.044849
f 70 81 92 
f 49 48 52 
f 49 52 53 
f 54 50 55 
f 55 50 56 
f 49 53 58 
f 54 55 60 
f 50 54 61 
f 53 52 63 
f 55 56 64 
f 56 62 64 
f 62 51 64 
f 63 47 65 
f 60 55 67 
f 53 51 68 
f 51 58 68 
f 58 53 68 
f 61 54 69 
f 52 48 70 
f 49 58 72 
f 72 62 73 
f 54 60 74 
f 71 54 74 
f 70 48 75 
f 59 53 77 
f 53 63 77 
f 48 49 78 
f 50 61 78 
f 49 72 78 
f 72 73 78 
f 73 50 78 
f 75 48 78 
f 61 75 78 
f 51 53 79 
f 53 59 79 
f 66 51 79 
f 76 66 79 
f 58 51 80 
f 51 62 80 
f 72 58 80 
f 62 72 80 
f 69 54 81 
f 71 52 81 
f 54 71 81 
f 47 63 82 
f 63 52 82 
f 52 71 82 
f 82 71 83 
f 60 47 83 
f 74 60 83 
f 71 74 83 
f 47 82 83 
f 67 55 84 
f 55 76 84 
f 76 65 84 
f 47 60 85 
f 65 47 85 
f 60 67 85 
f 67 84 85 
f 84 65 85 
f 57 70 86 
f 75 57 86 
f 70 75 86 
f 64 51 87 
f 55 64 87 
f 51 66 87 
f 76 55 87 
f 66 76 87 
f 56 50 88 
f 62 56 88 
f 73 62 88 
f 50 73 88 
f 63 65 89 
f 65 76 89 
f 59 77 89 
f 77 63 89 
f 79 59 89 
f 76 79 89 
f 69 57 90 
f 61 69 90 
f 75 61 90 
f 57 75 90 
f 57 69 91 
f 70 57 91 
f 69 81 91 
f 81 70 91 
f 52 70 92 
f 81 52 92 
o convex_2
v -0.019152 -0.021866 -0.039939
v 0.007566 0.010308 -0.033941
v 0.007566 0.010308 -0.034487
v -0.032791 -0.002240 -0.033941
v -0.006622 0.003762 -0.043757
v 0.007566 -0.015867 -0.033941
v 0.007566 -0.018049 -0.043757
v -0.021880 -0.012595 -0.043757
v -0.010434 -0.026233 -0.036124
v 0.007566 0.006488 -0.043757
v -0.034427 -0.012051 -0.033941
v -0.012619 -0.020231 -0.043757
v -0.027333 -0.005509 -0.039939
v -0.003893 -0.025142 -0.039393
v -0.009890 -0.019687 -0.033941
v -0.022429 -0.017506 -0.042120
v -0.034971 -0.009869 -0.035033
v -0.014795 -0.001149 -0.043757
v -0.013163 -0.025686 -0.038305
v 0.007018 -0.019684 -0.039939
v -0.006073 -0.025142 -0.035578
v -0.031698 -0.001693 -0.034487
v 0.001564 -0.020778 -0.043757
v -0.021880 -0.008778 -0.043757
v -0.025153 -0.016958 -0.033941
v -0.016427 -0.022960 -0.041030
v 0.007018 0.010308 -0.034487
v -0.033879 -0.012051 -0.035578
v -0.003893 -0.025142 -0.037214
v -0.027333 -0.016958 -0.035033
v -0.034971 -0.006056 -0.034487
v 0.007018 0.007031 -0.043211
v -0.011527 -0.026233 -0.038305
v -0.016971 -0.018596 -0.043757
v -0.030062 -0.015324 -0.036124
v -0.003345 -0.019687 -0.033941
v -0.032791 -0.002240 -0.034487
v 0.007566 -0.019140 -0.042120
v -0.020244 -0.019687 -0.042120
v -0.010982 -0.025142 -0.035578
f 107 117 132 
f 95 94 98 
f 94 96 98 
f 95 98 99 
f 97 99 100 
f 99 97 102 
f 95 99 102 
f 98 96 103 
f 100 99 104 
f 98 103 107 
f 97 100 110 
f 96 94 114 
f 104 99 115 
f 109 105 116 
f 100 109 116 
f 110 100 116 
f 105 110 116 
f 107 103 117 
f 111 93 118 
f 94 95 119 
f 114 94 119 
f 97 114 119 
f 100 108 120 
f 103 109 120 
f 109 100 120 
f 101 106 121 
f 112 98 121 
f 106 112 121 
f 113 101 121 
f 98 113 121 
f 111 101 122 
f 101 117 122 
f 117 103 122 
f 103 96 123 
f 109 103 123 
f 105 109 123 
f 95 102 124 
f 102 97 124 
f 119 95 124 
f 97 119 124 
f 106 101 125 
f 101 111 125 
f 104 115 125 
f 115 106 125 
f 118 104 125 
f 111 118 125 
f 100 104 126 
f 108 100 126 
f 104 118 126 
f 93 111 127 
f 103 120 127 
f 122 103 127 
f 111 122 127 
f 98 107 128 
f 113 98 128 
f 107 113 128 
f 97 110 129 
f 110 105 129 
f 96 114 129 
f 114 97 129 
f 123 96 129 
f 105 123 129 
f 99 98 130 
f 98 112 130 
f 112 106 130 
f 115 99 130 
f 106 115 130 
f 118 93 131 
f 120 108 131 
f 108 126 131 
f 126 118 131 
f 93 127 131 
f 127 120 131 
f 101 113 132 
f 113 107 132 
f 117 101 132 
o convex_3
v 0.039198 0.016846 -0.035578
v 0.007566 -0.019142 -0.042120
v 0.007566 -0.019142 -0.039939
v 0.007566 0.010302 -0.033941
v 0.032653 0.017393 -0.043757
v 0.007566 0.006484 -0.043757
v 0.028832 -0.003326 -0.033941
v 0.024470 -0.011507 -0.043757
v 0.025015 0.023395 -0.033941
v 0.009752 -0.015867 -0.033941
v 0.035925 0.004852 -0.043757
v 0.037560 0.005946 -0.033941
v 0.012476 -0.020779 -0.043757
v 0.034835 0.022305 -0.041574
v 0.039742 0.014666 -0.041030
v 0.031015 0.023942 -0.034487
v 0.016838 -0.016958 -0.040484
v 0.007566 -0.015867 -0.033941
v 0.039198 0.015213 -0.033941
v 0.022838 0.022301 -0.034487
v 0.026105 -0.009323 -0.039393
v 0.037015 0.004309 -0.037214
v 0.007566 -0.018052 -0.043757
v 0.032653 0.021211 -0.042120
v 0.037015 0.011943 -0.043757
v 0.009752 0.008122 -0.043757
v 0.035377 0.022848 -0.037759
v 0.039198 0.017941 -0.040484
v 0.039742 0.012486 -0.039939
v 0.009204 0.011939 -0.034487
v 0.014659 -0.019685 -0.042665
v 0.029380 0.023942 -0.036668
v 0.039198 0.009759 -0.033941
v 0.007566 0.007574 -0.042120
v 0.028832 -0.004416 -0.035033
v 0.035377 0.003214 -0.043211
v 0.011931 -0.014777 -0.033941
v 0.039742 0.016846 -0.037214
v 0.035377 0.019578 -0.042665
v 0.037015 0.004309 -0.035578
v 0.034835 0.023395 -0.038849
f 146 164 173 
f 134 135 136 
f 134 136 138 
f 138 137 140 
f 136 139 141 
f 139 136 142 
f 140 137 143 
f 141 139 144 
f 135 134 145 
f 138 140 145 
f 142 135 145 
f 136 135 150 
f 135 142 150 
f 142 136 150 
f 141 144 151 
f 148 141 151 
f 136 141 152 
f 134 138 155 
f 145 134 155 
f 138 145 155 
f 146 137 156 
f 143 137 157 
f 147 143 157 
f 137 138 158 
f 156 137 158 
f 151 133 159 
f 148 151 159 
f 147 157 160 
f 143 147 161 
f 154 143 161 
f 136 152 162 
f 145 140 163 
f 142 145 163 
f 140 153 163 
f 153 149 163 
f 141 148 164 
f 152 141 164 
f 146 156 164 
f 158 152 164 
f 156 158 164 
f 151 144 165 
f 154 161 165 
f 138 136 166 
f 158 138 166 
f 152 158 166 
f 136 162 166 
f 162 152 166 
f 144 139 167 
f 149 153 167 
f 140 143 168 
f 154 140 168 
f 143 154 168 
f 139 142 169 
f 142 163 169 
f 163 149 169 
f 167 139 169 
f 149 167 169 
f 133 151 170 
f 159 133 170 
f 147 160 170 
f 160 159 170 
f 161 147 170 
f 151 165 170 
f 165 161 170 
f 137 146 171 
f 157 137 171 
f 146 160 171 
f 160 157 171 
f 153 140 172 
f 140 154 172 
f 165 144 172 
f 154 165 172 
f 144 167 172 
f 167 153 172 
f 148 159 173 
f 160 146 173 
f 159 160 173 
f 164 148 173 
o convex_4
v -0.034429 -0.012051 -0.033940
v -0.037155 -0.000603 -0.006671
v -0.038790 -0.000603 -0.006671
v -0.027884 0.014668 -0.017036
v -0.029523 -0.018596 -0.019217
v -0.044245 -0.008231 -0.022484
v -0.040973 0.007028 -0.021395
v -0.027884 -0.001148 -0.033938
v -0.042062 -0.021867 -0.023029
v -0.031704 -0.013137 -0.008855
v -0.043699 -0.009325 -0.008855
v -0.036611 0.001577 -0.032304
v -0.027884 -0.015322 -0.032846
v -0.027884 -0.003874 -0.009947
v -0.041516 -0.022412 -0.027940
v -0.030611 0.013032 -0.011038
v -0.043153 -0.000603 -0.010491
v -0.038244 -0.018596 -0.013219
v -0.036611 -0.022961 -0.024123
v -0.035522 0.012487 -0.018128
v -0.039881 0.001577 -0.029574
v -0.044789 -0.013137 -0.013219
v -0.027884 0.013032 -0.011038
v -0.031158 -0.020777 -0.028485
v -0.030611 0.001577 -0.007763
v -0.042608 -0.020777 -0.027393
v -0.036066 -0.006592 -0.033940
v -0.039336 0.009213 -0.016489
v -0.044789 -0.006051 -0.012127
v -0.038244 -0.007141 -0.006671
v -0.027884 -0.015322 -0.021395
v -0.043153 -0.014231 -0.011038
v -0.036066 -0.021322 -0.030118
v -0.042062 0.004303 -0.022484
v -0.039881 0.002671 -0.008855
v -0.027884 -0.014231 -0.033938
v -0.035522 -0.018047 -0.012672
v -0.027884 0.014122 -0.018128
v -0.042062 -0.011506 -0.008855
v -0.040427 -0.020228 -0.029574
v -0.041516 0.006487 -0.018675
v -0.044789 -0.012051 -0.017583
v -0.043153 -0.002787 -0.008855
v -0.036066 0.011393 -0.019761
v -0.031158 -0.019683 -0.019217
v -0.027884 -0.016412 -0.030121
v -0.035522 0.012487 -0.015944
v -0.033885 -0.001148 -0.033940
v -0.030067 0.014122 -0.018128
v -0.033885 0.001032 -0.032849
v -0.043153 -0.020228 -0.025212
v -0.031158 -0.013686 -0.009944
v -0.029521 0.014668 -0.015947
v -0.027884 -0.012596 -0.017581
v -0.041516 0.002671 -0.025759
v -0.034429 -0.021867 -0.029032
v -0.039881 -0.006051 -0.006671
v -0.044789 -0.006592 -0.015400
v -0.037155 -0.020228 -0.030665
v -0.027884 0.005942 -0.009947
v -0.040427 0.003216 -0.009944
f 220 201 234 
f 181 177 186 
f 186 177 187 
f 176 175 189 
f 182 188 192 
f 191 182 192 
f 187 177 196 
f 189 175 196 
f 183 187 198 
f 196 175 198 
f 179 194 199 
f 194 185 200 
f 199 194 200 
f 193 180 201 
f 195 184 202 
f 175 176 203 
f 198 175 203 
f 183 198 203 
f 186 187 204 
f 182 191 205 
f 195 182 205 
f 184 195 205 
f 176 189 208 
f 181 186 209 
f 183 191 210 
f 191 192 210 
f 177 181 211 
f 191 183 212 
f 183 203 212 
f 205 191 212 
f 184 205 212 
f 188 199 213 
f 200 174 213 
f 199 200 213 
f 201 180 214 
f 190 201 214 
f 202 190 214 
f 180 207 214 
f 207 202 214 
f 195 202 215 
f 190 202 216 
f 202 184 216 
f 176 208 216 
f 180 193 217 
f 194 180 217 
f 185 194 217 
f 197 178 218 
f 192 197 218 
f 210 192 218 
f 178 197 219 
f 197 186 219 
f 204 178 219 
f 186 204 219 
f 193 201 220 
f 174 200 221 
f 200 185 221 
f 209 174 221 
f 181 209 221 
f 177 211 222 
f 211 185 222 
f 217 193 222 
f 185 217 222 
f 211 181 223 
f 185 211 223 
f 181 221 223 
f 221 185 223 
f 188 182 224 
f 182 195 224 
f 199 188 224 
f 179 199 224 
f 215 179 224 
f 195 215 224 
f 187 183 225 
f 183 210 225 
f 218 178 225 
f 210 218 225 
f 196 177 226 
f 189 196 226 
f 220 189 226 
f 193 220 226 
f 177 222 226 
f 222 193 226 
f 178 204 227 
f 204 187 227 
f 187 225 227 
f 225 178 227 
f 194 179 228 
f 180 194 228 
f 207 180 228 
f 179 207 228 
f 192 188 229 
f 186 197 229 
f 197 192 229 
f 188 206 229 
f 209 186 229 
f 206 209 229 
f 203 176 230 
f 212 203 230 
f 184 212 230 
f 176 216 230 
f 216 184 230 
f 207 179 231 
f 202 207 231 
f 179 215 231 
f 215 202 231 
f 206 188 232 
f 174 209 232 
f 209 206 232 
f 188 213 232 
f 213 174 232 
f 187 196 233 
f 198 187 233 
f 196 198 233 
f 201 190 234 
f 208 189 234 
f 190 216 234 
f 216 208 234 
f 189 220 234 
o convex_5
v -0.027884 -0.015866 -0.032304
v -0.019703 0.001036 -0.006126
v -0.019703 0.012489 -0.009399
v -0.019703 -0.015866 -0.033940
v -0.027884 0.015215 -0.016491
v -0.019703 -0.001144 -0.033940
v -0.027884 -0.003870 -0.009946
v -0.019703 -0.014780 -0.018127
v -0.027884 -0.001144 -0.033940
v -0.019703 0.018488 -0.014307
v -0.027884 0.013032 -0.011035
v -0.027884 -0.015323 -0.021395
v -0.020250 -0.004413 -0.006673
v -0.025156 -0.016416 -0.033940
v -0.019703 -0.015866 -0.020305
v -0.020796 0.018488 -0.012127
v -0.025702 -0.009323 -0.013221
v -0.027884 -0.016416 -0.027395
v -0.020796 -0.000597 -0.006126
v -0.024611 0.014669 -0.010490
v -0.027884 -0.014780 -0.033940
v -0.024066 0.017395 -0.012671
v -0.020796 0.018488 -0.014307
v -0.019703 -0.003327 -0.006126
v -0.027884 -0.014780 -0.020305
v -0.027884 0.008669 -0.010490
f 241 253 260 
f 237 236 238 
f 237 238 240 
f 239 235 241 
f 238 236 242 
f 235 239 243 
f 240 238 243 
f 240 243 244 
f 237 240 244 
f 239 241 245 
f 241 235 246 
f 243 238 248 
f 238 242 249 
f 242 246 249 
f 248 238 249 
f 237 244 250 
f 242 247 251 
f 247 241 251 
f 246 235 252 
f 235 248 252 
f 249 246 252 
f 248 249 252 
f 236 245 253 
f 236 237 254 
f 245 236 254 
f 237 250 254 
f 235 243 255 
f 248 235 255 
f 243 248 255 
f 239 245 256 
f 245 254 256 
f 254 250 256 
f 243 239 257 
f 244 243 257 
f 250 244 257 
f 239 256 257 
f 256 250 257 
f 242 236 258 
f 247 242 258 
f 241 247 258 
f 236 253 258 
f 253 241 258 
f 241 246 259 
f 246 242 259 
f 251 241 259 
f 242 251 259 
f 245 241 260 
f 253 245 260 
o convex_6
v 0.003197 -0.032775 0.005327
v 0.017928 -0.016418 0.014053
v 0.017928 -0.016964 0.014053
v -0.016431 -0.016418 0.014053
v 0.014652 -0.016418 0.005327
v -0.013703 -0.016418 0.005327
v 0.001018 -0.029504 0.014053
v -0.006614 -0.030594 0.007509
v 0.009742 -0.026777 0.014053
v -0.002248 -0.032229 0.011326
v 0.012469 -0.024052 0.008054
v -0.011521 -0.023508 0.005327
v -0.014793 -0.020235 0.014053
v -0.001158 -0.033321 0.005327
v 0.004835 -0.031685 0.009146
v 0.016832 -0.019145 0.011326
v 0.011380 -0.023508 0.005327
v -0.006614 -0.030594 0.009690
v -0.015883 -0.016964 0.010234
v 0.000476 -0.031685 0.012416
v 0.016287 -0.020235 0.014053
v 0.009742 -0.027322 0.010234
v 0.002107 -0.033321 0.006418
v -0.008248 -0.028958 0.007509
v -0.004431 -0.031685 0.005327
v 0.005925 -0.028958 0.014053
v -0.000614 -0.031139 0.012962
v 0.016287 -0.018600 0.009146
f 277 265 288 
f 263 262 264 
f 264 262 265 
f 265 261 266 
f 264 265 266 
f 263 264 267 
f 263 267 269 
f 266 261 272 
f 267 264 273 
f 272 261 274 
f 261 265 277 
f 271 261 277 
f 270 273 278 
f 268 274 278 
f 274 270 278 
f 264 266 279 
f 266 272 279 
f 272 273 279 
f 273 264 279 
f 263 269 281 
f 276 263 281 
f 271 276 281 
f 261 271 282 
f 269 275 282 
f 275 261 282 
f 281 269 282 
f 271 281 282 
f 270 274 283 
f 274 261 283 
f 261 275 283 
f 280 270 283 
f 275 280 283 
f 273 272 284 
f 268 278 284 
f 278 273 284 
f 274 268 285 
f 272 274 285 
f 268 284 285 
f 284 272 285 
f 269 267 286 
f 275 269 286 
f 280 275 286 
f 280 286 287 
f 267 273 287 
f 273 270 287 
f 270 280 287 
f 286 267 287 
f 262 263 288 
f 265 262 288 
f 263 276 288 
f 276 271 288 
f 271 277 288 
o convex_7
v 0.006472 -0.021326 0.035867
v -0.016974 -0.016962 0.014053
v -0.016974 -0.016416 0.014053
v 0.017928 -0.016416 0.014053
v 0.006472 -0.028414 0.014053
v -0.015883 -0.016416 0.035867
v -0.008793 -0.029505 0.025507
v 0.002111 -0.016416 0.043504
v -0.007157 -0.019690 0.040774
v -0.011518 -0.028414 0.022782
v 0.008653 -0.024050 0.028779
v -0.019703 -0.016962 0.029321
v 0.012473 -0.016962 0.033140
v 0.000472 -0.022416 0.038595
v -0.010973 -0.023505 0.014053
v 0.015744 -0.020780 0.016236
v 0.001562 -0.028414 0.014053
v -0.014793 -0.019144 0.034775
v -0.007702 -0.029505 0.026057
v -0.004431 -0.016962 0.043504
v 0.009747 -0.026778 0.014601
v 0.011928 -0.022416 0.026051
v -0.009883 -0.028959 0.026057
v 0.008108 -0.016416 0.039136
v 0.003201 -0.021872 0.038595
v 0.007017 -0.024596 0.029321
v -0.007702 -0.028414 0.018963
v 0.016834 -0.017509 0.019510
v -0.004431 -0.022961 0.037499
v -0.019155 -0.018054 0.029321
v 0.006472 -0.028414 0.015146
v -0.015338 -0.020234 0.015146
v -0.019703 -0.016962 0.027144
v -0.008247 -0.020234 0.039684
v -0.010428 -0.025687 0.016236
v 0.016289 -0.020235 0.014053
v -0.019703 -0.016416 0.029321
v 0.005927 -0.016962 0.041322
v -0.007702 -0.016416 0.041866
v 0.013018 -0.016416 0.032048
v -0.008793 -0.029505 0.023872
v 0.002111 -0.016962 0.043504
v -0.018064 -0.016962 0.017873
f 321 325 331 
f 290 291 292 
f 290 292 293 
f 292 291 294 
f 292 294 296 
f 289 299 301 
f 290 293 303 
f 303 293 305 
f 297 302 308 
f 309 304 310 
f 301 299 310 
f 299 309 310 
f 298 295 311 
f 295 307 311 
f 292 296 312 
f 299 289 313 
f 302 307 313 
f 299 313 314 
f 313 307 314 
f 310 304 316 
f 301 310 316 
f 302 297 317 
f 307 302 317 
f 311 307 317 
f 294 300 318 
f 306 294 318 
f 298 311 318 
f 311 306 318 
f 307 293 319 
f 293 309 319 
f 309 299 319 
f 299 314 319 
f 314 307 319 
f 290 303 320 
f 298 318 321 
f 318 300 321 
f 297 294 322 
f 294 306 322 
f 306 311 322 
f 317 297 322 
f 311 317 322 
f 303 305 323 
f 315 298 323 
f 305 315 323 
f 320 303 323 
f 298 320 323 
f 293 292 324 
f 309 293 324 
f 304 309 324 
f 292 316 324 
f 316 304 324 
f 294 291 325 
f 300 294 325 
f 321 300 325 
f 289 301 326 
f 312 296 326 
f 301 312 326 
f 313 289 326 
f 296 294 327 
f 294 297 327 
f 308 296 327 
f 297 308 327 
f 292 312 328 
f 312 301 328 
f 316 292 328 
f 301 316 328 
f 295 298 329 
f 305 293 329 
f 293 307 329 
f 307 295 329 
f 298 315 329 
f 315 305 329 
f 296 308 330 
f 308 302 330 
f 302 313 330 
f 326 296 330 
f 313 326 330 
f 291 290 331 
f 290 320 331 
f 320 298 331 
f 298 321 331 
f 325 291 331 
o convex_8
v -0.021337 -0.011507 0.021691
v 0.023927 -0.005509 0.027693
v 0.023927 -0.006600 0.027693
v -0.015883 -0.008783 0.056046
v 0.006470 -0.016416 0.048408
v 0.014654 -0.016416 0.005327
v -0.015338 -0.002782 0.005327
v 0.005380 -0.002782 0.055494
v 0.015199 -0.002782 0.005327
v -0.015883 -0.016416 0.009146
v -0.022427 -0.002782 0.045137
v -0.020247 -0.016416 0.028782
v 0.017378 -0.013142 0.040771
v -0.016973 -0.013688 0.051133
v 0.004835 -0.012052 0.056593
v 0.015744 -0.002782 0.046225
v 0.017923 -0.016416 0.011881
v -0.024066 -0.002782 0.031497
v -0.013703 -0.016416 0.005327
v 0.022288 -0.002782 0.019514
v -0.014793 -0.002782 0.054405
v 0.021743 -0.010414 0.015148
v -0.022972 -0.006055 0.044048
v 0.019563 -0.008783 0.041865
v 0.007560 -0.009327 0.056593
v -0.016973 -0.003327 0.006421
v -0.003339 -0.015870 0.049497
v 0.015744 -0.015324 0.037499
v 0.021743 -0.009871 0.034774
v 0.021198 -0.002782 0.035316
v 0.016833 -0.007146 0.005327
v -0.007159 -0.002782 0.056046
v -0.018063 -0.006055 0.054952
v -0.020247 -0.010960 0.016237
v 0.023927 -0.007146 0.020061
v -0.021337 -0.014233 0.026057
v -0.015338 -0.016416 0.036410
v 0.017923 -0.016416 0.016784
v -0.015883 -0.010414 0.005327
v 0.000475 -0.004418 0.056593
v 0.022288 -0.005509 0.035316
v 0.002655 -0.012598 0.056046
v 0.016293 -0.013142 0.005327
v -0.015338 -0.010414 0.055499
v -0.023517 -0.002782 0.028235
v 0.023927 -0.004418 0.021150
v -0.019152 -0.007146 0.053316
v -0.016428 -0.014233 0.050044
v -0.019152 -0.014778 0.016237
v 0.007560 -0.007690 0.056593
v -0.017518 -0.013688 0.050044
v 0.007015 -0.011507 0.055494
v 0.007015 -0.015870 0.049497
v 0.020108 -0.005509 0.040771
v -0.015883 -0.006055 0.056046
v 0.022833 -0.002782 0.027693
v 0.013564 -0.016416 0.032591
v -0.015883 -0.013688 0.051680
v 0.018468 -0.010414 0.042407
v -0.024066 -0.003327 0.034232
v 0.016833 -0.014233 0.039140
v -0.016973 -0.003327 0.053858
v 0.015744 -0.003327 0.005327
v 0.022288 -0.008237 0.035316
f 372 385 395 
f 338 339 340 
f 337 338 340 
f 337 336 341 
f 339 338 342 
f 341 336 343 
f 340 339 347 
f 336 337 348 
f 342 338 349 
f 338 337 350 
f 337 341 350 
f 340 347 351 
f 339 342 352 
f 351 347 361 
f 337 340 362 
f 339 352 363 
f 333 334 366 
f 348 353 366 
f 334 360 366 
f 353 362 366 
f 349 332 367 
f 343 354 367 
f 343 336 368 
f 336 358 368 
f 336 348 369 
f 348 366 369 
f 366 360 369 
f 338 350 370 
f 350 341 370 
f 357 338 370 
f 341 365 370 
f 365 357 370 
f 335 346 371 
f 346 356 371 
f 339 363 371 
f 334 333 372 
f 333 361 372 
f 358 336 373 
f 348 337 374 
f 353 348 374 
f 337 362 374 
f 362 353 374 
f 335 345 375 
f 346 335 375 
f 373 346 375 
f 332 349 376 
f 349 338 376 
f 338 357 376 
f 365 332 376 
f 357 365 376 
f 333 366 377 
f 366 362 377 
f 345 335 378 
f 342 354 378 
f 335 364 378 
f 364 342 378 
f 343 368 379 
f 368 358 379 
f 341 343 380 
f 332 365 380 
f 365 341 380 
f 343 367 380 
f 367 332 380 
f 347 339 381 
f 355 347 381 
f 356 355 381 
f 339 371 381 
f 371 356 381 
f 354 343 382 
f 345 378 382 
f 378 354 382 
f 343 379 382 
f 379 345 382 
f 356 346 383 
f 336 359 384 
f 346 373 384 
f 373 336 384 
f 344 383 384 
f 383 346 384 
f 347 355 385 
f 361 347 385 
f 372 361 385 
f 363 352 386 
f 364 335 386 
f 335 371 386 
f 371 363 386 
f 361 333 387 
f 351 361 387 
f 377 351 387 
f 333 377 387 
f 359 336 388 
f 336 369 388 
f 369 359 388 
f 358 373 389 
f 375 345 389 
f 373 375 389 
f 345 379 389 
f 379 358 389 
f 355 356 390 
f 360 355 390 
f 344 360 390 
f 383 344 390 
f 356 383 390 
f 342 349 391 
f 354 342 391 
f 349 367 391 
f 367 354 391 
f 360 344 392 
f 359 369 392 
f 369 360 392 
f 384 359 392 
f 344 384 392 
f 352 342 393 
f 342 364 393 
f 386 352 393 
f 364 386 393 
f 340 351 394 
f 362 340 394 
f 351 377 394 
f 377 362 394 
f 360 334 395 
f 355 360 395 
f 334 372 395 
f 385 355 395 
o convex_9
v -0.024608 0.011943 0.032592
v 0.023382 0.001038 0.029871
v 0.023382 -0.000597 0.029871
v -0.016975 -0.002233 0.005327
v 0.005927 0.021212 0.011877
v -0.006067 -0.002782 0.056039
v 0.001020 0.024486 0.045138
v 0.015199 -0.002782 0.005332
v -0.011519 0.020669 0.010237
v 0.011924 0.006493 0.054409
v 0.016290 0.021212 0.028236
v -0.021337 -0.002782 0.047316
v -0.018066 0.014667 0.049499
v -0.009338 0.026124 0.033135
v -0.002251 0.010853 0.057684
v -0.000070 0.016849 0.005327
v 0.015199 -0.002782 0.047316
v -0.026793 0.002130 0.028241
v -0.019701 0.008129 0.008059
v 0.014654 0.019030 0.041863
v -0.019701 0.020123 0.025509
v 0.018470 0.011940 0.017878
v 0.022287 -0.002782 0.018965
v 0.002656 0.024486 0.021696
v -0.023517 -0.002782 0.026601
v 0.021196 0.004858 0.038045
v -0.015885 -0.002233 0.053312
v -0.026243 0.003220 0.038045
v 0.004836 -0.002782 0.055496
v -0.024063 0.011397 0.021148
v 0.007017 0.017395 0.050048
v -0.002251 0.025578 0.043503
v 0.019561 0.015214 0.031505
v 0.022832 0.001584 0.019513
v -0.009338 0.014124 0.005327
v 0.009743 0.023396 0.040228
v -0.022427 0.016306 0.035318
v -0.014795 0.022850 0.035862
v 0.008107 0.016849 0.009699
v 0.016835 0.007039 0.047864
v -0.016975 0.017395 0.012968
v -0.017521 -0.002782 0.006424
v -0.011519 0.004309 0.055501
v 0.018470 0.015760 0.038045
v -0.009883 0.025578 0.027698
v 0.013564 0.022850 0.027687
v -0.025698 -0.001689 0.035318
v -0.003886 0.026124 0.029332
v -0.008793 0.021755 0.011328
v -0.000070 0.010853 0.057684
v -0.017521 0.011943 0.051134
v 0.017925 0.014667 0.019513
v 0.022287 0.007583 0.029322
v -0.008248 0.023939 0.042411
v 0.020651 -0.002782 0.035867
v -0.018066 0.021758 0.026601
v -0.002796 0.012489 0.056592
v -0.022427 0.012486 0.041863
v 0.021196 0.001038 0.038045
v 0.008107 0.011400 0.054409
v -0.019701 0.005947 0.007515
v -0.002796 0.005401 0.057684
v 0.011924 0.021758 0.041858
v 0.011924 0.003220 0.005327
f 434 417 459 
f 403 401 407 
f 401 403 412 
f 412 403 418 
f 403 407 420 
f 398 397 421 
f 407 401 422 
f 396 413 423 
f 401 412 424 
f 412 405 424 
f 413 396 425 
f 396 416 425 
f 397 398 429 
f 403 417 429 
f 398 418 429 
f 418 403 429 
f 411 399 430 
f 404 411 430 
f 414 404 430 
f 427 402 431 
f 416 396 432 
f 432 408 433 
f 411 400 434 
f 405 412 435 
f 415 405 435 
f 404 414 436 
f 416 404 436 
f 414 425 436 
f 425 416 436 
f 399 403 437 
f 403 420 437 
f 420 413 437 
f 422 401 438 
f 406 415 439 
f 428 406 439 
f 415 435 439 
f 435 421 439 
f 406 400 441 
f 400 419 441 
f 431 406 441 
f 420 407 442 
f 413 420 442 
f 407 423 442 
f 423 413 442 
f 409 427 443 
f 427 431 443 
f 440 409 443 
f 441 419 443 
f 431 441 443 
f 400 411 444 
f 411 404 444 
f 419 400 444 
f 404 440 444 
f 440 443 444 
f 443 419 444 
f 424 405 445 
f 426 402 445 
f 410 408 446 
f 407 422 446 
f 408 423 446 
f 423 407 446 
f 438 410 446 
f 422 438 446 
f 400 406 447 
f 406 428 447 
f 429 417 447 
f 434 400 447 
f 417 434 447 
f 421 397 448 
f 397 429 448 
f 439 421 448 
f 428 439 448 
f 447 428 448 
f 429 447 448 
f 408 427 449 
f 427 409 449 
f 409 433 449 
f 433 408 449 
f 418 398 450 
f 412 418 450 
f 404 416 451 
f 416 432 451 
f 433 409 451 
f 432 433 451 
f 440 404 451 
f 409 440 451 
f 408 410 452 
f 402 427 452 
f 427 408 452 
f 410 445 452 
f 445 402 452 
f 396 423 453 
f 423 408 453 
f 408 432 453 
f 432 396 453 
f 398 421 454 
f 435 412 454 
f 421 435 454 
f 450 398 454 
f 412 450 454 
f 405 415 455 
f 445 405 455 
f 426 445 455 
f 413 425 456 
f 425 414 456 
f 430 399 456 
f 414 430 456 
f 399 437 456 
f 437 413 456 
f 401 424 457 
f 438 401 457 
f 410 438 457 
f 445 410 457 
f 424 445 457 
f 415 406 458 
f 402 426 458 
f 406 431 458 
f 431 402 458 
f 455 415 458 
f 426 455 458 
f 403 399 459 
f 399 411 459 
f 417 403 459 
f 411 434 459 
o convex_10
v -0.010427 -0.019141 -0.033940
v 0.039198 0.011398 -0.027938
v 0.039198 0.010851 -0.027938
v -0.019703 0.008124 -0.018124
v 0.009747 -0.015869 -0.018124
v 0.008663 0.011398 -0.033940
v 0.035923 0.011398 -0.018124
v 0.029921 -0.002240 -0.033940
v -0.019156 -0.015325 -0.018124
v -0.019703 -0.001148 -0.033940
v 0.009205 -0.015869 -0.033940
v 0.039198 0.011398 -0.033940
v -0.010974 0.011398 -0.018124
v -0.019703 -0.015869 -0.033940
v 0.032648 0.005942 -0.018124
v -0.013701 -0.018051 -0.021399
v -0.003888 -0.019688 -0.033394
v 0.037561 0.005942 -0.032849
v -0.014791 0.009761 -0.019762
v -0.019703 -0.015869 -0.019216
v 0.010837 -0.015322 -0.018124
v -0.006615 -0.018593 -0.023035
v -0.002251 -0.016959 -0.018124
v 0.012474 -0.014232 -0.033940
v -0.019703 0.004853 -0.024670
v -0.018066 -0.016959 -0.021942
v 0.029921 -0.002240 -0.033394
v -0.019156 -0.000603 -0.033940
v -0.019156 -0.016411 -0.033940
v -0.016429 -0.016959 -0.019216
v 0.035375 0.009761 -0.018124
v 0.038103 0.007035 -0.033940
v -0.001703 -0.019141 -0.033940
v -0.010974 -0.018593 -0.023035
v -0.013154 0.010851 -0.018672
f 478 463 494 
f 462 461 466 
f 463 464 466 
f 461 465 466 
f 460 465 467 
f 464 463 468 
f 465 460 469 
f 460 467 470 
f 461 462 471 
f 465 461 471 
f 467 465 471 
f 463 466 472 
f 466 465 472 
f 469 460 473 
f 463 469 473 
f 466 464 474 
f 468 463 479 
f 463 473 479 
f 474 464 480 
f 476 464 481 
f 464 468 482 
f 481 464 482 
f 475 481 482 
f 464 470 483 
f 470 467 483 
f 480 464 483 
f 469 463 484 
f 478 465 484 
f 463 478 484 
f 460 475 485 
f 467 477 486 
f 477 474 486 
f 474 480 486 
f 483 467 486 
f 480 483 486 
f 465 469 487 
f 484 465 487 
f 469 484 487 
f 473 460 488 
f 479 473 488 
f 460 485 488 
f 485 479 488 
f 468 479 489 
f 482 468 489 
f 475 482 489 
f 485 475 489 
f 479 485 489 
f 462 466 490 
f 466 474 490 
f 477 462 490 
f 474 477 490 
f 471 462 491 
f 467 471 491 
f 462 477 491 
f 477 467 491 
f 460 470 492 
f 470 464 492 
f 476 460 492 
f 464 476 492 
f 475 460 493 
f 460 476 493 
f 481 475 493 
f 476 481 493 
f 463 472 494 
f 472 465 494 
f 465 478 494 
o convex_11
v -0.006614 0.011398 -0.018124
v 0.027741 0.031032 -0.019762
v 0.027741 0.031032 -0.021942
v 0.039196 0.011398 -0.033940
v 0.035923 0.011398 -0.018124
v 0.010841 0.013582 -0.033940
v 0.025014 0.025032 -0.032849
v 0.037562 0.027213 -0.018124
v 0.011388 0.027759 -0.018124
v 0.033742 0.020128 -0.033940
v 0.009207 0.011398 -0.033940
v -0.002794 0.016853 -0.019216
v 0.022833 0.029395 -0.027395
v 0.040289 0.018490 -0.025762
v 0.029376 0.029395 -0.026848
v 0.038650 0.016309 -0.033940
v 0.039196 0.017944 -0.018124
v 0.035923 0.028303 -0.021942
v 0.020653 0.031032 -0.018124
v 0.027741 0.023941 -0.033940
v -0.003336 0.011944 -0.023035
v 0.039196 0.011398 -0.027395
v 0.032103 0.024484 -0.031213
v 0.039196 0.023395 -0.022490
v 0.021194 0.029941 -0.025217
v 0.034284 0.029395 -0.018124
v 0.022833 0.022851 -0.033940
v 0.027741 0.028305 -0.029575
v 0.020653 0.028847 -0.026303
v 0.010300 0.026668 -0.019216
v 0.040289 0.015217 -0.026303
v 0.039196 0.022851 -0.018672
v 0.039742 0.015765 -0.032303
v -0.001155 0.018490 -0.018124
v 0.023380 0.030485 -0.025217
v -0.006063 0.011398 -0.020307
v 0.020106 0.030485 -0.022490
v 0.032649 0.029941 -0.021399
v 0.037015 0.012490 -0.018124
f 516 511 533 
f 495 498 499 
f 495 499 502 
f 495 502 503 
f 498 500 504 
f 498 495 505 
f 500 498 505 
f 498 504 510 
f 502 499 511 
f 496 497 513 
f 503 502 513 
f 504 500 514 
f 500 505 515 
f 506 500 515 
f 499 498 516 
f 510 504 517 
f 509 512 517 
f 512 510 517 
f 504 514 517 
f 512 502 518 
f 510 512 518 
f 502 512 520 
f 496 513 520 
f 513 502 520 
f 507 501 521 
f 514 500 521 
f 501 514 521 
f 501 507 522 
f 514 501 522 
f 509 517 522 
f 517 514 522 
f 500 506 523 
f 519 507 523 
f 521 500 523 
f 507 521 523 
f 503 519 524 
f 523 506 524 
f 519 523 524 
f 508 511 525 
f 516 498 525 
f 511 516 525 
f 502 511 526 
f 511 508 526 
f 508 518 526 
f 518 502 526 
f 498 510 527 
f 518 508 527 
f 510 518 527 
f 525 498 527 
f 508 525 527 
f 495 503 528 
f 506 495 528 
f 503 524 528 
f 524 506 528 
f 497 509 529 
f 513 497 529 
f 507 519 529 
f 522 507 529 
f 509 522 529 
f 505 495 530 
f 495 506 530 
f 515 505 530 
f 506 515 530 
f 503 513 531 
f 519 503 531 
f 513 529 531 
f 529 519 531 
f 497 496 532 
f 509 497 532 
f 512 509 532 
f 496 520 532 
f 520 512 532 
f 511 499 533 
f 499 516 533 
o convex_12
v 0.036467 0.013040 -0.013761
v 0.016292 0.001039 -0.018124
v 0.020655 0.000491 -0.018124
v 0.027745 0.031030 -0.018124
v 0.016292 0.028303 -0.008309
v 0.020110 0.003220 -0.011035
v 0.033741 0.029396 -0.008309
v 0.016292 0.029396 -0.018124
v 0.039198 0.020669 -0.018124
v 0.032106 0.013040 -0.008853
v 0.029924 0.003220 -0.017578
v 0.026110 0.021210 -0.006671
v 0.016292 0.013040 -0.009399
v 0.022292 0.031578 -0.011035
v 0.036467 0.028303 -0.018124
v 0.026658 0.003220 -0.011581
v 0.035922 0.018487 -0.009945
v 0.016292 0.001583 -0.012669
v 0.033741 0.009763 -0.011035
v 0.035380 0.009763 -0.018124
v 0.028288 0.031578 -0.012127
v 0.038106 0.023940 -0.014851
v 0.022292 0.001039 -0.012669
v 0.016839 0.029941 -0.008853
v 0.033741 0.019028 -0.008309
v 0.020655 0.031030 -0.018124
v 0.026110 0.001039 -0.018124
v 0.026110 0.004854 -0.010491
v 0.039198 0.018487 -0.017578
v 0.031016 0.005402 -0.013215
v 0.037559 0.027214 -0.017034
v 0.026658 0.022303 -0.006671
v 0.020110 0.020669 -0.007762
v 0.030471 0.031030 -0.013761
v 0.035922 0.015763 -0.010491
v 0.023386 0.031578 -0.016486
v 0.017384 0.030485 -0.011035
v 0.034288 0.008676 -0.014851
v 0.031016 0.007581 -0.010491
v 0.026658 0.002128 -0.013761
f 563 549 573 
f 536 535 537 
f 537 535 541 
f 535 538 541 
f 536 537 542 
f 538 535 546 
f 539 545 546 
f 542 537 548 
f 535 536 551 
f 546 535 551 
f 539 546 551 
f 536 542 553 
f 547 540 554 
f 540 550 555 
f 549 539 556 
f 551 536 556 
f 539 551 556 
f 538 540 557 
f 541 538 557 
f 540 547 557 
f 545 543 558 
f 550 540 558 
f 537 541 559 
f 536 553 560 
f 553 544 560 
f 556 536 560 
f 545 539 561 
f 543 545 561 
f 539 549 561 
f 534 553 562 
f 553 542 562 
f 542 555 562 
f 555 550 562 
f 548 540 564 
f 542 548 564 
f 540 555 564 
f 555 542 564 
f 540 538 565 
f 538 545 565 
f 558 540 565 
f 545 558 565 
f 545 538 566 
f 538 546 566 
f 546 545 566 
f 548 537 567 
f 540 548 567 
f 537 554 567 
f 554 540 567 
f 552 534 568 
f 543 552 568 
f 558 543 568 
f 550 558 568 
f 534 562 568 
f 562 550 568 
f 554 537 569 
f 547 554 569 
f 537 559 569 
f 559 547 569 
f 541 557 570 
f 557 547 570 
f 559 541 570 
f 547 559 570 
f 534 552 571 
f 553 534 571 
f 544 553 571 
f 563 544 571 
f 552 563 571 
f 552 543 572 
f 543 561 572 
f 561 549 572 
f 549 563 572 
f 563 552 572 
f 549 556 573 
f 560 544 573 
f 556 560 573 
f 544 563 573 
o convex_13
v -0.019703 0.016850 -0.015941
v -0.009341 0.014123 -0.003399
v -0.009887 0.014123 -0.003399
v -0.019703 -0.014780 -0.018124
v -0.009341 0.011396 -0.018124
v -0.009887 -0.013142 -0.003399
v -0.019703 -0.002779 -0.005581
v -0.009341 -0.014780 -0.018124
v -0.009341 0.021215 -0.011579
v -0.019703 0.017942 -0.011579
v -0.019703 0.008668 -0.018124
v -0.016976 0.002129 -0.003945
v -0.014250 0.021215 -0.010491
v -0.009341 -0.014234 -0.007762
v -0.009887 0.019031 -0.014851
v -0.013159 0.009757 -0.003399
v -0.017522 0.019577 -0.014306
v -0.009341 0.021215 -0.008855
v -0.019158 0.001037 -0.005036
v -0.019703 -0.005506 -0.007762
v -0.009341 -0.013142 -0.003399
v -0.013159 -0.007141 -0.003399
v -0.019703 -0.014780 -0.017578
v -0.014250 0.021215 -0.012669
v -0.019703 0.019031 -0.013760
v -0.019703 0.014123 -0.009944
v -0.018612 0.017396 -0.015941
f 590 588 600 
f 575 576 579 
f 574 577 580 
f 577 578 581 
f 578 575 581 
f 575 578 582 
f 574 580 583 
f 577 574 584 
f 578 577 584 
f 583 576 586 
f 581 575 587 
f 582 578 588 
f 579 576 589 
f 576 583 589 
f 576 575 591 
f 575 582 591 
f 586 576 591 
f 582 586 591 
f 580 585 592 
f 585 589 592 
f 580 577 593 
f 579 580 593 
f 575 579 594 
f 587 575 594 
f 579 587 594 
f 580 579 595 
f 585 580 595 
f 579 589 595 
f 589 585 595 
f 577 581 596 
f 587 579 596 
f 581 587 596 
f 593 577 596 
f 579 593 596 
f 586 582 597 
f 582 588 597 
f 588 590 597 
f 597 590 598 
f 574 583 598 
f 583 586 598 
f 590 574 598 
f 586 597 598 
f 583 580 599 
f 589 583 599 
f 580 592 599 
f 592 589 599 
f 584 574 600 
f 578 584 600 
f 588 578 600 
f 574 590 600 
o convex_14
v 0.015745 -0.003868 -0.003399
v -0.009341 -0.014779 -0.018124
v -0.008794 -0.015322 -0.018124
v 0.016292 0.029388 -0.018124
v -0.009341 0.014664 -0.003399
v 0.013562 -0.012047 -0.018124
v -0.001159 -0.021867 -0.003399
v -0.009341 0.019574 -0.014306
v 0.016292 0.029388 -0.008855
v 0.016292 -0.014231 -0.003399
v -0.009341 -0.013687 -0.003399
v -0.009341 0.011394 -0.018124
v -0.007158 0.022300 -0.008308
v 0.009746 -0.015866 -0.018124
v -0.000614 0.018482 -0.003399
v 0.016292 -0.000050 -0.018124
v 0.002113 -0.022415 -0.005581
v 0.010837 -0.019135 -0.003399
v -0.004975 -0.016957 -0.018124
v 0.007565 0.023935 -0.005581
v 0.010293 0.027210 -0.018124
v 0.016292 -0.013139 -0.008855
v 0.011382 0.028845 -0.012669
v -0.009341 0.021214 -0.011579
v 0.011382 0.005398 -0.003399
v -0.003886 -0.020232 -0.003399
v 0.013562 -0.015322 -0.012122
v 0.016292 0.027753 -0.008308
v 0.015745 0.029941 -0.009401
v -0.006611 0.021757 -0.007217
v 0.015200 -0.008234 -0.018124
v -0.001159 0.019030 -0.018124
v -0.001159 -0.021867 -0.005581
v 0.002657 -0.021867 -0.007217
v 0.010837 -0.019135 -0.004490
v -0.009341 -0.014779 -0.008855
v 0.005929 0.023935 -0.005581
v -0.009341 0.021214 -0.008308
v 0.012473 0.028296 -0.018124
v -0.008794 0.021757 -0.010491
v 0.004291 -0.021867 -0.003399
v 0.001022 0.017939 -0.003399
v -0.002250 -0.016957 -0.018124
v 0.015200 -0.015322 -0.006126
f 635 627 644 
f 603 602 604 
f 603 604 606 
f 601 605 607 
f 602 605 608 
f 604 609 610 
f 601 607 610 
f 605 602 611 
f 607 605 611 
f 604 602 612 
f 602 608 612 
f 603 606 614 
f 605 601 615 
f 606 604 616 
f 604 610 616 
f 610 607 618 
f 603 614 619 
f 604 612 621 
f 616 610 622 
f 608 605 624 
f 621 608 624 
f 615 601 625 
f 602 603 626 
f 607 611 626 
f 614 606 627 
f 606 622 627 
f 610 609 628 
f 601 610 628 
f 609 620 628 
f 625 601 628 
f 620 625 628 
f 609 604 629 
f 604 623 629 
f 623 613 629 
f 605 615 630 
f 629 613 630 
f 606 616 631 
f 622 606 631 
f 616 622 631 
f 612 608 632 
f 621 612 632 
f 608 621 632 
f 617 607 633 
f 603 619 633 
f 619 617 633 
f 626 603 633 
f 607 626 633 
f 617 619 634 
f 614 627 635 
f 634 614 635 
f 617 634 635 
f 611 602 636 
f 602 626 636 
f 626 611 636 
f 620 609 637 
f 615 620 637 
f 609 629 637 
f 630 615 637 
f 629 630 637 
f 624 605 638 
f 605 630 638 
f 630 613 638 
f 604 621 639 
f 623 604 639 
f 621 624 639 
f 639 624 640 
f 613 623 640 
f 624 638 640 
f 638 613 640 
f 623 639 640 
f 607 617 641 
f 618 607 641 
f 617 635 641 
f 635 618 641 
f 620 615 642 
f 615 625 642 
f 625 620 642 
f 619 614 643 
f 614 634 643 
f 634 619 643 
f 610 618 644 
f 622 610 644 
f 627 622 644 
f 618 635 644 
