o convex_0
v 0.020360 -0.037578 -0.008657
v -0.012197 0.044543 -0.006529
v -0.012197 0.044543 -0.007242
v -0.046895 -0.021298 -0.023519
v 0.040896 0.020460 -0.030601
v 0.027446 -0.034749 -0.032014
v -0.041226 0.016212 -0.032014
v 0.050806 0.002760 -0.006529
v -0.049016 -0.013512 -0.006529
v 0.033106 0.033202 -0.006529
v 0.044434 -0.024844 -0.026352
v -0.034150 0.034621 -0.006529
v -0.040523 -0.022007 -0.031309
v -0.019284 0.040287 -0.018568
v 0.035940 -0.032630 -0.006529
v 0.050103 0.019750 -0.023519
v 0.016822 -0.039706 -0.026352
v -0.029195 -0.028382 -0.006529
v 0.038775 -0.009974 -0.032722
v -0.048313 0.006299 -0.027060
v 0.019656 0.021169 -0.032014
v 0.008328 -0.034040 -0.032722
v -0.048313 0.007717 -0.006529
v 0.013987 0.040287 -0.008657
v -0.026360 0.024707 -0.030598
v 0.033106 -0.036168 -0.030598
v 0.048686 -0.016341 -0.019275
v -0.043347 -0.023426 -0.027768
v 0.003373 0.016921 -0.032722
v -0.023526 -0.020588 -0.032722
v 0.045147 -0.022007 -0.007239
v 0.002659 0.039578 -0.015737
v 0.047972 0.021169 -0.026352
v 0.047972 -0.014221 -0.026352
v 0.051520 0.015511 -0.018570
v 0.008328 -0.036168 -0.006529
v -0.046182 -0.009974 -0.030601
v -0.041940 -0.022716 -0.006529
v -0.032019 0.034621 -0.015737
v -0.021405 0.044543 -0.007242
v -0.049730 -0.009974 -0.019275
v 0.011866 -0.038288 -0.029891
v -0.044061 0.015511 -0.029183
v -0.044765 0.017631 -0.009365
v 0.047972 0.013383 -0.006529
v 0.024612 -0.039005 -0.017860
v 0.040182 -0.031211 -0.017152
v 0.050806 -0.005017 -0.006529
v 0.043730 -0.009974 -0.030601
v 0.049389 0.021878 -0.020688
v 0.051520 0.001350 -0.017860
v -0.029195 -0.028382 -0.017152
v 0.035227 0.017631 -0.032014
v -0.015032 0.040287 -0.018568
v -0.041940 -0.014213 -0.032014
v -0.049730 0.000649 -0.007239
v 0.034523 -0.031211 -0.032014
v 0.022481 0.038167 -0.007242
v 0.009745 -0.037578 -0.012903
v -0.036985 0.019049 -0.032014
v 0.038775 0.021870 -0.029891
v -0.044061 -0.023426 -0.017860
v 0.023898 0.014802 -0.032722
v 0.033809 -0.035459 -0.015737
f 26 47 64 
f 8 2 9 
f 2 8 10 
f 9 2 12 
f 8 9 15 
f 15 9 18 
f 9 12 23 
f 3 2 24 
f 19 22 29 
f 22 13 30 
f 7 29 30 
f 29 22 30 
f 11 27 31 
f 3 24 32 
f 27 11 34 
f 33 16 34 
f 1 15 36 
f 15 18 36 
f 20 7 37 
f 28 4 37 
f 13 28 37 
f 18 9 38 
f 14 39 40 
f 2 3 40 
f 12 2 40 
f 3 14 40 
f 39 12 40 
f 4 9 41 
f 37 4 41 
f 20 37 41 
f 13 22 42 
f 22 6 42 
f 26 17 42 
f 6 26 42 
f 28 13 42 
f 7 20 43 
f 39 7 43 
f 12 39 43 
f 23 12 44 
f 20 23 44 
f 43 20 44 
f 12 43 44 
f 10 8 45 
f 8 35 45 
f 15 1 46 
f 17 26 46 
f 26 11 47 
f 31 15 47 
f 11 31 47 
f 8 15 48 
f 15 31 48 
f 31 27 48 
f 19 5 49 
f 5 33 49 
f 33 34 49 
f 34 11 49 
f 16 33 50 
f 35 16 50 
f 10 45 50 
f 45 35 50 
f 27 34 51 
f 34 16 51 
f 16 35 51 
f 35 8 51 
f 8 48 51 
f 48 27 51 
f 17 18 52 
f 42 17 52 
f 28 42 52 
f 5 19 53 
f 21 5 53 
f 14 3 54 
f 25 14 54 
f 21 25 54 
f 3 32 54 
f 7 30 55 
f 30 13 55 
f 37 7 55 
f 13 37 55 
f 9 23 56 
f 23 20 56 
f 41 9 56 
f 20 41 56 
f 6 22 57 
f 22 19 57 
f 11 26 57 
f 26 6 57 
f 19 49 57 
f 49 11 57 
f 2 10 58 
f 24 2 58 
f 33 24 58 
f 10 50 58 
f 50 33 58 
f 18 17 59 
f 1 36 59 
f 36 18 59 
f 46 1 59 
f 17 46 59 
f 14 25 60 
f 25 21 60 
f 21 29 60 
f 29 7 60 
f 7 39 60 
f 39 14 60 
f 5 21 61 
f 32 24 61 
f 24 33 61 
f 33 5 61 
f 21 54 61 
f 54 32 61 
f 9 4 62 
f 4 28 62 
f 38 9 62 
f 18 38 62 
f 52 18 62 
f 28 52 62 
f 19 29 63 
f 29 21 63 
f 53 19 63 
f 21 53 63 
f 15 46 64 
f 46 26 64 
f 47 15 64 
o convex_1
v 0.013280 -0.036174 -0.003696
v -0.014323 0.045243 -0.004405
v -0.014323 0.045243 -0.005820
v -0.053978 -0.005013 0.006215
v 0.049386 0.015509 0.011172
v 0.049386 0.009133 -0.006529
v -0.047598 -0.016346 -0.006529
v -0.020693 -0.031911 0.011172
v -0.024939 0.032492 0.011172
v 0.034523 -0.028380 0.011172
v 0.037354 0.037449 0.006923
v 0.043016 -0.024842 -0.006529
v -0.034151 0.034620 -0.006529
v -0.051845 0.011253 0.011172
v 0.035231 0.032500 -0.006529
v -0.047598 -0.021303 0.011172
v -0.029186 -0.028380 -0.006529
v -0.047598 0.016919 -0.005112
v 0.050812 0.002072 0.011172
v 0.042309 0.031089 0.011172
v 0.028861 -0.035465 -0.006529
v -0.033443 0.036747 -0.000156
v -0.000886 -0.033329 0.011172
v 0.016819 0.040286 -0.006529
v 0.050812 -0.005013 -0.006529
v -0.012907 0.034628 0.011172
v 0.043724 0.026124 -0.002281
v 0.013280 0.042406 0.001261
v -0.049721 -0.000765 -0.006529
v 0.004079 -0.035465 -0.006529
v -0.041936 -0.024842 0.003382
v -0.020693 0.045243 -0.006529
v -0.046890 0.019047 0.009755
v 0.031692 -0.032628 0.003382
v 0.045847 -0.019884 -0.005112
v 0.037354 -0.025543 0.011172
v -0.052552 0.004893 0.001970
v 0.036646 -0.031919 -0.005112
v -0.047598 -0.019884 -0.000863
v -0.023524 0.040995 0.000552
v -0.041936 -0.022714 -0.006529
v -0.053260 -0.000056 0.011172
v 0.003371 0.034628 0.011172
v 0.048678 -0.004304 0.010463
v 0.040185 0.030380 -0.004405
v 0.021773 -0.036174 -0.004405
v -0.053978 -0.005013 0.004089
v 0.047263 0.019748 0.001970
v 0.043724 0.029670 0.010463
v -0.036274 -0.026961 0.011172
v 0.033815 0.036747 -0.000156
v 0.050812 0.006296 0.010463
v -0.029186 0.030372 0.011172
v 0.027446 -0.030500 0.010463
v -0.044767 0.018338 -0.006529
v -0.049014 -0.012807 -0.006529
v 0.050094 -0.005013 0.002673
v 0.050094 0.006296 -0.006529
v -0.029904 -0.028380 -0.005820
v -0.003696 -0.034046 -0.006529
v 0.028153 0.039585 0.004799
v -0.053260 0.005586 0.010463
v -0.051845 0.011253 0.006923
v 0.001248 0.043123 -0.006529
f 88 96 128 
f 72 69 73 
f 69 72 74 
f 71 70 76 
f 70 71 77 
f 72 73 78 
f 70 77 79 
f 72 78 80 
f 71 76 81 
f 69 74 83 
f 73 69 84 
f 81 76 85 
f 77 82 86 
f 72 65 87 
f 74 72 87 
f 79 77 88 
f 76 70 89 
f 73 84 90 
f 67 66 92 
f 66 90 92 
f 77 71 93 
f 65 72 94 
f 81 85 94 
f 66 67 96 
f 77 86 96 
f 88 77 96 
f 86 82 97 
f 76 89 99 
f 83 74 100 
f 76 99 100 
f 82 93 101 
f 85 76 102 
f 74 98 102 
f 98 85 102 
f 100 74 102 
f 76 100 102 
f 95 80 103 
f 86 73 104 
f 90 66 104 
f 73 90 104 
f 66 96 104 
f 96 86 104 
f 71 81 105 
f 103 71 105 
f 95 103 105 
f 68 80 106 
f 80 78 106 
f 84 75 107 
f 90 84 107 
f 92 90 107 
f 83 100 108 
f 100 99 108 
f 70 79 109 
f 91 70 109 
f 75 91 109 
f 87 65 110 
f 65 94 110 
f 94 85 110 
f 85 98 110 
f 98 87 110 
f 80 68 111 
f 101 93 111 
f 103 80 111 
f 69 70 112 
f 70 91 112 
f 112 91 113 
f 84 69 113 
f 75 84 113 
f 91 75 113 
f 69 112 113 
f 72 80 114 
f 80 95 114 
f 88 75 115 
f 79 88 115 
f 75 109 115 
f 109 79 115 
f 69 83 116 
f 83 89 116 
f 78 73 117 
f 73 86 117 
f 97 78 117 
f 86 97 117 
f 74 87 118 
f 98 74 118 
f 87 98 118 
f 82 77 119 
f 77 93 119 
f 93 82 119 
f 93 71 120 
f 71 103 120 
f 111 93 120 
f 103 111 120 
f 89 83 121 
f 99 89 121 
f 83 108 121 
f 108 99 121 
f 70 69 122 
f 89 70 122 
f 69 116 122 
f 116 89 122 
f 105 81 123 
f 95 105 123 
f 72 114 123 
f 114 95 123 
f 94 72 124 
f 81 94 124 
f 72 123 124 
f 123 81 124 
f 75 88 125 
f 88 92 125 
f 107 75 125 
f 92 107 125 
f 68 106 126 
f 106 78 126 
f 111 68 126 
f 101 111 126 
f 78 97 127 
f 97 82 127 
f 82 101 127 
f 126 78 127 
f 101 126 127 
f 67 92 128 
f 92 88 128 
f 96 67 128 
o convex_2
v 0.052936 0.002059 0.048695
v 0.026031 -0.008559 0.038078
v 0.026031 -0.007852 0.038078
v 0.035237 -0.003607 0.057903
v 0.047271 -0.009268 0.038786
v 0.035237 0.002059 0.054359
v 0.045146 -0.000774 0.038078
v 0.028155 -0.012809 0.038786
v 0.052228 -0.004314 0.050822
v 0.028863 -0.004314 0.038078
v 0.038778 -0.005020 0.057194
v 0.049395 -0.007144 0.038078
v 0.036653 0.000643 0.057194
v 0.046562 0.002768 0.047990
v 0.030988 -0.012809 0.038786
v 0.053644 -0.000774 0.050111
v 0.048687 -0.001481 0.038078
v 0.033821 -0.000065 0.055776
v 0.047271 0.002768 0.051528
v 0.040189 -0.002898 0.057194
v 0.026739 -0.011392 0.039494
v 0.050811 0.002768 0.046576
v 0.052936 -0.003607 0.045869
v 0.030988 -0.012809 0.038078
v 0.027447 -0.005020 0.038786
v 0.036653 0.002059 0.052238
v 0.035237 -0.006434 0.054359
v 0.052936 0.001352 0.046576
f 144 151 156 
f 130 131 135 
f 135 131 138 
f 130 135 140 
f 133 137 143 
f 137 139 143 
f 140 135 145 
f 131 130 146 
f 141 134 146 
f 132 141 146 
f 134 141 147 
f 142 134 147 
f 144 129 147 
f 144 147 148 
f 132 139 148 
f 139 137 148 
f 141 132 148 
f 137 144 148 
f 147 141 148 
f 130 136 149 
f 146 130 149 
f 132 146 149 
f 135 142 150 
f 145 135 150 
f 147 129 150 
f 142 147 150 
f 137 133 151 
f 133 140 151 
f 144 137 151 
f 136 130 152 
f 130 140 152 
f 140 133 152 
f 143 136 152 
f 133 143 152 
f 138 131 153 
f 134 138 153 
f 131 146 153 
f 146 134 153 
f 138 134 154 
f 135 138 154 
f 134 142 154 
f 142 135 154 
f 139 132 155 
f 136 143 155 
f 143 139 155 
f 149 136 155 
f 132 149 155 
f 129 144 156 
f 140 145 156 
f 150 129 156 
f 145 150 156 
f 151 140 156 
o convex_3
v -0.053270 0.005603 0.011172
v 0.000538 0.034630 0.011880
v 0.006199 0.033921 0.015420
v 0.011868 -0.009269 0.011172
v -0.044771 -0.009269 0.018252
v 0.011868 -0.009269 0.018252
v -0.031317 0.030380 0.018252
v 0.011868 0.031794 0.018252
v -0.047602 -0.009269 0.011172
v -0.024948 0.032503 0.011172
v 0.011868 0.033212 0.011172
v -0.051848 -0.001478 0.017544
v -0.043349 0.019758 0.018252
v -0.051848 0.011271 0.011172
v -0.017870 0.033921 0.016128
v -0.035564 0.026839 0.012589
v -0.052556 0.009148 0.013296
v -0.051141 -0.005724 0.011880
v -0.017870 0.034630 0.014005
v -0.022824 0.032503 0.018252
v -0.012916 0.034630 0.011172
v -0.051848 -0.003597 0.016836
v -0.053270 -0.000060 0.011172
v -0.047602 0.004894 0.018252
v -0.026363 0.032503 0.012589
v -0.000878 0.034630 0.014712
v -0.012208 0.033212 0.017544
v -0.047602 0.015512 0.011172
f 169 172 184 
f 161 160 162 
f 161 162 163 
f 163 162 164 
f 162 160 164 
f 157 160 165 
f 160 161 165 
f 160 157 166 
f 158 159 167 
f 159 164 167 
f 164 160 167 
f 160 166 167 
f 161 163 169 
f 166 157 170 
f 169 163 172 
f 157 168 173 
f 168 169 173 
f 169 170 173 
f 170 157 173 
f 171 175 176 
f 163 164 176 
f 175 163 176 
f 158 167 177 
f 167 166 177 
f 175 158 177 
f 166 175 177 
f 165 161 178 
f 161 168 178 
f 174 165 178 
f 174 178 179 
f 157 165 179 
f 168 157 179 
f 165 174 179 
f 178 168 179 
f 168 161 180 
f 161 169 180 
f 169 168 180 
f 172 163 181 
f 166 172 181 
f 175 166 181 
f 163 175 181 
f 159 158 182 
f 158 175 182 
f 175 171 182 
f 164 159 183 
f 171 176 183 
f 176 164 183 
f 159 182 183 
f 182 171 183 
f 170 169 184 
f 166 170 184 
f 172 166 184 
o convex_4
v 0.050103 0.011964 0.011172
v 0.011870 -0.031918 0.019668
v 0.012579 -0.031918 0.018960
v 0.011870 0.032506 0.011172
v 0.034528 0.022593 0.026749
v 0.040897 -0.017048 0.026749
v 0.033819 -0.028385 0.011172
v 0.011870 0.026131 0.026749
v 0.011870 -0.026252 0.011172
v 0.043021 0.030379 0.011881
v 0.011870 -0.014218 0.026749
v 0.047976 0.004178 0.025331
v 0.050103 -0.004311 0.012588
v 0.030281 -0.024834 0.026749
v 0.029572 -0.033342 0.018253
v 0.047976 0.023295 0.016838
v 0.013997 0.031797 0.018253
v 0.011870 -0.031918 0.021792
v 0.037356 -0.025549 0.011172
v 0.050812 0.009843 0.019668
v 0.021075 -0.029791 0.011172
v 0.016120 0.028252 0.024623
v 0.043730 -0.012098 0.026749
v 0.043730 0.029663 0.011172
v 0.050103 -0.004311 0.015421
v 0.050812 0.002051 0.011172
v 0.040188 -0.020593 0.019668
v 0.025322 -0.033342 0.016129
v 0.026031 -0.024834 0.026749
v 0.011870 0.032506 0.016838
v 0.047271 0.003469 0.026040
v 0.047976 0.002051 0.025331
v 0.030281 -0.032633 0.018960
v 0.036651 0.019756 0.026749
v 0.050812 0.003469 0.018253
v 0.017538 -0.032633 0.016838
v 0.043021 -0.014927 0.023914
v 0.012579 0.027549 0.026040
v 0.050812 0.011255 0.016838
v 0.049394 0.015509 0.011172
f 200 223 224 
f 188 185 191 
f 188 186 192 
f 190 189 192 
f 187 186 193 
f 186 188 193 
f 188 191 193 
f 192 186 195 
f 190 192 195 
f 190 195 198 
f 194 189 200 
f 195 186 202 
f 191 185 203 
f 199 191 203 
f 200 196 204 
f 193 191 205 
f 189 194 206 
f 194 201 206 
f 189 190 207 
f 185 188 208 
f 188 194 208 
f 194 200 208 
f 203 197 209 
f 203 185 210 
f 197 203 210 
f 209 197 210 
f 203 209 211 
f 191 199 212 
f 199 202 212 
f 205 191 212 
f 198 195 213 
f 195 202 213 
f 202 198 213 
f 188 192 214 
f 194 188 214 
f 201 194 214 
f 215 207 216 
f 204 196 216 
f 207 209 216 
f 196 215 216 
f 190 198 217 
f 198 202 217 
f 202 199 217 
f 199 203 217 
f 211 190 217 
f 203 211 217 
f 200 189 218 
f 196 200 218 
f 189 207 218 
f 215 196 218 
f 207 215 218 
f 210 204 219 
f 209 210 219 
f 204 216 219 
f 216 209 219 
f 186 187 220 
f 187 193 220 
f 202 186 220 
f 193 205 220 
f 212 202 220 
f 205 212 220 
f 207 190 221 
f 209 207 221 
f 190 211 221 
f 211 209 221 
f 192 189 222 
f 189 206 222 
f 206 201 222 
f 214 192 222 
f 201 214 222 
f 200 204 223 
f 210 185 223 
f 204 210 223 
f 185 208 224 
f 208 200 224 
f 223 185 224 
o convex_5
v -0.029197 -0.033343 0.029580
v -0.028488 -0.046087 0.023919
v -0.026364 -0.046087 0.023919
v -0.027780 -0.034760 0.021793
v -0.018576 -0.033343 0.035245
v -0.018576 -0.033343 0.023211
v -0.029197 -0.034052 0.033829
v -0.018576 -0.038299 0.033119
v -0.018576 -0.036884 0.022501
v -0.028488 -0.046087 0.026750
v -0.029197 -0.044669 0.021793
v -0.026364 -0.045377 0.021085
v -0.028488 -0.033343 0.022501
v -0.023534 -0.034052 0.035245
v -0.018576 -0.038299 0.027458
f 236 233 239 
f 225 229 230 
f 229 225 231 
f 230 229 232 
f 230 232 233 
f 228 230 233 
f 226 227 234 
f 227 232 234 
f 231 225 235 
f 226 234 235 
f 234 231 235 
f 227 226 236 
f 228 233 236 
f 226 235 236 
f 235 228 236 
f 230 228 237 
f 225 230 237 
f 235 225 237 
f 228 235 237 
f 229 231 238 
f 232 229 238 
f 231 234 238 
f 234 232 238 
f 232 227 239 
f 233 232 239 
f 227 236 239 
o convex_6
v -0.012205 -0.033343 0.036662
v -0.013621 -0.046794 0.023917
v -0.011497 -0.046794 0.023917
v -0.013621 -0.033343 0.023209
v -0.018576 -0.033343 0.035952
v -0.018576 -0.037592 0.023209
v -0.014328 -0.046794 0.028166
v -0.010788 -0.033343 0.023917
v -0.018576 -0.033343 0.023209
v -0.018576 -0.039008 0.032413
v -0.011497 -0.046085 0.022501
v -0.011497 -0.041838 0.030996
v -0.014328 -0.046085 0.022501
v -0.010788 -0.034760 0.028166
v -0.012912 -0.034052 0.036662
v -0.012205 -0.046794 0.028166
f 254 246 255 
f 240 243 244 
f 241 242 246 
f 243 240 247 
f 244 243 248 
f 245 244 248 
f 244 245 249 
f 242 241 250 
f 247 242 250 
f 243 247 250 
f 248 243 250 
f 241 246 252 
f 245 248 252 
f 249 245 252 
f 246 249 252 
f 250 241 252 
f 248 250 252 
f 247 240 253 
f 242 247 253 
f 240 251 253 
f 251 242 253 
f 240 244 254 
f 244 249 254 
f 249 246 254 
f 251 240 254 
f 251 254 255 
f 246 242 255 
f 242 251 255 
o convex_7
v -0.023532 -0.006435 0.036662
v -0.012916 0.032506 0.018961
v -0.013625 0.031790 0.020377
v -0.051145 0.024005 0.024626
v -0.044060 -0.009269 0.018252
v -0.006539 -0.009269 0.018252
v -0.006539 0.011271 0.034537
v -0.052559 0.018341 0.032411
v -0.053268 -0.009269 0.032411
v -0.044060 0.019049 0.018252
v -0.036275 0.027546 0.029580
v -0.012916 -0.009269 0.035245
v -0.006539 0.030379 0.018252
v -0.029903 0.031087 0.018252
v -0.047600 -0.009269 0.018962
v -0.023532 0.014804 0.034537
v -0.006539 -0.009269 0.028162
v -0.051850 0.007022 0.033829
v -0.017869 0.026838 0.027457
v -0.053268 -0.006435 0.033829
v -0.039811 0.028253 0.028163
v -0.024241 0.005603 0.035953
v -0.053268 -0.009269 0.030286
v -0.047600 0.004189 0.018252
v -0.017869 0.018337 0.033121
v -0.006539 0.024005 0.025334
v -0.019287 -0.008557 0.036662
v -0.049727 0.021882 0.031704
v -0.028490 0.028961 0.028163
v -0.022119 0.032506 0.019669
v -0.024950 -0.002186 0.036662
v -0.006539 0.007018 0.034537
v -0.051850 0.023297 0.029580
v -0.053268 0.011263 0.031704
v -0.020701 -0.002186 0.036662
v -0.041229 0.026131 0.030286
v -0.033444 0.028961 0.018252
v -0.014334 -0.009269 0.035953
v -0.034153 0.029668 0.026751
v -0.006539 0.012678 0.033829
v -0.050436 0.024005 0.023920
v -0.006539 0.030379 0.018961
v -0.017869 -0.006435 0.036662
f 293 287 298 
f 260 261 264 
f 261 260 265 
f 264 261 267 
f 262 261 268 
f 261 265 268 
f 268 265 269 
f 257 268 269 
f 260 264 270 
f 261 262 272 
f 267 261 272 
f 273 263 275 
f 269 259 276 
f 262 271 277 
f 271 263 277 
f 263 273 277 
f 270 264 278 
f 264 275 278 
f 265 260 279 
f 260 270 279 
f 278 259 279 
f 270 278 279 
f 271 262 280 
f 262 268 281 
f 256 275 282 
f 275 264 282 
f 263 271 283 
f 258 257 284 
f 274 258 284 
f 266 280 284 
f 280 274 284 
f 257 269 285 
f 284 257 285 
f 275 256 286 
f 273 275 286 
f 277 273 286 
f 256 282 286 
f 272 262 287 
f 267 272 287 
f 276 259 288 
f 263 283 288 
f 275 263 289 
f 259 278 289 
f 278 275 289 
f 288 259 289 
f 263 288 289 
f 262 277 290 
f 277 286 290 
f 286 282 290 
f 266 276 291 
f 271 280 291 
f 280 266 291 
f 283 271 291 
f 276 288 291 
f 288 283 291 
f 269 265 292 
f 264 267 293 
f 282 264 293 
f 267 287 293 
f 276 266 294 
f 269 276 294 
f 266 284 294 
f 285 269 294 
f 284 285 294 
f 280 262 295 
f 274 280 295 
f 262 281 295 
f 281 274 295 
f 259 269 296 
f 279 259 296 
f 265 279 296 
f 292 265 296 
f 269 292 296 
f 257 258 297 
f 268 257 297 
f 258 274 297 
f 281 268 297 
f 274 281 297 
f 287 262 298 
f 262 290 298 
f 290 282 298 
f 282 293 298 
o convex_8
v 0.003371 0.010563 0.033828
v -0.006536 -0.009269 0.018252
v 0.011866 -0.009269 0.018252
v 0.011866 0.031090 0.018252
v -0.006536 0.029672 0.018962
v 0.011866 -0.008558 0.032413
v -0.006536 0.007726 0.034537
v 0.011866 0.026839 0.026043
v -0.006536 -0.009269 0.028163
v -0.006536 0.012680 0.033828
v 0.008328 0.002769 0.033828
v -0.006536 0.029672 0.018252
v 0.006912 0.028257 0.024627
v -0.006536 0.024006 0.025335
v 0.011160 0.011258 0.030997
v 0.011866 -0.009269 0.031703
v 0.003371 0.031090 0.019670
v 0.009036 -0.005725 0.033120
v 0.002665 0.024006 0.027455
v -0.006536 0.004894 0.033828
v 0.001959 0.008434 0.034537
v 0.011866 0.028964 0.023919
v 0.011866 -0.002893 0.032413
v -0.005830 0.011258 0.034537
f 305 319 322 
f 301 300 302 
f 301 302 304 
f 303 300 305 
f 304 302 306 
f 300 301 307 
f 305 300 307 
f 303 305 308 
f 302 300 310 
f 300 303 310 
f 303 308 312 
f 311 303 312 
f 306 299 313 
f 299 309 313 
f 301 304 314 
f 307 301 314 
f 304 307 314 
f 302 310 315 
f 310 303 315 
f 303 311 315 
f 307 304 316 
f 304 309 316 
f 308 306 317 
f 306 311 317 
f 312 308 317 
f 311 312 317 
f 305 307 318 
f 307 316 318 
f 316 305 318 
f 309 299 319 
f 305 316 319 
f 316 309 319 
f 306 302 320 
f 311 306 320 
f 302 315 320 
f 315 311 320 
f 304 306 321 
f 309 304 321 
f 306 313 321 
f 313 309 321 
f 299 306 322 
f 308 305 322 
f 306 308 322 
f 319 299 322 
o convex_9
v 0.027450 -0.012807 0.038078
v 0.039480 -0.000772 0.028874
v 0.039480 -0.000772 0.026749
v 0.011870 -0.000772 0.030997
v 0.026033 -0.024138 0.026749
v 0.048688 -0.002190 0.038078
v 0.011870 -0.013516 0.026749
v 0.043022 -0.013516 0.026749
v 0.047272 -0.009271 0.038078
v 0.027450 -0.000772 0.038078
v 0.011870 -0.000772 0.026749
v 0.011870 -0.009271 0.032413
v 0.029576 -0.024138 0.027458
v 0.044439 -0.007146 0.027458
v 0.025323 -0.023426 0.028165
v 0.048688 -0.007855 0.036660
v 0.031688 -0.012807 0.038078
v 0.047974 -0.001481 0.037368
v 0.025323 -0.006440 0.038078
v 0.011870 -0.003606 0.032413
v 0.025323 -0.019886 0.031707
v 0.039480 -0.017054 0.028165
v 0.014000 -0.013516 0.030290
v 0.026033 -0.012103 0.038078
f 334 343 346 
f 324 325 326 
f 325 327 329 
f 327 325 330 
f 328 323 331 
f 324 326 332 
f 323 328 332 
f 326 325 333 
f 325 329 333 
f 329 326 333 
f 326 329 334 
f 327 330 335 
f 330 325 336 
f 329 327 337 
f 327 335 337 
f 328 331 338 
f 331 330 338 
f 336 328 338 
f 330 336 338 
f 331 323 339 
f 335 331 339 
f 325 324 340 
f 324 332 340 
f 332 328 340 
f 336 325 340 
f 328 336 340 
f 323 332 341 
f 334 341 342 
f 332 326 342 
f 326 334 342 
f 341 332 342 
f 337 335 343 
f 339 323 343 
f 335 339 343 
f 330 331 344 
f 335 330 344 
f 331 335 344 
f 334 329 345 
f 329 337 345 
f 343 334 345 
f 337 343 345 
f 323 341 346 
f 341 334 346 
f 343 323 346 
o convex_10
v 0.035939 -0.000772 0.035245
v 0.016122 0.026133 0.027458
v 0.016122 0.026133 0.026749
v 0.011872 -0.000772 0.026749
v 0.040191 0.004893 0.026749
v 0.035939 0.020468 0.032413
v 0.028154 0.000647 0.038078
v 0.011872 0.011266 0.030290
v 0.034525 0.022589 0.026749
v 0.039479 -0.000772 0.026749
v 0.018950 0.017632 0.032413
v 0.011872 -0.000772 0.030997
v 0.038775 0.009141 0.033828
v 0.012582 0.025425 0.027458
v 0.033105 0.008433 0.036660
v 0.019663 0.003481 0.035245
v 0.040191 0.009141 0.026749
v 0.030278 -0.000772 0.038078
v 0.036648 0.001353 0.035952
v 0.035939 0.021880 0.030290
v 0.039479 -0.000772 0.029581
v 0.011872 0.020468 0.026749
v 0.016122 0.023300 0.029581
v 0.019663 -0.000772 0.035245
v 0.019663 0.009141 0.034536
v 0.035939 0.019049 0.033120
f 369 357 372 
f 350 349 351 
f 349 348 355 
f 351 349 355 
f 347 350 356 
f 350 351 356 
f 350 347 358 
f 354 350 358 
f 348 349 360 
f 354 357 360 
f 357 353 361 
f 354 358 362 
f 351 355 363 
f 359 351 363 
f 352 359 363 
f 358 347 364 
f 361 353 364 
f 361 364 365 
f 359 361 365 
f 364 347 365 
f 348 352 366 
f 355 348 366 
f 363 355 366 
f 352 363 366 
f 347 356 367 
f 356 351 367 
f 351 359 367 
f 365 347 367 
f 359 365 367 
f 349 350 368 
f 350 354 368 
f 360 349 368 
f 354 360 368 
f 352 348 369 
f 348 360 369 
f 360 357 369 
f 353 362 370 
f 362 358 370 
f 358 364 370 
f 364 353 370 
f 353 357 371 
f 357 354 371 
f 362 353 371 
f 354 362 371 
f 359 352 372 
f 357 361 372 
f 361 359 372 
f 352 369 372 
o convex_11
v -0.061765 -0.016349 0.024628
v -0.049730 -0.009269 0.032408
v -0.058226 -0.009269 0.033826
v -0.058226 -0.018473 0.038783
v -0.049730 -0.019181 0.013296
v -0.053979 -0.010685 0.017548
v -0.049730 -0.019181 0.027454
v -0.060350 -0.009269 0.028162
v -0.060350 -0.014225 0.038783
v -0.049730 -0.009269 0.023210
v -0.055395 -0.011394 0.039494
v -0.057518 -0.017765 0.018253
v -0.062475 -0.016349 0.034537
v -0.056810 -0.019181 0.029580
v -0.058226 -0.009269 0.022502
v -0.049730 -0.012809 0.014714
v -0.058933 -0.009977 0.037365
v -0.057518 -0.014932 0.018253
v -0.061058 -0.017765 0.038783
v -0.055395 -0.014225 0.038783
v -0.062475 -0.014225 0.032408
v -0.061058 -0.014932 0.022502
v -0.051855 -0.019181 0.014006
v -0.062475 -0.014225 0.028162
f 380 394 396 
f 377 374 379 
f 375 374 380 
f 374 377 382 
f 380 374 382 
f 379 376 386 
f 377 379 386 
f 373 384 386 
f 382 378 387 
f 380 382 387 
f 382 377 388 
f 378 382 388 
f 374 375 389 
f 375 380 389 
f 383 374 389 
f 381 383 389 
f 387 378 390 
f 376 383 391 
f 383 381 391 
f 385 373 391 
f 381 385 391 
f 386 376 391 
f 373 386 391 
f 379 374 392 
f 376 379 392 
f 374 383 392 
f 383 376 392 
f 385 381 393 
f 389 380 393 
f 381 389 393 
f 384 373 394 
f 380 387 394 
f 390 384 394 
f 387 390 394 
f 377 386 395 
f 386 384 395 
f 388 377 395 
f 378 388 395 
f 384 390 395 
f 390 378 395 
f 373 385 396 
f 393 380 396 
f 385 393 396 
f 394 373 396 
o convex_12
v -0.049730 -0.011394 0.031701
v 0.003368 -0.017056 0.011172
v 0.003368 -0.009269 0.011172
v 0.011870 -0.009269 0.030997
v -0.018580 -0.019181 0.039494
v -0.049019 -0.019181 0.011884
v -0.046896 -0.009269 0.011175
v 0.011870 -0.019181 0.023916
v -0.024230 -0.009269 0.035951
v -0.049730 -0.019181 0.026744
v 0.011870 -0.019181 0.011172
v 0.011870 -0.009269 0.011172
v -0.049730 -0.009269 0.032413
v -0.028481 -0.019181 0.038781
v 0.000534 -0.019181 0.031701
v -0.049730 -0.011394 0.014715
v -0.014329 -0.009269 0.035951
v -0.047602 -0.019181 0.011175
v 0.011870 -0.009977 0.030997
v -0.018580 -0.018473 0.039494
v -0.049730 -0.019181 0.012589
v -0.028481 -0.018473 0.038781
v -0.046896 -0.009269 0.033117
v -0.049730 -0.009269 0.022505
f 412 409 420 
f 400 399 403 
f 401 402 404 
f 400 403 405 
f 402 401 406 
f 398 399 407 
f 400 404 407 
f 404 402 407 
f 399 400 408 
f 407 399 408 
f 400 407 408 
f 405 403 409 
f 406 397 409 
f 397 406 410 
f 406 401 410 
f 409 397 410 
f 401 404 411 
f 406 409 412 
f 400 405 413 
f 399 398 414 
f 403 399 414 
f 402 403 414 
f 398 407 414 
f 407 402 414 
f 400 401 415 
f 404 400 415 
f 401 411 415 
f 411 404 415 
f 401 400 416 
f 410 401 416 
f 400 413 416 
f 413 405 416 
f 403 402 417 
f 402 406 417 
f 412 403 417 
f 406 412 417 
f 409 410 418 
f 410 416 418 
f 416 405 418 
f 405 409 419 
f 418 405 419 
f 409 418 419 
f 409 403 420 
f 403 412 420 
o convex_13
v -0.028488 -0.029093 0.037369
v -0.010080 -0.019181 0.030995
v -0.010080 -0.020599 0.030995
v -0.029905 -0.019181 0.011172
v -0.015036 -0.031924 0.011172
v -0.011496 -0.033341 0.036661
v -0.028488 -0.019181 0.038781
v -0.010080 -0.019181 0.011172
v -0.028488 -0.033341 0.022501
v -0.011496 -0.019181 0.040202
v -0.010788 -0.033341 0.023919
v -0.029197 -0.033341 0.034536
v -0.022115 -0.031216 0.011172
v -0.013621 -0.028384 0.039488
v -0.029905 -0.022723 0.035240
v -0.029905 -0.022723 0.011172
v -0.010080 -0.024139 0.011172
v -0.018578 -0.032632 0.012590
v -0.012205 -0.029799 0.011172
v -0.010080 -0.026261 0.028162
v -0.028488 -0.022723 0.038781
v -0.014331 -0.032632 0.037369
v -0.015744 -0.020599 0.040202
v -0.010788 -0.021307 0.038076
v -0.029905 -0.019181 0.024630
v -0.011496 -0.027676 0.039488
f 426 444 446 
f 422 424 427 
f 422 423 428 
f 424 422 428 
f 425 424 428 
f 422 427 430 
f 426 429 431 
f 429 426 432 
f 424 425 433 
f 432 421 435 
f 432 435 436 
f 429 432 436 
f 424 433 436 
f 433 429 436 
f 435 424 436 
f 428 423 437 
f 425 428 437 
f 425 431 438 
f 431 429 438 
f 433 425 438 
f 429 433 438 
f 431 425 439 
f 425 437 439 
f 437 431 439 
f 426 431 440 
f 437 423 440 
f 431 437 440 
f 421 434 441 
f 427 435 441 
f 435 421 441 
f 421 432 442 
f 432 426 442 
f 434 421 442 
f 426 434 442 
f 430 427 443 
f 427 441 443 
f 441 434 443 
f 423 422 444 
f 422 430 444 
f 440 423 444 
f 426 440 444 
f 427 424 445 
f 424 435 445 
f 435 427 445 
f 434 426 446 
f 430 443 446 
f 443 434 446 
f 444 430 446 
o convex_14
v 0.001956 -0.019181 0.030997
v -0.003705 -0.033341 0.011172
v -0.007953 -0.029093 0.011172
v -0.008663 -0.026968 0.047986
v 0.002665 -0.029093 0.047986
v -0.010080 -0.019181 0.011172
v 0.003373 -0.019181 0.011172
v 0.003373 -0.031924 0.021090
v -0.004415 -0.019891 0.035948
v -0.004415 -0.031924 0.034530
v -0.008663 -0.024847 0.047986
v 0.002665 -0.026261 0.047277
v 0.003373 -0.028384 0.011172
v -0.010080 -0.019181 0.024631
v -0.010080 -0.026261 0.014011
v 0.001246 -0.033341 0.024631
v -0.007953 -0.029799 0.035243
v 0.003373 -0.019891 0.030284
v -0.000168 -0.033341 0.011172
v -0.001583 -0.019891 0.035948
v -0.000168 -0.029093 0.047986
v -0.006539 -0.031216 0.034530
v -0.006539 -0.019181 0.030997
v -0.005829 -0.024847 0.047986
v -0.010080 -0.026261 0.018258
v 0.003373 -0.031924 0.024631
f 454 464 472 
f 448 449 452 
f 448 452 453 
f 452 447 453 
f 450 451 457 
f 448 453 459 
f 453 454 459 
f 447 452 460 
f 450 457 460 
f 452 449 461 
f 460 452 461 
f 456 448 462 
f 451 456 462 
f 461 449 463 
f 453 447 464 
f 454 453 464 
f 447 458 464 
f 458 451 464 
f 448 459 465 
f 459 454 465 
f 462 448 465 
f 454 462 465 
f 447 455 466 
f 455 457 466 
f 458 447 466 
f 451 450 467 
f 450 456 467 
f 456 451 467 
f 449 448 468 
f 448 456 468 
f 456 450 468 
f 463 449 468 
f 450 463 468 
f 455 447 469 
f 457 455 469 
f 447 460 469 
f 460 457 469 
f 457 451 470 
f 451 458 470 
f 466 457 470 
f 458 466 470 
f 450 460 471 
f 460 461 471 
f 463 450 471 
f 461 463 471 
f 462 454 472 
f 451 462 472 
f 464 451 472 
o convex_15
v -0.031321 -0.029802 0.031704
v -0.048313 -0.020598 0.011172
v -0.049020 -0.020598 0.011881
v -0.035570 -0.019181 0.032413
v -0.029905 -0.019181 0.011172
v -0.053978 -0.019181 0.027454
v -0.036281 -0.026969 0.011172
v -0.029905 -0.022014 0.032413
v -0.039114 -0.026969 0.032413
v -0.029905 -0.022723 0.011172
v -0.053978 -0.019891 0.023916
v -0.048313 -0.019181 0.011172
v -0.032737 -0.026260 0.011172
v -0.029905 -0.019181 0.024622
v -0.044769 -0.023430 0.011172
v -0.036281 -0.028385 0.030995
v -0.029905 -0.026969 0.032413
v -0.038405 -0.019181 0.032413
v -0.051850 -0.019891 0.014715
v -0.032737 -0.029802 0.032413
v -0.036988 -0.026969 0.011881
f 492 488 493 
f 476 477 478 
f 474 477 479 
f 480 476 481 
f 479 477 482 
f 477 480 482 
f 481 478 483 
f 477 474 484 
f 478 477 484 
f 473 479 485 
f 482 473 485 
f 479 482 485 
f 477 476 486 
f 476 480 486 
f 480 477 486 
f 475 474 487 
f 474 479 487 
f 483 487 488 
f 481 483 488 
f 480 481 489 
f 473 482 489 
f 482 480 489 
f 476 478 490 
f 481 476 490 
f 478 481 490 
f 474 475 491 
f 483 478 491 
f 484 474 491 
f 478 484 491 
f 475 487 491 
f 487 483 491 
f 479 473 492 
f 481 488 492 
f 473 489 492 
f 489 481 492 
f 487 479 493 
f 488 487 493 
f 479 492 493 
o convex_16
v -0.042650 -0.026260 0.040910
v -0.029905 -0.022723 0.037370
v -0.029905 -0.024139 0.037370
v -0.039815 -0.024139 0.032413
v -0.039815 -0.019181 0.045866
v -0.034861 -0.029092 0.041615
v -0.032029 -0.029802 0.032413
v -0.036277 -0.019181 0.032413
v -0.041940 -0.026969 0.045158
v -0.035570 -0.022014 0.045158
v -0.029905 -0.022014 0.032413
v -0.040525 -0.019181 0.042324
v -0.038401 -0.027677 0.033122
v -0.034861 -0.020598 0.043741
v -0.042650 -0.023430 0.043032
v -0.030613 -0.028385 0.033830
v -0.034154 -0.029802 0.035956
v -0.037693 -0.019181 0.032413
v -0.038401 -0.026969 0.045158
v -0.032739 -0.023430 0.042324
f 507 503 513 
f 500 497 501 
f 495 496 504 
f 500 501 504 
f 498 501 505 
f 494 497 506 
f 497 500 506 
f 502 494 506 
f 501 498 507 
f 498 503 507 
f 495 504 507 
f 504 501 507 
f 497 494 508 
f 494 502 508 
f 502 498 508 
f 498 505 508 
f 496 499 509 
f 499 500 509 
f 504 496 509 
f 500 504 509 
f 500 499 510 
f 499 502 510 
f 506 500 510 
f 502 506 510 
f 501 497 511 
f 505 501 511 
f 497 508 511 
f 508 505 511 
f 498 502 512 
f 502 499 512 
f 503 498 512 
f 499 503 512 
f 496 495 513 
f 499 496 513 
f 503 499 513 
f 495 507 513 
o convex_17
v 0.004082 -0.020600 0.030287
v 0.010453 -0.031926 0.020379
v 0.003373 -0.026967 0.011174
v 0.011870 -0.019182 0.011174
v 0.003373 -0.019182 0.011174
v 0.011870 -0.019183 0.023916
v 0.003373 -0.031216 0.024623
v 0.011870 -0.031926 0.022501
v 0.011870 -0.026260 0.011174
v 0.003373 -0.019183 0.025330
v 0.006914 -0.028385 0.027454
v 0.003373 -0.022724 0.030287
v 0.003373 -0.031216 0.022501
f 520 516 526 
f 517 516 518 
f 518 516 520 
f 517 519 521 
f 520 515 521 
f 515 516 522 
f 516 517 522 
f 521 515 522 
f 517 521 522 
f 517 518 523 
f 514 519 523 
f 519 517 523 
f 518 520 523 
f 519 514 524 
f 521 519 524 
f 520 521 524 
f 514 523 525 
f 523 520 525 
f 524 514 525 
f 520 524 525 
f 516 515 526 
f 515 520 526 
