o convex_0
v -0.021397 -0.010241 -0.041102
v 0.018362 0.019060 -0.031340
v 0.019061 0.017665 -0.022265
v 0.019756 -0.015824 -0.054353
v -0.013723 0.016965 -0.056451
v 0.016963 -0.016520 -0.022265
v -0.022097 0.011382 -0.022265
v 0.019061 0.016965 -0.055752
v -0.012333 -0.015824 -0.056451
v -0.013723 -0.016520 -0.022265
v -0.023491 0.004408 -0.055752
v -0.011634 0.018361 -0.022265
v -0.024195 -0.002567 -0.022265
v 0.020455 -0.014428 -0.022265
v 0.018362 -0.016520 -0.055752
v 0.016268 0.019060 -0.050863
v -0.009540 -0.017219 -0.055053
v -0.022792 -0.006054 -0.055752
v 0.017663 0.017665 -0.056451
v -0.017910 0.015569 -0.047376
v 0.019756 0.009987 -0.055752
v -0.017910 -0.013729 -0.054350
v -0.003963 0.018361 -0.055752
v -0.001870 -0.017219 -0.022265
v -0.002569 0.019060 -0.022265
v -0.020702 -0.010937 -0.022265
v 0.019061 -0.013729 -0.056451
v -0.020702 0.012082 -0.055053
v 0.019756 0.015569 -0.022265
v -0.024195 0.006499 -0.022964
v -0.015121 0.017665 -0.022265
v -0.024195 -0.001171 -0.050164
v -0.013723 0.017665 -0.055053
v 0.003712 -0.017219 -0.053660
v 0.020455 0.000228 -0.022964
v 0.020455 -0.015124 -0.036919
v -0.022792 0.006499 -0.056451
v -0.022792 -0.008146 -0.031340
v 0.017663 0.019060 -0.022265
v -0.022792 0.008595 -0.051562
v -0.016515 -0.015124 -0.022265
v -0.014422 -0.015824 -0.055053
v -0.020702 -0.009542 -0.056451
v -0.008845 -0.017219 -0.022265
v 0.019061 0.018361 -0.051562
v 0.019756 -0.015824 -0.022265
v -0.010939 0.018361 -0.038317
v -0.016515 0.016265 -0.055752
v -0.023491 -0.005358 -0.048075
v -0.017215 0.016265 -0.022265
v -0.022097 -0.008846 -0.048775
v -0.023491 -0.006054 -0.022265
v -0.024195 0.003012 -0.046683
v 0.017663 0.018361 -0.055752
v 0.000919 -0.016520 -0.056451
v -0.015121 -0.015824 -0.045288
v -0.023491 -0.003963 -0.055752
v 0.019756 -0.014428 -0.055752
f 21 36 58 
f 6 3 7 
f 6 7 10 
f 7 3 12 
f 10 7 13 
f 3 6 14 
f 9 5 19 
f 19 8 21 
f 19 5 23 
f 6 10 24 
f 12 3 25 
f 2 16 25 
f 16 23 25 
f 10 13 26 
f 1 22 26 
f 9 19 27 
f 19 21 27 
f 7 20 28 
f 3 14 29 
f 13 7 30 
f 7 12 31 
f 13 30 32 
f 23 5 33 
f 31 12 33 
f 15 6 34 
f 17 15 34 
f 6 24 34 
f 24 17 34 
f 29 14 35 
f 21 29 35 
f 35 14 36 
f 21 35 36 
f 5 9 37 
f 1 26 38 
f 3 2 39 
f 25 3 39 
f 2 25 39 
f 7 28 40 
f 30 7 40 
f 37 11 40 
f 28 37 40 
f 10 26 41 
f 26 22 41 
f 9 17 42 
f 37 9 43 
f 9 42 43 
f 42 22 43 
f 10 17 44 
f 24 10 44 
f 17 24 44 
f 2 3 45 
f 16 2 45 
f 21 8 45 
f 3 29 45 
f 29 21 45 
f 14 6 46 
f 15 4 46 
f 6 15 46 
f 4 36 46 
f 36 14 46 
f 12 25 47 
f 25 23 47 
f 23 33 47 
f 33 12 47 
f 28 20 48 
f 20 31 48 
f 33 5 48 
f 31 33 48 
f 5 37 48 
f 37 28 48 
f 13 32 49 
f 20 7 50 
f 7 31 50 
f 31 20 50 
f 22 1 51 
f 1 38 51 
f 18 43 51 
f 43 22 51 
f 49 18 51 
f 38 49 51 
f 26 13 52 
f 38 26 52 
f 13 49 52 
f 49 38 52 
f 11 32 53 
f 32 30 53 
f 30 40 53 
f 40 11 53 
f 8 19 54 
f 23 16 54 
f 19 23 54 
f 16 45 54 
f 45 8 54 
f 17 9 55 
f 15 17 55 
f 27 15 55 
f 9 27 55 
f 17 10 56 
f 10 41 56 
f 41 22 56 
f 42 17 56 
f 22 42 56 
f 32 11 57 
f 11 37 57 
f 43 18 57 
f 37 43 57 
f 18 49 57 
f 49 32 57 
f 4 15 58 
f 15 27 58 
f 27 21 58 
f 36 4 58 
o convex_1
v -0.036055 0.028123 -0.013193
v -0.063963 -0.006745 0.007032
v -0.063963 -0.006745 0.008429
v 0.000916 -0.035347 0.011221
v 0.000922 0.033005 0.015410
v 0.000916 -0.021398 -0.021564
v -0.040241 -0.022094 -0.019469
v 0.000922 0.022545 -0.021564
v -0.053496 0.023242 0.014013
v -0.046516 -0.031161 0.013312
v -0.045817 0.007189 -0.022265
v -0.033959 -0.033257 -0.006912
v -0.052098 0.028820 0.006338
v 0.000922 0.034405 -0.004121
v -0.004661 -0.032568 0.014710
v -0.038145 0.034398 0.011221
v -0.056284 -0.025583 0.005641
v -0.062565 0.010678 0.004941
v -0.053496 -0.006049 -0.013890
v -0.058380 -0.011627 0.014013
v 0.000916 -0.031865 -0.009003
v -0.040241 0.018360 -0.021564
v 0.000223 0.030916 -0.017378
v -0.036747 -0.036050 0.009823
v -0.029780 -0.020694 -0.022265
v -0.035356 0.032309 -0.004821
v -0.050009 0.012775 -0.015981
v -0.035356 -0.028376 -0.015284
v 0.000922 0.019753 -0.022265
v -0.061867 0.012775 0.011922
v 0.000223 0.035805 0.012615
v -0.044426 -0.015123 -0.020867
v -0.010942 -0.036057 0.006335
v -0.034658 0.031612 0.014710
v -0.050009 -0.031161 0.006338
v -0.058380 -0.022094 0.011221
v 0.000916 -0.027679 0.014710
v -0.015826 0.035805 0.007035
v -0.060469 -0.017916 0.004941
v -0.059072 0.020449 0.006338
v -0.045817 0.021849 -0.013193
v -0.033261 0.019753 -0.022265
v -0.056284 0.003011 -0.009704
v 0.000916 -0.017916 -0.022265
v -0.049310 -0.017916 -0.013193
v -0.043029 -0.026976 -0.011098
v 0.000916 -0.025590 -0.018075
v -0.052098 -0.024887 0.014013
v -0.045817 -0.006745 -0.022265
v -0.061867 -0.007449 0.013312
v -0.052098 0.028123 0.011922
v -0.031177 -0.035347 0.012615
v -0.043029 0.033701 0.007732
v 0.000223 0.023938 0.015410
v 0.000916 -0.033954 -0.002730
v -0.034658 -0.034650 -0.002037
v -0.041632 0.027427 -0.010401
v -0.035356 0.024634 -0.018075
v -0.031863 -0.024190 -0.020166
v -0.059771 0.010678 0.014013
v -0.051400 0.003011 -0.017378
v -0.028383 -0.031168 -0.011795
v -0.063963 0.005797 0.011221
v -0.037446 0.033005 0.014013
f 109 67 122 
f 63 66 72 
f 72 66 81 
f 72 81 84 
f 81 59 84 
f 80 69 85 
f 63 62 87 
f 66 63 87 
f 83 69 87 
f 63 72 89 
f 83 65 90 
f 62 82 91 
f 82 68 93 
f 75 93 94 
f 93 68 94 
f 62 63 95 
f 73 62 95 
f 72 84 96 
f 89 72 96 
f 74 89 96 
f 61 60 97 
f 60 77 97 
f 94 61 97 
f 75 94 97 
f 85 76 98 
f 76 88 98 
f 80 85 99 
f 98 71 99 
f 85 98 99 
f 69 80 100 
f 81 66 100 
f 66 87 100 
f 87 69 100 
f 60 76 101 
f 77 60 101 
f 76 85 101 
f 64 83 102 
f 87 64 102 
f 83 87 102 
f 90 65 103 
f 77 90 103 
f 97 77 103 
f 75 97 103 
f 65 86 104 
f 86 70 104 
f 93 75 104 
f 70 93 104 
f 103 65 104 
f 75 103 104 
f 64 87 105 
f 87 79 105 
f 68 73 106 
f 94 68 106 
f 69 83 107 
f 90 77 107 
f 83 90 107 
f 61 94 108 
f 106 78 108 
f 94 106 108 
f 88 67 109 
f 71 98 109 
f 98 88 109 
f 62 73 110 
f 73 68 110 
f 82 62 110 
f 68 82 110 
f 74 96 111 
f 96 84 111 
f 71 109 111 
f 109 74 111 
f 92 78 112 
f 63 92 112 
f 95 63 112 
f 73 95 112 
f 106 73 112 
f 78 106 112 
f 70 79 113 
f 87 62 113 
f 79 87 113 
f 62 91 113 
f 113 91 114 
f 91 82 114 
f 93 70 114 
f 82 93 114 
f 70 113 114 
f 84 59 115 
f 99 71 115 
f 80 99 115 
f 71 111 115 
f 111 84 115 
f 59 81 116 
f 100 80 116 
f 81 100 116 
f 115 59 116 
f 80 115 116 
f 83 64 117 
f 65 83 117 
f 86 65 117 
f 64 105 117 
f 105 86 117 
f 67 88 118 
f 92 67 118 
f 78 92 118 
f 108 78 118 
f 85 69 119 
f 77 101 119 
f 101 85 119 
f 69 107 119 
f 107 77 119 
f 79 70 120 
f 70 86 120 
f 105 79 120 
f 86 105 120 
f 60 61 121 
f 76 60 121 
f 88 76 121 
f 61 108 121 
f 118 88 121 
f 108 118 121 
f 63 89 122 
f 89 74 122 
f 67 92 122 
f 92 63 122 
f 74 109 122 
o convex_2
v 0.027434 0.001618 0.053088
v 0.010690 -0.000474 0.046806
v 0.010690 -0.000474 0.047504
v 0.021850 -0.008150 0.050297
v 0.016274 -0.001870 0.060062
v 0.019759 0.008595 0.046806
v 0.015574 0.005804 0.057967
v 0.026038 -0.003265 0.046806
v 0.025339 -0.003962 0.057270
v 0.022550 0.005804 0.057967
v 0.014877 -0.007451 0.054480
v 0.012784 -0.006056 0.046806
v 0.011388 -0.002567 0.055177
v 0.013483 0.007198 0.047504
v 0.025339 0.005804 0.046806
v 0.012086 0.002314 0.056572
v 0.021155 -0.007451 0.056572
v 0.023945 0.000919 0.059364
v 0.021155 0.007897 0.055177
v 0.026038 0.004407 0.055875
v 0.026038 -0.005358 0.051692
v 0.016971 -0.007451 0.046806
v 0.017669 0.003012 0.060062
v 0.021155 -0.002567 0.060062
v 0.016274 -0.005358 0.058665
v 0.016971 0.007897 0.055177
v 0.012784 0.005804 0.053088
v 0.023945 0.007198 0.053088
v 0.023945 -0.006056 0.046806
v 0.027434 -0.001172 0.054480
v 0.026736 0.001618 0.046806
v 0.013483 -0.001172 0.058665
v 0.011388 0.003012 0.053781
v 0.014179 0.007897 0.046806
v 0.024641 -0.006753 0.054480
v 0.017669 -0.008150 0.055177
v 0.027434 -0.002567 0.050993
f 130 153 159 
f 124 128 130 
f 124 130 134 
f 134 133 135 
f 125 124 135 
f 124 134 135 
f 130 128 137 
f 129 132 141 
f 123 137 142 
f 132 140 142 
f 134 130 144 
f 133 134 144 
f 132 129 145 
f 140 132 145 
f 140 145 146 
f 139 131 146 
f 131 140 146 
f 145 127 146 
f 146 127 147 
f 135 133 147 
f 139 146 147 
f 129 141 148 
f 141 128 148 
f 138 129 149 
f 129 148 149 
f 137 128 150 
f 141 132 150 
f 128 141 150 
f 142 137 150 
f 132 142 150 
f 143 126 151 
f 130 143 151 
f 126 144 151 
f 144 130 151 
f 140 131 152 
f 123 142 152 
f 142 140 152 
f 131 143 152 
f 137 123 153 
f 130 137 153 
f 129 138 154 
f 138 135 154 
f 145 129 154 
f 127 145 154 
f 147 127 154 
f 135 147 154 
f 124 125 155 
f 125 135 155 
f 136 124 155 
f 135 138 155 
f 149 136 155 
f 138 149 155 
f 128 124 156 
f 124 136 156 
f 148 128 156 
f 136 149 156 
f 149 148 156 
f 139 126 157 
f 131 139 157 
f 126 143 157 
f 143 131 157 
f 126 139 158 
f 144 126 158 
f 133 144 158 
f 147 133 158 
f 139 147 158 
f 143 130 159 
f 123 152 159 
f 152 143 159 
f 153 123 159 
o convex_3
v 0.000922 -0.022793 -0.020865
v 0.035107 0.034403 0.046806
v 0.035806 0.033700 0.046103
v 0.005809 -0.035352 0.046103
v 0.036502 -0.033952 -0.019466
v 0.000922 0.033700 -0.020169
v 0.001622 0.033003 0.046103
v 0.035107 0.033707 -0.020865
v 0.037202 -0.033256 0.045407
v 0.003713 -0.033952 -0.022265
v 0.000922 -0.035352 0.010533
v 0.000922 0.035093 0.012616
v 0.033015 0.034403 -0.022265
v 0.003713 -0.030462 0.046806
v 0.036502 -0.018607 -0.021562
v 0.033711 -0.034656 0.046103
v 0.000922 0.019747 -0.022258
v 0.036502 0.012071 0.022378
v 0.005809 0.034397 0.046806
v 0.035107 -0.032559 -0.022265
v 0.005809 -0.035352 -0.020865
v 0.034410 0.035107 -0.020169
v 0.034410 0.035107 0.046103
v 0.003017 -0.033952 0.045407
v 0.036502 -0.032559 0.046806
v 0.037202 -0.031863 -0.000629
v 0.000922 0.032307 0.035637
v 0.012087 0.035093 -0.020865
v 0.035806 -0.034656 0.009140
v 0.035806 0.033700 0.009837
v 0.002318 -0.015813 0.045407
v 0.037202 -0.020000 0.045407
v 0.006505 0.032307 -0.022265
v 0.014179 -0.035352 0.045407
v 0.002318 -0.034649 -0.019472
v 0.030923 -0.034656 -0.020865
v 0.001622 0.017658 0.046103
v 0.000922 -0.033256 0.014008
v 0.035806 0.021148 -0.010399
v 0.022549 0.035093 0.046103
v 0.036502 -0.034656 0.045407
v 0.002318 0.034397 -0.020865
v 0.037202 -0.017910 0.025171
v 0.000922 -0.033952 -0.005518
v 0.003017 0.034397 0.046103
v 0.002318 0.033003 0.046806
v 0.034410 0.032314 -0.022265
v 0.000922 -0.017213 -0.022258
v 0.035806 0.034403 0.045407
v 0.005809 -0.034649 0.046806
v 0.037202 -0.033952 0.018897
v 0.035107 0.035107 -0.009696
v 0.031619 -0.033952 -0.022265
v 0.035806 0.028824 0.000067
v 0.036502 0.008588 0.046103
v 0.035806 0.010685 -0.021562
v 0.002318 0.033700 -0.021562
v 0.002318 -0.033952 -0.021562
v 0.000922 0.035093 0.005645
v 0.004413 -0.035352 0.045407
v 0.036502 -0.032559 -0.021562
v 0.003713 -0.035352 -0.020865
v 0.037202 -0.027683 0.004955
f 198 213 222 
f 165 160 170 
f 165 170 171 
f 160 165 176 
f 173 161 178 
f 169 172 179 
f 163 170 180 
f 167 172 181 
f 178 161 182 
f 181 171 182 
f 161 173 184 
f 166 171 186 
f 171 170 186 
f 181 172 187 
f 183 173 190 
f 184 168 191 
f 168 185 191 
f 172 169 192 
f 169 176 192 
f 175 163 193 
f 163 180 193 
f 180 188 193 
f 164 188 195 
f 188 180 195 
f 166 186 196 
f 190 173 196 
f 190 196 197 
f 170 183 197 
f 186 170 197 
f 183 190 197 
f 196 186 197 
f 185 174 198 
f 178 182 199 
f 182 171 199 
f 168 184 200 
f 184 175 200 
f 188 164 200 
f 175 193 200 
f 193 188 200 
f 177 191 202 
f 191 185 202 
f 170 160 203 
f 194 170 203 
f 171 166 204 
f 199 171 204 
f 178 199 204 
f 173 178 205 
f 166 196 205 
f 196 173 205 
f 204 166 205 
f 178 204 205 
f 172 167 206 
f 179 172 206 
f 174 179 206 
f 160 176 207 
f 176 169 207 
f 161 162 208 
f 182 161 208 
f 177 189 208 
f 163 175 209 
f 173 183 209 
f 184 173 209 
f 175 184 209 
f 164 185 210 
f 185 168 210 
f 200 164 210 
f 168 200 210 
f 167 181 211 
f 181 182 211 
f 189 167 211 
f 182 208 211 
f 208 189 211 
f 169 179 212 
f 180 169 212 
f 164 195 212 
f 195 180 212 
f 167 189 213 
f 189 177 213 
f 198 167 213 
f 162 161 214 
f 161 184 214 
f 191 177 214 
f 184 191 214 
f 208 162 214 
f 177 208 214 
f 167 198 215 
f 198 174 215 
f 206 167 215 
f 174 206 215 
f 176 165 216 
f 187 172 216 
f 172 192 216 
f 192 176 216 
f 165 201 216 
f 201 187 216 
f 203 160 217 
f 194 203 217 
f 160 207 217 
f 207 169 217 
f 165 171 218 
f 171 181 218 
f 181 187 218 
f 201 165 218 
f 187 201 218 
f 170 163 219 
f 183 170 219 
f 163 209 219 
f 209 183 219 
f 179 174 220 
f 185 164 220 
f 174 185 220 
f 164 212 220 
f 212 179 220 
f 180 170 221 
f 169 180 221 
f 170 194 221 
f 217 169 221 
f 194 217 221 
f 185 198 222 
f 177 202 222 
f 202 185 222 
f 213 177 222 
