# https://github.com/mikedh/trimesh
v 0.01942774 0.00802604 -0.02208212
v 0.00506614 -0.03489046 0.04479078
v -0.00820746 0.01681844 -0.05601072
v 0.01746934 -0.00667386 0.04741048
v -0.00809866 -0.01660186 -0.02219942
v -0.00026506 0.03388134 -0.00090522
v 0.00550134 -0.03335706 0.04638028
v -0.03007626 -0.02111536 -0.02132052
v -0.02670346 0.02193544 -0.02032602
v 0.02345334 0.00021114 0.05864748
v -0.04443786 -0.02052036 -0.01526002
v -0.02430986 0.01076984 -0.02177102
v -0.00080906 0.02532014 -0.01777772
v -0.03975946 0.03109674 -0.00021332
v 0.00147574 0.03446104 0.00780728
v 0.02160374 -0.00757316 0.05111308
v -0.04959056 -0.01864866 -0.00997302
v -0.04066896 0.02036804 -0.01818062
v 0.00067504 0.02865384 -0.01486902
v 0.01743024 0.01849974 -0.03074532
v -0.03011536 0.03425534 0.00623308
v -0.03664336 -0.03036506 0.01362298
v 0.01351344 -0.03331966 -0.02188152
v 0.03472944 0.02656284 -0.02106552
v -0.01194576 0.01734374 -0.02439752
v 0.02054634 0.00746674 0.04692428
v -0.04277526 -0.02713166 -0.00878982
v 0.01967594 -0.00717026 0.05600738
v -0.02373526 0.00146234 -0.03428642
v -0.01470486 -0.01488996 -0.05428522
v 0.00215914 -0.03115896 -0.01095732
v -0.03755286 0.03041334 -0.00592532
v -0.04310166 -0.03387556 0.00988128
v -0.05528726 0.02449564 0.00819318
v 0.01876644 0.00709274 0.04748358
v -0.00125276 -0.03501456 0.00642178
v 0.01887524 0.01788264 -0.03366762
v 0.02453284 0.03390684 0.04648568
v -0.00212316 0.03540794 0.00719528
v 0.00266404 0.03404624 -0.00798062
v -0.03284386 -0.03229966 -0.00738392
v 0.02079454 0.03464294 -0.02050622
v 0.00197214 0.00380494 0.01621718
v 0.00208094 0.03381164 -0.00470642
v 0.01883614 -0.03215686 -0.02190022
v 0.00436574 -0.03465076 -0.00376972
v -0.05569186 -0.02498116 0.00585398
v -0.01761186 -0.01416066 -0.02183562
v -0.05210146 -0.02826726 0.00589818
v -0.00520866 -0.03274336 0.01373858
v -0.05308066 0.01185614 -0.00921142
v -0.05736296 0.00540634 0.00270558
v 0.03402904 -0.00328236 -0.02184072
v -0.02047976 0.01139544 -0.02365972
v -0.01710696 -0.01352146 -0.03508542
v -0.04256616 -0.02913596 -0.00459252
v 0.01760024 0.01816314 -0.02285732
v -0.00796776 -0.01626356 -0.05566562
v -0.01569256 -0.03319046 0.01349888
v 0.00106264 -0.01613946 -0.02273832
v 0.00334744 0.03401734 0.01325238
v 0.01237784 -0.00224196 0.04680358
v 0.00019224 -0.01539486 -0.05599372
v 0.03381144 -0.03387386 -0.02046712
v -0.05522606 -0.00870026 -0.00745702
v -0.05283246 0.02612764 0.00613448
v -0.04053806 -0.03177096 0.00093248
v -0.04706606 -0.03092776 0.00523858
v -0.03031086 -0.03457086 0.00202558
v 0.03442514 -0.03111816 -0.02196312
v -0.04891566 0.02901764 0.00524028
v -0.04880686 0.02969254 0.01131438
v 0.03377234 0.03468034 0.04539938
v 0.00403084 0.03392724 0.04582778
v 0.03525644 -0.01581986 0.04621198
v -0.03491956 0.03207934 -0.00298942
v 0.01099404 -0.01585046 -0.02259382
v -0.04025076 -0.02600116 -0.01331352
v 0.01893644 0.01447584 -0.05505022
v 0.01458444 -0.01493926 -0.05603622
v 0.03580044 -0.03408806 0.04476018
v 0.01578124 0.01874454 -0.02241362
v 0.02589964 0.00042364 0.04739518
v 0.01480204 -0.00543286 0.05599718
v 0.01976774 -0.01303696 -0.02267882
v -0.02353466 0.00156094 -0.02402182
v 0.00116294 -0.02097426 -0.02079692
v -0.02331706 0.00518194 -0.04400702
v 0.00366534 -0.03425976 0.01715728
v -0.05748026 -0.00631006 -0.00170082
v -0.06067456 0.01514054 0.00635548
v 0.00297344 0.03414824 -0.01951512
v 0.03528704 0.03390004 0.03814718
v 0.03659264 -0.03275696 0.00451948
v 0.02549504 -0.00453356 0.05056228
v 0.02680064 0.00022304 0.05434308
v 0.02799744 -0.03433966 0.04471598
v -0.04624326 0.02137954 -0.01093182
v 0.03067834 0.03452224 -0.02122362
v -0.03275206 0.01881764 -0.02170642
v 0.00402234 -0.03473236 -0.02025292
v -0.05048646 0.02929814 0.00806228
v -0.00098246 0.03546064 0.01169178
v 0.02687034 -0.00170306 0.05131708
v 0.02302324 -0.00213656 0.05854378
v -0.05607436 0.00217634 -0.00827642
v 0.01867124 -0.00480216 0.05853358
v 0.01214324 -0.00259726 0.05457598
v -0.04987276 0.00352614 -0.01778962
v -0.04203916 -0.03121676 0.00339918
v 0.00256884 0.03393574 0.02916268
v -0.03529356 0.02112114 -0.02014412
v -0.05531276 -0.01562606 0.00249138
v -0.03300876 0.03281204 0.00340768
v -0.05720146 0.01759704 0.01318268
v -0.04479826 -0.02894216 0.00237068
v 0.01874094 -0.01514666 -0.02244422
v 0.01319214 -0.00525946 0.05238468
v -0.05252306 -0.02044726 0.00237748
v -0.05241426 0.01836204 -0.00101062
v 0.02581294 0.00103394 0.05617058
v -0.04762706 0.00868224 -0.01897112
v 0.00144174 0.03332374 0.03140328
v 0.00053224 0.01875814 -0.02161972
v -0.05277976 0.02389384 0.01308238
v 0.03534824 0.03305854 0.02989878
v -0.04146456 0.03284264 0.01169688
v -0.05669656 -0.02086886 0.01233778
v 0.00129384 0.03268624 0.02123728
v -0.04549016 0.02653054 -0.00199832
v -0.02753816 -0.02765016 -0.01525832
v 0.00049314 0.03244824 -0.00822712
v -0.02061406 -0.01958876 -0.02168602
v 0.00179874 -0.02737986 -0.01541982
v 0.00179874 0.03219664 0.04187358
v 0.02410274 0.00488444 0.04758898
v -0.06054366 0.00446114 0.00335838
v -0.05477726 0.01271804 -0.00357082
v -0.01767646 0.01491784 -0.02230312
v 0.01800994 -0.01589636 -0.05504172
v -0.03541086 -0.02419066 -0.01850022
v -0.01865566 0.03446104 0.01255538
v -0.02300766 -0.03293716 -0.00572812
v 0.01822754 0.01807474 -0.04841172
v 0.01822754 0.00229024 0.05942438
v -0.00179166 -0.03481566 0.01113078
v 0.00382684 0.03268794 0.04657748
v 0.01057244 0.03346654 0.04656558
v -0.03827876 -0.03233366 -0.00259672
v -0.04937636 0.02397714 0.00289258
v 0.00078044 0.03346994 0.01390518
v 0.00078044 -0.03288616 -0.00413012
v 0.01753564 0.03335774 0.04651628
v 0.01198684 -0.00619616 0.04646188
v -0.04796196 0.03083494 0.00901598
v 0.03679324 -0.03264136 0.04489108
v -0.03893156 0.01796934 -0.02111142
v 0.00121564 -0.02400026 -0.01842712
v -0.02326436 0.00211684 -0.05524912
v 0.01351004 0.00415684 0.04695488
v 0.00132444 -0.03342166 0.00327338
v -0.01869476 0.01229814 -0.05585942
v 0.02254044 0.00619344 0.05575748
v -0.06319396 0.00737324 0.00737548
v 0.01481564 0.00572424 0.04699738
v 0.00371804 -0.02721326 0.04597738
v 0.01836694 0.01804584 -0.03983012
v 0.02402454 0.00609484 0.05317858
v -0.04495466 0.00812464 -0.02152282
v 0.03533974 -0.03393846 0.00688248
v -0.05811946 -0.00206686 -0.00137952
v -0.02123626 -0.00785196 -0.05486832
v -0.01775466 -0.03390106 0.00380888
v 0.00128534 0.02960074 0.01772508
v -0.01307626 0.01618604 -0.05601752
v -0.05539946 0.02054654 0.00385988
v -0.05282736 -0.02828596 0.00807078
v -0.05717936 -0.01084566 0.00255258
v 0.03421264 0.03391024 -0.02038212
v -0.02018736 -0.01036456 -0.04038772
v 0.00211664 0.00745994 0.02991918
v 0.01680464 -0.00069836 0.05954168
v 0.00233424 0.03297184 0.04587198
v 0.00381834 -0.03467626 -0.01350052
v 0.01720074 -0.00675716 0.05615358
v -0.02958326 -0.03041436 -0.01125652
v 0.01839754 0.01742704 -0.05473742
v 0.00175114 0.03126504 -0.02104342
v 0.00077194 0.02680424 -0.01759072
v -0.01250166 -0.01584706 -0.02250882
v 0.01981194 -0.01490696 -0.03569912
v -0.06146166 0.01193434 0.00554118
v 0.00316554 -0.03403876 -0.02115562
v 0.01361034 0.00550154 0.05236768
v -0.01630966 -0.01374756 -0.02268052
v -0.03397436 -0.03422916 -0.00100382
v 0.00171204 -0.03098726 0.01392218
v -0.06280636 -0.00833646 0.01042868
v 0.01857604 -0.00862546 0.04640408
v 0.01890244 0.02006374 -0.02174212
v -0.05671356 0.00856664 -0.00291802
v -0.05997756 -0.01603066 0.01125488
v 0.00018884 0.03317924 0.00405198
v 0.00356164 -0.03444506 -0.00728872
v -0.03636796 -0.03509956 0.00620418
v 0.01824964 -0.01555806 -0.03221412
v -0.05192636 -0.01226176 -0.01152682
v -0.05740546 0.00221884 -0.00466562
v -0.04837506 0.02215644 -0.00563462
v 0.00178174 0.01245624 0.01532978
v -0.00148226 0.03072784 -0.01013452
v 0.00189054 0.03373004 0.02463728
v -0.04924546 0.02349604 0.00165498
v -0.05218306 0.02766444 0.00665298
v -0.05218306 0.02108204 0.01372668
v 0.01146494 0.01920864 -0.02184072
v 0.02622264 0.00084524 0.04655878
v 0.02306744 0.00630734 0.04948958
v -0.01359816 -0.01455336 -0.05597162
v -0.03470536 0.02377824 -0.01772672
v 0.01882424 0.00785434 0.05135958
v -0.01675336 -0.01304716 -0.05555512
v -0.01784136 0.01399644 -0.05512672
v -0.01555656 0.01583414 -0.05520152
v 0.00261304 -0.03394186 0.01328808
v -0.02625806 -0.03357296 0.00352498
v 0.01954674 -0.01428306 -0.04005112
v 0.03521394 0.03385074 0.02016798
v 0.01530354 0.00676124 0.05165878
v 0.02444274 -0.00437036 0.05629298
v -0.05574286 0.02353004 0.01090978
v 0.00442354 -0.03474596 0.02396068
v -0.01994766 0.03506964 0.01117668
v 0.02128754 -0.03417476 0.04579888
v 0.01922034 0.00066334 -0.03413682
v 0.00148594 0.03290384 0.02701218
v 0.01824114 0.00200124 -0.05606342
v 0.01722284 0.01829064 -0.05434812
v 0.00275244 -0.03286576 0.01607608
v 0.00275244 0.01016294 0.04610488
v 0.03397804 0.03475004 0.03348918
v 0.02070444 0.01150084 -0.02173362
v 0.01863724 -0.01189966 -0.05601922
v -0.05686996 -0.00388586 -0.00612762
v -0.05795796 -0.00714476 0.00256958
v -0.04783956 -0.02585836 0.00107188
v 0.03463084 0.03214564 -0.02016112
v 0.03354284 0.03494214 -0.00615822
v -0.04305236 0.02221594 -0.01401732
v -0.04522836 -0.01399066 -0.01917512
v 0.02621414 -0.03371746 -0.02140042
v -0.04167706 0.02794834 -0.00631972
v 0.00303974 0.03067514 -0.02153982
v 0.03567974 -0.00532746 0.04609978
v -0.04330906 0.03286304 0.00833088
v 0.00238694 -0.02888096 -0.01624602
v 0.01914214 -0.01728186 -0.02181692
v 0.03589734 0.00455804 0.04561358
v 0.00249574 0.03408704 -0.01346822
v -0.01752346 0.01477504 -0.02382802
v 0.03383014 0.03138404 -0.02170132
v 0.01279264 0.00068884 0.05655648
v 0.03509664 0.03361274 0.01058508
v 0.00169504 0.03323194 0.01678838
v 0.01953824 -0.01392096 -0.04765012
v 0.02410784 -0.00612646 0.05412378
v -0.01821536 -0.01203906 -0.02331972
v 0.02563104 -0.00157046 0.05642558
v 0.01116064 0.03436244 -0.02082072
v 0.01790624 -0.01574336 -0.03535742
v -0.06108256 -0.00409326 0.00373748
v -0.05324896 0.02634184 0.01060548
v -0.02202336 0.00522444 -0.05609572
v -0.04976736 0.01173204 -0.01501352
v -0.04748256 -0.01557846 -0.01560682
v -0.00508966 -0.03026476 -0.01054422
v 0.01286234 -0.00446726 0.05066598
v 0.01525594 -0.01597966 -0.02209572
v -0.02249766 0.00751774 -0.02419182
v 0.03211994 0.03409214 -0.02156872
v -0.03664166 0.02853314 -0.01044902
v 0.00350554 0.00169864 0.04645338
v -0.06101286 0.01523234 0.00974188
v -0.02184486 0.00952884 -0.04053392
v -0.00501996 -0.03394696 0.00346208
v 0.02174484 -0.00649196 0.04674918
v -0.05735276 -0.02240736 0.01027568
v -0.04397036 0.01420894 -0.02001492
v -0.06290156 0.00358734 0.00510768
v -0.01274476 0.01716524 -0.05479012
v 0.02294164 -0.00571506 0.04712828
v 0.01891604 -0.01491376 -0.02689312
v 0.03578004 -0.03335706 -0.01868722
v 0.00237844 0.03402414 0.00601548
v -0.02061746 -0.02406316 -0.01889462
v 0.01615694 0.00640594 0.04749888
v 0.01517774 0.03307554 -0.02169962
v -0.04368306 -0.03343356 0.00643878
v 0.00201294 -0.01685516 -0.02156532
v -0.05586866 0.00716924 -0.00644382
v -0.06141746 0.00559334 0.01278658
v -0.05804466 -0.00094486 0.00262058
v 0.03443534 0.00230044 0.04621878
v -0.03454386 0.03286134 0.00138638
v -0.01985586 0.01184594 -0.05442122
v -0.04324786 -0.01876766 -0.01796642
v -0.00756146 -0.01677866 -0.05370552
v 0.00741384 -0.01669026 -0.02175402
v 0.00077704 -0.03086826 -0.00890032
v 0.00306184 -0.01710336 0.04538068
v -0.05797496 0.01871904 0.01245508
v -0.01423736 0.01690854 -0.02234392
v 0.01807624 -0.00707166 0.04682228
v 0.00589064 0.01837734 -0.02268902
v -0.05300926 0.00006154 -0.01381502
v -0.03157566 -0.03341656 0.00314758
v -0.01460286 -0.01515176 -0.03874892
v 0.01771074 -0.01577566 -0.02218582
v 0.03490114 0.03421964 -0.00407402
v 0.00048124 -0.02795276 -0.01350732
v -0.00060676 -0.01668516 -0.05263622
v 0.00059004 -0.01961426 -0.02119812
v -0.03727236 -0.03261926 0.00330738
v -0.04390916 -0.00737936 -0.02203452
v -0.00038916 -0.03341316 0.00346208
v -0.04826116 0.02757944 0.01328808
v -0.04934916 -0.00737426 -0.01751252
v 0.03420924 0.03485034 0.01790528
v -0.01028996 -0.01633836 -0.05494652
v 0.03442684 0.03427574 -0.01645852
v -0.05239556 -0.02630206 0.00429678
v -0.01562116 -0.03484286 0.01209978
v -0.03672836 0.03229864 0.00387008
v -0.04314756 -0.03281476 0.01178188
v 0.00254844 -0.03096686 -0.02090572
v -0.01946826 -0.01054306 -0.05479012
v -0.02273226 0.00750244 -0.02252752
v -0.06048586 0.01309544 0.01207768
v -0.02022986 -0.00874616 -0.05579992
v 0.01882934 0.01728254 -0.03282102
v -0.05798346 0.00310624 -0.00051252
v -0.02110026 -0.03449606 0.00211568
v -0.02327626 0.00540804 -0.03177042
v 0.01589174 -0.00410006 0.05805248
v 0.01937334 -0.01266296 -0.05540042
v -0.01254416 -0.01656106 -0.02190022
v 0.00323184 0.03407514 0.00017768
v -0.02679696 -0.03451306 -0.00028812
v -0.02342416 -0.00107916 -0.02245102
v 0.03565424 -0.02834206 -0.02138002
v 0.01683184 0.00556104 0.05730958
v 0.00247024 -0.03355426 -0.00614802
v -0.06324496 0.00565964 0.01071258
v 0.00138224 -0.01510926 0.01416528
v 0.01258864 0.00299064 0.05480888
v 0.03300394 -0.03389766 0.04563738
v 0.01537834 -0.00668576 0.05408128
v -0.04359126 0.03112394 0.01280528
v -0.02009046 0.01226754 -0.03538632
v 0.00460714 -0.03278076 -0.02180502
v -0.01947676 -0.01104626 -0.02224532
v 0.01729764 0.01900634 -0.02192742
v 0.01523044 0.01824644 -0.05502982
v 0.03318244 0.03494554 -0.01939782
v 0.00315364 0.03324384 -0.02109952
v 0.01990884 0.00654194 0.05643748
v -0.05799196 0.01559954 0.00365248
v -0.05570716 -0.00348976 -0.00878132
v -0.04787356 -0.00241366 -0.02017302
v -0.02219676 -0.00710906 -0.04637002
v 0.02143204 0.00671874 0.04757708
v -0.04863516 -0.03084446 0.01094208
v 0.01827684 -0.01564306 -0.04376562
v -0.00286946 0.03437434 0.01342408
v 0.00387614 0.01705134 -0.05601582
v -0.03822946 -0.03457596 0.01093698
v 0.03531934 0.03190764 0.04550648
v -0.02365026 0.00007684 -0.04820602
v -0.05019746 -0.02068526 -0.00566522
v 0.01225374 0.00032674 0.04721328
v 0.01921694 0.00368084 -0.05520322
v 0.03608094 -0.00074936 0.02067798
v -0.01280936 -0.01569746 -0.02924252
v 0.01950424 -0.00682006 0.04732718
v -0.05611176 -0.01151036 -0.00235362
v -0.01465896 0.01675384 -0.03740082
v -0.04000936 -0.01644546 -0.02160612
v 0.03353944 -0.03301876 -0.02168262
v 0.01264984 -0.00225046 0.04740028
v 0.03502354 0.01515074 0.04626808
v -0.05930606 0.01839094 0.01076018
v -0.01567726 0.01597694 -0.02442472
v -0.05353966 -0.01705406 -0.00230602
v 0.01554834 0.00636344 0.05485138
v -0.01665646 0.01720094 -0.02180842
v 0.00347154 0.01720434 0.04658768
v -0.05332206 -0.01536596 -0.00587092
v -0.02289716 -0.00347276 -0.05527802
v 0.00169164 0.03338834 -0.01133302
v -0.02605236 0.03485544 0.00807418
v 0.03639884 -0.01647776 0.04539428
v -0.02485556 0.00317084 -0.02181862
v -0.05825716 0.01126114 0.01358558
v 0.03422284 0.03386094 0.04637178
v 0.00528204 -0.01616496 -0.05547862
v -0.04705076 -0.02540106 -0.00431372
v -0.02126516 0.01103504 -0.02224702
v -0.06347956 -0.00491096 0.00740098
v 0.00005964 0.03194844 0.01451378
v -0.05999796 -0.01077426 0.00380378
v -0.05771316 -0.01898866 0.00392448
v -0.03976116 -0.03243226 0.01299568
v -0.00178996 0.03410234 0.00229758
v 0.01960454 -0.01457886 -0.03266292
v -0.05503226 0.01420554 0.00276848
v 0.03635974 -0.03365626 0.02492628
v 0.00448134 -0.03465926 0.01206748
v 0.01819014 0.00743444 0.05465248
v 0.00154374 0.03413804 0.01236838
v 0.01956544 -0.01385126 -0.02787572
v -0.01046336 0.01776534 -0.03283462
v -0.02591296 -0.00610776 -0.02187132
v 0.02206784 0.00478924 0.05766828
v -0.01133376 -0.01636556 -0.03823042
v -0.05681216 0.00896274 -0.00022352
v 0.03686464 -0.03313776 0.03900738
v -0.06214336 0.01155864 0.00835298
v -0.05322176 0.02550204 0.01182778
v -0.04092736 0.03060884 0.00356748
v -0.00513216 -0.03173696 0.01406668
v 0.00940794 -0.03448926 -0.02124232
v 0.00168314 -0.03449606 0.00618378
v 0.00190074 0.03336454 0.01504928
v 0.00092154 0.03169854 -0.01193312
v 0.00103034 0.02377654 -0.02041442
v 0.01669754 0.01846234 -0.04556762
v -0.04227206 0.00707914 -0.02197162
v -0.03443846 0.03108314 0.01400888
v -0.02214406 -0.00739806 -0.03210192
v 0.01930874 0.00006494 -0.02269072
v 0.02050554 -0.00155176 0.05971338
v 0.00157434 0.02206974 0.01624438
v -0.04967046 -0.02490296 0.00279908
v -0.05743436 -0.02256546 0.00589308
v 0.03515444 0.03391194 0.04509338
v -0.04503116 0.02523854 -0.00654752
v -0.01935436 0.03205214 -0.00584202
v -0.02240076 -0.00582556 -0.02302732
v -0.05242956 0.00762994 -0.01314522
v 0.01894324 -0.01513816 -0.05475612
v -0.03447756 0.03416524 0.01145888
v -0.05210316 -0.02541976 0.01293108
v -0.01086796 0.01784524 -0.02199882
v -0.03306316 -0.03338256 0.00371708
v 0.01618414 0.03424514 0.04571388
v -0.04942226 -0.02936376 0.01183458
v 0.01966574 -0.00776696 0.05020188
v 0.03685614 -0.03296436 0.03015378
v 0.02467054 0.00808724 0.04642448
v -0.06106386 -0.00609926 0.01291238
v -0.00089746 0.03320304 -0.00398732
v -0.05877906 0.01936844 0.00712728
v 0.01705454 -0.03429716 -0.02046202
v 0.03609454 -0.03402346 0.03411478
v -0.01725656 -0.01321546 -0.05347432
v 0.01505704 -0.00673166 0.05094648
v -0.03172696 0.02814554 -0.01271682
v -0.05065816 -0.02456126 0.01348868
v -0.01366616 0.02107354 -0.02116922
v 0.01647144 0.00404124 0.05829388
v -0.05925336 -0.00374306 0.01346998
v 0.02430504 0.00527714 0.04671008
v 0.01429544 -0.01575526 -0.03429492
v -0.06360536 -0.00249356 0.01003938
v -0.04663256 -0.02793066 0.00293678
v -0.06306136 -0.00171666 0.01133308
v -0.04841246 -0.03130686 0.00747238
v -0.00935326 -0.01630436 -0.02720592
v -0.02360606 0.00293454 -0.02245102
v 0.01447394 -0.00489056 0.04706028
v 0.01349474 -0.00380256 0.05614848
v 0.02361314 -0.00503676 0.04680868
v 0.01697634 -0.01558526 -0.02404902
v -0.04427806 0.03223744 0.01076018
v -0.06074596 0.00859214 0.00394148
v -0.01504996 -0.00153306 0.01414318
v 0.02618524 -0.00320926 0.05405918
v 0.02411804 0.00249084 0.05749318
v -0.02897636 0.03297184 0.00400098
v 0.00224924 -0.02242266 -0.02073742
v -0.02331876 -0.00427686 -0.02209742
v 0.01922204 -0.01582326 -0.03524182
v -0.06361386 0.00265744 0.00695728
v 0.00101334 -0.03383646 0.00099028
v -0.03967786 -0.03474766 0.00700828
v 0.01729424 0.00716414 0.04689878
v 0.02175504 -0.00730286 0.05439748
v 0.02066704 -0.01301146 -0.02183052
v -0.04950896 -0.01090346 -0.01591622
v -0.04504816 0.02783104 0.00304898
v 0.01794704 0.01641384 -0.05607702
v 0.00238864 -0.03350326 -0.01762642
v 0.00140944 -0.03461846 0.01034028
v 0.03611664 -0.03231836 -0.02062352
v -0.02180406 -0.00828546 -0.02212462
v -0.00831286 -0.02793576 -0.01424172
v -0.00374326 -0.01683476 -0.02186792
v 0.03542474 -0.03385346 -0.00661722
v -0.03573046 -0.03409826 0.00163968
v 0.02008394 0.00414834 0.05870018
v 0.00234954 -0.01460096 0.01514448
v -0.02104246 -0.00856596 -0.02283692
v -0.02104246 0.02636054 -0.01589922
v 0.00245834 -0.03173016 0.01446618
v -0.01973686 0.03359574 0.00017768
v 0.00147914 -0.03338936 0.01292428
v -0.01509756 -0.01301826 -0.05602262
v 0.01950084 -0.01486106 -0.05264302
v 0.00394244 -0.02030276 -0.02158232
v -0.03946876 -0.02197556 -0.01850362
v -0.01716476 0.01515074 -0.04245662
v -0.04610556 0.00139774 -0.02164352
v -0.03152636 -0.02322846 -0.01977692
v 0.01199364 0.00038964 0.05504178
v -0.05807356 -0.01585556 0.01306368
v -0.03130876 -0.03487006 0.01172748
v -0.05796476 0.02007224 0.00601038
v 0.02559364 -0.00304436 0.04664038
v 0.01786884 -0.01529626 -0.05566052
v 0.03582084 -0.03238806 0.04612528
v -0.05208956 0.01946364 0.00289088
v 0.00144004 0.02671244 -0.02076972
v 0.00144004 0.03347674 -0.01631062
v 0.01482244 0.00155074 0.05842648
v 0.00401214 -0.03395716 0.04558128
v 0.00314174 -0.00602276 0.04597398
v 0.01989694 0.00736644 0.05464228
v -0.02220866 -0.00278936 -0.05610252
v -0.03852866 0.02567204 -0.01400202
v -0.01952776 -0.01106666 -0.02750682
v -0.04716296 0.00393414 -0.02066432
v -0.00571016 0.01843854 -0.02190872
v 0.00321144 -0.03307316 0.03959218
v 0.01213304 0.01767354 -0.05570982
v 0.03334904 0.02088994 -0.02179992
v 0.00114424 0.01154674 0.01442708
v -0.04226696 0.02905334 0.01389838
v 0.00244984 0.02589474 0.04614908
v -0.01310856 -0.02064956 -0.02134092
v -0.06080206 -0.01575016 0.00983028
v 0.03396274 0.03486224 0.00848218
v 0.02177714 0.00238884 0.05901298
v 0.00175794 0.03333054 0.03807238
v -0.04165326 -0.03087506 0.00247098
v -0.00041806 0.02891904 -0.01327952
v -0.01815246 0.03180394 0.01424858
v -0.04154446 0.01439594 -0.02157382
v 0.01873074 -0.01564476 -0.04756852
v 0.03548594 -0.03406086 0.02472228
v 0.03548594 -0.00508946 -0.02115902
v -0.03229646 0.03049154 -0.00801462
v -0.05568846 -0.02176646 0.00362018
v 0.03461554 0.02649484 0.04638028
v -0.03425486 -0.02995026 -0.01152682
v 0.02591154 0.00367234 0.05308168
v 0.00251954 -0.03332986 -0.01180902
v 0.00262834 0.00166804 0.04466668
v 0.00400364 -0.02796296 -0.02169452
v -0.03810196 0.02201364 -0.01832512
v 0.00106604 0.03221534 0.01504928
v 0.01890924 0.01460334 -0.02329592
v 0.00378604 -0.03444166 0.04129218
v 0.03609964 -0.00350166 0.04500838
v -0.02062426 0.03365524 0.00234858
v 0.00178854 0.02196944 -0.02126442
v 0.02528934 0.00383214 0.05547528
v -0.00136666 0.01783844 -0.05500602
v 0.01887014 0.01695274 -0.04812102
v 0.00668454 -0.03448756 0.04591278
v 0.03475494 0.03428424 0.02992258
v 0.02474534 0.03432504 -0.02127972
v -0.05435226 -0.01651006 0.00076928
v 0.02039334 -0.00251566 -0.02176592
v -0.05087066 -0.00237796 -0.01672372
v 0.01730784 -0.00743546 0.04983808
v 0.01404384 0.00434554 0.05643578
v -0.03720096 -0.01800096 -0.02198692
v 0.00294624 -0.03363926 0.02940748
v -0.05373856 -0.02652816 0.01106958
v -0.04253216 -0.01467576 -0.02111482
v -0.04906016 0.01711764 -0.01149112
v 0.00229344 0.01909134 0.04558638
v 0.00229344 -0.02463266 -0.01910032
v 0.00011744 0.02222274 -0.02068812
v -0.06222496 -0.01191836 0.00763558
v 0.00131424 0.03291064 -0.01964942
v -0.05994016 -0.01368976 0.01233438
v 0.03591264 -0.03385856 0.01457158
v -0.05319456 -0.00606526 -0.01247372
v -0.03643936 -0.02082466 -0.02098562
v -0.02168166 -0.03570816 0.01036578
v 0.00301594 -0.03425806 0.02504528
v -0.05486566 -0.02572066 0.01020258
v -0.00133606 0.03554224 0.00836488
v -0.04583526 -0.00787066 -0.02115562
v -0.02211686 0.00746504 -0.05521682
v -0.04550886 -0.02306526 -0.01094882
v 0.02357914 -0.00660416 0.05104338
v 0.01922714 -0.01511096 -0.03788532
v -0.03756646 0.03263694 0.01314188
v 0.03489434 0.02003144 -0.02067282
v 0.02162074 -0.00483106 0.05797088
v 0.00286804 -0.02549626 -0.02126952
v 0.00178004 -0.01609356 -0.02978312
v 0.01853524 0.01713634 -0.02221982
v -0.05708076 -0.00992596 0.00160398
v 0.01200724 0.00271354 0.05236938
v -0.04119596 0.02643874 -0.01025862
v -0.05120556 0.01799484 -0.00610212
v -0.01084076 0.03403434 0.00251348
v -0.05087916 0.02617864 0.00421348
v -0.04504306 0.01789624 -0.01628512
v -0.04613106 -0.03023586 0.01276618
v 0.02186894 0.00732564 0.05229118
v 0.01882254 -0.00804916 0.05344038
v -0.02339186 -0.00354756 -0.03587422
v -0.00554866 0.01797614 -0.02286752
v 0.02230414 -0.00581706 0.05670608
v 0.02676494 0.00157454 0.05101618
v -0.03111666 -0.03318706 0.01320478
v -0.05450866 0.02415054 0.00528958
v 0.00467854 -0.03467116 0.00523348
v 0.01381774 0.00919224 0.04651288
v -0.03742706 0.03386944 0.00727348
v 0.01062344 0.00052394 0.04655878
v -0.03616056 -0.03223676 -0.00591342
v 0.01954504 0.01358504 -0.02198862
v 0.02520264 0.00275944 0.04715208
v -0.06270776 -0.00629136 0.00541028
v -0.01255096 0.03326254 0.00419818
v 0.02422344 -0.00702236 0.04638368
v 0.01649864 -0.03435496 0.00617358
v 0.02542024 0.00448664 0.05107908
v 0.01432264 -0.00122196 0.05813068
v 0.03466824 0.01702754 -0.02137662
v -0.04540856 0.03136704 0.00597298
v -0.03511166 -0.02731526 -0.01507812
v 0.00416514 -0.01407906 0.04646868
v 0.03549954 0.02080154 0.04557278
v 0.00329474 0.03394764 0.04069038
v -0.02118526 -0.03568266 0.00689778
v 0.01787394 0.01863234 -0.03408922
v 0.00340354 -0.03362906 0.04440148
v -0.06002686 -0.01708976 0.00579618
v 0.01145474 -0.00102306 0.05156018
v -0.03750526 -0.03054356 -0.00877792
v 0.01293884 -0.03467456 0.04542658
v 0.00532284 0.01914744 -0.02156022
v 0.02545084 -0.00229126 0.04719118
v -0.05799876 -0.00475456 0.00255598
v -0.00425156 -0.03416456 0.00180628
v -0.03536836 -0.03560276 0.00858078
f 130 252 446
f 14 252 130
f 209 591 619
f 209 98 591
f 591 274 51
f 51 274 449
f 138 51 201
f 591 51 619
f 51 138 619
f 527 367 91
f 367 176 531
f 367 527 176
f 415 367 531
f 446 98 209
f 120 209 619
f 213 130 209
f 213 209 120
f 120 531 213
f 130 446 209
f 500 130 213
f 415 138 201
f 619 138 120
f 120 138 415
f 531 120 415
f 130 500 14
f 500 429 14
f 429 500 646
f 333 429 646
f 451 255 127
f 127 255 484
f 646 255 634
f 634 333 646
f 255 451 634
f 127 610 451
f 34 66 631
f 66 214 621
f 66 621 631
f 72 155 102
f 66 34 214
f 102 71 214
f 71 621 214
f 102 214 272
f 72 102 272
f 272 214 34
f 631 527 34
f 34 527 462
f 462 391 34
f 527 631 176
f 621 176 631
f 231 34 391
f 272 34 231
f 428 272 231
f 428 231 311
f 311 231 391
f 150 621 500
f 150 213 531
f 500 213 150
f 71 102 646
f 646 500 71
f 71 500 621
f 646 102 155
f 176 621 150
f 176 150 531
f 72 272 428
f 326 72 428
f 326 428 125
f 311 125 428
f 125 311 115
f 326 125 215
f 215 547 326
f 115 215 125
f 403 215 115
f 255 646 155
f 484 255 155
f 72 484 155
f 72 358 484
f 326 358 72
f 326 547 358
f 127 484 358
f 358 610 127
f 358 547 610
f 547 438 610
f 547 215 486
f 51 449 300
f 449 106 300
f 315 106 449
f 106 208 300
f 201 300 208
f 341 201 208
f 201 51 300
f 368 244 106
f 208 106 244
f 171 244 90
f 171 341 208
f 302 341 171
f 302 171 660
f 171 208 244
f 192 91 367
f 192 485 289
f 192 427 91
f 427 192 164
f 137 485 367
f 485 192 367
f 137 367 415
f 137 415 52
f 137 289 485
f 289 137 271
f 493 289 408
f 289 164 192
f 164 289 493
f 353 164 493
f 353 427 164
f 353 493 474
f 476 353 474
f 415 201 425
f 52 425 341
f 425 201 341
f 415 425 52
f 52 341 302
f 52 302 137
f 271 137 302
f 385 90 244
f 616 90 385
f 660 171 90
f 616 660 90
f 245 660 616
f 616 178 245
f 178 411 410
f 411 178 113
f 411 654 410
f 408 289 639
f 289 271 639
f 408 639 595
f 198 408 595
f 474 493 408
f 474 408 198
f 476 474 198
f 460 476 198
f 302 660 271
f 410 639 271
f 410 654 639
f 245 271 660
f 410 271 245
f 178 410 245
f 460 198 597
f 525 460 597
f 654 595 639
f 550 198 595
f 550 654 444
f 550 595 654
f 202 198 550
f 597 198 202
f 128 597 202
f 202 550 287
f 128 202 287
f 128 525 597
f 462 91 283
f 283 91 427
f 462 527 91
f 462 283 391
f 283 338 391
f 283 427 353
f 338 283 353
f 311 391 338
f 338 115 311
f 115 338 403
f 301 338 353
f 403 338 301
f 353 476 301
f 403 301 471
f 471 301 460
f 486 403 471
f 403 486 215
f 301 476 460
f 471 460 525
f 468 471 525
f 3 577 375
f 375 237 3
f 544 375 577
f 421 436 577
f 544 577 363
f 375 544 501
f 436 363 577
f 436 238 363
f 652 436 421
f 144 238 436
f 167 144 436
f 167 578 144
f 167 436 652
f 596 92 365
f 365 188 596
f 297 365 269
f 92 269 365
f 365 253 188
f 297 253 365
f 188 253 532
f 596 188 532
f 532 189 596
f 340 578 167
f 37 167 652
f 167 37 340
f 340 37 652
f 652 20 340
f 658 297 200
f 596 533 92
f 533 259 92
f 19 434 596
f 19 596 189
f 596 434 533
f 533 434 399
f 132 555 211
f 533 399 259
f 434 19 555
f 434 555 132
f 132 399 434
f 269 92 259
f 211 461 132
f 44 132 461
f 40 259 399
f 40 399 132
f 44 40 132
f 40 347 259
f 6 44 461
f 347 44 6
f 347 40 44
f 259 347 269
f 61 269 347
f 42 297 269
f 297 42 581
f 297 581 280
f 99 280 581
f 42 99 581
f 297 545 200
f 99 42 364
f 280 99 364
f 248 364 42
f 61 248 269
f 248 42 269
f 274 622 288
f 109 122 541
f 541 122 169
f 522 541 169
f 449 274 122
f 449 122 109
f 274 288 122
f 169 288 557
f 169 122 288
f 288 18 157
f 157 100 557
f 557 288 157
f 100 437 557
f 100 12 437
f 437 169 557
f 437 522 169
f 521 359 260
f 386 260 392
f 260 359 54
f 343 284 88
f 343 88 29
f 29 626 86
f 402 437 12
f 359 284 54
f 284 279 54
f 279 284 343
f 29 86 343
f 626 349 86
f 349 626 448
f 337 279 479
f 479 402 337
f 422 437 402
f 279 343 86
f 86 479 279
f 479 86 349
f 349 402 479
f 349 448 491
f 491 402 349
f 402 491 422
f 324 605 522
f 605 324 590
f 605 590 250
f 109 541 369
f 369 584 109
f 584 315 109
f 449 109 315
f 599 584 327
f 499 599 327
f 584 599 315
f 315 368 106
f 599 368 315
f 244 368 65
f 368 599 65
f 207 65 599
f 499 207 599
f 369 541 522
f 437 324 522
f 327 584 369
f 522 605 369
f 605 327 369
f 499 327 605
f 499 605 250
f 250 275 499
f 207 499 275
f 275 17 207
f 275 250 306
f 306 11 275
f 17 275 11
f 11 607 17
f 17 397 207
f 607 379 17
f 379 607 406
f 27 406 607
f 587 590 324
f 387 590 587
f 587 600 387
f 587 324 437
f 587 437 422
f 491 448 505
f 590 306 250
f 387 520 590
f 590 520 306
f 600 520 387
f 306 520 11
f 607 11 78
f 520 78 11
f 27 607 78
f 8 600 587
f 523 600 8
f 523 141 600
f 141 520 600
f 141 647 520
f 131 647 141
f 131 141 523
f 78 520 647
f 78 647 656
f 78 656 27
f 656 647 564
f 564 636 656
f 636 564 41
f 564 647 131
f 186 564 131
f 41 564 186
f 224 175 162
f 224 162 223
f 223 162 305
f 273 162 175
f 606 273 159
f 538 159 273
f 162 273 606
f 162 606 305
f 305 606 284
f 88 606 159
f 88 284 606
f 517 538 273
f 521 223 305
f 290 175 224
f 224 386 290
f 521 224 223
f 386 224 521
f 521 305 359
f 421 290 386
f 3 175 290
f 273 175 3
f 3 290 577
f 3 237 273
f 577 290 421
f 398 159 538
f 88 159 378
f 378 159 398
f 378 398 626
f 626 398 370
f 370 398 172
f 538 339 398
f 398 339 172
f 172 339 336
f 517 339 538
f 222 336 339
f 339 517 222
f 219 222 517
f 336 222 465
f 222 30 465
f 336 370 172
f 180 370 336
f 336 465 180
f 465 55 180
f 465 30 55
f 439 626 370
f 180 439 370
f 30 317 55
f 273 237 517
f 30 222 219
f 30 219 329
f 219 58 329
f 63 219 517
f 58 219 63
f 424 30 329
f 307 58 405
f 63 405 58
f 307 329 58
f 321 307 405
f 30 424 317
f 424 329 307
f 63 517 237
f 305 284 359
f 386 521 260
f 378 29 88
f 626 29 378
f 626 439 448
f 321 473 614
f 383 317 424
f 383 55 317
f 383 424 478
f 439 512 448
f 512 439 540
f 540 439 180
f 55 540 180
f 512 540 267
f 540 55 195
f 267 540 195
f 491 505 422
f 448 512 505
f 512 361 505
f 48 587 422
f 361 422 505
f 361 512 267
f 422 361 48
f 195 361 267
f 361 195 48
f 133 587 48
f 133 8 587
f 133 549 8
f 8 549 295
f 190 195 55
f 383 190 55
f 48 195 190
f 190 346 48
f 190 383 478
f 346 190 5
f 478 5 190
f 133 48 346
f 549 133 346
f 295 523 8
f 131 523 295
f 131 295 506
f 424 307 321
f 478 424 321
f 478 321 614
f 60 478 614
f 5 478 60
f 539 569 18
f 618 539 249
f 249 539 18
f 112 100 157
f 112 157 569
f 569 220 112
f 9 100 112
f 112 220 9
f 467 220 539
f 513 220 467
f 220 569 539
f 513 9 220
f 539 281 467
f 618 281 539
f 32 281 618
f 252 32 618
f 14 32 252
f 32 561 281
f 561 32 76
f 561 467 281
f 98 622 591
f 249 622 98
f 622 18 288
f 18 622 249
f 618 249 98
f 618 98 446
f 622 274 591
f 569 157 18
f 252 618 446
f 100 395 12
f 312 25 392
f 139 407 395
f 260 139 392
f 312 392 139
f 469 100 9
f 469 395 100
f 395 469 453
f 312 395 453
f 139 395 312
f 513 13 9
f 211 513 467
f 54 279 337
f 54 337 407
f 407 12 395
f 337 402 407
f 402 12 407
f 54 407 260
f 407 139 260
f 76 32 14
f 304 76 14
f 333 304 14
f 114 304 333
f 333 14 429
f 304 515 76
f 515 447 76
f 447 561 76
f 634 21 333
f 333 21 114
f 489 304 114
f 21 489 114
f 634 400 21
f 400 634 451
f 640 574 489
f 39 21 400
f 39 640 21
f 574 304 489
f 304 574 515
f 640 489 21
f 447 467 561
f 447 211 467
f 620 515 574
f 640 620 574
f 447 515 6
f 461 211 447
f 620 6 515
f 413 6 620
f 6 461 447
f 65 385 244
f 385 65 397
f 385 397 393
f 397 65 207
f 397 379 393
f 616 385 582
f 582 113 616
f 113 178 616
f 119 393 379
f 393 582 385
f 562 411 113
f 119 562 113
f 411 444 654
f 444 411 562
f 582 393 119
f 119 113 582
f 443 562 119
f 379 397 17
f 406 119 379
f 246 119 406
f 246 443 119
f 406 116 246
f 406 27 56
f 27 656 56
f 56 656 149
f 56 116 406
f 22 471 468
f 486 471 22
f 430 486 22
f 25 386 392
f 25 421 386
f 627 421 25
f 453 25 312
f 627 25 453
f 627 453 542
f 542 469 594
f 13 469 9
f 13 513 555
f 13 19 189
f 594 469 13
f 453 469 542
f 542 594 124
f 542 124 627
f 314 627 124
f 575 124 594
f 627 314 421
f 658 124 575
f 658 314 124
f 575 594 435
f 189 435 594
f 253 435 532
f 575 435 253
f 435 189 532
f 13 189 594
f 658 575 253
f 20 421 314
f 20 652 421
f 571 235 340
f 253 297 658
f 216 314 658
f 216 82 314
f 658 200 216
f 362 216 200
f 82 216 362
f 615 340 20
f 615 571 340
f 82 20 314
f 20 57 615
f 20 82 57
f 362 57 82
f 57 362 615
f 571 615 637
f 1 571 637
f 637 242 1
f 440 571 1
f 211 555 513
f 555 19 13
f 615 200 637
f 362 200 615
f 242 637 200
f 200 53 242
f 346 5 549
f 549 158 295
f 506 186 131
f 143 41 186
f 506 276 186
f 143 186 276
f 152 143 276
f 152 348 143
f 152 661 348
f 342 348 661
f 87 5 507
f 322 87 507
f 507 5 60
f 60 299 507
f 507 299 322
f 549 5 87
f 549 87 158
f 506 158 320
f 614 77 60
f 299 60 308
f 60 77 308
f 519 322 299
f 519 87 322
f 490 87 519
f 77 614 473
f 77 473 483
f 299 308 519
f 613 490 519
f 613 593 490
f 158 490 593
f 593 613 335
f 256 593 335
f 613 519 568
f 45 568 519
f 568 335 613
f 335 568 360
f 490 158 87
f 158 593 134
f 256 134 593
f 320 158 134
f 158 506 295
f 320 276 506
f 193 502 335
f 193 335 360
f 502 193 101
f 256 335 502
f 566 256 502
f 566 502 184
f 184 502 101
f 184 101 431
f 276 320 309
f 152 276 309
f 309 320 134
f 31 134 256
f 31 256 566
f 309 134 31
f 352 31 566
f 309 31 352
f 184 352 566
f 204 184 46
f 152 309 352
f 204 352 184
f 46 352 204
f 173 342 661
f 285 651 173
f 59 50 430
f 285 173 661
f 661 152 494
f 661 325 285
f 325 661 494
f 36 651 285
f 36 285 325
f 36 601 651
f 325 494 161
f 432 36 325
f 161 432 325
f 152 352 494
f 352 46 494
f 161 494 632
f 632 494 46
f 432 161 632
f 642 632 46
f 146 601 36
f 36 432 503
f 36 503 146
f 514 354 197
f 354 430 197
f 50 332 146
f 516 146 503
f 50 146 516
f 516 503 225
f 225 503 417
f 197 430 516
f 50 516 430
f 197 516 514
f 514 516 225
f 89 225 417
f 225 239 514
f 239 225 89
f 503 432 632
f 503 632 417
f 417 632 642
f 501 544 363
f 381 237 501
f 238 501 363
f 501 238 187
f 187 79 501
f 79 381 501
f 578 79 187
f 375 501 237
f 578 381 79
f 144 187 238
f 578 187 144
f 280 261 297
f 297 261 545
f 24 545 261
f 611 545 24
f 611 645 545
f 545 645 53
f 560 645 611
f 280 364 179
f 179 261 280
f 247 261 179
f 364 330 179
f 330 247 179
f 247 24 261
f 364 248 330
f 319 330 248
f 319 247 330
f 247 319 24
f 24 319 611
f 381 345 237
f 345 243 237
f 63 237 80
f 80 405 63
f 140 405 80
f 321 405 140
f 80 243 529
f 140 80 529
f 237 243 80
f 321 140 473
f 558 473 140
f 243 345 529
f 518 450 345
f 381 518 345
f 381 265 518
f 529 345 450
f 140 529 450
f 450 518 140
f 558 140 518
f 235 381 578
f 235 265 381
f 578 340 235
f 373 473 558
f 265 558 518
f 227 558 265
f 227 373 558
f 206 270 492
f 473 270 206
f 227 265 235
f 609 373 227
f 270 373 609
f 473 373 270
f 191 609 227
f 235 191 227
f 609 492 270
f 609 191 492
f 414 191 235
f 414 492 191
f 414 206 492
f 440 235 571
f 1 242 583
f 53 583 242
f 440 1 583
f 420 414 235
f 483 473 206
f 278 77 483
f 278 483 318
f 440 420 235
f 483 206 292
f 292 117 483
f 117 318 483
f 85 292 420
f 292 206 414
f 420 292 414
f 498 85 440
f 85 420 440
f 440 583 498
f 278 318 257
f 292 85 117
f 85 498 117
f 257 318 117
f 117 498 257
f 498 583 53
f 53 45 498
f 200 545 53
f 560 53 645
f 560 611 319
f 560 319 382
f 94 560 382
f 308 77 278
f 308 45 519
f 308 257 45
f 23 568 45
f 568 23 360
f 23 463 431
f 45 251 23
f 463 23 251
f 257 308 278
f 45 257 498
f 642 463 64
f 431 360 23
f 431 193 360
f 101 193 431
f 642 431 463
f 431 642 184
f 184 642 46
f 463 251 64
f 53 70 45
f 350 70 53
f 350 53 560
f 45 388 251
f 45 70 388
f 388 64 251
f 508 642 64
f 504 70 350
f 350 560 504
f 504 388 70
f 388 504 64
f 293 64 504
f 504 560 94
f 94 293 504
f 508 64 293
f 94 508 293
f 508 170 642
f 562 47 444
f 331 47 562
f 331 49 47
f 331 562 443
f 68 49 331
f 475 331 443
f 68 331 475
f 475 443 246
f 475 246 116
f 47 287 444
f 287 47 603
f 287 550 444
f 603 47 177
f 177 47 49
f 589 177 372
f 287 603 589
f 287 589 128
f 128 589 452
f 525 128 452
f 452 468 525
f 177 589 603
f 452 589 456
f 49 477 177
f 372 177 477
f 68 475 110
f 116 110 475
f 68 477 49
f 298 477 68
f 477 298 33
f 456 589 372
f 468 452 623
f 456 623 452
f 623 456 372
f 372 477 33
f 623 372 334
f 33 334 372
f 67 116 56
f 67 554 116
f 56 149 67
f 149 656 636
f 149 636 196
f 509 67 149
f 196 509 149
f 41 196 636
f 196 41 143
f 110 116 554
f 110 298 68
f 298 495 33
f 323 554 67
f 67 509 323
f 554 323 110
f 298 110 205
f 205 110 323
f 495 298 205
f 334 33 376
f 376 33 662
f 662 33 495
f 495 205 662
f 509 316 323
f 316 509 69
f 69 509 196
f 323 316 454
f 69 196 348
f 454 205 323
f 226 205 454
f 226 454 316
f 226 316 69
f 662 205 651
f 623 412 468
f 412 22 468
f 412 623 334
f 334 376 412
f 22 412 630
f 526 412 376
f 526 630 412
f 526 376 662
f 662 601 526
f 662 651 601
f 430 22 630
f 526 332 630
f 196 143 348
f 69 348 342
f 69 342 226
f 173 651 226
f 205 226 651
f 173 226 342
f 630 332 59
f 430 630 59
f 601 332 526
f 332 50 59
f 146 332 601
f 61 347 294
f 551 248 61
f 248 551 319
f 263 319 551
f 328 263 551
f 228 263 328
f 551 455 328
f 455 241 328
f 580 228 328
f 580 328 241
f 126 228 580
f 451 610 142
f 438 142 610
f 233 400 451
f 142 233 451
f 142 438 556
f 400 233 39
f 556 438 547
f 486 556 547
f 233 604 39
f 103 233 142
f 103 604 233
f 640 413 620
f 413 640 203
f 203 640 39
f 294 203 39
f 15 294 39
f 604 15 39
f 409 556 486
f 142 374 103
f 556 374 142
f 556 409 374
f 604 103 15
f 15 419 61
f 103 419 15
f 151 419 103
f 151 374 409
f 103 374 151
f 151 409 570
f 61 419 151
f 433 61 151
f 433 151 570
f 433 570 264
f 570 174 264
f 433 264 61
f 129 264 174
f 546 409 486
f 264 129 212
f 61 264 212
f 212 129 236
f 111 212 236
f 111 61 212
f 129 174 442
f 442 181 129
f 236 129 181
f 236 123 111
f 123 236 181
f 553 123 181
f 553 111 123
f 413 347 6
f 203 347 413
f 294 347 203
f 61 294 15
f 546 570 409
f 570 546 442
f 174 570 442
f 442 546 210
f 442 210 181
f 210 546 43
f 181 210 43
f 455 61 111
f 455 551 61
f 228 382 263
f 43 546 511
f 486 354 546
f 511 546 354
f 43 511 181
f 181 511 588
f 486 430 354
f 511 354 514
f 511 514 239
f 89 602 239
f 588 511 239
f 588 239 602
f 417 232 89
f 232 417 642
f 181 567 592
f 567 181 310
f 536 567 310
f 648 536 310
f 181 543 310
f 648 310 166
f 166 7 648
f 181 588 543
f 97 232 642
f 75 648 7
f 650 111 553
f 650 553 135
f 135 183 650
f 74 650 183
f 183 135 592
f 455 111 650
f 650 74 455
f 74 183 147
f 147 148 74
f 455 74 148
f 592 553 181
f 135 553 592
f 592 548 183
f 396 548 592
f 396 592 240
f 183 548 147
f 147 548 396
f 396 148 147
f 153 455 148
f 455 153 38
f 38 153 563
f 153 148 396
f 563 153 396
f 396 633 563
f 563 633 459
f 26 496 35
f 26 633 496
f 126 580 93
f 126 382 228
f 241 93 580
f 73 241 455
f 93 241 73
f 93 377 126
f 649 126 377
f 649 382 126
f 563 459 390
f 459 633 26
f 371 26 35
f 371 472 26
f 459 26 472
f 258 382 649
f 303 390 459
f 649 390 258
f 390 303 258
f 38 73 455
f 38 404 73
f 404 38 563
f 445 93 73
f 445 377 93
f 404 563 377
f 73 404 445
f 404 377 445
f 649 377 563
f 563 390 649
f 567 240 592
f 396 240 282
f 240 567 282
f 282 633 396
f 282 567 536
f 282 536 648
f 282 648 154
f 165 633 160
f 282 635 633
f 635 160 633
f 160 635 380
f 617 160 380
f 633 165 496
f 635 282 154
f 380 635 62
f 62 635 154
f 389 380 62
f 62 154 480
f 389 62 480
f 277 389 480
f 389 655 380
f 277 655 389
f 118 277 466
f 277 480 466
f 229 165 194
f 160 194 165
f 160 617 194
f 655 617 380
f 296 496 165
f 229 296 165
f 296 35 496
f 221 296 229
f 221 35 296
f 35 221 371
f 418 229 394
f 394 229 194
f 394 194 586
f 586 194 355
f 617 355 194
f 394 586 351
f 418 221 229
f 418 394 351
f 221 418 537
f 624 221 537
f 355 617 524
f 524 617 655
f 108 524 655
f 108 655 277
f 277 118 108
f 357 118 466
f 481 108 118
f 118 84 481
f 84 118 357
f 586 355 262
f 262 355 524
f 262 524 108
f 644 262 108
f 644 108 481
f 586 262 534
f 534 262 644
f 84 344 481
f 185 84 357
f 644 481 344
f 644 344 182
f 344 84 185
f 107 344 185
f 313 384 4
f 313 480 154
f 154 199 313
f 4 480 313
f 466 480 4
f 4 585 466
f 585 4 384
f 457 585 384
f 384 313 286
f 286 313 641
f 286 291 384
f 16 384 291
f 291 286 482
f 286 641 482
f 641 313 199
f 75 199 154
f 199 75 641
f 75 303 641
f 624 371 221
f 136 472 371
f 218 136 371
f 459 638 217
f 217 638 83
f 83 659 217
f 136 638 472
f 459 472 638
f 638 629 83
f 291 482 659
f 104 659 83
f 624 218 371
f 643 136 218
f 168 218 624
f 168 643 218
f 565 643 168
f 643 638 136
f 643 629 638
f 565 629 643
f 629 104 83
f 96 104 629
f 96 629 565
f 565 576 96
f 104 96 487
f 625 466 585
f 457 16 625
f 625 585 457
f 357 466 625
f 185 357 625
f 185 625 28
f 95 291 659
f 608 16 291
f 95 608 291
f 457 384 16
f 497 16 608
f 497 28 625
f 185 28 107
f 628 28 497
f 107 28 612
f 612 28 628
f 487 95 104
f 266 608 95
f 266 95 487
f 230 266 487
f 625 16 497
f 497 608 266
f 628 497 266
f 628 266 230
f 459 217 303
f 303 528 641
f 659 528 217
f 303 217 528
f 659 482 528
f 528 482 641
f 104 95 659
f 648 75 154
f 7 530 75
f 586 470 351
f 586 534 470
f 366 537 418
f 418 351 366
f 537 366 163
f 163 624 537
f 423 163 366
f 351 470 510
f 510 366 351
f 510 470 145
f 366 510 423
f 552 510 145
f 470 534 182
f 470 182 145
f 644 182 534
f 441 552 145
f 182 441 145
f 182 344 107
f 107 441 182
f 168 624 163
f 576 168 163
f 168 576 565
f 163 423 576
f 510 552 423
f 423 488 576
f 488 423 552
f 552 10 488
f 10 121 488
f 10 268 121
f 268 96 121
f 121 96 576
f 487 96 268
f 576 488 121
f 612 105 441
f 105 612 230
f 10 552 441
f 105 10 441
f 441 107 612
f 105 230 268
f 612 628 230
f 268 230 487
f 105 268 10
f 382 319 263
f 559 642 170
f 94 170 508
f 598 170 94
f 559 170 598
f 94 559 598
f 559 97 642
f 94 382 458
f 464 559 458
f 426 458 382
f 401 426 382
f 464 97 559
f 426 464 458
f 81 97 464
f 426 81 464
f 416 559 94
f 458 416 94
f 458 559 416
f 258 573 382
f 401 382 573
f 254 573 258
f 303 254 258
f 401 573 254
f 303 75 254
f 254 75 401
f 234 356 530
f 356 234 97
f 156 426 401
f 530 156 401
f 356 97 81
f 156 81 426
f 156 530 81
f 356 81 530
f 401 75 530
f 602 89 232
f 2 602 232
f 543 653 310
f 166 310 653
f 2 588 602
f 543 588 572
f 2 572 588
f 572 653 543
f 657 2 232
f 657 232 97
f 535 653 572
f 572 2 535
f 166 653 535
f 535 7 166
f 535 2 579
f 535 579 7
f 579 2 657
f 657 7 579
f 657 234 7
f 234 530 7
f 234 657 97