o convex_0
v 0.021871 0.029234 -0.003707
v 0.039652 -0.008170 -0.005552
v 0.038426 -0.007555 -0.007389
v 0.040266 0.007771 -0.020872
v 0.021871 0.013285 -0.030073
v 0.021871 0.015127 0.013462
v 0.040266 0.003484 0.004871
v 0.021871 0.007164 -0.011058
v 0.022485 0.024939 -0.023327
v 0.028616 0.024324 -0.000643
v 0.039038 -0.006328 0.005489
v 0.027392 0.005326 -0.026391
v 0.024326 0.024324 0.008549
v 0.027392 0.026162 -0.011676
v 0.040266 0.010228 -0.009221
v 0.040266 -0.005102 -0.014740
v 0.040266 -0.000196 0.008553
v 0.025552 0.005326 0.003030
v 0.021871 0.007164 -0.022095
v 0.035362 -0.005713 -0.000643
v 0.022485 0.017580 -0.030686
v 0.035974 0.004707 -0.024554
v 0.022485 0.020648 0.012848
v 0.040266 0.010228 -0.017804
v 0.040266 -0.005102 0.007939
v 0.026778 0.021871 -0.022709
v 0.021871 0.013285 0.012235
v 0.040266 0.007160 -0.000030
v 0.021871 0.028003 -0.015967
v 0.026166 0.024324 0.006103
v 0.035974 -0.005713 -0.010449
v 0.021871 0.027388 0.004875
v 0.029230 0.006552 -0.027618
v 0.026778 0.025550 -0.015967
v 0.025552 0.027388 -0.001257
v 0.040266 0.002873 -0.020872
v 0.023713 0.020648 -0.027618
v 0.028616 0.024939 -0.004325
v 0.030457 0.010839 -0.027618
v 0.035974 -0.005102 0.003034
v 0.024938 0.005326 -0.023940
v 0.040266 -0.008170 -0.000030
v 0.037812 -0.005713 -0.012899
v 0.023713 0.028619 -0.010449
v 0.035974 -0.006328 -0.006775
v 0.021871 0.019421 -0.029459
v 0.040266 0.008998 -0.003712
f 28 15 47 
f 1 5 6 
f 6 5 8 
f 7 4 15 
f 2 3 16 
f 4 7 16 
f 16 7 17 
f 8 5 19 
f 18 8 20 
f 6 17 23 
f 17 13 23 
f 15 4 24 
f 17 6 25 
f 16 17 25 
f 24 4 26 
f 6 8 27 
f 8 18 27 
f 11 25 27 
f 25 6 27 
f 7 15 28 
f 5 1 29 
f 13 17 30 
f 17 7 30 
f 7 28 30 
f 28 10 30 
f 1 6 32 
f 6 23 32 
f 23 13 32 
f 13 30 32 
f 12 5 33 
f 16 12 33 
f 5 21 33 
f 22 16 33 
f 14 24 34 
f 26 9 34 
f 24 26 34 
f 9 29 34 
f 30 10 35 
f 1 32 35 
f 32 30 35 
f 4 16 36 
f 22 4 36 
f 16 22 36 
f 4 21 37 
f 9 26 37 
f 26 4 37 
f 10 15 38 
f 24 14 38 
f 15 24 38 
f 14 35 38 
f 35 10 38 
f 21 4 39 
f 4 22 39 
f 33 21 39 
f 22 33 39 
f 20 11 40 
f 18 20 40 
f 27 18 40 
f 11 27 40 
f 5 12 41 
f 19 5 41 
f 31 19 41 
f 2 16 42 
f 20 2 42 
f 11 20 42 
f 25 11 42 
f 16 25 42 
f 16 3 43 
f 12 16 43 
f 3 31 43 
f 41 12 43 
f 31 41 43 
f 29 1 44 
f 14 34 44 
f 34 29 44 
f 1 35 44 
f 35 14 44 
f 3 2 45 
f 8 19 45 
f 2 20 45 
f 20 8 45 
f 31 3 45 
f 19 31 45 
f 21 5 46 
f 5 29 46 
f 29 9 46 
f 37 21 46 
f 9 37 46 
f 15 10 47 
f 10 28 47 
o convex_1
v 0.056823 -0.010623 0.027559
v 0.059275 -0.025952 0.017141
v 0.059888 -0.025952 0.017141
v 0.055596 -0.011239 0.002425
v 0.062340 -0.017369 0.023883
v 0.056823 -0.021659 0.039828
v 0.061726 -0.021659 0.040435
v 0.061113 -0.023498 0.008560
v 0.055596 -0.017369 0.004880
v 0.059888 -0.012462 0.014080
v 0.055596 -0.011239 0.030013
v 0.062954 -0.024109 0.030013
v 0.057435 -0.023498 0.009174
v 0.059888 -0.011850 0.024497
v 0.058662 -0.025338 0.030013
v 0.061113 -0.019820 0.041053
v 0.056209 -0.009396 0.009174
v 0.060500 -0.017979 0.007330
v 0.055596 -0.017979 0.030628
v 0.062340 -0.024725 0.017141
v 0.057435 -0.019820 0.041053
v 0.061726 -0.025338 0.030013
v 0.056209 -0.014916 0.002425
v 0.062340 -0.017369 0.027559
v 0.059888 -0.014916 0.034304
v 0.056209 -0.010623 0.003040
v 0.055596 -0.009396 0.020210
v 0.061726 -0.017369 0.015920
v 0.058050 -0.025338 0.019596
v 0.058050 -0.022270 0.040435
v 0.056823 -0.022270 0.038599
v 0.058662 -0.024109 0.008560
f 70 55 79 
f 51 56 58 
f 52 57 61 
f 49 50 62 
f 61 57 64 
f 53 58 66 
f 58 56 66 
f 50 55 67 
f 52 59 67 
f 58 53 68 
f 63 58 68 
f 59 54 69 
f 62 50 69 
f 50 67 69 
f 67 59 69 
f 56 51 70 
f 65 55 70 
f 54 59 71 
f 59 52 71 
f 52 61 71 
f 63 54 71 
f 63 71 72 
f 48 58 72 
f 61 48 72 
f 58 63 72 
f 71 61 72 
f 51 64 73 
f 64 57 73 
f 57 65 73 
f 70 51 73 
f 65 70 73 
f 58 48 74 
f 51 58 74 
f 48 61 74 
f 64 51 74 
f 61 64 74 
f 57 52 75 
f 55 65 75 
f 65 57 75 
f 67 55 75 
f 52 67 75 
f 60 49 76 
f 49 62 76 
f 54 63 77 
f 68 53 77 
f 63 68 77 
f 69 54 77 
f 62 69 77 
f 56 60 78 
f 53 66 78 
f 66 56 78 
f 60 76 78 
f 76 62 78 
f 77 53 78 
f 62 77 78 
f 50 49 79 
f 55 50 79 
f 49 60 79 
f 60 56 79 
f 56 70 79 
o convex_2
v -0.055388 -0.009396 0.020823
v -0.060293 -0.025952 0.017144
v -0.059680 -0.025952 0.017144
v -0.060906 -0.021660 0.041668
v -0.060293 -0.013079 0.014690
v -0.056615 -0.021660 0.037985
v -0.055388 -0.015531 0.002428
v -0.061519 -0.023498 0.009786
v -0.062132 -0.016756 0.027565
v -0.056003 -0.010010 0.003041
v -0.057228 -0.011237 0.030015
v -0.062746 -0.024725 0.029402
v -0.057228 -0.023498 0.010399
v -0.055388 -0.015531 0.033694
v -0.058455 -0.025338 0.029402
v -0.059680 -0.011852 0.025111
v -0.060906 -0.017979 0.008557
v -0.061519 -0.020433 0.041052
v -0.055388 -0.017979 0.007945
v -0.057842 -0.019819 0.041052
v -0.056003 -0.008783 0.009786
v -0.058455 -0.024112 0.008557
v -0.062132 -0.016756 0.023269
v -0.055388 -0.011237 0.030015
v -0.056003 -0.014302 0.001812
v -0.055388 -0.010010 0.003041
v -0.057842 -0.022270 0.040439
v -0.060906 -0.025338 0.030627
v -0.062132 -0.024725 0.016532
f 91 102 108 
f 86 80 93 
f 82 92 94 
f 92 85 94 
f 90 80 95 
f 84 89 96 
f 91 83 97 
f 88 91 97 
f 95 88 97 
f 90 95 97 
f 85 92 98 
f 92 86 98 
f 93 85 98 
f 86 93 98 
f 85 93 99 
f 97 83 99 
f 90 97 99 
f 89 84 100 
f 84 95 100 
f 95 80 100 
f 82 81 101 
f 81 87 101 
f 92 82 101 
f 86 92 101 
f 91 88 102 
f 88 95 102 
f 95 84 102 
f 96 87 102 
f 84 96 102 
f 80 90 103 
f 93 80 103 
f 99 93 103 
f 90 99 103 
f 87 96 104 
f 96 89 104 
f 101 87 104 
f 86 101 104 
f 80 86 105 
f 100 80 105 
f 89 100 105 
f 86 104 105 
f 104 89 105 
f 94 85 106 
f 99 83 106 
f 85 99 106 
f 81 82 107 
f 91 81 107 
f 83 91 107 
f 82 94 107 
f 106 83 107 
f 94 106 107 
f 87 81 108 
f 81 91 108 
f 102 87 108 
o convex_3
v -0.032088 0.014515 -0.020873
v -0.040059 -0.008170 -0.004935
v -0.039445 -0.008170 -0.004935
v -0.032088 0.013903 0.006715
v -0.040059 0.010222 -0.008609
v -0.032088 -0.001424 -0.009834
v -0.037605 0.003482 -0.023326
v -0.040059 -0.003874 0.008557
v -0.034542 -0.003874 0.001809
v -0.040059 0.007157 -0.021487
v -0.032088 0.004097 -0.023326
v -0.032702 0.017583 -0.014743
v -0.032088 0.006542 0.007329
v -0.040059 -0.005102 -0.014743
v -0.040059 0.004097 0.004262
v -0.032702 0.016968 0.001809
v -0.034542 -0.004489 -0.011062
v -0.032702 0.010222 -0.025168
v -0.040059 0.010222 -0.017809
v -0.039445 -0.007555 0.003037
v -0.033314 -0.003874 -0.003707
v -0.040059 -0.000194 0.008557
v -0.033928 0.016968 -0.010451
v -0.040059 0.008995 -0.003707
v -0.036992 -0.003874 0.006104
v -0.037605 -0.005102 -0.014125
v -0.032088 0.017583 -0.006160
v -0.035767 -0.006330 -0.003096
v -0.034542 0.003482 -0.023940
v -0.032702 0.014515 0.006104
v -0.032088 0.011450 0.007943
f 138 130 139 
f 109 112 114 
f 113 110 116 
f 110 113 118 
f 109 114 119 
f 114 112 121 
f 111 110 122 
f 110 118 122 
f 118 115 122 
f 113 116 123 
f 119 114 125 
f 118 109 126 
f 115 118 126 
f 109 119 126 
f 109 118 127 
f 118 113 127 
f 120 109 127 
f 110 111 128 
f 116 110 128 
f 114 121 129 
f 121 117 129 
f 125 114 129 
f 123 116 130 
f 113 124 131 
f 127 113 131 
f 120 127 131 
f 113 123 132 
f 124 113 132 
f 121 116 133 
f 117 121 133 
f 116 128 133 
f 128 117 133 
f 111 122 134 
f 125 111 134 
f 119 125 134 
f 112 109 135 
f 109 120 135 
f 124 112 135 
f 120 131 135 
f 131 124 135 
f 111 125 136 
f 128 111 136 
f 117 128 136 
f 129 117 136 
f 125 129 136 
f 122 115 137 
f 115 126 137 
f 126 119 137 
f 134 122 137 
f 119 134 137 
f 112 124 138 
f 123 130 138 
f 132 123 138 
f 124 132 138 
f 121 112 139 
f 116 121 139 
f 130 116 139 
f 112 138 139 
o convex_4
v -0.022278 0.029234 -0.002482
v -0.032088 0.001028 -0.011675
v -0.032088 0.001643 -0.015355
v -0.021664 0.006547 -0.020872
v -0.021664 0.013295 0.013462
v -0.032088 0.016354 0.004874
v -0.031475 0.013295 -0.024552
v -0.021664 0.020647 -0.028846
v -0.027795 0.024938 -0.015355
v -0.029634 0.004095 0.005487
v -0.029634 0.006547 -0.027619
v -0.021664 0.024938 0.009168
v -0.032088 0.009001 0.008555
v -0.025956 0.004708 0.001198
v -0.027795 0.025553 -0.001256
v -0.032088 0.018806 -0.011061
v -0.021664 0.013905 -0.030686
v -0.021664 0.028005 -0.015969
v -0.022278 0.020034 0.013462
v -0.032088 0.010840 -0.025779
v -0.025343 0.024938 0.006714
v -0.027795 0.004708 -0.025779
v -0.024731 0.022489 -0.024552
v -0.021664 0.006547 -0.014129
v -0.031475 0.001028 -0.006167
v -0.022278 0.018195 -0.030686
v -0.032088 0.004708 0.006101
v -0.032088 0.013295 0.007941
v -0.024731 0.028005 -0.011675
v -0.032088 0.003482 -0.022098
v -0.030248 0.020034 -0.018418
v -0.025956 0.004095 -0.020872
v -0.029021 0.024327 -0.003096
v -0.022278 0.026779 -0.019645
v -0.030860 0.007773 -0.027619
v -0.026571 0.004708 0.004261
v -0.029021 0.024327 -0.011675
v -0.021664 0.028618 0.001198
v -0.021664 0.011456 0.007941
v -0.021664 0.009614 -0.026392
v -0.028408 0.021873 -0.020258
v -0.030248 0.012679 -0.027006
v -0.022278 0.017582 0.014075
v -0.032088 0.017582 -0.016582
f 176 170 183 
f 142 141 145 
f 144 143 147 
f 144 147 151 
f 145 141 152 
f 142 145 155 
f 147 143 156 
f 151 147 157 
f 144 151 158 
f 142 155 159 
f 140 154 160 
f 154 145 160 
f 158 151 160 
f 150 156 161 
f 143 144 163 
f 163 153 164 
f 147 156 165 
f 162 147 165 
f 149 144 166 
f 152 141 166 
f 144 152 166 
f 141 164 166 
f 164 149 166 
f 145 152 167 
f 160 145 167 
f 158 160 167 
f 154 140 168 
f 140 157 168 
f 142 159 169 
f 161 142 169 
f 150 161 169 
f 141 142 171 
f 142 161 171 
f 161 143 171 
f 143 163 171 
f 163 164 171 
f 164 141 171 
f 145 154 172 
f 155 145 172 
f 157 147 173 
f 162 148 173 
f 147 162 173 
f 148 168 173 
f 168 157 173 
f 156 150 174 
f 165 156 174 
f 169 159 174 
f 150 169 174 
f 144 149 175 
f 164 153 175 
f 149 164 175 
f 154 168 176 
f 168 148 176 
f 148 170 176 
f 172 154 176 
f 155 172 176 
f 157 140 177 
f 151 157 177 
f 140 160 177 
f 160 151 177 
f 163 144 178 
f 153 163 178 
f 144 175 178 
f 175 153 178 
f 156 143 179 
f 143 161 179 
f 161 156 179 
f 148 162 180 
f 146 170 180 
f 170 148 180 
f 159 146 181 
f 162 165 181 
f 165 174 181 
f 174 159 181 
f 146 180 181 
f 180 162 181 
f 152 144 182 
f 144 158 182 
f 167 152 182 
f 158 167 182 
f 146 159 183 
f 159 155 183 
f 170 146 183 
f 155 176 183 
o convex_5
v 0.001635 0.058665 0.016519
v -0.004494 0.032913 -0.012282
v -0.002654 0.046400 -0.014740
v 0.009607 0.032913 -0.008606
v -0.002654 0.034141 0.039213
v -0.011853 0.048241 0.004273
v 0.012061 0.047626 0.004273
v 0.007154 0.035367 0.029398
v 0.002248 0.055596 -0.009223
v 0.001635 0.054984 0.030015
v -0.009400 0.032913 -0.009218
v -0.005107 0.054370 0.026945
v -0.005107 0.057439 -0.000632
v -0.007560 0.032913 0.024493
v 0.006541 0.053758 0.023881
v 0.001635 0.043951 0.039213
v 0.007768 0.032913 0.023269
v 0.004701 0.058050 0.001209
v 0.005928 0.050692 -0.011064
v -0.005720 0.051304 -0.011058
v -0.008787 0.047012 0.022041
v 0.001024 0.048241 -0.015352
v -0.005107 0.058050 0.009172
v 0.002861 0.034753 0.039213
v -0.002040 0.043951 0.038601
v -0.009400 0.034753 0.015295
v 0.004088 0.032913 -0.012282
v 0.008994 0.046400 0.021429
v -0.011853 0.047624 0.000592
v 0.012061 0.047626 0.001203
v -0.001427 0.059279 0.003044
v 0.009607 0.034755 0.012236
v -0.006947 0.035367 0.030015
v 0.005928 0.056825 0.012236
v 0.001635 0.032913 0.035531
v -0.002040 0.055596 0.028786
v 0.006541 0.054370 -0.005542
v -0.002654 0.053756 -0.011676
v -0.011853 0.045180 0.004273
v -0.006947 0.053756 0.021429
v 0.004088 0.054984 0.028174
v -0.002654 0.058665 0.015295
v 0.012061 0.045177 0.003656
v 0.008381 0.032913 -0.010447
v -0.006333 0.054370 -0.006154
v -0.002040 0.056825 -0.006765
v -0.000201 0.043951 0.039824
v 0.007154 0.055596 0.001815
v 0.002861 0.050692 -0.014123
v 0.002248 0.059279 0.011018
v 0.006541 0.038433 0.030627
v -0.003267 0.050081 -0.014128
v -0.006947 0.055596 -0.000025
v -0.007560 0.034753 0.027562
v 0.002861 0.058050 -0.002472
v 0.008994 0.034141 0.018365
v -0.003267 0.036596 0.038595
v 0.001024 0.034753 0.040436
v 0.004088 0.058050 0.015301
v 0.001024 0.056825 0.025722
v -0.009400 0.032913 -0.000632
v -0.006947 0.050692 -0.009218
v -0.006333 0.056825 0.006720
f 196 236 246 
f 186 185 194 
f 185 187 194 
f 194 187 197 
f 197 187 200 
f 185 186 205 
f 200 191 207 
f 195 204 208 
f 187 185 210 
f 185 205 210 
f 191 190 211 
f 190 198 211 
f 187 202 213 
f 196 206 214 
f 198 190 217 
f 188 197 218 
f 197 200 218 
f 200 207 218 
f 195 208 219 
f 202 192 220 
f 213 202 220 
f 204 189 222 
f 189 212 222 
f 212 194 222 
f 204 195 223 
f 189 204 223 
f 195 206 223 
f 193 199 224 
f 199 198 224 
f 206 195 225 
f 214 206 225 
f 195 219 225 
f 190 191 226 
f 187 213 226 
f 213 190 226 
f 215 187 226 
f 202 187 227 
f 187 210 227 
f 210 205 227 
f 221 203 228 
f 221 228 229 
f 196 214 229 
f 192 221 229 
f 228 196 229 
f 199 193 230 
f 193 219 230 
f 219 208 230 
f 190 213 231 
f 217 190 231 
f 201 217 231 
f 220 201 231 
f 213 220 231 
f 192 202 232 
f 221 192 232 
f 202 227 232 
f 227 205 232 
f 201 214 233 
f 225 184 233 
f 214 225 233 
f 198 199 234 
f 199 207 234 
f 207 191 234 
f 191 211 234 
f 211 198 234 
f 186 194 235 
f 194 203 235 
f 205 186 235 
f 203 221 235 
f 221 232 235 
f 232 205 235 
f 212 189 236 
f 196 228 236 
f 228 212 236 
f 197 188 237 
f 209 197 237 
f 188 216 237 
f 216 204 237 
f 204 222 237 
f 222 209 237 
f 214 201 238 
f 220 192 238 
f 201 220 238 
f 192 229 238 
f 229 214 238 
f 200 187 239 
f 191 200 239 
f 187 215 239 
f 226 191 239 
f 215 226 239 
f 208 204 240 
f 216 188 240 
f 204 216 240 
f 188 230 240 
f 230 208 240 
f 207 199 241 
f 188 218 241 
f 218 207 241 
f 199 230 241 
f 230 188 241 
f 198 217 242 
f 217 201 242 
f 224 198 242 
f 201 233 242 
f 233 184 242 
f 219 193 243 
f 193 224 243 
f 184 225 243 
f 225 219 243 
f 242 184 243 
f 224 242 243 
f 194 197 244 
f 197 209 244 
f 222 194 244 
f 209 222 244 
f 203 194 245 
f 194 212 245 
f 212 228 245 
f 228 203 245 
f 206 196 246 
f 189 223 246 
f 223 206 246 
f 236 189 246 
o convex_6
v 0.040266 0.009611 -0.017807
v 0.045171 -0.010623 0.004873
v 0.045785 -0.010623 0.004873
v 0.044558 -0.002649 0.012231
v 0.040266 -0.006943 0.006098
v 0.040266 -0.005102 -0.014743
v 0.045785 0.005319 -0.012902
v 0.040266 0.008385 -0.002480
v 0.045785 -0.005102 -0.011678
v 0.045785 0.004705 0.000581
v 0.045785 -0.010008 0.015915
v 0.040881 0.004705 -0.020876
v 0.040266 -0.001423 0.009166
v 0.040266 -0.008170 -0.007385
v 0.042720 0.008999 -0.007997
v 0.045171 -0.008782 -0.006157
v 0.045171 -0.010623 0.014687
v 0.045785 -0.005717 0.015299
v 0.043331 -0.001423 -0.016583
v 0.042106 0.008999 -0.017195
v 0.041494 0.007158 -0.000032
v 0.040266 0.002867 0.005486
v 0.045171 0.004705 -0.014743
v 0.040266 -0.008170 0.002421
f 260 263 270 
f 251 247 252 
f 247 251 254 
f 253 249 255 
f 249 253 256 
f 249 256 257 
f 252 247 258 
f 254 251 259 
f 251 252 260 
f 247 254 261 
f 256 253 261 
f 249 248 262 
f 252 255 262 
f 255 249 262 
f 248 260 262 
f 260 252 262 
f 248 249 263 
f 249 257 263 
f 259 251 263 
f 257 259 263 
f 260 248 263 
f 256 250 264 
f 257 256 264 
f 250 259 264 
f 259 257 264 
f 255 252 265 
f 252 258 265 
f 258 247 266 
f 247 261 266 
f 261 253 266 
f 250 256 267 
f 261 254 267 
f 256 261 267 
f 254 259 268 
f 259 250 268 
f 250 267 268 
f 267 254 268 
f 253 255 269 
f 255 265 269 
f 265 258 269 
f 258 266 269 
f 266 253 269 
f 251 260 270 
f 263 251 270 
o convex_7
v -0.040059 0.009611 -0.017809
v -0.045578 -0.010623 0.005489
v -0.044963 -0.010623 0.005489
v -0.045578 -0.002649 0.012235
v -0.040059 -0.003876 0.009168
v -0.040059 -0.005102 -0.014742
v -0.045578 0.005319 -0.013517
v -0.041286 0.008385 -0.002486
v -0.045578 -0.004490 -0.012288
v -0.040673 0.004093 -0.020876
v -0.045578 0.005932 -0.003092
v -0.040059 -0.008170 0.001810
v -0.044963 -0.010008 0.014685
v -0.040059 0.002867 0.005489
v -0.042512 -0.008782 -0.006158
v -0.043738 0.008385 -0.012288
v -0.045578 -0.008170 -0.007383
v -0.044963 -0.006329 0.015302
v -0.040059 0.009611 -0.006771
v -0.040059 -0.008170 -0.006771
v -0.041899 -0.003264 -0.016580
v -0.041899 0.007772 -0.019034
v -0.044350 0.004705 0.002422
v -0.043124 0.002252 -0.017809
f 292 280 294 
f 271 275 276 
f 272 274 277 
f 272 277 279 
f 271 276 280 
f 277 274 281 
f 276 275 282 
f 272 273 283 
f 274 272 283 
f 273 282 283 
f 282 275 283 
f 275 271 284 
f 273 272 285 
f 277 281 286 
f 281 278 286 
f 272 279 287 
f 285 272 287 
f 276 285 287 
f 274 283 288 
f 283 275 288 
f 275 284 288 
f 284 274 288 
f 284 271 289 
f 278 284 289 
f 271 286 289 
f 286 278 289 
f 282 273 290 
f 276 282 290 
f 273 285 290 
f 285 276 290 
f 280 276 291 
f 287 279 291 
f 276 287 291 
f 271 280 292 
f 286 271 292 
f 277 286 292 
f 281 274 293 
f 278 281 293 
f 274 284 293 
f 284 278 293 
f 279 277 294 
f 291 279 294 
f 280 291 294 
f 277 292 294 
o convex_8
v -0.014917 -0.067646 -0.011675
v -0.007561 -0.065194 0.034915
v -0.008175 -0.064581 0.035530
v -0.019824 -0.068872 0.025720
v -0.015531 -0.059677 -0.006158
v -0.008175 -0.068259 -0.007382
v -0.008789 -0.059677 -0.004314
v -0.008175 -0.068872 0.033691
v -0.017983 -0.065194 0.031237
v -0.013693 -0.059677 0.008559
v -0.012468 -0.069486 -0.007382
v -0.020437 -0.065806 0.023267
v -0.011240 -0.062743 -0.011675
v -0.016758 -0.067033 -0.007997
v -0.008175 -0.063356 0.033691
v -0.014305 -0.067646 0.035530
v -0.009402 -0.069486 0.020813
v -0.014917 -0.064581 0.034915
v -0.015531 -0.059677 0.005496
v -0.017371 -0.069486 0.021428
v -0.015531 -0.068872 -0.007382
v -0.008789 -0.059677 0.003652
v -0.008175 -0.061517 -0.000636
v -0.007561 -0.068259 0.017135
v -0.013082 -0.059677 -0.009836
v -0.016758 -0.063969 -0.007382
v -0.019824 -0.068259 0.016520
v -0.010015 -0.067646 -0.011675
v -0.017983 -0.068872 0.030628
v -0.014917 -0.065194 -0.012290
v -0.010629 -0.063356 0.034306
v -0.010015 -0.069486 -0.005543
v -0.008175 -0.065806 -0.007997
v -0.007561 -0.063969 0.033076
f 318 317 328 
f 296 297 302 
f 301 299 304 
f 298 303 306 
f 297 296 309 
f 302 297 310 
f 310 297 312 
f 303 310 312 
f 304 299 313 
f 299 306 313 
f 306 303 313 
f 303 312 313 
f 312 304 313 
f 311 302 314 
f 305 311 314 
f 295 305 315 
f 308 295 315 
f 314 298 315 
f 305 314 315 
f 301 304 316 
f 304 309 316 
f 301 316 317 
f 296 302 318 
f 302 311 318 
f 299 301 319 
f 301 307 319 
f 306 299 320 
f 298 306 321 
f 308 315 321 
f 315 298 321 
f 306 320 321 
f 320 308 321 
f 305 295 322 
f 303 298 323 
f 302 310 323 
f 310 303 323 
f 298 314 323 
f 314 302 323 
f 295 308 324 
f 299 319 324 
f 319 307 324 
f 320 299 324 
f 308 320 324 
f 322 295 324 
f 307 322 324 
f 297 309 325 
f 309 304 325 
f 304 312 325 
f 312 297 325 
f 311 305 326 
f 318 311 326 
f 300 318 326 
f 322 300 326 
f 305 322 326 
f 307 301 327 
f 301 317 327 
f 318 300 327 
f 317 318 327 
f 300 322 327 
f 322 307 327 
f 309 296 328 
f 316 309 328 
f 317 316 328 
f 296 318 328 
o convex_9
v 0.007155 -0.067033 0.029398
v 0.020645 -0.066420 0.025106
v 0.020645 -0.067646 0.025106
v 0.012062 -0.065194 -0.012904
v 0.012062 -0.059677 0.008559
v 0.008997 -0.068872 -0.007997
v 0.008383 -0.059677 -0.002480
v 0.015738 -0.059677 -0.004924
v 0.008997 -0.063356 0.034306
v 0.016352 -0.067646 -0.009221
v 0.014513 -0.068872 0.033691
v 0.017578 -0.069486 0.017135
v 0.017578 -0.064581 0.030628
v 0.008383 -0.068872 0.033691
v 0.012675 -0.069486 -0.007382
v 0.013287 -0.059677 -0.009836
v 0.008383 -0.065194 -0.008612
v 0.015738 -0.059677 0.004266
v 0.007769 -0.063356 0.033076
v 0.016965 -0.064581 -0.006773
v 0.009609 -0.069486 0.021428
v 0.014513 -0.065806 0.035530
v 0.011449 -0.063356 0.033691
v 0.020031 -0.068872 0.022042
v 0.010835 -0.059677 -0.009221
v 0.008383 -0.067033 0.036149
v 0.015738 -0.064581 -0.011060
v 0.018192 -0.068259 0.031237
v 0.013900 -0.067646 -0.012290
v 0.015738 -0.068872 -0.006158
v 0.008383 -0.068259 -0.007997
v 0.014513 -0.059677 0.007944
v 0.007155 -0.064581 0.030628
v 0.008383 -0.059677 0.002427
v 0.010835 -0.067646 -0.012290
v 0.007155 -0.067646 0.033076
f 347 361 364 
f 335 333 336 
f 335 336 344 
f 330 336 346 
f 336 333 346 
f 341 330 346 
f 337 333 347 
f 330 331 348 
f 336 330 348 
f 331 338 348 
f 340 339 349 
f 342 334 349 
f 339 342 349 
f 343 340 349 
f 334 343 349 
f 333 337 351 
f 350 341 351 
f 337 350 351 
f 338 331 352 
f 339 340 352 
f 344 332 353 
f 335 344 353 
f 332 345 353 
f 345 335 353 
f 342 339 354 
f 337 347 354 
f 339 350 354 
f 350 337 354 
f 332 344 355 
f 344 336 355 
f 336 348 355 
f 348 338 355 
f 331 330 356 
f 330 341 356 
f 350 339 356 
f 341 350 356 
f 352 331 356 
f 339 352 356 
f 332 355 357 
f 355 338 357 
f 340 343 358 
f 338 352 358 
f 352 340 358 
f 343 357 358 
f 357 338 358 
f 329 345 359 
f 346 333 360 
f 341 346 360 
f 333 351 360 
f 351 341 360 
f 345 329 361 
f 335 345 361 
f 333 335 362 
f 347 333 362 
f 335 361 362 
f 361 347 362 
f 343 334 363 
f 345 332 363 
f 332 357 363 
f 357 343 363 
f 334 359 363 
f 359 345 363 
f 334 342 364 
f 342 354 364 
f 354 347 364 
f 359 334 364 
f 329 359 364 
f 361 329 364 
o convex_10
v -0.014918 -0.000807 -0.032518
v 0.021871 0.016354 0.015295
v 0.021871 0.014513 0.015295
v -0.014304 0.009607 0.030011
v -0.021664 0.029226 -0.011058
v 0.020030 0.018807 -0.032518
v 0.014512 -0.011845 0.005487
v -0.003267 -0.011845 0.032468
v 0.001020 0.029226 0.019588
v 0.008380 -0.011845 -0.023317
v -0.014918 -0.011845 0.002415
v 0.021871 0.029234 -0.010444
v -0.021664 0.018192 -0.031289
v 0.011448 0.010222 0.032461
v -0.021664 0.020030 0.014073
v 0.021258 0.003483 -0.023938
v 0.013898 0.005936 -0.036811
v -0.011850 0.028003 -0.024546
v 0.008993 -0.011845 0.026946
v -0.021664 0.004098 -0.022095
v -0.011850 -0.011845 -0.019638
v -0.018596 0.005936 0.020817
v -0.013691 0.015739 -0.035589
v 0.021871 0.026777 0.006708
v -0.010013 0.012060 0.032468
v 0.012057 0.029226 -0.022095
v -0.021664 0.026162 0.007937
v -0.010013 -0.011845 0.025110
v -0.014918 0.006551 -0.036818
v 0.011448 -0.003260 -0.032518
v 0.018189 0.005325 0.022039
v 0.013284 -0.011845 -0.015966
v 0.021871 0.014513 -0.031289
v -0.021664 0.012060 0.014073
v -0.011236 -0.003260 -0.032525
v 0.010834 0.015739 0.029397
v 0.008380 0.023709 -0.030067
v 0.001634 -0.011845 0.033076
v -0.013691 0.016966 0.026332
v 0.013898 0.015739 -0.035582
v 0.021871 0.004710 -0.017188
v 0.018189 0.002872 -0.031910
v 0.014512 0.005325 0.029397
v -0.019823 0.004098 -0.030067
v -0.006945 0.007778 0.033697
v 0.021871 0.024324 -0.024552
v -0.021664 0.029226 -0.001864
v -0.017982 0.021256 -0.031289
v 0.015735 0.013286 0.027561
v 0.021871 0.011449 0.011002
v -0.014918 -0.011845 -0.007994
v -0.014304 0.005936 0.030011
v -0.008172 -0.011845 -0.023317
v 0.008380 0.011449 0.033076
v -0.021664 0.025550 -0.022709
v -0.000812 0.029226 0.019588
v 0.015125 -0.011845 -0.001264
v 0.021871 0.029234 -0.002479
v -0.014304 0.029226 -0.020867
v 0.015125 -0.003871 -0.028846
v -0.021050 0.002257 -0.015966
v 0.011448 -0.011845 0.020810
v -0.013077 0.003483 -0.036197
v 0.012671 0.018192 0.025718
f 400 413 428 
f 371 372 374 
f 374 372 375 
f 366 367 376 
f 369 377 379 
f 372 371 383 
f 379 377 384 
f 374 375 385 
f 368 379 386 
f 366 376 388 
f 369 379 391 
f 375 372 392 
f 386 375 392 
f 377 387 393 
f 371 374 396 
f 376 367 397 
f 381 370 397 
f 379 384 398 
f 375 386 398 
f 386 379 398 
f 394 374 399 
f 390 370 401 
f 382 390 401 
f 372 383 402 
f 379 368 403 
f 368 389 403 
f 391 379 403 
f 370 381 404 
f 381 393 404 
f 393 387 404 
f 401 370 404 
f 387 401 404 
f 397 367 405 
f 380 397 405 
f 394 381 406 
f 397 380 406 
f 381 397 406 
f 383 395 407 
f 402 383 407 
f 378 402 407 
f 384 377 408 
f 365 385 408 
f 393 365 408 
f 377 393 408 
f 372 402 409 
f 390 376 410 
f 370 390 410 
f 376 397 410 
f 397 370 410 
f 376 369 411 
f 369 391 411 
f 387 377 412 
f 401 387 412 
f 382 401 412 
f 367 366 413 
f 366 388 413 
f 395 367 413 
f 400 378 413 
f 378 407 413 
f 407 395 413 
f 367 395 414 
f 395 371 414 
f 405 367 414 
f 385 375 415 
f 384 408 415 
f 408 385 415 
f 368 386 416 
f 389 368 416 
f 392 372 416 
f 386 392 416 
f 372 409 416 
f 409 389 416 
f 385 365 417 
f 374 385 417 
f 365 399 417 
f 399 374 417 
f 378 400 418 
f 400 373 418 
f 402 378 418 
f 389 409 418 
f 409 402 418 
f 377 369 419 
f 412 377 419 
f 382 412 419 
f 403 389 420 
f 391 403 420 
f 411 391 420 
f 418 373 420 
f 389 418 420 
f 371 396 421 
f 396 380 421 
f 380 405 421 
f 414 371 421 
f 405 414 421 
f 388 376 422 
f 373 388 422 
f 376 411 422 
f 420 373 422 
f 411 420 422 
f 369 376 423 
f 376 390 423 
f 390 382 423 
f 419 369 423 
f 382 419 423 
f 374 394 424 
f 396 374 424 
f 380 396 424 
f 394 406 424 
f 406 380 424 
f 375 398 425 
f 398 384 425 
f 415 375 425 
f 384 415 425 
f 383 371 426 
f 371 395 426 
f 395 383 426 
f 365 393 427 
f 393 381 427 
f 381 394 427 
f 399 365 427 
f 394 399 427 
f 388 373 428 
f 373 400 428 
f 413 388 428 
o convex_11
v -0.011237 0.032913 -0.003086
v 0.017579 0.029847 -0.004927
v 0.017579 0.029234 -0.004927
v 0.001636 0.032913 0.034918
v -0.016143 0.029234 0.001819
v 0.008380 0.032913 -0.012896
v -0.012466 0.029234 -0.020870
v 0.001021 0.029847 0.032465
v 0.012057 0.029234 -0.020870
v -0.006331 0.032913 0.027560
v 0.006539 0.032913 0.026949
v -0.006331 0.032913 -0.013507
v -0.016143 0.031073 -0.007991
v 0.015126 0.031686 -0.008608
v 0.000408 0.029234 0.022044
v -0.002654 0.030461 0.033082
v 0.016351 0.029234 0.001207
v 0.012057 0.029847 -0.020870
v 0.002861 0.031073 0.033694
v -0.012466 0.029847 -0.020870
v -0.014919 0.031686 -0.000634
v -0.016756 0.029234 -0.014125
v 0.010833 0.032913 -0.001246
v 0.015739 0.029847 -0.017189
v -0.013690 0.031686 -0.012896
v 0.015126 0.031686 -0.001857
v -0.017372 0.029847 -0.002474
v -0.002041 0.029847 0.031242
v -0.002654 0.032913 0.034306
v 0.005314 0.032299 -0.015348
f 446 448 458 
f 429 432 434 
f 431 433 435 
f 431 435 437 
f 432 429 438 
f 434 432 439 
f 429 434 440 
f 433 431 443 
f 438 433 444 
f 431 430 445 
f 430 439 445 
f 443 431 445 
f 436 443 445 
f 437 435 446 
f 439 432 447 
f 432 444 447 
f 444 436 447 
f 445 439 447 
f 436 445 447 
f 446 435 448 
f 438 429 449 
f 429 441 449 
f 435 433 450 
f 448 435 450 
f 434 439 451 
f 442 434 451 
f 430 431 452 
f 431 437 452 
f 442 430 452 
f 434 442 452 
f 437 446 452 
f 446 434 452 
f 429 440 453 
f 441 429 453 
f 440 448 453 
f 450 441 453 
f 448 450 453 
f 439 430 454 
f 430 442 454 
f 451 439 454 
f 442 451 454 
f 433 438 455 
f 438 449 455 
f 449 441 455 
f 450 433 455 
f 441 450 455 
f 433 443 456 
f 443 436 456 
f 436 444 456 
f 444 433 456 
f 432 438 457 
f 444 432 457 
f 438 444 457 
f 440 434 458 
f 434 446 458 
f 448 440 458 
o convex_12
v 0.045785 0.005320 -0.006157
v 0.048237 -0.017981 0.027559
v 0.048851 -0.017981 0.027559
v 0.046398 -0.006330 -0.009837
v 0.048851 0.000414 -0.004317
v 0.045785 -0.010007 0.022038
v 0.048851 -0.008166 0.024492
v 0.048851 -0.011845 -0.000027
v 0.045785 -0.010007 -0.001250
v 0.046398 0.004093 0.000586
v 0.045785 0.003479 -0.012291
v 0.047624 -0.011845 0.029403
v 0.045785 -0.013075 0.022656
v 0.048851 -0.006942 -0.005539
v 0.048851 -0.000200 0.004880
v 0.045785 0.002252 0.004267
v 0.048237 -0.017981 0.032470
v 0.048237 -0.013075 0.002426
v 0.046398 0.003479 -0.012291
v 0.048851 -0.013075 0.031244
v 0.046398 0.005320 -0.009837
v 0.045785 -0.013075 0.014681
v 0.045785 -0.007553 -0.007997
f 476 467 481 
f 461 463 465 
f 463 461 466 
f 464 459 467 
f 467 459 469 
f 464 467 471 
f 470 464 471 
f 466 462 472 
f 463 466 472 
f 465 463 473 
f 468 465 473 
f 459 464 474 
f 468 459 474 
f 465 468 474 
f 464 470 474 
f 470 465 474 
f 460 461 475 
f 471 460 475 
f 470 471 475 
f 461 460 476 
f 466 461 476 
f 460 467 476 
f 462 469 477 
f 472 462 477 
f 463 472 477 
f 461 465 478 
f 465 470 478 
f 475 461 478 
f 470 475 478 
f 459 468 479 
f 469 459 479 
f 473 463 479 
f 468 473 479 
f 463 477 479 
f 477 469 479 
f 467 460 480 
f 460 471 480 
f 471 467 480 
f 462 466 481 
f 469 462 481 
f 467 469 481 
f 466 476 481 
o convex_13
v 0.055596 -0.008170 0.014080
v 0.050691 -0.021046 0.030017
v 0.051917 -0.021046 0.030017
v 0.051917 -0.014912 -0.000025
v 0.048851 -0.000812 0.004265
v 0.055596 -0.014912 0.033081
v 0.055596 -0.016752 0.003039
v 0.048851 -0.017978 0.034916
v 0.048851 -0.013688 0.000588
v 0.049464 -0.000812 -0.003090
v 0.051304 -0.006944 0.023270
v 0.055596 -0.010624 0.001201
v 0.048851 -0.011848 0.030630
v 0.053143 -0.020432 0.035533
v 0.048851 -0.007558 -0.004320
v 0.051304 -0.016752 0.003039
v 0.055596 -0.011234 0.029404
v 0.050691 -0.018592 0.037989
v 0.048851 -0.019818 0.030017
v 0.055596 -0.017366 0.031243
v 0.053143 -0.011848 -0.001864
v 0.051304 -0.003266 0.010399
v 0.055596 -0.017366 0.004265
v 0.048851 -0.006944 0.022657
v 0.049464 -0.020432 0.036759
v 0.055596 -0.008784 0.004878
f 493 491 507 
f 482 487 488 
f 489 486 490 
f 482 488 493 
f 486 489 494 
f 485 490 496 
f 490 486 496 
f 486 491 496 
f 485 488 497 
f 490 485 497 
f 487 482 498 
f 492 494 498 
f 498 494 499 
f 494 489 499 
f 495 487 499 
f 487 498 499 
f 489 490 500 
f 497 483 500 
f 490 497 500 
f 488 487 501 
f 487 495 501 
f 488 485 502 
f 493 488 502 
f 491 493 502 
f 485 496 502 
f 496 491 502 
f 482 491 503 
f 491 486 503 
f 486 492 503 
f 498 482 503 
f 492 498 503 
f 484 483 504 
f 495 484 504 
f 483 497 504 
f 497 488 504 
f 488 501 504 
f 501 495 504 
f 492 486 505 
f 486 494 505 
f 494 492 505 
f 483 484 506 
f 484 495 506 
f 499 489 506 
f 495 499 506 
f 489 500 506 
f 500 483 506 
f 491 482 507 
f 482 493 507 
o convex_14
v -0.045579 -0.003878 0.014070
v -0.055388 -0.017367 0.004265
v -0.052935 -0.017367 0.004265
v -0.046192 0.004705 -0.012288
v -0.055388 -0.008782 0.020201
v -0.046192 -0.013688 0.020817
v -0.045579 -0.006943 -0.009222
v -0.055388 -0.010618 0.001202
v -0.055388 -0.016139 0.020817
v -0.045579 0.004092 0.001202
v -0.048645 -0.006328 0.020817
v -0.049258 -0.014913 0.002427
v -0.046192 -0.003878 -0.011672
v -0.055388 -0.008169 0.006102
v -0.046192 0.005320 -0.003704
v -0.045579 -0.011234 0.006714
v -0.052935 -0.006943 0.020817
v -0.054774 -0.013075 -0.000026
v -0.047418 -0.014913 0.019589
v -0.045579 -0.011234 0.020817
v -0.045579 0.004705 -0.012288
v -0.052935 -0.017367 0.009780
v -0.052321 -0.014913 -0.000026
v -0.054774 -0.006943 0.012845
v -0.046192 0.005320 -0.011672
f 521 531 532 
f 509 512 515 
f 512 509 516 
f 508 514 517 
f 516 513 518 
f 508 517 518 
f 515 512 521 
f 514 508 523 
f 513 519 523 
f 519 514 523 
f 512 516 524 
f 516 518 524 
f 518 517 524 
f 522 512 524 
f 517 522 524 
f 515 511 525 
f 509 515 525 
f 511 520 525 
f 513 516 526 
f 510 519 526 
f 519 513 526 
f 508 518 527 
f 518 513 527 
f 523 508 527 
f 513 523 527 
f 517 514 528 
f 514 520 528 
f 520 511 528 
f 522 517 528 
f 509 510 529 
f 516 509 529 
f 510 526 529 
f 526 516 529 
f 510 509 530 
f 519 510 530 
f 514 519 530 
f 520 514 530 
f 509 525 530 
f 525 520 530 
f 521 512 531 
f 512 522 531 
f 531 522 532 
f 511 515 532 
f 515 521 532 
f 528 511 532 
f 522 528 532 
o convex_15
v -0.047419 -0.009397 0.025726
v -0.051708 -0.021046 0.030016
v -0.050484 -0.021046 0.030016
v -0.050484 -0.018592 0.037989
v -0.055387 -0.009397 0.020820
v -0.046191 -0.013688 0.020820
v -0.055387 -0.016139 0.020820
v -0.055387 -0.012464 0.030630
v -0.049258 -0.006330 0.020820
v -0.053547 -0.019818 0.034922
v -0.049258 -0.020431 0.036149
v -0.051708 -0.007558 0.024501
v -0.046191 -0.010624 0.024501
v -0.048645 -0.011849 0.030630
v -0.055387 -0.016139 0.032468
v -0.052321 -0.018592 0.037989
v -0.046191 -0.008785 0.020820
v -0.048032 -0.014913 0.020820
f 539 538 550 
f 535 534 539 
f 537 538 539 
f 537 539 540 
f 538 537 541 
f 539 534 542 
f 534 535 543 
f 535 538 543 
f 542 534 543 
f 537 540 544 
f 541 537 544 
f 533 541 544 
f 543 538 545 
f 543 545 546 
f 536 543 546 
f 533 544 546 
f 544 540 546 
f 545 533 546 
f 540 539 547 
f 539 542 547 
f 547 542 548 
f 543 536 548 
f 542 543 548 
f 536 546 548 
f 546 540 548 
f 540 547 548 
f 538 541 549 
f 541 533 549 
f 533 545 549 
f 545 538 549 
f 538 535 550 
f 535 539 550 
o convex_16
v 0.010834 -0.026569 -0.023941
v -0.010627 -0.029631 -0.024555
v -0.007560 -0.040051 -0.027620
v -0.006946 -0.027795 -0.028234
v 0.007154 -0.040666 -0.025782
v 0.006540 -0.027795 -0.028234
v -0.005106 -0.019820 -0.023941
v -0.008171 -0.033922 -0.023941
v 0.007154 -0.040666 -0.027620
v 0.004702 -0.020435 -0.025168
v -0.000814 -0.041892 -0.025168
v 0.007767 -0.033922 -0.023941
v -0.005106 -0.039441 -0.028234
v 0.009607 -0.026569 -0.026393
v -0.010627 -0.026569 -0.025168
v 0.000406 -0.042507 -0.027620
v -0.006946 -0.040666 -0.025782
v 0.005314 -0.019820 -0.023941
v -0.004495 -0.020435 -0.025168
v 0.005314 -0.038215 -0.028234
f 566 563 570 
f 551 557 558 
f 557 552 558 
f 551 555 559 
f 556 554 560 
f 555 551 562 
f 551 558 562 
f 561 555 562 
f 558 561 562 
f 553 554 563 
f 554 556 563 
f 551 559 564 
f 559 556 564 
f 556 560 564 
f 553 552 565 
f 554 553 565 
f 552 557 565 
f 559 555 566 
f 555 561 566 
f 553 563 566 
f 552 553 567 
f 558 552 567 
f 561 558 567 
f 566 561 567 
f 553 566 567 
f 557 551 568 
f 560 557 568 
f 551 564 568 
f 564 560 568 
f 560 554 569 
f 557 560 569 
f 554 565 569 
f 565 557 569 
f 556 559 570 
f 563 556 570 
f 559 566 570 
o convex_17
v -0.007562 -0.042509 0.019593
v -0.013692 -0.059676 -0.009225
v -0.011240 -0.059676 -0.009225
v -0.012464 -0.042509 -0.002478
v -0.015531 -0.046189 0.020207
v -0.011853 -0.059676 0.008556
v -0.005108 -0.050481 -0.000026
v -0.017985 -0.051093 -0.002478
v -0.017371 -0.042509 0.010394
v -0.015531 -0.059676 0.004266
v -0.014917 -0.047414 -0.008612
v -0.006335 -0.054769 0.006102
v -0.006335 -0.042509 0.003653
v -0.010015 -0.048641 0.020207
v -0.010629 -0.048641 -0.007998
v -0.008176 -0.059676 -0.001254
v -0.005108 -0.049868 0.009781
v -0.017371 -0.045576 -0.002478
v -0.014917 -0.042509 0.020207
v -0.017985 -0.050481 0.003039
v -0.005722 -0.042509 0.014073
v -0.006335 -0.050481 -0.003705
v -0.013692 -0.059676 0.008556
v -0.015531 -0.059676 -0.005543
v -0.016757 -0.051093 -0.007384
v -0.008787 -0.059676 0.004266
v -0.006335 -0.054769 -0.002478
v -0.015531 -0.042509 -0.000026
v -0.009401 -0.042509 -0.001254
v -0.006335 -0.052929 0.009781
v -0.013078 -0.048641 0.020207
v -0.008176 -0.045576 0.020207
v -0.006335 -0.046189 -0.001254
v -0.016143 -0.046189 0.018366
v -0.012464 -0.048641 -0.009225
v -0.005108 -0.046803 0.002425
v -0.017985 -0.047414 -0.003092
v -0.005108 -0.052316 0.004880
f 586 597 608 
f 572 573 576 
f 571 574 579 
f 572 576 580 
f 574 571 583 
f 576 573 586 
f 571 579 589 
f 575 584 589 
f 578 580 590 
f 583 571 591 
f 571 587 591 
f 573 585 592 
f 580 576 593 
f 575 580 593 
f 576 584 593 
f 572 580 594 
f 580 578 594 
f 581 572 595 
f 572 594 595 
f 594 578 595 
f 576 586 596 
f 586 582 596 
f 586 573 597 
f 592 577 597 
f 573 592 597 
f 579 574 598 
f 574 581 598 
f 588 579 598 
f 581 588 598 
f 574 583 599 
f 584 576 600 
f 582 587 600 
f 576 596 600 
f 596 582 600 
f 584 575 601 
f 575 593 601 
f 593 584 601 
f 587 571 602 
f 571 589 602 
f 589 584 602 
f 584 600 602 
f 600 587 602 
f 577 592 603 
f 592 585 603 
f 599 583 603 
f 585 599 603 
f 580 575 604 
f 589 579 604 
f 575 589 604 
f 579 590 604 
f 590 580 604 
f 573 572 605 
f 572 581 605 
f 581 574 605 
f 585 573 605 
f 574 599 605 
f 599 585 605 
f 587 577 606 
f 583 591 606 
f 591 587 606 
f 577 603 606 
f 603 583 606 
f 579 588 607 
f 588 581 607 
f 590 579 607 
f 578 590 607 
f 581 595 607 
f 595 578 607 
f 582 586 608 
f 577 587 608 
f 587 582 608 
f 597 577 608 
o convex_18
v -0.013690 -0.046186 0.022046
v 0.015126 -0.042507 0.020820
v 0.015126 -0.046186 0.020820
v 0.005315 -0.043122 0.023273
v -0.014919 -0.042507 0.020207
v -0.013078 -0.048026 0.020207
v 0.012671 -0.046186 0.022659
v 0.013285 -0.048026 0.020207
v -0.013078 -0.042507 0.022659
v -0.011237 -0.048026 0.021434
v -0.002043 -0.044961 0.023273
v 0.015126 -0.042507 0.020207
v 0.013285 -0.042507 0.022659
f 617 612 621 
f 609 613 614 
f 614 613 616 
f 611 615 616 
f 613 609 617 
f 610 613 617 
f 609 614 618 
f 614 616 618 
f 616 615 618 
f 615 612 619 
f 612 617 619 
f 617 609 619 
f 609 618 619 
f 618 615 619 
f 610 611 620 
f 613 610 620 
f 611 616 620 
f 616 613 620 
f 611 610 621 
f 615 611 621 
f 612 615 621 
f 610 617 621 
o convex_19
v 0.015739 -0.042509 0.018980
v 0.011447 -0.059676 -0.009225
v 0.011447 -0.049868 -0.009225
v 0.005931 -0.042509 0.015301
v 0.012060 -0.059676 0.008556
v 0.017578 -0.046189 -0.003092
v 0.005317 -0.052929 0.001201
v 0.008997 -0.042509 -0.000640
v 0.015739 -0.059676 0.002425
v 0.008997 -0.047414 0.020207
v 0.015739 -0.046189 0.019593
v 0.008383 -0.059676 0.002425
v 0.018192 -0.050481 -0.001254
v 0.005931 -0.048028 -0.001864
v 0.013898 -0.059676 -0.009225
v 0.015125 -0.042509 -0.000640
v 0.005931 -0.052316 0.009781
v 0.015125 -0.047414 -0.008612
v 0.007769 -0.042509 0.020207
v 0.016964 -0.042509 0.012235
v 0.007156 -0.054156 -0.004933
v 0.005931 -0.042509 0.005491
v 0.013898 -0.059676 0.008556
v 0.012673 -0.048641 0.020207
v 0.004703 -0.048028 0.004880
v 0.018192 -0.048641 0.003653
v 0.016964 -0.051703 -0.006771
v 0.015739 -0.059676 -0.004319
v 0.011447 -0.045576 -0.006771
v 0.008383 -0.059676 -0.002478
v 0.005317 -0.049868 0.010394
v 0.016964 -0.042509 0.003653
v 0.015125 -0.042509 0.020207
f 640 645 654 
f 625 622 629 
f 626 623 630 
f 623 626 633 
f 623 624 636 
f 630 623 636 
f 629 622 637 
f 626 631 638 
f 633 626 638 
f 628 633 638 
f 636 624 639 
f 637 627 639 
f 622 625 640 
f 622 632 641 
f 637 622 641 
f 624 623 642 
f 635 624 642 
f 628 635 642 
f 625 629 643 
f 629 635 643 
f 626 630 644 
f 630 632 644 
f 644 632 645 
f 631 626 645 
f 640 631 645 
f 626 644 645 
f 635 628 646 
f 625 643 646 
f 643 635 646 
f 632 630 647 
f 634 627 647 
f 630 634 647 
f 641 632 647 
f 627 634 648 
f 639 627 648 
f 636 639 648 
f 634 630 649 
f 630 636 649 
f 648 634 649 
f 636 648 649 
f 624 635 650 
f 635 629 650 
f 629 637 650 
f 639 624 650 
f 637 639 650 
f 623 633 651 
f 633 628 651 
f 642 623 651 
f 628 642 651 
f 628 638 652 
f 638 631 652 
f 640 625 652 
f 631 640 652 
f 646 628 652 
f 625 646 652 
f 627 637 653 
f 637 641 653 
f 647 627 653 
f 641 647 653 
f 632 622 654 
f 622 640 654 
f 645 632 654 
o convex_20
v 0.000410 -0.035764 -0.015967
v 0.018805 -0.035764 0.007327
v 0.018805 -0.038828 0.007327
v 0.000410 -0.032699 0.027561
v 0.000410 -0.042507 0.022658
v 0.010834 -0.031470 -0.022712
v 0.014511 -0.042507 -0.002478
v 0.013899 -0.031470 0.020204
v 0.015125 -0.042507 0.020204
v 0.000410 -0.031470 -0.023324
v 0.017577 -0.031470 -0.003703
v 0.003477 -0.036377 -0.020258
v 0.003477 -0.031470 0.028178
v 0.005929 -0.042507 0.001812
v 0.017577 -0.040054 -0.001866
v 0.008997 -0.034538 -0.023324
v 0.012671 -0.042507 0.022658
v 0.017577 -0.042507 0.004873
v 0.013899 -0.033924 0.022046
v 0.000410 -0.031470 0.027561
v 0.015739 -0.031470 0.016526
v 0.013287 -0.032699 -0.017809
v 0.018191 -0.036377 -0.002478
v 0.010834 -0.042507 -0.003090
v 0.007157 -0.036377 -0.020875
v 0.001638 -0.036989 -0.015355
v 0.001024 -0.042507 0.023270
v 0.015739 -0.033310 0.018362
v 0.018191 -0.032084 0.004261
v 0.016351 -0.040054 -0.004932
v 0.005317 -0.034538 -0.023941
v 0.000410 -0.042507 0.020816
v 0.012671 -0.039440 0.023270
v 0.018191 -0.040054 0.010393
v 0.018805 -0.033924 0.001200
f 665 683 689 
f 658 655 659 
f 659 661 663 
f 655 658 664 
f 662 660 664 
f 660 662 665 
f 655 664 666 
f 662 664 667 
f 661 659 668 
f 659 663 671 
f 663 661 672 
f 669 657 672 
f 662 667 673 
f 664 658 674 
f 658 667 674 
f 667 664 674 
f 665 662 675 
f 660 665 676 
f 670 660 676 
f 657 669 677 
f 676 665 677 
f 669 676 677 
f 661 668 678 
f 668 666 678 
f 670 661 679 
f 661 678 679 
f 678 666 679 
f 655 666 680 
f 666 668 680 
f 658 659 681 
f 667 658 681 
f 659 671 681 
f 671 667 681 
f 662 673 682 
f 673 663 682 
f 656 675 682 
f 675 662 682 
f 675 656 683 
f 665 675 683 
f 661 670 684 
f 672 661 684 
f 669 672 684 
f 676 669 684 
f 670 676 684 
f 664 660 685 
f 666 664 685 
f 660 670 685 
f 670 679 685 
f 679 666 685 
f 659 655 686 
f 668 659 686 
f 655 680 686 
f 680 668 686 
f 671 663 687 
f 667 671 687 
f 663 673 687 
f 673 667 687 
f 657 656 688 
f 672 657 688 
f 663 672 688 
f 656 682 688 
f 682 663 688 
f 656 657 689 
f 657 677 689 
f 677 665 689 
f 683 656 689 
o convex_21
v -0.014303 -0.011849 0.006714
v 0.017579 -0.030854 0.004878
v 0.017579 -0.031470 0.004878
v 0.003477 -0.020436 0.036763
v -0.017372 -0.031470 0.006108
v 0.008380 -0.011849 -0.022711
v -0.010013 -0.031470 -0.023935
v 0.010833 -0.011849 0.023268
v -0.011237 -0.011849 -0.019645
v 0.010220 -0.031470 -0.023941
v -0.005719 -0.028403 0.031854
v -0.008172 -0.011849 0.028788
v 0.014510 -0.011849 -0.008611
v 0.013898 -0.031470 0.019590
v -0.016756 -0.021660 -0.007993
v -0.011237 -0.019822 0.029400
v 0.001636 -0.031470 0.028788
v 0.016963 -0.021049 0.008550
v 0.016351 -0.021049 -0.009829
v 0.011445 -0.019207 0.028788
v 0.001021 -0.012465 0.034309
v -0.014303 -0.031470 0.018978
v -0.006331 -0.019207 0.035527
v -0.016756 -0.021660 0.009780
v -0.005719 -0.019207 -0.023935
v 0.006539 -0.027176 0.032461
v -0.013690 -0.031470 -0.017191
v 0.016963 -0.031470 -0.006157
v -0.014915 -0.011849 -0.004927
v 0.013286 -0.026565 -0.019645
v -0.008172 -0.011849 -0.022711
v -0.011237 -0.026565 -0.023935
v 0.012670 -0.011849 -0.016579
v 0.014510 -0.011849 0.004878
v 0.005314 -0.011849 0.031854
v 0.015739 -0.028403 0.016524
v -0.017372 -0.031470 -0.004315
v -0.011850 -0.011849 0.019590
v -0.017372 -0.021660 0.004884
v -0.007560 -0.024112 0.033696
v 0.007767 -0.021660 0.034309
v 0.010833 -0.025950 -0.023941
v -0.002654 -0.024723 0.035533
v 0.016963 -0.020436 -0.006157
v -0.015531 -0.028403 0.017136
v 0.006539 -0.016143 0.034309
v -0.013078 -0.019822 0.024492
v -0.014915 -0.024723 -0.014737
v 0.002861 -0.029018 0.032461
v -0.012462 -0.011849 -0.017191
v -0.003882 -0.031470 0.028170
v -0.003266 -0.015529 0.035533
v 0.010220 -0.023498 0.030630
v 0.015739 -0.019822 0.013458
v 0.004089 -0.018596 -0.023941
v -0.011237 -0.022270 0.029400
v -0.003266 -0.018596 0.036763
v 0.013286 -0.031470 -0.018421
v -0.003266 -0.011849 0.033079
v -0.017372 -0.021660 -0.001861
v 0.005314 -0.031470 0.027564
v 0.010833 -0.011849 -0.020257
v 0.009604 -0.017983 0.031854
v -0.010625 -0.017983 0.030012
f 727 736 753 
f 692 694 696 
f 695 690 697 
f 690 695 698 
f 692 696 699 
f 697 690 701 
f 695 697 702 
f 694 692 703 
f 694 703 706 
f 694 706 711 
f 696 694 716 
f 691 692 717 
f 692 699 717 
f 690 698 718 
f 708 717 719 
f 698 695 720 
f 720 714 721 
f 696 716 721 
f 698 720 721 
f 695 702 722 
f 702 708 722 
f 708 719 722 
f 702 697 723 
f 697 701 724 
f 692 691 725 
f 703 692 725 
f 691 707 725 
f 716 694 726 
f 701 690 727 
f 690 713 727 
f 713 690 728 
f 694 713 728 
f 690 718 728 
f 726 694 728 
f 711 700 729 
f 693 715 730 
f 719 699 731 
f 729 700 732 
f 712 729 732 
f 707 691 733 
f 708 702 733 
f 691 717 733 
f 717 708 733 
f 702 723 733 
f 723 707 733 
f 694 711 734 
f 713 694 734 
f 710 693 735 
f 724 710 735 
f 693 730 735 
f 727 713 736 
f 713 734 736 
f 721 716 737 
f 726 704 737 
f 716 726 737 
f 715 693 738 
f 732 700 738 
f 693 732 738 
f 718 698 739 
f 704 718 739 
f 698 721 739 
f 737 704 739 
f 721 737 739 
f 700 711 740 
f 711 706 740 
f 738 700 740 
f 706 738 740 
f 715 703 742 
f 703 725 742 
f 725 709 742 
f 730 715 742 
f 697 709 743 
f 723 697 743 
f 707 723 743 
f 725 707 743 
f 709 725 743 
f 699 696 744 
f 720 695 744 
f 714 720 744 
f 721 714 744 
f 696 721 744 
f 695 731 744 
f 731 699 744 
f 712 705 745 
f 711 729 745 
f 729 712 745 
f 734 711 745 
f 705 736 745 
f 736 734 745 
f 693 710 746 
f 732 693 746 
f 712 732 746 
f 710 741 746 
f 741 712 746 
f 717 699 747 
f 699 719 747 
f 719 717 747 
f 701 712 748 
f 724 701 748 
f 710 724 748 
f 741 710 748 
f 712 741 748 
f 718 704 749 
f 704 726 749 
f 728 718 749 
f 726 728 749 
f 706 703 750 
f 703 715 750 
f 738 706 750 
f 715 738 750 
f 695 722 751 
f 722 719 751 
f 731 695 751 
f 719 731 751 
f 709 697 752 
f 697 724 752 
f 724 735 752 
f 735 730 752 
f 742 709 752 
f 730 742 752 
f 705 712 753 
f 712 701 753 
f 701 727 753 
f 736 705 753 
o convex_22
v -0.016144 -0.042507 0.000588
v 0.000410 -0.031470 0.027561
v -0.001430 -0.031470 0.028178
v -0.010013 -0.031470 -0.023941
v 0.000410 -0.042507 0.020816
v -0.015530 -0.031470 0.017138
v 0.000410 -0.032084 -0.022100
v -0.014305 -0.042507 0.021429
v -0.003882 -0.036989 -0.018421
v -0.018598 -0.033310 0.000588
v -0.006336 -0.042507 0.001200
v -0.018598 -0.039440 0.008547
v -0.008175 -0.034538 -0.023941
v -0.016758 -0.039440 -0.004932
v -0.017370 -0.031470 -0.004932
v -0.013077 -0.033924 0.022658
v -0.000204 -0.042507 0.023270
v -0.000818 -0.036377 -0.015355
v -0.013077 -0.042507 -0.003090
v -0.001430 -0.031470 -0.023941
v -0.012465 -0.042507 0.022658
v -0.012465 -0.032699 -0.019646
v -0.003270 -0.032084 0.028178
v -0.017370 -0.042507 0.011006
v -0.018598 -0.039440 0.001812
v -0.015530 -0.033924 0.018980
v -0.018598 -0.033924 0.006715
v -0.017370 -0.036377 -0.005544
v -0.003270 -0.034538 -0.023324
v -0.015530 -0.040668 -0.005544
v -0.007564 -0.036377 -0.020875
v 0.000410 -0.035150 -0.015967
v -0.017984 -0.031470 0.004261
v -0.013690 -0.039440 0.022658
v -0.013077 -0.031470 0.020816
v -0.010013 -0.035150 -0.021487
v -0.015530 -0.042507 0.018980
f 779 765 790 
f 756 755 757 
f 756 757 759 
f 755 758 760 
f 754 758 761 
f 758 754 764 
f 759 757 768 
f 755 756 770 
f 758 755 770 
f 761 758 770 
f 758 764 771 
f 764 762 771 
f 764 754 772 
f 762 764 772 
f 757 755 773 
f 755 760 773 
f 766 757 773 
f 761 770 774 
f 768 757 775 
f 770 756 776 
f 774 770 776 
f 754 761 777 
f 777 765 778 
f 765 763 778 
f 767 754 778 
f 754 777 778 
f 769 759 779 
f 763 765 780 
f 765 779 780 
f 779 759 780 
f 763 768 781 
f 775 767 781 
f 768 775 781 
f 778 763 781 
f 767 778 781 
f 771 762 782 
f 773 760 782 
f 766 773 782 
f 754 767 783 
f 772 754 783 
f 762 772 784 
f 782 762 784 
f 766 782 784 
f 772 783 784 
f 760 758 785 
f 758 771 785 
f 782 760 785 
f 771 782 785 
f 759 768 786 
f 768 763 786 
f 780 759 786 
f 763 780 786 
f 761 774 787 
f 776 769 787 
f 774 776 787 
f 779 761 787 
f 769 779 787 
f 756 759 788 
f 759 769 788 
f 776 756 788 
f 769 776 788 
f 757 766 789 
f 775 757 789 
f 767 775 789 
f 783 767 789 
f 766 784 789 
f 784 783 789 
f 777 761 790 
f 765 777 790 
f 761 779 790 
