o convex_0
v 0.006806 -0.038994 0.018222
v -0.016216 -0.052928 -0.024799
v -0.016216 -0.051715 -0.024799
v 0.025586 -0.038991 -0.013888
v 0.009834 -0.069886 -0.001170
v -0.026514 -0.038991 -0.005411
v -0.010156 -0.064436 0.003071
v 0.018315 -0.053532 -0.024799
v 0.022558 -0.054138 0.002464
v -0.002886 -0.069886 -0.011466
v -0.021065 -0.038991 -0.019341
v -0.013794 -0.040811 0.011552
v 0.006196 -0.063222 0.009737
v -0.018032 -0.058979 -0.009647
v 0.018926 -0.038991 0.011556
v 0.017104 -0.064436 -0.010860
v 0.019531 -0.038991 -0.018735
v 0.015893 -0.060799 0.007311
v -0.021065 -0.049898 0.000645
v -0.007735 -0.058376 0.009130
v 0.026196 -0.045051 -0.009041
v 0.000136 -0.069280 0.003673
v -0.025908 -0.041414 -0.014494
v -0.012583 -0.057162 -0.023582
v 0.005590 -0.069886 -0.011462
v -0.010156 -0.067466 -0.008434
v 0.025586 -0.038991 -0.000564
v 0.012861 -0.039598 0.017616
v 0.018926 -0.051111 -0.024799
v 0.020737 -0.060192 -0.001781
v -0.020454 -0.038991 0.005492
v -0.021670 -0.053532 -0.005411
v 0.015893 -0.057162 -0.022980
v -0.001675 -0.071103 -0.005407
v 0.020737 -0.043838 0.009130
v 0.021347 -0.057162 -0.010860
v 0.009834 -0.068069 0.004283
v 0.016499 -0.065646 -0.000564
v 0.009834 -0.069886 -0.009643
v -0.003491 -0.063222 0.008524
v -0.019243 -0.044444 0.006098
v -0.015005 -0.062009 -0.001777
v -0.013794 -0.059589 0.003677
v -0.008340 -0.068069 -0.001777
v -0.011978 -0.065039 -0.012069
v 0.012861 -0.060192 0.009737
v -0.021065 -0.052322 -0.013888
v 0.001352 -0.060192 0.010945
v -0.026514 -0.042628 -0.007828
v 0.018315 -0.047475 0.010945
v 0.006196 -0.038994 -0.019341
v 0.007412 -0.040204 0.018222
v 0.024375 -0.051715 -0.002383
v -0.024697 -0.038991 -0.016916
v -0.011367 -0.039598 0.012769
v 0.018926 -0.053532 -0.024188
v 0.015893 -0.063222 0.005492
v 0.005590 -0.071103 -0.003583
v -0.007129 -0.068673 -0.011466
v -0.015610 -0.054138 -0.024799
v 0.013466 -0.068069 -0.009643
v 0.024375 -0.040811 0.003071
v 0.023164 -0.038991 -0.017526
v 0.003774 -0.071103 -0.009643
f 39 58 64 
f 2 3 8 
f 6 4 11 
f 4 6 15 
f 11 4 17 
f 10 24 25 
f 4 15 27 
f 21 4 27 
f 15 1 28 
f 8 3 29 
f 3 11 29 
f 15 6 31 
f 1 15 31 
f 24 8 33 
f 25 24 33 
f 15 28 35 
f 30 16 36 
f 22 5 37 
f 13 22 37 
f 16 30 38 
f 37 5 38 
f 25 33 39 
f 20 7 40 
f 7 22 40 
f 22 13 40 
f 6 19 41 
f 20 12 41 
f 12 31 41 
f 31 6 41 
f 14 26 42 
f 32 14 42 
f 19 32 42 
f 7 20 43 
f 41 19 43 
f 20 41 43 
f 42 7 43 
f 19 42 43 
f 22 7 44 
f 34 22 44 
f 26 34 44 
f 7 42 44 
f 42 26 44 
f 26 14 45 
f 28 13 46 
f 13 37 46 
f 23 2 47 
f 14 32 47 
f 40 13 48 
f 20 40 48 
f 19 6 49 
f 6 23 49 
f 32 19 49 
f 23 47 49 
f 47 32 49 
f 18 9 50 
f 9 35 50 
f 35 28 50 
f 28 46 50 
f 46 18 50 
f 11 17 51 
f 29 11 51 
f 17 29 51 
f 28 1 52 
f 13 28 52 
f 48 13 52 
f 20 48 52 
f 21 27 53 
f 9 30 53 
f 36 21 53 
f 30 36 53 
f 3 2 54 
f 11 3 54 
f 6 11 54 
f 2 23 54 
f 23 6 54 
f 12 20 55 
f 1 31 55 
f 31 12 55 
f 52 1 55 
f 20 52 55 
f 4 21 56 
f 8 29 56 
f 29 4 56 
f 33 8 56 
f 16 33 56 
f 36 16 56 
f 21 36 56 
f 9 18 57 
f 30 9 57 
f 38 30 57 
f 37 38 57 
f 18 46 57 
f 46 37 57 
f 5 22 58 
f 22 34 58 
f 39 5 58 
f 24 10 59 
f 10 34 59 
f 34 26 59 
f 45 24 59 
f 26 45 59 
f 2 8 60 
f 8 24 60 
f 45 14 60 
f 24 45 60 
f 47 2 60 
f 14 47 60 
f 33 16 61 
f 38 5 61 
f 16 38 61 
f 39 33 61 
f 5 39 61 
f 27 15 62 
f 35 9 62 
f 15 35 62 
f 9 53 62 
f 53 27 62 
f 17 4 63 
f 4 29 63 
f 29 17 63 
f 10 25 64 
f 34 10 64 
f 25 39 64 
f 58 34 64 
o convex_1
v -0.023491 -0.002634 0.010949
v -0.022277 -0.038988 -0.019343
v -0.019248 -0.038988 -0.019343
v -0.018643 -0.007480 -0.027825
v -0.008950 -0.005664 0.032154
v -0.008950 -0.001420 -0.018732
v -0.008950 -0.038988 0.012764
v -0.027730 -0.037775 -0.007824
v -0.008950 -0.038988 -0.019337
v -0.028942 -0.021414 -0.012071
v -0.015008 -0.001420 0.030333
v -0.022884 -0.031714 -0.029041
v -0.024096 -0.001420 -0.010250
v -0.019248 -0.038988 0.007307
v -0.015008 -0.032321 -0.029034
v -0.008950 -0.001420 0.032765
v -0.013192 -0.010511 -0.027220
v -0.021066 -0.002027 0.019425
v -0.012585 -0.037168 0.013974
v -0.020459 -0.010511 -0.027825
v -0.025912 -0.038988 -0.003589
v -0.022277 -0.035351 -0.028430
v -0.008950 -0.021414 -0.021763
v -0.025307 -0.002027 -0.001169
v -0.017431 -0.001420 -0.020553
v -0.028942 -0.029287 -0.009645
v -0.026519 -0.038988 -0.014497
v -0.027730 -0.023227 -0.016917
v -0.025912 -0.011724 -0.015102
v -0.014403 -0.017781 0.023067
v -0.028337 -0.028684 -0.015102
v -0.025912 -0.035351 -0.001774
v -0.015615 -0.010511 -0.028430
v -0.023491 -0.029287 -0.028430
v -0.027126 -0.032321 -0.003589
v -0.022884 -0.001420 0.013369
v -0.028337 -0.019601 -0.007219
v -0.015008 -0.002027 0.030333
v -0.008950 -0.037168 0.015190
v -0.021066 -0.038988 0.004887
v -0.028337 -0.026864 -0.006614
v -0.025912 -0.006874 -0.010250
v -0.009555 -0.006874 0.031549
v -0.020459 -0.035958 -0.027825
v -0.008950 -0.031714 -0.021158
v -0.019248 -0.002027 0.023067
v -0.020459 -0.001420 -0.017522
v -0.013797 -0.009904 -0.027825
v -0.019852 -0.011117 -0.028430
v -0.022884 -0.034138 -0.028430
v -0.010767 -0.037775 0.014585
v -0.008950 -0.002027 -0.019337
v -0.011978 -0.006874 0.030333
v -0.027730 -0.038381 -0.009645
v -0.024700 -0.001420 0.003066
v -0.027126 -0.018388 -0.016312
v -0.025307 -0.002027 -0.004799
v -0.017431 -0.007480 -0.027825
v -0.024700 -0.034744 0.000652
v -0.027730 -0.032928 -0.015102
v -0.023491 -0.001420 -0.012071
v -0.028942 -0.020807 -0.010250
v -0.022884 -0.028077 -0.029041
v -0.019248 -0.035351 -0.028430
f 108 86 128 
f 66 67 71 
f 70 69 71 
f 71 67 73 
f 70 71 73 
f 75 70 77 
f 66 71 78 
f 69 70 80 
f 70 75 80 
f 66 78 85 
f 76 79 86 
f 70 73 87 
f 79 81 87 
f 77 70 89 
f 66 85 91 
f 86 66 91 
f 78 83 94 
f 90 74 95 
f 74 92 95 
f 72 85 96 
f 92 84 98 
f 95 92 98 
f 90 72 99 
f 96 82 99 
f 72 96 99 
f 75 77 100 
f 82 75 100 
f 100 65 101 
f 69 80 102 
f 80 75 102 
f 78 94 102 
f 71 69 103 
f 85 78 104 
f 78 102 104 
f 90 99 105 
f 99 82 105 
f 82 100 105 
f 100 101 105 
f 93 74 106 
f 69 102 107 
f 103 69 107 
f 67 66 108 
f 73 67 108 
f 66 86 108 
f 73 79 109 
f 87 73 109 
f 79 87 109 
f 75 82 110 
f 82 96 110 
f 102 75 110 
f 89 68 111 
f 77 89 111 
f 81 79 112 
f 79 97 112 
f 84 68 113 
f 68 97 113 
f 76 86 114 
f 86 91 114 
f 98 76 114 
f 95 98 114 
f 78 71 115 
f 83 78 115 
f 71 103 115 
f 103 107 115 
f 70 87 116 
f 87 81 116 
f 81 112 116 
f 94 83 117 
f 102 94 117 
f 107 102 117 
f 83 115 117 
f 115 107 117 
f 85 72 118 
f 72 90 118 
f 91 85 118 
f 90 95 118 
f 100 77 119 
f 65 100 119 
f 101 65 119 
f 84 92 120 
f 92 74 120 
f 74 93 120 
f 93 84 120 
f 106 74 121 
f 77 106 121 
f 119 77 121 
f 88 119 121 
f 68 89 122 
f 89 70 122 
f 97 68 122 
f 112 97 122 
f 70 116 122 
f 116 112 122 
f 96 85 123 
f 85 104 123 
f 104 102 123 
f 110 96 123 
f 102 110 123 
f 114 91 124 
f 95 114 124 
f 91 118 124 
f 118 95 124 
f 68 84 125 
f 84 93 125 
f 106 77 125 
f 93 106 125 
f 111 68 125 
f 77 111 125 
f 74 90 126 
f 90 105 126 
f 105 101 126 
f 119 88 126 
f 101 119 126 
f 121 74 126 
f 88 121 126 
f 79 76 127 
f 97 79 127 
f 76 98 127 
f 98 84 127 
f 84 113 127 
f 113 97 127 
f 79 73 128 
f 86 79 128 
f 73 108 128 
o convex_2
v -0.002280 -0.025053 0.022463
v 0.026196 -0.037169 -0.004194
v 0.026196 -0.038987 -0.004194
v -0.008947 -0.024447 -0.021161
v -0.008947 -0.038987 0.012762
v 0.024982 -0.024447 -0.012069
v 0.018921 -0.036563 -0.027823
v -0.008947 -0.038987 -0.019339
v 0.015288 -0.024447 0.020038
v 0.012866 -0.038987 0.017607
v 0.019530 -0.028689 -0.029041
v -0.008947 -0.024447 0.014584
v 0.021951 -0.026266 0.010951
v 0.025587 -0.038987 -0.013885
v 0.013468 -0.033534 -0.029041
v 0.023166 -0.038380 0.006100
v 0.001353 -0.037774 0.018825
v 0.019530 -0.024447 -0.019948
v 0.004989 -0.024447 0.023676
v 0.024376 -0.024447 0.004279
v -0.008947 -0.037774 0.015187
v 0.021346 -0.033534 -0.027823
v 0.021346 -0.038987 -0.018736
v -0.008947 -0.031718 -0.021161
v 0.026196 -0.031113 -0.010856
v -0.000464 -0.027477 0.023067
v 0.017710 -0.038987 0.013371
v -0.004705 -0.024447 -0.022374
v -0.005916 -0.024447 0.020038
v 0.020135 -0.025053 0.014578
v 0.025587 -0.024447 -0.004194
v 0.020740 -0.035956 -0.028432
v 0.010441 -0.038987 0.018216
v 0.008019 -0.025053 0.023067
v 0.025587 -0.038987 -0.000567
v 0.017104 -0.028689 -0.029041
v -0.001069 -0.038987 -0.019948
v 0.017104 -0.035956 -0.028432
v 0.025587 -0.029901 -0.013281
v 0.020740 -0.030506 -0.028432
v 0.026196 -0.038987 -0.012069
v 0.019530 -0.028689 0.014578
v -0.008947 -0.037774 -0.019948
v 0.023166 -0.029295 0.007917
v -0.003491 -0.026266 0.021854
v 0.015288 -0.025053 0.020038
v 0.021951 -0.024447 -0.018132
v 0.003172 -0.027477 0.023067
v 0.000747 -0.038380 0.018216
v 0.013468 -0.032321 -0.029041
v 0.013468 -0.038380 0.017607
f 174 162 179 
f 133 132 136 
f 131 133 136 
f 134 132 137 
f 133 131 138 
f 132 133 140 
f 137 132 140 
f 131 136 142 
f 132 134 146 
f 137 140 147 
f 134 137 148 
f 140 133 149 
f 142 136 151 
f 136 132 152 
f 132 143 152 
f 130 131 153 
f 147 129 154 
f 149 145 154 
f 138 131 155 
f 132 146 156 
f 146 139 156 
f 129 147 157 
f 147 140 157 
f 140 149 157 
f 144 141 158 
f 148 137 158 
f 141 148 158 
f 148 130 159 
f 134 148 159 
f 130 153 159 
f 153 134 159 
f 143 139 160 
f 150 142 160 
f 151 135 160 
f 142 151 160 
f 133 138 161 
f 137 147 162 
f 161 138 162 
f 131 130 163 
f 130 148 163 
f 155 131 163 
f 144 155 163 
f 139 143 164 
f 156 139 164 
f 136 135 165 
f 135 151 165 
f 151 136 165 
f 135 136 166 
f 136 143 166 
f 160 135 166 
f 143 160 166 
f 134 153 167 
f 139 134 168 
f 160 139 168 
f 150 160 168 
f 134 167 168 
f 167 150 168 
f 131 142 169 
f 142 150 169 
f 153 131 169 
f 150 167 169 
f 167 153 169 
f 155 144 170 
f 144 158 170 
f 143 136 171 
f 136 152 171 
f 152 143 171 
f 141 144 172 
f 148 141 172 
f 144 163 172 
f 163 148 172 
f 154 129 173 
f 149 154 173 
f 129 157 173 
f 157 149 173 
f 158 137 174 
f 137 162 174 
f 155 170 174 
f 170 158 174 
f 134 139 175 
f 146 134 175 
f 139 146 175 
f 154 145 176 
f 147 154 176 
f 145 161 176 
f 162 147 176 
f 161 162 176 
f 149 133 177 
f 145 149 177 
f 133 161 177 
f 161 145 177 
f 143 132 178 
f 132 156 178 
f 164 143 178 
f 156 164 178 
f 138 155 179 
f 162 138 179 
f 155 174 179 
o convex_3
v -0.008339 -0.006875 0.032151
v 0.025590 -0.023837 -0.004796
v 0.025590 -0.024446 -0.004796
v -0.007734 -0.019598 -0.027820
v 0.013470 -0.001420 -0.011457
v -0.007128 -0.024446 0.019429
v 0.015894 -0.001420 0.030938
v -0.008947 -0.001420 -0.019339
v 0.014681 -0.024446 0.020642
v 0.011652 -0.017170 -0.029041
v -0.008947 -0.024446 -0.021159
v -0.008947 -0.001420 0.033365
v 0.021953 -0.001420 0.009734
v 0.007415 -0.002635 0.037612
v 0.021347 -0.024446 -0.018732
v -0.004099 -0.001420 -0.022973
v 0.003173 -0.023837 0.024276
v 0.024377 -0.024446 0.004286
v -0.008947 -0.023837 0.019429
v -0.002886 -0.022627 -0.028434
v 0.006807 -0.001420 -0.019946
v 0.023771 -0.021414 -0.012064
v 0.018318 -0.002026 0.027304
v 0.020137 -0.024446 0.014581
v 0.020137 -0.001420 0.001259
v 0.001354 -0.008696 0.034578
v 0.021347 -0.001420 0.017002
v -0.003494 -0.001420 0.036399
v 0.007415 -0.024446 0.023670
v 0.012862 -0.017776 -0.028427
v 0.009836 -0.014143 -0.028427
v -0.000462 -0.024446 0.023069
v 0.011652 -0.018991 -0.029041
v 0.012862 -0.002635 0.033972
v -0.005915 -0.001420 -0.022973
v 0.024982 -0.023837 -0.010857
v 0.014681 -0.001420 -0.009644
v -0.002886 -0.024446 -0.022973
v 0.007415 -0.001420 0.037612
v 0.007415 -0.014143 -0.028427
v 0.014681 -0.023837 0.021249
v 0.018923 -0.024446 -0.019946
v 0.020137 -0.005058 0.021856
v 0.021953 -0.021414 -0.015705
v 0.018923 -0.024446 0.016395
v 0.012260 -0.016566 -0.028427
v -0.008947 -0.017776 0.024276
v -0.001675 -0.017170 0.027917
v 0.022558 -0.020202 0.010947
v 0.024982 -0.020808 0.000052
v -0.005310 -0.022018 -0.028434
v -0.008947 -0.018991 -0.022973
v 0.021347 -0.001420 0.005493
v 0.003778 -0.008696 0.034578
v -0.006523 -0.018385 -0.027820
v 0.002567 -0.002026 0.037612
v 0.021953 -0.001420 0.012761
v -0.002280 -0.006875 0.034578
v 0.014681 -0.002635 0.032151
v -0.008947 -0.024446 0.015188
v 0.017713 -0.002026 0.028517
v 0.006202 -0.017776 -0.029041
f 230 234 241 
f 186 184 187 
f 185 182 188 
f 182 185 190 
f 186 187 191 
f 187 190 191 
f 184 186 192 
f 182 190 194 
f 187 184 195 
f 188 182 197 
f 191 190 198 
f 195 184 200 
f 188 197 203 
f 184 192 204 
f 192 186 206 
f 186 202 206 
f 191 180 207 
f 186 191 207 
f 185 188 208 
f 195 200 210 
f 198 185 211 
f 196 205 211 
f 185 208 211 
f 208 196 211 
f 189 209 212 
f 209 194 212 
f 183 187 214 
f 187 195 214 
f 195 210 214 
f 181 182 215 
f 192 181 215 
f 182 194 215 
f 194 201 215 
f 184 204 216 
f 194 190 217 
f 190 199 217 
f 186 207 218 
f 193 213 218 
f 213 186 218 
f 210 189 219 
f 214 210 219 
f 208 188 220 
f 193 208 220 
f 213 193 220 
f 199 212 221 
f 212 194 221 
f 194 217 221 
f 217 199 221 
f 197 206 222 
f 206 202 222 
f 201 194 223 
f 204 201 223 
f 194 209 223 
f 216 204 223 
f 188 203 224 
f 220 188 224 
f 200 184 225 
f 209 189 225 
f 189 210 225 
f 210 200 225 
f 184 216 225 
f 223 209 225 
f 216 223 225 
f 180 191 226 
f 191 198 226 
f 198 211 226 
f 226 211 227 
f 211 205 227 
f 180 226 227 
f 203 197 228 
f 202 203 228 
f 197 222 228 
f 222 202 228 
f 182 181 229 
f 197 182 229 
f 206 197 229 
f 190 183 230 
f 199 190 230 
f 187 183 231 
f 190 187 231 
f 183 190 231 
f 204 192 232 
f 201 204 232 
f 192 215 232 
f 215 201 232 
f 193 205 233 
f 205 196 233 
f 208 193 233 
f 196 208 233 
f 183 214 234 
f 214 219 234 
f 230 183 234 
f 205 193 235 
f 218 207 235 
f 193 218 235 
f 181 192 236 
f 192 206 236 
f 229 181 236 
f 206 229 236 
f 207 180 237 
f 180 227 237 
f 227 205 237 
f 205 235 237 
f 235 207 237 
f 186 213 238 
f 213 220 238 
f 220 224 238 
f 190 185 239 
f 185 198 239 
f 198 190 239 
f 202 186 240 
f 203 202 240 
f 224 203 240 
f 186 238 240 
f 238 224 240 
f 189 212 241 
f 212 199 241 
f 219 189 241 
f 199 230 241 
f 234 219 241 
o convex_4
v -0.022883 -0.000208 0.013978
v -0.017430 -0.001420 -0.020555
v -0.017430 -0.000208 -0.020555
v -0.009554 -0.001420 0.023061
v -0.009554 0.027059 -0.021760
v -0.019248 0.027059 0.023065
v -0.019248 0.027059 -0.013888
v -0.009554 -0.001420 -0.018733
v -0.009554 0.027059 0.006703
v -0.024701 -0.001420 -0.006010
v -0.019248 -0.001420 0.023065
v -0.014402 0.027059 0.023061
v -0.024095 0.004640 0.004890
v -0.009554 0.005853 -0.023578
v -0.021066 0.017965 0.022462
v -0.023490 -0.000812 -0.011463
v -0.018643 0.027059 -0.015705
v -0.019854 0.026451 -0.005403
v -0.010767 0.027059 -0.021760
v -0.020459 0.022813 0.021855
v -0.019854 -0.000812 -0.018130
v -0.021066 0.004640 0.022462
v -0.024701 -0.001420 0.003068
v -0.024701 0.001610 -0.001165
v -0.010767 0.011306 -0.023578
v -0.009554 -0.000208 0.023061
v -0.022883 0.011306 0.009128
v -0.017430 0.027059 -0.016915
v -0.021066 -0.001420 0.019430
v -0.024095 -0.001420 -0.009650
v -0.020459 0.022211 0.023065
f 256 263 272 
f 247 246 248 
f 245 243 249 
f 246 245 249 
f 245 246 250 
f 246 247 250 
f 243 245 251 
f 245 247 252 
f 251 245 252 
f 250 247 253 
f 249 243 255 
f 246 249 255 
f 248 246 258 
f 257 248 258 
f 247 248 259 
f 258 246 260 
f 247 259 261 
f 244 243 262 
f 258 244 262 
f 257 258 262 
f 256 242 263 
f 251 252 264 
f 242 256 264 
f 256 254 264 
f 248 251 265 
f 259 248 265 
f 251 264 265 
f 264 254 265 
f 243 244 266 
f 255 243 266 
f 246 255 266 
f 244 260 266 
f 260 246 266 
f 247 245 267 
f 245 250 267 
f 253 247 267 
f 250 253 267 
f 254 261 268 
f 261 259 268 
f 259 265 268 
f 265 254 268 
f 244 258 269 
f 260 244 269 
f 258 260 269 
f 263 242 270 
f 252 263 270 
f 242 264 270 
f 264 252 270 
f 243 251 271 
f 251 248 271 
f 248 257 271 
f 262 243 271 
f 257 262 271 
f 252 247 272 
f 254 256 272 
f 247 261 272 
f 261 254 272 
f 263 252 272 
o convex_5
v 0.002564 0.020998 -0.022372
v -0.005312 -0.001420 -0.022978
v -0.009554 0.005245 -0.023583
v -0.009554 -0.000812 0.020040
v -0.009554 0.027059 0.006702
v 0.003171 -0.001420 0.014584
v 0.003171 0.027059 0.004885
v -0.009554 0.027059 -0.021766
v 0.003171 -0.001420 -0.018733
v 0.003171 0.027059 -0.018132
v -0.009554 -0.001420 -0.018733
v 0.001352 0.007066 -0.024189
v -0.002284 0.020998 -0.024189
v -0.008947 -0.001420 0.020040
v 0.002564 0.027059 0.005495
v -0.005918 0.007066 -0.024799
v 0.003171 0.016148 -0.023583
v 0.001352 -0.000812 0.015796
v -0.009554 0.010093 -0.024189
v -0.001072 0.027059 -0.020555
v -0.008947 -0.000812 0.020040
v -0.006523 0.018573 -0.024189
v 0.002564 0.005245 -0.022978
v -0.002284 0.005853 -0.024799
v -0.004101 -0.001420 -0.022978
v 0.000747 0.018573 -0.024189
f 296 285 298 
f 275 276 277 
f 275 277 280 
f 277 279 280 
f 278 274 281 
f 279 278 281 
f 279 281 282 
f 280 279 282 
f 275 274 283 
f 276 275 283 
f 274 278 283 
f 276 283 286 
f 283 278 286 
f 279 277 287 
f 278 279 287 
f 274 275 288 
f 282 281 289 
f 273 282 289 
f 286 278 290 
f 278 287 290 
f 275 280 291 
f 288 275 291 
f 282 273 292 
f 280 282 292 
f 285 280 292 
f 273 285 292 
f 277 276 293 
f 276 286 293 
f 287 277 293 
f 286 290 293 
f 290 287 293 
f 280 285 294 
f 285 288 294 
f 291 280 294 
f 288 291 294 
f 289 281 295 
f 284 289 295 
f 274 288 296 
f 288 285 296 
f 281 274 297 
f 295 281 297 
f 284 295 297 
f 274 296 297 
f 296 284 297 
f 285 273 298 
f 273 289 298 
f 289 284 298 
f 284 296 298 
o convex_6
v -0.020461 0.013728 0.023070
v -0.008342 0.014333 0.045489
v -0.008949 0.014333 0.045489
v -0.009554 -0.001420 0.033373
v -0.014401 0.027059 0.023070
v -0.008949 -0.001420 0.023680
v -0.019247 -0.000812 0.023680
v -0.018036 0.025238 0.032162
v -0.017431 0.001005 0.030345
v -0.018036 0.015546 0.033979
v -0.013190 0.027059 0.026103
v -0.019247 0.027059 0.023070
v -0.014401 0.027059 0.032768
v -0.008342 0.014935 0.041851
v -0.008342 0.009488 0.043668
v -0.019853 0.016753 0.029131
v -0.008342 -0.000812 0.026103
v -0.009554 -0.001420 0.023070
v -0.014401 -0.001420 0.031556
v -0.009554 0.012521 0.044879
v -0.018642 -0.001420 0.023070
v -0.020461 0.020998 0.025497
v -0.009554 0.012521 0.030950
v -0.008342 -0.001420 0.033373
v -0.013190 0.027059 0.031556
v -0.019853 0.002218 0.024286
v -0.016825 0.019178 0.035792
v -0.018642 0.027059 0.029739
v -0.016825 0.026451 0.032768
v -0.019247 0.020998 0.030950
v -0.016825 0.014935 0.035792
v -0.008949 0.009488 0.043668
v -0.016825 0.000400 0.030950
f 317 330 331 
f 304 303 309 
f 303 299 310 
f 309 303 310 
f 301 300 311 
f 309 310 311 
f 312 300 313 
f 304 309 315 
f 312 313 315 
f 299 303 316 
f 303 304 316 
f 304 302 316 
f 316 302 317 
f 300 301 318 
f 313 300 318 
f 305 299 319 
f 299 316 319 
f 317 305 319 
f 316 317 319 
f 310 299 320 
f 309 312 321 
f 315 309 321 
f 312 315 321 
f 302 304 322 
f 313 302 322 
f 304 315 322 
f 315 313 322 
f 311 300 323 
f 309 311 323 
f 300 312 323 
f 312 309 323 
f 299 305 324 
f 305 307 324 
f 307 308 324 
f 308 314 324 
f 320 299 324 
f 314 320 324 
f 301 306 325 
f 318 301 325 
f 311 310 326 
f 310 320 326 
f 306 301 327 
f 301 311 327 
f 326 306 327 
f 311 326 327 
f 314 308 328 
f 320 314 328 
f 325 306 328 
f 308 325 328 
f 306 326 328 
f 326 320 328 
f 308 307 329 
f 307 318 329 
f 325 308 329 
f 318 325 329 
f 302 313 330 
f 317 302 330 
f 313 318 330 
f 330 318 331 
f 307 305 331 
f 305 317 331 
f 318 307 331 
o convex_7
v 0.006201 -0.001420 -0.019951
v 0.021955 0.008880 0.015193
v 0.021955 0.004035 0.015193
v 0.003171 -0.000813 0.014584
v 0.003171 0.011910 -0.022981
v 0.003171 0.011910 0.006707
v 0.020741 -0.001420 0.003071
v 0.016499 0.011910 -0.004193
v 0.016499 0.011910 0.015193
v 0.003171 -0.001420 -0.018736
v 0.021348 -0.001420 0.015193
v 0.012864 -0.000813 -0.012074
v 0.021348 0.011910 0.012162
v 0.003171 -0.001420 0.014584
v 0.009231 0.011910 -0.016315
v 0.013471 0.011910 -0.010254
v 0.018923 -0.001420 -0.001170
v 0.003777 0.008274 -0.022981
v 0.021955 -0.001420 0.010342
v 0.003171 0.010698 0.007921
v 0.004989 0.011910 -0.021767
v 0.021348 -0.000208 0.005496
v 0.021348 0.011910 0.015193
v 0.014074 -0.001420 -0.010254
v 0.017106 -0.001420 0.015193
f 345 342 356 
f 336 335 337 
f 336 337 339 
f 334 333 340 
f 339 337 340 
f 335 336 341 
f 332 338 341 
f 341 338 342 
f 334 340 342 
f 339 340 344 
f 340 335 345 
f 335 341 345 
f 341 342 345 
f 336 339 346 
f 343 346 347 
f 346 339 347 
f 347 339 348 
f 338 332 348 
f 339 338 348 
f 332 341 349 
f 341 336 349 
f 333 334 350 
f 342 338 350 
f 334 342 350 
f 337 335 351 
f 335 340 351 
f 340 337 351 
f 343 332 352 
f 336 346 352 
f 346 343 352 
f 332 349 352 
f 349 336 352 
f 338 339 353 
f 344 333 353 
f 339 344 353 
f 333 350 353 
f 350 338 353 
f 340 333 354 
f 333 344 354 
f 344 340 354 
f 332 343 355 
f 343 347 355 
f 347 348 355 
f 348 332 355 
f 342 340 356 
f 340 345 356 
o convex_8
v 0.005595 0.014333 0.047908
v 0.014076 -0.001420 0.021255
v 0.014683 -0.001420 0.021255
v 0.014683 0.022211 0.035190
v 0.003171 -0.000208 0.030345
v 0.014683 -0.001420 0.032767
v 0.003171 -0.001420 0.038215
v 0.014683 0.016757 0.042458
v 0.003171 0.013120 0.046697
v 0.003778 0.010097 0.048514
v 0.014076 0.017363 0.030950
v 0.012259 0.004034 0.024286
v 0.014076 0.022211 0.035190
v 0.014076 0.021605 0.040032
v 0.008625 -0.001420 0.037004
v 0.014076 0.010097 0.040032
v 0.003171 -0.001420 0.030345
v 0.004990 0.011302 0.048514
v 0.003171 0.002216 0.032767
v 0.003171 0.013120 0.048514
v 0.014683 0.018575 0.042458
v 0.013470 -0.001420 0.033979
v 0.014076 -0.000208 0.021255
f 368 367 379 
f 358 359 362 
f 359 360 362 
f 358 362 363 
f 362 360 364 
f 361 363 365 
f 360 359 367 
f 361 367 368 
f 360 367 369 
f 367 361 369 
f 360 369 370 
f 363 362 371 
f 366 363 371 
f 362 364 372 
f 361 358 373 
f 363 361 373 
f 358 363 373 
f 372 364 374 
f 361 365 375 
f 365 369 375 
f 369 361 375 
f 365 363 376 
f 363 366 376 
f 369 365 376 
f 357 370 376 
f 370 369 376 
f 374 357 376 
f 366 374 376 
f 364 360 377 
f 370 357 377 
f 360 370 377 
f 357 374 377 
f 374 364 377 
f 371 362 378 
f 366 371 378 
f 362 372 378 
f 374 366 378 
f 372 374 378 
f 359 358 379 
f 358 361 379 
f 367 359 379 
f 361 368 379 
o convex_9
v 0.021955 0.009488 0.015193
v 0.015290 0.019178 0.041854
v 0.014683 0.019178 0.041854
v 0.017108 0.027059 0.015193
v 0.014683 -0.001420 0.020647
v 0.020743 0.027059 0.031551
v 0.018925 -0.001420 0.026104
v 0.015290 0.027059 0.026104
v 0.021348 -0.001420 0.015193
v 0.020743 0.014935 0.031551
v 0.014683 -0.001420 0.032159
v 0.020743 0.027059 0.020647
v 0.017713 0.017363 0.040032
v 0.017108 -0.001420 0.015193
v 0.016501 0.027059 0.036399
v 0.019530 0.027059 0.015193
v 0.014683 0.024026 0.034578
v 0.015896 0.025846 0.018223
v 0.018925 0.022211 0.038216
v 0.021348 0.007670 0.024890
v 0.016501 0.020393 0.015193
v 0.015290 0.010703 0.039429
v 0.021955 0.012521 0.019436
v 0.018319 0.010093 0.035189
v 0.015290 -0.001420 0.032159
v 0.014683 0.022211 0.030337
v 0.018925 0.026451 0.036399
v 0.020137 0.010703 0.031551
v 0.015290 0.027059 0.035189
v 0.021955 0.004035 0.017617
v 0.021348 -0.001420 0.017012
v 0.019530 0.017363 0.036399
v 0.021348 0.014333 0.027312
v 0.021348 0.022211 0.021252
v 0.016501 0.008886 0.015193
f 384 400 414 
f 385 383 387 
f 383 380 388 
f 386 384 388 
f 382 384 390 
f 384 386 390 
f 383 385 391 
f 383 388 393 
f 388 384 393 
f 382 381 394 
f 385 387 394 
f 380 383 395 
f 391 380 395 
f 383 391 395 
f 384 382 396 
f 387 383 397 
f 381 392 398 
f 383 393 400 
f 397 383 400 
f 384 397 400 
f 381 382 401 
f 382 390 401 
f 392 381 401 
f 392 401 403 
f 403 401 404 
f 390 386 404 
f 401 390 404 
f 386 403 404 
f 384 396 405 
f 396 387 405 
f 397 384 405 
f 387 397 405 
f 394 381 406 
f 385 394 406 
f 398 385 406 
f 381 398 406 
f 386 399 407 
f 399 389 407 
f 403 386 407 
f 382 394 408 
f 394 387 408 
f 396 382 408 
f 387 396 408 
f 388 380 409 
f 380 402 409 
f 386 388 410 
f 399 386 410 
f 388 409 410 
f 409 399 410 
f 389 385 411 
f 385 398 411 
f 398 392 411 
f 392 403 411 
f 407 389 411 
f 403 407 411 
f 385 389 412 
f 389 399 412 
f 402 385 412 
f 399 409 412 
f 409 402 412 
f 380 391 413 
f 391 385 413 
f 402 380 413 
f 385 402 413 
f 393 384 414 
f 400 393 414 
o convex_10
v -0.019855 0.038569 -0.009643
v 0.003777 0.045843 0.006707
v 0.002562 0.045843 0.007309
v 0.003168 0.027059 0.005495
v -0.008342 0.034333 -0.029646
v -0.018643 0.027059 0.012769
v 0.003777 0.045843 -0.019342
v -0.013794 0.045843 0.012769
v 0.003777 0.027059 -0.018735
v -0.018643 0.027059 -0.015705
v -0.015006 0.045843 -0.020554
v -0.014400 0.031302 -0.029040
v -0.018643 0.045843 -0.002987
v -0.008948 0.045236 0.012769
v -0.008342 0.028879 -0.029040
v -0.019855 0.027665 -0.012068
v -0.015612 0.027059 0.012769
v 0.003777 0.027665 0.005495
v -0.018037 0.045236 -0.013886
v -0.010160 0.027059 -0.022368
v -0.010160 0.045843 -0.021156
v -0.014400 0.033119 -0.029040
v 0.003777 0.028272 -0.019342
v -0.014400 0.045236 0.012769
v -0.019855 0.037359 -0.005412
v -0.011372 0.029486 -0.029646
v -0.018643 0.036750 -0.015098
v -0.018643 0.028272 0.012769
v 0.003777 0.040389 0.006707
v -0.019855 0.027059 -0.007837
v -0.019249 0.044022 -0.004806
v -0.014400 0.045843 -0.021156
v -0.013794 0.033119 -0.029646
v -0.017431 0.045843 0.001862
v -0.008342 0.030089 -0.029646
v -0.018643 0.045843 -0.009037
v -0.019249 0.027059 0.004889
f 439 444 451 
f 417 416 421 
f 417 421 422 
f 418 420 423 
f 421 416 423 
f 423 420 424 
f 422 421 425 
f 422 425 427 
f 417 422 428 
f 422 420 428 
f 426 424 430 
f 420 418 431 
f 428 420 431 
f 428 431 432 
f 423 416 432 
f 418 423 432 
f 431 418 432 
f 423 424 434 
f 429 423 434 
f 421 419 435 
f 425 421 435 
f 426 430 436 
f 433 425 436 
f 419 421 437 
f 421 423 437 
f 420 422 438 
f 415 430 439 
f 424 426 440 
f 434 424 440 
f 429 434 440 
f 430 415 441 
f 415 433 441 
f 436 430 441 
f 433 436 441 
f 420 438 442 
f 416 417 443 
f 417 428 443 
f 428 432 443 
f 432 416 443 
f 424 420 444 
f 430 424 444 
f 439 430 444 
f 415 439 445 
f 442 427 445 
f 439 442 445 
f 435 419 446 
f 425 435 446 
f 436 425 447 
f 426 436 447 
f 440 426 447 
f 419 440 447 
f 446 419 447 
f 425 446 447 
f 422 427 448 
f 438 422 448 
f 442 438 448 
f 427 442 448 
f 423 429 449 
f 419 437 449 
f 437 423 449 
f 440 419 449 
f 429 440 449 
f 427 425 450 
f 433 415 450 
f 425 433 450 
f 415 445 450 
f 445 427 450 
f 420 442 451 
f 442 439 451 
f 444 420 451 
o convex_11
v -0.014401 0.028272 0.032159
v -0.018642 0.027059 0.012769
v -0.018642 0.028272 0.012769
v -0.010161 0.045843 0.012769
v -0.014401 0.045843 0.023069
v -0.019248 0.027665 0.026702
v -0.012584 0.027059 0.027311
v -0.009555 0.045843 0.024888
v -0.015613 0.027059 0.012769
v -0.014401 0.045236 0.012769
v -0.017430 0.027059 0.031550
v -0.011979 0.045843 0.026702
v -0.018642 0.031302 0.022464
v -0.010161 0.044629 0.012769
v -0.010161 0.039176 0.023069
v -0.013190 0.027059 0.031550
v -0.018035 0.030696 0.028522
v -0.015613 0.042813 0.021858
v -0.010767 0.045843 0.026702
v -0.011979 0.029486 0.028522
v -0.014401 0.027059 0.017616
v -0.011979 0.029486 0.026099
v -0.014401 0.045843 0.014587
f 464 469 474 
f 453 454 455 
f 454 453 457 
f 455 456 459 
f 453 455 460 
f 458 453 460 
f 455 454 461 
f 457 453 462 
f 453 458 462 
f 459 456 463 
f 462 452 463 
f 454 457 464 
f 455 459 465 
f 460 455 465 
f 465 459 466 
f 452 462 467 
f 462 458 467 
f 457 462 468 
f 463 456 468 
f 462 463 468 
f 464 457 469 
f 468 456 469 
f 457 468 469 
f 463 452 470 
f 459 463 470 
f 452 467 470 
f 467 459 470 
f 466 459 471 
f 467 458 471 
f 459 467 471 
f 458 460 472 
f 460 465 472 
f 472 465 473 
f 465 466 473 
f 471 458 473 
f 466 471 473 
f 458 472 473 
f 456 455 474 
f 461 454 474 
f 455 461 474 
f 454 464 474 
f 469 456 474 
o convex_12
v -0.013793 0.056748 -0.010249
v 0.003777 0.064020 0.013375
v 0.001957 0.064020 0.013375
v -0.009551 0.045843 0.013375
v 0.003777 0.045843 -0.019342
v -0.010762 0.053721 -0.029041
v -0.018035 0.045843 -0.012674
v 0.003777 0.062200 -0.013284
v 0.003777 0.045843 0.006703
v -0.009551 0.057960 0.013375
v -0.004710 0.063413 -0.007833
v -0.011976 0.047056 -0.029041
v -0.018035 0.046449 -0.000563
v -0.004710 0.050086 -0.029041
v -0.006527 0.062806 0.009738
v -0.013793 0.045843 0.013375
v -0.015612 0.054935 -0.007231
v 0.003777 0.057960 0.013375
v 0.000746 0.064627 -0.004200
v 0.003777 0.059776 -0.016315
v -0.009551 0.060990 -0.007833
v -0.013187 0.050086 -0.028434
v -0.015612 0.053117 0.001256
v -0.008342 0.054326 -0.029041
v -0.010159 0.060383 0.004282
v -0.002285 0.064627 0.004282
v -0.013187 0.045843 -0.022373
v -0.016216 0.052510 -0.012674
v -0.010159 0.054935 -0.027828
v 0.003777 0.064627 -0.003594
v -0.002285 0.062200 -0.013280
v -0.004710 0.047663 -0.028434
v 0.003777 0.050693 -0.019342
v -0.018643 0.046449 -0.003594
v -0.005921 0.062200 0.013375
v -0.013793 0.047056 0.013375
v -0.007736 0.060990 -0.013280
v -0.004710 0.064020 -0.000563
v -0.011370 0.053721 -0.028434
v -0.011976 0.058566 -0.010855
v -0.011370 0.059776 -0.003594
v -0.013187 0.047663 -0.029041
v -0.018035 0.047056 -0.012674
v -0.008947 0.059776 0.012163
v -0.013793 0.056748 -0.000563
v 0.003169 0.045843 0.007313
v -0.007132 0.062806 0.006101
v -0.004102 0.064020 0.007919
v 0.003777 0.064627 0.006703
v 0.001957 0.064020 -0.007833
v -0.008947 0.047056 -0.029041
v -0.018643 0.045843 -0.003594
v -0.013793 0.054935 0.004888
f 518 519 527 
f 476 477 478 
f 479 478 481 
f 476 479 482 
f 478 479 483 
f 479 476 483 
f 478 477 484 
f 486 480 488 
f 481 478 490 
f 478 484 490 
f 476 478 492 
f 483 476 492 
f 482 479 494 
f 488 480 498 
f 482 494 498 
f 494 488 498 
f 479 481 501 
f 491 475 502 
f 498 480 503 
f 482 498 503 
f 476 482 504 
f 493 500 504 
f 482 503 505 
f 488 479 506 
f 479 488 507 
f 494 479 507 
f 488 494 507 
f 487 497 508 
f 497 491 508 
f 491 502 508 
f 484 477 509 
f 490 484 510 
f 487 490 510 
f 497 487 510 
f 495 485 511 
f 485 505 511 
f 505 503 511 
f 493 485 512 
f 485 495 512 
f 500 493 512 
f 480 496 513 
f 502 475 513 
f 496 502 513 
f 503 480 513 
f 503 513 514 
f 495 511 514 
f 511 503 514 
f 513 475 514 
f 475 491 515 
f 514 475 515 
f 495 514 515 
f 480 486 516 
f 496 480 516 
f 501 481 516 
f 486 501 516 
f 502 496 517 
f 481 508 517 
f 508 502 517 
f 496 516 517 
f 516 481 517 
f 489 499 518 
f 484 509 518 
f 509 489 518 
f 491 497 519 
f 515 491 519 
f 499 515 519 
f 518 499 519 
f 478 483 520 
f 492 478 520 
f 483 492 520 
f 499 489 521 
f 512 495 521 
f 495 515 521 
f 515 499 521 
f 477 500 522 
f 509 477 522 
f 489 509 522 
f 500 512 522 
f 521 489 522 
f 512 521 522 
f 477 476 523 
f 500 477 523 
f 476 504 523 
f 504 500 523 
f 485 493 524 
f 504 482 524 
f 493 504 524 
f 482 505 524 
f 505 485 524 
f 486 488 525 
f 479 501 525 
f 501 486 525 
f 506 479 525 
f 488 506 525 
f 481 490 526 
f 490 487 526 
f 508 481 526 
f 487 508 526 
f 510 484 527 
f 497 510 527 
f 484 518 527 
f 519 497 527 
o convex_13
v 0.009836 0.028271 -0.029039
v 0.021349 0.044025 0.000647
v 0.020740 0.044025 0.003679
v 0.003777 0.044025 -0.019342
v 0.003777 0.027059 0.004891
v 0.018923 0.027059 0.007316
v 0.003777 0.044025 0.006708
v 0.017713 0.044025 -0.020554
v 0.017713 0.027059 -0.011466
v 0.003777 0.027059 -0.019950
v 0.006202 0.033120 -0.029646
v 0.020740 0.036146 -0.008445
v 0.012260 0.030090 -0.029646
v 0.019531 0.044025 0.007316
v 0.015289 0.044025 -0.022978
v 0.005595 0.028879 -0.029646
v 0.020740 0.043417 -0.011466
v 0.007413 0.027665 -0.029646
v 0.019531 0.031906 -0.010261
v 0.018923 0.039782 -0.016314
v 0.021349 0.039177 -0.002384
v 0.003777 0.028271 0.005492
v 0.006807 0.033725 -0.029646
v 0.017107 0.027059 0.007316
v 0.018923 0.027059 -0.000565
v 0.015289 0.027059 -0.016922
v 0.012260 0.031302 -0.029646
v 0.021349 0.044025 -0.007233
v 0.003777 0.040994 0.006708
v 0.020740 0.034937 -0.005413
v 0.019531 0.033120 0.007316
v 0.015893 0.044025 0.007316
v 0.008018 0.027059 -0.024190
f 545 553 560 
f 530 529 531 
f 530 531 534 
f 531 532 534 
f 531 529 535 
f 533 532 536 
f 532 531 537 
f 536 532 537 
f 530 534 541 
f 531 535 542 
f 537 531 543 
f 531 538 543 
f 538 540 543 
f 540 528 545 
f 537 543 545 
f 543 540 545 
f 536 540 546 
f 540 535 547 
f 535 544 547 
f 544 539 547 
f 539 546 547 
f 546 540 547 
f 534 532 549 
f 538 531 550 
f 540 538 550 
f 531 542 550 
f 532 533 551 
f 533 541 551 
f 549 532 551 
f 533 536 552 
f 536 546 552 
f 536 537 553 
f 540 536 553 
f 528 540 553 
f 545 528 553 
f 535 540 554 
f 542 535 554 
f 540 550 554 
f 550 542 554 
f 535 529 555 
f 544 535 555 
f 539 544 555 
f 529 548 555 
f 548 539 555 
f 534 549 556 
f 549 551 556 
f 546 539 557 
f 548 533 557 
f 539 548 557 
f 533 552 557 
f 552 546 557 
f 529 530 558 
f 530 541 558 
f 541 533 558 
f 548 529 558 
f 533 548 558 
f 541 534 559 
f 551 541 559 
f 534 556 559 
f 556 551 559 
f 537 545 560 
f 553 537 560 
o convex_14
v 0.018924 0.028271 0.035187
v 0.017108 0.027059 0.007316
v 0.014683 0.028271 0.028519
v 0.018924 0.044025 0.007316
v 0.014683 0.044025 0.025488
v 0.020743 0.039177 0.024883
v 0.020743 0.027059 0.020646
v 0.016502 0.044025 0.007316
v 0.019530 0.044025 0.026701
v 0.015896 0.027059 0.035794
v 0.019530 0.032513 0.007316
v 0.020743 0.027059 0.031549
v 0.016502 0.043417 0.029129
v 0.014683 0.043417 0.021257
v 0.019530 0.042206 0.007316
v 0.019530 0.027059 0.009136
v 0.020136 0.044025 0.020646
v 0.014683 0.027059 0.030947
v 0.016502 0.036751 0.007316
v 0.020743 0.030696 0.030947
v 0.015290 0.044025 0.027914
v 0.014683 0.030090 0.031549
v 0.017713 0.043417 0.029129
f 581 573 583 
f 564 562 568 
f 565 564 568 
f 564 565 569 
f 562 567 570 
f 562 564 571 
f 567 566 572 
f 561 570 572 
f 570 567 572 
f 563 565 574 
f 565 568 574 
f 566 567 575 
f 571 564 575 
f 567 571 575 
f 567 562 576 
f 562 571 576 
f 571 567 576 
f 564 569 577 
f 569 566 577 
f 566 575 577 
f 575 564 577 
f 563 562 578 
f 565 563 578 
f 562 570 578 
f 562 563 579 
f 568 562 579 
f 563 574 579 
f 574 568 579 
f 569 561 580 
f 566 569 580 
f 572 566 580 
f 561 572 580 
f 569 565 581 
f 570 573 581 
f 565 578 582 
f 578 570 582 
f 581 565 582 
f 570 581 582 
f 561 569 583 
f 570 561 583 
f 573 570 583 
f 569 581 583 
o convex_15
v 0.014682 0.060989 0.004891
v 0.013469 0.044025 -0.024193
v 0.015894 0.044025 -0.024193
v 0.016500 0.044025 0.012163
v 0.003777 0.044025 0.006706
v 0.003777 0.061596 -0.014493
v 0.003777 0.064020 0.012163
v 0.003777 0.044025 -0.019341
v 0.015289 0.051906 -0.029041
v 0.021349 0.048266 -0.004200
v 0.007415 0.048875 -0.029041
v 0.015894 0.056746 0.012163
v 0.011049 0.062806 -0.006019
v 0.021349 0.044025 0.000648
v 0.017711 0.056143 -0.008439
v 0.016500 0.045237 -0.028432
v 0.003777 0.057355 0.012163
v 0.018923 0.053118 0.007315
v 0.006202 0.064627 -0.001776
v 0.011049 0.062806 0.011554
v 0.018923 0.044025 0.012163
v 0.020742 0.044025 -0.010859
v 0.020136 0.050692 -0.010250
v 0.012260 0.045237 -0.029041
v 0.012864 0.060384 -0.011464
v 0.018316 0.056143 0.001253
v 0.012260 0.052509 -0.029041
v 0.008020 0.061596 -0.013279
v 0.003777 0.064020 -0.007229
v 0.003777 0.051297 -0.019341
v 0.011049 0.063413 0.004282
v 0.020742 0.050692 0.000648
v 0.015894 0.058567 -0.007834
v 0.019529 0.053723 -0.006624
v 0.015894 0.058567 0.009739
v 0.007415 0.047056 -0.029041
v 0.020136 0.047663 -0.013279
v 0.014682 0.052509 -0.029041
v 0.008020 0.064020 0.010344
v 0.020742 0.047663 0.003677
v 0.012864 0.062201 -0.002381
v 0.015289 0.044634 -0.029041
v 0.003777 0.064627 0.006706
v 0.015894 0.050085 -0.029041
v 0.017711 0.057355 -0.000562
v 0.003777 0.059777 -0.016316
v 0.018316 0.048875 0.012163
v 0.006202 0.063413 -0.009040
v 0.009838 0.061596 -0.012069
v 0.009233 0.064020 -0.002381
f 631 602 633 
f 585 586 587 
f 585 587 588 
f 589 588 590 
f 585 588 591 
f 588 589 591 
f 590 587 595 
f 587 586 597 
f 588 587 600 
f 587 590 600 
f 590 588 600 
f 590 595 603 
f 595 587 604 
f 587 597 604 
f 597 586 605 
f 593 597 605 
f 594 592 607 
f 592 594 610 
f 589 590 612 
f 591 589 613 
f 594 591 613 
f 603 584 614 
f 597 593 615 
f 609 601 615 
f 598 592 616 
f 592 608 616 
f 592 598 617 
f 593 606 617 
f 606 592 617 
f 615 593 617 
f 609 615 617 
f 595 601 618 
f 584 603 618 
f 603 595 618 
f 601 609 618 
f 591 594 619 
f 607 591 619 
f 594 607 619 
f 593 605 620 
f 605 599 620 
f 606 593 620 
f 608 592 621 
f 610 589 621 
f 592 610 621 
f 589 611 621 
f 590 603 622 
f 603 614 622 
f 604 597 623 
f 597 615 623 
f 615 601 623 
f 608 596 624 
f 614 584 624 
f 584 616 624 
f 616 608 624 
f 586 585 625 
f 585 591 625 
f 605 586 625 
f 599 605 625 
f 591 607 625 
f 607 592 625 
f 612 590 626 
f 602 612 626 
f 590 622 626 
f 622 602 626 
f 592 606 627 
f 620 599 627 
f 606 620 627 
f 625 592 627 
f 599 625 627 
f 616 584 628 
f 598 616 628 
f 617 598 628 
f 609 617 628 
f 584 618 628 
f 618 609 628 
f 589 610 629 
f 610 594 629 
f 613 589 629 
f 594 613 629 
f 601 595 630 
f 595 604 630 
f 604 623 630 
f 623 601 630 
f 611 589 631 
f 589 612 631 
f 612 602 631 
f 596 608 632 
f 608 621 632 
f 621 611 632 
f 631 596 632 
f 611 631 632 
f 602 622 633 
f 622 614 633 
f 624 596 633 
f 614 624 633 
f 596 631 633 
o convex_16
v -0.002283 0.010698 0.049125
v -0.008342 -0.001420 0.027313
v -0.008342 -0.000814 0.027313
v -0.008342 0.011908 0.046093
v -0.007736 0.014334 0.042457
v -0.002283 -0.001420 0.032766
v -0.007736 -0.001420 0.034585
v -0.002283 0.012516 0.046093
v -0.002283 -0.001420 0.037009
v -0.005312 0.006457 0.044274
v -0.008342 0.014334 0.045487
v -0.007736 -0.000814 0.027313
v -0.008342 -0.000208 0.035192
v -0.002889 0.003428 0.042457
v -0.002283 -0.000814 0.032766
v -0.002283 0.012516 0.049125
v -0.005917 0.011304 0.047910
f 634 649 650 
f 636 635 637 
f 635 639 640 
f 634 639 641 
f 639 634 642 
f 640 639 642 
f 636 637 644 
f 638 636 644 
f 635 636 645 
f 636 638 645 
f 639 635 645 
f 637 635 646 
f 635 640 646 
f 640 643 646 
f 643 637 646 
f 642 634 647 
f 640 642 647 
f 643 640 647 
f 634 643 647 
f 638 641 648 
f 641 639 648 
f 645 638 648 
f 639 645 648 
f 634 641 649 
f 641 638 649 
f 638 644 649 
f 649 644 650 
f 643 634 650 
f 637 643 650 
f 644 637 650 
o convex_17
v 0.001958 0.012516 0.049731
v 0.002564 -0.001420 0.030341
v 0.003171 -0.001420 0.030341
v 0.003171 -0.001420 0.038221
v -0.002283 -0.001420 0.037009
v -0.002283 0.011909 0.045487
v -0.002283 0.009486 0.048518
v 0.003171 0.012516 0.046094
v -0.002283 -0.000813 0.032765
v 0.003171 0.008879 0.047911
v 0.002564 0.002822 0.033978
v -0.002283 0.012516 0.049122
f 658 656 662 
f 652 653 654 
f 652 654 655 
f 655 654 657 
f 656 655 657 
f 654 653 658 
f 652 655 659 
f 655 656 659 
f 651 657 660 
f 657 654 660 
f 654 658 660 
f 658 651 660 
f 653 652 661 
f 658 653 661 
f 656 658 661 
f 652 659 661 
f 659 656 661 
f 657 651 662 
f 656 657 662 
f 651 658 662 
o convex_18
v 0.015895 0.011910 0.004890
v 0.003171 0.011910 -0.022981
v 0.003171 0.017364 -0.022981
v 0.003171 0.011910 0.006710
v 0.015895 0.027059 -0.015707
v 0.003171 0.027059 0.004890
v 0.015895 0.027059 0.003678
v 0.005595 0.027059 -0.022981
v 0.015289 0.011910 -0.007232
v 0.003171 0.027059 -0.018735
v 0.010440 0.013728 -0.016314
v 0.008020 0.026451 -0.022981
v 0.015289 0.026451 -0.016919
v 0.014077 0.027059 0.004286
v 0.003777 0.011910 -0.022981
v 0.005595 0.012517 0.006710
v 0.015895 0.011910 -0.005413
v 0.008626 0.027059 0.004890
f 678 676 680 
f 665 664 666 
f 664 663 666 
f 665 666 668 
f 663 667 669 
f 667 668 669 
f 664 665 670 
f 668 667 670 
f 663 664 671 
f 665 668 672 
f 670 665 672 
f 668 670 672 
f 664 670 674 
f 670 667 674 
f 667 671 675 
f 671 673 675 
f 674 667 675 
f 663 669 676 
f 669 668 676 
f 671 664 677 
f 673 671 677 
f 664 674 677 
f 675 673 677 
f 674 675 677 
f 666 663 678 
f 668 666 678 
f 663 676 678 
f 667 663 679 
f 663 671 679 
f 671 667 679 
f 676 668 680 
f 668 678 680 
o convex_19
v 0.021349 0.014943 0.014585
v 0.015895 0.011910 -0.004195
v 0.015895 0.026451 -0.014498
v 0.017108 0.026451 0.015193
v 0.016502 0.011910 0.015193
v 0.019530 0.027059 0.009133
v 0.017714 0.026451 -0.010862
v 0.021349 0.011910 0.012769
v 0.015895 0.027059 0.004285
v 0.019530 0.027059 0.015193
v 0.016502 0.011910 -0.004195
v 0.015895 0.017364 0.010345
v 0.016502 0.027059 -0.014498
v 0.021349 0.011910 0.015193
v 0.018924 0.027059 0.000650
v 0.015895 0.011910 0.009133
v 0.016502 0.022816 0.013981
f 689 692 697 
f 685 682 688 
f 687 681 688 
f 683 682 689 
f 686 689 690 
f 684 685 690 
f 681 686 690 
f 689 684 690 
f 682 683 691 
f 688 682 691 
f 687 688 691 
f 689 682 692 
f 683 689 693 
f 689 686 693 
f 691 683 693 
f 687 691 693 
f 688 681 694 
f 685 688 694 
f 681 690 694 
f 690 685 694 
f 686 681 695 
f 681 687 695 
f 693 686 695 
f 687 693 695 
f 682 685 696 
f 685 692 696 
f 692 682 696 
f 685 684 697 
f 684 689 697 
f 692 685 697 
o convex_20
v -0.014401 0.045843 0.016407
v -0.005313 0.051902 0.029735
v -0.005920 0.051902 0.030341
v -0.011976 0.051902 0.013375
v -0.005313 0.051296 0.013375
v -0.008949 0.045843 0.024281
v -0.013188 0.050084 0.023675
v -0.010159 0.045843 0.013375
v -0.012582 0.045843 0.026099
v -0.011371 0.051902 0.026099
v -0.013794 0.045843 0.013375
v -0.005313 0.051902 0.013375
v -0.013188 0.051296 0.018830
v -0.014401 0.046449 0.023067
v -0.005313 0.051296 0.029735
v -0.007737 0.051902 0.030341
v -0.010765 0.045843 0.026704
v -0.008949 0.045843 0.019435
f 703 705 715 
f 700 699 701 
f 701 702 705 
f 703 698 705 
f 698 703 706 
f 700 701 707 
f 698 701 708 
f 705 698 708 
f 701 705 708 
f 701 699 709 
f 702 701 709 
f 699 702 709 
f 701 698 710 
f 704 707 710 
f 707 701 710 
f 698 706 711 
f 707 704 711 
f 706 707 711 
f 710 698 711 
f 704 710 711 
f 699 700 712 
f 702 699 712 
f 703 702 712 
f 707 706 713 
f 700 707 713 
f 706 703 714 
f 712 700 714 
f 703 712 714 
f 700 713 714 
f 713 706 714 
f 702 703 715 
f 705 702 715 
o convex_21
v -0.010159 0.056751 0.013375
v 0.003777 0.057356 0.045489
v 0.000140 0.057356 0.045489
v -0.001678 0.063415 0.013375
v -0.005311 0.051902 0.013375
v 0.003777 0.057960 0.013375
v -0.011977 0.051902 0.024283
v 0.003777 0.054932 0.042456
v 0.003777 0.063415 0.017619
v -0.005311 0.058566 0.031551
v -0.003495 0.053115 0.042456
v 0.000747 0.059777 0.039429
v -0.006524 0.061596 0.013982
v -0.003495 0.056145 0.043669
v -0.011977 0.051902 0.013375
v -0.004102 0.051902 0.030341
v -0.010764 0.054932 0.023676
v 0.003777 0.054932 0.038212
v 0.003777 0.063415 0.013375
v 0.003777 0.060384 0.037609
v -0.002283 0.059172 0.037609
v -0.001678 0.063415 0.014588
v -0.003495 0.054326 0.044276
v -0.012584 0.052509 0.020652
v -0.009554 0.057960 0.017619
v 0.003777 0.055540 0.045489
v -0.001678 0.053115 0.042456
v -0.006524 0.051902 0.032764
v -0.002890 0.057960 0.041246
v -0.004102 0.062809 0.013982
f 727 737 745 
f 716 719 720 
f 720 719 721 
f 721 717 723 
f 717 721 724 
f 718 717 727 
f 719 716 728 
f 716 720 730 
f 720 722 730 
f 722 720 731 
f 722 729 732 
f 720 721 733 
f 721 723 733 
f 731 720 733 
f 723 731 733 
f 721 719 734 
f 719 724 734 
f 724 721 734 
f 717 724 735 
f 727 717 735 
f 728 725 736 
f 724 719 737 
f 735 724 737 
f 727 735 737 
f 722 726 738 
f 729 722 738 
f 718 729 738 
f 716 730 739 
f 730 722 739 
f 722 732 739 
f 739 732 740 
f 725 728 740 
f 728 716 740 
f 732 725 740 
f 716 739 740 
f 717 718 741 
f 723 717 741 
f 718 738 741 
f 741 738 742 
f 731 723 742 
f 738 726 742 
f 723 741 742 
f 742 726 743 
f 726 722 743 
f 722 731 743 
f 731 742 743 
f 718 727 744 
f 729 718 744 
f 725 732 744 
f 732 729 744 
f 727 736 744 
f 736 725 744 
f 719 728 745 
f 736 727 745 
f 728 736 745 
f 737 719 745 
o convex_22
v 0.012261 0.052508 0.018225
v 0.020137 0.044631 0.024278
v 0.020137 0.044025 0.024278
v 0.012261 0.052508 0.033371
v 0.018318 0.052508 0.020649
v 0.016500 0.044025 0.012163
v 0.014684 0.044025 0.026099
v 0.017713 0.051295 0.012163
v 0.017713 0.052508 0.026705
v 0.018924 0.044025 0.012163
v 0.017713 0.044025 0.028521
v 0.014684 0.052508 0.012163
v 0.012261 0.050084 0.023068
v 0.015291 0.052508 0.031552
v 0.011654 0.051902 0.032765
v 0.014684 0.044025 0.020649
v 0.020137 0.045238 0.021256
v 0.015895 0.044025 0.028521
v 0.012866 0.051295 0.016408
v 0.019530 0.045238 0.026099
f 759 756 765 
f 746 749 750 
f 751 748 752 
f 750 749 754 
f 747 750 754 
f 748 751 755 
f 751 753 755 
f 752 748 756 
f 746 750 757 
f 750 753 757 
f 753 751 757 
f 754 749 759 
f 749 756 759 
f 749 746 760 
f 746 758 760 
f 758 752 760 
f 751 752 761 
f 752 758 761 
f 747 748 762 
f 750 747 762 
f 753 750 762 
f 748 755 762 
f 755 753 762 
f 752 756 763 
f 756 749 763 
f 749 760 763 
f 760 752 763 
f 746 757 764 
f 757 751 764 
f 758 746 764 
f 751 761 764 
f 761 758 764 
f 748 747 765 
f 747 754 765 
f 756 748 765 
f 754 759 765 
o convex_23
v 0.006201 0.063414 0.017011
v 0.017713 0.053115 0.025499
v 0.017105 0.054328 0.026102
v 0.003777 0.055538 0.045489
v 0.003777 0.057962 0.012163
v 0.014682 0.052508 0.012163
v 0.009231 0.058566 0.041242
v 0.011652 0.062201 0.012163
v 0.003777 0.064021 0.013377
v 0.011046 0.053721 0.043062
v 0.010443 0.052508 0.027919
v 0.003777 0.059779 0.040035
v 0.016500 0.054933 0.012163
v 0.011652 0.056145 0.043062
v 0.003777 0.054933 0.038215
v 0.014076 0.059779 0.016410
v 0.011046 0.052508 0.035794
v 0.017105 0.052508 0.027919
v 0.012259 0.052508 0.017617
v 0.013471 0.057962 0.029733
v 0.005595 0.057357 0.045489
v 0.009231 0.059779 0.035794
v 0.017105 0.052508 0.012163
v 0.009231 0.063414 0.012163
v 0.015895 0.057357 0.015194
v 0.005595 0.060384 0.037001
v 0.017713 0.053721 0.018224
v 0.003777 0.064021 0.012163
v 0.011046 0.054933 0.044276
v 0.003777 0.054933 0.043062
v 0.011652 0.062201 0.013377
v 0.010443 0.058566 0.038821
f 796 787 797 
f 771 770 773 
f 770 769 774 
f 774 769 777 
f 771 773 778 
f 767 768 779 
f 769 770 780 
f 776 771 782 
f 767 779 783 
f 782 771 783 
f 775 782 783 
f 770 771 784 
f 771 776 784 
f 780 770 784 
f 776 780 784 
f 779 768 785 
f 768 781 785 
f 772 777 786 
f 777 769 786 
f 779 772 786 
f 771 778 788 
f 767 783 788 
f 783 771 788 
f 773 770 789 
f 774 766 789 
f 766 787 789 
f 778 773 790 
f 773 781 790 
f 781 768 790 
f 766 774 791 
f 777 772 791 
f 774 777 791 
f 787 766 791 
f 772 787 791 
f 768 767 792 
f 767 788 792 
f 788 778 792 
f 790 768 792 
f 778 790 792 
f 770 774 793 
f 789 770 793 
f 774 789 793 
f 769 775 794 
f 783 779 794 
f 775 783 794 
f 786 769 794 
f 779 786 794 
f 775 769 795 
f 769 780 795 
f 780 776 795 
f 782 775 795 
f 776 782 795 
f 781 773 796 
f 785 781 796 
f 773 789 796 
f 789 787 796 
f 772 779 797 
f 779 785 797 
f 787 772 797 
f 785 796 797 
