o convex_0
v -0.013035 -0.014018 -0.027077
v 0.038518 0.021188 -0.044052
v 0.038518 0.020559 -0.041537
v 0.038518 -0.024081 -0.045935
v -0.037558 0.020559 -0.045935
v 0.019026 0.021188 -0.024562
v -0.036927 -0.024081 -0.045935
v -0.037558 0.003583 -0.030222
v 0.038518 -0.010247 -0.030850
v -0.017435 0.021188 -0.024562
v 0.015249 -0.022823 -0.033367
v 0.013364 -0.007105 -0.024562
v -0.036927 -0.018423 -0.034625
v 0.039148 0.019930 -0.045939
v -0.020581 0.000437 -0.024562
v 0.039141 0.006724 -0.031480
v -0.013659 -0.022823 -0.033367
v -0.037558 0.016154 -0.035876
v 0.024056 -0.019048 -0.030850
v 0.023426 0.005466 -0.024562
v 0.039141 -0.020935 -0.039021
v -0.037558 -0.011506 -0.031480
v -0.036927 0.021188 -0.044052
v 0.038518 0.016154 -0.035251
v -0.035666 -0.024081 -0.042794
v -0.016805 -0.010247 -0.025820
v -0.023720 -0.019677 -0.031480
v 0.038518 -0.000822 -0.029592
v 0.019649 -0.011506 -0.026449
v 0.037256 -0.024081 -0.042794
v 0.038518 -0.020935 -0.037134
v -0.037558 -0.022194 -0.039651
v -0.001720 -0.008989 -0.024562
v 0.013995 -0.015277 -0.027707
v 0.022172 -0.000822 -0.024562
v -0.021212 0.014900 -0.024562
v -0.036927 -0.003330 -0.029592
v -0.036927 0.009871 -0.031480
v 0.023426 0.013642 -0.024562
v 0.038518 0.021188 -0.045935
v -0.004236 -0.020935 -0.031480
v -0.036927 0.019930 -0.039651
v 0.038518 -0.015277 -0.032740
v 0.038518 0.011125 -0.032110
v 0.039141 -0.022823 -0.045935
v -0.037558 -0.023452 -0.045935
v -0.036927 -0.010876 -0.030850
v -0.021835 -0.018423 -0.030222
v -0.035666 -0.022194 -0.038392
v 0.039141 -0.009618 -0.031480
v 0.038518 0.004837 -0.030222
v -0.036927 0.021188 -0.045935
v -0.013659 -0.006476 -0.024562
v 0.038518 0.018042 -0.037134
v 0.015880 -0.021565 -0.032110
v 0.037887 -0.022823 -0.039651
v -0.021835 0.007354 -0.024562
v -0.036927 0.013642 -0.033367
v -0.036927 -0.012764 -0.031480
v 0.020280 0.019930 -0.024562
v 0.038518 -0.007730 -0.030222
v -0.013035 -0.015277 -0.027707
v 0.039148 0.018042 -0.039021
v 0.024687 -0.020306 -0.032110
f 56 31 64 
f 3 2 6 
f 6 2 10 
f 6 10 12 
f 2 3 14 
f 4 7 14 
f 12 10 15 
f 5 8 18 
f 6 12 20 
f 8 5 22 
f 10 2 23 
f 7 4 25 
f 11 17 25 
f 25 4 30 
f 11 25 30 
f 22 5 32 
f 13 22 32 
f 7 25 32 
f 12 15 33 
f 26 1 33 
f 29 12 33 
f 29 33 34 
f 19 29 34 
f 33 1 34 
f 20 12 35 
f 28 20 35 
f 12 29 35 
f 15 10 36 
f 8 22 37 
f 36 8 37 
f 18 8 38 
f 8 36 38 
f 36 10 38 
f 6 20 39 
f 20 28 39 
f 2 14 40 
f 23 2 40 
f 17 11 41 
f 5 18 42 
f 18 10 42 
f 23 5 42 
f 10 23 42 
f 9 29 43 
f 29 19 43 
f 19 31 43 
f 31 21 43 
f 16 24 44 
f 4 14 45 
f 21 4 45 
f 5 14 46 
f 14 7 46 
f 32 5 46 
f 7 32 46 
f 26 15 47 
f 15 37 47 
f 37 22 47 
f 1 26 48 
f 27 17 48 
f 13 27 48 
f 17 41 48 
f 25 17 49 
f 17 27 49 
f 27 13 49 
f 13 32 49 
f 32 25 49 
f 16 28 50 
f 9 43 50 
f 43 21 50 
f 28 16 51 
f 39 28 51 
f 16 44 51 
f 14 5 52 
f 5 23 52 
f 40 14 52 
f 23 40 52 
f 15 26 53 
f 33 15 53 
f 26 33 53 
f 3 6 54 
f 6 24 54 
f 19 34 55 
f 41 11 55 
f 34 41 55 
f 4 21 56 
f 11 30 56 
f 30 4 56 
f 21 31 56 
f 15 36 57 
f 37 15 57 
f 36 37 57 
f 10 18 58 
f 18 38 58 
f 38 10 58 
f 22 13 59 
f 47 22 59 
f 26 47 59 
f 48 26 59 
f 13 48 59 
f 24 6 60 
f 6 39 60 
f 44 24 60 
f 39 51 60 
f 51 44 60 
f 29 9 61 
f 28 35 61 
f 35 29 61 
f 50 28 61 
f 9 50 61 
f 34 1 62 
f 41 34 62 
f 1 48 62 
f 48 41 62 
f 14 3 63 
f 24 16 63 
f 45 14 63 
f 21 45 63 
f 16 50 63 
f 50 21 63 
f 3 54 63 
f 54 24 63 
f 31 19 64 
f 55 11 64 
f 19 55 64 
f 11 56 64 
o convex_1
v 0.012741 0.026221 -0.024562
v -0.009262 0.024962 -0.045937
v -0.009262 0.026847 -0.045937
v -0.016810 0.021817 -0.024562
v -0.001717 0.036907 -0.044680
v 0.012741 0.021188 -0.043422
v 0.018400 0.021188 -0.024562
v 0.007709 0.034389 -0.045937
v -0.006119 0.028107 -0.024562
v -0.008007 0.021188 -0.045937
v -0.016810 0.021188 -0.034624
v -0.005491 0.035648 -0.045937
v 0.017769 0.023076 -0.035877
v 0.007709 0.028107 -0.024562
v 0.009598 0.021188 -0.045937
v 0.005824 0.036277 -0.044680
v -0.011778 0.026221 -0.025194
v -0.016810 0.021188 -0.024562
v -0.016179 0.023076 -0.035877
v 0.002680 0.028735 -0.024562
v 0.010852 0.028735 -0.045307
v 0.015253 0.024962 -0.024562
v 0.018400 0.021188 -0.034624
v 0.003308 0.036907 -0.044680
v -0.012408 0.021188 -0.042165
v -0.009262 0.030618 -0.044680
v -0.005491 0.035648 -0.044680
v 0.010221 0.031874 -0.042165
v 0.018400 0.021817 -0.024562
v -0.008631 0.027476 -0.024562
v -0.001717 0.028735 -0.024562
v -0.013663 0.024962 -0.024562
v -0.007377 0.033760 -0.043422
v 0.003308 0.036907 -0.045937
f 88 80 98 
f 65 68 71 
f 66 67 72 
f 68 65 73 
f 70 71 74 
f 66 72 74 
f 74 71 75 
f 72 67 76 
f 73 65 78 
f 70 74 79 
f 74 72 79 
f 78 65 80 
f 71 68 82 
f 68 75 82 
f 75 71 82 
f 75 68 83 
f 73 78 84 
f 77 70 85 
f 72 77 85 
f 70 79 85 
f 79 72 85 
f 65 71 86 
f 80 65 86 
f 71 70 87 
f 70 77 87 
f 78 80 88 
f 69 84 88 
f 84 78 88 
f 67 66 89 
f 66 74 89 
f 74 75 89 
f 83 67 89 
f 75 83 89 
f 76 67 90 
f 67 83 90 
f 69 76 91 
f 77 72 92 
f 72 80 92 
f 80 86 92 
f 92 86 93 
f 86 71 93 
f 71 87 93 
f 87 77 93 
f 77 92 93 
f 68 73 94 
f 73 69 94 
f 69 91 94 
f 91 81 94 
f 69 73 95 
f 84 69 95 
f 73 84 95 
f 81 91 96 
f 68 94 96 
f 94 81 96 
f 83 68 97 
f 76 90 97 
f 90 83 97 
f 91 76 97 
f 68 96 97 
f 96 91 97 
f 72 76 98 
f 76 69 98 
f 80 72 98 
f 69 88 98 
o convex_2
v 0.009592 -0.026596 -0.003814
v 0.007079 0.028104 -0.023932
v 0.007079 0.028104 -0.024562
v -0.035672 0.005466 -0.003814
v 0.033484 0.011752 -0.003814
v 0.003306 -0.009618 -0.024562
v -0.021206 0.000443 -0.024562
v -0.024979 0.023697 -0.003814
v 0.024685 0.004834 -0.024562
v -0.016179 -0.021558 -0.008217
v 0.034118 -0.014019 -0.004443
v -0.019326 0.022439 -0.023303
v 0.007705 0.024956 -0.003814
v 0.030345 0.016785 -0.016385
v 0.015885 -0.019047 -0.014501
v -0.026239 -0.014014 -0.003814
v -0.006746 -0.020305 -0.015128
v 0.036631 0.002949 -0.009474
v -0.030639 0.014895 -0.013247
v 0.020278 -0.009612 -0.020788
v -0.005486 0.028104 -0.024562
v -0.026865 -0.007733 -0.013247
v 0.025938 0.021186 -0.017642
v -0.011773 -0.012134 -0.021418
v -0.006113 0.026214 -0.003814
v 0.020912 0.021807 -0.023932
v -0.023092 0.006724 -0.024562
v -0.006113 -0.025965 -0.003814
v -0.035038 0.000443 -0.005700
v 0.010226 -0.025333 -0.008844
v 0.002046 -0.014019 -0.022675
v -0.023092 0.023697 -0.017642
v -0.031265 0.019296 -0.004443
v 0.036631 -0.010244 -0.003814
v -0.004233 -0.025338 -0.009476
v 0.022165 -0.001441 -0.024562
v 0.019651 -0.022822 -0.007587
v -0.019953 -0.008354 -0.020159
v 0.037257 0.006092 -0.003814
v 0.013999 0.023071 -0.003814
v 0.035371 -0.002700 -0.010103
v -0.024979 -0.014645 -0.008217
v 0.032231 0.014268 -0.005700
v 0.024685 -0.014640 -0.013247
v -0.024352 0.024329 -0.005700
v 0.010852 -0.012761 -0.022046
v 0.006452 -0.020937 -0.015128
v -0.018693 -0.015277 -0.014501
v -0.006113 -0.008359 -0.024562
v -0.021206 0.014895 -0.024562
v 0.019651 -0.023448 -0.003814
v 0.034744 -0.010244 -0.006960
v -0.034412 0.014268 -0.003814
v -0.033152 0.009862 -0.010101
v 0.023425 0.013637 -0.024562
v 0.032858 0.012384 -0.014501
v -0.016179 -0.022190 -0.003814
v -0.027492 0.019296 -0.015758
v 0.000166 0.026214 -0.003814
v 0.027832 0.019296 -0.012616
v -0.001720 -0.014019 -0.022675
v 0.034744 0.011752 -0.008846
v -0.000460 0.028104 -0.020788
v -0.035038 -0.000810 -0.004443
f 120 140 162 
f 102 99 103 
f 101 104 105 
f 102 103 106 
f 104 101 107 
f 106 103 111 
f 99 102 114 
f 100 101 119 
f 101 105 119 
f 101 100 121 
f 106 111 123 
f 101 121 124 
f 121 112 124 
f 119 105 125 
f 99 114 126 
f 105 120 127 
f 125 105 127 
f 119 110 130 
f 103 99 132 
f 108 115 133 
f 99 126 133 
f 126 108 133 
f 128 99 133 
f 104 107 134 
f 99 128 135 
f 128 113 135 
f 120 105 136 
f 105 122 136 
f 103 132 137 
f 132 116 137 
f 100 111 138 
f 111 103 138 
f 121 100 138 
f 107 116 139 
f 116 132 139 
f 134 107 139 
f 138 103 141 
f 113 118 142 
f 109 135 142 
f 135 113 142 
f 106 123 143 
f 123 119 143 
f 119 130 143 
f 131 106 143 
f 130 131 143 
f 118 113 144 
f 129 104 144 
f 104 134 144 
f 134 118 144 
f 113 128 145 
f 128 133 145 
f 144 113 145 
f 129 144 145 
f 115 108 146 
f 122 115 146 
f 120 136 146 
f 136 122 146 
f 108 140 146 
f 140 120 146 
f 105 104 147 
f 122 105 147 
f 110 119 148 
f 125 117 148 
f 119 125 148 
f 132 99 149 
f 109 132 149 
f 99 135 149 
f 135 109 149 
f 132 109 150 
f 118 134 150 
f 139 132 150 
f 134 139 150 
f 142 118 150 
f 109 142 150 
f 102 106 151 
f 106 131 151 
f 117 125 152 
f 127 102 152 
f 125 127 152 
f 102 151 152 
f 151 117 152 
f 107 101 153 
f 101 124 153 
f 124 112 153 
f 116 107 154 
f 107 153 154 
f 153 112 154 
f 126 114 155 
f 108 126 155 
f 140 108 155 
f 114 140 155 
f 130 110 156 
f 131 130 156 
f 110 148 156 
f 148 117 156 
f 117 151 156 
f 151 131 156 
f 111 100 157 
f 123 111 157 
f 112 121 158 
f 121 138 158 
f 138 141 158 
f 115 122 159 
f 104 129 159 
f 133 115 159 
f 129 145 159 
f 145 133 159 
f 147 104 159 
f 122 147 159 
f 103 137 160 
f 137 116 160 
f 141 103 160 
f 116 154 160 
f 154 112 160 
f 112 158 160 
f 158 141 160 
f 100 119 161 
f 119 123 161 
f 157 100 161 
f 123 157 161 
f 114 102 162 
f 102 127 162 
f 127 120 162 
f 140 114 162 
o convex_3
v -0.014294 -0.025961 -0.002556
v 0.000793 0.026847 0.020077
v 0.002678 0.026209 0.023222
v 0.037889 -0.004591 -0.003814
v 0.002678 -0.029101 0.026995
v -0.034411 0.014264 -0.003814
v -0.026863 -0.010245 0.026995
v 0.026572 0.003582 0.026995
v 0.015255 0.022438 -0.003814
v 0.027198 -0.029107 0.014416
v -0.027497 0.023701 0.015047
v -0.038181 -0.002703 0.010020
v 0.001419 -0.028475 -0.003814
v -0.014294 0.021813 0.026995
v 0.035371 0.009236 -0.001926
v -0.023093 0.024327 -0.003814
v -0.018064 -0.027224 0.010020
v -0.033785 0.011750 0.021331
v 0.034112 -0.015273 0.018192
v 0.034112 -0.017788 -0.001926
v 0.013370 0.020556 0.026995
v 0.005822 -0.032247 0.003105
v -0.035036 -0.001446 -0.003814
v 0.025939 -0.020933 0.023849
v 0.038515 -0.006474 0.009392
v -0.000459 0.026209 -0.003814
v -0.030007 -0.015273 0.004989
v -0.036296 0.015522 0.008135
v -0.024352 -0.020307 0.016931
v -0.006113 -0.032247 0.010020
v 0.020909 -0.031621 0.016931
v 0.025939 -0.028475 0.005620
v 0.024054 0.011125 0.026365
v 0.037256 -0.016530 0.005620
v -0.010517 0.026841 0.018819
v -0.002969 -0.027850 0.026995
v 0.013370 -0.028475 -0.002556
v 0.031601 0.013007 -0.003814
v -0.038814 0.007348 0.007507
v -0.036296 0.001688 0.018819
v 0.025313 -0.009614 0.026995
v -0.023093 -0.020307 -0.001926
v -0.027497 0.024327 0.004989
v -0.004228 0.025584 0.026995
v 0.037889 0.000431 0.006250
v 0.024679 -0.027850 0.020704
v 0.032227 -0.016530 -0.003814
v -0.028756 0.014264 0.023849
v 0.032860 -0.024079 0.011901
v -0.023727 0.025584 0.007507
v 0.008333 -0.032247 0.017559
v -0.038181 0.001062 0.001220
v -0.014294 -0.027844 0.016304
v -0.036296 -0.005211 0.013789
v -0.030007 0.020556 0.018192
v -0.036296 -0.005211 0.001847
v -0.008632 -0.030364 0.003105
v -0.019323 -0.020302 -0.003814
v 0.020909 -0.031621 0.010020
v -0.036921 0.011750 0.015047
v -0.021834 -0.024073 0.003735
v 0.037889 0.004208 -0.003814
v -0.028756 0.021813 -0.003814
v -0.024352 -0.013391 0.026995
f 215 198 226 
f 169 167 170 
f 164 165 171 
f 166 168 171 
f 168 166 175 
f 169 170 176 
f 171 168 178 
f 171 165 183 
f 176 170 183 
f 168 175 185 
f 170 181 187 
f 164 171 188 
f 171 178 188 
f 183 170 195 
f 177 183 195 
f 182 166 196 
f 166 187 196 
f 187 181 196 
f 164 188 197 
f 167 169 198 
f 192 167 198 
f 184 175 199 
f 182 194 199 
f 166 171 200 
f 171 183 200 
f 183 177 200 
f 190 168 201 
f 169 180 202 
f 201 174 202 
f 170 167 203 
f 181 170 203 
f 167 186 203 
f 186 181 203 
f 190 173 205 
f 165 164 206 
f 173 176 206 
f 183 165 206 
f 176 183 206 
f 164 197 206 
f 197 173 206 
f 170 187 207 
f 195 170 207 
f 177 195 207 
f 186 167 208 
f 181 186 208 
f 193 172 208 
f 167 193 208 
f 175 166 209 
f 166 182 209 
f 199 175 209 
f 182 199 209 
f 169 176 210 
f 180 169 210 
f 194 182 211 
f 172 194 211 
f 196 181 211 
f 182 196 211 
f 208 172 211 
f 181 208 211 
f 188 178 212 
f 173 197 212 
f 197 188 212 
f 178 205 212 
f 205 173 212 
f 167 192 213 
f 192 184 213 
f 193 167 213 
f 168 185 214 
f 174 201 214 
f 201 168 214 
f 191 179 215 
f 179 192 215 
f 192 198 215 
f 174 189 216 
f 191 169 216 
f 189 191 216 
f 169 202 216 
f 202 174 216 
f 176 173 217 
f 173 190 217 
f 210 176 217 
f 180 210 217 
f 189 174 218 
f 185 204 218 
f 204 189 218 
f 214 185 218 
f 174 214 218 
f 163 175 219 
f 175 184 219 
f 192 179 219 
f 184 192 219 
f 175 163 220 
f 185 175 220 
f 163 204 220 
f 204 185 220 
f 172 193 221 
f 194 172 221 
f 184 199 221 
f 199 194 221 
f 213 184 221 
f 193 213 221 
f 190 201 222 
f 202 180 222 
f 201 202 222 
f 217 190 222 
f 180 217 222 
f 179 191 223 
f 191 189 223 
f 204 163 223 
f 189 204 223 
f 163 219 223 
f 219 179 223 
f 187 166 224 
f 166 200 224 
f 200 177 224 
f 177 207 224 
f 207 187 224 
f 178 168 225 
f 168 190 225 
f 205 178 225 
f 190 205 225 
f 169 191 226 
f 198 169 226 
f 191 215 226 
o convex_4
v 0.012740 -0.023453 0.031400
v 0.003937 0.024960 0.027624
v 0.003937 0.024325 0.030141
v -0.032528 -0.003326 0.032027
v 0.014623 0.002322 0.049630
v -0.027491 -0.010876 0.049630
v -0.015552 0.011748 0.049630
v -0.015552 -0.023453 0.027624
v 0.025945 0.004839 0.026995
v 0.007080 -0.023453 0.049630
v -0.013663 0.021814 0.026995
v -0.021212 -0.023453 0.042710
v 0.021538 -0.010245 0.042083
v 0.009592 0.016151 0.043339
v 0.022797 -0.012757 0.026995
v -0.028121 -0.008359 0.026995
v -0.032528 -0.001440 0.038312
v -0.006113 0.020558 0.042083
v 0.020908 0.010492 0.036427
v 0.002678 0.013009 0.049630
v 0.015883 0.018667 0.026995
v -0.018064 0.015525 0.040198
v 0.007709 -0.023453 0.026995
v 0.017771 -0.019045 0.039566
v 0.016512 -0.012131 0.049630
v 0.022167 0.000436 0.042083
v -0.005490 -0.023453 0.049630
v -0.019953 -0.023453 0.031400
v -0.018694 0.016781 0.026995
v 0.025945 -0.005843 0.027624
v -0.026238 -0.014643 0.049000
v -0.006113 0.024960 0.026995
v 0.008963 0.020558 0.036427
v 0.015883 0.007981 0.045856
v -0.023719 -0.000189 0.049630
v -0.012404 0.019297 0.040825
v -0.001094 0.019923 0.043339
v 0.013994 -0.023453 0.037058
v -0.008002 0.016786 0.047110
v 0.022167 0.013009 0.027624
v 0.015883 0.014895 0.038312
v 0.022797 -0.005217 0.041452
v 0.019655 -0.002071 0.046483
v -0.000464 0.022439 0.038312
v -0.030639 -0.002696 0.029514
v -0.031269 -0.002071 0.041452
v -0.032528 -0.001440 0.032654
v -0.021836 -0.016529 0.026995
v 0.008963 0.010492 0.049000
v -0.022466 0.011123 0.038937
v 0.020908 -0.014017 0.038937
v 0.021538 0.004209 0.041452
v -0.017435 0.009867 0.049630
v 0.003937 0.019293 0.042710
v 0.013370 -0.017164 0.049630
v 0.024056 0.000436 0.037058
v 0.025315 0.007351 0.027624
v -0.024349 -0.018420 0.046483
v 0.013994 0.019297 0.030768
v -0.019953 0.013009 0.041452
v -0.003601 0.014895 0.049000
v -0.006743 0.021814 0.038937
v -0.008632 0.024325 0.027624
v -0.010521 -0.023453 0.026995
f 274 249 290 
f 232 231 233 
f 231 232 236 
f 234 227 236 
f 234 236 238 
f 237 235 241 
f 237 241 242 
f 233 231 246 
f 235 237 247 
f 227 234 249 
f 241 227 249 
f 242 241 249 
f 231 236 251 
f 250 239 251 
f 236 232 253 
f 238 236 253 
f 238 230 254 
f 234 238 254 
f 230 242 254 
f 237 242 255 
f 248 237 255 
f 241 235 256 
f 243 230 257 
f 232 243 257 
f 253 232 257 
f 228 247 258 
f 247 237 258 
f 228 229 259 
f 232 233 261 
f 248 233 262 
f 237 248 262 
f 236 227 264 
f 227 241 264 
f 250 236 264 
f 241 250 264 
f 262 233 265 
f 244 262 265 
f 263 244 265 
f 235 247 266 
f 259 240 267 
f 240 260 267 
f 260 245 267 
f 245 266 267 
f 251 239 268 
f 239 256 268 
f 231 251 269 
f 260 231 269 
f 251 268 269 
f 268 252 269 
f 229 228 270 
f 228 258 270 
f 259 229 270 
f 244 263 270 
f 242 230 271 
f 255 242 271 
f 243 232 272 
f 232 261 272 
f 230 243 273 
f 243 255 273 
f 271 230 273 
f 255 271 273 
f 242 249 274 
f 234 254 274 
f 254 242 274 
f 246 231 275 
f 240 246 275 
f 260 240 275 
f 231 260 275 
f 255 243 276 
f 248 255 276 
f 239 250 277 
f 250 241 277 
f 241 256 277 
f 256 239 277 
f 245 260 278 
f 260 269 278 
f 269 252 278 
f 261 233 279 
f 272 261 279 
f 246 240 280 
f 240 259 280 
f 263 246 280 
f 259 270 280 
f 270 263 280 
f 236 250 281 
f 251 236 281 
f 250 251 281 
f 256 235 282 
f 252 268 282 
f 268 256 282 
f 278 252 282 
f 278 282 283 
f 235 266 283 
f 266 245 283 
f 245 278 283 
f 282 235 283 
f 230 238 284 
f 238 253 284 
f 257 230 284 
f 253 257 284 
f 247 228 285 
f 228 259 285 
f 266 247 285 
f 267 266 285 
f 259 267 285 
f 233 248 286 
f 243 272 286 
f 248 276 286 
f 276 243 286 
f 279 233 286 
f 272 279 286 
f 233 246 287 
f 246 263 287 
f 265 233 287 
f 263 265 287 
f 262 244 288 
f 270 258 288 
f 244 270 288 
f 258 237 289 
f 237 262 289 
f 262 288 289 
f 288 258 289 
f 249 234 290 
f 234 274 290 
o convex_5
v -0.013038 0.017413 0.055915
v -0.028127 -0.008360 0.050888
v -0.028127 -0.008360 0.051517
v -0.009893 -0.019052 0.049630
v -0.011780 0.013639 0.049630
v -0.019953 0.022445 0.059689
v -0.009893 -0.010875 0.053404
v -0.023096 0.002318 0.049630
v -0.026869 0.001697 0.055287
v -0.009893 0.013014 0.052145
v -0.019953 0.021816 0.057802
v -0.018698 0.019302 0.059689
v -0.026869 -0.012134 0.049630
v -0.026869 0.003578 0.053404
v -0.018698 0.009240 0.049630
v -0.010523 -0.015278 0.052145
v -0.021209 0.015528 0.059060
v -0.009893 0.000442 0.054032
v -0.009893 0.012384 0.049630
v -0.016811 0.021186 0.059060
v -0.013038 0.018042 0.053404
v -0.027497 -0.008360 0.052145
v -0.010523 -0.019052 0.050259
v -0.027497 -0.007105 0.049630
v -0.014925 0.013014 0.049630
v -0.026239 0.001071 0.055287
v -0.024982 0.006096 0.052774
v -0.027497 0.001697 0.054660
v -0.026869 -0.003332 0.054032
v -0.026869 -0.012134 0.050259
f 303 313 320 
f 295 294 298 
f 297 294 300 
f 293 292 303 
f 298 294 303 
f 296 301 304 
f 295 298 305 
f 294 297 306 
f 296 299 307 
f 302 296 307 
f 297 302 307 
f 300 291 308 
f 297 300 308 
f 294 295 309 
f 300 294 309 
f 296 302 310 
f 302 297 310 
f 308 291 310 
f 297 308 310 
f 291 300 311 
f 301 296 311 
f 309 295 311 
f 300 309 311 
f 310 291 311 
f 296 310 311 
f 306 312 313 
f 303 294 313 
f 294 306 313 
f 303 292 314 
f 298 303 314 
f 292 304 314 
f 305 301 315 
f 295 305 315 
f 311 295 315 
f 301 311 315 
f 307 299 316 
f 297 307 316 
f 304 301 317 
f 301 305 317 
f 305 298 317 
f 298 314 317 
f 314 304 317 
f 292 293 318 
f 299 296 318 
f 304 292 318 
f 296 304 318 
f 306 297 319 
f 293 312 319 
f 312 306 319 
f 297 316 319 
f 316 299 319 
f 318 293 319 
f 299 318 319 
f 293 303 320 
f 312 293 320 
f 313 312 320 
o convex_6
v -0.017438 -0.025968 0.028252
v -0.013667 -0.023453 0.044600
v -0.014924 -0.023453 0.044600
v -0.019324 -0.029740 0.033912
v -0.020582 -0.023453 0.042084
v -0.013667 -0.027853 0.043340
v -0.013667 -0.023453 0.028883
v -0.020582 -0.023453 0.031397
v -0.013667 -0.027225 0.031397
v -0.020582 -0.029740 0.029510
v -0.018695 -0.029740 0.028883
v -0.020582 -0.029111 0.035170
v -0.020582 -0.024082 0.042084
f 332 326 333 
f 323 322 325 
f 322 323 326 
f 325 322 327 
f 322 326 327 
f 327 321 328 
f 325 327 328 
f 327 326 329 
f 328 321 330 
f 325 328 330 
f 326 324 331 
f 321 327 331 
f 329 326 331 
f 327 329 331 
f 324 330 331 
f 330 321 331 
f 324 326 332 
f 330 324 332 
f 325 330 332 
f 323 325 333 
f 326 323 333 
f 325 332 333 
o convex_7
v 0.012741 0.003581 0.050259
v -0.009893 -0.019679 0.049630
v -0.003605 -0.029108 0.049630
v 0.013370 -0.021563 0.056546
v -0.009893 0.005465 0.053401
v 0.014628 -0.016536 0.049630
v -0.009893 0.012382 0.049630
v -0.009893 -0.011506 0.053401
v 0.003308 0.004833 0.053401
v 0.006452 -0.027853 0.054030
v 0.014628 -0.017792 0.056546
v 0.007081 0.009863 0.049630
v -0.005491 0.000434 0.054659
v 0.010225 -0.026593 0.052774
v 0.014628 -0.000194 0.049630
v -0.001718 0.013010 0.050259
v 0.002057 -0.029108 0.049630
v 0.014628 -0.023450 0.055917
v -0.000460 -0.029740 0.051516
v -0.009893 -0.007112 0.054030
v -0.009893 0.010495 0.052145
v -0.001089 0.001690 0.054659
v 0.007081 0.007348 0.051516
v 0.014628 -0.014649 0.055917
v -0.009893 -0.017164 0.051516
v 0.014628 -0.022822 0.053401
v 0.002677 0.009863 0.051516
v 0.009597 -0.025337 0.055287
v 0.003937 -0.028480 0.053401
v -0.006120 -0.005856 0.054659
v 0.000168 0.004205 0.054030
v 0.010225 -0.022822 0.050259
f 359 347 365 
f 336 335 339 
f 335 338 340 
f 339 335 340 
f 338 335 341 
f 339 340 345 
f 337 344 346 
f 344 339 348 
f 345 334 348 
f 339 345 348 
f 345 340 349 
f 336 339 350 
f 347 343 350 
f 344 337 351 
f 339 344 351 
f 343 347 351 
f 336 350 352 
f 350 343 352 
f 338 341 353 
f 346 338 353 
f 340 338 354 
f 349 340 354 
f 338 346 355 
f 346 344 355 
f 354 338 355 
f 334 345 356 
f 348 334 357 
f 344 348 357 
f 334 356 357 
f 356 342 357 
f 335 336 358 
f 341 335 358 
f 336 352 358 
f 352 341 358 
f 339 351 359 
f 351 347 359 
f 345 349 360 
f 349 354 360 
f 342 356 360 
f 356 345 360 
f 351 337 361 
f 343 351 361 
f 337 353 361 
f 353 341 361 
f 341 352 362 
f 352 343 362 
f 361 341 362 
f 343 361 362 
f 337 346 363 
f 353 337 363 
f 346 353 363 
f 355 344 364 
f 354 355 364 
f 344 357 364 
f 357 342 364 
f 342 360 364 
f 360 354 364 
f 350 339 365 
f 347 350 365 
f 339 359 365 
o convex_8
v 0.025316 -0.009621 0.057802
v 0.014628 -0.022824 0.054032
v 0.014628 -0.022824 0.055915
v 0.014628 -0.003962 0.049630
v 0.018400 -0.011508 0.050259
v 0.014628 -0.011508 0.055287
v 0.027831 -0.013393 0.059689
v 0.026574 -0.013393 0.057175
v 0.015257 -0.015278 0.049630
v 0.022170 -0.014021 0.059060
v 0.020288 -0.008363 0.051517
v 0.023429 -0.010250 0.058431
v 0.015885 -0.020937 0.057175
v 0.016516 -0.022194 0.054660
v 0.015257 -0.007106 0.053404
v 0.027202 -0.010878 0.057802
v 0.014628 -0.016535 0.056545
v 0.015885 -0.021565 0.053404
v 0.017773 -0.008993 0.049630
v 0.024058 -0.016535 0.059060
f 379 372 385 
f 367 368 369 
f 369 368 371 
f 367 369 374 
f 370 373 374 
f 373 370 376 
f 366 369 377 
f 372 366 377 
f 371 375 377 
f 375 372 377 
f 368 367 379 
f 373 372 379 
f 369 371 380 
f 377 369 380 
f 371 377 380 
f 369 366 381 
f 366 372 381 
f 372 373 381 
f 376 369 381 
f 373 376 381 
f 371 368 382 
f 375 371 382 
f 368 378 382 
f 378 375 382 
f 367 374 383 
f 374 373 383 
f 379 367 383 
f 373 379 383 
f 374 369 384 
f 370 374 384 
f 369 376 384 
f 376 370 384 
f 372 375 385 
f 378 368 385 
f 375 378 385 
f 368 379 385 
o convex_9
v 0.006456 -0.025968 0.026995
v 0.012741 -0.023453 0.038937
v 0.012741 -0.024083 0.038937
v 0.001424 -0.023453 0.049630
v 0.008339 -0.032254 0.038937
v 0.001424 -0.023453 0.026995
v 0.001424 -0.029110 0.026995
v 0.001424 -0.027853 0.049630
v 0.009596 -0.032254 0.032654
v 0.007083 -0.024083 0.049630
v 0.012111 -0.023453 0.031400
v 0.008339 -0.030996 0.029514
v 0.008339 -0.030996 0.041452
v 0.008339 -0.023453 0.027624
v 0.002053 -0.029739 0.027624
v 0.001424 -0.028482 0.046483
v 0.007710 -0.032254 0.038937
v 0.012741 -0.024083 0.032654
v 0.009596 -0.032254 0.036427
v 0.002682 -0.027853 0.049630
v 0.007710 -0.032254 0.032027
v 0.007083 -0.023453 0.049630
f 389 395 407 
f 389 387 391 
f 391 386 392 
f 389 391 392 
f 389 392 393 
f 388 387 395 
f 389 393 395 
f 391 387 396 
f 392 386 397 
f 388 395 398 
f 386 391 399 
f 391 396 399 
f 396 397 399 
f 397 386 399 
f 392 397 400 
f 393 392 401 
f 392 400 401 
f 401 400 402 
f 390 393 402 
f 394 390 402 
f 393 401 402 
f 387 388 403 
f 388 394 403 
f 396 387 403 
f 394 397 403 
f 397 396 403 
f 394 388 404 
f 390 394 404 
f 388 398 404 
f 398 390 404 
f 393 390 405 
f 395 393 405 
f 390 398 405 
f 398 395 405 
f 397 394 406 
f 400 397 406 
f 402 400 406 
f 394 402 406 
f 387 389 407 
f 395 387 407 
o convex_10
v -0.003608 -0.025968 0.040196
v -0.009892 -0.024082 0.026995
v -0.009892 -0.023453 0.026995
v 0.001424 -0.023453 0.026995
v 0.001424 -0.029110 0.026995
v 0.001424 -0.023453 0.040827
v -0.013666 -0.024082 0.040827
v -0.013666 -0.026596 0.033284
v -0.013666 -0.023453 0.029511
v -0.008007 -0.027853 0.028253
v 0.001424 -0.025340 0.040827
v 0.000165 -0.029110 0.028882
v -0.013666 -0.023453 0.040827
f 413 416 420 
f 409 410 411 
f 409 411 412 
f 411 410 413 
f 412 411 413 
f 408 414 415 
f 415 414 416 
f 410 409 416 
f 413 410 416 
f 409 412 417 
f 415 416 417 
f 416 409 417 
f 412 413 418 
f 414 408 418 
f 413 414 418 
f 408 415 419 
f 417 412 419 
f 415 417 419 
f 418 408 419 
f 412 418 419 
f 414 413 420 
f 416 414 420 
o convex_11
v -0.004236 -0.029740 0.049630
v -0.013666 -0.025340 0.040827
v -0.013666 -0.027225 0.041457
v 0.001424 -0.025968 0.040827
v -0.005495 -0.023453 0.049630
v 0.001424 -0.023453 0.049630
v 0.001424 -0.023453 0.040827
v -0.013666 -0.023453 0.045228
v 0.001424 -0.028482 0.045228
v -0.013035 -0.028482 0.043342
v -0.013666 -0.023453 0.040827
v 0.001424 -0.028482 0.049630
v -0.008634 -0.028482 0.047743
v -0.004236 -0.029740 0.047115
f 430 429 434 
f 423 422 424 
f 425 421 426 
f 424 422 427 
f 425 426 427 
f 426 424 427 
f 422 423 428 
f 425 427 428 
f 424 426 429 
f 423 424 430 
f 428 423 430 
f 424 429 430 
f 427 422 431 
f 422 428 431 
f 428 427 431 
f 426 421 432 
f 421 429 432 
f 429 426 432 
f 421 425 433 
f 425 428 433 
f 430 421 433 
f 428 430 433 
f 429 421 434 
f 421 430 434 
