o convex_0
v 0.037580 -0.017864 -0.010065
v 0.066808 0.012476 -0.022747
v 0.066808 0.012476 -0.023298
v 0.001721 0.006403 -0.011716
v 0.013854 -0.004079 0.002628
v 0.001721 -0.017310 -0.015573
v 0.055773 -0.002973 -0.028821
v 0.069567 -0.005725 -0.012271
v 0.001707 -0.016762 0.000974
v 0.067913 -0.012346 -0.021644
v 0.054668 0.008608 -0.011719
v 0.001721 -0.000214 -0.017781
v 0.049706 0.009162 -0.026058
v 0.003924 0.004195 -0.002891
v 0.002270 -0.022280 -0.011165
v 0.047496 -0.014003 -0.023298
v 0.071221 0.002542 -0.027161
v 0.069018 0.005301 -0.012819
v 0.035926 -0.011795 -0.003991
v 0.041422 0.011918 -0.019438
v 0.049150 -0.017864 -0.015576
v 0.042534 -0.004075 -0.027161
v 0.074529 0.001991 -0.019987
v 0.060734 -0.002973 -0.008411
v 0.067913 -0.012346 -0.016127
v 0.001721 -0.009036 -0.018333
v 0.007781 0.000888 0.000974
v 0.002819 0.005301 -0.015573
v 0.011645 -0.021174 -0.006751
v 0.068462 -0.007933 -0.026058
v 0.009435 -0.010693 0.003183
v 0.031513 0.009162 -0.010614
v 0.043083 0.002542 -0.027161
v 0.066259 0.006406 -0.028266
v 0.046391 0.004199 -0.006751
v 0.073431 -0.007382 -0.021093
v 0.048052 -0.009036 -0.026609
v 0.062944 0.011370 -0.017230
v 0.001721 0.003093 -0.002340
v 0.047496 -0.017313 -0.018884
v 0.071770 0.009717 -0.023298
v 0.056878 -0.011244 -0.010062
v 0.021575 -0.016758 -0.003443
v 0.041422 0.011367 -0.022195
v 0.013298 0.008060 -0.010614
v 0.025439 0.004750 -0.003991
v 0.033167 -0.020069 -0.012274
v 0.066808 -0.003524 -0.028266
v 0.069018 0.009162 -0.016127
v 0.001721 -0.022280 -0.007857
v 0.034265 -0.003528 -0.001786
v 0.072875 0.000888 -0.015024
v 0.067357 0.011370 -0.025507
v 0.044188 0.006954 -0.026058
v 0.059636 0.004199 -0.028821
v 0.057426 -0.011795 -0.024955
v 0.008337 -0.006835 0.003183
v 0.001721 -0.011795 -0.017781
v 0.049150 -0.007933 -0.006203
v 0.021019 0.000334 -0.000128
v 0.055773 0.001439 -0.007857
v 0.072875 -0.008485 -0.018336
v 0.067913 -0.013448 -0.019438
v 0.051916 -0.014003 -0.010614
f 19 43 64 
f 9 4 12 
f 15 6 16 
f 2 3 20 
f 8 18 24 
f 9 12 26 
f 12 4 28 
f 7 22 33 
f 26 12 33 
f 22 26 33 
f 18 11 35 
f 17 23 36 
f 10 30 36 
f 30 17 36 
f 16 6 37 
f 22 7 37 
f 2 20 38 
f 32 11 38 
f 20 32 38 
f 4 9 39 
f 14 4 39 
f 27 14 39 
f 15 16 40 
f 3 2 41 
f 23 17 41 
f 25 8 42 
f 29 1 43 
f 9 29 43 
f 31 9 43 
f 19 31 43 
f 20 3 44 
f 4 20 44 
f 28 4 44 
f 4 14 45 
f 20 4 45 
f 14 32 45 
f 32 20 45 
f 14 27 46 
f 11 32 46 
f 32 14 46 
f 35 11 46 
f 21 1 47 
f 1 29 47 
f 15 40 47 
f 40 21 47 
f 17 30 48 
f 34 17 48 
f 37 7 48 
f 11 18 49 
f 2 38 49 
f 38 11 49 
f 41 2 49 
f 23 41 49 
f 9 6 50 
f 6 15 50 
f 29 9 50 
f 47 29 50 
f 15 47 50 
f 5 31 51 
f 18 8 52 
f 49 18 52 
f 23 49 52 
f 34 13 53 
f 17 34 53 
f 3 41 53 
f 41 17 53 
f 44 3 53 
f 13 44 53 
f 12 28 54 
f 33 12 54 
f 44 13 54 
f 28 44 54 
f 7 33 55 
f 13 34 55 
f 34 48 55 
f 48 7 55 
f 54 13 55 
f 33 54 55 
f 30 10 56 
f 16 37 56 
f 10 40 56 
f 40 16 56 
f 48 30 56 
f 37 48 56 
f 5 27 57 
f 9 31 57 
f 31 5 57 
f 39 9 57 
f 27 39 57 
f 6 9 58 
f 9 26 58 
f 26 22 58 
f 37 6 58 
f 22 37 58 
f 8 24 59 
f 31 19 59 
f 19 42 59 
f 42 8 59 
f 51 31 59 
f 24 51 59 
f 27 5 60 
f 46 27 60 
f 35 46 60 
f 5 51 60 
f 60 51 61 
f 24 18 61 
f 18 35 61 
f 51 24 61 
f 35 60 61 
f 8 25 62 
f 36 23 62 
f 52 8 62 
f 23 52 62 
f 25 21 63 
f 10 36 63 
f 40 10 63 
f 21 40 63 
f 62 25 63 
f 36 62 63 
f 1 21 64 
f 21 25 64 
f 42 19 64 
f 25 42 64 
f 43 1 64 
o convex_1
v -0.046294 0.018550 -0.015024
v -0.014297 0.041172 -0.011712
v -0.013191 0.040617 -0.008408
v 0.001707 0.003103 -0.016676
v -0.034709 0.008618 0.007597
v -0.025326 0.004206 -0.025508
v -0.012090 0.034550 -0.027161
v -0.042986 0.034546 -0.004546
v 0.001707 0.003103 -0.002887
v -0.047951 0.006416 -0.006202
v -0.035815 0.032891 -0.023300
v -0.001606 0.035653 -0.018336
v -0.020367 0.033994 -0.000132
v -0.035815 0.003103 0.002626
v -0.036366 0.003103 -0.021094
v -0.013191 0.013035 0.004835
v -0.006575 0.036756 -0.007305
v -0.006020 0.009170 -0.024955
v -0.027533 0.040617 -0.015574
v -0.030846 0.037308 -0.000685
v -0.043537 0.010828 0.004286
v -0.046850 0.031237 -0.011712
v -0.020918 0.028475 -0.027717
v -0.004919 0.035653 -0.023849
v -0.023675 0.011376 0.007597
v -0.044087 0.004757 -0.016680
v -0.018711 0.038962 -0.022746
v -0.047400 0.022408 -0.003993
v -0.016504 0.006412 -0.026611
v -0.040780 0.030685 -0.000129
v -0.038022 0.026272 -0.022746
v 0.001151 0.020757 -0.012819
v -0.044643 0.031237 -0.017229
v -0.033603 0.039510 -0.008961
v -0.029190 0.033443 -0.026058
v -0.002712 0.036752 -0.012819
v -0.002712 0.016344 -0.002338
v -0.012090 0.038407 -0.004546
v -0.001056 0.015241 -0.021644
v -0.045744 0.008067 0.002077
v -0.037467 0.011380 0.007041
v -0.023124 0.041172 -0.007305
v -0.040229 0.035649 -0.015024
v -0.031397 0.022963 -0.025508
v -0.024776 0.009170 0.007597
v -0.011539 0.040617 -0.016127
v -0.036366 0.005860 -0.022197
v -0.005469 0.016348 -0.025508
v -0.048506 0.008618 -0.008408
v -0.031952 0.030133 0.002073
v -0.029745 0.037859 -0.021091
v -0.045193 0.032340 -0.003993
v -0.008782 0.015796 0.002077
v 0.001707 0.014138 -0.015577
v -0.044643 0.004206 -0.013921
v -0.048506 0.009725 -0.002891
v -0.020918 0.003099 0.001524
v -0.020918 0.039510 -0.002887
v -0.015403 0.026272 -0.027717
v -0.015953 0.003099 -0.022197
v -0.043537 0.026824 -0.018885
v -0.047400 0.029582 -0.011712
v -0.003262 0.035101 -0.010060
v -0.038022 0.035649 -0.001235
f 116 94 128 
f 80 77 89 
f 88 71 91 
f 82 68 93 
f 70 87 93 
f 71 87 99 
f 91 71 99 
f 95 75 99 
f 67 81 100 
f 96 76 100 
f 77 80 102 
f 81 67 102 
f 68 82 103 
f 88 76 103 
f 78 69 104 
f 74 78 104 
f 69 85 104 
f 85 92 104 
f 85 69 105 
f 69 89 105 
f 94 85 105 
f 67 66 106 
f 66 83 106 
f 83 98 106 
f 98 84 106 
f 86 72 107 
f 75 97 107 
f 97 86 107 
f 98 83 107 
f 72 98 107 
f 87 70 108 
f 99 87 108 
f 95 99 108 
f 69 78 109 
f 73 80 109 
f 89 69 109 
f 80 89 109 
f 66 67 110 
f 83 66 110 
f 76 88 110 
f 91 83 110 
f 88 91 110 
f 67 100 110 
f 100 76 110 
f 70 79 111 
f 79 90 111 
f 90 95 111 
f 108 70 111 
f 95 108 111 
f 71 88 112 
f 82 93 112 
f 103 82 112 
f 88 103 112 
f 65 90 113 
f 77 84 114 
f 89 77 114 
f 105 89 114 
f 94 105 114 
f 83 91 115 
f 99 75 115 
f 91 99 115 
f 75 107 115 
f 107 83 115 
f 72 86 116 
f 92 85 116 
f 85 94 116 
f 80 73 117 
f 73 101 117 
f 101 81 117 
f 102 80 117 
f 81 102 117 
f 73 68 118 
f 96 73 118 
f 76 96 118 
f 68 103 118 
f 103 76 118 
f 78 74 119 
f 79 78 119 
f 90 79 119 
f 113 90 119 
f 74 113 119 
f 74 104 120 
f 104 92 120 
f 113 74 120 
f 78 79 121 
f 73 109 121 
f 109 78 121 
f 84 77 122 
f 77 102 122 
f 102 67 122 
f 67 106 122 
f 106 84 122 
f 87 71 123 
f 93 87 123 
f 71 112 123 
f 112 93 123 
f 68 73 124 
f 79 70 124 
f 93 68 124 
f 70 93 124 
f 73 121 124 
f 121 79 124 
f 90 65 125 
f 75 95 125 
f 95 90 125 
f 97 75 125 
f 65 97 125 
f 97 65 126 
f 86 97 126 
f 65 113 126 
f 116 86 126 
f 92 116 126 
f 120 92 126 
f 113 120 126 
f 73 96 127 
f 100 81 127 
f 96 100 127 
f 101 73 127 
f 81 101 127 
f 84 98 128 
f 98 72 128 
f 114 84 128 
f 94 114 128 
f 72 116 128 
o convex_2
v -0.009880 0.009717 0.025247
v -0.012088 -0.017317 0.018089
v -0.012088 -0.016765 0.016429
v 0.001707 -0.015660 0.016429
v 0.000051 -0.005729 0.038497
v 0.001707 0.005856 0.010361
v -0.012088 -0.015107 0.031321
v -0.012088 0.003096 0.010915
v 0.001707 0.011927 0.023597
v -0.004915 -0.003522 0.007045
v -0.012088 0.002544 0.032977
v 0.001707 -0.016212 0.028005
v 0.001155 0.003646 0.036835
v -0.012088 0.008063 0.018089
v 0.001707 -0.013453 0.012566
v -0.004364 -0.001871 0.038497
v -0.002709 0.005303 0.036287
v -0.011536 -0.015660 0.014222
v -0.012088 -0.007936 0.034631
v 0.001707 -0.003519 0.037392
v 0.000602 0.008615 0.013674
v -0.012088 -0.017317 0.027457
v -0.012088 0.008063 0.027457
v 0.001155 0.011927 0.020844
v -0.006017 -0.001318 0.007045
v -0.012088 -0.010141 0.012566
v 0.000602 -0.016765 0.026352
v 0.001707 0.002544 0.009807
v -0.001604 -0.016212 0.029114
v -0.002709 -0.005729 0.038497
v -0.011536 0.009717 0.023597
v -0.012088 -0.001321 0.034631
v -0.004915 0.002544 0.037389
v -0.000501 0.000889 0.038497
v -0.012088 0.005303 0.013120
v -0.006017 -0.003522 0.007045
v -0.001604 0.005856 0.035736
v -0.002156 -0.007936 0.009256
v 0.001707 -0.016212 0.019188
v 0.001707 -0.015107 0.029668
v -0.008225 -0.017317 0.020847
v 0.000602 -0.010141 0.010915
v 0.001707 0.001439 0.036838
v -0.012088 0.004751 0.031321
f 139 161 172 
f 130 131 132 
f 131 130 135 
f 131 135 136 
f 132 134 137 
f 136 135 139 
f 132 137 140 
f 136 139 142 
f 134 132 143 
f 132 131 146 
f 143 132 146 
f 139 135 147 
f 140 137 148 
f 135 130 150 
f 142 139 151 
f 137 134 152 
f 134 149 152 
f 149 142 152 
f 136 134 153 
f 131 136 154 
f 146 131 154 
f 134 143 156 
f 153 134 156 
f 138 153 156 
f 133 135 157 
f 135 150 157 
f 155 140 157 
f 150 155 157 
f 135 133 158 
f 133 144 158 
f 147 135 158 
f 144 147 158 
f 129 137 159 
f 151 129 159 
f 142 151 159 
f 137 152 159 
f 152 142 159 
f 139 147 160 
f 147 144 160 
f 160 144 161 
f 139 160 161 
f 144 133 162 
f 141 145 162 
f 133 148 162 
f 161 144 162 
f 145 161 162 
f 134 136 163 
f 136 142 163 
f 149 134 163 
f 142 149 163 
f 136 153 164 
f 153 138 164 
f 154 136 164 
f 146 154 164 
f 137 129 165 
f 141 137 165 
f 145 141 165 
f 129 151 165 
f 151 145 165 
f 143 146 166 
f 164 138 166 
f 146 164 166 
f 130 132 167 
f 132 140 167 
f 140 155 167 
f 148 133 168 
f 140 148 168 
f 133 157 168 
f 157 140 168 
f 150 130 169 
f 155 150 169 
f 130 167 169 
f 167 155 169 
f 156 143 170 
f 138 156 170 
f 143 166 170 
f 166 138 170 
f 137 141 171 
f 148 137 171 
f 141 162 171 
f 162 148 171 
f 151 139 172 
f 145 151 172 
f 161 145 172 
o convex_3
v 0.027096 -0.014553 0.023598
v 0.066813 0.017445 0.007047
v 0.066813 0.017445 0.006496
v 0.001714 0.011923 0.023044
v 0.009436 -0.004623 0.007601
v 0.070123 -0.005176 0.003183
v 0.053571 0.003647 0.021941
v 0.001714 -0.001862 0.034635
v 0.001714 -0.015660 0.016427
v 0.001714 0.005301 0.009805
v 0.071232 -0.003519 0.014220
v 0.029852 0.011373 0.024149
v 0.044741 0.007512 0.003183
v 0.001714 -0.016214 0.028013
v 0.025441 -0.008488 0.028561
v 0.068468 -0.009038 0.009254
v 0.070677 0.011927 0.013115
v 0.075089 0.009719 0.003183
v 0.037020 0.016892 0.014223
v 0.001714 -0.013450 0.012567
v 0.063503 0.015238 0.003183
v 0.053017 -0.011796 0.016979
v 0.001714 0.009166 0.014223
v 0.075643 -0.001312 0.007598
v 0.040330 0.016338 0.016979
v 0.012192 0.010269 0.026907
v 0.055227 -0.004069 0.003183
v 0.024887 0.005854 0.028561
v 0.050815 -0.007384 0.021390
v 0.030406 -0.002415 0.028561
v 0.048606 0.010820 0.020836
v 0.072333 0.006408 0.014220
v 0.005024 -0.013450 0.030217
v 0.067367 -0.007934 0.005944
v 0.006680 0.004751 0.008152
v 0.017712 -0.015107 0.017533
v 0.063503 0.000342 0.018635
v 0.008335 -0.010692 0.009805
v 0.042539 0.002543 0.003183
v 0.053017 0.014681 0.016427
v 0.032608 -0.012899 0.024149
v 0.074542 0.011927 0.007047
v 0.045850 0.015785 0.008703
v 0.070123 -0.007934 0.012013
v 0.017158 0.014684 0.019737
v 0.003916 0.006958 0.029666
v 0.065712 0.008062 0.016979
v 0.067921 -0.005727 0.003183
v 0.046397 -0.002415 0.024149
v 0.032061 0.001993 0.028010
v 0.070677 0.016342 0.004288
v 0.073988 -0.004073 0.005393
v 0.011091 0.001439 0.007050
v 0.049160 0.006958 0.022493
v 0.014401 -0.007384 0.031322
v 0.013847 0.007512 0.029112
v 0.039222 -0.013453 0.016982
v 0.007781 -0.016214 0.021941
v 0.006680 0.013027 0.020288
v 0.068468 0.016892 0.008152
v 0.002815 0.007512 0.011462
v 0.075643 0.005304 0.009254
v 0.064057 -0.009591 0.009254
v 0.049714 0.017445 0.013118
f 212 232 236 
f 180 176 181 
f 181 176 182 
f 180 181 186 
f 178 185 190 
f 182 177 192 
f 181 182 192 
f 190 185 193 
f 182 176 195 
f 184 197 198 
f 185 178 199 
f 184 200 203 
f 180 186 205 
f 178 188 206 
f 181 192 206 
f 177 182 207 
f 182 193 207 
f 193 185 207 
f 201 183 209 
f 183 204 209 
f 192 177 210 
f 177 199 210 
f 185 199 211 
f 199 177 211 
f 197 184 212 
f 203 189 212 
f 184 203 212 
f 186 173 213 
f 173 194 213 
f 201 187 213 
f 194 201 213 
f 205 186 213 
f 187 205 213 
f 189 204 214 
f 191 175 215 
f 175 193 215 
f 195 191 215 
f 194 188 216 
f 196 183 216 
f 183 201 216 
f 201 194 216 
f 197 191 217 
f 176 198 217 
f 198 197 217 
f 176 180 218 
f 198 176 218 
f 189 203 219 
f 204 189 219 
f 179 209 219 
f 209 204 219 
f 199 178 220 
f 178 206 220 
f 206 192 220 
f 192 210 220 
f 210 199 220 
f 187 201 221 
f 202 187 221 
f 201 209 221 
f 209 179 221 
f 200 180 222 
f 180 202 222 
f 202 221 222 
f 221 179 222 
f 175 174 223 
f 193 175 223 
f 190 193 223 
f 214 190 223 
f 188 178 224 
f 178 190 224 
f 190 196 224 
f 216 188 224 
f 196 216 224 
f 177 207 225 
f 207 185 225 
f 185 211 225 
f 211 177 225 
f 203 200 226 
f 179 219 226 
f 219 203 226 
f 200 222 226 
f 222 179 226 
f 202 180 227 
f 187 202 227 
f 180 205 227 
f 205 187 227 
f 184 198 228 
f 180 200 228 
f 200 184 228 
f 218 180 228 
f 198 218 228 
f 194 173 229 
f 208 229 230 
f 173 186 230 
f 186 181 230 
f 181 208 230 
f 229 173 230 
f 195 176 231 
f 191 195 231 
f 176 217 231 
f 217 191 231 
f 212 189 232 
f 189 214 232 
f 223 174 232 
f 214 223 232 
f 193 182 233 
f 182 195 233 
f 215 193 233 
f 195 215 233 
f 183 196 234 
f 196 190 234 
f 204 183 234 
f 190 214 234 
f 214 204 234 
f 188 194 235 
f 206 188 235 
f 181 206 235 
f 208 181 235 
f 194 229 235 
f 229 208 235 
f 174 175 236 
f 175 191 236 
f 191 197 236 
f 197 212 236 
f 232 174 236 
o convex_4
v -0.046297 -0.011246 0.009253
v -0.035817 -0.007389 0.035738
v -0.036370 -0.007389 0.035738
v -0.028091 0.006407 0.021941
v -0.027540 -0.023384 0.007597
v -0.042435 0.001994 0.007597
v -0.041882 -0.021729 0.025254
v -0.027540 -0.017867 0.031320
v -0.043539 0.000889 0.025254
v -0.027540 0.000889 0.007597
v -0.041331 -0.024491 0.007597
v -0.027540 0.001994 0.032425
v -0.044642 -0.011246 0.028009
v -0.038573 0.004752 0.026356
v -0.045193 -0.018968 0.018635
v -0.038020 -0.015105 0.033527
v -0.039124 -0.002973 0.034083
v -0.046297 -0.005178 0.019737
v -0.027540 -0.010692 0.035185
v -0.038573 -0.021729 0.026907
v -0.027540 0.004752 0.012564
v -0.044642 0.001443 0.014219
v -0.042435 0.004202 0.020841
v -0.045746 -0.014558 0.007597
v -0.041331 -0.024491 0.013117
v -0.042435 -0.011246 0.031874
v -0.027540 0.006407 0.026353
v -0.028091 -0.019521 0.028563
v -0.027540 -0.003527 0.035185
v -0.036919 0.002544 0.030769
v -0.044090 -0.006282 0.029116
v -0.046297 -0.012903 0.020293
v -0.030851 0.003098 0.007597
v -0.035817 0.005856 0.023599
v -0.039124 -0.020075 0.029667
v -0.027540 -0.023384 0.009253
v -0.045746 -0.007943 0.007597
v -0.042986 -0.016766 0.028563
v -0.041882 0.000339 0.029116
v -0.036919 -0.002420 0.034634
v -0.038573 -0.010139 0.035182
v -0.043539 -0.022283 0.014773
v -0.037471 0.004752 0.017533
v -0.033057 -0.015659 0.033527
v -0.045193 -0.001316 0.022494
v -0.044642 -0.017316 0.024147
v -0.043539 -0.021176 0.007597
v -0.041331 -0.005178 0.032976
v -0.045193 -0.000765 0.012013
v -0.045746 -0.008490 0.024701
v -0.029195 0.005303 0.028563
v -0.041331 -0.015659 0.031323
v -0.044090 0.000889 0.008702
v -0.042986 -0.022283 0.020841
v -0.045746 -0.001869 0.014773
v -0.033609 -0.020075 0.029667
v -0.046297 -0.014004 0.012564
v -0.040779 0.004202 0.025254
v -0.044642 0.001443 0.019189
f 258 291 295 
f 241 242 246 
f 244 241 246 
f 242 241 247 
f 244 246 248 
f 238 239 255 
f 244 248 255 
f 248 246 257 
f 242 258 259 
f 242 247 260 
f 247 241 261 
f 256 243 261 
f 257 240 263 
f 248 257 263 
f 239 238 265 
f 238 255 265 
f 255 248 265 
f 249 262 267 
f 254 237 268 
f 246 242 269 
f 242 257 269 
f 257 246 269 
f 259 250 270 
f 263 240 270 
f 250 263 270 
f 243 256 271 
f 241 244 272 
f 261 241 272 
f 256 261 272 
f 244 264 272 
f 264 256 272 
f 260 237 273 
f 242 260 273 
f 262 249 274 
f 253 266 275 
f 245 267 275 
f 253 239 276 
f 239 265 276 
f 265 248 276 
f 248 266 276 
f 266 253 276 
f 239 253 277 
f 255 239 277 
f 247 261 278 
f 240 257 279 
f 257 242 279 
f 242 259 279 
f 270 240 279 
f 259 270 279 
f 244 255 280 
f 252 271 280 
f 255 277 280 
f 277 252 280 
f 267 245 281 
f 249 268 282 
f 268 251 282 
f 243 274 282 
f 274 249 282 
f 260 247 283 
f 251 260 283 
f 278 251 283 
f 247 278 283 
f 267 262 284 
f 253 275 284 
f 275 267 284 
f 277 253 284 
f 262 277 284 
f 249 267 286 
f 268 249 286 
f 254 268 286 
f 281 254 286 
f 267 281 286 
f 263 250 287 
f 248 263 287 
f 250 266 287 
f 266 248 287 
f 271 252 288 
f 243 271 288 
f 274 243 288 
f 262 274 288 
f 252 277 288 
f 277 262 288 
f 258 242 289 
f 242 273 289 
f 285 258 289 
f 273 285 289 
f 261 243 290 
f 251 278 290 
f 278 261 290 
f 243 282 290 
f 282 251 290 
f 237 254 291 
f 273 237 291 
f 254 281 291 
f 258 285 291 
f 285 273 291 
f 264 244 292 
f 256 264 292 
f 271 256 292 
f 244 280 292 
f 280 271 292 
f 237 260 293 
f 260 251 293 
f 251 268 293 
f 268 237 293 
f 250 259 294 
f 259 245 294 
f 266 250 294 
f 245 275 294 
f 275 266 294 
f 245 259 295 
f 259 258 295 
f 281 245 295 
f 291 281 295 
o convex_5
v -0.021468 -0.039941 0.015323
v -0.018709 -0.039389 0.017529
v -0.019261 -0.039389 0.018081
v -0.019261 -0.042148 0.016978
v -0.019261 -0.039389 0.014219
f 297 299 300 
f 297 298 299 
f 298 296 299 
f 299 296 300 
f 296 298 300 
f 298 297 300 
o convex_6
v 0.064054 -0.004624 0.003183
v 0.068469 0.015236 0.003183
v 0.068469 0.015236 0.002631
v 0.046402 0.004756 0.002631
v 0.070680 0.004204 -0.000680
v 0.075095 0.003099 0.003183
v 0.069573 0.010821 -0.000128
v 0.051370 -0.001314 0.003183
v 0.068469 0.000341 -0.000128
v 0.071230 -0.004072 0.002631
v 0.056339 0.011926 0.003183
v 0.074542 0.010271 0.002631
v 0.067368 0.008063 -0.000680
v 0.065711 0.013028 0.000976
v 0.052477 -0.001866 0.002631
v 0.054679 0.008615 0.001527
v 0.072331 0.003652 -0.000128
v 0.050817 0.001445 0.002079
v 0.066818 -0.004072 0.002079
v 0.046402 0.004756 0.003183
v 0.067368 0.005306 -0.000680
v 0.058546 0.013028 0.002631
v 0.073435 -0.001866 0.003183
v 0.071783 0.014132 0.003183
v 0.071783 0.008615 -0.000128
v 0.072884 0.000341 0.000976
f 323 310 326 
f 302 301 306 
f 301 302 308 
f 308 302 311 
f 303 307 314 
f 307 313 314 
f 301 308 315 
f 308 304 315 
f 313 304 316 
f 314 313 316 
f 309 305 317 
f 312 306 317 
f 315 304 318 
f 309 315 318 
f 310 301 319 
f 309 310 319 
f 301 315 319 
f 315 309 319 
f 304 308 320 
f 311 304 320 
f 308 311 320 
f 305 309 321 
f 304 313 321 
f 313 305 321 
f 318 304 321 
f 309 318 321 
f 302 303 322 
f 311 302 322 
f 304 311 322 
f 303 314 322 
f 316 304 322 
f 314 316 322 
f 306 301 323 
f 301 310 323 
f 303 302 324 
f 302 306 324 
f 307 303 324 
f 306 312 324 
f 324 312 325 
f 313 307 325 
f 305 313 325 
f 317 305 325 
f 312 317 325 
f 307 324 325 
f 310 309 326 
f 309 317 326 
f 317 306 326 
f 306 323 326 
o convex_7
v -0.012641 -0.013457 -0.025507
v -0.045194 -0.014563 0.003732
v -0.045194 -0.014563 0.004286
v -0.020367 -0.038285 -0.016677
v -0.008226 -0.016216 0.002630
v -0.029192 0.003099 -0.015574
v -0.008226 0.001989 -0.001232
v -0.031400 -0.015114 -0.023853
v -0.026435 -0.033319 0.004280
v -0.042433 0.000336 0.004286
v -0.008226 0.003099 -0.019440
v -0.008226 -0.026145 -0.016126
v -0.030846 -0.034421 -0.013921
v -0.015952 -0.031662 0.004280
v -0.022024 -0.009593 -0.028266
v -0.039122 -0.009046 -0.013921
v -0.028642 0.002544 0.004286
v -0.023678 -0.028903 -0.023298
v -0.026435 -0.003524 -0.025507
v -0.041883 -0.023933 0.004286
v -0.039675 -0.019522 -0.010616
v -0.015952 -0.036078 -0.017228
v -0.040229 -0.001868 -0.007857
v -0.018159 0.003099 -0.022196
v -0.008226 -0.004079 -0.022747
v -0.015952 -0.023382 -0.024404
v -0.028642 -0.032764 -0.018885
v -0.035264 0.003099 0.002078
v -0.032503 -0.004079 -0.021093
v -0.027535 -0.037180 -0.013366
v -0.009884 -0.012355 0.003181
v -0.008226 0.003099 -0.003441
v -0.044090 -0.009046 -0.001787
v -0.008226 -0.017318 -0.021645
v -0.017056 -0.004626 -0.026609
v -0.023124 -0.016220 -0.027712
v -0.035264 -0.020627 -0.017783
v -0.015398 -0.032764 0.000973
v -0.008226 -0.020072 -0.000133
v -0.023124 -0.037180 -0.018885
v -0.023678 -0.000766 0.004280
v -0.028642 -0.023933 -0.023302
v -0.015952 -0.028903 -0.022196
v -0.040779 -0.022280 -0.004543
v -0.026985 -0.011800 -0.027160
v -0.008780 -0.027247 -0.013369
v -0.026985 -0.034417 0.000973
v -0.044640 -0.004079 0.003181
v -0.042433 -0.014563 -0.006751
v -0.041883 0.000887 0.002078
v -0.017609 -0.012906 -0.027712
v -0.034161 -0.027243 -0.015574
v -0.036368 -0.012906 -0.018334
v -0.036914 -0.001868 -0.013921
v -0.016506 -0.012906 0.004280
v -0.031950 -0.009046 -0.023302
v -0.040779 -0.025039 0.004286
v -0.019817 -0.021725 -0.026058
v -0.019263 -0.033319 -0.021093
v -0.009330 -0.005181 0.001524
v -0.022024 -0.003524 -0.026609
v -0.011537 -0.028349 -0.018885
v -0.020367 -0.038285 -0.015574
v -0.039675 -0.015114 -0.012818
f 379 363 390 
f 333 331 337 
f 337 331 338 
f 336 329 343 
f 329 328 346 
f 343 329 346 
f 332 337 350 
f 345 332 350 
f 337 338 351 
f 337 332 354 
f 336 343 354 
f 332 345 355 
f 340 331 357 
f 333 337 358 
f 343 333 358 
f 337 354 358 
f 354 343 358 
f 349 342 359 
f 327 351 360 
f 351 338 360 
f 352 327 360 
f 350 337 361 
f 337 351 361 
f 340 335 364 
f 338 331 365 
f 331 340 365 
f 340 364 365 
f 348 330 366 
f 339 353 366 
f 353 344 366 
f 330 356 366 
f 356 339 366 
f 333 343 367 
f 344 353 368 
f 362 344 368 
f 363 334 368 
f 353 363 368 
f 352 360 369 
f 346 328 370 
f 339 346 370 
f 345 341 371 
f 341 362 371 
f 368 334 371 
f 362 368 371 
f 348 338 372 
f 364 348 372 
f 338 365 372 
f 365 364 372 
f 364 335 373 
f 328 329 374 
f 329 336 374 
f 359 328 374 
f 349 359 374 
f 328 359 375 
f 359 342 375 
f 370 328 375 
f 347 370 375 
f 354 332 376 
f 336 354 376 
f 374 336 376 
f 349 374 376 
f 351 327 377 
f 327 352 377 
f 341 361 377 
f 361 351 377 
f 362 341 377 
f 353 339 378 
f 347 363 378 
f 363 353 378 
f 339 370 378 
f 370 347 378 
f 334 363 379 
f 342 349 380 
f 355 342 380 
f 332 355 380 
f 376 332 380 
f 349 376 380 
f 343 340 381 
f 340 357 381 
f 367 343 381 
f 357 367 381 
f 342 355 382 
f 355 345 382 
f 345 371 382 
f 371 334 382 
f 334 379 382 
f 379 342 382 
f 335 340 383 
f 340 343 383 
f 346 339 383 
f 343 346 383 
f 339 356 383 
f 373 335 383 
f 356 373 383 
f 344 362 384 
f 352 369 384 
f 377 352 384 
f 362 377 384 
f 348 366 385 
f 366 344 385 
f 369 348 385 
f 344 384 385 
f 384 369 385 
f 331 333 386 
f 357 331 386 
f 333 367 386 
f 367 357 386 
f 341 345 387 
f 345 350 387 
f 361 341 387 
f 350 361 387 
f 338 348 388 
f 360 338 388 
f 348 369 388 
f 369 360 388 
f 330 348 389 
f 356 330 389 
f 348 364 389 
f 373 356 389 
f 364 373 389 
f 363 347 390 
f 375 342 390 
f 347 375 390 
f 342 379 390 
o convex_8
v -0.015951 -0.033318 0.006493
v -0.045747 -0.014565 0.007045
v -0.045747 -0.014565 0.007597
v -0.027543 0.001992 0.004286
v -0.040780 -0.025040 0.004286
v -0.029195 0.002547 0.007597
v -0.043537 -0.001317 0.004286
v -0.016504 -0.031662 0.004286
v -0.024228 -0.034420 0.007597
v -0.017056 -0.020625 0.007597
v -0.042987 0.001442 0.007597
v -0.041333 -0.024489 0.007597
v -0.024228 -0.000766 0.004286
v -0.025885 -0.033318 0.004286
v -0.045195 -0.015112 0.004286
v -0.017609 -0.020070 0.004286
v -0.015399 -0.033318 0.007597
v -0.036915 0.001992 0.004286
v -0.045747 -0.007939 0.006493
v -0.025885 -0.000215 0.007045
v -0.018158 -0.034975 0.007045
v -0.044089 -0.020070 0.005942
v -0.045195 -0.006282 0.004286
v -0.015399 -0.030560 0.007045
f 400 407 414 
f 394 395 397 
f 395 394 398 
f 396 393 399 
f 396 399 400 
f 393 396 401 
f 395 399 402 
f 399 393 402 
f 394 396 403 
f 398 394 403 
f 395 398 404 
f 399 395 404 
f 397 395 405 
f 398 403 406 
f 403 400 406 
f 391 398 407 
f 400 399 407 
f 396 394 408 
f 394 397 408 
f 401 396 408 
f 397 401 408 
f 392 393 409 
f 393 401 409 
f 405 392 409 
f 396 400 410 
f 403 396 410 
f 400 403 410 
f 398 391 411 
f 404 398 411 
f 399 404 411 
f 391 407 411 
f 407 399 411 
f 393 392 412 
f 402 393 412 
f 395 402 412 
f 392 405 412 
f 405 395 412 
f 401 397 413 
f 397 405 413 
f 409 401 413 
f 405 409 413 
f 398 406 414 
f 406 400 414 
f 407 398 414 
o convex_9
v -0.008225 -0.017865 -0.021091
v -0.005466 -0.010150 0.003178
v -0.004913 -0.006285 0.002076
v 0.001707 -0.022280 -0.011713
v 0.001707 0.003099 -0.016680
v -0.008225 0.003099 -0.018886
v 0.001707 0.003099 -0.002337
v -0.008225 -0.018971 0.001523
v 0.001707 -0.016764 0.000972
v -0.008225 0.001995 -0.001233
v -0.008225 -0.025594 -0.012817
v 0.001707 -0.010150 -0.018335
v -0.007673 -0.005178 -0.022749
v 0.001707 -0.022280 -0.007855
v -0.007673 -0.022833 -0.018335
v 0.001707 -0.017865 -0.015576
v -0.008225 0.003099 -0.003442
v -0.008225 -0.017865 0.002627
v 0.001707 -0.002423 -0.018335
v -0.008225 -0.011798 -0.022749
v 0.001155 -0.015657 0.001523
v -0.007673 -0.025594 -0.015576
v -0.005466 -0.020072 -0.000683
v -0.008225 -0.001319 -0.021645
v 0.001155 -0.019519 -0.001787
v -0.007673 -0.017865 -0.021091
v -0.000501 0.003099 -0.001787
v -0.006570 -0.010697 0.003178
f 424 432 442 
f 417 416 421 
f 418 419 421 
f 419 420 421 
f 420 415 422 
f 418 421 423 
f 420 422 424 
f 422 415 425 
f 419 418 426 
f 418 423 428 
f 426 418 430 
f 418 429 430 
f 421 420 431 
f 420 424 431 
f 422 423 432 
f 424 422 432 
f 419 426 433 
f 427 419 433 
f 426 427 433 
f 415 420 434 
f 427 426 434 
f 421 416 435 
f 423 421 435 
f 416 432 435 
f 432 423 435 
f 425 415 436 
f 418 428 436 
f 428 425 436 
f 415 429 436 
f 429 418 436 
f 422 425 437 
f 425 428 437 
f 420 419 438 
f 419 427 438 
f 434 420 438 
f 427 434 438 
f 423 422 439 
f 428 423 439 
f 422 437 439 
f 437 428 439 
f 429 415 440 
f 426 430 440 
f 430 429 440 
f 415 434 440 
f 434 426 440 
f 417 421 441 
f 424 417 441 
f 421 431 441 
f 431 424 441 
f 416 417 442 
f 417 424 442 
f 432 416 442 
o convex_10
v -0.026986 -0.031113 0.013668
v -0.012641 -0.033870 0.016979
v -0.012641 -0.034974 0.016979
v -0.022018 -0.031113 0.028565
v -0.024226 -0.039388 0.023598
v -0.015952 -0.027803 0.007597
v -0.019814 -0.035525 0.007597
v -0.017608 -0.027803 0.027461
v -0.016504 -0.038836 0.026355
v -0.025881 -0.027803 0.020286
v -0.024226 -0.027803 0.007597
v -0.026986 -0.036077 0.011460
v -0.018711 -0.039388 0.014223
v -0.013193 -0.028355 0.021392
v -0.014849 -0.033870 0.007597
v -0.026986 -0.031113 0.020840
v -0.013193 -0.027803 0.013116
v -0.013745 -0.037732 0.023046
v -0.020915 -0.039388 0.027461
v -0.017608 -0.032769 0.028565
v -0.023674 -0.027803 0.026355
v -0.024777 -0.032217 0.026355
v -0.012641 -0.035525 0.014771
v -0.025329 -0.033870 0.007597
v -0.026986 -0.037181 0.015323
v -0.014849 -0.030010 0.025803
v -0.020915 -0.039388 0.014223
v -0.024777 -0.038836 0.024150
v -0.026433 -0.027803 0.014223
v -0.014297 -0.031665 0.008149
v -0.026986 -0.033870 0.010910
v -0.023122 -0.035525 0.008149
f 469 454 474 
f 450 448 452 
f 448 449 453 
f 452 448 453 
f 445 444 456 
f 449 448 457 
f 455 449 457 
f 443 454 458 
f 448 450 459 
f 456 444 459 
f 450 456 459 
f 451 455 460 
f 445 456 460 
f 455 451 461 
f 447 455 461 
f 450 446 462 
f 446 461 462 
f 461 451 462 
f 446 450 463 
f 450 452 463 
f 452 458 463 
f 463 458 464 
f 461 446 464 
f 446 463 464 
f 444 445 465 
f 455 457 465 
f 459 444 465 
f 445 460 465 
f 460 455 465 
f 453 449 466 
f 458 454 467 
f 456 450 468 
f 451 460 468 
f 460 456 468 
f 450 462 468 
f 462 451 468 
f 449 455 469 
f 455 447 469 
f 447 467 469 
f 467 454 469 
f 447 461 470 
f 464 458 470 
f 461 464 470 
f 467 447 470 
f 458 467 470 
f 452 453 471 
f 443 458 471 
f 458 452 471 
f 457 448 472 
f 448 459 472 
f 465 457 472 
f 459 465 472 
f 454 443 473 
f 453 466 473 
f 466 454 473 
f 443 471 473 
f 471 453 473 
f 466 449 474 
f 454 466 474 
f 449 469 474 
o convex_11
v -0.012088 0.003648 0.011462
v -0.021466 -0.002973 0.035187
v -0.023122 -0.002973 0.035187
v -0.027538 -0.021732 0.007597
v -0.012088 -0.017316 0.028562
v -0.027538 0.004749 0.012564
v -0.027538 -0.016212 0.032424
v -0.012088 0.008064 0.027460
v -0.017054 -0.021732 0.007597
v -0.027538 0.005856 0.028011
v -0.018711 -0.021732 0.029667
v -0.027538 0.000336 0.007597
v -0.012088 -0.007936 0.034633
v -0.012088 -0.015108 0.014222
v -0.012640 0.009169 0.021943
v -0.027538 -0.010141 0.035187
v -0.012088 0.002544 0.032978
v -0.025330 -0.021732 0.025254
v -0.014296 -0.021732 0.019186
v -0.027538 0.001440 0.032978
v -0.027538 0.006957 0.025805
v -0.012088 0.003095 0.010908
v -0.027538 -0.018970 0.029667
v -0.012088 0.005303 0.013117
v -0.012088 -0.010141 0.034082
v -0.012088 -0.001318 0.034633
v -0.013744 0.006407 0.029667
v -0.026433 -0.013450 0.034082
v -0.015952 -0.021732 0.027460
v -0.025882 -0.000768 0.007597
v -0.013744 0.009169 0.025254
v -0.027538 0.006957 0.023598
v -0.022018 -0.021732 0.029667
v -0.012088 -0.017316 0.018084
v -0.027538 -0.003526 0.035187
v -0.012088 0.008064 0.018637
v -0.012088 -0.009588 0.012566
v -0.012088 -0.015108 0.031322
v -0.015400 -0.004627 0.035187
v -0.027538 -0.021732 0.015877
v -0.017054 -0.020071 0.007597
v -0.026985 0.005303 0.013668
v -0.020916 0.003648 0.031873
v -0.026433 0.004202 0.011462
v -0.024778 -0.001318 0.034633
f 494 509 519 
f 480 478 481 
f 479 475 482 
f 480 481 484 
f 478 483 485 
f 478 480 486 
f 483 478 486 
f 479 482 487 
f 475 479 488 
f 476 477 490 
f 484 481 490 
f 487 482 491 
f 478 485 492 
f 485 483 493 
f 484 490 494 
f 480 484 495 
f 475 488 496 
f 481 478 497 
f 482 475 498 
f 479 487 499 
f 487 490 499 
f 477 476 500 
f 487 491 500 
f 482 484 501 
f 491 482 501 
f 490 481 502 
f 485 499 502 
f 499 490 502 
f 493 479 503 
f 485 493 503 
f 483 486 504 
f 486 496 504 
f 484 482 505 
f 482 489 505 
f 495 484 505 
f 495 505 506 
f 480 495 506 
f 505 489 506 
f 492 485 507 
f 481 497 507 
f 497 492 507 
f 502 481 507 
f 485 502 507 
f 488 479 508 
f 483 488 508 
f 479 493 508 
f 493 483 508 
f 490 477 509 
f 494 490 509 
f 489 482 510 
f 482 498 510 
f 498 480 510 
f 488 483 511 
f 483 496 511 
f 496 488 511 
f 479 499 512 
f 499 485 512 
f 503 479 512 
f 485 503 512 
f 476 490 513 
f 490 487 513 
f 500 476 513 
f 487 500 513 
f 478 492 514 
f 497 478 514 
f 492 497 514 
f 496 483 515 
f 483 504 515 
f 504 496 515 
f 480 506 516 
f 506 489 516 
f 510 480 516 
f 489 510 516 
f 484 494 517 
f 494 491 517 
f 501 484 517 
f 491 501 517 
f 486 480 518 
f 475 496 518 
f 496 486 518 
f 498 475 518 
f 480 498 518 
f 491 494 519 
f 477 500 519 
f 500 491 519 
f 509 477 519 
o convex_12
v -0.024777 -0.027801 0.024151
v -0.013192 -0.026697 0.016427
v -0.013192 -0.027801 0.016427
v -0.027537 -0.024491 0.007597
v -0.018711 -0.021732 0.029669
v -0.017056 -0.021732 0.007597
v -0.027537 -0.021732 0.014219
v -0.015952 -0.027801 0.007597
v -0.018160 -0.027801 0.028010
v -0.014848 -0.021732 0.024151
v -0.024226 -0.027801 0.007597
v -0.024226 -0.021732 0.027461
v -0.027537 -0.021732 0.007597
v -0.015400 -0.027801 0.025251
v -0.022018 -0.027249 0.028010
v -0.025881 -0.027801 0.020286
v -0.014297 -0.021732 0.018633
v -0.013192 -0.027249 0.013115
v -0.016504 -0.022836 0.028010
v -0.025329 -0.022836 0.024702
v -0.021466 -0.022284 0.029669
v -0.025881 -0.027801 0.013115
f 530 535 541 
f 524 525 526 
f 522 520 527 
f 523 525 527 
f 520 522 528 
f 522 521 529 
f 525 524 529 
f 527 520 530 
f 523 527 530 
f 524 526 531 
f 525 523 532 
f 523 526 532 
f 526 525 532 
f 528 522 533 
f 522 529 533 
f 520 528 534 
f 531 520 534 
f 526 523 535 
f 530 520 535 
f 529 521 536 
f 525 529 536 
f 521 522 537 
f 522 527 537 
f 527 525 537 
f 536 521 537 
f 525 536 537 
f 524 528 538 
f 529 524 538 
f 528 533 538 
f 533 529 538 
f 520 531 539 
f 531 526 539 
f 526 535 539 
f 535 520 539 
f 528 524 540 
f 524 531 540 
f 534 528 540 
f 531 534 540 
f 523 530 541 
f 535 523 541 
