o convex_0
v -0.025199 0.006904 -0.043228
v -0.000365 0.041537 -0.020356
v -0.000365 0.041537 -0.023626
v 0.033616 0.002325 -0.027541
v -0.022582 0.002325 -0.005978
v 0.017278 0.027155 -0.005978
v 0.017278 0.021274 -0.044533
v -0.021277 0.031730 -0.005978
v -0.012130 0.033691 -0.041266
v 0.021852 0.002325 -0.005978
v 0.026425 0.002325 -0.045189
v -0.031736 0.002325 -0.026236
v -0.017356 0.036305 -0.028197
v -0.023887 0.002325 -0.045189
v 0.011392 0.035653 -0.005978
v -0.001018 0.031734 -0.045189
v 0.025766 0.017359 -0.034077
v 0.007471 0.036958 -0.031464
v -0.010166 0.039575 -0.005978
v 0.031652 0.006904 -0.019707
v -0.008202 0.040228 -0.032769
v -0.029120 0.002985 -0.014475
v -0.022582 0.015398 -0.043228
v 0.000287 0.037614 -0.038649
v 0.029694 0.002981 -0.013167
v 0.027078 0.011479 -0.041266
v 0.028383 0.014746 -0.026236
v -0.013435 0.027155 -0.045189
v -0.012782 0.040228 -0.021016
v -0.030425 0.006252 -0.028850
v 0.000940 0.040228 -0.005978
v 0.010087 0.036305 -0.023626
v -0.022582 0.028464 -0.005978
v -0.017356 0.033035 -0.034726
v -0.020625 0.032382 -0.017742
v 0.023157 0.018664 -0.039954
v 0.005513 0.039575 -0.024931
v -0.008202 0.041537 -0.019051
v 0.030999 0.006904 -0.035382
v 0.004855 0.035649 -0.038649
v -0.025199 0.013437 -0.039301
v 0.023157 0.013437 -0.045189
v -0.006897 0.034996 -0.042571
v -0.012782 0.038266 -0.034077
v -0.016703 0.036305 -0.006634
v -0.019313 0.033687 -0.025583
v -0.031736 0.002985 -0.023626
v 0.002245 0.039575 -0.032116
v 0.025766 0.018016 -0.030811
v -0.015398 0.031077 -0.040610
v -0.017356 0.036961 -0.017742
v -0.028468 0.002985 -0.037344
v 0.030999 0.002981 -0.038000
v 0.030999 0.009514 -0.030807
v 0.004855 0.031734 -0.043228
v 0.031652 0.003634 -0.016437
v 0.004202 0.040228 -0.019051
v -0.021930 0.030421 -0.010557
v 0.015966 0.029769 -0.005978
v 0.030999 0.009514 -0.022321
v -0.021277 0.014093 -0.045189
v -0.012130 0.040228 -0.028197
v 0.019888 0.020626 -0.042571
v -0.005592 0.041537 -0.026888
f 62 38 64 
f 5 6 8 
f 5 4 10 
f 6 5 10 
f 4 5 11 
f 11 5 12 
f 11 12 14 
f 8 6 15 
f 11 14 16 
f 8 15 19 
f 12 5 22 
f 10 4 25 
f 6 10 25 
f 16 14 28 
f 19 15 31 
f 5 8 33 
f 22 5 33 
f 17 26 36 
f 32 17 36 
f 18 32 36 
f 15 32 37 
f 32 18 37 
f 2 3 38 
f 29 19 38 
f 31 2 38 
f 19 31 38 
f 23 1 41 
f 34 23 41 
f 16 7 42 
f 11 16 42 
f 26 11 42 
f 36 26 42 
f 24 16 43 
f 21 24 43 
f 28 9 43 
f 16 28 43 
f 34 13 44 
f 43 9 44 
f 21 43 44 
f 8 19 45 
f 19 29 45 
f 13 34 46 
f 35 13 46 
f 30 35 46 
f 41 30 46 
f 34 41 46 
f 12 22 47 
f 30 12 47 
f 22 33 47 
f 24 21 48 
f 3 37 48 
f 37 18 48 
f 40 24 48 
f 18 40 48 
f 27 17 49 
f 15 27 49 
f 32 15 49 
f 17 32 49 
f 9 28 50 
f 28 23 50 
f 23 34 50 
f 44 9 50 
f 34 44 50 
f 29 13 51 
f 35 8 51 
f 13 35 51 
f 8 45 51 
f 45 29 51 
f 1 14 52 
f 14 12 52 
f 12 30 52 
f 41 1 52 
f 30 41 52 
f 4 11 53 
f 11 26 53 
f 39 4 53 
f 26 39 53 
f 26 17 54 
f 17 27 54 
f 4 39 54 
f 39 26 54 
f 7 16 55 
f 16 24 55 
f 40 7 55 
f 24 40 55 
f 4 20 56 
f 20 6 56 
f 25 4 56 
f 6 25 56 
f 3 2 57 
f 2 31 57 
f 31 15 57 
f 37 3 57 
f 15 37 57 
f 33 8 58 
f 8 35 58 
f 35 30 58 
f 30 47 58 
f 47 33 58 
f 15 6 59 
f 6 20 59 
f 27 15 59 
f 27 59 60 
f 20 4 60 
f 4 54 60 
f 54 27 60 
f 59 20 60 
f 14 1 61 
f 1 23 61 
f 28 14 61 
f 23 28 61 
f 13 29 62 
f 29 38 62 
f 44 13 62 
f 21 44 62 
f 18 36 63 
f 7 40 63 
f 40 18 63 
f 42 7 63 
f 36 42 63 
f 38 3 64 
f 3 48 64 
f 48 21 64 
f 21 62 64 
o convex_1
v -0.009514 0.034346 0.037806
v 0.021853 0.002982 -0.004666
v 0.021853 0.002325 -0.004666
v -0.022586 0.029112 -0.005978
v -0.013434 0.002325 0.026695
v 0.016620 0.040879 0.024731
v 0.007473 0.002329 0.035193
v 0.000937 0.040227 -0.005978
v -0.021932 0.002325 -0.005978
v -0.019969 0.038265 0.018851
v 0.016620 0.025193 0.033886
v -0.022586 0.018668 0.022776
v -0.004286 0.046765 0.020158
v 0.016620 0.029117 -0.005978
v -0.004940 0.016706 0.041072
v 0.006819 0.035655 0.039765
v 0.021199 0.029769 0.020816
v -0.012130 0.038917 -0.005978
v 0.012047 0.044803 0.016248
v -0.002324 0.044150 0.031926
v 0.017274 0.007558 0.022122
v 0.004857 0.020626 0.042383
v -0.016050 0.021278 0.034535
v -0.005594 0.002325 0.036499
v -0.024548 0.027807 0.013635
v -0.019315 0.033693 0.027349
v 0.019236 0.033689 0.008404
v 0.008781 0.044803 0.029308
v 0.021853 0.002982 -0.005978
v -0.013434 0.041532 0.027349
v 0.016620 0.036303 0.031922
v 0.010743 0.036303 -0.005978
v -0.012784 0.044146 0.016896
v -0.002324 0.031727 0.041725
v -0.017358 0.006906 0.025389
v -0.004286 0.046108 0.012981
v 0.012047 0.002329 0.029962
v -0.013434 0.008211 0.033233
v 0.020545 0.025850 0.024082
v -0.012784 0.027807 0.037801
v -0.005594 0.040227 0.036499
v -0.018012 0.034998 -0.005978
v 0.017928 0.038265 0.012323
v 0.003553 0.046765 0.016248
v 0.009435 0.015401 0.039112
v 0.002895 0.012782 0.041072
v 0.010089 0.029769 0.039765
v 0.009435 0.042189 0.033886
v 0.016620 0.018016 0.031922
v -0.024548 0.023892 0.008404
v -0.010822 0.011477 0.037152
v -0.023240 0.017359 0.018851
v -0.023240 0.033036 0.016243
v -0.021932 0.002325 -0.003360
v -0.021932 0.029112 0.024078
v -0.004286 0.045455 0.028650
v -0.014092 0.037612 0.031922
v 0.000937 0.041532 0.036499
v -0.020623 0.037612 0.015595
v 0.008781 0.046104 0.023424
v -0.019969 0.015401 0.027349
v -0.023240 0.023244 -0.004666
v -0.002978 0.026502 0.042383
v 0.003553 0.029117 0.042383
f 98 127 128 
f 67 69 73 
f 68 72 73 
f 73 72 78 
f 67 66 81 
f 72 68 82 
f 69 67 88 
f 66 67 93 
f 67 73 93 
f 73 78 93 
f 81 66 93 
f 78 91 93 
f 91 81 93 
f 74 90 94 
f 81 70 95 
f 78 72 96 
f 72 83 96 
f 74 94 97 
f 72 82 100 
f 82 97 100 
f 97 77 100 
f 67 85 101 
f 88 67 101 
f 71 88 101 
f 69 88 102 
f 99 69 102 
f 67 81 103 
f 85 67 103 
f 95 75 103 
f 81 95 103 
f 90 87 104 
f 98 65 104 
f 65 98 105 
f 82 68 106 
f 97 82 106 
f 70 81 107 
f 83 70 107 
f 91 78 107 
f 81 91 107 
f 78 96 107 
f 96 83 107 
f 83 72 108 
f 72 100 108 
f 100 77 108 
f 71 101 109 
f 86 79 110 
f 79 88 110 
f 88 71 110 
f 71 109 110 
f 109 86 110 
f 75 95 111 
f 95 80 111 
f 86 109 111 
f 109 75 111 
f 70 92 112 
f 80 95 112 
f 95 70 112 
f 101 85 113 
f 85 103 113 
f 103 75 113 
f 75 109 113 
f 109 101 113 
f 89 68 114 
f 88 79 115 
f 87 102 115 
f 102 88 115 
f 79 104 115 
f 104 87 115 
f 76 89 116 
f 99 76 116 
f 89 114 116 
f 68 89 117 
f 90 74 117 
f 73 69 118 
f 69 99 118 
f 114 73 118 
f 99 116 118 
f 116 114 118 
f 76 87 119 
f 89 76 119 
f 87 90 119 
f 117 89 119 
f 90 117 119 
f 84 92 120 
f 77 97 120 
f 97 94 120 
f 105 84 120 
f 94 105 120 
f 94 90 121 
f 104 65 121 
f 90 104 121 
f 65 105 121 
f 105 94 121 
f 92 84 122 
f 98 80 122 
f 84 105 122 
f 105 98 122 
f 112 92 122 
f 80 112 122 
f 74 97 123 
f 106 68 123 
f 97 106 123 
f 68 117 123 
f 117 74 123 
f 70 83 124 
f 92 70 124 
f 83 108 124 
f 108 77 124 
f 77 120 124 
f 120 92 124 
f 87 76 125 
f 76 99 125 
f 102 87 125 
f 99 102 125 
f 68 73 126 
f 114 68 126 
f 73 114 126 
f 79 86 127 
f 104 79 127 
f 98 104 127 
f 80 98 128 
f 111 80 128 
f 86 111 128 
f 127 86 128 
o convex_2
v -0.018011 -0.025777 -0.041267
v 0.032301 0.002325 -0.034079
v 0.032301 -0.006175 -0.034079
v 0.027731 -0.012702 -0.045189
v -0.023893 0.002325 -0.045189
v -0.029770 0.001016 -0.034079
v 0.004201 -0.021851 -0.034079
v 0.026425 0.002325 -0.045189
v -0.021274 -0.022509 -0.045189
v 0.023812 -0.020547 -0.042574
v -0.025850 -0.019241 -0.034079
v 0.024462 -0.017931 -0.034079
v -0.028463 -0.008785 -0.038654
v 0.021849 -0.019893 -0.045189
v -0.029120 0.002325 -0.034079
v -0.012778 -0.025777 -0.043882
v -0.013429 -0.025777 -0.038654
v 0.020542 -0.021199 -0.038002
v 0.027075 -0.018583 -0.041921
v -0.029120 -0.014012 -0.034734
v -0.025194 -0.014012 -0.043882
v 0.029688 -0.010092 -0.043227
v -0.021274 -0.021851 -0.034079
v -0.023237 -0.022509 -0.042574
v -0.026500 0.001670 -0.042574
v -0.019311 -0.024467 -0.045189
v 0.029688 0.002325 -0.041267
v 0.030345 -0.011398 -0.034079
v -0.020624 -0.025122 -0.039960
v 0.021849 -0.021199 -0.042574
v 0.027731 -0.017279 -0.043227
v -0.024544 -0.009440 -0.045189
v -0.029770 -0.002904 -0.036041
v -0.016048 -0.025122 -0.037347
v -0.027157 -0.004865 -0.041921
v 0.032301 0.000361 -0.035386
v 0.026425 -0.019238 -0.040614
v 0.027731 -0.002252 -0.045189
v -0.029770 -0.011404 -0.034079
v -0.016048 -0.022509 -0.034079
v -0.012128 -0.025777 -0.039308
v -0.024544 -0.018583 -0.043227
f 152 148 170 
f 131 130 134 
f 131 134 135 
f 132 133 136 
f 133 130 136 
f 133 132 137 
f 135 134 139 
f 131 135 140 
f 137 132 142 
f 130 133 143 
f 134 130 143 
f 129 144 145 
f 140 135 146 
f 135 145 146 
f 148 141 149 
f 135 139 151 
f 139 148 152 
f 143 133 153 
f 134 143 153 
f 137 142 154 
f 144 129 154 
f 142 144 154 
f 152 137 154 
f 136 130 155 
f 131 140 156 
f 151 139 157 
f 139 152 157 
f 154 129 157 
f 152 154 157 
f 142 138 158 
f 144 142 158 
f 138 146 158 
f 142 132 159 
f 138 142 159 
f 147 138 159 
f 150 131 159 
f 132 150 159 
f 131 156 159 
f 156 147 159 
f 133 137 160 
f 137 149 160 
f 153 133 160 
f 134 153 161 
f 145 135 162 
f 129 145 162 
f 157 129 162 
f 151 157 162 
f 149 141 163 
f 160 149 163 
f 153 160 163 
f 141 161 163 
f 161 153 163 
f 130 131 164 
f 131 150 164 
f 155 130 164 
f 150 155 164 
f 140 146 165 
f 146 138 165 
f 138 147 165 
f 156 140 165 
f 147 156 165 
f 132 136 166 
f 150 132 166 
f 136 155 166 
f 155 150 166 
f 139 134 167 
f 148 139 167 
f 141 148 167 
f 134 161 167 
f 161 141 167 
f 135 151 168 
f 162 135 168 
f 151 162 168 
f 145 144 169 
f 146 145 169 
f 144 158 169 
f 158 146 169 
f 148 149 170 
f 149 137 170 
f 137 152 170 
o convex_3
v 0.022505 -0.021852 0.007091
v -0.030426 -0.008787 -0.034079
v -0.030426 -0.001601 -0.034079
v 0.032958 -0.002906 -0.034079
v -0.015392 0.002325 0.011668
v -0.018661 -0.034925 -0.016427
v -0.018009 -0.021200 0.011668
v 0.016619 0.002325 0.011668
v 0.023158 -0.018586 -0.034079
v 0.002245 -0.034925 0.011668
v 0.023810 -0.030350 -0.013812
v 0.033611 0.002325 -0.022316
v -0.031731 0.002325 -0.022316
v -0.027809 -0.020543 -0.004672
v -0.021930 -0.021852 -0.034079
v 0.029689 -0.015972 -0.001404
v 0.032306 0.002325 -0.034079
v 0.004209 -0.034269 -0.017739
v -0.024540 -0.031002 -0.009903
v 0.023158 -0.010096 0.011668
v -0.023242 -0.010748 0.007091
v 0.033611 -0.010748 -0.026888
v 0.005514 -0.036886 -0.007941
v 0.001592 -0.026423 -0.030810
v -0.029773 0.002325 -0.034079
v -0.030426 -0.015980 -0.028191
v -0.004939 -0.033616 0.011668
v 0.025774 -0.028389 -0.009903
v -0.032390 -0.006829 -0.020354
v 0.011393 -0.029694 0.011668
v 0.012045 -0.034925 -0.002716
v -0.023888 -0.031655 -0.017085
v 0.030342 -0.014014 -0.032118
v 0.031653 0.002325 -0.015778
v 0.008124 -0.031002 -0.022965
v -0.001670 -0.036886 -0.002716
v -0.030426 -0.000293 -0.015124
v -0.027809 -0.018586 -0.032772
v -0.027157 -0.026427 -0.009253
v 0.023158 -0.015972 0.011668
v -0.019973 -0.034269 -0.010557
v -0.020625 -0.014671 0.011668
v -0.018661 -0.034269 -0.018388
v 0.029037 -0.021852 -0.006634
v 0.027732 -0.010748 0.003822
v -0.026504 -0.017933 0.000553
v -0.010818 -0.029694 0.011668
v 0.034270 -0.000945 -0.022316
v -0.025199 -0.026427 -0.004019
v 0.004861 -0.022508 -0.034079
v 0.022505 -0.029041 -0.018388
v -0.032390 -0.009443 -0.025580
v 0.026427 -0.027732 -0.013812
v 0.026427 -0.021200 0.001861
v 0.004209 -0.031002 -0.024272
v -0.001670 -0.034925 0.011668
v -0.032390 -0.002254 -0.028191
v 0.034270 -0.007482 -0.024272
v 0.025115 -0.008787 0.007745
v 0.013350 -0.032964 0.001861
v 0.005514 -0.036230 -0.011855
v -0.019973 -0.006173 0.010360
v -0.021930 -0.033616 -0.017085
v 0.027732 -0.016628 -0.032772
f 203 223 234 
f 172 173 174 
f 175 177 178 
f 172 174 179 
f 178 177 180 
f 175 178 182 
f 175 182 183 
f 172 179 185 
f 174 173 187 
f 183 182 187 
f 178 180 190 
f 187 173 195 
f 183 187 195 
f 180 177 197 
f 190 180 200 
f 180 193 201 
f 193 181 201 
f 181 198 201 
f 174 192 203 
f 182 178 204 
f 176 193 206 
f 193 180 206 
f 175 183 207 
f 183 199 207 
f 172 185 208 
f 196 172 208 
f 202 196 208 
f 184 199 209 
f 202 189 209 
f 196 202 209 
f 200 171 210 
f 190 200 210 
f 197 189 211 
f 176 206 211 
f 177 175 212 
f 185 194 213 
f 210 186 215 
f 190 210 215 
f 199 184 216 
f 191 207 216 
f 207 199 216 
f 177 212 216 
f 212 191 216 
f 197 177 217 
f 189 197 217 
f 174 187 218 
f 187 182 218 
f 182 204 218 
f 215 186 218 
f 204 215 218 
f 184 209 219 
f 209 189 219 
f 216 184 219 
f 177 216 219 
f 217 177 219 
f 189 217 219 
f 185 179 220 
f 194 185 220 
f 179 194 220 
f 205 179 221 
f 188 205 221 
f 172 196 222 
f 209 199 222 
f 196 209 222 
f 198 181 223 
f 203 192 223 
f 192 214 223 
f 214 198 223 
f 171 200 224 
f 200 198 224 
f 210 171 224 
f 186 210 224 
f 214 186 224 
f 198 214 224 
f 194 179 225 
f 179 205 225 
f 205 188 225 
f 188 213 225 
f 213 194 225 
f 180 197 226 
f 206 180 226 
f 197 211 226 
f 211 206 226 
f 173 172 227 
f 195 173 227 
f 183 195 227 
f 199 183 227 
f 172 222 227 
f 222 199 227 
f 192 174 228 
f 186 214 228 
f 214 192 228 
f 174 218 228 
f 218 186 228 
f 178 190 229 
f 204 178 229 
f 215 204 229 
f 190 215 229 
f 200 180 230 
f 198 200 230 
f 201 198 230 
f 180 201 230 
f 193 176 231 
f 181 193 231 
f 176 213 231 
f 213 188 231 
f 221 181 231 
f 188 221 231 
f 175 207 232 
f 207 191 232 
f 212 175 232 
f 191 212 232 
f 189 202 233 
f 208 185 233 
f 202 208 233 
f 211 189 233 
f 176 211 233 
f 213 176 233 
f 185 213 233 
f 179 174 234 
f 174 203 234 
f 181 221 234 
f 221 179 234 
f 223 181 234 
o convex_4
v 0.007472 -0.004867 0.046957
v -0.023894 -0.025771 0.023436
v -0.023894 -0.025771 0.026047
v 0.009432 -0.045381 0.022780
v 0.016623 0.002325 0.011668
v -0.015397 0.001670 0.011668
v 0.010090 -0.037539 0.048265
v -0.014744 -0.013363 0.048265
v 0.024467 -0.023161 0.030618
v -0.002980 -0.035579 0.011668
v -0.012784 -0.040150 0.035845
v 0.022502 -0.015979 0.011668
v -0.006246 0.002325 0.037153
v 0.017929 -0.014674 0.048265
v -0.006246 -0.046031 0.022780
v 0.023155 -0.034268 0.026703
v -0.005593 -0.038189 0.048265
v -0.019970 -0.008137 0.031922
v -0.018010 -0.020555 0.011668
v 0.020542 -0.007482 0.037153
v 0.009437 0.002325 0.034541
v -0.001016 -0.047996 0.029314
v -0.016703 -0.036884 0.018861
v 0.015970 -0.035574 0.016242
v -0.015397 -0.028387 0.044994
v 0.018583 -0.020555 0.048265
v 0.013356 -0.042110 0.035193
v -0.019970 -0.009443 0.011668
v 0.022502 -0.009443 0.011668
v -0.008859 -0.006827 0.048265
v -0.014090 -0.002256 0.037153
v 0.003553 -0.036884 0.012323
v -0.023236 -0.018595 0.029966
v -0.014090 0.002325 0.023436
v 0.023155 -0.013363 0.035193
v 0.021196 -0.035574 0.020817
v -0.020623 -0.033613 0.026047
v 0.015970 -0.003561 0.039116
v 0.006819 -0.045381 0.020165
v 0.022502 -0.031653 0.032578
v -0.022583 -0.013363 0.024091
v -0.002322 -0.041460 0.015590
v -0.015397 -0.019245 0.048265
v -0.013437 -0.036229 0.015590
v 0.002241 -0.047341 0.031270
v 0.002899 -0.000291 0.042383
v 0.024467 -0.027732 0.024088
v -0.021930 -0.029692 0.020165
v 0.010090 -0.031653 0.011668
v -0.021930 -0.027732 0.031270
v 0.014010 -0.009443 0.048265
v 0.015316 0.002325 0.020817
v 0.003553 -0.040805 0.044994
v -0.008859 -0.044726 0.025399
v 0.017276 -0.032308 0.042383
v -0.016703 -0.012713 0.044994
v 0.019889 -0.038189 0.024091
v 0.024467 -0.017284 0.029314
v 0.021849 -0.014019 0.041072
v -0.014744 -0.032308 0.043031
v -0.014744 0.002325 0.011668
v -0.004940 -0.005522 0.048265
v -0.010824 -0.003561 0.043690
v 0.005512 -0.047341 0.024740
f 261 279 298 
f 240 239 244 
f 244 239 246 
f 242 241 248 
f 241 242 251 
f 240 244 253 
f 239 247 255 
f 251 245 256 
f 248 241 260 
f 240 253 262 
f 246 239 263 
f 239 254 263 
f 242 248 264 
f 236 237 267 
f 247 239 268 
f 240 252 268 
f 265 247 268 
f 252 265 268 
f 263 254 269 
f 258 246 270 
f 237 236 271 
f 255 235 272 
f 266 258 273 
f 270 238 273 
f 258 270 273 
f 250 243 274 
f 243 260 274 
f 261 250 274 
f 252 240 275 
f 262 236 275 
f 240 262 275 
f 236 267 275 
f 267 252 275 
f 244 266 276 
f 273 249 276 
f 266 273 276 
f 251 242 277 
f 259 251 277 
f 253 244 278 
f 249 257 278 
f 257 253 278 
f 244 276 278 
f 276 249 278 
f 261 241 279 
f 235 255 280 
f 255 247 280 
f 243 250 281 
f 246 263 281 
f 250 270 281 
f 270 246 281 
f 253 257 282 
f 236 262 282 
f 262 253 282 
f 271 236 282 
f 257 271 282 
f 244 246 283 
f 246 258 283 
f 266 244 283 
f 258 266 283 
f 267 237 284 
f 237 271 284 
f 259 277 284 
f 277 267 284 
f 248 254 285 
f 264 248 285 
f 272 235 285 
f 254 272 285 
f 254 239 286 
f 239 255 286 
f 272 254 286 
f 255 272 286 
f 241 251 287 
f 251 256 287 
f 279 241 287 
f 256 279 287 
f 249 256 288 
f 256 245 288 
f 257 249 288 
f 245 271 288 
f 271 257 288 
f 260 241 289 
f 241 261 289 
f 274 260 289 
f 261 274 289 
f 265 252 290 
f 252 267 290 
f 277 242 290 
f 267 277 290 
f 261 238 291 
f 250 261 291 
f 238 270 291 
f 270 250 291 
f 269 243 292 
f 263 269 292 
f 243 281 292 
f 281 263 292 
f 254 248 293 
f 248 260 293 
f 260 243 293 
f 269 254 293 
f 243 269 293 
f 245 251 294 
f 251 259 294 
f 271 245 294 
f 259 284 294 
f 284 271 294 
f 239 240 295 
f 268 239 295 
f 240 268 295 
f 235 280 296 
f 280 247 296 
f 285 235 296 
f 264 285 296 
f 242 264 297 
f 247 265 297 
f 265 290 297 
f 290 242 297 
f 296 247 297 
f 264 296 297 
f 256 249 298 
f 238 261 298 
f 249 273 298 
f 273 238 298 
f 279 256 298 
o convex_5
v 0.004207 -0.011400 0.052840
v -0.015398 -0.022507 0.054146
v -0.012783 -0.026429 0.048266
v 0.004207 -0.031658 0.051534
v 0.004207 -0.006171 0.048266
v -0.010823 -0.026429 0.058720
v -0.010823 -0.008785 0.048920
v -0.012130 -0.017283 0.057414
v 0.004207 -0.031658 0.048266
v -0.009516 -0.031658 0.048920
v 0.004207 -0.024468 0.054146
v -0.014744 -0.014017 0.048266
v -0.008209 -0.021197 0.058720
v -0.004289 -0.006171 0.048920
v -0.014744 -0.018593 0.056760
v -0.008209 -0.031658 0.052186
v -0.014089 -0.024468 0.058067
v -0.006902 -0.027083 0.058067
v 0.004207 -0.014671 0.054146
v 0.003553 -0.010746 0.052840
v -0.010169 -0.028390 0.057414
v -0.015398 -0.018593 0.048920
v -0.015398 -0.017283 0.054800
v -0.008862 -0.007478 0.048266
v -0.007555 -0.025119 0.058720
v -0.010169 -0.031005 0.048266
v -0.012130 -0.020546 0.058720
v -0.008862 -0.018593 0.058067
v -0.002329 -0.008134 0.050880
v -0.014089 -0.016632 0.056107
f 321 313 328 
f 299 302 303 
f 303 302 307 
f 301 303 307 
f 307 302 308 
f 302 299 309 
f 303 301 310 
f 308 302 314 
f 313 300 315 
f 302 309 316 
f 309 299 317 
f 299 303 318 
f 317 299 318 
f 314 302 319 
f 308 314 319 
f 315 308 319 
f 304 315 319 
f 302 316 319 
f 316 304 319 
f 301 300 320 
f 310 301 320 
f 305 310 321 
f 300 313 321 
f 320 300 321 
f 310 320 321 
f 303 310 322 
f 310 305 322 
f 312 303 322 
f 305 312 322 
f 311 304 323 
f 316 309 323 
f 304 316 323 
f 309 317 323 
f 317 311 323 
f 300 301 324 
f 301 307 324 
f 307 308 324 
f 308 315 324 
f 315 300 324 
f 304 311 325 
f 306 313 325 
f 315 304 325 
f 313 315 325 
f 311 317 326 
f 317 318 326 
f 318 306 326 
f 306 325 326 
f 325 311 326 
f 303 312 327 
f 312 306 327 
f 318 303 327 
f 306 318 327 
f 312 305 328 
f 306 312 328 
f 313 306 328 
f 305 321 328 
o convex_6
v 0.019239 -0.017283 0.048919
v 0.004207 -0.031658 0.048265
v 0.012048 -0.031658 0.048265
v 0.013356 -0.024468 0.060028
v 0.004207 -0.006171 0.048265
v 0.018582 -0.017939 0.056759
v 0.004207 -0.014671 0.054147
v 0.008785 -0.028390 0.057412
v 0.012048 -0.017283 0.058720
v 0.017277 -0.024468 0.056759
v 0.012048 -0.008785 0.048265
v 0.004207 -0.031658 0.051534
v 0.012701 -0.029041 0.057412
v 0.015971 -0.016632 0.058066
v 0.008785 -0.023158 0.058720
v 0.018582 -0.020546 0.048265
v 0.004207 -0.025119 0.054147
v 0.019239 -0.021197 0.051534
v 0.019239 -0.016632 0.054147
v 0.012048 -0.031658 0.052188
v 0.005515 -0.006171 0.048919
v 0.004207 -0.010095 0.052188
v 0.011398 -0.020546 0.060028
v 0.017277 -0.015978 0.056759
v 0.015971 -0.019890 0.059374
v 0.018582 -0.015978 0.048265
v 0.019239 -0.020546 0.055453
v 0.016624 -0.023158 0.058720
v 0.010090 -0.025773 0.059374
v 0.013356 -0.027083 0.059374
f 332 357 358 
f 331 330 333 
f 333 330 335 
f 331 333 339 
f 330 331 340 
f 335 330 340 
f 336 340 341 
f 331 339 344 
f 335 340 345 
f 340 336 345 
f 343 335 345 
f 338 331 346 
f 344 329 346 
f 331 344 346 
f 346 329 347 
f 331 338 348 
f 340 331 348 
f 341 340 348 
f 338 341 348 
f 339 333 349 
f 337 342 349 
f 333 335 350 
f 349 333 350 
f 337 349 350 
f 335 343 351 
f 350 335 351 
f 337 350 351 
f 342 334 352 
f 347 339 352 
f 334 347 352 
f 339 349 352 
f 349 342 352 
f 334 342 353 
f 342 337 353 
f 351 332 353 
f 337 351 353 
f 329 344 354 
f 344 339 354 
f 347 329 354 
f 339 347 354 
f 338 346 355 
f 347 334 355 
f 346 347 355 
f 334 353 356 
f 353 332 356 
f 338 355 356 
f 355 334 356 
f 345 336 357 
f 343 345 357 
f 332 351 357 
f 351 343 357 
f 336 341 358 
f 341 338 358 
f 356 332 358 
f 338 356 358 
f 357 336 358 
o convex_7
v -0.005595 -0.038845 0.048265
v 0.012703 -0.031658 0.051533
v 0.012703 -0.036233 0.051533
v -0.009517 -0.032312 0.051533
v 0.012049 -0.031658 0.048265
v -0.006902 -0.040808 0.051533
v -0.008862 -0.031658 0.048265
v 0.010741 -0.040808 0.050879
v 0.008782 -0.038845 0.048265
v -0.008207 -0.039500 0.050879
v 0.010741 -0.040808 0.051533
v -0.008862 -0.031658 0.051533
f 360 365 370 
f 361 360 362 
f 360 361 363 
f 361 362 364 
f 363 359 365 
f 360 363 365 
f 363 361 366 
f 364 359 366 
f 359 363 367 
f 366 359 367 
f 363 366 367 
f 359 364 368 
f 364 362 368 
f 362 365 368 
f 365 359 368 
f 361 364 369 
f 366 361 369 
f 364 366 369 
f 362 360 370 
f 365 362 370 
o convex_8
v -0.005596 -0.041463 0.051533
v -0.010822 -0.041463 0.064603
v -0.014091 -0.041463 0.064603
v -0.009517 -0.055836 0.061334
v -0.009517 -0.032316 0.051533
v -0.004288 -0.034276 0.052842
v -0.011476 -0.051915 0.059373
v -0.008865 -0.046687 0.064603
v -0.014745 -0.043423 0.063949
v -0.006250 -0.031658 0.052842
v -0.009517 -0.036889 0.051533
v -0.010822 -0.055836 0.062642
v -0.004288 -0.037542 0.051533
v -0.008865 -0.053221 0.062642
v -0.007557 -0.041463 0.051533
v -0.009517 -0.032969 0.054802
v -0.008865 -0.042770 0.063949
v -0.004942 -0.031658 0.052186
v -0.013437 -0.046687 0.064603
v -0.014091 -0.044074 0.061988
v -0.006250 -0.042770 0.058068
f 384 383 391 
f 372 373 378 
f 373 375 379 
f 375 371 381 
f 377 374 382 
f 379 377 382 
f 374 371 383 
f 371 375 383 
f 382 374 384 
f 378 382 384 
f 374 383 384 
f 371 374 385 
f 374 377 385 
f 381 371 385 
f 377 381 385 
f 373 372 386 
f 375 373 386 
f 372 380 386 
f 380 375 386 
f 372 378 387 
f 378 376 387 
f 380 372 388 
f 375 380 388 
f 383 375 388 
f 376 383 388 
f 372 387 388 
f 387 376 388 
f 378 373 389 
f 373 379 389 
f 382 378 389 
f 379 382 389 
f 379 375 390 
f 377 379 390 
f 375 381 390 
f 381 377 390 
f 376 378 391 
f 383 376 391 
f 378 384 391 
o convex_9
v -0.012784 -0.041461 0.068526
v -0.013437 -0.050611 0.074405
v -0.014091 -0.049957 0.073097
v -0.009517 -0.046689 0.064604
v -0.010825 -0.047342 0.077019
v -0.014745 -0.044076 0.064604
v -0.014745 -0.046689 0.077019
v -0.009517 -0.042769 0.064604
v -0.011477 -0.050611 0.077019
v -0.012784 -0.047342 0.064604
v -0.014745 -0.042115 0.064604
v -0.014745 -0.049303 0.077019
v -0.010825 -0.042115 0.068526
v -0.014745 -0.042115 0.069179
f 402 398 405 
f 396 392 398 
f 396 395 399 
f 395 397 399 
f 393 395 400 
f 395 396 400 
f 396 398 400 
f 393 394 401 
f 395 393 401 
f 394 397 401 
f 397 395 401 
f 397 398 402 
f 392 399 402 
f 399 397 402 
f 394 393 403 
f 397 394 403 
f 398 397 403 
f 393 400 403 
f 400 398 403 
f 392 396 404 
f 399 392 404 
f 396 399 404 
f 398 392 405 
f 392 402 405 
o convex_10
v -0.013437 -0.049957 0.078981
v -0.003635 -0.042115 0.080941
v -0.003635 -0.042115 0.080288
v -0.014745 -0.046689 0.077020
v -0.010822 -0.049957 0.077020
v -0.009516 -0.044076 0.081595
v -0.007557 -0.047341 0.081595
v -0.003635 -0.044076 0.080288
f 412 410 413 
f 406 409 410 
f 409 408 410 
f 407 408 411 
f 408 409 411 
f 409 406 411 
f 406 410 412 
f 407 411 412 
f 411 406 412 
f 408 407 413 
f 410 408 413 
f 407 412 413 
o convex_11
v 0.016623 -0.050611 0.078327
v 0.010091 -0.042115 0.081595
v 0.010091 -0.042115 0.080288
v 0.017931 -0.046689 0.077020
v 0.006822 -0.043422 0.080288
v 0.013356 -0.047341 0.081595
v 0.014010 -0.049957 0.077020
v 0.010091 -0.046689 0.081595
v 0.015317 -0.045384 0.080941
v 0.014662 -0.046689 0.077020
f 417 420 423 
f 416 415 417 
f 415 416 418 
f 417 414 420 
f 415 418 421 
f 419 415 421 
f 414 419 421 
f 418 420 421 
f 420 414 421 
f 417 415 422 
f 414 417 422 
f 415 419 422 
f 419 414 422 
f 416 417 423 
f 418 416 423 
f 420 418 423 
o convex_12
v 0.008130 -0.040157 0.051533
v 0.017930 -0.041463 0.064603
v 0.017277 -0.040810 0.063949
v 0.012703 -0.055181 0.062642
v 0.012703 -0.042770 0.064603
v 0.013356 -0.032969 0.052186
v 0.014663 -0.053874 0.060027
v 0.008783 -0.031658 0.052186
v 0.012703 -0.038197 0.051533
v 0.017930 -0.043423 0.062642
v 0.007477 -0.036235 0.052186
v 0.014663 -0.054528 0.063296
v 0.012050 -0.046687 0.063949
v 0.010744 -0.041463 0.051533
v 0.012703 -0.032969 0.054802
v 0.013356 -0.055181 0.060682
v 0.014009 -0.041463 0.064603
v 0.012703 -0.031658 0.051533
v 0.007477 -0.033623 0.052186
v 0.013356 -0.047993 0.064603
v 0.017930 -0.044727 0.064603
f 443 435 444 
f 429 425 433 
f 432 429 433 
f 430 432 433 
f 424 427 434 
f 434 427 436 
f 432 430 437 
f 424 432 437 
f 426 425 438 
f 427 424 439 
f 435 427 439 
f 430 435 439 
f 424 437 439 
f 437 430 439 
f 425 426 440 
f 428 425 440 
f 431 428 440 
f 426 438 440 
f 438 431 440 
f 425 429 441 
f 429 432 441 
f 432 424 441 
f 438 425 441 
f 431 438 441 
f 428 431 442 
f 424 434 442 
f 434 436 442 
f 436 428 442 
f 441 424 442 
f 431 441 442 
f 425 428 443 
f 427 435 443 
f 436 427 443 
f 428 436 443 
f 433 425 444 
f 430 433 444 
f 435 430 444 
f 425 443 444 
o convex_13
v 0.017277 -0.041461 0.068526
v 0.015971 -0.050611 0.074405
v 0.015318 -0.049957 0.072444
v 0.014011 -0.048648 0.077019
v 0.012703 -0.043423 0.064604
v 0.016623 -0.047342 0.064604
v 0.018585 -0.047995 0.076365
v 0.017931 -0.041461 0.064604
v 0.012703 -0.046689 0.064604
v 0.015318 -0.046689 0.077019
v 0.014011 -0.042769 0.069179
v 0.018585 -0.047995 0.072444
v 0.017277 -0.050611 0.077019
v 0.018585 -0.046689 0.076365
v 0.014011 -0.049957 0.077019
v 0.014665 -0.041461 0.064604
f 449 455 460 
f 446 447 450 
f 450 449 452 
f 448 449 453 
f 450 447 453 
f 449 450 453 
f 449 448 455 
f 454 445 455 
f 448 454 455 
f 450 452 456 
f 446 450 457 
f 454 448 457 
f 450 456 457 
f 456 451 457 
f 452 445 458 
f 445 454 458 
f 451 456 458 
f 456 452 458 
f 454 457 458 
f 457 451 458 
f 447 446 459 
f 453 447 459 
f 448 453 459 
f 446 457 459 
f 457 448 459 
f 445 452 460 
f 452 449 460 
f 455 445 460 
