o convex_0
v 0.007172 -0.058747 0.004860
v -0.024842 -0.034864 -0.007843
v -0.024842 -0.034864 -0.006318
v 0.017845 0.001212 0.006892
v 0.018353 -0.031823 -0.017499
v -0.018232 0.001212 -0.017499
v -0.018232 0.001212 0.007910
v -0.016200 -0.055699 -0.014960
v 0.010731 0.001212 -0.015974
v -0.011626 -0.059255 0.002318
v 0.014286 -0.058747 -0.012418
v 0.017337 -0.028267 0.007910
v -0.023314 -0.034864 -0.018009
v -0.000957 -0.068921 -0.005808
v -0.014169 -0.027257 0.007910
v 0.018860 -0.044015 -0.002764
v -0.021283 -0.046047 -0.001749
v -0.024330 -0.020138 -0.007333
v 0.011747 -0.060786 0.000793
v 0.017845 -0.046555 -0.015974
v 0.007680 -0.009470 -0.018009
v -0.000450 -0.061802 0.004860
v -0.012641 -0.063827 -0.003274
v 0.009715 -0.040960 0.007910
v 0.018353 -0.003367 0.007907
v 0.019880 -0.035880 -0.002257
v 0.005141 -0.067898 -0.001239
v -0.019759 -0.053159 -0.006826
v -0.006035 -0.065358 -0.010383
v -0.021791 -0.013026 -0.018009
v -0.020775 -0.001843 -0.003274
v 0.016829 -0.024710 -0.018009
v -0.005528 -0.066374 0.000793
v -0.019759 -0.049095 -0.016482
v 0.010731 -0.056214 -0.014450
v 0.009715 -0.065358 -0.008861
v -0.018739 -0.003367 0.007910
v 0.017337 -0.035887 -0.017499
v -0.019252 -0.044015 0.001300
v 0.015306 -0.054175 0.000286
v -0.023314 -0.029283 -0.001242
v -0.012134 0.001212 -0.018009
v -0.007559 -0.067390 -0.006826
v -0.023314 -0.016582 -0.002259
v -0.019252 0.001212 -0.015974
v -0.023314 -0.019630 -0.017499
v -0.017216 -0.056715 -0.001747
v 0.013778 -0.049603 0.004350
v -0.005528 -0.060786 0.004350
v -0.017724 -0.050111 -0.016484
v 0.010223 -0.061287 -0.012418
v 0.015306 -0.056715 -0.003274
v 0.004633 -0.064850 0.002823
v -0.014677 -0.061802 -0.006318
v -0.012134 -0.030813 0.007910
v -0.023314 -0.042491 -0.006826
v 0.017845 -0.042999 0.001810
v 0.019368 -0.028775 -0.006316
v -0.019759 0.001212 0.002825
v 0.015813 -0.045539 -0.016484
v 0.017337 -0.025218 -0.017499
v -0.004512 -0.068406 -0.001749
v 0.017337 0.001212 0.007910
v 0.011747 -0.062818 -0.002764
f 52 19 64 
f 4 6 7 
f 6 4 9 
f 12 7 15 
f 2 3 18 
f 1 12 24 
f 12 15 24 
f 22 1 24 
f 20 5 26 
f 16 20 26 
f 25 12 26 
f 21 13 30 
f 21 9 32 
f 13 21 32 
f 10 23 33 
f 8 28 34 
f 20 11 35 
f 27 14 36 
f 14 29 36 
f 15 7 37 
f 5 20 38 
f 32 5 38 
f 13 32 38 
f 10 15 39 
f 15 37 39 
f 3 17 41 
f 17 39 41 
f 39 37 41 
f 6 9 42 
f 9 21 42 
f 30 6 42 
f 21 30 42 
f 8 29 43 
f 29 14 43 
f 18 3 44 
f 31 18 44 
f 37 7 44 
f 3 41 44 
f 41 37 44 
f 7 6 45 
f 6 30 45 
f 18 31 45 
f 13 2 46 
f 2 18 46 
f 30 13 46 
f 45 30 46 
f 18 45 46 
f 23 10 47 
f 17 28 47 
f 10 39 47 
f 39 17 47 
f 12 1 48 
f 1 19 48 
f 19 40 48 
f 15 10 49 
f 10 33 49 
f 33 22 49 
f 34 13 50 
f 8 34 50 
f 35 8 50 
f 13 38 50 
f 29 8 51 
f 35 11 51 
f 8 35 51 
f 11 36 51 
f 36 29 51 
f 11 20 52 
f 20 16 52 
f 16 40 52 
f 40 19 52 
f 19 1 53 
f 1 22 53 
f 27 19 53 
f 22 33 53 
f 28 8 54 
f 8 43 54 
f 43 23 54 
f 23 47 54 
f 47 28 54 
f 24 15 55 
f 22 24 55 
f 15 49 55 
f 49 22 55 
f 3 2 56 
f 2 13 56 
f 17 3 56 
f 28 17 56 
f 13 34 56 
f 34 28 56 
f 26 12 57 
f 16 26 57 
f 40 16 57 
f 12 48 57 
f 48 40 57 
f 5 4 58 
f 4 25 58 
f 26 5 58 
f 25 26 58 
f 44 7 59 
f 31 44 59 
f 7 45 59 
f 45 31 59 
f 20 35 60 
f 38 20 60 
f 35 50 60 
f 50 38 60 
f 4 5 61 
f 9 4 61 
f 5 32 61 
f 32 9 61 
f 14 27 62 
f 33 23 62 
f 23 43 62 
f 43 14 62 
f 27 53 62 
f 53 33 62 
f 4 7 63 
f 7 12 63 
f 25 4 63 
f 12 25 63 
f 19 27 64 
f 36 11 64 
f 27 36 64 
f 11 52 64 
o convex_1
v 0.016830 0.047455 -0.012926
v 0.002093 0.001212 -0.015975
v 0.002093 0.001212 -0.006320
v 0.002093 0.053558 -0.010895
v 0.018354 0.030685 -0.006320
v 0.016830 0.020529 -0.017500
v 0.002093 0.053045 -0.006320
v 0.002093 0.040845 -0.016483
v 0.009209 0.001212 -0.006320
v 0.018863 0.040338 -0.016992
v 0.011240 0.001724 -0.014958
v 0.017338 0.044406 -0.006320
v 0.002093 0.004266 -0.017500
v 0.007683 0.053045 -0.013942
v 0.010733 0.019514 -0.018009
v 0.012257 0.050504 -0.006320
v 0.018863 0.026626 -0.013942
v 0.012766 0.009349 -0.017500
v 0.019372 0.040850 -0.012926
v 0.002602 0.047450 -0.015467
v 0.017847 0.044406 -0.016483
v 0.010733 0.001212 -0.015975
v 0.002093 0.020017 -0.017500
v 0.016830 0.024597 -0.006320
v 0.019372 0.032714 -0.016992
v 0.012766 0.051011 -0.013942
v 0.017847 0.034748 -0.017500
v 0.002093 0.053558 -0.013435
v 0.018863 0.038304 -0.007338
v 0.007683 0.052538 -0.006320
v 0.019372 0.030177 -0.013435
v 0.013782 0.041358 -0.016992
v 0.011748 0.013919 -0.018009
v 0.017338 0.021036 -0.014451
v 0.015814 0.048470 -0.010388
v 0.011240 0.001724 -0.014451
v 0.011749 0.051523 -0.009879
v 0.018354 0.044406 -0.012419
v 0.005144 0.053558 -0.011404
v 0.007176 0.001212 -0.016483
v 0.013273 0.049996 -0.014958
v 0.015306 0.047962 -0.006320
v 0.010733 0.030177 -0.017500
v 0.018354 0.040850 -0.006320
v 0.009209 0.013919 -0.018009
v 0.017847 0.024597 -0.017500
f 97 91 110 
f 66 67 68 
f 68 67 71 
f 67 69 71 
f 66 68 72 
f 67 66 73 
f 69 67 73 
f 71 69 76 
f 66 72 77 
f 71 76 80 
f 83 74 85 
f 73 66 86 
f 70 75 86 
f 82 70 86 
f 77 72 87 
f 69 73 88 
f 81 69 88 
f 74 83 89 
f 74 89 91 
f 72 68 92 
f 84 72 92 
f 78 84 92 
f 71 80 94 
f 69 81 95 
f 81 89 95 
f 89 83 95 
f 93 69 95 
f 83 93 95 
f 72 84 96 
f 84 85 96 
f 85 74 96 
f 74 91 96 
f 70 82 97 
f 82 77 97 
f 79 91 97 
f 75 70 98 
f 70 81 98 
f 81 88 98 
f 76 65 99 
f 65 90 99 
f 73 86 100 
f 86 75 100 
f 88 73 100 
f 75 98 100 
f 98 88 100 
f 90 78 101 
f 78 94 101 
f 94 80 101 
f 80 99 101 
f 99 90 101 
f 65 76 102 
f 85 65 102 
f 83 85 102 
f 68 71 103 
f 92 68 103 
f 78 92 103 
f 71 94 103 
f 94 78 103 
f 66 77 104 
f 77 82 104 
f 86 66 104 
f 82 86 104 
f 84 78 105 
f 85 84 105 
f 65 85 105 
f 90 65 105 
f 78 90 105 
f 80 76 106 
f 76 99 106 
f 99 80 106 
f 87 72 107 
f 79 87 107 
f 91 79 107 
f 72 96 107 
f 96 91 107 
f 76 69 108 
f 69 93 108 
f 93 83 108 
f 102 76 108 
f 83 102 108 
f 77 87 109 
f 87 79 109 
f 97 77 109 
f 79 97 109 
f 81 70 110 
f 89 81 110 
f 91 89 110 
f 70 97 110 
o convex_2
v -0.005022 0.012393 0.032810
v -0.018235 0.011884 0.007912
v -0.015694 0.011884 0.007912
v -0.016710 0.028655 0.007912
v -0.008072 0.028655 0.007912
v -0.014169 0.015445 0.029253
v -0.007055 0.028655 0.021120
v -0.011628 0.028655 0.021120
v -0.009088 0.013920 0.017060
v -0.016202 0.011884 0.022647
v -0.005530 0.028146 0.015026
v -0.005530 0.011884 0.028743
v -0.009597 0.021539 0.008419
v -0.013152 0.011884 0.031285
v -0.007055 0.012393 0.033320
v -0.016710 0.028655 0.008927
v -0.005530 0.028655 0.019600
v -0.013660 0.028655 0.017570
v -0.011628 0.011884 0.014008
v -0.016710 0.016968 0.017570
v -0.012644 0.015445 0.030271
v -0.007563 0.022557 0.012994
v -0.016202 0.014427 0.022137
v -0.005022 0.011884 0.030775
v -0.015694 0.027637 0.013504
v -0.006038 0.028146 0.012994
v -0.018235 0.012393 0.008419
v -0.008072 0.017983 0.015536
v -0.010105 0.021030 0.007912
f 123 129 139 
f 113 112 114 
f 113 114 115 
f 115 114 117 
f 117 114 118 
f 112 113 120 
f 120 113 122 
f 116 120 124 
f 120 122 124 
f 111 117 125 
f 117 118 125 
f 118 114 126 
f 117 111 127 
f 115 117 127 
f 111 121 127 
f 121 115 127 
f 116 118 128 
f 118 126 128 
f 119 122 129 
f 122 113 129 
f 123 119 129 
f 118 116 131 
f 116 124 131 
f 125 118 131 
f 124 125 131 
f 120 116 133 
f 116 126 133 
f 126 130 133 
f 121 111 134 
f 122 121 134 
f 124 122 134 
f 111 125 134 
f 125 124 134 
f 126 116 135 
f 116 128 135 
f 128 126 135 
f 115 121 136 
f 121 122 136 
f 123 115 136 
f 122 132 136 
f 132 123 136 
f 114 112 137 
f 112 120 137 
f 126 114 137 
f 130 126 137 
f 120 133 137 
f 133 130 137 
f 122 119 138 
f 119 123 138 
f 132 122 138 
f 123 132 138 
f 113 115 139 
f 115 123 139 
f 129 113 139 
o convex_3
v -0.003497 0.038817 0.022648
v -0.016711 0.028656 0.007910
v -0.016711 0.028656 0.008927
v -0.005530 0.028656 0.019598
v -0.005530 0.038817 0.007910
v -0.011119 0.038817 0.018581
v -0.011119 0.028656 0.021121
v -0.008073 0.028656 0.007910
v -0.013661 0.038817 0.007910
v -0.001972 0.038310 0.016039
v -0.007564 0.038817 0.022648
v -0.015693 0.032213 0.011467
v -0.005530 0.028656 0.014517
v -0.013153 0.029165 0.018581
v -0.001972 0.038817 0.020612
v -0.007564 0.028656 0.021121
v -0.014169 0.038310 0.008927
v -0.007564 0.029673 0.007910
v -0.012642 0.038817 0.015026
v -0.005022 0.029165 0.018072
v -0.011627 0.030181 0.020612
f 153 146 160 
f 142 141 143 
f 140 144 145 
f 142 143 146 
f 143 141 147 
f 141 144 147 
f 144 141 148 
f 145 144 148 
f 140 145 150 
f 146 140 150 
f 143 147 152 
f 142 146 153 
f 151 142 153 
f 145 151 153 
f 140 143 154 
f 144 140 154 
f 149 144 154 
f 143 140 155 
f 140 146 155 
f 146 143 155 
f 141 142 156 
f 148 141 156 
f 142 151 156 
f 147 144 157 
f 144 149 157 
f 152 147 157 
f 149 152 157 
f 145 148 158 
f 151 145 158 
f 148 156 158 
f 156 151 158 
f 143 152 159 
f 152 149 159 
f 154 143 159 
f 149 154 159 
f 150 145 160 
f 146 150 160 
f 145 153 160 
o convex_4
v -0.013661 0.038819 0.007910
v 0.004126 0.048473 0.033828
v 0.004126 0.045428 0.033828
v 0.004126 0.048982 0.007910
v -0.004517 0.052540 0.008927
v -0.001465 0.038819 0.017058
v -0.001465 0.048473 0.032303
v -0.007560 0.038819 0.022647
v 0.004126 0.054574 0.011976
v -0.004517 0.051522 0.019603
v -0.005527 0.038819 0.007910
v -0.010102 0.043902 0.017058
v 0.001582 0.053556 0.020615
v -0.009086 0.047966 0.007910
v 0.004126 0.043902 0.032303
v 0.001076 0.054574 0.007910
v -0.011118 0.039837 0.018078
v 0.004126 0.045428 0.017566
v -0.000956 0.046948 0.033318
v -0.002482 0.038819 0.022647
v -0.002992 0.052540 0.019603
v 0.004126 0.049998 0.031286
v 0.000059 0.044920 0.032808
v 0.004126 0.054574 0.007910
v -0.007560 0.047966 0.018078
v -0.013153 0.040345 0.009944
v 0.004126 0.053556 0.020615
v 0.000059 0.048982 0.032808
v -0.010611 0.038819 0.019090
v 0.000567 0.054065 0.016551
v -0.007560 0.049998 0.007910
v -0.009086 0.046948 0.014009
v 0.004126 0.043902 0.028237
v -0.002482 0.053556 0.009944
v -0.002992 0.038819 0.012996
v -0.006544 0.038819 0.023155
v -0.012136 0.039837 0.015533
f 189 177 197 
f 162 163 164 
f 161 166 168 
f 162 164 169 
f 161 164 171 
f 166 161 171 
f 164 161 174 
f 164 163 175 
f 164 174 176 
f 167 172 177 
f 166 164 178 
f 164 175 178 
f 163 162 179 
f 168 166 180 
f 166 175 180 
f 170 167 181 
f 165 170 181 
f 162 169 182 
f 175 163 183 
f 163 179 183 
f 179 168 183 
f 169 164 184 
f 164 176 184 
f 176 169 184 
f 167 170 185 
f 172 167 185 
f 174 161 186 
f 182 169 187 
f 173 182 187 
f 179 162 188 
f 167 179 188 
f 181 167 188 
f 173 181 188 
f 162 182 188 
f 182 173 188 
f 161 168 189 
f 167 177 189 
f 179 167 189 
f 168 179 189 
f 169 176 190 
f 181 173 190 
f 187 169 190 
f 173 187 190 
f 170 165 191 
f 165 176 191 
f 176 174 191 
f 185 170 192 
f 172 185 192 
f 174 186 192 
f 186 172 192 
f 170 191 192 
f 191 174 192 
f 175 166 193 
f 166 178 193 
f 178 175 193 
f 176 165 194 
f 165 181 194 
f 190 176 194 
f 181 190 194 
f 164 166 195 
f 171 164 195 
f 166 171 195 
f 168 180 196 
f 180 175 196 
f 175 183 196 
f 183 168 196 
f 177 172 197 
f 186 161 197 
f 172 186 197 
f 161 189 197 
o convex_5
v 0.012258 0.028655 0.022138
v 0.021913 0.029672 0.011467
v 0.021913 0.028655 0.011467
v 0.012258 0.039835 0.007910
v 0.014292 0.040344 0.026713
v 0.019370 0.040344 0.007910
v 0.014800 0.028655 0.007910
v 0.009208 0.040344 0.015025
v 0.018354 0.028655 0.023155
v 0.019370 0.040344 0.016549
v 0.010225 0.039835 0.026713
v 0.021404 0.028655 0.007910
v 0.011751 0.028655 0.017565
v 0.009208 0.040344 0.024678
v 0.015308 0.028655 0.024170
v 0.019370 0.032722 0.020612
v 0.021404 0.033739 0.007910
v 0.012768 0.028655 0.012483
v 0.020896 0.035769 0.014519
v 0.015815 0.039835 0.025187
v 0.009208 0.038818 0.018073
v 0.011751 0.028655 0.021121
v 0.019880 0.028655 0.019597
v 0.012258 0.040344 0.007910
v 0.012768 0.028655 0.023155
v 0.009208 0.039835 0.015025
f 210 218 223 
f 201 203 204 
f 200 198 204 
f 202 203 205 
f 198 200 206 
f 203 202 207 
f 199 200 209 
f 204 203 209 
f 200 204 209 
f 204 198 210 
f 202 205 211 
f 208 202 211 
f 198 206 212 
f 206 202 212 
f 202 208 212 
f 199 209 214 
f 209 203 214 
f 201 204 215 
f 204 210 215 
f 203 207 216 
f 207 213 216 
f 199 214 216 
f 214 203 216 
f 202 206 217 
f 207 202 217 
f 206 213 217 
f 213 207 217 
f 211 205 218 
f 211 218 219 
f 198 208 219 
f 210 198 219 
f 208 211 219 
f 218 210 219 
f 200 199 220 
f 206 200 220 
f 213 206 220 
f 199 216 220 
f 216 213 220 
f 203 201 221 
f 205 203 221 
f 201 205 221 
f 208 198 222 
f 198 212 222 
f 212 208 222 
f 205 201 223 
f 201 215 223 
f 215 210 223 
f 218 205 223 
o convex_6
v 0.004128 0.054066 0.017569
v 0.019372 0.040853 0.012993
v 0.019372 0.040344 0.012993
v 0.010227 0.045935 0.033824
v 0.008702 0.040344 0.016042
v 0.013271 0.051524 0.007910
v 0.004128 0.048983 0.007910
v 0.004128 0.043904 0.032303
v 0.011749 0.052031 0.020109
v 0.012257 0.040344 0.007910
v 0.013780 0.040344 0.027220
v 0.004128 0.048983 0.033320
v 0.011749 0.047459 0.032303
v 0.006669 0.054574 0.007910
v 0.018355 0.044411 0.007910
v 0.015304 0.048474 0.019092
v 0.018862 0.041362 0.017059
v 0.004128 0.044411 0.022644
v 0.008194 0.050000 0.030270
v 0.009209 0.040344 0.025696
v 0.019372 0.040344 0.007910
v 0.004128 0.054574 0.007910
v 0.006162 0.053556 0.020619
v 0.015304 0.040344 0.025696
v 0.004636 0.044918 0.033824
v 0.009718 0.048474 0.033320
v 0.008702 0.054066 0.009943
v 0.016831 0.045935 0.018585
v 0.015304 0.049490 0.008419
v 0.007178 0.054066 0.016549
v 0.008702 0.043904 0.032808
v 0.004128 0.047459 0.034336
v 0.004128 0.050000 0.031287
v 0.010227 0.040344 0.027220
v 0.004128 0.045935 0.016549
v 0.016831 0.040344 0.022644
v 0.012257 0.044918 0.031791
v 0.008702 0.053049 0.020619
v 0.017337 0.045935 0.013505
v 0.011749 0.040344 0.008419
f 230 233 263 
f 224 230 231 
f 226 228 233 
f 230 229 233 
f 228 226 234 
f 224 231 235 
f 229 230 237 
f 233 229 238 
f 232 236 239 
f 226 225 240 
f 228 231 241 
f 231 230 241 
f 231 228 243 
f 228 234 243 
f 225 226 244 
f 226 233 244 
f 238 225 244 
f 233 238 244 
f 230 224 245 
f 224 237 245 
f 237 230 245 
f 234 226 247 
f 236 232 249 
f 227 236 249 
f 232 229 250 
f 229 237 250 
f 239 236 251 
f 236 240 251 
f 229 232 252 
f 238 229 252 
f 232 239 252 
f 237 224 253 
f 224 246 253 
f 232 250 253 
f 250 237 253 
f 234 227 254 
f 227 248 254 
f 248 231 254 
f 235 231 255 
f 248 227 255 
f 231 248 255 
f 227 249 255 
f 249 235 255 
f 224 235 256 
f 246 224 256 
f 242 246 256 
f 235 249 256 
f 249 242 256 
f 231 243 257 
f 243 234 257 
f 234 254 257 
f 254 231 257 
f 230 228 258 
f 228 241 258 
f 241 230 258 
f 226 240 259 
f 240 236 259 
f 247 226 259 
f 247 259 260 
f 227 234 260 
f 236 227 260 
f 234 247 260 
f 259 236 260 
f 246 242 261 
f 249 232 261 
f 242 249 261 
f 253 246 261 
f 232 253 261 
f 225 238 262 
f 240 225 262 
f 239 251 262 
f 251 240 262 
f 238 252 262 
f 252 239 262 
f 228 230 263 
f 233 228 263 
o convex_7
v -0.006549 0.049996 -0.006829
v -0.018743 0.001212 -0.017501
v -0.018743 0.001212 -0.012419
v 0.002093 0.001212 -0.006829
v 0.002093 0.040845 -0.016483
v 0.002093 0.004266 -0.017501
v -0.014169 0.039831 -0.015976
v -0.016708 0.002232 -0.006829
v 0.002093 0.053045 -0.007337
v -0.013661 0.034748 -0.006829
v -0.004513 0.052538 -0.013942
v -0.014169 0.020529 -0.017501
v 0.002093 0.001212 -0.016483
v 0.002093 0.053558 -0.013434
v -0.015692 0.033226 -0.013942
v -0.012135 0.044914 -0.012419
v -0.011627 0.044406 -0.015976
v 0.002093 0.019514 -0.017501
v 0.002093 0.052538 -0.006829
v -0.015692 0.030685 -0.016992
v -0.011119 0.043387 -0.006829
v -0.016708 0.001212 -0.006829
v -0.008072 0.049489 -0.014959
v -0.009086 0.048982 -0.010896
v -0.014676 0.038309 -0.013434
v 0.001075 0.046948 -0.015468
v -0.018743 0.004266 -0.015468
v -0.002989 0.052031 -0.006829
v -0.000958 0.053558 -0.011911
v -0.011119 0.032206 -0.016992
v -0.014169 0.030685 -0.006829
v -0.011119 0.046440 -0.015468
v -0.008072 0.001212 -0.017501
v -0.016202 0.029158 -0.013942
v -0.009596 0.046440 -0.006829
v -0.008578 0.047962 -0.015468
v 0.001583 0.051011 -0.014452
v 0.001583 0.041358 -0.016483
v -0.018743 0.001724 -0.012419
v -0.012135 0.040845 -0.006829
v -0.006549 0.051011 -0.010388
v -0.018743 0.002739 -0.017501
f 290 297 305 
f 266 265 267 
f 268 267 269 
f 267 264 271 
f 267 268 272 
f 271 264 273 
f 269 265 275 
f 267 265 276 
f 269 267 276 
f 272 268 277 
f 268 269 281 
f 269 275 281 
f 264 267 282 
f 267 272 282 
f 278 270 283 
f 270 280 283 
f 273 264 284 
f 266 267 285 
f 271 266 285 
f 267 271 285 
f 274 286 287 
f 270 278 288 
f 278 273 288 
f 279 270 288 
f 265 266 290 
f 264 282 291 
f 282 272 291 
f 272 277 292 
f 277 274 292 
f 274 291 292 
f 291 272 292 
f 281 275 293 
f 275 283 293 
f 283 280 293 
f 271 273 294 
f 270 279 295 
f 280 270 295 
f 279 287 295 
f 287 286 295 
f 265 269 296 
f 276 265 296 
f 269 276 296 
f 273 278 297 
f 278 283 297 
f 294 273 297 
f 284 264 298 
f 279 284 298 
f 264 287 298 
f 287 279 298 
f 280 295 299 
f 295 286 299 
f 277 268 300 
f 274 277 300 
f 286 274 300 
f 268 289 300 
f 299 286 300 
f 289 299 300 
f 268 281 301 
f 289 268 301 
f 293 280 301 
f 281 293 301 
f 280 299 301 
f 299 289 301 
f 266 271 302 
f 290 266 302 
f 271 294 302 
f 297 290 302 
f 294 297 302 
f 273 284 303 
f 284 279 303 
f 288 273 303 
f 279 288 303 
f 287 264 304 
f 274 287 304 
f 264 291 304 
f 291 274 304 
f 275 265 305 
f 283 275 305 
f 265 290 305 
f 297 283 305 
o convex_8
v -0.006549 0.049995 -0.006829
v -0.019760 0.001212 -0.002763
v -0.019760 0.001212 -0.001238
v 0.002093 0.001212 -0.006829
v 0.002093 0.053049 -0.000222
v 0.002093 0.018494 -0.000730
v -0.014675 0.038304 -0.000222
v -0.017216 0.002237 -0.006829
v 0.002093 0.053049 -0.006829
v -0.011627 0.001212 -0.000222
v -0.013152 0.036782 -0.006829
v 0.002093 0.001212 -0.003272
v -0.006040 0.050502 -0.000222
v -0.016707 0.029668 -0.000222
v -0.019251 0.001212 -0.000222
v 0.002093 0.023579 -0.000222
v -0.015693 0.030175 -0.004286
v -0.010609 0.044910 -0.006320
v -0.018233 0.001212 -0.005812
v -0.010102 0.046438 -0.001238
v -0.001975 0.052537 -0.004286
v -0.015184 0.035254 -0.002763
v -0.016707 0.029160 -0.001747
v 0.000059 0.053049 -0.000222
v -0.011627 0.042373 -0.006829
v -0.014166 0.030175 -0.006829
v -0.002991 0.052024 -0.006829
v -0.017216 0.001212 -0.006829
v -0.008072 0.048975 -0.002763
f 323 325 334 
f 308 307 309 
f 309 310 311 
f 306 309 313 
f 309 306 314 
f 310 309 314 
f 308 309 315 
f 310 312 315 
f 306 313 316 
f 309 311 317 
f 315 309 317 
f 311 315 317 
f 312 310 318 
f 307 308 319 
f 315 312 319 
f 308 315 320 
f 319 308 320 
f 315 319 320 
f 311 310 321 
f 310 315 321 
f 315 311 321 
f 309 307 324 
f 307 322 324 
f 312 318 325 
f 323 312 325 
f 316 322 327 
f 307 319 328 
f 319 312 328 
f 322 307 328 
f 312 327 328 
f 327 322 328 
f 310 314 329 
f 318 310 329 
f 314 326 329 
f 326 318 329 
f 306 316 330 
f 312 323 330 
f 323 306 330 
f 327 312 330 
f 316 327 330 
f 316 313 331 
f 322 316 331 
f 313 324 331 
f 324 322 331 
f 314 306 332 
f 306 318 332 
f 326 314 332 
f 318 326 332 
f 313 309 333 
f 309 324 333 
f 324 313 333 
f 318 306 334 
f 306 323 334 
f 325 318 334 
o convex_9
v -0.002479 0.052538 -0.000222
v -0.006546 0.037803 0.007401
v -0.006546 0.037803 0.007910
v 0.002093 0.048475 -0.000222
v 0.002093 0.054574 0.007910
v -0.006546 0.051013 0.007910
v -0.006546 0.043902 -0.000222
v 0.002093 0.048983 0.007910
v -0.006546 0.050508 0.000287
v 0.002093 0.053556 -0.000222
v -0.002479 0.053556 0.004352
v -0.006038 0.037803 0.007401
v -0.002479 0.053556 0.007910
v -0.006038 0.043394 0.000287
v -0.000956 0.054065 0.003844
v -0.004513 0.052538 0.003844
f 347 345 350 
f 337 339 340 
f 336 337 340 
f 335 338 341 
f 336 340 341 
f 338 339 342 
f 339 337 342 
f 335 341 343 
f 341 340 343 
f 338 335 344 
f 339 338 344 
f 337 336 346 
f 342 337 346 
f 338 342 346 
f 340 339 347 
f 336 341 348 
f 341 338 348 
f 346 336 348 
f 338 346 348 
f 344 335 349 
f 339 344 349 
f 335 345 349 
f 347 339 349 
f 345 347 349 
f 335 343 350 
f 343 340 350 
f 345 335 350 
f 340 347 350 
o convex_10
v 0.015812 0.048981 0.007401
v 0.002093 0.041361 -0.006320
v 0.002093 0.041361 -0.000221
v 0.002093 0.054574 0.004859
v 0.016830 0.045428 -0.006320
v 0.018863 0.041361 0.007910
v 0.004635 0.053049 -0.006320
v 0.002093 0.048981 0.007910
v 0.017847 0.041361 -0.006320
v 0.009720 0.053557 0.007910
v 0.011240 0.051016 -0.006320
v 0.012255 0.041361 0.007910
v 0.002093 0.053049 -0.006320
v 0.012764 0.052032 0.003844
v 0.018863 0.043394 0.004351
v 0.002093 0.054574 0.007910
v 0.008192 0.054066 0.004351
v 0.015812 0.048981 0.002827
v 0.012764 0.049998 -0.006320
v 0.018863 0.041869 -0.001238
v 0.017339 0.046445 0.007910
v 0.005652 0.054574 0.004859
v 0.009211 0.053557 0.002318
v 0.013273 0.051524 0.007910
v 0.016830 0.047462 0.002827
v 0.018356 0.042885 -0.004287
v 0.019372 0.041361 0.006893
f 365 371 377 
f 352 353 354 
f 353 352 356 
f 355 352 357 
f 354 353 358 
f 352 355 359 
f 356 352 359 
f 358 356 360 
f 355 357 361 
f 353 356 362 
f 358 353 362 
f 356 358 362 
f 352 354 363 
f 357 352 363 
f 354 357 363 
f 354 358 366 
f 358 360 366 
f 355 361 369 
f 361 364 369 
f 368 355 369 
f 364 368 369 
f 360 356 371 
f 357 354 372 
f 354 366 372 
f 366 360 372 
f 360 367 372 
f 367 357 372 
f 361 357 373 
f 360 364 373 
f 364 361 373 
f 367 360 373 
f 357 367 373 
f 364 360 374 
f 351 368 374 
f 368 364 374 
f 371 351 374 
f 360 371 374 
f 355 368 375 
f 368 351 375 
f 351 371 375 
f 371 365 375 
f 359 355 376 
f 370 359 376 
f 365 370 376 
f 355 375 376 
f 375 365 376 
f 356 359 377 
f 359 370 377 
f 370 365 377 
f 371 356 377 
o convex_11
v 0.011240 -0.026230 0.014008
v 0.001585 -0.035882 0.007910
v 0.002093 -0.036395 0.007910
v 0.011749 -0.005395 0.007910
v 0.001585 -0.012511 0.014008
v 0.011749 -0.038932 0.007910
v 0.001585 -0.008445 0.007910
v 0.002093 -0.030802 0.013499
v 0.011749 -0.008955 0.014008
v 0.007683 -0.031816 0.013499
v 0.008190 -0.039445 0.008419
v 0.001585 -0.026230 0.014008
v 0.011749 -0.029786 0.012991
v 0.011240 -0.005395 0.008926
v 0.004127 -0.038428 0.008419
v 0.011749 -0.038932 0.008419
v 0.004127 -0.031816 0.013499
v 0.001585 -0.032836 0.011974
v 0.001585 -0.009461 0.009943
f 386 391 396 
f 380 379 381 
f 380 381 383 
f 381 379 384 
f 379 382 384 
f 382 378 386 
f 383 381 386 
f 378 382 389 
f 382 379 389 
f 387 378 389 
f 386 378 390 
f 383 386 390 
f 378 387 390 
f 381 384 391 
f 386 381 391 
f 379 380 392 
f 380 383 392 
f 383 388 392 
f 387 388 393 
f 388 383 393 
f 383 390 393 
f 390 387 393 
f 388 387 394 
f 389 385 394 
f 387 389 394 
f 392 388 394 
f 392 394 395 
f 389 379 395 
f 385 389 395 
f 379 392 395 
f 394 385 395 
f 384 382 396 
f 382 386 396 
f 391 384 396 
o convex_12
v 0.016831 0.028655 0.024171
v 0.015817 0.014425 0.007910
v 0.013275 0.028145 0.011469
v 0.021913 0.028145 0.008927
v 0.018356 0.014425 0.028746
v 0.013275 0.014425 0.025187
v 0.021404 0.014425 0.014518
v 0.012259 0.028655 0.022138
v 0.020896 0.015442 0.024171
v 0.015307 0.028655 0.007910
v 0.019880 0.014425 0.007910
v 0.019372 0.028655 0.021120
v 0.012766 0.020016 0.016549
v 0.015817 0.014935 0.028746
v 0.021913 0.024081 0.007910
v 0.011749 0.028655 0.018075
v 0.021913 0.028655 0.010963
v 0.013275 0.014425 0.021120
v 0.021404 0.014425 0.019087
v 0.013783 0.028655 0.023663
v 0.018356 0.028655 0.023156
v 0.019880 0.015442 0.026713
v 0.021404 0.028655 0.007910
v 0.012766 0.021540 0.015026
v 0.012259 0.021540 0.020614
v 0.013783 0.014425 0.026713
v 0.020896 0.021035 0.021120
v 0.011749 0.028145 0.020614
f 422 404 424 
f 398 401 402 
f 401 398 403 
f 398 399 406 
f 404 397 406 
f 403 398 407 
f 398 406 407 
f 406 397 408 
f 401 397 410 
f 403 407 411 
f 407 406 411 
f 406 399 412 
f 404 406 412 
f 406 408 413 
f 411 400 413 
f 398 402 414 
f 409 398 414 
f 401 403 415 
f 405 401 415 
f 403 411 415 
f 413 405 415 
f 411 413 415 
f 397 404 416 
f 410 397 416 
f 404 410 416 
f 397 401 417 
f 408 397 417 
f 408 417 418 
f 401 405 418 
f 405 408 418 
f 417 401 418 
f 400 411 419 
f 411 406 419 
f 413 400 419 
f 406 413 419 
f 399 398 420 
f 398 409 420 
f 412 399 420 
f 409 412 420 
f 412 409 421 
f 414 402 421 
f 409 414 421 
f 402 401 422 
f 401 410 422 
f 410 404 422 
f 408 405 423 
f 405 413 423 
f 413 408 423 
f 404 412 424 
f 421 402 424 
f 412 421 424 
f 402 422 424 
o convex_13
v -0.008581 0.048978 0.006893
v -0.017727 0.016966 0.002320
v -0.017727 0.016966 0.004352
v -0.009597 0.023070 0.007401
v -0.006546 0.042376 -0.000222
v -0.014677 0.038311 -0.000222
v -0.016710 0.028658 0.007910
v -0.013661 0.016966 -0.000222
v -0.006546 0.035258 0.007910
v -0.006546 0.049999 0.000287
v -0.013152 0.016966 0.007910
v -0.006546 0.050508 0.007910
v -0.014677 0.037290 0.007910
v -0.016710 0.029673 -0.000222
v -0.017218 0.016966 0.007910
v -0.009088 0.047967 -0.000222
v -0.017218 0.016966 -0.000222
v -0.011121 0.045423 0.003336
v -0.017218 0.027135 0.006893
v -0.010612 0.020529 0.007910
v -0.012644 0.020017 -0.000222
v -0.010104 0.046437 0.007910
v -0.007055 0.050508 0.001811
v -0.015186 0.036784 0.000795
v -0.007563 0.030690 0.007401
v -0.010104 0.022052 0.006384
f 429 449 450 
f 427 426 432 
f 430 429 432 
f 433 429 434 
f 427 432 435 
f 433 431 435 
f 431 433 436 
f 433 434 436 
f 431 436 437 
f 430 432 438 
f 427 435 439 
f 435 431 439 
f 429 430 440 
f 434 429 440 
f 432 426 441 
f 426 438 441 
f 438 432 441 
f 430 437 442 
f 440 430 442 
f 425 440 442 
f 426 427 443 
f 431 437 443 
f 438 426 443 
f 427 439 443 
f 439 431 443 
f 428 433 444 
f 435 432 444 
f 433 435 444 
f 432 429 445 
f 436 425 446 
f 437 436 446 
f 425 442 446 
f 442 437 446 
f 425 436 447 
f 436 434 447 
f 440 425 447 
f 434 440 447 
f 437 430 448 
f 430 438 448 
f 443 437 448 
f 438 443 448 
f 429 433 449 
f 433 428 449 
f 428 444 450 
f 444 432 450 
f 445 429 450 
f 432 445 450 
f 449 428 450 
o convex_14
v 0.020387 0.035765 -0.001238
v 0.002095 0.001216 -0.006320
v 0.009719 0.001216 -0.006320
v 0.010736 0.001216 0.001811
v 0.002095 0.041357 -0.000222
v 0.002095 0.041357 -0.006320
v 0.017846 0.041357 -0.006320
v 0.018863 0.041357 0.001811
v 0.020387 0.020524 0.001302
v 0.002095 0.013919 -0.001238
v 0.018354 0.029160 -0.006320
v 0.015306 0.001216 0.000286
v 0.013780 0.041357 0.001811
v 0.002095 0.001216 -0.003271
v 0.015813 0.002740 0.001811
v 0.002095 0.023062 -0.000222
v 0.018354 0.021035 -0.003779
v 0.019880 0.033734 -0.004288
v 0.020387 0.033227 0.001811
v 0.013272 0.001216 -0.002763
v 0.010736 0.010363 0.001811
v 0.019372 0.039832 -0.004288
v 0.017337 0.025094 -0.006320
v 0.020387 0.020524 0.001811
v 0.018863 0.036783 -0.006320
v 0.019880 0.020528 -0.000222
v 0.019372 0.040846 0.001811
f 451 472 477 
f 452 453 454 
f 452 455 456 
f 453 452 456 
f 453 456 457 
f 456 455 457 
f 457 455 458 
f 455 452 460 
f 453 457 461 
f 454 453 462 
f 458 455 463 
f 454 458 463 
f 452 454 464 
f 460 452 464 
f 454 460 464 
f 458 454 465 
f 462 459 465 
f 454 462 465 
f 454 455 466 
f 460 454 466 
f 455 460 466 
f 451 459 468 
f 459 451 469 
f 458 465 469 
f 462 453 470 
f 467 462 470 
f 455 454 471 
f 454 463 471 
f 463 455 471 
f 451 468 472 
f 453 461 473 
f 461 467 473 
f 470 453 473 
f 467 470 473 
f 465 459 474 
f 459 469 474 
f 469 465 474 
f 461 457 475 
f 468 461 475 
f 457 472 475 
f 472 468 475 
f 459 462 476 
f 467 461 476 
f 462 467 476 
f 468 459 476 
f 461 468 476 
f 457 458 477 
f 469 451 477 
f 458 469 477 
f 472 457 477 
o convex_15
v -0.005024 -0.025209 0.014008
v -0.018233 -0.005400 0.007910
v -0.018233 -0.005400 0.008419
v 0.001583 -0.008445 0.007910
v 0.001075 -0.035887 0.007910
v -0.010610 -0.000821 0.014008
v 0.001583 -0.012512 0.014008
v -0.012135 -0.030292 0.008419
v -0.014676 -0.010483 0.014008
v 0.001583 -0.030292 0.013499
v -0.018233 -0.000821 0.007910
v -0.008073 -0.030292 0.011974
v -0.016200 -0.000821 0.014008
v -0.014168 -0.024701 0.007910
v 0.001583 -0.035887 0.008419
v -0.016200 -0.000821 0.007910
v -0.009085 -0.023177 0.014008
v -0.016200 -0.016576 0.008419
v 0.001583 -0.025720 0.014008
v -0.012135 -0.030292 0.007910
v 0.000058 -0.032325 0.011974
v -0.014168 -0.024701 0.008419
v -0.017217 -0.006921 0.010451
v 0.001583 -0.009461 0.009943
v -0.012135 -0.028260 0.009434
v -0.010610 -0.000821 0.013499
f 493 483 503 
f 479 481 482 
f 483 478 484 
f 478 483 486 
f 481 484 487 
f 479 480 488 
f 481 479 488 
f 486 483 490 
f 488 480 490 
f 483 488 490 
f 479 482 491 
f 482 481 492 
f 485 482 492 
f 481 487 492 
f 489 485 492 
f 481 488 493 
f 488 483 493 
f 478 486 494 
f 487 478 494 
f 489 487 494 
f 480 479 495 
f 479 491 495 
f 484 478 496 
f 487 484 496 
f 478 487 496 
f 482 485 497 
f 491 482 497 
f 485 491 497 
f 487 489 498 
f 492 487 498 
f 489 492 498 
f 491 485 499 
f 486 495 499 
f 495 491 499 
f 486 490 500 
f 490 480 500 
f 480 495 500 
f 495 486 500 
f 481 483 501 
f 484 481 501 
f 483 484 501 
f 485 489 502 
f 494 486 502 
f 489 494 502 
f 499 485 502 
f 486 499 502 
f 483 481 503 
f 481 493 503 
o convex_16
v -0.017726 0.009341 0.011974
v -0.018235 -0.000821 0.007910
v -0.016202 -0.000821 0.007910
v -0.016202 -0.000821 0.014008
v -0.012137 0.011884 0.013499
v -0.016202 0.011884 0.007910
v -0.011120 -0.000821 0.013499
v -0.016710 0.011884 0.014008
v -0.018235 0.011884 0.007910
v -0.011120 -0.000312 0.014008
v -0.017218 0.003246 0.013499
v -0.012137 0.011884 0.014008
v -0.018235 0.006292 0.010451
f 514 504 516 
f 505 506 507 
f 506 505 509 
f 507 506 510 
f 506 509 510 
f 509 508 510 
f 508 509 511 
f 509 505 512 
f 504 511 512 
f 511 509 512 
f 507 510 513 
f 510 508 513 
f 511 507 513 
f 505 507 514 
f 511 504 514 
f 507 511 514 
f 508 511 515 
f 513 508 515 
f 511 513 515 
f 512 505 516 
f 504 512 516 
f 505 514 516 
o convex_17
v -0.004514 -0.006919 0.014008
v -0.004514 0.007816 0.035861
v -0.004514 0.009849 0.035352
v -0.016711 0.002734 0.015026
v -0.008073 -0.021658 0.014517
v -0.012135 0.011884 0.014008
v -0.012644 0.007816 0.031793
v -0.016202 0.011884 0.022143
v -0.004514 0.011884 0.030269
v -0.004514 -0.021658 0.014008
v -0.012644 -0.002352 0.026712
v -0.013660 -0.012507 0.014008
v -0.005022 0.003752 0.034843
v -0.012644 0.011884 0.031793
v -0.016711 0.011884 0.014008
v -0.005022 0.007307 0.023157
v -0.010612 -0.002854 0.028235
v -0.011119 0.004763 0.032809
v -0.004514 -0.005389 0.028235
v -0.015693 0.010358 0.024682
v -0.014677 -0.008951 0.015026
v -0.011119 -0.012507 0.020107
v -0.004514 0.011884 0.033827
v -0.008073 -0.004384 0.028235
v -0.011628 0.011884 0.014517
v -0.010105 -0.019622 0.014008
v -0.012135 0.009849 0.032809
v -0.004514 -0.019622 0.016551
v -0.004514 -0.002854 0.016551
v -0.016711 0.001716 0.014008
v -0.013151 -0.001331 0.026203
v -0.008073 -0.020640 0.015533
v -0.006038 0.011372 0.025187
v -0.013660 -0.012507 0.014517
v -0.005022 0.006290 0.035861
v -0.013151 0.007307 0.030779
v -0.010105 -0.012507 0.021127
f 548 540 553 
f 519 518 517 
f 519 517 525 
f 522 524 525 
f 517 518 526 
f 522 517 526 
f 522 526 528 
f 525 524 530 
f 524 522 531 
f 520 524 531 
f 522 528 531 
f 533 529 534 
f 527 533 534 
f 526 518 535 
f 518 529 535 
f 524 520 536 
f 530 524 536 
f 536 520 537 
f 519 525 539 
f 530 519 539 
f 525 530 539 
f 529 533 540 
f 535 529 540 
f 517 522 541 
f 522 525 541 
f 526 521 542 
f 528 526 542 
f 521 538 542 
f 518 519 543 
f 519 530 543 
f 530 523 543 
f 523 534 543 
f 521 526 544 
f 526 535 544 
f 525 517 545 
f 532 525 545 
f 517 541 545 
f 541 532 545 
f 520 531 546 
f 531 528 546 
f 537 520 546 
f 528 537 546 
f 537 527 547 
f 536 537 547 
f 538 521 548 
f 535 540 548 
f 521 544 548 
f 544 535 548 
f 525 532 549 
f 541 525 549 
f 532 541 549 
f 537 528 550 
f 527 537 550 
f 538 527 550 
f 528 542 550 
f 542 538 550 
f 529 518 551 
f 534 529 551 
f 518 543 551 
f 543 534 551 
f 523 530 552 
f 534 523 552 
f 527 534 552 
f 530 536 552 
f 547 527 552 
f 536 547 552 
f 533 527 553 
f 527 538 553 
f 540 533 553 
f 538 548 553 
o convex_18
v -0.004514 -0.021655 0.014010
v 0.001585 0.009337 0.037892
v 0.001585 0.009849 0.037382
v 0.001585 -0.023182 0.014010
v -0.004005 -0.004379 0.016044
v -0.004514 0.005277 0.035858
v 0.001585 -0.011996 0.014010
v -0.004514 0.011369 0.029761
v 0.001076 0.001717 0.035351
v 0.001585 0.008833 0.031793
v 0.000568 -0.023182 0.015537
v -0.004514 -0.007935 0.014010
v -0.004514 -0.005395 0.028237
v -0.002480 0.008833 0.027728
v -0.004514 0.011884 0.033826
v 0.001585 0.003749 0.036875
v -0.000448 0.003245 0.036365
v -0.004514 -0.019623 0.016551
v -0.000448 0.010861 0.032302
v 0.001585 -0.007935 0.017061
v 0.001585 -0.022667 0.016044
v -0.004005 0.009849 0.035858
v 0.000568 0.006801 0.037892
v -0.004514 0.006801 0.025189
v -0.004514 0.003245 0.034841
f 566 570 578 
f 556 555 557 
f 556 557 560 
f 557 554 560 
f 554 559 561 
f 556 560 563 
f 554 557 564 
f 560 554 565 
f 558 560 565 
f 554 561 565 
f 559 554 566 
f 555 556 568 
f 561 559 568 
f 557 555 569 
f 564 562 570 
f 566 564 570 
f 562 569 570 
f 554 564 571 
f 566 554 571 
f 564 566 571 
f 556 563 572 
f 567 561 572 
f 563 567 572 
f 568 556 572 
f 561 568 572 
f 560 558 573 
f 563 560 573 
f 558 567 573 
f 567 563 573 
f 564 557 574 
f 562 564 574 
f 557 569 574 
f 569 562 574 
f 555 568 575 
f 568 559 575 
f 569 555 576 
f 559 570 576 
f 570 569 576 
f 555 575 576 
f 575 559 576 
f 558 565 577 
f 565 561 577 
f 567 558 577 
f 561 567 577 
f 559 566 578 
f 570 559 578 
o convex_19
v 0.005651 -0.011996 0.014520
v 0.003618 0.009339 0.037892
v 0.001585 0.009339 0.037892
v 0.004126 -0.026740 0.014520
v 0.001585 -0.011996 0.014010
v 0.005651 0.009851 0.033317
v 0.005651 0.002734 0.036365
v 0.001585 -0.025214 0.014520
v 0.005651 -0.026740 0.014010
v 0.001585 0.002225 0.035858
v 0.001585 0.009339 0.032810
v 0.002094 -0.003876 0.020617
v 0.005651 0.006289 0.037892
v 0.005651 -0.025719 0.015537
v 0.005651 0.002225 0.026203
v 0.005651 0.010360 0.035858
v 0.002094 0.005784 0.037892
v 0.001585 -0.025214 0.014010
v 0.005651 -0.013013 0.014010
v 0.005651 -0.007943 0.017568
v 0.002094 0.002734 0.036365
f 585 595 599 
f 579 584 585 
f 581 583 586 
f 579 585 587 
f 586 582 588 
f 581 586 588 
f 583 581 589 
f 583 589 590 
f 580 581 591 
f 585 584 591 
f 587 585 592 
f 582 587 592 
f 584 579 593 
f 589 584 593 
f 590 589 593 
f 581 580 594 
f 589 581 594 
f 584 589 594 
f 580 591 594 
f 591 584 594 
f 581 588 595 
f 591 581 595 
f 585 591 595 
f 582 586 596 
f 586 583 596 
f 583 587 596 
f 587 582 596 
f 583 579 597 
f 579 587 597 
f 587 583 597 
f 579 583 598 
f 583 590 598 
f 593 579 598 
f 590 593 598 
f 588 582 599 
f 592 585 599 
f 582 592 599 
f 595 588 599 
o convex_20
v 0.011749 0.005271 0.022650
v 0.006159 0.008322 0.037892
v 0.008193 0.008322 0.037382
v 0.008700 -0.027244 0.014520
v 0.005651 -0.012506 0.014010
v 0.011749 -0.004889 0.030776
v 0.011749 -0.023687 0.014010
v 0.005651 -0.026734 0.015027
v 0.005651 0.009845 0.032810
v 0.011749 0.011372 0.034334
v 0.011749 -0.008949 0.014010
v 0.005651 0.002731 0.036365
v 0.009716 0.005271 0.036875
v 0.011241 0.010356 0.028237
v 0.010224 0.001208 0.020109
v 0.005651 -0.027244 0.014010
v 0.011749 0.006799 0.035351
v 0.005651 0.010356 0.035351
v 0.011241 -0.005906 0.030269
v 0.005651 -0.005906 0.019092
v 0.011241 -0.024700 0.014520
v 0.011241 0.000701 0.019092
v 0.011749 0.011372 0.030269
v 0.010224 0.004258 0.022650
v 0.006159 -0.026227 0.015537
v 0.009207 0.004258 0.036875
v 0.011241 0.009845 0.035858
v 0.005651 0.009339 0.037382
v 0.011241 0.009339 0.026713
f 623 608 628 
f 600 605 606 
f 604 607 608 
f 605 600 609 
f 600 606 610 
f 606 604 610 
f 608 607 611 
f 602 601 612 
f 606 603 615 
f 604 606 615 
f 603 607 615 
f 607 604 615 
f 605 609 616 
f 612 605 616 
f 608 611 617 
f 603 605 618 
f 604 608 619 
f 614 604 619 
f 605 603 620 
f 603 606 620 
f 606 605 620 
f 600 610 621 
f 610 604 621 
f 604 614 621 
f 609 600 622 
f 613 608 622 
f 617 609 622 
f 608 617 622 
f 619 608 623 
f 614 619 623 
f 600 621 623 
f 621 614 623 
f 607 603 624 
f 611 607 624 
f 603 618 624 
f 618 611 624 
f 601 611 625 
f 612 601 625 
f 605 612 625 
f 618 605 625 
f 611 618 625 
f 601 602 626 
f 602 612 626 
f 616 609 626 
f 612 616 626 
f 611 601 627 
f 609 617 627 
f 617 611 627 
f 601 626 627 
f 626 609 627 
f 608 613 628 
f 622 600 628 
f 613 622 628 
f 600 623 628 
o convex_21
v 0.018863 -0.012002 0.009943
v 0.011749 -0.038429 0.007910
v 0.012258 -0.038429 0.007910
v 0.011749 -0.024196 0.013500
v 0.015308 0.013913 0.007910
v 0.020897 0.014425 0.013500
v 0.019880 0.014425 0.007910
v 0.015816 0.014425 0.013500
v 0.011749 -0.004893 0.007910
v 0.018355 -0.013010 0.013500
v 0.017339 -0.026229 0.007910
v 0.011749 -0.008959 0.013500
v 0.014290 -0.032329 0.009943
v 0.012258 -0.028764 0.012483
v 0.019880 -0.002855 0.013500
v 0.015816 -0.031304 0.008927
v 0.020897 0.013913 0.011975
v 0.018863 -0.009461 0.008418
v 0.017339 -0.016058 0.013500
v 0.014800 0.012392 0.008418
v 0.013274 -0.037404 0.008418
f 644 641 649 
f 631 630 633 
f 631 633 635 
f 632 634 636 
f 635 633 636 
f 634 635 636 
f 630 632 637 
f 633 630 637 
f 634 632 638 
f 631 635 639 
f 632 636 640 
f 637 632 640 
f 632 630 642 
f 634 638 643 
f 639 629 643 
f 638 639 643 
f 639 638 644 
f 635 634 645 
f 643 629 645 
f 634 643 645 
f 629 639 646 
f 639 635 646 
f 635 645 646 
f 645 629 646 
f 638 632 647 
f 632 642 647 
f 642 641 647 
f 644 638 647 
f 641 644 647 
f 636 633 648 
f 633 637 648 
f 640 636 648 
f 637 640 648 
f 630 631 649 
f 631 639 649 
f 642 630 649 
f 641 642 649 
f 639 644 649 
o convex_22
v -0.013153 0.016966 0.000287
v -0.019252 0.001212 -0.000222
v -0.019252 0.001212 0.004352
v -0.012137 0.001212 -0.000222
v -0.014679 0.016966 0.004352
v -0.017219 0.016966 -0.000222
v -0.015186 0.001212 0.004352
v -0.017726 0.016966 0.004352
v -0.011120 0.015949 0.000287
v -0.011120 0.015949 -0.000222
v -0.018743 0.008329 -0.000222
v -0.014170 0.001212 0.003335
v -0.019252 0.003753 0.002827
v -0.013153 0.013916 0.002827
f 661 658 663 
f 652 651 653 
f 653 651 655 
f 654 650 655 
f 652 653 656 
f 654 652 656 
f 652 654 657 
f 654 655 657 
f 650 654 658 
f 653 655 659 
f 655 650 659 
f 650 658 659 
f 658 653 659 
f 655 651 660 
f 657 655 660 
f 656 653 661 
f 653 658 661 
f 651 652 662 
f 652 657 662 
f 660 651 662 
f 657 660 662 
f 654 656 663 
f 658 654 663 
f 656 661 663 
o convex_23
v -0.013661 0.016966 0.007910
v -0.019252 0.001212 0.004352
v -0.019252 0.001212 0.005369
v -0.017219 0.016966 0.007910
v -0.017219 0.016966 0.004352
v -0.015694 0.001212 0.004352
v -0.016203 0.001212 0.007910
v -0.014679 0.016966 0.004352
v -0.018234 0.012391 0.007910
v -0.018234 0.001212 0.007910
v -0.018234 0.012900 0.004352
v -0.013661 0.016458 0.006893
f 669 671 675 
f 667 664 668 
f 665 668 669 
f 666 665 669 
f 666 669 670 
f 664 667 670 
f 669 664 670 
f 668 664 671 
f 669 668 671 
f 670 667 672 
f 670 672 673 
f 666 670 673 
f 672 666 673 
f 665 666 674 
f 667 668 674 
f 668 665 674 
f 666 672 674 
f 672 667 674 
f 664 669 675 
f 671 664 675 
o convex_24
v 0.021913 0.024590 0.007401
v 0.011749 0.001212 0.001811
v 0.011749 0.001212 0.002320
v 0.015307 0.024590 0.001811
v 0.016325 0.024590 0.007910
v 0.017846 0.001212 0.007910
v 0.020896 0.022555 0.001811
v 0.015307 0.001212 0.001811
v 0.014799 0.009345 0.007910
v 0.012259 0.010869 0.002320
v 0.015817 0.001212 0.007910
v 0.017846 0.001212 0.006893
v 0.021913 0.024079 0.007910
v 0.020896 0.024590 0.001811
v 0.021404 0.020523 0.005368
v 0.014290 0.011379 0.007401
v 0.019880 0.017473 0.001811
v 0.015307 0.024590 0.003844
f 685 680 693 
f 676 679 680 
f 678 677 681 
f 677 679 682 
f 681 677 683 
f 677 682 683 
f 681 680 684 
f 677 678 685 
f 679 677 685 
f 678 681 686 
f 684 678 686 
f 681 684 686 
f 681 683 687 
f 676 680 688 
f 680 681 688 
f 679 676 689 
f 676 682 689 
f 682 679 689 
f 682 676 690 
f 681 687 690 
f 676 688 690 
f 688 681 690 
f 678 684 691 
f 684 680 691 
f 685 678 691 
f 680 685 691 
f 683 682 692 
f 687 683 692 
f 682 690 692 
f 690 687 692 
f 680 679 693 
f 679 685 693 
o convex_25
v 0.021405 0.031708 0.005368
v 0.012257 0.040343 0.007401
v 0.012257 0.040343 0.007910
v 0.015308 0.024590 0.003844
v 0.018863 0.041361 0.001811
v 0.021405 0.024590 0.007910
v 0.019372 0.041361 0.007910
v 0.020897 0.024590 0.001811
v 0.013782 0.041361 0.001811
v 0.015815 0.024590 0.007910
v 0.015308 0.024590 0.001811
v 0.021405 0.033735 0.007910
v 0.019880 0.038310 0.001811
v 0.012257 0.041361 0.007910
v 0.021405 0.028150 0.003336
v 0.019372 0.041361 0.002828
f 706 698 709 
f 696 695 697 
f 696 699 700 
f 699 697 701 
f 700 698 702 
f 698 701 702 
f 696 697 703 
f 699 696 703 
f 697 699 703 
f 697 695 704 
f 701 697 704 
f 695 702 704 
f 702 701 704 
f 699 694 705 
f 700 699 705 
f 701 698 706 
f 705 694 706 
f 695 696 707 
f 696 700 707 
f 702 695 707 
f 700 702 707 
f 694 699 708 
f 699 701 708 
f 706 694 708 
f 701 706 708 
f 698 700 709 
f 700 705 709 
f 705 706 709 
o convex_26
v 0.019881 -0.000823 0.017567
v 0.013275 0.002737 0.033828
v 0.011749 0.002737 0.033828
v 0.012258 -0.023182 0.014009
v 0.011749 0.001719 0.019599
v 0.017848 0.002737 0.013500
v 0.017848 0.002227 0.028746
v 0.017339 -0.015558 0.013500
v 0.011749 -0.008957 0.013500
v 0.013783 -0.004380 0.030270
v 0.019881 0.002737 0.013500
v 0.011749 -0.005400 0.030270
v 0.011749 -0.023182 0.013500
v 0.015308 -0.018095 0.015533
v 0.018355 -0.012509 0.014009
v 0.011749 0.002737 0.020618
v 0.019372 0.002737 0.022140
v 0.019881 -0.002855 0.013500
v 0.016322 -0.014541 0.017058
v 0.014799 0.002227 0.032809
f 719 716 729 
f 712 711 715 
f 712 714 718 
f 714 715 718 
f 715 717 718 
f 715 711 720 
f 717 715 720 
f 711 712 721 
f 712 718 721 
f 719 711 721 
f 713 719 721 
f 717 713 722 
f 718 717 722 
f 721 718 722 
f 713 721 722 
f 713 717 723 
f 719 713 723 
f 710 716 724 
f 714 712 725 
f 712 715 725 
f 715 714 725 
f 711 716 726 
f 716 710 726 
f 720 711 726 
f 710 720 726 
f 720 710 727 
f 717 720 727 
f 710 724 727 
f 724 717 727 
f 716 719 728 
f 723 717 728 
f 719 723 728 
f 724 716 728 
f 717 724 728 
f 716 711 729 
f 711 719 729 
o convex_27
v 0.018863 0.014424 0.028743
v 0.017847 0.002738 0.013500
v 0.017339 0.003755 0.013500
v 0.011750 0.002738 0.034335
v 0.014291 0.014424 0.016041
v 0.020896 0.014424 0.013500
v 0.019879 0.005278 0.026204
v 0.011750 0.011374 0.034335
v 0.011750 0.002738 0.021124
v 0.015307 0.006295 0.034335
v 0.019879 0.002738 0.013500
v 0.021404 0.010867 0.021124
v 0.017847 0.002738 0.029252
v 0.013275 0.014424 0.022140
v 0.015816 0.014424 0.013500
v 0.017847 0.011884 0.031793
v 0.020896 0.013915 0.024679
v 0.014291 0.014424 0.027729
v 0.011750 0.008835 0.025695
v 0.012259 0.009851 0.035353
v 0.021404 0.014424 0.015025
v 0.018863 0.010359 0.030268
v 0.019879 0.002738 0.017568
v 0.016324 0.007819 0.013500
v 0.020387 0.006295 0.025188
v 0.015816 0.003755 0.032812
v 0.015307 0.013407 0.014009
v 0.011750 0.011374 0.029759
f 743 748 757 
f 731 732 735 
f 734 730 735 
f 732 731 738 
f 731 733 738 
f 733 737 738 
f 733 731 740 
f 731 735 740 
f 733 740 742 
f 730 734 743 
f 735 732 744 
f 734 735 744 
f 730 737 745 
f 737 730 747 
f 730 743 747 
f 743 737 747 
f 734 738 748 
f 738 737 748 
f 743 734 748 
f 737 733 749 
f 733 739 749 
f 745 737 749 
f 739 745 749 
f 735 730 750 
f 740 735 750 
f 741 740 750 
f 730 746 750 
f 746 741 750 
f 742 736 751 
f 730 745 751 
f 745 739 751 
f 746 730 751 
f 740 741 752 
f 736 742 752 
f 742 740 752 
f 732 738 753 
f 744 732 753 
f 741 746 754 
f 751 736 754 
f 746 751 754 
f 736 752 754 
f 752 741 754 
f 739 733 755 
f 733 742 755 
f 742 751 755 
f 751 739 755 
f 738 734 756 
f 734 744 756 
f 753 738 756 
f 744 753 756 
f 737 743 757 
f 748 737 757 
