o convex_0
v 0.042060 -0.078447 0.047887
v 0.030892 -0.065297 0.045916
v 0.031549 -0.065955 0.046573
v 0.017073 -0.065955 0.043287
v 0.022999 -0.065297 0.038681
v 0.055879 -0.080420 0.053808
v 0.049300 -0.081077 0.053808
v 0.044696 -0.073846 0.046573
v 0.024967 -0.065955 0.047229
v 0.052589 -0.081736 0.049861
v 0.019048 -0.066612 0.039340
v 0.033517 -0.066612 0.043287
v 0.019706 -0.067928 0.044602
v 0.051271 -0.083053 0.053150
v 0.039435 -0.071874 0.050518
v 0.054557 -0.079104 0.051835
v 0.021020 -0.065297 0.045916
v 0.027603 -0.065297 0.039999
v 0.019706 -0.067928 0.041312
f 14 13 19 
f 2 3 6 
f 3 2 9 
f 4 5 11 
f 10 1 11 
f 5 10 11 
f 6 7 14 
f 1 10 14 
f 10 6 14 
f 7 13 14 
f 6 3 15 
f 7 6 15 
f 3 9 15 
f 9 7 15 
f 2 6 16 
f 6 10 16 
f 10 8 16 
f 12 2 16 
f 8 12 16 
f 5 4 17 
f 2 5 17 
f 9 2 17 
f 7 9 17 
f 13 7 17 
f 4 13 17 
f 5 2 18 
f 10 5 18 
f 8 10 18 
f 2 12 18 
f 12 8 18 
f 11 1 19 
f 4 11 19 
f 13 4 19 
f 1 14 19 
o convex_1
v -0.004628 0.012974 0.018947
v -0.013182 -0.006757 -0.021830
v -0.017126 -0.010704 -0.021172
v 0.021015 -0.008071 0.011709
v 0.031541 0.012974 -0.009991
v -0.025680 -0.010704 0.020258
v -0.026986 0.012974 -0.008012
v 0.018383 -0.010704 -0.009991
v -0.038824 -0.010704 -0.005380
v 0.019043 0.012974 0.017631
v 0.011148 -0.010704 0.020263
v -0.024361 0.012974 0.008419
v -0.002663 0.012974 -0.017882
v 0.007864 -0.001495 -0.020514
v -0.026986 0.001135 -0.017877
v -0.011863 -0.010045 0.024211
v -0.034221 0.002449 0.001844
v 0.029562 0.012316 0.004471
v 0.006544 -0.010704 -0.018540
v -0.034221 0.003766 -0.009328
v -0.030937 -0.010704 -0.016561
v -0.034221 -0.010045 0.010393
v -0.014494 0.012974 0.016315
v 0.027590 0.001791 -0.001437
v 0.003913 0.005738 -0.020514
v -0.015807 0.009027 -0.018535
v 0.011808 0.012974 0.019605
v 0.015099 -0.003468 -0.017219
v 0.025618 0.012974 0.012367
v 0.023646 -0.005440 -0.008012
v -0.019098 -0.010045 0.023548
v -0.031589 0.009027 -0.000779
v -0.014494 0.001791 -0.021172
v -0.039491 -0.010045 -0.000779
v -0.020417 0.012974 -0.013934
v -0.034221 -0.004126 -0.013276
v 0.027590 0.012974 -0.011960
v 0.019702 -0.010704 -0.000779
v 0.020362 -0.006757 -0.011960
v -0.030277 0.005738 -0.013276
v -0.002663 -0.010045 -0.021172
v 0.032201 0.012316 -0.004064
v -0.026333 0.007055 0.010393
v 0.013780 -0.010045 0.018947
v -0.002003 -0.001495 -0.021830
v 0.007864 0.012974 -0.017224
v -0.019098 0.012974 0.013683
v -0.023701 -0.007415 -0.019851
v 0.011808 0.003766 -0.019198
v -0.000031 0.012974 0.019605
v -0.034881 0.003766 -0.003411
v 0.015759 0.000479 -0.017877
v 0.021674 -0.006757 0.011709
v -0.025680 -0.010045 0.020258
v -0.028305 0.012974 -0.003411
v -0.007259 0.008369 -0.019856
v -0.030277 0.006397 0.005792
v -0.015807 -0.010704 0.024211
v -0.023701 0.005078 -0.017877
v -0.038824 -0.010704 0.001844
v 0.024306 -0.004784 -0.002095
v 0.022327 0.012316 0.015657
v 0.032201 0.012316 -0.008670
v 0.010495 0.008369 -0.018540
f 56 68 83 
f 20 24 26 
f 25 22 27 
f 22 25 28 
f 24 20 29 
f 25 27 30 
f 20 26 31 
f 26 24 32 
f 27 22 38 
f 22 28 40 
f 20 31 42 
f 29 20 46 
f 30 29 46 
f 35 30 46 
f 38 33 47 
f 24 29 48 
f 20 42 50 
f 39 28 53 
f 26 32 54 
f 32 45 54 
f 28 39 55 
f 40 28 55 
f 34 40 55 
f 32 24 56 
f 30 27 57 
f 27 49 57 
f 27 38 58 
f 47 24 58 
f 38 47 58 
f 49 27 58 
f 39 26 59 
f 26 54 59 
f 55 39 59 
f 34 55 59 
f 22 21 60 
f 38 22 60 
f 33 38 60 
f 24 48 61 
f 48 37 61 
f 29 30 63 
f 57 23 63 
f 30 57 63 
f 44 33 64 
f 21 52 64 
f 52 44 64 
f 60 21 64 
f 33 60 64 
f 44 32 65 
f 32 56 65 
f 42 31 66 
f 31 62 66 
f 21 22 67 
f 22 40 67 
f 40 34 67 
f 52 21 67 
f 34 52 67 
f 33 44 68 
f 46 20 69 
f 35 46 69 
f 36 51 70 
f 51 39 70 
f 39 53 70 
f 53 36 70 
f 24 47 71 
f 47 33 71 
f 56 24 71 
f 33 68 71 
f 68 56 71 
f 23 43 72 
f 37 48 72 
f 61 37 72 
f 43 61 72 
f 63 23 72 
f 41 25 73 
f 25 50 73 
f 50 42 73 
f 62 41 73 
f 42 66 73 
f 66 62 73 
f 31 26 74 
f 26 39 74 
f 51 31 74 
f 39 51 74 
f 32 44 75 
f 45 32 75 
f 44 52 75 
f 52 45 75 
f 36 41 76 
f 31 51 76 
f 51 36 76 
f 62 31 76 
f 41 62 76 
f 25 30 77 
f 30 35 77 
f 20 50 77 
f 50 25 77 
f 69 20 77 
f 35 69 77 
f 52 34 78 
f 45 52 78 
f 54 45 78 
f 59 54 78 
f 34 59 78 
f 28 25 79 
f 25 41 79 
f 41 36 79 
f 53 28 79 
f 36 53 79 
f 43 23 80 
f 49 43 80 
f 23 57 80 
f 57 49 80 
f 48 29 81 
f 29 63 81 
f 72 48 81 
f 63 72 81 
f 43 49 82 
f 58 24 82 
f 49 58 82 
f 61 43 82 
f 24 61 82 
f 44 65 83 
f 65 56 83 
f 68 44 83 
o convex_2
v -0.002665 -0.046220 0.053151
v -0.022390 -0.039644 0.013030
v -0.022390 -0.038986 0.013030
v 0.015095 -0.046878 0.024870
v 0.003255 -0.038986 0.042622
v -0.026991 -0.047536 0.041966
v -0.028309 -0.038986 0.046573
v -0.009241 -0.047536 0.025534
v 0.006549 -0.047536 0.049204
v -0.034224 -0.039644 0.034732
v -0.020415 -0.038986 0.052491
v -0.020415 -0.047536 0.051831
v -0.005291 -0.038986 0.024870
v 0.010493 -0.047536 0.022239
v 0.005887 -0.041617 0.046573
v 0.009832 -0.043588 0.025534
v -0.017121 -0.038986 0.013689
v -0.001346 -0.038986 0.047888
v -0.031593 -0.038986 0.043281
v 0.011150 -0.047536 0.041306
v 0.001285 -0.047536 0.022239
v -0.027648 -0.046878 0.039994
v 0.003255 -0.038986 0.038019
v -0.005953 -0.047536 0.053151
v -0.033568 -0.039644 0.032108
v 0.007200 -0.044905 0.048544
v -0.023041 -0.047536 0.049860
v 0.014438 -0.046221 0.028157
v -0.018440 -0.042934 0.053151
v -0.017121 -0.038986 0.052491
v -0.033568 -0.038986 0.032108
v 0.013125 -0.046878 0.022899
v -0.023698 -0.039644 0.014345
f 108 114 116 
f 88 86 90 
f 89 91 92 
f 88 90 94 
f 94 90 95 
f 89 92 95 
f 86 88 96 
f 92 91 97 
f 96 99 100 
f 85 86 100 
f 86 96 100 
f 97 85 100 
f 88 94 101 
f 98 88 101 
f 90 86 102 
f 93 89 102 
f 97 87 103 
f 92 97 103 
f 91 85 104 
f 85 97 104 
f 97 91 104 
f 85 91 105 
f 91 89 105 
f 89 93 105 
f 96 88 106 
f 99 96 106 
f 92 84 107 
f 95 92 107 
f 105 93 108 
f 84 92 109 
f 101 84 109 
f 98 101 109 
f 92 103 109 
f 103 98 109 
f 95 90 110 
f 89 95 110 
f 90 102 110 
f 102 89 110 
f 88 98 111 
f 87 99 111 
f 103 87 111 
f 98 103 111 
f 106 88 111 
f 99 106 111 
f 94 95 112 
f 107 84 112 
f 95 107 112 
f 84 101 113 
f 101 94 113 
f 112 84 113 
f 94 112 113 
f 102 86 114 
f 93 102 114 
f 108 93 114 
f 87 97 115 
f 99 87 115 
f 100 99 115 
f 97 100 115 
f 86 85 116 
f 85 105 116 
f 105 108 116 
f 114 86 116 
o convex_3
v 0.008520 0.036654 -0.027749
v -0.000684 0.038626 -0.044192
v -0.000684 0.041912 -0.044192
v -0.006603 0.034024 -0.027749
v 0.004575 0.045861 -0.030381
v 0.009178 0.039283 -0.044192
v 0.001289 0.031391 -0.028408
v 0.009178 0.044543 -0.036298
v -0.003314 0.039939 -0.027749
v 0.007205 0.044543 -0.044192
v 0.011810 0.041256 -0.032354
v 0.002603 0.036654 -0.044192
v 0.006549 0.043886 -0.027749
v -0.003314 0.041256 -0.036298
v 0.011152 0.037968 -0.033669
v -0.003314 0.031391 -0.028408
v 0.003259 0.045861 -0.033669
v 0.003917 0.032049 -0.027749
v 0.006549 0.037313 -0.044192
v 0.008520 0.045202 -0.031041
v 0.003917 0.044543 -0.044192
v 0.001947 0.045202 -0.030381
f 133 130 138 
f 119 118 120 
f 118 119 122 
f 120 117 125 
f 122 119 126 
f 126 124 127 
f 122 126 127 
f 118 122 128 
f 125 117 129 
f 117 127 129 
f 119 120 130 
f 120 125 130 
f 127 117 131 
f 122 127 131 
f 120 118 132 
f 118 128 132 
f 128 123 132 
f 119 130 133 
f 117 120 134 
f 131 117 134 
f 120 132 134 
f 132 123 134 
f 128 122 135 
f 123 128 135 
f 122 131 135 
f 134 123 135 
f 131 134 135 
f 124 126 136 
f 127 124 136 
f 121 129 136 
f 129 127 136 
f 133 121 136 
f 126 133 136 
f 126 119 137 
f 119 133 137 
f 133 126 137 
f 129 121 138 
f 125 129 138 
f 130 125 138 
f 121 133 138 
o convex_4
v -0.048039 -0.027803 -0.063264
v -0.030285 -0.021230 -0.058660
v -0.030944 -0.020572 -0.058003
v -0.045409 -0.036353 -0.040909
v -0.049354 -0.021230 -0.048142
v -0.048039 -0.019914 -0.066552
v -0.036862 -0.018598 -0.048142
v -0.031602 -0.023202 -0.065895
v -0.050669 -0.031092 -0.040909
v -0.039494 -0.032406 -0.040909
v -0.039494 -0.031748 -0.055372
v -0.051327 -0.030434 -0.054060
v -0.042120 -0.022545 -0.043537
v -0.038836 -0.020572 -0.068528
v -0.032917 -0.022545 -0.048142
v -0.049354 -0.019256 -0.063264
v -0.039494 -0.027147 -0.065235
v -0.046065 -0.032406 -0.056029
v -0.040151 -0.017940 -0.052089
v -0.030285 -0.023202 -0.059974
v -0.049354 -0.035695 -0.041566
v -0.051986 -0.028461 -0.050116
v -0.042120 -0.023202 -0.068528
v -0.038177 -0.031748 -0.053403
v -0.040151 -0.028461 -0.040909
v -0.031602 -0.020572 -0.063921
v -0.050012 -0.025175 -0.063264
v -0.041462 -0.035037 -0.040909
v -0.032259 -0.023859 -0.049459
v -0.037521 -0.017940 -0.052089
v -0.046065 -0.026491 -0.065895
v -0.046724 -0.019914 -0.048799
v -0.050012 -0.019914 -0.063264
v -0.036862 -0.021230 -0.045511
v -0.046724 -0.019256 -0.065235
v -0.048697 -0.032406 -0.054717
v -0.050669 -0.034380 -0.040909
f 160 150 175 
f 147 142 148 
f 143 147 151 
f 140 141 153 
f 141 145 153 
f 146 149 155 
f 149 142 156 
f 155 149 156 
f 146 140 158 
f 156 142 159 
f 147 143 160 
f 144 152 161 
f 152 146 161 
f 146 155 161 
f 142 149 162 
f 149 146 162 
f 146 158 162 
f 147 148 163 
f 151 147 163 
f 148 153 163 
f 141 140 164 
f 140 146 164 
f 146 152 164 
f 139 150 165 
f 150 160 165 
f 148 142 166 
f 158 148 166 
f 142 162 166 
f 162 158 166 
f 140 153 167 
f 153 148 167 
f 158 140 167 
f 148 158 167 
f 145 141 168 
f 157 145 168 
f 141 164 168 
f 164 152 168 
f 156 139 169 
f 155 156 169 
f 144 161 169 
f 161 155 169 
f 139 165 169 
f 165 144 169 
f 143 151 170 
f 151 145 170 
f 154 143 170 
f 145 157 170 
f 157 154 170 
f 143 154 171 
f 154 144 171 
f 160 143 171 
f 144 165 171 
f 165 160 171 
f 145 151 172 
f 153 145 172 
f 151 163 172 
f 163 153 172 
f 152 144 173 
f 144 154 173 
f 154 157 173 
f 168 152 173 
f 157 168 173 
f 150 139 174 
f 139 156 174 
f 159 150 174 
f 156 159 174 
f 142 147 175 
f 159 142 175 
f 150 159 175 
f 147 160 175 
o convex_5
v -0.040152 -0.034382 -0.027094
v -0.051328 -0.033722 -0.040904
v -0.051328 -0.031749 -0.040904
v -0.051985 -0.032406 -0.026435
v -0.038179 -0.023200 -0.026435
v -0.039493 -0.032406 -0.040904
v -0.050671 -0.037013 -0.035641
v -0.047382 -0.024516 -0.025776
v -0.044754 -0.027807 -0.040904
v -0.036204 -0.029122 -0.025776
v -0.043440 -0.036354 -0.040245
v -0.048039 -0.035039 -0.025776
v -0.053961 -0.032406 -0.034982
v -0.042781 -0.037013 -0.031698
v -0.038836 -0.034382 -0.034325
v -0.040152 -0.029122 -0.040904
v -0.053301 -0.035697 -0.031040
v -0.036204 -0.025176 -0.025776
v -0.043440 -0.023200 -0.026435
v -0.048039 -0.037013 -0.029724
v -0.051328 -0.029122 -0.034325
v -0.050671 -0.028464 -0.025776
f 183 196 197 
f 177 178 181 
f 181 178 184 
f 177 181 186 
f 182 177 186 
f 176 185 187 
f 185 183 187 
f 178 177 188 
f 182 186 189 
f 185 176 190 
f 181 185 190 
f 186 181 190 
f 176 189 190 
f 189 186 190 
f 184 180 191 
f 181 184 191 
f 177 182 192 
f 187 179 192 
f 188 177 192 
f 179 188 192 
f 180 183 193 
f 185 181 193 
f 183 185 193 
f 191 180 193 
f 181 191 193 
f 183 180 194 
f 180 184 194 
f 184 183 194 
f 176 187 195 
f 189 176 195 
f 182 189 195 
f 192 182 195 
f 187 192 195 
f 183 184 196 
f 184 178 196 
f 178 188 196 
f 196 188 197 
f 179 187 197 
f 187 183 197 
f 188 179 197 
o convex_6
v -0.000027 -0.023858 -0.036298
v 0.012469 -0.019256 -0.033014
v 0.011811 -0.018597 -0.032355
v 0.005233 -0.013992 -0.044850
v -0.002001 -0.019256 -0.025780
v 0.011153 -0.021883 -0.044850
v 0.005233 -0.027147 -0.025780
v 0.006548 -0.017939 -0.025780
v 0.001946 -0.019913 -0.044850
v -0.003974 -0.023200 -0.025780
v -0.002657 -0.019256 -0.034986
v 0.009838 -0.023858 -0.025780
v 0.011811 -0.016624 -0.044850
v 0.005233 -0.022542 -0.044850
v -0.000684 -0.016624 -0.032355
v 0.012469 -0.022542 -0.035641
v 0.001289 -0.027147 -0.026437
v 0.007864 -0.013992 -0.044189
v -0.002657 -0.021883 -0.035641
v 0.006548 -0.025173 -0.036298
v 0.002606 -0.015966 -0.032355
v 0.011153 -0.023858 -0.036298
f 204 217 219 
f 202 204 205 
f 201 203 206 
f 204 202 207 
f 201 206 208 
f 207 202 208 
f 199 200 209 
f 200 205 209 
f 205 204 209 
f 200 199 210 
f 203 201 210 
f 198 206 211 
f 206 203 211 
f 201 208 212 
f 208 202 212 
f 199 209 213 
f 210 199 213 
f 203 210 213 
f 207 198 214 
f 204 207 214 
f 198 211 214 
f 205 200 215 
f 200 210 215 
f 210 201 215 
f 206 198 216 
f 198 207 216 
f 208 206 216 
f 207 208 216 
f 211 203 217 
f 204 214 217 
f 214 211 217 
f 202 205 218 
f 201 212 218 
f 212 202 218 
f 205 215 218 
f 215 201 218 
f 209 204 219 
f 203 213 219 
f 213 209 219 
f 217 203 219 
o convex_7
v -0.042778 -0.012680 -0.007358
v -0.028971 -0.037010 -0.003415
v -0.028310 -0.037010 -0.003415
v -0.028310 -0.010708 0.015660
v -0.028310 -0.010708 -0.017222
v -0.050670 -0.033063 -0.025776
v -0.038179 -0.027802 0.013685
v -0.028310 -0.036351 0.015660
v -0.036205 -0.030434 -0.025776
v -0.039490 -0.015309 0.015660
v -0.049355 -0.025171 -0.025115
v -0.048039 -0.018597 -0.006044
v -0.045408 -0.027802 0.001846
v -0.028310 -0.031091 -0.015908
v -0.039490 -0.010708 0.001188
v -0.038836 -0.033719 0.005792
v -0.048696 -0.034379 -0.025776
v -0.037520 -0.022547 -0.025776
v -0.039490 -0.012680 -0.014594
v -0.042119 -0.034379 -0.025776
v -0.028310 -0.034379 -0.012618
v -0.029627 -0.036351 0.015660
v -0.028310 -0.024514 -0.018540
v -0.046065 -0.015309 -0.009986
v -0.046724 -0.023858 -0.025776
v -0.044093 -0.025171 0.006449
v -0.046724 -0.015968 -0.004733
v -0.035548 -0.024514 -0.025776
v -0.030943 -0.037010 0.003821
v -0.039490 -0.010708 -0.006044
v -0.032917 -0.033719 0.015660
v -0.034233 -0.010708 0.011053
v -0.038836 -0.031747 0.009739
v -0.043434 -0.031091 0.001188
v -0.050670 -0.028459 -0.025776
v -0.032258 -0.010708 -0.015908
v -0.046065 -0.027143 0.000531
v -0.048039 -0.017941 -0.009986
v -0.050670 -0.031747 -0.023801
v -0.042119 -0.013996 -0.014594
v -0.036205 -0.035694 0.003160
v -0.045408 -0.022547 0.003160
f 256 245 261 
f 223 222 224 
f 222 223 227 
f 227 223 229 
f 224 222 233 
f 223 224 234 
f 222 221 236 
f 225 228 236 
f 235 225 236 
f 228 225 237 
f 222 236 239 
f 236 228 239 
f 233 222 240 
f 228 233 240 
f 222 239 240 
f 239 228 240 
f 227 229 241 
f 224 233 242 
f 233 228 242 
f 224 237 244 
f 237 225 244 
f 226 229 245 
f 231 229 246 
f 234 220 246 
f 229 234 246 
f 220 243 246 
f 237 224 247 
f 228 237 247 
f 224 242 247 
f 242 228 247 
f 221 222 248 
f 222 227 248 
f 236 221 248 
f 227 241 248 
f 220 234 249 
f 234 224 249 
f 229 226 250 
f 241 229 250 
f 235 241 250 
f 229 223 251 
f 223 234 251 
f 234 229 251 
f 226 245 252 
f 245 232 252 
f 250 226 252 
f 235 250 252 
f 232 225 253 
f 225 235 253 
f 252 232 253 
f 235 252 253 
f 244 225 254 
f 230 244 254 
f 224 244 255 
f 244 238 255 
f 249 224 255 
f 238 249 255 
f 225 232 256 
f 232 245 256 
f 243 230 257 
f 231 246 257 
f 246 243 257 
f 254 231 257 
f 230 254 257 
f 254 225 258 
f 231 254 258 
f 225 256 258 
f 256 231 258 
f 230 243 259 
f 243 220 259 
f 244 230 259 
f 238 244 259 
f 220 249 259 
f 249 238 259 
f 235 236 260 
f 241 235 260 
f 236 248 260 
f 248 241 260 
f 229 231 261 
f 245 229 261 
f 231 256 261 
o convex_8
v 0.013122 -0.027801 -0.000783
v -0.003977 -0.023859 -0.025776
v -0.003977 -0.020573 -0.025776
v -0.028308 -0.010704 0.015656
v -0.025017 -0.038986 0.015656
v 0.014439 -0.010704 0.015660
v -0.028308 -0.010704 -0.017222
v -0.028308 -0.035694 -0.009986
v 0.017730 -0.010704 -0.009990
v 0.007203 -0.028458 -0.021169
v -0.013836 -0.038986 0.015656
v -0.004631 -0.037009 -0.004733
v 0.007203 -0.018599 -0.025776
v -0.028308 -0.027145 -0.017879
v -0.005284 -0.010706 -0.021169
v 0.005891 -0.024515 0.015660
v -0.028308 -0.037009 0.015656
v 0.009836 -0.024515 -0.025776
v 0.003259 -0.027801 -0.025115
v 0.013781 -0.027801 -0.010647
v 0.019046 -0.011363 -0.000126
v -0.011866 -0.038324 -0.003415
v 0.010494 -0.030434 -0.000783
v -0.022388 -0.010704 -0.019854
v -0.017127 -0.036353 -0.010647
v -0.005942 -0.035035 0.015660
v -0.028308 -0.030431 -0.016561
v 0.007203 -0.010706 -0.017883
v -0.001344 -0.036353 -0.002758
v -0.028308 -0.019258 -0.018540
v -0.026991 -0.037668 -0.000787
v 0.009836 -0.028458 0.005135
v 0.015097 -0.011363 0.014999
v 0.010494 -0.030434 -0.009986
v -0.028308 -0.034379 -0.012618
v 0.000630 -0.017940 -0.025776
v 0.000630 -0.027143 -0.025776
v -0.000028 -0.035694 0.001188
v 0.019046 -0.011363 -0.006039
v 0.014439 -0.026486 -0.002758
v -0.007259 -0.037009 -0.006697
v -0.017786 -0.038324 -0.002758
v 0.014439 -0.026486 -0.010647
v 0.008520 -0.019258 -0.025776
v -0.015811 -0.010704 -0.021169
f 276 297 306 
f 265 267 268 
f 265 268 269 
f 268 267 270 
f 263 264 274 
f 269 268 275 
f 265 269 278 
f 263 274 279 
f 279 271 280 
f 271 279 281 
f 270 267 282 
f 272 266 283 
f 273 272 283 
f 281 262 284 
f 268 270 285 
f 267 265 287 
f 266 272 287 
f 277 267 287 
f 278 266 287 
f 265 278 287 
f 269 275 288 
f 274 276 289 
f 272 273 290 
f 264 263 291 
f 263 275 291 
f 275 268 291 
f 285 264 291 
f 268 285 291 
f 266 278 292 
f 278 269 292 
f 284 262 293 
f 277 287 293 
f 287 284 293 
f 267 277 294 
f 282 267 294 
f 293 262 294 
f 277 293 294 
f 273 271 295 
f 271 281 295 
f 281 284 295 
f 290 273 295 
f 284 290 295 
f 286 269 296 
f 280 286 296 
f 269 288 296 
f 274 264 297 
f 276 274 297 
f 275 263 298 
f 263 279 298 
f 279 280 298 
f 288 275 298 
f 280 296 298 
f 296 288 298 
f 287 272 299 
f 284 287 299 
f 272 290 299 
f 290 284 299 
f 279 270 300 
f 270 282 300 
f 300 282 301 
f 262 281 301 
f 294 262 301 
f 282 294 301 
f 271 273 302 
f 280 271 302 
f 273 283 302 
f 286 280 302 
f 283 286 302 
f 283 266 303 
f 269 286 303 
f 286 283 303 
f 266 292 303 
f 292 269 303 
f 281 279 304 
f 279 300 304 
f 300 301 304 
f 301 281 304 
f 270 279 305 
f 279 274 305 
f 289 270 305 
f 274 289 305 
f 264 285 306 
f 285 270 306 
f 270 289 306 
f 289 276 306 
f 297 264 306 
o convex_9
v -0.034223 -0.031093 0.015660
v 0.014442 -0.010704 0.016319
v 0.014442 -0.010704 0.015660
v -0.003977 -0.038986 0.026841
v -0.023701 -0.013993 0.028157
v -0.036852 -0.013336 0.015660
v -0.039486 -0.028460 0.028157
v -0.013185 -0.038986 0.015660
v -0.000691 -0.015310 0.028157
v -0.028302 -0.038986 0.028157
v -0.019100 -0.010704 0.024209
v 0.001943 -0.029119 0.028157
v 0.005230 -0.025830 0.016319
v -0.036852 -0.019917 0.028157
v -0.025016 -0.038986 0.015660
v -0.040149 -0.015966 0.016319
v -0.029622 -0.010704 0.015660
v 0.012465 -0.010704 0.019609
v -0.040149 -0.027804 0.022235
v -0.007926 -0.013336 0.028157
v -0.006612 -0.035694 0.015660
v -0.031594 -0.035038 0.015660
v -0.003977 -0.038986 0.028157
v -0.039486 -0.015310 0.018950
v -0.025673 -0.010704 0.020923
v 0.014442 -0.011363 0.016319
v 0.001943 -0.023200 0.028157
v -0.008584 -0.010704 0.024209
v -0.040149 -0.026486 0.026841
v -0.038829 -0.029773 0.024868
f 325 328 336 
f 309 307 312 
f 307 309 314 
f 311 313 315 
f 315 313 316 
f 314 310 316 
f 308 309 317 
f 315 316 318 
f 313 311 320 
f 307 314 321 
f 314 316 321 
f 312 307 322 
f 309 312 323 
f 317 309 323 
f 308 317 324 
f 322 307 325 
f 311 315 326 
f 317 311 326 
f 315 324 326 
f 314 309 327 
f 310 314 327 
f 309 319 327 
f 319 310 327 
f 307 321 328 
f 321 316 328 
f 325 307 328 
f 316 310 329 
f 318 316 329 
f 310 319 329 
f 320 311 330 
f 312 322 330 
f 311 317 331 
f 323 312 331 
f 317 323 331 
f 330 311 331 
f 312 330 331 
f 309 308 332 
f 319 309 332 
f 308 324 332 
f 324 318 332 
f 318 329 332 
f 329 319 332 
f 315 318 333 
f 324 315 333 
f 318 324 333 
f 324 317 334 
f 317 326 334 
f 326 324 334 
f 313 320 335 
f 325 313 335 
f 322 325 335 
f 320 330 335 
f 330 322 335 
f 316 313 336 
f 313 325 336 
f 328 316 336 
o convex_10
v -0.032252 -0.032407 0.041969
v -0.004636 -0.013992 0.028815
v -0.004636 -0.013992 0.028157
v 0.002603 -0.038983 0.041966
v -0.028304 -0.038986 0.028157
v -0.021073 -0.038986 0.051835
v -0.036858 -0.019913 0.028815
v -0.003322 -0.038328 0.028157
v -0.015815 -0.024517 0.043280
v -0.034880 -0.038986 0.034735
v -0.001344 -0.038325 0.047230
v 0.001944 -0.027145 0.028157
v -0.023046 -0.019257 0.036712
v -0.030937 -0.025836 0.040650
v -0.038828 -0.029117 0.028157
v -0.024361 -0.014650 0.028157
v -0.001344 -0.015969 0.028818
v -0.006610 -0.022545 0.039343
v -0.018444 -0.035693 0.051177
v -0.010557 -0.014650 0.032107
v -0.038828 -0.023862 0.031448
v -0.032252 -0.038986 0.042627
v 0.002603 -0.038983 0.038024
v -0.021073 -0.027142 0.045258
v -0.009898 -0.038328 0.050516
v -0.034225 -0.038986 0.030790
v -0.017134 -0.015967 0.034077
v -0.003977 -0.038986 0.028157
v -0.033570 -0.025175 0.038684
v 0.001944 -0.029775 0.028157
v -0.009898 -0.022545 0.040650
v -0.034225 -0.019913 0.031448
v -0.021073 -0.036353 0.051177
v -0.036199 -0.033063 0.036051
v -0.002003 -0.023203 0.036051
v 0.001285 -0.023203 0.028818
f 348 353 372 
f 341 339 344 
f 341 342 346 
f 342 340 347 
f 344 339 348 
f 339 341 351 
f 338 339 352 
f 339 351 352 
f 351 343 352 
f 339 338 353 
f 348 339 353 
f 353 338 354 
f 338 352 356 
f 354 338 356 
f 343 351 357 
f 342 337 358 
f 346 342 358 
f 337 357 358 
f 348 340 359 
f 345 349 360 
f 349 350 360 
f 355 345 360 
f 342 347 361 
f 355 342 361 
f 341 346 362 
f 351 341 362 
f 346 351 362 
f 349 345 363 
f 352 349 363 
f 345 356 363 
f 356 352 363 
f 340 342 364 
f 342 341 364 
f 341 344 364 
f 359 340 364 
f 344 359 364 
f 350 349 365 
f 357 337 365 
f 343 357 365 
f 344 348 366 
f 359 344 366 
f 348 359 366 
f 347 354 367 
f 345 355 367 
f 356 345 367 
f 354 356 367 
f 361 347 367 
f 355 361 367 
f 349 352 368 
f 352 343 368 
f 343 365 368 
f 365 349 368 
f 337 342 369 
f 342 355 369 
f 360 350 369 
f 355 360 369 
f 365 337 369 
f 350 365 369 
f 351 346 370 
f 357 351 370 
f 346 358 370 
f 358 357 370 
f 347 340 371 
f 340 353 371 
f 354 347 371 
f 353 354 371 
f 340 348 372 
f 353 340 372 
o convex_11
v -0.003972 0.026789 -0.065239
v 0.007207 0.047832 -0.057348
v 0.007207 0.047832 -0.058664
v -0.011209 0.034023 -0.066554
v 0.009179 0.034682 -0.068528
v 0.005232 0.032709 -0.057348
v -0.005288 0.034023 -0.058006
v -0.004631 0.037967 -0.068528
v 0.001286 0.047173 -0.057348
v 0.003260 0.027448 -0.067869
v 0.011154 0.039941 -0.057348
v 0.007207 0.044542 -0.064581
v 0.009179 0.030735 -0.066554
v -0.009893 0.030735 -0.068528
v -0.009235 0.033366 -0.061294
v 0.011154 0.044542 -0.058006
v 0.006548 0.030735 -0.059979
v 0.002601 0.044542 -0.064581
v -0.009235 0.035996 -0.068528
v -0.003972 0.030735 -0.059321
v -0.008578 0.028105 -0.066554
v -0.009235 0.035996 -0.061294
v -0.003972 0.038624 -0.057348
v 0.010495 0.035996 -0.065896
f 384 388 396 
f 374 375 381 
f 378 374 381 
f 374 378 383 
f 377 380 384 
f 382 377 385 
f 380 377 386 
f 377 382 386 
f 375 374 388 
f 374 383 388 
f 384 375 388 
f 373 382 389 
f 383 378 389 
f 382 385 389 
f 385 383 389 
f 381 375 390 
f 384 380 390 
f 375 384 390 
f 376 381 391 
f 386 376 391 
f 380 386 391 
f 381 390 391 
f 390 380 391 
f 378 379 392 
f 379 387 392 
f 373 389 392 
f 389 378 392 
f 382 373 393 
f 376 386 393 
f 386 382 393 
f 387 376 393 
f 373 392 393 
f 392 387 393 
f 381 376 394 
f 387 379 394 
f 376 387 394 
f 379 378 395 
f 378 381 395 
f 381 394 395 
f 394 379 395 
f 377 384 396 
f 385 377 396 
f 383 385 396 
f 388 383 396 
o convex_12
v 0.003919 0.036653 -0.044192
v 0.007204 0.047834 -0.054058
v 0.007864 0.047175 -0.049456
v 0.011811 0.039286 -0.055373
v -0.003974 0.035997 -0.057347
v -0.000684 0.041912 -0.044192
v 0.001289 0.047175 -0.057347
v 0.005233 0.033364 -0.057347
v 0.009179 0.039286 -0.044192
v 0.011811 0.044545 -0.057347
v 0.010494 0.045201 -0.047481
v -0.002001 0.033364 -0.056688
v -0.003316 0.041256 -0.052083
v -0.000684 0.038627 -0.044192
v 0.003919 0.044545 -0.044192
v 0.000631 0.047175 -0.054058
v 0.012469 0.041912 -0.052083
v 0.011153 0.037969 -0.053400
v 0.007864 0.044545 -0.044192
f 411 405 415 
f 401 403 404 
f 402 397 405 
f 397 404 405 
f 403 398 406 
f 404 403 406 
f 400 404 406 
f 398 399 407 
f 406 398 407 
f 401 404 408 
f 404 397 408 
f 403 401 409 
f 397 402 410 
f 401 408 410 
f 408 397 410 
f 409 401 410 
f 402 409 410 
f 402 405 411 
f 399 398 412 
f 398 403 412 
f 409 402 412 
f 403 409 412 
f 411 399 412 
f 402 411 412 
f 400 406 413 
f 407 405 413 
f 406 407 413 
f 404 400 414 
f 405 404 414 
f 400 413 414 
f 413 405 414 
f 407 399 415 
f 405 407 415 
f 399 411 415 
o convex_13
v 0.033519 0.015605 -0.047484
v 0.051275 0.017579 -0.061291
v 0.051275 0.016923 -0.061291
v 0.034833 0.018237 -0.067208
v 0.044697 0.027444 -0.040909
v 0.041411 0.012977 -0.048141
v 0.038779 0.026784 -0.050115
v 0.040095 0.013633 -0.067208
v 0.046010 0.020209 -0.040909
v 0.035492 0.024155 -0.040909
v 0.048642 0.021524 -0.061291
v 0.033519 0.020865 -0.064579
v 0.032201 0.015605 -0.059974
v 0.047328 0.014292 -0.066551
v 0.049301 0.024813 -0.047484
v 0.038779 0.017579 -0.040909
v 0.043381 0.026784 -0.052087
v 0.038121 0.012317 -0.058659
v 0.048642 0.014292 -0.056687
v 0.032860 0.019552 -0.046169
v 0.038779 0.022838 -0.062605
v 0.049957 0.017579 -0.065236
v 0.036807 0.012977 -0.048141
v 0.049957 0.020209 -0.050115
v 0.046010 0.016264 -0.045512
v 0.038779 0.017579 -0.067868
v 0.035492 0.019552 -0.040909
v 0.040752 0.027444 -0.040909
v 0.040752 0.012317 -0.058659
v 0.048642 0.025469 -0.049458
v 0.034174 0.016264 -0.066551
v 0.041411 0.014292 -0.044855
v 0.032201 0.018896 -0.060633
v 0.034833 0.013633 -0.059974
f 428 446 449 
f 424 420 425 
f 425 422 427 
f 420 424 430 
f 424 425 431 
f 429 418 434 
f 428 416 435 
f 427 422 436 
f 422 432 436 
f 432 426 436 
f 417 418 437 
f 426 417 437 
f 418 429 437 
f 436 426 437 
f 416 428 438 
f 433 421 438 
f 418 417 439 
f 417 430 439 
f 430 424 439 
f 434 418 439 
f 434 439 440 
f 421 434 440 
f 439 424 440 
f 423 419 441 
f 419 427 441 
f 429 423 441 
f 427 436 441 
f 437 429 441 
f 436 437 441 
f 431 425 442 
f 435 416 442 
f 425 435 442 
f 416 438 442 
f 438 431 442 
f 422 425 443 
f 425 420 443 
f 420 432 443 
f 432 422 443 
f 423 429 444 
f 421 433 444 
f 433 423 444 
f 429 434 444 
f 434 421 444 
f 417 426 445 
f 430 417 445 
f 420 430 445 
f 432 420 445 
f 426 432 445 
f 419 423 446 
f 427 419 446 
f 424 431 447 
f 431 438 447 
f 438 421 447 
f 421 440 447 
f 440 424 447 
f 425 427 448 
f 435 425 448 
f 428 435 448 
f 427 446 448 
f 446 428 448 
f 423 433 449 
f 438 428 449 
f 433 438 449 
f 446 423 449 
o convex_14
v 0.049959 0.028758 -0.030381
v 0.034832 0.024815 -0.028409
v 0.035491 0.020210 -0.040904
v 0.042724 0.034679 -0.033671
v 0.045353 0.019552 -0.040904
v 0.044697 0.028099 -0.040904
v 0.044038 0.023501 -0.027749
v 0.046669 0.034679 -0.027749
v 0.036150 0.031390 -0.032354
v 0.035491 0.024815 -0.040904
v 0.048642 0.034021 -0.033671
v 0.038122 0.018236 -0.040245
v 0.034832 0.029416 -0.027749
v 0.038122 0.022841 -0.027749
v 0.042724 0.035337 -0.029723
v 0.049959 0.029416 -0.033671
v 0.047328 0.026130 -0.027749
v 0.042724 0.018236 -0.040245
v 0.046012 0.026787 -0.040904
f 460 465 468 
f 454 452 455 
f 452 451 459 
f 455 452 459 
f 453 455 459 
f 458 453 459 
f 455 453 460 
f 457 450 460 
f 451 452 461 
f 452 454 461 
f 456 457 462 
f 459 451 462 
f 458 459 462 
f 451 461 463 
f 462 451 463 
f 456 462 463 
f 453 458 464 
f 460 453 464 
f 457 460 464 
f 462 457 464 
f 458 462 464 
f 450 454 465 
f 460 450 465 
f 454 450 466 
f 456 454 466 
f 450 457 466 
f 457 456 466 
f 454 456 467 
f 461 454 467 
f 463 461 467 
f 456 463 467 
f 454 455 468 
f 455 460 468 
f 465 454 468 
o convex_15
v 0.031546 0.041917 -0.028407
v 0.051272 0.059013 -0.034326
v 0.054558 0.058355 -0.033669
v 0.036810 0.059013 -0.027749
v 0.028918 0.055066 -0.034984
v 0.044038 0.042574 -0.034984
v 0.053904 0.048493 -0.027749
v 0.020362 0.052437 -0.027749
v 0.028918 0.045205 -0.034984
v 0.044038 0.041258 -0.027749
v 0.054558 0.051778 -0.034984
v 0.034838 0.058355 -0.034984
v 0.049301 0.056382 -0.027749
v 0.034838 0.041258 -0.033669
v 0.055879 0.049807 -0.032353
v 0.020362 0.049807 -0.028407
v 0.022337 0.053752 -0.030380
v 0.055218 0.058355 -0.034984
v 0.032860 0.041258 -0.027749
v 0.042723 0.059013 -0.027749
v 0.046012 0.041917 -0.029065
v 0.055879 0.051121 -0.030380
f 483 486 490 
f 475 472 476 
f 473 474 477 
f 475 476 478 
f 474 473 479 
f 472 470 480 
f 479 473 480 
f 472 475 481 
f 477 474 482 
f 469 477 482 
f 474 478 482 
f 474 479 483 
f 477 469 484 
f 477 484 485 
f 476 472 485 
f 473 477 485 
f 472 480 485 
f 480 473 485 
f 484 476 485 
f 470 471 486 
f 480 470 486 
f 479 480 486 
f 483 479 486 
f 478 476 487 
f 469 482 487 
f 482 478 487 
f 484 469 487 
f 476 484 487 
f 471 470 488 
f 470 472 488 
f 481 471 488 
f 472 481 488 
f 478 474 489 
f 475 478 489 
f 483 475 489 
f 474 483 489 
f 471 481 490 
f 481 475 490 
f 475 483 490 
f 486 471 490 
o convex_16
v 0.017732 0.046519 -0.015910
v 0.047979 0.061646 -0.023802
v 0.049959 0.060987 -0.023145
v 0.046012 0.043887 -0.027749
v 0.019711 0.051781 -0.027749
v 0.042719 0.044546 -0.015910
v 0.019050 0.057041 -0.015910
v 0.034825 0.060987 -0.027090
v 0.047979 0.053752 -0.015910
v 0.053248 0.047835 -0.027749
v 0.030233 0.043887 -0.027749
v 0.037461 0.058357 -0.015910
v 0.028261 0.043887 -0.015910
v 0.048640 0.056384 -0.027749
v 0.032204 0.061646 -0.023802
v 0.015764 0.054409 -0.018542
v 0.018389 0.047835 -0.023802
v 0.025625 0.059014 -0.024461
v 0.051273 0.046519 -0.023802
v 0.014442 0.051124 -0.015910
v 0.043376 0.043887 -0.017228
v 0.032865 0.059014 -0.016570
v 0.049301 0.060987 -0.025118
v 0.019711 0.049149 -0.027749
v 0.042065 0.059014 -0.027749
v 0.053248 0.049149 -0.026432
v 0.047322 0.049149 -0.016570
v 0.019711 0.045864 -0.019857
v 0.046669 0.061646 -0.022486
f 505 512 519 
f 491 496 497 
f 497 496 499 
f 494 495 500 
f 495 494 501 
f 499 493 502 
f 497 499 502 
f 496 491 503 
f 501 494 503 
f 500 495 504 
f 492 498 505 
f 498 495 508 
f 497 505 508 
f 505 498 508 
f 495 506 508 
f 506 497 508 
f 494 500 509 
f 491 497 510 
f 506 495 510 
f 497 506 510 
f 507 491 510 
f 496 503 511 
f 503 494 511 
f 494 509 511 
f 497 502 512 
f 505 497 512 
f 492 493 513 
f 498 492 513 
f 500 504 513 
f 495 501 514 
f 501 507 514 
f 510 495 514 
f 507 510 514 
f 495 498 515 
f 504 495 515 
f 498 513 515 
f 513 504 515 
f 493 499 516 
f 499 509 516 
f 509 500 516 
f 513 493 516 
f 500 513 516 
f 499 496 517 
f 509 499 517 
f 496 511 517 
f 511 509 517 
f 503 491 518 
f 501 503 518 
f 491 507 518 
f 507 501 518 
f 493 492 519 
f 502 493 519 
f 492 505 519 
f 512 502 519 
o convex_17
v 0.026282 0.049810 0.019603
v 0.037461 0.045863 -0.015910
v 0.037461 0.057697 -0.015910
v 0.009841 0.051783 -0.004068
v 0.009841 0.043887 0.016315
v 0.024312 0.060988 0.000536
v 0.045353 0.049150 0.003160
v 0.016416 0.047178 -0.015903
v 0.018394 0.057039 -0.015903
v 0.025625 0.043887 0.020259
v 0.034170 0.058357 0.008420
v 0.048644 0.054410 -0.015910
v 0.013789 0.055725 0.009080
v 0.040748 0.043887 -0.008015
v 0.028256 0.043887 -0.015903
v 0.035487 0.060330 -0.013275
v 0.034170 0.049810 0.018287
v 0.025625 0.058357 0.010396
v 0.016416 0.048492 0.019603
v 0.044696 0.045863 -0.013275
v 0.013132 0.055725 -0.010643
v 0.040091 0.054410 0.008424
v 0.047983 0.055066 -0.011303
v 0.009841 0.053752 0.004476
v 0.010498 0.043887 0.010396
v 0.032200 0.060988 -0.002092
v 0.041409 0.044547 -0.002752
v 0.015102 0.057697 -0.001436
v 0.042065 0.044547 -0.015910
v 0.013789 0.051783 -0.015247
v 0.040091 0.058355 -0.003408
v 0.032856 0.054410 0.014999
v 0.011815 0.046519 0.018287
v 0.030222 0.060330 -0.012615
v 0.024312 0.053752 0.016315
v 0.019050 0.045863 -0.015903
v 0.048644 0.052438 -0.013275
v 0.046009 0.051124 0.001848
v 0.043379 0.048494 0.005792
v 0.021681 0.043887 0.020919
v 0.013132 0.054410 0.011052
v 0.029565 0.046519 0.020259
v 0.036144 0.053752 0.014339
v 0.010498 0.051783 0.011052
v 0.024968 0.060988 -0.002752
v 0.010498 0.054410 -0.005384
v 0.009180 0.051783 0.005792
v 0.017733 0.057697 0.007764
f 560 537 567 
f 522 521 527 
f 522 527 528 
f 521 522 531 
f 529 524 533 
f 533 524 534 
f 522 528 535 
f 531 522 535 
f 530 525 537 
f 531 535 542 
f 524 523 544 
f 523 527 544 
f 534 524 544 
f 525 530 545 
f 529 533 546 
f 539 526 546 
f 533 539 546 
f 528 540 547 
f 543 532 547 
f 521 531 548 
f 533 534 548 
f 531 539 548 
f 539 533 548 
f 527 523 549 
f 528 527 549 
f 540 528 549 
f 530 541 550 
f 542 535 550 
f 541 542 550 
f 545 530 550 
f 535 545 550 
f 520 536 551 
f 530 537 551 
f 535 528 553 
f 538 520 554 
f 520 551 554 
f 551 537 554 
f 527 521 555 
f 544 527 555 
f 534 544 555 
f 521 548 555 
f 548 534 555 
f 526 539 556 
f 539 531 556 
f 531 542 556 
f 556 542 557 
f 536 526 557 
f 542 541 557 
f 526 556 557 
f 526 536 558 
f 546 526 558 
f 529 546 558 
f 524 529 559 
f 520 538 559 
f 552 524 559 
f 538 552 559 
f 532 543 560 
f 552 538 560 
f 554 537 560 
f 538 554 560 
f 536 520 561 
f 529 558 561 
f 558 536 561 
f 559 529 561 
f 520 559 561 
f 541 530 562 
f 551 536 562 
f 530 551 562 
f 536 557 562 
f 557 541 562 
f 524 552 563 
f 560 543 563 
f 552 560 563 
f 525 545 564 
f 545 535 564 
f 547 525 564 
f 528 547 564 
f 553 528 564 
f 535 553 564 
f 547 540 565 
f 543 547 565 
f 549 523 565 
f 540 549 565 
f 523 524 566 
f 524 563 566 
f 563 543 566 
f 565 523 566 
f 543 565 566 
f 537 525 567 
f 525 547 567 
f 547 532 567 
f 532 560 567 
o convex_18
v 0.021674 -0.058718 0.026840
v 0.014440 -0.058718 0.009083
v 0.013132 -0.059376 0.009742
v 0.000630 -0.058060 0.029473
v 0.008524 -0.061348 0.029473
v 0.021674 -0.061348 0.013688
v 0.026281 -0.058060 0.014346
v 0.011814 -0.062006 0.014346
v 0.020361 -0.058060 0.029473
v 0.011156 -0.058060 0.011057
v 0.020361 -0.060691 0.024210
v 0.000630 -0.058718 0.028814
v 0.018387 -0.062006 0.015663
v 0.010498 -0.060691 0.012372
v 0.015756 -0.060691 0.029473
v 0.026281 -0.058718 0.016979
v 0.020361 -0.058060 0.009742
f 577 574 584 
f 570 569 573 
f 570 573 575 
f 571 572 576 
f 574 571 576 
f 569 570 577 
f 571 574 577 
f 572 571 579 
f 575 572 579 
f 571 577 579 
f 572 575 580 
f 575 573 580 
f 573 578 580 
f 570 575 581 
f 577 570 581 
f 575 579 581 
f 579 577 581 
f 568 576 582 
f 576 572 582 
f 578 568 582 
f 572 580 582 
f 580 578 582 
f 573 574 583 
f 576 568 583 
f 574 576 583 
f 578 573 583 
f 568 578 583 
f 573 569 584 
f 574 573 584 
f 569 577 584 
o convex_19
v 0.020359 -0.050169 0.017631
v 0.015099 -0.056743 0.007768
v 0.013786 -0.057400 0.008426
v 0.026935 -0.058058 0.017631
v 0.001950 -0.056085 0.020922
v 0.008525 -0.049511 0.011058
v 0.003922 -0.048194 0.020922
v 0.021675 -0.052799 0.008426
v 0.023647 -0.058058 0.020922
v 0.017071 -0.048854 0.020922
v 0.005237 -0.058058 0.020922
v 0.027594 -0.054112 0.016318
v 0.021016 -0.058058 0.009084
v 0.019043 -0.049511 0.012372
v 0.009841 -0.058058 0.011714
v 0.001290 -0.050169 0.020263
v 0.007210 -0.052799 0.011714
v 0.011157 -0.048854 0.011058
v 0.026278 -0.058058 0.013688
v 0.015099 -0.051484 0.008426
v 0.021675 -0.052142 0.020922
f 596 594 605 
f 591 589 593 
f 591 593 594 
f 588 593 595 
f 593 589 595 
f 593 588 596 
f 585 594 596 
f 587 586 597 
f 586 592 597 
f 588 595 597 
f 594 585 598 
f 596 592 598 
f 585 596 598 
f 595 589 599 
f 587 597 599 
f 597 595 599 
f 591 590 600 
f 589 591 600 
f 586 587 601 
f 590 586 601 
f 587 599 601 
f 599 589 601 
f 589 600 601 
f 600 590 601 
f 590 591 602 
f 591 594 602 
f 598 592 602 
f 594 598 602 
f 596 588 603 
f 592 596 603 
f 597 592 603 
f 588 597 603 
f 586 590 604 
f 592 586 604 
f 590 602 604 
f 602 592 604 
f 594 593 605 
f 593 596 605 
o convex_20
v -0.003973 -0.050826 0.053808
v -0.000033 -0.054770 0.020922
v -0.000033 -0.052799 0.020922
v 0.021673 -0.056085 0.040652
v 0.015751 -0.047538 0.023555
v -0.025679 -0.047538 0.041969
v -0.009890 -0.058060 0.045912
v 0.022993 -0.058060 0.020922
v 0.017066 -0.048195 0.042622
v 0.018381 -0.054113 0.053149
v -0.000690 -0.047538 0.053149
v -0.010548 -0.047538 0.025529
v 0.000625 -0.058060 0.024212
v 0.015751 -0.058060 0.045252
v -0.023702 -0.052141 0.043282
v -0.019757 -0.048195 0.051832
v -0.007918 -0.056743 0.050519
v 0.021673 -0.052799 0.020922
v -0.011863 -0.050826 0.026185
v 0.003912 -0.047538 0.020922
v -0.023044 -0.052141 0.047225
v 0.015751 -0.050168 0.051175
v 0.018381 -0.048854 0.042622
v 0.005227 -0.058060 0.048545
v -0.007918 -0.058060 0.037365
v -0.002658 -0.054113 0.053149
v 0.005227 -0.058060 0.020922
v 0.021016 -0.052141 0.037365
v -0.017785 -0.047538 0.052492
v 0.018381 -0.049511 0.020922
v -0.007260 -0.050168 0.022899
v -0.008575 -0.052799 0.024869
v 0.022993 -0.054770 0.021582
v 0.011806 -0.047538 0.041969
v 0.019038 -0.058060 0.039992
f 615 619 640 
f 607 608 613 
f 610 611 616 
f 606 615 616 
f 611 610 617 
f 613 612 618 
f 612 613 619 
f 613 608 623 
f 611 617 624 
f 620 611 624 
f 617 610 625 
f 623 608 625 
f 611 620 626 
f 620 612 626 
f 621 611 626 
f 622 621 626 
f 612 622 626 
f 614 616 627 
f 616 615 627 
f 610 614 628 
f 614 627 628 
f 627 615 628 
f 612 619 629 
f 619 615 629 
f 615 622 629 
f 622 612 629 
f 618 612 630 
f 612 620 630 
f 620 618 630 
f 615 606 631 
f 621 622 631 
f 622 615 631 
f 607 613 632 
f 618 607 632 
f 613 618 632 
f 615 609 633 
f 628 615 633 
f 623 628 633 
f 606 616 634 
f 616 611 634 
f 611 621 634 
f 631 606 634 
f 621 631 634 
f 625 610 635 
f 623 625 635 
f 610 628 635 
f 628 623 635 
f 608 607 636 
f 624 617 636 
f 625 608 636 
f 617 625 636 
f 607 618 637 
f 618 620 637 
f 620 624 637 
f 636 607 637 
f 624 636 637 
f 609 613 638 
f 613 623 638 
f 633 609 638 
f 623 633 638 
f 614 610 639 
f 616 614 639 
f 610 616 639 
f 613 609 640 
f 609 615 640 
f 619 613 640 
o convex_21
v 0.003262 -0.029778 -0.065238
v 0.013126 -0.011361 -0.056689
v 0.015757 -0.013335 -0.056689
v 0.011810 -0.012019 -0.066555
v 0.016414 -0.026488 -0.066555
v -0.002001 -0.022542 -0.067212
v 0.005238 -0.025172 -0.056689
v 0.004577 -0.012677 -0.056689
v 0.013126 -0.025172 -0.058005
v 0.017073 -0.013335 -0.061953
v 0.000632 -0.023198 -0.059322
v 0.006550 -0.029118 -0.067871
v 0.009835 -0.029778 -0.063924
v 0.007863 -0.012019 -0.064581
v 0.016414 -0.021226 -0.067212
v 0.000632 -0.019913 -0.067871
v 0.016414 -0.016624 -0.056689
v -0.001342 -0.027144 -0.065238
v 0.005893 -0.027144 -0.058005
v 0.017073 -0.025172 -0.065238
v 0.001946 -0.028462 -0.067871
v -0.002001 -0.023198 -0.064581
v 0.015100 -0.025172 -0.059978
f 660 657 663 
f 643 642 647 
f 647 642 648 
f 642 643 650 
f 644 642 650 
f 647 648 651 
f 641 652 653 
f 652 645 653 
f 642 644 654 
f 648 642 654 
f 644 650 655 
f 645 652 655 
f 655 652 656 
f 646 648 656 
f 654 644 656 
f 648 654 656 
f 644 655 656 
f 643 647 657 
f 647 649 657 
f 650 643 657 
f 649 647 659 
f 647 651 659 
f 641 653 659 
f 653 649 659 
f 658 641 659 
f 651 658 659 
f 655 650 660 
f 645 655 660 
f 650 657 660 
f 652 641 661 
f 656 652 661 
f 646 656 661 
f 641 658 661 
f 658 646 661 
f 648 646 662 
f 651 648 662 
f 646 658 662 
f 658 651 662 
f 653 645 663 
f 649 653 663 
f 657 649 663 
f 645 660 663 
o convex_22
v 0.001946 -0.019910 -0.054715
v 0.013127 -0.010704 -0.054057
v 0.013127 -0.010704 -0.055372
v 0.014441 -0.021884 -0.053400
v 0.004579 -0.013336 -0.044850
v 0.011811 -0.021226 -0.044850
v 0.003261 -0.021884 -0.044850
v 0.005234 -0.024516 -0.056689
v 0.005893 -0.011362 -0.056689
v 0.016415 -0.013993 -0.056689
v 0.011811 -0.016626 -0.044850
v 0.003261 -0.012019 -0.048139
v 0.009836 -0.024516 -0.056689
v 0.009180 -0.010704 -0.048797
v 0.016415 -0.015967 -0.052742
v 0.003261 -0.014650 -0.056689
v 0.002604 -0.017283 -0.044850
v 0.014441 -0.021226 -0.056689
v 0.014441 -0.013993 -0.050113
f 674 678 682 
f 669 668 670 
f 670 664 671 
f 671 672 673 
f 666 665 673 
f 672 666 673 
f 668 669 674 
f 667 669 676 
f 669 670 676 
f 670 671 676 
f 671 673 676 
f 665 666 677 
f 666 672 677 
f 668 674 677 
f 675 668 677 
f 672 675 677 
f 669 667 678 
f 674 669 678 
f 671 664 679 
f 672 671 679 
f 664 675 679 
f 675 672 679 
f 664 670 680 
f 670 668 680 
f 668 675 680 
f 675 664 680 
f 667 676 681 
f 676 673 681 
f 678 667 681 
f 673 678 681 
f 673 665 682 
f 665 677 682 
f 677 674 682 
f 678 673 682 
o convex_23
v 0.041414 0.041914 -0.036961
v 0.042723 0.065592 -0.048795
v 0.042723 0.065592 -0.050108
v 0.055879 0.051123 -0.048795
v 0.055879 0.059015 -0.035646
v 0.029572 0.055070 -0.034986
v 0.035490 0.048490 -0.045507
v 0.050615 0.049148 -0.050766
v 0.045355 0.043231 -0.034986
v 0.028912 0.045864 -0.034986
v 0.039437 0.064932 -0.050766
v 0.034836 0.058359 -0.034986
v 0.029572 0.057040 -0.040250
v 0.042723 0.042572 -0.042878
v 0.054562 0.053095 -0.051427
v 0.053904 0.047836 -0.044190
v 0.039437 0.065592 -0.046820
v 0.053247 0.051781 -0.034986
v 0.055879 0.059673 -0.038276
v 0.050615 0.059673 -0.034986
v 0.041414 0.060329 -0.051427
v 0.029572 0.045864 -0.037617
v 0.044695 0.063618 -0.051427
v 0.045355 0.042572 -0.042222
v 0.035490 0.049806 -0.046162
v 0.036148 0.042572 -0.034986
v 0.033518 0.060987 -0.041564
v 0.055219 0.049148 -0.048136
v 0.055879 0.057040 -0.035646
v 0.045355 0.064274 -0.050108
v 0.041414 0.043231 -0.043532
v 0.037465 0.064932 -0.048795
f 709 699 714 
f 691 688 692 
f 688 691 694 
f 692 688 695 
f 684 685 699 
f 687 684 699 
f 694 691 700 
f 691 698 700 
f 685 684 701 
f 687 686 701 
f 684 687 701 
f 686 697 701 
f 687 699 702 
f 699 694 702 
f 700 687 702 
f 694 700 702 
f 697 690 703 
f 692 695 704 
f 693 685 705 
f 703 693 705 
f 697 703 705 
f 691 683 706 
f 696 690 706 
f 683 696 706 
f 698 691 706 
f 690 689 707 
f 703 690 707 
f 693 703 707 
f 689 704 707 
f 704 695 707 
f 683 691 708 
f 691 692 708 
f 696 683 708 
f 692 704 708 
f 688 694 709 
f 695 688 709 
f 694 699 709 
f 697 686 710 
f 690 697 710 
f 706 690 710 
f 698 706 710 
f 686 687 711 
f 687 700 711 
f 700 698 711 
f 710 686 711 
f 698 710 711 
f 685 701 712 
f 701 697 712 
f 705 685 712 
f 697 705 712 
f 689 690 713 
f 690 696 713 
f 704 689 713 
f 696 708 713 
f 708 704 713 
f 685 693 714 
f 699 685 714 
f 693 707 714 
f 707 695 714 
f 695 709 714 
o convex_24
v 0.035491 0.043230 -0.004733
v 0.046013 0.043887 -0.024458
v 0.046013 0.041915 -0.024458
v 0.031545 0.043887 -0.027747
v 0.033519 0.041257 -0.027747
v 0.038777 0.043887 -0.003416
v 0.028912 0.043887 -0.019854
v 0.042724 0.041257 -0.021169
v 0.044697 0.041257 -0.027747
v 0.046013 0.043887 -0.027747
v 0.028912 0.043230 -0.019854
f 715 721 725 
f 717 716 720 
f 716 718 720 
f 720 718 721 
f 715 720 721 
f 715 719 722 
f 720 715 722 
f 717 720 722 
f 719 718 723 
f 722 719 723 
f 717 722 723 
f 716 717 724 
f 718 716 724 
f 717 723 724 
f 723 718 724 
f 719 715 725 
f 718 719 725 
f 721 718 725 
o convex_25
v -0.007260 0.024156 -0.017226
v 0.006547 0.043230 -0.027090
v 0.007207 0.038624 -0.017226
v -0.013182 0.032707 -0.017226
v 0.003260 0.031394 -0.027749
v 0.009838 0.030078 -0.017226
v -0.007260 0.033366 -0.027749
v 0.001943 0.043230 -0.027749
v -0.001999 0.039283 -0.017226
v 0.008521 0.036652 -0.027749
v 0.005232 0.026129 -0.017885
v -0.013182 0.028103 -0.017885
v -0.007916 0.036652 -0.026432
v 0.010496 0.034678 -0.017226
v -0.004630 0.030733 -0.027090
v -0.002657 0.024156 -0.017885
v -0.006604 0.037965 -0.021831
v 0.005891 0.032707 -0.027749
v 0.003918 0.039938 -0.017226
f 734 728 744 
f 726 728 729 
f 728 726 731 
f 730 732 733 
f 729 728 734 
f 730 733 735 
f 733 727 735 
f 731 726 736 
f 726 729 737 
f 732 737 738 
f 733 732 738 
f 737 729 738 
f 727 728 739 
f 728 731 739 
f 735 727 739 
f 731 735 739 
f 732 730 740 
f 726 737 740 
f 737 732 740 
f 736 726 741 
f 730 736 741 
f 726 740 741 
f 740 730 741 
f 729 734 742 
f 734 733 742 
f 733 738 742 
f 738 729 742 
f 735 731 743 
f 730 735 743 
f 736 730 743 
f 731 736 743 
f 728 727 744 
f 727 733 744 
f 733 734 744 
o convex_26
v -0.008575 0.020872 0.018947
v -0.013837 0.028104 -0.017226
v -0.014493 0.012974 -0.015908
v 0.017731 0.012974 -0.012618
v 0.017731 0.043887 0.019604
v 0.017731 0.012974 0.018290
v 0.008520 0.037963 -0.017226
v -0.015811 0.037309 0.005788
v -0.026331 0.012974 0.003820
v -0.002004 0.042571 -0.006699
v 0.017731 0.040598 -0.004728
v -0.015811 0.028104 0.015000
v -0.026992 0.013634 -0.006699
v -0.013837 0.035990 -0.012618
v -0.015811 0.012974 0.015657
v 0.006550 0.012974 -0.017226
v 0.003919 0.017580 0.020922
v -0.007918 0.041911 0.007763
v 0.017731 0.028104 -0.013936
v 0.007207 0.043887 -0.003413
v -0.000029 0.039936 -0.017226
v 0.017731 0.020872 0.020922
v -0.010553 0.035990 0.013682
v -0.004630 0.028104 0.019600
v -0.002665 0.043887 0.002502
v -0.019099 0.030071 0.009738
v 0.011808 0.043887 0.018290
v -0.009236 0.041255 -0.002095
v -0.013180 0.033363 -0.017226
v -0.016468 0.033363 -0.011300
v -0.000686 0.012974 0.019604
v 0.017731 0.043887 0.005791
v -0.023043 0.012974 -0.011300
v 0.002602 0.025472 0.020922
v -0.021073 0.013634 0.011714
v 0.012465 0.041911 -0.007356
v 0.011151 0.031387 -0.017226
v 0.017731 0.035993 -0.010646
v -0.007261 0.012974 -0.017226
v 0.011808 0.012974 -0.015908
v -0.016468 0.036652 0.004477
v -0.011867 0.037963 0.011053
v -0.009236 0.031387 0.016972
v -0.026992 0.013634 0.001195
v 0.013126 0.012974 0.019604
v -0.011867 0.038625 -0.008675
v -0.012523 0.024158 0.017632
v -0.018438 0.028104 0.012367
v 0.003919 0.039936 -0.017226
v 0.017731 0.020872 -0.013936
v -0.016468 0.032044 0.012367
v -0.014493 0.032044 -0.016565
v -0.012523 0.039936 0.002502
v -0.005287 0.043225 0.005788
v 0.015096 0.026131 0.020922
f 778 766 799 
f 747 748 750 
f 748 749 750 
f 747 750 753 
f 749 748 755 
f 753 750 759 
f 748 747 760 
f 746 751 760 
f 755 748 763 
f 751 746 765 
f 754 764 765 
f 750 749 766 
f 764 754 769 
f 749 764 769 
f 768 749 771 
f 749 769 771 
f 769 754 772 
f 765 746 773 
f 758 765 773 
f 758 773 774 
f 745 759 775 
f 759 750 775 
f 761 745 775 
f 749 755 776 
f 764 749 776 
f 746 747 777 
f 747 753 777 
f 753 757 777 
f 745 761 778 
f 761 766 778 
f 768 745 778 
f 749 768 778 
f 753 759 779 
f 755 751 780 
f 776 755 780 
f 764 776 780 
f 760 751 781 
f 751 763 781 
f 751 755 782 
f 755 763 782 
f 763 751 782 
f 747 746 783 
f 760 747 783 
f 746 760 783 
f 748 760 784 
f 760 781 784 
f 770 752 785 
f 774 757 785 
f 758 774 785 
f 762 752 786 
f 771 762 786 
f 767 771 786 
f 767 756 787 
f 771 767 787 
f 768 771 787 
f 757 753 788 
f 753 770 788 
f 770 785 788 
f 785 757 788 
f 750 766 789 
f 766 761 789 
f 775 750 789 
f 761 775 789 
f 765 758 790 
f 754 765 790 
f 772 754 790 
f 758 785 790 
f 759 745 791 
f 745 768 791 
f 779 759 791 
f 756 779 791 
f 787 756 791 
f 768 787 791 
f 770 753 792 
f 753 779 792 
f 779 756 792 
f 751 765 793 
f 765 764 793 
f 780 751 793 
f 764 780 793 
f 763 748 794 
f 781 763 794 
f 748 784 794 
f 784 781 794 
f 756 767 795 
f 752 770 795 
f 786 752 795 
f 767 786 795 
f 770 792 795 
f 792 756 795 
f 773 746 796 
f 757 774 796 
f 774 773 796 
f 746 777 796 
f 777 757 796 
f 752 762 797 
f 785 752 797 
f 772 790 797 
f 790 785 797 
f 762 771 798 
f 771 769 798 
f 769 772 798 
f 797 762 798 
f 772 797 798 
f 766 749 799 
f 749 778 799 
o convex_27
v 0.000630 -0.058060 0.047888
v -0.000683 -0.058718 0.029473
v -0.003972 -0.060692 0.032105
v 0.029570 -0.065295 0.041310
v -0.007916 -0.065295 0.049201
v 0.019703 -0.058060 0.029473
v 0.002602 -0.064637 0.035396
v 0.028249 -0.064637 0.045914
v -0.010546 -0.058060 0.043284
v 0.017072 -0.058060 0.043284
v 0.012470 -0.061349 0.029473
v -0.010546 -0.063979 0.044599
v -0.006603 -0.063979 0.049862
v 0.021016 -0.065295 0.038023
v -0.005285 -0.058060 0.032764
v 0.005237 -0.058060 0.047888
v 0.028249 -0.063320 0.043284
v -0.009233 -0.058060 0.046571
v 0.001948 -0.061349 0.030131
v 0.028249 -0.065295 0.045914
v -0.011209 -0.061349 0.042623
v -0.009233 -0.065295 0.046571
v 0.019703 -0.058718 0.042623
v 0.013128 -0.058060 0.045914
f 807 822 823 
f 800 805 808 
f 805 800 809 
f 801 805 810 
f 805 803 810 
f 802 806 811 
f 803 804 813 
f 810 803 813 
f 806 810 813 
f 801 802 814 
f 805 801 814 
f 808 805 814 
f 809 800 815 
f 800 812 815 
f 812 807 815 
f 803 805 816 
f 807 803 816 
f 800 808 817 
f 811 804 817 
f 812 800 817 
f 804 812 817 
f 802 801 818 
f 806 802 818 
f 801 810 818 
f 810 806 818 
f 804 803 819 
f 803 807 819 
f 807 812 819 
f 812 804 819 
f 802 811 820 
f 814 802 820 
f 808 814 820 
f 817 808 820 
f 811 817 820 
f 811 806 821 
f 804 811 821 
f 813 804 821 
f 806 813 821 
f 805 809 822 
f 816 805 822 
f 807 816 822 
f 809 815 823 
f 815 807 823 
f 822 809 823 
o convex_28
v 0.017731 0.040599 -0.002098
v 0.032859 0.041257 0.003823
v 0.027596 0.043887 0.013687
v 0.017731 0.040599 0.018949
v 0.017731 0.043887 0.005795
v 0.018391 0.043887 0.020265
v 0.032859 0.040599 0.000533
v 0.026938 0.043887 0.006454
v 0.023651 0.042572 0.019606
v 0.031542 0.040599 0.006454
v 0.018391 0.041257 -0.002098
v 0.031542 0.041257 -0.000124
f 824 834 835 
f 824 827 828 
f 826 828 829 
f 828 827 829 
f 827 824 830 
f 826 825 831 
f 828 826 831 
f 826 829 832 
f 829 827 832 
f 825 826 833 
f 830 825 833 
f 827 830 833 
f 826 832 833 
f 832 827 833 
f 824 828 834 
f 828 831 834 
f 834 831 835 
f 825 830 835 
f 830 824 835 
f 831 825 835 
o convex_29
v 0.030887 0.016924 -0.017884
v 0.045355 0.034678 -0.027092
v 0.046013 0.034019 -0.026434
v 0.024966 0.028758 -0.016568
v 0.044697 0.026785 -0.016568
v 0.036145 0.022842 -0.027749
v 0.046013 0.024158 -0.027092
v 0.042723 0.020211 -0.016568
v 0.034176 0.028758 -0.027749
v 0.022335 0.022842 -0.016568
v 0.040092 0.030731 -0.016568
v 0.047986 0.025472 -0.021174
v 0.043379 0.034678 -0.027749
v 0.040747 0.020211 -0.023144
v 0.026942 0.017581 -0.016568
v 0.035485 0.031389 -0.017226
v 0.047328 0.026128 -0.027749
v 0.022335 0.022842 -0.017226
v 0.037461 0.017581 -0.016568
v 0.047328 0.033362 -0.027749
v 0.022993 0.026785 -0.017226
v 0.044697 0.021526 -0.021831
f 843 854 857 
f 840 839 843 
f 843 839 845 
f 838 837 846 
f 839 840 846 
f 840 838 846 
f 840 843 847 
f 844 839 848 
f 841 844 848 
f 836 841 849 
f 841 842 849 
f 841 836 850 
f 843 845 850 
f 846 837 851 
f 839 846 851 
f 837 848 851 
f 848 839 851 
f 842 841 852 
f 847 842 852 
f 841 848 852 
f 844 841 853 
f 841 850 853 
f 850 845 853 
f 836 849 854 
f 850 836 854 
f 843 850 854 
f 837 838 855 
f 838 840 855 
f 840 847 855 
f 848 837 855 
f 847 852 855 
f 852 848 855 
f 839 844 856 
f 845 839 856 
f 844 853 856 
f 853 845 856 
f 842 847 857 
f 847 843 857 
f 849 842 857 
f 854 849 857 
o convex_30
v 0.021022 0.024818 -0.016568
v 0.045353 0.025475 -0.006700
v 0.045353 0.024158 -0.006700
v 0.017734 0.017582 0.020265
v 0.017734 0.040599 0.018289
v 0.017734 0.012974 -0.011964
v 0.017734 0.040599 -0.004068
v 0.040750 0.034677 0.008421
v 0.040750 0.030072 -0.016568
v 0.026941 0.012974 0.011056
v 0.038119 0.017582 -0.016568
v 0.034171 0.040599 -0.000780
v 0.036802 0.025475 0.013685
v 0.038776 0.014948 -0.005384
v 0.017734 0.012974 0.018289
v 0.030229 0.029412 0.017633
v 0.017734 0.035334 -0.010648
v 0.034171 0.012974 -0.009988
v 0.040093 0.036648 -0.005384
v 0.034171 0.019553 0.013029
v 0.044696 0.024815 -0.016568
v 0.021022 0.040599 0.018289
v 0.042722 0.026132 0.005133
v 0.036802 0.031386 -0.016568
v 0.024967 0.022184 0.019605
v 0.027598 0.016268 -0.016568
v 0.034171 0.038622 -0.006700
v 0.043381 0.032706 0.004477
v 0.037462 0.033360 0.013029
v 0.036802 0.038622 0.006449
v 0.041407 0.017582 -0.011301
v 0.041407 0.020213 0.000532
v 0.044038 0.030072 -0.009988
v 0.024967 0.029412 -0.016568
v 0.030229 0.020210 0.016973
v 0.017734 0.025475 -0.014592
v 0.021682 0.026132 0.020265
v 0.040750 0.029415 0.010393
v 0.028912 0.012974 -0.012620
v 0.017734 0.038622 -0.007360
v 0.044038 0.020867 -0.006700
v 0.022996 0.012974 0.015657
v 0.032857 0.040599 0.006449
v 0.044038 0.022184 -0.016568
v 0.035488 0.037968 0.009740
v 0.038776 0.037965 0.002501
v 0.017734 0.028098 0.020265
v 0.034829 0.012974 -0.005384
f 875 871 905 
f 861 862 863 
f 863 862 864 
f 858 866 868 
f 864 862 869 
f 861 863 872 
f 863 867 872 
f 863 864 874 
f 867 863 875 
f 867 871 877 
f 859 860 878 
f 868 866 878 
f 869 862 879 
f 870 877 880 
f 866 858 881 
f 863 858 883 
f 858 868 883 
f 864 869 884 
f 876 866 884 
f 869 876 884 
f 866 881 884 
f 860 859 885 
f 880 860 885 
f 873 870 886 
f 879 873 886 
f 875 868 888 
f 871 875 888 
f 877 871 889 
f 880 877 889 
f 866 876 890 
f 859 878 890 
f 878 866 890 
f 885 859 890 
f 876 885 890 
f 858 874 891 
f 881 858 891 
f 874 881 891 
f 861 872 892 
f 870 873 892 
f 877 870 892 
f 882 861 892 
f 873 882 892 
f 858 863 893 
f 874 858 893 
f 863 874 893 
f 873 879 894 
f 861 882 894 
f 882 873 894 
f 870 880 895 
f 885 865 895 
f 880 885 895 
f 865 886 895 
f 886 870 895 
f 875 863 896 
f 868 875 896 
f 863 883 896 
f 883 868 896 
f 874 864 897 
f 881 874 897 
f 864 884 897 
f 884 881 897 
f 860 880 898 
f 871 888 898 
f 889 871 898 
f 880 889 898 
f 872 867 899 
f 867 877 899 
f 892 872 899 
f 877 892 899 
f 869 879 900 
f 887 869 900 
f 878 860 901 
f 868 878 901 
f 888 868 901 
f 860 898 901 
f 898 888 901 
f 886 865 902 
f 879 886 902 
f 865 887 902 
f 900 879 902 
f 887 900 902 
f 876 869 903 
f 865 885 903 
f 885 876 903 
f 869 887 903 
f 887 865 903 
f 862 861 904 
f 879 862 904 
f 861 894 904 
f 894 879 904 
f 871 867 905 
f 867 875 905 
