o convex_0
v 0.002642 -0.043936 -0.034863
v 0.002050 0.036682 -0.020041
v 0.002050 0.036682 -0.034863
v -0.041218 -0.007178 -0.020041
v 0.036439 -0.019631 -0.020041
v -0.038258 0.012377 -0.034863
v 0.038215 0.007042 -0.034863
v -0.009205 -0.043336 -0.020041
v -0.033514 -0.027924 -0.034863
v 0.031695 0.020670 -0.020041
v -0.025211 0.028980 -0.020041
v 0.026952 -0.033267 -0.034863
v 0.015097 -0.040969 -0.020041
v 0.023392 0.028980 -0.034863
v -0.016916 0.033715 -0.034863
v -0.030555 -0.031483 -0.020041
v -0.016916 -0.040969 -0.034863
v 0.038215 -0.014288 -0.034863
v 0.038807 0.004667 -0.020041
v -0.040626 -0.011921 -0.034863
v -0.038258 0.012377 -0.020041
v 0.015097 0.033715 -0.020041
v -0.030555 0.024237 -0.034863
v -0.038258 -0.019631 -0.020041
v -0.009205 0.036082 -0.020041
v 0.026952 -0.033267 -0.020041
v -0.041218 -0.000076 -0.034863
v 0.018649 -0.039193 -0.034863
v 0.034655 0.015936 -0.034863
v 0.039399 -0.006586 -0.022415
v -0.023435 -0.037418 -0.020041
v 0.032879 -0.026149 -0.034863
v 0.002642 -0.043936 -0.020041
v 0.009754 0.035490 -0.034863
v -0.025211 -0.036234 -0.034863
v -0.034698 0.018895 -0.020041
v 0.039399 -0.000668 -0.034863
v 0.023392 0.028980 -0.020041
v -0.040626 0.004667 -0.022415
v -0.004461 -0.043936 -0.034863
v 0.036439 0.012377 -0.020041
v -0.009205 0.036082 -0.034863
v 0.028728 0.024237 -0.034863
v 0.009754 -0.042744 -0.034863
v -0.038258 -0.019631 -0.034863
v -0.016916 0.033715 -0.020041
v 0.031695 -0.027924 -0.020041
v -0.023435 0.030156 -0.034863
v 0.038807 -0.011921 -0.020041
v -0.016916 -0.040969 -0.020041
v 0.018649 0.031939 -0.034863
v 0.023392 -0.036234 -0.020041
v 0.007386 0.036082 -0.020041
v -0.034698 -0.026149 -0.020041
v -0.030555 0.024237 -0.020041
v -0.033514 0.020678 -0.034863
v 0.007386 -0.043336 -0.020041
v -0.041218 -0.000076 -0.020041
v 0.036439 -0.019631 -0.034863
v 0.039399 -0.006586 -0.034863
v -0.040034 -0.014288 -0.020041
v -0.011580 -0.042744 -0.034863
v -0.003869 0.036682 -0.020041
v -0.040034 0.007042 -0.034863
f 27 39 64 
f 2 4 5 
f 3 1 6 
f 1 3 7 
f 5 4 8 
f 6 1 9 
f 2 5 10 
f 4 2 11 
f 1 7 12 
f 5 8 13 
f 7 3 14 
f 3 6 15 
f 8 4 16 
f 9 1 17 
f 12 7 18 
f 10 5 19 
f 6 9 20 
f 4 11 21 
f 2 10 22 
f 15 6 23 
f 16 4 24 
f 11 2 25 
f 5 13 26 
f 20 4 27 
f 6 20 27 
f 1 12 28 
f 7 14 29 
f 8 16 31 
f 12 18 32 
f 13 8 33 
f 14 3 34 
f 16 9 35 
f 9 17 35 
f 31 16 35 
f 17 31 35 
f 6 21 36 
f 21 11 36 
f 18 7 37 
f 7 19 37 
f 19 30 37 
f 22 10 38 
f 17 1 40 
f 1 33 40 
f 33 8 40 
f 10 19 41 
f 19 7 41 
f 7 29 41 
f 29 10 41 
f 3 15 42 
f 15 25 42 
f 29 14 43 
f 10 29 43 
f 38 10 43 
f 14 38 43 
f 1 28 44 
f 28 13 44 
f 20 9 45 
f 11 25 46 
f 25 15 46 
f 5 26 47 
f 26 12 47 
f 32 5 47 
f 12 32 47 
f 15 23 48 
f 23 11 48 
f 11 46 48 
f 46 15 48 
f 5 18 49 
f 19 5 49 
f 30 19 49 
f 8 31 50 
f 31 17 50 
f 14 34 51 
f 34 22 51 
f 38 14 51 
f 22 38 51 
f 12 26 52 
f 26 13 52 
f 28 12 52 
f 13 28 52 
f 3 2 53 
f 2 22 53 
f 34 3 53 
f 22 34 53 
f 9 16 54 
f 16 24 54 
f 45 9 54 
f 24 45 54 
f 11 23 55 
f 36 11 55 
f 36 55 56 
f 23 6 56 
f 6 36 56 
f 55 23 56 
f 33 1 57 
f 13 33 57 
f 1 44 57 
f 44 13 57 
f 4 21 58 
f 27 4 58 
f 21 39 58 
f 39 27 58 
f 18 5 59 
f 5 32 59 
f 32 18 59 
f 18 37 60 
f 37 30 60 
f 49 18 60 
f 30 49 60 
f 4 20 61 
f 24 4 61 
f 20 45 61 
f 45 24 61 
f 17 40 62 
f 40 8 62 
f 8 50 62 
f 50 17 62 
f 2 3 63 
f 25 2 63 
f 3 42 63 
f 42 25 63 
f 21 6 64 
f 6 27 64 
f 39 21 64 
o convex_1
v 0.013911 -0.022600 -0.017668
v -0.009208 0.015346 -0.018855
v -0.009208 0.015346 -0.020041
v -0.022247 -0.012515 -0.020041
v -0.022842 0.001112 -0.012333
v 0.017466 -0.000072 -0.012333
v 0.022211 -0.000667 -0.020041
v 0.005607 -0.019041 -0.012333
v -0.014543 0.013563 -0.012333
v -0.024622 0.008229 -0.020041
v -0.018692 -0.015483 -0.014705
v 0.021616 -0.018443 -0.020041
v 0.020431 -0.019632 -0.014705
v 0.014501 0.007040 -0.018262
v -0.018098 -0.016074 -0.020041
v -0.006248 0.012378 -0.012333
v 0.019841 -0.010736 -0.012333
v -0.017507 -0.010736 -0.012333
v -0.025812 -0.003036 -0.019447
v 0.016876 -0.022002 -0.020041
v -0.017507 0.014748 -0.020041
v -0.019877 0.010004 -0.012333
v 0.022805 -0.012515 -0.017668
v 0.018061 0.005261 -0.020041
v 0.012126 0.004671 -0.012333
v 0.012726 -0.019041 -0.012333
v -0.021657 -0.005402 -0.012333
v 0.020431 -0.004812 -0.013520
v 0.018061 -0.022002 -0.015299
v -0.025812 0.005856 -0.019447
v -0.022247 -0.011925 -0.017076
v -0.020472 0.012972 -0.018855
v -0.009798 0.014748 -0.015299
v 0.010941 -0.022005 -0.020041
v 0.019246 0.003482 -0.018262
v 0.022805 -0.002446 -0.018855
v -0.018692 -0.016074 -0.017668
v 0.022805 -0.014889 -0.020041
v -0.015133 0.015346 -0.018262
v 0.015096 -0.022600 -0.016483
v -0.021657 0.007040 -0.012333
v -0.017507 -0.016074 -0.015299
v -0.025812 -0.003036 -0.020041
v 0.022211 -0.017262 -0.017076
f 102 87 108 
f 68 67 71 
f 70 69 72 
f 69 70 73 
f 67 68 74 
f 68 71 76 
f 67 66 78 
f 68 76 79 
f 73 70 80 
f 70 72 81 
f 72 69 82 
f 75 72 82 
f 79 76 84 
f 67 74 85 
f 69 73 86 
f 71 67 88 
f 67 78 88 
f 80 70 89 
f 78 80 89 
f 81 72 90 
f 77 81 90 
f 82 69 91 
f 75 82 91 
f 69 83 91 
f 70 81 92 
f 81 87 92 
f 76 77 93 
f 84 76 93 
f 90 72 93 
f 77 90 93 
f 83 69 94 
f 86 74 94 
f 83 68 95 
f 75 91 95 
f 91 83 95 
f 85 74 96 
f 74 86 96 
f 86 73 96 
f 78 66 97 
f 73 80 97 
f 80 78 97 
f 84 65 98 
f 79 84 98 
f 71 88 99 
f 88 78 99 
f 78 89 99 
f 89 70 99 
f 70 92 100 
f 92 87 100 
f 71 99 100 
f 99 70 100 
f 68 79 101 
f 95 68 101 
f 75 95 101 
f 98 65 101 
f 79 98 101 
f 76 71 102 
f 71 100 102 
f 100 87 102 
f 66 67 103 
f 67 85 103 
f 96 73 103 
f 85 96 103 
f 97 66 103 
f 73 97 103 
f 65 84 104 
f 93 72 104 
f 84 93 104 
f 69 86 105 
f 94 69 105 
f 86 94 105 
f 72 75 106 
f 101 65 106 
f 75 101 106 
f 65 104 106 
f 104 72 106 
f 74 68 107 
f 68 83 107 
f 94 74 107 
f 83 94 107 
f 77 76 108 
f 81 77 108 
f 87 81 108 
f 76 102 108 
o convex_2
v 0.008572 -0.019633 -0.005813
v -0.008613 0.012974 -0.011739
v -0.008613 0.012974 -0.012333
v -0.018103 -0.011928 -0.005813
v 0.007979 0.008229 -0.005219
v 0.015092 -0.017261 -0.012333
v -0.016912 -0.011330 -0.012333
v -0.018692 0.005856 -0.005219
v 0.018655 -0.003036 -0.012333
v 0.016872 -0.010741 -0.005219
v -0.021657 0.005856 -0.012333
v -0.008024 -0.018447 -0.005219
v 0.005610 -0.019042 -0.012333
v 0.011537 0.004673 -0.012333
v -0.015137 0.009412 -0.005813
v 0.013910 0.002892 -0.005219
v -0.022254 -0.001849 -0.011739
v -0.016912 0.012379 -0.011739
v -0.020471 -0.005405 -0.005219
v 0.016872 -0.016078 -0.007591
v 0.019248 -0.011924 -0.012333
v 0.001458 0.010007 -0.005219
v 0.010944 -0.020228 -0.009961
v 0.012720 -0.017856 -0.005219
v 0.018062 -0.007183 -0.006998
v -0.013358 0.012974 -0.010555
v -0.020471 0.001703 -0.005219
v -0.021657 -0.004807 -0.012333
v -0.009803 -0.017856 -0.005813
v -0.015137 -0.014888 -0.005219
v 0.012131 0.005265 -0.005813
v 0.015689 -0.000663 -0.005219
v 0.016872 -0.000072 -0.012333
v -0.006240 0.010007 -0.005219
v -0.019882 0.009412 -0.012333
v 0.010347 -0.020228 -0.006998
v 0.008572 -0.020228 -0.010555
v 0.016872 -0.015483 -0.006405
v 0.019248 -0.004813 -0.011740
v -0.018692 -0.010143 -0.011739
f 115 138 148 
f 111 110 113 
f 111 114 115 
f 114 111 117 
f 113 116 118 
f 111 115 119 
f 118 116 120 
f 115 114 121 
f 111 113 122 
f 117 111 122 
f 113 118 124 
f 116 123 126 
f 120 116 127 
f 114 117 129 
f 128 114 129 
f 113 110 130 
f 116 113 130 
f 114 128 131 
f 120 109 132 
f 118 120 132 
f 110 111 134 
f 111 126 134 
f 126 123 134 
f 130 110 134 
f 116 119 135 
f 119 125 135 
f 127 116 135 
f 125 127 135 
f 119 115 136 
f 125 119 136 
f 112 127 136 
f 127 125 136 
f 115 121 137 
f 121 120 137 
f 127 112 138 
f 120 127 138 
f 115 137 138 
f 137 120 138 
f 122 113 139 
f 113 124 139 
f 117 124 140 
f 124 118 140 
f 118 133 140 
f 117 122 141 
f 124 117 141 
f 122 139 141 
f 139 124 141 
f 123 116 142 
f 116 130 142 
f 134 123 142 
f 130 134 142 
f 111 119 143 
f 119 116 143 
f 126 111 143 
f 116 126 143 
f 109 120 144 
f 131 128 144 
f 128 132 144 
f 132 109 144 
f 121 114 145 
f 120 121 145 
f 114 131 145 
f 144 120 145 
f 131 144 145 
f 128 129 146 
f 132 128 146 
f 118 132 146 
f 133 118 146 
f 129 133 146 
f 129 117 147 
f 133 129 147 
f 117 140 147 
f 140 133 147 
f 112 136 148 
f 136 115 148 
f 138 112 148 
o convex_3
v 0.024580 0.018304 0.020277
v -0.026998 -0.001253 0.020277
v -0.025807 -0.003626 0.020277
v -0.008614 -0.021411 0.029168
v -0.013954 0.029570 0.029168
v 0.027549 0.012380 0.029168
v 0.005017 -0.019627 0.020277
v -0.013361 0.030759 0.020277
v -0.024029 -0.004215 0.029168
v 0.015690 0.026602 0.029168
v 0.011536 -0.016664 0.029168
v -0.012768 -0.022005 0.020277
v -0.022844 0.021272 0.026797
v 0.017463 -0.004810 0.020277
v 0.021024 0.025418 0.020277
v -0.021066 -0.013702 0.027389
v -0.022251 0.023051 0.020277
v 0.001461 -0.023189 0.026204
v 0.026951 0.007634 0.028575
v -0.001497 0.030164 0.026797
v 0.015690 0.027791 0.020870
v -0.004466 -0.024378 0.020277
v 0.010351 -0.018443 0.025611
v -0.024029 0.007634 0.029168
v 0.022802 0.022456 0.026797
v -0.018695 0.027791 0.023241
v -0.020473 0.023645 0.029168
v -0.026998 0.002304 0.020870
v -0.013361 0.031354 0.023834
v -0.017510 -0.017854 0.021463
v 0.019839 -0.000069 0.020277
v -0.022844 -0.009551 0.029168
v 0.000276 -0.022000 0.029168
v -0.017510 -0.017854 0.026204
v 0.007387 -0.020221 0.023241
v -0.025214 0.007045 0.027389
v -0.006244 -0.023189 0.026797
v -0.005058 0.030164 0.028575
v 0.026358 0.015931 0.029168
v -0.024029 0.018310 0.023834
v 0.012721 -0.015481 0.026797
v 0.023395 0.022456 0.020277
v -0.011583 0.031354 0.022056
v 0.007387 -0.020816 0.026797
v 0.015690 0.027791 0.023834
v -0.019880 -0.013702 0.029168
v -0.022844 0.019494 0.028575
v 0.026358 0.006450 0.029168
v 0.024580 0.017121 0.020277
v -0.015139 -0.020227 0.023834
v 0.006795 0.028386 0.029168
v -0.023436 0.020088 0.020277
v -0.022251 0.023645 0.023834
v -0.013954 0.030164 0.028575
v -0.019880 -0.015481 0.024427
v 0.005017 -0.022000 0.024427
v -0.018695 0.026608 0.027982
v 0.009758 -0.017254 0.022648
f 171 183 206 
f 151 150 149 
f 153 152 154 
f 151 149 155 
f 149 150 156 
f 152 153 157 
f 153 154 158 
f 154 152 159 
f 151 155 160 
f 155 149 162 
f 149 156 163 
f 150 151 164 
f 156 150 165 
f 163 156 169 
f 160 155 170 
f 157 153 172 
f 163 158 173 
f 156 165 174 
f 172 153 175 
f 156 174 177 
f 151 160 178 
f 162 149 179 
f 167 162 179 
f 157 150 180 
f 152 157 180 
f 150 164 180 
f 159 152 181 
f 170 155 183 
f 150 157 184 
f 157 172 184 
f 176 150 184 
f 160 170 185 
f 170 166 185 
f 181 152 185 
f 166 181 185 
f 168 177 186 
f 158 154 187 
f 173 158 187 
f 176 184 188 
f 162 167 189 
f 171 162 189 
f 159 171 189 
f 154 149 190 
f 149 163 190 
f 163 173 190 
f 187 154 190 
f 173 187 190 
f 169 156 191 
f 168 169 191 
f 177 168 191 
f 156 177 191 
f 171 159 192 
f 159 181 192 
f 181 166 192 
f 183 171 192 
f 158 163 193 
f 163 169 193 
f 169 168 193 
f 152 180 194 
f 180 164 194 
f 182 152 194 
f 164 182 194 
f 172 175 195 
f 175 161 195 
f 184 172 195 
f 161 188 195 
f 188 184 195 
f 154 159 196 
f 167 154 196 
f 159 189 196 
f 189 167 196 
f 149 154 197 
f 154 167 197 
f 179 149 197 
f 167 179 197 
f 178 160 198 
f 152 182 198 
f 182 178 198 
f 185 152 198 
f 160 185 198 
f 153 158 199 
f 186 153 199 
f 168 186 199 
f 158 193 199 
f 193 168 199 
f 165 150 200 
f 150 176 200 
f 176 188 200 
f 200 188 201 
f 174 165 201 
f 161 175 201 
f 188 161 201 
f 165 200 201 
f 177 174 202 
f 153 186 202 
f 186 177 202 
f 164 151 203 
f 151 178 203 
f 182 164 203 
f 178 182 203 
f 166 170 204 
f 170 183 204 
f 192 166 204 
f 183 192 204 
f 175 153 205 
f 174 201 205 
f 201 175 205 
f 153 202 205 
f 202 174 205 
f 155 162 206 
f 162 171 206 
f 183 155 206 
o convex_4
v 0.015688 -0.003621 0.029169
v -0.024029 0.006446 0.029169
v -0.024029 0.006446 0.029764
v 0.015688 0.026011 0.029764
v 0.000865 -0.017256 0.038656
v -0.015138 0.020681 0.036876
v 0.016280 0.010599 0.038656
v -0.009210 -0.020820 0.029169
v -0.015730 -0.005402 0.038656
v -0.013950 0.029575 0.029169
v 0.016280 -0.008961 0.038656
v 0.007980 -0.019038 0.029169
v 0.003241 0.017711 0.038656
v -0.022249 -0.010144 0.029764
v -0.018102 0.010594 0.038656
v -0.009802 -0.016667 0.037470
v -0.021657 0.020681 0.029764
v -0.013950 0.027194 0.033320
v 0.015096 0.023047 0.033912
v 0.016280 0.023646 0.029169
v 0.003241 -0.019038 0.036284
v 0.013908 -0.013109 0.029169
v 0.004425 0.028382 0.030355
v -0.023437 -0.004804 0.030355
v 0.000865 -0.021409 0.029764
v -0.006247 -0.018449 0.037470
v -0.016914 -0.008961 0.036876
v 0.015096 0.019488 0.036284
v -0.009210 -0.015479 0.038656
v 0.016280 -0.000062 0.029169
v -0.019286 -0.013104 0.029169
v -0.005059 0.017711 0.038656
v -0.014546 0.023047 0.036284
v -0.002691 0.029575 0.029169
v -0.019286 0.022453 0.032134
v 0.009164 -0.016667 0.034505
v -0.019286 0.024829 0.029169
v -0.005651 -0.021414 0.030355
v -0.011582 -0.016667 0.035691
v -0.012170 0.027194 0.033320
v -0.018102 0.008223 0.038656
v 0.010944 -0.016667 0.029764
v -0.015138 -0.012520 0.036284
v -0.023437 -0.006590 0.029169
v -0.015138 -0.016667 0.029764
v 0.016280 0.021270 0.032727
f 225 234 252 
f 208 207 214 
f 211 213 215 
f 207 208 216 
f 213 211 217 
f 214 207 218 
f 215 213 219 
f 215 219 221 
f 208 209 223 
f 209 221 223 
f 207 216 226 
f 213 217 226 
f 217 211 227 
f 207 217 228 
f 218 207 228 
f 225 210 229 
f 214 218 231 
f 218 227 231 
f 227 211 232 
f 230 220 233 
f 219 213 234 
f 225 219 234 
f 211 215 235 
f 232 211 235 
f 222 232 235 
f 215 233 235 
f 217 207 236 
f 207 226 236 
f 226 217 236 
f 208 214 237 
f 212 221 238 
f 221 219 238 
f 212 238 239 
f 238 219 239 
f 216 224 240 
f 210 226 240 
f 226 216 240 
f 229 210 240 
f 221 212 241 
f 223 221 241 
f 212 239 241 
f 239 224 241 
f 217 227 242 
f 227 218 242 
f 216 208 243 
f 208 223 243 
f 224 216 243 
f 223 241 243 
f 241 224 243 
f 214 231 244 
f 231 227 244 
f 227 232 244 
f 232 214 244 
f 232 222 245 
f 214 232 245 
f 219 225 246 
f 225 229 246 
f 239 219 246 
f 224 239 246 
f 240 224 246 
f 229 240 246 
f 215 221 247 
f 221 209 247 
f 209 230 247 
f 233 215 247 
f 230 233 247 
f 228 217 248 
f 218 228 248 
f 217 242 248 
f 242 218 248 
f 233 220 249 
f 222 235 249 
f 235 233 249 
f 245 222 249 
f 220 245 249 
f 209 208 250 
f 230 209 250 
f 220 230 250 
f 208 237 250 
f 237 220 250 
f 237 214 251 
f 220 237 251 
f 214 245 251 
f 245 220 251 
f 210 225 252 
f 226 210 252 
f 213 226 252 
f 234 213 252 
o convex_5
v 0.012726 -0.010740 0.046366
v -0.018104 0.008228 0.038658
v -0.018104 0.008228 0.039252
v 0.009760 0.018309 0.041030
v -0.000914 0.004671 0.062369
v -0.005653 -0.016671 0.038658
v -0.009208 -0.014294 0.051105
v -0.006247 0.019493 0.044588
v 0.012726 -0.007775 0.038658
v 0.007982 0.008821 0.058811
v -0.016324 0.005859 0.049330
v 0.005019 -0.005994 0.058811
v 0.012726 0.012378 0.038658
v 0.004424 -0.016671 0.049330
v -0.015138 -0.007183 0.050513
v -0.000320 0.013567 0.057033
v 0.012726 -0.001249 0.054069
v -0.014543 -0.008960 0.040438
v -0.005653 0.017716 0.038658
v -0.005653 -0.001845 0.059997
v 0.009760 -0.013113 0.038658
v -0.014543 0.012378 0.046958
v -0.006839 0.006451 0.058811
v 0.003833 0.020682 0.042216
v 0.012726 0.014751 0.042216
v 0.005019 -0.000656 0.061775
v 0.007388 0.013567 0.054661
v -0.000320 -0.006587 0.059403
v -0.004466 -0.016671 0.050513
v -0.016324 -0.003029 0.050513
v -0.016324 0.012378 0.038658
v -0.003875 0.012378 0.057033
v 0.010946 0.007636 0.055255
v 0.003238 0.010009 0.060589
v -0.015729 -0.004806 0.038658
v 0.009760 -0.013702 0.048144
v 0.000866 -0.016671 0.038658
v -0.004466 0.020682 0.043402
v -0.009802 0.017716 0.045180
v 0.003833 0.014751 0.055255
v 0.003238 0.020682 0.040438
v 0.007388 0.005859 0.060589
v -0.013952 -0.009556 0.051105
v -0.000320 -0.000656 0.062369
v -0.017510 0.011194 0.041624
v 0.012726 -0.005994 0.051697
v -0.001506 0.008821 0.061183
v 0.003833 0.005859 0.062369
v -0.008616 -0.014886 0.038658
v -0.003280 -0.004806 0.059997
v 0.005610 0.017124 0.038658
v -0.006839 0.003486 0.059403
v 0.007982 0.000528 0.059997
v -0.016915 0.002302 0.049330
v -0.004466 0.020682 0.042216
v 0.007982 -0.003622 0.058219
v 0.012726 0.004079 0.052291
v -0.000320 -0.016671 0.050513
v -0.003280 0.004079 0.061775
v -0.005653 0.009413 0.058219
v 0.009760 0.011194 0.054069
v 0.005610 0.010009 0.059997
v 0.001461 -0.006587 0.059403
v -0.015138 -0.008367 0.041624
f 301 295 316 
f 258 254 261 
f 261 254 265 
f 253 261 265 
f 253 265 269 
f 265 254 271 
f 261 253 273 
f 258 261 273 
f 265 256 277 
f 269 265 277 
f 256 276 279 
f 277 256 279 
f 259 258 281 
f 258 266 281 
f 280 259 281 
f 255 254 282 
f 271 254 283 
f 268 260 284 
f 254 258 287 
f 282 254 287 
f 264 266 288 
f 273 253 288 
f 266 273 288 
f 266 258 289 
f 258 273 289 
f 273 266 289 
f 260 268 290 
f 284 260 291 
f 274 284 291 
f 260 290 291 
f 279 276 292 
f 268 286 292 
f 290 268 292 
f 276 290 292 
f 276 256 293 
f 290 276 293 
f 285 262 294 
f 269 285 294 
f 282 267 295 
f 272 282 295 
f 254 255 297 
f 263 274 297 
f 283 254 297 
f 291 283 297 
f 274 291 297 
f 253 269 298 
f 288 253 298 
f 268 284 299 
f 286 268 299 
f 286 299 300 
f 278 294 300 
f 257 296 300 
f 296 278 300 
f 299 257 300 
f 258 259 301 
f 287 258 301 
f 270 287 301 
f 259 295 301 
f 259 280 302 
f 295 259 302 
f 272 295 302 
f 296 272 302 
f 280 296 302 
f 256 265 303 
f 265 271 303 
f 293 256 303 
f 271 293 303 
f 275 263 304 
f 282 272 304 
f 294 278 305 
f 269 294 305 
f 255 282 306 
f 297 255 306 
f 263 297 306 
f 304 263 306 
f 282 304 306 
f 271 283 307 
f 283 291 307 
f 291 290 307 
f 293 271 307 
f 290 293 307 
f 278 264 308 
f 264 288 308 
f 298 269 308 
f 288 298 308 
f 305 278 308 
f 269 305 308 
f 269 277 309 
f 285 269 309 
f 277 285 309 
f 281 266 310 
f 280 281 310 
f 296 257 311 
f 272 296 311 
f 257 299 311 
f 299 275 311 
f 304 272 311 
f 275 304 311 
f 274 263 312 
f 263 275 312 
f 284 274 312 
f 275 299 312 
f 299 284 312 
f 279 262 313 
f 277 279 313 
f 262 285 313 
f 285 277 313 
f 262 279 314 
f 279 292 314 
f 292 286 314 
f 294 262 314 
f 286 300 314 
f 300 294 314 
f 266 264 315 
f 264 278 315 
f 278 296 315 
f 296 280 315 
f 310 266 315 
f 280 310 315 
f 267 282 316 
f 287 270 316 
f 282 287 316 
f 295 267 316 
f 270 301 316 
o convex_6
v -0.009209 -0.018448 -0.005219
v 0.021615 0.009417 0.020276
v 0.021615 0.007637 0.020276
v -0.029368 0.002299 0.019682
v -0.005647 -0.024970 0.020276
v -0.010990 0.009417 -0.005219
v 0.015688 -0.013701 -0.005219
v 0.011538 0.009417 -0.005219
v -0.027587 -0.004223 0.006640
v -0.021655 0.009417 0.020276
v 0.024583 0.002299 0.014344
v 0.000868 -0.025562 0.014938
v -0.019879 0.002891 -0.005219
v -0.009803 -0.024966 0.016121
v -0.009209 -0.022598 -0.000475
v 0.006200 -0.018448 0.020276
v -0.025811 0.007042 0.009008
v -0.019879 -0.013109 -0.001064
v 0.009163 -0.019039 -0.005219
v 0.021026 0.004079 0.003678
v -0.015734 -0.019039 0.020276
v 0.009757 -0.017856 0.014344
v -0.029961 -0.002447 0.016121
v -0.019879 -0.008959 -0.005219
v 0.018063 -0.004219 0.020276
v -0.015734 -0.018448 -0.000475
v -0.018104 0.009417 -0.001064
v -0.029961 0.004075 0.013752
v -0.000913 -0.026157 0.011971
v 0.018651 0.009417 0.003087
v 0.016876 -0.006591 -0.005219
v 0.009757 -0.019635 0.006049
v 0.022802 -0.001260 0.013752
v 0.023989 0.005858 0.010788
v -0.018697 -0.016073 0.007237
v 0.022802 0.000520 0.006640
v -0.028180 -0.001260 0.020276
v -0.026993 -0.001260 0.004863
v 0.018063 0.004079 -0.001064
v 0.012132 -0.017856 -0.005219
v -0.022842 0.009417 0.011382
v -0.017510 -0.013109 -0.005219
v -0.026993 -0.005999 0.008414
v 0.015095 -0.014889 -0.004625
v -0.017510 0.007042 -0.005219
v -0.028774 0.005262 0.017309
v -0.030555 -0.000072 0.013159
v -0.012172 -0.020815 -0.001658
v -0.029368 -0.002447 0.019088
v 0.022802 0.001112 0.017900
v -0.008022 -0.025562 0.019088
v -0.021067 -0.002447 -0.004625
v -0.025217 0.005858 0.006049
v 0.006794 -0.022006 0.005457
v 0.023989 0.001112 0.010194
v 0.015688 -0.000072 -0.005219
v 0.015688 0.009417 -0.001658
v -0.002689 -0.026157 0.011971
v -0.026399 0.001707 0.004863
v 0.022208 0.008226 0.010788
v 0.021615 0.001707 0.003678
v 0.016876 -0.009554 -0.005219
v -0.024623 -0.003631 0.000713
v -0.006834 -0.019039 -0.005219
f 335 331 380 
f 319 318 321 
f 317 322 323 
f 323 322 324 
f 322 318 324 
f 321 318 326 
f 318 322 326 
f 318 319 327 
f 322 317 329 
f 319 321 332 
f 321 328 332 
f 317 323 335 
f 321 326 337 
f 332 328 338 
f 329 317 340 
f 334 325 340 
f 319 332 341 
f 332 338 341 
f 326 322 343 
f 331 335 345 
f 324 318 346 
f 323 324 347 
f 338 328 348 
f 338 348 349 
f 341 338 349 
f 318 327 350 
f 336 346 350 
f 330 337 351 
f 337 339 351 
f 342 330 351 
f 326 320 353 
f 337 326 353 
f 335 323 356 
f 326 343 357 
f 343 333 357 
f 340 317 358 
f 334 340 358 
f 342 334 358 
f 325 334 359 
f 339 325 359 
f 334 342 359 
f 351 339 359 
f 342 351 359 
f 349 348 360 
f 356 323 360 
f 348 356 360 
f 322 329 361 
f 343 322 361 
f 320 326 362 
f 344 320 362 
f 333 344 362 
f 326 357 362 
f 357 333 362 
f 339 320 363 
f 325 339 363 
f 320 344 363 
f 354 325 363 
f 331 330 364 
f 317 331 364 
f 330 342 364 
f 358 317 364 
f 342 358 364 
f 320 339 365 
f 339 337 365 
f 353 320 365 
f 337 353 365 
f 327 319 366 
f 319 341 366 
f 349 327 366 
f 341 349 366 
f 328 321 367 
f 321 337 367 
f 337 330 367 
f 345 328 367 
f 329 340 368 
f 354 329 368 
f 333 343 369 
f 344 333 369 
f 361 329 369 
f 343 361 369 
f 328 345 370 
f 345 335 370 
f 348 328 370 
f 335 356 370 
f 356 348 370 
f 327 349 371 
f 350 327 371 
f 352 350 371 
f 349 360 371 
f 360 323 371 
f 347 324 372 
f 355 347 372 
f 355 372 373 
f 324 346 373 
f 346 336 373 
f 336 355 373 
f 372 324 373 
f 330 331 374 
f 331 345 374 
f 367 330 374 
f 345 367 374 
f 329 354 375 
f 363 344 375 
f 354 363 375 
f 344 369 375 
f 369 329 375 
f 346 318 376 
f 318 350 376 
f 350 346 376 
f 336 350 377 
f 350 352 377 
f 355 336 377 
f 347 355 377 
f 323 347 378 
f 371 323 378 
f 352 371 378 
f 347 377 378 
f 377 352 378 
f 340 325 379 
f 325 354 379 
f 368 340 379 
f 354 368 379 
f 331 317 380 
f 317 335 380 
o convex_7
v 0.015688 0.027201 0.020276
v -0.013951 0.010010 -0.005219
v -0.013951 0.011790 -0.005219
v -0.023440 0.019497 0.020276
v 0.021617 0.009417 0.020276
v 0.020428 0.027201 0.004272
v -0.013951 0.030167 0.016121
v 0.011538 0.009417 -0.005219
v -0.022252 0.009417 0.020276
v -0.012767 0.020089 -0.002845
v 0.015688 0.030167 0.007821
v -0.013356 0.030761 0.020276
v -0.020474 0.009417 0.003087
v 0.023395 0.022458 0.020276
v 0.018650 0.009417 0.003087
v -0.018101 0.018311 0.001896
v 0.009760 0.014755 -0.004625
v 0.022801 0.020089 0.008414
v 0.009760 0.028387 0.004272
v 0.020428 0.024238 0.001896
v -0.019285 0.026607 0.018494
v -0.012172 0.023051 0.000713
v 0.023989 0.015346 0.019682
v 0.016278 0.030167 0.009600
v -0.019879 0.015346 0.002490
v -0.009800 0.017126 -0.004625
v 0.021023 0.025423 0.020276
v -0.023440 0.014164 0.017309
v -0.022252 0.023051 0.019682
v 0.015688 0.009417 -0.001658
v -0.017507 0.014164 -0.001658
v 0.012132 0.011197 -0.005219
v 0.018650 0.029574 0.006640
v -0.010394 0.030761 0.020276
v -0.013951 0.009417 -0.004625
v -0.016323 0.020089 0.001305
v 0.013910 0.026014 0.002490
v 0.013316 0.027794 0.020276
v -0.013356 0.014164 -0.005219
v 0.019839 0.020678 0.001305
v -0.023440 0.011790 0.019088
v -0.020474 0.011790 0.002490
v -0.022841 0.019497 0.016715
v 0.021617 0.009417 0.017309
v -0.018101 0.009417 -0.001064
v 0.023989 0.020089 0.019088
v 0.022211 0.024238 0.010194
v 0.009760 0.028981 0.005457
v -0.013356 0.030761 0.018494
f 414 391 429 
f 381 384 385 
f 382 383 388 
f 385 384 389 
f 388 385 389 
f 384 381 392 
f 388 389 393 
f 381 385 394 
f 385 388 395 
f 386 398 400 
f 399 390 402 
f 394 385 403 
f 395 398 403 
f 381 394 407 
f 404 381 407 
f 384 392 409 
f 392 401 409 
f 401 396 409 
f 396 405 409 
f 395 388 410 
f 396 390 411 
f 405 396 411 
f 388 383 412 
f 397 400 412 
f 406 397 412 
f 410 388 412 
f 394 386 413 
f 386 399 413 
f 399 391 413 
f 391 404 413 
f 407 394 413 
f 404 407 413 
f 392 381 414 
f 404 391 414 
f 382 388 415 
f 388 393 415 
f 390 396 416 
f 401 387 416 
f 396 401 416 
f 387 402 416 
f 402 390 416 
f 399 386 417 
f 390 399 417 
f 400 397 417 
f 386 400 417 
f 406 390 417 
f 397 406 417 
f 381 404 418 
f 414 381 418 
f 404 414 418 
f 390 406 419 
f 383 411 419 
f 411 390 419 
f 412 383 419 
f 406 412 419 
f 398 395 420 
f 400 398 420 
f 395 410 420 
f 412 400 420 
f 410 412 420 
f 389 384 421 
f 393 389 421 
f 384 408 421 
f 408 393 421 
f 393 408 422 
f 405 411 422 
f 408 384 423 
f 384 409 423 
f 409 405 423 
f 405 422 423 
f 422 408 423 
f 385 395 424 
f 403 385 424 
f 395 403 424 
f 383 382 425 
f 411 383 425 
f 382 415 425 
f 415 393 425 
f 393 422 425 
f 422 411 425 
f 394 403 426 
f 403 398 426 
f 386 394 427 
f 398 386 427 
f 394 426 427 
f 426 398 427 
f 387 391 428 
f 391 399 428 
f 402 387 428 
f 399 402 428 
f 391 387 429 
f 401 392 429 
f 387 401 429 
f 392 414 429 
o convex_8
v 0.042368 -0.002438 0.038656
v 0.016287 -0.009552 0.038062
v 0.016287 -0.009552 0.038656
v 0.016287 0.023049 0.030355
v 0.029328 -0.003030 0.029764
v 0.019252 0.015932 0.038656
v 0.016287 0.000527 0.029169
v 0.034072 -0.015485 0.038062
v 0.039404 0.008818 0.037470
v 0.026956 0.015340 0.029169
v 0.037034 -0.000657 0.032134
v 0.034072 0.014159 0.038656
v 0.025176 -0.011328 0.033912
v 0.016287 0.011190 0.038656
v 0.022806 0.020085 0.029169
v 0.038216 -0.007775 0.035098
v 0.026956 -0.015477 0.038656
v 0.029328 -0.007179 0.030949
v 0.039999 0.005853 0.035691
v 0.029920 0.001711 0.029169
v 0.016880 0.023049 0.029169
v 0.039404 -0.011328 0.038656
v 0.018657 -0.008959 0.034505
v 0.032885 -0.005402 0.030949
v 0.021029 -0.013701 0.038062
v 0.022214 0.018304 0.036284
v 0.025176 -0.008363 0.031541
v 0.032885 0.005265 0.030355
v 0.041181 0.005853 0.038656
v 0.040589 -0.005402 0.036284
v 0.037627 0.002892 0.032727
v 0.037034 0.011786 0.038062
v 0.042368 -0.000657 0.038062
v 0.021029 -0.008363 0.032727
v 0.024584 -0.001250 0.029169
v 0.034072 -0.010740 0.034505
v 0.026363 0.017120 0.029764
f 444 461 466 
f 431 432 433 
f 432 430 435 
f 431 433 436 
f 435 430 441 
f 433 432 443 
f 432 435 443 
f 435 433 443 
f 439 436 444 
f 430 432 446 
f 442 437 446 
f 437 442 447 
f 436 439 449 
f 436 433 450 
f 433 441 450 
f 444 436 450 
f 441 444 450 
f 437 445 451 
f 430 446 451 
f 446 437 451 
f 431 436 452 
f 440 445 453 
f 447 434 453 
f 434 449 453 
f 449 440 453 
f 432 431 454 
f 446 432 454 
f 442 446 454 
f 431 452 454 
f 433 435 455 
f 435 441 455 
f 441 433 455 
f 447 442 456 
f 449 439 457 
f 440 449 457 
f 441 430 458 
f 448 438 458 
f 445 440 459 
f 451 445 459 
f 430 451 459 
f 439 448 460 
f 457 439 460 
f 440 457 460 
f 444 441 461 
f 441 458 461 
f 458 438 461 
f 458 430 462 
f 448 458 462 
f 459 440 462 
f 430 459 462 
f 460 448 462 
f 440 460 462 
f 452 436 463 
f 442 454 463 
f 454 452 463 
f 436 456 463 
f 456 442 463 
f 434 447 464 
f 449 434 464 
f 436 449 464 
f 456 436 464 
f 447 456 464 
f 445 437 465 
f 437 447 465 
f 453 445 465 
f 447 453 465 
f 439 444 466 
f 438 448 466 
f 448 439 466 
f 461 438 466 
o convex_9
v 0.028142 0.004674 0.061185
v 0.035849 0.009417 0.064150
v 0.034662 0.009417 0.064742
v 0.034662 0.009417 0.051699
v 0.035849 0.005267 0.062962
v 0.028142 0.009417 0.055258
v 0.028142 0.007638 0.065929
v 0.035849 0.007044 0.052887
v 0.029328 0.004081 0.065335
v 0.028142 0.009417 0.061777
v 0.028142 0.007044 0.056443
v 0.028142 0.004081 0.062962
f 475 473 478 
f 469 468 470 
f 468 469 471 
f 469 470 472 
f 472 467 473 
f 470 468 474 
f 468 471 474 
f 471 469 475 
f 469 473 475 
f 469 472 476 
f 473 469 476 
f 472 473 476 
f 467 472 477 
f 472 470 477 
f 470 474 477 
f 474 467 477 
f 473 467 478 
f 467 474 478 
f 474 471 478 
f 471 475 478 
o convex_10
v 0.036441 0.010010 0.059406
v 0.012726 0.009417 0.038656
v 0.012726 0.009417 0.046365
v 0.025181 0.017124 0.043992
v 0.039402 0.009417 0.038656
v 0.021031 0.009417 0.058813
v 0.032290 0.015345 0.039251
v 0.012726 0.014159 0.040435
v 0.025775 0.015938 0.052289
v 0.035845 0.014752 0.048143
v 0.041185 0.009417 0.049921
v 0.018067 0.012975 0.052882
v 0.019841 0.015345 0.038656
v 0.028137 0.009417 0.061185
v 0.032881 0.015938 0.049332
v 0.038809 0.012382 0.042217
v 0.026956 0.012382 0.058217
v 0.015693 0.010010 0.053476
v 0.012726 0.014159 0.042217
v 0.032881 0.012975 0.056442
v 0.038809 0.011789 0.052289
v 0.031104 0.016531 0.042217
v 0.022217 0.015345 0.051698
v 0.023398 0.011196 0.058813
v 0.033474 0.009417 0.061185
v 0.022217 0.016531 0.046365
v 0.035254 0.013566 0.038656
v 0.029324 0.016531 0.049921
v 0.035845 0.014752 0.043399
v 0.028137 0.017124 0.042808
v 0.041185 0.010010 0.045179
v 0.033474 0.010010 0.061185
f 492 503 510 
f 481 480 483 
f 481 483 484 
f 480 481 486 
f 484 483 489 
f 483 480 491 
f 480 486 491 
f 486 482 491 
f 484 489 492 
f 481 484 496 
f 484 490 496 
f 496 490 497 
f 486 481 497 
f 481 496 497 
f 479 493 498 
f 487 495 498 
f 479 489 499 
f 493 479 499 
f 488 493 499 
f 494 488 499 
f 497 490 501 
f 490 484 502 
f 484 492 502 
f 495 487 502 
f 492 495 502 
f 487 501 502 
f 501 490 502 
f 489 479 503 
f 492 489 503 
f 482 486 504 
f 487 482 504 
f 486 497 504 
f 501 487 504 
f 497 501 504 
f 483 491 505 
f 491 485 505 
f 494 483 505 
f 482 487 506 
f 498 493 506 
f 487 498 506 
f 493 488 507 
f 488 494 507 
f 485 500 507 
f 500 493 507 
f 505 485 507 
f 494 505 507 
f 491 482 508 
f 485 491 508 
f 500 485 508 
f 493 500 508 
f 482 506 508 
f 506 493 508 
f 489 483 509 
f 483 494 509 
f 499 489 509 
f 494 499 509 
f 495 492 510 
f 479 498 510 
f 498 495 510 
f 503 479 510 
o convex_11
v 0.012727 -0.006592 0.060592
v 0.018062 -0.019635 0.046365
v 0.019247 -0.019635 0.046365
v 0.012727 -0.003627 0.038656
v 0.018655 -0.003627 0.061774
v 0.019247 -0.006001 0.038656
v 0.013320 -0.014297 0.054660
v 0.018655 -0.012518 0.038656
v 0.013913 -0.003627 0.062964
v 0.019247 -0.016670 0.051695
v 0.018062 -0.003627 0.038656
v 0.012727 -0.010152 0.045180
v 0.016876 -0.006592 0.061774
v 0.013913 -0.007187 0.038656
v 0.016283 -0.018449 0.048145
v 0.012727 -0.010152 0.058812
v 0.012727 -0.003627 0.055255
v 0.017469 -0.016670 0.052288
v 0.018062 -0.004221 0.062964
f 523 520 529 
f 513 512 518 
f 516 513 518 
f 514 516 518 
f 515 514 519 
f 513 516 520 
f 516 515 520 
f 514 515 521 
f 515 516 521 
f 516 514 521 
f 511 514 522 
f 518 512 524 
f 514 518 524 
f 522 514 524 
f 522 524 525 
f 517 522 525 
f 524 512 525 
f 519 511 526 
f 511 522 526 
f 522 517 526 
f 523 519 526 
f 514 511 527 
f 511 519 527 
f 519 514 527 
f 512 513 528 
f 513 520 528 
f 520 523 528 
f 517 525 528 
f 525 512 528 
f 526 517 528 
f 523 526 528 
f 515 519 529 
f 520 515 529 
f 519 523 529 
o convex_12
v 0.023991 -0.015485 0.038657
v 0.019842 -0.015485 0.050512
v 0.019842 -0.014298 0.049919
v 0.028142 -0.015485 0.043993
v 0.019248 -0.006593 0.038657
v 0.019842 -0.020226 0.045176
v 0.028142 -0.010151 0.039250
v 0.028142 -0.020820 0.041029
v 0.019248 -0.013114 0.038657
v 0.027548 -0.019633 0.045176
v 0.019248 -0.017855 0.050512
v 0.019842 -0.010151 0.045769
v 0.028142 -0.016076 0.038657
v 0.025176 -0.020820 0.041622
v 0.023991 -0.020820 0.044584
v 0.028142 -0.010743 0.040436
v 0.019842 -0.006593 0.039843
v 0.019248 -0.011929 0.048140
f 546 534 547 
f 532 531 533 
f 536 533 537 
f 534 530 538 
f 533 531 539 
f 537 533 539 
f 534 538 540 
f 538 535 540 
f 539 531 540 
f 530 534 542 
f 534 536 542 
f 537 530 542 
f 536 537 542 
f 530 537 543 
f 538 530 543 
f 535 538 543 
f 537 539 544 
f 540 535 544 
f 539 540 544 
f 535 543 544 
f 543 537 544 
f 532 533 545 
f 533 536 545 
f 541 545 546 
f 536 534 546 
f 545 536 546 
f 531 532 547 
f 540 531 547 
f 534 540 547 
f 532 545 547 
f 545 541 547 
f 541 546 547 
o convex_13
v 0.017469 -0.003627 0.038656
v 0.018655 0.009417 0.048142
v 0.013914 0.009417 0.048142
v 0.015099 -0.003627 0.048142
v 0.012726 0.009417 0.038656
v 0.021620 0.009417 0.038656
v 0.012726 -0.003627 0.038656
v 0.012726 -0.003627 0.048142
v 0.012726 0.008229 0.048142
v 0.021620 0.008823 0.039249
f 548 553 557 
f 549 550 551 
f 550 549 552 
f 548 552 553 
f 552 549 553 
f 548 551 554 
f 552 548 554 
f 552 554 555 
f 551 550 555 
f 554 551 555 
f 550 552 556 
f 552 555 556 
f 555 550 556 
f 549 551 557 
f 551 548 557 
f 553 549 557 
o convex_14
v 0.037035 -0.004220 0.039249
v 0.028142 -0.020821 0.041028
v 0.028142 -0.020821 0.042212
v 0.037035 -0.017855 0.039249
v 0.037035 -0.017262 0.042805
v 0.028142 -0.017855 0.044584
v 0.028142 -0.010151 0.038656
v 0.029329 -0.016671 0.038656
v 0.037035 -0.013112 0.042805
v 0.037035 -0.004220 0.038656
v 0.028142 -0.010743 0.040435
v 0.032292 -0.020228 0.039842
v 0.037035 -0.016078 0.038656
v 0.028735 -0.019635 0.044584
f 566 563 571 
f 561 558 562 
f 559 560 563 
f 559 563 564 
f 559 564 565 
f 562 558 566 
f 558 563 566 
f 558 561 567 
f 564 558 567 
f 565 564 567 
f 563 558 568 
f 558 564 568 
f 564 563 568 
f 560 559 569 
f 561 562 569 
f 562 560 569 
f 559 565 569 
f 569 565 570 
f 567 561 570 
f 565 567 570 
f 561 569 570 
f 560 562 571 
f 563 560 571 
f 562 566 571 
o convex_15
v 0.040001 -0.011334 0.038656
v 0.045927 0.001116 0.054071
v 0.044742 0.001116 0.054071
v 0.042372 0.001116 0.038656
v 0.048299 -0.006002 0.044586
v 0.037036 -0.016670 0.042807
v 0.037629 0.001116 0.039249
v 0.048299 0.001116 0.049325
v 0.044742 -0.011927 0.041028
v 0.037036 -0.017856 0.039249
v 0.044149 -0.011334 0.044586
v 0.042372 0.001116 0.051104
v 0.037036 -0.005406 0.041028
v 0.047113 -0.003035 0.050513
v 0.037036 -0.003035 0.038656
v 0.048892 -0.001850 0.046955
v 0.038222 -0.016077 0.043401
v 0.042372 -0.014298 0.039843
v 0.048892 -0.002442 0.048734
v 0.046520 -0.009555 0.042214
v 0.041779 -0.014891 0.041622
f 581 589 592 
f 574 573 575 
f 574 575 578 
f 575 573 579 
f 577 574 583 
f 574 578 583 
f 583 578 584 
f 581 577 584 
f 577 583 584 
f 575 572 586 
f 578 575 586 
f 572 581 586 
f 584 578 586 
f 581 584 586 
f 576 575 587 
f 575 579 587 
f 573 574 588 
f 574 577 588 
f 577 581 588 
f 585 573 588 
f 582 585 588 
f 572 575 589 
f 575 580 589 
f 581 572 589 
f 579 573 590 
f 582 576 590 
f 573 585 590 
f 585 582 590 
f 576 587 590 
f 587 579 590 
f 575 576 591 
f 580 575 591 
f 576 582 591 
f 582 580 591 
f 580 582 592 
f 588 581 592 
f 582 588 592 
f 589 580 592 
o convex_16
v 0.035851 0.007045 0.063555
v 0.048300 0.001709 0.051696
v 0.048300 0.001116 0.051696
v 0.032885 0.009417 0.038657
v 0.037630 0.001116 0.038657
v 0.040592 0.009417 0.040438
v 0.040592 0.008824 0.061183
v 0.042370 0.001116 0.038657
v 0.043556 0.001116 0.054072
v 0.035851 0.009417 0.063555
v 0.035851 0.005266 0.060589
v 0.045333 0.006452 0.057035
v 0.041777 0.004081 0.059404
v 0.040592 0.008230 0.038657
v 0.041775 0.009417 0.046958
v 0.047707 0.002896 0.050514
v 0.032885 0.008824 0.039251
v 0.036444 0.005266 0.062368
v 0.045926 0.001116 0.054664
v 0.043554 0.001709 0.040438
v 0.037630 0.001116 0.039844
f 610 603 613 
f 597 596 600 
f 595 597 600 
f 597 595 601 
f 598 596 602 
f 593 599 602 
f 595 594 604 
f 604 599 605 
f 599 593 605 
f 596 598 606 
f 600 596 606 
f 598 602 607 
f 602 599 607 
f 599 604 607 
f 607 604 608 
f 604 594 608 
f 606 598 608 
f 598 607 608 
f 596 597 609 
f 593 602 609 
f 602 596 609 
f 603 593 609 
f 593 603 610 
f 605 593 610 
f 605 610 611 
f 601 595 611 
f 595 604 611 
f 604 605 611 
f 610 601 611 
f 594 595 612 
f 595 600 612 
f 600 606 612 
f 608 594 612 
f 606 608 612 
f 597 601 613 
f 609 597 613 
f 603 609 613 
f 601 610 613 
o convex_17
v 0.018061 0.009417 0.056443
v 0.012726 -0.003627 0.048142
v 0.012726 0.007637 0.048142
v 0.014505 -0.003033 0.063554
v 0.020434 0.008823 0.051109
v 0.020434 -0.001847 0.064148
v 0.015691 -0.003627 0.048737
v 0.020434 0.003486 0.065929
v 0.019248 0.009417 0.048142
v 0.014505 0.009417 0.052293
v 0.012726 0.002304 0.054664
v 0.020434 -0.000662 0.059407
v 0.018655 -0.003627 0.063554
v 0.016876 0.000524 0.065335
v 0.020434 0.009417 0.058219
v 0.012726 -0.003627 0.055259
v 0.013319 0.007637 0.052293
v 0.019840 0.004078 0.065335
v 0.018655 -0.003627 0.058811
v 0.013913 0.009417 0.048142
f 623 622 633 
f 619 618 621 
f 615 616 622 
f 620 615 622 
f 618 620 622 
f 614 622 623 
f 616 615 624 
f 618 619 625 
f 620 618 625 
f 615 620 626 
f 619 621 627 
f 617 626 627 
f 626 619 627 
f 621 618 628 
f 622 614 628 
f 618 622 628 
f 624 615 629 
f 617 624 629 
f 615 626 629 
f 626 617 629 
f 623 616 630 
f 616 624 630 
f 624 617 630 
f 617 627 630 
f 627 623 630 
f 614 623 631 
f 627 621 631 
f 623 627 631 
f 628 614 631 
f 621 628 631 
f 625 619 632 
f 620 625 632 
f 626 620 632 
f 619 626 632 
f 622 616 633 
f 616 623 633 
o convex_18
v 0.027548 0.009416 0.061776
v 0.020434 -0.000661 0.062962
v 0.020434 -0.000069 0.059998
v 0.020434 0.009416 0.058222
v 0.028142 0.008823 0.055257
v 0.020434 0.009416 0.051699
v 0.028142 0.004673 0.065928
v 0.021620 0.004673 0.066522
v 0.028142 0.004673 0.060592
v 0.028142 0.007637 0.066522
v 0.021620 -0.000661 0.064741
v 0.021028 0.002895 0.056445
v 0.020434 0.001710 0.065928
v 0.028142 0.007044 0.056445
v 0.025176 0.007044 0.066522
v 0.021028 0.008823 0.051699
v 0.028142 0.009416 0.055257
f 649 639 650 
f 636 635 637 
f 636 637 639 
f 637 634 639 
f 638 640 642 
f 634 637 643 
f 640 638 643 
f 641 640 643 
f 635 636 644 
f 636 642 644 
f 642 640 644 
f 636 639 645 
f 637 635 646 
f 641 637 646 
f 640 641 646 
f 635 644 646 
f 644 640 646 
f 642 636 647 
f 638 642 647 
f 636 645 647 
f 637 641 648 
f 643 637 648 
f 641 643 648 
f 645 639 649 
f 638 647 649 
f 647 645 649 
f 639 634 650 
f 634 643 650 
f 643 638 650 
f 638 649 650 
