o convex_0
v 0.000404 0.025952 0.021192
v -0.019852 0.025952 0.009692
v -0.019852 0.025952 0.010241
v 0.002049 0.027868 0.010788
v 0.017657 0.025952 0.009692
v -0.006161 0.027868 0.009692
v -0.008353 0.026226 0.020096
v 0.011085 0.026226 0.017631
v 0.009715 0.027321 0.009692
v -0.015740 0.026499 0.013527
v -0.000690 0.026499 0.019822
v -0.013552 0.025952 0.017357
f 7 10 12 
f 3 2 1 
f 1 2 5 
f 5 2 6 
f 2 3 6 
f 1 5 8 
f 8 5 9 
f 5 6 9 
f 6 4 9 
f 4 8 9 
f 6 3 10 
f 7 6 10 
f 4 6 11 
f 6 7 11 
f 7 1 11 
f 1 8 11 
f 8 4 11 
f 3 1 12 
f 1 7 12 
f 10 3 12 
o convex_1
v -0.029710 -0.015939 -0.022338
v -0.025603 -0.023055 -0.009748
v -0.036552 -0.014022 -0.009748
v -0.025603 -0.014022 -0.027541
v -0.026973 -0.022507 -0.014951
v -0.035183 -0.014296 -0.015771
v -0.029163 -0.022507 -0.010023
v -0.025603 -0.022234 -0.017139
v -0.026151 -0.014296 -0.028088
v -0.036278 -0.015391 -0.010296
v -0.033540 -0.015665 -0.016866
v -0.031624 -0.014022 -0.022065
f 13 23 24 
f 15 14 16 
f 14 15 19 
f 17 14 19 
f 16 14 20 
f 17 13 20 
f 14 17 20 
f 16 20 21 
f 20 13 21 
f 15 18 22 
f 19 15 22 
f 19 22 23 
f 13 17 23 
f 17 19 23 
f 22 18 23 
f 23 18 24 
f 15 16 24 
f 18 15 24 
f 16 21 24 
f 21 13 24 
o convex_2
v -0.002329 0.029237 0.005037
v -0.002054 0.029237 -0.005091
v -0.003150 0.029237 -0.004816
v 0.002597 0.032796 -0.002901
v -0.005340 0.032796 0.001478
v 0.003692 0.029237 0.002298
v 0.001775 0.032796 0.003668
v -0.003424 0.032796 -0.003996
v -0.006162 0.029237 -0.000984
v 0.003144 0.029237 -0.003175
v -0.002876 0.032796 0.004215
v -0.005340 0.029237 0.003121
v 0.000681 0.032796 -0.004270
v 0.000407 0.029511 0.005037
f 31 35 38 
f 27 26 25 
f 25 26 30 
f 28 29 31 
f 30 28 31 
f 26 27 32 
f 29 28 32 
f 29 32 33 
f 27 25 33 
f 32 27 33 
f 30 26 34 
f 28 30 34 
f 31 29 35 
f 29 33 36 
f 33 25 36 
f 25 35 36 
f 35 29 36 
f 26 32 37 
f 32 28 37 
f 34 26 37 
f 28 34 37 
f 25 30 38 
f 30 31 38 
f 35 25 38 
o convex_3
v -0.033539 -0.011556 -0.021793
v -0.018758 -0.006631 -0.036304
v -0.019032 -0.007999 -0.036028
v -0.018758 -0.014294 -0.031922
v -0.034362 -0.005534 -0.021793
v -0.028886 -0.009368 -0.028911
v -0.023138 -0.014019 -0.030828
v -0.031075 -0.014020 -0.021793
v -0.029709 -0.005534 -0.028637
v -0.018485 -0.006083 -0.035754
v -0.024780 -0.009094 -0.032469
v -0.029161 -0.014020 -0.025354
v -0.033539 -0.009095 -0.023712
v -0.018758 -0.011830 -0.034933
v -0.028886 -0.011282 -0.028090
v -0.025878 -0.005534 -0.031922
v -0.018485 -0.014569 -0.033017
f 52 48 55 
f 43 39 46 
f 42 43 46 
f 43 42 48 
f 40 41 49 
f 44 47 49 
f 46 39 50 
f 39 43 51 
f 43 47 51 
f 47 44 51 
f 41 40 52 
f 40 48 52 
f 49 41 52 
f 45 49 52 
f 44 49 53 
f 49 45 53 
f 50 39 53 
f 45 50 53 
f 39 51 53 
f 51 44 53 
f 47 43 54 
f 48 40 54 
f 43 48 54 
f 40 49 54 
f 49 47 54 
f 42 46 55 
f 48 42 55 
f 50 45 55 
f 46 50 55 
f 45 52 55 
o convex_4
v -0.038742 -0.011830 -0.010022
v -0.031900 -0.014021 -0.021792
v -0.031352 -0.014021 -0.021792
v -0.034364 -0.005534 -0.021792
v -0.036553 -0.009641 -0.018506
v -0.039564 -0.005534 -0.009746
v -0.036553 -0.013747 -0.010022
v -0.039290 -0.005534 -0.013034
v -0.031352 -0.013747 -0.021244
v -0.035731 -0.014021 -0.014950
v -0.034911 -0.007724 -0.021792
v -0.039016 -0.009367 -0.012759
f 60 65 67 
f 58 57 59 
f 61 56 62 
f 61 59 63 
f 58 59 64 
f 59 61 64 
f 62 58 64 
f 61 62 64 
f 57 58 65 
f 60 57 65 
f 62 56 65 
f 58 62 65 
f 59 57 66 
f 57 60 66 
f 60 63 66 
f 63 59 66 
f 56 61 67 
f 63 60 67 
f 61 63 67 
f 65 56 67 
o convex_5
v -0.034362 0.001037 -0.021247
v -0.025604 0.004323 -0.028910
v -0.025604 0.003775 -0.028910
v -0.029709 -0.005534 -0.028636
v -0.036551 -0.005534 -0.018235
v -0.025604 -0.005260 -0.031101
v -0.034362 0.003775 -0.018235
v -0.028067 0.003501 -0.028088
v -0.033540 -0.003343 -0.023985
v -0.025877 -0.002796 -0.031648
v -0.034909 0.004323 -0.018510
v -0.036826 -0.005534 -0.018783
v -0.031624 0.004323 -0.023711
v -0.029436 -0.000332 -0.028088
f 76 80 81 
f 69 70 73 
f 72 71 73 
f 70 69 74 
f 73 70 74 
f 72 73 74 
f 69 73 77 
f 73 71 77 
f 75 69 77 
f 74 69 78 
f 72 74 78 
f 71 72 79 
f 68 76 79 
f 76 71 79 
f 78 68 79 
f 72 78 79 
f 69 75 80 
f 76 68 80 
f 68 78 80 
f 78 69 80 
f 71 76 81 
f 77 71 81 
f 75 77 81 
f 80 75 81 
o convex_6
v -0.029435 0.004323 -0.026172
v -0.025602 0.022940 -0.018234
v -0.025876 0.022940 -0.018234
v -0.034363 0.004323 -0.018234
v -0.025602 0.004598 -0.028636
v -0.031898 0.008430 -0.020973
v -0.025876 0.013087 -0.025351
v -0.025602 0.021295 -0.018510
v -0.034636 0.005420 -0.018510
v -0.029709 0.013087 -0.020973
v -0.025876 0.005420 -0.029183
f 88 86 92 
f 83 84 85 
f 85 82 86 
f 84 83 88 
f 83 86 88 
f 83 85 89 
f 85 86 89 
f 86 83 89 
f 85 84 90 
f 82 85 90 
f 87 82 90 
f 87 90 91 
f 82 87 91 
f 84 88 91 
f 88 82 91 
f 90 84 91 
f 86 82 92 
f 82 88 92 
o convex_7
v -0.036280 0.000492 -0.018234
v -0.036280 0.008156 -0.009746
v -0.036826 0.008156 -0.009746
v -0.039565 -0.005534 -0.009746
v -0.032994 0.007608 -0.017960
v -0.036553 -0.005534 -0.017686
v -0.039017 -0.001425 -0.012485
v -0.034637 0.007334 -0.017137
v -0.037100 -0.005534 -0.018234
v -0.037374 0.005143 -0.012485
v -0.039291 0.000218 -0.009746
f 95 102 103 
f 94 95 96 
f 95 94 97 
f 94 96 97 
f 97 96 98 
f 97 93 100 
f 95 97 100 
f 93 97 101 
f 98 96 101 
f 97 98 101 
f 99 93 101 
f 96 99 101 
f 93 99 102 
f 100 93 102 
f 95 100 102 
f 96 95 103 
f 99 96 103 
f 102 99 103 
o convex_8
v -0.026151 0.025677 -0.014673
v -0.036826 0.008156 -0.010021
v -0.036826 0.008156 -0.009746
v -0.032719 0.008431 -0.018234
v -0.026698 0.023487 -0.010295
v -0.029709 0.024034 -0.010021
v -0.033266 0.010894 -0.016864
v -0.025604 0.022116 -0.018234
v -0.026698 0.021843 -0.018234
v -0.036004 0.008431 -0.009746
v -0.025604 0.023487 -0.013033
v -0.026698 0.025677 -0.009746
v -0.033540 0.015549 -0.011116
v -0.028889 0.021843 -0.014673
v -0.033540 0.008431 -0.018234
f 112 107 118 
f 106 105 107 
f 111 107 112 
f 104 111 112 
f 106 107 113 
f 107 111 114 
f 111 104 114 
f 113 107 114 
f 108 113 114 
f 109 106 115 
f 104 109 115 
f 106 113 115 
f 113 108 115 
f 114 104 115 
f 108 114 115 
f 105 106 116 
f 106 109 116 
f 110 105 116 
f 110 116 117 
f 109 104 117 
f 104 112 117 
f 112 110 117 
f 116 109 117 
f 107 105 118 
f 105 110 118 
f 110 112 118 
o convex_9
v -0.004790 0.038820 -0.001533
v 0.006158 0.037450 0.001751
v 0.006158 0.036081 0.001751
v -0.002873 0.036080 0.007228
v -0.002604 0.032797 -0.004543
v 0.002323 0.037451 -0.006734
v 0.003145 0.032250 0.001204
v -0.005614 0.032797 0.001478
v -0.008076 0.037451 -0.002628
v -0.005064 0.038271 0.005309
v 0.002597 0.037725 0.006405
v 0.002870 0.038820 0.000931
v -0.003696 0.037451 -0.007007
v 0.004514 0.035261 -0.004268
v 0.000681 0.032797 0.004488
v -0.008076 0.036080 0.002573
v -0.006983 0.035261 -0.003723
v 0.004240 0.038271 -0.003996
v 0.001228 0.032797 -0.004268
v 0.003419 0.035807 0.005857
v 0.000407 0.036081 -0.007282
v -0.003421 0.032797 0.004214
v 0.000133 0.038544 -0.005364
v 0.006158 0.036081 -0.001806
v -0.007256 0.038271 0.002299
v -0.002057 0.038820 0.003940
v -0.006433 0.036355 0.005309
v 0.003145 0.032250 -0.001257
v -0.005340 0.036081 -0.006186
v -0.005614 0.032797 -0.001533
v -0.006159 0.038271 -0.004268
f 131 147 149 
f 128 122 129 
f 129 120 130 
f 134 127 135 
f 130 120 136 
f 132 124 136 
f 121 120 138 
f 125 121 138 
f 129 122 138 
f 120 129 138 
f 133 125 138 
f 122 133 138 
f 131 124 139 
f 124 132 139 
f 137 123 139 
f 132 137 139 
f 126 125 140 
f 125 133 140 
f 133 122 140 
f 119 130 141 
f 124 131 141 
f 130 136 141 
f 136 124 141 
f 120 121 142 
f 121 125 142 
f 136 120 142 
f 132 136 142 
f 127 134 143 
f 128 129 144 
f 130 119 144 
f 129 130 144 
f 119 143 144 
f 143 128 144 
f 122 128 145 
f 134 126 145 
f 126 140 145 
f 140 122 145 
f 128 143 145 
f 143 134 145 
f 125 126 146 
f 123 137 146 
f 137 132 146 
f 142 125 146 
f 132 142 146 
f 123 135 147 
f 135 127 147 
f 139 123 147 
f 131 139 147 
f 126 134 148 
f 135 123 148 
f 134 135 148 
f 123 146 148 
f 146 126 148 
f 119 141 149 
f 141 131 149 
f 143 119 149 
f 127 143 149 
f 147 127 149 
o convex_10
v 0.043666 0.007060 0.003394
v 0.038191 0.001311 0.007774
v 0.038739 0.001311 0.007774
v 0.043666 0.005418 -0.006186
v 0.043665 0.001311 0.008870
v 0.038191 0.004870 0.000386
v 0.038191 0.003501 0.006406
v 0.043393 0.007060 -0.003448
v 0.043118 0.004049 0.007774
f 156 151 158 
f 152 151 153 
f 153 150 154 
f 151 152 154 
f 152 153 154 
f 153 151 155 
f 155 151 156 
f 150 155 156 
f 150 153 157 
f 155 150 157 
f 153 155 157 
f 154 150 158 
f 151 154 158 
f 150 156 158 
o convex_11
v 0.054340 0.019654 0.004490
v 0.047503 0.007061 -0.007282
v 0.046682 0.007061 -0.007008
v 0.049690 0.007061 0.007228
v 0.059546 0.019653 -0.001257
v 0.049418 0.019929 -0.000162
v 0.043666 0.007335 0.003395
v 0.053521 0.007061 -0.002354
v 0.052699 0.019929 -0.004268
v 0.059271 0.019929 0.002024
v 0.044492 0.007335 -0.005091
v 0.053521 0.007061 0.002300
v 0.051061 0.019381 0.003942
v 0.050782 0.007061 -0.006734
v 0.056807 0.019929 -0.003996
v 0.047228 0.007335 0.007228
v 0.049965 0.019106 -0.003173
v 0.043666 0.007061 -0.003175
v 0.051878 0.007061 0.005859
v 0.057628 0.019929 0.003667
v 0.044765 0.007061 0.005584
v 0.049965 0.019929 0.002300
v 0.052152 0.007335 -0.005638
v 0.049690 0.007608 -0.007282
v 0.058177 0.019379 -0.003173
f 181 172 183 
f 161 160 162 
f 162 160 166 
f 160 161 167 
f 167 164 168 
f 162 166 170 
f 166 163 170 
f 163 168 170 
f 166 160 172 
f 167 168 173 
f 168 163 173 
f 162 159 174 
f 159 171 174 
f 167 161 175 
f 164 167 175 
f 161 169 175 
f 175 169 176 
f 161 162 176 
f 165 164 176 
f 169 161 176 
f 164 175 176 
f 162 170 177 
f 170 168 177 
f 159 162 178 
f 168 164 178 
f 162 177 178 
f 177 168 178 
f 162 174 179 
f 174 171 179 
f 176 162 179 
f 165 176 179 
f 164 165 180 
f 171 159 180 
f 159 178 180 
f 178 164 180 
f 165 179 180 
f 179 171 180 
f 163 166 181 
f 166 172 181 
f 160 167 182 
f 172 160 182 
f 167 173 182 
f 173 172 182 
f 173 163 183 
f 172 173 183 
f 163 181 183 
o convex_12
v 0.052700 0.005691 -0.003997
v 0.043666 0.001311 -0.008925
v 0.043666 0.001859 -0.008925
v 0.043666 0.007061 -0.001533
v 0.051880 0.001311 -0.000164
v 0.049689 0.007061 -0.007282
v 0.053523 0.007061 -0.000164
v 0.048595 0.001311 -0.007829
v 0.045859 0.007061 -0.006735
v 0.051057 0.001311 -0.004817
v 0.043666 0.006238 -0.005639
v 0.051331 0.001311 -0.000164
v 0.052154 0.007061 -0.005365
f 193 191 196 
f 186 185 187 
f 189 187 190 
f 188 184 190 
f 185 186 191 
f 188 185 191 
f 186 189 191 
f 189 186 192 
f 187 189 192 
f 184 188 193 
f 188 191 193 
f 186 187 194 
f 192 186 194 
f 187 192 194 
f 187 185 195 
f 185 188 195 
f 190 187 195 
f 188 190 195 
f 189 190 196 
f 190 184 196 
f 191 189 196 
f 184 193 196 
o convex_13
v 0.057358 0.023761 0.003943
v 0.052976 0.019929 -0.004270
v 0.052156 0.019929 -0.003996
v 0.058178 0.025130 -0.003174
v 0.067760 0.024857 -0.000437
v 0.058178 0.019929 0.003394
v 0.049966 0.020202 0.002026
v 0.054349 0.024857 0.000656
v 0.058178 0.019929 -0.003448
v 0.065018 0.025404 0.002846
v 0.064746 0.025130 -0.003174
v 0.051061 0.022119 -0.001531
v 0.052704 0.019929 0.004216
v 0.059818 0.019929 -0.000985
v 0.054895 0.024582 0.002572
v 0.066937 0.024582 0.001751
v 0.054075 0.024035 -0.002626
v 0.062830 0.024309 0.003668
f 202 212 214 
f 199 198 202 
f 202 198 205 
f 200 204 206 
f 198 200 207 
f 205 198 207 
f 201 205 207 
f 200 206 207 
f 206 201 207 
f 199 203 208 
f 203 204 208 
f 199 202 209 
f 203 199 209 
f 205 201 210 
f 202 205 210 
f 204 203 211 
f 197 206 211 
f 206 204 211 
f 209 197 211 
f 203 209 211 
f 201 206 212 
f 210 201 212 
f 202 210 212 
f 198 199 213 
f 200 198 213 
f 204 200 213 
f 199 208 213 
f 208 204 213 
f 206 197 214 
f 197 209 214 
f 209 202 214 
f 212 206 214 
o convex_14
v 0.036000 0.005419 -0.008924
v 0.032716 0.016094 0.000110
v 0.032442 0.016094 0.000110
v 0.030799 0.016094 -0.009746
v 0.036547 0.005145 0.000110
v 0.033537 0.013630 -0.005912
v 0.037095 0.005419 -0.000712
v 0.035178 0.005145 -0.009471
v 0.031621 0.015820 -0.009746
v 0.032442 0.015272 -0.000164
f 222 219 224 
f 217 216 218 
f 216 217 219 
f 219 215 221 
f 216 219 221 
f 220 216 221 
f 215 220 221 
f 215 219 222 
f 218 216 223 
f 216 220 223 
f 220 215 223 
f 215 222 223 
f 222 218 223 
f 217 218 224 
f 219 217 224 
f 218 222 224 
o convex_15
v -0.027790 -0.022509 0.013254
v -0.016293 -0.022235 0.025572
v -0.016569 -0.022235 0.025572
v -0.016293 -0.024151 0.012705
v -0.019853 -0.023330 0.020368
v -0.017937 -0.023604 0.009692
v -0.028338 -0.022235 0.009692
v -0.025052 -0.023604 0.009692
v -0.016569 -0.023604 0.021190
v -0.022316 -0.022235 0.021190
f 227 231 234 
f 226 228 230 
f 227 226 231 
f 226 230 231 
f 229 225 232 
f 230 228 232 
f 231 230 232 
f 225 231 232 
f 226 227 233 
f 228 226 233 
f 227 229 233 
f 229 232 233 
f 232 228 233 
f 225 229 234 
f 229 227 234 
f 231 225 234 
o convex_16
v -0.000964 -0.023056 0.028582
v -0.016293 -0.024151 0.009694
v -0.016293 -0.024151 0.012981
v 0.014097 -0.024151 0.009694
v -0.016293 -0.022235 0.024746
v 0.014097 -0.022235 0.024746
v 0.006431 -0.023877 0.022559
v 0.014097 -0.023877 0.009694
v -0.012182 -0.023604 0.023652
v -0.002056 -0.024425 0.012709
v 0.014097 -0.023330 0.023107
v 0.003968 -0.022235 0.029401
v -0.016293 -0.023877 0.009694
v -0.005066 -0.023877 0.023381
v -0.010540 -0.022509 0.028308
v -0.016293 -0.023330 0.023107
v 0.012179 -0.024151 0.015171
v 0.009442 -0.023056 0.026663
v 0.006976 -0.024425 0.009694
v -0.007532 -0.024151 0.019003
v 0.003144 -0.024151 0.019553
f 254 244 255 
f 236 237 239 
f 238 236 242 
f 240 238 242 
f 239 240 242 
f 237 236 244 
f 238 240 245 
f 240 239 246 
f 236 239 247 
f 242 236 247 
f 239 242 247 
f 241 235 248 
f 235 243 248 
f 243 235 249 
f 235 246 249 
f 246 239 249 
f 239 237 250 
f 237 243 250 
f 243 249 250 
f 249 239 250 
f 238 245 251 
f 245 241 251 
f 235 241 252 
f 245 240 252 
f 241 245 252 
f 246 235 252 
f 240 246 252 
f 236 238 253 
f 244 236 253 
f 238 251 253 
f 243 237 254 
f 237 244 254 
f 248 243 254 
f 248 254 255 
f 241 248 255 
f 251 241 255 
f 244 253 255 
f 253 251 255 
o convex_17
v -0.036554 0.002406 0.016535
v -0.039564 -0.008819 0.009691
v -0.040934 -0.007724 0.000110
v -0.036554 -0.008819 0.017356
v -0.039291 0.003774 0.000110
v -0.040385 -0.002521 0.007502
v -0.034911 0.004322 0.016809
v -0.037375 -0.005534 0.017632
v -0.037922 0.004596 0.010789
v -0.040660 -0.007724 0.000110
v -0.040660 -0.000059 0.000384
v -0.039017 -0.002248 0.012979
v -0.040660 -0.006902 0.007228
v -0.039564 0.002679 0.006406
v -0.039290 -0.006902 0.012979
v -0.035185 0.004596 0.017632
f 264 256 271 
f 257 258 265 
f 259 257 265 
f 258 260 265 
f 262 259 265 
f 260 262 265 
f 260 258 266 
f 263 256 267 
f 256 264 267 
f 258 257 268 
f 266 258 268 
f 261 266 268 
f 264 260 269 
f 260 266 269 
f 266 261 269 
f 261 267 269 
f 267 264 269 
f 257 259 270 
f 259 263 270 
f 267 261 270 
f 263 267 270 
f 268 257 270 
f 261 268 270 
f 259 262 271 
f 262 260 271 
f 263 259 271 
f 256 263 271 
f 260 264 271 
o convex_18
v 0.019574 -0.022235 0.021737
v 0.026965 -0.022235 0.010241
v 0.026965 -0.022509 0.010241
v 0.014097 -0.023877 0.009692
v 0.019028 -0.023604 0.016813
v 0.014097 -0.022235 0.024476
v 0.014097 -0.023604 0.021190
v 0.020395 -0.023877 0.009692
v 0.026143 -0.022235 0.009692
v 0.022035 -0.023056 0.017085
v 0.014372 -0.024151 0.012705
f 279 276 282 
f 274 273 272 
f 272 273 277 
f 272 277 278 
f 277 275 278 
f 273 274 280 
f 277 273 280 
f 275 277 280 
f 274 279 280 
f 279 275 280 
f 274 272 281 
f 272 278 281 
f 278 276 281 
f 279 274 281 
f 276 279 281 
f 276 278 282 
f 278 275 282 
f 275 279 282 
o convex_19
v -0.025602 -0.022781 -0.016042
v -0.016567 -0.023877 -0.009746
v -0.016567 -0.024151 -0.009746
v -0.016567 -0.023055 -0.021519
v -0.025053 -0.018676 -0.021245
v -0.025602 -0.023055 -0.009746
v -0.020401 -0.023055 -0.021245
v -0.024505 -0.023603 -0.011664
v -0.016842 -0.023603 -0.020971
v -0.025602 -0.019224 -0.021519
f 286 289 292 
f 284 285 286 
f 284 286 287 
f 284 287 288 
f 285 284 288 
f 288 283 290 
f 285 288 290 
f 283 289 290 
f 290 289 291 
f 286 285 291 
f 289 286 291 
f 285 290 291 
f 287 286 292 
f 288 287 292 
f 283 288 292 
f 289 283 292 
o convex_20
v 0.025595 -0.023056 -0.010295
v 0.019299 -0.022235 -0.022067
v 0.019299 -0.021961 -0.022067
v 0.007800 -0.024151 -0.009746
v 0.009718 -0.023877 -0.021244
v 0.026689 -0.021961 -0.009746
v 0.016289 -0.024151 -0.009746
v 0.019573 -0.023330 -0.018507
v 0.008076 -0.023330 -0.021518
v 0.007800 -0.023877 -0.009746
v 0.023679 -0.022509 -0.016864
v 0.007800 -0.024151 -0.017684
v 0.017929 -0.023877 -0.014402
v 0.019023 -0.021961 -0.021244
f 301 302 306 
f 298 296 299 
f 293 298 299 
f 297 294 300 
f 295 294 301 
f 294 297 301 
f 296 298 302 
f 294 295 303 
f 298 293 303 
f 295 298 303 
f 300 294 303 
f 293 300 303 
f 299 296 304 
f 301 297 304 
f 296 302 304 
f 302 301 304 
f 293 299 305 
f 297 300 305 
f 300 293 305 
f 299 304 305 
f 304 297 305 
f 298 295 306 
f 295 301 306 
f 302 298 306 
o convex_21
v 0.027237 -0.015665 -0.023159
v 0.034084 -0.015117 -0.009746
v 0.033535 -0.015117 -0.009746
v 0.027512 -0.021961 -0.009746
v 0.019299 -0.015117 -0.029732
v 0.020123 -0.021961 -0.021790
v 0.027237 -0.020591 -0.009746
v 0.031071 -0.015391 -0.017963
v 0.019299 -0.020865 -0.021790
v 0.024504 -0.021961 -0.016319
v 0.021764 -0.015391 -0.028908
v 0.033809 -0.015391 -0.011664
v 0.028880 -0.015117 -0.021517
f 317 311 319 
f 308 309 310 
f 309 308 311 
f 310 309 313 
f 309 311 313 
f 312 310 315 
f 311 312 315 
f 313 311 315 
f 310 313 315 
f 312 307 316 
f 310 312 316 
f 314 310 316 
f 307 314 316 
f 307 312 317 
f 312 311 317 
f 308 310 318 
f 314 308 318 
f 310 314 318 
f 311 308 319 
f 308 314 319 
f 314 307 319 
f 307 317 319 
o convex_22
v 0.030798 -0.010189 -0.023985
v 0.019299 -0.006904 -0.034660
v 0.019299 -0.006083 -0.034660
v 0.028334 -0.014841 -0.021247
v 0.032441 -0.006083 -0.021247
v 0.019847 -0.015116 -0.030553
v 0.027511 -0.009094 -0.028362
v 0.019299 -0.014841 -0.030005
v 0.028334 -0.006083 -0.027817
v 0.026417 -0.013746 -0.026449
v 0.022586 -0.011282 -0.031648
v 0.029155 -0.015116 -0.021521
v 0.019299 -0.006083 -0.034112
v 0.032714 -0.009094 -0.021521
v 0.023133 -0.006630 -0.032470
v 0.019574 -0.011282 -0.033565
f 321 334 335 
f 322 321 327 
f 323 324 327 
f 322 324 328 
f 320 326 328 
f 326 320 329 
f 326 329 330 
f 329 325 330 
f 323 327 331 
f 327 325 331 
f 329 320 331 
f 325 329 331 
f 324 322 332 
f 322 327 332 
f 327 324 332 
f 324 323 333 
f 320 328 333 
f 328 324 333 
f 331 320 333 
f 323 331 333 
f 321 322 334 
f 322 328 334 
f 328 326 334 
f 326 330 334 
f 334 330 335 
f 327 321 335 
f 325 327 335 
f 330 325 335 
o convex_23
v 0.031895 -0.014841 -0.017412
v 0.037917 -0.006083 -0.009746
v 0.037917 -0.006630 -0.009746
v 0.033263 -0.006083 -0.021246
v 0.028608 -0.014841 -0.020697
v 0.033809 -0.015116 -0.009746
v 0.036000 -0.011556 -0.013032
v 0.037369 -0.006083 -0.009746
v 0.032169 -0.011556 -0.020970
v 0.032716 -0.006083 -0.020970
v 0.034630 -0.008820 -0.018507
v 0.035451 -0.013746 -0.010021
v 0.029157 -0.015116 -0.021246
v 0.036821 -0.006904 -0.013855
f 342 346 349 
f 338 337 341 
f 337 339 343 
f 341 337 343 
f 340 341 343 
f 342 336 344 
f 343 339 345 
f 340 343 345 
f 344 339 346 
f 342 344 346 
f 341 336 347 
f 338 341 347 
f 342 338 347 
f 336 342 347 
f 341 340 348 
f 336 341 348 
f 344 336 348 
f 339 344 348 
f 345 339 348 
f 340 345 348 
f 337 338 349 
f 339 337 349 
f 338 342 349 
f 346 339 349 
o convex_24
v 0.024773 0.016368 -0.021793
v 0.017383 0.005144 -0.033291
v 0.017932 0.005144 -0.033291
v 0.029702 0.005144 -0.021793
v 0.017383 0.025129 -0.021793
v 0.021217 0.009526 -0.029458
v 0.017658 0.024034 -0.023984
v 0.026417 0.005693 -0.026723
v 0.017383 0.005144 -0.032743
v 0.023682 0.014181 -0.024806
v 0.029155 0.007884 -0.022342
v 0.020669 0.022938 -0.022069
v 0.017658 0.010895 -0.031101
f 356 355 362 
f 351 352 353 
f 353 350 354 
f 351 354 356 
f 353 352 357 
f 352 355 357 
f 351 353 358 
f 353 354 358 
f 354 351 358 
f 355 356 359 
f 357 355 359 
f 357 359 360 
f 350 353 360 
f 353 357 360 
f 359 350 360 
f 354 350 361 
f 356 354 361 
f 350 359 361 
f 359 356 361 
f 352 351 362 
f 355 352 362 
f 351 356 362 
o convex_25
v -0.050517 0.001586 -0.000437
v -0.061193 0.009798 -0.000163
v -0.061193 0.009798 0.000110
v -0.051338 -0.005532 0.000657
v -0.057907 0.011441 0.004764
v -0.056812 0.011441 -0.004544
v -0.050790 -0.003889 -0.004544
v -0.050517 -0.003889 0.004490
v -0.058455 0.002407 0.002026
v -0.058455 0.003227 -0.003175
v -0.054899 0.011441 0.001752
v -0.059550 0.011441 -0.004270
v -0.058728 0.005964 0.004217
v -0.050517 -0.000057 0.003942
v -0.050517 -0.000057 -0.003997
v -0.055720 -0.001426 -0.001806
v -0.054899 0.011441 -0.001532
v -0.060645 0.011441 0.003121
v -0.055446 -0.000879 0.003395
v -0.057633 0.004596 -0.004544
v -0.060372 0.006238 0.001479
v -0.050517 -0.005807 -0.001806
v -0.060372 0.008427 -0.003175
v -0.055990 0.011441 0.003942
v -0.050517 -0.002247 0.004764
v -0.056538 0.002407 0.004490
v -0.059276 0.003501 -0.000984
f 385 372 389 
f 368 367 373 
f 367 368 374 
f 370 363 376 
f 363 373 376 
f 369 368 377 
f 363 370 377 
f 372 369 378 
f 373 363 379 
f 368 373 379 
f 377 368 379 
f 363 377 379 
f 364 365 380 
f 374 364 380 
f 367 374 380 
f 375 367 380 
f 366 370 381 
f 378 366 381 
f 371 378 381 
f 368 369 382 
f 369 372 382 
f 374 368 382 
f 365 364 383 
f 371 375 383 
f 380 365 383 
f 375 380 383 
f 370 366 384 
f 369 377 384 
f 377 370 384 
f 366 378 384 
f 378 369 384 
f 364 374 385 
f 382 372 385 
f 374 382 385 
f 373 367 386 
f 376 373 386 
f 376 386 387 
f 370 376 387 
f 386 367 387 
f 370 387 388 
f 367 375 388 
f 375 371 388 
f 381 370 388 
f 371 381 388 
f 387 367 388 
f 378 371 389 
f 372 378 389 
f 383 364 389 
f 371 383 389 
f 364 385 389 
o convex_26
v -0.050516 0.001037 0.001752
v -0.050516 -0.006081 -0.001532
v -0.050516 -0.006081 0.001479
v -0.040934 -0.009912 -0.004544
v -0.040934 -0.009091 0.004764
v -0.040934 -0.003891 -0.000163
v -0.050241 -0.000332 -0.003997
v -0.041209 -0.011557 0.001204
v -0.050241 -0.001153 0.004490
v -0.050516 -0.003891 -0.004544
v -0.050516 -0.004987 0.003942
v -0.040934 -0.007723 -0.004544
v -0.045042 -0.009091 -0.003175
v -0.041209 -0.007448 0.004490
v -0.043673 -0.009912 0.003121
v -0.050241 0.001037 -0.001532
v -0.050241 -0.000059 0.003669
f 398 403 406 
f 390 391 392 
f 394 393 395 
f 392 391 397 
f 393 394 397 
f 391 390 399 
f 390 396 399 
f 390 392 400 
f 398 390 400 
f 394 398 400 
f 395 393 401 
f 396 395 401 
f 393 399 401 
f 399 396 401 
f 397 391 402 
f 393 397 402 
f 391 399 402 
f 399 393 402 
f 394 395 403 
f 398 394 403 
f 392 397 404 
f 397 394 404 
f 400 392 404 
f 394 400 404 
f 390 395 405 
f 396 390 405 
f 395 396 405 
f 395 390 406 
f 390 398 406 
f 403 395 406 
o convex_27
v -0.054351 0.015274 0.004217
v -0.059276 0.011441 -0.004544
v -0.060371 0.011441 -0.003449
v -0.059550 0.015274 -0.003449
v -0.051613 0.015274 -0.002080
v -0.058181 0.011441 0.004764
v -0.060371 0.015274 0.002026
v -0.054898 0.011441 0.001479
v -0.056813 0.011441 -0.004544
v -0.061194 0.011441 0.001479
v -0.055172 0.015274 -0.004544
v -0.051613 0.015000 0.002026
v -0.058455 0.015274 0.004490
v -0.060918 0.014179 -0.001532
f 416 413 420 
f 408 409 410 
f 410 407 411 
f 409 408 412 
f 407 410 413 
f 412 408 414 
f 411 414 415 
f 414 408 415 
f 409 412 416 
f 408 410 417 
f 410 411 417 
f 415 408 417 
f 411 415 417 
f 411 407 418 
f 407 412 418 
f 414 411 418 
f 412 414 418 
f 412 407 419 
f 407 413 419 
f 416 412 419 
f 413 416 419 
f 410 409 420 
f 413 410 420 
f 409 416 420 
o convex_28
v -0.050245 0.019927 0.003121
v -0.058181 0.015275 -0.004544
v -0.059000 0.015275 -0.003997
v -0.034363 0.016096 0.003395
v -0.034363 0.019928 -0.003997
v -0.058181 0.015275 0.004490
v -0.034363 0.019381 0.004490
v -0.034363 0.016096 -0.003449
v -0.053799 0.019653 -0.002080
v -0.034363 0.020750 0.002026
v -0.058453 0.017739 0.002026
v -0.047233 0.020201 -0.003175
v -0.049697 0.015275 -0.000437
v -0.051882 0.018559 -0.004544
v -0.034363 0.017465 -0.004544
v -0.052432 0.018559 0.004490
v -0.046413 0.020749 -0.000163
v -0.034363 0.018286 0.004764
v -0.034363 0.020750 -0.002080
v -0.057906 0.017739 -0.002902
v -0.060373 0.015822 0.000383
v -0.056263 0.015275 0.004764
v -0.053799 0.019653 0.002026
v -0.045043 0.020201 0.003395
f 430 437 444 
f 423 422 426 
f 424 425 427 
f 425 424 428 
f 427 425 430 
f 426 422 433 
f 422 428 433 
f 428 424 433 
f 432 425 434 
f 429 432 434 
f 428 422 435 
f 425 428 435 
f 422 434 435 
f 434 425 435 
f 431 426 436 
f 432 429 437 
f 424 427 438 
f 427 436 438 
f 430 425 439 
f 425 432 439 
f 437 430 439 
f 432 437 439 
f 422 423 440 
f 431 429 440 
f 434 422 440 
f 429 434 440 
f 423 426 441 
f 426 431 441 
f 440 423 441 
f 431 440 441 
f 426 433 442 
f 433 424 442 
f 436 426 442 
f 424 438 442 
f 438 436 442 
f 429 431 443 
f 436 421 443 
f 431 436 443 
f 421 437 443 
f 437 429 443 
f 427 430 444 
f 436 427 444 
f 421 436 444 
f 437 421 444 
o convex_29
v 0.024503 -0.023602 -0.005090
v 0.037096 -0.012654 0.003668
v 0.036820 -0.012654 0.006678
v 0.028334 -0.022508 0.005036
v 0.023954 -0.023055 0.009692
v 0.035453 -0.012654 -0.009743
v 0.028334 -0.022508 -0.005090
v 0.023954 -0.023055 -0.009746
v 0.035453 -0.012654 0.009691
v 0.036000 -0.014845 -0.000710
v 0.034357 -0.015391 -0.009469
v 0.027239 -0.022508 0.009692
v 0.026693 -0.022781 -0.009746
v 0.034631 -0.015391 0.008322
v 0.036820 -0.012928 -0.006732
v 0.026146 -0.023329 0.004762
v 0.034905 -0.015666 -0.005910
v 0.028608 -0.022508 -0.001802
f 461 454 462 
f 447 446 450 
f 445 449 452 
f 449 450 452 
f 447 450 453 
f 450 449 453 
f 446 447 454 
f 453 449 456 
f 451 445 457 
f 445 452 457 
f 452 450 457 
f 455 451 457 
f 450 455 457 
f 447 453 458 
f 454 447 458 
f 448 454 458 
f 456 448 458 
f 453 456 458 
f 450 446 459 
f 446 454 459 
f 455 450 459 
f 449 445 460 
f 448 456 460 
f 456 449 460 
f 451 455 461 
f 459 454 461 
f 455 459 461 
f 445 451 462 
f 454 448 462 
f 460 445 462 
f 448 460 462 
f 451 461 462 
o convex_30
v 0.036273 0.007609 0.001480
v 0.031347 0.016094 0.009692
v 0.030799 0.016094 0.009692
v 0.035178 0.005145 0.009692
v 0.032716 0.014725 0.000110
v 0.036273 0.005693 0.000110
v 0.036547 0.005693 0.006406
v 0.032442 0.016094 0.005859
v 0.032989 0.015820 0.000110
v 0.034357 0.009525 0.009692
v 0.030799 0.015820 0.009419
f 468 466 473 
f 464 465 466 
f 468 463 469 
f 466 468 469 
f 465 464 470 
f 469 463 470 
f 467 465 471 
f 468 467 471 
f 463 468 471 
f 465 470 471 
f 470 463 471 
f 464 466 472 
f 466 469 472 
f 470 464 472 
f 469 470 472 
f 466 465 473 
f 465 467 473 
f 467 468 473 
o convex_31
v 0.038190 -0.005808 -0.009471
v 0.035726 -0.012652 -0.009745
v 0.032716 -0.006629 -0.009745
v 0.032716 -0.012378 0.000383
v 0.038190 -0.010187 0.000383
v 0.037916 -0.003343 -0.006734
v 0.032716 -0.004713 -0.009471
v 0.037369 -0.012652 -0.002081
v 0.032716 -0.011009 -0.006186
v 0.038190 -0.003343 -0.009745
v 0.038190 -0.009640 -0.007007
v 0.037369 -0.012652 0.000383
f 481 478 485 
f 477 478 479 
f 476 477 480 
f 477 479 480 
f 476 475 482 
f 477 476 482 
f 475 477 482 
f 474 475 483 
f 475 476 483 
f 478 474 483 
f 479 478 483 
f 476 480 483 
f 480 479 483 
f 475 474 484 
f 474 478 484 
f 481 475 484 
f 478 481 484 
f 477 475 485 
f 478 477 485 
f 475 481 485 
o convex_32
v -0.040386 -0.004985 -0.008377
v -0.039291 0.003775 0.000110
v -0.039018 0.003775 -0.000986
v -0.040660 -0.007724 0.000110
v -0.037922 0.003227 -0.009746
v -0.040660 -0.000333 -0.001259
v -0.039565 -0.007724 -0.009746
v -0.039291 0.003227 -0.007008
v -0.040934 -0.007724 -0.004272
v -0.039565 -0.000880 -0.009746
v -0.040660 -0.003069 -0.006460
v -0.040934 -0.001701 0.000110
f 496 494 497 
f 488 487 489 
f 488 489 490 
f 490 489 492 
f 487 488 493 
f 488 490 493 
f 491 487 493 
f 486 492 494 
f 492 489 494 
f 492 486 495 
f 490 492 495 
f 493 490 495 
f 493 495 496 
f 491 493 496 
f 486 494 496 
f 495 486 496 
f 489 487 497 
f 487 491 497 
f 494 489 497 
f 491 496 497 
o convex_33
v -0.037373 -0.014022 0.009968
v -0.036004 -0.008819 0.018454
v -0.024509 -0.021139 0.018454
v -0.039015 -0.008819 0.009968
v -0.034361 -0.013749 0.018454
v -0.029436 -0.022235 0.009692
v -0.029436 -0.020592 0.009692
v -0.025604 -0.022235 0.017632
v -0.038742 -0.009641 0.013252
v -0.032992 -0.016211 0.016810
v -0.025056 -0.020592 0.017905
v -0.036004 -0.015117 0.012157
v -0.039563 -0.009641 0.009692
f 498 506 510 
f 500 499 502 
f 500 503 504 
f 500 502 505 
f 503 500 505 
f 499 501 506 
f 502 499 506 
f 505 502 507 
f 503 505 507 
f 499 500 508 
f 501 499 508 
f 500 504 508 
f 504 501 508 
f 498 503 509 
f 506 498 509 
f 502 506 509 
f 507 502 509 
f 503 507 509 
f 503 498 510 
f 501 504 510 
f 504 503 510 
f 506 501 510 
o convex_34
v -0.014924 -0.009094 0.037617
v -0.019578 -0.022235 0.022836
v -0.019303 -0.022235 0.022836
v -0.011365 -0.022235 0.028311
v -0.019578 -0.013749 0.033237
v -0.010817 -0.008819 0.038164
v -0.019578 -0.008819 0.035153
v -0.011092 -0.013749 0.036522
v -0.010817 -0.020592 0.028311
v -0.019029 -0.020592 0.023931
v -0.018757 -0.022235 0.024479
v -0.017387 -0.016759 0.031595
v -0.013282 -0.013474 0.036248
v -0.019303 -0.011557 0.034880
f 515 523 524 
f 512 513 514 
f 512 515 517 
f 511 516 517 
f 516 511 518 
f 516 518 519 
f 514 513 519 
f 518 514 519 
f 513 512 520 
f 512 517 520 
f 517 516 520 
f 516 519 520 
f 519 513 520 
f 512 514 521 
f 515 512 521 
f 515 521 522 
f 521 514 522 
f 522 514 523 
f 518 511 523 
f 514 518 523 
f 515 522 523 
f 511 517 524 
f 517 515 524 
f 523 511 524 
o convex_35
v -0.010543 -0.016211 0.034606
v -0.000413 -0.008819 0.039809
v -0.000413 -0.008819 0.039533
v -0.000413 -0.022235 0.029953
v -0.010817 -0.020864 0.028311
v -0.010817 -0.008819 0.038164
v -0.001510 -0.013749 0.037891
v -0.000413 -0.020592 0.029953
v -0.008627 -0.011557 0.038440
v -0.005888 -0.022235 0.029681
v -0.010817 -0.022235 0.028311
v -0.006436 -0.015390 0.036249
v -0.000413 -0.011832 0.038987
v -0.006984 -0.009094 0.039533
v -0.010817 -0.013474 0.036796
f 536 533 539 
f 527 526 528 
f 527 529 530 
f 526 527 530 
f 527 528 532 
f 528 529 532 
f 529 527 532 
f 529 528 535 
f 530 529 535 
f 534 525 535 
f 528 534 535 
f 528 531 536 
f 531 533 536 
f 525 534 536 
f 534 528 536 
f 528 526 537 
f 531 528 537 
f 533 531 537 
f 533 537 538 
f 526 530 538 
f 530 533 538 
f 537 526 538 
f 533 530 539 
f 530 535 539 
f 535 525 539 
f 525 536 539 
o convex_36
v 0.038190 0.003501 0.006132
v 0.037916 -0.003343 0.006406
v 0.037916 -0.000331 0.000384
v 0.032716 0.002680 0.006680
v 0.032716 0.004322 0.000110
v 0.032716 -0.002795 0.009692
v 0.035726 0.005144 0.009692
v 0.038190 0.004870 0.000110
v 0.038190 -0.002795 0.009692
f 542 547 548 
f 542 541 545 
f 543 544 545 
f 544 542 545 
f 544 543 546 
f 543 545 546 
f 542 544 547 
f 546 540 547 
f 544 546 547 
f 541 542 548 
f 545 541 548 
f 540 546 548 
f 546 545 548 
f 547 540 548 
o convex_37
v -0.036005 0.002132 0.017632
v -0.027792 -0.004164 0.029953
v -0.027792 -0.002248 0.029678
v -0.033540 -0.003069 0.023928
v -0.036278 -0.008819 0.017907
v -0.027792 0.004596 0.026939
v -0.027792 -0.008819 0.029130
v -0.034362 0.004322 0.017907
v -0.031353 0.004596 0.023928
v -0.032993 -0.008819 0.024475
v -0.037099 -0.004710 0.018181
v -0.029162 0.000763 0.028035
v -0.029710 -0.007176 0.028581
f 560 552 561 
f 551 550 554 
f 554 550 555 
f 554 555 556 
f 553 549 556 
f 555 553 556 
f 549 552 557 
f 554 556 557 
f 556 549 557 
f 553 555 558 
f 552 549 559 
f 549 553 559 
f 558 552 559 
f 553 558 559 
f 550 551 560 
f 551 554 560 
f 557 552 560 
f 554 557 560 
f 555 550 561 
f 552 558 561 
f 558 555 561 
f 550 560 561 
o convex_38
v -0.028068 0.023761 0.014072
v -0.037921 0.004596 0.009692
v -0.037646 0.004596 0.009692
v -0.035183 0.004596 0.016537
v -0.027793 0.025129 0.009692
v -0.033814 0.015003 0.011062
v -0.027793 0.020199 0.016263
v -0.033541 0.010620 0.016537
v -0.029710 0.024033 0.009692
v -0.037373 0.004871 0.012705
v -0.035183 0.004596 0.015988
v -0.028341 0.020748 0.016537
f 562 569 573 
f 563 564 565 
f 564 563 566 
f 566 562 568 
f 562 567 569 
f 562 566 570 
f 566 563 570 
f 563 567 570 
f 567 562 570 
f 563 565 571 
f 567 563 571 
f 565 569 571 
f 569 567 571 
f 565 564 572 
f 564 566 572 
f 568 565 572 
f 566 568 572 
f 565 568 573 
f 568 562 573 
f 569 565 573 
o convex_39
v -0.028614 0.019379 0.017359
v -0.027793 0.004873 0.027489
v -0.028067 0.004873 0.027489
v -0.035183 0.004596 0.016537
v -0.027793 0.019653 0.016537
v -0.032719 0.005692 0.021466
v -0.028067 0.004596 0.026393
v -0.033541 0.010347 0.016813
v -0.028067 0.014450 0.022013
v -0.030805 0.009799 0.021740
v -0.035183 0.004596 0.017906
f 579 581 584 
f 575 576 580 
f 577 578 580 
f 578 575 580 
f 574 578 581 
f 578 577 581 
f 576 575 582 
f 578 574 582 
f 575 578 582 
f 579 576 583 
f 574 581 583 
f 581 579 583 
f 576 582 583 
f 582 574 583 
f 576 579 584 
f 580 576 584 
f 577 580 584 
f 581 577 584 
o convex_40
v 0.005062 -0.022235 0.029407
v 0.001778 -0.008545 0.039809
v -0.000413 -0.008545 0.039809
v 0.010263 -0.020865 0.027490
v 0.010538 -0.014022 0.035974
v 0.010538 -0.008545 0.037891
v -0.000413 -0.022235 0.029953
v 0.000409 -0.014022 0.037617
v -0.000413 -0.020592 0.029953
v 0.010538 -0.022235 0.027764
v 0.005883 -0.011284 0.038712
v -0.000413 -0.008545 0.039533
v 0.004517 -0.015390 0.036248
v -0.000413 -0.011010 0.039260
f 592 595 598 
f 587 586 590 
f 591 587 593 
f 588 591 593 
f 589 585 594 
f 590 589 594 
f 588 590 594 
f 591 588 594 
f 585 591 594 
f 590 586 595 
f 589 590 595 
f 587 590 596 
f 590 588 596 
f 593 587 596 
f 588 593 596 
f 585 589 597 
f 591 585 597 
f 592 591 597 
f 589 595 597 
f 595 592 597 
f 586 587 598 
f 587 591 598 
f 591 592 598 
f 595 586 598 
o convex_41
v 0.011361 -0.012379 0.036795
v 0.018751 -0.022235 0.021465
v 0.018751 -0.021960 0.021465
v 0.019025 -0.009368 0.034604
v 0.010813 -0.008545 0.037617
v 0.011087 -0.022235 0.027491
v 0.019025 -0.015937 0.030225
v 0.010539 -0.020317 0.027764
v 0.018751 -0.008545 0.034058
v 0.016287 -0.014571 0.033236
v 0.017382 -0.022235 0.023931
v 0.010539 -0.014295 0.035701
v 0.018751 -0.020865 0.022288
v 0.012182 -0.008545 0.037892
v 0.017656 -0.011559 0.034604
f 602 612 613 
f 600 601 605 
f 601 602 605 
f 601 600 606 
f 600 604 606 
f 604 605 608 
f 604 600 609 
f 605 604 609 
f 600 605 609 
f 599 603 610 
f 603 606 610 
f 606 604 610 
f 608 599 610 
f 604 608 610 
f 602 601 611 
f 601 606 611 
f 606 603 611 
f 607 602 611 
f 603 607 611 
f 603 599 612 
f 602 607 612 
f 607 603 612 
f 605 602 613 
f 599 608 613 
f 608 605 613 
f 612 599 613 
o convex_42
v 0.029431 -0.017030 0.017631
v 0.037643 -0.008545 0.009967
v 0.037643 -0.008545 0.009694
v 0.034355 -0.008545 0.017357
v 0.022311 -0.021960 0.017631
v 0.027240 -0.022235 0.009694
v 0.035179 -0.013475 0.012157
v 0.027240 -0.020592 0.009694
v 0.034083 -0.011284 0.017905
v 0.037095 -0.008545 0.009694
v 0.035725 -0.013475 0.009694
v 0.023134 -0.022235 0.017905
v 0.023407 -0.020592 0.017357
v 0.026147 -0.022235 0.012979
v 0.033534 -0.015390 0.012431
v 0.034904 -0.008545 0.017905
v 0.036548 -0.010463 0.012704
f 629 622 630 
f 615 616 617 
f 616 619 621 
f 619 618 621 
f 617 616 623 
f 616 621 623 
f 616 615 624 
f 619 616 624 
f 618 619 625 
f 614 622 625 
f 618 617 626 
f 621 618 626 
f 617 623 626 
f 623 621 626 
f 625 619 627 
f 614 625 627 
f 622 614 628 
f 620 622 628 
f 619 624 628 
f 624 620 628 
f 614 627 628 
f 627 619 628 
f 615 617 629 
f 617 618 629 
f 618 625 629 
f 625 622 629 
f 622 620 630 
f 624 615 630 
f 620 624 630 
f 615 629 630 
o convex_43
v 0.037095 -0.012651 0.005311
v 0.036547 0.000488 0.012430
v 0.036000 0.000488 0.012430
v 0.038190 -0.009913 0.000384
v 0.032716 -0.012103 0.000384
v 0.037095 -0.008545 0.012430
v 0.032716 -0.008817 0.008597
v 0.039286 -0.003071 0.009966
v 0.032715 -0.002523 0.009692
v 0.036547 0.000488 0.009692
v 0.035726 -0.012651 0.009692
v 0.037369 -0.012651 0.000384
v 0.038190 -0.009913 0.006407
v 0.032715 -0.005533 0.009966
v 0.032716 -0.012103 0.003670
v 0.038190 -0.003344 0.006679
f 640 638 646 
f 632 633 636 
f 632 636 638 
f 633 632 640 
f 634 635 640 
f 632 638 640 
f 639 633 640 
f 635 639 640 
f 631 636 641 
f 635 634 642 
f 631 641 642 
f 641 635 642 
f 636 631 643 
f 634 638 643 
f 638 636 643 
f 631 642 643 
f 642 634 643 
f 636 633 644 
f 633 639 644 
f 639 635 644 
f 641 636 644 
f 637 641 644 
f 635 641 645 
f 641 637 645 
f 644 635 645 
f 637 644 645 
f 638 634 646 
f 634 640 646 
o convex_44
v 0.026418 0.000490 0.028308
v 0.037096 -0.005806 0.013253
v 0.036548 -0.004164 0.014349
v 0.031348 -0.008545 0.023929
v 0.026418 -0.008545 0.028583
v 0.035726 0.000490 0.012704
v 0.031073 0.000490 0.023380
v 0.036548 -0.008545 0.012430
v 0.027513 -0.003617 0.028583
v 0.034631 -0.003070 0.018728
v 0.036548 0.000215 0.012704
v 0.034631 -0.007997 0.018728
v 0.031622 -0.005533 0.023929
v 0.026418 -0.000332 0.027762
v 0.026692 -0.006901 0.029405
f 659 655 661 
f 652 647 653 
f 650 651 654 
f 651 652 654 
f 653 647 655 
f 648 649 656 
f 653 656 657 
f 649 648 657 
f 652 653 657 
f 648 654 657 
f 654 652 657 
f 656 649 657 
f 654 648 658 
f 650 654 658 
f 648 656 658 
f 658 656 659 
f 653 655 659 
f 656 653 659 
f 650 658 659 
f 651 647 660 
f 652 651 660 
f 647 652 660 
f 647 651 661 
f 651 650 661 
f 655 647 661 
f 650 659 661 
o convex_45
v 0.031892 0.014723 0.010788
v 0.026418 0.016640 0.018178
v 0.026418 0.016640 0.018454
v 0.033263 0.000492 0.018178
v 0.026418 0.024581 0.009692
v 0.036548 0.000492 0.009692
v 0.032989 0.005145 0.017905
v 0.027241 0.021020 0.014619
v 0.036548 0.002957 0.009968
v 0.027241 0.024581 0.009692
v 0.034083 0.001040 0.018178
v 0.026693 0.017735 0.018454
v 0.031073 0.011170 0.016810
v 0.035177 0.005692 0.012157
f 674 668 675 
f 664 663 665 
f 663 664 666 
f 663 666 667 
f 665 663 667 
f 667 666 671 
f 669 662 671 
f 666 669 671 
f 662 670 671 
f 670 667 671 
f 664 665 672 
f 665 667 672 
f 667 670 672 
f 666 664 673 
f 669 666 673 
f 664 672 673 
f 672 668 673 
f 662 669 674 
f 669 673 674 
f 673 668 674 
f 670 662 675 
f 668 672 675 
f 672 670 675 
f 662 674 675 
o convex_46
v 0.028061 0.013904 0.019550
v 0.026692 0.000764 0.028310
v 0.026418 0.000764 0.028310
v 0.033262 0.000490 0.018454
v 0.026418 0.016368 0.018454
v 0.031071 0.002409 0.022561
v 0.026692 0.000490 0.027214
v 0.026692 0.008705 0.024750
v 0.032167 0.005966 0.018729
v 0.029704 0.006240 0.022561
v 0.033810 0.000490 0.018729
f 684 681 686 
f 677 678 682 
f 680 679 682 
f 678 680 682 
f 678 677 683 
f 676 680 683 
f 680 678 683 
f 680 676 684 
f 679 680 684 
f 681 684 685 
f 677 681 685 
f 683 677 685 
f 676 683 685 
f 684 676 685 
f 681 677 686 
f 677 682 686 
f 682 679 686 
f 679 684 686 
o convex_47
v 0.006977 -0.024425 -0.009746
v -0.016567 -0.023330 -0.021519
v -0.016567 -0.023056 -0.021519
v 0.007800 -0.023877 -0.021519
v -0.016567 -0.024151 -0.012760
v 0.007800 -0.023877 -0.009746
v -0.016567 -0.023877 -0.009746
v -0.005063 -0.024151 -0.019602
v 0.007800 -0.023604 -0.021519
v -0.008896 -0.024425 -0.009746
v -0.011090 -0.023877 -0.021519
v -0.016567 -0.023604 -0.012211
v 0.007800 -0.023604 -0.017412
f 692 695 699 
f 688 689 690 
f 689 688 691 
f 687 690 692 
f 689 691 693 
f 687 692 693 
f 690 687 694 
f 690 689 695 
f 692 690 695 
f 687 693 696 
f 693 691 696 
f 694 687 696 
f 691 694 696 
f 688 690 697 
f 691 688 697 
f 690 694 697 
f 694 691 697 
f 692 689 698 
f 689 693 698 
f 693 692 698 
f 689 692 699 
f 695 689 699 
o convex_48
v -0.020402 0.006240 -0.032744
v -0.025327 0.021570 -0.019058
v -0.025602 0.021570 -0.019058
v -0.015472 0.021570 -0.027542
v -0.016294 0.002132 -0.035208
v -0.025602 0.002132 -0.030006
v -0.025327 0.014452 -0.025078
v -0.019579 0.021570 -0.025627
v -0.016294 0.010622 -0.033016
v -0.025327 0.021022 -0.019058
v -0.023137 0.008158 -0.030280
v -0.015746 0.021294 -0.026994
v -0.019306 0.002682 -0.034659
v -0.025053 0.002132 -0.030006
v -0.017116 0.015272 -0.030554
v -0.025602 0.003230 -0.030280
v -0.023685 0.021570 -0.022070
v -0.016020 0.002132 -0.036028
f 712 708 717 
f 702 701 703 
f 702 703 707 
f 701 702 709 
f 702 705 709 
f 706 707 710 
f 703 701 711 
f 704 703 711 
f 701 709 711 
f 709 704 711 
f 700 708 712 
f 705 704 713 
f 704 709 713 
f 709 705 713 
f 707 703 714 
f 703 708 714 
f 708 700 714 
f 700 710 714 
f 710 707 714 
f 705 702 715 
f 702 706 715 
f 710 700 715 
f 706 710 715 
f 712 705 715 
f 700 712 715 
f 706 702 716 
f 707 706 716 
f 702 707 716 
f 703 704 717 
f 704 705 717 
f 708 703 717 
f 705 712 717 
o convex_49
v 0.036821 0.005144 -0.005091
v 0.032716 -0.003343 -0.009746
v 0.038190 -0.003343 -0.009746
v 0.037916 -0.000058 0.000110
v 0.032716 0.004322 0.000110
v 0.035453 0.005144 -0.009746
v 0.038190 0.004870 0.000110
v 0.038190 0.002680 -0.007280
v 0.032716 0.002132 -0.007280
v 0.038190 -0.003343 -0.006460
f 724 721 727 
f 719 721 722 
f 720 719 723 
f 722 718 723 
f 718 722 724 
f 722 721 724 
f 723 718 725 
f 720 723 725 
f 718 724 725 
f 724 720 725 
f 719 722 726 
f 723 719 726 
f 722 723 726 
f 719 720 727 
f 721 719 727 
f 720 724 727 
o convex_50
v -0.010270 0.023488 -0.026174
v -0.003694 0.021571 -0.031102
v -0.003694 0.021846 -0.031102
v 0.015190 0.022119 -0.026448
v 0.004513 0.025952 -0.027817
v -0.017936 0.021571 -0.026174
v -0.011363 0.025952 -0.026174
v 0.008890 0.021571 -0.029732
v -0.008354 0.025130 -0.028638
v 0.010262 0.025677 -0.026448
v 0.002872 0.024857 -0.029458
v -0.011091 0.021846 -0.029732
v 0.015190 0.021571 -0.026448
v -0.014920 0.024582 -0.026722
v -0.002326 0.025677 -0.028911
v 0.009711 0.024857 -0.027817
v 0.004513 0.021846 -0.030828
f 743 735 744 
f 728 731 734 
f 733 728 734 
f 733 729 735 
f 734 731 737 
f 732 734 737 
f 730 729 739 
f 729 733 739 
f 736 730 739 
f 731 728 740 
f 728 733 740 
f 735 731 740 
f 733 735 740 
f 733 734 741 
f 734 736 741 
f 739 733 741 
f 736 739 741 
f 734 732 742 
f 730 736 742 
f 736 734 742 
f 738 730 742 
f 732 738 742 
f 731 735 743 
f 737 731 743 
f 732 737 743 
f 738 732 743 
f 738 743 744 
f 729 730 744 
f 735 729 744 
f 730 738 744 
o convex_51
v 0.026691 0.003775 -0.027268
v 0.017383 -0.006081 -0.035755
v 0.017383 -0.003617 -0.035755
v 0.017931 0.004869 -0.032470
v 0.032167 -0.006081 -0.021793
v 0.026965 -0.006081 -0.029183
v 0.029701 0.005144 -0.021793
v 0.031070 -0.000335 -0.023711
v 0.022310 0.001310 -0.031922
v 0.017383 -0.006081 -0.035206
v 0.018480 0.005144 -0.033017
v 0.030249 0.005144 -0.022342
v 0.023132 -0.005533 -0.032470
v 0.027239 -0.001150 -0.028363
v 0.032715 -0.004986 -0.022069
v 0.022310 0.005144 -0.030554
v 0.017383 0.004322 -0.033017
f 748 755 761 
f 749 746 750 
f 747 746 754 
f 746 749 754 
f 748 751 755 
f 753 747 755 
f 752 745 756 
f 755 751 756 
f 746 747 757 
f 750 746 757 
f 747 753 757 
f 757 753 758 
f 752 750 758 
f 745 752 758 
f 753 745 758 
f 750 757 758 
f 749 750 759 
f 751 749 759 
f 750 752 759 
f 756 751 759 
f 752 756 759 
f 745 753 760 
f 753 755 760 
f 756 745 760 
f 755 756 760 
f 751 748 761 
f 749 751 761 
f 747 754 761 
f 754 749 761 
f 755 747 761 
o convex_52
v -0.023686 0.025952 0.017359
v -0.013283 0.023214 0.028033
v -0.013283 0.022940 0.028033
v -0.019031 0.025952 0.010242
v -0.027791 0.022940 0.014075
v -0.013283 0.025952 0.025569
v -0.024779 0.023488 0.009694
v -0.027516 0.025952 0.009694
v -0.013283 0.025678 0.016813
v -0.022316 0.023214 0.022285
v -0.013283 0.023488 0.022558
v -0.018755 0.025130 0.023926
v -0.025326 0.024583 0.017905
v -0.027516 0.023488 0.009694
f 769 768 775 
f 763 764 767 
f 765 762 767 
f 764 766 768 
f 762 765 769 
f 765 768 769 
f 767 764 770 
f 765 767 770 
f 768 765 770 
f 764 763 771 
f 766 764 771 
f 764 768 772 
f 770 764 772 
f 768 770 772 
f 763 767 773 
f 767 762 773 
f 771 763 773 
f 771 773 774 
f 769 766 774 
f 762 769 774 
f 766 771 774 
f 773 762 774 
f 768 766 775 
f 766 769 775 
o convex_53
v 0.024501 0.018009 -0.021244
v 0.027786 0.023214 -0.009746
v 0.027238 0.023214 -0.009746
v 0.027786 0.009525 -0.021517
v 0.019848 0.022939 -0.021517
v 0.026143 0.023214 -0.014403
v 0.028060 0.011442 -0.021517
v 0.020669 0.023214 -0.021792
v 0.027512 0.022391 -0.009746
v 0.028060 0.018284 -0.015769
v 0.023954 0.022666 -0.018506
f 781 785 786 
f 778 777 781 
f 777 779 782 
f 779 780 783 
f 780 778 783 
f 778 781 783 
f 776 782 783 
f 782 779 783 
f 777 778 784 
f 779 777 784 
f 780 779 784 
f 778 780 784 
f 781 777 785 
f 777 782 785 
f 785 782 786 
f 782 776 786 
f 783 781 786 
f 776 783 786 
o convex_54
v 0.026964 0.023489 -0.012213
v 0.017383 0.025404 -0.021792
v 0.007529 0.025677 -0.020423
v 0.009444 0.027320 -0.009746
v 0.025320 0.025951 -0.010569
v 0.014920 0.023488 -0.020149
v 0.022857 0.023489 -0.009746
v 0.007529 0.027047 -0.009746
v 0.020395 0.023214 -0.021792
v 0.017930 0.025951 -0.021244
v 0.022857 0.025131 -0.017685
v 0.027785 0.023214 -0.009746
v 0.007529 0.026499 -0.017684
v 0.026141 0.025677 -0.009746
f 790 798 800 
f 789 792 794 
f 793 790 794 
f 792 793 794 
f 789 788 795 
f 792 789 795 
f 788 789 796 
f 790 791 796 
f 795 788 796 
f 795 796 797 
f 787 795 797 
f 796 791 797 
f 790 793 798 
f 793 792 798 
f 795 787 798 
f 792 795 798 
f 789 794 799 
f 794 790 799 
f 796 789 799 
f 790 796 799 
f 791 790 800 
f 787 797 800 
f 797 791 800 
f 798 787 800 
o convex_55
v 0.032168 -0.005259 -0.021792
v 0.038465 -0.002796 -0.009746
v 0.038465 -0.003070 -0.009746
v 0.032715 -0.003070 -0.009746
v 0.031620 -0.000606 -0.021792
v 0.037916 -0.006081 -0.009746
v 0.036821 -0.000606 -0.009746
v 0.032715 -0.004985 -0.009746
v 0.034633 -0.006081 -0.019054
v 0.034359 -0.000880 -0.018506
v 0.032715 -0.006081 -0.021792
f 810 809 811 
f 803 802 804 
f 803 804 806 
f 804 802 807 
f 805 804 807 
f 805 801 808 
f 804 805 808 
f 806 804 808 
f 802 803 809 
f 803 806 809 
f 807 802 810 
f 805 807 810 
f 802 809 810 
f 801 805 811 
f 808 801 811 
f 806 808 811 
f 809 806 811 
f 805 810 811 
o convex_56
v 0.033535 0.001860 -0.018779
v 0.028336 0.022393 -0.009746
v 0.028336 0.022393 -0.010296
v 0.028061 0.008978 -0.021517
v 0.036821 -0.000605 -0.009746
v 0.034357 0.008156 -0.011938
v 0.029431 0.014450 -0.016863
v 0.031346 -0.000056 -0.021517
v 0.028061 0.021569 -0.009746
v 0.028336 0.010347 -0.021792
v 0.036546 -0.000331 -0.013034
v 0.034905 0.007884 -0.009746
v 0.032443 -0.000605 -0.021517
v 0.032713 0.006515 -0.017412
f 822 812 825 
f 814 817 818 
f 819 816 820 
f 813 814 820 
f 816 813 820 
f 815 819 820 
f 815 820 821 
f 814 818 821 
f 819 815 821 
f 820 814 821 
f 814 813 823 
f 813 816 823 
f 817 814 823 
f 816 822 823 
f 822 817 823 
f 816 819 824 
f 821 812 824 
f 819 821 824 
f 822 816 824 
f 812 822 824 
f 818 817 825 
f 821 818 825 
f 812 821 825 
f 817 822 825 
o convex_57
v 0.017382 0.024309 -0.023982
v 0.006706 0.024582 -0.026446
v 0.006706 0.025404 -0.026446
v -0.006710 0.025951 -0.020424
v 0.014917 0.021572 -0.026172
v -0.006710 0.023488 -0.025625
v 0.014642 0.023488 -0.020424
v 0.017382 0.025952 -0.020973
v 0.009170 0.025952 -0.026446
v -0.006434 0.024856 -0.025078
v 0.017382 0.021572 -0.024803
v -0.005887 0.026225 -0.020699
v -0.006710 0.023488 -0.025078
v 0.017382 0.025677 -0.020424
v 0.015738 0.021846 -0.026446
v 0.012453 0.025404 -0.026172
v -0.006710 0.025677 -0.020424
f 838 832 842 
f 828 827 831 
f 827 828 834 
f 828 831 835 
f 831 829 835 
f 834 828 835 
f 826 833 836 
f 833 834 837 
f 835 829 837 
f 834 835 837 
f 831 830 838 
f 829 831 838 
f 830 836 838 
f 836 832 838 
f 829 832 839 
f 832 836 839 
f 836 833 839 
f 837 829 839 
f 833 837 839 
f 831 827 840 
f 830 831 840 
f 827 834 840 
f 826 836 840 
f 836 830 840 
f 833 826 841 
f 834 833 841 
f 840 834 841 
f 826 840 841 
f 832 829 842 
f 829 838 842 
o convex_58
v 0.039834 0.005144 -0.003724
v 0.043666 0.005418 -0.005638
v 0.040655 0.005418 0.000384
v 0.043666 0.000490 -0.008651
v 0.038191 0.000490 -0.008925
v 0.038191 0.004596 0.000384
v 0.038191 0.003227 -0.006734
v 0.043392 0.004048 -0.007828
f 847 849 850 
f 845 844 843 
f 844 845 846 
f 847 846 848 
f 845 843 848 
f 846 845 848 
f 843 844 849 
f 847 848 849 
f 848 843 849 
f 844 846 850 
f 846 847 850 
f 849 844 850 
o convex_59
v -0.031076 0.023214 -0.005638
v -0.019305 0.026225 0.009692
v -0.020126 0.026225 0.009692
v -0.019305 0.026225 -0.009746
v -0.029160 0.025951 -0.003174
v -0.025054 0.023488 0.009692
v -0.028887 0.025404 0.009418
v -0.025054 0.023488 -0.009746
v -0.028340 0.025678 -0.009746
v -0.029982 0.023214 0.009692
v -0.019579 0.025678 -0.009746
v -0.030803 0.024857 0.000378
v -0.019579 0.026499 -0.007280
v -0.027791 0.025951 0.009692
v -0.029434 0.023214 -0.009746
v -0.019579 0.025678 0.009692
v -0.020126 0.026499 0.005584
v -0.031076 0.023488 0.005584
f 862 851 868 
f 852 853 856 
f 854 858 859 
f 856 853 860 
f 854 852 861 
f 858 854 861 
f 856 858 861 
f 857 855 862 
f 859 851 862 
f 855 859 862 
f 852 854 863 
f 859 855 863 
f 854 859 863 
f 855 857 864 
f 860 853 864 
f 857 860 864 
f 858 856 865 
f 851 859 865 
f 859 858 865 
f 856 860 865 
f 860 851 865 
f 852 856 866 
f 861 852 866 
f 856 861 866 
f 853 852 867 
f 852 863 867 
f 863 855 867 
f 855 864 867 
f 864 853 867 
f 851 860 868 
f 860 857 868 
f 857 862 868 
o convex_60
v -0.020948 -0.013747 0.032415
v -0.033541 -0.014296 0.018454
v -0.033541 -0.014023 0.018454
v -0.019578 -0.021959 0.022562
v -0.019578 -0.008819 0.034879
v -0.036002 -0.008819 0.018457
v -0.028887 -0.012105 0.027487
v -0.024508 -0.022234 0.019002
v -0.027793 -0.008819 0.029951
v -0.024508 -0.020864 0.018454
v -0.027519 -0.015664 0.025300
v -0.020127 -0.022234 0.023383
v -0.033267 -0.011284 0.022836
v -0.019854 -0.011831 0.034330
v -0.030528 -0.015664 0.021742
v -0.023960 -0.013474 0.030771
v -0.032718 -0.009094 0.024752
v -0.019578 -0.015664 0.031320
v -0.025055 -0.009368 0.032140
v -0.036002 -0.010736 0.018729
v -0.022867 -0.015664 0.029404
f 886 869 889 
f 871 870 874 
f 873 874 877 
f 870 871 878 
f 873 872 878 
f 871 874 878 
f 874 873 878 
f 876 870 878 
f 872 876 878 
f 879 876 880 
f 876 872 880 
f 870 876 883 
f 879 875 883 
f 876 879 883 
f 881 870 883 
f 875 881 883 
f 875 879 884 
f 869 882 884 
f 877 874 885 
f 875 877 885 
f 881 875 885 
f 872 873 886 
f 880 872 886 
f 873 882 886 
f 882 869 886 
f 873 877 887 
f 877 875 887 
f 882 873 887 
f 875 884 887 
f 884 882 887 
f 874 870 888 
f 870 881 888 
f 885 874 888 
f 881 885 888 
f 879 880 889 
f 884 879 889 
f 869 884 889 
f 880 886 889 
o convex_61
v 0.039012 -0.007724 -0.008103
v 0.038465 0.000214 0.000383
v 0.039012 0.000489 -0.008650
v 0.038191 -0.004714 -0.009745
v 0.039012 -0.011009 0.000383
v 0.038191 -0.011009 0.000383
v 0.038191 0.000489 -0.008924
v 0.039012 -0.003072 0.000383
v 0.038191 -0.009640 -0.006186
v 0.038191 0.000214 0.000383
f 896 895 899 
f 892 890 893 
f 890 892 894 
f 894 891 895 
f 892 893 896 
f 893 895 896 
f 892 891 897 
f 894 892 897 
f 891 894 897 
f 893 890 898 
f 890 894 898 
f 894 895 898 
f 895 893 898 
f 891 892 899 
f 895 891 899 
f 892 896 899 
o convex_62
v -0.024780 -0.007449 0.032691
v -0.016568 0.001585 0.035974
v -0.016568 0.001585 0.035427
v -0.027791 0.001585 0.028859
v -0.026969 -0.008819 0.029680
v -0.016568 -0.008819 0.036249
v -0.019854 -0.003617 0.035701
v -0.027516 0.000763 0.028310
v -0.024505 0.001311 0.031870
v -0.016842 -0.008819 0.036796
v -0.027791 -0.004712 0.030227
v -0.027791 -0.008819 0.029953
v -0.025053 -0.003071 0.032417
f 903 910 912 
f 901 902 903 
f 902 901 905 
f 903 902 907 
f 902 905 907 
f 905 904 907 
f 901 903 908 
f 906 901 908 
f 904 905 909 
f 905 901 909 
f 906 900 909 
f 901 906 909 
f 903 907 911 
f 907 904 911 
f 909 900 911 
f 904 909 911 
f 900 910 911 
f 910 903 911 
f 900 906 912 
f 908 903 912 
f 906 908 912 
f 910 900 912 
o convex_63
v -0.021770 0.009524 0.030499
v -0.027791 0.001585 0.028312
v -0.027243 0.001585 0.028312
v -0.027516 0.014179 0.021739
v -0.016568 0.001860 0.035153
v -0.016568 0.014179 0.030499
v -0.025874 0.014179 0.024752
v -0.019032 0.002407 0.034881
v -0.027791 0.003502 0.028312
v -0.016842 0.013903 0.031320
v -0.027516 0.013630 0.021739
v -0.024231 0.001860 0.031868
v -0.027791 0.008428 0.026121
v -0.022043 0.014179 0.028039
v -0.023411 0.008428 0.029952
v -0.016842 0.006788 0.034331
f 922 913 928 
f 914 915 917 
f 918 916 919 
f 915 914 923 
f 917 915 923 
f 916 918 923 
f 918 917 923 
f 914 917 924 
f 917 920 924 
f 921 914 924 
f 919 916 925 
f 914 921 925 
f 923 914 925 
f 916 923 925 
f 918 919 926 
f 922 918 926 
f 913 922 926 
f 920 913 927 
f 924 920 927 
f 921 924 927 
f 919 925 927 
f 925 921 927 
f 926 919 927 
f 913 926 927 
f 917 918 928 
f 913 920 928 
f 920 917 928 
f 918 922 928 
o convex_64
v -0.011089 -0.006080 0.038987
v -0.000416 0.000216 0.039261
v -0.000416 0.000216 0.038987
v -0.016565 0.000216 0.035976
v -0.000416 -0.008819 0.039535
v -0.015743 -0.008819 0.036524
v -0.007807 -0.000881 0.039261
v -0.001237 -0.008271 0.040082
v -0.014923 -0.008819 0.037619
v -0.014374 0.000216 0.037345
v -0.016565 -0.003344 0.037072
v -0.002332 -0.003891 0.040082
v -0.007532 -0.008819 0.039535
f 940 929 941 
f 930 931 932 
f 931 930 933 
f 931 933 934 
f 932 931 934 
f 933 930 936 
f 934 933 937 
f 930 932 938 
f 935 930 938 
f 929 935 938 
f 932 934 939 
f 937 929 939 
f 934 937 939 
f 938 932 939 
f 929 938 939 
f 930 935 940 
f 935 929 940 
f 936 930 940 
f 936 940 941 
f 933 936 941 
f 929 937 941 
f 937 933 941 
o convex_65
v -0.014101 0.001860 0.037070
v -0.000416 0.014179 0.034607
v -0.000416 0.013903 0.034882
v -0.000416 0.000216 0.038987
v -0.016017 0.013631 0.030775
v -0.007532 0.008702 0.036523
v -0.016290 0.000216 0.035701
v -0.012458 0.014179 0.032965
v -0.004248 0.000491 0.039260
v -0.000416 0.013358 0.034334
v -0.016565 0.009797 0.033239
v -0.000690 0.005418 0.038165
v -0.007807 0.000491 0.038987
v -0.013007 0.007334 0.035701
v -0.006985 0.014179 0.034334
v -0.016565 0.014179 0.030775
v -0.016565 0.000216 0.036249
f 957 948 958 
f 943 944 945 
f 946 945 948 
f 943 945 951 
f 945 946 951 
f 945 944 953 
f 944 947 953 
f 950 945 953 
f 950 953 954 
f 945 950 954 
f 953 947 954 
f 947 949 955 
f 952 942 955 
f 949 952 955 
f 942 954 955 
f 954 947 955 
f 944 943 956 
f 947 944 956 
f 943 949 956 
f 949 947 956 
f 946 948 957 
f 949 943 957 
f 943 951 957 
f 951 946 957 
f 952 949 957 
f 952 957 958 
f 948 945 958 
f 942 952 958 
f 954 942 958 
f 945 954 958 
o convex_66
v -0.027516 0.018833 0.019552
v -0.016568 0.014454 0.031048
v -0.016842 0.014454 0.031048
v -0.016568 0.022940 0.026392
v -0.027516 0.022665 0.014347
v -0.022863 0.022940 0.022014
v -0.027791 0.014179 0.022289
v -0.016568 0.014454 0.030226
v -0.022316 0.014727 0.027487
v -0.027516 0.014727 0.020919
v -0.016568 0.022391 0.025843
v -0.027791 0.022940 0.015442
v -0.019305 0.022940 0.025022
v -0.025874 0.015001 0.024203
f 965 967 972 
f 961 960 962 
f 960 961 965 
f 962 960 966 
f 960 965 966 
f 965 961 967 
f 965 963 968 
f 963 966 968 
f 966 965 968 
f 963 962 969 
f 962 966 969 
f 966 963 969 
f 962 963 970 
f 959 964 970 
f 964 962 970 
f 965 959 970 
f 963 965 970 
f 961 962 971 
f 962 964 971 
f 967 961 971 
f 964 967 971 
f 964 959 972 
f 959 965 972 
f 967 964 972 
o convex_67
v -0.011089 0.014179 0.033237
v -0.000416 0.022940 0.030500
v -0.000416 0.022665 0.030774
v -0.015743 0.022940 0.027216
v -0.016290 0.014179 0.030500
v -0.000416 0.014179 0.034058
v -0.016290 0.022391 0.026121
v -0.006164 0.022665 0.030500
v -0.002332 0.014454 0.034605
v -0.000416 0.022391 0.030227
v -0.016565 0.014727 0.031047
v -0.011364 0.021296 0.029953
v -0.007258 0.015275 0.033785
f 984 973 985 
f 974 975 978 
f 973 977 978 
f 976 974 979 
f 978 977 979 
f 975 974 980 
f 974 976 980 
f 973 978 981 
f 978 975 981 
f 975 980 981 
f 974 978 982 
f 979 974 982 
f 978 979 982 
f 977 973 983 
f 976 979 983 
f 979 977 983 
f 980 976 984 
f 983 973 984 
f 976 983 984 
f 973 981 985 
f 981 980 985 
f 980 984 985 
o convex_68
v -0.006711 0.024583 0.029403
v 0.011085 0.025678 0.016811
v 0.011085 0.025952 0.016811
v -0.013281 0.025678 0.017087
v 0.011360 0.022666 0.027485
v 0.008072 0.025952 0.026940
v -0.013281 0.023488 0.022836
v -0.013281 0.025952 0.025570
v -0.012184 0.022940 0.028581
v 0.002597 0.022666 0.030500
v 0.011360 0.023488 0.022836
v 0.011360 0.025678 0.026119
v 0.000682 0.025678 0.028857
v -0.013281 0.025952 0.017087
v 0.008620 0.024309 0.028583
v -0.013281 0.022940 0.027487
f 995 994 1001 
f 988 987 989 
f 989 987 992 
f 991 988 993 
f 989 992 993 
f 986 993 994 
f 986 994 995 
f 987 988 996 
f 992 987 996 
f 990 992 996 
f 988 991 997 
f 996 988 997 
f 990 996 997 
f 991 993 998 
f 993 986 998 
f 986 995 998 
f 988 989 999 
f 993 988 999 
f 989 993 999 
f 995 990 1000 
f 997 991 1000 
f 990 997 1000 
f 991 998 1000 
f 998 995 1000 
f 992 990 1001 
f 993 992 1001 
f 994 993 1001 
f 990 995 1001 
o convex_69
v 0.019849 -0.016212 0.029404
v 0.034632 -0.008545 0.018457
v 0.034357 -0.008545 0.019001
v 0.019026 -0.008545 0.034056
v 0.022040 -0.021959 0.017906
v 0.029700 -0.013200 0.023110
v 0.026965 -0.009095 0.028854
v 0.019302 -0.022234 0.022289
v 0.029427 -0.016759 0.018181
v 0.034083 -0.008820 0.017906
v 0.022585 -0.011831 0.031321
v 0.025324 -0.015119 0.026119
v 0.019027 -0.020864 0.022016
v 0.022860 -0.022234 0.018455
v 0.019026 -0.012925 0.032686
v 0.032986 -0.012925 0.017906
v 0.031346 -0.008545 0.023932
v 0.022863 -0.008545 0.032416
v 0.021765 -0.020590 0.019276
v 0.026965 -0.011831 0.027484
v 0.028607 -0.015664 0.021467
f 1010 1017 1022 
f 1004 1003 1005 
f 1005 1003 1011 
f 1002 1009 1013 
f 1012 1002 1013 
f 1006 1009 1014 
f 1009 1006 1015 
f 1006 1010 1015 
f 1013 1009 1015 
f 1009 1002 1016 
f 1002 1012 1016 
f 1005 1014 1016 
f 1014 1009 1016 
f 1003 1004 1017 
f 1004 1007 1017 
f 1010 1006 1017 
f 1006 1011 1017 
f 1011 1003 1017 
f 1004 1005 1018 
f 1007 1004 1018 
f 1008 1018 1019 
f 1012 1008 1019 
f 1016 1012 1019 
f 1005 1016 1019 
f 1018 1005 1019 
f 1011 1006 1020 
f 1005 1011 1020 
f 1014 1005 1020 
f 1006 1014 1020 
f 1008 1012 1021 
f 1013 1007 1021 
f 1012 1013 1021 
f 1007 1018 1021 
f 1018 1008 1021 
f 1007 1013 1022 
f 1015 1010 1022 
f 1013 1015 1022 
f 1017 1007 1022 
o convex_70
v 0.040656 -0.010187 0.002849
v 0.038740 -0.000880 0.009692
v 0.038191 -0.000880 0.009692
v 0.038191 0.000215 0.000384
v 0.043666 0.001311 0.008596
v 0.043666 -0.008271 0.000384
v 0.038191 -0.011009 0.000384
v 0.043666 -0.005533 0.008050
v 0.038191 -0.007449 0.008596
v 0.038191 0.001311 0.008596
v 0.043666 -0.001702 0.009418
v 0.039287 -0.009364 0.006407
v 0.043666 -0.008271 0.003943
v 0.039287 -0.004983 0.009692
f 1030 1033 1036 
f 1025 1024 1027 
f 1026 1027 1028 
f 1025 1026 1029 
f 1028 1023 1029 
f 1026 1028 1029 
f 1028 1027 1030 
f 1025 1029 1031 
f 1026 1025 1032 
f 1027 1026 1032 
f 1025 1027 1032 
f 1027 1024 1033 
f 1030 1027 1033 
f 1029 1023 1034 
f 1031 1029 1034 
f 1030 1031 1034 
f 1023 1028 1035 
f 1028 1030 1035 
f 1034 1023 1035 
f 1030 1034 1035 
f 1024 1025 1036 
f 1025 1031 1036 
f 1031 1030 1036 
f 1033 1024 1036 
o convex_71
v 0.004790 -0.006629 0.039809
v 0.014919 0.001585 0.035703
v 0.014919 0.001585 0.035428
v -0.000413 0.001585 0.038713
v 0.014371 -0.008545 0.036250
v -0.000413 -0.008545 0.039535
v 0.011359 -0.000879 0.037892
v 0.012455 -0.007997 0.037892
v 0.005611 0.001585 0.038713
v -0.000413 -0.003616 0.040083
v 0.014919 -0.002796 0.036798
v 0.006159 -0.003616 0.039535
v 0.014371 0.001036 0.035428
v 0.005611 -0.008545 0.039535
f 1044 1037 1050 
f 1038 1039 1040 
f 1038 1040 1045 
f 1043 1038 1045 
f 1042 1037 1046 
f 1040 1042 1046 
f 1045 1040 1046 
f 1039 1038 1047 
f 1041 1039 1047 
f 1038 1043 1047 
f 1044 1041 1047 
f 1043 1044 1047 
f 1037 1044 1048 
f 1044 1043 1048 
f 1043 1045 1048 
f 1046 1037 1048 
f 1045 1046 1048 
f 1040 1039 1049 
f 1039 1041 1049 
f 1042 1040 1049 
f 1041 1042 1049 
f 1037 1042 1050 
f 1042 1041 1050 
f 1041 1044 1050 
o convex_72
v -0.000139 0.004324 0.038438
v 0.014919 0.015274 0.030501
v 0.014919 0.012535 0.031871
v 0.014644 0.001585 0.035153
v -0.000413 0.014726 0.033787
v 0.005338 0.008703 0.036523
v 0.011631 0.002406 0.037069
v -0.000139 0.001860 0.038438
v 0.014644 0.014726 0.029953
v 0.005065 0.015274 0.033787
v 0.010538 0.011712 0.034060
v 0.005065 0.001585 0.038713
v -0.000413 0.014451 0.034606
v 0.014644 0.005419 0.034881
f 1061 1057 1064 
f 1052 1053 1054 
f 1058 1055 1059 
f 1052 1054 1059 
f 1055 1052 1059 
f 1054 1058 1059 
f 1052 1055 1060 
f 1060 1056 1061 
f 1053 1052 1061 
f 1056 1057 1061 
f 1052 1060 1061 
f 1056 1051 1062 
f 1057 1056 1062 
f 1054 1057 1062 
f 1058 1054 1062 
f 1051 1058 1062 
f 1051 1056 1063 
f 1058 1051 1063 
f 1055 1058 1063 
f 1060 1055 1063 
f 1056 1060 1063 
f 1054 1053 1064 
f 1057 1054 1064 
f 1053 1061 1064 
o convex_73
v 0.021761 0.002679 0.031870
v 0.014919 -0.008545 0.036250
v 0.015195 -0.008545 0.035975
v 0.026418 -0.008545 0.029406
v 0.025595 0.002679 0.027489
v 0.014919 0.002954 0.034879
v 0.017659 -0.003069 0.035701
v 0.025870 -0.008545 0.028859
v 0.026418 -0.002796 0.029406
v 0.022857 -0.006628 0.032689
v 0.018480 -0.008545 0.035153
v 0.026418 0.002954 0.027763
v 0.015195 0.002954 0.035428
v 0.015195 -0.003889 0.036797
v 0.022309 -0.000607 0.032416
f 1073 1076 1079 
f 1066 1067 1068 
f 1069 1067 1070 
f 1067 1066 1070 
f 1068 1067 1072 
f 1067 1069 1072 
f 1068 1073 1074 
f 1066 1068 1075 
f 1068 1074 1075 
f 1074 1071 1075 
f 1069 1070 1076 
f 1068 1072 1076 
f 1072 1069 1076 
f 1073 1068 1076 
f 1071 1065 1077 
f 1076 1070 1077 
f 1065 1076 1077 
f 1070 1066 1078 
f 1066 1075 1078 
f 1075 1071 1078 
f 1077 1070 1078 
f 1071 1077 1078 
f 1065 1071 1079 
f 1071 1074 1079 
f 1074 1073 1079 
f 1076 1065 1079 
o convex_74
v 0.015742 0.009249 0.032963
v 0.026142 0.002954 0.026942
v 0.026142 0.014725 0.020096
v 0.014919 0.003229 0.034605
v 0.023678 0.013357 0.025301
v 0.014919 0.015274 0.029679
v 0.022037 0.003776 0.031321
v 0.019027 0.015274 0.028034
v 0.026418 0.004598 0.027217
v 0.026142 0.015274 0.021192
v 0.016289 0.002954 0.034879
v 0.020942 0.008979 0.029950
f 1086 1088 1091 
f 1082 1081 1083 
f 1082 1083 1085 
f 1083 1080 1085 
f 1085 1080 1087 
f 1081 1082 1088 
f 1086 1081 1088 
f 1082 1085 1089 
f 1087 1084 1089 
f 1085 1087 1089 
f 1088 1082 1089 
f 1084 1088 1089 
f 1083 1081 1090 
f 1080 1083 1090 
f 1081 1086 1090 
f 1086 1080 1090 
f 1080 1086 1091 
f 1084 1087 1091 
f 1087 1080 1091 
f 1088 1084 1091 
o convex_75
v 0.012729 0.022666 0.027215
v 0.026418 0.015548 0.020642
v 0.026418 0.015274 0.020642
v 0.026143 0.022666 0.013252
v 0.020940 0.022666 0.022013
v 0.019027 0.015274 0.026940
v 0.019573 0.016096 0.027215
v 0.026143 0.022666 0.014896
v 0.026143 0.015274 0.019825
v 0.012729 0.022392 0.026940
v 0.016562 0.022666 0.025572
v 0.026143 0.022392 0.013252
v 0.023131 0.015548 0.024476
f 1096 1098 1104 
f 1093 1094 1095 
f 1095 1092 1096 
f 1092 1097 1098 
f 1093 1095 1099 
f 1095 1096 1099 
f 1096 1093 1099 
f 1094 1097 1100 
f 1092 1095 1101 
f 1097 1092 1101 
f 1096 1092 1102 
f 1092 1098 1102 
f 1098 1096 1102 
f 1095 1094 1103 
f 1094 1100 1103 
f 1100 1097 1103 
f 1101 1095 1103 
f 1097 1101 1103 
f 1094 1093 1104 
f 1093 1096 1104 
f 1097 1094 1104 
f 1098 1097 1104 
o convex_76
v 0.004244 0.015274 0.033785
v 0.013275 0.022666 0.027489
v 0.013275 0.022666 0.027215
v 0.019571 0.015274 0.027489
v -0.000411 0.022392 0.030228
v -0.000411 0.015274 0.033511
v 0.004244 0.022666 0.030501
v 0.010536 0.015823 0.032142
v 0.018750 0.015274 0.027215
v -0.000411 0.016918 0.033511
v 0.015737 0.015548 0.029953
v 0.012180 0.022392 0.027215
f 1113 1109 1116 
f 1107 1106 1108 
f 1108 1105 1110 
f 1106 1107 1111 
f 1107 1109 1111 
f 1106 1111 1112 
f 1111 1105 1112 
f 1107 1108 1113 
f 1108 1110 1113 
f 1110 1109 1113 
f 1110 1105 1114 
f 1109 1110 1114 
f 1111 1109 1114 
f 1105 1111 1114 
f 1108 1106 1115 
f 1105 1108 1115 
f 1106 1112 1115 
f 1112 1105 1115 
f 1109 1107 1116 
f 1107 1113 1116 
o convex_77
v 0.039834 -0.007448 -0.008376
v 0.051606 0.001311 -0.000165
v 0.051606 0.001311 -0.002355
v 0.039012 0.000489 -0.009197
v 0.039012 -0.010736 0.000383
v 0.048320 -0.003346 -0.005639
v 0.046951 0.001311 -0.008650
v 0.045583 -0.007723 -0.000713
v 0.039012 -0.009914 -0.005091
v 0.044764 -0.006627 -0.006186
v 0.043942 -0.003072 -0.009198
v 0.049141 -0.003889 -0.000165
v 0.039012 0.000489 -0.008650
v 0.039012 -0.004441 -0.009745
v 0.049414 0.000763 -0.007007
v 0.040382 -0.010187 -0.003724
v 0.039012 -0.010461 0.000383
v 0.043667 -0.008817 0.000383
v 0.051330 0.001311 -0.000165
v 0.048867 -0.003889 -0.003450
v 0.044764 -0.004712 -0.008102
f 1127 1131 1137 
f 1118 1119 1123 
f 1121 1120 1125 
f 1119 1118 1128 
f 1120 1121 1129 
f 1123 1120 1129 
f 1120 1123 1130 
f 1117 1125 1130 
f 1125 1120 1130 
f 1127 1117 1130 
f 1123 1127 1130 
f 1119 1122 1131 
f 1123 1119 1131 
f 1127 1123 1131 
f 1125 1117 1132 
f 1121 1125 1132 
f 1117 1126 1132 
f 1126 1124 1132 
f 1129 1121 1133 
f 1128 1118 1134 
f 1124 1128 1134 
f 1121 1132 1134 
f 1132 1124 1134 
f 1133 1121 1134 
f 1133 1134 1135 
f 1118 1123 1135 
f 1123 1129 1135 
f 1129 1133 1135 
f 1134 1118 1135 
f 1122 1119 1136 
f 1126 1122 1136 
f 1124 1126 1136 
f 1119 1128 1136 
f 1128 1124 1136 
f 1126 1117 1137 
f 1122 1126 1137 
f 1117 1127 1137 
f 1131 1122 1137 
o convex_78
v -0.018206 -0.023329 -0.021519
v -0.008627 -0.021961 -0.029185
v -0.008627 -0.021687 -0.029185
v 0.018752 -0.022509 -0.021519
v -0.022040 -0.021687 -0.021519
v 0.003695 -0.023603 -0.025625
v 0.008342 -0.023877 -0.021519
v 0.009165 -0.022782 -0.027541
v -0.006435 -0.023056 -0.028090
v -0.009175 -0.023877 -0.022342
v -0.016014 -0.022509 -0.025899
v 0.015737 -0.023330 -0.022067
v 0.000955 -0.022782 -0.029185
v 0.012998 -0.022509 -0.025899
f 1149 1145 1151 
f 1138 1141 1142 
f 1141 1140 1142 
f 1141 1138 1144 
f 1143 1144 1147 
f 1144 1138 1147 
f 1138 1146 1147 
f 1146 1143 1147 
f 1140 1139 1148 
f 1138 1142 1148 
f 1142 1140 1148 
f 1139 1146 1148 
f 1146 1138 1148 
f 1141 1144 1149 
f 1144 1143 1149 
f 1143 1145 1149 
f 1139 1140 1150 
f 1140 1145 1150 
f 1145 1143 1150 
f 1146 1139 1150 
f 1143 1146 1150 
f 1140 1141 1151 
f 1145 1140 1151 
f 1141 1149 1151 
o convex_79
v -0.025326 -0.018128 -0.023984
v -0.008628 -0.014843 -0.036304
v -0.008628 -0.014569 -0.036304
v -0.007806 -0.021139 -0.028912
v -0.014378 -0.021686 -0.027270
v -0.025326 -0.018401 -0.021519
v -0.021494 -0.014843 -0.031100
v -0.025326 -0.014569 -0.026995
v -0.007806 -0.014569 -0.035755
v -0.022315 -0.021686 -0.021794
v -0.013282 -0.015117 -0.034935
v -0.008901 -0.021686 -0.029185
v -0.021494 -0.021139 -0.021519
v -0.007806 -0.019222 -0.030553
v -0.021768 -0.016760 -0.028912
v -0.017935 -0.015938 -0.032195
f 1156 1166 1167 
f 1152 1157 1159 
f 1154 1158 1159 
f 1158 1152 1159 
f 1153 1154 1160 
f 1155 1153 1160 
f 1159 1157 1160 
f 1154 1159 1160 
f 1157 1152 1161 
f 1154 1153 1162 
f 1158 1154 1162 
f 1153 1155 1163 
f 1155 1161 1163 
f 1161 1156 1163 
f 1162 1153 1163 
f 1156 1162 1163 
f 1155 1157 1164 
f 1161 1155 1164 
f 1157 1161 1164 
f 1157 1155 1165 
f 1155 1160 1165 
f 1160 1157 1165 
f 1152 1158 1166 
f 1156 1161 1166 
f 1161 1152 1166 
f 1162 1156 1167 
f 1158 1162 1167 
f 1166 1158 1167 
o convex_80
v 0.011088 -0.015938 -0.034111
v 0.019299 -0.021960 -0.021519
v 0.018750 -0.021960 -0.021519
v 0.006158 -0.022508 -0.028637
v 0.006158 -0.015664 -0.034661
v 0.019299 -0.015938 -0.030004
v 0.013001 -0.022508 -0.026449
v 0.019024 -0.020044 -0.022889
v 0.006158 -0.020318 -0.029184
v 0.019024 -0.015664 -0.029184
v 0.018203 -0.022508 -0.022889
v 0.006980 -0.015938 -0.035209
v 0.006158 -0.022508 -0.027817
v 0.008348 -0.022508 -0.028364
f 1171 1179 1181 
f 1168 1173 1174 
f 1170 1169 1175 
f 1169 1173 1175 
f 1172 1171 1176 
f 1170 1175 1176 
f 1175 1172 1176 
f 1168 1172 1177 
f 1173 1168 1177 
f 1172 1175 1177 
f 1175 1173 1177 
f 1169 1170 1178 
f 1173 1169 1178 
f 1174 1173 1178 
f 1171 1174 1178 
f 1172 1168 1179 
f 1171 1172 1179 
f 1170 1176 1180 
f 1176 1171 1180 
f 1178 1170 1180 
f 1171 1178 1180 
f 1168 1174 1181 
f 1174 1171 1181 
f 1179 1168 1181 
o convex_81
v -0.014102 -0.014020 -0.035483
v -0.007806 -0.006082 -0.039315
v -0.007806 -0.006082 -0.039588
v -0.018483 -0.006082 -0.036030
v -0.017936 -0.014294 -0.032472
v -0.007806 -0.014569 -0.036030
v -0.013828 -0.011008 -0.037398
v -0.018483 -0.011556 -0.035209
v -0.008353 -0.011556 -0.038493
v -0.014102 -0.006630 -0.038220
v -0.008079 -0.006082 -0.039041
f 1186 1187 1192 
f 1183 1184 1185 
f 1184 1183 1187 
f 1186 1182 1187 
f 1182 1186 1189 
f 1186 1185 1189 
f 1188 1182 1189 
f 1187 1182 1190 
f 1184 1187 1190 
f 1182 1188 1190 
f 1190 1188 1191 
f 1185 1184 1191 
f 1189 1185 1191 
f 1188 1189 1191 
f 1184 1190 1191 
f 1183 1185 1192 
f 1185 1186 1192 
f 1187 1183 1192 
o convex_82
v 0.049689 0.004596 0.007501
v 0.051605 0.001859 -0.000164
v 0.051605 0.002407 -0.000164
v 0.043666 0.007061 0.001479
v 0.043666 0.001859 0.008871
v 0.053523 0.007061 -0.000164
v 0.047501 0.007061 0.007501
v 0.050511 0.001859 0.006132
v 0.052974 0.007061 0.003943
v 0.043666 0.006239 0.005586
v 0.051880 0.001859 0.002301
f 1201 1200 1203 
f 1195 1194 1196 
f 1196 1194 1197 
f 1194 1195 1198 
f 1195 1196 1198 
f 1198 1196 1199 
f 1197 1193 1199 
f 1193 1197 1200 
f 1197 1194 1200 
f 1198 1199 1201 
f 1199 1193 1201 
f 1193 1200 1201 
f 1196 1197 1202 
f 1199 1196 1202 
f 1197 1199 1202 
f 1194 1198 1203 
f 1200 1194 1203 
f 1198 1201 1203 
o convex_83
v -0.006162 -0.014293 -0.037126
v 0.005609 -0.006081 -0.039315
v 0.005609 -0.015390 -0.035209
v -0.007804 -0.015116 -0.035209
v 0.005609 -0.011281 -0.038767
v -0.007804 -0.006081 -0.039588
v -0.001782 -0.009367 -0.039862
v -0.000414 -0.015116 -0.036852
v -0.007530 -0.011281 -0.038767
v 0.000954 -0.006081 -0.040136
v -0.007804 -0.006081 -0.039315
v -0.001782 -0.013199 -0.038220
v -0.007804 -0.015664 -0.035757
v 0.005609 -0.015664 -0.035757
f 1216 1211 1217 
f 1206 1205 1207 
f 1205 1206 1208 
f 1209 1210 1212 
f 1205 1208 1213 
f 1209 1205 1213 
f 1210 1209 1213 
f 1208 1210 1213 
f 1207 1205 1214 
f 1205 1209 1214 
f 1209 1207 1214 
f 1210 1208 1215 
f 1211 1204 1215 
f 1208 1211 1215 
f 1212 1210 1215 
f 1204 1212 1215 
f 1206 1207 1216 
f 1207 1209 1216 
f 1204 1211 1216 
f 1212 1204 1216 
f 1209 1212 1216 
f 1208 1206 1217 
f 1211 1208 1217 
f 1206 1216 1217 
o convex_84
v 0.018202 -0.013473 -0.033020
v 0.005610 -0.007725 -0.039589
v 0.005610 -0.006081 -0.039589
v 0.005610 -0.015664 -0.034935
v 0.019025 -0.015390 -0.029459
v 0.019299 -0.006081 -0.034661
v 0.011636 -0.011009 -0.037398
v 0.005885 -0.015390 -0.036028
v 0.006158 -0.006081 -0.039040
v 0.017657 -0.007725 -0.035755
v 0.013823 -0.015664 -0.033294
v 0.018751 -0.006081 -0.034387
v 0.011909 -0.006081 -0.038220
v 0.019299 -0.011009 -0.033840
v 0.005610 -0.011009 -0.038767
v 0.019299 -0.015664 -0.030281
v 0.010815 -0.013473 -0.036302
f 1225 1232 1234 
f 1220 1219 1221 
f 1220 1221 1226 
f 1221 1222 1226 
f 1223 1220 1226 
f 1221 1225 1228 
f 1222 1223 1229 
f 1226 1222 1229 
f 1223 1226 1229 
f 1219 1220 1230 
f 1220 1223 1230 
f 1224 1219 1230 
f 1223 1227 1230 
f 1227 1224 1230 
f 1218 1224 1231 
f 1227 1223 1231 
f 1224 1227 1231 
f 1221 1219 1232 
f 1219 1224 1232 
f 1225 1221 1232 
f 1222 1221 1233 
f 1223 1222 1233 
f 1228 1218 1233 
f 1221 1228 1233 
f 1218 1231 1233 
f 1231 1223 1233 
f 1224 1218 1234 
f 1218 1228 1234 
f 1228 1225 1234 
f 1232 1224 1234 
o convex_85
v -0.023957 0.001310 -0.032199
v -0.008354 -0.006080 -0.039588
v -0.010817 -0.006080 -0.039041
v -0.025326 -0.005806 -0.031377
v -0.007806 0.002132 -0.037945
v -0.019578 -0.001154 -0.035481
v -0.025326 0.002132 -0.030008
v -0.013829 0.002132 -0.037124
v -0.021768 -0.006080 -0.034662
v -0.008081 -0.006080 -0.039041
v -0.013829 -0.004164 -0.038219
v -0.008081 -0.000059 -0.039041
v -0.025326 -0.003069 -0.032199
v -0.025326 0.001310 -0.030008
f 1238 1244 1248 
f 1241 1239 1242 
f 1240 1235 1242 
f 1235 1241 1242 
f 1237 1236 1243 
f 1243 1236 1244 
f 1238 1243 1244 
f 1236 1237 1245 
f 1240 1242 1245 
f 1237 1243 1245 
f 1243 1240 1245 
f 1242 1239 1246 
f 1244 1236 1246 
f 1239 1244 1246 
f 1236 1245 1246 
f 1245 1242 1246 
f 1235 1240 1247 
f 1241 1235 1247 
f 1238 1241 1247 
f 1243 1238 1247 
f 1240 1243 1247 
f 1241 1238 1248 
f 1239 1241 1248 
f 1244 1239 1248 
o convex_86
v -0.003150 -0.000605 -0.039589
v 0.005609 0.005965 -0.036852
v 0.005609 0.005691 -0.036852
v -0.007804 0.005965 -0.036852
v -0.007804 -0.006081 -0.039315
v 0.005609 -0.006081 -0.039589
v 0.002324 0.005417 -0.037947
v 0.005609 -0.001152 -0.039315
v -0.007530 0.002679 -0.038494
v 0.000681 -0.005806 -0.040137
v 0.005609 -0.006081 -0.039315
v -0.007804 -0.003068 -0.039589
v -0.001782 0.005965 -0.037947
v -0.000961 0.001310 -0.039315
v -0.007804 0.005417 -0.036852
f 1253 1259 1263 
f 1251 1250 1252 
f 1250 1251 1254 
f 1250 1254 1256 
f 1255 1250 1256 
f 1254 1253 1258 
f 1256 1254 1258 
f 1254 1251 1259 
f 1253 1254 1259 
f 1253 1252 1260 
f 1257 1249 1260 
f 1252 1257 1260 
f 1249 1258 1260 
f 1258 1253 1260 
f 1252 1250 1261 
f 1250 1255 1261 
f 1257 1252 1261 
f 1257 1261 1262 
f 1255 1256 1262 
f 1249 1257 1262 
f 1258 1249 1262 
f 1256 1258 1262 
f 1261 1255 1262 
f 1251 1252 1263 
f 1252 1253 1263 
f 1259 1251 1263 
o convex_87
v 0.002871 0.016917 -0.033293
v -0.007804 0.005965 -0.037124
v -0.007804 0.005965 -0.036850
v -0.007804 0.021571 -0.030008
v 0.005609 0.006240 -0.036577
v 0.005609 0.021296 -0.030008
v -0.001507 0.008431 -0.037124
v -0.005340 0.021571 -0.031103
v 0.005334 0.006240 -0.037398
v 0.005061 0.021571 -0.030829
v -0.007257 0.011443 -0.035482
v -0.007804 0.006240 -0.036577
v -0.001507 0.020476 -0.031924
v 0.005609 0.011168 -0.035482
f 1264 1273 1277 
f 1265 1266 1267 
f 1266 1265 1268 
f 1268 1265 1272 
f 1265 1270 1272 
f 1267 1269 1273 
f 1271 1267 1273 
f 1265 1267 1274 
f 1270 1265 1274 
f 1267 1271 1274 
f 1267 1266 1275 
f 1266 1268 1275 
f 1269 1267 1275 
f 1268 1269 1275 
f 1264 1270 1276 
f 1271 1273 1276 
f 1273 1264 1276 
f 1270 1274 1276 
f 1274 1271 1276 
f 1269 1268 1277 
f 1270 1264 1277 
f 1268 1272 1277 
f 1272 1270 1277 
f 1273 1269 1277 
o convex_88
v 0.013002 0.004870 -0.035758
v 0.005610 -0.006081 -0.039589
v 0.006432 -0.006081 -0.039589
v 0.016834 -0.006081 -0.035484
v 0.006159 0.005691 -0.036576
v 0.017109 0.005417 -0.032745
v 0.017383 -0.002795 -0.035758
v 0.006432 -0.000605 -0.039041
v 0.005884 -0.006081 -0.039041
v 0.012179 -0.002795 -0.037946
v 0.005610 0.005965 -0.037398
v 0.017109 0.005965 -0.033567
v 0.014645 -0.006081 -0.037125
v 0.011632 0.002132 -0.037125
f 1289 1284 1291 
f 1279 1280 1281 
f 1283 1281 1284 
f 1280 1279 1285 
f 1279 1281 1286 
f 1281 1283 1286 
f 1283 1282 1286 
f 1280 1285 1287 
f 1285 1279 1288 
f 1279 1286 1288 
f 1286 1282 1288 
f 1282 1283 1289 
f 1283 1284 1289 
f 1278 1288 1289 
f 1288 1282 1289 
f 1281 1280 1290 
f 1284 1281 1290 
f 1280 1287 1290 
f 1287 1284 1290 
f 1284 1287 1291 
f 1287 1285 1291 
f 1288 1278 1291 
f 1285 1288 1291 
f 1278 1289 1291 
o convex_89
v 0.006979 0.010347 -0.035480
v 0.017383 0.021571 -0.025079
v 0.016834 0.021571 -0.025079
v 0.017383 0.006240 -0.032470
v 0.005884 0.005965 -0.036577
v 0.009445 0.021571 -0.029735
v 0.005610 0.021296 -0.030009
v 0.016013 0.008156 -0.033290
v 0.011086 0.006240 -0.036030
v 0.017383 0.016642 -0.028365
v 0.017109 0.021023 -0.025079
v 0.005610 0.017737 -0.032470
v 0.010266 0.013634 -0.033290
v 0.014096 0.018831 -0.029187
v 0.005610 0.006514 -0.037125
f 1298 1303 1306 
f 1294 1293 1297 
f 1294 1297 1298 
f 1295 1296 1300 
f 1299 1295 1300 
f 1293 1295 1301 
f 1295 1299 1301 
f 1293 1294 1302 
f 1295 1293 1302 
f 1296 1295 1302 
f 1298 1296 1302 
f 1294 1298 1302 
f 1298 1297 1303 
f 1299 1300 1304 
f 1300 1292 1304 
f 1292 1303 1304 
f 1303 1297 1304 
f 1297 1293 1305 
f 1293 1301 1305 
f 1301 1299 1305 
f 1304 1297 1305 
f 1299 1304 1305 
f 1296 1298 1306 
f 1292 1300 1306 
f 1300 1296 1306 
f 1303 1292 1306 
o convex_90
v -0.025602 0.025678 -0.015499
v -0.018210 0.021571 -0.026172
v -0.019305 0.021571 -0.025624
v -0.006710 0.027320 -0.009748
v -0.011093 0.025951 -0.026172
v -0.025326 0.023489 -0.009748
v -0.006710 0.023488 -0.025076
v -0.025602 0.021571 -0.018780
v -0.009175 0.027595 -0.009748
v -0.018756 0.025951 -0.022339
v -0.023410 0.025403 -0.009748
v -0.006710 0.025951 -0.021790
v -0.022861 0.024036 -0.021245
v -0.025602 0.025951 -0.013581
v -0.015472 0.024857 -0.026172
v -0.024779 0.023489 -0.009748
v -0.006710 0.027595 -0.011391
f 1318 1311 1323 
f 1308 1311 1313 
f 1308 1313 1314 
f 1309 1308 1314 
f 1312 1310 1315 
f 1312 1315 1317 
f 1310 1313 1318 
f 1313 1311 1318 
f 1314 1307 1319 
f 1309 1314 1319 
f 1307 1316 1319 
f 1307 1314 1320 
f 1314 1312 1320 
f 1316 1307 1320 
f 1315 1316 1320 
f 1312 1317 1320 
f 1317 1315 1320 
f 1308 1309 1321 
f 1311 1308 1321 
f 1316 1311 1321 
f 1309 1319 1321 
f 1319 1316 1321 
f 1310 1312 1322 
f 1313 1310 1322 
f 1314 1313 1322 
f 1312 1314 1322 
f 1315 1310 1323 
f 1311 1316 1323 
f 1316 1315 1323 
f 1310 1318 1323 
o convex_91
v 0.049689 -0.003071 -0.000164
v 0.043941 -0.000332 0.009419
v 0.043667 -0.000332 0.009419
v 0.043667 -0.008271 0.003397
v 0.048047 -0.001975 0.007228
v 0.051605 0.001859 -0.000164
v 0.043667 -0.007997 -0.000164
v 0.043667 0.001859 0.008596
v 0.050784 0.001859 0.005585
v 0.043941 -0.005259 0.008048
v 0.048868 -0.003889 0.003397
v 0.045584 -0.007723 -0.000164
v 0.048321 0.001859 0.008048
v 0.045036 -0.006629 0.005858
v 0.051058 -0.000058 0.003123
f 1334 1324 1338 
f 1329 1324 1330 
f 1327 1326 1330 
f 1326 1325 1331 
f 1329 1330 1331 
f 1330 1326 1331 
f 1329 1331 1332 
f 1325 1326 1333 
f 1326 1327 1333 
f 1328 1325 1333 
f 1330 1324 1335 
f 1327 1330 1335 
f 1324 1334 1335 
f 1325 1328 1336 
f 1331 1325 1336 
f 1328 1332 1336 
f 1332 1331 1336 
f 1333 1327 1337 
f 1328 1333 1337 
f 1334 1328 1337 
f 1327 1335 1337 
f 1335 1334 1337 
f 1324 1329 1338 
f 1332 1328 1338 
f 1329 1332 1338 
f 1328 1334 1338 
o convex_92
v 0.011635 0.024857 0.026939
v 0.026416 0.022941 0.014075
v 0.025868 0.022941 0.015170
v 0.023680 0.025952 0.014075
v 0.017383 0.025678 0.009696
v 0.011361 0.022666 0.027487
v 0.022859 0.023488 0.009694
v 0.011361 0.025952 0.016813
v 0.017383 0.025678 0.022558
v 0.025321 0.025952 0.009694
v 0.018204 0.022666 0.024201
v 0.011361 0.023488 0.022558
v 0.011361 0.025952 0.025296
v 0.026416 0.022666 0.012705
v 0.022038 0.024857 0.019000
f 1347 1349 1353 
f 1341 1340 1342 
f 1342 1340 1348 
f 1345 1343 1348 
f 1346 1342 1348 
f 1343 1346 1348 
f 1339 1344 1349 
f 1347 1339 1349 
f 1343 1345 1350 
f 1345 1344 1350 
f 1346 1343 1350 
f 1344 1346 1350 
f 1344 1339 1351 
f 1342 1346 1351 
f 1346 1344 1351 
f 1347 1342 1351 
f 1339 1347 1351 
f 1340 1341 1352 
f 1344 1345 1352 
f 1348 1340 1352 
f 1345 1348 1352 
f 1341 1349 1352 
f 1349 1344 1352 
f 1341 1342 1353 
f 1342 1347 1353 
f 1349 1341 1353 
o convex_93
v 0.006978 0.027594 -0.010020
v -0.006709 0.025678 -0.020424
v -0.006709 0.025678 -0.020150
v -0.006161 0.027868 -0.010020
v 0.002049 0.026499 -0.019603
v 0.007525 0.026773 -0.011391
v 0.007525 0.025678 -0.020424
v -0.006709 0.027321 -0.009746
v -0.006709 0.026226 -0.020424
v -0.000138 0.027868 -0.011116
v 0.007525 0.026499 -0.017960
f 1358 1363 1364 
f 1356 1355 1360 
f 1359 1356 1360 
f 1355 1356 1361 
f 1354 1357 1361 
f 1356 1359 1361 
f 1359 1354 1361 
f 1360 1355 1362 
f 1358 1360 1362 
f 1355 1361 1362 
f 1361 1357 1362 
f 1357 1354 1363 
f 1362 1357 1363 
f 1358 1362 1363 
f 1354 1359 1364 
f 1359 1360 1364 
f 1360 1358 1364 
f 1363 1354 1364 
o convex_94
v -0.009722 0.003776 -0.037672
v -0.014649 0.021571 -0.027543
v -0.016019 0.021571 -0.027543
v -0.015744 0.002132 -0.035481
v -0.007806 0.020475 -0.030282
v -0.012732 0.010897 -0.034386
v -0.008355 0.002132 -0.037672
v -0.008355 0.021571 -0.030556
v -0.016019 0.002680 -0.036029
v -0.007806 0.008159 -0.036576
v -0.016019 0.013903 -0.031651
v -0.015744 0.020475 -0.027543
v -0.011912 0.020747 -0.030008
f 1370 1375 1377 
f 1367 1366 1372 
f 1366 1369 1372 
f 1368 1367 1373 
f 1370 1365 1373 
f 1371 1368 1373 
f 1365 1371 1373 
f 1365 1370 1374 
f 1371 1365 1374 
f 1369 1371 1374 
f 1372 1369 1374 
f 1370 1372 1374 
f 1373 1367 1375 
f 1370 1373 1375 
f 1366 1367 1376 
f 1367 1368 1376 
f 1369 1366 1376 
f 1368 1371 1376 
f 1371 1369 1376 
f 1367 1372 1377 
f 1372 1370 1377 
f 1375 1367 1377 
o convex_95
v -0.012190 -0.024425 0.006406
v -0.027791 -0.023056 -0.009746
v -0.027791 -0.022782 -0.009746
v -0.005889 -0.024151 -0.009746
v -0.026422 -0.022782 0.009692
v -0.024505 -0.023877 -0.003174
v -0.005889 -0.024151 0.009692
v -0.025328 -0.023604 0.009692
v -0.009450 -0.024425 -0.009746
v -0.029435 -0.023056 0.002846
v -0.008627 -0.023877 -0.009746
v -0.018754 -0.024151 -0.009472
v -0.005889 -0.024425 0.009692
v -0.019303 -0.024151 0.008322
v -0.008901 -0.023877 0.009692
v -0.026422 -0.022782 -0.009746
f 1382 1388 1393 
f 1379 1380 1381 
f 1384 1382 1385 
f 1379 1381 1386 
f 1380 1379 1387 
f 1382 1380 1387 
f 1379 1383 1387 
f 1385 1382 1387 
f 1383 1385 1387 
f 1381 1380 1388 
f 1384 1381 1388 
f 1383 1379 1389 
f 1379 1386 1389 
f 1386 1378 1389 
f 1381 1384 1390 
f 1384 1385 1390 
f 1386 1381 1390 
f 1378 1386 1390 
f 1385 1383 1391 
f 1383 1389 1391 
f 1389 1378 1391 
f 1390 1385 1391 
f 1378 1390 1391 
f 1382 1384 1392 
f 1388 1382 1392 
f 1384 1388 1392 
f 1380 1382 1393 
f 1388 1380 1393 
o convex_96
v -0.037921 -0.015117 -0.000432
v -0.027518 -0.022508 0.009692
v -0.029710 -0.020318 0.009692
v -0.027518 -0.022508 -0.009746
v -0.037373 -0.012926 -0.009746
v -0.030529 -0.022508 -0.004270
v -0.037373 -0.012926 0.009692
v -0.030256 -0.022508 0.005858
v -0.036278 -0.015665 -0.009198
v -0.036552 -0.015391 0.009144
v -0.039291 -0.013201 -0.000710
v -0.028888 -0.022781 -0.009472
v -0.028614 -0.022781 0.009692
v -0.037647 -0.014843 0.006406
v -0.030804 -0.022508 0.000656
v -0.038468 -0.013748 -0.006460
f 1394 1404 1409 
f 1396 1395 1397 
f 1396 1397 1398 
f 1395 1396 1400 
f 1396 1398 1400 
f 1400 1398 1404 
f 1398 1397 1405 
f 1402 1398 1405 
f 1399 1402 1405 
f 1397 1395 1406 
f 1395 1400 1406 
f 1400 1403 1406 
f 1403 1401 1406 
f 1405 1397 1406 
f 1403 1400 1407 
f 1401 1403 1407 
f 1400 1404 1407 
f 1404 1394 1407 
f 1394 1399 1408 
f 1399 1405 1408 
f 1406 1401 1408 
f 1405 1406 1408 
f 1407 1394 1408 
f 1401 1407 1408 
f 1399 1394 1409 
f 1398 1402 1409 
f 1402 1399 1409 
f 1404 1398 1409 
o convex_97
v 0.018751 -0.024151 0.002572
v -0.005889 -0.024425 -0.009746
v -0.005889 -0.024151 -0.009746
v -0.005889 -0.024425 0.009692
v 0.022581 -0.023056 0.009692
v 0.023954 -0.023056 -0.009746
v 0.007256 -0.024425 -0.009746
v 0.007256 -0.024425 0.009692
v -0.005889 -0.024151 0.009692
v 0.023954 -0.023604 -0.007280
v 0.023676 -0.023604 0.008596
v 0.016560 -0.024151 -0.009746
v 0.011632 -0.024425 -0.000982
v 0.016560 -0.024151 0.009692
v 0.022581 -0.023056 -0.009746
f 1414 1415 1424 
f 1412 1411 1413 
f 1411 1412 1415 
f 1413 1411 1416 
f 1411 1415 1416 
f 1413 1416 1417 
f 1414 1413 1417 
f 1412 1413 1418 
f 1413 1414 1418 
f 1414 1412 1418 
f 1415 1414 1420 
f 1410 1419 1420 
f 1419 1415 1420 
f 1416 1415 1421 
f 1419 1410 1421 
f 1415 1419 1421 
f 1417 1416 1422 
f 1421 1410 1422 
f 1416 1421 1422 
f 1414 1417 1423 
f 1420 1414 1423 
f 1410 1420 1423 
f 1417 1422 1423 
f 1422 1410 1423 
f 1412 1414 1424 
f 1415 1412 1424 
o convex_98
v 0.006158 -0.019222 -0.030555
v -0.002877 -0.015938 -0.036030
v -0.001781 -0.022234 -0.030007
v -0.007806 -0.020591 -0.029187
v 0.005883 -0.022508 -0.028912
v 0.006158 -0.015664 -0.034660
v -0.007806 -0.015664 -0.034933
v -0.007806 -0.022508 -0.028912
v 0.004240 -0.015938 -0.035755
v 0.006158 -0.022234 -0.028092
v -0.006984 -0.016759 -0.034933
f 1432 1431 1435 
f 1428 1425 1430 
f 1430 1426 1431 
f 1428 1430 1431 
f 1427 1429 1432 
f 1428 1431 1432 
f 1427 1426 1433 
f 1429 1427 1433 
f 1426 1430 1433 
f 1430 1429 1433 
f 1425 1428 1434 
f 1430 1425 1434 
f 1429 1430 1434 
f 1428 1432 1434 
f 1432 1429 1434 
f 1426 1427 1435 
f 1431 1426 1435 
f 1427 1432 1435 
o convex_99
v -0.038742 0.006515 0.001754
v -0.032994 0.016096 0.009692
v -0.033543 0.016096 0.009692
v -0.037922 0.003776 0.009692
v -0.034363 0.015821 0.000657
v -0.039016 0.003776 0.000657
v -0.036552 0.011440 0.006133
v -0.034911 0.016096 0.000657
v -0.038742 0.004871 0.007227
v -0.032994 0.015821 0.009144
v -0.037100 0.007884 0.009692
f 1442 1444 1446 
f 1437 1438 1439 
f 1438 1437 1443 
f 1437 1440 1443 
f 1440 1441 1443 
f 1441 1436 1443 
f 1442 1438 1443 
f 1436 1442 1443 
f 1441 1439 1444 
f 1436 1441 1444 
f 1442 1436 1444 
f 1437 1439 1445 
f 1440 1437 1445 
f 1441 1440 1445 
f 1439 1441 1445 
f 1439 1438 1446 
f 1438 1442 1446 
f 1444 1439 1446 
o convex_100
v -0.031625 0.020475 0.009418
v -0.033267 0.016097 -0.009746
v -0.032993 0.016097 -0.009746
v -0.029709 0.023213 -0.009746
v -0.034362 0.020749 -0.002080
v -0.032993 0.016097 0.009692
v -0.029709 0.022666 0.009692
v -0.034362 0.016097 0.006132
v -0.031352 0.023213 0.004488
v -0.034362 0.020202 0.003666
v -0.034362 0.016097 -0.005912
v -0.032720 0.016097 -0.001804
v -0.029709 0.022666 -0.009746
v -0.030257 0.023213 -0.009472
v -0.030257 0.023213 0.009418
v -0.034362 0.019928 -0.003996
f 1451 1460 1462 
f 1449 1448 1450 
f 1448 1449 1452 
f 1447 1452 1453 
f 1448 1452 1454 
f 1452 1447 1456 
f 1451 1454 1456 
f 1454 1452 1456 
f 1455 1451 1456 
f 1454 1451 1457 
f 1448 1454 1457 
f 1452 1449 1458 
f 1453 1452 1458 
f 1453 1458 1459 
f 1449 1450 1459 
f 1450 1453 1459 
f 1458 1449 1459 
f 1450 1448 1460 
f 1451 1455 1460 
f 1455 1450 1460 
f 1447 1453 1461 
f 1453 1450 1461 
f 1450 1455 1461 
f 1455 1456 1461 
f 1456 1447 1461 
f 1448 1457 1462 
f 1457 1451 1462 
f 1460 1448 1462 
o convex_101
v -0.018757 0.026773 -0.003996
v -0.005615 0.027868 0.009692
v -0.005615 0.027595 0.009692
v -0.005615 0.027595 -0.009746
v -0.006711 0.029237 -0.000982
v -0.019305 0.025952 0.009692
v -0.017935 0.025952 -0.009746
v -0.018482 0.026500 0.009692
v -0.005890 0.027321 0.009692
v -0.018482 0.026500 -0.009746
v -0.005615 0.029237 0.003120
v -0.005890 0.027321 -0.009746
v -0.005890 0.029237 -0.003174
v -0.019030 0.026773 0.002026
v -0.017935 0.025952 0.009692
v -0.006711 0.027868 -0.009746
f 1475 1466 1478 
f 1464 1465 1466 
f 1465 1464 1468 
f 1468 1464 1470 
f 1466 1465 1471 
f 1465 1468 1471 
f 1463 1467 1472 
f 1469 1468 1472 
f 1466 1469 1472 
f 1464 1466 1473 
f 1467 1470 1473 
f 1470 1464 1473 
f 1469 1466 1474 
f 1466 1471 1474 
f 1471 1469 1474 
f 1472 1467 1475 
f 1473 1466 1475 
f 1467 1473 1475 
f 1467 1463 1476 
f 1470 1467 1476 
f 1468 1470 1476 
f 1463 1472 1476 
f 1472 1468 1476 
f 1468 1469 1477 
f 1471 1468 1477 
f 1469 1471 1477 
f 1466 1472 1478 
f 1472 1475 1478 
o convex_102
v 0.003421 0.029237 -0.003724
v -0.005615 0.027594 -0.009746
v -0.005615 0.027594 -0.008377
v 0.020121 0.025404 -0.007007
v 0.019844 0.025678 -0.000711
v -0.005615 0.028963 -0.001808
v 0.017929 0.026226 -0.009746
v 0.004517 0.029237 -0.000711
v -0.000413 0.028142 -0.009746
v 0.020121 0.026226 -0.000711
v -0.004245 0.029237 -0.004819
v 0.019022 0.025404 -0.009746
v 0.001779 0.029237 -0.005093
f 1487 1489 1491 
f 1481 1482 1483 
f 1481 1483 1484 
f 1480 1481 1484 
f 1484 1483 1486 
f 1485 1479 1486 
f 1485 1480 1487 
f 1483 1482 1488 
f 1482 1485 1488 
f 1486 1483 1488 
f 1485 1486 1488 
f 1480 1484 1489 
f 1484 1486 1489 
f 1486 1479 1489 
f 1487 1480 1489 
f 1481 1480 1490 
f 1482 1481 1490 
f 1480 1485 1490 
f 1485 1482 1490 
f 1479 1485 1491 
f 1485 1487 1491 
f 1489 1479 1491 
o convex_103
v 0.001779 0.028142 0.009419
v 0.003696 0.028963 -0.000711
v 0.003696 0.029237 -0.000711
v 0.020121 0.025404 0.009692
v -0.005615 0.027594 0.008323
v 0.019844 0.025678 -0.000711
v -0.005615 0.028963 0.001753
v 0.003696 0.029237 0.003396
v 0.020121 0.026226 0.001479
v 0.017929 0.026226 0.009692
v -0.003970 0.029237 0.005037
v -0.005615 0.027868 0.009692
v 0.019022 0.025404 0.009692
f 1503 1496 1504 
f 1493 1494 1497 
f 1494 1493 1498 
f 1493 1497 1498 
f 1497 1496 1498 
f 1497 1494 1500 
f 1495 1497 1500 
f 1494 1499 1500 
f 1500 1499 1501 
f 1499 1492 1501 
f 1495 1500 1501 
f 1494 1498 1502 
f 1492 1499 1502 
f 1499 1494 1502 
f 1498 1496 1503 
f 1501 1492 1503 
f 1495 1501 1503 
f 1492 1502 1503 
f 1502 1498 1503 
f 1496 1497 1504 
f 1497 1495 1504 
f 1495 1503 1504 
o convex_104
v 0.025596 0.025952 -0.009746
v 0.026965 0.025130 0.009692
v 0.026691 0.025404 0.009692
v 0.020121 0.025130 0.009692
v 0.025323 0.023488 -0.009746
v 0.020121 0.025952 -0.007280
v 0.022859 0.023488 0.009692
v 0.022859 0.023488 -0.009746
v 0.026965 0.023488 0.003392
v 0.025048 0.025952 0.009692
v 0.026965 0.025130 -0.009746
v 0.020121 0.025130 -0.009746
v 0.020121 0.025952 0.007226
v 0.026965 0.025952 0.004216
v 0.025596 0.023488 0.009692
f 1511 1513 1519 
f 1506 1507 1508 
f 1506 1508 1511 
f 1511 1508 1512 
f 1505 1509 1512 
f 1509 1511 1512 
f 1511 1509 1513 
f 1508 1507 1514 
f 1505 1510 1514 
f 1509 1505 1515 
f 1506 1513 1515 
f 1513 1509 1515 
f 1510 1505 1516 
f 1508 1510 1516 
f 1512 1508 1516 
f 1505 1512 1516 
f 1510 1508 1517 
f 1508 1514 1517 
f 1514 1510 1517 
f 1507 1506 1518 
f 1505 1514 1518 
f 1514 1507 1518 
f 1515 1505 1518 
f 1506 1515 1518 
f 1506 1511 1519 
f 1513 1506 1519 
o convex_105
v 0.027240 0.025952 0.000656
v 0.030798 0.016096 -0.009746
v 0.030524 0.016370 -0.009746
v 0.030798 0.016096 0.009692
v 0.032715 0.016370 -0.000982
v 0.026965 0.023760 -0.009746
v 0.026965 0.023760 0.009692
v 0.028882 0.024583 0.000108
v 0.027788 0.024583 -0.008102
v 0.031620 0.017739 0.006132
v 0.027513 0.024583 0.009144
v 0.032167 0.016644 -0.005912
v 0.031345 0.016370 0.009692
v 0.031345 0.016370 -0.009746
f 1528 1531 1533 
f 1522 1521 1523 
f 1523 1521 1524 
f 1521 1522 1525 
f 1520 1525 1526 
f 1522 1523 1526 
f 1525 1522 1526 
f 1525 1520 1528 
f 1520 1527 1528 
f 1524 1527 1529 
f 1529 1527 1530 
f 1520 1526 1530 
f 1527 1520 1530 
f 1527 1524 1531 
f 1528 1527 1531 
f 1523 1524 1532 
f 1526 1523 1532 
f 1524 1529 1532 
f 1529 1530 1532 
f 1530 1526 1532 
f 1524 1521 1533 
f 1521 1525 1533 
f 1525 1528 1533 
f 1531 1524 1533 
o convex_106
v -0.038742 0.005966 -0.004272
v -0.034363 0.016096 0.000657
v -0.034911 0.016096 0.000657
v -0.032994 0.016096 -0.009746
v -0.039016 0.003776 0.000657
v -0.037648 0.004050 -0.009746
v -0.034911 0.014452 -0.007556
v -0.038195 0.004599 -0.009746
v -0.039565 0.004324 0.000110
v -0.033269 0.014998 -0.009472
v -0.036552 0.011440 -0.006187
f 1542 1536 1544 
f 1536 1535 1537 
f 1535 1536 1538 
f 1536 1537 1540 
f 1537 1539 1541 
f 1540 1537 1541 
f 1538 1536 1542 
f 1539 1538 1542 
f 1534 1541 1542 
f 1541 1539 1542 
f 1537 1535 1543 
f 1535 1538 1543 
f 1539 1537 1543 
f 1538 1539 1543 
f 1536 1540 1544 
f 1541 1534 1544 
f 1540 1541 1544 
f 1534 1542 1544 
o convex_107
v -0.040933 -0.008546 0.004762
v -0.038196 -0.012926 -0.009746
v -0.037649 -0.012926 -0.009746
v -0.037649 -0.012926 0.009692
v -0.039291 -0.007998 -0.009746
v -0.040933 -0.011556 -0.002080
v -0.039565 -0.007724 0.009692
v -0.040659 -0.007724 -0.006734
v -0.038744 -0.012926 0.007500
v -0.037649 -0.012378 0.009692
v -0.040933 -0.010735 0.003942
v -0.039838 -0.009094 0.009692
f 1545 1555 1556 
f 1546 1547 1548 
f 1547 1546 1549 
f 1551 1549 1552 
f 1549 1546 1552 
f 1546 1550 1552 
f 1550 1545 1552 
f 1545 1551 1552 
f 1546 1548 1553 
f 1550 1546 1553 
f 1548 1547 1554 
f 1547 1549 1554 
f 1551 1548 1554 
f 1549 1551 1554 
f 1545 1550 1555 
f 1550 1553 1555 
f 1555 1553 1556 
f 1551 1545 1556 
f 1548 1551 1556 
f 1553 1548 1556 
