o convex_0
v -0.013209 0.027355 -0.000775
v -0.004972 -0.028542 -0.006658
v -0.004382 -0.028542 -0.006658
v -0.004382 -0.009709 0.034522
v 0.013267 0.022638 -0.010189
v -0.020271 -0.006180 -0.028430
v 0.013267 -0.019120 -0.016664
v -0.020271 -0.009709 0.026867
v 0.013267 0.006754 0.023922
v -0.020271 0.022644 0.020984
v 0.013267 -0.022064 0.012743
v -0.020271 -0.026775 0.011570
v -0.019680 0.021467 -0.022540
v -0.003794 -0.009709 -0.034320
v 0.013267 0.024996 0.005688
v 0.013267 0.004407 -0.024899
v -0.010855 -0.020888 -0.027257
v -0.020271 -0.026775 -0.011368
v -0.004972 -0.027361 0.016867
v -0.007323 -0.018535 0.030398
v -0.006148 0.000282 0.033336
v 0.013267 -0.004998 0.025695
v -0.006148 0.000872 -0.033134
v -0.020271 0.024996 -0.015485
v 0.002086 -0.017944 0.028040
v 0.000320 -0.026184 -0.016664
v 0.002086 -0.015591 -0.029609
v 0.012089 -0.024417 -0.001368
v -0.012031 -0.003828 0.033929
v 0.013267 0.026173 -0.002540
v 0.013267 0.020291 0.013336
v 0.013267 0.014994 -0.018423
v -0.011443 -0.005004 -0.034320
v -0.016738 0.023815 0.019805
v 0.013267 -0.005589 -0.025492
v -0.020271 0.027355 0.002743
v -0.013209 -0.013824 0.032157
v -0.016738 0.023815 -0.020195
v -0.012031 -0.014415 -0.032547
v -0.020271 -0.002651 0.028633
v -0.002622 -0.018535 -0.030195
v -0.006735 -0.027361 -0.016664
v 0.000320 -0.027951 0.006860
v -0.004972 0.003225 -0.031961
v -0.005560 0.003225 0.032164
v 0.013267 0.013818 0.019219
v 0.013267 0.026173 0.002743
v -0.020271 -0.022064 -0.017837
v -0.020271 0.020876 0.022743
v 0.002677 -0.000304 0.030984
v -0.010855 -0.020302 0.028046
v 0.013267 -0.022655 -0.011368
v 0.013267 -0.016768 0.019219
v -0.020271 -0.022655 0.017453
v 0.002086 -0.027361 -0.008430
v -0.003210 -0.001469 -0.033727
v -0.020271 -0.027361 0.009212
v 0.000911 -0.026184 0.016281
v -0.020271 -0.000884 -0.028430
v -0.004972 -0.028542 0.006274
v -0.003794 -0.014415 0.033336
v -0.003794 -0.021473 0.026860
v 0.000911 -0.020888 -0.025492
v 0.003264 -0.008533 -0.031375
f 56 16 64 
f 7 5 9 
f 6 8 10 
f 7 9 11 
f 8 6 12 
f 9 5 15 
f 5 7 16 
f 12 6 18 
f 11 9 22 
f 6 10 24 
f 4 21 29 
f 15 5 30 
f 24 1 30 
f 9 15 31 
f 5 16 32 
f 13 23 33 
f 31 15 34 
f 16 7 35 
f 7 27 35 
f 1 24 36 
f 24 10 36 
f 10 34 36 
f 4 29 37 
f 13 24 38 
f 30 5 38 
f 24 30 38 
f 5 32 38 
f 6 33 39 
f 33 14 39 
f 10 8 40 
f 8 37 40 
f 37 29 40 
f 14 27 41 
f 17 39 41 
f 39 14 41 
f 3 2 42 
f 2 18 42 
f 18 17 42 
f 17 41 42 
f 28 11 43 
f 23 13 44 
f 32 16 44 
f 13 38 44 
f 38 32 44 
f 34 45 46 
f 9 31 46 
f 31 34 46 
f 45 9 46 
f 30 1 47 
f 15 30 47 
f 34 15 47 
f 1 36 47 
f 36 34 47 
f 18 6 48 
f 17 18 48 
f 6 39 48 
f 39 17 48 
f 29 21 49 
f 34 10 49 
f 10 40 49 
f 40 29 49 
f 21 45 49 
f 45 34 49 
f 21 4 50 
f 4 22 50 
f 22 9 50 
f 9 45 50 
f 45 21 50 
f 12 19 51 
f 20 37 51 
f 7 11 52 
f 11 28 52 
f 11 22 53 
f 25 11 53 
f 22 25 53 
f 8 12 54 
f 37 8 54 
f 12 51 54 
f 51 37 54 
f 3 42 55 
f 42 26 55 
f 43 3 55 
f 28 43 55 
f 26 52 55 
f 52 28 55 
f 14 33 56 
f 33 23 56 
f 23 44 56 
f 44 16 56 
f 18 2 57 
f 12 18 57 
f 19 12 57 
f 11 25 58 
f 19 43 58 
f 43 11 58 
f 6 24 59 
f 24 13 59 
f 33 6 59 
f 13 33 59 
f 2 3 60 
f 3 43 60 
f 43 19 60 
f 57 2 60 
f 19 57 60 
f 22 4 61 
f 25 22 61 
f 37 20 61 
f 4 37 61 
f 51 19 62 
f 20 51 62 
f 58 25 62 
f 19 58 62 
f 61 20 62 
f 25 61 62 
f 27 7 63 
f 41 27 63 
f 26 42 63 
f 42 41 63 
f 7 52 63 
f 52 26 63 
f 27 14 64 
f 16 35 64 
f 35 27 64 
f 14 56 64 
o convex_1
v -0.034980 -0.055019 -0.021376
v -0.035568 -0.042666 -0.016079
v -0.034980 -0.042078 -0.016668
v -0.029098 -0.053841 -0.018435
v -0.032040 -0.052077 -0.027847
v -0.038509 -0.043254 -0.022551
v -0.038509 -0.047960 -0.016668
v -0.034391 -0.041487 -0.021376
v -0.034980 -0.054429 -0.027259
v -0.028509 -0.053841 -0.024904
v -0.034391 -0.054429 -0.016079
v -0.039099 -0.041487 -0.018435
v -0.038509 -0.047960 -0.022551
v -0.029687 -0.050899 -0.018435
v -0.036156 -0.054429 -0.020788
v -0.029098 -0.052077 -0.026080
v -0.032040 -0.052077 -0.016079
v -0.030275 -0.054429 -0.027847
v -0.030863 -0.055019 -0.020788
v -0.033804 -0.042078 -0.019023
v -0.037921 -0.041487 -0.021963
f 76 72 85 
f 70 69 73 
f 66 71 75 
f 66 67 76 
f 71 66 76 
f 67 72 76 
f 70 73 77 
f 76 70 77 
f 71 76 77 
f 68 74 78 
f 73 65 79 
f 65 75 79 
f 75 71 79 
f 71 77 79 
f 77 73 79 
f 69 72 80 
f 78 74 80 
f 67 66 81 
f 66 75 81 
f 75 68 81 
f 78 67 81 
f 68 78 81 
f 65 73 82 
f 73 69 82 
f 69 80 82 
f 80 74 82 
f 74 68 83 
f 68 75 83 
f 75 65 83 
f 65 82 83 
f 82 74 83 
f 72 67 84 
f 67 78 84 
f 80 72 84 
f 78 80 84 
f 69 70 85 
f 72 69 85 
f 70 76 85 
o convex_2
v -0.037922 -0.041485 -0.021963
v -0.034981 -0.033250 -0.015491
v -0.039099 -0.033250 -0.015491
v -0.034981 -0.033250 -0.021374
v -0.034393 -0.041485 -0.017845
v -0.037922 -0.041485 -0.016668
v -0.039688 -0.033250 -0.019609
v -0.039099 -0.041485 -0.017845
v -0.034393 -0.041485 -0.020786
v -0.033805 -0.033250 -0.017257
f 94 89 95 
f 88 87 89 
f 90 87 91 
f 87 88 91 
f 86 90 91 
f 88 89 92 
f 89 86 92 
f 92 86 93 
f 86 91 93 
f 91 88 93 
f 88 92 93 
f 86 89 94 
f 90 86 94 
f 90 94 95 
f 89 87 95 
f 87 90 95 
o convex_3
v -0.032628 -0.049135 0.016283
v -0.030863 -0.053253 0.028050
v -0.032040 -0.053253 0.028050
v -0.038510 -0.042664 0.022164
v -0.034980 -0.054431 0.016283
v -0.036156 -0.053843 0.025107
v -0.033803 -0.042664 0.020991
v -0.028509 -0.053843 0.020991
v -0.038510 -0.047372 0.016283
v -0.035568 -0.042664 0.016283
v -0.030863 -0.055020 0.025107
v -0.028509 -0.052665 0.025107
v -0.029098 -0.052665 0.018636
v -0.030863 -0.054431 0.016872
v -0.034391 -0.054431 0.027461
v -0.038510 -0.047961 0.022752
v -0.036156 -0.054431 0.020991
v -0.038510 -0.042664 0.017459
v -0.033803 -0.042664 0.018636
v -0.033803 -0.043253 0.022164
v -0.036745 -0.044431 0.015694
f 113 105 116 
f 98 97 99 
f 99 102 105 
f 106 103 107 
f 97 106 107 
f 96 105 108 
f 107 103 108 
f 100 96 109 
f 106 100 109 
f 103 106 109 
f 96 108 109 
f 108 103 109 
f 97 98 110 
f 98 99 110 
f 106 97 110 
f 99 104 111 
f 110 99 111 
f 101 110 111 
f 104 100 112 
f 100 106 112 
f 110 101 112 
f 106 110 112 
f 111 104 112 
f 101 111 112 
f 104 99 113 
f 99 105 113 
f 105 102 114 
f 102 107 114 
f 107 108 114 
f 108 105 114 
f 99 97 115 
f 102 99 115 
f 97 107 115 
f 107 102 115 
f 96 100 116 
f 100 104 116 
f 105 96 116 
f 104 113 116 
o convex_4
v -0.035569 -0.042664 0.016283
v -0.037333 -0.041486 0.022166
v -0.037922 -0.041486 0.022166
v -0.035569 -0.033250 0.015105
v -0.039688 -0.033250 0.016283
v -0.034393 -0.033250 0.020988
v -0.033805 -0.042664 0.020400
v -0.039099 -0.042664 0.018636
v -0.039688 -0.033250 0.019224
v -0.033805 -0.033250 0.016870
v -0.037333 -0.033250 0.021577
f 122 125 127 
f 120 117 121 
f 120 121 122 
f 118 119 123 
f 122 118 123 
f 121 117 124 
f 117 123 124 
f 123 119 124 
f 122 121 125 
f 121 124 125 
f 124 119 125 
f 117 120 126 
f 120 122 126 
f 123 117 126 
f 122 123 126 
f 119 118 127 
f 118 122 127 
f 125 119 127 
o convex_5
v -0.043215 0.018517 0.003926
v -0.022625 0.000870 0.028638
v -0.028509 0.012046 0.025694
v -0.020273 0.026766 0.003926
v -0.023802 -0.032657 0.007458
v -0.040274 -0.032070 0.019221
v -0.041451 -0.020889 0.003926
v -0.038509 0.021462 0.017455
v -0.020271 -0.027952 0.003926
v -0.020273 0.021468 0.022163
v -0.020271 -0.009120 0.026282
v -0.039686 0.027933 0.005104
v -0.036744 -0.032070 0.022165
v -0.033215 -0.003829 0.026285
v -0.043215 0.020881 0.010401
v -0.021450 -0.032070 0.009811
v -0.043215 -0.015004 0.006870
v -0.040274 0.003809 0.018633
v -0.036157 0.026760 0.012755
v -0.039686 -0.033250 0.015692
v -0.031453 -0.028539 0.003926
v -0.034980 -0.033250 0.021575
v -0.025569 -0.006181 0.028638
v -0.033803 0.016170 0.023341
v -0.020271 -0.022068 0.018045
v -0.020273 0.024407 0.017458
v -0.030273 0.028531 0.003926
v -0.036157 0.025000 0.016282
v -0.043803 0.023820 0.006282
v -0.040863 -0.026773 0.018633
v -0.020271 -0.005594 0.028048
v -0.029098 -0.002075 0.028048
v -0.037922 0.003223 0.021575
v -0.042628 -0.017949 0.003926
v -0.030273 -0.033250 0.009223
v -0.031451 0.019109 0.022753
v -0.037332 -0.025599 0.003926
v -0.039686 0.026173 0.011577
v -0.033215 -0.010299 0.026285
v -0.043215 0.024407 0.003926
v -0.042628 0.016170 0.012755
v -0.020271 0.016757 0.023931
v -0.042628 -0.015004 0.010989
v -0.040274 -0.033250 0.016867
v -0.020273 0.026173 0.010401
v -0.034980 0.027933 0.008636
v -0.027919 0.001457 0.028048
v -0.040863 0.007341 0.017455
v -0.020271 0.000278 0.028048
v -0.022038 -0.032657 0.007458
v -0.023802 -0.006181 0.028638
v -0.033803 0.021462 0.020399
f 151 163 179 
f 128 131 134 
f 134 131 136 
f 134 136 148 
f 140 133 149 
f 136 138 152 
f 143 136 152 
f 138 149 152 
f 149 143 152 
f 131 128 154 
f 137 153 155 
f 153 146 155 
f 144 142 156 
f 144 133 157 
f 138 136 158 
f 149 138 158 
f 151 141 159 
f 151 135 160 
f 141 151 160 
f 157 141 160 
f 145 157 160 
f 128 134 161 
f 156 128 161 
f 144 156 161 
f 148 132 162 
f 149 147 162 
f 130 137 163 
f 151 130 163 
f 147 134 164 
f 134 148 164 
f 148 162 164 
f 162 147 164 
f 142 135 165 
f 146 139 165 
f 135 155 165 
f 155 146 165 
f 139 156 165 
f 156 142 165 
f 133 140 166 
f 140 150 166 
f 157 133 166 
f 141 157 166 
f 159 141 166 
f 150 159 166 
f 154 128 167 
f 139 154 167 
f 128 156 167 
f 156 139 167 
f 135 142 168 
f 142 157 168 
f 130 129 169 
f 136 131 169 
f 137 130 169 
f 153 137 169 
f 158 136 169 
f 142 144 170 
f 144 157 170 
f 157 142 170 
f 133 144 171 
f 134 147 171 
f 149 133 171 
f 147 149 171 
f 161 134 171 
f 144 161 171 
f 131 154 172 
f 169 131 172 
f 153 169 172 
f 139 146 173 
f 146 153 173 
f 154 139 173 
f 153 172 173 
f 172 154 173 
f 129 130 174 
f 150 129 174 
f 130 151 174 
f 159 150 174 
f 151 159 174 
f 157 145 175 
f 160 135 175 
f 145 160 175 
f 135 168 175 
f 168 157 175 
f 129 158 176 
f 169 129 176 
f 158 169 176 
f 136 143 177 
f 132 148 177 
f 148 136 177 
f 143 149 177 
f 162 132 177 
f 149 162 177 
f 140 149 178 
f 129 150 178 
f 150 140 178 
f 158 129 178 
f 149 158 178 
f 135 151 179 
f 155 135 179 
f 137 155 179 
f 163 137 179 
o convex_6
v 0.013267 0.012640 -0.020192
v 0.027388 0.000876 0.026285
v 0.026799 0.000876 0.026285
v 0.025033 -0.026777 -0.020782
v 0.035036 0.026762 -0.005486
v 0.013267 0.003229 0.025101
v 0.035038 -0.023243 0.007452
v 0.013267 -0.022652 0.011568
v 0.032683 0.000881 -0.023135
v 0.013267 0.024994 0.006273
v 0.024445 -0.026777 0.020984
v 0.013267 -0.005001 -0.025493
v 0.035036 0.025000 0.006862
v 0.035038 -0.022066 -0.009013
v 0.033859 -0.000290 0.020984
v 0.019153 -0.026777 -0.019603
v 0.020918 0.014407 0.020400
v 0.026799 0.004990 -0.025493
v 0.013267 0.024994 -0.006070
v 0.013267 -0.022652 -0.011365
v 0.019741 -0.026777 0.020400
v 0.020330 0.020289 -0.015487
v 0.013267 -0.003824 0.025695
v 0.034448 0.029120 0.000393
v 0.025033 -0.017355 -0.024314
v 0.035038 0.003814 -0.017840
v 0.017977 0.020289 0.015105
v 0.026211 -0.017355 0.023927
v 0.031507 0.007929 0.021574
v 0.035038 0.003223 0.018042
v 0.027976 -0.003239 -0.026082
v 0.031507 -0.006177 -0.023135
v 0.032095 -0.006762 0.022163
v 0.013267 0.001461 -0.025493
v 0.013267 0.015578 0.018042
v 0.025033 0.017345 -0.017840
v 0.013267 0.026762 0.000388
v 0.013267 -0.023834 0.004510
v 0.026211 -0.026777 0.019221
v 0.033271 -0.024419 -0.006660
v 0.024445 0.022051 0.013337
v 0.031507 0.009110 -0.020782
v 0.023270 -0.017355 0.024516
v 0.013267 -0.017946 0.018042
v 0.025621 0.016169 0.018632
v 0.027388 0.004399 0.025695
v 0.020918 -0.023243 -0.022550
v 0.013267 -0.016770 -0.019018
v 0.019153 0.012640 -0.021371
v 0.035038 -0.020890 0.009805
v 0.018565 0.026171 -0.005486
v 0.032095 -0.001471 0.023927
v 0.035036 0.027938 0.003920
v 0.022094 -0.007353 0.026285
v 0.021506 -0.007944 -0.026082
v 0.013267 0.022051 -0.011365
v 0.018565 0.026171 0.005689
v 0.026799 -0.026777 -0.016666
v 0.033859 0.002638 -0.021371
v 0.013267 0.006758 0.023927
v 0.013858 0.007343 -0.023724
v 0.033271 0.004405 0.021574
v 0.027976 -0.002057 0.026285
v 0.020918 -0.022657 0.022753
f 222 202 243 
f 185 180 187 
f 180 185 189 
f 187 180 191 
f 183 190 195 
f 180 189 198 
f 187 191 199 
f 195 190 200 
f 182 185 202 
f 185 187 202 
f 186 193 205 
f 186 205 209 
f 197 188 210 
f 204 210 211 
f 193 183 211 
f 183 204 211 
f 210 188 211 
f 191 180 213 
f 197 210 213 
f 189 185 214 
f 206 189 214 
f 196 206 214 
f 201 184 215 
f 198 189 216 
f 187 199 217 
f 199 195 217 
f 200 187 217 
f 195 200 217 
f 190 183 218 
f 207 190 218 
f 212 207 218 
f 193 186 219 
f 186 218 219 
f 206 196 220 
f 188 197 221 
f 197 215 221 
f 215 184 221 
f 190 207 222 
f 187 200 223 
f 202 187 223 
f 200 202 223 
f 208 192 224 
f 192 220 224 
f 220 196 224 
f 182 181 225 
f 185 182 225 
f 224 196 225 
f 208 224 225 
f 183 195 226 
f 195 191 226 
f 204 183 226 
f 191 195 227 
f 199 191 227 
f 195 199 227 
f 180 201 228 
f 215 197 228 
f 201 215 228 
f 186 209 229 
f 209 194 229 
f 194 212 229 
f 218 186 229 
f 212 218 229 
f 184 201 230 
f 203 184 230 
f 198 216 230 
f 216 203 230 
f 212 194 231 
f 207 212 231 
f 225 181 231 
f 184 203 232 
f 205 184 232 
f 192 209 232 
f 209 205 232 
f 220 192 232 
f 181 182 233 
f 182 202 233 
f 202 222 233 
f 210 204 234 
f 191 213 234 
f 213 210 234 
f 226 191 234 
f 204 226 234 
f 180 198 235 
f 201 180 235 
f 230 201 235 
f 198 230 235 
f 189 206 236 
f 216 189 236 
f 203 216 236 
f 206 220 236 
f 232 203 236 
f 220 232 236 
f 183 193 237 
f 218 183 237 
f 193 219 237 
f 219 218 237 
f 184 205 238 
f 205 193 238 
f 193 211 238 
f 211 188 238 
f 188 221 238 
f 221 184 238 
f 214 185 239 
f 196 214 239 
f 185 225 239 
f 225 196 239 
f 213 180 240 
f 197 213 240 
f 180 228 240 
f 228 197 240 
f 192 208 241 
f 209 192 241 
f 194 209 241 
f 208 225 241 
f 231 194 241 
f 225 231 241 
f 222 207 242 
f 231 181 242 
f 207 231 242 
f 181 233 242 
f 233 222 242 
f 200 190 243 
f 202 200 243 
f 190 222 243 
o convex_7
v 0.035038 0.026763 -0.005486
v 0.035627 0.003825 0.015105
v 0.035038 0.003825 0.015105
v 0.035627 -0.021477 -0.008429
v 0.040922 0.031473 -0.001955
v 0.040921 -0.008532 0.005101
v 0.040921 0.004990 -0.010782
v 0.035038 -0.022065 0.008041
v 0.035038 0.003825 -0.014903
v 0.040921 0.027351 0.006866
v 0.035038 0.026763 0.005688
v 0.040921 0.002060 0.010394
v 0.040921 0.024998 -0.007838
v 0.040921 -0.008532 -0.004898
v 0.036216 -0.021477 0.007453
v 0.035038 -0.022065 -0.007838
v 0.040921 0.014989 0.010394
v 0.035627 -0.000293 -0.014903
v 0.036804 -0.020295 -0.007251
v 0.035627 0.000296 0.015105
v 0.035038 0.029115 0.000983
v 0.035038 0.016759 -0.010782
v 0.040333 0.031473 0.002157
v 0.040921 0.016171 -0.010191
v 0.035038 0.019111 0.009809
v 0.035627 -0.020295 0.009219
v 0.040921 0.002060 -0.010191
v 0.039156 0.027351 -0.006663
f 256 265 271 
f 246 244 251 
f 251 244 252 
f 244 246 254 
f 249 248 255 
f 248 249 257 
f 251 252 259 
f 258 251 259 
f 247 258 259 
f 253 245 260 
f 248 253 260 
f 255 248 260 
f 245 255 260 
f 247 259 261 
f 259 252 261 
f 257 249 262 
f 258 247 262 
f 249 258 262 
f 245 246 263 
f 246 251 263 
f 255 245 263 
f 248 244 264 
f 244 254 264 
f 252 244 265 
f 256 252 265 
f 253 248 266 
f 254 253 266 
f 248 264 266 
f 264 254 266 
f 248 250 267 
f 256 248 267 
f 252 256 267 
f 250 261 267 
f 261 252 267 
f 246 245 268 
f 245 253 268 
f 254 246 268 
f 253 254 268 
f 249 255 269 
f 251 258 269 
f 258 249 269 
f 263 251 269 
f 255 263 269 
f 250 248 270 
f 248 257 270 
f 247 261 270 
f 261 250 270 
f 262 247 270 
f 257 262 270 
f 244 248 271 
f 248 256 271 
f 265 244 271 
o convex_8
v 0.043864 0.009115 0.009808
v 0.040922 -0.007360 -0.004899
v 0.040922 -0.005595 -0.006074
v 0.051513 0.008526 -0.004310
v 0.040922 0.009115 -0.010194
v 0.040922 -0.007360 0.005102
v 0.050923 0.009115 0.005102
v 0.040922 0.009115 0.010396
v 0.047394 0.009115 -0.008428
v 0.042099 -0.006772 0.004513
v 0.041512 0.002053 0.009808
v 0.041512 0.003230 -0.010194
v 0.049746 0.008526 0.006865
v 0.041512 -0.007360 -0.004899
v 0.051513 0.008526 0.003925
v 0.049746 0.008526 -0.006662
v 0.041512 -0.007360 0.005102
f 286 284 288 
f 274 273 276 
f 276 273 277 
f 276 272 278 
f 272 276 279 
f 276 277 279 
f 276 278 280 
f 278 275 280 
f 272 279 282 
f 279 277 282 
f 274 276 283 
f 276 280 283 
f 278 272 284 
f 272 282 284 
f 273 274 285 
f 277 273 285 
f 275 281 285 
f 274 283 285 
f 275 278 286 
f 281 275 286 
f 278 284 286 
f 280 275 287 
f 283 280 287 
f 275 285 287 
f 285 283 287 
f 282 277 288 
f 284 282 288 
f 277 285 288 
f 285 281 288 
f 281 286 288 
o convex_9
v 0.073872 0.019115 0.003336
v 0.052693 0.020881 -0.013726
v 0.052693 0.022056 -0.013726
v 0.040928 0.009115 0.010394
v 0.041515 0.026766 0.007456
v 0.040928 0.009115 -0.010194
v 0.070337 0.012059 -0.003134
v 0.060923 0.026766 0.012161
v 0.060336 0.026766 -0.012547
v 0.040928 0.026766 -0.007253
v 0.069750 0.014410 0.007456
v 0.070337 0.015587 -0.007842
v 0.054457 0.016765 0.013340
v 0.066809 0.026766 -0.000778
v 0.073872 0.020292 -0.003134
v 0.052106 0.009115 0.005101
v 0.052693 0.025000 0.013340
v 0.056808 0.016178 -0.013132
v 0.070337 0.012059 0.003336
v 0.047984 0.009115 -0.008430
v 0.040928 0.019115 0.009808
v 0.040928 0.016765 -0.010194
v 0.052693 0.026175 -0.013132
v 0.056808 0.016765 0.013340
v 0.070337 0.016765 0.008044
v 0.072694 0.020881 0.004512
v 0.073281 0.015000 -0.003722
v 0.070337 0.014410 -0.007253
v 0.052693 0.009115 -0.004307
v 0.073281 0.015000 0.003924
v 0.072694 0.019705 -0.005486
v 0.043866 0.009115 0.009808
v 0.057395 0.015001 0.012161
v 0.052693 0.026766 0.012747
v 0.058569 0.013825 -0.010780
v 0.040928 0.025000 0.008044
v 0.066219 0.026766 0.002748
v 0.059159 0.010880 0.006868
v 0.062687 0.026766 -0.009606
v 0.058569 0.010880 -0.007253
f 323 316 328 
f 291 290 294 
f 293 296 297 
f 294 292 298 
f 293 297 298 
f 297 296 302 
f 292 294 304 
f 292 301 305 
f 290 291 306 
f 294 290 306 
f 291 297 306 
f 297 300 306 
f 304 294 308 
f 298 292 309 
f 292 305 309 
f 291 294 310 
f 294 298 310 
f 310 298 311 
f 297 291 311 
f 298 297 311 
f 291 310 311 
f 301 292 312 
f 296 305 312 
f 305 301 312 
f 312 299 313 
f 296 312 313 
f 289 303 314 
f 303 302 314 
f 313 289 314 
f 296 313 314 
f 303 289 315 
f 307 295 315 
f 306 300 316 
f 315 295 316 
f 300 315 316 
f 295 307 317 
f 307 304 317 
f 308 295 317 
f 304 308 317 
f 299 307 318 
f 289 313 318 
f 313 299 318 
f 315 289 318 
f 307 315 318 
f 300 297 319 
f 315 300 319 
f 303 315 319 
f 292 304 320 
f 312 292 321 
f 299 312 321 
f 292 320 321 
f 296 293 322 
f 305 296 322 
f 294 306 323 
f 308 294 323 
f 306 316 323 
f 293 298 324 
f 298 309 324 
f 309 305 324 
f 322 293 324 
f 305 322 324 
f 302 296 325 
f 296 314 325 
f 314 302 325 
f 307 299 326 
f 304 307 326 
f 320 304 326 
f 299 321 326 
f 321 320 326 
f 297 302 327 
f 302 303 327 
f 319 297 327 
f 303 319 327 
f 295 308 328 
f 316 295 328 
f 308 323 328 
o convex_10
v -0.020273 0.022050 -0.021371
v -0.043214 -0.015002 -0.006668
v -0.042628 -0.016182 -0.010786
v -0.021450 -0.032064 -0.007845
v -0.020273 0.026757 -0.006079
v -0.037332 -0.032651 -0.021960
v -0.043214 0.022050 -0.009609
v -0.020273 -0.005001 -0.028433
v -0.033215 0.012636 -0.024315
v -0.037920 0.027937 -0.006079
v -0.034392 -0.027357 -0.006079
v -0.020273 -0.027944 -0.006079
v -0.040274 -0.032064 -0.019021
v -0.033803 -0.003827 -0.026081
v -0.034980 0.024991 -0.016669
v -0.040274 0.006168 -0.018430
v -0.020273 -0.023242 -0.017255
v -0.039686 -0.033244 -0.015493
v -0.027921 -0.000893 -0.028433
v -0.034392 -0.033244 -0.021374
v -0.043214 0.024404 -0.006079
v -0.034392 0.017343 -0.022549
v -0.028509 0.013229 -0.025490
v -0.041451 -0.020889 -0.006079
v -0.020273 0.024404 -0.017842
v -0.030275 -0.033244 -0.009611
v -0.022038 0.000874 -0.028433
v -0.038509 0.022637 -0.016669
v -0.036157 0.027344 -0.011373
v -0.040863 -0.027357 -0.018430
v -0.022038 -0.032064 -0.010786
v -0.020273 0.020876 -0.022549
v -0.025567 -0.006767 -0.028433
v -0.042628 0.017343 -0.012550
v -0.033803 -0.010888 -0.026081
v -0.030275 0.019697 -0.022549
v -0.039686 0.026170 -0.011373
v -0.022627 -0.032651 -0.007256
v -0.029686 0.027937 -0.007256
v -0.038509 0.004401 -0.020785
v -0.037920 -0.029710 -0.021960
v -0.020273 -0.008534 -0.026667
v -0.040274 -0.033244 -0.016669
v -0.030275 -0.032651 -0.008434
v -0.037332 -0.025596 -0.006079
v -0.037920 0.019697 -0.018430
v -0.042628 -0.017948 -0.006079
v -0.035569 0.023230 -0.018430
v -0.030863 -0.008534 -0.027258
f 363 342 377 
f 331 330 335 
f 329 333 336 
f 333 338 339 
f 336 333 340 
f 333 339 340 
f 336 340 345 
f 340 332 345 
f 342 337 347 
f 334 336 348 
f 335 330 349 
f 339 338 349 
f 347 337 351 
f 337 350 351 
f 339 349 352 
f 333 329 353 
f 329 343 353 
f 346 348 354 
f 336 347 355 
f 347 351 355 
f 353 343 357 
f 330 331 358 
f 341 330 358 
f 345 332 359 
f 348 345 359 
f 329 336 360 
f 336 355 360 
f 355 351 360 
f 336 334 361 
f 347 336 361 
f 331 335 362 
f 335 356 362 
f 358 331 362 
f 344 358 362 
f 351 350 364 
f 360 351 364 
f 335 349 365 
f 349 338 365 
f 356 335 365 
f 338 357 365 
f 357 343 365 
f 332 340 366 
f 340 339 366 
f 354 348 366 
f 359 332 366 
f 348 359 366 
f 338 333 367 
f 333 353 367 
f 357 338 367 
f 353 357 367 
f 337 342 368 
f 350 337 368 
f 358 344 368 
f 358 368 369 
f 334 341 369 
f 341 358 369 
f 363 334 369 
f 342 363 369 
f 368 342 369 
f 336 345 370 
f 348 336 370 
f 345 348 370 
f 330 341 371 
f 341 334 371 
f 334 348 371 
f 348 346 371 
f 346 352 371 
f 346 354 372 
f 366 339 372 
f 354 366 372 
f 339 352 373 
f 352 346 373 
f 372 339 373 
f 346 372 373 
f 356 350 374 
f 362 356 374 
f 344 362 374 
f 350 368 374 
f 368 344 374 
f 349 330 375 
f 352 349 375 
f 330 371 375 
f 371 352 375 
f 343 329 376 
f 350 356 376 
f 329 360 376 
f 364 350 376 
f 360 364 376 
f 365 343 376 
f 356 365 376 
f 342 347 377 
f 361 334 377 
f 347 361 377 
f 334 363 377 
o convex_11
v -0.029685 0.028524 0.003926
v -0.052044 -0.030890 0.003337
v -0.052044 -0.030890 0.003926
v -0.020271 -0.027950 -0.006077
v -0.043805 0.023817 -0.006077
v -0.020271 -0.027363 0.003926
v -0.020271 0.026763 -0.006077
v -0.046744 -0.023829 -0.006077
v -0.043217 0.024404 0.003926
v -0.020271 0.026763 0.003926
v -0.038512 0.030291 -0.001957
v -0.049689 -0.026770 -0.003723
v -0.044981 0.023817 0.000394
v -0.023804 -0.029123 -0.006077
v -0.052044 -0.027357 0.002160
v -0.039100 0.027937 -0.006077
v -0.040275 0.029698 0.002160
v -0.022625 -0.028536 0.003926
v -0.033806 0.030291 0.000394
v -0.030273 -0.029123 -0.006077
v -0.049099 -0.022063 -0.004899
v -0.044981 0.022637 0.002160
v -0.050277 -0.029710 -0.000782
v -0.020862 0.027937 0.000394
v -0.043217 0.027344 -0.001957
v -0.050277 -0.022063 -0.002545
v -0.044981 0.023230 -0.001957
v -0.036745 0.029111 0.003926
v -0.052044 -0.028536 0.003926
v -0.028510 0.027937 -0.006077
v -0.043217 0.027344 0.001572
f 394 402 408 
f 378 380 383 
f 383 381 384 
f 381 382 384 
f 382 381 385 
f 380 378 386 
f 378 383 387 
f 383 384 387 
f 380 379 391 
f 385 381 391 
f 379 380 392 
f 389 379 392 
f 384 382 393 
f 383 380 395 
f 381 383 395 
f 380 391 395 
f 391 381 395 
f 388 394 396 
f 389 385 397 
f 391 379 397 
f 385 391 397 
f 382 385 398 
f 385 389 398 
f 390 392 399 
f 379 389 400 
f 397 379 400 
f 389 397 400 
f 378 387 401 
f 387 384 401 
f 396 378 401 
f 384 396 401 
f 393 382 402 
f 388 393 402 
f 394 388 402 
f 389 392 403 
f 382 398 403 
f 398 389 403 
f 392 390 404 
f 402 382 404 
f 390 402 404 
f 403 392 404 
f 382 403 404 
f 386 378 405 
f 394 386 405 
f 378 396 405 
f 396 394 405 
f 380 386 406 
f 392 380 406 
f 386 399 406 
f 399 392 406 
f 384 393 407 
f 393 388 407 
f 396 384 407 
f 388 396 407 
f 386 394 408 
f 399 386 408 
f 390 399 408 
f 402 390 408 
o convex_12
v 0.025035 -0.053841 -0.023728
v 0.024447 -0.042666 -0.013137
v 0.025035 -0.040310 -0.013726
v 0.030919 -0.052665 -0.016668
v 0.025035 -0.053254 -0.013726
v 0.030330 -0.052076 -0.024316
v 0.021505 -0.040310 -0.018434
v 0.021505 -0.046783 -0.016081
v 0.025624 -0.040310 -0.018434
v 0.029154 -0.053841 -0.014315
v 0.026800 -0.050900 -0.024905
v 0.029154 -0.053841 -0.024905
v 0.022094 -0.040310 -0.014315
v 0.022094 -0.047371 -0.013726
v 0.024447 -0.053841 -0.016668
v 0.030919 -0.051487 -0.018434
v 0.022094 -0.045607 -0.020196
v 0.027387 -0.049722 -0.013137
v 0.030330 -0.050900 -0.015493
v 0.028564 -0.054432 -0.017846
v 0.026212 -0.040900 -0.016081
v 0.030919 -0.051487 -0.021962
f 429 424 430 
f 415 411 417 
f 417 414 419 
f 415 417 419 
f 414 412 420 
f 409 419 420 
f 419 414 420 
f 410 411 421 
f 411 415 421 
f 415 416 421 
f 421 416 422 
f 410 421 422 
f 413 422 423 
f 416 409 423 
f 418 413 423 
f 422 416 423 
f 409 416 425 
f 416 415 425 
f 419 409 425 
f 415 419 425 
f 411 410 426 
f 413 418 426 
f 410 422 426 
f 422 413 426 
f 418 412 427 
f 412 424 427 
f 411 426 427 
f 426 418 427 
f 412 418 428 
f 420 412 428 
f 409 420 428 
f 423 409 428 
f 418 423 428 
f 417 411 429 
f 411 427 429 
f 427 424 429 
f 412 414 430 
f 414 417 430 
f 424 412 430 
f 417 429 430 
o convex_13
v 0.023269 -0.029720 -0.020785
v 0.025623 -0.026779 -0.012549
v 0.022094 -0.026779 -0.012549
v 0.025035 -0.040310 -0.013727
v 0.019740 -0.033250 -0.017844
v 0.025623 -0.040310 -0.018432
v 0.026212 -0.026779 -0.019020
v 0.019740 -0.026779 -0.020197
v 0.021505 -0.040310 -0.014903
v 0.022094 -0.040310 -0.019020
v 0.019151 -0.026779 -0.014903
v 0.026800 -0.028544 -0.016080
v 0.022094 -0.034425 -0.012549
v 0.025623 -0.026779 -0.020197
f 438 437 444 
f 433 432 437 
f 433 437 438 
f 436 434 439 
f 436 439 440 
f 431 436 440 
f 435 438 440 
f 438 431 440 
f 439 435 440 
f 433 438 441 
f 438 435 441 
f 435 439 441 
f 432 434 442 
f 434 436 442 
f 437 432 442 
f 436 437 442 
f 432 433 443 
f 434 432 443 
f 439 434 443 
f 433 441 443 
f 441 439 443 
f 436 431 444 
f 437 436 444 
f 431 438 444 
o convex_14
v 0.022682 -0.046784 0.013340
v 0.028564 -0.052076 0.025108
v 0.027977 -0.050311 0.024519
v 0.030330 -0.052076 0.015107
v 0.026212 -0.041488 0.018049
v 0.024447 -0.053253 0.023341
v 0.022094 -0.041488 0.019224
v 0.026212 -0.053841 0.013340
v 0.024447 -0.041488 0.013340
v 0.030919 -0.053253 0.022165
v 0.021505 -0.046784 0.016283
v 0.024447 -0.053841 0.016871
v 0.022094 -0.041488 0.013929
v 0.030919 -0.051488 0.021577
v 0.025624 -0.053841 0.024519
v 0.028564 -0.054430 0.018049
v 0.026212 -0.041488 0.015696
f 449 458 461 
f 447 449 451 
f 451 449 453 
f 448 452 453 
f 452 445 453 
f 450 451 455 
f 445 452 456 
f 455 445 456 
f 450 455 456 
f 453 445 457 
f 451 453 457 
f 445 455 457 
f 455 451 457 
f 447 446 458 
f 449 447 458 
f 446 454 458 
f 454 448 458 
f 446 447 459 
f 447 451 459 
f 451 450 459 
f 454 446 459 
f 450 456 459 
f 459 456 460 
f 452 448 460 
f 448 454 460 
f 456 452 460 
f 454 459 460 
f 448 453 461 
f 453 449 461 
f 458 448 461 
o convex_15
v 0.023269 -0.036778 0.012752
v 0.023858 -0.026779 0.020989
v 0.022682 -0.026779 0.020989
v 0.022094 -0.041486 0.019223
v 0.019151 -0.026779 0.015105
v 0.026800 -0.026779 0.016283
v 0.026212 -0.041486 0.017457
v 0.025623 -0.026779 0.012752
v 0.022094 -0.041486 0.014518
v 0.019151 -0.027956 0.019223
v 0.025623 -0.041486 0.014518
v 0.020917 -0.027368 0.012752
v 0.025035 -0.032663 0.020401
v 0.019151 -0.030309 0.015695
v 0.026212 -0.026779 0.019223
v 0.019740 -0.026779 0.020401
v 0.021505 -0.041486 0.018635
f 465 477 478 
f 464 463 466 
f 466 463 467 
f 466 467 469 
f 468 465 470 
f 467 468 472 
f 469 467 472 
f 462 469 472 
f 470 462 472 
f 468 470 472 
f 469 462 473 
f 466 469 473 
f 462 470 473 
f 463 464 474 
f 464 465 474 
f 465 468 474 
f 471 466 475 
f 466 473 475 
f 473 470 475 
f 467 463 476 
f 468 467 476 
f 463 474 476 
f 474 468 476 
f 465 464 477 
f 464 466 477 
f 466 471 477 
f 477 471 478 
f 470 465 478 
f 475 470 478 
f 471 475 478 
o convex_16
v 0.048571 0.036769 0.005100
v 0.046805 0.026766 -0.009604
v 0.049159 0.026766 -0.009604
v 0.049159 0.026766 0.009808
v 0.040922 0.026766 0.006865
v 0.040922 0.031475 -0.003130
v 0.049159 0.033826 -0.013137
v 0.049159 0.032650 0.014517
v 0.040922 0.026766 -0.006664
v 0.040922 0.031475 0.002744
v 0.047393 0.036769 -0.000780
v 0.048571 0.032060 -0.014903
v 0.049159 0.036769 -0.004898
v 0.048571 0.033826 0.013339
v 0.048571 0.030885 0.014517
v 0.047982 0.036179 -0.006076
v 0.040922 0.027943 0.006865
v 0.040922 0.028533 -0.006664
f 490 487 496 
f 480 481 482 
f 480 482 483 
f 482 481 485 
f 482 485 486 
f 480 483 487 
f 483 484 487 
f 484 483 488 
f 484 488 489 
f 488 479 489 
f 481 480 490 
f 485 481 490 
f 484 485 490 
f 480 487 490 
f 479 486 491 
f 486 485 491 
f 489 479 491 
f 486 479 492 
f 479 488 492 
f 483 482 493 
f 482 486 493 
f 485 484 494 
f 484 489 494 
f 491 485 494 
f 489 491 494 
f 488 483 495 
f 486 492 495 
f 492 488 495 
f 483 493 495 
f 493 486 495 
f 487 484 496 
f 484 490 496 
o convex_17
v 0.050336 0.036769 -0.008430
v 0.056220 0.039711 -0.020198
v 0.056220 0.040887 -0.020198
v 0.063281 0.041476 -0.015489
v 0.056220 0.036769 -0.017843
v 0.051514 0.039711 -0.009608
v 0.055045 0.036769 -0.008430
v 0.052104 0.036769 -0.016668
v 0.053278 0.040887 -0.017255
v 0.061513 0.039122 -0.017255
v 0.053869 0.039122 -0.008430
v 0.050926 0.039122 -0.013727
v 0.056220 0.041476 -0.016668
f 505 502 509 
f 497 501 503 
f 499 498 504 
f 501 497 504 
f 498 501 504 
f 499 504 505 
f 498 499 506 
f 499 500 506 
f 501 498 506 
f 500 503 506 
f 503 501 506 
f 502 497 507 
f 500 502 507 
f 503 500 507 
f 497 503 507 
f 497 502 508 
f 504 497 508 
f 502 505 508 
f 505 504 508 
f 500 499 509 
f 502 500 509 
f 499 505 509 
o convex_18
v 0.051515 0.037358 0.015693
v 0.063281 0.041476 0.015693
v 0.063281 0.040887 0.015693
v 0.050338 0.038534 -0.008430
v 0.056218 0.036769 -0.004900
v 0.053281 0.040887 0.017457
v 0.057983 0.037358 0.018046
v 0.048571 0.036769 0.001575
v 0.053868 0.039122 -0.008430
v 0.053868 0.036769 0.018046
v 0.056218 0.041476 0.019224
v 0.050338 0.036769 -0.008430
v 0.050925 0.039122 -0.008430
v 0.060336 0.038534 0.018635
v 0.050925 0.039122 0.013927
v 0.055046 0.037946 -0.008430
v 0.056218 0.041476 0.016279
v 0.050338 0.039122 -0.000781
v 0.059161 0.040887 0.019812
v 0.055046 0.039122 0.019812
f 528 520 529 
f 514 516 519 
f 517 514 519 
f 510 517 519 
f 517 513 521 
f 514 517 521 
f 513 518 521 
f 518 513 522 
f 511 518 522 
f 514 512 523 
f 516 514 523 
f 510 515 524 
f 517 510 524 
f 511 512 525 
f 512 514 525 
f 518 511 525 
f 514 521 525 
f 521 518 525 
f 520 511 526 
f 515 520 526 
f 522 515 526 
f 511 522 526 
f 513 517 527 
f 522 513 527 
f 515 522 527 
f 524 515 527 
f 517 524 527 
f 512 511 528 
f 511 520 528 
f 523 512 528 
f 523 528 529 
f 515 510 529 
f 510 519 529 
f 519 516 529 
f 520 515 529 
f 516 523 529 
o convex_19
v 0.050336 0.036769 0.028040
v 0.050924 0.026766 -0.022551
v 0.050336 0.027355 -0.022551
v 0.055630 0.036769 -0.016072
v 0.056220 0.026766 0.012155
v 0.050336 0.036769 -0.027844
v 0.049159 0.026766 0.009800
v 0.055630 0.036769 0.015686
v 0.056220 0.026766 -0.011960
v 0.051513 0.027355 0.025097
v 0.049159 0.036769 -0.006661
v 0.051513 0.033826 -0.029019
v 0.049159 0.029709 -0.016665
v 0.049749 0.033826 0.029227
v 0.056220 0.036769 -0.006661
v 0.052102 0.035003 0.027453
v 0.049749 0.033826 -0.029612
v 0.051513 0.027355 -0.024901
v 0.049159 0.036769 0.006857
v 0.050924 0.026766 0.022753
v 0.049159 0.026766 -0.010191
v 0.056220 0.036179 0.007450
v 0.051513 0.029709 0.027453
v 0.049749 0.030885 0.026865
v 0.049159 0.032060 0.017454
f 553 543 554 
f 530 533 535 
f 531 534 536 
f 533 530 537 
f 534 531 538 
f 530 535 540 
f 535 533 541 
f 533 538 541 
f 536 540 542 
f 533 537 544 
f 538 533 544 
f 534 538 544 
f 537 530 545 
f 534 537 545 
f 530 543 545 
f 540 535 546 
f 535 541 546 
f 532 542 546 
f 542 540 546 
f 531 532 547 
f 538 531 547 
f 541 538 547 
f 532 546 547 
f 546 541 547 
f 530 540 548 
f 540 536 548 
f 543 530 548 
f 536 534 549 
f 534 539 549 
f 532 531 550 
f 531 536 550 
f 542 532 550 
f 536 542 550 
f 537 534 551 
f 544 537 551 
f 534 544 551 
f 539 534 552 
f 534 545 552 
f 545 543 552 
f 536 549 553 
f 549 539 553 
f 539 552 553 
f 552 543 553 
f 548 536 554 
f 543 548 554 
f 536 553 554 
o convex_20
v 0.056809 0.030298 -0.012547
v 0.066223 0.027355 0.000980
v 0.062103 0.032650 0.007452
v 0.056220 0.026766 0.012161
v 0.056220 0.036769 -0.004310
v 0.056220 0.026766 -0.011958
v 0.060928 0.033238 -0.010782
v 0.056220 0.035003 0.009217
v 0.061514 0.026766 -0.011958
v 0.061514 0.027943 0.012749
v 0.066223 0.026766 -0.001368
v 0.060928 0.033238 0.010984
v 0.056809 0.036769 0.003336
v 0.059163 0.030298 0.013340
v 0.056220 0.035003 -0.009014
v 0.061514 0.029709 -0.012547
v 0.062103 0.032650 -0.007249
v 0.061514 0.026766 0.011572
v 0.062691 0.031475 0.009217
v 0.057986 0.030885 -0.013137
f 570 563 574 
f 558 559 560 
f 559 558 562 
f 558 560 563 
f 558 563 565 
f 559 562 567 
f 566 557 567 
f 562 566 567 
f 562 558 568 
f 558 564 568 
f 566 562 568 
f 564 566 568 
f 555 560 569 
f 560 559 569 
f 559 561 569 
f 561 565 570 
f 565 563 570 
f 557 556 571 
f 561 559 571 
f 556 565 571 
f 565 561 571 
f 567 557 571 
f 559 567 571 
f 556 564 572 
f 564 558 572 
f 565 556 572 
f 558 565 572 
f 556 557 573 
f 564 556 573 
f 557 566 573 
f 566 564 573 
f 560 555 574 
f 563 560 574 
f 555 569 574 
f 569 561 574 
f 561 570 574 
