o convex_0
v -0.002248 0.009704 0.065964
v -0.000778 0.049749 0.074416
v -0.001513 0.049749 0.074416
v -0.000778 0.010072 0.043556
v -0.000043 0.009708 0.065964
v -0.002248 0.009704 0.049803
v -0.001880 0.049749 0.070372
v -0.000411 0.049749 0.070372
v -0.000043 0.009704 0.049803
v -0.000778 0.009704 0.069634
v -0.001513 0.010072 0.043556
v -0.000043 0.029174 0.068538
v -0.002248 0.028809 0.068535
v -0.000778 0.049749 0.068900
v -0.001513 0.009704 0.069634
v -0.001513 0.049749 0.068900
v -0.000411 0.047911 0.072945
f 5 12 17 
f 3 2 7 
f 7 2 8 
f 1 6 9 
f 6 4 9 
f 4 8 9 
f 2 3 10 
f 1 9 10 
f 9 5 10 
f 4 6 11 
f 6 7 11 
f 5 9 12 
f 9 8 12 
f 6 1 13 
f 3 7 13 
f 7 6 13 
f 8 4 14 
f 7 8 14 
f 4 11 14 
f 1 10 15 
f 10 3 15 
f 13 1 15 
f 3 13 15 
f 11 7 16 
f 7 14 16 
f 14 11 16 
f 8 2 17 
f 2 10 17 
f 10 5 17 
f 12 8 17 
o convex_1
v -0.001511 0.005661 -0.049758
v -0.001511 -0.017483 -0.033583
v -0.000778 -0.017483 -0.033583
v -0.000778 0.007130 0.071477
v -0.009595 0.001252 0.064859
v 0.007305 -0.013438 0.009391
v 0.007305 -0.000217 -0.038727
v -0.009595 -0.007562 -0.038727
v -0.005187 -0.016379 0.027015
v 0.007305 0.003458 0.067796
v -0.001880 0.009704 -0.029915
v 0.001425 -0.011969 -0.055997
v -0.008125 0.004190 -0.040567
v 0.001425 -0.008661 0.056034
v -0.009595 -0.014175 0.002055
v -0.009595 0.004924 0.064480
v 0.002894 0.008599 -0.029184
v -0.000778 0.009704 0.069637
v 0.002894 -0.016379 0.027015
v -0.006656 -0.011972 -0.050110
v 0.005467 -0.012704 -0.041298
v -0.001511 -0.004622 -0.061885
v -0.002614 -0.003155 0.067796
v 0.007305 0.004927 0.055303
v -0.005187 0.008599 -0.029171
v 0.004732 0.001619 -0.050475
v 0.005834 -0.016012 -0.007135
v -0.009595 -0.000217 -0.038727
v -0.004818 -0.012704 0.043541
v -0.007757 -0.000954 -0.050489
v -0.004818 -0.016379 -0.041298
v 0.005467 0.004924 -0.040933
v -0.000778 -0.017483 0.027733
v 0.005467 -0.009766 0.042432
v 0.006936 -0.007929 -0.042773
v -0.005187 0.008599 0.043176
v -0.004818 -0.017483 0.003895
v 0.002527 -0.016379 -0.041298
v -0.007757 -0.009766 0.042445
v -0.000778 0.009334 -0.040933
v 0.002894 0.008599 0.043176
v 0.004365 -0.007562 -0.054157
v 0.007305 -0.013808 -0.010804
v -0.005187 0.004190 -0.050475
v -0.009226 -0.014540 -0.010073
v -0.003349 -0.015277 -0.050110
v 0.002527 -0.017481 0.003895
v -0.004083 -0.009031 -0.058204
v -0.009595 0.003088 0.067796
v -0.000778 -0.012339 0.047954
v -0.002247 0.009704 0.065942
v -0.000778 -0.000952 0.069989
v -0.004818 0.008232 -0.040933
v 0.007305 0.001252 0.064859
v 0.001793 0.004927 -0.050489
v -0.000044 0.009704 -0.018153
v -0.004083 -0.008664 0.055669
v 0.002894 -0.012704 0.042810
v -0.008125 -0.016012 -0.007135
v -0.008125 0.004927 -0.032839
v 0.000324 -0.003155 0.067783
v -0.007757 -0.012704 -0.041298
v 0.002160 -0.014907 -0.050110
v -0.009595 -0.013438 0.009391
f 26 56 81 
f 23 24 27 
f 22 25 32 
f 25 22 33 
f 21 27 35 
f 27 24 41 
f 35 27 41 
f 23 36 44 
f 25 33 45 
f 37 25 47 
f 25 45 47 
f 45 30 47 
f 41 24 49 
f 34 41 49 
f 24 43 49 
f 19 20 50 
f 46 26 50 
f 36 23 51 
f 43 24 52 
f 42 33 53 
f 48 19 54 
f 19 50 54 
f 50 26 54 
f 46 22 56 
f 26 46 56 
f 34 49 57 
f 41 34 58 
f 35 41 58 
f 29 39 59 
f 39 43 59 
f 52 38 59 
f 43 52 59 
f 24 23 60 
f 23 44 60 
f 52 24 60 
f 38 52 60 
f 55 38 60 
f 44 55 60 
f 18 39 61 
f 47 30 61 
f 39 47 61 
f 32 25 62 
f 20 19 63 
f 19 48 63 
f 48 37 63 
f 55 20 63 
f 44 36 64 
f 50 20 64 
f 36 50 64 
f 20 55 64 
f 55 44 64 
f 39 29 65 
f 37 47 65 
f 47 39 65 
f 29 63 65 
f 63 37 65 
f 33 22 66 
f 21 35 66 
f 35 33 66 
f 22 40 66 
f 31 40 67 
f 46 50 67 
f 35 28 68 
f 33 35 68 
f 28 42 68 
f 53 33 68 
f 42 53 68 
f 27 21 69 
f 21 66 69 
f 66 40 69 
f 42 28 70 
f 57 18 70 
f 28 57 70 
f 18 61 70 
f 61 30 70 
f 23 27 71 
f 51 23 71 
f 39 18 72 
f 43 39 72 
f 49 43 72 
f 18 57 72 
f 57 49 72 
f 28 35 73 
f 57 28 73 
f 34 57 73 
f 58 34 73 
f 35 58 73 
f 40 22 74 
f 22 46 74 
f 67 40 74 
f 46 67 74 
f 50 36 75 
f 36 51 75 
f 31 67 75 
f 67 50 75 
f 51 71 75 
f 71 31 75 
f 26 32 76 
f 54 26 76 
f 48 54 76 
f 32 62 76 
f 62 48 76 
f 33 42 77 
f 45 33 77 
f 30 45 77 
f 42 70 77 
f 70 30 77 
f 40 31 78 
f 27 69 78 
f 69 40 78 
f 71 27 78 
f 31 71 78 
f 25 37 79 
f 37 48 79 
f 62 25 79 
f 48 62 79 
f 38 55 80 
f 29 59 80 
f 59 38 80 
f 63 29 80 
f 55 63 80 
f 22 32 81 
f 32 26 81 
f 56 22 81 
o convex_2
v 0.020897 0.006030 0.071107
v 0.007305 0.002357 0.054210
v 0.007305 0.003091 0.054210
v 0.007305 0.003091 0.068167
v 0.008408 0.000519 0.057150
v 0.028244 0.006030 0.068903
v 0.008408 0.005294 0.056783
v 0.027508 0.007499 0.068167
v 0.007305 0.004927 0.064864
v 0.028609 0.006396 0.072947
v 0.007305 0.001255 0.064494
v 0.026038 0.007499 0.070742
v 0.028609 0.006396 0.067802
v 0.007674 0.000519 0.055681
v 0.008041 0.004927 0.055681
f 89 94 96 
f 84 83 85 
f 84 85 90 
f 85 82 90 
f 82 85 91 
f 86 87 91 
f 85 83 92 
f 91 85 92 
f 86 91 92 
f 89 88 93 
f 88 90 93 
f 90 82 93 
f 82 91 93 
f 91 89 93 
f 83 84 94 
f 91 87 94 
f 89 91 94 
f 87 86 95 
f 92 83 95 
f 86 92 95 
f 83 94 95 
f 94 87 95 
f 88 89 96 
f 90 88 96 
f 84 90 96 
f 94 84 96 
o convex_3
v -0.016209 0.005294 0.068538
v -0.010332 0.002357 0.054210
v -0.010332 0.002725 0.054210
v -0.030900 0.006396 0.067802
v -0.009965 0.001255 0.064494
v -0.010699 0.005294 0.056783
v -0.010699 0.000519 0.056415
v -0.030900 0.006396 0.072947
v -0.009595 0.003459 0.068167
v -0.028328 0.007499 0.070742
v -0.009595 0.004927 0.064864
v -0.030535 0.007132 0.067802
v -0.009595 0.004192 0.054945
v -0.009595 0.000519 0.055681
v -0.027963 0.005294 0.069271
v -0.029799 0.007132 0.072576
v -0.013270 0.003459 0.068903
v -0.028698 0.007499 0.067802
f 108 106 114 
f 99 98 100 
f 100 98 103 
f 106 97 107 
f 97 105 107 
f 102 106 107 
f 99 100 108 
f 100 104 108 
f 98 99 109 
f 102 107 109 
f 107 105 109 
f 99 108 109 
f 108 102 109 
f 103 98 110 
f 101 103 110 
f 105 101 110 
f 98 109 110 
f 109 105 110 
f 100 103 111 
f 103 101 111 
f 101 104 111 
f 104 100 111 
f 105 97 112 
f 104 105 112 
f 97 106 112 
f 108 104 112 
f 106 108 112 
f 104 101 113 
f 101 105 113 
f 105 104 113 
f 106 102 114 
f 102 108 114 
o convex_4
v 0.009142 -0.010135 -0.012653
v 0.019796 -0.007564 0.013060
v 0.019796 -0.007932 0.013060
v 0.007305 -0.009034 0.012690
v 0.007673 -0.013809 -0.000162
v 0.007305 -0.006095 -0.007511
v 0.019796 -0.008667 -0.005306
v 0.019796 -0.004625 0.003138
v 0.017223 -0.011972 0.008283
v 0.007305 -0.013442 -0.010817
v 0.007305 -0.006829 0.009020
v 0.007305 -0.012707 0.009751
v 0.016488 -0.009400 0.016369
v 0.019796 -0.010868 -0.001633
v 0.019796 -0.005360 -0.003468
v 0.007305 -0.006462 -0.010817
v 0.019428 -0.005727 0.009751
v 0.007673 -0.005727 -0.002367
v 0.016122 -0.008667 0.015999
v 0.019796 -0.009767 0.009751
v 0.007673 -0.013809 -0.005673
v 0.007673 -0.011236 -0.013390
v 0.019428 -0.010868 -0.003468
f 124 136 137 
f 116 117 121 
f 116 121 122 
f 118 120 124 
f 120 118 125 
f 119 123 126 
f 118 124 126 
f 124 119 126 
f 117 116 127 
f 118 126 127 
f 126 123 127 
f 121 117 128 
f 121 115 129 
f 122 121 129 
f 122 129 130 
f 120 122 130 
f 124 120 130 
f 129 115 130 
f 116 122 131 
f 122 125 131 
f 122 120 132 
f 120 125 132 
f 125 122 132 
f 125 118 133 
f 127 116 133 
f 118 127 133 
f 116 131 133 
f 131 125 133 
f 117 127 134 
f 127 123 134 
f 128 117 134 
f 123 128 134 
f 123 119 135 
f 119 124 135 
f 128 123 135 
f 115 121 136 
f 130 115 136 
f 124 130 136 
f 121 128 137 
f 135 124 137 
f 128 135 137 
f 136 121 137 
o convex_5
v 0.061677 0.000151 0.030694
v 0.045880 -0.003889 0.012328
v 0.045880 -0.002787 0.012328
v 0.068658 0.000518 0.026654
v 0.047352 -0.004256 0.022249
v 0.045880 -0.001319 0.019309
v 0.067553 0.001620 0.027388
v 0.068291 -0.000216 0.029593
v 0.046248 -0.004991 0.013430
v 0.045880 -0.002787 0.024083
v 0.047718 -0.001319 0.014166
v 0.068658 0.000518 0.033269
v 0.068291 0.001620 0.031797
v 0.046248 -0.004991 0.018209
v 0.047352 -0.000951 0.017842
v 0.049189 -0.002787 0.025553
v 0.048824 -0.001319 0.023348
f 150 143 154 
f 139 140 141 
f 140 139 143 
f 139 141 146 
f 141 145 146 
f 143 139 147 
f 141 140 148 
f 140 143 148 
f 144 141 148 
f 145 141 149 
f 142 145 149 
f 141 144 150 
f 138 149 150 
f 149 141 150 
f 145 142 151 
f 146 145 151 
f 139 146 151 
f 142 147 151 
f 147 139 151 
f 148 143 152 
f 144 148 152 
f 143 150 152 
f 150 144 152 
f 138 147 153 
f 147 142 153 
f 149 138 153 
f 142 149 153 
f 147 138 154 
f 143 147 154 
f 138 150 154 
o convex_6
v -0.049275 -0.002052 0.023717
v -0.048909 -0.003522 0.012328
v -0.048909 -0.003155 0.012328
v -0.070949 0.000885 0.026654
v -0.048539 -0.004991 0.018209
v -0.070949 0.000518 0.033269
v -0.048171 -0.001319 0.015269
v -0.070211 0.001620 0.031797
v -0.068744 -0.000584 0.025920
v -0.048171 -0.003522 0.023717
v -0.048171 -0.004991 0.013430
v -0.068006 0.001253 0.025553
v -0.048171 -0.001319 0.019309
v -0.048539 -0.001685 0.013064
v -0.069475 -0.000216 0.031428
v -0.049645 -0.004256 0.022249
v -0.070211 0.001253 0.033269
v -0.069112 0.001620 0.028493
f 167 161 172 
f 157 156 158 
f 158 160 162 
f 158 156 163 
f 160 158 163 
f 161 164 165 
f 156 157 165 
f 163 156 165 
f 159 163 165 
f 164 159 165 
f 162 155 167 
f 155 164 167 
f 164 161 167 
f 157 158 168 
f 161 165 168 
f 165 157 168 
f 158 166 168 
f 166 161 168 
f 163 159 169 
f 160 163 169 
f 164 160 170 
f 159 164 170 
f 169 159 170 
f 160 169 170 
f 155 162 171 
f 162 160 171 
f 164 155 171 
f 160 164 171 
f 158 162 172 
f 166 158 172 
f 161 166 172 
f 162 167 172 
o convex_7
v -0.011433 -0.010502 -0.012653
v -0.009595 -0.009034 0.012690
v -0.018412 -0.008667 0.015999
v -0.021719 -0.004625 0.002407
v -0.019514 -0.011972 0.005713
v -0.009595 -0.006095 -0.007511
v -0.009595 -0.013809 -0.000162
v -0.022087 -0.010502 -0.003468
v -0.022087 -0.005360 -0.003468
v -0.009595 -0.006829 0.009020
v -0.009595 -0.013442 -0.010817
v -0.009595 -0.012707 0.009751
v -0.022087 -0.007198 0.012690
v -0.009595 -0.006462 -0.010817
v -0.019514 -0.011236 0.011225
v -0.022087 -0.005727 0.009751
v -0.009963 -0.005727 -0.002367
v -0.022087 -0.008299 -0.005306
v -0.022087 -0.009767 0.009751
v -0.018779 -0.009400 0.016369
v -0.019514 -0.011972 0.008283
v -0.010330 -0.010135 -0.013390
v -0.022087 -0.010868 -0.001633
v -0.009963 -0.013809 -0.005673
f 195 183 196 
f 178 174 179 
f 175 174 182 
f 174 178 182 
f 178 179 183 
f 180 173 183 
f 179 174 184 
f 181 180 185 
f 176 178 186 
f 181 176 186 
f 178 183 186 
f 176 181 188 
f 175 182 188 
f 182 176 188 
f 185 175 188 
f 181 185 188 
f 178 176 189 
f 176 182 189 
f 182 178 189 
f 173 180 190 
f 180 181 190 
f 185 180 191 
f 191 187 192 
f 174 175 192 
f 184 174 192 
f 175 185 192 
f 187 184 192 
f 185 191 192 
f 179 184 193 
f 184 187 193 
f 187 191 193 
f 183 173 194 
f 181 186 194 
f 186 183 194 
f 173 190 194 
f 190 181 194 
f 180 183 195 
f 191 180 195 
f 177 193 195 
f 193 191 195 
f 183 179 196 
f 193 177 196 
f 179 193 196 
f 177 195 196 
o convex_8
v 0.019796 -0.006095 -0.003834
v 0.027878 -0.006095 0.016366
v 0.027878 -0.006462 0.016366
v 0.025673 -0.010870 -0.009345
v 0.019796 -0.009767 0.009755
v 0.027878 -0.004257 0.001675
v 0.019796 -0.005360 0.007917
v 0.020899 -0.010870 -0.008610
v 0.027878 -0.009032 0.008284
v 0.024939 -0.010870 0.003143
v 0.024939 -0.003890 0.006081
v 0.019796 -0.007198 0.013061
v 0.027510 -0.004626 0.013793
v 0.024203 -0.009767 -0.009713
v 0.020899 -0.004993 -0.002366
v 0.019796 -0.010870 0.003143
v 0.027510 -0.008298 0.013061
v 0.027878 -0.009032 0.001675
v 0.019796 -0.004626 0.002043
f 207 211 215 
f 198 199 202 
f 197 201 203 
f 202 199 205 
f 204 200 206 
f 200 205 206 
f 199 198 208 
f 201 199 208 
f 203 201 208 
f 203 208 209 
f 198 202 209 
f 202 207 209 
f 207 203 209 
f 208 198 209 
f 202 200 210 
f 204 197 210 
f 200 204 210 
f 207 202 211 
f 210 197 211 
f 202 210 211 
f 201 197 212 
f 197 204 212 
f 204 206 212 
f 206 201 212 
f 199 201 213 
f 205 199 213 
f 201 206 213 
f 206 205 213 
f 200 202 214 
f 205 200 214 
f 202 205 214 
f 197 203 215 
f 203 207 215 
f 211 197 215 
o convex_9
v 0.027878 -0.006461 0.000206
v 0.045880 -0.002789 0.023714
v 0.045880 -0.003523 0.023714
v 0.027878 -0.005725 0.016363
v 0.034127 -0.008665 0.014163
v 0.045512 -0.001687 0.012700
v 0.045144 -0.006829 0.016004
v 0.027878 -0.003523 0.007922
v 0.028247 -0.008665 0.001677
v 0.044042 -0.004257 0.026653
v 0.045880 -0.003890 0.011964
v 0.043676 -0.002054 0.020773
v 0.027878 -0.007931 0.013792
v 0.027878 -0.004258 0.001677
v 0.032657 -0.006461 0.021143
v 0.045512 -0.006092 0.021511
v 0.045880 -0.001318 0.018572
v 0.031556 -0.003890 0.015263
v 0.032657 -0.005725 0.021511
v 0.027878 -0.009033 0.007922
v 0.044042 -0.003523 0.025918
v 0.031922 -0.008297 0.015998
v 0.045880 -0.004992 0.013065
v 0.033760 -0.008665 0.010861
f 220 235 239 
f 216 219 223 
f 218 217 225 
f 217 218 226 
f 216 221 226 
f 224 216 226 
f 219 216 228 
f 221 216 229 
f 216 223 229 
f 223 221 229 
f 219 228 230 
f 220 222 231 
f 218 225 231 
f 225 230 231 
f 221 223 232 
f 217 226 232 
f 226 221 232 
f 227 217 232 
f 223 227 232 
f 223 219 233 
f 227 223 233 
f 219 230 234 
f 230 225 234 
f 233 219 234 
f 216 224 235 
f 228 216 235 
f 225 217 236 
f 217 227 236 
f 227 233 236 
f 233 234 236 
f 234 225 236 
f 230 228 237 
f 220 231 237 
f 231 230 237 
f 235 220 237 
f 228 235 237 
f 222 224 238 
f 226 218 238 
f 224 226 238 
f 231 222 238 
f 218 231 238 
f 222 220 239 
f 224 222 239 
f 235 224 239 
o convex_10
v 0.023837 -0.010870 0.005345
v 0.023102 -0.020419 -0.009347
v 0.022368 -0.019685 -0.009715
v 0.026040 -0.010870 -0.009347
v 0.019796 -0.012342 -0.007878
v 0.023470 -0.018215 0.007916
v 0.027144 -0.016746 -0.001998
v 0.020163 -0.016746 0.002410
v 0.021267 -0.013077 0.007550
v 0.025307 -0.012710 0.007918
v 0.026407 -0.018583 -0.008980
v 0.020899 -0.010870 -0.009715
v 0.020532 -0.018950 -0.008244
v 0.023837 -0.020419 -0.001265
v 0.026040 -0.018215 0.002774
v 0.026776 -0.011975 -0.001631
v 0.027144 -0.014914 -0.009715
v 0.021633 -0.020052 -0.001998
v 0.020532 -0.010870 -0.001631
v 0.019796 -0.015645 -0.009715
v 0.025672 -0.015645 0.007918
v 0.021633 -0.017113 0.007916
v 0.019796 -0.013077 -0.000895
v 0.023102 -0.014547 0.009387
v 0.022735 -0.011608 0.007916
v 0.025307 -0.010870 -0.010083
v 0.025672 -0.010870 0.002044
v 0.026776 -0.014547 0.003142
v 0.019796 -0.017113 -0.001631
f 262 259 268 
f 240 243 251 
f 242 241 252 
f 241 250 253 
f 250 246 254 
f 245 253 254 
f 253 250 254 
f 241 242 256 
f 250 241 256 
f 246 250 256 
f 243 255 256 
f 255 246 256 
f 252 241 257 
f 253 245 257 
f 241 253 257 
f 240 251 258 
f 251 244 258 
f 244 251 259 
f 242 252 259 
f 245 254 260 
f 248 247 261 
f 257 245 261 
f 247 257 261 
f 247 248 262 
f 258 244 262 
f 248 258 262 
f 244 259 262 
f 245 260 263 
f 260 249 263 
f 248 261 263 
f 261 245 263 
f 249 240 264 
f 258 248 264 
f 240 258 264 
f 248 263 264 
f 263 249 264 
f 251 243 265 
f 256 242 265 
f 243 256 265 
f 242 259 265 
f 259 251 265 
f 243 240 266 
f 240 249 266 
f 255 243 266 
f 249 255 266 
f 254 246 267 
f 246 255 267 
f 255 249 267 
f 249 260 267 
f 260 254 267 
f 257 247 268 
f 252 257 268 
f 259 252 268 
f 247 262 268 
o convex_11
v -0.034948 -0.006828 0.003513
v -0.029806 -0.006092 0.016363
v -0.029806 -0.006461 0.016363
v -0.047067 -0.003890 0.026653
v -0.047434 -0.001318 0.015636
v -0.047803 -0.006829 0.017472
v -0.029806 -0.003890 0.003513
v -0.029806 -0.009033 0.001677
v -0.034213 -0.008297 0.015998
v -0.048169 -0.003155 0.011964
v -0.029806 -0.004258 0.011962
v -0.030540 -0.004258 0.001677
v -0.048169 -0.001687 0.020773
v -0.034948 -0.005725 0.021511
v -0.046701 -0.005358 0.011964
v -0.036417 -0.008665 0.014163
v -0.047803 -0.006092 0.021511
v -0.030173 -0.003523 0.007922
v -0.029806 -0.009033 0.008288
v -0.047803 -0.001687 0.012700
v -0.030540 -0.006461 0.000206
v -0.034948 -0.006461 0.021143
v -0.047434 -0.002054 0.022244
v -0.047434 -0.006829 0.016004
v -0.029806 -0.004626 0.013792
v -0.046334 -0.003523 0.025918
v -0.029806 -0.007931 0.013792
f 290 277 295 
f 270 271 275 
f 275 271 276 
f 270 275 279 
f 278 274 281 
f 271 270 282 
f 269 276 283 
f 278 269 283 
f 284 277 285 
f 272 281 285 
f 281 274 285 
f 274 284 285 
f 275 273 286 
f 279 275 286 
f 273 281 286 
f 276 271 287 
f 284 276 287 
f 277 284 287 
f 273 275 288 
f 275 280 288 
f 281 273 288 
f 278 281 288 
f 276 269 289 
f 275 276 289 
f 269 278 289 
f 280 275 289 
f 288 280 289 
f 278 288 289 
f 271 282 290 
f 282 272 290 
f 285 277 290 
f 272 285 290 
f 281 272 291 
f 279 286 291 
f 286 281 291 
f 274 278 292 
f 283 276 292 
f 278 283 292 
f 284 274 292 
f 276 284 292 
f 270 279 293 
f 282 270 293 
f 279 291 293 
f 293 291 294 
f 272 282 294 
f 291 272 294 
f 282 293 294 
f 287 271 295 
f 277 287 295 
f 271 290 295 
o convex_12
v -0.022087 -0.014546 0.000570
v -0.026127 -0.020421 -0.009346
v -0.027230 -0.020054 -0.009347
v -0.023557 -0.011241 -0.010079
v -0.027597 -0.012709 0.007917
v -0.029066 -0.011974 -0.008612
v -0.025394 -0.018216 0.007915
v -0.029066 -0.017114 0.000570
v -0.022822 -0.018951 -0.008244
v -0.025025 -0.011608 0.007915
v -0.028699 -0.011239 -0.001263
v -0.029434 -0.015281 -0.009713
v -0.023557 -0.016747 0.007548
v -0.022087 -0.012342 -0.007876
v -0.025394 -0.020421 -0.001263
v -0.023189 -0.011241 0.002408
v -0.027964 -0.018584 0.003141
v -0.022822 -0.018951 -0.001999
v -0.022087 -0.015648 -0.009713
v -0.029434 -0.014179 -0.000533
v -0.027964 -0.015647 0.007917
v -0.027964 -0.011239 -0.010083
v -0.025394 -0.015282 0.009387
v -0.023557 -0.013444 0.007915
v -0.028699 -0.018584 -0.008980
v -0.022087 -0.017114 -0.001631
v -0.024658 -0.019685 -0.009713
v -0.027230 -0.020054 -0.001263
f 312 320 323 
f 300 305 306 
f 297 304 310 
f 306 305 311 
f 309 299 311 
f 296 309 311 
f 308 302 313 
f 302 310 313 
f 310 304 313 
f 299 309 314 
f 309 296 314 
f 306 301 315 
f 300 306 315 
f 301 307 315 
f 307 303 315 
f 312 302 316 
f 303 312 316 
f 300 315 316 
f 315 303 316 
f 301 306 317 
f 307 301 317 
f 311 299 317 
f 306 311 317 
f 305 300 318 
f 302 308 318 
f 300 316 318 
f 316 302 318 
f 308 296 319 
f 311 305 319 
f 296 311 319 
f 305 318 319 
f 318 308 319 
f 307 298 320 
f 303 307 320 
f 312 303 320 
f 296 308 321 
f 313 304 321 
f 308 313 321 
f 304 314 321 
f 314 296 321 
f 297 298 322 
f 304 297 322 
f 298 307 322 
f 299 314 322 
f 314 304 322 
f 317 299 322 
f 307 317 322 
f 298 297 323 
f 297 310 323 
f 310 302 323 
f 302 312 323 
f 320 298 323 
o convex_13
v -0.027230 -0.010503 -0.010078
v -0.022087 -0.007197 0.013060
v -0.022087 -0.007930 0.013060
v -0.029802 -0.006095 0.016002
v -0.022454 -0.004993 -0.001999
v -0.029802 -0.003892 0.003876
v -0.022087 -0.010870 0.003141
v -0.027964 -0.011237 0.002040
v -0.023189 -0.011237 -0.009713
v -0.029802 -0.009032 0.001307
v -0.022087 -0.004626 0.003508
v -0.029802 -0.008298 0.013060
v -0.029434 -0.004626 0.013428
v -0.025393 -0.011237 0.005344
v -0.028332 -0.011237 -0.009345
v -0.029802 -0.004259 0.001307
v -0.022087 -0.005360 -0.003102
v -0.022087 -0.009767 0.009754
v -0.026495 -0.009767 -0.009715
v -0.022087 -0.005728 0.009754
v -0.022087 -0.010502 -0.003102
v -0.027229 -0.003892 0.006079
f 336 334 345 
f 326 325 327 
f 325 326 330 
f 327 329 333 
f 325 330 334 
f 326 327 335 
f 327 333 335 
f 333 331 335 
f 327 325 336 
f 329 327 336 
f 332 330 337 
f 331 332 337 
f 335 331 337 
f 332 331 338 
f 324 332 338 
f 331 333 338 
f 338 333 339 
f 329 328 339 
f 333 329 339 
f 324 338 339 
f 328 334 340 
f 334 330 340 
f 339 328 340 
f 330 326 341 
f 326 335 341 
f 337 330 341 
f 335 337 341 
f 332 324 342 
f 324 339 342 
f 340 332 342 
f 339 340 342 
f 325 334 343 
f 336 325 343 
f 334 336 343 
f 330 332 344 
f 340 330 344 
f 332 340 344 
f 328 329 345 
f 334 328 345 
f 329 336 345 
