o convex_0
v -0.014635 -0.038500 0.004677
v 0.000233 0.027614 0.004677
v 0.002716 0.029259 -0.016818
v 0.020896 -0.017836 0.004677
v -0.022901 -0.021964 -0.053178
v 0.018419 -0.025270 -0.049869
v -0.028690 0.006950 0.004677
v -0.014635 0.024308 -0.050696
v 0.020072 0.006120 -0.050696
v 0.001887 -0.043451 -0.034992
v -0.031997 -0.014530 -0.034992
v 0.018419 0.011085 0.004677
v -0.013811 -0.040145 -0.049869
v 0.010977 -0.035187 0.004677
v -0.028690 0.005297 -0.050696
v -0.022077 0.022655 -0.016818
v -0.026208 -0.026100 0.004677
v 0.011806 0.020172 -0.050696
v -0.027037 -0.030228 -0.035819
v 0.023379 -0.002967 -0.034986
v 0.015937 -0.005450 -0.054005
v 0.001887 -0.035187 -0.053178
v -0.010504 0.018519 -0.054005
v 0.019243 -0.028583 -0.034165
v -0.013811 0.025954 0.004677
v 0.012630 0.023478 -0.016818
v -0.008027 0.030097 -0.027553
v -0.008027 -0.044288 -0.016818
v -0.021248 -0.037670 -0.020948
v -0.000590 0.026784 -0.050696
v -0.029514 0.009432 -0.035819
v -0.031997 -0.014530 -0.016818
v -0.027861 -0.022794 -0.049869
v 0.020896 0.010255 -0.027553
v 0.010153 -0.036840 -0.049869
v 0.000233 -0.040975 0.004677
v 0.010153 -0.039323 -0.015990
v 0.021720 -0.001315 0.004677
v 0.023379 -0.012877 -0.035819
v -0.024554 -0.007096 -0.054005
v -0.021248 0.019350 -0.050696
v -0.030338 -0.012047 0.004677
v -0.031997 -0.001315 -0.016818
v 0.007670 0.026784 -0.034992
v 0.010153 0.022648 0.004677
v 0.015937 -0.033541 -0.015990
v 0.000233 -0.041806 -0.049869
v 0.021720 -0.012047 -0.049869
v -0.011328 -0.043451 -0.034992
v 0.005193 0.016867 -0.054005
v -0.030338 -0.002967 -0.049869
v 0.016766 0.017697 -0.035819
v 0.023379 -0.012877 -0.017645
v -0.029514 -0.024447 -0.016818
v -0.022077 0.019350 0.004677
v -0.027861 0.013561 -0.016818
v -0.021248 0.022655 -0.035819
v -0.008851 0.030097 -0.016818
v -0.018771 -0.036847 -0.049869
v 0.001887 -0.043451 -0.016818
v 0.010153 -0.039323 -0.034165
v 0.022550 0.003644 -0.016818
v 0.021720 -0.021964 -0.022602
v -0.010504 -0.035187 -0.053178
f 13 59 64 
f 2 1 4 
f 1 2 7 
f 2 4 12 
f 4 1 14 
f 1 7 17 
f 21 6 22 
f 7 2 25 
f 1 17 29 
f 28 1 29 
f 23 8 30 
f 27 3 30 
f 8 27 30 
f 19 11 33 
f 20 9 34 
f 26 12 34 
f 22 6 35 
f 6 24 35 
f 14 1 36 
f 1 28 36 
f 14 36 37 
f 12 4 38 
f 24 6 39 
f 21 22 40 
f 23 21 40 
f 5 33 40 
f 8 23 41 
f 15 31 41 
f 40 15 41 
f 23 40 41 
f 17 7 42 
f 32 42 43 
f 11 32 43 
f 42 7 43 
f 3 26 44 
f 30 3 44 
f 18 30 44 
f 3 2 45 
f 2 12 45 
f 26 3 45 
f 12 26 45 
f 4 14 46 
f 14 37 46 
f 35 10 47 
f 22 35 47 
f 9 20 48 
f 6 21 48 
f 21 9 48 
f 39 6 48 
f 20 39 48 
f 10 28 49 
f 28 29 49 
f 13 47 49 
f 47 10 49 
f 18 9 50 
f 9 21 50 
f 21 23 50 
f 30 18 50 
f 23 30 50 
f 31 15 51 
f 33 11 51 
f 15 40 51 
f 40 33 51 
f 43 31 51 
f 11 43 51 
f 9 18 52 
f 34 9 52 
f 26 34 52 
f 44 26 52 
f 18 44 52 
f 38 4 53 
f 39 20 53 
f 11 19 54 
f 29 17 54 
f 19 29 54 
f 32 11 54 
f 17 42 54 
f 42 32 54 
f 7 25 55 
f 25 16 55 
f 43 7 56 
f 31 43 56 
f 7 55 56 
f 55 16 56 
f 27 8 57 
f 8 41 57 
f 41 31 57 
f 56 16 57 
f 31 56 57 
f 2 3 58 
f 25 2 58 
f 16 25 58 
f 3 27 58 
f 27 57 58 
f 57 16 58 
f 29 19 59 
f 33 5 59 
f 19 33 59 
f 13 49 59 
f 49 29 59 
f 28 10 60 
f 36 28 60 
f 10 37 60 
f 37 36 60 
f 10 35 61 
f 35 24 61 
f 37 10 61 
f 24 46 61 
f 46 37 61 
f 20 34 62 
f 34 12 62 
f 12 38 62 
f 38 53 62 
f 53 20 62 
f 24 39 63 
f 4 46 63 
f 46 24 63 
f 53 4 63 
f 39 53 63 
f 5 40 64 
f 40 22 64 
f 47 13 64 
f 22 47 64 
f 59 5 64 
o convex_1
v 0.003541 0.045800 0.004677
v -0.018773 0.035056 -0.011027
v -0.018773 0.030923 0.003850
v 0.013461 0.030923 0.003850
v 0.011808 0.042493 -0.011027
v -0.015463 0.044144 -0.011027
v -0.017943 0.041667 0.004677
v 0.012634 0.035056 -0.011027
v 0.012634 0.040839 0.004677
v 0.003541 0.045800 -0.011027
v -0.008850 0.045800 0.004677
v -0.018773 0.030923 0.004677
v -0.018773 0.040014 -0.011027
v -0.008850 0.045800 -0.011027
v 0.009328 0.044144 0.004677
v 0.013461 0.030923 0.004677
v -0.015463 0.044144 0.004677
v 0.012634 0.040839 -0.011027
v -0.018773 0.040014 0.004677
v 0.013461 0.035056 -0.002763
v 0.009328 0.044144 -0.011027
f 74 79 85 
f 67 66 68 
f 69 66 70 
f 68 66 72 
f 66 69 72 
f 65 71 73 
f 69 70 74 
f 71 65 75 
f 65 74 75 
f 66 67 76 
f 67 68 76 
f 73 71 76 
f 70 66 77 
f 71 70 77 
f 66 76 77 
f 74 70 78 
f 70 75 78 
f 75 74 78 
f 73 69 79 
f 65 73 79 
f 74 65 79 
f 76 68 80 
f 73 76 80 
f 70 71 81 
f 75 70 81 
f 71 75 81 
f 72 69 82 
f 69 73 82 
f 76 71 83 
f 71 77 83 
f 77 76 83 
f 68 72 84 
f 80 68 84 
f 73 80 84 
f 72 82 84 
f 82 73 84 
f 69 74 85 
f 79 69 85 
o convex_2
v -0.036955 -0.014532 0.015421
v -0.031172 -0.000486 0.015421
v -0.032824 -0.000486 0.015421
v -0.029517 -0.012054 0.004677
v -0.037782 -0.004619 0.008810
v -0.029517 -0.016186 0.015421
v -0.029517 -0.001312 0.004677
v -0.035302 -0.016186 0.008810
v -0.037782 -0.004619 0.015421
v -0.037782 -0.012879 0.008810
v -0.029517 -0.001312 0.015421
v -0.035302 -0.001312 0.008810
v -0.030344 -0.017012 0.008810
v -0.033650 -0.017012 0.015421
v -0.030344 -0.001312 0.004677
f 90 97 100 
f 86 87 88 
f 87 86 91 
f 91 89 92 
f 88 87 92 
f 86 88 94 
f 94 90 95 
f 93 86 95 
f 89 93 95 
f 86 94 95 
f 87 91 96 
f 91 92 96 
f 92 87 96 
f 94 88 97 
f 90 94 97 
f 89 91 98 
f 93 89 98 
f 93 98 99 
f 91 86 99 
f 86 93 99 
f 98 91 99 
f 92 89 100 
f 88 92 100 
f 95 90 100 
f 89 95 100 
f 97 88 100 
o convex_3
v -0.029517 0.016037 0.014595
v -0.024558 0.022658 0.015421
v -0.024558 0.022658 0.014595
v -0.024558 -0.042635 0.015421
v -0.024558 -0.027750 0.004677
v -0.029517 -0.016182 0.004677
v -0.024558 0.019347 0.005503
v -0.028690 -0.042635 0.015421
v -0.025385 -0.042635 0.007158
v -0.029517 0.002820 0.004677
v -0.029517 -0.016182 0.015421
v -0.027863 0.020178 0.015421
v -0.025385 0.019347 0.005503
v -0.024558 0.014381 0.004677
v -0.024558 -0.042635 0.007158
v -0.028690 -0.042635 0.014595
f 109 108 116 
f 103 102 104 
f 103 104 105 
f 103 105 107 
f 104 102 108 
f 106 105 109 
f 104 108 109 
f 105 106 110 
f 106 101 110 
f 101 106 111 
f 108 102 111 
f 106 108 111 
f 102 103 112 
f 111 102 112 
f 101 111 112 
f 103 107 113 
f 110 101 113 
f 112 103 113 
f 101 112 113 
f 107 105 114 
f 105 110 114 
f 113 107 114 
f 110 113 114 
f 105 104 115 
f 104 109 115 
f 109 105 115 
f 108 106 116 
f 106 109 116 
o convex_4
v 0.047348 0.012740 0.005503
v 0.050653 0.027617 0.018727
v 0.044041 0.027617 0.018727
v 0.052306 0.012740 0.018727
v 0.044041 0.027617 0.006330
v 0.044041 0.012740 0.005503
v 0.049000 0.027617 0.010463
v 0.050653 0.013567 0.008811
v 0.052306 0.018526 0.017901
v 0.051479 0.012740 0.018727
v 0.046521 0.027617 0.007156
v 0.044041 0.026790 0.018727
f 122 126 128 
f 118 119 120 
f 119 118 121 
f 117 120 122 
f 121 117 122 
f 119 121 122 
f 121 118 123 
f 120 117 124 
f 124 123 125 
f 118 120 125 
f 123 118 125 
f 120 124 125 
f 120 119 126 
f 122 120 126 
f 117 121 127 
f 121 123 127 
f 124 117 127 
f 123 124 127 
f 119 122 128 
f 126 119 128 
o convex_5
v -0.024558 0.002822 0.062532
v -0.036129 -0.042635 0.056746
v -0.024558 -0.042635 0.056746
v -0.036129 0.002822 0.056746
v -0.036129 -0.036023 0.062532
v -0.024558 -0.042635 0.062532
v -0.036129 0.002822 0.062532
v -0.024558 0.002822 0.058399
v -0.032822 -0.041808 0.062532
v -0.027864 0.002822 0.057574
f 132 136 138 
f 131 130 132 
f 132 130 133 
f 131 129 134 
f 130 131 134 
f 129 133 134 
f 129 132 135 
f 133 129 135 
f 132 133 135 
f 129 131 136 
f 132 129 136 
f 133 130 137 
f 130 134 137 
f 134 133 137 
f 131 132 138 
f 136 131 138 
o convex_6
v 0.052306 -0.040982 0.012115
v 0.039081 -0.042635 0.004677
v 0.024205 -0.042635 0.018727
v 0.052306 -0.042635 0.031125
v 0.024205 -0.040982 0.019552
v 0.052306 -0.040982 0.031125
v 0.024205 -0.042635 0.031125
v 0.039081 -0.040982 0.004677
v 0.051476 -0.042635 0.009637
v 0.024205 -0.041809 0.031125
v 0.046519 -0.040982 0.004677
f 139 147 149 
f 141 140 142 
f 142 139 144 
f 139 143 144 
f 141 142 145 
f 143 141 145 
f 142 144 145 
f 140 141 146 
f 143 139 146 
f 141 143 146 
f 142 140 147 
f 139 142 147 
f 144 143 148 
f 143 145 148 
f 145 144 148 
f 140 146 149 
f 146 139 149 
f 147 140 149 
o convex_7
v -0.008854 0.023486 0.056746
v 0.009328 0.039188 0.060879
v 0.009328 0.035881 0.060879
v -0.012161 0.039188 0.060879
v -0.012161 0.019352 0.060052
v 0.009328 0.019352 0.059225
v 0.003542 0.031748 0.056746
v -0.012161 0.038359 0.059226
v 0.009328 0.038359 0.059226
v 0.006848 0.021008 0.057573
v 0.009328 0.019352 0.060052
v -0.011334 0.033402 0.057573
v -0.011334 0.021008 0.057573
v 0.003542 0.022661 0.056746
v -0.008027 0.031748 0.056746
f 161 157 164 
f 152 151 153 
f 152 153 154 
f 151 152 155 
f 153 151 157 
f 154 153 157 
f 156 157 158 
f 151 155 158 
f 157 151 158 
f 158 155 159 
f 156 158 159 
f 152 154 160 
f 155 152 160 
f 154 155 160 
f 157 161 162 
f 155 154 162 
f 154 157 162 
f 159 155 162 
f 161 150 162 
f 162 150 163 
f 150 156 163 
f 156 159 163 
f 159 162 163 
f 156 150 164 
f 157 156 164 
f 150 161 164 
o convex_8
v 0.032470 0.025964 0.005503
v 0.044041 0.027617 0.018727
v 0.030817 0.027617 0.018727
v 0.041561 0.027617 0.004677
v 0.044041 0.025964 0.007156
v 0.030817 0.025964 0.018727
v 0.030817 0.027617 0.007983
v 0.044041 0.026791 0.018727
f 170 169 172 
f 167 166 168 
f 165 168 169 
f 168 166 169 
f 166 167 170 
f 165 169 170 
f 170 167 171 
f 167 168 171 
f 168 165 171 
f 165 170 171 
f 169 166 172 
f 166 170 172 
o convex_9
v 0.019246 -0.023627 0.049308
v 0.015114 -0.031064 0.020380
v 0.015941 -0.031064 0.020380
v 0.015114 -0.031064 0.049308
v 0.018420 -0.028584 0.049308
v 0.018420 -0.023627 0.020380
v 0.019246 -0.026933 0.020380
v 0.015114 -0.029410 0.049308
v 0.015114 -0.029410 0.020380
v 0.018420 -0.023627 0.049308
v 0.019246 -0.023627 0.020380
v 0.019246 -0.026933 0.049308
f 177 179 184 
f 174 175 176 
f 173 176 177 
f 176 175 177 
f 175 174 178 
f 177 175 179 
f 175 178 179 
f 174 176 180 
f 176 173 180 
f 180 178 181 
f 178 174 181 
f 174 180 181 
f 173 178 182 
f 180 173 182 
f 178 180 182 
f 178 173 183 
f 173 179 183 
f 179 178 183 
f 173 177 184 
f 179 173 184 
o convex_10
v 0.051479 0.004475 0.031125
v 0.051479 0.027617 0.031125
v 0.052306 0.019351 0.019555
v 0.048174 0.027617 0.018727
v 0.048174 0.004475 0.019555
v 0.048174 0.027617 0.031125
v 0.052306 0.004475 0.018727
v 0.052306 0.004475 0.031125
v 0.050653 0.027617 0.018727
v 0.048174 0.021832 0.031125
v 0.052306 0.018524 0.031125
v 0.048174 0.004475 0.018727
v 0.051479 0.027617 0.020381
f 193 186 197 
f 188 189 190 
f 185 186 190 
f 186 188 190 
f 185 189 191 
f 186 185 192 
f 185 191 192 
f 191 187 192 
f 188 186 193 
f 187 191 193 
f 191 188 193 
f 189 185 194 
f 190 189 194 
f 185 190 194 
f 187 186 195 
f 186 192 195 
f 192 187 195 
f 189 188 196 
f 188 191 196 
f 191 189 196 
f 186 187 197 
f 187 193 197 
o convex_11
v 0.052306 -0.038504 0.060878
v 0.024205 -0.042635 0.055093
v 0.024205 -0.042635 0.062532
v 0.024205 -0.037677 0.056747
v 0.052306 -0.042635 0.055093
v 0.052306 -0.037677 0.055093
v 0.024205 -0.037677 0.062532
v 0.048997 -0.042635 0.062532
v 0.051478 -0.037677 0.062532
f 205 198 206 
f 199 200 201 
f 200 199 202 
f 202 199 203 
f 199 201 203 
f 198 202 203 
f 201 200 204 
f 203 201 204 
f 202 198 205 
f 200 202 205 
f 204 200 205 
f 204 205 206 
f 198 203 206 
f 203 204 206 
o convex_12
v -0.032822 -0.042635 0.018730
v -0.024558 -0.041809 0.056746
v -0.031996 -0.040982 0.049303
v -0.024558 -0.040982 0.018730
v -0.036127 -0.042635 0.056746
v -0.036956 -0.040982 0.027820
v -0.024558 -0.042635 0.015421
v -0.024558 -0.042635 0.056746
v -0.036127 -0.040982 0.056746
v -0.029518 -0.040982 0.015421
v -0.036956 -0.042635 0.027820
v -0.034474 -0.040982 0.018730
f 207 217 218 
f 209 208 210 
f 209 210 212 
f 210 208 213 
f 211 207 213 
f 211 213 214 
f 208 211 214 
f 213 208 214 
f 208 209 215 
f 211 208 215 
f 209 212 215 
f 212 211 215 
f 212 210 216 
f 210 213 216 
f 213 207 216 
f 207 211 217 
f 211 212 217 
f 217 212 218 
f 212 216 218 
f 216 207 218 
o convex_13
v -0.034474 0.023484 0.050961
v -0.036956 0.002822 0.050134
v -0.036127 0.002822 0.050134
v -0.035302 0.002822 0.054267
v -0.024558 0.011089 0.051788
v -0.028693 0.025962 0.053440
v -0.024558 0.027617 0.050134
v -0.024558 0.016042 0.054267
v -0.036127 0.016870 0.054267
v -0.036127 0.020176 0.050134
v -0.024558 0.027617 0.052613
v -0.036956 0.016870 0.053440
v -0.036956 0.002822 0.053440
f 227 230 231 
f 220 221 222 
f 222 221 223 
f 221 220 225 
f 223 221 225 
f 219 224 225 
f 222 223 226 
f 223 225 226 
f 224 219 227 
f 222 226 227 
f 226 224 227 
f 225 220 228 
f 219 225 228 
f 225 224 229 
f 224 226 229 
f 226 225 229 
f 227 219 230 
f 228 220 230 
f 219 228 230 
f 220 222 231 
f 222 227 231 
f 230 220 231 
o convex_14
v -0.024558 0.018526 0.060052
v -0.036129 0.002822 0.054267
v -0.035301 0.002822 0.054267
v -0.024558 0.002822 0.062532
v -0.035301 0.011086 0.062532
v -0.024558 0.016870 0.054267
v -0.036129 0.016870 0.054267
v -0.036129 0.002822 0.062532
v -0.026213 0.018526 0.062532
v -0.024558 0.002822 0.058399
v -0.036129 0.016870 0.057573
v -0.032822 0.016045 0.062532
f 242 236 243 
f 233 234 235 
f 234 233 237 
f 232 235 237 
f 232 237 238 
f 237 233 238 
f 238 233 239 
f 233 235 239 
f 235 236 239 
f 235 232 240 
f 236 235 240 
f 232 238 240 
f 235 234 241 
f 234 237 241 
f 237 235 241 
f 238 239 242 
f 239 236 242 
f 240 238 242 
f 240 242 243 
f 236 240 243 
o convex_15
v -0.023731 -0.039329 0.009635
v -0.010507 -0.040156 0.004677
v -0.023731 -0.042635 0.005504
v 0.019246 -0.042635 0.010462
v 0.019246 -0.039329 0.005504
v 0.019246 -0.042635 0.005504
v -0.024558 -0.042635 0.010462
v -0.023731 -0.039329 0.005504
v 0.019246 -0.041808 0.010462
v 0.019246 -0.039329 0.006330
f 252 248 253 
f 246 245 249 
f 247 246 249 
f 248 247 249 
f 245 248 249 
f 246 247 250 
f 245 246 251 
f 244 248 251 
f 248 245 251 
f 250 244 251 
f 246 250 251 
f 247 248 252 
f 244 250 252 
f 250 247 252 
f 248 244 253 
f 244 252 253 
o convex_16
v 0.050653 -0.041809 0.055088
v -0.024558 -0.042635 0.010462
v -0.024558 -0.041809 0.010462
v -0.024558 -0.042635 0.055920
v 0.050653 -0.042635 0.031131
v -0.024558 -0.041809 0.055920
v 0.019239 -0.041809 0.010462
v 0.050653 -0.042635 0.055088
v 0.019239 -0.042635 0.010462
v 0.050653 -0.041809 0.031131
f 258 260 263 
f 256 255 257 
f 257 255 258 
f 254 256 259 
f 256 257 259 
f 257 254 259 
f 256 254 260 
f 255 256 260 
f 254 257 261 
f 258 254 261 
f 257 258 261 
f 258 255 262 
f 255 260 262 
f 260 258 262 
f 254 258 263 
f 260 254 263 
o convex_17
v 0.015935 0.016038 0.004677
v -0.024558 -0.039329 0.007985
v -0.024558 -0.039329 0.009636
v 0.019245 -0.039329 0.006331
v 0.005190 0.013558 0.016247
v -0.024558 0.016038 0.004677
v -0.017942 -0.022793 0.017074
v 0.011801 -0.017832 0.017074
v -0.012986 -0.039329 0.004677
v -0.020421 0.004475 0.016247
v -0.000599 -0.030234 0.017074
v 0.019245 0.017698 0.006331
v -0.009680 0.020178 0.011288
v 0.019245 -0.022793 0.004677
v 0.013452 -0.002967 0.016247
v -0.024558 0.014385 0.009636
v -0.005551 0.016865 0.016247
v -0.016287 0.021005 0.004677
v -0.024558 -0.028581 0.004677
v -0.022076 -0.010402 0.016247
v 0.010151 0.021005 0.006331
v 0.016758 -0.009576 0.012115
v 0.006845 -0.038497 0.004677
v -0.010507 -0.029408 0.017074
v -0.014636 0.012731 0.016247
v -0.024558 0.000335 0.012115
v 0.010978 0.006122 0.016247
v 0.006845 -0.025273 0.017074
v -0.023726 -0.039329 0.005504
v -0.019597 -0.018653 0.017074
v 0.001056 0.020178 0.011288
v 0.010151 0.021005 0.004677
v -0.024558 0.017698 0.006331
v 0.019245 -0.039329 0.005504
v 0.019245 0.008603 0.004677
v 0.019245 -0.003794 0.007157
v 0.000229 0.016038 0.016247
v 0.013452 -0.011217 0.016247
v -0.024558 -0.015352 0.012115
v -0.008857 0.016038 0.016247
v -0.016287 0.021005 0.006331
v -0.022076 -0.003794 0.016247
f 293 273 305 
f 266 265 267 
f 265 266 269 
f 267 265 272 
f 269 264 272 
f 266 267 274 
f 271 270 274 
f 272 264 277 
f 275 267 277 
f 269 266 279 
f 264 269 281 
f 265 269 282 
f 269 272 282 
f 275 278 285 
f 272 277 286 
f 270 266 287 
f 266 274 287 
f 274 270 287 
f 279 273 288 
f 279 266 289 
f 268 271 290 
f 275 268 290 
f 271 278 290 
f 278 275 290 
f 267 271 291 
f 274 267 291 
f 271 274 291 
f 272 265 292 
f 265 282 292 
f 282 272 292 
f 266 270 293 
f 270 271 293 
f 271 280 293 
f 283 266 293 
f 288 273 293 
f 276 280 294 
f 275 284 294 
f 284 276 294 
f 275 264 295 
f 264 281 295 
f 284 275 295 
f 281 284 295 
f 269 279 296 
f 281 269 296 
f 267 272 297 
f 277 267 297 
f 272 286 297 
f 286 277 297 
f 264 275 298 
f 277 264 298 
f 275 277 298 
f 267 275 299 
f 285 267 299 
f 275 285 299 
f 271 268 300 
f 268 275 300 
f 280 271 300 
f 275 294 300 
f 294 280 300 
f 271 267 301 
f 278 271 301 
f 267 285 301 
f 285 278 301 
f 266 283 302 
f 289 266 302 
f 283 289 302 
f 280 276 303 
f 279 288 303 
f 293 280 303 
f 288 293 303 
f 296 279 303 
f 276 296 303 
f 276 284 304 
f 284 281 304 
f 281 296 304 
f 296 276 304 
f 273 279 305 
f 279 289 305 
f 289 283 305 
f 283 293 305 
o convex_18
v 0.024205 -0.036025 0.019563
v 0.019246 -0.042635 0.018728
v 0.019246 -0.042635 0.005506
v 0.019246 -0.036025 0.019563
v 0.024205 -0.042635 0.055093
v 0.024205 -0.042635 0.007161
v 0.019246 -0.041807 0.055093
v 0.021726 -0.040982 0.005506
v 0.019246 -0.042635 0.055093
v 0.024205 -0.041807 0.055093
f 312 310 315 
f 308 307 309 
f 310 307 311 
f 307 308 311 
f 306 310 311 
f 309 307 312 
f 306 309 312 
f 308 309 313 
f 309 306 313 
f 306 311 313 
f 311 308 313 
f 307 310 314 
f 312 307 314 
f 310 312 314 
f 310 306 315 
f 306 312 315 
o convex_19
v 0.019246 -0.040981 0.005506
v 0.024205 -0.021146 0.018726
v 0.023379 -0.021146 0.018726
v 0.021726 -0.021146 0.005506
v 0.024205 -0.040981 0.007157
v 0.023379 -0.040981 0.018726
v 0.019246 -0.021146 0.006332
v 0.024205 -0.021146 0.007157
v 0.024205 -0.040981 0.018726
v 0.021726 -0.040981 0.005506
f 319 320 325 
f 318 317 319 
f 317 318 321 
f 316 320 321 
f 321 318 322 
f 318 319 322 
f 319 316 322 
f 316 321 322 
f 319 317 323 
f 320 319 323 
f 317 320 323 
f 320 317 324 
f 317 321 324 
f 321 320 324 
f 316 319 325 
f 320 316 325 
o convex_20
v 0.020073 0.020179 0.007983
v 0.019246 -0.021146 0.005504
v 0.019246 -0.021146 0.006330
v 0.024205 -0.021146 0.007156
v 0.021726 -0.001309 0.004677
v 0.024205 0.011906 0.007156
v 0.019246 0.020179 0.005504
v 0.020900 -0.021146 0.007983
v 0.024205 0.011906 0.007983
v 0.019246 -0.020317 0.004677
v 0.019246 0.016870 0.007983
v 0.023379 -0.012878 0.005504
v 0.024205 -0.021146 0.007983
f 334 333 338 
f 328 327 329 
f 331 330 332 
f 327 328 332 
f 326 331 332 
f 328 329 333 
f 331 326 334 
f 329 331 334 
f 326 333 334 
f 329 327 335 
f 332 330 335 
f 327 332 335 
f 326 332 336 
f 332 328 336 
f 333 326 336 
f 328 333 336 
f 331 329 337 
f 330 331 337 
f 329 335 337 
f 335 330 337 
f 333 329 338 
f 329 334 338 
o convex_21
v 0.024205 -0.021146 0.007983
v 0.020073 0.020179 0.018727
v 0.019246 0.020179 0.018727
v 0.024205 -0.021146 0.018727
v 0.024205 0.012736 0.007983
v 0.019246 0.016870 0.007983
v 0.024205 0.012736 0.018727
v 0.023379 -0.021146 0.018727
v 0.023379 -0.021146 0.007983
v 0.020073 0.020179 0.007983
v 0.019246 0.016870 0.018727
f 344 346 349 
f 340 341 342 
f 342 339 343 
f 343 339 344 
f 340 342 345 
f 342 343 345 
f 343 340 345 
f 342 341 346 
f 339 342 346 
f 346 344 347 
f 344 339 347 
f 339 346 347 
f 341 340 348 
f 340 343 348 
f 343 344 348 
f 344 341 348 
f 341 344 349 
f 346 341 349 
o convex_22
v 0.019246 -0.042635 0.055093
v 0.024205 -0.006269 0.062532
v 0.024205 -0.006269 0.056747
v 0.019246 -0.006269 0.062532
v 0.024205 -0.042635 0.062532
v 0.024205 -0.042635 0.055093
v 0.019246 -0.042635 0.062532
v 0.019246 -0.006269 0.056747
f 350 353 357 
f 351 352 353 
f 352 351 354 
f 351 353 354 
f 350 352 355 
f 354 350 355 
f 352 354 355 
f 353 350 356 
f 350 354 356 
f 354 353 356 
f 352 350 357 
f 353 352 357 
o convex_23
v 0.043214 0.025958 0.007156
v 0.036603 -0.040976 0.007156
v 0.039083 -0.040976 0.004677
v 0.037430 0.025958 0.004677
v 0.044041 -0.040976 0.004677
v 0.036603 0.012740 0.007983
v 0.038256 -0.040976 0.007983
v 0.044041 0.017694 0.004677
v 0.044041 0.021003 0.007156
v 0.044041 -0.040976 0.005504
v 0.044041 0.025958 0.005504
v 0.038256 0.014391 0.007983
v 0.036603 -0.040976 0.007983
f 364 363 370 
f 360 359 361 
f 359 360 362 
f 360 361 362 
f 361 359 363 
f 358 361 363 
f 359 362 364 
f 362 361 365 
f 362 365 366 
f 366 364 367 
f 364 362 367 
f 362 366 367 
f 361 358 368 
f 365 361 368 
f 366 365 368 
f 358 366 368 
f 358 363 369 
f 363 364 369 
f 366 358 369 
f 364 366 369 
f 363 359 370 
f 359 364 370 
o convex_24
v 0.049827 0.012740 0.008809
v 0.044041 -0.040982 0.004677
v 0.046522 -0.040982 0.004677
v 0.048174 -0.040982 0.008809
v 0.044041 0.012740 0.005504
v 0.046522 0.012740 0.004677
v 0.049827 -0.040982 0.007982
v 0.048174 0.012740 0.008809
v 0.044041 -0.040982 0.005504
v 0.049827 0.012740 0.007982
v 0.044041 0.012740 0.004677
v 0.049827 -0.040982 0.008809
v 0.044869 0.011909 0.006330
f 375 379 383 
f 372 373 374 
f 373 372 376 
f 375 371 376 
f 373 376 377 
f 374 373 377 
f 374 371 378 
f 371 375 378 
f 372 374 379 
f 375 372 379 
f 376 371 380 
f 377 376 380 
f 371 377 380 
f 372 375 381 
f 376 372 381 
f 375 376 381 
f 371 374 382 
f 374 377 382 
f 377 371 382 
f 374 378 383 
f 378 375 383 
f 379 374 383 
o convex_25
v 0.049000 -0.040982 0.008809
v 0.052306 0.012740 0.018727
v 0.052306 0.012740 0.015420
v 0.052306 -0.040982 0.012117
v 0.051480 -0.040982 0.018727
v 0.049000 0.012740 0.008809
v 0.051480 0.011909 0.009636
v 0.050653 0.012740 0.017074
v 0.049000 -0.040982 0.010463
v 0.050653 -0.040982 0.008809
v 0.052306 -0.040982 0.018727
v 0.049000 0.011909 0.010463
v 0.052306 0.011909 0.012117
v 0.050653 0.012740 0.008809
v 0.051480 0.012740 0.018727
v 0.051480 -0.040982 0.009636
f 393 390 399 
f 386 385 387 
f 384 387 388 
f 385 386 389 
f 385 389 391 
f 384 388 392 
f 389 384 392 
f 388 391 392 
f 387 384 393 
f 384 389 393 
f 387 385 394 
f 388 387 394 
f 385 388 394 
f 391 389 395 
f 389 392 395 
f 392 391 395 
f 386 387 396 
f 387 390 396 
f 396 390 397 
f 389 386 397 
f 393 389 397 
f 390 393 397 
f 386 396 397 
f 388 385 398 
f 391 388 398 
f 385 391 398 
f 390 387 399 
f 387 393 399 
o convex_26
v 0.037429 0.025964 0.005503
v 0.036603 0.012740 0.007156
v 0.037429 0.012740 0.007156
v 0.030817 0.025964 0.018727
v 0.030817 0.022656 0.007156
v 0.034123 0.012740 0.018727
v 0.032471 0.012740 0.017901
v 0.036603 0.013567 0.014593
v 0.032471 0.025964 0.005503
v 0.031644 0.025964 0.018727
v 0.030817 0.019352 0.018727
v 0.034123 0.022656 0.004677
f 404 408 411 
f 401 402 405 
f 404 401 406 
f 401 405 406 
f 402 400 407 
f 405 402 407 
f 403 400 408 
f 404 403 408 
f 400 403 409 
f 403 405 409 
f 407 400 409 
f 405 407 409 
f 403 404 410 
f 405 403 410 
f 406 405 410 
f 404 406 410 
f 400 402 411 
f 402 401 411 
f 401 404 411 
f 408 400 411 
o convex_27
v 0.008502 -0.038502 0.020380
v 0.015940 -0.031065 0.049308
v 0.015940 -0.031892 0.049308
v 0.006022 -0.037675 0.049308
v 0.014287 -0.031065 0.020380
v 0.006022 -0.037675 0.020380
v 0.008502 -0.038502 0.049308
v 0.015940 -0.031892 0.020380
v 0.014287 -0.031065 0.049308
v 0.011807 -0.036022 0.020380
v 0.006022 -0.038502 0.049308
v 0.011807 -0.036022 0.049308
f 421 414 423 
f 414 413 415 
f 416 412 417 
f 415 416 417 
f 414 415 418 
f 413 414 419 
f 412 416 419 
f 416 413 419 
f 415 413 420 
f 416 415 420 
f 413 416 420 
f 418 412 421 
f 412 419 421 
f 419 414 421 
f 417 412 422 
f 415 417 422 
f 412 418 422 
f 418 415 422 
f 414 418 423 
f 418 421 423 
o convex_28
v 0.050653 0.004475 0.019554
v 0.024205 -0.040982 0.018727
v 0.049825 -0.040982 0.018727
v 0.024205 -0.040982 0.019554
v 0.024205 0.004475 0.018727
v 0.024205 0.004475 0.019554
v 0.050653 0.004475 0.018727
v 0.050653 -0.040150 0.019554
f 426 430 431 
f 425 426 427 
f 426 425 428 
f 425 427 428 
f 427 424 429 
f 424 428 429 
f 428 427 429 
f 428 424 430 
f 426 428 430 
f 427 426 431 
f 424 427 431 
f 430 424 431 
o convex_29
v 0.050653 -0.039327 0.018727
v 0.052306 0.004475 0.031125
v 0.051480 0.004475 0.031125
v 0.052306 -0.040982 0.031125
v 0.052306 0.004475 0.018727
v 0.052306 -0.040982 0.018727
v 0.050653 0.004475 0.018727
v 0.051480 -0.040982 0.031125
f 437 435 439 
f 433 434 435 
f 434 433 436 
f 433 435 436 
f 432 436 437 
f 436 435 437 
f 432 434 438 
f 436 432 438 
f 434 436 438 
f 434 432 439 
f 435 434 439 
f 432 437 439 
o convex_30
v 0.020903 0.010261 0.018727
v 0.024207 0.022658 0.019554
v 0.046517 0.021830 0.023686
v 0.048174 0.021830 0.018727
v 0.048174 0.004475 0.019554
v 0.020903 0.011091 0.020381
v 0.039076 0.019351 0.023686
v 0.024207 0.004475 0.019554
v 0.048174 0.004475 0.018727
v 0.019246 0.022658 0.018727
v 0.044040 0.016872 0.023686
v 0.019246 0.020175 0.020381
v 0.038249 0.021830 0.023686
v 0.024207 0.004475 0.018727
f 440 448 453 
f 441 442 443 
f 443 442 444 
f 446 445 447 
f 445 440 447 
f 444 447 448 
f 440 443 448 
f 443 444 448 
f 441 443 449 
f 443 440 449 
f 444 442 450 
f 442 446 450 
f 446 447 450 
f 447 444 450 
f 440 445 451 
f 449 440 451 
f 449 451 452 
f 442 441 452 
f 446 442 452 
f 445 446 452 
f 441 449 452 
f 451 445 452 
f 447 440 453 
f 448 447 453 
o convex_31
v -0.023731 -0.027760 0.049308
v -0.015468 -0.036849 0.020380
v -0.013814 -0.036849 0.020380
v -0.023731 -0.023627 0.020380
v -0.013814 -0.036022 0.049308
v -0.023731 -0.023627 0.049308
v -0.022904 -0.029413 0.020380
v -0.017121 -0.036022 0.049308
v -0.024556 -0.026107 0.020380
v -0.013814 -0.036022 0.020380
v -0.020424 -0.032716 0.020380
v -0.020424 -0.032716 0.049308
v -0.024556 -0.023627 0.049308
v -0.015468 -0.036849 0.049308
v -0.017121 -0.036022 0.020380
f 461 464 468 
f 456 455 457 
f 454 458 459 
f 458 457 459 
f 457 455 460 
f 458 454 461 
f 460 454 462 
f 457 460 462 
f 456 457 463 
f 457 458 463 
f 458 456 463 
f 460 455 464 
f 464 461 465 
f 454 460 465 
f 461 454 465 
f 460 464 465 
f 454 459 466 
f 459 457 466 
f 462 454 466 
f 457 462 466 
f 455 456 467 
f 456 458 467 
f 458 461 467 
f 461 455 467 
f 455 461 468 
f 464 455 468 
o convex_32
v 0.053959 -0.041808 0.049305
v 0.050653 -0.042635 0.031125
v 0.050653 -0.041808 0.031125
v 0.050653 -0.042635 0.055093
v 0.051480 -0.037677 0.055093
v 0.052306 -0.037677 0.031125
v 0.052306 -0.042635 0.031125
v 0.052306 -0.037677 0.055093
v 0.053959 -0.042635 0.043522
v 0.051480 -0.037677 0.031125
f 473 474 478 
f 471 470 472 
f 471 472 473 
f 470 471 474 
f 472 470 475 
f 470 474 475 
f 472 469 476 
f 473 472 476 
f 474 473 476 
f 469 474 476 
f 469 472 477 
f 474 469 477 
f 475 474 477 
f 472 475 477 
f 471 473 478 
f 474 471 478 
o convex_33
v -0.034477 0.024310 0.025339
v -0.039434 0.002822 0.022859
v -0.039434 0.002822 0.025339
v -0.031998 0.002822 0.023686
v -0.031998 0.025138 0.018727
v -0.031998 0.002822 0.018727
v -0.036128 0.020177 0.018727
v -0.038607 0.002822 0.018727
v -0.031998 0.025138 0.025339
v -0.037781 0.015216 0.025339
v -0.034477 0.002822 0.025339
v -0.039434 0.006129 0.022859
v -0.035303 0.023482 0.018727
f 485 488 491 
f 481 480 482 
f 482 480 484 
f 483 482 484 
f 483 484 485 
f 485 484 486 
f 484 480 486 
f 479 481 487 
f 483 479 487 
f 482 483 487 
f 481 479 488 
f 481 482 489 
f 487 481 489 
f 482 487 489 
f 480 481 490 
f 485 486 490 
f 486 480 490 
f 481 488 490 
f 488 485 490 
f 479 483 491 
f 483 485 491 
f 488 479 491 
o convex_34
v -0.030343 0.013569 0.015421
v -0.024558 0.027617 0.025339
v -0.026212 0.027617 0.025339
v -0.027039 0.002822 0.019555
v -0.024558 0.024309 0.015421
v -0.031997 0.025137 0.025339
v -0.031997 0.002822 0.019555
v -0.031997 0.025137 0.018729
v -0.027039 0.002822 0.015421
v -0.024558 0.016042 0.019555
v -0.025386 0.027617 0.017903
v -0.031997 0.002822 0.017903
v -0.024558 0.016042 0.015421
v -0.028690 0.021003 0.015421
v -0.030343 0.024309 0.025339
f 497 498 506 
f 493 494 497 
f 498 497 499 
f 497 494 499 
f 492 496 500 
f 495 498 500 
f 493 495 501 
f 496 493 501 
f 495 500 501 
f 494 493 502 
f 493 496 502 
f 496 499 502 
f 499 494 502 
f 498 499 503 
f 499 492 503 
f 492 500 503 
f 500 498 503 
f 500 496 504 
f 496 501 504 
f 501 500 504 
f 496 492 505 
f 492 499 505 
f 499 496 505 
f 495 493 506 
f 493 497 506 
f 498 495 506 
o convex_35
v -0.034476 0.021832 0.050134
v -0.039435 0.002822 0.025339
v -0.039435 0.006129 0.025339
v -0.034476 0.019351 0.025339
v -0.036130 0.002822 0.050134
v -0.035303 0.002822 0.025339
v -0.039435 0.006129 0.045173
v -0.036956 0.021004 0.027820
v -0.036130 0.020177 0.050134
v -0.038608 0.002822 0.049307
v -0.034476 0.021832 0.025339
v -0.034476 0.019351 0.050134
v -0.036956 0.020177 0.041040
v -0.036130 0.021832 0.041040
f 514 519 520 
f 508 509 510 
f 511 508 512 
f 508 510 512 
f 509 508 513 
f 509 513 514 
f 511 507 515 
f 511 515 516 
f 508 511 516 
f 513 508 516 
f 515 513 516 
f 510 509 517 
f 507 510 517 
f 509 514 517 
f 510 507 518 
f 507 511 518 
f 511 512 518 
f 512 510 518 
f 514 513 519 
f 513 515 519 
f 519 515 520 
f 515 507 520 
f 507 517 520 
f 517 514 520 
o convex_36
v -0.034475 0.021832 0.025339
v -0.024558 0.027617 0.050134
v -0.026213 0.027617 0.050134
v -0.033649 0.021832 0.050134
v -0.036129 0.024312 0.026995
v -0.024558 0.026790 0.025339
v -0.035301 0.023485 0.050134
v -0.026213 0.027617 0.025339
v -0.029519 0.023485 0.050134
v -0.036129 0.021832 0.040215
v -0.036129 0.024312 0.040215
v -0.025385 0.025964 0.050134
v -0.025385 0.025964 0.025339
f 526 532 533 
f 522 523 524 
f 524 523 527 
f 523 522 528 
f 521 525 528 
f 525 523 528 
f 522 526 528 
f 526 521 528 
f 522 524 529 
f 524 521 529 
f 521 524 530 
f 525 521 530 
f 524 527 530 
f 530 527 531 
f 523 525 531 
f 527 523 531 
f 525 530 531 
f 526 522 532 
f 522 529 532 
f 532 529 533 
f 521 526 533 
f 529 521 533 
o convex_37
v -0.024558 -0.042634 0.055920
v 0.019246 -0.022799 0.062532
v 0.019246 -0.022799 0.056746
v -0.024558 -0.022799 0.058400
v 0.019246 -0.042634 0.062532
v -0.024558 -0.042634 0.062532
v 0.019246 -0.042634 0.055920
v -0.024558 -0.022799 0.062532
v 0.014285 -0.022799 0.056746
v -0.024558 -0.041806 0.055920
f 542 536 543 
f 535 536 537 
f 536 535 538 
f 538 535 539 
f 537 534 539 
f 534 538 539 
f 538 534 540 
f 536 538 540 
f 535 537 541 
f 539 535 541 
f 537 539 541 
f 537 536 542 
f 537 542 543 
f 534 537 543 
f 540 534 543 
f 536 540 543 
o convex_38
v -0.024558 -0.022799 0.058399
v 0.011805 0.015219 0.062532
v 0.013461 0.004475 0.062532
v 0.011805 0.015219 0.058399
v -0.024558 0.015219 0.062532
v 0.013461 -0.022799 0.062532
v 0.013461 -0.022799 0.058399
v -0.024558 -0.022799 0.062532
v -0.024558 0.015219 0.058399
v 0.013461 0.004475 0.058399
f 550 547 553 
f 545 546 547 
f 546 545 548 
f 545 547 548 
f 546 548 549 
f 544 547 550 
f 546 549 550 
f 549 544 550 
f 548 544 551 
f 544 549 551 
f 549 548 551 
f 547 544 552 
f 544 548 552 
f 548 547 552 
f 547 546 553 
f 546 550 553 
o convex_39
v 0.018420 0.000342 0.051787
v 0.019246 0.004475 0.062532
v 0.019246 0.004475 0.056748
v 0.013461 0.004475 0.062532
v 0.019246 -0.022799 0.062532
v 0.013461 -0.022799 0.058398
v 0.019246 -0.022799 0.056748
v 0.014288 0.004475 0.056748
v 0.013461 -0.022799 0.062532
v 0.016767 0.001167 0.051787
v 0.014288 -0.022799 0.056748
v 0.019246 0.001995 0.051787
v 0.013461 0.004475 0.058398
f 561 563 566 
f 555 556 557 
f 556 555 558 
f 555 557 558 
f 558 559 560 
f 556 558 560 
f 557 556 561 
f 558 557 562 
f 557 559 562 
f 559 558 562 
f 560 559 564 
f 554 560 564 
f 563 554 564 
f 559 563 564 
f 560 554 565 
f 556 560 565 
f 561 556 565 
f 554 563 565 
f 563 561 565 
f 559 557 566 
f 557 561 566 
f 563 559 566 
o convex_40
v -0.014640 -0.037677 0.020380
v -0.003069 -0.040155 0.049308
v -0.003069 -0.040982 0.049308
v -0.014640 -0.036850 0.049308
v -0.012160 -0.036850 0.020380
v -0.003069 -0.040982 0.020380
v -0.006375 -0.040982 0.049308
v -0.006375 -0.040982 0.020380
v -0.011334 -0.039329 0.049308
v -0.012160 -0.036850 0.049308
v -0.003069 -0.040155 0.020380
v -0.014640 -0.037677 0.049308
v -0.011334 -0.039329 0.020380
f 574 575 579 
f 569 568 570 
f 567 570 571 
f 568 569 572 
f 567 571 572 
f 572 569 573 
f 569 570 573 
f 567 572 574 
f 572 573 574 
f 573 570 575 
f 574 573 575 
f 570 568 576 
f 571 570 576 
f 568 571 576 
f 571 568 577 
f 568 572 577 
f 572 571 577 
f 570 567 578 
f 567 575 578 
f 575 570 578 
f 567 574 579 
f 575 567 579 
o convex_41
v 0.024205 0.027617 0.050134
v 0.019246 0.022658 0.018727
v 0.024205 0.022658 0.018727
v 0.023379 0.032576 0.037733
v 0.019246 0.028442 0.050134
v 0.019246 0.028442 0.018727
v 0.024205 0.027617 0.018727
v 0.023379 0.025138 0.044348
v 0.024205 0.032576 0.044348
v 0.019246 0.027617 0.050134
f 581 587 589 
f 581 584 585 
f 582 581 585 
f 584 583 585 
f 585 583 586 
f 580 582 586 
f 582 585 586 
f 582 580 587 
f 581 582 587 
f 584 580 588 
f 583 584 588 
f 586 583 588 
f 580 586 588 
f 580 584 589 
f 584 581 589 
f 587 580 589 
o convex_42
v 0.020901 0.011086 0.050134
v 0.020073 0.029267 0.062532
v 0.019246 0.029267 0.062532
v 0.024205 -0.006260 0.062532
v 0.024205 0.027614 0.050134
v 0.019246 -0.006260 0.062532
v 0.019246 0.028442 0.050134
v 0.024205 0.027614 0.062532
v 0.024205 -0.006260 0.056746
v 0.019246 -0.000479 0.051788
v 0.024205 0.011086 0.050134
v 0.019246 -0.006260 0.056746
v 0.020901 -0.001307 0.051788
f 598 601 602 
f 591 592 593 
f 593 592 595 
f 592 591 596 
f 594 590 596 
f 591 594 596 
f 595 592 596 
f 591 593 597 
f 593 594 597 
f 594 591 597 
f 594 593 598 
f 593 595 598 
f 596 590 599 
f 595 596 599 
f 590 594 600 
f 594 598 600 
f 598 595 601 
f 595 599 601 
f 601 599 602 
f 599 590 602 
f 590 600 602 
f 600 598 602 
o convex_43
v -0.016293 0.040837 0.055920
v -0.024558 0.011090 0.051787
v -0.017120 0.011090 0.051787
v -0.012987 0.043317 0.050961
v -0.024558 0.028444 0.050961
v -0.024558 0.016050 0.055920
v -0.017120 0.016050 0.055920
v -0.012987 0.040837 0.055920
v -0.017948 0.041667 0.050961
v -0.024558 0.028444 0.052615
v -0.017120 0.011090 0.052615
f 610 609 613 
f 605 604 607 
f 606 605 607 
f 607 604 608 
f 603 608 609 
f 605 606 610 
f 606 603 610 
f 603 609 610 
f 603 606 611 
f 606 607 611 
f 611 607 612 
f 608 603 612 
f 607 608 612 
f 603 611 612 
f 604 605 613 
f 608 604 613 
f 609 608 613 
f 605 610 613 
o convex_44
v 0.037429 -0.040982 0.007983
v 0.034124 0.012740 0.018727
v 0.032470 0.012740 0.018727
v 0.037429 0.012740 0.007983
v 0.035776 -0.040982 0.017074
v 0.032470 -0.040982 0.017900
v 0.035776 0.012740 0.008809
v 0.036603 0.012740 0.014595
v 0.035776 -0.040982 0.008809
v 0.034124 -0.040982 0.018727
v 0.037429 -0.040982 0.009637
v 0.032470 0.012740 0.017900
v 0.035776 0.012740 0.017074
v 0.036603 -0.040982 0.014595
v 0.032470 -0.040982 0.018727
v 0.037429 0.012740 0.009637
v 0.036603 0.012740 0.007983
f 622 620 630 
f 616 615 617 
f 614 618 619 
f 616 617 620 
f 617 615 621 
f 614 619 622 
f 619 620 622 
f 615 616 623 
f 618 615 623 
f 619 618 623 
f 614 617 624 
f 618 614 624 
f 619 616 625 
f 620 619 625 
f 616 620 625 
f 615 618 626 
f 621 615 626 
f 618 621 626 
f 621 618 627 
f 618 624 627 
f 624 621 627 
f 616 619 628 
f 623 616 628 
f 619 623 628 
f 617 621 629 
f 624 617 629 
f 621 624 629 
f 617 614 630 
f 620 617 630 
f 614 622 630 
o convex_45
v -0.024558 0.022658 0.005504
v 0.010152 0.034229 0.006330
v 0.010152 0.021006 0.006330
v 0.010152 0.021006 0.004677
v -0.018772 0.034229 0.004677
v -0.020423 0.034229 0.007156
v -0.024558 0.018526 0.007156
v -0.022078 0.017699 0.004677
v 0.010152 0.034229 0.005503
v -0.016292 0.017699 0.006329
v -0.017121 0.030922 0.007156
f 636 637 641 
f 632 633 634 
f 632 635 636 
f 635 631 636 
f 636 631 637 
f 637 631 638 
f 631 635 638 
f 635 634 638 
f 632 634 639 
f 634 635 639 
f 635 632 639 
f 634 633 640 
f 633 637 640 
f 637 638 640 
f 638 634 640 
f 633 632 641 
f 632 636 641 
f 637 633 641 
o convex_46
v 0.033297 0.029270 0.020380
v 0.040733 0.034229 0.023686
v 0.043214 0.033402 0.023686
v 0.033297 0.028444 0.023686
v 0.045694 0.028444 0.020380
v 0.039083 0.034229 0.020380
v 0.045694 0.028444 0.023686
v 0.036605 0.033402 0.023686
v 0.045694 0.030924 0.020380
f 648 646 650 
f 644 643 645 
f 645 642 646 
f 643 644 647 
f 646 642 647 
f 644 645 648 
f 645 646 648 
f 645 643 649 
f 642 645 649 
f 643 647 649 
f 647 642 649 
f 647 644 650 
f 646 647 650 
f 644 648 650 
o convex_47
v 0.049827 0.010261 0.055093
v 0.024205 -0.037676 0.056747
v 0.024205 -0.037676 0.062532
v 0.049827 -0.037676 0.055093
v 0.049827 -0.037676 0.062532
v 0.024205 0.010261 0.062532
v 0.049827 0.010261 0.062532
v 0.024205 0.010261 0.056747
v 0.034124 0.010261 0.055921
v 0.034124 -0.037676 0.055921
f 659 654 660 
f 653 652 654 
f 654 651 655 
f 653 654 655 
f 653 655 656 
f 652 653 656 
f 651 656 657 
f 655 651 657 
f 656 655 657 
f 652 656 658 
f 656 651 658 
f 651 654 659 
f 652 658 659 
f 658 651 659 
f 654 652 660 
f 652 659 660 
o convex_48
v 0.049827 0.011080 0.053436
v 0.051480 0.020173 0.059226
v 0.050654 0.020173 0.059226
v 0.052306 -0.037671 0.059226
v 0.052306 0.018520 0.031125
v 0.051480 -0.037671 0.031125
v 0.050654 0.020173 0.031125
v 0.051480 -0.037671 0.059226
v 0.052306 0.018520 0.059226
v 0.052306 -0.037671 0.031125
v 0.049827 0.016040 0.059226
v 0.049827 0.011080 0.048479
f 671 667 672 
f 662 663 664 
f 665 666 667 
f 663 662 667 
f 662 665 667 
f 664 663 668 
f 661 666 668 
f 666 664 668 
f 662 664 669 
f 664 665 669 
f 665 662 669 
f 665 664 670 
f 664 666 670 
f 666 665 670 
f 663 667 671 
f 661 668 671 
f 668 663 671 
f 666 661 672 
f 667 666 672 
f 661 671 672 
o convex_49
v 0.052306 -0.037671 0.059226
v 0.050654 0.020173 0.062532
v 0.049827 0.020173 0.062532
v 0.051480 0.020173 0.059226
v 0.049827 -0.037671 0.060053
v 0.051480 -0.037671 0.062532
v 0.052306 0.016866 0.061705
v 0.049827 0.016040 0.059226
v 0.049827 -0.037671 0.062532
v 0.052306 0.018520 0.059226
v 0.052306 -0.037671 0.060879
f 679 678 683 
f 675 674 676 
f 674 675 678 
f 677 673 678 
f 674 678 679 
f 675 676 680 
f 676 673 680 
f 673 677 680 
f 677 675 680 
f 675 677 681 
f 678 675 681 
f 677 678 681 
f 676 674 682 
f 673 676 682 
f 679 673 682 
f 674 679 682 
f 678 673 683 
f 673 679 683 
o convex_50
v 0.038256 0.026790 0.049307
v 0.051480 0.021006 0.059226
v 0.050653 0.027617 0.053441
v 0.051480 0.020179 0.031125
v 0.051480 0.027617 0.031125
v 0.042390 0.023485 0.031125
v 0.042389 0.023485 0.059226
v 0.041563 0.027617 0.031125
v 0.038256 0.027617 0.059226
v 0.049826 0.020179 0.059226
v 0.047347 0.027617 0.059226
v 0.049826 0.020179 0.031125
f 693 690 695 
f 686 685 688 
f 685 687 688 
f 688 687 689 
f 684 689 690 
f 686 688 691 
f 689 684 691 
f 688 689 691 
f 684 690 692 
f 690 685 692 
f 691 684 692 
f 686 691 692 
f 687 685 693 
f 685 690 693 
f 685 686 694 
f 686 692 694 
f 692 685 694 
f 689 687 695 
f 690 689 695 
f 687 693 695 
o convex_51
v 0.049825 0.015220 0.059226
v 0.046519 0.027617 0.060053
v 0.046519 0.027617 0.059226
v 0.024205 0.010261 0.062532
v 0.024205 0.027617 0.059226
v 0.049000 0.023484 0.062532
v 0.024205 0.027617 0.062532
v 0.024205 0.010261 0.059226
v 0.049825 0.010261 0.062532
v 0.047344 0.010261 0.059226
v 0.051480 0.023484 0.059226
v 0.044037 0.027617 0.061705
v 0.051480 0.023484 0.060879
f 704 706 708 
f 698 696 700 
f 697 698 700 
f 699 701 702 
f 700 699 702 
f 697 700 702 
f 700 696 703 
f 699 700 703 
f 701 699 704 
f 699 703 704 
f 704 703 705 
f 703 696 705 
f 696 704 705 
f 696 698 706 
f 698 697 706 
f 704 696 706 
f 701 697 707 
f 702 701 707 
f 697 702 707 
f 697 701 708 
f 701 704 708 
f 706 697 708 
o convex_52
v -0.025387 -0.007923 0.015421
v -0.038609 -0.036017 0.018727
v -0.038609 -0.036017 0.021207
v -0.038609 0.002822 0.021207
v -0.024559 -0.040982 0.019553
v -0.037781 -0.004617 0.015421
v -0.029517 -0.040982 0.015421
v -0.027040 0.002822 0.019553
v -0.024559 -0.021970 0.020380
v -0.027040 0.002822 0.015421
v -0.036954 -0.039327 0.016249
v -0.033649 -0.040982 0.021207
v -0.038609 0.002822 0.018727
v -0.027864 -0.040982 0.015421
v -0.027040 -0.003794 0.020380
v -0.024559 -0.040982 0.018726
v -0.037781 -0.012884 0.015421
v -0.036128 -0.040982 0.021207
f 720 711 726 
f 710 711 712 
f 714 709 715 
f 709 716 717 
f 709 714 718 
f 716 709 718 
f 712 716 718 
f 712 711 720 
f 715 713 720 
f 717 712 720 
f 713 717 720 
f 710 712 721 
f 714 710 721 
f 718 714 721 
f 712 718 721 
f 715 709 722 
f 713 715 722 
f 716 712 723 
f 712 717 723 
f 717 716 723 
f 709 717 724 
f 717 713 724 
f 722 709 724 
f 713 722 724 
f 710 714 725 
f 714 715 725 
f 719 710 725 
f 715 719 725 
f 711 710 726 
f 710 719 726 
f 719 715 726 
f 715 720 726 
o convex_53
v -0.027864 -0.003790 0.049308
v -0.025385 -0.024452 0.020380
v -0.024558 -0.024452 0.020380
v -0.027037 -0.003790 0.020380
v -0.024558 -0.021973 0.049308
v -0.027864 -0.016186 0.049308
v -0.027864 -0.016186 0.020380
v -0.026211 -0.022798 0.049308
v -0.027037 -0.003790 0.049308
v -0.027864 -0.003790 0.020380
v -0.024558 -0.021973 0.020380
v -0.024558 -0.024452 0.049308
v -0.027037 -0.020316 0.020380
f 728 734 739 
f 729 728 730 
f 731 727 732 
f 730 728 733 
f 732 727 733 
f 731 732 734 
f 730 727 735 
f 727 731 735 
f 731 730 735 
f 727 730 736 
f 730 733 736 
f 733 727 736 
f 729 730 737 
f 730 731 737 
f 731 729 737 
f 728 729 738 
f 729 731 738 
f 734 728 738 
f 731 734 738 
f 733 728 739 
f 732 733 739 
f 734 732 739 
o convex_54
v 0.003542 0.045800 0.017901
v -0.018767 0.034229 0.004677
v -0.020426 0.034229 0.005504
v 0.010155 0.035057 0.017901
v 0.010155 0.043320 0.004677
v -0.015463 0.044145 0.017901
v -0.012984 0.044972 0.004677
v -0.020426 0.034229 0.017901
v 0.010155 0.034229 0.005504
v 0.010155 0.043320 0.017901
v 0.003542 0.045800 0.004677
v -0.017941 0.041666 0.004677
v -0.008853 0.045800 0.017901
v 0.010155 0.035057 0.004677
v -0.018767 0.040015 0.017901
v -0.008853 0.045800 0.004677
v 0.009326 0.044145 0.004677
f 744 750 756 
f 743 740 745 
f 744 741 746 
f 742 741 747 
f 743 745 747 
f 744 743 748 
f 747 741 748 
f 743 747 748 
f 740 743 749 
f 743 744 749 
f 744 746 750 
f 741 742 751 
f 745 746 751 
f 746 741 751 
f 745 740 752 
f 746 745 752 
f 740 750 752 
f 741 744 753 
f 744 748 753 
f 748 741 753 
f 742 747 754 
f 747 745 754 
f 751 742 754 
f 745 751 754 
f 750 746 755 
f 746 752 755 
f 752 750 755 
f 740 749 756 
f 749 744 756 
f 750 740 756 
o convex_55
v 0.015113 0.035054 0.007156
v 0.010155 0.017699 0.004677
v 0.013461 0.017699 0.004677
v 0.010155 0.043321 0.004677
v 0.019246 0.017699 0.005504
v 0.010155 0.017699 0.006329
v 0.010155 0.043321 0.007156
v 0.019246 0.019357 0.007156
v 0.019246 0.023485 0.005504
v 0.012635 0.040840 0.004677
f 765 759 766 
f 759 758 760 
f 758 759 761 
f 760 758 762 
f 758 761 762 
f 760 762 763 
f 763 762 764 
f 762 761 764 
f 757 763 764 
f 764 761 765 
f 761 759 765 
f 757 764 765 
f 757 765 766 
f 759 760 766 
f 763 757 766 
f 760 763 766 
o convex_56
v 0.019246 0.023486 0.007157
v 0.010982 0.043321 0.017900
v 0.010155 0.043321 0.017900
v 0.018420 0.019352 0.017900
v 0.010155 0.035053 0.007157
v 0.011809 0.042492 0.007157
v 0.010155 0.035053 0.017900
v 0.018420 0.025966 0.017900
v 0.018420 0.019352 0.007157
v 0.015113 0.035053 0.017900
v 0.010155 0.043321 0.007157
v 0.019246 0.019352 0.017900
v 0.015113 0.035053 0.007157
f 776 774 779 
f 768 769 770 
f 767 771 772 
f 770 769 773 
f 771 770 773 
f 769 771 773 
f 768 770 774 
f 771 767 775 
f 770 771 775 
f 772 768 776 
f 768 774 776 
f 769 768 777 
f 771 769 777 
f 772 771 777 
f 768 772 777 
f 774 770 778 
f 767 774 778 
f 775 767 778 
f 770 775 778 
f 767 772 779 
f 774 767 779 
f 772 776 779 
o convex_57
v -0.004721 0.047453 0.018732
v 0.010152 0.042492 0.050958
v 0.010152 0.040017 0.050958
v -0.016291 0.040842 0.050958
v 0.010152 0.035056 0.017904
v -0.016291 0.035056 0.017904
v -0.016291 0.035056 0.049304
v -0.009681 0.047453 0.050958
v 0.005195 0.047453 0.023689
v -0.016291 0.043319 0.017904
v 0.010152 0.035056 0.049304
v 0.010152 0.043319 0.017904
v 0.005195 0.047453 0.050958
v -0.009681 0.047453 0.024517
v -0.015465 0.044145 0.049304
v 0.009326 0.044145 0.049304
v 0.003540 0.045799 0.017904
v -0.015465 0.044145 0.017904
v -0.016291 0.043319 0.050129
f 787 794 798 
f 782 781 783 
f 781 782 784 
f 782 783 786 
f 785 784 786 
f 783 785 786 
f 783 781 787 
f 780 787 788 
f 784 785 789 
f 785 783 789 
f 784 782 790 
f 782 786 790 
f 786 784 790 
f 781 784 791 
f 784 789 791 
f 787 781 792 
f 788 787 792 
f 787 780 793 
f 787 793 794 
f 781 791 795 
f 791 788 795 
f 792 781 795 
f 788 792 795 
f 780 788 796 
f 788 791 796 
f 791 789 796 
f 793 780 797 
f 789 794 797 
f 794 793 797 
f 780 796 797 
f 796 789 797 
f 783 787 798 
f 789 783 798 
f 794 789 798 
o convex_58
v 0.011808 0.041667 0.050958
v 0.012634 0.030923 0.017904
v 0.010155 0.035056 0.017904
v 0.011808 0.042493 0.017904
v 0.014287 0.034230 0.050958
v 0.010155 0.035056 0.049304
v 0.010155 0.043321 0.049304
v 0.014287 0.035884 0.017904
v 0.013460 0.030923 0.050958
v 0.010155 0.043321 0.017904
v 0.012634 0.040839 0.049304
v 0.013460 0.030923 0.017904
v 0.012634 0.030923 0.050958
v 0.010982 0.043321 0.049304
f 809 802 812 
f 800 801 802 
f 801 800 804 
f 804 799 805 
f 801 804 805 
f 800 802 806 
f 803 799 807 
f 802 801 808 
f 801 805 808 
f 799 803 809 
f 806 802 809 
f 803 806 809 
f 800 806 810 
f 806 803 810 
f 803 807 810 
f 807 800 810 
f 804 800 811 
f 799 804 811 
f 807 799 811 
f 800 807 811 
f 805 799 812 
f 802 808 812 
f 808 805 812 
f 799 809 812 
o convex_59
v 0.015114 0.035056 0.050958
v 0.018420 0.019352 0.017904
v 0.019246 0.019352 0.017904
v 0.018420 0.019352 0.050958
v 0.019246 0.029270 0.050958
v 0.014287 0.035056 0.017904
v 0.019246 0.029270 0.018732
v 0.014287 0.030921 0.050958
v 0.014287 0.030921 0.017904
v 0.019246 0.019352 0.050958
v 0.015114 0.035056 0.017904
v 0.014287 0.035056 0.050958
f 818 820 824 
f 814 815 816 
f 813 816 817 
f 815 814 818 
f 813 817 819 
f 817 815 819 
f 814 816 820 
f 816 813 820 
f 820 818 821 
f 818 814 821 
f 814 820 821 
f 816 815 822 
f 817 816 822 
f 815 817 822 
f 815 818 823 
f 818 813 823 
f 813 819 823 
f 819 815 823 
f 813 818 824 
f 820 813 824 
o convex_60
v 0.019246 0.014396 0.051789
v 0.015937 0.035049 0.062532
v 0.012637 0.035049 0.062532
v 0.011808 0.004479 0.062532
v 0.010156 0.041664 0.050961
v 0.010156 0.011090 0.051789
v 0.019246 0.004479 0.062532
v 0.019246 0.029264 0.050961
v 0.009328 0.040838 0.060878
v 0.019246 0.030094 0.062532
v 0.019246 0.004479 0.056746
v 0.009328 0.019358 0.060878
v 0.011810 0.041664 0.050961
v 0.011808 0.004479 0.058399
v 0.009328 0.040008 0.055921
v 0.018419 0.019358 0.050961
v 0.015113 0.011090 0.051789
v 0.010982 0.040838 0.060878
v 0.018419 0.031747 0.053441
f 837 826 843 
f 826 827 828 
f 826 828 831 
f 831 825 832 
f 827 826 833 
f 828 827 833 
f 826 831 834 
f 831 832 834 
f 825 831 835 
f 831 828 835 
f 830 828 836 
f 828 833 836 
f 832 829 837 
f 829 833 837 
f 828 830 838 
f 830 835 838 
f 835 828 838 
f 829 830 839 
f 833 829 839 
f 830 836 839 
f 836 833 839 
f 830 829 840 
f 829 832 840 
f 832 825 840 
f 825 835 841 
f 835 830 841 
f 840 825 841 
f 830 840 841 
f 833 826 842 
f 826 837 842 
f 837 833 842 
f 826 834 843 
f 834 832 843 
f 832 837 843 
o convex_61
v 0.023378 -0.006269 0.020380
v 0.006025 -0.038500 0.018727
v 0.006025 -0.038500 0.020380
v 0.024205 -0.036023 0.018727
v 0.022550 -0.006269 0.018727
v 0.024205 -0.036023 0.019554
v 0.018416 -0.028584 0.020380
v 0.024205 -0.006269 0.018727
v 0.019244 -0.038500 0.019554
f 847 849 852 
f 846 844 848 
f 845 846 848 
f 847 845 848 
f 844 846 850 
f 849 844 850 
f 846 849 850 
f 848 844 851 
f 847 848 851 
f 844 849 851 
f 849 847 851 
f 846 845 852 
f 845 847 852 
f 849 846 852 
o convex_62
v 0.023379 -0.012882 0.049308
v 0.019246 -0.024452 0.020380
v 0.020073 -0.024452 0.020380
v 0.023379 -0.006269 0.020380
v 0.019246 -0.021970 0.049308
v 0.022552 -0.006269 0.049308
v 0.022552 -0.006269 0.020380
v 0.023379 -0.012882 0.020380
v 0.021726 -0.021144 0.049308
v 0.020073 -0.024452 0.049308
v 0.019246 -0.021970 0.020380
v 0.021726 -0.021144 0.020380
v 0.023379 -0.006269 0.049308
f 858 853 865 
f 855 854 856 
f 857 853 858 
f 856 854 859 
f 857 858 859 
f 858 856 859 
f 855 856 860 
f 856 853 860 
f 853 857 861 
f 860 853 861 
f 854 855 862 
f 857 854 862 
f 861 857 862 
f 855 861 862 
f 854 857 863 
f 859 854 863 
f 857 859 863 
f 855 860 864 
f 861 855 864 
f 860 861 864 
f 853 856 865 
f 856 858 865 
o convex_63
v 0.020899 0.010259 0.019559
v 0.022552 -0.006268 0.018730
v 0.021726 -0.001309 0.018730
v 0.022552 -0.006268 0.049305
v 0.024205 0.010259 0.018730
v 0.024205 -0.006268 0.019559
v 0.023379 -0.003788 0.049305
v 0.020899 0.007779 0.018730
f 870 868 873 
f 868 867 869 
f 867 868 870 
f 867 870 871 
f 869 867 871 
f 869 871 872 
f 866 869 872 
f 870 866 872 
f 871 870 872 
f 868 869 873 
f 869 866 873 
f 866 870 873 
o convex_64
v 0.046520 0.028444 0.023687
v 0.024205 0.021832 0.018727
v 0.024205 0.021832 0.019555
v 0.048174 0.021832 0.018727
v 0.048174 0.022659 0.031125
v 0.024205 0.027616 0.031125
v 0.024205 0.027616 0.018727
v 0.048174 0.027616 0.031125
v 0.033304 0.022659 0.031125
v 0.048174 0.027616 0.018727
v 0.033304 0.028444 0.020381
v 0.046520 0.021832 0.023687
v 0.024205 0.026791 0.031125
f 882 879 886 
f 876 875 877 
f 875 876 879 
f 877 875 880 
f 875 879 880 
f 878 877 881 
f 879 878 881 
f 874 879 881 
f 878 879 882 
f 877 880 883 
f 874 881 883 
f 881 877 883 
f 879 874 884 
f 880 879 884 
f 874 883 884 
f 883 880 884 
f 876 877 885 
f 877 878 885 
f 882 876 885 
f 878 882 885 
f 879 876 886 
f 876 882 886 
o convex_65
v 0.008501 0.042494 0.060879
v -0.012987 0.042495 0.050961
v -0.012987 0.041668 0.051788
v 0.010155 0.039188 0.050961
v 0.005194 0.047453 0.050961
v -0.012160 0.039188 0.060879
v -0.011333 0.043321 0.060879
v -0.009680 0.047453 0.052615
v 0.009328 0.039188 0.060879
v 0.006848 0.043321 0.060879
v 0.010155 0.042495 0.051788
v 0.005194 0.047453 0.052615
v -0.009680 0.047453 0.050961
v -0.012987 0.044147 0.052615
f 899 888 900 
f 889 888 890 
f 890 888 891 
f 889 890 892 
f 892 887 893 
f 892 890 895 
f 887 892 895 
f 893 887 896 
f 894 893 896 
f 890 891 897 
f 887 895 897 
f 895 890 897 
f 891 894 898 
f 896 887 898 
f 894 896 898 
f 887 897 898 
f 897 891 898 
f 891 888 899 
f 894 891 899 
f 894 899 900 
f 888 889 900 
f 889 892 900 
f 892 893 900 
f 893 894 900 
o convex_66
v 0.049827 0.016046 0.059226
v 0.024205 0.011087 0.048481
v 0.034124 0.010261 0.055918
v 0.049827 0.011087 0.048481
v 0.024205 0.015219 0.059226
v 0.047347 0.010261 0.059226
v 0.048999 0.016046 0.055092
v 0.024205 0.010261 0.059226
v 0.024205 0.011914 0.048481
v 0.024205 0.015219 0.056746
v 0.049827 0.010261 0.055092
v 0.049827 0.011914 0.048481
f 909 907 912 
f 901 905 906 
f 905 901 907 
f 902 903 908 
f 905 902 908 
f 903 906 908 
f 906 905 908 
f 904 902 909 
f 902 905 909 
f 907 909 910 
f 905 907 910 
f 909 905 910 
f 903 902 911 
f 902 904 911 
f 904 901 911 
f 906 903 911 
f 901 906 911 
f 901 904 912 
f 907 901 912 
f 904 909 912 
o convex_67
v -0.018773 0.034229 0.050961
v -0.024558 0.026791 0.020380
v -0.023731 0.026791 0.020380
v -0.019600 0.035882 0.020380
v -0.024558 0.028444 0.050961
v -0.019600 0.031749 0.020380
v -0.021253 0.029272 0.050961
v -0.019600 0.035882 0.050961
v -0.024558 0.028444 0.020380
v -0.023731 0.026791 0.050961
v -0.018773 0.035882 0.020380
v -0.020426 0.035055 0.020380
f 921 917 924 
f 915 914 916 
f 915 916 918 
f 913 917 919 
f 918 913 919 
f 915 918 919 
f 917 913 920 
f 916 914 921 
f 914 917 921 
f 914 915 922 
f 917 914 922 
f 919 917 922 
f 915 919 922 
f 913 918 923 
f 918 916 923 
f 920 913 923 
f 916 920 923 
f 920 916 924 
f 917 920 924 
f 916 921 924 
o convex_68
v 0.027513 0.024311 0.032778
v 0.041562 0.027616 0.049308
v 0.040733 0.030923 0.044347
v 0.024205 0.031748 0.046001
v 0.031645 0.022658 0.049308
v 0.041562 0.026792 0.031125
v 0.029990 0.031748 0.031952
v 0.040733 0.022658 0.035259
v 0.024205 0.026792 0.049308
v 0.024205 0.027617 0.031125
v 0.032473 0.031749 0.049308
v 0.032473 0.022658 0.031125
v 0.039907 0.022658 0.047654
v 0.024205 0.032576 0.036085
v 0.024205 0.025139 0.046001
v 0.033297 0.031749 0.032778
v 0.040733 0.030923 0.040216
v 0.024205 0.025139 0.035259
v 0.041562 0.027616 0.031125
v 0.028339 0.031748 0.049308
v 0.025033 0.032576 0.044347
f 944 935 945 
f 930 926 932 
f 929 926 933 
f 933 928 934 
f 926 927 935 
f 933 926 935 
f 932 929 936 
f 930 932 936 
f 925 934 936 
f 934 930 936 
f 926 929 937 
f 929 932 937 
f 932 926 937 
f 931 934 938 
f 934 928 938 
f 929 933 939 
f 933 934 939 
f 931 938 940 
f 927 926 941 
f 940 927 941 
f 934 925 942 
f 925 936 942 
f 936 929 942 
f 929 939 942 
f 939 934 942 
f 926 930 943 
f 930 934 943 
f 934 931 943 
f 931 940 943 
f 941 926 943 
f 940 941 943 
f 928 933 944 
f 933 935 944 
f 935 927 945 
f 938 928 945 
f 927 940 945 
f 940 938 945 
f 928 944 945 
o convex_69
v 0.038256 0.026790 0.059226
v 0.024205 0.026790 0.049308
v 0.024205 0.027617 0.049308
v 0.024205 0.026790 0.059226
v 0.032468 0.022658 0.049308
v 0.038256 0.027617 0.049308
v 0.031643 0.022658 0.059226
v 0.024205 0.027617 0.059226
v 0.038256 0.027617 0.059226
v 0.030819 0.022658 0.055918
f 950 952 955 
f 948 947 949 
f 947 948 950 
f 946 950 951 
f 950 948 951 
f 946 949 952 
f 950 946 952 
f 948 949 953 
f 949 946 953 
f 951 948 953 
f 951 953 954 
f 946 951 954 
f 953 946 954 
f 949 947 955 
f 947 950 955 
f 952 949 955 
o convex_70
v -0.035302 -0.036850 0.023687
v -0.035302 0.002822 0.028645
v -0.036956 0.002822 0.028645
v -0.031997 0.002822 0.022860
v -0.035302 -0.036850 0.028645
v -0.031997 -0.036850 0.023687
v -0.036129 0.002822 0.024513
v -0.036956 -0.036850 0.027818
v -0.033650 -0.036850 0.022860
v -0.033650 0.002822 0.022860
v -0.031997 0.002822 0.023687
v -0.036129 -0.036850 0.024513
f 963 962 967 
f 958 957 959 
f 957 958 960 
f 957 960 961 
f 960 956 961 
f 958 959 962 
f 956 960 963 
f 960 958 963 
f 958 962 963 
f 959 961 964 
f 961 956 964 
f 956 962 965 
f 962 959 965 
f 959 964 965 
f 964 956 965 
f 959 957 966 
f 957 961 966 
f 961 959 966 
f 962 956 967 
f 956 963 967 
o convex_71
v -0.017120 0.011087 0.052615
v 0.010155 0.016873 0.055920
v 0.010155 0.016873 0.051787
v -0.017120 0.016873 0.055920
v 0.010155 0.011087 0.051787
v -0.017120 0.016873 0.051787
v 0.010155 0.016046 0.055920
v -0.017120 0.011087 0.051787
v 0.010155 0.011087 0.052615
v -0.017120 0.016046 0.055920
f 968 974 977 
f 969 970 971 
f 970 969 972 
f 971 970 973 
f 968 971 973 
f 970 972 973 
f 969 971 974 
f 972 969 974 
f 972 968 975 
f 968 973 975 
f 973 972 975 
f 968 972 976 
f 974 968 976 
f 972 974 976 
f 971 968 977 
f 974 971 977 
o convex_72
v -0.036955 -0.040982 0.028648
v -0.031997 -0.036850 0.023687
v -0.031997 -0.040982 0.023687
v -0.035303 -0.036023 0.056746
v -0.037782 -0.036023 0.028648
v -0.036129 -0.040982 0.056746
v -0.033650 -0.040982 0.049305
v -0.036955 -0.040155 0.021207
v -0.037782 -0.038503 0.049305
v -0.037782 -0.036023 0.049305
v -0.036955 -0.037677 0.021207
v -0.033651 -0.040982 0.021207
f 988 979 989 
f 981 979 982 
f 978 980 983 
f 980 979 984 
f 979 981 984 
f 983 980 984 
f 981 983 984 
f 982 985 986 
f 978 983 986 
f 985 978 986 
f 986 983 987 
f 981 982 987 
f 983 981 987 
f 982 986 987 
f 982 979 988 
f 985 982 988 
f 985 988 989 
f 980 978 989 
f 979 980 989 
f 978 985 989 
o convex_73
v -0.039435 -0.034365 0.022863
v -0.035303 0.002822 0.056746
v -0.033650 -0.007926 0.047649
v -0.037782 0.002822 0.021207
v -0.039435 -0.034369 0.045172
v -0.039435 0.002822 0.045172
v -0.036956 -0.038503 0.021207
v -0.035303 -0.036023 0.056746
v -0.039435 0.002822 0.022863
v -0.033650 -0.017840 0.044341
v -0.036131 0.002822 0.028648
v -0.036131 -0.036023 0.056746
v -0.033650 -0.002966 0.044341
v -0.038607 0.002822 0.049305
v -0.038607 -0.036023 0.049305
v -0.036131 0.002822 0.056746
v -0.038608 -0.036023 0.021207
v -0.036131 -0.036023 0.028648
v -0.037782 -0.038503 0.028648
v -0.035303 -0.036023 0.052610
f 1007 999 1009 
f 991 993 995 
f 990 994 995 
f 992 991 997 
f 995 993 998 
f 990 995 998 
f 992 997 999 
f 993 991 1000 
f 996 993 1000 
f 997 991 1001 
f 991 992 1002 
f 992 999 1002 
f 999 996 1002 
f 1000 991 1002 
f 996 1000 1002 
f 991 995 1003 
f 995 994 1003 
f 1001 1003 1004 
f 1003 994 1004 
f 1001 991 1005 
f 991 1003 1005 
f 1003 1001 1005 
f 993 996 1006 
f 990 998 1006 
f 998 993 1006 
f 996 999 1007 
f 994 990 1008 
f 996 997 1008 
f 997 1001 1008 
f 1001 1004 1008 
f 1004 994 1008 
f 990 1006 1008 
f 1006 996 1008 
f 997 996 1009 
f 999 997 1009 
f 996 1007 1009 
o convex_74
v -0.016293 0.042494 0.050958
v -0.018773 0.030097 0.017904
v -0.017946 0.030097 0.017904
v -0.016293 0.042494 0.017904
v -0.018773 0.040014 0.050129
v -0.017120 0.030924 0.050958
v -0.018773 0.040014 0.017904
v -0.016293 0.034231 0.017904
v -0.018773 0.030097 0.050958
v -0.016293 0.034231 0.050958
v -0.017946 0.041667 0.050958
v -0.017120 0.042494 0.017904
f 1016 1020 1021 
f 1012 1011 1013 
f 1013 1011 1016 
f 1011 1014 1016 
f 1012 1013 1017 
f 1013 1010 1017 
f 1015 1012 1017 
f 1011 1012 1018 
f 1014 1011 1018 
f 1012 1015 1018 
f 1015 1010 1018 
f 1010 1015 1019 
f 1017 1010 1019 
f 1015 1017 1019 
f 1016 1014 1020 
f 1018 1010 1020 
f 1014 1018 1020 
f 1010 1013 1021 
f 1013 1016 1021 
f 1020 1010 1021 
o convex_75
v -0.023731 -0.023627 0.020380
v -0.024556 -0.036849 0.018727
v -0.013814 -0.036849 0.018727
v -0.013814 -0.036849 0.020380
v -0.024556 -0.023627 0.018727
v -0.024556 -0.036849 0.019554
f 1022 1026 1027 
f 1023 1024 1025 
f 1024 1022 1025 
f 1022 1024 1026 
f 1024 1023 1026 
f 1026 1023 1027 
f 1023 1025 1027 
f 1025 1022 1027 
o convex_76
v -0.024558 -0.042635 0.017901
v -0.012162 -0.036851 0.020380
v -0.012162 -0.036851 0.018727
v 0.019246 -0.042635 0.020380
v 0.019246 -0.041808 0.017901
v -0.024558 -0.042635 0.020380
v 0.019246 -0.038503 0.019554
v -0.024558 -0.036851 0.018727
v 0.019246 -0.042635 0.017901
v 0.019246 -0.038503 0.018727
f 1034 1032 1037 
f 1031 1029 1033 
f 1028 1031 1033 
f 1030 1029 1034 
f 1029 1031 1034 
f 1031 1032 1034 
f 1029 1030 1035 
f 1032 1028 1035 
f 1030 1032 1035 
f 1033 1029 1035 
f 1028 1033 1035 
f 1031 1028 1036 
f 1028 1032 1036 
f 1032 1031 1036 
f 1032 1030 1037 
f 1030 1034 1037 
o convex_77
v -0.013814 0.042494 0.060879
v -0.018772 0.019352 0.055920
v -0.018772 0.019352 0.060879
v -0.012161 0.019352 0.059225
v -0.012161 0.042494 0.055920
v -0.017119 0.040014 0.055920
v -0.017945 0.038360 0.060879
v -0.012161 0.037533 0.060879
v -0.018772 0.031748 0.055920
v -0.013814 0.019352 0.060879
f 1041 1045 1047 
f 1040 1039 1041 
f 1041 1039 1042 
f 1042 1039 1043 
f 1038 1042 1043 
f 1040 1038 1044 
f 1038 1043 1044 
f 1038 1040 1045 
f 1042 1038 1045 
f 1041 1042 1045 
f 1039 1040 1046 
f 1043 1039 1046 
f 1040 1044 1046 
f 1044 1043 1046 
f 1040 1041 1047 
f 1045 1040 1047 
o convex_78
v 0.019246 0.020179 0.050134
v 0.020900 0.011087 0.020380
v 0.021726 0.011087 0.020380
v 0.024205 0.011087 0.050134
v 0.020073 0.020179 0.020380
v 0.020900 0.011087 0.050134
v 0.019246 0.016873 0.020380
v 0.020073 0.020179 0.050134
v 0.020073 0.012741 0.050134
v 0.024205 0.011914 0.048480
v 0.021726 0.013567 0.020380
v 0.019246 0.016873 0.050134
v 0.019246 0.020179 0.020380
f 1052 1054 1060 
f 1049 1050 1051 
f 1050 1049 1052 
f 1049 1051 1053 
f 1051 1048 1053 
f 1052 1049 1054 
f 1048 1051 1055 
f 1052 1048 1055 
f 1049 1053 1056 
f 1053 1048 1056 
f 1054 1049 1056 
f 1051 1050 1057 
f 1055 1051 1057 
f 1052 1055 1057 
f 1050 1052 1058 
f 1057 1050 1058 
f 1052 1057 1058 
f 1048 1054 1059 
f 1056 1048 1059 
f 1054 1056 1059 
f 1048 1052 1060 
f 1054 1048 1060 
o convex_79
v -0.003069 -0.040157 0.020380
v 0.007675 -0.041808 0.055920
v 0.007675 -0.042635 0.055920
v 0.007675 -0.041808 0.020380
v 0.006849 -0.038503 0.049303
v -0.003069 -0.042635 0.055920
v -0.003069 -0.042635 0.020380
v 0.006849 -0.038503 0.020380
v -0.003069 -0.040157 0.049303
v 0.003541 -0.038503 0.049303
v 0.007675 -0.042635 0.020380
v 0.003541 -0.038503 0.020380
v -0.003069 -0.041808 0.055920
f 1062 1070 1073 
f 1062 1063 1064 
f 1062 1064 1065 
f 1063 1062 1066 
f 1066 1061 1067 
f 1061 1064 1067 
f 1063 1066 1067 
f 1064 1061 1068 
f 1065 1064 1068 
f 1061 1066 1069 
f 1062 1065 1070 
f 1065 1068 1070 
f 1061 1069 1070 
f 1064 1063 1071 
f 1063 1067 1071 
f 1067 1064 1071 
f 1068 1061 1072 
f 1061 1070 1072 
f 1070 1068 1072 
f 1066 1062 1073 
f 1069 1066 1073 
f 1070 1069 1073 
o convex_80
v 0.011808 0.019352 0.060878
v -0.024558 0.016046 0.055920
v -0.024558 0.015220 0.058400
v 0.011808 0.016046 0.055920
v -0.018766 0.019352 0.055920
v -0.024558 0.015220 0.062532
v -0.024558 0.018525 0.062532
v 0.011808 0.015220 0.059226
v 0.011808 0.016046 0.060878
v 0.010153 0.019352 0.059226
v -0.018766 0.019352 0.060878
v -0.017118 0.015220 0.062532
v 0.011808 0.016873 0.055920
f 1078 1083 1086 
f 1076 1075 1077 
f 1077 1075 1078 
f 1075 1076 1079 
f 1078 1075 1080 
f 1075 1079 1080 
f 1076 1077 1081 
f 1077 1074 1081 
f 1079 1076 1081 
f 1081 1074 1082 
f 1078 1074 1083 
f 1074 1078 1084 
f 1080 1074 1084 
f 1078 1080 1084 
f 1074 1080 1085 
f 1080 1079 1085 
f 1079 1081 1085 
f 1081 1082 1085 
f 1082 1074 1085 
f 1074 1077 1086 
f 1077 1078 1086 
f 1083 1074 1086 
o convex_81
v -0.024558 0.018526 0.007159
v -0.018773 0.035882 0.020379
v -0.019600 0.035882 0.020379
v -0.023730 0.018526 0.019553
v -0.017120 0.030921 0.007159
v -0.024557 0.028442 0.017900
v -0.020426 0.034229 0.007159
v -0.017120 0.030921 0.017899
v -0.017120 0.034229 0.007159
v -0.024558 0.024312 0.008811
v -0.024557 0.026791 0.020379
v -0.023730 0.018526 0.007159
v -0.024557 0.018526 0.019553
f 1097 1096 1099 
f 1089 1088 1093 
f 1091 1087 1093 
f 1092 1089 1093 
f 1088 1090 1094 
f 1090 1091 1094 
f 1094 1091 1095 
f 1093 1088 1095 
f 1091 1093 1095 
f 1088 1094 1095 
f 1093 1087 1096 
f 1092 1093 1096 
f 1088 1089 1097 
f 1090 1088 1097 
f 1089 1092 1097 
f 1092 1096 1097 
f 1090 1087 1098 
f 1087 1091 1098 
f 1091 1090 1098 
f 1087 1090 1099 
f 1096 1087 1099 
f 1090 1097 1099 
