o convex_0
v -0.018390 0.005754 0.008283
v 0.024227 -0.015255 0.002885
v 0.024227 -0.017052 0.002885
v -0.009385 -0.012257 -0.036727
v -0.020794 -0.029063 0.009486
v 0.012219 0.008155 0.021492
v 0.008016 0.008155 -0.023511
v 0.017016 -0.029063 -0.018113
v 0.003813 -0.014050 0.032889
v 0.020624 -0.029063 0.010087
v -0.022593 -0.029063 -0.010897
v -0.016586 0.008155 -0.010904
v 0.015821 -0.011656 -0.032517
v -0.010584 -0.006257 0.031099
v 0.018820 0.008155 -0.003702
v -0.003983 0.008155 0.026897
v 0.017621 -0.006858 0.022687
v -0.023792 -0.014050 0.006486
v -0.018990 -0.011656 -0.026511
v -0.008780 -0.018254 -0.034923
v -0.006986 0.008155 -0.024120
v 0.023622 -0.029063 -0.007310
v -0.012388 -0.029063 0.014877
v 0.006816 -0.006858 0.033498
v 0.009815 -0.014050 -0.036727
v -0.014192 -0.029063 -0.019316
v -0.023192 -0.009860 -0.006702
v 0.023023 -0.010454 -0.008513
v -0.017186 -0.007459 0.023890
v -0.008186 -0.014050 0.031099
v -0.012988 0.008155 0.019688
v 0.013418 -0.029063 0.014884
v 0.020019 -0.000257 0.011891
v 0.008016 -0.009259 -0.036126
v -0.015991 -0.011656 -0.032517
v 0.012219 -0.010454 0.029897
v 0.018220 -0.009860 -0.027112
v -0.000984 0.007554 -0.026511
v -0.002783 -0.007459 0.034707
v 0.009815 -0.019456 -0.033119
v 0.013418 0.008155 -0.017512
v -0.014792 -0.016454 -0.033119
v -0.023792 -0.029063 0.002284
v -0.018390 0.008155 -0.004905
v -0.001584 -0.018254 0.029295
v 0.004413 0.008155 0.026897
v -0.021993 -0.005055 0.008884
v 0.015821 -0.015853 -0.031916
v 0.023622 -0.029063 0.004088
v 0.021224 -0.014651 0.014884
v -0.023792 -0.015248 -0.007897
v -0.008186 -0.009259 -0.036126
v 0.015817 0.008155 0.014891
v -0.013588 -0.011055 0.028092
v -0.021393 -0.017649 0.013688
v 0.011619 -0.003856 0.029295
v 0.022423 -0.004454 0.004088
v -0.012988 0.008155 -0.018106
v -0.017790 0.000344 0.017898
v 0.009215 -0.014050 0.030498
v 0.024227 -0.014654 -0.005499
v 0.014022 -0.029063 -0.019309
v 0.019420 -0.011656 -0.024707
v 0.021823 -0.008057 0.012492
f 57 33 64 
f 5 8 10 
f 8 5 11 
f 6 7 12 
f 7 6 15 
f 6 12 16 
f 12 7 21 
f 10 8 22 
f 5 10 23 
f 20 4 25 
f 8 11 26 
f 5 23 30 
f 16 12 31 
f 14 16 31 
f 29 14 31 
f 23 10 32 
f 7 13 34 
f 25 4 34 
f 13 25 34 
f 19 12 35 
f 21 7 38 
f 7 34 38 
f 16 14 39 
f 9 24 39 
f 30 9 39 
f 14 30 39 
f 20 25 40 
f 13 7 41 
f 7 15 41 
f 37 13 41 
f 15 37 41 
f 11 19 42 
f 4 20 42 
f 26 11 42 
f 20 26 42 
f 19 35 42 
f 35 4 42 
f 11 5 43 
f 12 19 44 
f 19 27 44 
f 1 31 44 
f 31 12 44 
f 9 30 45 
f 30 23 45 
f 32 9 45 
f 23 32 45 
f 6 16 46 
f 16 39 46 
f 39 24 46 
f 27 18 47 
f 18 29 47 
f 1 44 47 
f 44 27 47 
f 22 8 48 
f 25 13 48 
f 8 40 48 
f 40 25 48 
f 22 3 49 
f 10 22 49 
f 36 10 50 
f 17 36 50 
f 49 3 50 
f 10 49 50 
f 19 11 51 
f 18 27 51 
f 27 19 51 
f 11 43 51 
f 43 18 51 
f 34 4 52 
f 4 35 52 
f 35 21 52 
f 21 38 52 
f 38 34 52 
f 15 6 53 
f 6 17 53 
f 33 15 53 
f 17 33 53 
f 14 29 54 
f 30 14 54 
f 5 30 54 
f 29 18 55 
f 43 5 55 
f 18 43 55 
f 5 54 55 
f 54 29 55 
f 17 6 56 
f 36 17 56 
f 24 36 56 
f 6 46 56 
f 46 24 56 
f 28 15 57 
f 15 33 57 
f 12 21 58 
f 35 12 58 
f 21 35 58 
f 31 1 59 
f 29 31 59 
f 1 47 59 
f 47 29 59 
f 24 9 60 
f 9 32 60 
f 32 10 60 
f 10 36 60 
f 36 24 60 
f 2 3 61 
f 3 22 61 
f 57 2 61 
f 28 57 61 
f 8 26 62 
f 26 20 62 
f 40 8 62 
f 20 40 62 
f 15 28 63 
f 13 37 63 
f 37 15 63 
f 22 48 63 
f 48 13 63 
f 61 22 63 
f 28 61 63 
f 3 2 64 
f 33 17 64 
f 50 3 64 
f 17 50 64 
f 2 57 64 
o convex_1
v -0.012987 0.036365 0.022092
v 0.017624 0.026165 -0.001910
v 0.017624 0.025563 -0.001910
v -0.015990 0.042972 -0.014512
v -0.017193 0.025563 -0.006107
v 0.012818 0.042972 0.010686
v 0.004417 0.029166 0.030497
v 0.004417 0.042972 -0.022917
v -0.000385 0.025563 -0.022319
v -0.002184 0.042972 0.027496
v 0.016421 0.042972 -0.013914
v -0.005186 0.025563 0.023897
v 0.012218 0.036365 0.026898
v -0.008789 0.034567 0.032302
v 0.006817 0.025563 -0.019916
v 0.007417 0.036967 0.032900
v -0.009988 0.041171 0.025093
v 0.009216 0.027364 0.024495
v -0.003387 0.042972 -0.023521
v -0.006986 0.025563 -0.019916
v -0.017193 0.025563 -0.000105
v -0.016590 0.042972 -0.009712
v 0.006217 0.042370 0.026898
v 0.015821 0.025563 -0.009108
v -0.008789 0.029166 0.028094
v 0.016421 0.042972 -0.006711
v 0.005017 0.025563 0.023897
v -0.004587 0.037568 0.033498
v -0.011188 0.034567 0.029301
v -0.012987 0.042972 0.009484
v 0.010419 0.029765 0.026300
v 0.003214 0.035166 0.034107
v -0.004587 0.029166 0.030497
v 0.010419 0.040569 0.025093
v 0.003818 0.041171 0.030497
v 0.008616 0.034567 0.032302
v -0.010588 0.027364 0.021494
v -0.011188 0.025563 -0.015116
v -0.011188 0.036967 0.029301
v 0.011019 0.025563 -0.015714
v -0.005786 0.042370 -0.022319
v 0.013418 0.025563 0.010686
v -0.004587 0.041769 0.029301
v 0.007417 0.041769 -0.021118
v 0.003818 0.025563 -0.021715
v 0.002015 0.040569 -0.023521
v -0.007589 0.042972 0.023299
v -0.008789 0.025563 0.020292
v 0.012818 0.036967 0.023299
v -0.011788 0.039369 0.023897
v -0.005786 0.034567 0.033498
v 0.012218 0.035166 0.026898
v 0.007417 0.042972 0.023299
v 0.017624 0.025563 -0.004308
v -0.005186 0.025563 -0.021118
v -0.011188 0.029166 0.023299
v -0.002184 0.027966 0.029301
v 0.015821 0.041769 -0.014512
v -0.014790 0.042972 0.002292
v -0.015990 0.025563 -0.008510
v 0.009816 0.036967 0.031095
v -0.012388 0.034567 0.025702
v 0.008016 0.029166 0.028703
v -0.007589 0.038166 0.031704
f 92 107 128 
f 68 70 72 
f 67 69 73 
f 70 68 74 
f 72 70 75 
f 69 67 76 
f 67 66 77 
f 67 73 79 
f 68 72 83 
f 73 69 84 
f 69 76 85 
f 68 69 86 
f 74 68 86 
f 85 65 86 
f 69 85 86 
f 67 79 88 
f 66 75 90 
f 75 70 90 
f 76 67 91 
f 89 78 93 
f 74 86 94 
f 80 92 96 
f 89 76 97 
f 78 89 97 
f 71 96 97 
f 87 74 99 
f 92 80 99 
f 96 71 100 
f 80 96 100 
f 68 84 102 
f 84 69 102 
f 93 78 103 
f 88 79 104 
f 68 83 105 
f 84 68 105 
f 91 67 106 
f 82 91 106 
f 67 95 106 
f 95 82 106 
f 99 74 107 
f 92 99 107 
f 72 75 108 
f 108 79 109 
f 79 73 109 
f 72 108 109 
f 109 73 110 
f 83 72 110 
f 73 83 110 
f 72 109 110 
f 94 81 111 
f 74 94 111 
f 107 74 111 
f 81 107 111 
f 85 76 112 
f 76 89 112 
f 101 85 112 
f 89 101 112 
f 77 66 113 
f 66 90 113 
f 90 70 113 
f 70 98 113 
f 98 77 113 
f 81 94 114 
f 103 81 114 
f 65 103 114 
f 92 78 115 
f 96 92 115 
f 78 97 115 
f 97 96 115 
f 67 77 116 
f 95 67 116 
f 100 95 116 
f 70 74 117 
f 74 87 117 
f 98 70 117 
f 87 98 117 
f 66 67 118 
f 75 66 118 
f 67 88 118 
f 88 75 118 
f 83 73 119 
f 73 84 119 
f 105 83 119 
f 84 105 119 
f 89 93 120 
f 85 101 120 
f 101 89 120 
f 76 91 121 
f 91 71 121 
f 71 97 121 
f 97 76 121 
f 75 88 122 
f 104 79 122 
f 88 104 122 
f 108 75 122 
f 79 108 122 
f 86 65 123 
f 94 86 123 
f 65 114 123 
f 114 94 123 
f 69 68 124 
f 68 102 124 
f 102 69 124 
f 77 98 125 
f 98 87 125 
f 87 99 125 
f 99 80 125 
f 80 100 125 
f 116 77 125 
f 100 116 125 
f 65 85 126 
f 103 65 126 
f 93 103 126 
f 85 120 126 
f 120 93 126 
f 71 91 127 
f 91 82 127 
f 82 95 127 
f 95 100 127 
f 100 71 127 
f 78 92 128 
f 103 78 128 
f 81 103 128 
f 107 81 128 
o convex_2
v -0.011788 0.063978 -0.019312
v 0.017624 0.045978 -0.006108
v 0.017624 0.044777 -0.006108
v -0.001584 0.048379 0.029905
v -0.016590 0.042972 -0.013911
v 0.008016 0.070583 -0.001306
v 0.003818 0.062176 -0.028313
v -0.011788 0.066380 0.002288
v 0.003214 0.042972 -0.023516
v 0.006213 0.042972 0.023300
v -0.012388 0.042972 0.011288
v 0.011619 0.054379 0.015492
v -0.003384 0.071784 -0.015114
v 0.013422 0.065179 -0.012713
v 0.002015 0.068182 0.010090
v 0.016421 0.042972 -0.014510
v -0.005786 0.061580 -0.027115
v -0.012987 0.053181 0.012491
v -0.014191 0.064577 -0.006108
v 0.009219 0.066380 -0.021714
v 0.012822 0.065179 0.001084
v -0.005186 0.069383 0.006491
v -0.017193 0.045975 -0.004306
v -0.003384 0.042972 -0.023516
v -0.005786 0.042972 0.023893
v -0.002184 0.067583 -0.025318
v 0.006213 0.071185 -0.014510
v -0.003987 0.072386 -0.005504
v 0.002615 0.048975 0.028701
v 0.008016 0.067583 0.007090
v 0.011619 0.045975 0.016689
v -0.011188 0.054379 0.016090
v -0.009389 0.069383 -0.014510
v -0.006386 0.066981 0.009486
v 0.007417 0.058574 -0.025912
v 0.002615 0.071784 0.001090
v 0.011619 0.062778 -0.020510
v -0.000981 0.060379 -0.028923
v 0.012818 0.042972 0.010695
v -0.011188 0.046576 0.017294
v -0.017193 0.046576 -0.011504
v 0.013422 0.052580 0.011294
v 0.014021 0.064580 -0.003707
v -0.009389 0.069984 -0.003701
v -0.008789 0.059176 -0.024714
v 0.003818 0.068784 -0.022911
v 0.010419 0.069383 -0.011510
v 0.000815 0.045975 0.029905
v -0.008189 0.065778 -0.023516
v 0.003818 0.072386 -0.009108
v 0.017020 0.045978 -0.012713
v -0.013587 0.064577 -0.012713
v 0.000215 0.066981 0.011893
v -0.006986 0.042972 -0.021714
v -0.014191 0.062176 -0.001300
v 0.005617 0.066380 0.010695
v -0.017193 0.044172 -0.004306
v 0.000815 0.048975 0.029905
v 0.009816 0.062176 -0.023516
v 0.006817 0.042972 -0.021714
v 0.002615 0.057975 -0.028313
v -0.002184 0.070583 -0.019917
v 0.011619 0.068182 -0.002509
v 0.003818 0.065179 -0.027115
f 148 187 192 
f 133 137 138 
f 133 138 139 
f 138 137 144 
f 137 133 152 
f 139 138 153 
f 140 149 158 
f 157 138 159 
f 140 157 159 
f 136 146 160 
f 156 141 161 
f 150 136 162 
f 136 160 162 
f 160 132 162 
f 150 143 164 
f 156 150 164 
f 143 158 164 
f 158 134 164 
f 148 142 165 
f 152 145 166 
f 145 154 166 
f 144 131 167 
f 138 144 167 
f 131 159 167 
f 159 138 167 
f 153 132 168 
f 139 153 168 
f 160 146 168 
f 132 160 168 
f 129 133 169 
f 151 147 169 
f 131 130 170 
f 149 140 170 
f 159 131 170 
f 140 159 170 
f 130 142 171 
f 170 130 171 
f 149 170 171 
f 147 136 172 
f 136 150 172 
f 150 156 172 
f 161 147 172 
f 156 161 172 
f 133 129 173 
f 155 148 174 
f 142 148 175 
f 148 155 175 
f 132 153 176 
f 153 138 176 
f 138 157 176 
f 154 145 177 
f 129 161 177 
f 173 129 177 
f 145 173 177 
f 155 141 178 
f 141 156 178 
f 164 134 178 
f 156 164 178 
f 175 155 178 
f 134 175 178 
f 130 131 179 
f 142 130 179 
f 131 144 179 
f 165 142 179 
f 144 165 179 
f 161 129 180 
f 147 161 180 
f 129 169 180 
f 169 147 180 
f 143 150 181 
f 162 132 181 
f 150 162 181 
f 152 133 182 
f 145 152 182 
f 133 173 182 
f 173 145 182 
f 146 136 183 
f 136 147 183 
f 151 146 183 
f 147 151 183 
f 157 140 184 
f 158 143 184 
f 140 158 184 
f 133 139 185 
f 146 151 185 
f 139 168 185 
f 168 146 185 
f 169 133 185 
f 151 169 185 
f 132 176 186 
f 176 157 186 
f 143 181 186 
f 181 132 186 
f 157 184 186 
f 184 143 186 
f 163 135 187 
f 144 163 187 
f 165 144 187 
f 148 165 187 
f 144 137 188 
f 163 144 188 
f 163 188 189 
f 137 152 189 
f 135 163 189 
f 166 135 189 
f 152 166 189 
f 188 137 189 
f 141 155 190 
f 161 141 190 
f 174 154 190 
f 155 174 190 
f 154 177 190 
f 177 161 190 
f 134 158 191 
f 158 149 191 
f 171 142 191 
f 149 171 191 
f 142 175 191 
f 175 134 191 
f 135 166 192 
f 166 154 192 
f 174 148 192 
f 154 174 192 
f 187 135 192 
o convex_3
v -0.023194 -0.059676 -0.009112
v -0.000985 -0.057276 0.013692
v -0.000985 -0.058476 0.013692
v -0.021391 -0.060277 0.025698
v -0.024997 -0.051273 0.002895
v -0.007590 -0.051273 -0.017514
v -0.008791 -0.062678 -0.012711
v -0.007590 -0.051273 0.014891
v -0.005789 -0.061477 0.031702
v -0.023194 -0.062077 0.018495
v -0.018392 -0.051273 -0.018114
v -0.006990 -0.056077 0.031102
v -0.001587 -0.051275 -0.005508
v -0.002788 -0.060877 -0.007907
v -0.015388 -0.061477 -0.018114
v -0.017191 -0.051273 0.016096
v -0.003387 -0.056676 0.029302
v -0.004588 -0.062077 0.028103
v -0.021993 -0.062678 0.002295
v -0.016589 -0.057875 0.030502
v -0.005789 -0.060277 -0.015715
v -0.024997 -0.051875 -0.006713
v -0.024997 -0.060277 0.002295
v -0.012394 -0.059676 -0.019919
v -0.002186 -0.051275 0.005899
v -0.014789 -0.062077 0.028703
v -0.024395 -0.059676 0.018495
v -0.022592 -0.051273 0.010088
v -0.000985 -0.059677 0.000496
v -0.020792 -0.059075 -0.015115
v -0.015990 -0.062678 0.016691
v -0.002788 -0.057875 -0.010911
v -0.018392 -0.062077 -0.013316
v -0.023796 -0.051273 -0.010911
v -0.002788 -0.060277 0.028103
v -0.014789 -0.060277 0.031702
v -0.005188 -0.057875 0.032906
v -0.021391 -0.058476 0.025093
v -0.011193 -0.051273 -0.019314
v -0.017790 -0.059075 -0.018714
v -0.004588 -0.051273 -0.013916
v -0.005188 -0.062077 -0.009712
v -0.014192 -0.062678 -0.015115
v -0.023194 -0.061477 -0.004308
v -0.008791 -0.062077 -0.015715
v -0.015990 -0.051273 -0.019314
v -0.006990 -0.059075 -0.017514
v -0.002788 -0.057875 0.029902
v -0.021993 -0.051273 -0.014515
v -0.002186 -0.060877 0.010088
v -0.004588 -0.051273 0.011887
v -0.024395 -0.061477 0.017296
v -0.001587 -0.058476 -0.006707
v -0.020792 -0.060876 -0.013316
v -0.005789 -0.056077 0.031102
v -0.015388 -0.056678 0.029302
v -0.024997 -0.059676 -0.001309
f 236 215 249 
f 198 197 200 
f 197 198 203 
f 200 197 208 
f 197 214 215 
f 194 205 217 
f 196 202 218 
f 210 201 218 
f 197 215 219 
f 208 197 220 
f 212 208 220 
f 197 219 220 
f 194 195 221 
f 205 194 221 
f 199 210 223 
f 202 211 223 
f 211 199 223 
f 218 202 223 
f 210 218 223 
f 206 213 224 
f 197 203 226 
f 193 214 226 
f 214 197 226 
f 222 193 226 
f 201 210 227 
f 221 195 227 
f 212 196 228 
f 196 218 228 
f 218 201 228 
f 204 212 229 
f 228 201 229 
f 212 228 229 
f 196 212 230 
f 219 196 230 
f 212 220 230 
f 220 219 230 
f 203 198 231 
f 216 207 232 
f 198 200 233 
f 205 224 233 
f 224 213 233 
f 210 199 234 
f 213 206 234 
f 199 211 235 
f 225 207 235 
f 211 225 235 
f 225 211 236 
f 207 216 237 
f 234 199 237 
f 213 234 237 
f 199 235 237 
f 235 207 237 
f 203 231 238 
f 231 216 238 
f 232 203 238 
f 216 232 238 
f 231 198 239 
f 216 231 239 
f 198 233 239 
f 233 213 239 
f 237 216 239 
f 213 237 239 
f 195 194 240 
f 194 217 240 
f 217 209 240 
f 227 195 240 
f 201 227 240 
f 209 229 240 
f 229 201 240 
f 226 203 241 
f 222 226 241 
f 203 232 241 
f 232 222 241 
f 206 221 242 
f 227 210 242 
f 221 227 242 
f 210 234 242 
f 234 206 242 
f 217 205 243 
f 209 217 243 
f 233 200 243 
f 205 233 243 
f 202 196 244 
f 211 202 244 
f 196 219 244 
f 219 215 244 
f 215 236 244 
f 236 211 244 
f 205 221 245 
f 221 206 245 
f 224 205 245 
f 206 224 245 
f 193 222 246 
f 207 225 246 
f 232 207 246 
f 222 232 246 
f 236 193 246 
f 225 236 246 
f 200 208 247 
f 208 204 247 
f 204 229 247 
f 229 209 247 
f 243 200 247 
f 209 243 247 
f 204 208 248 
f 212 204 248 
f 208 212 248 
f 214 193 249 
f 215 214 249 
f 193 236 249 
o convex_4
v -0.024997 -0.044068 -0.004911
v -0.000385 -0.029063 0.005292
v -0.000385 -0.029667 0.005292
v -0.008191 -0.029063 -0.018717
v -0.002787 -0.051273 -0.010312
v -0.016589 -0.051273 0.016098
v -0.022592 -0.029063 0.006491
v -0.017791 -0.051273 -0.018717
v -0.020793 -0.029063 -0.014514
v -0.003987 -0.051273 0.010694
v -0.008790 -0.029063 0.014297
v -0.024997 -0.051273 0.002888
v -0.000385 -0.029063 -0.009109
v -0.007591 -0.051273 -0.017514
v -0.001587 -0.051273 0.001686
v -0.023792 -0.051273 -0.010915
v -0.017191 -0.029063 0.013095
v -0.023792 -0.029063 -0.006712
v -0.015389 -0.030865 -0.019316
v -0.020793 -0.050669 0.012495
v -0.009393 -0.051273 0.015495
v -0.003387 -0.029063 0.010694
v -0.015991 -0.037468 0.016098
v -0.012992 -0.045871 -0.019919
v -0.002787 -0.029667 -0.013911
v -0.023792 -0.029063 0.002888
v -0.020793 -0.039868 -0.016316
v -0.023195 -0.035668 -0.011514
v -0.001587 -0.051273 -0.005510
v -0.023792 -0.051273 0.007091
v -0.012392 -0.036870 0.016098
v -0.020793 -0.029063 0.009491
v -0.010593 -0.050669 -0.019316
v -0.024997 -0.051273 -0.006712
v -0.016589 -0.029667 -0.018717
v -0.005789 -0.051273 -0.015716
v -0.020793 -0.050071 -0.016316
v -0.006991 -0.029063 0.013694
v -0.008191 -0.051273 0.014896
v -0.002787 -0.051273 0.007690
v -0.024394 -0.033267 -0.000715
v -0.006991 -0.029667 -0.018117
v -0.010593 -0.029063 -0.019316
v -0.016589 -0.036870 -0.019316
v -0.014192 -0.029063 0.014297
v -0.001587 -0.029667 -0.012113
v -0.024394 -0.036268 -0.007311
f 290 267 296 
f 251 253 256 
f 254 255 257 
f 256 253 258 
f 255 254 259 
f 251 256 260 
f 257 255 261 
f 251 252 262 
f 253 251 262 
f 254 257 263 
f 259 254 264 
f 257 261 265 
f 260 256 266 
f 256 258 267 
f 255 259 270 
f 252 251 271 
f 259 252 271 
f 251 260 271 
f 269 255 272 
f 253 262 274 
f 256 267 275 
f 267 258 277 
f 258 276 277 
f 276 265 277 
f 262 252 278 
f 254 262 278 
f 252 264 278 
f 264 254 278 
f 261 255 279 
f 269 256 279 
f 255 269 279 
f 275 261 279 
f 256 275 279 
f 255 270 280 
f 272 255 280 
f 266 256 281 
f 256 269 281 
f 272 266 281 
f 269 272 281 
f 263 257 282 
f 273 253 282 
f 257 273 282 
f 261 250 283 
f 265 261 283 
f 277 265 283 
f 276 258 284 
f 254 263 285 
f 257 265 286 
f 265 276 286 
f 276 257 286 
f 271 260 287 
f 280 270 287 
f 260 280 287 
f 270 259 288 
f 259 271 288 
f 271 287 288 
f 287 270 288 
f 252 259 289 
f 264 252 289 
f 259 264 289 
f 250 261 290 
f 261 275 290 
f 275 267 290 
f 253 274 291 
f 282 253 291 
f 263 282 291 
f 285 263 291 
f 274 285 291 
f 258 253 292 
f 253 273 292 
f 273 268 292 
f 284 258 292 
f 268 284 292 
f 273 257 293 
f 268 273 293 
f 257 276 293 
f 284 268 293 
f 276 284 293 
f 260 266 294 
f 266 272 294 
f 280 260 294 
f 272 280 294 
f 262 254 295 
f 274 262 295 
f 254 285 295 
f 285 274 295 
f 267 277 296 
f 283 250 296 
f 277 283 296 
f 250 290 296 
o convex_5
v 0.003218 -0.059075 -0.012111
v 0.024827 -0.059076 0.008288
v 0.024827 -0.059676 0.008288
v 0.005020 -0.057875 0.032906
v 0.017621 -0.051275 -0.018714
v 0.014619 -0.062678 -0.015115
v 0.008621 -0.051275 0.015491
v 0.002017 -0.051275 -0.007912
v 0.023024 -0.051275 0.008893
v 0.005020 -0.062077 0.029302
v 0.021224 -0.061477 0.025093
v 0.024225 -0.053676 -0.009112
v 0.000816 -0.059676 0.001695
v 0.015820 -0.057275 0.030502
v 0.021823 -0.062678 0.001695
v 0.021823 -0.059676 -0.012711
v 0.005620 -0.062077 -0.010911
v 0.012220 -0.058476 -0.019919
v 0.002017 -0.051275 0.005294
v 0.008621 -0.051275 -0.018114
v 0.002618 -0.058476 0.029302
v 0.015820 -0.051275 0.016691
v 0.024827 -0.051275 -0.007307
v 0.005020 -0.056077 0.030502
v 0.024225 -0.058476 0.017296
v 0.015221 -0.060876 0.031102
v 0.018220 -0.059676 -0.018114
v 0.023626 -0.062078 0.017296
v 0.024827 -0.060277 -0.000109
v 0.006821 -0.060277 -0.016915
v 0.000816 -0.056077 0.010687
v 0.008621 -0.062678 -0.012711
v 0.019421 -0.062678 0.015491
v 0.021224 -0.058476 0.025093
v 0.024827 -0.051275 0.003495
v 0.021826 -0.051275 -0.014515
v 0.014619 -0.062077 0.028703
v 0.020023 -0.061477 -0.012711
v 0.003218 -0.061477 -0.005508
v 0.005020 -0.051275 -0.014515
v 0.002618 -0.060277 0.028103
v 0.011620 -0.061477 -0.018114
v 0.005620 -0.060876 0.032301
v 0.020622 -0.051275 0.013087
v 0.014020 -0.062678 0.014891
v 0.002017 -0.060876 0.010088
v 0.002017 -0.059676 -0.007912
v 0.000816 -0.059075 0.012487
v 0.003218 -0.051275 0.009488
v 0.003218 -0.057275 0.030502
v 0.011023 -0.051275 -0.019314
v 0.015221 -0.059075 -0.019919
v 0.001417 -0.051875 -0.001909
v 0.023626 -0.061478 -0.001904
v 0.008022 -0.056077 0.030502
v 0.024225 -0.060876 0.018495
f 321 330 352 
f 303 301 304 
f 301 303 305 
f 303 304 315 
f 304 301 316 
f 305 303 318 
f 298 299 319 
f 301 305 319 
f 318 303 320 
f 310 300 322 
f 307 310 322 
f 312 308 325 
f 319 299 325 
f 308 319 325 
f 313 297 326 
f 316 314 326 
f 302 311 328 
f 306 313 328 
f 313 326 328 
f 311 324 329 
f 328 311 329 
f 310 307 330 
f 321 305 330 
f 298 319 331 
f 319 305 331 
f 321 298 331 
f 305 321 331 
f 308 312 332 
f 301 319 332 
f 319 308 332 
f 323 301 332 
f 312 323 332 
f 307 322 333 
f 324 307 333 
f 306 329 333 
f 329 324 333 
f 311 302 334 
f 302 323 334 
f 323 312 334 
f 313 306 335 
f 297 304 336 
f 304 316 336 
f 326 297 336 
f 316 326 336 
f 323 302 338 
f 326 314 338 
f 302 328 338 
f 328 326 338 
f 300 317 339 
f 322 300 339 
f 306 333 339 
f 333 322 339 
f 337 306 339 
f 317 337 339 
f 305 318 340 
f 318 310 340 
f 330 305 340 
f 310 330 340 
f 306 328 341 
f 329 306 341 
f 328 329 341 
f 309 335 342 
f 335 306 342 
f 306 337 342 
f 304 297 343 
f 309 304 343 
f 297 313 343 
f 335 309 343 
f 313 335 343 
f 327 309 344 
f 317 327 344 
f 337 317 344 
f 309 342 344 
f 342 337 344 
f 303 315 345 
f 320 303 345 
f 320 345 346 
f 317 300 346 
f 300 320 346 
f 315 327 346 
f 327 317 346 
f 345 315 346 
f 316 301 347 
f 314 316 347 
f 301 323 348 
f 323 338 348 
f 338 314 348 
f 347 301 348 
f 314 347 348 
f 304 309 349 
f 315 304 349 
f 309 327 349 
f 327 315 349 
f 324 311 350 
f 312 325 350 
f 325 324 350 
f 311 334 350 
f 334 312 350 
f 300 310 351 
f 310 318 351 
f 320 300 351 
f 318 320 351 
f 299 298 352 
f 298 321 352 
f 307 324 352 
f 325 299 352 
f 324 325 352 
f 330 307 352 
o convex_6
v -0.000385 -0.030265 -0.004911
v 0.024827 -0.048869 0.003489
v 0.024827 -0.051273 0.003489
v 0.017021 -0.045871 -0.019313
v 0.023625 -0.029063 -0.007910
v 0.008021 -0.051273 0.014893
v 0.014620 -0.029063 0.014294
v 0.003218 -0.051273 -0.011512
v 0.008021 -0.029063 -0.018715
v -0.000385 -0.029063 0.004091
v 0.023026 -0.051273 -0.012712
v 0.017621 -0.051273 0.015495
v 0.022426 -0.029063 0.007091
v 0.002019 -0.051273 0.004690
v 0.009223 -0.051273 -0.018715
v 0.018823 -0.029063 -0.016912
v 0.004420 -0.029063 0.011893
v 0.003218 -0.029063 -0.014511
v 0.015819 -0.036870 0.016093
v 0.003820 -0.051273 0.010090
v 0.021224 -0.050071 0.011893
v 0.024827 -0.051273 -0.007308
v 0.014620 -0.037468 -0.019915
v 0.008623 -0.029063 0.014294
v 0.024225 -0.031467 -0.001313
v -0.000385 -0.029667 -0.007910
v 0.002019 -0.051273 -0.007312
v 0.021824 -0.036870 -0.014511
v 0.019422 -0.050669 -0.017514
v 0.014020 -0.051273 0.016695
v 0.020624 -0.029063 0.010090
v 0.012818 -0.047671 -0.019915
v 0.006821 -0.050071 -0.016912
v 0.014020 -0.029063 -0.019313
v 0.023625 -0.029063 0.004091
v 0.023625 -0.038670 -0.010910
v 0.024827 -0.041666 -0.005509
v 0.023026 -0.051273 0.008894
v 0.015819 -0.051273 -0.019313
v 0.012818 -0.036870 0.016093
v 0.018823 -0.039268 -0.018113
v 0.010419 -0.050669 0.016093
v 0.001417 -0.029667 0.007689
v 0.006821 -0.029667 -0.018113
v 0.022426 -0.029063 -0.011512
f 388 380 397 
f 355 358 360 
f 359 357 361 
f 359 361 362 
f 355 360 363 
f 358 355 364 
f 357 359 365 
f 360 358 366 
f 362 353 366 
f 363 360 367 
f 361 357 368 
f 359 362 369 
f 362 361 370 
f 366 358 372 
f 362 366 372 
f 358 369 372 
f 371 364 373 
f 354 355 374 
f 355 363 374 
f 369 358 376 
f 359 369 376 
f 371 359 376 
f 353 362 378 
f 370 360 378 
f 362 370 378 
f 366 353 379 
f 360 366 379 
f 353 378 379 
f 378 360 379 
f 380 363 381 
f 358 364 382 
f 364 371 382 
f 365 359 383 
f 359 371 383 
f 373 365 383 
f 371 373 383 
f 367 361 384 
f 375 356 384 
f 361 375 384 
f 367 360 385 
f 360 370 385 
f 361 368 386 
f 375 361 386 
f 357 365 387 
f 354 377 387 
f 377 357 387 
f 374 363 388 
f 363 380 388 
f 354 374 389 
f 377 354 389 
f 357 377 389 
f 388 357 389 
f 374 388 389 
f 355 354 390 
f 364 355 390 
f 373 364 390 
f 365 373 390 
f 354 387 390 
f 387 365 390 
f 363 367 391 
f 356 381 391 
f 381 363 391 
f 367 384 391 
f 384 356 391 
f 371 376 392 
f 382 371 392 
f 356 375 393 
f 368 380 393 
f 381 356 393 
f 380 381 393 
f 386 368 393 
f 375 386 393 
f 376 358 394 
f 358 382 394 
f 392 376 394 
f 382 392 394 
f 369 362 395 
f 362 372 395 
f 372 369 395 
f 361 367 396 
f 370 361 396 
f 367 385 396 
f 385 370 396 
f 368 357 397 
f 380 368 397 
f 357 388 397 
o convex_7
v -0.028001 0.012959 -0.015113
v -0.020795 0.018957 0.007691
v -0.020795 0.014755 0.007691
v -0.044806 0.012358 0.011894
v -0.035802 0.003953 0.011292
v -0.021396 0.024363 -0.007909
v -0.020795 0.009359 -0.008511
v -0.038803 0.005757 -0.001310
v -0.035802 0.015958 -0.008511
v -0.041201 0.015958 0.011894
v -0.020795 0.020159 -0.015712
v -0.028001 0.008756 0.011894
v -0.020795 0.023761 0.002290
v -0.020795 0.008756 0.000490
v -0.031602 0.005154 -0.003111
v -0.040601 0.009958 -0.003111
v -0.044205 0.007555 0.011894
v -0.030403 0.020759 -0.007310
v -0.032201 0.009359 -0.011513
v -0.020795 0.012358 -0.014511
v -0.028001 0.018957 -0.013912
v -0.029202 0.014755 0.011894
v -0.033400 0.013561 -0.012711
v -0.031602 0.004554 0.008892
v -0.040000 0.004554 0.005891
v -0.043605 0.014158 0.010091
v -0.028001 0.008156 -0.010312
v -0.021996 0.024363 -0.003710
v -0.031000 0.004554 0.001089
v -0.042402 0.008156 0.001688
v -0.041201 0.012959 -0.000711
v -0.031602 0.005154 0.011894
v -0.020795 0.010558 0.004690
v -0.035200 0.007555 -0.007909
v -0.024400 0.017157 -0.016314
v -0.020795 0.022559 0.004690
v -0.036401 0.003953 0.003489
v -0.021996 0.023162 -0.011513
v -0.033400 0.015958 0.011894
v -0.034601 0.018357 -0.005510
v -0.040000 0.004554 0.011894
v -0.038803 0.008756 -0.005510
v -0.020795 0.015357 -0.016314
v -0.037602 0.012959 -0.007909
v -0.034601 0.005757 -0.004911
v -0.021396 0.024363 -0.000112
v -0.033999 0.011759 -0.012112
v -0.032800 0.017157 -0.011513
v -0.043605 0.011759 0.005292
f 423 428 446 
f 399 400 404 
f 399 404 408 
f 400 399 409 
f 407 401 409 
f 399 408 410 
f 408 403 410 
f 404 400 411 
f 409 401 414 
f 408 404 417 
f 409 399 419 
f 407 409 419 
f 401 407 423 
f 404 412 424 
f 416 398 424 
f 417 404 424 
f 398 417 424 
f 403 415 425 
f 415 407 425 
f 404 411 426 
f 412 404 426 
f 421 402 426 
f 411 421 426 
f 405 422 427 
f 422 414 427 
f 409 414 429 
f 402 421 429 
f 421 411 429 
f 400 409 430 
f 411 400 430 
f 409 429 430 
f 429 411 430 
f 416 424 431 
f 418 408 432 
f 398 420 432 
f 420 418 432 
f 399 410 433 
f 410 407 433 
f 422 405 434 
f 412 426 434 
f 426 402 434 
f 403 408 435 
f 415 403 435 
f 408 418 435 
f 418 415 435 
f 419 399 436 
f 407 419 436 
f 399 433 436 
f 433 407 436 
f 407 415 437 
f 423 407 437 
f 406 428 437 
f 428 423 437 
f 414 422 438 
f 402 429 438 
f 429 414 438 
f 422 434 438 
f 434 402 438 
f 405 427 439 
f 427 413 439 
f 431 405 439 
f 408 417 440 
f 417 398 440 
f 432 408 440 
f 398 432 440 
f 406 420 441 
f 428 406 441 
f 413 428 441 
f 439 413 441 
f 424 412 442 
f 405 431 442 
f 431 424 442 
f 434 405 442 
f 412 434 442 
f 407 410 443 
f 410 403 443 
f 425 407 443 
f 403 425 443 
f 398 416 444 
f 420 398 444 
f 416 431 444 
f 431 439 444 
f 441 420 444 
f 439 441 444 
f 415 418 445 
f 420 406 445 
f 418 420 445 
f 437 415 445 
f 406 437 445 
f 414 401 446 
f 401 423 446 
f 413 427 446 
f 427 414 446 
f 428 413 446 
o convex_8
v -0.038801 0.004553 0.015499
v -0.037600 0.018360 0.025103
v -0.035805 0.017758 0.025103
v -0.032202 0.015358 0.011896
v -0.044804 0.012955 0.011896
v -0.046004 0.010557 0.025103
v -0.033402 0.009358 0.025103
v -0.028000 0.009358 0.011896
v -0.042403 0.005755 0.011896
v -0.043604 0.017758 0.022701
v -0.041203 0.006955 0.025103
v -0.033402 0.004553 0.012497
v -0.040001 0.016557 0.012497
v -0.046605 0.014757 0.025103
v -0.032803 0.014157 0.025103
v -0.028601 0.012955 0.012497
v -0.045403 0.009958 0.013698
v -0.036404 0.006955 0.024502
v -0.031002 0.005755 0.011896
v -0.044203 0.007555 0.020900
v -0.043604 0.014757 0.011896
v -0.039402 0.018360 0.022101
f 459 456 468 
f 448 449 450 
f 449 448 452 
f 449 452 453 
f 451 450 454 
f 451 454 455 
f 453 452 457 
f 447 455 458 
f 452 448 460 
f 448 456 460 
f 449 453 461 
f 453 454 461 
f 461 454 462 
f 450 449 462 
f 454 450 462 
f 449 461 462 
f 451 455 463 
f 452 460 463 
f 460 451 463 
f 453 457 464 
f 457 447 464 
f 447 458 464 
f 464 458 465 
f 454 453 465 
f 455 454 465 
f 458 455 465 
f 453 464 465 
f 455 447 466 
f 457 452 466 
f 447 457 466 
f 463 455 466 
f 452 463 466 
f 450 451 467 
f 459 450 467 
f 456 459 467 
f 451 460 467 
f 460 456 467 
f 448 450 468 
f 456 448 468 
f 450 459 468 
o convex_9
v 0.033832 0.016557 0.025703
v 0.047638 0.014157 0.040108
v 0.047037 0.012359 0.040709
v 0.035633 0.014157 0.045512
v 0.036836 0.007556 0.025703
v 0.044035 0.017758 0.025703
v 0.029629 0.010557 0.038309
v 0.035633 0.017758 0.038309
v 0.044632 0.009357 0.025703
v 0.042834 0.017158 0.041309
v 0.032034 0.012358 0.025703
v 0.029629 0.012959 0.038309
v 0.039231 0.018959 0.026905
v 0.037435 0.012359 0.044909
v 0.041033 0.007556 0.026905
v 0.046436 0.014758 0.025703
v 0.047037 0.016557 0.034107
v 0.042834 0.015357 0.044308
v 0.042233 0.018360 0.036507
v 0.030832 0.009957 0.038309
v 0.030232 0.014157 0.032307
v 0.035633 0.015958 0.043711
v 0.030232 0.011158 0.031706
v 0.036236 0.018359 0.025703
v 0.047638 0.013559 0.036507
v 0.035036 0.008156 0.025703
f 491 479 494 
f 473 469 474 
f 473 474 477 
f 469 473 479 
f 475 472 480 
f 472 475 482 
f 477 471 483 
f 473 477 483 
f 471 482 483 
f 477 474 484 
f 478 470 485 
f 484 474 485 
f 471 470 486 
f 470 478 486 
f 482 471 486 
f 472 482 486 
f 476 478 487 
f 474 481 487 
f 481 476 487 
f 478 485 487 
f 485 474 487 
f 482 475 488 
f 483 482 488 
f 473 483 488 
f 469 479 489 
f 480 476 489 
f 478 476 490 
f 480 472 490 
f 476 480 490 
f 486 478 490 
f 472 486 490 
f 475 480 491 
f 489 479 491 
f 480 489 491 
f 474 469 492 
f 481 474 492 
f 476 481 492 
f 469 489 492 
f 489 476 492 
f 470 471 493 
f 471 477 493 
f 477 484 493 
f 485 470 493 
f 484 485 493 
f 479 473 494 
f 473 488 494 
f 488 475 494 
f 475 491 494 
o convex_10
v -0.017791 0.025563 -0.007913
v 0.022426 0.018359 0.007692
v 0.022426 0.012357 0.007692
v -0.009389 0.014160 0.024499
v -0.003986 0.008155 -0.025321
v 0.022426 0.021959 -0.013310
v 0.003815 0.025563 0.023302
v -0.020795 0.008757 -0.000105
v 0.008617 0.008155 0.024499
v 0.001412 0.025563 -0.022320
v 0.022426 0.008155 -0.006109
v -0.020795 0.018359 -0.016316
v -0.020795 0.021961 0.005893
v 0.018821 0.025563 -0.001308
v -0.012388 0.008155 0.020300
v 0.007415 0.008155 -0.023517
v -0.006986 0.025563 0.021498
v 0.022426 0.015360 -0.016316
v -0.020795 0.011158 -0.012713
v 0.012818 0.014760 0.022099
v -0.004587 0.008155 0.026303
v -0.005188 0.025563 -0.021117
v 0.022426 0.023161 0.002290
v -0.020795 0.015360 0.007692
v -0.020795 0.023762 -0.010914
v -0.011788 0.008155 -0.019318
v 0.014020 0.008155 0.019097
v -0.020795 0.024362 0.001087
v 0.008617 0.014160 0.025101
v -0.012388 0.015360 0.021498
v -0.001583 0.025563 0.023898
v 0.003815 0.008757 -0.025321
v 0.022426 0.018359 -0.016316
v 0.009218 0.025563 0.017895
v 0.017620 0.025563 -0.008509
v 0.022426 0.011159 -0.013310
v 0.022426 0.008155 0.001087
v 0.003815 0.025563 -0.021718
v -0.018992 0.008155 -0.004310
v -0.020795 0.015360 -0.016316
v 0.005017 0.008757 0.026303
v 0.022426 0.023760 -0.008509
v -0.018392 0.025563 -0.000105
v -0.014787 0.008155 0.016096
v -0.020795 0.022561 -0.013315
v 0.011617 0.017159 0.022099
v -0.020795 0.008757 -0.006109
v -0.020795 0.020758 0.007091
v 0.022426 0.019558 0.007091
v -0.020795 0.010558 0.004089
v -0.012989 0.012357 0.020896
v -0.003986 0.008757 -0.025321
v -0.007587 0.008155 -0.023517
v 0.006815 0.025563 -0.019914
v 0.009814 0.008155 -0.021718
v -0.008187 0.008155 0.024499
f 545 509 550 
f 496 497 500 
f 495 501 504 
f 500 497 505 
f 503 499 505 
f 506 502 507 
f 504 501 508 
f 499 503 509 
f 505 499 510 
f 501 495 511 
f 500 505 512 
f 502 506 513 
f 497 496 514 
f 509 503 515 
f 495 504 516 
f 496 500 517 
f 507 502 518 
f 506 507 519 
f 495 516 519 
f 499 509 520 
f 503 505 521 
f 497 514 521 
f 514 503 521 
f 507 511 522 
f 495 519 522 
f 519 507 522 
f 503 514 523 
f 498 511 524 
f 501 511 525 
f 511 498 525 
f 498 515 525 
f 523 501 525 
f 510 499 526 
f 512 510 526 
f 512 526 527 
f 500 512 527 
f 508 501 528 
f 517 508 528 
f 504 508 529 
f 512 505 530 
f 505 497 531 
f 497 521 531 
f 521 505 531 
f 526 504 532 
f 527 526 532 
f 504 529 532 
f 520 509 533 
f 513 506 534 
f 520 513 534 
f 515 503 535 
f 503 523 535 
f 525 515 535 
f 523 525 535 
f 517 500 536 
f 508 517 536 
f 529 508 536 
f 511 495 537 
f 495 522 537 
f 522 511 537 
f 502 533 538 
f 533 509 538 
f 516 506 539 
f 506 519 539 
f 519 516 539 
f 501 523 540 
f 523 514 540 
f 528 501 540 
f 502 513 541 
f 513 520 541 
f 533 502 541 
f 520 533 541 
f 511 507 542 
f 507 518 542 
f 524 511 542 
f 514 496 543 
f 496 517 543 
f 517 528 543 
f 540 514 543 
f 528 540 543 
f 518 502 544 
f 502 538 544 
f 538 518 544 
f 498 524 545 
f 518 538 545 
f 538 509 545 
f 542 518 545 
f 524 542 545 
f 516 504 546 
f 506 516 546 
f 526 499 546 
f 504 526 546 
f 499 520 547 
f 534 506 547 
f 520 534 547 
f 546 499 547 
f 506 546 547 
f 500 527 548 
f 527 532 548 
f 532 529 548 
f 536 500 548 
f 529 536 548 
f 505 510 549 
f 510 512 549 
f 530 505 549 
f 512 530 549 
f 515 498 550 
f 509 515 550 
f 498 545 550 
o convex_11
v 0.022430 0.012960 -0.015117
v 0.044632 0.012960 0.013097
v 0.044632 0.008756 0.013097
v 0.022430 0.012960 0.008292
v 0.023030 0.023762 -0.001311
v 0.033231 0.015958 -0.011512
v 0.033831 0.004554 -0.001311
v 0.031431 0.005155 0.012495
v 0.033231 0.015958 0.013097
v 0.023030 0.007556 -0.004311
v 0.038031 0.008756 -0.006110
v 0.024830 0.022560 -0.009709
v 0.042832 0.015355 0.013097
v 0.022430 0.020761 0.005890
v 0.039833 0.004554 0.006489
v 0.022430 0.019559 -0.015715
v 0.030232 0.009956 -0.012712
v 0.037431 0.015355 -0.005509
v 0.042232 0.008756 0.001689
v 0.028432 0.012361 0.013097
v 0.022430 0.008756 0.004091
v 0.030832 0.020160 -0.007910
v 0.039233 0.004554 0.013097
v 0.032631 0.003953 0.006489
v 0.027230 0.014756 -0.015715
v 0.022430 0.009357 -0.010311
v 0.039833 0.016559 0.013097
v 0.028432 0.008157 0.013097
v 0.038031 0.006356 -0.003110
v 0.039233 0.012361 -0.004910
v 0.032631 0.011760 -0.012712
v 0.028432 0.018959 -0.013311
v 0.022430 0.023161 0.001689
v 0.030232 0.005754 -0.004910
v 0.023030 0.023762 -0.006712
v 0.043432 0.011760 0.005890
v 0.034431 0.006356 -0.006110
v 0.022430 0.018358 0.007690
v 0.030232 0.004554 0.004091
v 0.041633 0.006356 0.004091
v 0.034431 0.017759 -0.007311
v 0.042232 0.005754 0.013097
v 0.026630 0.008756 -0.010910
v 0.023030 0.007556 0.000489
v 0.022430 0.021360 -0.013916
v 0.030232 0.020761 -0.005509
f 562 585 596 
f 553 552 559 
f 559 552 563 
f 551 554 564 
f 551 564 566 
f 563 552 568 
f 553 559 570 
f 554 551 571 
f 553 570 573 
f 557 565 574 
f 573 558 574 
f 565 573 574 
f 551 566 575 
f 567 551 575 
f 571 551 576 
f 560 571 576 
f 559 563 577 
f 563 555 577 
f 564 559 577 
f 570 554 578 
f 554 571 578 
f 571 558 578 
f 558 573 578 
f 573 570 578 
f 565 557 579 
f 561 569 579 
f 556 568 580 
f 569 561 580 
f 561 567 581 
f 575 556 581 
f 567 575 581 
f 556 580 581 
f 580 561 581 
f 562 572 582 
f 575 566 582 
f 556 575 582 
f 566 564 583 
f 577 555 583 
f 564 577 583 
f 560 576 584 
f 583 555 585 
f 552 553 586 
f 568 552 586 
f 553 569 586 
f 580 568 586 
f 569 580 586 
f 567 561 587 
f 579 557 587 
f 561 579 587 
f 557 584 587 
f 564 554 588 
f 559 564 588 
f 554 570 588 
f 570 559 588 
f 557 574 589 
f 574 558 589 
f 584 557 589 
f 560 584 589 
f 569 553 590 
f 565 579 590 
f 579 569 590 
f 568 556 591 
f 563 568 591 
f 572 563 591 
f 582 572 591 
f 556 582 591 
f 573 565 592 
f 553 573 592 
f 590 553 592 
f 565 590 592 
f 551 567 593 
f 576 551 593 
f 584 576 593 
f 567 587 593 
f 587 584 593 
f 558 571 594 
f 571 560 594 
f 589 558 594 
f 560 589 594 
f 562 582 595 
f 582 566 595 
f 566 583 595 
f 585 562 595 
f 583 585 595 
f 555 563 596 
f 572 562 596 
f 563 572 596 
f 585 555 596 
o convex_12
v -0.046606 0.015958 0.026305
v -0.029801 0.011759 0.038308
v -0.030404 0.012958 0.039509
v -0.047203 0.012359 0.040708
v -0.040601 0.006956 0.025105
v -0.037006 0.018358 0.025105
v -0.043001 0.017758 0.039509
v -0.032804 0.011758 0.025105
v -0.036405 0.012958 0.045512
v -0.036405 0.017758 0.038910
v -0.045404 0.009957 0.025105
v -0.031005 0.009956 0.038308
v -0.031604 0.014756 0.028705
v -0.035805 0.007556 0.025105
v -0.042402 0.018358 0.025105
v -0.047806 0.015357 0.038308
v -0.043001 0.015357 0.044310
v -0.035805 0.015357 0.044909
v -0.029801 0.011159 0.034708
v -0.043001 0.018360 0.035909
v -0.036405 0.018358 0.034708
v -0.046606 0.012956 0.025105
v -0.046003 0.017158 0.028705
v -0.038206 0.012359 0.044310
v -0.040601 0.006956 0.025706
v -0.043602 0.008157 0.025706
v -0.047806 0.012958 0.037110
f 597 618 623 
f 601 602 604 
f 598 599 605 
f 602 601 607 
f 598 605 608 
f 599 598 609 
f 604 602 609 
f 601 604 610 
f 602 607 611 
f 600 605 613 
f 612 600 613 
f 603 612 613 
f 605 599 614 
f 606 603 614 
f 599 606 614 
f 613 605 614 
f 603 613 614 
f 598 608 615 
f 609 598 615 
f 604 609 615 
f 610 604 615 
f 608 610 615 
f 603 606 616 
f 602 611 616 
f 612 603 616 
f 606 599 617 
f 599 609 617 
f 609 602 617 
f 616 606 617 
f 602 616 617 
f 597 611 618 
f 611 607 618 
f 611 597 619 
f 597 612 619 
f 616 611 619 
f 612 616 619 
f 605 600 620 
f 608 605 620 
f 608 620 621 
f 601 610 621 
f 610 608 621 
f 620 600 621 
f 600 607 622 
f 607 601 622 
f 621 600 622 
f 601 621 622 
f 607 600 623 
f 600 612 623 
f 612 597 623 
f 618 607 623 
o convex_13
v 0.037433 0.005155 0.018500
v 0.042235 0.018360 0.025703
v 0.044036 0.017758 0.025703
v 0.040432 0.016557 0.013097
v 0.028429 0.010557 0.013698
v 0.043433 0.006955 0.013097
v 0.032631 0.015358 0.025703
v 0.044036 0.008756 0.025703
v 0.034432 0.008156 0.025703
v 0.032031 0.005155 0.013097
v 0.033834 0.015958 0.013097
v 0.045236 0.012955 0.015498
v 0.036833 0.018360 0.024502
v 0.045837 0.011157 0.025703
v 0.039231 0.004553 0.013097
v 0.031431 0.014757 0.013097
v 0.040432 0.006955 0.025102
v 0.044036 0.014157 0.013097
v 0.029030 0.008156 0.014298
v 0.045837 0.015958 0.024502
v 0.032631 0.011157 0.025703
v 0.041635 0.005755 0.017901
v 0.045236 0.009958 0.014900
f 635 643 646 
f 625 626 627 
f 626 625 630 
f 626 630 631 
f 631 630 632 
f 627 629 633 
f 624 632 633 
f 627 633 634 
f 625 627 636 
f 630 625 636 
f 627 634 636 
f 631 629 637 
f 626 631 637 
f 624 633 638 
f 633 629 638 
f 628 630 639 
f 633 628 639 
f 634 633 639 
f 630 636 639 
f 636 634 639 
f 631 632 640 
f 632 624 640 
f 627 626 641 
f 629 627 641 
f 628 633 642 
f 633 632 642 
f 626 637 643 
f 641 626 643 
f 635 641 643 
f 630 628 644 
f 632 630 644 
f 628 642 644 
f 642 632 644 
f 629 631 645 
f 624 638 645 
f 638 629 645 
f 631 640 645 
f 640 624 645 
f 637 629 646 
f 629 641 646 
f 641 635 646 
f 643 637 646 
