o convex_0
v -0.012325 -0.061586 -0.034559
v -0.016066 -0.044288 -0.031755
v -0.016066 -0.044756 -0.031288
v -0.026817 -0.052238 -0.031288
v -0.007650 -0.053173 -0.030819
v -0.015597 -0.047094 -0.034559
v -0.007650 -0.062522 -0.034091
v -0.026817 -0.047094 -0.030819
v -0.017464 -0.050837 -0.035026
v -0.007650 -0.057376 -0.034559
v -0.025879 -0.053173 -0.030819
v -0.007650 -0.050369 -0.030819
v -0.019335 -0.058781 -0.033156
v -0.017931 -0.047094 -0.034559
f 9 4 14 
f 3 2 8 
f 5 7 10 
f 7 1 10 
f 9 6 10 
f 1 9 10 
f 7 5 11 
f 8 4 11 
f 5 8 11 
f 2 3 12 
f 6 2 12 
f 3 8 12 
f 8 5 12 
f 5 10 12 
f 10 6 12 
f 1 7 13 
f 9 1 13 
f 4 9 13 
f 11 4 13 
f 7 11 13 
f 2 6 14 
f 8 2 14 
f 4 8 14 
f 6 9 14 
o convex_1
v -0.001103 -0.047091 -0.030818
v 0.033026 -0.040550 -0.023340
v 0.033026 -0.041018 -0.023340
v -0.036167 -0.040550 -0.023340
v -0.026814 -0.052236 -0.030349
v -0.031487 -0.041019 -0.027545
v 0.023666 -0.052236 -0.030818
v 0.028813 -0.040550 -0.027078
v 0.024140 -0.046160 -0.030818
v -0.027281 -0.046160 -0.030817
v -0.035226 -0.041954 -0.023808
v 0.026002 -0.049429 -0.028480
v -0.027281 -0.051765 -0.030817
v -0.032889 -0.040550 -0.026613
v 0.026002 -0.043823 -0.029415
v 0.023666 -0.052236 -0.030350
f 17 26 30 
f 17 16 18 
f 16 17 22 
f 18 16 22 
f 21 15 23 
f 23 15 24 
f 17 18 25 
f 25 19 26 
f 17 25 26 
f 15 21 27 
f 21 19 27 
f 24 15 27 
f 25 18 27 
f 19 25 27 
f 18 22 28 
f 22 20 28 
f 20 24 28 
f 27 18 28 
f 24 27 28 
f 17 21 29 
f 22 17 29 
f 20 22 29 
f 21 23 29 
f 24 20 29 
f 23 24 29 
f 21 17 30 
f 19 21 30 
f 26 19 30 
o convex_2
v -0.000170 -0.029796 -0.014458
v -0.018401 -0.040548 -0.024739
v -0.018401 -0.040548 -0.022868
v 0.014325 -0.040548 -0.024739
v 0.014325 -0.030266 -0.010248
v -0.018401 -0.030266 -0.010248
v -0.018401 -0.029796 -0.013992
v 0.014325 -0.035405 -0.020532
v 0.014325 -0.040548 -0.022868
v -0.018401 -0.039143 -0.024271
v 0.014325 -0.029796 -0.013992
v -0.018401 -0.035405 -0.020532
v 0.014325 -0.029796 -0.010248
v 0.014325 -0.039143 -0.024271
f 40 38 44 
f 33 32 34 
f 33 35 36 
f 32 33 36 
f 32 36 37 
f 35 34 38 
f 33 34 39 
f 34 35 39 
f 35 33 39 
f 34 32 40 
f 32 37 40 
f 31 37 41 
f 38 31 41 
f 35 38 41 
f 37 31 42 
f 31 38 42 
f 40 37 42 
f 38 40 42 
f 36 35 43 
f 37 36 43 
f 41 37 43 
f 35 41 43 
f 38 34 44 
f 34 40 44 
o convex_3
v -0.013723 -0.003148 -0.027078
v -0.000635 0.004801 -0.026611
v -0.000635 -0.002678 -0.021938
v -0.020735 0.004801 -0.021938
v -0.001105 -0.009224 -0.022405
v -0.000635 -0.005015 -0.028014
v -0.014192 0.004801 -0.028014
v -0.013257 -0.005950 -0.022405
v -0.020735 0.001528 -0.026611
v -0.008117 -0.008288 -0.026611
v -0.014660 0.004801 -0.021938
v -0.000635 0.004333 -0.028014
v -0.001105 -0.009224 -0.026611
v -0.021674 0.004801 -0.026611
v -0.020735 0.001528 -0.022405
v -0.016993 -0.003148 -0.026611
v -0.012322 -0.005482 -0.021938
f 59 52 61 
f 47 49 50 
f 46 47 50 
f 50 45 51 
f 48 46 51 
f 45 50 54 
f 49 52 54 
f 47 46 55 
f 48 47 55 
f 46 48 55 
f 46 50 56 
f 50 51 56 
f 51 46 56 
f 50 49 57 
f 49 54 57 
f 54 50 57 
f 48 51 58 
f 51 53 58 
f 58 53 59 
f 48 58 59 
f 52 59 60 
f 51 45 60 
f 53 51 60 
f 54 52 60 
f 45 54 60 
f 59 53 60 
f 47 48 61 
f 49 47 61 
f 52 49 61 
f 48 59 61 
o convex_4
v 0.040508 -0.019041 -0.004171
v 0.047987 -0.018108 0.011725
v 0.045649 -0.015770 0.011725
v 0.040976 -0.021847 0.011725
v 0.046116 -0.021847 -0.002300
v 0.037234 -0.021847 -0.003235
v 0.040508 -0.018108 0.010790
v 0.047987 -0.021847 0.011725
v 0.043310 -0.017172 -0.000897
v 0.040976 -0.017640 -0.000897
v 0.043310 -0.015770 0.011725
v 0.046584 -0.019977 -0.000430
v 0.045179 -0.021380 -0.004171
f 73 66 74 
f 63 64 65 
f 66 65 67 
f 67 65 68 
f 63 65 69 
f 65 66 69 
f 62 67 71 
f 67 68 71 
f 70 62 71 
f 70 71 72 
f 65 64 72 
f 68 65 72 
f 64 70 72 
f 71 68 72 
f 64 63 73 
f 63 69 73 
f 69 66 73 
f 70 64 73 
f 70 73 74 
f 67 62 74 
f 66 67 74 
f 62 70 74 
o convex_5
v -0.023544 0.033320 -0.009313
v -0.017466 0.045476 0.001907
v -0.017466 0.044540 0.001907
v -0.030089 0.033788 0.001907
v -0.024011 0.043136 -0.001833
v -0.017466 0.033320 -0.012585
v -0.026349 0.037530 -0.006041
v -0.017936 0.040331 -0.007909
v -0.027282 0.041266 0.001907
v -0.028686 0.033320 0.001439
v -0.017936 0.033788 -0.013989
v -0.024011 0.040331 -0.006041
v -0.029154 0.036595 -0.002302
v -0.017466 0.042201 -0.005574
f 86 79 88 
f 77 76 78 
f 76 77 80 
f 78 76 83 
f 76 79 83 
f 77 78 84 
f 78 75 84 
f 80 77 84 
f 75 80 84 
f 80 75 85 
f 75 81 85 
f 82 85 86 
f 81 79 86 
f 85 81 86 
f 75 78 87 
f 81 75 87 
f 79 81 87 
f 78 83 87 
f 83 79 87 
f 79 76 88 
f 76 80 88 
f 80 85 88 
f 85 82 88 
f 82 86 88 
o convex_6
v -0.030556 0.033320 0.002842
v -0.017466 0.047346 0.011725
v -0.017466 0.047346 0.010322
v -0.029152 0.038931 0.003310
v -0.031959 0.033788 0.011725
v -0.017466 0.045008 0.001907
v -0.030556 0.033320 0.010322
v -0.025879 0.041735 0.011725
v -0.029152 0.033320 0.001907
v -0.017466 0.046409 0.011725
v -0.026349 0.040800 0.001907
v -0.019806 0.045943 0.006584
f 94 99 100 
f 92 89 93 
f 91 90 94 
f 93 89 95 
f 92 93 96 
f 93 90 96 
f 95 89 97 
f 95 97 98 
f 90 93 98 
f 94 90 98 
f 93 95 98 
f 97 94 98 
f 89 92 99 
f 97 89 99 
f 94 97 99 
f 90 91 100 
f 91 94 100 
f 96 90 100 
f 92 96 100 
f 99 92 100 
o convex_7
v 0.014794 0.039865 -0.008376
v 0.025078 0.034255 -0.001833
v 0.025078 0.033320 -0.001833
v 0.014325 0.042670 -0.001833
v 0.014325 0.033320 -0.012585
v 0.019001 0.033788 -0.010716
v 0.020870 0.039396 -0.002301
v 0.024142 0.033320 -0.001833
v 0.015261 0.043606 -0.001833
f 102 107 109 
f 103 102 104 
f 104 101 105 
f 103 105 106 
f 102 103 106 
f 105 101 106 
f 106 101 107 
f 102 106 107 
f 103 104 108 
f 104 105 108 
f 105 103 108 
f 104 102 109 
f 101 104 109 
f 107 101 109 
o convex_8
v 0.027415 0.033320 0.002842
v 0.014793 0.047346 0.011725
v 0.014793 0.047346 0.010789
v 0.014325 0.043138 -0.000897
v 0.027882 0.033320 0.011725
v 0.021339 0.042203 0.005180
v 0.026012 0.037996 0.011725
v 0.024611 0.033320 -0.001833
v 0.018533 0.041735 -0.001833
v 0.014325 0.046409 0.011725
v 0.014793 0.045943 0.002375
v 0.024142 0.037528 0.000973
v 0.020406 0.043605 0.011725
f 111 116 122 
f 114 110 116 
f 111 114 116 
f 110 114 117 
f 114 113 117 
f 117 113 118 
f 111 112 119 
f 113 114 119 
f 114 111 119 
f 112 115 120 
f 118 113 120 
f 115 118 120 
f 119 112 120 
f 113 119 120 
f 116 110 121 
f 115 116 121 
f 110 117 121 
f 118 115 121 
f 117 118 121 
f 112 111 122 
f 115 112 122 
f 116 115 122 
o convex_9
v 0.003572 -0.062522 0.057542
v 0.016660 -0.045691 0.057542
v 0.016660 -0.046627 0.058009
v 0.023676 -0.052236 0.054269
v 0.003572 -0.050366 0.054269
v 0.015726 -0.058780 0.057074
v 0.011054 -0.048964 0.058945
v 0.023676 -0.047096 0.054269
v 0.003572 -0.053172 0.054269
v 0.003572 -0.057378 0.058009
v 0.012925 -0.046159 0.054738
v 0.014789 -0.048964 0.058945
v 0.008716 -0.062054 0.058009
v 0.015726 -0.058780 0.056140
v 0.013394 -0.046159 0.058476
v 0.023676 -0.052236 0.054738
f 134 128 138 
f 124 125 130 
f 126 127 130 
f 123 127 131 
f 127 126 131 
f 127 123 132 
f 129 127 132 
f 124 130 133 
f 130 127 133 
f 134 129 135 
f 132 123 135 
f 129 132 135 
f 128 134 135 
f 126 128 136 
f 123 131 136 
f 131 126 136 
f 135 123 136 
f 128 135 136 
f 125 124 137 
f 127 129 137 
f 124 133 137 
f 133 127 137 
f 134 125 137 
f 129 134 137 
f 128 126 138 
f 130 125 138 
f 126 130 138 
f 125 134 138 
o convex_10
v 0.017130 -0.039145 0.047724
v -0.020271 -0.031666 0.036504
v -0.020271 -0.033068 0.037906
v -0.020271 -0.037742 0.046788
v 0.017130 -0.031198 0.038842
v 0.017130 -0.038677 0.044451
v -0.020271 -0.039613 0.045854
v 0.017130 -0.031666 0.036504
v -0.020271 -0.031198 0.038842
v 0.017130 -0.037742 0.046788
v -0.020271 -0.039613 0.047724
v -0.020271 -0.032133 0.040245
v 0.017130 -0.039613 0.045854
v 0.017130 -0.031198 0.036504
v 0.017130 -0.032133 0.040245
v -0.020271 -0.038677 0.044451
f 145 141 154 
f 140 141 142 
f 143 139 144 
f 142 141 145 
f 141 140 146 
f 143 144 146 
f 144 141 146 
f 140 142 147 
f 142 139 148 
f 139 143 148 
f 139 142 149 
f 142 145 149 
f 147 142 150 
f 143 147 150 
f 142 148 150 
f 144 139 151 
f 145 144 151 
f 139 149 151 
f 149 145 151 
f 146 140 152 
f 143 146 152 
f 140 147 152 
f 147 143 152 
f 148 143 153 
f 143 150 153 
f 150 148 153 
f 141 144 154 
f 144 145 154 
o convex_11
v -0.015120 0.020698 -0.028013
v -0.000637 0.034723 -0.022406
v 0.008710 0.033320 -0.017730
v 0.018065 0.019762 -0.026610
v -0.021201 0.019762 -0.018197
v 0.018065 0.023038 -0.017729
v 0.009647 0.031917 -0.026610
v -0.012778 0.031915 -0.026611
v -0.011381 0.032851 -0.018197
v -0.022141 0.019762 -0.026611
v 0.012921 0.019762 -0.018666
v -0.001105 0.030978 -0.028013
v 0.012453 0.019762 -0.028011
v -0.019335 0.025842 -0.022405
v -0.002502 0.034723 -0.026610
v 0.014319 0.028174 -0.026610
v -0.017458 0.028174 -0.026611
v 0.018065 0.023972 -0.022871
v 0.003102 0.034254 -0.026611
v -0.016990 0.027708 -0.018197
v 0.015255 0.027241 -0.017729
v -0.010449 0.033320 -0.018197
v -0.020732 0.023971 -0.022405
v -0.008115 0.033787 -0.026610
f 176 169 178 
f 157 159 160 
f 158 159 164 
f 159 158 165 
f 160 159 165 
f 158 160 165 
f 155 162 166 
f 164 155 167 
f 158 164 167 
f 155 166 167 
f 161 157 170 
f 166 161 170 
f 158 167 170 
f 167 166 170 
f 162 155 171 
f 163 162 171 
f 155 164 171 
f 160 158 172 
f 158 170 172 
f 156 157 173 
f 157 161 173 
f 161 166 173 
f 169 156 173 
f 166 169 173 
f 159 157 174 
f 157 163 174 
f 163 171 174 
f 171 168 174 
f 157 160 175 
f 170 157 175 
f 160 172 175 
f 172 170 175 
f 157 156 176 
f 163 157 176 
f 162 163 176 
f 156 169 176 
f 164 159 177 
f 171 164 177 
f 168 171 177 
f 159 174 177 
f 174 168 177 
f 166 162 178 
f 169 166 178 
f 162 176 178 
o convex_12
v -0.002506 -0.023717 0.037905
v -0.023544 -0.026056 0.025284
v -0.023544 -0.023717 0.025284
v -0.023544 -0.031198 0.038372
v -0.002975 -0.031198 0.036969
v -0.015595 -0.023717 0.034165
v -0.023544 -0.031198 0.035567
v -0.002506 -0.031198 0.038372
v -0.023544 -0.029327 0.036969
v -0.002975 -0.023717 0.036969
v -0.009989 -0.031198 0.035567
v -0.009054 -0.023717 0.036969
v -0.020737 -0.023717 0.029960
f 187 184 191 
f 181 180 182 
f 180 181 183 
f 179 181 184 
f 182 180 185 
f 183 182 185 
f 179 182 186 
f 183 179 186 
f 182 183 186 
f 181 182 187 
f 181 179 188 
f 179 183 188 
f 183 181 188 
f 180 183 189 
f 185 180 189 
f 183 185 189 
f 182 179 190 
f 179 184 190 
f 187 182 190 
f 184 187 190 
f 184 181 191 
f 181 187 191 
o convex_13
v -0.013725 0.049214 0.012194
v -0.003441 0.046876 0.028088
v -0.003441 0.046409 0.028088
v -0.019336 0.040800 0.028088
v -0.003441 0.050618 0.011725
v -0.012790 0.047813 0.022945
v -0.019336 0.045477 0.011725
v -0.019336 0.045010 0.022010
v -0.004376 0.050618 0.018273
v -0.018401 0.040800 0.027619
v -0.013725 0.045010 0.028088
v -0.006246 0.047813 0.026685
v -0.017464 0.047346 0.016401
v -0.009520 0.049681 0.019674
v -0.008585 0.050618 0.011725
v -0.003441 0.046409 0.027151
f 201 196 207 
f 194 193 195 
f 193 194 196 
f 198 195 199 
f 193 196 200 
f 194 195 201 
f 198 196 201 
f 195 198 201 
f 195 193 202 
f 199 195 202 
f 197 199 202 
f 193 200 203 
f 202 193 203 
f 197 202 203 
f 192 198 204 
f 199 197 204 
f 198 199 204 
f 203 200 205 
f 197 203 205 
f 192 204 205 
f 204 197 205 
f 198 192 206 
f 196 198 206 
f 200 196 206 
f 192 205 206 
f 205 200 206 
f 196 194 207 
f 194 201 207 
o convex_14
v -0.023078 0.037995 0.028088
v -0.017935 0.029114 0.039776
v -0.017935 0.030049 0.039307
v -0.017935 0.041267 0.028088
v -0.028685 0.028177 0.028088
v -0.023545 0.032854 0.033700
v -0.017935 0.028646 0.038374
v -0.018871 0.038462 0.032764
v -0.029153 0.028646 0.029492
v -0.023078 0.028177 0.036502
v -0.027282 0.033320 0.028557
f 216 213 218 
f 210 209 211 
f 208 211 212 
f 211 209 214 
f 212 211 214 
f 210 211 215 
f 211 208 215 
f 213 210 215 
f 209 210 217 
f 210 213 217 
f 214 209 217 
f 212 214 217 
f 216 212 217 
f 213 216 217 
f 208 212 218 
f 215 208 218 
f 213 215 218 
f 212 216 218 
o convex_15
v 0.021337 0.037527 0.027155
v 0.014793 0.028646 0.040243
v 0.014325 0.028646 0.040243
v 0.026480 0.027710 0.027155
v 0.014325 0.041735 0.027155
v 0.020403 0.032853 0.033699
v 0.014793 0.040332 0.031362
v 0.014325 0.027710 0.039307
v 0.026480 0.028179 0.029025
v 0.021337 0.027710 0.035568
v 0.014793 0.033790 0.037437
v 0.025076 0.032853 0.027622
v 0.018534 0.037995 0.030894
v 0.015261 0.042671 0.027622
f 225 231 232 
f 219 222 223 
f 223 221 225 
f 220 221 226 
f 223 222 226 
f 221 223 226 
f 224 220 228 
f 220 226 228 
f 226 222 228 
f 222 227 228 
f 227 224 228 
f 221 220 229 
f 220 224 229 
f 225 221 229 
f 222 219 230 
f 227 222 230 
f 224 227 230 
f 229 224 231 
f 225 229 231 
f 230 219 231 
f 224 230 231 
f 219 223 232 
f 223 225 232 
f 231 219 232 
o convex_16
v -0.003438 -0.063457 -0.034559
v 0.016663 -0.045691 -0.031755
v 0.016663 -0.045691 -0.033156
v -0.007648 -0.050371 -0.030820
v 0.022737 -0.053176 -0.030819
v -0.002034 -0.050837 -0.035495
v 0.009182 -0.061584 -0.034559
v 0.014793 -0.048965 -0.034559
v -0.002969 -0.047094 -0.030820
v -0.007648 -0.061584 -0.033624
v 0.023676 -0.047094 -0.030819
v -0.007648 -0.053172 -0.030820
v -0.007648 -0.057377 -0.034559
v -0.002503 -0.048498 -0.034091
v 0.019000 -0.056441 -0.032690
v 0.009648 -0.061584 -0.033624
v -0.004840 -0.062989 -0.035026
v 0.001237 -0.054109 -0.035495
v 0.013389 -0.046160 -0.034091
f 246 241 251 
f 234 235 241 
f 235 234 243 
f 236 237 243 
f 240 235 243 
f 234 241 243 
f 241 236 243 
f 237 236 244 
f 242 237 244 
f 236 242 244 
f 242 236 245 
f 236 241 246 
f 238 245 246 
f 245 236 246 
f 239 240 247 
f 243 237 247 
f 240 243 247 
f 233 239 248 
f 242 233 248 
f 237 242 248 
f 247 237 248 
f 239 247 248 
f 239 233 249 
f 233 242 249 
f 245 238 249 
f 242 245 249 
f 238 240 250 
f 240 239 250 
f 239 249 250 
f 249 238 250 
f 240 238 251 
f 235 240 251 
f 241 235 251 
f 238 246 251 
o convex_17
v -0.031959 0.000594 0.001909
v -0.035700 0.018359 0.011724
v -0.035232 0.018359 0.010321
v -0.043179 0.016956 0.003779
v -0.031959 0.018359 -0.003234
v -0.032896 0.000594 0.011724
v -0.035700 0.002933 -0.003234
v -0.040841 0.009012 0.011724
v -0.028688 0.001061 -0.002766
v -0.040841 0.011346 -0.002766
v -0.038037 0.002933 0.003312
v -0.041308 0.018359 0.011724
v -0.042711 0.018359 0.003312
v -0.040841 0.007607 0.009854
v -0.040373 0.012746 -0.003234
v -0.032428 0.001061 0.011255
v -0.041776 0.011346 0.000505
v -0.028688 0.000594 -0.003234
f 260 267 269 
f 253 254 256 
f 257 253 259 
f 256 254 260 
f 252 257 262 
f 258 252 262 
f 261 258 262 
f 253 256 263 
f 259 253 263 
f 255 259 263 
f 255 263 264 
f 263 256 264 
f 257 259 265 
f 259 255 265 
f 262 257 265 
f 256 258 266 
f 261 255 266 
f 258 261 266 
f 255 264 266 
f 264 256 266 
f 254 253 267 
f 253 257 267 
f 260 254 267 
f 255 261 268 
f 261 262 268 
f 265 255 268 
f 262 265 268 
f 257 252 269 
f 252 258 269 
f 258 256 269 
f 256 260 269 
f 267 257 269 
o convex_18
v 0.028818 -0.021847 0.011725
v 0.036766 -0.025587 0.029023
v 0.036766 -0.027458 0.029023
v 0.028818 -0.025587 0.029023
v 0.036766 -0.021847 0.014998
v 0.028818 -0.023718 0.012194
v 0.036766 -0.023718 0.012194
v 0.028818 -0.027458 0.028087
v 0.028818 -0.023250 0.023879
v 0.036766 -0.023250 0.023879
f 278 271 279 
f 272 271 273 
f 271 272 274 
f 273 270 275 
f 270 274 276 
f 274 272 276 
f 275 270 276 
f 275 276 277 
f 272 273 277 
f 273 275 277 
f 276 272 277 
f 273 271 278 
f 270 273 278 
f 274 270 278 
f 274 278 279 
f 271 274 279 
o convex_19
v 0.035364 -0.024654 0.039776
v 0.044246 -0.022783 0.029959
v 0.043777 -0.023250 0.031362
v 0.033494 -0.031198 0.035570
v 0.033494 -0.026056 0.029023
v 0.041439 -0.031198 0.035570
v 0.036768 -0.031198 0.042581
v 0.044246 -0.027925 0.029023
v 0.036768 -0.022315 0.029023
v 0.040037 -0.025588 0.040243
v 0.033494 -0.023719 0.037906
v 0.037235 -0.023250 0.038839
v 0.033494 -0.027925 0.029023
v 0.041439 -0.031198 0.036970
v 0.033494 -0.031198 0.038372
v 0.044246 -0.022315 0.029023
f 291 281 295 
f 283 285 286 
f 281 282 287 
f 285 283 287 
f 287 284 288 
f 282 281 289 
f 280 286 289 
f 284 283 290 
f 286 280 290 
f 288 284 290 
f 288 290 291 
f 289 281 291 
f 280 289 291 
f 290 280 291 
f 283 284 292 
f 287 283 292 
f 284 287 292 
f 286 285 293 
f 287 282 293 
f 285 287 293 
f 282 289 293 
f 289 286 293 
f 283 286 294 
f 290 283 294 
f 286 290 294 
f 281 287 295 
f 287 288 295 
f 288 291 295 
o convex_20
v -0.018405 -0.029796 -0.010248
v -0.033363 -0.035871 -0.027079
v -0.033363 -0.035405 -0.027079
v -0.045516 -0.029796 -0.010248
v -0.018405 -0.040548 -0.022870
v -0.018405 -0.030266 -0.021936
v -0.036168 -0.040548 -0.022871
v -0.041307 -0.029796 -0.017731
v -0.019339 -0.040548 -0.026611
v -0.032429 -0.032135 -0.024741
v -0.045516 -0.030266 -0.010248
v -0.032896 -0.040548 -0.026611
v -0.038501 -0.038208 -0.021466
v -0.018405 -0.030266 -0.010248
v -0.022612 -0.029796 -0.020532
v -0.044579 -0.031199 -0.013524
f 308 306 311 
f 296 300 301 
f 299 296 303 
f 297 298 304 
f 298 301 304 
f 301 300 304 
f 300 302 304 
f 301 298 305 
f 298 303 305 
f 296 299 306 
f 302 300 306 
f 297 304 307 
f 304 302 307 
f 298 297 308 
f 303 298 308 
f 302 306 308 
f 297 307 308 
f 307 302 308 
f 300 296 309 
f 296 306 309 
f 306 300 309 
f 296 301 310 
f 303 296 310 
f 301 305 310 
f 305 303 310 
f 299 303 311 
f 306 299 311 
f 303 308 311 
o convex_21
v 0.016195 -0.021845 -0.011651
v 0.027883 -0.018575 0.011723
v 0.026481 -0.017640 0.011723
v 0.023675 -0.023716 0.010788
v 0.027883 -0.025120 -0.003700
v 0.016195 -0.017640 -0.009779
v 0.016195 -0.025120 -0.006505
v 0.024610 -0.018575 -0.002767
v 0.027883 -0.023716 0.011254
v 0.018066 -0.018575 -0.010713
v 0.024143 -0.021380 0.011723
v 0.021806 -0.025120 0.002375
v 0.027415 -0.018575 0.004711
v 0.016195 -0.021380 -0.006505
v 0.022741 -0.017640 -0.003231
v 0.016195 -0.017640 -0.008841
f 325 322 327 
f 317 312 318 
f 312 316 318 
f 316 313 320 
f 316 312 321 
f 312 317 321 
f 319 316 321 
f 313 314 322 
f 320 313 322 
f 315 320 322 
f 318 316 323 
f 315 318 323 
f 320 315 323 
f 316 320 323 
f 314 313 324 
f 313 316 324 
f 316 319 324 
f 317 318 325 
f 318 315 325 
f 315 322 325 
f 317 314 326 
f 321 317 326 
f 319 321 326 
f 314 324 326 
f 324 319 326 
f 314 317 327 
f 322 314 327 
f 317 325 327 
o convex_22
v 0.040037 -0.033069 -0.014924
v 0.027417 -0.035871 -0.027079
v 0.027417 -0.035405 -0.027079
v 0.014325 -0.030266 -0.010248
v 0.014325 -0.040548 -0.022870
v 0.014795 -0.030266 -0.021936
v 0.038164 -0.029796 -0.017731
v 0.033027 -0.040548 -0.022871
v 0.042376 -0.030266 -0.010248
v 0.016198 -0.040548 -0.026611
v 0.029754 -0.033069 -0.025675
v 0.029754 -0.040548 -0.026611
v 0.014325 -0.029796 -0.010248
v 0.014795 -0.029796 -0.020532
v 0.042376 -0.029796 -0.011184
v 0.034894 -0.033537 -0.021934
v 0.030221 -0.031199 -0.022871
v 0.034894 -0.038677 -0.021934
f 339 343 345 
f 332 335 336 
f 331 332 336 
f 335 328 336 
f 330 329 337 
f 333 330 337 
f 332 333 337 
f 335 332 337 
f 330 333 338 
f 329 330 339 
f 337 329 339 
f 335 337 339 
f 330 338 339 
f 332 331 340 
f 333 332 340 
f 331 336 340 
f 334 333 341 
f 333 340 341 
f 340 334 341 
f 328 334 342 
f 336 328 342 
f 334 340 342 
f 340 336 342 
f 338 334 343 
f 339 338 343 
f 333 334 344 
f 338 333 344 
f 334 338 344 
f 334 328 345 
f 328 335 345 
f 335 339 345 
f 343 334 345 
o convex_23
v 0.021804 0.004330 0.034634
v 0.005910 -0.015302 0.037906
v 0.006379 -0.015302 0.037439
v 0.011523 0.014619 0.042581
v 0.015725 0.007139 0.043049
v 0.023206 0.014619 0.034634
v 0.013859 -0.015302 0.035101
v 0.005910 0.004330 0.042581
v 0.006379 -0.014830 0.038841
v 0.012459 -0.014830 0.034634
v 0.022272 0.014619 0.036971
v 0.005910 0.001993 0.043049
v 0.012923 0.014619 0.043049
v 0.022272 0.006670 0.035569
v 0.005910 -0.013430 0.037906
f 355 348 360 
f 347 348 352 
f 349 351 353 
f 347 352 354 
f 352 350 354 
f 351 346 355 
f 352 348 355 
f 346 352 355 
f 351 349 356 
f 353 347 357 
f 349 353 357 
f 347 354 357 
f 354 350 357 
f 350 356 358 
f 356 349 358 
f 349 357 358 
f 357 350 358 
f 346 351 359 
f 352 346 359 
f 350 352 359 
f 356 350 359 
f 351 356 359 
f 348 347 360 
f 347 353 360 
f 353 351 360 
f 351 355 360 
o convex_24
v -0.050658 -0.019041 0.006114
v -0.040375 -0.021380 -0.003235
v -0.040375 -0.021847 -0.003235
v -0.044116 -0.018108 0.011725
v -0.051127 -0.021847 0.011725
v -0.048789 -0.015770 0.011257
v -0.048321 -0.021380 -0.004171
v -0.045051 -0.017172 -0.000897
v -0.044116 -0.021847 0.011725
v -0.046452 -0.017640 -0.002300
v -0.046452 -0.015770 0.011725
v -0.049724 -0.021847 -0.000897
v -0.043649 -0.019041 -0.004171
v -0.049724 -0.019977 -0.000897
f 367 372 374 
f 363 362 364 
f 361 365 366 
f 363 364 369 
f 364 365 369 
f 365 363 369 
f 366 368 370 
f 364 362 371 
f 365 364 371 
f 366 365 371 
f 362 368 371 
f 368 366 371 
f 365 361 372 
f 363 365 372 
f 367 363 372 
f 362 363 373 
f 363 367 373 
f 368 362 373 
f 367 370 373 
f 370 368 373 
f 361 366 374 
f 366 370 374 
f 370 367 374 
f 372 361 374 
o convex_25
v -0.023542 -0.024652 -0.000898
v -0.032427 -0.029795 -0.013521
v -0.032427 -0.029795 -0.009312
v -0.014194 -0.029795 -0.010247
v -0.014194 -0.024652 -0.011183
v -0.032427 -0.025120 -0.004641
v -0.032427 -0.025588 -0.000430
v -0.014194 -0.029795 -0.013521
v -0.024012 -0.025588 -0.000430
v -0.032427 -0.029326 -0.013521
v -0.015598 -0.029795 -0.009312
f 378 383 385 
f 377 376 378 
f 375 378 379 
f 376 377 380 
f 375 379 380 
f 380 377 381 
f 375 380 381 
f 378 376 382 
f 379 378 382 
f 378 375 383 
f 381 377 383 
f 375 381 383 
f 376 380 384 
f 380 379 384 
f 382 376 384 
f 379 382 384 
f 377 378 385 
f 383 377 385 
o convex_26
v -0.029154 -0.015770 0.011725
v -0.032427 -0.025120 -0.003703
v -0.024013 -0.025120 -0.003703
v -0.024480 -0.015770 -0.003703
v -0.027285 -0.023249 0.011725
v -0.032427 -0.023717 0.011256
v -0.024013 -0.021847 -0.006976
v -0.030555 -0.018575 0.004710
v -0.024013 -0.016238 -0.002301
v -0.024480 -0.025120 0.001441
v -0.032427 -0.021847 0.011725
v -0.027753 -0.015770 0.002375
v -0.024480 -0.018575 -0.006976
v -0.028220 -0.016706 0.011725
v -0.032427 -0.025120 0.002375
v -0.032427 -0.024651 -0.003703
f 389 398 401 
f 388 387 392 
f 389 386 394 
f 388 392 394 
f 387 388 395 
f 390 391 395 
f 394 390 395 
f 388 394 395 
f 390 386 396 
f 391 390 396 
f 387 391 396 
f 386 393 396 
f 386 389 397 
f 393 386 397 
f 392 387 398 
f 389 394 398 
f 394 392 398 
f 386 390 399 
f 394 386 399 
f 390 394 399 
f 391 387 400 
f 387 395 400 
f 395 391 400 
f 387 396 401 
f 396 393 401 
f 397 389 401 
f 393 397 401 
f 398 387 401 
o convex_27
v 0.013855 0.007607 -0.023339
v 0.012921 0.019762 -0.018665
v 0.013855 0.017889 -0.018665
v -0.000634 0.005269 -0.018665
v -0.000634 0.019762 -0.021936
v 0.012921 0.019762 -0.023339
v 0.012921 0.005269 -0.018665
v -0.000634 0.005269 -0.021936
v -0.000634 0.019762 -0.018665
v 0.011985 0.005269 -0.023339
v 0.014324 0.009477 -0.018665
v 0.014324 0.016020 -0.023339
f 404 412 413 
f 404 403 405 
f 406 403 407 
f 403 404 407 
f 404 405 408 
f 408 405 409 
f 405 406 409 
f 405 403 410 
f 406 405 410 
f 403 406 410 
f 406 407 411 
f 407 402 411 
f 402 408 411 
f 408 409 411 
f 409 406 411 
f 408 402 412 
f 404 408 412 
f 402 407 413 
f 407 404 413 
f 412 402 413 
o convex_28
v -0.023076 -0.018576 -0.008846
v -0.014194 -0.021380 -0.010246
v -0.014194 -0.024652 -0.010246
v -0.023543 -0.024652 -0.000898
v -0.023543 -0.015770 -0.003236
v -0.014194 -0.015770 -0.012586
v -0.017000 -0.021846 -0.013986
v -0.024010 -0.021846 -0.007911
v -0.014663 -0.018576 -0.014924
v -0.019803 -0.024652 -0.007444
v -0.024010 -0.015770 -0.004639
v -0.023543 -0.021380 -0.000898
v -0.014194 -0.016238 -0.011651
f 418 425 426 
f 416 415 417 
f 415 416 419 
f 414 420 421 
f 414 419 422 
f 419 416 422 
f 416 420 422 
f 420 414 422 
f 416 417 423 
f 420 416 423 
f 421 420 423 
f 417 421 423 
f 418 419 424 
f 419 414 424 
f 414 421 424 
f 421 417 424 
f 417 415 425 
f 424 417 425 
f 418 424 425 
f 415 419 426 
f 419 418 426 
f 425 415 426 
o convex_29
v -0.013725 -0.021848 -0.015389
v 0.001702 -0.015770 -0.014922
v 0.001702 -0.016706 -0.014454
v -0.014194 -0.016706 -0.011652
v 0.001702 -0.029794 -0.013521
v -0.014194 -0.029794 -0.010716
v -0.004844 -0.018576 -0.017729
v -0.014194 -0.029794 -0.013521
v 0.001702 -0.021848 -0.017729
v -0.013258 -0.021380 -0.010716
v -0.014194 -0.015770 -0.013055
v -0.008583 -0.021848 -0.017260
v -0.002974 -0.029794 -0.014456
v 0.001702 -0.021380 -0.013523
v -0.010453 -0.018576 -0.016792
v -0.003909 -0.015770 -0.015858
v 0.001702 -0.018576 -0.017729
f 433 442 443 
f 429 428 430 
f 428 429 431 
f 431 432 434 
f 432 430 434 
f 428 431 435 
f 429 430 436 
f 432 431 436 
f 430 432 436 
f 430 428 437 
f 427 434 437 
f 434 430 437 
f 434 427 438 
f 433 435 438 
f 438 435 439 
f 431 434 439 
f 435 431 439 
f 434 438 439 
f 431 429 440 
f 429 436 440 
f 436 431 440 
f 427 437 441 
f 438 427 441 
f 433 438 441 
f 437 428 442 
f 433 441 442 
f 441 437 442 
f 428 435 443 
f 435 433 443 
f 442 428 443 
o convex_30
v -0.045049 -0.025587 -0.012116
v -0.032427 -0.021847 0.011722
v -0.032427 -0.023251 0.011722
v -0.051126 -0.021847 0.011722
v -0.039441 -0.023250 -0.014455
v -0.032427 -0.025587 -0.000431
v -0.051126 -0.023717 0.011255
v -0.048320 -0.021847 -0.004637
v -0.049255 -0.025587 -0.000431
v -0.036635 -0.024652 -0.013520
v -0.039911 -0.021847 -0.005102
v -0.032427 -0.023251 -0.000431
v -0.042712 -0.025587 -0.015856
v -0.037103 -0.023250 -0.013053
v -0.032427 -0.025587 -0.004637
v -0.032427 -0.023717 0.011255
v -0.049722 -0.025120 -0.000898
f 452 450 460 
f 446 445 447 
f 445 446 449 
f 446 447 450 
f 447 445 451 
f 444 449 452 
f 449 450 452 
f 451 445 454 
f 448 451 454 
f 445 449 455 
f 449 444 456 
f 444 451 456 
f 451 448 456 
f 448 453 456 
f 453 448 457 
f 454 445 457 
f 448 454 457 
f 445 455 457 
f 457 455 458 
f 455 449 458 
f 449 456 458 
f 456 453 458 
f 453 457 458 
f 449 446 459 
f 450 449 459 
f 446 450 459 
f 450 447 460 
f 447 451 460 
f 451 444 460 
f 444 452 460 
o convex_31
v 0.001705 -0.021848 -0.017261
v 0.016195 -0.015770 -0.008381
v 0.016195 -0.015770 -0.009314
v 0.016195 -0.029794 -0.009314
v 0.001705 -0.029794 -0.013519
v 0.016195 -0.029794 -0.013519
v 0.001705 -0.015770 -0.014922
v 0.012920 -0.018576 -0.014455
v 0.015726 -0.021380 -0.006508
v 0.015726 -0.028392 -0.006508
v 0.005446 -0.018576 -0.017261
v 0.001705 -0.021380 -0.013518
v 0.006380 -0.015770 -0.014922
v 0.016195 -0.018576 -0.012118
f 468 463 474 
f 463 462 464 
f 463 464 466 
f 465 461 466 
f 464 465 466 
f 462 463 467 
f 461 465 467 
f 462 467 469 
f 464 462 470 
f 465 464 470 
f 462 469 470 
f 466 461 471 
f 461 467 471 
f 468 466 471 
f 467 465 472 
f 469 467 472 
f 465 470 472 
f 470 469 472 
f 467 463 473 
f 463 468 473 
f 471 467 473 
f 468 471 473 
f 463 466 474 
f 466 468 474 
o convex_32
v 0.018065 0.017889 -0.028479
v 0.022740 0.006673 -0.009783
v 0.022272 0.006673 -0.009783
v 0.018065 0.001529 -0.022871
v 0.024143 0.007609 -0.028479
v 0.018065 0.023502 -0.017731
v 0.022740 0.023970 -0.022871
v 0.022740 0.019761 -0.012120
v 0.020404 0.013683 -0.032222
v 0.018065 0.007141 -0.015391
v 0.022740 0.001529 -0.021935
v 0.018533 0.012286 -0.032222
v 0.018065 0.001997 -0.017731
v 0.018065 0.021628 -0.026609
v 0.018065 0.004334 -0.026609
v 0.019936 0.019761 -0.013987
v 0.022740 0.005738 -0.009783
v 0.019936 0.005738 -0.012120
v 0.018065 0.023970 -0.022871
v 0.020871 0.023970 -0.018198
v 0.020871 0.001529 -0.018198
f 491 487 495 
f 475 478 480 
f 477 476 482 
f 476 479 482 
f 479 481 482 
f 481 479 483 
f 480 478 484 
f 483 479 486 
f 484 478 487 
f 475 480 488 
f 481 483 488 
f 486 475 488 
f 483 486 488 
f 478 475 489 
f 485 478 489 
f 479 485 489 
f 475 486 489 
f 486 479 489 
f 477 482 490 
f 482 480 490 
f 480 484 490 
f 476 477 491 
f 479 476 491 
f 485 479 491 
f 487 491 492 
f 484 487 492 
f 477 490 492 
f 490 484 492 
f 491 477 492 
f 488 480 493 
f 481 488 493 
f 480 482 494 
f 482 481 494 
f 493 480 494 
f 481 493 494 
f 478 485 495 
f 487 478 495 
f 485 491 495 
o convex_33
v 0.017600 -0.015770 -0.020063
v 0.026481 -0.017172 0.011725
v 0.026012 -0.015770 0.011725
v 0.023675 -0.015770 -0.019596
v 0.016195 -0.017640 -0.007909
v 0.022272 -0.017640 -0.019129
v 0.016195 -0.015770 -0.007909
v 0.025076 -0.017640 0.011725
v 0.026481 -0.017640 0.008447
f 497 503 504 
f 496 498 499 
f 496 499 501 
f 500 496 501 
f 498 496 502 
f 496 500 502 
f 502 500 503 
f 497 498 503 
f 500 501 503 
f 498 502 503 
f 503 501 504 
f 498 497 504 
f 499 498 504 
f 501 499 504 
o convex_34
v 0.047518 -0.021847 0.006581
v 0.027883 -0.025587 -0.001364
v 0.027883 -0.023717 -0.001364
v 0.027883 -0.021847 0.011724
v 0.047987 -0.023717 0.011256
v 0.046115 -0.025587 -0.001364
v 0.046115 -0.021847 -0.001364
v 0.027883 -0.023717 0.011256
v 0.047987 -0.021847 0.011724
v 0.038636 -0.021847 -0.001364
v 0.027883 -0.025587 -0.000429
v 0.027883 -0.021847 0.008452
f 508 514 516 
f 507 506 508 
f 506 507 510 
f 505 509 510 
f 510 507 511 
f 508 505 511 
f 505 510 511 
f 508 506 512 
f 509 508 512 
f 505 508 513 
f 509 505 513 
f 508 509 513 
f 511 507 514 
f 508 511 514 
f 506 510 515 
f 510 509 515 
f 512 506 515 
f 509 512 515 
f 507 508 516 
f 514 507 516 
o convex_35
v -0.029621 -0.007821 -0.012118
v -0.027285 0.000594 -0.005106
v -0.028220 0.000594 -0.005106
v -0.027752 -0.006885 -0.005106
v -0.025883 -0.003615 -0.012586
v -0.032426 -0.003147 -0.009781
v -0.031959 -0.006885 -0.006977
v -0.025883 -0.008289 -0.007912
v -0.029154 0.000594 -0.010247
v -0.025883 0.000594 -0.006508
v -0.030089 -0.004082 -0.013054
v -0.029621 -0.009224 -0.007912
v -0.025883 -0.006419 -0.005106
v -0.031959 -0.007353 -0.010247
v -0.026350 -0.007353 -0.012118
v -0.031491 -0.003147 -0.006042
f 522 523 532 
f 518 519 520 
f 519 518 525 
f 522 519 525 
f 524 521 526 
f 525 518 526 
f 521 525 526 
f 525 521 527 
f 522 525 527 
f 520 523 528 
f 528 524 529 
f 518 520 529 
f 526 518 529 
f 524 526 529 
f 520 528 529 
f 523 522 530 
f 527 517 530 
f 522 527 530 
f 528 523 530 
f 517 528 530 
f 521 524 531 
f 517 527 531 
f 527 521 531 
f 528 517 531 
f 524 528 531 
f 520 519 532 
f 519 522 532 
f 523 520 532 
o convex_36
v -0.033362 0.000126 0.011723
v -0.026349 -0.015770 -0.000897
v -0.026349 -0.014833 -0.001831
v -0.025882 -0.005019 -0.004168
v -0.028687 -0.014366 0.011723
v -0.032426 0.000126 0.003776
v -0.028687 -0.015770 0.004711
v -0.028687 0.000594 -0.005104
v -0.032426 0.000594 0.011723
v -0.027285 0.000594 -0.004636
v -0.029622 -0.015300 0.011256
v -0.025882 -0.015770 0.000974
v -0.027752 -0.005019 -0.005104
f 540 542 545 
f 535 534 539 
f 540 538 541 
f 533 537 541 
f 537 536 541 
f 538 533 541 
f 541 536 542 
f 540 541 542 
f 537 533 543 
f 533 538 543 
f 538 539 543 
f 543 539 544 
f 534 535 544 
f 535 536 544 
f 536 537 544 
f 539 534 544 
f 537 543 544 
f 536 535 545 
f 539 538 545 
f 535 539 545 
f 538 540 545 
f 542 536 545 
o convex_37
v -0.012792 0.033320 -0.017728
v -0.025882 0.009944 -0.018196
v -0.025414 0.009944 -0.018196
v -0.025882 0.032851 -0.005106
v -0.025412 0.009944 -0.011183
v -0.009518 0.032851 -0.017728
v -0.025882 0.018362 -0.018196
v -0.021674 0.010413 -0.018196
v -0.023543 0.032851 -0.010249
v -0.017469 0.028643 -0.018196
v -0.021674 0.010413 -0.015858
v -0.011389 0.032851 -0.015858
v -0.025412 0.032851 -0.005106
v -0.025882 0.033320 -0.006510
v -0.009518 0.033320 -0.018196
v -0.025882 0.009944 -0.011183
f 547 550 561 
f 547 548 550 
f 548 547 552 
f 547 549 552 
f 550 548 553 
f 548 552 553 
f 552 554 555 
f 553 552 555 
f 554 546 555 
f 551 550 556 
f 553 551 556 
f 550 553 556 
f 550 551 557 
f 549 550 558 
f 550 557 558 
f 552 549 559 
f 546 554 559 
f 554 552 559 
f 549 558 559 
f 551 553 560 
f 555 546 560 
f 553 555 560 
f 557 551 560 
f 558 557 560 
f 559 558 560 
f 546 559 560 
f 549 547 561 
f 550 549 561 
o convex_38
v 0.008715 -0.005017 -0.017729
v 0.024143 0.005736 -0.008378
v 0.024143 0.005736 -0.008847
v 0.020867 -0.005017 -0.008378
v 0.021337 0.002930 -0.017729
v 0.019466 0.005736 -0.013987
v 0.020867 0.005736 -0.017729
v 0.008715 -0.004548 -0.016792
v 0.012924 -0.005017 -0.016326
v 0.022740 0.005268 -0.008378
v 0.019933 -0.003613 -0.008378
v 0.019466 0.005736 -0.012120
v 0.016198 0.002930 -0.017729
f 569 573 574 
f 564 563 565 
f 564 565 566 
f 563 564 567 
f 566 562 568 
f 564 566 568 
f 567 564 568 
f 562 565 569 
f 565 562 570 
f 562 566 570 
f 566 565 570 
f 565 563 571 
f 571 569 572 
f 569 565 572 
f 565 571 572 
f 563 567 573 
f 571 563 573 
f 569 571 573 
f 568 562 574 
f 567 568 574 
f 562 569 574 
f 573 567 574 
o convex_39
v -0.017466 0.041268 -0.005573
v -0.003909 0.033320 -0.019599
v -0.007181 0.033320 -0.019129
v -0.008117 0.041268 -0.014921
v -0.000635 0.040800 -0.011651
v -0.017466 0.033320 -0.013053
v -0.000635 0.035190 -0.016326
v -0.000635 0.041268 -0.014921
v -0.017466 0.034723 -0.013521
v -0.013725 0.041268 -0.011651
v -0.016998 0.040800 -0.005573
v -0.011853 0.033788 -0.017728
v -0.000635 0.033320 -0.018662
f 582 581 587 
f 576 577 578 
f 577 576 580 
f 576 578 582 
f 578 575 582 
f 575 579 582 
f 579 581 582 
f 580 575 583 
f 575 578 584 
f 583 575 584 
f 579 575 585 
f 575 580 585 
f 580 581 585 
f 581 579 585 
f 578 577 586 
f 577 580 586 
f 580 583 586 
f 584 578 586 
f 583 584 586 
f 580 576 587 
f 581 580 587 
f 576 582 587 
o convex_40
v -0.008585 0.050618 0.011724
v -0.017466 0.045943 0.005180
v -0.017466 0.045943 0.006583
v -0.000635 0.049683 0.005180
v -0.006248 0.051086 0.005180
v -0.000635 0.050618 0.011724
v -0.016998 0.047813 0.011724
v -0.016998 0.046411 0.010789
v -0.016530 0.047813 0.007050
f 594 588 596 
f 590 589 591 
f 591 589 592 
f 592 588 593 
f 591 592 593 
f 589 590 594 
f 593 588 594 
f 593 594 595 
f 590 591 595 
f 591 593 595 
f 594 590 595 
f 588 592 596 
f 592 589 596 
f 589 594 596 
o convex_41
v -0.031024 0.021632 -0.014456
v -0.025882 0.033320 -0.004642
v -0.025882 0.032852 -0.004642
v -0.041776 0.023503 0.002375
v -0.033829 0.018359 0.002375
v -0.037569 0.033320 0.002375
v -0.025882 0.018359 -0.011650
v -0.038971 0.018359 -0.007909
v -0.033829 0.030979 -0.008377
v -0.029623 0.032384 0.002375
v -0.040841 0.024906 -0.002770
v -0.025882 0.029111 -0.009313
v -0.032427 0.026306 -0.012585
v -0.035700 0.033320 -0.003238
v -0.032427 0.018359 -0.013988
v -0.038504 0.022568 -0.007909
v -0.025882 0.019297 -0.013052
v -0.025882 0.033320 -0.006041
f 605 610 614 
f 600 601 602 
f 598 599 603 
f 603 601 604 
f 601 600 604 
f 599 598 606 
f 598 602 606 
f 602 601 606 
f 603 599 606 
f 601 603 606 
f 600 602 607 
f 604 600 607 
f 598 603 608 
f 608 597 609 
f 602 598 610 
f 607 602 610 
f 605 607 610 
f 603 604 611 
f 609 597 611 
f 609 611 612 
f 604 607 612 
f 607 605 612 
f 605 609 612 
f 611 604 612 
f 608 603 613 
f 597 608 613 
f 611 597 613 
f 603 611 613 
f 598 608 614 
f 609 605 614 
f 608 609 614 
f 610 598 614 
o convex_42
v 0.010584 0.041268 -0.011184
v -0.000634 0.033320 -0.019599
v -0.000634 0.033788 -0.019599
v -0.000634 0.041268 -0.011651
v 0.014324 0.033320 -0.013053
v 0.013855 0.040800 -0.005573
v 0.004977 0.041268 -0.014921
v 0.007779 0.033788 -0.018194
v -0.000634 0.035190 -0.016326
v -0.000634 0.041268 -0.014921
v 0.014324 0.034723 -0.013521
v 0.014324 0.041268 -0.006976
v 0.008246 0.041268 -0.013521
f 625 622 627 
f 617 616 618 
f 618 615 621 
f 616 617 622 
f 619 616 622 
f 617 621 622 
f 618 616 623 
f 616 619 623 
f 619 620 623 
f 620 618 623 
f 617 618 624 
f 621 617 624 
f 618 621 624 
f 619 622 625 
f 615 618 626 
f 620 619 626 
f 618 620 626 
f 619 625 626 
f 625 615 626 
f 621 615 627 
f 622 621 627 
f 615 625 627 
o convex_43
v 0.013855 0.047813 0.011724
v -0.000634 0.049683 0.005180
v -0.000634 0.049683 0.005648
v 0.013388 0.045943 0.005180
v 0.003105 0.051086 0.005180
v -0.000634 0.050618 0.011724
v 0.013855 0.046411 0.011257
v 0.005444 0.050618 0.011724
v 0.014324 0.046879 0.005180
f 634 631 636 
f 630 629 631 
f 631 629 632 
f 632 629 633 
f 629 630 633 
f 628 633 634 
f 630 631 634 
f 633 630 634 
f 628 632 635 
f 632 633 635 
f 633 628 635 
f 632 628 636 
f 631 632 636 
f 628 634 636 
o convex_44
v -0.027745 -0.051300 0.053802
v 0.033494 -0.039614 0.047257
v 0.033494 -0.040083 0.047257
v -0.036635 -0.039614 0.046322
v -0.031019 -0.041486 0.051464
v 0.024137 -0.046157 0.054269
v 0.023670 -0.052236 0.053802
v 0.029745 -0.039614 0.050063
v -0.027278 -0.046157 0.054269
v 0.032086 -0.041952 0.047257
v -0.035227 -0.041952 0.047257
v -0.032887 -0.039614 0.050063
v -0.026811 -0.052236 0.054269
v -0.027745 -0.050830 0.052867
v 0.033494 -0.040083 0.046322
v 0.024137 -0.051765 0.054269
v 0.028812 -0.040083 0.050528
v 0.024604 -0.045225 0.053802
f 644 653 654 
f 639 638 642 
f 638 640 644 
f 642 638 644 
f 637 640 647 
f 640 637 648 
f 644 640 648 
f 637 645 648 
f 645 641 648 
f 645 637 649 
f 642 645 649 
f 646 643 650 
f 647 646 650 
f 637 647 650 
f 643 649 650 
f 649 637 650 
f 638 639 651 
f 640 638 651 
f 639 646 651 
f 646 647 651 
f 647 640 651 
f 639 642 652 
f 646 639 652 
f 643 646 652 
f 642 649 652 
f 649 643 652 
f 644 648 653 
f 648 641 653 
f 642 644 654 
f 641 645 654 
f 645 642 654 
f 653 641 654 
o convex_45
v 0.002639 -0.008757 -0.026610
v 0.018065 0.005736 -0.026142
v 0.018065 0.004800 -0.022404
v -0.000635 0.005267 -0.018665
v -0.000635 0.004333 -0.028013
v 0.009649 -0.005016 -0.017729
v -0.000635 -0.007820 -0.018664
v 0.013857 -0.003143 -0.026610
v 0.018065 0.001994 -0.017729
v -0.000635 -0.004079 -0.028013
v 0.012455 0.005736 -0.028013
v 0.012455 0.005267 -0.018665
v 0.004975 -0.008289 -0.022406
v 0.018065 0.002929 -0.026610
v -0.000635 -0.008757 -0.026610
v 0.010115 -0.005951 -0.022406
v 0.006377 0.005736 -0.027544
v 0.008248 -0.006885 -0.026610
v 0.004508 -0.002678 -0.028013
f 662 672 673 
f 660 658 661 
f 658 659 661 
f 656 657 663 
f 658 660 663 
f 661 659 664 
f 664 659 665 
f 657 656 666 
f 656 658 666 
f 663 657 666 
f 658 663 666 
f 660 661 667 
f 663 662 668 
f 656 663 668 
f 662 665 668 
f 665 656 668 
f 664 655 669 
f 661 664 669 
f 667 661 669 
f 655 667 669 
f 663 660 670 
f 662 663 670 
f 660 667 670 
f 658 656 671 
f 659 658 671 
f 656 665 671 
f 665 659 671 
f 667 655 672 
f 662 670 672 
f 670 667 672 
f 655 664 673 
f 665 662 673 
f 664 665 673 
f 672 655 673 
o convex_46
v 0.025546 0.001529 -0.005572
v 0.039571 0.014152 0.004710
v 0.037700 0.014152 0.011725
v 0.025546 0.014152 -0.008378
v 0.029756 0.001529 0.011725
v 0.032092 0.002932 -0.004169
v 0.035362 0.014152 -0.007910
v 0.032091 0.014152 0.011257
v 0.022273 0.002464 -0.008378
v 0.035829 0.004335 0.007516
v 0.038166 0.011346 -0.000899
v 0.030690 0.005269 -0.008378
v 0.037700 0.009008 0.011725
v 0.033496 0.002464 -0.000430
v 0.036764 0.011346 -0.004637
v 0.023209 0.001529 -0.008378
v 0.022273 0.002464 -0.007908
v 0.034895 0.002932 0.003309
v 0.039102 0.011812 0.004245
f 691 684 692 
f 676 675 677 
f 677 675 680 
f 676 677 681 
f 678 676 681 
f 680 675 684 
f 677 680 685 
f 682 677 685 
f 675 676 686 
f 676 678 686 
f 678 683 686 
f 678 674 687 
f 684 687 688 
f 680 684 688 
f 679 685 688 
f 685 680 688 
f 687 679 688 
f 674 678 689 
f 685 679 689 
f 682 685 689 
f 687 674 689 
f 679 687 689 
f 681 677 690 
f 678 681 690 
f 677 682 690 
f 689 678 690 
f 682 689 690 
f 683 678 691 
f 678 687 691 
f 687 684 691 
f 684 675 692 
f 675 686 692 
f 686 683 692 
f 683 691 692 
o convex_47
v -0.019803 0.012282 -0.028014
v -0.009518 0.019762 -0.026612
v -0.009518 0.004801 -0.026612
v -0.025881 0.018359 -0.022404
v -0.015131 0.004801 -0.022404
v -0.025881 0.008074 -0.026144
v -0.024944 0.018359 -0.026612
v -0.015598 0.019762 -0.022404
v -0.021672 0.004801 -0.022404
v -0.015131 0.004801 -0.028014
v -0.009986 0.019762 -0.028014
v -0.025881 0.008074 -0.022404
v -0.022141 0.019762 -0.026612
v -0.009986 0.004801 -0.028014
v -0.021672 0.004801 -0.026612
v -0.016064 0.019762 -0.028014
f 705 703 708 
f 695 694 697 
f 693 698 699 
f 698 696 699 
f 696 697 700 
f 697 694 700 
f 697 696 701 
f 695 697 701 
f 695 701 702 
f 694 695 703 
f 700 694 703 
f 702 693 703 
f 696 698 704 
f 701 696 704 
f 698 701 704 
f 699 696 705 
f 696 700 705 
f 700 703 705 
f 695 702 706 
f 703 695 706 
f 702 703 706 
f 698 693 707 
f 701 698 707 
f 702 701 707 
f 693 702 707 
f 693 699 708 
f 703 693 708 
f 699 705 708 
o convex_48
v -0.012791 -0.061585 0.057075
v -0.018398 -0.045691 0.057541
v -0.018398 -0.045691 0.056607
v 0.003572 -0.050371 0.054737
v 0.001231 -0.052706 0.059880
v -0.026817 -0.052236 0.054269
v 0.003572 -0.062989 0.057542
v -0.017931 -0.048965 0.058944
v -0.000170 -0.047094 0.054269
v 0.003572 -0.053172 0.054269
v -0.012791 -0.061585 0.058009
v -0.026817 -0.047098 0.054269
v -0.001104 -0.048498 0.058477
v -0.006247 -0.062989 0.058477
v -0.018865 -0.058779 0.057075
v -0.017931 -0.047098 0.058944
v 0.003102 -0.062989 0.058477
v -0.025877 -0.053174 0.054269
v -0.000170 -0.054109 0.059880
v -0.026817 -0.052236 0.054738
v 0.003572 -0.057377 0.058009
f 725 715 729 
f 711 710 717 
f 714 717 718 
f 712 715 718 
f 717 712 718 
f 710 711 720 
f 711 717 720 
f 717 714 720 
f 713 712 721 
f 717 710 721 
f 712 717 721 
f 709 715 722 
f 719 709 722 
f 716 719 722 
f 709 719 723 
f 719 716 723 
f 710 720 724 
f 713 721 724 
f 721 710 724 
f 722 715 725 
f 715 709 726 
f 714 718 726 
f 718 715 726 
f 709 723 726 
f 716 722 727 
f 713 724 727 
f 724 716 727 
f 725 713 727 
f 722 725 727 
f 720 714 728 
f 723 716 728 
f 716 724 728 
f 724 720 728 
f 714 726 728 
f 726 723 728 
f 712 713 729 
f 715 712 729 
f 713 725 729 
o convex_49
v -0.031491 0.023502 0.028088
v -0.021674 0.021162 0.039309
v -0.021674 0.023970 0.038841
v -0.030088 0.011814 0.029025
v -0.021674 0.028177 0.036036
v -0.026350 0.016959 0.036504
v -0.021674 0.011814 0.038373
v -0.028685 0.027710 0.028088
v -0.025415 0.028177 0.034633
v -0.031491 0.012282 0.029491
v -0.022142 0.011814 0.039309
v -0.031491 0.020226 0.029491
v -0.025882 0.023502 0.036036
v -0.030088 0.028177 0.028556
v -0.026350 0.011814 0.036036
f 733 740 744 
f 732 731 734 
f 734 731 736 
f 733 730 737 
f 736 733 737 
f 734 736 737 
f 732 734 738 
f 730 733 739 
f 731 735 740 
f 733 736 740 
f 736 731 740 
f 730 739 741 
f 739 735 741 
f 731 732 742 
f 735 731 742 
f 732 738 742 
f 741 735 742 
f 741 742 743 
f 737 730 743 
f 734 737 743 
f 738 734 743 
f 730 741 743 
f 742 738 743 
f 739 733 744 
f 735 739 744 
f 740 735 744 
o convex_50
v -0.030559 -0.034938 0.050997
v -0.044113 -0.031666 0.036504
v -0.043177 -0.033068 0.037907
v -0.020271 -0.031666 0.036505
v -0.020271 -0.039613 0.045853
v -0.037099 -0.039613 0.046789
v -0.034296 -0.031666 0.047724
v -0.020740 -0.039145 0.049592
v -0.020271 -0.031198 0.038843
v -0.040371 -0.031198 0.042583
v -0.030559 -0.032601 0.049594
v -0.033362 -0.039613 0.049594
v -0.038035 -0.038677 0.044451
v -0.032426 -0.033535 0.050529
v -0.044113 -0.031198 0.037440
v -0.020271 -0.038677 0.044450
f 749 757 760 
f 747 746 748 
f 749 748 753 
f 752 749 753 
f 751 753 754 
f 745 752 755 
f 753 751 755 
f 752 753 755 
f 750 749 756 
f 752 745 756 
f 749 752 756 
f 750 747 757 
f 749 750 757 
f 754 750 758 
f 751 754 758 
f 745 755 758 
f 755 751 758 
f 750 756 758 
f 756 745 758 
f 746 747 759 
f 748 746 759 
f 747 750 759 
f 753 748 759 
f 750 754 759 
f 754 753 759 
f 747 748 760 
f 748 749 760 
f 757 747 760 
o convex_51
v -0.000635 -0.009689 -0.018196
v -0.025882 0.008074 -0.022403
v -0.025882 0.008074 -0.018197
v -0.000635 0.019762 -0.021935
v -0.000635 -0.007818 -0.021936
v -0.020736 0.019762 -0.018197
v -0.000635 0.019762 -0.018665
v -0.025882 0.018356 -0.022403
v -0.012322 -0.005481 -0.021936
v -0.016528 -0.002209 -0.018196
v -0.015589 0.019762 -0.022403
v -0.025882 0.018356 -0.018197
v -0.002039 -0.010158 -0.018664
v -0.015127 0.004802 -0.022403
v -0.012322 -0.005481 -0.018196
f 769 773 775 
f 764 761 765 
f 764 766 767 
f 761 764 767 
f 766 761 767 
f 762 763 768 
f 763 762 770 
f 761 766 770 
f 762 769 770 
f 766 764 771 
f 762 768 771 
f 768 766 771 
f 768 763 772 
f 766 768 772 
f 763 770 772 
f 770 766 772 
f 765 761 773 
f 769 765 773 
f 764 765 774 
f 769 762 774 
f 765 769 774 
f 771 764 774 
f 762 771 774 
f 761 770 775 
f 770 769 775 
f 773 761 775 
o convex_52
v 0.030221 -0.039613 0.049594
v 0.026482 -0.031666 0.036504
v 0.026482 -0.031198 0.036504
v 0.040974 -0.031666 0.036504
v 0.027887 -0.032133 0.049126
v 0.017130 -0.039613 0.045853
v 0.017130 -0.031198 0.038844
v 0.017599 -0.039145 0.049593
v 0.034894 -0.038677 0.044448
v 0.036763 -0.031198 0.043053
v 0.028821 -0.035405 0.051464
v 0.017130 -0.033068 0.037908
v 0.033958 -0.039613 0.046788
v 0.030221 -0.031198 0.047256
v 0.040974 -0.031198 0.037439
f 785 788 790 
f 777 778 779 
f 782 781 783 
f 781 776 783 
f 780 782 783 
f 778 782 785 
f 783 776 786 
f 780 783 786 
f 778 777 787 
f 777 779 787 
f 782 778 787 
f 781 782 787 
f 779 784 787 
f 784 781 787 
f 776 781 788 
f 784 779 788 
f 781 784 788 
f 786 776 788 
f 785 786 788 
f 782 780 789 
f 785 782 789 
f 780 786 789 
f 786 785 789 
f 779 778 790 
f 778 785 790 
f 788 779 790 
o convex_53
v -0.040376 -0.023250 0.038839
v -0.044580 -0.031198 0.035568
v -0.036636 -0.031198 0.035568
v -0.046450 -0.017640 0.022478
v -0.036636 -0.025120 0.022478
v -0.049725 -0.025120 0.022478
v -0.043180 -0.025587 0.040244
v -0.036636 -0.023719 0.037906
v -0.039442 -0.031198 0.042581
v -0.049724 -0.019980 0.024349
v -0.045049 -0.017172 0.025284
v -0.036636 -0.023250 0.022478
v -0.046918 -0.017640 0.026219
v -0.045049 -0.030728 0.036032
v -0.036636 -0.031198 0.038370
f 798 799 805 
f 793 792 795 
f 795 792 796 
f 794 795 796 
f 793 795 798 
f 792 793 799 
f 791 797 799 
f 798 791 799 
f 794 796 800 
f 791 798 801 
f 801 798 802 
f 795 794 802 
f 798 795 802 
f 794 801 802 
f 797 791 803 
f 794 800 803 
f 800 797 803 
f 801 794 803 
f 791 801 803 
f 796 792 804 
f 792 799 804 
f 799 797 804 
f 800 796 804 
f 797 800 804 
f 793 798 805 
f 799 793 805 
o convex_54
v -0.036633 -0.023250 0.022478
v -0.023545 -0.030729 0.038370
v -0.030089 -0.030729 0.042581
v -0.036633 -0.031198 0.035566
v -0.036633 -0.025588 0.036501
v -0.023545 -0.025120 0.024349
v -0.023545 -0.025120 0.028090
v -0.036633 -0.025122 0.022478
v -0.023545 -0.031198 0.035564
v -0.031491 -0.023250 0.023883
v -0.036633 -0.031198 0.038370
v -0.023545 -0.029327 0.036967
v -0.031491 -0.025122 0.022478
f 814 813 818 
f 806 809 810 
f 807 811 812 
f 809 806 813 
f 807 808 814 
f 811 807 814 
f 809 813 814 
f 806 810 815 
f 811 806 815 
f 810 812 815 
f 812 811 815 
f 810 809 816 
f 808 810 816 
f 814 808 816 
f 809 814 816 
f 808 807 817 
f 810 808 817 
f 807 812 817 
f 812 810 817 
f 806 811 818 
f 813 806 818 
f 811 814 818 
o convex_55
v -0.023544 -0.015302 0.027150
v -0.031491 -0.025120 0.021076
v -0.031491 -0.024185 0.014998
v -0.023544 -0.025120 0.024347
v -0.028686 -0.015302 0.011725
v -0.031491 -0.024652 0.027150
v -0.027285 -0.023250 0.011725
v -0.023544 -0.021846 0.031361
v -0.028686 -0.015302 0.018739
v -0.031024 -0.018576 0.011725
v -0.024947 -0.015302 0.027150
v -0.024012 -0.018576 0.031361
v -0.023544 -0.025120 0.027150
v -0.031491 -0.023250 0.011725
v -0.026817 -0.021380 0.013128
f 825 823 833 
f 820 821 822 
f 821 820 824 
f 822 821 825 
f 822 819 826 
f 819 823 827 
f 824 827 828 
f 823 825 828 
f 827 823 828 
f 819 827 829 
f 827 824 829 
f 826 819 830 
f 824 826 830 
f 819 829 830 
f 829 824 830 
f 820 822 831 
f 824 820 831 
f 822 826 831 
f 826 824 831 
f 821 824 832 
f 825 821 832 
f 824 828 832 
f 828 825 832 
f 819 822 833 
f 823 819 833 
f 822 825 833 
o convex_56
v -0.017000 -0.015302 0.037437
v -0.023542 -0.023717 0.025283
v -0.023075 -0.023717 0.025283
v -0.016065 -0.021847 0.037904
v -0.023542 -0.021847 0.031828
v -0.023542 -0.015302 0.027622
v -0.015129 -0.021380 0.033230
v -0.020738 -0.015302 0.036034
v -0.015129 -0.015302 0.035099
v -0.015129 -0.023717 0.034165
v -0.023075 -0.021380 0.025283
v -0.020271 -0.019043 0.036501
f 841 838 845 
f 835 838 839 
f 839 838 841 
f 834 839 841 
f 834 837 842 
f 839 834 842 
f 840 842 843 
f 835 836 843 
f 837 838 843 
f 838 835 843 
f 836 840 843 
f 842 837 843 
f 836 835 844 
f 835 839 844 
f 840 836 844 
f 839 842 844 
f 842 840 844 
f 837 834 845 
f 838 837 845 
f 834 841 845 
o convex_57
v -0.014659 -0.023717 0.034634
v -0.002506 -0.015302 0.039309
v -0.002506 -0.018575 0.041179
v -0.015129 -0.018575 0.038372
v -0.015129 -0.015302 0.035101
v -0.002974 -0.023717 0.036972
v -0.009051 -0.021847 0.040711
v -0.014193 -0.021380 0.033699
v -0.002506 -0.016239 0.038372
v -0.008584 -0.015302 0.038840
v -0.002506 -0.021847 0.041179
v -0.015129 -0.021847 0.038372
v -0.009051 -0.018575 0.040711
f 855 849 858 
f 846 851 852 
f 846 850 853 
f 851 846 853 
f 851 853 854 
f 847 848 854 
f 850 847 854 
f 853 850 854 
f 850 849 855 
f 847 850 855 
f 848 852 856 
f 852 851 856 
f 851 854 856 
f 854 848 856 
f 850 846 857 
f 849 850 857 
f 852 849 857 
f 846 852 857 
f 848 847 858 
f 852 848 858 
f 849 852 858 
f 847 855 858 
o convex_58
v 0.011053 -0.015302 0.035569
v -0.002506 -0.031198 0.037438
v 0.008714 -0.030728 0.034634
v 0.005909 -0.021848 0.040711
v -0.002506 -0.016239 0.038373
v 0.011053 -0.031198 0.038373
v -0.002506 -0.021848 0.041179
v 0.010117 -0.021380 0.034166
v 0.007311 -0.018576 0.040243
v 0.001703 -0.015302 0.039308
v 0.011053 -0.030261 0.034166
v 0.011053 -0.018576 0.038373
v -0.002506 -0.031198 0.038373
v -0.002506 -0.021380 0.037440
v -0.002506 -0.018576 0.041179
f 868 863 873 
f 860 861 864 
f 864 862 865 
f 863 860 865 
f 861 860 866 
f 863 859 866 
f 862 864 867 
f 859 863 868 
f 867 859 868 
f 859 864 869 
f 864 861 869 
f 861 866 869 
f 866 859 869 
f 864 859 870 
f 859 867 870 
f 867 864 870 
f 860 864 871 
f 864 865 871 
f 865 860 871 
f 860 863 872 
f 866 860 872 
f 863 866 872 
f 865 862 873 
f 863 865 873 
f 862 867 873 
f 867 868 873 
o convex_59
v 0.018065 0.006670 0.050061
v 0.011053 0.006670 0.045387
v 0.011053 0.006670 0.045854
v 0.013859 -0.008289 0.050996
v 0.018999 -0.006418 0.045854
v 0.018531 -0.002679 0.053334
v 0.013859 -0.002679 0.053334
v 0.016661 0.009476 0.045387
v 0.013859 -0.006418 0.045854
v 0.013859 0.008541 0.049593
v 0.020403 -0.006418 0.050529
v 0.011989 -0.006418 0.050061
v 0.020403 -0.002679 0.048660
v 0.011053 0.009476 0.045854
v 0.017597 -0.008289 0.051932
v 0.017597 -0.008289 0.046789
v 0.017129 0.005736 0.051464
v 0.013859 -0.006418 0.053334
f 888 879 891 
f 878 875 881 
f 875 878 882 
f 874 881 883 
f 874 879 884 
f 876 875 885 
f 875 882 885 
f 882 877 885 
f 881 874 886 
f 878 881 886 
f 884 878 886 
f 874 884 886 
f 875 876 887 
f 881 875 887 
f 880 883 887 
f 883 881 887 
f 876 885 887 
f 885 880 887 
f 884 879 888 
f 884 888 889 
f 877 882 889 
f 882 878 889 
f 878 884 889 
f 888 877 889 
f 879 874 890 
f 880 879 890 
f 874 883 890 
f 883 880 890 
f 879 880 891 
f 880 885 891 
f 885 877 891 
f 877 888 891 
o convex_60
v 0.028817 -0.030730 0.041646
v 0.020404 -0.025588 0.024348
v 0.020404 -0.024654 0.024348
v 0.011053 -0.031196 0.038373
v 0.011053 -0.024654 0.034632
v 0.033494 -0.025588 0.036501
v 0.033494 -0.031198 0.035564
v 0.028817 -0.025120 0.024348
v 0.011053 -0.030262 0.033697
v 0.026948 -0.030730 0.042581
v 0.033494 -0.027925 0.029024
v 0.033494 -0.031198 0.038371
v 0.033494 -0.026056 0.029024
v 0.011053 -0.031196 0.035567
f 900 898 905 
f 894 896 897 
f 893 894 899 
f 894 897 899 
f 894 893 900 
f 895 896 900 
f 896 894 900 
f 893 898 900 
f 896 895 901 
f 892 897 901 
f 897 896 901 
f 898 893 902 
f 897 898 902 
f 893 899 902 
f 897 892 903 
f 895 898 903 
f 898 897 903 
f 901 895 903 
f 892 901 903 
f 899 897 904 
f 897 902 904 
f 902 899 904 
f 898 895 905 
f 895 900 905 
o convex_61
v 0.011053 -0.021846 0.038374
v 0.020870 -0.018576 0.031361
v 0.020870 -0.021846 0.031361
v 0.020402 -0.024652 0.024348
v 0.011053 -0.015302 0.035568
v 0.020870 -0.015302 0.026686
v 0.011053 -0.024652 0.033698
v 0.013858 -0.018576 0.037437
v 0.020402 -0.021378 0.024348
v 0.018064 -0.015302 0.031828
v 0.016662 -0.024652 0.030896
v 0.013858 -0.021846 0.037437
f 916 908 917 
f 907 908 911 
f 908 909 911 
f 906 910 912 
f 908 907 913 
f 910 906 913 
f 910 911 914 
f 911 909 914 
f 909 912 914 
f 912 910 914 
f 907 911 915 
f 911 910 915 
f 913 907 915 
f 910 913 915 
f 909 908 916 
f 912 909 916 
f 912 916 917 
f 906 912 917 
f 913 906 917 
f 908 913 917 
o convex_62
v -0.024480 -0.014832 0.028090
v -0.021674 0.011814 0.039309
v -0.022142 0.011814 0.039309
v -0.031959 0.011814 0.027621
v -0.023546 -0.012964 0.027621
v -0.025882 0.008072 0.035568
v -0.022142 -0.014365 0.031362
v -0.021674 0.011344 0.037906
v -0.031023 0.011814 0.027621
v -0.030556 0.005736 0.028557
v -0.021674 -0.014832 0.029491
v -0.029153 0.011814 0.032297
f 927 923 929 
f 920 919 921 
f 918 921 922 
f 919 920 924 
f 920 923 924 
f 921 919 926 
f 922 921 926 
f 919 925 926 
f 925 922 926 
f 921 918 927 
f 918 924 927 
f 924 923 927 
f 918 922 928 
f 919 924 928 
f 924 918 928 
f 925 919 928 
f 922 925 928 
f 920 921 929 
f 923 920 929 
f 921 927 929 
o convex_63
v 0.026013 -0.015302 0.015000
v 0.021806 -0.025120 0.021075
v 0.028818 -0.025120 0.021075
v 0.021339 -0.018576 0.030426
v 0.024144 -0.023250 0.011725
v 0.028818 -0.024652 0.027153
v 0.020870 -0.015302 0.027620
v 0.028818 -0.021846 0.011725
v 0.020870 -0.025120 0.027153
v 0.025545 -0.015302 0.011725
v 0.022742 -0.015302 0.025749
v 0.020870 -0.021380 0.023413
v 0.028818 -0.023717 0.012196
v 0.020870 -0.021846 0.030426
v 0.023676 -0.021380 0.012662
v 0.027883 -0.018576 0.015000
v 0.025078 -0.015302 0.020142
v 0.020870 -0.015302 0.026217
f 944 941 947 
f 935 932 937 
f 931 932 938 
f 932 935 938 
f 936 930 939 
f 937 934 939 
f 933 935 940 
f 936 933 940 
f 930 936 940 
f 931 938 941 
f 938 936 941 
f 932 931 942 
f 931 934 942 
f 934 937 942 
f 937 932 942 
f 935 933 943 
f 933 936 943 
f 938 935 943 
f 936 938 943 
f 934 931 944 
f 939 934 944 
f 931 941 944 
f 935 937 945 
f 939 930 945 
f 937 939 945 
f 930 940 946 
f 940 935 946 
f 945 930 946 
f 935 945 946 
f 936 939 947 
f 941 936 947 
f 939 944 947 
o convex_64
v -0.027286 -0.006883 0.027621
v -0.031023 0.011814 0.027621
v -0.031023 0.011814 0.027152
v -0.035231 0.006670 0.011725
v -0.023547 -0.014362 0.027152
v -0.028688 -0.015302 0.019206
v -0.029156 -0.012491 0.011725
v -0.034764 0.010877 0.021075
v -0.033828 0.006203 0.011725
v -0.029623 -0.015302 0.011725
v -0.031491 0.008072 0.027621
v -0.025416 -0.015299 0.026684
v -0.034295 0.011814 0.019206
f 956 951 960 
f 949 948 952 
f 950 949 952 
f 951 953 955 
f 950 952 956 
f 952 954 956 
f 954 951 956 
f 953 951 957 
f 954 952 957 
f 951 954 957 
f 948 949 958 
f 949 955 958 
f 955 953 958 
f 952 948 959 
f 953 957 959 
f 957 952 959 
f 948 958 959 
f 958 953 959 
f 949 950 960 
f 955 949 960 
f 951 955 960 
f 950 956 960 
o convex_65
v -0.032894 0.028175 0.015932
v -0.041777 0.016491 0.011725
v -0.040841 0.009480 0.011725
v -0.035233 0.011817 0.019205
v -0.034298 0.007141 0.011725
v -0.033831 0.028175 0.011725
v -0.041309 0.023032 0.014064
v -0.033363 0.007141 0.019205
v -0.033363 0.028175 0.019205
v -0.040841 0.026771 0.011725
v -0.041777 0.016958 0.014530
v -0.034298 0.007141 0.019205
v -0.035233 0.020695 0.019205
f 971 964 973 
f 963 962 965 
f 961 965 966 
f 965 962 966 
f 965 961 968 
f 961 966 969 
f 964 968 969 
f 968 961 969 
f 966 962 970 
f 962 967 970 
f 969 966 970 
f 967 969 970 
f 962 963 971 
f 967 962 971 
f 963 965 972 
f 968 964 972 
f 965 968 972 
f 971 963 972 
f 964 971 972 
f 964 969 973 
f 969 967 973 
f 967 971 973 
o convex_66
v -0.015130 0.028177 0.041645
v -0.021674 0.012749 0.038842
v -0.021206 0.012749 0.038842
v -0.021674 0.028177 0.036504
v -0.009518 0.027708 0.042581
v -0.018868 0.018361 0.042113
v -0.014196 0.012749 0.043049
v -0.021674 0.023500 0.039309
v -0.014662 0.023967 0.043049
v -0.021206 0.012749 0.040243
v -0.021206 0.027241 0.036504
f 978 976 984 
f 977 974 978 
f 975 976 980 
f 976 978 980 
f 977 975 981 
f 974 977 981 
f 981 979 982 
f 978 974 982 
f 980 978 982 
f 979 980 982 
f 974 981 982 
f 975 980 983 
f 980 979 983 
f 981 975 983 
f 979 981 983 
f 976 975 984 
f 975 977 984 
f 977 978 984 
o convex_67
v -0.000636 0.000134 0.043049
v -0.003439 0.028177 0.044452
v -0.001102 0.027233 0.044918
v 0.015724 0.009478 0.043049
v -0.001102 0.011817 0.046322
v -0.012788 0.024900 0.043049
v 0.017127 0.006673 0.045386
v 0.007778 0.027703 0.043049
v -0.012788 0.007609 0.044452
v -0.010917 0.018356 0.045386
v -0.000168 0.023494 0.045854
v -0.012788 0.006676 0.043049
v -0.002502 0.000134 0.043517
v 0.007310 0.023028 0.044918
v 0.015259 0.004804 0.045386
v 0.014790 0.005737 0.043049
v -0.010451 0.028177 0.043517
v -0.002036 0.020222 0.046322
v 0.016662 0.009012 0.045386
v -0.002502 0.007145 0.045386
v -0.009982 0.023497 0.044918
f 1002 995 1005 
f 988 985 990 
f 986 987 992 
f 988 990 992 
f 990 993 994 
f 993 989 994 
f 990 985 996 
f 993 990 996 
f 993 996 997 
f 996 985 997 
f 992 987 998 
f 987 995 998 
f 991 989 999 
f 997 985 999 
f 985 988 1000 
f 988 991 1000 
f 999 985 1000 
f 991 999 1000 
f 986 992 1001 
f 992 990 1001 
f 989 991 1002 
f 994 989 1002 
f 991 988 1003 
f 988 992 1003 
f 992 998 1003 
f 998 995 1003 
f 1002 991 1003 
f 995 1002 1003 
f 989 993 1004 
f 993 997 1004 
f 999 989 1004 
f 997 999 1004 
f 987 986 1005 
f 990 994 1005 
f 995 987 1005 
f 986 1001 1005 
f 1001 990 1005 
f 994 1002 1005 
o convex_68
v -0.020740 0.042203 0.025750
v -0.036635 0.028177 0.011725
v -0.036635 0.028177 0.012196
v -0.029154 0.028177 0.028088
v -0.019336 0.045474 0.011725
v -0.028217 0.037996 0.019210
v -0.033360 0.028177 0.011725
v -0.019336 0.040333 0.027150
v -0.025882 0.041733 0.011725
v -0.028219 0.032852 0.027617
v -0.019805 0.045943 0.016868
v -0.019336 0.041265 0.028088
v -0.024948 0.041733 0.018742
v -0.024948 0.037996 0.026685
v -0.030090 0.028647 0.028088
v -0.036635 0.028647 0.012196
v -0.030556 0.033789 0.021071
f 1011 1021 1022 
f 1008 1007 1009 
f 1009 1007 1012 
f 1007 1010 1012 
f 1012 1010 1013 
f 1009 1012 1013 
f 1010 1007 1014 
f 1010 1014 1016 
f 1013 1010 1017 
f 1009 1013 1017 
f 1016 1006 1017 
f 1010 1016 1017 
f 1014 1011 1018 
f 1006 1016 1018 
f 1016 1014 1018 
f 1015 1017 1019 
f 1017 1006 1019 
f 1006 1018 1019 
f 1018 1011 1019 
f 1008 1009 1020 
f 1009 1017 1020 
f 1017 1015 1020 
f 1007 1008 1021 
f 1014 1007 1021 
f 1011 1014 1021 
f 1008 1020 1021 
f 1021 1020 1022 
f 1019 1011 1022 
f 1015 1019 1022 
f 1020 1015 1022 
o convex_69
v 0.013391 0.016491 0.043049
v 0.021805 0.027709 0.035101
v 0.022272 0.026773 0.035101
v 0.023207 0.014621 0.034634
v 0.006845 0.027241 0.042581
v 0.016195 0.023034 0.041178
v 0.011522 0.014621 0.042581
v 0.021805 0.014621 0.037439
v 0.020868 0.026306 0.034634
v 0.008716 0.027709 0.043049
v 0.023207 0.020698 0.036036
v 0.015260 0.027709 0.040243
v 0.015728 0.018360 0.042113
f 1030 1033 1035 
f 1027 1026 1029 
f 1023 1029 1030 
f 1029 1026 1030 
f 1024 1025 1031 
f 1025 1026 1031 
f 1026 1027 1031 
f 1027 1024 1031 
f 1024 1027 1032 
f 1029 1023 1032 
f 1027 1029 1032 
f 1026 1025 1033 
f 1025 1028 1033 
f 1030 1026 1033 
f 1025 1024 1034 
f 1028 1025 1034 
f 1024 1032 1034 
f 1032 1028 1034 
f 1023 1030 1035 
f 1028 1032 1035 
f 1032 1023 1035 
f 1033 1028 1035 
o convex_70
v -0.012790 0.045007 0.028557
v -0.003441 0.029115 0.043984
v -0.003441 0.031450 0.043047
v -0.017934 0.028646 0.040242
v -0.003441 0.045941 0.028088
v -0.008119 0.040330 0.036504
v -0.016997 0.028177 0.039308
v -0.017934 0.041268 0.028088
v -0.016531 0.037995 0.035103
v -0.004377 0.028177 0.043047
v -0.010454 0.033321 0.041177
v -0.003441 0.045007 0.031829
v -0.003441 0.037061 0.039775
v -0.009986 0.028177 0.043516
v -0.017934 0.040801 0.030895
v -0.012790 0.042201 0.032764
f 1036 1050 1051 
f 1038 1037 1040 
f 1040 1042 1043 
f 1036 1040 1043 
f 1042 1039 1043 
f 1040 1037 1045 
f 1042 1040 1045 
f 1044 1039 1046 
f 1041 1044 1046 
f 1040 1036 1047 
f 1038 1040 1047 
f 1047 1041 1048 
f 1046 1038 1048 
f 1041 1046 1048 
f 1038 1047 1048 
f 1037 1038 1049 
f 1039 1042 1049 
f 1045 1037 1049 
f 1042 1045 1049 
f 1038 1046 1049 
f 1046 1039 1049 
f 1036 1043 1050 
f 1043 1039 1050 
f 1039 1044 1050 
f 1050 1044 1051 
f 1044 1041 1051 
f 1047 1036 1051 
f 1041 1047 1051 
o convex_71
v -0.035231 0.012282 0.019674
v -0.029155 0.028177 0.028088
v -0.030090 0.028177 0.028088
v -0.033361 0.028177 0.019205
v -0.032426 0.019297 0.027620
v -0.031025 0.011814 0.027620
v -0.034296 0.011814 0.019205
v -0.034764 0.023033 0.020610
v -0.032426 0.027710 0.019674
v -0.031960 0.011814 0.028088
v -0.035231 0.016959 0.021076
f 1061 1056 1062 
f 1054 1053 1055 
f 1052 1055 1058 
f 1054 1055 1059 
f 1055 1052 1059 
f 1056 1054 1059 
f 1055 1053 1060 
f 1053 1057 1060 
f 1057 1058 1060 
f 1058 1055 1060 
f 1053 1054 1061 
f 1054 1056 1061 
f 1057 1053 1061 
f 1052 1058 1061 
f 1058 1057 1061 
f 1059 1052 1062 
f 1056 1059 1062 
f 1052 1061 1062 
o convex_72
v 0.025547 -0.014366 0.011725
v 0.028350 0.007139 0.025751
v 0.028817 0.007139 0.025283
v 0.022741 -0.015302 0.025751
v 0.028350 -0.010623 0.019673
v 0.031623 0.007139 0.011725
v 0.025079 -0.001744 0.025283
v 0.028350 -0.011091 0.011725
v 0.030688 0.006671 0.012193
v 0.021806 -0.014366 0.025283
v 0.030688 0.006671 0.021073
v 0.026481 -0.015302 0.012193
v 0.027415 0.006671 0.025751
v 0.031623 0.005735 0.012661
v 0.025547 -0.015302 0.019203
f 1074 1067 1077 
f 1065 1064 1066 
f 1065 1066 1067 
f 1064 1065 1068 
f 1063 1068 1070 
f 1068 1063 1071 
f 1069 1071 1072 
f 1071 1063 1072 
f 1065 1067 1073 
f 1068 1065 1073 
f 1063 1070 1074 
f 1070 1067 1074 
f 1066 1072 1074 
f 1072 1063 1074 
f 1066 1064 1075 
f 1064 1068 1075 
f 1068 1071 1075 
f 1071 1069 1075 
f 1069 1072 1075 
f 1072 1066 1075 
f 1067 1070 1076 
f 1070 1068 1076 
f 1073 1067 1076 
f 1068 1073 1076 
f 1067 1066 1077 
f 1066 1074 1077 
o convex_73
v 0.027414 0.002460 0.026219
v 0.013390 -0.015302 0.034165
v 0.020870 -0.015302 0.026219
v 0.018533 -0.014366 0.031828
v 0.022741 0.007139 0.034634
v 0.027414 0.007139 0.025751
v 0.021336 0.006203 0.034165
v 0.022741 -0.014834 0.026219
v 0.026948 0.006671 0.029492
v 0.013390 -0.013898 0.034165
v 0.014793 -0.014834 0.034634
v 0.022741 0.005735 0.034634
f 1082 1088 1089 
f 1082 1083 1084 
f 1079 1080 1085 
f 1083 1078 1085 
f 1080 1083 1085 
f 1083 1082 1086 
f 1078 1083 1086 
f 1085 1078 1086 
f 1080 1079 1087 
f 1083 1080 1087 
f 1082 1084 1087 
f 1084 1083 1087 
f 1079 1085 1088 
f 1085 1081 1088 
f 1087 1079 1088 
f 1082 1087 1088 
f 1081 1085 1089 
f 1086 1082 1089 
f 1085 1086 1089 
f 1088 1081 1089 
o convex_74
v 0.038168 0.011815 0.012660
v 0.029753 0.026304 0.018737
v 0.029753 0.026304 0.019673
v 0.030222 0.007139 0.017803
v 0.030690 0.027710 0.011725
v 0.031157 0.007139 0.011725
v 0.037701 0.026774 0.011725
v 0.032091 0.012751 0.019673
v 0.038168 0.021164 0.014530
v 0.037701 0.009477 0.011725
v 0.030222 0.027710 0.019673
v 0.030690 0.007139 0.019673
v 0.038168 0.013218 0.014064
v 0.029753 0.027241 0.016400
v 0.031625 0.023501 0.019673
f 1098 1100 1104 
f 1092 1091 1093 
f 1095 1094 1096 
f 1090 1096 1098 
f 1095 1096 1099 
f 1096 1090 1099 
f 1096 1094 1100 
f 1092 1097 1100 
f 1098 1096 1100 
f 1092 1093 1101 
f 1093 1095 1101 
f 1097 1092 1101 
f 1095 1099 1101 
f 1101 1099 1102 
f 1090 1098 1102 
f 1098 1097 1102 
f 1099 1090 1102 
f 1097 1101 1102 
f 1091 1092 1103 
f 1093 1091 1103 
f 1095 1093 1103 
f 1094 1095 1103 
f 1092 1100 1103 
f 1100 1094 1103 
f 1097 1098 1104 
f 1100 1097 1104 
o convex_75
v 0.020868 0.019762 -0.017729
v 0.020868 0.033320 -0.008378
v 0.021338 0.032852 -0.008378
v 0.022272 0.019762 -0.011651
v 0.007312 0.032852 -0.017260
v 0.014327 0.029579 -0.017729
v 0.021338 0.021166 -0.017729
v 0.019933 0.032385 -0.008378
v 0.019933 0.019762 -0.013520
v 0.008249 0.032852 -0.015858
v 0.019933 0.033320 -0.010249
v 0.022741 0.030513 -0.008847
v 0.009650 0.033320 -0.017729
v 0.016194 0.023035 -0.017729
f 1109 1117 1118 
f 1108 1105 1111 
f 1105 1110 1111 
f 1107 1106 1112 
f 1105 1108 1113 
f 1109 1113 1114 
f 1112 1106 1114 
f 1108 1112 1114 
f 1113 1108 1114 
f 1106 1107 1115 
f 1111 1110 1115 
f 1111 1115 1116 
f 1108 1111 1116 
f 1107 1112 1116 
f 1112 1108 1116 
f 1115 1107 1116 
f 1110 1105 1117 
f 1109 1114 1117 
f 1114 1106 1117 
f 1106 1115 1117 
f 1115 1110 1117 
f 1105 1113 1118 
f 1113 1109 1118 
f 1117 1105 1118 
o convex_76
v 0.011051 0.046411 0.024813
v -0.003441 0.050617 0.011725
v -0.003441 0.045945 0.028088
v 0.013856 0.041736 0.027620
v 0.014325 0.046877 0.011725
v 0.003105 0.050617 0.017340
v -0.002971 0.047346 0.028088
v 0.009181 0.049683 0.011725
v 0.014325 0.042672 0.028556
v 0.013388 0.047813 0.016401
v 0.003105 0.047346 0.027620
v -0.003441 0.050150 0.020605
v 0.013856 0.046411 0.012193
v 0.004508 0.049682 0.021071
v 0.002169 0.051086 0.011725
f 1130 1124 1133 
f 1121 1120 1122 
f 1123 1120 1126 
f 1121 1122 1127 
f 1122 1123 1127 
f 1125 1121 1127 
f 1123 1126 1128 
f 1126 1124 1128 
f 1119 1127 1128 
f 1127 1123 1128 
f 1127 1119 1129 
f 1125 1127 1129 
f 1120 1121 1130 
f 1121 1125 1130 
f 1125 1129 1130 
f 1122 1120 1131 
f 1123 1122 1131 
f 1120 1123 1131 
f 1119 1128 1132 
f 1128 1124 1132 
f 1129 1119 1132 
f 1124 1130 1132 
f 1130 1129 1132 
f 1126 1120 1133 
f 1124 1126 1133 
f 1120 1130 1133 
o convex_77
v -0.025883 0.018359 -0.011651
v -0.040375 0.011346 -0.003705
v -0.039907 0.011346 -0.004639
v -0.025883 0.000594 -0.006976
v -0.032427 0.001061 -0.011182
v -0.031959 0.018359 -0.003236
v -0.032427 0.018359 -0.013988
v -0.029623 0.000594 -0.003236
v -0.038970 0.018359 -0.007910
v -0.025883 0.011814 -0.012585
v -0.035232 0.002933 -0.003237
v -0.027285 0.001061 -0.010715
v -0.031491 0.014151 -0.014456
v -0.040375 0.012746 -0.003237
v -0.028688 0.001997 -0.003236
v -0.038970 0.016019 -0.007910
v -0.028221 0.018359 -0.013988
f 1146 1140 1150 
f 1135 1136 1138 
f 1139 1134 1140 
f 1138 1137 1141 
f 1139 1140 1142 
f 1134 1137 1143 
f 1135 1138 1144 
f 1138 1141 1144 
f 1137 1138 1145 
f 1143 1137 1145 
f 1143 1145 1146 
f 1145 1138 1146 
f 1141 1139 1147 
f 1142 1135 1147 
f 1139 1142 1147 
f 1135 1144 1147 
f 1144 1141 1147 
f 1137 1134 1148 
f 1134 1139 1148 
f 1141 1137 1148 
f 1139 1141 1148 
f 1136 1135 1149 
f 1138 1136 1149 
f 1135 1142 1149 
f 1142 1140 1149 
f 1140 1146 1149 
f 1146 1138 1149 
f 1140 1134 1150 
f 1134 1143 1150 
f 1143 1146 1150 
o convex_78
v 0.004042 0.038930 0.037904
v -0.003441 0.027710 0.043515
v 0.013390 0.027710 0.039777
v -0.003441 0.045941 0.028556
v 0.014325 0.042201 0.028556
v -0.002505 0.033791 0.042113
v 0.013390 0.029114 0.040711
v -0.001102 0.045474 0.031363
v 0.011518 0.041735 0.032298
v 0.006842 0.028645 0.043515
v 0.014325 0.034257 0.037437
v -0.003441 0.038930 0.038372
v 0.013857 0.041266 0.028556
v 0.005908 0.045941 0.029026
v 0.006376 0.033791 0.041178
v 0.004976 0.042201 0.034636
v -0.003441 0.027710 0.044452
v 0.007310 0.037995 0.037904
v 0.014325 0.027710 0.040244
f 1160 1167 1169 
f 1153 1152 1154 
f 1155 1159 1161 
f 1154 1152 1162 
f 1156 1151 1162 
f 1158 1154 1162 
f 1153 1154 1163 
f 1154 1155 1163 
f 1155 1154 1164 
f 1154 1158 1164 
f 1159 1155 1164 
f 1151 1156 1165 
f 1156 1160 1165 
f 1160 1157 1165 
f 1157 1161 1165 
f 1162 1151 1166 
f 1158 1162 1166 
f 1164 1158 1166 
f 1159 1164 1166 
f 1152 1153 1167 
f 1160 1156 1167 
f 1162 1152 1167 
f 1156 1162 1167 
f 1161 1159 1168 
f 1151 1165 1168 
f 1165 1161 1168 
f 1166 1151 1168 
f 1159 1166 1168 
f 1157 1160 1169 
f 1161 1157 1169 
f 1155 1161 1169 
f 1153 1163 1169 
f 1163 1155 1169 
f 1167 1153 1169 
o convex_79
v -0.021674 -0.015302 0.029960
v -0.014194 0.012749 0.043048
v -0.016064 0.012749 0.043048
v -0.013726 -0.015302 0.036970
v -0.017933 0.006670 0.043048
v -0.021674 0.012749 0.038840
v -0.021674 -0.014366 0.031830
v -0.013259 -0.013899 0.036037
v -0.013726 0.012280 0.042580
v -0.013259 0.005736 0.043048
v -0.021206 -0.014832 0.029960
v -0.021674 0.011813 0.039776
v -0.016531 -0.015302 0.035570
v -0.021206 0.011813 0.038373
f 1178 1180 1183 
f 1171 1172 1174 
f 1172 1171 1175 
f 1175 1170 1176 
f 1173 1170 1177 
f 1175 1171 1178 
f 1174 1173 1179 
f 1171 1174 1179 
f 1173 1177 1179 
f 1177 1178 1179 
f 1178 1171 1179 
f 1177 1170 1180 
f 1178 1177 1180 
f 1174 1172 1181 
f 1172 1175 1181 
f 1176 1174 1181 
f 1175 1176 1181 
f 1170 1173 1182 
f 1173 1174 1182 
f 1174 1176 1182 
f 1176 1170 1182 
f 1170 1175 1183 
f 1175 1178 1183 
f 1180 1170 1183 
o convex_80
v 0.021338 0.036124 0.026217
v 0.034896 0.028179 0.012193
v 0.034896 0.027710 0.012193
v 0.026015 0.036124 0.011725
v 0.030219 0.027710 0.012193
v 0.027416 0.027710 0.027153
v 0.023211 0.036593 0.026217
v 0.026015 0.036593 0.019208
v 0.026483 0.027710 0.026217
v 0.026949 0.036593 0.011725
v 0.025079 0.033319 0.027153
f 1185 1190 1194 
f 1184 1187 1188 
f 1187 1186 1188 
f 1188 1186 1189 
f 1186 1185 1189 
f 1190 1185 1191 
f 1184 1188 1192 
f 1188 1189 1192 
f 1189 1184 1192 
f 1185 1186 1193 
f 1186 1187 1193 
f 1187 1184 1193 
f 1184 1190 1193 
f 1190 1191 1193 
f 1191 1185 1193 
f 1189 1185 1194 
f 1184 1189 1194 
f 1190 1184 1194 
o convex_81
v 0.014325 0.045943 0.021073
v 0.026481 0.037062 0.013598
v 0.026013 0.037530 0.014999
v 0.020869 0.036593 0.027153
v 0.014325 0.046409 0.011725
v 0.021337 0.042202 0.018272
v 0.025545 0.036593 0.011725
v 0.014325 0.042202 0.026217
v 0.021805 0.037530 0.027153
v 0.018534 0.045008 0.011725
v 0.015728 0.042669 0.027153
v 0.025078 0.037062 0.021073
v 0.019001 0.042202 0.023879
v 0.015728 0.046409 0.016870
f 1207 1200 1208 
f 1199 1201 1202 
f 1195 1199 1202 
f 1201 1198 1202 
f 1197 1196 1204 
f 1200 1197 1204 
f 1196 1201 1204 
f 1201 1199 1204 
f 1195 1202 1205 
f 1202 1198 1205 
f 1198 1203 1205 
f 1196 1197 1206 
f 1197 1200 1206 
f 1201 1196 1206 
f 1198 1201 1206 
f 1203 1198 1206 
f 1203 1206 1207 
f 1195 1205 1207 
f 1205 1203 1207 
f 1206 1200 1207 
f 1199 1195 1208 
f 1204 1199 1208 
f 1200 1204 1208 
f 1195 1207 1208 
o convex_82
v -0.049258 -0.025587 -0.001833
v -0.041307 -0.029795 -0.017261
v -0.042712 -0.029795 -0.015858
v -0.032427 -0.026055 -0.001833
v -0.040842 -0.025587 -0.015858
v -0.032427 -0.029795 -0.009316
v -0.032427 -0.029327 -0.017261
v -0.045984 -0.029795 -0.009316
v -0.032427 -0.025587 -0.005574
v -0.043177 -0.025587 -0.015858
v -0.036168 -0.025587 -0.013052
v -0.049258 -0.026055 -0.001833
f 1218 1216 1220 
f 1211 1210 1214 
f 1212 1214 1215 
f 1214 1210 1215 
f 1211 1214 1216 
f 1214 1212 1216 
f 1209 1212 1217 
f 1213 1209 1217 
f 1212 1215 1217 
f 1210 1211 1218 
f 1209 1213 1218 
f 1213 1215 1218 
f 1215 1210 1218 
f 1211 1216 1218 
f 1215 1213 1219 
f 1213 1217 1219 
f 1217 1215 1219 
f 1212 1209 1220 
f 1216 1212 1220 
f 1209 1218 1220 
o convex_83
v 0.016195 -0.029327 -0.013521
v 0.027883 -0.025120 -0.000430
v 0.020871 -0.025120 -0.000430
v 0.016195 -0.025120 -0.006976
v 0.027883 -0.029795 -0.013521
v 0.016195 -0.029795 -0.009312
v 0.027883 -0.025120 -0.004640
v 0.027883 -0.029795 -0.009312
v 0.027883 -0.029327 -0.013521
v 0.020871 -0.025588 -0.000430
f 1226 1228 1230 
f 1223 1222 1224 
f 1224 1221 1226 
f 1221 1225 1226 
f 1224 1222 1227 
f 1222 1225 1227 
f 1225 1222 1228 
f 1226 1225 1228 
f 1221 1224 1229 
f 1225 1221 1229 
f 1224 1227 1229 
f 1227 1225 1229 
f 1222 1223 1230 
f 1223 1224 1230 
f 1224 1226 1230 
f 1228 1222 1230 
o convex_84
v 0.046117 -0.021847 -0.001366
v 0.029288 -0.029794 -0.017261
v 0.027883 -0.029795 -0.011182
v 0.042842 -0.029795 -0.009313
v 0.037232 -0.023251 -0.014454
v 0.027883 -0.023719 -0.001366
v 0.046117 -0.026055 -0.001834
v 0.040036 -0.025589 -0.015858
v 0.027883 -0.026055 -0.001834
v 0.038167 -0.029794 -0.017261
v 0.033962 -0.023251 -0.013054
v 0.036768 -0.021847 -0.005106
v 0.045181 -0.021847 -0.004641
v 0.027883 -0.029795 -0.009313
v 0.041440 -0.029794 -0.013521
v 0.029288 -0.029327 -0.017261
f 1236 1241 1246 
f 1231 1236 1237 
f 1236 1233 1239 
f 1237 1236 1239 
f 1234 1237 1239 
f 1233 1232 1240 
f 1234 1233 1240 
f 1241 1236 1242 
f 1236 1231 1242 
f 1235 1241 1242 
f 1235 1242 1243 
f 1231 1237 1243 
f 1238 1235 1243 
f 1242 1231 1243 
f 1233 1234 1244 
f 1239 1233 1244 
f 1234 1239 1244 
f 1237 1234 1245 
f 1234 1240 1245 
f 1240 1238 1245 
f 1243 1237 1245 
f 1238 1243 1245 
f 1232 1233 1246 
f 1233 1236 1246 
f 1235 1238 1246 
f 1240 1232 1246 
f 1238 1240 1246 
f 1241 1235 1246 
o convex_85
v 0.045182 -0.015770 0.012661
v 0.036766 -0.027458 0.028087
v 0.044713 -0.027458 0.028087
v 0.040508 -0.018577 0.028087
v 0.036766 -0.023247 0.011725
v 0.047987 -0.023716 0.012194
v 0.046583 -0.019980 0.023879
v 0.036766 -0.022314 0.029023
v 0.043311 -0.015770 0.011725
v 0.047987 -0.018109 0.011725
v 0.043777 -0.017641 0.026216
v 0.044713 -0.022314 0.029023
v 0.036766 -0.021845 0.011725
v 0.044713 -0.027458 0.029023
v 0.040976 -0.017641 0.025281
v 0.046115 -0.026053 0.025750
v 0.036766 -0.023716 0.012194
f 1251 1252 1263 
f 1249 1248 1252 
f 1251 1248 1254 
f 1252 1251 1256 
f 1253 1252 1256 
f 1251 1255 1256 
f 1255 1247 1256 
f 1253 1256 1257 
f 1256 1247 1257 
f 1250 1254 1258 
f 1257 1250 1258 
f 1253 1257 1258 
f 1251 1254 1259 
f 1255 1251 1259 
f 1248 1249 1260 
f 1254 1248 1260 
f 1258 1254 1260 
f 1254 1250 1261 
f 1247 1255 1261 
f 1250 1257 1261 
f 1257 1247 1261 
f 1259 1254 1261 
f 1255 1259 1261 
f 1249 1252 1262 
f 1252 1253 1262 
f 1253 1258 1262 
f 1260 1249 1262 
f 1258 1260 1262 
f 1248 1251 1263 
f 1252 1248 1263 
o convex_86
v -0.031494 0.033320 0.011725
v -0.043180 0.018359 0.003778
v -0.043180 0.018359 0.004712
v -0.034298 0.018359 0.002375
v -0.037568 0.033320 0.002375
v -0.041307 0.018359 0.011725
v -0.029623 0.033320 0.002375
v -0.040373 0.028643 0.010790
v -0.035234 0.018359 0.010790
v -0.041776 0.024906 0.002375
v -0.038971 0.031917 0.007050
v -0.040840 0.026774 0.011725
v -0.035701 0.018359 0.011725
v -0.029623 0.032852 0.003310
v -0.031026 0.032852 0.011256
f 1277 1270 1278 
f 1266 1265 1267 
f 1266 1267 1269 
f 1268 1264 1270 
f 1267 1268 1270 
f 1269 1267 1272 
f 1265 1266 1273 
f 1267 1265 1273 
f 1268 1267 1273 
f 1273 1271 1274 
f 1264 1268 1274 
f 1271 1264 1274 
f 1268 1273 1274 
f 1266 1269 1275 
f 1269 1264 1275 
f 1264 1271 1275 
f 1273 1266 1275 
f 1271 1273 1275 
f 1264 1269 1276 
f 1269 1272 1276 
f 1267 1270 1277 
f 1272 1267 1277 
f 1272 1277 1278 
f 1270 1264 1278 
f 1264 1276 1278 
f 1276 1272 1278 
o convex_87
v -0.003443 -0.015299 -0.014924
v -0.025882 0.008074 -0.018196
v -0.025882 0.008074 -0.014456
v -0.000635 -0.009220 -0.018196
v -0.009987 -0.015770 -0.014924
v -0.022140 0.008540 -0.014456
v -0.009052 -0.008286 -0.018196
v -0.021206 0.008540 -0.018196
v -0.000635 -0.010157 -0.016326
v -0.001105 -0.015299 -0.016326
v -0.006715 -0.015770 -0.014456
v -0.000635 -0.013899 -0.015391
v -0.016528 -0.002213 -0.018196
v -0.021206 0.008540 -0.015391
v -0.025882 0.009944 -0.018196
f 1284 1292 1293 
f 1281 1280 1283 
f 1280 1282 1285 
f 1282 1280 1286 
f 1285 1282 1288 
f 1283 1285 1288 
f 1281 1283 1289 
f 1284 1281 1289 
f 1288 1279 1289 
f 1283 1288 1289 
f 1282 1287 1290 
f 1287 1284 1290 
f 1279 1288 1290 
f 1288 1282 1290 
f 1289 1279 1290 
f 1284 1289 1290 
f 1283 1280 1291 
f 1280 1285 1291 
f 1285 1283 1291 
f 1282 1286 1292 
f 1287 1282 1292 
f 1284 1287 1292 
f 1280 1281 1293 
f 1281 1284 1293 
f 1286 1280 1293 
f 1292 1286 1293 
o convex_88
v 0.005442 0.004334 0.043049
v -0.003441 -0.015302 0.038842
v 0.004974 -0.015302 0.037906
v -0.000635 -0.015302 0.039776
v -0.003441 0.001528 0.042581
v -0.002505 -0.001746 0.043049
v 0.005910 0.001528 0.043049
v 0.005910 -0.015302 0.038842
v 0.005910 0.004334 0.042581
v 0.005442 -0.014366 0.037906
f 1298 1302 1303 
f 1295 1296 1297 
f 1298 1295 1299 
f 1295 1297 1299 
f 1294 1298 1299 
f 1294 1299 1300 
f 1299 1297 1300 
f 1300 1297 1301 
f 1297 1296 1301 
f 1298 1294 1302 
f 1294 1300 1302 
f 1300 1301 1302 
f 1296 1295 1303 
f 1295 1298 1303 
f 1301 1296 1303 
f 1302 1301 1303 
o convex_89
v -0.022610 0.003866 -0.014456
v -0.025414 -0.014833 -0.000430
v -0.025881 -0.014833 -0.000430
v -0.025414 0.009476 -0.010714
v -0.025881 -0.005948 -0.012117
v -0.022142 -0.015770 -0.005107
v -0.022142 0.003397 -0.011648
v -0.025881 0.009944 -0.014456
v -0.022142 -0.015770 -0.006508
v -0.025881 -0.015770 -0.002302
v -0.022142 0.006670 -0.014456
f 1310 1312 1314 
f 1306 1305 1307 
f 1307 1305 1310 
f 1305 1309 1310 
f 1306 1307 1311 
f 1304 1308 1311 
f 1308 1306 1311 
f 1308 1304 1312 
f 1310 1309 1312 
f 1305 1306 1313 
f 1306 1308 1313 
f 1309 1305 1313 
f 1308 1312 1313 
f 1312 1309 1313 
f 1307 1310 1314 
f 1311 1307 1314 
f 1304 1311 1314 
f 1312 1304 1314 
o convex_90
v -0.021672 0.005736 -0.013988
v -0.022141 -0.015770 -0.006976
v -0.022141 -0.015770 -0.006041
v -0.009051 -0.015770 -0.014456
v -0.015596 -0.015770 -0.012585
v -0.022141 0.002463 -0.014456
v -0.021672 0.003398 -0.012118
v -0.021672 -0.014365 -0.006041
v -0.009051 -0.015300 -0.013988
v -0.021205 -0.015770 -0.008378
v -0.011389 -0.015300 -0.014456
f 1320 1318 1325 
f 1317 1316 1318 
f 1318 1316 1319 
f 1316 1317 1320 
f 1315 1318 1320 
f 1315 1320 1321 
f 1320 1317 1321 
f 1321 1317 1322 
f 1321 1322 1323 
f 1317 1318 1323 
f 1318 1315 1323 
f 1315 1321 1323 
f 1322 1317 1323 
f 1319 1316 1324 
f 1316 1320 1324 
f 1320 1319 1324 
f 1318 1319 1325 
f 1319 1320 1325 
o convex_91
v -0.009051 0.047345 -0.012115
v -0.000635 0.051551 0.005180
v -0.000635 0.049681 0.005180
v -0.017466 0.045946 0.005180
v -0.000635 0.041268 -0.015389
v -0.003909 0.053422 -0.002769
v -0.016530 0.046878 -0.009314
v -0.017466 0.041268 -0.005107
v -0.011387 0.053422 0.002373
v -0.000635 0.041268 -0.011180
v -0.000635 0.047345 -0.013052
v -0.010921 0.042672 -0.014922
v -0.016530 0.050148 -0.003702
v -0.000635 0.053891 0.003775
v -0.014191 0.041268 -0.011180
v -0.016998 0.045476 0.004710
v -0.007650 0.051551 0.005180
v -0.000635 0.053422 -0.002769
v -0.007650 0.043139 -0.015859
v -0.011387 0.052020 -0.003235
v -0.016998 0.048279 -0.006975
v -0.013259 0.044544 -0.013519
v -0.013725 0.052487 0.000968
f 1345 1338 1348 
f 1328 1327 1329 
f 1327 1328 1330 
f 1330 1328 1335 
f 1333 1330 1335 
f 1327 1330 1336 
f 1326 1331 1336 
f 1331 1334 1339 
f 1327 1336 1339 
f 1330 1333 1340 
f 1333 1332 1340 
f 1337 1330 1340 
f 1328 1329 1341 
f 1329 1333 1341 
f 1335 1328 1341 
f 1333 1335 1341 
f 1329 1327 1342 
f 1334 1329 1342 
f 1327 1339 1342 
f 1339 1334 1342 
f 1336 1331 1343 
f 1331 1339 1343 
f 1339 1336 1343 
f 1326 1336 1344 
f 1336 1330 1344 
f 1330 1337 1344 
f 1331 1326 1345 
f 1334 1331 1345 
f 1338 1345 1346 
f 1326 1332 1346 
f 1333 1329 1346 
f 1332 1333 1346 
f 1329 1338 1346 
f 1345 1326 1346 
f 1332 1326 1347 
f 1340 1332 1347 
f 1337 1340 1347 
f 1326 1344 1347 
f 1344 1337 1347 
f 1329 1334 1348 
f 1338 1329 1348 
f 1334 1345 1348 
o convex_92
v 0.014324 0.016020 -0.023339
v 0.006377 0.005736 -0.027546
v 0.006845 0.005736 -0.028014
v 0.006845 0.019762 -0.028014
v 0.018065 0.016954 -0.028481
v 0.018065 0.005736 -0.026144
v 0.012454 0.005736 -0.023339
v 0.012454 0.019762 -0.023339
v 0.018065 0.019762 -0.026144
v 0.006377 0.019762 -0.026611
v 0.012920 0.005736 -0.028014
v 0.006377 0.005736 -0.026611
f 1355 1358 1360 
f 1351 1350 1352 
f 1351 1352 1353 
f 1350 1351 1354 
f 1354 1349 1355 
f 1350 1354 1355 
f 1355 1349 1356 
f 1353 1352 1357 
f 1354 1353 1357 
f 1349 1354 1357 
f 1352 1356 1357 
f 1356 1349 1357 
f 1352 1350 1358 
f 1356 1352 1358 
f 1355 1356 1358 
f 1351 1353 1359 
f 1354 1351 1359 
f 1353 1354 1359 
f 1350 1355 1360 
f 1358 1350 1360 
o convex_93
v 0.035831 0.015088 -0.006508
v 0.020403 0.032384 -0.008378
v 0.020403 0.032384 -0.007910
v 0.034428 0.033320 0.002842
v 0.030219 0.023503 0.002842
v 0.030687 0.030980 -0.008378
v 0.038636 0.024899 0.002842
v 0.026482 0.033320 0.002842
v 0.033027 0.014152 -0.007443
v 0.036764 0.024899 -0.004636
v 0.024611 0.023503 -0.008378
v 0.032557 0.033320 -0.003235
v 0.035831 0.016490 -0.007910
v 0.033027 0.014152 -0.006040
v 0.021340 0.033320 -0.008378
v 0.038636 0.023503 0.002842
v 0.033960 0.024899 -0.008378
v 0.038167 0.024899 -0.000899
f 1376 1373 1378 
f 1364 1365 1367 
f 1365 1364 1368 
f 1363 1365 1368 
f 1363 1362 1371 
f 1365 1363 1371 
f 1362 1366 1371 
f 1368 1364 1372 
f 1370 1366 1372 
f 1361 1369 1373 
f 1369 1371 1373 
f 1369 1361 1374 
f 1365 1371 1374 
f 1371 1369 1374 
f 1362 1363 1375 
f 1366 1362 1375 
f 1363 1368 1375 
f 1372 1366 1375 
f 1368 1372 1375 
f 1367 1365 1376 
f 1361 1373 1376 
f 1374 1361 1376 
f 1365 1374 1376 
f 1366 1370 1377 
f 1371 1366 1377 
f 1370 1373 1377 
f 1373 1371 1377 
f 1364 1367 1378 
f 1372 1364 1378 
f 1370 1372 1378 
f 1373 1370 1378 
f 1367 1376 1378 
o convex_94
v 0.000300 -0.015770 -0.014925
v 0.011520 -0.005017 -0.015858
v 0.011520 -0.005017 -0.016794
v 0.011520 -0.015770 -0.012587
v -0.000168 -0.009692 -0.018664
v -0.000635 -0.009692 -0.016326
v 0.011052 -0.012029 -0.012587
v 0.006843 -0.015770 -0.014925
v 0.009182 -0.005485 -0.018664
v -0.000635 -0.007354 -0.018195
v 0.011052 -0.005485 -0.014456
f 1388 1384 1389 
f 1381 1380 1382 
f 1383 1379 1384 
f 1384 1379 1385 
f 1379 1382 1385 
f 1382 1379 1386 
f 1379 1383 1386 
f 1386 1383 1387 
f 1381 1382 1387 
f 1382 1386 1387 
f 1380 1381 1388 
f 1383 1384 1388 
f 1387 1383 1388 
f 1381 1387 1388 
f 1382 1380 1389 
f 1384 1385 1389 
f 1385 1382 1389 
f 1380 1388 1389 
o convex_95
v 0.026947 -0.012029 -0.012587
v 0.015264 -0.012496 -0.022871
v 0.011520 -0.015770 -0.012587
v 0.011520 -0.005017 -0.014457
v 0.020867 -0.005017 -0.008378
v 0.023674 -0.008290 -0.021000
v 0.024609 -0.015770 -0.019131
v 0.015732 -0.015770 -0.008378
v 0.023672 -0.012960 -0.008378
v 0.011520 -0.005017 -0.016325
v 0.021337 -0.015770 -0.021468
v 0.026947 -0.014366 -0.013054
v 0.011520 -0.011094 -0.018197
v 0.014794 -0.010161 -0.022403
v 0.023674 -0.007355 -0.018197
v 0.026481 -0.012496 -0.017728
v 0.019466 -0.005017 -0.008378
v 0.021802 -0.012028 -0.022403
v 0.017131 -0.015770 -0.020065
f 1391 1400 1408 
f 1393 1392 1397 
f 1392 1396 1397 
f 1390 1394 1398 
f 1394 1397 1398 
f 1392 1393 1399 
f 1393 1394 1399 
f 1396 1392 1400 
f 1397 1396 1401 
f 1398 1397 1401 
f 1390 1398 1401 
f 1391 1392 1402 
f 1392 1399 1402 
f 1402 1399 1403 
f 1399 1395 1403 
f 1391 1402 1403 
f 1394 1390 1404 
f 1399 1394 1404 
f 1395 1399 1404 
f 1390 1401 1405 
f 1401 1396 1405 
f 1404 1390 1405 
f 1395 1404 1405 
f 1394 1393 1406 
f 1393 1397 1406 
f 1397 1394 1406 
f 1400 1391 1407 
f 1396 1400 1407 
f 1391 1403 1407 
f 1403 1395 1407 
f 1395 1405 1407 
f 1405 1396 1407 
f 1392 1391 1408 
f 1400 1392 1408 
o convex_96
v 0.027416 0.001529 -0.001366
v 0.016663 -0.015770 -0.008378
v 0.016663 -0.015770 -0.007911
v 0.023208 -0.015770 -0.000898
v 0.020871 -0.011093 -0.008378
v 0.021806 0.001060 -0.008378
v 0.026013 -0.000342 -0.000430
v 0.024609 -0.010624 -0.003703
v 0.023674 0.001060 -0.007911
v 0.022273 -0.014833 -0.000430
v 0.025544 -0.011093 -0.000430
v 0.016663 -0.014833 -0.007911
f 1418 1415 1420 
f 1411 1410 1412 
f 1412 1410 1413 
f 1413 1410 1414 
f 1409 1414 1415 
f 1412 1413 1416 
f 1416 1413 1417 
f 1413 1414 1417 
f 1414 1409 1417 
f 1409 1416 1417 
f 1411 1412 1418 
f 1415 1418 1419 
f 1409 1415 1419 
f 1416 1409 1419 
f 1412 1416 1419 
f 1418 1412 1419 
f 1410 1411 1420 
f 1414 1410 1420 
f 1415 1414 1420 
f 1411 1418 1420 
o convex_97
v 0.022741 -0.015770 -0.000430
v 0.030221 0.001529 0.011725
v 0.030221 0.001529 0.009387
v 0.028351 -0.011093 0.009855
v 0.025546 -0.014366 0.011725
v 0.026947 0.001529 -0.000430
v 0.027415 -0.011093 0.003310
v 0.027883 0.001060 -0.000430
v 0.026481 -0.015300 0.011725
v 0.029286 0.001060 0.011725
v 0.022741 -0.013898 0.000037
v 0.026014 -0.010158 -0.000430
v 0.029286 0.001060 0.002844
v 0.025079 -0.015770 0.003310
f 1432 1427 1434 
f 1423 1422 1424 
f 1422 1423 1426 
f 1421 1426 1428 
f 1424 1422 1429 
f 1425 1421 1429 
f 1422 1425 1429 
f 1425 1422 1430 
f 1422 1426 1430 
f 1430 1426 1431 
f 1421 1425 1431 
f 1426 1421 1431 
f 1425 1430 1431 
f 1421 1428 1432 
f 1432 1428 1433 
f 1423 1424 1433 
f 1426 1423 1433 
f 1424 1427 1433 
f 1428 1426 1433 
f 1427 1432 1433 
f 1427 1424 1434 
f 1424 1429 1434 
f 1429 1421 1434 
f 1421 1432 1434 
o convex_98
v -0.003441 -0.000811 0.043049
v -0.013259 -0.015302 0.036036
v -0.013259 -0.015302 0.036972
v -0.012790 0.008074 0.043049
v -0.003909 0.001994 0.042581
v -0.005779 -0.015302 0.039310
v -0.003441 -0.013430 0.038842
v -0.010453 0.002463 0.043049
v -0.012790 -0.000342 0.039775
v -0.009518 -0.014833 0.038842
v -0.013259 0.006202 0.043049
v -0.013259 0.006202 0.041646
f 1445 1438 1446 
f 1438 1435 1439 
f 1437 1436 1440 
f 1435 1440 1441 
f 1439 1435 1441 
f 1440 1436 1441 
f 1435 1438 1442 
f 1440 1435 1442 
f 1439 1441 1443 
f 1441 1436 1443 
f 1437 1440 1444 
f 1440 1442 1444 
f 1444 1442 1445 
f 1436 1437 1445 
f 1442 1438 1445 
f 1437 1444 1445 
f 1438 1439 1446 
f 1443 1436 1446 
f 1439 1443 1446 
f 1436 1445 1446 
o convex_99
v -0.020738 -0.009689 0.050061
v -0.018399 0.004800 0.051932
v -0.018867 0.004800 0.051932
v -0.012791 0.024437 0.043049
v -0.016533 -0.008754 0.050528
v -0.018399 0.007138 0.043049
v -0.012791 0.006205 0.043049
v -0.021205 0.004800 0.050061
v -0.017466 -0.011094 0.047724
v -0.015597 0.006205 0.050061
v -0.020738 -0.006886 0.047724
v -0.012791 0.007138 0.044919
v -0.020270 0.007138 0.046322
v -0.020270 -0.004545 0.051932
v -0.018399 -0.011094 0.051463
v -0.016999 -0.004545 0.051932
v -0.013260 0.024437 0.043517
v -0.019802 -0.011094 0.047724
f 1455 1461 1464 
f 1452 1450 1453 
f 1453 1451 1455 
f 1447 1454 1457 
f 1451 1453 1458 
f 1453 1450 1458 
f 1450 1456 1458 
f 1457 1454 1459 
f 1452 1457 1459 
f 1448 1449 1460 
f 1454 1447 1460 
f 1449 1454 1460 
f 1455 1451 1461 
f 1460 1447 1461 
f 1460 1461 1462 
f 1456 1448 1462 
f 1451 1458 1462 
f 1458 1456 1462 
f 1448 1460 1462 
f 1461 1451 1462 
f 1449 1448 1463 
f 1450 1452 1463 
f 1454 1449 1463 
f 1448 1456 1463 
f 1456 1450 1463 
f 1452 1459 1463 
f 1459 1454 1463 
f 1452 1453 1464 
f 1453 1455 1464 
f 1447 1457 1464 
f 1457 1452 1464 
f 1461 1447 1464 
o convex_100
v 0.039570 0.022573 0.004713
v 0.026481 0.032851 0.002842
v 0.026481 0.032851 0.003310
v 0.031158 0.014152 0.004246
v 0.027885 0.033320 0.011725
v 0.037700 0.014152 0.011725
v 0.036765 0.030046 0.009384
v 0.033960 0.033320 0.002842
v 0.039570 0.014152 0.003778
v 0.032093 0.014152 0.011257
v 0.037700 0.026770 0.011725
v 0.031158 0.014152 0.002842
v 0.038635 0.024901 0.002842
v 0.040039 0.016493 0.004713
v 0.035830 0.031917 0.007051
f 1477 1472 1479 
f 1467 1466 1468 
f 1466 1467 1469 
f 1466 1469 1472 
f 1470 1468 1473 
f 1467 1468 1474 
f 1469 1467 1474 
f 1468 1470 1474 
f 1470 1469 1474 
f 1469 1470 1475 
f 1471 1469 1475 
f 1465 1471 1475 
f 1468 1466 1476 
f 1466 1472 1476 
f 1473 1468 1476 
f 1473 1476 1477 
f 1471 1465 1477 
f 1476 1472 1477 
f 1470 1473 1478 
f 1465 1475 1478 
f 1475 1470 1478 
f 1473 1477 1478 
f 1477 1465 1478 
f 1469 1471 1479 
f 1472 1469 1479 
f 1471 1477 1479 
o convex_101
v 0.006379 0.042672 -0.015389
v 0.014324 0.046413 0.005180
v 0.013855 0.046880 0.005180
v -0.000634 0.049681 0.005180
v 0.008712 0.052487 -0.001832
v -0.000634 0.041268 -0.015389
v -0.000634 0.053422 -0.002769
v 0.014324 0.041268 -0.005107
v 0.013387 0.047811 -0.007912
v 0.004510 0.053891 0.003775
v 0.000302 0.047345 -0.013052
v -0.000634 0.041268 -0.011180
v 0.013855 0.045476 0.004710
v 0.011985 0.051551 -0.000430
v 0.012454 0.045945 -0.011180
v 0.008712 0.041268 -0.013519
v -0.000634 0.053891 0.003775
v 0.005912 0.047345 -0.012115
v 0.013855 0.048746 -0.006042
v -0.000634 0.044075 -0.015389
v 0.007778 0.053422 0.002840
v 0.004042 0.051551 0.005180
v 0.003105 0.053422 -0.002300
f 1489 1500 1502 
f 1481 1482 1483 
f 1485 1483 1486 
f 1483 1485 1491 
f 1485 1487 1491 
f 1491 1487 1492 
f 1481 1483 1492 
f 1487 1481 1492 
f 1483 1491 1492 
f 1482 1481 1493 
f 1488 1487 1494 
f 1485 1480 1495 
f 1487 1485 1495 
f 1480 1494 1495 
f 1494 1487 1495 
f 1486 1483 1496 
f 1489 1486 1496 
f 1484 1488 1497 
f 1480 1490 1497 
f 1494 1480 1497 
f 1488 1494 1497 
f 1481 1487 1498 
f 1488 1484 1498 
f 1487 1488 1498 
f 1493 1481 1498 
f 1484 1493 1498 
f 1480 1485 1499 
f 1485 1486 1499 
f 1490 1480 1499 
f 1486 1490 1499 
f 1489 1482 1500 
f 1482 1493 1500 
f 1493 1484 1500 
f 1483 1482 1501 
f 1482 1489 1501 
f 1496 1483 1501 
f 1489 1496 1501 
f 1486 1489 1502 
f 1490 1486 1502 
f 1484 1497 1502 
f 1497 1490 1502 
f 1500 1484 1502 
o convex_102
v 0.032091 0.023502 0.002842
v 0.025546 0.014152 -0.008378
v 0.027884 0.014152 -0.008378
v 0.024611 0.023502 -0.008378
v 0.030687 0.014152 0.002374
v 0.028351 0.023502 -0.007910
v 0.030220 0.023502 0.002842
v 0.032091 0.014152 0.002374
f 1505 1508 1510 
f 1505 1504 1506 
f 1504 1505 1507 
f 1506 1504 1507 
f 1505 1506 1508 
f 1506 1503 1508 
f 1503 1506 1509 
f 1507 1503 1509 
f 1506 1507 1509 
f 1503 1507 1510 
f 1507 1505 1510 
f 1508 1503 1510 
o convex_103
v -0.042709 -0.019978 0.022478
v -0.051128 -0.023249 0.011725
v -0.051128 -0.023717 0.012193
v -0.031492 -0.023249 0.011725
v -0.048789 -0.015770 0.011725
v -0.049725 -0.025120 0.022478
v -0.031492 -0.023249 0.022478
v -0.049725 -0.019511 0.022009
v -0.031492 -0.025120 0.021075
v -0.046451 -0.015770 0.012663
v -0.031492 -0.021847 0.011725
v -0.051128 -0.018107 0.013128
v -0.031492 -0.021847 0.015001
v -0.031492 -0.023717 0.012193
f 1514 1519 1524 
f 1513 1512 1514 
f 1514 1512 1515 
f 1511 1516 1517 
f 1516 1511 1518 
f 1516 1513 1519 
f 1517 1516 1519 
f 1514 1517 1519 
f 1511 1517 1520 
f 1518 1511 1520 
f 1515 1518 1520 
f 1514 1515 1521 
f 1517 1514 1521 
f 1515 1520 1521 
f 1512 1513 1522 
f 1515 1512 1522 
f 1513 1516 1522 
f 1518 1515 1522 
f 1516 1518 1522 
f 1520 1517 1523 
f 1517 1521 1523 
f 1521 1520 1523 
f 1513 1514 1524 
f 1519 1513 1524 
o convex_104
v 0.026482 0.022099 -0.013988
v 0.022741 0.005736 -0.010249
v 0.022741 0.005736 -0.008846
v 0.033494 0.011349 -0.008378
v 0.022741 0.029579 -0.008378
v 0.030219 0.030515 -0.008846
v 0.028351 0.014153 -0.014456
v 0.022741 0.019292 -0.013053
v 0.033494 0.024902 -0.008378
v 0.030219 0.005736 -0.008378
v 0.028818 0.025839 -0.013053
v 0.029752 0.007609 -0.011185
v 0.029285 0.019292 -0.013988
v 0.023209 0.005736 -0.008378
v 0.022741 0.012283 -0.012586
v 0.022741 0.029111 -0.009314
f 1530 1535 1540 
f 1526 1527 1529 
f 1526 1529 1532 
f 1525 1531 1532 
f 1529 1528 1533 
f 1530 1529 1533 
f 1527 1526 1534 
f 1528 1529 1534 
f 1530 1533 1535 
f 1526 1531 1536 
f 1531 1528 1536 
f 1534 1526 1536 
f 1528 1534 1536 
f 1531 1525 1537 
f 1528 1531 1537 
f 1533 1528 1537 
f 1525 1535 1537 
f 1535 1533 1537 
f 1529 1527 1538 
f 1527 1534 1538 
f 1534 1529 1538 
f 1531 1526 1539 
f 1526 1532 1539 
f 1532 1531 1539 
f 1529 1530 1540 
f 1525 1532 1540 
f 1532 1529 1540 
f 1535 1525 1540 
o convex_105
v 0.032091 0.014617 0.020142
v 0.022274 0.027710 0.034634
v 0.022741 0.027710 0.034165
v 0.023210 0.007139 0.034634
v 0.030220 0.007139 0.019673
v 0.028350 0.012284 0.029489
v 0.030220 0.027710 0.019673
v 0.021338 0.027241 0.033698
v 0.028349 0.023034 0.028555
v 0.021806 0.007139 0.034165
v 0.024613 0.018359 0.034634
v 0.029283 0.027710 0.020142
v 0.028350 0.007139 0.027153
v 0.031622 0.018826 0.022012
v 0.026948 0.027710 0.028555
v 0.031155 0.024436 0.021076
v 0.031155 0.008075 0.020609
f 1546 1553 1557 
f 1542 1543 1547 
f 1541 1545 1547 
f 1544 1542 1550 
f 1545 1544 1550 
f 1542 1548 1550 
f 1548 1545 1550 
f 1543 1542 1551 
f 1542 1544 1551 
f 1544 1546 1551 
f 1546 1549 1551 
f 1549 1543 1551 
f 1542 1547 1552 
f 1547 1545 1552 
f 1548 1542 1552 
f 1545 1548 1552 
f 1544 1545 1553 
f 1546 1544 1553 
f 1546 1541 1554 
f 1549 1546 1554 
f 1547 1543 1555 
f 1543 1549 1555 
f 1555 1549 1556 
f 1541 1547 1556 
f 1554 1541 1556 
f 1549 1554 1556 
f 1547 1555 1556 
f 1545 1541 1557 
f 1541 1546 1557 
f 1553 1545 1557 
