o convex_0
v -0.003011 -0.023362 -0.039153
v 0.003934 0.004442 -0.023860
v 0.008798 0.003051 -0.023860
v 0.008798 0.003051 -0.039153
v -0.014132 -0.004596 -0.039153
v -0.012047 -0.017799 -0.023860
v 0.014360 -0.017799 -0.023860
v 0.017142 -0.010154 -0.039153
v -0.010658 0.000270 -0.023860
v -0.002316 0.004442 -0.039153
v 0.005324 -0.023362 -0.023860
v 0.009496 -0.021971 -0.039153
v 0.016444 -0.005290 -0.023860
v -0.013440 -0.015712 -0.039153
v -0.014833 -0.008075 -0.023860
v -0.007187 -0.021971 -0.023860
v 0.013665 -0.000424 -0.039153
v -0.010658 0.000270 -0.039153
v -0.006486 0.003051 -0.023860
v 0.015749 -0.015712 -0.039153
v -0.009268 -0.020581 -0.039153
v 0.017142 -0.010154 -0.023860
v 0.012967 0.000270 -0.023860
v -0.014833 -0.010845 -0.039153
v -0.014132 -0.014324 -0.023860
v 0.005324 -0.023362 -0.039153
v -0.003011 -0.023362 -0.023860
v 0.009496 -0.021971 -0.023860
v 0.016444 -0.005290 -0.039153
v -0.002316 0.004442 -0.023860
v 0.003934 0.004442 -0.039153
v -0.014132 -0.004596 -0.023860
v -0.007878 0.002355 -0.039153
v 0.012275 -0.019884 -0.039153
v 0.016444 -0.013630 -0.023860
f 8 22 35 
f 2 3 4 
f 4 1 5 
f 3 2 6 
f 3 6 7 
f 1 4 8 
f 6 2 9 
f 4 5 10 
f 7 6 11 
f 1 8 12 
f 3 7 13 
f 5 1 14 
f 6 9 15 
f 11 6 16 
f 8 4 17 
f 5 9 18 
f 10 5 18 
f 9 2 19 
f 12 8 20 
f 14 1 21 
f 6 14 21 
f 1 16 21 
f 16 6 21 
f 13 7 22 
f 8 13 22 
f 4 3 23 
f 3 13 23 
f 17 4 23 
f 13 17 23 
f 5 14 24 
f 15 5 24 
f 15 24 25 
f 14 6 25 
f 6 15 25 
f 24 14 25 
f 11 1 26 
f 12 11 26 
f 1 12 26 
f 1 11 27 
f 16 1 27 
f 11 16 27 
f 7 11 28 
f 11 12 28 
f 13 8 29 
f 8 17 29 
f 17 13 29 
f 2 10 30 
f 10 19 30 
f 19 2 30 
f 2 4 31 
f 10 2 31 
f 4 10 31 
f 9 5 32 
f 5 15 32 
f 15 9 32 
f 18 9 33 
f 10 18 33 
f 19 10 33 
f 9 19 33 
f 20 7 34 
f 12 20 34 
f 7 28 34 
f 28 12 34 
f 7 20 35 
f 20 8 35 
f 22 7 35 
o convex_1
v -0.022479 0.032245 -0.022469
v -0.039857 0.015564 -0.016211
v -0.039857 0.015564 -0.007178
v -0.039857 0.037808 -0.007178
v -0.022479 0.015564 -0.007178
v -0.022479 0.037808 -0.007178
v -0.039857 0.034328 -0.021775
v -0.022479 0.018347 -0.021079
v -0.039857 0.026686 -0.023860
v -0.022479 0.037808 -0.016909
v -0.039857 0.037808 -0.016909
v -0.039857 0.018347 -0.021079
v -0.022479 0.026686 -0.023860
v -0.022479 0.015564 -0.016211
v -0.022479 0.035720 -0.020384
v -0.039857 0.019736 -0.021775
f 44 48 51 
f 37 38 39 
f 38 37 40 
f 39 38 40 
f 40 36 41 
f 39 40 41 
f 37 39 42 
f 36 40 43 
f 37 42 44 
f 42 36 44 
f 41 36 45 
f 39 41 45 
f 42 39 46 
f 39 45 46 
f 43 37 47 
f 37 44 47 
f 36 43 48 
f 44 36 48 
f 40 37 49 
f 43 40 49 
f 37 43 49 
f 36 42 50 
f 45 36 50 
f 42 46 50 
f 46 45 50 
f 43 47 51 
f 47 44 51 
f 48 43 51 
o convex_2
v -0.025949 -0.028923 -0.044019
v 0.028259 0.012088 -0.039153
v 0.028259 -0.028923 -0.039153
v 0.028259 0.012088 -0.044019
v -0.025949 0.012088 -0.039153
v -0.025949 0.012088 -0.044019
v -0.025949 -0.028923 -0.039153
v 0.028259 -0.028923 -0.044019
f 52 55 59 
f 53 54 55 
f 54 53 56 
f 53 55 56 
f 55 52 57 
f 52 56 57 
f 56 55 57 
f 52 54 58 
f 56 52 58 
f 54 56 58 
f 54 52 59 
f 55 54 59 
o convex_3
v 0.028959 -0.036569 -0.062089
v 0.029655 0.013474 -0.046801
v 0.035214 0.018340 -0.057919
v 0.028959 0.019735 -0.062089
v 0.036605 -0.036569 -0.062089
v 0.028959 -0.030303 -0.046801
v 0.036605 0.019735 -0.062089
v 0.036605 -0.036569 -0.060700
v 0.028959 0.013474 -0.046801
v 0.029655 -0.030303 -0.046801
v 0.036605 0.019035 -0.060700
v 0.028959 -0.035175 -0.057224
f 67 69 71 
f 60 63 64 
f 63 60 65 
f 63 62 66 
f 64 63 66 
f 64 66 67 
f 60 64 67 
f 61 62 68 
f 62 63 68 
f 65 61 68 
f 63 65 68 
f 61 65 69 
f 67 61 69 
f 62 61 70 
f 66 62 70 
f 67 66 70 
f 61 67 70 
f 65 60 71 
f 60 67 71 
f 69 65 71 
o convex_4
v 0.006020 0.051708 0.015757
v -0.003711 0.037808 0.000469
v -0.003711 0.038504 0.000469
v -0.003711 0.046147 0.026883
v 0.006020 0.037808 0.015757
v -0.003711 0.053100 0.017846
v 0.006020 0.053100 0.026883
v 0.006020 0.037808 0.000469
v -0.003711 0.037808 0.015757
v 0.006020 0.046147 0.026883
v -0.003711 0.053100 0.026883
v 0.006020 0.040589 0.002555
v 0.006020 0.053100 0.017846
v -0.003711 0.044761 0.007424
f 83 74 85 
f 74 73 75 
f 74 75 77 
f 76 72 78 
f 73 74 79 
f 72 76 79 
f 76 73 79 
f 75 73 80 
f 76 75 80 
f 73 76 80 
f 75 76 81 
f 78 75 81 
f 76 78 81 
f 77 75 82 
f 75 78 82 
f 78 77 82 
f 72 79 83 
f 79 74 83 
f 72 77 84 
f 77 78 84 
f 78 72 84 
f 77 72 85 
f 74 77 85 
f 72 83 85 
o convex_5
v 0.006020 0.051708 0.042174
v -0.003711 0.037808 0.042870
v 0.006020 0.037808 0.042870
v 0.006020 0.046147 0.026883
v -0.003711 0.053100 0.026883
v -0.003711 0.040589 0.049126
v -0.003711 0.053100 0.040784
v 0.006020 0.053100 0.026883
v 0.006020 0.037808 0.049822
v -0.003711 0.046147 0.026883
v 0.006020 0.053100 0.040784
v -0.003711 0.037808 0.049822
v 0.006020 0.039200 0.049822
f 91 97 98 
f 88 87 89 
f 86 88 89 
f 90 87 91 
f 90 91 92 
f 91 86 92 
f 86 89 93 
f 89 90 93 
f 90 92 93 
f 88 86 94 
f 87 88 94 
f 89 87 95 
f 90 89 95 
f 87 90 95 
f 92 86 96 
f 86 93 96 
f 93 92 96 
f 91 87 97 
f 87 94 97 
f 97 94 98 
f 86 91 98 
f 94 86 98 
o convex_6
v 0.024090 0.011393 0.015761
v -0.022479 -0.041435 -0.007870
v 0.024788 -0.041435 -0.007870
v 0.003931 0.004438 -0.023860
v -0.022479 0.011393 0.015757
v -0.022479 -0.037262 0.015757
v 0.024788 -0.040737 0.012976
v -0.022479 0.008611 -0.016906
v 0.024788 0.008611 -0.016906
v -0.003014 -0.023362 -0.023860
v 0.015752 -0.015714 -0.023860
v -0.014831 -0.010853 -0.023860
v 0.024788 -0.037262 0.015757
v 0.024788 0.011393 -0.007870
v -0.022479 -0.041435 0.012278
v -0.022479 -0.027530 -0.016906
v 0.024788 -0.027530 -0.016906
v -0.022479 0.011393 -0.007870
v 0.016446 -0.005294 -0.023860
v -0.010662 0.000270 -0.023860
v 0.005323 -0.023362 -0.023860
v 0.024788 0.011393 0.015761
v 0.024788 -0.041435 0.012278
v -0.012050 -0.017798 -0.023860
v 0.012972 0.000270 -0.023860
v 0.017140 -0.010160 -0.023860
v -0.002316 0.004438 -0.023860
v -0.014137 -0.004596 -0.023860
v 0.009492 -0.021966 -0.023860
v -0.007183 -0.021966 -0.023860
f 114 122 128 
f 103 100 104 
f 99 103 104 
f 100 103 106 
f 105 101 107 
f 102 106 107 
f 101 100 108 
f 108 102 109 
f 102 108 110 
f 99 104 111 
f 104 105 111 
f 105 107 111 
f 111 107 112 
f 103 99 112 
f 107 106 112 
f 100 101 113 
f 104 100 113 
f 105 104 113 
f 100 106 114 
f 106 110 114 
f 107 101 115 
f 106 103 116 
f 103 112 116 
f 112 106 116 
f 109 102 117 
f 102 110 118 
f 101 108 119 
f 108 109 119 
f 99 111 120 
f 111 112 120 
f 112 99 120 
f 101 105 121 
f 113 101 121 
f 105 113 121 
f 110 108 122 
f 114 110 122 
f 102 107 123 
f 117 102 123 
f 107 117 123 
f 107 115 124 
f 115 109 124 
f 117 107 124 
f 109 117 124 
f 106 102 125 
f 102 118 125 
f 118 106 125 
f 110 106 126 
f 106 118 126 
f 118 110 126 
f 115 101 127 
f 109 115 127 
f 101 119 127 
f 119 109 127 
f 108 100 128 
f 100 114 128 
f 122 108 128 
o convex_7
v 0.024788 0.028075 0.021325
v -0.022478 -0.037265 0.015764
v 0.024788 -0.037265 0.015764
v -0.022478 -0.037265 0.042868
v -0.022478 0.024600 0.015764
v 0.024788 0.029466 0.042868
v -0.022478 0.029466 0.042868
v 0.024788 -0.037265 0.042868
v 0.024788 0.024600 0.015764
v -0.022478 0.029466 0.024105
v 0.024788 0.029466 0.024105
v -0.022478 0.025292 0.016459
v 0.024788 0.025292 0.016459
f 137 140 141 
f 130 131 132 
f 131 130 133 
f 130 132 133 
f 131 129 134 
f 133 132 135 
f 132 134 135 
f 132 131 136 
f 131 134 136 
f 134 132 136 
f 129 131 137 
f 131 133 137 
f 133 135 138 
f 135 134 138 
f 134 129 139 
f 129 138 139 
f 138 134 139 
f 137 133 140 
f 138 129 140 
f 133 138 140 
f 129 137 141 
f 140 129 141 
o convex_8
v -0.034296 -0.036567 -0.060699
v -0.021089 -0.015025 -0.044020
v -0.025956 -0.015025 -0.044020
v -0.030819 -0.015025 -0.062088
v -0.021089 -0.036567 -0.062088
v -0.021089 -0.028921 -0.044020
v -0.034296 -0.015025 -0.060004
v -0.026651 -0.029616 -0.044716
v -0.021785 -0.015025 -0.048887
v -0.034296 -0.036567 -0.062088
v -0.021089 -0.033092 -0.062088
v -0.021089 -0.035175 -0.057224
v -0.034296 -0.015025 -0.062088
v -0.032905 -0.035175 -0.057224
v -0.026651 -0.015025 -0.044716
f 148 149 156 
f 144 143 145 
f 146 143 147 
f 143 144 147 
f 144 145 148 
f 147 144 149 
f 145 143 150 
f 146 142 151 
f 145 146 151 
f 142 148 151 
f 146 145 152 
f 143 146 152 
f 150 143 152 
f 145 150 152 
f 142 146 153 
f 146 147 153 
f 147 149 153 
f 148 145 154 
f 145 151 154 
f 151 148 154 
f 148 142 155 
f 149 148 155 
f 142 153 155 
f 153 149 155 
f 144 148 156 
f 149 144 156 
o convex_9
v 0.006017 0.024601 0.010895
v -0.022479 0.023905 -0.023165
v -0.022479 0.019733 -0.021774
v 0.022702 0.023905 -0.023165
v 0.024788 0.011393 0.015761
v -0.022479 0.011393 0.015761
v 0.024788 0.011393 -0.007867
v -0.022479 0.023905 0.015761
v 0.024788 0.023905 0.015761
v -0.022479 0.011393 -0.007867
v 0.022702 0.018342 -0.021077
v -0.022479 0.024601 -0.023165
v 0.022702 0.024601 -0.023165
v -0.022479 0.015566 -0.016211
v 0.024788 0.020427 -0.007867
v -0.022479 0.024601 -0.007177
v -0.022479 0.018342 -0.021077
v 0.022702 0.024601 -0.007177
v 0.022702 0.015566 -0.016211
v -0.003713 0.024601 0.010895
f 172 164 176 
f 159 158 160 
f 158 159 162 
f 161 162 163 
f 162 161 164 
f 158 162 164 
f 161 163 165 
f 157 164 165 
f 164 161 165 
f 162 159 166 
f 163 162 166 
f 159 160 167 
f 160 163 167 
f 160 158 168 
f 158 164 168 
f 163 160 169 
f 160 168 169 
f 168 157 169 
f 166 159 170 
f 163 166 170 
f 165 163 171 
f 163 169 171 
f 169 165 171 
f 157 168 172 
f 168 164 172 
f 159 167 173 
f 170 159 173 
f 167 170 173 
f 157 165 174 
f 169 157 174 
f 165 169 174 
f 167 163 175 
f 163 170 175 
f 170 167 175 
f 164 157 176 
f 157 172 176 
o convex_10
v 0.012972 0.035027 0.074846
v -0.010662 -0.015716 0.070675
v -0.010662 -0.015716 0.074846
v -0.010662 0.035027 0.070675
v 0.012972 -0.015716 0.070675
v 0.012972 -0.015716 0.074846
v -0.010662 0.035027 0.074846
v 0.012972 0.035027 0.070675
f 181 180 184 
f 178 179 180 
f 179 178 181 
f 178 180 181 
f 177 179 182 
f 181 177 182 
f 179 181 182 
f 179 177 183 
f 180 179 183 
f 177 180 183 
f 180 177 184 
f 177 181 184 
o convex_11
v 0.028259 -0.028925 -0.044020
v -0.021084 -0.036569 -0.062088
v -0.021084 -0.033094 -0.062088
v 0.028954 -0.036569 -0.062088
v 0.028954 -0.024752 -0.055138
v -0.021084 -0.024752 -0.044020
v -0.021084 -0.029620 -0.044716
v 0.028259 -0.024752 -0.044020
v -0.021084 -0.024752 -0.047496
v 0.028954 -0.033094 -0.062088
v 0.028954 -0.035178 -0.057224
v -0.021084 -0.036569 -0.060699
v 0.028954 -0.030314 -0.046106
v -0.021084 -0.026838 -0.051667
v -0.021084 -0.033094 -0.052363
v -0.021084 -0.028925 -0.044020
v 0.028954 -0.036569 -0.060699
f 196 188 201 
f 186 187 188 
f 187 186 190 
f 190 186 191 
f 189 190 192 
f 190 185 192 
f 187 190 193 
f 190 189 193 
f 188 187 194 
f 189 188 194 
f 187 189 194 
f 188 189 195 
f 186 188 196 
f 191 186 196 
f 185 191 197 
f 192 185 197 
f 189 192 197 
f 195 189 197 
f 189 187 198 
f 187 193 198 
f 193 189 198 
f 191 196 199 
f 196 195 199 
f 197 191 199 
f 195 197 199 
f 185 190 200 
f 191 185 200 
f 190 191 200 
f 188 195 201 
f 195 196 201 
o convex_12
v -0.034296 -0.015021 -0.062088
v -0.021089 0.007918 -0.044020
v -0.025956 0.007918 -0.044020
v -0.030819 0.007918 -0.062088
v -0.021089 -0.015021 -0.047496
v -0.025956 -0.015021 -0.044020
v -0.034296 0.007918 -0.060004
v -0.030819 -0.015021 -0.062088
v -0.021785 0.007918 -0.048887
v -0.034296 -0.015021 -0.060004
v -0.021089 -0.015021 -0.044020
v -0.026651 -0.015021 -0.044716
v -0.034296 0.007918 -0.062088
v -0.026651 0.007918 -0.044716
v -0.021785 -0.015021 -0.048887
f 209 210 216 
f 204 203 205 
f 203 204 207 
f 202 206 207 
f 204 205 208 
f 202 205 209 
f 206 202 209 
f 205 203 210 
f 203 206 210 
f 209 205 210 
f 202 207 211 
f 208 202 211 
f 206 203 212 
f 203 207 212 
f 207 206 212 
f 207 204 213 
f 211 207 213 
f 208 211 213 
f 205 202 214 
f 208 205 214 
f 202 208 214 
f 204 208 215 
f 213 204 215 
f 208 213 215 
f 206 209 216 
f 210 206 216 
o convex_13
v -0.021089 0.019735 -0.062088
v -0.021089 0.012090 -0.044020
v -0.025956 0.012090 -0.044020
v -0.034296 0.007918 -0.062088
v -0.034296 0.019735 -0.061395
v -0.021089 0.007918 -0.048191
v -0.026651 0.007918 -0.044716
v -0.021089 0.015562 -0.061395
v -0.030819 0.007918 -0.062088
v -0.034296 0.007918 -0.060004
v -0.030819 0.016259 -0.053054
v -0.021089 0.007918 -0.044020
v -0.034296 0.019735 -0.062088
v -0.021089 0.018343 -0.057919
f 221 227 230 
f 217 218 222 
f 220 222 223 
f 217 222 224 
f 224 222 225 
f 220 217 225 
f 222 220 225 
f 217 224 225 
f 221 220 226 
f 220 223 226 
f 226 223 227 
f 219 218 227 
f 223 219 227 
f 221 226 227 
f 218 219 228 
f 222 218 228 
f 223 222 228 
f 219 223 228 
f 217 220 229 
f 221 217 229 
f 220 221 229 
f 218 217 230 
f 217 221 230 
f 227 218 230 
o convex_14
v 0.028954 0.013479 -0.046801
v -0.021084 0.016258 -0.062088
v -0.021084 0.019732 -0.062088
v -0.021084 0.007225 -0.044020
v 0.028954 0.007225 -0.055138
v 0.028954 0.019732 -0.062088
v -0.021084 0.012089 -0.044020
v 0.028259 0.007225 -0.044020
v -0.021084 0.007225 -0.047496
v 0.028954 0.016258 -0.062088
v 0.028259 0.012089 -0.044020
v -0.021084 0.018342 -0.057919
v 0.028954 0.019732 -0.061395
v -0.021084 0.015563 -0.061395
v -0.021084 0.013479 -0.046801
v 0.028954 0.016258 -0.053054
f 245 231 246 
f 233 232 234 
f 232 233 236 
f 231 235 236 
f 233 234 237 
f 237 234 238 
f 235 231 238 
f 234 235 238 
f 234 232 239 
f 235 234 239 
f 235 232 240 
f 232 236 240 
f 236 235 240 
f 231 237 241 
f 237 238 241 
f 238 231 241 
f 233 237 242 
f 231 236 243 
f 236 233 243 
f 233 242 243 
f 232 235 244 
f 239 232 244 
f 235 239 244 
f 237 231 245 
f 242 237 245 
f 242 245 246 
f 231 243 246 
f 243 242 246 
o convex_15
v 0.022703 0.035721 -0.020383
v -0.022479 0.026687 -0.023860
v -0.022479 0.024601 -0.023163
v -0.005098 0.037808 0.000469
v 0.022004 0.024601 -0.006483
v -0.005098 0.024601 0.000469
v -0.022479 0.037808 -0.016909
v 0.022703 0.024601 -0.023163
v 0.022703 0.037808 -0.007181
v -0.022479 0.024601 -0.007181
v 0.007409 0.037808 0.000469
v -0.022479 0.037808 -0.007181
v -0.022479 0.034331 -0.021774
v 0.007409 0.024601 0.000469
v 0.022703 0.027381 -0.023860
v 0.022703 0.037808 -0.016909
v 0.022703 0.034331 -0.021774
v 0.022703 0.024601 -0.007181
v 0.012274 0.037808 -0.001618
v -0.022479 0.035721 -0.020383
f 259 253 266 
f 249 251 252 
f 248 249 253 
f 249 248 254 
f 251 249 254 
f 253 250 255 
f 254 247 255 
f 249 252 256 
f 252 250 256 
f 253 249 256 
f 250 252 257 
f 255 250 257 
f 250 253 258 
f 256 250 258 
f 253 256 258 
f 248 253 259 
f 252 251 260 
f 257 252 260 
f 254 248 261 
f 247 254 261 
f 248 259 261 
f 247 253 262 
f 253 255 262 
f 255 247 262 
f 259 247 263 
f 247 261 263 
f 261 259 263 
f 251 254 264 
f 255 251 264 
f 254 255 264 
f 251 255 265 
f 255 257 265 
f 260 251 265 
f 257 260 265 
f 253 247 266 
f 247 259 266 
o convex_16
v 0.006020 0.028774 0.012978
v -0.003711 0.024601 0.000469
v 0.006020 0.024601 0.000469
v 0.006020 0.037808 0.000469
v -0.003711 0.037808 0.015761
v -0.003711 0.037808 0.000469
v -0.003711 0.024601 0.010895
v 0.006020 0.037808 0.015761
v 0.006020 0.024601 0.010895
v -0.003711 0.036415 0.015761
f 274 271 276 
f 269 268 270 
f 267 269 270 
f 268 271 272 
f 270 268 272 
f 271 270 272 
f 268 269 273 
f 271 268 273 
f 267 270 274 
f 270 271 274 
f 269 267 275 
f 267 273 275 
f 273 269 275 
f 273 267 276 
f 271 273 276 
f 267 274 276 
o convex_17
v 0.006018 0.032245 0.053992
v -0.022477 -0.037265 0.042870
v -0.022477 -0.037265 0.053992
v 0.024788 -0.037265 0.042870
v -0.022477 0.029460 0.042870
v 0.024788 -0.037265 0.053992
v 0.024788 0.029460 0.042870
v -0.022477 0.029460 0.053992
v 0.024788 0.029460 0.053992
v -0.003712 0.037808 0.042870
v 0.006018 0.037808 0.050515
v -0.003712 0.037808 0.050515
v 0.006018 0.037808 0.042870
v -0.003712 0.035023 0.052602
f 287 288 290 
f 279 278 280 
f 278 279 281 
f 280 278 281 
f 277 279 282 
f 279 280 282 
f 282 280 283 
f 280 281 283 
f 279 277 284 
f 281 279 284 
f 277 282 285 
f 282 283 285 
f 283 281 286 
f 281 284 286 
f 277 285 287 
f 285 283 287 
f 286 284 288 
f 287 286 288 
f 283 286 289 
f 286 287 289 
f 287 283 289 
f 284 277 290 
f 277 287 290 
f 288 284 290 
o convex_18
v 0.012967 0.035027 0.065807
v -0.022479 -0.041435 0.055384
v -0.022479 -0.041435 0.070675
v 0.024788 -0.041435 0.055384
v -0.022479 0.029466 0.053992
v 0.024788 -0.041435 0.070675
v 0.024788 0.029466 0.053992
v -0.010662 0.035027 0.070675
v 0.024788 0.029466 0.066503
v -0.022479 0.029466 0.066503
v 0.024788 -0.038651 0.053992
v 0.012967 0.035027 0.070675
v -0.022479 -0.038651 0.053992
v -0.003708 0.031547 0.053992
v 0.024788 -0.022656 0.070675
v -0.022479 -0.022656 0.070675
v -0.010662 0.035027 0.065807
v 0.006017 0.031547 0.053992
f 297 304 308 
f 293 292 294 
f 292 293 295 
f 293 294 296 
f 296 294 297 
f 293 296 298 
f 296 297 299 
f 297 291 299 
f 295 293 300 
f 298 295 300 
f 294 292 301 
f 297 294 301 
f 295 297 301 
f 291 298 302 
f 298 296 302 
f 299 291 302 
f 292 295 303 
f 301 292 303 
f 295 301 303 
f 297 295 304 
f 296 299 305 
f 302 296 305 
f 299 302 305 
f 293 298 306 
f 300 293 306 
f 298 300 306 
f 298 291 307 
f 295 298 307 
f 291 304 307 
f 304 295 307 
f 291 297 308 
f 304 291 308 
o convex_19
v -0.021089 -0.024752 -0.046799
v 0.023398 0.007223 -0.044019
v 0.023398 0.007223 -0.046799
v -0.021089 0.007223 -0.044019
v 0.023398 -0.024752 -0.044019
v 0.023398 -0.024752 -0.046799
v -0.021089 0.007223 -0.046799
v -0.021089 -0.024752 -0.044019
f 313 312 316 
f 310 311 312 
f 311 310 313 
f 310 312 313 
f 309 311 314 
f 313 309 314 
f 311 313 314 
f 311 309 315 
f 312 311 315 
f 309 312 315 
f 312 309 316 
f 309 313 316 
o convex_20
v 0.024093 -0.024752 -0.048887
v 0.028264 0.007223 -0.044019
v 0.028959 0.007223 -0.044715
v 0.028264 0.007223 -0.055140
v 0.028959 -0.024752 -0.055140
v 0.028959 -0.024752 -0.044715
v 0.023398 0.007223 -0.044019
v 0.023398 -0.024752 -0.044019
v 0.023398 0.007223 -0.047497
v 0.028959 0.007223 -0.055140
v 0.028264 -0.024752 -0.055140
v 0.028264 -0.024752 -0.044019
v 0.023398 -0.024752 -0.047497
f 325 317 329 
f 318 319 320 
f 321 319 322 
f 319 318 322 
f 317 321 322 
f 318 320 323 
f 317 322 324 
f 318 323 324 
f 324 323 325 
f 320 317 325 
f 323 320 325 
f 320 319 326 
f 321 320 326 
f 319 321 326 
f 317 320 327 
f 321 317 327 
f 320 321 327 
f 322 318 328 
f 318 324 328 
f 324 322 328 
f 317 324 329 
f 324 325 329 
