o convex_0
v -0.018260 -0.003866 0.043144
v 0.023831 0.036721 0.052164
v 0.024583 0.035961 0.053669
v 0.026839 -0.005371 0.022855
v -0.021268 0.036721 0.022855
v -0.024276 0.031458 0.056674
v -0.025774 -0.005371 0.022855
v 0.022327 0.036721 0.022855
v 0.023079 0.008156 0.053669
v -0.022020 0.016416 0.057426
v 0.021575 -0.007627 0.033379
v 0.027591 0.029948 0.055173
v -0.021268 0.036721 0.053669
v 0.019319 0.025440 0.058178
v -0.026532 0.031458 0.042392
v -0.026532 0.008156 0.049159
v 0.026087 -0.000859 0.043897
v 0.028343 0.030703 0.041643
v -0.021268 -0.008382 0.023608
v -0.019012 0.004399 0.052164
v 0.017063 -0.001610 0.046150
v 0.028343 0.008160 0.049159
v -0.026532 0.006655 0.022855
v 0.027591 0.008160 0.022855
v -0.019764 0.031458 0.058178
v -0.022020 -0.006877 0.034884
v 0.022327 -0.008382 0.022855
v 0.023831 0.015666 0.056674
v 0.018567 0.035211 0.055922
v 0.028343 -0.002360 0.031123
v 0.002786 0.014920 0.057426
v -0.013753 0.023935 0.058931
v -0.026532 -0.000113 0.040891
v -0.012249 -0.008382 0.031126
v 0.016311 -0.006126 0.038642
v -0.026532 0.026195 0.053669
v -0.025022 0.034460 0.052164
v -0.022020 0.036721 0.023608
v -0.022772 0.000642 0.047654
v 0.006540 0.006655 0.053669
v -0.020516 0.011163 0.055922
v 0.023079 0.036721 0.023608
v -0.012249 0.000642 0.049159
v 0.005788 0.030703 0.058178
v -0.017508 0.035966 0.055922
v 0.028343 0.017176 0.053669
v 0.025335 -0.006872 0.031123
v 0.019319 0.002143 0.049907
v -0.025774 0.014920 0.054417
v 0.026839 0.034460 0.052916
v 0.023831 0.029198 0.057426
v -0.019012 -0.006126 0.038642
v 0.014807 0.020182 0.058178
v 0.022327 -0.003866 0.042392
v -0.024276 0.008156 0.052916
v -0.026532 -0.003866 0.030374
v 0.024583 0.005154 0.051415
v 0.014807 0.036721 0.054417
v 0.020823 -0.008382 0.029622
v 0.028343 0.031454 0.052916
v 0.026087 0.015666 0.055922
v 0.026839 0.034460 0.040891
v -0.018260 0.017926 0.058178
v -0.003225 0.033705 0.057426
f 29 45 64 
f 5 4 7 
f 4 5 8 
f 5 2 8 
f 2 5 13 
f 5 7 23 
f 16 15 23 
f 4 8 24 
f 6 10 25 
f 7 19 26 
f 7 4 27 
f 19 7 27 
f 22 17 30 
f 18 22 30 
f 4 24 30 
f 24 18 30 
f 9 28 31 
f 16 23 33 
f 26 19 34 
f 19 27 34 
f 34 11 35 
f 15 16 36 
f 6 13 37 
f 36 6 37 
f 15 36 37 
f 13 5 38 
f 5 23 38 
f 23 15 38 
f 37 13 38 
f 15 37 38 
f 33 26 39 
f 9 31 40 
f 40 31 41 
f 20 40 41 
f 8 2 42 
f 24 8 42 
f 18 24 42 
f 1 21 43 
f 20 39 43 
f 39 1 43 
f 40 20 43 
f 25 32 44 
f 32 14 44 
f 13 6 45 
f 6 25 45 
f 22 18 46 
f 27 4 47 
f 4 30 47 
f 30 17 47 
f 9 40 48 
f 43 21 48 
f 40 43 48 
f 10 6 49 
f 6 36 49 
f 36 16 49 
f 2 3 50 
f 3 12 50 
f 12 3 51 
f 14 28 51 
f 3 29 51 
f 44 14 51 
f 29 44 51 
f 26 34 52 
f 35 1 52 
f 34 35 52 
f 1 39 52 
f 39 26 52 
f 28 14 53 
f 31 28 53 
f 14 32 53 
f 21 1 54 
f 35 11 54 
f 1 35 54 
f 11 47 54 
f 47 17 54 
f 48 21 54 
f 16 33 55 
f 39 20 55 
f 33 39 55 
f 41 10 55 
f 20 41 55 
f 10 49 55 
f 49 16 55 
f 23 7 56 
f 7 26 56 
f 33 23 56 
f 26 33 56 
f 17 22 57 
f 9 48 57 
f 54 17 57 
f 48 54 57 
f 3 2 58 
f 2 13 58 
f 29 3 58 
f 13 45 58 
f 45 29 58 
f 11 34 59 
f 34 27 59 
f 47 11 59 
f 27 47 59 
f 12 46 60 
f 46 18 60 
f 50 12 60 
f 28 9 61 
f 46 12 61 
f 22 46 61 
f 12 51 61 
f 51 28 61 
f 57 22 61 
f 9 57 61 
f 42 2 62 
f 18 42 62 
f 2 50 62 
f 60 18 62 
f 50 60 62 
f 25 10 63 
f 32 25 63 
f 41 31 63 
f 10 41 63 
f 31 53 63 
f 53 32 63 
f 44 29 64 
f 25 44 64 
f 45 25 64 
o convex_1
v -0.018257 -0.008381 0.022846
v 0.026085 0.001389 -0.032775
v 0.026085 0.005144 -0.032775
v -0.040814 -0.017399 -0.030515
v 0.039619 -0.018904 0.000298
v -0.029532 0.008153 0.022846
v 0.031344 0.008153 0.021344
v -0.028784 0.007401 -0.029013
v -0.027280 -0.018904 0.021344
v 0.039619 -0.018904 -0.030515
v 0.027589 -0.018151 0.021344
v -0.040814 -0.000116 -0.001210
v 0.039619 -0.000116 -0.026758
v -0.040059 -0.018904 0.001044
v 0.026833 0.008153 -0.018487
v -0.039303 0.000637 -0.031267
v -0.026524 -0.018904 -0.031267
v 0.039619 0.000637 -0.001956
v 0.027589 0.007401 0.022852
v -0.031792 0.008153 0.021344
v -0.031036 -0.014393 0.022095
v 0.023077 0.007401 -0.032013
v -0.028028 0.008153 -0.019239
v 0.032100 -0.010635 0.020592
v -0.031036 0.004395 -0.032013
v 0.038115 -0.012137 -0.032018
v 0.032100 0.008153 0.003304
v 0.037359 0.000637 -0.032018
v 0.023825 -0.007629 0.022846
v -0.032540 0.008153 0.009315
v 0.026833 -0.018904 0.020592
v -0.040814 -0.000116 -0.025250
v -0.040814 -0.015895 0.000293
v -0.040814 -0.018904 -0.029764
v -0.010738 -0.018151 0.022095
v 0.024581 -0.015895 -0.032013
v 0.029092 0.005896 -0.032018
v 0.032100 0.008153 0.020592
v -0.025028 0.007401 -0.031267
v 0.030596 -0.015145 0.021344
v -0.039303 -0.013641 -0.031267
v -0.025028 -0.002369 -0.032013
v -0.031792 -0.013641 0.021344
v 0.038863 -0.018904 -0.031267
v -0.040059 0.001389 -0.000459
v 0.039619 -0.002369 -0.031267
v 0.039619 -0.000868 -0.000453
v -0.040814 -0.003122 0.000293
v -0.025028 0.006649 -0.032013
v -0.040814 -0.000868 -0.030515
v -0.028784 -0.017399 0.022095
v 0.033604 0.000637 -0.032775
v -0.040059 0.001389 -0.014730
v -0.036295 0.002890 -0.029764
v 0.029840 -0.018151 0.019841
v 0.038115 0.000637 -0.030515
v 0.026833 0.007401 -0.029764
v -0.026524 -0.004626 0.022846
v 0.027589 -0.003874 0.022852
v 0.026833 0.008153 0.022852
v -0.040814 -0.018904 -0.001961
v 0.021573 -0.015895 -0.032013
f 116 100 126 
f 69 73 74 
f 69 74 77 
f 74 73 78 
f 70 71 79 
f 74 78 81 
f 69 77 82 
f 70 79 84 
f 70 84 85 
f 84 79 87 
f 79 86 87 
f 67 66 89 
f 80 72 89 
f 79 71 91 
f 82 77 91 
f 84 87 94 
f 87 72 94 
f 73 69 95 
f 68 76 96 
f 76 68 97 
f 68 81 98 
f 81 78 98 
f 97 68 98 
f 93 65 99 
f 75 93 99 
f 73 95 99 
f 95 75 99 
f 67 86 101 
f 88 69 102 
f 71 88 102 
f 91 71 102 
f 82 91 102 
f 72 87 103 
f 87 86 103 
f 89 72 103 
f 69 88 104 
f 88 71 104 
f 68 80 105 
f 81 68 105 
f 80 89 105 
f 105 89 106 
f 89 66 106 
f 81 105 106 
f 78 85 107 
f 85 84 107 
f 97 78 107 
f 84 97 107 
f 74 81 108 
f 81 100 108 
f 100 90 108 
f 76 84 109 
f 84 94 109 
f 96 76 109 
f 77 74 110 
f 90 92 110 
f 74 108 110 
f 108 90 110 
f 69 82 111 
f 102 69 111 
f 82 102 111 
f 84 76 112 
f 76 97 112 
f 97 84 112 
f 86 67 113 
f 67 89 113 
f 103 86 113 
f 89 103 113 
f 80 68 114 
f 68 96 114 
f 96 80 114 
f 78 73 115 
f 85 78 115 
f 99 65 115 
f 73 99 115 
f 66 67 116 
f 92 90 116 
f 90 100 116 
f 67 101 116 
f 101 92 116 
f 80 96 117 
f 109 94 117 
f 96 109 117 
f 72 80 118 
f 94 72 118 
f 80 117 118 
f 117 94 118 
f 95 69 119 
f 75 95 119 
f 69 104 119 
f 104 75 119 
f 91 77 120 
f 101 91 120 
f 92 101 120 
f 77 110 120 
f 110 92 120 
f 86 79 121 
f 79 91 121 
f 101 86 121 
f 91 101 121 
f 70 85 122 
f 115 65 122 
f 85 115 122 
f 71 83 123 
f 65 93 123 
f 93 75 123 
f 75 104 123 
f 104 71 123 
f 122 65 123 
f 70 122 123 
f 71 70 124 
f 83 71 124 
f 70 123 124 
f 123 83 124 
f 78 97 125 
f 98 78 125 
f 97 98 125 
f 100 81 126 
f 106 66 126 
f 81 106 126 
f 66 116 126 
o convex_2
v 0.024585 -0.056486 -0.021497
v 0.033604 -0.030940 0.001804
v 0.038867 -0.018910 0.001049
v 0.024585 -0.018910 -0.031272
v 0.038867 -0.053480 -0.027510
v 0.039619 -0.018910 -0.030517
v 0.024585 -0.018910 -0.000453
v 0.038867 -0.053480 -0.000453
v 0.024585 -0.051225 0.000298
v 0.026841 -0.048970 -0.029763
v 0.038867 -0.057244 -0.007971
v 0.025337 -0.056486 -0.004966
v 0.039619 -0.055735 -0.020743
v 0.039619 -0.018910 0.000298
v 0.038115 -0.038448 -0.030517
v 0.038867 -0.048970 0.001804
v 0.025337 -0.049720 0.001804
v 0.024585 -0.052730 -0.027510
v 0.025337 -0.019664 0.001049
v 0.038115 -0.057244 -0.021497
v 0.026090 -0.057244 -0.021497
v 0.038867 -0.047465 -0.029763
v 0.037362 -0.026430 -0.031272
v 0.039619 -0.055735 -0.014734
v 0.026090 -0.055735 -0.025256
v 0.024585 -0.057244 -0.012484
v 0.027594 -0.027180 -0.031272
v 0.025337 -0.053480 -0.000453
v 0.038867 -0.018910 -0.031272
v 0.038115 -0.054985 -0.001958
v 0.025337 -0.036201 0.001804
v 0.024585 -0.048219 -0.029015
v 0.039619 -0.031690 -0.029763
v 0.026090 -0.052730 -0.028264
v 0.038115 -0.051225 -0.029015
v 0.038867 -0.034696 0.001804
f 142 140 162 
f 130 129 132 
f 129 130 133 
f 130 127 133 
f 133 127 135 
f 132 129 140 
f 139 132 140 
f 142 128 143 
f 134 142 143 
f 127 130 144 
f 128 129 145 
f 129 133 145 
f 131 139 146 
f 139 137 146 
f 146 137 147 
f 136 141 148 
f 134 137 150 
f 137 139 150 
f 139 140 150 
f 142 134 150 
f 140 142 150 
f 127 144 151 
f 131 146 151 
f 147 127 151 
f 146 147 151 
f 135 127 152 
f 138 135 152 
f 137 138 152 
f 127 147 152 
f 147 137 152 
f 136 130 153 
f 141 136 153 
f 130 149 153 
f 149 141 153 
f 135 138 154 
f 143 135 154 
f 134 143 154 
f 130 132 155 
f 132 148 155 
f 148 141 155 
f 149 130 155 
f 141 149 155 
f 137 134 156 
f 138 137 156 
f 154 138 156 
f 134 154 156 
f 133 135 157 
f 143 128 157 
f 135 143 157 
f 128 145 157 
f 145 133 157 
f 130 136 158 
f 144 130 158 
f 139 131 159 
f 132 139 159 
f 131 148 159 
f 148 132 159 
f 151 144 160 
f 131 151 160 
f 158 136 160 
f 144 158 160 
f 148 131 161 
f 136 148 161 
f 131 160 161 
f 160 136 161 
f 129 128 162 
f 140 129 162 
f 128 142 162 
o convex_3
v -0.034046 0.015675 -0.023002
v -0.019767 0.052507 -0.016995
v -0.019767 0.052507 -0.019992
v 0.001282 0.017930 -0.024502
v 0.001282 0.035211 0.000300
v -0.035550 0.027702 0.000300
v -0.036300 0.041230 -0.035030
v 0.001282 0.045741 -0.029766
v -0.036300 0.048743 -0.006467
v 0.001282 0.049497 0.000300
v 0.001282 0.018685 -0.006471
v -0.018263 0.029207 -0.035780
v -0.036300 0.016426 -0.010978
v -0.037054 0.023192 -0.032769
v -0.037054 0.050248 -0.025256
v -0.037054 0.038975 -0.000453
v 0.001282 0.025447 -0.032023
v -0.017517 0.049497 0.000300
v 0.001282 0.049497 -0.022249
v -0.018263 0.049497 -0.028263
v -0.019013 0.038975 -0.035780
v -0.036300 0.051752 -0.012481
v -0.019013 0.019431 -0.029766
v -0.032543 0.014921 -0.016242
v -0.037808 0.035211 -0.035030
v -0.037054 0.020936 -0.004964
v 0.001282 0.020936 -0.004214
v 0.001282 0.041226 -0.032023
v -0.030289 0.020186 -0.004210
v -0.018263 0.044236 -0.033527
v -0.000226 0.017176 -0.013988
v -0.029535 0.032216 -0.036534
v -0.037054 0.046491 -0.031270
v -0.019767 0.024696 -0.034277
v -0.037054 0.017176 -0.024502
v -0.037054 0.043485 -0.001957
v -0.035550 0.017930 -0.028263
v -0.029535 0.025447 -0.000453
v 0.001282 0.022441 -0.030516
v -0.035550 0.051752 -0.023002
v -0.035550 0.028453 -0.035780
v -0.037808 0.044987 -0.029016
v -0.022774 0.052507 -0.014738
v 0.001282 0.017930 -0.007971
v -0.034796 0.017930 -0.007217
v -0.037054 0.050248 -0.009474
v -0.023524 0.017176 -0.026759
v -0.035550 0.038975 0.000300
v -0.034046 0.023192 -0.033527
v 0.001282 0.048747 -0.025252
v -0.036300 0.038975 -0.035780
v 0.001282 0.019435 -0.027509
v -0.029535 0.016426 -0.010224
v -0.034046 0.050248 -0.026759
v -0.019013 0.051002 -0.025256
v -0.037054 0.027702 -0.000453
v -0.017517 0.036716 -0.035780
v -0.025782 0.015675 -0.021499
v -0.035550 0.023192 -0.001957
v 0.000528 0.034464 0.000300
v -0.029535 0.052507 -0.019238
v -0.019013 0.022441 -0.032769
v -0.036300 0.015675 -0.020745
f 175 197 225 
f 167 166 170 
f 165 164 172 
f 168 167 172 
f 167 170 172 
f 166 167 173 
f 170 166 179 
f 168 172 180 
f 165 172 181 
f 172 170 181 
f 173 167 189 
f 170 179 190 
f 173 189 191 
f 182 170 192 
f 183 169 192 
f 170 190 192 
f 190 183 192 
f 169 187 195 
f 192 169 195 
f 182 192 195 
f 174 179 196 
f 187 176 197 
f 175 188 197 
f 188 187 197 
f 180 171 198 
f 163 197 199 
f 197 176 199 
f 179 166 201 
f 196 179 201 
f 177 184 202 
f 176 187 203 
f 194 174 203 
f 174 196 203 
f 177 195 204 
f 195 187 204 
f 178 198 204 
f 164 165 205 
f 172 164 205 
f 180 172 205 
f 184 180 205 
f 166 173 206 
f 193 166 206 
f 186 193 206 
f 188 175 207 
f 173 191 207 
f 171 180 208 
f 184 177 208 
f 180 184 208 
f 198 171 208 
f 177 204 208 
f 204 198 208 
f 163 199 209 
f 199 185 209 
f 178 168 210 
f 168 180 210 
f 180 198 210 
f 198 178 210 
f 185 199 211 
f 199 176 211 
f 176 203 211 
f 203 196 211 
f 165 181 212 
f 181 170 212 
f 170 182 212 
f 169 183 213 
f 187 169 213 
f 183 194 213 
f 203 187 213 
f 194 203 213 
f 201 166 214 
f 185 201 214 
f 166 209 214 
f 209 185 214 
f 175 186 215 
f 206 173 215 
f 186 206 215 
f 207 175 215 
f 173 207 215 
f 195 177 216 
f 182 195 216 
f 177 202 216 
f 216 202 217 
f 202 165 217 
f 165 212 217 
f 212 182 217 
f 182 216 217 
f 168 178 218 
f 187 188 218 
f 178 204 218 
f 204 187 218 
f 179 174 219 
f 190 179 219 
f 183 190 219 
f 174 194 219 
f 194 183 219 
f 186 163 220 
f 166 193 220 
f 193 186 220 
f 163 209 220 
f 209 166 220 
f 191 189 221 
f 200 168 221 
f 189 200 221 
f 188 207 221 
f 207 191 221 
f 168 218 221 
f 218 188 221 
f 167 168 222 
f 189 167 222 
f 168 200 222 
f 200 189 222 
f 165 202 223 
f 202 184 223 
f 205 165 223 
f 184 205 223 
f 201 185 224 
f 196 201 224 
f 185 211 224 
f 211 196 224 
f 163 186 225 
f 186 175 225 
f 197 163 225 
o convex_4
v 0.037363 0.024697 -0.001203
v 0.019324 0.033718 -0.036534
v 0.002786 0.030711 -0.032769
v 0.001282 0.049500 0.000300
v 0.037363 0.052507 -0.021499
v 0.001282 0.017930 -0.007971
v 0.038867 0.018680 -0.028263
v 0.001282 0.047993 -0.026759
v 0.038113 0.043482 -0.001957
v 0.038113 0.043482 -0.034277
v 0.001282 0.019433 -0.027513
v 0.036608 0.015673 -0.012481
v 0.001282 0.035211 0.000300
v 0.037363 0.027701 -0.035780
v 0.017819 0.049500 0.000300
v 0.021576 0.016430 -0.026009
v 0.001282 0.043482 -0.031270
v 0.038113 0.028458 0.000300
v 0.022326 0.023944 -0.034277
v 0.020825 0.051749 -0.023752
v 0.037363 0.052507 -0.013985
v 0.002786 0.021687 -0.003460
v 0.038113 0.019433 -0.005714
v 0.020825 0.047993 -0.030520
v 0.020074 0.041979 -0.035030
v 0.038113 0.049500 -0.028263
v 0.021576 0.052507 -0.017742
v 0.001282 0.049500 -0.022249
v 0.001282 0.025451 -0.032023
v 0.038113 0.048746 -0.006467
v 0.038113 0.035211 -0.036534
v 0.038867 0.022444 -0.004964
v 0.038113 0.015673 -0.022249
v 0.038867 0.031461 -0.034277
v 0.001282 0.017930 -0.024502
v 0.024581 0.015673 -0.016995
v 0.038113 0.038218 0.000300
v 0.028341 0.025451 -0.000453
v 0.020074 0.020940 -0.032023
v 0.028341 0.019433 -0.004964
v 0.038113 0.023190 -0.033527
v 0.020825 0.030711 -0.036534
v 0.036608 0.050250 -0.028263
v 0.028341 0.017176 -0.007971
v 0.001282 0.041229 -0.032023
v 0.026837 0.015673 -0.011728
v 0.038867 0.016430 -0.015488
v 0.035107 0.037472 -0.036534
v 0.037363 0.018680 -0.029016
v 0.002786 0.017930 -0.007217
v 0.036608 0.051000 -0.008721
v 0.028341 0.021687 -0.002707
v 0.023077 0.052507 -0.014738
v 0.022326 0.045735 -0.032769
v 0.020825 0.036718 -0.036534
v 0.001282 0.022444 -0.030520
v 0.020074 0.017176 -0.027513
v 0.020825 0.025451 -0.035030
v 0.001282 0.045735 -0.029766
v 0.037363 0.046493 -0.003460
v 0.038113 0.051000 -0.012481
v 0.020074 0.049500 -0.028263
v 0.032101 0.015673 -0.023752
v 0.014063 0.020940 -0.003460
f 265 277 289 
f 231 229 233 
f 231 233 236 
f 229 231 238 
f 229 238 240 
f 236 233 242 
f 240 238 243 
f 229 240 246 
f 238 231 247 
f 243 226 248 
f 230 245 252 
f 246 230 252 
f 233 229 253 
f 245 233 253 
f 229 252 253 
f 252 245 253 
f 228 227 254 
f 236 242 254 
f 243 248 257 
f 255 234 257 
f 235 251 259 
f 256 235 259 
f 257 232 259 
f 231 236 260 
f 260 241 261 
f 258 237 261 
f 231 260 261 
f 234 240 262 
f 240 243 262 
f 257 234 262 
f 243 257 262 
f 226 243 263 
f 243 238 263 
f 238 247 263 
f 244 239 266 
f 239 256 266 
f 259 232 266 
f 256 259 266 
f 264 244 266 
f 254 227 267 
f 256 239 267 
f 227 256 267 
f 245 230 268 
f 251 235 268 
f 230 251 268 
f 237 248 269 
f 248 265 269 
f 227 228 270 
f 242 250 270 
f 228 254 270 
f 254 242 270 
f 231 261 271 
f 261 237 271 
f 237 269 271 
f 248 237 272 
f 232 257 272 
f 257 248 272 
f 237 258 272 
f 258 232 272 
f 250 235 273 
f 235 256 273 
f 256 227 273 
f 232 258 274 
f 266 232 274 
f 264 266 274 
f 247 231 275 
f 269 265 275 
f 231 271 275 
f 271 269 275 
f 246 240 276 
f 240 255 276 
f 255 246 276 
f 248 226 277 
f 226 263 277 
f 265 248 277 
f 229 246 278 
f 252 229 278 
f 246 252 278 
f 235 250 279 
f 268 235 279 
f 249 268 279 
f 227 270 280 
f 270 250 280 
f 273 227 280 
f 250 273 280 
f 236 254 281 
f 264 236 281 
f 244 264 281 
f 260 236 282 
f 241 260 282 
f 236 264 282 
f 274 241 282 
f 264 274 282 
f 239 244 283 
f 267 239 283 
f 254 267 283 
f 281 254 283 
f 244 281 283 
f 242 233 284 
f 233 249 284 
f 250 242 284 
f 249 279 284 
f 279 250 284 
f 240 234 285 
f 234 255 285 
f 255 240 285 
f 230 246 286 
f 251 230 286 
f 246 255 286 
f 255 257 286 
f 259 251 286 
f 257 259 286 
f 233 245 287 
f 249 233 287 
f 245 268 287 
f 268 249 287 
f 261 241 288 
f 258 261 288 
f 241 274 288 
f 274 258 288 
f 263 247 289 
f 247 275 289 
f 275 265 289 
f 277 263 289 
o convex_5
v -0.032546 0.008155 0.010827
v 0.032102 0.030707 0.021347
v 0.032102 0.030707 0.003310
v 0.032102 0.008155 0.003310
v -0.031786 0.030707 0.004061
v -0.029533 0.008155 0.022852
v -0.030286 0.030707 0.022852
v 0.026084 0.008155 0.022852
v -0.016751 0.008155 0.001052
v 0.032102 0.008155 0.020594
v -0.031786 0.008155 0.004061
v 0.029090 0.030707 0.002556
v 0.023078 0.030707 0.022852
v -0.015251 0.028449 0.002556
v -0.031786 0.030707 0.021347
v 0.030596 0.008155 0.002556
v -0.031786 0.008155 0.021347
v -0.004734 0.010414 0.001052
v -0.028780 0.030707 0.003308
v -0.003228 0.030707 0.002556
v -0.032546 0.017930 0.010074
v -0.032546 0.010414 0.016085
v 0.030596 0.014924 0.022099
v -0.002475 0.008155 0.001052
v 0.030596 0.030707 0.022099
v -0.016004 0.009661 0.001052
f 309 307 315 
f 292 291 293 
f 291 292 294 
f 290 293 295 
f 291 294 296 
f 296 295 297 
f 295 293 297 
f 293 290 298 
f 293 291 299 
f 297 293 299 
f 298 290 300 
f 294 292 301 
f 291 296 302 
f 296 297 302 
f 296 294 304 
f 292 293 305 
f 293 298 305 
f 301 292 305 
f 290 295 306 
f 295 296 306 
f 296 304 306 
f 300 294 308 
f 298 300 308 
f 294 301 308 
f 303 308 309 
f 301 307 309 
f 308 301 309 
f 300 290 310 
f 294 300 310 
f 304 294 310 
f 304 310 311 
f 290 306 311 
f 306 304 311 
f 310 290 311 
f 299 291 312 
f 297 299 312 
f 305 298 313 
f 301 305 313 
f 298 307 313 
f 307 301 313 
f 291 302 314 
f 302 297 314 
f 312 291 314 
f 297 312 314 
f 307 298 315 
f 298 308 315 
f 308 303 315 
f 303 309 315 
o convex_6
v -0.029530 0.047239 0.018338
v 0.005787 0.063031 0.013077
v 0.005787 0.063031 0.004812
v 0.035860 0.032213 0.001053
v -0.034801 0.032213 0.000300
v 0.030597 0.030707 0.022097
v -0.030284 0.030707 0.022852
v 0.019323 0.053257 0.022097
v -0.022019 0.057016 0.004812
v -0.009990 0.057016 0.022852
v 0.027588 0.051751 0.017589
v 0.017815 0.049495 0.000300
v 0.023078 0.056263 0.004060
v 0.031344 0.030707 0.000300
v -0.017502 0.049495 0.000300
v -0.009243 0.062278 0.018338
v 0.014813 0.060772 0.018338
v -0.031038 0.030707 0.000300
v -0.008490 0.062278 0.004060
v 0.032098 0.037478 0.021344
v -0.023520 0.055510 0.018338
v -0.031038 0.041234 0.022097
v 0.023078 0.030707 0.022852
v -0.028783 0.049495 0.004812
v 0.035860 0.034469 0.000300
v 0.003532 0.057766 0.022852
v 0.012551 0.061525 0.004060
v 0.028335 0.050248 0.004060
v -0.003226 0.063031 0.018338
v -0.019764 0.052504 0.022852
v -0.016001 0.060018 0.018338
v -0.031792 0.030707 0.021344
v 0.029843 0.047992 0.016086
v -0.003226 0.063031 0.004060
v 0.023078 0.056263 0.017589
v -0.024267 0.054760 0.004060
v 0.023825 0.049495 0.022097
v -0.016001 0.060018 0.004060
v 0.032098 0.030707 0.021344
v 0.005040 0.063031 0.018338
v -0.034801 0.032963 0.000300
v -0.026528 0.052504 0.018338
v 0.017061 0.060022 0.004812
v 0.011050 0.055510 0.022852
v 0.030597 0.038978 0.022097
v 0.024579 0.054007 0.003309
v 0.031344 0.043490 0.017589
v -0.030284 0.041234 0.022852
v -0.009990 0.062278 0.004812
v -0.031792 0.037475 0.021344
v -0.030284 0.045742 0.016086
f 339 356 366 
f 321 322 329 
f 320 327 329 
f 327 320 330 
f 320 329 333 
f 329 322 333 
f 322 321 338 
f 325 322 338 
f 319 329 340 
f 329 327 340 
f 335 319 340 
f 325 338 341 
f 318 317 342 
f 317 332 342 
f 328 326 343 
f 317 318 344 
f 331 325 344 
f 325 341 344 
f 322 325 345 
f 325 331 346 
f 324 336 346 
f 345 325 346 
f 336 345 346 
f 320 333 347 
f 333 322 347 
f 343 326 348 
f 340 343 348 
f 327 330 349 
f 330 334 349 
f 318 342 349 
f 342 327 349 
f 344 318 349 
f 326 328 350 
f 332 323 350 
f 350 323 352 
f 326 350 352 
f 334 330 353 
f 324 346 353 
f 330 351 353 
f 351 324 353 
f 329 319 354 
f 321 329 354 
f 319 335 354 
f 335 321 354 
f 332 317 355 
f 341 332 355 
f 317 344 355 
f 344 341 355 
f 330 320 356 
f 320 347 356 
f 351 330 356 
f 339 351 356 
f 336 324 357 
f 316 337 357 
f 339 316 357 
f 345 336 357 
f 324 351 357 
f 351 339 357 
f 328 342 358 
f 342 332 358 
f 350 328 358 
f 332 350 358 
f 323 332 359 
f 332 341 359 
f 341 338 359 
f 352 323 359 
f 352 359 360 
f 321 335 360 
f 335 326 360 
f 338 321 360 
f 326 352 360 
f 359 338 360 
f 340 327 361 
f 327 342 361 
f 342 328 361 
f 328 343 361 
f 343 340 361 
f 326 335 362 
f 335 340 362 
f 348 326 362 
f 340 348 362 
f 322 345 363 
f 347 322 363 
f 357 337 363 
f 345 357 363 
f 331 344 364 
f 346 331 364 
f 349 334 364 
f 344 349 364 
f 334 353 364 
f 353 346 364 
f 337 356 365 
f 356 347 365 
f 347 363 365 
f 363 337 365 
f 337 316 366 
f 316 339 366 
f 356 337 366 
o convex_7
v -0.036303 -0.057992 -0.019239
v -0.032548 -0.033192 0.002556
v -0.034047 -0.033192 0.002556
v -0.026534 -0.018910 -0.031272
v -0.040814 -0.018910 -0.029765
v -0.025782 -0.056488 -0.005719
v -0.025782 -0.018910 0.000294
v -0.040061 -0.051224 0.001801
v -0.040061 -0.018910 0.001049
v -0.025782 -0.051977 -0.027510
v -0.040814 -0.051224 -0.027510
v -0.026534 -0.048970 0.002556
v -0.040814 -0.055734 -0.006467
v -0.040061 -0.047467 -0.029010
v -0.040814 -0.018910 -0.001961
v -0.026534 -0.056488 -0.022997
v -0.025782 -0.019664 -0.031272
v -0.040061 -0.055734 -0.024500
v -0.039309 -0.057238 -0.005719
v -0.027285 -0.018910 0.001801
v -0.028037 -0.049720 -0.029010
v -0.027285 -0.054984 -0.001209
v -0.027285 -0.057992 -0.013236
v -0.040061 -0.026428 -0.030517
v -0.040061 -0.047467 0.002556
v -0.040061 -0.019664 0.001801
v -0.040814 -0.040702 0.001049
v -0.040061 -0.057992 -0.018487
v -0.033298 -0.053481 -0.027510
v -0.025782 -0.049720 0.001801
v -0.031044 -0.042206 -0.029765
v -0.040061 -0.054231 -0.000458
v -0.025782 -0.057238 -0.019994
v -0.028037 -0.057238 -0.005719
v -0.039309 -0.057992 -0.010229
v -0.028037 -0.052727 0.001049
v -0.040061 -0.018910 -0.030517
v -0.040814 -0.056488 -0.019994
v -0.025782 -0.029435 0.001801
v -0.027285 -0.054231 -0.026755
v -0.040061 -0.051224 -0.028258
f 387 395 407 
f 370 371 373 
f 373 371 375 
f 373 372 376 
f 368 369 378 
f 371 377 379 
f 375 371 381 
f 371 379 381 
f 370 373 383 
f 373 376 383 
f 382 367 384 
f 369 368 386 
f 373 375 386 
f 368 378 386 
f 383 376 387 
f 377 371 390 
f 380 377 390 
f 370 383 390 
f 378 369 391 
f 374 378 391 
f 375 381 392 
f 369 386 392 
f 386 375 392 
f 391 369 392 
f 379 374 393 
f 381 379 393 
f 374 391 393 
f 392 381 393 
f 391 392 393 
f 384 367 394 
f 367 389 394 
f 372 373 396 
f 388 372 396 
f 387 380 397 
f 383 387 397 
f 380 390 397 
f 390 383 397 
f 374 379 398 
f 379 385 398 
f 385 388 398 
f 376 372 399 
f 367 382 399 
f 382 376 399 
f 389 367 399 
f 372 389 399 
f 372 388 400 
f 388 385 400 
f 389 372 400 
f 389 400 401 
f 385 379 401 
f 379 394 401 
f 394 389 401 
f 400 385 401 
f 378 374 402 
f 396 378 402 
f 388 396 402 
f 374 398 402 
f 398 388 402 
f 371 370 403 
f 370 390 403 
f 390 371 403 
f 379 377 404 
f 377 384 404 
f 394 379 404 
f 384 394 404 
f 373 386 405 
f 386 378 405 
f 396 373 405 
f 378 396 405 
f 376 382 406 
f 382 384 406 
f 387 376 406 
f 384 395 406 
f 395 387 406 
f 377 380 407 
f 384 377 407 
f 380 387 407 
f 395 384 407 
o convex_8
v -0.009239 -0.067016 -0.010976
v 0.024585 -0.018906 -0.001205
v 0.024585 -0.018906 -0.031269
v -0.025779 -0.018906 -0.031269
v -0.025779 -0.037701 0.008567
v 0.023830 -0.059495 -0.031269
v 0.023830 -0.055733 0.006314
v -0.025779 -0.054235 -0.034276
v -0.025779 -0.018906 0.000299
v -0.025779 -0.060249 0.002548
v 0.023076 -0.039957 -0.036534
v 0.023830 -0.066263 -0.006465
v 0.022327 -0.037701 0.008567
v -0.025779 -0.065509 -0.021497
v -0.025024 -0.040715 -0.036534
v 0.022327 -0.067016 -0.018490
v -0.024275 -0.050477 0.008567
v 0.023076 -0.051979 -0.035780
v 0.023076 -0.046714 0.009321
v -0.025024 -0.065509 -0.005716
v -0.025024 -0.063253 -0.026758
v 0.024585 -0.057240 -0.017736
v 0.022327 -0.064007 -0.001205
v -0.013750 -0.018906 0.001049
v 0.023830 -0.064760 -0.024504
v -0.025024 -0.046714 -0.036534
v -0.024275 -0.040715 0.009321
v 0.023830 -0.033943 0.007063
v -0.025024 -0.034701 0.007817
v 0.024585 -0.051221 0.000299
v -0.025024 -0.057240 -0.032768
v 0.023830 -0.046714 -0.036534
v -0.021268 -0.057988 0.004810
v 0.022327 -0.061002 0.002548
v -0.016757 -0.067016 -0.014733
v 0.023830 -0.018906 -0.000455
v -0.020514 -0.062505 0.000299
v 0.024585 -0.052733 -0.027507
v 0.022327 -0.067016 -0.008723
v 0.007291 -0.062505 -0.028257
v 0.004284 -0.034701 0.007817
v -0.025024 -0.045966 0.009321
v -0.008485 -0.066263 -0.020748
v -0.025779 -0.066263 -0.009477
v 0.023076 -0.052733 0.007817
v -0.025024 -0.054235 0.007063
v -0.015253 -0.061002 -0.029760
v 0.002780 -0.056491 -0.033526
v -0.025024 -0.036957 -0.035780
v -0.022771 -0.064760 -0.003462
v -0.013750 -0.051221 -0.035780
v 0.019320 -0.042212 0.009321
v -0.024275 -0.018906 0.001049
v -0.010743 -0.064760 -0.024504
v 0.024585 -0.030190 0.002548
v 0.023076 -0.057240 0.005560
v 0.023830 -0.049724 0.008567
v -0.025024 -0.066263 -0.019244
v 0.011802 -0.065509 -0.004212
v -0.014504 -0.066263 -0.007219
v -0.025779 -0.037701 -0.035780
v 0.023076 -0.058747 -0.032023
v 0.023830 -0.065509 -0.023001
v 0.005787 -0.048221 -0.036534
f 425 458 471 
f 409 410 411 
f 412 411 415 
f 409 411 416 
f 411 412 416 
f 412 415 417 
f 411 410 418 
f 417 415 421 
f 421 415 428 
f 410 409 429 
f 409 416 431 
f 422 418 433 
f 420 426 435 
f 416 412 436 
f 412 434 436 
f 414 419 437 
f 429 409 437 
f 419 429 437 
f 428 415 438 
f 418 410 439 
f 413 425 439 
f 433 418 439 
f 419 414 441 
f 430 419 441 
f 440 417 441 
f 423 408 442 
f 409 431 443 
f 435 409 443 
f 431 435 443 
f 441 417 444 
f 430 441 444 
f 410 429 445 
f 432 413 445 
f 439 410 445 
f 413 439 445 
f 408 423 446 
f 423 419 446 
f 413 432 447 
f 434 420 448 
f 420 435 448 
f 435 431 448 
f 431 436 448 
f 436 434 448 
f 412 417 449 
f 424 426 449 
f 434 412 449 
f 426 434 449 
f 417 421 451 
f 427 417 451 
f 442 408 451 
f 417 440 453 
f 449 417 453 
f 424 449 453 
f 452 424 453 
f 428 438 454 
f 447 428 454 
f 438 415 455 
f 411 418 456 
f 418 422 456 
f 417 427 457 
f 444 417 457 
f 430 444 457 
f 415 433 458 
f 425 455 458 
f 455 415 458 
f 426 420 459 
f 420 434 459 
f 434 426 459 
f 431 416 460 
f 436 431 460 
f 416 436 460 
f 421 428 461 
f 447 432 461 
f 428 447 461 
f 450 421 461 
f 409 435 462 
f 437 409 462 
f 441 414 463 
f 440 441 463 
f 414 452 463 
f 453 440 463 
f 452 453 463 
f 426 424 464 
f 435 426 464 
f 414 437 464 
f 452 414 464 
f 424 452 464 
f 462 435 464 
f 437 462 464 
f 423 442 465 
f 421 450 465 
f 450 423 465 
f 451 421 465 
f 442 451 465 
f 419 430 466 
f 446 419 466 
f 430 457 466 
f 466 457 467 
f 408 446 467 
f 451 408 467 
f 427 451 467 
f 457 427 467 
f 446 466 467 
f 415 411 468 
f 433 415 468 
f 422 433 468 
f 411 456 468 
f 456 422 468 
f 425 413 469 
f 413 447 469 
f 454 438 469 
f 447 454 469 
f 455 425 469 
f 438 455 469 
f 419 423 470 
f 429 419 470 
f 445 429 470 
f 432 445 470 
f 423 450 470 
f 461 432 470 
f 450 461 470 
f 439 425 471 
f 433 439 471 
f 458 433 471 
