o convex_0
v -0.062395 0.002975 -0.005594
v -0.051415 -0.006960 -0.022844
v -0.051415 -0.006437 -0.023368
v -0.056122 0.004021 0.001203
v -0.050891 0.005590 -0.022322
v -0.061349 -0.005914 0.001203
v -0.059257 -0.003822 -0.016047
v -0.050891 -0.004345 -0.016047
v -0.060826 0.006636 0.001203
v -0.057165 -0.004868 0.001203
v -0.056645 0.005067 -0.018138
v -0.052462 0.000360 -0.024413
v -0.060826 -0.005914 -0.009253
v -0.050891 0.005067 -0.017616
v -0.062919 -0.002776 0.001203
v -0.050891 -0.006960 -0.018662
v -0.058211 0.006636 0.001203
v -0.060304 0.006636 -0.005594
v -0.060826 0.002452 -0.012388
v -0.058211 -0.006960 -0.013956
v -0.061871 -0.002253 -0.009775
v -0.057165 -0.001207 -0.019707
v -0.056122 -0.002253 0.001203
v -0.059257 -0.006437 -0.000363
v -0.054553 -0.005391 -0.021800
v -0.050891 0.001929 -0.015525
v -0.050891 -0.003822 -0.024937
v -0.062395 0.004544 0.001203
v -0.060826 0.005590 -0.008206
v -0.051415 0.003498 -0.024413
v -0.056122 0.002975 -0.020231
v -0.062919 -0.001730 -0.004025
f 15 28 32 
f 6 4 9 
f 4 6 10 
f 8 5 14 
f 6 9 15 
f 13 6 15 
f 5 8 16 
f 9 4 17 
f 4 14 17 
f 14 5 17 
f 5 11 18 
f 17 5 18 
f 9 17 18 
f 6 13 20 
f 13 7 20 
f 2 16 20 
f 7 13 21 
f 19 7 21 
f 1 19 21 
f 7 19 22 
f 4 10 23 
f 16 8 23 
f 10 16 23 
f 10 6 24 
f 16 10 24 
f 6 20 24 
f 20 16 24 
f 3 2 25 
f 2 20 25 
f 20 7 25 
f 7 22 25 
f 22 12 25 
f 14 4 26 
f 8 14 26 
f 4 23 26 
f 23 8 26 
f 2 3 27 
f 16 2 27 
f 5 16 27 
f 3 25 27 
f 25 12 27 
f 15 9 28 
f 9 18 28 
f 28 18 29 
f 18 11 29 
f 11 19 29 
f 19 1 29 
f 1 28 29 
f 11 5 30 
f 5 27 30 
f 27 12 30 
f 19 11 31 
f 12 22 31 
f 22 19 31 
f 11 30 31 
f 30 12 31 
f 13 15 32 
f 21 13 32 
f 1 21 32 
f 28 1 32 
o convex_1
v -0.036249 0.000360 -0.023371
v -0.037818 -0.002775 -0.030692
v -0.037818 -0.000162 -0.030692
v -0.050891 -0.002775 -0.016049
v -0.050891 0.005589 -0.022851
v -0.049322 -0.006959 -0.024414
v -0.035725 -0.006959 -0.027032
v -0.035725 0.006112 -0.026508
v -0.050367 0.004544 -0.017619
v -0.050891 -0.002775 -0.025461
v -0.043047 0.004544 -0.028075
v -0.050891 -0.006959 -0.019190
v -0.035725 -0.004867 -0.024414
v -0.035725 0.004020 -0.030169
v -0.035725 -0.005391 -0.030169
v -0.050367 0.001928 -0.016049
v -0.047229 0.000360 -0.027552
v -0.035725 0.005066 -0.024939
v -0.042524 -0.004344 -0.029123
v -0.050891 0.005589 -0.019190
v -0.040957 0.006112 -0.027032
v -0.050891 0.002975 -0.024939
v -0.050367 -0.002775 -0.016049
v -0.040434 -0.006436 -0.028600
f 51 47 56 
f 36 37 42 
f 38 39 44 
f 36 42 44 
f 42 38 44 
f 39 40 45 
f 44 39 45 
f 34 35 46 
f 40 39 46 
f 35 43 46 
f 34 46 47 
f 46 39 47 
f 43 35 49 
f 40 41 50 
f 33 45 50 
f 45 40 50 
f 48 33 50 
f 41 48 50 
f 35 34 51 
f 38 42 51 
f 34 47 51 
f 49 35 51 
f 42 49 51 
f 37 36 52 
f 41 40 52 
f 36 48 52 
f 48 41 52 
f 43 37 53 
f 40 46 53 
f 46 43 53 
f 37 52 53 
f 52 40 53 
f 42 37 54 
f 37 43 54 
f 49 42 54 
f 43 49 54 
f 36 44 55 
f 45 33 55 
f 44 45 55 
f 33 48 55 
f 48 36 55 
f 39 38 56 
f 47 39 56 
f 38 51 56 
o convex_2
v -0.062919 -0.001207 0.004872
v -0.048276 0.004021 0.019510
v -0.048276 -0.001730 0.019510
v -0.056118 0.004021 0.001210
v -0.056118 0.006636 0.019510
v -0.056118 -0.005391 0.018987
v -0.058735 -0.005915 0.001210
v -0.059779 0.007159 0.001210
v -0.060825 0.004021 0.012712
v -0.050370 0.007159 0.018987
v -0.061873 -0.005391 0.001210
v -0.060302 -0.002776 0.014281
v -0.051417 -0.005391 0.019510
v -0.056641 -0.003822 0.001210
v -0.062396 0.004544 0.001210
v -0.059779 0.007159 0.010100
v -0.057689 -0.001730 0.019510
v -0.054554 0.007682 0.019510
v -0.059779 -0.005915 0.009054
v -0.056641 0.005590 0.001210
v -0.048276 -0.001730 0.018987
v -0.061350 -0.004345 0.009577
v -0.061873 0.005590 0.005916
v -0.056118 -0.002253 0.001210
v -0.059258 0.001929 0.016895
v -0.057164 -0.004868 0.001210
f 70 77 82 
f 59 58 61 
f 60 63 64 
f 64 63 67 
f 65 57 68 
f 59 61 69 
f 63 60 70 
f 67 57 71 
f 64 67 71 
f 65 61 72 
f 68 62 73 
f 69 61 73 
f 62 69 73 
f 61 58 74 
f 58 66 74 
f 66 64 74 
f 72 61 74 
f 64 72 74 
f 67 63 75 
f 69 62 75 
f 63 69 75 
f 58 60 76 
f 60 64 76 
f 66 58 76 
f 64 66 76 
f 58 59 77 
f 60 58 77 
f 59 69 77 
f 57 67 78 
f 62 68 78 
f 68 57 78 
f 67 75 78 
f 75 62 78 
f 57 65 79 
f 71 57 79 
f 64 71 79 
f 65 72 79 
f 72 64 79 
f 70 60 80 
f 60 77 80 
f 77 70 80 
f 61 65 81 
f 65 68 81 
f 73 61 81 
f 68 73 81 
f 69 63 82 
f 63 70 82 
f 77 69 82 
o convex_3
v -0.053504 -0.004344 0.023174
v -0.035725 0.008205 0.027356
v -0.036252 0.006636 0.028925
v -0.035725 -0.006960 0.022127
v -0.054025 0.007682 0.019512
v -0.035725 0.004021 0.020558
v -0.036252 -0.005914 0.028402
v -0.048276 0.004021 0.027356
v -0.055074 -0.005390 0.019512
v -0.043571 -0.002253 0.028925
v -0.035725 -0.003299 0.020035
v -0.057167 0.002975 0.020035
v -0.042005 -0.006960 0.026833
v -0.050366 0.007158 0.024742
v -0.035725 0.008205 0.023697
v -0.035725 0.004544 0.029971
v -0.051412 -0.001731 0.025786
v -0.043050 0.008205 0.026833
v -0.035725 -0.002253 0.029971
v -0.049842 0.007158 0.019512
v -0.054025 0.005066 0.023174
v -0.039910 -0.007483 0.023697
v -0.042525 0.005066 0.028925
v -0.048276 -0.004868 0.026309
v -0.035725 -0.007483 0.026309
v -0.056119 -0.001207 0.021605
v -0.050887 -0.005390 0.019512
v -0.047749 -0.006436 0.024742
v -0.035725 0.007158 0.022127
f 88 102 111 
f 84 86 88 
f 88 86 93 
f 87 91 94 
f 89 92 95 
f 84 88 97 
f 84 85 98 
f 86 84 98 
f 92 90 99 
f 85 84 100 
f 87 96 100 
f 84 97 100 
f 97 87 100 
f 92 89 101 
f 86 98 101 
f 98 92 101 
f 91 87 102 
f 88 93 102 
f 87 94 103 
f 96 87 103 
f 90 96 103 
f 99 90 103 
f 91 86 104 
f 90 92 105 
f 96 90 105 
f 98 85 105 
f 92 98 105 
f 85 100 105 
f 100 96 105 
f 95 92 106 
f 92 99 106 
f 99 83 106 
f 89 95 107 
f 86 101 107 
f 101 89 107 
f 104 86 107 
f 95 104 107 
f 91 83 108 
f 94 91 108 
f 83 99 108 
f 103 94 108 
f 99 103 108 
f 86 91 109 
f 93 86 109 
f 91 102 109 
f 102 93 109 
f 83 91 110 
f 91 104 110 
f 104 95 110 
f 106 83 110 
f 95 106 110 
f 87 97 111 
f 97 88 111 
f 102 87 111 
o convex_4
v 0.015004 -0.025261 -0.038537
v 0.031737 -0.006960 -0.034353
v 0.031737 -0.007484 -0.034353
v 0.024414 -0.006960 -0.045335
v 0.004543 -0.006960 -0.035924
v 0.004543 -0.022648 -0.045335
v 0.004543 -0.029448 -0.034353
v 0.004543 -0.006960 -0.041151
v 0.026503 -0.018462 -0.034878
v 0.019180 -0.017947 -0.044288
v 0.019705 -0.024739 -0.034353
v 0.026503 -0.012714 -0.040627
v 0.005067 -0.022124 -0.034353
v 0.009773 -0.023694 -0.043765
v 0.024414 -0.006960 -0.034353
v 0.004543 -0.020555 -0.045335
v 0.016050 -0.018988 -0.045335
v 0.021800 -0.006960 -0.045335
v 0.010819 -0.028400 -0.035400
v 0.020754 -0.020555 -0.040104
v 0.006113 -0.027354 -0.039061
v 0.030166 -0.009575 -0.036968
v 0.021800 -0.013238 -0.045335
v 0.017621 -0.020555 -0.043242
v 0.027028 -0.007484 -0.042720
v 0.023368 -0.017420 -0.040627
f 131 135 137 
f 113 115 116 
f 116 117 118 
f 114 113 118 
f 116 115 119 
f 117 116 119 
f 114 118 122 
f 120 114 122 
f 116 118 124 
f 118 113 124 
f 113 116 126 
f 124 113 126 
f 116 124 126 
f 115 117 127 
f 117 119 127 
f 117 115 128 
f 125 117 128 
f 119 115 129 
f 115 127 129 
f 127 119 129 
f 112 122 130 
f 122 118 130 
f 125 112 130 
f 120 122 131 
f 122 112 131 
f 118 117 132 
f 117 125 132 
f 130 118 132 
f 125 130 132 
f 114 120 133 
f 120 123 133 
f 128 115 134 
f 121 128 134 
f 112 125 135 
f 128 121 135 
f 125 128 135 
f 131 112 135 
f 113 114 136 
f 115 113 136 
f 114 133 136 
f 133 123 136 
f 134 115 136 
f 123 134 136 
f 123 120 137 
f 120 131 137 
f 134 123 137 
f 121 134 137 
f 135 121 137 
o convex_5
v -0.010097 -0.022127 -0.042197
v 0.004538 -0.016898 -0.035922
v 0.004538 -0.024217 -0.032784
v -0.021603 -0.016898 -0.032784
v -0.004350 -0.029446 -0.032784
v 0.004538 -0.020559 -0.045335
v -0.011144 -0.016898 -0.045335
v 0.004538 -0.027354 -0.039060
v -0.000690 -0.023695 -0.044287
v -0.015328 -0.024217 -0.033307
v 0.004538 -0.016898 -0.042197
v 0.004538 -0.029969 -0.032784
v -0.016372 -0.017421 -0.041674
v -0.013759 -0.016898 -0.032784
v -0.006441 -0.026832 -0.037491
v 0.004538 -0.022651 -0.045335
v -0.000166 -0.028401 -0.036970
v -0.007487 -0.021082 -0.044812
v -0.020034 -0.019513 -0.033832
v -0.012713 -0.024740 -0.035922
v -0.015328 -0.021082 -0.038539
v -0.009053 -0.027877 -0.032784
v -0.004872 -0.024740 -0.041674
f 155 146 160 
f 140 141 142 
f 139 140 143 
f 141 139 144 
f 143 140 145 
f 139 143 148 
f 143 144 148 
f 144 139 148 
f 140 142 149 
f 145 140 149 
f 141 144 150 
f 140 139 151 
f 141 140 151 
f 139 141 151 
f 144 143 153 
f 143 145 153 
f 145 146 153 
f 146 145 154 
f 149 142 154 
f 145 149 154 
f 142 152 154 
f 138 150 155 
f 150 144 155 
f 144 153 155 
f 153 146 155 
f 147 141 156 
f 141 150 156 
f 138 152 157 
f 150 138 158 
f 147 156 158 
f 156 150 158 
f 157 147 158 
f 138 157 158 
f 142 141 159 
f 141 147 159 
f 152 142 159 
f 147 157 159 
f 157 152 159 
f 152 138 160 
f 146 154 160 
f 154 152 160 
f 138 155 160 
o convex_6
v -0.024741 -0.012189 -0.032784
v -0.015329 -0.012712 -0.045335
v -0.015329 -0.011668 -0.045335
v 0.004543 -0.006960 -0.035922
v 0.004543 -0.016897 -0.035922
v -0.023696 -0.006960 -0.038539
v 0.004543 -0.006960 -0.041149
v -0.010623 -0.016897 -0.045335
v -0.022128 -0.016897 -0.032784
v -0.020035 -0.006960 -0.032784
v 0.004543 -0.016897 -0.041674
v -0.018990 -0.006960 -0.044812
v -0.014281 -0.016897 -0.032784
v -0.018467 -0.015326 -0.041149
v -0.025789 -0.006960 -0.032784
v -0.015329 -0.006960 -0.044812
v -0.015329 -0.016897 -0.043243
v -0.020035 -0.009577 -0.043243
v -0.022128 -0.012712 -0.038014
v -0.007488 -0.016372 -0.044812
f 168 176 180 
f 166 164 167 
f 164 165 167 
f 162 163 168 
f 168 165 169 
f 164 166 170 
f 161 169 170 
f 167 165 171 
f 165 168 171 
f 163 162 172 
f 166 167 172 
f 165 164 173 
f 169 165 173 
f 164 170 173 
f 170 169 173 
f 166 161 175 
f 161 170 175 
f 170 166 175 
f 168 163 176 
f 163 172 176 
f 172 167 176 
f 162 168 177 
f 168 169 177 
f 169 174 177 
f 177 174 178 
f 172 162 178 
f 166 172 178 
f 162 177 178 
f 161 166 179 
f 169 161 179 
f 174 169 179 
f 178 174 179 
f 166 178 179 
f 167 171 180 
f 171 168 180 
f 176 167 180 
o convex_7
v -0.014808 -0.025783 -0.031215
v -0.031542 -0.009054 -0.016050
v -0.031018 -0.010100 -0.018141
v -0.020561 -0.006960 -0.032784
v -0.014284 -0.025783 -0.015526
v -0.020039 -0.027352 -0.015526
v -0.023695 -0.016898 -0.031215
v -0.027357 -0.006960 -0.015526
v -0.026310 -0.006960 -0.032784
v -0.014284 -0.017421 -0.032784
v -0.024740 -0.022123 -0.018665
v -0.014284 -0.030494 -0.018141
v -0.015853 -0.024216 -0.032784
v -0.019516 -0.024737 -0.025983
v -0.027879 -0.017946 -0.015526
v -0.031542 -0.006960 -0.015526
v -0.026834 -0.014806 -0.025983
v -0.028403 -0.007486 -0.028600
v -0.020561 -0.006960 -0.032260
v -0.024740 -0.012717 -0.032784
v -0.014284 -0.024737 -0.032784
v -0.015331 -0.030494 -0.017619
v -0.028927 -0.015852 -0.017619
v -0.014284 -0.030494 -0.015526
v -0.020561 -0.021077 -0.031215
v -0.021085 -0.026308 -0.018141
v -0.014808 -0.016377 -0.032260
f 199 185 207 
f 186 185 188 
f 188 184 189 
f 189 184 190 
f 190 185 192 
f 189 190 193 
f 193 181 194 
f 186 188 195 
f 191 186 195 
f 188 189 196 
f 182 195 196 
f 195 188 196 
f 187 191 197 
f 183 182 198 
f 182 196 198 
f 196 189 198 
f 197 183 198 
f 184 188 199 
f 188 185 199 
f 189 193 200 
f 187 197 200 
f 198 189 200 
f 197 198 200 
f 192 181 201 
f 190 192 201 
f 181 193 201 
f 193 190 201 
f 181 192 202 
f 194 181 202 
f 182 183 203 
f 195 182 203 
f 191 195 203 
f 183 197 203 
f 197 191 203 
f 185 186 204 
f 192 185 204 
f 186 202 204 
f 202 192 204 
f 191 187 205 
f 194 191 205 
f 193 194 205 
f 187 200 205 
f 200 193 205 
f 186 191 206 
f 191 194 206 
f 202 186 206 
f 194 202 206 
f 185 190 207 
f 190 184 207 
f 184 199 207 
o convex_8
v -0.026833 -0.023696 0.046706
v -0.017422 -0.033107 0.009053
v -0.016899 -0.033107 0.009053
v -0.027356 -0.017943 -0.015526
v -0.016899 -0.025788 0.031014
v -0.016899 -0.024220 -0.015526
v -0.024742 -0.017943 0.036758
v -0.031542 -0.018467 0.011155
v -0.016899 -0.032585 0.046182
v -0.024220 -0.028400 0.010631
v -0.018992 -0.029447 -0.012901
v -0.022652 -0.017943 -0.015526
v -0.030494 -0.017943 0.046706
v -0.026833 -0.023174 -0.007680
v -0.016899 -0.028400 0.045134
v -0.028926 -0.023174 0.030490
v -0.021083 -0.030492 0.043039
v -0.016899 -0.029447 -0.015526
v -0.018469 -0.033107 0.021602
v -0.026833 -0.017943 0.045134
v -0.028403 -0.023696 0.010631
v -0.028403 -0.018991 -0.013425
v -0.024220 -0.028400 0.031538
v -0.026833 -0.024741 0.045658
v -0.031017 -0.018467 0.045658
v -0.020560 -0.029969 -0.004013
v -0.024220 -0.024741 -0.013425
v -0.031542 -0.017943 0.011155
v -0.031017 -0.020036 0.026305
v -0.016899 -0.030492 0.046706
v -0.017422 -0.031538 -0.008198
v -0.018992 -0.032585 0.010631
v -0.029448 -0.020036 -0.004013
v -0.025267 -0.025786 -0.003489
v -0.018469 -0.032061 0.046182
v -0.016899 -0.026831 0.039378
v -0.026833 -0.025786 0.027353
v -0.025267 -0.022127 -0.015526
v -0.028403 -0.017943 0.046706
f 237 222 246 
f 212 210 213 
f 210 212 216 
f 212 213 219 
f 213 211 219 
f 211 214 219 
f 214 212 219 
f 214 211 220 
f 216 212 222 
f 213 210 225 
f 211 213 225 
f 209 210 226 
f 210 216 226 
f 214 220 227 
f 217 226 230 
f 226 224 230 
f 230 224 231 
f 208 220 232 
f 231 208 232 
f 223 231 232 
f 225 218 234 
f 221 229 234 
f 218 233 234 
f 220 211 235 
f 211 229 235 
f 229 215 235 
f 232 220 235 
f 215 232 235 
f 215 228 236 
f 228 223 236 
f 232 215 236 
f 223 232 236 
f 220 208 237 
f 216 222 237 
f 210 209 238 
f 225 210 238 
f 218 225 238 
f 233 218 238 
f 233 238 239 
f 209 226 239 
f 226 217 239 
f 217 233 239 
f 238 209 239 
f 228 215 240 
f 221 228 240 
f 215 229 240 
f 229 221 240 
f 228 221 241 
f 217 228 241 
f 233 217 241 
f 221 234 241 
f 234 233 241 
f 226 216 242 
f 224 226 242 
f 208 231 242 
f 231 224 242 
f 237 208 242 
f 216 237 242 
f 212 214 243 
f 222 212 243 
f 214 227 243 
f 227 222 243 
f 228 217 244 
f 223 228 244 
f 217 230 244 
f 231 223 244 
f 230 231 244 
f 211 225 245 
f 229 211 245 
f 225 234 245 
f 234 229 245 
f 227 220 246 
f 222 227 246 
f 220 237 246 
o convex_9
v -0.033632 -0.012712 0.044086
v -0.023174 -0.017419 -0.013955
v -0.023174 -0.017943 -0.013955
v -0.032587 -0.007484 -0.013425
v -0.029449 -0.006960 0.037282
v -0.031018 -0.017943 0.000696
v -0.026836 -0.017943 0.044086
v -0.027360 -0.007484 -0.015526
v -0.035724 -0.006960 0.022644
v -0.034156 -0.006960 0.046706
v -0.031018 -0.017943 0.046182
v -0.024744 -0.017419 0.033627
v -0.027882 -0.017943 -0.015526
v -0.033632 -0.014281 0.015340
v -0.034156 -0.006960 -0.004013
v -0.028927 -0.006960 0.032062
v -0.034156 -0.010622 0.001737
v -0.023174 -0.016896 -0.015526
v -0.032587 -0.016896 0.030490
v -0.031540 -0.006960 0.045658
v -0.030496 -0.014804 -0.012901
v -0.031540 -0.006960 -0.015526
v -0.028927 -0.016896 0.046706
v -0.035724 -0.007484 0.026829
v -0.027882 -0.006960 -0.015526
v -0.034678 -0.008006 0.046182
v -0.032063 -0.017419 0.010107
v -0.025790 -0.017419 0.039901
v -0.033110 -0.010099 -0.007680
v -0.031540 -0.017943 0.041991
v -0.024744 -0.017943 0.033627
f 258 274 277 
f 252 249 253 
f 251 255 256 
f 252 253 257 
f 249 248 258 
f 249 252 259 
f 255 251 261 
f 251 258 262 
f 261 251 262 
f 255 261 263 
f 248 249 264 
f 258 248 264 
f 249 259 264 
f 259 254 264 
f 254 262 264 
f 262 258 264 
f 251 256 266 
f 259 252 267 
f 252 263 267 
f 254 259 268 
f 250 261 268 
f 261 262 268 
f 259 267 268 
f 267 250 268 
f 257 253 269 
f 256 257 269 
f 253 266 269 
f 266 256 269 
f 256 255 270 
f 263 260 270 
f 255 263 270 
f 265 247 270 
f 260 265 270 
f 262 254 271 
f 254 268 271 
f 268 262 271 
f 247 257 272 
f 257 256 272 
f 270 247 272 
f 256 270 272 
f 263 252 273 
f 260 263 273 
f 265 260 273 
f 258 251 274 
f 251 266 274 
f 266 253 274 
f 261 250 275 
f 263 261 275 
f 250 267 275 
f 267 263 275 
f 257 247 276 
f 252 257 276 
f 247 265 276 
f 273 252 276 
f 265 273 276 
f 253 249 277 
f 249 258 277 
f 274 253 277 
o convex_10
v 0.020752 -0.033629 -0.004021
v 0.004543 -0.034677 -0.019710
v 0.004543 -0.030496 -0.019710
v 0.022323 -0.024218 -0.019710
v 0.004543 -0.033108 -0.004545
v 0.022323 -0.027880 -0.004021
v 0.022323 -0.029450 -0.019710
v 0.006635 -0.037815 -0.004021
v 0.016045 -0.033108 -0.018663
v 0.021799 -0.024218 -0.018141
v 0.009775 -0.036769 -0.008728
v 0.004543 -0.037291 -0.004021
v 0.022323 -0.032061 -0.009252
v 0.017091 -0.034677 -0.009252
v 0.007159 -0.036245 -0.013957
v 0.004543 -0.030496 -0.018141
v 0.013955 -0.036245 -0.005069
v 0.010297 -0.034154 -0.019710
f 286 292 295 
f 279 280 281 
f 280 279 282 
f 279 281 284 
f 281 283 284 
f 278 283 285 
f 281 280 287 
f 283 281 287 
f 282 283 287 
f 282 279 289 
f 283 282 289 
f 279 285 289 
f 285 283 289 
f 283 278 290 
f 284 283 290 
f 286 284 290 
f 286 290 291 
f 288 286 291 
f 290 278 291 
f 285 279 292 
f 288 285 292 
f 286 288 292 
f 280 282 293 
f 287 280 293 
f 282 287 293 
f 278 285 294 
f 285 288 294 
f 291 278 294 
f 288 291 294 
f 279 284 295 
f 284 286 295 
f 292 279 295 
o convex_11
v 0.004543 -0.037290 -0.004021
v 0.022323 -0.031017 0.046706
v 0.022323 -0.032586 0.046706
v 0.022323 -0.027880 -0.004021
v 0.004543 -0.032587 0.032584
v 0.004543 -0.038337 0.045653
v 0.019707 -0.035199 0.005393
v 0.021799 -0.026833 0.035722
v 0.004543 -0.033631 -0.004021
v 0.013433 -0.037814 0.015860
v 0.022323 -0.032586 -0.004021
v 0.004543 -0.034677 0.044610
v 0.018139 -0.035722 0.044610
v 0.006636 -0.037814 -0.004021
v 0.022323 -0.034154 0.031536
v 0.021799 -0.026833 0.024217
v 0.005068 -0.038861 0.015334
v 0.011343 -0.037814 0.042520
v 0.022323 -0.028925 0.044610
v 0.012911 -0.036769 -0.004021
v 0.004543 -0.036245 0.046706
v 0.016569 -0.036769 0.031015
v 0.006636 -0.038861 0.026303
v 0.022323 -0.034154 0.010100
v 0.009773 -0.038337 0.010100
v 0.009251 -0.037814 0.046179
v 0.021799 -0.027880 -0.004021
v 0.004543 -0.034153 0.043041
v 0.016569 -0.036245 0.001212
v 0.004543 -0.032587 0.028925
v 0.019184 -0.035722 0.014808
v 0.020231 -0.034154 -0.004021
v 0.021799 -0.034154 0.043041
v 0.022323 -0.026833 0.035722
v 0.021276 -0.026833 0.031536
f 311 325 330 
f 297 298 299 
f 300 296 301 
f 299 296 304 
f 296 300 304 
f 299 298 306 
f 296 299 306 
f 300 301 307 
f 296 306 309 
f 306 298 310 
f 301 296 312 
f 296 309 312 
f 297 299 314 
f 309 306 315 
f 298 297 316 
f 307 301 316 
f 297 314 316 
f 314 307 316 
f 308 313 317 
f 313 305 317 
f 301 312 318 
f 313 301 318 
f 305 313 318 
f 306 310 319 
f 312 309 320 
f 309 315 320 
f 318 312 320 
f 305 318 320 
f 308 298 321 
f 301 313 321 
f 313 308 321 
f 298 316 321 
f 316 301 321 
f 299 304 322 
f 311 299 322 
f 304 311 322 
f 303 300 323 
f 300 307 323 
f 314 303 323 
f 307 314 323 
f 305 320 324 
f 320 315 324 
f 304 300 325 
f 311 304 325 
f 317 305 326 
f 310 317 326 
f 302 319 326 
f 319 310 326 
f 324 302 326 
f 305 324 326 
f 315 306 327 
f 319 302 327 
f 306 319 327 
f 302 324 327 
f 324 315 327 
f 298 308 328 
f 310 298 328 
f 317 310 328 
f 308 317 328 
f 299 311 329 
f 311 303 329 
f 314 299 329 
f 303 314 329 
f 300 303 330 
f 303 311 330 
f 325 300 330 
o convex_12
v 0.038012 -0.017420 0.031012
v 0.022323 -0.034154 0.028919
v 0.022847 -0.034154 0.028919
v 0.028076 -0.017420 -0.019710
v 0.022323 -0.027353 0.039906
v 0.030690 -0.026832 -0.004543
v 0.022323 -0.028924 -0.019710
v 0.033305 -0.017420 0.045659
v 0.030690 -0.027355 0.045659
v 0.036443 -0.017944 -0.009250
v 0.022323 -0.023695 -0.019710
v 0.022323 -0.032585 0.046706
v 0.033827 -0.024742 0.010624
v 0.030690 -0.017420 0.035199
v 0.023371 -0.033106 0.000691
v 0.030690 -0.022650 -0.019183
v 0.036965 -0.018991 0.045659
v 0.028598 -0.029971 0.010104
v 0.033305 -0.017420 -0.019710
v 0.022323 -0.026308 0.034666
v 0.037488 -0.019513 0.029965
v 0.037488 -0.018466 0.001211
v 0.024417 -0.029971 -0.013430
v 0.027552 -0.030492 0.041999
v 0.033305 -0.025264 0.031539
v 0.022323 -0.029445 0.046179
v 0.036443 -0.017420 0.046706
v 0.022323 -0.032063 -0.008723
v 0.028076 -0.030492 0.031012
v 0.034873 -0.022650 0.044079
v 0.027030 -0.026832 -0.018137
v 0.023371 -0.033106 0.044606
v 0.034873 -0.021605 -0.004543
v 0.037488 -0.017420 0.000164
v 0.025462 -0.032585 0.024738
v 0.025462 -0.031016 -0.005056
v 0.033305 -0.023695 0.046706
v 0.033827 -0.020558 -0.013957
v 0.027552 -0.017946 -0.019183
v 0.028598 -0.029445 0.001211
f 345 366 370 
f 332 335 337 
f 331 334 338 
f 334 337 341 
f 337 335 341 
f 335 332 342 
f 338 334 344 
f 335 338 344 
f 333 332 345 
f 334 331 349 
f 337 334 349 
f 346 337 349 
f 341 335 350 
f 335 344 350 
f 331 347 351 
f 331 351 352 
f 351 343 352 
f 348 343 355 
f 343 351 355 
f 338 335 356 
f 335 342 356 
f 356 342 357 
f 331 338 357 
f 347 331 357 
f 338 356 357 
f 332 337 358 
f 345 332 358 
f 337 353 358 
f 339 354 359 
f 348 355 359 
f 355 339 359 
f 351 347 360 
f 339 355 360 
f 355 351 360 
f 337 346 361 
f 346 336 361 
f 353 337 361 
f 332 333 362 
f 342 332 362 
f 339 342 362 
f 333 354 362 
f 354 339 362 
f 343 336 363 
f 340 352 363 
f 352 343 363 
f 349 331 364 
f 340 349 364 
f 331 352 364 
f 352 340 364 
f 333 345 365 
f 345 348 365 
f 354 333 365 
f 348 359 365 
f 359 354 365 
f 345 358 366 
f 358 353 366 
f 361 336 366 
f 353 361 366 
f 342 339 367 
f 357 342 367 
f 347 357 367 
f 339 360 367 
f 360 347 367 
f 336 346 368 
f 349 340 368 
f 346 349 368 
f 363 336 368 
f 340 363 368 
f 334 341 369 
f 344 334 369 
f 341 350 369 
f 350 344 369 
f 336 343 370 
f 343 348 370 
f 348 345 370 
f 366 336 370 
o convex_13
v -0.011147 0.021274 -0.042197
v -0.026312 -0.002771 -0.034876
v -0.024219 -0.002771 -0.039061
v -0.010623 -0.006960 -0.035922
v -0.010623 0.025463 -0.034353
v -0.015855 -0.006960 -0.044812
v -0.019513 0.011340 -0.042718
v -0.021603 0.016050 -0.034876
v -0.010623 0.014479 -0.044812
v -0.025265 -0.006960 -0.034353
v -0.020035 0.001933 -0.044812
v -0.010623 -0.006960 -0.041674
v -0.025788 0.005592 -0.034353
v -0.017945 -0.006960 -0.034353
v -0.020035 -0.006437 -0.044289
v -0.015330 0.014479 -0.044812
v -0.017422 0.020229 -0.036447
v -0.024219 0.006116 -0.038014
v -0.010623 0.017094 -0.034353
v -0.014808 0.023368 -0.034353
v -0.016900 0.016050 -0.042197
v -0.021603 0.002453 -0.043243
v -0.010623 0.018658 -0.044812
v -0.023695 0.012387 -0.034876
v -0.023171 -0.006960 -0.039583
f 385 376 395 
f 375 374 379 
f 376 374 380 
f 379 376 381 
f 374 376 382 
f 379 374 382 
f 376 379 382 
f 372 380 383 
f 380 375 383 
f 380 374 384 
f 375 380 384 
f 381 376 385 
f 381 377 386 
f 379 381 386 
f 373 372 388 
f 372 383 388 
f 374 375 389 
f 384 374 389 
f 375 384 389 
f 375 371 390 
f 383 375 390 
f 378 383 390 
f 371 387 390 
f 387 378 390 
f 377 378 391 
f 371 386 391 
f 386 377 391 
f 387 371 391 
f 378 387 391 
f 377 381 392 
f 385 373 392 
f 381 385 392 
f 373 388 392 
f 388 377 392 
f 371 375 393 
f 375 379 393 
f 386 371 393 
f 379 386 393 
f 378 377 394 
f 383 378 394 
f 377 388 394 
f 388 383 394 
f 372 373 395 
f 380 372 395 
f 376 380 395 
f 373 385 395 
o convex_14
v -0.002780 0.027552 -0.037491
v -0.010623 -0.006960 -0.041151
v -0.010623 -0.006960 -0.035922
v 0.002974 -0.006960 -0.035922
v 0.002974 0.022844 -0.044812
v -0.010623 0.019707 -0.044289
v -0.010623 0.025984 -0.034353
v 0.002974 0.029124 -0.034353
v 0.002974 -0.006960 -0.041151
v -0.010623 0.015002 -0.044812
v -0.009577 0.017613 -0.034353
v -0.005914 0.023889 -0.042197
v 0.002974 0.019707 -0.044812
v 0.002974 0.022321 -0.034353
v 0.000882 0.025984 -0.041151
v -0.005393 0.021802 -0.044812
v -0.003825 0.028594 -0.034876
v -0.009054 0.025457 -0.037491
f 402 412 413 
f 398 397 399 
f 397 398 401 
f 401 398 402 
f 399 400 403 
f 399 397 404 
f 400 399 404 
f 397 401 405 
f 404 397 405 
f 398 399 406 
f 402 398 406 
f 403 402 406 
f 400 404 408 
f 405 400 408 
f 404 405 408 
f 399 403 409 
f 406 399 409 
f 403 406 409 
f 396 403 410 
f 403 400 410 
f 407 396 410 
f 407 410 411 
f 400 405 411 
f 405 401 411 
f 401 407 411 
f 410 400 411 
f 403 396 412 
f 402 403 412 
f 401 402 413 
f 396 407 413 
f 407 401 413 
f 412 396 413 
o convex_15
v 0.026506 0.020757 -0.031215
v 0.012387 0.018142 -0.045335
v 0.012387 0.019188 -0.045335
v 0.002974 0.030693 -0.030692
v 0.002974 0.017619 -0.035922
v 0.021275 0.017619 -0.030692
v 0.002974 0.024938 -0.042718
v 0.017090 0.028077 -0.031739
v 0.019184 0.017619 -0.043766
v 0.002974 0.017619 -0.042718
v 0.002974 0.025461 -0.030692
v 0.015525 0.022326 -0.042195
v 0.028076 0.017619 -0.030692
v 0.009249 0.027554 -0.037493
v 0.011866 0.030169 -0.030692
v 0.002974 0.022851 -0.044812
v 0.022321 0.019188 -0.039580
v 0.009775 0.022851 -0.044289
v 0.006112 0.031216 -0.031215
v 0.022321 0.024938 -0.031215
v 0.002974 0.019711 -0.044812
v 0.017090 0.018665 -0.044812
v 0.018137 0.022326 -0.040105
v 0.025459 0.018142 -0.036447
f 422 430 437 
f 418 417 420 
f 419 418 422 
f 418 420 423 
f 415 422 423 
f 422 418 423 
f 417 418 424 
f 419 417 424 
f 418 419 424 
f 417 419 426 
f 419 422 426 
f 421 425 427 
f 417 426 428 
f 421 427 428 
f 416 415 429 
f 423 420 429 
f 420 427 431 
f 427 425 431 
f 416 429 431 
f 429 420 431 
f 420 417 432 
f 427 420 432 
f 417 428 432 
f 428 427 432 
f 426 414 433 
f 421 428 433 
f 428 426 433 
f 414 430 433 
f 415 423 434 
f 429 415 434 
f 423 429 434 
f 415 416 435 
f 422 415 435 
f 430 422 435 
f 416 431 435 
f 431 425 435 
f 425 421 436 
f 421 433 436 
f 433 430 436 
f 435 425 436 
f 430 435 436 
f 414 426 437 
f 426 422 437 
f 430 414 437 
o convex_16
v -0.013236 -0.017943 -0.032784
v -0.005395 -0.034154 -0.018141
v -0.010100 -0.033107 -0.018141
v -0.005395 -0.029448 -0.032784
v -0.004872 -0.029970 -0.016050
v -0.014283 -0.026307 -0.015526
v -0.014283 -0.025266 -0.032784
v -0.004872 -0.023173 -0.032784
v -0.014283 -0.031014 -0.015526
v -0.004872 -0.034154 -0.015526
v -0.014283 -0.028400 -0.026507
v -0.014283 -0.017943 -0.032260
v -0.008532 -0.031014 -0.027029
v -0.013236 -0.026307 -0.015526
v -0.004872 -0.030492 -0.030691
v -0.013236 -0.017943 -0.032260
v -0.010623 -0.027878 -0.032260
f 450 448 454 
f 438 441 444 
f 441 438 445 
f 443 444 446 
f 440 439 447 
f 445 442 447 
f 446 440 447 
f 443 446 447 
f 440 446 448 
f 446 444 448 
f 438 444 449 
f 444 443 449 
f 439 440 450 
f 440 448 450 
f 447 442 451 
f 443 447 451 
f 449 443 451 
f 441 445 452 
f 447 439 452 
f 445 447 452 
f 439 450 452 
f 450 441 452 
f 445 438 453 
f 442 445 453 
f 438 449 453 
f 451 442 453 
f 449 451 453 
f 444 441 454 
f 448 444 454 
f 441 450 454 
o convex_17
v -0.004870 -0.023695 -0.031737
v 0.001927 -0.035200 -0.018665
v -0.003823 -0.034677 -0.018665
v 0.000358 -0.030493 -0.032784
v 0.004542 -0.031017 -0.016050
v 0.004542 -0.024743 -0.032784
v -0.004870 -0.030493 -0.015526
v -0.004870 -0.029448 -0.032784
v 0.004542 -0.030493 -0.032784
v 0.004542 -0.035200 -0.015526
v -0.004870 -0.034677 -0.015526
v -0.002255 -0.032585 -0.027029
v 0.004019 -0.033107 -0.026507
v 0.004542 -0.024743 -0.031737
v -0.004870 -0.023695 -0.032784
f 462 455 469 
f 459 455 461 
f 460 458 462 
f 461 455 462 
f 460 459 463 
f 458 460 463 
f 459 461 464 
f 463 459 464 
f 457 456 465 
f 462 457 465 
f 461 462 465 
f 456 464 465 
f 464 461 465 
f 456 457 466 
f 457 462 466 
f 462 458 466 
f 458 463 467 
f 464 456 467 
f 463 464 467 
f 456 466 467 
f 466 458 467 
f 455 459 468 
f 459 460 468 
f 460 455 468 
f 455 460 469 
f 460 462 469 
o convex_18
v -0.016899 -0.024741 -0.015526
v -0.007486 -0.036246 -0.005068
v -0.006962 -0.036246 -0.005068
v -0.016374 -0.027356 -0.000361
v -0.016899 -0.031538 -0.009250
v -0.006962 -0.029972 -0.015526
v -0.006962 -0.032061 -0.000361
v -0.007486 -0.034153 -0.015526
v -0.015851 -0.033108 -0.000361
v -0.016899 -0.029449 -0.015526
v -0.006962 -0.036246 -0.000361
v -0.015851 -0.024741 -0.015002
v -0.013759 -0.032584 -0.013433
v -0.014282 -0.034153 -0.003499
v -0.016899 -0.032061 -0.000361
v -0.006962 -0.029972 -0.012911
f 481 476 485 
f 472 475 476 
f 472 471 477 
f 475 472 477 
f 470 475 477 
f 476 473 478 
f 474 470 479 
f 470 477 479 
f 471 472 480 
f 472 476 480 
f 476 478 480 
f 470 473 481 
f 475 470 481 
f 473 476 481 
f 477 471 482 
f 474 479 482 
f 479 477 482 
f 478 474 483 
f 471 480 483 
f 480 478 483 
f 482 471 483 
f 474 482 483 
f 473 470 484 
f 470 474 484 
f 478 473 484 
f 474 478 484 
f 476 475 485 
f 475 481 485 
o convex_19
v -0.016899 -0.028402 0.044084
v -0.007486 -0.037292 0.005398
v -0.006962 -0.037292 0.005398
v -0.016899 -0.027357 -0.000361
v -0.006962 -0.031541 0.037284
v -0.016374 -0.033631 0.043564
v -0.006962 -0.036768 0.046176
v -0.016899 -0.032584 -0.000361
v -0.006962 -0.032061 -0.000361
v -0.016374 -0.026310 0.033106
v -0.012191 -0.036245 0.020040
v -0.015851 -0.034677 0.015852
v -0.010624 -0.035722 -0.000361
v -0.006962 -0.033631 0.045651
v -0.016899 -0.032061 0.046706
v -0.007486 -0.037292 0.041997
v -0.007486 -0.031018 0.026305
v -0.016374 -0.026310 0.026831
v -0.011670 -0.035722 0.045651
v -0.006962 -0.036245 -0.000361
v -0.011670 -0.035722 0.001215
v -0.009055 -0.037292 0.014811
v -0.016899 -0.033631 0.029964
v -0.016374 -0.027357 -0.000361
v -0.016374 -0.027357 0.039901
v -0.016899 -0.026310 0.033106
v -0.015851 -0.031018 0.046706
f 486 500 512 
f 488 490 492 
f 486 489 493 
f 490 488 494 
f 493 489 494 
f 496 491 497 
f 493 494 498 
f 492 490 499 
f 486 493 500 
f 487 488 501 
f 488 492 501 
f 490 494 502 
f 495 490 502 
f 495 502 503 
f 502 494 503 
f 491 496 504 
f 492 500 504 
f 500 491 504 
f 501 492 504 
f 496 501 504 
f 488 487 505 
f 494 488 505 
f 487 498 505 
f 498 494 505 
f 497 493 506 
f 498 487 506 
f 493 498 506 
f 496 497 507 
f 487 501 507 
f 501 496 507 
f 506 487 507 
f 497 506 507 
f 493 497 508 
f 497 491 508 
f 491 500 508 
f 500 493 508 
f 494 489 509 
f 489 503 509 
f 503 494 509 
f 490 495 510 
f 486 499 510 
f 499 490 510 
f 489 486 511 
f 495 503 511 
f 503 489 511 
f 486 510 511 
f 510 495 511 
f 499 486 512 
f 492 499 512 
f 500 492 512 
o convex_20
v -0.006439 -0.034677 -0.015002
v 0.004543 -0.033632 -0.000361
v -0.006439 -0.032064 -0.000361
v -0.005916 -0.029971 -0.015526
v 0.004543 -0.035199 -0.015526
v 0.001404 -0.037815 -0.000361
v 0.004543 -0.031540 -0.015526
v -0.006439 -0.036769 -0.000361
v 0.003496 -0.037291 -0.008726
v 0.004543 -0.037815 -0.000361
v -0.006962 -0.029971 -0.013957
v -0.000166 -0.036246 -0.013957
v -0.006962 -0.036246 -0.005068
v -0.001731 -0.037291 -0.005068
v -0.006962 -0.034154 -0.015526
v 0.004543 -0.031540 -0.013957
v -0.006962 -0.032064 -0.000361
f 523 525 529 
f 514 515 518 
f 517 516 519 
f 514 517 519 
f 518 515 520 
f 517 514 522 
f 514 518 522 
f 518 521 522 
f 521 517 522 
f 517 521 524 
f 513 524 525 
f 518 520 526 
f 521 518 526 
f 524 521 526 
f 525 524 526 
f 520 525 526 
f 516 517 527 
f 523 516 527 
f 524 513 527 
f 517 524 527 
f 525 523 527 
f 513 525 527 
f 515 514 528 
f 514 519 528 
f 519 516 528 
f 523 515 528 
f 516 523 528 
f 520 515 529 
f 515 523 529 
f 525 520 529 
o convex_21
v -0.006962 -0.032063 0.001736
v 0.004543 -0.036245 0.046706
v -0.005916 -0.034155 0.046176
v -0.004346 -0.037815 0.001215
v 0.004543 -0.033632 -0.000361
v 0.004543 -0.032586 0.032055
v -0.006962 -0.037292 0.045130
v 0.004543 -0.038861 0.025264
v -0.006962 -0.031540 0.036243
v 0.004019 -0.038338 0.000690
v -0.006962 -0.036245 -0.000361
v -0.001731 -0.038338 0.044084
v -0.002254 -0.038861 0.024734
v 0.004543 -0.034155 0.043043
v 0.004543 -0.038338 0.045651
v -0.006439 -0.037815 0.018994
v 0.001928 -0.038861 0.010102
v 0.004543 -0.037815 -0.000361
v -0.005916 -0.031540 0.024734
v -0.006962 -0.036245 0.046706
v -0.006962 -0.032586 -0.000361
v -0.006962 -0.033109 0.044084
v -0.006962 -0.037292 0.004873
v -0.005916 -0.032063 0.003302
f 548 535 553 
f 531 534 535 
f 534 531 537 
f 530 536 538 
f 536 530 540 
f 541 536 542 
f 532 531 543 
f 531 535 543 
f 535 538 543 
f 537 531 544 
f 536 541 544 
f 542 537 544 
f 541 542 544 
f 533 542 545 
f 542 536 545 
f 533 539 546 
f 539 537 546 
f 537 542 546 
f 542 533 546 
f 534 537 547 
f 539 533 547 
f 537 539 547 
f 540 534 547 
f 533 540 547 
f 530 538 548 
f 538 535 548 
f 531 532 549 
f 538 536 549 
f 544 531 549 
f 536 544 549 
f 530 534 550 
f 540 530 550 
f 534 540 550 
f 532 543 551 
f 543 538 551 
f 549 532 551 
f 538 549 551 
f 536 540 552 
f 540 533 552 
f 545 536 552 
f 533 545 552 
f 534 530 553 
f 535 534 553 
f 530 548 553 
o convex_22
v 0.004543 -0.031539 -0.030169
v 0.018663 -0.026312 -0.019710
v 0.017616 -0.026312 -0.019710
v 0.018663 -0.020034 -0.034353
v 0.004543 -0.023173 -0.033830
v 0.017091 -0.026835 -0.033830
v 0.004543 -0.034154 -0.019710
v 0.018663 -0.031016 -0.020756
v 0.005067 -0.029969 -0.019710
v 0.004543 -0.029447 -0.034353
v 0.010298 -0.032062 -0.027552
v 0.018137 -0.020034 -0.031736
v 0.009252 -0.034154 -0.019710
v 0.018663 -0.025266 -0.034353
v 0.018663 -0.030493 -0.023894
v 0.012907 -0.029969 -0.031213
v 0.007158 -0.034154 -0.022851
v 0.007682 -0.029447 -0.034353
v 0.014479 -0.020034 -0.034353
v 0.013433 -0.032583 -0.023371
v 0.016570 -0.032062 -0.019710
f 573 568 574 
f 555 556 560 
f 558 554 560 
f 557 555 561 
f 560 556 562 
f 558 560 562 
f 554 558 563 
f 556 555 565 
f 555 557 565 
f 562 556 565 
f 558 562 565 
f 555 560 566 
f 557 561 567 
f 563 557 567 
f 567 561 568 
f 559 567 568 
f 559 568 569 
f 560 554 570 
f 554 564 570 
f 566 560 570 
f 554 563 571 
f 564 554 571 
f 567 559 571 
f 563 567 571 
f 559 569 571 
f 569 564 571 
f 563 558 572 
f 557 563 572 
f 565 557 572 
f 558 565 572 
f 564 569 573 
f 569 568 573 
f 570 564 573 
f 566 570 573 
f 561 555 574 
f 555 566 574 
f 568 561 574 
f 566 573 574 
o convex_23
v 0.019187 -0.027879 -0.029121
v 0.031214 -0.020034 -0.019710
v 0.025982 -0.020034 -0.019710
v 0.018663 -0.020034 -0.034353
v 0.018663 -0.030494 -0.019710
v 0.025460 -0.020558 -0.033830
v 0.023894 -0.027879 -0.022327
v 0.018663 -0.025786 -0.019710
v 0.018663 -0.025264 -0.034353
v 0.028598 -0.023697 -0.022327
v 0.018663 -0.020034 -0.031213
v 0.022325 -0.025264 -0.031213
v 0.024938 -0.027356 -0.019710
v 0.029120 -0.020034 -0.027552
v 0.019187 -0.030494 -0.022851
f 581 587 589 
f 577 576 578 
f 576 577 579 
f 578 579 582 
f 579 577 582 
f 579 578 583 
f 578 580 583 
f 577 578 585 
f 582 577 585 
f 578 582 585 
f 575 583 586 
f 583 580 586 
f 580 584 586 
f 584 581 586 
f 576 579 587 
f 584 576 587 
f 581 584 587 
f 578 576 588 
f 580 578 588 
f 576 584 588 
f 584 580 588 
f 583 575 589 
f 579 583 589 
f 575 586 589 
f 586 581 589 
f 587 579 589 
o convex_24
v 0.035919 -0.012192 -0.019711
v 0.015527 -0.020033 -0.034353
v 0.015527 -0.020033 -0.033828
v 0.024937 -0.006963 -0.034353
v 0.025984 -0.019509 -0.034353
v 0.026509 -0.020033 -0.019711
v 0.032257 -0.007486 -0.019711
v 0.032257 -0.006963 -0.033828
v 0.031734 -0.019509 -0.022850
v 0.036966 -0.006963 -0.019711
v 0.032257 -0.012192 -0.031737
v 0.031734 -0.020033 -0.019711
v 0.034872 -0.010100 -0.027031
v 0.015527 -0.019509 -0.033828
v 0.029644 -0.020033 -0.027552
v 0.034872 -0.013758 -0.023372
v 0.030687 -0.011669 -0.034353
v 0.025986 -0.019509 -0.020236
v 0.036442 -0.007486 -0.023895
v 0.032257 -0.006963 -0.020236
v 0.024937 -0.006963 -0.033828
f 609 593 610 
f 591 593 594 
f 592 591 595 
f 595 590 596 
f 596 590 599 
f 597 593 599 
f 595 591 601 
f 590 595 601 
f 600 597 602 
f 591 592 603 
f 593 591 603 
f 591 594 604 
f 594 600 604 
f 601 591 604 
f 598 601 604 
f 590 601 605 
f 601 598 605 
f 600 602 605 
f 604 600 605 
f 598 604 605 
f 594 593 606 
f 593 597 606 
f 597 600 606 
f 600 594 606 
f 592 595 607 
f 595 596 607 
f 603 592 607 
f 596 603 607 
f 599 590 608 
f 597 599 608 
f 602 597 608 
f 590 605 608 
f 605 602 608 
f 596 599 609 
f 599 593 609 
f 603 596 609 
f 603 609 610 
f 593 603 610 
o convex_25
v -0.031017 0.001928 -0.021280
v -0.026311 -0.004867 -0.034352
v -0.026311 0.004020 -0.034352
v -0.035725 -0.000684 -0.031215
v -0.025792 -0.006959 -0.021280
v -0.018990 0.006112 -0.033830
v -0.018990 -0.006959 -0.034352
v -0.035725 -0.006959 -0.027031
v -0.035725 0.006112 -0.026509
v -0.025792 0.006112 -0.021280
v -0.035725 -0.003299 -0.023895
v -0.030493 -0.006959 -0.021280
v -0.025790 0.006112 -0.034352
v -0.025790 -0.006959 -0.034352
v -0.035725 0.005066 -0.029645
v -0.030493 0.006112 -0.021280
v -0.035725 -0.005391 -0.030168
v -0.035725 0.002975 -0.023895
v -0.018990 -0.006959 -0.033830
v -0.018990 0.006112 -0.034352
f 623 616 630 
f 613 612 614 
f 612 613 617 
f 617 615 618 
f 614 618 619 
f 616 619 620 
f 611 615 620 
f 615 616 620 
f 619 618 621 
f 615 611 622 
f 618 615 622 
f 611 621 622 
f 621 618 622 
f 613 614 623 
f 617 613 623 
f 619 616 623 
f 614 612 624 
f 612 617 624 
f 617 618 624 
f 614 619 625 
f 623 614 625 
f 619 623 625 
f 620 619 626 
f 611 620 626 
f 618 614 627 
f 614 624 627 
f 624 618 627 
f 621 611 628 
f 619 621 628 
f 626 619 628 
f 611 626 628 
f 616 615 629 
f 617 616 629 
f 615 617 629 
f 616 617 630 
f 617 623 630 
o convex_26
v 0.033830 -0.017420 -0.019710
v 0.040627 -0.006960 -0.002453
v 0.040103 -0.006960 -0.001929
v 0.032783 -0.006960 -0.019710
v 0.032261 -0.017420 -0.001929
v 0.028599 -0.017420 -0.019710
v 0.036965 -0.017420 -0.001929
v 0.035919 -0.006960 -0.001929
v 0.037488 -0.010098 -0.018138
v 0.036965 -0.006960 -0.019710
v 0.038534 -0.014805 -0.004545
v 0.028599 -0.016373 -0.019186
v 0.039056 -0.008007 -0.013432
v 0.036965 -0.016897 -0.008729
v 0.032261 -0.016373 -0.001929
v 0.039056 -0.011668 -0.008729
v 0.032783 -0.006960 -0.018138
f 642 638 647 
f 633 632 634 
f 634 631 636 
f 631 635 636 
f 632 633 637 
f 635 631 637 
f 633 635 637 
f 633 634 638 
f 635 633 638 
f 634 632 640 
f 631 634 640 
f 639 631 640 
f 632 637 641 
f 634 636 642 
f 636 635 642 
f 640 632 643 
f 639 640 643 
f 637 631 644 
f 631 639 644 
f 641 637 644 
f 635 638 645 
f 642 635 645 
f 638 642 645 
f 632 641 646 
f 643 632 646 
f 639 643 646 
f 644 639 646 
f 641 644 646 
f 638 634 647 
f 634 642 647 
o convex_27
v 0.034352 -0.016897 0.046706
v 0.032261 -0.017420 -0.001929
v 0.032261 -0.016897 -0.001929
v 0.041150 -0.006960 0.005916
v 0.034875 -0.006960 0.032581
v 0.038011 -0.017420 0.044611
v 0.041150 -0.006960 0.045658
v 0.037489 -0.017420 -0.000358
v 0.035922 -0.006960 -0.001929
v 0.031214 -0.017420 0.036242
v 0.040626 -0.011668 0.019513
v 0.036965 -0.006960 0.044611
v 0.040102 -0.009053 -0.001929
v 0.031214 -0.016373 0.026301
v 0.039057 -0.015327 0.005397
v 0.040626 -0.010622 0.044087
v 0.035399 -0.007484 0.002255
v 0.041150 -0.009575 0.014814
v 0.040102 -0.011668 0.000689
v 0.039057 -0.015850 0.027349
v 0.040626 -0.007484 0.046706
v 0.032261 -0.016897 0.041474
v 0.036965 -0.017420 0.046706
v 0.037489 -0.016897 -0.001929
v 0.040102 -0.006960 -0.001929
v 0.038011 -0.006960 0.046706
v 0.038534 -0.016897 0.014285
v 0.035922 -0.006960 0.040426
v 0.031214 -0.016897 0.036242
f 675 652 676 
f 651 652 654 
f 653 649 655 
f 649 650 656 
f 652 651 656 
f 649 653 657 
f 654 652 659 
f 649 656 660 
f 650 649 661 
f 649 657 661 
f 656 650 664 
f 652 656 664 
f 650 661 664 
f 661 652 664 
f 651 654 665 
f 654 663 665 
f 663 658 665 
f 660 651 666 
f 662 655 666 
f 658 662 666 
f 651 665 666 
f 665 658 666 
f 663 653 667 
f 658 663 667 
f 653 663 668 
f 663 654 668 
f 657 648 669 
f 648 659 669 
f 648 657 670 
f 657 653 670 
f 668 648 670 
f 653 668 670 
f 655 649 671 
f 649 660 671 
f 666 655 671 
f 660 666 671 
f 656 651 672 
f 660 656 672 
f 651 660 672 
f 659 648 673 
f 654 659 673 
f 648 668 673 
f 668 654 673 
f 653 655 674 
f 655 662 674 
f 662 658 674 
f 667 653 674 
f 658 667 674 
f 659 652 675 
f 669 659 675 
f 669 675 676 
f 652 661 676 
f 661 657 676 
f 657 669 676 
o convex_28
v -0.028403 0.013435 -0.021280
v -0.025787 0.006114 -0.034350
v -0.026312 0.006114 -0.033305
v -0.018993 0.006114 -0.033828
v -0.015853 0.013435 -0.034350
v -0.025787 0.006114 -0.021280
v -0.023694 0.013435 -0.033828
v -0.023174 0.013435 -0.021280
v -0.030496 0.006114 -0.022327
v -0.015853 0.012389 -0.033828
v -0.028403 0.009253 -0.027033
f 679 685 687 
f 679 678 680 
f 680 678 681 
f 679 680 682 
f 678 679 683 
f 677 681 683 
f 681 678 683 
f 681 677 684 
f 677 682 684 
f 682 677 685 
f 679 682 685 
f 680 681 686 
f 682 680 686 
f 681 684 686 
f 684 682 686 
f 677 683 687 
f 683 679 687 
f 685 677 687 
o convex_29
v -0.024218 0.014483 -0.031736
v -0.009579 0.031216 -0.021280
v -0.009579 0.031216 -0.021804
v -0.009579 0.018667 -0.033828
v -0.022650 0.013435 -0.021280
v -0.010102 0.026508 -0.034350
v -0.023173 0.021803 -0.021804
v -0.015331 0.013435 -0.034350
v -0.009579 0.025984 -0.021804
v -0.027879 0.013435 -0.021280
v -0.015854 0.024938 -0.031214
v -0.020035 0.018667 -0.034350
v -0.012194 0.030692 -0.022327
v -0.022650 0.013435 -0.034350
v -0.017946 0.027030 -0.021280
v -0.026310 0.017099 -0.022849
v -0.020558 0.020235 -0.031736
v -0.017946 0.027030 -0.022327
v -0.011671 0.027552 -0.031736
v -0.009579 0.026508 -0.034350
f 693 706 707 
f 690 689 691 
f 691 692 695 
f 691 689 696 
f 692 691 696 
f 689 692 696 
f 692 689 697 
f 695 692 697 
f 693 695 699 
f 698 693 699 
f 689 690 700 
f 697 688 701 
f 695 697 701 
f 688 699 701 
f 699 695 701 
f 697 689 702 
f 694 697 702 
f 689 700 702 
f 697 694 703 
f 688 697 703 
f 698 699 704 
f 699 688 704 
f 703 694 704 
f 688 703 704 
f 694 702 705 
f 702 700 705 
f 698 704 705 
f 704 694 705 
f 693 698 706 
f 700 690 706 
f 698 705 706 
f 705 700 706 
f 690 691 707 
f 691 695 707 
f 695 693 707 
f 706 690 707 
o convex_30
v -0.009053 0.027029 -0.034350
v 0.001927 0.033830 -0.021280
v -0.000687 0.033830 -0.021280
v -0.008530 0.019188 -0.033828
v 0.002974 0.029122 -0.034350
v -0.009577 0.026509 -0.021280
v 0.002974 0.029122 -0.021280
v 0.002974 0.022848 -0.034350
v -0.009053 0.031736 -0.021280
v -0.005916 0.030170 -0.030691
v -0.009577 0.019188 -0.034350
v 0.002974 0.032784 -0.026510
v -0.009577 0.030170 -0.027033
v -0.005916 0.032784 -0.022849
v -0.000687 0.030690 -0.031736
f 717 721 722 
f 709 710 713 
f 713 711 714 
f 709 713 714 
f 708 712 715 
f 714 711 715 
f 712 714 715 
f 713 710 716 
f 711 713 718 
f 708 715 718 
f 715 711 718 
f 710 709 719 
f 714 712 719 
f 709 714 719 
f 713 716 720 
f 717 708 720 
f 708 718 720 
f 718 713 720 
f 716 710 721 
f 710 719 721 
f 720 716 721 
f 717 720 721 
f 712 708 722 
f 708 717 722 
f 719 712 722 
f 721 719 722 
o convex_31
v -0.034679 0.005068 0.000685
v -0.030496 -0.006960 -0.021279
v -0.026312 -0.006960 -0.021279
v -0.026312 0.005068 -0.021279
v -0.029974 -0.006960 0.000685
v -0.029974 0.005068 0.000161
v -0.031017 0.005068 -0.020232
v -0.034156 -0.006960 -0.004546
v -0.033110 0.001406 -0.013956
v -0.034156 -0.006960 0.000685
v -0.032064 -0.003822 -0.018660
v -0.034679 -0.000685 -0.004546
v -0.026312 -0.006437 -0.019709
v -0.033633 0.005068 -0.009252
v -0.031017 0.002453 -0.021279
v -0.033110 -0.006437 -0.012387
v -0.026312 0.005068 -0.020232
f 728 735 739 
f 725 724 726 
f 724 725 727 
f 726 723 728 
f 723 727 728 
f 723 726 729 
f 724 727 730 
f 727 723 732 
f 730 727 732 
f 732 723 734 
f 730 732 734 
f 725 726 735 
f 727 725 735 
f 728 727 735 
f 723 729 736 
f 729 731 736 
f 731 734 736 
f 734 723 736 
f 726 724 737 
f 729 726 737 
f 731 729 737 
f 724 733 737 
f 733 731 737 
f 724 730 738 
f 733 724 738 
f 731 733 738 
f 734 731 738 
f 730 734 738 
f 726 728 739 
f 735 726 739 
o convex_32
v -0.032587 0.005068 0.046706
v -0.034156 -0.006960 0.000685
v -0.029974 -0.006960 0.000685
v -0.034156 -0.006960 0.046706
v -0.034679 0.005068 0.000685
v -0.029450 0.005068 0.035723
v -0.029450 -0.006960 0.036768
v -0.035725 0.000883 0.041998
v -0.030496 0.005068 0.000685
v -0.035725 -0.006960 0.022132
v -0.035725 0.005068 0.030493
v -0.035725 -0.003299 0.010100
v -0.031542 -0.006960 0.045656
v -0.035202 0.005068 0.045656
v -0.029450 0.005068 0.021605
v -0.035202 -0.005914 0.045134
v -0.035725 0.004544 0.010623
v -0.035202 -0.003299 0.001212
v -0.031019 0.005068 0.043562
v -0.029450 -0.006960 0.021083
v -0.035202 -0.006960 0.006438
v -0.029974 0.005068 0.006438
v -0.035202 0.001929 0.046706
f 747 755 762 
f 741 742 743 
f 742 741 744 
f 744 740 745 
f 743 742 746 
f 742 744 748 
f 744 745 748 
f 741 743 749 
f 749 747 750 
f 740 744 750 
f 749 750 751 
f 740 743 752 
f 743 746 752 
f 750 747 753 
f 740 750 753 
f 745 746 754 
f 748 745 754 
f 749 743 755 
f 747 749 755 
f 750 744 756 
f 751 750 756 
f 751 756 757 
f 744 741 757 
f 756 744 757 
f 745 740 758 
f 746 745 758 
f 740 752 758 
f 752 746 758 
f 746 742 759 
f 742 754 759 
f 754 746 759 
f 741 749 760 
f 749 751 760 
f 751 757 760 
f 757 741 760 
f 742 748 761 
f 754 742 761 
f 748 754 761 
f 743 740 762 
f 740 753 762 
f 753 747 762 
f 755 743 762 
o convex_33
v -0.033632 0.005070 -0.008205
v -0.020559 0.018140 -0.019708
v -0.020559 0.017617 -0.019708
v -0.025267 0.017617 0.003300
v -0.028402 0.018140 -0.012387
v -0.026313 0.005070 -0.021279
v -0.030494 0.005070 0.003300
v -0.031018 0.017617 0.003300
v -0.028925 0.012388 -0.021279
v -0.034679 0.005070 0.003300
v -0.030494 0.005070 -0.021279
v -0.032587 0.010822 -0.007685
v -0.025791 0.018140 -0.021279
v -0.033632 0.011344 0.001207
v -0.025267 0.018140 0.003300
v -0.020559 0.017094 -0.021279
v -0.032587 0.007161 -0.013431
v -0.029972 0.017094 -0.008205
v -0.026313 0.005070 -0.019708
v -0.029972 0.005070 0.001207
v -0.028402 0.016048 -0.018137
v -0.034155 0.007161 -0.003499
v -0.030494 0.018140 0.000682
f 780 776 785 
f 765 764 766 
f 763 768 769 
f 769 766 770 
f 763 769 772 
f 769 770 772 
f 768 763 773 
f 771 768 773 
f 767 764 775 
f 768 771 775 
f 772 770 776 
f 766 764 777 
f 764 767 777 
f 770 766 777 
f 764 765 778 
f 775 764 778 
f 768 775 778 
f 773 763 779 
f 771 773 779 
f 774 776 780 
f 769 768 781 
f 778 765 781 
f 768 778 781 
f 765 766 782 
f 766 769 782 
f 769 781 782 
f 781 765 782 
f 767 775 783 
f 775 771 783 
f 771 779 783 
f 779 774 783 
f 780 767 783 
f 774 780 783 
f 763 772 784 
f 772 776 784 
f 776 774 784 
f 779 763 784 
f 774 779 784 
f 776 770 785 
f 777 767 785 
f 770 777 785 
f 767 780 785 
o convex_34
v -0.030494 0.018140 0.046706
v -0.034678 0.005070 0.003300
v -0.030494 0.005070 0.003300
v -0.030494 0.018140 0.003300
v -0.024220 0.018140 0.022653
v -0.031540 0.005070 0.045656
v -0.035725 0.008206 0.027353
v -0.024220 0.017617 0.036245
v -0.035202 0.005070 0.045134
v -0.025267 0.017617 0.003300
v -0.028928 0.005592 0.026826
v -0.033110 0.015003 0.014806
v -0.026835 0.018140 0.045656
v -0.033110 0.013434 0.045656
v -0.029451 0.005070 0.036768
v -0.031540 0.018140 0.032056
v -0.034678 0.008730 0.006440
v -0.029973 0.005070 0.005917
v -0.024220 0.017617 0.022653
v -0.035725 0.005070 0.021081
v -0.032587 0.005070 0.046706
v -0.034154 0.012388 0.031538
v -0.034154 0.009253 0.046706
v -0.032587 0.015003 0.005395
v -0.025791 0.017617 0.043043
v -0.025267 0.018140 0.003300
v -0.031540 0.017617 0.010102
v -0.024220 0.017094 0.033101
v -0.034154 0.011866 0.011148
f 809 802 814 
f 788 787 789 
f 789 786 790 
f 787 788 791 
f 787 791 794 
f 788 789 795 
f 790 786 798 
f 793 790 798 
f 791 788 800 
f 786 789 801 
f 799 786 801 
f 788 795 803 
f 800 788 803 
f 796 800 803 
f 790 793 804 
f 795 790 804 
f 803 795 804 
f 796 803 804 
f 787 794 805 
f 794 792 805 
f 802 787 805 
f 792 802 805 
f 794 791 806 
f 798 786 806 
f 791 798 806 
f 797 792 807 
f 792 799 807 
f 801 797 807 
f 799 801 807 
f 792 794 808 
f 786 799 808 
f 799 792 808 
f 794 806 808 
f 806 786 808 
f 789 787 809 
f 787 802 809 
f 798 791 810 
f 793 798 810 
f 791 800 810 
f 800 793 810 
f 789 790 811 
f 795 789 811 
f 790 795 811 
f 801 789 812 
f 797 801 812 
f 789 809 812 
f 809 797 812 
f 793 800 813 
f 800 796 813 
f 804 793 813 
f 796 804 813 
f 792 797 814 
f 802 792 814 
f 797 809 814 
o convex_35
v -0.025787 0.018665 -0.020231
v -0.012192 0.034353 0.002254
v -0.012716 0.034353 0.002254
v -0.024741 0.018142 0.002254
v -0.012192 0.024943 -0.021279
v -0.027881 0.022848 0.002254
v -0.015330 0.030169 -0.018137
v -0.012192 0.029123 0.001206
v -0.020038 0.018142 -0.021279
v -0.021604 0.027552 -0.009252
v -0.012192 0.030169 -0.021279
v -0.029973 0.018142 0.002254
v -0.016900 0.032782 0.000681
v -0.025265 0.021282 -0.017616
v -0.017946 0.027030 -0.021279
v -0.027881 0.018142 -0.013954
v -0.013240 0.033830 -0.005071
v -0.026833 0.022326 -0.008209
v -0.021082 0.025989 -0.017616
v -0.022127 0.028599 0.002254
v -0.016378 0.031738 -0.008731
v -0.028925 0.020236 -0.004023
v -0.025265 0.018142 -0.021279
v -0.012192 0.029647 0.002254
v -0.024741 0.025465 -0.004546
v -0.012716 0.032259 -0.014479
v -0.012192 0.024943 -0.020751
f 823 819 841 
f 816 817 818 
f 818 817 820 
f 819 816 822 
f 816 819 825 
f 819 823 825 
f 818 820 826 
f 823 818 826 
f 821 825 829 
f 825 823 829 
f 815 828 829 
f 823 826 830 
f 828 815 830 
f 817 816 831 
f 827 817 831 
f 828 830 832 
f 821 829 833 
f 829 828 833 
f 828 832 833 
f 820 817 834 
f 817 827 834 
f 827 824 834 
f 824 827 835 
f 827 831 835 
f 821 833 835 
f 833 824 835 
f 826 820 836 
f 830 826 836 
f 820 832 836 
f 832 830 836 
f 815 829 837 
f 829 823 837 
f 830 815 837 
f 823 830 837 
f 816 818 838 
f 822 816 838 
f 818 822 838 
f 832 820 839 
f 824 833 839 
f 833 832 839 
f 820 834 839 
f 834 824 839 
f 816 825 840 
f 825 821 840 
f 831 816 840 
f 821 835 840 
f 835 831 840 
f 822 818 841 
f 819 822 841 
f 818 823 841 
o convex_36
v -0.029971 0.019189 0.003829
v -0.012192 0.034876 0.046701
v -0.012717 0.034876 0.046701
v -0.027878 0.018142 0.046701
v -0.012192 0.029646 0.002259
v -0.020562 0.031215 0.014809
v -0.023696 0.018142 0.034673
v -0.026310 0.024941 0.045653
v -0.012192 0.029124 0.038331
v -0.012717 0.034352 0.002259
v -0.024742 0.018142 0.002259
v -0.031542 0.018667 0.031014
v -0.025265 0.026509 0.005922
v -0.016899 0.033828 0.031014
v -0.027358 0.024941 0.030492
v -0.012192 0.028602 0.023697
v -0.027878 0.022850 0.002259
v -0.012192 0.030691 0.044609
v -0.021605 0.029646 0.045131
v -0.030494 0.018142 0.046175
v -0.013239 0.035399 0.014809
v -0.029971 0.018142 0.002259
v -0.017421 0.032261 0.002259
v -0.025265 0.018142 0.042516
v -0.022651 0.029646 0.031014
v -0.029449 0.021804 0.014809
v -0.012192 0.034876 0.004351
v -0.023696 0.018142 0.024741
v -0.018994 0.031215 0.046701
v -0.012192 0.032261 0.046701
v -0.025787 0.026509 0.015331
v -0.029449 0.020757 0.045131
v -0.031542 0.018142 0.020560
v -0.012192 0.028602 0.035195
v -0.012717 0.035399 0.040424
v -0.016376 0.033306 0.045653
v -0.026833 0.018142 0.046175
v -0.016899 0.033306 0.010102
f 868 864 879 
f 843 844 845 
f 846 843 850 
f 848 845 852 
f 851 846 852 
f 846 850 857 
f 852 846 857 
f 851 852 858 
f 850 843 859 
f 852 845 861 
f 842 858 863 
f 858 852 863 
f 852 861 863 
f 854 847 864 
f 851 858 864 
f 858 854 864 
f 845 848 865 
f 848 850 865 
f 850 859 865 
f 855 847 866 
f 856 849 866 
f 849 860 866 
f 860 855 866 
f 853 856 867 
f 858 842 867 
f 854 858 867 
f 843 846 868 
f 846 851 868 
f 851 864 868 
f 848 852 869 
f 857 848 869 
f 852 857 869 
f 845 844 870 
f 860 849 870 
f 861 845 870 
f 849 861 870 
f 843 845 871 
f 859 843 871 
f 847 854 872 
f 866 847 872 
f 856 866 872 
f 867 856 872 
f 854 867 872 
f 849 856 873 
f 856 853 873 
f 861 849 873 
f 853 861 873 
f 861 853 874 
f 842 863 874 
f 863 861 874 
f 867 842 874 
f 853 867 874 
f 850 848 875 
f 857 850 875 
f 848 857 875 
f 844 843 876 
f 862 855 876 
f 843 868 876 
f 868 862 876 
f 855 860 877 
f 870 844 877 
f 860 870 877 
f 844 876 877 
f 876 855 877 
f 845 865 878 
f 865 859 878 
f 871 845 878 
f 859 871 878 
f 847 855 879 
f 855 862 879 
f 864 847 879 
f 862 868 879 
o convex_37
v -0.008007 0.032260 -0.021277
v 0.002974 0.036967 -0.002456
v 0.001927 0.037491 -0.002456
v -0.012192 0.029647 -0.002456
v 0.002974 0.029647 -0.021277
v -0.012192 0.025463 -0.021277
v -0.012192 0.034352 -0.004024
v 0.002974 0.032783 -0.004024
v 0.002974 0.033829 -0.021277
v -0.003825 0.036443 -0.008730
v -0.012192 0.030693 -0.021277
v -0.011145 0.025463 -0.020754
v -0.006962 0.036443 -0.002456
v -0.006962 0.034876 -0.013434
v 0.002450 0.034876 -0.018663
v -0.010623 0.029647 -0.002456
v 0.002974 0.033307 -0.002456
v -0.003825 0.034352 -0.018663
v 0.001927 0.029125 -0.020754
v 0.002974 0.036967 -0.008730
v -0.010099 0.034876 -0.008207
f 893 890 900 
f 881 882 883 
f 880 884 885 
f 885 883 886 
f 884 881 887 
f 884 880 888 
f 881 884 888 
f 880 885 890 
f 885 886 890 
f 883 885 891 
f 885 884 891 
f 883 882 892 
f 886 883 892 
f 882 889 892 
f 880 890 893 
f 881 883 895 
f 883 891 895 
f 891 887 895 
f 887 881 896 
f 881 895 896 
f 895 887 896 
f 888 880 897 
f 893 889 897 
f 880 893 897 
f 894 888 897 
f 889 894 897 
f 884 887 898 
f 891 884 898 
f 887 891 898 
f 882 881 899 
f 881 888 899 
f 889 882 899 
f 888 894 899 
f 894 889 899 
f 890 886 900 
f 886 892 900 
f 892 889 900 
f 889 893 900 
o convex_38
v -0.012192 0.029648 -0.002452
v 0.002974 0.038014 0.046706
v 0.002974 0.035922 0.046706
v 0.002974 0.033309 -0.002452
v -0.006962 0.036444 -0.002452
v -0.012192 0.035398 0.045652
v -0.011668 0.028601 0.032054
v 0.002974 0.038537 0.009577
v 0.002974 0.032786 0.036245
v -0.003303 0.038537 0.032054
v -0.012192 0.035398 0.011670
v -0.012192 0.031216 0.045652
v 0.001927 0.037490 -0.002452
v -0.012192 0.034352 -0.002452
v -0.010099 0.036967 0.029965
v -0.000164 0.038537 0.045132
v -0.003825 0.038013 0.010102
v -0.006438 0.037490 0.044613
v -0.010099 0.036444 0.010102
v -0.011145 0.029648 -0.002452
v 0.002974 0.033829 0.041995
v -0.012192 0.029125 0.036764
v -0.011668 0.035398 0.046706
v 0.002974 0.032786 0.021612
v -0.003303 0.038537 0.020038
v -0.003825 0.037490 0.000690
v 0.002974 0.038537 0.045652
v -0.011668 0.028601 0.029446
v 0.002974 0.038014 0.001209
v -0.012192 0.032262 0.046706
v -0.011668 0.030171 0.041995
v 0.002974 0.034876 0.045652
f 912 931 932 
f 902 903 904 
f 904 901 905 
f 902 904 908 
f 904 903 909 
f 901 906 911 
f 906 901 912 
f 904 905 913 
f 905 901 914 
f 901 911 914 
f 911 906 915 
f 908 910 916 
f 915 906 918 
f 910 915 918 
f 916 910 918 
f 905 914 919 
f 914 911 919 
f 911 915 919 
f 901 904 920 
f 909 903 921 
f 907 909 922 
f 912 901 922 
f 903 902 923 
f 902 916 923 
f 918 906 923 
f 916 918 923 
f 904 909 924 
f 909 907 924 
f 910 908 925 
f 915 910 925 
f 908 917 925 
f 919 915 925 
f 917 919 925 
f 913 905 926 
f 917 908 926 
f 905 919 926 
f 919 917 926 
f 902 908 927 
f 916 902 927 
f 908 916 927 
f 901 920 928 
f 920 904 928 
f 922 901 928 
f 907 922 928 
f 904 924 928 
f 924 907 928 
f 908 904 929 
f 904 913 929 
f 913 926 929 
f 926 908 929 
f 906 912 930 
f 912 903 930 
f 903 923 930 
f 923 906 930 
f 909 921 931 
f 912 922 931 
f 922 909 931 
f 903 912 932 
f 921 903 932 
f 931 921 932 
o convex_39
v 0.011864 0.017619 -0.044289
v 0.002974 -0.006960 -0.041151
v 0.002974 -0.006960 -0.035922
v 0.011864 -0.006960 -0.035922
v 0.002974 0.017619 -0.035922
v 0.011864 0.017619 -0.035922
v 0.002974 0.017619 -0.042197
v 0.011864 -0.006960 -0.041674
v 0.010818 0.017092 -0.044289
f 933 940 941 
f 935 934 936 
f 934 935 937 
f 935 936 937 
f 936 933 938 
f 933 937 938 
f 937 936 938 
f 937 933 939 
f 934 937 939 
f 936 934 940 
f 933 936 940 
f 934 939 941 
f 939 933 941 
f 940 934 941 
o convex_40
v 0.028075 0.010295 -0.039584
v 0.011864 -0.006960 -0.041674
v 0.012912 -0.006960 -0.042197
v 0.011864 0.017619 -0.044811
v 0.012387 0.017619 -0.035400
v 0.031735 -0.006960 -0.034353
v 0.024937 -0.005914 -0.045335
v 0.011864 -0.006960 -0.035924
v 0.026504 0.017619 -0.034353
v 0.021281 0.013435 -0.045335
v 0.032260 0.002454 -0.035400
v 0.017097 0.017092 -0.034353
v 0.025981 0.004547 -0.044811
v 0.021804 -0.006960 -0.045335
v 0.017097 0.017619 -0.045335
v 0.024414 -0.006960 -0.034353
v 0.028598 -0.003821 -0.041674
v 0.030688 0.010295 -0.034353
v 0.023366 0.017092 -0.040627
v 0.011864 0.017619 -0.035924
v 0.024937 0.012388 -0.042720
v 0.027027 0.015525 -0.036968
v 0.029642 -0.006960 -0.039061
v 0.028075 0.004547 -0.042197
f 962 942 965 
f 944 943 945 
f 943 944 947 
f 945 943 949 
f 943 947 949 
f 945 946 950 
f 946 949 953 
f 950 946 953 
f 947 950 953 
f 948 951 954 
f 944 945 955 
f 947 944 955 
f 951 948 955 
f 951 955 956 
f 945 950 956 
f 955 945 956 
f 949 947 957 
f 953 949 957 
f 947 953 957 
f 948 954 958 
f 950 947 959 
f 947 952 959 
f 952 942 959 
f 951 956 960 
f 956 950 960 
f 946 945 961 
f 945 949 961 
f 949 946 961 
f 954 951 962 
f 951 960 962 
f 962 960 963 
f 959 942 963 
f 950 959 963 
f 960 950 963 
f 942 962 963 
f 952 947 964 
f 947 955 964 
f 955 948 964 
f 948 958 964 
f 958 952 964 
f 942 952 965 
f 952 958 965 
f 958 954 965 
f 954 962 965 
o convex_41
v 0.037489 0.003498 -0.020233
v 0.025463 -0.006960 -0.034353
v 0.031735 -0.006960 -0.034353
v 0.024938 0.007159 -0.034353
v 0.032783 -0.006960 -0.019710
v 0.031735 0.007159 -0.034353
v 0.032259 0.007159 -0.019710
v 0.036966 -0.006437 -0.022327
v 0.034351 0.001406 -0.031213
v 0.036441 0.007159 -0.022851
v 0.036966 -0.006960 -0.019710
v 0.035920 -0.003822 -0.027552
v 0.024938 0.005589 -0.033830
v 0.032259 -0.006960 -0.020233
v 0.036966 0.006636 -0.019710
v 0.032783 -0.002253 -0.034353
v 0.035920 0.002976 -0.027032
v 0.033828 -0.006960 -0.031213
v 0.025463 -0.006960 -0.033830
f 967 979 984 
f 968 967 969 
f 967 968 970 
f 968 969 971 
f 971 969 972 
f 971 972 975 
f 970 968 976 
f 972 970 976 
f 973 966 976 
f 966 973 977 
f 969 967 978 
f 972 969 978 
f 972 978 979 
f 967 970 979 
f 970 972 979 
f 975 972 980 
f 966 975 980 
f 976 966 980 
f 972 976 980 
f 968 971 981 
f 971 974 981 
f 974 977 981 
f 974 971 982 
f 971 975 982 
f 975 966 982 
f 966 977 982 
f 977 974 982 
f 976 968 983 
f 973 976 983 
f 977 973 983 
f 968 981 983 
f 981 977 983 
f 978 967 984 
f 979 978 984 
o convex_42
v 0.035395 0.011867 -0.019710
v 0.018141 0.017095 -0.034353
v 0.018141 0.017619 -0.034353
v 0.031736 0.007159 -0.034353
v 0.031736 0.007159 -0.020233
v 0.027032 0.017619 -0.034353
v 0.027551 0.017619 -0.019710
v 0.024416 0.007159 -0.033830
v 0.032257 0.017619 -0.022851
v 0.036440 0.007159 -0.019710
v 0.032257 0.010821 -0.031736
v 0.034872 0.008206 -0.027032
v 0.032780 0.017619 -0.019710
v 0.018141 0.017095 -0.033830
v 0.027551 0.016572 -0.019710
v 0.034872 0.012911 -0.022327
v 0.030167 0.016049 -0.030692
f 1000 995 1001 
f 986 987 988 
f 988 987 990 
f 990 987 991 
f 986 988 992 
f 988 989 992 
f 990 991 993 
f 989 988 994 
f 985 991 994 
f 988 990 995 
f 994 988 996 
f 988 995 996 
f 991 985 997 
f 993 991 997 
f 987 986 998 
f 991 987 998 
f 986 992 998 
f 992 989 998 
f 989 994 999 
f 994 991 999 
f 991 998 999 
f 998 989 999 
f 985 994 1000 
f 994 996 1000 
f 996 995 1000 
f 997 985 1000 
f 993 997 1000 
f 990 993 1001 
f 995 990 1001 
f 993 1000 1001 
o convex_43
v 0.014478 0.022848 -0.030692
v 0.008727 0.033830 -0.019710
v 0.011340 0.033306 -0.019710
v 0.011864 0.030169 -0.030692
v 0.002974 0.025987 -0.030692
v 0.015525 0.027032 -0.019710
v 0.002974 0.029647 -0.019710
v 0.002974 0.032783 -0.026508
v 0.015525 0.030169 -0.027553
v 0.004021 0.031215 -0.030692
v 0.002974 0.033830 -0.019710
v 0.015525 0.031737 -0.019710
v 0.009249 0.032260 -0.027031
v 0.015525 0.022848 -0.029645
v 0.015525 0.028599 -0.030692
v 0.004021 0.025464 -0.030169
v 0.012387 0.032783 -0.022849
f 1010 1014 1018 
f 1005 1002 1006 
f 1004 1003 1007 
f 1007 1003 1008 
f 1006 1008 1009 
f 1005 1006 1011 
f 1006 1009 1011 
f 1008 1003 1012 
f 1003 1009 1012 
f 1009 1008 1012 
f 1004 1007 1013 
f 1007 1010 1013 
f 1009 1003 1014 
f 1010 1005 1014 
f 1005 1011 1014 
f 1011 1009 1014 
f 1007 1008 1015 
f 1010 1007 1015 
f 1010 1015 1016 
f 1002 1005 1016 
f 1005 1010 1016 
f 1015 1002 1016 
f 1006 1002 1017 
f 1008 1006 1017 
f 1002 1015 1017 
f 1015 1008 1017 
f 1003 1004 1018 
f 1004 1013 1018 
f 1013 1010 1018 
f 1014 1003 1018 
o convex_44
v 0.028597 0.017619 -0.030169
v 0.016051 0.031739 -0.019710
v 0.016051 0.031739 -0.020234
v 0.015525 0.022326 -0.030169
v 0.027029 0.017619 -0.019710
v 0.030168 0.021280 -0.019710
v 0.018143 0.027553 -0.030692
v 0.015525 0.026507 -0.020234
v 0.024413 0.027031 -0.021802
v 0.021800 0.017619 -0.030692
v 0.015525 0.028600 -0.030692
v 0.027029 0.020234 -0.030692
v 0.032260 0.018144 -0.021802
v 0.025458 0.024419 -0.026508
v 0.017617 0.030692 -0.023372
v 0.032260 0.017619 -0.019710
v 0.028597 0.022850 -0.022849
v 0.021800 0.025461 -0.030692
v 0.022326 0.028600 -0.019710
f 1027 1033 1037 
f 1020 1023 1024 
f 1022 1023 1026 
f 1023 1020 1026 
f 1019 1023 1028 
f 1023 1022 1028 
f 1025 1028 1029 
f 1020 1021 1029 
f 1026 1020 1029 
f 1022 1026 1029 
f 1028 1022 1029 
f 1019 1028 1030 
f 1028 1025 1030 
f 1019 1030 1031 
f 1025 1029 1033 
f 1029 1021 1033 
f 1023 1019 1034 
f 1024 1023 1034 
f 1019 1031 1034 
f 1031 1024 1034 
f 1027 1024 1035 
f 1024 1031 1035 
f 1031 1030 1035 
f 1030 1032 1035 
f 1032 1027 1035 
f 1030 1025 1036 
f 1032 1030 1036 
f 1027 1032 1036 
f 1033 1027 1036 
f 1025 1033 1036 
f 1021 1020 1037 
f 1020 1024 1037 
f 1024 1027 1037 
f 1033 1021 1037 
o convex_45
v 0.041150 0.002975 0.000162
v 0.032783 -0.006959 -0.019710
v 0.032783 0.006112 -0.019710
v 0.038535 -0.003299 -0.018664
v 0.036444 -0.006959 0.000162
v 0.035920 0.006112 -0.000361
v 0.040627 -0.006959 -0.004022
v 0.039058 0.006112 -0.013433
v 0.036966 0.006112 -0.019710
v 0.036966 -0.006959 -0.019710
v 0.040627 0.006112 -0.004022
v 0.040627 -0.006959 0.000162
v 0.041150 -0.000162 -0.004022
v 0.032783 -0.006959 -0.018664
v 0.035920 -0.006959 -0.000884
v 0.040104 0.006112 0.000162
v 0.032783 0.006112 -0.018140
f 1051 1043 1054 
f 1042 1039 1044 
f 1040 1043 1045 
f 1039 1040 1046 
f 1040 1045 1046 
f 1045 1041 1046 
f 1044 1039 1047 
f 1041 1044 1047 
f 1039 1046 1047 
f 1046 1041 1047 
f 1045 1043 1048 
f 1038 1042 1049 
f 1042 1044 1049 
f 1049 1044 1050 
f 1044 1041 1050 
f 1041 1045 1050 
f 1048 1038 1050 
f 1045 1048 1050 
f 1038 1049 1050 
f 1040 1039 1051 
f 1039 1042 1051 
f 1043 1051 1052 
f 1042 1043 1052 
f 1051 1042 1052 
f 1042 1038 1053 
f 1043 1042 1053 
f 1038 1048 1053 
f 1048 1043 1053 
f 1043 1040 1054 
f 1040 1051 1054 
o convex_46
v 0.041672 0.004020 0.045129
v 0.036443 -0.006959 0.000162
v 0.036443 0.006112 0.000162
v 0.035397 -0.006436 0.036241
v 0.041150 -0.005913 0.000691
v 0.041150 -0.006959 0.045653
v 0.035921 0.006112 0.039380
v 0.041150 0.006112 0.004349
v 0.042196 -0.002253 0.014810
v 0.038536 0.006112 0.046706
v 0.036967 -0.006959 0.044606
v 0.035397 0.006112 0.023694
v 0.035921 -0.006959 0.001739
v 0.041672 0.006112 0.027352
v 0.041150 0.004020 0.000162
v 0.041150 -0.006959 0.005921
v 0.041672 -0.005391 0.043562
v 0.042196 0.002975 0.020040
v 0.041150 0.006112 0.046177
v 0.035397 -0.006959 0.022136
v 0.038536 -0.006959 0.046706
v 0.042196 0.002452 0.031015
v 0.041672 -0.006436 0.018468
v 0.035397 0.006112 0.035717
v 0.037490 0.006112 0.045653
v 0.041150 -0.003299 0.046706
v 0.040626 -0.006959 0.000162
v 0.042196 -0.002775 0.026828
f 1071 1077 1082 
f 1057 1061 1062 
f 1062 1061 1064 
f 1056 1060 1065 
f 1061 1058 1065 
f 1061 1057 1066 
f 1057 1056 1067 
f 1056 1065 1067 
f 1066 1057 1067 
f 1062 1064 1068 
f 1056 1057 1069 
f 1057 1062 1069 
f 1063 1059 1069 
f 1060 1056 1070 
f 1062 1068 1072 
f 1069 1062 1072 
f 1063 1069 1072 
f 1055 1068 1073 
f 1068 1064 1073 
f 1065 1058 1074 
f 1058 1066 1074 
f 1067 1065 1074 
f 1066 1067 1074 
f 1065 1060 1075 
f 1068 1055 1076 
f 1055 1071 1076 
f 1072 1068 1076 
f 1063 1072 1076 
f 1059 1063 1077 
f 1070 1059 1077 
f 1060 1070 1077 
f 1071 1060 1077 
f 1058 1061 1078 
f 1066 1058 1078 
f 1061 1066 1078 
f 1064 1061 1079 
f 1061 1065 1079 
f 1065 1075 1079 
f 1075 1064 1079 
f 1071 1055 1080 
f 1060 1071 1080 
f 1055 1073 1080 
f 1073 1064 1080 
f 1075 1060 1080 
f 1064 1075 1080 
f 1056 1069 1081 
f 1069 1059 1081 
f 1070 1056 1081 
f 1059 1070 1081 
f 1063 1076 1082 
f 1076 1071 1082 
f 1077 1063 1082 
o convex_47
v 0.031737 0.019186 -0.019708
v 0.040627 0.006638 -0.002454
v 0.040627 0.006116 -0.002454
v 0.030168 0.018663 -0.001931
v 0.032262 0.006116 -0.019708
v 0.035919 0.019186 -0.002454
v 0.036964 0.009775 -0.018662
v 0.026507 0.019186 -0.019708
v 0.035919 0.006116 -0.001408
v 0.036964 0.006116 -0.019708
v 0.036442 0.016571 -0.009775
v 0.026507 0.018140 -0.019185
v 0.038534 0.013434 -0.001408
v 0.030692 0.019186 -0.001408
v 0.039055 0.009775 -0.009252
v 0.034349 0.018663 -0.013956
v 0.039055 0.006638 -0.012910
v 0.039055 0.012390 -0.003501
v 0.034872 0.015526 -0.018139
f 1098 1093 1101 
f 1083 1087 1090 
f 1088 1083 1090 
f 1087 1085 1091 
f 1087 1083 1092 
f 1085 1087 1092 
f 1083 1089 1092 
f 1090 1087 1094 
f 1086 1090 1094 
f 1091 1086 1094 
f 1087 1091 1094 
f 1085 1084 1095 
f 1091 1085 1095 
f 1090 1086 1096 
f 1088 1090 1096 
f 1086 1091 1096 
f 1095 1088 1096 
f 1091 1095 1096 
f 1089 1093 1097 
f 1083 1088 1098 
f 1088 1093 1098 
f 1084 1085 1099 
f 1085 1092 1099 
f 1092 1089 1099 
f 1097 1084 1099 
f 1089 1097 1099 
f 1093 1088 1100 
f 1095 1084 1100 
f 1088 1095 1100 
f 1084 1097 1100 
f 1097 1093 1100 
f 1089 1083 1101 
f 1093 1089 1101 
f 1083 1098 1101 
o convex_48
v 0.038534 0.014480 0.046706
v 0.041149 0.006114 0.015331
v 0.041673 0.006114 0.015331
v 0.035397 0.019186 -0.001406
v 0.029645 0.018663 0.033105
v 0.035919 0.006116 -0.001406
v 0.036966 0.006116 0.044087
v 0.030691 0.018140 -0.001406
v 0.036966 0.019186 0.044610
v 0.040103 0.010299 0.000689
v 0.041149 0.006116 0.045656
v 0.039057 0.016049 0.029445
v 0.032261 0.019186 0.045133
v 0.034876 0.006638 0.031532
v 0.040103 0.006116 -0.001406
v 0.036966 0.018663 0.005917
v 0.030691 0.019186 -0.001406
v 0.040103 0.012390 0.043565
v 0.041149 0.009775 0.020036
v 0.038011 0.016571 0.001212
v 0.038534 0.006116 0.046706
v 0.029645 0.018663 0.026309
v 0.033829 0.019186 0.046706
v 0.035397 0.006116 0.036241
v 0.030169 0.018663 0.037287
v 0.041149 0.008206 0.044610
v 0.039579 0.013433 0.005917
v 0.036966 0.019186 0.013768
v 0.029645 0.019186 0.033105
v 0.041149 0.007162 0.005394
v 0.038534 0.013433 -0.001406
f 1121 1111 1132 
f 1104 1103 1107 
f 1105 1107 1109 
f 1110 1105 1114 
f 1104 1107 1116 
f 1107 1105 1116 
f 1105 1109 1118 
f 1114 1105 1118 
f 1110 1102 1119 
f 1113 1110 1119 
f 1113 1119 1120 
f 1105 1117 1121 
f 1103 1104 1122 
f 1108 1103 1122 
f 1112 1102 1122 
f 1104 1112 1122 
f 1114 1108 1122 
f 1109 1107 1123 
f 1115 1106 1123 
f 1107 1115 1123 
f 1118 1109 1123 
f 1102 1110 1124 
f 1110 1114 1124 
f 1122 1102 1124 
f 1114 1122 1124 
f 1107 1103 1125 
f 1103 1108 1125 
f 1106 1115 1125 
f 1115 1107 1125 
f 1108 1114 1126 
f 1106 1125 1126 
f 1125 1108 1126 
f 1102 1112 1127 
f 1112 1104 1127 
f 1119 1102 1127 
f 1120 1119 1127 
f 1104 1120 1127 
f 1113 1120 1128 
f 1111 1121 1128 
f 1121 1113 1128 
f 1105 1110 1129 
f 1110 1113 1129 
f 1117 1105 1129 
f 1121 1117 1129 
f 1113 1121 1129 
f 1114 1118 1130 
f 1123 1106 1130 
f 1118 1123 1130 
f 1106 1126 1130 
f 1126 1114 1130 
f 1104 1116 1131 
f 1116 1111 1131 
f 1120 1104 1131 
f 1128 1120 1131 
f 1111 1128 1131 
f 1116 1105 1132 
f 1111 1116 1132 
f 1105 1121 1132 
o convex_49
v 0.002974 0.034876 -0.018663
v 0.017617 0.034353 -0.002452
v 0.015524 0.035398 -0.002452
v 0.002974 0.033307 -0.002452
v 0.017617 0.026509 -0.019710
v 0.017094 0.032260 -0.018141
v 0.003497 0.029648 -0.019710
v 0.017094 0.029648 -0.002976
v 0.007158 0.037491 -0.004022
v 0.002974 0.036967 -0.002452
v 0.009775 0.033830 -0.019710
v 0.012910 0.034876 -0.013433
v 0.016570 0.026509 -0.018663
v 0.017617 0.031217 -0.019710
v 0.002974 0.032783 -0.004022
v 0.006635 0.035921 -0.013955
v 0.002974 0.036967 -0.008730
v 0.017094 0.034353 -0.008730
v 0.017617 0.030170 -0.002452
v 0.014476 0.035921 -0.004022
f 1150 1144 1152 
f 1134 1135 1136 
f 1136 1135 1142 
f 1133 1136 1142 
f 1135 1141 1142 
f 1139 1133 1143 
f 1137 1139 1143 
f 1138 1143 1144 
f 1139 1137 1145 
f 1137 1140 1145 
f 1134 1137 1146 
f 1137 1143 1146 
f 1143 1138 1146 
f 1136 1133 1147 
f 1133 1139 1147 
f 1140 1136 1147 
f 1139 1145 1147 
f 1145 1140 1147 
f 1143 1133 1148 
f 1141 1144 1148 
f 1144 1143 1148 
f 1133 1142 1149 
f 1142 1141 1149 
f 1148 1133 1149 
f 1141 1148 1149 
f 1138 1144 1150 
f 1134 1146 1150 
f 1146 1138 1150 
f 1134 1136 1151 
f 1137 1134 1151 
f 1140 1137 1151 
f 1136 1140 1151 
f 1135 1134 1152 
f 1141 1135 1152 
f 1144 1141 1152 
f 1134 1150 1152 
o convex_50
v 0.002974 0.032785 0.021612
v 0.017617 0.035399 0.046706
v 0.017617 0.032785 0.046706
v 0.017617 0.034352 -0.002452
v 0.002974 0.039060 0.031009
v 0.017617 0.029124 0.028401
v 0.002974 0.033309 -0.002452
v 0.002974 0.034875 0.045652
v 0.010816 0.037490 0.001209
v 0.017617 0.030171 -0.002452
v 0.002974 0.038012 0.000690
v 0.010816 0.038012 0.045132
v 0.013956 0.037490 0.015332
v 0.002974 0.038012 0.046706
v 0.002974 0.032785 0.036245
v 0.017094 0.030171 0.039377
v 0.017617 0.035921 0.010102
v 0.008205 0.038536 0.014808
v 0.006635 0.037490 -0.002452
v 0.016570 0.036444 0.044613
v 0.017094 0.029124 0.028401
v 0.016570 0.030171 -0.002452
v 0.017617 0.031217 0.044088
v 0.017617 0.035399 0.000690
v 0.006113 0.038536 0.045652
v 0.011863 0.038012 0.032054
v 0.004543 0.039060 0.029446
v 0.017094 0.036444 0.030490
v 0.017094 0.029648 0.036764
v 0.002974 0.033832 0.041995
f 1181 1168 1182 
f 1154 1155 1156 
f 1156 1155 1158 
f 1153 1157 1159 
f 1157 1153 1160 
f 1156 1158 1162 
f 1159 1156 1162 
f 1159 1157 1163 
f 1155 1154 1166 
f 1160 1155 1166 
f 1157 1160 1166 
f 1160 1153 1167 
f 1154 1156 1169 
f 1161 1163 1170 
f 1165 1161 1170 
f 1156 1159 1171 
f 1159 1163 1171 
f 1163 1161 1171 
f 1164 1154 1172 
f 1153 1159 1173 
f 1162 1158 1173 
f 1167 1153 1173 
f 1159 1162 1174 
f 1173 1159 1174 
f 1162 1173 1174 
f 1158 1155 1175 
f 1155 1160 1175 
f 1161 1165 1176 
f 1169 1156 1176 
f 1165 1169 1176 
f 1156 1171 1176 
f 1171 1161 1176 
f 1154 1164 1177 
f 1166 1154 1177 
f 1157 1166 1177 
f 1165 1170 1178 
f 1164 1172 1178 
f 1163 1157 1179 
f 1170 1163 1179 
f 1177 1164 1179 
f 1157 1177 1179 
f 1164 1178 1179 
f 1178 1170 1179 
f 1154 1169 1180 
f 1169 1165 1180 
f 1172 1154 1180 
f 1165 1178 1180 
f 1178 1172 1180 
f 1173 1158 1181 
f 1167 1173 1181 
f 1158 1175 1181 
f 1175 1168 1181 
f 1160 1167 1182 
f 1175 1160 1182 
f 1168 1175 1182 
f 1167 1181 1182 
o convex_51
v 0.018141 0.032784 -0.012912
v 0.035397 0.019712 0.000162
v 0.034873 0.020757 0.000162
v 0.017617 0.030169 0.000162
v 0.025985 0.019188 -0.019710
v 0.031734 0.020757 -0.018140
v 0.027029 0.029644 -0.002454
v 0.030165 0.019188 0.000162
v 0.017617 0.025988 -0.019710
v 0.023895 0.027553 -0.019710
v 0.017617 0.034353 0.000162
v 0.031212 0.019188 -0.019710
v 0.017617 0.031214 -0.019185
v 0.030165 0.024417 -0.013433
v 0.022325 0.029644 -0.018140
v 0.020234 0.033829 -0.003499
v 0.023895 0.031738 0.000162
v 0.031734 0.024942 -0.004022
v 0.035397 0.019188 -0.004545
v 0.017617 0.029644 -0.000361
v 0.017617 0.025988 -0.018664
v 0.033305 0.021803 -0.009254
v 0.027029 0.029644 -0.003499
v 0.027551 0.025466 -0.018140
v 0.031212 0.025466 0.000162
v 0.025985 0.019188 -0.018140
f 1190 1203 1208 
f 1184 1185 1186 
f 1184 1186 1190 
f 1187 1191 1192 
f 1186 1185 1193 
f 1191 1186 1193 
f 1190 1187 1194 
f 1187 1192 1194 
f 1192 1188 1194 
f 1192 1191 1195 
f 1193 1183 1195 
f 1191 1193 1195 
f 1195 1183 1197 
f 1192 1195 1197 
f 1183 1193 1198 
f 1197 1183 1198 
f 1193 1185 1199 
f 1198 1193 1199 
f 1185 1184 1201 
f 1184 1190 1201 
f 1194 1188 1201 
f 1190 1194 1201 
f 1190 1186 1202 
f 1186 1191 1202 
f 1202 1191 1203 
f 1191 1187 1203 
f 1190 1202 1203 
f 1188 1196 1204 
f 1200 1185 1204 
f 1196 1200 1204 
f 1185 1201 1204 
f 1201 1188 1204 
f 1197 1198 1205 
f 1199 1189 1205 
f 1198 1199 1205 
f 1200 1196 1205 
f 1188 1192 1206 
f 1196 1188 1206 
f 1192 1197 1206 
f 1205 1196 1206 
f 1197 1205 1206 
f 1199 1185 1207 
f 1189 1199 1207 
f 1185 1200 1207 
f 1205 1189 1207 
f 1200 1205 1207 
f 1187 1190 1208 
f 1203 1187 1208 
o convex_52
v 0.017617 0.035922 0.010623
v 0.036966 0.019711 0.026304
v 0.036966 0.019188 0.026304
v 0.017617 0.032782 0.046706
v 0.030167 0.019188 0.000162
v 0.031214 0.019188 0.043043
v 0.028074 0.029645 0.046177
v 0.029644 0.027555 0.000162
v 0.017617 0.030168 0.000162
v 0.017617 0.029121 0.035193
v 0.036442 0.019711 0.046177
v 0.035396 0.019711 0.000162
v 0.019187 0.035398 0.044606
v 0.028074 0.030168 0.015329
v 0.018141 0.034874 0.000162
v 0.029644 0.019188 0.036241
v 0.033305 0.024941 0.023694
v 0.021803 0.034351 0.014810
v 0.032260 0.025986 0.044091
v 0.025462 0.032260 0.031015
v 0.032782 0.024941 0.005921
v 0.033305 0.019188 0.046706
v 0.023894 0.032260 0.001215
v 0.017617 0.029121 0.023694
v 0.017617 0.035398 0.046177
v 0.030691 0.028076 0.031015
v 0.017617 0.031215 0.044606
v 0.036442 0.019188 0.005921
v 0.035396 0.022327 0.020040
v 0.018664 0.035922 0.030491
v 0.027030 0.030168 0.046706
v 0.022325 0.033829 0.045129
v 0.034351 0.022327 0.000691
v 0.029644 0.019188 0.022136
v 0.035396 0.022327 0.031015
v 0.030691 0.027555 0.010623
v 0.036966 0.019711 0.015329
f 1241 1237 1245 
f 1213 1211 1214 
f 1212 1209 1217 
f 1216 1213 1217 
f 1212 1217 1218 
f 1211 1210 1219 
f 1213 1216 1220 
f 1217 1209 1223 
f 1216 1217 1223 
f 1213 1214 1224 
f 1214 1218 1224 
f 1223 1209 1226 
f 1215 1219 1227 
f 1222 1226 1228 
f 1214 1211 1230 
f 1211 1219 1230 
f 1222 1216 1231 
f 1216 1223 1231 
f 1226 1222 1231 
f 1223 1226 1231 
f 1217 1213 1232 
f 1218 1217 1232 
f 1224 1218 1232 
f 1209 1212 1233 
f 1215 1227 1234 
f 1228 1215 1234 
f 1222 1228 1234 
f 1218 1214 1235 
f 1212 1218 1235 
f 1214 1230 1235 
f 1230 1212 1235 
f 1211 1213 1236 
f 1213 1220 1236 
f 1229 1225 1237 
f 1226 1209 1238 
f 1228 1226 1238 
f 1209 1233 1238 
f 1233 1221 1238 
f 1219 1215 1239 
f 1212 1230 1239 
f 1230 1219 1239 
f 1233 1212 1239 
f 1233 1239 1240 
f 1215 1228 1240 
f 1221 1233 1240 
f 1238 1221 1240 
f 1228 1238 1240 
f 1239 1215 1240 
f 1220 1216 1241 
f 1216 1229 1241 
f 1236 1220 1241 
f 1229 1237 1241 
f 1213 1224 1242 
f 1232 1213 1242 
f 1224 1232 1242 
f 1219 1210 1243 
f 1227 1219 1243 
f 1234 1227 1243 
f 1225 1234 1243 
f 1210 1237 1243 
f 1237 1225 1243 
f 1216 1222 1244 
f 1229 1216 1244 
f 1225 1229 1244 
f 1234 1225 1244 
f 1222 1234 1244 
f 1210 1211 1245 
f 1211 1236 1245 
f 1237 1210 1245 
f 1236 1241 1245 
