o convex_0
v -0.025605 0.000413 0.047195
v -0.024374 -0.054307 -0.022275
v -0.024989 -0.053688 -0.022893
v -0.004700 0.015171 -0.023511
v -0.004700 -0.040161 0.047195
v -0.025605 0.015171 -0.022275
v -0.004700 -0.052458 -0.021664
v -0.005316 0.009635 0.037970
v -0.025605 -0.040774 0.047188
v -0.024374 0.014552 0.033666
v -0.009006 -0.054307 0.010315
v -0.007160 0.000413 0.049042
v -0.025605 -0.053076 0.009698
v -0.004700 0.015171 0.005394
v -0.024374 -0.040774 0.049042
v -0.006546 -0.053688 -0.023511
v -0.024374 0.015171 -0.023511
v -0.007160 -0.040774 0.049042
v -0.004700 -0.000206 0.047195
v -0.005316 -0.053688 0.009087
v -0.024374 0.000413 0.049042
v -0.023760 -0.054307 0.010315
v -0.025605 -0.053076 -0.022275
v -0.016995 0.014552 0.033666
v -0.008390 -0.041998 0.047806
v -0.025605 0.013321 0.033056
v -0.024374 -0.053688 -0.023511
v -0.023760 -0.041998 0.047806
v -0.006546 -0.054307 -0.022275
v -0.025605 0.015171 0.003555
v -0.004700 -0.052458 0.010315
v -0.008390 0.005330 0.044120
v -0.005316 -0.000206 0.048424
v -0.004700 -0.032164 -0.023511
v -0.004700 0.008404 0.037970
v -0.005930 -0.041392 0.047806
v -0.006546 0.010247 0.037970
v -0.006546 -0.054307 0.009087
v -0.024374 0.004718 0.044731
v -0.014539 0.013940 0.033666
v -0.005316 -0.040161 0.048424
v -0.025605 -0.040161 0.047806
v -0.024374 -0.054307 0.009705
v -0.010236 0.010866 0.037970
v -0.023760 0.015171 0.006630
v -0.005316 -0.053688 -0.022275
f 16 34 46 
f 4 5 7 
f 1 6 9 
f 9 6 13 
f 5 4 14 
f 4 6 14 
f 3 6 17 
f 6 4 17 
f 4 16 17 
f 12 15 18 
f 5 14 19 
f 15 12 21 
f 2 11 22 
f 3 2 23 
f 6 3 23 
f 2 13 23 
f 13 6 23 
f 18 15 25 
f 22 11 25 
f 6 1 26 
f 2 3 27 
f 16 2 27 
f 3 17 27 
f 17 16 27 
f 15 9 28 
f 25 15 28 
f 22 25 28 
f 11 2 29 
f 2 16 29 
f 14 6 30 
f 6 26 30 
f 26 10 30 
f 7 5 31 
f 5 20 31 
f 20 7 31 
f 21 12 32 
f 8 12 33 
f 12 18 33 
f 5 19 33 
f 19 8 33 
f 4 7 34 
f 16 4 34 
f 14 8 35 
f 8 19 35 
f 19 14 35 
f 20 5 36 
f 18 25 36 
f 12 8 37 
f 8 14 37 
f 32 12 37 
f 25 11 38 
f 11 29 38 
f 29 20 38 
f 20 36 38 
f 36 25 38 
f 1 21 39 
f 26 1 39 
f 10 26 39 
f 21 32 39 
f 14 24 40 
f 37 14 40 
f 24 37 40 
f 5 33 41 
f 33 18 41 
f 36 5 41 
f 18 36 41 
f 1 9 42 
f 9 15 42 
f 21 1 42 
f 15 21 42 
f 13 2 43 
f 9 13 43 
f 2 22 43 
f 28 9 43 
f 22 28 43 
f 24 10 44 
f 37 24 44 
f 32 37 44 
f 10 39 44 
f 39 32 44 
f 10 24 45 
f 24 14 45 
f 14 30 45 
f 30 10 45 
f 7 20 46 
f 29 16 46 
f 20 29 46 
f 34 7 46 
o convex_1
v -0.024376 0.015171 -0.023511
v -0.016997 0.069890 0.005387
v -0.016997 0.070507 0.004157
v -0.004700 0.015171 -0.023511
v -0.004700 0.015171 0.005387
v -0.005316 0.065584 -0.022280
v -0.025605 0.015171 0.003540
v -0.025605 0.070507 -0.022280
v -0.004700 0.064354 0.003540
v -0.025605 0.070507 0.003540
v -0.016997 0.069890 -0.023511
v -0.023760 0.015171 0.005387
v -0.025605 0.015171 -0.022280
v -0.006546 0.064966 0.005387
v -0.004700 0.064354 -0.021663
v -0.023760 0.069890 0.005387
v -0.006546 0.064966 -0.023511
v -0.024376 0.069890 -0.023511
v -0.016383 0.070507 -0.022280
v -0.006546 0.066201 0.003540
v -0.013309 0.069272 0.003540
v -0.004700 0.037314 0.005387
v -0.004700 0.037314 -0.023511
v -0.013309 0.069272 -0.021663
f 67 66 70 
f 47 50 51 
f 47 51 53 
f 51 50 55 
f 49 54 56 
f 54 53 56 
f 50 47 57 
f 51 48 58 
f 53 51 58 
f 56 53 58 
f 47 53 59 
f 54 47 59 
f 53 54 59 
f 48 51 60 
f 55 50 61 
f 52 55 61 
f 48 49 62 
f 49 56 62 
f 58 48 62 
f 56 58 62 
f 50 57 63 
f 57 52 63 
f 47 54 64 
f 57 47 64 
f 54 57 64 
f 54 49 65 
f 52 57 65 
f 57 54 65 
f 55 52 66 
f 48 60 66 
f 60 55 66 
f 49 48 67 
f 65 49 67 
f 48 66 67 
f 51 55 68 
f 60 51 68 
f 55 60 68 
f 61 50 69 
f 52 61 69 
f 50 63 69 
f 63 52 69 
f 52 65 70 
f 66 52 70 
f 65 67 70 
o convex_2
v 0.041409 0.034227 0.005387
v -0.004700 -0.033402 -0.021049
v -0.003468 -0.033402 -0.021049
v 0.030346 0.037299 -0.023511
v -0.004700 0.037920 0.004770
v 0.013132 -0.032167 0.007232
v 0.051251 -0.000198 -0.021663
v -0.004700 0.037299 -0.023511
v 0.051251 -0.000198 0.003540
v -0.004700 -0.032781 0.007232
v 0.014359 -0.032167 -0.023511
v 0.049405 0.028076 -0.023511
v 0.036491 0.028076 0.007232
v 0.051251 0.026233 0.003540
v 0.016210 -0.032167 0.003543
v 0.008214 0.026841 0.007232
v 0.030346 0.037920 0.003543
v -0.004700 -0.032167 -0.023511
v 0.049405 -0.000198 0.005387
v 0.043868 0.034227 -0.022280
v 0.049405 -0.000813 -0.023511
v 0.016210 -0.032167 -0.021666
v 0.030346 0.037920 -0.021666
v 0.051251 0.026233 -0.021663
v 0.048173 0.031148 0.004156
v -0.004700 -0.003270 0.007232
v 0.046946 -0.004499 0.003543
v 0.049405 0.027462 0.005387
v -0.004700 0.037299 0.005387
v -0.004700 0.037920 -0.022894
v 0.014359 -0.032781 0.004770
v 0.042636 0.034842 0.003543
v 0.027881 0.031763 0.007232
v 0.050019 0.029305 -0.021663
v 0.029727 0.037299 0.005387
v -0.004082 -0.033402 0.006615
v 0.037110 0.036685 -0.021666
v 0.046946 -0.004499 -0.021666
v 0.037110 0.023769 0.007232
v 0.014359 -0.032781 -0.022280
v 0.034645 0.037299 0.003543
v 0.046946 0.032384 -0.022280
v 0.014978 0.031148 0.007232
v 0.050019 0.029305 0.003540
v 0.045101 0.033606 0.003543
v 0.040796 0.034842 -0.023511
v 0.018050 -0.030324 -0.022280
f 108 92 117 
f 72 75 78 
f 75 72 80 
f 73 72 81 
f 78 74 81 
f 81 74 82 
f 80 76 83 
f 79 77 84 
f 80 83 86 
f 72 78 88 
f 81 72 88 
f 78 81 88 
f 79 84 89 
f 82 77 91 
f 81 82 91 
f 75 87 93 
f 77 82 94 
f 84 77 94 
f 75 80 96 
f 80 86 96 
f 77 79 97 
f 76 85 97 
f 89 76 97 
f 79 89 97 
f 85 92 97 
f 71 83 98 
f 89 84 98 
f 95 71 98 
f 75 96 99 
f 96 86 99 
f 74 78 100 
f 78 75 100 
f 93 74 100 
f 75 93 100 
f 85 76 101 
f 92 85 101 
f 83 71 103 
f 86 83 103 
f 94 82 104 
f 84 94 104 
f 87 75 105 
f 75 99 105 
f 103 71 105 
f 99 103 105 
f 72 73 106 
f 80 72 106 
f 76 80 106 
f 73 101 106 
f 101 76 106 
f 74 93 107 
f 102 90 107 
f 91 77 108 
f 77 97 108 
f 97 92 108 
f 83 76 109 
f 76 89 109 
f 98 83 109 
f 89 98 109 
f 73 81 110 
f 81 92 110 
f 101 73 110 
f 92 101 110 
f 93 87 111 
f 71 102 111 
f 87 105 111 
f 105 71 111 
f 107 93 111 
f 102 107 111 
f 104 82 112 
f 99 86 113 
f 86 103 113 
f 103 99 113 
f 98 84 114 
f 95 98 114 
f 84 104 114 
f 112 95 114 
f 104 112 114 
f 71 95 115 
f 102 71 115 
f 90 102 115 
f 112 90 115 
f 95 112 115 
f 82 74 116 
f 74 107 116 
f 107 90 116 
f 112 82 116 
f 90 112 116 
f 81 91 117 
f 92 81 117 
f 91 108 117 
o convex_3
v -0.004084 -0.029093 0.020143
v -0.004084 -0.005123 0.029981
v -0.004084 -0.003893 0.029365
v 0.013130 -0.025405 0.027519
v 0.011900 -0.010042 0.007232
v -0.004700 -0.032785 0.007232
v -0.004700 -0.003280 0.007232
v 0.013130 -0.032169 0.007232
v 0.013130 -0.011270 0.026906
v -0.004700 -0.024793 0.029981
v 0.009441 -0.011270 0.029365
v -0.000396 -0.004508 0.027519
v 0.013130 -0.011270 0.007232
v -0.004700 -0.003280 0.028748
v 0.009441 -0.023562 0.029365
v 0.011900 -0.010042 0.027519
v -0.003470 -0.003280 0.007232
v -0.004700 -0.026635 0.027519
v 0.012514 -0.025405 0.028133
v 0.013130 -0.032169 0.007849
v 0.011900 -0.011270 0.028748
v -0.004084 -0.032785 0.008463
v -0.000396 -0.004508 0.007232
v -0.003470 -0.003280 0.028133
f 134 131 141 
f 122 123 124 
f 123 122 125 
f 121 125 126 
f 124 123 127 
f 125 122 130 
f 122 126 130 
f 126 125 130 
f 119 120 131 
f 127 119 131 
f 124 127 131 
f 119 127 132 
f 128 119 132 
f 126 122 133 
f 122 129 133 
f 122 124 134 
f 124 131 134 
f 127 123 135 
f 127 135 136 
f 132 127 136 
f 135 118 136 
f 125 121 137 
f 136 118 137 
f 121 136 137 
f 120 119 138 
f 121 126 138 
f 119 128 138 
f 128 132 138 
f 126 133 138 
f 133 120 138 
f 136 121 138 
f 132 136 138 
f 123 125 139 
f 118 135 139 
f 135 123 139 
f 137 118 139 
f 125 137 139 
f 129 122 140 
f 122 134 140 
f 134 129 140 
f 131 120 141 
f 120 133 141 
f 133 129 141 
f 129 134 141 
o convex_4
v 0.027271 0.018246 0.020759
v 0.014360 0.019476 0.007232
v 0.014360 0.022549 0.007232
v 0.030961 0.022549 0.007232
v 0.014360 0.022549 0.020759
v 0.030961 0.022549 0.020759
v 0.030961 0.017631 0.014610
v 0.016822 0.017015 0.018913
v 0.028499 0.018861 0.007232
v 0.019896 0.017015 0.013995
v 0.014360 0.019476 0.020759
v 0.029115 0.017015 0.018913
v 0.014360 0.017631 0.014610
v 0.029115 0.017015 0.014610
v 0.030961 0.019476 0.007232
v 0.030961 0.019476 0.020759
v 0.017434 0.018861 0.007232
f 151 154 158 
f 143 144 145 
f 144 143 146 
f 145 144 146 
f 146 142 147 
f 145 146 147 
f 145 147 148 
f 143 145 150 
f 142 146 152 
f 146 143 152 
f 149 142 152 
f 142 149 153 
f 149 151 153 
f 151 149 154 
f 152 143 154 
f 149 152 154 
f 151 150 155 
f 148 153 155 
f 153 151 155 
f 145 148 156 
f 150 145 156 
f 148 155 156 
f 155 150 156 
f 147 142 157 
f 148 147 157 
f 142 153 157 
f 153 148 157 
f 143 150 158 
f 150 151 158 
f 154 143 158 
o convex_5
v 0.029115 0.033001 0.019527
v 0.014360 0.027468 0.007232
v 0.014360 0.027468 0.020759
v 0.030961 0.027468 0.007232
v 0.014360 0.033001 0.014610
v 0.030961 0.027468 0.020759
v 0.026656 0.031771 0.007232
v 0.016206 0.031771 0.020759
v 0.030961 0.033001 0.014610
v 0.015590 0.031157 0.007232
v 0.018665 0.033616 0.014610
v 0.014360 0.033001 0.018913
v 0.030961 0.031157 0.020759
v 0.030961 0.030542 0.007232
v 0.026656 0.033616 0.018913
v 0.026656 0.033616 0.014610
v 0.018665 0.031771 0.007232
f 163 169 175 
f 161 160 162 
f 160 161 163 
f 161 162 164 
f 162 160 165 
f 161 164 166 
f 164 162 167 
f 160 163 168 
f 165 160 168 
f 163 161 170 
f 161 166 170 
f 169 163 170 
f 159 166 171 
f 166 164 171 
f 167 159 171 
f 164 167 171 
f 162 165 172 
f 167 162 172 
f 165 167 172 
f 166 159 173 
f 159 167 173 
f 170 166 173 
f 169 170 173 
f 167 165 174 
f 165 169 174 
f 173 167 174 
f 169 173 174 
f 168 163 175 
f 165 168 175 
f 169 165 175 
