o convex_0
v -0.006406 -0.017091 0.010204
v 0.001482 0.030984 0.033166
v -0.001386 0.030984 0.033166
v -0.003538 0.030984 0.008768
v 0.011529 -0.017091 0.016664
v -0.009276 -0.017091 0.028139
v -0.012149 0.030984 0.017383
v 0.012248 0.030979 0.018818
v 0.007942 -0.017091 0.029577
v 0.003634 -0.017091 0.008768
v 0.002918 0.041032 0.018815
v 0.007942 0.030979 0.010923
v -0.010712 0.030984 0.027425
v 0.010810 0.030979 0.027425
v -0.011428 -0.017091 0.016664
v -0.003538 -0.017091 0.031728
v -0.004973 0.040309 0.022398
v 0.011529 -0.017091 0.023835
v -0.009995 0.030984 0.013074
v -0.006406 0.030984 0.031728
v -0.011428 -0.017091 0.023833
v 0.003634 0.038159 0.028139
v -0.002821 0.038159 0.013074
v 0.009375 -0.017091 0.012360
v 0.003634 0.030984 0.008768
v 0.003634 -0.017091 0.031728
v 0.007223 0.030979 0.031012
v 0.010810 0.030979 0.014510
v -0.012149 0.030984 0.023833
v 0.007942 0.038153 0.019534
v -0.003538 -0.017091 0.008768
v 0.004355 0.038153 0.013793
v -0.004973 0.038159 0.027425
v -0.009276 -0.017091 0.012358
v -0.005689 0.030984 0.009487
v 0.012248 0.030979 0.023117
v -0.007841 0.038159 0.018815
v 0.001482 0.041032 0.023833
v 0.007223 0.038153 0.024554
v -0.007841 -0.017091 0.029577
v 0.007942 -0.017091 0.010923
v 0.009375 -0.017091 0.028141
v -0.002102 0.041032 0.018101
v -0.007841 0.038159 0.023119
v 0.004355 0.027394 0.032447
v -0.007841 0.030984 0.010923
v -0.007125 0.038159 0.016664
v -0.001386 0.036008 0.030295
v -0.007841 -0.017091 0.010923
v 0.000766 0.036719 0.011639
v 0.007942 0.036719 0.015947
v -0.001386 0.027394 0.033166
f 16 26 52 
f 1 5 6 
f 6 5 9 
f 5 1 10 
f 1 6 15 
f 6 9 16 
f 5 8 18 
f 9 5 18 
f 6 13 21 
f 15 6 21 
f 7 15 21 
f 5 10 24 
f 10 4 25 
f 12 10 25 
f 16 9 26 
f 9 14 27 
f 22 2 27 
f 14 22 27 
f 8 5 28 
f 5 24 28 
f 24 12 28 
f 21 13 29 
f 7 21 29 
f 10 1 31 
f 4 10 31 
f 12 25 32 
f 11 30 32 
f 13 20 33 
f 1 15 34 
f 15 7 34 
f 7 19 34 
f 23 4 35 
f 31 1 35 
f 4 31 35 
f 18 8 36 
f 14 18 36 
f 8 30 36 
f 7 29 37 
f 33 22 38 
f 17 33 38 
f 22 14 39 
f 30 11 39 
f 14 36 39 
f 36 30 39 
f 11 38 39 
f 38 22 39 
f 13 6 40 
f 6 16 40 
f 20 13 40 
f 16 20 40 
f 10 12 41 
f 24 10 41 
f 12 24 41 
f 14 9 42 
f 9 18 42 
f 18 14 42 
f 11 32 43 
f 32 23 43 
f 38 11 43 
f 17 38 43 
f 29 13 44 
f 13 33 44 
f 33 17 44 
f 17 37 44 
f 37 29 44 
f 2 26 45 
f 26 9 45 
f 9 27 45 
f 27 2 45 
f 23 35 46 
f 19 7 47 
f 7 37 47 
f 37 17 47 
f 43 23 47 
f 17 43 47 
f 46 19 47 
f 23 46 47 
f 3 2 48 
f 20 3 48 
f 2 22 48 
f 33 20 48 
f 22 33 48 
f 1 34 49 
f 34 19 49 
f 35 1 49 
f 19 46 49 
f 46 35 49 
f 4 23 50 
f 25 4 50 
f 23 32 50 
f 32 25 50 
f 8 28 51 
f 28 12 51 
f 30 8 51 
f 12 32 51 
f 32 30 51 
f 2 3 52 
f 3 20 52 
f 20 16 52 
f 26 2 52 
o convex_1
v -0.035828 -0.042921 -0.076623
v -0.030090 -0.032163 -0.037874
v -0.029371 -0.035033 -0.052226
v -0.030090 -0.057272 -0.053664
v -0.035828 -0.047943 -0.040032
v -0.035828 -0.017809 -0.053664
v -0.030090 -0.024990 -0.073034
v -0.030090 -0.049376 -0.073751
v -0.035828 -0.057272 -0.061549
v -0.030090 -0.017809 -0.053664
v -0.035828 -0.021401 -0.069443
v -0.035828 -0.027142 -0.040032
v -0.030090 -0.047943 -0.040032
v -0.030090 -0.032163 -0.076623
v -0.035828 -0.053683 -0.045054
v -0.030090 -0.022120 -0.044333
v -0.035828 -0.030012 -0.075898
v -0.030090 -0.018531 -0.063704
v -0.030090 -0.055835 -0.065854
v -0.035828 -0.053683 -0.069443
v -0.035828 -0.042921 -0.037874
v -0.029371 -0.040051 -0.062270
v -0.030090 -0.053683 -0.045054
v -0.030090 -0.042921 -0.076623
v -0.035828 -0.020683 -0.046491
v -0.035828 -0.056553 -0.050793
v -0.035828 -0.017809 -0.060112
v -0.030090 -0.042921 -0.037874
v -0.035828 -0.032163 -0.037874
v -0.029371 -0.042921 -0.055818
v -0.029371 -0.032882 -0.060112
v -0.035828 -0.049376 -0.073751
v -0.030090 -0.057272 -0.061549
v -0.030090 -0.027142 -0.040032
f 68 64 86 
f 53 57 58 
f 57 53 61 
f 53 58 63 
f 58 57 64 
f 57 61 67 
f 65 57 67 
f 55 62 68 
f 63 59 69 
f 53 63 69 
f 59 66 69 
f 66 53 69 
f 59 63 70 
f 71 61 72 
f 61 53 72 
f 60 71 72 
f 64 57 73 
f 57 65 73 
f 71 60 74 
f 65 67 75 
f 60 53 76 
f 53 66 76 
f 66 74 76 
f 74 60 76 
f 62 58 77 
f 58 64 77 
f 68 62 77 
f 64 68 77 
f 61 56 78 
f 67 61 78 
f 56 75 78 
f 75 67 78 
f 58 62 79 
f 63 58 79 
f 62 70 79 
f 70 63 79 
f 55 54 80 
f 65 55 80 
f 54 73 80 
f 73 65 80 
f 54 64 81 
f 73 54 81 
f 64 73 81 
f 55 65 82 
f 74 55 82 
f 71 74 82 
f 65 75 82 
f 75 56 82 
f 62 55 83 
f 66 59 83 
f 59 70 83 
f 70 62 83 
f 55 74 83 
f 74 66 83 
f 53 60 84 
f 72 53 84 
f 60 72 84 
f 56 61 85 
f 61 71 85 
f 82 56 85 
f 71 82 85 
f 54 55 86 
f 64 54 86 
f 55 68 86 
o convex_2
v -0.035828 -0.017809 0.007335
v -0.035828 -0.057272 0.010927
v -0.030090 -0.057272 0.010927
v -0.030090 -0.032882 0.031731
v -0.030090 -0.031449 -0.007017
v -0.035828 -0.044354 0.031012
v -0.035828 -0.042921 -0.007017
v -0.030090 -0.017809 0.016660
v -0.035828 -0.024990 0.028142
v -0.030090 -0.051531 0.026705
v -0.030090 -0.050095 -0.003428
v -0.029371 -0.042203 0.015219
v -0.035828 -0.026423 -0.004865
v -0.030090 -0.019968 0.001594
v -0.035828 -0.055116 0.021679
v -0.035828 -0.054402 0.001594
v -0.030090 -0.024990 0.028142
v -0.035828 -0.019250 0.020964
v -0.029371 -0.032882 0.008776
v -0.030090 -0.044354 0.031012
v -0.030090 -0.039333 -0.007736
v -0.035828 -0.032882 0.031731
v -0.030090 -0.056553 0.018090
v -0.035828 -0.035752 -0.007736
v -0.030090 -0.055835 0.004464
v -0.035828 -0.019968 0.001594
v -0.030090 -0.023553 -0.002710
v -0.030090 -0.017809 0.007335
v -0.030090 -0.021401 0.024553
v -0.029371 -0.035033 0.017375
v -0.035828 -0.051531 0.026705
v -0.035828 -0.050095 -0.003428
v -0.029371 -0.040051 0.007335
v -0.035828 -0.017809 0.016660
v -0.030090 -0.041484 0.031731
v -0.030090 -0.045073 -0.006299
f 119 97 122 
f 87 88 92 
f 88 87 93 
f 87 92 95 
f 93 87 99 
f 92 88 101 
f 88 93 102 
f 95 90 103 
f 87 95 104 
f 92 96 106 
f 96 98 106 
f 95 92 108 
f 90 95 108 
f 88 89 109 
f 89 98 109 
f 98 96 109 
f 101 88 109 
f 96 101 109 
f 99 91 110 
f 93 99 110 
f 91 107 110 
f 107 93 110 
f 89 88 111 
f 98 89 111 
f 88 102 111 
f 102 97 111 
f 99 87 112 
f 87 100 112 
f 112 100 113 
f 91 99 113 
f 105 91 113 
f 100 105 113 
f 99 112 113 
f 87 94 114 
f 100 87 114 
f 94 105 114 
f 105 100 114 
f 95 103 115 
f 94 104 115 
f 104 95 115 
f 103 90 116 
f 98 105 116 
f 105 94 116 
f 106 98 116 
f 115 103 116 
f 94 115 116 
f 96 92 117 
f 92 101 117 
f 101 96 117 
f 102 93 118 
f 97 102 118 
f 91 105 119 
f 105 98 119 
f 107 91 119 
f 98 111 119 
f 111 97 119 
f 94 87 120 
f 87 104 120 
f 104 94 120 
f 92 106 121 
f 90 108 121 
f 108 92 121 
f 116 90 121 
f 106 116 121 
f 93 107 122 
f 118 93 122 
f 97 118 122 
f 107 119 122 
o convex_3
v -0.023628 0.010171 -0.080210
v 0.025881 0.003001 -0.001995
v 0.025163 0.006584 -0.001995
v -0.025064 -0.010630 -0.001995
v 0.021573 -0.017091 -0.080210
v 0.011529 0.023806 -0.067287
v -0.008558 0.023086 -0.001995
v -0.021474 -0.017091 -0.080210
v 0.021573 -0.017091 -0.001995
v 0.025163 0.006584 -0.080210
v -0.008558 0.023086 -0.080210
v -0.020756 0.014478 -0.001995
v -0.021474 -0.017091 -0.001995
v 0.012247 0.021652 -0.001995
v 0.025881 -0.007760 -0.080210
v -0.025782 0.003714 -0.080210
v -0.011430 0.023806 -0.067287
v -0.025782 0.003714 -0.001995
v 0.020136 0.015195 -0.080210
v -0.025782 -0.007039 -0.080210
v 0.020136 0.015195 -0.001995
v 0.025881 -0.007760 -0.001995
v 0.005784 0.023806 -0.001995
v 0.005784 0.023806 -0.080210
v -0.020756 0.014478 -0.080210
v 0.023727 -0.014217 -0.080210
v -0.014298 0.020215 -0.001995
v -0.023628 0.010171 -0.001995
v -0.025064 -0.010630 -0.080210
v 0.022291 0.012325 -0.080210
v 0.025881 0.003001 -0.080210
v -0.025782 -0.007039 -0.001995
v 0.023727 -0.014217 -0.001995
v -0.004972 0.023806 -0.001995
v 0.016551 0.018782 -0.001995
v 0.022291 0.012325 -0.001995
v -0.022192 -0.016371 -0.080210
v 0.012247 0.021652 -0.080210
v -0.014298 0.020215 -0.080210
v -0.011430 0.023806 -0.060105
v -0.022192 -0.016371 -0.001995
v -0.017170 0.018065 -0.001995
v 0.011529 0.023806 -0.060105
v -0.004972 0.023806 -0.080210
v 0.022291 -0.016371 -0.001995
v 0.016551 0.018782 -0.080210
f 141 160 168 
f 124 125 126 
f 126 125 129 
f 123 127 130 
f 130 127 131 
f 124 126 131 
f 125 124 132 
f 127 123 132 
f 132 123 133 
f 126 129 134 
f 130 131 135 
f 131 126 135 
f 129 125 136 
f 127 132 137 
f 123 130 138 
f 126 134 140 
f 123 138 140 
f 132 133 141 
f 138 130 142 
f 140 138 142 
f 136 125 143 
f 141 128 143 
f 124 131 144 
f 137 124 144 
f 129 136 145 
f 128 139 145 
f 139 128 146 
f 141 133 146 
f 133 123 147 
f 123 134 147 
f 127 137 148 
f 137 144 148 
f 134 129 149 
f 134 123 150 
f 123 140 150 
f 140 134 150 
f 126 142 151 
f 142 130 151 
f 125 132 152 
f 132 141 152 
f 141 143 152 
f 132 124 153 
f 124 137 153 
f 137 132 153 
f 126 140 154 
f 142 126 154 
f 140 142 154 
f 144 131 155 
f 148 144 155 
f 129 145 156 
f 145 139 156 
f 136 143 157 
f 143 125 158 
f 125 152 158 
f 152 143 158 
f 130 135 159 
f 126 151 159 
f 151 130 159 
f 146 128 160 
f 141 146 160 
f 139 133 161 
f 133 147 161 
f 147 139 161 
f 149 129 162 
f 129 156 162 
f 156 139 162 
f 135 126 163 
f 126 159 163 
f 159 135 163 
f 147 134 164 
f 139 147 164 
f 134 149 164 
f 162 139 164 
f 149 162 164 
f 143 128 165 
f 128 145 165 
f 145 136 165 
f 136 157 165 
f 157 143 165 
f 133 139 166 
f 139 146 166 
f 146 133 166 
f 131 127 167 
f 127 148 167 
f 155 131 167 
f 148 155 167 
f 128 141 168 
f 160 128 168 
o convex_4
v 0.003637 0.046770 -0.052225
v -0.003538 0.023812 -0.075185
v -0.006408 0.023812 -0.073749
v -0.003538 0.046770 -0.075185
v 0.011531 0.023812 -0.067292
v -0.008561 0.023812 -0.055097
v -0.011432 0.046770 -0.060120
v 0.008660 0.046770 -0.072313
v 0.009377 0.023812 -0.055817
v 0.011531 0.046770 -0.060120
v -0.011432 0.023812 -0.067292
v 0.005790 0.023812 -0.074466
v -0.010713 0.046770 -0.069443
v -0.005691 0.046770 -0.052947
v -0.003538 0.023812 -0.052225
v 0.003637 0.046770 -0.075185
v 0.003637 0.023812 -0.052225
v -0.011432 0.023812 -0.060120
v 0.011531 0.046770 -0.067292
v 0.008660 0.046770 -0.055097
v 0.011531 0.023812 -0.060120
v -0.009279 0.046770 -0.071596
v -0.009279 0.023812 -0.071596
v -0.008561 0.046770 -0.055097
v 0.008660 0.023812 -0.072313
v -0.003538 0.046770 -0.052225
v 0.003637 0.023812 -0.075185
v -0.011432 0.046770 -0.067292
v 0.010811 0.046770 -0.057967
v 0.006507 0.023812 -0.053664
f 177 188 198 
f 170 171 172 
f 171 170 173 
f 171 173 174 
f 169 172 175 
f 172 169 176 
f 174 173 177 
f 176 169 178 
f 171 174 179 
f 173 170 180 
f 175 172 181 
f 169 175 182 
f 174 177 183 
f 182 174 183 
f 170 172 184 
f 172 176 184 
f 176 180 184 
f 169 183 185 
f 183 177 185 
f 174 175 186 
f 179 174 186 
f 175 179 186 
f 173 176 187 
f 176 178 187 
f 178 173 187 
f 178 169 188 
f 177 173 189 
f 173 178 189 
f 172 171 190 
f 181 172 190 
f 181 190 191 
f 171 179 191 
f 179 181 191 
f 190 171 191 
f 175 174 192 
f 174 182 192 
f 182 175 192 
f 176 173 193 
f 173 180 193 
f 180 176 193 
f 169 182 194 
f 183 169 194 
f 182 183 194 
f 180 170 195 
f 170 184 195 
f 184 180 195 
f 179 175 196 
f 175 181 196 
f 181 179 196 
f 178 188 197 
f 188 177 197 
f 177 189 197 
f 189 178 197 
f 169 185 198 
f 185 177 198 
f 188 169 198 
o convex_5
v -0.029365 -0.040051 -0.062259
v 0.029464 -0.035034 0.018802
v 0.029464 -0.040051 0.018802
v 0.026596 -0.027137 -0.080197
v -0.025777 -0.027137 0.037453
v -0.020040 -0.047943 0.043212
v 0.026596 -0.047943 -0.080197
v -0.025777 -0.027137 -0.080922
v -0.020040 -0.047943 -0.086669
v 0.020139 -0.027137 0.043212
v 0.026596 -0.047943 0.036741
v -0.025777 -0.047943 0.037453
v 0.020139 -0.027137 -0.086669
v -0.029365 -0.032162 0.014505
v 0.026596 -0.027137 0.036741
v -0.025777 -0.047943 -0.080922
v 0.029464 -0.042922 -0.055800
v 0.020139 -0.047943 -0.086669
v 0.020139 -0.047943 0.043212
v -0.020040 -0.027137 0.043212
v -0.020040 -0.027137 -0.086669
v -0.029365 -0.042203 0.015217
v 0.029464 -0.032162 -0.055800
v -0.029365 -0.032162 -0.058674
v -0.029365 -0.042922 -0.058674
v 0.029464 -0.032162 0.015217
v 0.029464 -0.042922 0.015217
v 0.029464 -0.039334 -0.059386
v -0.029365 -0.035034 0.017365
f 212 220 227 
f 203 202 206 
f 205 204 207 
f 202 203 208 
f 201 200 209 
f 204 205 209 
f 204 203 210 
f 207 204 210 
f 202 205 211 
f 206 202 211 
f 203 206 212 
f 202 208 213 
f 208 209 213 
f 209 200 213 
f 199 206 214 
f 206 207 214 
f 207 210 214 
f 200 201 215 
f 209 205 215 
f 205 207 216 
f 211 205 216 
f 207 211 216 
f 208 204 217 
f 204 209 217 
f 209 208 217 
f 203 204 218 
f 208 203 218 
f 204 208 218 
f 207 206 219 
f 206 211 219 
f 211 207 219 
f 212 199 220 
f 202 213 221 
f 200 215 221 
f 206 199 222 
f 199 212 222 
f 212 206 222 
f 199 214 223 
f 214 210 223 
f 210 220 223 
f 220 199 223 
f 213 200 224 
f 200 221 224 
f 221 213 224 
f 201 209 225 
f 215 201 225 
f 209 215 225 
f 205 202 226 
f 215 205 226 
f 202 221 226 
f 221 215 226 
f 210 203 227 
f 203 212 227 
f 220 210 227 
o convex_6
v -0.007842 -0.027137 0.029572
v 0.020859 -0.017091 -0.001996
v 0.011530 -0.017091 0.023830
v -0.020760 -0.017091 -0.080210
v 0.008658 -0.027137 -0.080210
v 0.020859 -0.017091 -0.080210
v 0.011530 -0.027137 0.023830
v -0.020760 -0.017091 -0.001996
v -0.012148 -0.025701 -0.080210
v -0.003536 -0.017091 0.031731
v -0.011431 -0.027137 0.023830
v 0.016553 -0.022831 -0.080210
v -0.007842 -0.027137 -0.080210
v -0.020760 -0.018528 -0.080210
v 0.020859 -0.018527 -0.001996
v 0.003634 -0.027137 0.031731
v -0.009276 -0.017091 0.028137
v -0.020760 -0.018528 -0.001996
v -0.016454 -0.022830 -0.080210
v 0.007941 -0.017091 0.029572
v 0.020859 -0.018527 -0.080210
v 0.016553 -0.022831 -0.001996
v -0.016454 -0.022830 -0.001996
v 0.014398 -0.024267 -0.080210
v 0.009375 -0.027137 0.028137
v -0.011431 -0.017091 0.023830
v 0.003634 -0.017091 0.031731
v -0.003536 -0.027137 0.031731
v 0.011530 -0.027137 0.016653
v -0.011431 -0.027137 0.016653
f 238 246 257 
f 230 229 231 
f 231 229 233 
f 232 231 233 
f 229 230 234 
f 228 232 234 
f 230 231 235 
f 231 232 236 
f 230 235 237 
f 232 228 238 
f 232 233 239 
f 236 232 240 
f 232 238 240 
f 235 231 241 
f 231 236 241 
f 233 229 242 
f 229 234 242 
f 228 234 243 
f 228 237 244 
f 237 235 244 
f 238 228 244 
f 238 235 245 
f 235 241 245 
f 245 241 246 
f 241 236 246 
f 230 237 247 
f 239 233 248 
f 233 242 248 
f 242 239 248 
f 234 239 249 
f 242 234 249 
f 239 242 249 
f 238 245 250 
f 245 246 250 
f 246 238 250 
f 232 239 251 
f 234 230 252 
f 243 234 252 
f 230 247 252 
f 247 243 252 
f 235 238 253 
f 244 235 253 
f 238 244 253 
f 237 243 254 
f 247 237 254 
f 243 247 254 
f 237 228 255 
f 228 243 255 
f 243 237 255 
f 234 232 256 
f 239 234 256 
f 232 251 256 
f 251 239 256 
f 236 240 257 
f 240 238 257 
f 246 236 257 
o convex_7
v 0.035928 -0.045791 -0.072311
v 0.035928 -0.033600 -0.034286
v 0.035928 -0.029293 -0.035727
v 0.029470 -0.039333 -0.048640
v 0.030189 -0.019250 -0.062268
v 0.030189 -0.057272 -0.057243
v 0.035928 -0.019250 -0.062268
v 0.035928 -0.052965 -0.040748
v 0.030189 -0.033600 -0.034286
v 0.030189 -0.034319 -0.073748
v 0.030189 -0.019250 -0.045770
v 0.030189 -0.048661 -0.037160
v 0.035928 -0.056553 -0.060831
v 0.030189 -0.050813 -0.069441
v 0.035928 -0.026423 -0.070878
v 0.035928 -0.017809 -0.050796
v 0.030189 -0.057272 -0.050077
v 0.035928 -0.044354 -0.035008
v 0.035928 -0.057272 -0.050077
v 0.029470 -0.035752 -0.059398
v 0.030189 -0.026423 -0.070878
v 0.035928 -0.020683 -0.042900
v 0.030189 -0.025709 -0.037878
v 0.035928 -0.034319 -0.073748
v 0.030189 -0.041484 -0.073748
v 0.030189 -0.017809 -0.057961
v 0.030189 -0.054402 -0.042900
v 0.030189 -0.040766 -0.034286
v 0.035928 -0.050813 -0.069441
v 0.030189 -0.054402 -0.065138
v 0.029470 -0.042921 -0.055809
v 0.029470 -0.032163 -0.052229
v 0.030189 -0.021401 -0.065853
v 0.030189 -0.017809 -0.050796
f 283 289 291 
f 260 259 258 
f 260 258 264 
f 258 259 265 
f 259 260 266 
f 258 265 270 
f 264 258 272 
f 260 264 273 
f 265 259 275 
f 269 265 275 
f 263 270 276 
f 270 265 276 
f 274 263 276 
f 272 267 278 
f 267 277 278 
f 260 273 279 
f 273 268 279 
f 266 260 280 
f 261 266 280 
f 260 279 280 
f 279 268 280 
f 272 258 281 
f 267 272 281 
f 258 271 282 
f 277 267 282 
f 271 277 282 
f 281 258 282 
f 267 281 282 
f 264 262 283 
f 273 264 283 
f 269 261 284 
f 265 269 284 
f 276 265 284 
f 274 276 284 
f 259 266 285 
f 266 261 285 
f 261 269 285 
f 275 259 285 
f 269 275 285 
f 258 270 286 
f 271 258 286 
f 271 286 287 
f 270 263 287 
f 286 270 287 
f 263 274 288 
f 261 277 288 
f 277 271 288 
f 284 261 288 
f 274 284 288 
f 271 287 288 
f 287 263 288 
f 277 261 289 
f 262 277 289 
f 261 280 289 
f 280 268 289 
f 283 262 289 
f 262 264 290 
f 264 272 290 
f 277 262 290 
f 272 278 290 
f 278 277 290 
f 268 273 291 
f 273 283 291 
f 289 268 291 
o convex_8
v 0.035928 -0.045073 -0.004862
v 0.035928 -0.032882 0.033166
v 0.035928 -0.030012 0.032441
v 0.029470 -0.040051 0.018813
v 0.030189 -0.018531 0.007336
v 0.030189 -0.057272 0.010211
v 0.035928 -0.018531 0.007336
v 0.035928 -0.053683 0.025986
v 0.030189 -0.042203 0.033166
v 0.030189 -0.032882 -0.005583
v 0.030189 -0.021401 0.025986
v 0.035928 -0.056553 0.007336
v 0.030189 -0.049376 -0.002712
v 0.035928 -0.027142 -0.003425
v 0.035928 -0.018531 0.020247
v 0.030189 -0.055835 0.022398
v 0.030189 -0.030012 0.032441
v 0.035928 -0.045073 0.032441
v 0.030189 -0.021401 0.001597
v 0.035928 -0.057272 0.017376
v 0.030189 -0.050095 0.029578
v 0.030189 -0.017809 0.017376
v 0.029470 -0.035033 0.008770
v 0.035928 -0.053683 0.001597
v 0.035928 -0.024990 0.029578
v 0.030189 -0.055835 0.005185
v 0.035928 -0.032882 -0.005583
v 0.030189 -0.042203 -0.005583
v 0.029470 -0.032163 0.015221
v 0.029470 -0.042921 0.012362
v 0.035928 -0.021401 0.001597
v 0.030189 -0.024990 -0.001995
v 0.035928 -0.017809 0.010211
v 0.030189 -0.057272 0.017376
f 321 297 325 
f 294 293 292 
f 294 292 298 
f 292 293 299 
f 292 299 303 
f 298 292 305 
f 294 298 306 
f 293 294 308 
f 300 293 308 
f 295 300 308 
f 299 293 309 
f 293 300 309 
f 296 298 310 
f 297 303 311 
f 303 299 311 
f 299 307 311 
f 300 295 312 
f 295 307 312 
f 307 299 312 
f 299 309 312 
f 309 300 312 
f 302 306 313 
f 296 310 314 
f 292 303 315 
f 304 292 315 
f 294 306 316 
f 306 302 316 
f 308 294 316 
f 302 308 316 
f 303 297 317 
f 315 303 317 
f 304 315 317 
f 305 292 318 
f 301 305 318 
f 292 304 319 
f 304 314 319 
f 314 301 319 
f 318 292 319 
f 301 318 319 
f 295 308 320 
f 308 302 320 
f 313 296 320 
f 302 313 320 
f 314 295 320 
f 296 314 320 
f 307 295 321 
f 295 314 321 
f 314 304 321 
f 317 297 321 
f 304 317 321 
f 298 305 322 
f 310 298 322 
f 310 322 323 
f 305 301 323 
f 301 314 323 
f 314 310 323 
f 322 305 323 
f 298 296 324 
f 306 298 324 
f 296 313 324 
f 313 306 324 
f 297 311 325 
f 311 307 325 
f 307 321 325 
