o convex_0
v -0.002262 -0.059098 -0.006164
v 0.018477 -0.062372 -0.007258
v 0.018473 -0.062372 -0.006709
v -0.000626 -0.063464 0.006932
v -0.001718 -0.059644 0.002564
v -0.002262 -0.062372 -0.002345
v 0.016839 -0.062372 -0.013263
v 0.009741 -0.064011 0.005295
v 0.012472 -0.060190 -0.009987
v 0.017383 -0.063464 -0.008897
v 0.012470 -0.062372 0.002019
v -0.001718 -0.061827 0.008569
v 0.004288 -0.064011 0.004203
v 0.004832 -0.059098 -0.008897
f 9 7 14 
f 6 1 7 
f 3 2 9 
f 2 7 9 
f 2 3 10 
f 7 2 10 
f 6 7 10 
f 3 8 10 
f 8 3 11 
f 3 9 11 
f 9 5 11 
f 5 1 12 
f 1 6 12 
f 6 4 12 
f 4 8 12 
f 8 11 12 
f 11 5 12 
f 4 6 13 
f 8 4 13 
f 6 10 13 
f 10 8 13 
f 1 5 14 
f 7 1 14 
f 5 9 14 
o convex_1
v 0.001555 0.015691 -0.033460
v 0.008651 0.046804 -0.015992
v 0.010289 0.046804 -0.018176
v 0.002648 0.046804 -0.036734
v -0.003358 0.015142 -0.015992
v 0.007012 0.015142 -0.015992
v -0.000627 0.046804 -0.018725
v 0.007559 0.045164 -0.034006
v -0.001174 0.026606 -0.027452
v -0.002265 0.038067 -0.015992
v 0.005376 0.015142 -0.026366
v 0.001012 0.045707 -0.033460
v -0.000082 0.015142 -0.031274
v 0.010289 0.046255 -0.020906
v 0.006467 0.046804 -0.036188
v 0.003193 0.015142 -0.032366
v 0.007559 0.025515 -0.023092
v 0.000464 0.046804 -0.015992
v 0.008651 0.026606 -0.015992
v 0.004828 0.046255 -0.037282
v -0.002265 0.016782 -0.023636
v -0.002265 0.038067 -0.017084
f 23 35 36 
f 16 17 18 
f 16 19 20 
f 16 18 21 
f 19 16 24 
f 20 19 25 
f 21 18 26 
f 18 15 27 
f 25 19 27 
f 26 18 27 
f 23 26 27 
f 18 17 29 
f 17 28 29 
f 28 22 29 
f 22 25 30 
f 27 15 30 
f 25 27 30 
f 29 22 30 
f 20 25 31 
f 25 22 31 
f 22 28 31 
f 16 21 32 
f 24 16 32 
f 21 24 32 
f 17 16 33 
f 16 20 33 
f 28 17 33 
f 20 31 33 
f 31 28 33 
f 15 18 34 
f 18 29 34 
f 30 15 34 
f 29 30 34 
f 27 19 35 
f 23 27 35 
f 19 24 36 
f 24 21 36 
f 21 26 36 
f 26 23 36 
f 35 19 36 
o convex_2
v 0.008651 0.093202 0.032584
v 0.003739 0.051717 -0.015988
v 0.005923 0.051717 -0.015988
v 0.006469 0.051717 0.017849
v 0.008651 0.077371 -0.013800
v 0.010835 0.094293 0.028763
v 0.005923 0.075732 -0.015988
v 0.005923 0.069734 0.030946
v 0.008105 0.094840 0.025491
v 0.008651 0.073011 0.033678
v 0.004285 0.051717 0.017304
v 0.007015 0.054994 -0.002341
v 0.004285 0.056089 0.011845
v 0.008105 0.070282 -0.015988
v 0.007015 0.083921 0.030401
v 0.007015 0.054451 0.018938
v 0.009743 0.095931 0.026580
v 0.006469 0.077371 -0.015988
v 0.003739 0.053360 -0.015438
v 0.006469 0.070277 0.032584
v 0.007015 0.086103 0.011300
v 0.010289 0.094840 0.032584
v 0.006469 0.051717 -0.011073
v 0.008105 0.077371 -0.015988
v 0.010835 0.095384 0.027674
v 0.007015 0.081192 0.033129
v 0.008651 0.096479 0.030946
f 51 62 63 
f 38 39 40 
f 39 38 43 
f 38 40 47 
f 47 44 49 
f 41 42 50 
f 39 43 50 
f 42 48 50 
f 49 44 51 
f 42 46 52 
f 46 40 52 
f 48 42 52 
f 45 53 54 
f 43 45 54 
f 50 43 54 
f 43 38 55 
f 38 47 55 
f 47 49 55 
f 49 51 55 
f 40 46 56 
f 47 40 56 
f 44 47 56 
f 45 43 57 
f 51 45 57 
f 43 55 57 
f 55 51 57 
f 37 46 58 
f 46 42 58 
f 40 39 59 
f 39 50 59 
f 50 48 59 
f 52 40 59 
f 48 52 59 
f 41 50 60 
f 54 53 60 
f 50 54 60 
f 42 41 61 
f 58 42 61 
f 41 60 61 
f 60 53 61 
f 46 37 62 
f 51 44 62 
f 56 46 62 
f 44 56 62 
f 45 51 63 
f 53 45 63 
f 37 58 63 
f 58 61 63 
f 61 53 63 
f 62 37 63 
o convex_3
v -0.000082 0.009139 -0.031822
v 0.011927 0.009139 -0.007258
v 0.011927 0.008592 -0.007258
v -0.004996 0.004225 -0.007258
v -0.003902 0.015142 -0.007258
v 0.003736 0.015142 -0.030730
v 0.001556 0.004225 -0.031822
v 0.008104 0.015142 -0.007258
v 0.007012 0.004225 -0.007258
v -0.004996 0.004225 -0.022540
v -0.001172 0.015142 -0.027998
v 0.006467 0.004225 -0.021993
v -0.004449 0.014596 -0.007806
v 0.001011 0.015142 -0.032915
v 0.006467 0.015142 -0.020903
v -0.003357 0.015142 -0.017085
f 73 76 79 
f 66 65 67 
f 67 65 68 
f 65 66 69 
f 68 65 71 
f 69 68 71 
f 66 67 72 
f 67 70 72 
f 70 67 73 
f 64 70 73 
f 68 69 74 
f 69 66 75 
f 70 69 75 
f 66 72 75 
f 72 70 75 
f 67 68 76 
f 73 67 76 
f 69 70 77 
f 70 64 77 
f 64 73 77 
f 74 69 77 
f 73 74 77 
f 65 69 78 
f 71 65 78 
f 69 71 78 
f 68 74 79 
f 74 73 79 
f 76 68 79 
o convex_4
v 0.074153 -0.015971 0.023853
v 0.019023 0.006954 -0.005621
v 0.019023 0.008046 -0.005621
v 0.019023 -0.017611 0.022763
v 0.029401 -0.017611 0.015119
v 0.076882 -0.005601 0.006937
v 0.021208 0.007498 -0.000160
v 0.079611 -0.017611 0.019486
v 0.077433 -0.005054 0.011301
v 0.019023 -0.000146 0.009118
v 0.019023 -0.017611 0.015119
v 0.061053 -0.002326 0.010755
v 0.020119 -0.014333 0.021123
v 0.080162 -0.017611 0.023853
v 0.065416 -0.003421 0.004210
v 0.046870 -0.007238 0.016212
v 0.019574 0.005859 -0.005074
v 0.078522 -0.009423 0.017305
v 0.069240 -0.002874 0.005300
v 0.056140 -0.017061 0.024403
v 0.062142 -0.001236 0.008574
v 0.022847 -0.003966 0.012935
v 0.078522 -0.005601 0.009121
v 0.020663 0.008046 -0.001797
v 0.057235 -0.015426 0.023310
v 0.035948 -0.000691 0.009661
v 0.071969 -0.009421 0.017849
v 0.077978 -0.007783 0.009121
f 102 87 107 
f 82 81 83 
f 83 84 87 
f 82 83 89 
f 83 81 90 
f 84 83 90 
f 89 83 92 
f 83 87 93 
f 81 82 94 
f 85 84 94 
f 90 81 96 
f 84 90 96 
f 81 94 96 
f 94 84 96 
f 88 91 97 
f 80 93 97 
f 94 82 98 
f 85 94 98 
f 92 83 99 
f 93 80 99 
f 83 93 99 
f 86 91 100 
f 91 88 100 
f 88 98 100 
f 89 92 101 
f 95 89 101 
f 93 87 102 
f 88 97 102 
f 97 93 102 
f 85 98 102 
f 98 88 102 
f 82 89 103 
f 89 86 103 
f 98 82 103 
f 86 100 103 
f 100 98 103 
f 80 95 104 
f 92 99 104 
f 99 80 104 
f 101 92 104 
f 95 101 104 
f 86 89 105 
f 91 86 105 
f 95 91 105 
f 89 95 105 
f 95 80 106 
f 91 95 106 
f 97 91 106 
f 80 97 106 
f 84 85 107 
f 87 84 107 
f 85 102 107 
o convex_5
v 0.010292 0.046804 -0.017633
v 0.038671 0.075736 -0.029638
v 0.039218 0.075189 -0.029091
v 0.010292 0.074640 -0.024182
v 0.013568 0.073546 -0.032913
v 0.041404 0.059361 -0.028547
v 0.010292 0.048446 -0.023637
v 0.042494 0.060998 -0.024182
v 0.011385 0.050080 -0.016538
v 0.040308 0.071909 -0.032366
v 0.010292 0.075189 -0.030730
v 0.037035 0.074640 -0.027453
v 0.022300 0.073546 -0.033459
v 0.043041 0.058814 -0.027455
v 0.031029 0.075736 -0.032913
v 0.043587 0.059907 -0.024727
v 0.013022 0.047900 -0.023091
v 0.010292 0.075736 -0.025817
v 0.041948 0.073003 -0.029093
v 0.011385 0.047350 -0.016538
v 0.044134 0.061541 -0.028547
v 0.015205 0.047900 -0.019816
v 0.010292 0.049537 -0.024182
v 0.025573 0.054997 -0.019816
v 0.012475 0.070822 -0.023091
v 0.010292 0.072459 -0.031274
v 0.031029 0.073546 -0.033459
v 0.038671 0.075736 -0.031821
v 0.041404 0.070822 -0.026910
f 131 115 136 
f 108 111 114 
f 111 108 116 
f 114 111 118 
f 110 109 119 
f 112 118 122 
f 120 112 122 
f 108 114 124 
f 114 113 124 
f 113 121 124 
f 118 111 125 
f 119 109 125 
f 111 119 125 
f 109 122 125 
f 122 118 125 
f 109 110 126 
f 116 108 127 
f 123 115 127 
f 113 117 128 
f 121 113 128 
f 123 121 128 
f 117 126 128 
f 126 123 128 
f 121 123 129 
f 108 124 129 
f 124 121 129 
f 127 108 129 
f 123 127 129 
f 113 114 130 
f 114 118 130 
f 112 120 130 
f 120 113 130 
f 116 127 131 
f 127 115 131 
f 111 116 132 
f 119 111 132 
f 116 131 132 
f 131 119 132 
f 118 112 133 
f 112 130 133 
f 130 118 133 
f 117 113 134 
f 113 120 134 
f 120 122 134 
f 134 122 135 
f 122 109 135 
f 109 126 135 
f 126 117 135 
f 117 134 135 
f 110 119 136 
f 115 123 136 
f 126 110 136 
f 123 126 136 
f 119 131 136 
o convex_6
v 0.003738 0.015690 0.012393
v -0.003356 0.015142 -0.015992
v -0.003356 0.017873 -0.015992
v 0.009197 0.030427 -0.014353
v -0.002812 0.030427 -0.007256
v 0.007012 0.015142 -0.015992
v -0.004995 0.015142 0.006386
v 0.003738 0.030427 -0.000711
v 0.008651 0.015142 0.004746
v -0.002265 0.030427 -0.015992
v -0.000082 0.015690 0.012939
v 0.008105 0.030427 -0.006165
v -0.005541 0.016781 0.000379
v 0.009197 0.015142 -0.000711
v 0.008651 0.030427 -0.015992
v -0.003356 0.030427 -0.012716
v -0.001174 0.030427 -0.003982
v 0.009197 0.030427 -0.009439
v 0.008105 0.020057 -0.015446
v -0.004449 0.017328 0.005839
f 147 153 156 
f 138 139 142 
f 138 142 143 
f 140 141 144 
f 143 142 145 
f 141 140 146 
f 142 139 146 
f 137 144 147 
f 145 137 147 
f 143 145 147 
f 144 137 148 
f 140 144 148 
f 137 145 148 
f 139 138 149 
f 138 143 149 
f 145 142 150 
f 146 140 151 
f 142 146 151 
f 141 146 152 
f 146 139 152 
f 139 149 152 
f 149 141 152 
f 144 141 153 
f 147 144 153 
f 140 148 154 
f 148 145 154 
f 150 140 154 
f 145 150 154 
f 140 150 155 
f 150 142 155 
f 151 140 155 
f 142 151 155 
f 143 147 156 
f 149 143 156 
f 141 149 156 
f 153 141 156 
o convex_7
v -0.003902 -0.041629 -0.022540
v 0.002647 -0.036716 -0.007258
v -0.008269 -0.036716 -0.007258
v -0.002812 -0.056368 -0.007258
v -0.008815 -0.052546 -0.013812
v -0.002267 -0.053092 -0.018721
v -0.000629 -0.036716 -0.021450
v -0.006085 -0.036716 -0.019813
v -0.009363 -0.052546 -0.007258
v 0.000463 -0.053092 -0.008351
v -0.006633 -0.053092 -0.019268
v 0.001555 -0.037265 -0.015445
v -0.005540 -0.056368 -0.013266
v -0.001175 -0.052546 -0.017081
v -0.008269 -0.037809 -0.010534
v -0.007177 -0.055820 -0.007258
v -0.004448 -0.053092 -0.020359
v -0.003902 -0.036716 -0.023089
f 167 164 174 
f 158 159 160 
f 159 158 163 
f 159 163 164 
f 160 159 165 
f 158 160 166 
f 161 164 167 
f 163 158 168 
f 158 166 168 
f 162 160 169 
f 161 167 169 
f 160 162 170 
f 162 163 170 
f 166 160 170 
f 163 168 170 
f 168 166 170 
f 164 161 171 
f 159 164 171 
f 165 159 171 
f 161 165 171 
f 160 165 172 
f 165 161 172 
f 169 160 172 
f 161 169 172 
f 157 163 173 
f 163 162 173 
f 167 157 173 
f 162 169 173 
f 169 167 173 
f 163 157 174 
f 164 163 174 
f 157 167 174 
o convex_8
v -0.000630 -0.029619 -0.035640
v 0.006468 0.004225 -0.007258
v 0.006468 0.004225 -0.022547
v -0.005540 0.003676 -0.017633
v -0.008269 -0.036716 -0.007265
v 0.002647 -0.036716 -0.007258
v -0.007178 -0.020338 -0.041644
v 0.004284 -0.021973 -0.041097
v 0.000462 0.004225 -0.031820
v -0.004994 0.004225 -0.007265
v 0.005376 -0.024161 -0.033458
v -0.008817 -0.026341 -0.032364
v -0.003903 -0.036716 -0.023094
v -0.008269 -0.023067 -0.007809
v -0.006086 -0.000143 -0.026907
v 0.006468 -0.005602 -0.007258
v 0.003193 -0.033983 -0.021456
v -0.006086 -0.030705 -0.032911
v -0.008817 -0.021973 -0.033458
v 0.004830 -0.024161 -0.007258
v -0.000084 -0.019244 -0.042191
v 0.006468 0.000947 -0.025816
v -0.006086 -0.000688 -0.007265
v 0.001555 -0.030705 -0.034002
v 0.001555 0.004225 -0.031820
v -0.008269 -0.035077 -0.017089
v -0.000084 -0.036716 -0.021456
v -0.007723 -0.012154 -0.018727
v -0.004994 0.004225 -0.023638
v 0.005376 -0.011609 -0.035096
v -0.008817 -0.032348 -0.015998
v 0.003738 -0.020338 -0.041648
v 0.004284 -0.027980 -0.033458
v -0.005540 -0.022522 -0.041097
v -0.005540 -0.019244 -0.042191
v 0.006468 -0.005057 -0.025816
v -0.006086 -0.006696 -0.032911
v 0.003738 -0.032348 -0.011628
f 185 194 212 
f 176 177 183 
f 176 183 184 
f 180 179 187 
f 177 176 190 
f 176 180 190 
f 186 181 192 
f 175 187 192 
f 181 186 193 
f 189 181 193 
f 190 180 194 
f 185 190 194 
f 177 190 196 
f 180 176 197 
f 179 180 197 
f 184 178 197 
f 176 184 197 
f 188 179 197 
f 175 182 198 
f 187 175 198 
f 183 177 199 
f 195 183 199 
f 177 196 199 
f 187 179 200 
f 186 192 200 
f 192 187 200 
f 180 187 201 
f 191 180 201 
f 187 198 201 
f 198 191 201 
f 178 189 202 
f 193 188 202 
f 189 193 202 
f 197 178 202 
f 188 197 202 
f 178 184 203 
f 184 183 203 
f 183 189 203 
f 189 178 203 
f 185 182 204 
f 199 196 204 
f 179 188 205 
f 193 186 205 
f 188 193 205 
f 200 179 205 
f 186 200 205 
f 182 195 206 
f 195 199 206 
f 204 182 206 
f 199 204 206 
f 182 185 207 
f 185 191 207 
f 198 182 207 
f 191 198 207 
f 182 175 208 
f 175 192 208 
f 192 181 208 
f 195 182 208 
f 195 208 209 
f 181 183 209 
f 183 195 209 
f 208 181 209 
f 190 185 210 
f 196 190 210 
f 185 204 210 
f 204 196 210 
f 183 181 211 
f 181 189 211 
f 189 183 211 
f 180 191 212 
f 191 185 212 
f 194 180 212 
o convex_9
v -0.074866 -0.001779 0.021671
v -0.031748 0.009683 -0.002345
v -0.031748 0.010229 -0.002345
v -0.029560 -0.007784 0.020579
v -0.080866 -0.008331 0.020579
v -0.029560 -0.008331 0.012937
v -0.077049 0.008589 0.011847
v -0.029560 0.007499 0.006936
v -0.077049 0.007499 0.006936
v -0.080866 -0.008331 0.025495
v -0.042662 0.001492 0.015120
v -0.029560 0.010775 0.002023
v -0.056850 0.007499 0.011305
v -0.081419 -0.005054 0.024399
v -0.030109 0.009137 -0.002345
v -0.072678 0.009135 0.006391
v -0.069409 -0.005054 0.023854
v -0.031748 -0.008331 0.012937
v -0.035022 -0.008331 0.021671
v -0.075957 0.008045 0.012937
v -0.030657 0.003678 0.011302
v -0.035022 -0.007784 0.021671
v -0.070495 -0.007783 0.025495
v -0.081419 -0.003962 0.018941
v -0.029560 0.010775 -0.002345
v -0.074866 0.007499 0.006391
v -0.080866 -0.007783 0.020033
v -0.055221 0.009683 0.008029
v -0.049216 0.010229 0.005301
f 219 240 241 
f 216 218 220 
f 217 218 222 
f 220 218 224 
f 213 223 225 
f 217 222 226 
f 214 215 227 
f 221 219 228 
f 223 213 229 
f 213 226 229 
f 218 217 230 
f 227 218 230 
f 218 216 231 
f 222 218 231 
f 213 225 232 
f 226 213 232 
f 219 226 232 
f 216 220 233 
f 220 225 233 
f 225 223 233 
f 223 229 234 
f 231 216 234 
f 216 233 234 
f 233 223 234 
f 226 222 235 
f 229 226 235 
f 222 231 235 
f 234 229 235 
f 231 234 235 
f 219 221 236 
f 226 219 236 
f 217 226 236 
f 224 218 237 
f 227 215 237 
f 218 227 237 
f 215 228 237 
f 215 214 238 
f 214 227 238 
f 228 215 238 
f 221 228 238 
f 230 217 239 
f 227 230 239 
f 217 236 239 
f 236 221 239 
f 221 238 239 
f 238 227 239 
f 220 224 240 
f 225 220 240 
f 219 232 240 
f 232 225 240 
f 228 219 241 
f 224 237 241 
f 237 228 241 
f 240 224 241 
o convex_10
v 0.077430 -0.029622 0.027678
v 0.019029 -0.026891 0.018398
v 0.019029 -0.025253 0.018398
v 0.019029 -0.025253 0.025494
v 0.019029 -0.035079 0.022767
v 0.078525 -0.025253 0.023856
v 0.076341 -0.031258 0.023856
v 0.025028 -0.033441 0.018944
v 0.021207 -0.033441 0.025494
v 0.070336 -0.025253 0.028224
v 0.075787 -0.031803 0.027678
v 0.052315 -0.029622 0.027678
v 0.077430 -0.029075 0.023311
v 0.033765 -0.034532 0.021674
v 0.022302 -0.025253 0.018398
v 0.019029 -0.034532 0.019491
v 0.077977 -0.025253 0.028224
v 0.074156 -0.032348 0.024948
v 0.073603 -0.030710 0.028224
v 0.022850 -0.030710 0.026039
v 0.019029 -0.034532 0.024402
f 246 252 262 
f 244 243 245 
f 245 243 246 
f 244 245 247 
f 247 245 251 
f 248 242 252 
f 251 245 253 
f 247 242 254 
f 242 248 254 
f 248 249 254 
f 249 248 255 
f 243 244 256 
f 244 247 256 
f 249 243 256 
f 247 254 256 
f 254 249 256 
f 246 243 257 
f 243 249 257 
f 255 246 257 
f 249 255 257 
f 242 247 258 
f 247 251 258 
f 252 242 258 
f 248 252 259 
f 252 246 259 
f 246 255 259 
f 255 248 259 
f 250 252 260 
f 253 250 260 
f 251 253 260 
f 258 251 260 
f 252 258 260 
f 245 250 261 
f 253 245 261 
f 250 253 261 
f 245 246 262 
f 250 245 262 
f 252 250 262 
o convex_11
v 0.075794 -0.020341 0.026585
v 0.019023 -0.018704 0.015669
v 0.019023 -0.017611 0.015669
v 0.019023 -0.024707 0.025493
v 0.078517 -0.025253 0.023311
v 0.019023 -0.017611 0.022764
v 0.079612 -0.017611 0.020036
v 0.022854 -0.025253 0.018400
v 0.078517 -0.025253 0.027678
v 0.080162 -0.017611 0.024402
v 0.044141 -0.023069 0.027130
v 0.029945 -0.018704 0.015669
v 0.019023 -0.025253 0.025493
v 0.053411 -0.018157 0.024947
v 0.079612 -0.019794 0.020583
v 0.019023 -0.025253 0.018400
v 0.019023 -0.021432 0.024947
v 0.079061 -0.023069 0.027678
v 0.059414 -0.025253 0.027678
v 0.023392 -0.017611 0.023311
f 279 273 282 
f 265 264 266 
f 265 266 268 
f 265 268 269 
f 270 267 271 
f 269 268 272 
f 264 265 274 
f 265 269 274 
f 270 264 274 
f 266 264 275 
f 270 271 275 
f 273 266 275 
f 263 272 276 
f 273 263 276 
f 267 270 277 
f 272 267 277 
f 269 272 277 
f 274 269 277 
f 270 274 277 
f 264 270 278 
f 275 264 278 
f 270 275 278 
f 268 266 279 
f 266 273 279 
f 271 267 280 
f 272 263 280 
f 267 272 280 
f 263 273 280 
f 280 273 281 
f 275 271 281 
f 273 275 281 
f 271 280 281 
f 272 268 282 
f 276 272 282 
f 273 276 282 
f 268 279 282 
o convex_12
v -0.019733 0.081194 -0.028547
v -0.032290 0.066998 -0.025815
v -0.032290 0.066998 -0.024724
v -0.000083 0.046804 -0.022000
v -0.000083 0.051173 -0.015992
v -0.000083 0.074643 -0.032368
v -0.000083 0.072459 -0.023092
v -0.030105 0.068093 -0.022545
v -0.016457 0.077919 -0.032915
v -0.028466 0.065908 -0.027454
v -0.026829 0.079010 -0.026362
v -0.004455 0.050079 -0.016539
v -0.026829 0.079010 -0.030730
v -0.000083 0.076825 -0.026364
v -0.001177 0.050079 -0.023635
v -0.001722 0.077370 -0.031820
v -0.019733 0.079010 -0.025815
v -0.031738 0.065908 -0.026362
v -0.009367 0.072459 -0.023092
v -0.000631 0.046804 -0.018177
v -0.023551 0.081194 -0.030730
v -0.027920 0.063726 -0.023092
v -0.012094 0.057179 -0.018177
v -0.027920 0.074643 -0.030183
v -0.017548 0.080100 -0.026362
v -0.030650 0.066453 -0.022545
f 305 290 308 
f 287 286 288 
f 287 288 289 
f 284 285 293 
f 285 290 293 
f 284 293 295 
f 289 288 296 
f 288 286 297 
f 291 288 297 
f 286 292 297 
f 292 291 297 
f 288 291 298 
f 283 296 298 
f 296 288 298 
f 293 290 299 
f 285 284 300 
f 292 286 300 
f 287 289 301 
f 289 299 301 
f 299 290 301 
f 286 287 302 
f 287 294 302 
f 300 286 302 
f 293 283 303 
f 291 295 303 
f 295 293 303 
f 283 298 303 
f 298 291 303 
f 285 300 304 
f 302 294 304 
f 300 302 304 
f 294 287 305 
f 287 301 305 
f 301 290 305 
f 291 292 306 
f 295 291 306 
f 284 295 306 
f 300 284 306 
f 292 300 306 
f 283 293 307 
f 296 283 307 
f 289 296 307 
f 299 289 307 
f 293 299 307 
f 290 285 308 
f 285 304 308 
f 304 294 308 
f 294 305 308 
o convex_13
v 0.002101 0.030427 -0.002345
v 0.006468 0.051717 0.017306
v 0.004830 0.051717 0.017306
v 0.006468 0.051717 -0.002345
v 0.003739 0.050623 -0.002345
v 0.004284 0.030427 -0.000160
v 0.003739 0.048441 0.012938
v 0.005376 0.037525 -0.002345
v 0.002647 0.030427 0.000384
f 311 315 317 
f 311 310 312 
f 312 309 313 
f 311 312 313 
f 313 309 315 
f 311 313 315 
f 312 310 316 
f 309 312 316 
f 314 309 316 
f 310 314 316 
f 310 311 317 
f 309 314 317 
f 314 310 317 
f 315 309 317 
o convex_14
v -0.036117 -0.008878 0.014032
v -0.029568 -0.008331 0.020035
v -0.029568 -0.020340 0.020035
v -0.069410 -0.008331 0.020035
v -0.029568 -0.008331 0.013486
v -0.031202 -0.020340 0.019489
v -0.069410 -0.008878 0.019489
f 318 323 324 
f 320 319 321 
f 319 320 322 
f 321 319 322 
f 318 322 323 
f 322 320 323 
f 320 321 324 
f 322 318 324 
f 321 322 324 
f 323 320 324 
o convex_15
v -0.074319 -0.019246 0.026040
v -0.029560 -0.008331 0.020582
v -0.029560 -0.008331 0.020036
v -0.029560 -0.029620 0.024402
v -0.037753 -0.026888 0.020036
v -0.080873 -0.008331 0.020582
v -0.045940 -0.014339 0.026586
v -0.080873 -0.008331 0.026040
v -0.079778 -0.018160 0.022220
v -0.029560 -0.026342 0.026586
v -0.029560 -0.029072 0.020036
v -0.029560 -0.012152 0.023856
v -0.080326 -0.015974 0.026586
v -0.073776 -0.008877 0.020036
v -0.048130 -0.017068 0.027132
v -0.029560 -0.020338 0.026586
v -0.067221 -0.008331 0.025494
v -0.041575 -0.027436 0.022766
v -0.079778 -0.017068 0.021674
v -0.031203 -0.028528 0.026040
v -0.079778 -0.009423 0.026586
v -0.070496 -0.019790 0.026586
v -0.035568 -0.008331 0.022220
v -0.079231 -0.018704 0.024402
f 333 342 348 
f 327 326 328 
f 326 327 330 
f 326 330 332 
f 328 326 334 
f 327 328 335 
f 329 327 335 
f 333 329 335 
f 334 326 336 
f 332 330 337 
f 330 333 337 
f 327 329 338 
f 330 327 338 
f 336 331 340 
f 334 336 340 
f 331 339 340 
f 339 334 340 
f 326 332 341 
f 331 336 341 
f 335 328 342 
f 333 335 342 
f 329 333 343 
f 333 330 343 
f 338 329 343 
f 330 338 343 
f 325 328 344 
f 328 334 344 
f 332 337 345 
f 339 331 345 
f 337 339 345 
f 341 332 345 
f 331 341 345 
f 337 325 346 
f 334 339 346 
f 339 337 346 
f 325 344 346 
f 344 334 346 
f 336 326 347 
f 326 341 347 
f 341 336 347 
f 328 325 348 
f 325 337 348 
f 337 333 348 
f 342 328 348 
o convex_16
v -0.027374 -0.058552 0.005839
v -0.009363 -0.058006 0.011301
v -0.009363 -0.058552 0.011301
v -0.009363 -0.060735 -0.005075
v -0.010455 -0.061281 0.005301
v -0.028466 -0.056368 0.016215
v -0.025738 -0.057460 0.004209
v -0.017553 -0.061281 -0.002343
v -0.028466 -0.057460 0.016215
v -0.010455 -0.057460 0.009663
v -0.009363 -0.061827 -0.004529
v -0.009909 -0.060189 -0.004529
v -0.021370 -0.059098 -0.000707
v -0.021914 -0.056368 0.014031
v -0.029014 -0.058006 0.012937
f 357 354 363 
f 350 351 352 
f 351 350 354 
f 349 354 355 
f 353 351 357 
f 351 354 357 
f 352 351 359 
f 351 353 359 
f 356 352 359 
f 353 356 359 
f 350 352 360 
f 358 350 360 
f 355 358 360 
f 349 355 361 
f 352 356 361 
f 356 349 361 
f 360 352 361 
f 355 360 361 
f 354 350 362 
f 355 354 362 
f 350 358 362 
f 358 355 362 
f 354 349 363 
f 349 356 363 
f 356 353 363 
f 353 357 363 
o convex_17
v 0.006468 0.055538 -0.038918
v 0.008104 0.076826 -0.015992
v 0.010289 0.074641 -0.024185
v 0.010289 0.046804 -0.016543
v -0.000083 0.047354 -0.015995
v -0.000083 0.076823 -0.031819
v 0.003194 0.046804 -0.037281
v 0.008104 0.070820 -0.040553
v -0.000083 0.072457 -0.023091
v 0.010289 0.047351 -0.023091
v 0.010289 0.075730 -0.030728
v 0.000464 0.046807 -0.028002
v 0.005376 0.071368 -0.040553
v 0.007558 0.046804 -0.034005
v 0.005923 0.075730 -0.015992
v 0.009196 0.069183 -0.037827
v 0.010289 0.048988 -0.015992
v 0.008104 0.077373 -0.028548
v -0.000083 0.076823 -0.026911
v -0.000083 0.074641 -0.032365
v -0.000083 0.051175 -0.015995
v -0.000083 0.046807 -0.023637
v 0.001556 0.046807 -0.033456
v 0.008651 0.072460 -0.038918
v 0.004831 0.060999 -0.040007
v 0.010289 0.072460 -0.032908
f 387 374 389 
f 369 368 372 
f 366 367 373 
f 365 366 374 
f 366 373 374 
f 370 364 377 
f 367 370 377 
f 364 371 377 
f 373 367 377 
f 377 371 379 
f 373 377 379 
f 366 365 380 
f 367 366 380 
f 368 367 380 
f 365 378 380 
f 378 368 380 
f 365 374 381 
f 369 372 382 
f 378 365 382 
f 372 378 382 
f 365 381 382 
f 381 369 382 
f 368 369 383 
f 369 376 383 
f 372 368 384 
f 368 378 384 
f 378 372 384 
f 367 368 385 
f 370 367 385 
f 375 370 385 
f 368 383 385 
f 383 375 385 
f 370 375 386 
f 375 383 386 
f 383 370 386 
f 376 369 387 
f 371 376 387 
f 379 371 387 
f 369 381 387 
f 381 374 387 
f 364 370 388 
f 371 364 388 
f 376 371 388 
f 370 383 388 
f 383 376 388 
f 374 373 389 
f 373 379 389 
f 379 387 389 
o convex_18
v 0.009197 -0.019252 0.015124
v 0.019023 -0.024705 0.025494
v 0.017931 -0.024705 0.025494
v 0.009744 -0.034529 0.017853
v 0.019023 -0.018159 0.015124
v 0.009197 -0.015429 0.021127
v 0.019023 -0.007785 0.015670
v 0.019023 -0.034529 0.019491
v 0.009197 -0.033439 0.024948
v 0.009197 -0.008332 0.015124
v 0.019023 -0.034529 0.024401
v 0.019023 -0.017069 0.022764
v 0.009197 -0.020887 0.023855
v 0.009197 -0.035625 0.021673
v 0.017931 -0.033984 0.018399
v 0.019023 -0.032346 0.025494
v 0.013020 -0.011060 0.018399
f 401 396 406 
f 393 390 394 
f 391 394 396 
f 394 391 397 
f 395 390 398 
f 394 390 399 
f 390 395 399 
f 396 394 399 
f 397 391 400 
f 392 391 401 
f 391 396 401 
f 398 392 402 
f 395 398 402 
f 392 401 402 
f 401 395 402 
f 390 393 403 
f 393 397 403 
f 398 390 403 
f 397 400 403 
f 400 398 403 
f 393 394 404 
f 397 393 404 
f 394 397 404 
f 391 392 405 
f 392 398 405 
f 400 391 405 
f 398 400 405 
f 399 395 406 
f 396 399 406 
f 395 401 406 
o convex_19
v -0.002811 0.030427 -0.014355
v 0.006467 0.051717 -0.002345
v 0.008651 0.047893 -0.015446
v 0.008651 0.030427 -0.007806
v -0.000627 0.049533 -0.015992
v -0.001172 0.030427 -0.004530
v 0.008651 0.030427 -0.015992
v 0.004830 0.030427 -0.002345
v 0.003738 0.050625 -0.002345
v 0.006467 0.051717 -0.015992
v -0.002811 0.030975 -0.007806
v -0.002265 0.030427 -0.015992
v 0.009197 0.031521 -0.009984
v 0.001556 0.030427 -0.002345
v 0.003193 0.051717 -0.015446
v -0.002811 0.034797 -0.015446
f 411 418 422 
f 407 410 412 
f 410 407 413 
f 410 408 414 
f 412 410 414 
f 414 408 415 
f 408 409 416 
f 409 413 416 
f 413 411 416 
f 407 412 417 
f 412 415 417 
f 415 411 417 
f 413 407 418 
f 411 413 418 
f 409 408 419 
f 408 410 419 
f 413 409 419 
f 410 413 419 
f 412 414 420 
f 415 412 420 
f 414 415 420 
f 415 408 421 
f 411 415 421 
f 408 416 421 
f 416 411 421 
f 407 417 422 
f 417 411 422 
f 418 407 422 
o convex_20
v -0.002811 -0.027988 0.032042
v -0.004449 -0.056360 -0.007254
v -0.007724 -0.055815 -0.006163
v -0.007177 -0.015981 -0.007254
v 0.005376 -0.015981 -0.007258
v -0.011000 -0.015981 0.022761
v 0.005922 -0.035081 0.023307
v 0.005922 -0.015973 0.024948
v -0.007724 -0.052541 0.015118
v 0.001554 -0.053087 0.004209
v -0.009907 -0.051995 -0.005072
v -0.011000 -0.033445 0.024398
v -0.002267 -0.053087 0.015668
v 0.000462 -0.015981 0.032587
v 0.001009 -0.051450 -0.006163
v -0.003357 -0.037805 0.028222
v -0.011000 -0.015981 0.015118
v -0.010454 -0.051995 0.009124
v 0.005922 -0.035081 0.017850
v -0.001176 -0.055815 0.009120
v -0.003357 -0.019255 0.032583
v -0.008269 -0.023619 -0.007254
v -0.007177 -0.055815 0.009669
v 0.004284 -0.028534 -0.007258
v -0.000083 -0.027443 0.032042
v -0.011000 -0.043807 0.012398
v -0.001176 -0.038897 0.027131
v -0.009360 -0.052541 -0.007254
v 0.001009 -0.053087 0.010757
v -0.011000 -0.024165 0.025490
v 0.005922 -0.015973 0.002568
v 0.005922 -0.033990 0.024402
v 0.000462 -0.053087 -0.007258
v -0.004996 -0.041625 0.025490
v -0.003904 -0.031808 0.030950
v -0.001721 -0.056360 -0.001252
v -0.002811 -0.015981 0.032587
v 0.004284 -0.018709 0.028218
v -0.003357 -0.025256 0.032583
v -0.001721 -0.043807 0.023857
v -0.000083 -0.053087 0.013485
v 0.000462 -0.022528 0.032587
v -0.007177 -0.056360 0.003663
v -0.006632 -0.052541 0.016209
f 462 456 466 
f 428 430 439 
f 434 428 439 
f 433 425 440 
f 431 434 440 
f 430 429 441 
f 429 432 441 
f 432 437 441 
f 426 427 444 
f 439 426 444 
f 433 439 444 
f 431 440 445 
f 442 435 445 
f 427 441 446 
f 441 437 446 
f 439 433 448 
f 434 439 448 
f 440 434 448 
f 433 440 448 
f 447 438 449 
f 424 425 450 
f 425 433 450 
f 433 444 450 
f 432 429 451 
f 442 432 451 
f 428 434 452 
f 427 426 453 
f 426 439 453 
f 439 430 453 
f 441 427 453 
f 430 441 453 
f 429 430 454 
f 447 449 454 
f 437 432 455 
f 444 427 455 
f 446 437 455 
f 427 446 455 
f 424 450 455 
f 450 444 455 
f 434 431 456 
f 447 423 457 
f 438 447 457 
f 434 456 457 
f 456 438 457 
f 432 442 458 
f 455 432 458 
f 424 455 458 
f 430 428 459 
f 436 430 459 
f 428 452 459 
f 452 443 459 
f 430 436 460 
f 454 430 460 
f 423 447 461 
f 452 434 461 
f 443 452 461 
f 457 423 461 
f 434 457 461 
f 459 443 461 
f 449 438 462 
f 454 449 462 
f 438 456 462 
f 435 442 463 
f 451 429 463 
f 442 451 463 
f 429 454 463 
f 462 435 463 
f 454 462 463 
f 447 454 464 
f 436 459 464 
f 460 436 464 
f 454 460 464 
f 461 447 464 
f 459 461 464 
f 425 424 465 
f 440 425 465 
f 445 440 465 
f 442 445 465 
f 458 442 465 
f 424 458 465 
f 431 445 466 
f 445 435 466 
f 456 431 466 
f 435 462 466 
o convex_21
v -0.002266 -0.059645 0.003658
v -0.006632 -0.067286 -0.001252
v -0.005542 -0.067286 -0.001252
v -0.006087 -0.059645 -0.006164
v -0.009363 -0.058007 0.010754
v -0.004451 -0.065648 0.007479
v -0.009363 -0.061283 -0.004526
v -0.005542 -0.056368 -0.002343
v -0.002266 -0.060190 -0.005073
v -0.008817 -0.065102 0.004750
v -0.003358 -0.056368 0.005295
v -0.002266 -0.062371 0.008024
v -0.003358 -0.065102 -0.003981
v -0.006087 -0.063463 -0.006711
v -0.007178 -0.066193 0.006933
v -0.003904 -0.066740 0.003658
f 472 481 482 
f 473 471 474 
f 470 473 474 
f 470 474 475 
f 473 468 476 
f 471 473 476 
f 474 471 477 
f 475 474 477 
f 467 475 477 
f 471 472 478 
f 475 467 478 
f 477 471 478 
f 467 477 478 
f 475 478 479 
f 469 468 480 
f 468 473 480 
f 473 470 480 
f 470 475 480 
f 479 469 480 
f 475 479 480 
f 472 471 481 
f 476 468 481 
f 471 476 481 
f 468 469 482 
f 478 472 482 
f 469 479 482 
f 479 478 482 
f 481 468 482 
o convex_22
v -0.011000 -0.005599 0.015664
v 0.000462 -0.015973 -0.007258
v 0.005376 -0.015973 -0.007258
v -0.000084 0.015142 -0.007258
v 0.004284 -0.012150 0.028219
v 0.002646 0.013504 0.022212
v -0.011000 0.011320 -0.006708
v -0.011000 -0.015973 0.022216
v 0.005922 0.015142 -0.007258
v -0.007177 -0.015973 -0.007251
v 0.005922 -0.015973 0.024947
v -0.002811 -0.015425 0.032587
v -0.004996 0.015142 0.007485
v 0.005922 0.015142 0.009123
v -0.003904 0.002040 0.023851
v -0.011000 -0.015973 0.014572
v -0.011000 0.005314 0.005847
v 0.005376 0.000949 0.023304
v 0.000462 0.012959 0.022212
v 0.001554 -0.008328 0.030949
v 0.005922 -0.012150 -0.007258
v -0.004449 0.015142 -0.007251
v -0.002267 -0.008328 0.030949
v 0.001009 -0.015973 0.032045
v -0.011000 0.011320 -0.001794
v -0.011000 -0.014879 0.022216
v -0.011000 0.008591 -0.005616
v -0.000629 0.015142 0.013480
v -0.003904 -0.001231 0.026035
v -0.009907 0.011320 -0.007251
v 0.004829 -0.001780 0.025493
f 488 502 513 
f 485 484 486 
f 484 485 490 
f 483 489 490 
f 485 486 491 
f 484 490 492 
f 490 485 493 
f 491 486 495 
f 491 495 496 
f 493 491 496 
f 490 489 498 
f 492 490 498 
f 489 483 499 
f 483 497 499 
f 496 488 500 
f 493 496 500 
f 495 499 501 
f 499 497 501 
f 485 491 503 
f 493 485 503 
f 491 493 503 
f 489 495 504 
f 495 486 504 
f 488 501 505 
f 494 502 505 
f 502 488 505 
f 493 487 506 
f 490 493 506 
f 494 490 506 
f 487 502 506 
f 502 494 506 
f 495 489 507 
f 489 499 507 
f 499 495 507 
f 483 490 508 
f 490 494 508 
f 497 483 508 
f 494 505 508 
f 489 492 509 
f 498 489 509 
f 492 498 509 
f 496 495 510 
f 488 496 510 
f 501 488 510 
f 495 501 510 
f 501 497 511 
f 505 501 511 
f 497 508 511 
f 508 505 511 
f 486 484 512 
f 484 492 512 
f 492 489 512 
f 504 486 512 
f 489 504 512 
f 487 493 513 
f 500 488 513 
f 493 500 513 
f 502 487 513 
o convex_23
v -0.021370 0.011321 -0.000707
v -0.029013 -0.001784 0.015669
v -0.029560 -0.001784 0.015669
v -0.011547 -0.016519 0.015121
v -0.011000 -0.002871 0.013485
v -0.029560 0.009136 -0.002344
v -0.011000 0.010228 -0.006712
v -0.029560 -0.011058 0.015121
v -0.011000 0.008588 0.002022
v -0.029560 0.006953 0.007480
v -0.011000 -0.005599 0.015669
v -0.011000 -0.016519 0.015669
v -0.014825 0.003677 0.008571
v -0.029560 0.010774 0.002022
v -0.012641 0.011321 -0.001253
v -0.018645 0.011321 -0.005074
v -0.021915 0.009683 -0.004528
v -0.029560 -0.011058 0.015669
v -0.029013 0.010774 -0.002890
v -0.019190 -0.000688 0.013485
f 526 523 533 
f 516 519 521 
f 519 517 521 
f 518 520 522 
f 516 515 523 
f 519 516 523 
f 515 516 524 
f 520 518 524 
f 520 524 525 
f 517 520 525 
f 524 516 525 
f 518 522 526 
f 522 523 526 
f 519 523 527 
f 527 523 528 
f 522 520 528 
f 523 522 528 
f 514 527 528 
f 514 528 529 
f 528 520 529 
f 517 519 530 
f 520 517 530 
f 529 520 530 
f 516 521 531 
f 521 517 531 
f 517 525 531 
f 525 516 531 
f 527 514 532 
f 519 527 532 
f 514 529 532 
f 530 519 532 
f 529 530 532 
f 523 515 533 
f 515 524 533 
f 524 518 533 
f 518 526 533 
o convex_24
v -0.011547 -0.009968 0.019491
v -0.029560 -0.029619 0.021128
v -0.029560 -0.029619 0.024948
v -0.029560 -0.002872 0.016216
v -0.011000 -0.032348 0.017853
v -0.012092 -0.022520 0.025494
v -0.029560 -0.015978 0.025494
v -0.011000 -0.006149 0.015669
v -0.029560 -0.012152 0.015669
v -0.011000 -0.033436 0.024402
v -0.028468 -0.026890 0.026586
v -0.011000 -0.017613 0.015669
v -0.028468 -0.028526 0.019491
v -0.011000 -0.016523 0.023311
v -0.027920 -0.011607 0.023311
v -0.012641 -0.033987 0.021128
v -0.011000 -0.030165 0.025494
v -0.024646 -0.021429 0.026586
v -0.020280 -0.003965 0.016216
v -0.022462 -0.017068 0.025494
v -0.029560 -0.002872 0.015669
f 537 552 554 
f 535 536 537 
f 537 536 540 
f 535 537 542 
f 538 541 543 
f 540 536 544 
f 536 543 544 
f 541 538 545 
f 538 542 545 
f 542 541 545 
f 538 535 546 
f 535 542 546 
f 542 538 546 
f 541 534 547 
f 543 541 547 
f 537 540 548 
f 547 534 548 
f 536 535 549 
f 535 538 549 
f 543 536 549 
f 538 543 549 
f 544 543 550 
f 547 539 550 
f 543 547 550 
f 540 544 551 
f 550 539 551 
f 544 550 551 
f 534 541 552 
f 548 534 552 
f 537 548 552 
f 539 547 553 
f 548 540 553 
f 547 548 553 
f 551 539 553 
f 540 551 553 
f 542 537 554 
f 541 542 554 
f 552 541 554 
o convex_25
v 0.008105 0.015142 -0.007258
v 0.009197 -0.025795 0.024949
v 0.009197 -0.023067 0.024400
v 0.005922 -0.011051 0.023852
v 0.005922 -0.033985 0.017301
v 0.005922 -0.005605 -0.007258
v 0.009197 -0.034531 0.017852
v 0.005922 0.015142 0.008577
v 0.009197 0.014049 0.003114
v 0.009197 0.008041 -0.007258
v 0.008105 0.002038 0.016758
v 0.005922 -0.034531 0.024400
v 0.005922 0.015142 -0.007258
v 0.006468 -0.005605 -0.007258
v 0.009197 -0.033985 0.024400
v 0.006468 -0.002877 0.021125
v 0.008651 0.015142 0.005299
f 565 563 571 
f 556 557 558 
f 559 558 560 
f 557 556 561 
f 560 558 562 
f 557 561 563 
f 560 555 564 
f 555 563 564 
f 563 561 564 
f 557 563 565 
f 556 558 566 
f 558 559 566 
f 559 561 566 
f 555 560 567 
f 562 555 567 
f 560 562 567 
f 559 560 568 
f 561 559 568 
f 560 564 568 
f 564 561 568 
f 561 556 569 
f 556 566 569 
f 566 561 569 
f 558 557 570 
f 562 558 570 
f 557 565 570 
f 565 562 570 
f 555 562 571 
f 563 555 571 
f 562 565 571 
o convex_26
v 0.009744 0.010230 -0.007258
v 0.019023 -0.007237 0.015123
v 0.019023 -0.004505 0.012939
v 0.019023 0.005862 -0.005074
v 0.009197 -0.018156 0.014575
v 0.009197 -0.007781 0.015123
v 0.019023 -0.017064 0.014575
v 0.017931 0.008046 -0.000706
v 0.009197 0.003678 0.004749
v 0.009197 0.006954 -0.006711
v 0.009197 0.009682 -0.002890
v 0.019023 0.000949 0.008025
v 0.013020 -0.018156 0.014575
v 0.019023 0.008046 -0.005620
v 0.013020 -0.018156 0.015123
f 584 578 586 
f 574 573 575 
f 573 574 577 
f 575 573 578 
f 576 577 580 
f 576 580 581 
f 581 580 582 
f 579 572 582 
f 580 579 582 
f 572 581 582 
f 574 575 583 
f 577 574 583 
f 580 577 583 
f 579 580 583 
f 575 578 584 
f 581 575 584 
f 576 581 584 
f 572 579 585 
f 581 572 585 
f 575 581 585 
f 583 575 585 
f 579 583 585 
f 573 577 586 
f 577 576 586 
f 578 573 586 
f 576 584 586 
