o convex_0
v 0.019427 0.018842 0.002064
v -0.025438 0.026996 -0.030565
v -0.025438 0.053500 -0.030565
v -0.025438 0.052822 0.033341
v 0.043227 0.053507 -0.030565
v 0.043227 0.053507 0.033341
v -0.024752 0.026318 0.033341
v 0.043227 0.026314 -0.030565
v 0.043227 0.026314 0.033341
v -0.010476 0.018842 -0.024441
v -0.003681 0.018842 0.026541
v -0.017957 0.018842 0.010903
v 0.003121 0.018842 -0.029195
v -0.024752 0.053500 0.033341
v -0.018636 0.018842 -0.008120
v -0.025438 0.026318 0.031977
v 0.006522 0.018842 0.024502
v 0.017390 0.018842 -0.011517
v -0.016599 0.018842 0.017702
v 0.018069 0.018842 0.008863
v -0.025438 0.026318 -0.023765
v -0.024752 0.026318 -0.030565
v -0.013198 0.018842 -0.021044
v -0.012520 0.018842 0.021781
v 0.003800 0.018842 0.026541
v 0.000399 0.018842 -0.029195
v 0.013310 0.018842 0.016339
v 0.019427 0.018842 -0.001321
f 18 8 28 
f 3 2 4 
f 2 3 5 
f 5 3 6 
f 6 4 7 
f 2 5 8 
f 5 6 8 
f 8 6 9 
f 6 7 9 
f 1 8 9 
f 9 7 11 
f 10 1 11 
f 10 11 12 
f 1 10 13 
f 3 4 14 
f 6 3 14 
f 4 6 14 
f 10 12 15 
f 15 12 16 
f 4 2 16 
f 7 4 16 
f 11 1 17 
f 13 8 18 
f 1 13 18 
f 12 11 19 
f 16 12 19 
f 7 16 19 
f 1 9 20 
f 17 1 20 
f 15 16 21 
f 16 2 21 
f 2 8 22 
f 21 2 22 
f 15 21 22 
f 10 15 23 
f 22 10 23 
f 15 22 23 
f 11 7 24 
f 7 19 24 
f 19 11 24 
f 9 11 25 
f 17 9 25 
f 11 17 25 
f 8 13 26 
f 13 10 26 
f 22 8 26 
f 10 22 26 
f 9 17 27 
f 20 9 27 
f 17 20 27 
f 8 1 28 
f 1 18 28 
o convex_1
v 0.015349 0.001837 0.017701
v 0.006514 0.001837 -0.026486
v 0.006514 0.002518 -0.026486
v -0.032236 -0.009036 0.015660
v 0.019430 -0.013118 -0.008805
v -0.017953 -0.013118 -0.017646
v -0.022712 0.002518 -0.002687
v -0.006403 -0.013118 0.022463
v 0.026227 0.002518 0.008861
v -0.003005 0.002518 0.019057
v 0.016026 -0.013118 0.010221
v 0.018747 -0.002923 -0.022403
v -0.030193 -0.013118 -0.006764
v 0.007874 -0.013118 -0.021043
v -0.005720 0.002518 -0.023759
v -0.021352 0.002518 0.010902
v -0.030193 -0.013118 0.017701
v 0.023506 0.000478 -0.015604
v 0.026911 -0.002243 0.002066
v 0.013988 0.002518 -0.026486
v 0.001071 -0.007677 -0.024440
v -0.030193 -0.008356 0.017701
v -0.023396 -0.005638 -0.011522
v 0.022829 -0.004962 -0.016280
v 0.022829 0.001837 0.014299
v 0.020108 -0.013118 0.002066
v -0.011162 -0.012437 0.022463
v 0.003115 -0.013118 0.018381
v 0.007874 0.002518 0.019062
v 0.026227 0.002518 0.000025
v -0.026111 -0.002923 -0.004048
v -0.025434 0.000478 0.009541
v -0.022712 -0.000201 0.014304
v 0.024867 0.000478 0.010902
v 0.026227 -0.002923 -0.004723
v -0.020674 0.002518 -0.006764
v 0.016709 -0.013118 -0.013563
v -0.004359 -0.013118 -0.021043
v -0.022035 -0.012437 -0.014924
v 0.022146 0.002518 -0.016280
v 0.020785 -0.004962 -0.019682
v -0.002327 -0.003602 -0.024445
v -0.032236 -0.009036 0.012943
v -0.032236 -0.011757 0.012943
v 0.014665 -0.001562 -0.025125
v 0.025550 -0.004962 -0.003372
v 0.023506 -0.000881 -0.016965
v 0.018747 -0.013118 0.006139
v -0.024073 0.001837 0.001386
v -0.030193 -0.012437 -0.006764
v -0.022712 -0.000881 -0.008125
v 0.026911 0.001158 0.000025
v 0.010595 -0.013118 -0.019682
v -0.030870 -0.007677 0.017020
v -0.011840 -0.013118 -0.019682
v 0.026227 -0.002243 0.004778
v -0.004359 0.001837 -0.024445
v 0.004476 -0.010398 -0.023079
v 0.023506 -0.006318 -0.011522
v -0.031553 -0.013118 0.016340
v 0.017387 0.001837 0.017020
v 0.022829 0.002518 0.014299
v 0.020108 -0.013118 -0.005408
v -0.015915 0.002518 0.014304
f 44 61 92 
f 34 33 36 
f 31 35 37 
f 37 35 38 
f 36 33 39 
f 34 36 41 
f 33 34 42 
f 35 31 43 
f 38 35 44 
f 41 36 45 
f 30 31 48 
f 31 37 48 
f 30 48 49 
f 32 45 50 
f 39 33 54 
f 45 36 55 
f 38 50 55 
f 50 45 55 
f 36 39 56 
f 39 53 56 
f 36 29 57 
f 37 38 57 
f 55 36 57 
f 38 55 57 
f 48 37 58 
f 44 60 61 
f 37 53 62 
f 53 39 62 
f 35 43 64 
f 33 42 65 
f 52 33 65 
f 42 34 66 
f 34 41 67 
f 43 34 67 
f 51 43 67 
f 58 46 68 
f 48 58 68 
f 52 65 69 
f 30 49 70 
f 32 60 71 
f 32 71 72 
f 71 41 72 
f 40 42 73 
f 48 40 73 
f 49 48 73 
f 47 54 74 
f 63 47 74 
f 40 48 75 
f 63 52 75 
f 68 46 75 
f 48 68 75 
f 69 40 75 
f 52 69 75 
f 39 54 76 
f 62 39 76 
f 44 35 77 
f 35 59 77 
f 60 44 77 
f 59 71 77 
f 71 60 77 
f 67 41 78 
f 51 67 78 
f 41 71 78 
f 71 59 78 
f 43 51 79 
f 59 35 79 
f 35 64 79 
f 64 43 79 
f 51 78 79 
f 78 59 79 
f 37 47 80 
f 58 37 80 
f 46 58 80 
f 47 63 80 
f 75 46 80 
f 63 75 80 
f 42 40 81 
f 65 42 81 
f 40 69 81 
f 69 65 81 
f 50 38 82 
f 32 50 82 
f 60 32 82 
f 38 61 82 
f 61 60 82 
f 66 34 83 
f 49 66 83 
f 34 70 83 
f 70 49 83 
f 47 37 84 
f 54 47 84 
f 37 62 84 
f 76 54 84 
f 62 76 84 
f 31 30 85 
f 43 31 85 
f 34 43 85 
f 30 70 85 
f 70 34 85 
f 42 66 86 
f 66 49 86 
f 73 42 86 
f 49 73 86 
f 33 52 87 
f 52 63 87 
f 63 74 87 
f 45 32 88 
f 41 45 88 
f 32 72 88 
f 72 41 88 
f 29 36 89 
f 36 56 89 
f 56 53 89 
f 53 37 90 
f 57 29 90 
f 37 57 90 
f 29 89 90 
f 89 53 90 
f 54 33 91 
f 74 54 91 
f 33 87 91 
f 87 74 91 
f 38 44 92 
f 61 38 92 
o convex_2
v -0.022719 0.003879 0.008186
v 0.026228 0.003199 0.008862
v 0.025548 0.004558 0.011585
v 0.003791 0.018835 -0.029205
v -0.002322 0.018835 0.026543
v 0.005832 0.002518 -0.026477
v -0.017956 0.018835 -0.009484
v 0.019430 0.018835 0.004104
v -0.000281 0.002518 0.019743
v 0.021466 0.002518 -0.016960
v -0.007080 0.002518 -0.023077
v -0.016595 0.018835 0.017015
v 0.013311 0.013393 0.024502
v -0.022033 0.002518 -0.003361
v -0.011838 0.018835 -0.023077
v 0.018069 0.018835 -0.010161
v -0.019317 0.002518 0.012262
v 0.018749 0.002518 0.017015
v 0.009914 0.010677 -0.028518
v 0.007193 0.018835 0.024502
v 0.026228 0.002518 0.001386
v 0.013992 0.009319 0.023820
v 0.013992 0.002518 -0.026477
v 0.001075 0.016794 -0.029205
v 0.018069 0.018835 0.009544
v -0.017956 0.018835 0.010221
v -0.011838 0.018154 0.021779
v 0.003796 0.014753 0.026543
v -0.004363 0.002518 0.019056
v 0.017389 0.010677 0.021779
v 0.007193 0.006598 -0.028518
v 0.021466 0.005919 -0.014919
v -0.005724 0.003879 -0.024441
v -0.004363 0.018154 0.025860
v 0.018749 0.005919 0.020420
v 0.020790 0.016115 -0.000655
v -0.019997 0.002518 -0.006761
v 0.008554 0.016115 0.026543
v 0.023507 0.002518 0.014303
v 0.017389 0.018154 -0.012201
v 0.026228 0.003199 0.001386
v -0.022719 0.004558 0.006827
v -0.022719 0.002518 0.008862
v 0.023507 0.007960 0.012944
v -0.011157 0.018154 -0.023765
v 0.005157 0.002518 0.019743
v 0.013992 0.018835 0.016338
v 0.005157 0.017474 -0.029205
v 0.010590 0.011354 0.025178
v -0.007760 0.005919 -0.023765
v 0.013992 0.007278 -0.025118
v 0.000399 0.018154 -0.029205
v 0.026228 0.003879 0.007503
v 0.024187 0.005238 0.014303
f 136 122 146 
f 97 96 99 
f 96 97 100 
f 101 98 102 
f 98 101 103 
f 97 99 104 
f 103 101 106 
f 99 96 107 
f 106 99 107 
f 96 100 108 
f 106 101 109 
f 101 102 110 
f 100 97 112 
f 110 102 113 
f 102 98 115 
f 100 112 117 
f 93 104 118 
f 104 99 118 
f 97 104 119 
f 109 101 121 
f 101 120 121 
f 105 114 122 
f 115 98 123 
f 111 115 123 
f 98 103 125 
f 123 98 125 
f 116 123 125 
f 97 119 126 
f 119 109 126 
f 120 97 126 
f 109 121 126 
f 121 120 126 
f 122 114 127 
f 108 100 128 
f 103 106 129 
f 106 107 129 
f 112 97 130 
f 114 105 130 
f 97 120 130 
f 94 95 131 
f 113 94 131 
f 110 113 131 
f 127 110 131 
f 96 108 132 
f 108 124 132 
f 94 113 133 
f 113 102 133 
f 102 124 133 
f 124 108 133 
f 108 128 133 
f 99 106 134 
f 93 118 134 
f 118 99 134 
f 104 93 135 
f 106 109 135 
f 119 104 135 
f 109 119 135 
f 93 134 135 
f 134 106 135 
f 95 100 136 
f 100 117 136 
f 117 122 136 
f 129 107 137 
f 101 110 138 
f 110 127 138 
f 127 114 138 
f 117 112 139 
f 105 122 139 
f 122 117 139 
f 112 130 139 
f 130 105 139 
f 116 96 140 
f 111 123 140 
f 123 116 140 
f 96 132 140 
f 132 111 140 
f 120 101 141 
f 114 130 141 
f 130 120 141 
f 101 138 141 
f 138 114 141 
f 125 103 142 
f 103 129 142 
f 129 137 142 
f 102 115 143 
f 115 111 143 
f 124 102 143 
f 111 132 143 
f 132 124 143 
f 107 96 144 
f 96 116 144 
f 116 125 144 
f 137 107 144 
f 125 142 144 
f 142 137 144 
f 95 94 145 
f 100 95 145 
f 128 100 145 
f 94 133 145 
f 133 128 145 
f 122 127 146 
f 131 95 146 
f 127 131 146 
f 95 136 146 
o convex_3
v 0.003113 -0.051865 0.027222
v -0.013876 -0.040313 -0.033964
v -0.013876 -0.037601 -0.033964
v -0.040393 -0.046427 0.014298
v 0.011272 -0.021276 0.019742
v 0.003791 -0.066819 -0.009480
v 0.025551 -0.028080 -0.006761
v -0.028833 -0.021276 -0.019003
v -0.027477 -0.023998 0.022455
v -0.025437 -0.066819 -0.008803
v 0.008548 -0.021276 -0.027843
v -0.026115 -0.060705 0.023820
v -0.037669 -0.041674 -0.019686
v 0.017392 -0.056623 -0.012205
v 0.000389 -0.068865 0.013615
v 0.022149 -0.049144 0.008182
v 0.012628 -0.029436 0.027222
v 0.011272 -0.043034 -0.027843
v -0.036992 -0.024683 0.008182
v -0.011837 -0.051189 -0.030562
v -0.038354 -0.059345 0.007500
v -0.030872 -0.053226 0.025857
v -0.020673 -0.026039 -0.030556
v -0.021358 -0.069546 0.002061
v -0.001644 -0.066139 -0.016284
v -0.024753 -0.055267 -0.025118
v -0.011837 -0.021276 0.024491
v 0.024867 -0.023998 -0.000652
v -0.019996 -0.028080 0.026540
v -0.006408 -0.060020 0.027216
v 0.021465 -0.032158 -0.017643
v -0.030872 -0.021281 0.015657
v -0.001644 -0.023998 -0.032593
v 0.013990 -0.045075 0.023820
v 0.017392 -0.057984 0.005463
v -0.036314 -0.054582 -0.010845
v 0.018747 -0.021281 -0.016961
v -0.037669 -0.032162 -0.014241
v -0.013199 -0.068865 -0.011528
v 0.020787 -0.033518 0.014980
v -0.035630 -0.048468 0.023814
v -0.027477 -0.032162 -0.028520
v -0.036314 -0.027400 0.014980
v -0.007086 -0.045742 -0.033281
v -0.009119 -0.021276 -0.031239
v -0.031557 -0.023317 -0.020356
v -0.023397 -0.046427 -0.029879
v 0.005153 -0.066139 0.013621
v -0.003006 -0.069546 -0.006090
v 0.022149 -0.051865 0.002744
v -0.021358 -0.046427 0.027216
v 0.017392 -0.021281 0.012944
v 0.005153 -0.050504 -0.026477
v -0.013199 -0.064783 -0.018326
v -0.034952 -0.055267 0.022455
v -0.005046 -0.069546 0.012255
v -0.032912 -0.062061 0.013621
v 0.011272 -0.036240 -0.028520
v 0.018747 -0.054582 0.009542
v -0.033596 -0.021281 -0.000652
v -0.040393 -0.051865 0.010219
v 0.017392 -0.058664 0.000708
v 0.025551 -0.030797 -0.006761
v -0.011159 -0.062747 0.024491
f 202 161 210 
f 154 151 157 
f 167 156 170 
f 160 152 171 
f 151 154 173 
f 163 151 173 
f 163 173 175 
f 173 155 175 
f 168 158 176 
f 160 164 177 
f 173 154 178 
f 155 173 178 
f 163 147 180 
f 156 167 182 
f 167 159 182 
f 159 172 182 
f 172 156 182 
f 157 151 183 
f 174 153 183 
f 153 177 183 
f 177 157 183 
f 150 165 184 
f 170 156 185 
f 162 174 186 
f 180 162 186 
f 163 180 186 
f 175 155 187 
f 168 175 187 
f 149 148 188 
f 169 149 188 
f 165 150 189 
f 155 178 189 
f 178 165 189 
f 150 187 189 
f 187 155 189 
f 148 149 190 
f 166 148 190 
f 149 179 190 
f 154 157 191 
f 149 169 191 
f 179 149 191 
f 157 179 191 
f 159 184 192 
f 169 188 192 
f 188 159 192 
f 154 191 192 
f 191 169 192 
f 148 166 193 
f 172 159 193 
f 166 172 193 
f 188 148 193 
f 159 188 193 
f 161 152 194 
f 147 176 194 
f 176 161 194 
f 180 147 194 
f 152 161 195 
f 171 152 195 
f 170 185 195 
f 185 171 195 
f 147 163 197 
f 163 175 197 
f 175 168 197 
f 176 147 197 
f 168 176 197 
f 151 163 198 
f 183 151 198 
f 174 183 198 
f 186 174 198 
f 163 186 198 
f 164 160 199 
f 160 171 199 
f 171 166 199 
f 166 190 199 
f 190 164 199 
f 166 171 200 
f 156 172 200 
f 172 166 200 
f 185 156 200 
f 171 185 200 
f 158 168 201 
f 187 150 201 
f 168 187 201 
f 158 170 202 
f 195 161 202 
f 170 195 202 
f 170 158 203 
f 167 170 203 
f 201 167 203 
f 158 201 203 
f 157 177 204 
f 177 164 204 
f 179 157 204 
f 164 190 204 
f 190 179 204 
f 162 180 205 
f 180 194 205 
f 194 181 205 
f 196 162 205 
f 181 196 205 
f 165 178 206 
f 178 154 206 
f 184 165 206 
f 154 192 206 
f 192 184 206 
f 159 167 207 
f 184 159 207 
f 150 184 207 
f 201 150 207 
f 167 201 207 
f 152 160 208 
f 194 152 208 
f 181 194 208 
f 160 196 208 
f 196 181 208 
f 153 174 209 
f 174 162 209 
f 177 153 209 
f 160 177 209 
f 196 160 209 
f 162 196 209 
f 161 176 210 
f 176 158 210 
f 158 202 210 
o convex_4
v -0.032232 -0.017197 -0.006088
v 0.021472 -0.020596 0.001387
v 0.021472 -0.021276 0.001387
v -0.004368 -0.021276 -0.031239
v 0.011948 -0.013118 -0.018320
v -0.005721 -0.013118 0.022457
v -0.029511 -0.021276 0.016336
v -0.030193 -0.013118 -0.007446
v 0.009233 -0.021276 0.020422
v 0.016707 -0.013118 0.008861
v -0.030874 -0.013118 0.017018
v -0.026796 -0.021276 -0.019002
v -0.019993 -0.014478 -0.021719
v 0.018070 -0.021276 -0.017643
v -0.011843 -0.021276 0.024498
v 0.019428 -0.013118 -0.007446
v -0.004368 -0.013118 -0.021719
v -0.032913 -0.021276 0.003422
v 0.008552 -0.020596 -0.027164
v -0.003687 -0.015158 -0.025800
v 0.011948 -0.020596 0.019058
v -0.021356 -0.019237 -0.024441
v -0.012519 -0.017197 0.024498
v 0.021472 -0.020596 -0.009487
v 0.020109 -0.013118 -0.000654
v -0.007078 -0.020596 -0.031239
v 0.002435 -0.013118 0.019058
v -0.017273 -0.021276 0.023134
v 0.017389 -0.021276 0.011584
v -0.006402 -0.019237 0.024498
v -0.019317 -0.013118 -0.019002
v -0.031550 -0.013118 0.015659
v -0.032232 -0.021276 -0.006088
v 0.009233 -0.013118 -0.020366
v -0.012519 -0.013118 0.022457
v -0.020674 -0.021276 -0.025118
v -0.032232 -0.015158 -0.004047
v -0.022032 -0.015158 -0.021042
v 0.017389 -0.013118 -0.012204
v -0.001648 -0.020596 -0.030557
v 0.016031 -0.019916 -0.019684
v 0.019428 -0.013118 0.003422
v 0.010591 -0.019916 0.019740
v -0.006402 -0.015158 -0.025800
v -0.030874 -0.019237 0.014977
v 0.008552 -0.021276 -0.027164
v -0.026796 -0.020596 -0.019002
v -0.006402 -0.015838 0.023816
f 253 216 258 
f 214 213 217 
f 216 215 218 
f 217 213 219 
f 215 216 220 
f 216 218 221 
f 214 217 222 
f 213 214 224 
f 217 219 225 
f 215 220 226 
f 218 215 227 
f 222 217 228 
f 212 213 234 
f 213 224 234 
f 234 226 235 
f 226 220 235 
f 212 234 235 
f 232 223 236 
f 220 216 237 
f 221 217 238 
f 217 225 238 
f 233 221 238 
f 225 233 238 
f 213 212 239 
f 219 213 239 
f 231 219 239 
f 220 231 239 
f 225 219 240 
f 233 225 240 
f 223 218 241 
f 218 227 241 
f 221 218 242 
f 211 222 243 
f 228 211 243 
f 222 228 243 
f 227 215 244 
f 215 229 244 
f 230 227 244 
f 216 221 245 
f 233 216 245 
f 221 233 245 
f 214 222 246 
f 222 232 246 
f 236 214 246 
f 232 236 246 
f 218 211 247 
f 211 228 247 
f 242 218 247 
f 228 242 247 
f 218 223 248 
f 223 232 248 
f 215 226 249 
f 234 224 249 
f 226 234 249 
f 214 236 250 
f 236 230 250 
f 244 229 250 
f 230 244 250 
f 229 215 251 
f 215 249 251 
f 249 224 251 
f 212 235 252 
f 235 220 252 
f 239 212 252 
f 220 239 252 
f 219 231 253 
f 231 220 253 
f 237 216 253 
f 220 237 253 
f 227 230 254 
f 230 236 254 
f 236 223 254 
f 223 241 254 
f 241 227 254 
f 217 221 255 
f 228 217 255 
f 221 242 255 
f 242 228 255 
f 224 214 256 
f 214 250 256 
f 250 229 256 
f 229 251 256 
f 251 224 256 
f 211 218 257 
f 222 211 257 
f 232 222 257 
f 218 248 257 
f 248 232 257 
f 216 233 258 
f 240 219 258 
f 233 240 258 
f 219 253 258 
o convex_5
v -0.017959 -0.053228 0.027903
v -0.013201 -0.045071 0.027903
v -0.013201 -0.046431 0.029261
v -0.009122 -0.053228 0.027222
v -0.020679 -0.046431 0.027222
v -0.014561 -0.049828 0.030622
v -0.009122 -0.048471 0.027222
v -0.019318 -0.047792 0.029261
v -0.011162 -0.048471 0.029942
f 262 265 267 
f 262 259 263 
f 259 262 264 
f 262 263 265 
f 263 260 265 
f 261 260 266 
f 263 259 266 
f 260 263 266 
f 264 261 266 
f 259 264 266 
f 260 261 267 
f 261 264 267 
f 264 262 267 
f 265 260 267 
o convex_6
v 0.008553 -0.028757 0.027222
v -0.009122 -0.051187 0.027222
v -0.005041 -0.051867 0.027222
v 0.003115 -0.039636 0.033341
v -0.007081 -0.035555 0.029262
v 0.007193 -0.047787 0.027222
v -0.003681 -0.037595 0.033341
v 0.001755 -0.048467 0.031300
v -0.000283 -0.029437 0.027222
v 0.011274 -0.033517 0.027903
v 0.006515 -0.047787 0.029943
v 0.003795 -0.036235 0.033341
v -0.009122 -0.038956 0.027222
v 0.003795 -0.028757 0.028583
v 0.001755 -0.051867 0.028583
v -0.009122 -0.051187 0.027903
v -0.002322 -0.040989 0.033341
v -0.002322 -0.034875 0.032661
v -0.007081 -0.036915 0.030621
v 0.007193 -0.044389 0.030621
v 0.010593 -0.030117 0.027903
v -0.005041 -0.040309 0.032661
v 0.005155 -0.050507 0.027222
f 278 282 290 
f 270 269 268 
f 270 268 273 
f 268 269 276 
f 273 268 277 
f 273 277 278 
f 271 275 278 
f 274 271 279 
f 276 269 280 
f 272 276 280 
f 268 276 281 
f 278 275 282 
f 269 270 283 
f 280 269 283 
f 270 282 283 
f 282 275 283 
f 271 274 284 
f 275 271 284 
f 283 275 284 
f 276 272 285 
f 274 279 285 
f 281 276 285 
f 279 281 285 
f 272 280 286 
f 280 283 286 
f 285 272 286 
f 274 285 286 
f 278 277 287 
f 271 278 287 
f 279 271 287 
f 277 279 287 
f 277 268 288 
f 279 277 288 
f 268 281 288 
f 281 279 288 
f 284 274 289 
f 283 284 289 
f 274 286 289 
f 286 283 289 
f 270 273 290 
f 273 278 290 
f 282 270 290 
