o convex_0
v 0.010604 -0.010865 0.025311
v -0.002271 0.011684 -0.033963
v -0.003563 0.011037 -0.033312
v -0.022893 0.027149 0.019511
v 0.025425 0.027149 0.005334
v -0.029335 -0.010865 -0.004965
v 0.031220 -0.010865 -0.008830
v -0.032558 0.027149 -0.005610
v 0.017691 0.027149 -0.013986
v 0.000939 -0.010865 -0.024936
v -0.018384 -0.010865 0.018865
v 0.009319 0.027149 0.022085
v 0.033798 -0.007639 0.009200
v 0.032512 0.011037 -0.011411
v -0.028042 0.001377 -0.017206
v -0.033844 0.009106 0.002114
v -0.019669 0.027149 -0.017851
v 0.022201 -0.005707 -0.019781
v -0.004856 -0.010217 0.025311
v -0.002917 0.027149 0.024660
v 0.029934 0.014259 0.010490
v 0.024133 -0.010865 0.019505
v -0.017092 -0.010865 -0.019786
v 0.035729 0.009106 -0.000466
v 0.000307 0.013612 -0.033317
v 0.016406 0.027149 0.019505
v -0.033844 0.005247 -0.008830
v -0.025471 0.011037 -0.019141
v -0.025471 -0.010865 0.010490
v -0.029335 0.026501 0.011780
v 0.035090 -0.010865 -0.000466
v 0.000939 0.027149 -0.019141
v 0.025425 0.011684 -0.017851
v 0.030574 0.020704 -0.004320
v 0.017691 -0.010865 -0.021071
v -0.033844 0.027149 -0.001106
v 0.033158 0.002025 -0.010766
v 0.034444 0.012972 0.003405
v -0.024825 -0.001841 0.013710
v -0.011290 -0.010865 0.023370
v -0.018384 0.027149 0.021440
v 0.024779 0.003312 -0.019135
v 0.022201 0.027149 0.014355
v 0.020269 -0.010217 0.022085
v -0.031912 0.010393 -0.012695
v 0.027357 0.016838 -0.013986
v -0.029335 -0.010865 0.000824
v 0.000307 0.009749 -0.033317
v -0.028688 -0.003132 -0.014631
v -0.003563 0.013612 -0.033312
v 0.023493 0.027149 -0.006895
v 0.031220 -0.001841 0.012420
v -0.022247 0.003956 -0.021716
v -0.034483 0.005887 -0.002396
v 0.000939 -0.010865 0.025957
v 0.035090 0.011037 -0.005610
v 0.005456 -0.010865 -0.024936
v 0.018338 0.018125 -0.019781
v -0.031266 0.010393 0.007264
v -0.026111 0.023926 0.016285
v 0.034444 -0.010865 0.006625
v 0.031866 0.019416 0.001469
v -0.000986 0.014259 -0.033317
v 0.029934 0.018125 -0.010120
f 34 56 64 
f 1 6 7 
f 4 5 8 
f 8 5 9 
f 3 2 10 
f 7 6 10 
f 6 1 11 
f 5 4 12 
f 8 9 17 
f 1 12 20 
f 12 4 20 
f 1 7 22 
f 3 10 23 
f 10 6 23 
f 5 12 26 
f 8 17 28 
f 6 11 29 
f 22 7 31 
f 17 9 32 
f 7 10 35 
f 18 7 35 
f 4 8 36 
f 8 27 36 
f 16 30 36 
f 30 4 36 
f 7 18 37 
f 31 7 37 
f 13 24 38 
f 29 11 39 
f 11 1 40 
f 4 11 40 
f 40 19 41 
f 20 4 41 
f 19 20 41 
f 4 40 41 
f 33 14 42 
f 25 33 42 
f 37 18 42 
f 14 37 42 
f 5 26 43 
f 26 21 43 
f 21 38 43 
f 12 1 44 
f 1 22 44 
f 26 12 44 
f 22 26 44 
f 27 8 45 
f 15 27 45 
f 28 15 45 
f 8 28 45 
f 14 33 46 
f 6 29 47 
f 29 16 47 
f 10 2 48 
f 2 25 48 
f 18 35 48 
f 42 18 48 
f 25 42 48 
f 23 6 49 
f 15 23 49 
f 27 15 49 
f 6 27 49 
f 2 3 50 
f 28 17 50 
f 9 5 51 
f 5 34 51 
f 22 13 52 
f 21 26 52 
f 26 22 52 
f 38 21 52 
f 13 38 52 
f 3 23 53 
f 23 15 53 
f 15 28 53 
f 50 3 53 
f 28 50 53 
f 27 6 54 
f 36 27 54 
f 16 36 54 
f 6 47 54 
f 47 16 54 
f 1 20 55 
f 20 19 55 
f 40 1 55 
f 19 40 55 
f 24 31 56 
f 37 14 56 
f 31 37 56 
f 38 24 56 
f 35 10 57 
f 10 48 57 
f 48 35 57 
f 25 9 58 
f 33 25 58 
f 9 46 58 
f 46 33 58 
f 16 29 59 
f 30 16 59 
f 29 39 59 
f 59 39 60 
f 11 4 60 
f 4 30 60 
f 39 11 60 
f 30 59 60 
f 13 22 61 
f 24 13 61 
f 22 31 61 
f 31 24 61 
f 34 5 62 
f 5 43 62 
f 43 38 62 
f 56 34 62 
f 38 56 62 
f 9 25 63 
f 25 2 63 
f 32 9 63 
f 17 32 63 
f 2 50 63 
f 50 17 63 
f 46 9 64 
f 14 46 64 
f 9 51 64 
f 51 34 64 
f 56 14 64 
o convex_1
v -0.019670 -0.075288 0.007917
v 0.020273 -0.046301 0.016935
v 0.020273 -0.046301 0.008562
v -0.019670 -0.046301 0.018869
v -0.010651 -0.046301 0.001473
v -0.005499 -0.068848 0.018869
v -0.006784 -0.073359 0.004051
v -0.026111 -0.066916 0.003408
v 0.017695 -0.046948 0.001473
v -0.020955 -0.065625 0.018869
v 0.009960 -0.058543 0.018869
v -0.014514 -0.072068 0.002119
v -0.026760 -0.070783 0.009850
v 0.019629 -0.046301 0.018869
v -0.020955 -0.052103 0.008562
v -0.014514 -0.075288 0.011781
v -0.022888 -0.055967 0.018869
v -0.008078 -0.074647 0.007917
v 0.018339 -0.049524 0.010493
v -0.014514 -0.070136 0.018869
v -0.012580 -0.063052 0.001473
v -0.024822 -0.068848 0.002762
v 0.005449 -0.063052 0.018869
v -0.025467 -0.072715 0.009850
v -0.015803 -0.075288 0.004695
v -0.024822 -0.070783 0.003408
v -0.026760 -0.067557 0.005340
v -0.011291 -0.071427 0.002119
v 0.017695 -0.046301 0.001473
v -0.012580 -0.075938 0.010493
v 0.019629 -0.046948 0.005984
v 0.020273 -0.047592 0.014359
v -0.010651 -0.075288 0.004695
v -0.006784 -0.063696 0.001473
v -0.020955 -0.068848 0.002119
v -0.024182 -0.064337 0.002762
v -0.019670 -0.050812 0.007917
v 0.005449 -0.063052 0.016935
v -0.016447 -0.075938 0.010493
v -0.022888 -0.059834 0.018869
v -0.009358 -0.070136 0.018869
v -0.009358 -0.074647 0.010493
v -0.019670 -0.067557 0.018869
v -0.008078 -0.073359 0.003408
f 97 76 108 
f 66 67 68 
f 68 67 69 
f 70 68 74 
f 68 70 75 
f 66 68 78 
f 68 75 78 
f 74 68 81 
f 70 74 84 
f 69 73 85 
f 75 70 87 
f 86 76 90 
f 72 86 90 
f 88 77 90 
f 65 88 90 
f 76 89 90 
f 89 65 90 
f 68 79 91 
f 79 72 91 
f 81 68 91 
f 77 81 91 
f 72 90 91 
f 90 77 91 
f 69 67 93 
f 73 69 93 
f 71 73 95 
f 83 71 95 
f 93 67 95 
f 73 93 95 
f 67 66 96 
f 66 78 96 
f 78 75 96 
f 75 83 96 
f 95 67 96 
f 83 95 96 
f 71 82 97 
f 89 76 97 
f 82 94 97 
f 94 89 97 
f 85 73 98 
f 76 85 98 
f 73 92 98 
f 92 76 98 
f 69 85 99 
f 85 76 99 
f 76 86 99 
f 99 86 100 
f 72 79 100 
f 86 72 100 
f 69 99 100 
f 68 69 101 
f 79 68 101 
f 69 100 101 
f 100 79 101 
f 82 71 102 
f 71 83 102 
f 83 75 102 
f 75 87 102 
f 87 82 102 
f 80 84 103 
f 88 65 103 
f 84 88 103 
f 65 89 103 
f 94 80 103 
f 89 94 103 
f 77 74 104 
f 74 81 104 
f 81 77 104 
f 70 84 105 
f 84 80 105 
f 80 94 105 
f 94 70 105 
f 87 70 106 
f 82 87 106 
f 70 94 106 
f 94 82 106 
f 74 77 107 
f 84 74 107 
f 77 88 107 
f 88 84 107 
f 73 71 108 
f 92 73 108 
f 76 92 108 
f 71 97 108 
o convex_2
v -0.008071 -0.064984 0.027886
v 0.019629 -0.046301 0.019515
v 0.019629 -0.046948 0.019515
v -0.023535 -0.046301 0.018869
v -0.007423 -0.051459 0.035620
v -0.017737 -0.068203 0.018869
v 0.006094 -0.064339 0.025316
v -0.024183 -0.046301 0.027249
v 0.004808 -0.057255 0.034331
v -0.021601 -0.059826 0.027249
v 0.006737 -0.046301 0.029818
v 0.007385 -0.061762 0.018869
v -0.008714 -0.055321 0.036265
v -0.006784 -0.069495 0.018869
v -0.024183 -0.059185 0.021447
v 0.015761 -0.054034 0.023380
v -0.002277 -0.066271 0.027249
v 0.016404 -0.046301 0.024669
v 0.019629 -0.046948 0.018869
v -0.008071 -0.048235 0.033684
v -0.014517 -0.053393 0.034331
v -0.000995 -0.053393 0.036265
v 0.000296 -0.057898 0.035620
v -0.019667 -0.063694 0.025316
v 0.008028 -0.057898 0.031751
v -0.013226 -0.069495 0.020160
v -0.021601 -0.064339 0.018869
v 0.004808 -0.054034 0.034331
v 0.004164 -0.064984 0.026602
v -0.024183 -0.059185 0.024024
v 0.010606 -0.059826 0.020160
v -0.011296 -0.050817 0.034974
v 0.006094 -0.064339 0.022093
v -0.000995 -0.067556 0.024671
v 0.010606 -0.059826 0.025958
v -0.004211 -0.058540 0.034974
v -0.002277 -0.050167 0.034974
v -0.010005 -0.067556 0.024671
v -0.013226 -0.055970 0.034331
v -0.024183 -0.046948 0.019515
v 0.003517 -0.059185 0.033684
v -0.020310 -0.057898 0.029176
v -0.006784 -0.046301 0.029818
v -0.018381 -0.063049 0.026602
v -0.022892 -0.061762 0.024024
f 138 135 153 
f 110 112 116 
f 110 116 119 
f 114 112 120 
f 114 120 122 
f 111 110 126 
f 110 119 126 
f 124 111 126 
f 110 111 127 
f 112 110 127 
f 120 112 127 
f 111 124 127 
f 113 121 130 
f 130 121 131 
f 117 130 131 
f 124 126 133 
f 114 122 134 
f 132 114 134 
f 112 114 135 
f 126 119 136 
f 130 117 136 
f 119 130 136 
f 117 133 136 
f 133 126 136 
f 115 133 137 
f 118 116 138 
f 116 123 138 
f 123 135 138 
f 120 127 139 
f 127 124 139 
f 121 113 140 
f 113 128 140 
f 128 116 140 
f 116 129 140 
f 129 121 140 
f 122 120 141 
f 139 115 141 
f 120 139 141 
f 134 122 142 
f 115 137 142 
f 137 125 142 
f 141 115 142 
f 122 141 142 
f 133 115 143 
f 124 133 143 
f 115 139 143 
f 139 124 143 
f 109 125 144 
f 131 121 144 
f 125 131 144 
f 128 113 145 
f 119 128 145 
f 113 130 145 
f 130 119 145 
f 125 109 146 
f 132 134 146 
f 134 142 146 
f 142 125 146 
f 121 129 147 
f 144 121 147 
f 116 112 148 
f 123 116 148 
f 112 135 148 
f 135 123 148 
f 131 125 149 
f 117 131 149 
f 133 117 149 
f 125 137 149 
f 137 133 149 
f 116 118 150 
f 129 116 150 
f 118 147 150 
f 147 129 150 
f 119 116 151 
f 116 128 151 
f 128 119 151 
f 118 132 152 
f 109 144 152 
f 146 109 152 
f 132 146 152 
f 147 118 152 
f 144 147 152 
f 114 132 153 
f 132 118 153 
f 135 114 153 
f 118 138 153 
o convex_3
v 0.006737 -0.012798 0.026596
v 0.001591 -0.030190 -0.030741
v -0.017739 -0.025679 -0.030086
v -0.004848 -0.037925 0.029167
v 0.034442 -0.010865 -0.002385
v -0.029337 -0.010865 -0.000456
v 0.025417 -0.037925 0.016929
v 0.027360 -0.021823 -0.030092
v -0.017096 -0.037925 -0.006254
v 0.002234 -0.010865 -0.025580
v 0.006087 -0.037925 -0.026866
v 0.031220 -0.034699 -0.006254
v -0.013873 -0.010865 0.022084
v 0.025417 -0.010865 0.018864
v 0.011246 -0.035991 0.031744
v -0.024178 -0.030834 -0.001748
v -0.015160 -0.016666 -0.030086
v 0.027360 -0.030834 -0.030092
v -0.023535 -0.019889 0.012418
v 0.035092 -0.023110 0.004686
v 0.026710 -0.037925 -0.007539
v -0.028688 -0.010865 -0.006890
v 0.023494 -0.010865 -0.017206
v 0.000304 -0.032765 0.031744
v 0.029933 -0.019889 0.016281
v 0.035092 -0.025679 -0.004319
v -0.011294 -0.037925 0.020792
v -0.024822 -0.028900 -0.008825
v 0.015749 -0.037925 0.029167
v 0.033799 -0.010865 0.007906
v 0.029933 -0.026326 -0.028152
v -0.019669 -0.013442 0.018215
v -0.018383 -0.030193 -0.023003
v -0.017739 -0.010865 -0.019140
v -0.005498 -0.010865 0.025304
v 0.021551 -0.014088 0.022733
v -0.022249 -0.023751 -0.023003
v -0.019026 -0.020530 -0.030086
v 0.002234 -0.037925 -0.026229
v 0.033149 -0.031480 0.001466
v -0.025465 -0.022464 0.006614
v 0.009310 -0.030834 0.031744
v 0.023494 -0.019889 -0.030086
v 0.013819 -0.010865 0.024661
v -0.025465 -0.010865 0.010489
v -0.019669 -0.036632 -0.000456
v 0.033799 -0.025038 0.008555
v -0.022892 -0.032765 -0.008825
v 0.003521 -0.032124 -0.030741
v -0.007428 -0.037925 0.027239
v 0.004164 -0.019886 -0.030741
v 0.016405 -0.010865 -0.021711
v -0.016453 -0.035991 -0.013331
v 0.023494 -0.037273 0.020792
v -0.015803 -0.027613 -0.030086
v -0.015160 -0.014088 0.022084
v 0.024131 -0.032124 -0.030086
v 0.005444 -0.037273 0.032399
v 0.015112 -0.033414 0.029816
v 0.033149 -0.031480 -0.006254
v 0.029290 -0.023751 -0.030092
v 0.032506 -0.010865 -0.006890
v -0.021599 -0.034058 0.001466
v 0.026067 -0.018596 0.020150
f 189 212 217 
f 160 157 162 
f 159 158 163 
f 160 162 164 
f 158 159 166 
f 158 166 167 
f 160 164 174 
f 165 160 174 
f 171 165 174 
f 159 163 175 
f 163 158 176 
f 158 173 179 
f 162 157 180 
f 169 159 181 
f 159 175 181 
f 157 160 182 
f 158 167 183 
f 173 158 183 
f 167 178 183 
f 158 179 184 
f 163 170 187 
f 175 163 187 
f 170 175 187 
f 167 166 188 
f 177 154 188 
f 166 177 188 
f 181 175 190 
f 156 186 190 
f 155 156 191 
f 175 170 191 
f 156 190 191 
f 190 175 191 
f 164 162 192 
f 160 165 193 
f 179 173 193 
f 159 169 194 
f 180 172 194 
f 154 177 195 
f 170 163 196 
f 176 161 196 
f 188 154 197 
f 167 188 197 
f 189 167 197 
f 154 195 197 
f 195 189 197 
f 166 159 198 
f 185 166 198 
f 172 185 198 
f 159 194 198 
f 194 172 198 
f 162 180 199 
f 173 183 200 
f 183 178 200 
f 160 193 200 
f 193 173 200 
f 169 181 201 
f 181 190 201 
f 190 186 201 
f 162 199 201 
f 199 169 201 
f 156 155 202 
f 164 192 202 
f 180 157 203 
f 172 180 203 
f 185 172 203 
f 155 191 204 
f 191 170 204 
f 196 161 204 
f 170 196 204 
f 202 155 204 
f 163 176 205 
f 196 163 205 
f 176 196 205 
f 192 162 206 
f 186 192 206 
f 162 201 206 
f 201 186 206 
f 182 160 207 
f 178 182 207 
f 160 200 207 
f 200 178 207 
f 186 156 208 
f 192 186 208 
f 156 202 208 
f 202 192 208 
f 177 166 209 
f 157 177 209 
f 166 185 209 
f 203 157 209 
f 185 203 209 
f 174 164 210 
f 171 174 210 
f 202 171 210 
f 164 202 210 
f 177 157 211 
f 157 182 211 
f 182 168 211 
f 195 177 211 
f 168 195 211 
f 168 182 212 
f 195 168 212 
f 189 195 212 
f 165 171 213 
f 171 184 213 
f 184 179 213 
f 193 165 213 
f 179 193 213 
f 158 184 214 
f 184 171 214 
f 171 202 214 
f 204 161 214 
f 202 204 214 
f 176 158 215 
f 161 176 215 
f 158 214 215 
f 214 161 215 
f 194 169 216 
f 180 194 216 
f 199 180 216 
f 169 199 216 
f 178 167 217 
f 182 178 217 
f 167 189 217 
f 212 182 217 
o convex_4
v -0.015165 0.025218 -0.046850
v -0.030626 0.021998 -0.054578
v -0.030626 0.021998 -0.053289
v -0.023536 0.035524 -0.044273
v -0.017098 0.026502 -0.055224
v -0.024181 0.025218 -0.042983
v -0.019675 0.016840 -0.052646
v -0.027403 0.032946 -0.052001
v -0.017742 0.033591 -0.050069
v -0.016453 0.030367 -0.042983
v -0.026758 0.031012 -0.042983
v -0.013878 0.021352 -0.054578
v -0.026114 0.017486 -0.054578
v -0.017742 0.025862 -0.042983
v -0.029336 0.026502 -0.055224
v -0.028691 0.031656 -0.048782
v -0.026758 0.020706 -0.048782
v -0.020320 0.035524 -0.042983
v -0.020320 0.018129 -0.055224
v -0.013878 0.023929 -0.054578
v -0.019031 0.032300 -0.052646
v -0.015809 0.021998 -0.048138
v -0.029336 0.022641 -0.049425
v -0.020964 0.024573 -0.042983
v -0.028047 0.018773 -0.055224
v -0.018386 0.033591 -0.051357
v -0.028047 0.018773 -0.052646
f 242 230 244 
f 223 227 228 
f 218 227 231 
f 227 223 231 
f 219 220 233 
f 221 225 233 
f 228 221 233 
f 232 219 233 
f 225 232 233 
f 227 226 235 
f 228 227 235 
f 221 228 235 
f 222 229 236 
f 229 224 236 
f 224 230 236 
f 232 222 236 
f 226 227 237 
f 227 218 237 
f 229 222 237 
f 218 229 237 
f 232 225 238 
f 222 232 238 
f 224 229 239 
f 229 218 239 
f 218 231 239 
f 223 228 240 
f 233 220 240 
f 228 233 240 
f 234 223 240 
f 231 223 241 
f 223 234 241 
f 234 224 241 
f 224 239 241 
f 239 231 241 
f 220 219 242 
f 219 232 242 
f 236 230 242 
f 232 236 242 
f 225 221 243 
f 221 235 243 
f 235 226 243 
f 237 222 243 
f 226 237 243 
f 238 225 243 
f 222 238 243 
f 230 224 244 
f 224 234 244 
f 240 220 244 
f 234 240 244 
f 220 242 244 
o convex_5
v 0.008677 0.041325 -0.054580
v 0.017049 0.054207 -0.047494
v 0.017695 0.053562 -0.046204
v 0.022206 0.042613 -0.055222
v 0.010609 0.045189 -0.042338
v 0.009321 0.052919 -0.050713
v 0.020272 0.049054 -0.055222
v 0.017695 0.047122 -0.042338
v 0.011256 0.054207 -0.042338
v 0.018984 0.040681 -0.052646
v 0.007387 0.045834 -0.055222
v 0.008033 0.049698 -0.043627
v 0.022206 0.048409 -0.051358
v 0.011256 0.048409 -0.055869
v 0.011256 0.040036 -0.055222
v 0.017049 0.054207 -0.050068
v 0.017695 0.050986 -0.042338
v 0.008677 0.046478 -0.042338
v 0.011898 0.040036 -0.052646
v 0.014475 0.044546 -0.042985
v 0.021560 0.041970 -0.052646
v 0.008033 0.051630 -0.046849
v 0.007387 0.045189 -0.050713
v 0.022206 0.045834 -0.050713
v 0.020272 0.040681 -0.055222
f 265 254 269 
f 249 252 253 
f 247 246 253 
f 248 251 257 
f 251 248 258 
f 255 250 258 
f 255 258 259 
f 245 255 259 
f 246 247 260 
f 253 246 260 
f 250 253 260 
f 247 257 260 
f 257 251 260 
f 258 250 260 
f 251 258 260 
f 253 252 261 
f 247 253 261 
f 257 247 261 
f 245 249 262 
f 249 253 262 
f 253 256 262 
f 249 245 263 
f 245 259 263 
f 252 249 264 
f 249 263 264 
f 263 254 264 
f 252 264 265 
f 264 254 265 
f 253 250 266 
f 250 255 266 
f 256 253 266 
f 256 266 267 
f 255 245 267 
f 245 262 267 
f 262 256 267 
f 266 255 267 
f 248 257 268 
f 261 252 268 
f 257 261 268 
f 265 248 268 
f 252 265 268 
f 258 248 269 
f 259 258 269 
f 254 263 269 
f 263 259 269 
f 248 265 269 
o convex_6
v 0.018340 0.050987 -0.034607
v 0.007387 0.047767 -0.035896
v 0.008676 0.047123 -0.042338
v 0.011898 0.056142 -0.035252
v 0.015762 0.053563 -0.042338
v 0.016406 0.045833 -0.042338
v 0.015118 0.045189 -0.034607
v 0.010609 0.053563 -0.042338
v 0.007387 0.050987 -0.034607
v 0.010609 0.045189 -0.042338
v 0.011254 0.045189 -0.034607
v 0.017695 0.050987 -0.042338
v 0.014473 0.055497 -0.034607
v 0.018340 0.048411 -0.034607
f 275 281 283 
f 272 274 275 
f 273 274 277 
f 274 272 277 
f 272 271 278 
f 276 270 278 
f 277 272 278 
f 273 277 278 
f 271 272 279 
f 272 275 279 
f 275 276 279 
f 279 276 280 
f 278 271 280 
f 276 278 280 
f 271 279 280 
f 274 270 281 
f 275 274 281 
f 270 274 282 
f 274 273 282 
f 278 270 282 
f 273 278 282 
f 270 276 283 
f 276 275 283 
f 281 270 283 
o convex_7
v -0.006785 -0.059186 -0.003680
v 0.004166 -0.052100 0.001473
v 0.004166 -0.052745 0.001473
v -0.011297 -0.063051 0.001473
v -0.009363 -0.052100 0.001473
v 0.000943 -0.052100 -0.006258
v -0.005499 -0.062406 0.000829
v -0.009363 -0.056610 -0.002392
v -0.002922 -0.052100 -0.005613
v 0.001587 -0.053390 -0.004968
v -0.004852 -0.059829 -0.003036
v -0.011297 -0.055967 0.000829
f 288 291 295 
f 286 285 287 
f 287 285 288 
f 288 285 289 
f 286 287 290 
f 284 287 291 
f 288 289 292 
f 289 284 292 
f 284 291 292 
f 291 288 292 
f 285 286 293 
f 289 285 293 
f 286 290 293 
f 293 290 294 
f 287 284 294 
f 284 289 294 
f 290 287 294 
f 289 293 294 
f 287 288 295 
f 291 287 295 
o convex_8
v 0.017052 -0.046301 0.001473
v 0.003522 -0.046946 -0.017211
v 0.001591 -0.049522 -0.013988
v -0.010009 -0.046301 0.001473
v -0.009362 -0.052098 0.001473
v 0.006096 -0.052098 0.000828
v 0.006096 -0.046301 -0.017211
v 0.001591 -0.052098 -0.007549
v 0.013828 -0.049522 0.000828
v -0.001630 -0.048878 -0.012055
v 0.004163 -0.049522 -0.013988
v 0.016403 -0.046946 -0.001105
v -0.000343 -0.046301 -0.013345
v 0.008673 -0.051454 0.001473
v -0.000987 -0.052098 -0.007549
f 300 305 310 
f 296 299 300 
f 299 296 302 
f 301 300 303 
f 297 298 305 
f 300 299 305 
f 298 297 306 
f 297 302 306 
f 303 298 306 
f 304 303 306 
f 304 306 307 
f 302 296 307 
f 296 304 307 
f 306 302 307 
f 302 297 308 
f 299 302 308 
f 297 305 308 
f 305 299 308 
f 296 300 309 
f 300 301 309 
f 301 303 309 
f 303 304 309 
f 304 296 309 
f 298 303 310 
f 303 300 310 
f 305 298 310 
o convex_9
v 0.031870 -0.058542 0.023381
v 0.010609 -0.057897 0.018869
v 0.010609 -0.059185 0.019515
v 0.010609 -0.054033 0.027888
v 0.020276 -0.061119 0.029178
v 0.013187 -0.054033 0.018869
v 0.026715 -0.059830 0.020159
v 0.028647 -0.059185 0.029178
v 0.011254 -0.060474 0.025311
v 0.022203 -0.055322 0.025311
v 0.031870 -0.060474 0.026601
v 0.022848 -0.056610 0.018869
v 0.013830 -0.061119 0.025311
v 0.010609 -0.057897 0.027888
v 0.017052 -0.054033 0.022092
v 0.010609 -0.054033 0.018869
v 0.030580 -0.058542 0.027888
v 0.031225 -0.060474 0.023381
v 0.022848 -0.059830 0.019515
v 0.028001 -0.057254 0.020804
v 0.027358 -0.061119 0.028532
f 323 328 331 
f 312 313 314 
f 314 315 318 
f 312 316 322 
f 319 313 323 
f 315 319 323 
f 314 313 324 
f 315 314 324 
f 313 319 324 
f 319 315 324 
f 316 314 325 
f 314 320 325 
f 312 314 326 
f 316 312 326 
f 314 316 326 
f 314 318 327 
f 311 320 327 
f 320 314 327 
f 321 311 327 
f 318 321 327 
f 317 311 328 
f 311 321 328 
f 328 323 329 
f 313 312 329 
f 312 322 329 
f 322 317 329 
f 323 313 329 
f 317 328 329 
f 311 317 330 
f 320 311 330 
f 322 316 330 
f 317 322 330 
f 316 325 330 
f 325 320 330 
f 318 315 331 
f 321 318 331 
f 315 323 331 
f 328 321 331 
o convex_10
v -0.022892 0.028437 -0.019144
v -0.013877 0.044544 -0.018500
v -0.022249 0.044544 -0.018500
v -0.015808 0.044544 -0.034607
v -0.028049 0.036169 -0.032674
v -0.015808 0.031659 -0.034607
v -0.012586 0.032304 -0.018500
v -0.024180 0.044544 -0.034607
v -0.027402 0.037456 -0.018500
v -0.023538 0.029082 -0.034607
v -0.017096 0.027793 -0.018500
v -0.027402 0.031659 -0.018500
v -0.012586 0.041322 -0.024943
v -0.013877 0.034237 -0.031384
v -0.024826 0.044544 -0.028808
v -0.026758 0.032304 -0.034607
v -0.019674 0.029082 -0.034607
v -0.012586 0.043900 -0.018500
v -0.025470 0.041965 -0.018500
v -0.015808 0.028437 -0.019144
f 342 348 351 
f 334 333 335 
f 333 334 338 
f 334 335 339 
f 335 337 339 
f 338 334 340 
f 339 337 341 
f 338 340 342 
f 332 341 342 
f 340 336 343 
f 341 332 343 
f 332 342 343 
f 342 340 343 
f 344 338 345 
f 337 335 345 
f 338 337 345 
f 335 344 345 
f 334 339 346 
f 339 336 346 
f 336 340 346 
f 336 339 347 
f 339 341 347 
f 343 336 347 
f 341 343 347 
f 341 337 348 
f 342 341 348 
f 335 333 349 
f 333 338 349 
f 344 335 349 
f 338 344 349 
f 340 334 350 
f 334 346 350 
f 346 340 350 
f 337 338 351 
f 338 342 351 
f 348 337 351 
o convex_11
v -0.004854 -0.017308 -0.048136
v -0.020962 -0.024394 -0.055223
v -0.020962 -0.021172 -0.055223
v -0.016451 -0.018598 -0.041050
v -0.008077 -0.026971 -0.053934
v -0.010010 -0.023749 -0.041050
v -0.013873 -0.014086 -0.052001
v -0.005499 -0.020531 -0.055223
v -0.008720 -0.016663 -0.041050
v -0.017739 -0.014086 -0.049424
v -0.017739 -0.026971 -0.053289
v -0.006144 -0.020531 -0.041050
v -0.006144 -0.014731 -0.050713
v -0.013873 -0.023749 -0.041050
v -0.005499 -0.023749 -0.055223
v -0.019029 -0.018598 -0.055223
v -0.010010 -0.027616 -0.055223
v -0.020317 -0.021817 -0.050069
v -0.015806 -0.014086 -0.047494
v -0.004854 -0.022462 -0.050069
v -0.010010 -0.027616 -0.053289
v -0.016451 -0.021172 -0.041050
v -0.014516 -0.016663 -0.041050
v -0.005499 -0.015375 -0.047494
v -0.020317 -0.025039 -0.053289
v -0.018384 -0.014731 -0.048780
v -0.007432 -0.019241 -0.055223
v -0.006787 -0.021817 -0.041050
f 371 363 379 
f 353 354 359 
f 355 357 360 
f 360 357 363 
f 352 359 364 
f 357 355 365 
f 353 359 366 
f 359 354 367 
f 361 358 367 
f 354 361 367 
f 362 353 368 
f 353 366 368 
f 366 356 368 
f 354 353 369 
f 358 361 370 
f 364 358 370 
f 359 352 371 
f 352 363 371 
f 356 366 371 
f 366 359 371 
f 356 357 372 
f 357 365 372 
f 365 362 372 
f 368 356 372 
f 362 368 372 
f 365 355 373 
f 355 369 373 
f 355 360 374 
f 360 370 374 
f 370 361 374 
f 363 352 375 
f 360 363 375 
f 352 364 375 
f 370 360 375 
f 364 370 375 
f 353 362 376 
f 362 365 376 
f 369 353 376 
f 365 373 376 
f 373 369 376 
f 361 354 377 
f 354 369 377 
f 369 355 377 
f 355 374 377 
f 374 361 377 
f 364 359 378 
f 358 364 378 
f 359 367 378 
f 367 358 378 
f 357 356 379 
f 363 357 379 
f 356 371 379 
o convex_12
v -0.011942 -0.026327 -0.037183
v -0.011942 -0.016019 -0.030742
v -0.008722 -0.016665 -0.030098
v -0.008076 -0.017309 -0.041049
v -0.016451 -0.018597 -0.041049
v -0.018384 -0.025038 -0.030098
v -0.006144 -0.025038 -0.030098
v -0.006144 -0.019885 -0.041049
v -0.018384 -0.019242 -0.030098
v -0.015161 -0.023105 -0.041049
v -0.015805 -0.027616 -0.030742
v -0.005499 -0.019885 -0.030098
v -0.007434 -0.026327 -0.033319
v -0.013873 -0.016665 -0.041049
v -0.018384 -0.025038 -0.033964
v -0.010009 -0.023750 -0.041049
v -0.009366 -0.027616 -0.030098
v -0.016451 -0.017309 -0.030098
v -0.015805 -0.026970 -0.034608
v -0.005499 -0.024393 -0.032031
f 386 392 399 
f 381 382 383 
f 382 385 386 
f 384 383 387 
f 385 382 388 
f 384 387 389 
f 383 382 391 
f 382 386 391 
f 387 383 391 
f 381 383 393 
f 383 384 393 
f 388 384 394 
f 385 388 394 
f 384 389 394 
f 390 385 394 
f 380 389 395 
f 389 387 395 
f 392 380 395 
f 387 392 395 
f 386 385 396 
f 385 390 396 
f 380 392 396 
f 392 386 396 
f 382 381 397 
f 388 382 397 
f 384 388 397 
f 381 393 397 
f 393 384 397 
f 389 380 398 
f 394 389 398 
f 390 394 398 
f 396 390 398 
f 380 396 398 
f 391 386 399 
f 387 391 399 
f 392 387 399 
o convex_13
v 0.015116 0.045189 -0.034607
v 0.010611 0.054850 -0.018500
v 0.009322 0.054850 -0.018500
v 0.009965 0.037457 -0.018500
v 0.005455 0.050987 -0.032029
v 0.018985 0.043901 -0.018500
v 0.013828 0.058075 -0.029451
v 0.004166 0.038103 -0.019789
v 0.018339 0.050987 -0.034607
v 0.004166 0.050343 -0.018500
v 0.008677 0.058075 -0.027518
v 0.011253 0.056141 -0.034607
v 0.007387 0.047124 -0.034607
v 0.017695 0.049695 -0.018500
v 0.015116 0.037457 -0.019144
v 0.018339 0.047766 -0.034607
v 0.013828 0.058075 -0.026232
v 0.004166 0.038747 -0.021722
v 0.018339 0.051631 -0.029451
v 0.017695 0.040036 -0.018500
v 0.010611 0.045189 -0.034607
v 0.004811 0.050987 -0.029451
v 0.004166 0.038103 -0.018500
v 0.014473 0.055495 -0.034607
f 411 406 423 
f 401 402 403 
f 401 403 405 
f 403 402 409 
f 409 402 410 
f 408 400 411 
f 410 406 411 
f 404 410 411 
f 411 400 412 
f 404 411 412 
f 401 405 413 
f 403 407 414 
f 400 408 415 
f 408 405 415 
f 414 400 415 
f 402 401 416 
f 410 402 416 
f 406 410 416 
f 401 413 416 
f 407 409 417 
f 404 412 417 
f 414 407 417 
f 405 408 418 
f 408 406 418 
f 413 405 418 
f 406 416 418 
f 416 413 418 
f 405 403 419 
f 403 414 419 
f 415 405 419 
f 414 415 419 
f 412 400 420 
f 400 414 420 
f 417 412 420 
f 414 417 420 
f 410 404 421 
f 409 410 421 
f 404 417 421 
f 417 409 421 
f 407 403 422 
f 403 409 422 
f 409 407 422 
f 406 408 423 
f 408 411 423 
o convex_14
v -0.021609 -0.041791 0.026599
v -0.028048 -0.043079 0.018225
v -0.028048 -0.044366 0.018871
v -0.015807 -0.046300 0.018225
v -0.026759 -0.045655 0.028534
v -0.033846 -0.038569 0.022091
v -0.020319 -0.041147 0.020159
v -0.015807 -0.046300 0.025957
v -0.033846 -0.041147 0.026599
v -0.031267 -0.038569 0.025957
v -0.016453 -0.042435 0.023379
v -0.024186 -0.046300 0.018871
v -0.027403 -0.041791 0.028534
v -0.029334 -0.039215 0.019515
v -0.026113 -0.046300 0.026599
v -0.020965 -0.040503 0.024022
v -0.032559 -0.041791 0.020802
v -0.015807 -0.045011 0.018225
v -0.029334 -0.038569 0.021448
f 439 430 442 
f 429 432 433 
f 424 431 434 
f 426 425 435 
f 425 427 435 
f 427 431 435 
f 431 424 436 
f 428 431 436 
f 432 428 436 
f 433 432 436 
f 424 433 436 
f 431 428 438 
f 428 432 438 
f 426 435 438 
f 435 431 438 
f 433 424 439 
f 434 430 439 
f 424 434 439 
f 425 426 440 
f 432 429 440 
f 437 425 440 
f 429 437 440 
f 438 432 440 
f 426 438 440 
f 427 425 441 
f 431 427 441 
f 430 434 441 
f 434 431 441 
f 425 437 441 
f 437 430 441 
f 429 433 442 
f 437 429 442 
f 430 437 442 
f 433 439 442 
o convex_15
v -0.008072 -0.037925 0.025954
v 0.026072 -0.037925 0.013711
v 0.025424 -0.037925 0.016288
v -0.015807 -0.046301 0.025954
v 0.003521 -0.037925 -0.026231
v 0.017697 -0.046301 -0.000456
v 0.013183 -0.046301 0.027237
v 0.004165 -0.046301 -0.018495
v -0.015807 -0.037925 -0.006257
v 0.026072 -0.038569 -0.006257
v 0.009961 -0.037925 0.031755
v -0.012585 -0.046301 0.005333
v 0.020915 -0.046301 0.016288
v -0.002919 -0.046301 0.029820
v 0.008026 -0.040503 -0.024296
v 0.001586 -0.037925 0.031755
v -0.015807 -0.043079 0.023377
v 0.020915 -0.042433 0.022730
v -0.015160 -0.038569 -0.007546
v 0.006739 -0.046301 -0.017206
v 0.015762 -0.037925 0.029173
v -0.011937 -0.037925 0.018223
v 0.026072 -0.037925 -0.006257
v -0.015807 -0.046301 0.018223
v 0.007383 -0.046301 0.029820
v 0.002878 -0.039215 -0.025584
v 0.008026 -0.037925 -0.025584
v 0.020915 -0.046301 0.008557
v 0.025424 -0.040503 0.012423
v -0.010650 -0.046301 0.001474
v -0.015807 -0.037925 0.000185
v 0.006096 -0.041147 0.031755
v -0.004850 -0.037925 0.029173
v 0.022202 -0.043723 0.019506
v 0.002234 -0.046301 -0.016565
v 0.013831 -0.040503 0.029814
v 0.018340 -0.046301 0.022730
v 0.022850 -0.039215 0.021442
v -0.015807 -0.045011 0.025954
f 458 475 481 
f 445 444 443 
f 443 444 447 
f 446 448 449 
f 448 446 450 
f 443 447 451 
f 445 443 453 
f 450 446 454 
f 449 448 455 
f 446 449 456 
f 453 443 458 
f 446 456 458 
f 451 446 459 
f 451 447 461 
f 448 450 462 
f 452 448 462 
f 450 457 462 
f 457 452 462 
f 445 453 463 
f 443 451 464 
f 459 443 464 
f 447 444 465 
f 444 452 465 
f 446 451 466 
f 454 446 466 
f 451 461 466 
f 461 454 466 
f 456 449 467 
f 447 457 468 
f 457 450 468 
f 461 447 468 
f 457 447 469 
f 452 457 469 
f 447 465 469 
f 465 452 469 
f 448 452 470 
f 455 448 470 
f 455 470 471 
f 444 445 471 
f 452 444 471 
f 470 452 471 
f 450 454 472 
f 454 461 472 
f 451 459 473 
f 464 451 473 
f 459 464 473 
f 453 458 474 
f 458 456 474 
f 467 453 474 
f 456 467 474 
f 458 443 475 
f 455 471 476 
f 471 445 476 
f 468 450 477 
f 461 468 477 
f 450 472 477 
f 472 461 477 
f 449 460 478 
f 463 453 478 
f 460 463 478 
f 467 449 478 
f 453 467 478 
f 449 455 479 
f 460 449 479 
f 455 476 479 
f 476 460 479 
f 445 463 480 
f 463 460 480 
f 476 445 480 
f 460 476 480 
f 446 458 481 
f 443 459 481 
f 459 446 481 
f 475 443 481 
o convex_16
v -0.015807 0.033591 -0.036541
v -0.026760 0.032947 -0.035252
v -0.026115 0.027795 -0.042982
v -0.022893 0.036168 -0.042982
v -0.018386 0.025862 -0.042982
v -0.023538 0.040679 -0.034607
v -0.019029 0.029081 -0.034607
v -0.019674 0.035522 -0.042982
v -0.019674 0.040679 -0.034607
v -0.024182 0.029081 -0.034607
v -0.026115 0.032304 -0.042982
v -0.022893 0.025216 -0.042338
v -0.015807 0.031659 -0.034607
v -0.017096 0.031659 -0.042982
v -0.026760 0.036168 -0.034607
v -0.016453 0.036811 -0.035252
v -0.017096 0.027149 -0.042982
f 495 482 498 
f 484 485 486 
f 486 485 489 
f 485 487 490 
f 487 488 490 
f 489 485 490 
f 483 484 491 
f 488 487 491 
f 484 483 492 
f 485 484 492 
f 487 485 492 
f 484 486 493 
f 486 488 493 
f 491 484 493 
f 488 491 493 
f 488 486 494 
f 490 488 494 
f 486 489 495 
f 483 491 496 
f 491 487 496 
f 492 483 496 
f 487 492 496 
f 489 490 497 
f 494 482 497 
f 490 494 497 
f 495 489 497 
f 482 495 497 
f 482 494 498 
f 494 486 498 
f 486 495 498 
o convex_17
v -0.017099 0.053561 -0.023012
v -0.022892 0.040679 -0.035251
v -0.020316 0.040679 -0.035251
v -0.020960 0.047122 -0.042337
v -0.027403 0.050985 -0.023012
v -0.016454 0.045833 -0.022368
v -0.015164 0.045191 -0.035251
v -0.024180 0.048410 -0.018500
v -0.026757 0.050341 -0.032028
v -0.023537 0.054853 -0.018500
v -0.020316 0.050986 -0.035896
v -0.014522 0.050985 -0.028165
v -0.017099 0.053561 -0.018500
v -0.024180 0.043258 -0.041048
v -0.027403 0.047122 -0.026233
v -0.019031 0.042613 -0.041048
v -0.014522 0.045833 -0.026233
v -0.020319 0.044546 -0.023012
v -0.024180 0.053561 -0.026875
v -0.024180 0.049697 -0.037830
v -0.015164 0.047766 -0.035251
v -0.019675 0.047767 -0.018500
v -0.013876 0.047767 -0.026233
v -0.019675 0.054853 -0.020434
v -0.017742 0.041969 -0.036540
v -0.025469 0.045833 -0.024944
v -0.027403 0.047122 -0.030096
v -0.017099 0.044546 -0.023657
v -0.026113 0.050341 -0.019147
v -0.026757 0.052274 -0.026875
v -0.018386 0.046477 -0.041048
v -0.016454 0.051630 -0.030741
v -0.016454 0.049055 -0.019791
f 515 521 531 
f 508 506 511 
f 510 499 511 
f 501 500 514 
f 500 512 514 
f 512 502 514 
f 500 501 516 
f 517 509 518 
f 509 502 518 
f 502 512 518 
f 512 507 518 
f 511 506 520 
f 506 516 520 
f 510 511 521 
f 515 505 521 
f 505 519 521 
f 519 510 521 
f 511 499 522 
f 508 511 522 
f 517 508 522 
f 509 517 522 
f 501 514 523 
f 514 505 523 
f 505 515 523 
f 506 513 524 
f 513 500 524 
f 500 516 524 
f 516 506 524 
f 503 507 525 
f 512 500 525 
f 507 512 525 
f 513 503 525 
f 500 513 525 
f 515 504 526 
f 516 501 526 
f 504 520 526 
f 520 516 526 
f 501 523 526 
f 523 515 526 
f 508 503 527 
f 506 508 527 
f 503 513 527 
f 513 506 527 
f 507 503 528 
f 503 508 528 
f 508 517 528 
f 517 518 528 
f 518 507 528 
f 502 509 529 
f 505 514 529 
f 514 502 529 
f 519 505 529 
f 519 529 530 
f 499 510 530 
f 510 519 530 
f 522 499 530 
f 509 522 530 
f 529 509 530 
f 504 515 531 
f 520 504 531 
f 511 520 531 
f 521 511 531 
o convex_18
v -0.008723 0.062583 0.016932
v -0.019672 0.027149 -0.018500
v -0.023538 0.028440 -0.018500
v -0.018387 0.027149 0.021444
v -0.033844 0.045189 0.005979
v -0.003569 0.044549 -0.018495
v -0.023538 0.054850 -0.018500
v -0.003569 0.027149 0.024021
v -0.034490 0.028440 -0.003678
v -0.003569 0.027149 -0.018500
v -0.003569 0.051631 0.024660
v -0.026115 0.053559 0.015003
v -0.010012 0.064518 0.002767
v -0.003569 0.058716 0.004693
v -0.028047 0.027149 0.013712
v -0.032556 0.040039 -0.010763
v -0.010655 0.051631 0.024665
v -0.025470 0.056137 0.011134
v -0.028047 0.032954 -0.018500
v -0.028690 0.045189 0.015003
v -0.015809 0.062583 -0.004969
v -0.013875 0.061291 -0.007542
v -0.004212 0.061291 0.016289
v -0.033844 0.027149 0.001476
v -0.012586 0.064518 0.007914
v -0.003569 0.054850 -0.005608
v -0.033201 0.043902 -0.006899
v -0.029336 0.052275 0.002763
v -0.033844 0.040039 0.007909
v -0.018387 0.054850 -0.018500
v -0.010012 0.058072 0.022087
v -0.024184 0.049052 0.018223
v -0.022892 0.027149 0.019510
v -0.008723 0.047117 0.025312
v -0.025470 0.052275 -0.018500
v -0.035136 0.031662 0.002115
v -0.031913 0.043902 0.011778
v -0.032556 0.027149 -0.006256
v -0.004212 0.028440 0.024665
v -0.011943 0.061939 0.016289
v -0.035136 0.033594 -0.003031
v -0.005500 0.058072 0.022087
v -0.007435 0.063866 0.006623
v -0.026758 0.054850 0.003406
v -0.014521 0.063866 0.000186
v -0.011298 0.062583 -0.003678
v -0.032556 0.047761 0.007266
v -0.010012 0.054850 0.024021
v -0.031913 0.048408 0.000833
v -0.034490 0.031019 -0.005608
v -0.007435 0.063866 0.013068
v -0.019672 0.046473 0.020801
v -0.003569 0.058716 0.019510
v -0.006146 0.051631 0.025312
v -0.008077 0.027796 0.024021
v -0.024184 0.056785 0.012425
v -0.026758 0.030375 -0.018500
v -0.024827 0.054206 0.015646
v -0.024827 0.053559 -0.018500
v -0.033844 0.029084 0.004050
v -0.030624 0.040039 0.013064
v -0.021607 0.055494 -0.018500
v -0.028047 0.053559 0.011134
v -0.033201 0.045833 0.008557
f 594 578 595 
f 533 534 538 
f 535 533 539 
f 533 538 541 
f 539 533 541 
f 537 539 541 
f 539 537 542 
f 542 537 545 
f 533 535 546 
f 538 534 550 
f 533 546 555 
f 545 537 557 
f 537 541 561 
f 541 538 561 
f 553 537 561 
f 543 551 563 
f 546 535 564 
f 535 548 564 
f 563 551 564 
f 548 535 565 
f 538 550 566 
f 550 547 566 
f 547 558 566 
f 540 555 567 
f 560 536 567 
f 551 543 568 
f 534 533 569 
f 533 555 569 
f 555 540 569 
f 539 542 570 
f 532 556 571 
f 562 532 571 
f 536 558 572 
f 558 547 572 
f 540 567 572 
f 567 536 572 
f 554 532 573 
f 532 562 573 
f 554 545 574 
f 545 557 574 
f 557 544 574 
f 552 538 575 
f 559 549 575 
f 538 559 575 
f 544 552 576 
f 556 544 576 
f 549 556 576 
f 552 575 576 
f 575 549 576 
f 552 544 577 
f 537 553 577 
f 553 552 577 
f 557 537 577 
f 544 557 577 
f 563 548 579 
f 573 562 579 
f 558 536 580 
f 536 578 580 
f 578 559 580 
f 547 550 581 
f 550 569 581 
f 569 540 581 
f 540 572 581 
f 572 547 581 
f 532 554 582 
f 556 532 582 
f 544 556 582 
f 554 574 582 
f 574 544 582 
f 548 563 583 
f 564 548 583 
f 563 564 583 
f 542 545 584 
f 545 554 584 
f 573 542 584 
f 554 573 584 
f 548 565 585 
f 570 542 585 
f 565 570 585 
f 542 573 585 
f 579 548 585 
f 573 579 585 
f 535 539 586 
f 565 535 586 
f 539 570 586 
f 570 565 586 
f 556 549 587 
f 571 556 587 
f 550 534 588 
f 534 569 588 
f 569 550 588 
f 543 563 589 
f 562 571 589 
f 579 562 589 
f 563 579 589 
f 587 543 589 
f 571 587 589 
f 559 538 590 
f 538 566 590 
f 566 558 590 
f 558 580 590 
f 580 559 590 
f 555 546 591 
f 546 560 591 
f 567 555 591 
f 560 567 591 
f 560 546 592 
f 546 564 592 
f 564 551 592 
f 551 568 592 
f 568 560 592 
f 538 552 593 
f 552 553 593 
f 561 538 593 
f 553 561 593 
f 549 559 594 
f 559 578 594 
f 543 587 594 
f 587 549 594 
f 536 560 595 
f 568 543 595 
f 560 568 595 
f 578 536 595 
f 543 594 595 
o convex_19
v 0.027360 0.036814 0.002119
v -0.003566 0.027149 -0.018491
v -0.003566 0.044543 -0.018491
v -0.003566 0.027149 0.024664
v -0.003566 0.058074 0.018220
v 0.015763 0.051629 -0.018500
v 0.022847 0.027149 -0.007540
v 0.014473 0.053562 0.013708
v 0.018339 0.027149 0.018220
v 0.003524 0.059358 -0.001101
v -0.002918 0.050342 0.024664
v 0.014473 0.057428 0.006627
v 0.018339 0.041327 -0.018500
v -0.003566 0.056138 -0.004320
v 0.008032 0.054208 -0.018491
v 0.015763 0.027149 -0.015276
v 0.022205 0.048406 -0.006255
v 0.017694 0.041970 0.016285
v 0.024781 0.027149 0.007265
v 0.026713 0.038104 -0.004320
v 0.010611 0.059361 0.000834
v 0.024781 0.041970 0.005980
v 0.006742 0.060008 0.010489
v 0.013184 0.029082 0.020798
v 0.011256 0.049696 0.018863
v 0.008676 0.057428 0.014997
v 0.018984 0.047116 -0.018500
v 0.021560 0.027795 0.015001
v -0.002918 0.059358 0.009200
v 0.018339 0.053562 0.006627
v 0.015763 0.055495 -0.004320
v 0.027360 0.032948 -0.000454
v 0.011897 0.054205 -0.018500
v -0.003566 0.055495 0.022086
v 0.001590 0.027149 0.024017
v 0.025426 0.042613 0.002119
v 0.000948 0.027149 -0.018491
v 0.018339 0.049049 0.012424
v 0.026071 0.034881 -0.005609
v 0.010611 0.045183 0.020156
v 0.020271 0.037460 0.015001
v 0.020271 0.051629 -0.002389
v -0.000987 0.058715 -0.000454
v 0.002879 0.060008 0.002123
v 0.012542 0.057428 0.011777
v 0.000303 0.060008 0.012419
v 0.024781 0.027149 -0.002389
v 0.017694 0.032948 0.018220
v 0.015118 0.036814 -0.018500
v 0.026713 0.039394 -0.003678
v 0.009321 0.052915 0.018220
v 0.007390 0.059358 -0.001743
v -0.003566 0.052915 -0.008828
v 0.018339 0.049049 -0.018500
v 0.004811 0.058715 0.014997
v 0.021560 0.027149 -0.009475
v 0.020915 0.050339 -0.006255
v -0.003566 0.058715 0.004045
v 0.008676 0.060008 0.007911
v 0.024781 0.038747 0.007265
v 0.013184 0.058071 -0.000454
f 637 626 656 
f 598 597 599 
f 598 599 600 
f 599 597 602 
f 599 602 604 
f 598 600 609 
f 602 597 611 
f 604 602 614 
f 608 601 622 
f 614 596 623 
f 604 614 623 
f 596 614 627 
f 597 598 628 
f 601 608 628 
f 598 610 628 
f 626 601 628 
f 600 599 629 
f 599 606 629 
f 599 604 630 
f 606 599 630 
f 604 619 630 
f 619 606 630 
f 617 596 631 
f 625 617 631 
f 611 597 632 
f 603 620 633 
f 620 613 633 
f 625 603 633 
f 617 625 633 
f 608 622 634 
f 622 615 634 
f 615 627 634 
f 606 619 635 
f 620 606 635 
f 633 613 636 
f 617 633 636 
f 607 625 637 
f 631 612 637 
f 625 631 637 
f 605 610 638 
f 610 609 638 
f 605 638 639 
f 621 603 640 
f 618 621 640 
f 603 625 640 
f 625 607 640 
f 624 600 641 
f 639 624 641 
f 618 639 641 
f 614 602 642 
f 627 614 642 
f 602 634 642 
f 634 627 642 
f 619 604 643 
f 613 620 643 
f 604 623 643 
f 635 619 643 
f 620 635 643 
f 636 613 643 
f 623 636 643 
f 608 611 644 
f 597 628 644 
f 628 608 644 
f 632 597 644 
f 611 632 644 
f 615 622 645 
f 596 627 645 
f 627 615 645 
f 631 596 645 
f 612 631 645 
f 620 603 646 
f 606 620 646 
f 603 621 646 
f 629 606 646 
f 621 629 646 
f 610 605 647 
f 628 610 647 
f 616 628 647 
f 605 639 647 
f 639 616 647 
f 598 609 648 
f 609 610 648 
f 610 598 648 
f 622 601 649 
f 612 645 649 
f 645 622 649 
f 621 618 650 
f 600 629 650 
f 629 621 650 
f 641 600 650 
f 618 641 650 
f 602 611 651 
f 611 608 651 
f 634 602 651 
f 608 634 651 
f 601 626 652 
f 637 612 652 
f 626 637 652 
f 649 601 652 
f 612 649 652 
f 609 600 653 
f 600 624 653 
f 638 609 653 
f 624 639 653 
f 639 638 653 
f 607 616 654 
f 616 639 654 
f 639 618 654 
f 640 607 654 
f 618 640 654 
f 596 617 655 
f 623 596 655 
f 636 623 655 
f 617 636 655 
f 616 607 656 
f 628 616 656 
f 626 628 656 
f 607 637 656 
o convex_20
v 0.022207 -0.039858 -0.053933
v 0.022207 -0.025040 -0.050068
v 0.024780 -0.025686 -0.041694
v 0.032515 -0.033414 -0.055867
v 0.015763 -0.032770 -0.055222
v 0.024780 -0.033414 -0.041694
v 0.018342 -0.030839 -0.041694
v 0.031226 -0.037279 -0.052001
v 0.028648 -0.026330 -0.052646
v 0.028004 -0.028907 -0.041694
v 0.018985 -0.026330 -0.041694
v 0.020274 -0.025686 -0.053290
v 0.017696 -0.037923 -0.055222
v 0.027359 -0.039858 -0.055222
v 0.019630 -0.030195 -0.055867
v 0.029935 -0.026974 -0.049424
v 0.020274 -0.033414 -0.042341
v 0.029935 -0.030195 -0.055867
v 0.032515 -0.032770 -0.052646
v 0.017052 -0.036635 -0.052001
v 0.029293 -0.039211 -0.052646
v 0.028004 -0.031483 -0.041694
v 0.018342 -0.026330 -0.051357
v 0.017052 -0.029551 -0.044917
v 0.031870 -0.036635 -0.055867
v 0.019630 -0.035990 -0.055867
v 0.015763 -0.035346 -0.053933
f 680 661 683 
f 662 659 663 
f 658 659 665 
f 659 662 666 
f 659 658 667 
f 663 659 667 
f 658 665 668 
f 657 669 670 
f 661 668 671 
f 665 659 672 
f 660 665 672 
f 659 666 672 
f 657 662 673 
f 662 663 673 
f 665 660 674 
f 668 665 674 
f 660 671 674 
f 671 668 674 
f 660 672 675 
f 672 666 675 
f 669 657 676 
f 657 673 676 
f 673 663 676 
f 662 657 677 
f 657 670 677 
f 666 662 678 
f 664 675 678 
f 675 666 678 
f 662 677 678 
f 677 664 678 
f 667 658 679 
f 668 661 679 
f 658 668 679 
f 663 667 680 
f 667 679 680 
f 679 661 680 
f 671 660 681 
f 660 675 681 
f 675 664 681 
f 664 677 681 
f 677 670 681 
f 669 661 682 
f 670 669 682 
f 661 671 682 
f 681 670 682 
f 671 681 682 
f 661 669 683 
f 676 663 683 
f 669 676 683 
f 663 680 683 
o convex_21
v 0.021563 -0.032771 -0.032031
v 0.024783 -0.020529 -0.030098
v 0.026070 -0.021175 -0.030098
v 0.025426 -0.025685 -0.041693
v 0.015764 -0.025039 -0.034608
v 0.027359 -0.032125 -0.041693
v 0.018342 -0.030837 -0.041693
v 0.029936 -0.028904 -0.032031
v 0.017053 -0.030192 -0.030098
v 0.028002 -0.030837 -0.030098
v 0.020918 -0.025039 -0.041693
v 0.018342 -0.021820 -0.030098
v 0.029936 -0.025685 -0.034608
v 0.020918 -0.021820 -0.035895
v 0.020918 -0.032771 -0.041693
v 0.029291 -0.024396 -0.030098
v 0.016410 -0.030192 -0.033964
v 0.026070 -0.022463 -0.035252
v 0.024138 -0.032771 -0.031387
v 0.017698 -0.028260 -0.041693
v 0.017698 -0.023108 -0.035895
v 0.015764 -0.025685 -0.030743
v 0.028002 -0.029548 -0.041693
v 0.018986 -0.032125 -0.030743
f 702 693 707 
f 687 689 690 
f 686 685 692 
f 689 691 693 
f 686 692 693 
f 687 690 694 
f 692 685 695 
f 687 694 697 
f 695 685 697 
f 690 689 698 
f 686 693 699 
f 693 691 699 
f 696 686 699 
f 691 696 699 
f 690 698 700 
f 685 686 701 
f 686 696 701 
f 696 687 701 
f 697 685 701 
f 687 697 701 
f 689 693 702 
f 684 698 702 
f 698 689 702 
f 694 690 703 
f 700 688 703 
f 690 700 703 
f 688 695 704 
f 697 694 704 
f 695 697 704 
f 703 688 704 
f 694 703 704 
f 692 695 705 
f 695 688 705 
f 688 700 705 
f 700 692 705 
f 689 687 706 
f 691 689 706 
f 687 696 706 
f 696 691 706 
f 693 692 707 
f 698 684 707 
f 692 700 707 
f 700 698 707 
f 684 702 707 
o convex_22
v -0.012586 0.038103 -0.025587
v 0.004166 0.049055 -0.018500
v 0.004166 0.049055 -0.019791
v 0.003520 0.037459 -0.018500
v -0.000990 0.039392 -0.030097
v -0.012586 0.035524 -0.018500
v -0.012586 0.043255 -0.023010
v -0.010006 0.041323 -0.029452
v -0.011940 0.043900 -0.018500
v -0.006142 0.036814 -0.026875
v 0.004166 0.038749 -0.023655
v 0.000299 0.041969 -0.029452
v 0.002231 0.036813 -0.022366
v -0.010651 0.038103 -0.028805
v -0.010006 0.041968 -0.028805
f 710 719 722 
f 711 709 713 
f 708 713 714 
f 708 714 715 
f 709 710 716 
f 713 709 716 
f 710 714 716 
f 714 713 716 
f 710 709 718 
f 709 711 718 
f 712 715 719 
f 710 718 719 
f 718 712 719 
f 711 713 720 
f 717 712 720 
f 713 717 720 
f 718 711 720 
f 712 718 720 
f 713 708 721 
f 708 715 721 
f 715 712 721 
f 712 717 721 
f 717 713 721 
f 714 710 722 
f 715 714 722 
f 719 715 722 
