o convex_0
v 0.015512 0.037937 -0.042302
v -0.040605 -0.003036 -0.042302
v -0.039973 -0.008077 -0.042302
v 0.024337 -0.017542 -0.025277
v 0.025601 -0.030775 -0.042302
v -0.017899 0.022167 -0.025277
v -0.022947 -0.033303 -0.029692
v 0.037578 0.015238 -0.029692
v -0.014747 0.038569 -0.029692
v -0.031772 -0.011237 -0.025277
v -0.033036 0.024695 -0.042302
v 0.040106 -0.002404 -0.042302
v -0.016011 -0.037088 -0.042302
v 0.004791 -0.039616 -0.029692
v -0.037453 0.017134 -0.029692
v 0.033794 -0.016278 -0.025277
v 0.021817 0.034784 -0.029692
v 0.011096 0.024695 -0.025277
v 0.033794 0.022799 -0.042302
v -0.007810 0.040457 -0.042302
v -0.039973 -0.008077 -0.029692
v 0.001007 0.041097 -0.029692
v -0.034292 -0.021950 -0.042302
v 0.031274 -0.025103 -0.029692
v 0.004791 -0.039616 -0.042302
v 0.039474 -0.008077 -0.029692
v 0.025601 0.013974 -0.025277
v 0.034426 -0.020694 -0.042302
v 0.022449 -0.033303 -0.029692
v -0.009706 -0.038976 -0.029692
v -0.024211 0.033520 -0.029692
v -0.034292 -0.021950 -0.029692
v -0.022315 0.034784 -0.042302
v -0.039973 0.009565 -0.042302
v -0.040605 0.003885 -0.029692
v -0.006554 0.027848 -0.025277
v 0.029385 0.028480 -0.029692
v 0.039474 0.008933 -0.042302
v 0.040106 0.003253 -0.029692
v 0.027489 0.030376 -0.042302
v -0.027996 -0.014381 -0.025277
v 0.014880 -0.037088 -0.042302
v -0.029252 -0.028263 -0.042302
v -0.029884 0.001997 -0.025277
v 0.009832 0.039825 -0.029692
v 0.007312 0.040465 -0.042302
v -0.030516 0.027848 -0.029692
v -0.005290 -0.039616 -0.042302
v 0.037578 -0.014389 -0.029692
v 0.037578 -0.014389 -0.042302
v 0.011096 -0.038344 -0.029692
v -0.038077 -0.014381 -0.029692
v -0.029252 -0.028263 -0.029692
v -0.007810 0.040457 -0.029692
v 0.033794 0.022799 -0.029692
v -0.005290 -0.039616 -0.029692
v 0.002895 0.027848 -0.025277
v -0.016011 -0.037088 -0.029692
v -0.027996 0.030376 -0.042302
v -0.037453 0.017134 -0.042302
v -0.039973 0.009565 -0.029692
v -0.014747 0.038569 -0.042302
v -0.021683 0.017758 -0.025277
v -0.001505 0.041097 -0.042302
f 54 22 64 
f 3 2 1 
f 3 1 5 
f 4 6 10 
f 1 2 11 
f 5 1 12 
f 3 5 13 
f 6 4 16 
f 4 14 16 
f 6 16 18 
f 12 1 19 
f 1 11 20 
f 2 3 21 
f 3 13 23 
f 13 5 25 
f 16 8 27 
f 18 16 27 
f 17 18 27 
f 5 12 28 
f 24 5 28 
f 5 24 29 
f 24 16 29 
f 6 9 31 
f 20 11 33 
f 31 9 33 
f 11 2 34 
f 2 21 35 
f 21 10 35 
f 34 2 35 
f 9 6 36 
f 6 18 36 
f 17 27 37 
f 12 19 38 
f 19 8 38 
f 8 16 39 
f 26 12 39 
f 16 26 39 
f 12 38 39 
f 38 8 39 
f 1 17 40 
f 19 1 40 
f 37 19 40 
f 17 37 40 
f 4 10 41 
f 25 5 42 
f 5 29 42 
f 13 7 43 
f 23 13 43 
f 32 23 43 
f 10 6 44 
f 17 1 45 
f 18 17 45 
f 1 20 46 
f 45 1 46 
f 22 45 46 
f 11 15 47 
f 6 31 47 
f 13 25 48 
f 25 14 48 
f 30 13 48 
f 16 24 49 
f 26 16 49 
f 24 28 49 
f 49 28 50 
f 12 26 50 
f 28 12 50 
f 26 49 50 
f 16 14 51 
f 14 25 51 
f 29 16 51 
f 25 42 51 
f 42 29 51 
f 21 3 52 
f 10 21 52 
f 3 23 52 
f 32 10 52 
f 23 32 52 
f 10 32 53 
f 41 10 53 
f 7 41 53 
f 43 7 53 
f 32 43 53 
f 20 9 54 
f 9 36 54 
f 36 22 54 
f 8 19 55 
f 27 8 55 
f 19 37 55 
f 37 27 55 
f 14 4 56 
f 4 41 56 
f 41 30 56 
f 48 14 56 
f 30 48 56 
f 36 18 57 
f 22 36 57 
f 18 45 57 
f 45 22 57 
f 7 13 58 
f 13 30 58 
f 41 7 58 
f 30 41 58 
f 33 11 59 
f 31 33 59 
f 11 47 59 
f 47 31 59 
f 15 11 60 
f 11 34 60 
f 34 15 60 
f 15 34 61 
f 35 10 61 
f 34 35 61 
f 10 44 61 
f 44 15 61 
f 9 20 62 
f 20 33 62 
f 33 9 62 
f 44 6 63 
f 15 44 63 
f 6 47 63 
f 47 15 63 
f 46 20 64 
f 22 46 64 
f 20 54 64 
o convex_1
v 0.007947 -0.016282 0.051653
v -0.036193 -0.000529 0.037782
v -0.029885 -0.004934 0.035888
v 0.007312 0.014608 0.035888
v -0.000253 -0.028260 0.035888
v -0.021057 0.011454 0.049759
v -0.010973 -0.022584 0.051653
v 0.007947 0.009562 0.049759
v -0.026100 0.015869 0.036519
v 0.007947 -0.026999 0.040305
v -0.022950 0.001368 0.051653
v 0.007947 0.015869 0.043456
v -0.000884 -0.031414 0.040936
v -0.031773 -0.008714 0.037152
v -0.031146 -0.003678 0.045976
v -0.031146 0.007675 0.045976
v 0.002270 -0.026999 0.050389
v -0.006557 0.010198 0.051653
v -0.021057 0.016500 0.044715
v 0.007947 -0.018800 0.035888
v 0.001008 0.016505 0.035888
v -0.032404 0.012085 0.037152
v -0.005296 -0.027630 0.035888
v 0.007947 -0.001155 0.051653
v 0.006050 -0.030152 0.042195
v 0.006050 -0.023215 0.051653
v -0.019169 0.016500 0.035888
v -0.016646 0.017135 0.044085
v -0.026730 -0.002416 0.049759
v -0.027361 0.013346 0.045346
v -0.003403 -0.030152 0.040936
v -0.003403 -0.026368 0.051653
v -0.035558 0.007675 0.038413
v -0.031773 -0.008714 0.038413
v 0.003532 -0.032049 0.041565
v -0.026730 0.006409 0.049759
v -0.032404 0.003260 0.045346
v 0.007947 0.013977 0.035888
v -0.020427 0.017135 0.036519
v -0.028623 -0.008083 0.045346
v 0.007947 -0.021958 0.050389
v -0.021057 0.005778 0.051653
v -0.029885 0.003260 0.035888
v -0.035558 -0.003678 0.038413
v 0.001639 -0.027630 0.035888
v -0.036193 0.000737 0.039044
v -0.026730 0.015869 0.037782
v -0.009081 -0.024481 0.049759
v -0.025469 -0.011236 0.035888
v 0.002901 -0.032049 0.040305
v -0.029254 0.002625 0.048497
v 0.004793 0.003255 0.051653
f 82 88 116 
f 67 68 69 
f 72 65 74 
f 71 65 75 
f 72 74 76 
f 66 67 78 
f 75 65 82 
f 72 76 82 
f 70 82 83 
f 69 68 84 
f 76 74 84 
f 68 67 85 
f 76 68 85 
f 67 69 87 
f 65 72 88 
f 82 65 88 
f 81 89 90 
f 65 71 90 
f 85 67 91 
f 82 76 92 
f 83 82 92 
f 76 85 92 
f 71 75 93 
f 79 71 93 
f 70 83 94 
f 87 77 95 
f 78 87 95 
f 81 90 96 
f 90 71 96 
f 86 66 97 
f 80 94 97 
f 94 86 97 
f 78 95 98 
f 89 81 99 
f 96 77 99 
f 81 96 99 
f 70 94 100 
f 94 80 100 
f 80 97 101 
f 68 76 102 
f 84 68 102 
f 76 84 102 
f 91 73 103 
f 85 91 103 
f 92 85 103 
f 83 92 103 
f 71 79 104 
f 98 71 104 
f 74 65 105 
f 89 74 105 
f 90 89 105 
f 65 90 105 
f 82 70 106 
f 75 82 106 
f 70 100 106 
f 100 75 106 
f 67 66 107 
f 66 86 107 
f 86 73 107 
f 91 67 107 
f 73 91 107 
f 66 78 108 
f 78 98 108 
f 104 79 108 
f 98 104 108 
f 69 84 109 
f 84 74 109 
f 97 66 110 
f 79 101 110 
f 101 97 110 
f 66 108 110 
f 108 79 110 
f 73 86 111 
f 94 83 111 
f 86 94 111 
f 103 73 111 
f 83 103 111 
f 95 77 112 
f 96 71 112 
f 77 96 112 
f 71 98 112 
f 98 95 112 
f 78 67 113 
f 67 87 113 
f 87 78 113 
f 87 69 114 
f 77 87 114 
f 74 89 114 
f 99 77 114 
f 89 99 114 
f 69 109 114 
f 109 74 114 
f 93 75 115 
f 79 93 115 
f 75 100 115 
f 100 80 115 
f 101 79 115 
f 80 101 115 
f 72 82 116 
f 88 72 116 
o convex_2
v 0.041367 -0.018180 0.039667
v 0.031280 -0.029527 0.001844
v 0.031911 -0.029527 0.001844
v 0.026234 -0.009349 -0.025277
v 0.028127 -0.009349 0.027059
v 0.038844 -0.027003 -0.008247
v 0.032540 -0.009349 -0.024012
v 0.032540 -0.020696 0.040302
v 0.038214 -0.009981 0.025166
v 0.041998 -0.027633 0.020120
v 0.026234 -0.016916 -0.025277
v 0.029388 -0.028265 -0.006359
v 0.026234 -0.010611 0.008771
v 0.032540 -0.028265 0.021385
v 0.033801 -0.016287 -0.025277
v 0.041998 -0.023220 0.034621
v 0.041998 -0.025743 0.020120
v 0.037583 -0.009349 0.027059
v 0.026234 -0.018808 -0.011399
v 0.040106 -0.028265 -0.000049
v 0.033801 -0.026371 0.028947
v 0.041998 -0.018810 0.040302
v 0.030650 -0.028265 -0.007618
v 0.033801 -0.014393 -0.025277
v 0.032540 -0.019438 0.040302
v 0.036321 -0.028895 0.015075
v 0.039475 -0.026371 -0.003830
v 0.035691 -0.027635 -0.008247
v 0.026234 -0.009349 0.010029
v 0.033170 -0.024482 0.033992
v 0.041998 -0.020068 0.040302
v 0.041367 -0.016918 0.036515
v 0.038214 -0.028895 0.005003
v 0.041998 -0.026373 0.025795
v 0.028127 -0.010611 0.025795
v 0.032540 -0.028895 0.018226
f 142 126 152 
f 120 121 123 
f 120 127 129 
f 124 128 130 
f 127 120 131 
f 132 126 133 
f 121 117 134 
f 123 121 134 
f 125 123 134 
f 127 128 135 
f 129 127 135 
f 133 126 136 
f 132 133 138 
f 134 117 138 
f 119 118 139 
f 118 128 139 
f 128 127 139 
f 120 123 140 
f 123 125 140 
f 131 120 140 
f 122 131 140 
f 125 133 140 
f 117 121 141 
f 121 124 141 
f 138 117 141 
f 124 138 141 
f 136 122 143 
f 133 136 143 
f 122 140 143 
f 140 133 143 
f 131 122 144 
f 127 131 144 
f 136 119 144 
f 122 136 144 
f 119 139 144 
f 139 127 144 
f 121 120 145 
f 120 129 145 
f 129 121 145 
f 124 130 146 
f 130 137 146 
f 137 132 146 
f 138 124 147 
f 132 138 147 
f 124 146 147 
f 146 132 147 
f 133 125 148 
f 125 134 148 
f 138 133 148 
f 134 138 148 
f 119 136 149 
f 136 126 149 
f 142 119 149 
f 126 142 149 
f 130 126 150 
f 126 132 150 
f 137 130 150 
f 132 137 150 
f 124 121 151 
f 128 124 151 
f 121 129 151 
f 135 128 151 
f 129 135 151 
f 118 119 152 
f 128 118 152 
f 126 130 152 
f 130 128 152 
f 119 142 152 
o convex_3
v 0.026865 0.024701 0.034623
v 0.026234 -0.009349 -0.025277
v 0.026234 0.010824 -0.025277
v 0.037584 -0.009349 0.022645
v 0.026234 -0.008715 0.041561
v 0.030649 0.022179 0.039034
v 0.031909 -0.007453 -0.025270
v 0.026234 0.002636 0.047869
v 0.026865 0.027852 0.016337
v 0.033170 0.001376 0.039034
v 0.026234 0.028486 0.020754
v 0.037584 -0.007453 0.025788
v 0.027496 -0.004301 0.045972
v 0.037584 -0.009349 0.027055
v 0.032540 -0.009349 -0.022750
v 0.026865 0.011454 -0.024010
v 0.026234 0.022179 0.039041
v 0.026234 -0.009349 0.038404
v 0.028756 0.003895 0.045972
v 0.030649 0.022179 0.036514
v 0.026865 0.008313 0.046602
v 0.028126 0.027223 0.027055
v 0.028126 -0.003042 0.045972
v 0.037584 -0.007453 0.027055
v 0.036953 -0.005560 0.024535
v 0.028126 0.006417 -0.025277
v 0.033170 0.002636 0.039034
f 162 176 179 
f 155 154 157 
f 155 157 160 
f 155 160 163 
f 161 155 163 
f 160 157 165 
f 154 156 166 
f 156 164 166 
f 165 157 166 
f 156 154 167 
f 154 159 167 
f 164 156 167 
f 159 164 167 
f 155 161 168 
f 158 153 169 
f 153 163 169 
f 163 160 169 
f 157 154 170 
f 154 166 170 
f 166 157 170 
f 158 164 172 
f 158 169 173 
f 169 160 173 
f 171 158 173 
f 160 171 173 
f 153 158 174 
f 163 153 174 
f 161 163 174 
f 158 172 174 
f 172 161 174 
f 160 165 175 
f 166 162 175 
f 165 166 175 
f 171 160 175 
f 162 171 175 
f 164 158 176 
f 162 166 176 
f 166 164 176 
f 164 159 177 
f 161 172 177 
f 172 164 177 
f 154 155 178 
f 159 154 178 
f 155 168 178 
f 168 161 178 
f 177 159 178 
f 161 177 178 
f 158 171 179 
f 171 162 179 
f 176 158 179 
o convex_4
v -0.011600 -0.008088 -0.024015
v -0.000252 0.025962 -0.005099
v -0.003401 0.025962 -0.005099
v 0.002272 0.027855 -0.025277
v 0.007947 -0.004932 -0.005099
v 0.007947 -0.008088 -0.025277
v -0.011600 -0.004932 -0.005099
v -0.011600 0.025962 -0.025277
v 0.007947 0.021547 -0.005731
v -0.011600 0.020917 -0.005099
v 0.007947 0.025962 -0.025277
v -0.011600 -0.008088 -0.025277
v -0.005925 0.027855 -0.024645
v 0.007947 0.020917 -0.005099
v -0.011600 0.022810 -0.010777
v 0.007947 -0.008088 -0.024015
v -0.010338 0.026592 -0.024015
v 0.007947 0.025962 -0.024015
f 188 190 197 
f 181 182 184 
f 180 184 186 
f 184 182 186 
f 183 185 187 
f 180 186 187 
f 184 185 188 
f 186 182 189 
f 187 186 189 
f 185 183 190 
f 188 185 190 
f 185 180 191 
f 180 187 191 
f 187 185 191 
f 182 181 192 
f 181 183 192 
f 183 187 192 
f 181 184 193 
f 188 181 193 
f 184 188 193 
f 189 182 194 
f 187 189 194 
f 184 180 195 
f 180 185 195 
f 185 184 195 
f 182 192 196 
f 192 187 196 
f 194 182 196 
f 187 194 196 
f 183 181 197 
f 181 188 197 
f 190 183 197 
o convex_5
v 0.007315 0.021549 -0.005091
v -0.000879 0.020285 0.035884
v -0.004034 0.020285 0.035884
v -0.001512 -0.028266 0.028948
v -0.008448 -0.003666 -0.005091
v 0.007947 -0.015016 -0.002571
v 0.007947 -0.018801 0.035884
v -0.008448 -0.021959 0.035884
v -0.008448 0.026586 0.004365
v 0.007947 0.020285 0.032101
v -0.008448 0.020285 0.035251
v 0.003532 0.027223 0.013190
v -0.004663 0.025960 -0.005091
v -0.004663 -0.026365 0.025795
v 0.001640 -0.027629 0.035884
v 0.007947 0.024702 0.004991
v -0.007186 0.026586 0.020119
v 0.007947 -0.009341 -0.005091
v 0.007947 0.014610 0.035884
v -0.008448 0.022175 -0.005091
v -0.008448 -0.020059 0.021382
v -0.000250 0.026586 -0.004461
v -0.000879 0.024070 0.028314
v -0.005294 -0.027629 0.035884
v 0.002902 -0.026365 0.029578
v -0.004034 0.027855 0.006258
v 0.007947 0.024702 0.019489
v 0.007947 -0.019427 0.024531
v 0.001640 0.026586 0.020119
v 0.007315 -0.015016 -0.002571
v 0.007947 0.020917 -0.005099
v -0.008448 0.027223 0.013824
v -0.006554 -0.026365 0.029578
v -0.002142 0.027855 0.014454
v 0.007315 0.019016 0.035251
v 0.002902 0.027223 0.006258
v -0.008448 0.015874 0.035884
v 0.003532 0.023438 0.028314
v 0.001011 -0.027629 0.028948
v 0.007315 -0.013752 -0.003831
v -0.007815 0.023438 0.028948
v 0.003532 -0.025733 0.035884
v 0.007947 0.025328 0.009407
v -0.000250 0.021549 0.033991
v -0.007815 -0.024481 0.030838
v 0.001011 0.025960 -0.005091
v -0.004663 -0.028266 0.033361
v -0.002773 -0.026997 0.025795
f 211 227 245 
f 199 200 204 
f 204 200 205 
f 202 205 206 
f 204 203 207 
f 206 205 208 
f 204 205 212 
f 207 203 213 
f 213 203 215 
f 199 204 216 
f 204 207 216 
f 202 206 217 
f 206 210 217 
f 205 202 218 
f 202 211 218 
f 212 205 221 
f 210 206 223 
f 219 210 223 
f 207 213 224 
f 203 204 225 
f 222 203 225 
f 214 220 226 
f 224 209 226 
f 211 202 227 
f 198 213 228 
f 215 202 228 
f 213 215 228 
f 202 217 228 
f 217 210 228 
f 206 208 229 
f 223 206 229 
f 218 211 230 
f 226 209 231 
f 214 226 231 
f 229 214 231 
f 223 229 231 
f 199 216 232 
f 216 207 232 
f 219 223 233 
f 231 209 233 
f 223 231 233 
f 205 200 234 
f 200 208 234 
f 208 205 234 
f 207 224 235 
f 226 220 235 
f 224 226 235 
f 232 207 235 
f 201 203 236 
f 212 201 236 
f 203 222 236 
f 222 212 236 
f 202 215 237 
f 215 203 237 
f 203 227 237 
f 227 202 237 
f 220 214 238 
f 229 208 238 
f 214 229 238 
f 204 212 239 
f 212 222 239 
f 225 204 239 
f 222 225 239 
f 224 213 240 
f 209 224 240 
f 233 209 240 
f 213 233 240 
f 200 199 241 
f 208 200 241 
f 199 232 241 
f 235 220 241 
f 232 235 241 
f 238 208 241 
f 220 238 241 
f 205 218 242 
f 221 205 242 
f 218 230 242 
f 230 221 242 
f 213 198 243 
f 210 219 243 
f 198 228 243 
f 228 210 243 
f 233 213 243 
f 219 233 243 
f 211 201 244 
f 201 212 244 
f 212 221 244 
f 230 211 244 
f 221 230 244 
f 203 201 245 
f 201 211 245 
f 227 203 245 
o convex_6
v 0.022450 0.019650 -0.014557
v 0.007947 -0.008715 -0.025277
v 0.011731 -0.012497 -0.025277
v 0.026234 0.012720 -0.025277
v 0.026234 -0.016283 -0.014557
v 0.007947 0.023440 -0.014557
v 0.007947 0.025333 -0.025277
v 0.007947 -0.005563 -0.014557
v 0.026234 -0.016912 -0.025277
v 0.026234 0.015243 -0.014557
v 0.019296 0.022810 -0.015188
v 0.012993 -0.010604 -0.014557
v 0.025602 -0.017546 -0.017711
v 0.011731 0.024069 -0.025277
v 0.026234 0.013350 -0.024646
v 0.024340 -0.016912 -0.025277
v 0.008579 0.025333 -0.022755
f 256 252 262 
f 248 247 249 
f 250 246 251 
f 249 247 252 
f 247 251 252 
f 247 248 253 
f 251 247 253 
f 250 251 253 
f 248 249 254 
f 249 250 254 
f 246 250 255 
f 250 249 255 
f 251 246 256 
f 253 248 257 
f 250 253 257 
f 254 250 258 
f 257 248 258 
f 250 257 258 
f 249 252 259 
f 252 256 259 
f 259 256 260 
f 246 255 260 
f 255 249 260 
f 256 246 260 
f 249 259 260 
f 248 254 261 
f 258 248 261 
f 254 258 261 
f 252 251 262 
f 251 256 262 
o convex_7
v 0.012363 -0.023843 -0.008877
v 0.015514 0.025962 0.011927
v 0.024972 0.028486 0.003727
v 0.007947 0.022809 -0.014557
v 0.026234 -0.016907 -0.014557
v 0.026234 -0.007453 0.011927
v 0.007947 -0.011236 0.011927
v 0.026234 0.016503 -0.014557
v 0.007947 0.024692 0.011927
v 0.007947 -0.005559 -0.014557
v 0.017404 -0.024478 -0.000688
v 0.026234 0.023438 0.011927
v 0.024340 0.025962 -0.010772
v 0.015514 0.027851 0.001837
v 0.023080 -0.021960 -0.005728
v 0.014883 -0.023843 -0.012035
v 0.007947 -0.016283 -0.002573
v 0.011731 -0.021955 0.000572
v 0.019298 -0.025113 -0.010142
v 0.020558 -0.010606 0.011927
v 0.009841 -0.020695 -0.008877
v 0.015514 -0.016907 -0.014557
v 0.018666 0.023438 -0.014557
v 0.023080 0.027221 -0.006990
v 0.013623 -0.018801 0.005617
v 0.026234 0.024068 0.001837
v 0.014883 -0.025113 -0.001943
v 0.026234 -0.013130 0.001202
v 0.019928 -0.021960 0.000572
v 0.011101 0.025962 0.011927
v 0.014883 0.025962 -0.008250
v 0.017404 -0.022584 0.001837
v 0.009841 -0.020066 -0.000688
v 0.012993 -0.020695 -0.012665
v 0.007947 0.024692 0.006879
v 0.014883 -0.025113 -0.010772
v 0.023080 0.028486 -0.000688
v 0.014253 -0.023219 0.001202
v 0.020558 0.028486 0.003727
v 0.023080 -0.009977 0.011927
v 0.011101 -0.021325 -0.010772
v 0.020558 0.025962 -0.010772
f 293 286 304 
f 268 264 269 
f 267 266 270 
f 268 267 270 
f 269 264 271 
f 266 269 271 
f 266 267 272 
f 269 266 272 
f 265 264 274 
f 264 268 274 
f 268 270 274 
f 269 272 279 
f 267 277 281 
f 277 273 281 
f 278 267 281 
f 268 269 282 
f 279 272 283 
f 272 267 284 
f 267 278 284 
f 270 266 285 
f 275 270 285 
f 282 269 287 
f 265 274 288 
f 274 270 288 
f 275 265 288 
f 270 275 288 
f 280 263 289 
f 281 273 289 
f 267 268 290 
f 277 267 290 
f 268 277 290 
f 277 268 291 
f 273 277 291 
f 264 265 292 
f 271 264 292 
f 276 271 292 
f 266 276 293 
f 282 287 294 
f 273 291 294 
f 269 279 295 
f 263 280 295 
f 280 269 295 
f 283 263 295 
f 279 283 295 
f 272 284 296 
f 284 278 296 
f 266 271 297 
f 271 276 297 
f 276 266 297 
f 278 281 298 
f 289 263 298 
f 281 289 298 
f 265 275 299 
f 275 286 299 
f 293 276 299 
f 286 293 299 
f 269 280 300 
f 287 269 300 
f 280 289 300 
f 289 273 300 
f 294 287 300 
f 273 294 300 
f 292 265 301 
f 276 292 301 
f 265 299 301 
f 299 276 301 
f 268 282 302 
f 291 268 302 
f 282 294 302 
f 294 291 302 
f 263 283 303 
f 283 272 303 
f 296 278 303 
f 272 296 303 
f 278 298 303 
f 298 263 303 
f 285 266 304 
f 275 285 304 
f 286 275 304 
f 266 293 304 
o convex_8
v 0.007947 -0.001152 0.059220
v 0.016775 -0.005566 0.068678
v 0.014882 -0.005566 0.068678
v 0.008578 -0.020068 0.053545
v 0.007947 -0.009349 0.065524
v 0.009841 -0.011869 0.052914
v 0.007947 -0.002413 0.065524
v 0.007947 -0.020068 0.056069
v 0.016775 -0.006827 0.068678
v 0.007947 -0.011869 0.052914
v 0.016775 -0.005566 0.067414
v 0.009841 -0.016284 0.052914
v 0.008578 -0.000521 0.063631
v 0.008578 -0.002413 0.057961
v 0.012990 -0.007459 0.068047
f 313 307 319 
f 307 306 311 
f 305 309 311 
f 309 305 312 
f 306 307 313 
f 312 308 313 
f 308 312 314 
f 312 305 314 
f 306 313 315 
f 315 313 316 
f 313 308 316 
f 314 310 316 
f 308 314 316 
f 310 315 316 
f 311 306 317 
f 305 311 317 
f 306 315 317 
f 315 305 317 
f 314 305 318 
f 310 314 318 
f 305 315 318 
f 315 310 318 
f 307 311 319 
f 311 309 319 
f 309 312 319 
f 312 313 319 
o convex_9
v -0.012864 0.025333 -0.025277
v -0.031777 -0.015022 -0.016450
v -0.031145 -0.016915 -0.015819
v -0.015386 -0.012499 -0.025277
v -0.011600 -0.006195 -0.015188
v -0.024209 0.019025 -0.015188
v -0.031777 -0.005564 -0.025277
v -0.011600 0.023440 -0.015188
v -0.011600 -0.008714 -0.025277
v -0.030515 0.007043 -0.020232
v -0.024209 -0.018807 -0.015188
v -0.028623 -0.014392 -0.025277
v -0.021061 0.018394 -0.025277
v -0.029885 0.010197 -0.015188
v -0.011600 0.025333 -0.025277
v -0.031777 -0.011237 -0.015188
v -0.029885 0.002636 -0.025277
v -0.031777 -0.011868 -0.025277
v -0.026731 -0.018807 -0.017081
v -0.027993 0.013982 -0.016450
v -0.018539 0.021548 -0.025277
v -0.030515 0.008305 -0.016450
v -0.029253 -0.018807 -0.015188
v -0.026731 -0.015022 -0.024646
v -0.012234 0.024071 -0.017081
v -0.015386 -0.012499 -0.024015
f 324 330 345 
f 320 323 326 
f 325 324 327 
f 323 320 328 
f 327 324 328 
f 324 325 330 
f 326 323 331 
f 320 326 332 
f 330 325 333 
f 328 320 334 
f 327 328 334 
f 321 322 335 
f 326 321 335 
f 330 333 335 
f 326 329 336 
f 332 326 336 
f 329 332 336 
f 322 321 337 
f 321 326 337 
f 326 331 337 
f 323 330 338 
f 332 329 339 
f 329 333 339 
f 333 325 339 
f 325 320 340 
f 320 332 340 
f 339 325 340 
f 332 339 340 
f 329 326 341 
f 333 329 341 
f 326 335 341 
f 335 333 341 
f 335 322 342 
f 330 335 342 
f 322 337 342 
f 337 331 342 
f 338 330 342 
f 331 338 342 
f 331 323 343 
f 323 338 343 
f 338 331 343 
f 320 325 344 
f 325 327 344 
f 334 320 344 
f 327 334 344 
f 323 328 345 
f 328 324 345 
f 330 323 345 
o convex_10
v -0.012864 -0.019433 -0.005099
v -0.031777 -0.018174 -0.007623
v -0.031145 -0.021325 -0.006360
v -0.012234 0.020917 -0.005099
v -0.011600 -0.005560 -0.015188
v -0.026101 0.017762 -0.015188
v -0.029885 -0.018806 -0.015188
v -0.011600 0.023441 -0.015188
v -0.018539 -0.025113 -0.010772
v -0.031145 -0.015018 -0.005099
v -0.023579 0.020917 -0.011404
v -0.029885 0.010195 -0.015188
v -0.019169 0.014610 -0.005099
v -0.021689 -0.025113 -0.005099
v -0.011600 -0.008084 -0.005099
v -0.027993 0.012719 -0.011404
v -0.031777 -0.015018 -0.015188
v -0.018539 -0.019433 -0.013926
v -0.014124 -0.021325 -0.010143
v -0.022949 -0.025113 -0.010143
v -0.011600 0.020917 -0.005099
v -0.028623 -0.023849 -0.005099
v -0.017278 -0.024481 -0.005099
v -0.025471 -0.019433 -0.015188
v -0.022949 0.021545 -0.013295
v -0.012234 -0.016910 -0.006360
v -0.021061 0.010827 -0.005099
v -0.029885 0.008936 -0.013295
v -0.031777 -0.017542 -0.005730
v -0.016016 -0.021325 -0.012035
v -0.031777 -0.011867 -0.014557
f 374 357 376 
f 351 350 352 
f 350 351 353 
f 346 349 355 
f 351 352 357 
f 355 349 358 
f 349 356 358 
f 346 355 359 
f 349 346 360 
f 350 353 360 
f 356 351 361 
f 351 357 361 
f 358 356 361 
f 348 347 362 
f 352 348 362 
f 357 352 362 
f 352 354 365 
f 354 359 365 
f 353 349 366 
f 349 360 366 
f 360 353 366 
f 348 352 367 
f 359 355 367 
f 352 365 367 
f 365 359 367 
f 346 359 368 
f 359 354 368 
f 354 364 368 
f 364 346 368 
f 352 350 369 
f 354 352 369 
f 350 363 369 
f 363 354 369 
f 349 353 370 
f 353 351 370 
f 351 356 370 
f 356 349 370 
f 360 346 371 
f 350 360 371 
f 346 364 371 
f 364 350 371 
f 355 358 372 
f 361 355 372 
f 358 361 372 
f 361 357 373 
f 355 361 373 
f 347 348 374 
f 362 347 374 
f 348 367 374 
f 367 355 374 
f 355 373 374 
f 373 357 374 
f 363 350 375 
f 354 363 375 
f 364 354 375 
f 350 364 375 
f 357 362 376 
f 362 374 376 
o convex_11
v -0.009709 0.006415 0.051653
v -0.016014 -0.009978 0.056696
v -0.016014 -0.009978 0.057328
v -0.009709 -0.022591 0.056066
v -0.009709 0.007677 0.057328
v -0.012862 -0.018801 0.051653
v -0.014753 -0.001152 0.051653
v -0.009709 -0.019435 0.051653
v -0.014123 0.002631 0.056696
v -0.012232 -0.020066 0.057328
v -0.014753 -0.011240 0.051653
v -0.009709 -0.020066 0.057328
v -0.010970 -0.022591 0.051653
v -0.013491 0.003893 0.054175
v -0.011601 0.007046 0.057328
f 377 390 391 
f 380 377 381 
f 379 378 382 
f 378 379 383 
f 377 382 383 
f 377 380 384 
f 382 377 384 
f 383 379 385 
f 381 379 386 
f 379 382 386 
f 382 378 387 
f 378 383 387 
f 383 382 387 
f 380 381 388 
f 386 380 388 
f 381 386 388 
f 384 380 389 
f 382 384 389 
f 380 386 389 
f 386 382 389 
f 377 383 390 
f 383 385 390 
f 390 385 391 
f 381 377 391 
f 379 381 391 
f 385 379 391 
o convex_12
v -0.009709 0.007045 0.061112
v -0.022320 -0.017546 0.066155
v -0.022320 -0.017546 0.067417
v -0.009709 -0.017546 0.057328
v -0.014754 0.000109 0.057328
v -0.009709 -0.004308 0.065525
v -0.009709 -0.016914 0.062372
v -0.016014 -0.012500 0.057328
v -0.009709 0.007677 0.057328
v -0.011602 0.005783 0.062372
v -0.010340 0.002630 0.065525
v -0.020426 -0.017546 0.067417
v -0.022320 -0.016284 0.067417
v -0.012862 -0.016914 0.057328
v -0.012232 0.005783 0.058589
v -0.009709 -0.014393 0.063632
v -0.016643 -0.007453 0.057960
f 396 399 408 
f 394 393 395 
f 395 392 397 
f 395 397 398 
f 396 395 399 
f 392 395 400 
f 395 396 400 
f 392 400 401 
f 397 392 402 
f 392 401 402 
f 394 395 403 
f 395 398 403 
f 397 402 403 
f 403 402 404 
f 393 394 404 
f 396 393 404 
f 402 401 404 
f 394 403 404 
f 395 393 405 
f 393 399 405 
f 399 395 405 
f 400 396 406 
f 401 400 406 
f 396 404 406 
f 404 401 406 
f 398 397 407 
f 403 398 407 
f 397 403 407 
f 393 396 408 
f 399 393 408 
o convex_13
v -0.008447 0.010197 0.051653
v -0.007185 0.006412 0.073092
v -0.007816 0.006412 0.073092
v -0.000250 -0.025744 0.051653
v -0.009709 -0.023219 0.056068
v -0.000250 0.007672 0.054177
v -0.002143 -0.010602 0.068677
v -0.009709 0.014613 0.064893
v -0.000250 0.003892 0.064893
v -0.009709 -0.019431 0.051653
v -0.009709 -0.015018 0.063002
v -0.000250 0.007044 0.051653
v -0.000250 -0.016911 0.063002
v -0.004666 -0.003045 0.072460
v -0.007816 0.013349 0.068047
v -0.009709 0.006412 0.051653
v -0.004666 -0.025744 0.055439
v -0.007816 0.013977 0.057959
v -0.009709 0.012089 0.069306
v -0.003404 -0.013126 0.067415
v -0.006555 -0.002413 0.072460
v -0.008447 -0.024475 0.052914
v -0.000250 0.007044 0.061113
v -0.000250 -0.025744 0.054809
v -0.008447 0.004520 0.072460
v -0.000250 -0.003677 0.066154
v -0.006555 0.007672 0.072460
v -0.005293 0.002000 0.073092
v -0.008447 -0.024475 0.056068
v -0.009709 0.013977 0.059220
v -0.008447 0.014613 0.064893
v -0.004666 -0.008082 0.070567
v -0.007185 0.010829 0.051653
v -0.004666 -0.025744 0.051653
v -0.007185 0.011453 0.069938
f 427 435 443 
f 412 414 417 
f 409 412 418 
f 413 416 418 
f 416 413 419 
f 412 409 420 
f 414 412 420 
f 412 417 421 
f 409 418 424 
f 418 416 424 
f 414 420 426 
f 416 419 427 
f 423 416 427 
f 421 415 428 
f 413 418 430 
f 417 414 431 
f 412 421 432 
f 425 412 432 
f 421 428 432 
f 428 425 432 
f 411 427 433 
f 427 419 433 
f 429 411 433 
f 419 429 433 
f 415 421 434 
f 421 417 434 
f 422 415 434 
f 411 410 435 
f 427 411 435 
f 410 411 436 
f 411 429 436 
f 429 422 436 
f 434 417 436 
f 422 434 436 
f 435 410 436 
f 417 435 436 
f 419 413 437 
f 428 419 437 
f 425 428 437 
f 413 430 437 
f 430 425 437 
f 409 424 438 
f 424 416 438 
f 416 426 438 
f 416 423 439 
f 426 416 439 
f 414 426 439 
f 431 414 439 
f 423 431 439 
f 415 422 440 
f 419 428 440 
f 428 415 440 
f 429 419 440 
f 422 429 440 
f 420 409 441 
f 426 420 441 
f 409 438 441 
f 438 426 441 
f 418 412 442 
f 412 425 442 
f 430 418 442 
f 425 430 442 
f 423 427 443 
f 417 431 443 
f 431 423 443 
f 435 417 443 
o convex_14
v -0.000250 0.006414 0.051653
v 0.000381 0.000104 0.065525
v 0.000381 0.002626 0.064892
v 0.007947 -0.015023 0.051653
v -0.000250 -0.025744 0.051653
v 0.007947 -0.008723 0.065525
v 0.007947 0.000104 0.060479
v -0.000250 -0.018174 0.060479
v 0.007947 -0.020696 0.056067
v 0.007947 -0.003047 0.051653
v -0.000250 0.007045 0.059849
v -0.000250 -0.006200 0.065525
v 0.002273 -0.025112 0.055437
v 0.007947 -0.002419 0.065525
v 0.004794 0.003257 0.051653
v 0.006054 -0.023218 0.051653
v 0.000381 0.007677 0.056067
v 0.001011 0.006414 0.060479
v -0.000250 -0.025112 0.055437
v 0.006054 -0.022590 0.056067
f 456 459 463 
f 444 447 448 
f 449 447 450 
f 444 448 451 
f 447 449 452 
f 447 444 453 
f 450 447 453 
f 444 451 454 
f 454 451 455 
f 445 446 455 
f 449 445 455 
f 451 449 455 
f 446 454 455 
f 449 451 456 
f 446 445 457 
f 445 449 457 
f 449 450 457 
f 453 444 458 
f 450 453 458 
f 448 447 459 
f 447 452 459 
f 456 448 459 
f 444 454 460 
f 458 444 460 
f 450 458 460 
f 454 446 461 
f 446 457 461 
f 457 450 461 
f 460 454 461 
f 450 460 461 
f 451 448 462 
f 448 456 462 
f 456 451 462 
f 452 449 463 
f 449 456 463 
f 459 452 463 
o convex_15
v 0.008578 0.025330 0.013820
v 0.008578 -0.010606 0.052914
v 0.007947 -0.010606 0.052914
v 0.007947 -0.010606 0.011927
v 0.016775 -0.009978 0.011931
v 0.016775 0.016499 0.044713
v 0.016775 0.025325 0.011931
v 0.016775 -0.013757 0.042190
v 0.007947 0.015867 0.044079
v 0.007947 -0.021960 0.045343
v 0.016775 0.006414 0.051646
v 0.009840 -0.018804 0.025174
v 0.009840 -0.016913 0.052914
v 0.007947 0.024693 0.011927
v 0.011732 0.026594 0.016974
v 0.009209 0.010824 0.049760
v 0.016775 -0.007455 0.049756
v 0.007947 -0.016913 0.018863
v 0.014252 -0.015653 0.024541
v 0.016144 0.025957 0.016978
v 0.008578 -0.021960 0.047237
v 0.012991 0.017126 0.044079
v 0.007947 0.024693 0.018238
v 0.008578 -0.021328 0.050390
v 0.016775 0.011456 0.049756
v 0.007947 -0.003672 0.052276
v 0.016775 -0.013125 0.024545
v 0.016775 -0.001775 0.051646
v 0.012991 0.026594 0.012561
v 0.007947 0.009560 0.049760
v 0.011101 0.005150 0.051650
v 0.015514 -0.013130 0.046603
v 0.007947 -0.019436 0.025800
v 0.013621 0.026594 0.016974
f 483 492 497 
f 468 467 470 
f 469 468 470 
f 468 469 471 
f 467 466 472 
f 466 467 473 
f 466 465 474 
f 471 469 474 
f 465 466 476 
f 474 465 476 
f 470 467 477 
f 467 472 477 
f 471 474 480 
f 467 468 481 
f 473 467 481 
f 468 475 481 
f 475 468 482 
f 469 470 483 
f 473 475 484 
f 482 471 484 
f 475 482 484 
f 478 472 485 
f 472 479 485 
f 464 477 486 
f 477 472 486 
f 478 464 486 
f 472 478 486 
f 466 473 487 
f 476 466 487 
f 473 484 487 
f 484 471 487 
f 474 469 488 
f 479 474 488 
f 469 485 488 
f 485 479 488 
f 472 466 489 
f 468 471 490 
f 482 468 490 
f 471 482 490 
f 474 476 491 
f 480 474 491 
f 476 480 491 
f 477 464 492 
f 470 477 492 
f 464 478 492 
f 483 470 492 
f 479 472 493 
f 472 489 493 
f 493 489 494 
f 466 474 494 
f 474 479 494 
f 489 466 494 
f 479 493 494 
f 471 480 495 
f 480 476 495 
f 476 487 495 
f 487 471 495 
f 475 473 496 
f 473 481 496 
f 481 475 496 
f 469 483 497 
f 485 469 497 
f 478 485 497 
f 492 478 497 
o convex_16
v 0.021818 -0.009976 0.011934
v 0.018037 0.005786 0.051649
v 0.016775 0.005786 0.051649
v 0.024972 0.029116 0.011927
v 0.026234 -0.006823 0.045342
v 0.016775 0.027853 0.011934
v 0.016775 -0.012502 0.024544
v 0.026234 0.022174 0.039035
v 0.026234 -0.007450 0.011927
v 0.016775 -0.010607 0.046602
v 0.016775 0.016504 0.044712
v 0.016775 -0.009976 0.011934
v 0.025602 -0.010607 0.037776
v 0.018668 0.026590 0.026434
v 0.026234 0.029116 0.015084
v 0.026234 0.005158 0.047866
v 0.021190 -0.005564 0.049755
v 0.019929 -0.011870 0.044712
v 0.021190 0.009566 0.049755
v 0.026234 0.026590 0.028953
v 0.020560 0.024065 0.034622
v 0.024341 0.000742 0.049755
v 0.016775 -0.001779 0.051649
v 0.023080 -0.011870 0.037146
v 0.017407 0.011452 0.049755
v 0.017407 0.027853 0.018867
v 0.026234 0.027853 0.011927
v 0.016775 -0.012502 0.042189
v 0.023710 0.006417 0.049755
v 0.025602 0.028485 0.020757
v 0.024972 -0.008717 0.045342
v 0.023710 -0.009348 0.011934
v 0.026234 -0.009976 0.037776
v 0.017407 -0.007450 0.049755
v 0.019298 0.000111 0.051649
v 0.026234 -0.003670 0.047236
f 514 528 533 
f 500 503 504 
f 505 502 506 
f 500 504 507 
f 503 500 508 
f 503 501 509 
f 498 504 509 
f 504 503 509 
f 506 498 509 
f 501 506 509 
f 505 506 512 
f 502 505 513 
f 505 512 517 
f 508 505 518 
f 511 508 518 
f 505 517 518 
f 517 511 518 
f 499 500 520 
f 500 507 520 
f 504 498 521 
f 510 515 521 
f 500 499 522 
f 508 500 522 
f 505 508 522 
f 499 516 522 
f 516 505 522 
f 501 503 523 
f 503 508 523 
f 508 511 523 
f 512 501 523 
f 506 501 524 
f 501 512 524 
f 512 506 524 
f 507 504 525 
f 515 507 525 
f 504 521 525 
f 521 515 525 
f 513 505 526 
f 516 499 526 
f 505 516 526 
f 519 513 526 
f 511 517 527 
f 517 512 527 
f 523 511 527 
f 512 523 527 
f 515 510 528 
f 498 506 529 
f 506 510 529 
f 521 498 529 
f 510 521 529 
f 506 502 530 
f 510 506 530 
f 502 528 530 
f 528 510 530 
f 507 515 531 
f 520 507 531 
f 514 520 531 
f 528 514 531 
f 515 528 531 
f 514 519 532 
f 499 520 532 
f 520 514 532 
f 526 499 532 
f 519 526 532 
f 502 513 533 
f 513 519 533 
f 519 514 533 
f 528 502 533 
o convex_17
v -0.018538 -0.025113 0.011296
v -0.027364 -0.025744 -0.002576
v -0.029885 -0.029525 0.002468
v -0.035559 -0.025113 0.011296
v -0.024844 -0.033310 0.011296
v -0.022323 -0.031418 0.006881
v -0.031776 -0.032048 0.010665
v -0.035559 -0.025113 0.004360
v -0.023583 -0.025113 -0.001315
v -0.019170 -0.028898 0.010035
v -0.027364 -0.032048 0.005620
v -0.019800 -0.027636 0.005620
v -0.034929 -0.028898 0.009403
v -0.031776 -0.030788 0.005620
v -0.034299 -0.026375 0.003100
v -0.025476 -0.025744 -0.002576
v -0.019170 -0.025113 0.006251
f 543 545 550 
f 534 537 538 
f 538 537 540 
f 537 534 541 
f 535 541 542 
f 541 534 542 
f 534 538 543 
f 538 539 543 
f 536 535 544 
f 539 538 544 
f 538 540 544 
f 539 542 545 
f 543 539 545 
f 540 537 546 
f 537 541 546 
f 536 544 547 
f 544 540 547 
f 540 546 547 
f 535 536 548 
f 541 535 548 
f 546 541 548 
f 547 546 548 
f 536 547 548 
f 535 542 549 
f 542 539 549 
f 544 535 549 
f 539 544 549 
f 542 534 550 
f 534 543 550 
f 545 542 550 
o convex_18
v -0.022952 -0.035831 0.031471
v -0.035560 -0.027007 0.011296
v -0.035560 -0.025113 0.011296
v -0.016017 -0.025113 0.011928
v -0.025477 -0.044027 0.014451
v -0.038712 -0.029529 0.025165
v -0.022322 -0.025113 0.030213
v -0.012234 -0.033943 0.023275
v -0.038082 -0.035200 0.023906
v -0.024847 -0.041506 0.026426
v -0.030516 -0.025113 0.029579
v -0.029882 -0.035200 0.031471
v -0.028624 -0.042135 0.013188
v -0.012864 -0.029529 0.024536
v -0.012864 -0.033313 0.017604
v -0.021694 -0.034574 0.011296
v -0.039343 -0.033943 0.020126
v -0.028624 -0.044027 0.019495
v -0.022952 -0.044027 0.018865
v -0.031146 -0.040245 0.026426
v -0.019169 -0.038984 0.027060
v -0.022322 -0.030790 0.032105
v -0.017278 -0.025113 0.025165
v -0.030516 -0.028899 0.031471
v -0.018539 -0.032682 0.030213
v -0.034299 -0.025113 0.025165
v -0.021694 -0.042767 0.015712
v -0.012234 -0.028899 0.020126
v -0.039343 -0.028899 0.022012
v -0.029255 -0.035200 0.011296
v -0.023586 -0.042135 0.013188
v -0.029255 -0.043396 0.015081
v -0.033668 -0.035200 0.028950
v -0.028624 -0.038984 0.029579
v -0.017908 -0.026378 0.028320
v -0.013495 -0.035831 0.022012
v -0.018539 -0.025113 0.011296
v -0.026099 -0.027638 0.032105
v -0.022322 -0.038984 0.029579
v -0.039343 -0.032682 0.024536
v -0.033038 -0.032682 0.030213
v -0.018539 -0.035831 0.013822
v -0.036190 -0.025113 0.016341
v -0.019803 -0.040245 0.025797
v -0.019803 -0.035831 0.030213
v -0.029255 -0.033313 0.032105
v -0.039973 -0.030790 0.021389
v -0.011600 -0.030790 0.020126
v -0.013495 -0.027638 0.023275
v -0.019803 -0.028899 0.030842
v -0.027363 -0.044657 0.018865
f 568 582 601 
f 554 553 557 
f 557 553 561 
f 552 553 566 
f 552 563 567 
f 559 568 570 
f 554 557 573 
f 561 556 574 
f 558 564 575 
f 561 553 576 
f 556 561 576 
f 569 555 577 
f 556 576 579 
f 563 552 580 
f 552 566 580 
f 580 566 581 
f 555 563 581 
f 565 577 581 
f 577 555 581 
f 563 580 581 
f 563 555 582 
f 559 567 582 
f 567 563 582 
f 568 559 582 
f 559 570 583 
f 551 562 584 
f 570 560 584 
f 583 570 584 
f 562 583 584 
f 573 557 585 
f 565 558 586 
f 558 571 586 
f 577 565 586 
f 569 577 586 
f 553 554 587 
f 566 553 587 
f 554 566 587 
f 557 561 588 
f 561 574 588 
f 551 584 589 
f 584 560 589 
f 567 559 590 
f 559 583 590 
f 590 583 591 
f 574 556 591 
f 583 562 591 
f 556 590 591 
f 554 565 592 
f 566 554 592 
f 581 566 592 
f 565 581 592 
f 576 553 593 
f 553 579 593 
f 579 576 593 
f 560 569 594 
f 586 571 594 
f 569 586 594 
f 589 560 594 
f 571 589 594 
f 571 558 595 
f 572 551 595 
f 558 575 595 
f 575 572 595 
f 589 571 595 
f 551 589 595 
f 562 551 596 
f 551 572 596 
f 572 588 596 
f 588 574 596 
f 574 591 596 
f 591 562 596 
f 553 552 597 
f 552 567 597 
f 579 553 597 
f 556 579 597 
f 567 590 597 
f 590 556 597 
f 564 558 598 
f 558 565 598 
f 565 554 598 
f 578 564 598 
f 554 578 598 
f 554 573 599 
f 564 578 599 
f 578 554 599 
f 573 585 599 
f 585 564 599 
f 575 564 600 
f 572 575 600 
f 585 557 600 
f 564 585 600 
f 557 588 600 
f 588 572 600 
f 569 560 601 
f 555 569 601 
f 560 570 601 
f 570 568 601 
f 582 555 601 
o convex_19
v -0.009080 0.025961 0.002470
v -0.038083 -0.023848 0.011925
v -0.036191 -0.024475 0.004361
v -0.008448 -0.019429 0.020755
v -0.013495 -0.020694 -0.005099
v -0.021690 0.020915 0.018862
v -0.021060 0.010195 -0.005099
v -0.034300 -0.025113 0.020755
v -0.008448 0.025961 0.020119
v -0.008448 -0.004296 -0.005099
v -0.027994 0.013981 0.010662
v -0.031144 -0.015648 -0.005099
v -0.018537 -0.025113 -0.005099
v -0.031776 -0.001775 0.020755
v -0.008448 0.022175 -0.005099
v -0.021060 0.022175 0.006254
v -0.017278 -0.025113 0.020755
v -0.036821 -0.011235 0.011295
v -0.028626 0.002001 -0.001313
v -0.029255 -0.023848 -0.005099
v -0.036821 -0.012495 0.016339
v -0.018537 0.019022 0.020755
v -0.020431 0.023441 0.016339
v -0.038083 -0.020694 0.007517
v -0.018537 0.015241 -0.005099
v -0.024211 0.017134 0.004361
v -0.016016 -0.025113 0.010662
v -0.035559 -0.025113 0.003731
v -0.008448 0.022175 0.020755
v -0.010342 0.026594 0.008769
v -0.027994 0.013981 0.012555
v -0.009712 -0.012495 -0.001313
v -0.012233 0.020915 -0.005099
v -0.023581 0.020282 0.016339
v -0.035559 -0.014388 0.019492
v -0.027994 0.012716 0.008142
v -0.031144 -0.021327 -0.005099
v -0.038083 -0.020062 0.013818
v -0.019799 0.023441 0.007517
v -0.008448 0.026594 0.016969
v -0.017278 -0.024480 -0.005099
v -0.027364 -0.025113 -0.003836
v -0.036821 -0.025113 0.015706
v -0.027994 -0.000520 -0.003206
v -0.025473 0.017762 0.010032
v -0.023581 0.019650 0.017601
v -0.012863 0.024701 0.020119
v -0.008448 -0.019429 0.020119
v -0.033668 -0.008081 0.020755
v -0.008448 0.026594 0.004994
f 631 641 651 
f 610 605 611 
f 606 608 611 
f 608 606 613 
f 613 606 614 
f 609 605 615 
f 610 611 616 
f 611 608 616 
f 605 609 618 
f 609 614 618 
f 613 614 621 
f 615 605 623 
f 607 615 623 
f 604 603 625 
f 620 613 625 
f 619 620 625 
f 616 608 626 
f 608 620 626 
f 626 620 627 
f 617 626 627 
f 605 618 628 
f 618 614 628 
f 603 604 629 
f 614 609 629 
f 605 610 630 
f 623 605 630 
f 612 619 632 
f 622 615 632 
f 619 622 632 
f 606 611 633 
f 602 616 634 
f 616 626 634 
f 626 617 634 
f 607 624 635 
f 624 617 635 
f 619 612 637 
f 620 619 637 
f 627 620 637 
f 612 627 637 
f 613 621 638 
f 604 625 638 
f 625 613 638 
f 629 604 638 
f 621 629 638 
f 622 619 639 
f 625 603 639 
f 619 625 639 
f 609 636 639 
f 636 622 639 
f 617 624 640 
f 624 631 640 
f 602 634 640 
f 634 617 640 
f 610 616 641 
f 624 610 641 
f 631 624 641 
f 614 606 642 
f 628 614 642 
f 621 614 643 
f 614 629 643 
f 629 621 643 
f 603 629 644 
f 629 609 644 
f 639 603 644 
f 609 639 644 
f 608 613 645 
f 620 608 645 
f 613 620 645 
f 627 612 646 
f 617 627 646 
f 612 632 646 
f 635 617 646 
f 632 635 646 
f 615 607 647 
f 632 615 647 
f 607 635 647 
f 635 632 647 
f 607 623 648 
f 624 607 648 
f 610 624 648 
f 630 610 648 
f 623 630 648 
f 611 605 649 
f 605 628 649 
f 606 633 649 
f 633 611 649 
f 642 606 649 
f 628 642 649 
f 609 615 650 
f 615 622 650 
f 636 609 650 
f 622 636 650 
f 616 602 651 
f 602 640 651 
f 640 631 651 
f 641 616 651 
o convex_20
v -0.016017 0.020287 0.028952
v -0.034301 -0.025113 0.020755
v -0.034301 -0.025113 0.022647
v -0.008448 -0.020699 0.023909
v -0.008448 0.022177 0.020755
v -0.008448 -0.015023 0.030844
v -0.031775 0.000739 0.030844
v -0.030515 0.000739 0.020755
v -0.027364 -0.025113 0.030213
v -0.008448 0.022177 0.030844
v -0.008448 -0.019437 0.020755
v -0.020433 0.015239 0.020755
v -0.017280 -0.025113 0.020755
v -0.029885 0.005782 0.030844
v -0.021688 -0.025113 0.029583
v -0.033038 -0.005561 0.020755
v -0.033666 -0.025113 0.025799
v -0.022316 0.015239 0.025799
v -0.008448 -0.020699 0.026429
v -0.031148 -0.007456 0.030844
v -0.019168 0.017134 0.030844
v -0.014126 0.020287 0.020755
v -0.010971 0.022810 0.027058
v -0.029885 0.004520 0.025169
v -0.029885 -0.025113 0.029583
v -0.016647 0.020287 0.026429
v -0.017907 -0.025113 0.025799
v -0.025469 -0.013761 0.030844
f 671 660 679 
f 655 656 657 
f 656 653 659 
f 654 653 660 
f 657 656 661 
f 658 657 661 
f 656 655 662 
f 653 656 662 
f 656 659 663 
f 660 653 664 
f 653 662 664 
f 662 655 664 
f 658 661 665 
f 657 660 666 
f 660 664 666 
f 653 654 667 
f 654 658 667 
f 659 653 667 
f 658 654 668 
f 654 660 668 
f 655 657 670 
f 664 655 670 
f 657 666 670 
f 657 658 671 
f 658 668 671 
f 661 652 672 
f 665 661 672 
f 669 665 672 
f 656 663 673 
f 652 661 674 
f 661 656 674 
f 656 673 674 
f 663 659 675 
f 658 665 675 
f 667 658 675 
f 659 667 675 
f 669 663 675 
f 665 669 675 
f 668 660 676 
f 660 671 676 
f 671 668 676 
f 663 669 677 
f 672 652 677 
f 669 672 677 
f 673 663 677 
f 652 674 677 
f 674 673 677 
f 666 664 678 
f 664 670 678 
f 670 666 678 
f 660 657 679 
f 657 671 679 
o convex_21
v -0.008448 0.020288 0.034627
v -0.031779 -0.004302 0.030844
v -0.031779 -0.004302 0.031475
v -0.008448 -0.020699 0.033997
v -0.030514 -0.003669 0.035888
v -0.008448 0.021549 0.030844
v -0.008448 -0.015021 0.030844
v -0.009080 -0.020699 0.035888
v -0.025471 0.008936 0.035888
v -0.027364 -0.012498 0.030844
v -0.029885 0.005785 0.030844
v -0.008448 0.015871 0.035888
v -0.017907 0.017765 0.031475
v -0.026734 -0.010608 0.035888
v -0.029885 0.003891 0.035888
v -0.012232 0.019027 0.035257
v -0.015388 -0.018176 0.035888
v -0.029885 -0.009976 0.031475
v -0.028625 0.007046 0.033997
v -0.012232 0.020917 0.030844
v -0.031779 0.000111 0.031475
v -0.024210 -0.013760 0.030844
v -0.011602 -0.020066 0.033997
f 701 683 702 
f 680 683 685 
f 681 685 686 
f 685 683 686 
f 684 687 688 
f 681 686 689 
f 685 681 690 
f 683 680 691 
f 687 683 691 
f 688 687 691 
f 687 684 693 
f 684 688 694 
f 691 680 695 
f 688 691 695 
f 692 688 695 
f 687 693 696 
f 693 689 696 
f 682 681 697 
f 684 682 697 
f 681 689 697 
f 693 684 697 
f 689 693 697 
f 688 692 698 
f 692 690 698 
f 694 688 698 
f 690 694 698 
f 680 685 699 
f 685 690 699 
f 690 692 699 
f 695 680 699 
f 692 695 699 
f 681 682 700 
f 682 684 700 
f 690 681 700 
f 684 694 700 
f 694 690 700 
f 686 683 701 
f 689 686 701 
f 689 701 702 
f 683 687 702 
f 687 696 702 
f 696 689 702 
