o convex_0
v -0.014265 -0.027098 0.028906
v -0.004264 0.037062 0.026404
v -0.004264 0.037062 0.025571
v 0.034908 0.002068 0.015570
v -0.036767 0.007054 0.014736
v 0.033236 0.013724 0.028906
v -0.036767 0.021223 0.028906
v -0.006763 -0.028769 0.014736
v 0.010734 0.034563 0.014736
v 0.012400 -0.025441 0.028906
v -0.016764 0.031228 0.014736
v -0.026765 -0.019600 0.026404
v 0.015731 0.032899 0.028906
v 0.034068 0.018730 0.014736
v 0.010734 -0.025441 0.014736
v -0.022594 -0.021270 0.014736
v 0.026573 -0.012101 0.027239
v -0.037600 0.004554 0.028906
v -0.020928 0.032892 0.028906
v -0.036767 0.012889 0.014736
v 0.002399 -0.029611 0.021405
v 0.015731 -0.024605 0.021405
v 0.024067 0.027893 0.028906
v -0.020928 0.032892 0.022237
v -0.020103 -0.026270 0.028072
v -0.029264 -0.014600 0.020573
v 0.031570 0.001233 0.028906
v -0.007596 0.034556 0.014736
v -0.007596 -0.029598 0.026404
v -0.015931 -0.027098 0.016403
v 0.034908 0.002068 0.014736
v -0.008436 0.037062 0.028072
v 0.019903 0.029564 0.014736
v -0.032595 -0.009601 0.027239
v -0.025100 0.026222 0.016403
v -0.038440 0.014559 0.028072
v -0.023434 -0.023770 0.021405
v -0.032595 0.025393 0.027239
v -0.025100 -0.020435 0.028906
v 0.014899 -0.023770 0.016403
v 0.030737 0.019559 0.028906
v 0.025733 -0.012101 0.019738
v 0.024067 -0.014600 0.028906
v 0.004897 -0.027940 0.028072
v -0.006763 0.037062 0.023904
v 0.001566 -0.029611 0.018071
v 0.034908 0.015395 0.015570
v 0.014899 -0.025441 0.023069
v -0.025933 -0.018764 0.017238
v -0.011767 -0.028769 0.018906
v -0.033435 0.017059 0.014736
v -0.010101 -0.028769 0.028906
v 0.008236 0.034563 0.028906
v 0.033236 0.008725 0.028906
v 0.010734 -0.026276 0.015570
v 0.024067 0.027893 0.025571
f 14 33 56 
f 1 6 7 
f 8 5 9 
f 3 2 9 
f 6 1 10 
f 9 5 11 
f 7 6 13 
f 8 9 14 
f 8 14 15 
f 5 8 16 
f 1 7 18 
f 7 13 19 
f 11 5 20 
f 13 6 23 
f 6 10 27 
f 17 4 27 
f 9 11 28 
f 11 24 28 
f 16 8 30 
f 15 14 31 
f 4 17 31 
f 2 3 32 
f 24 19 32 
f 9 13 33 
f 14 9 33 
f 18 5 34 
f 5 26 34 
f 26 12 34 
f 24 11 35 
f 18 7 36 
f 5 18 36 
f 7 20 36 
f 20 5 36 
f 25 12 37 
f 12 26 37 
f 30 25 37 
f 16 30 37 
f 7 19 38 
f 19 24 38 
f 24 35 38 
f 1 18 39 
f 25 1 39 
f 12 25 39 
f 18 34 39 
f 34 12 39 
f 15 31 40 
f 6 14 41 
f 23 6 41 
f 14 23 41 
f 17 22 42 
f 31 17 42 
f 22 40 42 
f 40 31 42 
f 27 10 43 
f 17 27 43 
f 29 21 44 
f 3 9 45 
f 9 28 45 
f 28 24 45 
f 32 3 45 
f 24 32 45 
f 21 29 46 
f 6 4 47 
f 14 6 47 
f 4 31 47 
f 31 14 47 
f 22 17 48 
f 17 43 48 
f 43 10 48 
f 10 44 48 
f 44 21 48 
f 5 16 49 
f 26 5 49 
f 16 37 49 
f 37 26 49 
f 29 25 50 
f 25 30 50 
f 30 8 50 
f 8 46 50 
f 46 29 50 
f 20 7 51 
f 11 20 51 
f 35 11 51 
f 7 38 51 
f 38 35 51 
f 10 1 52 
f 1 25 52 
f 25 29 52 
f 44 10 52 
f 29 44 52 
f 9 2 53 
f 13 9 53 
f 19 13 53 
f 2 32 53 
f 32 19 53 
f 4 6 54 
f 27 4 54 
f 6 27 54 
f 8 15 55 
f 15 40 55 
f 40 22 55 
f 46 8 55 
f 21 46 55 
f 22 48 55 
f 48 21 55 
f 13 23 56 
f 23 14 56 
f 33 13 56 
o convex_1
v -0.050942 -0.008776 -0.028598
v -0.049278 -0.047115 -0.029430
v -0.050942 -0.045443 -0.032769
v -0.064278 -0.033774 -0.006936
v -0.048442 -0.030442 -0.000267
v -0.063444 -0.029610 -0.039438
v -0.048442 -0.023781 -0.047776
v -0.064278 -0.016277 -0.019445
v -0.061777 -0.044611 -0.017771
v -0.048442 -0.012944 -0.011107
v -0.048442 -0.046275 -0.010270
v -0.069279 -0.026281 -0.027770
v -0.058444 -0.015444 -0.037773
v -0.058444 -0.019613 -0.005271
v -0.054277 -0.038778 -0.043605
v -0.062607 -0.039610 -0.034439
v -0.057614 -0.042943 -0.006103
v -0.048442 -0.011276 -0.040270
v -0.048442 -0.037942 -0.046107
v -0.069279 -0.028774 -0.020273
v -0.056778 -0.024613 -0.045270
v -0.055944 -0.030442 -0.000267
v -0.061777 -0.015444 -0.033606
v -0.061777 -0.025445 -0.004438
v -0.048442 -0.039610 -0.001936
v -0.049278 -0.020449 -0.002769
v -0.060107 -0.012944 -0.020273
v -0.066778 -0.037106 -0.020273
v -0.056778 -0.047115 -0.021110
v -0.049276 -0.007940 -0.033602
v -0.061777 -0.024613 -0.041107
v -0.053445 -0.020449 -0.046107
v -0.065108 -0.036274 -0.009438
v -0.067611 -0.020449 -0.023612
v -0.058444 -0.017113 -0.007773
v -0.060943 -0.012944 -0.026105
v -0.068443 -0.025445 -0.018613
v -0.051779 -0.027113 -0.047776
v -0.060107 -0.031274 -0.042772
v -0.068443 -0.032110 -0.026105
v -0.048442 -0.045443 -0.034439
v -0.050942 -0.012944 -0.011102
v -0.049276 -0.012944 -0.042772
v -0.052611 -0.047115 -0.014437
v -0.065108 -0.034606 -0.034439
v -0.060943 -0.041278 -0.033606
v -0.057614 -0.012112 -0.033606
v -0.063444 -0.042943 -0.016939
v -0.066778 -0.019613 -0.027770
v -0.057614 -0.019613 -0.042772
v -0.048442 -0.007940 -0.031104
v -0.051779 -0.045443 -0.007773
v -0.054277 -0.035442 -0.045270
v -0.058444 -0.046275 -0.016939
v -0.060943 -0.035442 -0.004438
v -0.059276 -0.046275 -0.021110
v -0.052611 -0.036274 -0.001104
f 78 111 113 
f 61 63 66 
f 63 61 67 
f 66 63 74 
f 63 67 75 
f 78 70 80 
f 67 61 81 
f 61 66 82 
f 70 78 82 
f 78 61 82 
f 62 68 87 
f 60 76 89 
f 76 84 89 
f 64 80 91 
f 80 70 91 
f 70 82 91 
f 83 64 91 
f 83 57 92 
f 64 83 92 
f 57 86 92 
f 76 60 93 
f 68 76 93 
f 80 64 93 
f 60 80 93 
f 90 68 93 
f 64 90 93 
f 63 75 94 
f 88 63 94 
f 77 88 94 
f 71 72 95 
f 62 87 95 
f 87 77 95 
f 77 94 95 
f 76 68 96 
f 72 84 96 
f 84 76 96 
f 58 59 97 
f 67 58 97 
f 59 71 97 
f 75 67 97 
f 71 75 97 
f 82 66 98 
f 57 83 98 
f 91 82 98 
f 83 91 98 
f 74 63 99 
f 86 74 99 
f 63 88 99 
f 58 67 100 
f 85 58 100 
f 68 62 101 
f 62 95 101 
f 95 72 101 
f 96 68 101 
f 72 96 101 
f 71 59 102 
f 72 71 102 
f 69 79 103 
f 92 86 103 
f 79 92 103 
f 86 99 103 
f 99 69 103 
f 72 65 104 
f 65 73 104 
f 84 72 104 
f 73 89 104 
f 89 84 104 
f 87 68 105 
f 79 87 105 
f 68 90 105 
f 90 64 105 
f 64 92 105 
f 92 79 105 
f 79 69 106 
f 77 87 106 
f 87 79 106 
f 88 77 106 
f 69 99 106 
f 99 88 106 
f 66 74 107 
f 86 57 107 
f 74 86 107 
f 57 98 107 
f 98 66 107 
f 67 81 108 
f 81 73 108 
f 100 67 108 
f 75 71 109 
f 94 75 109 
f 71 95 109 
f 95 94 109 
f 73 65 110 
f 85 100 110 
f 108 73 110 
f 100 108 110 
f 80 60 111 
f 78 80 111 
f 60 89 111 
f 89 73 111 
f 59 58 112 
f 65 72 112 
f 58 85 112 
f 102 59 112 
f 72 102 112 
f 110 65 112 
f 85 110 112 
f 61 78 113 
f 81 61 113 
f 73 81 113 
f 111 73 113 
o convex_2
v -0.011768 -0.012937 0.003069
v -0.047608 -0.001264 0.001400
v -0.045938 -0.012099 0.001400
v -0.039272 0.010389 0.014736
v -0.011768 0.037892 0.001400
v -0.011768 -0.026273 0.014736
v -0.011768 0.032896 0.014736
v -0.041767 0.018723 0.003901
v -0.029274 -0.027111 0.001400
v -0.022605 -0.021271 0.014736
v -0.025937 0.032065 0.009733
v -0.015935 -0.018770 0.001400
v -0.044272 -0.015438 0.003069
v -0.025937 0.032065 0.001400
v -0.044272 0.012058 0.009733
v -0.036771 0.018723 0.013901
v -0.035933 -0.025441 0.002234
v -0.044272 0.014559 0.001400
v -0.013438 0.036229 0.013068
v -0.047608 0.000405 0.004734
v -0.039272 0.005400 0.013901
v -0.015935 0.037898 0.003069
v -0.045938 0.013721 0.004734
v -0.011768 -0.008767 0.001400
v -0.011768 -0.024603 0.011402
v -0.038434 0.021224 0.008068
v -0.041767 0.008720 0.013068
v -0.012603 0.038736 0.007237
v -0.023440 -0.024603 0.001400
v -0.018437 0.030396 0.014736
v -0.039272 0.017891 0.012234
v -0.040939 0.019561 0.001400
v -0.027607 0.031227 0.008068
v -0.025106 0.031227 0.011402
v -0.020103 0.035397 0.009733
f 147 132 148 
f 116 115 118 
f 114 118 119 
f 119 118 120 
f 117 119 120 
f 116 118 122 
f 119 117 123 
f 122 118 125 
f 118 115 127 
f 116 122 130 
f 122 119 130 
f 119 123 130 
f 126 116 130 
f 123 126 130 
f 127 115 131 
f 115 116 133 
f 116 126 133 
f 123 117 134 
f 126 123 134 
f 118 127 135 
f 131 115 136 
f 115 133 136 
f 133 128 136 
f 118 114 137 
f 114 125 137 
f 125 118 137 
f 114 119 138 
f 119 122 138 
f 125 114 138 
f 121 136 139 
f 117 128 140 
f 133 126 140 
f 128 133 140 
f 134 117 140 
f 126 134 140 
f 120 118 141 
f 132 120 141 
f 118 135 141 
f 122 125 142 
f 138 122 142 
f 125 138 142 
f 117 120 143 
f 129 117 143 
f 120 132 143 
f 128 117 144 
f 117 129 144 
f 129 124 144 
f 136 128 144 
f 124 139 144 
f 139 136 144 
f 127 131 145 
f 136 121 145 
f 131 136 145 
f 135 127 146 
f 121 139 146 
f 139 124 146 
f 145 121 146 
f 127 145 146 
f 124 129 147 
f 129 143 147 
f 143 132 147 
f 132 141 148 
f 141 135 148 
f 135 146 148 
f 146 124 148 
f 124 147 148 
o convex_3
v -0.006765 -0.020440 -0.033598
v 0.009904 0.036232 0.014736
v 0.009904 0.037064 0.013899
v 0.015738 -0.009601 -0.042769
v -0.003432 0.042903 -0.047773
v -0.011768 -0.026273 0.014736
v 0.014903 -0.020440 0.013899
v -0.011768 0.037889 0.010563
v 0.015738 0.038729 -0.034435
v -0.011768 0.003735 -0.048610
v 0.015738 0.032064 0.014736
v 0.015738 0.027889 -0.048610
v 0.004901 -0.024601 -0.026095
v -0.011768 0.038736 -0.034429
v 0.013237 0.042064 -0.006104
v 0.010735 -0.025441 0.014736
v 0.015738 -0.019601 -0.026095
v -0.011768 0.032896 0.014736
v 0.000736 -0.003762 -0.048610
v -0.011768 -0.018769 -0.033598
v 0.004901 0.042903 -0.048610
v -0.009266 0.042903 -0.040264
v -0.000931 0.042057 -0.001937
v -0.009266 -0.027944 0.013899
v 0.015738 -0.000433 -0.048610
v -0.004264 -0.009601 -0.046099
v -0.011768 0.021232 -0.048610
v 0.015738 -0.017930 0.014736
v -0.005933 -0.023776 -0.026932
v 0.004901 -0.016266 -0.039433
v 0.015738 0.041232 -0.022765
v -0.010933 0.041232 -0.008603
v 0.006568 0.038729 0.013068
v -0.011768 -0.002937 -0.047773
v 0.015738 0.038729 0.003060
v 0.001568 -0.025434 -0.022759
v 0.015738 0.032896 -0.046099
v 0.003234 -0.009601 -0.046099
v 0.011570 -0.017930 -0.034429
v 0.006568 0.042903 -0.046936
v -0.011768 -0.021273 -0.022759
v -0.006765 0.042903 -0.031099
v 0.003234 -0.024601 -0.027763
v -0.007600 0.038736 0.011400
v -0.004264 -0.021273 -0.033598
v -0.011768 0.028728 -0.045268
v 0.014903 -0.020440 -0.025264
v -0.007600 -0.027944 0.014736
v 0.015738 -0.006265 -0.046099
v -0.009266 -0.003769 -0.048610
v -0.011768 0.040400 -0.014438
v -0.002597 0.042903 -0.048610
v -0.003432 0.037064 0.013899
v 0.010735 -0.025441 0.013068
v 0.015738 0.035400 0.011400
v -0.010933 -0.017937 -0.035266
v -0.011768 0.038736 0.008064
f 180 199 205 
f 154 156 158 
f 150 154 159 
f 152 157 159 
f 157 152 160 
f 158 156 162 
f 159 154 164 
f 152 159 165 
f 155 164 165 
f 154 150 166 
f 156 154 166 
f 158 160 167 
f 154 158 168 
f 160 158 169 
f 169 153 170 
f 160 152 173 
f 167 160 173 
f 158 162 175 
f 169 158 175 
f 164 155 176 
f 159 164 176 
f 155 165 176 
f 165 159 176 
f 168 149 177 
f 159 157 179 
f 150 151 181 
f 163 171 181 
f 168 158 182 
f 159 179 183 
f 179 163 183 
f 181 151 183 
f 163 181 183 
f 172 177 184 
f 157 160 185 
f 160 169 185 
f 167 173 186 
f 178 174 186 
f 152 165 187 
f 178 152 187 
f 169 170 188 
f 179 157 188 
f 163 179 188 
f 157 185 188 
f 185 169 188 
f 154 168 189 
f 172 154 189 
f 168 177 189 
f 177 172 189 
f 171 163 190 
f 170 180 190 
f 180 171 190 
f 163 188 190 
f 188 170 190 
f 161 184 191 
f 184 177 191 
f 187 161 191 
f 178 187 191 
f 156 166 192 
f 181 171 192 
f 177 149 193 
f 174 178 193 
f 191 177 193 
f 178 191 193 
f 170 153 194 
f 162 170 194 
f 175 162 194 
f 153 175 194 
f 161 187 195 
f 187 165 195 
f 164 154 196 
f 154 172 196 
f 172 184 196 
f 173 152 197 
f 152 178 197 
f 186 173 197 
f 178 186 197 
f 158 167 198 
f 182 158 198 
f 167 186 198 
f 186 174 198 
f 162 156 199 
f 170 162 199 
f 180 170 199 
f 153 169 200 
f 175 153 200 
f 169 175 200 
f 166 150 201 
f 150 181 201 
f 192 166 201 
f 181 192 201 
f 165 164 202 
f 184 161 202 
f 161 195 202 
f 195 165 202 
f 164 196 202 
f 196 184 202 
f 151 150 203 
f 150 159 203 
f 183 151 203 
f 159 183 203 
f 149 168 204 
f 168 182 204 
f 193 149 204 
f 174 193 204 
f 198 174 204 
f 182 198 204 
f 171 180 205 
f 156 192 205 
f 192 171 205 
f 199 156 205 
o convex_4
v 0.006569 0.048739 -0.045273
v -0.011768 0.057072 -0.038608
v -0.011768 0.057072 -0.035277
v -0.009264 0.042903 -0.041105
v -0.004263 0.042903 -0.031107
v 0.001567 0.062071 -0.037777
v -0.003430 0.056238 -0.048610
v 0.004902 0.042903 -0.048610
v -0.007600 0.062907 -0.034441
v -0.000933 0.060405 -0.046942
v -0.010100 0.052073 -0.030273
v 0.006569 0.045406 -0.042774
v -0.006765 0.045406 -0.046106
v 0.000734 0.057903 -0.035277
v -0.010100 0.062071 -0.039441
v -0.006765 0.054570 -0.030273
v -0.002599 0.042903 -0.048610
v 0.004067 0.055404 -0.037777
v 0.001567 0.057903 -0.047773
v -0.008433 0.042903 -0.032777
v -0.009264 0.055404 -0.043606
v -0.009264 0.060405 -0.031940
v 0.002402 0.060405 -0.044442
v -0.010933 0.048739 -0.040274
v -0.006765 0.062071 -0.042774
v 0.004902 0.042903 -0.041942
v 0.005735 0.050407 -0.047773
v -0.005099 0.062071 -0.033610
v -0.011768 0.059573 -0.033610
v -0.010100 0.047074 -0.032777
v -0.000933 0.062907 -0.038608
v -0.007600 0.048739 -0.046106
v 0.002402 0.051241 -0.036108
f 223 219 238 
f 210 209 213 
f 213 206 217 
f 216 210 221 
f 210 219 221 
f 213 209 222 
f 212 213 222 
f 209 218 222 
f 217 206 223 
f 211 219 223 
f 213 212 224 
f 212 215 224 
f 209 210 225 
f 210 216 225 
f 207 220 226 
f 216 221 227 
f 223 206 228 
f 211 223 228 
f 224 215 228 
f 208 207 229 
f 207 226 229 
f 215 212 230 
f 220 214 230 
f 212 226 230 
f 226 220 230 
f 210 213 231 
f 217 210 231 
f 213 217 231 
f 206 213 232 
f 213 224 232 
f 228 206 232 
f 224 228 232 
f 211 214 233 
f 219 211 233 
f 221 219 233 
f 214 227 233 
f 227 221 233 
f 207 208 234 
f 220 207 234 
f 214 220 234 
f 227 214 234 
f 216 227 234 
f 209 225 235 
f 225 216 235 
f 208 229 235 
f 229 209 235 
f 234 208 235 
f 216 234 235 
f 214 211 236 
f 211 228 236 
f 228 215 236 
f 230 214 236 
f 215 230 236 
f 218 209 237 
f 212 222 237 
f 222 218 237 
f 226 212 237 
f 209 229 237 
f 229 226 237 
f 210 217 238 
f 219 210 238 
f 217 223 238 
o convex_5
v 0.025738 0.027059 0.038080
v -0.034270 -0.006264 0.048082
v -0.034270 -0.006264 0.058908
v 0.011566 -0.025432 0.028914
v 0.028240 -0.006270 0.063076
v -0.032600 0.025396 0.028906
v -0.010933 0.022895 0.065573
v -0.015100 -0.027108 0.030578
v 0.002400 0.036231 0.028914
v -0.006760 -0.012103 0.066409
v 0.028240 -0.002938 0.028906
v -0.034270 0.012892 0.063913
v 0.008238 0.010391 0.070574
v 0.019900 0.023727 0.057239
v -0.015100 0.032899 0.048082
v -0.031768 -0.008771 0.028906
v 0.028240 0.021226 0.028906
v 0.001562 0.036231 0.042249
v 0.003233 -0.026277 0.036411
v 0.028240 0.014555 0.058075
v -0.033432 -0.004594 0.064741
v -0.009262 0.010385 0.071410
v -0.034270 0.020395 0.056407
v 0.028240 -0.009602 0.031410
v -0.011765 0.036231 0.032247
v 0.005735 0.025396 0.062240
v -0.020937 -0.024607 0.033079
v -0.000934 -0.004601 0.069742
v -0.034270 -0.000431 0.028906
v -0.029265 0.028729 0.037244
v -0.007598 -0.028778 0.033079
v 0.008238 0.019557 0.067241
v 0.013237 0.033724 0.028914
v 0.004065 0.029566 0.057239
v 0.020733 0.012892 0.064741
v -0.025098 -0.019599 0.028906
v 0.016566 0.030391 0.045581
v -0.034270 0.023727 0.030574
v 0.028240 0.023727 0.045577
v -0.014261 0.031229 0.053074
v 0.004897 0.003733 0.071410
v 0.002400 -0.015436 0.058071
v -0.020937 -0.013766 0.055575
v 0.024900 -0.012935 0.043081
v -0.034270 0.006221 0.065577
v -0.023434 0.029560 0.049742
v -0.020099 0.032899 0.028906
v -0.010094 -0.028778 0.028914
v -0.025936 0.024565 0.057243
v -0.008430 -0.002938 0.069742
v -0.004263 0.012892 0.071410
v 0.027402 -0.001269 0.063913
v 0.028240 0.024558 0.032243
v 0.028240 -0.007933 0.058908
v 0.009070 -0.026277 0.031410
v -0.013429 -0.027108 0.033911
v -0.033432 -0.002100 0.065577
v -0.034270 0.023727 0.044745
v 0.020733 0.021226 0.059740
v -0.006760 0.032899 0.051406
v -0.033432 0.015393 0.063076
v 0.024900 -0.012935 0.028914
v 0.001562 0.037069 0.035579
v 0.013237 0.033724 0.033911
f 301 256 302 
f 240 241 250 
f 244 249 254 
f 243 249 255 
f 249 244 255 
f 243 255 258 
f 240 250 261 
f 249 243 262 
f 253 256 263 
f 259 241 265 
f 248 243 266 
f 254 240 267 
f 244 254 267 
f 240 261 267 
f 257 248 269 
f 264 245 270 
f 245 264 272 
f 264 252 272 
f 270 251 273 
f 241 240 274 
f 249 242 274 
f 240 254 274 
f 254 249 274 
f 265 241 274 
f 246 265 274 
f 272 252 275 
f 256 272 275 
f 244 267 276 
f 267 261 276 
f 258 255 277 
f 239 275 277 
f 275 252 277 
f 266 243 279 
f 243 248 280 
f 257 243 280 
f 248 257 280 
f 248 259 281 
f 250 241 283 
f 241 259 283 
f 260 250 283 
f 253 263 284 
f 263 268 284 
f 278 253 284 
f 255 244 285 
f 263 247 285 
f 244 268 285 
f 268 263 285 
f 271 255 285 
f 247 271 285 
f 274 242 286 
f 246 274 286 
f 245 278 287 
f 284 261 287 
f 278 284 287 
f 259 248 288 
f 248 266 288 
f 279 260 288 
f 266 279 288 
f 245 260 289 
f 251 270 289 
f 270 245 289 
f 279 251 289 
f 260 279 289 
f 243 258 290 
f 273 251 290 
f 258 273 290 
f 279 243 290 
f 251 279 290 
f 271 239 291 
f 255 271 291 
f 239 277 291 
f 277 255 291 
f 262 243 292 
f 242 282 292 
f 282 262 292 
f 243 257 293 
f 257 269 293 
f 286 242 293 
f 269 286 293 
f 242 292 293 
f 292 243 293 
f 265 246 294 
f 259 265 294 
f 269 248 294 
f 248 281 294 
f 281 259 294 
f 286 269 294 
f 246 286 294 
f 283 259 295 
f 260 283 295 
f 259 288 295 
f 288 260 295 
f 268 244 296 
f 244 276 296 
f 276 261 296 
f 261 284 296 
f 284 268 296 
f 252 264 297 
f 264 270 297 
f 273 258 297 
f 270 273 297 
f 277 252 297 
f 258 277 297 
f 256 253 298 
f 245 272 298 
f 272 256 298 
f 253 278 298 
f 278 245 298 
f 260 245 299 
f 250 260 299 
f 261 250 299 
f 245 287 299 
f 287 261 299 
f 242 249 300 
f 249 262 300 
f 282 242 300 
f 262 282 300 
f 247 263 301 
f 263 256 301 
f 271 247 301 
f 271 301 302 
f 239 271 302 
f 275 239 302 
f 256 275 302 
o convex_6
v 0.035742 0.006227 0.033074
v 0.034907 0.000396 0.063079
v 0.034074 0.000396 0.063079
v 0.034907 -0.016275 0.048070
v 0.028240 0.022065 0.029742
v 0.028240 -0.006269 0.031408
v 0.028240 -0.005439 0.063079
v 0.035742 0.014561 0.053910
v 0.028240 0.016226 0.055576
v 0.035742 -0.011274 0.059744
v 0.032408 0.017898 0.028906
v 0.029075 -0.011274 0.054743
v 0.029075 0.022065 0.046407
v 0.030741 -0.000438 0.028906
v 0.035742 -0.011274 0.042243
v 0.035742 0.016226 0.044745
v 0.029075 0.023733 0.031408
v 0.028240 0.007062 0.061410
v 0.034074 -0.015441 0.053910
v 0.035742 0.003729 0.061410
v 0.028240 -0.002102 0.028906
v 0.028240 -0.008772 0.059744
v 0.035742 0.013731 0.037242
v 0.034074 0.007896 0.029742
v 0.034074 -0.016275 0.048909
v 0.035742 -0.016275 0.052241
v 0.031575 0.021230 0.031408
v 0.028240 0.022065 0.046407
v 0.035742 0.002899 0.033910
f 316 326 331 
f 304 305 309 
f 307 308 309 
f 307 309 311 
f 304 309 312 
f 303 310 312 
f 311 310 315 
f 306 308 317 
f 303 312 317 
f 308 316 317 
f 310 303 318 
f 315 310 318 
f 315 318 319 
f 313 307 319 
f 305 304 320 
f 309 305 320 
f 311 309 320 
f 310 311 322 
f 304 312 322 
f 312 310 322 
f 320 304 322 
f 311 320 322 
f 308 307 323 
f 307 313 323 
f 316 308 323 
f 313 316 323 
f 309 308 324 
f 312 309 324 
f 308 314 324 
f 321 312 324 
f 314 321 324 
f 303 313 325 
f 318 303 325 
f 313 303 326 
f 316 313 326 
f 308 306 327 
f 314 308 327 
f 321 314 327 
f 321 327 328 
f 306 317 328 
f 317 312 328 
f 312 321 328 
f 327 306 328 
f 319 318 329 
f 313 319 329 
f 325 313 329 
f 318 325 329 
f 307 311 330 
f 311 315 330 
f 315 319 330 
f 319 307 330 
f 303 317 331 
f 317 316 331 
f 326 303 331 
o convex_7
v 0.045748 -0.004603 0.032240
v 0.038243 0.000394 0.062246
v 0.041579 0.002892 0.058909
v 0.058243 -0.019606 0.045577
v 0.035742 -0.017942 0.048908
v 0.036577 0.017065 0.042244
v 0.052411 0.006229 0.041410
v 0.035742 0.008727 0.033911
v 0.055742 -0.017942 0.052242
v 0.054912 -0.013771 0.034742
v 0.035742 -0.008770 0.060575
v 0.046578 0.007063 0.033074
v 0.035742 0.013728 0.053910
v 0.059913 -0.012937 0.046412
v 0.043245 -0.014605 0.037242
v 0.049077 -0.022943 0.048074
v 0.055742 -0.006272 0.033911
v 0.044913 -0.002109 0.060575
v 0.044913 0.012894 0.047243
v 0.049907 -0.020441 0.039744
v 0.044913 -0.019606 0.053910
v 0.054076 0.001228 0.045577
v 0.048242 0.010396 0.037242
v 0.041579 -0.011273 0.035576
v 0.043245 -0.010439 0.059743
v 0.059078 -0.009604 0.039744
v 0.035742 -0.011273 0.042244
v 0.047414 -0.011273 0.033074
v 0.055742 -0.020441 0.040575
v 0.040744 0.016231 0.047243
v 0.042414 0.012064 0.035576
v 0.053241 -0.007936 0.032240
v 0.036577 -0.017942 0.052242
v 0.052411 0.005395 0.037242
v 0.056577 -0.007106 0.048908
v 0.043245 0.007063 0.032240
v 0.035742 -0.004603 0.062246
v 0.053241 -0.022943 0.047243
v 0.038243 0.013728 0.053076
v 0.043245 -0.005438 0.061412
v 0.041579 -0.004603 0.033074
v 0.043245 -0.020441 0.044743
v 0.049077 -0.020441 0.053076
v 0.059913 -0.015440 0.043912
v 0.057413 -0.011273 0.049742
v 0.043245 0.014562 0.040575
v 0.054076 -0.002939 0.033074
v 0.057413 -0.004603 0.038913
v 0.059078 -0.008770 0.043912
v 0.050743 -0.022943 0.044743
v 0.035742 0.012064 0.036408
f 362 339 382 
f 339 336 342 
f 339 342 344 
f 340 335 345 
f 334 333 349 
f 338 350 353 
f 350 349 353 
f 350 338 354 
f 346 336 355 
f 342 352 356 
f 341 348 357 
f 336 339 358 
f 339 355 358 
f 355 336 358 
f 341 351 359 
f 351 346 359 
f 346 355 359 
f 351 341 360 
f 337 344 361 
f 354 343 362 
f 348 341 363 
f 359 332 363 
f 341 359 363 
f 342 336 364 
f 336 347 364 
f 352 342 364 
f 347 352 364 
f 343 354 365 
f 354 338 365 
f 353 349 366 
f 339 362 367 
f 362 343 367 
f 363 332 367 
f 333 344 368 
f 344 342 368 
f 342 356 368 
f 335 340 369 
f 360 335 369 
f 333 334 370 
f 344 333 370 
f 334 349 370 
f 349 350 370 
f 361 344 370 
f 350 361 370 
f 349 333 371 
f 340 349 371 
f 356 340 371 
f 333 368 371 
f 368 356 371 
f 355 339 372 
f 332 359 372 
f 359 355 372 
f 367 332 372 
f 339 367 372 
f 336 346 373 
f 347 336 373 
f 346 351 373 
f 352 347 374 
f 340 356 374 
f 356 352 374 
f 369 340 374 
f 347 369 374 
f 345 335 375 
f 341 357 375 
f 357 345 375 
f 335 360 375 
f 360 341 375 
f 340 345 376 
f 349 340 376 
f 345 366 376 
f 366 349 376 
f 350 354 377 
f 337 361 377 
f 361 350 377 
f 362 337 377 
f 354 362 377 
f 348 363 378 
f 343 365 378 
f 367 343 378 
f 363 367 378 
f 357 348 379 
f 365 338 379 
f 348 378 379 
f 378 365 379 
f 338 353 380 
f 345 357 380 
f 366 345 380 
f 353 366 380 
f 379 338 380 
f 357 379 380 
f 351 360 381 
f 369 347 381 
f 360 369 381 
f 347 373 381 
f 373 351 381 
f 344 337 382 
f 339 344 382 
f 337 362 382 
o convex_8
v -0.011768 0.027059 -0.046108
v -0.048442 -0.047939 -0.016937
v -0.048442 -0.047939 -0.012769
v -0.020103 -0.041278 -0.027774
v -0.011768 0.039569 -0.012769
v -0.048442 -0.017934 -0.046936
v -0.033436 0.024563 -0.017772
v -0.011768 -0.017934 -0.012769
v -0.027606 -0.039602 -0.046108
v -0.048442 -0.013770 -0.012769
v -0.011768 -0.002107 -0.047775
v -0.026773 0.027889 -0.037773
v -0.044274 -0.038773 -0.047775
v -0.030937 -0.049606 -0.019439
v -0.024271 0.016226 -0.048610
v -0.048442 -0.007101 -0.032766
v -0.012604 -0.018772 -0.041941
v -0.025107 0.035397 -0.012769
v -0.012604 0.038731 -0.032766
v -0.048442 -0.046272 -0.032766
v -0.025937 -0.044604 -0.014439
v -0.031770 -0.046272 -0.039439
v -0.026773 -0.030436 -0.048610
v -0.023438 -0.043766 -0.036106
v -0.045939 -0.021269 -0.048610
v -0.039273 0.003725 -0.043607
v -0.015935 0.023725 -0.048610
v -0.015103 -0.019602 -0.046936
v -0.048442 -0.037935 -0.046108
v -0.029272 0.030394 -0.023606
v -0.011768 -0.021269 -0.021940
v -0.040106 -0.049615 -0.012769
v -0.021773 0.032891 -0.036934
v -0.024271 0.021228 -0.046936
v -0.020940 -0.042107 -0.021105
v -0.022605 0.037055 -0.018607
v -0.035105 0.016226 -0.035268
v -0.034272 0.022057 -0.014439
v -0.014270 0.032053 -0.042772
v -0.019270 -0.037935 -0.036106
v -0.030105 -0.049606 -0.023606
v -0.041772 -0.040440 -0.047775
v -0.011768 0.002886 -0.048610
v -0.046772 -0.047939 -0.027774
v -0.048442 -0.012932 -0.044442
v -0.023438 -0.040440 -0.041941
v -0.025107 -0.047110 -0.021105
v -0.033436 0.023725 -0.024441
v -0.032603 -0.044604 -0.043607
v -0.011768 0.037064 -0.036934
v -0.023438 -0.037105 -0.012769
v -0.044274 -0.049615 -0.016106
v -0.048442 -0.010444 -0.020273
v -0.011768 -0.020431 -0.028609
v -0.033436 0.022895 -0.012769
v -0.011768 0.021219 -0.048610
v -0.021773 -0.031274 -0.046936
v -0.033436 -0.048777 -0.029441
v -0.028439 0.021228 -0.042772
v -0.015103 -0.017105 -0.047775
v -0.045939 -0.027101 -0.048610
v -0.021773 0.024563 -0.046108
v -0.014270 0.038731 -0.031104
v -0.016768 -0.025433 -0.045273
f 428 439 446 
f 384 385 388 
f 383 387 390 
f 387 385 390 
f 385 387 392 
f 388 385 392 
f 383 390 393 
f 388 392 398 
f 392 387 400 
f 384 388 402 
f 388 397 407 
f 397 405 407 
f 405 397 409 
f 393 399 410 
f 402 388 411 
f 389 400 412 
f 393 390 413 
f 390 385 414 
f 396 403 414 
f 394 412 415 
f 397 388 416 
f 388 408 416 
f 409 397 416 
f 390 403 417 
f 386 413 417 
f 413 390 417 
f 400 387 418 
f 412 400 418 
f 415 412 418 
f 394 408 419 
f 389 398 420 
f 383 409 421 
f 386 406 422 
f 404 406 423 
f 396 414 423 
f 405 391 424 
f 402 411 424 
f 411 395 424 
f 383 393 425 
f 405 409 425 
f 384 402 426 
f 402 404 426 
f 388 398 427 
f 408 388 427 
f 419 408 427 
f 398 419 427 
f 422 406 428 
f 403 396 429 
f 406 386 429 
f 417 403 429 
f 386 417 429 
f 423 406 429 
f 396 423 429 
f 398 389 430 
f 389 412 430 
f 412 394 430 
f 394 419 430 
f 419 398 430 
f 404 402 431 
f 406 404 431 
f 424 391 431 
f 402 424 431 
f 391 428 431 
f 428 406 431 
f 387 383 432 
f 401 387 432 
f 415 401 432 
f 383 421 432 
f 421 415 432 
f 403 390 433 
f 390 414 433 
f 414 403 433 
f 385 384 434 
f 414 385 434 
f 423 414 434 
f 384 426 434 
f 398 392 435 
f 392 420 435 
f 420 398 435 
f 399 393 436 
f 413 386 436 
f 393 413 436 
f 386 422 436 
f 422 399 436 
f 392 400 437 
f 400 389 437 
f 420 392 437 
f 389 420 437 
f 409 383 438 
f 383 425 438 
f 425 409 438 
f 391 405 439 
f 428 391 439 
f 404 423 440 
f 426 404 440 
f 423 434 440 
f 434 426 440 
f 408 394 441 
f 416 408 441 
f 393 410 442 
f 425 393 442 
f 405 425 442 
f 439 405 442 
f 410 439 442 
f 388 407 443 
f 407 405 443 
f 411 388 443 
f 395 411 443 
f 405 424 443 
f 424 395 443 
f 394 415 444 
f 409 416 444 
f 421 409 444 
f 415 421 444 
f 441 394 444 
f 416 441 444 
f 387 401 445 
f 401 415 445 
f 418 387 445 
f 415 418 445 
f 410 399 446 
f 399 422 446 
f 422 428 446 
f 439 410 446 
o convex_9
v -0.011768 -0.009602 0.000567
v -0.048442 -0.047101 -0.012769
v -0.047605 -0.047948 -0.012769
v -0.011768 0.039555 -0.012769
v -0.045103 0.010393 0.001400
v -0.011768 -0.017930 -0.012769
v -0.011768 0.037056 0.001400
v -0.048442 -0.033774 0.000567
v -0.048442 -0.013770 -0.012769
v -0.019270 -0.022937 0.001400
v -0.025107 0.035396 -0.012769
v -0.032603 -0.046270 -0.011934
v -0.043437 -0.044610 -0.003601
v -0.042604 0.017891 -0.000267
v -0.013437 -0.022107 -0.003601
v -0.025940 0.032057 0.001400
v -0.047605 0.003717 0.001400
v -0.033440 0.022890 -0.012769
v -0.018438 0.038725 -0.005270
v -0.045103 0.006225 -0.006934
v -0.039270 -0.047101 -0.006934
v -0.024275 -0.036273 -0.012769
v -0.027606 -0.027106 0.001400
v -0.015103 -0.019608 0.001400
v -0.048442 -0.039603 -0.001101
v -0.048442 -0.005433 -0.000267
v -0.042604 -0.020429 0.001400
v -0.040939 0.019552 0.001400
v -0.017605 -0.026267 -0.002768
v -0.024271 0.036226 -0.009434
v -0.014270 0.040403 -0.009434
v -0.041772 -0.035434 0.000567
v -0.037604 -0.041272 -0.002768
v -0.016772 0.037895 -0.000267
v -0.035105 -0.047101 -0.012769
v -0.011768 -0.008763 0.001400
v -0.030937 -0.044610 -0.011102
v -0.048442 -0.005433 -0.006099
v -0.043437 0.007885 -0.008601
v -0.011768 0.040403 -0.007768
f 477 480 486 
f 449 448 450 
f 449 450 452 
f 450 447 452 
f 447 450 453 
f 450 448 455 
f 448 454 455 
f 453 451 456 
f 450 455 457 
f 452 447 461 
f 451 453 462 
f 456 451 463 
f 451 460 463 
f 457 455 464 
f 460 457 464 
f 463 460 466 
f 459 449 467 
f 449 452 468 
f 452 461 468 
f 456 463 469 
f 453 456 470 
f 448 449 471 
f 454 448 471 
f 449 459 471 
f 455 454 472 
f 454 463 472 
f 463 454 473 
f 454 469 473 
f 469 463 473 
f 460 451 474 
f 451 462 474 
f 456 467 475 
f 470 456 475 
f 461 470 475 
f 457 460 476 
f 462 465 476 
f 460 474 476 
f 474 462 476 
f 450 457 477 
f 457 476 477 
f 476 465 477 
f 469 454 478 
f 454 471 478 
f 471 459 478 
f 467 456 479 
f 459 467 479 
f 456 469 479 
f 478 459 479 
f 469 478 479 
f 462 453 480 
f 465 462 480 
f 477 465 480 
f 467 449 481 
f 458 467 481 
f 449 468 481 
f 468 458 481 
f 447 453 482 
f 461 447 482 
f 453 470 482 
f 470 461 482 
f 467 458 483 
f 458 468 483 
f 468 461 483 
f 461 475 483 
f 475 467 483 
f 466 455 484 
f 463 466 484 
f 455 472 484 
f 472 463 484 
f 464 455 485 
f 460 464 485 
f 455 466 485 
f 466 460 485 
f 453 450 486 
f 450 477 486 
f 480 453 486 
o convex_10
v 0.057406 -0.033771 -0.043609
v 0.015738 -0.009609 -0.042777
v 0.015738 -0.009609 -0.041942
v 0.034909 0.013731 -0.043609
v 0.027407 -0.027940 -0.048610
v 0.028243 0.013731 -0.048610
v 0.053244 -0.021266 -0.048610
v 0.059910 -0.015435 -0.041942
v 0.039076 -0.042947 -0.041942
v 0.015738 0.013731 -0.048610
v 0.015738 0.013731 -0.041942
v 0.045742 -0.036278 -0.048610
v 0.021572 -0.030442 -0.041942
v 0.017406 -0.014608 -0.046942
v 0.034909 0.013731 -0.041942
v 0.057406 -0.017937 -0.046109
v 0.062414 -0.027940 -0.041942
v 0.028243 -0.033771 -0.046942
v 0.056579 -0.029604 -0.046942
v 0.015738 -0.000439 -0.048610
v 0.034909 0.012893 -0.045276
v 0.041571 -0.042947 -0.043609
v 0.028243 -0.037943 -0.042777
v 0.016574 -0.019607 -0.042777
v 0.036581 -0.041272 -0.044442
v 0.056579 -0.034609 -0.041942
v 0.059910 -0.015435 -0.042777
v 0.022409 -0.029604 -0.044442
v 0.061578 -0.022109 -0.043609
v 0.049077 -0.034609 -0.048610
v 0.022409 -0.022941 -0.047775
v 0.056579 -0.018775 -0.046942
f 515 505 518 
f 491 492 493 
f 494 489 495 
f 488 489 496 
f 492 491 496 
f 490 492 496 
f 489 494 497 
f 496 489 497 
f 490 496 497 
f 491 493 498 
f 495 489 499 
f 494 490 501 
f 497 494 501 
f 490 497 501 
f 494 495 503 
f 491 498 504 
f 503 487 505 
f 488 496 506 
f 496 491 506 
f 492 490 507 
f 495 499 509 
f 489 488 510 
f 499 489 510 
f 488 506 510 
f 506 500 510 
f 504 498 511 
f 508 495 511 
f 498 508 511 
f 509 504 511 
f 495 509 511 
f 487 503 512 
f 503 495 512 
f 508 487 512 
f 495 508 512 
f 490 494 513 
f 507 490 513 
f 502 507 513 
f 504 509 514 
f 509 499 514 
f 499 510 514 
f 510 500 514 
f 494 503 515 
f 503 505 515 
f 513 494 515 
f 502 513 515 
f 498 493 516 
f 505 487 516 
f 493 505 516 
f 487 508 516 
f 508 498 516 
f 491 504 517 
f 506 491 517 
f 500 506 517 
f 514 500 517 
f 504 514 517 
f 493 492 518 
f 505 493 518 
f 492 507 518 
f 507 502 518 
f 502 515 518 
o convex_11
v 0.050746 -0.006277 -0.014437
v 0.049914 -0.047944 -0.018605
v 0.050746 -0.047944 -0.018605
v 0.049914 -0.007944 -0.041942
v 0.070749 -0.022116 -0.024438
v 0.046577 -0.027940 0.002230
v 0.046577 -0.038773 -0.041942
v 0.064081 -0.030442 -0.001101
v 0.067413 -0.032941 -0.033606
v 0.046577 -0.004610 -0.036937
v 0.064914 -0.040445 -0.008608
v 0.046577 -0.047108 -0.007771
v 0.060745 -0.010447 -0.011943
v 0.059910 -0.013781 -0.041942
v 0.055746 -0.016279 0.000565
v 0.046577 -0.009611 -0.006106
v 0.069081 -0.024614 -0.009441
v 0.052415 -0.033776 0.003067
v 0.055746 -0.043774 -0.030271
v 0.062413 -0.029607 -0.041942
v 0.058247 -0.008780 -0.035272
v 0.069081 -0.036275 -0.019437
v 0.064081 -0.042947 -0.018609
v 0.053247 -0.047944 -0.009436
v 0.060745 -0.038773 -0.001101
v 0.066580 -0.025446 -0.037770
v 0.067413 -0.017111 -0.030267
v 0.046577 -0.045441 -0.030271
v 0.059080 -0.018778 0.000565
v 0.054913 -0.008780 -0.006938
v 0.056579 -0.007113 -0.017776
v 0.053247 -0.038773 -0.040272
v 0.067413 -0.038778 -0.010269
v 0.051579 -0.022112 0.003067
v 0.046577 -0.040440 -0.001101
v 0.046577 -0.007944 -0.041942
v 0.068248 -0.017111 -0.022768
v 0.054913 -0.047944 -0.017776
v 0.046577 -0.004610 -0.023601
v 0.059910 -0.008780 -0.023601
v 0.059910 -0.033776 0.001397
v 0.064914 -0.017946 -0.007771
v 0.070749 -0.027940 -0.018609
v 0.069081 -0.030442 -0.031104
v 0.046577 -0.014612 -0.001938
v 0.047413 -0.042107 -0.038607
v 0.054083 -0.038773 0.000565
v 0.048246 -0.004610 -0.036937
v 0.065747 -0.033772 -0.035267
v 0.065747 -0.033772 -0.003607
v 0.055746 -0.025446 0.003067
v 0.064081 -0.026277 -0.001101
v 0.059910 -0.044610 -0.009436
v 0.064914 -0.015444 -0.035267
v 0.054083 -0.011278 -0.002775
v 0.070749 -0.021280 -0.021935
v 0.063246 -0.012110 -0.014441
v 0.051579 -0.044610 -0.031936
v 0.056579 -0.041276 -0.034439
v 0.046577 -0.007113 -0.011106
v 0.047413 -0.037111 0.001397
v 0.049081 -0.004610 -0.023601
v 0.068248 -0.022116 -0.009441
v 0.065747 -0.014612 -0.027769
f 575 555 582 
f 525 524 528 
f 524 525 530 
f 525 522 532 
f 528 524 534 
f 525 532 538 
f 532 522 539 
f 527 540 541 
f 520 521 542 
f 530 520 542 
f 527 538 544 
f 538 532 544 
f 523 544 545 
f 521 520 546 
f 520 530 546 
f 530 525 546 
f 519 548 549 
f 548 531 549 
f 525 538 550 
f 541 540 551 
f 543 529 551 
f 524 536 552 
f 547 533 552 
f 524 530 553 
f 522 525 554 
f 528 522 554 
f 525 528 554 
f 537 541 556 
f 542 521 556 
f 521 546 556 
f 528 534 557 
f 549 531 558 
f 531 547 560 
f 535 551 561 
f 551 540 561 
f 540 527 562 
f 544 523 562 
f 527 544 562 
f 523 561 562 
f 561 540 562 
f 534 524 563 
f 552 533 563 
f 524 552 563 
f 546 525 564 
f 525 550 564 
f 530 542 565 
f 542 543 565 
f 553 530 565 
f 543 559 565 
f 559 536 565 
f 522 528 566 
f 539 522 566 
f 528 557 566 
f 558 539 566 
f 549 558 566 
f 538 527 567 
f 527 541 567 
f 550 538 567 
f 551 535 568 
f 543 551 568 
f 526 559 568 
f 559 543 568 
f 552 536 569 
f 547 552 569 
f 536 559 569 
f 569 559 570 
f 559 526 570 
f 560 547 570 
f 526 568 570 
f 568 535 570 
f 547 569 570 
f 529 543 571 
f 543 542 571 
f 551 529 571 
f 541 551 571 
f 556 541 571 
f 542 556 571 
f 532 539 572 
f 544 532 572 
f 545 544 572 
f 547 531 573 
f 533 547 573 
f 531 548 573 
f 548 534 573 
f 563 533 573 
f 534 563 573 
f 523 545 574 
f 545 555 574 
f 561 523 574 
f 535 561 574 
f 558 531 575 
f 531 560 575 
f 574 555 575 
f 537 556 576 
f 556 546 576 
f 546 564 576 
f 576 564 577 
f 541 537 577 
f 564 550 577 
f 567 541 577 
f 550 567 577 
f 537 576 577 
f 548 519 578 
f 534 548 578 
f 519 557 578 
f 557 534 578 
f 536 524 579 
f 524 553 579 
f 553 565 579 
f 565 536 579 
f 519 549 580 
f 557 519 580 
f 566 557 580 
f 549 566 580 
f 560 570 581 
f 570 535 581 
f 535 574 581 
f 575 560 581 
f 574 575 581 
f 555 545 582 
f 539 558 582 
f 572 539 582 
f 545 572 582 
f 558 575 582 
o convex_12
v -0.055941 0.006227 0.029739
v -0.041776 -0.000435 0.061412
v -0.042610 -0.000435 0.061412
v -0.041776 0.022066 0.054743
v -0.041776 -0.006272 0.034741
v -0.060942 -0.008771 0.040577
v -0.054275 0.015396 0.050575
v -0.043444 -0.013772 0.051408
v -0.041776 0.022066 0.045573
v -0.057607 -0.011273 0.033074
v -0.057607 0.013730 0.037242
v -0.049278 0.003729 0.029739
v -0.044278 -0.006272 0.060579
v -0.057607 0.004562 0.048907
v -0.047610 -0.008771 0.030573
v -0.044278 0.014563 0.059745
v -0.061776 -0.001272 0.036409
v -0.051777 0.019564 0.040577
v -0.050944 -0.014608 0.038076
v -0.041776 -0.011273 0.040577
v -0.050110 0.013730 0.033908
v -0.055941 -0.004603 0.028906
v -0.059275 0.007890 0.044745
v -0.041776 -0.009604 0.059745
v -0.041776 0.018731 0.042244
v -0.050944 0.019564 0.051408
v -0.054275 -0.011273 0.046406
v -0.050944 0.007890 0.055577
v -0.058441 -0.000435 0.029739
v -0.057607 0.001230 0.048907
v -0.042610 -0.002105 0.033908
v -0.058441 0.012897 0.041411
v -0.050944 -0.014608 0.043078
v -0.058441 0.006227 0.031407
v -0.041776 0.017898 0.058911
v -0.045110 -0.013772 0.040577
v -0.061776 -0.004603 0.035575
v -0.051777 0.005395 0.028906
v -0.048444 0.021229 0.045573
v -0.056775 -0.009604 0.045573
v -0.055107 0.013730 0.034741
v -0.048444 0.005395 0.030573
v -0.044278 0.018731 0.058078
v -0.050110 -0.004603 0.028906
v -0.045944 -0.011273 0.054743
v -0.059275 0.011228 0.038910
v -0.061776 -0.001272 0.038910
f 605 628 629 
f 586 584 587 
f 586 587 591 
f 584 585 595 
f 585 584 598 
f 595 585 598 
f 592 597 601 
f 587 584 602 
f 597 587 602 
f 600 591 603 
f 597 592 604 
f 596 589 605 
f 584 595 606 
f 602 584 606 
f 590 602 606 
f 591 587 607 
f 603 591 607 
f 589 596 610 
f 598 589 610 
f 595 598 610 
f 583 604 611 
f 604 592 611 
f 610 596 612 
f 595 610 612 
f 587 597 613 
f 607 587 613 
f 600 593 614 
f 605 589 614 
f 589 608 614 
f 608 600 614 
f 588 592 615 
f 601 590 615 
f 592 601 615 
f 609 588 615 
f 583 611 616 
f 611 599 616 
f 584 586 617 
f 598 584 617 
f 590 601 618 
f 601 597 618 
f 597 602 618 
f 602 590 618 
f 592 588 619 
f 611 592 619 
f 599 611 619 
f 583 603 620 
f 604 583 620 
f 586 591 621 
f 591 600 621 
f 608 586 621 
f 600 608 621 
f 588 609 622 
f 612 588 622 
f 595 612 622 
f 593 600 623 
f 603 583 623 
f 600 603 623 
f 583 616 623 
f 616 593 623 
f 603 607 624 
f 613 594 624 
f 607 613 624 
f 594 620 624 
f 620 603 624 
f 589 598 625 
f 608 589 625 
f 586 608 625 
f 617 586 625 
f 598 617 625 
f 597 604 626 
f 613 597 626 
f 594 613 626 
f 620 594 626 
f 604 620 626 
f 590 606 627 
f 606 595 627 
f 615 590 627 
f 609 615 627 
f 622 609 627 
f 595 622 627 
f 614 593 628 
f 605 614 628 
f 593 616 628 
f 616 599 628 
f 596 605 629 
f 588 612 629 
f 612 596 629 
f 619 588 629 
f 599 619 629 
f 628 599 629 
o convex_13
v -0.034273 0.015395 0.062245
v -0.041774 -0.012108 0.047243
v -0.040939 -0.012108 0.047243
v -0.035940 0.022063 0.028906
v -0.041774 0.022063 0.054742
v -0.034273 0.002065 0.028906
v -0.035107 -0.002938 0.064743
v -0.041774 -0.006272 0.035576
v -0.041774 -0.005439 0.062245
v -0.039272 0.015395 0.029742
v -0.034273 0.022899 0.044744
v -0.034273 -0.006272 0.058910
v -0.041774 0.022063 0.045581
v -0.040939 0.012061 0.061412
v -0.034273 0.022899 0.029742
v -0.040939 -0.009606 0.059743
v -0.035107 0.020398 0.058910
v -0.039272 -0.010439 0.043911
v -0.034273 0.004563 0.065580
v -0.038439 0.005396 0.028906
v -0.034273 -0.006272 0.052243
v -0.037607 0.013730 0.063078
v -0.040105 -0.001269 0.063907
v -0.040939 -0.009606 0.038914
v -0.035940 -0.007937 0.059743
v -0.041774 0.017896 0.042242
v -0.037607 0.020398 0.028906
v -0.041774 0.017064 0.058910
f 651 646 657 
f 631 634 637 
f 634 631 638 
f 630 635 640 
f 635 630 641 
f 637 634 642 
f 634 640 642 
f 635 633 644 
f 640 635 644 
f 633 642 644 
f 642 640 644 
f 631 632 645 
f 638 631 645 
f 636 638 645 
f 630 640 646 
f 640 634 646 
f 641 630 648 
f 636 641 648 
f 633 635 649 
f 635 637 649 
f 637 639 649 
f 635 641 650 
f 632 647 650 
f 647 635 650 
f 630 646 651 
f 648 630 651 
f 648 651 652 
f 638 636 652 
f 643 638 652 
f 636 648 652 
f 651 643 652 
f 632 631 653 
f 631 637 653 
f 637 635 653 
f 647 632 653 
f 635 647 653 
f 641 636 654 
f 645 632 654 
f 636 645 654 
f 650 641 654 
f 632 650 654 
f 639 637 655 
f 637 642 655 
f 642 639 655 
f 642 633 656 
f 639 642 656 
f 633 649 656 
f 649 639 656 
f 634 638 657 
f 638 643 657 
f 646 634 657 
f 643 651 657 
o convex_14
v 0.027406 0.027065 -0.041942
v 0.015742 0.013731 -0.048610
v 0.028239 0.013731 -0.048610
v 0.034072 0.035402 -0.047775
v 0.034907 0.013731 -0.041942
v 0.015742 0.033735 -0.041942
v 0.015742 0.013731 -0.041942
v 0.015742 0.030398 -0.047775
v 0.034907 0.033735 -0.045276
v 0.034907 0.018735 -0.046942
v 0.015742 0.024566 -0.048610
v 0.015742 0.033735 -0.044442
v 0.033239 0.021234 -0.041942
v 0.034907 0.022901 -0.047775
f 666 667 671 
f 659 660 662 
f 662 658 663 
f 662 663 664 
f 659 662 664 
f 663 659 664 
f 659 663 665 
f 661 663 666 
f 663 658 666 
f 662 660 667 
f 666 662 667 
f 660 659 668 
f 661 660 668 
f 659 665 668 
f 665 661 668 
f 663 661 669 
f 661 665 669 
f 665 663 669 
f 658 662 670 
f 666 658 670 
f 662 666 670 
f 660 661 671 
f 661 666 671 
f 667 660 671 
o convex_15
v 0.044910 0.037069 -0.044442
v 0.034908 0.018732 -0.046943
v 0.035744 0.018732 -0.046943
v 0.044075 0.041236 -0.048610
v 0.050745 0.031231 -0.045276
v 0.034908 0.031231 -0.044442
v 0.045741 0.027902 -0.042775
v 0.034908 0.036232 -0.047776
v 0.034908 0.020399 -0.044442
v 0.050745 0.032901 -0.042775
v 0.039077 0.039569 -0.046109
v 0.036578 0.034568 -0.048610
v 0.044075 0.038734 -0.048610
f 683 675 684 
f 674 676 678 
f 673 677 679 
f 673 674 680 
f 677 673 680 
f 678 677 680 
f 674 678 680 
f 675 672 681 
f 676 675 681 
f 672 677 681 
f 677 678 681 
f 678 676 681 
f 672 675 682 
f 677 672 682 
f 675 679 682 
f 679 677 682 
f 674 673 683 
f 673 679 683 
f 679 675 683 
f 675 676 684 
f 676 674 684 
f 674 683 684 
o convex_16
v 0.046577 -0.047101 -0.016105
v 0.016574 0.037895 0.001396
v 0.015738 0.037895 0.001396
v 0.017407 0.034557 -0.041938
v 0.018240 -0.026267 -0.037768
v 0.046577 -0.007932 -0.041938
v 0.041575 0.017891 0.001396
v 0.019074 -0.017100 0.001396
v 0.046577 -0.033774 0.001396
v 0.041575 -0.042111 -0.041938
v 0.026575 -0.042102 -0.021102
v 0.029911 0.032057 -0.029437
v 0.015738 -0.009602 -0.041938
v 0.015738 -0.011262 -0.002774
v 0.043242 0.009554 -0.036101
v 0.046577 0.002056 -0.006939
v 0.040742 -0.047948 -0.011104
v 0.015738 0.039564 -0.028602
v 0.028242 -0.038772 -0.041938
v 0.046577 -0.039611 -0.041938
v 0.034907 -0.047939 -0.026103
v 0.033241 0.025389 -0.039435
v 0.021573 0.038725 -0.016941
v 0.015738 -0.018769 -0.018608
v 0.039909 -0.039611 -0.001938
v 0.020740 -0.023767 -0.001938
v 0.024073 -0.039603 -0.031936
v 0.024906 0.034557 -0.002774
v 0.020740 0.038725 -0.031104
v 0.015738 0.034557 -0.041938
v 0.046577 -0.046270 -0.006939
v 0.044908 0.007055 0.000560
v 0.016574 -0.020438 -0.041938
v 0.046577 -0.045440 -0.030269
v 0.040742 0.007885 -0.041938
v 0.035740 -0.047101 -0.014438
v 0.015738 -0.004603 0.001396
v 0.032404 -0.044610 -0.035270
v 0.034907 0.023720 -0.037768
v 0.043242 0.014562 -0.002774
v 0.021573 -0.035443 -0.034434
v 0.019074 -0.022098 -0.003605
v 0.028242 -0.026275 0.001396
v 0.025742 0.033726 -0.036937
v 0.016574 0.040403 -0.013607
v 0.039076 -0.047948 -0.026935
v 0.024906 -0.038772 -0.038604
v 0.028242 0.027059 -0.041938
v 0.023240 -0.036273 -0.021102
v 0.029078 -0.044610 -0.029437
v 0.034907 -0.042102 -0.008606
v 0.046577 -0.022098 0.001396
v 0.046577 -0.004603 -0.036101
v 0.019074 0.037056 0.001396
v 0.045741 0.006225 -0.006108
v 0.018240 0.039564 -0.031936
v 0.016574 -0.014600 -0.001107
v 0.030744 0.031227 -0.026935
v 0.045741 -0.047948 -0.013607
v 0.041575 0.017891 -0.001107
v 0.039909 -0.046270 -0.032767
v 0.022406 -0.022098 0.001396
v 0.022406 -0.032104 -0.041938
v 0.015738 -0.017100 -0.038604
f 717 708 748 
f 686 687 691 
f 691 687 692 
f 691 692 693 
f 685 690 693 
f 688 690 694 
f 688 694 697 
f 687 697 698 
f 693 690 700 
f 697 687 702 
f 697 694 703 
f 690 685 704 
f 694 690 704 
f 698 697 708 
f 707 696 713 
f 688 697 714 
f 697 702 714 
f 685 693 715 
f 693 709 715 
f 709 701 715 
f 697 703 717 
f 689 708 717 
f 704 685 718 
f 694 704 718 
f 690 688 719 
f 699 690 719 
f 706 699 719 
f 705 701 720 
f 695 705 720 
f 710 695 720 
f 692 687 721 
f 687 698 721 
f 703 694 722 
f 706 696 723 
f 699 706 723 
f 691 716 724 
f 708 689 725 
f 689 717 725 
f 695 710 726 
f 693 692 727 
f 709 693 727 
f 696 706 728 
f 713 696 728 
f 687 686 729 
f 702 687 729 
f 701 705 730 
f 703 722 731 
f 711 725 731 
f 719 688 732 
f 706 719 732 
f 688 728 732 
f 728 706 732 
f 711 695 733 
f 708 725 733 
f 725 711 733 
f 726 708 733 
f 695 726 733 
f 705 695 734 
f 695 711 734 
f 722 705 734 
f 731 722 734 
f 711 731 734 
f 701 709 735 
f 720 701 735 
f 710 720 735 
f 691 693 736 
f 693 700 736 
f 716 691 736 
f 700 716 736 
f 690 699 737 
f 700 690 737 
f 686 691 738 
f 691 712 738 
f 712 707 738 
f 729 686 738 
f 707 729 738 
f 716 700 739 
f 699 724 739 
f 724 716 739 
f 737 699 739 
f 700 737 739 
f 707 713 740 
f 688 714 740 
f 714 702 740 
f 728 688 740 
f 713 728 740 
f 702 729 740 
f 729 707 740 
f 698 708 741 
f 710 692 741 
f 692 721 741 
f 721 698 741 
f 708 726 741 
f 726 710 741 
f 696 707 742 
f 712 691 742 
f 707 712 742 
f 723 696 742 
f 685 715 743 
f 715 701 743 
f 718 685 743 
f 701 730 743 
f 730 718 743 
f 699 723 744 
f 724 699 744 
f 691 724 744 
f 742 691 744 
f 723 742 744 
f 694 718 745 
f 722 694 745 
f 705 722 745 
f 730 705 745 
f 718 730 745 
f 692 710 746 
f 727 692 746 
f 709 727 746 
f 735 709 746 
f 710 735 746 
f 717 703 747 
f 725 717 747 
f 703 731 747 
f 731 725 747 
f 708 697 748 
f 697 717 748 
o convex_17
v 0.041575 0.017891 0.002234
v 0.015738 -0.018765 0.013901
v 0.022409 -0.021265 0.001400
v 0.015738 0.037896 0.001400
v 0.036571 0.006227 0.014736
v 0.015738 0.032061 0.013901
v 0.039908 -0.018765 0.001400
v 0.034074 0.024562 0.009733
v 0.015738 -0.005437 0.001400
v 0.033239 -0.022100 0.006403
v 0.044077 0.003734 0.001400
v 0.017408 -0.018765 0.014736
v 0.034074 0.019562 0.014736
v 0.029078 -0.026271 0.001400
v 0.044077 0.006227 0.004734
v 0.035741 0.001234 0.014736
v 0.040740 -0.015436 0.003901
v 0.015738 0.027061 0.014736
v 0.019072 0.034561 0.010568
v 0.039075 0.021226 0.001400
v 0.039075 0.010392 0.013068
v 0.017408 -0.013765 0.001400
v 0.018240 0.037061 0.003901
v 0.041575 0.016227 0.005568
v 0.031569 -0.025435 0.003901
v 0.035741 -0.019600 0.006403
v 0.038241 0.000398 0.012234
v 0.019907 0.029561 0.014736
v 0.034906 -0.024600 0.002234
v 0.028246 0.025391 0.013901
v 0.016573 0.034561 0.012234
f 778 767 779 
f 752 750 754 
f 751 752 755 
f 752 751 757 
f 750 752 757 
f 755 752 759 
f 760 753 761 
f 750 751 762 
f 751 755 762 
f 760 750 762 
f 759 749 763 
f 753 760 764 
f 755 759 765 
f 759 763 765 
f 754 750 766 
f 750 760 766 
f 760 761 766 
f 756 749 768 
f 749 759 768 
f 759 752 768 
f 761 753 769 
f 753 764 769 
f 751 750 770 
f 757 751 770 
f 750 757 770 
f 767 756 771 
f 756 768 771 
f 768 752 771 
f 749 756 772 
f 756 761 772 
f 763 749 772 
f 761 769 772 
f 769 763 772 
f 758 760 773 
f 760 762 773 
f 760 758 774 
f 764 760 774 
f 765 764 774 
f 765 763 775 
f 764 765 775 
f 763 769 775 
f 769 764 775 
f 754 766 776 
f 766 761 776 
f 762 755 777 
f 755 765 777 
f 758 773 777 
f 773 762 777 
f 774 758 777 
f 765 774 777 
f 761 756 778 
f 756 767 778 
f 776 761 778 
f 776 778 779 
f 752 754 779 
f 771 752 779 
f 767 771 779 
f 754 776 779 
