o convex_0
v -0.005065 0.015478 -0.059377
v -0.029360 -0.005033 -0.060458
v -0.029360 -0.005033 -0.059917
v -0.014784 -0.023930 -0.059917
v -0.021800 0.014400 -0.048581
v -0.006147 0.007917 -0.048581
v -0.015324 0.025736 -0.061537
v -0.018023 -0.003955 -0.048581
v -0.009384 0.023034 -0.048581
v -0.012625 -0.018530 -0.062077
v -0.026658 -0.015833 -0.058838
v -0.025579 0.011151 -0.060997
v -0.005607 0.005761 -0.061537
v -0.019103 0.021414 -0.048581
v -0.012085 -0.019072 -0.056678
v -0.026658 -0.014213 -0.061537
v -0.007227 0.021956 -0.061537
v -0.022340 0.005756 -0.048581
v -0.018561 -0.022847 -0.058298
v -0.021258 0.021414 -0.060997
v -0.006147 0.018717 -0.048581
v -0.014245 -0.004492 -0.048581
v -0.012625 0.018712 -0.062077
v -0.017481 -0.023388 -0.062077
v -0.010466 -0.015833 -0.058838
v -0.028278 -0.001794 -0.061537
v -0.012085 0.026278 -0.058838
v -0.016404 0.023575 -0.048581
v -0.006147 0.014937 -0.062077
v -0.008846 0.000903 -0.048581
v -0.025579 0.011693 -0.059917
v -0.015866 0.026278 -0.059377
v -0.024499 -0.013672 -0.056138
v -0.005607 0.010078 -0.048581
v -0.028818 -0.000175 -0.059917
v -0.013165 -0.018530 -0.055599
v -0.005607 0.004683 -0.059917
v -0.019103 -0.023930 -0.060997
v -0.028278 -0.005575 -0.057757
v -0.020720 -0.000716 -0.048581
v -0.011545 -0.019072 -0.060997
v -0.020720 0.019795 -0.050743
v -0.020720 0.020336 -0.061537
v -0.007227 0.022492 -0.059377
v -0.010466 0.025736 -0.060997
v -0.012085 0.024117 -0.048581
v -0.005607 0.018717 -0.060997
v -0.022340 0.011693 -0.048581
f 39 18 48 
f 6 5 8 
f 5 6 9 
f 3 2 11 
f 5 9 14 
f 11 2 16 
f 8 5 18 
f 9 6 21 
f 6 8 22 
f 7 17 23 
f 23 10 24 
f 6 15 25 
f 16 2 26 
f 24 16 26 
f 23 24 26 
f 14 9 28 
f 13 10 29 
f 10 23 29 
f 23 17 29 
f 15 6 30 
f 6 22 30 
f 20 12 31 
f 7 20 32 
f 20 14 32 
f 14 28 32 
f 19 8 33 
f 11 19 33 
f 1 21 34 
f 21 6 34 
f 6 25 34 
f 2 3 35 
f 26 2 35 
f 12 26 35 
f 5 31 35 
f 31 12 35 
f 4 15 36 
f 8 19 36 
f 19 4 36 
f 22 8 36 
f 15 30 36 
f 30 22 36 
f 13 1 37 
f 1 34 37 
f 34 25 37 
f 11 16 38 
f 19 11 38 
f 4 19 38 
f 24 4 38 
f 16 24 38 
f 3 11 39 
f 18 39 40 
f 8 18 40 
f 33 8 40 
f 11 33 40 
f 39 11 40 
f 10 13 41 
f 15 4 41 
f 4 24 41 
f 24 10 41 
f 25 15 41 
f 13 37 41 
f 37 25 41 
f 5 14 42 
f 14 20 42 
f 31 5 42 
f 20 31 42 
f 20 7 43 
f 12 20 43 
f 7 23 43 
f 26 12 43 
f 23 26 43 
f 9 21 44 
f 17 7 45 
f 27 9 45 
f 7 32 45 
f 32 27 45 
f 44 17 45 
f 9 44 45 
f 9 27 46 
f 28 9 46 
f 27 32 46 
f 32 28 46 
f 1 13 47 
f 21 1 47 
f 13 29 47 
f 29 17 47 
f 17 44 47 
f 44 21 47 
f 18 5 48 
f 35 3 48 
f 5 35 48 
f 3 39 48 
o convex_1
v -0.002906 0.016014 -0.012411
v -0.017482 -0.000715 -0.021047
v -0.016942 -0.002333 -0.021047
v -0.013703 -0.000715 -0.007550
v -0.002906 -0.015830 -0.008631
v -0.003986 0.001445 -0.021047
v -0.014242 0.014396 -0.021047
v -0.003446 0.019256 -0.007550
v -0.013162 0.010079 -0.007550
v -0.008847 -0.007732 -0.021047
v -0.007767 0.014396 -0.021047
v -0.008305 -0.012049 -0.007550
v -0.017482 0.007919 -0.020506
v -0.013162 -0.007192 -0.021047
v -0.008305 0.017095 -0.007550
v -0.002906 -0.015830 -0.007550
v -0.002906 -0.013670 -0.011330
v -0.004526 0.009536 -0.021047
v -0.014242 0.005759 -0.007550
v -0.015322 0.012775 -0.018347
v -0.006146 -0.005571 -0.021047
v -0.002906 0.019256 -0.008091
v -0.002906 0.007380 -0.015106
v -0.016402 0.003059 -0.014567
v -0.014242 -0.003415 -0.011871
v -0.005605 -0.014748 -0.008091
v -0.015861 -0.004493 -0.020506
f 74 60 75 
f 51 50 54 
f 54 50 55 
f 52 56 57 
f 51 54 58 
f 54 55 59 
f 56 52 60 
f 55 50 61 
f 51 58 62 
f 58 53 62 
f 56 55 63 
f 57 56 63 
f 53 49 64 
f 56 60 64 
f 49 53 65 
f 53 58 65 
f 59 49 66 
f 54 59 66 
f 52 57 67 
f 57 61 67 
f 55 61 68 
f 61 57 68 
f 63 55 68 
f 57 63 68 
f 58 54 69 
f 54 65 69 
f 65 58 69 
f 55 56 70 
f 49 59 70 
f 59 55 70 
f 64 49 70 
f 56 64 70 
f 49 65 71 
f 65 54 71 
f 66 49 71 
f 54 66 71 
f 50 52 72 
f 61 50 72 
f 52 67 72 
f 67 61 72 
f 50 51 73 
f 52 50 73 
f 60 52 73 
f 62 53 74 
f 53 64 74 
f 64 60 74 
f 51 62 75 
f 73 51 75 
f 60 73 75 
f 62 74 75 
o convex_2
v 0.020306 0.011161 -0.059377
v 0.004653 -0.027703 -0.060457
v 0.004653 -0.027703 -0.059377
v 0.023548 -0.030405 -0.058838
v 0.013293 0.005757 -0.051281
v 0.024087 -0.016365 -0.051281
v 0.027326 0.002516 -0.060998
v 0.010054 0.001976 -0.061537
v 0.026787 0.000902 -0.051282
v 0.014910 -0.022309 -0.051281
v 0.015991 -0.034182 -0.060457
v 0.005195 -0.017988 -0.062077
v 0.015991 -0.035805 -0.057218
v 0.006276 -0.022309 -0.055061
v 0.023006 0.004139 -0.062077
v 0.027866 -0.011515 -0.058298
v 0.023006 0.007920 -0.051281
v 0.004653 -0.019067 -0.058298
v 0.010054 -0.008822 -0.051281
v 0.015991 0.010077 -0.061537
v 0.023006 -0.029866 -0.055601
v 0.025708 0.007920 -0.060998
v 0.015991 0.009538 -0.051281
v 0.007352 -0.032024 -0.058298
v 0.006815 -0.022844 -0.062077
v 0.026787 -0.007739 -0.051282
v 0.027326 -0.008274 -0.060457
v 0.019767 -0.022844 -0.051281
v 0.016530 0.008994 -0.062077
v 0.028408 -0.003423 -0.058838
v 0.006815 -0.030945 -0.060997
v 0.024627 -0.003963 -0.061538
v 0.014372 -0.036349 -0.059377
v 0.008975 -0.001265 -0.059917
v 0.010594 -0.016365 -0.051281
v 0.026787 0.006296 -0.059378
v 0.022467 -0.031489 -0.059377
v 0.023548 -0.030405 -0.056679
v 0.008434 -0.025011 -0.054521
v 0.014372 -0.035805 -0.057218
v 0.013293 0.007380 -0.059917
v 0.023006 0.010077 -0.061537
v 0.026787 -0.017988 -0.058298
v 0.021927 -0.033107 -0.057218
f 113 96 119 
f 81 80 85 
f 80 81 92 
f 81 84 92 
f 77 78 93 
f 87 77 93 
f 78 89 93 
f 93 89 94 
f 85 80 94 
f 80 93 94 
f 82 90 97 
f 92 76 98 
f 80 92 98 
f 76 95 98 
f 78 77 99 
f 89 78 99 
f 87 90 100 
f 84 81 101 
f 81 96 101 
f 81 85 103 
f 96 81 103 
f 88 96 103 
f 87 83 104 
f 90 87 104 
f 83 95 104 
f 84 101 105 
f 101 91 105 
f 102 82 105 
f 91 102 105 
f 77 87 106 
f 99 77 106 
f 100 86 106 
f 87 100 106 
f 90 82 107 
f 86 100 107 
f 100 90 107 
f 82 102 107 
f 106 86 108 
f 99 106 108 
f 80 83 109 
f 83 87 109 
f 93 80 109 
f 87 93 109 
f 94 89 110 
f 85 94 110 
f 92 84 111 
f 82 97 111 
f 97 92 111 
f 105 82 111 
f 84 105 111 
f 102 79 112 
f 86 107 112 
f 107 102 112 
f 108 86 112 
f 101 96 113 
f 89 99 114 
f 85 110 114 
f 110 89 114 
f 103 85 115 
f 88 103 115 
f 108 88 115 
f 99 108 115 
f 85 114 115 
f 114 99 115 
f 83 80 116 
f 95 83 116 
f 80 98 116 
f 98 95 116 
f 76 92 117 
f 95 76 117 
f 97 90 117 
f 92 97 117 
f 90 104 117 
f 104 95 117 
f 91 101 118 
f 79 102 118 
f 102 91 118 
f 113 79 118 
f 101 113 118 
f 96 88 119 
f 88 108 119 
f 112 79 119 
f 108 112 119 
f 79 113 119 
o convex_3
v 0.024627 0.001440 -0.039403
v 0.010592 -0.014751 -0.051281
v 0.011132 -0.016912 -0.051281
v 0.026247 0.003061 -0.051281
v 0.012752 0.009001 -0.042645
v 0.020307 -0.013672 -0.039403
v 0.022466 -0.019072 -0.051281
v 0.010592 -0.007733 -0.039403
v 0.015991 0.009540 -0.051281
v 0.018690 0.009540 -0.039403
v 0.015991 -0.022312 -0.050740
v 0.026247 -0.008815 -0.048580
v 0.011132 -0.002339 -0.051281
v 0.019768 0.011158 -0.044263
v 0.013832 -0.013672 -0.039403
v 0.010592 0.000900 -0.039403
v 0.023547 -0.012051 -0.041564
v 0.024627 0.005761 -0.043183
v 0.026247 -0.001796 -0.043183
v 0.021927 0.008461 -0.051281
v 0.026788 -0.007733 -0.051281
v 0.014371 0.009540 -0.039403
v 0.015991 0.011701 -0.045342
v 0.019227 -0.022312 -0.050740
v 0.013291 0.007919 -0.049121
v 0.020307 -0.015833 -0.041564
v 0.012213 -0.019072 -0.050740
v 0.024088 -0.006115 -0.039403
v 0.022466 0.009001 -0.043183
v 0.012213 0.007919 -0.044263
v 0.010592 -0.002339 -0.046961
f 149 132 150 
f 122 121 123 
f 122 123 126 
f 121 122 127 
f 125 120 127 
f 123 121 128 
f 127 120 129 
f 122 126 130 
f 128 121 132 
f 125 127 134 
f 121 127 135 
f 127 129 135 
f 126 131 136 
f 136 131 138 
f 137 120 138 
f 123 137 138 
f 123 128 139 
f 126 123 140 
f 131 126 140 
f 123 138 140 
f 138 131 140 
f 124 135 141 
f 135 129 141 
f 129 133 142 
f 139 128 142 
f 133 139 142 
f 124 141 142 
f 141 129 142 
f 130 126 143 
f 128 132 144 
f 124 142 144 
f 142 128 144 
f 125 134 145 
f 134 130 145 
f 136 125 145 
f 126 136 145 
f 130 143 145 
f 143 126 145 
f 127 122 146 
f 122 130 146 
f 134 127 146 
f 130 134 146 
f 120 125 147 
f 125 136 147 
f 138 120 147 
f 136 138 147 
f 129 120 148 
f 133 129 148 
f 120 137 148 
f 137 123 148 
f 123 139 148 
f 139 133 148 
f 135 124 149 
f 124 144 149 
f 144 132 149 
f 132 121 150 
f 121 135 150 
f 135 149 150 
o convex_4
v 0.017610 -0.001796 -0.014029
v -0.002906 -0.016373 -0.008091
v -0.002906 -0.016373 -0.007550
v -0.001825 0.020338 -0.007550
v -0.001283 0.013858 -0.014569
v 0.015447 -0.001255 -0.007550
v 0.011668 -0.013671 -0.015109
v 0.014907 0.006842 -0.015109
v -0.002906 -0.013131 -0.011869
v 0.011668 0.013318 -0.007550
v 0.012208 -0.009893 -0.007550
v 0.002494 0.021419 -0.008091
v 0.004653 -0.007732 -0.015109
v -0.002906 0.015479 -0.012948
v 0.005195 -0.015832 -0.007550
v 0.016530 -0.008272 -0.015109
v 0.001954 0.013318 -0.015109
v -0.002906 0.019257 -0.007550
v 0.001416 0.016019 -0.014029
v 0.012208 0.009539 -0.015109
v 0.013831 -0.012591 -0.014569
v 0.015447 -0.006114 -0.009171
v -0.002365 -0.012591 -0.012408
v 0.017610 -0.000175 -0.014569
v 0.014907 0.003600 -0.007550
v 0.001954 -0.016913 -0.008091
v -0.002365 -0.014752 -0.011330
f 157 176 177 
f 154 153 156 
f 152 153 159 
f 154 156 160 
f 156 153 161 
f 154 160 162 
f 158 157 163 
f 159 153 164 
f 155 159 164 
f 154 162 164 
f 161 153 165 
f 157 158 166 
f 163 155 167 
f 158 163 167 
f 153 154 168 
f 164 153 168 
f 154 164 168 
f 155 164 169 
f 164 162 169 
f 167 155 169 
f 167 169 170 
f 160 158 170 
f 162 160 170 
f 158 167 170 
f 169 162 170 
f 165 157 171 
f 161 165 171 
f 157 166 171 
f 171 166 172 
f 151 156 172 
f 156 161 172 
f 166 151 172 
f 161 171 172 
f 159 155 173 
f 155 163 173 
f 163 157 173 
f 156 151 174 
f 158 160 174 
f 151 166 174 
f 166 158 174 
f 160 156 175 
f 156 174 175 
f 174 160 175 
f 153 152 176 
f 165 153 176 
f 157 165 176 
f 152 159 177 
f 159 173 177 
f 173 157 177 
f 176 152 177 
o convex_5
v -0.052039 -0.030947 0.049136
v -0.071469 -0.002876 0.046978
v -0.070925 -0.003419 0.047516
v -0.041777 -0.030408 0.048057
v -0.074168 -0.010437 0.042119
v -0.071469 -0.009355 0.049676
v -0.048261 -0.025010 0.051837
v -0.070925 -0.006116 0.042659
v -0.074706 -0.012055 0.046978
v -0.041777 -0.034729 0.047516
v -0.050958 -0.028789 0.051837
v -0.048802 -0.022307 0.048057
v -0.041777 -0.034729 0.050756
v -0.053658 -0.029329 0.046978
v -0.050958 -0.024468 0.045360
v -0.073087 -0.005037 0.049136
v -0.071469 -0.003419 0.043740
v -0.074168 -0.006116 0.042119
v -0.049877 -0.022307 0.046439
v -0.075250 -0.011516 0.044819
v -0.053120 -0.029329 0.050756
v -0.047717 -0.023928 0.050756
v -0.073625 -0.010976 0.048596
v -0.051495 -0.028789 0.045898
v -0.071469 -0.010976 0.042119
v -0.073625 -0.003419 0.047516
v -0.041777 -0.031486 0.050756
v -0.068766 -0.006658 0.049136
f 184 199 205 
f 184 183 188 
f 179 180 189 
f 178 187 190 
f 187 181 190 
f 184 188 190 
f 187 178 191 
f 181 187 192 
f 180 179 193 
f 183 184 193 
f 179 189 194 
f 194 185 195 
f 189 181 196 
f 192 185 196 
f 181 192 196 
f 185 194 196 
f 194 189 196 
f 178 186 197 
f 191 178 197 
f 182 191 197 
f 195 182 197 
f 186 178 198 
f 178 190 198 
f 190 188 198 
f 189 180 199 
f 181 189 199 
f 188 183 200 
f 183 193 200 
f 193 186 200 
f 186 198 200 
f 198 188 200 
f 191 182 201 
f 187 191 201 
f 192 187 201 
f 192 201 202 
f 185 192 202 
f 182 195 202 
f 195 185 202 
f 201 182 202 
f 193 179 203 
f 186 193 203 
f 179 194 203 
f 194 195 203 
f 197 186 203 
f 195 197 203 
f 190 181 204 
f 184 190 204 
f 199 184 204 
f 181 199 204 
f 180 193 205 
f 193 184 205 
f 199 180 205 
o convex_6
v -0.038539 -0.018534 0.031861
v -0.039617 -0.036347 0.046435
v -0.039078 -0.036347 0.046435
v -0.039619 -0.025552 0.023764
v -0.044475 -0.018534 0.032940
v -0.044475 -0.026630 0.025923
v -0.041776 -0.032027 0.050757
v -0.036379 -0.032027 0.044278
v -0.044475 -0.018534 0.021063
v -0.036918 -0.018534 0.026464
v -0.039078 -0.030949 0.049135
v -0.041776 -0.035267 0.049676
v -0.044475 -0.025552 0.035102
v -0.036379 -0.033647 0.043737
v -0.036918 -0.018534 0.030245
v -0.038000 -0.023395 0.024845
v -0.040159 -0.020693 0.036177
v -0.038539 -0.034729 0.048594
v -0.038539 -0.020693 0.023764
f 215 221 224 
f 208 207 211 
f 209 208 211 
f 210 206 214 
f 211 210 214 
f 209 211 214 
f 214 206 215 
f 207 208 217 
f 211 207 217 
f 210 211 218 
f 212 210 218 
f 211 217 218 
f 217 212 218 
f 208 209 219 
f 215 213 219 
f 213 215 220 
f 215 206 220 
f 206 216 220 
f 216 213 220 
f 219 209 221 
f 215 219 221 
f 206 210 222 
f 210 212 222 
f 216 206 222 
f 212 216 222 
f 216 212 223 
f 213 216 223 
f 217 208 223 
f 212 217 223 
f 208 219 223 
f 219 213 223 
f 209 214 224 
f 214 215 224 
f 221 209 224 
o convex_7
v -0.005606 0.012239 -0.038324
v -0.021801 0.004144 -0.048581
v -0.021801 0.004144 -0.048041
v -0.015322 0.024658 -0.044802
v -0.005606 0.010082 -0.048581
v -0.015861 -0.003415 -0.038324
v -0.018559 0.018177 -0.038324
v -0.011005 -0.001794 -0.048581
v -0.009385 0.023036 -0.048581
v -0.008846 -0.001256 -0.038324
v -0.020181 0.019258 -0.048581
v -0.020719 0.007382 -0.038324
v -0.008846 0.019258 -0.038324
v -0.017481 -0.003956 -0.048581
v -0.005606 0.018717 -0.044802
v -0.021801 0.012239 -0.044262
v -0.011544 -0.003956 -0.038864
v -0.013702 0.022493 -0.039404
v -0.009385 0.023577 -0.044262
v -0.005065 0.010082 -0.042643
v -0.008307 0.001444 -0.048041
v -0.020181 0.000904 -0.044262
v -0.015861 0.024117 -0.048581
v -0.005606 0.016558 -0.048581
v -0.019641 0.020336 -0.045341
v -0.016942 0.020877 -0.038324
v -0.017481 -0.001794 -0.038324
v -0.006685 0.004144 -0.038324
v -0.019641 -0.001794 -0.048041
v -0.014243 -0.003956 -0.048581
v -0.021801 0.013317 -0.048581
v -0.006685 0.004685 -0.045880
f 244 252 256 
f 230 225 231 
f 226 229 232 
f 229 226 233 
f 225 230 234 
f 233 226 235 
f 230 231 236 
f 231 225 237 
f 226 232 238 
f 237 225 239 
f 226 227 240 
f 227 236 240 
f 236 231 240 
f 234 230 241 
f 232 234 241 
f 230 238 241 
f 242 237 243 
f 233 228 243 
f 239 233 243 
f 237 239 243 
f 228 242 243 
f 239 225 244 
f 232 229 245 
f 234 232 245 
f 236 227 246 
f 228 233 247 
f 233 235 247 
f 229 233 248 
f 233 239 248 
f 244 229 248 
f 239 244 248 
f 235 240 249 
f 240 231 249 
f 228 247 249 
f 247 235 249 
f 231 237 250 
f 242 228 250 
f 237 242 250 
f 228 249 250 
f 249 231 250 
f 230 236 251 
f 236 246 251 
f 225 234 252 
f 244 225 252 
f 227 226 253 
f 226 238 253 
f 238 230 253 
f 246 227 253 
f 230 251 253 
f 251 246 253 
f 238 232 254 
f 232 241 254 
f 241 238 254 
f 235 226 255 
f 226 240 255 
f 240 235 255 
f 229 244 256 
f 245 229 256 
f 234 245 256 
f 252 234 256 
o convex_8
v -0.003447 -0.001255 -0.031304
v -0.021262 -0.001794 -0.031845
v -0.021262 -0.001794 -0.029686
v -0.015860 0.021415 -0.038324
v -0.009387 0.014935 -0.021047
v -0.011006 -0.012588 -0.023748
v -0.009926 -0.007732 -0.038324
v -0.006686 0.016016 -0.038324
v -0.018020 0.009000 -0.021047
v -0.003986 0.003605 -0.021047
v -0.020180 0.012239 -0.038324
v -0.018020 -0.007732 -0.035621
v -0.018020 -0.007190 -0.022128
v -0.006147 -0.010971 -0.026447
v -0.014242 -0.013128 -0.030765
v -0.005606 -0.002873 -0.037783
v -0.007766 -0.007190 -0.021047
v -0.004528 0.010078 -0.024288
v -0.016940 0.012778 -0.022128
v -0.019641 0.003065 -0.038324
v -0.017481 -0.010428 -0.025370
v -0.009387 0.019255 -0.037783
v -0.005606 0.012239 -0.021047
v -0.003447 -0.005575 -0.026447
v -0.008846 -0.012049 -0.031845
v -0.019641 0.010078 -0.028067
v -0.020180 -0.004494 -0.023748
v -0.018020 0.019255 -0.037783
v -0.013701 -0.008811 -0.037783
v -0.003447 0.005219 -0.026447
v -0.014242 0.014395 -0.021047
v -0.019641 -0.007732 -0.029146
v -0.018559 -0.000173 -0.021047
v -0.004528 -0.006650 -0.031304
v -0.006147 0.014395 -0.038324
v -0.014242 -0.012588 -0.023748
v -0.021262 0.001444 -0.029686
v -0.013162 0.021415 -0.037783
v -0.009387 -0.013128 -0.024829
v -0.004528 -0.001794 -0.021047
v -0.019100 0.006301 -0.022128
v -0.013162 -0.007190 -0.021047
v -0.004528 -0.000712 -0.036162
v -0.016401 -0.012049 -0.029686
v -0.020719 -0.002873 -0.034003
v -0.007766 -0.007732 -0.036704
v -0.007766 0.014395 -0.021047
v -0.002906 -0.002873 -0.026987
f 296 280 304 
f 263 260 264 
f 261 265 266 
f 260 263 267 
f 266 265 273 
f 267 263 276 
f 264 260 278 
f 261 266 279 
f 274 264 279 
f 266 274 279 
f 264 278 279 
f 265 275 282 
f 277 269 283 
f 260 267 284 
f 275 260 284 
f 267 282 284 
f 282 275 284 
f 271 268 285 
f 276 263 285 
f 268 276 285 
f 263 281 285 
f 281 271 285 
f 274 266 286 
f 261 260 287 
f 265 261 287 
f 260 275 287 
f 275 265 287 
f 259 258 288 
f 283 259 288 
f 277 283 288 
f 273 265 289 
f 283 269 289 
f 280 270 290 
f 270 281 290 
f 263 264 291 
f 272 263 291 
f 264 274 291 
f 286 257 291 
f 274 286 291 
f 262 273 292 
f 269 277 292 
f 258 259 293 
f 267 258 293 
f 282 267 293 
f 259 283 293 
f 260 261 294 
f 278 260 294 
f 273 262 295 
f 270 273 295 
f 281 270 295 
f 271 281 295 
f 262 292 295 
f 292 271 295 
f 266 273 296 
f 273 270 296 
f 270 280 296 
f 265 282 297 
f 289 265 297 
f 283 289 297 
f 282 293 297 
f 293 283 297 
f 273 289 298 
f 289 269 298 
f 269 292 298 
f 292 273 298 
f 257 290 299 
f 290 272 299 
f 272 291 299 
f 291 257 299 
f 268 271 300 
f 288 268 300 
f 277 288 300 
f 271 292 300 
f 292 277 300 
f 258 267 301 
f 267 276 301 
f 276 268 301 
f 288 258 301 
f 268 288 301 
f 263 272 302 
f 281 263 302 
f 272 290 302 
f 290 281 302 
f 261 279 303 
f 279 278 303 
f 294 261 303 
f 278 294 303 
f 257 286 304 
f 286 266 304 
f 290 257 304 
f 280 290 304 
f 266 296 304 
o convex_9
v 0.024628 -0.002339 -0.038863
v 0.004113 -0.009352 -0.029146
v 0.004653 -0.010433 -0.030766
v 0.017068 -0.020690 -0.028606
v 0.015449 0.005761 -0.028606
v 0.012212 0.007381 -0.039403
v 0.014371 -0.014213 -0.039403
v 0.022468 -0.004499 -0.028606
v 0.023006 0.005222 -0.039403
v 0.008973 0.006300 -0.028606
v 0.006814 -0.003957 -0.036703
v 0.009515 -0.020151 -0.028606
v 0.021385 -0.012593 -0.039403
v 0.022468 -0.013132 -0.029146
v 0.011672 -0.017991 -0.036163
v 0.017610 0.009541 -0.037243
v 0.007354 -0.011511 -0.036703
v 0.020849 0.004140 -0.031846
v 0.015449 -0.020151 -0.034005
v 0.007354 0.002523 -0.032926
v 0.010593 -0.008812 -0.039403
v 0.004113 -0.005038 -0.028606
v 0.019769 -0.017991 -0.032385
v 0.014371 0.009541 -0.039403
v 0.007354 -0.017452 -0.030227
v 0.024088 0.001980 -0.037782
v 0.015449 0.008460 -0.032385
v 0.024088 -0.005577 -0.039403
v 0.012212 -0.021232 -0.030227
v 0.019226 0.003062 -0.028606
v 0.019226 0.007381 -0.034005
v 0.021927 -0.014753 -0.031846
f 332 318 336 
f 309 308 312 
f 311 310 313 
f 308 309 314 
f 307 306 315 
f 308 314 316 
f 311 313 317 
f 305 312 318 
f 312 308 318 
f 307 315 321 
f 311 319 321 
f 311 317 323 
f 319 311 323 
f 314 310 324 
f 310 315 324 
f 310 311 325 
f 315 310 325 
f 311 321 325 
f 321 315 325 
f 315 306 326 
f 306 316 326 
f 316 314 326 
f 314 324 326 
f 324 315 326 
f 308 323 327 
f 323 317 327 
f 313 310 328 
f 310 314 328 
f 320 313 328 
f 306 307 329 
f 316 306 329 
f 319 316 329 
f 307 321 329 
f 321 319 329 
f 312 305 330 
f 305 313 330 
f 322 312 330 
f 313 322 330 
f 314 309 331 
f 328 314 331 
f 320 328 331 
f 313 305 332 
f 317 313 332 
f 305 318 332 
f 308 316 333 
f 316 319 333 
f 323 308 333 
f 319 323 333 
f 309 312 334 
f 312 322 334 
f 313 320 335 
f 322 313 335 
f 331 309 335 
f 320 331 335 
f 309 334 335 
f 334 322 335 
f 318 308 336 
f 308 327 336 
f 327 317 336 
f 317 332 336 
o convex_10
v 0.018147 -0.001800 -0.016189
v 0.003573 -0.007733 -0.027525
v 0.004114 -0.009893 -0.028606
v 0.018147 0.003600 -0.028606
v 0.017069 -0.020687 -0.028606
v 0.004653 -0.007733 -0.015109
v 0.007893 0.010078 -0.015109
v 0.010054 0.007378 -0.028606
v 0.011675 -0.020147 -0.022127
v 0.021388 -0.014211 -0.024825
v 0.013288 -0.013129 -0.015109
v 0.014368 0.007918 -0.015109
v 0.021929 -0.001800 -0.028606
v 0.007893 -0.018529 -0.028606
v 0.005194 0.006300 -0.015650
v 0.019769 -0.014751 -0.021049
v 0.007353 0.004139 -0.028606
v 0.012214 0.009536 -0.019968
v 0.005735 -0.015829 -0.025366
v 0.007893 -0.012590 -0.015109
v 0.021929 -0.014211 -0.028606
v 0.018689 0.004139 -0.022127
v 0.017610 -0.005036 -0.015109
v 0.015987 -0.019068 -0.021588
v 0.021929 -0.002339 -0.026444
v 0.009515 -0.020147 -0.024286
v 0.004114 -0.003957 -0.028064
v 0.004653 0.003600 -0.015109
v 0.011675 -0.021229 -0.028606
v 0.017610 0.000361 -0.015109
v 0.019228 -0.018529 -0.025905
v 0.006274 0.008996 -0.015650
v 0.020308 -0.013129 -0.021049
v 0.015987 -0.021229 -0.026444
f 367 360 370 
f 339 340 341 
f 340 339 344 
f 343 342 347 
f 343 347 348 
f 341 340 349 
f 339 341 350 
f 344 339 353 
f 340 344 354 
f 344 343 354 
f 343 348 354 
f 338 339 355 
f 342 338 355 
f 339 350 355 
f 345 347 356 
f 347 342 356 
f 342 355 356 
f 341 349 357 
f 349 340 358 
f 340 354 358 
f 354 348 358 
f 348 347 359 
f 347 352 359 
f 347 345 360 
f 352 347 360 
f 346 357 361 
f 357 349 361 
f 349 358 361 
f 355 350 362 
f 345 356 362 
f 356 355 362 
f 339 338 363 
f 353 339 363 
f 351 353 363 
f 338 342 364 
f 342 343 364 
f 363 338 364 
f 351 363 364 
f 350 341 365 
f 345 362 365 
f 362 350 365 
f 358 348 366 
f 359 337 366 
f 348 359 366 
f 337 361 366 
f 361 358 366 
f 346 352 367 
f 341 357 367 
f 357 346 367 
f 352 360 367 
f 343 344 368 
f 344 353 368 
f 353 351 368 
f 364 343 368 
f 351 364 368 
f 352 346 369 
f 337 359 369 
f 359 352 369 
f 361 337 369 
f 346 361 369 
f 360 345 370 
f 365 341 370 
f 345 365 370 
f 341 367 370 
o convex_11
v -0.035298 0.007380 0.010806
v -0.035838 0.001987 0.028082
v -0.036378 0.001987 0.028082
v -0.035838 -0.006653 0.015666
v -0.033679 -0.003954 0.023222
v -0.033679 0.014938 0.020523
v -0.036378 0.014938 0.018365
v -0.033679 0.001444 0.010806
v -0.036378 -0.008275 0.024840
v -0.036378 -0.001255 0.012427
v -0.033679 0.015478 0.013506
v -0.033679 -0.006113 0.015125
v -0.033679 0.011159 0.024302
v -0.036378 0.012779 0.023222
v -0.036378 0.011159 0.014047
v -0.035838 -0.003414 0.028082
v -0.033679 0.000905 0.025381
f 386 375 387 
f 376 375 378 
f 373 377 379 
f 379 377 380 
f 371 378 380 
f 374 379 380 
f 377 376 381 
f 378 371 381 
f 376 378 381 
f 378 375 382 
f 379 374 382 
f 375 379 382 
f 380 378 382 
f 374 380 382 
f 373 372 383 
f 375 376 383 
f 377 373 384 
f 376 377 384 
f 373 383 384 
f 383 376 384 
f 380 377 385 
f 371 380 385 
f 381 371 385 
f 377 381 385 
f 372 373 386 
f 373 379 386 
f 379 375 386 
f 383 372 387 
f 375 383 387 
f 372 386 387 
o convex_12
v -0.033679 0.001444 0.010806
v -0.021802 0.006838 0.029701
v -0.025042 0.006838 0.029701
v -0.032597 0.016560 0.015130
v -0.018563 0.008997 0.016747
v -0.018563 -0.003956 0.022144
v -0.033679 -0.002874 0.023762
v -0.033679 0.012240 0.023762
v -0.018563 0.011699 0.024299
v -0.033679 -0.006114 0.015130
v -0.018563 -0.000174 0.016747
v -0.022342 -0.003415 0.027541
v -0.029898 0.007918 0.010806
v -0.018563 0.000367 0.028619
v -0.027201 0.001985 0.029161
v -0.023962 0.011699 0.026457
v -0.033679 0.013860 0.012426
v -0.029898 -0.001256 0.011886
v -0.032597 -0.006655 0.017829
v -0.027741 0.014940 0.015130
v -0.033137 0.006300 0.025921
v -0.028280 -0.004494 0.015130
v -0.028280 0.002523 0.011346
v -0.023960 -0.001254 0.029159
v -0.033679 0.016560 0.016206
v -0.018563 -0.003956 0.020525
v -0.029898 0.011699 0.011886
v -0.027741 0.015478 0.018365
v -0.018563 0.011699 0.021604
v -0.018563 0.005759 0.028619
v -0.025042 -0.003415 0.027541
v -0.026659 0.010081 0.028081
v -0.018563 0.004143 0.016205
f 410 400 420 
f 388 394 395 
f 393 392 396 
f 394 388 397 
f 392 393 398 
f 393 396 401 
f 399 393 401 
f 389 396 403 
f 388 395 404 
f 400 388 404 
f 397 388 405 
f 394 397 406 
f 393 399 406 
f 404 391 407 
f 395 394 408 
f 402 390 408 
f 394 402 408 
f 397 405 409 
f 405 398 409 
f 388 400 410 
f 405 388 410 
f 398 405 410 
f 389 390 411 
f 401 389 411 
f 399 401 411 
f 390 402 411 
f 402 394 411 
f 395 403 412 
f 391 404 412 
f 404 395 412 
f 398 393 413 
f 393 406 413 
f 406 397 413 
f 397 409 413 
f 409 398 413 
f 392 400 414 
f 400 404 414 
f 407 392 414 
f 404 407 414 
f 403 396 415 
f 407 391 415 
f 391 412 415 
f 412 403 415 
f 396 392 416 
f 392 407 416 
f 415 396 416 
f 407 415 416 
f 396 389 417 
f 389 401 417 
f 401 396 417 
f 394 406 418 
f 406 399 418 
f 411 394 418 
f 399 411 418 
f 390 389 419 
f 389 403 419 
f 403 395 419 
f 408 390 419 
f 395 408 419 
f 392 398 420 
f 400 392 420 
f 398 410 420 
o convex_13
v 0.008970 -0.007189 0.041041
v -0.012623 -0.004501 0.044823
v -0.012623 -0.004501 0.046442
v 0.000873 0.014940 0.036720
v 0.000871 0.006298 0.055610
v -0.002904 -0.021229 0.043200
v 0.000871 -0.009349 0.055610
v -0.005064 -0.007189 0.036720
v -0.007763 0.010078 0.050755
v 0.006812 0.006298 0.050755
v -0.007224 -0.008810 0.053456
v -0.007763 0.008996 0.039960
v 0.007352 -0.013129 0.046440
v 0.004112 -0.013129 0.037805
v 0.000334 0.014397 0.050214
v -0.003983 -0.020687 0.046974
v 0.007352 0.007379 0.042122
v -0.005064 -0.000178 0.056154
v 0.003031 -0.020148 0.045359
v -0.008301 -0.012590 0.039424
v 0.005191 -0.002880 0.054535
v -0.009382 -0.014750 0.046974
v 0.009512 -0.002338 0.045898
v -0.006682 0.000900 0.036720
v 0.006812 -0.000182 0.037803
v -0.009924 0.008996 0.044279
v -0.003985 0.014397 0.049674
v -0.002904 -0.016371 0.038341
v 0.004110 0.012777 0.048055
v -0.001287 0.014940 0.036720
v 0.004112 -0.004501 0.036720
v -0.010461 -0.001260 0.039960
v -0.008843 0.001439 0.052912
v 0.005731 -0.010431 0.051837
v 0.000331 -0.013668 0.053456
v -0.003443 0.008457 0.054535
v -0.012082 0.002517 0.046442
v 0.004112 -0.018530 0.042660
v -0.002366 -0.006111 0.056696
v -0.004524 -0.012590 0.053456
v 0.002492 0.013858 0.036720
v 0.008970 0.002517 0.042122
v 0.004112 0.007918 0.053456
v 0.001413 -0.000178 0.056696
v 0.009512 -0.006111 0.045898
v 0.000331 -0.017988 0.039424
v -0.006682 -0.019070 0.045359
v -0.011542 -0.009892 0.044279
v -0.011542 0.003599 0.043200
v -0.012082 -0.005037 0.048057
v 0.007891 -0.012590 0.043200
v 0.007352 -0.004494 0.051293
v -0.000208 -0.021229 0.046442
v -0.009924 -0.006111 0.039424
v 0.006812 -0.006650 0.037805
v -0.004524 0.004680 0.055610
v -0.003985 0.014397 0.043741
v 0.004650 -0.014750 0.038881
v -0.005601 -0.017449 0.040503
v -0.000208 -0.009349 0.036720
v 0.003031 -0.004501 0.056154
v 0.003571 0.002517 0.055610
v 0.006812 0.008996 0.044281
v 0.000331 -0.021229 0.043200
f 439 473 484 
f 424 428 444 
f 446 429 447 
f 440 428 448 
f 424 435 449 
f 435 424 450 
f 424 444 450 
f 444 432 450 
f 432 446 450 
f 447 435 450 
f 428 424 451 
f 432 444 452 
f 431 438 453 
f 439 433 454 
f 439 454 455 
f 454 427 455 
f 425 435 456 
f 447 429 456 
f 435 447 456 
f 422 423 457 
f 429 446 457 
f 453 429 457 
f 438 431 459 
f 431 442 460 
f 442 436 460 
f 455 427 460 
f 436 455 460 
f 459 431 460 
f 427 459 460 
f 424 449 461 
f 451 424 461 
f 445 451 461 
f 443 421 462 
f 430 443 462 
f 421 445 462 
f 461 437 462 
f 445 461 462 
f 435 425 463 
f 449 435 463 
f 430 449 463 
f 438 459 464 
f 421 443 465 
f 454 433 465 
f 448 434 466 
f 426 448 466 
f 426 436 467 
f 436 442 467 
f 467 442 468 
f 423 422 468 
f 440 467 468 
f 446 432 469 
f 452 422 469 
f 432 452 469 
f 422 457 469 
f 457 446 469 
f 442 431 470 
f 431 453 470 
f 457 423 470 
f 453 457 470 
f 468 442 470 
f 423 468 470 
f 433 439 471 
f 439 458 471 
f 421 465 471 
f 465 433 471 
f 430 441 472 
f 443 430 472 
f 441 454 472 
f 465 443 472 
f 454 465 472 
f 436 426 473 
f 455 436 473 
f 439 455 473 
f 428 440 474 
f 444 428 474 
f 422 452 474 
f 452 444 474 
f 468 422 474 
f 440 468 474 
f 445 421 475 
f 434 451 475 
f 451 445 475 
f 429 453 476 
f 453 438 476 
f 425 456 476 
f 456 429 476 
f 464 425 476 
f 438 464 476 
f 446 447 477 
f 450 446 477 
f 447 450 477 
f 466 434 478 
f 458 466 478 
f 421 471 478 
f 471 458 478 
f 475 421 478 
f 434 475 478 
f 448 426 479 
f 440 448 479 
f 426 467 479 
f 467 440 479 
f 448 428 480 
f 434 448 480 
f 428 451 480 
f 451 434 480 
f 427 454 481 
f 454 441 481 
f 459 427 481 
f 464 459 481 
f 464 481 482 
f 441 430 482 
f 463 425 482 
f 430 463 482 
f 425 464 482 
f 481 441 482 
f 449 430 483 
f 437 461 483 
f 461 449 483 
f 430 462 483 
f 462 437 483 
f 458 439 484 
f 426 466 484 
f 466 458 484 
f 473 426 484 
o convex_14
v 0.028946 -0.008812 0.010806
v 0.021931 -0.008812 0.029162
v 0.024631 -0.006652 0.028621
v 0.037046 -0.015833 0.021602
v 0.034885 0.005222 0.018367
v 0.020309 0.003602 0.020522
v 0.020309 -0.016372 0.021060
v 0.037046 -0.013671 0.013506
v 0.037046 -0.005576 0.025381
v 0.033265 0.000903 0.011886
v 0.020309 -0.002338 0.015667
v 0.034344 0.004141 0.022140
v 0.020309 -0.014210 0.027541
v 0.037046 -0.003416 0.011886
v 0.020309 0.002521 0.024303
v 0.026250 -0.014210 0.013506
v 0.028946 0.002521 0.012966
v 0.037046 -0.010430 0.025381
v 0.023550 -0.017453 0.021602
v 0.033804 -0.013671 0.011346
v 0.037046 0.002521 0.017287
v 0.037046 -0.016372 0.017825
v 0.028409 -0.002877 0.010806
v 0.020309 -0.007192 0.015667
v 0.025170 -0.015293 0.026461
v 0.033804 -0.005576 0.010266
v 0.027870 0.005222 0.020522
v 0.030566 0.005222 0.016205
v 0.023009 -0.017453 0.024303
v 0.020309 -0.005576 0.028621
v 0.024090 -0.012053 0.028621
v 0.025709 -0.007731 0.011886
v 0.033804 0.003602 0.014046
v 0.037046 0.000903 0.022140
v 0.023550 -0.004497 0.028081
v 0.028946 -0.014210 0.012426
f 504 506 520 
f 488 492 493 
f 491 490 495 
f 490 491 497 
f 493 492 498 
f 490 497 499 
f 495 490 501 
f 493 487 502 
f 488 493 502 
f 491 500 503 
f 498 492 504 
f 493 498 505 
f 492 488 506 
f 504 492 506 
f 501 494 507 
f 495 501 507 
f 491 495 508 
f 500 491 508 
f 488 502 509 
f 494 498 510 
f 504 485 510 
f 498 504 510 
f 485 507 510 
f 507 494 510 
f 496 489 511 
f 499 496 511 
f 490 499 511 
f 501 490 512 
f 511 489 512 
f 490 511 512 
f 497 491 513 
f 491 503 513 
f 506 488 513 
f 503 506 513 
f 509 497 513 
f 488 509 513 
f 486 487 514 
f 497 486 514 
f 499 497 514 
f 487 486 515 
f 486 497 515 
f 502 487 515 
f 497 509 515 
f 509 502 515 
f 485 500 516 
f 507 485 516 
f 495 507 516 
f 508 495 516 
f 500 508 516 
f 498 494 517 
f 494 501 517 
f 489 505 517 
f 505 498 517 
f 512 489 517 
f 501 512 517 
f 489 496 518 
f 496 493 518 
f 505 489 518 
f 493 505 518 
f 487 493 519 
f 493 496 519 
f 496 499 519 
f 514 487 519 
f 499 514 519 
f 500 485 520 
f 503 500 520 
f 485 504 520 
f 506 503 520 
o convex_15
v 0.052164 -0.024471 0.026462
v 0.061340 -0.015834 0.043737
v 0.060259 -0.014754 0.045357
v 0.052703 -0.016914 0.026462
v 0.057022 -0.019612 0.048596
v 0.051083 -0.016914 0.031861
v 0.058100 -0.021772 0.033482
v 0.060799 -0.019612 0.046436
v 0.051083 -0.024471 0.028622
v 0.057020 -0.014753 0.033482
v 0.057022 -0.016914 0.048596
v 0.056480 -0.019073 0.029164
v 0.053784 -0.014753 0.033482
v 0.055940 -0.023391 0.034561
v 0.061340 -0.016374 0.040500
v 0.051083 -0.020691 0.032940
v 0.051083 -0.016914 0.026462
v 0.060799 -0.016914 0.048596
v 0.054324 -0.022311 0.026462
f 532 527 539 
f 524 530 532 
f 523 530 533 
f 530 524 533 
f 531 523 533 
f 526 531 533 
f 521 527 534 
f 528 525 534 
f 527 528 534 
f 529 521 534 
f 525 529 534 
f 523 522 535 
f 522 528 535 
f 528 527 535 
f 530 523 535 
f 527 532 535 
f 532 530 535 
f 529 525 536 
f 526 529 536 
f 531 526 536 
f 525 531 536 
f 524 521 537 
f 521 529 537 
f 529 526 537 
f 533 524 537 
f 526 533 537 
f 522 523 538 
f 528 522 538 
f 525 528 538 
f 523 531 538 
f 531 525 538 
f 521 524 539 
f 527 521 539 
f 524 532 539 
o convex_16
v 0.029490 -0.034186 0.064792
v 0.060261 -0.016373 0.049140
v 0.060261 -0.016373 0.048599
v 0.029490 -0.027169 0.064792
v 0.028950 -0.030407 0.060473
v 0.052157 -0.025552 0.055617
v 0.032729 -0.034186 0.059394
v 0.051081 -0.017996 0.050219
v 0.033808 -0.029328 0.065871
v 0.054321 -0.017456 0.054538
v 0.051621 -0.022854 0.049680
v 0.032729 -0.035266 0.065331
v 0.052700 -0.025552 0.052379
v 0.051621 -0.016373 0.053458
v 0.029490 -0.027169 0.062093
v 0.031108 -0.036347 0.062093
v 0.051621 -0.023934 0.056696
v 0.031108 -0.027709 0.065871
v 0.059718 -0.019075 0.050219
v 0.030029 -0.034186 0.059934
v 0.032729 -0.033107 0.066410
v 0.058639 -0.020154 0.048599
v 0.051081 -0.020694 0.049680
v 0.052157 -0.016373 0.050759
v 0.052157 -0.026092 0.054538
f 561 558 564 
f 540 543 544 
f 546 550 552 
f 541 542 553 
f 549 541 553 
f 544 543 554 
f 547 544 554 
f 543 553 554 
f 551 540 555 
f 546 552 555 
f 549 548 556 
f 543 540 557 
f 548 549 557 
f 553 543 557 
f 549 553 557 
f 542 541 558 
f 541 549 558 
f 556 545 558 
f 549 556 558 
f 540 544 559 
f 550 546 559 
f 555 540 559 
f 546 555 559 
f 540 551 560 
f 551 545 560 
f 545 556 560 
f 556 548 560 
f 557 540 560 
f 548 557 560 
f 552 550 561 
f 542 558 561 
f 547 542 562 
f 544 547 562 
f 559 544 562 
f 550 559 562 
f 542 561 562 
f 561 550 562 
f 542 547 563 
f 553 542 563 
f 547 554 563 
f 554 553 563 
f 545 551 564 
f 551 555 564 
f 555 552 564 
f 558 545 564 
f 552 561 564 
o convex_17
v -0.045016 -0.008277 0.015124
v -0.052575 -0.009353 0.011886
v -0.052575 -0.009353 0.012966
v -0.047176 -0.015833 0.016204
v -0.050415 -0.005037 0.016744
v -0.047716 -0.007195 0.009726
v -0.049875 -0.002336 0.011346
v -0.050954 -0.010974 0.009726
v -0.050415 -0.013673 0.016744
v -0.045556 -0.006656 0.016744
v -0.047176 -0.010434 0.010266
v -0.047716 -0.002336 0.011886
v -0.045016 -0.013131 0.016744
v -0.050954 -0.002336 0.014044
f 574 576 578 
f 571 570 572 
f 566 571 572 
f 572 568 573 
f 567 566 573 
f 569 567 573 
f 566 572 573 
f 569 573 574 
f 570 565 575 
f 572 570 575 
f 568 572 575 
f 565 570 576 
f 570 571 576 
f 574 565 576 
f 573 568 577 
f 574 573 577 
f 565 574 577 
f 575 565 577 
f 568 575 577 
f 566 567 578 
f 567 569 578 
f 571 566 578 
f 569 574 578 
f 576 571 578 
o convex_18
v -0.049334 -0.015291 0.016744
v -0.046097 -0.013132 0.035100
v -0.047716 -0.013132 0.035100
v -0.044476 0.007922 0.021064
v -0.044476 -0.027171 0.024846
v -0.053654 -0.009357 0.027539
v -0.050415 -0.026629 0.029699
v -0.044476 0.004682 0.016744
v -0.044476 -0.024465 0.032400
v -0.052574 -0.020691 0.021064
v -0.050955 -0.007197 0.016744
v -0.044476 0.005758 0.026459
v -0.045017 -0.014753 0.016744
v -0.049334 -0.022847 0.019445
v -0.044476 -0.008281 0.034019
v -0.047716 -0.005037 0.031859
v -0.046097 0.006300 0.020526
v -0.048257 -0.028250 0.025922
v -0.048797 -0.015830 0.034559
v -0.053654 -0.008819 0.025385
v -0.053114 -0.020146 0.024305
v -0.046097 0.006300 0.023766
v -0.046097 -0.028250 0.028619
v -0.049874 -0.003423 0.028619
v -0.048797 -0.026087 0.031318
v -0.050955 -0.023386 0.030240
v -0.044476 -0.015291 0.017824
v -0.053654 -0.013670 0.023766
f 588 599 606 
f 582 583 586 
f 583 582 587 
f 586 579 589 
f 579 588 589 
f 587 582 590 
f 579 586 591 
f 588 579 592 
f 579 591 592 
f 591 583 592 
f 581 580 593 
f 580 587 593 
f 587 590 593 
f 593 590 594 
f 584 581 594 
f 581 593 594 
f 582 586 595 
f 586 589 595 
f 585 588 596 
f 592 583 596 
f 588 592 596 
f 580 581 597 
f 581 584 597 
f 587 580 597 
f 595 589 598 
f 588 585 599 
f 590 582 600 
f 582 595 600 
f 598 584 600 
f 595 598 600 
f 583 587 601 
f 596 583 601 
f 585 596 601 
f 594 590 602 
f 584 594 602 
f 590 600 602 
f 600 584 602 
f 597 585 603 
f 587 597 603 
f 601 587 603 
f 585 601 603 
f 597 584 604 
f 585 597 604 
f 584 599 604 
f 599 585 604 
f 586 583 605 
f 583 591 605 
f 591 586 605 
f 589 588 606 
f 584 598 606 
f 598 589 606 
f 599 584 606 
o convex_19
v 0.040825 -0.020152 0.013507
v 0.041366 -0.029870 0.009188
v 0.042445 -0.029870 0.009188
v 0.046764 -0.027710 0.026460
v 0.046764 -0.020152 0.015125
v 0.044064 -0.020152 0.026460
v 0.038125 -0.026090 0.012428
v 0.042445 -0.021233 0.009188
v 0.046223 -0.026629 0.012428
v 0.044604 -0.026629 0.026460
v 0.046764 -0.020152 0.026460
v 0.039746 -0.029870 0.011347
v 0.038666 -0.021773 0.010808
v 0.044064 -0.024472 0.009188
v 0.046764 -0.027170 0.016745
f 615 611 621 
f 611 607 612 
f 609 608 614 
f 607 611 614 
f 610 612 616 
f 612 613 616 
f 610 611 617 
f 612 610 617 
f 611 612 617 
f 608 609 618 
f 609 610 618 
f 613 608 618 
f 610 616 618 
f 616 613 618 
f 612 607 619 
f 608 613 619 
f 613 612 619 
f 614 608 619 
f 607 614 619 
f 609 614 620 
f 614 611 620 
f 615 609 620 
f 611 615 620 
f 610 609 621 
f 611 610 621 
f 609 615 621 
o convex_20
v -0.036919 0.010616 0.014045
v -0.043936 -0.008270 0.034020
v -0.044476 -0.008270 0.034020
v -0.044476 -0.018529 0.021064
v -0.036919 -0.018529 0.030777
v -0.044476 0.008457 0.020526
v -0.036378 0.012776 0.023225
v -0.036378 -0.005035 0.014585
v -0.044476 -0.003413 0.016208
v -0.039079 0.004138 0.030241
v -0.044476 -0.018529 0.032940
v -0.043936 0.007377 0.026462
v -0.037999 -0.012051 0.033480
v -0.037459 -0.018529 0.025381
v -0.036378 0.003062 0.028618
v -0.038539 0.013856 0.018907
v -0.044476 0.005218 0.016748
v -0.036378 -0.017450 0.028078
v -0.040159 0.001982 0.014045
v -0.044476 -0.007732 0.016748
v -0.036378 0.014397 0.017827
v -0.041776 0.005759 0.029161
v -0.043936 -0.017450 0.019987
v -0.039079 -0.007732 0.033480
v -0.036919 -0.003955 0.014045
v -0.036378 -0.013131 0.030777
v -0.036378 0.008998 0.013505
v -0.042316 0.009537 0.025381
f 633 643 649 
f 625 624 627 
f 625 627 630 
f 624 623 631 
f 623 624 632 
f 624 625 632 
f 625 626 632 
f 627 624 633 
f 623 632 634 
f 632 626 634 
f 626 625 635 
f 629 628 636 
f 628 631 636 
f 630 627 638 
f 637 622 638 
f 627 637 638 
f 626 635 639 
f 635 629 639 
f 629 636 639 
f 638 622 640 
f 630 638 640 
f 625 630 641 
f 630 640 641 
f 628 629 642 
f 622 637 642 
f 637 628 642 
f 624 631 643 
f 631 628 643 
f 633 624 643 
f 635 625 644 
f 629 635 644 
f 625 641 644 
f 631 623 645 
f 623 634 645 
f 636 631 645 
f 634 636 645 
f 641 640 646 
f 629 644 646 
f 644 641 646 
f 634 626 647 
f 636 634 647 
f 626 639 647 
f 639 636 647 
f 640 622 648 
f 622 642 648 
f 642 629 648 
f 629 646 648 
f 646 640 648 
f 627 633 649 
f 637 627 649 
f 628 637 649 
f 643 628 649 
o convex_21
v 0.017610 0.010619 0.002167
v -0.015861 0.012778 0.001087
v -0.015861 0.012778 0.002167
v -0.002366 -0.019072 0.001627
v 0.014910 -0.004493 -0.007550
v -0.010461 0.015477 -0.007550
v -0.008302 -0.012592 -0.007550
v 0.002490 0.026276 -0.002153
v 0.011129 0.014396 -0.007550
v 0.012748 -0.013669 0.002167
v 0.004652 -0.016373 -0.007550
v -0.014779 -0.008274 0.002167
v -0.006143 0.025194 0.002167
v -0.013702 -0.000175 -0.007550
v 0.010589 0.021413 0.002167
v 0.000875 0.021958 -0.007550
v -0.015320 0.016018 0.000007
v -0.015320 -0.006651 -0.001072
v 0.015988 0.010619 -0.003230
v 0.010589 -0.015287 -0.002153
v 0.002490 0.027357 0.002167
v 0.003571 -0.018532 0.002167
v -0.002906 -0.016909 -0.007010
v -0.009383 -0.014210 -0.001612
v -0.013702 0.007919 -0.007550
v -0.008302 0.024117 0.001627
v 0.017610 0.007378 0.001087
v -0.000744 0.026276 -0.001612
v -0.012083 -0.010433 -0.004851
v 0.014910 0.003070 -0.007550
v 0.013829 -0.011510 0.000007
v 0.013289 -0.008269 -0.007550
v -0.007221 -0.016373 0.002167
v 0.004652 0.023035 -0.004851
v 0.001409 -0.018532 -0.002691
v -0.003984 0.021417 -0.005930
v -0.012620 0.016554 -0.004311
v -0.015861 0.016018 0.002167
v 0.010589 0.021413 0.001627
v 0.007889 -0.016368 -0.004311
f 671 684 689 
f 655 654 656 
f 654 655 658 
f 650 652 659 
f 656 654 660 
f 659 652 661 
f 652 650 662 
f 655 656 663 
f 662 650 664 
f 658 655 665 
f 652 651 667 
f 661 652 667 
f 651 663 667 
f 662 664 670 
f 659 661 671 
f 669 659 671 
f 656 660 672 
f 656 672 673 
f 663 651 674 
f 655 663 674 
f 651 666 674 
f 650 659 676 
f 668 650 676 
f 657 665 677 
f 670 657 677 
f 662 670 677 
f 675 662 677 
f 663 656 678 
f 661 667 678 
f 667 663 678 
f 673 661 678 
f 656 673 678 
f 654 658 679 
f 658 668 679 
f 676 654 679 
f 668 676 679 
f 659 669 680 
f 676 659 680 
f 654 676 680 
f 660 654 681 
f 680 669 681 
f 654 680 681 
f 653 671 682 
f 671 661 682 
f 672 653 682 
f 661 673 682 
f 673 672 682 
f 658 665 683 
f 665 657 683 
f 671 653 684 
f 653 672 684 
f 672 660 684 
f 665 655 685 
f 677 665 685 
f 675 677 685 
f 655 674 686 
f 674 666 686 
f 666 675 686 
f 685 655 686 
f 675 685 686 
f 651 652 687 
f 652 662 687 
f 666 651 687 
f 662 675 687 
f 675 666 687 
f 664 650 688 
f 650 668 688 
f 668 658 688 
f 657 670 688 
f 670 664 688 
f 683 657 688 
f 658 683 688 
f 669 671 689 
f 660 681 689 
f 681 669 689 
f 684 660 689 
o convex_22
v 0.013288 -0.013127 0.006487
v -0.019102 0.012236 0.008645
v -0.019102 0.012236 0.010265
v 0.012208 0.033291 0.009185
v -0.006684 0.025193 0.002167
v 0.005731 -0.018527 0.012965
v -0.013161 -0.010970 0.002167
v 0.018149 0.008998 0.002167
v 0.019769 0.008457 0.012965
v -0.005604 0.035988 0.011345
v -0.013701 -0.010430 0.012965
v 0.001414 -0.020684 0.003248
v -0.013701 0.032750 0.004328
v -0.017482 0.016555 0.012965
v 0.018149 0.026809 0.006487
v -0.018018 0.015479 0.002708
v -0.005063 -0.020684 0.010805
v 0.003570 0.027350 0.002167
v 0.013288 -0.012586 0.002167
v 0.003030 0.028972 0.012965
v -0.006144 0.037075 0.006487
v 0.012748 0.032215 0.011345
v -0.015321 -0.010430 0.004868
v 0.020309 0.004684 0.011345
v 0.011668 -0.014749 0.012965
v -0.014781 0.031669 0.007566
v 0.006811 -0.020149 0.008105
v 0.019769 0.006306 0.004328
v -0.009384 -0.017446 0.004328
v 0.019229 0.024112 0.009726
v 0.011668 0.033291 0.007566
v -0.015321 -0.010430 0.010265
v -0.002903 -0.019068 0.002167
v -0.001823 -0.022312 0.009185
v -0.011541 0.034913 0.009185
v -0.002367 -0.020143 0.012965
v -0.019102 0.017630 0.009185
v 0.019769 0.021955 0.005947
v 0.011668 0.020333 0.002167
v -0.016398 0.015479 0.002167
v 0.010048 -0.017987 0.005407
v -0.015321 -0.006645 0.002167
v -0.003983 0.037075 0.009726
v -0.009924 -0.017446 0.009185
v -0.006144 0.026815 0.012965
v -0.000203 -0.022312 0.010805
v 0.003030 0.030053 0.003248
v -0.012621 0.033832 0.004328
v 0.012748 0.020333 0.012965
v -0.003443 -0.020684 0.003788
v -0.013701 0.031669 0.003788
v 0.008971 -0.016365 0.002167
v 0.007887 -0.019068 0.011345
v -0.019102 0.013852 0.006487
v 0.020309 0.006306 0.006487
v 0.020309 0.010079 0.012425
v 0.011128 0.033291 0.011345
v 0.012748 -0.013668 0.011885
v 0.019229 0.022496 0.005407
f 728 704 748 
f 696 694 697 
f 695 698 700 
f 700 698 703 
f 692 700 703 
f 697 694 707 
f 696 697 708 
f 703 698 709 
f 704 693 711 
f 692 691 712 
f 690 708 713 
f 698 695 714 
f 713 698 714 
f 708 697 717 
f 712 696 718 
f 704 711 719 
f 693 704 720 
f 700 692 721 
f 692 712 721 
f 696 708 722 
f 718 696 722 
f 706 718 723 
f 703 699 724 
f 715 703 724 
f 702 715 724 
f 695 700 725 
f 700 706 725 
f 691 692 726 
f 692 703 726 
f 702 705 726 
f 703 715 726 
f 715 702 726 
f 717 697 727 
f 704 719 727 
f 697 707 728 
f 707 704 728 
f 694 696 729 
f 708 690 730 
f 716 701 730 
f 696 712 731 
f 729 696 731 
f 705 729 731 
f 693 720 732 
f 720 710 732 
f 724 699 732 
f 710 724 732 
f 706 700 733 
f 718 706 733 
f 712 718 733 
f 700 721 733 
f 721 712 733 
f 699 703 734 
f 709 699 734 
f 703 709 734 
f 701 716 735 
f 706 723 735 
f 723 701 735 
f 695 725 735 
f 725 706 735 
f 704 707 736 
f 720 704 736 
f 710 720 736 
f 724 710 737 
f 702 724 737 
f 736 707 737 
f 710 736 737 
f 709 698 738 
f 698 711 738 
f 711 709 738 
f 722 701 739 
f 718 722 739 
f 723 718 739 
f 701 723 739 
f 705 702 740 
f 707 694 740 
f 694 729 740 
f 729 705 740 
f 737 707 740 
f 702 737 740 
f 701 722 741 
f 722 708 741 
f 708 730 741 
f 730 701 741 
f 714 695 742 
f 730 714 742 
f 716 730 742 
f 695 735 742 
f 735 716 742 
f 712 691 743 
f 691 726 743 
f 726 705 743 
f 705 731 743 
f 731 712 743 
f 713 708 744 
f 708 717 744 
f 717 727 744 
f 744 727 745 
f 711 698 745 
f 698 713 745 
f 719 711 745 
f 727 719 745 
f 713 744 745 
f 699 709 746 
f 711 693 746 
f 709 711 746 
f 693 732 746 
f 732 699 746 
f 690 713 747 
f 713 714 747 
f 730 690 747 
f 714 730 747 
f 727 697 748 
f 704 727 748 
f 697 728 748 
o convex_23
v -0.015864 0.017099 0.037260
v -0.009386 0.013862 0.051837
v -0.009386 0.013321 0.051837
v -0.023420 0.012241 0.042661
v -0.017481 0.010081 0.037802
v -0.009386 0.021419 0.045896
v -0.018561 0.017099 0.048595
v -0.009386 0.013862 0.044278
v -0.022880 0.015481 0.037802
v -0.011545 0.020339 0.039422
v -0.012085 0.012241 0.051296
v -0.015324 0.016559 0.051296
v -0.015324 0.011701 0.037260
v -0.016403 0.019259 0.045357
v -0.021800 0.011701 0.036720
v -0.022880 0.011161 0.042661
v -0.009386 0.012241 0.047516
v -0.009386 0.018719 0.041579
v -0.016941 0.014400 0.050215
v -0.011545 0.021419 0.041579
v -0.021260 0.016020 0.045357
f 762 757 769 
f 750 751 754 
f 754 751 756 
f 749 757 758 
f 751 750 760 
f 750 754 760 
f 754 755 760 
f 759 751 760 
f 749 758 761 
f 755 754 762 
f 757 749 763 
f 752 757 763 
f 761 753 763 
f 749 761 763 
f 753 759 764 
f 752 763 764 
f 763 753 764 
f 756 751 765 
f 751 759 765 
f 759 753 765 
f 753 761 765 
f 761 756 765 
f 754 756 766 
f 758 754 766 
f 756 761 766 
f 761 758 766 
f 755 752 767 
f 760 755 767 
f 759 760 767 
f 764 759 767 
f 752 764 767 
f 754 758 768 
f 758 757 768 
f 762 754 768 
f 757 762 768 
f 752 755 769 
f 757 752 769 
f 755 762 769 
o convex_24
v 0.050001 -0.010438 0.028622
v 0.042984 -0.017451 0.026463
v 0.044066 -0.025008 0.026463
v 0.045684 -0.021228 0.031320
v 0.051083 -0.025008 0.026463
v 0.045145 -0.005575 0.026463
v 0.051083 -0.019069 0.031860
v 0.045684 -0.012056 0.030780
v 0.047842 -0.027707 0.028622
v 0.051083 -0.012597 0.026463
v 0.042984 -0.009357 0.027003
v 0.048383 -0.008818 0.029701
v 0.043525 -0.017451 0.029162
v 0.044605 -0.026628 0.028622
v 0.049462 -0.007198 0.026463
v 0.046225 -0.028248 0.026463
v 0.051083 -0.021770 0.031320
f 778 774 786 
f 772 771 774 
f 774 771 775 
f 773 776 777 
f 774 775 779 
f 770 776 779 
f 776 774 779 
f 775 771 780 
f 777 775 780 
f 776 770 781 
f 775 777 781 
f 777 776 781 
f 773 777 782 
f 780 771 782 
f 777 780 782 
f 771 772 783 
f 778 773 783 
f 782 771 783 
f 773 782 783 
f 770 779 784 
f 779 775 784 
f 781 770 784 
f 775 781 784 
f 772 774 785 
f 774 778 785 
f 783 772 785 
f 778 783 785 
f 774 776 786 
f 776 773 786 
f 773 778 786 
o convex_25
v -0.016403 -0.002875 0.017286
v -0.018022 0.005225 0.028620
v -0.018562 0.005225 0.028620
v -0.014243 0.018719 0.012967
v -0.014243 -0.002335 0.028620
v -0.018022 0.014939 0.012967
v -0.014243 0.016558 0.025920
v -0.018562 -0.003954 0.019984
v -0.014243 -0.006115 0.019445
v -0.018562 0.012238 0.024301
v -0.018562 -0.003415 0.026460
v -0.014243 0.009000 0.012967
v -0.016942 0.016558 0.019984
v -0.018562 -0.000176 0.016745
v -0.015323 -0.005573 0.026460
v -0.014783 0.015479 0.027001
f 799 796 802 
f 788 789 791 
f 791 790 793 
f 790 791 795 
f 794 787 795 
f 794 789 796 
f 791 789 797 
f 789 794 797 
f 792 790 798 
f 795 787 798 
f 790 795 798 
f 790 792 799 
f 793 790 799 
f 792 796 799 
f 787 794 800 
f 796 792 800 
f 794 796 800 
f 798 787 800 
f 792 798 800 
f 795 791 801 
f 794 795 801 
f 791 797 801 
f 797 794 801 
f 789 788 802 
f 788 791 802 
f 791 793 802 
f 796 789 802 
f 793 799 802 
o convex_26
v 0.012751 0.018714 0.021064
v -0.014243 -0.006651 0.020527
v -0.014243 -0.006651 0.023764
v 0.010050 -0.016370 0.016746
v 0.003032 -0.007190 0.036720
v -0.009923 0.024655 0.012965
v -0.003444 0.014396 0.036720
v -0.003986 -0.019608 0.012965
v 0.012751 0.019793 0.012965
v 0.012751 0.007920 0.031318
v 0.001952 0.028433 0.022145
v -0.014243 0.016555 0.026461
v -0.005605 -0.006111 0.036720
v 0.012751 -0.012592 0.025919
v 0.000332 -0.017449 0.027000
v -0.013701 -0.010428 0.012965
v 0.012209 -0.011508 0.012965
v 0.008970 0.011698 0.034560
v -0.014243 0.019793 0.012965
v -0.012621 -0.009889 0.027540
v 0.003032 0.028972 0.012965
v -0.013701 0.014936 0.029158
v 0.001952 0.014936 0.036720
v -0.008842 -0.014751 0.025382
v -0.008303 0.021412 0.026461
v 0.012751 -0.003952 0.030779
v -0.014243 -0.002333 0.028619
v 0.006269 -0.016370 0.027540
v -0.002366 -0.009349 0.036720
v 0.002493 -0.019608 0.012965
v 0.001952 0.025734 0.026461
v -0.006683 0.000370 0.036720
v -0.010462 0.023576 0.019448
v -0.000746 0.028972 0.016746
v -0.008303 0.014936 0.034018
v 0.010589 0.021957 0.019987
v -0.013162 -0.011508 0.021606
v -0.002366 -0.019608 0.018364
v 0.005730 -0.017989 0.023224
v 0.012751 -0.006651 0.012965
v -0.000207 0.025195 0.027000
v 0.006269 0.023036 0.025382
v 0.011131 -0.015290 0.012965
v 0.007889 -0.013671 0.029698
v 0.004113 -0.005032 0.036720
v -0.005605 -0.015830 0.027000
v 0.009509 0.009539 0.034560
v -0.007222 -0.017449 0.012965
v 0.011670 0.011154 0.031860
v 0.000332 0.028433 0.021606
v -0.011001 -0.011508 0.028079
v 0.004652 0.027893 0.017285
v 0.004113 0.012777 0.036720
v -0.013162 0.021412 0.017285
v 0.002493 0.020877 0.031318
v 0.004652 -0.015830 0.029158
v -0.001285 0.015476 0.036720
v -0.000746 0.028972 0.012965
v -0.009381 -0.015290 0.021606
v -0.008303 0.025195 0.018904
v 0.007889 0.025195 0.012965
f 854 838 863 
f 810 808 811 
f 811 803 812 
f 804 805 814 
f 807 809 815 
f 811 812 816 
f 805 804 818 
f 808 810 818 
f 810 811 819 
f 804 814 821 
f 818 804 821 
f 808 818 821 
f 811 808 823 
f 809 807 825 
f 814 824 827 
f 816 812 828 
f 814 805 829 
f 805 822 829 
f 822 815 829 
f 824 814 829 
f 807 815 831 
f 810 819 832 
f 815 809 834 
f 829 815 834 
f 824 829 834 
f 814 827 835 
f 813 823 836 
f 827 824 837 
f 834 809 837 
f 824 834 837 
f 803 811 838 
f 805 818 839 
f 822 805 839 
f 810 832 840 
f 840 832 841 
f 806 816 841 
f 816 830 841 
f 830 817 841 
f 832 806 841 
f 817 840 841 
f 811 816 842 
f 819 811 842 
f 816 819 842 
f 833 813 843 
f 827 837 843 
f 813 833 844 
f 803 838 844 
f 838 813 844 
f 816 806 845 
f 819 816 845 
f 806 832 845 
f 832 819 845 
f 828 807 846 
f 816 828 846 
f 830 816 846 
f 825 807 847 
f 807 828 847 
f 817 831 848 
f 826 840 848 
f 840 817 848 
f 828 812 849 
f 847 828 849 
f 818 810 850 
f 839 818 850 
f 812 803 851 
f 803 844 851 
f 844 820 851 
f 849 812 851 
f 820 849 851 
f 813 836 852 
f 843 813 852 
f 827 843 852 
f 815 822 853 
f 831 815 853 
f 822 839 853 
f 839 826 853 
f 826 848 853 
f 848 831 853 
f 823 813 854 
f 813 838 854 
f 820 825 855 
f 825 847 855 
f 849 820 855 
f 847 849 855 
f 821 814 856 
f 808 821 856 
f 835 808 856 
f 814 835 856 
f 825 820 857 
f 820 844 857 
f 844 833 857 
f 817 830 858 
f 831 817 858 
f 807 831 858 
f 846 807 858 
f 830 846 858 
f 809 825 859 
f 837 809 859 
f 833 843 859 
f 843 837 859 
f 825 857 859 
f 857 833 859 
f 823 808 860 
f 808 836 860 
f 836 823 860 
f 826 839 861 
f 810 840 861 
f 840 826 861 
f 850 810 861 
f 839 850 861 
f 808 835 862 
f 835 827 862 
f 836 808 862 
f 827 852 862 
f 852 836 862 
f 811 823 863 
f 838 811 863 
f 823 854 863 
o convex_27
v 0.020309 -0.015829 0.021064
v 0.013292 0.009537 0.030779
v 0.014371 0.009537 0.029698
v 0.012751 0.019256 0.012967
v 0.012751 -0.013130 0.023761
v 0.020309 0.004139 0.022682
v 0.020309 -0.012049 0.028619
v 0.012751 -0.003952 0.012967
v 0.019228 0.009000 0.012967
v 0.012751 -0.003952 0.030779
v 0.020309 -0.006651 0.015666
v 0.013292 0.018715 0.018906
v 0.019228 -0.000716 0.028619
v 0.012751 -0.012589 0.026461
v 0.019769 -0.016370 0.024841
v 0.012751 0.009537 0.030779
v 0.015992 -0.000716 0.030779
v 0.016530 0.009000 0.026461
v 0.018150 0.010077 0.019444
v 0.020309 -0.000716 0.026999
v 0.013831 0.018715 0.016206
v 0.013292 0.016557 0.023221
f 881 882 885 
f 864 869 870 
f 864 868 871 
f 868 867 871 
f 871 867 872 
f 867 868 873 
f 869 864 874 
f 864 871 874 
f 872 869 874 
f 871 872 874 
f 866 865 876 
f 873 868 877 
f 870 873 877 
f 868 864 878 
f 864 870 878 
f 877 868 878 
f 870 877 878 
f 873 865 879 
f 867 873 879 
f 865 873 880 
f 873 870 880 
f 876 865 880 
f 870 876 880 
f 869 872 882 
f 881 869 882 
f 870 869 883 
f 866 876 883 
f 876 870 883 
f 881 866 883 
f 869 881 883 
f 872 867 884 
f 867 875 884 
f 882 872 884 
f 875 882 884 
f 865 866 885 
f 875 867 885 
f 879 865 885 
f 867 879 885 
f 866 881 885 
f 882 875 885 
o convex_28
v -0.006685 0.017638 0.050754
v -0.004526 0.010081 0.039419
v -0.003986 0.010081 0.039419
v -0.008844 0.021419 0.042659
v -0.009384 0.011701 0.050754
v -0.003986 0.010081 0.052376
v -0.008844 0.010081 0.044278
v -0.003986 0.015481 0.049137
v -0.009384 0.015481 0.051296
v -0.009384 0.019259 0.042121
v -0.007224 0.020877 0.045359
v -0.009384 0.020877 0.046977
v -0.003986 0.013321 0.042121
f 896 893 898 
f 888 887 889 
f 887 888 891 
f 887 891 892 
f 891 890 892 
f 886 891 893 
f 891 888 893 
f 890 891 894 
f 891 886 894 
f 889 887 895 
f 887 892 895 
f 892 890 895 
f 890 894 895 
f 886 893 896 
f 894 886 897 
f 889 895 897 
f 895 894 897 
f 896 889 897 
f 886 896 897 
f 888 889 898 
f 893 888 898 
f 889 896 898 
o convex_29
v 0.041905 -0.003957 0.011348
v 0.046764 -0.005036 0.026461
v 0.039746 -0.005036 0.026461
v 0.044603 -0.020152 0.013507
v 0.037046 -0.015832 0.022141
v 0.046764 -0.020152 0.026461
v 0.037046 0.000363 0.013507
v 0.046764 -0.009892 0.012427
v 0.044063 0.001981 0.019443
v 0.037046 -0.011510 0.012427
v 0.037046 0.001981 0.021062
v 0.046764 -0.016910 0.011887
v 0.041366 -0.020152 0.014046
v 0.037046 -0.010972 0.025380
v 0.044063 -0.020152 0.026461
v 0.042443 0.000902 0.024300
v 0.041905 0.002522 0.016205
v 0.046764 -0.002877 0.018364
v 0.040287 -0.009892 0.010807
v 0.037046 -0.015832 0.015666
v 0.044603 -0.001798 0.014586
v 0.037046 -0.001798 0.024300
v 0.037046 -0.003416 0.011887
v 0.046764 -0.020152 0.015127
v 0.041366 -0.019071 0.012968
v 0.041905 0.003063 0.021062
v 0.037046 0.002522 0.017285
v 0.045683 -0.000719 0.023221
f 924 914 926 
f 900 901 904 
f 900 904 906 
f 903 905 908 
f 905 903 909 
f 899 906 910 
f 906 904 910 
f 902 904 911 
f 909 903 912 
f 904 901 913 
f 911 904 913 
f 903 911 913 
f 901 912 913 
f 912 903 913 
f 901 900 914 
f 899 905 915 
f 900 906 916 
f 899 910 917 
f 903 908 918 
f 911 903 918 
f 906 899 919 
f 899 915 919 
f 915 907 919 
f 916 906 919 
f 907 916 919 
f 912 901 920 
f 909 912 920 
f 901 914 920 
f 914 909 920 
f 905 899 921 
f 908 905 921 
f 899 917 921 
f 917 908 921 
f 904 902 922 
f 902 910 922 
f 910 904 922 
f 910 902 923 
f 902 911 923 
f 908 917 923 
f 917 910 923 
f 918 908 923 
f 911 918 923 
f 909 914 924 
f 907 915 924 
f 924 915 925 
f 905 909 925 
f 915 905 925 
f 909 924 925 
f 914 900 926 
f 900 916 926 
f 916 907 926 
f 907 924 926 
o convex_30
v 0.053241 -0.019070 0.011887
v 0.047304 -0.005038 0.026462
v 0.046764 -0.005038 0.026462
v 0.050543 -0.030407 0.024840
v 0.055941 -0.012597 0.023762
v 0.046764 -0.010439 0.012426
v 0.046764 -0.028246 0.016205
v 0.056481 -0.027168 0.023762
v 0.046764 -0.028246 0.026462
v 0.051084 -0.007738 0.015666
v 0.052161 -0.029327 0.015125
v 0.053781 -0.022848 0.026462
v 0.054321 -0.015297 0.012967
v 0.047304 -0.003416 0.018904
v 0.048385 -0.020148 0.011887
v 0.056481 -0.025007 0.020521
v 0.055941 -0.012058 0.021061
v 0.052161 -0.007199 0.022681
v 0.048385 -0.030407 0.016205
v 0.052702 -0.030407 0.024840
v 0.054861 -0.013136 0.025382
v 0.050004 -0.013678 0.011345
v 0.053781 -0.025007 0.014046
v 0.049464 -0.028246 0.014046
v 0.046764 -0.017451 0.011887
v 0.050543 -0.009897 0.012967
v 0.046764 -0.004499 0.016746
v 0.054321 -0.027707 0.025921
v 0.055401 -0.028788 0.021603
v 0.049464 -0.006658 0.026462
f 938 947 956 
f 929 932 933 
f 928 929 935 
f 929 933 935 
f 928 935 938 
f 929 928 940 
f 931 934 942 
f 942 939 943 
f 939 936 943 
f 931 942 943 
f 940 928 944 
f 936 940 944 
f 943 936 944 
f 931 943 944 
f 935 933 945 
f 930 935 945 
f 935 930 946 
f 930 945 946 
f 945 937 946 
f 934 931 947 
f 938 934 947 
f 939 927 948 
f 927 941 948 
f 927 939 949 
f 939 942 949 
f 941 927 950 
f 945 933 950 
f 937 945 950 
f 927 949 950 
f 949 937 950 
f 933 932 951 
f 932 948 951 
f 948 941 951 
f 941 950 951 
f 950 933 951 
f 936 939 952 
f 948 932 952 
f 939 948 952 
f 932 929 953 
f 929 940 953 
f 940 936 953 
f 936 952 953 
f 952 932 953 
f 934 938 954 
f 938 935 954 
f 935 946 954 
f 946 934 954 
f 942 934 955 
f 934 946 955 
f 946 937 955 
f 937 949 955 
f 949 942 955 
f 928 938 956 
f 944 928 956 
f 931 944 956 
f 947 931 956 
