o convex_0
v 0.006435 0.038463 -0.039538
v 0.019886 0.078831 -0.026081
v 0.022723 0.078119 -0.024672
v 0.007853 0.042719 -0.011922
v 0.039007 0.041297 -0.038120
v 0.009267 0.075286 -0.038123
v 0.024844 0.039175 -0.014756
v 0.031216 0.071746 -0.040957
v 0.032634 0.068913 -0.019712
v -0.002774 0.038463 -0.027499
v 0.014932 0.071746 -0.016171
v 0.022012 0.060413 -0.011214
v 0.006435 0.062535 -0.019008
v 0.029798 0.038463 -0.040957
v 0.037592 0.066080 -0.026081
v 0.006435 0.053340 -0.040957
v 0.036174 0.043426 -0.024672
v 0.036174 0.071746 -0.033874
v 0.000063 0.038463 -0.019008
v 0.007853 0.071746 -0.026792
v 0.036881 0.061832 -0.040957
v 0.033342 0.038463 -0.023964
v 0.025551 0.075286 -0.040246
v 0.031923 0.075998 -0.025376
v 0.015639 0.054759 -0.009796
v -0.002774 0.039175 -0.031041
v 0.019886 0.039175 -0.011925
v 0.027677 0.049093 -0.014756
v 0.004309 0.065368 -0.028207
v 0.025551 0.073868 -0.018297
v 0.039718 0.055462 -0.032459
v 0.007142 0.071035 -0.038831
v -0.002774 0.041297 -0.024672
v 0.009267 0.059702 -0.014048
v 0.011389 0.077412 -0.028911
v 0.012100 0.067498 -0.040957
v 0.036174 0.060413 -0.022546
v 0.039007 0.042008 -0.030333
v 0.032634 0.075286 -0.034579
v 0.036881 0.039175 -0.039535
v 0.010682 0.038463 -0.040957
v 0.008556 0.038463 -0.013337
v -0.000649 0.042008 -0.034582
v 0.007142 0.073164 -0.037412
v 0.012100 0.077412 -0.034582
v 0.036174 0.071035 -0.024672
v 0.003602 0.049093 -0.016879
v 0.037592 0.038463 -0.035289
v 0.019886 0.075998 -0.019712
v 0.012807 0.043426 -0.010507
v 0.031216 0.071035 -0.019005
v 0.036174 0.043426 -0.040957
v 0.039007 0.047674 -0.039538
v 0.005728 0.045552 -0.013337
v 0.022012 0.043426 -0.011925
v 0.000770 0.038463 -0.035997
v 0.029798 0.046260 -0.016882
v 0.025551 0.076701 -0.021130
v 0.023426 0.075998 -0.039535
v 0.030509 0.076701 -0.030330
v 0.006435 0.061832 -0.040243
v 0.022012 0.038463 -0.013340
v 0.017058 0.052629 -0.009796
v 0.038299 0.060413 -0.037412
f 53 21 64 
f 10 1 14 
f 8 14 16 
f 10 14 19 
f 13 11 20 
f 14 8 21 
f 8 18 21 
f 17 7 22 
f 19 14 22 
f 12 11 25 
f 9 12 28 
f 13 20 29 
f 11 12 30 
f 18 15 31 
f 10 19 33 
f 26 10 33 
f 13 29 33 
f 11 13 34 
f 25 11 34 
f 20 11 35 
f 8 16 36 
f 6 23 36 
f 23 8 36 
f 32 6 36 
f 9 28 37 
f 17 22 38 
f 5 31 38 
f 31 15 38 
f 15 37 38 
f 37 17 38 
f 18 8 39 
f 8 23 39 
f 24 18 39 
f 14 1 41 
f 1 16 41 
f 16 14 41 
f 4 19 42 
f 19 22 42 
f 26 32 43 
f 29 20 44 
f 6 32 44 
f 32 26 44 
f 26 33 44 
f 33 29 44 
f 35 6 44 
f 20 35 44 
f 35 2 45 
f 6 35 45 
f 15 18 46 
f 18 24 46 
f 9 37 46 
f 37 15 46 
f 13 33 47 
f 33 19 47 
f 34 13 47 
f 22 14 48 
f 5 38 48 
f 38 22 48 
f 40 5 48 
f 14 40 48 
f 11 30 49 
f 2 35 49 
f 35 11 49 
f 25 4 50 
f 4 42 50 
f 42 27 50 
f 12 9 51 
f 30 12 51 
f 46 24 51 
f 9 46 51 
f 14 21 52 
f 40 14 52 
f 40 52 53 
f 31 5 53 
f 5 40 53 
f 52 21 53 
f 19 4 54 
f 4 25 54 
f 25 34 54 
f 47 19 54 
f 34 47 54 
f 28 12 55 
f 7 28 55 
f 1 10 56 
f 16 1 56 
f 10 26 56 
f 43 16 56 
f 26 43 56 
f 7 17 57 
f 28 7 57 
f 37 28 57 
f 17 37 57 
f 3 2 58 
f 24 3 58 
f 2 49 58 
f 49 30 58 
f 30 51 58 
f 51 24 58 
f 23 6 59 
f 39 23 59 
f 45 2 59 
f 6 45 59 
f 2 3 60 
f 3 24 60 
f 24 39 60 
f 59 2 60 
f 39 59 60 
f 36 16 61 
f 32 36 61 
f 16 43 61 
f 43 32 61 
f 22 7 62 
f 42 22 62 
f 27 42 62 
f 7 55 62 
f 55 27 62 
f 12 25 63 
f 25 50 63 
f 50 27 63 
f 55 12 63 
f 27 55 63 
f 21 18 64 
f 18 31 64 
f 31 53 64 
o convex_1
v 0.014216 0.038462 -0.012634
v -0.003475 0.027843 -0.040957
v -0.008435 0.027843 -0.040243
v 0.022720 0.027843 -0.007671
v 0.032633 0.037753 -0.040957
v -0.025436 0.027843 -0.012634
v -0.003475 0.038462 -0.031749
v 0.027673 0.027843 -0.038829
v 0.036885 0.037045 -0.026083
v -0.007727 0.033505 -0.007671
v 0.011386 0.038462 -0.040957
v -0.020471 0.028551 -0.032453
v -0.019055 0.032799 -0.015462
v 0.026258 0.038462 -0.016879
v 0.004309 0.037045 -0.009089
v -0.014809 0.027843 -0.007671
v 0.029803 0.027843 -0.029622
v 0.012093 0.036337 -0.007671
v 0.000063 0.034921 -0.040957
v 0.000063 0.038462 -0.019007
v 0.036171 0.038462 -0.033163
v 0.034048 0.032799 -0.037415
v 0.022720 0.027843 -0.040957
v -0.024015 0.028551 -0.026083
v 0.036885 0.035629 -0.026083
v 0.000063 0.038462 -0.036702
v -0.015517 0.032091 -0.009089
v -0.020471 0.027843 -0.032453
v 0.022720 0.038462 -0.014048
v -0.007727 0.030675 -0.040243
v -0.024015 0.029967 -0.018300
v -0.016932 0.032799 -0.011927
v 0.024135 0.027843 -0.009799
v 0.031925 0.038462 -0.040957
v 0.022720 0.028551 -0.007671
v 0.032633 0.038462 -0.022545
v 0.030510 0.031383 -0.040243
v -0.004183 0.037753 -0.033873
v 0.034756 0.035629 -0.038829
v 0.018468 0.032799 -0.007671
v -0.025436 0.028551 -0.012634
v -0.003475 0.038462 -0.028208
v 0.035464 0.033505 -0.032453
v -0.020471 0.032091 -0.017592
v -0.014102 0.031383 -0.007671
f 91 105 109 
f 67 66 68 
f 67 68 70 
f 68 66 72 
f 69 66 75 
f 71 65 75 
f 75 65 78 
f 70 68 80 
f 68 74 80 
f 68 72 81 
f 74 68 82 
f 65 79 82 
f 79 74 82 
f 75 66 83 
f 65 71 84 
f 79 65 84 
f 75 78 85 
f 81 72 86 
f 66 69 87 
f 72 66 87 
f 73 68 89 
f 85 73 89 
f 71 75 90 
f 75 83 90 
f 74 79 91 
f 67 70 92 
f 76 67 92 
f 88 76 92 
f 70 88 92 
f 78 65 93 
f 65 82 93 
f 66 67 94 
f 67 76 94 
f 83 66 94 
f 76 90 94 
f 90 83 94 
f 84 77 96 
f 79 84 96 
f 91 79 96 
f 68 81 97 
f 89 68 97 
f 81 89 97 
f 69 75 98 
f 85 69 98 
f 75 85 98 
f 68 73 99 
f 82 68 99 
f 78 93 99 
f 73 85 100 
f 85 78 100 
f 99 73 100 
f 78 99 100 
f 86 72 101 
f 87 69 101 
f 72 87 101 
f 76 88 102 
f 71 90 102 
f 90 76 102 
f 69 85 103 
f 85 89 103 
f 101 69 103 
f 86 101 103 
f 93 82 104 
f 82 99 104 
f 99 93 104 
f 70 80 105 
f 88 70 105 
f 77 95 105 
f 95 88 105 
f 96 77 105 
f 91 96 105 
f 71 77 106 
f 84 71 106 
f 77 84 106 
f 81 86 107 
f 89 81 107 
f 103 89 107 
f 86 103 107 
f 77 71 108 
f 95 77 108 
f 88 95 108 
f 102 88 108 
f 71 102 108 
f 80 74 109 
f 74 91 109 
f 105 80 109 
o convex_2
v -0.002768 -0.029521 0.009324
v 0.005724 0.036339 -0.006962
v 0.005724 0.036339 -0.007671
v -0.036053 -0.004023 0.001536
v 0.018467 -0.028804 -0.007671
v 0.024131 0.012965 0.012866
v -0.016225 0.020752 0.012866
v -0.033225 -0.016769 -0.007671
v 0.034759 0.017214 -0.007671
v 0.029802 -0.016065 0.012866
v -0.033932 -0.013224 0.012866
v -0.024725 0.022876 -0.007671
v 0.016345 0.030670 0.003659
v 0.009974 -0.030231 0.012866
v 0.028381 -0.023142 -0.004837
v -0.019061 -0.026687 0.007909
v -0.033932 -0.001899 0.012866
v -0.019061 -0.023852 -0.007671
v 0.003596 0.024297 0.012866
v -0.013390 0.030663 -0.001297
v 0.032631 0.023587 -0.005547
v 0.031216 -0.006147 0.012866
v 0.031216 -0.018189 0.009324
v 0.021302 -0.026680 0.012157
v -0.014097 -0.028101 0.012866
v 0.029802 0.016503 0.005782
v 0.004303 -0.028804 -0.005547
v 0.019174 0.032794 -0.007671
v -0.033225 -0.002609 -0.007671
v -0.033932 -0.017479 0.000828
v -0.025432 0.021462 -0.004129
v 0.024845 -0.025976 -0.007671
v -0.014097 0.032084 -0.006254
v -0.000654 0.032084 0.000828
v -0.036767 -0.012520 0.000121
v -0.027553 -0.021017 0.012157
v -0.030389 -0.020314 -0.006254
v -0.024018 0.012965 0.012866
v 0.018467 0.020758 0.011449
v 0.018467 -0.029521 -0.006962
v 0.027674 0.020752 0.005072
v -0.011268 -0.028101 0.004364
v 0.034759 0.015089 -0.007671
v 0.011388 0.035629 -0.004837
v -0.017639 0.027835 -0.001297
v -0.024725 -0.023852 0.009324
v 0.019881 -0.028804 0.002244
v 0.012096 0.023587 0.012157
v -0.036053 -0.005437 -0.002004
v -0.035346 -0.004733 0.010032
v 0.029802 -0.021024 0.006491
v -0.033932 -0.000485 0.010741
v 0.029802 -0.010396 -0.007671
v 0.000760 0.024297 0.012866
v -0.007725 0.033498 -0.007671
v -0.031096 0.003054 0.012866
v 0.031924 0.023587 -0.007671
v 0.016345 0.032794 -0.001297
v 0.034759 0.017214 -0.006962
v 0.031216 -0.018189 0.007909
v -0.036053 -0.012520 0.006491
v -0.033932 -0.014645 -0.007671
v -0.001354 0.034912 -0.005547
v -0.023311 0.022876 -0.002004
f 154 140 173 
f 112 114 117 
f 114 112 118 
f 115 116 119 
f 119 116 120 
f 112 117 121 
f 119 120 123 
f 120 116 126 
f 117 114 127 
f 116 115 128 
f 115 119 131 
f 131 119 132 
f 119 123 133 
f 132 119 133 
f 110 123 134 
f 123 120 134 
f 115 131 135 
f 118 112 137 
f 121 117 138 
f 121 113 140 
f 114 118 141 
f 129 116 143 
f 117 139 144 
f 134 120 145 
f 120 139 145 
f 117 127 146 
f 127 125 146 
f 139 117 146 
f 126 116 147 
f 123 110 149 
f 127 114 149 
f 110 136 149 
f 136 127 149 
f 114 141 149 
f 130 122 150 
f 115 135 150 
f 135 130 150 
f 148 115 150 
f 122 148 150 
f 125 127 151 
f 110 134 151 
f 134 125 151 
f 136 110 151 
f 127 136 151 
f 141 118 152 
f 112 111 153 
f 137 112 153 
f 111 143 153 
f 143 122 153 
f 116 129 154 
f 121 140 154 
f 142 121 154 
f 129 142 154 
f 125 134 155 
f 134 145 155 
f 145 139 155 
f 139 146 155 
f 146 125 155 
f 133 123 156 
f 141 124 156 
f 123 149 156 
f 149 141 156 
f 128 115 157 
f 122 128 157 
f 115 148 157 
f 148 122 157 
f 113 121 158 
f 121 138 158 
f 144 113 158 
f 120 126 159 
f 113 144 159 
f 132 133 160 
f 133 156 160 
f 156 124 160 
f 140 113 161 
f 159 126 161 
f 113 159 161 
f 124 141 162 
f 152 124 162 
f 141 152 162 
f 116 128 163 
f 128 122 163 
f 122 143 163 
f 143 116 163 
f 112 121 164 
f 121 142 164 
f 126 147 165 
f 147 140 165 
f 140 161 165 
f 161 126 165 
f 130 118 166 
f 118 137 166 
f 137 130 166 
f 122 130 167 
f 130 137 167 
f 137 153 167 
f 153 122 167 
f 118 130 168 
f 131 132 168 
f 130 135 168 
f 135 131 168 
f 152 118 168 
f 132 152 168 
f 124 152 169 
f 152 132 169 
f 160 124 169 
f 132 160 169 
f 139 120 170 
f 144 139 170 
f 120 159 170 
f 159 144 170 
f 138 117 171 
f 117 144 171 
f 158 138 171 
f 144 158 171 
f 111 112 172 
f 142 129 172 
f 143 111 172 
f 129 143 172 
f 112 164 172 
f 164 142 172 
f 147 116 173 
f 140 147 173 
f 116 154 173 
o convex_3
v -0.010561 -0.039435 0.053939
v -0.005608 0.004470 0.033407
v -0.002775 0.002340 0.041196
v 0.026967 -0.027396 0.034823
v -0.026852 -0.042264 0.032698
v -0.036764 -0.009699 0.046858
v 0.019175 -0.013237 0.053939
v -0.024019 -0.006157 0.053939
v -0.039597 -0.016071 0.032698
v -0.031098 -0.029516 0.053939
v 0.017762 -0.004740 0.032698
v 0.009969 -0.038018 0.046858
v -0.016227 -0.047228 0.032698
v 0.021301 -0.027396 0.053939
v 0.022008 -0.032350 0.032698
v -0.027558 -0.001198 0.038364
v 0.028380 -0.024562 0.047567
v -0.041010 -0.020321 0.039780
v 0.002177 -0.004032 0.052521
v 0.013509 -0.000489 0.034116
v -0.021893 -0.047228 0.033407
v -0.019060 0.001636 0.032698
v 0.026967 -0.017487 0.043319
v -0.018353 0.001636 0.040487
v 0.026967 -0.021728 0.032698
v -0.029678 -0.008282 0.053939
v -0.037470 -0.008991 0.036239
v -0.020480 -0.038721 0.051105
v -0.000656 -0.038726 0.053230
v -0.032511 -0.031642 0.048273
v -0.012680 -0.002615 0.051105
v -0.032511 -0.020321 0.053939
v 0.011389 -0.038018 0.043319
v 0.017055 -0.011116 0.053939
v 0.024134 -0.014659 0.047567
v 0.026967 -0.028104 0.041196
v -0.039597 -0.021733 0.034116
v 0.012096 -0.034476 0.053230
v 0.017055 -0.035184 0.032698
v -0.028265 -0.001906 0.041903
v 0.002177 0.003048 0.032698
v -0.039597 -0.011820 0.041196
v -0.008435 -0.004740 0.053939
v -0.027558 -0.034476 0.051105
v 0.022008 -0.014659 0.052521
v -0.021893 -0.003323 0.050399
v 0.008549 -0.001906 0.042612
v -0.010561 0.004470 0.032698
v -0.037470 -0.008282 0.039071
v 0.021301 -0.009699 0.032698
v -0.016227 -0.047228 0.033407
v 0.005010 -0.038726 0.049689
v -0.023312 -0.046520 0.033407
v 0.022008 -0.020316 0.053939
v -0.009141 0.002340 0.041196
v 0.007843 -0.035893 0.053939
v -0.038177 -0.013237 0.032698
v -0.038177 -0.015362 0.045442
v 0.027673 -0.027396 0.036948
v 0.002177 -0.005449 0.053939
v -0.038890 -0.021030 0.032698
v 0.026260 -0.017487 0.046858
v -0.017647 -0.047228 0.034116
v -0.036057 -0.010403 0.048273
f 231 205 237 
f 174 180 181 
f 174 181 183 
f 178 182 184 
f 178 184 186 
f 180 174 187 
f 186 184 188 
f 178 186 194 
f 184 182 195 
f 177 188 198 
f 188 184 198 
f 196 190 198 
f 183 181 199 
f 189 195 200 
f 174 183 201 
f 194 174 201 
f 191 178 203 
f 183 191 203 
f 192 176 204 
f 191 183 205 
f 183 199 205 
f 181 180 207 
f 184 193 208 
f 196 184 208 
f 190 187 209 
f 185 206 209 
f 206 188 209 
f 178 191 210 
f 191 182 210 
f 185 209 211 
f 209 187 211 
f 186 188 212 
f 206 186 212 
f 188 206 212 
f 197 189 213 
f 179 199 213 
f 175 176 214 
f 176 193 214 
f 193 184 214 
f 184 195 214 
f 182 191 215 
f 200 182 215 
f 204 181 216 
f 192 204 216 
f 181 207 216 
f 201 183 217 
f 183 203 217 
f 207 180 218 
f 193 207 218 
f 208 193 218 
f 199 181 219 
f 181 204 219 
f 204 197 219 
f 197 213 219 
f 213 199 219 
f 176 192 220 
f 193 176 220 
f 192 207 220 
f 207 193 220 
f 195 189 221 
f 189 197 221 
f 175 214 221 
f 214 195 221 
f 189 200 222 
f 213 189 222 
f 179 213 222 
f 215 179 222 
f 200 215 222 
f 184 196 223 
f 198 184 223 
f 196 198 223 
f 194 186 224 
f 206 185 224 
f 186 206 224 
f 202 224 225 
f 224 185 225 
f 178 194 226 
f 194 201 226 
f 203 178 226 
f 201 217 226 
f 217 203 226 
f 180 187 227 
f 187 190 227 
f 218 180 227 
f 190 218 227 
f 176 175 228 
f 204 176 228 
f 197 204 228 
f 175 221 228 
f 221 197 228 
f 187 174 229 
f 174 202 229 
f 211 187 229 
f 185 211 229 
f 202 225 229 
f 225 185 229 
f 195 182 230 
f 182 200 230 
f 200 195 230 
f 191 205 231 
f 215 191 231 
f 179 215 231 
f 188 177 232 
f 177 198 232 
f 198 190 232 
f 209 188 232 
f 190 209 232 
f 207 192 233 
f 192 216 233 
f 216 207 233 
f 182 178 234 
f 178 210 234 
f 210 182 234 
f 190 196 235 
f 196 208 235 
f 218 190 235 
f 208 218 235 
f 174 194 236 
f 202 174 236 
f 194 224 236 
f 224 202 236 
f 199 179 237 
f 205 199 237 
f 179 231 237 
o convex_4
v -0.031803 -0.021017 -0.011921
v 0.029089 0.027841 -0.007671
v 0.034045 0.020047 -0.007671
v 0.034758 0.018632 -0.016170
v -0.024015 0.027835 -0.016170
v 0.024132 -0.027395 -0.016170
v 0.022713 -0.028810 -0.007671
v -0.024721 0.022173 -0.007671
v -0.037472 -0.011808 -0.016170
v -0.033928 -0.015355 -0.007671
v 0.033339 -0.023143 -0.014045
v 0.024845 0.027841 -0.016170
v -0.033928 0.017211 -0.014045
v -0.024015 -0.025263 -0.009796
v 0.004306 -0.027395 -0.016170
v -0.014815 0.027835 -0.007671
v 0.011387 -0.030231 -0.008380
v -0.027552 -0.021728 -0.015461
v 0.036170 0.015085 -0.009088
v -0.036053 0.006587 -0.011921
v 0.033339 -0.023143 -0.016170
v 0.025551 -0.025269 -0.007671
v -0.033928 0.017921 -0.016170
v -0.019058 -0.023854 -0.007671
v -0.025434 0.027835 -0.012629
v 0.036884 0.015085 -0.011921
v -0.033222 -0.002611 -0.007671
v 0.029089 0.027841 -0.014753
v -0.033928 0.013669 -0.011213
v 0.034758 0.013669 -0.007671
v -0.024015 -0.025263 -0.011213
v 0.010674 -0.030231 -0.009796
v 0.035464 0.008712 -0.016170
v -0.034634 -0.016066 -0.016170
v -0.036759 0.003756 -0.016170
v -0.029677 -0.020312 -0.007671
v -0.034634 -0.017476 -0.009796
v 0.020595 -0.028106 -0.016170
v -0.034634 -0.013940 -0.008380
v -0.033928 -0.018897 -0.014045
v -0.023309 0.024293 -0.007671
f 262 266 278 
f 242 241 243 
f 240 239 244 
f 244 239 245 
f 242 243 246 
f 244 245 247 
f 241 242 249 
f 246 243 252 
f 245 239 253 
f 243 241 258 
f 244 243 258 
f 248 244 258 
f 240 244 259 
f 244 248 259 
f 242 246 260 
f 257 250 260 
f 244 247 261 
f 254 244 261 
f 251 254 261 
f 239 249 262 
f 249 242 262 
f 253 239 262 
f 242 260 262 
f 260 250 262 
f 241 240 263 
f 240 256 263 
f 256 248 263 
f 248 258 263 
f 247 245 264 
f 239 240 265 
f 240 241 265 
f 249 239 265 
f 241 249 265 
f 250 257 266 
f 262 250 266 
f 264 245 266 
f 257 264 266 
f 256 240 267 
f 248 256 267 
f 240 259 267 
f 259 248 267 
f 251 238 268 
f 238 255 268 
f 255 252 268 
f 244 254 269 
f 254 251 269 
f 251 268 269 
f 268 252 269 
f 258 241 270 
f 241 263 270 
f 263 258 270 
f 246 252 271 
f 252 255 271 
f 246 257 272 
f 260 246 272 
f 257 260 272 
f 238 251 273 
f 261 247 273 
f 251 261 273 
f 238 273 274 
f 273 247 274 
f 243 244 275 
f 252 243 275 
f 244 269 275 
f 269 252 275 
f 257 246 276 
f 247 264 276 
f 264 257 276 
f 246 274 276 
f 274 247 276 
f 255 238 277 
f 246 271 277 
f 271 255 277 
f 274 246 277 
f 238 274 277 
f 245 253 278 
f 253 262 278 
f 266 245 278 
o convex_5
v 0.031219 -0.006160 0.012866
v -0.034643 -0.010400 0.014284
v -0.034643 -0.010400 0.014991
v -0.013394 -0.043681 0.021365
v 0.004310 0.013668 0.021365
v -0.003478 0.022874 0.012866
v -0.029679 0.002335 0.021365
v -0.007727 -0.030932 0.012866
v 0.029092 -0.004737 0.021365
v 0.014928 -0.033764 0.020656
v 0.016346 0.018626 0.014284
v 0.009970 -0.033059 0.013576
v -0.024018 -0.042258 0.020656
v -0.031097 0.003046 0.012866
v 0.029801 -0.016768 0.012866
v -0.026848 -0.023142 0.012866
v -0.033927 -0.018895 0.021365
v -0.016224 0.020042 0.013576
v -0.016224 -0.040843 0.017115
v -0.009145 0.013668 0.021365
v 0.026262 0.003046 0.021365
v 0.023425 0.012963 0.012866
v 0.024134 -0.019600 0.021365
v 0.014219 0.013668 0.020656
v 0.004310 0.023591 0.013576
v 0.029801 0.003046 0.016408
v -0.033218 -0.002617 0.020656
v 0.022716 -0.024565 0.012866
v 0.003594 -0.037307 0.015700
v -0.033927 -0.011816 0.012866
v -0.029679 0.004462 0.019947
v 0.015631 -0.033059 0.021365
v -0.023309 0.013668 0.012866
v -0.011272 0.021458 0.014284
v -0.031097 -0.024558 0.017115
v 0.029801 -0.016768 0.014284
v -0.017649 0.010132 0.021365
v -0.021891 -0.043681 0.021365
v -0.016224 -0.043681 0.019238
v 0.028383 -0.011105 0.021365
v -0.021181 -0.041554 0.018530
v 0.010679 0.021458 0.012866
v 0.009970 -0.031643 0.012866
v 0.030510 -0.013936 0.014991
v -0.031806 0.002335 0.017115
v -0.033927 -0.004033 0.019238
v -0.017649 -0.038722 0.016408
v -0.031097 -0.017479 0.012866
v 0.002182 -0.033764 0.013576
v 0.024843 -0.023149 0.014284
v 0.014928 0.015084 0.019238
v 0.023425 0.012963 0.013576
v 0.029801 0.003046 0.014991
v 0.014928 0.012252 0.021365
f 329 302 332 
f 282 283 285 
f 284 279 286 
f 283 282 287 
f 284 286 292 
f 286 279 293 
f 292 286 294 
f 281 280 295 
f 282 285 295 
f 285 283 298 
f 283 287 299 
f 279 284 300 
f 287 282 301 
f 298 283 303 
f 283 302 303 
f 287 279 304 
f 299 287 304 
f 295 285 305 
f 288 290 306 
f 286 293 306 
f 288 282 307 
f 290 288 307 
f 280 292 308 
f 292 294 308 
f 295 280 308 
f 305 285 309 
f 282 288 310 
f 301 282 310 
f 284 292 311 
f 296 284 311 
f 309 296 311 
f 284 296 312 
f 303 284 312 
f 298 303 312 
f 291 295 313 
f 295 308 313 
f 301 310 314 
f 285 298 315 
f 296 309 315 
f 309 285 315 
f 312 296 315 
f 298 312 315 
f 282 295 316 
f 295 291 316 
f 307 282 317 
f 297 307 317 
f 282 316 317 
f 287 301 318 
f 301 314 318 
f 291 294 319 
f 316 291 319 
f 297 317 319 
f 317 316 319 
f 289 300 320 
f 300 284 320 
f 284 303 320 
f 303 289 320 
f 286 306 321 
f 306 290 321 
f 279 287 322 
f 293 279 322 
f 314 293 322 
f 287 318 322 
f 318 314 322 
f 305 309 323 
f 311 292 323 
f 309 311 323 
f 280 281 324 
f 292 280 324 
f 281 295 324 
f 295 305 324 
f 323 292 324 
f 305 323 324 
f 294 286 325 
f 286 297 325 
f 319 294 325 
f 297 319 325 
f 294 291 326 
f 308 294 326 
f 291 313 326 
f 313 308 326 
f 297 286 327 
f 290 307 327 
f 307 297 327 
f 321 290 327 
f 286 321 327 
f 288 306 328 
f 306 293 328 
f 310 288 328 
f 293 314 328 
f 314 310 328 
f 299 289 329 
f 289 303 329 
f 303 302 329 
f 289 299 330 
f 300 289 330 
f 299 304 330 
f 304 300 330 
f 279 300 331 
f 304 279 331 
f 300 304 331 
f 283 299 332 
f 302 283 332 
f 299 329 332 
o convex_6
v -0.013397 -0.043684 0.021365
v 0.004305 0.013677 0.022073
v 0.009263 0.012959 0.023491
v -0.038892 -0.016068 0.032696
v 0.023425 -0.030935 0.032696
v 0.029095 -0.007577 0.021365
v -0.029681 0.001633 0.021365
v -0.009144 0.005173 0.032696
v -0.021183 -0.047936 0.032696
v 0.018467 -0.004742 0.032696
v -0.024724 -0.040850 0.021365
v 0.014221 -0.034475 0.021365
v -0.020478 0.009425 0.027030
v -0.034639 -0.013952 0.021365
v 0.019172 -0.035181 0.027737
v 0.026965 0.000927 0.023491
v -0.009144 0.013677 0.021365
v 0.026260 -0.022437 0.032696
v -0.038892 -0.019603 0.029863
v -0.033927 -0.006871 0.032696
v -0.013397 -0.045807 0.023491
v -0.026141 -0.043684 0.025615
v -0.016232 -0.047936 0.031987
v 0.017049 0.009425 0.021365
v 0.010674 0.000921 0.032696
v -0.009144 0.010842 0.028445
v 0.022007 -0.030935 0.025615
v -0.026846 -0.042973 0.031987
v -0.036057 -0.021732 0.024906
v 0.018467 -0.035181 0.032696
v -0.019060 0.008007 0.029863
v 0.021302 0.002338 0.027030
v -0.027559 0.005173 0.022073
v -0.019060 -0.046513 0.024197
v -0.038180 -0.013246 0.029863
v 0.025548 -0.025266 0.028445
v -0.004193 0.005173 0.032696
v 0.026965 -0.013945 0.021365
v 0.026965 -0.001202 0.024906
v -0.028969 0.003762 0.023491
v -0.033927 -0.019603 0.021365
v 0.011386 0.012959 0.022781
v -0.024724 0.007302 0.025615
v -0.022601 -0.043684 0.021365
v -0.015520 0.003762 0.032696
v 0.029095 -0.005448 0.022781
v -0.036057 -0.008288 0.030569
v 0.026965 0.000927 0.022073
v -0.012685 0.011548 0.027030
v -0.023306 -0.047225 0.030569
v 0.024137 -0.016068 0.032696
v -0.037468 -0.021014 0.032696
v -0.016232 -0.047936 0.030569
v 0.011386 0.012959 0.021365
v 0.015632 -0.035181 0.023491
v -0.034639 -0.012528 0.021365
v 0.022719 0.005173 0.022781
v -0.026846 -0.042973 0.026324
v -0.024018 -0.045102 0.024197
v 0.022007 -0.033058 0.029154
v 0.017049 -0.030935 0.021365
v -0.024018 -0.046513 0.032696
f 390 382 394 
f 338 333 339 
f 336 337 340 
f 337 336 341 
f 340 337 342 
f 339 333 343 
f 333 338 344 
f 339 343 346 
f 338 339 349 
f 342 337 350 
f 336 340 352 
f 333 344 353 
f 338 349 356 
f 340 342 357 
f 351 346 361 
f 343 354 361 
f 337 341 362 
f 341 355 362 
f 355 347 362 
f 340 358 363 
f 357 342 364 
f 349 339 365 
f 333 353 366 
f 351 336 367 
f 350 337 368 
f 338 350 368 
f 357 335 369 
f 340 357 369 
f 335 358 369 
f 358 340 369 
f 344 338 370 
f 338 368 370 
f 368 359 370 
f 364 342 371 
f 348 364 371 
f 365 339 372 
f 346 343 373 
f 343 361 373 
f 361 346 373 
f 334 335 374 
f 335 357 374 
f 357 364 374 
f 345 349 375 
f 352 363 375 
f 363 345 375 
f 349 365 375 
f 372 352 375 
f 365 372 375 
f 343 333 376 
f 333 366 376 
f 352 340 377 
f 340 363 377 
f 363 352 377 
f 350 338 378 
f 348 371 378 
f 371 350 378 
f 336 352 379 
f 339 367 379 
f 367 336 379 
f 352 372 379 
f 372 339 379 
f 338 356 380 
f 378 338 380 
f 348 378 380 
f 335 334 381 
f 334 349 381 
f 349 345 381 
f 358 335 381 
f 345 363 381 
f 363 358 381 
f 366 341 382 
f 342 350 383 
f 350 371 383 
f 371 342 383 
f 341 336 384 
f 336 351 384 
f 351 360 384 
f 353 347 385 
f 355 341 385 
f 347 355 385 
f 366 353 385 
f 341 366 385 
f 349 334 386 
f 356 349 386 
f 334 374 386 
f 374 356 386 
f 353 344 387 
f 347 353 387 
f 344 359 387 
f 359 347 387 
f 339 346 388 
f 346 351 388 
f 367 339 388 
f 351 367 388 
f 364 348 389 
f 356 374 389 
f 374 364 389 
f 348 380 389 
f 380 356 389 
f 360 351 390 
f 351 361 390 
f 361 354 390 
f 354 382 390 
f 354 343 391 
f 343 376 391 
f 376 366 391 
f 382 354 391 
f 366 382 391 
f 347 359 392 
f 337 362 392 
f 362 347 392 
f 368 337 392 
f 359 368 392 
f 359 344 393 
f 344 370 393 
f 370 359 393 
f 382 341 394 
f 341 384 394 
f 384 360 394 
f 360 390 394 
o convex_7
v -0.019773 -0.035895 0.054653
v -0.026144 -0.016777 0.077310
v -0.027559 -0.016777 0.077310
v -0.014815 -0.006153 0.053944
v -0.034640 -0.013235 0.058903
v -0.014105 -0.031646 0.065978
v -0.036055 -0.020318 0.068812
v -0.031809 -0.023853 0.053944
v -0.014105 -0.018198 0.070228
v -0.031102 -0.006153 0.058903
v -0.014105 -0.037313 0.053944
v -0.033222 -0.013943 0.076601
v -0.024023 -0.009694 0.069519
v -0.028269 -0.021029 0.076601
v -0.030390 -0.008986 0.053944
v -0.020483 -0.033772 0.061026
v -0.027559 -0.030936 0.053944
v -0.036767 -0.015361 0.063860
v -0.014105 -0.006153 0.054653
v -0.020483 -0.021029 0.075185
v -0.020483 -0.013235 0.072351
v -0.033932 -0.023148 0.067394
v -0.014815 -0.035187 0.061735
v -0.031809 -0.020318 0.075185
v -0.033932 -0.011820 0.071644
v -0.028974 -0.006864 0.062442
v -0.036055 -0.020318 0.064567
v -0.021898 -0.034480 0.057485
v -0.025436 -0.011820 0.073769
v -0.033932 -0.009694 0.058903
v -0.014105 -0.013235 0.065276
v -0.022608 -0.016777 0.075892
v -0.014815 -0.021029 0.070935
v -0.027559 -0.006153 0.056069
v -0.030390 -0.008279 0.065978
v -0.017648 -0.036600 0.056778
v -0.028974 -0.029523 0.053944
v -0.032515 -0.012528 0.055362
v -0.024023 -0.006864 0.061735
v -0.036767 -0.016777 0.066687
f 421 401 434 
f 402 398 405 
f 403 400 405 
f 397 396 406 
f 396 397 408 
f 397 406 408 
f 398 402 409 
f 405 395 411 
f 402 405 411 
f 399 402 412 
f 398 404 413 
f 405 398 413 
f 403 405 413 
f 396 408 414 
f 408 400 414 
f 413 407 415 
f 405 400 417 
f 400 408 417 
f 408 410 417 
f 406 401 418 
f 408 406 418 
f 410 408 418 
f 401 416 418 
f 416 410 418 
f 412 402 421 
f 416 401 421 
f 411 395 422 
f 410 416 422 
f 416 411 422 
f 406 396 423 
f 415 407 423 
f 404 409 424 
f 399 412 424 
f 419 404 424 
f 412 419 424 
f 403 413 425 
f 415 403 425 
f 413 415 425 
f 396 414 426 
f 414 403 426 
f 403 415 426 
f 423 396 426 
f 415 423 426 
f 400 403 427 
f 403 414 427 
f 414 400 427 
f 404 398 428 
f 398 409 428 
f 409 404 428 
f 404 419 429 
f 419 406 429 
f 407 420 429 
f 420 404 429 
f 406 423 429 
f 423 407 429 
f 395 405 430 
f 405 417 430 
f 417 410 430 
f 422 395 430 
f 410 422 430 
f 402 411 431 
f 411 416 431 
f 421 402 431 
f 416 421 431 
f 402 399 432 
f 409 402 432 
f 399 424 432 
f 424 409 432 
f 413 404 433 
f 407 413 433 
f 420 407 433 
f 404 420 433 
f 401 406 434 
f 406 419 434 
f 419 412 434 
f 412 421 434 
o convex_8
v -0.041723 -0.011818 -0.038121
v 0.029800 0.027841 -0.029621
v 0.029800 0.027841 -0.031747
v 0.032635 -0.011815 -0.029621
v -0.036766 0.010131 -0.016170
v 0.025547 -0.011815 -0.016170
v -0.007727 0.027130 -0.040956
v 0.036879 -0.008274 -0.040956
v 0.024843 0.027841 -0.016170
v -0.037470 -0.011818 -0.016170
v -0.024721 0.027841 -0.026794
v -0.042427 0.006598 -0.040956
v 0.036879 0.013675 -0.018296
v 0.021295 0.027841 -0.040956
v -0.024016 0.027841 -0.016170
v 0.009971 -0.011815 -0.041665
v -0.044549 0.003768 -0.023252
v 0.039010 -0.001900 -0.040956
v 0.036175 -0.004023 -0.021840
v -0.046680 -0.009691 -0.029621
v -0.037470 -0.011818 -0.040956
v -0.039592 0.013671 -0.028917
v -0.028269 0.023590 -0.033874
v 0.014928 0.017922 -0.041665
v 0.033339 0.021466 -0.016170
v 0.029095 0.025007 -0.039539
v 0.029095 -0.011815 -0.041665
v -0.043140 -0.010401 -0.019005
v -0.038888 0.012254 -0.017587
v -0.045262 0.005891 -0.034582
v 0.034044 0.001645 -0.016170
v -0.034635 0.014382 -0.040956
v 0.034757 0.019339 -0.024670
v 0.031922 0.008011 -0.041665
v -0.004187 0.002351 -0.041665
v -0.008432 0.027841 -0.040247
v -0.033226 0.020756 -0.023961
v -0.021894 0.026424 -0.035291
v 0.034044 -0.006147 -0.019007
v -0.044549 -0.011818 -0.025379
v 0.034044 0.022173 -0.019007
v -0.046680 -0.009691 -0.031039
v -0.041723 -0.010401 -0.039539
v -0.039592 -0.009691 -0.016170
v -0.041010 0.008011 -0.018296
v 0.029800 0.026424 -0.019007
v 0.039010 -0.002606 -0.039539
v -0.021894 0.022879 -0.039539
v 0.031922 -0.011815 -0.040247
v -0.043140 0.005185 -0.040247
v 0.035462 0.008718 -0.016170
v 0.034757 -0.004730 -0.041665
v 0.026965 0.027841 -0.038124
v -0.035348 0.014382 -0.040247
v -0.040305 -0.008274 -0.040956
v 0.036175 -0.004730 -0.022544
v -0.045262 -0.006857 -0.023961
v -0.021181 0.027841 -0.032456
v -0.045262 0.005891 -0.033165
v -0.025434 0.027130 -0.017587
v -0.039592 0.013671 -0.029621
v -0.032513 0.021462 -0.025379
f 495 471 496 
f 436 437 443 
f 439 440 443 
f 440 439 444 
f 438 440 444 
f 443 437 445 
f 445 437 448 
f 439 443 449 
f 443 445 449 
f 444 435 455 
f 438 444 455 
f 441 448 458 
f 443 440 459 
f 455 450 461 
f 450 458 461 
f 439 449 463 
f 459 440 465 
f 441 458 466 
f 447 452 467 
f 460 437 467 
f 452 460 467 
f 458 448 468 
f 448 460 468 
f 460 452 468 
f 461 458 468 
f 450 455 469 
f 458 450 469 
f 446 466 469 
f 466 458 469 
f 448 441 470 
f 445 448 470 
f 456 463 471 
f 466 457 472 
f 440 438 473 
f 465 440 473 
f 453 465 473 
f 435 444 474 
f 444 462 474 
f 462 454 474 
f 437 436 475 
f 459 447 475 
f 467 437 475 
f 447 467 475 
f 454 464 476 
f 435 474 476 
f 474 454 476 
f 455 435 477 
f 435 476 477 
f 444 439 478 
f 462 444 478 
f 451 462 479 
f 439 463 479 
f 463 451 479 
f 478 439 479 
f 462 478 479 
f 436 443 480 
f 443 459 480 
f 475 436 480 
f 459 475 480 
f 442 452 481 
f 452 447 481 
f 447 453 481 
f 441 466 482 
f 470 441 482 
f 466 472 482 
f 472 470 482 
f 442 438 483 
f 438 455 483 
f 461 442 483 
f 455 461 483 
f 464 446 484 
f 476 464 484 
f 477 476 484 
f 453 447 485 
f 447 459 485 
f 465 453 485 
f 459 465 485 
f 452 442 486 
f 442 461 486 
f 468 452 486 
f 461 468 486 
f 448 437 487 
f 437 460 487 
f 460 448 487 
f 446 464 488 
f 457 466 488 
f 466 446 488 
f 446 469 489 
f 469 455 489 
f 455 477 489 
f 484 446 489 
f 477 484 489 
f 438 442 490 
f 473 438 490 
f 453 473 490 
f 442 481 490 
f 481 453 490 
f 451 454 491 
f 462 451 491 
f 454 462 491 
f 457 445 492 
f 445 470 492 
f 472 457 492 
f 470 472 492 
f 454 451 493 
f 463 456 493 
f 451 463 493 
f 464 454 493 
f 456 464 493 
f 449 445 494 
f 463 449 494 
f 471 463 494 
f 464 456 495 
f 456 471 495 
f 457 488 495 
f 488 464 495 
f 445 457 496 
f 494 445 496 
f 471 494 496 
f 457 495 496 
o convex_9
v -0.011979 -0.030938 0.068104
v 0.021303 -0.018192 0.054651
v 0.021303 -0.018192 0.053942
v 0.026262 -0.030938 0.068104
v -0.012687 -0.038730 0.053942
v -0.014105 -0.018192 0.068104
v -0.014105 -0.018192 0.053942
v 0.016344 -0.026694 0.074479
v 0.013511 -0.033063 0.053942
v 0.021303 -0.021027 0.066687
v 0.020596 -0.030938 0.073770
v -0.014105 -0.034480 0.063149
v 0.003601 -0.037313 0.055359
v 0.021303 -0.028109 0.053942
v 0.006430 -0.029522 0.073770
v 0.014222 -0.033772 0.068104
v 0.007849 -0.018192 0.063857
v 0.026262 -0.027400 0.063857
v -0.014105 -0.018902 0.068812
v 0.024136 -0.026694 0.070227
v 0.014222 -0.023859 0.072352
v -0.014105 -0.037313 0.053942
v 0.026262 -0.030938 0.065979
v -0.011979 -0.033772 0.065272
v -0.009146 -0.036603 0.060318
v 0.024136 -0.021736 0.061024
v 0.007849 -0.035893 0.053942
v 0.022718 -0.020317 0.054651
v 0.006430 -0.025984 0.073770
v -0.012687 -0.026694 0.068812
v 0.020596 -0.019609 0.063857
v -0.014105 -0.031647 0.066687
v -0.011272 -0.038730 0.054651
v 0.017055 -0.033772 0.065272
v 0.009967 -0.033772 0.068104
v 0.012096 -0.030938 0.073060
f 520 531 532 
f 498 499 502 
f 499 501 503 
f 502 499 503 
f 501 499 505 
f 502 503 508 
f 505 499 510 
f 507 504 511 
f 500 507 512 
f 498 502 513 
f 502 506 513 
f 502 508 515 
f 506 504 516 
f 504 507 516 
f 507 500 516 
f 500 514 516 
f 506 502 517 
f 504 506 517 
f 502 515 517 
f 515 504 517 
f 503 501 518 
f 501 508 518 
f 508 503 518 
f 505 510 519 
f 514 500 519 
f 510 514 519 
f 511 497 520 
f 520 508 521 
f 499 498 522 
f 506 516 522 
f 516 514 522 
f 501 505 523 
f 509 501 523 
f 505 519 523 
f 510 499 524 
f 514 510 524 
f 499 522 524 
f 522 514 524 
f 511 504 525 
f 504 515 525 
f 515 511 525 
f 497 511 526 
f 511 515 526 
f 498 513 527 
f 513 506 527 
f 522 498 527 
f 506 522 527 
f 515 508 528 
f 520 497 528 
f 508 520 528 
f 497 526 528 
f 526 515 528 
f 508 501 529 
f 501 509 529 
f 509 512 529 
f 521 508 529 
f 500 512 530 
f 512 509 530 
f 519 500 530 
f 509 523 530 
f 523 519 530 
f 512 507 531 
f 520 521 531 
f 529 512 531 
f 521 529 531 
f 507 511 532 
f 511 520 532 
f 531 507 532 
o convex_10
v 0.013514 -0.011111 0.056069
v -0.014105 -0.018192 0.053942
v -0.014105 -0.018192 0.067397
v -0.009146 -0.004736 0.054651
v 0.018470 -0.018192 0.053942
v 0.009973 -0.016066 0.065979
v -0.007729 -0.008278 0.064564
v -0.014105 -0.006155 0.053942
v 0.019180 -0.013235 0.053942
v -0.012688 -0.006155 0.061022
v 0.008555 -0.018192 0.065270
v -0.007729 -0.004736 0.056069
v 0.018470 -0.018192 0.056775
v 0.003600 -0.007570 0.053942
v -0.013395 -0.016774 0.067397
v 0.012097 -0.011111 0.057483
v 0.005724 -0.012526 0.063854
v -0.014105 -0.008278 0.060316
v 0.019180 -0.013235 0.054651
v 0.009973 -0.017484 0.065979
f 538 547 552 
f 535 534 537 
f 534 535 540 
f 537 534 540 
f 537 540 541 
f 536 540 542 
f 535 537 543 
f 542 539 544 
f 536 542 544 
f 537 541 545 
f 543 537 545 
f 540 536 546 
f 533 541 546 
f 541 540 546 
f 544 533 546 
f 536 544 546 
f 538 539 547 
f 542 535 547 
f 539 542 547 
f 533 544 548 
f 544 539 548 
f 539 538 549 
f 538 548 549 
f 548 539 549 
f 540 535 550 
f 535 542 550 
f 542 540 550 
f 541 533 551 
f 538 545 551 
f 545 541 551 
f 548 538 551 
f 533 548 551 
f 535 543 552 
f 545 538 552 
f 543 545 552 
f 547 535 552 
o convex_11
v -0.037469 -0.015362 -0.016879
v -0.021893 -0.023854 -0.041665
v -0.021893 -0.021026 -0.041665
v 0.014223 -0.011823 -0.016170
v 0.011386 -0.028812 -0.019007
v 0.014223 -0.011823 -0.041665
v -0.040305 -0.011818 -0.040247
v -0.001358 -0.033062 -0.040956
v -0.026847 -0.028814 -0.031747
v 0.014223 -0.026689 -0.040956
v -0.044557 -0.011818 -0.023961
v 0.004303 -0.027396 -0.016170
v -0.038890 -0.021026 -0.022544
v -0.037469 -0.011818 -0.016170
v -0.031807 -0.025980 -0.035291
v 0.014223 -0.025273 -0.016170
v -0.040305 -0.020319 -0.028917
v -0.024724 -0.021735 -0.016879
v -0.028269 -0.027398 -0.027502
v 0.000057 -0.031644 -0.041665
v -0.017641 -0.028814 -0.040956
v -0.001358 -0.031644 -0.032456
v 0.008555 -0.030228 -0.040247
v -0.036761 -0.019612 -0.038124
v -0.036761 -0.011818 -0.040956
v -0.042429 -0.016778 -0.020422
v -0.044557 -0.012530 -0.030332
v 0.014223 -0.027396 -0.023961
v -0.026140 -0.020319 -0.016170
v 0.013509 -0.026689 -0.041665
v -0.036053 -0.023854 -0.027502
v -0.036761 -0.016778 -0.040247
v -0.024017 -0.025273 -0.021840
v 0.000057 -0.033062 -0.039539
v -0.026847 -0.028814 -0.033874
v -0.042429 -0.013944 -0.035291
v -0.038177 -0.019612 -0.020422
v -0.022601 -0.025980 -0.040956
f 576 584 590 
f 554 555 558 
f 558 556 562 
f 559 563 566 
f 564 556 566 
f 562 556 568 
f 556 564 568 
f 564 557 568 
f 561 564 571 
f 554 558 572 
f 554 572 573 
f 572 560 573 
f 557 564 574 
f 564 561 574 
f 567 569 576 
f 555 554 577 
f 558 555 577 
f 556 558 577 
f 566 556 577 
f 559 566 577 
f 553 566 578 
f 566 563 578 
f 569 565 578 
f 569 578 579 
f 563 559 579 
f 578 563 579 
f 562 568 580 
f 568 557 580 
f 557 575 580 
f 575 562 580 
f 566 553 581 
f 564 566 581 
f 570 564 581 
f 558 562 582 
f 572 558 582 
f 560 572 582 
f 575 560 582 
f 562 575 582 
f 565 569 583 
f 569 567 583 
f 561 571 583 
f 571 565 583 
f 576 559 584 
f 577 554 584 
f 559 577 584 
f 564 570 585 
f 570 565 585 
f 571 564 585 
f 565 571 585 
f 561 560 586 
f 557 574 586 
f 574 561 586 
f 575 557 586 
f 560 575 586 
f 560 561 587 
f 573 560 587 
f 567 573 587 
f 561 583 587 
f 583 567 587 
f 559 576 588 
f 576 569 588 
f 569 579 588 
f 579 559 588 
f 565 570 589 
f 553 578 589 
f 578 565 589 
f 581 553 589 
f 570 581 589 
f 554 573 590 
f 573 567 590 
f 567 576 590 
f 584 554 590 
o convex_12
v 0.031218 -0.030228 -0.023961
v 0.014223 -0.021733 -0.041665
v 0.014223 -0.011818 -0.041665
v 0.014223 -0.011818 -0.016170
v 0.032635 -0.012528 -0.040247
v 0.038300 -0.022440 -0.019711
v 0.015640 -0.026687 -0.016170
v 0.033344 -0.021025 -0.040247
v 0.025555 -0.011818 -0.016170
v 0.018475 -0.029523 -0.029621
v 0.039718 -0.019612 -0.030332
v 0.027674 -0.028104 -0.016170
v 0.033344 -0.011818 -0.029621
v 0.027674 -0.027398 -0.035291
v 0.014223 -0.027398 -0.023961
v 0.027674 -0.030940 -0.019007
v 0.015640 -0.025274 -0.040247
v 0.035465 -0.026687 -0.028917
v 0.029800 -0.011818 -0.041665
v 0.034757 -0.028813 -0.019007
v 0.032635 -0.018195 -0.016170
v 0.034757 -0.015360 -0.022544
v 0.021308 -0.030940 -0.025381
v 0.026970 -0.021733 -0.041665
v 0.039009 -0.023146 -0.028214
v 0.035465 -0.023857 -0.016879
v 0.018475 -0.030228 -0.022544
v 0.026267 -0.024563 -0.040247
v 0.032635 -0.025274 -0.035995
v 0.014223 -0.024563 -0.016170
v 0.033344 -0.014654 -0.040956
v 0.029094 -0.030940 -0.024670
v 0.014223 -0.025982 -0.035995
v 0.024140 -0.028813 -0.032456
v 0.021308 -0.029523 -0.017587
v 0.017764 -0.023857 -0.041665
v 0.038300 -0.023857 -0.019711
v 0.031218 -0.019612 -0.041665
f 609 621 628 
f 593 592 594 
f 593 594 599 
f 594 597 599 
f 599 597 602 
f 593 599 603 
f 601 595 603 
f 594 592 605 
f 592 593 609 
f 593 603 609 
f 603 595 609 
f 602 606 610 
f 591 608 610 
f 599 602 611 
f 596 601 612 
f 603 599 612 
f 601 603 612 
f 599 611 612 
f 611 596 612 
f 592 609 614 
f 598 601 615 
f 610 608 615 
f 602 610 616 
f 611 602 616 
f 596 611 616 
f 597 605 617 
f 605 600 617 
f 600 613 617 
f 613 606 617 
f 604 607 618 
f 598 615 619 
f 615 608 619 
f 618 598 619 
f 604 618 619 
f 597 594 620 
f 594 605 620 
f 605 597 620 
f 601 598 621 
f 595 601 621 
f 609 595 621 
f 608 591 622 
f 591 610 622 
f 610 606 622 
f 606 613 622 
f 604 619 622 
f 619 608 622 
f 605 592 623 
f 600 605 623 
f 592 607 623 
f 607 600 623 
f 607 604 624 
f 600 607 624 
f 613 600 624 
f 604 622 624 
f 622 613 624 
f 602 597 625 
f 606 602 625 
f 597 617 625 
f 617 606 625 
f 607 592 626 
f 592 614 626 
f 618 607 626 
f 614 618 626 
f 601 596 627 
f 615 601 627 
f 610 615 627 
f 596 616 627 
f 616 610 627 
f 614 609 628 
f 598 618 628 
f 618 614 628 
f 621 598 628 
