o convex_0
v 0.023428 0.016190 -0.019535
v -0.012814 -0.036071 -0.032770
v 0.033881 -0.042353 -0.037650
v 0.003218 -0.034680 -0.006986
v -0.012814 0.021069 -0.041137
v -0.012814 0.021069 -0.006986
v 0.024818 0.000856 -0.006986
v 0.035276 -0.005421 -0.039740
v -0.012814 -0.033979 -0.008380
v -0.011419 -0.023530 -0.041137
v 0.039455 -0.037468 -0.030684
v 0.010186 0.021069 -0.039743
v 0.013670 0.021069 -0.006986
v 0.037365 -0.035382 -0.041137
v 0.020639 -0.021444 -0.006986
v 0.035276 -0.005421 -0.029985
v 0.019244 0.021069 -0.026495
v -0.006540 -0.037474 -0.017443
v 0.028302 0.000160 -0.041137
v 0.024123 0.008523 -0.006986
v 0.040155 -0.025622 -0.034164
v -0.010719 -0.031899 -0.038349
v 0.035276 -0.042353 -0.033468
v 0.032486 -0.040261 -0.040438
v 0.030397 -0.020047 -0.014658
v -0.012814 -0.032588 -0.006986
v 0.031786 0.001551 -0.037647
v 0.040155 -0.036772 -0.038346
v -0.010025 -0.037474 -0.025101
v -0.012814 -0.026318 -0.040438
v 0.038760 -0.038864 -0.030684
v -0.003751 -0.036071 -0.009774
v 0.034576 -0.001938 -0.032074
v 0.003918 0.021069 -0.041137
v 0.019939 0.018977 -0.013261
v 0.040155 -0.031893 -0.032074
v 0.008097 -0.031899 -0.006986
v -0.012814 -0.035382 -0.034859
v 0.024818 0.012701 -0.014658
v 0.038760 -0.025622 -0.040438
v 0.024818 0.005034 -0.006986
v 0.026907 0.009913 -0.032770
v 0.020639 0.015488 -0.006986
v 0.034576 -0.008904 -0.041137
v 0.038060 -0.014472 -0.037650
v 0.032486 -0.042353 -0.033468
v 0.019244 -0.024232 -0.007685
v 0.023428 -0.012374 -0.006986
v 0.031786 -0.038169 -0.041137
v 0.018549 0.020368 -0.029985
v -0.012814 -0.036071 -0.016744
v 0.037365 -0.040957 -0.038346
v 0.035276 -0.040957 -0.030684
v 0.024818 0.014098 -0.027889
v 0.040155 -0.027013 -0.038346
v 0.034576 -0.001938 -0.036952
v 0.019244 0.021069 -0.020234
v 0.040155 -0.038864 -0.034164
v 0.030397 -0.015857 -0.014658
v 0.028997 0.001551 -0.040438
v -0.005840 -0.029105 -0.040438
v -0.010025 -0.037474 -0.020929
v 0.001828 -0.036071 -0.009774
v -0.011419 -0.035382 -0.010476
f 51 62 64 
f 5 2 6 
f 6 4 7 
f 6 2 9 
f 5 6 12 
f 6 7 13 
f 12 6 13 
f 10 5 14 
f 7 4 15 
f 12 13 17 
f 14 5 19 
f 13 7 20 
f 4 6 26 
f 9 4 26 
f 6 9 26 
f 2 3 29 
f 2 5 30 
f 5 10 30 
f 25 15 31 
f 11 25 31 
f 4 9 32 
f 5 12 34 
f 19 5 34 
f 12 19 34 
f 28 21 36 
f 15 4 37 
f 3 2 38 
f 24 3 38 
f 22 24 38 
f 2 30 38 
f 30 22 38 
f 20 16 39 
f 33 1 39 
f 16 33 39 
f 1 35 39 
f 28 14 40 
f 20 7 41 
f 16 20 41 
f 21 16 41 
f 7 25 41 
f 36 21 41 
f 13 20 43 
f 35 13 43 
f 20 39 43 
f 39 35 43 
f 14 19 44 
f 8 40 44 
f 40 14 44 
f 16 21 45 
f 33 16 45 
f 3 23 46 
f 29 3 46 
f 32 18 46 
f 23 32 46 
f 31 15 47 
f 15 37 47 
f 37 31 47 
f 7 15 48 
f 25 7 48 
f 15 25 48 
f 10 14 49 
f 14 24 49 
f 12 17 50 
f 27 12 50 
f 17 42 50 
f 42 27 50 
f 9 2 51 
f 2 29 51 
f 23 3 52 
f 3 24 52 
f 24 14 52 
f 14 28 52 
f 4 23 53 
f 23 31 53 
f 37 4 53 
f 31 37 53 
f 17 1 54 
f 1 33 54 
f 42 17 54 
f 21 28 55 
f 40 8 55 
f 28 40 55 
f 45 21 55 
f 8 45 55 
f 8 27 56 
f 27 42 56 
f 33 45 56 
f 45 8 56 
f 54 33 56 
f 42 54 56 
f 1 17 57 
f 17 13 57 
f 35 1 57 
f 13 35 57 
f 31 23 58 
f 11 31 58 
f 36 11 58 
f 28 36 58 
f 23 52 58 
f 52 28 58 
f 25 11 59 
f 11 36 59 
f 41 25 59 
f 36 41 59 
f 19 12 60 
f 27 8 60 
f 12 27 60 
f 8 44 60 
f 44 19 60 
f 24 22 61 
f 30 10 61 
f 22 30 61 
f 10 49 61 
f 49 24 61 
f 29 46 62 
f 46 18 62 
f 51 29 62 
f 23 4 63 
f 4 32 63 
f 32 23 63 
f 32 9 64 
f 18 32 64 
f 9 51 64 
f 62 18 64 
o convex_1
v -0.020478 0.021069 -0.032071
v 0.005303 0.052432 -0.017443
v 0.005303 0.052432 -0.018139
v 0.018549 0.021069 -0.026505
v -0.021871 0.021069 -0.012562
v -0.014900 0.041279 -0.036952
v -0.022567 0.049639 -0.020928
v 0.010181 0.026648 -0.040435
v 0.015760 0.021069 -0.012562
v -0.019082 0.046854 -0.012562
v 0.007396 0.046154 -0.031378
v 0.017848 0.035710 -0.012562
v -0.013508 0.021069 -0.041137
v -0.024660 0.032223 -0.034166
v -0.026753 0.027348 -0.012562
v 0.016456 0.035013 -0.032071
v -0.007933 0.049639 -0.029288
v 0.003215 0.035710 -0.040435
v 0.005303 0.050339 -0.012562
v -0.019778 0.034313 -0.039741
v 0.010181 0.021069 -0.039741
v 0.012970 0.046154 -0.020928
v -0.026753 0.038489 -0.016047
v -0.025356 0.022466 -0.026505
v -0.014204 0.052432 -0.020229
v -0.024660 0.037792 -0.033467
v -0.016993 0.045461 -0.032771
v 0.011578 0.038489 -0.035559
v 0.017848 0.038489 -0.016047
v -0.017689 0.023860 -0.040435
v 0.008789 0.050339 -0.014654
v -0.022567 0.049639 -0.023017
v -0.005144 0.051733 -0.014654
v 0.015064 0.028041 -0.035559
v 0.018549 0.031526 -0.012562
v -0.002364 0.041279 -0.036952
v -0.011419 0.030135 -0.041137
v 0.008093 0.024560 -0.041137
v 0.010877 0.046854 -0.025809
v -0.026052 0.036404 -0.012562
v 0.006004 0.046854 -0.031378
v 0.017848 0.021069 -0.016746
v -0.025356 0.023163 -0.012562
v -0.026052 0.034313 -0.025112
v 0.003911 0.051733 -0.021627
v -0.016292 0.049639 -0.027193
v -0.010723 0.037098 -0.039741
v -0.013508 0.052432 -0.021627
v -0.024660 0.030135 -0.034166
v 0.013667 0.044064 -0.025112
v 0.017152 0.032223 -0.031378
v 0.018549 0.034313 -0.016047
v 0.005303 0.036404 -0.039741
v -0.021871 0.030829 -0.038348
v -0.011419 0.043367 -0.035559
v -0.019082 0.042673 -0.034166
v 0.004607 0.021069 -0.041137
v -0.017689 0.033617 -0.040435
v 0.017848 0.021069 -0.028586
v 0.004607 0.030135 -0.041137
v -0.006541 0.050339 -0.027890
v 0.008789 0.046854 -0.029288
v -0.018385 0.021769 -0.037649
v 0.006700 0.033617 -0.040435
f 102 124 128 
f 65 68 69 
f 69 68 73 
f 69 73 74 
f 74 73 76 
f 68 65 77 
f 69 74 79 
f 74 76 83 
f 68 77 85 
f 65 69 88 
f 66 67 89 
f 71 74 89 
f 67 66 95 
f 66 83 95 
f 83 76 95 
f 86 67 95 
f 76 93 95 
f 93 86 95 
f 87 71 96 
f 71 89 96 
f 90 87 96 
f 83 66 97 
f 74 83 97 
f 66 89 97 
f 89 74 97 
f 85 72 98 
f 72 92 98 
f 92 80 98 
f 76 73 99 
f 72 85 102 
f 77 101 102 
f 67 86 103 
f 74 71 104 
f 79 74 104 
f 71 87 104 
f 87 79 104 
f 73 68 106 
f 68 99 106 
f 99 73 106 
f 69 79 107 
f 79 88 107 
f 88 69 107 
f 79 87 108 
f 88 79 108 
f 90 78 108 
f 87 90 108 
f 81 91 110 
f 91 96 110 
f 70 100 111 
f 100 82 111 
f 89 67 112 
f 96 89 112 
f 67 109 112 
f 81 110 112 
f 110 96 112 
f 88 108 113 
f 108 78 113 
f 80 92 114 
f 93 80 114 
f 86 93 114 
f 103 86 114 
f 80 93 115 
f 98 80 115 
f 93 76 116 
f 99 68 116 
f 76 99 116 
f 68 115 116 
f 115 93 116 
f 75 92 117 
f 82 100 117 
f 105 75 117 
f 100 105 117 
f 90 84 118 
f 78 90 118 
f 84 94 118 
f 113 78 118 
f 94 113 118 
f 70 91 119 
f 91 81 119 
f 100 70 119 
f 81 105 119 
f 105 100 119 
f 70 84 120 
f 84 90 120 
f 91 70 120 
f 90 96 120 
f 96 91 120 
f 85 77 121 
f 77 102 121 
f 102 85 121 
f 84 70 122 
f 77 94 122 
f 94 84 122 
f 101 77 122 
f 82 101 122 
f 70 111 122 
f 111 82 122 
f 68 85 123 
f 85 98 123 
f 115 68 123 
f 98 115 123 
f 101 82 124 
f 102 101 124 
f 105 81 125 
f 109 105 125 
f 112 109 125 
f 81 112 125 
f 92 75 126 
f 67 103 126 
f 75 105 126 
f 109 67 126 
f 105 109 126 
f 114 92 126 
f 103 114 126 
f 77 65 127 
f 65 88 127 
f 94 77 127 
f 113 94 127 
f 88 113 127 
f 92 72 128 
f 72 102 128 
f 82 117 128 
f 117 92 128 
f 124 82 128 
o convex_2
v -0.024661 0.021069 -0.009774
v -0.000273 0.053129 -0.007684
v -0.000273 0.053129 -0.009077
v 0.015753 0.021069 -0.011865
v 0.012272 0.021069 -0.006986
v -0.019083 0.046856 -0.012562
v -0.023267 0.041276 -0.006986
v 0.015753 0.044066 -0.012562
v 0.023428 0.042673 -0.006986
v -0.026056 0.023859 -0.012562
v -0.024661 0.021769 -0.006986
v -0.012813 0.051733 -0.006986
v 0.015753 0.021069 -0.012562
v 0.006002 0.049640 -0.012562
v -0.026753 0.035706 -0.009774
v 0.018547 0.032922 -0.012562
v -0.022569 0.021069 -0.012562
v 0.010878 0.049640 -0.006986
v -0.026056 0.036406 -0.012562
v -0.010722 0.049640 -0.012562
v -0.027450 0.029439 -0.008380
v 0.023428 0.040583 -0.006986
v 0.021336 0.043366 -0.009077
v 0.015753 0.025253 -0.006986
v 0.010878 0.049640 -0.008380
v -0.023267 0.021069 -0.006986
f 133 139 154 
f 129 132 133 
f 135 133 137 
f 134 136 138 
f 133 135 139 
f 138 129 139 
f 130 131 140 
f 134 135 140 
f 135 137 140 
f 132 129 141 
f 138 136 141 
f 136 134 142 
f 135 134 143 
f 141 136 144 
f 129 138 145 
f 141 129 145 
f 138 141 145 
f 131 130 146 
f 130 140 146 
f 140 137 146 
f 134 138 147 
f 143 134 147 
f 140 131 148 
f 134 140 148 
f 131 142 148 
f 142 134 148 
f 139 135 149 
f 138 139 149 
f 135 143 149 
f 147 138 149 
f 143 147 149 
f 137 133 150 
f 132 141 150 
f 144 137 150 
f 141 144 150 
f 136 142 151 
f 144 136 151 
f 137 144 151 
f 133 132 152 
f 132 150 152 
f 150 133 152 
f 142 131 153 
f 131 146 153 
f 146 137 153 
f 151 142 153 
f 137 151 153 
f 129 133 154 
f 139 129 154 
o convex_3
v 0.003909 0.020373 0.039013
v -0.023965 0.009221 -0.006986
v -0.023965 0.009221 -0.006288
v 0.023427 0.009221 -0.006982
v -0.022571 0.020373 -0.006986
v -0.005847 0.009221 0.028558
v 0.014368 0.020373 -0.006982
v 0.022033 0.019674 0.033430
v -0.017690 0.020373 0.023672
v 0.024822 0.020373 0.011835
v 0.004607 0.009221 0.024375
v 0.020638 0.018280 0.035523
v -0.021176 0.015492 0.013929
v -0.011415 0.009221 0.024375
v -0.012112 0.019674 0.031341
v 0.024822 0.020373 0.025766
v 0.001818 0.016191 0.036919
v 0.019244 0.009221 0.003474
v -0.022571 0.020373 0.004865
v 0.013671 0.016886 0.036915
v 0.021335 0.014102 -0.006982
v 0.019244 0.015492 0.029251
v -0.003058 0.018280 0.036919
v -0.017690 0.018280 0.023672
v 0.000428 0.010615 0.030647
v 0.012973 0.020373 0.038311
v -0.020474 0.009221 0.004167
v 0.024822 0.019674 0.025766
v -0.007929 0.020373 0.034132
v -0.007237 0.009920 0.028558
v -0.021869 0.017585 0.011137
v -0.023965 0.013403 -0.006288
v 0.020638 0.020373 0.035523
v 0.016455 0.018979 -0.006982
v 0.023427 0.009221 -0.006284
v 0.003212 0.009221 0.025771
f 174 179 190 
f 157 156 158 
f 158 156 159 
f 157 158 160 
f 159 155 161 
f 155 159 163 
f 161 155 164 
f 160 158 165 
f 157 160 168 
f 164 155 170 
f 165 158 172 
f 163 159 173 
f 155 171 174 
f 158 159 175 
f 164 158 175 
f 165 172 176 
f 171 155 177 
f 160 171 177 
f 163 167 178 
f 167 168 178 
f 168 169 178 
f 169 163 178 
f 171 160 179 
f 174 171 179 
f 170 155 180 
f 155 174 180 
f 174 166 180 
f 167 157 181 
f 168 167 181 
f 157 168 181 
f 158 164 182 
f 162 166 182 
f 170 162 182 
f 164 170 182 
f 155 163 183 
f 163 169 183 
f 169 177 183 
f 177 155 183 
f 168 160 184 
f 169 168 184 
f 160 177 184 
f 177 169 184 
f 157 167 185 
f 167 163 185 
f 163 173 185 
f 185 173 186 
f 156 157 186 
f 159 156 186 
f 173 159 186 
f 157 185 186 
f 166 162 187 
f 162 170 187 
f 180 166 187 
f 170 180 187 
f 159 161 188 
f 161 164 188 
f 175 159 188 
f 164 175 188 
f 172 158 189 
f 166 176 189 
f 176 172 189 
f 158 182 189 
f 182 166 189 
f 160 165 190 
f 166 174 190 
f 176 166 190 
f 165 176 190 
f 179 160 190 
o convex_4
v -0.026058 0.018274 -0.024413
v -0.042086 -0.040949 -0.035559
v -0.042086 -0.040949 -0.033468
v -0.012814 -0.036770 -0.031381
v -0.012814 0.021069 -0.040438
v -0.012814 -0.035372 -0.024413
v -0.031631 -0.047228 -0.040438
v -0.038599 -0.012391 -0.039740
v -0.039994 -0.008212 -0.024413
v -0.012814 0.021069 -0.024413
v -0.035811 -0.045830 -0.025806
v -0.012814 -0.022132 -0.041137
v -0.032327 -0.051414 -0.032774
v -0.036507 -0.040253 -0.041137
v -0.026058 0.016883 -0.031381
v -0.039994 -0.047228 -0.039043
v -0.012814 -0.035372 -0.036256
v -0.026058 -0.003331 -0.041137
v -0.039295 -0.007517 -0.033468
v -0.034416 -0.040253 -0.024413
v -0.040691 -0.047923 -0.031381
v -0.014906 0.021069 -0.040438
v -0.042086 -0.031193 -0.037650
v -0.035811 0.002942 -0.025109
v -0.021874 0.021069 -0.027897
v -0.030238 -0.047923 -0.027200
v -0.030934 -0.050009 -0.037650
v -0.038599 -0.015172 -0.040438
v -0.037903 -0.008212 -0.038347
v -0.039295 -0.041644 -0.027200
v -0.030934 0.011307 -0.027897
v -0.026058 -0.047228 -0.029988
v -0.012814 0.004332 -0.041137
v -0.021178 -0.038863 -0.039740
v -0.039994 -0.037465 -0.040438
v -0.039994 -0.015172 -0.024413
v -0.018390 -0.041651 -0.034166
v -0.035115 -0.051414 -0.032078
v -0.030934 -0.045135 -0.025109
v -0.042086 -0.038863 -0.032078
v -0.040691 -0.020742 -0.039043
v -0.024665 0.016883 -0.033468
v -0.042086 -0.028405 -0.036256
v -0.026754 -0.045830 -0.039043
v -0.039295 -0.049314 -0.036952
v -0.035811 -0.023530 -0.041137
v -0.039295 -0.045830 -0.040438
v -0.037207 -0.043744 -0.025806
v -0.037903 -0.049314 -0.029290
v -0.021874 0.021069 -0.024413
v -0.041387 -0.047228 -0.036256
v -0.033719 -0.050009 -0.038347
v -0.041387 -0.038863 -0.039043
v -0.040691 -0.043049 -0.029290
v -0.029542 0.014088 -0.024413
v -0.020482 0.021069 -0.032774
v -0.026754 -0.047923 -0.035559
v -0.039994 -0.009603 -0.031381
v -0.012814 -0.025616 -0.040438
v -0.038599 -0.007517 -0.036256
f 231 209 250 
f 194 195 196 
f 196 191 199 
f 191 196 200 
f 196 195 200 
f 195 194 202 
f 202 197 204 
f 202 194 207 
f 202 204 208 
f 196 199 210 
f 200 195 212 
f 192 193 213 
f 209 199 214 
f 205 191 215 
f 200 212 215 
f 198 212 218 
f 212 208 218 
f 212 198 219 
f 209 214 221 
f 194 196 222 
f 196 216 222 
f 216 203 222 
f 195 202 223 
f 202 208 223 
f 212 195 223 
f 208 212 223 
f 197 202 224 
f 210 199 226 
f 207 194 227 
f 194 222 227 
f 203 216 228 
f 196 210 229 
f 210 201 229 
f 216 196 229 
f 201 216 229 
f 193 211 230 
f 213 193 230 
f 226 199 230 
f 198 218 231 
f 218 225 231 
f 219 205 232 
f 212 219 232 
f 213 230 233 
f 230 199 233 
f 231 213 233 
f 217 197 234 
f 197 224 234 
f 224 207 234 
f 207 227 234 
f 228 211 235 
f 208 204 236 
f 218 208 236 
f 204 225 236 
f 225 218 236 
f 204 197 237 
f 225 204 237 
f 201 210 238 
f 210 226 238 
f 226 220 238 
f 216 201 239 
f 211 228 239 
f 228 216 239 
f 201 238 239 
f 238 211 239 
f 191 200 240 
f 215 191 240 
f 200 215 240 
f 193 192 241 
f 211 193 241 
f 206 235 241 
f 235 211 241 
f 217 203 242 
f 197 217 242 
f 203 228 242 
f 235 206 242 
f 228 235 242 
f 237 197 242 
f 206 237 242 
f 192 213 243 
f 213 231 243 
f 231 225 243 
f 237 206 243 
f 225 237 243 
f 241 192 243 
f 206 241 243 
f 220 226 244 
f 230 211 244 
f 226 230 244 
f 211 238 244 
f 238 220 244 
f 199 191 245 
f 191 205 245 
f 214 199 245 
f 205 221 245 
f 221 214 245 
f 205 215 246 
f 215 212 246 
f 232 205 246 
f 212 232 246 
f 203 217 247 
f 222 203 247 
f 227 222 247 
f 217 234 247 
f 234 227 247 
f 199 209 248 
f 209 231 248 
f 233 199 248 
f 231 233 248 
f 202 207 249 
f 224 202 249 
f 207 224 249 
f 219 198 250 
f 205 219 250 
f 221 205 250 
f 209 221 250 
f 198 231 250 
o convex_5
v -0.021879 0.021064 -0.024408
v -0.039995 -0.015863 -0.023711
v -0.039995 -0.015863 -0.020922
v -0.012814 -0.036081 -0.018136
v -0.023270 0.021064 -0.006988
v -0.032325 -0.020048 -0.006988
v -0.012814 0.021069 -0.006988
v -0.012814 -0.035382 -0.024408
v -0.012814 -0.032596 -0.006988
v -0.012814 0.021069 -0.024408
v -0.031628 -0.029105 -0.024408
v -0.037901 -0.003332 -0.016741
v -0.033721 0.007123 -0.024408
v -0.035810 -0.009592 -0.009776
v -0.024665 -0.028406 -0.006988
v -0.039995 -0.008199 -0.024408
v -0.016999 -0.033289 -0.009079
v -0.027448 0.016885 -0.024408
v -0.039995 -0.012378 -0.016741
v -0.033721 0.004337 -0.012564
v -0.032325 -0.005419 -0.006988
v -0.035116 -0.024926 -0.022317
v -0.032325 0.009215 -0.016741
v -0.034419 -0.002633 -0.009776
v -0.035116 -0.017950 -0.009776
v -0.016302 -0.035382 -0.022317
v -0.037204 0.000158 -0.020227
v -0.037204 -0.004725 -0.013260
v -0.030933 0.012007 -0.019529
v -0.038598 -0.019349 -0.024408
v -0.031628 -0.029105 -0.023711
v -0.014211 -0.035382 -0.014655
f 267 281 282 
f 255 256 257 
f 257 254 258 
f 254 257 259 
f 257 256 259 
f 251 255 260 
f 255 257 260 
f 258 251 260 
f 257 258 260 
f 251 258 261 
f 251 261 263 
f 259 256 265 
f 252 253 266 
f 263 261 266 
f 259 265 267 
f 255 251 268 
f 251 263 268 
f 266 253 269 
f 262 266 269 
f 256 255 271 
f 264 256 271 
f 265 256 272 
f 270 255 273 
f 255 270 274 
f 264 271 274 
f 271 255 274 
f 256 264 275 
f 269 253 275 
f 264 269 275 
f 253 272 275 
f 272 256 275 
f 258 254 276 
f 261 258 276 
f 266 262 277 
f 263 266 277 
f 262 270 277 
f 273 263 277 
f 270 273 277 
f 269 264 278 
f 262 269 278 
f 270 262 278 
f 264 274 278 
f 274 270 278 
f 255 268 279 
f 268 263 279 
f 263 273 279 
f 273 255 279 
f 253 252 280 
f 252 266 280 
f 266 261 280 
f 272 253 280 
f 261 272 280 
f 267 265 281 
f 272 261 281 
f 265 272 281 
f 261 276 281 
f 281 276 282 
f 254 259 282 
f 259 267 282 
f 276 254 282 
o convex_6
v -0.023264 0.020373 -0.003502
v -0.002359 0.055220 -0.002805
v -0.002359 0.055220 -0.004197
v 0.024120 0.028737 -0.000713
v 0.012963 0.020373 -0.006986
v -0.023264 0.040580 -0.006986
v 0.024120 0.042671 -0.006986
v -0.019084 0.042671 -0.000713
v 0.019244 0.048947 -0.000713
v -0.023961 0.021072 -0.000713
v -0.024657 0.022464 -0.006986
v 0.012963 0.020373 -0.000713
v -0.012814 0.051731 -0.006986
v 0.010878 0.050339 -0.006986
v 0.008087 0.053825 -0.000713
v 0.026215 0.037796 -0.000713
v -0.008629 0.052430 -0.001411
v -0.024657 0.035013 -0.005591
v -0.022567 0.020373 -0.006986
v 0.023419 0.028737 -0.002805
v -0.000965 0.054518 -0.006288
v 0.013670 0.052430 -0.001411
v -0.022567 0.035712 -0.001411
v -0.019781 0.043367 -0.002108
v -0.005145 0.052430 -0.000713
v 0.024120 0.041279 -0.006986
v -0.024657 0.022464 -0.001411
v -0.025359 0.028737 -0.006986
v -0.012814 0.051731 -0.005591
v -0.019781 0.020373 -0.000713
f 294 292 312 
f 287 288 289 
f 290 286 291 
f 286 290 292 
f 288 287 293 
f 283 292 293 
f 283 287 294 
f 287 286 294 
f 286 292 294 
f 284 285 295 
f 289 288 295 
f 289 295 296 
f 285 284 297 
f 290 291 297 
f 289 291 298 
f 291 286 298 
f 287 283 301 
f 283 293 301 
f 293 287 301 
f 286 287 302 
f 298 286 302 
f 295 285 303 
f 296 295 303 
f 285 297 303 
f 303 297 304 
f 291 289 304 
f 289 296 304 
f 297 291 304 
f 296 303 304 
f 292 290 305 
f 288 300 305 
f 290 299 306 
f 288 305 306 
f 305 290 306 
f 297 284 307 
f 290 297 307 
f 284 299 307 
f 299 290 307 
f 287 289 308 
f 289 298 308 
f 302 287 308 
f 298 302 308 
f 293 292 309 
f 292 305 309 
f 305 300 309 
f 288 293 310 
f 300 288 310 
f 293 309 310 
f 309 300 310 
f 284 295 311 
f 295 288 311 
f 299 284 311 
f 288 306 311 
f 306 299 311 
f 292 283 312 
f 283 294 312 
o convex_7
v -0.021176 -0.042354 0.005561
v -0.002362 -0.033990 0.012527
v -0.002362 -0.033990 0.006954
v -0.006542 -0.055596 0.010436
v -0.016297 -0.033990 0.018800
v -0.017689 -0.033990 -0.000712
v -0.007938 -0.050717 -0.000015
v -0.012810 -0.049323 0.018800
v -0.002362 -0.048625 0.015315
v -0.023965 -0.033990 0.011134
v -0.002362 -0.045835 0.002075
v -0.013508 -0.053504 0.006256
v -0.009332 -0.033990 0.018800
v -0.015599 -0.051410 0.013921
v -0.007938 -0.033990 0.000681
v -0.001664 -0.051410 0.006256
v -0.012121 -0.046533 -0.001410
v -0.005847 -0.048625 0.018800
v -0.022569 -0.034690 0.002773
v -0.021874 -0.039567 0.013223
v -0.005847 -0.043750 -0.000712
v -0.014206 -0.050019 0.001379
v -0.000966 -0.040263 0.009738
v -0.010725 -0.054896 0.013921
v -0.007938 -0.055596 0.006256
v -0.003755 -0.052804 0.014619
v -0.005149 -0.033990 0.016707
v -0.013508 -0.046533 0.019498
v -0.019084 -0.047231 0.007652
v -0.019084 -0.036082 0.017407
v -0.003755 -0.050019 0.001379
v -0.018389 -0.040961 0.000681
v -0.016297 -0.046533 0.017407
v -0.003755 -0.035388 0.003469
v -0.000966 -0.043750 0.005561
v -0.000966 -0.045835 0.011829
v -0.019782 -0.045835 0.011829
v -0.023965 -0.035388 0.006256
v -0.003057 -0.045835 0.016707
v -0.007240 -0.045835 0.019498
v -0.008634 -0.054198 0.015315
v -0.010725 -0.053504 0.002773
v -0.003057 -0.053504 0.006954
v -0.006542 -0.053504 0.002773
v -0.010725 -0.055596 0.011829
v -0.017689 -0.047925 0.004167
v -0.010725 -0.042354 -0.001410
v -0.021874 -0.041661 0.010436
v -0.001664 -0.038869 0.013223
f 339 351 361 
f 314 315 317 
f 317 315 318 
f 317 318 322 
f 314 317 325 
f 318 315 327 
f 322 318 331 
f 319 329 333 
f 329 319 334 
f 315 314 335 
f 320 326 336 
f 328 321 338 
f 321 330 338 
f 314 325 339 
f 320 330 340 
f 324 326 341 
f 317 322 342 
f 322 332 342 
f 340 317 342 
f 323 328 343 
f 319 333 343 
f 333 323 343 
f 318 329 344 
f 313 331 344 
f 331 318 344 
f 329 334 344 
f 326 320 345 
f 320 340 345 
f 342 332 345 
f 340 342 345 
f 327 315 346 
f 323 333 346 
f 333 327 346 
f 328 323 347 
f 315 335 347 
f 346 315 347 
f 323 346 347 
f 321 328 348 
f 328 347 348 
f 347 335 348 
f 341 326 349 
f 326 345 349 
f 345 332 349 
f 331 313 350 
f 322 331 350 
f 330 321 351 
f 325 317 352 
f 339 325 352 
f 317 340 352 
f 340 330 352 
f 330 351 352 
f 351 339 352 
f 330 320 353 
f 320 336 353 
f 316 338 353 
f 338 330 353 
f 334 319 354 
f 324 334 354 
f 337 324 354 
f 316 337 355 
f 338 316 355 
f 328 338 355 
f 343 328 355 
f 343 355 356 
f 319 343 356 
f 354 319 356 
f 337 354 356 
f 355 337 356 
f 326 324 357 
f 336 326 357 
f 337 316 357 
f 324 337 357 
f 316 353 357 
f 353 336 357 
f 334 324 358 
f 324 341 358 
f 341 313 358 
f 313 344 358 
f 344 334 358 
f 318 327 359 
f 329 318 359 
f 327 333 359 
f 333 329 359 
f 332 322 360 
f 313 341 360 
f 349 332 360 
f 341 349 360 
f 350 313 360 
f 322 350 360 
f 335 314 361 
f 314 339 361 
f 321 348 361 
f 348 335 361 
f 351 321 361 
o convex_8
v -0.027448 -0.020747 0.009046
v 0.002516 0.009221 0.027165
v 0.002516 0.009221 -0.006986
v 0.002516 -0.033990 -0.006986
v -0.024660 0.008523 -0.006986
v 0.002516 -0.029109 0.027165
v -0.014906 -0.001933 0.027165
v -0.023965 -0.028411 -0.006986
v -0.021177 -0.033990 0.016013
v -0.031626 -0.006810 -0.006287
v -0.021873 0.002948 0.014616
v -0.010725 0.009221 0.024377
v -0.011423 -0.024921 0.027165
v -0.023965 -0.033990 0.004864
v -0.022571 -0.008903 0.020195
v -0.031626 -0.020049 -0.006986
v -0.004454 -0.033990 0.016013
v -0.026749 -0.004022 0.009742
v -0.021177 0.009221 0.004166
v -0.018389 -0.015168 0.024377
v -0.023965 -0.033990 0.011831
v -0.017691 -0.031896 -0.006986
v 0.002516 -0.031896 0.021586
v -0.016996 -0.033990 0.018798
v -0.026749 0.002251 0.001381
v -0.011423 0.006430 0.027165
v -0.028143 -0.010299 0.008348
v -0.022571 -0.001933 0.017407
v -0.023965 0.009221 -0.006986
v -0.003060 -0.029109 0.027165
v -0.014906 -0.016559 0.027165
v -0.026054 -0.027713 0.010437
v -0.020479 -0.011695 0.022983
v 0.002516 -0.033990 0.004166
v -0.019085 -0.033990 -0.000013
v -0.028842 -0.016559 0.006262
v -0.024660 -0.029807 0.012523
v -0.030931 -0.004720 -0.006986
v -0.007937 0.009221 0.027165
v -0.022571 0.007127 0.005563
v -0.026054 0.000157 0.007652
v -0.009331 -0.033990 0.018798
v -0.031626 -0.020049 -0.006287
v -0.001666 -0.033990 -0.006986
f 396 383 405 
f 364 363 365 
f 364 365 366 
f 365 363 367 
f 367 363 368 
f 366 365 369 
f 363 364 373 
f 367 368 374 
f 365 370 375 
f 366 369 377 
f 369 375 377 
f 370 365 378 
f 373 364 380 
f 375 370 382 
f 377 375 382 
f 369 365 383 
f 375 369 383 
f 365 367 384 
f 374 370 385 
f 370 378 385 
f 368 363 387 
f 373 372 387 
f 362 376 388 
f 379 371 388 
f 376 379 388 
f 376 368 389 
f 379 376 389 
f 368 387 389 
f 387 372 389 
f 364 366 390 
f 380 364 390 
f 366 380 390 
f 367 374 391 
f 385 367 391 
f 374 385 391 
f 374 368 392 
f 370 374 392 
f 381 370 392 
f 376 362 393 
f 368 376 394 
f 370 381 394 
f 392 368 394 
f 381 392 394 
f 378 365 395 
f 365 384 395 
f 384 378 395 
f 365 375 396 
f 375 383 396 
f 362 388 397 
f 388 371 397 
f 393 362 397 
f 382 370 398 
f 376 393 398 
f 393 382 398 
f 394 376 398 
f 370 394 398 
f 366 377 399 
f 377 371 399 
f 386 366 399 
f 371 386 399 
f 363 373 400 
f 387 363 400 
f 373 387 400 
f 372 373 401 
f 380 366 401 
f 373 380 401 
f 366 386 401 
f 401 386 402 
f 371 379 402 
f 386 371 402 
f 389 372 402 
f 379 389 402 
f 372 401 402 
f 384 367 403 
f 378 384 403 
f 385 378 403 
f 367 385 403 
f 371 377 404 
f 377 382 404 
f 382 393 404 
f 397 371 404 
f 393 397 404 
f 383 365 405 
f 365 396 405 
o convex_9
v 0.027606 -0.046528 0.005556
v 0.002519 -0.033986 -0.006986
v 0.002519 -0.033986 0.004167
v 0.023427 0.009221 -0.006986
v 0.002519 0.009221 0.016013
v 0.024122 -0.020754 0.016013
v 0.002519 0.009221 -0.006986
v 0.002519 -0.031891 0.016013
v 0.024122 -0.047926 -0.005590
v 0.017153 -0.050712 0.008345
v 0.024819 -0.004719 0.009041
v 0.029003 -0.031201 0.001378
v 0.013669 0.004340 0.016013
v 0.023427 -0.045135 0.012526
v 0.015761 -0.051408 0.002773
v 0.028303 -0.024230 0.010437
v 0.019943 -0.045837 -0.006986
v 0.017851 0.009221 0.006254
v 0.027606 -0.043742 -0.002803
v 0.023427 -0.052111 0.003471
v 0.017851 -0.050712 -0.002803
v 0.024122 0.007822 -0.006986
v 0.022032 -0.029808 0.016013
v 0.029003 -0.038867 0.007648
v 0.024819 -0.044444 -0.006288
v 0.026911 -0.011689 0.009041
v 0.029003 -0.026320 0.005556
v 0.026214 -0.040260 0.011831
v 0.022730 0.000846 0.008345
v 0.017851 -0.002636 0.016013
v 0.017153 -0.047926 0.011133
v 0.007401 0.009221 0.016013
v 0.024122 -0.050712 -0.002803
v 0.029003 -0.042349 0.001378
v 0.015066 -0.050712 0.004167
v 0.022730 -0.051408 0.006952
v 0.017851 -0.047230 -0.006288
v 0.026214 -0.016570 0.012526
v 0.020638 0.009221 0.002076
v 0.027606 -0.047230 0.001378
v 0.026214 -0.045837 0.009737
v 0.024122 -0.026320 0.016013
v 0.028303 -0.036069 -0.001410
v 0.026214 -0.025617 0.013922
v 0.016456 -0.051408 -0.000014
v 0.018548 -0.031201 0.016013
v 0.017851 -0.043040 0.013224
v 0.002519 -0.032587 0.014618
v 0.015761 -0.050712 0.006952
v 0.017153 -0.052111 0.004860
v 0.021335 -0.052111 -0.000014
v 0.023427 0.009221 -0.005590
f 444 434 457 
f 407 408 410 
f 409 407 412 
f 410 409 412 
f 407 410 412 
f 410 408 413 
f 411 410 413 
f 410 411 418 
f 407 409 422 
f 409 410 423 
f 422 409 427 
f 411 413 428 
f 414 422 430 
f 424 414 430 
f 422 427 430 
f 427 424 430 
f 427 416 431 
f 427 431 432 
f 417 427 432 
f 421 429 432 
f 429 417 432 
f 431 421 432 
f 423 418 434 
f 418 411 435 
f 416 434 435 
f 434 418 435 
f 413 415 436 
f 410 418 437 
f 423 410 437 
f 418 423 437 
f 414 424 438 
f 429 406 439 
f 417 429 439 
f 408 407 440 
f 407 420 440 
f 425 406 441 
f 436 415 441 
f 419 436 441 
f 407 422 442 
f 422 414 442 
f 426 407 442 
f 414 438 442 
f 438 426 442 
f 431 416 443 
f 421 431 443 
f 435 411 443 
f 416 435 443 
f 409 423 444 
f 423 434 444 
f 406 425 445 
f 438 424 445 
f 425 438 445 
f 424 439 445 
f 439 406 445 
f 406 429 446 
f 433 419 446 
f 429 433 446 
f 441 406 446 
f 419 441 446 
f 411 428 447 
f 428 419 447 
f 419 433 447 
f 427 417 448 
f 424 427 448 
f 417 439 448 
f 439 424 448 
f 429 421 449 
f 433 429 449 
f 443 411 449 
f 421 443 449 
f 411 447 449 
f 447 433 449 
f 420 407 450 
f 407 426 450 
f 428 413 451 
f 419 428 451 
f 413 436 452 
f 436 419 452 
f 451 413 452 
f 419 451 452 
f 413 408 453 
f 408 440 453 
f 453 440 454 
f 415 413 454 
f 413 453 454 
f 440 420 455 
f 425 441 455 
f 441 415 455 
f 420 450 455 
f 454 440 455 
f 415 454 455 
f 438 425 456 
f 426 438 456 
f 450 426 456 
f 425 455 456 
f 455 450 456 
f 427 409 457 
f 416 427 457 
f 434 416 457 
f 409 444 457 
o convex_10
v 0.019242 -0.006812 0.026466
v 0.002519 -0.031896 0.016015
v 0.007398 -0.031896 0.016015
v 0.002519 0.009221 0.016015
v 0.002519 -0.029109 0.027164
v 0.023428 -0.025625 0.016015
v 0.002519 0.009221 0.027164
v 0.015759 0.001554 0.016015
v 0.015759 -0.026321 0.027164
v 0.021334 -0.012379 0.027164
v 0.011582 0.005734 0.024376
v 0.010186 -0.029804 0.027164
v 0.007398 0.009221 0.016015
v 0.021334 -0.028413 0.016712
v 0.019942 -0.008904 0.016015
v 0.019942 -0.020746 0.027164
v 0.015063 0.000159 0.027164
v 0.006004 -0.031896 0.021589
v 0.023428 -0.021442 0.016015
v 0.007398 0.009221 0.021589
v 0.017848 -0.029804 0.016015
v 0.011582 0.006430 0.016015
v 0.015759 0.000159 0.025769
v 0.002519 -0.031896 0.021589
v 0.017848 -0.002629 0.018106
v 0.021334 -0.016558 0.027164
f 473 463 483 
f 460 459 461 
f 461 459 462 
f 460 461 463 
f 461 462 464 
f 463 461 465 
f 464 462 466 
f 464 466 467 
f 466 462 469 
f 461 464 470 
f 465 461 470 
f 466 469 471 
f 463 465 472 
f 467 466 473 
f 471 463 473 
f 466 471 473 
f 464 467 474 
f 467 458 474 
f 468 464 474 
f 459 460 475 
f 467 463 476 
f 463 472 476 
f 472 467 476 
f 464 468 477 
f 470 464 477 
f 460 463 478 
f 463 471 478 
f 471 469 478 
f 475 460 478 
f 469 475 478 
f 468 465 479 
f 465 470 479 
f 477 468 479 
f 470 477 479 
f 465 468 480 
f 474 458 480 
f 468 474 480 
f 462 459 481 
f 469 462 481 
f 459 475 481 
f 475 469 481 
f 458 467 482 
f 472 465 482 
f 467 472 482 
f 480 458 482 
f 465 480 482 
f 463 467 483 
f 467 473 483 
o convex_11
v 0.019243 -0.006114 0.027865
v -0.018383 -0.013775 0.036227
v -0.018383 -0.013775 0.036923
v 0.019243 -0.033293 0.035532
v 0.022031 0.000157 0.048073
v -0.006538 -0.033293 0.048073
v -0.007934 0.002946 0.048073
v -0.007234 0.009221 0.027165
v -0.000963 -0.033293 0.027865
v 0.017152 -0.033293 0.048073
v -0.012112 -0.024229 0.027165
v 0.021335 -0.017259 0.027165
v -0.016295 -0.007508 0.048073
v 0.001820 0.009221 0.027165
v -0.014204 0.000857 0.027165
v 0.010882 0.005039 0.048073
v 0.022726 -0.017958 0.047373
v -0.012112 -0.030505 0.041798
v 0.010182 -0.031899 0.027165
v -0.016295 -0.020047 0.048073
v -0.009325 -0.033293 0.034136
v -0.016991 -0.017954 0.030650
v 0.010882 0.003641 0.027165
v 0.023422 -0.017958 0.038315
v 0.023422 -0.001237 0.047373
v -0.010721 0.007128 0.027865
v 0.022031 -0.011691 0.029256
v 0.015064 -0.033293 0.029956
v -0.016295 -0.022140 0.034136
v 0.020635 -0.030505 0.040407
v 0.003211 0.005039 0.048073
v -0.016295 -0.006809 0.027865
v -0.011417 0.000157 0.048073
v -0.005838 0.009221 0.029256
v -0.017687 -0.008906 0.037619
v 0.022031 -0.024928 0.035532
v 0.005303 0.007827 0.027165
v 0.019243 -0.022835 0.027165
v -0.014904 -0.024229 0.047373
v -0.015600 -0.015865 0.027165
v 0.014365 0.000157 0.027165
v 0.019243 -0.033293 0.043890
v -0.010021 -0.033293 0.042494
v 0.020635 -0.006813 0.029256
v -0.016991 -0.010996 0.048073
v 0.022726 -0.017259 0.048073
v -0.016991 -0.020746 0.037619
v -0.004446 -0.033293 0.029256
v 0.022726 -0.022835 0.040407
v -0.013508 0.002251 0.029956
v -0.014904 -0.004720 0.048073
v 0.018548 -0.033293 0.033440
v 0.021335 -0.010996 0.027165
v -0.014204 -0.027017 0.038315
v -0.014904 -0.024229 0.032744
v 0.012973 0.004340 0.048073
v 0.001124 -0.032594 0.027165
f 494 502 540 
f 489 488 490 
f 487 489 492 
f 488 489 493 
f 489 487 493 
f 494 491 495 
f 489 490 496 
f 495 491 497 
f 491 494 498 
f 490 488 499 
f 494 495 502 
f 489 496 503 
f 492 489 504 
f 495 497 506 
f 506 488 508 
f 490 491 509 
f 491 498 509 
f 507 495 510 
f 508 507 510 
f 487 492 511 
f 492 502 511 
f 490 499 514 
f 505 485 515 
f 496 490 516 
f 490 509 516 
f 491 490 517 
f 497 491 517 
f 499 497 517 
f 490 514 517 
f 514 499 517 
f 485 486 518 
f 515 485 518 
f 498 515 518 
f 495 507 519 
f 513 487 519 
f 488 506 520 
f 506 497 520 
f 502 495 521 
f 511 502 521 
f 489 503 522 
f 498 494 523 
f 494 505 523 
f 515 498 523 
f 505 515 523 
f 495 506 524 
f 506 508 524 
f 493 487 525 
f 487 513 525 
f 504 489 526 
f 501 504 526 
f 489 522 526 
f 522 501 526 
f 484 524 527 
f 524 508 527 
f 486 503 528 
f 503 496 528 
f 518 486 528 
f 496 518 528 
f 488 493 529 
f 500 507 529 
f 507 508 529 
f 508 488 529 
f 493 525 529 
f 525 500 529 
f 486 485 530 
f 503 486 530 
f 485 505 530 
f 505 512 530 
f 522 503 530 
f 494 492 531 
f 492 504 531 
f 504 494 531 
f 507 500 532 
f 519 507 532 
f 513 519 532 
f 500 525 532 
f 525 513 532 
f 509 498 533 
f 518 496 533 
f 498 518 533 
f 496 516 534 
f 516 509 534 
f 509 533 534 
f 533 496 534 
f 487 511 535 
f 519 487 535 
f 495 519 535 
f 521 495 535 
f 511 521 535 
f 510 495 536 
f 508 510 536 
f 524 484 536 
f 495 524 536 
f 484 527 536 
f 527 508 536 
f 504 501 537 
f 501 522 537 
f 530 512 537 
f 522 530 537 
f 494 504 538 
f 505 494 538 
f 512 505 538 
f 504 537 538 
f 537 512 538 
f 499 488 539 
f 497 499 539 
f 488 520 539 
f 520 497 539 
f 492 494 540 
f 502 492 540 
o convex_12
v 0.022033 -0.020049 0.048073
v -0.023268 -0.007509 0.059921
v -0.022570 -0.008904 0.061315
v 0.000425 -0.043742 0.048073
v 0.009484 -0.019361 0.066891
v 0.003910 0.005030 0.048073
v 0.022731 -0.002632 0.061315
v -0.016992 -0.007509 0.048073
v -0.020477 -0.002632 0.064799
v 0.008093 -0.036075 0.059921
v 0.015063 -0.040260 0.051560
v 0.022731 0.000157 0.048073
v -0.003056 -0.027013 0.064100
v -0.005150 -0.040952 0.048773
v 0.013671 0.003640 0.054348
v -0.007932 0.002942 0.048073
v -0.000269 -0.012391 0.067588
v -0.015596 -0.022136 0.048073
v -0.021873 -0.008207 0.064799
v 0.018548 -0.017269 0.062010
v 0.000425 -0.041650 0.054347
v 0.017152 -0.038167 0.048073
v 0.010880 -0.008207 0.066192
v 0.000425 -0.022834 0.066891
v -0.022570 -0.002632 0.060618
v 0.022731 -0.008207 0.060616
v 0.012276 -0.001237 0.062010
v 0.022731 0.002250 0.055044
v 0.009484 -0.042347 0.054347
v 0.010880 -0.026321 0.064102
v -0.020477 -0.001237 0.062010
v -0.018387 -0.005422 0.066192
v 0.007395 -0.044440 0.048073
v 0.003910 -0.032588 0.062708
v -0.019779 -0.006817 0.051561
v 0.010880 0.005039 0.048073
v 0.012276 -0.036773 0.057136
v 0.005305 0.005030 0.050165
v 0.006003 -0.027013 0.065497
v -0.007932 -0.024926 0.062708
v 0.014365 -0.013089 0.065497
v 0.011578 0.001547 0.058526
v 0.008786 -0.004725 0.064799
v 0.022731 -0.017269 0.048773
v -0.000967 -0.018664 0.067588
v 0.003910 0.002942 0.055741
v -0.022570 -0.008904 0.063405
v 0.003212 -0.043045 0.053651
v -0.011417 0.000153 0.048073
v -0.002358 -0.041650 0.051561
v 0.002514 -0.038860 0.057831
v 0.006697 -0.015874 0.067588
v -0.003056 -0.020741 0.066891
v -0.016992 -0.016571 0.048073
v -0.005150 0.003640 0.049470
v 0.022731 0.002250 0.051560
v -0.023268 -0.004027 0.063405
v 0.014365 -0.041650 0.048073
v 0.017152 -0.038167 0.048773
v 0.017850 -0.014479 0.063405
v -0.021175 -0.007509 0.065497
v -0.000269 -0.033983 0.060618
v -0.019779 -0.005422 0.052257
v -0.014205 -0.024926 0.048073
f 554 587 604 
f 541 544 546 
f 546 544 548 
f 541 546 552 
f 546 548 556 
f 548 544 558 
f 544 541 562 
f 552 547 566 
f 560 551 566 
f 547 552 568 
f 567 547 568 
f 556 565 571 
f 557 563 572 
f 544 562 573 
f 564 553 574 
f 552 546 576 
f 555 568 576 
f 551 560 577 
f 569 551 577 
f 550 569 577 
f 570 550 577 
f 560 570 577 
f 576 546 578 
f 555 576 578 
f 545 564 579 
f 550 570 579 
f 570 545 579 
f 574 550 579 
f 564 574 579 
f 553 559 580 
f 547 563 581 
f 549 567 582 
f 568 555 582 
f 567 568 582 
f 563 547 583 
f 567 549 583 
f 547 567 583 
f 549 572 583 
f 572 563 583 
f 541 552 584 
f 552 566 584 
f 557 572 585 
f 571 549 586 
f 555 578 586 
f 578 571 586 
f 549 582 586 
f 582 555 586 
f 542 543 587 
f 580 559 587 
f 544 573 588 
f 573 569 588 
f 556 548 589 
f 565 556 589 
f 554 544 590 
f 561 580 590 
f 587 554 590 
f 580 587 590 
f 544 588 590 
f 588 561 590 
f 569 550 591 
f 550 574 591 
f 561 588 591 
f 588 569 591 
f 563 557 592 
f 564 545 592 
f 545 581 592 
f 581 563 592 
f 557 585 592 
f 585 564 592 
f 553 564 593 
f 564 585 593 
f 558 542 594 
f 548 558 594 
f 575 548 594 
f 542 575 594 
f 546 556 595 
f 556 571 595 
f 578 546 595 
f 571 578 595 
f 568 552 596 
f 552 576 596 
f 576 568 596 
f 565 542 597 
f 549 571 597 
f 571 565 597 
f 542 587 597 
f 587 559 597 
f 551 569 598 
f 573 562 598 
f 569 573 598 
f 562 541 599 
f 566 551 599 
f 541 584 599 
f 584 566 599 
f 551 598 599 
f 598 562 599 
f 566 547 600 
f 560 566 600 
f 545 570 600 
f 570 560 600 
f 581 545 600 
f 547 581 600 
f 559 553 601 
f 572 549 601 
f 585 572 601 
f 553 593 601 
f 593 585 601 
f 549 597 601 
f 597 559 601 
f 574 553 602 
f 553 580 602 
f 580 561 602 
f 561 591 602 
f 591 574 602 
f 542 565 603 
f 548 575 603 
f 575 542 603 
f 589 548 603 
f 565 589 603 
f 543 542 604 
f 544 554 604 
f 542 558 604 
f 558 544 604 
f 587 543 604 
o convex_13
v 0.029700 0.000857 0.061316
v 0.022731 -0.009597 0.052955
v 0.022731 -0.005414 0.048073
v 0.022731 -0.000536 0.059922
v 0.031094 -0.006110 0.059222
v 0.023429 0.000857 0.048773
v 0.022731 -0.007505 0.061316
v 0.031094 0.000160 0.056436
v 0.024125 0.002949 0.056436
v 0.028305 -0.008200 0.060618
v 0.026912 0.000160 0.062710
v 0.030396 -0.006808 0.057134
v 0.029003 -0.004717 0.062710
v 0.024125 -0.004020 0.048073
v 0.026216 0.002949 0.054347
v 0.022731 0.002251 0.051561
v 0.026216 -0.009597 0.058526
v 0.029003 0.002251 0.059922
f 619 613 622 
f 607 606 608 
f 608 606 611 
f 605 609 612 
f 608 611 615 
f 613 608 615 
f 606 607 616 
f 612 609 616 
f 609 614 616 
f 609 605 617 
f 614 609 617 
f 611 614 617 
f 615 611 617 
f 605 615 617 
f 607 610 618 
f 610 612 618 
f 616 607 618 
f 612 616 618 
f 612 610 619 
f 613 619 620 
f 607 608 620 
f 610 607 620 
f 608 613 620 
f 619 610 620 
f 611 606 621 
f 614 611 621 
f 606 616 621 
f 616 614 621 
f 605 612 622 
f 615 605 622 
f 613 615 622 
f 612 619 622 
o convex_14
v 0.012969 0.020373 -0.000713
v 0.015761 0.060796 0.012528
v 0.015761 0.060796 0.011134
v -0.023268 0.023859 0.007651
v 0.026207 0.020373 0.018801
v -0.016292 0.020373 0.018801
v -0.016989 0.044763 -0.000713
v 0.028998 0.038495 -0.000713
v -0.002358 0.050338 0.018801
v 0.038064 0.041973 0.018102
v -0.019780 0.020373 -0.000713
v 0.019243 0.055217 0.001378
v -0.019780 0.030134 0.016710
v 0.032486 0.025952 0.011831
v 0.036665 0.046159 0.007651
v -0.005840 0.052431 -0.000713
v 0.008791 0.057306 0.018801
v 0.022034 0.059399 0.013225
v -0.019780 0.041977 0.002773
v 0.003916 0.057306 0.015315
v 0.032486 0.047548 0.018801
v 0.024820 0.028737 -0.000713
v 0.008088 0.054520 -0.000713
v -0.021870 0.032223 -0.000713
v 0.033183 0.037106 0.003470
v 0.037361 0.036410 0.014618
v 0.034576 0.030831 0.018801
v 0.025516 0.020373 0.011831
v 0.012279 0.059399 0.005560
v 0.022034 0.057306 0.005560
v 0.030391 0.053124 0.011831
v 0.020641 0.055217 0.018801
v 0.006701 0.058703 0.007651
v -0.022566 0.021073 0.009044
v -0.011411 0.039195 0.018801
v 0.000428 0.055217 0.015315
v 0.023427 0.050338 0.000681
v -0.004447 0.049642 0.017407
v -0.005144 0.053128 0.003470
v 0.035968 0.046852 0.006954
v 0.014362 0.059399 0.016710
v 0.032486 0.025255 0.016012
v 0.028998 0.025255 0.007651
v -0.021870 0.020373 0.002773
v 0.017153 0.022466 -0.000713
v 0.019243 0.049642 -0.000713
v 0.017850 0.058006 0.003470
v -0.020477 0.039888 0.003470
v 0.010880 0.058006 0.002773
v -0.023268 0.023859 0.009044
v -0.020477 0.039888 -0.000713
v 0.032486 0.048945 0.017407
v 0.014362 0.055217 -0.000016
v 0.030391 0.053124 0.010436
v 0.029695 0.027345 0.006257
v 0.038064 0.042673 0.017407
f 653 674 678 
f 623 627 628 
f 623 629 630 
f 628 627 631 
f 623 628 633 
f 629 623 633 
f 630 629 638 
f 631 627 639 
f 625 624 640 
f 639 627 643 
f 623 630 644 
f 630 638 645 
f 629 633 646 
f 644 630 647 
f 636 647 648 
f 647 637 648 
f 643 627 649 
f 632 643 649 
f 648 632 649 
f 627 623 650 
f 625 640 652 
f 639 643 654 
f 624 625 655 
f 642 624 655 
f 625 651 655 
f 651 638 655 
f 628 631 657 
f 635 628 657 
f 631 639 658 
f 639 642 658 
f 641 635 660 
f 657 631 660 
f 635 657 660 
f 631 658 660 
f 658 641 660 
f 638 629 661 
f 629 641 661 
f 642 655 661 
f 655 638 661 
f 641 658 661 
f 658 642 661 
f 637 647 662 
f 647 630 662 
f 634 652 662 
f 659 634 662 
f 630 659 662 
f 640 624 663 
f 624 642 663 
f 642 639 663 
f 639 654 663 
f 654 640 663 
f 636 648 664 
f 649 627 664 
f 648 649 664 
f 627 650 664 
f 650 636 664 
f 636 650 665 
f 633 628 666 
f 626 646 666 
f 646 633 666 
f 656 626 666 
f 628 656 666 
f 623 644 667 
f 650 623 667 
f 644 665 667 
f 665 650 667 
f 630 645 668 
f 659 630 668 
f 651 625 669 
f 652 634 669 
f 625 652 669 
f 635 641 670 
f 645 638 671 
f 638 651 671 
f 651 669 671 
f 628 635 672 
f 646 626 672 
f 626 656 672 
f 656 628 672 
f 635 670 672 
f 670 646 672 
f 641 629 673 
f 629 646 673 
f 670 641 673 
f 646 670 673 
f 653 640 674 
f 640 654 674 
f 654 643 674 
f 634 659 675 
f 668 645 675 
f 659 668 675 
f 669 634 675 
f 645 671 675 
f 671 669 675 
f 652 640 676 
f 653 637 676 
f 640 653 676 
f 637 662 676 
f 662 652 676 
f 647 636 677 
f 644 647 677 
f 665 644 677 
f 636 665 677 
f 643 632 678 
f 632 648 678 
f 648 637 678 
f 637 653 678 
f 674 643 678 
o convex_15
v -0.009318 -0.033295 0.043193
v 0.001131 -0.033991 0.027862
v 0.001131 -0.033295 0.027862
v 0.031086 -0.036082 0.036923
v 0.002523 -0.044443 0.045980
v 0.017149 -0.033295 0.048073
v 0.001127 -0.043049 0.036229
v 0.026206 -0.033295 0.031348
v -0.006534 -0.040262 0.048073
v 0.014364 -0.041656 0.048073
v -0.007926 -0.035385 0.034137
v 0.026906 -0.036779 0.032044
v 0.010188 -0.043747 0.043191
v -0.006534 -0.033295 0.048073
v -0.005842 -0.042353 0.041101
v 0.001827 -0.039564 0.031348
v 0.006700 -0.043049 0.036229
v 0.020633 -0.038171 0.046679
v 0.031086 -0.033991 0.036923
v 0.031086 -0.036779 0.034836
v -0.003745 -0.038868 0.032743
v 0.007400 -0.034689 0.027862
v -0.010018 -0.033295 0.038316
v 0.002523 -0.044443 0.048073
v -0.005138 -0.033295 0.029953
v 0.006004 -0.040960 0.032741
v 0.006008 -0.038171 0.029953
v 0.019937 -0.040262 0.044587
v 0.007400 -0.043747 0.039014
v -0.005842 -0.042353 0.045282
v 0.026906 -0.036082 0.031348
v 0.009492 -0.033295 0.027862
f 709 700 710 
f 681 679 684 
f 681 684 686 
f 684 687 688 
f 684 679 692 
f 679 687 692 
f 687 684 692 
f 685 683 693 
f 684 688 696 
f 686 684 697 
f 696 682 697 
f 684 696 697 
f 695 690 698 
f 686 697 698 
f 697 682 698 
f 685 693 699 
f 693 689 699 
f 680 694 699 
f 694 685 699 
f 680 681 700 
f 679 681 701 
f 687 679 701 
f 689 693 701 
f 688 687 702 
f 683 691 702 
f 691 688 702 
f 693 683 702 
f 681 680 703 
f 680 699 703 
f 699 689 703 
f 701 681 703 
f 689 701 703 
f 685 694 704 
f 690 695 704 
f 695 685 704 
f 694 680 705 
f 680 700 705 
f 704 694 705 
f 688 691 706 
f 682 696 706 
f 696 688 706 
f 698 682 706 
f 691 698 706 
f 683 685 707 
f 691 683 707 
f 685 695 707 
f 698 691 707 
f 695 698 707 
f 687 701 708 
f 701 693 708 
f 702 687 708 
f 693 702 708 
f 686 698 709 
f 698 690 709 
f 690 704 709 
f 705 700 709 
f 704 705 709 
f 681 686 710 
f 700 681 710 
f 686 709 710 
o convex_16
v 0.007398 0.035706 0.039707
v -0.016294 0.020373 0.018801
v -0.016996 0.020373 0.020893
v 0.022725 0.020373 0.034133
v 0.034578 0.035008 0.018801
v -0.012806 0.035706 0.018801
v 0.025516 0.020373 0.018801
v -0.007929 0.021070 0.035528
v -0.016294 0.027344 0.028560
v -0.003052 0.035706 0.038316
v 0.001825 0.020373 0.039707
v 0.012971 0.028039 0.039707
v 0.019938 0.035706 0.032042
v 0.033180 0.028039 0.020196
v 0.003920 0.023859 0.041104
v 0.022725 0.022465 0.034827
v -0.006536 0.028039 0.037615
v -0.012806 0.020373 0.032042
v 0.032483 0.035706 0.018801
v -0.013507 0.035706 0.021589
v 0.003218 0.035006 0.041104
v 0.010876 0.020373 0.039012
v 0.027601 0.021767 0.025078
v -0.014901 0.032915 0.019500
v 0.034578 0.035008 0.019500
v 0.033882 0.030128 0.020893
v 0.008095 0.028039 0.041104
v -0.016996 0.020373 0.023681
v 0.029697 0.023858 0.018801
v 0.007398 0.035006 0.040405
f 731 737 740 
f 713 712 714 
f 715 712 716 
f 714 712 717 
f 712 715 717 
f 711 716 720 
f 713 714 721 
f 716 711 723 
f 723 722 726 
f 720 719 727 
f 718 721 727 
f 721 725 727 
f 713 721 728 
f 721 718 728 
f 718 727 728 
f 727 719 728 
f 715 716 729 
f 716 723 729 
f 719 720 730 
f 720 716 730 
f 711 720 731 
f 720 727 731 
f 727 725 731 
f 721 714 732 
f 725 721 732 
f 714 726 732 
f 726 722 732 
f 714 717 733 
f 724 714 733 
f 712 713 734 
f 716 712 734 
f 713 719 734 
f 730 716 734 
f 719 730 734 
f 723 726 735 
f 715 729 735 
f 729 723 735 
f 714 724 736 
f 724 715 736 
f 726 714 736 
f 715 735 736 
f 735 726 736 
f 731 725 737 
f 725 732 737 
f 732 722 737 
f 719 713 738 
f 713 728 738 
f 728 719 738 
f 717 715 739 
f 715 724 739 
f 733 717 739 
f 724 733 739 
f 723 711 740 
f 722 723 740 
f 711 731 740 
f 737 722 740 
o convex_17
v -0.012814 0.035708 0.020893
v 0.026212 0.059400 0.024378
v 0.026212 0.059400 0.022289
v 0.033184 0.035708 0.018801
v 0.007401 0.035708 0.039710
v 0.002520 0.053825 0.018801
v -0.000961 0.039193 0.039010
v 0.018547 0.047554 0.036222
v 0.016455 0.058702 0.025772
v 0.027606 0.042677 0.030647
v 0.035973 0.041981 0.018801
v -0.012814 0.035708 0.018801
v 0.021336 0.056612 0.018801
v -0.007933 0.042677 0.022985
v 0.007401 0.055218 0.025076
v 0.008098 0.043375 0.039010
v 0.031092 0.036406 0.023681
v -0.002356 0.035708 0.037618
v 0.010887 0.057308 0.018801
v 0.031789 0.049643 0.023681
v 0.026909 0.045464 0.031345
v 0.017850 0.051733 0.033435
v 0.005309 0.045464 0.036222
v 0.026212 0.040587 0.031345
v 0.028303 0.058006 0.021593
v 0.012272 0.041283 0.039010
v 0.019937 0.035708 0.032043
v 0.033881 0.043375 0.022985
v 0.033184 0.037800 0.022985
v -0.011420 0.039193 0.018801
v -0.005145 0.036406 0.034831
v -0.000961 0.051037 0.019499
v 0.019244 0.048945 0.035527
v 0.033184 0.046858 0.018801
v -0.000961 0.039889 0.038314
v 0.022726 0.043375 0.034133
v 0.006704 0.055914 0.021593
v 0.022726 0.058006 0.019499
v 0.012969 0.055914 0.027864
v 0.001126 0.035708 0.039710
f 747 758 780 
f 741 744 745 
f 742 743 749 
f 744 746 751 
f 744 741 752 
f 746 744 752 
f 751 746 753 
f 741 745 758 
f 749 743 759 
f 753 746 759 
f 760 742 761 
f 742 749 762 
f 756 762 763 
f 747 756 763 
f 743 742 765 
f 742 760 765 
f 760 751 765 
f 756 745 766 
f 748 756 766 
f 745 764 766 
f 745 744 767 
f 744 757 767 
f 764 745 767 
f 757 764 767 
f 751 760 768 
f 760 761 768 
f 761 750 768 
f 744 751 769 
f 757 744 769 
f 764 757 769 
f 750 764 769 
f 768 750 769 
f 751 768 769 
f 752 741 770 
f 746 752 770 
f 741 754 770 
f 754 741 771 
f 741 758 771 
f 758 747 771 
f 755 746 772 
f 746 770 772 
f 770 754 772 
f 756 748 773 
f 761 742 773 
f 748 761 773 
f 742 762 773 
f 762 756 773 
f 751 753 774 
f 765 751 774 
f 763 755 775 
f 747 763 775 
f 754 771 775 
f 771 747 775 
f 755 772 775 
f 772 754 775 
f 761 748 776 
f 750 761 776 
f 764 750 776 
f 748 766 776 
f 766 764 776 
f 746 755 777 
f 755 749 777 
f 749 759 777 
f 759 746 777 
f 759 743 778 
f 753 759 778 
f 743 765 778 
f 774 753 778 
f 765 774 778 
f 749 755 779 
f 762 749 779 
f 763 762 779 
f 755 763 779 
f 745 756 780 
f 756 747 780 
f 758 745 780 
o convex_18
v -0.015601 -0.044444 0.036226
v -0.005844 -0.040263 0.048073
v -0.006542 -0.040263 0.048073
v -0.009330 -0.043050 0.031347
v -0.007936 -0.045838 0.034137
v -0.014903 -0.040960 0.037619
v -0.005844 -0.040263 0.039710
v -0.010028 -0.042353 0.045283
v -0.007936 -0.045838 0.031347
v -0.005844 -0.041657 0.047376
v -0.015601 -0.044444 0.038317
v -0.010724 -0.040263 0.044586
v -0.016299 -0.041657 0.036226
f 792 786 793 
f 784 786 787 
f 783 782 787 
f 781 784 789 
f 785 781 789 
f 784 787 789 
f 789 787 790 
f 782 783 790 
f 787 782 790 
f 783 788 790 
f 788 785 790 
f 785 789 790 
f 781 785 791 
f 785 788 791 
f 791 788 792 
f 787 786 792 
f 783 787 792 
f 788 783 792 
f 784 781 793 
f 786 784 793 
f 781 791 793 
f 791 792 793 
