o convex_0
v 0.026118 -0.029434 -0.023767
v 0.077560 -0.000361 -0.011091
v 0.077560 -0.000361 -0.017055
v 0.016423 -0.000361 -0.024511
v 0.016423 -0.033907 0.004565
v 0.066375 -0.035400 -0.021528
v 0.075322 -0.000361 0.004565
v 0.065627 -0.033907 0.004565
v 0.016423 -0.000361 -0.008861
v 0.064137 -0.003346 -0.024511
v 0.053700 -0.038385 -0.020783
v 0.075322 -0.023471 -0.009600
v 0.017171 -0.019741 -0.025258
v 0.055938 -0.000361 0.003073
v 0.063389 -0.029434 -0.024511
v 0.058170 -0.036893 0.004565
v 0.016423 -0.028689 -0.019288
v 0.016423 -0.007820 -0.003638
v 0.075322 -0.015275 0.004565
v 0.074574 -0.021234 -0.020036
v 0.071593 -0.000361 -0.023019
v 0.046991 -0.036893 -0.023019
v 0.058912 -0.038385 -0.006619
v 0.017171 -0.030182 0.004565
v 0.070103 -0.031674 -0.001402
v 0.046249 -0.027200 -0.025258
v 0.077560 -0.012294 -0.015561
v 0.073832 -0.027197 -0.017800
v 0.031336 -0.033163 -0.022275
v 0.076812 -0.010801 0.001578
v 0.069355 -0.021978 -0.023767
v 0.064879 -0.036144 -0.001402
v 0.052952 -0.038385 -0.008114
v 0.023886 -0.013042 -0.025258
v 0.046249 -0.033907 -0.024511
v 0.061151 -0.036893 -0.023019
v 0.073832 -0.024960 0.000089
v 0.016423 -0.033907 0.002326
v 0.067117 -0.000361 0.004565
v 0.063389 -0.037637 -0.018547
v 0.061151 -0.000361 -0.024511
v 0.070845 -0.031674 -0.020039
v 0.067117 -0.035400 -0.008861
v 0.067117 -0.013782 -0.024511
v 0.070103 -0.028689 0.004565
v 0.044011 -0.000361 0.000089
v 0.053700 -0.036893 0.004565
v 0.020899 -0.029434 -0.022275
v 0.073832 -0.009312 -0.021528
v 0.076812 -0.016764 -0.017800
v 0.045501 -0.036893 -0.022275
v 0.016423 -0.004835 -0.005130
v 0.076812 -0.004090 0.001578
v 0.072336 -0.029434 -0.008114
v 0.076064 -0.016764 0.000089
v 0.070103 -0.030922 -0.021528
v 0.016423 -0.013786 -0.025258
v 0.029846 -0.025708 -0.025258
v 0.060409 -0.038385 -0.020039
v 0.055190 -0.033907 -0.024511
v 0.059661 -0.000361 0.003817
v 0.076812 -0.016764 -0.009600
v 0.035064 -0.034656 -0.020783
v 0.076812 -0.000361 -0.018547
f 50 49 64 
f 2 3 4 
f 2 4 7 
f 7 5 8 
f 4 5 9 
f 7 4 9 
f 7 9 14 
f 8 5 16 
f 5 4 17 
f 9 5 18 
f 7 8 19 
f 4 3 21 
f 5 7 24 
f 18 5 24 
f 14 18 24 
f 3 2 27 
f 1 22 29 
f 7 19 30 
f 27 2 30 
f 8 16 32 
f 16 23 32 
f 25 8 32 
f 11 23 33 
f 26 13 34 
f 22 1 35 
f 15 6 36 
f 11 22 36 
f 22 35 36 
f 5 17 38 
f 17 29 38 
f 33 5 38 
f 11 33 38 
f 7 14 39 
f 24 7 39 
f 32 23 40 
f 4 21 41 
f 21 10 41 
f 10 26 41 
f 34 4 41 
f 26 34 41 
f 20 28 42 
f 25 32 43 
f 40 6 43 
f 32 40 43 
f 42 25 43 
f 6 42 43 
f 10 21 44 
f 26 10 44 
f 15 26 44 
f 31 15 44 
f 21 31 44 
f 19 8 45 
f 8 25 45 
f 37 19 45 
f 25 37 45 
f 14 9 46 
f 18 14 46 
f 16 5 47 
f 23 16 47 
f 5 33 47 
f 33 23 47 
f 13 1 48 
f 17 13 48 
f 29 17 48 
f 1 29 48 
f 20 31 49 
f 31 21 49 
f 3 27 50 
f 28 20 50 
f 12 28 50 
f 20 49 50 
f 22 11 51 
f 29 22 51 
f 11 38 51 
f 9 18 52 
f 46 9 52 
f 18 46 52 
f 2 7 53 
f 30 2 53 
f 7 30 53 
f 28 12 54 
f 37 25 54 
f 12 37 54 
f 42 28 54 
f 25 42 54 
f 30 19 55 
f 19 37 55 
f 37 12 55 
f 6 15 56 
f 15 31 56 
f 31 20 56 
f 20 42 56 
f 42 6 56 
f 17 4 57 
f 13 17 57 
f 4 34 57 
f 34 13 57 
f 1 13 58 
f 13 26 58 
f 35 1 58 
f 26 35 58 
f 23 11 59 
f 36 6 59 
f 11 36 59 
f 40 23 59 
f 6 40 59 
f 26 15 60 
f 35 26 60 
f 15 36 60 
f 36 35 60 
f 14 24 61 
f 39 14 61 
f 24 39 61 
f 27 30 62 
f 50 27 62 
f 12 50 62 
f 55 12 62 
f 30 55 62 
f 38 29 63 
f 29 51 63 
f 51 38 63 
f 21 3 64 
f 49 21 64 
f 3 50 64 
o convex_1
v 0.013441 -0.034659 0.032900
v -0.031294 -0.031677 0.019482
v -0.031294 -0.030931 0.019482
v 0.000019 -0.028695 0.050790
v 0.006728 -0.043604 0.023954
v 0.000019 -0.027950 0.019482
v 0.013441 -0.039874 0.019482
v -0.010411 -0.041365 0.021717
v -0.025321 -0.027950 0.028426
v 0.013441 -0.031677 0.021717
v 0.013441 -0.040620 0.032156
v 0.003001 -0.027950 0.049294
v -0.018613 -0.034659 0.029918
v 0.003001 -0.033168 0.045568
v -0.010411 -0.041365 0.019482
v -0.025321 -0.027950 0.019482
v 0.011947 -0.043604 0.020972
v -0.005200 -0.028695 0.047805
v -0.024581 -0.033168 0.026191
v 0.003001 -0.027950 0.026191
v 0.013441 -0.032422 0.019482
v 0.013441 -0.031677 0.026936
v 0.013441 -0.043604 0.024699
v -0.001474 -0.033168 0.043330
v -0.024581 -0.029440 0.029173
v -0.005200 -0.027950 0.047805
v -0.027559 -0.033913 0.020227
v 0.003001 -0.030931 0.048550
v 0.013441 -0.038383 0.033645
v 0.003746 -0.027950 0.043330
f 76 86 94 
f 66 67 70 
f 66 70 71 
f 67 66 73 
f 65 71 74 
f 71 65 75 
f 70 73 76 
f 72 69 78 
f 69 75 78 
f 66 71 79 
f 69 72 79 
f 70 67 80 
f 67 73 80 
f 73 70 80 
f 69 79 81 
f 79 71 81 
f 77 82 83 
f 74 70 84 
f 70 76 84 
f 71 70 85 
f 70 74 85 
f 74 71 85 
f 65 74 86 
f 76 65 86 
f 75 69 87 
f 71 75 87 
f 69 81 87 
f 81 71 87 
f 77 72 88 
f 72 78 88 
f 78 68 88 
f 68 82 88 
f 82 77 88 
f 73 66 89 
f 66 83 89 
f 83 82 89 
f 68 76 90 
f 76 73 90 
f 82 68 90 
f 73 89 90 
f 89 82 90 
f 72 77 91 
f 66 79 91 
f 79 72 91 
f 83 66 91 
f 77 83 91 
f 76 68 92 
f 78 75 92 
f 68 78 92 
f 75 65 93 
f 65 76 93 
f 76 92 93 
f 92 75 93 
f 74 84 94 
f 84 76 94 
f 86 74 94 
o convex_2
v -0.059617 -0.029435 -0.002895
v -0.037260 0.002621 -0.013327
v -0.017873 0.002613 -0.014818
v -0.026822 -0.036144 -0.023766
v -0.017873 -0.039123 0.000837
v -0.071552 0.002621 0.000837
v -0.068566 0.002621 -0.014818
v -0.030548 0.002613 0.000837
v -0.017873 0.002613 -0.024513
v -0.067075 -0.021978 -0.013327
v -0.017873 -0.039123 -0.021530
v -0.040247 -0.038379 -0.018545
v -0.068566 -0.017512 0.000837
v -0.038006 0.002621 -0.023021
v -0.048439 -0.030176 -0.020039
v -0.040992 -0.036144 0.000837
v -0.073042 -0.005581 -0.009605
v -0.031293 -0.040618 -0.010352
v -0.017873 -0.030180 0.000837
v -0.053661 -0.033160 -0.016309
v -0.048439 -0.036144 -0.007367
v -0.017873 -0.036144 -0.023766
v -0.067826 -0.022723 -0.008858
v -0.064839 -0.000362 -0.016309
v -0.028312 0.001123 -0.024513
v -0.029057 -0.039868 -0.021530
v -0.061858 -0.022723 -0.016309
v -0.033534 -0.034650 -0.023019
v -0.072297 -0.012294 -0.007367
v -0.072297 0.002621 -0.011838
v -0.022350 -0.040618 -0.011838
v -0.058132 -0.027941 0.000837
v -0.070807 -0.012294 -0.012580
v -0.062604 -0.027941 -0.012580
v -0.044718 -0.035399 -0.020039
v -0.071552 -0.007075 0.000837
v -0.066330 -0.022723 -0.000657
v -0.035025 -0.037634 0.000837
v -0.017873 -0.012294 -0.024513
v -0.041737 0.001872 -0.022272
v -0.038751 -0.039128 -0.008858
v -0.073042 0.002621 -0.005875
v -0.070807 -0.017512 -0.008858
v -0.058132 -0.029435 -0.016309
v -0.054406 -0.033160 -0.005875
v -0.067826 -0.010059 -0.014818
v -0.041737 -0.033160 -0.021528
v -0.070056 -0.016023 -0.000657
v -0.029803 0.001123 0.000837
v -0.035025 -0.038379 -0.021530
v -0.048439 -0.036144 -0.011838
v -0.061858 -0.027941 -0.002895
v -0.024586 -0.040618 -0.016309
v -0.033534 -0.039868 -0.019292
v -0.022350 -0.039123 0.000837
v -0.017873 -0.039868 -0.010352
f 125 105 150 
f 100 96 101 
f 97 96 102 
f 100 99 102 
f 96 100 102 
f 96 97 103 
f 97 99 103 
f 103 99 105 
f 99 100 107 
f 101 96 108 
f 96 103 108 
f 99 107 110 
f 99 97 113 
f 102 99 113 
f 103 105 116 
f 108 103 119 
f 98 116 120 
f 116 105 120 
f 118 109 121 
f 119 98 122 
f 108 119 122 
f 100 101 124 
f 99 112 125 
f 95 110 126 
f 110 107 126 
f 124 101 127 
f 111 124 127 
f 117 104 128 
f 106 114 129 
f 107 100 130 
f 111 123 130 
f 126 107 131 
f 99 110 132 
f 116 98 133 
f 103 116 133 
f 98 119 133 
f 119 103 133 
f 101 108 134 
f 118 101 134 
f 109 118 134 
f 110 115 135 
f 132 110 135 
f 112 132 135 
f 100 124 136 
f 124 111 136 
f 130 100 136 
f 111 130 136 
f 104 117 137 
f 123 111 137 
f 127 104 137 
f 111 127 137 
f 117 131 137 
f 104 121 138 
f 121 109 138 
f 128 104 138 
f 114 128 138 
f 129 114 138 
f 109 129 138 
f 110 95 139 
f 115 110 139 
f 128 114 139 
f 101 118 140 
f 121 104 140 
f 118 121 140 
f 127 101 140 
f 104 127 140 
f 108 122 141 
f 129 109 141 
f 134 108 141 
f 109 134 141 
f 107 130 142 
f 130 123 142 
f 131 107 142 
f 123 137 142 
f 137 131 142 
f 97 102 143 
f 113 97 143 
f 102 113 143 
f 98 120 144 
f 122 98 144 
f 106 129 144 
f 141 122 144 
f 129 141 144 
f 114 106 145 
f 106 135 145 
f 135 115 145 
f 115 139 145 
f 139 114 145 
f 95 126 146 
f 117 128 146 
f 131 117 146 
f 126 131 146 
f 139 95 146 
f 128 139 146 
f 120 105 147 
f 105 125 147 
f 125 112 147 
f 135 106 148 
f 112 135 148 
f 106 144 148 
f 144 120 148 
f 120 147 148 
f 147 112 148 
f 112 99 149 
f 99 132 149 
f 132 112 149 
f 105 99 150 
f 99 125 150 
o convex_3
v 0.013438 -0.013041 -0.025258
v -0.017873 -0.039123 -0.021529
v -0.017873 -0.039123 0.000837
v -0.017873 0.002621 -0.024512
v 0.016423 0.002621 -0.008114
v 0.016423 -0.033162 0.000837
v -0.017873 0.002621 -0.014819
v 0.016423 -0.027941 -0.020035
v 0.016423 0.002621 -0.024512
v -0.004452 -0.024959 0.000088
v -0.011908 -0.031673 -0.024512
v -0.005942 -0.039876 0.000088
v 0.012693 -0.005586 -0.004387
v 0.016423 -0.018253 -0.025258
v 0.016423 -0.020487 0.000088
v -0.017873 -0.033911 0.000837
v 0.004492 -0.004837 -0.005873
v 0.006728 -0.036894 0.000088
v -0.017125 -0.036145 -0.023767
v -0.005197 -0.024959 -0.025258
v -0.013398 -0.038383 -0.020783
v 0.016423 -0.029435 -0.016308
v -0.011159 -0.036145 -0.023021
v -0.017125 -0.029431 -0.024512
v 0.013438 0.002621 -0.008114
v 0.015674 -0.028690 0.000837
v -0.007433 -0.039876 0.000837
v -0.017873 -0.036145 -0.023767
f 174 161 178 
f 152 153 154 
f 154 153 157 
f 155 154 157 
f 155 156 158 
f 151 154 159 
f 154 155 159 
f 155 158 159 
f 151 159 164 
f 159 158 164 
f 156 155 165 
f 155 163 165 
f 163 160 165 
f 153 156 166 
f 157 153 166 
f 165 160 166 
f 160 163 167 
f 157 166 167 
f 166 160 167 
f 161 164 169 
f 154 151 170 
f 151 164 170 
f 164 161 170 
f 162 152 171 
f 168 162 171 
f 158 156 172 
f 156 168 172 
f 171 158 172 
f 168 171 172 
f 164 158 173 
f 152 169 173 
f 169 164 173 
f 171 152 173 
f 158 171 173 
f 154 170 174 
f 170 161 174 
f 155 157 175 
f 163 155 175 
f 157 167 175 
f 167 163 175 
f 156 165 176 
f 166 156 176 
f 165 166 176 
f 153 152 177 
f 156 153 177 
f 152 162 177 
f 168 156 177 
f 162 168 177 
f 152 154 178 
f 169 152 178 
f 161 169 178 
f 154 174 178 
o convex_4
v -0.067073 0.025734 -0.014076
v -0.011909 0.048847 -0.018547
v -0.011909 0.048847 -0.020783
v -0.011909 0.002621 -0.014076
v -0.013405 0.045114 -0.005128
v -0.072298 0.002626 -0.005128
v -0.028312 0.002621 -0.024511
v -0.055894 0.036915 -0.005128
v -0.039503 0.042879 -0.022273
v -0.034279 0.002626 -0.005128
v -0.064841 0.002626 -0.016310
v -0.011909 0.007101 -0.025258
v -0.019371 0.039892 -0.025258
v -0.043219 0.027969 -0.023020
v -0.035027 0.045861 -0.010350
v -0.011909 0.038404 -0.005128
v -0.044715 0.043625 -0.017800
v -0.070060 0.020517 -0.005128
v -0.072298 0.010825 -0.011839
v -0.023842 0.048847 -0.022275
v -0.061113 0.024988 -0.017800
v -0.011909 0.043625 -0.024511
v -0.057385 0.036168 -0.016310
v -0.020113 0.020522 -0.005128
v -0.026822 0.033933 -0.025258
v -0.011909 0.002621 -0.024511
v -0.042477 0.004861 -0.022273
v -0.065583 0.029458 -0.008858
v -0.024584 0.047354 -0.009603
v -0.029802 0.044367 -0.005128
v -0.070060 0.002626 -0.014076
v -0.052166 0.019775 -0.020783
v -0.049934 0.035422 -0.020783
v -0.033531 0.042879 -0.023767
v -0.026822 0.048847 -0.019294
v -0.049186 0.040639 -0.006621
v -0.059623 0.035422 -0.013331
v -0.065583 0.019028 -0.016310
v -0.071550 0.017540 -0.009603
v -0.038755 0.022757 -0.023767
v -0.052914 0.038404 -0.018547
v -0.011909 0.047354 -0.011092
v -0.033531 0.037657 -0.024511
v -0.036517 0.045861 -0.021530
v -0.011909 0.038404 -0.025258
v -0.061113 0.033187 -0.005128
v -0.073046 0.002626 -0.010350
v -0.073046 0.008590 -0.007366
v -0.023094 0.044367 -0.024511
v -0.026822 0.025734 -0.025258
v -0.038755 0.045861 -0.017800
v -0.055146 0.038404 -0.014821
v -0.011909 0.046603 -0.023767
v -0.016385 0.048847 -0.015565
v -0.034279 0.002626 -0.023767
v -0.043219 0.022010 -0.023020
v -0.069312 0.022757 -0.012586
v -0.067821 0.007848 -0.015564
v -0.063351 0.030947 -0.014821
v -0.043967 0.037662 -0.022273
v -0.059623 0.029458 -0.017800
v -0.030550 0.046603 -0.023020
v -0.070802 0.012318 -0.013331
f 216 236 241 
f 181 180 182 
f 182 184 185 
f 184 183 186 
f 184 182 188 
f 183 184 188 
f 181 182 190 
f 182 180 194 
f 183 188 194 
f 184 186 196 
f 180 181 198 
f 181 190 200 
f 188 182 202 
f 182 194 202 
f 194 188 202 
f 191 190 203 
f 182 185 204 
f 190 182 204 
f 185 190 204 
f 186 183 208 
f 183 207 208 
f 207 193 208 
f 189 185 209 
f 205 189 210 
f 192 210 211 
f 210 199 211 
f 180 198 213 
f 193 207 213 
f 186 208 214 
f 208 193 214 
f 199 210 216 
f 187 211 219 
f 194 180 220 
f 183 194 220 
f 207 183 220 
f 191 203 221 
f 218 192 221 
f 213 198 222 
f 187 219 222 
f 219 195 222 
f 190 191 223 
f 200 190 223 
f 191 200 223 
f 196 186 224 
f 206 196 224 
f 215 206 224 
f 186 215 224 
f 185 184 225 
f 209 185 225 
f 197 209 225 
f 184 196 226 
f 196 217 226 
f 217 197 226 
f 225 184 226 
f 197 225 226 
f 200 191 227 
f 191 221 227 
f 221 212 227 
f 190 185 228 
f 203 190 228 
f 185 218 228 
f 221 203 228 
f 218 221 228 
f 193 213 229 
f 195 214 229 
f 214 193 229 
f 222 195 229 
f 213 222 229 
f 186 214 230 
f 214 195 230 
f 201 215 230 
f 215 186 230 
f 195 219 230 
f 219 201 230 
f 198 181 231 
f 181 200 231 
f 200 227 231 
f 227 198 231 
f 180 213 232 
f 213 207 232 
f 220 180 232 
f 207 220 232 
f 185 189 233 
f 189 205 233 
f 218 185 233 
f 218 233 234 
f 210 192 234 
f 205 210 234 
f 192 218 234 
f 233 205 234 
f 206 179 235 
f 196 206 235 
f 217 196 235 
f 197 217 235 
f 189 209 236 
f 210 189 236 
f 216 210 236 
f 179 206 237 
f 215 201 237 
f 206 215 237 
f 201 219 237 
f 211 187 238 
f 192 211 238 
f 187 212 238 
f 221 192 238 
f 212 221 238 
f 211 199 239 
f 216 179 239 
f 199 216 239 
f 219 211 239 
f 179 237 239 
f 237 219 239 
f 212 187 240 
f 187 222 240 
f 222 198 240 
f 198 227 240 
f 227 212 240 
f 209 197 241 
f 179 216 241 
f 235 179 241 
f 197 235 241 
f 236 209 241 
o convex_5
v -0.003705 0.046603 -0.016308
v -0.011909 0.002621 -0.024510
v 0.016423 0.002621 -0.024510
v 0.016423 0.002621 -0.008111
v -0.011909 0.039146 -0.005128
v 0.016423 0.037662 -0.006619
v -0.011909 0.045861 -0.023765
v 0.016423 0.027969 -0.025258
v -0.011909 0.002621 -0.014076
v 0.004490 0.042879 -0.022273
v -0.011909 0.044367 -0.005128
v 0.016423 0.027969 -0.005128
v -0.011163 0.036164 -0.025258
v 0.016423 0.036168 -0.020038
v -0.011909 0.007843 -0.025258
v -0.002216 0.002621 -0.011092
v -0.000724 0.043625 -0.005128
v -0.011163 0.048847 -0.018545
v 0.013436 0.002621 -0.008111
v -0.001470 0.041390 -0.024510
v 0.015677 0.038404 -0.013331
v 0.004490 0.043625 -0.013331
v -0.006690 0.047354 -0.022273
v 0.016423 0.036168 -0.005128
v -0.011909 0.047354 -0.011092
v -0.000724 0.045861 -0.020038
v 0.001514 0.044367 -0.010348
v -0.010417 0.002621 -0.013331
v -0.002959 0.037657 -0.025258
v 0.016423 0.030205 -0.024510
f 249 261 271 
f 243 244 245 
f 245 244 247 
f 243 246 248 
f 247 244 249 
f 243 245 250 
f 246 243 250 
f 248 246 252 
f 245 247 253 
f 252 246 253 
f 247 249 255 
f 244 243 256 
f 243 248 256 
f 249 244 256 
f 248 254 256 
f 254 249 256 
f 250 245 257 
f 252 253 258 
f 245 253 260 
f 253 246 260 
f 257 245 260 
f 246 257 260 
f 247 255 262 
f 255 251 262 
f 247 262 263 
f 248 259 264 
f 261 248 264 
f 251 261 264 
f 253 247 265 
f 247 258 265 
f 258 253 265 
f 248 252 266 
f 252 258 266 
f 259 248 266 
f 259 242 267 
f 262 251 267 
f 242 263 267 
f 263 262 267 
f 264 259 267 
f 251 264 267 
f 258 247 268 
f 242 259 268 
f 263 242 268 
f 247 263 268 
f 266 258 268 
f 259 266 268 
f 246 250 269 
f 257 246 269 
f 250 257 269 
f 254 248 270 
f 249 254 270 
f 248 261 270 
f 261 249 270 
f 255 249 271 
f 251 255 271 
f 261 251 271 
o convex_6
v 0.076064 0.007098 -0.003641
v 0.016423 -0.000359 -0.024513
v 0.016423 -0.000359 -0.008113
v 0.016423 0.020515 -0.023767
v 0.071593 -0.000359 -0.023018
v 0.067117 0.020515 0.004565
v 0.070103 0.020515 -0.020781
v 0.075322 -0.000359 0.004565
v 0.016423 0.020515 -0.006621
v 0.055932 -0.000359 0.003073
v 0.063395 0.020515 -0.023767
v 0.077560 -0.000359 -0.017056
v 0.058170 0.020515 0.004565
v 0.055932 0.003368 -0.024513
v 0.074574 0.014548 -0.018547
v 0.023886 0.020515 -0.024513
v 0.072336 0.016038 0.000087
v 0.046991 -0.000359 0.000836
v 0.071593 0.019769 -0.013327
v 0.069355 -0.000359 -0.023767
v 0.071593 0.012313 -0.022273
v 0.074574 0.006352 0.004565
v 0.066375 -0.000359 0.004565
v 0.043263 0.020515 -0.024513
v 0.016423 0.017530 -0.006621
v 0.076064 0.007842 -0.019290
v 0.076064 0.010077 -0.013327
v 0.076812 0.001131 -0.002895
v 0.069355 0.020515 0.000087
v 0.068613 0.010077 -0.023767
v 0.055932 -0.000359 -0.024513
v 0.073832 0.014548 -0.005130
v 0.075322 0.008588 0.000087
f 303 288 304 
f 273 274 275 
f 274 273 276 
f 275 277 278 
f 274 276 279 
f 275 274 280 
f 277 275 280 
f 274 279 281 
f 275 278 282 
f 279 276 283 
f 279 277 284 
f 277 280 284 
f 273 275 287 
f 275 282 287 
f 285 273 287 
f 274 281 289 
f 281 284 289 
f 286 278 290 
f 276 273 291 
f 282 278 292 
f 278 286 292 
f 277 279 293 
f 288 277 293 
f 281 279 294 
f 279 284 294 
f 284 281 294 
f 282 285 295 
f 287 282 295 
f 285 287 295 
f 280 274 296 
f 284 280 296 
f 274 289 296 
f 289 284 296 
f 283 276 297 
f 276 292 297 
f 292 286 297 
f 283 297 298 
f 297 286 298 
f 279 283 299 
f 298 272 299 
f 283 298 299 
f 278 277 300 
f 277 288 300 
f 290 278 300 
f 288 290 300 
f 285 282 301 
f 276 291 301 
f 291 285 301 
f 282 292 301 
f 292 276 301 
f 273 285 302 
f 291 273 302 
f 285 291 302 
f 286 290 303 
f 290 288 303 
f 298 286 303 
f 298 303 304 
f 293 279 304 
f 288 293 304 
f 272 298 304 
f 279 299 304 
f 299 272 304 
o convex_7
v 0.064883 0.026481 -0.017056
v 0.016423 0.020515 -0.024513
v 0.016423 0.020515 -0.006621
v 0.016423 0.037663 -0.006621
v 0.066375 0.020515 0.004565
v 0.017915 0.035424 0.004565
v 0.032081 0.033935 -0.022273
v 0.064883 0.020515 -0.023021
v 0.055933 0.029462 -0.005133
v 0.017174 0.029462 -0.024513
v 0.050711 0.031696 -0.020784
v 0.016423 0.031696 0.004565
v 0.062645 0.024243 0.004565
v 0.045496 0.022754 0.004565
v 0.016423 0.036915 -0.017056
v 0.070850 0.021262 -0.016310
v 0.053695 0.026483 -0.023767
v 0.064883 0.025736 -0.021527
v 0.018666 0.037663 -0.007367
v 0.065629 0.024989 -0.005130
v 0.043263 0.020515 -0.024513
v 0.044750 0.033187 -0.018544
v 0.055933 0.028717 -0.001401
v 0.017174 0.020515 -0.005875
v 0.029849 0.029462 -0.024513
v 0.057424 0.020515 0.004565
v 0.016423 0.034679 -0.020784
v 0.068612 0.021262 0.000087
v 0.070850 0.020515 -0.018547
v 0.017174 0.037663 -0.014073
v 0.053695 0.030207 -0.022273
v 0.060408 0.028717 -0.020038
v 0.060408 0.027971 -0.005133
v 0.048479 0.032443 -0.017056
v 0.024633 0.028717 0.004565
v 0.017174 0.036171 0.002327
v 0.058170 0.025736 0.004565
v 0.059662 0.023498 -0.023767
f 321 335 342 
f 306 307 308 
f 307 306 309 
f 309 306 312 
f 308 307 316 
f 309 310 316 
f 310 309 317 
f 309 316 318 
f 306 308 319 
f 305 320 322 
f 320 305 324 
f 312 306 325 
f 306 314 325 
f 315 311 326 
f 307 309 328 
f 316 307 328 
f 314 311 329 
f 325 314 329 
f 309 318 330 
f 328 309 330 
f 318 328 330 
f 314 306 331 
f 311 314 331 
f 306 319 331 
f 319 311 331 
f 317 309 332 
f 324 317 332 
f 320 324 332 
f 309 312 333 
f 322 320 333 
f 312 322 333 
f 332 309 333 
f 320 332 333 
f 319 308 334 
f 311 319 334 
f 308 323 334 
f 326 311 334 
f 323 326 334 
f 311 315 335 
f 329 311 335 
f 321 329 335 
f 305 322 336 
f 335 315 336 
f 322 335 336 
f 324 305 337 
f 317 324 337 
f 327 317 337 
f 313 327 337 
f 305 336 337 
f 336 313 337 
f 323 313 338 
f 315 326 338 
f 326 323 338 
f 313 336 338 
f 336 315 338 
f 318 316 339 
f 316 328 339 
f 328 318 339 
f 308 316 340 
f 316 310 340 
f 323 308 340 
f 313 323 340 
f 310 327 340 
f 327 313 340 
f 310 317 341 
f 327 310 341 
f 317 327 341 
f 322 312 342 
f 312 325 342 
f 329 321 342 
f 325 329 342 
f 335 322 342 
o convex_8
v 0.046245 0.022008 0.005310
v 0.020154 0.035427 0.019476
v 0.020154 0.035427 0.018730
v 0.058172 0.025734 0.004565
v 0.058921 0.016042 0.019476
v 0.016423 0.031698 0.004565
v 0.017916 0.027969 0.019476
v 0.016423 0.035427 0.004565
v 0.052955 0.022755 0.019476
v 0.058921 0.020516 0.004565
v 0.052955 0.016787 0.017238
v 0.016423 0.035427 0.019476
v 0.058921 0.024990 0.007548
v 0.043263 0.021262 0.009786
v 0.016423 0.028713 0.017238
v 0.058921 0.019770 0.019476
v 0.044748 0.026478 0.019476
v 0.017916 0.035427 0.004565
v 0.026864 0.027969 0.004565
v 0.052202 0.016787 0.019476
f 353 347 362 
f 345 344 346 
f 347 344 349 
f 344 345 350 
f 346 348 350 
f 344 347 351 
f 348 346 352 
f 343 352 353 
f 352 347 353 
f 349 344 354 
f 344 350 354 
f 350 348 354 
f 346 344 355 
f 347 352 355 
f 352 346 355 
f 343 353 356 
f 356 353 357 
f 353 349 357 
f 354 348 357 
f 349 354 357 
f 351 347 358 
f 355 351 358 
f 347 355 358 
f 344 351 359 
f 355 344 359 
f 351 355 359 
f 345 346 360 
f 350 345 360 
f 346 350 360 
f 352 343 361 
f 348 352 361 
f 343 356 361 
f 356 357 361 
f 357 348 361 
f 347 349 362 
f 349 353 362 
o convex_9
v 0.071593 0.012314 0.017984
v 0.058921 0.016041 0.017984
v 0.061905 0.011570 0.004565
v 0.070104 -0.000361 0.019476
v 0.075323 -0.000361 0.004565
v 0.064887 0.022750 0.004565
v 0.067122 -0.000361 0.004565
v 0.063395 0.019768 0.019476
v 0.058921 0.024989 0.004565
v 0.075323 -0.000361 0.019476
v 0.073083 0.010825 0.004565
v 0.058921 0.019768 0.019476
v 0.067865 0.019768 0.009038
v 0.061160 0.024242 0.010530
v 0.067865 0.016783 0.019476
v 0.074577 0.006351 0.011276
v 0.058921 0.019768 0.004565
v 0.058921 0.016041 0.019476
v 0.070104 0.016783 0.004565
v 0.073083 0.008587 0.019476
v 0.064140 0.022750 0.010530
v 0.075323 0.003371 0.006056
v 0.072340 0.012314 0.012020
f 382 378 385 
f 367 365 368 
f 364 365 369 
f 367 366 369 
f 365 367 369 
f 368 365 371 
f 366 367 372 
f 370 366 372 
f 367 368 373 
f 366 370 374 
f 371 364 374 
f 368 371 376 
f 374 370 376 
f 371 374 376 
f 370 372 377 
f 363 375 377 
f 365 364 379 
f 371 365 379 
f 364 371 379 
f 364 369 380 
f 369 366 380 
f 374 364 380 
f 366 374 380 
f 373 368 381 
f 368 375 381 
f 363 377 382 
f 377 372 382 
f 372 378 382 
f 375 368 383 
f 368 376 383 
f 376 370 383 
f 377 375 383 
f 370 377 383 
f 372 367 384 
f 367 373 384 
f 378 372 384 
f 373 378 384 
f 375 363 385 
f 378 373 385 
f 373 381 385 
f 381 375 385 
f 363 382 385 
o convex_10
v 0.000019 -0.023472 0.054512
v -0.029057 -0.016020 0.019480
v -0.029057 -0.013038 0.019480
v 0.000764 -0.026454 0.020972
v 0.005982 -0.013038 0.047057
v -0.024579 -0.027947 0.029919
v -0.011902 -0.013038 0.053767
v -0.011902 -0.013038 0.019480
v 0.002997 -0.027947 0.048550
v -0.024579 -0.027947 0.019480
v 0.008967 -0.021235 0.034393
v -0.009673 -0.026454 0.051531
v -0.018613 -0.014529 0.047057
v 0.005238 -0.013038 0.054512
v -0.000729 -0.027947 0.019480
v 0.008219 -0.024962 0.039603
v -0.010417 -0.021981 0.054512
v 0.000019 -0.013038 0.057500
v 0.007475 -0.019748 0.032900
v 0.001508 -0.027947 0.051531
v 0.006730 -0.026454 0.033644
v 0.008967 -0.021981 0.041840
v -0.018613 -0.021981 0.044076
v -0.024579 -0.023472 0.032156
v 0.005982 -0.014529 0.041840
v -0.018613 -0.013038 0.047057
v 0.002256 -0.027947 0.023953
v -0.004454 -0.018256 0.056749
v -0.000729 -0.025708 0.019480
v 0.002256 -0.013783 0.057500
v 0.008967 -0.019002 0.041840
v 0.008219 -0.018256 0.036629
v -0.023835 -0.016020 0.034393
v -0.005199 -0.027947 0.048550
v 0.008967 -0.023472 0.034393
v -0.009673 -0.024218 0.053767
v 0.002256 -0.027947 0.050786
f 415 405 422 
f 390 388 392 
f 387 388 393 
f 388 390 393 
f 394 391 395 
f 391 387 395 
f 387 393 395 
f 390 392 399 
f 394 395 400 
f 395 393 400 
f 392 398 402 
f 399 392 403 
f 396 389 404 
f 391 394 405 
f 401 394 406 
f 391 397 408 
f 402 398 408 
f 387 391 409 
f 391 408 409 
f 408 398 409 
f 393 390 410 
f 392 388 411 
f 398 392 411 
f 400 389 412 
f 394 400 412 
f 406 394 412 
f 392 402 413 
f 403 392 413 
f 389 400 414 
f 400 393 414 
f 404 389 414 
f 393 404 414 
f 399 403 415 
f 386 405 415 
f 413 386 415 
f 403 413 415 
f 390 399 416 
f 407 396 416 
f 399 407 416 
f 404 393 417 
f 396 404 417 
f 410 390 417 
f 393 410 417 
f 390 416 417 
f 416 396 417 
f 388 387 418 
f 387 409 418 
f 409 398 418 
f 411 388 418 
f 398 411 418 
f 397 391 419 
f 391 405 419 
f 405 397 419 
f 389 396 420 
f 401 406 420 
f 396 407 420 
f 407 401 420 
f 412 389 420 
f 406 412 420 
f 405 386 421 
f 397 405 421 
f 408 397 421 
f 402 408 421 
f 386 413 421 
f 413 402 421 
f 394 401 422 
f 405 394 422 
f 407 399 422 
f 401 407 422 
f 399 415 422 
o convex_11
v -0.017126 0.003367 0.019476
v -0.002962 0.018278 0.028423
v -0.002962 0.017533 0.028423
v -0.022344 0.005605 0.028423
v -0.023088 0.018278 0.019476
v -0.021598 0.018278 0.028423
v -0.029057 0.003367 0.019476
v -0.009672 0.018278 0.019476
v -0.011164 0.003367 0.028423
v -0.022344 0.003367 0.028423
v -0.005948 0.017533 0.023205
v -0.026819 0.011567 0.020223
v -0.029057 0.004113 0.020223
v -0.011164 0.003367 0.027676
f 423 433 436 
f 425 424 426 
f 424 427 428 
f 426 424 428 
f 427 423 429 
f 423 427 430 
f 427 424 430 
f 425 426 431 
f 429 423 431 
f 429 431 432 
f 431 426 432 
f 424 425 433 
f 423 430 433 
f 430 424 433 
f 428 427 434 
f 427 429 434 
f 434 429 435 
f 426 428 435 
f 429 432 435 
f 432 426 435 
f 428 434 435 
f 431 423 436 
f 425 431 436 
f 433 425 436 
o convex_12
v -0.022347 0.018278 0.020223
v 0.000020 0.040646 0.020223
v 0.000020 0.040646 0.019476
v 0.013441 0.028718 0.019476
v 0.013441 0.030953 0.028423
v -0.016381 0.030953 0.028423
v -0.001472 0.018278 0.028423
v -0.020855 0.033933 0.019476
v -0.021601 0.018278 0.028423
v 0.003001 0.019025 0.019476
v 0.013441 0.039150 0.024694
v -0.006688 0.035424 0.028423
v 0.013441 0.039150 0.020223
v -0.008180 0.039899 0.020968
v -0.022347 0.031695 0.022459
v 0.004494 0.021263 0.028423
v 0.013441 0.036170 0.028423
v -0.022347 0.018278 0.019476
v -0.015631 0.033933 0.026186
v 0.013441 0.028718 0.025440
v -0.000726 0.018278 0.019476
v -0.021601 0.022756 0.028423
v 0.005236 0.039899 0.023205
v 0.013441 0.036170 0.019476
v -0.006688 0.040646 0.019476
f 450 459 461 
f 441 442 443 
f 439 440 444 
f 443 442 445 
f 437 443 445 
f 444 440 446 
f 439 438 447 
f 441 440 447 
f 442 441 448 
f 439 447 449 
f 447 440 449 
f 437 445 451 
f 441 443 452 
f 443 446 452 
f 441 447 453 
f 448 441 453 
f 447 448 453 
f 443 437 454 
f 444 446 454 
f 437 451 454 
f 451 444 454 
f 442 448 455 
f 450 444 455 
f 448 450 455 
f 444 451 455 
f 451 442 455 
f 440 441 456 
f 446 440 456 
f 441 452 456 
f 452 446 456 
f 446 443 457 
f 443 454 457 
f 454 446 457 
f 445 442 458 
f 442 451 458 
f 451 445 458 
f 447 438 459 
f 448 447 459 
f 450 448 459 
f 440 439 460 
f 439 449 460 
f 449 440 460 
f 438 439 461 
f 439 444 461 
f 444 450 461 
f 459 438 461 
o convex_13
v -0.020852 0.009331 0.029171
v 0.005239 0.011568 0.056749
v 0.004493 0.011568 0.057497
v 0.003747 0.003367 0.060480
v -0.010417 0.003367 0.028423
v -0.014891 0.003367 0.051534
v -0.012650 0.011568 0.052279
v -0.008181 0.011568 0.028423
v 0.005239 0.010822 0.049296
v -0.021601 0.003367 0.028423
v -0.000727 0.005604 0.061228
v -0.020109 0.011568 0.028423
v 0.003747 0.003367 0.054517
v -0.016381 0.011568 0.045571
v 0.000016 0.011568 0.058990
v -0.001473 0.003367 0.061228
v -0.021601 0.004114 0.029916
v -0.007437 0.010822 0.029171
v 0.004493 0.011568 0.047806
v -0.015635 0.004859 0.050041
v 0.002255 0.005604 0.061228
f 472 477 482 
f 463 464 465 
f 466 465 467 
f 464 463 468 
f 468 463 469 
f 463 465 470 
f 466 467 471 
f 469 466 471 
f 468 469 473 
f 471 462 473 
f 469 471 473 
f 465 466 474 
f 470 465 474 
f 466 470 474 
f 473 462 475 
f 468 473 475 
f 464 468 476 
f 468 472 476 
f 467 465 477 
f 468 467 477 
f 472 468 477 
f 462 471 478 
f 471 467 478 
f 475 462 478 
f 466 469 479 
f 470 466 479 
f 470 479 480 
f 469 463 480 
f 463 470 480 
f 479 469 480 
f 467 468 481 
f 468 475 481 
f 478 467 481 
f 475 478 481 
f 465 464 482 
f 464 476 482 
f 476 472 482 
f 477 465 482 
o convex_14
v 0.005239 0.027969 0.049296
v -0.021601 0.016043 0.028423
v -0.021601 0.022009 0.028423
v 0.013441 0.030207 0.028423
v 0.004492 0.011568 0.057499
v -0.007432 0.011568 0.028423
v -0.008924 0.026479 0.051535
v -0.008924 0.034677 0.028423
v -0.013400 0.011568 0.051535
v 0.013441 0.036172 0.029915
v 0.009712 0.019025 0.035134
v -0.002962 0.020515 0.056754
v -0.019358 0.011568 0.028423
v 0.005239 0.011568 0.047804
v -0.016381 0.030207 0.029170
v 0.002999 0.031697 0.042593
v -0.011160 0.020515 0.053026
v -0.000726 0.011568 0.058246
v 0.013441 0.033935 0.032898
v 0.005984 0.011568 0.053771
v -0.021601 0.015296 0.032154
v -0.016381 0.021262 0.042593
v 0.002999 0.026479 0.052276
v 0.006728 0.020515 0.029915
v -0.004447 0.035426 0.029170
v 0.010456 0.020515 0.039612
v 0.013441 0.036172 0.028423
v 0.005984 0.015296 0.054515
v -0.016381 0.011568 0.045571
v -0.007432 0.027969 0.049296
v -0.012652 0.033188 0.029170
v 0.005239 0.029460 0.047804
v -0.016381 0.023499 0.040354
v 0.000019 0.023499 0.055262
v -0.016381 0.014552 0.045571
v 0.000763 0.033188 0.038118
v 0.013441 0.030948 0.032898
v -0.020109 0.012315 0.035134
v -0.011908 0.016792 0.053026
v 0.002999 0.012315 0.058246
f 505 516 522 
f 484 485 486 
f 484 486 488 
f 486 485 490 
f 488 487 491 
f 484 488 495 
f 488 491 495 
f 487 488 496 
f 488 493 496 
f 490 485 497 
f 494 489 499 
f 491 487 500 
f 486 492 501 
f 487 496 502 
f 496 493 502 
f 485 484 503 
f 484 495 503 
f 499 489 504 
f 485 503 504 
f 488 486 506 
f 486 493 506 
f 493 488 506 
f 493 486 508 
f 502 493 508 
f 486 490 509 
f 492 486 509 
f 490 507 509 
f 507 492 509 
f 501 483 510 
f 487 502 510 
f 483 505 510 
f 505 487 510 
f 495 491 511 
f 507 490 512 
f 497 489 513 
f 490 497 513 
f 489 512 513 
f 512 490 513 
f 492 498 514 
f 483 501 514 
f 501 492 514 
f 505 483 514 
f 489 505 514 
f 512 489 514 
f 498 512 514 
f 497 485 515 
f 489 497 515 
f 485 504 515 
f 504 489 515 
f 489 494 516 
f 505 489 516 
f 499 504 517 
f 504 503 517 
f 511 491 517 
f 503 511 517 
f 498 492 518 
f 492 507 518 
f 512 498 518 
f 507 512 518 
f 486 501 519 
f 508 486 519 
f 502 508 519 
f 501 510 519 
f 510 502 519 
f 503 495 520 
f 495 511 520 
f 511 503 520 
f 494 499 521 
f 500 494 521 
f 491 500 521 
f 517 491 521 
f 499 517 521 
f 494 500 522 
f 500 487 522 
f 487 505 522 
f 516 494 522 
o convex_15
v 0.033570 -0.035405 0.038115
v 0.013441 -0.039876 0.019476
v 0.013441 -0.042859 0.021713
v 0.035062 -0.036149 0.019476
v 0.013441 -0.031676 0.026189
v 0.035062 -0.042112 0.030659
v 0.013441 -0.039876 0.032895
v 0.035062 -0.031676 0.019476
v 0.035062 -0.031676 0.036623
v 0.013441 -0.032421 0.019476
v 0.013441 -0.034659 0.032895
v 0.034315 -0.030184 0.026933
v 0.030586 -0.042112 0.025444
v 0.025369 -0.039876 0.035132
v 0.014188 -0.042112 0.029166
v 0.033570 -0.030184 0.031403
v 0.024624 -0.039130 0.019476
v 0.035062 -0.036149 0.038115
v 0.029843 -0.042859 0.028425
v 0.013441 -0.038383 0.033640
v 0.034315 -0.033166 0.038115
v 0.013441 -0.031676 0.022459
v 0.013441 -0.041366 0.031403
f 537 541 545 
f 524 525 527 
f 527 525 529 
f 526 524 530 
f 528 526 530 
f 528 530 531 
f 524 527 532 
f 530 524 532 
f 527 529 533 
f 531 527 533 
f 531 530 534 
f 526 528 535 
f 527 531 538 
f 531 534 538 
f 525 524 539 
f 524 526 539 
f 535 525 539 
f 526 535 539 
f 528 531 540 
f 536 528 540 
f 525 535 541 
f 535 528 541 
f 537 525 541 
f 533 529 542 
f 529 536 542 
f 540 523 542 
f 536 540 542 
f 531 533 543 
f 540 531 543 
f 523 540 543 
f 542 523 543 
f 533 542 543 
f 532 527 544 
f 530 532 544 
f 534 530 544 
f 527 538 544 
f 538 534 544 
f 529 525 545 
f 528 536 545 
f 536 529 545 
f 525 537 545 
f 541 528 545 
o convex_16
v 0.071594 -0.014528 0.045568
v 0.059668 -0.033912 0.019479
v 0.061159 -0.033912 0.019479
v 0.070103 -0.013781 0.019479
v 0.058922 -0.022731 0.046311
v 0.072339 -0.022731 0.019479
v 0.063395 -0.027200 0.046311
v 0.065632 -0.013781 0.050039
v 0.058922 -0.022731 0.033647
v 0.074576 -0.013781 0.019479
v 0.058922 -0.028690 0.019479
v 0.058922 -0.030928 0.042587
v 0.067866 -0.021237 0.048548
v 0.068612 -0.027947 0.021717
v 0.065632 -0.013781 0.039602
v 0.068612 -0.013781 0.051536
v 0.072339 -0.019746 0.031409
v 0.058922 -0.027200 0.047058
v 0.061159 -0.030183 0.042587
v 0.066377 -0.024962 0.044821
v 0.074576 -0.016020 0.022463
v 0.058922 -0.021986 0.035875
v 0.064886 -0.031671 0.020226
v 0.073830 -0.013781 0.032900
v 0.065632 -0.021237 0.050039
v 0.058922 -0.033163 0.019479
f 557 556 571 
f 548 547 549 
f 548 549 551 
f 551 549 555 
f 549 553 555 
f 549 547 556 
f 554 549 556 
f 550 554 556 
f 547 548 557 
f 550 556 557 
f 553 549 560 
f 555 553 561 
f 558 546 561 
f 546 558 562 
f 559 551 562 
f 553 550 563 
f 557 552 563 
f 550 557 563 
f 561 553 563 
f 557 548 564 
f 552 557 564 
f 558 552 565 
f 562 558 565 
f 559 562 565 
f 552 564 565 
f 551 555 566 
f 562 551 566 
f 550 553 567 
f 549 554 567 
f 554 550 567 
f 560 549 567 
f 553 560 567 
f 548 551 568 
f 551 559 568 
f 564 548 568 
f 559 565 568 
f 565 564 568 
f 561 546 569 
f 555 561 569 
f 546 562 569 
f 566 555 569 
f 562 566 569 
f 552 558 570 
f 558 561 570 
f 563 552 570 
f 561 563 570 
f 556 547 571 
f 547 557 571 
o convex_17
v 0.069360 -0.013781 0.051536
v 0.075323 -0.006325 0.023954
v 0.075323 -0.010053 0.023954
v 0.070106 -0.011544 0.019479
v 0.066377 -0.006325 0.045568
v 0.070848 -0.006325 0.050786
v 0.065631 -0.013781 0.041093
v 0.074577 -0.013781 0.019479
v 0.070848 -0.006325 0.019479
v 0.072340 -0.013035 0.043330
v 0.066377 -0.011544 0.050786
v 0.070106 -0.013781 0.019479
v 0.073832 -0.006325 0.037365
v 0.075323 -0.006325 0.019479
v 0.067869 -0.006325 0.051536
v 0.073832 -0.013781 0.033647
v 0.066377 -0.006325 0.043330
f 580 578 588 
f 573 576 577 
f 572 578 579 
f 576 573 580 
f 575 578 580 
f 579 575 580 
f 577 572 581 
f 578 572 582 
f 576 578 582 
f 578 575 583 
f 575 579 583 
f 579 578 583 
f 574 573 584 
f 573 577 584 
f 577 581 584 
f 573 574 585 
f 574 579 585 
f 580 573 585 
f 579 580 585 
f 577 576 586 
f 572 577 586 
f 576 582 586 
f 582 572 586 
f 572 579 587 
f 579 574 587 
f 581 572 587 
f 574 584 587 
f 584 581 587 
f 578 576 588 
f 576 580 588 
o convex_18
v 0.020896 0.035427 0.031404
v 0.027606 0.024243 0.023950
v 0.026115 0.024989 0.022459
v 0.013441 0.030954 0.032150
v 0.013441 0.039155 0.020969
v 0.013441 0.028717 0.019478
v 0.028352 0.032442 0.019478
v 0.028352 0.027227 0.035132
v 0.028352 0.033935 0.030659
v 0.028352 0.025735 0.019478
v 0.014187 0.027971 0.025441
v 0.017170 0.039155 0.024697
v 0.014187 0.035427 0.031404
v 0.027606 0.025735 0.033641
v 0.028352 0.030210 0.035132
v 0.020152 0.036171 0.019478
v 0.017170 0.039155 0.021715
v 0.028352 0.033935 0.023950
v 0.028352 0.024243 0.028422
v 0.013441 0.039155 0.024697
f 601 600 608 
f 591 590 594 
f 592 593 594 
f 596 595 597 
f 590 591 598 
f 591 594 598 
f 594 595 598 
f 595 596 598 
f 594 590 599 
f 592 594 599 
f 589 597 600 
f 589 600 601 
f 596 592 602 
f 592 599 602 
f 592 596 603 
f 596 597 603 
f 597 589 603 
f 601 592 603 
f 589 601 603 
f 594 593 604 
f 595 594 604 
f 593 600 605 
f 600 597 605 
f 604 593 605 
f 595 604 605 
f 597 595 606 
f 595 605 606 
f 605 597 606 
f 590 598 607 
f 598 596 607 
f 599 590 607 
f 596 602 607 
f 602 599 607 
f 593 592 608 
f 600 593 608 
f 592 601 608 
o convex_19
v 0.058175 0.016791 0.044822
v 0.028352 0.025734 0.019476
v 0.029102 0.024984 0.020225
v 0.058175 0.016042 0.019476
v 0.035063 0.033186 0.026934
v 0.056683 0.010825 0.044822
v 0.029102 0.026479 0.035877
v 0.058175 0.019771 0.019476
v 0.028352 0.032441 0.019476
v 0.055936 0.022751 0.036620
v 0.028352 0.033186 0.032895
v 0.057425 0.010077 0.035131
v 0.029102 0.023496 0.028426
v 0.054444 0.016042 0.019476
v 0.056683 0.015297 0.046314
v 0.037300 0.032441 0.030662
v 0.044005 0.016042 0.030662
v 0.028352 0.024984 0.032895
v 0.058175 0.011570 0.046314
v 0.028352 0.030951 0.035131
v 0.057425 0.017534 0.044822
v 0.054444 0.022006 0.019476
v 0.058175 0.020516 0.038112
v 0.056683 0.010077 0.040348
v 0.044752 0.026479 0.019476
v 0.038791 0.031698 0.028426
v 0.028352 0.033936 0.026191
v 0.028352 0.024241 0.023207
v 0.030591 0.032441 0.033639
v 0.052955 0.024241 0.036620
v 0.055936 0.022751 0.034385
v 0.058175 0.010077 0.035131
v 0.056683 0.012314 0.046314
v 0.035063 0.022006 0.037366
f 641 615 642 
f 612 610 616 
f 609 612 616 
f 616 610 617 
f 617 610 619 
f 611 610 622 
f 610 612 622 
f 612 620 622 
f 613 619 624 
f 622 620 625 
f 619 610 626 
f 612 609 627 
f 609 623 627 
f 615 623 628 
f 626 615 628 
f 619 626 628 
f 623 609 629 
f 628 623 629 
f 616 617 630 
f 609 616 631 
f 629 609 631 
f 618 629 631 
f 614 621 632 
f 625 620 632 
f 621 625 632 
f 627 614 632 
f 617 613 633 
f 613 630 633 
f 630 617 633 
f 613 624 634 
f 624 618 634 
f 630 613 634 
f 613 617 635 
f 619 613 635 
f 617 619 635 
f 610 611 636 
f 611 622 636 
f 625 621 636 
f 622 625 636 
f 626 610 636 
f 621 626 636 
f 624 619 637 
f 619 628 637 
f 628 629 637 
f 637 629 638 
f 618 624 638 
f 629 618 638 
f 624 637 638 
f 616 630 639 
f 631 616 639 
f 618 631 639 
f 634 618 639 
f 630 634 639 
f 620 612 640 
f 612 627 640 
f 632 620 640 
f 627 632 640 
f 623 615 641 
f 614 627 641 
f 627 623 641 
f 621 614 642 
f 615 626 642 
f 626 621 642 
f 614 641 642 
o convex_20
v 0.064886 0.001876 0.050039
v 0.075323 -0.004088 0.023954
v 0.075323 -0.006325 0.023954
v 0.069360 0.003367 0.019479
v 0.066377 -0.006325 0.043330
v 0.070103 0.003367 0.047058
v 0.070849 -0.006325 0.050786
v 0.070849 -0.005580 0.019479
v 0.074577 0.003367 0.019479
v 0.064140 0.003367 0.038112
v 0.074577 -0.003343 0.032153
v 0.075323 -0.006325 0.019479
v 0.067124 -0.006325 0.050786
v 0.067869 0.003367 0.050786
v 0.073830 0.001876 0.031409
v 0.071594 -0.001851 0.047058
v 0.064140 0.002621 0.049295
v 0.064140 0.002621 0.038112
v 0.073830 -0.006325 0.037365
f 658 649 661 
f 647 645 649 
f 646 648 651 
f 650 646 651 
f 648 646 652 
f 645 644 653 
f 644 651 653 
f 644 645 654 
f 645 647 654 
f 647 650 654 
f 651 644 654 
f 650 651 654 
f 647 649 655 
f 655 649 656 
f 649 648 656 
f 648 652 656 
f 643 655 656 
f 651 648 657 
f 653 651 657 
f 653 657 658 
f 648 649 658 
f 657 648 658 
f 655 643 659 
f 647 655 659 
f 643 656 659 
f 656 652 659 
f 646 650 660 
f 650 647 660 
f 652 646 660 
f 647 659 660 
f 659 652 660 
f 649 645 661 
f 645 653 661 
f 653 658 661 
o convex_21
v 0.058923 0.017530 0.044076
v 0.069358 0.003367 0.019479
v 0.073831 0.003367 0.019479
v 0.064887 0.003367 0.050042
v 0.058177 0.016041 0.019479
v 0.070102 0.013805 0.020227
v 0.069358 0.004859 0.047804
v 0.058177 0.009332 0.035875
v 0.063396 0.019770 0.019479
v 0.058177 0.011568 0.047059
v 0.063396 0.013805 0.045566
v 0.058177 0.019770 0.019479
v 0.063396 0.003367 0.039603
v 0.073084 0.003367 0.031408
v 0.059668 0.018276 0.041841
v 0.065631 0.008588 0.049294
v 0.072340 0.010080 0.019479
v 0.067121 0.010080 0.044821
v 0.063396 0.003367 0.047804
v 0.058177 0.019023 0.038113
v 0.068612 0.003367 0.020227
v 0.067121 0.016785 0.020972
v 0.069358 0.003367 0.048549
v 0.071593 0.007842 0.030663
v 0.058177 0.010080 0.046314
v 0.058177 0.013805 0.047059
v 0.058177 0.015295 0.020227
f 682 669 688 
f 663 664 665 
f 664 663 666 
f 664 666 670 
f 666 669 671 
f 670 666 673 
f 666 671 673 
f 663 665 674 
f 665 664 675 
f 662 672 676 
f 672 662 677 
f 664 670 678 
f 670 667 678 
f 675 664 678 
f 677 668 679 
f 672 677 679 
f 674 665 680 
f 669 674 680 
f 670 673 681 
f 673 671 681 
f 676 670 681 
f 662 676 681 
f 666 663 682 
f 663 674 682 
f 674 669 682 
f 667 670 683 
f 670 676 683 
f 676 672 683 
f 679 667 683 
f 672 679 683 
f 665 675 684 
f 675 668 684 
f 677 665 684 
f 668 677 684 
f 668 675 685 
f 678 667 685 
f 675 678 685 
f 667 679 685 
f 679 668 685 
f 665 671 686 
f 671 669 686 
f 680 665 686 
f 669 680 686 
f 671 665 687 
f 665 677 687 
f 677 662 687 
f 662 681 687 
f 681 671 687 
f 669 666 688 
f 666 682 688 
o convex_22
v -0.040240 -0.031675 0.015003
v -0.000730 -0.028693 0.019476
v 0.015675 -0.032421 0.019476
v -0.008938 -0.041367 0.019476
v 0.016423 -0.037639 0.014257
v -0.005205 -0.028693 0.014257
v -0.040982 -0.028693 0.018730
v -0.017123 -0.037639 0.014257
v 0.016423 -0.039875 0.019476
v -0.046205 -0.028693 0.014257
v 0.016423 -0.033168 0.015003
v -0.035765 -0.030931 0.019476
v 0.001508 -0.039130 0.014257
v -0.043968 -0.029440 0.017985
v -0.008938 -0.041367 0.018730
f 701 697 703 
f 691 690 692 
f 690 694 695 
f 694 693 696 
f 691 692 697 
f 695 694 698 
f 696 689 698 
f 694 696 698 
f 690 691 699 
f 693 694 699 
f 694 690 699 
f 691 697 699 
f 697 693 699 
f 692 690 700 
f 690 695 700 
f 696 693 701 
f 693 697 701 
f 689 692 702 
f 698 689 702 
f 695 698 702 
f 692 700 702 
f 700 695 702 
f 692 689 703 
f 689 696 703 
f 697 692 703 
f 696 701 703 
o convex_23
v -0.060368 -0.021977 0.016493
v -0.070809 -0.009308 0.000837
v -0.070809 -0.009308 0.001583
v -0.048442 0.002621 0.000837
v -0.048442 -0.028693 0.000837
v -0.067823 0.002621 0.018730
v -0.048442 -0.024217 0.017984
v -0.048442 0.002621 0.013510
v -0.070809 0.002621 0.000837
v -0.058134 -0.027945 0.000837
v -0.065589 -0.015267 0.018730
v -0.049935 -0.027200 0.017237
v -0.065589 -0.020490 0.006803
v -0.070062 -0.007819 0.010529
v -0.067080 -0.008563 0.019476
v -0.065589 0.002621 0.018730
v -0.055152 -0.028693 0.006803
v -0.069316 -0.014522 0.000837
v -0.070809 0.001874 0.008295
v -0.068571 -0.014522 0.009042
v -0.061859 -0.024962 0.004566
v -0.048442 -0.028693 0.011271
v -0.062607 -0.024217 0.000837
v -0.050679 -0.026455 0.017984
v -0.066334 -0.003343 0.019476
v -0.068571 -0.002599 0.017237
v -0.055152 -0.024962 0.017237
v -0.061116 -0.024962 0.007549
v -0.065589 -0.019745 0.009784
f 724 731 732 
f 705 707 708 
f 708 707 710 
f 707 709 711 
f 710 707 711 
f 705 706 712 
f 707 705 712 
f 709 707 712 
f 705 708 713 
f 717 714 718 
f 711 709 719 
f 710 711 719 
f 713 708 720 
f 706 705 721 
f 705 713 721 
f 712 706 722 
f 709 712 722 
f 706 717 722 
f 714 717 723 
f 717 706 723 
f 706 721 723 
f 721 716 723 
f 708 710 725 
f 710 715 725 
f 720 708 725 
f 715 720 725 
f 721 713 726 
f 716 721 726 
f 724 716 726 
f 713 724 726 
f 715 710 727 
f 710 718 727 
f 718 714 727 
f 709 718 728 
f 718 710 728 
f 719 709 728 
f 710 719 728 
f 718 709 729 
f 717 718 729 
f 709 722 729 
f 722 717 729 
f 714 704 730 
f 720 715 730 
f 727 714 730 
f 715 727 730 
f 713 720 731 
f 724 713 731 
f 730 704 731 
f 720 730 731 
f 704 714 732 
f 714 723 732 
f 723 716 732 
f 716 724 732 
f 731 704 732 
o convex_24
v -0.046947 -0.028693 0.017237
v -0.017134 0.002621 0.019476
v -0.017134 0.002621 0.018730
v -0.000725 -0.028690 0.019476
v -0.018624 -0.027200 0.000837
v -0.048442 0.002621 0.000837
v -0.048442 -0.028693 0.000837
v -0.048442 0.002621 0.013510
v -0.029801 0.002621 0.000837
v -0.030543 0.001129 0.019476
v -0.048442 -0.027200 0.017984
v -0.002963 -0.024217 0.017239
v -0.027559 -0.028693 0.019476
v -0.018624 -0.028693 0.000837
v -0.041725 -0.028693 0.018730
v -0.048442 -0.024962 0.017984
v -0.000725 -0.027200 0.018730
v -0.029801 0.002621 0.019476
v -0.029053 0.002621 0.001583
f 744 741 751 
f 734 735 738 
f 738 737 739 
f 734 738 740 
f 738 739 740 
f 738 735 741 
f 737 738 741 
f 736 734 742 
f 739 733 743 
f 740 739 743 
f 737 741 744 
f 733 739 745 
f 736 742 745 
f 739 737 746 
f 745 739 746 
f 736 745 746 
f 743 733 747 
f 733 745 747 
f 745 742 747 
f 740 743 748 
f 747 742 748 
f 743 747 748 
f 735 734 749 
f 734 736 749 
f 744 735 749 
f 737 744 749 
f 736 746 749 
f 746 737 749 
f 734 740 750 
f 742 734 750 
f 740 748 750 
f 748 742 750 
f 741 735 751 
f 735 744 751 
o convex_25
v -0.063349 0.030949 -0.002891
v -0.072300 0.002621 -0.005128
v -0.044714 0.002621 -0.005128
v -0.065590 0.002621 0.018731
v -0.044714 0.031697 0.013511
v -0.044714 0.039900 -0.005128
v -0.044714 0.002621 0.013511
v -0.064842 0.018280 0.016493
v -0.070062 0.019772 -0.005128
v -0.070062 0.010080 0.009036
v -0.055901 0.032441 0.005314
v -0.067826 0.002621 0.018731
v -0.061113 0.024242 0.014256
v -0.058137 0.035426 -0.005128
v -0.067078 0.020516 0.009036
v -0.046207 0.037663 0.003074
v -0.066335 0.013061 0.017981
v -0.050679 0.030205 0.013511
v -0.072300 0.010080 -0.004380
v -0.070807 0.002621 0.007544
v -0.063349 0.026479 0.007544
v -0.066335 0.027223 -0.002891
v -0.053666 0.037663 -0.004380
v -0.069314 0.015298 0.007544
v -0.065590 0.008588 0.018731
v -0.064094 0.030205 -0.005128
v -0.059625 0.033934 -0.002891
v -0.070062 0.019772 -0.003636
v -0.067826 0.007843 0.017981
f 768 775 780 
f 753 754 755 
f 756 754 757 
f 754 753 757 
f 755 754 758 
f 756 755 758 
f 754 756 758 
f 757 753 760 
f 753 755 763 
f 757 760 765 
f 756 757 767 
f 756 759 768 
f 759 766 768 
f 759 756 769 
f 764 759 769 
f 762 764 769 
f 756 767 769 
f 767 762 769 
f 760 753 770 
f 761 770 771 
f 753 763 771 
f 770 753 771 
f 759 764 772 
f 764 762 772 
f 766 759 772 
f 766 772 773 
f 772 752 773 
f 757 765 774 
f 767 757 774 
f 762 767 774 
f 768 766 775 
f 770 761 775 
f 755 756 776 
f 763 755 776 
f 756 768 776 
f 768 763 776 
f 765 760 777 
f 752 765 777 
f 760 773 777 
f 773 752 777 
f 765 752 778 
f 772 762 778 
f 752 772 778 
f 774 765 778 
f 762 774 778 
f 760 770 779 
f 766 773 779 
f 773 760 779 
f 775 766 779 
f 770 775 779 
f 763 768 780 
f 761 771 780 
f 771 763 780 
f 775 761 780 
o convex_26
v -0.020858 0.045119 -0.004381
v -0.044714 0.002621 -0.005128
v -0.033528 0.002621 -0.005128
v -0.017874 0.002621 0.019476
v -0.044714 0.032444 0.013508
v -0.011166 0.037660 0.019476
v -0.010418 0.039150 -0.005128
v -0.044714 0.039894 -0.005128
v -0.044714 0.002621 0.013508
v -0.029802 0.004859 0.019476
v -0.010418 0.016790 0.019476
v -0.038003 0.040639 0.002328
v -0.020113 0.019028 -0.004381
v -0.021604 0.033933 0.019476
v -0.010418 0.044370 -0.000653
v -0.017874 0.002621 0.017980
v -0.015638 0.042877 0.006059
v -0.043965 0.030950 0.014255
v -0.010418 0.044370 -0.005128
v -0.013402 0.010829 0.017980
v -0.032034 0.043626 -0.002890
v -0.010418 0.036912 0.019476
v -0.012657 0.037660 0.019476
v -0.044714 0.039894 -0.002144
v -0.036509 0.034674 0.014255
v -0.029802 0.002621 0.019476
v -0.036509 0.042881 -0.005128
v -0.010418 0.042877 0.006059
v -0.032783 0.002621 -0.004381
v -0.043965 0.038405 0.003075
v -0.020113 0.019777 -0.005128
f 793 809 811 
f 782 783 784 
f 783 782 787 
f 782 785 788 
f 787 782 788 
f 782 784 789 
f 785 782 789 
f 784 786 790 
f 786 784 791 
f 790 786 794 
f 791 787 795 
f 784 783 796 
f 795 781 797 
f 785 789 798 
f 794 785 798 
f 790 794 798 
f 787 788 799 
f 781 795 799 
f 795 787 799 
f 791 784 800 
f 787 791 800 
f 793 787 800 
f 784 796 800 
f 796 793 800 
f 797 781 801 
f 792 797 801 
f 786 791 802 
f 791 795 802 
f 785 794 803 
f 794 786 803 
f 797 792 803 
f 786 797 803 
f 788 785 804 
f 792 801 804 
f 785 803 805 
f 803 792 805 
f 789 784 806 
f 784 790 806 
f 798 789 806 
f 790 798 806 
f 781 799 807 
f 799 788 807 
f 801 781 807 
f 788 804 807 
f 804 801 807 
f 797 786 808 
f 795 797 808 
f 786 802 808 
f 802 795 808 
f 796 783 809 
f 793 796 809 
f 804 785 810 
f 792 804 810 
f 785 805 810 
f 805 792 810 
f 783 787 811 
f 787 793 811 
f 809 783 811 
o convex_27
v 0.011947 0.038407 -0.003635
v 0.014932 0.028717 0.017239
v 0.016423 0.028717 0.017239
v 0.004494 0.038407 0.019476
v 0.005240 0.036172 -0.005128
v 0.004494 0.029464 0.019476
v 0.016423 0.035426 0.019476
v 0.016423 0.032445 -0.005128
v 0.004494 0.040646 -0.005128
v 0.008970 0.039153 0.011271
v 0.016423 0.036172 -0.005128
v 0.004494 0.029464 0.017239
v 0.014186 0.032445 -0.005128
v 0.016423 0.028717 0.019476
v 0.016423 0.036172 0.012017
v 0.005240 0.040646 0.000838
f 821 812 827 
f 815 817 818 
f 818 814 819 
f 814 813 819 
f 817 815 820 
f 819 816 820 
f 815 818 821 
f 818 819 822 
f 820 812 822 
f 819 820 822 
f 813 817 823 
f 820 816 823 
f 817 820 823 
f 819 813 824 
f 816 819 824 
f 813 823 824 
f 823 816 824 
f 813 814 825 
f 817 813 825 
f 818 817 825 
f 814 818 825 
f 821 818 826 
f 812 821 826 
f 822 812 826 
f 818 822 826 
f 820 815 827 
f 812 820 827 
f 815 821 827 
o convex_28
v 0.022389 -0.039130 0.019476
v 0.016423 -0.034658 0.004565
v 0.016423 -0.037638 0.011276
v 0.041027 -0.035402 0.005310
v 0.036552 -0.031675 0.019476
v 0.018660 -0.030184 0.005310
v 0.016423 -0.033168 0.019476
v 0.038790 -0.030929 0.004565
v 0.041027 -0.036147 0.019476
v 0.041027 -0.031675 0.019476
v 0.016423 -0.039876 0.018730
v 0.016423 -0.030929 0.004565
v 0.032077 -0.030184 0.004565
v 0.041027 -0.031675 0.004565
f 835 837 841 
f 830 829 831 
f 832 833 834 
f 829 830 834 
f 828 832 834 
f 828 831 836 
f 832 828 836 
f 833 832 837 
f 836 831 837 
f 832 836 837 
f 830 831 838 
f 831 828 838 
f 828 834 838 
f 834 830 838 
f 834 833 839 
f 829 834 839 
f 835 829 839 
f 835 839 840 
f 833 837 840 
f 837 835 840 
f 839 833 840 
f 831 829 841 
f 829 835 841 
f 837 831 841 
o convex_29
v 0.066375 -0.032421 0.012765
v 0.041027 -0.034657 0.004565
v 0.041027 -0.035402 0.005310
v 0.041775 -0.030930 0.019476
v 0.068613 -0.029438 0.004565
v 0.058174 -0.036894 0.011276
v 0.041775 -0.036148 0.019476
v 0.066375 -0.029438 0.019476
v 0.058174 -0.036894 0.004565
v 0.041027 -0.031675 0.004565
v 0.048488 -0.029438 0.017984
v 0.060410 -0.034657 0.018730
v 0.058919 -0.029438 0.004565
v 0.063391 -0.035402 0.004565
v 0.053702 -0.036894 0.004565
v 0.041027 -0.030930 0.017984
v 0.064139 -0.032421 0.019476
v 0.068613 -0.030184 0.012765
v 0.059662 -0.036148 0.014255
v 0.067865 -0.031675 0.004565
f 859 842 861 
f 845 848 849 
f 843 846 850 
f 843 844 851 
f 846 843 851 
f 849 846 852 
f 845 849 852 
f 846 851 854 
f 852 846 854 
f 851 852 854 
f 850 846 855 
f 847 850 855 
f 844 843 856 
f 848 844 856 
f 847 848 856 
f 843 850 856 
f 850 847 856 
f 844 848 857 
f 848 845 857 
f 851 844 857 
f 852 851 857 
f 845 852 857 
f 849 848 858 
f 848 853 858 
f 846 849 859 
f 849 858 859 
f 858 842 859 
f 848 847 860 
f 853 848 860 
f 855 842 860 
f 847 855 860 
f 842 858 860 
f 858 853 860 
f 842 855 861 
f 855 846 861 
f 846 859 861 
o convex_30
v 0.068611 -0.029438 0.016491
v 0.075323 -0.013781 0.017238
v 0.075323 -0.013781 0.004565
v 0.058175 -0.027201 0.004565
v 0.070103 -0.028692 0.004565
v 0.059667 -0.029438 0.019476
v 0.070103 -0.013781 0.019476
v 0.069358 -0.013781 0.004565
v 0.073086 -0.021237 0.019476
v 0.058175 -0.029438 0.004565
v 0.073831 -0.021237 0.004565
v 0.067867 -0.029438 0.019476
v 0.059667 -0.028692 0.019476
v 0.066377 -0.016764 0.005310
v 0.069358 -0.029438 0.004565
v 0.071595 -0.025709 0.012765
v 0.074575 -0.016764 0.019476
v 0.069358 -0.014528 0.019476
f 868 875 879 
f 865 864 866 
f 863 864 868 
f 864 865 869 
f 868 864 869 
f 868 867 870 
f 865 866 871 
f 862 867 871 
f 867 865 871 
f 864 863 872 
f 866 864 872 
f 867 862 873 
f 862 870 873 
f 870 867 873 
f 865 867 874 
f 867 868 874 
f 869 865 875 
f 868 869 875 
f 866 862 876 
f 862 871 876 
f 871 866 876 
f 862 866 877 
f 870 862 877 
f 866 872 877 
f 872 870 877 
f 863 868 878 
f 868 870 878 
f 872 863 878 
f 870 872 878 
f 865 874 879 
f 874 868 879 
f 875 865 879 
o convex_31
v 0.076069 -0.001853 0.008295
v 0.070105 -0.013781 0.004565
v 0.068613 -0.010797 0.004565
v 0.070105 -0.013781 0.019476
v 0.070850 -0.000361 0.019476
v 0.075323 -0.013781 0.018730
v 0.067868 -0.000361 0.004565
v 0.075323 -0.013781 0.004565
v 0.075323 -0.000361 0.019476
v 0.075323 -0.000361 0.004565
v 0.076069 -0.010052 0.012765
v 0.067868 -0.007815 0.005310
v 0.076069 -0.009307 0.004565
f 880 890 892 
f 882 881 883 
f 883 881 885 
f 881 882 886 
f 883 884 886 
f 885 881 887 
f 881 886 887 
f 884 883 888 
f 883 885 888 
f 886 884 888 
f 886 888 889 
f 887 886 889 
f 888 880 889 
f 885 887 890 
f 880 888 890 
f 888 885 890 
f 882 883 891 
f 886 882 891 
f 883 886 891 
f 889 880 892 
f 887 889 892 
f 890 887 892 
o convex_32
v -0.017129 0.003367 0.019476
v -0.008928 0.003367 0.032151
v -0.008181 -0.008559 0.032151
v -0.029803 -0.011544 0.020223
v -0.011910 -0.013036 0.019476
v -0.020109 0.003367 0.032151
v -0.020109 -0.013036 0.032151
v -0.029055 0.003367 0.019476
v -0.008181 -0.013036 0.032151
v -0.029055 -0.013036 0.019476
v -0.009673 0.003367 0.029168
v -0.020854 -0.001108 0.032151
v -0.029803 -0.000361 0.020223
v -0.012655 -0.007071 0.019476
v -0.011165 -0.010052 0.020967
v -0.008181 -0.011544 0.030660
f 907 903 908 
f 894 893 898 
f 895 894 898 
f 895 898 899 
f 893 897 900 
f 898 893 900 
f 899 897 901 
f 895 899 901 
f 899 896 902 
f 897 899 902 
f 900 897 902 
f 896 900 902 
f 893 894 903 
f 896 899 904 
f 899 898 904 
f 900 896 905 
f 898 900 905 
f 896 904 905 
f 904 898 905 
f 897 893 906 
f 893 903 906 
f 906 903 907 
f 897 906 907 
f 897 907 908 
f 894 895 908 
f 895 901 908 
f 901 897 908 
f 903 894 908 
o convex_33
v 0.035062 -0.036893 0.020968
v 0.058921 -0.027201 0.026932
v 0.058921 -0.031676 0.026932
v 0.058921 -0.033165 0.019476
v 0.035062 -0.031676 0.019476
v 0.035062 -0.037638 0.026932
v 0.035812 -0.030185 0.026932
v 0.051461 -0.028694 0.020222
v 0.043267 -0.036893 0.026932
v 0.044757 -0.036147 0.019476
v 0.058921 -0.029440 0.019476
v 0.043267 -0.028694 0.026186
f 916 913 920 
f 910 911 912 
f 911 910 914 
f 913 909 914 
f 914 910 915 
f 913 914 915 
f 912 911 917 
f 911 914 917 
f 917 914 918 
f 909 913 918 
f 913 912 918 
f 914 909 918 
f 912 917 918 
f 910 912 919 
f 912 913 919 
f 916 910 919 
f 913 916 919 
f 915 910 920 
f 913 915 920 
f 910 916 920 
o convex_34
v 0.058921 -0.028695 0.046314
v 0.035062 -0.041366 0.026932
v 0.035062 -0.030186 0.026932
v 0.058921 -0.031676 0.026932
v 0.058921 -0.022730 0.035136
v 0.035062 -0.032419 0.038113
v 0.049226 -0.038383 0.035136
v 0.058171 -0.023476 0.046314
v 0.035812 -0.036892 0.038113
v 0.058921 -0.027203 0.026932
v 0.041777 -0.027203 0.034389
v 0.055191 -0.035400 0.037368
v 0.035062 -0.041366 0.031408
v 0.041777 -0.037637 0.038113
v 0.041027 -0.033163 0.041096
v 0.041777 -0.040619 0.029917
v 0.045501 -0.027949 0.026932
v 0.056683 -0.031676 0.044077
v 0.058921 -0.031676 0.041096
v 0.041777 -0.027203 0.030662
v 0.057426 -0.022730 0.039605
v 0.052951 -0.030932 0.044822
v 0.035062 -0.031676 0.037368
v 0.058171 -0.024966 0.047058
v 0.052206 -0.036892 0.032898
v 0.035812 -0.029440 0.031408
v 0.058171 -0.023476 0.032898
f 937 940 947 
f 922 923 924 
f 921 924 925 
f 923 922 926 
f 921 925 928 
f 924 923 930 
f 925 924 930 
f 926 922 933 
f 929 926 933 
f 929 933 934 
f 933 927 934 
f 926 929 935 
f 922 924 936 
f 933 922 936 
f 927 933 936 
f 930 923 937 
f 927 932 938 
f 934 927 938 
f 924 921 939 
f 932 924 939 
f 921 938 939 
f 938 932 939 
f 937 923 940 
f 928 925 941 
f 931 928 941 
f 940 931 941 
f 925 940 941 
f 929 934 942 
f 935 929 942 
f 938 921 942 
f 934 938 942 
f 923 926 943 
f 926 928 943 
f 928 931 943 
f 921 928 944 
f 928 926 944 
f 926 935 944 
f 942 921 944 
f 935 942 944 
f 924 932 945 
f 932 927 945 
f 936 924 945 
f 927 936 945 
f 940 923 946 
f 931 940 946 
f 923 943 946 
f 943 931 946 
f 925 930 947 
f 930 937 947 
f 940 925 947 
o convex_35
v -0.007439 -0.039875 0.003820
v -0.055898 -0.029440 0.000837
v -0.055898 -0.029440 0.001583
v -0.005949 -0.028694 0.013511
v -0.040982 -0.031677 0.014257
v -0.017878 -0.028694 0.000837
v -0.004453 -0.038383 0.014257
v -0.034269 -0.037638 0.000837
v -0.004453 -0.035401 0.000837
v -0.046204 -0.028694 0.014257
v -0.016383 -0.038383 0.012765
v -0.040982 -0.035401 0.004565
v -0.005949 -0.039875 0.000837
v -0.055898 -0.028694 0.000837
v -0.004453 -0.030931 0.014257
v -0.018623 -0.039129 0.008290
v -0.054402 -0.029440 0.005312
v -0.017878 -0.037638 0.014257
v -0.022355 -0.039129 0.000837
v -0.044713 -0.034656 0.001583
v -0.034269 -0.036892 0.005312
f 958 965 968 
f 949 953 955 
f 953 951 956 
f 955 953 956 
f 951 953 957 
f 952 954 957 
f 954 948 960 
f 955 956 960 
f 956 954 960 
f 949 950 961 
f 953 949 961 
f 957 953 961 
f 956 951 962 
f 954 956 962 
f 951 957 962 
f 957 954 962 
f 948 954 963 
f 954 958 963 
f 952 957 964 
f 959 952 964 
f 961 950 964 
f 957 961 964 
f 954 952 965 
f 958 954 965 
f 960 948 966 
f 955 960 966 
f 948 963 966 
f 963 955 966 
f 950 949 967 
f 949 955 967 
f 955 959 967 
f 964 950 967 
f 959 964 967 
f 959 955 968 
f 952 959 968 
f 955 963 968 
f 963 958 968 
f 965 952 968 
o convex_36
v -0.000726 0.015296 0.013511
v -0.001472 0.040646 0.019476
v -0.006690 0.040646 0.019476
v -0.010418 0.033189 0.003073
v -0.010418 0.018281 0.019476
v 0.004494 0.033189 0.010533
v 0.004494 0.022011 0.019476
v -0.010418 0.038408 0.019476
v 0.004494 0.038408 0.012765
v 0.004494 0.039152 0.019476
v -0.003703 0.015296 0.012765
v -0.003703 0.031695 0.005312
v -0.010418 0.038408 0.012765
v 0.002256 0.017534 0.018729
v -0.002220 0.017534 0.011275
v 0.002256 0.017534 0.015748
v -0.010418 0.032440 0.003073
v -0.002962 0.015296 0.016493
v -0.010418 0.021264 0.014998
v -0.003703 0.033189 0.005312
v 0.004494 0.032440 0.010533
f 975 984 989 
f 970 971 973 
f 970 973 975 
f 972 973 976 
f 973 971 976 
f 971 970 977 
f 975 974 977 
f 975 977 978 
f 970 975 978 
f 977 970 978 
f 976 971 981 
f 972 976 981 
f 971 977 981 
f 977 972 981 
f 975 973 982 
f 969 979 983 
f 982 969 984 
f 975 982 984 
f 973 972 985 
f 972 980 985 
f 983 979 985 
f 980 983 985 
f 979 969 986 
f 973 979 986 
f 969 982 986 
f 982 973 986 
f 979 973 987 
f 973 985 987 
f 985 979 987 
f 972 977 988 
f 977 974 988 
f 974 980 988 
f 980 972 988 
f 974 975 989 
f 980 974 989 
f 969 983 989 
f 983 980 989 
f 984 969 989 
o convex_37
v -0.021601 -0.013036 0.037373
v 0.005239 -0.010052 0.055260
v 0.004493 -0.007072 0.057497
v -0.008181 -0.006325 0.032154
v -0.017127 -0.006325 0.049295
v 0.004493 -0.013036 0.044830
v -0.012650 -0.013036 0.053023
v -0.007437 -0.013036 0.032154
v -0.020109 -0.006325 0.032154
v 0.000016 -0.006325 0.061228
v 0.002255 -0.013036 0.058243
v 0.003747 -0.006325 0.053023
v -0.020852 -0.013036 0.032154
v -0.018617 -0.013036 0.047058
v 0.005239 -0.012289 0.046321
v 0.005239 -0.013036 0.054515
v 0.000016 -0.009309 0.060480
v 0.003747 -0.006325 0.059734
v -0.017873 -0.006325 0.047804
f 1003 994 1008 
f 990 995 996 
f 995 990 997 
f 993 995 997 
f 994 993 998 
f 993 997 998 
f 993 994 999 
f 994 996 999 
f 996 995 1000 
f 993 999 1001 
f 997 990 1002 
f 990 998 1002 
f 998 997 1002 
f 990 996 1003 
f 996 994 1003 
f 992 991 1004 
f 995 993 1004 
f 1001 992 1004 
f 993 1001 1004 
f 1000 995 1005 
f 1004 991 1005 
f 995 1004 1005 
f 999 996 1006 
f 996 1000 1006 
f 1006 1000 1007 
f 991 992 1007 
f 992 1001 1007 
f 1001 999 1007 
f 1005 991 1007 
f 1000 1005 1007 
f 999 1006 1007 
f 998 990 1008 
f 994 998 1008 
f 990 1003 1008 
o convex_38
v -0.020110 0.001130 0.033645
v 0.003748 0.003367 0.060479
v 0.003748 -0.000362 0.060479
v -0.008181 -0.006325 0.032157
v -0.017125 -0.006325 0.049297
v -0.008926 0.003367 0.032157
v -0.014888 0.003367 0.051533
v 0.003748 -0.006325 0.053769
v -0.000726 -0.006325 0.061224
v -0.020110 -0.006325 0.032157
v -0.020110 0.003367 0.032157
v 0.003748 0.003367 0.055260
v -0.000726 0.001876 0.061974
v 0.003748 -0.006325 0.059732
v -0.000726 -0.003343 0.061974
v -0.017125 -0.002597 0.049297
v -0.001471 0.003367 0.061224
v 0.003001 -0.004834 0.052277
v 0.001511 -0.004088 0.061974
f 1021 1023 1027 
f 1010 1014 1015 
f 1010 1011 1016 
f 1013 1012 1016 
f 1013 1016 1017 
f 1013 1009 1018 
f 1012 1013 1018 
f 1014 1012 1018 
f 1014 1018 1019 
f 1015 1014 1019 
f 1018 1009 1019 
f 1014 1010 1020 
f 1010 1016 1020 
f 1016 1011 1022 
f 1017 1016 1022 
f 1015 1013 1023 
f 1013 1017 1023 
f 1021 1015 1023 
f 1009 1013 1024 
f 1013 1015 1024 
f 1019 1009 1024 
f 1015 1019 1024 
f 1010 1015 1025 
f 1021 1010 1025 
f 1015 1021 1025 
f 1012 1014 1026 
f 1016 1012 1026 
f 1014 1020 1026 
f 1020 1016 1026 
f 1011 1010 1027 
f 1010 1021 1027 
f 1022 1011 1027 
f 1017 1022 1027 
f 1023 1017 1027 
o convex_39
v 0.016423 -0.029438 0.001583
v -0.004453 -0.038384 0.000837
v -0.004453 -0.039129 0.002329
v -0.004453 -0.030930 0.014257
v 0.016423 -0.037638 0.014257
v -0.004453 -0.038384 0.014257
v 0.015677 -0.033913 0.000837
v 0.016423 -0.033167 0.013511
v -0.003707 -0.034655 0.000837
v 0.004497 -0.037638 0.000837
v 0.005241 -0.039131 0.010529
v 0.014931 -0.029438 0.000837
v 0.016423 -0.037638 0.011274
v 0.002258 -0.039131 0.013511
f 1038 1032 1041 
f 1029 1030 1031 
f 1031 1030 1033 
f 1032 1031 1033 
f 1028 1031 1035 
f 1032 1028 1035 
f 1031 1032 1035 
f 1029 1031 1036 
f 1034 1029 1036 
f 1030 1029 1037 
f 1029 1034 1037 
f 1030 1037 1038 
f 1031 1028 1039 
f 1028 1034 1039 
f 1036 1031 1039 
f 1034 1036 1039 
f 1028 1032 1040 
f 1034 1028 1040 
f 1037 1034 1040 
f 1032 1038 1040 
f 1038 1037 1040 
f 1033 1030 1041 
f 1032 1033 1041 
f 1030 1038 1041 
o convex_40
v -0.010418 0.039154 -0.005128
v 0.004494 0.038410 0.012766
v 0.004494 0.033190 0.012766
v -0.010418 0.033190 0.012766
v 0.004494 0.036919 -0.005128
v -0.010418 0.044374 -0.000654
v -0.000726 0.043627 -0.005128
v -0.010418 0.033190 0.002328
v -0.010418 0.039154 0.012766
v 0.004494 0.040645 -0.005128
v -0.005944 0.042136 0.006800
v -0.010418 0.044374 -0.005128
v -0.002219 0.043627 0.000092
v 0.003748 0.033190 0.009037
v 0.004494 0.039899 0.008292
f 1054 1052 1056 
f 1044 1043 1045 
f 1043 1044 1046 
f 1042 1045 1047 
f 1046 1042 1048 
f 1044 1045 1049 
f 1045 1042 1049 
f 1042 1046 1049 
f 1045 1043 1050 
f 1047 1045 1050 
f 1043 1046 1051 
f 1046 1048 1051 
f 1050 1043 1052 
f 1047 1050 1052 
f 1042 1047 1053 
f 1048 1042 1053 
f 1047 1048 1053 
f 1048 1047 1054 
f 1047 1052 1054 
f 1046 1044 1055 
f 1044 1049 1055 
f 1049 1046 1055 
f 1043 1051 1056 
f 1051 1048 1056 
f 1052 1043 1056 
f 1048 1054 1056 
