o convex_0
v 0.000213 -0.062919 -0.020724
v 0.002316 -0.073960 -0.007057
v 0.003366 -0.073960 -0.007057
v 0.000739 -0.062919 -0.010212
v 0.007572 -0.062919 -0.017042
v 0.004417 -0.071857 -0.003375
v -0.002415 -0.063446 -0.013362
v 0.003892 -0.069753 -0.015466
v -0.000313 -0.069753 -0.013362
v 0.001790 -0.072908 -0.003375
v 0.007046 -0.062919 -0.012836
v 0.005469 -0.071857 -0.008633
v 0.004417 -0.063446 -0.020724
v -0.002415 -0.062919 -0.018094
v 0.003892 -0.062919 -0.010212
v 0.000739 -0.072908 -0.006004
v 0.000213 -0.066074 -0.018618
v 0.001790 -0.071329 -0.013362
v 0.004943 -0.071329 -0.012311
v 0.007046 -0.063446 -0.018618
v 0.004943 -0.072908 -0.004428
v 0.001790 -0.071857 -0.003375
v -0.001889 -0.062919 -0.012311
v 0.007572 -0.063971 -0.016516
f 21 12 24 
f 1 4 5 
f 2 3 10 
f 5 4 11 
f 1 5 13 
f 4 1 14 
f 9 7 14 
f 4 6 15 
f 11 4 15 
f 6 11 15 
f 9 2 16 
f 7 9 16 
f 2 10 16 
f 10 7 16 
f 1 13 17 
f 13 8 17 
f 14 1 17 
f 9 14 17 
f 3 2 18 
f 2 9 18 
f 17 8 18 
f 9 17 18 
f 12 3 19 
f 3 18 19 
f 18 8 19 
f 13 5 20 
f 8 13 20 
f 19 8 20 
f 10 3 21 
f 6 10 21 
f 11 6 21 
f 3 12 21 
f 6 4 22 
f 10 6 22 
f 7 10 22 
f 4 14 23 
f 14 7 23 
f 22 4 23 
f 7 22 23 
f 5 11 24 
f 12 19 24 
f 20 5 24 
f 19 20 24 
f 11 21 24 
o convex_1
v 0.001259 -0.035056 0.023434
v -0.013982 -0.029275 0.002934
v -0.013982 -0.029799 0.005038
v -0.010827 -0.043993 0.002934
v 0.013355 -0.028747 0.002934
v 0.011252 -0.043993 0.004513
v -0.004518 -0.028747 0.026590
v -0.007671 -0.043993 0.014503
v 0.010726 -0.028747 0.017654
v 0.009149 -0.043993 0.013977
v -0.012403 -0.028747 0.014503
v -0.010827 -0.043993 0.010822
v 0.003891 -0.029275 0.025536
v 0.011252 -0.043993 0.002934
v 0.013882 -0.029275 0.008192
v -0.002942 -0.042941 0.017654
v -0.007147 -0.029799 0.023962
v -0.013982 -0.028747 0.002934
v -0.003465 -0.030326 0.026590
v 0.001788 -0.043993 0.016602
v 0.010199 -0.043993 0.011873
v -0.013982 -0.029275 0.008717
v 0.012829 -0.029275 0.012926
v 0.000738 -0.028747 0.027118
v 0.007570 -0.029275 0.021860
v 0.004944 -0.041889 0.017654
v 0.002314 -0.032427 0.025013
v -0.009250 -0.029275 0.020807
v 0.013882 -0.028747 0.003987
v -0.011877 -0.040313 0.003462
v -0.001889 -0.030851 0.026590
v 0.001788 -0.042414 0.018177
v -0.006095 -0.031903 0.023962
v -0.005565 -0.042414 0.017126
v -0.010300 -0.043993 0.011873
f 57 41 59 
f 28 26 29 
f 28 30 32 
f 29 31 33 
f 32 30 34 
f 31 29 35 
f 28 32 36 
f 28 29 38 
f 30 28 38 
f 30 38 39 
f 26 27 42 
f 29 26 42 
f 35 29 42 
f 32 34 44 
f 40 32 44 
f 34 30 45 
f 33 34 45 
f 30 39 45 
f 36 35 46 
f 42 27 46 
f 35 42 46 
f 33 45 47 
f 45 39 47 
f 33 31 48 
f 37 33 48 
f 31 43 48 
f 34 33 49 
f 33 37 49 
f 37 34 49 
f 44 34 50 
f 34 37 51 
f 37 48 51 
f 50 34 51 
f 31 35 52 
f 35 36 52 
f 41 31 52 
f 29 33 53 
f 38 29 53 
f 39 38 53 
f 33 47 53 
f 47 39 53 
f 27 26 54 
f 26 28 54 
f 28 36 54 
f 46 27 54 
f 36 46 54 
f 43 40 55 
f 48 43 55 
f 25 51 55 
f 51 48 55 
f 40 44 56 
f 44 50 56 
f 51 25 56 
f 50 51 56 
f 25 55 56 
f 55 40 56 
f 31 41 57 
f 43 31 57 
f 43 57 58 
f 32 40 58 
f 40 43 58 
f 57 32 58 
f 36 32 59 
f 52 36 59 
f 41 52 59 
f 32 57 59 
o convex_2
v 0.006521 -0.034530 -0.010742
v 0.001262 -0.062919 -0.021775
v 0.002838 -0.062919 -0.021775
v 0.001262 -0.061863 -0.000747
v -0.011877 -0.034530 0.000302
v 0.011777 -0.037687 0.002934
v 0.003893 -0.055555 -0.032816
v 0.011251 -0.058184 -0.024403
v -0.009249 -0.042416 -0.019140
v -0.009775 -0.052926 -0.011792
v -0.009249 -0.047152 0.002934
v 0.010725 -0.038737 -0.017037
v 0.013353 -0.051876 -0.007057
v 0.000212 -0.038215 -0.021243
v -0.003992 -0.059763 -0.027031
v 0.010725 -0.047152 0.002934
v 0.007573 -0.062919 -0.013895
v 0.011251 -0.034530 0.002934
v -0.002942 -0.062919 -0.015462
v 0.013353 -0.042416 -0.013370
v -0.007147 -0.036108 -0.015462
v -0.011877 -0.034530 0.002934
v 0.010725 -0.053977 -0.027553
v -0.001890 -0.049247 -0.028610
v 0.004419 -0.043472 -0.025450
v 0.002838 -0.062391 -0.001272
v -0.011877 -0.038215 -0.009688
v 0.005469 -0.058712 -0.031238
v -0.009775 -0.052926 -0.008639
v -0.002942 -0.057134 -0.030184
v -0.011877 -0.040843 0.002406
v -0.001364 -0.034530 -0.013895
v -0.007670 -0.038737 -0.019140
v 0.003893 -0.051348 0.002934
v 0.012303 -0.037159 -0.011267
v 0.000738 -0.062391 -0.001272
v 0.003366 -0.037159 -0.019672
v 0.012830 -0.045573 0.000831
v -0.010301 -0.050297 -0.012845
v -0.005042 -0.058712 -0.025975
v 0.013353 -0.040315 -0.007582
v 0.007047 -0.062919 -0.019140
v 0.007047 -0.052404 -0.030184
v 0.000212 -0.042944 -0.025450
v 0.011251 -0.040843 -0.018615
v 0.001788 -0.058712 -0.031763
v 0.008623 -0.057662 -0.030184
v -0.010301 -0.037159 -0.013895
v 0.012830 -0.052404 -0.006004
v -0.006094 -0.050297 0.002934
v 0.013353 -0.049775 -0.013370
v -0.009249 -0.034530 -0.007582
v -0.011351 -0.046101 -0.003375
v -0.009775 -0.045045 -0.017566
v 0.010199 -0.035586 -0.010742
v 0.012830 -0.043472 -0.017037
v 0.009149 -0.040315 -0.020194
v 0.003366 -0.049247 -0.029660
v 0.010199 -0.059235 -0.025975
v 0.001788 -0.056083 -0.032816
v -0.004518 -0.054505 -0.028078
v -0.003992 -0.040315 -0.022300
v -0.000312 -0.048725 -0.029135
v 0.003893 -0.034530 -0.013370
f 114 96 123 
f 65 70 75 
f 61 62 76 
f 67 72 76 
f 60 64 77 
f 70 65 77 
f 74 61 78 
f 61 76 78 
f 77 64 81 
f 70 77 81 
f 81 64 86 
f 69 78 88 
f 70 81 90 
f 81 86 90 
f 64 60 91 
f 73 80 91 
f 80 73 92 
f 83 68 92 
f 75 70 93 
f 63 85 93 
f 85 75 93 
f 78 76 95 
f 85 63 95 
f 76 85 95 
f 70 88 95 
f 88 78 95 
f 84 73 96 
f 73 91 96 
f 65 75 97 
f 78 69 99 
f 74 78 99 
f 89 74 99 
f 69 98 99 
f 77 65 100 
f 72 79 100 
f 94 77 100 
f 79 94 100 
f 65 97 100 
f 97 72 100 
f 76 62 101 
f 62 87 101 
f 73 84 103 
f 71 94 104 
f 82 102 104 
f 62 61 105 
f 61 74 105 
f 87 62 105 
f 66 87 105 
f 74 89 105 
f 82 67 106 
f 87 66 106 
f 66 102 106 
f 102 82 106 
f 68 86 107 
f 86 64 107 
f 80 92 107 
f 92 68 107 
f 76 72 108 
f 75 85 108 
f 85 76 108 
f 97 75 108 
f 72 97 108 
f 63 93 109 
f 93 70 109 
f 95 63 109 
f 70 95 109 
f 72 67 110 
f 79 72 110 
f 64 91 111 
f 91 80 111 
f 107 64 111 
f 80 107 111 
f 88 70 112 
f 69 88 112 
f 70 90 112 
f 90 86 112 
f 98 69 112 
f 86 98 112 
f 86 68 113 
f 98 86 113 
f 99 98 113 
f 60 77 114 
f 94 71 114 
f 77 94 114 
f 71 96 114 
f 67 82 115 
f 94 79 115 
f 82 104 115 
f 104 94 115 
f 110 67 115 
f 79 110 115 
f 96 71 116 
f 84 96 116 
f 102 84 116 
f 71 104 116 
f 104 102 116 
f 102 66 117 
f 84 102 117 
f 103 84 117 
f 67 76 118 
f 76 101 118 
f 101 87 118 
f 106 67 118 
f 87 106 118 
f 89 83 119 
f 66 105 119 
f 105 89 119 
f 68 83 120 
f 83 89 120 
f 89 99 120 
f 113 68 120 
f 99 113 120 
f 92 73 121 
f 83 92 121 
f 73 103 121 
f 121 103 122 
f 117 66 122 
f 103 117 122 
f 119 83 122 
f 66 119 122 
f 83 121 122 
f 91 60 123 
f 96 91 123 
f 60 114 123 
o convex_3
v 0.011777 -0.034530 0.002934
v -0.002414 -0.031376 -0.012838
v -0.004517 -0.031376 -0.012310
v 0.013356 -0.028747 0.002934
v -0.013982 -0.028747 0.002934
v -0.012404 -0.034530 0.002934
v 0.004418 -0.034530 -0.011785
v 0.004418 -0.028747 -0.011259
v -0.010827 -0.028747 -0.007578
v -0.008724 -0.034530 -0.007578
v 0.011777 -0.029798 -0.002849
v -0.012931 -0.031376 -0.003376
v -0.001890 -0.034530 -0.012838
v -0.002941 -0.028747 -0.011785
v 0.009674 -0.032426 -0.006002
v -0.009249 -0.031376 -0.009682
v 0.006521 -0.029273 -0.010209
v 0.009674 -0.034530 -0.003902
v 0.002839 -0.029798 -0.012310
v -0.011352 -0.033477 -0.004952
v 0.011777 -0.028747 -0.002849
v 0.011777 -0.032952 -0.000747
v -0.008724 -0.028747 -0.009682
v 0.002315 -0.034530 -0.012838
f 142 130 147 
f 124 127 128 
f 124 128 129 
f 124 129 130 
f 128 127 131 
f 128 131 132 
f 130 129 133 
f 129 128 135 
f 128 132 135 
f 126 125 136 
f 130 133 136 
f 125 126 137 
f 132 131 137 
f 135 132 139 
f 126 136 139 
f 136 133 139 
f 138 130 140 
f 124 130 141 
f 130 138 141 
f 125 137 142 
f 137 131 142 
f 131 140 142 
f 140 130 142 
f 133 129 143 
f 129 135 143 
f 135 139 143 
f 139 133 143 
f 131 127 144 
f 127 134 144 
f 134 138 144 
f 140 131 144 
f 138 140 144 
f 127 124 145 
f 134 127 145 
f 138 134 145 
f 124 141 145 
f 141 138 145 
f 137 126 146 
f 132 137 146 
f 126 139 146 
f 139 132 146 
f 136 125 147 
f 130 136 147 
f 125 142 147 
o convex_4
v -0.019240 -0.050300 0.012396
v -0.007148 -0.043994 0.013973
v -0.007675 -0.043994 0.013973
v -0.007148 -0.043994 0.002934
v -0.011880 -0.055032 0.014499
v -0.007148 -0.049251 0.003461
v -0.018188 -0.052403 0.017129
v -0.018713 -0.051352 0.010294
v -0.010303 -0.043994 0.002934
v -0.007148 -0.049775 0.012396
v -0.011355 -0.043994 0.010818
v -0.010829 -0.054506 0.010294
v -0.017662 -0.054506 0.017129
v -0.015033 -0.054506 0.017129
v -0.012406 -0.054506 0.010294
v -0.016610 -0.048200 0.013448
v -0.007148 -0.047675 0.013973
v -0.007675 -0.048726 0.002934
v -0.017662 -0.048726 0.009769
v -0.018713 -0.053981 0.015025
f 162 160 167 
f 150 149 151 
f 151 149 153 
f 149 150 154 
f 150 151 156 
f 153 149 157 
f 150 156 158 
f 157 152 159 
f 153 157 159 
f 149 154 161 
f 160 152 161 
f 154 160 161 
f 159 152 162 
f 153 159 162 
f 152 160 162 
f 148 154 163 
f 154 150 163 
f 150 158 163 
f 157 149 164 
f 152 157 164 
f 149 161 164 
f 161 152 164 
f 151 153 165 
f 155 156 165 
f 156 151 165 
f 153 162 165 
f 162 155 165 
f 155 148 166 
f 156 155 166 
f 158 156 166 
f 148 163 166 
f 163 158 166 
f 154 148 167 
f 148 155 167 
f 160 154 167 
f 155 162 167 
o convex_5
v -0.017662 -0.025066 0.009762
v 0.023345 -0.015605 -0.000217
v 0.022817 -0.016129 0.002938
v -0.018185 -0.003511 0.015022
v -0.015559 -0.005616 -0.022827
v 0.001262 -0.028747 -0.011782
v 0.001785 -0.028747 0.027117
v 0.015457 -0.003511 0.017647
v 0.016509 -0.011925 -0.022827
v 0.018611 -0.003511 -0.008627
v -0.022919 -0.018755 -0.006527
v -0.002939 -0.016650 0.030272
v 0.013878 -0.028747 0.002938
v -0.014508 -0.015082 -0.022827
v 0.015457 -0.018755 -0.022827
v -0.011354 -0.028747 -0.007052
v -0.022391 -0.003511 -0.000217
v -0.003467 -0.003511 0.025012
v -0.009775 -0.003511 -0.022827
v -0.007672 -0.028747 0.023437
v 0.018611 -0.019807 0.012917
v -0.021867 -0.018229 0.007657
v 0.022817 -0.018755 -0.007577
v 0.020714 -0.003511 0.008712
v 0.002841 -0.017702 0.029217
v -0.023970 -0.011925 -0.007052
v 0.013355 -0.028747 0.011867
v -0.017662 -0.014027 0.016072
v 0.008621 -0.003511 -0.017567
v -0.015559 -0.028220 0.002413
v 0.005995 -0.003511 0.023962
v 0.023345 -0.014029 -0.006527
v -0.018185 -0.014555 -0.020197
v 0.014929 -0.017179 0.018702
v 0.021765 -0.021386 0.001883
v 0.018611 -0.023485 -0.007577
v -0.003995 -0.022438 0.029742
v 0.007570 -0.028747 -0.008627
v 0.008098 -0.019281 -0.022822
v -0.005041 -0.028747 -0.011257
v -0.022391 -0.003511 0.005032
v -0.023442 -0.018755 0.000833
v 0.008098 -0.028220 0.021857
v -0.015031 -0.004037 0.018702
v 0.012827 -0.008770 -0.022822
v -0.020288 -0.022961 -0.004947
v 0.021237 -0.003511 -0.000747
v 0.018611 -0.014553 -0.020722
v -0.021867 -0.007721 -0.011257
v -0.018185 -0.021386 -0.011782
v 0.005467 -0.023488 0.026587
v -0.013980 -0.028747 0.010817
v -0.017662 -0.009823 -0.022297
v 0.020186 -0.018231 0.010812
v -0.000313 -0.012453 0.029217
v -0.019760 -0.020333 0.010817
v -0.020816 -0.003511 0.010817
v -0.023970 -0.012977 0.000308
v 0.017032 -0.012453 0.016597
v -0.021867 -0.021912 0.000308
v -0.012929 -0.003511 -0.022827
v -0.003995 -0.028747 0.027117
v -0.000313 -0.024011 0.029742
v -0.006621 -0.025066 0.026587
f 229 204 231 
f 171 175 177 
f 174 173 180 
f 172 176 181 
f 181 176 182 
f 173 174 183 
f 171 177 184 
f 175 171 185 
f 176 172 186 
f 184 177 186 
f 183 174 187 
f 170 169 191 
f 177 175 191 
f 174 180 194 
f 186 177 196 
f 175 185 198 
f 192 175 198 
f 169 190 199 
f 178 193 200 
f 175 192 201 
f 169 170 202 
f 190 169 202 
f 194 180 202 
f 188 194 202 
f 182 190 203 
f 190 202 203 
f 202 180 203 
f 180 173 205 
f 173 182 205 
f 203 180 205 
f 182 203 205 
f 182 173 206 
f 181 182 206 
f 173 183 207 
f 183 181 207 
f 206 173 207 
f 181 206 207 
f 171 184 208 
f 184 193 208 
f 168 189 209 
f 193 178 209 
f 174 194 210 
f 194 188 210 
f 188 201 210 
f 185 171 211 
f 179 185 211 
f 171 195 211 
f 204 179 211 
f 195 204 211 
f 177 176 212 
f 176 186 212 
f 196 177 212 
f 186 196 212 
f 183 197 213 
f 191 169 214 
f 177 191 214 
f 199 177 214 
f 169 199 214 
f 176 177 215 
f 182 176 215 
f 190 182 215 
f 177 199 215 
f 199 190 215 
f 184 172 216 
f 193 184 216 
f 181 183 217 
f 200 181 217 
f 178 200 217 
f 183 213 217 
f 213 178 217 
f 201 192 218 
f 174 210 218 
f 210 201 218 
f 187 168 219 
f 183 187 219 
f 168 197 219 
f 197 183 219 
f 172 181 220 
f 181 200 220 
f 200 193 220 
f 216 172 220 
f 193 216 220 
f 170 191 221 
f 202 170 221 
f 188 202 221 
f 185 179 222 
f 179 192 222 
f 198 185 222 
f 192 198 222 
f 168 187 223 
f 189 168 223 
f 195 189 223 
f 195 171 224 
f 189 195 224 
f 171 208 224 
f 224 208 225 
f 208 193 225 
f 193 209 225 
f 209 189 225 
f 189 224 225 
f 191 175 226 
f 175 201 226 
f 201 188 226 
f 221 191 226 
f 188 221 226 
f 197 168 227 
f 168 209 227 
f 209 178 227 
f 213 197 227 
f 178 213 227 
f 172 184 228 
f 186 172 228 
f 184 186 228 
f 187 174 229 
f 204 229 230 
f 192 179 230 
f 179 204 230 
f 174 218 230 
f 218 192 230 
f 229 174 230 
f 204 195 231 
f 223 187 231 
f 195 223 231 
f 187 229 231 
o convex_6
v -0.023967 0.004902 -0.007577
v 0.024396 0.009106 0.005032
v 0.024396 0.008585 0.005032
v -0.002412 0.016465 0.029746
v -0.002939 0.021724 -0.015983
v 0.011776 -0.003511 -0.016513
v -0.002939 -0.003511 0.025014
v -0.019236 0.021724 0.016598
v 0.016507 0.021724 0.021330
v -0.020813 -0.003511 0.010813
v 0.020188 0.018570 -0.008626
v 0.015984 -0.003511 0.017127
v -0.011879 -0.003511 -0.017037
v -0.018709 0.017517 -0.012305
v 0.003891 0.010156 -0.021250
v 0.021765 -0.001407 -0.005476
v -0.013456 0.010156 -0.019143
v 0.020715 0.021724 -0.001268
v -0.020291 0.021724 -0.002845
v -0.013456 -0.003511 0.019753
v 0.021237 0.007530 -0.011780
v -0.025022 0.010682 0.000834
v 0.001259 0.021724 0.029217
v 0.005995 -0.003511 0.023961
v -0.022390 -0.003511 -0.001268
v 0.013880 0.013311 -0.017037
v 0.020188 -0.003511 0.010818
v -0.001362 0.001222 -0.020716
v -0.014505 0.021724 0.022379
v 0.008622 0.021724 -0.013887
v -0.021340 0.009628 -0.013358
v 0.024396 0.012784 -0.000743
v 0.012825 0.021198 0.024485
v 0.011776 0.004902 -0.019138
v 0.022292 0.017517 0.008187
v -0.024494 0.004376 0.003460
v 0.021237 0.002274 0.011871
v -0.018187 -0.003511 -0.011256
v 0.001787 0.015939 -0.019672
v -0.023967 0.012784 -0.006000
v -0.011879 0.021724 -0.013358
v 0.023869 0.002274 -0.001268
v 0.003891 -0.003511 -0.019138
v -0.006621 0.011735 -0.020716
v -0.012401 0.004902 -0.019672
v 0.018611 -0.003511 -0.009155
v 0.000210 0.016991 0.029746
v -0.018709 -0.003511 0.014496
v -0.019236 0.004902 -0.014935
v 0.019661 0.002797 -0.012834
v -0.011351 0.016465 -0.017561
v 0.023342 0.005428 -0.007577
v -0.022390 0.005952 0.009764
v 0.022814 0.011735 0.009764
v 0.003364 0.003324 -0.021250
v 0.011776 -0.003511 0.020801
v 0.021237 -0.003511 0.007139
v -0.023967 0.014363 0.000834
v -0.006093 0.006478 -0.021250
v -0.018187 0.021198 0.018700
v -0.003467 0.021198 0.029217
v 0.018611 0.010156 -0.014411
v -0.025022 0.004902 -0.002845
v 0.023342 0.010682 -0.007048
f 263 283 295 
f 236 239 240 
f 237 238 241 
f 238 237 243 
f 237 241 244 
f 236 240 249 
f 239 236 250 
f 238 235 251 
f 241 238 251 
f 240 239 254 
f 238 243 255 
f 244 241 256 
f 243 237 258 
f 251 235 260 
f 254 239 260 
f 236 249 261 
f 249 242 261 
f 242 257 261 
f 245 248 262 
f 233 234 263 
f 242 249 263 
f 243 240 264 
f 240 254 264 
f 246 257 265 
f 249 240 266 
f 233 263 266 
f 263 249 266 
f 256 241 267 
f 240 243 268 
f 243 258 268 
f 256 232 269 
f 244 256 269 
f 257 246 270 
f 236 261 270 
f 261 257 270 
f 250 245 271 
f 262 232 271 
f 245 262 271 
f 250 236 272 
f 245 250 272 
f 263 234 273 
f 237 244 274 
f 244 259 274 
f 265 237 274 
f 236 270 275 
f 270 246 275 
f 259 244 276 
f 258 237 277 
f 235 238 278 
f 238 255 278 
f 264 254 278 
f 255 264 278 
f 241 251 279 
f 232 262 280 
f 262 248 280 
f 269 232 280 
f 244 269 280 
f 276 244 280 
f 248 276 280 
f 237 265 281 
f 277 237 281 
f 247 277 281 
f 248 245 282 
f 245 272 282 
f 272 236 282 
f 275 248 282 
f 236 275 282 
f 273 247 283 
f 263 273 283 
f 247 281 283 
f 281 252 283 
f 239 253 284 
f 267 241 284 
f 253 267 284 
f 241 279 284 
f 234 233 285 
f 233 266 285 
f 266 240 285 
f 268 234 285 
f 240 268 285 
f 246 265 286 
f 274 259 286 
f 265 274 286 
f 255 243 287 
f 243 264 287 
f 264 255 287 
f 234 268 288 
f 268 258 288 
f 247 273 288 
f 273 234 288 
f 277 247 288 
f 258 277 288 
f 239 250 289 
f 253 239 289 
f 250 271 289 
f 271 253 289 
f 275 246 290 
f 248 275 290 
f 259 276 290 
f 276 248 290 
f 246 286 290 
f 286 259 290 
f 260 239 291 
f 251 260 291 
f 279 251 291 
f 239 284 291 
f 284 279 291 
f 260 235 292 
f 254 260 292 
f 235 278 292 
f 278 254 292 
f 242 252 293 
f 257 242 293 
f 265 257 293 
f 252 281 293 
f 281 265 293 
f 232 256 294 
f 267 253 294 
f 256 267 294 
f 271 232 294 
f 253 271 294 
f 252 242 295 
f 242 263 295 
f 283 252 295 
o convex_7
v -0.019764 0.038018 0.011340
v -0.003471 0.021724 -0.015458
v 0.001264 0.021724 -0.015458
v -0.006624 0.049588 -0.017565
v 0.001264 0.033291 0.028694
v -0.020290 0.021724 -0.002318
v -0.002943 0.021724 0.029216
v 0.001264 0.046959 0.011867
v -0.016086 0.040647 -0.017565
v -0.018711 0.022777 0.018700
v -0.011879 0.036441 0.021856
v -0.022920 0.033818 -0.000216
v -0.017134 0.042224 0.007135
v 0.001264 0.021724 0.029216
v 0.001264 0.038544 -0.004947
v -0.001366 0.042753 0.021856
v -0.011879 0.021724 -0.012834
v -0.009251 0.049588 -0.017038
v -0.020290 0.040124 0.000311
v -0.016609 0.031188 0.021334
v -0.003996 0.045379 -0.017565
v -0.002943 0.034347 0.028689
v -0.007149 0.048535 -0.001264
v -0.020815 0.024880 0.015545
v -0.016086 0.037494 -0.017565
v -0.013981 0.042750 0.011340
v -0.016609 0.021724 0.020807
v 0.001264 0.046959 0.006087
v -0.021341 0.035394 -0.007049
v -0.018711 0.021724 -0.006527
v -0.014507 0.044856 -0.017565
v -0.000841 0.045903 0.016076
v -0.021341 0.033818 0.012393
v -0.016086 0.038544 0.016603
v -0.008726 0.034347 -0.017565
v 0.001264 0.042226 0.022378
v -0.022392 0.028562 0.007135
v -0.019239 0.031717 0.018178
v -0.020815 0.038018 -0.006527
v -0.021341 0.038018 0.005564
v -0.010305 0.041174 0.018178
v -0.001892 0.037494 0.027114
v -0.014507 0.026456 0.022909
v -0.019239 0.021724 0.017125
v -0.003471 0.038544 -0.017565
v -0.018711 0.041700 0.002413
v -0.005570 0.049062 -0.017565
v -0.020815 0.033818 -0.008103
v -0.000315 0.033818 0.029216
v -0.014507 0.035394 -0.017565
v -0.009777 0.044856 0.009764
v -0.018188 0.034868 0.017651
v -0.022392 0.032768 0.007658
v -0.016086 0.040647 0.013447
v -0.020290 0.021724 0.004511
v -0.013456 0.030665 0.023431
v -0.014507 0.033818 0.021856
v -0.003471 0.043277 -0.017565
v -0.002417 0.044329 0.018705
v -0.002417 0.040647 0.023963
v 0.001264 0.036444 0.027641
v -0.022920 0.031717 0.001887
v -0.021867 0.033294 -0.004951
v -0.012405 0.046956 -0.017565
f 314 341 359 
f 297 298 301 
f 301 298 302 
f 300 298 303 
f 298 300 309 
f 302 298 309 
f 303 298 310 
f 297 301 312 
f 304 299 316 
f 303 299 318 
f 299 313 318 
f 313 308 318 
f 304 316 320 
f 318 308 321 
f 301 302 322 
f 315 305 322 
f 299 303 323 
f 303 310 323 
f 310 316 323 
f 312 301 325 
f 320 312 325 
f 299 304 326 
f 303 318 327 
f 298 297 330 
f 320 316 330 
f 300 303 331 
f 303 327 331 
f 327 311 331 
f 305 315 333 
f 319 305 333 
f 328 319 333 
f 307 314 334 
f 324 307 334 
f 304 324 334 
f 326 304 334 
f 314 326 334 
f 296 308 335 
f 314 307 335 
f 328 296 335 
f 329 306 336 
f 306 317 337 
f 322 302 338 
f 315 322 338 
f 305 319 339 
f 301 322 339 
f 322 305 339 
f 298 330 340 
f 330 316 340 
f 308 313 341 
f 335 308 341 
f 314 335 341 
f 316 299 342 
f 299 323 342 
f 323 316 342 
f 304 320 343 
f 324 304 343 
f 320 325 343 
f 325 301 343 
f 309 300 344 
f 302 309 344 
f 317 302 344 
f 337 317 344 
f 297 312 345 
f 312 320 345 
f 330 297 345 
f 320 330 345 
f 318 321 346 
f 327 318 346 
f 321 327 346 
f 296 328 347 
f 329 296 347 
f 333 315 347 
f 328 333 347 
f 319 328 348 
f 332 319 348 
f 335 307 348 
f 328 335 348 
f 308 296 349 
f 321 308 349 
f 296 329 349 
f 336 321 349 
f 329 336 349 
f 332 301 350 
f 319 332 350 
f 301 339 350 
f 339 319 350 
f 302 317 351 
f 338 302 351 
f 315 338 351 
f 317 306 352 
f 306 329 352 
f 347 315 352 
f 329 347 352 
f 351 317 352 
f 315 351 352 
f 310 298 353 
f 316 310 353 
f 298 340 353 
f 340 316 353 
f 311 327 354 
f 327 321 354 
f 336 311 354 
f 321 336 354 
f 331 311 355 
f 336 306 355 
f 311 336 355 
f 306 337 355 
f 337 331 355 
f 300 331 356 
f 331 337 356 
f 344 300 356 
f 337 344 356 
f 307 301 357 
f 301 332 357 
f 348 307 357 
f 332 348 357 
f 301 307 358 
f 307 324 358 
f 343 301 358 
f 324 343 358 
f 313 299 359 
f 299 326 359 
f 326 314 359 
f 341 313 359 
o convex_8
v 0.020715 0.034865 0.013443
v 0.001267 0.021724 -0.015464
v 0.001267 0.022250 -0.015464
v 0.001267 0.021724 0.028695
v 0.001267 0.046959 0.011341
v 0.015458 0.038020 -0.017570
v 0.020715 0.021724 0.001885
v 0.005472 0.036967 -0.017570
v 0.001790 0.038017 0.026064
v 0.017034 0.023302 0.021852
v 0.015985 0.042753 0.008715
v 0.017559 0.030137 -0.017570
v 0.022292 0.034865 -0.000741
v 0.014407 0.039072 0.019226
v 0.010202 0.044329 -0.002317
v 0.014932 0.031190 0.023433
v 0.014407 0.021724 -0.009681
v 0.022292 0.029088 0.010816
v 0.009151 0.040122 -0.017570
v 0.001267 0.046433 0.006088
v 0.018087 0.040648 -0.003372
v 0.001267 0.045381 0.017124
v 0.021766 0.030664 -0.007050
v 0.017559 0.021724 0.019751
v 0.001267 0.038543 -0.005474
v 0.001267 0.034342 0.028165
v 0.010202 0.021724 0.026064
v 0.019663 0.024355 -0.007575
v 0.021241 0.037494 0.005563
v 0.015985 0.041698 0.013443
v 0.019137 0.030137 0.019226
v 0.020188 0.034865 -0.010202
v 0.014932 0.028035 -0.017570
v 0.011780 0.044855 0.005037
v 0.022819 0.029611 0.001365
v 0.010730 0.044329 0.012392
v 0.009677 0.042226 0.018179
v 0.011780 0.040122 -0.017570
v 0.010202 0.028559 0.026064
v 0.009677 0.034342 0.025013
v 0.006523 0.030137 -0.017570
v 0.022819 0.032242 0.006609
v 0.017559 0.037494 0.017124
v 0.008624 0.021724 -0.013363
v 0.002318 0.042226 0.021857
v 0.020715 0.026457 0.015023
v 0.014932 0.040648 -0.011257
v 0.016508 0.026457 -0.014939
v 0.001790 0.031192 0.028695
v 0.001790 0.046959 0.007664
v 0.017559 0.033818 -0.017570
v 0.018612 0.038543 -0.008630
v 0.017034 0.042226 0.002936
v 0.012829 0.043802 -0.001267
v 0.018087 0.039598 0.013443
v 0.009677 0.038543 0.022382
v 0.020188 0.021724 0.007664
v 0.015458 0.029611 0.023433
v 0.021241 0.031716 0.014493
v 0.015458 0.034865 0.021331
v 0.017559 0.041698 0.008715
v 0.018612 0.025407 0.020281
v 0.021766 0.026457 0.010291
v 0.020715 0.024881 -0.004944
f 382 394 423 
f 362 361 363 
f 362 363 364 
f 363 361 366 
f 361 362 367 
f 367 365 371 
f 366 361 376 
f 365 367 378 
f 362 364 379 
f 378 367 379 
f 364 363 381 
f 363 366 383 
f 367 362 384 
f 362 379 384 
f 379 367 384 
f 381 363 385 
f 368 381 385 
f 363 383 386 
f 383 369 386 
f 366 376 387 
f 371 382 387 
f 372 380 388 
f 372 382 391 
f 367 371 392 
f 382 372 394 
f 364 381 395 
f 389 370 395 
f 393 364 395 
f 370 393 395 
f 373 389 396 
f 395 381 396 
f 389 395 396 
f 365 378 397 
f 378 374 397 
f 368 385 399 
f 398 375 399 
f 361 367 400 
f 392 361 400 
f 367 392 400 
f 388 360 401 
f 372 388 401 
f 377 394 401 
f 394 372 401 
f 389 373 402 
f 390 360 402 
f 376 361 403 
f 361 392 403 
f 381 368 404 
f 396 381 404 
f 365 397 406 
f 387 376 407 
f 371 387 407 
f 392 371 407 
f 376 403 407 
f 403 392 407 
f 385 363 408 
f 363 386 408 
f 386 398 408 
f 399 385 408 
f 398 399 408 
f 374 378 409 
f 378 379 409 
f 379 364 409 
f 364 393 409 
f 393 374 409 
f 371 365 410 
f 382 371 410 
f 365 391 410 
f 391 382 410 
f 380 372 411 
f 391 365 411 
f 372 391 411 
f 365 406 411 
f 406 380 411 
f 388 380 412 
f 393 370 412 
f 393 412 413 
f 374 393 413 
f 397 374 413 
f 380 406 413 
f 406 397 413 
f 412 380 413 
f 360 388 414 
f 402 360 414 
f 389 402 414 
f 373 396 415 
f 368 399 415 
f 404 368 415 
f 396 404 415 
f 383 366 416 
f 386 369 417 
f 390 375 417 
f 375 398 417 
f 398 386 417 
f 360 390 418 
f 401 360 418 
f 377 401 418 
f 405 377 418 
f 375 390 419 
f 399 375 419 
f 402 373 419 
f 390 402 419 
f 373 415 419 
f 415 399 419 
f 370 389 420 
f 412 370 420 
f 388 412 420 
f 414 388 420 
f 389 414 420 
f 369 383 421 
f 383 405 421 
f 417 369 421 
f 390 417 421 
f 418 390 421 
f 405 418 421 
f 366 394 422 
f 394 377 422 
f 377 405 422 
f 405 383 422 
f 416 366 422 
f 383 416 422 
f 366 387 423 
f 387 382 423 
f 394 366 423 
o convex_9
v 0.004417 -0.046097 0.015552
v -0.007146 -0.049249 0.002934
v -0.007146 -0.043993 0.002934
v 0.011251 -0.045571 0.002934
v 0.005469 -0.050827 0.006088
v -0.007146 -0.049249 0.012922
v -0.006096 -0.043993 0.015025
v 0.010725 -0.043993 0.008192
v 0.006521 -0.049249 0.014499
v -0.002940 -0.051353 0.002934
v 0.011251 -0.048198 0.009243
v 0.006521 -0.043993 0.015025
v 0.008099 -0.049775 0.002934
v 0.011251 -0.043993 0.002934
v -0.002414 -0.050827 0.009243
v -0.000837 -0.047673 0.015025
v -0.007146 -0.050300 0.010291
v -0.007146 -0.043993 0.014499
v 0.009149 -0.049775 0.009243
v 0.006521 -0.049775 0.013447
v 0.003366 -0.051353 0.003986
v 0.011251 -0.045571 0.009243
v -0.003992 -0.044519 0.015552
f 439 424 446 
f 425 426 427 
f 426 425 429 
f 426 430 431 
f 425 427 433 
f 432 434 435 
f 431 430 435 
f 424 432 435 
f 433 427 436 
f 427 434 436 
f 427 426 437 
f 426 431 437 
f 434 427 437 
f 429 432 439 
f 432 424 439 
f 429 425 440 
f 425 433 440 
f 433 438 440 
f 426 429 441 
f 430 426 441 
f 429 430 441 
f 428 436 442 
f 436 434 442 
f 432 429 443 
f 434 432 443 
f 429 440 443 
f 440 438 443 
f 428 442 443 
f 442 434 443 
f 433 436 444 
f 436 428 444 
f 438 433 444 
f 428 443 444 
f 443 438 444 
f 435 434 445 
f 431 435 445 
f 437 431 445 
f 434 437 445 
f 430 429 446 
f 424 435 446 
f 435 430 446 
f 429 439 446 
o convex_10
v -0.017661 -0.015602 -0.039649
v -0.010305 -0.001410 -0.034394
v -0.010305 -0.001410 -0.036495
v -0.006097 -0.012973 -0.039123
v -0.009252 -0.012447 -0.030713
v -0.021868 -0.007193 -0.039649
v -0.016609 -0.009293 -0.030713
v -0.006097 -0.008244 -0.041226
v -0.005572 -0.006667 -0.030713
v -0.013982 -0.003513 -0.030713
v -0.019237 -0.006667 -0.041226
v -0.009252 -0.014550 -0.041226
v -0.017136 -0.015076 -0.035970
v -0.015031 -0.001936 -0.037021
v -0.020816 -0.007193 -0.035446
v -0.008200 -0.003513 -0.039123
v -0.013982 -0.016128 -0.038072
v -0.005572 -0.005089 -0.038072
v -0.021868 -0.009819 -0.038072
v -0.018188 -0.013498 -0.041226
v -0.005572 -0.009819 -0.030713
v -0.005045 -0.010871 -0.039649
v -0.007675 -0.004039 -0.030713
v -0.015031 -0.004039 -0.040175
v -0.016085 -0.002462 -0.034920
v -0.007150 -0.014024 -0.039123
v -0.013982 -0.011922 -0.030713
v -0.006623 -0.003513 -0.035970
v -0.021868 -0.009293 -0.040175
v -0.019764 -0.009819 -0.034394
v -0.020289 -0.005615 -0.040175
v -0.012931 -0.001936 -0.032292
v -0.016085 -0.005615 -0.030713
v -0.008727 -0.006667 -0.041226
v -0.018713 -0.014550 -0.037021
v -0.006097 -0.012447 -0.041226
v -0.016085 -0.016128 -0.040175
f 447 466 483 
f 453 451 455 
f 453 455 456 
f 457 454 458 
f 448 449 460 
f 451 459 463 
f 454 462 464 
f 461 452 465 
f 457 458 466 
f 455 451 467 
f 454 464 468 
f 464 455 468 
f 467 450 468 
f 455 467 468 
f 456 455 469 
f 460 449 470 
f 449 462 470 
f 452 461 471 
f 451 463 472 
f 463 458 472 
f 450 467 472 
f 467 451 472 
f 451 453 473 
f 453 459 473 
f 459 451 473 
f 449 448 474 
f 462 449 474 
f 455 464 474 
f 464 462 474 
f 448 469 474 
f 469 455 474 
f 452 457 475 
f 447 465 475 
f 465 452 475 
f 457 466 475 
f 466 447 475 
f 453 461 476 
f 461 465 476 
f 457 452 477 
f 470 457 477 
f 460 470 477 
f 471 460 477 
f 452 471 477 
f 448 460 478 
f 469 448 478 
f 456 469 478 
f 471 456 478 
f 460 471 478 
f 453 456 479 
f 461 453 479 
f 456 471 479 
f 471 461 479 
f 454 457 480 
f 462 454 480 
f 457 470 480 
f 470 462 480 
f 447 459 481 
f 459 453 481 
f 465 447 481 
f 453 476 481 
f 476 465 481 
f 458 454 482 
f 454 468 482 
f 468 450 482 
f 450 472 482 
f 472 458 482 
f 459 447 483 
f 458 463 483 
f 463 459 483 
f 466 458 483 
o convex_11
v -0.010303 -0.015078 -0.022827
v -0.008726 -0.003511 -0.024406
v -0.008726 -0.003511 -0.025457
v -0.017137 -0.008769 -0.022827
v -0.014508 -0.011397 -0.030713
v -0.005572 -0.009820 -0.030713
v -0.013456 -0.003511 -0.030713
v -0.005045 -0.008244 -0.022827
v -0.012930 -0.003511 -0.022827
v -0.006097 -0.005615 -0.030713
v -0.015559 -0.014026 -0.022827
v -0.016083 -0.006140 -0.030713
v -0.009252 -0.012449 -0.030713
v -0.005572 -0.011397 -0.027033
v -0.016083 -0.009820 -0.030713
v -0.006623 -0.005090 -0.022827
v -0.012930 -0.015078 -0.023354
v -0.005572 -0.011397 -0.022827
v -0.007674 -0.004038 -0.030713
v -0.015032 -0.005090 -0.022827
v -0.017137 -0.011397 -0.023354
v -0.005572 -0.005615 -0.028083
f 493 502 505 
f 485 486 490 
f 489 488 490 
f 487 484 491 
f 485 490 492 
f 487 491 492 
f 489 490 493 
f 484 487 494 
f 490 488 495 
f 488 489 496 
f 496 489 497 
f 489 491 497 
f 484 496 497 
f 488 494 498 
f 495 488 498 
f 485 492 499 
f 492 491 499 
f 484 494 500 
f 494 488 500 
f 496 484 500 
f 488 496 500 
f 491 484 501 
f 484 497 501 
f 497 491 501 
f 486 485 502 
f 490 486 502 
f 493 490 502 
f 492 490 503 
f 487 492 503 
f 495 487 503 
f 490 495 503 
f 494 487 504 
f 487 495 504 
f 498 494 504 
f 495 498 504 
f 491 489 505 
f 489 493 505 
f 485 499 505 
f 499 491 505 
f 502 485 505 
o convex_12
v 0.006522 -0.021386 -0.038598
v 0.011779 -0.008243 -0.038072
v 0.011779 -0.008771 -0.035446
v 0.020716 -0.017705 -0.040701
v 0.015456 -0.017180 -0.031239
v 0.005470 -0.013502 -0.031239
v 0.004945 -0.013502 -0.040701
v 0.015983 -0.011924 -0.031239
v 0.016509 -0.022438 -0.040701
v 0.016509 -0.010873 -0.041227
v 0.009152 -0.018757 -0.031239
v 0.012304 -0.020859 -0.041751
v 0.007575 -0.010347 -0.031239
v 0.015456 -0.021910 -0.036496
v 0.004420 -0.019808 -0.040175
v 0.018085 -0.010873 -0.037021
v 0.020716 -0.017180 -0.037546
v 0.008625 -0.009295 -0.040701
v 0.004420 -0.012449 -0.035446
v 0.008625 -0.013502 -0.041751
v 0.020716 -0.015078 -0.041227
v 0.005999 -0.016653 -0.031239
v 0.007048 -0.009295 -0.038598
v 0.019137 -0.018757 -0.041751
v 0.012830 -0.009821 -0.031239
v 0.003893 -0.016127 -0.035972
v 0.015983 -0.009295 -0.039649
v 0.020716 -0.014027 -0.038598
v 0.019137 -0.020334 -0.038598
v 0.007575 -0.021910 -0.040175
v 0.003893 -0.013502 -0.039123
v 0.013879 -0.022438 -0.037546
v 0.014933 -0.008771 -0.037021
v 0.004945 -0.019808 -0.040701
v 0.005470 -0.019282 -0.035446
v 0.014933 -0.012449 -0.041751
v 0.008100 -0.020859 -0.035446
v 0.012830 -0.018757 -0.031239
v 0.016509 -0.015603 -0.031239
v 0.020189 -0.014554 -0.036496
f 513 544 545 
f 511 510 513 
f 510 511 516 
f 508 507 518 
f 511 513 518 
f 511 518 524 
f 512 523 525 
f 522 509 526 
f 516 511 527 
f 518 507 528 
f 507 523 528 
f 523 512 528 
f 524 518 528 
f 509 514 529 
f 514 517 529 
f 517 525 529 
f 526 509 529 
f 508 518 530 
f 518 513 530 
f 511 524 531 
f 527 511 531 
f 523 507 532 
f 515 523 532 
f 526 515 532 
f 522 526 533 
f 526 532 533 
f 532 521 533 
f 514 509 534 
f 510 519 534 
f 519 514 534 
f 522 510 534 
f 509 522 534 
f 517 514 535 
f 506 520 535 
f 512 520 536 
f 528 512 536 
f 524 528 536 
f 520 531 536 
f 531 524 536 
f 514 519 537 
f 519 516 537 
f 535 514 537 
f 506 535 537 
f 507 508 538 
f 513 521 538 
f 508 530 538 
f 530 513 538 
f 532 507 538 
f 521 532 538 
f 520 512 539 
f 525 517 539 
f 512 525 539 
f 517 535 539 
f 535 520 539 
f 520 506 540 
f 516 527 540 
f 531 520 540 
f 527 531 540 
f 523 515 541 
f 525 523 541 
f 515 526 541 
f 529 525 541 
f 526 529 541 
f 506 537 542 
f 537 516 542 
f 540 506 542 
f 516 540 542 
f 510 516 543 
f 519 510 543 
f 516 519 543 
f 513 510 544 
f 510 522 544 
f 544 522 545 
f 521 513 545 
f 533 521 545 
f 522 533 545 
o convex_13
v 0.009151 -0.019283 -0.024930
v 0.012829 -0.008769 -0.022827
v 0.013880 -0.009295 -0.022827
v 0.014933 -0.010872 -0.031239
v 0.005996 -0.011924 -0.031239
v 0.013880 -0.018230 -0.031239
v 0.017036 -0.016654 -0.022827
v 0.004944 -0.012975 -0.022827
v 0.005996 -0.016654 -0.031239
v 0.009151 -0.008769 -0.027033
v 0.007047 -0.018757 -0.022827
v 0.016509 -0.013502 -0.031239
v 0.013355 -0.019283 -0.022827
v 0.017036 -0.012975 -0.022827
v 0.009151 -0.018757 -0.031239
v 0.008100 -0.009295 -0.022827
v 0.011778 -0.009295 -0.030187
v 0.004944 -0.016129 -0.025981
v 0.008625 -0.009822 -0.031239
v 0.015984 -0.016129 -0.031239
f 557 552 565 
f 547 548 549 
f 550 549 551 
f 548 547 552 
f 552 547 553 
f 550 551 554 
f 552 553 556 
f 551 549 557 
f 551 552 558 
f 556 546 558 
f 552 556 558 
f 549 548 559 
f 548 552 559 
f 557 549 559 
f 552 557 559 
f 554 551 560 
f 546 556 560 
f 556 554 560 
f 558 546 560 
f 551 558 560 
f 550 553 561 
f 553 547 561 
f 547 555 561 
f 555 550 561 
f 547 549 562 
f 555 547 562 
f 553 550 563 
f 550 554 563 
f 556 553 563 
f 554 556 563 
f 549 550 564 
f 550 555 564 
f 562 549 564 
f 555 562 564 
f 552 551 565 
f 551 557 565 
o convex_14
v -0.012931 0.036445 -0.039649
v -0.005572 0.051691 -0.037546
v -0.005572 0.051691 -0.038071
v -0.019240 0.044854 -0.038071
v -0.006097 0.041177 -0.029136
v -0.002943 0.040652 -0.041225
v -0.013982 0.046958 -0.029136
v -0.003995 0.046958 -0.029136
v -0.013982 0.049587 -0.040174
v -0.012931 0.041704 -0.029136
v -0.016084 0.038549 -0.040700
v -0.003468 0.038549 -0.037546
v -0.002417 0.048009 -0.039649
v -0.011878 0.049061 -0.029136
v -0.001891 0.041177 -0.037020
v -0.015558 0.037497 -0.037546
v -0.013454 0.050639 -0.037546
v -0.010827 0.038022 -0.033869
v -0.005572 0.049587 -0.040700
v -0.017134 0.046432 -0.040700
v -0.018713 0.042754 -0.036495
v -0.017662 0.047484 -0.037020
v -0.006097 0.049061 -0.029136
v -0.002417 0.049061 -0.037020
v -0.010304 0.037497 -0.041225
v -0.003995 0.042754 -0.029136
v -0.009252 0.051691 -0.035969
v -0.004519 0.046432 -0.041225
v -0.009252 0.051691 -0.039124
v -0.004519 0.038022 -0.040174
v -0.005046 0.038549 -0.034920
v -0.013982 0.042754 -0.029136
v -0.001891 0.040652 -0.040174
v -0.018713 0.042754 -0.039649
v -0.011878 0.036445 -0.038598
v -0.013454 0.039599 -0.041225
v -0.010304 0.040652 -0.029136
v -0.003468 0.044854 -0.029664
v -0.017134 0.048009 -0.039649
f 587 582 604 
f 572 570 573 
f 570 572 575 
f 572 573 579 
f 576 566 581 
f 568 578 584 
f 574 584 585 
f 572 569 586 
f 569 572 587 
f 572 579 587 
f 579 582 587 
f 579 573 588 
f 568 567 589 
f 578 568 589 
f 567 588 589 
f 588 573 589 
f 566 576 590 
f 573 570 591 
f 577 580 591 
f 567 568 592 
f 582 579 592 
f 588 567 592 
f 579 588 592 
f 578 571 593 
f 584 578 593 
f 585 584 593 
f 571 590 593 
f 574 582 594 
f 568 584 594 
f 584 574 594 
f 592 568 594 
f 582 592 594 
f 566 590 595 
f 590 571 595 
f 570 583 596 
f 591 570 596 
f 577 591 596 
f 575 572 597 
f 581 575 597 
f 572 586 597 
f 586 581 597 
f 571 578 598 
f 580 577 598 
f 578 589 598 
f 589 580 598 
f 577 595 598 
f 595 571 598 
f 576 581 599 
f 585 576 599 
f 569 585 599 
f 586 569 599 
f 581 586 599 
f 581 566 600 
f 583 581 600 
f 566 595 600 
f 595 577 600 
f 596 583 600 
f 577 596 600 
f 576 585 601 
f 590 576 601 
f 585 593 601 
f 593 590 601 
f 570 575 602 
f 575 581 602 
f 583 570 602 
f 581 583 602 
f 589 573 603 
f 580 589 603 
f 573 591 603 
f 591 580 603 
f 582 574 604 
f 585 569 604 
f 574 585 604 
f 569 587 604 
o convex_15
v -0.003468 0.039074 -0.017570
v -0.016085 0.039074 -0.018097
v -0.015559 0.037496 -0.018097
v -0.003994 0.046958 -0.029135
v -0.008202 0.050111 -0.017570
v -0.013456 0.048010 -0.029135
v -0.007674 0.040654 -0.029135
v -0.008727 0.034867 -0.017570
v -0.005046 0.050637 -0.021251
v -0.012931 0.041705 -0.029135
v -0.013982 0.045907 -0.017570
v -0.003994 0.042756 -0.029135
v -0.007674 0.051165 -0.023877
v -0.011879 0.034867 -0.018097
v -0.003468 0.044854 -0.018623
v -0.006097 0.049059 -0.029135
v -0.009253 0.050637 -0.019674
v -0.005046 0.036973 -0.018623
v -0.015033 0.044854 -0.024929
v -0.013982 0.042756 -0.029135
v -0.005571 0.049586 -0.017570
v -0.003468 0.047485 -0.024929
v -0.014508 0.035922 -0.017570
v -0.013456 0.048010 -0.023877
v -0.011879 0.049059 -0.029135
v -0.015559 0.042756 -0.017570
v -0.003468 0.044854 -0.028083
v -0.010300 0.040654 -0.029135
f 618 614 632 
f 610 608 611 
f 605 609 612 
f 610 611 614 
f 612 609 615 
f 611 608 616 
f 611 612 618 
f 608 610 620 
f 613 608 620 
f 617 613 620 
f 609 613 621 
f 615 609 621 
f 613 617 621 
f 612 611 622 
f 605 612 622 
f 616 605 622 
f 611 616 622 
f 607 606 624 
f 610 614 624 
f 606 623 624 
f 623 610 624 
f 609 605 625 
f 613 609 625 
f 605 619 625 
f 619 613 625 
f 608 613 626 
f 619 605 626 
f 613 619 626 
f 606 607 627 
f 612 615 627 
f 618 612 627 
f 614 618 627 
f 607 624 627 
f 624 614 627 
f 615 621 628 
f 610 623 628 
f 620 610 629 
f 617 620 629 
f 621 617 629 
f 610 628 629 
f 628 621 629 
f 623 606 630 
f 606 627 630 
f 627 615 630 
f 615 628 630 
f 628 623 630 
f 605 616 631 
f 616 608 631 
f 608 626 631 
f 626 605 631 
f 614 611 632 
f 611 618 632 
o convex_16
v 0.013884 0.022250 -0.039123
v 0.015456 0.038022 -0.037021
v 0.016509 0.037495 -0.035969
v 0.008100 0.029612 -0.029662
v 0.007048 0.033815 -0.039649
v 0.023345 0.029612 -0.039649
v 0.018612 0.030659 -0.029662
v 0.010728 0.036967 -0.029662
v 0.008100 0.024880 -0.040700
v 0.017036 0.023304 -0.034920
v 0.016509 0.036444 -0.040700
v 0.018612 0.023829 -0.041226
v 0.011780 0.026457 -0.029662
v 0.007048 0.024880 -0.037546
v 0.017036 0.035391 -0.030189
v 0.010204 0.037495 -0.039649
v 0.006524 0.033815 -0.036495
v 0.009677 0.031187 -0.041226
v 0.022290 0.032762 -0.038072
v 0.021765 0.031187 -0.041226
v 0.019663 0.023829 -0.037021
v 0.005995 0.027508 -0.038072
v 0.022817 0.029084 -0.036495
v 0.014409 0.022250 -0.036495
v 0.008626 0.035391 -0.029662
v 0.017036 0.028033 -0.029662
v 0.022290 0.031712 -0.035444
v 0.018612 0.036444 -0.039649
v 0.008100 0.036444 -0.035969
v 0.013884 0.036967 -0.029662
v 0.018612 0.022776 -0.040175
v 0.008100 0.025405 -0.034395
v 0.014409 0.023304 -0.041226
v 0.011255 0.038022 -0.035969
v 0.019138 0.035917 -0.036495
v 0.010728 0.036444 -0.040700
v 0.014409 0.038022 -0.039649
v 0.018612 0.032762 -0.029662
v 0.006524 0.027508 -0.034920
v 0.008100 0.034341 -0.029662
f 649 671 672 
f 636 639 640 
f 639 636 645 
f 641 633 646 
f 641 637 650 
f 638 644 652 
f 644 650 652 
f 650 643 652 
f 651 638 652 
f 637 641 654 
f 641 646 654 
f 649 637 654 
f 653 638 655 
f 642 645 656 
f 646 633 656 
f 636 640 657 
f 639 645 658 
f 645 642 658 
f 642 653 658 
f 655 639 658 
f 653 655 658 
f 638 651 659 
f 655 638 659 
f 639 655 659 
f 634 635 660 
f 652 643 660 
f 651 652 660 
f 648 637 661 
f 637 649 661 
f 657 640 661 
f 649 657 661 
f 635 634 662 
f 640 639 662 
f 647 635 662 
f 644 638 663 
f 638 653 663 
f 653 642 663 
f 642 656 663 
f 656 633 663 
f 645 636 664 
f 656 645 664 
f 646 656 664 
f 633 641 665 
f 641 650 665 
f 650 644 665 
f 663 633 665 
f 644 663 665 
f 661 640 666 
f 648 661 666 
f 662 634 666 
f 640 662 666 
f 635 647 667 
f 647 659 667 
f 659 651 667 
f 660 635 667 
f 651 660 667 
f 637 648 668 
f 650 637 668 
f 643 650 668 
f 634 660 669 
f 660 643 669 
f 666 634 669 
f 648 666 669 
f 668 648 669 
f 643 668 669 
f 639 659 670 
f 659 647 670 
f 662 639 670 
f 647 662 670 
f 654 646 671 
f 649 654 671 
f 664 636 671 
f 646 664 671 
f 636 657 672 
f 657 649 672 
f 671 636 672 
o convex_17
v 0.017561 0.034866 -0.029134
v 0.005470 0.032240 -0.018623
v 0.005996 0.031714 -0.021252
v 0.015459 0.028560 -0.017570
v 0.012303 0.040125 -0.017570
v 0.010728 0.026981 -0.029659
v 0.009151 0.036970 -0.028608
v 0.018087 0.029611 -0.029659
v 0.017561 0.033816 -0.017570
v 0.005470 0.036970 -0.017570
v 0.010728 0.040650 -0.024403
v 0.009151 0.028560 -0.017570
v 0.008099 0.034339 -0.029659
v 0.012828 0.037494 -0.029659
v 0.013355 0.040125 -0.023878
v 0.016510 0.036970 -0.017570
v 0.014932 0.026981 -0.029134
v 0.008624 0.028560 -0.029659
v 0.005996 0.036970 -0.022303
v 0.008624 0.040125 -0.018098
v 0.017035 0.029611 -0.017570
v 0.006522 0.030138 -0.017570
v 0.018613 0.032240 -0.029659
v 0.010728 0.028033 -0.017570
v 0.005996 0.033293 -0.023354
v 0.008624 0.040125 -0.022303
v 0.017561 0.030662 -0.017570
v 0.012303 0.039599 -0.027032
v 0.016510 0.036970 -0.025980
f 673 700 701 
f 677 676 681 
f 676 677 682 
f 676 682 684 
f 680 678 685 
f 685 679 686 
f 680 685 686 
f 683 677 687 
f 677 681 688 
f 687 677 688 
f 678 680 689 
f 685 678 690 
f 679 685 691 
f 682 677 692 
f 677 683 692 
f 681 676 693 
f 676 689 693 
f 689 680 693 
f 674 675 694 
f 682 674 694 
f 678 684 694 
f 684 682 694 
f 675 690 694 
f 690 678 694 
f 686 673 695 
f 680 686 695 
f 673 688 695 
f 688 681 695 
f 684 678 696 
f 676 684 696 
f 689 676 696 
f 678 689 696 
f 675 674 697 
f 674 682 697 
f 690 675 697 
f 685 690 697 
f 682 691 697 
f 691 685 697 
f 683 679 698 
f 691 682 698 
f 679 691 698 
f 682 692 698 
f 692 683 698 
f 681 693 699 
f 693 680 699 
f 680 695 699 
f 695 681 699 
f 679 683 700 
f 673 686 700 
f 686 679 700 
f 683 687 700 
f 700 687 701 
f 688 673 701 
f 687 688 701 
o convex_18
v 0.017035 -0.052929 0.018179
v 0.006521 -0.049775 0.009243
v 0.006521 -0.043993 0.009243
v 0.015459 -0.049775 0.010294
v 0.006521 -0.043993 0.015026
v 0.010728 -0.053982 0.016602
v 0.017562 -0.049249 0.014500
v 0.016510 -0.051878 0.020283
v 0.010202 -0.043993 0.009243
v 0.006521 -0.048725 0.015550
v 0.013881 -0.053455 0.020283
v 0.011255 -0.053455 0.013450
v 0.010202 -0.043993 0.012924
v 0.015983 -0.053982 0.018179
v 0.017562 -0.051352 0.013976
v 0.015459 -0.048725 0.017129
v 0.009676 -0.052404 0.011346
v 0.015459 -0.048200 0.010294
v 0.012304 -0.047674 0.009243
v 0.009676 -0.053455 0.016076
f 718 707 721 
f 704 703 706 
f 702 708 709 
f 703 704 710 
f 704 706 710 
f 706 703 711 
f 709 706 712 
f 706 711 712 
f 710 706 714 
f 708 710 714 
f 702 709 715 
f 712 707 715 
f 709 712 715 
f 707 713 715 
f 715 713 716 
f 708 702 716 
f 713 705 716 
f 702 715 716 
f 706 709 717 
f 709 708 717 
f 714 706 717 
f 708 714 717 
f 703 705 718 
f 705 713 718 
f 713 707 718 
f 710 708 719 
f 716 705 719 
f 708 716 719 
f 705 703 720 
f 703 710 720 
f 719 705 720 
f 710 719 720 
f 711 703 721 
f 707 712 721 
f 712 711 721 
f 703 718 721 
