o convex_0
v -0.002022 0.015113 0.034978
v 0.001662 0.030929 0.030764
v 0.001662 0.030929 0.029182
v -0.008879 0.024600 0.035506
v 0.004827 0.024075 0.039723
v 0.003246 0.018278 0.026545
v -0.006767 0.021442 0.026545
v -0.003076 0.027237 0.040250
v 0.007465 0.021967 0.033925
v 0.003246 0.015113 0.037087
v -0.006240 0.019332 0.039195
v -0.005714 0.029347 0.029182
v 0.005353 0.025656 0.026545
v 0.004300 0.028819 0.037087
v -0.007296 0.017750 0.032346
v -0.002551 0.016695 0.027074
v -0.003076 0.030401 0.036561
v -0.000445 0.019858 0.040777
v -0.002551 0.028293 0.026545
v -0.006767 0.027765 0.037614
v 0.005883 0.027765 0.035506
v -0.004660 0.016169 0.037614
v 0.003772 0.015113 0.034978
v -0.007823 0.027237 0.029710
v -0.008351 0.018805 0.036033
v 0.004827 0.018805 0.038669
v -0.008879 0.023547 0.031818
v 0.005353 0.020386 0.027601
v -0.000969 0.029873 0.038669
v 0.002192 0.026710 0.040250
v -0.006240 0.023547 0.039723
v -0.005186 0.015641 0.034451
v 0.005353 0.016695 0.034978
v -0.005714 0.026710 0.026545
v 0.006409 0.021967 0.038142
v -0.005714 0.018805 0.026545
v -0.006240 0.029347 0.035506
v -0.004132 0.030401 0.029710
v 0.000610 0.030929 0.035506
v 0.001662 0.016695 0.039195
v -0.004132 0.022495 0.040777
v 0.002192 0.021442 0.040777
v 0.001662 0.028819 0.026545
v 0.005883 0.027765 0.033399
v -0.008879 0.022495 0.036561
v 0.001138 0.017223 0.026545
v 0.006937 0.024600 0.036561
v 0.004300 0.027765 0.038669
v -0.008351 0.026184 0.036561
f 45 31 49 
f 6 7 13 
f 13 7 19 
f 3 2 21 
f 2 14 21 
f 1 10 22 
f 18 11 22 
f 10 1 23 
f 1 16 23 
f 22 11 25 
f 7 15 27 
f 4 24 27 
f 24 7 27 
f 15 25 27 
f 6 13 28 
f 13 9 28 
f 20 8 29 
f 17 20 29 
f 29 8 30 
f 8 20 31 
f 16 1 32 
f 1 22 32 
f 25 15 32 
f 22 25 32 
f 23 6 33 
f 10 23 33 
f 26 10 33 
f 6 28 33 
f 28 9 33 
f 12 19 34 
f 19 7 34 
f 7 24 34 
f 24 12 34 
f 5 26 35 
f 33 9 35 
f 26 33 35 
f 7 6 36 
f 15 7 36 
f 16 32 36 
f 32 15 36 
f 20 17 37 
f 12 24 37 
f 3 19 38 
f 19 12 38 
f 12 37 38 
f 37 17 38 
f 2 3 39 
f 14 2 39 
f 29 14 39 
f 17 29 39 
f 3 38 39 
f 38 17 39 
f 22 10 40 
f 18 22 40 
f 10 26 40 
f 11 18 41 
f 30 8 41 
f 8 31 41 
f 31 11 41 
f 26 5 42 
f 5 30 42 
f 18 40 42 
f 40 26 42 
f 41 18 42 
f 30 41 42 
f 3 13 43 
f 19 3 43 
f 13 19 43 
f 13 3 44 
f 9 13 44 
f 3 21 44 
f 25 11 45 
f 4 27 45 
f 27 25 45 
f 11 31 45 
f 6 23 46 
f 23 16 46 
f 36 6 46 
f 16 36 46 
f 5 35 47 
f 35 9 47 
f 9 44 47 
f 44 21 47 
f 21 14 48 
f 14 29 48 
f 30 5 48 
f 29 30 48 
f 5 47 48 
f 47 21 48 
f 24 4 49 
f 31 20 49 
f 20 37 49 
f 37 24 49 
f 4 45 49 
o convex_1
v 0.014318 -0.022322 -0.016686
v 0.021172 -0.015466 0.015474
v 0.021172 -0.011777 0.014945
v 0.014318 -0.007563 0.014945
v 0.014318 -0.040766 0.010727
v 0.021172 -0.038656 -0.008249
v 0.021172 -0.012831 -0.012467
v 0.021172 -0.031803 0.015474
v 0.014318 -0.034438 -0.016157
v 0.014318 -0.007563 -0.002451
v 0.021172 -0.007557 0.003873
v 0.014318 -0.034438 0.015474
v 0.014318 -0.041294 -0.007720
v 0.021172 -0.038130 0.010727
v 0.016428 -0.028643 -0.016686
v 0.021172 -0.028114 -0.011939
v 0.019063 -0.007563 0.014945
v 0.019063 -0.007563 -0.002976
v 0.014318 -0.020740 -0.016157
v 0.018008 -0.039712 0.010201
v 0.015900 -0.031278 -0.016686
v 0.014846 -0.041294 -0.003505
v 0.019590 -0.013359 -0.012467
v 0.014846 -0.013887 -0.009829
f 59 72 73 
f 53 50 54 
f 52 51 55 
f 52 55 56 
f 55 51 57 
f 54 50 58 
f 50 53 59 
f 52 56 60 
f 59 53 60 
f 51 53 61 
f 53 54 61 
f 57 51 61 
f 54 57 61 
f 54 58 62 
f 58 55 62 
f 57 54 63 
f 55 57 63 
f 50 56 64 
f 56 55 65 
f 64 56 65 
f 51 52 66 
f 53 51 66 
f 52 60 66 
f 60 53 66 
f 56 59 67 
f 60 56 67 
f 59 60 67 
f 56 50 68 
f 50 59 68 
f 63 54 69 
f 55 63 69 
f 58 50 70 
f 55 58 70 
f 50 64 70 
f 65 55 70 
f 64 65 70 
f 54 62 71 
f 62 55 71 
f 69 54 71 
f 55 69 71 
f 59 56 72 
f 56 68 72 
f 72 68 73 
f 68 59 73 
o convex_2
v 0.031718 -0.005975 -0.012994
v 0.031718 -0.035498 -0.014574
v 0.031190 -0.034969 -0.015102
v 0.029610 -0.027063 0.007038
v 0.045423 -0.029169 -0.008780
v 0.029610 -0.019159 -0.025648
v 0.042259 -0.021791 -0.023012
v 0.038568 -0.014411 0.001762
v 0.029610 -0.012304 0.005983
v 0.036461 -0.009139 -0.020372
v 0.038040 -0.029695 -0.023008
v 0.029610 -0.033915 0.001234
v 0.042785 -0.021791 0.000710
v 0.041733 -0.033915 -0.011938
v 0.041733 -0.029169 -0.000871
v 0.035934 -0.007559 -0.005088
v 0.029610 -0.030753 -0.021953
v 0.029610 -0.007559 -0.017211
v 0.034353 -0.023895 0.007038
v 0.044895 -0.029169 -0.017211
v 0.039624 -0.017575 -0.025117
v 0.043313 -0.022846 -0.020900
v 0.039624 -0.034443 -0.007724
v 0.031718 -0.024953 -0.025648
v 0.030136 -0.012830 -0.023536
v 0.038568 -0.033389 -0.018264
v 0.029610 -0.007559 -0.005088
v 0.039624 -0.024950 -0.024592
v 0.032772 -0.026531 0.007038
v 0.030664 -0.014411 0.007038
v 0.038568 -0.012830 -0.022484
v 0.036988 -0.035498 -0.012994
v 0.034879 -0.006504 -0.016155
v 0.044367 -0.030224 -0.005616
v 0.029610 -0.034969 -0.005088
v 0.042259 -0.028643 -0.021428
v 0.045423 -0.027589 -0.011413
v 0.036988 -0.013356 -0.024064
v 0.033299 -0.033915 -0.018788
v 0.040151 -0.018104 0.002290
v 0.034879 -0.035498 -0.007727
v 0.034879 -0.006504 -0.006675
v 0.040678 -0.032334 -0.004035
v 0.045423 -0.030750 -0.011413
v 0.031718 -0.009665 -0.021428
v 0.036461 -0.009665 -0.001399
v 0.041733 -0.023901 0.001762
v 0.042259 -0.032334 -0.016683
v 0.032772 -0.017049 -0.025648
v 0.043841 -0.026005 -0.001402
v 0.032244 -0.029695 -0.023536
v 0.030136 -0.033915 0.001234
v 0.036988 -0.021260 -0.025648
v 0.037516 -0.010720 -0.001927
v 0.043841 -0.027060 -0.020900
v 0.035407 -0.006504 -0.013522
v 0.029610 -0.006504 -0.009826
v 0.036461 -0.027589 -0.024592
v 0.040151 -0.015994 -0.019847
v 0.029610 -0.024953 -0.025120
v 0.036461 -0.035498 -0.014574
f 99 121 134 
f 79 77 82 
f 77 79 85 
f 75 76 90 
f 85 79 90 
f 79 82 91 
f 79 91 98 
f 91 82 100 
f 94 80 101 
f 92 77 102 
f 82 77 103 
f 81 82 103 
f 77 92 103 
f 80 94 104 
f 95 80 104 
f 87 96 105 
f 91 74 106 
f 96 87 107 
f 76 75 108 
f 90 76 108 
f 85 90 108 
f 99 84 109 
f 84 101 109 
f 86 78 110 
f 95 86 110 
f 93 95 110 
f 83 104 111 
f 104 94 111 
f 75 90 112 
f 84 99 112 
f 86 81 113 
f 81 103 113 
f 103 92 113 
f 75 105 114 
f 105 96 114 
f 108 75 114 
f 85 108 114 
f 82 89 115 
f 100 82 115 
f 107 88 116 
f 96 107 116 
f 78 107 117 
f 107 87 117 
f 110 78 117 
f 93 110 117 
f 98 91 118 
f 106 83 118 
f 91 106 118 
f 111 98 118 
f 83 111 118 
f 82 81 119 
f 89 82 119 
f 102 88 120 
f 92 102 120 
f 86 113 120 
f 113 92 120 
f 109 93 121 
f 99 109 121 
f 117 87 121 
f 93 117 121 
f 97 79 122 
f 79 98 122 
f 111 94 122 
f 98 111 122 
f 78 86 123 
f 107 78 123 
f 88 107 123 
f 120 88 123 
f 86 120 123 
f 112 90 124 
f 84 112 124 
f 77 85 125 
f 102 77 125 
f 88 102 125 
f 85 114 125 
f 114 96 125 
f 116 88 125 
f 96 116 125 
f 94 101 126 
f 97 122 126 
f 122 94 126 
f 81 86 127 
f 119 81 127 
f 89 119 127 
f 95 93 128 
f 80 95 128 
f 101 80 128 
f 93 109 128 
f 109 101 128 
f 104 83 129 
f 106 74 129 
f 83 106 129 
f 115 89 129 
f 74 115 129 
f 89 127 129 
f 74 91 130 
f 91 100 130 
f 100 115 130 
f 115 74 130 
f 101 84 131 
f 84 124 131 
f 124 97 131 
f 126 101 131 
f 97 126 131 
f 86 95 132 
f 95 104 132 
f 127 86 132 
f 104 129 132 
f 129 127 132 
f 90 79 133 
f 79 97 133 
f 97 124 133 
f 124 90 133 
f 105 75 134 
f 87 105 134 
f 75 112 134 
f 112 99 134 
f 121 87 134 
o convex_3
v 0.007990 0.054127 -0.021430
v -0.013096 0.062029 -0.017213
v -0.013096 0.062029 -0.016686
v -0.003605 0.044109 -0.016686
v -0.006241 0.053603 -0.025648
v -0.000443 0.071524 -0.016686
v -0.001501 0.065196 -0.024593
v 0.008519 0.048856 -0.016686
v -0.011513 0.066774 -0.020376
v 0.002191 0.052549 -0.025119
v 0.004300 0.061506 -0.024593
v -0.009931 0.056767 -0.024593
v 0.001137 0.045164 -0.019850
v -0.005714 0.060452 -0.026175
v -0.005714 0.047802 -0.022485
v -0.006241 0.071524 -0.017213
v 0.008519 0.053603 -0.016686
v 0.002191 0.067305 -0.021956
v -0.003605 0.068883 -0.021956
v -0.008877 0.064139 -0.024065
v 0.006410 0.050963 -0.021956
v -0.000443 0.048856 -0.024065
v 0.000083 0.059397 -0.026175
v -0.010987 0.068360 -0.016686
v -0.008877 0.053072 -0.023538
v -0.005187 0.045692 -0.016686
v -0.012040 0.063084 -0.021956
v 0.005883 0.055181 -0.024065
v 0.004827 0.045692 -0.017213
v -0.001501 0.054658 -0.026175
v 0.000610 0.070469 -0.016686
v 0.007990 0.055181 -0.020376
v -0.003605 0.044638 -0.019323
v -0.006241 0.068360 -0.021956
v 0.004300 0.048856 -0.021956
v -0.010460 0.056236 -0.023538
v 0.000083 0.069414 -0.020905
v -0.009404 0.058866 -0.025119
f 161 154 172 
f 137 138 140 
f 140 138 142 
f 142 135 151 
f 140 142 151 
f 145 141 152 
f 141 148 154 
f 135 142 155 
f 149 139 156 
f 141 145 157 
f 148 141 157 
f 136 137 158 
f 137 140 158 
f 143 136 158 
f 140 150 158 
f 150 143 158 
f 146 139 159 
f 139 149 159 
f 159 149 160 
f 138 137 160 
f 136 143 161 
f 143 154 161 
f 145 135 162 
f 135 155 162 
f 155 144 162 
f 144 157 162 
f 157 145 162 
f 142 138 163 
f 138 147 163 
f 139 148 164 
f 156 139 164 
f 144 156 164 
f 157 144 164 
f 148 157 164 
f 140 151 165 
f 152 140 165 
f 152 165 166 
f 135 145 166 
f 151 135 166 
f 145 152 166 
f 165 151 166 
f 147 138 167 
f 156 147 167 
f 149 156 167 
f 160 149 167 
f 138 160 167 
f 143 150 168 
f 153 141 168 
f 150 153 168 
f 154 143 168 
f 141 154 168 
f 155 142 169 
f 144 155 169 
f 147 156 169 
f 156 144 169 
f 142 163 169 
f 163 147 169 
f 137 136 170 
f 146 159 170 
f 159 160 170 
f 160 137 170 
f 136 161 170 
f 161 146 170 
f 150 140 171 
f 152 141 171 
f 140 152 171 
f 141 153 171 
f 153 150 171 
f 139 146 172 
f 148 139 172 
f 154 148 172 
f 146 161 172 
o convex_4
v -0.000443 0.072048 -0.015103
v -0.022059 0.039364 -0.014576
v -0.022059 0.039364 -0.010885
v 0.009044 0.047804 -0.010357
v -0.012568 0.061501 0.003348
v 0.003245 0.044114 0.003348
v 0.003245 0.064665 0.000710
v -0.021003 0.039364 0.003348
v -0.008351 0.039364 -0.016686
v -0.010986 0.068358 -0.016686
v 0.008518 0.053601 -0.016686
v -0.002025 0.039364 0.003348
v -0.005719 0.071518 -0.006143
v 0.009574 0.052018 -0.005616
v -0.019420 0.049388 -0.015629
v 0.005880 0.046221 -0.016686
v -0.010986 0.068885 -0.007194
v 0.001139 0.069938 -0.016686
v 0.000610 0.069411 -0.001925
v 0.003771 0.060451 0.002293
v -0.019420 0.046751 -0.016686
v -0.021003 0.040948 0.002820
v 0.006935 0.056231 0.000710
v -0.002555 0.039364 -0.004561
v -0.008877 0.071518 -0.012995
v -0.002555 0.060978 0.003348
v 0.000610 0.070995 -0.006143
v -0.008351 0.068358 -0.001925
v -0.001499 0.065195 0.001765
v 0.009044 0.048858 -0.016686
v 0.007462 0.046221 -0.011940
v -0.006243 0.071518 -0.016686
v -0.015730 0.039364 -0.016686
v -0.003608 0.072578 -0.010357
v -0.017312 0.050441 0.003348
v 0.009574 0.050441 -0.005616
v 0.002192 0.043584 -0.014576
v -0.013092 0.064665 -0.014576
v -0.005190 0.068358 -0.000870
v 0.002192 0.067828 -0.002980
v -0.008877 0.070468 -0.006143
v 0.000610 0.059398 0.003348
v 0.007991 0.052544 -0.001398
v -0.012042 0.066778 -0.008777
v -0.000443 0.071518 -0.005616
v -0.013092 0.060978 0.003348
v -0.010460 0.069938 -0.015103
v 0.001139 0.064665 0.001765
v -0.019420 0.049388 -0.015103
v -0.000973 0.072048 -0.016686
v -0.005190 0.072578 -0.011940
v -0.000973 0.072578 -0.010357
v -0.022059 0.039894 -0.010885
v 0.009574 0.050964 -0.011940
f 186 208 226 
f 175 174 180 
f 178 177 180 
f 180 174 181 
f 181 182 183 
f 176 178 184 
f 178 180 184 
f 180 181 184 
f 181 183 188 
f 183 182 190 
f 186 183 190 
f 182 181 193 
f 174 187 193 
f 187 182 193 
f 186 179 195 
f 192 178 195 
f 179 192 195 
f 184 181 196 
f 177 178 198 
f 190 173 199 
f 177 198 201 
f 188 183 202 
f 188 202 203 
f 176 184 203 
f 184 196 203 
f 202 176 203 
f 190 182 204 
f 181 174 205 
f 174 193 205 
f 193 181 205 
f 180 177 207 
f 194 180 207 
f 178 176 208 
f 181 188 209 
f 196 181 209 
f 188 203 209 
f 203 196 209 
f 182 187 210 
f 191 185 211 
f 200 177 211 
f 185 200 211 
f 201 191 211 
f 177 201 211 
f 179 186 212 
f 186 190 212 
f 191 179 212 
f 190 199 212 
f 199 191 212 
f 185 197 213 
f 197 189 213 
f 177 200 213 
f 200 185 213 
f 178 192 214 
f 198 178 214 
f 195 178 215 
f 186 195 215 
f 178 208 215 
f 208 186 215 
f 185 191 217 
f 191 199 217 
f 206 185 217 
f 207 177 218 
f 177 213 218 
f 213 189 218 
f 189 216 218 
f 216 207 218 
f 189 197 219 
f 204 182 219 
f 197 204 219 
f 182 210 219 
f 216 189 219 
f 210 216 219 
f 179 191 220 
f 192 179 220 
f 191 201 220 
f 201 198 220 
f 214 192 220 
f 198 214 220 
f 194 207 221 
f 210 187 221 
f 207 216 221 
f 216 210 221 
f 173 190 222 
f 190 204 222 
f 197 185 223 
f 204 197 223 
f 185 206 223 
f 222 204 223 
f 199 173 224 
f 217 199 224 
f 206 217 224 
f 173 222 224 
f 223 206 224 
f 222 223 224 
f 174 175 225 
f 175 180 225 
f 187 174 225 
f 180 194 225 
f 221 187 225 
f 194 221 225 
f 183 186 226 
f 176 202 226 
f 202 183 226 
f 208 176 226 
o convex_5
v -0.007298 0.070469 0.005983
v -0.021004 0.039364 0.003348
v -0.021004 0.039364 0.007566
v 0.003247 0.044114 0.003348
v -0.002552 0.039364 0.007566
v -0.013094 0.062032 0.003348
v -0.012040 0.066776 0.007566
v 0.002718 0.046751 0.006511
v -0.002025 0.059922 0.003348
v -0.002025 0.039364 0.003348
v -0.009403 0.069939 0.004402
v 0.000083 0.045165 0.007566
v -0.007827 0.068883 0.007038
v -0.020475 0.042001 0.003348
v -0.012040 0.066776 0.004930
v 0.003247 0.044114 0.005983
v 0.003247 0.046751 0.005457
v -0.006244 0.068359 0.006511
v -0.021004 0.040421 0.005983
v -0.007827 0.069939 0.004402
f 232 237 246 
f 229 228 231 
f 230 228 232 
f 229 231 233 
f 230 232 235 
f 228 230 236 
f 231 228 236 
f 233 227 237 
f 233 231 238 
f 238 234 239 
f 227 233 239 
f 233 238 239 
f 232 228 240 
f 240 233 241 
f 233 237 241 
f 237 232 241 
f 232 240 241 
f 236 230 242 
f 231 236 242 
f 238 231 242 
f 234 238 242 
f 230 235 243 
f 242 230 243 
f 234 242 243 
f 235 227 244 
f 239 234 244 
f 227 239 244 
f 234 243 244 
f 243 235 244 
f 228 229 245 
f 229 233 245 
f 240 228 245 
f 233 240 245 
f 227 235 246 
f 235 232 246 
f 237 227 246 
o convex_6
v 0.009572 -0.037605 -0.016157
v 0.014318 -0.030227 0.015474
v 0.014318 -0.034445 0.015474
v -0.004134 -0.042878 0.014945
v -0.004134 -0.027590 -0.016157
v -0.004134 -0.027590 0.014945
v 0.014318 -0.027592 -0.016157
v 0.014318 -0.041822 -0.007720
v -0.004134 -0.043934 -0.008775
v 0.008517 -0.043934 0.010201
v 0.014318 -0.027592 0.014945
v 0.013791 -0.041822 0.010727
v 0.008517 -0.043934 -0.008249
v 0.000086 -0.034973 -0.016686
v 0.014318 -0.033919 -0.016686
v -0.004134 -0.043934 0.011781
v -0.004134 -0.041296 -0.011413
v -0.003604 -0.028646 -0.016686
v 0.003250 -0.037077 -0.016686
v 0.010626 -0.036551 0.015474
v 0.014318 -0.041296 0.010727
v -0.001497 -0.042350 0.014945
v 0.014318 -0.029700 -0.016686
v 0.012207 -0.036551 -0.016157
v 0.013264 -0.042350 -0.001922
f 256 259 271 
f 251 250 252 
f 248 249 253 
f 251 252 253 
f 253 249 254 
f 250 251 255 
f 252 248 257 
f 248 253 257 
f 253 252 257 
f 255 247 259 
f 256 255 259 
f 253 254 261 
f 250 255 262 
f 255 256 262 
f 256 250 262 
f 255 251 263 
f 260 263 264 
f 251 253 264 
f 261 260 264 
f 263 251 264 
f 247 255 265 
f 261 247 265 
f 260 261 265 
f 255 263 265 
f 263 260 265 
f 249 248 266 
f 248 252 266 
f 252 250 266 
f 258 249 266 
f 254 249 267 
f 249 258 267 
f 258 254 267 
f 250 256 268 
f 256 258 268 
f 266 250 268 
f 258 266 268 
f 253 261 269 
f 264 253 269 
f 261 264 269 
f 259 247 270 
f 254 259 270 
f 247 261 270 
f 261 254 270 
f 254 258 271 
f 258 256 271 
f 259 254 271 
o convex_7
v -0.017312 -0.022320 0.014946
v -0.008352 -0.018628 -0.016686
v -0.025745 -0.022845 -0.002978
v 0.014318 -0.027590 -0.016153
v 0.014318 -0.018101 0.014946
v 0.014318 -0.027590 0.014946
v -0.024163 -0.027590 0.006509
v -0.019421 -0.018101 0.014417
v 0.013264 -0.018101 -0.016153
v -0.004137 -0.027590 -0.016686
v -0.020476 -0.018101 -0.002449
v -0.014671 -0.027590 0.014946
v -0.026272 -0.020738 0.005983
v 0.014318 -0.021264 -0.016686
v -0.014148 -0.027590 -0.009304
v -0.025217 -0.020211 -0.002449
v -0.008352 -0.018101 -0.016686
v -0.026272 -0.023371 0.006509
v 0.014318 -0.018101 -0.012465
v -0.024163 -0.027590 0.004927
v -0.018890 -0.018101 0.014946
v -0.026803 -0.022320 -0.000870
v 0.014318 -0.026534 -0.016686
v 0.012732 -0.018101 -0.016686
v -0.026272 -0.021264 -0.002449
v -0.025745 -0.023371 -0.002449
v -0.025217 -0.024953 0.007038
f 292 289 298 
f 276 272 277 
f 275 276 277 
f 275 277 278 
f 279 276 280 
f 274 273 281 
f 275 278 281 
f 279 280 282 
f 277 272 283 
f 278 277 283 
f 279 282 284 
f 276 275 285 
f 281 273 285 
f 274 281 286 
f 281 278 286 
f 284 282 287 
f 273 274 288 
f 282 280 288 
f 285 273 288 
f 287 282 288 
f 279 284 289 
f 280 276 290 
f 276 285 290 
f 285 280 290 
f 286 278 291 
f 272 276 292 
f 276 279 292 
f 279 289 292 
f 278 289 293 
f 289 284 293 
f 291 278 293 
f 275 281 294 
f 285 275 294 
f 281 285 294 
f 280 285 295 
f 288 280 295 
f 285 288 295 
f 284 287 296 
f 288 274 296 
f 287 288 296 
f 274 293 296 
f 293 284 296 
f 274 286 297 
f 286 291 297 
f 293 274 297 
f 291 293 297 
f 283 272 298 
f 278 283 298 
f 289 278 298 
f 272 292 298 
o convex_8
v -0.013620 -0.011774 0.018110
v -0.009402 -0.016518 -0.016686
v -0.009402 -0.014411 -0.016686
v 0.014318 -0.018101 0.014945
v 0.010625 -0.011774 -0.016154
v -0.019947 -0.018101 0.013890
v 0.013263 -0.018101 -0.016154
v 0.014318 -0.011774 0.014945
v -0.023113 -0.011774 -0.001921
v -0.019420 -0.018101 -0.004033
v -0.021526 -0.011774 0.017054
v -0.018892 -0.017046 0.017582
v -0.005185 -0.011774 -0.016686
v 0.014318 -0.013884 -0.009302
v -0.008347 -0.018101 -0.016686
v -0.022054 -0.011774 -0.004557
v -0.023113 -0.012302 0.009145
v 0.014318 -0.011774 -0.001393
v 0.014318 -0.018101 -0.011938
v 0.012208 -0.018101 -0.016686
v -0.014675 -0.014937 0.018110
v -0.019947 -0.018101 -0.002449
v -0.018892 -0.018101 0.015473
v 0.010101 -0.011774 -0.016686
v -0.021526 -0.013884 -0.004557
v -0.021003 -0.013356 0.017582
v -0.012564 -0.013356 0.018110
v -0.009402 -0.013356 -0.016158
f 314 311 326 
f 302 304 305 
f 303 299 306 
f 299 303 307 
f 305 304 308 
f 299 307 309 
f 300 301 311 
f 307 303 311 
f 305 303 312 
f 306 302 312 
f 305 308 313 
f 308 300 313 
f 300 311 313 
f 301 300 314 
f 307 311 314 
f 309 307 315 
f 303 306 316 
f 312 303 316 
f 306 312 316 
f 302 305 317 
f 312 302 317 
f 305 312 317 
f 305 313 318 
f 313 311 318 
f 310 302 319 
f 308 304 320 
f 304 315 320 
f 315 307 320 
f 304 302 321 
f 302 310 321 
f 310 304 321 
f 303 305 322 
f 311 303 322 
f 305 318 322 
f 318 311 322 
f 300 308 323 
f 314 300 323 
f 307 314 323 
f 308 320 323 
f 320 307 323 
f 299 309 324 
f 304 310 324 
f 315 304 324 
f 309 315 324 
f 319 299 324 
f 310 319 324 
f 306 299 325 
f 302 306 325 
f 299 319 325 
f 319 302 325 
f 311 301 326 
f 301 314 326 
o convex_9
v 0.029607 -0.022842 -0.025121
v 0.029607 -0.007034 -0.012471
v 0.029607 -0.007034 -0.012997
v 0.021699 -0.011778 -0.012471
v 0.029607 -0.029695 -0.012997
v 0.023809 -0.018103 -0.021957
v 0.028551 -0.011251 -0.021957
v 0.029079 -0.030753 -0.019848
v 0.025916 -0.025478 -0.012471
v 0.024864 -0.010724 -0.018795
v 0.026443 -0.024951 -0.023011
v 0.021699 -0.015468 -0.012997
v 0.029607 -0.014413 -0.024065
v 0.022755 -0.013359 -0.019320
v 0.027498 -0.007561 -0.015633
v 0.026443 -0.020207 -0.024592
v 0.026971 -0.014413 -0.023538
v 0.029607 -0.028113 -0.023538
v 0.029607 -0.007561 -0.017215
v 0.024864 -0.008615 -0.014578
v 0.028025 -0.027059 -0.024065
v 0.029607 -0.026532 -0.012471
v 0.021699 -0.011778 -0.014578
v 0.025391 -0.022315 -0.023538
v 0.022227 -0.014941 -0.018269
f 332 350 351 
f 329 328 327 
f 327 328 331 
f 328 330 335 
f 334 331 335 
f 334 335 337 
f 337 335 338 
f 335 330 338 
f 329 327 339 
f 328 329 341 
f 339 327 342 
f 336 333 343 
f 333 339 343 
f 340 336 343 
f 332 340 343 
f 342 332 343 
f 339 342 343 
f 327 331 344 
f 331 334 344 
f 333 336 345 
f 329 339 345 
f 339 333 345 
f 341 329 345 
f 336 341 345 
f 330 328 346 
f 328 341 346 
f 341 336 346 
f 334 337 347 
f 342 327 347 
f 327 344 347 
f 344 334 347 
f 331 328 348 
f 328 335 348 
f 335 331 348 
f 338 330 349 
f 336 340 349 
f 330 346 349 
f 346 336 349 
f 337 338 350 
f 332 342 350 
f 347 337 350 
f 342 347 350 
f 340 332 351 
f 338 349 351 
f 349 340 351 
f 350 338 351 
o convex_10
v -0.006241 0.026711 0.023908
v 0.010626 0.027239 0.009680
v 0.010626 0.026711 0.009680
v -0.007295 0.039364 -0.006142
v -0.002550 0.039364 0.018108
v -0.007295 0.026711 -0.002974
v 0.006935 0.035674 -0.002446
v 0.010098 0.027239 0.022325
v 0.010626 0.026711 -0.002446
v -0.007295 0.039364 0.019688
v 0.010098 0.032513 0.008624
v 0.001666 0.028296 0.026545
v 0.003772 0.037255 0.016527
v -0.002024 0.039364 -0.004027
v 0.002718 0.026711 -0.004555
v -0.007295 0.026711 0.021272
v -0.003078 0.026711 0.026545
v -0.007295 0.028821 -0.005083
v 0.003772 0.029875 0.024961
v 0.004827 0.037255 0.010726
v 0.009044 0.026711 0.023381
v 0.010626 0.030930 0.003351
v 0.004827 0.037255 -0.001918
v -0.001496 0.036726 -0.005083
v 0.007990 0.029348 0.022853
v 0.009572 0.033563 0.003879
v 0.003246 0.026711 0.026545
v 0.005881 0.036726 0.009152
v -0.005713 0.039364 0.019688
v -0.001496 0.028296 0.026545
v -0.002024 0.039364 0.017055
f 371 365 382 
f 354 352 357 
f 354 353 359 
f 353 354 360 
f 354 357 360 
f 356 355 361 
f 355 357 361 
f 359 362 364 
f 355 356 365 
f 358 355 365 
f 360 357 366 
f 357 352 367 
f 352 361 367 
f 361 357 367 
f 352 354 368 
f 361 352 368 
f 357 355 369 
f 355 366 369 
f 366 357 369 
f 364 356 370 
f 354 359 372 
f 368 354 372 
f 359 353 373 
f 353 360 373 
f 360 358 373 
f 362 359 373 
f 358 365 374 
f 365 371 374 
f 355 358 375 
f 358 360 375 
f 366 355 375 
f 360 366 375 
f 359 364 376 
f 364 370 376 
f 372 359 376 
f 370 372 376 
f 373 358 377 
f 362 373 377 
f 363 368 378 
f 370 363 378 
f 368 372 378 
f 372 370 378 
f 364 362 379 
f 371 364 379 
f 358 374 379 
f 374 371 379 
f 377 358 379 
f 362 377 379 
f 356 361 380 
f 361 363 380 
f 370 356 380 
f 363 370 380 
f 363 361 381 
f 361 368 381 
f 368 363 381 
f 356 364 382 
f 365 356 382 
f 364 371 382 
o convex_11
v -0.017314 0.049907 0.022854
v -0.021004 0.039367 0.007566
v -0.021004 0.039893 0.007566
v -0.016259 0.039367 0.007566
v -0.016259 0.051488 0.007566
v -0.016259 0.039367 0.017581
v -0.019422 0.049907 0.022854
v -0.021004 0.039367 0.017053
v -0.016259 0.052542 0.018637
v -0.019422 0.050962 0.019163
v -0.016787 0.046744 0.023382
v -0.017314 0.050434 0.007566
v -0.018369 0.046744 0.023382
v -0.016787 0.052542 0.011256
v -0.016259 0.048325 0.022326
v -0.021004 0.040947 0.017053
f 392 385 398 
f 384 385 386 
f 386 385 387 
f 384 386 388 
f 386 387 388 
f 385 384 390 
f 384 388 390 
f 388 387 391 
f 389 383 391 
f 389 391 392 
f 383 389 393 
f 387 385 394 
f 385 392 394 
f 390 388 395 
f 389 390 395 
f 393 389 395 
f 388 393 395 
f 391 387 396 
f 392 391 396 
f 387 394 396 
f 394 392 396 
f 391 383 397 
f 388 391 397 
f 383 393 397 
f 393 388 397 
f 390 389 398 
f 385 390 398 
f 389 392 398 
o convex_12
v -0.012039 0.061502 0.020218
v -0.016259 0.039364 0.007567
v -0.002553 0.039364 0.007567
v -0.011514 0.067304 0.007567
v -0.004134 0.041474 0.020746
v -0.016259 0.039364 0.017582
v -0.000443 0.045166 0.015472
v -0.015731 0.057288 0.020218
v -0.010460 0.067304 0.016000
v -0.000443 0.045696 0.007567
v -0.016259 0.053072 0.007567
v -0.007826 0.040420 0.021273
v -0.002553 0.039364 0.018109
v -0.013095 0.066774 0.014419
v -0.009932 0.066774 0.007567
v -0.014149 0.062031 0.020746
v -0.005188 0.046220 0.020746
v -0.000443 0.042530 0.007567
v -0.007299 0.060978 0.015472
v -0.009932 0.043583 0.021273
v -0.016259 0.054125 0.019164
v -0.012569 0.067304 0.010202
v -0.000971 0.045166 0.016527
v -0.009932 0.065724 0.016527
v -0.000443 0.042530 0.015472
v -0.006243 0.043583 0.021273
v -0.014149 0.053599 0.020746
v -0.012039 0.067833 0.014945
v -0.005716 0.039364 0.019691
f 411 403 427 
f 401 400 402 
f 400 401 404 
f 401 402 408 
f 402 400 409 
f 400 404 409 
f 404 401 411 
f 409 406 412 
f 408 402 413 
f 399 407 414 
f 412 406 414 
f 399 414 415 
f 401 408 416 
f 408 405 416 
f 411 401 416 
f 405 408 417 
f 413 407 417 
f 408 413 417 
f 404 410 418 
f 404 406 419 
f 409 404 419 
f 406 409 419 
f 402 409 420 
f 409 412 420 
f 415 403 421 
f 405 417 421 
f 421 417 422 
f 407 399 422 
f 399 415 422 
f 417 407 422 
f 415 421 422 
f 403 411 423 
f 416 405 423 
f 411 416 423 
f 405 421 423 
f 421 403 423 
f 410 403 424 
f 403 415 424 
f 415 414 424 
f 418 410 424 
f 414 418 424 
f 406 404 425 
f 414 406 425 
f 404 418 425 
f 418 414 425 
f 413 402 426 
f 407 413 426 
f 414 407 426 
f 412 414 426 
f 402 420 426 
f 420 412 426 
f 403 410 427 
f 410 404 427 
f 404 411 427 
o convex_13
v -0.005193 -0.050258 -0.018269
v -0.027858 -0.037083 -0.017215
v -0.027858 -0.037083 -0.016158
v -0.013626 -0.029702 -0.016158
v -0.013626 -0.039192 -0.025648
v -0.018366 -0.057111 -0.016158
v -0.020474 -0.051310 -0.023538
v -0.023638 -0.035503 -0.021958
v -0.010462 -0.051838 -0.022484
v -0.005193 -0.051838 -0.016158
v -0.008354 -0.042882 -0.024066
v -0.024692 -0.043408 -0.023538
v -0.012044 -0.033920 -0.022484
v -0.014152 -0.047094 -0.025648
v -0.021002 -0.030230 -0.016686
v -0.010990 -0.056056 -0.017740
v -0.021530 -0.040247 -0.025120
v -0.014152 -0.054473 -0.021429
v -0.005193 -0.048675 -0.016158
v -0.021002 -0.034974 -0.023011
v -0.019420 -0.031285 -0.019849
v -0.027327 -0.034448 -0.017740
v -0.020474 -0.053419 -0.020903
v -0.021002 -0.047094 -0.025120
v -0.006246 -0.046566 -0.021429
v -0.026274 -0.037609 -0.021429
v -0.008882 -0.049729 -0.023011
v -0.008882 -0.040247 -0.023011
v -0.008882 -0.054473 -0.018796
v -0.015208 -0.050258 -0.024592
v -0.009936 -0.056056 -0.016158
v -0.017838 -0.055002 -0.020903
v -0.023638 -0.031285 -0.016158
v -0.023638 -0.046566 -0.023538
v -0.024692 -0.044457 -0.016158
v -0.010990 -0.046566 -0.025120
v -0.018894 -0.046040 -0.025648
v -0.018894 -0.036029 -0.024066
v -0.006772 -0.048675 -0.021958
v -0.013098 -0.057111 -0.016686
v -0.015734 -0.030230 -0.018269
v -0.023110 -0.031811 -0.018269
f 449 460 469 
f 431 430 433 
f 431 433 437 
f 438 432 440 
f 437 428 446 
f 431 437 446 
f 444 435 447 
f 429 430 449 
f 439 444 451 
f 446 428 452 
f 439 429 453 
f 435 444 453 
f 444 439 453 
f 429 449 453 
f 449 435 453 
f 440 431 455 
f 438 440 455 
f 431 446 455 
f 452 438 455 
f 446 452 455 
f 428 437 456 
f 445 436 456 
f 443 445 456 
f 436 454 456 
f 436 445 457 
f 434 451 457 
f 437 433 458 
f 456 437 458 
f 443 456 458 
f 433 450 459 
f 450 434 459 
f 434 457 459 
f 457 445 459 
f 430 431 460 
f 431 442 460 
f 449 430 460 
f 429 439 461 
f 434 450 461 
f 451 434 461 
f 439 451 461 
f 430 429 462 
f 433 430 462 
f 450 433 462 
f 429 461 462 
f 461 450 462 
f 432 438 463 
f 441 432 463 
f 454 436 463 
f 436 457 463 
f 457 441 463 
f 432 441 464 
f 444 432 464 
f 451 444 464 
f 457 451 464 
f 441 457 464 
f 440 432 465 
f 432 444 465 
f 444 447 465 
f 448 440 465 
f 447 448 465 
f 452 428 466 
f 438 452 466 
f 428 456 466 
f 456 454 466 
f 463 438 466 
f 454 463 466 
f 445 443 467 
f 458 433 467 
f 443 458 467 
f 433 459 467 
f 459 445 467 
f 431 440 468 
f 442 431 468 
f 440 448 468 
f 448 442 468 
f 447 435 469 
f 442 448 469 
f 448 447 469 
f 435 449 469 
f 460 442 469 
o convex_14
v -0.008881 -0.042877 0.007566
v -0.004134 -0.027590 0.007566
v -0.004134 -0.047095 0.007566
v -0.015731 -0.027590 0.003875
v -0.004134 -0.046567 0.003875
v -0.024167 -0.028120 0.006511
v -0.015731 -0.046040 0.003875
v -0.004134 -0.027590 0.003875
v -0.014674 -0.047095 0.007038
v -0.015204 -0.027590 0.007566
v -0.023640 -0.027590 0.004930
v -0.015204 -0.047620 0.005457
v -0.023112 -0.028647 0.007038
v -0.017839 -0.041294 0.003875
f 475 480 483 
f 472 471 470 
f 471 472 474 
f 473 474 476 
f 473 471 477 
f 474 473 477 
f 471 474 477 
f 472 470 478 
f 470 471 479 
f 471 473 479 
f 479 473 480 
f 475 479 480 
f 474 472 481 
f 476 474 481 
f 475 476 481 
f 472 478 481 
f 478 475 481 
f 478 470 482 
f 475 478 482 
f 470 479 482 
f 479 475 482 
f 473 476 483 
f 476 475 483 
f 480 473 483 
o convex_15
v -0.006770 -0.044458 0.014946
v -0.015205 -0.028121 0.007566
v -0.015205 -0.028121 0.014418
v -0.004134 -0.027590 0.007566
v -0.004134 -0.047093 0.007566
v -0.004134 -0.027590 0.014946
v -0.007298 -0.044985 0.007566
v -0.004134 -0.043404 0.014946
v -0.014150 -0.027590 0.014946
v -0.010458 -0.038660 0.014418
v -0.015205 -0.027590 0.007566
v -0.007825 -0.043931 0.014418
f 493 490 495 
f 485 487 488 
f 488 487 489 
f 485 488 490 
f 484 488 491 
f 489 484 491 
f 488 489 491 
f 486 484 492 
f 484 489 492 
f 489 487 492 
f 484 486 493 
f 486 485 493 
f 485 490 493 
f 485 486 494 
f 487 485 494 
f 486 492 494 
f 492 487 494 
f 488 484 495 
f 490 488 495 
f 484 493 495 
o convex_16
v -0.004134 -0.050261 -0.008250
v 0.003774 -0.050788 -0.000343
v 0.003246 -0.049206 0.000183
v -0.004134 -0.049206 0.001766
v 0.000611 -0.052895 0.000183
v 0.002719 -0.048678 -0.007722
v 0.002719 -0.052895 -0.006667
v -0.004134 -0.048678 -0.008250
v 0.000083 -0.053423 -0.006140
v 0.001138 -0.048678 0.001238
v -0.004134 -0.050261 -0.002979
v -0.004134 -0.048678 0.001766
f 505 503 507 
f 498 497 501 
f 497 500 502 
f 501 497 502 
f 496 501 502 
f 496 499 503 
f 501 496 503 
f 496 502 504 
f 502 500 504 
f 497 498 505 
f 499 500 505 
f 500 497 505 
f 498 501 505 
f 501 503 505 
f 499 496 506 
f 500 499 506 
f 496 504 506 
f 504 500 506 
f 503 499 507 
f 499 505 507 
o convex_17
v -0.004134 -0.048150 0.006510
v 0.006938 -0.043934 0.009673
v 0.006410 -0.043934 0.010727
v -0.004134 -0.043934 -0.008778
v 0.002719 -0.048678 -0.007195
v 0.006938 -0.043934 -0.008248
v -0.004134 -0.043934 0.011256
v -0.004134 -0.048678 -0.008248
v 0.000084 -0.048150 0.008089
v 0.002719 -0.048678 0.000714
v 0.006938 -0.044462 0.009673
v -0.003079 -0.048678 0.007036
v 0.006410 -0.044989 -0.008248
v -0.001497 -0.047096 0.009673
v 0.005355 -0.044989 0.010727
v 0.001139 -0.048678 -0.008248
f 520 512 523 
f 510 509 511 
f 511 509 513 
f 510 511 514 
f 511 508 514 
f 508 511 515 
f 515 512 517 
f 509 510 518 
f 513 509 518 
f 517 512 518 
f 514 508 519 
f 508 515 519 
f 515 517 519 
f 517 516 519 
f 511 513 520 
f 513 518 520 
f 518 512 520 
f 514 519 521 
f 519 516 521 
f 510 514 522 
f 516 517 522 
f 517 518 522 
f 518 510 522 
f 514 521 522 
f 521 516 522 
f 515 511 523 
f 512 515 523 
f 511 520 523 
o convex_18
v 0.009573 -0.009138 -0.005088
v -0.004131 -0.011774 -0.016685
v -0.010985 -0.011774 -0.011413
v -0.013095 -0.005975 -0.010886
v 0.007463 -0.006502 -0.016685
v 0.010099 -0.011774 -0.016157
v -0.011514 -0.011774 -0.005088
v 0.007991 -0.005975 -0.005088
v -0.014151 -0.005975 -0.005088
v 0.010099 -0.011774 -0.005088
v 0.006936 -0.005975 -0.012994
v 0.008518 -0.007030 -0.016157
v 0.002192 -0.008084 -0.016685
v -0.014151 -0.006502 -0.008779
v 0.010628 -0.011247 -0.008252
v 0.009573 -0.011774 -0.016685
v -0.012040 -0.005975 -0.011413
f 528 536 540 
f 525 526 527 
f 526 525 529 
f 526 529 530 
f 530 524 531 
f 531 527 532 
f 530 531 532 
f 530 529 533 
f 524 530 533 
f 531 528 534 
f 527 531 534 
f 528 531 535 
f 528 525 536 
f 527 526 537 
f 526 530 537 
f 532 527 537 
f 530 532 537 
f 531 524 538 
f 524 533 538 
f 533 529 538 
f 529 535 538 
f 535 531 538 
f 525 528 539 
f 529 525 539 
f 528 535 539 
f 535 529 539 
f 525 527 540 
f 527 534 540 
f 534 528 540 
f 536 525 540 
o convex_19
v -0.007823 0.000351 -0.012468
v 0.002718 0.005096 -0.005087
v 0.003771 0.002987 -0.005087
v -0.014149 -0.005975 -0.005087
v 0.006407 -0.005975 -0.011940
v -0.018893 0.005096 -0.005087
v 0.000608 0.005096 -0.011413
v 0.007462 -0.005975 -0.005087
v -0.013093 -0.005975 -0.010886
v -0.018364 0.005096 -0.010886
v 0.003244 0.004568 -0.008778
v -0.009931 -0.005975 -0.011940
v -0.008876 0.004568 -0.012468
v -0.018893 0.004042 -0.010359
v 0.007462 -0.004393 -0.008778
v -0.014675 -0.005447 -0.008252
v 0.001137 0.002987 -0.011940
v 0.002718 0.005096 -0.009832
v -0.018893 0.004042 -0.005615
f 554 556 559 
f 543 542 544 
f 544 542 546 
f 546 542 547 
f 543 544 548 
f 544 545 548 
f 545 544 549 
f 546 547 550 
f 542 543 551 
f 541 545 552 
f 545 549 552 
f 549 550 552 
f 552 550 553 
f 545 541 553 
f 550 547 553 
f 541 552 553 
f 546 550 554 
f 550 549 554 
f 543 548 555 
f 548 545 555 
f 551 543 555 
f 549 544 556 
f 554 549 556 
f 547 545 557 
f 545 553 557 
f 553 547 557 
f 545 547 558 
f 547 542 558 
f 542 551 558 
f 555 545 558 
f 551 555 558 
f 544 546 559 
f 546 554 559 
f 556 544 559 
o convex_20
v 0.013790 0.005095 0.018105
v -0.014678 -0.007554 -0.005087
v -0.014678 -0.008609 -0.004558
v 0.014318 -0.011244 -0.001922
v -0.014678 -0.011773 0.018107
v -0.014678 0.005095 -0.005087
v 0.013263 0.005095 -0.004556
v 0.014318 -0.011773 0.014942
v 0.000607 0.005095 0.017055
v -0.011513 -0.011773 -0.005087
v -0.014678 -0.005974 0.017055
v 0.010101 -0.011773 -0.005085
v 0.005880 0.001931 0.019691
v -0.014678 0.005095 -0.000869
v 0.014318 0.002458 -0.004556
v 0.014318 -0.001231 0.018105
v 0.012207 0.005095 -0.005085
v 0.003246 -0.007027 0.018107
v 0.004299 0.003513 0.019691
v -0.014678 -0.011773 -0.001396
v 0.014318 0.005095 0.017579
v -0.012038 -0.004919 0.018107
v 0.014318 -0.004392 -0.004556
v -0.001500 0.005095 0.014945
v 0.014318 0.005095 -0.001393
v 0.003771 0.005095 0.018636
v 0.014318 -0.011773 -0.001393
v -0.007820 -0.011773 0.017579
f 567 577 587 
f 561 562 564 
f 561 564 565 
f 565 560 566 
f 560 565 568 
f 562 561 569 
f 561 565 569 
f 567 564 569 
f 565 564 570 
f 567 569 571 
f 568 565 573 
f 565 570 573 
f 567 563 574 
f 560 572 575 
f 567 574 575 
f 565 566 576 
f 569 565 576 
f 571 569 576 
f 566 574 576 
f 572 564 577 
f 567 575 577 
f 575 572 577 
f 572 560 578 
f 564 572 578 
f 564 562 579 
f 562 569 579 
f 569 564 579 
f 566 560 580 
f 560 575 580 
f 575 574 580 
f 570 564 581 
f 568 570 581 
f 564 578 581 
f 563 571 582 
f 574 563 582 
f 571 576 582 
f 576 574 582 
f 570 568 583 
f 568 573 583 
f 573 570 583 
f 574 566 584 
f 566 580 584 
f 580 574 584 
f 560 568 585 
f 578 560 585 
f 568 581 585 
f 581 578 585 
f 563 567 586 
f 571 563 586 
f 567 571 586 
f 564 567 587 
f 577 564 587 
o convex_21
v 0.014846 0.001933 0.011255
v 0.014318 -0.007557 -0.002978
v 0.014318 -0.005447 -0.004031
v 0.019063 -0.007557 0.011255
v 0.014318 -0.007557 0.014946
v 0.016954 -0.001233 -0.002978
v 0.014318 0.001933 -0.004031
v 0.016954 -0.007557 -0.002978
v 0.018535 -0.005974 0.014946
v 0.014318 -0.002285 0.015473
v 0.016954 -0.002285 0.014418
v 0.015900 -0.001233 -0.004560
v 0.016954 -0.001233 0.006510
v 0.014318 0.001933 0.011255
v 0.014846 0.001933 -0.004031
v 0.018535 -0.007557 0.014946
f 596 597 603 
f 590 589 592 
f 589 591 592 
f 590 592 594 
f 589 590 595 
f 591 589 595 
f 593 591 595 
f 594 592 597 
f 597 596 598 
f 588 597 598 
f 590 594 599 
f 595 590 599 
f 593 595 599 
f 593 588 600 
f 591 593 600 
f 596 591 600 
f 598 596 600 
f 588 598 600 
f 588 594 601 
f 597 588 601 
f 594 597 601 
f 588 593 602 
f 594 588 602 
f 599 594 602 
f 593 599 602 
f 592 591 603 
f 591 596 603 
f 597 592 603 
o convex_22
v 0.017483 -0.001759 -0.002978
v 0.026971 -0.005974 0.006510
v 0.025916 -0.003865 0.007038
v 0.016956 -0.007556 0.011256
v 0.016956 -0.007556 -0.002978
v 0.023807 0.000878 -0.001922
v 0.016956 -0.003339 0.011256
v 0.021700 0.000878 0.004929
v 0.023281 -0.001231 -0.002978
v 0.026971 -0.006501 0.005456
v 0.024335 0.000351 0.005982
v 0.016956 -0.001231 -0.002450
v 0.019064 -0.007556 -0.002450
v 0.019064 -0.007556 0.011256
v 0.016956 -0.001231 0.005984
v 0.022226 0.000878 -0.002450
v 0.021172 -0.007556 0.006507
f 617 616 620 
f 608 607 610 
f 608 604 612 
f 612 609 613 
f 609 605 613 
f 606 605 614 
f 605 609 614 
f 610 606 614 
f 609 611 614 
f 611 610 614 
f 604 608 615 
f 608 610 615 
f 607 608 616 
f 608 612 616 
f 612 613 616 
f 605 606 617 
f 606 610 617 
f 610 607 617 
f 613 605 617 
f 607 616 617 
f 610 611 618 
f 615 610 618 
f 611 615 618 
f 611 609 619 
f 612 604 619 
f 609 612 619 
f 604 615 619 
f 615 611 619 
f 616 613 620 
f 613 617 620 
o convex_23
v 0.015373 0.014586 0.026018
v 0.015900 0.005096 0.013893
v 0.017481 0.005096 0.013893
v 0.014846 0.017749 0.010729
v 0.018535 0.011423 0.017583
v 0.014846 0.005096 0.023906
v 0.018535 0.005096 0.023906
v 0.016954 0.017749 0.011785
v 0.016954 0.016165 0.023379
v 0.019063 0.005096 0.014949
v 0.014846 0.017221 0.021799
v 0.014846 0.005096 0.014419
v 0.014846 0.012477 0.026018
v 0.017481 0.014058 0.023906
v 0.016954 0.017749 0.016001
v 0.015373 0.016165 0.010729
f 632 624 636 
f 622 623 626 
f 626 623 627 
f 625 627 630 
f 627 623 630 
f 628 625 630 
f 624 626 631 
f 621 629 631 
f 622 626 632 
f 626 624 632 
f 627 621 633 
f 626 627 633 
f 631 626 633 
f 621 631 633 
f 621 627 634 
f 627 625 634 
f 629 621 634 
f 629 634 635 
f 628 624 635 
f 625 628 635 
f 624 631 635 
f 631 629 635 
f 634 625 635 
f 623 622 636 
f 624 628 636 
f 630 623 636 
f 628 630 636 
f 622 632 636 
o convex_24
v 0.020117 0.003513 0.021799
v 0.014318 -0.002285 0.011256
v 0.014318 0.001932 0.011256
v 0.014318 0.005096 0.023908
v 0.016955 -0.002285 0.022853
v 0.020117 -0.000702 0.013893
v 0.019063 0.005096 0.014421
v 0.019590 -0.002285 0.022327
v 0.018009 0.005096 0.024436
v 0.014318 0.005096 0.014421
v 0.014846 -0.000176 0.023381
v 0.020645 0.002987 0.014421
v 0.020645 0.000352 0.022853
v 0.016428 -0.002285 0.011256
v 0.018535 -0.000176 0.024436
v 0.014318 -0.002285 0.016002
v 0.019590 0.003513 0.013365
f 642 650 653 
f 639 638 640 
f 641 638 644 
f 643 640 645 
f 637 643 645 
f 639 640 646 
f 643 639 646 
f 640 643 646 
f 643 637 648 
f 644 642 649 
f 637 645 649 
f 642 648 649 
f 648 637 649 
f 638 639 650 
f 644 638 650 
f 642 644 650 
f 641 644 651 
f 645 640 651 
f 640 647 651 
f 647 641 651 
f 644 649 651 
f 649 645 651 
f 640 638 652 
f 638 641 652 
f 647 640 652 
f 641 647 652 
f 639 643 653 
f 648 642 653 
f 643 648 653 
f 650 639 653 
o convex_25
v 0.014846 0.014586 0.026012
v 0.010628 0.005096 -0.005087
v 0.011682 0.005096 -0.005087
v 0.007465 0.017749 -0.004558
v 0.005883 0.005096 0.018104
v 0.014846 0.017749 -0.002449
v 0.014846 0.005096 0.023907
v 0.005883 0.017749 0.011252
v 0.005883 0.005096 -0.003505
v 0.014846 0.006151 -0.001923
v 0.014846 0.017749 0.020745
v 0.011154 0.014058 0.024960
v 0.005883 0.017749 -0.004558
v 0.012209 0.017221 0.022325
v 0.011682 0.012477 0.025489
v 0.014317 0.005096 -0.001923
v 0.005883 0.012477 0.014943
v 0.006938 0.005096 -0.004558
v 0.013264 0.014586 0.026545
v 0.013264 0.006151 0.023907
f 660 672 673 
f 656 655 657 
f 655 656 658 
f 656 657 659 
f 658 656 660 
f 659 654 660 
f 659 657 661 
f 655 658 662 
f 658 661 662 
f 656 659 663 
f 659 660 663 
f 654 659 664 
f 659 661 664 
f 657 655 666 
f 661 657 666 
f 662 661 666 
f 664 661 667 
f 661 665 667 
f 665 658 668 
f 660 656 669 
f 656 663 669 
f 663 660 669 
f 661 658 670 
f 665 661 670 
f 658 665 670 
f 655 662 671 
f 666 655 671 
f 662 666 671 
f 660 654 672 
f 654 664 672 
f 664 667 672 
f 667 665 672 
f 665 668 672 
f 672 668 673 
f 658 660 673 
f 668 658 673 
o convex_26
v -0.027331 0.024075 -0.007721
v -0.013098 0.026711 0.003871
v -0.014152 0.026711 0.006511
v -0.013098 0.018803 0.001236
v -0.013098 0.026711 -0.011412
v -0.023112 0.026711 0.011256
v -0.025220 0.018803 -0.010358
v -0.013098 0.018803 -0.012464
v -0.025220 0.026711 -0.012995
v -0.025220 0.018803 -0.000345
v -0.024165 0.021968 0.008619
v -0.022584 0.024075 0.010724
v -0.025746 0.026711 0.001765
v -0.027331 0.021968 -0.005083
v -0.016262 0.018803 -0.012464
v -0.026275 0.026711 -0.011412
v -0.024693 0.021968 0.007565
v -0.023639 0.018803 0.000711
v -0.026801 0.020386 -0.003505
f 690 687 692 
f 675 676 677 
f 676 675 678 
f 675 677 678 
f 676 678 679 
f 678 677 681 
f 677 680 681 
f 679 678 682 
f 678 681 682 
f 680 677 683 
f 677 676 685 
f 676 679 685 
f 684 677 685 
f 679 684 685 
f 679 682 686 
f 674 680 687 
f 686 674 687 
f 681 680 688 
f 680 682 688 
f 682 681 688 
f 680 674 689 
f 682 680 689 
f 674 686 689 
f 686 682 689 
f 684 679 690 
f 683 684 690 
f 679 686 690 
f 686 687 690 
f 683 677 691 
f 677 684 691 
f 684 683 691 
f 680 683 692 
f 687 680 692 
f 683 690 692 
o convex_27
v -0.017843 0.034620 0.018633
v -0.024166 0.026711 -0.013518
v -0.024693 0.029348 -0.015101
v -0.014679 0.039364 -0.016680
v -0.014679 0.026711 -0.011410
v -0.021003 0.039364 0.017051
v -0.023111 0.026711 0.011778
v -0.014679 0.034092 0.018633
v -0.022058 0.039364 -0.014571
v -0.026276 0.027767 -0.008775
v -0.014679 0.026711 0.007034
v -0.014679 0.039364 0.017051
v -0.024693 0.034620 -0.016153
v -0.022584 0.033563 0.016525
v -0.021003 0.031984 -0.016680
v -0.021530 0.031984 0.018633
v -0.025220 0.026711 0.003873
v -0.014679 0.035674 -0.016680
v -0.017843 0.031984 0.018104
v -0.026276 0.026711 -0.011410
v -0.023111 0.034092 -0.017209
v -0.019951 0.039364 0.018104
v -0.021530 0.038309 0.015995
v -0.022584 0.038837 -0.012992
v -0.025220 0.028296 0.002817
v -0.021530 0.027767 0.013360
f 711 708 718 
f 694 697 699 
f 697 696 700 
f 698 696 701 
f 699 697 703 
f 697 700 703 
f 696 698 704 
f 700 696 704 
f 694 695 707 
f 697 694 707 
f 700 693 708 
f 698 706 708 
f 706 699 708 
f 694 699 709 
f 699 706 709 
f 696 697 710 
f 697 707 710 
f 703 700 711 
f 700 708 711 
f 695 694 712 
f 705 695 712 
f 702 705 712 
f 694 709 712 
f 709 702 712 
f 701 696 713 
f 695 705 713 
f 705 701 713 
f 707 695 713 
f 696 710 713 
f 710 707 713 
f 693 700 714 
f 704 698 714 
f 700 704 714 
f 708 693 714 
f 698 708 714 
f 698 705 715 
f 705 702 715 
f 706 698 715 
f 698 701 716 
f 701 705 716 
f 705 698 716 
f 702 709 717 
f 709 706 717 
f 715 702 717 
f 706 715 717 
f 699 703 718 
f 708 699 718 
f 703 711 718 
o convex_28
v -0.007297 0.038309 0.019691
v -0.014678 0.026711 -0.011412
v -0.014678 0.035674 -0.016686
v -0.014678 0.038837 0.017581
v -0.007297 0.026711 0.020218
v -0.008879 0.039364 -0.016158
v -0.007297 0.026711 -0.008771
v -0.014678 0.028296 0.016523
v -0.014678 0.039364 -0.016686
v -0.007297 0.039364 -0.007196
v -0.007297 0.039364 0.019160
v -0.008352 0.026711 -0.010881
v -0.013623 0.026711 0.011780
v -0.014678 0.034092 0.018633
v -0.014678 0.039364 0.017054
v -0.009406 0.035674 0.020218
v -0.010987 0.037255 -0.016686
v -0.013623 0.027239 0.017054
v -0.014678 0.026711 0.007033
f 736 726 737 
f 721 720 722 
f 719 723 725 
f 723 720 725 
f 722 720 726 
f 721 722 727 
f 724 727 728 
f 719 725 728 
f 725 724 728 
f 722 719 729 
f 728 727 729 
f 719 728 729 
f 720 721 730 
f 724 725 730 
f 725 720 730 
f 720 723 731 
f 722 726 732 
f 727 722 733 
f 722 729 733 
f 729 727 733 
f 719 722 734 
f 723 719 734 
f 722 732 734 
f 732 723 734 
f 721 727 735 
f 727 724 735 
f 730 721 735 
f 724 730 735 
f 731 723 736 
f 723 732 736 
f 732 726 736 
f 726 720 737 
f 720 731 737 
f 731 736 737 
o convex_29
v -0.018369 -0.057639 -0.010356
v -0.015735 -0.036557 0.003875
v -0.015735 -0.032339 -0.000872
v -0.027858 -0.034448 -0.006142
v -0.015735 -0.029701 -0.016158
v -0.027858 -0.037081 -0.016158
v -0.015735 -0.057639 -0.016158
v -0.021532 -0.050259 0.001765
v -0.015735 -0.053421 0.000185
v -0.019951 -0.028645 -0.009305
v -0.025221 -0.041826 0.001238
v -0.023112 -0.033919 -0.000872
v -0.026275 -0.031810 -0.012991
v -0.018897 -0.056586 -0.016158
v -0.016261 -0.046038 0.003875
v -0.019951 -0.054477 -0.001925
v -0.021532 -0.030227 -0.016158
v -0.015735 -0.057639 -0.006142
v -0.027328 -0.038140 -0.003508
v -0.015735 -0.028645 -0.008777
v -0.021005 -0.045514 0.003348
v -0.019424 -0.030227 -0.004036
v -0.025221 -0.031810 -0.006142
v -0.025221 -0.040249 0.001238
v -0.027858 -0.034972 -0.015629
v -0.017315 -0.058695 -0.009828
v -0.016788 -0.028645 -0.014576
v -0.021005 -0.052368 -0.016158
v -0.022058 -0.038140 0.002293
v -0.026275 -0.036557 -0.001398
v -0.019424 -0.054477 -0.000872
v -0.015735 -0.048147 0.003348
v -0.027858 -0.037081 -0.006142
v -0.024166 -0.044985 0.001238
v -0.017842 -0.038666 0.003875
f 766 758 772 
f 740 739 742 
f 743 742 744 
f 742 739 744 
f 744 739 746 
f 743 744 751 
f 751 738 753 
f 742 743 754 
f 750 747 754 
f 744 746 755 
f 740 742 757 
f 739 740 759 
f 749 739 759 
f 740 757 759 
f 757 747 759 
f 750 741 760 
f 747 750 760 
f 759 747 760 
f 749 759 760 
f 756 748 761 
f 748 758 761 
f 743 741 762 
f 741 750 762 
f 754 743 762 
f 750 754 762 
f 738 751 763 
f 751 744 763 
f 753 738 763 
f 744 755 763 
f 742 754 764 
f 754 747 764 
f 757 742 764 
f 747 757 764 
f 743 751 765 
f 751 753 765 
f 739 749 766 
f 761 758 766 
f 761 766 767 
f 741 756 767 
f 760 741 767 
f 749 760 767 
f 756 761 767 
f 766 749 767 
f 746 745 768 
f 745 753 768 
f 755 746 768 
f 753 763 768 
f 763 755 768 
f 746 739 769 
f 745 746 769 
f 739 752 769 
f 758 745 769 
f 752 758 769 
f 741 743 770 
f 756 741 770 
f 743 765 770 
f 765 753 770 
f 753 745 771 
f 748 756 771 
f 758 748 771 
f 745 758 771 
f 756 770 771 
f 770 753 771 
f 752 739 772 
f 758 752 772 
f 739 766 772 
o convex_30
v -0.015732 -0.058692 -0.011411
v -0.004662 -0.027593 0.003875
v -0.004134 -0.027590 0.003873
v -0.004662 -0.027593 -0.016158
v -0.015732 -0.028650 -0.008777
v -0.004662 -0.052366 -0.009305
v -0.015732 -0.046566 0.003875
v -0.004134 -0.046566 0.003875
v -0.015732 -0.057109 -0.016158
v -0.015204 -0.027593 0.003875
v -0.015732 -0.029703 -0.016158
v -0.005716 -0.052892 -0.016158
v -0.012567 -0.056582 -0.004561
v -0.004134 -0.028123 -0.016158
v -0.015732 -0.053419 0.000185
v -0.009406 -0.057109 -0.012991
v -0.004134 -0.049729 0.000708
v -0.004662 -0.051309 -0.015629
v -0.014148 -0.027593 -0.009828
v -0.007826 -0.055529 -0.007722
v -0.004134 -0.050783 -0.007722
v -0.005716 -0.054473 -0.011411
v -0.015732 -0.035503 0.003875
v -0.012040 -0.057109 -0.016158
v -0.015732 -0.028650 -0.014576
v -0.015732 -0.057109 -0.005091
v -0.010460 -0.057636 -0.010885
v -0.005716 -0.054473 -0.014048
v -0.015732 -0.049203 0.002818
v -0.014676 -0.053419 0.000185
f 780 801 802 
f 777 773 779 
f 775 774 780 
f 774 779 780 
f 773 777 781 
f 774 775 782 
f 779 774 782 
f 781 777 783 
f 776 781 783 
f 781 776 784 
f 776 775 786 
f 775 780 786 
f 784 776 786 
f 779 773 787 
f 786 780 789 
f 784 786 790 
f 775 776 791 
f 782 775 791 
f 789 785 792 
f 786 789 793 
f 789 778 793 
f 778 790 793 
f 790 786 793 
f 778 789 794 
f 789 792 794 
f 777 779 795 
f 782 777 795 
f 779 782 795 
f 773 781 796 
f 781 784 796 
f 788 773 796 
f 777 782 797 
f 776 783 797 
f 783 777 797 
f 791 776 797 
f 782 791 797 
f 773 785 798 
f 787 773 798 
f 785 773 799 
f 773 788 799 
f 792 785 799 
f 788 794 799 
f 794 792 799 
f 790 778 800 
f 784 790 800 
f 794 788 800 
f 778 794 800 
f 796 784 800 
f 788 796 800 
f 780 779 801 
f 779 787 801 
f 801 787 802 
f 785 789 802 
f 789 780 802 
f 798 785 802 
f 787 798 802 
o convex_31
v -0.026802 -0.010192 -0.001922
v -0.014679 -0.009665 0.018110
v -0.014679 -0.011774 0.018110
v -0.014679 -0.007558 -0.005087
v -0.032074 -0.004921 0.010201
v -0.014679 -0.005448 0.014944
v -0.024692 -0.004921 -0.005087
v -0.018371 -0.011774 -0.004558
v -0.024692 -0.011774 0.010201
v -0.014679 -0.004921 -0.003505
v -0.032074 -0.005448 -0.002451
v -0.021005 -0.011774 0.017581
v -0.014679 -0.011774 -0.001395
v -0.022061 -0.011774 -0.005087
v -0.015735 -0.007030 0.017581
v -0.030492 -0.007030 0.010201
v -0.019425 -0.010192 0.018110
v -0.014679 -0.004921 0.002821
v -0.024692 -0.011774 -0.001922
v -0.032074 -0.004921 -0.002451
f 809 813 822 
f 804 805 806 
f 804 806 808 
f 810 805 811 
f 808 806 812 
f 806 809 812 
f 809 807 812 
f 811 805 814 
f 806 805 815 
f 805 810 815 
f 810 806 815 
f 809 806 816 
f 806 810 816 
f 810 811 816 
f 813 809 816 
f 803 813 816 
f 804 808 817 
f 808 807 817 
f 803 811 818 
f 807 813 818 
f 813 803 818 
f 814 807 818 
f 811 814 818 
f 805 804 819 
f 814 805 819 
f 807 814 819 
f 804 817 819 
f 817 807 819 
f 807 808 820 
f 812 807 820 
f 808 812 820 
f 811 803 821 
f 803 816 821 
f 816 811 821 
f 807 809 822 
f 813 807 822 
o convex_32
v -0.028384 0.002460 0.006509
v -0.029436 0.004569 -0.005087
v -0.029436 0.005095 -0.005087
v -0.014678 0.005095 -0.005087
v -0.023115 -0.004920 -0.005087
v -0.014678 -0.004920 0.002294
v -0.032601 -0.004920 0.010201
v -0.033126 -0.004393 -0.001923
v -0.014678 0.005095 -0.000342
v -0.031546 0.005095 0.000712
v -0.028384 -0.004393 0.010729
v -0.014678 -0.003338 -0.005087
v -0.023643 0.005095 0.003875
v -0.032601 -0.001230 0.009145
v -0.032073 -0.004920 -0.002451
v -0.033126 -0.002284 -0.001923
v -0.014678 -0.004920 -0.002451
v -0.033126 -0.001757 0.007564
v -0.021006 -0.004393 0.006509
v -0.025219 -0.004920 -0.005087
v -0.030491 -0.002812 0.010729
v -0.031546 0.005095 -0.002451
v -0.030491 0.005095 0.002294
v -0.032073 0.004041 0.001766
v -0.033126 -0.003866 -0.002451
f 838 844 847 
f 824 825 826 
f 824 826 827 
f 827 828 829 
f 826 825 831 
f 828 826 831 
f 831 825 832 
f 829 828 833 
f 827 826 834 
f 826 828 834 
f 831 832 835 
f 833 831 835 
f 827 829 837 
f 829 830 837 
f 828 827 839 
f 827 834 839 
f 834 828 839 
f 830 829 840 
f 829 836 840 
f 838 830 840 
f 828 831 841 
f 833 828 841 
f 831 833 841 
f 824 827 842 
f 827 837 842 
f 829 833 843 
f 835 823 843 
f 833 835 843 
f 836 829 843 
f 823 836 843 
f 832 825 844 
f 823 835 845 
f 835 832 845 
f 836 823 845 
f 836 845 846 
f 840 836 846 
f 838 840 846 
f 832 844 846 
f 844 838 846 
f 845 832 846 
f 825 824 847 
f 837 830 847 
f 830 838 847 
f 824 842 847 
f 842 837 847 
f 844 825 847 
o convex_33
v 0.029079 -0.040770 -0.006139
v 0.021700 -0.012302 0.002294
v 0.021173 -0.012302 0.002294
v 0.029606 -0.006502 -0.012468
v 0.021173 -0.027588 -0.011939
v 0.029606 -0.016522 0.002294
v 0.021173 -0.038134 0.002294
v 0.021173 -0.012302 -0.012468
v 0.029606 -0.039187 0.000184
v 0.029606 -0.027061 -0.012468
v 0.021173 -0.038134 -0.008250
v 0.029606 -0.007559 -0.005087
v 0.029079 -0.030224 0.002294
v 0.025916 -0.040770 0.000184
v 0.024863 -0.008612 -0.008775
v 0.026970 -0.040770 -0.007195
v 0.029606 -0.011775 -0.000343
v 0.029606 -0.040240 -0.006668
v 0.028025 -0.040240 0.000711
v 0.028025 -0.007032 -0.008775
v 0.022755 -0.010195 -0.010358
v 0.029606 -0.033914 0.001766
v 0.024863 -0.008612 -0.012468
v 0.024336 -0.024425 -0.012468
f 855 857 871 
f 849 850 853 
f 850 852 854 
f 853 850 854 
f 852 850 855 
f 851 853 856 
f 855 851 857 
f 851 856 857 
f 854 852 858 
f 852 857 858 
f 850 849 859 
f 853 851 859 
f 853 854 860 
f 854 858 861 
f 858 857 863 
f 848 861 863 
f 861 858 863 
f 849 853 864 
f 859 849 864 
f 853 859 864 
f 856 848 865 
f 857 856 865 
f 848 863 865 
f 863 857 865 
f 848 856 866 
f 861 848 866 
f 854 861 866 
f 850 859 867 
f 859 851 867 
f 862 850 867 
f 855 850 868 
f 850 862 868 
f 856 853 869 
f 853 860 869 
f 860 854 869 
f 866 856 869 
f 854 866 869 
f 851 855 870 
f 867 851 870 
f 862 867 870 
f 855 868 870 
f 868 862 870 
f 852 855 871 
f 857 852 871 
o convex_34
v -0.017314 0.006151 -0.011413
v -0.025222 0.018276 -0.009832
v -0.025222 0.018276 -0.005087
v -0.013096 0.018803 -0.005087
v -0.018895 0.005098 -0.005087
v -0.013096 0.018803 -0.012468
v -0.013096 0.005098 -0.005087
v -0.021529 0.010897 -0.012468
v -0.013096 0.008261 -0.011940
v -0.019422 0.005098 -0.010359
v -0.024167 0.018803 -0.010886
v -0.013096 0.005098 -0.010359
v -0.016789 0.018803 -0.012468
v -0.025222 0.018803 -0.005087
v -0.014151 0.010371 -0.012468
v -0.019422 0.005098 -0.005615
v -0.022586 0.011950 -0.010886
f 887 874 888 
f 875 874 876 
f 877 875 878 
f 875 876 878 
f 877 878 880 
f 878 876 881 
f 879 872 881 
f 875 877 882 
f 879 873 882 
f 880 878 883 
f 872 880 883 
f 881 872 883 
f 878 881 883 
f 877 879 884 
f 882 877 884 
f 879 882 884 
f 873 874 885 
f 874 875 885 
f 882 873 885 
f 875 882 885 
f 872 879 886 
f 879 877 886 
f 877 880 886 
f 880 872 886 
f 876 874 887 
f 881 876 887 
f 881 887 888 
f 874 873 888 
f 873 879 888 
f 879 881 888 
o convex_35
v -0.013096 0.016169 -0.012468
v 0.005883 0.026711 0.024433
v 0.003775 0.026711 0.026545
v -0.013096 0.026711 -0.011410
v 0.005883 0.014586 -0.004028
v -0.010986 0.014586 0.020740
v 0.005883 0.026711 -0.002448
v -0.009405 0.025656 0.023906
v 0.003245 0.018805 0.026545
v -0.003081 0.014586 -0.010883
v -0.013096 0.026711 0.004403
v 0.005883 0.014586 0.008619
v -0.013096 0.014586 0.000714
v -0.006241 0.020912 0.026545
v -0.007296 0.025656 -0.010883
v -0.011513 0.021966 0.021798
v -0.007296 0.014586 0.022321
v -0.004660 0.026711 0.026545
v 0.005883 0.021438 -0.004555
v 0.005883 0.021438 0.024433
v -0.013096 0.014586 -0.011937
v 0.001136 0.017751 0.026545
v -0.006768 0.019859 -0.011937
v -0.011513 0.016695 0.021271
v -0.004132 0.018277 0.026545
v 0.003245 0.026711 -0.004559
v -0.008349 0.025128 0.025487
v 0.005356 0.021966 0.026545
v -0.008877 0.026711 0.020740
v -0.010458 0.020912 -0.012468
v -0.010986 0.018805 0.022852
v -0.007296 0.014586 -0.011937
v -0.008349 0.026711 -0.010883
f 903 918 921 
f 891 890 892 
f 892 890 895 
f 890 893 895 
f 893 894 898 
f 891 892 899 
f 892 889 899 
f 893 890 900 
f 894 893 900 
f 898 894 901 
f 899 889 901 
f 897 891 902 
f 896 899 904 
f 894 900 905 
f 891 899 906 
f 902 891 906 
f 895 893 907 
f 893 898 907 
f 900 890 908 
f 897 900 908 
f 901 889 909 
f 898 901 909 
f 900 897 910 
f 897 902 910 
f 905 900 910 
f 907 898 911 
f 903 907 911 
f 901 894 912 
f 899 901 912 
f 904 899 912 
f 894 905 913 
f 910 902 913 
f 905 910 913 
f 892 895 914 
f 895 907 914 
f 907 903 914 
f 896 904 915 
f 906 896 915 
f 902 906 915 
f 890 891 916 
f 891 897 916 
f 908 890 916 
f 897 908 916 
f 899 896 917 
f 906 899 917 
f 896 906 917 
f 889 892 918 
f 903 911 918 
f 912 894 919 
f 904 912 919 
f 894 913 919 
f 913 902 919 
f 915 904 919 
f 902 915 919 
f 909 889 920 
f 898 909 920 
f 911 898 920 
f 889 918 920 
f 918 911 920 
f 892 914 921 
f 914 903 921 
f 918 892 921 
o convex_36
v 0.005883 0.017749 0.011783
v 0.016954 0.018276 0.015473
v 0.016426 0.018276 0.016526
v 0.005883 0.026711 -0.002451
v 0.005883 0.026711 0.023908
v 0.014318 0.017749 -0.002451
v 0.011156 0.026711 0.000714
v 0.005883 0.017749 -0.004560
v 0.010629 0.026711 0.022327
v 0.005883 0.020913 0.023380
v 0.012737 0.017749 0.020218
v 0.011156 0.026184 -0.002451
v 0.011156 0.023021 0.023908
v 0.016426 0.019859 0.011783
v 0.012209 0.025130 0.021799
v 0.014844 0.018276 -0.001923
v 0.016954 0.017749 0.011255
v 0.006411 0.020385 -0.004560
v 0.010101 0.017749 0.019162
v 0.006411 0.021968 0.024436
v 0.012209 0.020913 0.022852
f 941 932 942 
f 925 922 926 
f 925 926 928 
f 922 925 929 
f 927 922 929 
f 928 926 930 
f 926 922 931 
f 923 924 932 
f 922 927 932 
f 925 928 933 
f 930 926 934 
f 933 928 935 
f 924 923 936 
f 928 930 936 
f 930 934 936 
f 923 935 936 
f 935 928 936 
f 927 933 937 
f 933 935 937 
f 937 935 938 
f 923 932 938 
f 932 927 938 
f 935 923 938 
f 927 937 938 
f 929 925 939 
f 927 929 939 
f 933 927 939 
f 925 933 939 
f 931 922 940 
f 932 931 940 
f 922 932 940 
f 926 931 941 
f 931 932 941 
f 934 926 941 
f 934 941 942 
f 932 924 942 
f 924 936 942 
f 936 934 942 
o convex_37
v 0.029606 -0.011249 0.005983
v 0.021173 -0.038134 0.002294
v 0.021700 -0.038134 0.002294
v 0.021173 -0.038134 0.007566
v 0.021173 -0.006502 0.003349
v 0.029606 -0.026535 0.002294
v 0.028551 -0.034967 0.007566
v 0.021173 -0.012302 0.007566
v 0.029606 -0.017578 0.002294
v 0.026443 -0.006502 0.007038
v 0.021173 -0.012302 0.002294
v 0.027497 -0.037602 0.005983
v 0.026970 -0.007032 0.004930
v 0.026970 -0.034443 0.002294
v 0.029079 -0.026535 0.007566
v 0.021173 -0.006502 0.006510
v 0.029606 -0.027588 0.007038
v 0.029606 -0.012831 0.007038
v 0.022755 -0.006502 0.003349
v 0.028551 -0.036023 0.005983
v 0.028551 -0.009667 0.004403
f 961 955 963 
f 944 945 946 
f 944 946 947 
f 945 944 948 
f 946 949 950 
f 947 946 950 
f 948 944 951 
f 943 948 951 
f 944 947 953 
f 951 944 953 
f 946 945 954 
f 949 946 954 
f 952 943 955 
f 945 948 956 
f 954 945 956 
f 950 949 957 
f 952 950 957 
f 947 950 958 
f 952 947 958 
f 950 952 958 
f 948 943 959 
f 957 949 959 
f 957 959 960 
f 943 952 960 
f 952 957 960 
f 959 943 960 
f 947 952 961 
f 953 947 961 
f 951 953 961 
f 952 955 961 
f 949 954 962 
f 956 948 962 
f 954 956 962 
f 948 959 962 
f 959 949 962 
f 943 951 963 
f 955 943 963 
f 951 961 963 
o convex_38
v 0.025916 -0.037077 0.007566
v 0.021700 -0.014939 0.015474
v 0.021172 -0.014939 0.015474
v 0.021700 -0.012829 0.007566
v 0.021172 -0.038134 0.007566
v 0.027497 -0.029167 0.015474
v 0.028553 -0.027587 0.007566
v 0.021172 -0.031278 0.015474
v 0.026444 -0.023376 0.014946
v 0.028553 -0.034971 0.008094
v 0.021700 -0.038134 0.009675
v 0.021172 -0.012829 0.007566
v 0.021700 -0.012829 0.012837
v 0.028553 -0.028642 0.010730
f 973 970 977 
f 967 964 968 
f 965 966 969 
f 964 967 970 
f 966 968 971 
f 969 966 971 
f 965 969 972 
f 964 970 973 
f 968 964 974 
f 971 968 974 
f 969 971 974 
f 964 973 974 
f 973 969 974 
f 967 968 975 
f 968 966 975 
f 966 965 976 
f 970 967 976 
f 965 972 976 
f 972 970 976 
f 975 966 976 
f 967 975 976 
f 972 969 977 
f 970 972 977 
f 969 973 977 
o convex_39
v -0.023110 0.005624 0.003347
v -0.031019 0.007732 -0.005086
v -0.031545 0.005096 -0.002451
v -0.013096 0.005096 -0.005086
v -0.013096 0.009841 -0.000343
v -0.028910 0.009841 -0.001396
v -0.013096 0.009841 -0.005086
v -0.013096 0.005096 -0.000869
v -0.026275 0.005096 0.003874
v -0.022583 0.009841 0.001239
v -0.029437 0.005096 -0.005086
v -0.029437 0.009841 -0.004559
v -0.031019 0.005624 0.001239
v -0.031019 0.009313 -0.003505
v -0.017842 0.009841 0.001239
v -0.026275 0.005624 0.003874
f 978 992 993 
f 981 979 984 
f 982 981 984 
f 983 982 984 
f 980 981 985 
f 982 978 985 
f 981 982 985 
f 985 978 986 
f 980 985 986 
f 982 983 987 
f 980 979 988 
f 981 980 988 
f 979 981 988 
f 984 979 989 
f 983 984 989 
f 980 986 990 
f 979 980 991 
f 989 979 991 
f 983 989 991 
f 980 990 991 
f 990 983 991 
f 978 982 992 
f 982 987 992 
f 992 987 993 
f 986 978 993 
f 987 983 993 
f 983 990 993 
f 990 986 993 
o convex_40
v -0.028911 0.009841 -0.001397
v -0.013096 0.018803 0.001239
v -0.016262 0.017222 0.001766
v -0.013096 0.009841 -0.000343
v -0.013096 0.018803 -0.005087
v -0.025746 0.018803 -0.002450
v -0.021003 0.009841 -0.005087
v -0.024692 0.018803 -0.005087
v -0.022058 0.010368 0.001766
v -0.013096 0.009841 -0.005087
v -0.023638 0.018803 0.000184
v -0.013096 0.012478 0.001766
v -0.025746 0.010368 -0.004560
v -0.028383 0.014585 -0.000870
v -0.028911 0.009841 -0.002450
v -0.017842 0.009841 0.001239
f 1005 1002 1009 
f 995 997 998 
f 995 998 999 
f 997 994 1000 
f 999 998 1001 
f 998 1000 1001 
f 998 997 1003 
f 997 1000 1003 
f 1000 998 1003 
f 996 995 1004 
f 995 999 1004 
f 1002 996 1004 
f 995 996 1005 
f 997 995 1005 
f 996 1002 1005 
f 1001 1000 1006 
f 999 1001 1007 
f 994 1002 1007 
f 1004 999 1007 
f 1002 1004 1007 
f 1000 994 1008 
f 1006 1000 1008 
f 1001 1006 1008 
f 1007 1001 1008 
f 994 1007 1008 
f 994 997 1009 
f 1002 994 1009 
f 997 1005 1009 
o convex_41
v -0.011514 0.008787 -0.012468
v -0.000970 0.014586 0.012307
v -0.006244 0.014586 0.021270
v -0.000970 0.005096 0.003878
v -0.002026 0.014586 -0.010358
v -0.013096 0.005096 -0.000869
v -0.013096 0.014586 -0.011411
v -0.000970 0.005096 -0.010885
v -0.010987 0.013531 0.020217
v -0.013096 0.005096 -0.010358
v -0.008878 0.010367 0.016527
v -0.013096 0.014586 0.001241
v -0.000970 0.011421 -0.010885
v -0.011514 0.014586 0.019164
v -0.008351 0.005096 0.003351
v -0.002553 0.010895 -0.011938
v -0.007296 0.012476 0.020217
v -0.006244 0.005096 -0.011938
v -0.007296 0.014586 -0.011938
v -0.000970 0.014586 -0.004558
v -0.012568 0.010895 0.009674
v -0.011514 0.009315 0.011781
v -0.006244 0.014057 0.021270
v -0.000970 0.010895 0.009674
v -0.013096 0.007733 -0.011938
f 1027 1019 1034 
f 1012 1011 1014 
f 1012 1014 1016 
f 1011 1013 1017 
f 1013 1015 1017 
f 1015 1016 1019 
f 1017 1015 1019 
f 1012 1016 1021 
f 1016 1015 1021 
f 1011 1017 1022 
f 1018 1012 1023 
f 1012 1021 1023 
f 1015 1013 1024 
f 1013 1020 1024 
f 1014 1022 1025 
f 1022 1017 1025 
f 1020 1013 1026 
f 1018 1020 1026 
f 1017 1019 1027 
f 1010 1025 1027 
f 1025 1017 1027 
f 1010 1016 1028 
f 1016 1014 1028 
f 1025 1010 1028 
f 1014 1025 1028 
f 1014 1011 1029 
f 1022 1014 1029 
f 1011 1022 1029 
f 1015 1018 1030 
f 1021 1015 1030 
f 1018 1023 1030 
f 1023 1021 1030 
f 1018 1015 1031 
f 1020 1018 1031 
f 1015 1024 1031 
f 1024 1020 1031 
f 1011 1012 1032 
f 1012 1018 1032 
f 1026 1013 1032 
f 1018 1026 1032 
f 1013 1011 1033 
f 1011 1032 1033 
f 1032 1013 1033 
f 1016 1010 1034 
f 1019 1016 1034 
f 1010 1027 1034 
o convex_42
v 0.005883 0.010367 0.015998
v -0.000970 0.005096 -0.010884
v -0.000970 0.009841 -0.010884
v -0.000970 0.005096 0.014943
v -0.000970 0.014586 0.011781
v 0.005883 0.014586 -0.003503
v 0.005883 0.005096 -0.002975
v 0.005883 0.005096 0.018107
v -0.000970 0.014586 -0.004558
v 0.005883 0.014586 0.008617
v 0.002193 0.005096 -0.010356
v 0.003246 0.005624 0.018107
v 0.005883 0.013004 0.013890
v -0.000443 0.010895 -0.010356
v 0.000084 0.005624 0.016523
f 1038 1046 1049 
f 1037 1036 1038 
f 1037 1038 1039 
f 1040 1035 1041 
f 1038 1036 1041 
f 1038 1041 1042 
f 1041 1035 1042 
f 1037 1039 1043 
f 1039 1040 1043 
f 1040 1039 1044 
f 1035 1040 1044 
f 1036 1037 1045 
f 1040 1041 1045 
f 1041 1036 1045 
f 1035 1039 1046 
f 1038 1042 1046 
f 1042 1035 1046 
f 1039 1035 1047 
f 1035 1044 1047 
f 1044 1039 1047 
f 1037 1043 1048 
f 1043 1040 1048 
f 1045 1037 1048 
f 1040 1045 1048 
f 1039 1038 1049 
f 1046 1039 1049 
