o convex_0
v -0.010157 0.038528 -0.053371
v -0.040855 0.000504 -0.053371
v -0.040855 0.000504 -0.052035
v -0.012161 -0.035531 -0.052035
v -0.020837 0.029187 -0.038689
v -0.013493 -0.021523 -0.038689
v -0.034844 -0.003498 -0.038689
v -0.032844 0.027182 -0.052035
v -0.022170 -0.032868 -0.053371
v -0.009492 0.033854 -0.045363
v -0.008821 -0.024858 -0.044030
v -0.033512 0.011169 -0.038689
v -0.010157 -0.032195 -0.053371
v -0.024174 -0.018852 -0.038689
v -0.031511 -0.021523 -0.052035
v -0.026171 0.032522 -0.053371
v -0.040855 0.004490 -0.051368
v -0.018833 0.025851 -0.038689
v -0.027507 -0.024193 -0.047364
v -0.036180 0.002486 -0.039359
v -0.038852 -0.003498 -0.048031
v -0.036180 0.019838 -0.053371
v -0.028175 0.027182 -0.044697
v -0.018166 0.036524 -0.052702
v -0.008821 -0.002839 -0.045363
v -0.029507 -0.014178 -0.039359
v -0.014829 -0.035531 -0.052035
v -0.033512 0.023181 -0.048698
v -0.028843 0.029187 -0.048031
v -0.022170 -0.020184 -0.038689
v -0.031511 -0.021523 -0.053371
v -0.012161 0.038528 -0.052702
v -0.022170 -0.032868 -0.052702
v -0.013493 -0.018852 -0.038689
v -0.022841 0.028514 -0.039359
v -0.008821 -0.016182 -0.044030
v -0.039520 0.008499 -0.050701
v -0.040184 -0.001501 -0.050034
v -0.014161 -0.036204 -0.053371
v -0.023506 0.033854 -0.052035
v -0.040855 0.005822 -0.053371
f 37 22 41 
f 6 5 7 
f 2 1 9 
f 6 4 11 
f 7 5 12 
f 9 1 13 
f 11 4 13 
f 6 7 14 
f 1 2 16 
f 2 3 17 
f 5 6 18 
f 10 5 18 
f 7 12 20 
f 15 7 21 
f 16 2 22 
f 8 16 22 
f 1 16 24 
f 1 10 25 
f 13 1 25 
f 11 13 25 
f 14 7 26 
f 7 15 26 
f 19 14 26 
f 15 19 26 
f 4 6 27 
f 8 22 28 
f 12 23 28 
f 23 8 28 
f 16 8 29 
f 8 23 29 
f 6 14 30 
f 27 6 30 
f 2 9 31 
f 9 15 31 
f 10 1 32 
f 5 10 32 
f 1 24 32 
f 24 5 32 
f 15 9 33 
f 14 19 33 
f 19 15 33 
f 30 14 33 
f 27 30 33 
f 6 11 34 
f 18 6 34 
f 10 18 34 
f 12 5 35 
f 23 12 35 
f 29 23 35 
f 25 10 36 
f 11 25 36 
f 34 11 36 
f 10 34 36 
f 20 12 37 
f 17 20 37 
f 12 28 37 
f 28 22 37 
f 3 2 38 
f 17 3 38 
f 7 20 38 
f 20 17 38 
f 15 21 38 
f 21 7 38 
f 2 31 38 
f 31 15 38 
f 9 13 39 
f 13 4 39 
f 4 27 39 
f 33 9 39 
f 27 33 39 
f 5 24 40 
f 24 16 40 
f 16 29 40 
f 35 5 40 
f 29 35 40 
f 2 17 41 
f 22 2 41 
f 17 37 41 
o convex_1
v 0.033221 0.021844 -0.053371
v 0.005861 -0.024196 -0.045363
v 0.005861 -0.024196 -0.044030
v 0.007197 0.039870 -0.053371
v 0.021876 0.030521 -0.038689
v 0.028551 -0.029533 -0.053371
v 0.030553 -0.005504 -0.038689
v 0.007197 -0.022859 -0.053371
v 0.010534 -0.019518 -0.038689
v 0.006531 0.035857 -0.045363
v 0.037228 0.003831 -0.051368
v 0.031220 0.015170 -0.038689
v 0.033888 -0.023524 -0.050034
v 0.016540 0.031858 -0.038689
v 0.022543 0.033854 -0.053371
v 0.027885 -0.028861 -0.049365
v 0.035223 -0.018187 -0.053371
v 0.035893 -0.012179 -0.048031
v 0.022543 -0.014847 -0.038689
v 0.018542 -0.029533 -0.053371
v 0.017206 0.035192 -0.044030
v 0.029218 0.026515 -0.048031
v 0.035893 0.015170 -0.051368
v 0.027885 0.023847 -0.038689
v 0.031889 0.012501 -0.038689
v 0.036559 0.011171 -0.053371
v 0.005861 0.002507 -0.044697
v 0.027885 -0.030205 -0.050701
v 0.015874 -0.018853 -0.038689
v 0.020544 0.034527 -0.047364
v 0.029218 -0.008173 -0.038689
v 0.011201 0.039191 -0.052702
v 0.032555 0.022509 -0.050034
v 0.011870 0.036523 -0.045363
v 0.036559 -0.009510 -0.052702
v 0.035223 -0.012851 -0.046697
v 0.019211 -0.029533 -0.051368
v 0.010534 -0.018187 -0.038689
v 0.034557 -0.022186 -0.052702
v 0.029887 0.026515 -0.053371
v 0.007866 0.039870 -0.052035
v 0.031889 0.007830 -0.038689
f 77 59 83 
f 45 42 47 
f 43 45 49 
f 45 47 49 
f 48 46 50 
f 46 48 53 
f 50 46 55 
f 42 45 56 
f 47 42 58 
f 48 50 60 
f 44 43 61 
f 43 49 61 
f 49 47 61 
f 55 46 62 
f 46 53 65 
f 63 46 65 
f 53 64 65 
f 53 48 66 
f 59 52 66 
f 52 64 66 
f 64 53 66 
f 58 42 67 
f 42 64 67 
f 64 52 67 
f 43 44 68 
f 45 43 68 
f 51 45 68 
f 50 44 69 
f 47 54 69 
f 57 50 69 
f 54 57 69 
f 61 47 69 
f 50 57 70 
f 60 50 70 
f 57 60 70 
f 62 46 71 
f 46 63 71 
f 63 56 71 
f 54 48 72 
f 57 54 72 
f 48 60 72 
f 60 57 72 
f 56 45 73 
f 71 56 73 
f 62 71 73 
f 64 42 74 
f 63 65 74 
f 65 64 74 
f 51 55 75 
f 55 62 75 
f 52 59 76 
f 58 67 76 
f 67 52 76 
f 48 54 77 
f 54 59 77 
f 44 61 78 
f 69 44 78 
f 61 69 78 
f 44 50 79 
f 50 55 79 
f 55 51 79 
f 68 44 79 
f 51 68 79 
f 54 47 80 
f 47 58 80 
f 59 54 80 
f 58 76 80 
f 76 59 80 
f 42 56 81 
f 56 63 81 
f 74 42 81 
f 63 74 81 
f 45 51 82 
f 73 45 82 
f 62 73 82 
f 51 75 82 
f 75 62 82 
f 66 48 83 
f 59 66 83 
f 48 77 83 
o convex_2
v -0.029507 -0.004172 0.032721
v 0.003855 0.025852 0.033389
v 0.003855 0.025852 0.032721
v 0.017871 -0.010851 0.052742
v 0.017871 -0.010851 0.032721
v -0.006148 0.010500 0.051406
v -0.010825 -0.010844 0.052742
v 0.027214 0.008499 0.033389
v -0.026171 0.011837 0.033389
v 0.007862 0.013169 0.048734
v -0.020163 -0.010844 0.032721
v -0.027500 0.003168 0.038730
v -0.015491 0.021177 0.032721
v 0.027885 -0.000170 0.032721
v 0.019206 0.011172 0.041397
v -0.006148 0.014506 0.048734
v 0.002520 0.005837 0.052742
v -0.010155 -0.000835 0.052742
v 0.016535 0.017840 0.036058
v -0.002147 0.022514 0.039396
v -0.020828 0.013838 0.038063
v 0.003855 0.013169 0.050739
v -0.012820 0.007831 0.048734
v -0.029507 -0.001503 0.036058
v -0.018163 -0.010844 0.042067
v -0.030177 0.005169 0.032721
v 0.016535 0.019180 0.032721
v 0.027214 0.005837 0.035392
v -0.016821 0.019845 0.034724
v 0.004520 0.019176 0.043396
v -0.004818 0.025183 0.033389
v 0.017871 -0.010179 0.052742
v 0.015870 0.015842 0.040062
v 0.024543 0.006505 0.038730
v -0.027500 -0.004172 0.037395
v -0.027500 0.005169 0.038063
v -0.013491 -0.002171 0.050739
v -0.025500 -0.008178 0.033389
v 0.027214 -0.001503 0.032721
v -0.000152 0.017175 0.046734
v 0.027885 0.002499 0.034724
v -0.002817 0.007173 0.052742
v -0.026171 -0.000170 0.040062
v -0.010825 0.012505 0.047400
v 0.006526 0.011172 0.050739
v 0.024543 0.011172 0.034724
v 0.005191 0.025187 0.034057
v -0.000817 0.012505 0.051406
v 0.009863 0.000498 0.052742
v 0.025879 0.010500 0.032721
v -0.006148 0.022514 0.037395
v 0.001184 0.025183 0.035392
v 0.001855 0.010500 0.052074
v -0.029507 0.005169 0.035392
v -0.019492 0.015839 0.037395
f 104 127 138 
f 84 86 88 
f 84 88 94 
f 88 87 94 
f 86 84 96 
f 88 86 97 
f 90 87 100 
f 90 100 101 
f 101 89 106 
f 87 90 108 
f 94 87 108 
f 96 84 109 
f 92 96 109 
f 84 107 109 
f 97 86 110 
f 96 92 112 
f 105 93 113 
f 85 86 114 
f 86 96 114 
f 96 112 114 
f 100 87 115 
f 93 98 116 
f 113 93 116 
f 111 91 117 
f 98 115 117 
f 115 111 117 
f 107 84 118 
f 108 90 118 
f 104 92 119 
f 95 106 119 
f 90 101 120 
f 101 106 120 
f 106 95 120 
f 84 94 121 
f 94 108 121 
f 118 84 121 
f 108 118 121 
f 87 88 122 
f 97 87 122 
f 88 97 122 
f 103 99 123 
f 105 113 123 
f 87 97 124 
f 97 91 124 
f 91 111 124 
f 115 87 124 
f 111 115 124 
f 89 101 125 
f 101 100 125 
f 95 107 126 
f 107 118 126 
f 118 90 126 
f 90 120 126 
f 120 95 126 
f 89 99 127 
f 106 89 127 
f 104 119 127 
f 119 106 127 
f 98 93 128 
f 93 105 128 
f 115 98 128 
f 110 102 129 
f 116 98 129 
f 102 116 129 
f 117 91 129 
f 98 117 129 
f 86 85 130 
f 110 86 130 
f 102 110 130 
f 116 102 130 
f 113 116 130 
f 99 89 131 
f 123 99 131 
f 105 123 131 
f 89 125 131 
f 100 115 132 
f 115 128 132 
f 91 97 133 
f 97 110 133 
f 129 91 133 
f 110 129 133 
f 99 103 134 
f 112 99 134 
f 103 114 134 
f 114 112 134 
f 85 114 135 
f 114 103 135 
f 103 123 135 
f 123 113 135 
f 130 85 135 
f 113 130 135 
f 125 100 136 
f 128 105 136 
f 105 131 136 
f 131 125 136 
f 100 132 136 
f 132 128 136 
f 107 95 137 
f 92 109 137 
f 109 107 137 
f 119 92 137 
f 95 119 137 
f 92 104 138 
f 112 92 138 
f 99 112 138 
f 127 99 138 
o convex_3
v -0.032845 -0.021529 0.056081
v -0.014162 -0.012186 0.056747
v -0.014162 -0.012186 0.052742
v -0.014162 -0.025533 0.052742
v -0.033511 -0.026200 0.064088
v -0.014162 -0.021529 0.061418
v -0.028174 -0.016191 0.062084
v -0.026171 -0.015523 0.052742
v -0.036182 -0.026868 0.061418
v -0.026837 -0.022863 0.052742
v -0.014162 -0.015523 0.061418
v -0.014831 -0.025533 0.058748
v -0.035513 -0.021529 0.062752
v -0.024841 -0.019527 0.064088
v -0.028840 -0.015523 0.056747
v -0.019502 -0.023531 0.062752
v -0.020836 -0.012854 0.057416
v -0.035513 -0.022863 0.064088
v -0.032177 -0.018193 0.056747
v -0.030842 -0.022196 0.054077
v -0.022839 -0.013521 0.053410
v -0.014831 -0.012854 0.058748
v -0.020170 -0.021529 0.063420
v -0.033511 -0.026868 0.063420
v -0.027505 -0.014857 0.060083
v -0.028174 -0.017525 0.063420
v -0.036182 -0.023531 0.060749
v -0.019502 -0.024863 0.062084
f 162 150 166 
f 141 140 142 
f 142 140 144 
f 141 142 146 
f 146 142 148 
f 142 147 148 
f 144 140 149 
f 142 144 150 
f 140 141 155 
f 147 143 156 
f 145 151 156 
f 143 152 156 
f 153 146 157 
f 151 153 157 
f 147 139 158 
f 146 148 158 
f 148 147 158 
f 139 157 158 
f 157 146 158 
f 141 146 159 
f 146 153 159 
f 155 141 159 
f 149 140 160 
f 140 155 160 
f 144 149 161 
f 152 143 161 
f 149 152 161 
f 143 154 161 
f 154 144 161 
f 147 142 162 
f 143 147 162 
f 142 150 162 
f 151 145 163 
f 153 151 163 
f 159 153 163 
f 155 159 163 
f 145 160 163 
f 160 155 163 
f 152 149 164 
f 145 156 164 
f 156 152 164 
f 149 160 164 
f 160 145 164 
f 139 147 165 
f 147 156 165 
f 156 151 165 
f 157 139 165 
f 151 157 165 
f 150 144 166 
f 154 143 166 
f 144 154 166 
f 143 162 166 
o convex_4
v 0.003191 0.033196 -0.027341
v -0.038853 -0.004841 -0.022677
v -0.034845 -0.007509 -0.033350
v -0.002151 -0.028865 -0.010659
v 0.002520 -0.029535 -0.038020
v 0.003191 0.032526 -0.010659
v -0.020831 0.029187 -0.038689
v -0.032845 0.011835 -0.010659
v -0.030174 -0.018184 -0.010659
v 0.003191 0.031856 -0.036683
v -0.025507 -0.017520 -0.038689
v 0.003191 -0.022193 -0.010659
v -0.033511 0.010501 -0.038689
v -0.012826 0.028517 -0.010659
v -0.011493 -0.028194 -0.020671
v -0.030840 -0.016856 -0.031344
v -0.036849 -0.004177 -0.010659
v -0.000813 -0.030205 -0.038020
v 0.003191 -0.020188 -0.038020
v -0.035516 -0.000832 -0.038689
v -0.037516 0.004493 -0.022677
v -0.020831 -0.024198 -0.010659
v -0.022836 0.021845 -0.010659
v -0.034178 -0.014851 -0.015334
v -0.010160 0.031856 -0.035350
v -0.010822 -0.021523 -0.038689
v -0.017498 0.029187 -0.038689
v -0.038182 0.001167 -0.029341
v 0.000520 0.032526 -0.010659
v -0.030840 0.015174 -0.038689
v 0.001187 -0.028865 -0.019337
v -0.001480 0.033196 -0.036017
v -0.036849 0.000496 -0.010659
v -0.016831 -0.025532 -0.022677
v -0.022836 -0.019524 -0.038689
v -0.004822 -0.028865 -0.010659
v -0.030840 -0.017520 -0.027341
v -0.022169 0.027853 -0.038020
v -0.031511 -0.009508 -0.038689
v -0.038853 -0.001502 -0.019340
v -0.033511 0.011171 -0.011995
v -0.001484 -0.030205 -0.031344
v -0.031511 -0.015515 -0.032680
v 0.003191 -0.026196 -0.038020
v -0.036849 0.005827 -0.018668
v -0.032178 -0.016856 -0.011328
v -0.020831 0.029187 -0.038020
v -0.035516 -0.012183 -0.020007
v -0.038853 -0.004841 -0.020007
v -0.035516 0.003159 -0.038689
v -0.000146 -0.029535 -0.018001
v -0.022169 -0.023527 -0.011995
v -0.002817 -0.029535 -0.037353
v 0.003191 0.033196 -0.036017
v -0.012826 0.031186 -0.034014
v 0.001854 -0.030205 -0.036683
f 217 208 222 
f 170 172 174 
f 170 174 175 
f 167 172 176 
f 172 170 178 
f 176 172 178 
f 173 177 179 
f 174 172 180 
f 175 174 183 
f 176 178 185 
f 169 168 186 
f 179 177 186 
f 170 175 188 
f 174 180 189 
f 177 173 192 
f 171 184 192 
f 185 192 193 
f 176 185 193 
f 192 173 193 
f 186 168 194 
f 187 179 194 
f 172 167 195 
f 180 172 195 
f 173 179 196 
f 179 187 196 
f 178 170 197 
f 171 178 197 
f 173 191 198 
f 193 173 198 
f 195 167 198 
f 191 195 198 
f 183 174 199 
f 182 177 201 
f 177 192 201 
f 192 184 201 
f 200 182 201 
f 170 188 202 
f 188 181 202 
f 190 182 203 
f 182 200 203 
f 174 189 204 
f 173 196 204 
f 186 177 205 
f 194 168 206 
f 187 194 206 
f 183 199 206 
f 199 174 207 
f 174 204 207 
f 204 196 207 
f 181 184 208 
f 202 181 208 
f 168 169 209 
f 177 182 209 
f 169 186 209 
f 205 177 209 
f 186 205 209 
f 178 171 210 
f 185 178 210 
f 171 192 210 
f 192 185 210 
f 196 187 211 
f 187 206 211 
f 206 199 211 
f 207 196 211 
f 199 207 211 
f 175 183 212 
f 183 190 212 
f 190 203 212 
f 189 180 213 
f 191 173 213 
f 173 204 213 
f 204 189 213 
f 182 190 214 
f 168 209 214 
f 209 182 214 
f 190 183 215 
f 206 168 215 
f 183 206 215 
f 168 214 215 
f 214 190 215 
f 179 186 216 
f 186 194 216 
f 194 179 216 
f 197 170 217 
f 170 202 217 
f 202 208 217 
f 188 175 218 
f 181 188 218 
f 200 181 218 
f 203 200 218 
f 175 212 218 
f 212 203 218 
f 184 181 219 
f 181 200 219 
f 201 184 219 
f 200 201 219 
f 167 176 220 
f 176 193 220 
f 198 167 220 
f 193 198 220 
f 180 195 221 
f 195 191 221 
f 213 180 221 
f 191 213 221 
f 184 171 222 
f 171 197 222 
f 208 184 222 
f 197 217 222 
o convex_5
v 0.029884 0.019175 -0.038689
v 0.003192 -0.025528 -0.038020
v 0.003192 -0.025528 -0.035350
v 0.003192 0.033185 -0.024010
v 0.035225 -0.004841 -0.010659
v 0.003192 -0.021525 -0.010659
v 0.018544 0.030522 -0.010659
v 0.003192 0.033185 -0.036686
v 0.029218 -0.008177 -0.038689
v 0.023878 -0.020191 -0.010659
v 0.003192 0.032523 -0.010659
v 0.019210 0.031856 -0.038689
v 0.030551 0.019842 -0.011995
v 0.036561 0.002503 -0.019340
v 0.011201 -0.027535 -0.011328
v 0.008532 -0.024194 -0.038689
v 0.022545 -0.020858 -0.019340
v 0.013873 0.033864 -0.027341
v 0.022545 0.030522 -0.020007
v 0.031887 0.009168 -0.038689
v 0.027216 0.025852 -0.033350
v 0.033889 0.013838 -0.022677
v 0.035225 0.005159 -0.010659
v 0.014539 0.030522 -0.038689
v 0.023878 -0.013514 -0.038689
v 0.031887 -0.007504 -0.027341
v 0.030551 -0.005502 -0.038689
v 0.036561 -0.000833 -0.018668
v 0.032556 -0.009511 -0.011328
v 0.009868 0.033864 -0.020007
v 0.011201 -0.027535 -0.014665
v 0.009199 -0.026862 -0.010659
v 0.034555 0.009835 -0.026671
v 0.029884 0.020509 -0.010659
v 0.022545 0.029849 -0.038689
v 0.036561 0.003164 -0.013998
v 0.032556 0.017174 -0.017335
v 0.027882 -0.014181 -0.022007
v 0.003192 -0.018190 -0.038020
v 0.017877 0.031856 -0.015334
v 0.005197 0.033185 -0.011995
v 0.027882 0.024512 -0.036686
v 0.013873 0.033864 -0.030680
v 0.006530 0.033864 -0.026008
v 0.021212 0.029188 -0.011328
v 0.021879 -0.020858 -0.021338
v 0.031220 0.015172 -0.038689
v 0.025880 -0.018184 -0.011328
v 0.003192 -0.022860 -0.015998
v 0.007200 -0.022193 -0.038689
v 0.035225 -0.004841 -0.013998
v 0.016541 0.033191 -0.030008
v 0.027216 0.025852 -0.030008
f 259 243 275 
f 224 225 226 
f 226 225 228 
f 228 227 229 
f 224 226 230 
f 227 228 232 
f 226 228 233 
f 228 229 233 
f 223 231 234 
f 225 224 237 
f 234 231 238 
f 231 223 242 
f 229 227 245 
f 230 234 246 
f 234 238 246 
f 238 231 247 
f 231 239 247 
f 231 242 249 
f 248 231 249 
f 248 249 250 
f 242 236 250 
f 249 242 250 
f 227 232 251 
f 237 224 253 
f 232 237 253 
f 224 238 253 
f 239 232 253 
f 232 228 254 
f 225 237 254 
f 237 232 254 
f 236 242 255 
f 244 236 255 
f 235 241 256 
f 229 245 256 
f 245 235 256 
f 223 234 257 
f 234 241 257 
f 241 243 257 
f 236 244 258 
f 245 227 258 
f 250 236 258 
f 227 250 258 
f 235 245 259 
f 258 244 259 
f 245 258 259 
f 239 231 260 
f 231 248 260 
f 248 251 260 
f 224 230 261 
f 230 246 261 
f 229 241 262 
f 240 252 262 
f 262 252 263 
f 226 233 263 
f 233 229 263 
f 229 262 263 
f 244 223 264 
f 223 257 264 
f 257 243 264 
f 243 259 264 
f 259 244 264 
f 234 230 265 
f 252 240 265 
f 252 265 266 
f 230 226 266 
f 263 252 266 
f 226 263 266 
f 265 230 266 
f 241 229 267 
f 256 241 267 
f 229 256 267 
f 238 247 268 
f 247 239 268 
f 253 238 268 
f 239 253 268 
f 242 223 269 
f 223 244 269 
f 255 242 269 
f 244 255 269 
f 232 239 270 
f 251 232 270 
f 239 260 270 
f 260 251 270 
f 228 225 271 
f 225 254 271 
f 254 228 271 
f 238 224 272 
f 246 238 272 
f 224 261 272 
f 261 246 272 
f 248 250 273 
f 250 227 273 
f 227 251 273 
f 251 248 273 
f 241 234 274 
f 240 262 274 
f 262 241 274 
f 234 265 274 
f 265 240 274 
f 241 235 275 
f 243 241 275 
f 235 259 275 
o convex_6
v -0.016155 -0.026195 -0.007988
v 0.006524 0.032529 -0.009990
v 0.006524 0.032529 -0.010659
v 0.034557 -0.008843 -0.005983
v -0.020833 0.021845 0.020708
v 0.030554 -0.002835 0.020708
v 0.001185 -0.033542 0.015369
v -0.036843 0.000489 -0.010659
v -0.029506 -0.008177 0.020708
v 0.013868 0.028519 0.020708
v 0.029886 0.019846 -0.010659
v 0.011863 -0.026868 -0.010659
v -0.022830 0.021845 -0.010659
v -0.029506 -0.018854 0.001358
v 0.024539 -0.022192 0.003357
v -0.007481 0.029858 0.019372
v 0.030554 0.009835 0.020039
v -0.034177 0.009162 0.006025
v 0.005195 -0.028200 0.020039
v 0.035225 0.004493 -0.010659
v -0.030175 -0.018188 -0.010659
v -0.037519 -0.003507 -0.001982
v -0.030843 0.007164 0.020708
v 0.020544 0.029185 -0.009990
v -0.012820 0.028519 -0.010659
v 0.008529 -0.032869 0.012697
v -0.004815 -0.028866 -0.010659
v 0.035893 0.003161 0.002022
v -0.014825 -0.027527 0.009357
v 0.024539 -0.020193 -0.009990
v 0.025208 0.018508 0.020708
v -0.030175 0.016509 -0.003318
v -0.017491 0.026514 0.013367
v 0.008529 0.030524 0.020708
v -0.000813 0.032529 -0.005986
v 0.001853 -0.026868 0.020708
v 0.026544 0.023850 -0.003984
v -0.035514 -0.010841 -0.001310
v 0.033220 -0.010848 0.001355
v -0.024835 -0.012853 0.020708
v -0.032841 0.011833 -0.010659
v 0.025876 -0.021519 -0.002648
v 0.034557 -0.006845 -0.010659
v -0.031511 -0.002169 0.020708
v 0.022542 -0.021519 0.009357
v -0.006145 -0.031537 0.008024
v 0.004526 -0.033542 0.010692
v -0.022169 -0.023524 -0.010659
v -0.000152 0.031190 0.019372
v -0.024835 -0.020853 0.008024
v 0.017871 0.030524 -0.010659
v -0.036182 -0.006838 -0.009990
v 0.014536 0.029192 0.017370
v -0.023499 0.022511 0.000023
v 0.029886 -0.004174 0.020708
v 0.035893 -0.001502 0.000689
v -0.016155 0.026514 0.020708
v 0.031215 0.011167 0.013367
v 0.031215 -0.012846 0.004696
v 0.031215 0.006498 0.020708
v -0.006145 -0.030198 0.014696
v -0.029506 0.010501 0.020708
v -0.036182 -0.000836 0.004024
v -0.012820 0.028519 0.006692
f 291 310 339 
f 281 280 284 
f 280 281 285 
f 283 278 286 
f 283 286 287 
f 278 283 288 
f 287 286 295 
f 283 287 296 
f 293 283 297 
f 284 280 298 
f 278 288 300 
f 294 282 301 
f 296 287 302 
f 295 286 303 
f 285 281 306 
f 293 280 307 
f 307 280 308 
f 280 285 309 
f 277 278 310 
f 278 300 310 
f 281 284 311 
f 282 294 311 
f 286 299 312 
f 289 284 313 
f 296 289 313 
f 311 284 315 
f 282 311 315 
f 288 283 316 
f 283 293 316 
f 307 288 316 
f 293 307 316 
f 301 287 317 
f 290 301 317 
f 305 279 317 
f 287 305 317 
f 279 314 317 
f 314 290 317 
f 287 295 318 
f 279 305 318 
f 305 287 318 
f 284 298 319 
f 313 284 319 
f 297 313 319 
f 301 290 320 
f 276 302 321 
f 282 304 321 
f 301 282 322 
f 287 301 322 
f 302 287 322 
f 321 302 322 
f 282 321 322 
f 289 296 323 
f 302 276 323 
f 296 302 323 
f 304 289 323 
f 276 321 323 
f 321 304 323 
f 309 277 324 
f 277 310 324 
f 310 291 324 
f 284 289 325 
f 289 304 325 
f 315 284 325 
f 304 315 325 
f 278 277 326 
f 286 278 326 
f 299 286 326 
f 277 309 326 
f 283 296 327 
f 297 283 327 
f 296 313 327 
f 313 297 327 
f 285 306 328 
f 309 285 328 
f 312 299 328 
f 306 312 328 
f 299 326 328 
f 326 309 328 
f 300 288 329 
f 288 307 329 
f 308 300 329 
f 307 308 329 
f 294 301 330 
f 281 311 330 
f 311 294 330 
f 301 320 330 
f 303 281 331 
f 295 303 331 
f 314 279 331 
f 281 314 331 
f 318 295 331 
f 279 318 331 
f 308 280 332 
f 291 308 332 
f 280 309 332 
f 309 324 332 
f 324 291 332 
f 292 303 333 
f 303 286 333 
f 306 292 333 
f 286 312 333 
f 312 306 333 
f 290 314 334 
f 314 281 334 
f 320 290 334 
f 281 330 334 
f 330 320 334 
f 281 303 335 
f 303 292 335 
f 306 281 335 
f 292 306 335 
f 304 282 336 
f 282 315 336 
f 315 304 336 
f 280 293 337 
f 298 280 337 
f 293 298 337 
f 293 297 338 
f 298 293 338 
f 319 298 338 
f 297 319 338 
f 308 291 339 
f 300 308 339 
f 310 300 339 
o convex_7
v -0.012825 -0.018858 0.020708
v 0.007194 0.030527 0.021376
v 0.007194 0.030527 0.020708
v 0.030547 -0.002166 0.020708
v 0.003858 -0.024199 0.032721
v -0.030170 0.005826 0.032721
v 0.024545 0.012506 0.032721
v -0.030170 0.008499 0.020708
v -0.003481 0.025850 0.032721
v -0.016160 0.026515 0.021376
v -0.028834 -0.005509 0.032721
v 0.028549 0.000502 0.032721
v 0.029211 0.012506 0.020708
v 0.014533 -0.016185 0.020708
v -0.030845 -0.005509 0.020708
v 0.012534 0.025186 0.029382
v -0.017491 0.020515 0.032721
v -0.016160 -0.015515 0.032052
v -0.025504 -0.012183 0.021376
v -0.024830 0.016508 0.028048
v 0.021872 0.021179 0.021376
v 0.027880 -0.006173 0.021376
v 0.002522 -0.019517 0.020708
v 0.005189 0.025850 0.032721
v 0.030547 0.007835 0.025381
v -0.004812 0.029857 0.020708
v 0.000523 -0.024199 0.032721
v 0.026544 -0.002836 0.032721
v 0.011197 0.029857 0.021376
v 0.005189 0.029857 0.025381
v -0.030845 -0.002171 0.031385
v -0.020164 0.022513 0.020708
v 0.005189 -0.023529 0.032721
v 0.028549 0.007166 0.032052
v -0.010820 0.026515 0.026714
v -0.028172 0.011167 0.030718
v 0.025882 0.017178 0.022044
v -0.030845 0.006496 0.020708
v 0.031222 0.001171 0.021376
v -0.011488 -0.019522 0.020708
v -0.017491 0.023847 0.026714
v 0.003858 -0.024199 0.032052
v -0.026167 0.015169 0.020708
v -0.000140 0.027189 0.031385
v 0.017868 0.018511 0.032721
v -0.026835 -0.007512 0.032721
v 0.016538 -0.012853 0.032721
v -0.025504 0.013171 0.032721
v 0.029885 0.001171 0.029382
v -0.028834 -0.008841 0.020708
v -0.013493 -0.018188 0.024713
v -0.014156 0.023847 0.030050
v 0.013202 0.028523 0.020708
v 0.008530 0.025850 0.031385
v 0.029885 -0.003500 0.022044
v -0.004812 0.029857 0.021376
f 374 383 395 
f 340 342 343 
f 345 344 346 
f 342 340 347 
f 345 346 348 
f 344 345 350 
f 346 344 351 
f 343 342 352 
f 340 343 353 
f 347 340 354 
f 345 348 356 
f 355 346 360 
f 353 343 361 
f 340 353 362 
f 348 346 363 
f 341 342 365 
f 342 347 365 
f 344 350 366 
f 351 344 367 
f 342 341 368 
f 355 360 368 
f 368 341 369 
f 350 345 370 
f 354 350 370 
f 359 349 371 
f 365 347 371 
f 349 365 371 
f 353 361 372 
f 367 344 372 
f 346 351 373 
f 347 345 375 
f 360 346 376 
f 352 360 376 
f 364 352 376 
f 346 373 376 
f 373 364 376 
f 345 347 377 
f 347 354 377 
f 370 345 377 
f 354 370 377 
f 343 352 378 
f 352 364 378 
f 340 362 379 
f 349 359 380 
f 359 356 380 
f 362 353 381 
f 344 366 381 
f 372 344 381 
f 353 372 381 
f 379 362 381 
f 366 379 381 
f 371 347 382 
f 359 371 382 
f 347 375 382 
f 375 359 382 
f 348 363 383 
f 363 369 383 
f 374 348 383 
f 346 355 384 
f 363 346 384 
f 350 358 385 
f 358 357 385 
f 366 350 385 
f 357 366 385 
f 361 367 386 
f 372 361 386 
f 367 372 386 
f 345 356 387 
f 356 359 387 
f 375 345 387 
f 359 375 387 
f 373 351 388 
f 364 373 388 
f 343 378 388 
f 378 364 388 
f 354 340 389 
f 350 354 389 
f 340 358 389 
f 358 350 389 
f 358 340 390 
f 357 358 390 
f 366 357 390 
f 340 379 390 
f 379 366 390 
f 356 348 391 
f 348 374 391 
f 374 349 391 
f 349 380 391 
f 380 356 391 
f 352 342 392 
f 360 352 392 
f 342 368 392 
f 368 360 392 
f 355 368 393 
f 369 363 393 
f 368 369 393 
f 384 355 393 
f 363 384 393 
f 361 343 394 
f 351 367 394 
f 367 361 394 
f 343 388 394 
f 388 351 394 
f 341 365 395 
f 365 349 395 
f 369 341 395 
f 349 374 395 
f 383 369 395 
o convex_8
v 0.006522 -0.040880 0.044733
v 0.017202 -0.010851 0.034058
v 0.018535 -0.016862 0.045401
v -0.018832 -0.010851 0.039394
v 0.003853 -0.035539 0.034058
v -0.014825 -0.010851 0.045401
v -0.018162 -0.013526 0.032721
v -0.009485 -0.034872 0.045401
v 0.017202 -0.033537 0.045401
v 0.015199 -0.010851 0.045401
v 0.017202 -0.010851 0.032721
v 0.007859 -0.034872 0.034725
v 0.005189 -0.028199 0.032721
v -0.018832 -0.010851 0.032721
v 0.006522 -0.040880 0.041394
v 0.014532 -0.030868 0.038728
v -0.008152 -0.036206 0.044733
v 0.001183 -0.035539 0.035391
v 0.019209 -0.021533 0.044733
v 0.017872 -0.031536 0.044064
v -0.014159 -0.019531 0.045401
v 0.001853 -0.040210 0.042063
v 0.002520 -0.040210 0.045401
v 0.008526 -0.040210 0.042063
v 0.017202 -0.011524 0.032721
v -0.004816 -0.034205 0.039394
v -0.018832 -0.012191 0.036727
v -0.000143 -0.026865 0.032721
v 0.013195 -0.033537 0.039394
v 0.005856 -0.035539 0.034058
f 408 420 425 
f 397 399 401 
f 398 401 403 
f 398 403 404 
f 398 397 405 
f 401 398 405 
f 397 401 405 
f 397 398 406 
f 399 397 406 
f 402 406 408 
f 399 406 409 
f 406 402 409 
f 403 402 412 
f 402 400 413 
f 398 404 414 
f 406 398 414 
f 414 404 415 
f 401 399 416 
f 403 401 416 
f 399 403 416 
f 400 410 417 
f 410 396 417 
f 412 413 417 
f 413 400 417 
f 396 404 418 
f 404 403 418 
f 403 412 418 
f 417 396 418 
f 412 417 418 
f 404 396 419 
f 396 410 419 
f 410 407 419 
f 408 406 420 
f 411 407 420 
f 406 414 420 
f 414 415 420 
f 415 411 420 
f 412 402 421 
f 413 412 421 
f 402 413 421 
f 402 403 422 
f 403 399 422 
f 399 409 422 
f 409 402 422 
f 400 402 423 
f 408 400 423 
f 402 408 423 
f 407 411 424 
f 415 404 424 
f 411 415 424 
f 404 419 424 
f 419 407 424 
f 400 408 425 
f 410 400 425 
f 407 410 425 
f 420 407 425 
o convex_9
v 0.005860 -0.041548 0.050072
v 0.019206 -0.010851 0.052742
v 0.027876 -0.012191 0.052742
v 0.014531 -0.010851 0.045401
v -0.027502 -0.017527 0.052742
v -0.009481 -0.035541 0.045401
v -0.014156 -0.010851 0.045401
v 0.017866 -0.032870 0.045401
v -0.003478 -0.039543 0.052742
v 0.033885 -0.019532 0.052742
v 0.029877 -0.016860 0.048071
v -0.011482 -0.010851 0.052742
v 0.015198 -0.036875 0.052742
v -0.026829 -0.022867 0.052075
v -0.019492 -0.020866 0.046069
v 0.007194 -0.040210 0.045401
v 0.021207 -0.017527 0.045401
v 0.003859 -0.041548 0.047405
v 0.031878 -0.013525 0.052075
v -0.023494 -0.014192 0.052742
v -0.005479 -0.038876 0.052742
v -0.022160 -0.020866 0.047405
v 0.031878 -0.018865 0.049405
v -0.009481 -0.036208 0.046737
v 0.015198 -0.035541 0.045401
v 0.028543 -0.019532 0.047405
v -0.027502 -0.017527 0.052075
v 0.006527 -0.041548 0.047405
v 0.029877 -0.014859 0.048738
v -0.026829 -0.022867 0.052742
v -0.021493 -0.022867 0.047405
v 0.033885 -0.019532 0.052075
v -0.004812 -0.038876 0.048071
v 0.002525 -0.040210 0.045401
v 0.015865 -0.036208 0.050739
v -0.015490 -0.019532 0.045401
f 431 440 461 
f 427 428 429 
f 428 427 430 
f 427 429 432 
f 429 431 432 
f 431 429 433 
f 428 430 434 
f 428 434 435 
f 430 427 437 
f 427 432 437 
f 434 426 438 
f 435 434 438 
f 431 433 441 
f 433 429 442 
f 429 436 442 
f 426 434 443 
f 429 428 444 
f 428 435 444 
f 430 437 445 
f 437 432 445 
f 434 430 446 
f 432 440 447 
f 439 431 449 
f 441 433 450 
f 433 442 451 
f 442 436 451 
f 448 433 451 
f 436 448 451 
f 439 430 452 
f 430 445 452 
f 445 432 452 
f 432 447 452 
f 447 439 452 
f 438 426 453 
f 426 443 453 
f 443 441 453 
f 441 450 453 
f 436 429 454 
f 429 444 454 
f 448 436 454 
f 444 448 454 
f 430 439 455 
f 446 430 455 
f 439 449 455 
f 449 446 455 
f 431 439 456 
f 440 431 456 
f 439 447 456 
f 447 440 456 
f 435 438 457 
f 444 435 457 
f 433 448 457 
f 448 444 457 
f 450 433 457 
f 443 434 458 
f 434 446 458 
f 449 431 458 
f 446 449 458 
f 431 441 459 
f 441 443 459 
f 443 458 459 
f 458 431 459 
f 438 453 460 
f 453 450 460 
f 457 438 460 
f 450 457 460 
f 432 431 461 
f 440 432 461 
o convex_10
v 0.019876 -0.024196 0.059419
v -0.014160 -0.026192 0.052744
v -0.010152 -0.034202 0.052744
v 0.000523 -0.019522 0.074766
v -0.000144 0.004494 0.052744
v 0.014536 -0.036876 0.052744
v 0.019876 -0.010855 0.057416
v -0.014160 -0.015530 0.061419
v -0.000810 -0.032867 0.068092
v 0.010531 -0.015530 0.073429
v 0.009195 -0.030867 0.069426
v -0.003479 -0.010190 0.070092
v 0.019876 -0.011521 0.052744
v -0.008150 0.001155 0.052744
v -0.002812 -0.040216 0.057416
v -0.010822 -0.023531 0.066757
v 0.009195 -0.008190 0.068092
v 0.015202 -0.037541 0.057416
v 0.017204 -0.022196 0.066755
v 0.008529 0.001155 0.053413
v -0.008816 -0.036206 0.058082
v -0.008816 -0.012860 0.068092
v -0.014160 -0.012190 0.052744
v 0.018540 -0.030871 0.052744
v 0.002525 -0.012190 0.073429
v -0.005481 -0.020187 0.072761
v -0.003479 -0.039542 0.052744
v 0.008529 -0.038207 0.060753
v 0.009865 -0.026192 0.072095
v 0.019876 -0.014191 0.061419
v -0.002812 0.004494 0.053413
v -0.014160 -0.025527 0.058082
v -0.002143 -0.028862 0.070760
v 0.013200 -0.008855 0.065421
v 0.015872 -0.030871 0.063420
v 0.004524 -0.006185 0.067421
v 0.007859 -0.039542 0.054747
v -0.005481 -0.014195 0.072095
v 0.017871 -0.034206 0.056750
v 0.003188 0.003825 0.053413
v -0.006817 -0.010190 0.068092
v -0.000810 -0.008190 0.069426
v -0.014160 -0.013525 0.060085
v -0.009486 -0.029532 0.064084
v 0.003188 -0.027527 0.072095
v 0.019876 -0.024862 0.052744
v 0.004524 -0.020187 0.074766
v -0.008816 -0.016195 0.069426
v -0.008150 0.001155 0.053413
v 0.015872 -0.014860 0.067423
v -0.005481 -0.037546 0.060085
v 0.000523 -0.016195 0.074766
v -0.014160 -0.020187 0.062090
v 0.010531 -0.019522 0.073429
v 0.004524 -0.036206 0.064084
v -0.008150 -0.037546 0.056082
v 0.019876 -0.022196 0.061419
v 0.012530 -0.038876 0.056748
v 0.009195 0.000490 0.052744
v 0.005860 -0.010190 0.071427
v 0.011864 -0.013525 0.071427
v 0.010531 -0.006855 0.065418
v -0.008150 -0.010855 0.067421
v -0.003479 -0.039542 0.058750
f 517 476 525 
f 464 463 466 
f 464 466 467 
f 467 466 474 
f 468 462 474 
f 466 463 475 
f 463 464 482 
f 463 469 484 
f 475 463 484 
f 467 474 485 
f 464 467 488 
f 479 472 489 
f 462 468 491 
f 466 475 492 
f 469 463 493 
f 463 482 493 
f 465 487 494 
f 487 477 494 
f 468 481 495 
f 491 468 495 
f 472 479 496 
f 490 472 496 
f 480 490 496 
f 488 467 498 
f 476 488 498 
f 486 473 499 
f 479 467 500 
f 467 485 500 
f 496 479 500 
f 466 492 501 
f 497 478 501 
f 492 497 501 
f 499 473 502 
f 473 486 503 
f 486 497 503 
f 497 492 503 
f 492 502 503 
f 502 473 503 
f 469 483 504 
f 484 469 504 
f 477 493 505 
f 493 482 505 
f 494 477 505 
f 470 472 506 
f 472 490 506 
f 494 470 506 
f 465 494 506 
f 474 462 507 
f 485 474 507 
f 462 500 507 
f 500 485 507 
f 465 506 508 
f 506 490 508 
f 483 469 509 
f 477 487 509 
f 499 483 509 
f 487 499 509 
f 475 484 510 
f 492 475 510 
f 502 492 510 
f 484 504 510 
f 471 480 511 
f 480 491 511 
f 491 495 511 
f 470 494 512 
f 505 482 512 
f 494 505 512 
f 471 486 513 
f 487 465 513 
f 486 499 513 
f 499 487 513 
f 465 508 513 
f 508 471 513 
f 469 493 514 
f 493 477 514 
f 509 469 514 
f 477 509 514 
f 480 471 515 
f 490 480 515 
f 471 508 515 
f 508 490 515 
f 472 470 516 
f 489 472 516 
f 482 464 517 
f 464 488 517 
f 488 476 517 
f 462 491 518 
f 491 480 518 
f 480 496 518 
f 500 462 518 
f 496 500 518 
f 467 479 519 
f 489 476 519 
f 479 489 519 
f 498 467 519 
f 476 498 519 
f 474 466 520 
f 468 474 520 
f 481 468 520 
f 466 501 520 
f 501 481 520 
f 486 471 521 
f 478 497 521 
f 497 486 521 
f 495 478 522 
f 471 511 522 
f 511 495 522 
f 521 471 522 
f 478 521 522 
f 478 495 523 
f 495 481 523 
f 481 501 523 
f 501 478 523 
f 483 499 524 
f 499 502 524 
f 504 483 524 
f 502 510 524 
f 510 504 524 
f 476 489 525 
f 470 512 525 
f 512 482 525 
f 516 470 525 
f 489 516 525 
f 482 517 525 
o convex_11
v 0.043897 -0.022196 0.062752
v 0.022550 -0.010851 0.056748
v 0.022550 -0.010851 0.056082
v 0.019876 -0.024866 0.054078
v 0.020547 -0.018190 0.062752
v 0.034557 -0.016858 0.052742
v 0.035223 -0.014855 0.064087
v 0.036558 -0.022862 0.066090
v 0.019876 -0.011519 0.052742
v 0.041896 -0.024866 0.061416
v 0.033889 -0.012855 0.056082
v 0.019876 -0.023530 0.060081
v 0.033889 -0.020192 0.052742
v 0.019876 -0.013521 0.061416
v 0.035223 -0.016858 0.066090
v 0.020547 -0.024198 0.052742
v 0.043232 -0.019527 0.063419
v 0.039895 -0.024866 0.064087
v 0.028556 -0.012186 0.061416
v 0.043232 -0.020192 0.060749
v 0.032554 -0.013521 0.052742
v 0.032554 -0.012186 0.060081
v 0.039895 -0.022196 0.066090
v 0.041896 -0.024198 0.060081
v 0.028556 -0.011519 0.054745
v 0.023216 -0.024198 0.060749
v 0.022550 -0.021528 0.062752
v 0.025219 -0.014189 0.063419
v 0.038559 -0.015525 0.062084
v 0.019876 -0.011519 0.058751
v 0.039895 -0.018190 0.065422
v 0.033889 -0.020192 0.066090
f 552 533 557 
f 527 528 534 
f 534 529 537 
f 534 531 538 
f 537 530 539 
f 534 537 539 
f 529 534 541 
f 535 529 541 
f 534 538 541 
f 535 526 543 
f 529 535 543 
f 542 526 545 
f 531 534 546 
f 545 531 546 
f 536 545 546 
f 527 544 547 
f 544 532 547 
f 540 533 548 
f 526 542 548 
f 543 526 548 
f 533 543 548 
f 526 535 549 
f 538 531 549 
f 535 541 549 
f 541 538 549 
f 545 526 549 
f 531 545 549 
f 528 527 550 
f 534 528 550 
f 546 534 550 
f 536 546 550 
f 527 547 550 
f 547 536 550 
f 537 529 551 
f 543 533 551 
f 529 543 551 
f 530 537 552 
f 551 533 552 
f 537 551 552 
f 539 530 553 
f 540 532 553 
f 530 540 553 
f 532 544 553 
f 545 536 554 
f 542 545 554 
f 536 547 554 
f 547 532 554 
f 527 534 555 
f 534 539 555 
f 544 527 555 
f 539 553 555 
f 553 544 555 
f 532 540 556 
f 540 548 556 
f 548 542 556 
f 554 532 556 
f 542 554 556 
f 533 540 557 
f 540 530 557 
f 530 552 557 
