o convex_0
v -0.023143 -0.046599 0.015834
v 0.021612 -0.049992 0.017191
v 0.021612 -0.052025 0.017191
v 0.002625 -0.043885 -0.009933
v -0.004152 -0.071688 0.007024
v -0.006189 -0.043885 0.035500
v -0.004152 -0.068294 0.025325
v 0.014826 -0.063548 0.004312
v -0.018394 -0.060160 0.003631
v 0.013472 -0.043885 0.030746
v -0.019748 -0.060835 0.019219
v 0.015505 -0.064226 0.019219
v 0.018896 -0.043885 0.002955
v -0.020427 -0.043885 0.002955
v -0.006189 -0.059477 -0.005864
v 0.004658 -0.052025 0.034139
v 0.008728 -0.061515 -0.003151
v -0.013646 -0.047959 0.031431
v 0.005337 -0.071005 0.007705
v -0.011613 -0.050670 -0.005864
v 0.018217 -0.052025 0.000918
v 0.001946 -0.069652 0.023292
v -0.019748 -0.043885 0.023964
v -0.003478 -0.068975 0.000918
v -0.012292 -0.068294 0.007705
v -0.023143 -0.054058 0.009737
v 0.020933 -0.056771 0.009737
v -0.006868 -0.052706 0.033459
v -0.004152 -0.043885 -0.009933
v 0.020933 -0.043885 0.016506
v 0.016863 -0.060835 0.021251
v 0.001263 -0.066261 0.027362
v 0.005337 -0.055413 -0.007220
v -0.018394 -0.054739 0.000242
v -0.010259 -0.064903 -0.000438
v -0.015678 -0.064226 0.020575
v -0.020427 -0.061515 0.011094
v -0.022460 -0.054058 0.018543
v 0.021612 -0.047959 0.007705
v 0.004658 -0.066261 -0.001114
v 0.016863 -0.064226 0.011094
v 0.008728 -0.046599 0.034139
v 0.014151 -0.050670 -0.003151
v -0.004152 -0.069652 0.022612
v 0.016863 -0.047959 0.026677
v -0.017036 -0.045243 -0.001795
v 0.019575 -0.059477 0.017862
v 0.010081 -0.052025 0.031431
v -0.002120 -0.049992 0.035500
v -0.012292 -0.059477 -0.003151
v 0.004658 -0.066261 0.026005
v 0.006011 -0.069652 0.003631
v 0.004658 -0.043885 0.035500
v -0.022460 -0.043885 0.008376
v -0.017036 -0.061515 0.021936
v -0.004836 -0.065581 0.027362
v 0.000588 -0.055413 -0.007896
v 0.013472 -0.043885 -0.003151
v 0.000588 -0.061515 -0.005179
v 0.016863 -0.058802 0.002275
v -0.021106 -0.051345 0.002955
v -0.008222 -0.070330 0.011094
v 0.008049 -0.069652 0.011774
v -0.012292 -0.067614 0.004992
f 25 37 64 
f 4 6 10 
f 4 10 13 
f 6 4 14 
f 5 19 22 
f 6 14 23 
f 18 6 23 
f 6 18 28 
f 14 4 29 
f 15 20 29 
f 13 10 30 
f 7 22 32 
f 15 24 35 
f 26 9 37 
f 36 11 37 
f 25 36 37 
f 11 18 38 
f 23 1 38 
f 18 23 38 
f 1 26 38 
f 37 11 38 
f 26 37 38 
f 2 3 39 
f 21 13 39 
f 3 27 39 
f 27 21 39 
f 30 2 39 
f 13 30 39 
f 8 27 41 
f 17 33 43 
f 33 4 43 
f 5 22 44 
f 22 7 44 
f 7 36 44 
f 3 2 45 
f 2 30 45 
f 30 10 45 
f 10 42 45 
f 14 29 46 
f 29 20 46 
f 20 34 46 
f 27 3 47 
f 31 12 47 
f 12 41 47 
f 41 27 47 
f 3 45 47 
f 45 31 47 
f 42 16 48 
f 31 45 48 
f 45 42 48 
f 6 28 49 
f 32 16 49 
f 20 15 50 
f 9 34 50 
f 34 20 50 
f 15 35 50 
f 35 9 50 
f 22 12 51 
f 12 31 51 
f 32 22 51 
f 16 32 51 
f 48 16 51 
f 31 48 51 
f 17 8 52 
f 19 5 52 
f 5 24 52 
f 40 17 52 
f 24 40 52 
f 41 19 52 
f 8 41 52 
f 10 6 53 
f 42 10 53 
f 16 42 53 
f 6 49 53 
f 49 16 53 
f 1 23 54 
f 23 14 54 
f 26 1 54 
f 18 11 55 
f 28 18 55 
f 11 36 55 
f 55 36 56 
f 7 32 56 
f 36 7 56 
f 49 28 56 
f 32 49 56 
f 28 55 56 
f 29 4 57 
f 15 29 57 
f 4 33 57 
f 4 13 58 
f 13 21 58 
f 43 4 58 
f 21 43 58 
f 24 15 59 
f 33 17 59 
f 17 40 59 
f 40 24 59 
f 15 57 59 
f 57 33 59 
f 8 17 60 
f 27 8 60 
f 21 27 60 
f 43 21 60 
f 17 43 60 
f 9 26 61 
f 34 9 61 
f 14 46 61 
f 46 34 61 
f 54 14 61 
f 26 54 61 
f 25 5 62 
f 36 25 62 
f 5 44 62 
f 44 36 62 
f 12 22 63 
f 22 19 63 
f 41 12 63 
f 19 41 63 
f 24 5 64 
f 5 25 64 
f 35 24 64 
f 9 35 64 
f 37 9 64 
o convex_1
v -0.014327 -0.033036 0.020574
v 0.021612 -0.028967 -0.007217
v 0.016862 -0.028967 0.005655
v -0.021107 -0.028967 -0.013319
v 0.011437 -0.033036 -0.024847
v 0.012117 -0.033036 0.022615
v -0.004149 -0.028967 0.021935
v -0.012293 -0.033036 -0.024847
v 0.008727 -0.028967 -0.026208
v -0.012293 -0.028967 -0.024847
v 0.003974 -0.031679 0.028036
v -0.017038 -0.028967 0.005655
v 0.018217 -0.031679 -0.009253
v -0.006868 -0.033036 0.028717
v -0.021787 -0.029645 -0.007217
v 0.019577 -0.029645 -0.016710
v 0.004657 -0.029645 0.023290
v -0.010937 -0.031001 0.023290
v -0.015003 -0.033036 -0.009253
v 0.014827 -0.033036 -0.009928
v 0.003974 -0.033036 -0.026208
v 0.008727 -0.031001 0.023971
v 0.020932 -0.030324 -0.009253
v -0.004149 -0.031001 0.027362
v 0.004657 -0.033036 0.028717
v -0.013648 -0.032357 0.022615
v 0.013472 -0.033036 0.017183
v 0.004657 -0.028967 0.020574
v -0.021787 -0.029645 -0.011289
v 0.011437 -0.028967 -0.024847
v -0.015003 -0.033036 0.017869
v -0.019073 -0.029645 -0.017390
v -0.008223 -0.029645 0.021935
v 0.012117 -0.032357 0.022615
v -0.021787 -0.028967 -0.007217
f 93 79 99 
f 67 66 68 
f 65 69 70 
f 67 68 71 
f 69 65 72 
f 68 66 73 
f 68 73 74 
f 71 68 76 
f 65 70 78 
f 72 65 83 
f 70 69 84 
f 69 77 84 
f 69 72 85 
f 73 69 85 
f 74 73 85 
f 72 74 85 
f 81 75 86 
f 77 69 87 
f 69 80 87 
f 80 66 87 
f 78 75 88 
f 81 71 88 
f 75 81 88 
f 82 78 88 
f 78 70 89 
f 75 78 89 
f 86 75 89 
f 65 78 90 
f 82 76 90 
f 78 82 90 
f 66 70 91 
f 70 84 91 
f 84 77 91 
f 87 66 91 
f 77 87 91 
f 67 71 92 
f 71 81 92 
f 86 67 92 
f 81 86 92 
f 72 83 93 
f 83 79 93 
f 69 73 94 
f 73 66 94 
f 80 69 94 
f 66 80 94 
f 65 79 95 
f 83 65 95 
f 79 83 95 
f 68 74 96 
f 74 72 96 
f 93 68 96 
f 72 93 96 
f 71 76 97 
f 76 82 97 
f 88 71 97 
f 82 88 97 
f 66 67 98 
f 70 66 98 
f 67 86 98 
f 89 70 98 
f 86 89 98 
f 76 68 99 
f 79 65 99 
f 65 90 99 
f 90 76 99 
f 68 93 99 
o convex_2
v -0.036023 0.014429 0.013793
v -0.009578 -0.003199 -0.025530
v -0.016360 -0.003199 -0.024847
v 0.001269 -0.003199 0.034819
v 0.039237 0.019857 -0.016711
v 0.037204 -0.003199 -0.022811
v 0.025681 0.019857 0.024647
v -0.032632 0.019857 -0.019423
v -0.040089 -0.003199 -0.002468
v 0.032455 -0.003199 0.017864
v -0.004829 0.019857 0.034819
v 0.010076 0.019857 -0.024847
v -0.025850 -0.001843 0.024647
v 0.039237 0.013075 0.006333
v -0.040089 0.019857 -0.003144
v 0.010759 0.009683 0.036178
v -0.038056 0.000193 -0.015352
v 0.043311 0.008329 -0.019423
v -0.026533 0.019857 0.023971
v -0.010253 0.006298 0.036178
v 0.039920 -0.003199 -0.002474
v -0.010253 0.019857 -0.024847
v 0.026356 0.000870 -0.025523
v 0.028389 0.019857 -0.023488
v 0.039920 0.019857 -0.001797
v -0.031274 -0.003199 0.018541
v 0.027031 -0.002520 0.023971
v -0.040089 0.013752 -0.013316
v -0.025175 -0.003199 -0.022811
v 0.031780 0.018500 0.019223
v -0.027883 0.008329 0.024647
v -0.038056 0.003583 0.009728
v -0.030599 0.012393 -0.021458
v 0.036529 0.004939 0.013793
v 0.027706 0.010360 0.024647
v 0.003977 0.019857 0.034819
v 0.006693 -0.000486 0.035490
v 0.043311 0.013752 -0.018064
v -0.007546 0.017821 0.035490
v -0.005513 -0.001163 0.035490
v -0.037381 0.019857 0.008369
v -0.034665 0.004939 -0.019423
v -0.038731 -0.003199 -0.011957
v 0.001269 0.011037 -0.025530
v -0.031949 0.006975 0.020576
v -0.040772 0.003583 -0.010610
v -0.020426 0.019857 -0.023494
v 0.026356 -0.003199 -0.025523
v -0.039414 0.012393 0.004986
v 0.038562 0.002906 0.008375
v -0.010936 0.012393 0.035490
v -0.037381 0.019857 -0.015352
v 0.041953 0.004262 -0.020776
v 0.032455 0.006298 0.019900
v -0.040772 0.016465 -0.004503
v 0.037879 0.019857 0.006333
v -0.036698 0.013075 -0.018064
v 0.036529 -0.002520 -0.023494
v 0.010759 0.015108 0.034819
v 0.002619 0.016465 0.036178
v 0.036529 0.013752 0.013116
v -0.013644 -0.003199 0.030072
v -0.023817 0.008329 -0.023494
v -0.000080 -0.000486 0.036178
f 119 139 163 
f 102 101 103 
f 103 101 105 
f 106 104 107 
f 102 103 108 
f 103 105 109 
f 106 107 110 
f 107 104 111 
f 110 107 114 
f 110 114 118 
f 109 105 120 
f 101 102 121 
f 107 111 121 
f 111 104 123 
f 122 111 123 
f 104 106 124 
f 108 103 125 
f 103 109 126 
f 102 108 128 
f 112 119 130 
f 108 125 131 
f 106 115 134 
f 115 126 134 
f 129 106 134 
f 106 110 135 
f 103 126 136 
f 126 115 136 
f 123 104 137 
f 117 123 137 
f 104 124 137 
f 124 113 137 
f 110 118 138 
f 119 112 139 
f 100 118 140 
f 118 114 140 
f 128 116 141 
f 132 128 141 
f 128 108 142 
f 116 128 142 
f 101 121 143 
f 121 111 143 
f 111 122 143 
f 118 100 144 
f 125 112 144 
f 130 118 144 
f 112 130 144 
f 131 125 144 
f 100 131 144 
f 127 116 145 
f 142 108 145 
f 116 142 145 
f 107 121 146 
f 132 107 146 
f 105 101 147 
f 101 143 147 
f 143 122 147 
f 131 100 148 
f 108 131 148 
f 100 140 148 
f 140 114 148 
f 109 120 149 
f 120 117 149 
f 133 109 149 
f 113 133 149 
f 137 113 149 
f 117 137 149 
f 118 130 150 
f 130 119 150 
f 138 118 150 
f 119 138 150 
f 114 107 151 
f 127 114 151 
f 120 105 152 
f 117 120 152 
f 123 117 152 
f 126 109 153 
f 109 133 153 
f 129 134 153 
f 134 126 153 
f 114 127 154 
f 145 108 154 
f 127 145 154 
f 108 148 154 
f 148 114 154 
f 124 106 155 
f 113 124 155 
f 106 129 155 
f 116 127 156 
f 107 132 156 
f 141 116 156 
f 132 141 156 
f 151 107 156 
f 127 151 156 
f 122 123 157 
f 105 147 157 
f 147 122 157 
f 152 105 157 
f 123 152 157 
f 115 106 158 
f 106 135 158 
f 158 135 159 
f 119 115 159 
f 135 110 159 
f 110 138 159 
f 138 119 159 
f 115 158 159 
f 133 113 160 
f 153 133 160 
f 129 153 160 
f 113 155 160 
f 155 129 160 
f 125 103 161 
f 112 125 161 
f 103 139 161 
f 139 112 161 
f 121 102 162 
f 102 128 162 
f 128 132 162 
f 146 121 162 
f 132 146 162 
f 115 119 163 
f 103 136 163 
f 136 115 163 
f 139 103 163 
o convex_3
v 0.006013 -0.037783 -0.016037
v 0.001267 -0.038460 -0.026208
v -0.003477 -0.043207 -0.024849
v -0.011615 -0.033036 -0.018070
v 0.011440 -0.033036 -0.024849
v -0.012294 -0.033036 -0.024849
v -0.006867 -0.041171 -0.017394
v 0.006013 -0.042527 -0.024172
v 0.007370 -0.033036 -0.015358
v 0.006689 -0.041171 -0.018070
v -0.010259 -0.039815 -0.024172
v -0.006191 -0.033716 -0.015358
v -0.000090 -0.041849 -0.016716
v 0.010083 -0.037783 -0.020105
v 0.006013 -0.033036 -0.026208
v 0.000586 -0.043207 -0.019427
v 0.009405 -0.039138 -0.024849
v 0.010083 -0.033716 -0.017394
v -0.010937 -0.037783 -0.019427
v -0.005512 -0.039815 -0.016037
v -0.006867 -0.042527 -0.021460
v -0.007543 -0.041849 -0.024849
v -0.009578 -0.036428 -0.016716
v 0.001945 -0.040493 -0.016037
f 183 176 187 
f 167 168 169 
f 166 165 171 
f 168 167 172 
f 172 167 175 
f 165 169 178 
f 169 168 178 
f 166 171 179 
f 171 173 179 
f 176 170 179 
f 173 176 179 
f 171 165 180 
f 173 171 180 
f 168 177 180 
f 177 173 180 
f 165 178 180 
f 178 168 180 
f 172 164 181 
f 168 172 181 
f 164 173 181 
f 177 168 181 
f 173 177 181 
f 167 169 182 
f 169 174 182 
f 170 176 183 
f 166 179 184 
f 179 170 184 
f 170 182 184 
f 182 174 184 
f 165 166 185 
f 169 165 185 
f 174 169 185 
f 166 184 185 
f 184 174 185 
f 175 167 186 
f 167 182 186 
f 182 170 186 
f 170 183 186 
f 183 175 186 
f 164 172 187 
f 173 164 187 
f 172 175 187 
f 176 173 187 
f 175 183 187 
o convex_4
v -0.021106 -0.043885 0.020575
v 0.020934 -0.043206 0.015831
v 0.019574 -0.039816 0.017185
v -0.006866 -0.033037 -0.015358
v -0.004836 -0.033037 0.030074
v -0.004156 -0.043885 -0.009932
v 0.011439 -0.033037 -0.013317
v 0.004655 -0.043885 0.035500
v 0.012119 -0.033037 0.023970
v -0.015681 -0.033037 0.019216
v -0.021781 -0.043206 0.006342
v 0.018219 -0.043885 0.002280
v -0.012971 -0.042527 0.032100
v -0.011611 -0.033037 -0.012645
v 0.014154 -0.043885 0.030069
v 0.003300 -0.043885 -0.009932
v 0.007369 -0.035750 0.031423
v -0.019751 -0.037106 0.011759
v -0.019751 -0.043885 0.002275
v -0.015681 -0.036427 0.026007
v 0.014154 -0.033037 0.011764
v -0.003480 -0.039816 0.034818
v 0.008725 -0.033715 -0.015358
v 0.019574 -0.039816 0.009056
v -0.008221 -0.043885 0.034818
v 0.015509 -0.039138 0.026679
v -0.010256 -0.035750 0.030751
v -0.021106 -0.039816 0.016508
v 0.012794 -0.033037 -0.010604
v 0.020934 -0.043885 0.009056
v -0.013646 -0.043885 -0.003828
v 0.017539 -0.036427 0.017862
v -0.010256 -0.033715 -0.013999
v 0.012119 -0.043885 -0.003828
v 0.003300 -0.033037 0.030074
v 0.010080 -0.039138 0.032100
v -0.012971 -0.033037 -0.007895
v 0.001944 -0.035750 0.032782
v -0.017036 -0.043885 0.028033
v 0.018899 -0.043885 0.022611
v -0.013646 -0.033037 0.023966
v 0.018219 -0.037106 0.012441
v -0.021106 -0.039816 0.009056
v -0.019071 -0.039816 0.023288
v -0.022465 -0.043885 0.015826
v 0.004655 -0.040494 0.034818
v -0.015681 -0.033037 0.011759
v 0.011439 -0.035750 0.028715
v 0.010080 -0.033715 -0.014676
v -0.002801 -0.043206 -0.010609
v -0.019071 -0.036427 0.017862
v -0.006866 -0.033715 -0.015358
v -0.015001 -0.039816 0.029392
v -0.006186 -0.036427 0.032782
v -0.006186 -0.043885 -0.009255
v -0.008901 -0.041172 0.034136
v 0.016184 -0.037106 0.023288
v 0.014829 -0.033715 0.019221
f 244 219 245 
f 191 192 194 
f 188 193 195 
f 194 192 196 
f 192 191 197 
f 195 193 199 
f 197 191 201 
f 195 199 202 
f 199 193 203 
f 193 188 206 
f 198 201 206 
f 194 196 208 
f 191 194 210 
f 190 189 211 
f 188 195 212 
f 195 209 212 
f 199 194 216 
f 194 208 216 
f 216 211 217 
f 202 199 217 
f 211 189 217 
f 199 216 217 
f 193 206 218 
f 201 191 220 
f 206 201 220 
f 218 206 220 
f 199 203 221 
f 196 192 222 
f 195 202 223 
f 202 213 223 
f 197 201 224 
f 222 192 225 
f 204 222 225 
f 188 212 226 
f 212 200 226 
f 189 190 227 
f 213 202 227 
f 217 189 227 
f 202 217 227 
f 192 197 228 
f 197 207 228 
f 214 192 228 
f 207 214 228 
f 190 211 229 
f 216 208 229 
f 211 216 229 
f 208 219 229 
f 219 190 229 
f 201 198 230 
f 215 205 230 
f 224 201 230 
f 205 224 230 
f 215 188 231 
f 188 226 231 
f 206 188 232 
f 198 206 232 
f 188 215 232 
f 230 198 232 
f 215 230 232 
f 209 195 233 
f 195 223 233 
f 223 204 233 
f 204 225 233 
f 225 209 233 
f 205 197 234 
f 197 224 234 
f 224 205 234 
f 196 222 235 
f 222 204 235 
f 204 223 235 
f 223 213 235 
f 194 199 236 
f 210 194 236 
f 203 210 236 
f 199 221 236 
f 221 203 236 
f 203 193 237 
f 210 203 237 
f 197 205 238 
f 207 197 238 
f 205 215 238 
f 231 207 238 
f 215 231 238 
f 191 210 239 
f 220 191 239 
f 237 193 239 
f 210 237 239 
f 214 207 240 
f 200 214 240 
f 226 200 240 
f 207 231 240 
f 231 226 240 
f 192 214 241 
f 209 225 241 
f 225 192 241 
f 193 218 242 
f 218 220 242 
f 220 239 242 
f 239 193 242 
f 200 212 243 
f 212 209 243 
f 214 200 243 
f 209 241 243 
f 241 214 243 
f 190 219 244 
f 227 190 244 
f 213 227 244 
f 196 235 244 
f 235 213 244 
f 208 196 245 
f 219 208 245 
f 196 244 245 
o convex_5
v -0.043481 0.036808 -0.028240
v -0.015687 0.049693 -0.005186
v -0.015687 0.019857 -0.005186
v -0.043481 0.031387 -0.005867
v -0.015687 0.019857 -0.023493
v -0.043481 0.021892 -0.018746
v -0.027215 0.040199 -0.028240
v -0.042804 0.044945 -0.014003
v -0.039413 0.019857 -0.005186
v -0.031954 0.026638 -0.028918
v -0.015687 0.041554 -0.018746
v -0.031283 0.045622 -0.022815
v -0.047555 0.031387 -0.014683
v -0.042804 0.040199 -0.007222
v -0.042804 0.025283 -0.026204
v -0.021109 0.034098 -0.027562
v -0.044838 0.042234 -0.022815
v -0.028569 0.032065 -0.030276
v -0.015687 0.049013 -0.010611
v -0.041447 0.045622 -0.019426
v -0.040770 0.036808 -0.005186
v -0.046872 0.030707 -0.022137
v -0.041447 0.042234 -0.026204
v -0.025858 0.019857 -0.022137
v -0.042804 0.030707 -0.028918
v -0.046195 0.038843 -0.012647
v -0.045515 0.025961 -0.011970
v -0.031283 0.036130 -0.030276
v -0.018398 0.036808 -0.024851
v -0.027892 0.043589 -0.025529
v -0.042804 0.043589 -0.010611
v -0.037379 0.019857 -0.014683
v -0.047555 0.034775 -0.019426
v -0.017041 0.049693 -0.005186
v -0.045515 0.024606 -0.020104
v -0.042127 0.021892 -0.021459
v -0.031954 0.023248 -0.026204
v -0.044838 0.030707 -0.007222
v -0.016364 0.049693 -0.008578
v -0.020432 0.039521 -0.024851
v -0.044838 0.038163 -0.007900
v -0.015687 0.026641 -0.023493
v -0.044838 0.036808 -0.026885
v -0.045515 0.027996 -0.024851
v -0.040093 0.038163 -0.028918
v -0.031954 0.040876 -0.028240
v -0.040770 0.032065 -0.029596
v -0.044838 0.042912 -0.014003
v -0.045515 0.024606 -0.014683
v -0.028569 0.028674 -0.029596
v -0.015687 0.047658 -0.012647
v -0.041447 0.044267 -0.023493
v -0.031954 0.046303 -0.020779
v -0.027215 0.036808 -0.029596
v -0.047555 0.030029 -0.018070
v -0.042127 0.023248 -0.024173
v -0.046195 0.040199 -0.017392
v -0.031954 0.030707 -0.030276
v -0.040093 0.028674 -0.028918
f 292 303 304 
f 247 248 250 
f 248 247 254 
f 250 248 254 
f 247 250 256 
f 261 250 263 
f 247 256 264 
f 262 253 265 
f 254 247 266 
f 249 254 266 
f 250 254 269 
f 257 264 275 
f 268 257 275 
f 254 251 277 
f 269 254 277 
f 258 271 278 
f 265 253 279 
f 266 247 279 
f 259 266 279 
f 253 276 279 
f 276 259 279 
f 277 251 281 
f 269 277 281 
f 251 280 281 
f 255 250 282 
f 260 255 282 
f 250 269 282 
f 254 249 283 
f 272 254 283 
f 258 272 283 
f 247 264 284 
f 264 257 284 
f 279 247 284 
f 265 279 284 
f 261 252 285 
f 256 274 285 
f 274 261 285 
f 252 275 285 
f 249 266 286 
f 266 259 286 
f 271 258 286 
f 259 276 286 
f 283 249 286 
f 258 283 286 
f 256 250 287 
f 250 261 287 
f 274 256 287 
f 261 274 287 
f 268 246 288 
f 262 268 288 
f 246 270 288 
f 278 262 288 
f 267 278 288 
f 270 260 289 
f 260 280 289 
f 288 270 289 
f 267 288 289 
f 246 268 290 
f 273 290 291 
f 252 273 291 
f 275 252 291 
f 268 275 291 
f 290 268 291 
f 270 246 292 
f 246 290 292 
f 290 273 292 
f 253 262 293 
f 276 253 293 
f 271 286 293 
f 286 276 293 
f 251 254 294 
f 254 272 294 
f 272 258 294 
f 280 251 294 
f 250 255 295 
f 263 250 295 
f 264 256 296 
f 275 264 296 
f 256 285 296 
f 285 275 296 
f 262 265 297 
f 257 268 297 
f 268 262 297 
f 284 257 298 
f 265 284 298 
f 257 297 298 
f 297 265 298 
f 252 261 299 
f 261 263 299 
f 273 252 299 
f 263 273 299 
f 258 278 300 
f 278 267 300 
f 289 280 300 
f 267 289 300 
f 294 258 300 
f 280 294 300 
f 280 260 301 
f 269 281 301 
f 281 280 301 
f 260 282 301 
f 282 269 301 
f 262 278 302 
f 278 271 302 
f 293 262 302 
f 271 293 302 
f 273 263 303 
f 292 273 303 
f 295 255 303 
f 263 295 303 
f 255 260 304 
f 260 270 304 
f 270 292 304 
f 303 255 304 
o convex_6
v -0.026535 0.037485 0.022616
v -0.040096 0.019857 -0.005186
v -0.040096 0.020537 -0.005186
v -0.015684 0.032742 -0.005186
v -0.015684 0.019857 0.025328
v -0.015687 0.049693 -0.005186
v -0.015684 0.019857 -0.005186
v -0.034667 0.031387 0.017867
v -0.032633 0.038163 -0.005186
v -0.017720 0.036808 0.023972
v -0.030602 0.025961 0.025328
v -0.032633 0.019857 0.017187
v -0.027890 0.040199 0.017867
v -0.024502 0.032065 0.028041
v -0.015687 0.046300 0.007024
v -0.015684 0.027996 0.026685
v -0.020432 0.020537 0.027358
v -0.025857 0.044267 -0.004507
v -0.023147 0.040199 0.021933
v -0.031276 0.038163 0.016511
v -0.037379 0.019857 0.007020
v -0.033314 0.030029 0.021933
v -0.016363 0.049693 -0.003150
v -0.033993 0.034098 0.016511
v -0.037379 0.027996 0.000239
v -0.020432 0.037485 0.025328
v -0.033314 0.026638 0.021933
v -0.026535 0.019857 0.023289
v -0.015687 0.036130 0.021256
v -0.021111 0.032065 0.028041
v -0.040096 0.020537 -0.003150
v -0.025178 0.027316 0.028041
v -0.028564 0.030029 0.026685
v -0.018401 0.049013 -0.004507
v -0.024502 0.040876 0.019903
v -0.018401 0.020537 0.027358
v -0.020432 0.038843 0.023972
v -0.031276 0.034775 0.020580
v -0.023823 0.036808 0.025328
f 330 341 343 
f 306 307 308 
f 308 307 310 
f 306 308 311 
f 308 309 311 
f 309 306 311 
f 310 307 313 
f 306 309 316 
f 309 308 320 
f 308 310 320 
f 310 319 320 
f 310 313 322 
f 322 313 324 
f 317 322 324 
f 306 316 325 
f 319 310 327 
f 324 313 328 
f 312 326 328 
f 313 307 329 
f 328 313 329 
f 320 314 330 
f 316 315 331 
f 312 325 331 
f 325 316 331 
f 315 326 331 
f 326 312 331 
f 316 309 332 
f 315 316 332 
f 309 321 332 
f 321 315 332 
f 319 314 333 
f 314 320 333 
f 320 319 333 
f 320 330 334 
f 330 318 334 
f 307 306 335 
f 306 325 335 
f 325 312 335 
f 312 328 335 
f 329 307 335 
f 328 329 335 
f 315 321 336 
f 334 318 336 
f 326 315 337 
f 315 336 337 
f 336 318 337 
f 310 322 338 
f 322 317 338 
f 327 310 338 
f 317 327 338 
f 317 305 339 
f 305 323 339 
f 323 319 339 
f 319 327 339 
f 327 317 339 
f 309 320 340 
f 321 309 340 
f 320 334 340 
f 336 321 340 
f 334 336 340 
f 314 319 341 
f 319 323 341 
f 330 314 341 
f 305 317 342 
f 317 324 342 
f 324 328 342 
f 328 326 342 
f 337 305 342 
f 326 337 342 
f 323 305 343 
f 318 330 343 
f 305 337 343 
f 337 318 343 
f 341 323 343 
o convex_7
v -0.010936 0.046298 0.011761
v -0.003474 0.019857 -0.024851
v 0.009402 0.019857 -0.024851
v 0.002624 0.019857 0.034822
v 0.017543 0.049689 -0.006533
v -0.015684 0.038167 -0.020780
v -0.015684 0.019857 0.024641
v 0.017543 0.022571 0.027357
v 0.001944 0.059187 0.000920
v 0.017543 0.034779 -0.022129
v -0.015684 0.019857 -0.023490
v -0.015684 0.050367 -0.003823
v 0.017543 0.034779 0.022614
v 0.017543 0.019857 -0.023490
v 0.006690 0.044265 -0.020103
v -0.006190 0.039522 0.021931
v -0.015684 0.028673 0.026679
v -0.014325 0.047653 -0.013998
v 0.001944 0.044265 0.019220
v 0.004657 0.037489 -0.023490
v 0.017543 0.019857 0.026679
v -0.000765 0.059187 -0.002474
v 0.016863 0.046301 0.007018
v 0.016863 0.047653 -0.012643
v -0.008903 0.042910 -0.020780
v -0.015684 0.046298 0.007690
v -0.000085 0.021216 0.034822
v -0.001442 0.058506 0.001597
v -0.012968 0.030032 -0.023490
v -0.014325 0.019857 0.029396
v 0.003301 0.058506 -0.003151
v -0.001442 0.049012 -0.015354
v -0.015684 0.039522 0.017188
v 0.006013 0.036134 0.024641
v -0.002798 0.044942 0.017865
v -0.015684 0.049689 -0.009250
v -0.008903 0.021893 -0.024846
v 0.014827 0.029354 0.026679
v 0.017543 0.040877 -0.018742
v -0.006867 0.034779 0.025324
v 0.017543 0.049689 -0.004501
v 0.007369 0.045620 -0.018747
v -0.008903 0.039522 -0.022129
v -0.002118 0.020538 0.034822
v 0.017543 0.025285 -0.023490
v -0.013648 0.034779 0.023292
v -0.008223 0.042232 0.018543
v 0.002624 0.058506 0.001597
v -0.005510 0.049689 -0.013998
v 0.003301 0.023926 -0.024851
v 0.017543 0.046979 0.004308
v -0.015684 0.027322 -0.023490
v 0.009402 0.043587 0.016504
v -0.003474 0.030709 -0.024168
v 0.002624 0.020538 0.034822
v -0.002118 0.037489 0.023963
v 0.008726 0.035456 -0.023490
v -0.015684 0.040877 -0.019419
v -0.015684 0.047653 0.004985
v 0.012794 0.046979 -0.015348
v 0.017543 0.035456 0.021931
v 0.000594 0.058506 0.002275
v 0.003301 0.058506 0.000920
v 0.003301 0.049012 -0.015354
f 385 375 407 
f 345 346 347 
f 345 347 350 
f 348 351 353 
f 350 349 354 
f 345 350 354 
f 349 350 355 
f 351 348 356 
f 347 346 357 
f 353 351 357 
f 355 350 360 
f 358 353 363 
f 351 347 364 
f 347 357 364 
f 357 351 364 
f 358 363 368 
f 355 360 369 
f 352 365 371 
f 365 355 371 
f 369 344 371 
f 350 347 373 
f 360 350 373 
f 365 352 374 
f 348 367 374 
f 358 368 375 
f 344 369 376 
f 369 360 376 
f 356 362 377 
f 359 362 378 
f 349 355 379 
f 355 365 379 
f 365 361 379 
f 345 354 380 
f 351 356 381 
f 356 377 381 
f 348 353 382 
f 353 358 382 
f 367 348 382 
f 356 348 384 
f 348 374 384 
f 358 375 385 
f 382 358 385 
f 349 368 386 
f 368 363 386 
f 372 349 386 
f 347 370 387 
f 373 347 387 
f 360 373 387 
f 383 360 387 
f 370 383 387 
f 357 346 388 
f 353 357 388 
f 376 360 389 
f 383 359 389 
f 360 383 389 
f 371 344 390 
f 344 376 390 
f 359 378 390 
f 378 371 390 
f 376 389 390 
f 389 359 390 
f 361 365 392 
f 368 361 392 
f 365 375 392 
f 375 368 392 
f 346 345 393 
f 345 380 393 
f 356 384 394 
f 354 349 395 
f 349 372 395 
f 380 354 395 
f 372 380 395 
f 391 362 396 
f 380 372 397 
f 386 363 397 
f 372 386 397 
f 363 393 397 
f 393 380 397 
f 347 351 398 
f 370 347 398 
f 377 370 398 
f 351 381 398 
f 381 377 398 
f 362 359 399 
f 377 362 399 
f 370 377 399 
f 359 383 399 
f 383 370 399 
f 363 353 400 
f 388 346 400 
f 353 388 400 
f 346 393 400 
f 393 363 400 
f 368 349 401 
f 361 368 401 
f 349 379 401 
f 379 361 401 
f 355 369 402 
f 371 355 402 
f 369 371 402 
f 374 367 403 
f 367 382 403 
f 385 374 403 
f 382 385 403 
f 362 356 404 
f 366 391 404 
f 356 394 404 
f 394 366 404 
f 396 362 404 
f 391 396 404 
f 352 371 405 
f 378 362 405 
f 371 378 405 
f 362 391 405 
f 391 352 405 
f 374 352 406 
f 384 374 406 
f 352 391 406 
f 391 366 406 
f 366 394 406 
f 394 384 406 
f 365 374 407 
f 375 365 407 
f 374 385 407 
o convex_8
v -0.044160 -0.022863 -0.025526
v 0.018899 -0.003199 -0.005866
v 0.018899 -0.028967 -0.005866
v 0.016863 -0.016083 -0.026207
v -0.039411 -0.003199 -0.005869
v -0.010262 -0.003199 -0.025529
v -0.041447 -0.023539 -0.008581
v 0.009402 -0.028967 -0.026207
v -0.041447 -0.010660 -0.029595
v -0.020430 -0.028967 -0.005869
v 0.018899 -0.003199 -0.024171
v -0.043483 -0.004556 -0.022136
v -0.039411 -0.027610 -0.019424
v -0.026531 -0.018113 -0.030276
v -0.047555 -0.014050 -0.016717
v 0.018899 -0.028289 -0.020102
v -0.039411 -0.023539 -0.027560
v -0.042124 -0.016756 -0.005869
v -0.026531 -0.012695 -0.030276
v -0.012298 -0.028967 -0.024848
v -0.044836 -0.024893 -0.014683
v -0.039411 -0.003199 -0.022136
v 0.010079 -0.003199 -0.025529
v -0.044836 -0.012695 -0.027560
v -0.041447 -0.019470 -0.029595
v -0.044836 -0.008627 -0.010614
v -0.041447 -0.005234 -0.025526
v -0.044836 -0.018792 -0.008581
v -0.041447 -0.026929 -0.014005
v -0.041447 -0.026250 -0.023493
v 0.018899 -0.021506 -0.024171
v -0.038735 -0.008627 -0.028917
v 0.018899 -0.009981 -0.025529
v -0.045519 -0.007270 -0.015359
v -0.046196 -0.020827 -0.020781
v -0.044836 -0.012017 -0.008581
v -0.040771 -0.016756 -0.030276
v -0.021789 -0.028967 -0.014683
v -0.045519 -0.007948 -0.021457
v -0.042124 -0.003199 -0.016038
v -0.027208 -0.009981 -0.029595
v -0.039411 -0.020149 -0.029595
v -0.044160 -0.025572 -0.020781
v -0.041447 -0.020149 -0.006545
v -0.042124 -0.025572 -0.011293
v -0.044836 -0.019470 -0.026883
v 0.018899 -0.028967 -0.018748
v -0.046196 -0.020827 -0.014005
v -0.022466 -0.028967 -0.006545
v 0.016180 -0.018792 -0.026207
v -0.043483 -0.007270 -0.026205
v -0.046872 -0.013374 -0.020781
v -0.042124 -0.024893 -0.025526
v -0.042124 -0.026929 -0.021457
v -0.044836 -0.021506 -0.009935
v -0.043483 -0.004556 -0.014005
f 447 419 463 
f 412 409 413 
f 415 410 417 
f 409 410 418 
f 413 409 418 
f 418 410 423 
f 410 409 425 
f 409 412 425 
f 417 410 425 
f 411 421 426 
f 415 417 427 
f 424 415 427 
f 412 413 429 
f 413 418 430 
f 429 413 434 
f 419 429 434 
f 423 415 438 
f 418 423 438 
f 413 430 439 
f 434 413 439 
f 416 434 439 
f 411 426 440 
f 430 418 440 
f 426 430 440 
f 438 411 440 
f 418 438 440 
f 422 433 441 
f 425 412 443 
f 412 433 443 
f 433 422 443 
f 435 425 443 
f 422 435 443 
f 416 426 444 
f 426 421 444 
f 431 416 444 
f 432 431 444 
f 427 417 445 
f 420 427 445 
f 441 419 446 
f 422 441 446 
f 412 429 447 
f 429 419 447 
f 426 416 448 
f 430 426 448 
f 416 439 448 
f 439 430 448 
f 421 415 449 
f 415 424 449 
f 424 432 449 
f 444 421 449 
f 432 444 449 
f 442 408 450 
f 428 442 450 
f 414 417 451 
f 417 425 451 
f 425 435 451 
f 428 436 452 
f 432 408 453 
f 431 432 453 
f 408 442 453 
f 410 415 454 
f 423 410 454 
f 415 423 454 
f 435 422 455 
f 442 428 455 
f 422 442 455 
f 417 414 456 
f 436 420 456 
f 445 417 456 
f 420 445 456 
f 414 452 456 
f 452 436 456 
f 421 411 457 
f 415 421 457 
f 411 438 457 
f 438 415 457 
f 416 431 458 
f 434 416 458 
f 419 434 458 
f 446 419 458 
f 431 446 458 
f 442 422 459 
f 446 431 459 
f 422 446 459 
f 431 453 459 
f 453 442 459 
f 424 427 460 
f 408 432 460 
f 432 424 460 
f 427 437 460 
f 450 408 460 
f 450 460 461 
f 427 420 461 
f 420 436 461 
f 436 428 461 
f 437 427 461 
f 428 450 461 
f 460 437 461 
f 414 451 462 
f 451 435 462 
f 452 414 462 
f 428 452 462 
f 455 428 462 
f 435 455 462 
f 433 412 463 
f 419 441 463 
f 441 433 463 
f 412 447 463 
o convex_9
v 0.041272 -0.023539 -0.028238
v 0.039242 -0.003199 -0.005867
v 0.041955 -0.014050 -0.005867
v 0.018899 -0.028967 -0.005867
v 0.018899 -0.003199 -0.024169
v 0.018899 -0.003199 -0.005867
v 0.043310 -0.006591 -0.024848
v 0.018899 -0.026250 -0.021457
v 0.043310 -0.027610 -0.016717
v 0.026362 -0.013374 -0.030276
v 0.047380 -0.012695 -0.016717
v 0.043310 -0.022184 -0.007902
v 0.026362 -0.027610 -0.023493
v 0.042629 -0.012695 -0.029595
v 0.035849 -0.003199 -0.024169
v 0.026362 -0.018792 -0.030276
v 0.046697 -0.018113 -0.023493
v 0.040597 -0.028289 -0.021457
v 0.018899 -0.018792 -0.025526
v 0.018899 -0.028967 -0.018072
v 0.043984 -0.005234 -0.018072
v 0.026362 -0.003199 -0.025526
v 0.041955 -0.026250 -0.010614
v 0.046022 -0.017435 -0.010614
v 0.026362 -0.023539 -0.028238
v 0.044667 -0.022184 -0.026883
v 0.046022 -0.022863 -0.015360
v 0.041272 -0.017435 -0.030276
v 0.045342 -0.009981 -0.011293
v 0.021612 -0.028967 -0.005867
v 0.045342 -0.009981 -0.025526
v 0.041272 -0.009981 -0.028917
v 0.040597 -0.019470 -0.005867
v 0.044667 -0.025572 -0.022814
v 0.040597 -0.028289 -0.014683
v 0.044667 -0.013374 -0.007902
v 0.039917 -0.026929 -0.024848
v 0.027040 -0.010660 -0.029595
v 0.020257 -0.014728 -0.026883
v 0.041272 -0.003877 -0.019424
v 0.044667 -0.018792 -0.028238
v 0.047380 -0.018113 -0.016038
v 0.045342 -0.007270 -0.015360
v 0.044667 -0.024217 -0.011293
v 0.038559 -0.021506 -0.029595
v 0.045342 -0.007270 -0.021457
v 0.035849 -0.012695 -0.030276
v 0.044667 -0.019470 -0.007902
v 0.047380 -0.014050 -0.020102
v 0.040597 -0.022863 -0.007224
f 496 493 513 
f 466 465 467 
f 465 468 469 
f 467 465 469 
f 468 467 469 
f 467 468 471 
f 468 465 478 
f 471 468 482 
f 467 471 483 
f 471 476 483 
f 476 481 483 
f 468 478 485 
f 476 471 488 
f 471 482 488 
f 482 479 488 
f 479 473 491 
f 487 474 492 
f 466 467 493 
f 467 483 493 
f 483 481 493 
f 478 470 495 
f 485 478 495 
f 470 494 495 
f 494 477 495 
f 466 493 496 
f 472 481 497 
f 464 489 497 
f 489 480 497 
f 490 472 497 
f 481 472 498 
f 472 486 498 
f 493 481 498 
f 486 493 498 
f 465 466 499 
f 492 465 499 
f 487 492 499 
f 481 476 500 
f 476 488 500 
f 488 464 500 
f 497 481 500 
f 464 497 500 
f 473 468 501 
f 468 485 501 
f 485 495 501 
f 468 473 502 
f 473 479 502 
f 482 468 502 
f 479 482 502 
f 478 465 503 
f 470 478 503 
f 465 484 503 
f 484 470 503 
f 489 464 504 
f 480 489 504 
f 491 477 504 
f 464 491 504 
f 477 494 504 
f 494 480 504 
f 474 487 505 
f 497 480 505 
f 490 497 505 
f 484 465 506 
f 465 492 506 
f 492 474 506 
f 486 472 507 
f 475 486 507 
f 472 490 507 
f 505 487 507 
f 490 505 507 
f 464 488 508 
f 488 479 508 
f 479 491 508 
f 491 464 508 
f 470 484 509 
f 494 470 509 
f 484 506 509 
f 506 474 509 
f 491 473 510 
f 477 491 510 
f 495 477 510 
f 473 501 510 
f 501 495 510 
f 466 496 511 
f 496 475 511 
f 499 466 511 
f 487 499 511 
f 475 507 511 
f 507 487 511 
f 480 494 512 
f 474 505 512 
f 505 480 512 
f 494 509 512 
f 509 474 512 
f 486 475 513 
f 493 486 513 
f 475 496 513 
o convex_10
v -0.024491 -0.026929 -0.005185
v 0.039921 -0.003199 -0.002472
v 0.039921 -0.003877 -0.002472
v -0.033306 -0.003199 0.009732
v 0.012118 -0.028967 0.009732
v -0.039418 -0.003199 -0.005864
v 0.023635 -0.027610 -0.005864
v 0.035168 -0.003199 0.009732
v -0.023140 -0.022863 0.009732
v 0.039237 -0.003199 -0.005864
v 0.031774 -0.015407 0.009051
v -0.036024 -0.013374 0.000239
v -0.019746 -0.028967 -0.005864
v -0.017036 -0.028967 0.007019
v 0.033809 -0.017435 -0.003151
v 0.018898 -0.028967 0.003628
v -0.033306 -0.012695 0.009051
v -0.028561 -0.024217 -0.005864
v 0.020249 -0.028967 -0.005864
v -0.039418 -0.005234 -0.001116
v 0.028388 -0.024217 -0.003829
v -0.013650 -0.028289 0.009732
v 0.027029 -0.020827 0.008375
v -0.028561 -0.019470 0.007697
v 0.037878 -0.009303 0.000239
v 0.037202 -0.010660 -0.005864
v -0.036700 -0.011338 -0.005864
v -0.035341 -0.003199 0.009051
v -0.021781 -0.026929 0.004306
v -0.031955 -0.020149 -0.002472
v 0.026353 -0.019470 0.009732
v 0.034492 -0.016083 0.000239
v 0.029747 -0.022863 -0.005864
v 0.035851 -0.003877 0.009051
v 0.019573 -0.028289 0.004984
v -0.032630 -0.012695 0.009732
v 0.031774 -0.020149 -0.001794
v -0.028561 -0.024217 -0.004507
v -0.019071 -0.028967 0.002949
v 0.016863 -0.028967 0.007019
f 548 536 553 
f 517 515 519 
f 515 517 521 
f 517 518 521 
f 518 517 522 
f 515 516 523 
f 519 515 523 
f 520 519 523 
f 519 520 526 
f 526 518 527 
f 518 526 529 
f 526 514 531 
f 519 526 531 
f 526 520 532 
f 529 526 532 
f 520 529 532 
f 525 530 533 
f 529 520 534 
f 518 522 535 
f 522 527 535 
f 527 518 535 
f 523 516 539 
f 520 523 539 
f 516 538 539 
f 519 531 540 
f 533 519 540 
f 525 533 540 
f 517 519 541 
f 519 533 541 
f 533 530 541 
f 527 522 542 
f 522 537 542 
f 530 525 543 
f 537 530 543 
f 525 540 543 
f 540 531 543 
f 521 518 544 
f 524 521 544 
f 518 536 544 
f 536 524 544 
f 538 524 545 
f 528 539 545 
f 539 538 545 
f 534 520 546 
f 539 528 546 
f 520 539 546 
f 516 515 547 
f 515 521 547 
f 521 524 547 
f 538 516 547 
f 524 538 547 
f 529 534 548 
f 534 536 548 
f 522 517 549 
f 537 522 549 
f 530 537 549 
f 517 541 549 
f 541 530 549 
f 524 536 550 
f 536 534 550 
f 528 545 550 
f 545 524 550 
f 534 546 550 
f 546 528 550 
f 531 514 551 
f 542 537 551 
f 537 543 551 
f 543 531 551 
f 514 526 552 
f 526 527 552 
f 527 542 552 
f 551 514 552 
f 542 551 552 
f 518 529 553 
f 536 518 553 
f 529 548 553 
o convex_11
v 0.044665 0.025962 -0.026205
v 0.018902 0.049015 -0.005187
v 0.042631 0.044266 -0.014683
v 0.039918 0.019857 -0.004508
v 0.017543 0.019857 -0.023491
v 0.029073 0.038843 -0.028919
v 0.017543 0.019857 -0.004508
v 0.045343 0.035452 -0.007225
v 0.017543 0.046977 -0.012650
v 0.043309 0.042234 -0.024170
v 0.044665 0.021215 -0.018066
v 0.033135 0.029353 -0.030276
v 0.019580 0.035452 -0.025527
v 0.048058 0.030032 -0.014005
v 0.033135 0.044942 -0.022134
v 0.043987 0.035452 -0.028241
v 0.017543 0.049015 -0.004508
v 0.042631 0.037484 -0.005865
v 0.028395 0.019857 -0.023491
v 0.048058 0.034096 -0.018068
v 0.028395 0.030711 -0.030276
v 0.045346 0.041554 -0.011969
v 0.028395 0.042234 -0.026205
v 0.041953 0.020536 -0.021458
v 0.033135 0.024606 -0.028241
v 0.017543 0.035452 -0.022813
v 0.042631 0.035452 -0.005187
v 0.043309 0.041552 -0.009258
v 0.046024 0.027318 -0.009255
v 0.045343 0.041552 -0.022134
v 0.042631 0.044266 -0.019423
v 0.042631 0.028673 -0.028919
v 0.018224 0.049015 -0.008582
v 0.033135 0.035452 -0.030276
v 0.041953 0.040199 -0.026884
v 0.046699 0.030708 -0.024172
v 0.042631 0.022571 -0.024848
v 0.022292 0.038843 -0.025527
v 0.036525 0.033420 -0.004508
v 0.040596 0.019857 -0.018744
v 0.048058 0.029353 -0.018068
v 0.046024 0.024606 -0.011969
v 0.020936 0.033420 -0.026884
v 0.047377 0.037484 -0.014683
v 0.028395 0.025962 -0.028919
v 0.029073 0.044266 -0.023491
v 0.046024 0.036129 -0.025527
v 0.045343 0.023248 -0.022134
v 0.043987 0.030032 -0.005865
v 0.033135 0.043589 -0.024848
v 0.042631 0.043589 -0.011972
v 0.033135 0.040199 -0.028241
v 0.020936 0.047657 -0.004508
v 0.028395 0.036808 -0.029598
v 0.042631 0.035452 -0.028919
v 0.045343 0.029353 -0.026884
v 0.042631 0.024606 -0.026884
f 590 578 610 
f 558 557 560 
f 558 560 562 
f 560 557 570 
f 562 560 570 
f 557 558 572 
f 572 558 578 
f 558 562 579 
f 566 558 579 
f 562 566 579 
f 561 571 580 
f 571 561 581 
f 561 575 581 
f 567 561 582 
f 575 583 584 
f 555 556 584 
f 563 568 584 
f 556 575 584 
f 583 563 584 
f 578 565 585 
f 570 555 586 
f 562 570 586 
f 555 584 586 
f 584 568 586 
f 565 574 587 
f 585 565 587 
f 563 569 588 
f 577 572 590 
f 572 578 590 
f 566 562 591 
f 576 559 591 
f 562 576 591 
f 570 557 592 
f 557 580 592 
f 564 557 593 
f 557 572 593 
f 577 564 593 
f 572 577 593 
f 573 567 594 
f 589 573 594 
f 557 564 595 
f 582 557 595 
f 567 582 595 
f 564 594 595 
f 594 567 595 
f 558 566 596 
f 574 558 596 
f 561 567 597 
f 567 573 597 
f 575 561 597 
f 573 583 597 
f 583 575 597 
f 558 574 598 
f 574 565 598 
f 565 578 598 
f 578 558 598 
f 576 562 599 
f 562 586 599 
f 586 568 599 
f 569 563 600 
f 563 583 600 
f 583 573 600 
f 573 589 600 
f 564 577 601 
f 554 589 601 
f 590 554 601 
f 577 590 601 
f 594 564 601 
f 589 594 601 
f 580 557 602 
f 561 580 602 
f 557 582 602 
f 582 561 602 
f 568 563 603 
f 563 588 603 
f 576 599 603 
f 599 568 603 
f 556 555 604 
f 575 556 604 
f 555 581 604 
f 581 575 604 
f 559 576 605 
f 587 559 605 
f 576 603 605 
f 603 588 605 
f 555 570 606 
f 580 571 606 
f 581 555 606 
f 571 581 606 
f 570 592 606 
f 592 580 606 
f 559 587 607 
f 587 574 607 
f 566 591 607 
f 591 559 607 
f 596 566 607 
f 574 596 607 
f 569 585 608 
f 585 587 608 
f 588 569 608 
f 587 605 608 
f 605 588 608 
f 554 585 609 
f 585 569 609 
f 589 554 609 
f 569 600 609 
f 600 589 609 
f 585 554 610 
f 578 585 610 
f 554 590 610 
o convex_12
v 0.027039 0.032064 0.026681
v 0.017543 0.019857 -0.004508
v 0.017543 0.049015 -0.004508
v 0.039921 0.019857 -0.004508
v 0.017543 0.019857 0.026681
v 0.032460 0.036808 0.015835
v 0.033139 0.025283 0.023291
v 0.020257 0.037484 0.023966
v 0.031783 0.038161 -0.004508
v 0.031102 0.019857 0.018543
v 0.025681 0.040199 0.019222
v 0.017543 0.036126 0.021936
v 0.035170 0.031388 0.017868
v 0.037886 0.027320 -0.001112
v 0.026362 0.027994 0.028041
v 0.020934 0.032746 0.027359
v 0.026362 0.043589 -0.003826
v 0.017543 0.046298 0.004986
v 0.039921 0.019857 -0.001794
v 0.029748 0.038843 0.017189
v 0.020257 0.020536 0.027359
v 0.018224 0.049015 -0.003826
v 0.034493 0.028673 0.021258
v 0.030425 0.025283 0.026005
v 0.024327 0.038843 0.022612
v 0.017543 0.023248 0.027359
v 0.031783 0.034099 0.020579
v 0.037207 0.019857 0.007022
v 0.033816 0.035452 -0.001112
v 0.025681 0.019857 0.023966
v 0.034493 0.033420 0.017189
v 0.023650 0.034773 0.026681
v 0.037886 0.026638 -0.004508
v 0.017543 0.032746 0.024645
v 0.039921 0.021215 -0.001794
v 0.035170 0.027320 0.019222
v 0.029067 0.029353 0.026681
v 0.031783 0.023930 0.023966
f 634 640 648 
f 612 613 614 
f 613 612 615 
f 612 614 615 
f 614 613 619 
f 615 614 620 
f 613 615 622 
f 619 613 627 
f 616 619 627 
f 613 622 628 
f 622 618 628 
f 620 614 629 
f 616 627 630 
f 627 613 632 
f 613 628 632 
f 628 621 632 
f 621 630 632 
f 630 627 632 
f 625 631 634 
f 621 628 635 
f 628 618 635 
f 630 621 635 
f 622 615 636 
f 625 626 636 
f 615 631 636 
f 631 625 636 
f 616 630 637 
f 635 611 637 
f 630 635 637 
f 620 629 638 
f 619 616 639 
f 615 620 640 
f 631 615 640 
f 634 631 640 
f 623 624 641 
f 633 623 641 
f 616 637 641 
f 637 633 641 
f 639 616 641 
f 624 639 641 
f 625 611 642 
f 618 626 642 
f 626 625 642 
f 611 635 642 
f 635 618 642 
f 614 619 643 
f 619 639 643 
f 639 624 643 
f 618 622 644 
f 626 618 644 
f 622 636 644 
f 636 626 644 
f 624 623 645 
f 629 614 645 
f 614 643 645 
f 643 624 645 
f 633 617 646 
f 623 633 646 
f 617 638 646 
f 638 629 646 
f 645 623 646 
f 629 645 646 
f 611 625 647 
f 617 633 647 
f 634 617 647 
f 625 634 647 
f 637 611 647 
f 633 637 647 
f 617 634 648 
f 638 617 648 
f 620 638 648 
f 640 620 648 
o convex_13
v -0.031280 -0.020151 0.014483
v -0.023146 -0.010660 0.028719
v -0.025179 -0.010660 0.028719
v -0.033315 -0.003199 0.009732
v -0.017040 -0.020828 0.009732
v -0.017040 -0.003199 0.009732
v -0.017040 -0.003199 0.027362
v -0.020432 -0.021507 0.023292
v -0.032636 -0.007948 0.023969
v -0.021788 -0.023542 0.009732
v -0.033993 -0.016760 0.017873
v -0.017040 -0.017439 0.023969
v -0.025179 -0.022184 0.021935
v -0.028565 -0.003199 0.021257
v -0.034671 -0.005913 0.010410
v -0.025179 -0.016083 0.027362
v -0.029924 -0.016083 0.009732
v -0.019755 -0.016083 0.027362
v -0.017040 -0.022184 0.016516
v -0.034671 -0.013371 0.019902
v -0.034671 -0.003878 0.012446
v -0.027887 -0.006590 0.026684
v -0.027209 -0.022863 0.018549
v -0.029924 -0.010660 0.026684
v -0.033315 -0.017439 0.013802
v -0.022466 -0.022863 0.021257
v -0.029245 -0.018793 0.021935
v -0.019075 -0.003878 0.028041
v -0.022466 -0.019472 0.026006
v -0.034671 -0.014727 0.015159
v -0.034671 -0.009981 0.020579
v -0.019755 -0.023542 0.009732
v -0.022466 -0.013371 0.028719
v -0.029924 -0.021507 0.017873
v -0.017719 -0.005234 0.028041
v -0.030602 -0.019472 0.012446
f 673 665 684 
f 653 652 654 
f 654 652 655 
f 653 654 655 
f 652 653 658 
f 653 655 660 
f 655 652 662 
f 652 658 665 
f 663 652 665 
f 656 660 666 
f 653 660 667 
f 660 656 667 
f 662 652 669 
f 657 662 669 
f 652 663 669 
f 663 668 669 
f 662 657 670 
f 664 651 672 
f 657 668 672 
f 651 670 672 
f 670 657 672 
f 649 659 673 
f 663 665 673 
f 667 656 674 
f 671 658 674 
f 661 671 674 
f 661 664 675 
f 668 659 675 
f 664 672 675 
f 672 668 675 
f 651 650 676 
f 655 662 676 
f 670 651 676 
f 662 670 676 
f 664 661 677 
f 656 666 677 
f 674 656 677 
f 661 674 677 
f 668 663 678 
f 659 668 678 
f 673 659 678 
f 663 673 678 
f 668 657 679 
f 657 669 679 
f 669 668 679 
f 658 653 680 
f 653 667 680 
f 674 658 680 
f 667 674 680 
f 650 651 681 
f 651 664 681 
f 664 677 681 
f 677 666 681 
f 649 658 682 
f 659 649 682 
f 658 671 682 
f 671 661 682 
f 661 675 682 
f 675 659 682 
f 660 655 683 
f 666 660 683 
f 676 650 683 
f 655 676 683 
f 650 681 683 
f 681 666 683 
f 658 649 684 
f 665 658 684 
f 649 673 684 
o convex_14
v 0.002624 -0.028967 0.013801
v 0.032458 -0.003199 0.017872
v 0.033134 -0.008627 0.022614
v -0.014326 -0.003199 0.029396
v -0.017040 -0.003199 0.009732
v 0.034496 -0.008627 0.009732
v -0.015678 -0.026929 0.009732
v 0.022288 -0.020149 0.026004
v -0.017040 -0.016083 0.023970
v 0.001272 -0.003199 0.032788
v 0.029068 -0.021506 0.013124
v 0.011437 -0.028967 0.009732
v -0.006189 -0.022184 0.022614
v 0.029744 -0.003199 0.009732
v 0.027035 -0.009981 0.028039
v 0.030425 -0.021506 0.017872
v 0.020931 -0.003199 0.027360
v 0.025002 -0.023539 0.020583
v -0.005508 -0.008627 0.030073
v 0.033815 -0.014728 0.020583
v -0.017040 -0.003199 0.026683
v 0.022964 -0.016756 0.028039
v -0.002123 -0.028967 0.014480
v -0.017040 -0.022863 0.016514
v -0.002799 -0.020149 0.024650
v 0.027711 -0.018792 0.009732
v 0.033134 -0.018113 0.014480
v -0.012288 -0.028289 0.011088
v -0.017040 -0.025572 0.009732
v -0.014326 -0.011338 0.027360
v 0.028392 -0.014728 0.026004
v 0.031101 -0.008627 0.025327
v 0.034496 -0.005913 0.012447
v -0.000085 -0.003877 0.032788
v 0.023645 -0.014728 0.028716
v 0.022288 -0.021506 0.024647
v 0.027035 -0.023539 0.015837
v 0.034496 -0.014728 0.019229
v -0.007541 -0.028967 0.009732
v 0.020255 -0.018113 0.027360
v -0.010255 -0.025572 0.016514
v 0.026354 -0.018792 0.024647
v 0.032458 -0.003877 0.009732
v 0.030425 -0.020149 0.012447
v -0.010931 -0.005913 0.030073
v 0.030425 -0.011338 0.026004
v -0.017040 -0.005234 0.027360
v 0.034496 -0.010660 0.019906
v 0.022964 -0.022863 0.022614
f 720 707 733 
f 688 686 689 
f 689 690 691 
f 686 688 694 
f 691 690 696 
f 689 686 698 
f 690 689 698 
f 686 694 701 
f 694 699 701 
f 685 696 702 
f 688 689 705 
f 689 693 705 
f 696 685 707 
f 693 689 708 
f 697 693 708 
f 697 692 709 
f 693 697 709 
f 696 690 710 
f 708 691 712 
f 689 691 713 
f 708 689 713 
f 691 708 713 
f 693 709 714 
f 709 703 714 
f 687 686 716 
f 686 701 716 
f 701 699 716 
f 694 688 718 
f 699 694 719 
f 706 715 719 
f 694 718 719 
f 718 706 719 
f 692 697 720 
f 697 707 720 
f 696 695 721 
f 695 700 721 
f 702 696 721 
f 700 702 721 
f 704 700 722 
f 700 711 722 
f 711 690 722 
f 690 717 722 
f 691 696 723 
f 696 707 723 
f 712 691 723 
f 707 712 723 
f 692 706 724 
f 709 692 724 
f 703 709 724 
f 706 718 724 
f 718 703 724 
f 707 697 725 
f 697 708 725 
f 712 707 725 
f 708 712 725 
f 702 700 726 
f 700 704 726 
f 706 692 726 
f 704 715 726 
f 715 706 726 
f 692 720 726 
f 720 702 726 
f 698 686 727 
f 690 698 727 
f 686 717 727 
f 717 690 727 
f 695 696 728 
f 700 695 728 
f 710 690 728 
f 696 710 728 
f 711 700 728 
f 690 711 728 
f 688 714 729 
f 714 703 729 
f 718 688 729 
f 703 718 729 
f 704 687 730 
f 715 704 730 
f 687 716 730 
f 716 699 730 
f 699 719 730 
f 719 715 730 
f 688 705 731 
f 705 693 731 
f 714 688 731 
f 693 714 731 
f 686 687 732 
f 687 704 732 
f 717 686 732 
f 704 722 732 
f 722 717 732 
f 685 702 733 
f 707 685 733 
f 702 720 733 
