o convex_0
v 0.019322 0.003521 -0.006391
v 0.000029 0.025385 0.037333
v -0.002541 0.025385 0.037333
v 0.007746 0.056889 -0.006396
v -0.019903 0.002870 -0.005745
v -0.019903 0.051738 0.026397
v 0.018033 0.051099 0.030258
v 0.014817 0.002870 0.028969
v -0.020545 0.054308 -0.005745
v -0.017975 0.002870 0.025113
v 0.018033 0.052383 -0.005749
v -0.012185 0.049169 0.035399
v 0.019322 0.018305 0.030254
v -0.000617 0.006730 0.036687
v -0.016044 0.017665 0.033472
v 0.009031 0.051744 0.034761
v -0.017975 0.055593 0.014189
v 0.016748 0.056243 0.013547
v 0.012890 0.018305 0.035399
v -0.019903 0.025380 0.025755
v 0.019322 0.043379 0.025755
v 0.019322 0.002870 0.023182
v -0.019260 0.002870 -0.006396
v -0.021192 0.049169 -0.002530
v -0.017975 0.051099 0.031538
v -0.018618 0.054953 -0.006396
v -0.011543 0.002870 0.030258
v -0.011543 0.017670 0.036045
v 0.016106 0.056243 -0.006396
v 0.010958 0.047884 0.035399
v -0.000617 0.052383 0.033472
v -0.019903 0.004166 0.006471
v 0.018676 0.002870 -0.006391
v -0.019260 0.019595 0.028969
v -0.016687 0.056243 -0.005103
v -0.003183 0.044669 0.036687
v 0.018676 0.044018 -0.005103
v -0.003183 0.056243 0.013547
v 0.005172 0.021520 0.037333
v 0.015460 0.048518 0.033472
v 0.002599 0.005445 0.036045
v -0.019903 0.042094 0.029611
v -0.019260 0.002870 0.021252
v 0.018676 0.052383 0.011616
v -0.016687 0.049169 0.033472
v 0.016748 0.018950 0.033472
v -0.020545 0.050453 0.021894
v -0.005753 0.019595 0.037333
v -0.012185 0.051744 0.033472
v 0.005815 0.049169 0.036045
v 0.018033 0.052383 0.028969
v -0.019903 0.054953 0.014827
v -0.021192 0.053023 -0.005103
v 0.001956 0.002870 0.032188
v 0.003245 0.056889 -0.001893
v -0.017975 0.017665 0.031538
v -0.008969 0.049169 0.036045
v 0.010316 0.052383 0.033472
v 0.018033 0.054959 0.010974
v 0.002599 0.006730 0.036687
v -0.019903 0.017665 0.021252
v 0.015460 0.056889 -0.004465
v 0.018676 0.050453 0.028969
v 0.018033 0.040164 0.031542
f 13 63 64 
f 5 8 10 
f 13 1 21 
f 8 5 22 
f 13 8 22 
f 1 13 22 
f 22 5 23 
f 4 23 26 
f 23 9 26 
f 10 8 27 
f 15 10 27 
f 15 27 28 
f 27 14 28 
f 11 1 29 
f 1 23 29 
f 23 4 29 
f 24 5 32 
f 1 22 33 
f 23 1 33 
f 22 23 33 
f 4 26 35 
f 26 9 35 
f 3 2 36 
f 1 11 37 
f 21 1 37 
f 31 18 38 
f 17 31 38 
f 35 17 38 
f 2 3 39 
f 19 30 39 
f 36 2 39 
f 7 16 40 
f 16 30 40 
f 30 19 40 
f 14 27 41 
f 25 6 42 
f 20 34 42 
f 5 10 43 
f 32 5 43 
f 10 34 43 
f 34 20 43 
f 37 11 44 
f 21 37 44 
f 12 25 45 
f 15 28 45 
f 28 12 45 
f 25 42 45 
f 8 13 46 
f 19 8 46 
f 40 19 46 
f 42 6 47 
f 20 42 47 
f 12 28 48 
f 28 14 48 
f 3 36 48 
f 39 3 48 
f 25 12 49 
f 17 25 49 
f 16 31 49 
f 31 17 49 
f 30 16 50 
f 39 30 50 
f 36 39 50 
f 6 25 52 
f 25 17 52 
f 17 35 52 
f 35 9 52 
f 47 6 52 
f 47 52 53 
f 9 23 53 
f 23 5 53 
f 5 24 53 
f 24 47 53 
f 52 9 53 
f 27 8 54 
f 8 41 54 
f 41 27 54 
f 4 35 55 
f 38 18 55 
f 35 38 55 
f 10 15 56 
f 34 10 56 
f 42 34 56 
f 15 45 56 
f 45 42 56 
f 12 48 57 
f 48 36 57 
f 49 12 57 
f 16 49 57 
f 50 16 57 
f 36 50 57 
f 16 7 58 
f 31 16 58 
f 18 31 58 
f 7 51 58 
f 51 18 58 
f 11 29 59 
f 29 18 59 
f 44 11 59 
f 18 51 59 
f 8 19 60 
f 19 39 60 
f 41 8 60 
f 14 41 60 
f 48 14 60 
f 39 48 60 
f 24 32 61 
f 32 43 61 
f 43 20 61 
f 47 24 61 
f 20 47 61 
f 29 4 62 
f 18 29 62 
f 4 55 62 
f 55 18 62 
f 13 21 63 
f 21 44 63 
f 51 7 63 
f 44 59 63 
f 59 51 63 
f 7 40 64 
f 46 13 64 
f 40 46 64 
f 63 7 64 
o convex_1
v 0.009031 0.061377 -0.014114
v -0.015404 -0.051776 -0.017331
v -0.015404 -0.051776 -0.014759
v 0.014821 -0.051140 -0.014114
v 0.009676 0.044013 -0.030190
v -0.015404 0.039514 -0.006396
v -0.012830 0.047878 -0.029544
v 0.009676 -0.053072 -0.030190
v 0.012889 -0.053708 -0.006396
v 0.014821 0.055593 -0.006398
v -0.015404 -0.039561 -0.028259
v -0.002543 -0.064639 -0.007684
v 0.014821 0.033082 -0.028902
v -0.000611 -0.064652 -0.028256
v -0.009614 0.061377 -0.010900
v -0.015404 -0.042128 -0.006396
v 0.001957 0.062025 -0.026973
v 0.010960 -0.064639 -0.021826
v 0.014821 -0.037628 -0.028902
v -0.015404 0.045946 -0.024399
v -0.010901 -0.053060 -0.029544
v -0.008327 -0.065288 -0.019897
v -0.002540 0.060741 -0.006396
v -0.010901 0.061377 -0.021183
v 0.009031 0.061377 -0.020540
v 0.005173 -0.067220 -0.013471
v 0.000673 0.064605 -0.014114
v 0.014821 -0.046628 -0.006396
v -0.000611 -0.051776 -0.030190
v 0.014821 0.046594 -0.022471
v -0.007043 -0.064639 -0.010900
v 0.009676 0.049797 -0.029544
v 0.012247 -0.049208 -0.030190
v -0.015404 0.033730 -0.028259
v -0.015404 0.047229 -0.014114
v 0.010960 -0.063991 -0.012829
v -0.003185 0.061377 -0.027614
v -0.000611 -0.067868 -0.020540
v 0.002602 -0.063991 -0.007041
v 0.002602 0.047242 -0.030190
v 0.014821 -0.051140 -0.022471
v 0.007102 -0.064652 -0.026973
v -0.003827 0.064605 -0.019255
v -0.007685 -0.064639 -0.023754
v 0.005173 0.061390 -0.008329
v -0.003185 -0.058856 -0.006396
v 0.012889 -0.052411 -0.028899
v -0.015404 -0.051140 -0.020543
v 0.000028 -0.067868 -0.013471
v -0.011543 0.060728 -0.014759
v -0.007043 0.061377 -0.026330
v 0.001957 0.064605 -0.019257
v 0.007102 -0.064652 -0.008972
v -0.007685 0.060728 -0.008327
v 0.003244 -0.067868 -0.020540
v 0.011605 -0.063991 -0.015402
v -0.002540 0.063957 -0.011543
v 0.007747 0.062012 -0.022471
v -0.008972 -0.064639 -0.016043
v -0.015404 -0.051140 -0.012829
v -0.010901 0.051094 -0.029544
v -0.004472 -0.064639 -0.026971
v 0.000673 0.044026 -0.030190
v -0.005756 0.063957 -0.014114
f 121 91 128 
f 66 67 70 
f 66 70 75 
f 74 68 77 
f 70 67 80 
f 73 70 80 
f 77 68 83 
f 75 70 84 
f 75 71 85 
f 70 73 87 
f 71 84 88 
f 65 74 89 
f 68 74 92 
f 87 73 92 
f 74 87 92 
f 69 72 93 
f 72 78 93 
f 85 71 93 
f 78 85 93 
f 74 77 94 
f 89 74 94 
f 76 80 95 
f 77 69 96 
f 94 77 96 
f 72 69 97 
f 69 77 97 
f 77 83 97 
f 71 75 98 
f 75 84 98 
f 84 71 98 
f 84 70 99 
f 81 96 101 
f 69 93 104 
f 96 69 104 
f 101 96 104 
f 83 68 105 
f 78 72 106 
f 81 101 107 
f 102 86 108 
f 74 65 109 
f 87 74 109 
f 65 91 109 
f 73 80 110 
f 80 76 110 
f 103 73 110 
f 76 103 110 
f 72 97 111 
f 97 83 111 
f 105 82 111 
f 83 105 111 
f 106 72 111 
f 82 106 111 
f 66 75 112 
f 75 85 112 
f 86 66 112 
f 85 108 112 
f 108 86 112 
f 76 95 113 
f 86 102 113 
f 103 76 113 
f 70 79 114 
f 88 84 114 
f 99 70 114 
f 84 99 114 
f 88 107 115 
f 107 101 115 
f 91 65 116 
f 107 91 116 
f 81 107 116 
f 100 73 117 
f 90 100 117 
f 73 103 117 
f 113 90 117 
f 103 113 117 
f 79 70 118 
f 70 87 118 
f 82 90 119 
f 102 78 119 
f 78 106 119 
f 106 82 119 
f 113 102 119 
f 90 113 119 
f 90 82 120 
f 68 92 120 
f 92 73 120 
f 73 100 120 
f 100 90 120 
f 105 68 120 
f 82 105 120 
f 87 109 121 
f 109 91 121 
f 79 118 121 
f 118 87 121 
f 65 89 122 
f 89 94 122 
f 96 81 122 
f 94 96 122 
f 116 65 122 
f 81 116 122 
f 67 66 123 
f 66 86 123 
f 113 95 123 
f 86 113 123 
f 80 67 124 
f 95 80 124 
f 67 123 124 
f 123 95 124 
f 71 88 125 
f 104 71 125 
f 101 104 125 
f 88 115 125 
f 115 101 125 
f 85 78 126 
f 78 102 126 
f 108 85 126 
f 102 108 126 
f 93 71 127 
f 104 93 127 
f 71 104 127 
f 107 88 128 
f 91 107 128 
f 114 79 128 
f 88 114 128 
f 79 121 128 
o convex_2
v 0.019323 -0.020927 -0.020546
v 0.018036 -0.051145 -0.027615
v 0.019967 -0.051145 -0.027615
v 0.014821 -0.045357 -0.006396
v 0.027682 -0.036997 -0.019901
v 0.015465 -0.029930 -0.037262
v 0.014821 -0.027359 -0.006396
v 0.020611 -0.033788 -0.037904
v 0.021892 -0.042785 -0.010254
v 0.016109 -0.044713 -0.035975
v 0.027038 -0.033788 -0.027615
v 0.014821 -0.020284 -0.024399
v 0.019967 -0.024142 -0.032761
v 0.014821 -0.051145 -0.021834
v 0.021251 -0.050502 -0.017972
v 0.021251 -0.029287 -0.010254
v 0.021251 -0.045357 -0.034688
v 0.027682 -0.038927 -0.025044
v 0.027038 -0.031861 -0.021192
v 0.019323 -0.033788 -0.006396
v 0.020611 -0.024142 -0.014113
v 0.014821 -0.020284 -0.017330
v 0.019967 -0.021571 -0.027615
v 0.014821 -0.050502 -0.012829
v 0.020611 -0.039568 -0.037904
v 0.015465 -0.036997 -0.037904
v 0.021892 -0.047287 -0.013474
v 0.021892 -0.049858 -0.026325
v 0.016109 -0.024142 -0.033400
v 0.019967 -0.027359 -0.035975
v 0.019323 -0.041498 -0.006396
v 0.021892 -0.036353 -0.008970
v 0.014821 -0.037640 -0.028900
v 0.016751 -0.048571 -0.032761
v 0.027038 -0.031861 -0.025683
v 0.027682 -0.038927 -0.021192
v 0.020611 -0.022214 -0.018620
v 0.021251 -0.048571 -0.031471
v 0.021251 -0.051145 -0.021192
v 0.027682 -0.037640 -0.026325
v 0.018679 -0.032501 -0.038549
v 0.027682 -0.033788 -0.020546
v 0.018679 -0.044713 -0.036620
v 0.016751 -0.039568 -0.038549
v 0.016751 -0.028003 -0.006396
v 0.018036 -0.021571 -0.029545
v 0.019323 -0.022858 -0.014758
v 0.015465 -0.049858 -0.011542
v 0.020611 -0.025429 -0.012187
f 175 173 177 
f 132 135 140 
f 130 131 142 
f 132 140 142 
f 135 132 148 
f 129 140 150 
f 140 135 150 
f 140 129 151 
f 132 142 152 
f 136 139 153 
f 138 142 154 
f 134 140 157 
f 139 136 158 
f 141 139 158 
f 134 157 158 
f 157 141 158 
f 148 132 159 
f 132 155 159 
f 155 137 159 
f 137 133 160 
f 144 148 160 
f 148 159 160 
f 159 137 160 
f 140 134 161 
f 142 140 161 
f 134 154 161 
f 154 142 161 
f 131 130 162 
f 130 142 162 
f 142 138 162 
f 139 141 163 
f 141 151 163 
f 133 137 164 
f 146 133 164 
f 137 155 164 
f 155 143 164 
f 149 147 165 
f 151 129 165 
f 147 163 165 
f 163 151 165 
f 145 146 166 
f 156 131 166 
f 146 156 166 
f 131 162 166 
f 142 131 167 
f 152 142 167 
f 143 152 167 
f 131 156 167 
f 156 146 167 
f 146 164 167 
f 164 143 167 
f 146 145 168 
f 133 146 168 
f 153 139 168 
f 145 153 168 
f 139 163 168 
f 136 153 169 
f 154 134 169 
f 134 158 169 
f 158 136 169 
f 160 133 170 
f 144 160 170 
f 163 147 170 
f 133 168 170 
f 168 163 170 
f 153 145 171 
f 162 138 171 
f 145 166 171 
f 166 162 171 
f 138 154 172 
f 169 153 172 
f 154 169 172 
f 153 171 172 
f 171 138 172 
f 135 148 173 
f 148 144 173 
f 140 151 174 
f 151 141 174 
f 157 140 174 
f 141 157 174 
f 129 150 175 
f 150 135 175 
f 149 165 175 
f 165 129 175 
f 135 173 175 
f 132 152 176 
f 152 143 176 
f 155 132 176 
f 143 155 176 
f 147 149 177 
f 144 170 177 
f 170 147 177 
f 173 144 177 
f 149 175 177 
o convex_3
v 0.018031 -0.058863 0.001321
v -0.019905 0.000938 -0.004466
v -0.019905 0.000938 0.002607
v 0.019319 0.002870 0.002607
v 0.019319 0.002870 -0.006396
v -0.016685 -0.058214 -0.006396
v -0.016685 -0.058863 0.002607
v 0.019962 -0.057579 -0.006396
v -0.019259 0.002870 -0.006396
v 0.003242 -0.061437 0.002607
v -0.018617 -0.056924 -0.005109
v 0.019962 -0.040205 0.002607
v 0.020608 -0.055646 0.001321
v -0.019905 0.002870 0.002607
v -0.016685 -0.059505 -0.005752
v 0.018031 -0.058863 -0.006396
v -0.017974 -0.054362 0.002607
v 0.020608 -0.050503 -0.005752
v 0.019962 -0.013213 0.002607
v 0.019319 -0.057579 0.001964
v -0.018617 -0.056288 -0.001252
v 0.000673 -0.059505 -0.006396
v -0.016685 -0.059505 0.001321
v -0.018617 -0.038285 -0.006396
v -0.000612 -0.061437 0.001964
v -0.019259 -0.031846 -0.005109
v -0.019259 -0.025437 0.002607
v 0.019962 -0.018356 -0.005752
f 182 196 205 
f 181 180 184 
f 183 182 185 
f 181 182 186 
f 182 183 186 
f 181 184 187 
f 181 187 189 
f 179 180 191 
f 180 181 191 
f 186 179 191 
f 181 186 191 
f 188 183 192 
f 185 178 193 
f 183 185 193 
f 178 187 193 
f 184 180 194 
f 185 182 195 
f 190 185 195 
f 190 195 196 
f 182 181 196 
f 181 189 196 
f 189 190 196 
f 178 185 197 
f 187 178 197 
f 189 187 197 
f 190 189 197 
f 185 190 197 
f 184 194 198 
f 192 183 199 
f 183 193 199 
f 188 192 200 
f 198 188 200 
f 184 198 200 
f 186 183 201 
f 183 188 201 
f 187 184 202 
f 193 187 202 
f 192 199 202 
f 199 193 202 
f 184 200 202 
f 200 192 202 
f 180 179 203 
f 179 186 203 
f 198 180 203 
f 188 198 203 
f 186 201 203 
f 201 188 203 
f 194 180 204 
f 180 198 204 
f 198 194 204 
f 195 182 205 
f 196 195 205 
o convex_4
v -0.017978 0.022807 -0.035972
v -0.015404 0.038880 -0.006396
v -0.015404 0.046598 -0.014116
v -0.027622 0.033094 -0.020544
v -0.015404 0.015732 -0.018616
v -0.016692 0.039525 -0.035972
v -0.021832 0.042739 -0.032117
v -0.020549 0.019590 -0.014116
v -0.021194 0.022807 -0.034689
v -0.021194 0.045953 -0.018616
v -0.017978 0.027952 -0.006396
v -0.027622 0.029880 -0.025686
v -0.020549 0.017018 -0.025686
v -0.015404 0.019590 -0.030186
v -0.021194 0.035663 -0.037262
v -0.020549 0.041450 -0.010899
v -0.015404 0.046598 -0.023758
v -0.015404 0.024735 -0.006396
v -0.026979 0.027952 -0.019903
v -0.020549 0.028597 -0.008327
v -0.027622 0.034380 -0.025044
v -0.016047 0.026021 -0.036620
v -0.021194 0.045953 -0.027614
v -0.020549 0.028597 -0.037906
v -0.020549 0.035022 -0.008327
v -0.016692 0.017663 -0.030186
v -0.017334 0.044670 -0.031475
v -0.026979 0.033733 -0.018616
v -0.016692 0.033733 -0.037906
v -0.019907 0.020877 -0.011541
v -0.020549 0.017663 -0.018616
v -0.019263 0.047242 -0.020544
v -0.021194 0.041450 -0.034689
v -0.020549 0.019590 -0.032117
v -0.026979 0.027311 -0.024400
v -0.021832 0.029238 -0.036620
v -0.026979 0.035663 -0.020544
v -0.021194 0.042739 -0.012827
v -0.017978 0.036308 -0.006396
v -0.021194 0.046598 -0.024400
v -0.016047 0.032449 -0.035972
v -0.015404 0.015732 -0.023110
v -0.017978 0.046598 -0.027614
v -0.018620 0.017663 -0.015399
v -0.021832 0.035022 -0.036620
v -0.019907 0.035663 -0.037906
v -0.026979 0.029880 -0.018616
v -0.020549 0.024094 -0.010254
v -0.020549 0.044670 -0.031475
f 228 248 254 
f 208 207 210 
f 208 210 219 
f 207 208 221 
f 208 219 222 
f 210 207 223 
f 207 216 223 
f 209 217 224 
f 217 209 226 
f 212 226 228 
f 206 214 229 
f 227 206 229 
f 225 216 230 
f 206 227 231 
f 227 219 231 
f 222 211 232 
f 230 221 233 
f 225 230 233 
f 227 229 234 
f 223 216 235 
f 224 213 235 
f 218 210 236 
f 213 224 236 
f 215 208 237 
f 208 222 237 
f 226 212 238 
f 232 211 238 
f 214 206 239 
f 206 231 239 
f 231 218 239 
f 217 214 240 
f 224 217 240 
f 218 236 240 
f 236 224 240 
f 214 239 240 
f 239 218 240 
f 214 217 241 
f 229 214 241 
f 220 229 241 
f 226 209 242 
f 209 233 242 
f 242 233 243 
f 208 215 243 
f 221 208 243 
f 233 221 243 
f 215 242 243 
f 216 207 244 
f 207 221 244 
f 230 216 244 
f 221 230 244 
f 228 226 245 
f 215 237 245 
f 242 215 245 
f 226 242 245 
f 211 222 246 
f 222 219 246 
f 219 227 246 
f 234 211 246 
f 227 234 246 
f 210 218 247 
f 219 210 247 
f 218 231 247 
f 231 219 247 
f 222 232 248 
f 237 222 248 
f 228 245 248 
f 245 237 248 
f 210 223 249 
f 235 213 249 
f 223 235 249 
f 236 210 249 
f 213 236 249 
f 217 226 250 
f 238 220 250 
f 226 238 250 
f 241 217 250 
f 220 241 250 
f 229 220 251 
f 211 234 251 
f 234 229 251 
f 238 211 251 
f 220 238 251 
f 209 224 252 
f 233 209 252 
f 225 233 252 
f 216 225 253 
f 235 216 253 
f 224 235 253 
f 252 224 253 
f 225 252 253 
f 212 228 254 
f 238 212 254 
f 232 238 254 
f 248 232 254 
o convex_5
v 0.014821 0.004799 -0.037262
v 0.015464 0.009942 -0.006396
v 0.015464 0.014446 -0.010900
v 0.026396 -0.003557 -0.026973
v 0.014821 -0.020281 -0.019262
v 0.018680 -0.005484 -0.006396
v 0.019322 -0.011276 -0.035333
v 0.019322 0.012515 -0.028900
v 0.026396 0.000295 -0.019262
v 0.020608 -0.015134 -0.017972
v 0.014821 -0.010634 -0.006396
v 0.019966 0.002225 -0.037262
v 0.015464 -0.008060 -0.037262
v 0.014821 0.014446 -0.020546
v 0.026396 0.002225 -0.025683
v 0.020608 -0.015134 -0.027615
v 0.019966 0.012515 -0.018620
v 0.026396 -0.004845 -0.020546
v 0.014821 -0.020281 -0.024399
v 0.019966 -0.012561 -0.012187
v 0.019966 0.007368 -0.010900
v 0.015464 0.010584 -0.033400
v 0.019322 0.008014 -0.035333
v 0.019322 -0.005484 -0.037904
v 0.020608 0.000941 -0.008970
v 0.014821 0.009942 -0.006396
v 0.014821 -0.004199 -0.037904
v 0.016108 -0.020281 -0.023754
v 0.017395 0.001583 -0.038549
v 0.018037 0.013800 -0.026325
v 0.020608 -0.004845 -0.008970
v 0.019966 0.010584 -0.014113
v 0.026396 0.002225 -0.021192
v 0.019966 -0.013203 -0.032761
v 0.015464 -0.012561 -0.034046
v 0.020608 -0.015777 -0.025044
v 0.026396 -0.004845 -0.025683
v 0.017395 0.006084 -0.006396
v 0.019966 0.012515 -0.026973
v 0.017395 0.014446 -0.015400
v 0.026396 0.000941 -0.026973
v 0.014821 0.012515 -0.028900
v 0.015464 -0.020281 -0.019262
v 0.019966 -0.006126 -0.037262
v 0.019966 0.009942 -0.032116
v 0.018680 -0.014492 -0.032116
v 0.015464 -0.010634 -0.006396
v 0.020608 -0.009345 -0.010900
f 285 260 302 
f 255 259 265 
f 260 256 265 
f 255 265 268 
f 263 258 269 
f 258 263 272 
f 259 255 273 
f 264 272 274 
f 255 276 277 
f 276 262 277 
f 261 267 278 
f 263 275 279 
f 256 257 280 
f 265 256 280 
f 257 268 280 
f 268 265 280 
f 273 255 281 
f 278 267 281 
f 259 273 282 
f 255 277 283 
f 277 266 283 
f 266 278 283 
f 281 255 283 
f 278 281 283 
f 262 276 284 
f 272 263 285 
f 279 260 285 
f 263 279 285 
f 257 256 286 
f 256 275 286 
f 286 275 287 
f 263 269 287 
f 269 271 287 
f 275 263 287 
f 271 286 287 
f 261 258 288 
f 267 261 289 
f 273 281 289 
f 281 267 289 
f 272 264 290 
f 264 282 290 
f 282 270 290 
f 258 272 291 
f 288 258 291 
f 270 288 291 
f 290 270 291 
f 272 290 291 
f 256 260 292 
f 275 256 292 
f 260 279 292 
f 279 275 292 
f 271 269 293 
f 262 284 293 
f 293 284 294 
f 268 257 294 
f 284 268 294 
f 257 286 294 
f 286 271 294 
f 271 293 294 
f 258 266 295 
f 269 258 295 
f 266 277 295 
f 255 268 296 
f 276 255 296 
f 268 284 296 
f 284 276 296 
f 265 259 297 
f 264 274 297 
f 259 282 297 
f 282 264 297 
f 258 261 298 
f 266 258 298 
f 261 278 298 
f 278 266 298 
f 277 262 299 
f 262 293 299 
f 293 269 299 
f 269 295 299 
f 295 277 299 
f 270 282 300 
f 282 273 300 
f 261 288 300 
f 288 270 300 
f 289 261 300 
f 273 289 300 
f 260 265 301 
f 274 260 301 
f 265 297 301 
f 297 274 301 
f 260 274 302 
f 274 272 302 
f 272 285 302 
o convex_6
v -0.010901 -0.058863 0.010326
v 0.015464 -0.052434 0.019327
v 0.014818 -0.044075 0.020610
v -0.000612 -0.049222 0.036047
v -0.006398 -0.042145 0.002607
v 0.006459 -0.062077 0.003894
v 0.004529 -0.062077 0.025756
v -0.011544 -0.042145 0.021252
v 0.009675 -0.042145 0.002607
v 0.004529 -0.042145 0.035402
v -0.008328 -0.060791 0.023825
v -0.001254 -0.062723 0.003252
v 0.012888 -0.059504 0.023183
v 0.014818 -0.056292 0.009684
v 0.006459 -0.047294 0.036047
v 0.003241 -0.064653 0.014185
v 0.015464 -0.042147 0.013543
v -0.012186 -0.042145 0.011612
v -0.011544 -0.057576 0.020610
v -0.002539 -0.044075 0.035402
v 0.003241 -0.055648 0.032830
v -0.005112 -0.057576 0.002607
v 0.008387 -0.057576 0.002607
v 0.012888 -0.060791 0.013540
v -0.007686 -0.062077 0.014185
v -0.003182 -0.062077 0.025756
v -0.009613 -0.056935 0.006467
v -0.012832 -0.048576 0.014185
v 0.009032 -0.061436 0.025114
v 0.015464 -0.057578 0.017399
v 0.014176 -0.042147 0.021897
v 0.000031 -0.064653 0.013540
v 0.013530 -0.056935 0.007111
v 0.014818 -0.044718 0.009684
v -0.008971 -0.056935 0.025114
v -0.011544 -0.059504 0.013540
v -0.012186 -0.048576 0.010326
v 0.014176 -0.053718 0.022542
v 0.000031 -0.055648 0.032830
v -0.010259 -0.042145 0.023825
v 0.000673 -0.042145 0.035402
v -0.002539 -0.047935 0.035402
v -0.007040 -0.060149 0.025756
v 0.003241 -0.064653 0.011612
v 0.004529 -0.062077 0.002607
v -0.010259 -0.052436 0.023825
v -0.003825 -0.062077 0.004539
v -0.012186 -0.056290 0.011612
v 0.015464 -0.056935 0.012254
v -0.012186 -0.056935 0.018686
v -0.012186 -0.043432 0.019969
v 0.009675 -0.059504 0.026401
v -0.007686 -0.061436 0.023183
v 0.010318 -0.061436 0.023183
v 0.006459 -0.046007 0.036047
v -0.001894 -0.062723 0.024470
v 0.014176 -0.059504 0.012254
v 0.014176 -0.045362 0.022542
v 0.010318 -0.057576 0.003894
v -0.010901 -0.060149 0.017403
v 0.003241 -0.060791 0.027687
v 0.002598 -0.049863 0.036047
v 0.013530 -0.057576 0.023183
f 340 317 365 
f 307 310 311 
f 311 310 312 
f 305 304 319 
f 310 307 320 
f 307 311 324 
f 324 311 325 
f 307 324 329 
f 309 318 331 
f 319 304 332 
f 315 326 332 
f 311 312 333 
f 305 319 333 
f 319 311 333 
f 311 319 336 
f 335 311 336 
f 316 335 336 
f 321 313 337 
f 320 307 339 
f 307 329 339 
f 330 320 339 
f 312 310 342 
f 322 306 343 
f 312 342 343 
f 342 322 343 
f 306 322 344 
f 322 342 344 
f 313 328 345 
f 337 313 345 
f 341 306 345 
f 328 341 345 
f 306 344 345 
f 344 337 345 
f 308 326 346 
f 326 318 346 
f 334 314 346 
f 318 334 346 
f 314 324 347 
f 324 325 347 
f 325 308 347 
f 308 346 347 
f 346 314 347 
f 321 337 348 
f 337 344 348 
f 344 342 348 
f 324 314 349 
f 303 329 349 
f 329 324 349 
f 314 334 349 
f 334 327 349 
f 338 303 349 
f 327 338 349 
f 329 303 350 
f 303 338 350 
f 330 339 350 
f 339 329 350 
f 319 332 351 
f 335 316 351 
f 336 319 351 
f 316 336 351 
f 330 350 352 
f 350 338 352 
f 310 320 353 
f 320 330 353 
f 342 310 353 
f 321 348 353 
f 348 342 353 
f 352 321 353 
f 330 352 353 
f 315 317 354 
f 317 323 354 
f 331 315 354 
f 323 331 354 
f 328 313 355 
f 327 334 355 
f 326 315 356 
f 318 326 356 
f 315 331 356 
f 331 318 356 
f 306 317 357 
f 333 312 357 
f 317 340 357 
f 343 306 357 
f 312 343 357 
f 318 309 358 
f 309 328 358 
f 334 318 358 
f 328 355 358 
f 355 334 358 
f 326 308 359 
f 332 326 359 
f 308 335 359 
f 351 332 359 
f 335 351 359 
f 304 305 360 
f 305 333 360 
f 340 304 360 
f 333 357 360 
f 357 340 360 
f 308 325 361 
f 325 311 361 
f 311 335 361 
f 335 308 361 
f 313 321 362 
f 338 327 362 
f 321 352 362 
f 352 338 362 
f 355 313 362 
f 327 355 362 
f 328 309 363 
f 309 331 363 
f 331 323 363 
f 323 341 363 
f 341 328 363 
f 317 306 364 
f 323 317 364 
f 306 341 364 
f 341 323 364 
f 317 315 365 
f 332 304 365 
f 315 332 365 
f 304 340 365 
o convex_7
v 0.011602 -0.039572 0.030902
v -0.019905 0.001584 0.002607
v -0.019905 0.001584 0.003251
v 0.019319 0.002870 0.002607
v -0.000608 -0.001633 0.036046
v -0.017974 -0.041502 0.002607
v 0.019962 -0.040211 0.002607
v -0.016043 -0.040858 0.025757
v 0.018035 0.002870 0.025754
v -0.017332 0.002870 0.025757
v 0.020608 -0.040211 0.021254
v 0.000034 -0.042145 0.032183
v -0.000608 -0.026066 0.036046
v -0.017974 -0.040215 0.021894
v 0.004531 -0.004850 0.036046
v 0.014176 -0.042145 0.009043
v 0.016103 -0.039572 0.028967
v -0.014116 0.002870 0.028970
v -0.019259 0.002870 0.021254
v -0.012184 -0.039572 0.029611
v 0.019962 -0.006136 0.021254
v 0.014818 0.002870 0.028967
v -0.019905 0.002870 0.002607
v -0.016043 -0.042145 0.002607
v -0.001251 -0.005493 0.036690
v 0.003889 -0.026066 0.036046
v -0.018617 -0.038285 0.012256
v 0.020608 -0.035712 0.010327
v 0.019319 -0.035064 0.025754
v 0.012245 -0.042145 0.025110
v 0.006459 0.002870 0.031543
v 0.009675 -0.042145 0.002607
v 0.019319 0.002870 0.023182
v -0.017332 -0.041502 0.021894
v -0.018617 -0.040858 0.002607
v 0.019962 -0.012565 0.002607
v -0.015400 -0.017712 0.027683
v 0.020608 -0.032491 0.022541
v -0.017332 -0.035712 0.024470
v 0.003242 -0.042145 0.032183
v 0.016103 -0.029283 0.028967
v 0.019962 -0.004206 0.014828
v 0.001958 -0.002920 0.036690
v -0.005756 0.002870 0.031543
v -0.010257 -0.040858 0.030255
v -0.009614 -0.042145 0.025114
v 0.015461 -0.042145 0.014831
v 0.016750 -0.040858 0.027039
v 0.019319 -0.040858 0.002607
v -0.002540 -0.006136 0.036046
v 0.016103 -0.004206 0.028330
v -0.019259 -0.011279 0.014828
v -0.019259 -0.025423 0.003251
v 0.003242 -0.027349 0.036046
v 0.019962 -0.039567 0.024470
v -0.015400 -0.038285 0.027042
v -0.014758 -0.041502 0.026398
v -0.018617 -0.026066 0.019966
v -0.018617 -0.002920 0.023182
v -0.012827 -0.016430 0.029611
v 0.013530 -0.040215 0.030255
v -0.017332 -0.004850 0.025757
f 424 404 427 
f 367 369 371 
f 371 369 372 
f 374 369 375 
f 374 375 383 
f 375 369 384 
f 374 383 387 
f 367 368 388 
f 369 367 388 
f 368 384 388 
f 384 369 388 
f 371 372 389 
f 381 377 389 
f 370 383 390 
f 382 380 391 
f 376 372 393 
f 377 381 395 
f 387 383 396 
f 389 372 397 
f 381 389 397 
f 369 374 398 
f 374 394 398 
f 373 379 399 
f 371 389 399 
f 367 371 400 
f 379 392 400 
f 371 399 400 
f 399 379 400 
f 372 369 401 
f 393 372 401 
f 376 393 403 
f 386 398 403 
f 398 394 403 
f 379 373 404 
f 377 395 405 
f 380 382 406 
f 382 394 406 
f 369 398 407 
f 398 386 407 
f 401 369 407 
f 393 401 407 
f 403 393 407 
f 386 403 407 
f 380 387 408 
f 370 390 408 
f 391 380 408 
f 396 370 408 
f 387 396 408 
f 383 370 409 
f 370 396 409 
f 396 383 409 
f 377 378 410 
f 378 385 410 
f 389 377 411 
f 399 389 411 
f 395 381 412 
f 395 412 413 
f 405 395 413 
f 412 376 413 
f 372 376 414 
f 397 372 414 
f 381 397 414 
f 376 412 414 
f 412 381 414 
f 385 378 415 
f 378 390 415 
f 390 383 415 
f 387 380 416 
f 374 387 416 
f 394 374 416 
f 380 406 416 
f 406 394 416 
f 384 368 417 
f 392 417 418 
f 368 367 418 
f 367 400 418 
f 400 392 418 
f 417 368 418 
f 378 377 419 
f 390 378 419 
f 405 366 419 
f 377 405 419 
f 408 390 419 
f 391 408 419 
f 394 382 420 
f 376 403 420 
f 403 394 420 
f 413 376 420 
f 382 413 420 
f 373 385 421 
f 385 402 421 
f 404 373 421 
f 385 373 422 
f 373 399 422 
f 377 410 422 
f 410 385 422 
f 411 377 422 
f 399 411 422 
f 379 384 423 
f 392 379 423 
f 384 417 423 
f 417 392 423 
f 375 384 424 
f 384 379 424 
f 379 404 424 
f 383 402 425 
f 402 385 425 
f 385 415 425 
f 415 383 425 
f 382 391 426 
f 366 405 426 
f 413 382 426 
f 405 413 426 
f 419 366 426 
f 391 419 426 
f 383 375 427 
f 402 383 427 
f 421 402 427 
f 404 421 427 
f 375 424 427 
o convex_8
v -0.019907 -0.048571 -0.033400
v -0.015404 -0.028641 -0.006396
v -0.015404 -0.025431 -0.008325
v -0.027622 -0.034433 -0.019262
v -0.017334 -0.026715 -0.035333
v -0.015404 -0.051146 -0.014113
v -0.021832 -0.047287 -0.012187
v -0.015404 -0.018994 -0.023112
v -0.016047 -0.040854 -0.037262
v -0.027622 -0.038924 -0.026973
v -0.021832 -0.022856 -0.023754
v -0.021194 -0.032500 -0.037262
v -0.021832 -0.030571 -0.009612
v -0.021194 -0.051146 -0.026973
v -0.016692 -0.041499 -0.006396
v -0.021194 -0.024786 -0.032116
v -0.021832 -0.024786 -0.014758
v -0.016692 -0.050501 -0.029545
v -0.027622 -0.032500 -0.024399
v -0.021832 -0.037643 -0.008325
v -0.027622 -0.040215 -0.020546
v -0.021194 -0.040854 -0.037262
v -0.016047 -0.018994 -0.016046
v -0.021194 -0.051146 -0.018620
v -0.016047 -0.034433 -0.037904
v -0.015404 -0.037643 -0.028900
v -0.015404 -0.046000 -0.008970
v -0.015404 -0.051146 -0.019901
v -0.021194 -0.045355 -0.035333
v -0.017334 -0.018994 -0.023112
v -0.027622 -0.033788 -0.026325
v -0.017334 -0.044716 -0.036620
v -0.017978 -0.051791 -0.026973
v -0.021194 -0.022214 -0.019262
v -0.016047 -0.023499 -0.009612
v -0.019263 -0.035072 -0.038549
v -0.017978 -0.032500 -0.006396
v -0.027622 -0.040854 -0.023112
v -0.027622 -0.038924 -0.019262
v -0.019263 -0.024141 -0.032761
v -0.021194 -0.049862 -0.030187
v -0.021194 -0.027361 -0.034688
v -0.016047 -0.027999 -0.035333
v -0.016047 -0.047932 -0.032116
v -0.021194 -0.046645 -0.010900
v -0.021194 -0.022856 -0.028258
v -0.021194 -0.035714 -0.037904
v -0.019907 -0.051791 -0.018620
v -0.019263 -0.029929 -0.037262
v -0.021194 -0.042786 -0.008970
v -0.027622 -0.032500 -0.022473
v -0.019907 -0.041499 -0.037904
v -0.015404 -0.041499 -0.006396
v -0.020549 -0.050501 -0.015400
f 451 475 481 
f 430 429 433 
f 430 433 435 
f 431 440 444 
f 437 431 446 
f 440 431 447 
f 431 437 448 
f 430 435 450 
f 434 448 451 
f 435 433 453 
f 452 435 453 
f 436 452 453 
f 433 429 454 
f 453 433 455 
f 436 453 455 
f 437 449 456 
f 450 435 457 
f 437 446 458 
f 446 443 458 
f 445 428 459 
f 428 456 459 
f 428 445 460 
f 455 433 460 
f 445 455 460 
f 444 450 461 
f 457 438 461 
f 450 457 461 
f 429 430 462 
f 440 429 462 
f 444 440 462 
f 430 450 462 
f 450 444 462 
f 452 436 463 
f 429 440 464 
f 442 429 464 
f 440 447 464 
f 447 442 464 
f 448 437 465 
f 441 451 465 
f 451 448 465 
f 447 431 466 
f 431 448 466 
f 448 434 466 
f 435 432 467 
f 457 435 467 
f 456 428 468 
f 437 456 468 
f 428 460 468 
f 460 441 468 
f 465 437 468 
f 441 465 468 
f 439 458 469 
f 458 443 469 
f 443 467 469 
f 432 435 470 
f 452 432 470 
f 435 452 470 
f 436 455 471 
f 455 445 471 
f 459 436 471 
f 445 459 471 
f 433 454 472 
f 454 442 472 
f 446 438 473 
f 443 446 473 
f 438 457 473 
f 467 443 473 
f 457 467 473 
f 449 437 474 
f 437 458 474 
f 458 439 474 
f 439 463 474 
f 451 441 475 
f 441 460 475 
f 460 433 475 
f 432 452 476 
f 463 439 476 
f 452 463 476 
f 467 432 476 
f 439 469 476 
f 469 467 476 
f 442 447 477 
f 447 466 477 
f 466 434 477 
f 434 472 477 
f 472 442 477 
f 431 444 478 
f 446 431 478 
f 438 446 478 
f 461 438 478 
f 444 461 478 
f 456 449 479 
f 436 459 479 
f 459 456 479 
f 463 436 479 
f 449 474 479 
f 474 463 479 
f 429 442 480 
f 454 429 480 
f 442 454 480 
f 434 451 481 
f 433 472 481 
f 472 434 481 
f 475 433 481 
o convex_9
v 0.023181 0.024735 -0.030832
v 0.016107 0.055602 -0.006396
v 0.014821 0.055602 -0.006396
v 0.014821 0.018950 -0.006396
v 0.016751 0.036950 -0.037904
v 0.021894 0.030524 -0.008970
v 0.021250 0.045954 -0.028900
v 0.014821 0.015735 -0.022473
v 0.021894 0.018950 -0.017330
v 0.022537 0.042090 -0.017972
v 0.021250 0.026664 -0.037262
v 0.014821 0.047239 -0.021834
v 0.018037 0.019594 -0.032116
v 0.023181 0.036305 -0.032761
v 0.017393 0.045954 -0.031471
v 0.023181 0.027954 -0.013474
v 0.021250 0.018305 -0.028900
v 0.016751 0.014446 -0.012829
v 0.021250 0.039520 -0.036620
v 0.017393 0.020879 -0.006396
v 0.016751 0.027313 -0.037262
v 0.014821 0.031173 -0.028900
v 0.022537 0.038235 -0.013474
v 0.021894 0.022168 -0.012829
v 0.016107 0.041450 -0.034688
v 0.014821 0.014446 -0.020546
v 0.022537 0.043383 -0.021192
v 0.023181 0.022168 -0.020546
v 0.018037 0.038235 -0.006396
v 0.019965 0.030524 -0.038549
v 0.023181 0.036950 -0.019901
v 0.020608 0.046598 -0.029545
v 0.021894 0.018305 -0.026973
v 0.021250 0.021520 -0.034046
v 0.014821 0.014446 -0.010900
v 0.021894 0.029239 -0.037262
v 0.017393 0.022809 -0.035333
v 0.017393 0.014446 -0.017972
v 0.019321 0.043383 -0.034688
v 0.021250 0.036950 -0.008970
v 0.016107 0.045309 -0.030832
v 0.021250 0.046598 -0.019262
v 0.021250 0.035660 -0.037904
v 0.021250 0.042739 -0.012187
v 0.022537 0.041450 -0.030187
v 0.014821 0.055602 -0.007041
v 0.021250 0.046598 -0.026973
v 0.017393 0.040809 -0.036620
f 500 524 529 
f 483 484 485 
f 485 484 489 
f 489 484 493 
f 482 495 497 
f 483 485 501 
f 489 493 503 
f 486 502 503 
f 502 489 503 
f 487 497 504 
f 497 487 505 
f 499 490 505 
f 487 501 505 
f 501 499 505 
f 486 503 506 
f 503 493 506 
f 485 489 507 
f 489 494 507 
f 494 498 507 
f 482 497 509 
f 505 490 509 
f 497 505 509 
f 483 501 510 
f 501 487 510 
f 502 486 511 
f 492 502 511 
f 497 495 512 
f 491 504 512 
f 504 497 512 
f 508 491 512 
f 495 508 512 
f 488 500 513 
f 482 509 514 
f 509 490 514 
f 498 494 515 
f 482 514 515 
f 514 498 515 
f 501 485 516 
f 499 501 516 
f 485 507 516 
f 507 499 516 
f 495 482 517 
f 492 511 517 
f 482 515 517 
f 515 492 517 
f 494 489 518 
f 489 502 518 
f 502 492 518 
f 492 515 518 
f 515 494 518 
f 490 499 519 
f 507 498 519 
f 499 507 519 
f 498 514 519 
f 514 490 519 
f 496 513 520 
f 513 500 520 
f 487 504 521 
f 483 510 521 
f 510 487 521 
f 506 493 522 
f 483 491 523 
f 491 508 523 
f 500 495 524 
f 511 486 524 
f 495 517 524 
f 517 511 524 
f 491 483 525 
f 504 491 525 
f 483 521 525 
f 521 504 525 
f 500 488 526 
f 495 500 526 
f 508 495 526 
f 484 483 527 
f 493 484 527 
f 483 513 527 
f 513 496 527 
f 522 493 527 
f 496 522 527 
f 513 483 528 
f 488 513 528 
f 483 523 528 
f 523 508 528 
f 526 488 528 
f 508 526 528 
f 486 506 529 
f 520 500 529 
f 496 520 529 
f 522 496 529 
f 506 522 529 
f 524 486 529 
o convex_10
v 0.023181 0.029238 -0.026972
v 0.025110 0.033094 -0.017973
v 0.027038 0.035023 -0.018616
v 0.023181 0.037596 -0.024401
v 0.027682 0.030523 -0.026972
v 0.023181 0.028595 -0.019902
v 0.027682 0.028595 -0.021188
v 0.027682 0.035023 -0.026972
v 0.023181 0.035666 -0.018616
v 0.027682 0.036309 -0.020545
v 0.023181 0.035023 -0.027617
v 0.026396 0.027950 -0.024401
v 0.027038 0.030523 -0.018616
v 0.026396 0.037596 -0.022474
f 538 539 543 
f 533 530 535 
f 536 534 537 
f 531 532 538 
f 535 531 538 
f 533 535 538 
f 536 537 539 
f 538 532 539 
f 530 533 540 
f 534 530 540 
f 537 534 540 
f 533 537 540 
f 530 534 541 
f 535 530 541 
f 536 535 541 
f 534 536 541 
f 532 531 542 
f 531 535 542 
f 535 536 542 
f 539 532 542 
f 536 539 542 
f 537 533 543 
f 533 538 543 
f 539 537 543 
o convex_11
v -0.026336 -0.004203 -0.027617
v -0.023764 -0.000346 -0.017973
v -0.023764 0.000940 -0.018616
v -0.028909 -0.000346 -0.019259
v -0.023764 -0.007419 -0.021188
v -0.023764 0.002227 -0.025686
v -0.028265 -0.006775 -0.020545
v -0.028909 -0.000346 -0.026329
v -0.023764 -0.006775 -0.025686
v -0.027621 0.002227 -0.021188
v -0.028909 -0.005489 -0.025686
v -0.025693 -0.004203 -0.017973
v -0.023764 -0.000346 -0.027617
v -0.026979 -0.007419 -0.023758
f 554 552 557 
f 545 546 547 
f 546 545 548 
f 546 548 549 
f 549 548 552 
f 547 546 553 
f 546 549 553 
f 551 547 553 
f 549 551 553 
f 550 547 554 
f 547 551 554 
f 551 544 554 
f 544 552 554 
f 545 547 555 
f 548 545 555 
f 547 550 555 
f 550 548 555 
f 551 549 556 
f 544 551 556 
f 552 544 556 
f 549 552 556 
f 548 550 557 
f 552 548 557 
f 550 554 557 
o convex_12
v -0.023121 -0.007418 -0.035334
v -0.015404 0.007371 -0.006396
v -0.015404 0.008013 -0.007040
v -0.015404 -0.018994 -0.023110
v -0.022478 -0.009348 -0.010254
v -0.018620 0.011230 -0.030831
v -0.023121 0.010585 -0.017975
v -0.017334 0.000296 -0.036620
v -0.015404 -0.013848 -0.007040
v -0.015404 0.011872 -0.022469
v -0.022478 -0.016420 -0.019903
v -0.022478 0.006726 -0.035334
v -0.023764 0.000938 -0.012185
v -0.017977 -0.014490 -0.032758
v -0.022478 0.000296 -0.008327
v -0.023764 0.008013 -0.028255
v -0.023764 -0.012561 -0.026327
v -0.021833 -0.016420 -0.028903
v -0.021191 0.013159 -0.021833
v -0.016047 -0.018349 -0.012185
v -0.017977 -0.006131 -0.037906
v -0.015404 -0.004844 -0.028255
v -0.022478 0.009301 -0.012827
v -0.019264 -0.004844 -0.006396
v -0.021833 -0.008060 -0.037262
v -0.017977 0.003513 -0.037262
v -0.023764 -0.009990 -0.015399
v -0.022478 0.011872 -0.028255
v -0.022478 -0.001633 -0.037906
v -0.021833 -0.014490 -0.013475
v -0.023764 0.000296 -0.034045
v -0.019264 0.012514 -0.017330
v -0.017334 -0.008060 -0.036620
v -0.021191 -0.017707 -0.021833
v -0.021833 -0.012561 -0.034689
v -0.016047 -0.012561 -0.006396
v -0.018620 0.003513 -0.006396
v -0.019264 0.013159 -0.025686
v -0.017977 0.006726 -0.035334
v -0.016047 -0.015778 -0.008327
v -0.017977 -0.011919 -0.035334
v -0.022478 -0.004202 -0.008327
v -0.023764 0.008013 -0.017975
v -0.015404 -0.018994 -0.014758
v -0.015404 -0.000346 -0.028255
v -0.021191 0.002225 -0.037906
v -0.021833 0.011872 -0.016689
v -0.023764 -0.011277 -0.029541
v -0.019904 -0.016420 -0.030186
v -0.017334 -0.018994 -0.023110
v -0.021833 0.006726 -0.010254
v -0.021833 0.009301 -0.033403
f 596 569 609 
f 560 559 561 
f 561 559 566 
f 560 561 567 
f 570 573 574 
f 568 574 575 
f 567 561 579 
f 559 560 580 
f 570 572 580 
f 567 565 583 
f 565 578 583 
f 570 574 584 
f 574 568 584 
f 573 564 585 
f 569 573 585 
f 564 576 585 
f 582 558 586 
f 578 582 586 
f 568 577 587 
f 562 584 587 
f 584 568 587 
f 573 569 588 
f 574 573 588 
f 586 558 588 
f 569 586 588 
f 560 567 589 
f 578 565 590 
f 579 561 590 
f 565 579 590 
f 568 575 591 
f 577 568 591 
f 558 582 592 
f 566 559 593 
f 559 581 593 
f 581 559 594 
f 572 581 594 
f 567 563 595 
f 563 585 595 
f 585 576 595 
f 589 567 595 
f 576 589 595 
f 563 567 596 
f 567 583 596 
f 583 569 596 
f 562 587 597 
f 587 577 597 
f 566 593 597 
f 593 562 597 
f 561 571 598 
f 582 578 598 
f 590 561 598 
f 578 590 598 
f 571 592 598 
f 592 582 598 
f 572 570 599 
f 581 572 599 
f 584 562 599 
f 570 584 599 
f 593 581 599 
f 562 593 599 
f 564 573 600 
f 573 570 600 
f 580 564 600 
f 570 580 600 
f 561 566 601 
f 577 591 601 
f 566 597 601 
f 597 577 601 
f 565 567 602 
f 567 579 602 
f 579 565 602 
f 583 578 603 
f 569 583 603 
f 586 569 603 
f 578 586 603 
f 576 564 604 
f 580 560 604 
f 564 580 604 
f 560 589 604 
f 589 576 604 
f 575 574 605 
f 574 588 605 
f 588 558 605 
f 558 592 605 
f 592 575 605 
f 571 561 606 
f 592 571 606 
f 575 592 606 
f 591 575 607 
f 561 601 607 
f 601 591 607 
f 606 561 607 
f 575 606 607 
f 559 580 608 
f 580 572 608 
f 594 559 608 
f 572 594 608 
f 585 563 609 
f 569 585 609 
f 563 596 609 
