o convex_0
v -0.019310 -0.003961 0.037692
v 0.019823 0.032516 0.009836
v 0.020485 0.031851 0.013152
v 0.019160 -0.007942 0.006517
v -0.024618 0.028531 0.006517
v 0.020485 0.012613 0.035698
v -0.019973 -0.007942 0.006517
v -0.019310 0.025216 0.028405
v 0.022477 -0.007281 0.031721
v 0.023801 0.028531 0.006517
v -0.023289 -0.005952 0.032381
v -0.020635 0.012613 0.036364
v -0.000070 -0.009267 0.031718
v 0.020485 0.025216 0.027077
v -0.017981 0.031847 0.015804
v 0.025131 0.000019 0.031721
v 0.019823 -0.000646 0.037028
v 0.013852 -0.009932 0.006517
v -0.023951 0.019245 0.029068
v 0.024463 -0.003297 0.021112
v -0.017981 0.032508 0.006517
v -0.019310 -0.008603 0.033045
v 0.024463 0.021235 0.025749
v -0.012016 -0.009932 0.006517
v -0.016656 0.005986 0.038356
v -0.023951 -0.003961 0.022436
v 0.017169 0.029857 0.021112
v -0.013340 0.019245 0.033709
v 0.015177 -0.005952 0.035698
v -0.024618 0.017255 0.006517
v -0.019973 0.029192 0.022436
v 0.023801 0.017259 0.006517
v 0.016502 0.021896 0.031057
v -0.023951 -0.001306 0.033709
v 0.011861 -0.009932 0.019787
v 0.015839 0.009966 0.037025
v -0.024618 0.025876 0.018456
v 0.019823 0.032516 0.006517
v 0.023801 0.011292 0.033709
v -0.014002 0.012613 0.037028
v 0.017831 -0.008603 0.031718
v -0.022627 0.031182 0.011824
v -0.010686 -0.007942 0.035037
v 0.016502 0.032508 0.013152
v 0.024463 0.025880 0.013152
v 0.009207 0.017255 0.034373
v 0.015177 0.026541 0.026413
v 0.022477 0.029196 0.017796
v -0.000070 -0.009932 0.021112
v -0.023289 0.008641 0.035037
v -0.024618 0.009966 0.021115
v 0.019823 -0.007281 0.006517
v 0.021147 0.017915 0.033045
v 0.023139 -0.002636 0.035037
v -0.010024 -0.003961 0.037692
v -0.006708 0.031182 0.018456
v -0.009362 0.027867 0.025085
v -0.019310 0.022561 0.031054
v -0.022627 0.026541 0.023758
v -0.019310 0.032508 0.011824
v 0.022477 -0.007281 0.021776
v -0.018643 0.001345 0.038356
v 0.007882 0.005325 0.037692
v 0.024463 -0.004626 0.031721
f 61 20 64 
f 5 4 7 
f 2 3 10 
f 4 5 10 
f 7 4 18 
f 10 5 21 
f 11 7 22 
f 1 11 22 
f 7 18 24 
f 22 7 24 
f 7 11 26 
f 5 7 30 
f 7 26 30 
f 4 10 32 
f 11 1 34 
f 26 11 34 
f 24 18 35 
f 17 6 36 
f 5 30 37 
f 34 19 37 
f 2 10 38 
f 10 21 38 
f 6 17 39 
f 16 23 39 
f 12 25 40 
f 28 12 40 
f 25 36 40 
f 18 9 41 
f 9 29 41 
f 13 35 41 
f 35 18 41 
f 21 5 42 
f 5 37 42 
f 1 22 43 
f 22 13 43 
f 41 29 43 
f 13 41 43 
f 3 2 44 
f 27 3 44 
f 16 20 45 
f 23 16 45 
f 32 10 45 
f 20 32 45 
f 33 28 46 
f 36 6 46 
f 28 40 46 
f 40 36 46 
f 14 27 47 
f 8 33 47 
f 33 14 47 
f 10 3 48 
f 14 23 48 
f 3 27 48 
f 27 14 48 
f 45 10 48 
f 23 45 48 
f 13 22 49 
f 22 24 49 
f 35 13 49 
f 24 35 49 
f 12 19 50 
f 34 1 50 
f 19 34 50 
f 30 26 51 
f 26 34 51 
f 37 30 51 
f 34 37 51 
f 4 32 52 
f 32 20 52 
f 23 14 53 
f 14 33 53 
f 6 39 53 
f 39 23 53 
f 46 6 53 
f 33 46 53 
f 29 9 54 
f 17 29 54 
f 39 17 54 
f 16 39 54 
f 29 17 55 
f 1 43 55 
f 43 29 55 
f 15 31 56 
f 31 27 56 
f 44 15 56 
f 27 44 56 
f 31 8 57 
f 27 31 57 
f 47 27 57 
f 8 47 57 
f 19 12 58 
f 12 28 58 
f 33 8 58 
f 28 33 58 
f 8 31 59 
f 37 19 59 
f 31 42 59 
f 42 37 59 
f 58 8 59 
f 19 58 59 
f 31 15 60 
f 2 38 60 
f 38 21 60 
f 21 42 60 
f 42 31 60 
f 44 2 60 
f 15 44 60 
f 18 4 61 
f 9 18 61 
f 4 52 61 
f 52 20 61 
f 25 12 62 
f 50 1 62 
f 12 50 62 
f 1 55 62 
f 55 17 62 
f 17 36 63 
f 36 25 63 
f 25 62 63 
f 62 17 63 
f 20 16 64 
f 54 9 64 
f 16 54 64 
f 9 61 64 
o convex_1
v -0.009360 -0.078918 0.062236
v 0.015844 -0.062341 0.091419
v 0.015178 -0.062341 0.092078
v -0.008032 -0.062341 0.070200
v 0.014514 -0.068973 0.053612
v 0.015178 -0.080908 0.076161
v -0.008032 -0.070300 0.090756
v -0.009360 -0.068973 0.054942
v -0.008696 -0.062341 0.091419
v -0.008696 -0.080246 0.078153
v 0.015178 -0.077593 0.058263
v 0.013851 -0.076265 0.086113
v 0.015844 -0.062341 0.072188
v 0.005228 -0.081575 0.066216
v -0.007369 -0.073612 0.054942
v 0.015839 -0.070963 0.089427
v -0.007369 -0.078255 0.083458
v 0.015839 -0.080246 0.065553
v -0.008032 -0.081575 0.073510
v -0.006705 -0.080246 0.062236
v 0.013851 -0.067647 0.055604
v 0.004565 -0.064994 0.092748
v -0.008032 -0.068310 0.054283
v 0.015178 -0.072287 0.054283
v 0.013187 -0.070300 0.090756
v -0.007369 -0.072949 0.089427
v 0.007880 -0.080246 0.079474
v 0.014514 -0.062341 0.070200
v -0.009360 -0.064329 0.070859
v 0.014514 -0.080908 0.064231
v -0.008032 -0.062341 0.092748
v -0.008696 -0.074275 0.087439
v 0.015178 -0.081575 0.071529
v -0.006705 -0.078255 0.058922
v -0.006705 -0.070963 0.053612
v 0.014514 -0.074275 0.054942
v -0.007369 -0.081575 0.066886
v -0.009360 -0.080246 0.067545
v 0.015844 -0.067645 0.062236
v 0.015839 -0.077593 0.082796
v 0.012523 -0.078918 0.059588
v -0.007369 -0.067647 0.092078
v 0.013187 -0.079583 0.080807
v -0.007369 -0.080908 0.077486
v 0.009871 -0.081575 0.074831
v 0.015178 -0.065657 0.092078
v -0.008032 -0.067647 0.055604
v -0.007369 -0.076930 0.085450
v 0.010535 -0.073612 0.088764
v -0.009360 -0.072949 0.055604
v 0.014514 -0.071626 0.053612
v 0.015839 -0.076930 0.059588
v 0.015178 -0.068310 0.054942
f 116 88 117 
f 67 66 68 
f 67 68 73 
f 68 66 77 
f 85 69 87 
f 76 80 89 
f 89 71 90 
f 68 77 92 
f 85 68 92 
f 72 65 93 
f 68 72 93 
f 73 68 93 
f 75 82 94 
f 78 84 94 
f 67 73 95 
f 73 71 95 
f 86 67 95 
f 71 73 96 
f 74 81 96 
f 90 71 96 
f 82 70 97 
f 83 78 97 
f 78 94 97 
f 94 82 97 
f 84 65 98 
f 72 87 99 
f 87 69 99 
f 88 75 100 
f 98 79 100 
f 78 83 101 
f 84 78 101 
f 65 84 101 
f 83 74 102 
f 93 65 102 
f 73 93 102 
f 96 73 102 
f 74 96 102 
f 65 101 102 
f 101 83 102 
f 77 66 103 
f 66 80 104 
f 80 76 104 
f 70 82 104 
f 103 66 104 
f 82 103 104 
f 75 94 105 
f 94 84 105 
f 84 98 105 
f 100 75 105 
f 98 100 105 
f 71 89 106 
f 89 86 106 
f 95 71 106 
f 86 95 106 
f 76 81 107 
f 81 91 107 
f 70 104 107 
f 104 76 107 
f 81 74 108 
f 74 83 108 
f 91 81 108 
f 91 108 109 
f 97 70 109 
f 83 97 109 
f 70 107 109 
f 107 91 109 
f 108 83 109 
f 66 67 110 
f 80 66 110 
f 67 86 110 
f 89 80 110 
f 86 89 110 
f 72 68 111 
f 68 85 111 
f 87 72 111 
f 85 87 111 
f 81 76 112 
f 96 81 112 
f 90 96 112 
f 76 89 113 
f 89 90 113 
f 112 76 113 
f 90 112 113 
f 65 72 114 
f 98 65 114 
f 79 98 114 
f 72 99 114 
f 99 79 114 
f 69 88 115 
f 79 99 115 
f 99 69 115 
f 88 100 115 
f 100 79 115 
f 82 75 116 
f 75 88 116 
f 103 82 116 
f 103 116 117 
f 69 85 117 
f 88 69 117 
f 92 77 117 
f 85 92 117 
f 77 103 117 
o convex_2
v -0.002729 -0.053715 0.066219
v 0.015844 -0.057033 0.091418
v 0.015179 -0.058357 0.092080
v -0.008033 -0.054380 0.090092
v -0.008699 -0.062338 0.072188
v 0.015179 -0.062338 0.072188
v -0.008033 -0.062338 0.092743
v 0.008546 -0.053715 0.065557
v 0.015844 -0.054380 0.090092
v 0.015844 -0.062338 0.091418
v 0.001252 -0.061011 0.068873
v 0.007880 -0.053715 0.085449
v -0.006707 -0.057697 0.092743
v -0.008699 -0.055043 0.087439
v 0.015844 -0.059684 0.076832
v -0.000735 -0.054380 0.064889
v 0.012524 -0.062338 0.092743
v 0.007880 -0.061674 0.069535
v 0.011863 -0.055043 0.091418
v -0.002729 -0.053715 0.084121
v 0.007220 -0.054380 0.064889
v -0.008699 -0.062338 0.092080
v -0.003392 -0.053715 0.066882
v 0.015844 -0.054380 0.087439
v -0.001400 -0.062338 0.070198
v -0.007370 -0.054380 0.090755
f 129 137 143 
f 122 123 124 
f 119 120 127 
f 124 123 127 
f 126 119 127 
f 125 118 129 
f 126 125 129 
f 123 125 132 
f 127 123 132 
f 126 127 132 
f 122 118 133 
f 118 125 133 
f 127 120 134 
f 124 127 134 
f 120 130 134 
f 130 124 134 
f 120 119 136 
f 119 126 136 
f 130 120 136 
f 129 118 137 
f 125 123 138 
f 133 125 138 
f 128 133 138 
f 123 135 138 
f 135 128 138 
f 122 124 139 
f 124 130 139 
f 130 121 139 
f 121 131 139 
f 131 122 139 
f 118 122 140 
f 131 121 140 
f 122 131 140 
f 137 118 140 
f 121 137 140 
f 125 126 141 
f 132 125 141 
f 126 132 141 
f 123 122 142 
f 122 133 142 
f 133 128 142 
f 135 123 142 
f 128 135 142 
f 126 129 143 
f 121 130 143 
f 136 126 143 
f 130 136 143 
f 137 121 143 
o convex_3
v 0.005894 -0.039124 0.078816
v -0.002065 -0.053715 0.064891
v 0.007884 -0.053715 0.064891
v 0.006557 -0.035143 0.052949
v -0.004055 -0.035143 0.073509
v -0.000738 -0.053715 0.085445
v 0.009874 -0.053715 0.082130
v -0.004055 -0.035143 0.053617
v 0.008548 -0.035143 0.074836
v -0.003391 -0.053715 0.079477
v 0.008548 -0.037133 0.057597
v -0.001401 -0.035143 0.076824
v -0.004055 -0.048409 0.064891
v 0.008548 -0.053052 0.084784
v 0.009210 -0.053715 0.066883
v -0.000738 -0.037133 0.053617
v -0.002729 -0.053052 0.084122
v 0.009210 -0.037799 0.072844
v 0.006557 -0.050398 0.062238
v -0.003391 -0.053715 0.066883
v 0.007884 -0.035143 0.054279
v 0.005894 -0.053052 0.085445
v 0.007884 -0.035143 0.076162
v 0.009874 -0.053052 0.078151
v -0.003391 -0.035806 0.052949
v 0.006557 -0.035806 0.052949
v -0.000738 -0.053052 0.085445
v -0.002729 -0.037799 0.077489
f 160 170 171 
f 145 146 149 
f 149 146 150 
f 148 147 151 
f 147 148 152 
f 145 149 153 
f 152 148 155 
f 148 151 156 
f 153 148 156 
f 149 150 157 
f 150 152 157 
f 150 146 158 
f 153 149 160 
f 148 153 160 
f 152 150 161 
f 154 152 161 
f 146 145 162 
f 145 159 162 
f 145 153 163 
f 156 151 163 
f 153 156 163 
f 147 152 164 
f 152 154 164 
f 158 146 164 
f 154 158 164 
f 157 144 165 
f 149 157 165 
f 155 144 166 
f 152 155 166 
f 144 157 166 
f 157 152 166 
f 150 158 167 
f 158 154 167 
f 161 150 167 
f 154 161 167 
f 151 147 168 
f 159 145 168 
f 145 163 168 
f 163 151 168 
f 146 162 169 
f 162 159 169 
f 164 146 169 
f 147 164 169 
f 168 147 169 
f 159 168 169 
f 144 155 170 
f 160 149 170 
f 149 165 170 
f 165 144 170 
f 155 148 171 
f 148 160 171 
f 170 155 171 
o convex_4
v 0.001912 -0.015910 0.061566
v 0.003238 -0.035143 0.051631
v 0.005228 -0.035143 0.051631
v 0.005229 -0.011928 0.029733
v -0.005381 -0.031823 0.029733
v -0.004054 -0.035143 0.073511
v -0.005381 -0.013258 0.032392
v 0.008548 -0.034477 0.074834
v 0.007221 -0.031159 0.029733
v 0.007883 -0.017900 0.059580
v -0.004054 -0.020552 0.066875
v -0.006045 -0.015246 0.029733
v 0.005228 -0.021881 0.069525
v 0.007221 -0.018564 0.030396
v -0.001402 -0.033813 0.076165
v -0.004054 -0.033147 0.029733
v -0.003390 -0.014582 0.052949
v 0.008548 -0.035143 0.060239
v 0.005229 -0.033147 0.029733
v -0.004717 -0.035143 0.057590
v 0.006556 -0.015246 0.057590
v -0.004717 -0.019891 0.064221
v -0.003390 -0.011928 0.031065
v 0.007221 -0.035143 0.076165
v 0.007221 -0.018564 0.064884
v 0.003901 -0.013255 0.045659
v 0.006556 -0.013258 0.029733
v -0.002729 -0.019225 0.066875
v 0.008548 -0.026517 0.066875
v -0.004717 -0.025187 0.067534
v -0.002729 -0.025187 0.071520
v -0.004054 -0.016571 0.060239
v 0.005894 -0.028507 0.073511
v 0.007883 -0.023206 0.068866
v -0.005381 -0.029832 0.041677
v 0.004565 -0.017900 0.065543
v -0.003390 -0.035143 0.052290
v -0.005381 -0.016571 0.048308
v 0.007221 -0.015246 0.035041
v 0.001251 -0.013917 0.050963
v 0.007883 -0.035143 0.053617
f 190 180 212 
f 173 174 177 
f 176 175 180 
f 175 176 183 
f 174 173 187 
f 176 180 187 
f 177 174 189 
f 180 185 189 
f 174 187 190 
f 187 180 190 
f 173 177 191 
f 176 187 191 
f 175 183 194 
f 183 178 194 
f 178 188 194 
f 186 177 195 
f 177 189 195 
f 189 179 195 
f 181 192 196 
f 192 175 197 
f 175 194 197 
f 180 175 198 
f 185 180 198 
f 175 192 198 
f 192 181 198 
f 179 189 200 
f 189 185 200 
f 177 182 201 
f 191 177 201 
f 182 193 201 
f 182 177 202 
f 177 186 202 
f 199 182 202 
f 184 199 202 
f 172 188 203 
f 188 178 203 
f 193 182 203 
f 182 199 203 
f 199 172 203 
f 195 179 204 
f 186 195 204 
f 202 186 204 
f 184 202 204 
f 181 196 205 
f 196 184 205 
f 200 181 205 
f 179 200 205 
f 204 179 205 
f 184 204 205 
f 183 176 206 
f 176 191 206 
f 191 201 206 
f 201 183 206 
f 192 172 207 
f 184 196 207 
f 196 192 207 
f 199 184 207 
f 172 199 207 
f 187 173 208 
f 173 191 208 
f 191 187 208 
f 178 183 209 
f 183 201 209 
f 201 193 209 
f 203 178 209 
f 193 203 209 
f 185 198 210 
f 198 181 210 
f 181 200 210 
f 200 185 210 
f 188 172 211 
f 172 192 211 
f 194 188 211 
f 192 197 211 
f 197 194 211 
f 189 174 212 
f 180 189 212 
f 174 190 212 
o convex_5
v -0.021295 -0.037128 -0.006086
v 0.027778 0.006642 0.003862
v 0.027778 0.006642 -0.011392
v -0.027932 0.006638 0.005189
v 0.024466 -0.035136 0.003862
v -0.034568 -0.008615 -0.012720
v 0.026453 -0.033148 -0.012055
v -0.025938 -0.031156 0.005852
v -0.019308 0.006638 -0.012720
v 0.019154 0.006638 0.006517
v 0.032427 -0.014583 -0.012720
v -0.025938 -0.035136 -0.010729
v 0.014511 -0.034472 0.006517
v 0.019154 -0.036464 -0.012055
v -0.025938 0.006638 0.006517
v -0.021957 -0.037128 0.003862
v -0.034568 -0.016567 -0.012720
v 0.027115 -0.029832 0.003862
v -0.027932 0.006638 -0.010065
v -0.027932 -0.030496 0.004526
v 0.011862 -0.037128 0.002536
v 0.022472 0.006642 -0.012720
v -0.015327 -0.027839 -0.012720
v -0.014003 -0.034472 0.006517
v -0.020633 -0.036464 -0.011392
v 0.027778 -0.031160 0.002536
v 0.032427 -0.009943 -0.012055
v 0.023804 -0.036464 0.001871
v -0.026600 -0.034472 0.003862
v 0.019816 -0.006622 0.006517
v 0.015173 -0.027180 -0.012720
v -0.014665 -0.037128 -0.010729
v -0.034568 -0.016567 -0.012055
v -0.027269 -0.033812 -0.010065
v 0.022472 -0.036464 -0.011392
v 0.027115 0.006642 0.004526
v 0.025791 -0.028503 0.004526
v -0.027932 -0.013919 0.005189
v 0.027115 -0.033148 -0.004096
v 0.009868 -0.037128 -0.006086
v 0.027778 -0.029172 0.003199
v 0.019154 -0.036464 0.003862
v 0.032427 -0.009943 -0.012720
v 0.024466 -0.035800 -0.010727
v 0.026453 -0.034476 0.002536
v -0.023289 -0.035800 0.005189
v 0.000582 -0.035800 -0.012055
v -0.023951 -0.036464 -0.010065
v 0.027778 -0.008610 0.003862
f 253 239 261 
f 218 221 223 
f 225 222 227 
f 218 223 229 
f 218 216 231 
f 221 218 231 
f 228 213 233 
f 214 215 234 
f 223 221 234 
f 231 216 234 
f 221 231 234 
f 229 223 235 
f 227 220 236 
f 225 227 236 
f 228 225 236 
f 224 229 237 
f 229 235 237 
f 215 214 239 
f 220 232 241 
f 222 225 242 
f 223 219 243 
f 219 226 243 
f 235 223 243 
f 226 235 243 
f 233 213 244 
f 237 226 244 
f 216 218 245 
f 218 229 245 
f 241 232 245 
f 241 245 246 
f 229 224 246 
f 224 241 246 
f 245 229 246 
f 226 219 247 
f 240 233 247 
f 216 227 248 
f 227 222 248 
f 214 234 248 
f 234 216 248 
f 222 242 248 
f 248 242 249 
f 225 217 249 
f 217 230 249 
f 242 225 249 
f 230 248 249 
f 227 216 250 
f 220 227 250 
f 232 220 250 
f 216 245 250 
f 245 232 250 
f 219 223 251 
f 223 238 251 
f 233 244 252 
f 244 226 252 
f 226 247 252 
f 247 233 252 
f 238 223 253 
f 230 238 253 
f 223 239 253 
f 217 225 254 
f 225 228 254 
f 228 233 254 
f 240 217 254 
f 233 240 254 
f 234 215 255 
f 223 234 255 
f 215 239 255 
f 239 223 255 
f 247 219 256 
f 240 247 256 
f 219 251 256 
f 256 251 257 
f 230 217 257 
f 238 230 257 
f 217 240 257 
f 251 238 257 
f 240 256 257 
f 236 220 258 
f 228 236 258 
f 241 228 258 
f 220 241 258 
f 235 226 259 
f 226 237 259 
f 237 235 259 
f 213 228 260 
f 224 237 260 
f 241 224 260 
f 228 241 260 
f 244 213 260 
f 237 244 260 
f 239 214 261 
f 214 248 261 
f 248 230 261 
f 230 253 261 
o convex_6
v -0.027268 0.025884 0.006517
v 0.005896 0.052416 -0.001444
v 0.008545 0.051748 0.000546
v 0.027784 0.006647 -0.011393
v -0.027930 0.033841 -0.010066
v 0.027116 0.006647 0.004525
v -0.027930 0.006647 -0.010066
v 0.025129 0.039809 -0.011393
v -0.025938 0.006647 0.006517
v 0.023137 0.029858 0.006517
v -0.010689 0.045781 0.006517
v -0.009359 0.051748 -0.010066
v -0.022627 0.045113 0.001210
v 0.027116 0.037156 0.000546
v -0.016655 0.043791 -0.011393
v 0.013848 0.049755 -0.010729
v -0.021297 0.006647 -0.011393
v 0.013186 0.044455 0.005852
v 0.019158 0.006647 0.006517
v -0.008697 0.051748 0.001873
v 0.021812 0.045113 0.000546
v -0.021297 0.046439 -0.009401
v -0.027930 0.030526 0.005852
v 0.027784 0.031847 0.003861
v 0.027784 0.031847 -0.010729
v -0.027930 0.006647 0.005190
v -0.027268 0.039146 -0.000117
v -0.028598 0.031847 -0.008739
v 0.005896 0.047770 0.005852
v 0.006558 0.051748 -0.010729
v -0.026606 0.040472 -0.009401
v -0.017317 0.042465 0.006517
v -0.014668 0.049755 0.001873
v 0.022475 0.044455 -0.009401
v 0.020482 0.040472 0.005190
v 0.017828 0.047770 0.001210
v 0.027784 0.006647 0.003861
v -0.003387 0.052416 0.001873
v -0.006042 0.052416 -0.010066
v 0.023799 0.017265 0.006517
v -0.025938 0.041139 0.001873
v -0.014006 0.050422 -0.009401
v 0.025129 0.041139 0.000546
v 0.026454 0.038482 -0.010064
v -0.028598 0.023895 -0.006749
v 0.021812 0.043128 -0.011393
v 0.005896 0.052416 -0.009401
v 0.013186 0.050422 -0.006749
v -0.026606 0.007314 -0.010729
v 0.019158 0.047107 -0.008739
v -0.017980 0.048433 -0.000117
v -0.004718 0.045781 0.006517
v 0.012524 0.050422 0.001210
v 0.001911 0.052416 0.001873
v -0.025938 0.032510 0.006517
v -0.004718 0.047770 0.005852
v 0.027116 0.031847 0.004525
v -0.027930 0.037156 -0.002107
v 0.027784 0.035163 -0.002770
v -0.025938 0.041798 -0.008739
f 302 274 321 
f 265 267 268 
f 268 267 270 
f 262 270 271 
f 262 271 272 
f 269 265 276 
f 265 268 278 
f 276 265 278 
f 270 267 280 
f 271 270 280 
f 273 276 283 
f 265 269 286 
f 285 265 286 
f 270 262 287 
f 268 270 287 
f 262 284 287 
f 266 268 289 
f 276 273 291 
f 276 266 292 
f 283 276 292 
f 266 289 292 
f 262 272 293 
f 272 281 294 
f 293 272 294 
f 274 293 294 
f 279 271 296 
f 279 296 297 
f 296 282 297 
f 267 265 298 
f 265 285 298 
f 285 267 298 
f 273 281 300 
f 291 273 300 
f 299 263 300 
f 281 299 300 
f 280 267 301 
f 271 280 301 
f 288 284 302 
f 293 274 302 
f 281 273 303 
f 273 283 303 
f 294 281 303 
f 285 275 304 
f 295 282 304 
f 282 296 304 
f 286 269 305 
f 269 295 305 
f 304 275 305 
f 295 304 305 
f 268 287 306 
f 287 284 306 
f 284 289 306 
f 289 268 306 
f 269 276 307 
f 276 291 307 
f 291 277 307 
f 295 269 307 
f 277 295 307 
f 263 264 308 
f 277 291 308 
f 300 263 308 
f 291 300 308 
f 308 264 309 
f 277 308 309 
f 268 266 310 
f 266 276 310 
f 278 268 310 
f 276 278 310 
f 295 277 311 
f 282 295 311 
f 297 282 311 
f 277 309 311 
f 309 297 311 
f 283 274 312 
f 274 294 312 
f 303 283 312 
f 294 303 312 
f 272 271 313 
f 271 279 313 
f 279 290 313 
f 290 272 313 
f 290 279 314 
f 279 297 314 
f 309 264 314 
f 297 309 314 
f 264 263 315 
f 263 299 315 
f 299 290 315 
f 314 264 315 
f 290 314 315 
f 284 262 316 
f 262 293 316 
f 302 284 316 
f 293 302 316 
f 281 272 317 
f 272 290 317 
f 299 281 317 
f 290 299 317 
f 267 285 318 
f 296 271 318 
f 301 267 318 
f 271 301 318 
f 285 304 318 
f 304 296 318 
f 284 288 319 
f 289 284 319 
f 288 292 319 
f 292 289 319 
f 275 285 320 
f 285 286 320 
f 286 305 320 
f 305 275 320 
f 274 283 321 
f 283 292 321 
f 292 288 321 
f 288 302 321 
o convex_7
v -0.014005 -0.032485 0.024424
v 0.014515 -0.009936 0.017132
v 0.015181 -0.017235 0.026415
v 0.014515 -0.034476 0.006517
v -0.014005 -0.010600 0.006517
v -0.004052 -0.011927 0.029733
v -0.014005 -0.034476 0.006517
v 0.005227 -0.033151 0.029733
v 0.014515 -0.010600 0.006517
v -0.013340 -0.017235 0.029069
v 0.015181 -0.033151 0.021770
v -0.014005 -0.010600 0.021109
v -0.002063 -0.033813 0.029733
v 0.005227 -0.011927 0.029733
v -0.012674 -0.035143 0.018454
v 0.014515 -0.025192 0.028403
v 0.013852 -0.034476 0.019779
v -0.013340 -0.023201 0.029733
v -0.013340 -0.009939 0.006517
v 0.004565 -0.009939 0.021772
v 0.014515 -0.011927 0.023761
v -0.014005 -0.014580 0.027078
v 0.013852 -0.009939 0.006517
v -0.013340 -0.031160 0.027078
v -0.013340 -0.035143 0.011825
v 0.014515 -0.017235 0.027742
v 0.014515 -0.029833 0.026413
v -0.013340 -0.009939 0.015141
v -0.013340 -0.033813 0.023763
v 0.015181 -0.032488 0.018454
v 0.013187 -0.009939 0.019779
v 0.007219 -0.031160 0.029733
v -0.013340 -0.027178 0.029069
v -0.008031 -0.035143 0.014477
v -0.014005 -0.024526 0.029069
f 345 354 356 
f 322 326 328 
f 326 325 328 
f 323 324 330 
f 325 326 330 
f 326 322 333 
f 329 327 334 
f 327 329 335 
f 332 324 337 
f 332 329 338 
f 325 332 338 
f 329 334 338 
f 334 336 338 
f 327 331 339 
f 334 327 339 
f 330 326 340 
f 326 333 340 
f 333 327 341 
f 327 335 341 
f 324 323 342 
f 331 327 343 
f 333 322 343 
f 327 333 343 
f 323 330 344 
f 340 323 344 
f 330 340 344 
f 322 328 346 
f 328 325 346 
f 337 324 347 
f 335 337 347 
f 324 342 347 
f 342 335 347 
f 329 332 348 
f 332 337 348 
f 323 340 349 
f 340 333 349 
f 333 341 349 
f 341 323 349 
f 336 334 350 
f 345 322 350 
f 334 345 350 
f 322 346 350 
f 346 336 350 
f 330 324 351 
f 325 330 351 
f 324 332 351 
f 332 325 351 
f 323 341 352 
f 341 335 352 
f 342 323 352 
f 335 342 352 
f 335 329 353 
f 337 335 353 
f 329 348 353 
f 348 337 353 
f 334 339 354 
f 345 334 354 
f 325 338 355 
f 338 336 355 
f 346 325 355 
f 336 346 355 
f 339 331 356 
f 331 343 356 
f 343 322 356 
f 322 345 356 
f 354 339 356 
o convex_8
v -0.026608 0.034505 -0.011393
v -0.033242 0.023230 -0.013383
v -0.032578 0.022564 -0.013383
v -0.023292 0.037823 -0.013383
v -0.017322 0.006647 -0.011393
v -0.017322 0.007974 -0.013383
v -0.017322 0.025878 -0.011393
v -0.033242 0.031185 -0.011393
v -0.033242 0.037157 -0.013383
v -0.019977 0.006647 -0.011393
v -0.032578 0.023892 -0.012057
v -0.017322 0.019918 -0.012719
v -0.019313 0.006647 -0.012719
v -0.023292 0.037823 -0.012719
f 365 357 370 
f 359 358 360 
f 359 360 362 
f 357 361 363 
f 361 362 363 
f 361 357 364 
f 360 358 365 
f 358 364 365 
f 364 357 365 
f 361 364 366 
f 366 364 367 
f 364 358 367 
f 358 366 367 
f 362 360 368 
f 360 363 368 
f 363 362 368 
f 358 359 369 
f 359 362 369 
f 362 361 369 
f 366 358 369 
f 361 366 369 
f 363 360 370 
f 357 363 370 
f 360 365 370 
o convex_9
v 0.029772 -0.023202 -0.041242
v 0.016507 0.006647 -0.012720
v 0.017832 0.005980 -0.012720
v -0.006045 -0.027844 -0.012720
v -0.006045 0.001997 -0.039251
v 0.033088 -0.020547 -0.014046
v 0.031763 0.002001 -0.036594
v -0.006045 -0.023864 -0.037259
v -0.006045 0.006647 -0.012720
v 0.032425 -0.028506 -0.029960
v 0.014513 0.006647 -0.039912
v 0.023142 -0.011263 -0.045222
v 0.032425 -0.006621 -0.012720
v -0.006045 -0.027844 -0.031290
v 0.031763 -0.008612 -0.044557
v 0.015179 -0.027178 -0.012720
v 0.031097 0.003992 -0.024660
v 0.033754 -0.025856 -0.035935
v -0.006045 0.006647 -0.031952
v 0.019160 -0.017231 -0.044557
v 0.016507 -0.026518 -0.038586
v 0.033088 -0.027181 -0.020680
v 0.021151 -0.029173 -0.023998
v -0.006045 -0.019219 -0.039251
v 0.032425 0.000676 -0.018691
v 0.017832 -0.029173 -0.031955
v 0.031763 -0.018556 -0.043896
v 0.007224 0.006647 -0.039912
v 0.016507 -0.021873 -0.042569
v 0.031763 -0.001979 -0.041242
v 0.031763 0.003992 -0.029960
v 0.031763 -0.027181 -0.035935
v 0.032425 -0.017890 -0.012720
v -0.004717 -0.008612 -0.039912
v 0.013192 -0.027844 -0.013385
v 0.031097 -0.028506 -0.023333
v 0.033088 -0.020547 -0.041904
v 0.032425 -0.023864 -0.016038
v -0.006045 -0.026518 -0.034606
v 0.030435 -0.003967 -0.043231
v 0.031763 0.002664 -0.020680
v 0.031763 -0.002641 -0.014711
v 0.017169 -0.027844 -0.035935
v 0.024466 -0.007950 -0.044557
v 0.027119 -0.013251 -0.045222
v 0.028444 -0.029173 -0.027982
v 0.033754 -0.024527 -0.032617
v 0.031097 -0.025190 -0.039251
v 0.031097 0.003992 -0.032617
v 0.030435 -0.028506 -0.032617
v 0.017169 -0.029173 -0.023998
v -0.004717 -0.014576 -0.039912
f 394 404 422 
f 373 372 374 
f 374 375 378 
f 374 372 379 
f 375 374 379 
f 379 372 381 
f 373 374 383 
f 374 378 384 
f 383 374 386 
f 375 379 389 
f 379 381 389 
f 380 388 392 
f 378 375 394 
f 383 376 395 
f 388 377 395 
f 382 375 398 
f 375 389 398 
f 389 381 398 
f 391 378 399 
f 371 391 399 
f 378 394 399 
f 394 390 399 
f 397 371 399 
f 390 397 399 
f 381 377 400 
f 381 372 401 
f 372 387 401 
f 395 377 401 
f 388 380 402 
f 376 383 403 
f 386 376 403 
f 383 386 403 
f 375 382 404 
f 382 390 404 
f 394 375 404 
f 386 374 405 
f 392 386 405 
f 374 393 405 
f 405 393 406 
f 380 392 406 
f 392 405 406 
f 377 388 407 
f 397 385 407 
f 371 397 407 
f 400 377 407 
f 385 400 407 
f 376 386 408 
f 386 392 408 
f 392 376 408 
f 384 378 409 
f 378 391 409 
f 381 400 410 
f 400 385 410 
f 372 373 411 
f 387 372 411 
f 373 395 411 
f 401 387 411 
f 395 401 411 
f 373 383 412 
f 395 373 412 
f 383 395 412 
f 396 384 413 
f 391 402 413 
f 384 409 413 
f 409 391 413 
f 385 382 414 
f 382 398 414 
f 398 381 414 
f 410 385 414 
f 381 410 414 
f 382 385 415 
f 390 382 415 
f 385 397 415 
f 397 390 415 
f 393 396 416 
f 406 393 416 
f 380 406 416 
f 376 392 417 
f 392 388 417 
f 395 376 417 
f 388 395 417 
f 391 371 418 
f 388 402 418 
f 402 391 418 
f 407 388 418 
f 371 407 418 
f 377 381 419 
f 381 401 419 
f 401 377 419 
f 402 380 420 
f 396 413 420 
f 413 402 420 
f 380 416 420 
f 416 396 420 
f 374 384 421 
f 393 374 421 
f 384 396 421 
f 396 393 421 
f 390 394 422 
f 404 390 422 
o convex_10
v -0.033903 -0.016566 -0.044559
v -0.017985 0.001340 -0.012720
v -0.017985 0.001340 -0.028639
v -0.017987 -0.029168 -0.027982
v -0.034566 -0.019222 -0.012720
v -0.035228 0.002002 -0.031288
v -0.018650 -0.001978 -0.040573
v -0.034566 -0.028506 -0.031288
v -0.017987 -0.023199 -0.041237
v -0.017987 -0.021211 -0.012720
v -0.035228 -0.001978 -0.016042
v -0.033240 -0.027844 -0.019355
v -0.033903 -0.003305 -0.041904
v -0.021967 -0.015239 -0.044559
v -0.033240 -0.027183 -0.037260
v -0.019977 0.002667 -0.033280
v -0.031913 0.002667 -0.022671
v -0.018650 -0.027844 -0.019355
v -0.033903 -0.005958 -0.012720
v -0.034566 -0.010604 -0.044559
v -0.018650 -0.027844 -0.036599
v -0.030586 -0.029836 -0.028639
v -0.033903 0.000675 -0.037921
v -0.034566 -0.021211 -0.042567
v -0.034566 -0.023861 -0.015375
v -0.017985 0.000010 -0.037924
v -0.019314 -0.017892 -0.043895
v -0.034566 0.001340 -0.020019
v -0.024621 -0.004635 -0.042567
v -0.034566 0.002667 -0.032616
v -0.021304 -0.029836 -0.025990
v -0.035228 -0.007285 -0.014047
v -0.031913 -0.023861 -0.014711
v -0.033903 -0.029168 -0.023999
v -0.019314 0.001340 -0.037260
v -0.020640 -0.029836 -0.029961
v -0.032576 -0.029168 -0.032616
v -0.031913 -0.021876 -0.042567
v -0.018650 -0.025191 -0.039915
v -0.025947 0.002667 -0.022007
v -0.035228 -0.000652 -0.033280
v -0.021304 -0.025856 -0.016700
v -0.030586 -0.017892 -0.044559
v -0.031913 -0.029168 -0.022671
v -0.034566 -0.027183 -0.019355
f 456 434 467 
f 426 424 432 
f 424 427 432 
f 424 425 438 
f 426 432 440 
f 427 424 441 
f 424 433 441 
f 428 435 442 
f 436 423 442 
f 431 426 443 
f 435 428 445 
f 437 430 446 
f 442 423 446 
f 425 424 448 
f 424 426 448 
f 426 431 448 
f 431 429 448 
f 438 425 448 
f 429 431 449 
f 436 429 449 
f 433 424 450 
f 428 433 450 
f 424 439 450 
f 435 429 451 
f 429 436 451 
f 442 435 451 
f 436 442 451 
f 439 438 452 
f 445 428 452 
f 428 450 452 
f 450 439 452 
f 426 440 453 
f 433 428 454 
f 427 441 454 
f 441 433 454 
f 447 427 454 
f 432 427 455 
f 427 447 455 
f 447 434 455 
f 429 435 457 
f 435 445 457 
f 448 429 457 
f 438 448 457 
f 452 438 457 
f 445 452 457 
f 443 426 458 
f 426 453 458 
f 453 444 458 
f 430 437 459 
f 437 443 459 
f 456 430 459 
f 444 456 459 
f 443 458 459 
f 458 444 459 
f 437 446 460 
f 431 443 461 
f 443 437 461 
f 460 431 461 
f 437 460 461 
f 424 438 462 
f 439 424 462 
f 438 439 462 
f 428 442 463 
f 446 430 463 
f 442 446 463 
f 454 428 463 
f 430 454 463 
f 440 432 464 
f 434 440 464 
f 432 455 464 
f 455 434 464 
f 423 436 465 
f 446 423 465 
f 449 431 465 
f 436 449 465 
f 431 460 465 
f 460 446 465 
f 440 434 466 
f 453 440 466 
f 444 453 466 
f 456 444 466 
f 434 456 466 
f 434 447 467 
f 454 430 467 
f 447 454 467 
f 430 456 467 
o convex_11
v -0.017985 -0.025856 -0.037260
v -0.006045 0.006647 -0.012720
v -0.006045 0.006647 -0.031951
v -0.006045 -0.027844 -0.012720
v -0.017985 0.002664 -0.012720
v -0.017321 0.006647 -0.037926
v -0.006045 -0.019222 -0.039251
v -0.016657 -0.026518 -0.012720
v -0.006045 -0.027844 -0.031288
v -0.017985 -0.029173 -0.028635
v -0.006045 0.002664 -0.039251
v -0.017985 -0.019222 -0.040579
v -0.016657 0.006647 -0.012720
v -0.017985 -0.021873 -0.012720
v -0.008700 0.006647 -0.039251
v -0.017985 -0.003304 -0.039251
v -0.006045 -0.023864 -0.037260
v -0.016657 0.006647 -0.039251
v -0.015994 -0.027844 -0.012720
v -0.017321 -0.027181 -0.035935
v -0.017321 -0.019885 -0.040579
v -0.006045 -0.026518 -0.034607
v -0.017985 -0.027844 -0.021348
f 477 486 490 
f 470 469 471 
f 471 469 472 
f 469 470 473 
f 470 471 474 
f 471 472 475 
f 474 471 476 
f 472 468 477 
f 476 471 477 
f 470 474 478 
f 468 472 479 
f 472 469 480 
f 469 473 480 
f 473 472 480 
f 475 472 481 
f 472 477 481 
f 473 470 482 
f 470 478 482 
f 472 473 483 
f 479 472 483 
f 474 476 484 
f 473 482 485 
f 482 479 485 
f 479 483 485 
f 483 473 485 
f 471 475 486 
f 477 471 486 
f 477 468 487 
f 476 477 487 
f 468 484 487 
f 478 474 488 
f 468 479 488 
f 482 478 488 
f 479 482 488 
f 474 484 488 
f 484 468 488 
f 484 476 489 
f 476 487 489 
f 487 484 489 
f 475 481 490 
f 481 477 490 
f 486 475 490 
o convex_12
v -0.015994 0.043790 -0.032615
v -0.017322 0.006647 -0.037925
v -0.017322 0.006647 -0.011393
v 0.016507 0.006647 -0.011393
v 0.015180 0.029197 -0.039916
v 0.014514 0.044449 -0.011393
v -0.016656 0.044449 -0.011393
v 0.014514 0.006647 -0.039916
v 0.015180 0.044449 -0.029298
v -0.017322 0.037821 -0.038587
v 0.013189 0.039809 -0.037925
v -0.017322 0.019251 -0.039916
v -0.017322 0.045119 -0.027972
v 0.016507 0.033174 -0.011393
v 0.015842 0.021906 -0.037925
v 0.015180 0.045119 -0.013384
v 0.010534 0.043790 -0.033944
v -0.015328 0.006647 -0.039248
v 0.011862 0.033174 -0.039916
v -0.017322 0.041801 -0.035934
v 0.015842 0.044449 -0.025328
v -0.017322 0.043127 -0.012057
v -0.015994 0.045119 -0.012057
v 0.011199 0.045119 -0.027972
v 0.015180 0.006647 -0.039248
v -0.017322 0.025224 -0.039916
v 0.015180 0.036495 -0.038587
v 0.013189 0.037158 -0.039248
v 0.007885 0.044449 -0.032615
v 0.016507 0.006647 -0.013384
v 0.014514 0.043127 -0.033944
v -0.017322 0.033174 -0.039248
v 0.007219 0.006647 -0.039916
v 0.015842 0.043127 -0.014048
f 511 506 524 
f 493 492 494 
f 493 494 496 
f 493 496 497 
f 494 492 498 
f 492 493 500 
f 495 498 502 
f 492 500 502 
f 500 493 503 
f 496 494 504 
f 498 492 508 
f 492 502 508 
f 495 502 509 
f 501 500 510 
f 503 491 510 
f 500 503 510 
f 491 507 510 
f 507 501 510 
f 504 505 511 
f 499 506 511 
f 493 497 512 
f 503 493 512 
f 497 503 512 
f 497 496 513 
f 503 497 513 
f 496 506 513 
f 506 503 513 
f 503 506 514 
f 506 499 514 
f 494 498 515 
f 498 495 515 
f 495 505 515 
f 502 500 516 
f 509 502 516 
f 505 495 517 
f 499 511 517 
f 511 505 517 
f 500 501 518 
f 495 509 518 
f 509 500 518 
f 501 517 518 
f 517 495 518 
f 491 503 519 
f 507 491 519 
f 499 507 519 
f 503 514 519 
f 514 499 519 
f 504 494 520 
f 505 504 520 
f 494 515 520 
f 515 505 520 
f 507 499 521 
f 501 507 521 
f 499 517 521 
f 517 501 521 
f 500 509 522 
f 516 500 522 
f 509 516 522 
f 502 498 523 
f 498 508 523 
f 508 502 523 
f 496 504 524 
f 506 496 524 
f 504 511 524 
o convex_13
v 0.017834 0.037159 -0.043895
v 0.025131 0.039147 -0.013383
v 0.033090 0.039812 -0.014047
v 0.030435 0.015270 -0.022670
v 0.033754 0.030532 -0.044558
v 0.017834 0.015270 -0.033283
v 0.016507 0.047104 -0.024662
v 0.033090 0.045778 -0.036596
v 0.021152 0.018588 -0.017366
v 0.033754 0.024557 -0.013383
v 0.032427 0.017261 -0.038584
v 0.017171 0.020577 -0.041239
v 0.017171 0.042466 -0.016038
v 0.033754 0.045119 -0.020685
v 0.016507 0.045116 -0.036596
v 0.033754 0.016600 -0.020021
v 0.024471 0.023895 -0.013383
v 0.031100 0.039812 -0.043231
v 0.031100 0.047772 -0.030624
v 0.019826 0.016600 -0.020685
v 0.016507 0.041798 -0.018030
v 0.022479 0.031849 -0.045222
v 0.032427 0.021907 -0.042567
v 0.033090 0.015938 -0.035268
v 0.016507 0.024557 -0.039248
v 0.032427 0.046443 -0.021349
v 0.017171 0.045116 -0.037920
v 0.017171 0.047104 -0.032619
v 0.016507 0.040474 -0.041903
v 0.033754 0.039147 -0.042567
v 0.017834 0.017261 -0.038584
v 0.018498 0.039147 -0.014711
v 0.017834 0.015270 -0.031291
v 0.032427 0.033840 -0.045222
v 0.032427 0.020577 -0.015374
v 0.017171 0.045778 -0.020021
v 0.032427 0.045116 -0.018694
v 0.020488 0.047772 -0.025990
v 0.033754 0.037821 -0.013383
v 0.033754 0.020577 -0.038584
v 0.031763 0.015270 -0.033940
v 0.017834 0.032511 -0.044558
v 0.023807 0.015270 -0.022007
v 0.033090 0.047104 -0.023334
v 0.021152 0.038486 -0.013383
v 0.022479 0.018588 -0.016702
v 0.017171 0.017261 -0.035932
v 0.033090 0.030532 -0.045222
v 0.032427 0.047104 -0.033940
v 0.019826 0.017923 -0.019358
v 0.027783 0.023895 -0.043231
v 0.020488 0.036491 -0.044558
v 0.033090 0.043792 -0.039248
f 554 542 577 
f 526 527 537 
f 534 529 538 
f 529 534 540 
f 534 526 541 
f 531 539 545 
f 545 539 549 
f 539 531 552 
f 551 539 552 
f 536 549 553 
f 549 539 553 
f 539 551 553 
f 551 542 553 
f 538 529 554 
f 532 538 554 
f 547 535 555 
f 536 547 555 
f 533 541 556 
f 530 528 557 
f 554 529 558 
f 542 554 558 
f 540 534 559 
f 534 541 559 
f 531 545 560 
f 545 537 560 
f 550 560 561 
f 537 527 561 
f 527 538 561 
f 560 537 561 
f 552 531 562 
f 543 552 562 
f 531 560 562 
f 527 526 563 
f 526 534 563 
f 538 527 563 
f 534 538 563 
f 529 540 564 
f 547 529 564 
f 535 547 564 
f 548 535 564 
f 540 548 564 
f 528 530 565 
f 540 528 565 
f 535 548 565 
f 548 540 565 
f 530 555 565 
f 555 535 565 
f 546 536 566 
f 553 525 566 
f 536 553 566 
f 528 540 567 
f 557 528 567 
f 544 557 567 
f 538 532 568 
f 560 550 568 
f 550 561 568 
f 561 538 568 
f 543 562 568 
f 562 560 568 
f 526 537 569 
f 541 526 569 
f 537 556 569 
f 556 541 569 
f 541 533 570 
f 533 544 570 
f 540 559 570 
f 559 541 570 
f 567 540 570 
f 544 567 570 
f 549 536 571 
f 545 549 571 
f 555 530 571 
f 536 555 571 
f 530 557 571 
f 557 545 571 
f 529 547 572 
f 546 558 572 
f 558 529 572 
f 532 551 573 
f 552 543 573 
f 551 552 573 
f 568 532 573 
f 543 568 573 
f 544 533 574 
f 537 545 574 
f 556 537 574 
f 533 556 574 
f 557 544 574 
f 545 557 574 
f 536 546 575 
f 547 536 575 
f 572 547 575 
f 546 572 575 
f 525 553 576 
f 553 542 576 
f 542 558 576 
f 558 546 576 
f 566 525 576 
f 546 566 576 
f 542 551 577 
f 551 532 577 
f 532 554 577 
o convex_14
v 0.031100 0.037157 -0.013383
v 0.016507 0.006647 -0.012719
v 0.016507 0.006647 -0.011393
v 0.016507 0.031185 -0.011393
v 0.033754 0.028530 -0.012057
v 0.022479 0.037157 -0.013383
v 0.025791 0.006647 -0.011393
v 0.033754 0.025878 -0.013383
v 0.026454 0.035168 -0.011393
v 0.021815 0.006647 -0.012719
v 0.016507 0.031185 -0.012057
v 0.033754 0.035830 -0.012719
v 0.025791 0.024551 -0.013383
v 0.023144 0.037823 -0.012719
f 586 589 591 
f 579 580 581 
f 580 579 584 
f 581 580 584 
f 582 584 585 
f 583 578 585 
f 581 584 586 
f 584 582 586 
f 584 579 587 
f 585 584 587 
f 579 581 588 
f 583 579 588 
f 582 585 589 
f 585 578 589 
f 586 582 589 
f 579 583 590 
f 583 585 590 
f 587 579 590 
f 585 587 590 
f 578 583 591 
f 581 586 591 
f 588 581 591 
f 583 588 591 
f 589 578 591 
o convex_15
v -0.021966 0.027211 -0.043891
v -0.021303 0.038483 -0.013383
v -0.033241 0.038483 -0.013383
v -0.032578 0.014608 -0.020680
v -0.033905 0.043791 -0.036597
v -0.017322 0.015270 -0.022675
v -0.017985 0.045781 -0.033945
v -0.032578 0.016598 -0.037922
v -0.017322 0.016598 -0.037922
v -0.017322 0.045781 -0.021348
v -0.024621 0.021240 -0.013383
v -0.032578 0.035168 -0.043891
v -0.017985 0.039149 -0.042566
v -0.033241 0.045781 -0.022007
v -0.033241 0.021240 -0.014048
v -0.033241 0.014608 -0.032615
v -0.034568 0.041801 -0.033945
v -0.017322 0.039811 -0.016038
v -0.032578 0.019916 -0.041239
v -0.019976 0.013945 -0.031290
v -0.017322 0.020581 -0.041239
v -0.021303 0.047109 -0.029966
v -0.019976 0.043126 -0.016700
v -0.017322 0.041801 -0.039249
v -0.033905 0.043126 -0.018028
v -0.033905 0.033840 -0.041239
v -0.023293 0.042463 -0.039914
v -0.030587 0.013280 -0.027976
v -0.032578 0.045781 -0.032615
v -0.023293 0.017260 -0.016700
v -0.027269 0.030522 -0.044559
v -0.019312 0.035168 -0.043891
v -0.017985 0.044453 -0.037922
v -0.023293 0.022568 -0.043232
v -0.031914 0.038483 -0.042566
v -0.033241 0.016598 -0.018028
v -0.032578 0.014608 -0.034607
v -0.031914 0.021240 -0.013383
v -0.033905 0.038483 -0.015376
v -0.023293 0.024558 -0.013383
v -0.017322 0.015936 -0.022007
v -0.032578 0.044453 -0.036597
v -0.032578 0.043791 -0.018028
v -0.031251 0.022568 -0.042566
v -0.017985 0.046444 -0.022675
v -0.033241 0.019250 -0.039914
v -0.017322 0.015270 -0.035267
v -0.032578 0.013280 -0.029301
v -0.019312 0.045781 -0.020680
v -0.019312 0.041801 -0.015376
f 614 634 641 
f 597 600 601 
f 593 594 602 
f 605 596 608 
f 597 601 609 
f 600 599 610 
f 601 600 612 
f 598 601 615 
f 601 612 615 
f 612 604 615 
f 605 608 616 
f 596 603 617 
f 608 596 617 
f 597 595 619 
f 611 597 619 
f 596 605 620 
f 605 613 620 
f 595 597 621 
f 603 604 623 
f 612 592 623 
f 604 612 623 
f 592 622 623 
f 622 603 623 
f 613 598 624 
f 598 615 624 
f 615 604 624 
f 604 618 624 
f 600 610 625 
f 612 600 625 
f 592 612 625 
f 622 592 625 
f 603 596 626 
f 604 603 626 
f 618 604 626 
f 608 607 627 
f 595 621 627 
f 599 600 628 
f 607 599 628 
f 602 594 629 
f 594 606 629 
f 621 602 629 
f 606 627 629 
f 627 621 629 
f 606 594 630 
f 594 616 630 
f 616 608 630 
f 627 606 630 
f 608 627 630 
f 593 602 631 
f 609 593 631 
f 609 631 632 
f 597 609 632 
f 621 597 632 
f 602 621 632 
f 631 602 632 
f 596 620 633 
f 620 613 633 
f 613 624 633 
f 624 618 633 
f 626 596 633 
f 618 626 633 
f 616 594 634 
f 605 616 634 
f 610 603 635 
f 603 622 635 
f 625 610 635 
f 622 625 635 
f 601 598 636 
f 598 613 636 
f 613 605 636 
f 599 607 637 
f 607 608 637 
f 610 599 637 
f 603 610 637 
f 617 603 637 
f 608 617 637 
f 600 597 638 
f 597 611 638 
f 628 600 638 
f 611 628 638 
f 619 595 639 
f 611 619 639 
f 595 627 639 
f 627 607 639 
f 607 628 639 
f 628 611 639 
f 614 601 640 
f 605 634 640 
f 634 614 640 
f 601 636 640 
f 636 605 640 
f 594 593 641 
f 593 609 641 
f 609 601 641 
f 601 614 641 
f 634 594 641 
