o convex_0
v -0.022328 -0.021648 -0.022398
v -0.039747 -0.010238 -0.031409
v -0.039747 -0.010238 -0.030808
v -0.033137 -0.004230 -0.029005
v -0.026533 -0.016843 -0.033812
v -0.032536 -0.020449 -0.023000
v -0.030737 -0.021648 -0.030808
v -0.032536 -0.010839 -0.022398
v -0.023529 -0.013242 -0.022398
v -0.030737 -0.006636 -0.033210
v -0.037341 -0.015043 -0.033210
v -0.038542 -0.006636 -0.027206
v -0.036140 -0.006033 -0.033812
v -0.027734 -0.024054 -0.022398
v -0.024730 -0.014439 -0.030207
v -0.025932 -0.021648 -0.030207
v -0.030737 -0.019248 -0.033812
v -0.036140 -0.017443 -0.027206
v -0.033737 -0.016244 -0.022398
v -0.027133 -0.010238 -0.022398
v -0.037341 -0.004833 -0.027806
v -0.021726 -0.019847 -0.023000
v -0.031936 -0.021648 -0.029606
v -0.037942 -0.004833 -0.031409
v -0.038542 -0.013242 -0.028405
v -0.024730 -0.024054 -0.023000
v -0.028334 -0.009640 -0.033210
v -0.033737 -0.004230 -0.032008
v -0.022328 -0.015043 -0.023000
v -0.024730 -0.018646 -0.030808
v -0.030137 -0.006636 -0.032008
f 29 27 31 
f 8 1 9 
f 10 5 13 
f 11 2 13 
f 1 8 14 
f 7 11 17 
f 13 5 17 
f 11 13 17 
f 5 16 17 
f 16 7 17 
f 8 12 19 
f 6 14 19 
f 14 8 19 
f 9 4 20 
f 8 9 20 
f 12 8 21 
f 20 4 21 
f 8 20 21 
f 11 7 23 
f 7 14 23 
f 14 6 23 
f 6 18 23 
f 18 11 23 
f 2 3 24 
f 3 12 24 
f 13 2 24 
f 12 21 24 
f 3 2 25 
f 2 11 25 
f 12 3 25 
f 18 6 25 
f 11 18 25 
f 19 12 25 
f 6 19 25 
f 1 14 26 
f 14 7 26 
f 16 1 26 
f 7 16 26 
f 5 10 27 
f 15 5 27 
f 10 13 28 
f 21 4 28 
f 13 24 28 
f 24 21 28 
f 9 1 29 
f 1 22 29 
f 22 15 29 
f 15 27 29 
f 5 15 30 
f 1 16 30 
f 16 5 30 
f 22 1 30 
f 15 22 30 
f 4 9 31 
f 27 10 31 
f 28 4 31 
f 10 28 31 
f 9 29 31 
o convex_1
v -0.021727 -0.033063 -0.018191
v -0.042147 0.001774 -0.015191
v -0.042147 0.001774 -0.013388
v -0.012113 0.004180 -0.012787
v -0.013915 -0.035461 -0.008581
v -0.012113 0.004180 -0.021796
v -0.012113 -0.032463 -0.022398
v -0.037340 0.004180 -0.021796
v -0.040345 0.004180 -0.008581
v -0.035537 -0.019247 -0.012787
v -0.031933 -0.020444 -0.022398
v -0.012113 -0.002429 -0.009183
v -0.030133 -0.024051 -0.008581
v -0.012113 -0.036666 -0.011585
v -0.039742 -0.006637 -0.018792
v -0.027131 -0.029460 -0.013990
v -0.038542 -0.007838 -0.008581
v -0.013915 -0.036066 -0.020595
v -0.032535 -0.023447 -0.018191
v -0.012113 -0.012646 -0.022398
v -0.038542 -0.013242 -0.016389
v -0.016923 -0.036066 -0.012187
v -0.012113 -0.029460 -0.008581
v -0.040345 0.004180 -0.019994
v -0.024129 -0.029460 -0.021196
v -0.036740 0.004180 -0.008581
v -0.030733 -0.009639 -0.022398
v -0.022930 -0.030657 -0.008581
v -0.040345 -0.007838 -0.013990
v -0.012113 -0.037271 -0.019394
v -0.027131 -0.028856 -0.019394
v -0.039142 -0.002433 -0.020595
v -0.036140 -0.014447 -0.008581
v -0.031933 -0.024652 -0.013990
v -0.033135 -0.018042 -0.022398
v -0.036740 -0.016245 -0.018191
v -0.041544 0.004180 -0.018191
v -0.037939 -0.014447 -0.012787
v -0.019925 -0.031258 -0.021796
v -0.016323 -0.036066 -0.018792
f 62 56 71 
f 37 35 38 
f 35 37 39 
f 35 39 40 
f 38 35 43 
f 36 40 44 
f 38 43 45 
f 40 34 48 
f 44 40 48 
f 37 38 51 
f 38 42 51 
f 45 36 53 
f 47 32 53 
f 40 36 54 
f 36 45 54 
f 45 43 54 
f 40 39 55 
f 35 40 57 
f 43 35 57 
f 40 54 57 
f 54 43 57 
f 39 37 58 
f 37 51 58 
f 51 42 58 
f 36 44 59 
f 44 47 59 
f 53 36 59 
f 47 53 59 
f 34 33 60 
f 33 46 60 
f 48 34 60 
f 46 52 60 
f 38 45 61 
f 49 38 61 
f 45 53 61 
f 32 47 62 
f 50 42 62 
f 42 56 62 
f 55 39 63 
f 41 44 64 
f 44 48 64 
f 44 41 65 
f 47 44 65 
f 41 50 65 
f 62 47 65 
f 50 62 65 
f 39 58 66 
f 58 42 66 
f 63 39 66 
f 46 63 66 
f 42 50 67 
f 50 41 67 
f 52 46 67 
f 41 52 67 
f 66 42 67 
f 46 66 67 
f 33 34 68 
f 34 40 68 
f 46 33 68 
f 40 55 68 
f 63 46 68 
f 55 63 68 
f 52 41 69 
f 48 60 69 
f 60 52 69 
f 41 64 69 
f 64 48 69 
f 42 38 70 
f 38 49 70 
f 56 42 70 
f 49 56 70 
f 53 32 71 
f 56 49 71 
f 49 61 71 
f 61 53 71 
f 32 62 71 
o convex_2
v -0.025328 0.025808 -0.030208
v -0.020524 0.037821 -0.021797
v -0.023528 0.037821 -0.021797
v -0.025928 0.045027 -0.033210
v -0.019323 0.036618 -0.033210
v -0.028932 0.027012 -0.021797
v -0.020524 0.025208 -0.021797
v -0.028932 0.033019 -0.033210
v -0.028932 0.039622 -0.028404
v -0.019323 0.043227 -0.029607
v -0.021726 0.031217 -0.033812
v -0.018722 0.028213 -0.021797
v -0.024727 0.045027 -0.029005
v -0.027130 0.024009 -0.022398
v -0.027130 0.034818 -0.021797
v -0.019323 0.042625 -0.033210
v -0.028331 0.028811 -0.032009
v -0.020524 0.028811 -0.030208
v -0.029533 0.037220 -0.032009
v -0.018722 0.035419 -0.021797
v -0.022927 0.024607 -0.026605
v -0.026530 0.044426 -0.029005
v -0.018722 0.040823 -0.031407
v -0.024127 0.028213 -0.033210
v -0.021126 0.045027 -0.030208
v -0.023528 0.043227 -0.033812
v -0.029533 0.030014 -0.029607
v -0.028932 0.031217 -0.021797
v -0.028331 0.041426 -0.033210
v -0.025928 0.030615 -0.033812
v -0.022927 0.023404 -0.021797
f 92 78 102 
f 73 74 77 
f 73 77 78 
f 73 78 83 
f 74 73 84 
f 77 74 86 
f 76 82 87 
f 72 85 88 
f 82 76 89 
f 83 78 89 
f 76 83 89 
f 81 73 91 
f 73 83 91 
f 85 72 92 
f 89 78 92 
f 74 84 93 
f 84 75 93 
f 86 74 93 
f 80 86 93 
f 83 76 94 
f 87 81 94 
f 76 87 94 
f 81 91 94 
f 91 83 94 
f 72 88 95 
f 82 89 95 
f 92 72 95 
f 89 92 95 
f 73 81 96 
f 84 73 96 
f 75 84 96 
f 87 75 96 
f 81 87 96 
f 75 87 97 
f 87 82 97 
f 85 77 98 
f 79 88 98 
f 88 85 98 
f 90 79 98 
f 90 98 99 
f 77 86 99 
f 86 80 99 
f 80 90 99 
f 98 77 99 
f 79 90 100 
f 90 80 100 
f 93 75 100 
f 80 93 100 
f 75 97 100 
f 100 97 101 
f 88 79 101 
f 82 95 101 
f 95 88 101 
f 97 82 101 
f 79 100 101 
f 78 77 102 
f 77 85 102 
f 85 92 102 
o convex_3
v 0.020929 -0.025255 -0.027805
v 0.036546 -0.008435 -0.029606
v 0.036546 -0.008435 -0.031409
v 0.036546 -0.018645 -0.030807
v 0.030539 -0.019245 -0.022398
v 0.017926 -0.018645 -0.022398
v 0.023333 -0.018046 -0.033212
v 0.022732 -0.025857 -0.022398
v 0.031137 -0.022850 -0.032610
v 0.025737 -0.012640 -0.022398
v 0.029338 -0.010841 -0.032610
v 0.037745 -0.010239 -0.027805
v 0.036546 -0.015047 -0.033212
v 0.016723 -0.024052 -0.022999
v 0.022732 -0.022252 -0.032610
v 0.038950 -0.013242 -0.029006
v 0.020929 -0.019245 -0.031409
v 0.026938 -0.024052 -0.022999
v 0.032941 -0.008435 -0.029606
v 0.028735 -0.012640 -0.022398
v 0.023933 -0.014445 -0.030207
v 0.022130 -0.014445 -0.022999
v 0.038345 -0.010841 -0.032610
v 0.026335 -0.024654 -0.030807
v 0.031738 -0.010841 -0.033212
v 0.034142 -0.020447 -0.028405
v 0.028735 -0.022252 -0.033212
v 0.037745 -0.016245 -0.032610
v 0.017926 -0.025857 -0.022398
v 0.028735 -0.024052 -0.027805
v 0.022732 -0.016846 -0.032610
f 123 113 133 
f 107 108 110 
f 108 107 112 
f 103 116 117 
f 114 107 118 
f 116 108 119 
f 109 117 119 
f 117 116 119 
f 107 110 120 
f 104 105 121 
f 112 104 121 
f 105 113 121 
f 104 112 122 
f 112 107 122 
f 114 104 122 
f 107 114 122 
f 108 112 124 
f 112 121 124 
f 121 113 124 
f 123 108 124 
f 113 123 124 
f 105 104 125 
f 104 114 125 
f 114 118 125 
f 110 103 126 
f 103 117 126 
f 113 105 127 
f 109 113 127 
f 115 109 127 
f 105 125 127 
f 125 115 127 
f 111 106 128 
f 106 118 128 
f 118 107 128 
f 107 120 128 
f 115 111 129 
f 109 115 129 
f 117 109 129 
f 111 126 129 
f 126 117 129 
f 106 111 130 
f 111 115 130 
f 118 106 130 
f 115 125 130 
f 125 118 130 
f 103 110 131 
f 110 108 131 
f 108 116 131 
f 116 103 131 
f 120 110 132 
f 110 126 132 
f 126 111 132 
f 111 128 132 
f 128 120 132 
f 113 109 133 
f 119 108 133 
f 109 119 133 
f 108 123 133 
o convex_4
v 0.035947 0.029409 -0.030807
v 0.023932 0.021604 -0.022999
v 0.023932 0.021604 -0.022398
v 0.028137 0.038419 -0.031409
v 0.026935 0.021004 -0.032610
v 0.034144 0.021604 -0.022398
v 0.032341 0.035418 -0.026003
v 0.030538 0.017399 -0.028405
v 0.026337 0.030012 -0.022398
v 0.025135 0.030610 -0.032610
v 0.034144 0.036019 -0.032610
v 0.033543 0.022203 -0.032009
v 0.027538 0.016796 -0.022398
v 0.035346 0.034217 -0.028405
v 0.023932 0.026411 -0.022398
v 0.032341 0.028808 -0.022398
v 0.033543 0.025210 -0.033212
v 0.026935 0.037220 -0.029006
v 0.031741 0.038419 -0.028405
v 0.033543 0.019202 -0.026003
v 0.025735 0.024607 -0.033212
v 0.026337 0.018600 -0.028405
v 0.027538 0.032414 -0.033212
v 0.031140 0.016796 -0.022398
v 0.035346 0.024607 -0.030207
v 0.025735 0.034816 -0.031409
v 0.025135 0.021604 -0.030207
v 0.029939 0.021604 -0.033212
v 0.032341 0.037820 -0.032610
f 144 156 162 
f 136 139 142 
f 136 135 146 
f 139 136 146 
f 139 134 147 
f 134 144 147 
f 135 136 148 
f 136 142 148 
f 143 135 148 
f 142 139 149 
f 140 142 149 
f 139 147 149 
f 147 140 149 
f 144 134 150 
f 148 142 151 
f 142 140 152 
f 140 147 152 
f 147 144 152 
f 137 151 152 
f 151 142 152 
f 141 145 153 
f 138 141 155 
f 146 135 155 
f 141 146 155 
f 143 137 156 
f 144 150 156 
f 154 143 156 
f 150 154 156 
f 139 146 157 
f 146 141 157 
f 153 139 157 
f 141 153 157 
f 134 139 158 
f 150 134 158 
f 145 150 158 
f 139 153 158 
f 153 145 158 
f 137 143 159 
f 143 148 159 
f 151 137 159 
f 148 151 159 
f 135 143 160 
f 154 138 160 
f 143 154 160 
f 138 155 160 
f 155 135 160 
f 141 138 161 
f 145 141 161 
f 150 145 161 
f 138 154 161 
f 154 150 161 
f 137 152 162 
f 152 144 162 
f 156 137 162 
o convex_5
v 0.036544 0.029998 -0.017591
v 0.014921 -0.037271 -0.017591
v 0.014921 -0.037271 -0.014590
v 0.014921 0.051038 -0.015789
v 0.041351 0.004792 -0.009182
v 0.029939 -0.020440 -0.022397
v 0.014921 0.049232 -0.009183
v 0.014921 0.040224 -0.021795
v 0.015524 -0.034868 -0.009183
v 0.034142 -0.021642 -0.011587
v 0.039550 0.005985 -0.019995
v 0.014921 -0.029456 -0.022397
v 0.032341 0.028200 -0.022397
v 0.034142 0.035410 -0.010385
v 0.042555 0.000582 -0.015189
v 0.022730 0.046232 -0.018192
v 0.041952 0.018588 -0.013389
v 0.037748 -0.011433 -0.009182
v 0.038949 0.023999 -0.009182
v 0.038348 -0.012635 -0.016990
v 0.026336 -0.030053 -0.015191
v 0.026336 0.044426 -0.013389
v 0.040751 0.016194 -0.018192
v 0.016124 0.046820 -0.020594
v 0.023934 -0.030061 -0.009183
v 0.040751 -0.007829 -0.011585
v 0.023934 0.027595 -0.022397
v 0.015524 -0.034868 -0.020594
v 0.030539 -0.024642 -0.017591
v 0.014921 -0.034868 -0.009183
v 0.035944 0.033603 -0.013389
v 0.025135 0.043224 -0.009183
v 0.033542 0.025797 -0.022397
v 0.038949 -0.004224 -0.019393
v 0.022730 -0.033052 -0.012187
v 0.042555 0.007783 -0.010385
v 0.031740 0.036611 -0.018192
v 0.018526 0.049837 -0.012788
v 0.037147 0.004792 -0.021195
v 0.022730 -0.031859 -0.018192
v 0.042555 0.009581 -0.016390
v 0.041351 0.020395 -0.010385
v 0.022129 0.044426 -0.019994
v 0.039550 0.026402 -0.013989
v 0.014921 -0.010837 -0.022397
v 0.031740 -0.024642 -0.010986
v 0.030539 0.040224 -0.014590
v 0.036544 -0.016836 -0.016390
v 0.038949 0.024596 -0.017591
v 0.038949 0.027604 -0.010986
v 0.041952 -0.002417 -0.010986
v 0.031740 -0.022247 -0.009183
v 0.032941 -0.023449 -0.013989
v 0.041351 -0.000023 -0.017591
v 0.026336 -0.024045 -0.022397
v 0.038949 -0.012635 -0.015189
v 0.028140 0.042619 -0.011587
v 0.018526 0.049232 -0.017591
v 0.014921 0.045031 -0.021195
v 0.017325 -0.036069 -0.011587
v 0.019127 -0.035464 -0.015191
v 0.038348 0.013782 -0.020595
v 0.023934 0.046224 -0.016390
v 0.035944 0.030603 -0.009183
f 181 212 226 
f 164 165 166 
f 166 165 169 
f 164 166 170 
f 164 170 174 
f 168 174 175 
f 180 167 181 
f 169 180 181 
f 180 171 187 
f 180 172 188 
f 170 175 189 
f 175 174 189 
f 164 174 190 
f 169 165 192 
f 180 169 192 
f 171 180 192 
f 169 181 194 
f 175 163 195 
f 168 175 195 
f 182 168 196 
f 163 175 199 
f 193 163 199 
f 166 169 200 
f 169 194 200 
f 168 195 201 
f 196 168 201 
f 173 196 201 
f 164 190 202 
f 191 183 202 
f 168 191 202 
f 173 185 203 
f 185 179 203 
f 198 177 203 
f 179 198 203 
f 181 167 204 
f 198 179 204 
f 167 198 204 
f 175 186 205 
f 199 175 205 
f 178 199 205 
f 163 193 206 
f 204 179 206 
f 174 170 207 
f 170 189 207 
f 189 174 207 
f 197 183 208 
f 187 197 208 
f 176 193 209 
f 193 199 209 
f 168 182 210 
f 191 168 210 
f 179 185 211 
f 195 163 211 
f 185 195 211 
f 163 206 211 
f 206 179 211 
f 193 176 212 
f 181 204 212 
f 206 193 212 
f 204 206 212 
f 167 180 213 
f 188 177 213 
f 180 188 213 
f 177 198 213 
f 198 167 213 
f 172 180 214 
f 180 187 214 
f 208 172 214 
f 187 208 214 
f 183 191 215 
f 172 208 215 
f 208 183 215 
f 210 172 215 
f 191 210 215 
f 177 182 216 
f 196 173 216 
f 182 196 216 
f 173 203 216 
f 203 177 216 
f 174 168 217 
f 190 174 217 
f 202 190 217 
f 168 202 217 
f 182 177 218 
f 177 188 218 
f 188 172 218 
f 210 182 218 
f 172 210 218 
f 194 176 219 
f 184 200 219 
f 200 194 219 
f 176 209 219 
f 209 184 219 
f 186 166 220 
f 166 200 220 
f 205 186 220 
f 178 205 220 
f 170 166 221 
f 175 170 221 
f 166 186 221 
f 186 175 221 
f 187 171 222 
f 192 165 222 
f 171 192 222 
f 197 187 222 
f 197 222 223 
f 165 164 223 
f 183 197 223 
f 164 202 223 
f 202 183 223 
f 222 165 223 
f 185 173 224 
f 195 185 224 
f 201 195 224 
f 173 201 224 
f 199 178 225 
f 200 184 225 
f 184 209 225 
f 209 199 225 
f 178 220 225 
f 220 200 225 
f 194 181 226 
f 176 194 226 
f 212 176 226 
o convex_6
v -0.041546 -0.002429 0.002232
v -0.024728 -0.008434 0.028665
v -0.024728 -0.009637 0.028665
v -0.033738 -0.009637 -0.008581
v -0.035539 0.004180 -0.006175
v -0.033738 0.004180 0.028665
v -0.034939 -0.009637 0.020254
v -0.040346 0.004180 -0.008581
v -0.029537 0.004180 0.025059
v -0.039744 -0.009637 0.000431
v -0.039144 0.004180 0.015445
v -0.031339 -0.009637 0.028665
v -0.037943 -0.009637 -0.008581
v -0.042148 0.004180 0.001634
v -0.027735 0.001777 0.028063
v -0.036741 -0.003027 0.020254
v -0.039744 -0.009637 0.003436
v -0.024728 -0.009035 0.027462
v -0.041546 -0.002429 -0.000170
v -0.034339 0.001777 0.028063
v -0.036741 0.004180 -0.008581
v -0.030137 0.002378 0.016047
v -0.037943 -0.003027 0.016644
v -0.039744 -0.002429 -0.008581
v -0.033738 -0.009035 -0.008581
v -0.030737 0.004180 0.028665
f 241 235 252 
f 229 228 232 
f 230 229 233 
f 232 231 234 
f 231 232 235 
f 230 233 236 
f 232 234 237 
f 229 232 238 
f 233 229 238 
f 234 230 239 
f 230 236 239 
f 227 237 240 
f 237 234 240 
f 233 238 242 
f 236 233 243 
f 227 236 243 
f 228 229 244 
f 229 230 244 
f 241 228 244 
f 236 227 245 
f 239 236 245 
f 227 240 245 
f 240 234 245 
f 232 237 246 
f 238 232 246 
f 237 242 246 
f 242 238 246 
f 230 234 247 
f 234 231 247 
f 231 235 248 
f 235 241 248 
f 244 231 248 
f 241 244 248 
f 237 227 249 
f 233 242 249 
f 242 237 249 
f 243 233 249 
f 227 243 249 
f 234 239 250 
f 245 234 250 
f 239 245 250 
f 244 230 251 
f 231 244 251 
f 230 247 251 
f 247 231 251 
f 232 228 252 
f 235 232 252 
f 228 241 252 
o convex_7
v -0.020524 -0.024050 0.028666
v -0.013319 -0.005431 0.047288
v -0.013319 -0.005431 0.043681
v -0.031935 -0.005431 0.029268
v -0.011512 -0.021049 0.027469
v -0.013918 -0.012642 0.047288
v -0.008508 -0.019245 0.041277
v -0.027129 -0.009641 0.037077
v -0.025927 -0.005431 0.028666
v -0.012716 -0.028260 0.029869
v -0.008508 -0.012043 0.039475
v -0.026526 -0.019844 0.029268
v -0.018724 -0.005431 0.047288
v -0.008508 -0.015044 0.047288
v -0.031332 -0.012642 0.028666
v -0.021125 -0.016247 0.038875
v -0.008508 -0.009639 0.047288
v -0.010311 -0.021650 0.028670
v -0.014521 -0.025851 0.032271
v -0.012113 -0.028260 0.028666
v -0.016922 -0.009641 0.047288
v -0.016922 -0.005431 0.038272
v -0.008508 -0.019245 0.037079
v -0.030731 -0.012642 0.030469
v -0.031935 -0.005431 0.028666
v -0.024726 -0.018041 0.033474
v -0.025927 -0.007235 0.038875
f 260 265 279 
f 254 255 256 
f 256 255 261 
f 257 261 263 
f 254 256 265 
f 258 254 265 
f 254 258 266 
f 262 259 266 
f 259 263 266 
f 257 253 267 
f 253 264 267 
f 255 254 269 
f 263 255 269 
f 254 266 269 
f 266 263 269 
f 257 263 270 
f 253 262 271 
f 264 253 271 
f 266 258 271 
f 262 266 271 
f 258 268 271 
f 253 257 272 
f 262 253 272 
f 259 262 272 
f 257 270 272 
f 258 265 273 
f 265 260 273 
f 268 258 273 
f 260 268 273 
f 261 255 274 
f 255 263 274 
f 263 261 274 
f 263 259 275 
f 270 263 275 
f 259 272 275 
f 272 270 275 
f 260 256 276 
f 256 267 276 
f 267 264 276 
f 256 261 277 
f 261 257 277 
f 257 267 277 
f 267 256 277 
f 268 260 278 
f 264 271 278 
f 271 268 278 
f 260 276 278 
f 276 264 278 
f 256 260 279 
f 265 256 279 
o convex_8
v -0.013917 -0.005431 0.043082
v -0.033738 0.002378 0.028665
v -0.033738 0.004180 0.028665
v -0.020525 0.000575 0.047288
v -0.016920 0.004180 0.043082
v -0.025928 -0.005431 0.028665
v -0.029531 -0.005431 0.033474
v -0.027129 0.001176 0.028665
v -0.018723 -0.005431 0.047288
v -0.016920 0.004180 0.047288
v -0.021125 0.004180 0.046684
v -0.031935 -0.005431 0.028665
v -0.019924 0.004180 0.038273
v -0.013917 -0.004830 0.047288
v -0.032535 0.001176 0.031069
v -0.016321 -0.004830 0.039477
v -0.028932 0.002978 0.028665
f 292 287 296 
f 281 282 285 
f 285 280 286 
f 285 282 287 
f 286 280 288 
f 283 286 288 
f 284 282 289 
f 283 288 289 
f 289 282 290 
f 283 289 290 
f 281 285 291 
f 285 286 291 
f 282 284 292 
f 280 284 293 
f 288 280 293 
f 284 289 293 
f 289 288 293 
f 282 281 294 
f 286 283 294 
f 290 282 294 
f 283 290 294 
f 281 291 294 
f 291 286 294 
f 284 280 295 
f 280 285 295 
f 285 287 295 
f 292 284 295 
f 287 292 295 
f 287 282 296 
f 282 292 296 
o convex_9
v -0.033140 0.036016 -0.012187
v -0.042150 0.004180 -0.016388
v -0.042150 0.004180 -0.012786
v -0.025931 0.004180 -0.015188
v -0.025931 0.035416 -0.021797
v -0.025931 0.042025 -0.007380
v -0.040345 0.004180 -0.007380
v -0.025931 0.004180 -0.021797
v -0.038543 0.021606 -0.019992
v -0.039145 0.021606 -0.007380
v -0.037343 0.004180 -0.021797
v -0.031939 0.004180 -0.009182
v -0.026533 0.042625 -0.018192
v -0.039745 0.023410 -0.016388
v -0.025931 0.023410 -0.009182
v -0.033140 0.034212 -0.018793
v -0.033741 0.010789 -0.007380
v -0.035539 0.030608 -0.007380
v -0.035539 0.021002 -0.021797
v -0.042150 0.011993 -0.015790
v -0.040345 0.008989 -0.019992
v -0.037943 0.028207 -0.012786
v -0.040345 0.014997 -0.007380
v -0.032540 0.031812 -0.020595
v -0.040345 0.021606 -0.012786
v -0.033741 0.035416 -0.015188
v -0.026533 0.043229 -0.012187
v -0.030137 0.038416 -0.007380
v -0.025931 0.036016 -0.007380
v -0.040946 0.017998 -0.017590
v -0.025931 0.041425 -0.019394
v -0.036741 0.029411 -0.017590
v -0.042150 0.010189 -0.012786
v -0.036141 0.004180 -0.007380
f 308 313 330 
f 299 298 300 
f 300 301 302 
f 299 300 303 
f 300 298 304 
f 301 300 304 
f 303 302 306 
f 304 298 307 
f 301 304 307 
f 303 300 308 
f 300 302 311 
f 308 300 311 
f 302 303 313 
f 308 311 313 
f 306 302 314 
f 301 307 315 
f 298 299 316 
f 307 298 317 
f 315 307 317 
f 305 315 317 
f 298 316 317 
f 314 297 318 
f 306 314 318 
f 299 303 319 
f 303 306 319 
f 305 312 320 
f 301 315 320 
f 315 305 320 
f 306 318 321 
f 318 310 321 
f 319 306 321 
f 309 312 322 
f 318 297 322 
f 322 297 323 
f 309 322 323 
f 297 314 324 
f 314 302 324 
f 323 297 324 
f 302 323 324 
f 311 302 325 
f 302 313 325 
f 313 311 325 
f 310 305 326 
f 305 317 326 
f 317 316 326 
f 321 310 326 
f 316 321 326 
f 302 301 327 
f 312 309 327 
f 301 320 327 
f 320 312 327 
f 323 302 327 
f 309 323 327 
f 305 310 328 
f 312 305 328 
f 310 318 328 
f 322 312 328 
f 318 322 328 
f 316 299 329 
f 299 319 329 
f 321 316 329 
f 319 321 329 
f 303 308 330 
f 313 303 330 
o convex_10
v -0.025930 0.042627 -0.018793
v -0.012113 0.050431 -0.007380
v -0.012113 0.051639 -0.013388
v -0.012113 0.004180 -0.021797
v -0.025930 0.004180 -0.015188
v -0.025930 0.042627 -0.007380
v -0.012113 0.004180 -0.012786
v -0.012113 0.045028 -0.021797
v -0.025930 0.004180 -0.021797
v -0.012715 0.018001 -0.009182
v -0.025930 0.036016 -0.021797
v -0.025930 0.024008 -0.009182
v -0.018721 0.049233 -0.015790
v -0.013916 0.049233 -0.019992
v -0.024726 0.036016 -0.007380
v -0.014516 0.038418 -0.007380
v -0.023526 0.046227 -0.013388
v -0.019322 0.047426 -0.007380
v -0.020523 0.045623 -0.019992
v -0.012113 0.051035 -0.018192
v -0.012113 0.018001 -0.009182
v -0.016319 0.050431 -0.013989
v -0.025328 0.044429 -0.016991
v -0.019921 0.047426 -0.018793
f 353 343 354 
f 333 332 334 
f 331 335 336 
f 334 332 337 
f 335 334 337 
f 333 334 338 
f 338 334 339 
f 335 331 339 
f 334 335 339 
f 338 339 341 
f 339 331 341 
f 336 335 342 
f 335 337 342 
f 337 340 342 
f 332 336 345 
f 336 342 345 
f 342 340 345 
f 332 345 346 
f 336 332 348 
f 347 336 348 
f 341 331 349 
f 338 341 349 
f 344 338 349 
f 333 338 350 
f 338 344 350 
f 337 332 351 
f 340 337 351 
f 345 340 351 
f 332 346 351 
f 346 345 351 
f 332 333 352 
f 343 347 352 
f 347 348 352 
f 348 332 352 
f 333 350 352 
f 350 343 352 
f 331 336 353 
f 336 347 353 
f 347 343 353 
f 349 331 354 
f 344 349 354 
f 343 350 354 
f 350 344 354 
f 331 353 354 
o convex_11
v -0.022925 0.004180 0.037076
v -0.016319 0.016195 0.047288
v -0.019924 0.016195 0.047288
v -0.021123 0.016195 0.036474
v -0.016920 0.004180 0.043082
v -0.020522 0.004180 0.047288
v -0.024127 0.016195 0.040680
v -0.016319 0.016195 0.042480
v -0.024127 0.004180 0.041282
v -0.019924 0.004180 0.038277
v -0.016920 0.004180 0.047288
v -0.024127 0.016195 0.038878
v -0.021123 0.011389 0.046687
v -0.018121 0.015593 0.039479
f 359 364 368 
f 357 356 358 
f 356 357 360 
f 355 359 360 
f 357 358 361 
f 358 356 362 
f 356 359 362 
f 355 360 363 
f 355 358 364 
f 359 355 364 
f 359 356 365 
f 356 360 365 
f 360 359 365 
f 358 355 366 
f 361 358 366 
f 355 363 366 
f 363 361 366 
f 360 357 367 
f 357 361 367 
f 363 360 367 
f 361 363 367 
f 358 362 368 
f 362 359 368 
f 364 358 368 
o convex_12
v -0.012717 0.039624 0.034072
v -0.031335 0.018598 0.030467
v -0.031335 0.018598 0.031069
v -0.015720 0.016195 0.046686
v -0.016320 0.025808 0.047287
v -0.012113 0.034817 0.030467
v -0.022924 0.036618 0.031069
v -0.020525 0.016195 0.036475
v -0.012113 0.029411 0.047287
v -0.019925 0.016195 0.047287
v -0.027129 0.028811 0.034072
v -0.012113 0.023407 0.042481
v -0.024727 0.019201 0.030467
v -0.012113 0.041426 0.030467
v -0.019925 0.034817 0.036475
v -0.028330 0.030011 0.030467
v -0.017522 0.016195 0.040076
v -0.012113 0.024007 0.047889
v -0.024727 0.016195 0.039476
v -0.019323 0.019804 0.047287
v -0.030733 0.021004 0.031669
v -0.025327 0.027611 0.037077
v -0.030733 0.017998 0.030467
v -0.014517 0.028211 0.047287
f 383 390 392 
f 376 372 378 
f 374 377 380 
f 370 374 381 
f 374 376 381 
f 374 370 382 
f 375 369 382 
f 369 377 382 
f 377 374 382 
f 369 375 383 
f 377 369 383 
f 375 379 383 
f 379 375 384 
f 382 370 384 
f 375 382 384 
f 372 376 385 
f 376 374 385 
f 380 372 385 
f 374 380 385 
f 378 372 386 
f 372 380 386 
f 380 377 386 
f 378 371 387 
f 376 378 387 
f 386 373 388 
f 378 386 388 
f 370 371 389 
f 371 378 389 
f 384 370 389 
f 379 384 389 
f 378 388 389 
f 389 388 390 
f 383 379 390 
f 388 373 390 
f 379 389 390 
f 371 370 391 
f 370 381 391 
f 381 376 391 
f 387 371 391 
f 376 387 391 
f 377 383 392 
f 373 386 392 
f 386 377 392 
f 390 373 392 
o convex_13
v 0.009512 0.018595 -0.007380
v -0.012113 -0.018648 -0.022398
v -0.012113 -0.018648 -0.015189
v -0.012113 0.032415 -0.021797
v 0.014921 -0.018648 -0.022398
v 0.014921 0.032415 -0.021797
v 0.014921 -0.009631 -0.009184
v -0.012113 0.022799 -0.009182
v 0.014921 0.032415 -0.013388
v -0.012113 -0.007232 -0.009184
v 0.014921 -0.018648 -0.013388
v -0.012113 0.032415 -0.014592
v 0.014921 0.022799 -0.007981
v -0.001298 0.012587 -0.022398
v 0.002904 0.013792 -0.007380
v 0.008911 -0.002428 -0.007981
v -0.011509 0.019195 -0.008582
v 0.014317 -0.007831 -0.008582
v -0.009707 -0.000624 -0.008582
v 0.002304 0.018595 -0.007380
v 0.009512 0.010188 -0.007380
v 0.004701 -0.002428 -0.007981
v 0.014921 -0.010236 -0.022398
f 406 398 415 
f 394 395 396 
f 395 394 397 
f 397 398 399 
f 396 395 400 
f 398 396 401 
f 399 398 401 
f 400 395 402 
f 395 397 403 
f 397 399 403 
f 399 402 403 
f 402 395 403 
f 396 400 404 
f 401 396 404 
f 400 401 404 
f 399 401 405 
f 401 400 405 
f 394 396 406 
f 397 394 406 
f 396 398 406 
f 400 402 409 
f 402 399 410 
f 399 405 410 
f 409 402 411 
f 409 411 412 
f 393 405 412 
f 405 400 412 
f 407 393 412 
f 400 409 412 
f 411 407 412 
f 405 393 413 
f 393 407 413 
f 410 405 413 
f 408 410 413 
f 402 410 414 
f 410 408 414 
f 411 402 414 
f 407 411 414 
f 413 407 414 
f 408 413 414 
f 398 397 415 
f 397 406 415 
o convex_14
v 0.033544 0.034821 -0.006777
v 0.014921 0.042624 0.004634
v 0.014921 0.042624 0.005835
v 0.032939 0.023404 0.004634
v 0.026337 0.045028 0.005835
v 0.014921 0.044426 -0.007378
v 0.038950 0.023404 -0.007378
v 0.039546 0.027014 0.005835
v 0.015522 0.049834 -0.006777
v 0.014921 0.049834 0.005835
v 0.034742 0.023404 -0.007378
v 0.025136 0.043826 -0.007378
v 0.039546 0.023404 0.005835
v 0.017927 0.050437 0.000429
v 0.035943 0.033622 0.005234
v 0.036545 0.030015 -0.007378
v 0.032939 0.023404 0.005835
v 0.014921 0.051639 0.002231
v 0.040753 0.024007 0.002231
v 0.031139 0.038420 -0.004375
v 0.025136 0.046228 0.004032
v 0.038950 0.028816 0.004634
v 0.020929 0.046830 -0.007378
f 429 436 438 
f 418 417 419 
f 417 418 421 
f 419 417 421 
f 420 418 423 
f 418 420 425 
f 421 418 425 
f 419 421 426 
f 421 422 426 
f 422 419 426 
f 422 421 427 
f 419 422 428 
f 423 418 428 
f 420 423 430 
f 427 416 431 
f 422 427 431 
f 418 419 432 
f 428 418 432 
f 419 428 432 
f 424 421 433 
f 421 425 433 
f 425 420 433 
f 429 424 433 
f 428 422 434 
f 423 428 434 
f 422 431 434 
f 416 427 435 
f 430 416 435 
f 420 430 435 
f 433 420 436 
f 429 433 436 
f 435 427 436 
f 420 435 436 
f 416 430 437 
f 430 423 437 
f 431 416 437 
f 423 434 437 
f 434 431 437 
f 421 424 438 
f 427 421 438 
f 424 429 438 
f 436 427 438 
o convex_15
v -0.012113 0.045631 -0.021797
v 0.005307 0.053441 -0.012789
v 0.008310 0.052840 -0.011586
v -0.012113 0.046230 -0.006779
v 0.014921 0.032415 -0.021797
v -0.012113 0.032415 -0.014587
v 0.014921 0.039024 -0.008581
v 0.014921 0.048633 -0.019995
v -0.012113 0.032415 -0.021797
v 0.014921 0.049835 -0.006779
v -0.010909 0.051638 -0.017590
v -0.004902 0.052237 -0.006779
v 0.014921 0.032415 -0.013390
v 0.004106 0.049232 -0.021196
v 0.008310 0.042029 -0.006779
v -0.012113 0.039627 -0.009183
v 0.011314 0.052237 -0.016389
v -0.012113 0.050436 -0.006779
v 0.013717 0.043225 -0.021797
v -0.006103 0.051638 -0.019394
v -0.007905 0.052840 -0.013990
v 0.007109 0.052237 -0.006779
v 0.014317 0.051638 -0.013390
v -0.012113 0.049835 -0.019995
v -0.000096 0.053441 -0.015186
v 0.008911 0.051035 -0.019394
v -0.007905 0.049232 -0.021196
v 0.014317 0.033016 -0.012789
v -0.012113 0.051638 -0.012187
v 0.014921 0.044427 -0.006779
v -0.002499 0.053441 -0.012187
v -0.001898 0.047432 -0.021797
v 0.014921 0.051035 -0.016990
f 464 455 471 
f 442 439 444 
f 445 443 446 
f 439 443 447 
f 444 439 447 
f 443 444 447 
f 445 446 448 
f 442 448 450 
f 444 443 451 
f 443 445 451 
f 448 442 453 
f 442 444 454 
f 453 442 454 
f 445 453 454 
f 439 442 456 
f 442 450 456 
f 443 439 457 
f 446 443 457 
f 452 446 457 
f 441 440 460 
f 450 448 460 
f 440 441 461 
f 455 440 461 
f 441 460 461 
f 460 448 461 
f 439 456 462 
f 449 458 462 
f 440 455 463 
f 458 449 463 
f 449 459 463 
f 446 452 464 
f 452 458 464 
f 463 455 464 
f 458 463 464 
f 458 452 465 
f 439 462 465 
f 462 458 465 
f 444 451 466 
f 451 445 466 
f 454 444 466 
f 445 454 466 
f 456 450 467 
f 450 459 467 
f 459 449 467 
f 462 456 467 
f 449 462 467 
f 445 448 468 
f 453 445 468 
f 448 453 468 
f 459 450 469 
f 460 440 469 
f 450 460 469 
f 440 463 469 
f 463 459 469 
f 457 439 470 
f 452 457 470 
f 439 465 470 
f 465 452 470 
f 448 446 471 
f 461 448 471 
f 455 461 471 
f 446 464 471 
o convex_16
v -0.012719 -0.037271 -0.000170
v -0.039744 -0.010240 0.001034
v -0.039744 -0.010240 0.003433
v -0.012113 -0.023454 0.011844
v -0.025928 -0.010840 -0.008581
v -0.028330 -0.027057 0.011844
v -0.030132 -0.024051 -0.008581
v -0.029531 -0.009637 0.011844
v -0.012113 -0.028258 -0.008581
v -0.012113 -0.035466 0.011844
v -0.037340 -0.009637 -0.008581
v -0.020527 -0.032461 -0.008581
v -0.034938 -0.019250 0.011242
v -0.024130 -0.031863 0.005234
v -0.036739 -0.009637 0.011844
v -0.012113 -0.024655 -0.004375
v -0.012113 -0.036067 -0.007979
v -0.036139 -0.018650 0.005836
v -0.033737 -0.019250 -0.008581
v -0.015721 -0.036665 0.001034
v -0.024730 -0.012642 0.007038
v -0.031933 -0.009637 -0.008581
v -0.017522 -0.033665 0.011242
v -0.027730 -0.027057 -0.006778
v -0.037940 -0.015644 0.002829
v -0.036739 -0.013242 -0.008581
v -0.012113 -0.025252 -0.006778
v -0.015721 -0.036665 0.003433
v -0.028330 -0.027657 0.007038
v -0.012113 -0.023454 0.007637
v -0.013319 -0.022253 0.011844
v -0.015721 -0.034866 -0.008581
v -0.020527 -0.034265 0.002829
f 499 485 504 
f 477 475 479 
f 478 476 480 
f 475 477 481 
f 480 475 481 
f 473 474 482 
f 476 478 482 
f 478 480 483 
f 477 479 486 
f 482 474 486 
f 479 482 486 
f 474 484 486 
f 484 477 486 
f 475 480 487 
f 481 472 488 
f 480 481 488 
f 477 484 489 
f 482 478 490 
f 478 489 490 
f 488 472 491 
f 476 479 492 
f 479 476 493 
f 476 482 493 
f 482 479 493 
f 481 477 494 
f 477 485 494 
f 478 483 495 
f 483 485 495 
f 489 478 495 
f 474 473 496 
f 484 474 496 
f 489 484 496 
f 490 489 496 
f 490 496 497 
f 473 482 497 
f 482 490 497 
f 496 473 497 
f 480 476 498 
f 476 487 498 
f 487 480 498 
f 472 481 499 
f 491 472 499 
f 481 494 499 
f 494 485 499 
f 485 477 500 
f 477 489 500 
f 495 485 500 
f 489 495 500 
f 475 487 501 
f 487 476 501 
f 479 475 502 
f 476 492 502 
f 492 479 502 
f 475 501 502 
f 501 476 502 
f 483 480 503 
f 480 488 503 
f 491 483 503 
f 488 491 503 
f 485 483 504 
f 483 491 504 
f 491 499 504 
o convex_17
v -0.012115 -0.033065 0.020254
v -0.036743 -0.010839 0.011844
v -0.036743 -0.010839 0.012445
v -0.013918 -0.018651 0.028064
v -0.012115 -0.023452 0.011844
v -0.027129 -0.019251 0.028665
v -0.028930 -0.026453 0.011844
v -0.024130 -0.009637 0.028665
v -0.029530 -0.009637 0.011844
v -0.012115 -0.034868 0.011844
v -0.012115 -0.028859 0.028665
v -0.031934 -0.013242 0.028064
v -0.031333 -0.009637 0.028665
v -0.018723 -0.028859 0.023256
v -0.034938 -0.018651 0.012445
v -0.028330 -0.022252 0.023256
v -0.012115 -0.020452 0.028665
v -0.016922 -0.033665 0.012445
v -0.036743 -0.009637 0.013647
v -0.033737 -0.016246 0.020854
v -0.012115 -0.022852 0.013046
v -0.028930 -0.025253 0.016049
v -0.015722 -0.027658 0.028665
v -0.024130 -0.009637 0.028064
f 525 513 528 
f 506 509 511 
f 509 506 513 
f 509 505 514 
f 511 509 514 
f 505 509 515 
f 512 510 515 
f 510 512 517 
f 512 513 517 
f 516 510 517 
f 507 506 519 
f 506 511 519 
f 510 516 520 
f 508 512 521 
f 515 509 521 
f 512 515 521 
f 514 505 522 
f 511 514 522 
f 505 518 522 
f 506 507 523 
f 513 506 523 
f 517 513 523 
f 516 517 523 
f 507 519 524 
f 520 516 524 
f 523 507 524 
f 516 523 524 
f 509 513 525 
f 508 521 525 
f 521 509 525 
f 519 511 526 
f 518 520 526 
f 511 522 526 
f 522 518 526 
f 524 519 526 
f 520 524 526 
f 505 515 527 
f 515 510 527 
f 518 505 527 
f 510 520 527 
f 520 518 527 
f 512 508 528 
f 513 512 528 
f 508 525 528 
o convex_18
v -0.031939 0.020398 0.029863
v -0.040346 0.004180 -0.007380
v -0.040346 0.015592 -0.007380
v -0.031939 0.018597 -0.007380
v -0.030136 0.004180 0.026862
v -0.038544 0.004180 0.017849
v -0.039145 0.026408 0.003434
v -0.030136 0.026408 0.005238
v -0.035543 0.004180 -0.006176
v -0.030136 0.026408 0.027463
v -0.042150 0.013793 0.001634
v -0.037342 0.026408 -0.007380
v -0.037342 0.017994 0.019049
v -0.034341 0.004180 0.028063
v -0.030136 0.017396 0.002834
v -0.042150 0.004180 -0.000170
v -0.033141 0.026408 -0.007380
v -0.034341 0.026408 0.019653
v -0.031939 0.015592 -0.007380
v -0.030136 0.004180 0.023258
v -0.037342 0.011994 0.021454
v -0.030136 0.017994 0.030467
v -0.040947 0.021001 0.002234
v -0.039745 0.010790 0.013644
v -0.034942 0.013192 0.026862
v -0.042150 0.006587 0.002234
v -0.040947 0.021001 0.000433
v -0.031939 0.004180 0.028663
v -0.037342 0.022200 0.015448
v -0.042150 0.012594 -0.000771
v -0.038544 0.017396 0.015448
v -0.034341 0.022200 0.023858
v -0.036143 0.004180 -0.007380
v -0.030737 0.024604 0.029263
v -0.031939 0.017994 0.030467
v -0.033741 0.004180 0.002834
f 548 537 564 
f 530 531 532 
f 530 533 534 
f 533 530 537 
f 536 535 538 
f 533 536 538 
f 532 531 540 
f 535 536 540 
f 534 533 542 
f 536 533 543 
f 532 536 543 
f 530 534 544 
f 536 532 545 
f 532 540 545 
f 540 536 545 
f 538 535 546 
f 530 532 547 
f 532 543 547 
f 547 543 548 
f 533 537 548 
f 543 533 548 
f 534 542 549 
f 533 538 550 
f 534 549 552 
f 541 549 553 
f 549 542 553 
f 544 534 554 
f 539 544 554 
f 534 552 554 
f 552 539 554 
f 540 531 555 
f 535 540 555 
f 539 551 555 
f 551 535 555 
f 542 533 556 
f 533 550 556 
f 546 535 557 
f 535 551 557 
f 531 530 558 
f 530 544 558 
f 544 539 558 
f 555 531 558 
f 539 555 558 
f 549 541 559 
f 551 539 559 
f 539 552 559 
f 552 549 559 
f 541 557 559 
f 557 551 559 
f 553 529 560 
f 541 553 560 
f 546 557 560 
f 557 541 560 
f 537 530 561 
f 530 547 561 
f 547 537 561 
f 538 546 562 
f 550 538 562 
f 560 529 562 
f 546 560 562 
f 529 553 563 
f 553 542 563 
f 542 556 563 
f 556 550 563 
f 562 529 563 
f 550 562 563 
f 537 547 564 
f 547 548 564 
o convex_19
v -0.029534 0.026408 0.029865
v -0.030135 0.014994 0.024460
v -0.029534 0.014994 0.024460
v -0.030135 0.026408 0.007639
v -0.022325 0.025206 0.029865
v -0.029534 0.017397 0.007040
v -0.024729 0.019801 0.030467
v -0.030135 0.017999 0.030467
v -0.022325 0.026408 0.030467
v -0.029534 0.026408 0.007639
v -0.030135 0.024005 0.030467
v -0.030135 0.017999 0.006437
v -0.029534 0.018600 0.006437
f 570 576 577 
f 567 566 570 
f 567 570 571 
f 570 569 571 
f 566 567 572 
f 568 566 572 
f 567 571 572 
f 572 571 573 
f 568 565 573 
f 571 569 573 
f 573 569 574 
f 568 573 574 
f 565 568 575 
f 568 572 575 
f 572 573 575 
f 573 565 575 
f 566 568 576 
f 570 566 576 
f 569 570 577 
f 574 569 577 
f 568 574 577 
f 576 568 577 
o convex_20
v -0.025928 0.042631 -0.007380
v -0.012113 0.042029 0.030467
v -0.012716 0.042029 0.030467
v -0.012113 0.052240 0.001634
v -0.015118 0.037823 -0.007380
v -0.028932 0.036020 0.016649
v -0.012113 0.036020 0.030467
v -0.025928 0.043230 0.014244
v -0.031334 0.036020 -0.007380
v -0.012113 0.050436 -0.007380
v -0.022924 0.037223 0.030467
v -0.019323 0.049234 0.004038
v -0.012716 0.046230 0.022654
v -0.012113 0.045629 -0.007380
v -0.024125 0.036020 -0.007380
v -0.031935 0.036622 0.002834
v -0.022924 0.046832 0.004638
v -0.025326 0.040226 0.022654
v -0.019323 0.047434 -0.007380
v -0.024125 0.036020 0.029263
v -0.013917 0.039625 -0.007380
v -0.028932 0.040226 -0.003775
v -0.014519 0.048034 0.015448
v -0.014519 0.051638 0.000433
v -0.025928 0.043831 0.011244
v -0.023524 0.039025 0.027463
v -0.012113 0.036020 0.028663
v -0.030732 0.036622 0.010043
v -0.019323 0.049234 0.001634
f 601 596 606 
f 579 580 584 
f 581 579 584 
f 578 582 586 
f 584 583 586 
f 582 578 587 
f 581 584 587 
f 584 580 588 
f 580 579 590 
f 579 581 590 
f 582 587 591 
f 587 584 591 
f 586 582 592 
f 584 586 592 
f 586 583 593 
f 590 585 595 
f 587 578 596 
f 583 584 597 
f 584 588 597 
f 595 583 597 
f 588 595 597 
f 582 591 598 
f 578 586 599 
f 586 593 599 
f 594 578 599 
f 581 589 600 
f 589 585 600 
f 590 581 600 
f 585 590 600 
f 581 587 601 
f 589 581 601 
f 587 596 601 
f 585 589 602 
f 593 585 602 
f 589 594 602 
f 599 593 602 
f 594 599 602 
f 588 580 603 
f 580 590 603 
f 595 588 603 
f 590 595 603 
f 591 584 604 
f 592 582 604 
f 584 592 604 
f 582 598 604 
f 598 591 604 
f 585 593 605 
f 593 583 605 
f 583 595 605 
f 595 585 605 
f 594 589 606 
f 578 594 606 
f 596 578 606 
f 589 601 606 
o convex_21
v 0.011917 -0.039676 -0.012787
v -0.008508 -0.040878 -0.017591
v -0.008508 -0.040878 -0.013388
v 0.005307 -0.061298 -0.007380
v 0.004707 -0.047487 -0.021797
v -0.001299 -0.039676 -0.007380
v -0.003702 -0.058894 -0.007981
v 0.011315 -0.054690 -0.007380
v 0.009514 -0.039676 -0.021196
v -0.001898 -0.051686 -0.019393
v 0.007710 -0.056491 -0.015187
v -0.005503 -0.039676 -0.021797
v 0.008912 -0.041479 -0.007380
v -0.005503 -0.048086 -0.007380
v 0.001107 -0.059495 -0.012187
v 0.010715 -0.051085 -0.015187
v -0.004904 -0.048687 -0.018794
v 0.006509 -0.051085 -0.019995
v 0.011917 -0.040277 -0.017591
v -0.008508 -0.039676 -0.012787
v -0.004904 -0.056491 -0.007380
v -0.000097 -0.045082 -0.022398
v 0.001704 -0.052287 -0.019995
v 0.010114 -0.057693 -0.009182
v 0.006509 -0.039676 -0.022398
v 0.011315 -0.046284 -0.007380
v -0.001299 -0.056491 -0.015187
v 0.007111 -0.039676 -0.007380
v 0.008912 -0.051085 -0.018192
v -0.004904 -0.051686 -0.015789
v 0.004106 -0.056491 -0.016388
v -0.004302 -0.042679 -0.007380
v 0.000505 -0.061298 -0.007380
v -0.003100 -0.046885 -0.021196
v -0.007907 -0.040277 -0.019995
v 0.005909 -0.059495 -0.011587
f 621 637 642 
f 612 610 614 
f 612 607 615 
f 612 615 618 
f 612 614 619 
f 610 612 620 
f 611 615 624 
f 607 614 625 
f 615 607 625 
f 614 622 625 
f 608 609 626 
f 612 618 626 
f 620 626 627 
f 609 608 627 
f 610 620 627 
f 626 609 627 
f 611 624 629 
f 628 611 629 
f 614 610 630 
f 622 614 630 
f 617 622 630 
f 615 611 631 
f 618 615 631 
f 611 628 631 
f 628 618 631 
f 614 607 632 
f 607 619 632 
f 619 614 632 
f 621 613 633 
f 616 629 633 
f 607 612 634 
f 619 607 634 
f 612 619 634 
f 622 617 635 
f 624 615 635 
f 617 624 635 
f 615 625 635 
f 625 622 635 
f 623 616 636 
f 627 608 636 
f 613 627 636 
f 633 613 636 
f 616 633 636 
f 624 617 637 
f 629 624 637 
f 621 633 637 
f 633 629 637 
f 620 612 638 
f 612 626 638 
f 626 620 638 
f 621 610 639 
f 613 621 639 
f 610 627 639 
f 627 613 639 
f 616 623 640 
f 618 628 640 
f 629 616 640 
f 628 629 640 
f 608 626 641 
f 626 618 641 
f 636 608 641 
f 623 636 641 
f 640 623 641 
f 618 640 641 
f 610 621 642 
f 630 610 642 
f 617 630 642 
f 637 617 642 
o convex_22
v 0.012518 -0.052887 0.004634
v -0.006105 -0.057694 0.005234
v -0.006105 -0.057694 0.005835
v -0.000097 -0.039676 -0.006777
v 0.005908 -0.061298 -0.007378
v -0.004902 -0.056491 -0.007378
v 0.011315 -0.046887 -0.007378
v 0.005308 -0.045684 0.005835
v 0.005908 -0.064302 0.005835
v -0.001298 -0.063099 -0.000171
v -0.004902 -0.050491 0.005835
v -0.004902 -0.045684 -0.007378
v 0.010715 -0.057694 -0.006177
v 0.007711 -0.040879 -0.007378
v 0.011315 -0.060095 0.005835
v 0.010113 -0.048087 0.005835
v -0.002500 -0.063099 0.005835
v -0.000097 -0.046284 0.005835
v -0.001900 -0.060695 -0.007378
v 0.011916 -0.051691 -0.007378
v -0.004302 -0.060095 -0.002573
v 0.005908 -0.039676 -0.006777
v 0.008312 -0.061898 -0.001372
v 0.001706 -0.063699 -0.000772
v 0.012518 -0.057091 0.005835
v -0.003701 -0.042680 -0.006777
v -0.005504 -0.049288 -0.007378
v -0.006105 -0.054090 0.005835
v 0.010113 -0.043883 -0.006777
v 0.000505 -0.064302 0.005234
v 0.010113 -0.058294 -0.007378
f 657 665 673 
f 647 648 649 
f 650 645 651 
f 645 650 653 
f 649 648 654 
f 654 646 656 
f 649 654 656 
f 650 651 657 
f 650 657 658 
f 645 644 659 
f 651 645 659 
f 650 646 660 
f 653 650 660 
f 648 647 661 
f 649 643 662 
f 647 649 662 
f 644 648 663 
f 659 644 663 
f 652 659 663 
f 648 661 663 
f 661 652 663 
f 646 650 664 
f 656 646 664 
f 658 656 664 
f 650 658 664 
f 651 647 665 
f 657 651 665 
f 647 651 666 
f 661 647 666 
f 652 661 666 
f 657 655 667 
f 643 658 667 
f 658 657 667 
f 662 643 667 
f 655 662 667 
f 646 654 668 
f 654 653 668 
f 660 646 668 
f 653 660 668 
f 648 644 669 
f 654 648 669 
f 654 669 670 
f 644 645 670 
f 645 653 670 
f 653 654 670 
f 669 644 670 
f 643 649 671 
f 649 656 671 
f 658 643 671 
f 656 658 671 
f 651 659 672 
f 659 652 672 
f 666 651 672 
f 652 666 672 
f 655 657 673 
f 647 662 673 
f 662 655 673 
f 665 647 673 
o convex_23
v 0.014921 -0.055897 0.013048
v -0.012110 -0.057693 0.014249
v -0.012110 -0.057693 0.016050
v 0.002305 -0.042677 0.018457
v 0.005909 -0.064304 0.031067
v -0.000696 -0.064304 0.005837
v 0.003503 -0.045683 0.005837
v -0.009708 -0.052894 0.028060
v 0.008308 -0.049889 0.028060
v 0.008308 -0.070312 0.016654
v -0.005503 -0.067907 0.017253
v 0.011915 -0.059497 0.005837
v -0.007303 -0.046283 0.014851
v 0.013717 -0.049288 0.019650
v -0.006104 -0.053492 0.005837
v 0.014317 -0.062500 0.019051
v 0.010113 -0.048085 0.005837
v -0.001900 -0.048085 0.028665
v -0.008504 -0.057095 0.028665
v -0.004900 -0.067306 0.010643
v 0.010714 -0.056494 0.028060
v 0.007708 -0.043881 0.019653
v 0.003503 -0.067306 0.026862
v 0.005305 -0.054696 0.031067
v -0.011510 -0.052291 0.014249
v 0.006509 -0.064304 0.005837
v 0.011915 -0.067907 0.016654
v 0.008308 -0.066103 0.028060
v -0.005503 -0.060095 0.005837
v 0.001701 -0.063703 0.031067
v -0.009708 -0.050492 0.025661
v -0.001900 -0.043283 0.017253
v -0.001296 -0.069105 0.011845
v -0.001900 -0.047487 0.005837
v 0.004104 -0.046886 0.027461
v 0.005305 -0.070312 0.019048
v 0.014921 -0.053492 0.019650
v 0.008909 -0.044482 0.015450
v 0.012515 -0.052291 0.005837
v -0.000095 -0.051690 0.030462
v -0.008504 -0.064902 0.016050
v 0.014921 -0.060698 0.015448
v -0.001900 -0.046283 0.026257
v -0.010909 -0.058896 0.011845
v 0.013717 -0.049288 0.016050
v 0.002305 -0.060698 0.031669
v 0.010113 -0.053492 0.028665
v -0.010909 -0.052291 0.025661
v -0.008504 -0.060095 0.025059
v 0.011314 -0.046283 0.020252
v -0.010308 -0.049889 0.014249
v 0.010714 -0.069105 0.019048
v 0.011915 -0.065502 0.012446
v 0.007708 -0.069706 0.014249
v 0.004104 -0.049889 0.029866
v -0.004300 -0.044482 0.018457
v -0.000696 -0.043283 0.014851
v -0.004900 -0.067907 0.018457
v -0.007303 -0.054092 0.029264
v -0.006104 -0.060698 0.027461
v -0.003098 -0.069105 0.016654
v 0.001104 -0.043283 0.020851
v -0.010308 -0.057095 0.024457
v -0.006705 -0.065502 0.010643
f 714 717 737 
f 679 680 685 
f 680 679 688 
f 685 680 690 
f 675 676 698 
f 679 685 699 
f 694 678 701 
f 689 694 701 
f 678 696 701 
f 688 679 702 
f 679 693 702 
f 696 678 703 
f 681 691 704 
f 693 679 706 
f 679 699 706 
f 680 688 707 
f 701 696 709 
f 706 683 709 
f 694 689 710 
f 680 677 711 
f 690 680 711 
f 677 695 711 
f 674 685 712 
f 685 690 712 
f 676 675 714 
f 693 684 714 
f 685 674 715 
f 689 700 715 
f 674 710 715 
f 710 689 715 
f 704 691 716 
f 691 708 716 
f 675 698 717 
f 698 688 717 
f 688 702 717 
f 714 675 717 
f 710 674 718 
f 687 710 718 
f 690 711 718 
f 674 712 718 
f 712 690 718 
f 678 697 719 
f 692 703 719 
f 703 678 719 
f 697 713 719 
f 687 682 720 
f 678 694 720 
f 697 678 720 
f 710 687 720 
f 694 710 720 
f 692 681 721 
f 698 676 721 
f 681 704 721 
f 714 684 722 
f 682 687 723 
f 695 708 723 
f 708 682 723 
f 711 695 723 
f 687 718 723 
f 718 711 723 
f 688 698 724 
f 704 686 724 
f 707 688 724 
f 686 707 724 
f 698 721 724 
f 721 704 724 
f 683 700 725 
f 700 689 725 
f 689 701 725 
f 701 709 725 
f 709 683 725 
f 699 685 726 
f 685 715 726 
f 715 700 726 
f 700 683 727 
f 683 706 727 
f 706 699 727 
f 699 726 727 
f 726 700 727 
f 708 691 728 
f 682 708 728 
f 691 713 728 
f 713 697 728 
f 720 682 728 
f 697 720 728 
f 686 704 729 
f 705 686 729 
f 704 716 729 
f 677 680 730 
f 705 677 730 
f 686 705 730 
f 680 707 730 
f 707 686 730 
f 696 703 731 
f 722 684 731 
f 691 681 732 
f 681 692 732 
f 713 691 732 
f 692 719 732 
f 719 713 732 
f 703 692 733 
f 692 722 733 
f 731 703 733 
f 722 731 733 
f 684 693 734 
f 693 706 734 
f 709 696 734 
f 706 709 734 
f 696 731 734 
f 731 684 734 
f 695 677 735 
f 677 705 735 
f 708 695 735 
f 716 708 735 
f 705 729 735 
f 729 716 735 
f 676 714 736 
f 721 676 736 
f 692 721 736 
f 722 692 736 
f 714 722 736 
f 702 693 737 
f 693 714 737 
f 717 702 737 
o convex_24
v -0.012113 0.034816 0.030469
v 0.001704 0.031212 0.047889
v -0.005504 0.031212 0.047889
v -0.011511 0.023404 0.043683
v 0.001704 0.028813 0.041277
v -0.012113 0.036621 0.037677
v 0.001704 0.033615 0.040677
v -0.012113 0.023404 0.047285
v 0.001704 0.027611 0.047889
v -0.012113 0.028813 0.047889
v -0.009709 0.036621 0.029867
v -0.007905 0.036621 0.038874
v -0.011511 0.025209 0.040677
v 0.001704 0.030613 0.039478
v -0.010910 0.036018 0.029266
v 0.001704 0.032413 0.046685
v 0.001704 0.027611 0.043683
v -0.006105 0.031813 0.047285
f 753 749 755 
f 739 742 744 
f 743 738 745 
f 739 740 746 
f 742 739 746 
f 745 741 746 
f 745 746 747 
f 743 745 747 
f 746 740 747 
f 744 748 749 
f 748 743 749 
f 742 741 750 
f 745 738 750 
f 741 745 750 
f 744 742 751 
f 748 744 751 
f 748 751 752 
f 738 743 752 
f 743 748 752 
f 750 738 752 
f 742 750 752 
f 751 742 752 
f 740 739 753 
f 739 744 753 
f 744 749 753 
f 741 742 754 
f 746 741 754 
f 742 746 754 
f 747 740 755 
f 743 747 755 
f 749 743 755 
f 740 753 755 
o convex_25
v -0.003104 0.049835 0.019052
v -0.012113 0.036621 0.027463
v -0.011511 0.036621 0.027463
v -0.012113 0.046230 -0.006779
v -0.000098 0.047431 -0.006779
v -0.012113 0.052240 0.002236
v -0.000098 0.041430 0.026254
v -0.000098 0.054042 -0.000768
v -0.012113 0.039627 0.034669
v -0.000098 0.046830 0.026858
v -0.009108 0.036621 0.038277
v -0.008508 0.051638 -0.006779
v -0.011511 0.045630 0.025055
v -0.008508 0.036621 0.030466
v -0.000098 0.052240 -0.006779
v -0.004305 0.054042 0.001032
v -0.009708 0.049233 0.017244
v -0.000098 0.051036 0.016044
v -0.000098 0.041430 0.023255
v -0.008508 0.043832 0.030466
v -0.012113 0.050435 -0.006779
v -0.005506 0.051036 0.014254
v -0.012113 0.036621 0.037073
v -0.006105 0.046830 0.025659
v -0.012113 0.049233 0.014254
v -0.010310 0.037222 0.038277
v -0.010310 0.052840 -0.000164
v -0.010910 0.046230 -0.006779
f 760 758 783 
f 758 757 759 
f 759 757 761 
f 762 760 763 
f 761 757 764 
f 762 763 765 
f 757 758 766 
f 762 765 766 
f 760 759 767 
f 758 760 769 
f 766 758 769 
f 762 766 769 
f 763 760 770 
f 760 767 770 
f 767 763 770 
f 763 767 771 
f 765 763 773 
f 756 765 773 
f 763 771 773 
f 760 762 774 
f 769 760 774 
f 762 769 774 
f 768 764 775 
f 759 761 776 
f 767 759 776 
f 771 761 777 
f 772 756 777 
f 761 772 777 
f 756 773 777 
f 773 771 777 
f 764 757 778 
f 757 766 778 
f 765 756 779 
f 756 772 779 
f 772 768 779 
f 775 765 779 
f 768 775 779 
f 761 764 780 
f 764 768 780 
f 768 772 780 
f 772 761 780 
f 766 765 781 
f 765 775 781 
f 775 764 781 
f 764 778 781 
f 778 766 781 
f 761 771 782 
f 771 767 782 
f 776 761 782 
f 767 776 782 
f 758 759 783 
f 759 760 783 
o convex_26
v -0.037942 0.028813 0.001634
v -0.018120 0.036020 0.024460
v -0.018120 0.035419 0.024460
v -0.025932 0.036020 -0.007380
v -0.032537 0.026408 -0.007380
v -0.031936 0.026408 0.024460
v -0.032537 0.035419 0.014243
v -0.025330 0.026408 0.022655
v -0.031936 0.036020 -0.007380
v -0.025932 0.036020 0.024460
v -0.018722 0.035419 0.016646
v -0.037344 0.026408 -0.007380
v -0.038545 0.026408 0.004638
v -0.031334 0.032414 0.023253
v -0.035538 0.033015 0.007642
v -0.025330 0.026408 0.024460
v -0.025330 0.035419 -0.005575
v -0.034939 0.027010 0.017248
v -0.038545 0.027610 0.004638
v -0.033135 0.033617 0.016646
v -0.031334 0.036020 0.013645
v -0.034939 0.031814 -0.007380
f 798 792 805 
f 786 785 789 
f 789 788 791 
f 785 787 792 
f 787 788 792 
f 789 785 793 
f 785 792 793 
f 785 786 794 
f 787 785 794 
f 786 791 794 
f 791 788 794 
f 788 789 795 
f 792 788 795 
f 795 789 796 
f 793 790 797 
f 789 793 797 
f 790 792 798 
f 786 789 799 
f 791 786 799 
f 789 791 799 
f 788 787 800 
f 787 794 800 
f 794 788 800 
f 796 789 801 
f 789 797 801 
f 784 795 802 
f 795 796 802 
f 798 784 802 
f 796 801 802 
f 802 801 803 
f 797 790 803 
f 790 798 803 
f 801 797 803 
f 798 802 803 
f 792 790 804 
f 790 793 804 
f 793 792 804 
f 795 784 805 
f 792 795 805 
f 784 798 805 
o convex_27
v -0.031335 0.027610 0.024460
v -0.012113 0.036020 0.030467
v -0.012113 0.035419 0.030467
v -0.028930 0.030013 0.030467
v -0.025327 0.036020 0.024460
v -0.025327 0.026408 0.024460
v -0.021724 0.026408 0.030467
v -0.017522 0.036020 0.024460
v -0.023524 0.036020 0.030467
v -0.028930 0.026408 0.030467
v -0.030733 0.031814 0.025061
v -0.012113 0.035419 0.029264
v -0.031335 0.026408 0.025662
f 809 816 818 
f 808 807 809 
f 806 810 811 
f 808 809 812 
f 810 807 813 
f 811 810 813 
f 809 807 814 
f 807 810 814 
f 812 809 815 
f 811 812 815 
f 810 806 816 
f 809 814 816 
f 814 810 816 
f 807 808 817 
f 808 812 817 
f 812 811 817 
f 813 807 817 
f 811 813 817 
f 806 811 818 
f 815 809 818 
f 811 815 818 
f 816 806 818 
o convex_28
v -0.007906 -0.039674 -0.020596
v -0.011511 -0.027662 -0.007380
v -0.012113 -0.027662 -0.007380
v -0.001900 -0.018648 -0.022398
v -0.001900 -0.039674 -0.008582
v -0.012113 -0.018648 -0.022398
v -0.001900 -0.039674 -0.022398
v -0.001900 -0.018648 -0.015789
v -0.012113 -0.036068 -0.007380
v -0.012113 -0.034866 -0.021797
v -0.012113 -0.018648 -0.015187
v -0.001900 -0.028862 -0.009783
v -0.009108 -0.039674 -0.013388
v -0.012113 -0.037270 -0.019995
v -0.005505 -0.034267 -0.007380
v -0.012113 -0.033065 -0.022398
f 825 828 834 
f 824 822 825 
f 823 819 825 
f 822 823 825 
f 823 822 826 
f 822 824 826 
f 820 821 827 
f 821 824 827 
f 827 824 828 
f 825 819 828 
f 821 820 829 
f 824 821 829 
f 820 826 829 
f 826 824 829 
f 826 820 830 
f 823 826 830 
f 819 823 831 
f 823 827 831 
f 827 828 832 
f 828 819 832 
f 819 831 832 
f 831 827 832 
f 820 827 833 
f 827 823 833 
f 830 820 833 
f 823 830 833 
f 824 825 834 
f 828 824 834 
o convex_29
v 0.014320 -0.037871 -0.015189
v -0.001900 -0.039674 -0.022397
v 0.000504 -0.039073 -0.022997
v -0.001900 -0.018648 -0.015789
v -0.000698 -0.039674 -0.007381
v 0.014921 -0.018648 -0.013389
v 0.014921 -0.018648 -0.022397
v 0.014921 -0.029459 -0.007381
v -0.001900 -0.018648 -0.022397
v 0.010715 -0.039674 -0.020594
v -0.001900 -0.028862 -0.009784
v 0.014921 -0.035465 -0.007381
v 0.014921 -0.030060 -0.022397
v 0.011315 -0.039674 -0.011586
v 0.014320 -0.023456 -0.009784
v -0.001900 -0.039674 -0.007982
v 0.014921 -0.036669 -0.019393
v 0.005913 -0.039674 -0.007381
v 0.007108 -0.039674 -0.022397
v 0.004709 -0.034267 -0.007381
f 842 845 854 
f 838 840 841 
f 841 840 842 
f 837 836 843 
f 836 838 843 
f 841 837 843 
f 838 841 843 
f 839 836 844 
f 838 836 845 
f 841 842 846 
f 842 839 846 
f 837 841 847 
f 841 846 847 
f 844 835 848 
f 839 844 848 
f 835 846 848 
f 840 838 849 
f 842 840 849 
f 838 845 849 
f 845 842 849 
f 836 839 850 
f 845 836 850 
f 839 845 850 
f 835 844 851 
f 846 835 851 
f 844 847 851 
f 847 846 851 
f 846 839 852 
f 839 848 852 
f 848 846 852 
f 836 837 853 
f 844 836 853 
f 837 847 853 
f 847 844 853 
f 839 842 854 
f 845 839 854 
o convex_30
v -0.000699 -0.029461 0.028063
v -0.003102 -0.039674 -0.000165
v -0.000699 -0.039674 -0.000165
v -0.012113 -0.025257 -0.005574
v -0.012113 -0.033065 0.020853
v -0.012113 -0.021651 0.037075
v -0.000699 -0.028262 0.011850
v -0.012113 -0.036066 -0.007380
v -0.000699 -0.033665 -0.005574
v -0.000699 -0.033065 0.025056
v -0.009709 -0.021651 0.028664
v -0.012113 -0.037871 0.002838
v -0.003703 -0.036669 0.014848
v -0.000699 -0.027058 0.025657
v -0.008506 -0.030065 0.029264
v -0.004904 -0.036669 -0.007380
v -0.010309 -0.026460 -0.006770
v -0.010309 -0.021651 0.037075
v -0.000699 -0.031261 0.028063
v -0.007907 -0.034866 0.019051
v -0.011511 -0.025257 -0.005574
v -0.012113 -0.025257 0.034068
v -0.012113 -0.021651 0.026262
v -0.007907 -0.039072 0.001637
v -0.000699 -0.036669 0.015448
v -0.000699 -0.037871 -0.004973
v -0.011511 -0.026460 -0.007380
v -0.007907 -0.037267 -0.007380
v -0.005506 -0.033665 0.023255
v -0.003102 -0.039674 0.001637
f 879 867 884 
f 858 859 860 
f 855 857 861 
f 859 858 862 
f 861 857 863 
f 857 855 864 
f 859 862 866 
f 855 861 868 
f 861 865 868 
f 861 863 871 
f 865 860 872 
f 855 868 872 
f 868 865 872 
f 864 855 873 
f 869 864 873 
f 855 872 873 
f 859 866 874 
f 865 861 875 
f 861 871 875 
f 860 859 876 
f 859 869 876 
f 872 860 876 
f 869 873 876 
f 873 872 876 
f 858 860 877 
f 860 865 877 
f 875 858 877 
f 865 875 877 
f 866 862 878 
f 874 866 878 
f 867 874 878 
f 857 864 879 
f 863 857 880 
f 870 863 880 
f 862 858 881 
f 870 862 881 
f 863 870 881 
f 871 863 881 
f 858 875 881 
f 875 871 881 
f 857 856 882 
f 862 870 882 
f 856 878 882 
f 878 862 882 
f 880 857 882 
f 870 880 882 
f 869 859 883 
f 864 869 883 
f 859 874 883 
f 874 867 883 
f 879 864 883 
f 867 879 883 
f 856 857 884 
f 878 856 884 
f 867 878 884 
f 857 879 884 
o convex_31
v 0.007710 -0.029461 0.031067
v 0.002907 -0.039674 -0.007380
v 0.003508 -0.039674 -0.007380
v 0.014919 -0.029461 -0.007380
v -0.000697 -0.028262 0.012453
v 0.014919 -0.036669 0.004035
v 0.014919 -0.021651 0.035264
v -0.000697 -0.031864 0.027458
v 0.007111 -0.021651 0.030465
v -0.000697 -0.034265 -0.005573
v -0.000697 -0.036669 0.015455
v 0.006512 -0.021651 0.038877
v 0.013718 -0.033065 0.019652
v 0.014318 -0.021651 0.022654
v 0.014919 -0.035466 -0.007380
v -0.000697 -0.039674 0.001635
v -0.000697 -0.026460 0.025058
v 0.005911 -0.035466 0.018452
v 0.004109 -0.039674 0.001635
v 0.014919 -0.027660 0.029265
v -0.000697 -0.028861 0.009441
v 0.010714 -0.022253 0.038271
v 0.014318 -0.029461 -0.007380
v 0.011915 -0.037871 0.002835
v 0.002907 -0.034866 -0.007380
v -0.000697 -0.037871 -0.004975
v 0.008311 -0.031864 0.026258
v -0.000697 -0.029461 0.028060
v 0.006512 -0.022253 0.038877
v 0.001706 -0.033665 0.023854
v 0.014919 -0.021651 0.022654
v 0.010714 -0.034265 0.019045
v 0.014919 -0.031261 0.022654
f 904 911 917 
f 887 886 888 
f 890 888 891 
f 892 889 894 
f 892 894 895 
f 891 893 896 
f 893 891 898 
f 887 888 899 
f 888 890 899 
f 886 887 900 
f 895 894 900 
f 889 892 901 
f 893 889 901 
f 896 893 901 
f 900 887 903 
f 895 900 903 
f 902 895 903 
f 890 891 904 
f 889 893 905 
f 894 889 905 
f 893 898 905 
f 891 896 906 
f 904 891 906 
f 885 904 906 
f 888 886 907 
f 898 888 907 
f 894 905 907 
f 905 898 907 
f 887 899 908 
f 899 890 908 
f 903 887 908 
f 902 903 908 
f 886 894 909 
f 907 886 909 
f 894 907 909 
f 894 886 910 
f 886 900 910 
f 900 894 910 
f 904 885 911 
f 901 892 912 
f 896 901 912 
f 892 885 913 
f 885 906 913 
f 906 896 913 
f 912 892 913 
f 896 912 913 
f 885 892 914 
f 892 895 914 
f 895 902 914 
f 911 885 914 
f 902 911 914 
f 891 888 915 
f 888 898 915 
f 898 891 915 
f 890 897 916 
f 908 890 916 
f 902 908 916 
f 911 902 916 
f 897 911 916 
f 897 890 917 
f 890 904 917 
f 911 897 917 
o convex_32
v 0.001704 0.033617 0.040680
v 0.007110 0.025807 0.044284
v 0.001704 0.027611 0.043082
v 0.001704 0.031212 0.047889
v 0.007712 0.036020 0.037677
v 0.007712 0.030615 0.047889
v 0.007712 0.031813 0.035874
v 0.007712 0.025807 0.047889
v 0.001704 0.027611 0.047889
v 0.001704 0.030013 0.039478
v 0.007110 0.036020 0.039478
v 0.007712 0.028210 0.039478
v 0.007110 0.034217 0.035874
v 0.001704 0.032414 0.046685
f 923 928 931 
f 918 920 921 
f 922 923 924 
f 924 923 925 
f 923 921 925 
f 925 921 926 
f 920 919 926 
f 921 920 926 
f 919 925 926 
f 920 918 927 
f 922 918 928 
f 923 922 928 
f 919 920 929 
f 924 925 929 
f 925 919 929 
f 920 927 929 
f 927 924 929 
f 918 922 930 
f 922 924 930 
f 927 918 930 
f 924 927 930 
f 918 921 931 
f 921 923 931 
f 928 918 931 
o convex_33
v 0.010716 0.036621 0.038275
v 0.014319 0.018598 0.044882
v 0.007712 0.025207 0.046083
v 0.014319 0.036017 0.023261
v 0.014921 0.026410 0.047886
v 0.007712 0.031812 0.035276
v 0.007712 0.031213 0.047283
v 0.014921 0.036621 0.035871
v 0.007712 0.036621 0.037072
v 0.014921 0.018598 0.047886
v 0.014921 0.036621 0.023261
v 0.008913 0.036621 0.030471
v 0.007712 0.027609 0.040075
v 0.007712 0.025808 0.047886
v 0.013118 0.028207 0.047886
v 0.014319 0.019200 0.043679
f 944 935 947 
f 937 934 938 
f 932 938 939 
f 938 932 940 
f 937 938 940 
f 932 939 940 
f 934 933 941 
f 939 936 941 
f 939 941 942 
f 940 939 942 
f 940 942 943 
f 935 937 943 
f 937 940 943 
f 942 935 943 
f 933 934 944 
f 934 937 944 
f 937 935 944 
f 938 934 945 
f 934 941 945 
f 941 936 945 
f 936 939 946 
f 939 938 946 
f 945 936 946 
f 938 945 946 
f 941 933 947 
f 942 941 947 
f 935 942 947 
f 933 944 947 
o convex_34
v 0.013717 0.041426 0.011846
v 0.014921 0.037222 0.035272
v 0.014318 0.037222 0.035873
v 0.013717 0.041426 0.031068
v 0.002906 0.040825 0.025060
v 0.014318 0.036621 0.021458
v 0.008313 0.036621 0.037676
v 0.009513 0.041426 0.032866
v 0.014921 0.040825 0.011243
v 0.008913 0.036621 0.029264
v 0.002906 0.041426 0.025658
v 0.014921 0.041426 0.029865
v 0.014921 0.036621 0.035272
f 953 956 960 
f 950 949 951 
f 950 951 955 
f 951 948 955 
f 954 950 955 
f 952 948 956 
f 953 952 956 
f 952 953 957 
f 954 952 957 
f 953 954 957 
f 948 952 958 
f 952 954 958 
f 955 948 958 
f 954 955 958 
f 951 949 959 
f 948 951 959 
f 949 956 959 
f 956 948 959 
f 949 950 960 
f 950 954 960 
f 954 953 960 
f 956 949 960 
o convex_35
v -0.000098 0.054042 -0.000770
v 0.014921 0.042028 0.029265
v 0.012517 0.043229 0.029265
v 0.007711 0.042028 -0.006175
v -0.000098 0.041426 0.026261
v 0.014921 0.051638 -0.000170
v -0.000098 0.049835 0.019648
v 0.014921 0.044432 -0.006779
v -0.000098 0.047435 -0.006779
v 0.007711 0.052239 -0.006779
v 0.009512 0.049835 0.017244
v 0.014921 0.041426 0.009443
v 0.006512 0.054042 0.001634
v -0.000098 0.046834 0.026857
v 0.008911 0.041426 0.032269
v 0.014921 0.048634 0.014844
v 0.014921 0.049835 -0.006779
v -0.000098 0.052239 -0.006779
v 0.011314 0.042028 -0.006779
v 0.007111 0.045634 0.028057
v 0.011916 0.052840 0.002234
v -0.000098 0.041426 0.023853
v 0.004711 0.050437 0.017844
v -0.000098 0.054042 0.002234
v 0.013118 0.046834 0.022052
v 0.014921 0.041426 0.029265
v 0.007111 0.048033 0.023256
f 980 985 987 
f 961 965 967 
f 966 962 968 
f 965 961 969 
f 968 969 970 
f 968 962 972 
f 970 961 973 
f 967 965 974 
f 962 963 975 
f 965 972 975 
f 974 965 975 
f 962 966 976 
f 966 968 977 
f 968 970 977 
f 970 966 977 
f 969 961 978 
f 970 969 978 
f 961 970 978 
f 964 969 979 
f 969 968 979 
f 972 964 979 
f 968 972 979 
f 975 963 980 
f 974 975 980 
f 966 970 981 
f 970 973 981 
f 973 971 981 
f 976 966 981 
f 971 976 981 
f 965 969 982 
f 969 964 982 
f 964 972 982 
f 972 965 982 
f 971 973 983 
f 967 974 983 
f 961 967 984 
f 973 961 984 
f 967 983 984 
f 983 973 984 
f 963 962 985 
f 962 976 985 
f 976 971 985 
f 980 963 985 
f 972 962 986 
f 962 975 986 
f 975 972 986 
f 974 980 987 
f 971 983 987 
f 983 974 987 
f 985 971 987 
o convex_36
v 0.024532 -0.022250 0.028066
v 0.019126 0.003580 0.048487
v 0.017325 0.003580 0.048487
v 0.025133 -0.002429 0.030469
v 0.014921 -0.019849 0.028066
v 0.014921 -0.010239 0.047886
v 0.025734 -0.010841 0.037678
v 0.016123 0.003580 0.043681
v 0.014921 -0.027659 0.028668
v 0.020327 -0.018042 0.037678
v 0.025734 -0.001227 0.038875
v 0.025734 -0.006633 0.028066
v 0.019126 0.003580 0.039475
v 0.014921 -0.000628 0.047886
v 0.019126 -0.003631 0.047886
v 0.022129 0.003580 0.040677
v 0.025133 -0.021647 0.029268
v 0.016123 -0.009639 0.047886
v 0.016123 -0.016843 0.041278
v 0.025734 -0.020445 0.028066
v 0.014921 -0.000628 0.044281
v 0.015522 -0.026457 0.030469
v 0.025734 -0.001830 0.031071
v 0.020327 0.003580 0.047286
f 998 1003 1011 
f 989 990 993 
f 990 989 995 
f 992 988 996 
f 993 992 996 
f 998 994 999 
f 988 992 999 
f 992 991 999 
f 991 992 1000 
f 995 989 1000 
f 992 995 1000 
f 993 990 1001 
f 992 993 1001 
f 990 995 1001 
f 1000 989 1003 
f 996 988 1004 
f 994 997 1004 
f 989 993 1005 
f 997 994 1005 
f 1002 989 1005 
f 994 1002 1005 
f 1005 993 1006 
f 997 1005 1006 
f 999 994 1007 
f 988 999 1007 
f 1004 988 1007 
f 994 1004 1007 
f 995 992 1008 
f 992 1001 1008 
f 1001 995 1008 
f 993 996 1009 
f 996 1004 1009 
f 1004 997 1009 
f 1006 993 1009 
f 997 1006 1009 
f 998 999 1010 
f 999 991 1010 
f 991 1000 1010 
f 1003 998 1010 
f 1000 1003 1010 
f 994 998 1011 
f 989 1002 1011 
f 1002 994 1011 
f 1003 989 1011 
o convex_37
v 0.025734 -0.018047 0.028065
v 0.026336 -0.001827 0.038277
v 0.026937 -0.002428 0.037675
v 0.031740 0.003580 0.028065
v 0.030539 -0.015041 0.028666
v 0.025734 -0.003029 0.029267
v 0.034144 -0.000627 0.028666
v 0.026336 -0.010835 0.037074
v 0.025734 -0.001827 0.038277
v 0.034144 0.003580 0.028065
v 0.027537 -0.000627 0.028065
v 0.031140 -0.003029 0.032871
v 0.025734 -0.012640 0.035873
v 0.025734 -0.001228 0.032270
v 0.029339 -0.013838 0.031670
v 0.030539 -0.015041 0.028065
f 1021 1018 1027 
f 1014 1013 1019 
f 1013 1015 1020 
f 1017 1012 1020 
f 1019 1013 1020 
f 1015 1013 1021 
f 1012 1015 1021 
f 1015 1012 1022 
f 1012 1017 1022 
f 1013 1014 1023 
f 1014 1019 1023 
f 1021 1013 1023 
f 1018 1021 1023 
f 1020 1012 1024 
f 1019 1020 1024 
f 1020 1015 1025 
f 1017 1020 1025 
f 1015 1022 1025 
f 1022 1017 1025 
f 1012 1016 1026 
f 1016 1018 1026 
f 1018 1023 1026 
f 1023 1019 1026 
f 1024 1012 1026 
f 1019 1024 1026 
f 1016 1012 1027 
f 1018 1016 1027 
f 1012 1021 1027 
o convex_38
v 0.019727 0.013791 0.038277
v 0.019727 0.014393 0.048489
v 0.020327 0.014393 0.047888
v 0.020327 0.003580 0.047888
v 0.016122 0.003580 0.047888
v 0.022129 0.003580 0.041282
v 0.023932 0.014393 0.041282
v 0.016122 0.014393 0.044284
v 0.018526 0.003580 0.040080
v 0.023331 0.014393 0.037676
v 0.016122 0.014393 0.047888
v 0.016122 0.003580 0.044284
v 0.016723 0.014393 0.042484
f 1039 1035 1040 
f 1030 1029 1031 
f 1031 1029 1032 
f 1031 1032 1033 
f 1029 1030 1034 
f 1030 1031 1034 
f 1031 1033 1034 
f 1029 1034 1035 
f 1033 1032 1036 
f 1034 1033 1037 
f 1035 1034 1037 
f 1036 1028 1037 
f 1033 1036 1037 
f 1032 1029 1038 
f 1035 1032 1038 
f 1029 1035 1038 
f 1032 1035 1039 
f 1036 1032 1039 
f 1036 1039 1040 
f 1028 1036 1040 
f 1037 1028 1040 
f 1035 1037 1040 
o convex_39
v 0.022131 0.014393 0.036475
v 0.016124 0.023408 0.048489
v 0.015523 0.025811 0.047888
v 0.031139 0.020404 0.032269
v 0.014921 0.039023 0.031669
v 0.015523 0.014996 0.047888
v 0.026935 0.031810 0.032269
v 0.014921 0.030609 0.031669
v 0.031741 0.014996 0.031669
v 0.020328 0.014393 0.047888
v 0.019727 0.037218 0.034074
v 0.018526 0.022207 0.047888
v 0.017325 0.014393 0.041279
v 0.024531 0.016797 0.031669
v 0.014921 0.017397 0.044284
v 0.014921 0.033613 0.040079
v 0.025132 0.029409 0.036475
v 0.020930 0.037818 0.031669
v 0.014921 0.025811 0.047888
v 0.019727 0.014996 0.037677
v 0.019727 0.018603 0.047888
v 0.031741 0.017397 0.032269
v 0.026935 0.031810 0.031669
f 1049 1058 1063 
f 1048 1045 1049 
f 1042 1046 1050 
f 1041 1049 1050 
f 1043 1042 1052 
f 1050 1046 1053 
f 1041 1050 1053 
f 1049 1041 1054 
f 1048 1049 1054 
f 1045 1048 1055 
f 1048 1053 1055 
f 1053 1046 1055 
f 1043 1051 1056 
f 1051 1045 1056 
f 1045 1055 1056 
f 1044 1047 1057 
f 1051 1043 1057 
f 1047 1051 1057 
f 1043 1052 1057 
f 1049 1045 1058 
f 1045 1051 1058 
f 1051 1047 1058 
f 1042 1043 1059 
f 1046 1042 1059 
f 1055 1046 1059 
f 1043 1056 1059 
f 1056 1055 1059 
f 1041 1053 1060 
f 1053 1048 1060 
f 1054 1041 1060 
f 1048 1054 1060 
f 1042 1050 1061 
f 1052 1042 1061 
f 1044 1057 1061 
f 1057 1052 1061 
f 1049 1044 1062 
f 1050 1049 1062 
f 1061 1050 1062 
f 1044 1061 1062 
f 1047 1044 1063 
f 1044 1049 1063 
f 1058 1047 1063 
o convex_40
v 0.036544 0.033017 0.005837
v 0.016125 0.039621 0.031669
v 0.014921 0.039621 0.031669
v 0.015525 0.049834 0.005837
v 0.032341 0.023407 0.006438
v 0.022130 0.023407 0.031669
v 0.032341 0.024010 0.028060
v 0.014921 0.042024 0.006438
v 0.023934 0.042625 0.020851
v 0.026935 0.032417 0.031669
v 0.014921 0.031217 0.031067
v 0.038950 0.023407 0.005837
v 0.025736 0.045628 0.007043
v 0.031139 0.036621 0.019048
v 0.014921 0.046831 0.019653
v 0.037146 0.023407 0.016654
v 0.029939 0.023407 0.031669
v 0.020328 0.039621 0.030462
v 0.038346 0.029414 0.006438
v 0.014921 0.042625 0.005837
v 0.033543 0.036020 0.013048
v 0.015525 0.048031 0.016050
v 0.035944 0.025810 0.018457
v 0.029337 0.035420 0.024457
v 0.021533 0.024010 0.031067
v 0.025736 0.045628 0.005837
v 0.026338 0.044428 0.010643
v 0.014921 0.049834 0.007639
v 0.032941 0.023407 0.005837
v 0.022130 0.040824 0.026862
v 0.015525 0.043225 0.026862
f 1081 1093 1094 
f 1065 1066 1069 
f 1065 1069 1073 
f 1069 1066 1074 
f 1066 1071 1074 
f 1067 1064 1075 
f 1069 1068 1075 
f 1071 1066 1078 
f 1069 1075 1079 
f 1073 1069 1080 
f 1070 1073 1080 
f 1069 1079 1080 
f 1079 1070 1080 
f 1065 1073 1081 
f 1075 1064 1082 
f 1079 1075 1082 
f 1068 1071 1083 
f 1067 1075 1083 
f 1071 1078 1083 
f 1064 1076 1084 
f 1082 1064 1084 
f 1078 1072 1085 
f 1070 1079 1086 
f 1079 1082 1086 
f 1084 1077 1086 
f 1082 1084 1086 
f 1073 1070 1087 
f 1077 1072 1087 
f 1070 1086 1087 
f 1086 1077 1087 
f 1068 1069 1088 
f 1071 1068 1088 
f 1069 1074 1088 
f 1074 1071 1088 
f 1064 1067 1089 
f 1076 1064 1089 
f 1067 1076 1089 
f 1072 1077 1090 
f 1084 1076 1090 
f 1077 1084 1090 
f 1076 1085 1090 
f 1085 1072 1090 
f 1076 1067 1091 
f 1067 1083 1091 
f 1083 1078 1091 
f 1085 1076 1091 
f 1078 1085 1091 
f 1075 1068 1092 
f 1068 1083 1092 
f 1083 1075 1092 
f 1072 1078 1093 
f 1081 1073 1093 
f 1073 1087 1093 
f 1087 1072 1093 
f 1066 1065 1094 
f 1078 1066 1094 
f 1065 1081 1094 
f 1093 1078 1094 
o convex_41
v -0.008508 -0.015643 0.036474
v 0.001104 -0.012642 0.047889
v 0.001104 -0.015643 0.047889
v -0.008508 -0.013242 0.047889
v -0.008508 -0.019248 0.041281
v 0.001104 -0.016844 0.039480
v -0.007907 -0.010237 0.043082
v 0.001104 -0.012642 0.041882
v -0.008508 -0.010237 0.047286
v 0.001104 -0.018045 0.043082
v -0.007907 -0.019248 0.038278
v -0.007307 -0.015643 0.047286
v 0.001104 -0.012040 0.047286
f 1101 1103 1107 
f 1097 1096 1098 
f 1098 1095 1099 
f 1096 1097 1100 
f 1096 1100 1102 
f 1100 1095 1102 
f 1095 1101 1102 
f 1098 1096 1103 
f 1095 1098 1103 
f 1101 1095 1103 
f 1097 1099 1104 
f 1100 1097 1104 
f 1100 1104 1105 
f 1099 1095 1105 
f 1095 1100 1105 
f 1104 1099 1105 
f 1097 1098 1106 
f 1098 1099 1106 
f 1099 1097 1106 
f 1096 1102 1107 
f 1102 1101 1107 
f 1103 1096 1107 
o convex_42
v 0.009513 -0.009036 0.047889
v 0.009513 -0.021651 0.029266
v 0.010115 -0.021651 0.029266
v 0.008912 -0.021651 0.039478
v 0.001104 -0.012640 0.041880
v 0.001104 -0.016243 0.047285
v 0.010115 -0.009637 0.041880
v 0.010115 -0.014443 0.047889
v 0.001104 -0.018647 0.041277
v 0.001104 -0.012040 0.047889
v 0.005909 -0.021651 0.039478
v 0.008312 -0.021050 0.029867
v 0.001104 -0.015044 0.039478
v 0.010115 -0.021651 0.038874
v 0.008912 -0.012640 0.038280
v 0.007710 -0.015642 0.047889
v 0.007110 -0.021651 0.031672
v 0.009513 -0.009036 0.043080
f 1112 1117 1125 
f 1109 1110 1111 
f 1114 1108 1115 
f 1110 1114 1115 
f 1113 1112 1116 
f 1112 1113 1117 
f 1115 1108 1117 
f 1109 1111 1118 
f 1111 1113 1118 
f 1113 1116 1118 
f 1110 1109 1119 
f 1112 1119 1120 
f 1116 1112 1120 
f 1111 1110 1121 
f 1110 1115 1121 
f 1114 1110 1122 
f 1112 1114 1122 
f 1110 1119 1122 
f 1119 1112 1122 
f 1113 1111 1123 
f 1117 1113 1123 
f 1115 1117 1123 
f 1111 1121 1123 
f 1121 1115 1123 
f 1109 1118 1124 
f 1118 1116 1124 
f 1119 1109 1124 
f 1120 1119 1124 
f 1116 1120 1124 
f 1108 1114 1125 
f 1114 1112 1125 
f 1117 1108 1125 
o convex_43
v 0.014921 -0.010839 0.047889
v 0.014319 -0.021650 0.025060
v 0.014921 -0.021650 0.025060
v 0.014921 -0.002430 0.043681
v 0.010115 -0.014442 0.047889
v 0.010115 -0.012040 0.038273
v 0.010115 -0.021650 0.038874
v 0.014921 -0.021650 0.035876
v 0.010115 -0.008437 0.047889
v 0.010115 -0.021048 0.029268
v 0.014921 -0.002430 0.047889
v 0.014319 -0.002430 0.043681
v 0.010115 -0.008437 0.043681
v 0.014319 -0.021048 0.025060
v 0.011917 -0.013840 0.047889
f 1132 1133 1140 
f 1126 1128 1129 
f 1127 1128 1132 
f 1130 1131 1132 
f 1128 1126 1133 
f 1132 1128 1133 
f 1130 1126 1134 
f 1131 1130 1134 
f 1127 1132 1135 
f 1132 1131 1135 
f 1126 1129 1136 
f 1134 1126 1136 
f 1134 1136 1137 
f 1136 1129 1137 
f 1131 1134 1138 
f 1134 1137 1138 
f 1137 1131 1138 
f 1128 1127 1139 
f 1129 1128 1139 
f 1127 1135 1139 
f 1135 1131 1139 
f 1137 1129 1139 
f 1131 1137 1139 
f 1126 1130 1140 
f 1130 1132 1140 
f 1133 1126 1140 
o convex_44
v 0.016125 -0.034867 -0.008577
v 0.034142 -0.019849 0.011844
v 0.034142 -0.020450 0.011844
v 0.014923 -0.020450 0.028064
v 0.017325 -0.022253 -0.009182
v 0.015525 -0.031261 0.022056
v 0.032940 -0.019849 -0.009182
v 0.023932 -0.031864 0.006444
v 0.025733 -0.021652 0.028064
v 0.014923 -0.036670 0.001635
v 0.014923 -0.027660 -0.009182
v 0.026933 -0.026458 0.018450
v 0.029336 -0.025258 -0.008577
v 0.019127 -0.019849 0.011844
v 0.014923 -0.027660 0.028064
v 0.025733 -0.019849 0.028064
v 0.023932 -0.030061 -0.009182
v 0.027535 -0.019849 -0.009182
v 0.020330 -0.034264 0.004639
v 0.026933 -0.028859 0.011242
v 0.015525 -0.019849 0.027463
v 0.014923 -0.034867 -0.009182
v 0.015525 -0.033064 0.017250
v 0.026333 -0.024657 0.023255
v 0.031738 -0.022854 -0.005573
v 0.032340 -0.020450 0.017250
v 0.015525 -0.028859 0.026861
v 0.020330 -0.034264 0.002237
v 0.015525 -0.036670 0.003440
v 0.023932 -0.031864 0.004042
f 1148 1168 1170 
f 1142 1143 1147 
f 1144 1145 1151 
f 1145 1147 1151 
f 1150 1144 1151 
f 1142 1147 1154 
f 1149 1144 1155 
f 1144 1150 1155 
f 1144 1149 1156 
f 1142 1154 1156 
f 1151 1147 1157 
f 1147 1153 1157 
f 1147 1145 1158 
f 1145 1154 1158 
f 1154 1147 1158 
f 1143 1152 1160 
f 1145 1144 1161 
f 1154 1145 1161 
f 1144 1156 1161 
f 1156 1154 1161 
f 1141 1150 1162 
f 1150 1151 1162 
f 1157 1141 1162 
f 1151 1157 1162 
f 1152 1146 1163 
f 1146 1155 1163 
f 1155 1150 1163 
f 1159 1148 1163 
f 1160 1152 1163 
f 1148 1160 1163 
f 1146 1152 1164 
f 1147 1143 1165 
f 1153 1147 1165 
f 1143 1160 1165 
f 1143 1142 1166 
f 1152 1143 1166 
f 1142 1156 1166 
f 1156 1149 1166 
f 1149 1164 1166 
f 1164 1152 1166 
f 1149 1155 1167 
f 1155 1146 1167 
f 1164 1149 1167 
f 1146 1164 1167 
f 1141 1157 1168 
f 1148 1159 1168 
f 1168 1159 1169 
f 1150 1141 1169 
f 1163 1150 1169 
f 1159 1163 1169 
f 1141 1168 1169 
f 1157 1153 1170 
f 1160 1148 1170 
f 1153 1165 1170 
f 1165 1160 1170 
f 1168 1157 1170 
o convex_45
v 0.028134 -0.019849 -0.009182
v 0.038350 -0.013842 0.005843
v 0.038350 -0.014443 0.005843
v 0.016122 -0.019248 0.028064
v 0.032340 -0.019849 0.018450
v 0.022132 -0.013842 0.028064
v 0.031740 -0.013842 -0.009182
v 0.031139 -0.013842 0.027463
v 0.033541 -0.019849 -0.008577
v 0.025735 -0.019849 0.028064
v 0.036546 -0.013842 -0.009182
v 0.034744 -0.019849 0.010641
v 0.016122 -0.019849 0.027463
v 0.030536 -0.015644 0.028064
v 0.028737 -0.018047 -0.009182
v 0.016122 -0.019248 0.027463
v 0.022132 -0.013842 0.026861
v 0.035945 -0.018647 0.007042
v 0.032340 -0.016845 0.022657
f 1178 1184 1189 
f 1176 1172 1177 
f 1173 1172 1178 
f 1172 1176 1178 
f 1175 1171 1179 
f 1171 1175 1180 
f 1176 1174 1180 
f 1172 1173 1181 
f 1171 1177 1181 
f 1177 1172 1181 
f 1173 1179 1181 
f 1179 1171 1181 
f 1175 1179 1182 
f 1171 1180 1183 
f 1180 1174 1183 
f 1178 1176 1184 
f 1180 1175 1184 
f 1176 1180 1184 
f 1177 1171 1185 
f 1177 1185 1186 
f 1174 1176 1186 
f 1171 1183 1186 
f 1183 1174 1186 
f 1185 1171 1186 
f 1176 1177 1187 
f 1177 1186 1187 
f 1186 1176 1187 
f 1179 1173 1188 
f 1173 1182 1188 
f 1182 1179 1188 
f 1173 1178 1189 
f 1182 1173 1189 
f 1175 1182 1189 
f 1184 1175 1189 
o convex_46
v 0.040151 -0.006030 -0.004377
v 0.027536 -0.010837 -0.009181
v 0.027536 -0.010837 -0.008580
v 0.031742 0.003580 -0.009181
v 0.038348 -0.010237 -0.009181
v 0.032945 -0.013842 -0.002574
v 0.041353 0.003580 -0.002574
v 0.040750 0.003580 -0.009181
v 0.036545 0.003580 -0.002574
v 0.037147 -0.013842 -0.002574
v 0.036545 -0.013842 -0.009181
v 0.027536 -0.008434 -0.008580
v 0.032344 -0.013842 -0.009181
v 0.040750 -0.000626 -0.009181
v 0.041353 -0.000025 -0.002574
f 1203 1196 1204 
f 1191 1193 1194 
f 1193 1196 1197 
f 1194 1193 1197 
f 1195 1196 1198 
f 1196 1193 1198 
f 1194 1190 1199 
f 1196 1195 1199 
f 1191 1194 1200 
f 1194 1199 1200 
f 1199 1195 1200 
f 1191 1192 1201 
f 1193 1191 1201 
f 1192 1195 1201 
f 1198 1193 1201 
f 1195 1198 1201 
f 1192 1191 1202 
f 1195 1192 1202 
f 1191 1200 1202 
f 1200 1195 1202 
f 1190 1194 1203 
f 1197 1196 1203 
f 1194 1197 1203 
f 1199 1190 1204 
f 1196 1199 1204 
f 1190 1203 1204 
o convex_47
v 0.029941 0.002978 0.026861
v 0.042555 0.003580 0.003436
v 0.040751 0.003580 0.011246
v 0.038348 -0.013842 0.006438
v 0.032940 -0.012640 -0.002571
v 0.030541 -0.013842 0.028064
v 0.022130 -0.013842 0.027461
v 0.035945 0.003580 -0.001971
v 0.034743 0.001175 0.028064
v 0.037145 -0.013842 -0.002571
v 0.030541 0.003580 0.019049
v 0.041351 -0.000626 -0.002571
v 0.038348 -0.003632 0.016650
v 0.041953 -0.004232 0.002833
v 0.034743 0.003580 0.028064
v 0.027540 -0.001228 0.028064
v 0.022130 -0.013240 0.027461
v 0.041351 0.003580 -0.002571
v 0.032342 -0.013842 -0.001371
v 0.031143 -0.013842 0.027461
v 0.038948 0.001777 0.017846
v 0.040152 -0.010237 0.002237
v 0.022130 -0.013842 0.028064
v 0.042555 -0.001228 0.002833
v 0.037145 -0.006630 0.017846
v 0.040152 -0.010237 0.004639
v 0.035945 -0.001228 0.024456
f 1224 1229 1231 
f 1208 1210 1211 
f 1207 1206 1212 
f 1208 1211 1214 
f 1207 1212 1215 
f 1214 1209 1216 
f 1210 1213 1219 
f 1215 1205 1219 
f 1207 1215 1219 
f 1205 1215 1220 
f 1219 1205 1220 
f 1210 1219 1220 
f 1212 1209 1221 
f 1215 1212 1221 
f 1220 1215 1221 
f 1212 1206 1222 
f 1209 1212 1222 
f 1216 1209 1222 
f 1209 1214 1223 
f 1214 1211 1223 
f 1221 1209 1223 
f 1211 1221 1223 
f 1210 1208 1224 
f 1213 1210 1224 
f 1207 1219 1225 
f 1219 1213 1225 
f 1208 1214 1226 
f 1214 1216 1226 
f 1216 1218 1226 
f 1211 1210 1227 
f 1210 1220 1227 
f 1221 1211 1227 
f 1220 1221 1227 
f 1206 1207 1228 
f 1218 1216 1228 
f 1217 1218 1228 
f 1222 1206 1228 
f 1216 1222 1228 
f 1225 1217 1228 
f 1207 1225 1228 
f 1224 1208 1229 
f 1218 1217 1230 
f 1208 1226 1230 
f 1226 1218 1230 
f 1229 1208 1230 
f 1217 1229 1230 
f 1213 1224 1231 
f 1225 1213 1231 
f 1217 1225 1231 
f 1229 1217 1231 
o convex_48
v 0.032942 0.035418 -0.007380
v 0.014922 0.019199 -0.009182
v 0.031742 0.003580 -0.009182
v 0.024531 0.043828 -0.009182
v 0.014922 0.043828 -0.007380
v 0.037144 0.003580 -0.007380
v 0.040748 0.015597 -0.009182
v 0.014922 0.021005 -0.007981
v 0.014922 0.049236 -0.009182
v 0.041351 0.004183 -0.007380
v 0.016125 0.049236 -0.007380
v 0.040748 0.003580 -0.009182
v 0.035943 0.030609 -0.009182
v 0.039547 0.022202 -0.007380
v 0.031742 0.003580 -0.008581
v 0.026334 0.042626 -0.007380
f 1235 1242 1247 
f 1234 1233 1235 
f 1232 1236 1237 
f 1234 1235 1238 
f 1236 1233 1239 
f 1237 1236 1239 
f 1235 1233 1240 
f 1233 1236 1240 
f 1232 1237 1241 
f 1236 1232 1242 
f 1235 1240 1242 
f 1240 1236 1242 
f 1237 1234 1243 
f 1234 1238 1243 
f 1241 1237 1243 
f 1238 1241 1243 
f 1235 1232 1244 
f 1238 1235 1244 
f 1238 1244 1245 
f 1232 1241 1245 
f 1241 1238 1245 
f 1244 1232 1245 
f 1233 1234 1246 
f 1234 1237 1246 
f 1239 1233 1246 
f 1237 1239 1246 
f 1232 1235 1247 
f 1242 1232 1247 
o convex_49
v 0.031744 0.019198 0.031669
v 0.042555 0.015595 0.004037
v 0.040150 0.013192 0.014247
v 0.037146 0.013192 -0.007380
v 0.035344 0.023404 -0.007380
v 0.024535 0.017397 0.031065
v 0.034742 0.023404 0.023856
v 0.022730 0.023404 0.030465
v 0.031744 0.012591 0.029864
v 0.040750 0.023404 0.001033
v 0.041352 0.012591 -0.006776
v 0.029342 0.012591 0.025660
v 0.039549 0.022803 -0.007380
v 0.036545 0.012591 0.024456
v 0.029941 0.023404 0.031669
v 0.040750 0.023404 0.005238
v 0.042555 0.012591 0.004037
v 0.035344 0.021000 -0.007380
v 0.037146 0.019198 0.020852
v 0.042555 0.017397 0.001633
v 0.032344 0.014995 0.031669
v 0.022730 0.022202 0.031065
v 0.025736 0.016197 0.031669
v 0.037746 0.012591 -0.007380
v 0.033541 0.017998 0.029264
v 0.039549 0.016797 0.014847
f 1263 1266 1273 
f 1254 1252 1255 
f 1252 1254 1257 
f 1253 1251 1259 
f 1258 1256 1259 
f 1251 1252 1260 
f 1252 1257 1260 
f 1256 1258 1261 
f 1248 1254 1262 
f 1254 1255 1262 
f 1257 1254 1263 
f 1249 1250 1264 
f 1250 1261 1264 
f 1261 1258 1264 
f 1252 1251 1265 
f 1255 1252 1265 
f 1261 1250 1266 
f 1263 1254 1266 
f 1260 1257 1267 
f 1258 1260 1267 
f 1263 1249 1267 
f 1257 1263 1267 
f 1249 1264 1267 
f 1264 1258 1267 
f 1256 1261 1268 
f 1248 1262 1268 
f 1251 1253 1269 
f 1262 1255 1269 
f 1265 1251 1269 
f 1255 1265 1269 
f 1253 1259 1270 
f 1259 1256 1270 
f 1256 1268 1270 
f 1268 1262 1270 
f 1262 1269 1270 
f 1269 1253 1270 
f 1259 1251 1271 
f 1258 1259 1271 
f 1251 1260 1271 
f 1260 1258 1271 
f 1254 1248 1272 
f 1266 1254 1272 
f 1261 1266 1272 
f 1248 1268 1272 
f 1268 1261 1272 
f 1250 1249 1273 
f 1249 1263 1273 
f 1266 1250 1273 
o convex_50
v 0.029939 0.010788 0.026862
v 0.043155 0.011989 0.002836
v 0.043155 0.004782 0.002836
v 0.037148 0.003580 -0.007380
v 0.034146 0.003580 0.028659
v 0.037748 0.012591 -0.007380
v 0.035347 0.012591 0.026862
v 0.031141 0.003580 0.016650
v 0.041351 0.003580 -0.007380
v 0.038948 0.003580 0.018451
v 0.029939 0.012591 0.024459
v 0.041351 0.012591 -0.007380
v 0.030541 0.003580 0.026862
v 0.039550 0.012591 0.016650
v 0.031744 0.012591 0.029266
v 0.043155 0.003580 0.001032
v 0.036547 0.006585 0.025054
v 0.043155 0.012591 0.001032
f 1289 1285 1291 
f 1277 1278 1281 
f 1279 1277 1281 
f 1278 1277 1282 
f 1277 1279 1282 
f 1278 1282 1283 
f 1280 1279 1284 
f 1281 1274 1284 
f 1279 1281 1284 
f 1279 1280 1285 
f 1282 1279 1285 
f 1274 1281 1286 
f 1281 1278 1286 
f 1276 1275 1287 
f 1283 1276 1287 
f 1285 1280 1287 
f 1278 1280 1288 
f 1284 1274 1288 
f 1280 1284 1288 
f 1274 1286 1288 
f 1286 1278 1288 
f 1275 1276 1289 
f 1276 1283 1289 
f 1283 1282 1289 
f 1282 1285 1289 
f 1280 1278 1290 
f 1278 1283 1290 
f 1283 1287 1290 
f 1287 1280 1290 
f 1287 1275 1291 
f 1285 1287 1291 
f 1275 1289 1291 
