o convex_0
v -0.016860 0.063119 0.000457
v -0.006030 0.073948 -0.020664
v -0.006030 0.075574 -0.020664
v -0.022274 0.057702 -0.011997
v -0.013073 0.054994 -0.005500
v -0.000613 0.076115 -0.011455
v -0.026610 0.055537 0.001540
v -0.011987 0.057702 0.003709
v -0.014694 0.070696 -0.012538
v -0.014694 0.054994 -0.010372
v -0.007653 0.073948 -0.007666
v -0.022274 0.054994 -0.011997
v -0.000613 0.075031 -0.013080
v -0.008196 0.065288 -0.000084
v -0.016860 0.066366 -0.002792
v -0.007113 0.063662 -0.000626
v -0.017401 0.061495 -0.016329
v -0.018484 0.054994 0.003165
v -0.015777 0.069614 -0.013621
v -0.019567 0.065827 -0.008745
v -0.007653 0.075574 -0.019578
v -0.003863 0.074492 -0.019578
v -0.013608 0.059328 0.003709
v -0.001154 0.077200 -0.011997
v -0.011987 0.056620 -0.007666
v -0.026067 0.054994 -0.002792
v -0.017943 0.063119 -0.015788
v -0.011987 0.069075 -0.003334
v -0.016860 0.060410 -0.015788
v -0.006570 0.075574 -0.012538
v -0.006570 0.072322 -0.020118
v -0.023360 0.060410 -0.001168
v -0.022274 0.062036 -0.006583
v -0.011987 0.057161 0.003165
v -0.026067 0.055537 0.002082
v -0.000613 0.077200 -0.013621
f 21 24 36 
f 10 5 12 
f 11 9 15 
f 13 6 16 
f 6 14 16 
f 14 8 16 
f 3 2 17 
f 12 4 17 
f 12 5 18 
f 15 9 20 
f 19 4 20 
f 9 19 20 
f 19 9 21 
f 2 3 22 
f 8 14 23 
f 18 8 23 
f 14 6 24 
f 11 14 24 
f 5 10 25 
f 16 5 25 
f 13 16 25 
f 10 22 25 
f 22 13 25 
f 4 12 26 
f 12 18 26 
f 3 17 27 
f 17 4 27 
f 4 19 27 
f 21 3 27 
f 19 21 27 
f 14 11 28 
f 15 1 28 
f 11 15 28 
f 1 23 28 
f 23 14 28 
f 10 12 29 
f 12 17 29 
f 9 11 30 
f 21 9 30 
f 11 24 30 
f 24 21 30 
f 17 2 31 
f 2 22 31 
f 22 10 31 
f 10 29 31 
f 29 17 31 
f 15 20 32 
f 32 20 33 
f 20 4 33 
f 4 26 33 
f 26 7 33 
f 7 32 33 
f 5 16 34 
f 16 8 34 
f 18 5 34 
f 8 18 34 
f 1 15 35 
f 23 1 35 
f 18 23 35 
f 7 26 35 
f 26 18 35 
f 32 7 35 
f 15 32 35 
f 6 13 36 
f 3 21 36 
f 22 3 36 
f 13 22 36 
f 24 6 36 
o convex_1
v -0.050983 -0.052787 -0.020664
v -0.022280 -0.028416 -0.019581
v -0.022280 -0.028962 -0.019581
v -0.024988 -0.028416 -0.023372
v -0.047187 -0.054953 -0.022288
v -0.029321 -0.028416 -0.019040
v -0.047187 -0.052244 -0.018498
v -0.042855 -0.044121 -0.023372
v -0.024988 -0.028962 -0.017956
v -0.030405 -0.029502 -0.022288
v -0.042855 -0.042495 -0.019040
v -0.047729 -0.054953 -0.019040
v -0.024988 -0.031668 -0.022288
v -0.050438 -0.051704 -0.022288
v -0.041773 -0.047911 -0.023372
v -0.038522 -0.046828 -0.020123
v -0.047729 -0.049537 -0.018498
v -0.027154 -0.028416 -0.017956
v -0.044479 -0.044121 -0.021747
v -0.038522 -0.045204 -0.018498
v -0.048811 -0.054410 -0.022830
f 51 41 57 
f 38 39 40 
f 38 40 42 
f 39 38 45 
f 42 40 46 
f 40 44 46 
f 40 39 49 
f 37 47 50 
f 44 40 51 
f 40 49 51 
f 49 41 51 
f 48 41 52 
f 49 39 52 
f 41 49 52 
f 47 37 53 
f 37 48 53 
f 48 43 53 
f 38 42 54 
f 45 38 54 
f 43 45 54 
f 42 47 54 
f 53 43 54 
f 47 53 54 
f 42 46 55 
f 46 44 55 
f 47 42 55 
f 44 50 55 
f 50 47 55 
f 39 45 56 
f 45 43 56 
f 43 48 56 
f 48 52 56 
f 52 39 56 
f 48 37 57 
f 41 48 57 
f 37 50 57 
f 50 44 57 
f 44 51 57 
o convex_2
v 0.061135 -0.017584 -0.011457
v 0.079004 0.000290 -0.021746
v 0.079004 0.000290 -0.022286
v 0.059510 -0.009457 -0.010915
v 0.072504 -0.007296 -0.027163
v 0.074671 -0.008379 -0.010915
v 0.073588 -0.011084 -0.021746
v 0.072504 -0.002419 -0.010915
v 0.061135 -0.015414 -0.016334
v 0.068713 -0.015414 -0.010915
v 0.077379 0.000290 -0.022286
v 0.079004 -0.002419 -0.021746
v 0.074129 -0.005127 -0.027705
v 0.063302 -0.006212 -0.011457
v 0.061677 -0.008915 -0.014706
v 0.074671 -0.007837 -0.027163
v 0.057885 -0.017584 -0.010915
v 0.074671 -0.002419 -0.011457
v 0.074129 -0.000795 -0.014167
v 0.064385 -0.015414 -0.016874
v 0.077379 -0.005127 -0.015790
v 0.070879 -0.013791 -0.017417
v 0.075754 -0.006754 -0.027163
v 0.058969 -0.009999 -0.011457
f 74 61 81 
f 61 63 65 
f 63 61 67 
f 59 60 68 
f 60 59 69 
f 68 60 70 
f 61 65 71 
f 62 66 72 
f 70 62 72 
f 68 70 72 
f 71 68 72 
f 66 62 73 
f 62 70 73 
f 66 58 74 
f 58 67 74 
f 67 61 74 
f 65 63 75 
f 65 75 76 
f 59 68 76 
f 68 71 76 
f 71 65 76 
f 75 59 76 
f 58 66 77 
f 66 73 77 
f 73 64 77 
f 63 64 78 
f 69 59 78 
f 64 69 78 
f 59 75 78 
f 75 63 78 
f 64 63 79 
f 67 58 79 
f 63 67 79 
f 58 77 79 
f 77 64 79 
f 60 69 80 
f 69 64 80 
f 70 60 80 
f 64 73 80 
f 73 70 80 
f 61 71 81 
f 72 66 81 
f 71 72 81 
f 66 74 81 
o convex_3
v -0.036359 0.048494 -0.009830
v -0.023360 0.049578 0.002083
v -0.023902 0.049037 0.004251
v -0.026611 0.054994 0.002083
v -0.023902 0.049037 -0.013623
v -0.033650 0.054451 -0.012538
v -0.023360 0.054994 -0.005496
v -0.033108 0.048494 -0.000625
v -0.035274 0.050662 -0.004954
v -0.023360 0.048494 -0.010915
v -0.036359 0.050119 -0.011998
v -0.026611 0.048494 0.004251
v -0.023360 0.054994 0.000458
v -0.027694 0.052826 -0.011998
v -0.025527 0.048494 -0.013623
v -0.032566 0.053369 -0.004954
v -0.036359 0.051744 -0.010915
f 97 87 98 
f 87 85 88 
f 89 85 90 
f 82 89 90 
f 83 84 91 
f 86 88 91 
f 88 83 91 
f 89 82 91 
f 84 85 93 
f 85 89 93 
f 91 84 93 
f 89 91 93 
f 84 83 94 
f 85 84 94 
f 83 88 94 
f 88 85 94 
f 86 87 95 
f 88 86 95 
f 87 88 95 
f 87 86 96 
f 91 82 96 
f 86 91 96 
f 82 92 96 
f 92 87 96 
f 85 87 97 
f 90 85 97 
f 90 97 98 
f 82 90 98 
f 92 82 98 
f 87 92 98 
o convex_4
v -0.023360 0.054451 -0.006040
v -0.013611 0.054994 -0.004956
v -0.013611 0.051744 -0.004956
v -0.021735 0.053910 0.004792
v -0.023360 0.048494 -0.004956
v -0.015236 0.054451 -0.010373
v -0.023360 0.048494 0.002625
v -0.015778 0.048494 -0.003329
v -0.019026 0.051202 0.003709
v -0.017403 0.048494 -0.007664
v -0.016861 0.054994 0.002083
v -0.023360 0.054994 0.000459
v -0.017403 0.054994 -0.009831
v -0.015236 0.051202 -0.009831
f 111 104 112 
f 100 101 104 
f 99 103 105 
f 105 103 106 
f 102 105 107 
f 105 106 107 
f 106 101 107 
f 106 103 108 
f 101 100 109 
f 107 101 109 
f 102 107 109 
f 105 102 110 
f 99 105 110 
f 109 100 110 
f 102 109 110 
f 103 99 111 
f 100 104 111 
f 110 100 111 
f 99 110 111 
f 104 101 112 
f 101 106 112 
f 108 103 112 
f 106 108 112 
f 103 111 112 
o convex_5
v -0.022275 -0.028416 -0.021748
v -0.009280 -0.005129 -0.024997
v -0.009280 -0.005129 -0.027704
v -0.003864 -0.012713 -0.025538
v -0.011446 -0.019747 -0.028246
v -0.025522 -0.021373 -0.023373
v -0.010904 -0.005671 -0.021748
v -0.004406 -0.012170 -0.021748
v -0.017942 -0.013253 -0.028246
v -0.027693 -0.028416 -0.022831
v -0.018484 -0.027871 -0.022290
v -0.025522 -0.020830 -0.021748
v -0.003320 -0.010545 -0.027704
v -0.022814 -0.025163 -0.025538
v -0.010904 -0.005129 -0.027704
v -0.019567 -0.026246 -0.024997
v -0.006030 -0.014878 -0.021748
v -0.004406 -0.011087 -0.021748
v -0.015774 -0.010005 -0.022290
v -0.006030 -0.014878 -0.027704
v -0.027693 -0.028416 -0.021748
f 124 122 133 
f 119 113 120 
f 118 121 122 
f 113 122 123 
f 113 119 124 
f 121 118 124 
f 118 122 124 
f 115 114 125 
f 120 116 125 
f 121 115 125 
f 117 121 125 
f 121 117 126 
f 122 121 126 
f 114 115 127 
f 119 114 127 
f 115 121 127 
f 121 124 127 
f 117 123 128 
f 123 122 128 
f 126 117 128 
f 122 126 128 
f 116 120 129 
f 120 113 129 
f 123 116 129 
f 113 123 129 
f 114 119 130 
f 119 120 130 
f 125 114 130 
f 120 125 130 
f 124 119 131 
f 119 127 131 
f 127 124 131 
f 116 123 132 
f 123 117 132 
f 125 116 132 
f 117 125 132 
f 122 113 133 
f 113 124 133 
o convex_6
v -0.021734 -0.028416 -0.021205
v -0.011988 -0.001879 -0.017957
v -0.011988 -0.001879 -0.019580
v -0.002237 -0.015417 -0.019040
v -0.030401 -0.021374 -0.016873
v -0.008738 -0.021917 -0.016873
v -0.013071 -0.007296 -0.021747
v -0.029858 -0.020290 -0.020663
v -0.004404 -0.011089 -0.021747
v -0.028234 -0.028416 -0.018498
v -0.006030 -0.010005 -0.016873
v -0.028234 -0.028416 -0.021747
v -0.018483 -0.027873 -0.021747
v -0.017400 -0.026790 -0.016873
v -0.025524 -0.014339 -0.016873
v -0.014155 -0.004586 -0.016873
v -0.008738 -0.021917 -0.020122
v -0.013071 -0.001879 -0.019580
v -0.030401 -0.019207 -0.019580
v -0.003320 -0.015957 -0.016873
v -0.006030 -0.014879 -0.021747
v -0.025524 -0.020833 -0.021747
v -0.013071 -0.001879 -0.017415
v -0.010361 -0.005672 -0.021747
v -0.002780 -0.013796 -0.017415
f 144 153 158 
f 136 135 142 
f 138 139 144 
f 140 142 145 
f 143 138 145 
f 134 143 145 
f 134 145 146 
f 145 142 146 
f 139 138 147 
f 138 143 147 
f 143 134 147 
f 146 139 147 
f 134 146 147 
f 138 144 148 
f 148 144 149 
f 137 139 150 
f 139 146 150 
f 135 136 151 
f 140 141 151 
f 145 138 152 
f 141 145 152 
f 138 148 152 
f 151 141 152 
f 139 137 153 
f 144 139 153 
f 142 137 154 
f 146 142 154 
f 137 150 154 
f 150 146 154 
f 141 140 155 
f 145 141 155 
f 140 145 155 
f 144 135 156 
f 149 144 156 
f 148 149 156 
f 135 151 156 
f 152 148 156 
f 151 152 156 
f 136 142 157 
f 142 140 157 
f 151 136 157 
f 140 151 157 
f 142 135 158 
f 137 142 158 
f 135 144 158 
f 153 137 158 
o convex_7
v 0.030804 -0.048452 -0.021742
v 0.050842 -0.028417 0.002623
v 0.050842 -0.028960 0.002623
v 0.035138 -0.034918 0.003165
v 0.039465 -0.027338 -0.008751
v 0.043800 -0.033297 -0.015788
v 0.036220 -0.045742 -0.009297
v 0.027011 -0.048452 -0.016327
v 0.040550 -0.043033 -0.016327
v 0.031886 -0.045199 -0.023914
v 0.038385 -0.027338 -0.003334
v 0.047049 -0.027338 -0.010373
v 0.049216 -0.031665 0.003165
v 0.042715 -0.030042 0.004792
v 0.032430 -0.040867 -0.002249
v 0.041089 -0.040867 -0.003334
v 0.030804 -0.049534 -0.014706
v 0.044882 -0.038709 -0.009297
v 0.035138 -0.046283 -0.022826
v 0.032430 -0.037625 -0.001168
v 0.036762 -0.030049 -0.007670
v 0.038388 -0.035457 0.003165
v 0.041632 -0.033297 -0.016327
v 0.050299 -0.028960 -0.001707
v 0.035682 -0.032754 0.003165
v 0.027554 -0.050081 -0.016327
v 0.028637 -0.047367 -0.020120
v 0.043800 -0.034379 -0.015788
v 0.047590 -0.027338 -0.002249
v 0.048134 -0.028417 0.003708
v 0.035679 -0.045199 -0.007670
v 0.050299 -0.030042 0.004250
v 0.030263 -0.041410 -0.006588
v 0.047049 -0.029506 -0.010915
v 0.037842 -0.045199 -0.019036
v 0.044338 -0.038168 -0.011994
v 0.041630 -0.036541 0.001541
v 0.033512 -0.045199 -0.023914
v 0.038926 -0.027338 -0.002249
f 188 187 197 
f 163 169 170 
f 165 167 176 
f 174 165 176 
f 171 174 176 
f 175 159 177 
f 173 162 178 
f 163 168 179 
f 169 163 179 
f 178 169 179 
f 172 162 180 
f 162 173 180 
f 168 163 181 
f 163 170 181 
f 170 164 181 
f 160 161 182 
f 170 160 182 
f 161 176 182 
f 162 172 183 
f 178 162 183 
f 169 178 183 
f 173 166 184 
f 159 175 184 
f 175 173 184 
f 168 159 185 
f 179 168 185 
f 166 179 185 
f 159 184 185 
f 184 166 185 
f 177 164 186 
f 167 177 186 
f 160 170 187 
f 170 169 187 
f 160 187 188 
f 165 174 189 
f 174 173 189 
f 175 165 189 
f 173 175 189 
f 161 160 190 
f 176 161 190 
f 171 176 190 
f 172 180 190 
f 160 188 190 
f 188 172 190 
f 166 173 191 
f 173 178 191 
f 179 166 191 
f 178 179 191 
f 164 170 192 
f 170 182 192 
f 186 164 192 
f 167 165 193 
f 165 175 193 
f 177 167 193 
f 175 177 193 
f 176 167 194 
f 182 176 194 
f 167 186 194 
f 192 182 194 
f 186 192 194 
f 174 171 195 
f 173 174 195 
f 180 173 195 
f 171 190 195 
f 190 180 195 
f 159 168 196 
f 164 177 196 
f 177 159 196 
f 168 181 196 
f 181 164 196 
f 169 183 197 
f 183 172 197 
f 187 169 197 
f 172 188 197 
o convex_8
v 0.046507 -0.017044 -0.011456
v 0.037843 -0.027333 -0.004957
v 0.037843 -0.027333 -0.003332
v 0.047592 -0.027333 -0.002249
v 0.047049 -0.013252 -0.002249
v 0.047592 -0.022457 -0.010373
v 0.040553 -0.027333 -0.008748
v 0.043258 -0.016502 -0.002249
v 0.044341 -0.018127 -0.011456
v 0.037843 -0.025165 -0.004957
v 0.038386 -0.024623 -0.002249
v 0.047592 -0.015419 -0.010914
v 0.047592 -0.013252 -0.002249
f 209 202 210 
f 200 199 201 
f 201 199 204 
f 203 201 204 
f 201 202 205 
f 205 202 206 
f 198 203 206 
f 203 204 206 
f 206 204 207 
f 199 200 207 
f 204 199 207 
f 205 206 207 
f 205 207 208 
f 200 201 208 
f 201 205 208 
f 207 200 208 
f 203 198 209 
f 201 203 209 
f 206 202 209 
f 198 206 209 
f 202 201 210 
f 201 209 210 
o convex_9
v 0.033510 -0.018127 0.031330
v 0.028095 -0.027333 0.013460
v 0.029721 -0.027333 0.013460
v 0.027011 -0.017586 0.013460
v 0.035135 -0.019752 0.013460
v 0.030263 -0.020834 0.031871
v 0.033510 -0.021376 0.032415
v 0.027011 -0.023541 0.020501
v 0.032425 -0.017586 0.013460
v 0.035135 -0.021376 0.015626
v 0.031342 -0.017584 0.030787
v 0.030263 -0.018668 0.031330
v 0.029179 -0.025166 0.021583
v 0.027011 -0.026248 0.013460
v 0.034051 -0.018668 0.031330
f 217 220 225 
f 213 212 214 
f 213 214 215 
f 211 215 219 
f 215 214 219 
f 213 215 220 
f 217 213 220 
f 211 219 221 
f 219 214 221 
f 217 211 222 
f 216 217 222 
f 214 218 222 
f 218 216 222 
f 211 221 222 
f 221 214 222 
f 212 213 223 
f 213 217 223 
f 217 216 223 
f 218 212 223 
f 216 218 223 
f 214 212 224 
f 212 218 224 
f 218 214 224 
f 215 211 225 
f 211 217 225 
f 220 215 225 
o convex_10
v 0.017798 0.013289 -0.004415
v -0.027690 0.001915 -0.016873
v -0.029318 0.001915 -0.010373
v 0.024844 0.001915 -0.004415
v 0.019426 0.012746 -0.015789
v -0.017400 0.013289 -0.004415
v 0.024844 0.001915 -0.015247
v -0.018481 0.013289 -0.016873
v -0.026063 0.001915 -0.004415
v 0.023757 0.013289 -0.011996
v -0.028772 0.003540 -0.007666
v -0.019563 0.013289 -0.007666
v -0.020104 0.001915 -0.016873
v -0.026604 0.004624 -0.016873
v 0.024844 0.004081 -0.015247
v -0.029318 0.002457 -0.006582
v 0.019426 0.013289 -0.015247
f 233 235 242 
f 228 227 229 
f 229 226 231 
f 229 227 232 
f 231 226 233 
f 228 229 234 
f 229 231 234 
f 226 229 235 
f 233 226 235 
f 231 233 237 
f 233 236 237 
f 232 227 238 
f 230 232 238 
f 227 233 238 
f 233 230 238 
f 227 228 239 
f 233 227 239 
f 228 236 239 
f 236 233 239 
f 229 232 240 
f 232 230 240 
f 235 229 240 
f 230 235 240 
f 228 234 241 
f 234 231 241 
f 236 228 241 
f 231 237 241 
f 237 236 241 
f 230 233 242 
f 235 230 242 
o convex_11
v -0.011986 -0.014875 0.012917
v -0.008737 -0.007293 0.016707
v -0.008196 -0.008919 0.018874
v -0.014694 -0.010544 0.017790
v -0.007654 -0.014875 0.017249
v -0.007654 -0.008377 0.012917
v -0.013610 -0.009460 0.012917
v -0.014151 -0.014875 0.018332
v -0.006570 -0.012708 0.013459
v -0.006028 -0.008919 0.017249
v -0.009820 -0.012708 0.019958
v -0.012527 -0.007293 0.015625
v -0.011986 -0.008377 0.018874
v -0.013610 -0.013250 0.012917
v -0.008196 -0.015417 0.015084
f 251 247 257 
f 248 243 249 
f 243 248 251 
f 251 248 252 
f 244 245 252 
f 248 244 252 
f 247 251 252 
f 247 252 253 
f 250 247 253 
f 252 245 253 
f 244 248 254 
f 248 249 254 
f 249 246 254 
f 245 244 255 
f 246 250 255 
f 253 245 255 
f 250 253 255 
f 244 254 255 
f 254 246 255 
f 249 243 256 
f 246 249 256 
f 250 246 256 
f 243 250 256 
f 250 243 257 
f 247 250 257 
f 243 251 257 
o convex_12
v 0.025928 0.001371 -0.011454
v 0.003179 -0.030583 -0.008752
v 0.003723 -0.030583 -0.008752
v 0.003179 0.001915 -0.002790
v 0.003179 0.001915 -0.015789
v 0.023759 -0.001336 -0.002790
v 0.020510 -0.012168 -0.015247
v 0.003723 -0.028413 -0.015789
v 0.003179 -0.026247 -0.002790
v 0.015095 -0.018123 -0.004959
v 0.024843 0.001915 -0.015247
v 0.023759 0.001915 -0.002790
v 0.023218 -0.008376 -0.013079
v 0.009138 -0.024081 -0.015789
v 0.017802 -0.013253 -0.003334
v 0.003723 -0.030039 -0.004959
v 0.025384 0.000289 -0.003875
v 0.015095 -0.016497 -0.002790
v 0.024843 -0.003503 -0.015247
v 0.011846 -0.004047 -0.015789
v 0.003179 -0.028954 -0.015245
v 0.011305 -0.022458 -0.015245
v 0.006430 -0.027332 -0.015245
v 0.012387 -0.021374 -0.007126
v 0.021592 -0.011086 -0.013079
f 267 281 282 
f 259 261 262 
f 261 259 266 
f 263 261 266 
f 262 261 268 
f 261 263 269 
f 258 268 269 
f 268 261 269 
f 265 262 271 
f 259 260 273 
f 266 259 273 
f 258 269 274 
f 269 263 274 
f 263 272 274 
f 272 270 274 
f 263 266 275 
f 272 263 275 
f 267 272 275 
f 266 273 275 
f 273 267 275 
f 268 258 276 
f 270 264 276 
f 264 271 276 
f 258 274 276 
f 274 270 276 
f 262 268 277 
f 271 262 277 
f 268 276 277 
f 276 271 277 
f 260 259 278 
f 259 262 278 
f 262 265 278 
f 271 264 279 
f 271 279 280 
f 265 271 280 
f 260 278 280 
f 278 265 280 
f 279 260 280 
f 273 260 281 
f 267 273 281 
f 260 279 281 
f 281 279 282 
f 264 270 282 
f 272 267 282 
f 270 272 282 
f 279 264 282 
o convex_13
v 0.027011 -0.029498 0.012917
v 0.003179 -0.035993 -0.002790
v 0.003723 -0.035993 -0.002790
v 0.003179 0.001915 -0.002790
v 0.003179 -0.017047 0.012917
v 0.027011 0.001915 -0.001707
v 0.027011 0.001915 0.012917
v 0.025926 -0.030582 -0.002248
v 0.004264 0.001915 0.012374
v 0.013471 -0.038705 0.008582
v 0.027011 -0.038165 0.007500
v 0.003179 -0.034369 0.008040
v 0.023759 0.000831 -0.002790
v 0.006431 -0.025702 0.012917
v 0.027011 -0.030582 -0.001707
v 0.020512 -0.033289 -0.002248
v 0.020512 -0.039249 0.008582
v 0.017262 -0.031666 0.012374
v 0.005888 0.001915 0.012917
v 0.003179 -0.035993 0.006415
v 0.003179 0.001915 0.003712
v 0.025385 -0.037621 0.009666
v 0.019427 -0.039249 0.006956
v 0.008596 -0.037077 0.008582
v 0.027011 -0.001337 -0.002248
v 0.003179 -0.022995 0.012374
v 0.008596 -0.031122 -0.002790
f 295 290 309 
f 285 284 286 
f 286 284 287 
f 287 283 289 
f 283 288 289 
f 288 286 289 
f 289 286 291 
f 288 283 293 
f 287 284 294 
f 285 286 295 
f 286 288 295 
f 283 287 296 
f 288 293 297 
f 297 293 298 
f 285 290 298 
f 290 297 298 
f 283 296 300 
f 287 289 301 
f 291 287 301 
f 289 291 301 
f 284 292 302 
f 294 284 302 
f 286 287 303 
f 291 286 303 
f 287 291 303 
f 293 283 304 
f 292 299 304 
f 299 293 304 
f 283 300 304 
f 300 292 304 
f 284 285 305 
f 292 284 305 
f 298 293 305 
f 285 298 305 
f 299 292 305 
f 293 299 305 
f 296 294 306 
f 300 296 306 
f 292 300 306 
f 302 292 306 
f 294 302 306 
f 295 288 307 
f 290 295 307 
f 288 297 307 
f 297 290 307 
f 287 294 308 
f 296 287 308 
f 294 296 308 
f 290 285 309 
f 285 295 309 
o convex_14
v 0.021592 -0.009463 0.022665
v 0.003721 -0.019746 0.012917
v 0.004264 -0.021917 0.012917
v 0.027011 0.001915 0.012917
v 0.027011 -0.025708 0.012917
v 0.011306 -0.022458 0.021041
v 0.010221 -0.008922 0.019416
v 0.027011 -0.023540 0.017792
v 0.018884 0.001915 0.013459
v 0.027011 0.001370 0.017792
v 0.018884 -0.029500 0.013459
v 0.006972 -0.008922 0.012917
v 0.007514 -0.016495 0.020499
v 0.014557 -0.009463 0.022665
v 0.017258 -0.017578 0.023207
v 0.006972 -0.025708 0.016167
v 0.003721 -0.014331 0.014542
v 0.024300 -0.012713 0.021582
v 0.005346 -0.022458 0.017250
v 0.007514 -0.026249 0.012917
v 0.016718 -0.005668 0.021041
v 0.012931 -0.015413 0.023207
v 0.014014 -0.024081 0.019957
v 0.018884 -0.009463 0.023207
v 0.011846 -0.006213 0.018332
v 0.027011 -0.024623 0.017250
v 0.019966 -0.015413 0.023207
v 0.006972 -0.008922 0.014542
v 0.027011 -0.012172 0.018874
v 0.010221 -0.026249 0.017250
v 0.020511 -0.029500 0.012917
v 0.009680 -0.013254 0.021582
v 0.009140 -0.018663 0.021582
v 0.017258 -0.020290 0.022124
v 0.025926 0.001915 0.017250
v 0.018884 0.001915 0.012917
f 321 318 345 
f 312 311 313 
f 312 313 314 
f 314 313 317 
f 317 313 319 
f 313 311 321 
f 321 311 326 
f 319 310 327 
f 311 312 328 
f 312 325 328 
f 325 315 328 
f 326 311 328 
f 322 326 328 
f 312 314 329 
f 325 312 329 
f 320 325 329 
f 315 324 331 
f 310 319 333 
f 319 330 333 
f 330 323 333 
f 323 331 333 
f 331 324 333 
f 316 323 334 
f 330 318 334 
f 323 330 334 
f 314 317 335 
f 332 320 335 
f 324 317 336 
f 327 310 336 
f 317 327 336 
f 310 333 336 
f 333 324 336 
f 318 321 337 
f 321 326 337 
f 326 316 337 
f 316 334 337 
f 334 318 337 
f 317 319 338 
f 319 327 338 
f 327 317 338 
f 325 320 339 
f 315 325 339 
f 320 332 339 
f 332 315 339 
f 329 314 340 
f 320 329 340 
f 314 335 340 
f 335 320 340 
f 323 316 341 
f 316 326 341 
f 326 322 341 
f 331 323 341 
f 331 341 342 
f 328 315 342 
f 322 328 342 
f 315 331 342 
f 341 322 342 
f 317 324 343 
f 324 315 343 
f 315 332 343 
f 335 317 343 
f 332 335 343 
f 313 318 344 
f 319 313 344 
f 318 330 344 
f 330 319 344 
f 318 313 345 
f 313 321 345 
o convex_15
v 0.012386 0.017080 0.013457
v 0.001015 0.004081 0.008042
v 0.001015 0.004081 0.011835
v 0.018343 0.001915 0.006959
v 0.001015 0.019246 0.006959
v 0.004806 0.011661 0.018874
v 0.011302 0.006249 0.018874
v 0.018343 0.013829 0.006959
v 0.015634 0.011120 0.015624
v 0.004265 0.001915 0.012377
v 0.018343 0.001915 0.010209
v 0.003723 0.001915 0.006959
v 0.012927 0.019246 0.006959
v 0.001015 0.019246 0.009127
v 0.002098 0.008959 0.016707
v 0.010220 0.018162 0.013998
v 0.008056 0.003540 0.016707
v 0.017800 0.013829 0.010751
v 0.004806 0.012744 0.018874
v 0.011843 0.019246 0.010751
v 0.008056 0.011120 0.018874
v 0.014009 0.001915 0.012377
f 362 355 367 
f 347 348 350 
f 349 350 353 
f 349 353 356 
f 354 352 356 
f 355 349 356 
f 348 347 357 
f 350 349 357 
f 347 350 357 
f 355 348 357 
f 349 355 357 
f 353 350 358 
f 350 348 359 
f 358 350 359 
f 359 348 360 
f 354 346 361 
f 352 351 362 
f 348 355 362 
f 351 360 362 
f 360 348 362 
f 346 354 363 
f 356 353 363 
f 354 356 363 
f 353 358 363 
f 351 352 364 
f 360 351 364 
f 359 360 364 
f 361 359 364 
f 358 359 365 
f 361 346 365 
f 359 361 365 
f 346 363 365 
f 363 358 365 
f 352 354 366 
f 354 361 366 
f 364 352 366 
f 361 364 366 
f 356 352 367 
f 355 356 367 
f 352 362 367 
o convex_16
v 0.051926 -0.027332 -0.008747
v 0.060050 -0.023001 -0.007121
v 0.059507 -0.021377 -0.006038
v 0.049761 -0.023543 0.007499
v 0.047592 -0.020292 -0.010373
v 0.047592 -0.028416 0.003707
v 0.047592 -0.020292 0.008042
v 0.057882 -0.027873 -0.009831
v 0.057341 -0.023001 0.003164
v 0.058966 -0.020292 -0.008206
v 0.047592 -0.028416 -0.003329
v 0.057882 -0.020292 0.000997
v 0.050845 -0.028416 0.002623
v 0.047592 -0.023001 -0.010373
v 0.058423 -0.025166 -0.002247
v 0.059507 -0.024624 -0.009831
v 0.053010 -0.020292 0.006414
v 0.055716 -0.028416 -0.009831
v 0.055716 -0.027332 -0.001166
f 382 376 386 
f 372 373 374 
f 373 371 374 
f 370 369 377 
f 372 374 377 
f 373 372 378 
f 369 370 379 
f 376 369 379 
f 377 374 379 
f 370 377 379 
f 371 373 380 
f 376 371 380 
f 373 378 380 
f 368 378 381 
f 378 372 381 
f 375 369 382 
f 369 376 382 
f 369 375 383 
f 377 369 383 
f 372 377 383 
f 375 381 383 
f 381 372 383 
f 374 371 384 
f 371 376 384 
f 376 379 384 
f 379 374 384 
f 378 368 385 
f 375 380 385 
f 380 378 385 
f 368 381 385 
f 381 375 385 
f 380 375 386 
f 376 380 386 
f 375 382 386 
o convex_17
v 0.054634 -0.012710 0.002625
v 0.047592 -0.020292 -0.010915
v 0.047592 -0.014874 -0.010915
v 0.047592 -0.020292 0.008042
v 0.054634 -0.020292 -0.009289
v 0.053549 -0.008918 -0.001704
v 0.053549 -0.020292 0.006416
v 0.047592 -0.014874 0.004791
v 0.054634 -0.010543 -0.007664
v 0.048134 -0.012168 -0.001704
v 0.050302 -0.012710 -0.010915
v 0.051382 -0.017042 0.007498
v 0.052467 -0.010002 0.001542
v 0.054634 -0.020292 0.001542
v 0.054634 -0.011084 0.002625
v 0.054634 -0.015959 -0.009831
f 397 395 402 
f 389 388 390 
f 390 388 391 
f 390 391 393 
f 389 390 394 
f 387 391 395 
f 389 394 396 
f 388 389 397 
f 392 395 397 
f 389 396 397 
f 396 392 397 
f 390 393 398 
f 394 390 398 
f 394 398 399 
f 392 396 399 
f 396 394 399 
f 391 387 400 
f 387 393 400 
f 393 391 400 
f 393 387 401 
f 387 395 401 
f 395 392 401 
f 398 393 401 
f 399 398 401 
f 392 399 401 
f 391 388 402 
f 395 391 402 
f 388 397 402 
o convex_18
v -0.017944 0.020330 -0.007125
v -0.017944 0.013289 -0.016873
v -0.017944 0.013831 -0.016873
v -0.023902 0.019788 -0.009290
v -0.017403 0.013289 -0.004415
v -0.015236 0.015997 -0.016873
v -0.015236 0.013289 -0.004415
v -0.022276 0.022496 -0.009832
v -0.015236 0.017622 -0.005499
v -0.022817 0.021412 -0.007125
v -0.019028 0.013289 -0.006041
v -0.015236 0.013289 -0.015787
v -0.018486 0.020871 -0.009832
v -0.023359 0.021412 -0.010373
f 412 410 416 
f 404 405 408 
f 407 404 409 
f 409 408 411 
f 407 409 411 
f 403 410 412 
f 411 403 412 
f 407 411 412 
f 406 404 413 
f 404 407 413 
f 412 406 413 
f 407 412 413 
f 404 408 414 
f 408 409 414 
f 409 404 414 
f 410 403 415 
f 408 410 415 
f 403 411 415 
f 411 408 415 
f 405 404 416 
f 404 406 416 
f 408 405 416 
f 410 408 416 
f 406 412 416 
o convex_19
v 0.025389 0.001915 0.016706
v 0.042176 0.002998 0.005876
v 0.042176 0.001915 0.005876
v 0.024844 0.001915 -0.002249
v 0.024844 0.007872 0.004796
v 0.036759 0.007872 0.012913
v 0.032428 0.007331 -0.002249
v 0.042176 0.005164 0.001002
v 0.037300 0.001915 -0.002249
v 0.041632 0.001915 0.009667
v 0.024844 0.007872 -0.001705
v 0.030261 0.007872 0.012913
v 0.037300 0.007872 0.002088
v 0.029177 0.002456 0.017250
v 0.027012 0.004081 0.016706
v 0.042176 0.005706 0.003168
v 0.042176 0.001915 0.001002
v 0.024844 0.002456 0.016164
f 431 421 434 
f 419 417 420 
f 418 419 424 
f 419 420 425 
f 420 423 425 
f 423 424 425 
f 417 419 426 
f 419 418 426 
f 420 421 427 
f 421 422 427 
f 423 420 427 
f 422 421 428 
f 424 423 429 
f 427 422 429 
f 423 427 429 
f 417 426 430 
f 426 422 430 
f 428 421 431 
f 422 428 431 
f 417 430 431 
f 430 422 431 
f 418 424 432 
f 426 418 432 
f 422 426 432 
f 429 422 432 
f 424 429 432 
f 424 419 433 
f 419 425 433 
f 425 424 433 
f 420 417 434 
f 421 420 434 
f 417 431 434 
o convex_20
v -0.056397 0.028457 -0.024993
v -0.036359 0.044703 -0.004415
v -0.036359 0.034955 -0.004415
v -0.038528 0.040910 -0.017953
v -0.047729 0.038201 -0.007126
v -0.045571 0.028997 -0.004415
v -0.050980 0.037659 -0.021203
v -0.036359 0.035493 -0.013083
v -0.053146 0.030082 -0.027701
v -0.057482 0.025746 -0.021203
v -0.054232 0.025746 -0.020120
v -0.054232 0.032248 -0.014709
v -0.036901 0.033332 -0.009834
v -0.042320 0.042534 -0.004415
v -0.036359 0.043619 -0.013626
v -0.054232 0.032790 -0.027701
v -0.046112 0.041452 -0.010918
v -0.048815 0.028997 -0.007126
v -0.046652 0.027915 -0.006585
v -0.051521 0.031704 -0.027701
v -0.041776 0.041452 -0.017953
v -0.046112 0.036577 -0.004415
v -0.042862 0.043077 -0.009293
v -0.055313 0.026288 -0.023911
v -0.056397 0.029539 -0.018494
v -0.036901 0.035493 -0.014168
v -0.053146 0.031162 -0.012542
v -0.040151 0.040910 -0.019036
v -0.052065 0.036577 -0.021203
v -0.044487 0.028997 -0.004415
f 453 447 464 
f 437 436 440 
f 436 437 442 
f 442 437 447 
f 440 436 448 
f 436 442 449 
f 442 438 449 
f 443 435 450 
f 446 439 451 
f 439 448 451 
f 444 445 453 
f 445 447 453 
f 440 452 453 
f 452 444 453 
f 443 450 454 
f 450 441 455 
f 440 448 456 
f 448 439 456 
f 452 440 456 
f 448 436 457 
f 436 449 457 
f 441 451 457 
f 451 448 457 
f 449 455 457 
f 455 441 457 
f 435 443 458 
f 444 435 458 
f 445 444 458 
f 447 445 458 
f 435 444 459 
f 450 435 459 
f 438 442 460 
f 442 447 460 
f 454 438 460 
f 443 454 460 
f 458 443 460 
f 447 458 460 
f 439 446 461 
f 444 452 461 
f 456 439 461 
f 452 456 461 
f 459 444 461 
f 446 459 461 
f 449 438 462 
f 438 454 462 
f 454 450 462 
f 455 449 462 
f 450 455 462 
f 441 450 463 
f 446 451 463 
f 451 441 463 
f 459 446 463 
f 450 459 463 
f 437 440 464 
f 447 437 464 
f 440 453 464 
o convex_21
v -0.001695 0.024663 -0.004958
v 0.000471 0.025204 -0.012539
v 0.000471 0.024663 -0.012539
v -0.001153 0.025204 -0.014164
v -0.000071 0.025204 -0.004958
f 466 468 469 
f 466 467 468 
f 467 465 468 
f 468 465 469 
f 465 467 469 
f 467 466 469 
o convex_22
v 0.024299 0.017083 -0.008749
v 0.024843 0.032787 -0.011997
v 0.024843 0.032787 -0.013080
v 0.006973 0.023038 -0.013622
v 0.014015 0.013289 -0.015789
v 0.006973 0.013289 -0.007665
v 0.030800 0.025746 -0.013622
v 0.024299 0.013289 -0.013080
v 0.016181 0.024662 -0.008207
v 0.006973 0.020870 -0.015789
v 0.029717 0.025204 -0.010375
v 0.006973 0.013289 -0.015789
v 0.019967 0.013289 -0.007665
v 0.006973 0.017083 -0.007665
v 0.022133 0.018165 -0.007665
v 0.009141 0.022496 -0.015789
v 0.021596 0.027912 -0.009291
v 0.031344 0.025746 -0.011456
v 0.027007 0.031159 -0.013622
v 0.022131 0.031159 -0.010916
v 0.024299 0.013289 -0.011458
v 0.024841 0.014375 -0.013622
v 0.023216 0.032243 -0.013622
v 0.012391 0.019787 -0.015789
f 488 476 493 
f 475 474 477 
f 475 473 479 
f 474 475 481 
f 475 479 481 
f 479 474 481 
f 475 477 482 
f 473 475 483 
f 478 473 483 
f 475 482 483 
f 483 482 484 
f 470 480 484 
f 482 470 484 
f 478 483 484 
f 479 473 485 
f 474 479 485 
f 480 471 486 
f 484 480 486 
f 478 484 486 
f 471 480 487 
f 480 470 487 
f 472 471 488 
f 471 487 488 
f 487 476 488 
f 473 478 489 
f 486 471 489 
f 478 486 489 
f 470 482 490 
f 482 477 490 
f 477 487 490 
f 487 470 490 
f 474 476 491 
f 477 474 491 
f 476 487 491 
f 487 477 491 
f 471 472 492 
f 485 473 492 
f 472 488 492 
f 488 485 492 
f 489 471 492 
f 473 489 492 
f 476 474 493 
f 474 485 493 
f 485 488 493 
o convex_23
v 0.001552 0.031166 0.015621
v -0.015234 0.024663 -0.003869
v -0.016317 0.025204 -0.003869
v 0.002095 0.042536 -0.000621
v -0.016317 0.045786 0.006420
v -0.016317 0.024663 0.018871
v 0.003721 0.024663 -0.001706
v -0.009276 0.044161 -0.003869
v 0.003721 0.024663 0.011831
v 0.003721 0.037118 0.011290
v 0.003721 0.033870 -0.003331
v -0.016317 0.041450 -0.003869
v -0.003864 0.034416 0.015621
v -0.007108 0.045244 0.006960
v -0.014691 0.037118 0.013456
v -0.011441 0.025204 0.019412
v 0.002636 0.042536 0.003712
v 0.003721 0.026832 -0.003331
v -0.000073 0.037118 -0.003869
v -0.015234 0.044161 -0.002246
v -0.007108 0.044161 -0.003869
v -0.001697 0.027373 0.016706
v -0.013067 0.045786 0.006960
v 0.003721 0.039827 0.005875
v 0.001010 0.031166 0.016164
v -0.009276 0.024663 0.018871
v -0.014691 0.025204 0.019412
v 0.002636 0.041450 -0.001164
v -0.002781 0.034416 0.015621
v 0.000471 0.024663 -0.003329
v -0.002238 0.043075 0.007502
f 510 507 524 
f 498 496 499 
f 496 495 499 
f 499 495 500 
f 495 496 501 
f 499 500 502 
f 502 500 503 
f 494 502 503 
f 503 500 504 
f 496 498 505 
f 501 496 505 
f 498 499 508 
f 497 507 510 
f 504 500 511 
f 504 511 512 
f 495 501 512 
f 511 495 512 
f 498 501 513 
f 505 498 513 
f 501 505 513 
f 501 498 514 
f 507 497 514 
f 512 501 514 
f 498 508 516 
f 508 506 516 
f 514 498 516 
f 507 514 516 
f 503 504 517 
f 510 503 517 
f 502 494 518 
f 494 503 518 
f 515 502 518 
f 515 518 519 
f 499 502 519 
f 509 499 519 
f 502 515 519 
f 518 509 519 
f 508 499 520 
f 506 508 520 
f 509 506 520 
f 499 509 520 
f 497 510 521 
f 504 512 521 
f 514 497 521 
f 512 514 521 
f 517 504 521 
f 510 517 521 
f 503 507 522 
f 506 509 522 
f 516 506 522 
f 507 516 522 
f 518 503 522 
f 509 518 522 
f 500 495 523 
f 495 511 523 
f 511 500 523 
f 507 503 524 
f 503 510 524 
o convex_24
v -0.039609 -0.011083 -0.010375
v -0.014694 0.001915 -0.005499
v -0.014694 -0.015417 -0.005499
v -0.014694 -0.015417 -0.016873
v -0.028232 0.001915 -0.016873
v -0.033105 -0.001336 -0.005499
v -0.014694 0.001915 -0.016330
v -0.027693 -0.015417 -0.016330
v -0.036358 -0.013251 -0.005499
v -0.028776 0.001915 -0.005499
v -0.039065 -0.006212 -0.008207
v -0.030398 -0.008914 -0.016873
v -0.039065 -0.008373 -0.011996
v -0.035273 -0.014333 -0.008748
v -0.033651 -0.000795 -0.010916
v -0.038524 -0.007832 -0.005499
v -0.022823 -0.015417 -0.005499
v -0.038524 -0.011626 -0.011996
v -0.018486 0.000830 -0.016873
v -0.037438 -0.013792 -0.009832
v -0.039609 -0.011083 -0.007124
v -0.029315 -0.012708 -0.016873
v -0.039065 -0.006751 -0.010916
v -0.029859 0.001915 -0.006582
f 539 535 548 
f 526 527 528 
f 527 526 530 
f 526 528 531 
f 529 526 531 
f 528 527 532 
f 527 530 533 
f 526 529 534 
f 530 526 534 
f 529 528 536 
f 529 536 537 
f 533 530 540 
f 530 535 540 
f 532 527 541 
f 527 533 541 
f 538 532 541 
f 533 538 541 
f 537 536 542 
f 525 537 542 
f 528 529 543 
f 531 528 543 
f 529 531 543 
f 532 538 544 
f 538 533 544 
f 542 532 544 
f 525 542 544 
f 535 525 545 
f 533 540 545 
f 540 535 545 
f 525 544 545 
f 544 533 545 
f 528 532 546 
f 536 528 546 
f 532 542 546 
f 542 536 546 
f 525 535 547 
f 537 525 547 
f 529 537 547 
f 539 529 547 
f 535 539 547 
f 534 529 548 
f 530 534 548 
f 535 530 548 
f 529 539 548 
o convex_25
v 0.001013 -0.037620 -0.002788
v 0.003179 -0.017043 0.012917
v 0.003179 -0.013794 0.011829
v -0.002778 0.001915 0.004790
v 0.003179 0.001915 -0.014705
v -0.002778 -0.031119 -0.015789
v -0.002778 -0.037620 0.006414
v 0.003179 -0.028954 -0.015247
v -0.002778 0.001915 -0.015789
v 0.003179 -0.036537 0.006414
v 0.003179 0.001915 0.003706
v -0.002778 -0.019208 0.011832
v -0.002778 -0.038166 -0.008748
v 0.003179 -0.001338 -0.015789
v 0.002638 -0.022457 0.012374
v 0.003179 -0.036537 -0.002788
v -0.001153 -0.017588 0.012374
v -0.002778 -0.021915 0.011832
v -0.000070 -0.036537 0.007499
v -0.002237 -0.037620 -0.009830
v 0.003179 -0.022457 -0.015789
v 0.000471 -0.037620 0.006414
f 558 567 570 
f 551 550 553 
f 552 554 555 
f 553 550 556 
f 552 553 557 
f 554 552 557 
f 556 550 558 
f 552 551 559 
f 553 552 559 
f 551 553 559 
f 552 555 560 
f 555 554 561 
f 553 556 562 
f 554 557 562 
f 557 553 562 
f 558 550 563 
f 558 549 564 
f 556 558 564 
f 549 561 564 
f 550 551 565 
f 551 552 565 
f 552 560 565 
f 560 555 566 
f 563 550 566 
f 550 565 566 
f 565 560 566 
f 558 563 567 
f 566 555 567 
f 563 566 567 
f 554 556 568 
f 561 554 568 
f 556 564 568 
f 564 561 568 
f 556 554 569 
f 562 556 569 
f 554 562 569 
f 549 558 570 
f 561 549 570 
f 555 561 570 
f 567 555 570 
o convex_26
v 0.015095 -0.018125 -0.008748
v 0.024303 -0.020292 -0.005500
v 0.024303 -0.020833 -0.005500
v 0.018888 -0.013251 -0.015248
v 0.015095 -0.013251 -0.002790
v 0.015095 -0.017584 -0.015248
v 0.021052 -0.022458 -0.005500
v 0.017803 -0.013251 -0.002790
v 0.023218 -0.021916 -0.008207
v 0.015095 -0.013251 -0.014705
v 0.015095 -0.015959 -0.002790
v 0.022678 -0.021374 -0.004416
v 0.022678 -0.017584 -0.006041
f 574 578 583 
f 571 575 576 
f 571 576 577 
f 574 575 578 
f 572 573 579 
f 574 572 579 
f 576 574 579 
f 573 577 579 
f 577 576 579 
f 575 574 580 
f 574 576 580 
f 576 575 580 
f 575 571 581 
f 571 577 581 
f 578 575 581 
f 578 581 582 
f 573 572 582 
f 577 573 582 
f 572 578 582 
f 581 577 582 
f 572 574 583 
f 578 572 583 
o convex_27
v -0.032026 0.025206 -0.004415
v -0.016319 0.034410 0.002626
v -0.016319 0.024664 0.002626
v -0.016319 0.029537 -0.003874
v -0.028235 0.024664 0.002626
v -0.023904 0.034410 -0.003874
v -0.023362 0.034410 0.002626
v -0.017944 0.024664 -0.003874
v -0.016862 0.034410 -0.003874
v -0.031483 0.026289 -0.002248
v -0.019030 0.032244 -0.004415
v -0.032026 0.024664 -0.004415
f 594 591 595 
f 585 586 587 
f 586 585 588 
f 588 585 590 
f 585 589 590 
f 587 586 591 
f 586 588 591 
f 585 587 592 
f 589 585 592 
f 589 584 593 
f 590 589 593 
f 588 590 593 
f 584 589 594 
f 587 591 594 
f 592 587 594 
f 589 592 594 
f 591 588 595 
f 593 584 595 
f 588 593 595 
f 584 594 595 
o convex_28
v 0.040009 -0.008378 0.012373
v 0.027011 -0.037620 0.007501
v 0.028095 -0.037620 0.007501
v 0.027011 0.001911 0.004793
v 0.047592 -0.024081 0.004793
v 0.027553 -0.027331 0.013457
v 0.027011 0.001911 0.013457
v 0.042175 0.001911 0.004793
v 0.047592 -0.021914 0.008043
v 0.027011 -0.024622 0.004793
v 0.043259 0.000827 0.009666
v 0.036762 -0.032744 0.009666
v 0.036762 -0.018122 0.013457
v 0.044883 -0.030036 0.004793
v 0.047592 -0.014879 0.004793
v 0.034594 -0.001340 0.013457
v 0.045425 -0.004590 0.009666
v 0.027011 -0.037078 0.009666
v 0.044883 -0.018663 0.010207
v 0.042175 -0.026789 0.009666
v 0.029720 -0.027331 0.013457
v 0.040551 0.001911 0.010207
v 0.045425 -0.028952 0.006418
v 0.032428 -0.035995 0.009125
v 0.027011 -0.028952 0.005335
v 0.037842 -0.010545 0.013457
v 0.045425 -0.010003 0.010207
v 0.027011 -0.026248 0.013457
v 0.045425 -0.004048 0.008043
v 0.034594 -0.022455 0.013457
v 0.031344 0.001911 0.013457
f 606 617 626 
f 599 597 602 
f 600 599 603 
f 599 602 603 
f 597 599 605 
f 599 600 605 
f 602 601 608 
f 598 597 609 
f 605 600 609 
f 600 603 610 
f 604 600 610 
f 602 608 611 
f 604 610 612 
f 611 596 612 
f 606 611 612 
f 597 598 613 
f 602 597 613 
f 604 614 615 
f 608 601 616 
f 601 613 616 
f 603 602 617 
f 606 603 617 
f 600 604 618 
f 609 600 618 
f 615 607 618 
f 604 615 618 
f 598 609 619 
f 613 598 619 
f 616 613 619 
f 607 616 619 
f 609 618 619 
f 618 607 619 
f 597 605 620 
f 609 597 620 
f 605 609 620 
f 596 611 621 
f 611 608 621 
f 608 614 621 
f 621 614 622 
f 612 596 622 
f 604 612 622 
f 614 604 622 
f 596 621 622 
f 601 602 623 
f 602 613 623 
f 613 601 623 
f 603 606 624 
f 610 603 624 
f 606 612 624 
f 612 610 624 
f 614 608 625 
f 607 615 625 
f 615 614 625 
f 608 616 625 
f 616 607 625 
f 611 606 626 
f 602 611 626 
f 617 602 626 
o convex_29
v 0.037843 0.001908 0.004792
v 0.027011 -0.030035 -0.001707
v 0.027553 -0.030035 -0.001707
v 0.029720 0.001908 -0.002249
v 0.027011 0.001908 0.004792
v 0.037843 -0.019749 -0.001707
v 0.035675 -0.021372 0.004792
v 0.027011 -0.024621 0.004792
v 0.037843 0.001908 -0.002249
v 0.027011 -0.000797 -0.002249
v 0.037843 -0.019749 0.004792
v 0.032427 -0.017582 -0.002249
v 0.027553 -0.030035 0.000460
v 0.031344 -0.026789 -0.001707
v 0.027011 0.001908 -0.001707
f 636 631 641 
f 627 630 631 
f 627 631 633 
f 631 628 634 
f 633 631 634 
f 630 627 635 
f 627 632 635 
f 628 631 636 
f 630 635 636 
f 632 627 637 
f 627 633 637 
f 629 628 638 
f 635 632 638 
f 628 636 638 
f 636 635 638 
f 628 629 639 
f 634 628 639 
f 633 634 639 
f 637 633 639 
f 637 639 640 
f 632 637 640 
f 629 638 640 
f 638 632 640 
f 639 629 640 
f 631 630 641 
f 630 636 641 
o convex_30
v 0.037843 -0.009459 0.015625
v 0.027011 -0.017582 0.013458
v 0.032427 -0.017582 0.013458
v 0.027011 0.001913 0.013458
v 0.027011 -0.011624 0.018333
v 0.034050 0.000829 0.017249
v 0.034050 -0.000795 0.013458
v 0.027011 0.001371 0.017790
v 0.037843 -0.012166 0.013458
v 0.032427 -0.017582 0.015084
v 0.034592 -0.012708 0.016707
v 0.030804 -0.001337 0.018333
v 0.031344 0.001913 0.013458
v 0.027011 -0.017582 0.015084
f 651 646 655 
f 644 643 645 
f 645 643 646 
f 644 645 648 
f 647 642 648 
f 645 646 649 
f 648 642 650 
f 644 648 650 
f 643 644 651 
f 644 650 651 
f 651 650 652 
f 642 647 652 
f 650 642 652 
f 646 651 652 
f 646 652 653 
f 649 646 653 
f 647 649 653 
f 652 647 653 
f 648 645 654 
f 647 648 654 
f 645 649 654 
f 649 647 654 
f 646 643 655 
f 643 651 655 
o convex_31
v 0.058970 -0.020292 0.001541
v 0.073589 -0.001878 -0.010372
v 0.074130 -0.002420 -0.010372
v 0.054637 -0.020292 -0.009290
v 0.054637 -0.008378 -0.002249
v 0.060596 -0.012711 0.006417
v 0.069253 -0.015416 -0.010915
v 0.058429 -0.010002 -0.010915
v 0.068711 -0.013251 -0.002249
v 0.066550 -0.004585 0.000457
v 0.054637 -0.020292 0.002082
v 0.061678 -0.019207 0.003708
v 0.054637 -0.011626 0.003167
v 0.071422 -0.001878 -0.010915
v 0.054637 -0.009461 -0.007664
v 0.074670 -0.007837 -0.010372
v 0.067091 -0.005668 0.000998
v 0.058429 -0.020292 -0.008205
v 0.057346 -0.017581 -0.010915
v 0.057887 -0.011087 0.005333
v 0.065464 -0.017581 -0.000625
v 0.069798 -0.002420 -0.004957
v 0.067629 -0.011626 -0.000084
v 0.066005 -0.017581 -0.007123
v 0.056805 -0.007294 -0.005498
v 0.071420 -0.012168 -0.006582
v 0.070881 -0.002961 -0.004415
v 0.064924 -0.005128 0.000998
v 0.060596 -0.013790 0.006417
f 678 672 684 
f 659 656 666 
f 660 659 666 
f 666 656 667 
f 660 666 668 
f 657 658 669 
f 662 663 669 
f 659 660 670 
f 663 659 670 
f 669 663 670 
f 669 658 671 
f 662 669 671 
f 665 661 672 
f 656 659 673 
f 659 662 673 
f 662 659 674 
f 659 663 674 
f 663 662 674 
f 660 668 675 
f 668 666 675 
f 664 667 676 
f 657 669 677 
f 667 664 678 
f 664 671 678 
f 667 656 679 
f 656 673 679 
f 673 662 679 
f 676 667 679 
f 662 676 679 
f 670 660 680 
f 669 670 680 
f 660 677 680 
f 677 669 680 
f 662 671 681 
f 671 664 681 
f 664 676 681 
f 676 662 681 
f 658 657 682 
f 671 658 682 
f 665 672 682 
f 657 677 682 
f 677 665 682 
f 678 671 682 
f 672 678 682 
f 661 665 683 
f 660 675 683 
f 675 661 683 
f 677 660 683 
f 665 677 683 
f 666 667 684 
f 672 661 684 
f 661 675 684 
f 675 666 684 
f 667 678 684 
o convex_32
v 0.000471 0.006248 0.008043
v -0.004403 0.019246 0.014541
v -0.004945 0.019246 0.014541
v -0.004945 0.019246 0.006959
v 0.001013 0.019246 0.006959
v -0.004945 0.009499 0.006959
v 0.001013 0.006790 0.011291
v -0.003861 0.008414 0.011291
v 0.001013 0.017619 0.010750
v 0.001013 0.006790 0.006959
v -0.001696 0.006248 0.011291
f 687 692 695 
f 687 686 688 
f 688 686 689 
f 687 688 690 
f 688 689 690 
f 687 690 692 
f 689 686 693 
f 686 691 693 
f 691 689 693 
f 685 690 694 
f 690 689 694 
f 691 685 694 
f 689 691 694 
f 686 687 695 
f 690 685 695 
f 691 686 695 
f 685 691 695 
f 692 690 695 
o convex_33
v -0.015236 0.013289 -0.007665
v 0.000472 0.024663 -0.004415
v 0.013470 0.018706 -0.004415
v 0.013470 0.018706 -0.007665
v -0.015236 0.013289 -0.004415
v 0.017803 0.013289 -0.004415
v -0.002778 0.023578 -0.007665
v 0.017803 0.013289 -0.007665
v -0.015236 0.017082 -0.004957
v -0.015236 0.017082 -0.007665
v -0.002235 0.024663 -0.007123
v -0.001695 0.024663 -0.004415
v 0.000472 0.024663 -0.007123
v 0.017803 0.014914 -0.006581
f 701 703 709 
f 697 698 699 
f 698 697 700 
f 700 696 701 
f 698 700 701 
f 699 696 702 
f 696 699 703 
f 701 696 703 
f 696 700 704 
f 702 696 705 
f 696 704 705 
f 702 705 706 
f 705 704 706 
f 700 697 707 
f 704 700 707 
f 697 706 707 
f 706 704 707 
f 697 699 708 
f 699 702 708 
f 706 697 708 
f 702 706 708 
f 699 698 709 
f 698 701 709 
f 703 699 709 
o convex_34
v -0.031484 0.004624 0.001542
v -0.004945 0.024663 0.002084
v -0.004945 0.024663 -0.002790
v -0.004945 0.001915 -0.004415
v -0.032565 0.024663 -0.004415
v -0.035276 0.001915 -0.004415
v -0.004945 0.001915 0.002084
v -0.028233 0.024663 0.002084
v -0.004945 0.020330 -0.004415
v -0.029857 0.001915 0.002084
v -0.034733 0.018704 -0.002248
v -0.035276 0.001915 -0.002248
v -0.011447 0.024663 -0.003873
v -0.034733 0.018163 -0.004415
v -0.034189 0.015451 -0.001166
v -0.033108 0.023578 -0.002248
v -0.030941 0.006791 0.002084
f 717 724 726 
f 712 711 713 
f 711 712 714 
f 714 713 715 
f 713 711 716 
f 715 713 716 
f 711 714 717 
f 716 711 717 
f 712 713 718 
f 713 714 718 
f 715 716 719 
f 716 717 719 
f 719 710 721 
f 715 719 721 
f 720 715 721 
f 714 712 722 
f 712 718 722 
f 718 714 722 
f 714 715 723 
f 715 720 723 
f 717 720 724 
f 721 710 724 
f 720 721 724 
f 717 714 725 
f 720 717 725 
f 714 723 725 
f 723 720 725 
f 710 719 726 
f 719 717 726 
f 724 710 726 
o convex_35
v -0.020656 0.009501 0.020496
v -0.004945 0.024663 0.015623
v -0.004945 0.024663 0.002086
v -0.040146 0.024663 0.004252
v -0.004945 0.001915 0.002086
v -0.035272 0.001915 0.002628
v -0.017405 0.021953 0.021039
v -0.009280 0.014369 0.019955
v -0.018487 0.001915 0.012373
v -0.040692 0.015996 0.006417
v -0.034730 0.001915 0.006959
v -0.028232 0.024663 0.002084
v -0.025527 0.012748 0.018874
v -0.040146 0.024663 0.006417
v -0.004945 0.003540 0.006419
v -0.010362 0.024663 0.019413
v -0.017948 0.005707 0.017791
v -0.020114 0.017076 0.021581
v -0.005487 0.018704 0.017248
v -0.029855 0.001915 0.002084
v -0.011446 0.015996 0.021579
v -0.024984 0.005166 0.016165
v -0.039607 0.010040 0.006417
v -0.013070 0.009501 0.019413
v -0.026069 0.008958 0.017791
v -0.016321 0.024663 0.019415
v -0.014155 0.001915 0.011294
v -0.040692 0.016537 0.004252
v -0.009280 0.021412 0.020498
v -0.022280 0.017620 0.020496
v -0.034730 0.016537 0.002628
v -0.016321 0.014369 0.022124
v -0.014155 0.018704 0.022124
v -0.015782 0.009501 0.020496
v -0.022819 0.004081 0.015623
v -0.037980 0.006248 0.006417
v -0.006572 0.014912 0.017248
v -0.021737 0.012209 0.021039
v -0.040146 0.011126 0.004793
f 762 749 765 
f 728 729 730 
f 729 728 731 
f 732 731 735 
f 732 735 737 
f 730 729 738 
f 729 731 738 
f 728 730 740 
f 736 739 740 
f 731 728 741 
f 728 740 742 
f 741 728 745 
f 731 732 746 
f 738 731 746 
f 743 727 748 
f 739 736 749 
f 741 734 750 
f 734 747 750 
f 737 748 751 
f 748 727 751 
f 739 749 751 
f 740 733 752 
f 733 742 752 
f 742 740 752 
f 735 731 753 
f 731 741 753 
f 743 735 753 
f 741 750 753 
f 750 743 753 
f 740 730 754 
f 736 740 754 
f 728 742 755 
f 745 728 755 
f 734 745 755 
f 747 734 755 
f 733 740 756 
f 740 739 756 
f 744 733 756 
f 730 738 757 
f 746 732 757 
f 738 746 757 
f 754 730 757 
f 732 754 757 
f 742 733 759 
f 733 744 759 
f 755 742 759 
f 747 755 759 
f 744 758 759 
f 758 747 759 
f 727 743 760 
f 743 750 760 
f 750 747 760 
f 758 727 760 
f 747 758 760 
f 737 735 761 
f 735 743 761 
f 748 737 761 
f 743 748 761 
f 732 737 762 
f 737 751 762 
f 751 749 762 
f 734 741 763 
f 741 745 763 
f 745 734 763 
f 751 727 764 
f 739 751 764 
f 756 739 764 
f 744 756 764 
f 727 758 764 
f 758 744 764 
f 749 736 765 
f 754 732 765 
f 736 754 765 
f 732 762 765 
o convex_36
v 0.003724 0.024663 0.011833
v -0.004945 0.019246 -0.004415
v -0.004945 0.019246 0.014541
v 0.016720 0.019246 0.001004
v -0.004945 0.024663 -0.002790
v 0.015636 0.023579 -0.000082
v -0.004945 0.024663 0.015624
v 0.011844 0.019246 0.008039
v 0.006969 0.024663 -0.003331
v 0.012385 0.019246 -0.002790
v 0.015636 0.023579 0.004254
v -0.002778 0.024121 0.016166
v 0.000473 0.024121 -0.004415
v 0.004806 0.019246 -0.004415
v 0.000473 0.020871 0.013997
v 0.016720 0.019246 0.003710
f 776 773 781 
f 768 767 769 
f 767 768 770 
f 766 770 772 
f 770 768 772 
f 768 769 773 
f 770 766 774 
f 774 771 775 
f 769 767 775 
f 771 769 775 
f 769 771 776 
f 766 773 776 
f 774 766 776 
f 771 774 776 
f 766 772 777 
f 772 768 777 
f 773 766 777 
f 767 770 778 
f 770 774 778 
f 774 775 779 
f 775 767 779 
f 767 778 779 
f 778 774 779 
f 768 773 780 
f 777 768 780 
f 773 777 780 
f 773 769 781 
f 769 776 781 
o convex_37
v 0.037302 0.008415 0.003709
v 0.025386 0.007872 -0.000624
v 0.025386 0.007872 0.004792
v 0.034050 0.012747 0.005333
v 0.035134 0.011663 0.000459
v 0.028637 0.011663 0.000459
v 0.036218 0.007872 0.005875
v 0.027553 0.011121 0.005333
v 0.035134 0.007872 0.001002
v 0.035676 0.012747 0.005875
v 0.026469 0.007872 0.005875
f 788 791 792 
f 786 783 787 
f 785 786 787 
f 784 783 788 
f 783 784 789 
f 787 783 789 
f 785 787 789 
f 786 782 790 
f 783 786 790 
f 788 783 790 
f 782 788 790 
f 782 786 791 
f 786 785 791 
f 788 782 791 
f 785 789 791 
f 791 789 792 
f 784 788 792 
f 789 784 792 
o convex_38
v 0.030261 0.008414 0.012917
v 0.043259 0.020871 0.009127
v 0.044339 0.020329 0.009127
v 0.027011 0.007872 0.005875
v 0.039466 0.008958 0.007501
v 0.032969 0.016536 0.011832
v 0.037298 0.007872 0.012917
v 0.046509 0.017619 0.007501
v 0.037840 0.018161 0.006960
v 0.036222 0.007872 0.005875
v 0.042175 0.012747 0.011832
v 0.029719 0.013290 0.012374
v 0.036222 0.014372 0.005875
v 0.033512 0.017078 0.009666
v 0.036760 0.017078 0.011832
v 0.045425 0.015453 0.010208
v 0.040550 0.020871 0.008042
v 0.035138 0.011665 0.012917
f 803 807 810 
f 793 796 799 
f 794 795 800 
f 799 796 802 
f 797 799 802 
f 800 797 802 
f 796 793 804 
f 796 801 805 
f 801 800 805 
f 800 802 805 
f 802 796 805 
f 801 796 806 
f 796 804 806 
f 804 798 806 
f 795 794 807 
f 794 798 807 
f 803 795 807 
f 799 797 808 
f 800 795 808 
f 797 800 808 
f 795 803 808 
f 803 799 808 
f 798 794 809 
f 794 800 809 
f 800 801 809 
f 806 798 809 
f 801 806 809 
f 793 799 810 
f 799 803 810 
f 804 793 810 
f 798 804 810 
f 807 798 810 
o convex_39
v -0.036359 0.033871 -0.009292
v -0.017944 0.048494 -0.005500
v -0.017944 0.048494 -0.007124
v -0.035817 0.048494 -0.010915
v -0.021196 0.045242 -0.014706
v -0.035274 0.048494 -0.004415
v -0.030400 0.034956 -0.004415
v -0.036359 0.041449 -0.014706
v -0.027150 0.039289 -0.014164
v -0.019029 0.043618 -0.006582
v -0.036359 0.034957 -0.004415
v -0.025529 0.048494 -0.013622
v -0.019029 0.045785 -0.004415
v -0.024448 0.038204 -0.004957
v -0.033650 0.033329 -0.008207
v -0.036359 0.036038 -0.013080
v -0.036359 0.045243 -0.004415
v -0.024988 0.038204 -0.007666
v -0.036359 0.042535 -0.014706
v -0.022822 0.047951 -0.014164
v -0.019029 0.048494 -0.004415
f 816 823 831 
f 812 813 814 
f 812 814 816 
f 818 815 819 
f 813 812 820 
f 815 813 820 
f 817 816 821 
f 818 811 821 
f 814 813 822 
f 816 817 823 
f 820 812 823 
f 820 823 824 
f 823 817 824 
f 821 811 825 
f 817 821 825 
f 824 817 825 
f 811 818 826 
f 818 819 826 
f 819 825 826 
f 825 811 826 
f 816 814 827 
f 821 816 827 
f 818 821 827 
f 819 815 828 
f 815 820 828 
f 820 824 828 
f 825 819 828 
f 824 825 828 
f 815 818 829 
f 814 822 829 
f 827 814 829 
f 818 827 829 
f 813 815 830 
f 822 813 830 
f 815 829 830 
f 829 822 830 
f 812 816 831 
f 823 812 831 
o convex_40
v 0.047592 -0.024081 0.004792
v 0.037843 -0.019204 -0.001165
v 0.037843 -0.019204 0.004792
v 0.042176 0.001915 0.004792
v 0.047592 -0.013255 -0.002249
v 0.037843 0.001370 -0.002249
v 0.038387 -0.030039 -0.002249
v 0.047592 -0.030039 -0.002249
v 0.042179 -0.030039 0.004792
v 0.037843 0.001915 0.004792
v 0.047592 -0.014879 0.004792
v 0.044884 -0.004585 -0.001707
v 0.047592 -0.030039 0.002625
v 0.042176 0.001915 0.001002
v 0.040553 -0.029495 0.003709
f 840 834 846 
f 834 832 835 
f 833 834 837 
f 834 833 838 
f 833 837 838 
f 837 836 838 
f 836 832 839 
f 838 836 839 
f 838 839 840 
f 832 834 840 
f 834 835 841 
f 837 834 841 
f 835 832 842 
f 832 836 842 
f 842 836 843 
f 836 837 843 
f 835 842 843 
f 839 832 844 
f 840 839 844 
f 832 840 844 
f 841 835 845 
f 837 841 845 
f 843 837 845 
f 835 843 845 
f 834 838 846 
f 838 840 846 
o convex_41
v -0.025531 0.034957 0.010207
v -0.040150 0.024663 0.004252
v -0.040150 0.024663 0.006418
v -0.016319 0.024663 0.002627
v -0.027155 0.048494 0.002627
v -0.016319 0.024663 0.010749
v -0.016319 0.045242 0.006958
v -0.036899 0.039826 0.002627
v -0.016319 0.044160 0.002627
v -0.030938 0.024663 0.010749
v -0.016319 0.037658 0.010749
v -0.025531 0.048494 0.004793
v -0.035275 0.035498 0.006418
v -0.028235 0.024663 0.002627
v -0.029315 0.029538 0.010749
v -0.019571 0.046868 0.002627
v -0.036357 0.039826 0.003710
v -0.029856 0.038741 0.007500
v -0.020653 0.036578 0.010749
v -0.036899 0.031164 0.006958
f 859 863 866 
f 849 848 850 
f 849 850 852 
f 852 850 853 
f 848 849 854 
f 851 850 854 
f 850 851 855 
f 853 850 855 
f 849 852 856 
f 856 852 857 
f 852 853 857 
f 857 853 858 
f 850 848 860 
f 848 854 860 
f 854 850 860 
f 856 857 861 
f 855 851 862 
f 853 855 862 
f 858 853 862 
f 851 858 862 
f 854 849 863 
f 851 854 863 
f 858 851 863 
f 859 858 863 
f 847 858 864 
f 858 859 864 
f 861 847 864 
f 859 861 864 
f 857 858 865 
f 858 847 865 
f 861 857 865 
f 847 861 865 
f 849 856 866 
f 856 861 866 
f 861 859 866 
f 863 849 866 
o convex_42
v -0.029316 0.027372 0.014543
v -0.016319 0.036037 0.012917
v -0.016319 0.036037 0.010750
v -0.016319 0.024663 0.010750
v -0.016319 0.024663 0.018332
v -0.024984 0.032786 0.018874
v -0.029857 0.028456 0.010750
v -0.027691 0.024663 0.010750
v -0.024984 0.033869 0.010750
v -0.027149 0.027372 0.017249
v -0.021737 0.032786 0.018874
v -0.026609 0.031161 0.018874
v -0.027691 0.025747 0.015082
v -0.025525 0.028456 0.018874
f 878 876 880 
f 869 868 870 
f 870 868 871 
f 869 870 873 
f 867 873 874 
f 870 871 874 
f 873 870 874 
f 868 869 875 
f 872 868 875 
f 869 873 875 
f 871 868 877 
f 868 872 877 
f 877 872 878 
f 873 867 878 
f 872 875 878 
f 875 873 878 
f 867 876 878 
f 867 874 879 
f 874 871 879 
f 871 876 879 
f 876 867 879 
f 876 871 880 
f 871 877 880 
f 877 878 880 
o convex_43
v -0.025525 0.028997 0.018874
v -0.017945 0.037661 0.026999
v -0.017945 0.037661 0.023749
v -0.026068 0.031705 0.019417
v -0.021735 0.030622 0.018874
v -0.017945 0.034412 0.026456
v -0.021194 0.037119 0.026999
v -0.024442 0.033329 0.018874
v -0.021194 0.035494 0.026999
v -0.020652 0.037661 0.024290
f 883 888 890 
f 885 883 886 
f 883 882 886 
f 881 885 886 
f 881 884 888 
f 885 881 888 
f 883 885 888 
f 884 881 889 
f 886 882 889 
f 881 886 889 
f 882 887 889 
f 887 884 889 
f 882 883 890 
f 887 882 890 
f 884 887 890 
f 888 884 890 
o convex_44
v 0.005346 0.032248 -0.003332
v 0.006430 0.031165 0.012375
v 0.005346 0.031165 0.012375
v 0.009137 0.044161 0.009666
v 0.009137 0.028997 -0.000621
v 0.003721 0.039287 0.006957
v 0.003721 0.024663 -0.001705
v 0.009679 0.029537 0.010750
v 0.003721 0.024663 0.011291
v 0.009679 0.044161 0.005873
v 0.006430 0.024663 -0.003332
v 0.003721 0.033332 -0.003332
v 0.003721 0.037660 0.011291
v 0.009137 0.036034 -0.000621
v 0.006430 0.024663 0.006957
v 0.009679 0.038202 0.011291
v 0.003721 0.037660 0.001002
v 0.009137 0.029537 0.011832
v 0.009679 0.032248 0.004790
v 0.005346 0.039827 0.011291
f 906 894 910 
f 892 893 899 
f 896 897 899 
f 896 894 900 
f 895 898 901 
f 899 897 901 
f 897 896 902 
f 891 901 902 
f 901 897 902 
f 899 893 903 
f 896 899 903 
f 901 891 904 
f 895 901 904 
f 891 902 904 
f 902 900 904 
f 901 898 905 
f 899 901 905 
f 900 894 906 
f 898 900 906 
f 896 900 907 
f 902 896 907 
f 900 902 907 
f 892 899 908 
f 905 898 908 
f 899 905 908 
f 906 892 908 
f 898 906 908 
f 898 895 909 
f 900 898 909 
f 895 904 909 
f 904 900 909 
f 893 892 910 
f 894 896 910 
f 903 893 910 
f 896 903 910 
f 892 906 910 
o convex_45
v 0.014013 0.047952 0.008043
v 0.009679 0.030079 0.005876
v 0.010221 0.030079 0.005876
v 0.009679 0.031164 0.011833
v 0.019970 0.040909 0.008043
v 0.009679 0.044161 0.005876
v 0.019970 0.042535 0.005876
v 0.009679 0.043618 0.010208
v 0.015636 0.037664 0.010749
v 0.009679 0.033873 0.004792
v 0.014555 0.047952 0.005876
v 0.011305 0.031164 0.010208
v 0.019970 0.040909 0.005876
v 0.019970 0.042535 0.008043
v 0.012929 0.048494 0.007501
f 921 916 925 
f 912 913 914 
f 912 914 916 
f 916 914 918 
f 911 918 919 
f 918 914 919 
f 913 912 920 
f 912 916 920 
f 917 920 921 
f 920 916 921 
f 914 913 922 
f 915 919 922 
f 919 914 922 
f 917 915 923 
f 913 920 923 
f 920 917 923 
f 922 913 923 
f 915 922 923 
f 915 917 924 
f 911 919 924 
f 919 915 924 
f 917 921 924 
f 921 911 924 
f 918 911 925 
f 916 918 925 
f 911 921 925 
o convex_46
v -0.020112 -0.027333 -0.008207
v -0.036899 -0.033291 -0.014705
v -0.036355 -0.033832 -0.015247
v -0.014696 -0.015417 -0.016873
v -0.022820 -0.015417 -0.008207
v -0.014696 -0.030037 -0.014164
v -0.027693 -0.015417 -0.016331
v -0.014696 -0.015417 -0.008207
v -0.028775 -0.039249 -0.014705
v -0.035273 -0.031121 -0.011999
v -0.016863 -0.026794 -0.016873
v -0.028234 -0.038164 -0.011999
v -0.014696 -0.024629 -0.008207
v -0.029857 -0.021375 -0.016873
v -0.030942 -0.028413 -0.009833
v -0.028234 -0.015417 -0.014164
v -0.022279 -0.032206 -0.009290
v -0.014696 -0.030037 -0.012540
v -0.014696 -0.027872 -0.016331
v -0.030942 -0.039249 -0.013080
v -0.032565 -0.037082 -0.015247
v -0.030398 -0.025171 -0.009833
v -0.026067 -0.033832 -0.009833
v -0.023902 -0.024629 -0.008207
v -0.035814 -0.033291 -0.012540
f 945 948 950 
f 930 929 932 
f 930 926 933 
f 929 930 933 
f 931 929 933 
f 933 926 938 
f 931 933 938 
f 928 927 939 
f 927 932 939 
f 932 929 939 
f 929 936 939 
f 932 927 941 
f 930 932 941 
f 927 935 941 
f 938 926 942 
f 934 931 943 
f 937 934 943 
f 931 938 943 
f 942 937 943 
f 938 942 943 
f 929 931 944 
f 931 934 944 
f 936 929 944 
f 934 936 944 
f 927 928 945 
f 934 937 945 
f 936 934 946 
f 928 939 946 
f 939 936 946 
f 945 928 946 
f 934 945 946 
f 940 930 947 
f 935 940 947 
f 930 941 947 
f 941 935 947 
f 937 942 948 
f 942 926 948 
f 945 937 948 
f 926 930 949 
f 930 940 949 
f 948 926 949 
f 940 948 949 
f 935 927 950 
f 940 935 950 
f 927 945 950 
f 948 940 950 
o convex_47
v -0.019570 -0.029500 -0.005499
v -0.028235 -0.022997 -0.006041
v -0.027691 -0.022997 -0.006582
v -0.014694 -0.015417 -0.005499
v -0.014694 -0.024082 -0.008207
v -0.022816 -0.015417 -0.008207
v -0.022276 -0.026791 -0.008207
v -0.022816 -0.015417 -0.005499
v -0.014694 -0.015417 -0.008207
v -0.014694 -0.022997 -0.005499
v -0.026610 -0.026249 -0.005499
v -0.028235 -0.021376 -0.005499
f 952 961 962 
f 955 951 957 
f 953 956 957 
f 956 955 957 
f 951 954 958 
f 954 956 958 
f 954 955 959 
f 955 956 959 
f 956 954 959 
f 954 951 960 
f 951 955 960 
f 955 954 960 
f 952 953 961 
f 957 951 961 
f 953 957 961 
f 951 958 961 
f 961 958 962 
f 953 952 962 
f 956 953 962 
f 958 956 962 
o convex_48
v -0.015779 -0.035999 0.004251
v -0.022818 -0.040331 -0.003874
v -0.023358 -0.041956 -0.003331
v -0.014694 -0.037625 -0.003331
v -0.021735 -0.035457 -0.001707
v -0.023358 -0.043040 -0.000081
v -0.024443 -0.038708 -0.000081
v -0.016319 -0.035457 -0.003874
v -0.014694 -0.037625 0.003166
v -0.021193 -0.042498 -0.002248
v -0.014694 -0.035457 0.004251
v -0.023901 -0.038708 -0.003331
f 967 970 974 
f 965 964 966 
f 963 967 969 
f 965 968 969 
f 968 963 969 
f 966 964 970 
f 963 968 971 
f 971 968 972 
f 965 966 972 
f 968 965 972 
f 966 971 972 
f 967 963 973 
f 966 970 973 
f 970 967 973 
f 963 971 973 
f 971 966 973 
f 964 965 974 
f 965 969 974 
f 969 967 974 
f 970 964 974 
o convex_49
v -0.028776 -0.031123 -0.005499
v -0.014694 -0.016501 0.007500
v -0.015779 -0.021375 0.011292
v -0.036358 -0.016501 0.003166
v -0.014694 -0.016501 -0.005499
v -0.014694 -0.035457 0.004792
v -0.028776 -0.031663 0.008041
v -0.035815 -0.016501 -0.004414
v -0.014694 -0.035457 -0.003331
v -0.030399 -0.033830 -0.000082
v -0.026607 -0.016501 0.009666
v -0.037442 -0.021375 -0.002248
v -0.014694 -0.028955 0.010207
v -0.031484 -0.028955 0.007500
v -0.022278 -0.023003 0.011292
v -0.024986 -0.035457 0.002627
v -0.017404 -0.028415 -0.005499
v -0.026068 -0.033830 0.006958
v -0.031484 -0.032748 0.002627
v -0.021737 -0.016501 0.010749
v -0.028776 -0.021375 -0.005499
v -0.020112 -0.035457 -0.003331
v -0.037442 -0.021375 -0.000082
v -0.036358 -0.022461 -0.003873
v -0.026607 -0.025168 0.010207
v -0.028230 -0.016501 0.009124
v -0.027150 -0.032206 -0.005499
v -0.023906 -0.027872 0.010207
v -0.030943 -0.033288 -0.000624
v -0.026068 -0.034916 -0.001707
f 984 1003 1004 
f 978 976 979 
f 979 976 980 
f 978 979 982 
f 979 980 983 
f 976 978 985 
f 978 982 986 
f 976 977 987 
f 980 976 987 
f 987 977 989 
f 983 980 990 
f 975 979 991 
f 979 983 991 
f 980 987 992 
f 987 981 992 
f 990 980 992 
f 990 992 993 
f 981 988 993 
f 984 990 993 
f 992 981 993 
f 977 976 994 
f 976 985 994 
f 989 977 994 
f 985 989 994 
f 979 975 995 
f 975 982 995 
f 982 979 995 
f 983 990 996 
f 978 986 997 
f 988 978 997 
f 986 993 997 
f 993 988 997 
f 982 975 998 
f 986 982 998 
f 988 981 999 
f 989 985 999 
f 985 978 1000 
f 978 988 1000 
f 988 999 1000 
f 999 985 1000 
f 975 991 1001 
f 991 983 1001 
f 983 996 1001 
f 981 987 1002 
f 987 989 1002 
f 999 981 1002 
f 989 999 1002 
f 984 993 1003 
f 993 986 1003 
f 998 975 1003 
f 986 998 1003 
f 975 1001 1003 
f 1003 1001 1004 
f 990 984 1004 
f 996 990 1004 
f 1001 996 1004 
o convex_50
v -0.026606 -0.013250 0.011833
v -0.037441 -0.012167 -0.005499
v -0.035816 -0.016501 -0.004414
v -0.014694 -0.005668 -0.005499
v -0.014694 -0.016501 -0.005499
v -0.037984 -0.005668 0.004789
v -0.014694 -0.008919 0.010208
v -0.014694 -0.016501 0.006957
v -0.022279 -0.005668 0.010749
v -0.036356 -0.016501 0.003167
v -0.037441 -0.005668 -0.004414
v -0.033108 -0.009460 0.011833
v -0.029859 -0.015959 0.010749
v -0.014694 -0.005668 0.006416
v -0.022279 -0.016501 0.010208
v -0.034188 -0.011624 0.010749
v -0.032022 -0.005668 -0.005499
v -0.029859 -0.005668 0.009667
v -0.014694 -0.011084 0.010208
v -0.036899 -0.013792 0.004789
v -0.029859 -0.014875 0.011833
f 1020 1017 1025 
f 1007 1006 1009 
f 1006 1008 1009 
f 1009 1008 1011 
f 1009 1011 1012 
f 1007 1009 1012 
f 1008 1010 1013 
f 1005 1011 1013 
f 1006 1007 1014 
f 1007 1012 1014 
f 1006 1010 1015 
f 1010 1008 1015 
f 1005 1013 1016 
f 1011 1008 1018 
f 1008 1013 1018 
f 1013 1011 1018 
f 1014 1012 1019 
f 1017 1014 1019 
f 1016 1010 1020 
f 1014 1017 1020 
f 1008 1006 1021 
f 1006 1015 1021 
f 1015 1008 1021 
f 1013 1010 1022 
f 1016 1013 1022 
f 1010 1016 1022 
f 1011 1005 1023 
f 1012 1011 1023 
f 1005 1019 1023 
f 1019 1012 1023 
f 1010 1006 1024 
f 1006 1014 1024 
f 1020 1010 1024 
f 1014 1020 1024 
f 1005 1016 1025 
f 1019 1005 1025 
f 1017 1019 1025 
f 1016 1020 1025 
o convex_51
v -0.031482 0.001915 0.008041
v -0.031482 -0.002418 -0.005499
v -0.031482 -0.001336 -0.005499
v -0.014694 -0.005668 0.005875
v -0.014694 0.001915 -0.005499
v -0.037984 -0.005668 0.005331
v -0.014694 0.001915 0.011290
v -0.014694 -0.005668 -0.005499
v -0.035816 0.001915 -0.004414
v -0.022819 -0.005126 0.011290
v -0.036899 -0.005668 -0.003873
v -0.036899 0.000830 0.004791
v -0.020653 0.001915 0.012375
v -0.037441 -0.001336 -0.004414
v -0.029859 -0.005668 0.009124
v -0.030399 -0.005668 -0.005499
v -0.021196 -0.005668 0.010750
v -0.034188 0.001915 0.006957
v -0.027689 0.001915 -0.005499
f 1034 1030 1044 
f 1027 1028 1030 
f 1030 1026 1032 
f 1029 1030 1032 
f 1030 1029 1033 
f 1027 1030 1033 
f 1029 1031 1033 
f 1026 1030 1034 
f 1033 1031 1036 
f 1032 1026 1038 
f 1035 1032 1038 
f 1028 1027 1039 
f 1034 1028 1039 
f 1036 1031 1039 
f 1031 1037 1039 
f 1037 1034 1039 
f 1031 1029 1040 
f 1038 1026 1040 
f 1035 1038 1040 
f 1027 1033 1041 
f 1033 1036 1041 
f 1039 1027 1041 
f 1036 1039 1041 
f 1029 1032 1042 
f 1032 1035 1042 
f 1040 1029 1042 
f 1035 1040 1042 
f 1026 1034 1043 
f 1037 1031 1043 
f 1034 1037 1043 
f 1040 1026 1043 
f 1031 1040 1043 
f 1030 1028 1044 
f 1028 1034 1044 
o convex_52
v -0.007655 -0.039789 -0.010372
v -0.002778 -0.031124 0.007500
v -0.002778 -0.033292 0.007500
v -0.014694 -0.031124 0.006415
v -0.007112 -0.031124 -0.010913
v -0.014694 -0.037623 0.003708
v -0.002778 -0.038706 -0.006039
v -0.014694 -0.031124 -0.003331
v -0.002778 -0.037623 0.006415
v -0.009818 -0.032750 0.011292
v -0.002778 -0.032209 -0.008205
v -0.010902 -0.037081 -0.010372
v -0.006029 -0.040331 -0.005498
v -0.014694 -0.037623 -0.003331
v -0.002778 -0.037623 -0.010372
v -0.007112 -0.031124 0.011292
v -0.011443 -0.037623 0.005874
v -0.008736 -0.040331 -0.009290
v -0.010361 -0.033833 -0.010913
v -0.008736 -0.038165 -0.011456
v -0.013068 -0.031667 0.009666
v -0.002778 -0.031124 -0.007123
v -0.004946 -0.040331 -0.008205
v -0.010361 -0.036540 0.008041
f 1054 1065 1068 
f 1048 1046 1049 
f 1046 1047 1051 
f 1048 1049 1052 
f 1050 1048 1052 
f 1051 1047 1053 
f 1046 1051 1055 
f 1050 1052 1058 
f 1052 1056 1058 
f 1049 1055 1059 
f 1055 1051 1059 
f 1047 1046 1060 
f 1046 1048 1060 
f 1053 1047 1060 
f 1054 1053 1060 
f 1050 1057 1061 
f 1057 1053 1061 
f 1057 1050 1062 
f 1050 1058 1062 
f 1058 1056 1062 
f 1052 1049 1063 
f 1056 1052 1063 
f 1059 1045 1064 
f 1049 1059 1064 
f 1045 1062 1064 
f 1062 1056 1064 
f 1063 1049 1064 
f 1056 1063 1064 
f 1048 1050 1065 
f 1060 1048 1065 
f 1054 1060 1065 
f 1049 1046 1066 
f 1055 1049 1066 
f 1046 1055 1066 
f 1051 1053 1067 
f 1053 1057 1067 
f 1045 1059 1067 
f 1059 1051 1067 
f 1062 1045 1067 
f 1057 1062 1067 
f 1053 1054 1068 
f 1050 1061 1068 
f 1061 1053 1068 
f 1065 1050 1068 
o convex_53
v -0.014694 -0.029498 -0.014161
v -0.008736 -0.008383 0.012914
v -0.011985 -0.008383 0.012914
v -0.014694 0.001915 -0.016327
v -0.002778 -0.031124 -0.015785
v -0.002778 0.001915 -0.015785
v -0.002778 -0.029498 0.009663
v -0.014694 -0.029498 0.011287
v -0.002778 0.001915 0.004791
v -0.014694 0.001915 0.010205
v -0.012527 -0.031124 0.011829
v -0.014694 -0.022457 -0.016867
v -0.002778 -0.019750 0.011832
v -0.003321 -0.014340 -0.016873
v -0.014694 -0.031124 -0.003329
v -0.005487 -0.031124 0.010747
v -0.007654 -0.025707 0.012914
v -0.009278 -0.031124 -0.015785
v -0.013611 -0.013256 0.012914
v -0.013611 -0.004589 -0.016867
v -0.002778 -0.031124 0.007496
v -0.013611 -0.030041 0.012371
v -0.007654 -0.009463 0.012914
v -0.014694 -0.028958 -0.015785
v -0.008736 -0.021914 -0.016867
f 1080 1082 1093 
f 1073 1074 1075 
f 1072 1069 1076 
f 1074 1072 1077 
f 1075 1074 1077 
f 1071 1070 1078 
f 1072 1076 1078 
f 1070 1077 1078 
f 1077 1072 1078 
f 1069 1072 1080 
f 1075 1077 1081 
f 1074 1073 1082 
f 1076 1069 1083 
f 1073 1079 1083 
f 1079 1076 1083 
f 1079 1073 1084 
f 1075 1081 1084 
f 1084 1081 1085 
f 1070 1071 1085 
f 1080 1073 1086 
f 1083 1069 1086 
f 1073 1083 1086 
f 1071 1078 1087 
f 1078 1076 1087 
f 1085 1071 1087 
f 1072 1074 1088 
f 1080 1072 1088 
f 1074 1082 1088 
f 1082 1080 1088 
f 1073 1075 1089 
f 1084 1073 1089 
f 1075 1084 1089 
f 1076 1079 1090 
f 1079 1084 1090 
f 1084 1085 1090 
f 1087 1076 1090 
f 1085 1087 1090 
f 1077 1070 1091 
f 1081 1077 1091 
f 1085 1081 1091 
f 1070 1085 1091 
f 1069 1080 1092 
f 1086 1069 1092 
f 1080 1086 1092 
f 1073 1080 1093 
f 1082 1073 1093 
o convex_54
v 0.018345 0.001915 0.006959
v 0.022677 0.002998 0.015083
v 0.022136 0.002998 0.015083
v 0.018887 0.013289 0.006959
v 0.024844 0.001915 0.006959
v 0.024844 0.007871 0.007501
v 0.018887 0.001915 0.013458
v 0.018345 0.012746 0.008584
v 0.024844 0.001915 0.013458
f 1100 1098 1102 
f 1094 1097 1098 
f 1098 1097 1099 
f 1095 1096 1100 
f 1094 1098 1100 
f 1096 1095 1101 
f 1097 1094 1101 
f 1095 1099 1101 
f 1099 1097 1101 
f 1100 1096 1101 
f 1094 1100 1101 
f 1099 1095 1102 
f 1098 1099 1102 
f 1095 1100 1102 
o convex_55
v -0.014692 0.017622 -0.016330
v 0.001013 0.024663 -0.012538
v 0.001013 0.024663 -0.015788
v 0.006971 0.013289 -0.015788
v -0.015236 0.013289 -0.007665
v 0.006971 0.013289 -0.007665
v -0.003324 0.023037 -0.007665
v 0.006971 0.023037 -0.013622
v -0.014151 0.013289 -0.016330
v -0.009819 0.021954 -0.014164
v -0.015236 0.017082 -0.007665
v 0.002636 0.022495 -0.007665
v 0.003178 0.023578 -0.016330
v -0.015236 0.014914 -0.016873
v -0.004400 0.024121 -0.016330
v 0.006971 0.017082 -0.007665
v 0.006971 0.020870 -0.015788
v -0.001696 0.024663 -0.011999
v 0.000469 0.023578 -0.007665
v -0.012527 0.019245 -0.016873
f 1112 1117 1122 
f 1107 1106 1108 
f 1107 1108 1109 
f 1105 1104 1110 
f 1108 1106 1110 
f 1106 1107 1111 
f 1109 1112 1113 
f 1107 1109 1113 
f 1112 1103 1113 
f 1109 1108 1114 
f 1105 1110 1115 
f 1106 1111 1116 
f 1111 1107 1116 
f 1113 1103 1116 
f 1107 1113 1116 
f 1115 1106 1116 
f 1105 1115 1117 
f 1108 1110 1118 
f 1114 1108 1118 
f 1110 1114 1118 
f 1110 1106 1119 
f 1115 1110 1119 
f 1106 1115 1119 
f 1104 1105 1120 
f 1112 1109 1120 
f 1105 1117 1120 
f 1117 1112 1120 
f 1110 1104 1121 
f 1109 1114 1121 
f 1114 1110 1121 
f 1104 1120 1121 
f 1120 1109 1121 
f 1103 1112 1122 
f 1116 1103 1122 
f 1115 1116 1122 
f 1117 1115 1122 
o convex_56
v -0.018486 0.048494 -0.000083
v -0.023902 0.040914 0.001001
v -0.023902 0.040914 0.002084
v -0.016319 0.034412 -0.003874
v -0.023902 0.048494 -0.004415
v -0.016319 0.034412 0.002626
v -0.023360 0.034412 -0.004415
v -0.016319 0.048494 -0.003874
v -0.023902 0.048494 0.002626
v -0.016319 0.044702 0.002626
v -0.022817 0.034412 0.002626
v -0.017403 0.039829 -0.004415
f 1130 1126 1134 
f 1124 1125 1127 
f 1126 1128 1129 
f 1125 1124 1129 
f 1124 1127 1129 
f 1127 1123 1130 
f 1128 1126 1130 
f 1123 1127 1131 
f 1127 1125 1131 
f 1131 1128 1132 
f 1130 1123 1132 
f 1128 1130 1132 
f 1123 1131 1132 
f 1129 1128 1133 
f 1125 1129 1133 
f 1131 1125 1133 
f 1128 1131 1133 
f 1126 1129 1134 
f 1129 1127 1134 
f 1127 1130 1134 
o convex_57
v -0.004945 0.001915 0.003709
v 0.017257 0.019246 0.003709
v 0.022135 0.017621 0.004792
v 0.024844 0.001915 -0.004415
v -0.004945 0.019246 -0.004415
v 0.024844 0.001915 0.006959
v -0.004945 0.019246 0.006959
v -0.004945 0.001915 -0.004415
v 0.013469 0.018702 -0.004415
v -0.004945 0.006249 0.006959
v 0.012927 0.019246 0.006959
v 0.022678 0.017080 0.000460
v 0.024844 0.007873 0.006959
v 0.003721 0.001915 0.006959
v 0.024844 0.007873 -0.002790
v 0.017802 0.014371 -0.004415
v 0.016178 0.019246 -0.000082
f 1146 1143 1151 
f 1135 1138 1140 
f 1139 1135 1141 
f 1136 1139 1141 
f 1138 1135 1142 
f 1135 1139 1142 
f 1139 1138 1142 
f 1138 1139 1143 
f 1141 1135 1144 
f 1140 1141 1144 
f 1137 1136 1145 
f 1136 1141 1145 
f 1141 1140 1145 
f 1136 1137 1146 
f 1140 1138 1147 
f 1137 1145 1147 
f 1145 1140 1147 
f 1146 1137 1147 
f 1135 1140 1148 
f 1144 1135 1148 
f 1140 1144 1148 
f 1147 1138 1149 
f 1146 1147 1149 
f 1138 1143 1150 
f 1143 1146 1150 
f 1149 1138 1150 
f 1146 1149 1150 
f 1139 1136 1151 
f 1143 1139 1151 
f 1136 1146 1151 
o convex_58
v -0.046108 0.030079 -0.004415
v -0.023904 0.048494 0.002626
v -0.023904 0.041452 0.002626
v -0.023904 0.048494 -0.004415
v -0.037442 0.045241 0.001542
v -0.034738 0.048494 -0.004415
v -0.029319 0.035498 -0.004415
v -0.041772 0.030621 -0.000626
v -0.045021 0.039285 -0.003874
v -0.037442 0.038205 0.002626
v -0.024445 0.040370 -0.004415
v -0.043398 0.036037 -0.001164
v -0.028236 0.036039 -0.001707
v -0.027695 0.048494 0.002626
v -0.033112 0.037123 0.002626
v -0.043398 0.029537 -0.003874
v -0.041772 0.043076 -0.004415
v -0.033653 0.048494 -0.000626
v -0.042315 0.031705 -0.000083
f 1166 1161 1170 
f 1153 1154 1155 
f 1153 1155 1157 
f 1155 1152 1157 
f 1152 1155 1158 
f 1154 1153 1161 
f 1155 1154 1162 
f 1158 1155 1162 
f 1156 1160 1163 
f 1160 1152 1163 
f 1161 1156 1163 
f 1162 1154 1164 
f 1158 1162 1164 
f 1153 1157 1165 
f 1161 1153 1165 
f 1156 1161 1165 
f 1154 1161 1166 
f 1164 1154 1166 
f 1159 1164 1166 
f 1152 1158 1167 
f 1159 1152 1167 
f 1164 1159 1167 
f 1158 1164 1167 
f 1156 1157 1168 
f 1157 1152 1168 
f 1160 1156 1168 
f 1152 1160 1168 
f 1157 1156 1169 
f 1165 1157 1169 
f 1156 1165 1169 
f 1152 1159 1170 
f 1163 1152 1170 
f 1161 1163 1170 
f 1159 1166 1170 
