o convex_0
v -0.004631 -0.000618 0.032609
v 0.005497 -0.030332 -0.032896
v 0.005497 0.030428 -0.032896
v 0.014952 0.003421 0.027871
v -0.006658 -0.023574 -0.026137
v -0.005981 0.028405 -0.002503
v 0.014952 -0.030332 -0.005876
v 0.014952 0.030440 -0.030869
v -0.006658 -0.018851 0.016393
v 0.014952 0.017603 0.018419
v -0.006658 0.023004 -0.026137
v 0.014952 -0.030332 -0.030863
v 0.014952 -0.012771 0.023818
v -0.005981 -0.028303 -0.002503
v -0.006658 0.016252 0.020445
v 0.012249 0.030428 -0.004529
v -0.003956 0.030428 -0.022085
v -0.003956 -0.030332 -0.022085
v -0.001253 0.002749 0.032609
v 0.010899 -0.030332 -0.032889
v -0.006658 -0.012771 0.023825
v 0.014952 -0.016822 0.019772
v 0.004147 -0.030332 -0.004523
v -0.001253 -0.002647 0.032609
v 0.014952 0.030440 -0.005882
v 0.002123 0.030428 -0.031536
v 0.014952 0.012873 0.023818
v 0.010899 0.030428 -0.032889
v 0.002123 -0.030332 -0.031536
v 0.004147 0.030428 -0.004523
v -0.006658 0.001398 0.029903
v 0.014952 -0.006020 0.027197
v -0.006658 0.012873 0.023825
v -0.006658 0.017603 0.018426
v 0.012249 -0.030332 -0.004529
v 0.012926 -0.030332 -0.032216
v -0.005981 0.028405 -0.018706
v -0.005981 -0.028303 -0.018706
v -0.003279 0.030428 -0.012627
v -0.003279 -0.030332 -0.012627
v -0.006658 -0.016822 0.019772
v 0.014275 0.030428 -0.031536
v 0.014952 0.008150 0.026524
v -0.001928 0.030428 -0.027490
v 0.014952 -0.018851 0.016400
v -0.005306 0.002071 0.031929
v -0.001928 -0.030332 -0.027490
v 0.000097 -0.001296 0.032609
v 0.014952 -0.003319 0.027871
v -0.006658 0.020303 0.011668
v 0.003473 0.030428 -0.032216
v -0.005306 -0.001968 0.031929
v 0.014952 0.016252 0.020445
f 34 15 53 
f 4 7 8 
f 4 8 10 
f 5 9 11 
f 7 2 12 
f 8 7 12 
f 7 4 13 
f 9 5 14 
f 11 9 15 
f 2 7 18 
f 2 3 20 
f 12 2 20 
f 15 9 21 
f 7 13 22 
f 13 21 22 
f 9 14 23 
f 18 7 23 
f 19 1 24 
f 21 13 24 
f 10 8 25 
f 16 10 25 
f 8 17 25 
f 5 11 26 
f 4 10 27 
f 3 8 28 
f 20 3 28 
f 2 18 29 
f 5 26 29 
f 10 16 30 
f 16 25 30 
f 15 21 31 
f 13 4 32 
f 24 13 32 
f 19 27 33 
f 15 31 33 
f 11 15 34 
f 10 30 34 
f 30 6 34 
f 23 7 35 
f 12 20 36 
f 20 28 36 
f 11 6 37 
f 17 11 37 
f 6 17 37 
f 14 5 38 
f 5 18 38 
f 18 14 38 
f 17 6 39 
f 25 17 39 
f 6 30 39 
f 30 25 39 
f 14 18 40 
f 23 14 40 
f 18 23 40 
f 21 9 41 
f 22 21 41 
f 8 12 42 
f 28 8 42 
f 12 36 42 
f 36 28 42 
f 19 4 43 
f 4 27 43 
f 27 19 43 
f 17 8 44 
f 11 17 44 
f 8 26 44 
f 26 11 44 
f 7 22 45 
f 9 23 45 
f 35 7 45 
f 23 35 45 
f 41 9 45 
f 22 41 45 
f 1 19 46 
f 19 33 46 
f 33 31 46 
f 18 5 47 
f 29 18 47 
f 5 29 47 
f 4 19 48 
f 19 24 48 
f 24 32 48 
f 48 32 49 
f 32 4 49 
f 4 48 49 
f 6 11 50 
f 34 6 50 
f 11 34 50 
f 3 2 51 
f 8 3 51 
f 26 8 51 
f 2 29 51 
f 29 26 51 
f 24 1 52 
f 21 24 52 
f 31 21 52 
f 1 46 52 
f 46 31 52 
f 27 10 53 
f 15 33 53 
f 33 27 53 
f 10 34 53 
o convex_1
v 0.043313 0.030434 -0.008579
v 0.014952 -0.030338 -0.030188
v 0.014952 0.030434 -0.030188
v 0.014952 0.028411 0.042063
v 0.046016 -0.028309 0.042063
v 0.043988 -0.030332 -0.027488
v 0.014952 -0.028309 0.042063
v 0.046016 0.028411 0.042063
v 0.046016 0.030440 -0.022088
v 0.036563 0.030434 -0.032896
v 0.046016 -0.030332 -0.014662
v 0.031156 -0.030332 -0.032896
v 0.014952 -0.030338 -0.006554
v 0.038588 -0.030332 -0.032213
v 0.043988 0.030434 -0.027488
v 0.014952 0.030434 -0.006554
v 0.046016 -0.030332 -0.022088
v 0.031156 0.030434 -0.032896
v 0.039938 0.030434 -0.031538
v 0.037913 -0.030332 -0.004529
v 0.037913 0.030434 -0.004529
v 0.036560 -0.030332 -0.032896
v 0.045338 -0.030332 -0.024788
v 0.039938 -0.030332 -0.031538
v 0.045338 0.030434 -0.024788
f 62 76 78 
f 56 55 57 
f 57 55 60 
f 58 57 60 
f 57 58 61 
f 54 61 62 
f 61 58 62 
f 62 58 64 
f 55 56 65 
f 60 55 66 
f 55 64 66 
f 56 57 69 
f 62 56 69 
f 64 55 70 
f 62 64 70 
f 56 62 71 
f 62 63 71 
f 65 56 71 
f 63 65 71 
f 63 62 72 
f 67 63 72 
f 68 59 72 
f 62 68 72 
f 58 60 73 
f 64 58 73 
f 60 66 73 
f 66 64 73 
f 61 54 74 
f 57 61 74 
f 54 62 74 
f 69 57 74 
f 62 69 74 
f 55 65 75 
f 65 63 75 
f 67 55 75 
f 63 67 75 
f 55 59 76 
f 59 68 76 
f 70 55 76 
f 62 70 76 
f 59 55 77 
f 55 67 77 
f 72 59 77 
f 67 72 77 
f 68 62 78 
f 76 68 78 
o convex_2
v -0.031646 0.025034 -0.030869
v -0.077562 -0.015471 -0.032895
v -0.076886 -0.016148 -0.032895
v -0.073509 -0.012771 -0.026143
v -0.030295 -0.025608 -0.026143
v -0.056630 0.025034 -0.026143
v -0.034348 -0.025608 -0.032895
v -0.076886 0.016257 -0.032895
v -0.030295 0.025034 -0.026143
v -0.055279 0.029759 -0.032895
v -0.055955 -0.030332 -0.032219
v -0.073509 0.012880 -0.026143
v -0.056630 -0.025608 -0.026143
v -0.034348 0.025034 -0.032895
v -0.030970 -0.025608 -0.029519
v -0.077562 -0.015471 -0.031544
v -0.056630 0.029759 -0.031544
v -0.077562 0.014904 -0.031544
v -0.055279 -0.030332 -0.032895
v -0.032321 -0.025608 -0.031544
v -0.030295 0.025034 -0.027494
v -0.075535 0.016933 -0.031544
v -0.030295 -0.025608 -0.027494
f 93 99 101 
f 82 83 84 
f 81 80 85 
f 85 80 86 
f 84 83 87 
f 85 86 88 
f 82 84 90 
f 83 82 91 
f 89 83 91 
f 88 79 92 
f 85 88 92 
f 80 81 94 
f 81 89 94 
f 82 90 94 
f 91 82 94 
f 89 91 94 
f 84 87 95 
f 87 88 95 
f 88 86 95 
f 86 80 96 
f 80 94 96 
f 94 90 96 
f 81 85 97 
f 89 81 97 
f 83 89 97 
f 93 97 98 
f 92 79 98 
f 85 92 98 
f 79 93 98 
f 97 85 98 
f 87 83 99 
f 88 87 99 
f 79 88 99 
f 93 79 99 
f 90 84 100 
f 84 95 100 
f 95 86 100 
f 86 96 100 
f 96 90 100 
f 83 97 101 
f 97 93 101 
f 99 83 101 
o convex_3
v -0.071484 -0.013454 -0.026141
v -0.030296 0.025037 -0.023439
v -0.030296 0.025037 -0.026141
v -0.006658 -0.023583 -0.011287
v -0.056629 0.023005 -0.011287
v -0.006658 -0.023583 -0.026141
v -0.006658 0.023010 -0.011287
v -0.056629 -0.023583 -0.011287
v -0.072837 0.012197 -0.026141
v -0.006658 0.023010 -0.026141
v -0.060678 -0.004674 -0.009262
v -0.056629 -0.025611 -0.026141
v -0.006658 0.011528 -0.009262
v -0.056629 0.025037 -0.026141
v -0.006658 -0.011422 -0.009262
v -0.060678 0.004096 -0.009262
v -0.035018 -0.025611 -0.018038
v -0.072157 -0.011427 -0.024115
v -0.051900 0.025037 -0.018038
v -0.056629 0.011523 -0.009262
v -0.056629 -0.011427 -0.009262
v -0.030296 -0.025611 -0.026141
v -0.072157 0.011523 -0.024115
v -0.062706 -0.005348 -0.011287
v -0.051900 -0.025611 -0.018038
v -0.035018 0.025037 -0.018038
v -0.062706 0.004770 -0.011287
v -0.056629 0.025037 -0.022763
v -0.056629 -0.025611 -0.022763
v -0.072837 -0.012101 -0.025465
v -0.071484 0.013555 -0.025465
f 129 115 132 
f 102 104 107 
f 105 107 108 
f 104 103 108 
f 104 102 110 
f 107 104 111 
f 108 107 111 
f 104 108 111 
f 102 107 113 
f 105 108 114 
f 108 106 114 
f 103 104 115 
f 104 110 115 
f 105 114 116 
f 114 112 116 
f 112 114 117 
f 105 109 118 
f 106 108 120 
f 103 115 120 
f 114 106 121 
f 106 117 121 
f 117 114 121 
f 109 105 122 
f 112 109 122 
f 105 116 122 
f 116 112 122 
f 107 105 123 
f 113 107 123 
f 105 118 123 
f 118 113 123 
f 124 119 125 
f 109 112 125 
f 112 117 125 
f 119 109 125 
f 118 109 126 
f 113 118 126 
f 108 103 127 
f 103 120 127 
f 120 108 127 
f 117 106 128 
f 106 124 128 
f 124 125 128 
f 125 117 128 
f 106 120 129 
f 120 115 129 
f 109 102 130 
f 102 113 130 
f 126 109 130 
f 113 126 130 
f 102 109 131 
f 110 102 131 
f 109 119 131 
f 124 110 131 
f 119 124 131 
f 115 110 132 
f 124 106 132 
f 110 124 132 
f 106 129 132 
o convex_4
v -0.006664 0.010855 0.025179
v -0.017464 -0.012101 -0.009260
v -0.039744 -0.013454 -0.008580
v -0.056629 0.017605 -0.003851
v -0.050549 -0.005351 0.032605
v -0.006664 -0.018856 0.016397
v -0.006664 0.012203 -0.009260
v -0.056629 -0.020208 0.002899
v -0.056629 0.019632 0.014373
v -0.006664 0.020310 0.003575
v -0.006664 -0.019530 0.000198
v -0.056629 0.012203 -0.009252
v -0.056629 -0.016829 0.019774
v -0.022869 0.002074 0.032605
v -0.051224 0.004775 0.032605
v -0.056629 -0.012101 -0.009252
v -0.006664 -0.010753 0.025179
v -0.006664 0.017605 0.018422
v -0.006664 -0.013454 -0.008580
v -0.056629 0.012882 0.023823
v -0.056629 -0.020208 0.011672
v -0.056629 0.020310 0.003575
v -0.056629 -0.003324 0.027876
v -0.006664 0.020310 0.011672
v -0.056629 -0.017503 -0.003851
v -0.006664 -0.020208 0.011672
v -0.006664 0.018284 -0.002502
v -0.006664 -0.016829 0.019774
v -0.006664 -0.003324 0.027880
v -0.023544 -0.002650 0.032605
v -0.045824 0.005453 0.032605
v -0.056629 0.016257 0.020450
v -0.006664 0.014904 -0.007227
v -0.006664 0.016257 0.020450
v -0.006664 -0.017503 -0.003855
v -0.006664 -0.020208 0.002899
v -0.006664 0.003426 0.027880
v -0.056629 0.020310 0.011672
v -0.056629 -0.018856 0.016397
v -0.056629 -0.016155 -0.005879
v -0.056629 0.014230 -0.007904
v -0.056629 0.018958 -0.001150
v -0.045149 -0.005351 0.032605
v -0.006664 -0.012101 -0.009260
v -0.052574 0.002752 0.032605
v -0.056629 -0.010753 0.025175
v -0.056629 -0.019530 0.000198
v -0.006664 0.019632 0.014373
v -0.006664 -0.012779 0.023827
v -0.056629 0.003426 0.027876
v -0.006664 0.019632 0.000874
v -0.052574 -0.002650 0.032605
v -0.006664 0.012882 0.023827
v -0.024219 0.002752 0.032605
v -0.006664 -0.015480 -0.006555
v -0.056629 0.017605 0.018422
v -0.006664 0.008154 0.026528
f 186 146 189 
f 133 138 139 
f 136 140 141 
f 133 139 142 
f 139 138 143 
f 139 134 144 
f 140 136 144 
f 141 140 145 
f 137 146 147 
f 134 135 148 
f 144 134 148 
f 140 144 148 
f 138 133 149 
f 133 142 150 
f 135 134 151 
f 139 143 151 
f 141 145 152 
f 145 140 153 
f 136 141 154 
f 152 145 155 
f 150 142 156 
f 142 154 156 
f 140 148 157 
f 143 138 158 
f 138 153 158 
f 153 140 158 
f 142 139 159 
f 137 145 160 
f 145 138 160 
f 138 149 160 
f 149 133 161 
f 149 161 162 
f 146 137 162 
f 161 146 162 
f 147 146 163 
f 141 152 164 
f 152 147 164 
f 147 163 164 
f 136 159 165 
f 159 139 165 
f 133 150 166 
f 150 164 166 
f 164 163 166 
f 151 143 167 
f 140 143 168 
f 143 158 168 
f 158 140 168 
f 161 133 169 
f 146 161 169 
f 154 141 170 
f 141 156 170 
f 156 154 170 
f 138 145 171 
f 153 138 171 
f 145 153 171 
f 148 135 172 
f 157 148 172 
f 167 157 172 
f 139 144 173 
f 144 136 173 
f 165 139 173 
f 136 165 173 
f 136 154 174 
f 159 136 174 
f 137 160 175 
f 162 137 175 
f 134 139 176 
f 151 134 176 
f 139 151 176 
f 137 147 177 
f 147 152 177 
f 145 137 178 
f 155 145 178 
f 143 140 179 
f 140 157 179 
f 167 143 179 
f 157 167 179 
f 141 150 180 
f 150 156 180 
f 156 141 180 
f 160 149 181 
f 149 162 181 
f 175 160 181 
f 162 175 181 
f 152 155 182 
f 177 152 182 
f 155 177 182 
f 154 142 183 
f 142 159 183 
f 174 154 183 
f 159 174 183 
f 137 177 184 
f 177 155 184 
f 178 137 184 
f 155 178 184 
f 133 166 185 
f 166 163 185 
f 163 146 186 
f 133 185 186 
f 185 163 186 
f 135 151 187 
f 151 167 187 
f 172 135 187 
f 167 172 187 
f 150 141 188 
f 141 164 188 
f 164 150 188 
f 169 133 189 
f 146 169 189 
f 133 186 189 
o convex_5
v -0.051225 -0.009400 0.048140
v -0.045151 0.010181 0.051518
v -0.045151 0.010181 0.050166
v -0.039072 -0.003324 0.051518
v -0.043125 0.002750 0.032609
v -0.056630 0.003426 0.051518
v -0.052577 0.002750 0.032609
v -0.046504 -0.006025 0.032609
v -0.044477 -0.010078 0.051518
v -0.052577 -0.003324 0.033286
v -0.055955 -0.005349 0.051518
v -0.039748 0.005451 0.050840
v -0.053253 0.008828 0.050840
v -0.048523 0.006127 0.032609
v -0.043125 -0.003324 0.032609
v -0.044477 0.005451 0.033960
v -0.041100 -0.007376 0.050166
v -0.056630 -0.001972 0.049491
v -0.039072 0.000725 0.048813
v -0.050551 0.010181 0.050166
v -0.050551 -0.005349 0.032609
v -0.052577 -0.009400 0.050840
v -0.051225 0.005451 0.033960
v -0.055278 0.006127 0.049491
v -0.041774 0.008152 0.050166
v -0.053253 0.000725 0.033286
v -0.049199 -0.010078 0.048813
v -0.042449 -0.001297 0.033286
v -0.044477 -0.006701 0.038012
v -0.054602 -0.007376 0.050166
f 210 211 219 
f 193 191 195 
f 196 194 197 
f 193 195 198 
f 198 195 200 
f 191 193 201 
f 195 191 202 
f 194 196 203 
f 197 194 204 
f 201 194 205 
f 203 192 205 
f 194 203 205 
f 193 198 206 
f 204 193 206 
f 200 195 207 
f 199 200 207 
f 201 193 208 
f 194 201 208 
f 191 192 209 
f 202 191 209 
f 192 203 209 
f 196 197 210 
f 199 196 210 
f 198 200 211 
f 210 190 211 
f 203 196 212 
f 202 209 212 
f 209 203 212 
f 196 195 213 
f 195 202 213 
f 212 196 213 
f 202 212 213 
f 192 191 214 
f 191 201 214 
f 205 192 214 
f 201 205 214 
f 195 196 215 
f 196 199 215 
f 207 195 215 
f 199 207 215 
f 197 198 216 
f 190 210 216 
f 210 197 216 
f 211 190 216 
f 198 211 216 
f 193 204 217 
f 204 194 217 
f 208 193 217 
f 194 208 217 
f 198 197 218 
f 197 204 218 
f 206 198 218 
f 204 206 218 
f 200 199 219 
f 199 210 219 
f 211 200 219 
