o convex_0
v -0.069656 0.007272 0.015251
v -0.030951 0.005302 0.018527
v -0.030951 0.002680 0.018527
v -0.030951 0.005302 -0.016236
v -0.052599 0.025637 0.023776
v -0.057191 -0.006506 0.030332
v -0.031610 -0.006502 -0.005732
v -0.053910 0.014481 0.036240
v -0.064405 0.021039 0.014593
v -0.030951 0.015796 -0.003768
v -0.064405 -0.004539 0.015910
v -0.043416 0.013823 0.034270
v -0.046697 -0.002569 0.033618
v -0.067685 0.010544 0.027057
v -0.030951 0.015796 0.010007
v -0.030951 -0.005848 0.006727
v -0.066371 0.005959 0.010012
v -0.031610 -0.002569 -0.013609
v -0.053255 -0.008476 0.025087
v -0.061124 0.021039 0.028368
v -0.049322 0.023667 0.029679
v -0.053255 0.002677 0.036898
v -0.066371 0.003335 0.028368
v -0.031610 0.014481 -0.008359
v -0.067685 0.016447 0.013282
v -0.058498 0.024976 0.018527
v -0.042760 0.006614 0.034929
v -0.061779 0.011198 0.033618
v -0.032266 0.009235 -0.014262
v -0.058498 -0.007818 0.019843
v -0.064405 -0.004539 0.024429
v -0.066371 0.019726 0.020496
v -0.065060 -0.000602 0.011971
v -0.045386 0.019730 0.032301
v -0.067030 0.011856 0.010660
v -0.030951 -0.007160 -0.003115
v -0.030951 0.013168 0.014588
v -0.061779 0.000710 0.032306
v -0.068996 0.002023 0.019185
v -0.049322 -0.005851 0.030990
v -0.030951 -0.003223 0.013277
v -0.031610 0.000714 -0.015578
v -0.047352 0.011856 0.036898
v -0.059157 0.024976 0.023776
v -0.046041 0.023009 0.026399
v -0.056536 0.020388 0.032306
v -0.063094 0.020388 0.012624
v -0.045386 0.001368 0.035582
v -0.052599 0.024976 0.018527
v -0.068996 0.012511 0.021807
v -0.030951 0.016451 0.002135
v -0.064405 0.015793 0.029679
v -0.031610 0.005302 -0.016236
v -0.031610 -0.005193 -0.009676
v -0.059813 0.023009 0.014593
v -0.053255 -0.003227 0.034270
v -0.065060 0.015793 0.010660
v -0.062438 -0.006506 0.025087
v -0.060468 -0.007163 0.018527
v -0.049322 0.017760 0.034929
v -0.067685 0.000056 0.014593
v -0.059813 0.004647 0.034929
v -0.055880 0.024976 0.027057
v -0.068996 0.004647 0.023118
f 14 50 64 
f 2 3 4 
f 2 4 10 
f 2 10 15 
f 4 3 16 
f 10 4 24 
f 3 2 27 
f 2 12 27 
f 14 23 28 
f 24 4 29 
f 9 25 32 
f 18 11 33 
f 17 1 35 
f 1 25 35 
f 4 16 36 
f 18 4 36 
f 16 19 36 
f 30 7 36 
f 19 30 36 
f 12 2 37 
f 2 15 37 
f 34 12 37 
f 15 34 37 
f 23 31 38 
f 6 19 40 
f 19 16 40 
f 16 3 41 
f 13 40 41 
f 40 16 41 
f 4 18 42 
f 33 17 42 
f 18 33 42 
f 8 22 43 
f 27 12 43 
f 12 34 43 
f 5 26 44 
f 26 9 44 
f 32 20 44 
f 9 32 44 
f 5 21 45 
f 34 15 45 
f 21 34 45 
f 28 8 46 
f 25 9 47 
f 24 29 47 
f 3 27 48 
f 41 3 48 
f 13 41 48 
f 43 22 48 
f 27 43 48 
f 5 10 49 
f 10 24 49 
f 26 5 49 
f 24 26 49 
f 25 1 50 
f 32 25 50 
f 10 5 51 
f 15 10 51 
f 5 45 51 
f 45 15 51 
f 14 28 52 
f 20 32 52 
f 28 46 52 
f 46 20 52 
f 50 14 52 
f 32 50 52 
f 29 4 53 
f 17 35 53 
f 4 42 53 
f 42 17 53 
f 11 18 54 
f 18 36 54 
f 36 7 54 
f 9 26 55 
f 26 24 55 
f 47 9 55 
f 24 47 55 
f 38 6 56 
f 6 40 56 
f 40 13 56 
f 13 48 56 
f 48 22 56 
f 35 25 57 
f 25 47 57 
f 47 29 57 
f 29 53 57 
f 53 35 57 
f 19 6 58 
f 30 19 58 
f 31 11 58 
f 6 38 58 
f 38 31 58 
f 7 30 59 
f 11 54 59 
f 54 7 59 
f 58 11 59 
f 30 58 59 
f 34 21 60 
f 8 43 60 
f 43 34 60 
f 46 8 60 
f 21 46 60 
f 1 17 61 
f 11 31 61 
f 33 11 61 
f 17 33 61 
f 39 1 61 
f 31 39 61 
f 22 8 62 
f 8 28 62 
f 28 23 62 
f 23 38 62 
f 38 56 62 
f 56 22 62 
f 21 5 63 
f 5 44 63 
f 44 20 63 
f 20 46 63 
f 46 21 63 
f 23 14 64 
f 31 23 64 
f 1 39 64 
f 39 31 64 
f 50 1 64 
o convex_1
v 0.035305 -0.008475 -0.024760
v 0.058922 -0.001261 0.006063
v 0.057609 0.000707 0.008690
v 0.035305 -0.010443 0.027056
v 0.035305 0.004645 0.016559
v 0.055641 -0.013068 -0.000491
v 0.045149 0.002675 -0.020828
v 0.035305 0.003987 -0.020828
v 0.048422 -0.003884 0.023123
v 0.053015 -0.009787 -0.014924
v 0.053672 -0.012411 0.015904
v 0.036621 0.002675 0.027056
v 0.035305 -0.011098 -0.019507
v 0.054326 0.002020 -0.009676
v 0.049078 0.002675 0.020497
v 0.049737 -0.013068 0.016559
v 0.057609 0.000052 -0.007049
v 0.045149 -0.011098 -0.020172
v 0.057609 -0.011098 -0.000485
v 0.051048 0.000052 -0.018201
v 0.044492 -0.009787 0.025089
v 0.054326 -0.001916 0.017220
v 0.035964 -0.000604 -0.025420
v 0.045800 -0.009129 -0.021483
v 0.035305 -0.011098 0.025745
v 0.056952 -0.011753 0.009345
v 0.055641 -0.011098 -0.010331
v 0.049737 0.002675 -0.017546
v 0.042525 -0.000604 0.026400
v 0.035305 0.003987 0.025089
v 0.050392 -0.011755 0.020497
v 0.054983 0.002020 0.009340
v 0.046457 -0.012411 -0.010331
v 0.054983 0.000707 -0.012953
v 0.058265 -0.005195 -0.004423
v 0.042525 0.002020 -0.022794
v 0.055641 -0.008475 0.014593
v 0.051702 -0.012411 -0.011642
v 0.037275 -0.008475 0.027716
v 0.035964 0.004645 0.014593
v 0.058265 0.000707 -0.001801
v 0.048422 0.000052 0.023123
v 0.039245 -0.011755 0.023779
v 0.035305 0.002675 -0.024104
v 0.035305 0.001364 0.027716
v 0.040555 -0.005195 -0.024104
v 0.058922 -0.004539 0.002126
v 0.044492 -0.011755 0.023779
v 0.043836 0.002675 0.024434
v 0.052359 0.001364 0.018531
v 0.038588 -0.011098 -0.021483
v 0.056952 -0.000605 0.011967
v 0.051048 -0.010443 -0.016885
v 0.045800 0.000707 -0.021483
v 0.039899 -0.009787 -0.023449
v 0.056952 0.001364 0.010000
v 0.058922 0.000052 0.000825
v 0.050392 -0.009129 0.021152
v 0.041212 0.003332 -0.022138
v 0.054983 -0.013068 0.007379
v 0.057609 -0.006505 0.010000
f 116 101 125 
f 65 68 69 
f 65 69 72 
f 68 65 77 
f 68 77 89 
f 70 83 90 
f 83 70 91 
f 84 71 92 
f 85 73 93 
f 69 68 94 
f 79 69 94 
f 80 75 95 
f 78 92 96 
f 70 80 97 
f 80 77 97 
f 78 81 98 
f 74 84 98 
f 91 74 98 
f 81 91 98 
f 92 78 98 
f 84 92 98 
f 91 81 99 
f 83 91 99 
f 75 90 101 
f 95 75 101 
f 91 70 102 
f 70 97 102 
f 68 85 103 
f 85 93 103 
f 72 69 104 
f 69 79 104 
f 92 72 104 
f 79 96 104 
f 96 92 104 
f 81 78 105 
f 73 86 106 
f 93 73 106 
f 77 80 107 
f 89 77 107 
f 65 72 108 
f 87 65 108 
f 100 87 108 
f 93 76 109 
f 94 68 109 
f 76 94 109 
f 68 103 109 
f 103 93 109 
f 65 87 110 
f 87 100 110 
f 90 83 111 
f 66 90 111 
f 83 99 111 
f 85 68 112 
f 68 89 112 
f 80 95 112 
f 95 85 112 
f 107 80 112 
f 89 107 112 
f 76 93 113 
f 94 76 113 
f 79 94 113 
f 106 79 113 
f 93 106 113 
f 79 106 114 
f 106 86 114 
f 77 65 115 
f 97 77 115 
f 82 102 115 
f 102 97 115 
f 66 67 116 
f 86 101 116 
f 114 86 116 
f 84 74 117 
f 82 88 117 
f 88 84 117 
f 74 91 117 
f 102 82 117 
f 91 102 117 
f 71 84 118 
f 84 88 118 
f 100 71 118 
f 88 110 118 
f 110 100 118 
f 88 82 119 
f 65 110 119 
f 110 88 119 
f 115 65 119 
f 82 115 119 
f 78 96 120 
f 96 79 120 
f 105 78 120 
f 79 114 120 
f 116 67 120 
f 114 116 120 
f 67 66 121 
f 99 81 121 
f 81 105 121 
f 66 111 121 
f 111 99 121 
f 120 67 121 
f 105 120 121 
f 73 85 122 
f 86 73 122 
f 85 95 122 
f 101 86 122 
f 95 101 122 
f 72 92 123 
f 92 71 123 
f 71 100 123 
f 108 72 123 
f 100 108 123 
f 80 70 124 
f 75 80 124 
f 70 90 124 
f 90 75 124 
f 90 66 125 
f 101 90 125 
f 66 116 125 
o convex_2
v -0.030295 0.016453 0.003436
v -0.028328 -0.013068 -0.028041
v -0.029639 -0.008473 -0.033290
v -0.029639 -0.009129 0.034921
v -0.027671 0.015794 0.004754
v -0.027671 -0.013068 0.036239
v -0.027671 0.010549 -0.035911
v -0.027671 0.010549 0.035580
v -0.030951 -0.007817 -0.000488
v -0.030295 0.001369 -0.034601
v -0.030951 0.013170 0.013275
v -0.027671 -0.009785 -0.036570
v -0.030295 -0.001914 0.036239
v -0.030951 0.014482 -0.008357
v -0.028328 -0.013068 0.036239
v -0.029639 0.006611 -0.035911
v -0.030951 -0.002570 -0.015575
v -0.028984 0.009234 0.034921
v -0.030951 0.001369 0.023772
v -0.030951 0.016453 0.006057
v -0.028328 0.006611 0.037556
v -0.028327 0.011205 -0.034593
v -0.027671 0.015794 -0.004426
v -0.027671 -0.013068 -0.028041
v -0.030295 -0.004538 0.035587
v -0.030951 0.015794 -0.004426
v -0.028328 -0.006505 -0.037229
v -0.027671 -0.010441 0.037556
v -0.030295 0.003331 0.032307
v -0.030951 0.008578 -0.015575
v -0.030951 -0.004538 0.015244
v -0.027671 0.005955 -0.037229
v -0.029639 -0.005849 -0.035911
v -0.028328 -0.011753 -0.034601
f 158 137 159 
f 130 131 132 
f 131 130 133 
f 128 127 134 
f 132 131 137 
f 134 136 139 
f 127 131 140 
f 134 127 140 
f 129 134 140 
f 135 139 141 
f 128 134 142 
f 135 128 142 
f 134 139 142 
f 136 134 144 
f 130 126 145 
f 133 130 145 
f 139 136 145 
f 143 133 145 
f 136 143 145 
f 133 143 146 
f 143 138 146 
f 132 141 147 
f 141 139 147 
f 126 130 148 
f 130 132 148 
f 132 147 148 
f 131 127 149 
f 137 131 149 
f 129 140 150 
f 140 138 150 
f 138 144 150 
f 145 126 151 
f 139 145 151 
f 147 139 151 
f 126 148 151 
f 148 147 151 
f 131 133 153 
f 140 131 153 
f 138 140 153 
f 133 146 153 
f 146 138 153 
f 143 136 154 
f 138 143 154 
f 136 144 154 
f 144 138 154 
f 139 135 155 
f 135 142 155 
f 142 139 155 
f 134 129 156 
f 144 134 156 
f 129 150 156 
f 150 144 156 
f 132 137 157 
f 141 132 157 
f 137 152 157 
f 152 141 157 
f 128 135 158 
f 135 141 158 
f 152 137 158 
f 141 152 158 
f 127 128 159 
f 149 127 159 
f 137 149 159 
f 128 158 159 
o convex_3
v -0.002088 -0.034714 0.025741
v 0.033337 -0.012414 0.021144
v 0.032024 -0.012414 0.036239
v -0.027671 -0.012414 -0.035259
v 0.020868 -0.028811 -0.036570
v -0.027671 -0.012414 0.036897
v 0.030710 -0.012414 -0.037229
v -0.013894 -0.030123 -0.034601
v 0.021525 -0.029466 0.036897
v -0.018486 -0.027499 0.035587
v 0.011027 -0.033402 -0.036570
v 0.030053 -0.021598 -0.033942
v 0.007754 -0.034714 0.036897
v -0.023073 -0.020941 -0.036570
v 0.030053 -0.021598 0.036897
v -0.002739 -0.034057 -0.033290
v -0.026357 -0.017662 0.036897
v -0.009959 -0.032745 0.033618
v 0.015619 -0.032745 0.012616
v -0.022422 -0.022908 -0.032631
v 0.031367 -0.012414 0.037556
v -0.007331 -0.032745 0.037556
v 0.024153 -0.027497 -0.033942
v -0.025700 -0.012414 -0.037229
v -0.003396 -0.032745 -0.037229
v 0.032024 -0.017005 -0.031980
v -0.027671 -0.014383 -0.032631
v 0.025461 -0.026842 0.036239
v -0.027014 -0.012414 0.037556
v 0.003813 -0.034714 -0.007047
v 0.018903 -0.030778 -0.033290
v -0.023073 -0.022908 0.036239
v 0.013654 -0.032745 0.037556
v -0.018486 -0.026842 -0.034601
v 0.033337 -0.012414 -0.010978
v -0.024387 -0.020286 -0.031980
v 0.020868 -0.030123 0.036239
v -0.007331 -0.032745 -0.035911
v 0.026774 -0.022251 -0.037229
v 0.033337 -0.013724 0.012623
v 0.028739 -0.023563 0.002777
v -0.015859 -0.029466 0.029679
v -0.002088 -0.034714 0.035587
v -0.027671 -0.015038 0.036239
v -0.013894 -0.028809 -0.037229
v 0.013654 -0.033402 0.036239
v -0.026357 -0.017662 0.002777
v 0.009719 -0.034057 -0.011644
v 0.005783 -0.034057 -0.035259
v 0.032024 -0.014381 -0.035911
v -0.020451 -0.024875 0.037556
v 0.022839 -0.028811 0.000808
v 0.030710 -0.020286 0.036239
v -0.022422 -0.023563 0.012616
v -0.005366 -0.034057 0.025090
v 0.013654 -0.033402 0.008677
v 0.016276 -0.032090 -0.026731
v -0.011266 -0.032090 0.018531
v 0.031367 -0.018974 -0.030662
v 0.026774 -0.024218 0.037556
v 0.016933 -0.029466 -0.037229
v 0.029396 -0.022908 0.023113
v 0.028088 -0.022908 -0.036570
v -0.026357 -0.017005 -0.034601
f 195 206 223 
f 162 161 163 
f 162 163 165 
f 163 161 166 
f 162 165 180 
f 169 177 181 
f 163 166 183 
f 173 163 183 
f 183 166 184 
f 165 163 186 
f 165 176 188 
f 180 165 188 
f 181 180 188 
f 172 160 189 
f 160 175 189 
f 170 164 190 
f 164 182 190 
f 181 172 192 
f 180 181 192 
f 179 173 193 
f 166 161 194 
f 187 168 196 
f 178 190 196 
f 168 192 196 
f 184 175 197 
f 184 166 198 
f 194 161 199 
f 185 194 199 
f 182 171 200 
f 187 182 200 
f 177 169 201 
f 193 167 201 
f 169 193 201 
f 160 172 202 
f 172 181 202 
f 181 177 202 
f 176 165 203 
f 165 186 203 
f 173 183 204 
f 183 184 204 
f 167 193 204 
f 193 173 204 
f 197 167 204 
f 184 197 204 
f 192 172 205 
f 178 196 205 
f 196 192 205 
f 191 176 206 
f 195 191 206 
f 176 203 206 
f 203 186 206 
f 172 189 207 
f 184 170 208 
f 175 184 208 
f 189 175 208 
f 170 207 208 
f 207 189 208 
f 185 171 209 
f 166 194 209 
f 194 185 209 
f 169 181 210 
f 188 176 210 
f 181 188 210 
f 191 169 210 
f 176 191 210 
f 182 187 211 
f 190 182 211 
f 187 196 211 
f 196 190 211 
f 161 162 212 
f 174 171 212 
f 162 180 212 
f 180 174 212 
f 199 161 212 
f 169 191 213 
f 193 169 213 
f 179 193 213 
f 195 179 213 
f 191 195 213 
f 175 160 214 
f 177 197 214 
f 197 175 214 
f 160 202 214 
f 202 177 214 
f 205 172 215 
f 178 205 215 
f 207 170 215 
f 172 207 215 
f 170 190 216 
f 190 178 216 
f 215 170 216 
f 178 215 216 
f 167 197 217 
f 197 177 217 
f 201 167 217 
f 177 201 217 
f 171 185 218 
f 185 199 218 
f 212 171 218 
f 199 212 218 
f 174 180 219 
f 168 187 219 
f 187 174 219 
f 192 168 219 
f 180 192 219 
f 164 170 220 
f 170 184 220 
f 198 164 220 
f 184 198 220 
f 171 174 221 
f 174 187 221 
f 200 171 221 
f 187 200 221 
f 182 164 222 
f 171 182 222 
f 164 198 222 
f 198 166 222 
f 209 171 222 
f 166 209 222 
f 163 173 223 
f 173 179 223 
f 186 163 223 
f 179 195 223 
f 206 186 223 
o convex_4
v -0.017172 0.025635 0.036239
v -0.026357 -0.012412 -0.037229
v 0.001193 -0.012412 -0.037229
v 0.001193 0.032193 -0.036570
v -0.010617 -0.012412 0.036897
v 0.001193 0.031537 0.037556
v -0.026357 0.015790 -0.035911
v -0.027671 -0.012412 0.037556
v 0.001193 -0.012412 0.010647
v -0.027013 0.013823 0.036897
v -0.009303 0.030881 -0.035259
v -0.027671 0.007925 -0.037229
v 0.001193 0.014478 0.037556
v -0.006023 0.031537 0.033618
v -0.027671 0.015790 -0.005078
v -0.017172 0.026291 -0.035911
v -0.027671 -0.012412 -0.035911
v -0.013895 0.028254 0.035587
v -0.001435 0.032853 -0.015575
v -0.000776 0.031537 -0.037229
v -0.027671 0.009237 0.037556
v -0.023077 0.020385 0.032952
v -0.019797 0.024319 -0.001798
v 0.001193 0.032853 0.011305
v -0.024391 0.019073 -0.033942
v -0.011928 0.028258 0.037556
v -0.005367 0.032193 -0.035911
v -0.013239 0.027598 -0.037229
v -0.014550 0.028254 -0.023452
v -0.011928 -0.012412 0.037556
v 0.001193 0.013167 0.036897
v -0.027671 0.015790 0.004746
v -0.010617 0.030221 -0.000488
v -0.002087 0.032193 0.035587
v -0.027671 0.013823 -0.030662
v 0.001193 0.032853 -0.035259
v -0.022422 0.021696 -0.012954
v -0.018486 0.024979 0.033618
v -0.016519 0.026942 -0.007047
v -0.024391 0.016450 -0.037229
v -0.004056 0.032193 0.020492
v -0.022422 0.020385 0.036897
v -0.005367 0.032193 -0.022134
v -0.027671 0.012516 0.034921
v -0.012584 0.028914 0.036239
v 0.001193 0.031537 -0.037229
v 0.001193 0.032193 0.036239
v -0.026357 0.015139 0.036897
v -0.022422 0.019073 0.037556
v -0.009303 0.030881 -0.015575
v -0.006678 0.030881 0.036897
f 237 268 274 
f 225 226 228 
f 226 227 229 
f 225 228 231 
f 228 226 232 
f 226 229 232 
f 226 225 235 
f 229 231 236 
f 232 229 236 
f 235 231 238 
f 225 231 240 
f 235 225 240 
f 231 235 240 
f 226 235 243 
f 231 229 244 
f 238 231 244 
f 229 227 247 
f 230 238 248 
f 239 230 248 
f 244 229 249 
f 227 243 250 
f 250 243 251 
f 239 234 251 
f 243 235 251 
f 234 250 251 
f 234 239 252 
f 231 228 253 
f 228 236 253 
f 236 231 253 
f 228 232 254 
f 236 228 254 
f 232 236 254 
f 238 244 255 
f 252 241 256 
f 230 235 258 
f 238 230 258 
f 235 238 258 
f 247 227 259 
f 242 247 259 
f 227 250 259 
f 250 242 259 
f 246 239 260 
f 245 246 260 
f 248 238 260 
f 239 248 260 
f 238 255 260 
f 255 245 260 
f 224 241 261 
f 246 245 261 
f 239 246 262 
f 252 239 262 
f 241 252 262 
f 261 241 262 
f 246 261 262 
f 235 230 263 
f 230 239 263 
f 251 235 263 
f 239 251 263 
f 247 242 264 
f 237 257 264 
f 257 247 264 
f 249 224 265 
f 224 261 265 
f 261 245 265 
f 250 234 266 
f 242 250 266 
f 264 242 266 
f 237 264 266 
f 244 233 267 
f 233 255 267 
f 255 244 267 
f 241 224 268 
f 224 249 268 
f 237 256 268 
f 256 241 268 
f 227 226 269 
f 226 243 269 
f 243 227 269 
f 229 247 270 
f 257 229 270 
f 247 257 270 
f 233 244 271 
f 255 233 271 
f 245 255 271 
f 265 245 271 
f 265 271 272 
f 244 249 272 
f 249 265 272 
f 271 244 272 
f 234 252 273 
f 256 237 273 
f 252 256 273 
f 266 234 273 
f 237 266 273 
f 249 229 274 
f 257 237 274 
f 229 257 274 
f 268 249 274 
o convex_5
v 0.029399 0.019729 0.037556
v 0.001193 -0.012412 -0.037229
v 0.001193 0.031537 -0.037229
v 0.034648 0.003991 -0.035911
v 0.013658 -0.012412 0.036239
v 0.001193 0.031537 0.037556
v 0.035305 -0.011096 0.025741
v 0.022837 0.027602 -0.035259
v 0.030711 -0.012412 -0.037229
v 0.001193 -0.012412 0.010647
v 0.010379 0.032193 0.035587
v 0.033335 0.015790 -0.035911
v 0.033990 0.011200 0.036897
v 0.031369 -0.012412 0.037556
v 0.001193 0.014478 0.037556
v 0.009067 0.032853 -0.029352
v 0.020870 0.028258 0.036239
v 0.035305 -0.010440 -0.022793
v 0.035305 0.006614 -0.006388
v 0.030711 0.019729 0.009336
v 0.014970 0.031537 -0.034601
v 0.028744 0.019729 -0.037229
v 0.001193 0.032853 0.019182
v 0.033990 0.013171 0.034269
v 0.026774 0.023663 0.035587
v 0.035305 0.004647 0.026400
v 0.001193 0.032853 -0.035911
v 0.034648 0.011860 -0.033290
v 0.032681 -0.012412 -0.033290
v 0.015625 -0.012412 0.037556
v 0.031369 0.019073 -0.035259
v 0.031369 0.018417 0.035587
v 0.011691 0.032193 -0.036570
v 0.003818 0.032853 0.034269
v 0.033990 -0.012412 0.018531
v 0.016283 0.030881 -0.008357
v 0.013000 0.030881 0.037556
v 0.033335 0.009237 -0.037229
v 0.001193 0.013167 0.036897
v 0.035305 0.003991 -0.024762
v 0.035305 -0.011751 -0.007706
v 0.034648 0.011860 0.004088
v 0.035305 -0.009784 0.027703
v 0.018904 0.028258 -0.037229
v 0.033335 -0.001255 0.036897
v 0.033335 -0.007161 -0.035911
v 0.018249 0.029565 0.032307
v 0.024807 0.025631 0.018531
v 0.033335 0.012511 0.037556
v 0.033990 0.013823 0.016554
v 0.011033 0.032193 0.023772
v 0.027432 0.023012 -0.036570
v 0.034648 0.010544 -0.035911
v 0.009067 0.032853 -0.020824
f 325 295 328 
f 277 276 280 
f 276 277 283 
f 279 276 283 
f 276 279 284 
f 280 276 284 
f 275 280 288 
f 279 283 288 
f 280 284 289 
f 288 280 289 
f 281 292 293 
f 283 277 296 
f 277 280 297 
f 291 275 299 
f 281 293 300 
f 298 287 300 
f 277 297 301 
f 297 290 301 
f 288 283 303 
f 279 288 304 
f 289 279 304 
f 288 289 304 
f 299 275 306 
f 294 299 306 
f 305 294 306 
f 286 305 306 
f 295 282 307 
f 290 295 307 
f 277 301 307 
f 301 290 307 
f 280 285 308 
f 297 280 308 
f 290 297 308 
f 281 288 309 
f 288 303 309 
f 291 282 310 
f 282 295 310 
f 280 275 311 
f 285 280 311 
f 291 285 311 
f 275 291 311 
f 283 296 312 
f 296 286 312 
f 284 279 313 
f 279 289 313 
f 289 284 313 
f 292 278 314 
f 293 292 314 
f 302 293 314 
f 292 281 315 
f 303 292 315 
f 281 309 315 
f 309 303 315 
f 300 293 316 
f 298 300 316 
f 302 286 316 
f 293 302 316 
f 288 281 317 
f 281 300 317 
f 300 287 317 
f 296 277 318 
f 307 282 318 
f 277 307 318 
f 288 317 319 
f 317 287 319 
f 278 292 320 
f 303 283 320 
f 292 303 320 
f 312 278 320 
f 283 312 320 
f 285 291 321 
f 291 310 321 
f 282 291 322 
f 291 299 322 
f 275 288 323 
f 287 298 323 
f 306 275 323 
f 298 306 323 
f 319 287 323 
f 288 319 323 
f 306 298 324 
f 286 306 324 
f 316 286 324 
f 298 316 324 
f 310 295 325 
f 285 321 325 
f 321 310 325 
f 286 296 326 
f 299 294 326 
f 294 305 326 
f 305 286 326 
f 296 318 326 
f 318 282 326 
f 282 322 326 
f 322 299 326 
f 286 302 327 
f 278 312 327 
f 312 286 327 
f 314 278 327 
f 302 314 327 
f 295 290 328 
f 308 285 328 
f 290 308 328 
f 285 325 328 
