o convex_0
v -0.031143 -0.025918 -0.037532
v -0.028982 -0.041756 -0.054810
v -0.033304 -0.040317 -0.056973
v -0.021063 -0.025918 -0.053369
v -0.036184 -0.025918 -0.054090
v -0.025385 -0.038158 -0.043293
v -0.021785 -0.041037 -0.056973
v -0.022503 -0.025918 -0.039695
v -0.032582 -0.038877 -0.045456
v -0.034023 -0.028081 -0.038973
v -0.031143 -0.035998 -0.057693
v -0.028265 -0.035998 -0.040415
v -0.021063 -0.041037 -0.055530
v -0.026104 -0.041756 -0.049049
v -0.023224 -0.028801 -0.038973
v -0.034743 -0.034557 -0.051210
v -0.028265 -0.025918 -0.054810
v -0.021785 -0.037437 -0.056973
v -0.031143 -0.041756 -0.050490
v -0.031862 -0.038877 -0.044015
v -0.034023 -0.038877 -0.057693
v -0.026104 -0.028081 -0.037532
v -0.034743 -0.030241 -0.056253
v -0.034023 -0.025918 -0.038973
f 5 10 24 
f 1 4 5 
f 2 3 7 
f 4 1 8 
f 1 10 12 
f 2 7 13 
f 4 8 13 
f 2 13 14 
f 13 6 14 
f 12 6 15 
f 6 13 15 
f 13 8 15 
f 9 10 16 
f 10 5 16 
f 5 4 17 
f 11 17 18 
f 7 11 18 
f 4 13 18 
f 13 7 18 
f 17 4 18 
f 3 2 19 
f 9 3 19 
f 2 14 19 
f 19 14 20 
f 10 9 20 
f 6 12 20 
f 12 10 20 
f 14 6 20 
f 9 19 20 
f 7 3 21 
f 3 9 21 
f 11 7 21 
f 16 5 21 
f 9 16 21 
f 8 1 22 
f 1 12 22 
f 15 8 22 
f 12 15 22 
f 5 17 23 
f 17 11 23 
f 21 5 23 
f 11 21 23 
f 1 5 24 
f 10 1 24 
o convex_1
v 0.033659 -0.026638 -0.040416
v 0.025742 -0.042476 -0.055529
v 0.019980 -0.041757 -0.056970
v 0.035101 -0.026638 -0.055529
v 0.019980 -0.026638 -0.054092
v 0.022860 -0.029521 -0.038975
v 0.030779 -0.039597 -0.044733
v 0.032940 -0.039597 -0.058413
v 0.025021 -0.039597 -0.044014
v 0.025742 -0.026638 -0.037532
v 0.025021 -0.038878 -0.058413
v 0.028618 -0.035277 -0.040416
v 0.029339 -0.042476 -0.049769
v 0.032940 -0.037437 -0.049050
v 0.022141 -0.027361 -0.039693
v 0.032940 -0.028801 -0.038975
v 0.019980 -0.041757 -0.055529
v 0.032221 -0.041037 -0.058413
v 0.035101 -0.028801 -0.053371
v 0.028618 -0.026638 -0.055529
v 0.025021 -0.042476 -0.049769
v 0.020702 -0.038157 -0.057692
v 0.032221 -0.036718 -0.058413
f 35 44 47 
f 25 28 29 
f 25 29 34 
f 30 33 36 
f 33 31 36 
f 34 30 36 
f 31 33 37 
f 34 29 39 
f 30 34 39 
f 25 34 40 
f 36 31 40 
f 34 36 40 
f 38 25 40 
f 31 38 40 
f 29 27 41 
f 33 30 41 
f 39 29 41 
f 30 39 41 
f 26 27 42 
f 27 35 42 
f 35 32 42 
f 37 26 42 
f 31 37 42 
f 38 31 42 
f 32 38 42 
f 28 25 43 
f 32 28 43 
f 25 38 43 
f 38 32 43 
f 29 28 44 
f 27 26 45 
f 26 37 45 
f 37 33 45 
f 41 27 45 
f 33 41 45 
f 27 29 46 
f 35 27 46 
f 29 44 46 
f 44 35 46 
f 28 32 47 
f 32 35 47 
f 44 28 47 
o convex_2
v -0.041944 0.006484 -0.037534
v -0.040505 -0.003597 -0.053373
v -0.039065 -0.003597 -0.053373
v -0.041224 -0.003597 -0.037534
v -0.039065 0.005042 -0.037534
v -0.039065 0.005764 -0.053373
v -0.041944 0.002162 -0.053373
v -0.042664 -0.002156 -0.038255
v -0.039065 -0.003597 -0.037534
f 50 52 56 
f 49 50 51 
f 48 51 52 
f 52 50 53 
f 50 49 53 
f 48 52 53 
f 48 53 54 
f 53 49 54 
f 49 51 55 
f 51 48 55 
f 48 54 55 
f 54 49 55 
f 51 50 56 
f 52 51 56 
o convex_3
v -0.006662 0.028080 -0.037532
v -0.039064 -0.024472 -0.057689
v -0.038341 -0.025193 -0.057689
v -0.039064 -0.020151 -0.037532
v -0.038341 0.018002 -0.059134
v -0.017465 -0.017996 -0.058410
v -0.013145 -0.022312 -0.037532
v -0.038341 0.021598 -0.037532
v -0.017465 0.010080 -0.059134
v -0.006662 0.005039 -0.040416
v -0.025382 0.024484 -0.050492
v -0.031861 -0.025918 -0.037532
v -0.018905 -0.025198 -0.054093
v -0.039064 -0.016550 -0.059134
v -0.008105 -0.010794 -0.038255
v -0.009545 0.030246 -0.038255
v -0.031861 0.024484 -0.047616
v -0.039064 0.006474 -0.051932
v -0.013145 -0.010069 -0.052651
v -0.006662 0.020883 -0.040416
v -0.018182 -0.017996 -0.059134
v -0.022505 -0.025918 -0.039695
v -0.016745 0.017997 -0.053372
v -0.030421 0.025204 -0.037532
v -0.013862 -0.020151 -0.047616
v -0.038341 0.022318 -0.044015
v -0.030421 -0.025918 -0.054809
v -0.034741 -0.025918 -0.041133
v -0.007385 0.028800 -0.038976
v -0.039064 0.003599 -0.037532
v -0.006662 0.000729 -0.037532
v -0.035461 0.018002 -0.059134
v -0.012425 0.030246 -0.037532
v -0.016745 0.010080 -0.058410
v -0.010985 -0.011514 -0.046895
v -0.028981 -0.025193 -0.056970
v -0.028261 0.024484 -0.050492
v -0.021065 -0.025918 -0.053372
v -0.008825 0.011521 -0.044734
f 90 76 95 
f 57 60 63 
f 60 57 64 
f 63 60 68 
f 59 58 70 
f 58 60 70 
f 61 65 70 
f 70 60 74 
f 61 70 74 
f 57 66 76 
f 62 69 77 
f 59 70 77 
f 70 65 77 
f 63 68 78 
f 69 63 78 
f 64 57 80 
f 63 69 81 
f 69 62 81 
f 71 63 81 
f 73 61 82 
f 74 64 82 
f 61 74 82 
f 64 80 82 
f 80 73 82 
f 78 68 83 
f 58 59 84 
f 60 58 84 
f 68 60 84 
f 59 83 84 
f 83 68 84 
f 72 57 85 
f 67 72 85 
f 57 76 85 
f 65 79 85 
f 79 67 85 
f 60 64 86 
f 74 60 86 
f 64 74 86 
f 57 63 87 
f 66 57 87 
f 63 71 87 
f 71 66 87 
f 65 61 88 
f 61 67 88 
f 79 65 88 
f 67 79 88 
f 57 72 89 
f 80 57 89 
f 73 80 89 
f 75 62 90 
f 62 77 90 
f 77 65 90 
f 85 76 90 
f 65 85 90 
f 66 71 91 
f 62 75 91 
f 75 66 91 
f 81 62 91 
f 71 81 91 
f 59 77 92 
f 77 69 92 
f 83 59 92 
f 67 61 93 
f 72 67 93 
f 61 73 93 
f 89 72 93 
f 73 89 93 
f 69 78 94 
f 78 83 94 
f 92 69 94 
f 83 92 94 
f 66 75 95 
f 76 66 95 
f 75 90 95 
o convex_4
v -0.039784 0.004324 -0.036084
v -0.039064 -0.032399 -0.018089
v -0.039784 -0.031676 -0.023127
v -0.039784 -0.028793 0.008547
v -0.038344 -0.005759 -0.010891
v -0.038344 -0.020155 -0.037527
v -0.038344 -0.030957 0.008547
v -0.038344 0.002882 -0.037527
v -0.039784 -0.024476 -0.036084
v -0.038344 -0.030957 -0.024566
v -0.039064 -0.005759 -0.010891
v -0.039784 -0.030957 0.008547
v -0.038344 -0.012959 -0.002976
v -0.039784 -0.003599 -0.037527
f 101 104 109 
f 96 98 99 
f 101 100 102 
f 96 100 103 
f 100 101 103 
f 98 96 104 
f 104 101 105 
f 97 98 105 
f 102 97 105 
f 101 102 105 
f 98 104 105 
f 96 99 106 
f 100 96 106 
f 98 97 107 
f 99 98 107 
f 97 102 107 
f 102 99 107 
f 99 102 108 
f 102 100 108 
f 106 99 108 
f 100 106 108 
f 96 103 109 
f 103 101 109 
f 104 96 109 
o convex_5
v -0.051302 -0.001436 0.036633
v -0.046984 0.020165 0.037355
v -0.039788 0.018004 0.043114
v -0.057063 0.014403 0.041672
v -0.034748 0.000004 0.043114
v -0.036908 0.012961 0.036633
v -0.056342 0.002165 0.041672
v -0.056342 0.015843 0.036633
v -0.038347 0.002884 0.036633
v -0.034026 0.015124 0.042392
v -0.050582 0.004324 0.043114
v -0.056342 0.002165 0.036633
v -0.054181 0.018004 0.040953
v -0.043387 -0.000714 0.043114
v -0.046984 -0.002157 0.036633
v -0.049863 0.014403 0.043114
v -0.034026 0.001444 0.042392
v -0.046984 0.020165 0.036633
v -0.052023 -0.000714 0.040233
v -0.035467 -0.000714 0.042392
f 118 126 129 
f 115 110 117 
f 110 115 118 
f 112 114 119 
f 114 112 120 
f 113 116 120 
f 116 113 121 
f 110 116 121 
f 113 117 121 
f 117 110 121 
f 112 111 122 
f 117 113 122 
f 114 120 123 
f 120 116 123 
f 110 118 124 
f 120 112 125 
f 113 120 125 
f 112 122 125 
f 122 113 125 
f 118 115 126 
f 119 114 126 
f 115 119 126 
f 111 112 127 
f 115 117 127 
f 112 119 127 
f 119 115 127 
f 122 111 127 
f 117 122 127 
f 116 110 128 
f 123 116 128 
f 110 124 128 
f 124 123 128 
f 114 123 129 
f 124 118 129 
f 123 124 129 
f 126 114 129 
o convex_6
v -0.036906 0.018722 0.067595
v -0.034027 -0.002157 0.045997
v -0.043383 -0.000713 0.045997
v -0.034027 0.019444 0.043835
v -0.049863 0.018722 0.047434
v -0.030426 0.000726 0.065431
v -0.043383 0.002884 0.061834
v -0.030426 0.019444 0.046716
v -0.047702 0.005045 0.043114
v -0.031146 0.019444 0.066153
v -0.031146 0.000004 0.045275
v -0.049863 0.002884 0.048158
v -0.036186 -0.002157 0.059673
v -0.045541 0.014403 0.059673
v -0.039067 0.020885 0.062551
v -0.036906 0.002884 0.067595
v -0.034747 -0.000713 0.043114
v -0.046262 0.016564 0.043114
v -0.030426 -0.001435 0.048158
v -0.044823 0.018722 0.059673
v -0.033307 0.015125 0.043114
v -0.050583 0.010803 0.048875
v -0.039067 0.012964 0.066874
v -0.043383 0.020163 0.048158
v -0.033307 0.020885 0.060392
v -0.046262 0.002884 0.057514
v -0.030426 0.018722 0.065431
v -0.031866 -0.002157 0.061113
v -0.044823 0.000004 0.043114
v -0.050583 0.014403 0.045997
v -0.034027 0.002884 0.067595
v -0.034747 0.000004 0.066153
v -0.049143 0.019444 0.049596
v -0.045541 0.000726 0.052479
v -0.041222 0.019444 0.043835
v -0.049863 0.002884 0.045997
v -0.040503 0.003606 0.065431
v -0.031866 0.019444 0.066874
f 160 135 167 
f 132 131 142 
f 140 131 146 
f 146 138 147 
f 137 135 148 
f 131 140 148 
f 140 137 148 
f 130 144 149 
f 133 137 150 
f 137 140 150 
f 140 146 150 
f 147 133 150 
f 146 147 150 
f 145 130 152 
f 130 149 152 
f 149 143 152 
f 153 144 154 
f 137 133 154 
f 139 137 154 
f 133 153 154 
f 142 136 155 
f 136 143 155 
f 151 141 155 
f 143 151 155 
f 135 137 156 
f 139 135 156 
f 137 139 156 
f 142 131 157 
f 148 135 157 
f 131 148 157 
f 131 132 158 
f 132 141 158 
f 146 131 158 
f 138 146 158 
f 134 147 159 
f 147 138 159 
f 151 134 159 
f 130 145 160 
f 160 145 161 
f 136 142 161 
f 142 157 161 
f 157 135 161 
f 135 160 161 
f 143 149 162 
f 149 144 162 
f 134 151 162 
f 151 143 162 
f 144 153 162 
f 141 132 163 
f 132 142 163 
f 142 155 163 
f 155 141 163 
f 133 147 164 
f 147 134 164 
f 153 133 164 
f 134 162 164 
f 162 153 164 
f 141 151 165 
f 158 141 165 
f 138 158 165 
f 159 138 165 
f 151 159 165 
f 143 136 166 
f 152 143 166 
f 145 152 166 
f 161 145 166 
f 136 161 166 
f 135 139 167 
f 144 130 167 
f 154 144 167 
f 139 154 167 
f 130 160 167 
o convex_7
v -0.020343 -0.021600 0.030870
v -0.006662 -0.017999 0.031593
v -0.006662 -0.030957 0.031593
v -0.006662 -0.024480 0.013592
v -0.007383 -0.031679 0.015033
v -0.019623 -0.024480 0.031593
v -0.016741 -0.019440 0.027272
v -0.006662 -0.018719 0.025112
v -0.008103 -0.030957 0.031593
v -0.018902 -0.019440 0.031593
v -0.007383 -0.024480 0.013592
v -0.007383 -0.021600 0.017195
v -0.006662 -0.031679 0.015033
v -0.007383 -0.028797 0.013592
v -0.020343 -0.023760 0.030870
f 168 181 182 
f 169 170 171 
f 170 169 173 
f 169 171 175 
f 174 169 175 
f 172 170 176 
f 170 173 176 
f 173 172 176 
f 173 169 177 
f 168 173 177 
f 169 174 177 
f 174 168 177 
f 168 174 178 
f 175 171 179 
f 174 175 179 
f 171 178 179 
f 178 174 179 
f 171 170 180 
f 170 172 180 
f 180 172 181 
f 168 178 181 
f 178 171 181 
f 171 180 181 
f 172 173 182 
f 173 168 182 
f 181 172 182 
o convex_8
v 0.040858 0.000729 -0.043292
v 0.007019 -0.000711 -0.038252
v 0.007741 -0.007913 -0.040412
v 0.009903 0.019443 -0.045453
v 0.030058 0.024484 -0.037532
v 0.038696 -0.020877 -0.037532
v 0.022142 -0.026638 -0.045453
v 0.037977 0.020883 -0.045453
v 0.007741 0.029526 -0.037532
v 0.012783 -0.022317 -0.037532
v 0.038696 -0.022317 -0.045453
v 0.042301 0.005759 -0.037532
v 0.012783 -0.020877 -0.045453
v 0.030058 -0.026638 -0.037532
v 0.027900 0.024484 -0.044732
v 0.037977 0.020883 -0.037532
v 0.008463 0.002879 -0.044732
v 0.033657 -0.026638 -0.045453
v 0.007019 0.028085 -0.038973
v 0.042301 -0.004312 -0.038253
v 0.007741 -0.010794 -0.037532
v 0.014945 0.029526 -0.038252
v 0.021424 -0.026638 -0.039693
v 0.009903 -0.010794 -0.045453
v 0.025738 0.023764 -0.045453
v 0.037977 0.021604 -0.044732
v 0.007019 0.018003 -0.041133
v 0.033657 -0.026638 -0.040412
v 0.007741 0.028806 -0.038973
v 0.012783 -0.022317 -0.041852
f 205 192 212 
f 189 186 190 
f 188 187 191 
f 188 191 192 
f 190 183 193 
f 189 190 193 
f 187 188 194 
f 183 190 194 
f 186 189 195 
f 188 192 196 
f 187 194 198 
f 189 193 200 
f 196 189 200 
f 184 191 201 
f 193 183 202 
f 188 193 202 
f 194 188 202 
f 183 194 202 
f 184 185 203 
f 191 184 203 
f 192 191 203 
f 191 187 204 
f 189 196 205 
f 196 192 205 
f 186 195 206 
f 185 199 206 
f 199 186 206 
f 203 185 206 
f 195 203 206 
f 190 186 207 
f 197 190 207 
f 194 190 208 
f 190 197 208 
f 187 198 208 
f 198 194 208 
f 204 187 208 
f 197 204 208 
f 185 184 209 
f 199 185 209 
f 186 199 209 
f 184 201 209 
f 201 186 209 
f 193 188 210 
f 188 196 210 
f 200 193 210 
f 196 200 210 
f 201 191 211 
f 186 201 211 
f 191 204 211 
f 204 197 211 
f 207 186 211 
f 197 207 211 
f 195 189 212 
f 192 203 212 
f 203 195 212 
f 189 205 212 
o convex_9
v 0.039421 -0.031673 -0.026012
v 0.006299 0.002879 -0.026012
v 0.007022 -0.002152 -0.037532
v 0.038698 0.027362 -0.023851
v 0.014223 -0.019431 -0.015930
v 0.037978 0.020879 -0.037532
v 0.007022 0.032400 -0.029611
v 0.038698 0.028802 -0.015930
v 0.009181 0.021598 -0.015930
v 0.014223 -0.023030 -0.037532
v 0.039421 -0.033119 -0.015930
v 0.039421 -0.025915 -0.036809
v 0.007742 0.030961 -0.037532
v 0.027179 -0.031673 -0.015930
v 0.014223 0.033120 -0.033931
v 0.021420 0.030241 -0.015930
v 0.007742 -0.012228 -0.028888
v 0.039421 0.003599 -0.037532
v 0.009901 -0.007910 -0.016654
v 0.027898 -0.031673 -0.024574
v 0.012063 -0.021591 -0.028169
v 0.006299 0.029521 -0.026731
v 0.012063 0.027362 -0.015930
v 0.006299 0.011516 -0.022413
v 0.007742 -0.011508 -0.036809
v 0.038698 -0.020871 -0.037532
v 0.018541 -0.026628 -0.020255
v 0.006299 0.030961 -0.031770
v 0.039421 -0.012234 -0.015930
v 0.012063 -0.017992 -0.018094
v 0.032217 0.030241 -0.015930
v 0.009901 0.033120 -0.030330
v 0.012063 -0.021591 -0.037532
v 0.038698 -0.029514 -0.031049
v 0.007022 -0.008629 -0.027450
v 0.014943 0.030241 -0.037532
v 0.009181 0.007917 -0.015930
v 0.038698 0.020159 -0.036809
v 0.007022 0.030241 -0.037532
v 0.007742 -0.002872 -0.020971
v 0.014223 0.028795 -0.015930
v 0.025739 -0.029514 -0.028888
v 0.007742 0.033120 -0.033931
v 0.020701 -0.028068 -0.022413
v 0.006299 0.021598 -0.023132
v 0.011340 -0.013674 -0.015930
f 249 231 258 
f 217 220 221 
f 215 218 222 
f 220 217 223 
f 223 213 224 
f 218 215 225 
f 223 217 226 
f 216 218 227 
f 220 216 227 
f 221 220 228 
f 216 220 230 
f 222 218 230 
f 223 224 230 
f 213 223 232 
f 223 226 232 
f 221 228 235 
f 234 221 235 
f 219 234 235 
f 234 214 236 
f 224 222 238 
f 222 230 238 
f 230 224 238 
f 226 217 239 
f 215 214 240 
f 214 234 240 
f 234 219 240 
f 220 223 241 
f 230 220 241 
f 223 230 241 
f 229 233 242 
f 239 217 242 
f 233 239 242 
f 220 227 243 
f 228 220 243 
f 228 243 244 
f 219 228 244 
f 243 227 244 
f 215 222 245 
f 233 229 245 
f 237 215 245 
f 229 237 245 
f 239 233 245 
f 224 213 246 
f 222 224 246 
f 213 232 246 
f 214 215 247 
f 215 237 247 
f 237 229 247 
f 229 242 247 
f 218 225 248 
f 227 218 248 
f 225 227 248 
f 217 221 249 
f 221 236 249 
f 218 216 250 
f 216 230 250 
f 230 218 250 
f 225 215 251 
f 215 240 251 
f 236 214 252 
f 214 247 252 
f 247 231 252 
f 231 249 252 
f 249 236 252 
f 228 219 253 
f 219 235 253 
f 235 228 253 
f 232 222 254 
f 222 246 254 
f 246 232 254 
f 227 225 255 
f 240 219 255 
f 219 244 255 
f 244 227 255 
f 225 251 255 
f 251 240 255 
f 222 232 256 
f 232 226 256 
f 226 239 256 
f 245 222 256 
f 239 245 256 
f 221 234 257 
f 236 221 257 
f 234 236 257 
f 242 217 258 
f 231 247 258 
f 247 242 258 
f 217 249 258 
o convex_10
v 0.039421 -0.026638 -0.036089
v 0.048062 -0.002879 -0.014493
v 0.048062 -0.002158 -0.015214
v 0.039421 -0.014392 -0.015214
v 0.040142 0.005762 -0.037530
v 0.048062 -0.023037 -0.018094
v 0.039421 -0.032399 -0.014493
v 0.043022 -0.004317 -0.037530
v 0.047341 0.007204 -0.020974
v 0.045180 -0.022316 -0.030330
v 0.047341 0.005762 -0.024572
v 0.040862 -0.030957 -0.027450
v 0.045180 0.006483 -0.020974
v 0.047341 -0.025196 -0.014493
v 0.039421 0.001444 -0.031768
v 0.043022 -0.022316 -0.036089
v 0.043022 0.005041 -0.037530
v 0.047341 -0.015834 -0.024572
v 0.045900 -0.002879 -0.014493
v 0.048062 -0.002879 -0.021693
v 0.039421 -0.005038 -0.037530
v 0.044461 -0.026638 -0.026731
v 0.043022 -0.030236 -0.019533
v 0.044461 -0.005038 -0.033929
v 0.040142 -0.025917 -0.036808
v 0.040862 -0.027355 -0.035369
f 283 274 284 
f 261 260 264 
f 262 259 265 
f 260 261 267 
f 265 259 270 
f 267 263 271 
f 264 260 272 
f 260 265 272 
f 259 262 273 
f 262 271 273 
f 271 263 273 
f 266 263 275 
f 263 267 275 
f 267 269 275 
f 264 268 276 
f 265 260 277 
f 262 265 277 
f 260 267 277 
f 271 262 277 
f 267 271 277 
f 261 264 278 
f 267 261 278 
f 269 267 278 
f 264 276 278 
f 276 269 278 
f 263 266 279 
f 259 273 279 
f 273 263 279 
f 268 264 280 
f 264 272 280 
f 274 268 280 
f 265 270 281 
f 272 265 281 
f 280 272 281 
f 270 280 281 
f 274 266 282 
f 268 274 282 
f 266 275 282 
f 275 269 282 
f 276 268 282 
f 269 276 282 
f 266 274 283 
f 259 279 283 
f 279 266 283 
f 270 259 284 
f 280 270 284 
f 274 280 284 
f 259 283 284 
o convex_11
v 0.048061 -0.023760 -0.014488
v 0.036542 -0.034558 0.007110
v 0.037262 -0.034558 0.007110
v 0.045179 -0.022318 0.004228
v 0.039422 -0.025921 -0.014488
v 0.040143 -0.032398 -0.014488
v 0.045901 -0.027360 0.005671
v 0.036542 -0.030236 0.007830
v 0.044461 -0.022318 -0.014488
v 0.048061 -0.022318 0.003510
v 0.043021 -0.030236 -0.014488
v 0.043021 -0.023039 -0.005847
v 0.039423 -0.030956 0.008549
v 0.039422 -0.032398 -0.014488
v 0.048061 -0.024481 -0.009447
v 0.048061 -0.022318 -0.014488
f 293 294 300 
f 287 286 290 
f 289 285 290 
f 289 286 292 
f 285 289 293 
f 293 288 294 
f 290 285 295 
f 287 290 295 
f 291 287 295 
f 292 288 296 
f 289 292 296 
f 288 293 296 
f 293 289 296 
f 286 287 297 
f 287 291 297 
f 292 286 297 
f 288 292 297 
f 294 288 297 
f 291 294 297 
f 286 289 298 
f 290 286 298 
f 289 290 298 
f 294 291 299 
f 285 294 299 
f 295 285 299 
f 291 295 299 
f 285 293 300 
f 294 285 300 
o convex_12
v 0.037982 -0.002152 0.042393
v 0.056701 0.022320 0.039511
v 0.057421 0.021602 0.042393
v 0.058142 0.002887 0.030153
v 0.043745 0.012243 0.030873
v 0.036542 0.018003 0.043834
v 0.058862 0.008647 0.043113
v 0.051659 0.020162 0.030153
v 0.043745 0.001447 0.030153
v 0.048057 -0.000714 0.043834
v 0.059582 0.015123 0.030873
v 0.035101 -0.000714 0.043834
v 0.050938 -0.001433 0.032316
v 0.042304 0.007926 0.030153
v 0.054540 0.000007 0.038071
v 0.060303 0.007926 0.038071
v 0.035101 0.012962 0.043113
v 0.058862 0.015842 0.043113
v 0.045186 -0.000714 0.030153
v 0.050218 0.021602 0.035193
v 0.057421 0.018722 0.030153
v 0.052379 0.022320 0.040953
v 0.045906 -0.002152 0.042393
v 0.048777 0.015123 0.043834
v 0.036542 0.018003 0.043113
v 0.035101 -0.000714 0.043113
v 0.057421 0.021602 0.035915
v 0.056701 0.003606 0.040953
v 0.055981 0.000726 0.030153
v 0.040864 0.005046 0.032316
v 0.059582 0.015842 0.037352
f 311 327 331 
f 308 304 309 
f 301 310 312 
f 310 306 312 
f 305 308 314 
f 308 309 314 
f 304 311 316 
f 312 306 317 
f 307 316 318 
f 309 304 319 
f 313 301 319 
f 304 308 321 
f 311 304 321 
f 303 302 322 
f 306 303 322 
f 302 320 322 
f 310 301 323 
f 301 313 323 
f 315 310 323 
f 313 315 323 
f 303 306 324 
f 306 310 324 
f 310 307 324 
f 318 303 324 
f 307 318 324 
f 308 305 325 
f 305 314 325 
f 317 306 325 
f 314 317 325 
f 320 308 325 
f 306 322 325 
f 322 320 325 
f 301 312 326 
f 312 317 326 
f 309 319 326 
f 319 301 326 
f 302 303 327 
f 320 302 327 
f 308 320 327 
f 321 308 327 
f 311 321 327 
f 307 310 328 
f 315 304 328 
f 310 315 328 
f 316 307 328 
f 304 316 328 
f 304 315 329 
f 315 313 329 
f 319 304 329 
f 313 319 329 
f 314 309 330 
f 317 314 330 
f 309 326 330 
f 326 317 330 
f 316 311 331 
f 303 318 331 
f 318 316 331 
f 327 303 331 
o convex_13
v 0.039422 -0.002155 0.043838
v 0.038702 0.018004 0.066873
v 0.040865 0.019442 0.063272
v 0.032942 0.018004 0.045996
v 0.053102 0.015843 0.045996
v 0.036542 -0.001436 0.065432
v 0.050218 0.001446 0.053916
v 0.032221 -0.001436 0.063272
v 0.032942 0.017283 0.064713
v 0.032942 -0.001436 0.045996
v 0.043739 0.018723 0.043838
v 0.051659 0.005044 0.043838
v 0.046621 0.011524 0.061114
v 0.032221 0.020165 0.053916
v 0.043021 0.002165 0.064713
v 0.045901 -0.002155 0.045277
v 0.037263 -0.003597 0.059673
v 0.051659 0.018004 0.050317
v 0.035105 0.018004 0.043838
v 0.053102 0.002886 0.047437
v 0.036542 0.001446 0.066873
v 0.034381 -0.003597 0.048876
v 0.048060 0.015843 0.058954
v 0.032221 -0.001436 0.048157
v 0.048781 0.005765 0.058234
v 0.034381 0.002165 0.043838
v 0.040143 0.016565 0.066873
v 0.053102 0.010803 0.048876
v 0.034381 0.018004 0.066152
v 0.044458 -0.000715 0.058954
v 0.039422 0.000725 0.066873
v 0.048781 -0.000715 0.049598
v 0.032221 0.015843 0.046718
v 0.047338 0.018723 0.047437
v 0.032221 0.016565 0.062553
v 0.034381 0.000725 0.066152
v 0.051659 0.000725 0.045996
v 0.046621 0.017283 0.060392
v 0.047338 -0.000715 0.043838
v 0.051659 0.010080 0.043838
f 343 342 371 
f 332 342 343 
f 337 339 348 
f 342 332 350 
f 335 345 350 
f 345 342 350 
f 343 336 351 
f 341 332 353 
f 332 347 353 
f 348 339 353 
f 347 348 353 
f 339 345 355 
f 341 353 355 
f 353 339 355 
f 346 338 356 
f 344 346 356 
f 338 351 356 
f 354 344 356 
f 332 341 357 
f 350 332 357 
f 335 350 357 
f 346 344 358 
f 333 352 358 
f 336 349 359 
f 351 336 359 
f 349 354 359 
f 356 351 359 
f 354 356 359 
f 333 334 360 
f 334 345 360 
f 345 340 360 
f 352 333 360 
f 338 346 361 
f 337 348 361 
f 352 337 362 
f 346 358 362 
f 358 352 362 
f 337 361 362 
f 361 346 362 
f 348 347 363 
f 338 361 363 
f 361 348 363 
f 345 335 364 
f 341 355 364 
f 355 345 364 
f 357 341 364 
f 335 357 364 
f 336 342 365 
f 345 334 365 
f 342 345 365 
f 349 336 365 
f 334 349 365 
f 339 340 366 
f 345 339 366 
f 340 345 366 
f 339 337 367 
f 340 339 367 
f 337 352 367 
f 360 340 367 
f 352 360 367 
f 343 351 368 
f 351 338 368 
f 363 347 368 
f 338 363 368 
f 334 333 369 
f 349 334 369 
f 344 354 369 
f 354 349 369 
f 333 358 369 
f 358 344 369 
f 332 343 370 
f 347 332 370 
f 343 368 370 
f 368 347 370 
f 342 336 371 
f 336 343 371 
o convex_14
v -0.044824 -0.025918 -0.025295
v -0.046264 -0.002159 -0.013770
v -0.039785 -0.017273 -0.014491
v -0.039785 0.005761 -0.037532
v -0.039785 -0.025918 -0.035369
v -0.044824 0.006482 -0.031771
v -0.048425 -0.020875 -0.013770
v -0.039785 -0.031679 -0.013770
v -0.043385 -0.021596 -0.035369
v -0.045544 0.007924 -0.020253
v -0.047704 0.004323 -0.021695
v -0.047704 -0.020158 -0.021695
v -0.039785 0.002164 -0.029608
v -0.042666 0.005761 -0.037532
v -0.041945 -0.030958 -0.018092
v -0.048425 -0.005039 -0.013770
v -0.040506 -0.030237 -0.028170
v -0.047704 -0.008640 -0.023132
v -0.041225 -0.025197 -0.036088
v -0.044824 0.007203 -0.020253
v -0.047704 -0.023755 -0.013770
v -0.046984 0.007924 -0.020253
v -0.043385 -0.014397 -0.036088
v -0.048425 -0.005760 -0.017371
f 389 383 395 
f 375 374 376 
f 374 373 379 
f 376 374 379 
f 373 378 379 
f 380 372 383 
f 374 375 384 
f 381 375 385 
f 378 373 387 
f 376 379 388 
f 386 372 388 
f 379 386 388 
f 382 377 389 
f 380 383 389 
f 375 376 390 
f 372 380 390 
f 385 375 390 
f 376 388 390 
f 388 372 390 
f 373 374 391 
f 381 373 391 
f 375 381 391 
f 374 384 391 
f 384 375 391 
f 379 378 392 
f 383 372 392 
f 378 383 392 
f 372 386 392 
f 386 379 392 
f 373 381 393 
f 377 382 393 
f 385 377 393 
f 381 385 393 
f 387 373 393 
f 382 387 393 
f 377 385 394 
f 389 377 394 
f 380 389 394 
f 390 380 394 
f 385 390 394 
f 383 378 395 
f 378 387 395 
f 387 382 395 
f 382 389 395 
o convex_15
v -0.037624 -0.028797 0.008551
v -0.038344 -0.033118 -0.015209
v -0.037624 -0.033118 -0.015209
v -0.035465 -0.023758 -0.025291
v -0.035465 -0.032398 0.009271
v -0.038344 -0.023758 -0.019526
v -0.034744 -0.023758 -0.011610
v -0.034744 -0.029517 -0.019526
v -0.038344 -0.031678 0.009271
v -0.038344 -0.028080 0.006389
v -0.038344 -0.031678 -0.018088
v -0.037624 -0.033118 0.007109
v -0.036185 -0.033118 -0.007296
v -0.035465 -0.030237 0.008551
f 400 402 409 
f 399 401 402 
f 402 400 403 
f 399 402 403 
f 400 396 404 
f 401 397 404 
f 401 404 405 
f 402 401 405 
f 396 402 405 
f 404 396 405 
f 398 397 406 
f 397 401 406 
f 401 399 406 
f 403 398 406 
f 399 403 406 
f 397 398 407 
f 400 404 407 
f 404 397 407 
f 403 400 408 
f 398 403 408 
f 407 398 408 
f 400 407 408 
f 396 400 409 
f 402 396 409 
o convex_16
v -0.037625 0.014403 0.036633
v -0.056346 0.002166 0.035193
v -0.056346 0.002166 0.036633
v -0.043388 -0.010077 0.030874
v -0.050583 0.017285 0.027273
v -0.038345 0.011524 0.027273
v -0.055624 0.016564 0.036633
v -0.050583 0.000004 0.027273
v -0.036904 0.004322 0.036633
v -0.039066 0.017285 0.027273
v -0.054905 0.010083 0.028713
v -0.044828 -0.007916 0.034472
v -0.046267 -0.010077 0.029433
v -0.039066 0.003604 0.027273
v -0.039785 0.017285 0.035912
v -0.046983 -0.002155 0.036633
v -0.056346 0.013682 0.033752
v -0.053464 0.003604 0.027993
v -0.036904 0.011524 0.033031
v -0.054905 0.017285 0.033752
v -0.038345 0.002886 0.029433
v -0.046983 -0.008636 0.033031
f 422 413 431 
f 412 410 416 
f 414 415 417 
f 410 412 418 
f 415 414 419 
f 413 418 421 
f 412 411 422 
f 417 415 423 
f 413 422 423 
f 422 417 423 
f 416 410 424 
f 410 419 424 
f 419 414 424 
f 418 412 425 
f 412 421 425 
f 421 418 425 
f 411 412 426 
f 412 416 426 
f 420 411 426 
f 414 417 427 
f 411 420 427 
f 420 414 427 
f 422 411 427 
f 417 422 427 
f 410 418 428 
f 419 410 428 
f 415 419 428 
f 414 420 429 
f 416 424 429 
f 424 414 429 
f 426 416 429 
f 420 426 429 
f 418 413 430 
f 423 415 430 
f 413 423 430 
f 428 418 430 
f 415 428 430 
f 421 412 431 
f 413 421 431 
f 412 422 431 
o convex_17
v -0.046983 0.020166 0.036633
v -0.049863 0.017285 0.027273
v -0.050583 0.017285 0.027993
v -0.048422 0.025925 0.027273
v -0.031868 0.018005 0.027273
v -0.039787 0.025925 0.034472
v -0.040507 0.017285 0.035912
v -0.032586 0.025205 0.027273
v -0.052025 0.018726 0.036633
v -0.049863 0.025925 0.033752
v -0.033306 0.025205 0.029433
v -0.052025 0.017285 0.031594
v -0.033306 0.017285 0.029433
v -0.039787 0.025205 0.035193
v -0.052025 0.017285 0.036633
f 440 443 446 
f 433 434 435 
f 433 435 436 
f 434 433 438 
f 436 435 439 
f 435 437 439 
f 437 435 441 
f 440 432 441 
f 436 439 442 
f 439 437 442 
f 435 434 443 
f 434 438 443 
f 441 435 443 
f 440 441 443 
f 433 436 444 
f 438 433 444 
f 436 442 444 
f 442 438 444 
f 432 438 445 
f 441 432 445 
f 437 441 445 
f 438 442 445 
f 442 437 445 
f 438 432 446 
f 432 440 446 
f 443 438 446 
o convex_18
v 0.038701 -0.013680 -0.045453
v 0.017821 -0.017279 -0.059854
v 0.016380 -0.017999 -0.059133
v 0.037976 -0.025916 -0.058413
v 0.021421 -0.026638 -0.045453
v 0.011339 -0.013680 -0.045453
v 0.037976 -0.014399 -0.059854
v 0.034379 -0.026638 -0.045453
v 0.017821 -0.025196 -0.054811
v 0.018540 -0.013680 -0.055532
v 0.013502 -0.021597 -0.045453
v 0.038701 -0.022316 -0.045453
v 0.040141 -0.017279 -0.055532
v 0.019980 -0.026638 -0.054091
v 0.017102 -0.015120 -0.059133
v 0.029340 -0.025916 -0.057693
v 0.037976 -0.013680 -0.057693
v 0.012061 -0.015839 -0.049054
v 0.037976 -0.017999 -0.059854
v 0.034379 -0.026638 -0.055532
v 0.012780 -0.013680 -0.051215
v 0.015661 -0.023037 -0.052653
f 457 464 468 
f 451 447 452 
f 447 451 454 
f 452 447 456 
f 451 452 457 
f 447 454 458 
f 454 450 458 
f 447 458 459 
f 458 450 459 
f 454 451 460 
f 451 457 460 
f 457 455 460 
f 448 449 461 
f 453 448 461 
f 456 453 461 
f 449 448 462 
f 448 450 462 
f 455 449 462 
f 460 455 462 
f 456 447 463 
f 453 456 463 
f 447 459 463 
f 459 453 463 
f 457 452 464 
f 450 448 465 
f 448 453 465 
f 453 459 465 
f 459 450 465 
f 450 454 466 
f 454 460 466 
f 462 450 466 
f 460 462 466 
f 452 456 467 
f 461 449 467 
f 456 461 467 
f 449 464 467 
f 464 452 467 
f 449 455 468 
f 455 457 468 
f 464 449 468 
o convex_19
v 0.040861 0.003611 -0.051936
v 0.009899 -0.009352 -0.046173
v 0.009899 -0.009352 -0.045453
v 0.010620 0.019442 -0.045453
v 0.016385 0.010081 -0.059133
v 0.037979 0.020884 -0.045453
v 0.037979 -0.013677 -0.057693
v 0.037979 -0.013677 -0.045453
v 0.036539 0.017283 -0.059854
v 0.014942 -0.013677 -0.053371
v 0.025026 0.023764 -0.051215
v 0.032218 -0.010076 -0.059133
v 0.040140 0.014403 -0.057693
v 0.011342 -0.013677 -0.045453
v 0.022143 0.023764 -0.045453
v 0.012060 -0.010793 -0.051936
v 0.009899 0.008643 -0.046893
v 0.037979 0.005049 -0.059854
v 0.040861 -0.002870 -0.054091
v 0.031499 0.023764 -0.048334
v 0.021425 -0.010076 -0.056972
v 0.020704 0.008643 -0.059854
v 0.015661 0.017283 -0.053371
v 0.016385 0.007201 -0.059133
v 0.040861 -0.002870 -0.050495
v 0.037979 -0.010076 -0.059133
v 0.027177 -0.013677 -0.056972
v 0.035100 0.017283 -0.059854
v 0.038700 -0.010793 -0.045453
v 0.010620 0.019442 -0.046173
v 0.014942 -0.010076 -0.054811
f 492 489 499 
f 472 471 474 
f 474 471 476 
f 475 476 478 
f 474 469 481 
f 477 474 481 
f 471 470 482 
f 476 471 482 
f 478 476 482 
f 472 474 483 
f 482 470 484 
f 478 482 484 
f 470 471 485 
f 471 472 485 
f 484 470 485 
f 473 484 485 
f 477 481 486 
f 476 475 487 
f 481 469 487 
f 474 477 488 
f 477 479 488 
f 483 474 488 
f 479 483 488 
f 477 486 490 
f 486 480 490 
f 484 473 492 
f 480 489 492 
f 490 480 492 
f 473 490 492 
f 469 474 493 
f 487 469 493 
f 476 487 493 
f 475 480 494 
f 480 486 494 
f 486 481 494 
f 487 475 494 
f 481 487 494 
f 475 478 495 
f 480 475 495 
f 478 489 495 
f 489 480 495 
f 479 477 496 
f 490 473 496 
f 477 490 496 
f 473 491 496 
f 491 479 496 
f 474 476 497 
f 493 474 497 
f 476 493 497 
f 472 483 498 
f 483 479 498 
f 485 472 498 
f 473 485 498 
f 491 473 498 
f 479 491 498 
f 478 484 499 
f 489 478 499 
f 484 492 499 
o convex_20
v 0.030777 -0.010077 0.053911
v 0.009899 -0.008637 0.043114
v 0.009899 -0.006477 0.043114
v 0.009899 -0.015117 0.060395
v 0.009899 -0.006477 0.057512
v 0.031501 -0.006477 0.059674
v 0.027177 -0.015117 0.056073
v 0.027900 -0.006477 0.043834
v 0.017820 -0.011517 0.043834
v 0.009899 -0.014397 0.051754
v 0.025739 -0.015117 0.060395
v 0.010620 -0.010797 0.060395
v 0.026460 -0.011517 0.047436
v 0.022138 -0.015117 0.052472
v 0.030777 -0.007197 0.048156
v 0.023580 -0.009358 0.043114
v 0.031501 -0.009358 0.058233
f 514 505 516 
f 502 501 503 
f 502 503 504 
f 502 504 505 
f 502 505 507 
f 503 501 509 
f 501 508 509 
f 503 506 510 
f 504 503 511 
f 505 504 511 
f 503 510 511 
f 510 505 511 
f 508 512 513 
f 506 503 513 
f 503 509 513 
f 509 508 513 
f 512 506 513 
f 500 506 514 
f 507 505 514 
f 506 512 514 
f 512 507 514 
f 501 502 515 
f 502 507 515 
f 508 501 515 
f 507 512 515 
f 512 508 515 
f 506 500 516 
f 505 510 516 
f 510 506 516 
f 500 514 516 
o convex_21
v 0.045902 -0.003598 -0.014490
v 0.047342 -0.021597 0.004231
v 0.048062 -0.020877 0.003511
v 0.048062 -0.022318 -0.014490
v 0.045182 -0.022318 -0.014490
v 0.048782 -0.005758 -0.009449
v 0.045182 -0.021597 0.002791
v 0.046622 -0.007918 -0.002971
v 0.048062 -0.002877 -0.014490
v 0.048782 -0.017996 -0.010169
v 0.048062 -0.007918 -0.002971
v 0.045182 -0.012955 -0.014490
v 0.048062 -0.022318 0.003511
v 0.045902 -0.007918 -0.003691
f 528 523 530 
f 517 520 521 
f 523 518 524 
f 520 517 525 
f 517 524 525 
f 520 525 526 
f 525 522 526 
f 518 519 527 
f 519 522 527 
f 524 518 527 
f 522 525 527 
f 525 524 527 
f 517 521 528 
f 521 523 528 
f 519 518 529 
f 521 520 529 
f 522 519 529 
f 523 521 529 
f 518 523 529 
f 520 526 529 
f 526 522 529 
f 524 517 530 
f 523 524 530 
f 517 528 530 
o convex_22
v 0.004857 -0.023040 0.014313
v -0.000901 -0.040317 0.012152
v 0.001259 -0.040317 0.012152
v 0.003418 -0.031676 0.030153
v -0.006662 -0.018000 0.030153
v -0.005941 -0.029516 0.004951
v 0.009899 -0.019442 0.030153
v -0.006662 -0.029516 0.030153
v 0.006299 -0.030237 0.004951
v 0.009899 -0.028801 0.030153
v 0.009899 -0.020882 0.020788
v -0.006662 -0.033837 0.016474
v -0.006662 -0.020882 0.019350
v 0.008458 -0.030955 0.015754
v 0.000539 -0.036717 0.022949
v 0.007018 -0.018721 0.025110
v -0.000901 -0.033837 0.004951
v -0.003781 -0.028080 0.004951
v 0.005577 -0.036717 0.017910
v -0.003781 -0.037435 0.018630
v 0.006299 -0.028080 0.005671
v -0.005941 -0.031676 0.005671
v 0.006299 -0.031676 0.005671
v 0.007738 -0.018000 0.030153
v -0.005941 -0.018000 0.027271
v -0.001620 -0.032395 0.029432
v 0.004138 -0.036717 0.020788
v 0.009899 -0.023761 0.019350
v -0.006662 -0.025201 0.011432
v 0.000539 -0.038156 0.008553
f 547 553 560 
f 535 534 537 
f 534 535 538 
f 537 534 540 
f 537 540 541 
f 538 535 542 
f 542 535 543 
f 532 533 545 
f 541 531 546 
f 531 543 546 
f 536 539 547 
f 539 536 548 
f 543 531 548 
f 544 540 549 
f 542 532 550 
f 538 542 550 
f 532 545 550 
f 531 541 551 
f 539 548 551 
f 548 531 551 
f 532 542 552 
f 536 547 552 
f 539 544 553 
f 547 539 553 
f 549 533 553 
f 544 549 553 
f 535 537 554 
f 537 541 554 
f 541 546 554 
f 554 546 555 
f 543 535 555 
f 546 543 555 
f 535 554 555 
f 534 538 556 
f 545 534 556 
f 538 550 556 
f 550 545 556 
f 540 534 557 
f 545 533 557 
f 534 545 557 
f 533 549 557 
f 549 540 557 
f 541 540 558 
f 544 539 558 
f 540 544 558 
f 551 541 558 
f 539 551 558 
f 542 543 559 
f 548 536 559 
f 543 548 559 
f 552 542 559 
f 536 552 559 
f 533 532 560 
f 532 552 560 
f 552 547 560 
f 553 533 560 
o convex_23
v 0.020700 -0.020159 0.030153
v 0.009899 -0.023757 0.021512
v 0.009899 -0.020879 0.021512
v 0.009899 -0.019438 0.030153
v 0.009899 -0.027358 0.030153
v 0.014221 -0.026637 0.025114
v 0.020700 -0.023039 0.029432
v 0.017099 -0.019438 0.026551
f 567 562 568 
f 563 562 564 
f 561 564 565 
f 564 562 565 
f 565 562 566 
f 561 565 567 
f 566 562 567 
f 565 566 567 
f 562 563 568 
f 563 564 568 
f 564 561 568 
f 561 567 568 
o convex_24
v -0.048425 -0.003597 -0.010887
v -0.044825 -0.023755 0.006391
v -0.044825 -0.020875 0.004950
v -0.044825 -0.026638 -0.013770
v -0.048425 -0.020875 -0.005849
v -0.045545 -0.005758 -0.013770
v -0.048425 -0.020875 -0.013770
v -0.047705 -0.007199 -0.002253
v -0.046985 -0.023755 0.004950
v -0.044825 -0.010800 -0.002253
v -0.046265 -0.002157 -0.013770
v -0.047705 -0.018716 0.003510
v -0.046985 -0.025198 -0.013050
v -0.045545 -0.025917 0.006391
v -0.048425 -0.007199 -0.003690
v -0.048425 -0.003597 -0.013770
v -0.045545 -0.007920 -0.002253
f 578 579 585 
f 571 570 572 
f 574 572 575 
f 573 569 575 
f 571 572 578 
f 572 574 578 
f 574 575 579 
f 569 576 579 
f 578 574 579 
f 570 571 580 
f 571 576 580 
f 573 577 580 
f 575 572 581 
f 573 575 581 
f 577 573 581 
f 577 581 582 
f 572 570 582 
f 570 580 582 
f 580 577 582 
f 581 572 582 
f 569 573 583 
f 576 569 583 
f 573 580 583 
f 580 576 583 
f 575 569 584 
f 579 575 584 
f 569 579 584 
f 576 571 585 
f 571 578 585 
f 579 576 585 
o convex_25
v -0.039785 -0.027357 0.007830
v -0.040505 -0.031679 -0.013770
v -0.039785 -0.031679 -0.013770
v -0.044824 -0.023038 -0.013770
v -0.044824 -0.026640 0.006390
v -0.039785 -0.025919 -0.013770
v -0.044104 -0.022318 0.004950
v -0.040505 -0.030237 0.008551
v -0.044824 -0.027357 -0.013770
f 587 590 594 
f 588 587 589 
f 586 588 591 
f 588 589 591 
f 591 589 592 
f 590 586 592 
f 589 590 592 
f 586 591 592 
f 588 586 593 
f 587 588 593 
f 586 590 593 
f 590 587 593 
f 589 587 594 
f 590 589 594 
o convex_26
v -0.034744 -0.025200 -0.026006
v -0.018183 -0.023759 -0.013057
v -0.018183 -0.024479 -0.013057
v -0.028981 -0.023759 0.003511
v -0.026822 -0.033838 -0.007292
v -0.026104 -0.023759 -0.037532
v -0.034744 -0.029517 -0.019530
v -0.026822 -0.026640 -0.037532
v -0.018905 -0.025920 -0.023840
v -0.034744 -0.023759 -0.009454
v -0.027542 -0.028798 0.002069
v -0.030424 -0.026640 -0.037532
v -0.018905 -0.024479 -0.007292
v -0.026822 -0.033838 -0.010892
v -0.034022 -0.023759 -0.031048
v -0.028981 -0.031676 -0.003692
v -0.018183 -0.023759 -0.023840
v -0.026104 -0.023759 0.003511
v -0.023223 -0.029516 -0.003692
v -0.028981 -0.030957 -0.023129
v -0.028981 -0.028081 0.002069
v -0.019625 -0.026640 -0.009458
v -0.028261 -0.033838 -0.010892
v -0.026104 -0.025922 0.003511
f 615 605 618 
f 598 596 600 
f 598 600 604 
f 595 601 604 
f 600 602 606 
f 597 596 607 
f 602 603 608 
f 601 595 609 
f 604 600 609 
f 595 604 609 
f 600 606 609 
f 606 601 609 
f 604 601 610 
f 599 605 610 
f 596 597 611 
f 600 596 611 
f 602 600 611 
f 597 603 611 
f 603 602 611 
f 596 598 612 
f 607 596 612 
f 605 599 613 
f 601 606 614 
f 606 602 614 
f 602 608 614 
f 598 604 615 
f 604 610 615 
f 610 605 615 
f 603 597 616 
f 597 607 616 
f 599 608 616 
f 608 603 616 
f 607 613 616 
f 613 599 616 
f 608 599 617 
f 599 610 617 
f 610 601 617 
f 601 614 617 
f 614 608 617 
f 612 598 618 
f 607 612 618 
f 613 607 618 
f 605 613 618 
f 598 615 618 
o convex_27
v -0.009543 -0.002149 -0.002970
v -0.034024 0.020161 0.003510
v -0.034024 0.020161 0.004231
v -0.029700 -0.023758 -0.002970
v -0.011703 -0.015830 0.004231
v -0.011703 0.028084 -0.002970
v -0.008823 0.022320 0.004231
v -0.032583 0.029525 -0.002970
v -0.028259 -0.022317 0.004231
v -0.029700 0.030966 0.004231
v -0.033303 -0.018717 -0.002970
v -0.013867 -0.017989 -0.002970
v -0.033303 -0.015830 0.002070
v -0.008102 0.021602 -0.002970
v -0.009543 -0.007190 0.004231
v -0.018904 -0.021594 0.000631
v -0.022499 0.030966 0.004231
v -0.034024 0.029525 0.003510
v -0.021779 0.030243 -0.002970
v -0.010987 -0.012948 -0.002970
v -0.028980 -0.023758 0.003510
v -0.023943 -0.023758 -0.002970
v -0.032583 -0.012230 0.003510
v -0.008102 0.021602 0.002790
v -0.026102 -0.023758 0.003510
v -0.017468 0.028802 0.004231
f 635 625 644 
f 619 622 624 
f 621 623 625 
f 624 622 626 
f 623 621 627 
f 621 625 628 
f 621 620 629 
f 626 622 629 
f 622 619 630 
f 621 629 631 
f 619 624 632 
f 625 623 633 
f 619 632 633 
f 630 623 634 
f 628 625 635 
f 620 621 636 
f 621 628 636 
f 628 626 636 
f 629 620 636 
f 626 629 636 
f 624 626 637 
f 626 628 637 
f 635 624 637 
f 628 635 637 
f 630 619 638 
f 623 630 638 
f 619 633 638 
f 633 623 638 
f 629 622 639 
f 631 629 639 
f 622 630 640 
f 630 634 640 
f 639 622 640 
f 627 621 641 
f 621 631 641 
f 639 627 641 
f 631 639 641 
f 624 625 642 
f 632 624 642 
f 625 633 642 
f 633 632 642 
f 623 627 643 
f 634 623 643 
f 627 639 643 
f 640 634 643 
f 639 640 643 
f 625 624 644 
f 624 635 644 
o convex_28
v -0.008822 0.017998 0.009991
v -0.038344 0.005767 0.009271
v -0.031860 -0.003592 0.004231
v -0.034744 0.029525 0.004231
v -0.011703 -0.015837 0.004231
v -0.014584 -0.016555 0.009991
v -0.008822 0.023042 0.004231
v -0.028262 0.030966 0.009991
v -0.034021 -0.005033 0.009991
v -0.009545 -0.007913 0.009991
v -0.034744 0.027363 0.009991
v -0.021063 -0.013674 0.004231
v -0.018185 0.029525 0.006391
v -0.037622 0.022324 0.004951
v -0.012423 0.025922 0.009991
v -0.022508 0.030966 0.004231
v -0.009545 -0.007195 0.004231
v -0.037622 0.023764 0.008551
v -0.033299 -0.005755 0.007111
v -0.015304 -0.017278 0.008551
v -0.038344 0.009356 0.009991
v -0.011703 -0.015837 0.009991
v -0.036899 0.020156 0.004231
v -0.008822 0.023042 0.009991
v -0.014584 -0.017278 0.004231
f 666 664 669 
f 647 648 649 
f 649 648 651 
f 650 645 652 
f 650 652 653 
f 645 650 654 
f 652 648 655 
f 653 652 655 
f 647 649 656 
f 652 645 659 
f 651 657 659 
f 657 652 659 
f 651 648 660 
f 648 652 660 
f 657 651 660 
f 652 657 660 
f 651 645 661 
f 649 651 661 
f 654 649 661 
f 645 654 661 
f 655 648 662 
f 648 658 662 
f 646 647 663 
f 653 646 663 
f 647 656 663 
f 663 656 664 
f 650 653 664 
f 653 663 664 
f 646 653 665 
f 653 655 665 
f 658 646 665 
f 655 662 665 
f 662 658 665 
f 649 654 666 
f 654 650 666 
f 650 664 666 
f 647 646 667 
f 648 647 667 
f 646 658 667 
f 658 648 667 
f 645 651 668 
f 659 645 668 
f 651 659 668 
f 656 649 669 
f 664 656 669 
f 649 666 669 
o convex_29
v -0.046266 0.000725 0.022234
v -0.045545 0.017285 0.027273
v -0.045545 0.017285 0.023672
v -0.052025 0.012244 0.027273
v -0.045545 0.000004 0.027273
v -0.045545 0.010082 0.017912
v -0.050584 0.005764 0.020793
v -0.050584 0.000725 0.027273
v -0.050584 0.011523 0.020793
v -0.049864 0.017285 0.026552
v -0.052025 0.005764 0.025112
f 678 676 680 
f 672 671 674 
f 671 673 674 
f 674 670 675 
f 672 674 675 
f 675 670 676 
f 670 674 677 
f 674 673 677 
f 676 670 677 
f 672 675 678 
f 675 676 678 
f 671 672 679 
f 673 671 679 
f 672 678 679 
f 678 673 679 
f 677 673 680 
f 676 677 680 
f 673 678 680 
o convex_30
v -0.046986 0.026646 0.026551
v -0.052024 0.017285 0.011433
v -0.050585 0.017285 0.011433
v -0.049865 0.017285 0.027273
v -0.054185 0.025925 0.022951
v -0.049145 0.026646 0.010711
v -0.045545 0.017285 0.025112
v -0.053465 0.018005 0.026551
v -0.045545 0.025204 0.019352
v -0.054185 0.025204 0.015755
v -0.052744 0.025925 0.027273
v -0.054185 0.018005 0.017914
v -0.045545 0.025925 0.027273
v -0.052744 0.026646 0.012154
v -0.049145 0.019446 0.011433
v -0.045545 0.021607 0.019352
f 687 695 696 
f 682 683 684 
f 683 682 686 
f 684 683 687 
f 682 684 688 
f 688 684 691 
f 685 688 691 
f 682 688 692 
f 688 685 692 
f 690 682 692 
f 685 690 692 
f 686 681 693 
f 684 687 693 
f 689 686 693 
f 687 689 693 
f 681 691 693 
f 691 684 693 
f 686 682 694 
f 681 686 694 
f 682 690 694 
f 690 685 694 
f 691 681 694 
f 685 691 694 
f 683 686 695 
f 687 683 695 
f 686 689 696 
f 689 687 696 
f 695 686 696 
o convex_31
v -0.008822 -0.002151 0.012872
v -0.014582 0.027359 0.025112
v -0.015303 0.027359 0.025112
v -0.012421 -0.008633 0.025112
v -0.015303 -0.007911 0.009991
v -0.012421 0.025919 0.009991
v -0.008822 0.025201 0.025112
v -0.008822 0.023039 0.009991
v -0.015303 -0.007911 0.025112
v -0.011703 -0.015833 0.009991
v -0.008822 -0.005031 0.025112
v -0.015303 0.025919 0.009991
v -0.009543 -0.008633 0.009991
v -0.013861 -0.015833 0.010714
v -0.014582 0.028081 0.021511
v -0.009543 -0.007911 0.025112
f 709 707 712 
f 698 699 700 
f 698 700 703 
f 701 702 704 
f 703 697 704 
f 702 703 704 
f 700 699 705 
f 699 701 705 
f 701 704 706 
f 697 703 707 
f 703 700 707 
f 701 699 708 
f 702 701 708 
f 704 697 709 
f 706 704 709 
f 697 707 709 
f 700 705 710 
f 705 701 710 
f 701 706 710 
f 706 700 710 
f 699 698 711 
f 703 702 711 
f 698 703 711 
f 708 699 711 
f 702 708 711 
f 700 706 712 
f 707 700 712 
f 706 709 712 
o convex_32
v -0.007382 0.002164 0.028712
v -0.024663 -0.005755 0.027994
v -0.024663 -0.005755 0.029432
v -0.012423 0.018005 0.031593
v -0.011702 0.018005 0.025112
v -0.009542 -0.007917 0.025112
v -0.009542 -0.007917 0.031593
v -0.023943 -0.006476 0.025112
v -0.007382 0.018005 0.031593
v -0.020340 -0.007194 0.031593
v -0.008823 0.018005 0.025112
v -0.024663 -0.004314 0.027274
v -0.023943 -0.003596 0.030872
v -0.007382 -0.000716 0.031593
v -0.008103 -0.001434 0.025112
v -0.007382 0.011522 0.027994
v -0.016023 -0.007917 0.026554
f 722 720 729 
f 715 714 720 
f 717 718 720 
f 717 716 721 
f 716 719 721 
f 719 716 722 
f 715 720 722 
f 718 717 723 
f 717 721 723 
f 714 715 724 
f 716 717 724 
f 720 714 724 
f 717 720 724 
f 715 722 725 
f 722 716 725 
f 724 715 725 
f 716 724 725 
f 719 718 726 
f 713 721 726 
f 721 719 726 
f 718 723 727 
f 713 726 727 
f 726 718 727 
f 721 713 728 
f 723 721 728 
f 727 723 728 
f 713 727 728 
f 718 719 729 
f 720 718 729 
f 719 722 729 
o convex_33
v -0.025383 0.024485 0.025834
v -0.016025 0.028806 0.026554
v -0.016025 0.028806 0.025112
v -0.007382 0.018005 0.030872
v -0.008823 0.018005 0.025112
v -0.020342 0.025924 0.031593
v -0.018903 0.019447 0.030152
v -0.007382 0.023047 0.031593
v -0.008823 0.025204 0.025112
v -0.024661 0.023047 0.025112
v -0.012423 0.018005 0.031593
v -0.021780 0.028084 0.025112
v -0.011703 0.018005 0.025112
v -0.020342 0.022326 0.031593
f 736 740 743 
f 731 735 737 
f 732 731 738 
f 733 734 738 
f 734 732 738 
f 731 737 738 
f 737 733 738 
f 732 734 739 
f 736 730 739 
f 734 733 740 
f 733 737 740 
f 737 735 740 
f 731 732 741 
f 735 731 741 
f 730 735 741 
f 739 730 741 
f 732 739 741 
f 739 734 742 
f 736 739 742 
f 734 740 742 
f 740 736 742 
f 735 730 743 
f 730 736 743 
f 740 735 743 
o convex_34
v -0.022504 -0.027358 0.043837
v -0.026104 -0.043916 0.038077
v -0.029703 -0.035998 0.037356
v -0.027543 -0.038157 0.054635
v -0.022504 -0.041757 0.036636
v -0.022504 -0.034560 0.054635
v -0.025384 -0.028801 0.054635
v -0.022504 -0.030240 0.034473
v -0.029703 -0.031681 0.037356
v -0.023944 -0.043916 0.039513
v -0.027543 -0.043916 0.040956
v -0.022504 -0.028801 0.054635
v -0.025384 -0.038157 0.054635
v -0.026823 -0.031681 0.054635
v -0.023224 -0.034560 0.034473
v -0.023224 -0.027358 0.042397
f 751 752 759 
f 748 744 749 
f 747 749 750 
f 744 748 751 
f 746 747 752 
f 745 748 753 
f 748 749 753 
f 746 745 754 
f 747 746 754 
f 745 753 754 
f 749 744 755 
f 744 750 755 
f 750 749 755 
f 749 747 756 
f 753 749 756 
f 747 754 756 
f 754 753 756 
f 747 750 757 
f 752 747 757 
f 750 752 757 
f 745 746 758 
f 748 745 758 
f 751 748 758 
f 746 752 758 
f 752 751 758 
f 750 744 759 
f 744 751 759 
f 752 750 759 
o convex_35
v -0.008104 -0.020161 0.040956
v -0.011704 -0.040317 0.036635
v -0.022502 -0.038156 0.035916
v -0.022502 -0.034556 0.054632
v -0.018902 -0.019442 0.031595
v -0.006664 -0.038156 0.054632
v -0.006664 -0.030955 0.031595
v -0.022502 -0.028801 0.054632
v -0.006664 -0.028080 0.054632
v -0.006664 -0.018000 0.031595
v -0.017462 -0.039596 0.046713
v -0.022502 -0.028801 0.033036
v -0.006664 -0.040317 0.038076
v -0.018181 -0.036717 0.032317
v -0.013863 -0.018721 0.035916
v -0.021061 -0.023040 0.031595
v -0.013863 -0.038156 0.054632
v -0.009544 -0.039596 0.035196
v -0.021781 -0.036717 0.051750
v -0.022502 -0.025922 0.043114
v -0.006664 -0.039596 0.048151
v -0.019621 -0.020161 0.034477
v -0.016742 -0.028080 0.054632
v -0.006664 -0.018721 0.037357
f 769 774 783 
f 762 763 767 
f 763 765 767 
f 767 765 768 
f 765 766 768 
f 768 766 769 
f 766 764 769 
f 762 761 770 
f 762 767 771 
f 766 765 772 
f 770 761 772 
f 761 762 773 
f 762 771 773 
f 767 760 774 
f 769 764 774 
f 764 766 775 
f 766 773 775 
f 773 771 775 
f 765 763 776 
f 772 761 777 
f 766 772 777 
f 761 773 777 
f 773 766 777 
f 763 762 778 
f 762 770 778 
f 776 763 778 
f 770 776 778 
f 771 767 779 
f 775 771 779 
f 772 765 780 
f 770 772 780 
f 765 776 780 
f 776 770 780 
f 767 774 781 
f 774 764 781 
f 764 775 781 
f 779 767 781 
f 775 779 781 
f 760 767 782 
f 767 768 782 
f 768 760 782 
f 760 768 783 
f 768 769 783 
f 774 760 783 
o convex_36
v -0.026819 -0.037436 0.057515
v 0.030781 -0.024480 0.061834
v 0.030781 -0.027362 0.061834
v 0.029336 -0.038157 0.053914
v -0.020340 -0.028081 0.054635
v -0.028264 -0.025200 0.062555
v 0.025735 -0.024480 0.056797
v 0.014933 -0.038879 0.058235
v -0.027535 -0.038156 0.054635
v 0.027174 -0.028800 0.053914
v -0.012422 -0.030960 0.061834
v -0.024657 -0.025200 0.056796
v -0.027535 -0.035997 0.059674
v -0.006660 -0.028082 0.053914
v 0.027897 -0.036717 0.058955
v 0.023573 -0.027362 0.062555
v -0.006660 -0.024480 0.056797
v -0.012422 -0.038879 0.058235
v -0.026096 -0.029521 0.054635
v -0.006660 -0.036717 0.053914
v -0.006660 -0.024480 0.062555
v 0.017095 -0.027362 0.053914
v -0.028264 -0.027362 0.062555
v 0.011338 -0.038879 0.055356
v -0.008099 -0.038156 0.058955
v 0.014933 -0.030242 0.061834
v 0.029336 -0.033116 0.053914
v 0.030058 -0.036717 0.058235
f 798 791 811 
f 785 786 787 
f 790 785 793 
f 792 784 796 
f 793 787 797 
f 788 795 797 
f 786 785 799 
f 798 786 799 
f 785 790 800 
f 795 789 800 
f 797 795 800 
f 784 792 801 
f 796 784 801 
f 792 789 802 
f 795 788 802 
f 789 795 802 
f 797 792 802 
f 788 797 802 
f 787 792 803 
f 797 787 803 
f 792 797 803 
f 799 785 804 
f 789 799 804 
f 785 800 804 
f 800 789 804 
f 790 793 805 
f 793 797 805 
f 800 790 805 
f 797 800 805 
f 789 792 806 
f 792 796 806 
f 796 794 806 
f 794 799 806 
f 799 789 806 
f 787 791 807 
f 792 787 807 
f 791 801 807 
f 801 792 807 
f 794 796 808 
f 791 798 808 
f 801 791 808 
f 796 801 808 
f 799 794 809 
f 798 799 809 
f 794 808 809 
f 808 798 809 
f 785 787 810 
f 793 785 810 
f 787 793 810 
f 787 786 811 
f 791 787 811 
f 786 798 811 
o convex_37
v 0.016377 -0.024477 0.062555
v -0.006659 -0.014398 0.061113
v -0.006659 -0.014398 0.056076
v -0.028255 -0.025198 0.062555
v 0.027175 -0.024477 0.057516
v 0.030775 -0.015118 0.062555
v -0.024656 -0.025198 0.057516
v -0.028984 -0.014398 0.062555
v 0.019254 -0.015118 0.055355
v -0.021779 -0.014398 0.055355
v -0.006659 -0.025198 0.056797
v 0.030775 -0.024477 0.061833
v 0.027175 -0.015118 0.056797
v 0.031497 -0.015118 0.060393
v -0.028984 -0.014398 0.061113
v 0.012777 -0.024477 0.056797
v -0.006659 -0.025198 0.062555
v 0.019254 -0.015839 0.055355
v -0.026095 -0.025198 0.058237
f 826 821 830 
f 815 812 817 
f 813 814 819 
f 817 813 819 
f 815 817 819 
f 819 814 821 
f 814 820 821 
f 815 818 822 
f 818 821 822 
f 817 812 823 
f 822 816 823 
f 820 814 824 
f 814 813 825 
f 813 817 825 
f 823 816 825 
f 817 823 825 
f 824 814 825 
f 816 824 825 
f 815 819 826 
f 819 821 826 
f 816 822 827 
f 812 815 828 
f 815 822 828 
f 823 812 828 
f 822 823 828 
f 821 820 829 
f 822 821 829 
f 820 824 829 
f 824 816 829 
f 816 827 829 
f 827 822 829 
f 818 815 830 
f 821 818 830 
f 815 826 830 
o convex_38
v -0.006662 0.029526 0.038073
v -0.020343 0.022328 0.031594
v -0.020343 0.022328 0.036634
v -0.006662 0.016565 0.043113
v -0.013144 0.033125 0.043113
v -0.007383 0.016565 0.031594
v -0.008103 0.031684 0.034475
v -0.013144 0.016565 0.043113
v -0.007383 0.033125 0.043113
v -0.018902 0.025924 0.031594
v -0.012423 0.033846 0.037353
v -0.013144 0.016565 0.031594
v -0.007383 0.025205 0.031594
v -0.014582 0.018727 0.043113
v -0.020343 0.024486 0.036634
v -0.018902 0.020168 0.036634
v -0.007383 0.033846 0.038792
v -0.006662 0.019447 0.034475
v -0.013144 0.033846 0.041672
f 847 841 849 
f 834 835 838 
f 836 834 838 
f 834 831 839 
f 835 834 839 
f 836 832 840 
f 837 840 841 
f 832 836 842 
f 836 838 842 
f 836 840 843 
f 840 837 843 
f 833 838 844 
f 838 835 844 
f 832 833 845 
f 840 832 845 
f 833 844 845 
f 844 835 845 
f 833 832 846 
f 838 833 846 
f 832 842 846 
f 842 838 846 
f 839 831 847 
f 837 841 847 
f 831 843 847 
f 843 837 847 
f 831 834 848 
f 834 836 848 
f 843 831 848 
f 836 843 848 
f 835 839 849 
f 841 840 849 
f 840 845 849 
f 845 835 849 
f 839 847 849 
o convex_39
v -0.006662 -0.014397 0.059674
v -0.021059 -0.007918 0.043114
v -0.021059 -0.005758 0.043114
v -0.028984 -0.006479 0.060395
v -0.006662 -0.004317 0.047436
v -0.024662 -0.014397 0.056073
v -0.006662 -0.012956 0.047436
v -0.006662 -0.007197 0.058954
v -0.028984 -0.004317 0.047436
v -0.026099 -0.004317 0.060395
v -0.006662 -0.004317 0.043114
v -0.024662 -0.014397 0.060395
v -0.016746 -0.010075 0.043114
v -0.017465 -0.013677 0.048877
v -0.026099 -0.007197 0.044555
v -0.007383 -0.010075 0.060395
v -0.028984 -0.008639 0.054632
v -0.006662 -0.009357 0.043114
v -0.008104 -0.005758 0.057512
v -0.006662 -0.014397 0.054632
v -0.024662 -0.010796 0.048156
v -0.026823 -0.004317 0.044555
f 864 858 871 
f 854 850 856 
f 850 854 857 
f 858 853 859 
f 854 858 859 
f 851 852 860 
f 854 856 860 
f 858 854 860 
f 855 850 861 
f 859 853 861 
f 851 860 862 
f 862 856 863 
f 851 862 864 
f 850 857 865 
f 857 859 865 
f 861 850 865 
f 859 861 865 
f 853 858 866 
f 855 861 866 
f 861 853 866 
f 858 864 866 
f 860 856 867 
f 856 862 867 
f 862 860 867 
f 857 854 868 
f 859 857 868 
f 854 859 868 
f 850 855 869 
f 856 850 869 
f 855 863 869 
f 863 856 869 
f 863 855 870 
f 862 863 870 
f 864 862 870 
f 855 866 870 
f 866 864 870 
f 852 851 871 
f 860 852 871 
f 858 860 871 
f 851 864 871 
o convex_40
v 0.035821 -0.022315 -0.007288
v 0.010619 -0.009358 -0.015930
v 0.010619 -0.009358 -0.015209
v 0.026457 -0.034559 -0.012327
v 0.012780 -0.016562 0.004951
v 0.035821 -0.006482 -0.015930
v 0.029338 -0.004321 0.004951
v 0.029338 -0.027358 0.002791
v 0.010619 -0.003597 0.004951
v 0.010619 -0.003597 -0.015930
v 0.035821 -0.025915 -0.015930
v 0.014221 -0.019432 -0.015930
v 0.032219 -0.006482 0.004951
v 0.030058 -0.003597 -0.015930
v 0.028618 -0.033834 -0.005130
v 0.027897 -0.033113 -0.015930
v 0.035821 -0.017999 -0.003691
v 0.019983 -0.028073 -0.014489
v 0.035821 -0.005758 -0.011609
v 0.026457 -0.032398 -0.002972
v 0.026457 -0.034559 -0.008008
v 0.033660 -0.018723 0.001349
v 0.028618 -0.025915 0.003510
v 0.027177 -0.028794 0.002069
v 0.011340 -0.012240 0.004951
v 0.012060 -0.015841 -0.015930
v 0.035821 -0.011522 -0.003691
v 0.028618 -0.034559 -0.011609
v 0.021422 -0.003597 0.004951
v 0.014221 -0.017999 0.004951
v 0.035821 -0.025915 -0.013048
v 0.030058 -0.029516 -0.000811
f 886 902 903 
f 873 874 880 
f 876 878 880 
f 877 873 881 
f 873 880 881 
f 873 877 882 
f 877 872 882 
f 873 882 883 
f 878 876 884 
f 881 880 885 
f 877 881 885 
f 883 882 887 
f 872 877 888 
f 876 883 889 
f 887 875 889 
f 883 887 889 
f 878 884 890 
f 877 885 890 
f 885 878 890 
f 888 877 890 
f 886 891 892 
f 889 875 892 
f 876 889 892 
f 884 879 893 
f 872 888 893 
f 888 884 893 
f 879 884 894 
f 886 879 895 
f 891 886 895 
f 879 894 895 
f 880 874 896 
f 876 880 896 
f 874 873 897 
f 883 876 897 
f 873 883 897 
f 896 874 897 
f 876 896 897 
f 884 888 898 
f 890 884 898 
f 888 890 898 
f 887 882 899 
f 875 887 899 
f 886 892 899 
f 892 875 899 
f 880 878 900 
f 878 885 900 
f 885 880 900 
f 884 876 901 
f 892 891 901 
f 876 892 901 
f 894 884 901 
f 891 895 901 
f 895 894 901 
f 882 872 902 
f 899 882 902 
f 886 899 902 
f 879 886 903 
f 872 893 903 
f 893 879 903 
f 902 872 903 
o convex_41
v 0.036541 -0.032396 -0.013770
v 0.039421 -0.028793 0.004951
v 0.037981 -0.028793 0.004951
v 0.037981 -0.005757 -0.015930
v 0.039421 -0.033118 -0.015930
v 0.035821 -0.012238 -0.003691
v 0.039421 -0.007197 -0.011609
v 0.036541 -0.034559 0.003510
v 0.035821 -0.006479 -0.015930
v 0.035821 -0.024477 -0.015930
v 0.039421 -0.012238 -0.003691
v 0.039421 -0.032396 0.004951
v 0.035821 -0.006479 -0.010890
v 0.039421 -0.012238 -0.015930
v 0.036541 -0.030237 0.004951
v 0.037261 -0.033837 -0.015209
f 913 908 919 
f 906 905 909 
f 905 908 910 
f 907 908 912 
f 904 911 913 
f 911 909 913 
f 912 908 913 
f 909 912 913 
f 909 905 914 
f 905 910 914 
f 905 906 915 
f 908 905 915 
f 911 908 915 
f 910 907 916 
f 907 912 916 
f 912 909 916 
f 909 914 916 
f 914 910 916 
f 908 907 917 
f 907 910 917 
f 910 908 917 
f 906 909 918 
f 909 911 918 
f 915 906 918 
f 911 915 918 
f 911 904 919 
f 908 911 919 
f 904 913 919 
o convex_42
v 0.028616 0.030966 -0.010890
v 0.009179 0.011526 -0.015930
v 0.009900 -0.002876 -0.015930
v 0.010619 -0.003597 0.004951
v 0.030059 -0.002876 -0.015930
v 0.030778 0.030245 0.004951
v 0.009900 0.021605 0.004951
v 0.012060 0.027363 -0.015930
v 0.033661 0.018722 0.004951
v 0.033661 0.029525 -0.015930
v 0.022139 -0.003597 0.004229
v 0.017102 0.028804 -0.000089
v 0.033661 0.013685 -0.015930
v 0.029340 -0.003597 -0.013770
v 0.009179 0.021605 -0.015930
v 0.033661 0.028804 0.004229
v 0.023579 0.030966 -0.013770
v 0.009179 0.019443 0.000630
v 0.024296 0.030245 0.004229
v 0.012060 0.027363 -0.003691
v 0.010619 -0.003597 -0.015930
v 0.017102 0.029525 -0.015930
v 0.019982 0.028804 0.004951
v 0.021420 -0.003597 0.004951
v 0.022858 0.030966 -0.010168
f 941 931 944 
f 922 921 924 
f 923 925 926 
f 924 921 927 
f 925 923 928 
f 920 925 929 
f 924 927 929 
f 928 924 932 
f 929 928 932 
f 924 929 932 
f 924 928 933 
f 930 923 933 
f 928 930 933 
f 927 921 934 
f 925 928 935 
f 929 925 935 
f 928 929 935 
f 920 929 936 
f 921 922 937 
f 922 923 937 
f 923 926 937 
f 934 921 937 
f 926 934 937 
f 934 926 939 
f 927 934 939 
f 923 922 940 
f 922 924 940 
f 933 923 940 
f 924 933 940 
f 929 927 941 
f 936 929 941 
f 939 931 941 
f 927 939 941 
f 926 925 942 
f 925 938 942 
f 938 931 942 
f 939 926 942 
f 931 939 942 
f 928 923 943 
f 923 930 943 
f 930 928 943 
f 925 920 944 
f 920 936 944 
f 938 925 944 
f 931 938 944 
f 936 941 944 
o convex_43
v 0.009899 0.011524 0.030153
v 0.020700 0.018725 0.006392
v 0.020700 0.016565 0.006392
v 0.009899 0.018725 0.004951
v 0.014940 0.018725 0.030153
v 0.019978 0.011524 0.004951
v 0.011341 0.011524 0.004951
v 0.009899 0.018725 0.029432
v 0.014221 0.011524 0.028712
v 0.020700 0.012966 0.005671
v 0.020700 0.018725 0.004951
v 0.010620 0.012245 0.004951
f 948 951 956 
f 947 946 949 
f 946 948 949 
f 948 950 951 
f 950 945 951 
f 948 945 952 
f 945 949 952 
f 949 948 952 
f 949 945 953 
f 945 950 953 
f 953 950 954 
f 946 947 954 
f 947 949 954 
f 949 953 954 
f 948 946 955 
f 950 948 955 
f 954 950 955 
f 946 954 955 
f 945 948 956 
f 951 945 956 
o convex_44
v 0.025016 0.025924 0.027271
v 0.009899 0.018726 0.004951
v 0.009899 0.018726 0.029432
v 0.035101 0.018726 0.004951
v 0.019984 0.028804 0.004951
v 0.011340 0.025205 0.028712
v 0.030779 0.030245 0.007112
v 0.020702 0.019447 0.030153
v 0.017823 0.028804 0.024390
v 0.035101 0.025924 0.010714
v 0.035101 0.018726 0.009993
v 0.010619 0.023766 0.011432
v 0.035101 0.028084 0.004951
v 0.021422 0.025924 0.030153
v 0.026457 0.023766 0.026551
v 0.027898 0.028804 0.017194
v 0.010619 0.022326 0.004951
v 0.010619 0.023046 0.030153
v 0.027898 0.030245 0.004951
v 0.017102 0.018726 0.030153
v 0.009899 0.021606 0.029432
v 0.021422 0.028804 0.023670
f 957 972 978 
f 959 958 960 
f 960 958 961 
f 959 960 967 
f 960 966 967 
f 965 961 968 
f 962 965 968 
f 960 961 969 
f 966 960 969 
f 965 962 970 
f 966 957 971 
f 964 967 971 
f 967 966 971 
f 970 964 971 
f 957 970 971 
f 957 966 972 
f 969 963 972 
f 966 969 972 
f 961 958 973 
f 958 968 973 
f 968 961 973 
f 970 962 974 
f 964 970 974 
f 961 965 975 
f 965 963 975 
f 969 961 975 
f 963 969 975 
f 959 967 976 
f 967 964 976 
f 974 959 976 
f 964 974 976 
f 958 959 977 
f 968 958 977 
f 962 968 977 
f 959 974 977 
f 974 962 977 
f 963 965 978 
f 970 957 978 
f 965 970 978 
f 972 963 978 
o convex_45
v 0.036541 0.025925 0.009270
v 0.033661 0.018005 -0.015930
v 0.033661 0.029526 -0.015930
v 0.038701 0.025923 -0.015930
v 0.039421 0.019446 0.005670
v 0.033661 0.018726 0.004949
v 0.033661 0.028805 0.004229
v 0.038701 0.028805 -0.015207
v 0.038701 0.018726 -0.005847
v 0.035101 0.018726 0.009270
v 0.036541 0.027365 0.007829
v 0.039421 0.021608 0.004229
v 0.035101 0.025925 0.009991
f 989 985 991 
f 980 981 982 
f 981 980 984 
f 981 984 985 
f 982 981 986 
f 981 985 986 
f 980 982 987 
f 982 983 987 
f 983 979 988 
f 984 980 988 
f 980 987 988 
f 987 983 988 
f 986 985 989 
f 986 989 990 
f 979 983 990 
f 983 982 990 
f 982 986 990 
f 989 979 990 
f 985 984 991 
f 988 979 991 
f 984 988 991 
f 979 989 991 
o convex_46
v 0.057422 0.007199 0.020792
v 0.035101 0.009363 0.013593
v 0.035101 0.009363 0.015032
v 0.040142 -0.012957 0.014312
v 0.049500 0.000004 0.008551
v 0.041586 -0.010070 0.020792
v 0.047341 0.012962 0.021512
v 0.050940 0.008641 0.010714
v 0.049500 -0.008636 0.010714
v 0.036543 0.013685 0.012153
v 0.040142 -0.011515 0.011432
v 0.049500 -0.007911 0.019349
v 0.055262 0.012962 0.021512
v 0.043745 0.010800 0.021512
v 0.037983 -0.010076 0.015751
v 0.053101 -0.000713 0.011435
v 0.048062 -0.005754 0.021512
v 0.045906 -0.001431 0.008551
v 0.035101 0.013685 0.015032
v 0.038702 -0.001436 0.019350
v 0.046622 0.007919 0.009272
v 0.055262 0.012962 0.020071
v 0.042303 -0.012957 0.012874
v 0.037983 -0.010076 0.012872
v 0.035822 0.010803 0.012153
v 0.048062 -0.009353 0.009995
v 0.056699 0.005762 0.021512
v 0.050219 -0.007911 0.017191
v 0.052377 0.004320 0.010714
v 0.056699 0.012240 0.020792
f 992 1020 1021 
f 1004 998 1005 
f 994 993 1006 
f 995 997 1006 
f 992 1000 1007 
f 1000 996 1007 
f 997 1003 1008 
f 1005 997 1008 
f 1004 1005 1008 
f 993 994 1010 
f 998 1004 1010 
f 1004 1001 1010 
f 1005 998 1010 
f 1005 1010 1011 
f 997 1005 1011 
f 994 1006 1011 
f 1006 997 1011 
f 1010 994 1011 
f 999 996 1012 
f 1001 999 1012 
f 996 1009 1012 
f 1009 1001 1012 
f 999 1001 1013 
f 1001 1004 1013 
f 997 995 1014 
f 995 1002 1014 
f 1003 997 1014 
f 1002 995 1015 
f 1006 993 1015 
f 995 1006 1015 
f 1001 1009 1016 
f 1009 1002 1016 
f 993 1010 1016 
f 1010 1001 1016 
f 1015 993 1016 
f 1002 1015 1016 
f 996 1000 1017 
f 1009 996 1017 
f 1002 1009 1017 
f 1014 1002 1017 
f 1000 1014 1017 
f 1008 1003 1018 
f 1004 1008 1018 
f 1000 992 1019 
f 1014 1000 1019 
f 1003 1014 1019 
f 992 1018 1019 
f 1018 1003 1019 
f 996 999 1020 
f 992 1007 1020 
f 1007 996 1020 
f 999 1013 1021 
f 1013 1004 1021 
f 1018 992 1021 
f 1004 1018 1021 
f 1020 999 1021 
o convex_47
v 0.014219 -0.002157 0.019352
v 0.011339 0.011524 0.030153
v 0.009899 0.011524 0.030153
v 0.011339 0.011524 0.019352
v 0.009899 -0.001436 0.030153
v 0.015660 0.002884 0.030153
v 0.014939 0.011524 0.019352
v 0.010619 -0.002157 0.019352
v 0.014939 -0.002157 0.030153
v 0.014219 0.011524 0.028711
v 0.009899 0.011524 0.026552
f 1029 1026 1032 
f 1024 1023 1025 
f 1023 1024 1026 
f 1023 1026 1027 
f 1025 1023 1028 
f 1022 1025 1028 
f 1027 1022 1028 
f 1025 1022 1029 
f 1026 1029 1030 
f 1022 1027 1030 
f 1027 1026 1030 
f 1029 1022 1030 
f 1023 1027 1031 
f 1028 1023 1031 
f 1027 1028 1031 
f 1024 1025 1032 
f 1026 1024 1032 
f 1025 1029 1032 
o convex_48
v 0.058863 0.007204 0.030153
v 0.043021 0.005767 0.029432
v 0.043021 0.005767 0.030153
v 0.050942 0.019440 0.030153
v 0.056701 0.012962 0.021512
v 0.048784 -0.005032 0.021512
v 0.044462 0.010803 0.021512
v 0.049505 -0.000714 0.030153
v 0.055261 0.000007 0.023674
v 0.057422 0.018003 0.030153
v 0.046624 -0.005032 0.021512
v 0.055980 0.000725 0.030153
v 0.050942 0.017281 0.024393
v 0.057422 0.006485 0.021512
v 0.043021 0.009363 0.030153
v 0.044462 0.000725 0.030153
v 0.044462 0.000725 0.021512
v 0.058863 0.014402 0.029432
v 0.053822 0.019440 0.027991
v 0.057422 0.002165 0.027991
f 1041 1046 1052 
f 1035 1033 1036 
f 1037 1038 1039 
f 1033 1035 1040 
f 1036 1033 1042 
f 1039 1038 1043 
f 1038 1040 1043 
f 1033 1040 1044 
f 1040 1038 1044 
f 1038 1041 1044 
f 1039 1036 1045 
f 1037 1039 1045 
f 1038 1037 1046 
f 1041 1038 1046 
f 1034 1035 1047 
f 1035 1036 1047 
f 1039 1034 1047 
f 1036 1039 1047 
f 1035 1034 1048 
f 1040 1035 1048 
f 1043 1040 1048 
f 1043 1048 1049 
f 1034 1039 1049 
f 1039 1043 1049 
f 1048 1034 1049 
f 1042 1033 1050 
f 1037 1042 1050 
f 1033 1046 1050 
f 1046 1037 1050 
f 1036 1042 1051 
f 1042 1037 1051 
f 1045 1036 1051 
f 1037 1045 1051 
f 1033 1044 1052 
f 1044 1041 1052 
f 1046 1033 1052 
o convex_49
v 0.023580 -0.035995 0.053193
v -0.006662 -0.029515 0.030153
v -0.006662 -0.018001 0.030153
v -0.006662 -0.028080 0.053914
v 0.020700 -0.020161 0.030153
v 0.013497 -0.040316 0.035914
v -0.006662 -0.039595 0.048153
v 0.021419 -0.028080 0.053914
v 0.019977 -0.037437 0.032316
v 0.003421 -0.018001 0.035914
v -0.006662 -0.040316 0.038077
v 0.016378 -0.038155 0.053914
v 0.023580 -0.027362 0.032316
v -0.006662 -0.035995 0.053914
v 0.016378 -0.040316 0.045271
v -0.006662 -0.021601 0.043832
v -0.004501 -0.032397 0.030153
v 0.023580 -0.035995 0.034474
v 0.023580 -0.028801 0.053914
v 0.015658 -0.020880 0.039517
v -0.005220 -0.041037 0.040957
v 0.021419 -0.038876 0.047432
v 0.021419 -0.024480 0.030153
v 0.001260 -0.020161 0.041675
v 0.018539 -0.038155 0.032316
v -0.006662 -0.018722 0.038077
v 0.000540 -0.017278 0.030874
v 0.022138 -0.022322 0.037354
v 0.006304 -0.032397 0.030153
v -0.001618 -0.035995 0.032316
v 0.007740 -0.018001 0.035195
v -0.006662 -0.038876 0.051033
v 0.023580 -0.024480 0.038077
v 0.019977 -0.035995 0.031597
v 0.009175 -0.019441 0.038796
v 0.004140 -0.041037 0.038077
f 1067 1073 1088 
f 1055 1054 1056 
f 1054 1055 1057 
f 1056 1054 1059 
f 1059 1054 1063 
f 1060 1056 1064 
f 1056 1059 1066 
f 1064 1056 1066 
f 1055 1056 1068 
f 1054 1057 1069 
f 1063 1054 1069 
f 1065 1053 1070 
f 1064 1053 1071 
f 1060 1064 1071 
f 1053 1065 1071 
f 1060 1071 1072 
f 1059 1063 1073 
f 1067 1059 1073 
f 1053 1064 1074 
f 1067 1058 1074 
f 1064 1067 1074 
f 1070 1053 1074 
f 1057 1065 1075 
f 1069 1057 1075 
f 1056 1060 1076 
f 1068 1056 1076 
f 1058 1063 1077 
f 1061 1070 1077 
f 1074 1058 1077 
f 1070 1074 1077 
f 1055 1068 1078 
f 1068 1076 1078 
f 1076 1062 1078 
f 1057 1055 1079 
f 1055 1078 1079 
f 1078 1062 1079 
f 1057 1072 1080 
f 1072 1071 1080 
f 1069 1075 1081 
f 1077 1069 1081 
f 1063 1069 1082 
f 1077 1063 1082 
f 1069 1077 1082 
f 1072 1057 1083 
f 1057 1079 1083 
f 1079 1062 1083 
f 1066 1059 1084 
f 1064 1066 1084 
f 1059 1067 1084 
f 1067 1064 1084 
f 1065 1057 1085 
f 1071 1065 1085 
f 1057 1080 1085 
f 1080 1071 1085 
f 1065 1070 1086 
f 1070 1061 1086 
f 1075 1065 1086 
f 1061 1077 1086 
f 1081 1075 1086 
f 1077 1081 1086 
f 1060 1072 1087 
f 1076 1060 1087 
f 1062 1076 1087 
f 1072 1083 1087 
f 1083 1062 1087 
f 1063 1058 1088 
f 1058 1067 1088 
f 1073 1063 1088 
o convex_50
v 0.028620 -0.030960 0.053914
v 0.026461 -0.044638 0.037354
v 0.025021 -0.043917 0.036635
v 0.030781 -0.031681 0.036635
v 0.023580 -0.026638 0.038076
v 0.023580 -0.035280 0.053914
v 0.029339 -0.038876 0.053914
v 0.023580 -0.030960 0.033033
v 0.029339 -0.043917 0.038797
v 0.023580 -0.028800 0.053914
v 0.030781 -0.035997 0.035917
v 0.023580 -0.039597 0.035194
v 0.024301 -0.026638 0.043833
v 0.025741 -0.044638 0.038797
f 1097 1095 1102 
f 1089 1094 1095 
f 1092 1089 1095 
f 1093 1092 1096 
f 1094 1093 1096 
f 1093 1094 1098 
f 1094 1089 1098 
f 1090 1091 1099 
f 1092 1095 1099 
f 1096 1092 1099 
f 1097 1090 1099 
f 1095 1097 1099 
f 1091 1094 1100 
f 1094 1096 1100 
f 1099 1091 1100 
f 1096 1099 1100 
f 1089 1092 1101 
f 1092 1093 1101 
f 1098 1089 1101 
f 1093 1098 1101 
f 1091 1090 1102 
f 1094 1091 1102 
f 1095 1094 1102 
f 1090 1097 1102 
o convex_51
v 0.032221 0.022326 0.060394
v 0.009899 0.017285 0.043834
v 0.009899 0.031686 0.043834
v 0.009899 0.027365 0.061115
v 0.031497 0.020168 0.047435
v 0.025738 0.030966 0.059674
v 0.027180 0.017285 0.058953
v 0.022856 0.028803 0.043834
v 0.009899 0.017285 0.051035
v 0.032221 0.017285 0.048876
v 0.009899 0.030966 0.060394
v 0.031497 0.023766 0.047435
v 0.022856 0.017285 0.044554
v 0.031497 0.020168 0.061115
v 0.024296 0.030966 0.061115
v 0.009899 0.024485 0.059674
v 0.014940 0.031686 0.043834
v 0.020702 0.031686 0.060394
v 0.025019 0.028803 0.045275
v 0.032221 0.017285 0.058233
v 0.016382 0.017285 0.055352
v 0.032221 0.023766 0.053192
v 0.023579 0.023046 0.043834
f 1107 1115 1125 
f 1105 1104 1106 
f 1104 1105 1110 
f 1106 1104 1111 
f 1104 1109 1111 
f 1109 1104 1112 
f 1105 1106 1113 
f 1112 1107 1114 
f 1107 1112 1115 
f 1112 1104 1115 
f 1106 1109 1116 
f 1103 1108 1117 
f 1113 1106 1117 
f 1106 1116 1117 
f 1116 1103 1117 
f 1109 1106 1118 
f 1106 1111 1118 
f 1110 1105 1119 
f 1105 1113 1120 
f 1117 1108 1120 
f 1113 1117 1120 
f 1119 1105 1120 
f 1108 1119 1120 
f 1108 1114 1121 
f 1114 1110 1121 
f 1110 1119 1121 
f 1119 1108 1121 
f 1112 1103 1122 
f 1109 1112 1122 
f 1103 1116 1122 
f 1116 1109 1122 
f 1111 1109 1123 
f 1109 1118 1123 
f 1118 1111 1123 
f 1108 1103 1124 
f 1103 1112 1124 
f 1114 1108 1124 
f 1112 1114 1124 
f 1104 1110 1125 
f 1114 1107 1125 
f 1110 1114 1125 
f 1115 1104 1125 
o convex_52
v -0.030421 0.010083 0.019352
v -0.030421 -0.002157 0.009991
v -0.015304 -0.002157 0.009991
v -0.030421 0.016565 0.009991
v -0.015304 0.016565 0.016470
v -0.015304 -0.002157 0.019352
v -0.015304 0.016565 0.009991
v -0.030421 0.000004 0.020072
v -0.030421 0.015845 0.018630
v -0.030421 -0.002157 0.016470
v -0.015304 0.015124 0.017192
v -0.030421 0.016565 0.017910
f 1134 1130 1137 
f 1128 1127 1129 
f 1127 1126 1129 
f 1128 1130 1131 
f 1127 1128 1131 
f 1128 1129 1132 
f 1129 1130 1132 
f 1130 1128 1132 
f 1126 1127 1133 
f 1131 1126 1133 
f 1129 1126 1134 
f 1127 1131 1135 
f 1133 1127 1135 
f 1131 1133 1135 
f 1131 1130 1136 
f 1126 1131 1136 
f 1134 1126 1136 
f 1130 1134 1136 
f 1130 1129 1137 
f 1129 1134 1137 
o convex_53
v 0.004857 -0.002874 0.035196
v 0.001977 0.017999 0.062555
v 0.000539 0.017999 0.062555
v -0.006661 -0.015117 0.062555
v -0.006661 0.029522 0.038076
v 0.009899 0.030243 0.061110
v 0.009899 -0.015117 0.060391
v 0.009899 0.026642 0.032318
v -0.006661 0.030959 0.061110
v -0.006661 0.001448 0.034476
v -0.006661 -0.012954 0.047435
v 0.009899 -0.009354 0.043118
v 0.009899 0.032406 0.040238
v 0.009899 0.006486 0.031598
v -0.005220 0.023037 0.033757
v 0.007738 0.003606 0.062549
v 0.009899 -0.014396 0.051751
v -0.000900 -0.000711 0.033034
v 0.009177 0.020883 0.030876
v -0.006661 0.031685 0.045999
v -0.004500 0.031685 0.060391
v -0.005941 0.029522 0.061833
v -0.006661 -0.015117 0.056071
v -0.006661 -0.007195 0.040235
v 0.009177 0.030964 0.061110
v 0.009177 0.031685 0.037357
v 0.004138 -0.005749 0.062555
v 0.009899 -0.005753 0.038796
v -0.006661 0.023763 0.034476
v -0.005220 0.030238 0.038076
v 0.009899 -0.012233 0.046716
v 0.007738 -0.015117 0.061110
v -0.004500 0.010803 0.062555
f 1159 1141 1170 
f 1139 1140 1141 
f 1143 1144 1145 
f 1142 1141 1146 
f 1141 1142 1147 
f 1141 1147 1148 
f 1145 1144 1149 
f 1143 1145 1150 
f 1145 1149 1151 
f 1143 1139 1153 
f 1144 1143 1153 
f 1149 1144 1154 
f 1151 1138 1155 
f 1147 1152 1155 
f 1155 1152 1156 
f 1145 1151 1156 
f 1152 1145 1156 
f 1151 1155 1156 
f 1142 1146 1157 
f 1150 1157 1158 
f 1157 1146 1158 
f 1140 1139 1159 
f 1146 1141 1159 
f 1144 1141 1160 
f 1141 1148 1160 
f 1154 1144 1160 
f 1148 1154 1160 
f 1148 1147 1161 
f 1138 1149 1161 
f 1155 1138 1161 
f 1147 1155 1161 
f 1139 1143 1162 
f 1143 1150 1162 
f 1150 1158 1162 
f 1158 1146 1162 
f 1159 1139 1162 
f 1146 1159 1162 
f 1150 1145 1163 
f 1139 1141 1164 
f 1153 1139 1164 
f 1149 1138 1165 
f 1138 1151 1165 
f 1151 1149 1165 
f 1147 1142 1166 
f 1145 1152 1166 
f 1152 1147 1166 
f 1142 1157 1167 
f 1157 1150 1167 
f 1163 1145 1167 
f 1150 1163 1167 
f 1166 1142 1167 
f 1145 1166 1167 
f 1154 1148 1168 
f 1149 1154 1168 
f 1148 1161 1168 
f 1161 1149 1168 
f 1141 1144 1169 
f 1144 1153 1169 
f 1164 1141 1169 
f 1153 1164 1169 
f 1141 1140 1170 
f 1140 1159 1170 
o convex_54
v 0.009899 0.010083 0.069035
v -0.006662 0.004325 0.065437
v -0.006662 0.004325 0.067596
v 0.004138 -0.006475 0.067596
v -0.002340 0.015844 0.074796
v 0.001978 0.017283 0.062555
v 0.004138 -0.005755 0.062555
v 0.002698 -0.001436 0.074075
v 0.006299 0.015844 0.074075
v -0.003062 -0.004315 0.071195
v -0.006662 0.015124 0.067596
v -0.001620 -0.005035 0.062555
v 0.006299 0.014404 0.062555
v 0.004857 0.019445 0.071195
v 0.008458 0.000006 0.070475
v -0.004501 0.010803 0.062555
v 0.009178 0.002885 0.064717
v -0.003781 0.005764 0.074075
v -0.001620 0.019445 0.069755
v 0.009178 0.015844 0.067596
v 0.007018 0.007921 0.074075
v 0.001978 -0.007197 0.069755
v -0.006662 0.015124 0.069755
v 0.007018 -0.003595 0.070475
v -0.000181 0.002165 0.074796
v -0.004501 -0.002156 0.063997
v 0.000539 0.019445 0.073355
v 0.005577 0.015124 0.074796
v 0.007738 0.007921 0.062555
v -0.005221 0.000726 0.071195
v 0.009899 0.011522 0.066156
v 0.007738 -0.001436 0.063997
v 0.000539 0.017283 0.062555
f 1189 1176 1203 
f 1172 1173 1181 
f 1176 1177 1182 
f 1177 1176 1183 
f 1172 1181 1186 
f 1176 1182 1186 
f 1171 1185 1187 
f 1184 1176 1189 
f 1179 1171 1190 
f 1183 1176 1190 
f 1184 1179 1190 
f 1176 1184 1190 
f 1171 1179 1191 
f 1185 1171 1191 
f 1177 1174 1192 
f 1178 1180 1192 
f 1182 1177 1192 
f 1180 1182 1192 
f 1181 1173 1193 
f 1188 1175 1193 
f 1189 1181 1193 
f 1174 1177 1194 
f 1191 1178 1194 
f 1185 1191 1194 
f 1192 1174 1194 
f 1178 1192 1194 
f 1180 1178 1195 
f 1175 1188 1195 
f 1188 1180 1195 
f 1178 1191 1195 
f 1173 1172 1196 
f 1182 1180 1196 
f 1172 1186 1196 
f 1186 1182 1196 
f 1179 1184 1197 
f 1184 1189 1197 
f 1193 1175 1197 
f 1189 1193 1197 
f 1191 1179 1198 
f 1175 1195 1198 
f 1195 1191 1198 
f 1197 1175 1198 
f 1179 1197 1198 
f 1177 1183 1199 
f 1180 1188 1200 
f 1193 1173 1200 
f 1188 1193 1200 
f 1173 1196 1200 
f 1196 1180 1200 
f 1171 1187 1201 
f 1190 1171 1201 
f 1183 1190 1201 
f 1199 1183 1201 
f 1187 1199 1201 
f 1187 1185 1202 
f 1194 1177 1202 
f 1185 1194 1202 
f 1177 1199 1202 
f 1199 1187 1202 
f 1186 1181 1203 
f 1176 1186 1203 
f 1181 1189 1203 
o convex_55
v -0.030421 -0.005036 0.018629
v -0.015304 -0.002877 0.025112
v -0.015304 -0.007197 0.025112
v -0.015304 -0.007197 0.009991
v -0.030421 -0.002157 0.009991
v -0.015304 -0.002157 0.009991
v -0.026102 -0.007197 0.009991
v -0.024662 -0.003597 0.024390
v -0.023941 -0.006476 0.025112
v -0.030421 -0.002157 0.016474
v -0.030421 -0.005757 0.009991
v -0.015304 -0.002157 0.019350
f 1209 1213 1215 
f 1205 1206 1207 
f 1205 1207 1209 
f 1207 1208 1209 
f 1207 1206 1210 
f 1208 1207 1210 
f 1206 1205 1212 
f 1204 1210 1212 
f 1210 1206 1212 
f 1211 1204 1212 
f 1205 1211 1212 
f 1208 1204 1213 
f 1209 1208 1213 
f 1204 1211 1213 
f 1211 1205 1213 
f 1204 1208 1214 
f 1210 1204 1214 
f 1208 1210 1214 
f 1205 1209 1215 
f 1213 1205 1215 
o convex_56
v 0.022140 -0.007915 0.030153
v 0.022860 0.002884 0.043114
v 0.017820 0.002884 0.043114
v 0.017820 -0.010077 0.043114
v 0.025740 -0.007915 0.038072
v 0.017820 -0.005037 0.030153
v 0.023579 0.002163 0.037351
v 0.022860 -0.008635 0.043114
v 0.017820 0.002884 0.038072
v 0.017820 -0.008635 0.030153
v 0.025740 -0.007915 0.033755
v 0.020700 -0.004316 0.030153
v 0.025740 -0.005755 0.033755
v 0.023579 0.002163 0.043114
f 1228 1222 1229 
f 1217 1218 1219 
f 1219 1218 1221 
f 1217 1219 1223 
f 1219 1220 1223 
f 1218 1217 1224 
f 1221 1218 1224 
f 1217 1222 1224 
f 1221 1216 1225 
f 1219 1221 1225 
f 1220 1219 1226 
f 1225 1216 1226 
f 1219 1225 1226 
f 1216 1221 1227 
f 1221 1224 1227 
f 1224 1222 1227 
f 1220 1226 1228 
f 1226 1216 1228 
f 1216 1227 1228 
f 1227 1222 1228 
f 1222 1217 1229 
f 1217 1223 1229 
f 1223 1220 1229 
f 1220 1228 1229 
o convex_57
v -0.006665 0.000009 -0.024575
v -0.038341 -0.023758 -0.019532
v -0.038341 -0.023758 -0.018095
v -0.038341 0.025925 -0.023135
v -0.038341 -0.020154 -0.037532
v -0.007385 0.025925 -0.037532
v -0.010985 0.025925 -0.015210
v -0.013144 -0.022309 -0.037532
v -0.013863 -0.018715 -0.015210
v -0.038341 0.022322 -0.037532
v -0.038341 -0.005029 -0.015210
v -0.027543 0.025925 -0.015210
v -0.007385 -0.010793 -0.034648
v -0.008104 0.021602 -0.015210
v -0.024662 -0.023758 -0.015210
v -0.030421 -0.023758 -0.037532
v -0.010263 -0.009353 -0.015210
v -0.006665 0.025925 -0.023852
v -0.006665 -0.000711 -0.037532
v -0.030421 0.025201 -0.037532
v -0.017464 -0.023758 -0.020251
v -0.011705 -0.019430 -0.023135
v -0.036902 -0.023033 -0.015210
v -0.007385 -0.010793 -0.027448
v -0.007385 0.000009 -0.020251
v -0.038341 -0.023033 -0.031049
v -0.011705 -0.020874 -0.029607
v -0.006665 0.018723 -0.036088
v -0.027543 0.025925 -0.035371
v -0.011705 -0.015831 -0.015934
v -0.017464 -0.022309 -0.015210
v -0.006665 0.007202 -0.022412
v -0.008104 -0.010793 -0.037532
v -0.024662 -0.023758 -0.034648
f 1250 1245 1263 
f 1231 1232 1233 
f 1231 1233 1234 
f 1235 1233 1236 
f 1234 1235 1237 
f 1234 1233 1239 
f 1235 1234 1239 
f 1233 1232 1240 
f 1238 1236 1240 
f 1236 1233 1241 
f 1233 1240 1241 
f 1240 1236 1241 
f 1236 1238 1243 
f 1232 1231 1244 
f 1238 1240 1244 
f 1234 1237 1245 
f 1244 1231 1245 
f 1243 1238 1246 
f 1235 1236 1247 
f 1236 1243 1247 
f 1237 1235 1248 
f 1247 1230 1248 
f 1239 1233 1249 
f 1235 1239 1249 
f 1244 1245 1250 
f 1240 1232 1252 
f 1232 1244 1252 
f 1244 1240 1252 
f 1248 1230 1253 
f 1242 1248 1253 
f 1243 1246 1254 
f 1253 1230 1254 
f 1246 1253 1254 
f 1231 1234 1255 
f 1245 1231 1255 
f 1234 1245 1255 
f 1237 1242 1256 
f 1250 1237 1256 
f 1251 1250 1256 
f 1242 1253 1256 
f 1253 1251 1256 
f 1235 1247 1257 
f 1248 1235 1257 
f 1247 1248 1257 
f 1233 1235 1258 
f 1249 1233 1258 
f 1235 1249 1258 
f 1246 1238 1259 
f 1238 1251 1259 
f 1253 1246 1259 
f 1251 1253 1259 
f 1238 1244 1260 
f 1244 1250 1260 
f 1251 1238 1260 
f 1250 1251 1260 
f 1230 1247 1261 
f 1247 1243 1261 
f 1254 1230 1261 
f 1243 1254 1261 
f 1242 1237 1262 
f 1237 1248 1262 
f 1248 1242 1262 
f 1245 1237 1263 
f 1237 1250 1263 
o convex_58
v -0.010985 -0.012957 -0.002970
v -0.038344 -0.019430 -0.015210
v -0.036900 -0.023033 -0.015210
v -0.008102 0.021602 -0.015210
v -0.031142 0.012240 -0.002970
v -0.012424 -0.016551 -0.015210
v -0.029700 -0.023758 -0.002970
v -0.026101 0.025925 -0.015210
v -0.010985 0.025925 -0.002970
v -0.038344 -0.010793 -0.002970
v -0.038344 -0.005029 -0.015210
v -0.017468 -0.023758 -0.014490
v -0.021065 0.025925 -0.002970
v -0.008102 0.021602 -0.002970
v -0.018188 -0.023033 -0.005851
v -0.010985 0.025925 -0.015210
v -0.009547 -0.000711 -0.015210
v -0.038344 -0.015831 -0.002970
v -0.012424 -0.016551 -0.002970
v -0.035461 -0.023758 -0.010170
v -0.032581 0.009361 -0.002970
v -0.010266 -0.009353 -0.002970
v -0.023223 -0.023758 -0.002970
v -0.038344 -0.005029 -0.010888
v -0.010266 -0.007913 -0.015210
v -0.008102 0.018723 -0.005851
v -0.018188 -0.023758 -0.015210
f 1275 1283 1290 
f 1266 1265 1267 
f 1266 1267 1269 
f 1264 1268 1270 
f 1267 1265 1271 
f 1268 1264 1272 
f 1270 1268 1273 
f 1271 1265 1274 
f 1265 1273 1274 
f 1271 1268 1276 
f 1268 1272 1276 
f 1272 1271 1276 
f 1272 1264 1277 
f 1267 1272 1277 
f 1267 1271 1279 
f 1271 1272 1279 
f 1272 1267 1279 
f 1269 1267 1280 
f 1265 1266 1281 
f 1273 1265 1281 
f 1270 1273 1281 
f 1269 1264 1282 
f 1264 1270 1282 
f 1275 1269 1282 
f 1278 1275 1282 
f 1275 1270 1283 
f 1281 1266 1283 
f 1270 1281 1283 
f 1268 1271 1284 
f 1273 1268 1284 
f 1277 1264 1285 
f 1270 1275 1286 
f 1275 1278 1286 
f 1282 1270 1286 
f 1278 1282 1286 
f 1271 1274 1287 
f 1274 1273 1287 
f 1284 1271 1287 
f 1273 1284 1287 
f 1264 1269 1288 
f 1269 1280 1288 
f 1285 1264 1288 
f 1280 1285 1288 
f 1267 1277 1289 
f 1280 1267 1289 
f 1277 1285 1289 
f 1285 1280 1289 
f 1266 1269 1290 
f 1269 1275 1290 
f 1283 1266 1290 
o convex_59
v -0.028261 0.025925 -0.030331
v -0.016023 0.029526 -0.002970
v -0.023948 0.030965 -0.002970
v -0.036183 0.026647 -0.005131
v -0.031143 0.030965 -0.019527
v -0.016023 0.025925 -0.002970
v -0.016023 0.029526 -0.019527
v -0.038344 0.025925 -0.024568
v -0.037621 0.030246 -0.014494
v -0.016023 0.025925 -0.021686
v -0.021787 0.031686 -0.013774
v -0.032580 0.029526 -0.002970
v -0.028980 0.031686 -0.008010
v -0.037621 0.029526 -0.021686
v -0.024664 0.027366 -0.028891
v -0.038344 0.028087 -0.007292
v -0.024664 0.030965 -0.020248
v -0.031143 0.025925 -0.005851
v -0.030419 0.031686 -0.015212
v -0.021787 0.031686 -0.006572
v -0.019624 0.026647 -0.026726
v -0.016023 0.030246 -0.014494
f 1301 1310 1312 
f 1292 1293 1296 
f 1292 1296 1297 
f 1291 1296 1298 
f 1296 1291 1300 
f 1297 1296 1300 
f 1296 1293 1302 
f 1294 1296 1302 
f 1299 1302 1303 
f 1302 1293 1303 
f 1291 1298 1304 
f 1291 1304 1305 
f 1304 1295 1305 
f 1298 1294 1306 
f 1294 1302 1306 
f 1302 1299 1306 
f 1304 1298 1306 
f 1299 1304 1306 
f 1301 1297 1307 
f 1305 1295 1307 
f 1297 1305 1307 
f 1296 1294 1308 
f 1294 1298 1308 
f 1298 1296 1308 
f 1299 1303 1309 
f 1303 1301 1309 
f 1295 1304 1309 
f 1304 1299 1309 
f 1301 1307 1309 
f 1307 1295 1309 
f 1293 1292 1310 
f 1303 1293 1310 
f 1301 1303 1310 
f 1300 1291 1311 
f 1297 1300 1311 
f 1305 1297 1311 
f 1291 1305 1311 
f 1292 1297 1312 
f 1297 1301 1312 
f 1310 1292 1312 
o convex_60
v -0.015303 0.030966 -0.036811
v -0.006662 0.028087 -0.024568
v -0.010984 0.028087 -0.002970
v -0.007382 0.033846 -0.030329
v -0.015303 0.025925 -0.037532
v -0.016023 0.029526 -0.002970
v -0.007382 0.025925 -0.037532
v -0.016023 0.025925 -0.002970
v -0.014582 0.033846 -0.030329
v -0.010984 0.025925 -0.002970
v -0.007382 0.033126 -0.035370
v -0.006662 0.025925 -0.024568
v -0.006662 0.028087 -0.037532
v -0.006662 0.032405 -0.028891
v -0.016023 0.026646 -0.020968
v -0.015303 0.033126 -0.033208
f 1327 1318 1328 
f 1315 1316 1318 
f 1317 1319 1320 
f 1315 1318 1320 
f 1318 1316 1321 
f 1314 1315 1322 
f 1320 1319 1322 
f 1315 1320 1322 
f 1321 1316 1323 
f 1314 1322 1324 
f 1322 1319 1324 
f 1317 1313 1325 
f 1319 1317 1325 
f 1313 1323 1325 
f 1314 1324 1325 
f 1324 1319 1325 
f 1315 1314 1326 
f 1316 1315 1326 
f 1323 1316 1326 
f 1314 1325 1326 
f 1325 1323 1326 
f 1313 1317 1327 
f 1317 1320 1327 
f 1320 1318 1327 
f 1318 1321 1328 
f 1323 1313 1328 
f 1321 1323 1328 
f 1313 1327 1328 
o convex_61
v -0.039785 -0.002155 0.015752
v -0.036907 0.025925 0.027273
v -0.036907 0.025925 0.025111
v -0.045545 0.025925 0.020069
v -0.045545 0.002167 0.027273
v -0.034744 0.016563 0.011434
v -0.034744 -0.000714 0.021510
v -0.042664 0.003605 0.011434
v -0.034744 -0.001436 0.010713
v -0.045545 0.025925 0.027273
v -0.034744 0.017279 0.027273
v -0.039065 0.013684 0.009994
v -0.045545 -0.000714 0.023673
v -0.039785 0.025204 0.016473
v -0.039785 0.002167 0.027273
v -0.034744 0.025201 0.024392
v -0.045545 0.006486 0.017912
v -0.042664 0.018003 0.012875
v -0.034744 -0.002877 0.020069
v -0.042664 0.012243 0.011434
v -0.037625 -0.001436 0.010713
v -0.041944 0.024485 0.015752
v -0.045545 -0.000714 0.025111
v -0.039065 -0.002877 0.015752
v -0.045545 0.023763 0.018631
v -0.035466 0.012243 0.009994
v -0.039065 0.002164 0.009994
f 1340 1354 1355 
f 1330 1331 1332 
f 1334 1335 1337 
f 1330 1332 1338 
f 1332 1333 1338 
f 1333 1330 1338 
f 1330 1333 1339 
f 1335 1334 1339 
f 1333 1332 1341 
f 1332 1331 1342 
f 1339 1333 1343 
f 1335 1339 1343 
f 1331 1330 1344 
f 1330 1339 1344 
f 1339 1334 1344 
f 1342 1331 1344 
f 1334 1342 1344 
f 1341 1332 1345 
f 1336 1341 1345 
f 1337 1335 1347 
f 1335 1343 1347 
f 1340 1336 1348 
f 1336 1345 1348 
f 1346 1340 1348 
f 1329 1341 1349 
f 1341 1336 1349 
f 1334 1340 1350 
f 1332 1342 1350 
f 1342 1334 1350 
f 1340 1346 1350 
f 1333 1341 1351 
f 1343 1333 1351 
f 1347 1343 1351 
f 1347 1351 1352 
f 1341 1329 1352 
f 1337 1347 1352 
f 1349 1337 1352 
f 1329 1349 1352 
f 1351 1341 1352 
f 1345 1332 1353 
f 1348 1345 1353 
f 1346 1348 1353 
f 1332 1350 1353 
f 1350 1346 1353 
f 1334 1337 1354 
f 1340 1334 1354 
f 1336 1340 1355 
f 1349 1336 1355 
f 1337 1349 1355 
f 1354 1337 1355 
o convex_62
v 0.017820 -0.008636 0.030153
v 0.016379 0.017285 0.043114
v 0.009899 0.017285 0.043114
v 0.017820 -0.010077 0.043114
v 0.009899 -0.001434 0.030153
v 0.012779 0.017285 0.030153
v 0.009899 -0.008636 0.043114
v 0.017099 0.017285 0.035195
v 0.011340 -0.008636 0.030153
v 0.009899 0.017285 0.030153
v 0.016379 0.009360 0.030153
v 0.017820 0.002886 0.043114
f 1356 1363 1367 
f 1357 1358 1359 
f 1358 1357 1361 
f 1356 1360 1361 
f 1359 1358 1362 
f 1358 1360 1362 
f 1361 1357 1363 
f 1356 1359 1364 
f 1360 1356 1364 
f 1359 1362 1364 
f 1362 1360 1364 
f 1360 1358 1365 
f 1358 1361 1365 
f 1361 1360 1365 
f 1356 1361 1366 
f 1363 1356 1366 
f 1361 1363 1366 
f 1357 1359 1367 
f 1359 1356 1367 
f 1363 1357 1367 
o convex_63
v -0.034744 0.005048 0.010711
v -0.031864 0.002885 0.022232
v -0.031144 0.011524 0.021511
v -0.030424 -0.005757 0.009991
v -0.030424 0.015842 0.009991
v -0.034744 0.016565 0.017910
v -0.034744 -0.001435 0.021511
v -0.030424 -0.001435 0.021511
v -0.034024 -0.005036 0.009991
v -0.030424 0.016565 0.017910
v -0.034744 0.016565 0.012152
v -0.031144 -0.005036 0.017191
v -0.034024 0.010803 0.021511
f 1374 1369 1380 
f 1373 1368 1374 
f 1370 1369 1375 
f 1371 1372 1375 
f 1369 1374 1375 
f 1368 1372 1376 
f 1372 1371 1376 
f 1374 1368 1376 
f 1373 1370 1377 
f 1370 1375 1377 
f 1375 1372 1377 
f 1372 1368 1378 
f 1368 1373 1378 
f 1373 1377 1378 
f 1377 1372 1378 
f 1371 1375 1379 
f 1375 1374 1379 
f 1376 1371 1379 
f 1374 1376 1379 
f 1369 1370 1380 
f 1370 1373 1380 
f 1373 1374 1380 
o convex_64
v -0.016025 0.029525 0.024390
v -0.034744 0.020167 0.009991
v -0.034744 0.016565 0.012153
v -0.015304 0.016565 0.009991
v -0.034744 0.017288 0.027273
v -0.029701 0.030246 0.009991
v -0.034744 0.025204 0.027273
v -0.015304 0.020166 0.025112
v -0.015304 0.026645 0.009991
v -0.015304 0.016565 0.016475
v -0.034022 0.027365 0.009991
v -0.020347 0.030246 0.022232
v -0.024662 0.030246 0.009991
v -0.015304 0.028805 0.025112
v -0.031863 0.017288 0.027273
v -0.030420 0.016565 0.009991
f 1382 1384 1396 
f 1382 1383 1385 
f 1384 1382 1386 
f 1382 1385 1387 
f 1384 1386 1389 
f 1388 1384 1389 
f 1383 1384 1390 
f 1385 1383 1390 
f 1384 1388 1390 
f 1386 1382 1391 
f 1382 1387 1391 
f 1387 1386 1391 
f 1387 1381 1392 
f 1386 1387 1392 
f 1389 1386 1393 
f 1381 1389 1393 
f 1392 1381 1393 
f 1386 1392 1393 
f 1381 1387 1394 
f 1389 1381 1394 
f 1388 1389 1394 
f 1387 1385 1395 
f 1385 1390 1395 
f 1390 1388 1395 
f 1394 1387 1395 
f 1388 1394 1395 
f 1383 1382 1396 
f 1384 1383 1396 
o convex_65
v 0.009899 0.025925 0.031594
v 0.014940 0.032405 0.043834
v 0.014940 0.033123 0.042393
v 0.022860 0.023048 0.030153
v 0.009899 0.017285 0.043834
v 0.009899 0.017285 0.030153
v 0.016380 0.017285 0.043834
v 0.009899 0.033123 0.037352
v 0.022139 0.023766 0.036634
v 0.022860 0.025206 0.030153
v 0.009899 0.031685 0.043834
v 0.017098 0.017285 0.035193
v 0.014940 0.033123 0.036634
v 0.022139 0.020887 0.036634
v 0.010620 0.029523 0.033033
v 0.021419 0.020887 0.030153
v 0.018539 0.025925 0.030153
f 1411 1409 1413 
f 1401 1397 1402 
f 1401 1402 1403 
f 1398 1401 1403 
f 1397 1401 1404 
f 1399 1398 1405 
f 1398 1403 1405 
f 1400 1402 1406 
f 1399 1405 1406 
f 1405 1400 1406 
f 1398 1399 1407 
f 1401 1398 1407 
f 1399 1404 1407 
f 1404 1401 1407 
f 1403 1402 1408 
f 1404 1399 1409 
f 1399 1406 1409 
f 1400 1405 1410 
f 1405 1403 1410 
f 1403 1408 1410 
f 1397 1404 1411 
f 1404 1409 1411 
f 1402 1400 1412 
f 1408 1402 1412 
f 1400 1410 1412 
f 1410 1408 1412 
f 1402 1397 1413 
f 1406 1402 1413 
f 1409 1406 1413 
f 1397 1411 1413 
o convex_66
v -0.016024 -0.007915 0.032315
v -0.019621 0.003604 0.043113
v -0.021062 0.003604 0.043113
v -0.017464 -0.009357 0.043113
v -0.023943 -0.007195 0.033754
v -0.014583 0.002883 0.037353
v -0.014583 -0.009357 0.043113
v -0.021062 -0.005035 0.031594
v -0.021782 0.002883 0.038073
v -0.023943 -0.007195 0.038073
v -0.014583 -0.005035 0.031594
v -0.014583 0.002883 0.042392
v -0.019621 -0.007915 0.043113
f 1423 1417 1426 
f 1415 1416 1417 
f 1414 1417 1418 
f 1416 1415 1419 
f 1415 1417 1420 
f 1417 1414 1420 
f 1414 1418 1421 
f 1419 1421 1422 
f 1416 1419 1422 
f 1421 1418 1422 
f 1422 1418 1423 
f 1418 1417 1423 
f 1416 1422 1423 
f 1420 1414 1424 
f 1419 1420 1424 
f 1414 1421 1424 
f 1421 1419 1424 
f 1419 1415 1425 
f 1420 1419 1425 
f 1415 1420 1425 
f 1417 1416 1426 
f 1416 1423 1426 
o convex_67
v -0.014583 -0.007916 0.031594
v -0.006662 0.016565 0.043113
v -0.006662 0.016565 0.035194
v -0.006662 -0.008634 0.043113
v -0.014583 0.007922 0.043113
v -0.013142 0.016565 0.031594
v -0.008103 -0.003592 0.031594
v -0.014583 -0.009357 0.043113
v -0.013142 0.016565 0.043113
v -0.007383 0.016565 0.031594
v -0.014583 0.013680 0.035915
v -0.009542 -0.007916 0.031594
v -0.006662 0.000724 0.035194
v -0.014583 0.010084 0.031594
f 1437 1432 1440 
f 1429 1428 1430 
f 1430 1428 1431 
f 1428 1429 1432 
f 1427 1432 1433 
f 1431 1427 1434 
f 1430 1431 1434 
f 1431 1428 1435 
f 1428 1432 1435 
f 1432 1429 1436 
f 1433 1432 1436 
f 1427 1431 1437 
f 1431 1435 1437 
f 1435 1432 1437 
f 1433 1430 1438 
f 1427 1433 1438 
f 1434 1427 1438 
f 1430 1434 1438 
f 1429 1430 1439 
f 1430 1433 1439 
f 1436 1429 1439 
f 1433 1436 1439 
f 1432 1427 1440 
f 1427 1437 1440 
o convex_68
v -0.028263 -0.001436 0.045274
v -0.029703 0.005766 0.064715
v -0.029703 0.018004 0.063275
v -0.024664 0.025205 0.061112
v -0.024664 -0.004317 0.058955
v -0.024664 0.022324 0.047437
v -0.030423 0.018724 0.047437
v -0.024664 -0.004317 0.044554
v -0.030423 0.000006 0.064715
v -0.028983 -0.004317 0.046717
v -0.028983 0.025205 0.051757
v -0.030423 0.000006 0.047437
v -0.030423 0.018004 0.063275
v -0.024664 0.001446 0.061112
v -0.028983 -0.004317 0.060391
v -0.029703 0.024483 0.056792
v -0.025384 0.024483 0.048157
v -0.026104 0.000006 0.044554
v -0.028263 0.024483 0.061112
v -0.028983 0.024483 0.048157
f 1451 1457 1460 
f 1443 1442 1444 
f 1444 1445 1446 
f 1446 1445 1448 
f 1441 1448 1450 
f 1448 1445 1450 
f 1447 1441 1452 
f 1449 1447 1452 
f 1450 1449 1452 
f 1441 1450 1452 
f 1442 1443 1453 
f 1443 1444 1453 
f 1449 1442 1453 
f 1447 1449 1453 
f 1444 1442 1454 
f 1445 1444 1454 
f 1449 1445 1454 
f 1442 1449 1454 
f 1445 1449 1455 
f 1449 1450 1455 
f 1450 1445 1455 
f 1447 1453 1456 
f 1444 1446 1457 
f 1451 1444 1457 
f 1441 1447 1458 
f 1447 1446 1458 
f 1446 1448 1458 
f 1448 1441 1458 
f 1444 1451 1459 
f 1453 1444 1459 
f 1451 1456 1459 
f 1456 1453 1459 
f 1446 1447 1460 
f 1456 1451 1460 
f 1447 1456 1460 
f 1457 1446 1460 
o convex_69
v -0.023220 -0.003595 0.043836
v -0.018182 0.030964 0.061835
v -0.006662 0.030964 0.061113
v -0.012424 0.033126 0.043114
v -0.006662 -0.004317 0.048157
v -0.024663 -0.004317 0.058952
v -0.023220 0.028805 0.045996
v -0.006662 0.030245 0.043114
v -0.006662 -0.004317 0.043114
v -0.024663 0.025202 0.061113
v -0.006662 0.007925 0.056074
v -0.024663 -0.004317 0.044554
v -0.023220 0.000004 0.060395
v -0.022503 0.031686 0.058952
v -0.024663 0.023043 0.046715
v -0.021060 0.002885 0.043114
v -0.011703 -0.004317 0.053191
v -0.021782 0.029523 0.044554
v -0.006662 0.027364 0.061113
v -0.008103 0.033126 0.043836
v -0.021782 0.031686 0.061113
v -0.018182 0.025202 0.061835
v -0.021782 0.025202 0.061835
f 1473 1482 1483 
f 1463 1465 1468 
f 1468 1465 1469 
f 1465 1466 1469 
f 1464 1468 1469 
f 1465 1463 1471 
f 1461 1469 1472 
f 1469 1466 1472 
f 1466 1470 1472 
f 1470 1466 1473 
f 1467 1470 1474 
f 1470 1467 1475 
f 1472 1470 1475 
f 1469 1461 1476 
f 1464 1469 1476 
f 1466 1465 1477 
f 1465 1471 1477 
f 1473 1466 1477 
f 1471 1473 1477 
f 1461 1472 1478 
f 1474 1464 1478 
f 1467 1474 1478 
f 1475 1467 1478 
f 1472 1475 1478 
f 1464 1476 1478 
f 1476 1461 1478 
f 1463 1462 1479 
f 1471 1463 1479 
f 1473 1471 1479 
f 1463 1468 1480 
f 1468 1464 1480 
f 1462 1463 1481 
f 1464 1474 1481 
f 1474 1470 1481 
f 1463 1480 1481 
f 1480 1464 1481 
f 1479 1462 1482 
f 1473 1479 1482 
f 1470 1473 1483 
f 1462 1481 1483 
f 1481 1470 1483 
f 1482 1462 1483 
o convex_70
v 0.034381 0.000724 -0.011608
v 0.036541 0.012964 -0.002970
v 0.037261 0.016565 -0.003690
v 0.033661 0.018005 -0.015930
v 0.037261 0.006485 -0.015930
v 0.034381 -0.000716 -0.003690
v 0.036541 0.000724 -0.003690
v 0.037261 0.016565 -0.015930
v 0.035101 0.016565 -0.004412
v 0.036541 0.001444 -0.015930
v 0.034381 0.004325 -0.015930
v 0.034381 0.005045 -0.002970
v 0.036541 0.018005 -0.004412
f 1487 1492 1496 
f 1487 1484 1489 
f 1486 1485 1490 
f 1488 1486 1490 
f 1488 1487 1491 
f 1486 1488 1491 
f 1485 1486 1492 
f 1487 1488 1493 
f 1489 1484 1493 
f 1490 1489 1493 
f 1488 1490 1493 
f 1484 1487 1494 
f 1493 1484 1494 
f 1487 1493 1494 
f 1487 1489 1495 
f 1489 1490 1495 
f 1490 1485 1495 
f 1485 1492 1495 
f 1492 1487 1495 
f 1486 1491 1496 
f 1491 1487 1496 
f 1492 1486 1496 
o convex_71
v 0.032221 0.017285 0.055351
v 0.009899 -0.006477 0.043114
v 0.024296 -0.006477 0.043114
v 0.030060 -0.006477 0.060392
v 0.009899 0.017285 0.051758
v 0.016382 0.017285 0.043114
v 0.009899 -0.006477 0.053194
v 0.031497 0.002885 0.063275
v 0.030779 -0.001434 0.045277
v 0.032221 0.017285 0.048874
v 0.029337 0.017285 0.059672
v 0.009899 0.017285 0.043114
v 0.031497 -0.006477 0.048158
v 0.009899 0.011521 0.053194
v 0.032221 -0.000716 0.063275
v 0.025019 0.016564 0.058951
v 0.028620 -0.002155 0.043834
v 0.022856 0.017285 0.044554
v 0.032221 -0.004316 0.058235
v 0.031497 0.017285 0.059672
v 0.032221 0.002885 0.049597
v 0.029337 -0.006477 0.044554
f 1513 1505 1518 
f 1498 1499 1500 
f 1499 1498 1502 
f 1501 1497 1502 
f 1498 1500 1503 
f 1501 1498 1503 
f 1502 1497 1506 
f 1497 1501 1507 
f 1498 1501 1508 
f 1502 1498 1508 
f 1501 1502 1508 
f 1500 1499 1509 
f 1501 1503 1510 
f 1503 1504 1510 
f 1503 1500 1511 
f 1504 1503 1511 
f 1506 1497 1511 
f 1507 1501 1512 
f 1504 1507 1512 
f 1501 1510 1512 
f 1510 1504 1512 
f 1499 1502 1513 
f 1506 1505 1513 
f 1502 1506 1514 
f 1513 1502 1514 
f 1506 1513 1514 
f 1500 1509 1515 
f 1511 1500 1515 
f 1506 1511 1515 
f 1497 1507 1516 
f 1507 1504 1516 
f 1504 1511 1516 
f 1511 1497 1516 
f 1505 1506 1517 
f 1509 1505 1517 
f 1515 1509 1517 
f 1506 1515 1517 
f 1509 1499 1518 
f 1505 1509 1518 
f 1499 1513 1518 
o convex_72
v 0.015664 -0.017278 0.004951
v 0.021422 -0.002157 0.005672
v 0.021422 -0.002157 0.004951
v 0.035101 -0.005758 0.007111
v 0.010619 -0.002157 0.012152
v 0.034380 -0.005758 0.012152
v 0.012781 -0.015837 0.010710
v 0.010619 -0.002157 0.004951
v 0.032939 -0.002877 0.012152
v 0.030056 -0.002877 0.004951
v 0.017101 -0.017278 0.008551
v 0.011340 -0.012236 0.004951
v 0.010619 -0.007919 0.012152
v 0.031499 -0.007919 0.004951
f 1522 1529 1532 
f 1520 1521 1523 
f 1521 1519 1526 
f 1523 1521 1526 
f 1521 1520 1527 
f 1520 1523 1527 
f 1523 1524 1527 
f 1524 1522 1527 
f 1519 1521 1528 
f 1521 1527 1528 
f 1527 1522 1528 
f 1522 1524 1529 
f 1525 1519 1529 
f 1524 1525 1529 
f 1519 1525 1530 
f 1526 1519 1530 
f 1526 1530 1531 
f 1524 1523 1531 
f 1525 1524 1531 
f 1523 1526 1531 
f 1530 1525 1531 
f 1519 1528 1532 
f 1528 1522 1532 
f 1529 1519 1532 
o convex_73
v 0.033659 -0.004318 0.015034
v 0.010621 -0.007916 0.012152
v 0.010621 -0.002157 0.012152
v 0.010621 -0.002157 0.030153
v 0.018541 -0.008636 0.030153
v 0.032937 -0.006477 0.012152
v 0.025739 -0.004318 0.030153
v 0.013503 -0.010077 0.022951
v 0.032937 -0.002877 0.012152
v 0.011343 -0.008636 0.030153
v 0.025739 -0.006477 0.030153
v 0.016383 -0.010077 0.019353
v 0.014942 -0.002157 0.030153
v 0.014942 -0.008636 0.012152
v 0.017102 -0.002157 0.012152
f 1545 1541 1547 
f 1535 1534 1536 
f 1534 1535 1538 
f 1536 1537 1539 
f 1533 1538 1541 
f 1538 1535 1541 
f 1539 1533 1541 
f 1536 1534 1542 
f 1537 1536 1542 
f 1534 1540 1542 
f 1540 1537 1542 
f 1537 1538 1543 
f 1538 1533 1543 
f 1533 1539 1543 
f 1539 1537 1543 
f 1538 1537 1544 
f 1540 1534 1544 
f 1537 1540 1544 
f 1535 1536 1545 
f 1536 1539 1545 
f 1539 1541 1545 
f 1534 1538 1546 
f 1544 1534 1546 
f 1538 1544 1546 
f 1541 1535 1547 
f 1535 1545 1547 
o convex_74
v 0.015660 0.011524 0.018632
v 0.010620 -0.002157 0.004951
v 0.010620 0.007203 0.004951
v 0.022139 0.009363 0.004951
v 0.014220 -0.002157 0.019352
v 0.021418 -0.002157 0.006392
v 0.010620 0.008644 0.019352
v 0.011341 0.011524 0.004951
v 0.010620 -0.002157 0.019352
v 0.020698 0.011524 0.004951
v 0.011341 0.011524 0.019352
v 0.021418 -0.002157 0.004951
v 0.022139 0.006484 0.006392
v 0.014941 -0.002157 0.018632
f 1560 1548 1561 
f 1549 1550 1551 
f 1552 1549 1553 
f 1550 1549 1554 
f 1551 1550 1555 
f 1550 1554 1555 
f 1549 1552 1556 
f 1554 1549 1556 
f 1552 1554 1556 
f 1548 1551 1557 
f 1551 1555 1557 
f 1555 1548 1557 
f 1552 1548 1558 
f 1554 1552 1558 
f 1548 1555 1558 
f 1555 1554 1558 
f 1549 1551 1559 
f 1553 1549 1559 
f 1553 1559 1560 
f 1551 1548 1560 
f 1559 1551 1560 
f 1548 1552 1561 
f 1552 1553 1561 
f 1553 1560 1561 
