o convex_0
v -0.003314 -0.024622 -0.037811
v 0.064084 0.025558 -0.007855
v 0.064084 0.006829 -0.007855
v -0.005567 0.018809 -0.003361
v 0.064084 0.025558 -0.040060
v -0.005567 0.025558 -0.040060
v 0.062581 -0.023119 -0.007855
v 0.064084 -0.023119 -0.040060
v -0.005567 -0.017131 -0.003361
v 0.057337 -0.016380 -0.003361
v -0.005567 0.025558 -0.009353
v -0.005567 -0.023871 -0.009353
v -0.005567 -0.024622 -0.040060
v 0.057337 0.018809 -0.003361
v 0.064084 -0.023871 -0.012352
v 0.064835 -0.020128 -0.012352
v 0.064835 0.024055 -0.040060
v 0.033376 -0.024622 -0.040060
v 0.064835 0.024055 -0.011602
v 0.064835 -0.014882 -0.028823
v 0.055841 -0.017878 -0.003361
v -0.002570 0.025558 -0.008606
v 0.016905 -0.018630 -0.004112
v 0.043113 0.019561 -0.003361
v 0.063332 -0.022372 -0.007855
v 0.055097 -0.023871 -0.036309
v 0.058839 -0.017878 -0.004112
v 0.025140 -0.023871 -0.009353
v 0.064835 0.004579 -0.037811
v 0.058839 0.020312 -0.004112
v 0.033376 -0.024622 -0.038562
v 0.044609 -0.023119 -0.007855
v -0.005567 -0.021626 -0.007108
f 12 32 33 
f 2 5 6 
f 6 5 8 
f 4 6 9 
f 4 9 10 
f 2 6 11 
f 6 4 11 
f 9 6 12 
f 6 8 13 
f 1 12 13 
f 12 6 13 
f 4 10 14 
f 15 8 16 
f 5 2 17 
f 8 5 17 
f 13 8 18 
f 1 13 18 
f 2 3 19 
f 3 16 19 
f 17 2 19 
f 16 17 19 
f 16 8 20 
f 17 16 20 
f 10 9 21 
f 2 11 22 
f 11 4 22 
f 21 9 23 
f 4 14 24 
f 2 22 24 
f 22 4 24 
f 7 15 25 
f 16 3 25 
f 15 16 25 
f 8 15 26 
f 18 8 26 
f 15 18 26 
f 3 2 27 
f 14 10 27 
f 21 7 27 
f 10 21 27 
f 25 3 27 
f 7 25 27 
f 12 1 28 
f 7 12 28 
f 15 7 28 
f 8 17 29 
f 20 8 29 
f 17 20 29 
f 2 24 30 
f 24 14 30 
f 27 2 30 
f 14 27 30 
f 1 18 31 
f 18 15 31 
f 28 1 31 
f 15 28 31 
f 12 7 32 
f 7 21 32 
f 21 23 32 
f 32 23 33 
f 9 12 33 
f 23 9 33 
o convex_1
v -0.058744 0.017313 -0.019842
v -0.005568 0.025558 -0.009354
v -0.005568 0.025558 -0.040060
v -0.005568 -0.024618 -0.040060
v -0.051248 -0.019379 -0.005608
v -0.056495 -0.024618 -0.040060
v -0.005568 -0.023870 -0.009354
v -0.057989 0.024805 -0.040060
v -0.055745 0.024805 -0.010103
v -0.056495 -0.024618 -0.010852
v -0.005568 0.020309 -0.005608
v -0.051998 0.019561 -0.005608
v -0.005568 -0.019374 -0.005608
v -0.055745 0.025558 -0.014598
v -0.052747 -0.025371 -0.013846
v -0.057239 0.022562 -0.010103
v -0.057239 -0.018626 -0.040060
v -0.054996 -0.025371 -0.040060
v -0.054246 0.025558 -0.040060
v -0.055745 -0.024618 -0.009354
v -0.039266 0.021809 -0.005608
v -0.057239 -0.020127 -0.013846
v -0.058744 0.021809 -0.014598
v -0.012309 -0.024618 -0.014598
v -0.058744 0.020309 -0.032570
v -0.057989 0.024805 -0.014598
v -0.054996 0.014316 -0.007857
v -0.057989 0.003832 -0.040060
v -0.005568 0.023305 -0.007108
v -0.005568 -0.021622 -0.007108
v -0.049754 0.024805 -0.009354
v -0.057239 -0.020874 -0.022085
v -0.040016 -0.024618 -0.009354
v -0.055745 -0.025371 -0.014598
v -0.056495 -0.022375 -0.010103
v -0.051248 -0.025371 -0.037810
f 48 51 69 
f 36 35 37 
f 36 37 39 
f 37 35 40 
f 36 39 41 
f 40 35 44 
f 38 44 45 
f 44 38 46 
f 40 44 46 
f 35 36 47 
f 45 42 49 
f 41 39 50 
f 39 37 51 
f 36 41 52 
f 47 36 52 
f 41 47 52 
f 42 45 54 
f 45 44 54 
f 34 55 56 
f 37 40 57 
f 48 37 57 
f 50 34 58 
f 34 56 58 
f 56 41 58 
f 47 41 59 
f 42 47 59 
f 49 42 59 
f 41 56 59 
f 56 49 59 
f 38 45 60 
f 45 49 60 
f 53 38 60 
f 41 50 61 
f 50 58 61 
f 58 41 61 
f 44 35 62 
f 35 54 62 
f 54 44 62 
f 46 38 63 
f 40 46 63 
f 38 53 63 
f 35 47 64 
f 47 42 64 
f 54 35 64 
f 42 54 64 
f 39 43 65 
f 34 50 65 
f 50 39 65 
f 43 55 65 
f 55 34 65 
f 53 48 66 
f 57 40 66 
f 48 57 66 
f 40 63 66 
f 63 53 66 
f 43 39 67 
f 39 51 67 
f 51 48 67 
f 48 53 67 
f 53 43 67 
f 43 53 68 
f 55 43 68 
f 49 56 68 
f 56 55 68 
f 60 49 68 
f 53 60 68 
f 37 48 69 
f 51 37 69 
o convex_2
v -0.034779 0.003838 0.094000
v -0.041516 -0.021626 0.065544
v -0.043763 -0.019378 0.059554
v -0.034029 0.003838 0.058803
v -0.046758 0.000091 0.087259
v -0.034029 -0.013387 0.088010
v -0.045261 0.006834 0.069294
v -0.034029 -0.014135 0.058803
v -0.047509 -0.015634 0.076779
v -0.034029 0.009830 0.085760
v -0.041516 -0.006646 0.092501
v -0.042265 0.006083 0.062553
v -0.043763 -0.020127 0.076035
v -0.039272 0.008330 0.088010
v -0.039272 0.000842 0.096251
v -0.039272 -0.021626 0.072285
v -0.043763 -0.014883 0.058803
v -0.035528 0.008330 0.067795
v -0.047509 -0.011887 0.073040
v -0.034029 -0.015634 0.080518
v -0.047509 -0.004405 0.085016
v -0.034029 -0.008143 0.091757
v -0.045261 0.000842 0.065544
v -0.040769 -0.011887 0.088755
v -0.038523 0.002339 0.058803
v -0.044511 0.007582 0.071541
v -0.046758 -0.017131 0.077527
v -0.043014 0.004586 0.061801
v -0.038523 -0.020875 0.066299
v -0.045261 0.002339 0.088010
v -0.037774 -0.001406 0.096251
v -0.036276 0.009830 0.082013
v -0.047509 -0.002157 0.083513
v -0.040021 -0.020127 0.061801
v -0.034029 0.008330 0.069294
v -0.034029 0.004586 0.093252
v -0.037774 0.007582 0.064796
v -0.034029 -0.015634 0.071541
f 89 98 107 
f 73 75 77 
f 75 73 79 
f 72 71 82 
f 74 80 84 
f 70 83 84 
f 82 71 85 
f 75 82 85 
f 77 72 86 
f 73 77 86 
f 72 78 88 
f 86 72 88 
f 77 75 89 
f 75 85 89 
f 80 74 90 
f 88 78 90 
f 75 79 91 
f 80 75 91 
f 88 76 92 
f 86 88 92 
f 75 80 93 
f 82 75 93 
f 81 73 94 
f 73 86 94 
f 76 74 95 
f 81 76 95 
f 78 72 96 
f 72 82 96 
f 80 90 96 
f 90 78 96 
f 93 80 96 
f 82 93 96 
f 76 81 97 
f 92 76 97 
f 86 92 97 
f 81 94 97 
f 94 86 97 
f 85 71 98 
f 89 85 98 
f 74 84 99 
f 84 83 99 
f 95 74 99 
f 83 95 99 
f 70 84 100 
f 84 80 100 
f 91 70 100 
f 80 91 100 
f 83 79 101 
f 95 83 101 
f 87 95 101 
f 74 76 102 
f 76 88 102 
f 90 74 102 
f 88 90 102 
f 71 72 103 
f 72 77 103 
f 98 71 103 
f 77 98 103 
f 79 73 104 
f 73 87 104 
f 101 79 104 
f 87 101 104 
f 83 70 105 
f 79 83 105 
f 70 91 105 
f 91 79 105 
f 73 81 106 
f 87 73 106 
f 81 95 106 
f 95 87 106 
f 77 89 107 
f 98 77 107 
o convex_3
v 0.055095 -0.017127 -0.003357
v 0.040124 0.003834 0.039321
v 0.037128 0.003834 0.039321
v 0.031882 0.021064 0.001139
v 0.024391 -0.024622 0.003387
v 0.057344 0.019564 0.004135
v 0.025145 0.020314 0.034082
v 0.027391 -0.020877 0.035578
v 0.062586 -0.001397 0.021350
v 0.024391 0.018814 -0.003352
v 0.046107 -0.020127 0.028090
v 0.044611 0.020314 0.029590
v 0.057344 0.018064 -0.003357
v 0.024391 -0.017132 -0.003352
v 0.029636 0.024809 0.025094
v 0.024391 -0.003642 0.037078
v 0.056594 -0.019377 -0.000361
v 0.051353 -0.002147 0.034830
v 0.038624 -0.024622 0.022846
v 0.064086 0.002339 0.011623
v 0.038624 -0.014877 0.038574
v 0.051353 0.014319 0.029590
v 0.037874 0.016569 0.037826
v 0.058094 0.015069 0.017611
v 0.058094 -0.013382 0.017611
v 0.037874 0.024809 0.024346
v 0.024391 0.022559 0.007131
v 0.049853 -0.015627 0.029590
v 0.055095 0.020314 0.000391
v 0.028137 0.018814 0.037078
v 0.025145 -0.019372 0.034082
v 0.056594 -0.017127 -0.003357
v 0.030382 -0.024622 0.027342
v 0.052849 0.003834 0.033334
v 0.049103 -0.020877 0.022098
v 0.064086 -0.001397 0.013867
v 0.063336 0.001584 0.019854
v 0.029636 0.021809 0.034082
v 0.036378 0.024809 0.019854
v 0.032632 -0.001397 0.039321
v 0.024391 0.018814 0.034082
v 0.044611 0.001589 0.038574
v 0.028137 -0.018622 0.037078
v 0.030382 -0.021617 0.034830
v 0.055095 -0.003642 0.031086
v 0.056594 -0.019377 0.003383
v 0.044611 0.022559 0.022846
v 0.038624 -0.024622 0.019854
v 0.056594 0.017314 0.016111
v 0.059590 0.013569 0.016111
v 0.063336 0.000094 0.009375
v 0.041619 0.014319 0.037078
v 0.027391 -0.023122 0.029590
v 0.041619 -0.013382 0.037826
v 0.043865 -0.020127 0.030338
v 0.026641 0.023309 0.028090
v 0.056594 0.002339 0.029590
v 0.034878 -0.023872 0.028838
v 0.046107 -0.022367 0.022846
v 0.034128 0.014319 0.038574
v 0.059590 -0.011887 0.015363
v 0.048353 0.021809 0.005631
v 0.024391 -0.011882 0.031834
v 0.052849 -0.012632 0.028090
f 152 135 171 
f 108 117 120 
f 117 108 121 
f 112 117 121 
f 117 112 123 
f 120 113 127 
f 111 117 134 
f 117 123 134 
f 117 111 136 
f 113 120 136 
f 120 117 136 
f 133 113 136 
f 108 120 139 
f 121 108 139 
f 112 121 139 
f 124 112 139 
f 112 126 140 
f 135 118 142 
f 132 135 142 
f 124 139 143 
f 131 129 144 
f 116 143 144 
f 143 127 144 
f 130 119 145 
f 119 133 145 
f 133 122 145 
f 114 137 145 
f 137 130 145 
f 122 133 146 
f 134 122 146 
f 133 136 146 
f 109 110 147 
f 128 109 147 
f 137 123 147 
f 114 134 148 
f 134 123 148 
f 137 114 148 
f 123 137 148 
f 109 128 149 
f 130 109 149 
f 125 141 149 
f 138 115 150 
f 123 138 150 
f 147 123 150 
f 128 147 150 
f 115 140 151 
f 150 115 151 
f 128 150 151 
f 126 124 153 
f 132 142 153 
f 124 143 153 
f 113 133 154 
f 133 119 154 
f 112 124 155 
f 126 112 155 
f 124 126 155 
f 119 129 156 
f 131 113 156 
f 129 131 156 
f 113 154 156 
f 154 119 156 
f 127 113 157 
f 113 131 157 
f 144 127 157 
f 131 144 157 
f 120 127 158 
f 139 120 158 
f 127 143 158 
f 143 139 158 
f 129 119 159 
f 119 130 159 
f 141 129 159 
f 130 149 159 
f 149 141 159 
f 138 112 160 
f 115 138 160 
f 112 140 160 
f 140 115 160 
f 149 128 161 
f 125 149 161 
f 135 152 161 
f 152 125 161 
f 118 135 162 
f 128 151 162 
f 161 128 162 
f 135 161 162 
f 134 114 163 
f 122 134 163 
f 114 145 163 
f 145 122 163 
f 141 125 164 
f 129 141 164 
f 144 129 164 
f 116 144 164 
f 152 116 164 
f 125 152 164 
f 140 126 165 
f 151 140 165 
f 162 151 165 
f 162 165 166 
f 142 118 166 
f 126 153 166 
f 153 142 166 
f 118 162 166 
f 165 126 166 
f 110 109 167 
f 109 130 167 
f 130 137 167 
f 147 110 167 
f 137 147 167 
f 116 132 168 
f 143 116 168 
f 132 153 168 
f 153 143 168 
f 111 134 169 
f 136 111 169 
f 134 146 169 
f 146 136 169 
f 123 112 170 
f 112 138 170 
f 138 123 170 
f 132 116 171 
f 135 132 171 
f 116 152 171 
o convex_4
v -0.016806 0.016566 0.052060
v -0.049005 -0.012632 0.030345
v -0.049005 -0.012632 0.031844
v -0.005568 -0.020125 0.023602
v -0.037023 0.023311 0.023602
v -0.043763 -0.017877 0.058803
v -0.005568 0.017314 0.023602
v -0.008566 -0.007393 0.048314
v -0.043763 -0.022373 0.023602
v -0.038520 0.014318 0.048311
v -0.025790 -0.026860 0.044572
v -0.019799 -0.012637 0.058803
v -0.028779 0.013570 0.058803
v -0.046756 0.012822 0.033339
v -0.022044 0.023311 0.043821
v -0.005568 0.001586 0.044569
v -0.016057 0.002338 0.058803
v -0.026538 -0.026112 0.023602
v -0.018302 -0.023864 0.046815
v -0.045259 0.006082 0.023602
v -0.031028 0.021063 0.049813
v -0.034026 -0.025370 0.050561
v -0.039268 0.000838 0.058803
v -0.005568 -0.014133 0.039331
v -0.020547 0.023311 0.023602
v -0.005568 0.016566 0.032592
v -0.028779 -0.023121 0.054306
v -0.044511 -0.014128 0.058052
v -0.030280 -0.027618 0.038584
v -0.025042 -0.027618 0.039335
v -0.012311 0.016566 0.046815
v -0.022792 0.021063 0.051312
v -0.040017 -0.023869 0.040079
v -0.005568 -0.020125 0.028846
v -0.014556 0.021063 0.039335
v -0.049005 -0.008141 0.033339
v -0.021296 0.013570 0.057304
v -0.049005 -0.008888 0.028846
v -0.032529 0.022558 0.041571
v -0.012311 0.005335 0.053558
v -0.005568 -0.004397 0.045320
v -0.044511 -0.021621 0.023602
v -0.024293 -0.015628 0.058803
v -0.046008 -0.011885 0.051312
v -0.040017 0.019562 0.023602
v -0.037023 -0.024617 0.023602
v -0.034026 0.012822 0.055057
v -0.023541 -0.023121 0.052060
v -0.046756 -0.005144 0.024353
v -0.005568 0.012075 0.037832
v -0.046756 0.012822 0.031844
v -0.005568 -0.017877 0.034838
v -0.006321 0.018062 0.028098
v -0.016806 -0.014128 0.054306
v -0.037772 0.022558 0.026599
v -0.016806 -0.003644 0.058803
v -0.027287 -0.025365 0.050561
v -0.015305 0.018815 0.047566
v -0.028779 0.021811 0.049813
v -0.033278 0.021811 0.043070
v -0.036275 -0.024617 0.050561
v -0.017554 -0.024617 0.040834
v -0.028779 -0.027618 0.043070
v -0.016057 0.010574 0.055057
f 211 202 235 
f 175 176 178 
f 176 175 180 
f 177 183 184 
f 175 178 187 
f 184 183 188 
f 180 175 189 
f 176 180 191 
f 185 181 192 
f 177 184 194 
f 181 185 194 
f 175 187 195 
f 178 176 196 
f 176 186 196 
f 187 178 197 
f 177 193 198 
f 177 194 199 
f 194 185 199 
f 189 175 201 
f 190 182 201 
f 200 189 201 
f 177 180 204 
f 180 200 204 
f 175 195 205 
f 201 175 205 
f 196 186 206 
f 173 174 207 
f 184 188 208 
f 172 203 208 
f 203 184 208 
f 173 207 209 
f 186 176 210 
f 187 202 211 
f 179 195 212 
f 195 187 212 
f 211 188 212 
f 187 211 212 
f 174 173 213 
f 177 174 213 
f 180 177 213 
f 191 180 213 
f 173 209 213 
f 183 177 214 
f 177 198 214 
f 174 177 215 
f 177 199 215 
f 199 185 215 
f 207 174 215 
f 185 207 215 
f 176 191 216 
f 180 189 217 
f 200 180 217 
f 189 200 217 
f 184 192 218 
f 192 181 218 
f 181 194 218 
f 194 184 218 
f 190 183 219 
f 183 214 219 
f 214 198 219 
f 209 191 220 
f 191 213 220 
f 213 209 220 
f 187 197 221 
f 202 187 221 
f 197 202 221 
f 207 185 222 
f 191 209 222 
f 209 207 222 
f 176 216 222 
f 216 191 222 
f 195 190 223 
f 205 195 223 
f 190 205 223 
f 178 196 224 
f 197 178 224 
f 196 206 224 
f 206 197 224 
f 179 183 225 
f 183 190 225 
f 195 179 225 
f 190 195 225 
f 210 176 226 
f 176 222 226 
f 222 185 226 
f 183 179 227 
f 188 183 227 
f 179 212 227 
f 212 188 227 
f 182 190 228 
f 198 193 228 
f 190 219 228 
f 219 198 228 
f 172 202 229 
f 202 197 229 
f 203 172 229 
f 186 203 229 
f 206 186 229 
f 197 206 229 
f 192 184 230 
f 184 203 230 
f 203 186 230 
f 186 210 230 
f 210 192 230 
f 185 192 231 
f 192 210 231 
f 210 226 231 
f 226 185 231 
f 193 177 232 
f 200 193 232 
f 177 204 232 
f 204 200 232 
f 190 201 233 
f 205 190 233 
f 201 205 233 
f 193 200 234 
f 201 182 234 
f 200 201 234 
f 182 228 234 
f 228 193 234 
f 202 172 235 
f 172 208 235 
f 208 188 235 
f 188 211 235 
o convex_5
v -0.016804 -0.000658 0.058804
v -0.034026 -0.014885 0.058804
v -0.033276 -0.015635 0.058804
v -0.017554 0.010576 0.066292
v -0.028035 0.013575 0.058804
v -0.034026 -0.014136 0.066292
v -0.034026 0.006833 0.066292
v -0.024292 -0.011889 0.066292
v -0.022795 -0.014136 0.058804
v -0.034026 0.004583 0.058804
v -0.022795 0.012077 0.058804
v -0.019799 -0.005896 0.064045
v -0.020548 -0.012635 0.059553
v -0.028783 -0.014136 0.066292
v -0.016804 0.001589 0.058804
v -0.017554 0.007582 0.066292
v -0.020548 0.010576 0.066292
v -0.028035 -0.015635 0.059553
v -0.019799 0.011327 0.061799
v -0.018302 -0.007394 0.059553
v -0.021298 -0.006642 0.066292
v -0.028035 0.013575 0.059553
f 254 240 257 
f 238 237 236 
f 236 237 240 
f 237 238 241 
f 241 239 242 
f 237 241 242 
f 239 241 243 
f 238 236 244 
f 240 237 245 
f 242 240 245 
f 237 242 245 
f 236 240 246 
f 243 244 248 
f 244 236 248 
f 243 241 249 
f 244 243 249 
f 239 236 250 
f 236 246 250 
f 236 239 251 
f 239 243 251 
f 242 239 252 
f 241 238 253 
f 238 244 253 
f 249 241 253 
f 244 249 253 
f 246 240 254 
f 239 250 254 
f 250 246 254 
f 248 236 255 
f 247 248 255 
f 236 251 255 
f 251 247 255 
f 243 248 256 
f 248 247 256 
f 251 243 256 
f 247 251 256 
f 240 242 257 
f 252 239 257 
f 242 252 257 
f 239 254 257 
o convex_6
v -0.030282 -0.016381 0.073038
v -0.033277 0.004586 0.093252
v -0.034028 0.004586 0.093252
v -0.020547 0.010575 0.066292
v -0.034028 0.006831 0.066292
v -0.020547 -0.008892 0.082768
v -0.034028 -0.014132 0.087259
v -0.022047 0.012821 0.078279
v -0.022795 -0.008892 0.066292
v -0.034028 -0.014132 0.066292
v -0.016053 0.008330 0.070040
v -0.025040 -0.002152 0.089508
v -0.033277 0.010575 0.077529
v -0.026536 -0.011138 0.088758
v -0.018300 0.010575 0.076780
v -0.025786 -0.014882 0.082018
v -0.026536 0.013572 0.074534
v -0.027285 0.005333 0.090254
v -0.034028 0.009828 0.085013
v -0.031781 -0.005896 0.092503
v -0.020547 -0.008142 0.071539
v -0.017552 0.010575 0.066292
v -0.025786 -0.012634 0.066292
v -0.022047 -0.002900 0.086510
v -0.031781 -0.016381 0.081269
v -0.025040 -0.014132 0.073784
v -0.016802 0.009828 0.074534
v -0.034028 -0.008142 0.091753
v -0.016802 0.007579 0.067044
v -0.034028 -0.015630 0.072288
v -0.023545 -0.007394 0.088009
v -0.024294 0.005333 0.087259
v -0.030282 -0.014882 0.066292
v -0.034028 0.007579 0.067044
v -0.021298 -0.006644 0.066292
v -0.029534 -0.006644 0.091753
v -0.030282 -0.011886 0.089508
v -0.029534 -0.014882 0.085013
v -0.024294 0.013572 0.076780
f 279 274 296 
f 260 262 264 
f 262 261 266 
f 264 262 267 
f 262 266 267 
f 263 271 273 
f 265 259 275 
f 259 269 275 
f 272 265 275 
f 260 259 276 
f 262 260 276 
f 259 265 276 
f 274 270 276 
f 259 260 277 
f 268 263 278 
f 266 261 279 
f 261 274 279 
f 267 266 280 
f 266 278 280 
f 258 273 282 
f 273 258 283 
f 263 273 283 
f 278 263 283 
f 280 278 283 
f 263 268 284 
f 265 272 284 
f 268 279 284 
f 279 265 284 
f 281 263 284 
f 272 281 284 
f 260 264 285 
f 277 260 285 
f 268 278 286 
f 279 268 286 
f 264 267 287 
f 258 282 287 
f 282 264 287 
f 271 263 288 
f 263 281 288 
f 281 269 288 
f 275 269 289 
f 272 275 289 
f 269 281 289 
f 281 272 289 
f 267 280 290 
f 283 258 290 
f 280 283 290 
f 258 287 290 
f 287 267 290 
f 261 262 291 
f 274 261 291 
f 270 274 291 
f 262 276 291 
f 276 270 291 
f 278 266 292 
f 266 279 292 
f 286 278 292 
f 279 286 292 
f 269 259 293 
f 259 277 293 
f 271 288 293 
f 288 269 293 
f 285 264 294 
f 277 285 294 
f 293 277 294 
f 271 293 294 
f 273 271 295 
f 264 282 295 
f 282 273 295 
f 294 264 295 
f 271 294 295 
f 276 265 296 
f 274 276 296 
f 265 279 296 
o convex_7
v 0.002671 -0.001401 0.042325
v -0.004068 -0.022375 0.000388
v -0.005567 -0.017128 -0.003361
v 0.007914 0.018816 -0.003361
v -0.005567 0.017315 0.029586
v 0.007914 -0.019378 -0.001113
v -0.005567 -0.018629 0.033331
v -0.005567 0.018816 -0.003361
v 0.007914 0.008331 0.037079
v 0.007914 -0.017128 0.029586
v -0.005567 0.000835 0.044573
v 0.007914 0.021813 0.004132
v 0.007914 -0.011138 0.037079
v 0.007914 0.014322 0.030337
v -0.004818 -0.008893 0.043071
v -0.005567 0.021061 0.007126
v 0.007914 -0.017128 -0.003361
v -0.004818 0.012825 0.037079
v -0.001073 -0.022375 0.003382
v 0.007914 -0.005147 0.040078
v -0.005567 -0.020126 0.027344
v 0.007164 -0.018629 0.023595
v 0.004169 0.021813 0.001134
v -0.005567 -0.022375 0.002640
v 0.007914 -0.020126 0.004132
v 0.001173 -0.019378 0.028094
v 0.007914 0.002340 0.040078
v 0.002671 -0.015632 0.034832
v -0.005567 -0.005895 0.044573
v -0.004818 0.005329 0.042325
v -0.005567 0.021061 0.001885
v -0.005567 0.014317 0.035583
v -0.004818 -0.012639 0.040078
v -0.000325 -0.022375 0.000388
v -0.004818 0.017315 0.029586
f 328 310 331 
f 301 299 303 
f 300 299 304 
f 299 301 304 
f 302 300 305 
f 302 305 306 
f 301 303 307 
f 305 300 308 
f 306 305 309 
f 305 308 310 
f 304 301 312 
f 301 308 312 
f 298 299 313 
f 299 300 313 
f 300 302 313 
f 305 310 314 
f 309 305 316 
f 311 309 316 
f 303 299 317 
f 300 304 319 
f 308 300 319 
f 312 308 319 
f 299 298 320 
f 298 315 320 
f 317 299 320 
f 315 317 320 
f 302 306 321 
f 318 315 321 
f 306 318 321 
f 306 303 322 
f 303 317 322 
f 317 315 322 
f 315 318 322 
f 318 306 322 
f 307 297 323 
f 297 316 323 
f 316 305 323 
f 303 306 324 
f 306 309 324 
f 297 307 325 
f 307 303 325 
f 316 297 325 
f 311 316 325 
f 305 314 326 
f 307 323 326 
f 323 305 326 
f 304 312 327 
f 319 304 327 
f 312 319 327 
f 301 307 328 
f 314 310 328 
f 307 326 328 
f 326 314 328 
f 309 311 329 
f 303 324 329 
f 324 309 329 
f 325 303 329 
f 311 325 329 
f 298 313 330 
f 313 302 330 
f 315 298 330 
f 302 321 330 
f 321 315 330 
f 308 301 331 
f 310 308 331 
f 301 328 331 
o convex_8
v 0.019147 -0.024621 0.003383
v 0.017647 0.007580 0.043070
v 0.013907 0.007580 0.043070
v 0.016152 0.024060 0.002638
v 0.007914 -0.017131 -0.003352
v 0.024391 0.018810 -0.003352
v 0.007914 0.022555 0.001138
v 0.007914 -0.011886 0.036331
v 0.024391 -0.011136 0.032586
v 0.024391 -0.017131 -0.003352
v 0.023641 0.018060 0.026596
v 0.007914 0.012820 0.032586
v 0.007914 -0.017876 0.026592
v 0.024391 -0.024616 0.007132
v 0.007914 0.018810 -0.003352
v 0.024391 0.004580 0.036331
v 0.019147 0.018065 0.029591
v 0.024391 0.022555 0.010877
v 0.015402 0.024060 0.009377
v 0.007914 0.002340 0.040821
v 0.007914 -0.020121 0.002638
v 0.017647 0.002340 0.042320
v 0.009414 -0.016381 0.030336
v 0.022893 0.011325 0.037080
v 0.024391 -0.003651 0.037080
v 0.024391 -0.024616 0.002638
v 0.010911 0.001585 0.042320
v 0.007914 0.014315 0.029591
v 0.009414 -0.009636 0.037826
v 0.021394 0.016565 0.032586
v 0.019896 0.024060 0.004133
v 0.016901 -0.015626 0.028841
v 0.022144 0.018810 0.027342
v 0.022893 -0.025371 0.005632
v 0.013157 0.024060 0.007128
v 0.013157 0.008330 0.042320
v 0.016901 -0.023866 0.005632
v 0.024391 0.018060 0.024347
v 0.016901 -0.023116 0.001138
v 0.018397 0.005330 0.043070
v 0.022144 0.023310 0.010877
v 0.007914 -0.006641 0.039325
v 0.023641 -0.005891 0.036331
v 0.007914 0.006080 0.039325
v 0.021394 0.008330 0.040071
v 0.019147 0.016565 0.032586
v 0.007914 -0.019371 -0.001107
v 0.024391 0.021805 0.004133
f 362 349 379 
f 338 336 339 
f 336 337 341 
f 337 340 341 
f 338 339 343 
f 339 336 344 
f 341 340 345 
f 335 337 346 
f 337 336 346 
f 336 338 346 
f 338 335 346 
f 340 337 347 
f 347 337 349 
f 343 339 351 
f 344 336 352 
f 340 339 354 
f 339 344 354 
f 340 347 356 
f 341 345 357 
f 334 351 358 
f 338 343 359 
f 343 348 359 
f 348 350 359 
f 339 340 360 
f 333 355 361 
f 355 342 361 
f 337 335 362 
f 335 350 362 
f 345 340 363 
f 340 354 363 
f 354 345 363 
f 342 349 364 
f 350 348 364 
f 348 361 364 
f 361 342 364 
f 354 344 365 
f 345 354 365 
f 332 357 365 
f 357 345 365 
f 335 338 366 
f 350 335 366 
f 338 359 366 
f 359 350 366 
f 334 333 367 
f 351 334 367 
f 333 361 367 
f 352 332 368 
f 344 352 368 
f 332 365 368 
f 365 344 368 
f 347 349 369 
f 349 342 369 
f 355 347 369 
f 342 355 369 
f 336 341 370 
f 357 332 370 
f 341 357 370 
f 333 334 371 
f 353 356 371 
f 334 358 371 
f 358 353 371 
f 349 362 372 
f 362 350 372 
f 364 349 372 
f 350 364 372 
f 351 339 373 
f 358 351 373 
f 353 358 373 
f 339 360 373 
f 360 353 373 
f 340 356 374 
f 356 353 374 
f 360 340 374 
f 353 360 374 
f 343 351 375 
f 367 343 375 
f 351 367 375 
f 355 333 376 
f 347 355 376 
f 356 347 376 
f 333 371 376 
f 371 356 376 
f 348 343 377 
f 361 348 377 
f 343 367 377 
f 367 361 377 
f 332 352 378 
f 352 336 378 
f 336 370 378 
f 370 332 378 
f 349 337 379 
f 337 362 379 
o convex_9
v -0.025792 0.024059 0.023602
v -0.046007 0.009834 -0.005608
v -0.046007 0.015068 -0.005608
v -0.005573 0.000843 -0.005608
v -0.044508 0.000843 0.023602
v -0.005573 0.000843 0.023602
v -0.005573 0.020313 -0.005608
v -0.054998 0.022558 0.009369
v -0.047505 0.000843 -0.000364
v -0.040767 0.027056 -0.000364
v -0.005573 0.017318 0.023602
v -0.057995 0.012831 0.004880
v -0.051251 0.018817 0.019856
v -0.044508 0.023307 -0.005608
v -0.044508 0.000843 -0.005608
v -0.005573 0.021062 0.007130
v -0.037775 0.022558 0.023602
v -0.057995 0.013577 0.011616
v -0.029538 0.026307 0.004131
v -0.043759 0.027056 0.004131
v -0.057240 0.018065 0.003384
v -0.049004 0.001592 0.009369
v -0.022046 0.024056 0.022853
v -0.031781 0.024808 -0.005608
v -0.049753 0.024059 -0.001113
v -0.025792 0.025558 -0.001113
v -0.034778 0.024808 0.020602
v -0.049004 0.003840 -0.003360
v -0.050502 0.021062 0.019107
v -0.057995 0.018065 0.010864
v -0.055742 0.015068 0.015362
v -0.028040 0.024808 0.022101
v -0.045257 0.005338 0.023602
v -0.049753 0.002341 0.000385
v -0.006322 0.018065 0.023602
v -0.056491 0.011332 0.012365
v -0.047505 0.022558 -0.004109
v -0.054998 0.022558 0.006378
v -0.037021 0.027056 0.002632
v -0.047505 0.000843 0.013863
v -0.005573 0.021062 0.001883
v -0.047505 0.008332 -0.004859
v -0.055742 0.018065 0.015362
v -0.047505 0.018817 0.021352
v -0.055742 0.021062 0.012365
f 409 422 424 
f 381 382 383 
f 380 384 385 
f 384 383 385 
f 383 382 386 
f 385 383 386 
f 383 384 388 
f 380 385 390 
f 385 386 390 
f 386 382 393 
f 381 383 394 
f 383 388 394 
f 390 386 395 
f 384 380 396 
f 395 398 402 
f 386 393 403 
f 393 389 403 
f 389 393 404 
f 399 389 404 
f 398 395 405 
f 386 403 405 
f 403 389 405 
f 391 400 407 
f 392 396 408 
f 399 387 408 
f 396 406 408 
f 406 399 408 
f 391 397 409 
f 400 391 409 
f 397 384 410 
f 396 380 411 
f 380 402 411 
f 402 398 411 
f 406 396 411 
f 399 406 411 
f 384 396 412 
f 410 384 412 
f 392 410 412 
f 394 388 413 
f 388 401 413 
f 401 391 413 
f 391 407 413 
f 407 394 413 
f 380 390 414 
f 390 395 414 
f 402 380 414 
f 395 402 414 
f 384 397 415 
f 397 391 415 
f 391 401 415 
f 393 382 416 
f 404 393 416 
f 400 404 416 
f 387 399 417 
f 399 404 417 
f 404 400 417 
f 409 387 417 
f 400 409 417 
f 389 399 418 
f 405 389 418 
f 398 405 418 
f 411 398 418 
f 399 411 418 
f 388 384 419 
f 401 388 419 
f 384 415 419 
f 415 401 419 
f 395 386 420 
f 386 405 420 
f 405 395 420 
f 382 381 421 
f 381 394 421 
f 394 407 421 
f 407 400 421 
f 416 382 421 
f 400 416 421 
f 392 408 422 
f 409 397 422 
f 410 392 422 
f 397 410 422 
f 396 392 423 
f 412 396 423 
f 392 412 423 
f 408 387 424 
f 387 409 424 
f 422 408 424 
o convex_10
v -0.051254 -0.006647 0.004880
v -0.046004 -0.008894 -0.005608
v -0.046004 -0.002154 -0.005608
v -0.005567 -0.008894 0.023602
v -0.044510 0.000843 0.023602
v -0.005567 0.000843 -0.005608
v -0.005567 -0.008894 -0.005608
v -0.005567 0.000843 0.023602
v -0.042265 -0.008894 0.023602
v -0.047502 0.000843 -0.000364
v -0.050503 -0.008894 0.007876
v -0.044510 0.000843 -0.005608
v -0.050503 -0.002154 -0.000364
v -0.046004 -0.005147 0.023602
v -0.050503 -0.001405 0.007130
v -0.049756 -0.008894 -0.001862
v -0.049004 -0.002903 -0.004109
v -0.048253 0.000843 0.007876
f 434 439 442 
f 426 427 430 
f 430 428 431 
f 428 426 431 
f 426 430 431 
f 429 428 432 
f 430 429 432 
f 428 430 432 
f 426 428 433 
f 428 429 433 
f 429 430 434 
f 426 433 435 
f 430 427 436 
f 434 430 436 
f 434 436 437 
f 433 429 438 
f 435 433 438 
f 435 438 439 
f 425 435 439 
f 434 437 439 
f 437 425 439 
f 438 429 439 
f 426 435 440 
f 435 425 440 
f 425 437 440 
f 440 437 441 
f 427 426 441 
f 436 427 441 
f 437 436 441 
f 426 440 441 
f 429 434 442 
f 439 429 442 
o convex_11
v -0.045259 -0.027618 0.003377
v -0.005573 -0.008894 0.010120
v -0.005573 -0.017884 0.010120
v -0.005573 -0.008894 -0.005608
v -0.057989 -0.010393 0.010120
v -0.046008 -0.008894 -0.005608
v -0.031037 -0.026117 -0.004858
v -0.057989 -0.022372 0.010120
v -0.005573 -0.021625 0.001882
v -0.044510 -0.023872 -0.005608
v -0.034023 -0.026866 0.008622
v -0.059487 -0.018628 0.003377
v -0.005573 -0.018628 -0.005608
v -0.048999 -0.008894 0.010120
v -0.032535 -0.027618 0.000384
v -0.046752 -0.025369 -0.004110
v -0.060236 -0.014139 0.005626
v -0.048999 -0.024621 0.010120
v -0.057240 -0.023124 0.005626
v -0.005573 -0.021625 0.004129
v -0.041514 -0.026117 -0.005608
v -0.060236 -0.019376 0.010120
v -0.048250 -0.008894 -0.004110
v -0.043761 -0.027618 0.006375
v -0.022797 -0.022372 0.010120
v -0.057240 -0.010393 0.005626
v -0.028790 -0.026117 0.007871
v -0.047501 -0.023872 -0.004110
v -0.043012 -0.027618 -0.000364
v -0.032535 -0.027618 0.002631
v -0.007071 -0.018628 0.010120
f 469 462 473 
f 444 445 446 
f 445 444 447 
f 444 446 448 
f 445 447 450 
f 446 445 451 
f 448 446 452 
f 446 451 455 
f 451 449 455 
f 452 446 455 
f 447 444 456 
f 444 448 456 
f 449 451 457 
f 445 450 460 
f 443 450 461 
f 458 443 461 
f 454 458 461 
f 451 445 462 
f 457 451 462 
f 455 449 463 
f 452 455 463 
f 449 457 463 
f 458 452 463 
f 450 447 464 
f 447 459 464 
f 459 454 464 
f 461 450 464 
f 454 461 464 
f 448 454 465 
f 447 456 465 
f 456 448 465 
f 454 459 465 
f 450 443 466 
f 443 457 466 
f 460 450 466 
f 453 460 466 
f 445 460 467 
f 460 453 467 
f 459 447 468 
f 447 465 468 
f 465 459 468 
f 448 452 470 
f 454 448 470 
f 452 458 470 
f 458 454 470 
f 457 443 471 
f 443 458 471 
f 463 457 471 
f 458 463 471 
f 457 462 472 
f 466 457 472 
f 453 466 472 
f 469 453 472 
f 462 469 472 
f 462 445 473 
f 445 467 473 
f 467 453 473 
f 453 469 473 
o convex_12
v -0.057240 -0.022374 0.010120
v -0.005573 -0.008894 0.023602
v -0.005573 -0.020126 0.023602
v -0.005573 -0.008894 0.010120
v -0.042263 -0.008894 0.023602
v -0.057989 -0.010395 0.010120
v -0.043761 -0.022374 0.023602
v -0.022048 -0.024619 0.011620
v -0.030288 -0.026118 0.023602
v -0.005573 -0.017880 0.010120
v -0.053494 -0.015636 0.019107
v -0.048250 -0.024619 0.010120
v -0.048250 -0.008894 0.010120
v -0.025793 -0.026118 0.021353
v -0.057240 -0.018629 0.014615
v -0.035521 -0.026118 0.022103
v -0.028790 -0.026118 0.016861
v -0.060236 -0.014139 0.010870
v -0.005573 -0.020126 0.019857
v -0.021299 -0.022374 0.010120
v -0.051247 -0.008894 0.014615
v -0.057989 -0.011143 0.011620
v -0.057240 -0.022374 0.010870
v -0.044510 -0.017880 0.023602
v -0.053494 -0.017880 0.019107
v -0.037019 -0.026118 0.016861
v -0.005573 -0.018629 0.011620
v -0.053494 -0.020875 0.016861
v -0.025793 -0.026118 0.023602
f 482 487 502 
f 475 476 477 
f 476 475 478 
f 475 477 478 
f 477 474 479 
f 476 478 480 
f 476 480 482 
f 477 476 483 
f 474 477 483 
f 474 483 485 
f 478 477 486 
f 477 479 486 
f 482 480 489 
f 487 482 489 
f 487 489 490 
f 485 481 490 
f 481 487 490 
f 479 474 491 
f 488 484 491 
f 483 476 492 
f 476 487 492 
f 487 481 492 
f 483 481 493 
f 481 485 493 
f 485 483 493 
f 478 486 494 
f 486 479 494 
f 484 478 495 
f 479 491 495 
f 491 484 495 
f 478 494 495 
f 494 479 495 
f 474 485 496 
f 489 480 496 
f 485 489 496 
f 491 474 496 
f 488 491 496 
f 480 478 497 
f 478 484 497 
f 497 484 498 
f 484 488 498 
f 480 497 498 
f 489 485 499 
f 490 489 499 
f 485 490 499 
f 481 483 500 
f 483 492 500 
f 492 481 500 
f 496 480 501 
f 488 496 501 
f 498 488 501 
f 480 498 501 
f 476 482 502 
f 487 476 502 
