o convex_0
v -0.039640 -0.002922 -0.054842
v -0.049028 0.009083 -0.055885
v -0.049028 0.009083 -0.056409
v -0.031806 0.005950 -0.055885
v -0.033897 0.002299 -0.048579
v -0.054248 0.003862 -0.052756
v -0.047463 0.002299 -0.058497
v -0.031806 -0.000834 -0.056929
v -0.031806 -0.002922 -0.051712
v -0.056338 0.008560 -0.054320
v -0.056338 0.004906 -0.057452
v -0.049028 0.000733 -0.051712
v -0.031806 0.003862 -0.057973
v -0.031806 0.004385 -0.050667
v -0.056338 0.008037 -0.057973
v -0.046943 -0.000834 -0.056929
v -0.045373 0.003341 -0.050147
v -0.034420 0.001254 -0.048579
v -0.051119 0.009083 -0.057452
v -0.055815 0.003862 -0.055364
v -0.031806 0.005950 -0.053279
f 14 4 21 
f 3 2 4 
f 8 4 9 
f 1 8 9 
f 1 9 12 
f 8 7 13 
f 4 8 13 
f 9 4 14 
f 5 9 14 
f 2 10 14 
f 10 5 14 
f 7 11 15 
f 11 10 15 
f 13 7 15 
f 8 1 16 
f 7 8 16 
f 11 7 16 
f 1 12 16 
f 5 10 17 
f 10 6 17 
f 6 12 17 
f 17 12 18 
f 9 5 18 
f 12 9 18 
f 5 17 18 
f 2 3 19 
f 3 4 19 
f 10 2 19 
f 4 13 19 
f 15 10 19 
f 13 15 19 
f 6 10 20 
f 10 11 20 
f 12 6 20 
f 11 16 20 
f 16 12 20 
f 4 2 21 
f 2 14 21 
o convex_1
v 0.004735 0.034137 -0.024048
v 0.031351 0.033614 -0.036574
v 0.031872 0.026308 -0.032920
v 0.002644 0.023176 -0.027702
v 0.020909 0.023176 -0.021959
v -0.000488 0.034137 -0.030308
v 0.035520 0.034137 -0.033440
v -0.002575 0.023176 -0.021959
v 0.013607 0.032570 -0.021959
v 0.034479 0.023176 -0.027702
v -0.002575 0.031526 -0.023003
v 0.008388 0.024743 -0.030308
v 0.035520 0.023176 -0.030308
v 0.036570 0.027875 -0.029786
v 0.024566 0.034137 -0.036052
v -0.003620 0.034137 -0.027181
v 0.036049 0.032570 -0.035530
v 0.014132 0.034137 -0.023527
v 0.001078 0.031526 -0.021959
v -0.001008 0.023176 -0.025094
v 0.007863 0.023176 -0.029267
v 0.010475 0.030482 -0.032398
v 0.035520 0.032570 -0.031876
v 0.016219 0.030482 -0.021959
v 0.037615 0.027352 -0.032398
f 38 28 46 
f 27 22 28 
f 25 26 29 
f 29 26 30 
f 26 25 31 
f 23 24 33 
f 25 27 33 
f 31 25 34 
f 26 31 35 
f 28 23 36 
f 27 28 36 
f 23 33 36 
f 22 27 37 
f 32 22 37 
f 29 32 37 
f 24 23 38 
f 23 28 38 
f 28 22 39 
f 22 30 39 
f 30 22 40 
f 29 30 40 
f 22 32 40 
f 32 29 40 
f 27 25 41 
f 25 29 41 
f 37 27 41 
f 29 37 41 
f 33 24 42 
f 25 33 42 
f 24 34 42 
f 34 25 42 
f 33 27 43 
f 27 36 43 
f 36 33 43 
f 35 28 44 
f 28 39 44 
f 39 30 44 
f 30 26 45 
f 26 35 45 
f 35 44 45 
f 44 30 45 
f 34 24 46 
f 31 34 46 
f 28 35 46 
f 35 31 46 
f 24 38 46 
o convex_2
v 0.014127 0.034137 -0.024049
v 0.013605 0.048752 -0.043882
v 0.014127 0.047185 -0.043357
v -0.003616 0.034137 -0.028225
v 0.034483 0.034137 -0.036574
v 0.021432 0.050317 -0.040226
v -0.004138 0.046664 -0.032923
v 0.035527 0.034660 -0.033965
v 0.000035 0.034137 -0.030834
v 0.002127 0.049273 -0.039704
v 0.030829 0.043011 -0.041271
v 0.025082 0.034137 -0.036572
v -0.003616 0.034660 -0.025616
v 0.016211 0.051884 -0.042835
v 0.014127 0.034660 -0.024049
v 0.002127 0.049796 -0.036572
v -0.000483 0.044053 -0.036572
v 0.029263 0.039881 -0.040748
v 0.025082 0.047708 -0.039182
v 0.022998 0.050317 -0.042835
v 0.004215 0.040402 -0.036572
v -0.004660 0.043532 -0.033445
v -0.004660 0.043011 -0.030314
v 0.017255 0.034660 -0.025093
v 0.030307 0.044053 -0.039184
v 0.003167 0.046664 -0.039704
v 0.007344 0.051361 -0.041269
v 0.013082 0.045620 -0.042313
f 67 72 74 
f 47 50 51 
f 47 51 54 
f 51 50 55 
f 54 51 57 
f 51 55 58 
f 50 47 59 
f 59 47 61 
f 56 53 62 
f 52 60 62 
f 61 52 62 
f 53 61 62 
f 49 48 64 
f 48 57 64 
f 57 51 64 
f 51 58 64 
f 57 48 66 
f 60 52 66 
f 48 60 66 
f 52 65 66 
f 58 55 67 
f 55 63 67 
f 55 50 68 
f 53 56 68 
f 63 55 68 
f 56 63 68 
f 50 59 69 
f 61 53 69 
f 59 61 69 
f 68 50 69 
f 53 68 69 
f 47 54 70 
f 52 61 70 
f 61 47 70 
f 65 52 70 
f 54 65 70 
f 54 57 71 
f 65 54 71 
f 57 66 71 
f 66 65 71 
f 48 49 72 
f 56 48 72 
f 63 56 72 
f 67 63 72 
f 48 56 73 
f 60 48 73 
f 56 62 73 
f 62 60 73 
f 49 64 74 
f 64 58 74 
f 58 67 74 
f 72 49 74 
o convex_3
v -0.008840 -0.007620 -0.053275
v -0.008840 0.006473 -0.043884
v -0.008840 0.001252 -0.043884
v -0.031806 0.003862 -0.057975
v -0.031806 0.000729 -0.049103
v -0.008840 0.002296 -0.055885
v -0.017191 -0.002921 -0.043884
v -0.031806 -0.002921 -0.054319
v -0.022409 0.006473 -0.045450
v -0.016148 0.006473 -0.055885
v -0.009363 -0.007097 -0.047016
v -0.031806 0.005950 -0.053275
v -0.008840 -0.003444 -0.056406
v -0.031806 -0.000834 -0.056929
v -0.031806 -0.002921 -0.051710
v -0.021364 0.002820 -0.043884
v -0.008840 0.006473 -0.052231
v -0.009885 -0.008142 -0.050668
v -0.023976 0.002820 -0.057975
v -0.025019 0.006473 -0.055364
v -0.008840 -0.000315 -0.056929
v -0.031806 0.003339 -0.049625
v -0.008840 -0.005009 -0.045450
v -0.031806 0.001252 -0.057975
f 93 87 98 
f 75 76 77 
f 76 75 80 
f 77 76 81 
f 79 78 82 
f 83 76 84 
f 78 79 86 
f 80 75 87 
f 75 82 88 
f 82 78 88 
f 87 75 88 
f 81 79 89 
f 79 82 89 
f 85 81 89 
f 81 76 90 
f 79 81 90 
f 76 83 90 
f 76 80 91 
f 84 76 91 
f 80 84 91 
f 82 75 92 
f 75 85 92 
f 89 82 92 
f 85 89 92 
f 78 84 93 
f 84 78 94 
f 83 84 94 
f 78 86 94 
f 86 83 94 
f 84 80 95 
f 80 87 95 
f 93 84 95 
f 87 93 95 
f 86 79 96 
f 83 86 96 
f 79 90 96 
f 90 83 96 
f 75 77 97 
f 77 81 97 
f 85 75 97 
f 81 85 97 
f 88 78 98 
f 87 88 98 
f 78 93 98 
o convex_4
v -0.023454 0.006473 -0.055364
v -0.028674 0.023176 -0.044928
v -0.028151 0.022653 -0.043882
v -0.008840 0.009084 -0.051187
v -0.016149 0.006473 -0.043882
v -0.026062 0.020044 -0.053277
v -0.028151 0.009606 -0.049625
v -0.008840 0.006473 -0.043882
v -0.031284 0.020565 -0.043882
v -0.016670 0.006473 -0.055887
v -0.029718 0.018476 -0.052753
v -0.022929 0.006473 -0.045448
v -0.008840 0.008561 -0.043882
v -0.025018 0.021610 -0.051187
v -0.029195 0.012739 -0.052753
v -0.025539 0.009606 -0.044405
v -0.008840 0.006473 -0.051710
v -0.027626 0.017433 -0.054320
v -0.029718 0.021610 -0.050667
v -0.008840 0.009606 -0.048581
v -0.025539 0.006473 -0.053277
v -0.025018 0.021610 -0.048058
v -0.024498 0.018476 -0.053797
f 116 104 121 
f 103 99 106 
f 101 103 106 
f 101 100 107 
f 103 101 107 
f 106 99 108 
f 99 103 110 
f 101 106 111 
f 106 102 111 
f 105 107 113 
f 107 109 113 
f 103 107 114 
f 107 105 114 
f 110 103 114 
f 105 110 114 
f 102 106 115 
f 108 102 115 
f 106 108 115 
f 108 99 116 
f 109 104 116 
f 99 113 116 
f 113 109 116 
f 107 100 117 
f 104 109 117 
f 109 107 117 
f 100 112 117 
f 112 104 117 
f 111 102 118 
f 102 112 118 
f 99 110 119 
f 110 105 119 
f 113 99 119 
f 105 113 119 
f 100 101 120 
f 101 111 120 
f 112 100 120 
f 111 118 120 
f 118 112 120 
f 102 108 121 
f 104 112 121 
f 112 102 121 
f 108 116 121 
o convex_5
v -0.004142 0.030482 -0.057451
v 0.000033 0.023177 -0.043884
v -0.001532 0.023177 -0.043884
v -0.003619 0.016913 -0.052754
v 0.000556 0.031004 -0.056929
v 0.001078 0.016913 -0.050147
v -0.005708 0.017435 -0.045971
v -0.004142 0.030482 -0.052754
v 0.000033 0.016913 -0.043884
v -0.006230 0.024221 -0.048581
v -0.006230 0.016913 -0.050668
v 0.000556 0.031525 -0.053798
v 0.001078 0.022133 -0.044927
v -0.001010 0.029961 -0.057975
v -0.004142 0.016913 -0.043884
v -0.003098 0.032572 -0.057451
v -0.001532 0.016913 -0.052754
v 0.001078 0.030482 -0.054841
v -0.004663 0.023700 -0.045971
f 128 136 140 
f 123 124 130 
f 125 127 130 
f 129 122 131 
f 122 125 132 
f 125 130 132 
f 131 122 132 
f 128 131 132 
f 124 123 133 
f 129 124 133 
f 123 130 134 
f 130 127 134 
f 133 123 134 
f 125 122 135 
f 130 124 136 
f 132 130 136 
f 128 132 136 
f 122 129 137 
f 133 126 137 
f 129 133 137 
f 135 122 137 
f 126 135 137 
f 126 127 138 
f 127 125 138 
f 125 135 138 
f 135 126 138 
f 127 126 139 
f 126 133 139 
f 134 127 139 
f 133 134 139 
f 124 129 140 
f 131 128 140 
f 129 131 140 
f 136 124 140 
o convex_6
v 0.015692 0.015869 -0.056407
v 0.003688 -0.002400 -0.055363
v 0.003688 -0.002400 -0.046493
v 0.003688 0.010127 -0.049625
v 0.010992 -0.002400 -0.052754
v 0.014126 0.011691 -0.051712
v 0.012038 0.011691 -0.058497
v 0.015692 0.011169 -0.058497
v 0.006298 0.009604 -0.055363
v 0.016735 0.011169 -0.054841
v 0.009954 -0.002400 -0.049625
v 0.004210 0.001777 -0.046493
v 0.007343 -0.002400 -0.055363
v 0.003688 0.002820 -0.055363
v 0.004210 0.009604 -0.048581
v 0.014126 0.015347 -0.057451
v 0.015169 0.015347 -0.054319
f 155 146 157 
f 142 143 144 
f 143 142 145 
f 142 147 148 
f 145 148 150 
f 148 141 150 
f 143 145 151 
f 150 146 151 
f 145 150 151 
f 144 143 152 
f 143 151 152 
f 151 146 152 
f 145 142 153 
f 142 148 153 
f 148 145 153 
f 142 144 154 
f 147 142 154 
f 144 149 154 
f 149 147 154 
f 144 152 155 
f 152 146 155 
f 144 141 156 
f 141 148 156 
f 148 147 156 
f 149 144 156 
f 147 149 156 
f 141 144 157 
f 150 141 157 
f 146 150 157 
f 144 155 157 
o convex_7
v 0.014126 -0.005014 -0.042836
v 0.003166 -0.013883 -0.043880
v 0.003166 -0.013883 -0.043358
v 0.006298 0.001775 -0.030834
v 0.010993 -0.010750 -0.030834
v 0.016213 0.001775 -0.030834
v 0.010993 -0.015969 -0.043880
v 0.010471 -0.002401 -0.043880
v 0.005254 -0.009706 -0.030834
v 0.016737 -0.002401 -0.030834
v 0.005776 -0.005536 -0.043880
v 0.013604 0.003863 -0.031356
v 0.004732 -0.000835 -0.030834
v 0.008388 -0.016493 -0.043358
v 0.008388 0.002297 -0.034488
v 0.013604 -0.000835 -0.041270
v 0.005254 -0.001357 -0.037097
v 0.007343 -0.011270 -0.030834
v 0.015170 -0.006572 -0.038660
v 0.014648 -0.008138 -0.035010
v 0.003166 -0.011270 -0.043880
v 0.015170 -0.001879 -0.039183
v 0.013604 -0.003968 -0.043880
f 173 179 180 
f 161 162 163 
f 164 159 165 
f 162 161 166 
f 163 162 167 
f 165 159 168 
f 161 163 169 
f 160 166 170 
f 166 161 170 
f 160 159 171 
f 164 162 171 
f 159 164 171 
f 161 169 172 
f 172 169 173 
f 169 163 173 
f 165 172 173 
f 165 168 174 
f 170 161 174 
f 161 172 174 
f 172 165 174 
f 166 160 175 
f 162 166 175 
f 160 171 175 
f 171 162 175 
f 164 158 176 
f 176 167 177 
f 162 164 177 
f 167 162 177 
f 164 176 177 
f 159 160 178 
f 168 159 178 
f 160 170 178 
f 174 168 178 
f 170 174 178 
f 163 167 179 
f 173 163 179 
f 176 158 179 
f 167 176 179 
f 158 164 180 
f 164 165 180 
f 165 173 180 
f 179 158 180 
o convex_8
v 0.025083 0.017957 -0.022482
v 0.032390 0.022654 -0.030311
v 0.032390 0.023176 -0.030311
v -0.004137 0.015869 -0.026135
v -0.003095 0.023176 -0.021960
v 0.006302 0.023176 -0.028744
v 0.021430 0.023176 -0.021960
v -0.007270 0.015869 -0.021960
v 0.013084 0.015869 -0.026135
v 0.021430 0.015869 -0.021960
v 0.035001 0.022654 -0.028221
v 0.030301 0.019522 -0.027178
v 0.000559 0.023176 -0.026135
v 0.009430 0.022654 -0.029265
f 184 186 194 
f 185 183 186 
f 183 185 187 
f 187 185 188 
f 185 184 188 
f 188 184 189 
f 184 182 189 
f 181 187 190 
f 187 188 190 
f 188 189 190 
f 182 183 191 
f 187 181 191 
f 183 187 191 
f 189 182 192 
f 181 190 192 
f 190 189 192 
f 182 191 192 
f 191 181 192 
f 184 185 193 
f 185 186 193 
f 186 184 193 
f 183 182 194 
f 182 184 194 
f 186 183 194 
o convex_9
v -0.000490 -0.036841 -0.009434
v -0.003621 0.017957 0.000485
v -0.011971 0.017957 0.000485
v 0.001600 0.017957 -0.021959
v -0.010928 -0.000846 -0.021959
v -0.013014 -0.039457 -0.001604
v 0.001600 -0.018568 0.000485
v -0.007273 -0.050942 -0.010480
v 0.001600 -0.010237 -0.021959
v -0.014580 -0.012847 -0.012560
v -0.009883 0.013254 -0.021436
v 0.001600 0.015864 -0.001081
v -0.001533 -0.039974 -0.001081
v -0.015103 -0.009721 0.000485
v -0.009883 -0.050942 -0.009955
v -0.008318 -0.036325 0.000485
v -0.014580 -0.005542 -0.012560
v -0.006752 0.017957 -0.021959
v 0.001600 -0.026404 -0.014129
v -0.008318 -0.049372 -0.004216
v -0.006230 -0.019092 -0.019349
v -0.013537 -0.038934 -0.003691
v 0.001076 -0.032146 -0.003170
v 0.001600 0.013254 0.000485
v -0.012492 -0.017012 -0.016214
v -0.006230 -0.050418 -0.005780
v 0.001600 0.017957 -0.003170
v 0.001600 -0.018568 -0.019349
v -0.011449 0.008552 -0.018826
v -0.013014 -0.034762 -0.008913
v -0.015103 -0.011807 -0.007868
v -0.008318 -0.049895 -0.010994
v -0.011971 0.017957 -0.001081
v -0.015103 -0.007105 -0.000040
v -0.009883 -0.051465 -0.007345
v -0.011449 -0.039457 -0.000560
v -0.003621 -0.037888 -0.000040
v -0.011971 0.003333 -0.019870
v 0.000033 -0.036325 -0.008390
v -0.002055 -0.014417 -0.020913
v 0.001600 -0.029536 -0.005258
v -0.000490 -0.038411 -0.002125
f 220 233 236 
f 197 196 198 
f 196 197 201 
f 199 198 203 
f 198 201 203 
f 201 198 206 
f 201 197 208 
f 201 208 210 
f 197 198 212 
f 198 199 212 
f 199 205 212 
f 195 202 213 
f 203 201 213 
f 200 208 216 
f 196 201 218 
f 206 196 218 
f 201 206 218 
f 204 199 219 
f 199 209 219 
f 207 214 220 
f 198 196 221 
f 196 206 221 
f 206 198 221 
f 213 202 222 
f 203 213 222 
f 216 204 224 
f 209 216 224 
f 204 219 224 
f 219 209 224 
f 211 204 225 
f 204 216 225 
f 216 208 225 
f 209 199 226 
f 202 209 226 
f 199 215 226 
f 222 202 226 
f 203 222 226 
f 197 212 227 
f 212 205 227 
f 205 223 227 
f 223 211 227 
f 208 197 228 
f 211 225 228 
f 225 208 228 
f 197 227 228 
f 227 211 228 
f 209 202 229 
f 214 200 229 
f 200 216 229 
f 216 209 229 
f 202 220 229 
f 220 214 229 
f 208 200 230 
f 210 208 230 
f 200 214 230 
f 230 214 231 
f 207 201 231 
f 201 210 231 
f 214 207 231 
f 210 230 231 
f 199 204 232 
f 205 199 232 
f 204 211 232 
f 223 205 232 
f 211 223 232 
f 202 195 233 
f 195 213 233 
f 220 202 233 
f 199 203 234 
f 215 199 234 
f 226 215 234 
f 203 226 234 
f 213 201 235 
f 201 217 235 
f 233 213 235 
f 217 233 235 
f 201 207 236 
f 217 201 236 
f 207 220 236 
f 233 217 236 
o convex_10
v 0.001600 0.021090 -0.006823
v -0.006229 0.017957 -0.021957
v -0.006229 0.018479 -0.021957
v -0.006752 0.017957 0.004659
v -0.000488 0.030484 -0.021957
v 0.001600 0.017957 -0.021957
v -0.006752 0.026830 -0.017780
v 0.001600 0.030484 -0.021433
v 0.001600 0.017957 -0.004215
v -0.006229 0.021090 0.001003
v -0.006752 0.023699 -0.004736
v -0.006752 0.017957 -0.020391
f 240 243 248 
f 238 239 241 
f 240 238 242 
f 238 241 242 
f 241 239 243 
f 237 242 244 
f 242 241 244 
f 237 240 245 
f 240 242 245 
f 242 237 245 
f 240 237 246 
f 237 244 246 
f 246 244 247 
f 243 240 247 
f 241 243 247 
f 244 241 247 
f 240 246 247 
f 239 238 248 
f 238 240 248 
f 243 239 248 
o convex_11
v -0.008318 0.019003 0.008837
v -0.018757 0.008562 0.034413
v -0.017711 0.009083 0.033369
v -0.019279 0.033616 0.009360
v -0.012491 0.007517 0.008837
v -0.019279 0.007517 0.021367
v -0.004664 0.007517 0.009360
v -0.015103 0.019527 0.022404
v -0.006753 0.012739 0.013536
v -0.019279 0.027873 0.008837
v -0.019279 0.016395 0.029714
v -0.014057 0.007517 0.028670
v -0.013537 0.023175 0.015624
v -0.018757 0.028394 0.017189
v -0.012491 0.010649 0.025536
v -0.019279 0.007517 0.034413
v -0.018235 0.033089 0.008837
v -0.005186 0.012215 0.008837
v -0.009362 0.021088 0.009360
v -0.018235 0.016395 0.029193
f 263 256 268 
f 254 253 255 
f 249 253 258 
f 253 254 258 
f 254 252 258 
f 252 254 259 
f 251 250 260 
f 254 255 260 
f 256 257 261 
f 252 259 262 
f 256 261 262 
f 255 257 263 
f 257 256 263 
f 251 260 263 
f 260 255 263 
f 250 259 264 
f 259 254 264 
f 260 250 264 
f 254 260 264 
f 249 258 265 
f 258 252 265 
f 252 262 265 
f 262 261 265 
f 253 249 266 
f 255 253 266 
f 257 255 266 
f 257 266 267 
f 261 257 267 
f 249 265 267 
f 265 261 267 
f 266 249 267 
f 250 251 268 
f 259 250 268 
f 262 259 268 
f 256 262 268 
f 251 263 268 
o convex_12
v 0.002124 -0.018571 -0.019347
v 0.002124 0.015342 -0.001081
v 0.002124 0.016380 -0.001604
v 0.021956 0.020558 -0.021959
v 0.001600 0.031001 -0.021959
v 0.021956 0.012207 -0.001081
v 0.001600 -0.027976 -0.005258
v 0.014649 -0.004483 -0.021959
v 0.012561 0.032572 -0.021436
v 0.021956 0.005948 -0.001081
v 0.001600 -0.019620 -0.001081
v 0.001600 -0.010226 -0.021959
v 0.002124 -0.027976 -0.010478
v 0.021956 0.010643 -0.017261
v 0.001600 0.021607 -0.007344
v 0.010475 -0.014398 -0.011520
v 0.006298 0.023166 -0.008910
v 0.015169 0.031001 -0.021959
v 0.010997 -0.009183 -0.021959
v 0.017778 0.013778 -0.001081
v 0.006820 -0.015963 -0.001081
v 0.002124 -0.027976 -0.005258
v 0.001600 -0.024320 -0.015695
v 0.020390 0.024215 -0.021436
v 0.021956 0.016386 -0.021959
v 0.021956 0.006998 -0.007868
v 0.005254 0.028909 -0.016739
v 0.001600 0.015342 -0.001081
f 283 279 296 
f 273 272 276 
f 274 270 278 
f 272 274 278 
f 273 275 279 
f 278 270 279 
f 275 273 280 
f 273 276 280 
f 272 278 282 
f 273 279 283 
f 281 276 284 
f 283 271 285 
f 272 273 286 
f 273 277 286 
f 277 274 286 
f 269 280 287 
f 280 276 287 
f 276 281 287 
f 271 270 288 
f 270 274 288 
f 274 277 288 
f 285 271 288 
f 277 285 288 
f 278 279 289 
f 289 279 290 
f 279 275 290 
f 275 281 290 
f 284 278 290 
f 281 284 290 
f 278 289 290 
f 280 269 291 
f 275 280 291 
f 281 275 291 
f 269 287 291 
f 287 281 291 
f 274 272 292 
f 272 286 292 
f 286 274 292 
f 276 272 293 
f 272 282 293 
f 282 276 293 
f 276 282 294 
f 282 278 294 
f 284 276 294 
f 278 284 294 
f 277 273 295 
f 273 283 295 
f 285 277 295 
f 283 285 295 
f 270 271 296 
f 279 270 296 
f 271 283 296 
o convex_13
v 0.021956 0.012213 -0.000036
v 0.001600 -0.019103 -0.001081
v 0.002644 -0.019103 -0.001081
v 0.008389 -0.018580 0.011447
v 0.001600 0.014303 -0.000558
v 0.021956 0.008038 0.011447
v 0.002644 -0.008139 0.011447
v 0.021956 0.005951 -0.001081
v 0.010999 0.005428 0.011447
v 0.021956 0.000209 0.011447
v 0.002122 -0.015970 0.011447
v 0.007342 -0.015447 -0.000558
v 0.015167 0.013780 -0.001081
v 0.006820 0.001252 0.011447
v 0.001600 -0.011795 0.010402
v 0.001600 0.014303 -0.001081
v 0.021956 0.009604 0.008835
v 0.004732 -0.018580 0.011447
v 0.001600 0.012213 0.001008
v 0.010477 -0.015970 0.010924
v 0.021956 0.000209 0.010924
f 306 316 317 
f 298 299 300 
f 300 302 303 
f 299 298 304 
f 297 302 304 
f 302 301 305 
f 303 302 305 
f 302 300 306 
f 304 302 306 
f 300 303 307 
f 300 299 308 
f 299 304 308 
f 304 298 309 
f 297 304 309 
f 303 305 310 
f 301 298 311 
f 298 307 311 
f 307 303 311 
f 298 301 312 
f 309 298 312 
f 301 309 312 
f 302 297 313 
f 301 302 313 
f 309 301 313 
f 297 309 313 
f 298 300 314 
f 307 298 314 
f 300 307 314 
f 305 301 315 
f 303 310 315 
f 310 305 315 
f 301 311 315 
f 311 303 315 
f 306 300 316 
f 300 308 316 
f 316 308 317 
f 304 306 317 
f 308 304 317 
o convex_14
v 0.032396 0.013780 -0.008908
v 0.047011 0.006474 0.009879
v 0.047011 0.004908 0.009879
v 0.032396 0.004908 0.011447
v 0.037616 0.010648 -0.010996
v 0.032396 0.008562 0.010401
v 0.043876 0.010648 -0.001079
v 0.046488 0.006474 0.002050
v 0.043876 0.007518 0.011447
v 0.036572 0.012214 -0.000557
v 0.032396 0.011692 -0.010996
v 0.041267 0.012214 -0.008386
v 0.032396 0.004908 0.009879
v 0.036572 0.013780 -0.010996
v 0.041267 0.009605 -0.008386
v 0.047011 0.008040 0.002050
f 325 332 333 
f 318 321 323 
f 320 319 326 
f 321 320 326 
f 323 321 326 
f 319 324 326 
f 326 324 327 
f 318 323 327 
f 323 326 327 
f 321 318 328 
f 320 321 330 
f 325 320 330 
f 321 328 330 
f 328 322 330 
f 327 324 331 
f 318 327 331 
f 328 318 331 
f 322 328 331 
f 329 322 331 
f 324 329 331 
f 322 329 332 
f 325 330 332 
f 330 322 332 
f 319 320 333 
f 324 319 333 
f 320 325 333 
f 329 324 333 
f 332 329 333 
o convex_15
v 0.004214 -0.049899 0.050072
v 0.032918 -0.037896 0.063638
v 0.031350 -0.039983 0.065729
v 0.006821 -0.032676 0.040161
v 0.009430 -0.033196 0.033370
v 0.032918 -0.033198 0.053727
v 0.020388 -0.046245 0.066252
v 0.024563 -0.044156 0.058421
v 0.026128 -0.032676 0.055808
v 0.004735 -0.048854 0.053724
v 0.006821 -0.050943 0.051637
v 0.020909 -0.048854 0.064684
v 0.005255 -0.032676 0.034419
v 0.031350 -0.042068 0.063638
v 0.012563 -0.032676 0.045897
v 0.009430 -0.046245 0.047465
v 0.028219 -0.041025 0.066774
v 0.032918 -0.032674 0.058944
v 0.031873 -0.037374 0.056857
v 0.012042 -0.050421 0.060505
v 0.028740 -0.044679 0.067297
v 0.006300 -0.035285 0.034419
v 0.014652 -0.050421 0.058421
v 0.032918 -0.032674 0.053727
v 0.018820 -0.032676 0.051111
v 0.003688 -0.048332 0.051111
v 0.004214 -0.046245 0.045378
v 0.012042 -0.048332 0.060505
v 0.022998 -0.047810 0.063638
v 0.005255 -0.032676 0.037548
v 0.005779 -0.046245 0.045378
v 0.005255 -0.050943 0.053724
f 343 359 365 
f 335 336 347 
f 339 335 347 
f 337 343 348 
f 341 344 349 
f 336 335 351 
f 335 339 351 
f 337 348 351 
f 350 336 351 
f 342 350 351 
f 338 339 352 
f 339 347 352 
f 347 341 352 
f 349 338 352 
f 341 349 352 
f 345 340 353 
f 340 345 354 
f 347 336 354 
f 336 350 354 
f 350 340 354 
f 346 338 355 
f 344 341 356 
f 345 353 356 
f 339 338 357 
f 338 346 357 
f 351 339 357 
f 346 351 357 
f 348 340 358 
f 350 342 358 
f 340 350 358 
f 351 348 358 
f 342 351 358 
f 359 346 360 
f 346 355 360 
f 334 359 360 
f 340 348 361 
f 348 343 361 
f 353 340 361 
f 343 353 361 
f 341 347 362 
f 354 345 362 
f 347 354 362 
f 356 341 362 
f 345 356 362 
f 343 337 363 
f 351 346 363 
f 337 351 363 
f 359 343 363 
f 346 359 363 
f 344 334 364 
f 338 349 364 
f 349 344 364 
f 355 338 364 
f 334 360 364 
f 360 355 364 
f 334 344 365 
f 353 343 365 
f 344 356 365 
f 356 353 365 
f 359 334 365 
o convex_16
v 0.032919 0.004905 0.019802
v 0.052228 -0.007096 0.035976
v 0.051705 -0.007096 0.037018
v 0.032919 -0.007618 0.029713
v 0.045443 0.004384 0.011452
v 0.032919 -0.006052 0.038063
v 0.045443 0.000731 0.027626
v 0.032919 0.004384 0.011452
v 0.042835 0.007515 0.011972
v 0.051705 -0.007618 0.033366
v 0.034486 -0.001878 0.033366
v 0.047532 0.004384 0.016147
v 0.035008 -0.007618 0.039108
v 0.033443 0.008038 0.011452
v 0.045965 -0.006052 0.037541
v 0.033443 -0.006573 0.027626
v 0.038661 0.005949 0.017714
v 0.046486 0.003341 0.013017
v 0.045965 0.005428 0.016669
v 0.047532 0.004384 0.014059
v 0.032919 0.002297 0.025539
f 382 366 386 
f 366 369 371 
f 369 366 373 
f 367 368 375 
f 371 369 378 
f 375 368 378 
f 369 375 378 
f 373 366 379 
f 370 373 379 
f 374 370 379 
f 368 372 380 
f 376 371 380 
f 372 376 380 
f 378 368 380 
f 371 378 380 
f 369 373 381 
f 373 370 381 
f 375 369 381 
f 379 366 382 
f 374 379 382 
f 381 370 383 
f 375 381 383 
f 368 367 384 
f 372 368 384 
f 367 377 384 
f 377 374 384 
f 382 372 384 
f 374 382 384 
f 370 374 385 
f 367 375 385 
f 377 367 385 
f 374 377 385 
f 383 370 385 
f 375 383 385 
f 366 371 386 
f 371 376 386 
f 376 372 386 
f 372 382 386 
o convex_17
v 0.003165 -0.012836 -0.054319
v -0.000489 0.016913 -0.043882
v 0.000033 0.016913 -0.044404
v -0.008840 -0.000311 -0.056931
v -0.008840 -0.005529 -0.045448
v 0.003688 -0.014404 -0.043882
v 0.003688 0.004903 -0.054319
v -0.006751 0.016913 -0.049623
v -0.008840 0.009084 -0.043882
v -0.001533 0.016913 -0.052754
v -0.008840 -0.008140 -0.052232
v 0.003688 0.011170 -0.049102
v 0.003688 -0.005011 -0.056408
v 0.001077 -0.015971 -0.047537
v 0.001077 -0.015447 -0.052232
v -0.008840 -0.003443 -0.056408
v 0.001599 0.016913 -0.049623
v -0.004140 0.016913 -0.043882
v -0.008840 0.001250 -0.043882
v 0.003688 -0.004490 -0.044404
v -0.008840 0.009606 -0.050666
v -0.004140 0.016913 -0.052754
v 0.003688 -0.015447 -0.051710
v -0.008317 -0.008140 -0.047015
v 0.003688 -0.008140 -0.056408
v -0.001533 -0.002922 -0.056931
v 0.001077 0.016913 -0.045449
f 406 398 413 
f 388 389 394 
f 390 391 395 
f 392 388 395 
f 394 389 396 
f 391 390 397 
f 392 393 398 
f 393 392 399 
f 396 393 399 
f 400 397 401 
f 397 390 402 
f 401 397 402 
f 387 401 402 
f 396 389 403 
f 393 396 403 
f 398 393 403 
f 388 394 404 
f 395 388 404 
f 394 395 404 
f 391 392 405 
f 395 391 405 
f 392 395 405 
f 389 388 406 
f 388 392 406 
f 392 398 406 
f 394 390 407 
f 390 395 407 
f 395 394 407 
f 390 394 408 
f 396 390 408 
f 394 396 408 
f 399 392 409 
f 392 400 409 
f 400 401 409 
f 401 387 409 
f 392 391 410 
f 391 397 410 
f 400 392 410 
f 397 400 410 
f 402 390 411 
f 387 402 411 
f 409 387 411 
f 399 409 411 
f 390 396 412 
f 396 399 412 
f 411 390 412 
f 399 411 412 
f 403 389 413 
f 398 403 413 
f 389 406 413 
o convex_18
v 0.019346 -0.011797 0.040673
v 0.019346 -0.032674 0.042762
v 0.019346 -0.031628 0.041195
v 0.032918 -0.008664 0.030765
v 0.032918 -0.032150 0.058416
v 0.019346 -0.009188 0.021893
v 0.032918 -0.008664 0.040155
v 0.019346 -0.032150 0.051111
v 0.032918 -0.032674 0.053199
v 0.023524 -0.008664 0.039636
v 0.025613 -0.011797 0.027110
v 0.019870 -0.018062 0.045894
v 0.024045 -0.011797 0.042762
v 0.020913 -0.031106 0.041195
v 0.019346 -0.008664 0.037548
v 0.032394 -0.009188 0.030243
v 0.025089 -0.032674 0.054765
v 0.032918 -0.019104 0.049026
v 0.019870 -0.022756 0.032849
v 0.019870 -0.008664 0.021893
v 0.032918 -0.025886 0.046416
v 0.019346 -0.021712 0.047460
f 430 418 435 
f 416 415 414 
f 416 414 419 
f 418 417 420 
f 414 415 421 
f 417 418 422 
f 420 417 423 
f 423 414 426 
f 420 423 426 
f 414 425 426 
f 425 418 426 
f 415 416 427 
f 422 415 427 
f 419 414 428 
f 414 423 428 
f 423 417 428 
f 427 424 429 
f 421 415 430 
f 422 418 430 
f 415 422 430 
f 418 420 431 
f 426 418 431 
f 420 426 431 
f 416 419 432 
f 419 424 432 
f 427 416 432 
f 424 427 432 
f 424 419 433 
f 419 428 433 
f 428 417 433 
f 417 429 433 
f 429 424 433 
f 417 422 434 
f 422 427 434 
f 429 417 434 
f 427 429 434 
f 414 421 435 
f 425 414 435 
f 418 425 435 
f 421 430 435 
o convex_19
v 0.003689 -0.013881 -0.053798
v 0.010995 -0.002400 -0.050667
v 0.012561 -0.002924 -0.043882
v 0.022476 -0.020668 -0.057971
v 0.007342 -0.016491 -0.043882
v 0.003689 -0.002400 -0.055364
v 0.003689 -0.005012 -0.044406
v 0.019346 -0.020668 -0.051190
v 0.006299 -0.018579 -0.051187
v 0.021956 -0.015969 -0.056928
v 0.017258 -0.019099 -0.059016
v 0.003689 -0.014926 -0.043882
v 0.011518 -0.015971 -0.043882
v 0.007342 -0.002400 -0.055364
v 0.003689 -0.008144 -0.056408
v 0.003689 -0.002400 -0.045971
v 0.013603 -0.003967 -0.043882
v 0.018823 -0.016491 -0.059016
v 0.010995 -0.002400 -0.053275
v 0.018823 -0.021191 -0.057971
v 0.020389 -0.019624 -0.051712
v 0.006299 -0.018579 -0.048060
v 0.022476 -0.017014 -0.055884
v 0.017258 -0.021191 -0.051712
v 0.020389 -0.014924 -0.057971
v 0.006822 -0.018058 -0.053275
f 446 455 461 
f 441 436 442 
f 440 438 447 
f 442 436 447 
f 438 442 447 
f 436 444 447 
f 438 440 448 
f 440 443 448 
f 441 437 449 
f 436 441 450 
f 446 436 450 
f 438 437 451 
f 437 441 451 
f 441 442 451 
f 442 438 451 
f 438 448 452 
f 439 446 453 
f 441 449 453 
f 450 441 453 
f 446 450 453 
f 437 438 454 
f 449 437 454 
f 438 452 454 
f 452 445 454 
f 446 439 455 
f 443 439 456 
f 448 443 456 
f 452 448 456 
f 440 447 457 
f 447 444 457 
f 439 445 458 
f 445 452 458 
f 456 439 458 
f 452 456 458 
f 439 443 459 
f 443 440 459 
f 455 439 459 
f 444 455 459 
f 440 457 459 
f 457 444 459 
f 445 439 460 
f 439 453 460 
f 453 449 460 
f 449 454 460 
f 454 445 460 
f 444 436 461 
f 436 446 461 
f 455 444 461 
o convex_20
v -0.030766 0.023178 0.034938
v -0.034933 0.031005 0.023974
v -0.037546 0.031005 0.025542
v -0.024501 0.021088 0.023974
v -0.049553 0.021088 0.045372
v -0.031808 0.033616 0.024497
v -0.045374 0.027873 0.041196
v -0.019801 0.021088 0.024497
v -0.045898 0.021088 0.047462
v -0.044852 0.030482 0.033370
v -0.025026 0.028395 0.025542
v -0.045898 0.021088 0.041196
v -0.046941 0.023699 0.046938
v -0.031290 0.029438 0.029715
v -0.049553 0.024221 0.045896
v -0.047465 0.026308 0.038065
v -0.023456 0.027352 0.023974
v -0.034933 0.021611 0.039631
v -0.044852 0.030482 0.035460
v -0.033896 0.033616 0.023974
v -0.021889 0.022657 0.026584
f 479 469 482 
f 464 463 465 
f 466 465 469 
f 466 469 470 
f 464 465 473 
f 465 466 473 
f 467 468 475 
f 462 472 475 
f 472 467 475 
f 468 474 475 
f 466 470 476 
f 474 468 476 
f 470 474 476 
f 471 464 477 
f 464 473 477 
f 473 466 477 
f 466 476 477 
f 476 471 477 
f 465 463 478 
f 469 465 478 
f 467 472 478 
f 470 469 479 
f 474 470 479 
f 462 475 479 
f 475 474 479 
f 468 467 480 
f 471 476 480 
f 476 468 480 
f 463 464 481 
f 464 471 481 
f 478 463 481 
f 467 478 481 
f 480 467 481 
f 471 480 481 
f 472 462 482 
f 469 478 482 
f 478 472 482 
f 462 479 482 
o convex_21
v -0.011447 0.001777 -0.030835
v -0.002579 0.014823 -0.030835
v -0.002579 0.014823 -0.031356
v -0.000488 0.005431 -0.031356
v -0.016669 0.003343 -0.041794
v -0.005186 0.003864 -0.041794
v -0.004666 0.012734 -0.041794
v -0.010924 0.011170 -0.031356
v -0.010405 -0.000833 -0.041794
v -0.009360 0.012213 -0.041794
v -0.000488 0.011691 -0.036053
v -0.006233 0.000734 -0.030835
v -0.014580 0.000212 -0.036053
v -0.007275 0.014301 -0.030835
v -0.001534 0.009604 -0.039182
v -0.011971 0.006995 -0.030835
v -0.014059 -0.000833 -0.039182
v -0.007275 0.013257 -0.041794
v -0.011971 -0.000833 -0.035532
v -0.001011 0.013257 -0.030835
v -0.004142 0.001777 -0.031356
f 494 491 503 
f 488 487 489 
f 487 488 491 
f 489 487 492 
f 487 490 492 
f 489 485 493 
f 484 483 494 
f 483 484 496 
f 484 485 496 
f 492 490 496 
f 486 488 497 
f 488 489 497 
f 493 486 497 
f 489 493 497 
f 490 487 498 
f 495 483 498 
f 487 495 498 
f 483 496 498 
f 496 490 498 
f 487 491 499 
f 495 487 499 
f 485 489 500 
f 489 492 500 
f 496 485 500 
f 492 496 500 
f 494 483 501 
f 491 494 501 
f 483 495 501 
f 499 491 501 
f 495 499 501 
f 485 484 502 
f 493 485 502 
f 486 493 502 
f 484 494 502 
f 494 486 502 
f 488 486 503 
f 491 488 503 
f 486 494 503 
o convex_22
v -0.001011 0.014301 -0.030310
v -0.011449 0.001777 -0.030832
v -0.010927 0.001254 -0.030832
v -0.009883 -0.002399 -0.021959
v 0.002122 -0.008664 -0.022482
v -0.007795 0.015869 -0.021959
v 0.002122 0.015869 -0.021959
v -0.000489 0.005428 -0.030832
v -0.010927 0.010648 -0.030832
v -0.010927 0.006472 -0.021959
v 0.002122 0.011693 -0.026656
v -0.006227 0.014824 -0.030832
v -0.005707 0.000733 -0.030832
v 0.000555 -0.008664 -0.021959
v -0.001533 0.015869 -0.028744
v -0.009883 0.012735 -0.021959
f 512 513 519 
f 505 506 507 
f 509 507 510 
f 506 505 511 
f 511 505 512 
f 505 507 513 
f 507 509 513 
f 512 505 513 
f 504 510 514 
f 510 508 514 
f 511 504 514 
f 508 511 514 
f 504 511 515 
f 512 509 515 
f 511 512 515 
f 508 506 516 
f 506 511 516 
f 511 508 516 
f 507 506 517 
f 506 508 517 
f 508 510 517 
f 510 507 517 
f 510 504 518 
f 509 510 518 
f 504 515 518 
f 515 509 518 
f 509 512 519 
f 513 509 519 
o convex_23
v -0.002576 0.011691 0.004140
v -0.016669 -0.011272 0.008314
v -0.016669 -0.011272 0.008837
v -0.002576 -0.014405 0.001008
v -0.011971 0.017957 0.000485
v -0.015102 -0.010227 0.000485
v -0.005709 0.014301 0.008837
v -0.014058 0.017957 0.008837
v -0.005709 -0.003442 0.008837
v -0.003620 0.017434 0.000485
v -0.011971 -0.014405 0.000485
v -0.011449 -0.011795 0.008837
v -0.013535 0.017957 0.003619
v -0.004143 0.002292 0.008314
v -0.007796 0.017957 0.008837
v -0.016669 -0.007617 0.006748
v -0.002576 -0.014405 0.000485
v -0.002576 -0.009707 0.003619
v -0.002576 0.015866 0.001008
v -0.015102 -0.006052 0.000485
v -0.008840 -0.009707 0.008837
f 537 528 540 
f 522 526 527 
f 526 522 528 
f 525 524 529 
f 522 521 530 
f 521 525 530 
f 525 529 530 
f 528 522 531 
f 522 530 531 
f 530 523 531 
f 527 524 532 
f 520 526 533 
f 526 528 533 
f 524 527 534 
f 527 526 534 
f 529 524 534 
f 521 522 535 
f 525 521 535 
f 522 527 535 
f 527 532 535 
f 520 523 536 
f 523 530 536 
f 530 529 536 
f 523 520 537 
f 520 533 537 
f 533 528 537 
f 526 520 538 
f 534 526 538 
f 529 534 538 
f 520 536 538 
f 536 529 538 
f 524 525 539 
f 532 524 539 
f 525 535 539 
f 535 532 539 
f 528 531 540 
f 531 523 540 
f 523 537 540 
o convex_24
v 0.001078 -0.018059 0.001530
v 0.001600 -0.010749 0.008315
v 0.001600 0.003863 0.004660
v -0.002576 0.010127 0.003618
v -0.002576 -0.015449 0.001008
v 0.001600 0.012734 0.000485
v -0.002576 0.015869 0.000485
v 0.001600 -0.018059 0.000485
v -0.002576 0.000731 0.005183
v 0.001078 -0.014403 0.008315
v -0.002576 -0.010228 0.003618
v -0.002576 -0.015449 0.000485
f 547 548 552 
f 542 543 544 
f 543 542 546 
f 544 543 546 
f 545 544 547 
f 544 546 547 
f 546 542 548 
f 547 546 548 
f 542 544 549 
f 544 545 549 
f 545 541 550 
f 548 542 550 
f 541 548 550 
f 542 549 550 
f 549 545 551 
f 545 550 551 
f 550 549 551 
f 541 545 552 
f 545 547 552 
f 548 541 552 
o convex_25
v -0.016147 0.024220 0.006749
v -0.006752 0.018479 0.006225
v -0.006752 0.017957 0.006225
v -0.007274 0.017957 -0.018305
v -0.006752 0.024220 -0.017261
v -0.014580 0.017957 0.008837
v -0.012492 0.024220 0.008837
v -0.006752 0.024220 -0.005255
v -0.009884 0.024220 -0.013085
v -0.009884 0.018479 -0.011520
v -0.008841 0.020567 0.008837
v -0.006752 0.017957 -0.018305
f 557 555 564 
f 554 555 557 
f 556 555 558 
f 557 553 559 
f 553 558 559 
f 554 557 560 
f 557 559 560 
f 553 557 561 
f 557 556 561 
f 558 553 562 
f 556 558 562 
f 553 561 562 
f 561 556 562 
f 555 554 563 
f 558 555 563 
f 559 558 563 
f 554 560 563 
f 560 559 563 
f 555 556 564 
f 556 557 564 
o convex_26
v -0.022409 0.037791 -0.003695
v -0.006752 0.024745 -0.006296
v -0.006752 0.024220 -0.006296
v -0.013016 0.024745 0.008837
v -0.009886 0.024220 -0.014129
v -0.016666 0.024220 0.007793
v -0.021888 0.037791 0.008837
v -0.009363 0.029963 -0.017261
v -0.015106 0.030485 -0.015694
v -0.020321 0.038833 0.002049
v -0.022930 0.033614 0.008837
v -0.006752 0.024745 -0.018305
v -0.023977 0.037791 -0.000037
v -0.016147 0.034659 -0.012041
v -0.018755 0.034659 0.008313
v -0.008843 0.029440 -0.012561
v -0.020842 0.034659 -0.005773
v -0.021365 0.039357 -0.001081
v -0.023977 0.038313 0.008313
v -0.015106 0.032049 -0.016214
v -0.015622 0.024220 0.003093
v -0.006752 0.026831 -0.018305
v -0.010928 0.027874 -0.018305
f 572 586 587 
f 567 566 568 
f 569 567 570 
f 567 568 570 
f 570 568 575 
f 568 571 575 
f 566 567 576 
f 567 569 576 
f 570 575 577 
f 568 566 579 
f 571 568 579 
f 574 571 579 
f 566 574 579 
f 574 566 580 
f 572 574 580 
f 570 577 581 
f 577 565 581 
f 574 572 582 
f 565 577 582 
f 578 565 582 
f 572 578 582 
f 571 574 583 
f 575 571 583 
f 577 575 583 
f 574 582 583 
f 582 577 583 
f 565 578 584 
f 578 572 584 
f 573 581 584 
f 581 565 584 
f 569 570 585 
f 573 569 585 
f 570 581 585 
f 581 573 585 
f 566 576 586 
f 580 566 586 
f 572 580 586 
f 569 573 587 
f 576 569 587 
f 584 572 587 
f 573 584 587 
f 586 576 587 
o convex_27
v -0.033372 -0.022233 0.051638
v -0.051119 0.005947 0.055291
v -0.050596 0.005429 0.054770
v -0.033372 0.007517 0.047461
v -0.033895 0.006993 0.038067
v -0.033895 -0.023276 0.045375
v -0.035983 -0.027452 0.055814
v -0.041203 -0.000838 0.055814
v -0.040159 -0.025364 0.055291
v -0.046420 0.007517 0.055814
v -0.033372 0.001771 0.050071
v -0.033372 0.007517 0.038067
v -0.051119 0.007517 0.055814
v -0.033372 -0.026931 0.047983
v -0.033895 -0.020666 0.044331
v -0.046943 0.006468 0.050594
v -0.037548 -0.026409 0.051638
v -0.035983 -0.023276 0.055814
v -0.038592 -0.027976 0.055814
v -0.033895 0.006468 0.049027
v -0.033895 0.003862 0.038590
f 602 603 608 
f 594 595 597 
f 588 591 598 
f 591 588 599 
f 597 591 599 
f 597 599 600 
f 589 596 600 
f 594 597 600 
f 599 592 600 
f 588 594 601 
f 599 588 601 
f 599 601 602 
f 593 590 602 
f 601 593 602 
f 590 589 603 
f 589 600 603 
f 600 592 603 
f 602 590 603 
f 589 590 604 
f 590 593 604 
f 596 589 604 
f 593 601 604 
f 594 588 605 
f 595 594 605 
f 598 595 605 
f 588 598 605 
f 600 596 606 
f 594 600 606 
f 601 594 606 
f 596 604 606 
f 604 601 606 
f 591 597 607 
f 597 595 607 
f 595 598 607 
f 598 591 607 
f 592 599 608 
f 599 602 608 
f 603 592 608 
o convex_28
v -0.037550 -0.017531 0.055814
v -0.054249 0.006470 0.060514
v -0.054249 0.006470 0.061557
v -0.049029 -0.019096 0.070428
v -0.039638 -0.026926 0.055814
v -0.046419 0.006992 0.056337
v -0.046419 -0.016491 0.069905
v -0.051638 0.005948 0.055814
v -0.037550 -0.027451 0.059468
v -0.049552 -0.017531 0.066774
v -0.051638 0.001253 0.066251
v -0.041203 -0.002403 0.056337
v -0.041203 -0.020147 0.064165
v -0.052160 -0.008143 0.068860
v -0.052682 0.001774 0.059468
v -0.035984 -0.024317 0.056337
v -0.050594 -0.006056 0.069383
v -0.051638 0.007517 0.062080
v -0.043291 -0.023799 0.066251
v -0.046941 0.007517 0.055814
v -0.039638 -0.027970 0.057380
v -0.053727 -0.000313 0.063121
v -0.053727 0.001774 0.065729
v -0.049029 -0.003969 0.066774
v -0.052682 0.007517 0.056860
v -0.036506 -0.027970 0.055814
f 617 629 634 
f 609 613 616 
f 620 615 621 
f 618 612 622 
f 616 613 623 
f 613 618 623 
f 609 620 624 
f 621 617 624 
f 620 621 624 
f 612 615 625 
f 622 612 625 
f 615 612 627 
f 617 621 627 
f 621 615 627 
f 609 616 628 
f 620 609 628 
f 614 620 628 
f 626 614 628 
f 612 618 629 
f 618 613 629 
f 627 612 629 
f 617 627 629 
f 611 610 630 
f 618 622 630 
f 610 623 630 
f 623 618 630 
f 625 619 631 
f 622 625 631 
f 626 611 631 
f 619 626 631 
f 611 630 631 
f 630 622 631 
f 615 620 632 
f 620 614 632 
f 625 615 632 
f 619 625 632 
f 614 626 632 
f 626 619 632 
f 610 611 633 
f 616 623 633 
f 623 610 633 
f 611 626 633 
f 628 616 633 
f 626 628 633 
f 613 609 634 
f 609 624 634 
f 624 617 634 
f 629 613 634 
o convex_29
v -0.007797 -0.003966 0.015100
v -0.021367 -0.014404 0.020319
v -0.020322 -0.015449 0.020319
v -0.017191 -0.010751 0.008837
v -0.018756 0.007517 0.020842
v -0.004664 0.007517 0.008837
v -0.009363 0.006472 0.020842
v -0.012495 0.007517 0.008837
v -0.008318 -0.008662 0.008837
v -0.013015 -0.011794 0.020842
v -0.011974 -0.011794 0.008837
v -0.017191 -0.007619 0.008837
v -0.009363 -0.001880 0.020319
v -0.004664 0.002819 0.009360
v -0.015625 -0.014404 0.020842
v -0.018756 0.006993 0.019796
v -0.021367 -0.011272 0.020842
v -0.009884 0.007517 0.020842
v -0.006752 -0.005528 0.009883
f 643 648 653 
f 637 636 638 
f 640 638 642 
f 639 640 642 
f 638 640 643 
f 641 639 644 
f 637 638 645 
f 638 643 645 
f 638 636 646 
f 642 638 646 
f 641 644 647 
f 644 635 647 
f 640 641 648 
f 643 640 648 
f 647 635 648 
f 641 647 648 
f 644 639 649 
f 643 644 649 
f 645 643 649 
f 637 645 649 
f 639 642 650 
f 642 646 650 
f 650 646 651 
f 636 637 651 
f 646 636 651 
f 637 649 651 
f 649 639 651 
f 639 650 651 
f 640 639 652 
f 639 641 652 
f 641 640 652 
f 635 644 653 
f 644 643 653 
f 648 635 653 
o convex_30
v -0.020846 -0.010748 0.020842
v -0.032848 -0.022754 0.051116
v -0.033372 -0.022754 0.051116
v -0.032326 0.007517 0.046935
v -0.010408 0.004382 0.023453
v -0.032848 0.007517 0.036501
v -0.014583 -0.013880 0.025020
v -0.020324 -0.002403 0.040151
v -0.019280 0.007517 0.020845
v -0.033372 -0.024843 0.045373
v -0.021888 -0.014926 0.021367
v -0.018236 -0.012837 0.035457
v -0.010408 0.007517 0.020845
v -0.019802 0.006993 0.037022
v -0.016147 -0.014926 0.020845
v -0.032326 -0.026410 0.048505
v -0.033372 0.002293 0.049548
v -0.010408 -0.005013 0.021367
v -0.026065 -0.001360 0.045373
v -0.023453 -0.019101 0.027107
v -0.033372 -0.006059 0.040154
v -0.018236 -0.017533 0.030760
v -0.013539 -0.007620 0.028674
v -0.017190 -0.001360 0.035979
v -0.013539 0.007517 0.028153
v -0.022410 -0.014405 0.021888
v -0.022934 0.006471 0.040676
v -0.032326 0.001247 0.049548
v -0.017715 -0.015448 0.032847
v -0.031804 -0.010748 0.038062
v -0.020846 -0.018579 0.027107
v -0.018758 -0.005534 0.038065
v -0.033372 0.006471 0.037544
v -0.032848 -0.025364 0.050591
v -0.021368 -0.010748 0.020842
v -0.019802 0.001772 0.039108
v -0.012495 -0.010748 0.020845
v -0.031282 0.007517 0.034414
v -0.033372 -0.026410 0.046935
v -0.033372 0.007517 0.046935
f 686 670 693 
f 659 657 662 
f 654 662 666 
f 662 657 666 
f 656 655 670 
f 663 656 670 
f 666 658 671 
f 655 661 672 
f 663 664 673 
f 664 668 673 
f 663 670 674 
f 668 660 675 
f 660 671 676 
f 671 658 676 
f 676 658 677 
f 666 657 678 
f 658 666 678 
f 657 667 678 
f 677 658 678 
f 664 663 679 
f 667 657 680 
f 672 680 681 
f 670 655 681 
f 657 670 681 
f 655 672 681 
f 680 657 681 
f 675 660 682 
f 669 675 682 
f 676 665 682 
f 660 676 682 
f 663 674 683 
f 679 663 683 
f 673 668 684 
f 668 675 684 
f 675 669 684 
f 661 655 685 
f 665 676 685 
f 677 661 685 
f 676 677 685 
f 674 670 686 
f 659 679 686 
f 683 674 686 
f 679 683 686 
f 655 656 687 
f 682 665 687 
f 669 682 687 
f 685 655 687 
f 665 685 687 
f 662 654 688 
f 668 664 688 
f 654 668 688 
f 664 679 688 
f 672 661 689 
f 661 677 689 
f 678 667 689 
f 677 678 689 
f 667 680 689 
f 680 672 689 
f 654 666 690 
f 660 668 690 
f 668 654 690 
f 671 660 690 
f 666 671 690 
f 659 662 691 
f 679 659 691 
f 662 688 691 
f 688 679 691 
f 656 663 692 
f 663 673 692 
f 673 684 692 
f 684 669 692 
f 687 656 692 
f 669 687 692 
f 657 659 693 
f 670 657 693 
f 659 686 693 
o convex_31
v 0.032396 0.013257 -0.005256
v 0.021956 0.000734 0.010400
v 0.022479 0.000734 0.010400
v 0.021956 0.011170 -0.017780
v 0.021956 0.009607 0.008834
v 0.021956 0.019521 -0.021436
v 0.032396 0.004388 0.010920
v 0.032396 0.012212 -0.012038
v 0.032396 0.008044 0.011447
v 0.032396 0.011168 0.003615
v 0.021956 0.008040 0.011447
v 0.030307 0.002821 0.010920
v 0.023524 0.017430 -0.021959
v 0.032396 0.014302 -0.012561
v 0.022479 0.007519 -0.008386
v 0.021956 0.000734 0.011447
v 0.022479 0.011170 0.004658
f 698 703 710 
f 697 695 698 
f 697 698 699 
f 694 700 701 
f 700 694 702 
f 694 699 703 
f 698 702 703 
f 702 694 703 
f 698 695 704 
f 702 698 704 
f 701 700 705 
f 700 702 705 
f 697 699 706 
f 701 697 706 
f 701 706 707 
f 699 694 707 
f 694 701 707 
f 706 699 707 
f 696 695 708 
f 695 697 708 
f 697 701 708 
f 705 696 708 
f 701 705 708 
f 695 696 709 
f 704 695 709 
f 702 704 709 
f 705 702 709 
f 696 705 709 
f 699 698 710 
f 703 699 710 
o convex_32
v 0.026132 0.000731 0.029193
v 0.019346 -0.008664 0.020844
v 0.019346 -0.008140 0.019798
v 0.032918 -0.008664 0.030236
v 0.032918 0.007516 0.011447
v 0.019346 0.006994 0.011447
v 0.019346 -0.008140 0.037020
v 0.032918 -0.006053 0.038066
v 0.030829 0.002819 0.011447
v 0.019346 -0.001355 0.011447
v 0.021435 0.005951 0.017715
v 0.032918 0.002297 0.025540
v 0.032918 -0.008664 0.039633
v 0.019346 0.000209 0.027104
v 0.023001 -0.006576 0.038066
v 0.027696 0.006994 0.016148
v 0.024045 -0.000834 0.031803
v 0.023001 -0.008664 0.039109
v 0.032918 0.003863 0.011971
v 0.032918 -0.001877 0.033364
v 0.022479 0.008039 0.012492
v 0.032918 0.007516 0.014057
v 0.027175 0.003863 0.023454
v 0.019870 -0.008140 0.019798
f 713 720 734 
f 713 712 716 
f 716 712 717 
f 714 715 718 
f 716 715 719 
f 716 719 720 
f 713 716 720 
f 718 715 722 
f 712 714 723 
f 714 718 723 
f 716 717 724 
f 721 716 724 
f 723 718 725 
f 724 717 725 
f 721 724 727 
f 725 718 727 
f 724 725 727 
f 717 712 728 
f 712 723 728 
f 725 717 728 
f 723 725 728 
f 715 714 729 
f 714 719 729 
f 719 715 729 
f 718 722 730 
f 711 727 730 
f 727 718 730 
f 715 716 731 
f 716 721 731 
f 721 726 731 
f 731 726 732 
f 722 715 732 
f 715 731 732 
f 722 732 733 
f 726 721 733 
f 727 711 733 
f 721 727 733 
f 711 730 733 
f 730 722 733 
f 732 726 733 
f 712 713 734 
f 714 712 734 
f 719 714 734 
f 720 719 734 
o convex_33
v 0.015170 0.002297 0.020843
v 0.019346 -0.032150 0.050594
v 0.018824 -0.032150 0.050594
v 0.006300 -0.019099 0.011447
v 0.019346 -0.001881 0.011447
v 0.005256 -0.032146 0.037021
v 0.003690 -0.005535 0.011447
v 0.010994 -0.017534 0.039110
v 0.019346 -0.032674 0.042240
v 0.019346 -0.006576 0.035454
v 0.019346 0.006995 0.011447
v 0.008906 -0.032670 0.032323
v 0.002122 -0.015445 0.011447
v 0.006821 0.000728 0.011972
v 0.009950 -0.017014 0.011447
v 0.015693 -0.013356 0.040673
v 0.005777 -0.032670 0.032844
v 0.010994 -0.029537 0.044329
v 0.018824 -0.022233 0.047456
v 0.008385 -0.018054 0.034933
v 0.013604 -0.005535 0.029714
v 0.010994 0.004902 0.011972
v 0.018824 0.000208 0.027108
v 0.005256 -0.022753 0.031277
v 0.002122 -0.011799 0.011972
v 0.010994 -0.030061 0.029714
v 0.019346 -0.031630 0.040673
v 0.014647 -0.024322 0.045896
v 0.012560 -0.032670 0.045892
v 0.011515 -0.011799 0.034412
v 0.014647 0.005951 0.014060
v 0.003690 -0.018054 0.011447
v 0.019346 -0.016489 0.044325
v 0.008385 -0.018579 0.011447
v 0.016736 -0.006576 0.034408
v 0.013081 -0.001357 0.023977
v 0.003690 -0.005535 0.011972
v 0.019346 0.005427 0.016670
f 765 757 772 
f 739 738 741 
f 739 736 743 
f 736 739 744 
f 739 741 745 
f 744 739 745 
f 741 738 747 
f 738 739 749 
f 738 746 751 
f 746 743 751 
f 740 747 751 
f 742 740 752 
f 737 736 753 
f 740 742 754 
f 745 741 756 
f 741 748 756 
f 740 754 758 
f 747 740 759 
f 741 747 759 
f 740 758 759 
f 743 746 760 
f 739 743 761 
f 749 739 761 
f 743 760 761 
f 750 742 762 
f 752 737 762 
f 742 752 762 
f 737 753 762 
f 753 750 762 
f 736 737 763 
f 743 736 763 
f 740 751 763 
f 751 743 763 
f 737 752 763 
f 752 740 763 
f 742 750 764 
f 754 742 764 
f 748 754 764 
f 756 735 765 
f 745 756 765 
f 735 757 765 
f 747 738 766 
f 738 751 766 
f 751 747 766 
f 736 744 767 
f 744 750 767 
f 753 736 767 
f 750 753 767 
f 746 738 768 
f 738 749 768 
f 760 746 768 
f 749 761 768 
f 761 760 768 
f 750 744 769 
f 744 757 769 
f 764 750 769 
f 755 764 769 
f 735 756 770 
f 756 748 770 
f 757 735 770 
f 748 764 770 
f 764 755 770 
f 755 769 770 
f 769 757 770 
f 748 741 771 
f 754 748 771 
f 758 754 771 
f 741 759 771 
f 759 758 771 
f 744 745 772 
f 757 744 772 
f 745 765 772 
o convex_34
v 0.032918 -0.007623 0.030237
v 0.032918 -0.038935 0.061551
v 0.032918 -0.037368 0.058941
v 0.040225 -0.008147 0.033373
v 0.032918 -0.008147 0.039639
v 0.039703 -0.032149 0.061028
v 0.040225 -0.007623 0.039639
v 0.035006 -0.034757 0.064164
v 0.040225 -0.030061 0.054244
v 0.033962 -0.027974 0.048501
v 0.032918 -0.036323 0.063642
v 0.038659 -0.035802 0.063116
v 0.037614 -0.030583 0.052676
v 0.033440 -0.008147 0.030237
v 0.040225 -0.025887 0.055812
v 0.036051 -0.007623 0.039639
v 0.039703 -0.033715 0.058941
v 0.036571 -0.035281 0.064687
f 788 780 790 
f 775 774 773 
f 773 774 777 
f 776 773 779 
f 776 779 781 
f 775 773 782 
f 777 774 783 
f 780 777 783 
f 776 781 785 
f 775 782 785 
f 782 776 785 
f 773 776 786 
f 782 773 786 
f 776 782 786 
f 778 781 787 
f 781 779 787 
f 773 777 788 
f 779 773 788 
f 777 780 788 
f 774 775 789 
f 781 778 789 
f 778 784 789 
f 784 774 789 
f 775 785 789 
f 785 781 789 
f 783 774 790 
f 780 783 790 
f 784 778 790 
f 774 784 790 
f 787 779 790 
f 778 787 790 
f 779 788 790 
o convex_35
v 0.048055 -0.022235 0.053726
v 0.040225 -0.030586 0.055290
v 0.040747 -0.030586 0.055290
v 0.044402 -0.008144 0.033369
v 0.040225 -0.007620 0.039633
v 0.052752 -0.008144 0.034413
v 0.041793 -0.027452 0.057902
v 0.051707 -0.007620 0.038068
v 0.050663 -0.022235 0.050591
v 0.040225 -0.007620 0.033369
v 0.045445 -0.029539 0.057902
v 0.050140 -0.017541 0.049547
v 0.052752 -0.009708 0.035460
v 0.052752 -0.013361 0.043809
v 0.040225 -0.026409 0.056334
v 0.049619 -0.023278 0.050591
v 0.043359 -0.027452 0.058422
v 0.050140 -0.021709 0.052682
f 807 801 808 
f 793 792 794 
f 794 792 800 
f 792 795 800 
f 796 794 800 
f 795 798 800 
f 798 796 800 
f 792 793 801 
f 797 792 801 
f 798 795 802 
f 793 794 803 
f 794 796 803 
f 799 803 804 
f 796 798 804 
f 798 802 804 
f 803 796 804 
f 795 792 805 
f 792 797 805 
f 797 795 805 
f 801 793 806 
f 799 801 806 
f 793 803 806 
f 803 799 806 
f 795 797 807 
f 797 801 807 
f 791 802 807 
f 802 795 807 
f 801 799 808 
f 802 791 808 
f 799 804 808 
f 804 802 808 
f 791 807 808 
o convex_36
v -0.018236 0.014298 -0.043359
v -0.031284 0.020566 -0.043882
v -0.031284 0.020566 -0.043359
v -0.018236 -0.001356 -0.043882
v -0.018236 0.000733 -0.042316
v -0.028672 0.022132 -0.042316
v -0.019279 0.015866 -0.043882
f 810 814 815 
f 811 810 812 
f 812 809 813 
f 811 812 813 
f 811 813 814 
f 810 811 814 
f 813 809 814 
f 814 809 815 
f 812 810 815 
f 809 812 815 
o convex_37
v -0.003622 0.010127 -0.041794
v -0.017713 -0.001878 -0.043882
v -0.017191 -0.002400 -0.043882
v 0.000034 0.022654 -0.043882
v -0.017713 0.003344 -0.041794
v -0.006753 0.003344 -0.043882
v -0.010925 -0.000833 -0.041794
v -0.017713 0.004386 -0.043882
v -0.007277 0.013256 -0.041794
v -0.001011 0.022654 -0.043360
v -0.004664 0.004908 -0.041794
v 0.000556 0.019520 -0.043882
f 826 821 827 
f 818 817 819 
f 817 818 820 
f 818 819 821 
f 816 820 822 
f 820 818 822 
f 818 821 822 
f 819 817 823 
f 817 820 823 
f 820 816 824 
f 820 824 825 
f 819 823 825 
f 823 820 825 
f 824 816 825 
f 816 822 826 
f 822 821 826 
f 821 819 827 
f 825 816 827 
f 819 825 827 
f 816 826 827 
o convex_38
v 0.014647 -0.006053 -0.030832
v 0.002123 -0.009185 -0.022482
v 0.002123 -0.009185 -0.021959
v 0.002123 0.009083 -0.025092
v 0.017779 0.009083 -0.021959
v 0.005256 0.000730 -0.030832
v 0.014126 0.005949 -0.030310
v 0.010995 -0.009185 -0.021959
v 0.007343 -0.011273 -0.030832
v 0.002123 0.009083 -0.021959
v 0.016734 -0.002396 -0.030832
v 0.015169 -0.003442 -0.021959
v 0.004212 -0.005009 -0.030310
v 0.014126 0.009083 -0.025614
v 0.004733 -0.010751 -0.021959
v 0.010472 -0.010751 -0.029788
v 0.016734 0.000730 -0.030832
v 0.005256 -0.009707 -0.030832
v 0.009430 0.003862 -0.030832
f 844 833 846 
f 829 830 831 
f 832 830 835 
f 833 828 836 
f 831 830 837 
f 832 831 837 
f 830 832 837 
f 828 833 838 
f 835 828 839 
f 832 835 839 
f 828 838 839 
f 838 832 839 
f 829 831 840 
f 831 833 840 
f 831 832 841 
f 832 834 841 
f 834 831 841 
f 830 829 842 
f 835 830 842 
f 829 836 842 
f 842 836 843 
f 828 835 843 
f 836 828 843 
f 835 842 843 
f 834 832 844 
f 838 833 844 
f 832 838 844 
f 836 829 845 
f 833 836 845 
f 829 840 845 
f 840 833 845 
f 833 831 846 
f 831 834 846 
f 834 844 846 
o convex_39
v 0.012036 0.015869 -0.026135
v 0.020390 0.015869 -0.021959
v 0.020390 0.015346 -0.021959
v 0.002122 0.015869 -0.021959
v 0.002122 0.009083 -0.025090
v 0.017778 0.009083 -0.021959
v 0.002122 0.009083 -0.021959
v 0.014126 0.009083 -0.025090
v 0.002122 0.015869 -0.025613
f 851 850 855 
f 849 848 850 
f 848 847 850 
f 849 850 852 
f 851 852 853 
f 850 851 853 
f 852 850 853 
f 847 848 854 
f 848 849 854 
f 851 847 854 
f 849 852 854 
f 852 851 854 
f 850 847 855 
f 847 851 855 
o convex_40
v -0.053726 0.009083 0.057377
v -0.037549 0.008561 0.049029
v -0.037549 0.007517 0.049029
v -0.038073 0.021088 0.035979
v -0.049029 0.020565 0.050592
v -0.038594 0.007517 0.043812
v -0.051638 0.007517 0.062075
v -0.037549 0.019522 0.043288
v -0.048508 0.020044 0.044336
v -0.050072 0.007517 0.053203
v -0.051117 0.020565 0.050592
v -0.051638 0.009083 0.061554
v -0.054251 0.009083 0.062075
v -0.043291 0.007517 0.046944
v -0.037549 0.021088 0.041722
v -0.050595 0.021088 0.047986
v -0.037549 0.008039 0.043288
v -0.043291 0.020565 0.039635
v -0.054251 0.007517 0.059467
f 868 866 874 
f 858 857 862 
f 861 858 862 
f 857 858 863 
f 861 862 865 
f 856 864 865 
f 862 857 867 
f 857 863 867 
f 863 860 867 
f 860 866 868 
f 862 867 868 
f 867 860 868 
f 861 865 869 
f 865 864 869 
f 863 858 870 
f 860 863 870 
f 864 856 871 
f 866 860 871 
f 856 866 871 
f 870 859 871 
f 860 870 871 
f 858 861 872 
f 861 859 872 
f 870 858 872 
f 859 870 872 
f 859 861 873 
f 861 869 873 
f 869 864 873 
f 864 871 873 
f 871 859 873 
f 856 865 874 
f 865 862 874 
f 866 856 874 
f 862 868 874 
o convex_41
v -0.037546 0.014303 0.045894
v -0.019281 0.008039 0.035457
v -0.019281 0.007517 0.035457
v -0.019803 0.020044 0.018235
v -0.032327 0.007517 0.035457
v -0.037546 0.021088 0.041195
v -0.019281 0.007517 0.022412
v -0.019281 0.021088 0.024498
v -0.037546 0.021088 0.035978
v -0.037546 0.007517 0.049025
v -0.025544 0.015344 0.037542
v -0.037546 0.008039 0.042762
v -0.032327 0.011172 0.045369
v -0.020325 0.015344 0.019802
v -0.032849 0.021088 0.038585
v -0.023978 0.008039 0.040674
v -0.019281 0.016390 0.030240
v -0.019281 0.021088 0.018235
v -0.035458 0.020044 0.033889
v -0.037024 0.019522 0.042762
f 885 889 894 
f 876 877 881 
f 877 879 881 
f 876 881 882 
f 875 880 883 
f 880 882 883 
f 879 877 884 
f 875 883 884 
f 883 879 886 
f 879 884 886 
f 884 883 886 
f 875 884 887 
f 878 881 888 
f 881 879 888 
f 882 880 889 
f 877 876 890 
f 884 877 890 
f 887 884 890 
f 885 887 890 
f 876 882 891 
f 882 889 891 
f 889 885 891 
f 890 876 891 
f 885 890 891 
f 881 878 892 
f 882 881 892 
f 878 883 892 
f 883 882 892 
f 879 883 893 
f 883 878 893 
f 878 888 893 
f 888 879 893 
f 880 875 894 
f 875 887 894 
f 887 885 894 
f 889 880 894 
o convex_42
v -0.024499 0.032049 0.020320
v -0.034416 0.031524 0.023449
v -0.033891 0.031003 0.022929
v -0.023977 0.037791 0.008837
v -0.019803 0.021088 0.017709
v -0.019279 0.021612 0.023974
v -0.019803 0.028920 0.008837
v -0.019279 0.034137 0.009881
v -0.031284 0.034137 0.023449
v -0.023977 0.021088 0.023974
v -0.031805 0.034137 0.017709
v -0.022411 0.037791 0.009881
v -0.023456 0.027877 0.023974
v -0.019279 0.029960 0.016145
v -0.033891 0.033612 0.023974
v -0.023977 0.035179 0.008837
v -0.019279 0.028920 0.008837
v -0.030762 0.035702 0.018754
f 905 909 912 
f 899 897 901 
f 896 897 904 
f 897 899 904 
f 899 900 904 
f 897 896 905 
f 901 897 905 
f 902 898 906 
f 903 895 906 
f 895 903 907 
f 904 900 907 
f 900 902 908 
f 906 895 908 
f 902 906 908 
f 895 907 908 
f 907 900 908 
f 896 904 909 
f 905 896 909 
f 907 903 909 
f 904 907 909 
f 898 901 910 
f 905 898 910 
f 901 905 910 
f 900 899 911 
f 901 898 911 
f 899 901 911 
f 898 902 911 
f 902 900 911 
f 898 905 912 
f 906 898 912 
f 903 906 912 
f 909 903 912 
