o convex_0
v -0.001394 -0.029095 0.016357
v 0.001322 0.028752 0.008871
v 0.005408 0.024666 0.019760
v -0.031335 0.008328 0.011594
v 0.029912 0.004932 0.008191
v -0.004795 -0.020929 0.008191
v 0.023104 -0.007315 0.019760
v -0.017726 -0.015481 0.019760
v -0.032020 0.004242 0.008191
v -0.011603 0.021258 0.019760
v 0.010852 -0.029090 0.019760
v 0.024462 0.017862 0.011594
v 0.008809 -0.020923 0.008191
v -0.016362 0.024661 0.008191
v 0.021740 0.012408 0.019760
v -0.025891 0.010368 0.017718
v -0.012967 -0.024331 0.019080
v 0.023783 0.019896 0.008191
v 0.015617 -0.025004 0.019080
v -0.026570 0.017856 0.008871
v 0.029227 0.009690 0.010913
v 0.014259 0.021264 0.019760
v -0.004116 -0.030457 0.019760
v -0.005474 0.023988 0.019760
v -0.008196 -0.024331 0.013637
v 0.020376 0.021937 0.010913
v -0.029977 0.000840 0.008191
v -0.020448 0.002202 0.019760
v 0.012895 -0.023647 0.013637
v -0.027934 0.013776 0.014314
v 0.006087 -0.024325 0.010233
v -0.006159 0.028063 0.008191
v 0.020376 -0.016159 0.019760
v 0.023783 0.002886 0.019760
v 0.008130 -0.030457 0.019080
v -0.029977 0.013776 0.008191
v 0.012895 -0.018199 0.008871
v -0.020448 -0.006637 0.019760
v -0.021805 0.019218 0.012955
v -0.030656 0.008328 0.012955
v -0.023169 0.009006 0.019080
v 0.028548 0.013092 0.008191
v -0.016362 0.024661 0.008871
v -0.003437 -0.025009 0.011594
v -0.032020 0.004242 0.008871
v 0.016975 0.019218 0.019760
v -0.008881 -0.019567 0.009552
v 0.010173 0.023304 0.019760
v 0.009494 -0.028412 0.016357
v -0.005474 0.028063 0.009552
v -0.000721 0.024661 0.019760
v 0.012895 0.024666 0.008191
v 0.000643 -0.022285 0.008191
v 0.026505 0.015816 0.010913
v -0.006159 -0.029095 0.018399
v -0.012967 -0.024331 0.019760
f 17 55 56 
f 7 3 8 
f 5 6 9 
f 8 3 10 
f 7 8 11 
f 6 5 13 
f 5 9 14 
f 3 7 15 
f 5 14 18 
f 7 5 21 
f 3 15 22 
f 11 8 23 
f 10 3 24 
f 12 18 26 
f 9 6 27 
f 25 17 27 
f 8 10 28 
f 5 19 29 
f 16 10 30 
f 18 14 32 
f 5 7 33 
f 7 11 33 
f 19 5 33 
f 11 19 33 
f 15 7 34 
f 7 21 34 
f 21 15 34 
f 23 1 35 
f 11 23 35 
f 1 31 35 
f 9 4 36 
f 14 9 36 
f 20 14 36 
f 4 30 36 
f 30 20 36 
f 13 5 37 
f 5 29 37 
f 29 13 37 
f 8 28 38 
f 30 10 39 
f 20 30 39 
f 30 4 40 
f 16 30 40 
f 8 38 40 
f 38 16 40 
f 10 16 41 
f 28 10 41 
f 16 38 41 
f 38 28 41 
f 5 18 42 
f 21 5 42 
f 14 20 43 
f 10 24 43 
f 32 14 43 
f 39 10 43 
f 20 39 43 
f 25 6 44 
f 31 1 44 
f 4 9 45 
f 9 27 45 
f 40 4 45 
f 8 40 45 
f 22 15 46 
f 12 26 46 
f 26 22 46 
f 6 25 47 
f 27 6 47 
f 25 27 47 
f 2 3 48 
f 3 22 48 
f 26 2 48 
f 22 26 48 
f 19 11 49 
f 13 29 49 
f 29 19 49 
f 31 13 49 
f 11 35 49 
f 35 31 49 
f 2 32 50 
f 43 24 50 
f 32 43 50 
f 3 2 51 
f 24 3 51 
f 2 50 51 
f 50 24 51 
f 2 26 52 
f 26 18 52 
f 32 2 52 
f 18 32 52 
f 6 13 53 
f 13 31 53 
f 44 6 53 
f 31 44 53 
f 18 12 54 
f 15 21 54 
f 42 18 54 
f 21 42 54 
f 12 46 54 
f 46 15 54 
f 1 23 55 
f 17 25 55 
f 44 1 55 
f 25 44 55 
f 23 8 56 
f 27 17 56 
f 8 45 56 
f 45 27 56 
f 55 23 56 
o convex_1
v -0.045630 -0.041346 -0.025153
v -0.015691 -0.020932 -0.006786
v -0.016369 -0.020932 -0.006786
v -0.038822 -0.020932 -0.038766
v -0.019093 -0.044067 -0.034680
v -0.040865 -0.037943 -0.002020
v -0.015691 -0.020932 -0.038766
v -0.042909 -0.021612 -0.012231
v -0.030662 -0.044067 -0.009508
v -0.034061 -0.046790 -0.035360
v -0.016369 -0.041346 -0.024473
v -0.048354 -0.029779 -0.018356
v -0.036104 -0.041346 -0.038766
v -0.034742 -0.048150 -0.021750
v -0.044949 -0.031819 -0.035360
v -0.040184 -0.027736 -0.002703
v -0.031343 -0.040663 -0.002703
v -0.015691 -0.032502 -0.038766
v -0.025216 -0.048147 -0.026512
v -0.042909 -0.040663 -0.005422
v -0.042224 -0.046110 -0.030598
v -0.042224 -0.021612 -0.038082
v -0.032699 -0.036580 -0.000657
v -0.046311 -0.028416 -0.009508
v -0.018412 -0.042024 -0.020395
v -0.038822 -0.020932 -0.010188
v -0.024535 -0.042024 -0.038766
v -0.048354 -0.035217 -0.020391
v -0.019774 -0.031822 -0.039449
v -0.015691 -0.041346 -0.029918
v -0.026579 -0.048833 -0.030598
v -0.039503 -0.042026 -0.004063
v -0.041546 -0.046110 -0.021071
v -0.044268 -0.021612 -0.017672
v -0.038144 -0.026376 -0.002703
v -0.015691 -0.022975 -0.007465
v -0.045630 -0.037263 -0.032641
v -0.046311 -0.029779 -0.032641
v -0.019093 -0.044067 -0.022434
v -0.042909 -0.038620 -0.036043
v -0.032021 -0.030459 -0.001340
v -0.033380 -0.048833 -0.030598
v -0.041546 -0.027056 -0.038766
v -0.035423 -0.045430 -0.010868
v -0.039503 -0.023653 -0.005422
v -0.044949 -0.038620 -0.008145
v -0.044949 -0.042706 -0.021071
v -0.021133 -0.044067 -0.036723
v -0.043587 -0.031142 -0.004063
v -0.029300 -0.041346 -0.005422
v -0.039503 -0.047470 -0.022430
v -0.044949 -0.025016 -0.032641
v -0.023854 -0.046107 -0.020395
v -0.023173 -0.047470 -0.032641
v -0.016369 -0.042704 -0.031961
v -0.042224 -0.020932 -0.036043
v -0.048354 -0.033182 -0.024473
v -0.042909 -0.025016 -0.006786
v -0.027260 -0.048150 -0.023793
v -0.038822 -0.046110 -0.034000
v -0.036785 -0.029779 -0.001340
v -0.032699 -0.037943 -0.000657
v -0.033380 -0.042026 -0.003383
v -0.046311 -0.037943 -0.030598
f 113 94 120 
f 59 58 60 
f 60 58 63 
f 63 58 74 
f 59 60 82 
f 66 69 83 
f 80 68 84 
f 60 63 85 
f 63 74 85 
f 83 69 85 
f 74 83 85 
f 74 58 86 
f 62 76 88 
f 88 76 89 
f 80 64 90 
f 68 80 90 
f 64 82 90 
f 58 59 91 
f 81 67 92 
f 86 58 92 
f 67 86 92 
f 78 71 94 
f 71 93 94 
f 67 81 95 
f 93 71 96 
f 77 93 96 
f 79 58 97 
f 58 91 97 
f 66 87 98 
f 87 70 98 
f 78 60 99 
f 71 78 99 
f 60 85 99 
f 85 69 99 
f 69 96 99 
f 96 71 99 
f 59 82 101 
f 82 64 101 
f 91 59 101 
f 72 91 101 
f 80 84 102 
f 57 77 103 
f 84 57 103 
f 89 76 103 
f 77 89 103 
f 76 102 103 
f 102 84 103 
f 74 61 104 
f 66 83 104 
f 83 74 104 
f 62 72 105 
f 76 62 105 
f 102 76 105 
f 80 102 105 
f 92 73 106 
f 81 92 106 
f 95 81 106 
f 89 77 107 
f 88 89 107 
f 77 98 107 
f 98 70 107 
f 70 100 107 
f 100 88 107 
f 68 90 108 
f 94 68 108 
f 78 94 108 
f 75 95 109 
f 106 65 109 
f 95 106 109 
f 87 66 110 
f 75 87 110 
f 95 75 110 
f 104 61 110 
f 66 104 110 
f 61 74 111 
f 86 67 111 
f 74 86 111 
f 67 95 111 
f 110 61 111 
f 95 110 111 
f 60 78 112 
f 82 60 112 
f 90 82 112 
f 78 108 112 
f 108 90 112 
f 84 68 113 
f 68 94 113 
f 64 80 114 
f 101 64 114 
f 72 101 114 
f 105 72 114 
f 80 105 114 
f 87 75 115 
f 70 87 115 
f 65 100 115 
f 100 70 115 
f 75 109 115 
f 109 65 115 
f 69 66 116 
f 96 69 116 
f 77 96 116 
f 66 98 116 
f 98 77 116 
f 72 62 117 
f 62 79 117 
f 91 72 117 
f 79 97 117 
f 97 91 117 
f 58 79 118 
f 79 62 118 
f 62 88 118 
f 92 58 118 
f 73 92 118 
f 100 65 119 
f 88 100 119 
f 65 106 119 
f 106 73 119 
f 73 118 119 
f 118 88 119 
f 77 57 120 
f 57 84 120 
f 93 77 120 
f 94 93 120 
f 84 113 120 
o convex_2
v -0.002076 0.036918 -0.000657
v -0.035423 -0.000505 -0.003379
v -0.035423 -0.000505 -0.002698
v -0.000714 -0.020929 0.008191
v -0.029977 0.014454 0.008191
v -0.000714 -0.010033 -0.003379
v -0.000714 0.027390 0.008191
v -0.024531 0.025345 -0.003379
v -0.031339 0.001540 0.008191
v -0.026573 -0.012072 -0.003379
v -0.000714 0.037600 -0.003379
v -0.014331 0.026021 0.008191
v -0.034061 0.011733 0.000705
v -0.031339 -0.009351 -0.002698
v -0.004118 -0.020248 0.008191
v -0.004801 -0.012072 -0.003379
v -0.008885 0.035555 -0.002698
v -0.020447 0.025345 0.004106
v -0.034061 0.011733 -0.003379
v -0.034061 0.006301 0.005467
v -0.000714 0.030112 0.007509
v -0.025210 0.023982 0.000024
v -0.016370 -0.012754 -0.003379
v -0.000714 -0.020929 0.007509
v -0.034061 0.000853 0.003425
v -0.029294 -0.007993 0.000705
v -0.032016 0.015136 0.002066
v -0.027256 0.018539 0.006828
v -0.035423 0.007659 -0.002698
v -0.004118 0.036231 0.000024
v -0.032016 0.010369 0.008191
v -0.006164 0.028748 0.008191
v -0.004801 0.037600 -0.003379
v -0.029977 0.000171 0.008191
f 146 135 154 
f 124 126 127 
f 125 124 127 
f 126 122 128 
f 124 125 129 
f 122 126 130 
f 127 126 131 
f 126 128 131 
f 125 127 132 
f 123 122 134 
f 122 130 134 
f 134 130 135 
f 124 129 135 
f 130 126 136 
f 132 137 138 
f 128 122 139 
f 127 131 141 
f 131 121 141 
f 137 128 142 
f 138 137 142 
f 130 136 143 
f 143 136 144 
f 126 124 144 
f 135 130 144 
f 124 135 144 
f 136 126 144 
f 130 143 144 
f 123 134 145 
f 134 129 145 
f 140 123 145 
f 129 140 145 
f 134 135 146 
f 128 139 147 
f 139 133 147 
f 142 128 147 
f 142 147 148 
f 125 132 148 
f 132 138 148 
f 138 142 148 
f 147 125 148 
f 122 123 149 
f 139 122 149 
f 133 139 149 
f 123 140 149 
f 140 133 149 
f 137 132 150 
f 141 121 150 
f 129 125 151 
f 140 129 151 
f 133 140 151 
f 125 147 151 
f 147 133 151 
f 132 127 152 
f 127 141 152 
f 150 132 152 
f 141 150 152 
f 121 131 153 
f 131 128 153 
f 128 137 153 
f 150 121 153 
f 137 150 153 
f 129 134 154 
f 135 129 154 
f 134 146 154 
o convex_3
v -0.000714 -0.030456 -0.029919
v 0.013578 -0.020931 -0.010185
v 0.010174 -0.020931 -0.010185
v 0.013578 -0.020931 -0.038769
v 0.013578 -0.032497 -0.023117
v -0.000714 -0.020931 -0.029236
v -0.000714 -0.026376 -0.012227
v 0.002690 -0.034540 -0.025837
v 0.013578 -0.028414 -0.036726
v -0.000714 -0.020931 -0.014950
v 0.012217 -0.030456 -0.017675
v 0.004052 -0.030456 -0.034004
v 0.013578 -0.031816 -0.032641
v 0.001328 -0.024335 -0.033321
v 0.004732 -0.033859 -0.021757
v -0.000714 -0.031137 -0.020395
v 0.013578 -0.025014 -0.012227
v 0.012217 -0.020931 -0.038769
v 0.002008 -0.033178 -0.029919
v 0.012897 -0.027056 -0.038083
v -0.000714 -0.023654 -0.012227
v 0.005412 -0.034540 -0.025837
v 0.002008 -0.020931 -0.032641
f 172 168 177 
f 157 156 158 
f 158 156 159 
f 157 158 160 
f 156 157 161 
f 160 155 161 
f 158 159 163 
f 157 160 164 
f 160 161 164 
f 166 163 167 
f 163 159 167 
f 155 160 168 
f 166 155 168 
f 159 165 169 
f 165 161 169 
f 161 155 170 
f 155 162 170 
f 162 169 170 
f 169 161 170 
f 159 156 171 
f 156 161 171 
f 165 159 171 
f 161 165 171 
f 160 158 172 
f 166 168 172 
f 162 155 173 
f 155 166 173 
f 166 167 173 
f 158 163 174 
f 163 166 174 
f 172 158 174 
f 166 172 174 
f 161 157 175 
f 157 164 175 
f 164 161 175 
f 167 159 176 
f 159 169 176 
f 169 162 176 
f 162 173 176 
f 173 167 176 
f 168 160 177 
f 160 172 177 
o convex_4
v 0.020386 -0.041343 -0.036726
v 0.047607 -0.033185 -0.006784
v 0.047607 -0.033862 -0.006784
v 0.013578 -0.020932 -0.009507
v 0.040802 -0.020929 -0.038088
v 0.033993 -0.049511 -0.026515
v 0.013578 -0.021612 -0.039449
v 0.028550 -0.039301 -0.004743
v 0.040119 -0.020929 -0.008146
v 0.039439 -0.039301 -0.038767
v 0.018345 -0.043383 -0.025154
v 0.039439 -0.037941 -0.002020
v 0.046244 -0.035899 -0.028560
v 0.044202 -0.043386 -0.016995
v 0.033993 -0.048148 -0.036726
v 0.013578 -0.033182 -0.035361
v 0.034673 -0.026374 -0.002703
v 0.025150 -0.048828 -0.025836
v 0.037397 -0.042023 -0.004743
v 0.028550 -0.042703 -0.039449
v 0.042840 -0.021612 -0.034678
v 0.038077 -0.020929 -0.039449
v 0.042840 -0.044066 -0.028560
v 0.030592 -0.035221 -0.002020
v 0.025150 -0.048828 -0.033320
v 0.019027 -0.040661 -0.018353
v 0.013578 -0.031139 -0.020393
v 0.047607 -0.030459 -0.012227
v 0.046244 -0.039301 -0.007463
v 0.044202 -0.024335 -0.008146
v 0.044882 -0.033862 -0.034003
v 0.013578 -0.020932 -0.038767
v 0.038760 -0.029099 -0.002020
v 0.040802 -0.045428 -0.015633
v 0.034673 -0.044746 -0.010869
v 0.018345 -0.042703 -0.031958
v 0.041478 -0.046108 -0.027194
v 0.045561 -0.041346 -0.021751
v 0.023787 -0.043383 -0.015633
v 0.016303 -0.033862 -0.038084
v 0.013578 -0.024335 -0.011548
v 0.030592 -0.042023 -0.006788
v 0.042840 -0.037941 -0.002699
v 0.037397 -0.045428 -0.037405
v 0.043520 -0.027057 -0.004743
v 0.042840 -0.029779 -0.037405
v 0.042840 -0.038621 -0.035364
v 0.047607 -0.031822 -0.016995
v 0.027871 -0.046788 -0.037401
v 0.038077 -0.038621 -0.039449
v 0.034673 -0.021612 -0.006788
v 0.033314 -0.040661 -0.003382
v 0.032631 -0.048828 -0.022430
v 0.015623 -0.038621 -0.028560
v 0.027871 -0.049511 -0.034003
v 0.046924 -0.038621 -0.011548
v 0.041478 -0.020929 -0.012227
v 0.040802 -0.042023 -0.006105
v 0.030592 -0.033182 -0.002020
v 0.038077 -0.031822 -0.001337
v 0.023108 -0.040661 -0.038767
v 0.023108 -0.048148 -0.029918
v 0.045561 -0.031822 -0.030597
v 0.027191 -0.039301 -0.006105
f 218 203 241 
f 181 184 193 
f 181 186 199 
f 186 182 199 
f 197 184 199 
f 181 185 201 
f 181 193 204 
f 188 203 204 
f 179 180 205 
f 179 205 207 
f 205 198 207 
f 184 181 209 
f 181 199 209 
f 199 184 209 
f 191 206 211 
f 193 178 213 
f 178 202 213 
f 183 192 214 
f 211 183 214 
f 191 211 214 
f 200 190 215 
f 191 214 215 
f 214 200 215 
f 188 195 216 
f 203 188 216 
f 178 193 217 
f 193 184 217 
f 181 204 218 
f 204 203 218 
f 195 212 219 
f 212 196 219 
f 216 195 219 
f 185 216 219 
f 180 179 220 
f 189 196 220 
f 206 180 220 
f 192 197 221 
f 214 192 221 
f 200 214 221 
f 186 194 222 
f 207 186 222 
f 179 207 222 
f 194 210 222 
f 220 179 222 
f 210 220 222 
f 182 198 223 
f 199 182 223 
f 198 208 223 
f 223 208 224 
f 190 200 224 
f 208 190 224 
f 221 187 224 
f 200 221 224 
f 187 223 224 
f 205 180 225 
f 198 205 225 
f 197 192 226 
f 202 178 226 
f 197 199 227 
f 187 221 227 
f 221 197 227 
f 199 223 227 
f 223 187 227 
f 186 181 228 
f 181 194 228 
f 194 186 228 
f 196 189 229 
f 201 185 229 
f 189 201 229 
f 185 219 229 
f 219 196 229 
f 195 183 230 
f 183 211 230 
f 212 195 230 
f 211 212 230 
f 204 193 231 
f 188 204 231 
f 193 213 231 
f 213 188 231 
f 192 183 232 
f 183 195 232 
f 195 202 232 
f 226 192 232 
f 202 226 232 
f 180 206 233 
f 206 191 233 
f 215 190 233 
f 191 215 233 
f 190 225 233 
f 225 180 233 
f 182 186 234 
f 198 182 234 
f 186 207 234 
f 207 198 234 
f 211 206 235 
f 196 212 235 
f 212 211 235 
f 220 196 235 
f 206 220 235 
f 194 181 236 
f 181 201 236 
f 201 189 237 
f 210 194 237 
f 189 220 237 
f 220 210 237 
f 194 236 237 
f 236 201 237 
f 184 197 238 
f 178 217 238 
f 217 184 238 
f 226 178 238 
f 197 226 238 
f 195 188 239 
f 202 195 239 
f 188 213 239 
f 213 202 239 
f 208 198 240 
f 190 208 240 
f 225 190 240 
f 198 225 240 
f 185 181 241 
f 216 185 241 
f 203 216 241 
f 181 218 241 
o convex_5
v 0.031953 0.009012 0.003427
v -0.000714 -0.020929 0.007510
v -0.000714 -0.020929 0.008191
v -0.000714 0.034878 0.001385
v 0.000648 0.030109 0.008191
v -0.000714 -0.007988 0.000704
v 0.029226 0.012415 0.008191
v 0.030591 -0.003908 0.000704
v 0.010858 0.032834 0.000704
v 0.028548 0.002216 0.008191
v 0.030591 0.014458 0.000704
v 0.009499 -0.018881 0.008191
v 0.023783 0.019904 0.008191
v 0.024461 -0.008677 0.000704
v -0.000714 0.030109 0.008191
v -0.000714 0.034878 0.000704
v 0.000648 -0.020929 0.006828
v 0.025146 0.021264 0.001385
v 0.029910 -0.004585 0.002067
v 0.031269 0.002899 0.005468
v 0.003369 0.032152 0.005468
v 0.031953 -0.000504 0.000704
v 0.010858 0.032834 0.001385
v 0.029910 0.015141 0.003427
v 0.008134 -0.019564 0.007510
v -0.000033 -0.014117 0.003427
f 255 258 267 
f 243 244 245 
f 243 245 247 
f 246 244 248 
f 249 247 250 
f 248 244 251 
f 249 250 252 
f 251 244 253 
f 246 248 254 
f 247 249 255 
f 245 244 256 
f 244 246 256 
f 247 245 257 
f 245 250 257 
f 250 247 257 
f 244 243 258 
f 252 250 259 
f 251 253 260 
f 255 249 260 
f 253 255 260 
f 242 248 261 
f 248 251 261 
f 251 260 261 
f 246 254 262 
f 245 256 262 
f 256 246 262 
f 252 242 263 
f 249 252 263 
f 260 249 263 
f 242 261 263 
f 261 260 263 
f 250 245 264 
f 259 250 264 
f 254 259 264 
f 245 262 264 
f 262 254 264 
f 248 242 265 
f 242 252 265 
f 254 248 265 
f 252 259 265 
f 259 254 265 
f 253 244 266 
f 255 253 266 
f 244 258 266 
f 258 255 266 
f 243 247 267 
f 247 255 267 
f 258 243 267 
o convex_6
v 0.004728 -0.033175 0.019765
v -0.019086 -0.001201 0.065359
v -0.019770 -0.001201 0.065359
v 0.005412 0.024663 0.019765
v 0.023106 0.000166 0.061270
v -0.019770 0.006289 0.019765
v 0.023106 -0.007317 0.019765
v -0.005475 0.022622 0.048340
v 0.002008 -0.036577 0.034057
v -0.018406 -0.018202 0.023844
v 0.022422 0.015819 0.034740
v 0.006771 -0.013434 0.061949
v 0.021062 -0.017522 0.040859
v -0.019770 -0.011393 0.060592
v -0.016366 0.019215 0.028616
v 0.004728 0.018540 0.055142
v 0.023106 0.010371 0.019765
v 0.015614 -0.027052 0.023849
v 0.023106 0.006969 0.059913
v 0.010175 0.022622 0.040863
v -0.019770 0.006289 0.059913
v 0.014935 -0.016842 0.054468
v -0.009559 -0.029093 0.022483
v -0.009559 0.022622 0.019765
v -0.019770 -0.010713 0.019765
v -0.002072 0.015819 0.058548
v 0.007451 -0.035896 0.030656
v -0.004795 0.025350 0.036779
v -0.000712 0.002207 0.064671
v 0.016299 0.020581 0.021126
v -0.019770 -0.014121 0.054468
v 0.023106 -0.014801 0.032695
v 0.004048 -0.018202 0.057869
v -0.000032 -0.037263 0.028611
v 0.009491 -0.004602 0.064671
v -0.012963 0.019215 0.046295
v -0.019770 0.014458 0.033378
v -0.015682 -0.022964 0.029290
v 0.018338 -0.020924 0.019765
v 0.023106 -0.004596 0.058552
v 0.005412 0.022622 0.047661
v 0.004728 0.025350 0.033374
v -0.013643 -0.023645 0.019765
v 0.004728 -0.036577 0.022488
v -0.019086 -0.005957 0.064676
v -0.017046 0.015813 0.020443
v 0.023106 0.009690 0.055146
v 0.014935 0.021936 0.030656
v -0.000032 0.006969 0.063315
v 0.016978 -0.020924 0.044939
v -0.004115 0.025350 0.024527
v -0.012283 0.022622 0.029290
v -0.001392 -0.035896 0.032017
v -0.000712 -0.022290 0.052424
v 0.013575 0.019901 0.044939
v 0.005407 -0.035896 0.034057
v 0.023106 0.015139 0.027933
v 0.001328 -0.036577 0.022488
v -0.008199 -0.030454 0.029973
v 0.010175 -0.019563 0.054468
v -0.019770 -0.016161 0.026567
v 0.002688 -0.012760 0.062632
v -0.004795 0.024663 0.042894
v 0.010855 -0.032495 0.032017
f 317 323 331 
f 271 268 273 
f 268 271 274 
f 270 273 281 
f 274 271 284 
f 272 274 284 
f 272 284 286 
f 273 270 288 
f 271 273 291 
f 273 268 292 
f 281 273 292 
f 283 275 293 
f 286 283 293 
f 288 270 293 
f 275 288 293 
f 270 269 296 
f 284 271 297 
f 281 292 298 
f 274 272 299 
f 280 285 299 
f 294 276 301 
f 279 272 302 
f 272 286 302 
f 296 269 302 
f 286 296 302 
f 288 275 303 
f 273 288 304 
f 303 282 304 
f 288 303 304 
f 268 274 306 
f 274 299 306 
f 299 285 306 
f 272 279 307 
f 279 289 307 
f 299 272 307 
f 280 299 307 
f 275 283 308 
f 283 286 308 
f 308 287 309 
f 292 268 310 
f 277 292 310 
f 305 277 310 
f 290 305 310 
f 285 294 311 
f 294 301 311 
f 268 306 311 
f 306 285 311 
f 269 270 312 
f 270 281 312 
f 302 269 312 
f 291 273 313 
f 282 291 313 
f 273 304 313 
f 304 282 313 
f 286 284 314 
f 308 286 314 
f 297 271 315 
f 271 309 315 
f 309 287 315 
f 293 270 316 
f 286 293 316 
f 270 296 316 
f 296 286 316 
f 307 289 317 
f 280 307 317 
f 271 291 318 
f 295 309 318 
f 309 271 318 
f 291 282 319 
f 282 303 319 
f 318 291 319 
f 295 318 319 
f 276 281 320 
f 281 298 320 
f 301 276 320 
f 281 276 321 
f 276 300 321 
f 300 281 321 
f 287 308 322 
f 314 278 322 
f 308 314 322 
f 278 315 322 
f 315 287 322 
f 276 294 323 
f 317 289 323 
f 284 297 324 
f 278 314 324 
f 314 284 324 
f 315 278 324 
f 297 315 324 
f 301 290 325 
f 310 268 325 
f 290 310 325 
f 311 301 325 
f 268 311 325 
f 290 301 326 
f 305 290 326 
f 298 305 326 
f 320 298 326 
f 301 320 326 
f 289 279 327 
f 300 276 327 
f 279 300 327 
f 276 323 327 
f 323 289 327 
f 292 277 328 
f 298 292 328 
f 277 305 328 
f 305 298 328 
f 281 300 329 
f 300 279 329 
f 279 302 329 
f 312 281 329 
f 302 312 329 
f 303 275 330 
f 275 308 330 
f 309 295 330 
f 308 309 330 
f 319 303 330 
f 295 319 330 
f 285 280 331 
f 294 285 331 
f 280 317 331 
f 323 294 331 
o convex_7
v 0.027189 0.010374 0.057864
v 0.023106 -0.013443 0.030657
v 0.023787 -0.013443 0.030657
v 0.023106 0.011054 0.021807
v 0.023106 0.003570 0.061271
v 0.027189 0.001527 0.027251
v 0.027189 -0.006637 0.059229
v 0.027189 0.013097 0.035419
v 0.023106 0.014460 0.032695
v 0.023106 -0.005956 0.057187
v 0.023787 -0.003233 0.019760
v 0.027189 -0.004594 0.031335
v 0.023106 0.010374 0.054462
v 0.027189 0.013778 0.049018
v 0.027189 0.000170 0.063313
v 0.027189 -0.008677 0.054462
v 0.024468 0.007654 0.020447
v 0.023106 -0.013443 0.038139
v 0.023106 -0.009357 0.022489
v 0.025148 -0.007317 0.024531
v 0.025148 -0.001190 0.063313
v 0.026509 -0.007997 0.033377
v 0.025148 0.013097 0.051060
v 0.023787 0.013097 0.024531
v 0.025828 0.009694 0.025209
v 0.025148 -0.006637 0.059229
v 0.026509 0.003570 0.063313
v 0.023787 0.009014 0.058547
v 0.023106 0.008334 0.019760
v 0.025828 -0.003233 0.023849
f 343 351 361 
f 335 333 336 
f 337 332 338 
f 332 337 339 
f 335 336 340 
f 336 333 341 
f 337 338 343 
f 340 336 344 
f 332 339 345 
f 339 340 345 
f 338 332 346 
f 343 338 347 
f 333 334 349 
f 341 333 349 
f 334 347 349 
f 334 333 350 
f 333 335 350 
f 334 350 351 
f 350 342 351 
f 336 341 352 
f 338 346 352 
f 347 334 353 
f 343 347 353 
f 351 343 353 
f 334 351 353 
f 340 344 354 
f 345 340 354 
f 332 345 354 
f 335 340 355 
f 340 339 355 
f 348 335 355 
f 348 355 356 
f 339 337 356 
f 337 348 356 
f 355 339 356 
f 347 338 357 
f 341 349 357 
f 349 347 357 
f 352 341 357 
f 338 352 357 
f 346 332 358 
f 336 352 358 
f 352 346 358 
f 344 336 359 
f 332 354 359 
f 354 344 359 
f 358 332 359 
f 336 358 359 
f 335 348 360 
f 348 342 360 
f 350 335 360 
f 342 350 360 
f 337 343 361 
f 348 337 361 
f 342 348 361 
f 351 342 361 
o convex_8
v 0.029232 0.015141 0.044945
v 0.028551 -0.010040 0.047661
v 0.031954 -0.010040 0.047661
v 0.035360 0.005612 0.065359
v 0.043521 0.009696 0.042904
v 0.027189 0.001530 0.027247
v 0.027189 -0.002552 0.063314
v 0.043521 0.001530 0.061274
v 0.043521 0.011057 0.058550
v 0.037395 0.014458 0.034734
v 0.034679 -0.000511 0.031332
v 0.027189 0.012417 0.055148
v 0.038077 -0.007317 0.057189
v 0.027189 0.012417 0.034055
v 0.042160 0.004251 0.042221
v 0.039437 0.014458 0.053107
v 0.036037 -0.005956 0.061953
v 0.027189 -0.008677 0.054469
v 0.031274 0.011057 0.060595
v 0.040119 0.015141 0.042221
v 0.044884 0.004931 0.053107
v 0.027189 0.004931 0.063314
v 0.033997 0.009013 0.029970
v 0.040119 0.007653 0.036096
v 0.027189 -0.002552 0.032011
v 0.038077 0.012417 0.059912
v 0.034679 -0.009357 0.050384
v 0.032637 -0.008677 0.057871
v 0.044202 0.011737 0.046978
v 0.027189 0.014458 0.049701
v 0.036037 -0.002552 0.063997
v 0.032637 -0.001191 0.029970
v 0.027189 0.009696 0.030653
v 0.027872 -0.005956 0.061274
v 0.027189 0.013778 0.036775
v 0.038077 -0.006636 0.053783
v 0.038758 0.013778 0.035417
v 0.036037 0.015141 0.050384
v 0.031954 -0.010040 0.053783
v 0.033316 0.002210 0.065359
v 0.033316 0.003568 0.029291
v 0.044884 0.008333 0.054469
v 0.031274 0.013778 0.054469
v 0.041479 0.000169 0.062635
v 0.043521 0.006290 0.060595
f 403 370 406 
f 367 368 373 
f 367 373 375 
f 368 367 379 
f 371 362 381 
f 377 370 381 
f 369 374 382 
f 376 366 382 
f 373 368 383 
f 365 380 383 
f 380 373 383 
f 366 376 385 
f 376 372 385 
f 364 363 386 
f 363 379 386 
f 379 367 386 
f 365 370 387 
f 370 377 387 
f 380 365 387 
f 364 372 388 
f 374 378 389 
f 381 370 390 
f 382 366 390 
f 375 373 391 
f 368 378 392 
f 372 364 393 
f 364 386 393 
f 386 367 393 
f 367 375 394 
f 375 371 394 
f 371 384 394 
f 384 367 394 
f 378 368 395 
f 368 379 395 
f 389 378 395 
f 379 389 395 
f 362 371 396 
f 371 375 396 
f 391 362 396 
f 375 391 396 
f 372 376 397 
f 382 374 397 
f 376 382 397 
f 388 372 397 
f 374 388 397 
f 371 381 398 
f 384 371 398 
f 366 385 398 
f 385 384 398 
f 390 366 398 
f 381 390 398 
f 381 362 399 
f 377 381 399 
f 387 377 399 
f 362 391 399 
f 363 364 400 
f 379 363 400 
f 364 388 400 
f 388 374 400 
f 374 389 400 
f 389 379 400 
f 365 383 401 
f 383 368 401 
f 392 365 401 
f 368 392 401 
f 367 384 402 
f 385 372 402 
f 384 385 402 
f 372 393 402 
f 393 367 402 
f 369 382 403 
f 390 370 403 
f 382 390 403 
f 373 380 404 
f 380 387 404 
f 391 373 404 
f 387 399 404 
f 399 391 404 
f 369 365 405 
f 374 369 405 
f 378 374 405 
f 365 392 405 
f 392 378 405 
f 365 369 406 
f 370 365 406 
f 369 403 406 
o convex_9
v -0.009561 -0.023654 -0.007468
v -0.015687 -0.039303 -0.033322
v -0.015006 -0.039303 -0.033322
v -0.011604 -0.020929 -0.038766
v -0.015687 -0.020929 -0.006788
v -0.009561 -0.036580 -0.019714
v -0.015687 -0.020929 -0.038766
v -0.009561 -0.020929 -0.034680
v -0.015687 -0.030456 -0.014270
v -0.009561 -0.031816 -0.029919
v -0.009561 -0.020929 -0.006788
v -0.015006 -0.034539 -0.037404
v -0.010923 -0.028418 -0.010188
v -0.010243 -0.025016 -0.036042
v -0.015687 -0.038621 -0.029919
v -0.015687 -0.030456 -0.038766
v -0.009561 -0.035900 -0.024475
v -0.013644 -0.033177 -0.016314
v -0.012963 -0.031816 -0.036722
v -0.015006 -0.022293 -0.006788
f 415 419 426 
f 408 409 412 
f 411 410 413 
f 408 411 413 
f 410 411 414 
f 407 412 414 
f 411 408 415 
f 414 412 416 
f 407 414 417 
f 414 411 417 
f 409 408 418 
f 412 407 419 
f 410 414 420 
f 414 416 420 
f 408 412 421 
f 415 408 421 
f 408 413 422 
f 413 410 422 
f 418 408 422 
f 410 418 422 
f 412 409 423 
f 409 416 423 
f 416 412 423 
f 412 419 424 
f 419 415 424 
f 421 412 424 
f 415 421 424 
f 416 409 425 
f 409 418 425 
f 418 410 425 
f 410 420 425 
f 420 416 425 
f 411 415 426 
f 407 417 426 
f 417 411 426 
f 419 407 426 
o convex_10
v -0.002075 -0.020929 -0.010186
v -0.008199 -0.037262 -0.021753
v -0.007519 -0.037262 -0.021753
v -0.007519 -0.020929 -0.029921
v -0.009561 -0.020929 -0.006782
v -0.000714 -0.029775 -0.029921
v -0.000714 -0.030456 -0.013588
v -0.009561 -0.031816 -0.029921
v -0.000714 -0.020929 -0.028559
v -0.009561 -0.031135 -0.012229
v -0.009561 -0.020929 -0.029921
v -0.004118 -0.029096 -0.010186
v -0.001395 -0.033177 -0.016311
v -0.000714 -0.022973 -0.010867
v -0.009561 -0.035218 -0.016992
v -0.000714 -0.025014 -0.030602
v -0.004118 -0.034539 -0.015631
v -0.003438 -0.035218 -0.021073
v -0.002756 -0.023654 -0.008824
v -0.006158 -0.033858 -0.027879
v -0.009561 -0.029775 -0.030602
v -0.009561 -0.035899 -0.025155
f 434 446 448 
f 427 430 431 
f 430 427 435 
f 433 432 435 
f 431 434 436 
f 431 430 437 
f 434 431 437 
f 431 436 438 
f 432 433 439 
f 435 427 440 
f 433 435 440 
f 428 429 441 
f 436 434 441 
f 430 435 442 
f 435 432 442 
f 437 430 442 
f 433 438 443 
f 438 436 443 
f 439 433 443 
f 441 429 443 
f 436 441 443 
f 432 439 444 
f 443 429 444 
f 439 443 444 
f 427 431 445 
f 431 438 445 
f 438 433 445 
f 440 427 445 
f 433 440 445 
f 434 432 446 
f 444 429 446 
f 432 444 446 
f 432 434 447 
f 434 437 447 
f 442 432 447 
f 437 442 447 
f 429 428 448 
f 428 441 448 
f 441 434 448 
f 446 429 448 
o convex_11
v -0.004117 0.049160 -0.025838
v -0.042910 -0.020929 -0.020398
v -0.042224 -0.020929 -0.036045
v -0.000718 -0.020916 -0.014951
v -0.029296 0.035554 -0.013588
v -0.000718 0.014455 -0.038769
v -0.037462 0.017858 -0.036045
v -0.000714 0.046443 -0.013588
v -0.010924 -0.020916 -0.038769
v -0.040184 -0.020929 -0.013588
v -0.001396 0.039636 -0.038769
v -0.027933 0.025344 -0.038769
v -0.027933 0.035554 -0.031281
v -0.000718 -0.020916 -0.027879
v -0.039506 -0.020929 -0.038769
v -0.038143 0.017858 -0.023800
v -0.001396 -0.020916 -0.013588
v -0.010924 0.045077 -0.034004
v -0.028614 0.038278 -0.018352
v -0.042910 -0.020243 -0.015631
v -0.039506 0.011059 -0.034682
v -0.000714 0.047122 -0.031961
v -0.015691 0.045077 -0.019035
v -0.032699 0.032830 -0.025160
v -0.017731 0.044398 -0.026518
v -0.038143 0.013103 -0.037406
v -0.011606 0.041674 -0.036725
v -0.004799 0.047122 -0.014270
v -0.037462 0.021261 -0.032641
v -0.022489 0.040316 -0.013588
v -0.031336 0.028068 -0.035362
v -0.008884 0.048481 -0.024477
v -0.042224 -0.018205 -0.036725
v -0.035421 0.011745 -0.038769
v -0.033381 0.031471 -0.021759
v -0.001396 0.049160 -0.021759
v -0.007521 0.040995 -0.038086
v -0.029977 0.036233 -0.025160
v -0.033381 0.028747 -0.031961
v -0.008202 -0.012751 -0.038769
v -0.029977 0.034875 -0.014270
v -0.008884 0.047122 -0.031281
v -0.041547 -0.020243 -0.038086
v -0.000714 0.037599 -0.038769
v -0.042224 -0.015481 -0.034004
v -0.002077 0.047122 -0.032641
v -0.027933 0.032151 -0.034682
v -0.029296 0.026023 -0.038086
v -0.007521 0.048481 -0.021076
v -0.025211 0.039630 -0.026518
v -0.001396 0.049160 -0.027879
v -0.031336 0.035554 -0.020398
v -0.013646 0.044398 -0.014270
f 476 497 501 
f 450 451 458 
f 456 453 458 
f 454 457 459 
f 459 457 460 
f 458 451 463 
f 452 458 463 
f 460 457 463 
f 462 452 463 
f 457 462 463 
f 452 456 465 
f 458 452 465 
f 456 458 465 
f 450 458 468 
f 458 453 468 
f 468 464 469 
f 467 471 473 
f 469 455 474 
f 469 464 477 
f 455 469 477 
f 453 456 478 
f 467 453 478 
f 471 467 478 
f 456 476 478 
f 473 471 480 
f 451 450 481 
f 469 474 481 
f 460 463 482 
f 474 460 482 
f 477 464 483 
f 472 477 483 
f 456 470 484 
f 476 456 484 
f 459 460 485 
f 460 475 485 
f 475 466 485 
f 455 477 487 
f 477 472 487 
f 479 455 487 
f 461 479 487 
f 486 461 487 
f 472 486 487 
f 457 454 488 
f 454 462 488 
f 462 457 488 
f 468 453 489 
f 464 468 489 
f 483 464 489 
f 466 473 490 
f 480 449 490 
f 473 480 490 
f 463 451 491 
f 451 481 491 
f 481 474 491 
f 482 463 491 
f 474 482 491 
f 456 452 492 
f 454 459 492 
f 452 462 492 
f 462 454 492 
f 470 456 492 
f 459 470 492 
f 450 468 493 
f 468 469 493 
f 481 450 493 
f 469 481 493 
f 470 459 494 
f 459 485 494 
f 485 466 494 
f 466 490 494 
f 461 466 495 
f 466 475 495 
f 479 461 495 
f 479 495 496 
f 474 455 496 
f 460 474 496 
f 475 460 496 
f 455 479 496 
f 495 475 496 
f 449 480 497 
f 480 471 497 
f 484 449 497 
f 476 484 497 
f 466 461 498 
f 473 466 498 
f 467 473 498 
f 461 486 498 
f 486 467 498 
f 449 484 499 
f 484 470 499 
f 490 449 499 
f 470 494 499 
f 494 490 499 
f 453 467 500 
f 472 483 500 
f 486 472 500 
f 467 486 500 
f 489 453 500 
f 483 489 500 
f 471 478 501 
f 478 476 501 
f 497 471 501 
o convex_12
v -0.000714 0.044402 -0.010184
v -0.036104 0.000856 -0.006102
v -0.035421 -0.001187 -0.011545
v -0.002079 -0.020929 -0.009504
v -0.000714 0.038278 -0.003379
v -0.025891 0.038278 -0.013588
v -0.001396 -0.020929 -0.013588
v -0.019091 -0.014799 -0.003379
v -0.027253 -0.020929 -0.013588
v -0.027253 0.023302 -0.003379
v -0.000714 -0.010719 -0.003379
v -0.000714 0.045767 -0.013588
v -0.032699 -0.007996 -0.003379
v -0.029976 0.032827 -0.013588
v -0.027253 0.033513 -0.008144
v -0.035421 0.007659 -0.003379
v -0.021814 -0.020929 -0.007464
v -0.033378 -0.010712 -0.013588
v -0.007521 0.041001 -0.006102
v -0.008882 -0.020929 -0.006102
v -0.014328 0.043038 -0.012225
v -0.000714 -0.014114 -0.013588
v -0.006842 0.037593 -0.003379
v -0.033378 -0.010033 -0.006783
v -0.029976 -0.012077 -0.004061
v -0.025891 0.027382 -0.004061
v -0.022493 0.038951 -0.010864
v -0.034060 0.000171 -0.013588
v -0.004798 0.045767 -0.012906
v -0.034060 0.011740 -0.003379
v -0.029293 0.034870 -0.012906
v -0.034742 -0.003909 -0.003379
v -0.035421 0.005622 -0.007464
v -0.028614 -0.016843 -0.008144
v -0.030658 -0.016843 -0.012906
v -0.035421 -0.003909 -0.006783
v -0.002079 -0.012077 -0.003379
v -0.021132 -0.019565 -0.006102
v -0.003437 0.042359 -0.006783
f 530 520 540 
f 507 508 510 
f 508 505 510 
f 509 506 511 
f 502 506 512 
f 505 508 512 
f 506 509 512 
f 508 507 513 
f 502 512 513 
f 509 511 514 
f 507 510 515 
f 514 511 517 
f 510 505 518 
f 515 510 519 
f 518 505 521 
f 512 508 523 
f 508 513 523 
f 513 512 523 
f 511 506 524 
f 520 516 524 
f 509 514 526 
f 514 525 526 
f 511 524 527 
f 524 516 527 
f 507 516 528 
f 516 520 528 
f 522 507 528 
f 520 522 528 
f 504 515 529 
f 519 504 529 
f 515 519 529 
f 502 513 530 
f 513 507 530 
f 507 522 530 
f 522 520 530 
f 517 511 531 
f 527 516 531 
f 511 527 531 
f 507 515 532 
f 516 507 532 
f 515 517 532 
f 531 516 532 
f 517 531 532 
f 517 503 533 
f 514 517 533 
f 525 514 533 
f 504 503 534 
f 515 504 534 
f 517 515 534 
f 503 517 534 
f 510 518 535 
f 518 526 535 
f 526 525 535 
f 519 510 536 
f 525 519 536 
f 510 535 536 
f 535 525 536 
f 503 504 537 
f 504 519 537 
f 519 525 537 
f 533 503 537 
f 525 533 537 
f 505 512 538 
f 512 509 538 
f 521 505 538 
f 509 521 538 
f 521 509 539 
f 518 521 539 
f 509 526 539 
f 526 518 539 
f 506 502 540 
f 524 506 540 
f 520 524 540 
f 502 530 540 
o convex_13
v 0.024464 -0.014124 -0.004061
v 0.011537 -0.016166 -0.039449
v 0.011537 -0.014124 -0.039449
v 0.042162 -0.018206 -0.035364
v -0.000714 -0.020929 -0.014953
v 0.040118 -0.020929 -0.010186
v 0.012221 -0.020929 -0.039449
v 0.041478 -0.014124 -0.032639
v -0.000714 -0.014124 -0.016997
v 0.038758 -0.020929 -0.039449
v -0.000030 -0.020929 -0.029920
v 0.014261 -0.020929 -0.008827
v 0.036035 -0.014124 -0.039449
v 0.014941 -0.014124 -0.004742
v -0.000714 -0.014124 -0.025157
v 0.027867 -0.014124 -0.006105
v 0.021740 -0.014805 -0.003379
v 0.042162 -0.020929 -0.035364
v 0.040798 -0.020248 -0.011549
v 0.009497 -0.014805 -0.038764
v 0.041478 -0.015486 -0.036724
v 0.040798 -0.014124 -0.029920
v 0.010177 -0.014124 -0.007464
v -0.000714 -0.018887 -0.028557
v 0.010857 -0.020929 -0.009505
v 0.033995 -0.020929 -0.009505
f 557 552 566 
f 546 545 547 
f 542 543 547 
f 543 541 548 
f 541 543 549 
f 546 547 550 
f 547 543 550 
f 547 545 551 
f 545 546 552 
f 543 548 553 
f 550 543 553 
f 541 549 554 
f 549 543 555 
f 545 549 555 
f 541 546 556 
f 548 541 556 
f 546 541 557 
f 541 554 557 
f 546 550 558 
f 544 548 559 
f 556 546 559 
f 558 544 559 
f 546 558 559 
f 543 542 560 
f 542 547 560 
f 547 551 560 
f 555 543 560 
f 548 544 561 
f 553 548 561 
f 550 553 561 
f 544 558 561 
f 558 550 561 
f 548 556 562 
f 559 548 562 
f 556 559 562 
f 549 545 563 
f 554 549 563 
f 545 554 563 
f 551 545 564 
f 545 555 564 
f 560 551 564 
f 555 560 564 
f 545 552 565 
f 554 545 565 
f 552 557 565 
f 557 554 565 
f 552 546 566 
f 546 557 566 
o convex_14
v -0.023855 0.009696 0.054467
v -0.024536 -0.013443 0.053781
v -0.023855 -0.013443 0.053781
v -0.023855 0.001529 0.026566
v -0.038825 0.013098 0.051741
v -0.035422 0.000169 0.037458
v -0.034740 -0.001191 0.064677
v -0.030661 0.014458 0.038817
v -0.023855 0.001529 0.066036
v -0.027258 -0.006636 0.032014
v -0.027258 -0.012081 0.063995
v -0.034740 0.009013 0.036099
v -0.033380 0.007654 0.062632
v -0.027939 0.013098 0.054467
v -0.036782 0.000169 0.055148
v -0.030661 0.000169 0.068762
v -0.023855 0.009696 0.042220
v -0.032019 -0.007316 0.057184
v -0.023855 -0.010038 0.064677
v -0.027258 0.002889 0.027248
v -0.023855 -0.005276 0.029292
v -0.038143 0.006291 0.042906
v -0.025216 0.007654 0.062632
v -0.037463 0.006291 0.060588
v -0.028619 0.014458 0.039502
v -0.032019 0.015141 0.049704
v -0.027258 -0.012081 0.055148
v -0.029299 0.009696 0.032014
v -0.031339 0.001529 0.030651
v -0.036102 0.012419 0.040861
v -0.028619 -0.003913 0.068762
v -0.023855 0.005611 0.030651
v -0.038143 0.013098 0.053781
v -0.027258 -0.007998 0.035417
v -0.025898 -0.000511 0.026566
v -0.024536 -0.005956 0.067395
v -0.025898 0.012419 0.052422
v -0.034740 0.013778 0.040861
v -0.025216 -0.007998 0.034054
v -0.032699 0.012419 0.036099
v -0.036782 0.004931 0.038817
v -0.023855 -0.013443 0.059229
v -0.037463 0.004931 0.060588
v -0.036782 0.008333 0.060588
v -0.026578 0.004931 0.065354
f 589 579 611 
f 567 569 570 
f 569 567 575 
f 567 570 583 
f 577 573 584 
f 581 572 584 
f 573 581 584 
f 569 575 585 
f 570 569 587 
f 572 581 588 
f 575 567 589 
f 580 579 589 
f 573 582 590 
f 591 574 592 
f 568 577 593 
f 584 572 593 
f 577 584 593 
f 570 586 594 
f 586 578 594 
f 574 591 594 
f 576 572 595 
f 578 586 595 
f 588 571 596 
f 573 577 597 
f 582 573 597 
f 575 582 597 
f 583 570 598 
f 591 583 598 
f 570 594 598 
f 594 591 598 
f 579 580 599 
f 571 590 599 
f 592 571 599 
f 580 592 599 
f 572 576 600 
f 568 593 600 
f 593 572 600 
f 586 570 601 
f 570 587 601 
f 587 576 601 
f 576 595 601 
f 595 586 601 
f 585 575 602 
f 577 585 602 
f 597 577 602 
f 575 597 602 
f 567 583 603 
f 589 567 603 
f 580 589 603 
f 583 591 603 
f 592 580 603 
f 591 592 603 
f 571 592 604 
f 592 574 604 
f 596 571 604 
f 569 568 605 
f 587 569 605 
f 576 587 605 
f 568 600 605 
f 600 576 605 
f 574 594 606 
f 594 578 606 
f 578 596 606 
f 604 574 606 
f 596 604 606 
f 572 588 607 
f 595 572 607 
f 578 595 607 
f 588 596 607 
f 596 578 607 
f 568 569 608 
f 577 568 608 
f 569 585 608 
f 585 577 608 
f 581 573 609 
f 571 588 609 
f 588 581 609 
f 590 571 609 
f 573 590 609 
f 582 579 610 
f 590 582 610 
f 579 599 610 
f 599 590 610 
f 582 575 611 
f 579 582 611 
f 575 589 611 
o convex_15
v -0.022492 0.008333 0.057868
v -0.020451 -0.015485 0.032019
v -0.020451 -0.014802 0.027252
v -0.023853 -0.014122 0.053101
v -0.023853 0.001529 0.027252
v -0.019770 0.011056 0.025212
v -0.019770 -0.005955 0.065350
v -0.023853 0.002209 0.066030
v -0.019770 0.006292 0.059908
v -0.019770 -0.007995 0.019765
v -0.023853 0.009695 0.048340
v -0.019770 -0.014122 0.057187
v -0.023853 -0.008678 0.029973
v -0.023853 -0.010039 0.064670
v -0.019770 0.012419 0.036780
v -0.020451 0.004249 0.019765
v -0.021132 0.010376 0.025892
v -0.021132 -0.005955 0.020450
v -0.019770 -0.014122 0.024531
v -0.019770 0.000166 0.065350
v -0.023853 0.008333 0.038821
v -0.023853 -0.014122 0.057868
v -0.023853 0.008333 0.058548
v -0.020451 0.012419 0.029973
v -0.023173 -0.002552 0.066715
v -0.023173 -0.007315 0.025892
v -0.020451 -0.014122 0.024531
v -0.023173 0.005612 0.063310
f 634 619 639 
f 614 613 615 
f 616 615 619 
f 618 617 620 
f 617 618 621 
f 616 619 622 
f 621 618 623 
f 614 615 624 
f 615 616 624 
f 619 615 625 
f 623 618 625 
f 612 620 626 
f 620 617 626 
f 617 621 627 
f 627 616 628 
f 617 627 628 
f 616 627 629 
f 627 621 629 
f 613 614 630 
f 623 613 630 
f 621 623 630 
f 618 620 631 
f 616 622 632 
f 628 616 632 
f 615 613 633 
f 613 623 633 
f 625 615 633 
f 623 625 633 
f 622 619 634 
f 612 626 634 
f 626 622 634 
f 626 617 635 
f 622 626 635 
f 617 628 635 
f 632 622 635 
f 628 632 635 
f 619 625 636 
f 625 618 636 
f 618 631 636 
f 631 619 636 
f 624 616 637 
f 616 629 637 
f 614 624 638 
f 629 621 638 
f 630 614 638 
f 621 630 638 
f 624 637 638 
f 637 629 638 
f 620 612 639 
f 619 631 639 
f 631 620 639 
f 612 634 639 
o convex_16
v 0.027868 0.036914 -0.023118
v -0.000714 -0.014111 -0.025160
v 0.009496 -0.014111 -0.038084
v -0.000714 0.040314 -0.038084
v 0.040118 -0.014124 -0.038084
v 0.029227 -0.014124 -0.018354
v -0.000714 0.047796 -0.018354
v 0.036034 0.007660 -0.039447
v -0.000714 -0.014111 -0.018354
v 0.029908 0.032149 -0.018354
v 0.010178 0.047120 -0.033323
v 0.041481 -0.011394 -0.031280
v -0.000714 0.014466 -0.038766
v 0.034675 0.021260 -0.032641
v 0.012218 0.046444 -0.018354
v 0.012900 -0.014124 -0.039447
v 0.010855 0.041673 -0.037405
v 0.038755 0.012419 -0.030599
v 0.033312 0.016501 -0.019717
v 0.000649 0.049844 -0.027881
v 0.002012 0.039631 -0.038766
v 0.029227 0.027390 -0.034002
v -0.000714 -0.008670 -0.030599
v 0.039437 -0.014124 -0.027881
v 0.039437 0.006301 -0.036044
v 0.033993 -0.014124 -0.039447
v 0.009496 0.015149 -0.039447
v 0.030590 0.032149 -0.027881
v 0.037397 0.014460 -0.025841
v 0.012900 0.047126 -0.025160
v 0.026505 0.038273 -0.018354
v 0.030590 0.034196 -0.022438
v 0.004052 0.049844 -0.023118
v 0.031953 0.011054 -0.018354
v 0.002012 0.046438 -0.034002
v 0.009496 0.036914 -0.038766
v 0.009496 -0.013435 -0.038766
v -0.000714 0.048479 -0.029238
v 0.034675 0.024660 -0.025841
v 0.017666 0.019219 -0.039447
v 0.041481 -0.014124 -0.034002
v 0.008133 -0.004587 -0.039447
v -0.000714 0.037590 -0.038766
v 0.040118 0.004254 -0.034683
v 0.000649 0.049161 -0.019717
v 0.038078 0.004254 -0.038766
v 0.029908 0.021260 -0.036724
v 0.033993 0.026025 -0.027881
v 0.029908 0.034196 -0.019035
v 0.038755 0.012419 -0.029238
f 683 657 689 
f 643 641 646 
f 646 641 648 
f 645 646 648 
f 646 645 649 
f 641 643 652 
f 646 649 654 
f 641 642 655 
f 644 645 655 
f 648 641 655 
f 645 648 655 
f 653 647 661 
f 656 650 661 
f 641 652 662 
f 645 644 663 
f 647 653 664 
f 653 657 664 
f 647 644 665 
f 644 655 665 
f 655 647 665 
f 647 655 666 
f 650 640 667 
f 661 650 667 
f 653 661 667 
f 649 658 668 
f 663 651 668 
f 658 663 668 
f 640 650 669 
f 654 649 670 
f 640 669 670 
f 669 654 670 
f 667 640 671 
f 640 670 671 
f 650 659 672 
f 669 650 672 
f 654 669 672 
f 649 645 673 
f 658 649 673 
f 645 663 673 
f 663 658 673 
f 650 656 674 
f 659 650 674 
f 660 643 674 
f 656 660 674 
f 656 647 675 
f 660 656 675 
f 642 641 676 
f 655 642 676 
f 641 662 676 
f 662 652 676 
f 643 646 677 
f 646 659 677 
f 674 643 677 
f 659 674 677 
f 647 666 679 
f 666 660 679 
f 675 647 679 
f 660 675 679 
f 663 644 680 
f 651 663 680 
f 666 655 681 
f 655 676 681 
f 676 652 681 
f 652 643 682 
f 643 660 682 
f 660 666 682 
f 666 681 682 
f 681 652 682 
f 644 664 683 
f 664 657 683 
f 680 644 683 
f 651 680 683 
f 646 654 684 
f 659 646 684 
f 654 672 684 
f 672 659 684 
f 644 647 685 
f 664 644 685 
f 647 664 685 
f 647 656 686 
f 661 647 686 
f 656 661 686 
f 657 653 687 
f 653 667 687 
f 667 671 687 
f 678 657 687 
f 671 678 687 
f 649 668 688 
f 670 649 688 
f 671 670 688 
f 668 678 688 
f 678 671 688 
f 668 651 689 
f 657 678 689 
f 678 668 689 
f 651 683 689 
o convex_17
v 0.015624 0.037594 -0.005423
v -0.000714 -0.014124 -0.018352
v 0.029228 -0.014124 -0.018352
v 0.021064 -0.009359 0.000704
v 0.029228 0.034872 -0.018352
v -0.000714 0.043043 -0.008145
v -0.000714 -0.008674 0.000704
v 0.031952 0.010380 0.000703
v -0.000031 0.047808 -0.018352
v -0.000714 0.035557 0.000704
v 0.027186 -0.014124 -0.004740
v 0.032632 -0.004594 -0.010864
v 0.016300 0.043722 -0.014267
v 0.025144 0.021262 0.000704
v 0.031952 -0.001872 0.000703
v 0.026506 0.035557 -0.012224
v -0.000714 -0.013433 -0.008145
v 0.009495 0.036236 -0.000657
v 0.033315 0.003572 -0.004742
v 0.021064 -0.014124 -0.002700
v 0.030590 0.022620 -0.018352
v 0.012899 0.045765 -0.018352
v 0.030590 -0.011396 -0.007464
v 0.006774 0.043722 -0.009503
v -0.000714 0.047117 -0.018352
v 0.030590 -0.003230 -0.018352
v 0.027186 -0.008674 0.000704
v 0.030590 0.014466 0.000704
v 0.024464 0.039636 -0.017671
v 0.017663 0.042358 -0.012224
v -0.000714 -0.010717 -0.001338
v 0.010858 0.033514 0.000704
v 0.028548 0.034193 -0.013588
v 0.001331 0.047808 -0.016990
v 0.032632 -0.005952 -0.006783
v 0.002011 0.039630 -0.003381
v 0.010175 0.040315 -0.005423
v 0.019022 0.038958 -0.008824
v -0.000031 -0.014124 -0.010864
v 0.029910 -0.014124 -0.014947
v 0.032632 0.008337 -0.001338
v 0.031952 -0.007310 -0.013588
v 0.029910 -0.009359 -0.002700
v 0.010175 0.046438 -0.016990
v 0.032632 0.001535 0.000703
v 0.025144 0.038272 -0.014267
f 727 705 735 
f 692 691 694 
f 695 691 696 
f 694 691 698 
f 696 693 699 
f 695 696 699 
f 691 692 700 
f 699 693 703 
f 696 691 706 
f 693 696 709 
f 691 700 709 
f 692 694 710 
f 694 708 710 
f 708 701 710 
f 694 698 711 
f 691 695 714 
f 698 691 714 
f 695 698 714 
f 692 710 715 
f 703 693 716 
f 693 709 716 
f 709 700 716 
f 705 703 717 
f 703 716 717 
f 694 711 718 
f 711 702 718 
f 702 713 719 
f 718 702 719 
f 696 706 720 
f 709 696 720 
f 706 709 720 
f 703 690 721 
f 699 703 721 
f 707 699 721 
f 690 707 721 
f 697 694 722 
f 717 697 722 
f 705 717 722 
f 698 695 723 
f 695 713 723 
f 701 708 724 
f 704 712 724 
f 695 699 725 
f 699 707 725 
f 713 695 725 
f 713 725 726 
f 707 690 726 
f 719 713 726 
f 725 707 726 
f 719 726 727 
f 690 703 727 
f 703 705 727 
f 726 690 727 
f 706 691 728 
f 691 709 728 
f 709 706 728 
f 700 692 729 
f 712 700 729 
f 724 712 729 
f 694 697 730 
f 708 694 730 
f 710 701 731 
f 692 715 731 
f 715 710 731 
f 701 724 731 
f 729 692 731 
f 724 729 731 
f 700 712 732 
f 712 704 732 
f 716 700 732 
f 704 716 732 
f 711 698 733 
f 702 711 733 
f 713 702 733 
f 698 723 733 
f 723 713 733 
f 716 704 734 
f 697 717 734 
f 717 716 734 
f 724 708 734 
f 704 724 734 
f 730 697 734 
f 708 730 734 
f 694 718 735 
f 718 719 735 
f 722 694 735 
f 705 722 735 
f 719 727 735 
