o convex_0
v -0.004473 -0.044418 0.052445
v -0.004473 -0.068844 0.002798
v -0.006838 -0.068052 0.002798
v 0.011284 -0.045205 0.004378
v 0.013649 -0.053085 0.042988
v -0.008415 -0.045994 0.005165
v 0.013649 -0.067265 0.003590
v 0.014438 -0.042053 0.051652
v -0.007625 -0.042053 0.043775
v -0.003686 -0.068052 0.011468
v -0.002898 -0.042053 0.010681
v -0.006050 -0.050723 0.046924
v 0.012861 -0.047570 0.002798
v 0.011284 -0.068844 0.009106
v -0.008415 -0.065689 0.006739
v 0.012074 -0.042053 0.016988
v 0.012074 -0.050723 0.048503
v -0.006838 -0.045994 0.002798
v -0.002109 -0.050723 0.048503
v -0.006838 -0.042053 0.050865
v 0.012074 -0.068844 0.002798
v -0.006838 -0.042053 0.015409
v 0.012074 -0.045994 0.052445
v -0.007625 -0.066475 0.011468
v -0.007625 -0.053875 0.035100
v 0.014438 -0.042053 0.043775
v 0.011284 -0.054661 0.040616
v 0.014438 -0.050723 0.045349
v 0.013649 -0.067265 0.009893
v -0.008415 -0.050723 0.020137
v -0.008415 -0.065689 0.002798
v 0.008132 -0.042053 0.011468
v 0.013649 -0.063323 0.002798
v 0.011284 -0.068052 0.011468
v -0.003686 -0.053085 0.043775
v -0.003686 -0.048357 0.050865
v 0.014438 -0.053875 0.033526
v -0.006838 -0.047570 0.049291
v -0.005261 -0.042053 0.052445
v -0.004473 -0.068844 0.008319
f 10 24 40 
f 9 8 11 
f 2 3 13 
f 11 8 16 
f 13 4 16 
f 11 4 18 
f 13 3 18 
f 4 13 18 
f 8 9 20 
f 2 13 21 
f 14 2 21 
f 6 9 22 
f 9 11 22 
f 18 6 22 
f 11 18 22 
f 10 12 24 
f 15 3 24 
f 15 24 25 
f 24 12 25 
f 16 8 26 
f 13 16 26 
f 5 17 27 
f 17 5 28 
f 8 23 28 
f 23 17 28 
f 26 8 28 
f 21 7 29 
f 14 21 29 
f 28 5 29 
f 9 6 30 
f 6 15 30 
f 15 25 30 
f 25 9 30 
f 3 15 31 
f 15 6 31 
f 18 3 31 
f 6 18 31 
f 4 11 32 
f 16 4 32 
f 11 16 32 
f 21 13 33 
f 7 21 33 
f 13 26 33 
f 10 14 34 
f 5 27 34 
f 27 10 34 
f 29 5 34 
f 14 29 34 
f 12 10 35 
f 19 12 35 
f 17 19 35 
f 10 27 35 
f 27 17 35 
f 12 19 36 
f 19 17 36 
f 23 1 36 
f 17 23 36 
f 26 28 37 
f 29 7 37 
f 28 29 37 
f 7 33 37 
f 33 26 37 
f 20 9 38 
f 9 25 38 
f 25 12 38 
f 36 1 38 
f 12 36 38 
f 8 20 39 
f 1 23 39 
f 23 8 39 
f 38 1 39 
f 20 38 39 
f 3 2 40 
f 2 14 40 
f 14 10 40 
f 24 3 40 
o convex_1
v 0.015224 0.036747 0.018558
v -0.015507 0.035174 0.013831
v -0.015507 0.035174 0.015404
v 0.010497 -0.012893 0.020135
v 0.011283 -0.005787 0.002798
v 0.008920 0.061183 0.002798
v -0.009987 0.059602 0.025651
v -0.009987 -0.005787 0.002798
v -0.009201 -0.008158 0.025651
v 0.010497 0.060392 0.025651
v -0.011564 0.059602 0.002798
v 0.012073 -0.008158 0.025651
v 0.016013 0.009969 0.013046
v -0.004474 -0.012893 0.013046
v -0.014717 0.013914 0.018558
v 0.014437 0.042265 0.010679
v -0.014717 0.040692 0.020920
v -0.014717 0.013914 0.010679
v -0.003687 -0.012893 0.024862
v 0.011283 0.032810 0.002798
v -0.012354 0.057238 0.002798
v -0.009987 -0.008158 0.005165
v 0.007346 -0.012893 0.012256
v 0.004193 0.061183 0.023287
v 0.015224 0.010760 0.020135
v -0.015507 0.042265 0.016191
v -0.010777 0.058812 0.025651
v -0.002110 0.061183 0.002798
v 0.015224 0.023369 0.009892
v 0.015224 0.041475 0.013831
v -0.006834 -0.008948 0.004375
v 0.009710 0.060392 0.002798
v 0.011283 -0.008158 0.005165
v -0.014717 0.010760 0.015404
v 0.012073 0.028082 0.025651
v -0.012354 0.028082 0.024074
v -0.011564 0.019425 0.002798
v -0.006047 -0.012893 0.020135
v -0.007624 0.060392 0.025651
v 0.007346 -0.012893 0.024862
v -0.015507 0.039111 0.012256
v -0.013141 0.016278 0.022495
v 0.008920 -0.007375 0.002798
v 0.012073 -0.003430 0.003588
v 0.016013 0.022579 0.017770
v 0.014437 0.035964 0.020920
v 0.012073 -0.006584 0.007527
v 0.010497 0.060392 0.016191
v -0.011564 0.057238 0.024074
v -0.009987 0.060392 0.003588
v 0.015224 0.033600 0.010679
v -0.010777 0.019425 0.025651
v 0.016013 0.009969 0.016978
v 0.008133 0.061183 0.025651
v 0.016013 0.022579 0.012256
v -0.009987 -0.008158 0.010679
f 62 78 96 
f 46 45 48 
f 47 49 50 
f 46 48 51 
f 50 49 52 
f 52 49 59 
f 54 44 59 
f 45 46 60 
f 51 48 61 
f 58 48 62 
f 44 54 63 
f 42 43 66 
f 43 55 66 
f 55 57 66 
f 49 47 67 
f 47 51 67 
f 46 51 68 
f 64 46 68 
f 50 41 70 
f 62 48 71 
f 54 62 71 
f 63 54 71 
f 60 46 72 
f 70 56 72 
f 44 63 73 
f 43 42 74 
f 55 43 74 
f 49 55 74 
f 42 58 74 
f 58 62 74 
f 50 52 75 
f 52 65 75 
f 67 57 76 
f 48 58 77 
f 61 48 77 
f 58 61 77 
f 59 49 78 
f 54 59 78 
f 62 54 78 
f 47 50 79 
f 64 68 79 
f 44 52 80 
f 59 44 80 
f 52 59 80 
f 58 42 81 
f 61 58 81 
f 42 66 81 
f 66 61 81 
f 55 49 82 
f 57 55 82 
f 76 57 82 
f 48 45 83 
f 71 48 83 
f 63 71 83 
f 45 73 83 
f 73 63 83 
f 45 60 84 
f 69 53 84 
f 60 69 84 
f 73 45 84 
f 70 41 85 
f 41 50 86 
f 50 75 86 
f 75 65 86 
f 85 41 86 
f 65 85 86 
f 52 44 87 
f 53 52 87 
f 44 73 87 
f 84 53 87 
f 73 84 87 
f 46 50 88 
f 50 70 88 
f 72 46 88 
f 70 72 88 
f 51 61 89 
f 66 57 89 
f 61 66 89 
f 67 51 89 
f 57 67 89 
f 51 47 90 
f 68 51 90 
f 47 79 90 
f 79 68 90 
f 69 60 91 
f 56 70 91 
f 60 72 91 
f 72 56 91 
f 49 67 92 
f 67 76 92 
f 82 49 92 
f 76 82 92 
f 52 53 93 
f 65 52 93 
f 85 65 93 
f 53 85 93 
f 50 46 94 
f 46 64 94 
f 79 50 94 
f 64 79 94 
f 53 69 95 
f 85 53 95 
f 70 85 95 
f 69 91 95 
f 91 70 95 
f 49 74 96 
f 74 62 96 
f 78 49 96 
o convex_2
v -0.006836 -0.016833 0.034326
v 0.008131 0.059593 0.070569
v 0.010496 0.060387 0.069778
v -0.009990 0.059593 0.025651
v 0.012861 -0.006579 0.027230
v -0.006838 -0.005008 0.068991
v 0.013650 -0.008150 0.067417
v 0.010496 0.060387 0.025651
v -0.009990 0.060387 0.066625
v -0.009201 -0.008944 0.025651
v 0.011285 0.064315 0.045354
v 0.013648 -0.016833 0.053224
v -0.007625 -0.011309 0.062677
v -0.007625 0.065109 0.060325
v -0.010779 0.021008 0.026443
v 0.013650 0.013119 0.068991
v 0.010496 -0.009738 0.025651
v -0.007625 0.057236 0.070569
v 0.012072 -0.005008 0.069778
v 0.012859 -0.016833 0.035900
v 0.008131 0.065911 0.042992
v 0.011285 0.064315 0.063464
v -0.007622 -0.016833 0.051650
v -0.010779 0.062744 0.042205
v -0.002897 -0.011309 0.066625
v -0.008414 0.003675 0.066625
v 0.012072 0.028070 0.025651
v -0.004473 0.022579 0.070569
v -0.010779 0.060387 0.057172
v -0.007625 0.065109 0.042992
v 0.012072 0.060387 0.067417
v -0.009201 -0.011309 0.034326
v -0.005262 0.063530 0.066625
v 0.008920 0.065911 0.061894
v 0.011285 -0.012889 0.064264
v 0.013650 -0.006579 0.046141
v 0.011285 0.029650 0.070569
v 0.006558 0.061181 0.025651
v -0.010779 0.058808 0.025651
v -0.009990 0.055657 0.068204
v -0.003684 -0.005793 0.069778
v -0.005260 -0.016833 0.054015
v 0.012072 0.060387 0.063464
v 0.004190 -0.016833 0.033535
v -0.005262 -0.010524 0.025651
v 0.011285 0.056443 0.070569
v 0.011285 -0.008150 0.068991
v 0.013650 0.013119 0.065838
v 0.000254 0.065911 0.047719
v 0.009710 0.063530 0.067417
v -0.008411 -0.016833 0.042997
v -0.009990 0.064315 0.053228
v 0.010496 0.018634 0.070569
v 0.013648 -0.016833 0.042205
v 0.011285 0.062744 0.040627
v -0.007625 0.060387 0.025651
v -0.003684 -0.012889 0.064264
v -0.006838 0.061173 0.068991
v 0.012072 -0.008944 0.025651
v 0.009710 0.065911 0.044571
v -0.009201 0.063530 0.064264
v -0.008411 -0.016833 0.035900
v -0.006838 -0.011309 0.065051
f 138 153 159 
f 100 104 106 
f 106 104 113 
f 103 112 115 
f 108 97 116 
f 97 108 119 
f 109 102 122 
f 113 104 123 
f 98 114 124 
f 114 102 124 
f 120 111 125 
f 111 122 125 
f 100 120 126 
f 107 118 127 
f 111 106 128 
f 122 111 128 
f 110 129 130 
f 108 103 131 
f 112 103 132 
f 101 123 132 
f 115 112 133 
f 98 124 133 
f 104 100 134 
f 117 104 134 
f 126 117 134 
f 100 106 135 
f 106 111 135 
f 120 100 135 
f 111 120 135 
f 102 114 136 
f 114 105 136 
f 122 102 136 
f 105 125 136 
f 125 122 136 
f 124 102 137 
f 119 108 138 
f 108 131 138 
f 127 112 139 
f 107 127 139 
f 116 97 140 
f 113 116 140 
f 97 106 141 
f 106 113 141 
f 140 97 141 
f 113 140 141 
f 99 98 142 
f 127 99 142 
f 112 127 142 
f 98 133 142 
f 133 112 142 
f 103 115 143 
f 131 103 143 
f 121 131 143 
f 137 121 143 
f 115 137 143 
f 112 132 144 
f 132 123 144 
f 123 139 144 
f 139 112 144 
f 117 126 145 
f 126 110 145 
f 130 117 145 
f 110 130 145 
f 98 99 146 
f 99 127 146 
f 127 118 146 
f 118 130 146 
f 130 129 146 
f 97 119 147 
f 119 109 147 
f 109 122 147 
f 122 128 147 
f 125 105 148 
f 120 125 148 
f 110 126 148 
f 126 120 148 
f 115 133 149 
f 133 124 149 
f 137 115 149 
f 124 137 149 
f 103 108 150 
f 108 116 150 
f 116 101 150 
f 101 132 150 
f 132 103 150 
f 104 107 151 
f 123 104 151 
f 107 139 151 
f 139 123 151 
f 100 126 152 
f 134 100 152 
f 126 134 152 
f 131 121 153 
f 138 131 153 
f 114 98 154 
f 105 114 154 
f 98 146 154 
f 146 129 154 
f 101 116 155 
f 116 113 155 
f 123 101 155 
f 113 123 155 
f 107 104 156 
f 104 117 156 
f 118 107 156 
f 117 130 156 
f 130 118 156 
f 129 110 157 
f 148 105 157 
f 110 148 157 
f 105 154 157 
f 154 129 157 
f 106 97 158 
f 128 106 158 
f 97 147 158 
f 147 128 158 
f 102 109 159 
f 109 119 159 
f 137 102 159 
f 121 137 159 
f 119 138 159 
f 153 121 159 
o convex_3
v -0.022600 -0.012896 -0.027139
v -0.042297 -0.049931 -0.027144
v -0.045452 -0.049135 -0.029511
v -0.046237 -0.019201 -0.002718
v -0.047027 -0.014470 -0.043688
v -0.026542 -0.037316 -0.004299
v -0.026542 -0.038895 -0.044479
v -0.029694 -0.007378 -0.012967
v -0.047027 -0.039682 -0.006666
v -0.028907 -0.011318 -0.042117
v -0.047027 -0.006591 -0.019267
v -0.047814 -0.031011 -0.046841
v -0.026542 -0.047561 -0.017696
v -0.027329 -0.019201 -0.002723
v -0.028117 -0.023932 -0.048422
v -0.022600 -0.039682 -0.017696
v -0.031269 -0.005012 -0.030297
v -0.022600 -0.026293 -0.040540
v -0.031269 -0.046778 -0.038173
v -0.044662 -0.038890 -0.046055
v -0.042297 -0.033381 -0.001142
v -0.043087 -0.045987 -0.010600
v -0.022600 -0.019988 -0.011390
v -0.047814 -0.008165 -0.033445
v -0.044662 -0.011318 -0.007447
v -0.022600 -0.039682 -0.032659
v -0.047027 -0.044413 -0.039750
v -0.028117 -0.049135 -0.029511
v -0.043875 -0.021567 -0.048422
v -0.047814 -0.008956 -0.016910
v -0.030481 -0.030228 -0.049212
v -0.041510 -0.006591 -0.035021
v -0.047027 -0.048348 -0.022420
v -0.030481 -0.048348 -0.015329
v -0.028117 -0.023145 -0.001142
v -0.027329 -0.011322 -0.008238
v -0.027329 -0.005804 -0.026354
v -0.043087 -0.005012 -0.021634
v -0.028907 -0.040469 -0.005085
v -0.047814 -0.039682 -0.039750
v -0.047027 -0.023932 -0.001933
v -0.026542 -0.009743 -0.037388
v -0.022600 -0.029437 -0.009814
v -0.028117 -0.016836 -0.046055
v -0.031269 -0.016840 -0.002718
v -0.044662 -0.013683 -0.044483
v -0.028117 -0.042834 -0.042902
v -0.044662 -0.033381 -0.048422
v -0.029694 -0.032585 -0.001142
v -0.043087 -0.045987 -0.039750
v -0.044662 -0.048348 -0.016119
v -0.030481 -0.049931 -0.020843
v -0.022600 -0.019201 -0.038173
v -0.043087 -0.020775 -0.001142
v -0.043875 -0.039682 -0.004295
v -0.031269 -0.038103 -0.046841
v -0.042297 -0.006591 -0.014543
v -0.031269 -0.005012 -0.020843
v -0.027329 -0.007382 -0.015329
v -0.025752 -0.046774 -0.031082
v -0.022600 -0.014474 -0.017696
v -0.026542 -0.024719 -0.001937
v -0.045452 -0.005804 -0.030297
v -0.027329 -0.045987 -0.012176
f 198 181 223 
f 166 174 177 
f 160 175 177 
f 161 162 178 
f 175 160 182 
f 164 171 183 
f 166 177 185 
f 177 175 185 
f 171 179 186 
f 161 178 187 
f 171 164 188 
f 170 183 189 
f 183 171 189 
f 184 170 189 
f 163 184 189 
f 174 166 190 
f 188 174 190 
f 176 169 191 
f 162 161 192 
f 186 162 192 
f 173 182 195 
f 167 184 195 
f 171 186 199 
f 168 189 199 
f 189 171 199 
f 192 168 199 
f 186 192 199 
f 168 180 200 
f 163 189 200 
f 189 168 200 
f 169 176 201 
f 196 160 201 
f 176 196 201 
f 165 175 202 
f 175 182 202 
f 177 174 203 
f 174 188 203 
f 169 201 203 
f 194 173 204 
f 173 195 204 
f 195 184 204 
f 164 183 205 
f 188 164 205 
f 191 169 205 
f 183 191 205 
f 169 203 205 
f 203 188 205 
f 187 178 206 
f 179 171 207 
f 171 188 207 
f 188 190 207 
f 194 180 208 
f 198 165 208 
f 180 198 208 
f 178 162 209 
f 162 186 209 
f 186 179 209 
f 206 178 209 
f 179 206 209 
f 181 168 210 
f 192 161 210 
f 168 192 210 
f 193 181 210 
f 193 210 211 
f 161 187 211 
f 187 172 211 
f 172 193 211 
f 210 161 211 
f 160 177 212 
f 201 160 212 
f 177 203 212 
f 203 201 212 
f 184 163 213 
f 180 194 213 
f 200 180 213 
f 163 200 213 
f 204 184 213 
f 194 204 213 
f 180 168 214 
f 168 181 214 
f 198 180 214 
f 181 198 214 
f 190 166 215 
f 166 206 215 
f 206 179 215 
f 179 207 215 
f 207 190 215 
f 184 167 216 
f 170 184 216 
f 197 170 216 
f 197 216 217 
f 196 176 217 
f 176 197 217 
f 216 167 217 
f 167 195 218 
f 160 196 218 
f 217 167 218 
f 196 217 218 
f 175 172 219 
f 185 175 219 
f 166 185 219 
f 172 187 219 
f 206 166 219 
f 187 206 219 
f 182 160 220 
f 195 182 220 
f 160 218 220 
f 218 195 220 
f 182 173 221 
f 173 194 221 
f 165 202 221 
f 202 182 221 
f 194 208 221 
f 208 165 221 
f 183 170 222 
f 176 191 222 
f 191 183 222 
f 170 197 222 
f 197 176 222 
f 175 165 223 
f 172 175 223 
f 193 172 223 
f 181 193 223 
f 165 198 223 
o convex_4
v -0.028117 0.048572 -0.016117
v -0.042297 0.005232 -0.030294
v -0.034423 0.005232 -0.030294
v -0.043087 0.033601 -0.048424
v -0.046237 0.031231 -0.001930
v -0.025752 0.017055 -0.003511
v -0.024965 0.024152 -0.046057
v -0.047027 0.048572 -0.026356
v -0.026542 0.045415 -0.038962
v -0.046237 0.014690 -0.042905
v -0.045452 0.009176 -0.011388
v -0.025752 0.038323 -0.004302
v -0.024965 0.006811 -0.022427
v -0.022600 0.032809 -0.022427
v -0.044662 0.043845 -0.007450
v -0.028907 0.013903 -0.044481
v -0.046237 0.043845 -0.040543
v -0.043087 0.023365 -0.000354
v -0.029694 0.006023 -0.016117
v -0.028117 0.037536 -0.046848
v -0.029694 0.049359 -0.032661
v -0.047814 0.043054 -0.032661
v -0.030481 0.032018 -0.000354
v -0.046237 0.007598 -0.021632
v -0.043087 0.021782 -0.048424
v -0.024965 0.009963 -0.036595
v -0.047027 0.024934 -0.046057
v -0.025752 0.047785 -0.021632
v -0.044662 0.049359 -0.018484
v -0.028117 0.022573 -0.048424
v -0.042297 0.013116 -0.005083
v -0.047027 0.035170 -0.004297
v -0.022600 0.022573 -0.021632
v -0.042297 0.009963 -0.040543
v -0.022600 0.031235 -0.030294
v -0.024965 0.021782 -0.002721
v -0.029694 0.046206 -0.009812
v -0.043875 0.038327 -0.002721
v -0.043087 0.005232 -0.020060
v -0.024965 0.010750 -0.010602
v -0.042297 0.044632 -0.041329
v -0.043087 0.049359 -0.031871
v -0.046237 0.015477 -0.005873
v -0.029694 0.007598 -0.036600
v -0.028907 0.050150 -0.020846
v -0.030481 0.008385 -0.010602
v -0.028907 0.020208 -0.001144
v -0.027329 0.005236 -0.027932
v -0.030481 0.039901 -0.003507
v -0.047027 0.045419 -0.012964
v -0.025752 0.036749 -0.045267
v -0.047027 0.035962 -0.045272
v -0.046237 0.009963 -0.036600
v -0.027329 0.031235 -0.048424
v -0.022600 0.023360 -0.029509
v -0.025752 0.047785 -0.029509
v -0.043087 0.032018 -0.000354
v -0.047027 0.026517 -0.009812
v -0.047027 0.019421 -0.042905
v -0.043087 0.016268 -0.046057
v -0.043087 0.039114 -0.046057
v -0.029694 0.045419 -0.040543
v -0.042297 0.007598 -0.012179
v -0.025752 0.031235 -0.001144
f 272 246 287 
f 231 240 245 
f 239 230 249 
f 227 248 250 
f 248 233 250 
f 224 235 251 
f 235 237 251 
f 230 239 253 
f 248 227 253 
f 237 256 258 
f 256 237 259 
f 235 224 260 
f 224 252 260 
f 252 238 260 
f 255 228 261 
f 238 255 261 
f 225 226 262 
f 247 225 262 
f 234 247 262 
f 242 236 263 
f 236 256 263 
f 259 229 263 
f 256 259 263 
f 240 231 265 
f 231 252 265 
f 264 240 265 
f 241 228 266 
f 247 234 266 
f 234 254 266 
f 254 241 266 
f 228 255 266 
f 226 225 267 
f 239 249 267 
f 225 257 267 
f 257 239 267 
f 224 251 268 
f 252 224 268 
f 244 265 268 
f 265 252 268 
f 229 254 269 
f 242 263 269 
f 263 229 269 
f 246 241 270 
f 241 254 270 
f 254 229 270 
f 229 259 270 
f 236 242 271 
f 249 236 271 
f 262 226 271 
f 242 262 271 
f 226 267 271 
f 267 249 271 
f 235 260 272 
f 260 238 272 
f 261 246 272 
f 238 261 272 
f 231 245 273 
f 238 252 273 
f 252 231 273 
f 255 238 273 
f 245 255 273 
f 243 232 274 
f 258 230 274 
f 232 258 274 
f 245 240 275 
f 227 250 275 
f 250 245 275 
f 225 247 276 
f 257 225 276 
f 233 257 276 
f 227 243 277 
f 230 253 277 
f 253 227 277 
f 274 230 277 
f 243 274 277 
f 236 249 278 
f 249 230 278 
f 256 236 278 
f 230 258 278 
f 258 256 278 
f 232 244 279 
f 251 237 279 
f 258 232 279 
f 237 258 279 
f 268 251 279 
f 244 268 279 
f 228 241 280 
f 241 246 280 
f 261 228 280 
f 246 261 280 
f 255 245 281 
f 247 266 281 
f 266 255 281 
f 245 250 282 
f 250 233 282 
f 276 247 282 
f 233 276 282 
f 281 245 282 
f 247 281 282 
f 233 248 283 
f 253 239 283 
f 248 253 283 
f 257 233 283 
f 239 257 283 
f 243 227 284 
f 240 264 284 
f 227 275 284 
f 275 240 284 
f 232 243 285 
f 244 232 285 
f 265 244 285 
f 264 265 285 
f 243 284 285 
f 284 264 285 
f 254 234 286 
f 262 242 286 
f 234 262 286 
f 269 254 286 
f 242 269 286 
f 237 235 287 
f 259 237 287 
f 246 270 287 
f 270 259 287 
f 235 272 287 
o convex_5
v 0.023895 -0.019201 -0.005873
v 0.013650 -0.043626 -0.011389
v 0.013650 -0.031804 -0.030295
v 0.013650 -0.011317 0.001222
v 0.023895 -0.024714 -0.032664
v 0.023107 -0.036532 -0.000357
v 0.013650 -0.043626 0.000429
v 0.023895 -0.032592 -0.029509
v 0.013650 -0.011317 -0.010603
v 0.013650 -0.023929 -0.031871
v 0.023895 -0.020779 0.000429
v 0.023895 -0.020779 -0.028720
v 0.020741 -0.039686 -0.003508
v 0.023895 -0.034164 0.000429
v 0.017592 -0.012895 -0.009027
v 0.019953 -0.016051 0.001222
v 0.023107 -0.029436 -0.032664
v 0.016015 -0.042832 -0.010603
v 0.014439 -0.021564 -0.029509
v 0.014439 -0.029436 0.001222
v 0.013650 -0.027861 -0.032664
v 0.017592 -0.042048 0.000429
v 0.017592 -0.012895 0.000429
f 303 298 310 
f 290 289 291 
f 291 289 294 
f 289 290 295 
f 292 288 295 
f 290 291 296 
f 290 296 297 
f 295 288 298 
f 288 292 299 
f 295 293 300 
f 293 295 301 
f 295 298 301 
f 296 291 302 
f 288 299 302 
f 299 296 302 
f 301 298 303 
f 295 290 304 
f 292 295 304 
f 294 289 305 
f 289 295 305 
f 295 300 305 
f 292 297 306 
f 297 296 306 
f 299 292 306 
f 296 299 306 
f 291 294 307 
f 303 291 307 
f 301 303 307 
f 297 292 308 
f 290 297 308 
f 304 290 308 
f 292 304 308 
f 300 293 309 
f 293 301 309 
f 294 305 309 
f 305 300 309 
f 307 294 309 
f 301 307 309 
f 298 288 310 
f 288 302 310 
f 302 291 310 
f 291 303 310 
o convex_6
v 0.023895 -0.010533 -0.039751
v 0.029413 -0.049143 -0.027932
v 0.031778 -0.049143 -0.027932
v 0.023895 -0.022356 0.000434
v 0.045172 -0.008170 -0.017697
v 0.044383 -0.031013 -0.047628
v 0.045172 -0.038106 -0.006661
v 0.023895 -0.036533 -0.044484
v 0.043595 -0.009743 -0.040538
v 0.026260 -0.005012 -0.022421
v 0.025474 -0.043626 -0.011390
v 0.045172 -0.045985 -0.032660
v 0.042807 -0.013682 -0.005874
v 0.027048 -0.019989 -0.048420
v 0.042807 -0.047566 -0.017693
v 0.023895 -0.032585 0.000434
v 0.040441 -0.044412 -0.040538
v 0.044383 -0.024719 -0.002720
v 0.028625 -0.008166 -0.011390
v 0.023895 -0.044412 -0.035809
v 0.040441 -0.005012 -0.031873
v 0.027837 -0.035743 -0.047633
v 0.041230 -0.022356 -0.049212
v 0.041230 -0.005012 -0.019267
v 0.029413 -0.043626 -0.009023
v 0.045172 -0.007380 -0.028719
v 0.045960 -0.030227 -0.006661
v 0.026260 -0.048352 -0.020059
v 0.045172 -0.035743 -0.044479
v 0.023895 -0.007380 -0.021634
v 0.027837 -0.045989 -0.038176
v 0.027837 -0.008166 -0.038958
v 0.041230 -0.014473 -0.046058
v 0.042018 -0.039682 -0.005874
v 0.042018 -0.035743 -0.047633
v 0.042018 -0.048352 -0.031086
v 0.024685 -0.028650 -0.048420
v 0.044383 -0.018416 -0.046054
v 0.042018 -0.029440 -0.001933
v 0.025474 -0.012105 -0.007448
v 0.025474 -0.005803 -0.031873
v 0.045172 -0.046775 -0.020851
v 0.027837 -0.030227 -0.049212
v 0.027048 -0.012896 -0.044484
v 0.027048 -0.039682 -0.045271
v 0.045172 -0.014473 -0.007448
v 0.041230 -0.007380 -0.012964
v 0.024685 -0.046775 -0.020846
v 0.042018 -0.022356 -0.001933
v 0.040441 -0.045989 -0.012964
v 0.041230 -0.008166 -0.039751
v 0.023895 -0.020775 -0.046846
v 0.042807 -0.041255 -0.043687
v 0.045960 -0.038106 -0.010602
v 0.041230 -0.031017 -0.049212
v 0.028625 -0.046775 -0.013751
v 0.026260 -0.048352 -0.030298
v 0.027837 -0.006589 -0.014543
v 0.042807 -0.034952 -0.003507
v 0.045172 -0.044408 -0.013751
v 0.041230 -0.048352 -0.020059
v 0.034927 -0.047566 -0.035027
v 0.042807 -0.005012 -0.029511
v 0.042807 -0.017622 -0.003507
f 359 328 374 
f 314 311 318 
f 314 318 326 
f 326 318 330 
f 331 320 334 
f 326 321 335 
f 328 317 337 
f 336 315 337 
f 312 313 338 
f 336 337 339 
f 311 314 340 
f 333 324 343 
f 326 335 344 
f 316 339 345 
f 327 322 346 
f 332 318 347 
f 316 333 348 
f 319 336 348 
f 339 316 348 
f 336 339 348 
f 343 319 348 
f 333 343 348 
f 314 326 349 
f 314 323 350 
f 323 329 350 
f 340 314 350 
f 320 331 351 
f 311 340 351 
f 340 320 351 
f 342 311 351 
f 331 342 351 
f 346 322 352 
f 324 333 353 
f 347 324 353 
f 332 347 353 
f 311 342 354 
f 343 324 354 
f 330 318 355 
f 318 332 355 
f 327 341 355 
f 341 330 355 
f 332 345 355 
f 337 315 356 
f 328 337 356 
f 329 323 357 
f 315 334 357 
f 356 315 357 
f 323 356 357 
f 321 326 358 
f 326 330 358 
f 338 321 358 
f 314 349 359 
f 349 328 359 
f 344 335 360 
f 342 331 361 
f 319 343 361 
f 354 342 361 
f 343 354 361 
f 318 311 362 
f 347 318 362 
f 324 347 362 
f 311 354 362 
f 354 324 362 
f 322 327 363 
f 339 322 363 
f 345 339 363 
f 327 355 363 
f 355 345 363 
f 337 317 364 
f 322 339 364 
f 339 337 364 
f 352 322 364 
f 333 316 365 
f 345 332 365 
f 316 345 365 
f 353 333 365 
f 332 353 365 
f 335 321 366 
f 321 338 366 
f 325 360 366 
f 360 335 366 
f 312 338 367 
f 330 341 367 
f 358 330 367 
f 338 358 367 
f 334 320 368 
f 320 340 368 
f 350 329 368 
f 340 350 368 
f 329 357 368 
f 357 334 368 
f 317 328 369 
f 344 317 369 
f 326 344 369 
f 349 326 369 
f 328 349 369 
f 317 344 370 
f 325 352 370 
f 360 325 370 
f 344 360 370 
f 364 317 370 
f 352 364 370 
f 338 313 371 
f 313 346 371 
f 352 325 371 
f 346 352 371 
f 325 366 371 
f 366 338 371 
f 313 312 372 
f 341 327 372 
f 346 313 372 
f 327 346 372 
f 312 367 372 
f 367 341 372 
f 334 315 373 
f 331 334 373 
f 336 319 373 
f 315 336 373 
f 319 361 373 
f 361 331 373 
f 323 314 374 
f 356 323 374 
f 328 356 374 
f 314 359 374 
o convex_7
v 0.013650 0.033601 -0.028721
v 0.013650 0.022569 -0.027934
v 0.023895 0.022569 -0.027934
v 0.022318 0.031235 -0.019268
v 0.013650 0.025721 -0.019268
v 0.023895 0.031235 -0.031086
v 0.023895 0.023357 -0.021633
v 0.013650 0.026511 -0.031875
v 0.013650 0.032813 -0.020845
v 0.023895 0.033601 -0.022420
v 0.013650 0.022569 -0.022420
v 0.023107 0.024935 -0.031086
v 0.021530 0.024935 -0.019268
v 0.023895 0.033601 -0.027934
v 0.013650 0.029660 -0.031875
f 380 382 389 
f 375 376 379 
f 377 380 381 
f 376 375 382 
f 375 379 383 
f 379 378 383 
f 378 381 384 
f 381 380 384 
f 375 383 384 
f 383 378 384 
f 376 377 385 
f 379 376 385 
f 377 381 385 
f 377 376 386 
f 380 377 386 
f 376 382 386 
f 382 380 386 
f 378 379 387 
f 381 378 387 
f 379 385 387 
f 385 381 387 
f 380 375 388 
f 375 384 388 
f 384 380 388 
f 375 380 389 
f 382 375 389 
o convex_8
v 0.043596 0.048572 -0.015329
v 0.029413 0.005232 -0.027935
v 0.027049 0.006028 -0.027144
v 0.027839 0.036747 -0.047636
v 0.045958 0.016269 -0.043693
v 0.027839 0.024153 -0.001142
v 0.045958 0.016269 -0.005876
v 0.023895 0.047780 -0.023210
v 0.045171 0.045417 -0.038964
v 0.024684 0.018636 -0.044483
v 0.045958 0.038326 -0.005090
v 0.025474 0.039114 -0.005085
v 0.026259 0.012328 -0.009024
v 0.044383 0.006028 -0.021634
v 0.042806 0.030447 -0.049212
v 0.027839 0.049359 -0.033445
v 0.041229 0.009174 -0.038964
v 0.027839 0.016265 -0.046055
v 0.023895 0.022573 -0.023210
v 0.023895 0.036747 -0.043688
v 0.046748 0.009174 -0.032659
v 0.043596 0.031230 -0.001142
v 0.029413 0.046209 -0.009814
v 0.040442 0.050938 -0.023996
v 0.029413 0.009174 -0.010600
v 0.045958 0.046997 -0.030292
v 0.046748 0.028085 -0.004299
v 0.041229 0.042263 -0.044483
v 0.045958 0.035964 -0.045264
v 0.027049 0.050146 -0.020058
v 0.028624 0.024153 -0.049212
v 0.042806 0.014690 -0.005085
v 0.025474 0.009966 -0.036597
v 0.042806 0.019424 -0.047636
v 0.042806 0.041480 -0.005085
v 0.025474 0.045422 -0.039750
v 0.025474 0.033597 -0.002718
v 0.040442 0.048572 -0.036597
v 0.045171 0.009174 -0.012967
v 0.046748 0.017844 -0.041326
v 0.030988 0.035959 -0.001933
v 0.029413 0.008391 -0.038173
v 0.042806 0.006028 -0.030297
v 0.027049 0.017844 -0.003509
v 0.042017 0.023361 -0.001142
v 0.029413 0.006811 -0.015329
v 0.025474 0.007599 -0.023996
v 0.046748 0.009966 -0.015329
v 0.042017 0.013903 -0.044483
v 0.045958 0.046997 -0.017696
v 0.043596 0.050142 -0.028720
v 0.026259 0.032018 -0.048422
v 0.024684 0.040688 -0.008238
v 0.025474 0.026515 -0.002718
v 0.029413 0.044625 -0.042117
v 0.045958 0.023361 -0.046846
v 0.040442 0.048572 -0.013752
v 0.042806 0.036747 -0.047636
v 0.028624 0.041480 -0.005085
v 0.024684 0.012328 -0.035811
v 0.025474 0.046209 -0.012967
v 0.026259 0.050146 -0.027935
v 0.042806 0.009174 -0.011390
v 0.045171 0.010753 -0.039754
f 406 438 453 
f 408 397 409 
f 400 411 416 
f 398 415 418 
f 407 399 420 
f 399 407 422 
f 420 404 423 
f 407 420 423 
f 400 390 424 
f 411 400 424 
f 393 409 425 
f 409 397 425 
f 398 417 427 
f 396 421 428 
f 410 394 429 
f 416 410 429 
f 415 416 429 
f 418 415 429 
f 395 411 430 
f 411 424 430 
f 401 426 430 
f 426 395 430 
f 391 392 431 
f 392 422 431 
f 422 407 431 
f 403 391 432 
f 410 403 432 
f 391 431 432 
f 431 406 432 
f 402 414 433 
f 414 421 433 
f 411 395 434 
f 396 416 434 
f 416 411 434 
f 421 396 434 
f 395 433 434 
f 433 421 434 
f 392 391 435 
f 391 403 435 
f 414 402 435 
f 402 408 436 
f 422 392 436 
f 392 435 436 
f 435 402 436 
f 403 410 437 
f 416 396 437 
f 410 416 437 
f 396 428 437 
f 428 403 437 
f 423 394 438 
f 407 423 438 
f 406 431 438 
f 431 407 438 
f 390 400 439 
f 400 416 439 
f 416 415 439 
f 413 390 440 
f 405 413 440 
f 415 398 440 
f 427 405 440 
f 398 427 440 
f 390 439 440 
f 439 415 440 
f 393 404 441 
f 409 393 441 
f 399 409 441 
f 404 420 441 
f 420 399 441 
f 397 408 442 
f 426 401 442 
f 426 442 443 
f 408 402 443 
f 395 426 443 
f 402 433 443 
f 433 395 443 
f 442 408 443 
f 417 393 444 
f 425 405 444 
f 393 425 444 
f 405 427 444 
f 427 417 444 
f 404 418 445 
f 394 423 445 
f 423 404 445 
f 429 394 445 
f 418 429 445 
f 390 413 446 
f 419 412 446 
f 413 419 446 
f 424 390 446 
f 412 424 446 
f 404 393 447 
f 393 417 447 
f 417 398 447 
f 418 404 447 
f 398 418 447 
f 424 412 448 
f 401 430 448 
f 430 424 448 
f 409 399 449 
f 408 409 449 
f 399 422 449 
f 436 408 449 
f 422 436 449 
f 419 397 450 
f 412 419 450 
f 397 442 450 
f 442 401 450 
f 401 448 450 
f 448 412 450 
f 413 405 451 
f 397 419 451 
f 419 413 451 
f 425 397 451 
f 405 425 451 
f 421 414 452 
f 403 428 452 
f 428 421 452 
f 435 403 452 
f 414 435 452 
f 394 410 453 
f 410 432 453 
f 432 406 453 
f 438 394 453 
o convex_9
v 0.023107 -0.027078 0.016197
v -0.009199 -0.027863 0.002798
v -0.010775 -0.028653 0.003587
v -0.007623 -0.012893 0.032744
v -0.006832 -0.042050 0.032744
v 0.009706 -0.041260 0.008315
v 0.012858 -0.042050 0.032744
v 0.010496 -0.016049 0.005952
v 0.011282 -0.012893 0.032744
v -0.017077 -0.021564 0.014620
v -0.011566 -0.039684 0.012257
v -0.006046 -0.012893 0.011469
v -0.017077 -0.030229 0.024859
v 0.016011 -0.032589 0.004375
v 0.021530 -0.033379 0.023285
v -0.002107 -0.042050 0.008315
v 0.013648 -0.013683 0.013831
v 0.019954 -0.036533 0.013834
v -0.004470 -0.019988 0.002798
v 0.019954 -0.021564 0.026436
v 0.004976 -0.036533 0.002798
v -0.017077 -0.034164 0.016197
v 0.020740 -0.020776 0.012257
v 0.011282 -0.021564 0.002798
v 0.018374 -0.027081 0.030378
v -0.011566 -0.034164 0.005164
v -0.015501 -0.023930 0.008315
v -0.015501 -0.025505 0.028013
v 0.013648 -0.042050 0.016197
v -0.013138 -0.016834 0.012257
v 0.019164 -0.017622 0.021710
v -0.017077 -0.021564 0.022496
v 0.019954 -0.026293 0.007529
v -0.010775 -0.028653 0.032744
v 0.008129 -0.012893 0.009892
v -0.015501 -0.036533 0.021710
v -0.005260 -0.015259 0.006741
v -0.017871 -0.029438 0.013046
v -0.012352 -0.015259 0.020131
v -0.008409 -0.042050 0.014620
v -0.011566 -0.021564 0.005164
v -0.006046 -0.037318 0.004375
v 0.016011 -0.019200 0.006741
v 0.022317 -0.024714 0.023285
v 0.017587 -0.039684 0.019345
v 0.022317 -0.031016 0.013046
v 0.015225 -0.025505 0.032744
v 0.013648 -0.038894 0.007529
v -0.014714 -0.033379 0.008315
v 0.020740 -0.030226 0.027224
v 0.007343 -0.038894 0.004375
v -0.011566 -0.040472 0.019345
v -0.015501 -0.031804 0.027224
v 0.008129 -0.016049 0.005164
v 0.018374 -0.034164 0.007529
v 0.016797 -0.015259 0.016985
v -0.006046 -0.034164 0.002798
v 0.022317 -0.022351 0.019345
v -0.009989 -0.038894 0.008315
v -0.017871 -0.024714 0.022496
v 0.016011 -0.023930 0.004375
v 0.012858 -0.027863 0.002798
v -0.017871 -0.031804 0.020922
v 0.015225 -0.016049 0.009892
f 509 476 517 
f 457 458 460 
f 457 460 462 
f 457 462 465 
f 460 458 469 
f 455 472 474 
f 474 472 477 
f 473 462 478 
f 469 459 482 
f 460 469 482 
f 480 463 483 
f 462 473 484 
f 481 457 485 
f 476 454 486 
f 458 457 487 
f 457 481 487 
f 465 462 488 
f 462 470 488 
f 475 464 489 
f 483 465 490 
f 465 488 490 
f 463 480 491 
f 457 465 492 
f 483 463 492 
f 465 483 492 
f 463 485 492 
f 485 457 492 
f 469 458 493 
f 455 456 494 
f 472 455 494 
f 456 480 494 
f 480 483 494 
f 490 472 494 
f 483 490 494 
f 477 461 496 
f 476 486 496 
f 468 454 497 
f 468 460 498 
f 471 468 498 
f 460 482 498 
f 482 471 498 
f 454 468 499 
f 468 471 499 
f 486 454 499 
f 462 460 500 
f 460 478 500 
f 478 462 500 
f 482 459 501 
f 471 482 501 
f 464 475 502 
f 456 479 502 
f 480 456 502 
f 475 491 502 
f 491 480 502 
f 460 468 503 
f 478 460 503 
f 473 478 503 
f 468 497 503 
f 497 473 503 
f 459 469 504 
f 474 467 504 
f 469 495 504 
f 495 474 504 
f 467 501 504 
f 501 459 504 
f 458 489 505 
f 489 464 505 
f 493 458 505 
f 464 493 505 
f 481 466 506 
f 458 487 506 
f 487 481 506 
f 489 458 506 
f 461 477 507 
f 477 472 507 
f 488 461 507 
f 472 490 507 
f 490 488 507 
f 467 486 508 
f 499 471 508 
f 486 499 508 
f 501 467 508 
f 471 501 508 
f 470 462 509 
f 462 484 509 
f 484 476 509 
f 456 455 510 
f 455 474 510 
f 479 456 510 
f 474 495 510 
f 495 479 510 
f 454 476 511 
f 484 473 511 
f 476 484 511 
f 497 454 511 
f 473 497 511 
f 469 493 512 
f 493 464 512 
f 495 469 512 
f 479 495 512 
f 464 502 512 
f 502 479 512 
f 466 481 513 
f 485 463 513 
f 481 485 513 
f 463 491 513 
f 486 467 514 
f 477 496 514 
f 496 486 514 
f 467 474 515 
f 474 477 515 
f 514 467 515 
f 477 514 515 
f 475 489 516 
f 491 475 516 
f 506 466 516 
f 489 506 516 
f 466 513 516 
f 513 491 516 
f 461 488 517 
f 488 470 517 
f 496 461 517 
f 476 496 517 
f 470 509 517 
o convex_10
v -0.008413 -0.062537 -0.031872
v 0.013650 -0.063325 0.002798
v 0.013650 -0.066477 0.002798
v -0.008413 -0.048355 0.002798
v 0.012072 -0.045990 -0.032663
v -0.006837 -0.068052 0.002798
v 0.011285 -0.068052 -0.026358
v -0.009991 -0.045990 -0.031085
v 0.011285 -0.046782 0.002798
v -0.009202 -0.065689 -0.027141
v 0.009709 -0.060963 -0.034240
v -0.003685 -0.045990 -0.000356
v -0.007626 -0.045990 -0.033449
v 0.012072 -0.068844 0.002798
v -0.004474 -0.068052 -0.026358
v -0.008413 -0.065689 0.002798
v 0.012861 -0.064900 -0.026358
v 0.012861 -0.048355 0.002798
v -0.004474 -0.068844 -0.007447
v 0.008920 -0.068844 -0.023994
v -0.009991 -0.045990 -0.022413
v 0.000254 -0.065689 -0.031085
v 0.010496 -0.045990 -0.034240
v -0.001322 -0.058596 -0.034240
v -0.009991 -0.057025 -0.029508
v -0.009202 -0.054663 -0.002720
v 0.012072 -0.061748 -0.032663
v 0.007344 -0.045990 -0.001143
v -0.008413 -0.067266 -0.024781
v -0.006837 -0.046782 0.002798
v 0.009709 -0.066477 -0.030299
v -0.006050 -0.060963 -0.033449
v -0.009202 -0.064900 -0.012175
v -0.004474 -0.068844 0.002798
v 0.012072 -0.068052 -0.024781
v -0.006837 -0.065689 -0.030299
v 0.012072 -0.045990 -0.014539
v 0.000254 -0.046782 -0.034240
f 540 541 555 
f 520 519 521 
f 520 521 523 
f 521 519 526 
f 522 525 529 
f 518 525 530 
f 525 522 530 
f 520 523 531 
f 523 521 533 
f 519 520 534 
f 522 519 534 
f 519 522 535 
f 526 519 535 
f 536 532 537 
f 532 524 537 
f 531 536 537 
f 529 525 538 
f 530 522 540 
f 540 528 541 
f 525 518 542 
f 518 527 542 
f 538 525 542 
f 538 542 543 
f 533 521 543 
f 521 538 543 
f 522 534 544 
f 540 522 544 
f 528 540 544 
f 522 529 545 
f 529 526 545 
f 523 533 546 
f 536 523 546 
f 532 536 546 
f 521 526 547 
f 526 529 547 
f 529 538 547 
f 538 521 547 
f 524 532 548 
f 539 528 548 
f 532 539 548 
f 544 524 548 
f 528 544 548 
f 518 530 549 
f 528 539 549 
f 530 541 549 
f 541 528 549 
f 542 527 550 
f 543 542 550 
f 533 543 550 
f 527 546 550 
f 546 533 550 
f 531 523 551 
f 523 536 551 
f 536 531 551 
f 520 531 552 
f 534 520 552 
f 537 524 552 
f 531 537 552 
f 524 544 552 
f 544 534 552 
f 527 518 553 
f 539 532 553 
f 546 527 553 
f 532 546 553 
f 518 549 553 
f 549 539 553 
f 535 522 554 
f 526 535 554 
f 522 545 554 
f 545 526 554 
f 530 540 555 
f 541 530 555 
o convex_11
v -0.004475 -0.008953 0.002009
v 0.001040 -0.045990 -0.034235
v 0.010496 -0.045990 -0.034235
v -0.002111 -0.045990 0.001220
v -0.022599 -0.019198 -0.038177
v 0.011284 -0.008953 -0.031083
v 0.013650 -0.030223 0.001216
v -0.021808 -0.033377 0.002009
v -0.022599 -0.040469 -0.030294
v -0.022599 -0.012894 -0.024779
v 0.013650 -0.011320 0.001216
v 0.010496 -0.027084 -0.039755
v 0.013650 -0.044413 -0.000358
v -0.020233 -0.034168 -0.039755
v -0.018657 -0.017625 0.002798
v 0.013650 -0.029440 -0.031872
v -0.008413 -0.008953 -0.032661
v -0.009201 -0.045200 0.001220
v -0.009201 -0.045990 -0.032661
v 0.011284 -0.028653 0.002798
v 0.008133 -0.022352 -0.039755
v -0.022599 -0.024720 0.002009
v -0.015503 -0.041259 0.002009
v 0.012071 -0.045990 -0.032661
v -0.021808 -0.026290 -0.040544
v -0.022599 -0.040469 -0.020048
v 0.008920 -0.008953 -0.000358
v 0.009708 -0.008953 -0.033446
v -0.014715 -0.012894 0.002009
v 0.008133 -0.031804 -0.039755
v -0.010780 -0.008953 -0.014545
v 0.008920 -0.045990 0.000431
v 0.013650 -0.010530 -0.009026
v 0.002619 -0.035745 0.002798
v 0.013650 -0.023929 -0.031872
v -0.022599 -0.014471 -0.032661
v -0.009992 -0.045990 -0.021626
v -0.021020 -0.030223 0.002798
v -0.022599 -0.038892 -0.034239
v 0.008920 -0.021566 0.002798
v -0.020233 -0.018411 0.002009
v -0.015503 -0.019992 -0.038966
v 0.013650 -0.043623 -0.012178
v -0.010780 -0.008953 -0.031083
v -0.010780 -0.010530 0.000431
v 0.004194 -0.008953 0.002005
v -0.022599 -0.014471 -0.017698
v -0.021808 -0.041259 -0.023989
v -0.017869 -0.039686 0.001220
v -0.012352 -0.013684 0.002798
v -0.002111 -0.008953 -0.033446
v -0.021020 -0.031014 -0.040544
v -0.022599 -0.031804 -0.039755
v 0.010496 -0.020779 -0.038177
v 0.013650 -0.043623 0.000431
v -0.018657 -0.024720 -0.040544
v -0.022599 -0.031014 0.001220
f 577 581 612 
f 557 558 559 
f 560 564 565 
f 566 562 568 
f 558 557 569 
f 566 568 571 
f 556 561 572 
f 557 559 574 
f 569 557 574 
f 562 566 575 
f 565 564 577 
f 573 559 578 
f 559 558 579 
f 558 567 579 
f 567 571 579 
f 577 564 581 
f 573 578 581 
f 561 556 582 
f 572 561 583 
f 567 558 585 
f 558 569 585 
f 556 572 586 
f 559 579 587 
f 579 568 587 
f 566 571 588 
f 561 582 588 
f 582 566 588 
f 575 570 589 
f 578 559 589 
f 559 587 589 
f 571 567 590 
f 561 588 590 
f 588 571 590 
f 560 565 591 
f 572 560 591 
f 559 573 592 
f 574 559 592 
f 577 563 593 
f 570 577 593 
f 563 578 593 
f 589 570 593 
f 578 589 593 
f 564 560 594 
f 574 564 594 
f 569 574 594 
f 575 566 595 
f 570 575 595 
f 577 570 596 
f 570 584 596 
f 583 576 597 
f 571 568 598 
f 568 579 598 
f 579 571 598 
f 586 572 599 
f 565 586 599 
f 591 565 599 
f 572 591 599 
f 584 556 600 
f 565 584 600 
f 556 586 600 
f 586 565 600 
f 582 556 601 
f 566 582 601 
f 595 566 601 
f 565 577 602 
f 584 565 602 
f 577 596 602 
f 596 584 602 
f 564 574 603 
f 581 564 603 
f 573 581 603 
f 592 573 603 
f 574 592 603 
f 578 563 604 
f 563 581 604 
f 581 578 604 
f 556 584 605 
f 584 570 605 
f 570 595 605 
f 601 556 605 
f 595 601 605 
f 560 572 606 
f 572 583 606 
f 597 560 606 
f 583 597 606 
f 567 585 607 
f 585 569 607 
f 560 580 608 
f 594 560 608 
f 569 594 608 
f 580 607 608 
f 607 569 608 
f 567 576 609 
f 583 561 609 
f 576 583 609 
f 561 590 609 
f 590 567 609 
f 568 562 610 
f 562 575 610 
f 587 568 610 
f 575 589 610 
f 589 587 610 
f 576 567 611 
f 580 560 611 
f 560 597 611 
f 597 576 611 
f 567 607 611 
f 607 580 611 
f 563 577 612 
f 581 563 612 
o convex_12
v -0.013144 0.033601 -0.023996
v -0.022598 0.022569 -0.027933
v -0.022598 0.023357 -0.029510
v -0.022598 0.032813 -0.021632
v -0.013144 0.024147 -0.019269
v -0.013144 0.029660 -0.031085
v -0.022598 0.032813 -0.028722
v -0.022598 0.025721 -0.018479
v -0.013144 0.022569 -0.027933
v -0.013144 0.028871 -0.018479
v -0.021022 0.022569 -0.020845
v -0.022598 0.025721 -0.031085
v -0.013144 0.024935 -0.030298
v -0.013144 0.032024 -0.029510
f 618 619 626 
f 615 614 616 
f 613 617 618 
f 615 616 619 
f 616 613 619 
f 616 614 620 
f 614 615 621 
f 618 617 621 
f 613 616 622 
f 617 613 622 
f 616 620 622 
f 620 617 622 
f 620 614 623 
f 617 620 623 
f 614 621 623 
f 621 617 623 
f 619 618 624 
f 615 619 624 
f 621 615 625 
f 618 621 625 
f 624 618 625 
f 615 624 625 
f 613 618 626 
f 619 613 626 
o convex_13
v -0.006837 -0.024715 0.068198
v 0.019167 -0.027079 0.064259
v 0.018378 -0.025502 0.065836
v -0.004474 -0.016833 0.034320
v -0.007625 -0.042050 0.032744
v 0.013649 -0.042050 0.032744
v 0.003407 -0.038106 0.068198
v 0.012860 -0.016833 0.035896
v 0.007342 -0.017623 0.067416
v 0.014437 -0.042050 0.051660
v -0.008411 -0.016833 0.042202
v -0.006837 -0.042050 0.050874
v 0.012071 -0.031014 0.072145
v -0.009203 -0.030229 0.062687
v 0.013649 -0.023927 0.032744
v -0.009203 -0.024715 0.032744
v -0.002108 -0.031014 0.072145
v -0.000530 -0.019988 0.069779
v 0.013649 -0.016833 0.052446
v 0.019167 -0.026292 0.056381
v 0.015226 -0.034956 0.067416
v -0.007625 -0.016833 0.051664
v 0.008920 -0.023927 0.072927
v -0.005259 -0.034956 0.067416
v 0.019167 -0.031014 0.061897
v 0.014437 -0.019988 0.066626
v 0.006556 -0.018410 0.032744
v 0.003407 -0.016833 0.065049
v 0.001830 -0.027079 0.073722
v 0.018378 -0.023137 0.062687
v 0.008134 -0.034169 0.072145
v -0.009203 -0.025502 0.061111
v 0.008134 -0.038896 0.065840
v -0.009203 -0.030229 0.032744
v 0.016012 -0.026292 0.069779
v -0.004474 -0.019988 0.066626
v -0.008411 -0.016833 0.036687
v -0.007625 -0.031804 0.066626
v 0.001830 -0.034169 0.072145
v -0.005259 -0.042050 0.052450
v -0.002108 -0.024715 0.072145
v 0.004193 -0.021562 0.072145
v 0.017589 -0.031014 0.067416
v -0.001322 -0.037321 0.067416
v 0.012071 -0.021562 0.070569
v 0.006556 -0.030229 0.073722
v -0.008411 -0.023927 0.064263
v -0.007625 -0.042050 0.045355
v 0.011286 -0.037321 0.067416
v 0.008920 -0.016833 0.063477
v -0.005259 -0.029442 0.070569
v 0.019167 -0.029442 0.056381
f 646 651 678 
f 631 632 636 
f 634 630 637 
f 631 636 638 
f 632 631 641 
f 641 631 642 
f 634 637 645 
f 632 641 646 
f 641 634 646 
f 645 637 648 
f 636 632 651 
f 646 628 651 
f 647 636 651 
f 630 634 653 
f 634 641 653 
f 642 630 653 
f 641 642 653 
f 644 635 654 
f 645 648 654 
f 629 628 656 
f 634 645 656 
f 628 646 656 
f 646 634 656 
f 652 629 656 
f 645 652 656 
f 647 639 657 
f 637 642 658 
f 642 640 658 
f 648 637 658 
f 631 640 660 
f 640 642 660 
f 642 631 660 
f 649 639 661 
f 629 652 661 
f 644 654 662 
f 654 648 662 
f 637 630 663 
f 630 642 663 
f 642 637 663 
f 627 640 664 
f 640 638 664 
f 638 650 664 
f 643 650 665 
f 655 643 665 
f 633 657 665 
f 638 636 666 
f 659 633 666 
f 636 659 666 
f 643 655 667 
f 662 627 667 
f 644 662 667 
f 635 644 668 
f 655 649 668 
f 644 667 668 
f 667 655 668 
f 628 629 669 
f 639 647 669 
f 651 628 669 
f 647 651 669 
f 629 661 669 
f 661 639 669 
f 650 638 670 
f 633 665 670 
f 665 650 670 
f 638 666 670 
f 666 633 670 
f 652 635 671 
f 649 661 671 
f 661 652 671 
f 635 668 671 
f 668 649 671 
f 639 649 672 
f 649 655 672 
f 657 639 672 
f 655 665 672 
f 665 657 672 
f 640 627 673 
f 658 640 673 
f 648 658 673 
f 627 662 673 
f 662 648 673 
f 631 638 674 
f 640 631 674 
f 638 640 674 
f 636 647 675 
f 657 633 675 
f 647 657 675 
f 633 659 675 
f 659 636 675 
f 652 645 676 
f 635 652 676 
f 654 635 676 
f 645 654 676 
f 650 643 677 
f 627 664 677 
f 664 650 677 
f 667 627 677 
f 643 667 677 
f 632 646 678 
f 651 632 678 
o convex_14
v -0.009988 0.017053 -0.032656
v 0.007343 0.061179 0.002798
v 0.006556 0.061971 -0.017692
v 0.013650 0.022571 -0.027929
v -0.010775 0.017053 0.002798
v -0.012354 0.058027 -0.026351
v 0.011285 0.017057 0.002798
v -0.011564 0.059605 0.002798
v 0.008132 0.031241 -0.038968
v 0.008922 0.057235 -0.028718
v -0.012354 0.024936 -0.035812
v 0.008922 0.017057 -0.033449
v 0.009708 0.060388 0.002798
v -0.013143 0.022571 -0.020836
v -0.009201 0.054087 -0.031082
v 0.013650 0.033607 -0.028718
v -0.009988 0.024936 -0.038175
v -0.012354 0.058027 0.002798
v -0.008412 0.061179 -0.021625
v -0.013143 0.052513 -0.028718
v 0.013650 0.030454 -0.019262
v 0.006556 0.056453 -0.031082
v -0.008412 0.032028 -0.038175
v 0.007343 0.024149 -0.038968
v 0.004980 0.060392 -0.027140
v -0.011564 0.017053 0.000431
v 0.013650 0.030454 -0.031871
v -0.012354 0.017053 -0.028718
v -0.002896 0.061179 0.002009
v 0.008922 0.060388 -0.022414
v 0.011285 0.031241 0.002798
v -0.013143 0.058027 -0.018473
v -0.011564 0.032815 -0.036597
v 0.001038 0.020997 -0.037386
v 0.003404 0.032028 -0.038968
v -0.013143 0.026510 -0.031875
v -0.007625 0.058818 -0.027934
v 0.004193 0.054874 -0.031875
v 0.009708 0.059605 -0.011392
v -0.011564 0.060392 -0.021625
v 0.008922 0.053296 -0.031082
v 0.009708 0.017057 -0.032660
v 0.013650 0.026515 -0.031871
v -0.011564 0.019418 0.002798
v -0.009988 0.060392 0.002798
v -0.013143 0.025723 -0.018473
v -0.011564 0.054087 -0.030292
v 0.008922 0.024149 -0.038179
v 0.013650 0.024149 -0.020051
v -0.009988 0.020205 -0.035812
v 0.007343 0.017053 -0.034238
v 0.004193 0.061971 -0.020836
v -0.003683 0.026510 -0.038968
f 713 702 731 
f 680 683 685 
f 683 680 686 
f 681 680 691 
f 680 685 691 
f 683 686 696 
f 682 694 699 
f 694 691 699 
f 688 700 703 
f 679 683 704 
f 694 682 705 
f 688 694 705 
f 679 704 706 
f 704 692 706 
f 680 681 707 
f 681 691 708 
f 694 688 708 
f 688 703 708 
f 691 685 709 
f 685 699 709 
f 699 691 709 
f 696 686 710 
f 698 692 710 
f 684 698 710 
f 695 689 711 
f 689 698 711 
f 701 695 711 
f 695 702 712 
f 687 702 713 
f 698 689 714 
f 692 698 714 
f 689 706 714 
f 706 692 714 
f 700 693 715 
f 697 703 715 
f 703 700 715 
f 700 687 716 
f 693 700 716 
f 701 693 716 
f 687 713 716 
f 713 701 716 
f 691 694 717 
f 708 691 717 
f 694 708 717 
f 710 686 718 
f 684 710 718 
f 715 684 718 
f 697 715 718 
f 687 700 719 
f 700 688 719 
f 705 687 719 
f 688 705 719 
f 682 685 720 
f 705 682 721 
f 682 720 721 
f 683 696 722 
f 704 683 722 
f 692 704 722 
f 686 680 723 
f 680 707 723 
f 707 697 723 
f 718 686 723 
f 697 718 723 
f 696 710 724 
f 710 692 724 
f 722 696 724 
f 692 722 724 
f 698 684 725 
f 693 701 725 
f 711 698 725 
f 701 711 725 
f 684 715 725 
f 715 693 725 
f 702 687 726 
f 687 705 726 
f 720 690 726 
f 705 721 726 
f 721 720 726 
f 685 682 727 
f 682 699 727 
f 699 685 727 
f 689 695 728 
f 679 706 728 
f 706 689 728 
f 695 712 728 
f 728 712 729 
f 683 679 729 
f 685 683 729 
f 712 702 729 
f 720 685 729 
f 690 720 729 
f 702 726 729 
f 726 690 729 
f 679 728 729 
f 703 697 730 
f 707 681 730 
f 697 707 730 
f 681 708 730 
f 708 703 730 
f 695 701 731 
f 702 695 731 
f 701 713 731 
o convex_15
v -0.011566 0.017050 -0.001148
v -0.002110 -0.008950 -0.033452
v 0.009708 -0.008950 -0.033452
v 0.008921 -0.006586 0.002798
v 0.009708 0.017050 -0.032660
v 0.011286 0.017050 0.002798
v -0.009990 -0.005010 0.002798
v -0.011566 0.017050 -0.031085
v -0.010777 -0.008950 -0.031085
v 0.011286 -0.008950 -0.015327
v -0.010777 -0.008950 -0.014543
v -0.010777 0.017050 0.002798
v 0.011286 -0.008161 -0.031085
v -0.002110 0.017050 -0.033452
v -0.012355 0.013110 -0.028722
v 0.011286 -0.005010 0.002798
v 0.010497 0.016261 -0.030297
v -0.008414 -0.006586 0.002798
v -0.009201 0.015472 -0.032660
v -0.010777 -0.001857 0.001219
v -0.011566 -0.005797 -0.027146
v -0.005262 -0.008950 -0.012179
v 0.008921 0.017050 -0.033452
v 0.011286 0.017050 -0.006665
v -0.008414 -0.008950 -0.032660
f 740 750 756 
f 736 732 737 
f 735 737 738 
f 732 736 739 
f 733 734 740 
f 740 734 741 
f 740 741 742 
f 737 732 743 
f 738 737 743 
f 734 736 744 
f 741 734 744 
f 737 741 744 
f 734 733 745 
f 739 736 745 
f 732 739 746 
f 739 740 746 
f 737 735 747 
f 741 737 747 
f 735 741 747 
f 744 736 748 
f 735 738 749 
f 738 742 749 
f 740 739 750 
f 745 733 750 
f 739 745 750 
f 742 738 751 
f 743 732 751 
f 738 743 751 
f 732 746 751 
f 751 746 752 
f 740 742 752 
f 746 740 752 
f 742 751 752 
f 741 735 753 
f 742 741 753 
f 735 749 753 
f 749 742 753 
f 736 734 754 
f 734 745 754 
f 745 736 754 
f 736 737 755 
f 737 744 755 
f 748 736 755 
f 744 748 755 
f 733 740 756 
f 750 733 756 
