o convex_0
v -0.058341 -0.059202 -0.019947
v 0.057719 0.063103 -0.017610
v 0.058491 0.062313 -0.005149
v 0.061611 -0.057622 -0.021505
v -0.059907 0.061535 -0.020725
v -0.057570 -0.058412 -0.004371
v 0.059274 -0.058412 -0.005149
v -0.059907 0.059978 -0.004371
v 0.061611 0.045959 -0.022286
v -0.059907 -0.051409 -0.021506
v 0.053045 0.035053 -0.003590
v -0.045883 -0.050630 -0.003590
v 0.062394 0.058422 -0.005149
v 0.056936 -0.059202 -0.022286
v 0.042141 -0.050630 -0.003590
v -0.032642 0.062313 -0.021506
v -0.056004 0.063103 -0.005149
v -0.026401 0.052197 -0.003590
v -0.060690 -0.052953 -0.004371
v 0.005515 -0.013996 -0.022286
v 0.062394 0.059200 -0.021505
v 0.062394 -0.055300 -0.005928
v -0.059124 0.056087 -0.021506
v 0.048370 -0.059202 -0.005149
v -0.060690 0.059200 -0.020725
v -0.056787 0.063103 -0.020725
v -0.052112 0.010127 -0.003590
v 0.062394 -0.052187 -0.022286
v 0.054599 0.063103 -0.021505
v -0.060690 -0.055300 -0.020725
v 0.037466 0.050628 -0.003590
v -0.060690 0.059200 -0.005149
v 0.028117 -0.058412 -0.022286
v -0.056787 -0.059202 -0.005149
v -0.025630 0.062313 -0.004371
v -0.053678 -0.058412 -0.021506
v 0.061611 -0.056078 -0.005149
v 0.014864 0.063103 -0.005149
v 0.042141 0.038944 -0.022286
v -0.059907 -0.057622 -0.005149
v 0.061611 0.061535 -0.019947
v 0.059274 -0.059202 -0.005928
v 0.053045 0.023368 -0.003590
v 0.035900 -0.051409 -0.003590
v 0.060828 0.061535 -0.005149
v -0.059124 -0.056856 -0.021506
v -0.059124 0.062313 -0.009045
v -0.059907 0.052197 -0.021506
v -0.056787 0.062313 -0.004371
v -0.034196 -0.058412 -0.004371
v 0.049924 0.042068 -0.003590
v -0.031076 -0.059202 -0.021506
v 0.034346 0.063103 -0.008266
f 2 38 53 
f 11 12 15 
f 12 11 18 
f 6 12 19 
f 9 14 20 
f 21 13 22 
f 16 9 23 
f 1 14 24 
f 5 23 25 
f 17 2 26 
f 23 5 26 
f 16 23 26 
f 18 8 27 
f 12 18 27 
f 8 19 27 
f 19 12 27 
f 4 14 28 
f 14 9 28 
f 9 21 28 
f 22 4 28 
f 21 22 28 
f 9 16 29 
f 21 9 29 
f 26 2 29 
f 16 26 29 
f 19 25 30 
f 25 10 30 
f 18 11 31 
f 19 8 32 
f 5 25 32 
f 25 19 32 
f 20 14 33 
f 1 24 34 
f 24 6 34 
f 31 3 35 
f 18 31 35 
f 15 7 37 
f 22 13 37 
f 2 17 38 
f 35 3 38 
f 17 35 38 
f 9 20 39 
f 23 9 39 
f 20 23 39 
f 6 19 40 
f 30 1 40 
f 19 30 40 
f 1 34 40 
f 34 6 40 
f 13 21 41 
f 29 2 41 
f 21 29 41 
f 14 4 42 
f 4 22 42 
f 7 24 42 
f 24 14 42 
f 37 7 42 
f 22 37 42 
f 13 11 43 
f 11 15 43 
f 37 13 43 
f 15 37 43 
f 12 6 44 
f 7 15 44 
f 15 12 44 
f 24 7 44 
f 2 3 45 
f 3 31 45 
f 41 2 45 
f 13 41 45 
f 10 20 46 
f 1 30 46 
f 30 10 46 
f 20 33 46 
f 36 1 46 
f 33 36 46 
f 17 26 47 
f 26 5 47 
f 5 32 47 
f 32 8 47 
f 20 10 48 
f 23 20 48 
f 10 25 48 
f 25 23 48 
f 8 18 49 
f 35 17 49 
f 18 35 49 
f 47 8 49 
f 17 47 49 
f 6 24 50 
f 44 6 50 
f 24 44 50 
f 11 13 51 
f 31 11 51 
f 13 45 51 
f 45 31 51 
f 14 1 52 
f 33 14 52 
f 1 36 52 
f 36 33 52 
f 3 2 53 
f 38 3 53 
o convex_1
v -0.047444 -0.051412 0.031460
v -0.004605 -0.007787 0.015110
v -0.003822 -0.029600 0.009658
v -0.047444 -0.007787 -0.003581
v -0.048226 -0.008569 0.035356
v -0.004605 -0.049068 0.035360
v -0.004605 -0.049854 -0.003590
v -0.047444 -0.049854 -0.003581
v -0.006161 -0.007792 0.035356
v -0.005383 -0.007787 -0.003590
v -0.038877 -0.043619 0.039252
v -0.013172 -0.014022 0.038476
v -0.039655 -0.014799 0.039252
v -0.005387 -0.050626 0.035356
v -0.046666 -0.050631 0.036136
v -0.010837 -0.042060 0.038476
v -0.006943 -0.050626 -0.001250
v -0.048226 -0.007787 0.015890
v -0.048226 -0.040502 0.035356
v -0.046666 -0.050631 -0.003581
v -0.005383 -0.008573 0.035360
v -0.004605 -0.009350 -0.003590
v -0.037316 -0.051412 0.035356
v -0.048226 -0.031150 0.015890
v -0.010837 -0.017139 0.038476
v -0.047444 -0.007787 0.025229
v -0.047444 -0.009346 0.036136
v -0.040433 -0.042056 0.039252
v -0.004605 -0.035826 0.034576
v -0.033422 -0.037384 0.039252
v -0.026411 -0.007792 0.034580
v -0.004605 -0.017139 0.024453
v -0.047444 -0.046732 0.036136
v -0.016292 -0.050626 -0.003590
v -0.012393 -0.043619 0.038476
v -0.044327 -0.051412 0.029125
v -0.034982 -0.015585 0.039252
v -0.032644 -0.050631 0.036136
v -0.048226 -0.017916 0.014334
f 77 71 92 
f 56 59 60 
f 57 55 63 
f 65 62 66 
f 60 59 67 
f 67 59 69 
f 60 67 70 
f 55 57 71 
f 61 54 72 
f 58 71 72 
f 54 61 73 
f 55 62 74 
f 62 65 74 
f 55 56 75 
f 56 60 75 
f 63 55 75 
f 60 63 75 
f 68 54 76 
f 70 67 76 
f 61 72 77 
f 72 71 77 
f 69 59 78 
f 59 74 78 
f 74 65 78 
f 62 55 79 
f 55 71 79 
f 71 58 79 
f 62 58 80 
f 66 62 80 
f 58 72 80 
f 64 66 81 
f 68 64 81 
f 66 80 81 
f 59 56 82 
f 74 59 82 
f 66 64 83 
f 64 69 83 
f 69 78 83 
f 58 62 84 
f 62 79 84 
f 79 58 84 
f 56 55 85 
f 55 74 85 
f 82 56 85 
f 74 82 85 
f 54 68 86 
f 72 54 86 
f 80 72 86 
f 68 81 86 
f 81 80 86 
f 61 57 87 
f 57 63 87 
f 63 60 87 
f 60 70 87 
f 73 61 87 
f 64 67 88 
f 69 64 88 
f 67 69 88 
f 54 73 89 
f 76 54 89 
f 70 76 89 
f 87 70 89 
f 73 87 89 
f 65 66 90 
f 78 65 90 
f 66 83 90 
f 83 78 90 
f 67 64 91 
f 64 68 91 
f 68 76 91 
f 76 67 91 
f 57 61 92 
f 71 57 92 
f 61 77 92 
o convex_2
v -0.040432 0.007014 0.031460
v -0.024854 0.053755 0.022893
v -0.024854 0.053755 0.016670
v 0.000073 0.007014 0.034576
v 0.000073 0.007014 -0.003590
v -0.052121 0.010134 -0.003581
v -0.026412 0.052195 -0.003590
v -0.027189 0.052972 0.035356
v -0.052121 0.009356 0.035356
v -0.034204 0.014810 0.039252
v -0.050558 0.007014 0.001870
v 0.000073 0.010134 -0.001250
v -0.003825 0.016366 0.035360
v -0.010835 0.017921 0.038476
v -0.027971 0.039727 0.038476
v -0.027189 0.053755 0.017445
v -0.024078 0.052195 -0.003590
v -0.022519 0.049857 0.035356
v -0.050558 0.013250 0.024449
v -0.051339 0.007796 0.035356
v 0.000073 0.010134 0.033800
v -0.052121 0.007796 -0.003581
v -0.041213 0.018704 0.038472
v -0.013175 0.012472 0.038476
v -0.029529 0.048297 -0.003581
v -0.007718 0.024153 0.011214
v -0.023301 0.038945 0.038476
v -0.038878 0.014028 0.039252
v -0.023301 0.051417 0.034580
v -0.052121 0.010134 0.034576
v -0.022519 0.049857 0.002646
v 0.000073 0.007796 0.035360
v -0.002267 0.014028 -0.003590
v -0.027189 0.053755 0.022117
v -0.041990 0.007014 -0.002025
v -0.013175 0.033496 -0.002025
v -0.052121 0.007796 0.034576
v -0.024854 0.052972 0.035356
f 110 121 130 
f 96 93 97 
f 97 93 103 
f 96 97 104 
f 94 95 108 
f 95 99 108 
f 99 95 109 
f 97 99 109 
f 106 105 110 
f 108 98 111 
f 93 96 112 
f 96 104 113 
f 110 105 113 
f 99 97 114 
f 98 99 114 
f 101 98 114 
f 100 101 115 
f 107 100 115 
f 106 102 116 
f 99 98 117 
f 108 99 117 
f 98 108 117 
f 113 104 118 
f 102 106 119 
f 107 102 119 
f 106 110 119 
f 102 107 120 
f 101 112 120 
f 115 101 120 
f 107 115 120 
f 116 102 120 
f 112 116 120 
f 95 94 121 
f 110 113 121 
f 113 118 121 
f 98 101 122 
f 101 100 122 
f 111 98 122 
f 109 95 123 
f 95 121 123 
f 121 118 123 
f 105 106 124 
f 112 96 124 
f 96 113 124 
f 113 105 124 
f 106 116 124 
f 116 112 124 
f 104 97 125 
f 97 109 125 
f 100 94 126 
f 94 108 126 
f 108 111 126 
f 122 100 126 
f 111 122 126 
f 97 103 127 
f 114 97 127 
f 103 114 127 
f 118 104 128 
f 109 123 128 
f 123 118 128 
f 104 125 128 
f 125 109 128 
f 103 93 129 
f 93 112 129 
f 112 101 129 
f 101 114 129 
f 114 103 129 
f 94 100 130 
f 100 107 130 
f 107 119 130 
f 119 110 130 
f 121 94 130 
o convex_3
v 0.021108 -0.051412 -0.003590
v 0.033570 -0.014799 0.038477
v 0.030455 -0.014799 0.038477
v 0.042140 -0.008569 -0.003590
v 0.042140 -0.050631 0.035360
v 0.020329 -0.009346 -0.003590
v 0.020329 -0.050631 0.034578
v 0.042140 -0.050631 -0.003590
v 0.021108 -0.007787 0.035360
v 0.042140 -0.008569 0.034578
v 0.028119 -0.042056 0.038477
v 0.020329 -0.009346 0.035360
v 0.020329 -0.050631 -0.003590
v 0.032789 -0.007787 -0.001251
v 0.042140 -0.051412 0.023674
v 0.021108 -0.051412 0.035360
v 0.041358 -0.007787 0.034578
v 0.035126 -0.042056 0.038477
v 0.035906 -0.016362 0.038477
v 0.023446 -0.007787 0.007318
v 0.035906 -0.051412 -0.003590
v 0.041358 -0.007787 0.001088
v 0.021108 -0.008569 -0.003590
v 0.041358 -0.008569 0.035360
v 0.033570 -0.043619 0.038477
v 0.028897 -0.016362 0.038477
v 0.020329 -0.046732 0.035360
v 0.020329 -0.007787 0.028343
v 0.033570 -0.051412 0.034578
f 146 145 159 
f 134 131 136 
f 131 134 138 
f 134 135 138 
f 133 132 139 
f 135 134 140 
f 132 133 141 
f 136 137 142 
f 136 131 143 
f 131 137 143 
f 137 136 143 
f 138 135 145 
f 137 131 146 
f 131 145 146 
f 140 134 147 
f 144 139 147 
f 132 141 148 
f 148 135 149 
f 132 148 149 
f 139 144 150 
f 131 138 151 
f 145 131 151 
f 138 145 151 
f 134 144 152 
f 147 134 152 
f 144 147 152 
f 134 136 153 
f 144 134 153 
f 150 144 153 
f 139 132 154 
f 135 140 154 
f 147 139 154 
f 140 147 154 
f 149 135 154 
f 132 149 154 
f 146 135 155 
f 141 146 155 
f 135 148 155 
f 148 141 155 
f 133 139 156 
f 141 133 156 
f 139 142 156 
f 142 141 156 
f 142 137 157 
f 141 142 157 
f 137 146 157 
f 146 141 157 
f 136 142 158 
f 142 139 158 
f 139 150 158 
f 153 136 158 
f 150 153 158 
f 145 135 159 
f 135 146 159 
o convex_4
v 0.025782 0.008573 -0.003590
v 0.038243 0.050639 0.004201
v 0.039020 0.049859 0.032239
v 0.011763 0.035830 0.035360
v 0.049926 0.016370 0.035360
v 0.053043 0.035058 -0.003590
v 0.014876 0.043626 -0.003590
v 0.015657 0.015585 0.035360
v 0.010982 0.024154 -0.003590
v 0.045250 0.011689 -0.003590
v 0.051485 0.038950 0.035360
v 0.038243 0.008573 0.035360
v 0.023446 0.049079 0.035360
v 0.033571 0.032718 0.038477
v 0.025782 0.050639 -0.003590
v 0.047590 0.045182 -0.002807
v 0.053043 0.022602 0.004984
v 0.027341 0.008573 0.035360
v 0.017212 0.013249 -0.003590
v 0.053043 0.023374 0.035360
v 0.035907 0.007793 -0.003590
v 0.011763 0.023374 0.035360
v 0.010200 0.031942 -0.003590
v 0.043696 0.047523 0.035360
v 0.029677 0.050639 0.035360
v 0.014876 0.042062 0.035360
v 0.021111 0.010133 0.019779
v 0.049926 0.016370 -0.003590
v 0.053825 0.032718 0.023674
v 0.012540 0.018702 0.004201
v 0.029677 0.026490 0.038477
v 0.042137 0.049079 -0.003590
v 0.042919 0.010133 0.034578
v 0.017993 0.046738 0.004201
v 0.028118 0.007793 0.024452
v 0.011763 0.038174 0.004984
v 0.010982 0.027274 0.034578
v 0.053825 0.028834 0.000306
v 0.051485 0.039730 -0.003590
v 0.049149 0.042842 0.034578
v 0.039801 0.008573 0.004984
v 0.035907 0.028834 0.038477
v 0.021111 0.010909 0.035360
v 0.020329 0.047523 0.035360
v 0.014876 0.015585 0.024452
v 0.011763 0.021042 0.022892
v 0.053043 0.034278 0.035360
v 0.053043 0.023374 -0.003590
v 0.010200 0.027274 0.004201
v 0.036684 0.007793 0.022892
v 0.053825 0.025718 0.024452
v 0.028895 0.031158 0.038477
v 0.020329 0.048299 -0.003590
v 0.027341 0.007793 0.000306
v 0.052266 0.020257 0.024452
v 0.034348 0.050639 0.035360
v 0.044473 0.047523 0.023674
v 0.022665 0.009353 0.000306
v 0.052266 0.038174 0.024452
v 0.046032 0.012469 0.035360
v 0.014099 0.016370 -0.002807
v 0.010982 0.031942 0.034578
v 0.017993 0.012469 0.024452
v 0.037466 0.050639 -0.003590
f 191 174 223 
f 165 160 166 
f 166 160 168 
f 160 165 169 
f 165 166 174 
f 168 160 178 
f 160 169 180 
f 166 168 182 
f 173 170 183 
f 172 173 184 
f 161 174 184 
f 174 172 184 
f 169 165 187 
f 177 171 190 
f 181 167 190 
f 161 162 191 
f 165 174 191 
f 166 185 193 
f 171 177 194 
f 177 186 194 
f 182 163 195 
f 166 182 195 
f 163 185 195 
f 185 166 195 
f 181 163 196 
f 165 188 197 
f 165 191 198 
f 191 175 198 
f 183 170 199 
f 198 175 199 
f 180 169 200 
f 169 192 200 
f 170 173 201 
f 164 179 201 
f 190 171 201 
f 173 190 201 
f 186 177 202 
f 190 167 202 
f 177 190 202 
f 193 185 203 
f 167 181 205 
f 168 189 205 
f 181 196 205 
f 204 167 205 
f 189 204 205 
f 170 201 206 
f 201 179 206 
f 187 165 207 
f 176 187 207 
f 165 197 207 
f 182 168 208 
f 168 205 208 
f 205 196 208 
f 192 171 209 
f 171 194 209 
f 194 180 209 
f 180 200 209 
f 200 192 209 
f 197 188 210 
f 188 206 210 
f 206 179 210 
f 176 207 210 
f 207 197 210 
f 173 172 211 
f 163 181 211 
f 185 163 211 
f 190 173 211 
f 181 190 211 
f 172 203 211 
f 203 185 211 
f 174 166 212 
f 172 174 212 
f 166 193 212 
f 203 172 212 
f 193 203 212 
f 160 180 213 
f 180 194 213 
f 179 164 214 
f 164 187 214 
f 187 176 214 
f 176 210 214 
f 210 179 214 
f 162 161 215 
f 183 162 215 
f 173 183 215 
f 161 184 215 
f 184 173 215 
f 162 183 216 
f 191 162 216 
f 175 191 216 
f 183 199 216 
f 199 175 216 
f 178 160 217 
f 186 178 217 
f 194 186 217 
f 160 213 217 
f 213 194 217 
f 188 165 218 
f 165 198 218 
f 199 170 218 
f 198 199 218 
f 170 206 218 
f 206 188 218 
f 187 164 219 
f 169 187 219 
f 192 169 219 
f 171 192 219 
f 164 201 219 
f 201 171 219 
f 168 178 220 
f 189 168 220 
f 178 204 220 
f 204 189 220 
f 163 182 221 
f 196 163 221 
f 182 208 221 
f 208 196 221 
f 178 186 222 
f 186 202 222 
f 202 167 222 
f 167 204 222 
f 204 178 222 
f 174 161 223 
f 161 191 223 
