o convex_0
v -0.063637 0.008264 -0.002530
v -0.036959 0.019981 0.016339
v -0.036959 0.019981 -0.018145
v -0.036959 -0.024914 -0.017495
v -0.059080 -0.027518 0.007874
v -0.036959 -0.024265 0.016339
v -0.056477 -0.026214 -0.018145
v -0.057127 0.016723 -0.018145
v -0.061034 0.015419 0.007874
v -0.061684 -0.028817 -0.003183
v -0.042166 0.016074 0.016339
v -0.036959 -0.023610 -0.018799
v -0.063637 0.014120 0.003324
v -0.040213 -0.024265 0.016339
v -0.055176 0.015419 -0.018799
v -0.061684 -0.026863 0.004624
v -0.062334 0.014770 -0.007734
v -0.054529 -0.028167 -0.015542
v -0.061684 0.016074 -0.003183
v -0.059080 -0.028817 0.002671
v -0.061034 -0.027518 -0.007084
v -0.058430 0.007609 -0.017495
v -0.036959 0.019326 -0.018799
v -0.056477 -0.009949 -0.018799
v -0.038912 0.019981 0.015685
v -0.038912 0.019981 -0.017495
v -0.061034 0.007609 0.007874
v -0.062334 -0.026214 0.001370
v -0.049974 -0.025564 -0.018799
v -0.058430 0.016723 -0.016192
v -0.042166 -0.025564 0.012428
v -0.057127 -0.026214 -0.017495
v -0.040866 -0.015801 0.016339
v -0.055827 -0.027518 -0.018145
v -0.041516 0.019326 0.016339
v -0.060381 0.016074 0.007228
v -0.062334 -0.017100 -0.004480
v -0.062334 0.012816 0.006578
v -0.060381 -0.028817 0.004624
v -0.062334 -0.001495 -0.006434
v -0.063637 0.014120 -0.003830
v -0.061034 -0.027518 0.005924
v -0.059080 0.016074 -0.016192
v -0.062334 -0.025564 -0.001880
f 37 21 44 
f 3 2 4 
f 4 2 6 
f 6 2 11 
f 3 4 12 
f 6 11 14 
f 10 18 20 
f 8 3 23 
f 3 12 23 
f 15 8 23 
f 12 15 23 
f 8 15 24 
f 15 12 24 
f 22 8 24 
f 2 3 25 
f 3 8 26 
f 25 3 26 
f 11 9 27 
f 13 1 28 
f 10 16 28 
f 16 13 28 
f 7 24 29 
f 24 12 29 
f 17 19 30 
f 19 25 30 
f 25 26 30 
f 26 8 30 
f 4 6 31 
f 18 4 31 
f 20 18 31 
f 24 7 32 
f 22 24 32 
f 5 14 33 
f 14 11 33 
f 11 27 33 
f 27 5 33 
f 12 4 34 
f 4 18 34 
f 18 10 34 
f 10 21 34 
f 29 12 34 
f 7 29 34 
f 32 7 34 
f 21 32 34 
f 11 2 35 
f 9 11 35 
f 2 25 35 
f 35 25 36 
f 13 9 36 
f 19 13 36 
f 25 19 36 
f 9 35 36 
f 9 13 38 
f 13 16 38 
f 27 9 38 
f 14 5 39 
f 6 14 39 
f 10 20 39 
f 31 6 39 
f 20 31 39 
f 17 22 40 
f 32 21 40 
f 22 32 40 
f 21 37 40 
f 40 37 41 
f 1 13 41 
f 13 19 41 
f 19 17 41 
f 37 1 41 
f 17 40 41 
f 16 10 42 
f 5 27 42 
f 38 16 42 
f 27 38 42 
f 39 5 42 
f 10 39 42 
f 22 17 43 
f 8 22 43 
f 17 30 43 
f 30 8 43 
f 21 10 44 
f 28 1 44 
f 10 28 44 
f 1 37 44 
o convex_1
v -0.040212 0.008915 0.021544
v -0.036959 0.000456 0.025449
v -0.036959 0.019981 0.024798
v -0.036959 -0.024267 0.016339
v -0.036959 0.019981 0.016339
v -0.040863 0.019327 0.016339
v -0.038911 -0.023613 0.021544
v -0.040212 -0.015149 0.016339
v -0.039561 0.018677 0.024147
v -0.036959 -0.022959 0.024798
v -0.038261 -0.019706 0.024147
v -0.039561 -0.024267 0.016339
v -0.040863 0.014775 0.018943
v -0.037610 -0.005391 0.025449
f 55 54 58 
f 47 46 48 
f 47 48 49 
f 47 49 50 
f 49 48 50 
f 51 45 52 
f 50 48 52 
f 46 47 53 
f 47 50 53 
f 48 46 54 
f 51 48 54 
f 45 51 55 
f 53 45 55 
f 51 54 55 
f 48 51 56 
f 51 52 56 
f 52 48 56 
f 52 45 57 
f 50 52 57 
f 53 50 57 
f 45 53 57 
f 46 53 58 
f 54 46 58 
f 53 55 58 
o convex_2
v -0.001818 0.019327 0.031946
v 0.009888 -0.024267 -0.018789
v 0.010541 -0.024267 -0.018789
v -0.004424 0.023885 -0.018789
v -0.009629 -0.015151 0.001379
v 0.013145 0.008265 0.029995
v 0.013145 0.019978 -0.019445
v 0.008588 -0.021655 0.030001
v -0.006375 -0.020359 0.028050
v -0.007026 -0.019709 -0.020090
v -0.009629 0.008265 0.020242
v 0.013145 0.019978 0.022843
v 0.011843 -0.024267 0.025444
v -0.009629 0.008265 -0.016188
v -0.004424 0.023230 0.023493
v 0.013145 -0.007341 -0.014888
v -0.002471 -0.017102 0.033257
v 0.013145 0.022579 -0.010336
v 0.010541 0.015425 0.032602
v 0.011190 -0.022961 -0.020746
v -0.003122 0.018026 0.032602
v 0.009888 -0.019054 0.031946
v -0.005073 0.022579 -0.019445
v -0.004424 -0.021660 0.026094
v 0.010541 0.001761 -0.020746
v -0.000518 0.023230 0.023493
v -0.009629 -0.002788 0.020242
v -0.005073 -0.012549 0.031951
v 0.013145 -0.007341 0.018285
v -0.005073 0.023885 -0.009036
v -0.007026 -0.020359 -0.018789
v -0.009629 -0.002788 -0.016188
v 0.013145 0.019323 0.026749
v 0.007937 -0.024267 0.021542
v -0.000518 -0.019054 -0.020746
v 0.011843 -0.023607 -0.005124
v -0.002471 0.016725 0.033257
v -0.004424 0.019327 0.030651
v 0.013145 0.018022 -0.020095
v 0.008588 -0.019054 0.032602
v 0.012494 -0.014501 0.028050
v -0.003122 0.023885 0.003335
v -0.009629 -0.015151 -0.005129
v -0.009629 0.008915 0.018941
v 0.002083 0.016725 0.033257
v 0.009239 -0.024267 -0.018139
v 0.005336 0.020628 -0.020090
v -0.002471 0.022579 0.027394
v -0.007026 -0.020359 0.016335
v -0.007026 -0.009947 -0.020090
v 0.011843 0.020628 0.022192
v -0.001818 0.023885 -0.018139
v -0.009629 0.008915 -0.015538
v -0.006375 -0.018408 0.029350
v 0.012494 0.015425 0.031296
v 0.011843 -0.020359 0.029350
v 0.012494 -0.017107 0.022192
v -0.007677 -0.019058 -0.018789
v 0.001434 -0.022961 0.026099
v 0.009888 0.021279 -0.019440
v -0.005724 -0.009297 0.030651
v -0.005073 -0.021010 -0.014238
v -0.007677 -0.019709 -0.012282
v -0.004424 0.021929 0.028050
f 59 106 122 
f 64 65 70 
f 60 61 71 
f 63 69 72 
f 65 64 74 
f 67 66 75 
f 70 65 76 
f 61 60 78 
f 60 68 78 
f 66 71 80 
f 63 67 85 
f 69 63 85 
f 74 64 87 
f 62 81 88 
f 68 60 89 
f 72 68 90 
f 63 72 90 
f 64 70 91 
f 59 77 91 
f 60 71 92 
f 78 68 93 
f 83 78 93 
f 71 61 94 
f 61 78 94 
f 78 74 94 
f 59 79 95 
f 86 75 95 
f 79 86 95 
f 86 79 96 
f 65 74 97 
f 74 78 97 
f 78 83 97 
f 75 66 98 
f 66 80 98 
f 80 77 98 
f 87 64 99 
f 73 84 100 
f 84 76 100 
f 88 73 100 
f 62 88 100 
f 63 90 101 
f 72 69 102 
f 73 88 102 
f 77 59 103 
f 59 95 103 
f 95 75 103 
f 75 98 103 
f 98 77 103 
f 89 60 104 
f 60 92 104 
f 81 62 105 
f 93 81 105 
f 83 93 105 
f 97 83 105 
f 84 73 106 
f 59 91 106 
f 91 84 106 
f 67 63 107 
f 82 67 107 
f 89 82 107 
f 68 72 108 
f 72 81 108 
f 93 68 108 
f 81 93 108 
f 70 76 109 
f 76 84 109 
f 91 70 109 
f 84 91 109 
f 62 100 110 
f 100 76 110 
f 81 72 111 
f 88 81 111 
f 72 102 111 
f 102 88 111 
f 67 75 112 
f 85 67 112 
f 69 85 112 
f 75 86 112 
f 80 64 113 
f 77 80 113 
f 64 91 113 
f 91 77 113 
f 64 80 114 
f 80 71 114 
f 99 64 114 
f 71 99 114 
f 74 87 115 
f 71 94 115 
f 94 74 115 
f 99 71 115 
f 87 99 115 
f 68 89 116 
f 90 68 116 
f 101 90 116 
f 66 67 117 
f 71 66 117 
f 67 82 117 
f 92 71 117 
f 82 104 117 
f 104 92 117 
f 76 65 118 
f 65 97 118 
f 105 62 118 
f 97 105 118 
f 62 110 118 
f 110 76 118 
f 96 69 119 
f 86 96 119 
f 69 112 119 
f 112 86 119 
f 82 89 120 
f 89 104 120 
f 104 82 120 
f 63 101 121 
f 107 63 121 
f 89 107 121 
f 116 89 121 
f 101 116 121 
f 79 59 122 
f 69 96 122 
f 96 79 122 
f 102 69 122 
f 73 102 122 
f 106 73 122 
o convex_3
v 0.049584 -0.014500 -0.016193
v 0.059342 0.031040 0.022195
v 0.059342 0.031690 0.021538
v 0.038526 0.018023 0.019589
v 0.042427 0.025829 -0.016193
v 0.041127 -0.013200 0.019589
v 0.062598 -0.006044 0.001375
v 0.038526 -0.005389 -0.016193
v 0.054139 0.032340 -0.009035
v 0.063246 -0.002139 0.022195
v 0.042427 -0.019061 -0.011638
v 0.038526 0.022579 -0.016847
v 0.038526 -0.005389 0.020242
v 0.059342 -0.009950 -0.008386
v 0.058691 0.032990 0.004623
v 0.048935 0.027135 -0.014890
v 0.055439 0.033646 0.000725
v 0.057392 -0.006044 0.022195
v 0.040476 -0.017756 -0.015543
v 0.048284 0.023884 0.022195
v 0.054790 -0.007995 -0.013591
v 0.063246 0.001117 0.015034
v 0.058043 0.030385 -0.001224
v 0.058043 -0.011245 -0.007732
v 0.043078 -0.013850 0.017640
v 0.038526 0.023229 -0.013591
v 0.056741 0.031040 0.021538
v 0.043729 -0.017756 -0.016847
v 0.043729 0.019974 -0.016847
v 0.052186 -0.007344 0.022195
v 0.038526 0.018673 0.018290
v 0.060645 -0.004089 -0.005129
v 0.059993 0.029085 0.015683
v 0.056090 0.005667 -0.010988
v 0.063246 -0.004094 0.015687
v 0.047633 0.029740 -0.013591
v 0.062598 -0.004094 0.001375
v 0.040476 -0.017106 -0.005129
v 0.055439 -0.012550 -0.012937
v 0.051537 0.027785 -0.012937
v 0.056741 0.021929 -0.007082
v 0.038526 0.016073 0.020242
v 0.051537 -0.009950 -0.015543
v 0.063246 -0.002139 0.009179
v 0.063246 0.000461 0.021542
v 0.038526 -0.006689 0.010482
v 0.058691 -0.008645 -0.009685
v 0.045680 0.026479 -0.016193
v 0.061296 -0.007995 0.001375
v 0.043078 -0.018406 -0.008386
v 0.052186 0.032340 -0.006433
v 0.059342 0.032340 0.010478
v 0.057392 0.032990 0.013084
v 0.057392 0.033646 -0.001224
v 0.041127 -0.018406 -0.007082
v 0.040476 -0.013850 0.013084
v 0.038526 -0.006689 -0.014236
v 0.061947 -0.005389 -0.001877
v 0.042427 -0.017756 -0.016847
f 150 133 181 
f 130 126 134 
f 126 130 135 
f 132 124 140 
f 140 124 142 
f 140 128 147 
f 127 134 148 
f 134 126 148 
f 124 125 149 
f 142 124 149 
f 126 142 149 
f 123 150 151 
f 150 134 151 
f 135 128 152 
f 128 140 152 
f 142 135 152 
f 140 142 152 
f 148 126 153 
f 126 149 153 
f 132 140 157 
f 144 132 157 
f 131 138 158 
f 127 148 158 
f 145 137 159 
f 146 133 161 
f 136 146 161 
f 150 123 161 
f 133 150 161 
f 138 131 162 
f 143 138 162 
f 131 156 162 
f 156 143 162 
f 131 145 163 
f 145 154 163 
f 156 131 163 
f 126 135 164 
f 142 126 164 
f 135 142 164 
f 138 143 165 
f 161 123 165 
f 143 161 165 
f 144 157 166 
f 157 129 166 
f 129 159 166 
f 159 137 166 
f 125 124 167 
f 124 132 167 
f 132 144 167 
f 155 125 167 
f 144 155 167 
f 135 130 168 
f 160 135 168 
f 141 160 168 
f 154 136 169 
f 143 156 169 
f 161 143 169 
f 136 161 169 
f 163 154 169 
f 156 163 169 
f 134 127 170 
f 151 134 170 
f 123 151 170 
f 127 158 170 
f 158 138 170 
f 138 165 170 
f 165 123 170 
f 136 129 171 
f 146 136 171 
f 140 147 171 
f 147 146 171 
f 157 140 171 
f 129 157 171 
f 133 146 172 
f 146 147 172 
f 147 133 172 
f 139 131 173 
f 148 153 173 
f 153 139 173 
f 131 158 173 
f 158 148 173 
f 137 125 174 
f 125 155 174 
f 155 144 174 
f 166 137 174 
f 144 166 174 
f 125 137 175 
f 149 125 175 
f 139 153 175 
f 153 149 175 
f 131 139 176 
f 145 131 176 
f 137 145 176 
f 175 137 176 
f 139 175 176 
f 141 133 177 
f 147 128 177 
f 133 147 177 
f 160 141 177 
f 160 177 178 
f 128 135 178 
f 135 160 178 
f 177 128 178 
f 130 141 179 
f 168 130 179 
f 141 168 179 
f 129 136 180 
f 136 154 180 
f 154 145 180 
f 159 129 180 
f 145 159 180 
f 130 134 181 
f 141 130 181 
f 133 141 181 
f 134 150 181 
o convex_4
v 0.062598 -0.002793 0.024798
v 0.051536 0.021933 0.043018
v 0.050236 0.021933 0.043018
v 0.057391 0.031043 0.022195
v 0.052189 -0.006044 0.022195
v 0.053489 -0.003443 0.042363
v 0.048933 0.024533 0.022195
v 0.057391 0.025834 0.035209
v 0.058042 -0.000189 0.039110
v 0.062598 0.005017 0.022195
v 0.050236 0.014770 0.042363
v 0.059342 0.031043 0.024148
v 0.061947 0.000462 0.030004
v 0.055441 -0.006698 0.022195
v 0.052189 -0.000839 0.042363
v 0.048933 0.019978 0.022848
v 0.053489 0.025834 0.038462
v 0.054792 -0.003443 0.042363
v 0.053489 0.021933 0.041715
v 0.058694 0.029088 0.030004
v 0.060644 -0.002143 0.033907
v 0.062598 -0.002793 0.022195
v 0.060644 0.001762 0.033907
v 0.050236 0.025834 0.024148
v 0.054141 0.001112 0.043018
v 0.059342 0.031043 0.022195
v 0.062598 0.001762 0.026100
v 0.055441 0.025834 0.038462
v 0.054792 -0.006698 0.024798
v 0.050236 0.023229 0.040411
v 0.057391 0.031043 0.024148
v 0.059342 -0.003443 0.031958
f 199 210 213 
f 185 186 188 
f 186 185 191 
f 186 191 195 
f 186 187 196 
f 184 192 196 
f 196 192 197 
f 184 188 197 
f 188 186 197 
f 192 184 197 
f 186 196 197 
f 184 183 198 
f 182 194 202 
f 190 199 202 
f 191 182 203 
f 182 195 203 
f 195 191 203 
f 189 190 204 
f 194 201 204 
f 201 189 204 
f 190 202 204 
f 202 194 204 
f 185 188 205 
f 183 184 206 
f 184 196 206 
f 196 187 206 
f 187 199 206 
f 199 190 206 
f 190 200 206 
f 200 183 206 
f 191 185 207 
f 185 193 207 
f 193 191 207 
f 182 191 208 
f 191 193 208 
f 194 182 208 
f 193 201 208 
f 201 194 208 
f 190 189 209 
f 198 183 209 
f 200 190 209 
f 183 200 209 
f 189 201 209 
f 201 198 209 
f 187 186 210 
f 186 195 210 
f 195 182 210 
f 199 187 210 
f 188 184 211 
f 184 198 211 
f 205 188 211 
f 205 211 212 
f 193 185 212 
f 201 193 212 
f 198 201 212 
f 185 205 212 
f 211 198 212 
f 182 202 213 
f 202 199 213 
f 210 182 213 
o convex_5
v -0.012885 -0.005392 0.031305
v -0.029150 -0.021013 -0.018799
v -0.010932 -0.021013 -0.018799
v -0.018741 0.021933 -0.019449
v -0.036959 0.019978 0.024792
v -0.036959 -0.021013 0.025448
v -0.036959 0.019978 -0.018794
v -0.010932 0.021933 0.022193
v -0.010282 -0.019710 0.026098
v -0.036959 -0.021013 -0.018794
v -0.009629 0.007615 -0.016195
v -0.030450 0.015425 0.030003
v -0.011582 0.021933 -0.019449
v -0.012232 0.020630 0.029348
v -0.029800 -0.018403 0.029998
v -0.036306 0.021933 -0.008380
v -0.009629 -0.017759 0.022839
v -0.010282 -0.017759 -0.019449
v -0.009629 0.007615 0.020236
v -0.016138 -0.021013 0.024792
v -0.010282 -0.015800 0.029348
v -0.023294 0.021933 0.024141
v -0.030450 0.003062 -0.019449
v -0.015488 0.019327 0.030654
v -0.009629 -0.015149 -0.014243
v -0.014838 -0.015800 0.031305
v -0.035006 0.021933 -0.018143
v -0.010282 -0.021013 -0.008385
v -0.023294 0.014774 0.030654
v -0.011582 0.020630 0.028051
v -0.019394 -0.019058 -0.019449
v -0.033053 0.021933 0.005928
v -0.014838 0.021933 0.027400
v -0.031753 0.015425 0.029348
v -0.027847 -0.021013 0.026749
v -0.011582 -0.017108 0.029998
v -0.036959 0.008918 0.025448
v -0.030450 -0.008646 0.030003
v -0.035656 0.020630 0.022189
v -0.012885 0.015425 0.030654
v -0.011582 -0.020362 0.025448
v -0.010932 0.021933 0.013728
v -0.009629 0.008266 -0.015544
v -0.009629 -0.019058 0.013077
v -0.012232 -0.015149 0.031305
v -0.029800 0.012172 -0.019449
v -0.014838 0.000460 0.031305
v -0.010282 -0.013202 0.029348
f 253 258 261 
f 215 216 219 
f 219 218 220 
f 215 219 223 
f 219 220 223 
f 217 221 226 
f 220 218 229 
f 221 217 229 
f 217 226 231 
f 226 224 231 
f 230 224 232 
f 219 216 233 
f 222 230 234 
f 221 229 235 
f 223 220 236 
f 217 231 236 
f 218 225 237 
f 224 230 238 
f 231 224 238 
f 217 220 240 
f 229 217 240 
f 220 229 240 
f 216 231 241 
f 233 216 241 
f 231 238 241 
f 237 225 242 
f 221 227 243 
f 232 221 243 
f 216 215 244 
f 215 223 244 
f 231 216 244 
f 223 236 244 
f 236 231 244 
f 235 229 245 
f 227 221 246 
f 235 218 246 
f 221 235 246 
f 218 237 246 
f 237 227 246 
f 225 218 247 
f 228 219 248 
f 219 233 248 
f 222 234 249 
f 239 228 249 
f 228 248 249 
f 218 219 250 
f 247 218 250 
f 219 247 250 
f 219 228 251 
f 228 239 251 
f 242 225 251 
f 239 242 251 
f 247 219 251 
f 225 247 251 
f 229 218 252 
f 218 235 252 
f 245 229 252 
f 235 245 252 
f 227 237 253 
f 241 222 254 
f 233 241 254 
f 248 233 254 
f 222 249 254 
f 249 248 254 
f 226 221 255 
f 226 255 256 
f 224 226 256 
f 221 232 256 
f 232 224 256 
f 255 221 256 
f 230 222 257 
f 238 230 257 
f 222 241 257 
f 241 238 257 
f 214 239 258 
f 249 234 258 
f 239 249 258 
f 253 214 258 
f 220 217 259 
f 217 236 259 
f 236 220 259 
f 239 214 260 
f 237 242 260 
f 242 239 260 
f 214 253 260 
f 253 237 260 
f 230 232 261 
f 234 230 261 
f 243 227 261 
f 232 243 261 
f 227 253 261 
f 258 234 261 
o convex_6
v -0.036959 0.024536 -0.008383
v -0.010931 0.022584 0.021541
v -0.010931 0.021933 0.021541
v -0.018090 0.023885 -0.030506
v -0.033703 0.021933 -0.024650
v -0.031751 0.021933 0.008525
v -0.022648 0.024536 0.013734
v -0.011583 0.021933 -0.018795
v -0.012233 0.024536 -0.018142
v -0.029150 0.024536 -0.033110
v -0.011583 0.023885 0.022194
v -0.018740 0.021933 0.024792
v -0.031102 0.024536 0.010477
v -0.027848 0.022584 -0.031811
v -0.036307 0.021933 -0.005132
v -0.036307 0.024536 -0.018795
v -0.014184 0.023234 0.025445
v -0.021344 0.024536 -0.033757
v -0.035657 0.024536 0.000718
v -0.013535 0.024536 0.001370
v -0.036307 0.021933 -0.016843
v -0.023945 0.023234 -0.033757
v -0.011583 0.023885 -0.018795
v -0.033051 0.023234 -0.028554
v -0.012233 0.021933 0.026750
f 278 273 286 
f 266 264 267 
f 263 264 269 
f 264 266 269 
f 262 268 270 
f 262 270 271 
f 267 264 273 
f 268 262 274 
f 267 273 274 
f 269 266 275 
f 266 267 276 
f 262 271 277 
f 272 268 278 
f 274 273 278 
f 268 274 278 
f 270 265 279 
f 271 270 279 
f 274 262 280 
f 267 274 280 
f 262 276 280 
f 276 267 280 
f 270 268 281 
f 268 272 281 
f 272 270 281 
f 276 262 282 
f 266 276 282 
f 262 277 282 
f 265 269 283 
f 269 275 283 
f 275 271 283 
f 279 265 283 
f 271 279 283 
f 263 269 284 
f 269 265 284 
f 265 270 284 
f 272 263 284 
f 270 272 284 
f 275 266 285 
f 271 275 285 
f 277 271 285 
f 266 282 285 
f 282 277 285 
f 264 263 286 
f 263 272 286 
f 273 264 286 
f 272 278 286 
o convex_7
v -0.036959 0.024536 -0.013589
v -0.012232 0.029094 -0.004488
v -0.012232 0.025838 -0.004488
v -0.021345 0.025838 -0.034407
v -0.031099 0.041453 -0.029859
v -0.027197 0.040802 0.013082
v -0.013534 0.042755 -0.018146
v -0.027197 0.024536 0.013736
v -0.036305 0.039501 -0.001235
v -0.016139 0.040151 0.007880
v -0.014186 0.024536 -0.023998
v -0.019392 0.040802 -0.032463
v -0.032401 0.024536 -0.029859
v -0.020694 0.024536 0.013082
v -0.036305 0.039501 -0.020095
v -0.033703 0.024536 0.006571
v -0.013534 0.042755 -0.003839
v -0.027197 0.039501 -0.034407
v -0.014837 0.024536 0.005271
v -0.031750 0.038197 0.010473
v -0.021994 0.039501 0.013736
v -0.027197 0.024536 -0.034407
v -0.035654 0.040802 -0.013589
v -0.012232 0.024536 -0.014243
v -0.019392 0.042755 -0.028550
v -0.019392 0.042104 0.007880
v -0.016139 0.038197 -0.028550
v -0.031750 0.039501 -0.031159
v -0.036305 0.024536 -0.001885
v -0.035006 0.025187 -0.024652
v -0.012883 0.040802 -0.017496
v -0.017439 0.025838 -0.031159
v -0.012883 0.039501 -0.001885
v -0.036959 0.039501 -0.005138
v -0.023296 0.040802 -0.034407
v -0.030450 0.040802 0.009829
v -0.034355 0.038848 0.005926
v -0.018092 0.025187 0.011133
v -0.012232 0.038197 -0.011640
v -0.035006 0.038848 -0.025302
v -0.014837 0.042104 -0.024652
v -0.013534 0.032345 -0.022698
v -0.036959 0.038197 -0.016847
v -0.013534 0.031696 0.002018
v -0.018741 0.038848 0.011782
v -0.027846 0.037548 0.013736
v -0.029799 0.025838 -0.033112
v -0.025898 0.042104 -0.033112
v -0.018092 0.042755 -0.014893
v -0.020694 0.024536 -0.033762
v -0.023947 0.025838 -0.035066
v -0.031750 0.024536 0.009829
v -0.019392 0.041453 0.011133
v -0.036305 0.034946 0.000069
v -0.014186 0.041453 0.002668
v -0.012232 0.027140 -0.016192
v -0.014837 0.026490 -0.026601
v -0.036305 0.028441 -0.020095
v -0.036959 0.027140 -0.005792
v -0.016139 0.029742 0.008529
v -0.035654 0.040151 0.000714
v -0.012883 0.042755 -0.011640
v -0.029799 0.033646 0.012432
f 306 338 349 
f 294 287 297 
f 297 287 299 
f 294 297 300 
f 287 294 302 
f 300 297 305 
f 294 300 307 
f 297 299 308 
f 291 301 309 
f 288 289 310 
f 289 305 310 
f 305 297 310 
f 303 293 311 
f 287 302 315 
f 299 287 316 
f 290 298 318 
f 298 313 318 
f 309 301 320 
f 298 290 321 
f 306 292 322 
f 312 309 322 
f 292 312 322 
f 302 306 323 
f 306 322 323 
f 300 305 324 
f 288 310 325 
f 319 288 325 
f 301 291 326 
f 291 314 326 
f 314 299 326 
f 299 316 326 
f 311 293 327 
f 298 311 327 
f 313 298 327 
f 293 317 327 
f 327 317 328 
f 313 327 328 
f 287 320 329 
f 320 301 329 
f 289 288 330 
f 305 289 330 
f 288 319 330 
f 307 300 331 
f 300 324 331 
f 292 306 332 
f 307 292 332 
f 294 307 332 
f 308 299 333 
f 304 308 333 
f 299 314 333 
f 314 304 333 
f 291 309 334 
f 311 298 334 
f 314 291 334 
f 304 314 334 
f 298 321 334 
f 321 304 334 
f 303 311 335 
f 309 312 335 
f 312 303 335 
f 334 309 335 
f 311 334 335 
f 297 308 336 
f 290 318 336 
f 318 297 336 
f 308 304 337 
f 321 290 337 
f 304 321 337 
f 290 336 337 
f 336 308 337 
f 302 294 338 
f 306 302 338 
f 292 307 339 
f 303 312 339 
f 312 292 339 
f 331 296 339 
f 307 331 339 
f 315 302 340 
f 295 320 340 
f 302 323 340 
f 323 295 340 
f 319 303 341 
f 296 330 341 
f 330 319 341 
f 339 296 341 
f 303 339 341 
f 310 297 342 
f 325 310 342 
f 317 325 342 
f 328 317 342 
f 297 328 342 
f 297 318 343 
f 318 313 343 
f 328 297 343 
f 313 328 343 
f 316 287 344 
f 301 326 344 
f 326 316 344 
f 287 329 344 
f 329 301 344 
f 287 315 345 
f 320 287 345 
f 315 340 345 
f 340 320 345 
f 324 305 346 
f 305 330 346 
f 330 296 346 
f 296 331 346 
f 331 324 346 
f 320 295 347 
f 309 320 347 
f 322 309 347 
f 295 323 347 
f 323 322 347 
f 293 303 348 
f 317 293 348 
f 303 319 348 
f 325 317 348 
f 319 325 348 
f 332 306 349 
f 294 332 349 
f 338 294 349 
o convex_8
v -0.033705 -0.036629 -0.014240
v -0.009629 -0.032727 -0.004490
v -0.009629 -0.037929 -0.004490
v -0.018092 -0.028172 -0.034415
v -0.025243 -0.024919 0.011784
v -0.025895 -0.042486 0.009831
v -0.022643 -0.041184 -0.033764
v -0.031101 -0.024919 -0.026604
v -0.010282 -0.024917 -0.020094
v -0.015488 -0.024919 0.009831
v -0.011583 -0.039231 -0.024651
v -0.033053 -0.026219 -0.001882
v -0.031101 -0.042486 -0.024651
v -0.017440 -0.040533 0.011133
v -0.031752 -0.042486 0.000718
v -0.025895 -0.024919 -0.033764
v -0.012234 -0.039882 0.003321
v -0.010933 -0.024917 0.000718
v -0.029150 -0.024919 0.007878
v -0.014187 -0.024919 -0.030510
v -0.016139 -0.038582 -0.033113
v -0.028499 -0.039231 -0.031160
v -0.029798 -0.043137 -0.017495
v -0.033705 -0.025568 -0.016193
v -0.033053 -0.043137 -0.008396
v -0.009629 -0.038580 -0.016839
v -0.020041 -0.039882 0.012435
v -0.012884 -0.037931 0.006576
v -0.022643 -0.038582 -0.035066
v -0.028499 -0.039231 0.008529
v -0.019393 -0.024919 0.012435
v -0.032402 -0.028823 -0.024000
v -0.014187 -0.040533 0.003972
v -0.009629 -0.024917 -0.007740
v -0.018092 -0.040533 -0.033113
v -0.033705 -0.031425 -0.005136
v -0.031752 -0.028823 0.003321
v -0.020694 -0.024919 -0.035066
v -0.011583 -0.037929 -0.025953
v -0.023294 -0.038582 0.012435
v -0.033053 -0.041184 -0.018146
v -0.028499 -0.043137 0.003972
v -0.033053 -0.024919 -0.003834
v -0.029798 -0.026219 -0.029859
v -0.010933 -0.037280 0.002020
v -0.017440 -0.038582 0.011784
v -0.012234 -0.039882 -0.012287
v -0.025243 -0.040533 -0.033764
v -0.012884 -0.024917 0.005925
v -0.020041 -0.038582 -0.035066
v -0.031101 -0.037280 -0.026604
v -0.026546 -0.030123 0.011133
v -0.011583 -0.026221 -0.025302
v -0.010282 -0.036629 -0.022047
v -0.009629 -0.025570 -0.015542
v -0.013537 -0.038582 -0.029859
v -0.029798 -0.041835 0.005925
v -0.027196 -0.027521 -0.033113
v -0.027847 -0.042486 -0.027906
v -0.021345 -0.041835 0.011133
v -0.033053 -0.040533 -0.003834
v -0.025243 -0.025568 -0.034415
v -0.024594 -0.040533 0.011784
f 355 409 412 
f 357 358 365 
f 353 369 370 
f 362 372 374 
f 351 352 375 
f 352 366 375 
f 363 366 377 
f 373 357 381 
f 366 363 382 
f 367 351 383 
f 358 367 383 
f 351 375 383 
f 373 350 385 
f 368 361 386 
f 379 368 386 
f 361 385 386 
f 365 358 387 
f 369 353 387 
f 358 369 387 
f 380 354 389 
f 376 380 389 
f 350 373 390 
f 374 350 390 
f 362 374 390 
f 373 381 390 
f 364 374 391 
f 374 372 391 
f 372 382 391 
f 361 368 392 
f 357 373 392 
f 385 361 392 
f 373 385 392 
f 357 365 393 
f 381 357 393 
f 352 351 394 
f 366 352 394 
f 351 367 394 
f 377 366 394 
f 376 363 395 
f 377 359 395 
f 363 377 395 
f 359 380 395 
f 380 376 395 
f 360 375 396 
f 375 366 396 
f 366 382 396 
f 382 372 396 
f 384 360 396 
f 372 384 396 
f 362 371 397 
f 378 356 397 
f 358 357 398 
f 367 358 398 
f 368 354 398 
f 359 377 398 
f 380 359 398 
f 354 380 398 
f 357 392 398 
f 392 368 398 
f 394 367 398 
f 377 394 398 
f 353 370 399 
f 356 378 399 
f 370 384 399 
f 384 356 399 
f 387 353 399 
f 378 387 399 
f 371 362 400 
f 362 390 400 
f 390 381 400 
f 393 371 400 
f 381 393 400 
f 354 368 401 
f 368 379 401 
f 389 354 401 
f 369 358 402 
f 388 369 402 
f 388 402 403 
f 375 360 403 
f 360 388 403 
f 402 358 403 
f 358 383 404 
f 383 375 404 
f 403 358 404 
f 375 403 404 
f 370 369 405 
f 360 384 405 
f 384 370 405 
f 369 388 405 
f 388 360 405 
f 355 379 406 
f 386 364 406 
f 379 386 406 
f 391 355 406 
f 364 391 406 
f 393 365 407 
f 371 393 407 
f 397 371 407 
f 372 362 408 
f 356 384 408 
f 384 372 408 
f 397 356 408 
f 362 397 408 
f 363 376 409 
f 382 363 409 
f 355 391 409 
f 391 382 409 
f 350 374 410 
f 374 364 410 
f 385 350 410 
f 364 386 410 
f 386 385 410 
f 365 387 411 
f 387 378 411 
f 378 397 411 
f 407 365 411 
f 397 407 411 
f 379 355 412 
f 376 389 412 
f 401 379 412 
f 389 401 412 
f 409 376 412 
o convex_9
v -0.024594 -0.024266 -0.034415
v -0.009629 -0.024266 -0.009033
v -0.009629 -0.024917 -0.009033
v -0.036959 -0.021014 0.025448
v -0.012885 -0.021014 -0.025951
v -0.036959 -0.024266 0.024145
v -0.036959 -0.021014 -0.018789
v -0.020694 -0.021014 0.024145
v -0.033053 -0.024917 -0.018144
v -0.015488 -0.024917 0.009827
v -0.014185 -0.024917 -0.030506
v -0.010932 -0.021014 -0.003187
v -0.036959 -0.024266 -0.018144
v -0.020044 -0.021664 -0.032461
v -0.011582 -0.024917 0.002672
v -0.028497 -0.024917 -0.031158
v -0.021344 -0.021664 0.024796
v -0.029150 -0.024917 0.007227
v -0.010282 -0.021664 -0.018144
v -0.010282 -0.024917 -0.020098
v -0.016791 -0.022965 -0.033112
v -0.024594 -0.022965 -0.033764
v -0.018741 -0.024917 -0.034415
v -0.010932 -0.022965 0.000071
v -0.030450 -0.021664 0.026099
v -0.018091 -0.024917 0.011782
f 430 422 438 
f 418 416 419 
f 416 417 419 
f 417 416 420 
f 421 415 422 
f 415 421 423 
f 417 420 424 
f 418 419 425 
f 421 418 425 
f 419 417 426 
f 422 415 427 
f 423 421 428 
f 425 419 428 
f 421 425 428 
f 422 427 429 
f 427 420 429 
f 418 421 430 
f 421 422 430 
f 424 414 431 
f 417 424 431 
f 414 415 432 
f 423 417 432 
f 415 423 432 
f 431 414 432 
f 417 431 432 
f 417 423 433 
f 426 417 433 
f 426 433 434 
f 419 426 434 
f 413 428 434 
f 428 419 434 
f 428 413 435 
f 423 428 435 
f 433 423 435 
f 434 433 435 
f 413 434 435 
f 415 414 436 
f 414 424 436 
f 424 420 436 
f 427 415 436 
f 420 427 436 
f 416 418 437 
f 420 416 437 
f 418 429 437 
f 429 420 437 
f 429 418 438 
f 422 429 438 
f 418 430 438 
o convex_10
v 0.013145 -0.034025 -0.017496
v 0.038522 -0.036628 -0.009683
v 0.037869 -0.023619 -0.007082
v 0.018352 -0.023617 0.024798
v 0.022905 -0.023617 -0.034414
v 0.028109 -0.042486 0.011784
v 0.030061 -0.041835 -0.033762
v 0.013798 -0.042486 -0.004488
v 0.033966 -0.022967 0.019585
v 0.033966 -0.022967 -0.028549
v 0.019002 -0.042486 -0.031162
v 0.013798 -0.023617 -0.006431
v 0.036570 -0.041835 0.000061
v 0.036570 -0.041183 -0.024000
v 0.015751 -0.024270 -0.026606
v 0.018352 -0.042486 0.008526
v 0.016402 -0.022965 -0.016844
v 0.037221 -0.024918 -0.021394
v 0.014449 -0.041181 -0.022703
v 0.027458 -0.025572 -0.035717
v 0.020955 -0.040531 -0.034414
v 0.017701 -0.022965 0.022843
v 0.013145 -0.025572 -0.004488
v 0.033966 -0.041183 0.007874
v 0.033966 -0.028824 -0.030504
v 0.022905 -0.042486 0.012430
v 0.037869 -0.041835 -0.012935
v 0.028760 -0.041181 0.013081
v 0.017701 -0.026221 -0.031162
v 0.013145 -0.024270 -0.015541
v 0.013798 -0.041181 -0.001882
v 0.024857 -0.042486 -0.033762
v 0.037869 -0.039230 -0.003191
v 0.028109 -0.039230 -0.035717
v 0.022905 -0.023617 0.024146
v 0.013145 -0.041835 -0.012289
v 0.032665 -0.039230 -0.032459
v 0.016402 -0.040531 -0.028555
v 0.023556 -0.026221 -0.035717
v 0.030712 -0.024270 -0.033762
v 0.014449 -0.026221 -0.024000
v 0.037869 -0.038580 -0.019445
v 0.015100 -0.041835 0.002674
v 0.037221 -0.022967 -0.018142
v 0.037869 -0.027521 -0.003836
v 0.025508 -0.022965 -0.033762
v 0.037869 -0.024918 -0.017490
v 0.033966 -0.023619 0.019585
v 0.024207 -0.040531 -0.035717
v 0.035919 -0.039230 -0.026601
v 0.030061 -0.042486 0.010481
v 0.034617 -0.041835 -0.027904
v 0.015100 -0.042486 -0.023349
v 0.036570 -0.040531 0.002016
v 0.013145 -0.033375 -0.004488
v 0.017701 -0.023617 -0.029207
v 0.020955 -0.025572 -0.034414
v 0.035919 -0.024918 -0.025949
v 0.030712 -0.041181 0.011784
v 0.027458 -0.041835 0.013081
v 0.031363 -0.030123 -0.033762
f 478 463 499 
f 444 446 449 
f 446 444 454 
f 455 450 460 
f 460 450 461 
f 442 454 464 
f 454 444 464 
f 450 455 468 
f 439 461 468 
f 461 450 468 
f 444 449 470 
f 449 459 470 
f 465 440 471 
f 451 465 471 
f 460 442 473 
f 447 460 473 
f 439 457 474 
f 461 439 474 
f 446 469 474 
f 445 472 475 
f 459 449 476 
f 467 459 476 
f 443 458 477 
f 458 472 477 
f 448 463 478 
f 457 439 479 
f 453 467 479 
f 439 468 479 
f 468 453 479 
f 476 457 479 
f 467 476 479 
f 440 465 480 
f 465 452 480 
f 454 442 481 
f 446 454 481 
f 442 460 481 
f 469 446 481 
f 460 469 481 
f 447 441 482 
f 440 441 483 
f 441 447 483 
f 471 440 483 
f 447 471 483 
f 458 443 484 
f 460 447 484 
f 455 460 484 
f 448 478 484 
f 478 458 484 
f 447 482 484 
f 482 448 484 
f 441 440 485 
f 440 480 485 
f 480 456 485 
f 482 441 485 
f 456 482 485 
f 471 447 486 
f 447 473 486 
f 473 466 486 
f 445 470 487 
f 470 459 487 
f 472 445 487 
f 459 477 487 
f 477 472 487 
f 475 463 488 
f 456 480 488 
f 480 452 488 
f 451 462 489 
f 465 451 489 
f 444 470 489 
f 470 465 489 
f 452 465 490 
f 470 445 490 
f 465 470 490 
f 445 475 490 
f 488 452 490 
f 475 488 490 
f 449 446 491 
f 446 474 491 
f 474 457 491 
f 476 449 491 
f 457 476 491 
f 462 451 492 
f 451 471 492 
f 486 462 492 
f 471 486 492 
f 460 461 493 
f 469 460 493 
f 461 474 493 
f 474 469 493 
f 467 453 494 
f 453 468 494 
f 468 455 494 
f 484 443 494 
f 455 484 494 
f 459 467 495 
f 443 477 495 
f 477 459 495 
f 494 443 495 
f 467 494 495 
f 463 448 496 
f 448 482 496 
f 482 456 496 
f 456 488 496 
f 488 463 496 
f 462 486 497 
f 486 466 497 
f 489 462 497 
f 444 489 497 
f 442 464 498 
f 464 444 498 
f 473 442 498 
f 466 473 498 
f 444 497 498 
f 497 466 498 
f 472 458 499 
f 463 475 499 
f 475 472 499 
f 458 478 499 
o convex_11
v 0.017049 -0.022964 0.005272
v 0.035269 -0.022313 0.001378
v 0.034618 -0.011253 0.020889
v 0.017049 -0.011253 -0.019444
v 0.018351 -0.011253 0.028697
v 0.033967 -0.022964 -0.020095
v 0.033967 -0.011253 -0.020095
v 0.030710 -0.022964 0.022190
v 0.017049 -0.022964 -0.018794
v 0.018351 -0.022964 0.026095
v 0.022906 -0.019060 0.029999
v 0.033967 -0.020361 0.022841
v 0.032014 -0.011253 0.025444
v 0.017700 -0.011253 0.024793
v 0.030710 -0.022964 -0.020746
v 0.034618 -0.022964 0.014382
v 0.022906 -0.011253 0.029999
v 0.017049 -0.011253 0.003981
v 0.035269 -0.022313 -0.005780
v 0.019653 -0.019711 0.029999
v 0.031361 -0.011253 -0.020746
v 0.017700 -0.021662 0.024793
v 0.032014 -0.019060 0.025444
v 0.034618 -0.021662 0.020238
v 0.017700 -0.022964 -0.019444
v 0.034618 -0.011253 0.009176
v 0.034618 -0.022964 -0.017492
v 0.022255 -0.020361 0.029348
f 522 510 527 
f 502 503 504 
f 503 502 506 
f 500 505 507 
f 500 503 508 
f 505 500 508 
f 500 507 509 
f 502 504 512 
f 511 502 512 
f 504 503 513 
f 505 508 514 
f 507 505 515 
f 510 512 516 
f 512 504 516 
f 503 500 517 
f 500 513 517 
f 513 503 517 
f 502 501 518 
f 501 515 518 
f 504 509 519 
f 516 504 519 
f 510 516 519 
f 503 506 520 
f 506 505 520 
f 514 503 520 
f 505 514 520 
f 500 509 521 
f 509 504 521 
f 513 500 521 
f 504 513 521 
f 507 511 522 
f 512 510 522 
f 511 512 522 
f 501 502 523 
f 502 511 523 
f 511 507 523 
f 515 501 523 
f 507 515 523 
f 508 503 524 
f 503 514 524 
f 514 508 524 
f 506 502 525 
f 502 518 525 
f 518 506 525 
f 505 506 526 
f 515 505 526 
f 506 518 526 
f 518 515 526 
f 509 507 527 
f 519 509 527 
f 510 519 527 
f 507 522 527 
o convex_12
v 0.013145 0.020632 -0.004485
v 0.038522 0.021284 -0.003185
v 0.038522 0.020632 -0.003185
v 0.026807 0.029743 -0.035717
v 0.024857 0.038200 0.011781
v 0.013798 0.038850 -0.020091
v 0.035268 0.039502 -0.022699
v 0.020307 0.020632 -0.033113
v 0.022907 0.020632 0.012431
v 0.033316 0.021284 -0.029860
v 0.015751 0.037548 0.005275
v 0.033966 0.037548 0.005925
v 0.020955 0.039502 -0.033113
v 0.015100 0.021936 -0.026607
v 0.028760 0.020632 0.011781
v 0.038522 0.020632 -0.016843
v 0.037218 0.038850 -0.010346
v 0.032665 0.038850 -0.030510
v 0.017701 0.020632 0.008528
v 0.013798 0.038850 -0.009047
v 0.020955 0.035595 0.012431
v 0.027458 0.035595 0.013086
v 0.017701 0.036896 -0.031160
v 0.013145 0.020632 -0.018147
v 0.013145 0.036247 -0.003190
v 0.028760 0.022586 -0.035058
v 0.032011 0.023238 0.009178
v 0.020307 0.022586 -0.034413
v 0.028109 0.037548 -0.035058
v 0.035919 0.036247 -0.024004
v 0.035919 0.038850 -0.001886
v 0.015751 0.039502 -0.022695
v 0.021608 0.035595 -0.035058
v 0.014449 0.021284 0.001367
v 0.013145 0.037548 -0.018147
v 0.014449 0.034945 -0.024653
v 0.037218 0.038200 -0.016193
v 0.030710 0.037548 0.010482
v 0.030061 0.020632 -0.032454
v 0.024857 0.021936 -0.035717
v 0.034617 0.022586 -0.027906
v 0.036567 0.037548 -0.001886
v 0.030710 0.024536 -0.033763
v 0.026807 0.039502 -0.034413
v 0.017052 0.021284 -0.030510
v 0.033966 0.036247 0.006574
v 0.020955 0.038200 0.010482
v 0.017701 0.035595 0.009178
v 0.015100 0.038850 -0.025303
v 0.024857 0.025839 0.013086
v 0.015100 0.028441 0.003976
v 0.013798 0.023238 -0.022695
v 0.033316 0.022586 0.007229
v 0.035268 0.039502 -0.018147
v 0.019653 0.026491 0.011132
v 0.035268 0.038850 -0.000586
v 0.032665 0.033645 -0.031160
v 0.038522 0.022586 -0.016193
v 0.022907 0.036247 0.013086
v 0.015751 0.035595 -0.027906
v 0.015100 0.038850 -0.005789
f 583 559 588 
f 530 528 535 
f 528 530 536 
f 536 530 542 
f 529 530 543 
f 530 535 543 
f 528 536 546 
f 535 528 551 
f 538 547 552 
f 551 528 552 
f 553 531 556 
f 545 534 557 
f 534 540 559 
f 533 547 559 
f 550 540 560 
f 555 550 560 
f 556 531 560 
f 528 546 561 
f 552 528 561 
f 547 533 562 
f 552 547 562 
f 551 552 562 
f 534 544 564 
f 557 534 564 
f 532 549 565 
f 549 542 565 
f 542 554 565 
f 543 535 566 
f 537 543 566 
f 553 537 566 
f 553 566 567 
f 531 553 567 
f 535 555 567 
f 560 531 567 
f 555 560 567 
f 566 535 567 
f 543 537 568 
f 557 543 568 
f 529 544 569 
f 558 539 569 
f 544 558 569 
f 537 553 570 
f 553 556 570 
f 540 534 571 
f 534 545 571 
f 545 556 571 
f 560 540 571 
f 556 560 571 
f 535 551 572 
f 551 541 572 
f 555 535 572 
f 550 555 572 
f 530 529 573 
f 539 565 573 
f 565 554 573 
f 529 569 573 
f 569 539 573 
f 574 538 575 
f 548 574 575 
f 540 550 576 
f 533 559 576 
f 559 540 576 
f 562 533 576 
f 563 562 576 
f 536 542 577 
f 542 549 577 
f 538 552 578 
f 561 546 578 
f 552 561 578 
f 575 538 578 
f 546 575 578 
f 541 551 579 
f 551 562 579 
f 563 541 579 
f 562 563 579 
f 542 530 580 
f 554 542 580 
f 530 573 580 
f 573 554 580 
f 544 534 581 
f 558 544 581 
f 534 559 581 
f 546 536 582 
f 536 548 582 
f 575 546 582 
f 548 575 582 
f 539 558 583 
f 532 565 583 
f 565 539 583 
f 558 581 583 
f 581 559 583 
f 556 545 584 
f 545 557 584 
f 568 537 584 
f 557 568 584 
f 537 570 584 
f 570 556 584 
f 529 543 585 
f 544 529 585 
f 543 557 585 
f 564 544 585 
f 557 564 585 
f 548 536 586 
f 549 532 586 
f 532 574 586 
f 574 548 586 
f 536 577 586 
f 577 549 586 
f 541 563 587 
f 572 541 587 
f 550 572 587 
f 576 550 587 
f 563 576 587 
f 547 538 588 
f 559 547 588 
f 538 574 588 
f 574 532 588 
f 532 583 588 
o convex_13
v 0.023557 0.016072 0.029999
v 0.031363 -0.011253 -0.020746
v 0.033316 -0.011253 -0.020746
v 0.019002 0.020632 -0.020741
v 0.038522 0.020632 -0.016842
v 0.017701 -0.011253 0.024793
v 0.038522 -0.006047 0.020238
v 0.017049 -0.011253 -0.019445
v 0.018352 0.020632 0.025444
v 0.038522 0.018026 0.018937
v 0.032015 -0.011253 0.025444
v 0.038522 -0.006693 -0.015541
v 0.017049 0.020632 -0.020741
v 0.019653 -0.011253 0.029999
v 0.017049 0.011521 0.016334
v 0.033965 0.020632 -0.020096
v 0.033965 0.019979 0.019587
v 0.031363 0.016072 0.026094
v 0.034617 -0.011253 0.020889
v 0.018352 0.015426 0.028697
v 0.017049 -0.007997 0.020238
v 0.038522 0.020632 0.001378
v 0.022907 -0.011253 0.029999
v 0.017049 0.020632 0.007224
v 0.038522 -0.007345 -0.012938
v 0.019653 0.017373 0.029999
v 0.038522 0.016075 0.020243
v 0.032666 0.011521 -0.020746
v 0.020305 0.020632 0.026094
v 0.033965 -0.011253 -0.020096
v 0.018352 -0.011253 0.028697
v 0.017701 0.018026 0.022841
v 0.038522 -0.006047 -0.016191
v 0.017049 0.001762 0.020889
v 0.038522 -0.006693 0.019587
v 0.032015 0.017373 0.024793
v 0.028761 0.020632 0.020889
v 0.022256 -0.009948 -0.020096
v 0.017049 -0.010600 0.013731
f 609 596 627 
f 590 591 594 
f 590 594 596 
f 593 592 597 
f 595 593 598 
f 594 591 599 
f 593 595 600 
f 597 592 601 
f 594 599 602 
f 601 596 603 
f 592 593 604 
f 593 591 604 
f 589 599 606 
f 599 595 606 
f 599 591 607 
f 603 596 609 
f 593 597 610 
f 598 593 610 
f 605 598 610 
f 599 589 611 
f 589 602 611 
f 602 599 611 
f 597 601 612 
f 601 603 612 
f 600 595 613 
f 602 589 614 
f 597 608 614 
f 608 602 614 
f 595 598 615 
f 606 595 615 
f 591 590 616 
f 590 601 616 
f 601 592 616 
f 604 591 616 
f 592 604 616 
f 610 597 617 
f 614 589 617 
f 597 614 617 
f 607 591 618 
f 600 613 618 
f 613 607 618 
f 594 602 619 
f 608 594 619 
f 602 608 619 
f 608 597 620 
f 597 612 620 
f 612 603 620 
f 591 593 621 
f 593 600 621 
f 618 591 621 
f 600 618 621 
f 594 608 622 
f 603 609 622 
f 609 594 622 
f 608 620 622 
f 620 603 622 
f 595 599 623 
f 599 607 623 
f 613 595 623 
f 607 613 623 
f 598 605 624 
f 589 606 624 
f 615 598 624 
f 606 615 624 
f 605 617 624 
f 617 589 624 
f 605 610 625 
f 617 605 625 
f 610 617 625 
f 590 596 626 
f 601 590 626 
f 596 601 626 
f 596 594 627 
f 594 609 627 
o convex_14
v 0.013145 0.006316 0.008525
v 0.014447 -0.009301 0.015684
v 0.015747 -0.009301 0.015684
v 0.013796 -0.007997 -0.016196
v 0.017049 0.003711 -0.015542
v 0.017049 0.003711 0.020240
v 0.017049 -0.007997 -0.014893
v 0.013145 -0.007347 0.020240
v 0.013145 0.004363 -0.014243
v 0.017049 -0.008648 0.020240
v 0.013145 0.001761 0.020894
v 0.013145 -0.007997 -0.015542
v 0.017049 0.005014 -0.003830
v 0.013796 0.006316 0.014381
v 0.017049 -0.008648 -0.007083
v 0.013145 -0.000843 -0.016196
v 0.017049 -0.006696 -0.016196
f 643 632 644 
f 632 633 634 
f 635 628 636 
f 629 630 637 
f 634 633 637 
f 635 629 637 
f 635 637 638 
f 628 635 638 
f 637 633 638 
f 629 635 639 
f 635 636 639 
f 633 632 640 
f 636 628 640 
f 632 636 640 
f 628 638 641 
f 638 633 641 
f 633 640 641 
f 640 628 641 
f 630 629 642 
f 631 634 642 
f 637 630 642 
f 634 637 642 
f 629 639 642 
f 639 631 642 
f 636 632 643 
f 631 639 643 
f 639 636 643 
f 634 631 644 
f 632 634 644 
f 631 643 644 
o convex_15
v 0.017049 0.020630 0.005277
v 0.013145 0.009571 0.001371
v 0.013796 0.009571 0.001371
v 0.016398 0.020630 -0.020751
v 0.013145 0.020630 -0.005136
v 0.017049 0.010872 -0.004483
v 0.013145 0.018028 -0.017497
v 0.013145 0.019329 0.005277
v 0.017049 0.012173 -0.010988
v 0.013796 0.010221 0.005277
v 0.017049 0.019980 -0.020751
v 0.013145 0.020630 -0.017497
f 651 649 656 
f 645 648 649 
f 646 649 651 
f 645 649 652 
f 649 646 652 
f 647 646 653 
f 645 650 653 
f 650 647 653 
f 646 651 653 
f 646 647 654 
f 650 645 654 
f 647 650 654 
f 645 652 654 
f 652 646 654 
f 648 645 655 
f 651 648 655 
f 645 653 655 
f 653 651 655 
f 649 648 656 
f 648 651 656 
o convex_16
v 0.013796 0.016075 0.028700
v 0.013145 0.006967 0.007233
v 0.013796 0.006967 0.007233
v 0.013145 0.019330 0.005279
v 0.013145 0.011522 0.028049
v 0.013796 0.019330 0.005279
v 0.013145 0.018679 0.026747
v 0.013796 0.008269 0.021543
v 0.013796 0.019981 0.020892
f 663 657 665 
f 659 658 660 
f 660 658 661 
f 657 659 662 
f 659 660 662 
f 661 657 663 
f 660 661 663 
f 659 657 664 
f 658 659 664 
f 657 661 664 
f 661 658 664 
f 657 662 665 
f 662 660 665 
f 660 663 665 
