o convex_0
v -0.012369 0.010205 -0.038678
v -0.025964 0.004225 -0.047379
v -0.025419 0.001506 -0.047379
v -0.012369 0.006402 -0.047379
v -0.016719 0.015101 -0.043029
v -0.023787 0.002593 -0.038678
v -0.017264 -0.000670 -0.046835
v -0.023787 0.010205 -0.038678
v -0.014545 0.004225 -0.038678
v -0.023787 0.009117 -0.047379
v -0.012369 0.014556 -0.040311
v -0.015631 0.010749 -0.047379
v -0.012369 0.003681 -0.047379
v -0.011281 0.013469 -0.042486
v -0.017809 0.014012 -0.038678
v -0.022155 0.012379 -0.043571
v -0.019436 0.002050 -0.038678
v -0.025964 0.007485 -0.046835
v -0.012369 0.005857 -0.040311
v -0.020525 -0.000670 -0.047379
f 7 17 20 
f 3 2 4 
f 2 3 6 
f 6 1 8 
f 1 6 9 
f 4 2 10 
f 4 10 12 
f 10 5 12 
f 3 4 13 
f 9 7 13 
f 11 1 14 
f 5 11 14 
f 4 12 14 
f 12 5 14 
f 13 4 14 
f 8 1 15 
f 1 11 15 
f 11 5 15 
f 5 10 16 
f 8 15 16 
f 15 5 16 
f 9 6 17 
f 7 9 17 
f 2 6 18 
f 6 8 18 
f 10 2 18 
f 16 10 18 
f 8 16 18 
f 1 9 19 
f 9 13 19 
f 14 1 19 
f 13 14 19 
f 6 3 20 
f 3 13 20 
f 13 7 20 
f 17 6 20 
o convex_1
v -0.030314 -0.006653 -0.022365
v -0.015634 0.013469 -0.038133
v -0.017809 0.008029 -0.023997
v -0.030314 0.006942 -0.024540
v -0.019983 0.001506 -0.038678
v -0.015634 0.000962 -0.023997
v -0.024876 0.006396 -0.038678
v -0.025963 0.007485 -0.021277
v -0.021616 -0.005020 -0.021277
v -0.014001 0.005311 -0.038678
v -0.033034 -0.003930 -0.021277
v -0.016722 0.004767 -0.021277
v -0.012912 0.011291 -0.038678
v -0.026505 -0.003387 -0.031606
v -0.031943 0.000962 -0.027802
v -0.019440 0.012924 -0.038678
v -0.020527 -0.003387 -0.028346
v -0.030314 0.006398 -0.029432
v -0.024876 0.009660 -0.025084
v -0.033034 0.000962 -0.021277
v -0.024328 0.002595 -0.038678
v -0.030314 -0.003387 -0.028346
v -0.015089 0.004767 -0.023453
v -0.025417 -0.006653 -0.021822
v -0.024328 0.009114 -0.038678
v -0.028681 0.008573 -0.027802
v -0.024876 -0.004474 -0.029432
v -0.021074 0.009660 -0.025084
v -0.013458 0.012380 -0.038133
f 43 33 49 
f 25 27 30 
f 29 28 31 
f 23 28 32 
f 29 26 32 
f 28 29 32 
f 26 30 33 
f 30 27 33 
f 22 33 36 
f 33 27 36 
f 26 29 37 
f 30 26 37 
f 25 30 37 
f 27 35 38 
f 24 28 39 
f 22 36 39 
f 28 24 40 
f 31 28 40 
f 35 31 40 
f 24 38 40 
f 38 35 40 
f 27 25 41 
f 25 34 41 
f 35 27 41 
f 35 41 42 
f 21 31 42 
f 34 21 42 
f 31 35 42 
f 41 34 42 
f 23 32 43 
f 32 26 43 
f 26 33 43 
f 31 21 44 
f 29 31 44 
f 37 29 44 
f 36 27 45 
f 27 38 45 
f 45 38 46 
f 38 24 46 
f 24 39 46 
f 39 36 46 
f 36 45 46 
f 34 25 47 
f 21 34 47 
f 25 37 47 
f 44 21 47 
f 37 44 47 
f 23 22 48 
f 28 23 48 
f 22 39 48 
f 39 28 48 
f 22 23 49 
f 33 22 49 
f 23 43 49 
o convex_2
v -0.008562 -0.026226 0.067912
v -0.010193 -0.037651 0.058667
v -0.010193 -0.037104 0.058123
v -0.004755 -0.024059 0.042896
v -0.004755 -0.033840 0.063016
v -0.005299 -0.014266 0.042896
v -0.004755 -0.022969 0.065190
v -0.010193 -0.022969 0.055948
v -0.006930 -0.020792 0.042896
v -0.010193 -0.032755 0.068456
v -0.010193 -0.025144 0.065735
v -0.004755 -0.034387 0.058123
v -0.004755 -0.029493 0.067912
v -0.010193 -0.031125 0.053774
v -0.006930 -0.015898 0.042896
v -0.004755 -0.014266 0.043441
v -0.009104 -0.037651 0.058667
v -0.005299 -0.021882 0.063560
v -0.009104 -0.033840 0.067367
f 66 54 68 
f 51 52 53 
f 54 53 56 
f 52 51 57 
f 55 53 58 
f 57 51 59 
f 57 59 60 
f 59 50 60 
f 53 54 61 
f 56 50 62 
f 54 56 62 
f 50 59 62 
f 53 52 63 
f 52 57 63 
f 58 53 63 
f 58 63 64 
f 55 58 64 
f 57 60 64 
f 60 55 64 
f 63 57 64 
f 53 55 65 
f 56 53 65 
f 51 53 66 
f 53 61 66 
f 61 54 66 
f 50 56 67 
f 60 50 67 
f 55 60 67 
f 65 55 67 
f 56 65 67 
f 59 51 68 
f 54 62 68 
f 62 59 68 
f 51 66 68 
o convex_3
v 0.025701 0.077097 -0.053361
v 0.019174 0.058607 -0.050099
v 0.019174 0.058607 -0.048468
v 0.036576 0.072744 -0.048468
v 0.019174 0.071112 -0.047924
v 0.019174 0.066768 -0.054449
v 0.030592 0.070026 -0.052273
v 0.030592 0.074920 -0.047381
v 0.019719 0.074920 -0.054449
v 0.031681 0.074920 -0.052817
v 0.025158 0.065136 -0.052817
v 0.028417 0.076010 -0.047924
v 0.036031 0.074377 -0.050099
v 0.020262 0.058607 -0.050099
v 0.026788 0.072201 -0.053905
v 0.036576 0.072744 -0.049556
v 0.019174 0.074377 -0.052817
f 80 69 85 
f 70 71 73 
f 70 73 74 
f 71 72 76 
f 73 71 76 
f 73 76 80 
f 76 72 81 
f 78 69 81 
f 80 76 81 
f 69 80 81 
f 71 70 82 
f 72 71 82 
f 70 74 82 
f 74 79 82 
f 77 69 83 
f 74 77 83 
f 78 75 83 
f 69 78 83 
f 79 74 83 
f 75 79 83 
f 75 78 84 
f 79 75 84 
f 81 72 84 
f 78 81 84 
f 72 82 84 
f 82 79 84 
f 74 73 85 
f 69 77 85 
f 77 74 85 
f 73 80 85 
o convex_4
v -0.040645 -0.011001 -0.053361
v -0.024334 -0.003933 -0.051187
v -0.024334 -0.004478 -0.051187
v -0.024334 -0.003933 -0.054992
v -0.039013 -0.015898 -0.054448
v -0.035751 -0.005021 -0.054992
v -0.037383 -0.009373 -0.049555
v -0.033032 -0.003933 -0.050643
v -0.039013 -0.013722 -0.050643
v -0.031405 -0.011546 -0.052817
v -0.040645 -0.015352 -0.054992
v -0.025423 -0.004478 -0.050099
v -0.024879 -0.006109 -0.054992
v -0.038470 -0.007742 -0.050643
v -0.036839 -0.006654 -0.055537
v -0.041190 -0.014264 -0.051187
v -0.033576 -0.011001 -0.050099
f 95 97 102 
f 87 88 89 
f 87 89 93 
f 89 91 93 
f 88 87 97 
f 87 93 97 
f 93 92 97 
f 95 88 97 
f 89 88 98 
f 88 95 98 
f 95 90 98 
f 90 96 98 
f 91 86 99 
f 93 91 99 
f 92 93 99 
f 86 91 100 
f 91 89 100 
f 96 86 100 
f 89 98 100 
f 98 96 100 
f 90 94 101 
f 94 92 101 
f 96 90 101 
f 86 96 101 
f 99 86 101 
f 92 99 101 
f 94 90 102 
f 92 94 102 
f 90 95 102 
f 97 92 102 
o convex_5
v -0.016175 -0.006653 -0.053361
v -0.024333 -0.012632 -0.053905
v -0.024333 -0.012632 -0.051731
v -0.020525 -0.019704 -0.054448
v -0.018896 -0.003933 -0.049011
v -0.024333 -0.003933 -0.054993
v -0.020525 -0.016984 -0.050099
v -0.016175 -0.003933 -0.054993
v -0.022156 -0.003933 -0.049555
v -0.017808 -0.013176 -0.050643
v -0.022156 -0.019159 -0.054993
v -0.016721 -0.011549 -0.054993
v -0.022156 -0.018071 -0.050643
f 113 106 115 
f 104 105 108 
f 107 103 110 
f 108 107 110 
f 108 105 111 
f 107 108 111 
f 109 107 111 
f 103 107 112 
f 109 106 112 
f 107 109 112 
f 105 104 113 
f 104 108 113 
f 108 110 113 
f 113 110 114 
f 110 103 114 
f 103 112 114 
f 112 106 114 
f 106 113 114 
f 106 109 115 
f 111 105 115 
f 109 111 115 
f 105 113 115 
o convex_6
v -0.033575 -0.003932 -0.051729
v -0.015637 0.010205 -0.047382
v -0.012373 0.006397 -0.047382
v -0.009654 -0.001757 -0.055537
v -0.040647 0.003679 -0.054992
v -0.016722 0.008030 -0.054991
v -0.047715 -0.000669 -0.050099
v -0.018356 -0.001757 -0.047382
v -0.049887 -0.002844 -0.054992
v -0.009654 -0.003388 -0.053360
v -0.023247 0.009117 -0.047382
v -0.021613 -0.003932 -0.049013
v -0.016179 -0.003932 -0.054991
v -0.025419 0.007486 -0.054991
v -0.048257 -0.002302 -0.050643
v -0.009108 0.001506 -0.052272
v -0.009654 -0.000669 -0.050100
v -0.025419 0.000419 -0.047382
v -0.049887 -0.000669 -0.052273
v -0.049345 -0.003390 -0.052817
v -0.041731 0.003136 -0.051730
v -0.019444 0.010205 -0.047925
v -0.045538 -0.000669 -0.049555
v -0.033029 -0.003932 -0.054991
v -0.018356 -0.003932 -0.049013
f 132 123 140 
f 118 117 123 
f 120 119 124 
f 123 117 126 
f 119 125 128 
f 127 116 128 
f 119 120 129 
f 121 119 129 
f 127 123 130 
f 117 118 131 
f 121 117 131 
f 119 121 131 
f 125 119 131 
f 125 131 132 
f 118 123 132 
f 131 118 132 
f 123 126 133 
f 120 124 134 
f 130 122 134 
f 130 134 135 
f 116 127 135 
f 127 130 135 
f 134 124 135 
f 126 120 136 
f 122 126 136 
f 120 134 136 
f 134 122 136 
f 117 121 137 
f 126 117 137 
f 120 126 137 
f 129 120 137 
f 121 129 137 
f 126 122 138 
f 122 130 138 
f 130 123 138 
f 133 126 138 
f 123 133 138 
f 124 119 139 
f 128 116 139 
f 119 128 139 
f 116 135 139 
f 135 124 139 
f 123 127 140 
f 128 125 140 
f 127 128 140 
f 125 132 140 
o convex_7
v 0.018630 -0.014269 0.025494
v 0.027874 -0.029493 0.001568
v 0.026786 -0.028405 0.001568
v 0.030048 -0.019161 0.007549
v 0.018630 -0.009916 0.014614
v 0.034401 -0.029493 0.007005
v 0.019175 -0.026228 0.013526
v 0.024615 -0.012093 0.018964
v 0.018630 -0.016444 0.009183
v 0.031136 -0.024052 0.002111
v 0.025700 -0.029493 0.011358
v 0.018630 -0.018074 0.024404
v 0.024070 -0.016444 0.021685
v 0.018630 -0.024052 0.009183
v 0.019175 -0.008828 0.022773
v 0.028416 -0.027861 0.012989
v 0.022437 -0.018620 0.005918
v 0.022983 -0.011549 0.013526
v 0.024615 -0.029493 0.003743
v 0.033854 -0.025684 0.003743
v 0.033311 -0.029493 0.002111
v 0.026786 -0.016986 0.007549
v 0.024615 -0.014811 0.021141
v 0.028416 -0.026228 0.001021
v 0.021350 -0.020247 0.005918
v 0.031679 -0.021335 0.007549
v 0.021350 -0.027861 0.012989
v 0.019720 -0.008828 0.016789
f 158 145 168 
f 141 145 149 
f 142 146 151 
f 141 149 152 
f 141 152 153 
f 147 152 154 
f 152 149 154 
f 145 141 155 
f 151 146 156 
f 152 151 156 
f 146 153 156 
f 153 152 156 
f 149 145 157 
f 148 144 158 
f 143 142 159 
f 142 151 159 
f 147 154 159 
f 150 144 160 
f 150 160 161 
f 146 142 161 
f 160 146 161 
f 144 150 162 
f 157 145 162 
f 150 157 162 
f 158 144 162 
f 145 158 162 
f 146 148 163 
f 141 153 163 
f 153 146 163 
f 155 141 163 
f 148 155 163 
f 142 143 164 
f 157 150 164 
f 150 161 164 
f 161 142 164 
f 154 149 165 
f 149 157 165 
f 143 159 165 
f 159 154 165 
f 164 143 165 
f 157 164 165 
f 144 148 166 
f 148 146 166 
f 146 160 166 
f 160 144 166 
f 152 147 167 
f 151 152 167 
f 159 151 167 
f 147 159 167 
f 145 155 168 
f 155 148 168 
f 148 158 168 
o convex_8
v -0.015088 0.017817 -0.012021
v -0.005300 -0.024599 0.031465
v -0.004755 -0.024599 0.031465
v -0.005300 -0.009912 -0.013110
v -0.004756 0.029784 -0.020728
v -0.015088 -0.002842 0.027119
v -0.015088 -0.001208 -0.017463
v -0.004755 -0.013718 0.042890
v -0.015088 -0.016981 0.010807
v -0.006387 0.021618 -0.001145
v -0.004756 0.002050 -0.022905
v -0.008562 -0.021330 0.005379
v -0.006931 -0.020787 0.042890
v -0.005299 0.029784 -0.026170
v -0.015088 0.015640 -0.000063
v -0.015088 0.008022 -0.020721
v -0.004756 0.003136 0.024942
v -0.014543 -0.015347 0.026030
v -0.004755 -0.020787 0.004290
v -0.015088 0.000421 0.024401
v -0.005300 -0.024599 0.042349
v -0.009106 -0.022965 0.011348
v -0.015088 -0.017524 0.017878
v -0.015088 0.002593 -0.020721
v -0.014543 -0.014804 0.003202
v -0.015088 -0.009912 0.028207
v -0.007475 -0.016981 0.042890
v -0.004756 0.022166 -0.001692
v -0.011281 0.017274 0.002661
v -0.005299 0.006399 -0.023987
v -0.006387 0.002593 0.025483
v -0.015088 0.017817 -0.006046
v -0.015088 0.012377 -0.018552
v -0.008562 0.022166 -0.004410
v -0.004755 -0.005557 -0.017463
v -0.006931 -0.018073 -0.001145
v -0.010193 -0.022422 0.011348
v -0.004755 -0.022965 0.012436
v -0.005299 0.029784 -0.020728
v -0.004756 0.028693 -0.026170
v -0.004755 -0.024051 0.042890
v -0.011825 -0.015895 0.000485
v -0.005300 -0.013718 0.042890
f 199 188 211 
f 174 169 175 
f 174 175 177 
f 169 174 183 
f 175 169 184 
f 176 171 187 
f 183 174 188 
f 170 171 189 
f 181 186 189 
f 171 170 190 
f 180 187 190 
f 170 189 190 
f 174 177 191 
f 189 186 191 
f 175 184 192 
f 184 182 192 
f 177 175 193 
f 186 181 194 
f 174 191 194 
f 191 186 194 
f 181 176 195 
f 174 194 195 
f 194 181 195 
f 176 173 196 
f 185 176 196 
f 183 188 197 
f 179 192 198 
f 192 182 198 
f 196 178 199 
f 185 196 199 
f 178 197 199 
f 197 188 199 
f 182 169 200 
f 169 183 200 
f 169 182 201 
f 184 169 201 
f 182 184 201 
f 197 178 202 
f 183 197 202 
f 200 183 202 
f 172 175 203 
f 173 176 203 
f 176 187 203 
f 187 172 203 
f 175 192 203 
f 192 179 203 
f 175 172 204 
f 172 187 204 
f 187 180 204 
f 180 190 205 
f 190 189 205 
f 189 191 205 
f 191 177 205 
f 177 193 205 
f 193 180 205 
f 187 171 206 
f 171 190 206 
f 190 187 206 
f 173 182 207 
f 196 173 207 
f 178 196 207 
f 182 200 207 
f 202 178 207 
f 200 202 207 
f 182 173 208 
f 179 198 208 
f 198 182 208 
f 173 203 208 
f 203 179 208 
f 171 176 209 
f 176 181 209 
f 189 171 209 
f 181 189 209 
f 193 175 210 
f 180 193 210 
f 175 204 210 
f 204 180 210 
f 176 185 211 
f 188 174 211 
f 174 195 211 
f 195 176 211 
f 185 199 211 
o convex_9
v -0.014005 -0.032215 0.069544
v -0.044993 -0.037104 0.043440
v -0.044993 -0.036016 0.043440
v -0.010197 -0.028408 0.053776
v -0.016182 -0.042541 0.057036
v -0.041730 -0.030586 0.063013
v -0.037923 -0.044173 0.062471
v -0.022707 -0.024057 0.057036
v -0.050978 -0.034929 0.049424
v -0.010197 -0.026235 0.067367
v -0.022162 -0.040911 0.049966
v -0.028688 -0.026235 0.049424
v -0.047715 -0.041453 0.049966
v -0.010197 -0.034385 0.067367
v -0.010197 -0.023513 0.056492
v -0.035750 -0.026779 0.054864
v -0.028688 -0.044173 0.055409
v -0.040099 -0.036016 0.043440
v -0.010197 -0.038192 0.058667
v -0.029774 -0.036016 0.067364
v -0.019444 -0.038734 0.066820
v -0.050433 -0.038736 0.052141
v -0.039554 -0.028952 0.063013
v -0.019444 -0.030042 0.068997
v -0.039009 -0.039280 0.044529
v -0.047715 -0.033303 0.047247
v -0.050978 -0.038192 0.045073
v -0.035205 -0.044173 0.063013
v -0.022166 -0.024057 0.058669
v -0.038464 -0.043085 0.063013
v -0.038464 -0.044719 0.060299
v -0.010197 -0.031128 0.053776
v -0.022707 -0.036560 0.068453
v -0.016182 -0.042541 0.058125
v -0.049887 -0.033845 0.051599
v -0.018354 -0.041453 0.052685
v -0.012919 -0.026235 0.067364
v -0.010738 -0.023513 0.060299
v -0.045534 -0.040911 0.047247
v -0.049342 -0.040911 0.051599
v -0.042276 -0.033303 0.044529
v -0.010197 -0.027864 0.068997
v -0.027597 -0.026235 0.049424
v -0.031946 -0.041453 0.048880
v -0.041730 -0.029496 0.061927
v -0.041730 -0.032215 0.063013
v -0.039009 -0.030042 0.064102
v -0.026515 -0.025147 0.051599
v -0.033569 -0.036560 0.066276
v -0.052064 -0.038736 0.046706
v -0.050978 -0.035473 0.051599
v -0.022166 -0.032759 0.068997
f 235 258 263 
f 215 221 225 
f 221 215 226 
f 213 214 229 
f 215 225 230 
f 225 212 232 
f 213 229 236 
f 229 222 236 
f 227 223 237 
f 214 213 238 
f 213 236 238 
f 237 214 238 
f 220 237 238 
f 219 227 240 
f 227 234 240 
f 218 239 241 
f 224 228 242 
f 228 239 242 
f 239 218 242 
f 222 229 243 
f 229 215 243 
f 215 230 243 
f 232 212 244 
f 239 232 244 
f 231 241 244 
f 241 239 244 
f 228 216 245 
f 216 230 245 
f 230 225 245 
f 225 232 245 
f 239 228 245 
f 232 239 245 
f 237 220 246 
f 227 237 246 
f 216 228 247 
f 228 222 247 
f 230 216 247 
f 222 243 247 
f 243 230 247 
f 240 234 248 
f 240 248 249 
f 221 226 249 
f 226 219 249 
f 219 240 249 
f 248 221 249 
f 228 224 250 
f 238 236 250 
f 241 233 251 
f 218 241 251 
f 224 242 251 
f 242 218 251 
f 229 214 252 
f 214 237 252 
f 237 223 252 
f 212 225 253 
f 225 221 253 
f 235 212 253 
f 221 248 253 
f 248 235 253 
f 226 215 254 
f 215 229 254 
f 229 252 254 
f 252 223 254 
f 222 228 255 
f 236 222 255 
f 228 250 255 
f 250 236 255 
f 217 234 256 
f 234 227 256 
f 227 246 256 
f 233 241 257 
f 234 217 258 
f 235 248 258 
f 248 234 258 
f 217 257 258 
f 219 226 259 
f 227 219 259 
f 223 227 259 
f 226 254 259 
f 254 223 259 
f 241 231 260 
f 257 241 260 
f 231 258 260 
f 258 257 260 
f 220 238 261 
f 250 224 261 
f 238 250 261 
f 251 233 261 
f 224 251 261 
f 246 220 262 
f 217 256 262 
f 256 246 262 
f 257 217 262 
f 233 257 262 
f 220 261 262 
f 261 233 262 
f 212 235 263 
f 244 212 263 
f 231 244 263 
f 258 231 263 
o convex_10
v -0.020528 0.002592 0.011900
v -0.029227 -0.015354 0.009183
v -0.029227 -0.014809 0.007549
v -0.019438 -0.012633 0.017334
v -0.025963 -0.005023 0.022228
v -0.025420 0.000961 0.001567
v -0.019982 -0.000672 0.002655
v -0.029227 -0.000127 0.007004
v -0.019438 -0.008827 0.026581
v -0.019438 -0.000127 0.022774
v -0.029227 -0.007739 0.002110
v -0.023245 -0.009370 0.005918
v -0.029227 -0.005023 0.015158
v -0.026508 0.001504 0.011355
v -0.025963 -0.009370 0.021685
v -0.019982 -0.012633 0.022228
v -0.019438 0.002049 0.006461
v -0.024333 0.003136 0.003198
v -0.025963 -0.006652 0.001567
v -0.029227 -0.015354 0.011355
v -0.021070 -0.001215 0.023862
v -0.029227 -0.001215 0.002655
v -0.019438 -0.008282 0.010812
v -0.027595 -0.000127 0.012988
v -0.027595 -0.013176 0.005918
v -0.021070 0.002049 0.002110
v -0.019982 -0.005023 0.026581
v -0.021070 -0.011001 0.024405
f 283 279 291 
f 265 266 267 
f 266 265 271 
f 272 267 273 
f 266 271 274 
f 271 265 276 
f 273 264 277 
f 272 268 278 
f 268 276 278 
f 267 272 279 
f 273 267 280 
f 264 273 280 
f 271 277 281 
f 277 264 281 
f 264 280 281 
f 274 269 282 
f 270 275 282 
f 265 267 283 
f 276 265 283 
f 278 276 283 
f 267 279 283 
f 273 277 284 
f 269 274 285 
f 274 271 285 
f 281 269 285 
f 271 281 285 
f 267 275 286 
f 275 270 286 
f 280 267 286 
f 270 280 286 
f 276 268 287 
f 271 276 287 
f 277 271 287 
f 268 284 287 
f 284 277 287 
f 267 266 288 
f 266 274 288 
f 275 267 288 
f 274 282 288 
f 282 275 288 
f 280 270 289 
f 269 281 289 
f 281 280 289 
f 282 269 289 
f 270 282 289 
f 268 272 290 
f 272 273 290 
f 284 268 290 
f 273 284 290 
f 272 278 291 
f 279 272 291 
f 278 283 291 
o convex_11
v 0.033856 -0.003933 -0.051731
v 0.030050 0.007487 -0.052817
v 0.030050 0.007487 -0.054992
v 0.022983 0.002592 -0.054448
v 0.023526 0.007487 -0.049555
v 0.036575 -0.004476 -0.055537
v 0.035487 -0.000668 -0.050643
v 0.022983 0.007487 -0.054992
v 0.029508 -0.000126 -0.050099
v 0.033856 0.004223 -0.054992
v 0.029508 0.007487 -0.050643
v 0.034400 -0.005021 -0.055537
v 0.022983 0.002592 -0.052817
v 0.031137 0.005855 -0.055537
f 303 299 305 
f 293 294 296 
f 292 297 298 
f 296 294 299 
f 292 298 300 
f 298 296 300 
f 294 293 301 
f 298 297 301 
f 298 301 302 
f 293 296 302 
f 296 298 302 
f 301 293 302 
f 297 292 303 
f 295 299 303 
f 299 295 304 
f 296 299 304 
f 292 300 304 
f 300 296 304 
f 303 292 304 
f 295 303 304 
f 299 294 305 
f 294 301 305 
f 301 297 305 
f 297 303 305 
o convex_12
v 0.007211 0.007487 -0.052816
v 0.020256 0.019451 -0.046292
v 0.020256 0.019451 -0.046837
v 0.029506 0.007487 -0.052816
v 0.016993 0.018362 -0.054992
v 0.020256 0.008576 -0.046292
v 0.002859 0.014555 -0.049012
v 0.000686 0.011294 -0.053904
v 0.029506 0.008032 -0.054992
v 0.013196 0.009663 -0.046292
v 0.013196 0.018906 -0.053904
v 0.024065 0.016731 -0.046292
v 0.011017 0.007487 -0.048468
v 0.012107 0.017819 -0.046292
v 0.008301 0.007487 -0.054448
v 0.019713 0.017819 -0.054992
v 0.028417 0.007487 -0.050099
v 0.000686 0.011294 -0.051185
v 0.000686 0.013469 -0.053360
v 0.003951 0.012384 -0.048468
v 0.024611 0.012384 -0.046292
v 0.021892 0.007487 -0.054992
f 320 310 327 
f 311 307 315 
f 307 308 316 
f 308 310 316 
f 308 307 317 
f 307 311 317 
f 309 314 317 
f 306 309 318 
f 311 315 318 
f 315 307 319 
f 307 316 319 
f 316 312 319 
f 309 306 320 
f 306 313 320 
f 313 310 320 
f 310 308 321 
f 314 310 321 
f 308 317 321 
f 317 314 321 
f 309 317 322 
f 318 309 322 
f 311 318 322 
f 313 306 323 
f 306 318 323 
f 310 313 324 
f 316 310 324 
f 312 316 324 
f 313 323 324 
f 323 312 324 
f 318 315 325 
f 315 319 325 
f 319 312 325 
f 312 323 325 
f 323 318 325 
f 317 311 326 
f 311 322 326 
f 322 317 326 
f 314 309 327 
f 310 314 327 
f 309 320 327 
o convex_13
v 0.016455 0.011838 -0.040310
v 0.020804 0.023802 -0.040310
v 0.021891 0.023257 -0.040310
v 0.016455 0.009119 -0.046291
v 0.011016 0.016732 -0.046291
v 0.024612 0.016189 -0.046291
v 0.023522 0.011838 -0.040310
v 0.013736 0.017274 -0.040310
v 0.019716 0.019993 -0.046291
v 0.025700 0.018363 -0.040310
v 0.024067 0.011838 -0.046291
v 0.017544 0.023802 -0.041398
v 0.012649 0.011296 -0.045747
v 0.020804 0.009119 -0.045747
v 0.018086 0.010751 -0.040310
f 341 334 342 
f 330 329 328 
f 331 332 333 
f 330 328 334 
f 328 329 335 
f 329 330 336 
f 330 333 336 
f 333 332 336 
f 333 330 337 
f 330 334 337 
f 337 334 338 
f 331 333 338 
f 333 337 338 
f 335 329 339 
f 332 335 339 
f 329 336 339 
f 336 332 339 
f 332 331 340 
f 328 335 340 
f 335 332 340 
f 338 334 341 
f 331 338 341 
f 334 328 342 
f 328 340 342 
f 340 331 342 
f 331 341 342 
o convex_14
v 0.019172 0.073834 -0.054448
v -0.004211 0.047192 -0.041398
v -0.004211 0.047192 -0.040310
v 0.008838 0.034137 -0.040855
v 0.008838 0.056427 -0.040310
v 0.002861 0.061865 -0.052815
v 0.019172 0.071111 -0.047923
v 0.005036 0.047192 -0.049012
v 0.019172 0.066213 -0.054448
v 0.014278 0.042841 -0.040310
v 0.010469 0.065123 -0.045750
v 0.019172 0.056431 -0.049012
v 0.003404 0.033598 -0.040310
v 0.005581 0.065670 -0.051727
v -0.002574 0.053716 -0.047380
v 0.011557 0.056966 -0.052815
v -0.004211 0.048817 -0.040310
v 0.002861 0.036856 -0.043029
v 0.008295 0.067850 -0.054448
v 0.005578 0.057513 -0.040855
v 0.016452 0.073287 -0.053359
v -0.002574 0.054802 -0.045750
v 0.013189 0.062404 -0.054448
v 0.006123 0.041755 -0.046294
v 0.003406 0.046645 -0.048467
v 0.013733 0.046645 -0.040310
v 0.019172 0.069483 -0.047380
v 0.007753 0.055345 -0.052273
v 0.018625 0.056431 -0.049553
v 0.019172 0.056431 -0.047923
f 354 369 372 
f 343 349 351 
f 347 345 352 
f 351 349 354 
f 352 346 354 
f 345 344 355 
f 346 352 355 
f 352 345 355 
f 344 345 359 
f 345 347 359 
f 357 344 359 
f 355 344 360 
f 346 355 360 
f 344 357 360 
f 343 351 361 
f 348 356 361 
f 347 349 362 
f 349 353 362 
f 359 347 362 
f 349 343 363 
f 353 349 363 
f 356 353 363 
f 343 361 363 
f 361 356 363 
f 356 348 364 
f 353 356 364 
f 348 357 364 
f 357 359 364 
f 362 353 364 
f 359 362 364 
f 351 358 365 
f 361 351 365 
f 348 361 365 
f 358 346 366 
f 350 358 366 
f 346 360 366 
f 366 360 367 
f 357 348 367 
f 360 357 367 
f 350 366 367 
f 347 352 368 
f 368 352 369 
f 349 347 369 
f 354 349 369 
f 347 368 369 
f 358 350 370 
f 348 365 370 
f 365 358 370 
f 367 348 370 
f 350 367 370 
f 351 354 371 
f 354 346 371 
f 346 358 371 
f 358 351 371 
f 352 354 372 
f 369 352 372 
o convex_15
v 0.017542 0.029782 -0.023449
v 0.014823 -0.008828 -0.010939
v 0.015368 -0.008828 -0.010939
v 0.014823 -0.008281 0.025494
v 0.019717 -0.008828 0.021682
v 0.020261 0.000967 -0.033240
v 0.014823 0.034135 -0.032694
v 0.020261 0.019992 -0.005500
v 0.014823 0.023798 -0.003873
v 0.020261 -0.007739 -0.025622
v 0.016455 0.002594 -0.031061
v 0.020261 0.016729 -0.033240
v 0.020261 0.011295 0.004279
v 0.015368 -0.004475 0.023861
v 0.020261 0.023255 -0.021270
v 0.015368 0.033046 -0.022903
v 0.014823 0.000962 -0.021270
v 0.016455 0.006947 -0.033240
v 0.020261 -0.001754 0.001014
v 0.019174 -0.006649 -0.026709
v 0.015368 0.034135 -0.032694
v 0.015368 0.023798 -0.003873
v 0.015911 0.008032 -0.032147
v 0.014823 -0.008828 0.025494
v 0.019174 -0.008281 0.022774
v 0.017542 -0.008828 -0.008766
f 382 377 398 
f 374 375 377 
f 374 376 379 
f 379 376 381 
f 375 374 382 
f 378 380 382 
f 380 378 384 
f 382 380 385 
f 381 376 386 
f 373 380 387 
f 380 384 387 
f 380 373 388 
f 379 381 388 
f 374 379 389 
f 383 374 389 
f 378 383 390 
f 379 384 390 
f 384 378 390 
f 377 382 391 
f 385 377 391 
f 382 385 391 
f 382 374 392 
f 378 382 392 
f 374 383 392 
f 383 378 392 
f 384 379 393 
f 373 387 393 
f 387 384 393 
f 388 373 393 
f 379 388 393 
f 385 380 394 
f 381 386 394 
f 386 385 394 
f 380 388 394 
f 388 381 394 
f 389 379 395 
f 383 389 395 
f 390 383 395 
f 379 390 395 
f 376 374 396 
f 374 377 396 
f 396 377 397 
f 377 385 397 
f 386 376 397 
f 385 386 397 
f 376 396 397 
f 377 375 398 
f 375 382 398 
o convex_16
v 0.037119 -0.071910 0.007548
v 0.028963 -0.053422 0.010266
v 0.028963 -0.053422 0.010810
v 0.032770 -0.078982 0.008634
v 0.029507 -0.059406 0.005916
v 0.037119 -0.060493 0.009722
v 0.033856 -0.052334 0.006461
v 0.037119 -0.077346 0.009722
v 0.033856 -0.052334 0.010810
v 0.034401 -0.078982 0.007548
v 0.034401 -0.061584 0.005916
v 0.038208 -0.067014 0.008092
v 0.029507 -0.052334 0.007004
v 0.033856 -0.077894 0.009722
v 0.029507 -0.061584 0.005916
v 0.034944 -0.052334 0.007548
f 410 405 414 
f 406 404 407 
f 401 406 407 
f 406 402 408 
f 399 406 408 
f 403 405 409 
f 399 408 409 
f 406 399 410 
f 404 406 410 
f 399 409 410 
f 409 405 410 
f 400 401 411 
f 403 400 411 
f 405 403 411 
f 401 407 411 
f 407 405 411 
f 401 402 412 
f 406 401 412 
f 402 406 412 
f 401 400 413 
f 402 401 413 
f 400 403 413 
f 408 402 413 
f 403 409 413 
f 409 408 413 
f 407 404 414 
f 405 407 414 
f 404 410 414 
o convex_17
v 0.034944 -0.029496 0.006459
v 0.024068 -0.036024 0.006460
v 0.024068 -0.036024 0.007545
v 0.034944 -0.052332 0.009178
v 0.030592 -0.032214 0.001565
v 0.025701 -0.029496 0.010267
v 0.027876 -0.051787 0.009722
v 0.034944 -0.046893 0.010810
v 0.030050 -0.052332 0.006460
v 0.025701 -0.029496 0.002653
v 0.025701 -0.049068 0.010810
v 0.035489 -0.050155 0.007545
v 0.033855 -0.033301 0.009722
v 0.032225 -0.029496 0.001565
v 0.025157 -0.034935 0.003742
v 0.033311 -0.052332 0.006460
v 0.035489 -0.032214 0.005373
v 0.033855 -0.052332 0.010810
v 0.024613 -0.029496 0.009722
v 0.028420 -0.034389 0.002110
v 0.024068 -0.030582 0.004829
f 433 424 435 
f 420 415 424 
f 417 416 425 
f 422 420 425 
f 423 421 425 
f 422 418 426 
f 415 420 427 
f 420 422 427 
f 422 415 427 
f 424 415 428 
f 419 424 428 
f 425 416 429 
f 423 425 429 
f 418 423 430 
f 423 419 430 
f 426 418 430 
f 419 428 430 
f 428 426 430 
f 415 422 431 
f 422 426 431 
f 428 415 431 
f 426 428 431 
f 418 422 432 
f 423 418 432 
f 421 423 432 
f 425 421 432 
f 422 425 432 
f 420 424 433 
f 417 425 433 
f 425 420 433 
f 419 423 434 
f 424 419 434 
f 423 429 434 
f 429 424 434 
f 416 417 435 
f 424 429 435 
f 429 416 435 
f 417 433 435 
o convex_18
v 0.030594 -0.054513 0.019513
v 0.019174 -0.073540 0.025492
v 0.019718 -0.074085 0.025492
v 0.025156 -0.068102 0.026580
v 0.025156 -0.055600 0.019513
v 0.027874 -0.061038 0.018968
v 0.027330 -0.067559 0.023861
v 0.023526 -0.061038 0.018968
v 0.019174 -0.071909 0.026580
v 0.029505 -0.063212 0.022776
v 0.027874 -0.054513 0.020057
v 0.020807 -0.069735 0.026580
v 0.021349 -0.073540 0.027125
f 447 444 448 
f 438 441 442 
f 438 437 443 
f 440 436 443 
f 441 438 443 
f 436 441 443 
f 443 437 444 
f 440 443 444 
f 436 439 445 
f 441 436 445 
f 442 441 445 
f 439 442 445 
f 439 436 446 
f 436 440 446 
f 440 444 447 
f 439 446 447 
f 446 440 447 
f 437 438 448 
f 438 442 448 
f 442 439 448 
f 444 437 448 
f 439 447 448 
o convex_19
v 0.006665 -0.017532 0.055948
v -0.004755 -0.034388 0.058121
v -0.004755 -0.024593 0.034195
v -0.004755 -0.006654 0.034741
v 0.011016 -0.018075 0.034195
v -0.004755 -0.025139 0.067369
v 0.004490 -0.003390 0.035283
v 0.005578 -0.026769 0.057033
v 0.006665 -0.022964 0.034195
v -0.002578 -0.020791 0.063560
v 0.007753 -0.006111 0.034195
v 0.000140 -0.028404 0.065193
v 0.004490 -0.019159 0.060293
v 0.002315 -0.030580 0.057578
v 0.008840 -0.023507 0.047794
v 0.011016 -0.013727 0.035283
v 0.007753 -0.012635 0.048340
v -0.004210 -0.031666 0.066278
v -0.001491 -0.025139 0.034195
v 0.004490 -0.015900 0.056491
v 0.000685 -0.003936 0.034195
v 0.009383 -0.019702 0.047249
v 0.005578 -0.023507 0.059205
v -0.004755 -0.021877 0.064102
v 0.002315 -0.023507 0.064102
v 0.001228 -0.003936 0.035283
v 0.008296 -0.024050 0.044531
v -0.000948 -0.032212 0.061930
v -0.004210 -0.034388 0.058121
v 0.001228 -0.020245 0.063017
f 473 461 478 
f 451 450 452 
f 452 450 454 
f 451 453 457 
f 453 451 459 
f 456 462 463 
f 453 459 464 
f 459 455 465 
f 464 459 465 
f 454 450 466 
f 460 454 466 
f 450 451 467 
f 451 457 467 
f 455 458 468 
f 461 449 468 
f 465 455 468 
f 449 465 468 
f 451 452 469 
f 459 451 469 
f 455 459 469 
f 463 453 470 
f 453 464 470 
f 465 449 470 
f 464 465 470 
f 460 456 471 
f 449 461 471 
f 456 463 471 
f 470 449 471 
f 463 470 471 
f 452 454 472 
f 454 458 472 
f 454 460 473 
f 460 471 473 
f 471 461 473 
f 458 455 474 
f 469 452 474 
f 455 469 474 
f 452 472 474 
f 472 458 474 
f 457 453 475 
f 462 457 475 
f 453 463 475 
f 463 462 475 
f 456 460 476 
f 462 456 476 
f 460 466 476 
f 476 466 477 
f 457 462 477 
f 466 450 477 
f 450 467 477 
f 467 457 477 
f 462 476 477 
f 458 454 478 
f 468 458 478 
f 461 468 478 
f 454 473 478 
o convex_20
v -0.047718 -0.036019 0.008635
v -0.056961 -0.047981 -0.003873
v -0.056417 -0.047438 -0.004417
v -0.049894 -0.043088 0.004282
v -0.046631 -0.036019 0.002651
v -0.049894 -0.036019 0.004828
v -0.055329 -0.045807 0.001567
v -0.054242 -0.047438 -0.002784
v -0.045543 -0.036565 0.004282
v -0.056417 -0.045263 -0.002784
v -0.045543 -0.036565 0.008091
f 482 487 489 
f 479 483 484 
f 479 484 485 
f 482 479 485 
f 482 485 486 
f 480 481 486 
f 481 483 486 
f 485 480 486 
f 486 483 487 
f 482 486 487 
f 481 480 488 
f 483 481 488 
f 484 483 488 
f 485 484 488 
f 480 485 488 
f 479 482 489 
f 483 479 489 
f 487 483 489 
o convex_21
v -0.040647 -0.044719 -0.001155
v -0.036298 -0.031126 0.003740
v -0.037385 -0.031126 0.003740
v -0.043365 -0.043632 -0.007135
v -0.037385 -0.042544 -0.001155
v -0.039561 -0.038737 0.003740
v -0.036298 -0.040369 0.003740
v -0.043911 -0.043632 -0.005503
v -0.042278 -0.044719 -0.007135
v -0.039561 -0.034933 0.003740
v -0.036298 -0.037108 0.001021
f 494 498 500 
f 492 491 493 
f 491 492 495 
f 495 490 496 
f 490 494 496 
f 491 495 496 
f 492 493 497 
f 490 495 497 
f 493 491 498 
f 494 490 498 
f 497 493 498 
f 490 497 498 
f 495 492 499 
f 492 497 499 
f 497 495 499 
f 496 494 500 
f 491 496 500 
f 498 491 500 
o convex_22
v 0.006123 0.005311 -0.051187
v 0.002859 -0.007196 -0.053361
v 0.002859 -0.007196 -0.051729
v 0.014279 0.002047 -0.053905
v 0.013735 0.006942 -0.048468
v 0.008840 0.007487 -0.054449
v 0.006123 -0.005564 -0.049012
v 0.005579 0.000960 -0.049012
v 0.014279 0.007487 -0.054449
v 0.004491 -0.007196 -0.053905
v 0.003947 0.001504 -0.053361
v 0.009928 0.007487 -0.049012
v 0.011015 -0.001758 -0.051187
v 0.011015 -0.001213 -0.054449
v 0.006667 0.007487 -0.053905
f 512 506 515 
f 507 505 508 
f 503 507 508 
f 505 504 509 
f 503 502 510 
f 507 503 510 
f 502 503 511 
f 508 501 511 
f 503 508 511 
f 510 502 511 
f 508 505 512 
f 501 508 512 
f 505 509 512 
f 509 506 512 
f 504 505 513 
f 505 507 513 
f 507 510 513 
f 513 510 514 
f 509 504 514 
f 506 509 514 
f 510 506 514 
f 504 513 514 
f 506 510 515 
f 511 501 515 
f 510 511 515 
f 501 512 515 
o convex_23
v 0.022981 -0.004477 -0.052273
v 0.014279 0.000960 -0.053361
v 0.014824 -0.003388 -0.053905
v 0.022981 0.007487 -0.054993
v 0.016455 0.007487 -0.047925
v 0.019172 -0.012091 -0.054448
v 0.019172 -0.009912 -0.050099
v 0.022981 0.007487 -0.050099
v 0.014279 0.007487 -0.054448
v 0.014279 0.006943 -0.049012
v 0.020805 -0.005564 -0.049012
v 0.020805 -0.011547 -0.054993
v 0.016455 -0.005564 -0.050099
v 0.019718 0.007487 -0.047925
v 0.020805 -0.011547 -0.051729
v 0.018630 -0.011547 -0.054993
v 0.022981 -0.003388 -0.054993
f 527 519 532 
f 516 519 523 
f 519 520 523 
f 518 517 524 
f 520 519 524 
f 517 518 525 
f 524 517 525 
f 520 524 525 
f 520 522 526 
f 516 523 526 
f 522 520 528 
f 525 518 528 
f 520 525 528 
f 523 520 529 
f 520 526 529 
f 526 523 529 
f 522 521 530 
f 516 526 530 
f 526 522 530 
f 527 516 530 
f 521 527 530 
f 521 522 531 
f 518 524 531 
f 524 519 531 
f 519 527 531 
f 527 521 531 
f 528 518 531 
f 522 528 531 
f 519 516 532 
f 516 527 532 
o convex_24
v 0.036575 -0.069739 0.018424
v 0.028419 -0.079524 0.016792
v 0.028963 -0.080068 0.016792
v 0.033857 -0.061037 0.012986
v 0.032226 -0.061037 0.016248
v 0.034945 -0.076260 0.016792
v 0.030051 -0.061037 0.012986
v 0.028963 -0.078980 0.018424
v 0.037120 -0.061037 0.014617
v 0.033312 -0.079524 0.018424
v 0.036575 -0.061037 0.016792
v 0.031683 -0.078436 0.016248
v 0.037120 -0.070283 0.016248
f 542 538 545 
f 535 534 539 
f 537 536 539 
f 537 539 540 
f 534 535 540 
f 533 537 540 
f 539 534 540 
f 536 537 541 
f 540 535 542 
f 533 540 542 
f 537 533 543 
f 533 541 543 
f 541 537 543 
f 536 538 544 
f 535 539 544 
f 539 536 544 
f 538 542 544 
f 542 535 544 
f 538 536 545 
f 541 533 545 
f 536 541 545 
f 533 542 545 
o convex_25
v 0.031681 -0.045267 0.012443
v 0.023524 -0.059947 0.018423
v 0.023524 -0.059947 0.018968
v 0.037120 -0.061036 0.015704
v 0.030592 -0.060490 0.011899
v 0.025702 -0.047984 0.010810
v 0.030052 -0.053419 0.018968
v 0.034943 -0.046898 0.010810
v 0.025156 -0.054510 0.018968
v 0.033857 -0.056685 0.010810
v 0.029508 -0.043633 0.011355
v 0.023524 -0.057227 0.015704
v 0.037120 -0.057770 0.015704
v 0.037120 -0.060490 0.014074
v 0.026245 -0.060490 0.018968
v 0.025702 -0.050159 0.010810
v 0.024069 -0.054510 0.017880
v 0.030052 -0.061036 0.012443
f 557 561 563 
f 546 552 553 
f 548 552 554 
f 551 553 555 
f 552 546 556 
f 546 553 556 
f 553 551 556 
f 554 552 556 
f 547 548 557 
f 552 549 558 
f 553 552 558 
f 553 558 559 
f 550 555 559 
f 555 553 559 
f 558 549 559 
f 548 547 560 
f 552 548 560 
f 549 552 560 
f 555 550 561 
f 551 555 561 
f 557 551 561 
f 548 554 562 
f 556 551 562 
f 554 556 562 
f 557 548 562 
f 551 557 562 
f 547 557 563 
f 559 549 563 
f 550 559 563 
f 560 547 563 
f 549 560 563 
f 561 550 563 
o convex_26
v 0.013735 -0.008278 -0.013656
v 0.005034 -0.002835 0.034195
v 0.004492 -0.002835 0.034195
v 0.005034 0.048274 -0.032152
v -0.004755 -0.013171 -0.009311
v 0.014823 -0.015889 0.027668
v -0.004755 -0.024599 0.034195
v -0.004211 0.037938 -0.032152
v 0.014823 0.026518 -0.006590
v 0.003403 0.003149 -0.031607
v 0.014823 0.028151 -0.032152
v -0.004755 0.003142 0.024947
v 0.014823 -0.022416 0.015699
v 0.009384 0.025969 0.001021
v -0.000947 -0.019698 0.001021
v -0.004755 0.002058 -0.023450
v 0.009927 -0.020248 0.034195
v 0.014279 -0.002842 0.023856
v 0.007209 -0.013714 -0.010396
v 0.009927 0.046092 -0.031607
v -0.004755 0.021617 -0.000609
v 0.014823 0.000967 -0.020183
v -0.004755 -0.006102 0.034195
v -0.004755 -0.022965 0.012984
v 0.000142 0.000967 -0.029977
v 0.001772 0.005867 0.025493
v 0.008840 0.004776 0.024947
v 0.014823 0.035220 -0.027255
v 0.011559 -0.014798 0.034195
v -0.001491 0.042825 -0.031607
v 0.012648 0.024884 -0.000063
v 0.006665 -0.022965 0.034195
v 0.004492 0.047725 -0.031061
v 0.005578 0.003692 -0.031061
v 0.014823 -0.012629 -0.006590
v 0.007209 -0.022965 0.012984
v -0.004755 0.032496 -0.027801
v 0.002317 -0.000660 -0.028885
v 0.008296 0.047725 -0.031061
v 0.007752 -0.018065 -0.001148
v 0.006121 0.005318 0.026577
v 0.013735 -0.022958 0.019511
v 0.006665 -0.003927 0.034195
v 0.014279 0.036847 -0.032152
v 0.011559 -0.013171 -0.009311
v 0.002317 -0.013721 -0.010396
v 0.014823 -0.003927 0.023856
v 0.012648 0.022167 -0.032152
v 0.000142 -0.024592 0.033650
v -0.004755 -0.018065 -0.001693
v 0.014823 -0.021874 0.021687
v 0.006665 0.024335 0.002652
v 0.011015 0.025969 0.000482
v 0.013735 0.027060 -0.004414
v 0.009927 -0.010454 -0.014201
v -0.000947 0.000967 -0.028885
v 0.002859 0.047183 -0.031607
v 0.005034 0.017808 -0.032152
v 0.001772 0.003149 -0.031607
v -0.004755 -0.007187 -0.016377
v -0.004211 0.036305 -0.032152
v 0.012648 0.037389 -0.021274
v 0.012104 -0.007194 -0.016377
v -0.004211 -0.024599 0.030928
f 599 612 627 
f 565 566 570 
f 571 567 574 
f 572 569 574 
f 568 570 575 
f 574 569 576 
f 568 575 579 
f 565 570 580 
f 579 575 584 
f 574 576 585 
f 570 566 586 
f 575 570 586 
f 570 568 587 
f 584 575 589 
f 586 566 589 
f 575 586 589 
f 572 574 591 
f 565 580 592 
f 580 569 592 
f 567 571 593 
f 571 584 593 
f 590 581 594 
f 580 570 595 
f 584 589 596 
f 564 585 598 
f 585 576 598 
f 587 578 599 
f 584 571 600 
f 579 584 600 
f 568 588 601 
f 573 597 601 
f 583 567 602 
f 567 596 602 
f 596 577 602 
f 578 582 603 
f 576 599 603 
f 599 578 603 
f 566 565 604 
f 589 566 604 
f 577 589 604 
f 599 576 605 
f 581 590 606 
f 565 592 606 
f 604 565 606 
f 590 604 606 
f 574 567 607 
f 567 583 607 
f 591 574 607 
f 583 591 607 
f 564 598 608 
f 598 576 608 
f 603 582 608 
f 576 603 608 
f 582 578 609 
f 601 582 609 
f 568 601 609 
f 569 572 610 
f 592 569 610 
f 594 581 610 
f 581 606 610 
f 606 592 610 
f 571 574 611 
f 574 585 611 
f 597 573 611 
f 585 597 611 
f 595 570 612 
f 605 595 612 
f 599 605 612 
f 587 568 613 
f 578 587 613 
f 568 609 613 
f 609 578 613 
f 576 569 614 
f 569 580 614 
f 580 595 614 
f 605 576 614 
f 595 605 614 
f 589 577 615 
f 577 596 615 
f 596 589 615 
f 590 594 616 
f 602 577 616 
f 577 604 616 
f 604 590 616 
f 610 572 617 
f 594 610 617 
f 616 594 617 
f 602 616 617 
f 582 601 618 
f 564 608 618 
f 608 582 618 
f 567 593 620 
f 593 584 620 
f 596 567 620 
f 584 596 620 
f 571 611 621 
f 611 573 621 
f 573 601 622 
f 601 588 622 
f 621 573 622 
f 568 579 623 
f 588 568 623 
f 579 619 623 
f 619 588 623 
f 600 571 624 
f 579 600 624 
f 619 579 624 
f 588 619 624 
f 571 621 624 
f 622 588 624 
f 621 622 624 
f 572 591 625 
f 591 583 625 
f 583 602 625 
f 617 572 625 
f 602 617 625 
f 585 564 626 
f 597 585 626 
f 601 597 626 
f 564 618 626 
f 618 601 626 
f 570 587 627 
f 587 599 627 
f 612 570 627 
o convex_27
v 0.015911 -0.012093 0.026581
v 0.018086 -0.024599 0.010264
v 0.018630 -0.024599 0.010264
v 0.014823 -0.008828 -0.009855
v 0.018630 -0.008828 0.004829
v 0.014823 -0.022421 0.020055
v 0.018630 -0.015898 0.025494
v 0.014823 -0.008828 0.025494
v 0.017542 -0.009373 -0.008222
v 0.018630 -0.008828 0.023318
v 0.014823 -0.012093 -0.007134
v 0.018630 -0.021879 0.020055
v 0.014823 -0.016984 0.026036
v 0.014823 -0.021879 0.014070
f 633 638 641 
f 629 630 633 
f 630 632 634 
f 632 631 635 
f 631 633 635 
f 631 632 636 
f 632 630 636 
f 628 634 637 
f 634 632 637 
f 632 635 637 
f 635 628 637 
f 630 629 638 
f 633 631 638 
f 636 630 638 
f 631 636 638 
f 633 630 639 
f 630 634 639 
f 639 634 640 
f 634 628 640 
f 628 635 640 
f 635 633 640 
f 633 639 640 
f 629 633 641 
f 638 629 641 
o convex_28
v 0.021894 0.006401 0.005915
v 0.021894 -0.008828 -0.025074
v 0.024069 -0.008828 -0.025074
v 0.020261 0.023802 -0.040310
v 0.032226 0.006944 -0.014210
v 0.020261 0.020538 -0.007137
v 0.031138 0.004769 -0.030517
v 0.030593 -0.005017 -0.010401
v 0.020261 -0.006107 -0.007137
v 0.020261 0.010205 -0.040310
v 0.022982 0.022713 -0.040310
v 0.030050 0.010205 -0.009316
v 0.028418 -0.006650 -0.026168
v 0.020261 0.002594 0.005915
v 0.030593 0.001508 -0.005507
v 0.025700 0.017820 -0.040310
v 0.020261 -0.007196 -0.027253
v 0.032226 -0.002299 -0.015300
v 0.026786 -0.008282 -0.013670
v 0.030593 0.010748 -0.029972
v 0.028418 0.013466 -0.012036
v 0.027330 -0.003388 -0.003877
v 0.024069 0.011834 -0.040310
v 0.020806 0.011834 0.003196
v 0.032226 0.003137 -0.026708
v 0.024612 -0.007196 -0.027793
v 0.020806 0.020538 -0.007137
v 0.031138 -0.005564 -0.019095
v 0.030050 0.000965 -0.030517
v 0.027874 -0.001213 -0.002243
v 0.025700 -0.005564 -0.006052
v 0.031681 -0.002842 -0.009316
v 0.028418 0.011834 -0.007682
v 0.028962 -0.007739 -0.019640
v 0.030050 0.004223 -0.004967
v 0.020806 -0.007739 -0.013670
v 0.031681 0.007487 -0.029428
v 0.026244 0.001508 -0.033232
v 0.030593 -0.005017 -0.023989
v 0.021894 0.009113 0.004825
v 0.021894 0.017273 -0.003877
v 0.022982 0.022713 -0.038675
v 0.031681 0.008573 -0.013121
v 0.020806 0.000419 0.003740
v 0.025700 0.015098 -0.040310
v 0.020261 0.008030 0.005915
f 681 665 687 
f 647 645 650 
f 650 645 651 
f 651 645 652 
f 647 650 655 
f 651 652 657 
f 650 651 658 
f 643 644 660 
f 657 652 661 
f 651 657 664 
f 646 659 666 
f 644 643 667 
f 654 644 667 
f 643 658 667 
f 658 651 667 
f 645 647 668 
f 647 665 668 
f 666 659 669 
f 648 666 670 
f 642 655 671 
f 656 642 671 
f 660 649 672 
f 650 660 672 
f 649 663 672 
f 646 656 673 
f 659 646 673 
f 663 649 673 
f 649 669 673 
f 669 659 673 
f 656 671 673 
f 671 663 673 
f 653 662 674 
f 662 668 674 
f 644 654 675 
f 660 644 675 
f 649 660 675 
f 669 649 675 
f 656 646 676 
f 642 656 676 
f 653 674 676 
f 658 643 677 
f 650 658 677 
f 643 660 677 
f 660 650 677 
f 648 657 678 
f 661 646 678 
f 657 661 678 
f 666 648 678 
f 646 666 678 
f 651 664 679 
f 654 667 679 
f 667 651 679 
f 664 670 679 
f 670 654 679 
f 666 669 680 
f 670 666 680 
f 654 670 680 
f 675 654 680 
f 669 675 680 
f 642 676 681 
f 676 674 681 
f 668 665 682 
f 674 668 682 
f 665 681 682 
f 681 674 682 
f 652 645 683 
f 661 652 683 
f 645 668 683 
f 668 662 683 
f 646 661 684 
f 662 653 684 
f 676 646 684 
f 653 676 684 
f 661 683 684 
f 683 662 684 
f 655 650 685 
f 671 655 685 
f 663 671 685 
f 650 672 685 
f 672 663 685 
f 657 648 686 
f 664 657 686 
f 648 670 686 
f 670 664 686 
f 655 642 687 
f 647 655 687 
f 665 647 687 
f 642 681 687 
o convex_29
v -0.062943 -0.036019 -0.002241
v -0.050437 -0.024056 0.008635
v -0.050437 -0.027319 0.008635
v -0.050983 -0.025687 0.002650
v -0.064031 -0.033842 -0.006048
v -0.050983 -0.028952 0.003738
v -0.060224 -0.031667 0.002650
v -0.050983 -0.022967 0.005914
v -0.062399 -0.035475 -0.005504
v -0.057507 -0.033299 0.003195
v -0.064574 -0.034387 -0.003328
v -0.050437 -0.023512 0.003738
v -0.058592 -0.032212 0.004283
v -0.052614 -0.025144 0.008090
f 694 700 701 
f 692 691 696 
f 691 693 696 
f 696 693 697 
f 693 690 697 
f 688 696 697 
f 695 692 698 
f 696 688 698 
f 692 696 698 
f 689 690 699 
f 691 692 699 
f 690 693 699 
f 693 691 699 
f 692 695 699 
f 695 689 699 
f 697 690 700 
f 688 697 700 
f 698 688 700 
f 694 698 700 
f 690 689 701 
f 689 695 701 
f 698 694 701 
f 695 698 701 
f 700 690 701 
o convex_30
v -0.048260 -0.036019 0.002653
v -0.039561 -0.017534 0.013530
v -0.039561 -0.016441 0.011352
v -0.050435 -0.022426 0.007547
v -0.047716 -0.036019 0.008633
v -0.039561 -0.025686 0.007004
v -0.048804 -0.023513 0.003197
v -0.042823 -0.032754 0.009177
v -0.050435 -0.025688 0.009178
v -0.039561 -0.017534 0.007548
v -0.042823 -0.031123 0.004285
v -0.039561 -0.022969 0.012986
v -0.050435 -0.026775 0.003197
v -0.049348 -0.036019 0.006460
v -0.044998 -0.036019 0.004829
v -0.046086 -0.032210 0.010266
v -0.047716 -0.020795 0.005918
v -0.040649 -0.018076 0.013530
v -0.039561 -0.027315 0.007548
f 716 712 720 
f 704 703 707 
f 704 707 711 
f 708 711 712 
f 702 708 712 
f 711 707 712 
f 707 703 713 
f 708 702 714 
f 705 708 714 
f 710 705 714 
f 710 714 715 
f 702 706 715 
f 706 710 715 
f 714 702 715 
f 706 702 716 
f 709 706 716 
f 702 712 716 
f 706 709 717 
f 710 706 717 
f 709 713 717 
f 705 704 718 
f 708 705 718 
f 704 711 718 
f 711 708 718 
f 703 704 719 
f 704 705 719 
f 705 710 719 
f 713 703 719 
f 710 717 719 
f 717 713 719 
f 712 707 720 
f 707 713 720 
f 713 709 720 
f 709 716 720 
o convex_31
v -0.015088 0.008030 -0.020730
v -0.015088 0.014010 0.001021
v -0.015088 0.015098 -0.000068
v -0.018894 -0.002299 -0.020730
v -0.015088 -0.011000 0.001021
v -0.018894 0.013465 -0.000611
v -0.018894 0.014010 -0.016378
v -0.018350 -0.005017 0.001021
v -0.015088 0.017273 -0.012574
v -0.015088 -0.001757 -0.017465
v -0.018894 0.007484 -0.021276
v -0.018894 -0.002844 -0.000068
v -0.018894 0.015640 -0.006593
v -0.018894 -0.003929 -0.018554
v -0.016719 -0.009913 -0.000068
v -0.018894 0.010205 0.001021
v -0.015088 0.003679 -0.021276
v -0.015088 0.012377 -0.018554
v -0.015632 0.017273 -0.005507
v -0.015088 -0.011000 -0.000611
f 735 734 740 
f 723 722 721 
f 721 722 725 
f 722 723 726 
f 724 726 727 
f 725 722 728 
f 723 721 729 
f 721 725 730 
f 724 727 731 
f 726 724 732 
f 727 726 733 
f 729 727 733 
f 724 730 734 
f 732 724 734 
f 728 732 734 
f 725 728 735 
f 728 734 735 
f 722 726 736 
f 728 722 736 
f 726 732 736 
f 732 728 736 
f 721 730 737 
f 730 724 737 
f 731 721 737 
f 724 731 737 
f 729 721 738 
f 727 729 738 
f 721 731 738 
f 731 727 738 
f 726 723 739 
f 723 729 739 
f 733 726 739 
f 729 733 739 
f 730 725 740 
f 734 730 740 
f 725 735 740 
o convex_32
v -0.029772 -0.002303 0.002654
v -0.036840 -0.019708 0.014616
v -0.037383 -0.019708 0.014616
v -0.037927 -0.040370 0.003742
v -0.029227 -0.015896 0.011897
v -0.039560 -0.017536 0.007549
v -0.029772 -0.001762 0.008632
v -0.029227 -0.011003 0.003742
v -0.033579 -0.032205 0.008093
v -0.039560 -0.034382 0.003742
v -0.039560 -0.017536 0.013528
v -0.032490 -0.003935 0.005919
v -0.035753 -0.038734 0.003742
v -0.029227 -0.007199 0.002109
v -0.035210 -0.033297 0.009178
v -0.039560 -0.024053 0.012439
v -0.029227 -0.004483 0.010265
v -0.033034 -0.021876 0.013529
v -0.029227 -0.015352 0.007549
v -0.029772 -0.013183 0.012441
v -0.038471 -0.039282 0.004831
f 755 756 761 
f 746 741 750 
f 746 750 751 
f 751 747 752 
f 741 746 752 
f 747 741 752 
f 746 751 752 
f 745 748 754 
f 744 750 754 
f 750 741 754 
f 753 744 754 
f 748 753 754 
f 742 743 755 
f 744 753 755 
f 753 749 755 
f 751 750 756 
f 743 751 756 
f 755 743 756 
f 743 742 757 
f 741 747 757 
f 751 743 757 
f 747 751 757 
f 754 741 757 
f 745 754 757 
f 749 745 758 
f 742 755 758 
f 755 749 758 
f 748 745 759 
f 745 749 759 
f 753 748 759 
f 749 753 759 
f 757 742 760 
f 745 757 760 
f 742 758 760 
f 758 745 760 
f 750 744 761 
f 744 755 761 
f 756 750 761 
o convex_33
v -0.022702 -0.005564 -0.021276
v -0.018894 0.011292 0.000478
v -0.018894 0.012925 -0.000610
v -0.033578 0.001506 -0.017468
v -0.018894 0.012381 -0.018011
v -0.018894 -0.001214 -0.003875
v -0.029226 -0.004477 -0.012028
v -0.029770 0.006397 -0.019640
v -0.028138 0.005855 -0.006049
v -0.018894 -0.002301 -0.021276
v -0.033033 -0.004477 -0.021276
v -0.023247 0.012925 -0.009313
v -0.018894 0.007484 -0.021276
v -0.022702 0.003138 -0.001699
v -0.028138 -0.007196 -0.019640
v -0.019439 0.015101 -0.013659
v -0.018894 -0.004477 -0.014749
v -0.032490 0.002595 -0.021276
v -0.030857 -0.000668 -0.010942
v -0.025423 0.010205 -0.005506
v -0.024335 -0.005564 -0.013118
v -0.026508 0.006940 -0.021276
v -0.028138 0.008573 -0.011485
v -0.027050 -0.002301 -0.007680
v -0.019439 0.003138 -0.000067
v -0.032490 -0.004477 -0.016921
v -0.019439 0.015101 -0.005506
v -0.022702 0.009118 -0.001156
v -0.024879 0.011292 -0.016378
v -0.023790 -0.002844 -0.006596
v -0.029770 0.002049 -0.008225
v -0.026508 -0.007196 -0.021276
v -0.033578 -0.001757 -0.016378
f 780 792 794 
f 764 763 766 
f 766 763 767 
f 766 767 771 
f 771 762 772 
f 766 771 774 
f 771 772 774 
f 764 766 777 
f 762 771 778 
f 771 767 778 
f 765 769 779 
f 772 765 779 
f 774 772 779 
f 768 776 782 
f 778 767 782 
f 766 774 783 
f 779 769 783 
f 774 779 783 
f 769 765 784 
f 765 770 784 
f 770 781 784 
f 781 773 784 
f 780 768 785 
f 767 763 786 
f 775 785 786 
f 776 768 787 
f 772 776 787 
f 768 780 787 
f 764 777 788 
f 777 773 788 
f 781 764 788 
f 773 781 788 
f 763 764 789 
f 770 775 789 
f 764 781 789 
f 781 770 789 
f 786 763 789 
f 775 786 789 
f 777 766 790 
f 773 777 790 
f 766 783 790 
f 783 769 790 
f 769 784 790 
f 784 773 790 
f 782 767 791 
f 768 782 791 
f 785 768 791 
f 767 786 791 
f 786 785 791 
f 770 765 792 
f 775 770 792 
f 785 775 792 
f 780 785 792 
f 772 762 793 
f 776 772 793 
f 762 778 793 
f 782 776 793 
f 778 782 793 
f 765 772 794 
f 772 787 794 
f 787 780 794 
f 792 765 794 
o convex_34
v -0.015088 -0.016440 0.011359
v -0.015088 -0.005016 0.027669
v -0.015088 -0.003386 0.027124
v -0.019438 0.001503 0.006460
v -0.015088 0.013469 0.001021
v -0.019438 -0.003928 0.026581
v -0.017263 -0.008826 0.001021
v -0.019438 -0.013173 0.021683
v -0.017806 0.010748 0.001021
v -0.015088 -0.011542 0.001021
v -0.015088 -0.013173 0.024949
v -0.019438 -0.000127 0.022773
v -0.019438 -0.013173 0.016792
v -0.015088 -0.000127 0.024949
v -0.018350 -0.005016 0.001021
v -0.019438 -0.008826 0.026581
v -0.015631 -0.016985 0.018420
v -0.016175 0.013469 0.001567
v -0.015631 -0.014264 0.005372
f 795 807 813 
f 797 796 795 
f 797 795 799 
f 796 797 800 
f 800 798 802 
f 799 801 803 
f 799 795 804 
f 801 799 804 
f 795 796 805 
f 798 800 806 
f 803 798 806 
f 802 798 807 
f 797 799 808 
f 800 797 808 
f 806 800 808 
f 798 803 809 
f 803 801 809 
f 807 798 809 
f 801 807 809 
f 796 800 810 
f 800 802 810 
f 805 796 810 
f 802 805 810 
f 795 805 811 
f 805 802 811 
f 807 795 811 
f 802 807 811 
f 799 803 812 
f 803 806 812 
f 808 799 812 
f 806 808 812 
f 804 795 813 
f 801 804 813 
f 807 801 813 
o convex_35
v 0.019717 0.003682 -0.035417
v 0.020261 0.017276 -0.033241
v 0.020261 0.021083 -0.035960
v 0.013735 0.017819 -0.039221
v 0.020261 0.010208 -0.040310
v 0.016455 0.007487 -0.033241
v 0.020261 0.023802 -0.040310
v 0.014280 0.014011 -0.040309
v 0.020261 0.002049 -0.033241
v 0.016999 0.021626 -0.037045
v 0.017542 0.015645 -0.033241
v 0.015912 0.022165 -0.040310
v 0.018085 0.003137 -0.033785
f 822 819 826 
f 816 815 818 
f 816 818 820 
f 818 814 821 
f 819 817 821 
f 814 818 822 
f 818 815 822 
f 815 819 822 
f 815 816 823 
f 816 820 823 
f 819 815 824 
f 817 819 824 
f 815 823 824 
f 823 817 824 
f 820 818 825 
f 818 821 825 
f 821 817 825 
f 817 823 825 
f 823 820 825 
f 821 814 826 
f 819 821 826 
f 814 822 826 
o convex_36
v 0.014823 0.034680 -0.032154
v -0.004211 0.036854 -0.032697
v 0.001772 0.023264 -0.032697
v 0.014279 0.043921 -0.040310
v 0.003406 0.054797 -0.040310
v 0.003406 0.032509 -0.040310
v 0.007206 0.048817 -0.032154
v 0.008840 0.018908 -0.032154
v -0.004211 0.048274 -0.040310
v 0.008840 0.055337 -0.039764
v -0.001491 0.043378 -0.032154
v 0.008840 0.033053 -0.040310
v 0.013191 0.024891 -0.032697
v 0.010471 0.045552 -0.032154
v -0.003667 0.044465 -0.039764
v 0.004494 0.019455 -0.032154
v 0.003950 0.050992 -0.034872
v 0.008840 0.018908 -0.032697
v -0.004211 0.037398 -0.032154
v 0.014279 0.042287 -0.040310
v 0.006118 0.056432 -0.040310
f 843 833 847 
f 831 830 832 
f 827 833 834 
f 831 832 835 
f 834 833 837 
f 832 830 838 
f 827 834 839 
f 827 830 840 
f 833 827 840 
f 830 836 840 
f 836 833 840 
f 829 828 841 
f 832 829 841 
f 828 835 841 
f 835 832 841 
f 829 832 842 
f 834 837 842 
f 831 835 843 
f 837 833 843 
f 835 837 843 
f 832 838 844 
f 839 834 844 
f 838 839 844 
f 842 832 844 
f 834 842 844 
f 828 829 845 
f 835 828 845 
f 837 835 845 
f 829 842 845 
f 842 837 845 
f 830 827 846 
f 838 830 846 
f 839 838 846 
f 827 839 846 
f 830 831 847 
f 836 830 847 
f 833 836 847 
f 831 843 847 
