o convex_0
v -0.004643 -0.034416 0.034367
v 0.007108 0.036968 0.009177
v 0.005427 0.026886 0.055357
v -0.039911 0.003366 0.036051
v 0.026427 -0.010050 0.068787
v 0.024746 -0.026010 0.008331
v -0.033195 -0.015934 0.008331
v -0.022281 -0.009212 0.072155
v 0.039022 0.006734 0.039405
v -0.023962 0.028563 0.008338
v -0.018083 0.015964 0.069633
v 0.026427 0.025209 0.008331
v 0.014668 0.010088 0.075509
v -0.032359 -0.020972 0.046958
v 0.009625 -0.028532 0.057873
v 0.038178 -0.014257 0.028497
v 0.028944 0.017641 0.054519
v -0.017238 -0.030209 0.008338
v -0.035713 0.008411 0.055357
v -0.000444 -0.005019 0.079716
v -0.017238 0.024363 0.054519
v 0.025583 -0.026848 0.043604
v -0.012203 -0.025171 0.062918
v 0.034824 -0.003335 0.008331
v 0.036497 -0.005019 0.057873
v 0.010470 -0.033563 0.015899
v -0.039075 -0.010057 0.046958
v -0.007160 0.036968 0.008338
v 0.000392 -0.018456 0.072987
v -0.036557 -0.004181 0.012538
v -0.024798 -0.028525 0.033528
v -0.007160 0.012610 0.076348
v 0.007108 0.021848 0.067117
v 0.031462 0.005888 0.064595
v 0.031462 -0.017611 0.056196
v -0.024798 0.000857 0.072155
v -0.032359 0.015964 0.048635
v -0.032359 -0.012580 0.060395
v -0.035713 -0.017611 0.021775
v 0.015505 0.034439 0.009177
v 0.014668 -0.032725 0.033535
v -0.015565 -0.029371 0.051996
v 0.018867 0.022686 0.057873
v 0.015505 -0.017611 0.070471
v 0.017186 -0.004181 0.076355
v -0.028160 0.022686 0.008331
v 0.039859 -0.000820 0.027652
v -0.008005 0.024370 0.062072
v 0.039859 -0.007535 0.046120
v 0.027263 -0.026848 0.022614
v 0.034824 -0.015934 0.013376
v 0.035660 -0.018456 0.040250
v -0.021437 -0.019295 0.065433
v -0.039911 -0.008380 0.029336
v 0.037341 0.009249 0.047797
v -0.008005 -0.033570 0.012531
v 0.020540 0.015964 0.067949
v 0.000392 -0.032732 0.047790
v -0.037394 0.000857 0.056196
v -0.006324 0.002534 0.079716
v -0.019756 0.031923 0.009177
v -0.029841 -0.024333 0.019253
v -0.025643 0.020164 0.054519
v -0.013040 -0.011734 0.075509
f 20 60 64 
f 6 7 12 
f 7 6 18 
f 6 12 24 
f 3 2 28 
f 23 15 29 
f 32 13 33 
f 5 25 34 
f 15 22 35 
f 25 5 35 
f 11 19 36 
f 32 11 36 
f 4 19 37 
f 27 14 38 
f 8 36 38 
f 14 27 39 
f 17 12 40 
f 28 2 40 
f 12 28 40 
f 22 15 41 
f 1 26 41 
f 14 31 42 
f 31 1 42 
f 2 3 43 
f 3 33 43 
f 40 2 43 
f 17 40 43 
f 29 15 44 
f 20 29 44 
f 35 5 44 
f 15 35 44 
f 13 20 45 
f 5 34 45 
f 34 13 45 
f 44 5 45 
f 20 44 45 
f 12 7 46 
f 28 12 46 
f 10 28 46 
f 30 4 46 
f 7 30 46 
f 4 37 46 
f 37 10 46 
f 12 9 47 
f 24 12 47 
f 21 11 48 
f 3 28 48 
f 28 21 48 
f 11 32 48 
f 33 3 48 
f 32 33 48 
f 25 35 49 
f 47 9 49 
f 16 47 49 
f 26 6 50 
f 22 41 50 
f 41 26 50 
f 6 24 51 
f 24 47 51 
f 47 16 51 
f 50 6 51 
f 16 50 51 
f 35 22 52 
f 16 49 52 
f 49 35 52 
f 50 16 52 
f 22 50 52 
f 38 14 53 
f 8 38 53 
f 14 42 53 
f 42 23 53 
f 27 4 54 
f 4 30 54 
f 30 7 54 
f 7 39 54 
f 39 27 54 
f 9 12 55 
f 12 17 55 
f 17 34 55 
f 34 25 55 
f 49 9 55 
f 25 49 55 
f 18 6 56 
f 26 1 56 
f 6 26 56 
f 1 31 56 
f 31 18 56 
f 33 13 57 
f 13 34 57 
f 34 17 57 
f 17 43 57 
f 43 33 57 
f 15 23 58 
f 1 41 58 
f 41 15 58 
f 42 1 58 
f 23 42 58 
f 19 4 59 
f 4 27 59 
f 36 19 59 
f 27 38 59 
f 38 36 59 
f 20 13 60 
f 13 32 60 
f 36 8 60 
f 32 36 60 
f 28 10 61 
f 21 28 61 
f 10 37 61 
f 7 18 62 
f 31 14 62 
f 18 31 62 
f 39 7 62 
f 14 39 62 
f 19 11 63 
f 11 21 63 
f 37 19 63 
f 21 61 63 
f 61 37 63 
f 29 20 64 
f 23 29 64 
f 8 53 64 
f 53 23 64 
f 60 8 64 
o convex_1
v -0.043274 -0.051212 -0.008471
v -0.002971 -0.048690 -0.024421
v -0.002971 -0.051212 -0.024421
v -0.025640 -0.051212 -0.047932
v -0.034874 -0.031898 -0.038693
v -0.023123 -0.037778 -0.000915
v -0.004648 -0.031898 -0.041215
v -0.021446 -0.051212 0.004962
v -0.006333 -0.031898 -0.021070
v -0.034037 -0.036097 -0.005954
v -0.007173 -0.051212 -0.044576
v -0.015570 -0.031898 -0.048776
v -0.040753 -0.051212 -0.029460
v -0.010531 -0.047851 -0.004276
v -0.035714 -0.047011 0.004124
v -0.042434 -0.043652 -0.010993
v -0.024800 -0.031898 -0.015193
v -0.028998 -0.031898 -0.046254
v -0.033197 -0.051212 -0.042054
v -0.002971 -0.031898 -0.027782
v -0.002971 -0.051212 -0.037015
v -0.035714 -0.031898 -0.028615
v -0.019769 -0.041973 0.001612
v -0.005489 -0.051212 -0.013510
v -0.015570 -0.051212 -0.048776
v -0.043274 -0.046170 -0.017710
v -0.039072 -0.051212 0.001612
v -0.030675 -0.042812 0.004124
v -0.039912 -0.041973 -0.004276
v -0.010531 -0.031898 -0.047093
v -0.023123 -0.031898 -0.048776
v -0.023123 -0.033579 -0.008471
v -0.032356 -0.051212 0.005807
v -0.013049 -0.042812 -0.003432
v -0.002971 -0.031898 -0.037015
v -0.032356 -0.039457 0.000763
v -0.029839 -0.033579 -0.009315
v -0.008010 -0.045331 -0.009315
v -0.027317 -0.046170 0.005807
v -0.039072 -0.038617 -0.010154
v -0.042434 -0.048690 -0.024421
v -0.018088 -0.037778 -0.003432
v -0.017247 -0.051212 0.002446
v -0.033197 -0.031898 -0.042054
v -0.040753 -0.046170 -0.001754
v -0.035714 -0.031898 -0.036176
v -0.037395 -0.048690 -0.036176
v -0.029839 -0.036938 -0.001754
v -0.012208 -0.031898 -0.016871
v -0.015570 -0.046170 0.000763
v -0.028998 -0.051212 -0.046254
v -0.010531 -0.051212 -0.047093
v -0.043274 -0.051212 -0.020232
v -0.023123 -0.051212 -0.048776
v -0.004648 -0.048690 -0.016026
v -0.020609 -0.046170 0.004124
v -0.036554 -0.044491 0.002446
v -0.023963 -0.041973 0.003285
v -0.004648 -0.051212 -0.041215
v -0.007173 -0.031898 -0.044576
v -0.010531 -0.051212 -0.004276
v -0.036554 -0.039457 -0.002593
v -0.022286 -0.036097 -0.003432
f 106 113 127 
f 67 65 68 
f 65 67 72 
f 71 69 73 
f 67 68 75 
f 69 71 76 
f 68 65 77 
f 73 69 81 
f 69 76 82 
f 68 77 83 
f 66 67 84 
f 71 73 84 
f 67 75 85 
f 84 67 85 
f 81 69 86 
f 72 67 88 
f 75 68 89 
f 65 80 90 
f 65 72 91 
f 76 71 94 
f 89 76 94 
f 68 82 95 
f 82 76 95 
f 76 89 95 
f 91 72 97 
f 79 91 97 
f 71 84 99 
f 85 71 99 
f 84 85 99 
f 86 74 101 
f 81 86 101 
f 96 81 101 
f 84 73 102 
f 78 88 102 
f 98 78 102 
f 73 98 102 
f 92 79 103 
f 97 72 103 
f 79 97 103 
f 74 86 104 
f 86 80 104 
f 80 93 104 
f 69 77 105 
f 70 87 106 
f 98 73 106 
f 87 98 106 
f 72 88 107 
f 69 82 108 
f 82 83 108 
f 80 65 109 
f 65 91 109 
f 93 80 109 
f 80 86 110 
f 86 69 110 
f 90 80 110 
f 69 105 110 
f 105 90 110 
f 77 69 111 
f 83 77 111 
f 69 108 111 
f 108 83 111 
f 100 92 112 
f 74 100 112 
f 101 74 112 
f 96 101 112 
f 73 81 113 
f 81 96 113 
f 106 73 113 
f 78 98 114 
f 98 87 114 
f 107 78 114 
f 82 68 115 
f 68 83 115 
f 83 82 115 
f 75 89 116 
f 94 75 116 
f 89 94 116 
f 77 65 117 
f 65 90 117 
f 105 77 117 
f 90 105 117 
f 89 68 118 
f 68 95 118 
f 95 89 118 
f 67 66 119 
f 66 84 119 
f 88 67 119 
f 84 102 119 
f 102 88 119 
f 103 72 120 
f 72 107 120 
f 114 87 120 
f 107 114 120 
f 91 79 121 
f 79 92 121 
f 92 100 121 
f 109 91 121 
f 93 109 121 
f 87 70 122 
f 92 103 122 
f 70 112 122 
f 112 92 122 
f 103 120 122 
f 120 87 122 
f 75 71 123 
f 85 75 123 
f 71 85 123 
f 71 75 124 
f 94 71 124 
f 75 94 124 
f 88 78 125 
f 107 88 125 
f 78 107 125 
f 100 74 126 
f 74 104 126 
f 104 93 126 
f 121 100 126 
f 93 121 126 
f 70 106 127 
f 112 70 127 
f 96 112 127 
f 113 96 127 
o convex_2
v 0.002915 -0.051212 -0.037015
v 0.043219 -0.049529 -0.007627
v 0.042382 -0.046172 -0.005949
v 0.028942 -0.031898 -0.046254
v 0.007954 -0.031898 -0.019393
v 0.017192 -0.051212 0.002446
v 0.028942 -0.051212 -0.046254
v 0.032300 -0.036097 -0.004276
v 0.009631 -0.031898 -0.046254
v 0.035658 -0.031898 -0.036176
v 0.042382 -0.051210 -0.024415
v 0.015511 -0.051212 -0.048776
v 0.005433 -0.051212 -0.013510
v 0.002915 -0.031898 -0.027776
v 0.034822 -0.051212 0.004962
v 0.023067 -0.041135 0.002446
v 0.012153 -0.044491 -0.003432
v 0.026425 -0.032739 -0.010993
v 0.023067 -0.031898 -0.048776
v 0.037339 -0.051212 -0.036176
v 0.003756 -0.031898 -0.039537
v 0.040701 -0.040296 -0.011826
v 0.033981 -0.041973 0.002446
v 0.005433 -0.051212 -0.042054
v 0.034822 -0.031898 -0.026099
v 0.043219 -0.046172 -0.017704
v 0.021386 -0.036938 -0.002593
v 0.025581 -0.047011 0.005807
v 0.002915 -0.051212 -0.025260
v 0.037339 -0.038617 -0.005115
v 0.033141 -0.031898 -0.042054
v 0.017192 -0.041973 -0.000076
v 0.040701 -0.051210 -0.000910
v 0.023067 -0.051212 -0.048776
v 0.015511 -0.031898 -0.048776
v 0.007114 -0.047011 -0.010154
v 0.041542 -0.047011 -0.026938
v 0.039020 -0.046172 0.000768
v 0.009631 -0.051212 -0.046254
v 0.010476 -0.051212 -0.004276
v 0.004596 -0.031898 -0.023577
v 0.014674 -0.031898 -0.016032
v 0.028102 -0.039457 0.001612
v 0.023904 -0.051212 0.005807
v 0.017192 -0.047851 0.002446
v 0.031460 -0.047011 0.005807
v 0.033141 -0.034418 -0.010154
v 0.002915 -0.031898 -0.037015
v 0.033141 -0.051212 -0.042054
v 0.022227 -0.034418 -0.006793
v 0.004596 -0.048690 -0.016032
v 0.043219 -0.051210 -0.021065
v 0.026425 -0.031898 -0.016032
v 0.039020 -0.041975 -0.002588
v 0.037339 -0.036938 -0.010154
v 0.040701 -0.047851 -0.029454
v 0.018032 -0.037778 -0.003432
v 0.035658 -0.031898 -0.028615
v 0.004596 -0.031898 -0.041215
v 0.029783 -0.036938 -0.001754
v 0.021386 -0.045331 0.004124
f 159 172 188 
f 133 128 134 
f 132 131 136 
f 131 132 137 
f 134 128 139 
f 128 133 140 
f 132 136 141 
f 133 134 142 
f 131 134 146 
f 136 131 146 
f 142 134 147 
f 141 136 148 
f 139 128 151 
f 128 148 151 
f 137 132 152 
f 130 129 153 
f 149 130 153 
f 137 149 153 
f 128 140 156 
f 141 128 156 
f 135 150 157 
f 134 131 158 
f 131 137 158 
f 132 144 159 
f 129 130 160 
f 134 139 161 
f 146 134 161 
f 139 146 161 
f 139 136 162 
f 136 146 162 
f 146 139 162 
f 137 153 164 
f 160 130 165 
f 142 160 165 
f 136 139 166 
f 139 151 166 
f 151 136 166 
f 140 133 167 
f 163 140 167 
f 144 163 167 
f 132 141 168 
f 144 132 168 
f 141 163 168 
f 163 144 168 
f 152 132 169 
f 154 143 170 
f 143 155 170 
f 133 142 171 
f 159 144 172 
f 167 133 172 
f 144 167 172 
f 133 171 172 
f 142 165 173 
f 165 150 173 
f 150 170 173 
f 170 155 173 
f 171 142 173 
f 155 171 173 
f 145 135 174 
f 152 145 174 
f 135 157 174 
f 128 141 175 
f 148 128 175 
f 141 148 175 
f 147 134 176 
f 134 158 176 
f 158 147 176 
f 132 154 177 
f 169 132 177 
f 145 169 177 
f 156 140 178 
f 141 156 178 
f 140 163 178 
f 163 141 178 
f 147 138 179 
f 142 147 179 
f 153 129 179 
f 129 160 179 
f 160 142 179 
f 138 164 179 
f 164 153 179 
f 145 152 180 
f 152 169 180 
f 169 145 180 
f 130 149 181 
f 149 157 181 
f 157 150 181 
f 150 165 181 
f 165 130 181 
f 157 149 182 
f 152 174 182 
f 174 157 182 
f 138 147 183 
f 158 137 183 
f 147 158 183 
f 164 138 183 
f 137 164 183 
f 143 154 184 
f 154 132 184 
f 132 159 184 
f 159 143 184 
f 149 137 185 
f 137 152 185 
f 182 149 185 
f 152 182 185 
f 148 136 186 
f 136 151 186 
f 151 148 186 
f 135 145 187 
f 150 135 187 
f 170 150 187 
f 154 170 187 
f 145 177 187 
f 177 154 187 
f 155 143 188 
f 143 159 188 
f 171 155 188 
f 172 171 188 
o convex_3
v -0.028994 -0.019294 -0.009305
v 0.005427 0.052085 -0.042895
v 0.005427 0.052085 -0.048776
v 0.035660 -0.031896 -0.028623
v -0.025638 -0.031896 -0.047934
v 0.036501 0.029405 -0.009305
v -0.037398 0.030243 -0.012666
v 0.048261 0.007579 -0.048776
v -0.048317 0.018488 -0.048776
v 0.043213 -0.008369 -0.009305
v -0.006324 0.046191 -0.009305
v -0.045793 -0.003338 -0.009305
v 0.023067 -0.031896 -0.048776
v -0.029835 0.044522 -0.048776
v -0.035715 -0.031896 -0.028623
v 0.039857 0.036121 -0.048776
v 0.023899 -0.031896 -0.016024
v 0.021385 0.044522 -0.016866
v -0.046634 0.001701 -0.048776
v 0.045737 0.008409 -0.009305
v -0.003800 -0.026849 -0.009305
v -0.018916 0.047876 -0.027781
v 0.046579 0.023527 -0.036176
v -0.028994 -0.031896 -0.018543
v -0.044110 0.028558 -0.032815
v -0.028152 0.037798 -0.009305
v 0.029780 0.044522 -0.042895
v 0.033136 -0.031896 -0.042057
v -0.045793 0.008417 -0.009305
v 0.045737 -0.006692 -0.013504
v 0.037342 0.035282 -0.023585
v -0.033201 0.039475 -0.024423
v 0.011307 0.045352 -0.009305
v -0.033201 -0.031896 -0.042057
v -0.011363 0.051238 -0.042057
v -0.039071 0.036959 -0.048776
v 0.000388 0.050400 -0.024423
v 0.018861 0.048715 -0.032815
v 0.028938 -0.019294 -0.009305
v -0.044952 -0.009216 -0.016866
v 0.048261 0.018488 -0.048776
v 0.044896 -0.002500 -0.048776
v -0.023114 -0.031896 -0.048776
v 0.023067 0.047876 -0.048776
v 0.043213 0.027728 -0.026104
v -0.048317 0.007571 -0.042895
v 0.046579 0.003386 -0.009305
v -0.035715 -0.031896 -0.036176
v -0.040754 -0.011739 -0.009305
v 0.035660 -0.031896 -0.036176
v 0.026423 0.039475 -0.010147
v -0.023114 -0.031896 -0.016024
v -0.022282 0.043684 -0.015185
v 0.033136 -0.031896 -0.022742
v 0.029780 0.041998 -0.024423
v -0.015560 0.050392 -0.048776
v -0.047476 0.019318 -0.034496
v -0.029835 0.043684 -0.033657
v 0.038184 0.036959 -0.033657
v -0.046634 0.004225 -0.010147
v 0.044055 0.030243 -0.042057
v 0.012980 0.049561 -0.027781
v -0.045793 0.026889 -0.048776
v -0.044110 0.024365 -0.023585
f 245 217 252 
f 191 196 197 
f 194 189 198 
f 189 194 199 
f 189 199 200 
f 192 193 201 
f 197 196 201 
f 191 197 202 
f 193 192 203 
f 196 191 204 
f 203 192 205 
f 197 201 207 
f 194 198 208 
f 198 189 209 
f 203 205 212 
f 200 199 214 
f 192 201 216 
f 214 195 217 
f 200 214 217 
f 198 192 218 
f 213 195 220 
f 195 214 220 
f 199 194 221 
f 193 203 222 
f 207 193 222 
f 190 191 223 
f 202 197 224 
f 213 220 224 
f 210 199 225 
f 199 221 225 
f 190 223 225 
f 223 210 225 
f 205 198 227 
f 198 209 227 
f 209 205 227 
f 203 200 228 
f 196 204 229 
f 201 196 230 
f 216 201 230 
f 196 218 230 
f 201 193 231 
f 193 207 231 
f 207 201 231 
f 191 190 232 
f 204 191 232 
f 215 204 232 
f 190 226 232 
f 226 215 232 
f 194 208 233 
f 208 211 233 
f 219 194 233 
f 197 207 234 
f 228 200 234 
f 207 228 234 
f 208 198 235 
f 211 208 235 
f 218 196 235 
f 198 218 235 
f 196 229 235 
f 229 211 235 
f 222 203 236 
f 207 222 236 
f 203 228 236 
f 228 207 236 
f 189 200 237 
f 200 203 237 
f 212 189 237 
f 203 212 237 
f 192 216 238 
f 218 192 238 
f 216 230 238 
f 230 218 238 
f 194 219 239 
f 221 194 239 
f 206 221 239 
f 209 189 240 
f 205 209 240 
f 189 212 240 
f 212 205 240 
f 199 210 241 
f 214 199 241 
f 220 214 241 
f 192 198 242 
f 198 205 242 
f 205 192 242 
f 215 226 243 
f 226 206 243 
f 239 219 243 
f 206 239 243 
f 191 202 244 
f 202 210 244 
f 223 191 244 
f 210 223 244 
f 210 202 246 
f 202 224 246 
f 224 220 246 
f 241 210 246 
f 220 241 246 
f 204 215 247 
f 219 233 247 
f 215 243 247 
f 243 219 247 
f 200 217 248 
f 197 234 248 
f 234 200 248 
f 245 197 248 
f 217 245 248 
f 229 204 249 
f 211 229 249 
f 233 211 249 
f 204 247 249 
f 247 233 249 
f 221 206 250 
f 190 225 250 
f 225 221 250 
f 226 190 250 
f 206 226 250 
f 224 197 251 
f 213 224 251 
f 197 245 251 
f 245 213 251 
f 195 213 252 
f 217 195 252 
f 213 245 252 
o convex_4
v 0.009621 -0.030214 -0.000906
v 0.001225 0.046206 -0.008464
v 0.001225 0.046206 -0.009305
v -0.045798 -0.001660 -0.009305
v -0.024795 0.028561 0.008331
v 0.045739 -0.001660 -0.009305
v 0.028939 0.022682 0.008331
v -0.020602 -0.028532 0.008331
v 0.029781 -0.020971 0.008331
v -0.007161 -0.026850 -0.009305
v -0.034875 0.031077 -0.009305
v 0.034817 0.031077 -0.009305
v 0.009621 0.036956 0.008331
v -0.034033 -0.012569 0.008331
v -0.043271 0.012606 -0.002586
v 0.033141 -0.016774 -0.009305
v 0.041537 0.011765 -0.000067
v -0.038235 -0.013418 -0.009305
v -0.015557 0.040320 -0.000067
v 0.017183 -0.030214 0.008331
v 0.025588 0.038638 -0.006784
v 0.033975 -0.012577 0.008331
v -0.008004 -0.031896 0.003292
v -0.023962 0.040320 -0.008464
v -0.005486 0.037804 0.008331
v -0.037393 0.018485 0.002452
v 0.027263 0.030243 0.004131
v 0.007103 -0.026850 -0.009305
v 0.042379 0.015962 -0.003425
v -0.029831 -0.020971 0.008331
v 0.016341 0.043684 -0.008464
v -0.016399 -0.028532 0.000772
v 0.041537 -0.010054 -0.008464
v -0.034033 -0.001660 0.008331
v -0.045798 0.008409 -0.009305
v 0.044897 0.011765 -0.009305
v -0.028155 0.032759 -0.000067
v 0.018017 0.034448 0.007491
v 0.044897 0.002537 -0.005104
v 0.002067 0.042843 -0.000067
v -0.009679 0.045365 -0.008464
v -0.031515 -0.017608 -0.009305
v 0.033975 -0.000819 0.008331
v 0.039019 0.019326 -0.000067
v -0.018084 0.034441 0.007491
v -0.044113 0.004227 -0.003425
v 0.004585 -0.031896 0.001613
v -0.029831 0.020167 0.008331
v 0.025588 -0.025169 0.007491
v -0.043271 -0.007531 -0.008464
v 0.012981 0.041161 -0.000067
v -0.016399 -0.030207 0.008331
v 0.016341 -0.026850 -0.003425
v -0.002117 -0.028532 -0.007625
v -0.016399 0.043676 -0.009305
v 0.033141 0.032766 -0.007625
v -0.006319 0.042843 -0.000906
v -0.012206 -0.028532 -0.003425
v 0.023903 0.040320 -0.009305
v -0.036551 0.021849 0.000772
v -0.041595 0.011773 -0.000067
v 0.007945 -0.031896 0.004972
v 0.044897 -0.004175 -0.008464
v -0.041595 0.017644 -0.004265
f 278 312 316 
f 256 255 258 
f 259 257 260 
f 259 260 261 
f 256 258 262 
f 255 256 263 
f 258 255 264 
f 257 259 265 
f 260 257 266 
f 262 258 268 
f 256 262 270 
f 261 260 272 
f 259 261 274 
f 257 265 277 
f 262 268 280 
f 260 266 282 
f 270 260 282 
f 255 254 283 
f 268 258 285 
f 266 257 286 
f 263 256 287 
f 258 264 288 
f 264 281 288 
f 276 263 289 
f 265 259 290 
f 259 279 290 
f 279 273 290 
f 269 274 291 
f 281 269 291 
f 258 288 291 
f 288 281 291 
f 277 265 292 
f 254 255 293 
f 270 262 294 
f 260 270 294 
f 284 260 294 
f 269 259 295 
f 259 274 295 
f 274 269 295 
f 259 269 296 
f 279 259 296 
f 269 281 296 
f 271 276 297 
f 257 277 297 
f 277 271 297 
f 289 257 297 
f 276 289 297 
f 256 266 298 
f 287 256 298 
f 267 287 298 
f 280 253 299 
f 257 278 300 
f 286 257 300 
f 278 286 300 
f 261 272 301 
f 272 268 301 
f 285 261 301 
f 268 285 301 
f 266 256 302 
f 256 270 302 
f 282 266 302 
f 270 282 302 
f 283 254 303 
f 273 283 303 
f 265 290 303 
f 290 273 303 
f 254 292 303 
f 292 265 303 
f 272 260 304 
f 260 284 304 
f 284 275 304 
f 272 253 305 
f 268 272 305 
f 253 280 305 
f 280 268 305 
f 262 280 306 
f 299 275 306 
f 280 299 306 
f 255 263 307 
f 263 276 307 
f 276 271 307 
f 293 255 307 
f 271 293 307 
f 273 279 308 
f 281 264 308 
f 279 296 308 
f 296 281 308 
f 271 277 309 
f 292 254 309 
f 277 292 309 
f 254 293 309 
f 293 271 309 
f 275 284 310 
f 294 262 310 
f 284 294 310 
f 262 306 310 
f 306 275 310 
f 264 255 311 
f 255 283 311 
f 283 273 311 
f 308 264 311 
f 273 308 311 
f 278 257 312 
f 257 289 312 
f 289 263 312 
f 278 267 313 
f 266 286 313 
f 286 278 313 
f 298 266 313 
f 267 298 313 
f 253 272 314 
f 299 253 314 
f 275 299 314 
f 272 304 314 
f 304 275 314 
f 274 261 315 
f 261 285 315 
f 285 258 315 
f 258 291 315 
f 291 274 315 
f 267 278 316 
f 263 287 316 
f 287 267 316 
f 312 263 316 
