o convex_0
v -0.026632 0.004936 0.009945
v -0.000060 -0.002979 0.009945
v -0.000060 -0.003546 0.009945
v -0.000060 -0.003546 -0.044330
v -0.027766 -0.003546 -0.005318
v -0.000060 0.004936 -0.044330
v -0.019283 0.004936 -0.044330
v -0.000060 0.004936 0.009379
v -0.022108 -0.003546 -0.044330
v -0.020414 0.004369 0.017865
v -0.022675 -0.003546 0.005988
v -0.027766 0.004936 0.002597
v -0.026068 -0.002979 -0.027929
v -0.011936 -0.003546 0.010511
v -0.014195 0.004936 0.017299
v -0.027766 -0.003546 -0.000228
v -0.024370 0.002108 -0.027362
v -0.005715 -0.003546 0.011077
v -0.023806 0.004369 0.014468
v -0.022675 -0.002979 -0.043197
v -0.022675 0.004936 -0.028495
v -0.016457 0.004369 0.017865
v -0.015890 -0.003546 0.009379
v -0.026068 -0.003546 -0.027929
v -0.027766 0.003804 0.005988
v -0.020414 0.004936 0.017865
v -0.025504 -0.000718 -0.027362
v -0.026068 -0.003546 0.002597
f 19 16 28 
f 2 3 4 
f 4 3 5 
f 2 4 6 
f 1 6 7 
f 6 4 7 
f 2 6 8 
f 6 1 8 
f 4 5 9 
f 7 4 9 
f 5 3 11 
f 1 7 12 
f 5 12 13 
f 11 3 14 
f 3 2 15 
f 2 8 15 
f 8 1 15 
f 5 11 16 
f 12 5 16 
f 14 3 18 
f 10 14 18 
f 1 16 19 
f 7 9 20 
f 12 7 21 
f 7 17 21 
f 17 12 21 
f 3 15 22 
f 18 3 22 
f 10 18 22 
f 10 11 23 
f 14 10 23 
f 11 14 23 
f 9 5 24 
f 5 13 24 
f 20 9 24 
f 13 20 24 
f 1 12 25 
f 16 1 25 
f 12 16 25 
f 15 1 26 
f 1 19 26 
f 19 10 26 
f 22 15 26 
f 10 22 26 
f 13 12 27 
f 17 7 27 
f 12 17 27 
f 7 20 27 
f 20 13 27 
f 11 10 28 
f 16 11 28 
f 10 19 28 
o convex_1
v -0.000627 -0.001851 0.030870
v -0.018154 -0.014288 0.024085
v -0.017020 -0.017113 0.024085
v -0.014195 -0.015419 0.037089
v -0.000060 -0.023900 0.024085
v -0.000060 -0.021638 0.037089
v -0.009672 -0.002982 0.037089
v -0.000060 -0.003546 0.024085
v -0.007977 -0.022769 0.037089
v -0.000060 -0.001284 0.037089
v -0.013629 -0.006373 0.024085
v -0.015325 -0.007505 0.036522
v -0.010800 -0.022769 0.024085
v -0.006280 -0.003546 0.024651
v -0.015325 -0.019942 0.024651
v -0.015888 -0.015419 0.033696
v -0.006280 -0.001851 0.034826
v -0.018154 -0.012592 0.026348
v -0.016457 -0.012592 0.034826
v -0.013629 -0.018242 0.034826
v -0.015325 -0.007505 0.026348
v -0.009107 -0.023331 0.024651
v -0.004584 -0.022769 0.037089
v -0.013062 -0.005242 0.037089
v -0.011367 -0.004680 0.027480
v -0.004019 -0.001284 0.035393
v -0.002889 -0.002982 0.024651
v -0.014195 -0.021073 0.024651
f 48 43 56 
f 31 30 33 
f 32 34 35 
f 33 30 36 
f 34 33 36 
f 34 32 37 
f 35 34 38 
f 34 36 38 
f 36 29 38 
f 36 30 39 
f 31 33 41 
f 36 39 42 
f 30 31 44 
f 31 43 44 
f 32 40 47 
f 30 44 47 
f 44 32 47 
f 46 30 47 
f 40 46 47 
f 37 32 48 
f 32 44 48 
f 44 43 48 
f 39 30 49 
f 30 46 49 
f 46 40 49 
f 33 37 50 
f 41 33 50 
f 37 41 50 
f 33 34 51 
f 37 33 51 
f 34 37 51 
f 32 35 52 
f 35 39 52 
f 40 32 52 
f 39 49 52 
f 49 40 52 
f 39 35 53 
f 42 39 53 
f 35 45 53 
f 45 42 53 
f 38 29 54 
f 35 38 54 
f 45 35 54 
f 42 45 54 
f 29 36 55 
f 36 42 55 
f 54 29 55 
f 42 54 55 
f 31 41 56 
f 41 37 56 
f 43 31 56 
f 37 48 56 
o convex_2
v -0.003456 -0.027856 0.046139
v -0.000060 -0.017678 0.059706
v -0.000627 -0.017678 0.059706
v -0.000060 -0.001285 0.037089
v -0.014760 0.000409 0.050656
v -0.015327 -0.016548 0.038790
v -0.010803 -0.023898 0.052918
v -0.009104 0.003802 0.056879
v -0.000060 -0.021639 0.037089
v -0.014195 -0.005808 0.037089
v -0.000060 -0.002980 0.053485
v -0.000060 -0.028421 0.056312
v -0.012499 0.004370 0.055747
v -0.007974 -0.022768 0.037089
v -0.014760 -0.020505 0.047268
v -0.005717 -0.020505 0.058574
v -0.012499 0.003237 0.050091
v -0.011931 -0.023898 0.045006
v -0.012499 0.000977 0.056312
v -0.006848 -0.001850 0.037089
v -0.008539 0.004370 0.052918
v -0.000060 -0.027856 0.045573
v -0.004584 -0.028421 0.052918
v -0.000060 -0.000721 0.047835
v -0.015327 -0.008071 0.037089
v -0.015327 -0.018246 0.047268
v -0.006848 -0.024460 0.056879
v -0.000060 -0.012590 0.058574
v -0.010235 -0.022200 0.054616
v -0.011931 0.003802 0.056879
v -0.014195 -0.020505 0.049527
v -0.014195 -0.017113 0.037089
v -0.015327 -0.001850 0.048960
v -0.007974 0.003802 0.056312
v -0.002888 -0.023898 0.058574
v -0.010803 0.004370 0.051789
v -0.007974 -0.019376 0.057443
v -0.014760 -0.000156 0.047268
v -0.013063 0.002107 0.055747
v -0.012499 -0.022768 0.042746
v -0.006283 -0.026726 0.045006
v -0.010803 -0.025028 0.048960
v -0.000060 -0.028989 0.051789
v -0.004584 -0.001285 0.037089
v -0.004019 -0.022768 0.037089
v -0.000060 -0.000721 0.039921
v -0.009671 -0.002980 0.037089
v -0.001192 -0.027291 0.057443
v -0.004019 -0.019941 0.059137
v -0.000060 -0.008639 0.056879
f 90 84 106 
f 59 58 64 
f 60 58 65 
f 60 65 66 
f 58 60 67 
f 65 58 68 
f 66 65 70 
f 60 66 76 
f 65 68 78 
f 57 70 78 
f 67 60 80 
f 66 70 81 
f 62 71 82 
f 81 62 82 
f 63 79 83 
f 64 58 84 
f 58 67 84 
f 63 83 85 
f 59 64 86 
f 64 69 86 
f 71 63 87 
f 82 71 87 
f 85 75 87 
f 63 85 87 
f 62 81 88 
f 81 70 88 
f 81 82 89 
f 69 64 90 
f 77 69 90 
f 67 80 90 
f 80 77 90 
f 64 84 90 
f 58 59 91 
f 72 83 91 
f 73 69 92 
f 77 60 92 
f 69 77 92 
f 83 72 93 
f 75 85 93 
f 85 83 93 
f 72 86 93 
f 86 75 93 
f 61 69 94 
f 73 66 94 
f 69 73 94 
f 66 81 94 
f 89 61 94 
f 81 89 94 
f 69 61 95 
f 86 69 95 
f 75 86 95 
f 82 87 95 
f 87 75 95 
f 61 89 95 
f 89 82 95 
f 71 62 96 
f 74 71 96 
f 62 88 96 
f 88 70 96 
f 70 57 97 
f 57 79 97 
f 96 70 97 
f 74 96 97 
f 63 71 98 
f 71 74 98 
f 79 63 98 
f 97 79 98 
f 74 97 98 
f 57 78 99 
f 78 68 99 
f 68 79 99 
f 79 57 99 
f 60 76 100 
f 76 73 100 
f 73 92 100 
f 92 60 100 
f 70 65 101 
f 65 78 101 
f 78 70 101 
f 60 77 102 
f 80 60 102 
f 77 80 102 
f 66 73 103 
f 76 66 103 
f 73 76 103 
f 68 58 104 
f 79 68 104 
f 83 79 104 
f 58 91 104 
f 91 83 104 
f 59 86 105 
f 86 72 105 
f 91 59 105 
f 72 91 105 
f 84 67 106 
f 67 90 106 
o convex_3
v -0.006280 0.035466 0.020689
v -0.006845 0.023594 -0.003620
v -0.006845 0.024160 -0.003620
v -0.000060 0.023594 0.003731
v -0.006845 0.023594 0.029174
v -0.000060 0.030379 0.013907
v -0.006845 0.037164 0.009387
v -0.000060 0.023594 0.020125
v -0.000060 0.028684 0.007689
v -0.006280 0.031508 0.025781
v -0.000060 0.029250 0.017861
v -0.006280 0.030379 0.001471
v -0.006280 0.037164 0.009387
v -0.006845 0.034336 0.022953
v -0.006280 0.024726 0.029174
v -0.006280 0.025292 -0.003052
v -0.006280 0.037164 0.013907
v -0.000060 0.026422 0.019560
f 116 121 124 
f 109 108 111 
f 108 110 111 
f 109 111 113 
f 111 110 114 
f 110 112 114 
f 112 110 115 
f 112 107 117 
f 114 112 117 
f 107 116 117 
f 109 113 118 
f 115 118 119 
f 112 115 119 
f 118 113 119 
f 113 111 120 
f 116 107 120 
f 111 116 120 
f 111 114 121 
f 116 111 121 
f 108 109 122 
f 110 108 122 
f 115 110 122 
f 109 118 122 
f 118 115 122 
f 107 112 123 
f 112 119 123 
f 119 113 123 
f 120 107 123 
f 113 120 123 
f 114 117 124 
f 117 116 124 
f 121 114 124 
o convex_4
v 0.005030 -0.002980 0.010503
v 0.027645 0.005501 0.006556
v 0.027645 0.004370 0.006556
v -0.000060 -0.002980 -0.044330
v -0.000060 0.007197 0.010503
v 0.019162 0.007197 -0.044330
v 0.025947 -0.002980 -0.027363
v -0.000060 0.007197 -0.044330
v 0.019162 0.007197 0.026912
v 0.027078 -0.002980 0.001459
v 0.021988 -0.002980 -0.044330
v -0.000060 -0.002980 0.009374
v 0.027078 0.007197 0.005991
v 0.020293 -0.002980 0.007679
v 0.021988 0.006631 0.024646
v 0.018034 0.006631 0.026912
v 0.027645 0.005501 0.002588
v 0.027645 -0.002980 -0.005327
v 0.025380 -0.000718 -0.027928
v 0.010684 -0.002980 0.010503
v 0.025947 0.007197 0.015036
v 0.016900 0.006631 0.026340
v 0.022554 -0.002414 -0.042628
v 0.019162 0.006631 0.026912
v 0.024249 -0.002980 0.004848
v 0.027645 -0.002980 0.000329
v 0.024249 0.002109 -0.027928
v 0.023685 0.006631 0.021256
v 0.015772 -0.002980 0.009380
f 148 144 153 
f 125 128 131 
f 128 129 132 
f 129 130 132 
f 130 128 132 
f 130 129 133 
f 125 131 134 
f 128 130 135 
f 131 128 135 
f 128 125 136 
f 129 128 136 
f 130 133 137 
f 125 134 138 
f 136 125 140 
f 126 127 141 
f 130 137 141 
f 137 126 141 
f 134 131 142 
f 141 127 142 
f 131 141 142 
f 141 131 143 
f 125 138 144 
f 140 125 144 
f 127 126 145 
f 126 137 145 
f 137 133 145 
f 133 139 145 
f 133 129 146 
f 129 136 146 
f 140 133 146 
f 136 140 146 
f 135 130 147 
f 131 135 147 
f 130 143 147 
f 143 131 147 
f 139 133 148 
f 133 140 148 
f 140 144 148 
f 138 134 149 
f 134 139 149 
f 148 138 149 
f 139 148 149 
f 139 134 150 
f 134 142 150 
f 142 127 150 
f 127 145 150 
f 130 141 151 
f 143 130 151 
f 141 143 151 
f 145 139 152 
f 139 150 152 
f 150 145 152 
f 144 138 153 
f 138 148 153 
o convex_5
v 0.017467 -0.011465 0.027479
v -0.000060 -0.022769 0.038218
v -0.000060 -0.022769 0.038786
v -0.000060 -0.001284 0.038786
v -0.000060 -0.002980 0.026912
v 0.015204 -0.007505 0.038786
v -0.000060 -0.022204 0.026912
v 0.012377 -0.019940 0.038786
v 0.011246 -0.021638 0.026912
v 0.010680 -0.004677 0.026912
v 0.007291 -0.001849 0.037655
v 0.007291 -0.023335 0.038786
v 0.017467 -0.014850 0.026912
v 0.015204 -0.016549 0.038786
v 0.014074 -0.006374 0.026912
v 0.015769 -0.018245 0.028044
v 0.003333 -0.002415 0.028044
v 0.012941 -0.004677 0.038786
v 0.009549 -0.022204 0.026912
v 0.016335 -0.012588 0.035393
v 0.003898 -0.001284 0.034826
v 0.015769 -0.008070 0.026912
v 0.003333 -0.023335 0.038218
v -0.000060 -0.002415 0.027479
v 0.011812 -0.004677 0.029174
v 0.005594 -0.002980 0.026912
v 0.005028 -0.001284 0.038786
v 0.012377 -0.021071 0.027479
f 162 169 181 
f 155 156 157 
f 155 157 158 
f 157 156 159 
f 155 158 160 
f 159 156 161 
f 160 158 162 
f 162 158 163 
f 161 156 165 
f 162 163 166 
f 159 161 167 
f 166 163 168 
f 162 166 169 
f 167 161 169 
f 166 167 169 
f 157 159 171 
f 160 162 172 
f 162 165 172 
f 154 159 173 
f 166 154 173 
f 159 167 173 
f 167 166 173 
f 159 154 175 
f 154 166 175 
f 166 168 175 
f 171 159 175 
f 168 171 175 
f 156 155 176 
f 155 160 176 
f 165 156 176 
f 160 172 176 
f 172 165 176 
f 158 157 177 
f 157 174 177 
f 174 170 177 
f 168 163 178 
f 164 171 178 
f 171 168 178 
f 163 158 179 
f 174 164 179 
f 170 174 179 
f 158 177 179 
f 177 170 179 
f 178 163 179 
f 164 178 179 
f 157 171 180 
f 171 164 180 
f 174 157 180 
f 164 174 180 
f 161 165 181 
f 165 162 181 
f 169 161 181 
o convex_6
v 0.011810 -0.022200 0.041048
v 0.000506 -0.017678 0.059706
v -0.000060 -0.017678 0.059706
v 0.011246 0.004370 0.051787
v -0.000060 -0.001285 0.038786
v -0.000060 -0.026726 0.043874
v 0.009550 -0.023898 0.054617
v 0.015206 -0.008071 0.038786
v 0.011810 0.003802 0.056876
v -0.000060 -0.002980 0.053483
v 0.015206 -0.018807 0.047270
v -0.000060 -0.022768 0.038786
v 0.000506 -0.028989 0.055182
v 0.007853 0.003802 0.056311
v 0.015206 -0.000721 0.048963
v 0.010116 -0.002980 0.038786
v 0.005596 -0.020505 0.058573
v 0.015206 -0.016548 0.038786
v 0.008983 -0.026161 0.048963
v 0.007292 -0.023898 0.039355
v 0.012943 0.001542 0.055745
v -0.000060 -0.027291 0.057443
v 0.001637 -0.028421 0.047270
v 0.013508 -0.021639 0.050093
v -0.000060 -0.000721 0.047270
v 0.014073 -0.000156 0.046137
v 0.013508 -0.022200 0.043874
v 0.008983 -0.021067 0.056311
v 0.005596 -0.001285 0.038786
v -0.000060 -0.012590 0.058573
v 0.008418 0.004370 0.052919
v 0.006162 -0.024460 0.057443
v 0.003898 -0.028421 0.054048
v 0.006727 -0.026161 0.043874
v 0.013508 0.003237 0.054617
v 0.012943 -0.019941 0.038786
v 0.012943 0.002107 0.048398
v -0.000060 -0.000721 0.039918
v 0.008983 0.003802 0.056876
v 0.011246 -0.024460 0.050093
v 0.001071 -0.019376 0.059706
v 0.014073 -0.005808 0.038786
v 0.011810 -0.023898 0.044444
v -0.000060 -0.028989 0.051787
v 0.005596 -0.027856 0.050093
v 0.010681 -0.022200 0.054048
v -0.000060 -0.008639 0.056876
f 211 195 228 
f 184 186 187 
f 184 183 190 
f 186 184 191 
f 187 186 193 
f 186 189 193 
f 192 189 196 
f 189 186 197 
f 189 192 199 
f 193 189 199 
f 187 193 201 
f 184 187 203 
f 187 201 204 
f 192 202 205 
f 186 191 206 
f 191 195 206 
f 196 189 207 
f 199 192 208 
f 192 205 208 
f 190 198 209 
f 202 190 209 
f 197 186 210 
f 191 184 211 
f 190 185 212 
f 206 195 212 
f 203 194 213 
f 209 198 213 
f 188 209 213 
f 188 213 214 
f 213 194 214 
f 204 201 215 
f 185 190 216 
f 192 196 216 
f 202 192 216 
f 190 202 216 
f 193 199 217 
f 201 193 217 
f 182 201 217 
f 208 182 217 
f 199 208 217 
f 196 207 218 
f 207 197 218 
f 210 185 218 
f 197 210 218 
f 185 216 218 
f 216 196 218 
f 186 206 219 
f 185 210 219 
f 210 186 219 
f 212 185 219 
f 206 212 219 
f 184 190 220 
f 211 184 220 
f 195 211 220 
f 190 212 220 
f 212 195 220 
f 205 188 221 
f 208 205 221 
f 188 214 221 
f 214 200 221 
f 183 184 222 
f 190 183 222 
f 198 190 222 
f 184 203 222 
f 203 213 222 
f 213 198 222 
f 189 197 223 
f 207 189 223 
f 197 207 223 
f 201 182 224 
f 182 208 224 
f 215 201 224 
f 200 215 224 
f 221 200 224 
f 208 221 224 
f 203 187 225 
f 194 203 225 
f 187 204 225 
f 214 194 225 
f 204 214 225 
f 200 214 226 
f 214 204 226 
f 215 200 226 
f 204 215 226 
f 188 205 227 
f 205 202 227 
f 209 188 227 
f 202 209 227 
f 195 191 228 
f 191 211 228 
o convex_7
v 0.012379 0.036031 -0.009844
v 0.014075 0.023594 -0.029064
v 0.014075 0.024160 -0.029064
v 0.020294 0.025856 -0.020014
v 0.007855 0.023594 -0.005882
v 0.018597 0.028120 -0.005882
v 0.016336 0.036031 -0.015494
v 0.010683 0.033769 -0.017194
v 0.014640 0.023594 -0.005882
v 0.010683 0.023594 -0.025102
v 0.020294 0.023594 -0.023407
v 0.016336 0.033769 -0.005882
v 0.019163 0.025292 -0.025669
v 0.010118 0.030944 -0.005882
v 0.014640 0.034902 -0.018319
v 0.010118 0.034336 -0.014364
v 0.018597 0.030379 -0.005882
v 0.012945 0.037164 -0.013801
v 0.016901 0.024160 -0.029064
v 0.020294 0.023594 -0.020579
v 0.007855 0.025292 -0.006449
v 0.015205 0.037164 -0.012102
v 0.019728 0.027552 -0.022274
v 0.009553 0.024160 -0.019451
v 0.017467 0.025856 -0.005882
v 0.012379 0.035466 -0.017194
v 0.011814 0.024160 -0.027366
v 0.016901 0.031508 -0.021146
v 0.013510 0.033769 -0.005882
v 0.011249 0.036031 -0.011539
f 246 244 258 
f 233 230 237 
f 234 233 237 
f 230 233 238 
f 237 230 239 
f 233 234 240 
f 233 240 242 
f 236 238 244 
f 234 232 245 
f 240 234 245 
f 235 243 246 
f 230 231 247 
f 239 230 247 
f 241 239 247 
f 231 243 247 
f 232 234 248 
f 239 232 248 
f 237 239 248 
f 233 242 249 
f 242 244 249 
f 229 240 250 
f 245 235 250 
f 240 245 250 
f 246 229 250 
f 235 246 250 
f 232 239 251 
f 239 241 251 
f 245 232 251 
f 235 245 251 
f 238 233 252 
f 244 238 252 
f 233 249 252 
f 249 244 252 
f 234 237 253 
f 248 234 253 
f 237 248 253 
f 243 231 254 
f 236 244 254 
f 246 243 254 
f 244 246 254 
f 231 230 255 
f 230 238 255 
f 238 236 255 
f 254 231 255 
f 236 254 255 
f 243 235 256 
f 241 247 256 
f 247 243 256 
f 235 251 256 
f 251 241 256 
f 240 229 257 
f 229 242 257 
f 242 240 257 
f 242 229 258 
f 244 242 258 
f 229 246 258 
o convex_8
v -0.024372 -0.021638 -0.042066
v -0.000060 -0.003548 -0.030194
v -0.000060 -0.018245 -0.030194
v -0.000060 -0.003548 -0.044330
v -0.025503 -0.004115 -0.030194
v -0.022676 -0.003548 -0.044330
v -0.008543 -0.021638 -0.044330
v -0.018714 -0.023333 -0.030194
v -0.026635 -0.019940 -0.043764
v -0.000060 -0.014288 -0.044330
v -0.015322 -0.024464 -0.044330
v -0.026068 -0.013160 -0.030194
v -0.007412 -0.022203 -0.030194
v -0.022109 -0.021073 -0.030194
v -0.024936 -0.003548 -0.030194
v -0.025503 -0.021073 -0.044330
v -0.012502 -0.023333 -0.030194
v -0.019281 -0.023898 -0.043764
v -0.024372 -0.004680 -0.038673
v -0.004020 -0.018245 -0.044330
v -0.026635 -0.019940 -0.042633
v -0.020413 -0.022768 -0.030194
v -0.026068 -0.008071 -0.030194
v -0.026635 -0.019377 -0.043764
f 281 263 282 
f 260 261 262 
f 261 260 263 
f 260 262 264 
f 264 262 265 
f 261 263 266 
f 262 261 268 
f 265 262 268 
f 264 265 269 
f 266 263 270 
f 265 261 271 
f 261 266 271 
f 269 265 271 
f 266 270 272 
f 263 260 273 
f 260 264 273 
f 264 263 273 
f 264 269 274 
f 266 269 275 
f 271 266 275 
f 269 271 275 
f 269 266 276 
f 259 274 276 
f 274 269 276 
f 263 264 277 
f 261 265 278 
f 268 261 278 
f 265 268 278 
f 272 270 279 
f 267 274 279 
f 274 259 279 
f 266 272 280 
f 259 276 280 
f 276 266 280 
f 279 259 280 
f 272 279 280 
f 270 263 281 
f 279 270 281 
f 279 281 282 
f 264 274 282 
f 274 267 282 
f 263 277 282 
f 277 264 282 
f 267 279 282 
o convex_9
v -0.021546 -0.026160 -0.001929
v -0.000060 -0.003546 0.024080
v -0.005717 -0.003546 0.024080
v -0.025500 -0.003546 -0.030189
v -0.000060 -0.018244 -0.030189
v -0.000060 -0.029553 0.009944
v -0.018153 -0.017116 0.023511
v -0.000060 -0.003546 -0.030189
v -0.019285 -0.023332 -0.030189
v -0.027764 -0.003546 -0.000797
v -0.000060 -0.031251 -0.005881
v -0.026067 -0.023899 -0.017748
v -0.001192 -0.024465 0.024080
v -0.012499 -0.028989 0.008249
v -0.024371 -0.022768 0.003160
v -0.014760 -0.007505 0.024080
v -0.010803 -0.030684 -0.003618
v -0.028331 -0.013162 -0.010401
v -0.026067 -0.013162 -0.030189
v -0.013631 -0.023896 0.020685
v -0.000060 -0.025027 -0.021706
v -0.022675 -0.026160 -0.017748
v -0.027199 -0.018244 -0.003055
v -0.011935 -0.023334 -0.030189
v -0.027199 -0.005810 -0.025663
v -0.018717 -0.023899 0.013902
v -0.017586 -0.012593 0.024080
v -0.019849 -0.017677 0.020122
v -0.003453 -0.031251 0.003724
v -0.016457 -0.028989 0.001466
v -0.000060 -0.024465 0.024080
v -0.001192 -0.029553 -0.012664
v -0.014760 -0.021070 0.024080
v -0.004585 -0.031251 -0.005881
v -0.009109 -0.026160 0.018422
v -0.026067 -0.015985 0.002597
v -0.022675 -0.020506 -0.030189
v -0.012499 -0.005807 0.024080
v -0.028331 -0.005243 -0.004181
v -0.025500 -0.003546 0.003160
v -0.016457 -0.023896 -0.029621
v -0.006849 -0.022201 -0.030189
v -0.010239 -0.023896 0.023511
v -0.024938 -0.025027 -0.013791
v -0.019849 -0.019939 0.018422
v -0.022675 -0.024463 0.003724
v -0.007413 -0.030684 0.004855
v -0.024938 -0.025027 -0.018880
v -0.017586 -0.010333 0.022948
v -0.026632 -0.003546 -0.025100
v -0.019285 -0.015985 0.021817
v -0.027199 -0.009203 -0.025663
v -0.028331 -0.007508 -0.012664
v -0.000060 -0.031251 0.003724
v -0.021546 -0.026160 -0.018880
v -0.009109 -0.028989 0.010512
v -0.000060 -0.029553 -0.012664
v -0.026067 -0.023899 -0.014359
v -0.024938 -0.020506 0.003724
v -0.014760 -0.029553 -0.005312
v -0.026067 -0.023332 -0.018880
v -0.027199 -0.018808 -0.003618
f 341 305 344 
f 285 284 286 
f 287 284 288 
f 286 284 290 
f 287 286 290 
f 284 287 290 
f 286 287 291 
f 285 286 292 
f 287 288 293 
f 284 285 295 
f 295 285 298 
f 286 291 301 
f 287 293 303 
f 291 287 306 
f 286 301 307 
f 296 302 308 
f 295 298 309 
f 296 308 312 
f 288 284 313 
f 284 295 313 
f 295 288 313 
f 308 302 315 
f 309 289 315 
f 295 309 315 
f 293 311 316 
f 311 299 316 
f 314 293 316 
f 292 305 318 
f 310 292 318 
f 301 291 319 
f 298 285 320 
f 305 292 321 
f 300 305 321 
f 285 292 322 
f 320 285 322 
f 298 320 322 
f 291 306 323 
f 314 316 323 
f 287 303 324 
f 306 287 324 
f 303 306 324 
f 302 296 325 
f 295 315 325 
f 315 302 325 
f 317 295 325 
f 296 317 325 
f 312 283 326 
f 304 312 326 
f 297 308 327 
f 289 310 327 
f 308 315 327 
f 315 289 327 
f 308 297 328 
f 283 312 328 
f 312 308 328 
f 326 283 328 
f 297 326 328 
f 299 311 329 
f 296 312 329 
f 312 299 329 
f 291 304 330 
f 319 291 330 
f 326 294 330 
f 304 326 330 
f 292 309 331 
f 309 298 331 
f 322 292 331 
f 298 322 331 
f 292 286 332 
f 286 307 332 
f 321 292 332 
f 307 321 332 
f 289 309 333 
f 309 292 333 
f 292 310 333 
f 310 289 333 
f 307 301 334 
f 307 334 335 
f 300 321 335 
f 321 307 335 
f 334 300 335 
f 293 288 336 
f 288 311 336 
f 311 293 336 
f 304 291 337 
f 299 304 337 
f 316 299 337 
f 291 323 337 
f 323 316 337 
f 288 295 338 
f 311 288 338 
f 295 317 338 
f 317 296 338 
f 329 311 338 
f 296 329 338 
f 303 293 339 
f 306 303 339 
f 293 314 339 
f 323 306 339 
f 314 323 339 
f 326 297 340 
f 294 326 340 
f 318 305 341 
f 310 318 341 
f 297 327 341 
f 327 310 341 
f 304 299 342 
f 299 312 342 
f 312 304 342 
f 294 300 343 
f 301 319 343 
f 319 330 343 
f 330 294 343 
f 300 334 343 
f 334 301 343 
f 300 294 344 
f 305 300 344 
f 294 340 344 
f 340 297 344 
f 297 341 344 
o convex_10
v -0.020415 0.010589 -0.043759
v -0.000060 0.009459 -0.012104
v -0.000060 0.004936 -0.012104
v -0.000060 0.004936 -0.044327
v -0.019849 0.004936 -0.012104
v -0.000060 0.013982 -0.044327
v -0.011364 0.013982 -0.012104
v -0.019284 0.004936 -0.044327
v -0.020980 0.013982 -0.039236
v -0.000060 0.013982 -0.022283
v -0.022111 0.004936 -0.029061
v -0.020415 0.013982 -0.044327
v -0.019284 0.006632 -0.012104
v -0.022111 0.005501 -0.021715
v -0.006847 0.013982 -0.012104
v -0.020980 0.013982 -0.042630
f 355 358 360 
f 346 347 348 
f 347 346 349 
f 348 347 349 
f 346 348 350 
f 349 346 351 
f 348 349 352 
f 350 348 352 
f 351 350 353 
f 346 350 354 
f 350 351 354 
f 345 352 355 
f 352 349 355 
f 352 345 356 
f 350 352 356 
f 353 350 356 
f 349 351 357 
f 351 353 357 
f 357 353 358 
f 355 349 358 
f 349 357 358 
f 351 346 359 
f 346 354 359 
f 354 351 359 
f 345 355 360 
f 353 356 360 
f 356 345 360 
f 358 353 360 
o convex_11
v -0.020412 0.010590 0.042172
v -0.000060 0.016809 0.019568
v -0.000060 0.016243 0.019568
v -0.019848 0.005502 -0.012088
v -0.000060 0.004936 0.009391
v -0.010238 0.016809 -0.012101
v -0.009674 0.016809 0.057440
v -0.023241 0.013981 0.016740
v -0.000060 0.004936 -0.012101
v -0.027764 0.004936 0.003737
v -0.019848 0.016809 0.042172
v -0.013633 0.010025 0.047826
v -0.000060 0.016809 -0.002487
v -0.020412 0.004936 0.019568
v -0.025502 0.011720 0.021263
v -0.009107 0.013981 0.054043
v -0.018720 0.016809 0.013350
v -0.012502 0.016243 0.058003
v -0.000060 0.009459 -0.012101
v -0.027197 0.006633 0.004306
v -0.007976 0.016243 0.053480
v -0.019848 0.009459 0.041602
v -0.024371 0.012286 0.012218
v -0.026633 0.004936 0.010523
v -0.010804 0.011720 0.051779
v -0.014761 0.004936 0.019005
v -0.019848 0.004936 -0.012088
v -0.018153 0.016809 0.048951
v -0.007976 0.016809 -0.012101
v -0.015892 0.011155 0.050084
v -0.021543 0.010590 0.038775
v -0.026633 0.006066 0.001479
v -0.025502 0.010025 0.021832
v -0.019281 0.006633 -0.012088
v -0.018153 0.009459 0.043867
v -0.011371 0.013415 0.055175
v -0.023241 0.004936 0.016740
v -0.017589 0.016809 0.008828
v -0.025502 0.011720 0.014483
v -0.021543 0.012286 0.038775
v -0.000060 0.015111 0.019005
v -0.024371 0.010590 0.007133
v -0.017589 0.011155 0.047826
v -0.013066 0.010590 0.050084
v -0.027764 0.005502 0.006001
f 399 380 405 
f 362 363 365 
f 362 366 367 
f 362 365 369 
f 369 365 370 
f 367 366 371 
f 366 362 373 
f 362 369 373 
f 370 365 374 
f 371 368 375 
f 371 366 377 
f 368 371 377 
f 369 366 379 
f 373 369 379 
f 363 362 381 
f 362 367 381 
f 376 365 381 
f 367 376 381 
f 368 377 383 
f 370 374 384 
f 365 376 385 
f 365 372 386 
f 374 365 386 
f 372 374 386 
f 364 366 387 
f 366 369 387 
f 370 364 387 
f 369 370 387 
f 367 371 388 
f 378 367 388 
f 366 373 389 
f 379 366 389 
f 373 379 389 
f 382 361 391 
f 384 382 391 
f 364 370 392 
f 370 380 392 
f 384 391 393 
f 366 364 394 
f 364 392 394 
f 392 366 394 
f 374 372 395 
f 376 367 396 
f 367 378 396 
f 385 376 396 
f 378 390 396 
f 384 374 397 
f 382 384 397 
f 374 395 397 
f 395 382 397 
f 377 366 398 
f 366 383 398 
f 383 377 398 
f 375 368 399 
f 368 383 399 
f 383 380 399 
f 371 375 400 
f 361 388 400 
f 388 371 400 
f 391 361 400 
f 375 393 400 
f 393 391 400 
f 365 363 401 
f 363 381 401 
f 381 365 401 
f 383 366 402 
f 380 383 402 
f 366 392 402 
f 392 380 402 
f 361 382 403 
f 388 361 403 
f 378 388 403 
f 390 378 403 
f 382 395 403 
f 395 390 403 
f 372 365 404 
f 365 385 404 
f 395 372 404 
f 390 395 404 
f 385 396 404 
f 396 390 404 
f 380 370 405 
f 370 384 405 
f 393 375 405 
f 384 393 405 
f 375 399 405 
o convex_12
v 0.016900 -0.024466 -0.044330
v 0.024815 -0.002980 -0.030194
v 0.025382 -0.003548 -0.030194
v -0.000060 -0.018243 -0.030194
v -0.000060 -0.002980 -0.044330
v 0.022555 -0.002980 -0.044330
v 0.022555 -0.020505 -0.030194
v -0.000060 -0.002980 -0.030194
v 0.026514 -0.019940 -0.043764
v -0.000060 -0.014287 -0.044330
v 0.012948 -0.023334 -0.030194
v 0.008425 -0.021637 -0.044330
v 0.025947 -0.013159 -0.030194
v 0.020294 -0.022768 -0.030194
v 0.007291 -0.022203 -0.030760
v 0.025382 -0.021069 -0.044330
v 0.015204 -0.024466 -0.044330
v 0.026514 -0.018810 -0.043764
v 0.003901 -0.018243 -0.044330
v 0.024251 -0.004677 -0.038673
v 0.019160 -0.023898 -0.042633
v 0.018593 -0.023334 -0.030194
v 0.026514 -0.019940 -0.042633
v 0.025947 -0.007506 -0.030194
f 418 428 429 
f 408 407 409 
f 410 407 411 
f 407 408 411 
f 406 410 411 
f 408 409 412 
f 409 407 413 
f 410 409 413 
f 407 410 413 
f 410 406 415 
f 409 410 415 
f 412 409 416 
f 415 406 417 
f 408 412 418 
f 412 416 419 
f 416 409 420 
f 409 417 420 
f 406 411 421 
f 406 416 422 
f 417 406 422 
f 416 420 422 
f 420 417 422 
f 421 411 423 
f 414 421 423 
f 409 415 424 
f 415 417 424 
f 417 409 424 
f 411 408 425 
f 408 423 425 
f 423 411 425 
f 406 421 426 
f 421 419 426 
f 416 406 427 
f 419 416 427 
f 406 426 427 
f 426 419 427 
f 418 412 428 
f 412 419 428 
f 421 414 428 
f 419 421 428 
f 414 423 428 
f 428 423 429 
f 408 418 429 
f 423 408 429 
o convex_13
v 0.018029 -0.020505 0.020690
v -0.000060 -0.031251 -0.005878
v -0.000060 -0.029554 -0.012659
v -0.000060 -0.002983 0.026912
v 0.025382 -0.002983 -0.030194
v -0.000060 -0.002983 -0.030194
v 0.021425 -0.022202 -0.030194
v 0.027643 -0.002983 -0.000233
v 0.025946 -0.024465 -0.015487
v -0.000060 -0.022766 0.026912
v 0.017465 -0.011465 0.026912
v 0.010685 -0.030116 0.005424
v -0.000060 -0.018244 -0.030194
v 0.024250 -0.022766 0.003725
v 0.011814 -0.005244 0.026912
v 0.026511 -0.010333 -0.029624
v 0.011250 -0.021637 0.026912
v 0.028210 -0.013161 -0.004749
v 0.022554 -0.026159 -0.017751
v 0.015204 -0.023898 -0.029624
v -0.000060 -0.029554 0.009947
v 0.016900 -0.028422 0.003155
v 0.018029 -0.013725 0.026912
v 0.006725 -0.031251 -0.004749
v 0.011814 -0.025030 0.020126
v 0.028210 -0.007505 -0.013229
v 0.007290 -0.022202 -0.030194
v 0.005029 -0.002983 0.026912
v 0.027078 -0.018809 -0.002491
v 0.016900 -0.024462 0.015604
v 0.016900 -0.028987 -0.003620
v 0.001072 -0.031251 0.004295
v 0.025946 -0.023898 -0.018316
v 0.015204 -0.007505 0.026912
v 0.028210 -0.013161 -0.010965
v 0.007857 -0.026162 0.018991
v 0.025946 -0.013725 -0.030194
v 0.027078 -0.005244 -0.025667
v -0.000060 -0.025030 -0.021709
v 0.025946 -0.015984 0.002590
v 0.028210 -0.004115 -0.005878
v 0.001072 -0.024465 0.024083
v 0.022554 -0.024465 0.003725
v 0.013511 -0.020505 0.026912
v 0.026511 -0.002983 0.002031
v 0.007290 -0.029554 -0.011530
v 0.019729 -0.017115 0.020690
v 0.010685 -0.030683 -0.004179
v 0.012382 -0.028987 0.008247
v 0.008989 -0.028987 0.010511
v 0.019161 -0.023331 -0.030194
v 0.020293 -0.026159 -0.019445
v 0.007857 -0.022769 0.026342
v 0.021425 -0.026159 -0.000797
v 0.012382 -0.023331 -0.030194
v 0.016333 -0.017677 0.026912
v 0.024817 -0.025030 -0.018880
v 0.027078 -0.008636 -0.026796
v 0.024250 -0.025594 -0.013794
v 0.024817 -0.021070 0.003725
v 0.019729 -0.019938 0.018427
v 0.025946 -0.002983 -0.028495
v 0.014637 -0.029554 0.002031
v 0.008422 -0.030683 0.004295
f 477 492 493 
f 432 431 433 
f 432 433 435 
f 433 434 435 
f 435 434 436 
f 434 433 437 
f 433 431 439 
f 433 439 440 
f 432 435 442 
f 435 436 442 
f 433 440 444 
f 440 439 446 
f 439 431 450 
f 437 440 452 
f 440 446 452 
f 442 436 456 
f 437 433 457 
f 433 444 457 
f 443 438 458 
f 438 447 458 
f 450 431 461 
f 431 453 461 
f 444 440 463 
f 447 438 464 
f 455 447 464 
f 438 462 464 
f 436 434 466 
f 434 445 466 
f 462 436 466 
f 445 462 466 
f 432 442 468 
f 442 456 468 
f 447 437 469 
f 437 452 469 
f 458 447 469 
f 437 447 470 
f 447 455 470 
f 455 467 470 
f 439 450 471 
f 450 465 471 
f 438 443 472 
f 443 459 472 
f 459 451 472 
f 452 446 473 
f 446 454 473 
f 459 430 473 
f 454 459 473 
f 440 437 474 
f 437 457 474 
f 457 444 474 
f 463 440 474 
f 444 463 474 
f 431 432 475 
f 432 449 475 
f 453 431 475 
f 469 452 476 
f 453 448 477 
f 448 460 477 
f 451 459 478 
f 459 454 478 
f 450 461 479 
f 465 450 479 
f 454 465 479 
f 441 478 479 
f 478 454 479 
f 456 436 480 
f 448 453 481 
f 475 449 481 
f 453 475 481 
f 480 448 481 
f 449 480 481 
f 446 439 482 
f 454 446 482 
f 465 454 482 
f 439 471 482 
f 471 465 482 
f 451 460 483 
f 438 472 483 
f 472 451 483 
f 449 432 484 
f 432 468 484 
f 468 456 484 
f 456 480 484 
f 480 449 484 
f 473 430 485 
f 452 473 485 
f 436 462 486 
f 462 438 486 
f 480 436 486 
f 448 480 486 
f 462 445 487 
f 455 464 487 
f 464 462 487 
f 445 467 487 
f 467 455 487 
f 460 448 488 
f 438 483 488 
f 483 460 488 
f 486 438 488 
f 448 486 488 
f 443 458 489 
f 458 469 489 
f 469 476 489 
f 489 476 490 
f 430 459 490 
f 459 443 490 
f 476 452 490 
f 485 430 490 
f 452 485 490 
f 443 489 490 
f 434 437 491 
f 445 434 491 
f 467 445 491 
f 437 470 491 
f 470 467 491 
f 460 451 492 
f 477 460 492 
f 478 441 492 
f 451 478 492 
f 461 453 493 
f 453 477 493 
f 479 461 493 
f 441 479 493 
f 492 441 493 
o convex_14
v -0.000060 0.009460 -0.010970
v 0.020858 0.014548 -0.038106
v 0.020858 0.013982 -0.038106
v -0.000060 0.014548 -0.044330
v 0.019725 0.007197 -0.044330
v 0.011245 0.014548 -0.010970
v 0.018030 0.007197 -0.010970
v -0.000060 0.007197 -0.044330
v -0.000060 0.007197 -0.010970
v -0.000060 0.014548 -0.023415
v 0.020290 0.014548 -0.044330
v 0.020290 0.007197 -0.026804
v 0.007291 0.014548 -0.010970
v 0.018030 0.007763 -0.010970
v 0.020858 0.012285 -0.042628
f 505 498 508 
f 495 497 499 
f 499 494 500 
f 494 497 501 
f 497 498 501 
f 498 500 501 
f 501 500 502 
f 500 494 502 
f 494 501 502 
f 497 494 503 
f 499 497 503 
f 497 495 504 
f 498 497 504 
f 496 495 505 
f 500 498 505 
f 494 499 506 
f 503 494 506 
f 499 503 506 
f 495 499 507 
f 499 500 507 
f 505 495 507 
f 500 505 507 
f 495 496 508 
f 504 495 508 
f 498 504 508 
f 496 505 508 
o convex_15
v 0.009551 0.015113 0.056308
v 0.026514 0.008894 0.013351
v 0.026514 0.007763 0.013351
v -0.000060 0.007197 -0.010970
v 0.010116 0.016809 -0.010970
v -0.000060 0.016809 0.019569
v 0.020294 0.016809 0.039347
v -0.000060 0.007197 0.011082
v 0.017467 0.009460 0.044438
v 0.018598 0.007197 -0.010397
v -0.000060 0.016809 -0.002483
v 0.019163 0.007197 0.029171
v 0.023686 0.013416 0.015046
v 0.012379 0.016809 0.058010
v 0.012379 0.010590 0.049522
v 0.020859 0.010590 0.041041
v 0.026514 0.007197 0.005437
v 0.018031 0.016809 0.010522
v 0.008422 0.016809 0.055180
v 0.025382 0.011721 0.021825
v 0.018598 0.016809 0.047827
v -0.000060 0.010025 -0.010970
v 0.023119 0.007197 0.024647
v 0.026514 0.007763 0.005437
v 0.010116 0.012286 0.052351
v 0.014072 0.011721 0.052351
v 0.016333 0.007197 0.028597
v 0.007858 0.016809 -0.010970
v 0.018031 0.007763 -0.010970
v 0.008422 0.015113 0.054046
v 0.017467 0.011721 0.048394
v 0.023686 0.012286 0.010522
v 0.025382 0.012286 0.016173
v -0.000060 0.015113 0.019002
v 0.014639 0.009460 0.044438
v 0.023686 0.007763 -0.000788
v 0.019163 0.016809 0.018435
v 0.025947 0.008894 0.019002
v 0.021423 0.012286 0.039347
v 0.020859 0.009460 0.039347
v 0.025947 0.007197 0.015606
v 0.010683 0.016809 -0.009836
f 532 544 550 
f 513 514 515 
f 514 512 516 
f 516 512 518 
f 512 514 519 
f 514 513 519 
f 516 518 520 
f 515 514 522 
f 510 511 525 
f 520 518 525 
f 513 515 526 
f 509 522 527 
f 522 514 527 
f 515 522 529 
f 528 515 529 
f 513 512 530 
f 512 519 530 
f 517 520 531 
f 520 525 531 
f 510 525 532 
f 516 523 533 
f 533 523 534 
f 522 509 534 
f 523 517 534 
f 509 533 534 
f 516 520 535 
f 519 513 536 
f 513 530 536 
f 530 519 536 
f 512 513 537 
f 518 512 537 
f 509 527 538 
f 533 509 538 
f 516 533 538 
f 524 529 539 
f 529 522 539 
f 522 534 539 
f 534 517 539 
f 526 521 540 
f 532 540 541 
f 528 510 541 
f 515 528 541 
f 510 532 541 
f 540 521 541 
f 514 516 542 
f 527 514 542 
f 516 538 542 
f 538 527 542 
f 520 517 543 
f 517 523 543 
f 523 516 543 
f 535 520 543 
f 516 535 543 
f 525 518 544 
f 532 525 544 
f 537 513 544 
f 518 537 544 
f 526 515 545 
f 521 526 545 
f 515 541 545 
f 541 521 545 
f 511 510 546 
f 510 528 546 
f 529 524 547 
f 528 529 547 
f 546 528 547 
f 524 546 547 
f 517 531 548 
f 539 517 548 
f 524 539 548 
f 546 524 548 
f 546 548 549 
f 525 511 549 
f 531 525 549 
f 511 546 549 
f 548 531 549 
f 513 526 550 
f 526 540 550 
f 540 532 550 
f 544 513 550 
o convex_16
v 0.015204 0.025858 0.046701
v 0.010119 0.023594 0.035393
v 0.010119 0.023594 0.037091
v 0.008422 0.036033 0.044439
v 0.020293 0.031510 0.035393
v 0.021425 0.023594 0.044439
v 0.010684 0.034902 0.048397
v 0.019161 0.023594 0.035393
v 0.007856 0.030944 0.047264
v 0.012379 0.031510 0.035393
v 0.013511 0.023594 0.044439
v 0.007290 0.034336 0.044439
v 0.019161 0.032640 0.036525
v 0.012379 0.029249 0.048397
v 0.011248 0.035466 0.047264
v 0.014640 0.032640 0.035393
v 0.021425 0.024160 0.044439
v 0.021425 0.023594 0.041049
v 0.011248 0.036033 0.043873
v 0.007856 0.034902 0.047831
v 0.011248 0.032640 0.048963
v 0.011248 0.029249 0.035393
v 0.019161 0.023594 0.045568
v 0.007290 0.032075 0.044439
v 0.010119 0.027553 0.046135
f 561 564 575 
f 553 552 556 
f 552 555 558 
f 556 552 558 
f 555 552 560 
f 553 556 561 
f 554 560 562 
f 561 551 564 
f 560 554 566 
f 555 560 566 
f 563 555 566 
f 555 563 567 
f 565 557 567 
f 563 565 567 
f 558 555 568 
f 556 558 568 
f 555 567 568 
f 567 556 568 
f 554 565 569 
f 565 563 569 
f 566 554 569 
f 563 566 569 
f 554 562 570 
f 565 554 570 
f 557 565 570 
f 559 564 571 
f 567 557 571 
f 570 559 571 
f 557 570 571 
f 560 552 572 
f 552 562 572 
f 562 560 572 
f 551 561 573 
f 561 556 573 
f 564 551 573 
f 556 567 573 
f 571 564 573 
f 567 571 573 
f 552 553 574 
f 553 559 574 
f 562 552 574 
f 570 562 574 
f 559 570 574 
f 559 553 575 
f 553 561 575 
f 564 559 575 
o convex_17
v -0.021546 0.018507 -0.039804
v -0.007411 0.015114 -0.012104
v -0.007411 0.013982 -0.012104
v -0.007411 0.017375 -0.044327
v -0.009109 0.023594 -0.012104
v -0.019848 0.023594 -0.020021
v -0.020980 0.013982 -0.038671
v -0.013632 0.023028 -0.036978
v -0.007411 0.013982 -0.044327
v -0.010805 0.013982 -0.012104
v -0.007411 0.021331 -0.036978
v -0.019848 0.015679 -0.044327
v -0.018717 0.020767 -0.041497
v -0.012500 0.023594 -0.012104
v -0.019282 0.023594 -0.026802
v -0.010805 0.023594 -0.026238
v -0.019848 0.022463 -0.020586
v -0.020414 0.013982 -0.043759
v -0.019282 0.021898 -0.038671
v -0.007411 0.020201 -0.040933
v -0.008543 0.022463 -0.012104
v -0.021546 0.015114 -0.039236
v -0.017586 0.017375 -0.044327
v -0.015891 0.022463 -0.039236
v -0.020980 0.020201 -0.039236
v -0.019848 0.013982 -0.035281
f 585 592 601 
f 577 578 579 
f 578 577 580 
f 579 578 584 
f 578 582 584 
f 578 580 585 
f 582 578 585 
f 577 579 586 
f 579 584 587 
f 580 581 589 
f 585 580 589 
f 581 585 589 
f 581 580 590 
f 580 586 591 
f 586 583 591 
f 590 580 591 
f 583 590 591 
f 585 581 592 
f 584 582 593 
f 576 587 593 
f 587 584 593 
f 586 579 595 
f 583 586 595 
f 580 577 596 
f 577 586 596 
f 586 580 596 
f 581 576 597 
f 592 581 597 
f 582 592 597 
f 576 593 597 
f 593 582 597 
f 579 587 598 
f 588 579 598 
f 587 588 598 
f 579 588 599 
f 590 583 599 
f 588 594 599 
f 594 590 599 
f 595 579 599 
f 583 595 599 
f 576 581 600 
f 587 576 600 
f 588 587 600 
f 581 590 600 
f 594 588 600 
f 590 594 600 
f 582 585 601 
f 592 582 601 
o convex_18
v -0.001192 0.023029 -0.035280
v -0.007410 0.013982 -0.044330
v -0.007410 0.017940 -0.044330
v -0.007410 0.013982 -0.016625
v -0.000061 0.013982 -0.044330
v -0.000061 0.013982 -0.023410
v -0.007410 0.021332 -0.034152
v -0.000061 0.022462 -0.044330
v -0.000061 0.022462 -0.033018
v -0.006845 0.016811 -0.020017
v -0.007410 0.021332 -0.038109
v -0.006845 0.015113 -0.017191
v -0.002888 0.021898 -0.044330
v -0.000061 0.016811 -0.025674
v -0.000627 0.023029 -0.043196
f 614 612 616 
f 604 603 605 
f 603 604 606 
f 605 603 606 
f 605 606 607 
f 604 605 608 
f 606 604 609 
f 607 606 609 
f 607 609 610 
f 602 608 611 
f 608 605 611 
f 610 602 611 
f 608 602 612 
f 604 608 612 
f 605 607 613 
f 611 605 613 
f 610 611 613 
f 609 604 614 
f 604 612 614 
f 607 610 615 
f 613 607 615 
f 610 613 615 
f 602 610 616 
f 610 609 616 
f 612 602 616 
f 609 614 616 
o convex_19
v -0.013627 0.023028 -0.007012
v -0.000060 0.023028 0.020691
v -0.000060 0.020202 0.020691
v -0.019846 0.023594 0.037655
v -0.019846 0.016809 0.034820
v -0.008542 0.016809 -0.012101
v -0.008542 0.016809 0.037080
v -0.000060 0.023594 0.003167
v -0.000060 0.016809 -0.001922
v -0.009108 0.023594 -0.012101
v -0.018151 0.016809 0.013907
v -0.020979 0.023594 0.024076
v -0.010238 0.023594 0.037655
v -0.000060 0.016809 0.020121
v -0.010238 0.016809 -0.011531
v -0.019846 0.016809 0.037655
v -0.011931 0.023594 -0.012101
v -0.000060 0.023594 0.020121
v -0.009108 0.020767 0.037655
v -0.017020 0.016809 0.008822
v -0.008542 0.023028 -0.012101
v -0.020979 0.023028 0.029735
v -0.020979 0.023028 0.024076
v -0.012497 0.023028 -0.010967
v -0.000060 0.019072 -0.000792
f 637 624 641 
f 619 618 623 
f 621 622 623 
f 618 619 624 
f 623 622 625 
f 624 619 625 
f 620 624 626 
f 622 621 627 
f 620 626 628 
f 624 620 629 
f 619 623 630 
f 625 619 630 
f 623 625 630 
f 622 627 631 
f 621 623 632 
f 629 620 632 
f 626 622 633 
f 617 628 633 
f 628 626 633 
f 622 631 633 
f 618 624 634 
f 629 618 634 
f 624 629 634 
f 623 618 635 
f 618 629 635 
f 632 623 635 
f 629 632 635 
f 631 627 636 
f 625 622 637 
f 622 626 637 
f 626 624 637 
f 620 628 638 
f 621 632 638 
f 632 620 638 
f 627 621 639 
f 628 617 639 
f 617 636 639 
f 636 627 639 
f 638 628 639 
f 621 638 639 
f 617 633 640 
f 633 631 640 
f 636 617 640 
f 631 636 640 
f 624 625 641 
f 625 637 641 
o convex_20
v -0.019282 0.017940 0.048959
v -0.007976 0.020767 0.057444
v -0.007976 0.019637 0.057444
v -0.009108 0.019637 0.037655
v -0.021546 0.023594 0.040482
v -0.019848 0.016809 0.037655
v -0.010806 0.023594 0.037655
v -0.013067 0.023028 0.058009
v -0.009674 0.016809 0.058009
v -0.009108 0.016809 0.037655
v -0.021546 0.022463 0.045574
v -0.013067 0.019637 0.059140
v -0.019848 0.023594 0.037655
v -0.009674 0.023028 0.057444
v -0.013067 0.016809 0.057444
v -0.007976 0.016809 0.051221
v -0.022111 0.020767 0.043875
v -0.018153 0.019072 0.052352
v -0.019282 0.016809 0.046705
v -0.020414 0.023594 0.045574
v -0.010806 0.021331 0.059706
v -0.013633 0.022463 0.058575
v -0.007976 0.020767 0.054616
f 657 645 664 
f 645 647 648 
f 647 645 651 
f 650 647 651 
f 647 646 654 
f 646 648 654 
f 648 647 654 
f 647 650 656 
f 650 653 656 
f 643 644 657 
f 644 650 657 
f 651 645 657 
f 650 651 657 
f 646 647 658 
f 652 646 658 
f 652 658 659 
f 642 656 659 
f 656 653 659 
f 658 642 659 
f 656 642 660 
f 647 656 660 
f 642 658 660 
f 658 647 660 
f 648 646 661 
f 646 652 661 
f 655 648 661 
f 649 655 661 
f 644 643 662 
f 650 644 662 
f 653 650 662 
f 643 655 662 
f 655 649 662 
f 652 659 663 
f 659 653 663 
f 661 652 663 
f 649 661 663 
f 662 649 663 
f 653 662 663 
f 645 648 664 
f 648 655 664 
f 655 643 664 
f 643 657 664 
o convex_21
v -0.013066 0.034336 -0.007578
v -0.016457 0.023594 -0.029064
v -0.016457 0.024160 -0.029064
v -0.009674 0.023594 -0.020014
v -0.015892 0.024726 -0.007578
v -0.015892 0.036598 -0.014928
v -0.020415 0.023594 -0.021713
v -0.007976 0.023594 -0.007578
v -0.010239 0.033769 -0.016062
v -0.017588 0.030944 -0.007578
v -0.013631 0.024160 -0.029064
v -0.019849 0.026989 -0.022840
v -0.011370 0.036031 -0.011536
v -0.012500 0.035466 -0.017191
v -0.016457 0.035466 -0.010407
v -0.010804 0.023594 -0.025106
v -0.014196 0.023594 -0.007578
v -0.017588 0.026989 -0.007578
v -0.015326 0.033769 -0.019450
v -0.013631 0.037164 -0.011536
v -0.020415 0.025292 -0.020580
v -0.017022 0.031508 -0.021147
v -0.010804 0.031508 -0.007578
v -0.010239 0.034336 -0.012668
v -0.015892 0.034336 -0.007578
v -0.019284 0.023594 -0.026235
v -0.011935 0.024160 -0.027364
v -0.011935 0.032640 -0.020014
f 691 675 692 
f 666 668 671 
f 671 668 672 
f 665 669 672 
f 672 668 673 
f 669 665 674 
f 666 667 675 
f 677 673 678 
f 670 676 679 
f 668 666 680 
f 673 668 680 
f 666 675 680 
f 669 671 681 
f 671 672 681 
f 672 669 681 
f 671 669 682 
f 669 674 682 
f 675 667 683 
f 670 678 683 
f 665 677 684 
f 677 678 684 
f 678 670 684 
f 670 679 684 
f 676 671 685 
f 674 679 685 
f 679 676 685 
f 671 682 685 
f 682 674 685 
f 667 676 686 
f 676 670 686 
f 683 667 686 
f 670 683 686 
f 665 672 687 
f 677 665 687 
f 677 687 688 
f 672 673 688 
f 673 677 688 
f 687 672 688 
f 674 665 689 
f 679 674 689 
f 665 684 689 
f 684 679 689 
f 667 666 690 
f 666 671 690 
f 676 667 690 
f 671 676 690 
f 673 680 691 
f 680 675 691 
f 678 673 692 
f 675 683 692 
f 683 678 692 
f 673 691 692 
o convex_22
v -0.014761 0.038858 0.002599
v -0.019284 0.028120 -0.004185
v -0.018153 0.027553 -0.007012
v -0.006845 0.023594 0.002599
v -0.010804 0.031511 -0.007578
v -0.016457 0.026424 0.002599
v -0.007977 0.023594 -0.007578
v -0.006845 0.031511 0.002033
v -0.016457 0.033769 -0.007578
v -0.014761 0.023594 -0.005881
v -0.011935 0.039988 0.002033
v -0.018718 0.034900 0.000903
v -0.013630 0.023594 0.002599
v -0.018718 0.030946 0.002033
v -0.019284 0.031511 -0.004750
v -0.015891 0.024727 -0.007578
v -0.006845 0.024162 -0.004750
v -0.013065 0.033769 -0.007578
v -0.010804 0.038858 0.002599
v -0.016457 0.024727 -0.002489
v -0.019284 0.028685 -0.000794
v -0.018153 0.034900 0.002599
v -0.008543 0.026424 -0.007578
f 700 709 715 
f 696 693 698 
f 697 699 701 
f 699 696 702 
f 701 693 703 
f 693 701 704 
f 696 698 705 
f 702 696 705 
f 695 694 707 
f 701 695 707 
f 704 701 707 
f 694 695 708 
f 695 701 708 
f 701 699 708 
f 699 702 708 
f 696 699 709 
f 700 696 709 
f 697 701 710 
f 703 697 710 
f 701 703 710 
f 693 696 711 
f 696 700 711 
f 700 697 711 
f 703 693 711 
f 697 703 711 
f 705 698 712 
f 702 705 712 
f 694 708 712 
f 708 702 712 
f 698 706 713 
f 706 704 713 
f 704 707 713 
f 707 694 713 
f 694 712 713 
f 712 698 713 
f 698 693 714 
f 693 704 714 
f 706 698 714 
f 704 706 714 
f 699 697 715 
f 697 700 715 
f 709 699 715 
o convex_23
v -0.009674 0.032075 0.048963
v -0.020980 0.029814 0.034828
v -0.021546 0.023594 0.041613
v -0.009674 0.023594 0.034828
v -0.008543 0.035466 0.043307
v -0.013632 0.023594 0.044437
v -0.011935 0.034902 0.047267
v -0.014761 0.032640 0.034828
v -0.020980 0.024727 0.044437
v -0.019282 0.023594 0.034828
v -0.019848 0.032640 0.035395
v -0.007411 0.032075 0.047267
v -0.019282 0.023594 0.045569
v -0.011935 0.030379 0.034828
v -0.011369 0.036033 0.043874
v -0.007411 0.034902 0.044437
v -0.007977 0.035466 0.047267
v -0.014761 0.029814 0.047831
v -0.009674 0.028118 0.046135
v -0.011369 0.029249 0.048396
v -0.009674 0.023594 0.035960
f 727 734 736 
f 718 719 721 
f 719 717 723 
f 717 718 724 
f 718 717 725 
f 719 718 725 
f 717 719 725 
f 723 717 726 
f 717 724 726 
f 724 722 726 
f 718 721 728 
f 724 718 728 
f 723 720 729 
f 719 723 729 
f 720 723 730 
f 726 722 730 
f 723 726 730 
f 727 719 731 
f 719 729 731 
f 729 720 731 
f 722 716 732 
f 716 727 732 
f 720 730 732 
f 730 722 732 
f 727 731 732 
f 731 720 732 
f 716 722 733 
f 722 724 733 
f 724 728 733 
f 734 727 735 
f 727 716 735 
f 728 721 735 
f 716 733 735 
f 733 728 735 
f 721 734 735 
f 721 719 736 
f 719 727 736 
f 734 721 736 
o convex_24
v 0.007290 0.016811 -0.020583
v -0.000060 0.014548 -0.044330
v -0.000060 0.022463 -0.044330
v 0.007290 0.014548 -0.044330
v -0.000060 0.014548 -0.023975
v 0.007290 0.021331 -0.038110
v -0.000060 0.023029 -0.034715
v 0.006724 0.014548 -0.017755
v 0.007290 0.017941 -0.044330
v 0.007290 0.021331 -0.034151
v -0.000060 0.022463 -0.033019
v 0.000505 0.023029 -0.043198
v 0.002767 0.021896 -0.044330
v 0.006724 0.015114 -0.017755
v -0.000060 0.016811 -0.025674
v 0.004462 0.022463 -0.036412
v 0.007290 0.014548 -0.017755
f 750 744 753 
f 738 739 740 
f 739 738 741 
f 738 740 741 
f 737 740 742 
f 739 741 743 
f 741 740 744 
f 740 739 745 
f 742 740 745 
f 737 742 746 
f 743 737 746 
f 737 743 747 
f 743 741 747 
f 739 743 748 
f 745 739 749 
f 742 745 749 
f 739 748 749 
f 748 742 749 
f 741 744 750 
f 737 747 750 
f 750 747 751 
f 747 741 751 
f 741 750 751 
f 746 742 752 
f 743 746 752 
f 748 743 752 
f 742 748 752 
f 740 737 753 
f 744 740 753 
f 737 750 753 
o convex_25
v 0.011814 0.023594 -0.027928
v 0.021425 0.018506 -0.037541
v 0.021425 0.016244 -0.037541
v 0.007290 0.014548 -0.044330
v 0.007290 0.014548 -0.010970
v 0.019727 0.023594 -0.020019
v 0.008422 0.023027 -0.010970
v 0.007290 0.020201 -0.040934
v 0.018596 0.020766 -0.041502
v 0.020293 0.014548 -0.044330
v 0.010684 0.014548 -0.010970
v 0.012379 0.023594 -0.010970
v 0.014640 0.023027 -0.036979
v 0.020859 0.014548 -0.037541
v 0.007290 0.017376 -0.044330
v 0.007290 0.021331 -0.036408
v 0.020293 0.023594 -0.023977
v 0.019727 0.021897 -0.021152
v 0.019727 0.021331 -0.039236
v 0.009553 0.023594 -0.021152
v 0.017466 0.017376 -0.044330
v 0.021425 0.019071 -0.039801
v 0.015770 0.022463 -0.039236
f 770 772 776 
f 757 758 761 
f 758 757 763 
f 760 758 764 
f 758 763 764 
f 759 754 765 
f 764 759 765 
f 760 764 765 
f 763 756 767 
f 764 763 767 
f 757 761 768 
f 763 757 768 
f 758 760 769 
f 761 758 769 
f 754 766 769 
f 766 761 769 
f 756 755 770 
f 754 759 770 
f 766 754 770 
f 759 764 771 
f 767 756 771 
f 764 767 771 
f 756 770 771 
f 770 759 771 
f 765 754 773 
f 760 765 773 
f 754 769 773 
f 769 760 773 
f 762 763 774 
f 768 762 774 
f 763 768 774 
f 755 756 775 
f 756 763 775 
f 763 762 775 
f 770 755 775 
f 762 772 775 
f 772 770 775 
f 761 766 776 
f 768 761 776 
f 762 768 776 
f 766 770 776 
f 772 762 776 
o convex_26
v 0.010119 0.016809 -0.010970
v 0.021425 0.023594 0.028033
v 0.019726 0.023594 0.037089
v -0.000060 0.023594 0.003171
v 0.008421 0.016809 0.036520
v 0.019726 0.016809 0.037089
v 0.012377 0.023594 -0.010970
v -0.000060 0.016809 -0.001915
v -0.000060 0.023594 0.020121
v 0.017465 0.016809 0.010524
v -0.000060 0.016809 0.019561
v 0.010119 0.023594 0.037089
v 0.008421 0.023594 -0.010970
v 0.021425 0.023028 0.026340
v 0.007856 0.016809 -0.010970
v 0.013509 0.023028 -0.007574
v 0.008987 0.021331 0.037089
v -0.000060 0.023028 0.020690
v 0.018031 0.016809 0.013337
v 0.020859 0.023594 0.023513
f 786 792 796 
f 779 778 780 
f 778 779 782 
f 781 777 782 
f 780 778 783 
f 777 781 784 
f 779 780 785 
f 780 784 785 
f 782 777 786 
f 784 781 787 
f 785 784 787 
f 782 779 788 
f 779 785 788 
f 783 777 789 
f 780 783 789 
f 784 780 789 
f 778 782 790 
f 777 784 791 
f 789 777 791 
f 784 789 791 
f 777 783 792 
f 786 777 792 
f 781 782 793 
f 782 788 793 
f 793 788 794 
f 787 781 794 
f 785 787 794 
f 788 785 794 
f 781 793 794 
f 782 786 795 
f 790 782 795 
f 786 790 795 
f 783 778 796 
f 778 790 796 
f 790 786 796 
f 792 783 796 
o convex_27
v 0.007855 0.017376 0.053485
v 0.021990 0.021898 0.044441
v 0.021425 0.021898 0.046139
v 0.010119 0.023594 0.037089
v 0.019727 0.016809 0.037089
v 0.009553 0.023028 0.057443
v 0.012944 0.016809 0.057443
v 0.008987 0.016809 0.037089
v 0.019727 0.023594 0.037089
v 0.014641 0.023028 0.056312
v 0.019727 0.018505 0.048960
v 0.021425 0.023594 0.044441
v 0.012380 0.019637 0.059706
v 0.007855 0.020202 0.055747
v 0.009553 0.016809 0.058006
v 0.019727 0.016809 0.044441
v 0.008987 0.020202 0.037089
v 0.021990 0.020202 0.041614
v 0.014076 0.022463 0.058006
v 0.008421 0.019072 0.058574
v 0.018032 0.019072 0.052354
v 0.010119 0.022463 0.059137
v 0.008421 0.021898 0.057443
v 0.021990 0.022463 0.041048
v 0.014641 0.023594 0.045006
f 802 808 821 
f 800 801 804 
f 801 803 804 
f 801 800 805 
f 798 799 807 
f 799 798 808 
f 805 800 808 
f 802 806 808 
f 797 804 811 
f 804 803 811 
f 803 809 811 
f 803 801 812 
f 807 803 812 
f 804 797 813 
f 800 804 813 
f 810 800 813 
f 797 810 813 
f 798 807 814 
f 812 801 814 
f 807 812 814 
f 799 808 815 
f 808 806 815 
f 810 797 816 
f 797 811 816 
f 811 809 816 
f 803 807 817 
f 807 799 817 
f 809 803 817 
f 799 815 817 
f 815 809 817 
f 806 802 818 
f 815 806 818 
f 809 815 818 
f 816 809 818 
f 816 818 819 
f 802 800 819 
f 800 810 819 
f 810 816 819 
f 818 802 819 
f 801 805 820 
f 808 798 820 
f 805 808 820 
f 814 801 820 
f 798 814 820 
f 800 802 821 
f 808 800 821 
o convex_28
v 0.006727 0.036033 0.006558
v 0.023121 0.030944 0.031999
v 0.021989 0.031510 0.033696
v -0.000060 0.023594 0.020125
v 0.014639 0.023594 -0.005882
v 0.019162 0.023594 0.035393
v 0.017467 0.036033 -0.000225
v 0.011247 0.036033 0.030864
v 0.007292 0.024160 -0.005882
v -0.000060 0.030379 0.013350
v 0.019162 0.028118 -0.004751
v 0.009554 0.023594 0.035393
v 0.022554 0.024160 0.026909
v 0.011247 0.032640 -0.005882
v -0.000060 0.023594 0.003734
v 0.019727 0.036033 0.030864
v 0.014639 0.032640 0.035393
v 0.020294 0.036033 0.015038
v 0.019727 0.030379 -0.003619
v 0.007857 0.036033 0.025212
v -0.000060 0.027553 0.018994
v 0.016899 0.033770 -0.005882
v -0.000060 0.028684 0.008255
v 0.011247 0.036033 -0.000791
v 0.023121 0.031510 0.028606
v 0.005594 0.036033 0.016731
v 0.011247 0.029249 0.035393
v 0.018029 0.026423 -0.005882
v 0.019727 0.032640 0.035393
v 0.023121 0.025858 0.027474
v 0.010119 0.031510 -0.005882
v 0.021989 0.023594 0.026343
v 0.019162 0.033770 -0.001353
v 0.023121 0.026989 0.031434
v 0.018029 0.036033 0.031999
v 0.009554 0.036033 0.028606
v -0.000060 0.029249 0.017297
v 0.020859 0.028684 0.035393
v -0.000060 0.024160 0.003734
v 0.007292 0.023594 -0.005882
v 0.005594 0.036033 0.010517
v 0.022554 0.032640 0.031434
v 0.018597 0.031510 -0.005882
v 0.014072 0.034336 -0.005316
f 835 845 865 
f 825 826 827 
f 828 822 829 
f 825 827 833 
f 826 830 835 
f 826 825 836 
f 825 831 836 
f 828 829 837 
f 833 827 838 
f 828 837 839 
f 829 822 841 
f 831 825 842 
f 825 833 842 
f 826 835 843 
f 836 831 844 
f 822 828 845 
f 841 822 847 
f 838 829 848 
f 833 838 848 
f 842 833 848 
f 832 834 849 
f 826 843 849 
f 838 827 850 
f 834 832 851 
f 832 840 851 
f 846 823 851 
f 840 846 851 
f 835 830 852 
f 844 822 852 
f 822 845 852 
f 845 835 852 
f 827 826 853 
f 834 827 853 
f 826 849 853 
f 849 834 853 
f 828 839 854 
f 843 828 854 
f 839 846 854 
f 846 840 854 
f 827 834 855 
f 851 823 855 
f 834 851 855 
f 837 829 856 
f 829 838 856 
f 850 837 856 
f 838 850 856 
f 829 841 857 
f 848 829 857 
f 842 848 857 
f 831 842 858 
f 847 831 858 
f 841 847 858 
f 857 841 858 
f 842 857 858 
f 823 824 859 
f 824 850 859 
f 850 827 859 
f 855 823 859 
f 827 855 859 
f 830 836 860 
f 836 844 860 
f 852 830 860 
f 844 852 860 
f 830 826 861 
f 826 836 861 
f 836 830 861 
f 822 844 862 
f 844 831 862 
f 847 822 862 
f 831 847 862 
f 824 823 863 
f 839 837 863 
f 823 846 863 
f 846 839 863 
f 850 824 863 
f 837 850 863 
f 840 832 864 
f 832 849 864 
f 849 843 864 
f 843 854 864 
f 854 840 864 
f 828 843 865 
f 843 835 865 
f 845 828 865 
o convex_29
v -0.020415 0.030948 0.013340
v -0.012501 0.040555 0.019562
v -0.016456 0.040555 0.019562
v -0.010804 0.045641 0.004296
v -0.006847 0.023596 0.019562
v -0.006847 0.023596 0.002599
v -0.018718 0.023596 0.019562
v -0.017020 0.027556 0.002599
v -0.007411 0.046206 0.008821
v -0.017020 0.036595 0.002599
v -0.006847 0.036030 0.019562
v -0.019848 0.037162 0.017299
v -0.014194 0.023596 0.002599
v -0.011934 0.046774 0.006558
v -0.006847 0.032078 0.002599
v -0.018718 0.024729 0.011080
v -0.011370 0.046774 0.010518
v -0.018152 0.033775 0.002599
v -0.019848 0.037162 0.014473
v -0.009109 0.043947 0.003732
v -0.018152 0.039422 0.019562
v -0.010804 0.041119 0.002599
v -0.007411 0.046206 0.006558
v -0.019848 0.026991 0.012211
v -0.008543 0.046774 0.009950
v -0.006847 0.041119 0.008256
v -0.020415 0.032078 0.016734
v -0.019284 0.034340 0.019562
v -0.018718 0.039422 0.016734
v -0.010241 0.039422 0.019562
v -0.017587 0.023596 0.009950
f 881 873 896 
f 867 868 870 
f 871 870 872 
f 870 868 872 
f 871 873 875 
f 867 870 876 
f 870 871 876 
f 871 872 878 
f 873 871 878 
f 869 875 879 
f 871 875 880 
f 876 871 880 
f 868 867 882 
f 875 873 883 
f 879 875 884 
f 875 883 884 
f 883 866 884 
f 872 868 886 
f 868 882 886 
f 875 869 887 
f 880 875 887 
f 869 885 887 
f 885 880 887 
f 869 879 888 
f 885 869 888 
f 880 885 888 
f 881 872 889 
f 873 881 889 
f 883 873 889 
f 866 883 889 
f 876 874 890 
f 882 867 890 
f 879 882 890 
f 874 888 890 
f 888 879 890 
f 874 876 891 
f 876 880 891 
f 888 874 891 
f 880 888 891 
f 884 866 892 
f 877 884 892 
f 866 889 892 
f 889 872 892 
f 872 886 893 
f 886 877 893 
f 892 872 893 
f 877 892 893 
f 882 879 894 
f 884 877 894 
f 879 884 894 
f 877 886 894 
f 886 882 894 
f 867 876 895 
f 890 867 895 
f 876 890 895 
f 878 872 896 
f 873 878 896 
f 872 881 896 
o convex_30
v -0.006845 0.034336 0.024085
v -0.023242 0.026424 0.028040
v -0.023242 0.026424 0.029738
v -0.013633 0.044510 0.025784
v -0.009673 0.023594 0.034828
v -0.018718 0.023594 0.019562
v -0.006845 0.023594 0.019562
v -0.017020 0.040554 0.019562
v -0.020979 0.032077 0.034828
v -0.010238 0.042250 0.030304
v -0.006845 0.036031 0.019562
v -0.019283 0.023594 0.034828
v -0.023242 0.031512 0.031434
v -0.006845 0.024163 0.030304
v -0.009673 0.043945 0.025216
v -0.013633 0.032077 0.034828
v -0.018718 0.037161 0.019562
v -0.014196 0.043945 0.028605
v -0.022111 0.024163 0.024651
v -0.009108 0.042250 0.029173
v -0.013068 0.041119 0.019562
v -0.013633 0.042250 0.030869
v -0.023242 0.030947 0.028040
v -0.018151 0.039424 0.019562
v -0.009673 0.025294 0.034828
v -0.022111 0.023594 0.028040
v -0.022111 0.028684 0.033695
v -0.010805 0.044510 0.028605
v -0.010805 0.043380 0.022955
v -0.019283 0.025859 0.019562
v -0.022676 0.032642 0.030869
f 920 919 927 
f 901 902 903 
f 903 902 904 
f 897 903 907 
f 903 904 907 
f 902 901 908 
f 901 905 908 
f 898 899 909 
f 903 897 910 
f 901 903 910 
f 905 901 912 
f 904 902 913 
f 897 907 916 
f 910 897 916 
f 907 911 916 
f 907 904 917 
f 905 912 918 
f 912 906 918 
f 914 905 918 
f 898 909 919 
f 915 898 919 
f 913 915 919 
f 900 904 920 
f 904 913 920 
f 914 900 920 
f 913 919 920 
f 901 910 921 
f 912 901 921 
f 906 912 921 
f 916 906 921 
f 910 916 921 
f 899 898 922 
f 908 899 922 
f 902 908 922 
f 898 915 922 
f 915 902 922 
f 899 908 923 
f 908 905 923 
f 905 909 923 
f 909 899 923 
f 911 900 924 
f 900 914 924 
f 906 916 924 
f 916 911 924 
f 918 906 924 
f 914 918 924 
f 904 900 925 
f 900 911 925 
f 911 907 925 
f 917 904 925 
f 907 917 925 
f 913 902 926 
f 902 915 926 
f 915 913 926 
f 909 905 927 
f 905 914 927 
f 919 909 927 
f 914 920 927 
o convex_31
v 0.008421 0.036599 0.003734
v 0.019729 0.036599 0.017865
v 0.019729 0.036033 0.017865
v 0.007291 0.036033 0.018996
v 0.008421 0.046776 0.009380
v 0.016901 0.036033 0.000338
v 0.011815 0.046210 0.005427
v 0.015771 0.040557 0.018996
v 0.007857 0.045079 0.004861
v 0.006159 0.036033 0.009380
v 0.019163 0.038861 0.015601
v 0.012944 0.036033 -0.000793
v 0.011815 0.046776 0.010512
v 0.011815 0.039991 0.018996
v 0.007291 0.046210 0.008257
v 0.006159 0.036599 0.016166
v 0.018597 0.038861 0.018996
v 0.016901 0.036599 0.000338
v 0.011250 0.045643 0.004296
v 0.008987 0.046210 0.011079
v 0.012379 0.046210 0.006558
v 0.008987 0.046776 0.005427
v 0.019163 0.036033 0.018996
v 0.019729 0.036599 0.013906
v 0.007291 0.036599 0.018996
v 0.015771 0.036599 -0.000793
f 946 934 953 
f 930 931 933 
f 933 931 937 
f 936 928 937 
f 928 936 939 
f 933 937 939 
f 937 928 939 
f 931 935 941 
f 936 937 942 
f 942 937 943 
f 937 931 943 
f 935 931 944 
f 929 938 944 
f 940 935 944 
f 938 940 944 
f 939 936 946 
f 940 932 947 
f 935 940 947 
f 941 935 947 
f 932 942 947 
f 934 940 948 
f 940 938 948 
f 938 945 948 
f 945 934 948 
f 932 940 949 
f 940 934 949 
f 942 932 949 
f 936 942 949 
f 934 946 949 
f 946 936 949 
f 930 929 950 
f 931 930 950 
f 929 944 950 
f 944 931 950 
f 929 930 951 
f 930 933 951 
f 938 929 951 
f 933 945 951 
f 945 938 951 
f 931 941 952 
f 942 943 952 
f 943 931 952 
f 941 947 952 
f 947 942 952 
f 933 939 953 
f 945 933 953 
f 934 945 953 
f 939 946 953 
o convex_32
v 0.008421 0.037730 0.026910
v 0.019163 0.036600 0.030869
v 0.019163 0.036033 0.030869
v 0.018597 0.036033 0.018996
v 0.013509 0.044514 0.024651
v 0.007290 0.036033 0.018996
v 0.010118 0.043947 0.028606
v 0.017465 0.039991 0.018996
v 0.011248 0.036033 0.030869
v 0.013509 0.042252 0.030869
v 0.010118 0.042817 0.022955
v 0.012379 0.040556 0.018996
v 0.014640 0.043383 0.028606
v 0.008988 0.042252 0.028606
v 0.013509 0.038295 0.032001
v 0.018597 0.038861 0.019564
v 0.009553 0.043947 0.025781
v 0.010684 0.041121 0.030869
v 0.008988 0.036033 0.028042
v 0.017465 0.036033 0.032001
f 963 968 973 
f 955 956 957 
f 957 956 959 
f 957 959 961 
f 959 956 962 
f 958 961 965 
f 961 959 965 
f 964 958 965 
f 959 964 965 
f 958 960 966 
f 960 963 966 
f 963 955 966 
f 959 954 967 
f 955 957 969 
f 957 961 969 
f 961 958 969 
f 958 966 969 
f 966 955 969 
f 960 958 970 
f 958 964 970 
f 964 959 970 
f 959 967 970 
f 967 960 970 
f 963 960 971 
f 960 967 971 
f 962 968 971 
f 968 963 971 
f 954 959 972 
f 959 962 972 
f 967 954 972 
f 962 971 972 
f 971 967 972 
f 956 955 973 
f 962 956 973 
f 955 963 973 
f 968 962 973 
