o convex_0
v 0.014935 0.001078 -0.031249
v -0.019956 0.003135 -0.046642
v -0.019956 0.003135 -0.044590
v -0.003533 -0.037387 -0.046642
v 0.022635 0.014940 -0.046642
v -0.007641 -0.025595 -0.031249
v -0.003533 0.022632 -0.033815
v 0.014935 -0.033287 -0.044076
v 0.001086 0.027254 -0.047154
v 0.017500 -0.016356 -0.031249
v 0.024689 -0.014299 -0.046642
v -0.010718 -0.000457 -0.031249
v -0.016875 -0.023029 -0.046642
v 0.012885 0.023663 -0.040997
v -0.009691 0.025713 -0.046128
v 0.000059 -0.028154 -0.031249
v 0.020581 0.005185 -0.036894
v 0.012369 -0.031236 -0.047154
v -0.000964 0.018531 -0.031249
v 0.008777 0.029305 -0.044076
v -0.016360 -0.018406 -0.047154
v -0.019956 0.006726 -0.044076
v -0.017387 -0.009683 -0.040997
v 0.024689 -0.014299 -0.044076
v 0.010831 -0.024563 -0.031249
v 0.019043 0.016990 -0.047156
v -0.003533 -0.037387 -0.044590
v 0.011858 0.014933 -0.034840
v 0.022635 0.014940 -0.044076
v -0.010718 -0.012758 -0.031249
v -0.016875 -0.022513 -0.044590
v -0.017902 0.006726 -0.047154
v 0.008777 0.029305 -0.046642
v -0.009691 0.025713 -0.044590
v 0.014423 -0.033802 -0.046642
v 0.022635 0.000053 -0.039459
v 0.011347 -0.034828 -0.044076
v -0.004560 0.019556 -0.032789
v 0.017500 -0.020972 -0.034840
v -0.010718 0.018015 -0.038948
v -0.011229 -0.029695 -0.044590
v 0.022119 -0.012758 -0.047156
v -0.001995 0.026739 -0.040997
v -0.015333 -0.003538 -0.036896
v -0.003533 -0.028670 -0.031763
v -0.008664 -0.023538 -0.031249
v 0.014935 0.018525 -0.038948
v -0.019956 0.006726 -0.046642
v 0.001086 -0.036878 -0.044076
v -0.009180 -0.028161 -0.047154
v 0.024173 -0.001488 -0.044076
v -0.008153 0.026229 -0.046642
v 0.011858 0.006216 -0.031249
v 0.019554 0.007751 -0.036894
v 0.007755 -0.026620 -0.031763
v -0.001995 0.022632 -0.033815
v 0.010320 0.018525 -0.035868
v 0.021608 -0.005582 -0.037408
v 0.006728 0.029305 -0.044076
v -0.018929 -0.007632 -0.044076
v 0.008266 0.014424 -0.032789
v 0.016473 -0.020456 -0.032789
v -0.003533 0.016990 -0.031249
v -0.015333 -0.025079 -0.044590
f 41 6 64 
f 1 6 10 
f 6 1 12 
f 10 6 16 
f 1 10 17 
f 12 1 19 
f 13 2 21 
f 2 3 22 
f 22 3 23 
f 8 11 24 
f 10 16 25 
f 20 14 29 
f 5 20 29 
f 6 12 30 
f 21 2 32 
f 9 26 32 
f 26 21 32 
f 20 5 33 
f 5 26 33 
f 26 9 33 
f 15 22 34 
f 11 8 35 
f 4 18 35 
f 29 17 36 
f 35 8 37 
f 22 12 38 
f 8 24 39 
f 24 10 39 
f 7 34 40 
f 34 22 40 
f 38 7 40 
f 22 38 40 
f 13 4 41 
f 4 27 41 
f 27 6 41 
f 5 11 42 
f 26 5 42 
f 21 26 42 
f 11 35 42 
f 35 18 42 
f 34 7 43 
f 12 22 44 
f 22 23 44 
f 30 12 44 
f 23 30 44 
f 16 6 45 
f 6 27 45 
f 6 30 46 
f 30 23 46 
f 23 31 46 
f 31 6 46 
f 29 14 47 
f 2 22 48 
f 22 15 48 
f 32 2 48 
f 27 4 49 
f 4 35 49 
f 37 16 49 
f 35 37 49 
f 16 45 49 
f 45 27 49 
f 4 13 50 
f 18 4 50 
f 13 21 50 
f 42 18 50 
f 21 42 50 
f 11 5 51 
f 24 11 51 
f 5 29 51 
f 36 24 51 
f 29 36 51 
f 9 32 52 
f 33 9 52 
f 15 34 52 
f 48 15 52 
f 32 48 52 
f 19 1 53 
f 28 53 54 
f 1 17 54 
f 17 29 54 
f 47 28 54 
f 29 47 54 
f 53 1 54 
f 8 25 55 
f 25 16 55 
f 37 8 55 
f 16 37 55 
f 7 19 56 
f 14 20 56 
f 20 7 56 
f 28 47 57 
f 47 14 57 
f 56 19 57 
f 14 56 57 
f 17 10 58 
f 10 24 58 
f 36 17 58 
f 24 36 58 
f 7 20 59 
f 20 33 59 
f 43 7 59 
f 34 43 59 
f 33 52 59 
f 52 34 59 
f 3 2 60 
f 2 13 60 
f 23 3 60 
f 31 23 60 
f 13 31 60 
f 19 53 61 
f 53 28 61 
f 57 19 61 
f 28 57 61 
f 25 8 62 
f 10 25 62 
f 8 39 62 
f 39 10 62 
f 12 19 63 
f 19 7 63 
f 38 12 63 
f 7 38 63 
f 31 13 64 
f 6 31 64 
f 13 41 64 
o convex_1
v -0.010206 0.001606 0.030846
v -0.004048 0.020586 0.051372
v -0.004048 0.026742 0.041108
v -0.004048 0.001092 0.031362
v -0.010206 -0.004040 0.050858
v -0.010206 0.025713 0.032386
v -0.004048 0.029310 0.029306
v -0.004048 0.001092 0.051372
v -0.009693 -0.011229 0.038544
v -0.010206 0.022639 0.043674
v -0.010206 0.007763 0.051372
v -0.010206 0.005713 0.029306
v -0.004048 0.003145 0.029306
v -0.006614 0.029310 0.035980
v -0.010206 0.023150 0.029306
v -0.010206 -0.009682 0.035464
v -0.006102 -0.005579 0.035980
v -0.009693 -0.010714 0.043157
v -0.010206 0.012376 0.050341
v -0.004048 -0.000447 0.047263
v -0.005588 0.019557 0.051372
v -0.010206 -0.009175 0.046237
v -0.006102 0.028796 0.029306
v -0.004048 0.029824 0.035464
v -0.006614 0.002631 0.029306
v -0.006614 -0.006608 0.039570
v -0.009180 0.027256 0.034954
f 78 87 91 
f 67 66 68 
f 65 69 70 
f 67 68 71 
f 68 66 72 
f 70 69 74 
f 72 66 75 
f 69 72 75 
f 74 69 75 
f 65 70 76 
f 76 71 77 
f 71 68 77 
f 66 67 78 
f 74 66 78 
f 76 70 79 
f 71 76 79 
f 69 65 80 
f 77 68 80 
f 73 80 81 
f 80 68 81 
f 74 75 83 
f 68 72 84 
f 81 68 84 
f 72 82 84 
f 66 74 85 
f 75 66 85 
f 74 83 85 
f 83 75 85 
f 72 69 86 
f 69 80 86 
f 80 73 86 
f 82 72 86 
f 73 82 86 
f 78 71 87 
f 79 70 87 
f 71 79 87 
f 67 71 88 
f 78 67 88 
f 71 78 88 
f 65 76 89 
f 76 77 89 
f 80 65 89 
f 77 80 89 
f 73 81 90 
f 82 73 90 
f 81 84 90 
f 84 82 90 
f 70 74 91 
f 74 78 91 
f 87 70 91 
o convex_2
v 0.000060 -0.027650 -0.031248
v 0.014937 -0.011232 -0.030734
v 0.014937 -0.011232 -0.031248
v -0.011233 -0.011232 -0.029708
v 0.016990 -0.019440 -0.029195
v -0.006099 -0.026621 -0.029195
v -0.010717 -0.011232 -0.031248
v 0.012884 -0.011232 -0.029195
v 0.017502 -0.017389 -0.031248
v -0.007639 -0.025082 -0.031248
v -0.010205 -0.011232 -0.029195
v 0.008266 -0.025594 -0.030734
v 0.001597 -0.026109 -0.029195
v 0.017502 -0.014823 -0.029195
v 0.010831 -0.024056 -0.031248
f 96 103 106 
f 93 94 95 
f 94 92 98 
f 95 94 98 
f 93 95 99 
f 97 96 99 
f 92 94 100 
f 92 97 101 
f 97 95 101 
f 98 92 101 
f 95 98 101 
f 95 97 102 
f 99 95 102 
f 97 99 102 
f 97 92 104 
f 96 97 104 
f 92 103 104 
f 103 96 104 
f 94 93 105 
f 93 99 105 
f 99 96 105 
f 100 94 105 
f 96 100 105 
f 92 100 106 
f 100 96 106 
f 103 92 106 
o convex_3
v -0.011233 -0.010714 -0.031248
v 0.011859 0.005192 -0.030733
v 0.012372 0.004678 -0.030733
v -0.006614 -0.011229 -0.021499
v 0.014939 -0.011229 -0.031248
v 0.003134 0.005192 -0.021499
v -0.007638 0.004678 -0.031248
v 0.010320 -0.009176 -0.021499
v -0.008666 0.002625 -0.021499
v 0.012884 0.000573 -0.025091
v -0.011233 -0.003531 -0.026628
v 0.009293 -0.011229 -0.021499
v 0.008263 0.003140 -0.021499
v 0.014939 -0.000967 -0.031248
v -0.003534 0.005192 -0.021499
v -0.011233 -0.011229 -0.029707
v -0.008666 -0.007123 -0.021499
v 0.010320 0.005192 -0.024578
v -0.010718 -0.001480 -0.031248
v -0.005586 0.005192 -0.031248
v 0.012884 -0.010714 -0.026117
v 0.011859 0.005192 -0.031248
f 120 126 128 
f 111 107 113 
f 112 110 114 
f 110 112 115 
f 110 111 118 
f 114 110 118 
f 112 114 119 
f 114 116 119 
f 111 113 120 
f 109 116 120 
f 116 111 120 
f 112 108 121 
f 115 112 121 
f 113 115 121 
f 107 111 122 
f 111 110 122 
f 117 107 122 
f 117 122 123 
f 110 115 123 
f 115 117 123 
f 122 110 123 
f 109 108 124 
f 108 112 124 
f 116 109 124 
f 112 119 124 
f 119 116 124 
f 113 107 125 
f 115 113 125 
f 107 117 125 
f 117 115 125 
f 120 113 126 
f 121 108 126 
f 113 121 126 
f 111 116 127 
f 116 114 127 
f 118 111 127 
f 114 118 127 
f 108 109 128 
f 109 120 128 
f 126 108 128 
o convex_4
v -0.004561 0.005706 -0.031248
v -0.000969 0.018022 -0.030733
v -0.000455 0.013915 -0.021499
v 0.011347 0.005192 -0.031248
v -0.003534 0.005192 -0.021499
v -0.004561 0.010325 -0.021499
v 0.002625 0.005192 -0.021499
v -0.003021 0.016993 -0.031248
v 0.003139 0.010325 -0.021499
v 0.011347 0.005706 -0.030733
v -0.004561 0.005192 -0.031248
v 0.000057 0.017507 -0.030733
v -0.004048 0.014427 -0.031248
v -0.001995 0.013915 -0.021499
v 0.009293 0.005192 -0.027655
f 132 138 143 
f 133 131 134 
f 133 132 135 
f 131 133 135 
f 132 129 136 
f 131 135 137 
f 129 132 139 
f 132 133 139 
f 133 134 139 
f 134 129 139 
f 130 131 140 
f 136 130 140 
f 132 136 140 
f 131 137 140 
f 137 138 140 
f 138 132 140 
f 129 134 141 
f 136 129 141 
f 134 136 141 
f 131 130 142 
f 134 131 142 
f 130 136 142 
f 136 134 142 
f 135 132 143 
f 137 135 143 
f 138 137 143 
o convex_5
v -0.008665 -0.004039 0.019555
v -0.000973 0.029821 0.025713
v 0.001078 0.028795 0.025713
v 0.000055 0.027768 0.019555
v 0.016991 0.004682 0.025713
v -0.014311 0.011351 0.025713
v 0.015964 0.009302 0.019555
v -0.017389 0.015453 0.019555
v -0.009179 0.002118 0.025713
v -0.019956 0.002118 0.020069
v 0.016991 0.013915 0.025713
v 0.001595 -0.004554 0.020069
v -0.008665 0.027768 0.025713
v -0.009179 0.026742 0.019555
v 0.008264 0.022122 0.019555
v 0.011859 0.000577 0.019555
v -0.012770 0.022637 0.025200
v 0.000055 0.000066 0.024686
v 0.016991 0.012886 0.022122
v -0.019956 0.005197 0.019555
v -0.004047 0.029821 0.024173
v -0.012253 0.024175 0.020583
v -0.009179 -0.000449 0.023660
v 0.006210 0.024690 0.022634
v -0.018416 0.008787 0.021609
v 0.015964 0.006735 0.019555
v -0.013284 0.007246 0.025713
v 0.016478 0.004167 0.025713
v -0.005070 0.028280 0.019555
f 157 164 172 
f 145 146 147 
f 146 145 148 
f 148 145 149 
f 144 147 150 
f 147 144 151 
f 148 149 152 
f 146 148 154 
f 149 145 156 
f 147 151 157 
f 150 147 158 
f 144 150 159 
f 155 144 159 
f 149 156 160 
f 154 148 162 
f 150 158 162 
f 158 154 162 
f 151 144 163 
f 144 153 163 
f 145 147 164 
f 156 145 164 
f 157 156 164 
f 157 151 165 
f 156 157 165 
f 151 160 165 
f 160 156 165 
f 152 153 166 
f 153 144 166 
f 144 155 166 
f 161 152 166 
f 155 161 166 
f 147 146 167 
f 146 154 167 
f 158 147 167 
f 154 158 167 
f 153 149 168 
f 149 160 168 
f 160 151 168 
f 151 163 168 
f 163 153 168 
f 159 150 169 
f 148 159 169 
f 162 148 169 
f 150 162 169 
f 152 149 170 
f 149 153 170 
f 153 152 170 
f 148 152 171 
f 159 148 171 
f 155 159 171 
f 152 161 171 
f 161 155 171 
f 147 157 172 
f 164 147 172 
o convex_6
v 0.001084 0.028794 0.025713
v -0.013798 0.010327 0.028792
v -0.013798 0.010327 0.029306
v 0.011859 -0.005067 0.027766
v 0.005701 0.024176 0.029306
v -0.009178 0.002632 0.025713
v 0.016991 0.013400 0.025713
v 0.015451 0.000578 0.029306
v -0.008666 0.027767 0.025713
v -0.006101 0.028794 0.029306
v 0.007754 -0.004553 0.029306
v 0.016476 0.004169 0.025713
v 0.016476 0.009813 0.029306
v -0.013798 0.015968 0.025713
v -0.011231 0.022122 0.029306
v -0.011231 0.005709 0.029306
v 0.007238 -0.002499 0.026227
v 0.000059 0.029820 0.029306
v 0.007238 -0.005580 0.027766
v -0.013283 0.007759 0.025713
v -0.004561 0.029820 0.026227
v 0.004161 0.026740 0.027766
v 0.016991 0.012887 0.027254
v 0.016991 0.004682 0.027766
v -0.012771 0.020585 0.026227
f 187 181 197 
f 178 173 179 
f 177 175 180 
f 173 178 181 
f 175 177 182 
f 180 175 183 
f 176 180 183 
f 178 179 184 
f 180 176 184 
f 177 180 185 
f 174 175 186 
f 181 178 186 
f 175 182 187 
f 182 181 187 
f 183 175 188 
f 184 176 189 
f 178 184 189 
f 182 177 190 
f 176 183 191 
f 188 178 191 
f 183 188 191 
f 189 176 191 
f 178 189 191 
f 175 174 192 
f 174 186 192 
f 186 178 192 
f 188 175 192 
f 178 188 192 
f 173 181 193 
f 181 182 193 
f 190 173 193 
f 182 190 193 
f 179 173 194 
f 173 190 194 
f 190 177 194 
f 177 185 195 
f 179 194 195 
f 194 177 195 
f 184 179 196 
f 180 184 196 
f 185 180 196 
f 179 195 196 
f 195 185 196 
f 186 175 197 
f 181 186 197 
f 175 187 197 
o convex_7
v 0.022637 0.020073 0.019555
v 0.016993 0.005192 0.024172
v 0.017505 0.005192 0.024172
v 0.027253 0.021098 0.025713
v 0.029819 0.012893 0.021609
v 0.016993 0.011354 0.027766
v 0.017505 0.006221 0.027766
v 0.020584 0.010326 0.020069
v 0.016993 0.014427 0.022634
v 0.030845 0.020073 0.024172
v 0.024689 0.022640 0.020069
v 0.030845 0.019045 0.021095
v 0.029819 0.012893 0.023147
v 0.023664 0.010325 0.020069
v 0.016993 0.013915 0.025713
v 0.016993 0.009300 0.021608
v 0.028279 0.019559 0.025713
v 0.025202 0.020585 0.019555
v 0.021097 0.017506 0.019555
v 0.024689 0.022640 0.021095
f 206 212 217 
f 199 200 204 
f 203 199 204 
f 199 203 206 
f 198 206 208 
f 208 207 209 
f 202 209 210 
f 200 202 210 
f 204 200 210 
f 209 207 210 
f 200 199 211 
f 202 200 211 
f 199 205 211 
f 209 202 211 
f 203 201 212 
f 206 203 212 
f 205 199 213 
f 199 206 213 
f 201 203 214 
f 203 204 214 
f 207 201 214 
f 204 210 214 
f 210 207 214 
f 198 208 215 
f 208 209 215 
f 209 211 215 
f 215 211 216 
f 206 198 216 
f 211 205 216 
f 205 213 216 
f 213 206 216 
f 198 215 216 
f 201 207 217 
f 208 206 217 
f 207 208 217 
f 212 201 217 
o convex_8
v 0.013912 -0.011228 -0.005076
v 0.001598 0.026228 0.019555
v 0.000571 0.026745 0.019042
v 0.000057 -0.004549 0.019555
v 0.000057 0.016476 -0.005076
v 0.013912 0.010832 0.019555
v 0.006216 -0.024058 -0.004563
v 0.010320 0.013910 -0.003536
v 0.000057 -0.015843 -0.005076
v 0.013398 -0.001988 0.016988
v 0.013912 0.013910 0.011857
v 0.007240 0.022125 0.008264
v 0.002624 0.019559 -0.005076
v 0.013912 0.003134 -0.005076
v 0.008268 -0.021999 -0.001997
v 0.011345 0.018530 0.019555
v 0.000057 0.026745 0.016477
v 0.002110 -0.011228 0.012882
v 0.013912 0.003134 0.019555
v 0.000057 -0.015843 -0.000970
v 0.011859 -0.016872 -0.004049
v 0.006216 0.024174 0.019042
v 0.007754 -0.010711 0.011343
v 0.001598 -0.005066 0.019555
v 0.008780 0.020072 0.005701
v 0.013912 -0.002500 0.015449
v 0.007754 -0.023541 -0.005076
v 0.012886 0.006729 -0.005076
v 0.007754 0.022638 0.012370
v 0.004162 -0.013789 0.009805
v 0.000057 0.026228 0.019555
v 0.001598 0.019559 -0.005076
v 0.012372 -0.000451 0.019042
v 0.008780 0.015964 -0.003536
v 0.006216 0.023657 0.011857
v 0.009293 0.013910 -0.005076
v 0.008268 -0.017896 0.003136
f 240 247 254 
f 219 221 223 
f 222 218 226 
f 221 222 226 
f 223 218 228 
f 218 222 230 
f 228 218 231 
f 218 230 231 
f 219 223 233 
f 223 228 233 
f 222 221 234 
f 223 221 236 
f 218 223 236 
f 221 226 237 
f 226 224 237 
f 235 221 237 
f 224 235 237 
f 220 219 239 
f 219 233 239 
f 221 235 241 
f 236 221 241 
f 228 225 242 
f 230 229 242 
f 227 232 243 
f 218 236 243 
f 236 227 243 
f 238 218 243 
f 232 238 243 
f 226 218 244 
f 224 226 244 
f 232 224 244 
f 218 238 244 
f 238 232 244 
f 225 228 245 
f 228 231 245 
f 231 230 245 
f 233 228 246 
f 239 233 246 
f 228 242 246 
f 242 229 246 
f 224 232 247 
f 235 224 247 
f 241 235 247 
f 240 241 247 
f 219 220 248 
f 221 219 248 
f 220 234 248 
f 234 221 248 
f 230 222 249 
f 222 234 249 
f 234 230 249 
f 227 236 250 
f 240 227 250 
f 241 240 250 
f 236 241 250 
f 242 225 251 
f 230 242 251 
f 229 230 252 
f 234 220 252 
f 230 234 252 
f 220 239 252 
f 246 229 252 
f 239 246 252 
f 225 245 253 
f 245 230 253 
f 251 225 253 
f 230 251 253 
f 232 227 254 
f 227 240 254 
f 247 232 254 
o convex_9
v -0.016876 -0.016358 0.040595
v -0.010206 -0.001479 0.046240
v -0.010206 -0.001479 0.038544
v -0.020468 -0.011742 0.042133
v -0.012260 -0.013279 0.046240
v -0.010206 -0.009178 0.034953
v -0.021494 -0.016873 0.046240
v -0.017390 -0.011228 0.036490
v -0.012260 -0.001479 0.046240
v -0.010206 -0.011742 0.042646
v -0.011234 -0.001479 0.038544
v -0.012260 -0.006100 0.034437
v -0.017902 -0.017900 0.046240
v -0.013287 -0.013795 0.037004
v -0.019954 -0.014307 0.039056
v -0.021494 -0.014820 0.046240
v -0.015851 -0.013795 0.036490
v -0.012260 -0.013795 0.038544
v -0.010206 -0.010200 0.046240
v -0.019954 -0.011228 0.040595
v -0.020468 -0.017386 0.043673
v -0.010206 -0.005071 0.034437
v -0.013800 -0.015333 0.045213
f 267 272 277 
f 257 256 260 
f 259 256 261 
f 256 257 263 
f 261 256 263 
f 260 256 264 
f 263 257 265 
f 259 261 267 
f 263 258 270 
f 261 263 270 
f 258 269 270 
f 269 261 270 
f 266 260 271 
f 262 266 271 
f 260 268 271 
f 268 255 271 
f 255 269 271 
f 269 262 271 
f 260 264 272 
f 267 255 272 
f 268 260 272 
f 255 268 272 
f 256 259 273 
f 259 264 273 
f 264 256 273 
f 258 263 274 
f 263 265 274 
f 266 262 274 
f 265 266 274 
f 269 258 274 
f 262 269 274 
f 255 267 275 
f 267 261 275 
f 269 255 275 
f 261 269 275 
f 257 260 276 
f 265 257 276 
f 260 266 276 
f 266 265 276 
f 264 259 277 
f 259 267 277 
f 272 264 277 
o convex_10
v -0.011235 0.000574 0.031872
v -0.010206 0.003653 0.046240
v -0.010722 0.003653 0.046240
v -0.012262 -0.001479 0.046240
v -0.025085 0.003653 0.039054
v -0.010206 0.003653 0.031872
v -0.017392 -0.000452 0.038031
v -0.010206 -0.001479 0.038544
v -0.025085 0.003139 0.042134
v -0.025085 0.002113 0.040080
v -0.018928 0.003653 0.045213
v -0.010206 -0.001479 0.046240
f 281 285 289 
f 279 280 281 
f 280 279 282 
f 278 282 283 
f 282 279 283 
f 283 279 285 
f 278 283 285 
f 284 278 285 
f 281 284 285 
f 282 278 287 
f 278 284 287 
f 284 281 287 
f 281 286 287 
f 286 282 287 
f 281 280 288 
f 280 282 288 
f 286 281 288 
f 282 286 288 
f 279 281 289 
f 285 279 289 
o convex_11
v -0.035348 -0.016358 0.071897
v -0.020470 0.000574 0.063690
v -0.019958 0.000057 0.063690
v -0.032788 -0.017385 0.063174
v -0.048180 -0.011228 0.077027
v -0.037403 -0.008665 0.076001
v -0.020983 -0.010200 0.063690
v -0.024576 -0.001480 0.063174
v -0.047153 -0.014819 0.078053
v -0.032788 -0.011228 0.073435
v -0.027142 -0.017385 0.063174
v -0.046640 -0.009687 0.078567
v -0.032788 -0.014819 0.063174
v -0.036375 -0.018413 0.066768
v -0.044075 -0.013793 0.078567
v -0.021498 -0.003532 0.065742
v -0.022523 0.000574 0.063174
v -0.026117 -0.014308 0.066256
v -0.047153 -0.014308 0.075489
v -0.031248 -0.005587 0.072409
v -0.018930 -0.004559 0.063174
v -0.033807 -0.018413 0.067794
v -0.024576 -0.008665 0.067794
v -0.047153 -0.012252 0.075489
v -0.041509 -0.015332 0.076515
v -0.042022 -0.008665 0.077541
v -0.035863 -0.013793 0.074463
v -0.024576 -0.000454 0.065742
v -0.026629 -0.016872 0.064204
v -0.036885 -0.017385 0.066256
f 308 313 319 
f 293 297 300 
f 294 298 301 
f 297 293 302 
f 293 300 303 
f 299 295 304 
f 301 298 304 
f 291 292 306 
f 297 294 306 
f 300 297 306 
f 294 301 306 
f 298 294 308 
f 303 298 308 
f 292 291 309 
f 295 299 309 
f 305 292 309 
f 299 305 309 
f 296 300 310 
f 292 305 310 
f 306 292 310 
f 300 306 310 
f 298 303 311 
f 303 300 311 
f 305 299 312 
f 307 296 312 
f 299 307 312 
f 296 310 312 
f 310 305 312 
f 294 297 313 
f 297 302 313 
f 308 294 313 
f 304 298 314 
f 311 290 314 
f 298 311 314 
f 304 295 315 
f 301 304 315 
f 295 309 315 
f 299 304 316 
f 307 299 316 
f 290 307 316 
f 314 290 316 
f 304 314 316 
f 291 306 317 
f 306 301 317 
f 309 291 317 
f 301 315 317 
f 315 309 317 
f 300 296 318 
f 296 307 318 
f 307 290 318 
f 290 311 318 
f 311 300 318 
f 302 293 319 
f 293 303 319 
f 303 308 319 
f 313 302 319 
o convex_12
v -0.015338 0.003653 0.035464
v -0.019957 0.022125 0.051885
v -0.020469 0.022125 0.051885
v -0.017391 0.004679 0.046752
v -0.024574 0.003653 0.038031
v -0.015338 0.016994 0.039569
v -0.015338 0.013405 0.049831
v -0.024061 0.014428 0.041623
v -0.023034 0.011863 0.049318
v -0.018417 0.023666 0.047778
v -0.025088 0.003653 0.042649
v -0.015852 0.011356 0.035978
v -0.015338 0.020073 0.049315
v -0.015338 0.003653 0.044184
v -0.020469 0.023666 0.047265
v -0.020469 0.016481 0.051885
v -0.023034 0.015967 0.049829
v -0.024574 0.007248 0.038031
v -0.019443 0.019560 0.042652
v -0.015338 0.007759 0.048289
v -0.023034 0.003653 0.044187
v -0.020469 0.023666 0.050858
v -0.024574 0.012376 0.042138
v -0.018417 0.020073 0.051885
v -0.019957 0.011865 0.050345
f 339 335 344 
f 320 325 326 
f 324 320 330 
f 325 320 331 
f 326 325 332 
f 325 329 332 
f 320 326 333 
f 330 320 333 
f 329 325 334 
f 321 322 335 
f 328 335 336 
f 330 328 336 
f 335 322 336 
f 320 324 337 
f 324 330 337 
f 331 320 337 
f 327 331 337 
f 325 331 338 
f 331 327 338 
f 327 334 338 
f 334 325 338 
f 333 326 339 
f 323 333 339 
f 326 335 339 
f 323 328 340 
f 328 330 340 
f 333 323 340 
f 330 333 340 
f 322 321 341 
f 321 332 341 
f 332 329 341 
f 334 327 341 
f 329 334 341 
f 327 336 341 
f 336 322 341 
f 336 327 342 
f 330 336 342 
f 337 330 342 
f 327 337 342 
f 326 332 343 
f 332 321 343 
f 321 335 343 
f 335 326 343 
f 328 323 344 
f 335 328 344 
f 323 339 344 
o convex_13
v -0.010720 0.023665 0.041110
v -0.010720 0.003653 0.032386
v -0.010206 0.003653 0.032386
v -0.010720 0.007247 0.056503
v -0.015338 0.003653 0.044699
v -0.015338 0.020071 0.046751
v -0.014824 0.012894 0.029819
v -0.010206 0.022127 0.029306
v -0.010206 0.010326 0.056503
v -0.015338 0.003653 0.035466
v -0.015338 0.018533 0.049832
v -0.010206 0.004168 0.052909
v -0.012260 0.023150 0.033925
v -0.011233 0.005193 0.029306
v -0.010206 0.022639 0.043160
v -0.015338 0.007760 0.048290
v -0.015338 0.018020 0.041110
v -0.010720 0.024693 0.037519
v -0.014311 0.011353 0.029306
v -0.010206 0.005193 0.029306
v -0.011746 0.004681 0.053423
v -0.012772 0.021097 0.031872
v -0.014824 0.020071 0.048290
f 362 350 367 
f 346 347 349 
f 347 352 353 
f 346 349 354 
f 349 350 354 
f 350 349 355 
f 348 353 355 
f 349 347 356 
f 347 353 356 
f 353 348 356 
f 347 346 358 
f 346 354 358 
f 353 352 359 
f 348 355 360 
f 355 349 360 
f 354 350 361 
f 351 354 361 
f 350 357 361 
f 357 350 362 
f 352 357 362 
f 345 359 362 
f 359 352 362 
f 351 352 363 
f 354 351 363 
f 352 358 363 
f 358 354 363 
f 352 347 364 
f 347 358 364 
f 358 352 364 
f 356 348 365 
f 349 356 365 
f 348 360 365 
f 360 349 365 
f 352 351 366 
f 357 352 366 
f 351 361 366 
f 361 357 366 
f 350 355 367 
f 355 353 367 
f 359 345 367 
f 353 359 367 
f 345 362 367 
o convex_14
v 0.001595 0.006735 0.060608
v -0.010205 0.004168 0.051372
v -0.010205 0.004168 0.052912
v -0.006100 0.024177 0.052912
v 0.003648 0.001604 0.051372
v -0.005074 0.015453 0.064201
v 0.003648 0.017506 0.057018
v -0.003535 0.000577 0.059582
v -0.009691 0.011351 0.060094
v 0.000568 0.018532 0.051372
v -0.006100 0.023663 0.058042
v 0.002621 0.013915 0.062146
v -0.008152 -0.000449 0.051372
v -0.007639 0.004682 0.060608
v -0.003022 0.011351 0.064201
v -0.000971 0.018020 0.062660
v -0.008152 0.020072 0.053940
v -0.001997 0.023151 0.055478
v 0.003648 0.011863 0.051372
v -0.009691 0.001089 0.054452
v 0.003134 0.001089 0.053940
v -0.010205 0.008273 0.051372
v -0.001483 0.003656 0.061633
v -0.003535 -0.000963 0.051885
v -0.004560 0.021099 0.051372
v 0.003648 0.005708 0.056504
v -0.001483 0.022637 0.052912
v -0.007126 0.005708 0.061633
v -0.010205 0.011351 0.057530
v -0.008665 0.016994 0.059068
v -0.009691 0.008787 0.060094
v -0.000971 0.020584 0.059582
v 0.003648 0.017506 0.055478
v -0.003022 0.015968 0.064201
f 379 383 401 
f 372 369 377 
f 369 372 380 
f 379 374 383 
f 378 371 384 
f 371 378 385 
f 374 372 386 
f 372 377 386 
f 370 369 387 
f 369 380 387 
f 380 375 387 
f 375 381 387 
f 369 370 389 
f 377 369 389 
f 384 371 389 
f 368 379 390 
f 379 382 390 
f 388 368 390 
f 375 388 390 
f 380 372 391 
f 375 380 391 
f 388 375 391 
f 372 388 391 
f 377 389 392 
f 389 371 392 
f 372 374 393 
f 379 368 393 
f 374 379 393 
f 368 388 393 
f 388 372 393 
f 371 385 394 
f 392 371 394 
f 377 392 394 
f 381 375 395 
f 382 373 395 
f 375 390 395 
f 390 382 395 
f 389 370 396 
f 384 389 396 
f 376 373 397 
f 373 378 397 
f 378 384 397 
f 396 376 397 
f 384 396 397 
f 373 376 398 
f 370 387 398 
f 387 381 398 
f 395 373 398 
f 381 395 398 
f 376 396 398 
f 396 370 398 
f 383 374 399 
f 378 383 399 
f 374 385 399 
f 385 378 399 
f 385 374 400 
f 374 386 400 
f 386 377 400 
f 377 394 400 
f 394 385 400 
f 378 373 401 
f 382 379 401 
f 373 382 401 
f 383 378 401 
o convex_15
v 0.006215 -0.005584 0.051372
v 0.004162 0.015967 0.058556
v 0.003649 0.015967 0.058556
v 0.006215 0.012886 0.051372
v 0.003649 0.011349 0.051372
v 0.006728 0.000576 0.056503
v 0.003649 0.000576 0.051886
v 0.006215 0.014425 0.057529
v 0.003649 0.005194 0.055989
v 0.003649 0.017508 0.055476
v 0.006728 0.011862 0.051372
v 0.006728 -0.005584 0.051372
v 0.006215 -0.002503 0.054964
f 413 407 414 
f 405 402 406 
f 403 404 407 
f 406 402 408 
f 404 406 408 
f 403 407 409 
f 407 404 410 
f 404 408 410 
f 404 403 411 
f 405 406 411 
f 406 404 411 
f 403 409 411 
f 409 405 411 
f 402 405 412 
f 405 409 412 
f 409 407 412 
f 402 412 413 
f 412 407 413 
f 408 402 414 
f 407 410 414 
f 410 408 414 
f 402 413 414 
o convex_16
v 0.041105 -0.020461 0.079081
v 0.018019 0.002113 0.066255
v 0.018019 0.002113 0.065740
v 0.020588 -0.011225 0.066255
v 0.031356 -0.012767 0.066255
v 0.044700 -0.017385 0.078054
v 0.030334 -0.009177 0.076002
v 0.029824 -0.015332 0.065740
v 0.019044 -0.005585 0.068822
v 0.037515 -0.011741 0.078567
v 0.043671 -0.020979 0.077028
v 0.036487 -0.016359 0.078567
v 0.024693 -0.014304 0.065740
v 0.023152 -0.000967 0.067795
v 0.015452 -0.000454 0.066255
v 0.045215 -0.017898 0.080107
v 0.032895 -0.007640 0.076002
v 0.023665 -0.003533 0.071900
v 0.016480 -0.005585 0.065740
v 0.025206 -0.011741 0.071387
v 0.040079 -0.020461 0.075489
v 0.022124 -0.001481 0.065740
v 0.040592 -0.015846 0.080107
v 0.038031 -0.018924 0.078054
v 0.029824 -0.011741 0.075489
v 0.043161 -0.019437 0.076002
v 0.043161 -0.020461 0.080107
f 430 437 441 
f 417 422 427 
f 417 416 428 
f 416 417 429 
f 425 420 430 
f 421 424 431 
f 428 416 431 
f 420 428 431 
f 430 420 431 
f 424 430 431 
f 423 421 432 
f 416 429 432 
f 429 423 432 
f 431 416 432 
f 421 431 432 
f 418 423 433 
f 417 427 433 
f 427 418 433 
f 429 417 433 
f 423 429 433 
f 423 418 434 
f 425 415 435 
f 422 425 435 
f 415 427 435 
f 427 422 435 
f 420 419 436 
f 422 417 436 
f 419 422 436 
f 417 428 436 
f 428 420 436 
f 424 421 437 
f 421 426 437 
f 430 424 437 
f 415 426 438 
f 418 427 438 
f 427 415 438 
f 434 418 438 
f 426 434 438 
f 421 423 439 
f 426 421 439 
f 423 434 439 
f 434 426 439 
f 419 420 440 
f 422 419 440 
f 420 425 440 
f 425 422 440 
f 415 425 441 
f 426 415 441 
f 425 430 441 
f 437 426 441 
o convex_17
v -0.008667 -0.026622 -0.021498
v -0.017391 -0.024569 -0.023038
v -0.016364 -0.025596 -0.026629
v -0.003535 -0.011230 -0.029195
v -0.003535 -0.027134 -0.029195
v -0.003535 -0.011230 -0.021498
v -0.015849 -0.015336 -0.022525
v -0.009695 -0.011230 -0.029195
v -0.011743 -0.028676 -0.029195
v -0.003535 -0.023543 -0.021498
v -0.014311 -0.028161 -0.021498
v -0.017391 -0.023029 -0.021498
v -0.016877 -0.018415 -0.024577
v -0.003535 -0.027648 -0.027654
v -0.006101 -0.011230 -0.021498
v -0.013798 -0.027648 -0.028680
v -0.014311 -0.014823 -0.026629
v -0.007128 -0.028676 -0.027654
f 455 442 459 
f 446 445 447 
f 445 446 449 
f 447 445 449 
f 449 446 450 
f 447 442 451 
f 446 447 451 
f 443 444 452 
f 442 447 452 
f 443 452 453 
f 452 447 453 
f 444 443 454 
f 443 453 454 
f 453 448 454 
f 451 442 455 
f 446 451 455 
f 447 449 456 
f 449 448 456 
f 448 453 456 
f 453 447 456 
f 449 450 457 
f 452 444 457 
f 450 452 457 
f 448 449 458 
f 444 454 458 
f 454 448 458 
f 457 444 458 
f 449 457 458 
f 450 446 459 
f 442 452 459 
f 452 450 459 
f 446 455 459 
o convex_18
v 0.016990 -0.017903 -0.026116
v -0.003535 -0.028160 -0.028167
v 0.005705 -0.033804 -0.026629
v -0.003535 -0.011233 -0.021498
v 0.007241 -0.033291 -0.021498
v -0.003535 -0.011233 -0.029195
v 0.012885 -0.011233 -0.021498
v 0.018018 -0.016364 -0.029195
v -0.000968 -0.032264 -0.022012
v 0.012372 -0.011233 -0.029195
v -0.002508 -0.026621 -0.029195
v 0.013397 -0.025081 -0.021498
v 0.009807 -0.032777 -0.025090
v 0.017503 -0.019442 -0.029195
v -0.003535 -0.024055 -0.021498
v 0.014425 -0.015851 -0.021498
v 0.015965 -0.022521 -0.025090
v -0.000968 -0.032777 -0.023038
v 0.007241 -0.034319 -0.026116
v 0.015965 -0.020982 -0.029195
v 0.016990 -0.014312 -0.029195
v 0.000058 -0.032777 -0.021498
f 477 478 481 
f 461 463 465 
f 465 463 466 
f 463 464 466 
f 465 466 469 
f 467 465 469 
f 462 461 470 
f 461 465 470 
f 465 467 470 
f 466 464 471 
f 471 464 472 
f 470 467 473 
f 463 461 474 
f 464 463 474 
f 461 468 474 
f 460 467 475 
f 467 466 475 
f 466 471 475 
f 475 471 476 
f 467 460 476 
f 471 472 476 
f 473 467 476 
f 472 473 476 
f 460 475 476 
f 461 462 477 
f 468 461 477 
f 472 464 478 
f 473 472 478 
f 477 462 478 
f 462 470 479 
f 470 473 479 
f 478 462 479 
f 473 478 479 
f 466 467 480 
f 469 466 480 
f 467 469 480 
f 464 474 481 
f 474 468 481 
f 468 477 481 
f 478 464 481 
o convex_19
v -0.014311 -0.028676 -0.018418
v -0.001483 -0.017387 -0.005076
v -0.006103 -0.017387 -0.005076
v -0.014823 -0.017387 -0.021498
v -0.001483 -0.024571 -0.021498
v -0.005075 -0.028676 -0.005591
v -0.001483 -0.017387 -0.021498
v -0.011232 -0.017387 -0.006103
v -0.016877 -0.025597 -0.021498
v -0.010719 -0.029703 -0.010722
v -0.011232 -0.029189 -0.019443
v -0.001996 -0.024571 -0.005076
v -0.006103 -0.029189 -0.011749
v -0.006615 -0.028163 -0.005076
v -0.012257 -0.028163 -0.011749
v -0.014823 -0.028163 -0.021498
v -0.015336 -0.019953 -0.018418
v -0.004049 -0.028163 -0.008156
v -0.016877 -0.025597 -0.020983
f 489 498 500 
f 484 483 485 
f 485 483 488 
f 486 485 488 
f 483 486 488 
f 484 485 489 
f 485 486 490 
f 491 482 492 
f 483 484 493 
f 486 483 493 
f 487 491 494 
f 491 492 494 
f 492 486 494 
f 484 489 495 
f 491 487 495 
f 493 484 495 
f 487 493 495 
f 482 491 496 
f 495 489 496 
f 491 495 496 
f 490 486 497 
f 486 492 497 
f 492 482 497 
f 489 485 498 
f 486 493 499 
f 493 487 499 
f 494 486 499 
f 487 494 499 
f 485 490 500 
f 482 496 500 
f 496 489 500 
f 497 482 500 
f 490 497 500 
f 498 485 500 
o convex_20
v 0.017503 -0.018923 -0.011234
v 0.011860 0.007758 -0.005076
v 0.011860 0.007758 -0.006103
v 0.011347 -0.026111 -0.021498
v 0.011347 -0.011228 -0.005076
v 0.013399 -0.011228 -0.021498
v 0.019557 -0.010201 -0.005076
v 0.011347 -0.010714 -0.021498
v 0.015452 -0.014819 -0.005076
v 0.014427 -0.016871 -0.021498
v 0.016990 -0.003537 -0.007645
v 0.011347 0.004161 -0.011234
v 0.012887 0.001081 -0.012776
v 0.016477 -0.012767 -0.015852
v 0.012887 -0.025597 -0.021498
v 0.018017 -0.017385 -0.007645
v 0.011347 -0.026111 -0.020470
v 0.018531 -0.017385 -0.009698
v 0.016477 -0.000457 -0.005591
v 0.011347 0.007758 -0.005076
v 0.016990 -0.008155 -0.011749
v 0.019557 -0.013794 -0.005076
v 0.011347 -0.016871 -0.010209
v 0.019557 -0.011739 -0.006616
f 522 518 524 
f 502 505 507 
f 504 505 508 
f 506 504 508 
f 507 505 509 
f 504 506 510 
f 508 505 512 
f 506 508 512 
f 512 503 513 
f 506 512 513 
f 510 506 514 
f 504 510 515 
f 515 501 516 
f 515 516 517 
f 505 504 517 
f 504 515 517 
f 516 509 517 
f 510 514 518 
f 501 515 518 
f 515 510 518 
f 516 501 518 
f 503 502 519 
f 502 507 519 
f 507 511 519 
f 513 503 519 
f 511 513 519 
f 502 503 520 
f 505 502 520 
f 503 512 520 
f 512 505 520 
f 513 511 521 
f 506 513 521 
f 514 506 521 
f 507 509 522 
f 509 516 522 
f 516 518 522 
f 509 505 523 
f 505 517 523 
f 517 509 523 
f 511 507 524 
f 518 514 524 
f 521 511 524 
f 514 521 524 
f 507 522 524 
o convex_21
v -0.019956 -0.008654 0.008264
v -0.014826 0.015960 0.019555
v -0.015339 0.015960 0.019555
v -0.014826 -0.009688 -0.005076
v -0.024575 -0.000451 0.011854
v -0.015339 0.001093 0.019555
v -0.015339 0.016475 0.015961
v -0.022521 0.000577 0.018524
v -0.016879 -0.006090 0.014420
v -0.022009 -0.006093 0.003652
v -0.014826 -0.012768 -0.003536
v -0.024575 -0.003015 0.014420
v -0.022009 0.002627 0.009807
v -0.017905 0.013398 0.019555
v -0.022521 -0.008148 0.005188
v -0.015852 -0.009688 -0.005076
v -0.014826 -0.003015 0.014420
v -0.024060 0.001090 0.016472
v -0.020469 0.001090 0.019555
v -0.015339 0.018022 0.018010
v -0.018931 -0.007633 0.011854
v -0.014826 0.016475 0.015961
v -0.015852 -0.011741 -0.005076
v -0.022521 -0.008148 0.007242
v -0.017905 -0.004555 0.015961
f 536 545 549 
f 526 527 530 
f 528 526 535 
f 534 529 537 
f 530 527 538 
f 529 534 539 
f 536 529 539 
f 531 528 540 
f 537 531 540 
f 534 537 540 
f 526 530 541 
f 530 533 541 
f 535 526 541 
f 533 535 541 
f 529 536 542 
f 536 532 542 
f 538 529 542 
f 532 538 542 
f 530 538 543 
f 538 532 543 
f 527 526 544 
f 531 537 544 
f 537 529 544 
f 538 527 544 
f 529 538 544 
f 535 533 545 
f 525 535 545 
f 526 528 546 
f 528 531 546 
f 544 526 546 
f 531 544 546 
f 528 535 547 
f 539 534 547 
f 535 539 547 
f 540 528 547 
f 534 540 547 
f 535 525 548 
f 539 535 548 
f 536 539 548 
f 525 545 548 
f 545 536 548 
f 533 530 549 
f 532 536 549 
f 530 543 549 
f 543 532 549 
f 545 533 549 
o convex_22
v -0.020472 -0.011743 0.062147
v -0.022520 -0.017899 0.046240
v -0.022520 -0.018411 0.046754
v -0.033812 -0.015846 0.062661
v -0.016879 -0.009176 0.046240
v -0.011235 -0.011743 0.046754
v -0.027652 -0.019438 0.060607
v -0.028167 -0.009176 0.063174
v -0.015338 -0.009176 0.057527
v -0.015851 -0.015846 0.050346
v -0.026626 -0.013282 0.052398
v -0.032781 -0.018926 0.059581
v -0.025085 -0.016359 0.063174
v -0.016879 -0.017385 0.046240
v -0.010206 -0.009176 0.046240
v -0.020472 -0.009176 0.063174
v -0.024061 -0.015846 0.047268
v -0.031758 -0.018411 0.063174
v -0.016366 -0.012769 0.055989
v -0.028680 -0.019953 0.058555
v -0.033812 -0.016359 0.061119
v -0.026626 -0.011230 0.055475
v -0.019444 -0.018411 0.049322
v -0.011235 -0.010203 0.049322
f 568 559 573 
f 554 557 558 
f 551 552 561 
f 556 559 562 
f 552 551 563 
f 551 554 563 
f 555 559 563 
f 554 558 564 
f 563 554 564 
f 555 563 564 
f 558 557 565 
f 550 558 565 
f 562 550 565 
f 557 562 565 
f 554 551 566 
f 560 554 566 
f 551 561 566 
f 557 553 567 
f 553 561 567 
f 556 562 567 
f 562 557 567 
f 558 550 568 
f 550 562 568 
f 562 559 568 
f 561 552 569 
f 556 567 569 
f 567 561 569 
f 553 557 570 
f 561 553 570 
f 560 566 570 
f 566 561 570 
f 557 554 571 
f 554 560 571 
f 570 557 571 
f 560 570 571 
f 559 556 572 
f 552 563 572 
f 563 559 572 
f 569 552 572 
f 556 569 572 
f 559 555 573 
f 564 558 573 
f 555 564 573 
f 558 568 573 
o convex_23
v -0.012775 -0.003529 0.056501
v -0.016366 -0.009176 0.046240
v -0.027652 -0.009176 0.062661
v -0.010722 0.003653 0.046240
v -0.010208 -0.009176 0.047782
v -0.020468 0.001600 0.062147
v -0.019954 -0.009176 0.063174
v -0.021494 0.001086 0.059068
v -0.015340 0.001086 0.060093
v -0.010208 -0.001993 0.051888
v -0.024059 -0.000966 0.063174
v -0.013287 0.003139 0.055475
v -0.018419 -0.001479 0.063174
v -0.016366 -0.008148 0.046240
v -0.010208 -0.009176 0.046240
v -0.015340 -0.006096 0.059581
v -0.017906 0.003139 0.058555
v -0.010208 0.003653 0.047782
v -0.013801 -0.009176 0.055475
v -0.010722 -0.006096 0.051888
v -0.016366 -0.003017 0.061633
v -0.011748 0.002113 0.046240
f 587 581 595 
f 576 575 578 
f 576 578 580 
f 582 574 583 
f 576 580 584 
f 581 576 584 
f 579 581 584 
f 582 583 585 
f 582 579 586 
f 584 580 586 
f 579 584 586 
f 575 576 587 
f 577 575 587 
f 576 581 587 
f 575 577 588 
f 578 575 588 
f 583 578 588 
f 577 581 590 
f 581 579 590 
f 579 582 590 
f 582 585 590 
f 590 585 591 
f 585 583 591 
f 588 577 591 
f 583 588 591 
f 577 590 591 
f 580 578 592 
f 589 580 592 
f 589 592 593 
f 583 574 593 
f 578 583 593 
f 574 589 593 
f 592 578 593 
f 574 582 594 
f 586 580 594 
f 582 586 594 
f 589 574 594 
f 580 589 594 
f 581 577 595 
f 577 587 595 
o convex_24
v 0.013912 -0.012254 -0.004563
v 0.015452 0.007758 0.004161
v 0.020584 0.005704 0.001595
v 0.020584 -0.003530 0.004161
v 0.020584 0.000572 -0.004563
v 0.013912 -0.000966 -0.005076
v 0.013912 -0.004556 0.004161
v 0.019556 -0.013280 -0.005076
v 0.020070 0.003652 -0.003537
v 0.013912 0.007244 0.003647
v 0.016992 -0.014308 -0.004563
v 0.020584 0.004678 0.004161
v 0.016479 -0.005582 0.004161
v 0.020584 -0.006610 0.001595
v 0.015452 -0.014308 -0.005076
v 0.014939 0.000060 -0.005076
f 605 604 611 
f 598 599 600 
f 599 597 602 
f 601 596 602 
f 597 598 604 
f 598 600 604 
f 602 597 605 
f 601 602 605 
f 597 604 605 
f 598 597 607 
f 599 598 607 
f 597 599 607 
f 599 602 608 
f 608 606 609 
f 600 599 609 
f 603 600 609 
f 606 603 609 
f 599 608 609 
f 596 601 610 
f 602 596 610 
f 601 603 610 
f 603 606 610 
f 608 602 610 
f 606 608 610 
f 600 603 611 
f 603 601 611 
f 604 600 611 
f 601 605 611 
o convex_25
v -0.028680 0.030850 0.059068
v -0.020983 0.015969 0.041622
v -0.020470 0.015969 0.041622
v -0.026113 0.022642 0.059581
v -0.020470 0.024179 0.050859
v -0.028166 0.021615 0.053423
v -0.020470 0.015969 0.051372
v -0.027140 0.027257 0.051885
v -0.025088 0.028797 0.060609
v -0.023550 0.015969 0.050346
v -0.028680 0.024179 0.060609
v -0.023036 0.015969 0.042649
v -0.025600 0.029310 0.053936
v -0.020470 0.022642 0.046755
v -0.029193 0.026231 0.054960
v -0.026627 0.031364 0.060609
v -0.025088 0.024691 0.060609
v -0.020470 0.021615 0.052396
v -0.020983 0.018535 0.042649
v -0.029193 0.029824 0.060609
f 622 627 631 
f 613 614 618 
f 614 616 618 
f 618 615 621 
f 613 618 621 
f 617 621 622 
f 621 615 622 
f 613 621 623 
f 621 617 623 
f 619 612 624 
f 616 614 625 
f 624 616 625 
f 619 624 625 
f 612 619 626 
f 617 622 626 
f 619 623 626 
f 623 617 626 
f 620 616 627 
f 622 620 627 
f 616 624 627 
f 624 612 627 
f 615 618 628 
f 620 622 628 
f 622 615 628 
f 618 616 629 
f 616 620 629 
f 628 618 629 
f 620 628 629 
f 614 613 630 
f 613 623 630 
f 623 619 630 
f 625 614 630 
f 619 625 630 
f 612 626 631 
f 626 622 631 
f 627 612 631 
o convex_26
v -0.029193 0.026745 0.063176
v -0.024063 0.035982 0.071385
v -0.024576 0.035982 0.071385
v -0.025089 0.033928 0.061123
v -0.022523 0.029312 0.071385
v -0.025602 0.024180 0.060609
v -0.022523 0.033416 0.063176
v -0.026113 0.027259 0.069845
v -0.028166 0.033416 0.067791
v -0.029193 0.029824 0.060609
v -0.028166 0.023666 0.060609
v -0.022523 0.029312 0.063688
v -0.026627 0.035467 0.066253
v -0.023549 0.032903 0.060609
v -0.026113 0.031876 0.071385
v -0.028679 0.027772 0.066766
v -0.022523 0.034440 0.070870
v -0.023549 0.034955 0.063176
f 633 648 649 
f 633 634 636 
f 637 636 639 
f 632 640 641 
f 637 639 642 
f 632 641 642 
f 641 637 642 
f 636 637 643 
f 638 636 643 
f 634 633 644 
f 640 634 644 
f 635 641 644 
f 641 640 644 
f 637 641 645 
f 641 635 645 
f 643 637 645 
f 638 643 645 
f 636 634 646 
f 639 636 646 
f 634 640 646 
f 646 640 647 
f 640 632 647 
f 632 642 647 
f 642 639 647 
f 639 646 647 
f 633 636 648 
f 636 638 648 
f 648 638 649 
f 644 633 649 
f 635 644 649 
f 645 635 649 
f 638 645 649 
o convex_27
v -0.026627 0.031364 0.071385
v -0.023550 0.032903 0.081135
v -0.024575 0.032903 0.081135
v -0.024063 0.038035 0.073951
v -0.020984 0.028799 0.073951
v -0.028680 0.031364 0.074978
v -0.026627 0.027772 0.076005
v -0.021497 0.035982 0.073951
v -0.028166 0.035467 0.074978
v -0.022524 0.028799 0.079082
v -0.021497 0.034956 0.078569
v -0.022524 0.034441 0.071385
v -0.024575 0.037009 0.078055
v -0.023036 0.029311 0.071385
v -0.025601 0.035467 0.071385
v -0.027140 0.033415 0.079082
v -0.026627 0.028285 0.072925
v -0.022524 0.027258 0.074978
v -0.026113 0.029825 0.079082
v -0.020470 0.031364 0.076005
f 660 659 669 
f 650 655 658 
f 651 652 659 
f 657 653 660 
f 651 659 660 
f 653 657 661 
f 657 654 661 
f 652 651 662 
f 653 658 662 
f 651 660 662 
f 660 653 662 
f 650 661 663 
f 661 654 663 
f 658 653 664 
f 650 658 664 
f 661 650 664 
f 653 661 664 
f 658 655 665 
f 652 662 665 
f 662 658 665 
f 655 650 666 
f 656 655 666 
f 650 663 666 
f 666 663 667 
f 659 656 667 
f 654 659 667 
f 663 654 667 
f 656 666 667 
f 655 656 668 
f 659 652 668 
f 656 659 668 
f 652 665 668 
f 665 655 668 
f 654 657 669 
f 659 654 669 
f 657 660 669 
o convex_28
v 0.008268 -0.004558 0.029306
v 0.011860 -0.001992 0.031871
v 0.011346 -0.001992 0.033924
v 0.007241 -0.001992 0.029306
v 0.011860 -0.004044 0.029306
f 673 671 674 
f 672 671 673 
f 670 672 673 
f 670 673 674 
f 672 670 674 
f 671 672 674 
o convex_29
v 0.016990 -0.012768 0.050857
v 0.005191 -0.002506 0.034950
v 0.004165 -0.002506 0.035465
v 0.011860 -0.001992 0.051372
v 0.021095 -0.008148 0.047266
v 0.004165 -0.002506 0.051372
v 0.012885 -0.012255 0.046750
v 0.011860 -0.003532 0.037005
v 0.016990 -0.012255 0.045210
v 0.005703 -0.007125 0.047266
v 0.010834 -0.010716 0.051372
v 0.019554 -0.008148 0.051372
v 0.008782 -0.007125 0.038030
v 0.002111 -0.001992 0.039572
v 0.009808 -0.001992 0.037517
v 0.005703 -0.006612 0.041112
v 0.012372 -0.006097 0.037517
v 0.020067 -0.011228 0.046750
v 0.002111 -0.001992 0.044698
v 0.019554 -0.011228 0.051372
v 0.007757 -0.009174 0.045725
f 684 690 695 
f 675 681 683 
f 678 680 685 
f 681 675 685 
f 680 684 685 
f 679 678 686 
f 678 685 686 
f 677 676 687 
f 683 681 687 
f 676 677 688 
f 678 679 689 
f 682 676 689 
f 679 682 689 
f 676 688 689 
f 688 678 689 
f 677 687 690 
f 687 681 690 
f 684 688 690 
f 688 677 690 
f 676 682 691 
f 682 679 691 
f 687 676 691 
f 683 687 691 
f 675 683 692 
f 691 679 692 
f 683 691 692 
f 680 678 693 
f 684 680 693 
f 688 684 693 
f 678 688 693 
f 685 675 694 
f 679 686 694 
f 686 685 694 
f 675 692 694 
f 692 679 694 
f 681 685 695 
f 685 684 695 
f 690 681 695 
o convex_30
v 0.004162 0.025717 0.039568
v -0.004048 -0.001476 0.046240
v -0.004048 -0.001476 0.047266
v 0.018531 0.002116 0.033414
v -0.004048 0.002628 0.029306
v -0.004048 0.029309 0.029306
v 0.008780 0.016480 0.046751
v -0.004048 0.019556 0.047266
v 0.015450 0.010837 0.029306
v 0.009292 -0.001992 0.047266
v 0.012373 -0.001992 0.029306
v 0.013399 0.016992 0.032899
v 0.002111 0.028284 0.029306
v -0.001480 0.027771 0.040079
v 0.010833 0.016480 0.044700
v 0.006729 -0.001992 0.029306
v 0.018016 0.006223 0.034951
v 0.016990 -0.001476 0.032388
v 0.002111 0.023663 0.044700
v -0.004048 0.030337 0.034439
v 0.002111 0.028796 0.034439
v 0.017503 0.009812 0.033924
v 0.009805 0.019043 0.043673
v 0.015963 0.000065 0.029306
v 0.006729 0.024692 0.034439
v 0.007241 0.016992 0.047266
v -0.004048 0.001087 0.032899
v -0.004048 0.025717 0.042648
v -0.002508 -0.001992 0.047266
v 0.018531 0.002628 0.034439
v -0.000455 0.029822 0.029306
v 0.002624 0.025717 0.042133
v 0.017503 -0.000963 0.033924
v 0.000058 0.029822 0.034951
v 0.000058 0.022125 0.046240
v -0.001480 -0.000963 0.037004
v 0.008780 0.018018 0.046240
f 714 730 732 
f 697 698 700 
f 700 698 701 
f 701 698 703 
f 700 701 704 
f 703 698 705 
f 700 704 706 
f 707 704 708 
f 704 701 708 
f 702 705 710 
f 700 706 711 
f 706 705 711 
f 705 706 713 
f 701 703 715 
f 699 704 717 
f 704 707 717 
f 710 712 717 
f 717 707 718 
f 710 717 718 
f 704 699 719 
f 706 704 719 
f 699 713 719 
f 713 706 719 
f 707 708 720 
f 716 696 720 
f 708 716 720 
f 696 718 720 
f 718 707 720 
f 705 702 721 
f 703 705 721 
f 697 700 722 
f 700 711 722 
f 714 709 723 
f 715 703 723 
f 709 715 723 
f 698 697 724 
f 705 698 724 
f 711 705 724 
f 710 705 725 
f 712 710 725 
f 699 717 725 
f 717 712 725 
f 708 701 726 
f 701 715 726 
f 716 708 726 
f 709 714 727 
f 696 716 727 
f 718 696 727 
f 713 699 728 
f 705 713 728 
f 725 705 728 
f 699 725 728 
f 715 709 729 
f 726 715 729 
f 716 726 729 
f 709 727 729 
f 727 716 729 
f 703 721 730 
f 723 703 730 
f 714 723 730 
f 697 722 731 
f 722 711 731 
f 724 697 731 
f 711 724 731 
f 702 710 732 
f 710 718 732 
f 721 702 732 
f 727 714 732 
f 718 727 732 
f 730 721 732 
o convex_31
v 0.006214 0.012889 0.051372
v -0.004048 -0.000451 0.047266
v -0.003533 -0.000964 0.047266
v 0.006726 0.015455 0.047266
v -0.004048 0.020587 0.051372
v 0.011347 -0.001992 0.051372
v -0.004048 0.000061 0.051372
v 0.009805 -0.001992 0.047266
v -0.004048 0.019560 0.047266
v -0.000967 0.020072 0.050858
v 0.000060 -0.001992 0.048293
v -0.000967 0.020072 0.047266
v 0.004161 -0.001992 0.051372
f 743 738 745 
f 735 734 736 
f 736 733 738 
f 733 737 738 
f 734 735 739 
f 737 734 739 
f 738 737 739 
f 735 736 740 
f 736 738 740 
f 736 734 741 
f 734 737 741 
f 733 736 742 
f 737 733 742 
f 739 735 743 
f 735 740 743 
f 740 738 743 
f 736 741 744 
f 741 737 744 
f 737 742 744 
f 742 736 744 
f 738 739 745 
f 739 743 745 
o convex_32
v 0.018531 -0.009177 0.065740
v 0.006728 -0.006098 0.051372
v 0.006728 -0.005071 0.051372
v 0.023661 -0.008663 0.053425
v 0.014427 -0.012255 0.051372
v 0.028279 -0.015334 0.065740
v 0.023661 -0.005071 0.065740
v 0.014940 -0.005071 0.051372
v 0.030334 -0.011228 0.063172
v 0.016479 -0.005071 0.065740
v 0.016994 -0.011742 0.060608
v 0.025202 -0.013280 0.057532
v 0.023661 -0.007124 0.053425
v 0.019042 -0.011742 0.051372
v 0.010836 -0.005584 0.059580
v 0.009808 -0.009691 0.052398
v 0.024689 -0.014307 0.065740
v 0.029818 -0.011742 0.065740
v 0.029818 -0.012767 0.062148
v 0.020067 -0.007637 0.051372
v 0.023148 -0.013793 0.057017
v 0.012888 -0.011742 0.052398
v 0.012373 -0.008663 0.058556
f 747 761 768 
f 747 748 750 
f 746 751 752 
f 750 748 753 
f 748 752 753 
f 746 752 755 
f 752 748 755 
f 753 752 758 
f 752 754 758 
f 750 753 759 
f 749 757 759 
f 748 747 760 
f 746 755 760 
f 755 748 760 
f 747 750 761 
f 751 746 762 
f 750 751 762 
f 746 756 762 
f 752 751 763 
f 754 752 763 
f 754 763 764 
f 757 749 764 
f 751 757 764 
f 749 758 764 
f 758 754 764 
f 763 751 764 
f 758 749 765 
f 753 758 765 
f 759 753 765 
f 749 759 765 
f 751 750 766 
f 757 751 766 
f 750 759 766 
f 759 757 766 
f 756 761 767 
f 761 750 767 
f 750 762 767 
f 762 756 767 
f 756 746 768 
f 760 747 768 
f 746 760 768 
f 761 756 768 
o convex_33
v 0.015449 0.001600 0.065740
v 0.006728 -0.005071 0.051372
v 0.006728 -0.005071 0.053425
v 0.023663 -0.005071 0.065225
v 0.009294 0.006732 0.054452
v 0.013914 -0.004557 0.051372
v 0.015963 -0.005071 0.065740
v 0.006728 0.003652 0.057532
v 0.017504 0.002626 0.061635
v 0.006728 0.004678 0.051372
v 0.018017 -0.003018 0.056504
v 0.010322 0.006218 0.059068
v 0.009294 0.000061 0.060608
v 0.018017 0.002113 0.065740
v 0.007242 0.006732 0.055477
v 0.015963 -0.005071 0.053425
v 0.008782 0.003652 0.051372
v 0.008268 0.005192 0.059068
v 0.010322 -0.004044 0.060095
v 0.022123 -0.001991 0.065740
v 0.007242 -0.000965 0.057532
f 787 781 789 
f 771 770 772 
f 771 772 775 
f 770 771 776 
f 774 770 778 
f 770 776 778 
f 777 772 779 
f 773 777 779 
f 777 773 780 
f 775 769 781 
f 769 775 782 
f 780 769 782 
f 777 780 782 
f 773 778 783 
f 778 776 783 
f 780 773 783 
f 772 770 784 
f 770 774 784 
f 774 779 784 
f 779 772 784 
f 774 778 785 
f 778 773 785 
f 773 779 785 
f 779 774 785 
f 769 780 786 
f 781 769 786 
f 776 781 786 
f 783 776 786 
f 780 783 786 
f 771 775 787 
f 775 781 787 
f 775 772 788 
f 772 777 788 
f 782 775 788 
f 777 782 788 
f 776 771 789 
f 781 776 789 
f 771 787 789 
o convex_34
v -0.013798 -0.015334 -0.008156
v -0.001483 -0.009689 -0.005076
v -0.015338 -0.009689 -0.005076
v -0.001483 -0.009689 -0.021498
v -0.001483 -0.017387 -0.005076
v -0.010204 -0.017387 -0.021498
v -0.001483 -0.017387 -0.021498
v -0.007130 -0.009689 -0.021498
v -0.011746 -0.017387 -0.005076
v -0.011746 -0.016872 -0.019443
v -0.015851 -0.010203 -0.005591
v -0.012256 -0.017387 -0.017903
v -0.009691 -0.014307 -0.021498
v -0.015338 -0.012769 -0.005076
f 800 801 803 
f 792 791 793 
f 791 792 794 
f 793 791 794 
f 794 795 796 
f 793 794 796 
f 795 793 796 
f 792 793 797 
f 793 795 797 
f 794 792 798 
f 795 794 798 
f 792 797 800 
f 798 790 801 
f 795 798 801 
f 799 795 801 
f 800 799 801 
f 797 795 802 
f 795 799 802 
f 800 797 802 
f 799 800 802 
f 790 798 803 
f 798 792 803 
f 792 800 803 
f 801 790 803 
o convex_35
v -0.011231 -0.006096 -0.016876
v -0.004050 0.019561 -0.005076
v -0.005590 0.019561 -0.005076
v -0.001483 0.013915 -0.021498
v -0.001483 -0.009689 -0.005076
v -0.013798 -0.002503 -0.005076
v -0.001483 -0.009689 -0.021498
v -0.008666 0.003141 -0.021498
v -0.011745 -0.009689 -0.005076
v -0.011745 0.010834 -0.005591
v -0.001483 0.015455 -0.005076
v -0.007129 -0.009689 -0.021498
v -0.005590 0.014427 -0.015340
v -0.013798 -0.001990 -0.007129
v -0.010719 0.005700 -0.014313
v -0.009691 -0.007121 -0.020470
v -0.005590 0.019561 -0.006103
v -0.009691 -0.008661 -0.018931
v -0.012771 -0.005068 -0.011749
v -0.005075 0.011347 -0.019956
f 818 816 823 
f 805 806 808 
f 808 806 809 
f 807 808 810 
f 807 810 811 
f 808 809 812 
f 810 808 812 
f 809 806 813 
f 807 805 814 
f 808 807 814 
f 805 808 814 
f 811 810 815 
f 810 812 815 
f 809 813 817 
f 817 813 818 
f 811 804 818 
f 813 816 818 
f 804 811 819 
f 811 815 819 
f 806 805 820 
f 805 807 820 
f 813 806 820 
f 807 816 820 
f 816 813 820 
f 815 812 821 
f 804 819 821 
f 819 815 821 
f 812 809 822 
f 809 817 822 
f 817 818 822 
f 818 804 822 
f 804 821 822 
f 821 812 822 
f 807 811 823 
f 816 807 823 
f 811 818 823 
o convex_36
v 0.000570 -0.031755 -0.021498
v 0.002622 0.019048 -0.005076
v 0.001596 0.019048 -0.005076
v -0.000456 0.013916 -0.021498
v -0.001483 -0.018925 -0.005076
v 0.003136 -0.028155 -0.014825
v 0.003136 0.010315 -0.021498
v 0.003136 -0.016871 -0.005076
v -0.001483 0.015447 -0.005076
v -0.001483 -0.029184 -0.021498
v -0.001483 0.014428 -0.020983
v 0.003136 -0.024569 -0.021498
v 0.003136 0.018531 -0.006616
v 0.002622 -0.027643 -0.011749
v 0.001596 0.015960 -0.016876
v -0.000969 -0.030726 -0.020983
v 0.002109 -0.031238 -0.021498
v 0.003136 -0.026623 -0.010722
f 837 829 841 
f 825 826 828 
f 824 827 830 
f 829 830 831 
f 825 828 831 
f 828 826 832 
f 828 832 833 
f 827 824 833 
f 827 833 834 
f 832 826 834 
f 833 832 834 
f 824 830 835 
f 830 829 835 
f 831 830 836 
f 825 831 836 
f 826 825 838 
f 830 827 838 
f 827 834 838 
f 834 826 838 
f 836 830 838 
f 825 836 838 
f 828 833 839 
f 833 824 839 
f 824 837 839 
f 837 828 839 
f 824 835 840 
f 835 829 840 
f 837 824 840 
f 829 837 840 
f 829 831 841 
f 831 828 841 
f 828 837 841 
o convex_37
v 0.006729 -0.032266 -0.018418
v 0.008780 0.013403 -0.005076
v 0.006729 0.013403 -0.005076
v 0.003650 0.009810 -0.021498
v 0.011347 -0.010709 -0.021498
v 0.003136 -0.017900 -0.005076
v 0.011347 -0.017900 -0.005076
v 0.003136 -0.025081 -0.021498
v 0.003136 0.010322 -0.005076
v 0.011347 0.007758 -0.008158
v 0.011347 -0.026109 -0.021498
v 0.003136 -0.027133 -0.010722
v 0.007241 -0.024052 -0.005076
v 0.008268 0.003136 -0.021498
v 0.010833 -0.025081 -0.011749
v 0.005189 -0.033295 -0.021498
v 0.003136 0.009810 -0.021498
v 0.011347 0.009294 -0.005076
v 0.009806 0.012375 -0.005591
v 0.008780 -0.030214 -0.016876
v 0.005702 -0.025081 -0.006103
v 0.006729 -0.033295 -0.021498
f 852 861 863 
f 844 843 845 
f 843 844 847 
f 843 847 848 
f 845 846 849 
f 849 847 850 
f 847 844 850 
f 848 846 851 
f 846 848 852 
f 849 846 852 
f 847 849 853 
f 848 847 854 
f 846 845 855 
f 851 846 855 
f 852 848 856 
f 848 854 856 
f 849 852 857 
f 842 853 857 
f 853 849 857 
f 844 845 858 
f 845 849 858 
f 849 850 858 
f 850 844 858 
f 843 848 859 
f 848 851 859 
f 859 851 860 
f 845 843 860 
f 855 845 860 
f 851 855 860 
f 843 859 860 
f 854 842 861 
f 852 856 861 
f 856 854 861 
f 853 842 862 
f 847 853 862 
f 842 854 862 
f 854 847 862 
f 842 857 863 
f 857 852 863 
f 861 842 863 
o convex_38
v 0.023662 0.004678 0.006212
v 0.022636 -0.008150 0.000569
v 0.023662 -0.008150 0.000569
v 0.021097 0.003652 -0.003022
v 0.020584 0.000060 0.011345
v 0.026228 -0.003530 0.005184
v 0.025201 -0.001477 -0.001996
v 0.020584 -0.006096 -0.004050
v 0.020584 -0.005584 0.007238
v 0.020584 0.005192 0.008265
v 0.026228 0.000060 0.005184
v 0.022123 0.005192 0.000056
v 0.020584 0.005706 0.000569
v 0.021097 0.002113 0.011345
v 0.024688 -0.007636 0.002110
v 0.023662 -0.005070 -0.003022
v 0.026228 -0.004557 0.002621
f 879 870 880 
f 866 865 871 
f 869 868 872 
f 871 865 872 
f 868 871 872 
f 871 868 873 
f 874 870 875 
f 870 867 875 
f 864 874 875 
f 867 871 876 
f 873 864 876 
f 871 873 876 
f 875 867 876 
f 864 875 876 
f 868 869 877 
f 864 873 877 
f 873 868 877 
f 874 864 877 
f 869 874 877 
f 865 866 878 
f 872 865 878 
f 869 872 878 
f 867 870 879 
f 866 871 879 
f 871 867 879 
f 878 866 879 
f 878 879 880 
f 874 869 880 
f 870 874 880 
f 869 878 880 
o convex_39
v 0.020584 -0.005584 0.005188
v 0.014426 0.010322 0.019555
v 0.014426 0.012890 0.011858
v 0.013912 -0.004043 0.004161
v 0.020584 0.005704 0.005188
v 0.013912 -0.003018 0.013909
v 0.020070 0.001089 0.012884
v 0.013912 0.007758 0.004161
v 0.020584 0.007758 0.011858
v 0.016479 0.006731 0.019555
v 0.013912 0.003141 0.019555
v 0.020070 -0.005584 0.008269
v 0.020584 0.004676 0.004161
v 0.013912 0.012890 0.010321
v 0.015966 -0.000966 0.015961
v 0.014939 -0.005070 0.004161
v 0.020070 0.008268 0.008269
v 0.018530 0.009297 0.014935
v 0.014939 0.008268 0.004161
v 0.020584 -0.004043 0.004161
f 896 893 900 
f 884 886 888 
f 881 885 889 
f 887 881 889 
f 887 889 890 
f 888 886 891 
f 890 882 891 
f 881 887 892 
f 885 881 893 
f 884 888 893 
f 882 883 894 
f 891 882 894 
f 888 891 894 
f 887 890 895 
f 891 886 895 
f 890 891 895 
f 886 892 895 
f 892 887 895 
f 886 884 896 
f 881 892 896 
f 892 886 896 
f 884 893 896 
f 883 889 897 
f 889 885 897 
f 894 883 897 
f 883 882 898 
f 889 883 898 
f 890 889 898 
f 882 890 898 
f 885 893 899 
f 893 888 899 
f 888 894 899 
f 897 885 899 
f 894 897 899 
f 893 881 900 
f 881 896 900 
o convex_40
v -0.014825 -0.013278 -0.005076
v -0.004048 0.028285 0.019555
v -0.004048 0.028285 0.018528
v -0.001484 -0.023030 -0.002509
v 0.000057 0.015969 -0.005076
v 0.000057 -0.003531 0.019555
v -0.014825 0.019555 0.019555
v -0.013284 -0.001475 0.018528
v -0.011745 0.011344 -0.005076
v -0.006101 -0.028163 -0.005076
v 0.000057 0.027257 0.019555
v -0.005588 0.020074 -0.005076
v 0.000057 -0.016355 -0.005076
v -0.011231 0.023666 0.012370
v -0.008667 -0.004553 0.019555
v -0.014825 -0.003011 0.013909
v -0.003537 -0.020461 0.005188
v -0.014825 0.002625 -0.000457
v -0.013284 -0.011736 0.007240
v -0.004562 0.022124 -0.000970
v -0.009693 0.026229 0.017501
v -0.014825 0.004166 0.019555
v -0.012258 0.018532 0.005701
v -0.003537 -0.006608 0.018528
v -0.005075 -0.026622 -0.001997
v 0.000057 0.025715 0.013909
v -0.014825 0.018532 0.016477
v -0.005588 0.026229 0.010830
v 0.000057 -0.015333 0.002622
v -0.008667 -0.009167 0.014936
v -0.014825 -0.013278 -0.003022
v -0.014311 -0.000448 -0.004563
v -0.002510 -0.023030 0.001082
v -0.002510 -0.025594 -0.005076
v -0.004048 0.020074 -0.005076
v -0.006101 -0.028163 -0.004563
v -0.014311 0.021096 0.019555
v -0.000970 -0.019439 0.002109
v -0.004048 0.026743 0.012370
v -0.004562 -0.011742 0.013909
f 930 917 940 
f 906 902 907 
f 905 901 909 
f 901 905 910 
f 903 902 911 
f 902 906 911 
f 906 905 911 
f 905 909 912 
f 905 906 913 
f 910 905 913 
f 906 907 915 
f 907 901 916 
f 901 907 918 
f 908 916 919 
f 902 903 921 
f 915 907 922 
f 908 915 922 
f 907 916 922 
f 916 908 922 
f 912 909 923 
f 914 912 923 
f 906 915 924 
f 917 906 924 
f 911 905 926 
f 918 907 927 
f 909 918 927 
f 923 909 927 
f 912 914 928 
f 920 912 928 
f 914 921 928 
f 921 903 928 
f 913 906 929 
f 904 913 929 
f 915 908 930 
f 908 919 930 
f 925 917 930 
f 901 910 931 
f 916 901 931 
f 919 916 931 
f 909 901 932 
f 901 918 932 
f 918 909 932 
f 906 917 933 
f 917 925 933 
f 933 925 934 
f 913 904 934 
f 910 913 934 
f 904 933 934 
f 905 912 935 
f 912 920 935 
f 926 905 935 
f 920 926 935 
f 930 919 936 
f 925 930 936 
f 931 910 936 
f 919 931 936 
f 934 925 936 
f 910 934 936 
f 907 902 937 
f 921 914 937 
f 902 921 937 
f 914 923 937 
f 927 907 937 
f 923 927 937 
f 904 929 938 
f 929 906 938 
f 933 904 938 
f 906 933 938 
f 903 911 939 
f 911 926 939 
f 926 920 939 
f 920 928 939 
f 928 903 939 
f 924 915 940 
f 917 924 940 
f 915 930 940 
