o convex_0
v 0.018825 0.026971 0.029477
v -0.021756 0.050461 0.013814
v -0.021756 0.050461 0.015951
v -0.016056 -0.017157 0.028053
v 0.020959 -0.010040 0.013814
v 0.016686 0.063989 0.013814
v -0.005381 0.047616 0.029477
v -0.018194 -0.011467 0.013814
v 0.021673 -0.013598 0.029477
v -0.019618 0.023420 0.029477
v -0.021042 0.061144 0.019511
v 0.015972 0.062571 0.020223
v -0.017480 -0.014312 0.029477
v -0.017480 0.063276 0.013814
v 0.004583 0.047616 0.029477
v -0.010363 -0.013590 0.013814
v 0.018110 -0.015025 0.027340
v -0.021042 0.054741 0.022357
v 0.017400 0.059012 0.017376
v 0.008856 0.064711 0.017376
v -0.002529 0.049042 0.029477
v -0.013207 0.061857 0.020223
v 0.018825 -0.011459 0.013814
v 0.017400 0.044057 0.025916
v -0.006805 -0.017157 0.029477
v 0.020959 0.002062 0.028053
v -0.021756 0.061857 0.013814
v 0.020959 -0.006482 0.013814
v 0.019534 0.024831 0.029477
v -0.021756 0.057586 0.020934
v -0.018194 0.027676 0.029477
v -0.016056 -0.013590 0.013814
v 0.017400 0.059012 0.014528
v -0.018904 0.060431 0.020934
v -0.019618 0.014172 0.019511
v -0.014631 0.063276 0.017376
v 0.001739 0.064711 0.013814
v 0.006722 0.061857 0.020934
v 0.017400 0.058291 0.020223
v -0.011787 -0.017157 0.027340
v 0.018825 -0.012885 0.018798
v 0.015972 0.064711 0.017376
v -0.021042 0.041918 0.023068
v -0.018194 -0.012172 0.015238
v 0.019534 -0.015025 0.029477
v 0.016686 0.058299 0.021646
v -0.019618 0.041918 0.025916
v 0.006722 0.063989 0.018798
f 42 20 48 
f 5 2 6 
f 2 5 8 
f 1 7 9 
f 9 7 10 
f 9 10 13 
f 6 2 14 
f 7 1 15 
f 8 5 16 
f 7 15 21 
f 15 12 21 
f 16 5 23 
f 15 1 24 
f 13 4 25 
f 9 13 25 
f 2 3 27 
f 14 2 27 
f 11 14 27 
f 5 6 28 
f 9 5 28 
f 26 9 28 
f 1 9 29 
f 24 1 29 
f 9 26 29 
f 26 19 29 
f 10 18 30 
f 27 3 30 
f 11 27 30 
f 10 7 31 
f 8 16 32 
f 6 19 33 
f 19 26 33 
f 28 6 33 
f 26 28 33 
f 18 7 34 
f 7 21 34 
f 22 11 34 
f 21 22 34 
f 11 30 34 
f 30 18 34 
f 14 11 36 
f 11 22 36 
f 6 14 37 
f 14 36 37 
f 36 20 37 
f 21 12 38 
f 22 21 38 
f 19 6 39 
f 29 19 39 
f 25 4 40 
f 17 25 40 
f 4 32 40 
f 32 16 40 
f 5 9 41 
f 23 5 41 
f 16 23 41 
f 40 16 41 
f 17 40 41 
f 6 37 42 
f 37 20 42 
f 39 6 42 
f 12 39 42 
f 13 10 43 
f 30 3 43 
f 10 30 43 
f 3 35 43 
f 35 13 43 
f 3 2 44 
f 2 8 44 
f 4 13 44 
f 32 4 44 
f 8 32 44 
f 35 3 44 
f 13 35 44 
f 9 25 45 
f 25 17 45 
f 41 9 45 
f 17 41 45 
f 12 15 46 
f 15 24 46 
f 24 29 46 
f 39 12 46 
f 29 39 46 
f 7 18 47 
f 18 10 47 
f 31 7 47 
f 10 31 47 
f 20 36 48 
f 36 22 48 
f 38 12 48 
f 22 38 48 
f 12 42 48 
o convex_1
v 0.033064 0.063286 0.001710
v 0.024521 0.029113 -0.016798
v 0.025235 0.029113 -0.016798
v 0.030928 0.056165 -0.028189
v 0.018827 0.063995 -0.006121
v 0.036622 0.036238 0.003844
v 0.020963 0.041217 0.006693
v 0.036622 0.038372 -0.026055
v 0.020251 0.046912 -0.028900
v 0.035200 0.063286 -0.018935
v 0.018827 0.032673 -0.006121
v 0.019539 0.061147 -0.023203
v 0.022387 0.053317 0.008115
v 0.035910 0.029829 -0.004699
v 0.035200 0.049043 0.008830
v 0.023811 0.030538 -0.001139
v 0.021675 0.036238 -0.026055
v 0.030214 0.066846 -0.011811
v 0.037336 0.030538 -0.016086
v 0.035200 0.044777 -0.029615
v 0.018827 0.061147 0.000995
v 0.018827 0.032673 -0.017505
v 0.035200 0.064708 -0.005410
v 0.033774 0.063995 -0.021780
v 0.037336 0.038372 -0.003276
v 0.025235 0.041217 0.008115
v 0.036622 0.046916 -0.026767
v 0.020963 0.065421 -0.015375
v 0.018827 0.047625 0.005270
v 0.025947 0.033386 -0.024629
v 0.028080 0.066134 -0.003276
v 0.035200 0.055452 0.006693
v 0.018827 0.059721 -0.021780
v 0.021675 0.053317 -0.028900
v 0.035200 0.057587 -0.026767
v 0.023811 0.032673 0.002421
v 0.025235 0.060438 0.004555
v 0.034486 0.036238 0.005270
v 0.035910 0.031964 -0.021069
v 0.036622 0.045494 0.005981
v 0.022387 0.039082 -0.028189
v 0.033774 0.054742 0.008115
v 0.025235 0.029113 -0.005410
v 0.035910 0.029113 -0.012526
v 0.033064 0.066846 -0.006836
v 0.034486 0.039794 -0.028189
v 0.020251 0.063995 -0.001139
v 0.023099 0.044777 0.008830
v 0.035200 0.042642 0.008115
v 0.023099 0.031255 -0.021780
v 0.035200 0.031964 0.000284
v 0.033774 0.051182 -0.029615
v 0.023099 0.044777 -0.029615
v 0.023811 0.066134 -0.006121
v 0.022387 0.059012 -0.026055
v 0.033774 0.066134 -0.016086
v 0.019539 0.053317 -0.027478
v 0.037336 0.032677 -0.002561
v 0.023099 0.029113 -0.015375
v 0.020251 0.051891 0.007404
v 0.029504 0.065421 -0.018935
v 0.021675 0.059012 0.005270
v 0.037336 0.038372 -0.018224
v 0.023811 0.036947 0.005981
f 74 96 112 
f 53 59 69 
f 59 53 70 
f 57 65 70 
f 56 68 75 
f 58 71 75 
f 60 53 76 
f 59 55 77 
f 69 59 77 
f 71 49 80 
f 53 60 81 
f 70 53 81 
f 52 72 83 
f 72 58 83 
f 75 68 83 
f 58 75 83 
f 55 59 84 
f 59 64 84 
f 56 67 87 
f 73 71 88 
f 80 63 88 
f 71 80 88 
f 65 57 89 
f 78 65 89 
f 61 63 90 
f 80 49 90 
f 63 80 90 
f 49 85 90 
f 50 51 91 
f 64 59 91 
f 62 64 91 
f 67 62 92 
f 51 87 92 
f 87 67 92 
f 91 51 92 
f 62 91 92 
f 49 71 93 
f 79 49 93 
f 68 56 94 
f 56 87 94 
f 87 78 94 
f 89 68 94 
f 78 89 94 
f 53 69 95 
f 49 79 95 
f 85 49 95 
f 63 61 96 
f 86 54 97 
f 74 86 97 
f 54 88 97 
f 88 63 97 
f 63 96 97 
f 96 74 97 
f 51 50 98 
f 70 65 98 
f 65 78 98 
f 87 51 98 
f 78 87 98 
f 64 62 99 
f 84 64 99 
f 54 86 99 
f 86 84 99 
f 82 52 100 
f 52 83 100 
f 83 68 100 
f 57 82 101 
f 89 57 101 
f 68 89 101 
f 100 68 101 
f 82 100 101 
f 76 53 102 
f 66 76 102 
f 93 66 102 
f 79 93 102 
f 53 95 102 
f 95 79 102 
f 72 52 103 
f 60 72 103 
f 82 60 103 
f 52 82 103 
f 71 58 104 
f 58 72 104 
f 93 71 104 
f 66 93 104 
f 57 70 105 
f 81 60 105 
f 70 81 105 
f 82 57 105 
f 60 82 105 
f 62 67 106 
f 67 73 106 
f 88 54 106 
f 73 88 106 
f 54 99 106 
f 99 62 106 
f 59 70 107 
f 50 91 107 
f 91 59 107 
f 98 50 107 
f 70 98 107 
f 77 55 108 
f 69 77 108 
f 96 61 108 
f 55 96 108 
f 72 60 109 
f 60 76 109 
f 76 66 109 
f 104 72 109 
f 66 104 109 
f 61 90 110 
f 90 85 110 
f 95 69 110 
f 85 95 110 
f 108 61 110 
f 69 108 110 
f 67 56 111 
f 73 67 111 
f 71 73 111 
f 56 75 111 
f 75 71 111 
f 55 84 112 
f 86 74 112 
f 84 86 112 
f 96 55 112 
o convex_2
v 0.021673 -0.007191 0.035175
v -0.018908 0.009883 0.029477
v -0.018908 0.009883 0.030902
v 0.018110 0.026977 0.029477
v -0.017482 0.015576 0.047987
v -0.015345 -0.022148 0.044425
v 0.019532 0.016293 0.047987
v -0.004671 -0.017163 0.029477
v 0.019532 -0.017870 0.045851
v -0.018193 0.025547 0.029477
v 0.020247 -0.015021 0.029477
v -0.016771 -0.016450 0.029477
v 0.016688 0.020562 0.045851
v -0.016771 0.009883 0.048700
v 0.010992 -0.021436 0.043002
v -0.016056 -0.018587 0.045851
v 0.021673 -0.018587 0.044427
v -0.018908 0.014869 0.045138
v -0.013923 0.019142 0.045138
v 0.020247 0.019849 0.043002
v 0.019532 0.024128 0.029477
v -0.016771 -0.020011 0.044425
v -0.011075 0.026260 0.030190
v -0.013208 -0.022860 0.043002
v 0.018825 0.008459 0.047987
v -0.008938 -0.021436 0.045851
v 0.021673 -0.013601 0.029477
v 0.021673 -0.005767 0.045138
v -0.017482 -0.014314 0.033752
v 0.020958 -0.019299 0.041578
v 0.007432 0.026972 0.030190
v -0.018908 0.024835 0.030190
v -0.018193 0.005610 0.047276
v 0.010992 0.017713 0.047987
v -0.014634 -0.017875 0.030190
v -0.009649 -0.015026 0.046562
v 0.009569 -0.021436 0.044427
v -0.018193 0.018430 0.044425
v 0.015977 -0.015738 0.029477
v -0.010360 0.017718 0.047276
v 0.018825 0.020562 0.045851
v 0.020958 -0.005054 0.046562
v 0.015977 0.021279 0.044427
v 0.020958 0.009176 0.045851
v 0.020958 0.002765 0.029477
v -0.011786 0.010595 0.048700
v -0.017482 -0.014314 0.029477
v 0.018825 -0.020007 0.041578
v -0.017482 -0.010752 0.044425
v 0.018110 0.026977 0.030190
f 155 153 162 
f 114 116 120 
f 116 114 122 
f 120 116 123 
f 114 120 124 
f 114 115 130 
f 123 116 133 
f 124 118 134 
f 118 128 134 
f 116 122 135 
f 122 131 135 
f 120 127 136 
f 128 118 138 
f 118 136 138 
f 113 129 139 
f 123 133 139 
f 129 113 140 
f 115 114 141 
f 139 129 142 
f 123 139 142 
f 116 135 143 
f 122 114 144 
f 114 130 144 
f 126 117 145 
f 128 126 145 
f 117 130 145 
f 134 128 145 
f 118 124 147 
f 124 120 147 
f 136 118 147 
f 120 136 147 
f 126 128 148 
f 138 121 148 
f 128 138 148 
f 129 121 149 
f 136 127 149 
f 121 138 149 
f 138 136 149 
f 130 117 150 
f 117 131 150 
f 131 122 150 
f 122 144 150 
f 144 130 150 
f 120 123 151 
f 127 120 151 
f 131 117 152 
f 125 131 152 
f 146 125 152 
f 117 146 152 
f 119 132 153 
f 146 119 153 
f 125 146 153 
f 121 129 154 
f 119 137 154 
f 137 121 154 
f 129 140 154 
f 131 125 155 
f 135 131 155 
f 143 135 155 
f 125 153 155 
f 132 119 156 
f 140 113 156 
f 119 154 156 
f 154 140 156 
f 133 132 157 
f 113 139 157 
f 139 133 157 
f 156 113 157 
f 132 156 157 
f 117 126 158 
f 137 119 158 
f 121 137 158 
f 119 146 158 
f 146 117 158 
f 148 121 158 
f 126 148 158 
f 114 124 159 
f 124 134 159 
f 141 114 159 
f 134 141 159 
f 123 142 160 
f 142 129 160 
f 129 149 160 
f 149 127 160 
f 151 123 160 
f 127 151 160 
f 130 115 161 
f 115 141 161 
f 141 134 161 
f 145 130 161 
f 134 145 161 
f 133 116 162 
f 132 133 162 
f 116 143 162 
f 153 132 162 
f 143 155 162 
o convex_3
v -0.000396 0.049047 0.033042
v -0.001109 0.033384 0.047983
v -0.001821 0.034809 0.033754
v 0.006722 0.040504 0.036598
v -0.003957 0.045487 0.056532
v 0.006010 0.044063 0.055817
v -0.006805 0.039080 0.029477
v -0.005380 0.035522 0.055104
v 0.005297 0.035522 0.055817
v 0.004585 0.036944 0.029477
v 0.005297 0.046910 0.029477
v -0.006805 0.045487 0.029477
v -0.006805 0.040504 0.055104
v 0.001738 0.046910 0.055817
v -0.003957 0.048334 0.029477
v 0.001738 0.033384 0.054392
v 0.006722 0.037657 0.054392
v -0.003245 0.035522 0.030192
v -0.004668 0.046199 0.051548
v -0.003245 0.036233 0.056532
v 0.003874 0.034097 0.049410
v 0.006722 0.043352 0.043714
v 0.003162 0.048334 0.033042
v 0.001026 0.035522 0.029477
v 0.006010 0.039080 0.029477
v -0.006805 0.043352 0.050835
v 0.005297 0.044063 0.056532
v -0.002532 0.033384 0.054392
v 0.004585 0.046199 0.051548
v -0.003245 0.047623 0.045139
v -0.004668 0.035522 0.039448
v -0.006093 0.046910 0.030905
v -0.006805 0.038369 0.054392
v 0.006010 0.036944 0.043714
v 0.001026 0.049047 0.029477
v 0.006010 0.045487 0.029477
f 187 173 198 
f 172 169 173 
f 173 169 174 
f 174 169 175 
f 173 174 177 
f 168 171 179 
f 165 164 180 
f 167 176 181 
f 167 175 182 
f 175 170 182 
f 178 171 182 
f 178 164 183 
f 171 178 183 
f 173 168 184 
f 179 166 184 
f 168 179 184 
f 164 165 186 
f 169 172 186 
f 165 180 186 
f 180 169 186 
f 183 164 186 
f 172 183 186 
f 172 173 187 
f 166 179 187 
f 175 167 188 
f 174 175 188 
f 167 181 188 
f 171 168 189 
f 176 167 189 
f 168 176 189 
f 167 182 189 
f 182 171 189 
f 164 178 190 
f 180 164 190 
f 182 170 190 
f 178 182 190 
f 168 173 191 
f 176 168 191 
f 173 185 191 
f 185 176 191 
f 176 163 192 
f 163 177 192 
f 181 176 192 
f 170 169 193 
f 169 180 193 
f 180 190 193 
f 190 170 193 
f 177 174 194 
f 174 188 194 
f 188 181 194 
f 192 177 194 
f 181 192 194 
f 169 170 195 
f 170 175 195 
f 175 169 195 
f 179 171 196 
f 183 172 196 
f 171 183 196 
f 172 187 196 
f 187 179 196 
f 163 176 197 
f 177 163 197 
f 173 177 197 
f 185 173 197 
f 176 185 197 
f 184 166 198 
f 173 184 198 
f 166 187 198 
o convex_4
v -0.042402 -0.054187 -0.014664
v -0.040268 -0.036389 0.001711
v -0.038132 -0.019306 0.000285
v -0.047386 -0.018592 -0.021071
v -0.035285 -0.018592 -0.021784
v -0.035285 -0.052047 -0.002562
v -0.045250 -0.044926 0.001711
v -0.047386 -0.018592 -0.000426
v -0.035285 -0.047061 -0.018935
v -0.045250 -0.047776 -0.018935
v -0.035285 -0.018592 -0.000426
v -0.045250 -0.052758 -0.008261
v -0.036708 -0.047776 0.001711
v -0.043114 -0.053469 -0.002562
v -0.043826 -0.035679 -0.021071
v -0.035997 -0.054187 -0.011101
v -0.047386 -0.024289 -0.020358
v -0.040268 -0.048487 -0.019647
v -0.046674 -0.032832 -0.001849
v -0.046674 -0.021442 -0.021784
v -0.035285 -0.052047 -0.015374
v -0.035285 -0.047776 0.000998
v -0.046674 -0.020728 0.000285
v -0.044538 -0.049197 0.000998
v -0.035285 -0.022153 -0.021784
v -0.045962 -0.044926 -0.016087
v -0.036708 -0.054187 -0.005409
v -0.040268 -0.052047 -0.000426
v -0.044538 -0.052047 -0.016796
v -0.036708 -0.039943 0.001711
v -0.039556 -0.052047 -0.017509
v -0.043826 -0.054187 -0.006122
v -0.045250 -0.049912 -0.001139
v -0.037420 -0.040654 -0.020358
v -0.047386 -0.022864 -0.002562
f 224 217 233 
f 203 202 206 
f 203 204 207 
f 204 203 209 
f 206 201 209 
f 203 206 209 
f 200 205 211 
f 206 202 215 
f 208 213 216 
f 205 206 217 
f 202 203 218 
f 213 208 218 
f 215 202 218 
f 208 215 218 
f 207 204 219 
f 214 199 219 
f 204 214 219 
f 204 209 220 
f 211 204 220 
f 200 201 221 
f 205 200 221 
f 206 205 221 
f 201 206 221 
f 211 205 222 
f 203 207 223 
f 218 203 223 
f 213 218 223 
f 208 210 224 
f 215 208 224 
f 210 217 224 
f 199 214 225 
f 214 204 225 
f 204 211 226 
f 211 222 226 
f 222 212 226 
f 212 225 226 
f 225 204 226 
f 199 210 227 
f 210 208 227 
f 208 216 227 
f 201 200 228 
f 209 201 228 
f 200 211 228 
f 220 209 228 
f 211 220 228 
f 216 207 229 
f 207 219 229 
f 219 199 229 
f 199 227 229 
f 227 216 229 
f 210 199 230 
f 199 225 230 
f 225 212 230 
f 205 217 231 
f 217 210 231 
f 222 205 231 
f 212 222 231 
f 210 230 231 
f 230 212 231 
f 207 216 232 
f 216 213 232 
f 223 207 232 
f 213 223 232 
f 206 215 233 
f 217 206 233 
f 215 224 233 
o convex_5
v -0.027447 -0.064866 -0.011812
v 0.047297 -0.018589 -0.008258
v 0.047297 -0.018589 -0.019647
v -0.035283 -0.018589 -0.000432
v 0.035907 -0.047064 0.012390
v -0.032430 -0.039236 -0.028901
v 0.036623 -0.054185 -0.023919
v -0.033145 -0.049202 0.013096
v 0.034485 -0.027137 0.010252
v 0.038753 -0.059167 -0.000427
v -0.035283 -0.018589 -0.021781
v 0.035907 -0.037102 -0.029615
v -0.032430 -0.054180 -0.026763
v -0.031007 -0.062017 0.003845
v 0.048728 -0.047775 -0.011812
v -0.027447 -0.037107 0.013096
v 0.045874 -0.018589 0.000997
v -0.035283 -0.053473 -0.011812
v 0.037330 -0.059879 -0.013950
v 0.048012 -0.042081 0.001707
v 0.035907 -0.037818 0.013814
v -0.031723 -0.063439 -0.016794
v 0.037330 -0.044214 -0.028901
v 0.024518 -0.054180 0.008823
v 0.035907 -0.031408 -0.028191
v -0.033145 -0.030693 0.009537
v -0.033853 -0.045641 -0.028901
v -0.010358 -0.064150 -0.006128
v 0.048728 -0.042081 -0.017508
v -0.026024 -0.053473 0.011676
v 0.045874 -0.018589 -0.021066
v -0.016764 -0.059879 -0.021781
v 0.038045 -0.055602 0.005979
v -0.031723 -0.064150 -0.001141
v 0.029501 -0.023576 0.007403
v -0.034568 -0.034964 0.010962
v -0.016764 -0.051335 -0.028191
v 0.036623 -0.057741 -0.019647
v 0.030924 -0.061306 -0.007552
v -0.009651 -0.044214 -0.029615
v -0.035283 -0.051331 -0.001851
v 0.023802 -0.031408 0.012390
v 0.035200 -0.059879 -0.000427
v -0.001822 -0.035680 -0.028901
v 0.035200 -0.050624 -0.026767
v -0.031007 -0.057741 -0.024629
v -0.028162 -0.041374 0.013814
v -0.026024 -0.059163 0.007403
v 0.048012 -0.047064 -0.002566
v -0.030292 -0.032124 0.010962
v -0.033145 -0.058452 0.006689
v 0.035907 -0.057741 0.003845
v -0.016057 -0.063439 -0.000427
v -0.002529 -0.043503 0.013814
v 0.000316 -0.062723 -0.013950
v 0.037330 -0.037102 0.013100
v 0.038045 -0.047064 0.011676
v 0.047297 -0.033542 0.002421
v 0.048728 -0.036387 -0.014660
v -0.003245 -0.018589 -0.021781
v -0.033145 -0.061306 -0.016794
v 0.038753 -0.059879 -0.011816
v 0.030217 -0.045641 0.013100
v -0.021756 -0.028564 0.008827
f 283 242 297 
f 235 236 237 
f 237 236 244 
f 235 237 250 
f 237 244 251 
f 244 239 260 
f 251 244 260 
f 248 240 262 
f 256 236 262 
f 240 256 262 
f 257 238 263 
f 244 236 264 
f 236 256 264 
f 256 245 264 
f 245 258 264 
f 238 257 266 
f 255 234 267 
f 234 261 267 
f 250 237 268 
f 242 250 268 
f 259 237 269 
f 246 260 270 
f 240 248 271 
f 265 240 271 
f 255 265 271 
f 261 234 272 
f 239 245 273 
f 245 256 273 
f 260 239 273 
f 256 270 273 
f 270 260 273 
f 237 251 274 
f 241 269 274 
f 269 237 274 
f 249 254 275 
f 254 242 275 
f 272 243 276 
f 261 272 276 
f 239 244 277 
f 245 239 277 
f 244 258 277 
f 258 245 277 
f 256 240 278 
f 270 256 278 
f 270 278 279 
f 255 246 279 
f 240 265 279 
f 265 255 279 
f 246 270 279 
f 278 240 279 
f 254 249 280 
f 269 241 280 
f 249 269 280 
f 257 263 281 
f 243 248 282 
f 248 253 282 
f 266 243 282 
f 253 266 282 
f 237 259 283 
f 269 249 283 
f 259 269 283 
f 249 275 283 
f 275 242 283 
f 263 241 284 
f 267 247 284 
f 274 251 284 
f 241 274 284 
f 247 281 284 
f 281 263 284 
f 243 266 285 
f 266 257 285 
f 276 243 285 
f 281 247 285 
f 257 281 285 
f 247 267 286 
f 267 261 286 
f 261 276 286 
f 276 285 286 
f 285 247 286 
f 280 241 287 
f 254 280 287 
f 234 255 288 
f 271 252 288 
f 255 271 288 
f 272 234 288 
f 252 272 288 
f 250 242 289 
f 242 254 289 
f 289 254 290 
f 254 238 290 
f 238 266 290 
f 266 253 290 
f 253 289 290 
f 235 250 291 
f 253 235 291 
f 250 289 291 
f 289 253 291 
f 236 235 292 
f 235 253 292 
f 253 248 292 
f 262 236 292 
f 248 262 292 
f 258 244 293 
f 244 264 293 
f 264 258 293 
f 246 255 294 
f 251 260 294 
f 260 246 294 
f 255 267 294 
f 267 284 294 
f 284 251 294 
f 248 243 295 
f 271 248 295 
f 252 271 295 
f 272 252 295 
f 243 272 295 
f 238 254 296 
f 263 238 296 
f 241 263 296 
f 287 241 296 
f 254 287 296 
f 268 237 297 
f 242 268 297 
f 237 283 297 
o convex_6
v -0.008938 -0.010044 0.001711
v 0.018823 0.021993 0.013814
v 0.019534 0.019857 0.013814
v -0.018190 -0.011465 0.013814
v -0.019617 0.021993 0.000999
v 0.019534 -0.006483 0.000999
v -0.019617 0.021993 0.013814
v 0.020961 -0.010044 0.013814
v 0.018112 0.021993 0.000999
v -0.018190 -0.007197 0.000999
v -0.014633 -0.013605 0.013101
v 0.018112 -0.010044 0.008116
v 0.020246 -0.001500 0.000999
v -0.019617 0.001347 0.008829
v -0.015344 -0.010044 0.000999
v -0.020332 0.021275 0.011678
v 0.016685 -0.007908 0.000999
v 0.019534 0.017003 0.003848
v 0.017396 -0.011465 0.013814
v -0.019617 0.009888 0.002424
v 0.020246 0.005616 0.005271
v 0.018823 0.021993 0.001711
v -0.017483 -0.012176 0.010964
v -0.019617 0.009888 0.013814
v -0.020332 0.021993 0.007406
f 317 311 322 
f 300 299 301 
f 301 299 304 
f 299 302 304 
f 300 301 305 
f 302 299 306 
f 303 302 306 
f 302 303 307 
f 303 305 309 
f 308 298 309 
f 305 303 310 
f 303 306 310 
f 307 301 311 
f 307 303 312 
f 298 308 312 
f 309 298 314 
f 303 309 314 
f 298 312 314 
f 312 303 314 
f 305 301 316 
f 301 308 316 
f 309 305 316 
f 308 309 316 
f 302 307 317 
f 307 311 317 
f 300 305 318 
f 305 310 318 
f 315 300 318 
f 310 315 318 
f 299 300 319 
f 306 299 319 
f 310 306 319 
f 300 315 319 
f 315 310 319 
f 301 307 320 
f 308 301 320 
f 307 312 320 
f 312 308 320 
f 301 304 321 
f 311 301 321 
f 304 313 321 
f 313 311 321 
f 304 302 322 
f 313 304 322 
f 311 313 322 
f 302 317 322 
o convex_7
v -0.035994 0.034097 -0.028189
v -0.028166 0.046192 0.008830
v -0.026741 0.049045 0.008115
v -0.041691 0.059014 -0.010393
v -0.026030 0.056873 -0.023203
v -0.022470 0.025554 -0.015375
v -0.038131 0.025554 -0.000427
v -0.022470 0.057588 -0.006125
v -0.039554 0.052605 0.005981
v -0.022470 0.035523 0.004555
v -0.040976 0.049756 -0.026055
v -0.025317 0.049045 -0.028189
v -0.038131 0.025554 -0.019647
v -0.029590 0.061863 -0.006121
v -0.038842 0.036946 0.008115
v -0.026030 0.033386 -0.027478
v -0.026741 0.027692 0.002421
v -0.038842 0.059014 -0.019647
v -0.040265 0.035523 -0.025340
v -0.040265 0.041221 0.005981
v -0.028877 0.023417 -0.006836
v -0.022470 0.032675 -0.021780
v -0.027453 0.058299 0.001710
v -0.038131 0.061148 -0.004699
v -0.038131 0.042640 -0.029615
v -0.026741 0.036235 0.008115
v -0.022470 0.046196 0.005270
v -0.028166 0.061148 -0.015375
v -0.022470 0.054028 -0.015375
v -0.039554 0.051894 -0.026767
v -0.038842 0.024843 -0.008974
v -0.022470 0.026266 -0.005410
v -0.033858 0.024843 -0.019647
v -0.041691 0.050471 -0.020358
v -0.037416 0.031252 0.005981
v -0.038842 0.045481 0.008830
v -0.027453 0.041221 -0.029615
v -0.036705 0.023417 -0.015375
v -0.041691 0.056161 -0.003987
v -0.025317 0.029118 -0.023914
v -0.038131 0.029830 -0.025340
v -0.028166 0.051182 -0.028189
v -0.040265 0.060436 -0.013949
v -0.039554 0.057588 0.000995
v -0.029590 0.057588 -0.023203
v -0.026741 0.023417 -0.012526
v -0.035282 0.023417 -0.004699
v -0.040976 0.056873 -0.021069
v -0.026741 0.053316 0.005981
v -0.040976 0.051182 0.004555
v -0.027453 0.024843 -0.001850
v -0.026741 0.061148 -0.005410
v -0.032435 0.061863 -0.011811
v -0.024606 0.049756 -0.026763
v -0.023893 0.034812 -0.026055
v -0.025317 0.030541 0.004555
v -0.037416 0.038372 0.008830
v -0.039554 0.037661 -0.028189
v -0.023181 0.056876 -0.002565
v -0.022470 0.057588 -0.009685
v -0.039554 0.029118 -0.017505
v -0.025317 0.039799 0.008115
v -0.023181 0.026981 -0.019647
v -0.037416 0.026977 0.002421
f 369 373 386 
f 328 330 332 
f 329 337 342 
f 330 328 344 
f 345 336 346 
f 332 330 349 
f 330 344 351 
f 347 333 352 
f 329 342 353 
f 328 332 354 
f 333 341 356 
f 324 325 358 
f 325 331 358 
f 342 337 358 
f 338 323 359 
f 323 347 359 
f 353 335 360 
f 335 355 360 
f 326 356 361 
f 356 342 361 
f 362 355 363 
f 323 338 363 
f 335 341 363 
f 355 335 363 
f 338 362 363 
f 327 334 364 
f 347 352 364 
f 334 359 364 
f 359 347 364 
f 326 346 365 
f 331 345 366 
f 345 346 366 
f 346 326 366 
f 326 361 366 
f 350 327 367 
f 340 350 367 
f 352 340 367 
f 327 364 367 
f 364 352 367 
f 328 354 368 
f 354 343 368 
f 343 360 368 
f 360 355 368 
f 329 353 369 
f 360 343 369 
f 353 360 369 
f 340 352 370 
f 352 333 370 
f 356 326 370 
f 333 356 370 
f 326 365 370 
f 365 340 370 
f 331 325 371 
f 345 331 371 
f 325 349 371 
f 358 331 372 
f 342 358 372 
f 361 342 372 
f 331 366 372 
f 366 361 372 
f 354 339 373 
f 343 354 373 
f 369 343 373 
f 336 345 374 
f 350 336 374 
f 346 336 375 
f 336 350 375 
f 350 340 375 
f 340 365 375 
f 365 346 375 
f 334 327 376 
f 327 351 376 
f 351 344 376 
f 338 359 377 
f 359 334 377 
f 362 338 377 
f 334 376 377 
f 376 344 377 
f 332 348 378 
f 354 332 378 
f 339 354 378 
f 357 339 378 
f 348 357 378 
f 348 324 379 
f 337 357 379 
f 357 348 379 
f 324 358 379 
f 358 337 379 
f 341 333 380 
f 333 347 380 
f 347 323 380 
f 323 363 380 
f 363 341 380 
f 349 330 381 
f 345 371 381 
f 371 349 381 
f 330 374 381 
f 374 345 381 
f 327 350 382 
f 351 327 382 
f 330 351 382 
f 374 330 382 
f 350 374 382 
f 341 335 383 
f 335 353 383 
f 353 342 383 
f 356 341 383 
f 342 356 383 
f 325 324 384 
f 324 348 384 
f 348 332 384 
f 332 349 384 
f 349 325 384 
f 344 328 385 
f 355 362 385 
f 328 368 385 
f 368 355 385 
f 362 377 385 
f 377 344 385 
f 337 329 386 
f 357 337 386 
f 339 357 386 
f 329 369 386 
f 373 339 386 
o convex_8
v 0.004585 0.063284 -0.010386
v -0.022468 0.025560 -0.013236
v -0.022468 0.025560 -0.010386
v 0.018825 0.021993 0.013814
v -0.021753 0.061856 0.013814
v 0.017399 0.026984 -0.021066
v 0.016687 0.063998 0.013814
v -0.021041 0.051891 -0.018219
v -0.019619 0.021993 0.013814
v 0.018825 0.062570 -0.012526
v -0.007517 0.021993 -0.020355
v 0.012415 0.050467 -0.020355
v -0.022468 0.032676 -0.021066
v -0.021041 0.062570 -0.005403
v 0.005297 0.065422 0.001709
v 0.011703 0.021993 -0.016794
v -0.019619 0.056878 -0.016083
v -0.017480 0.021993 -0.018930
v 0.018825 0.040507 -0.018934
v -0.022468 0.060436 -0.007539
v -0.022468 0.036239 0.004556
v -0.011078 0.063994 0.013096
v 0.018825 0.056164 0.003841
v -0.016769 0.026980 -0.021784
v 0.014553 0.065422 -0.003985
v -0.015346 0.047619 -0.020355
v 0.006723 0.054735 -0.018930
v 0.018825 0.021993 0.000994
v 0.015260 0.031252 -0.021784
v 0.015260 0.065422 0.012389
v -0.020330 0.021993 0.012389
v -0.014635 0.063994 0.000998
v -0.009651 0.061146 -0.012526
v 0.013126 0.026265 -0.021784
v 0.009565 0.058298 -0.016794
v 0.018825 0.063998 -0.009675
v -0.020330 0.023421 -0.018930
v -0.022468 0.061856 0.005270
v 0.018110 0.026265 -0.018930
v -0.020330 0.063284 0.009542
v 0.014553 0.051887 -0.019648
v -0.013212 0.053315 -0.018930
v -0.022468 0.052601 -0.016794
v -0.016058 0.029828 -0.021784
v -0.021753 0.050467 0.013814
v 0.018110 0.044771 0.013814
v 0.003874 0.021993 -0.020355
v -0.008228 0.063994 -0.004692
v -0.019619 0.061146 -0.010386
v -0.016769 0.023421 -0.021066
v 0.000313 0.064708 0.013814
v 0.018825 0.049753 -0.017508
v 0.016687 0.043359 -0.020355
v 0.003162 0.050467 -0.020355
v 0.018825 0.033390 -0.018934
v 0.006008 0.065422 0.009542
v 0.018825 0.062570 -0.001138
v 0.015976 0.024841 -0.019648
v -0.022468 0.026980 -0.004692
v -0.020330 0.044061 -0.020355
v -0.006805 0.064708 0.004556
v -0.011078 0.056164 -0.017508
v -0.005382 0.059726 -0.014658
v -0.022468 0.030542 -0.021066
f 436 423 450 
f 391 390 393 
f 390 391 395 
f 390 395 397 
f 388 389 399 
f 390 397 402 
f 397 395 404 
f 396 390 405 
f 399 389 406 
f 406 389 407 
f 390 396 409 
f 390 402 414 
f 405 390 414 
f 411 401 416 
f 389 388 417 
f 404 395 417 
f 387 396 419 
f 415 392 420 
f 410 415 420 
f 396 387 422 
f 409 396 422 
f 387 411 422 
f 416 393 422 
f 411 416 422 
f 417 388 423 
f 404 417 423 
f 400 406 424 
f 406 407 424 
f 391 408 426 
f 418 400 426 
f 424 391 426 
f 400 424 426 
f 398 413 427 
f 421 396 427 
f 413 421 427 
f 394 403 428 
f 412 394 428 
f 394 399 429 
f 403 394 429 
f 399 406 429 
f 406 403 429 
f 410 399 430 
f 415 410 430 
f 395 391 431 
f 417 395 431 
f 407 417 431 
f 391 424 431 
f 424 407 431 
f 393 390 432 
f 390 409 432 
f 409 393 432 
f 402 397 433 
f 411 387 434 
f 401 411 434 
f 400 418 434 
f 418 401 434 
f 406 400 435 
f 403 406 435 
f 387 419 435 
f 419 403 435 
f 434 387 435 
f 400 434 435 
f 397 404 436 
f 410 420 436 
f 404 423 436 
f 433 397 436 
f 420 433 436 
f 391 393 437 
f 408 391 437 
f 393 416 437 
f 396 405 438 
f 427 396 438 
f 427 438 439 
f 405 392 439 
f 392 415 439 
f 415 398 439 
f 398 427 439 
f 438 405 439 
f 413 398 440 
f 398 415 440 
f 412 428 440 
f 428 413 440 
f 430 412 440 
f 415 430 440 
f 392 405 441 
f 405 414 441 
f 425 392 441 
f 414 425 441 
f 416 401 442 
f 408 437 442 
f 437 416 442 
f 393 409 443 
f 422 393 443 
f 409 422 443 
f 414 402 444 
f 420 392 444 
f 392 425 444 
f 425 414 444 
f 402 433 444 
f 433 420 444 
f 407 389 445 
f 389 417 445 
f 417 407 445 
f 399 394 446 
f 394 412 446 
f 430 399 446 
f 412 430 446 
f 401 418 447 
f 426 408 447 
f 418 426 447 
f 442 401 447 
f 408 442 447 
f 421 413 448 
f 428 403 448 
f 413 428 448 
f 419 396 449 
f 403 419 449 
f 396 421 449 
f 448 403 449 
f 421 448 449 
f 388 399 450 
f 399 410 450 
f 423 388 450 
f 410 436 450 
o convex_9
v -0.041683 -0.001502 -0.022494
v 0.018102 0.015585 0.000999
v 0.018821 0.012735 0.000999
v 0.044446 -0.001502 -0.022494
v -0.047380 -0.018589 -0.000426
v 0.045875 -0.018589 0.000996
v 0.003870 -0.018589 -0.021782
v -0.015349 0.015585 -0.023919
v -0.017487 0.015585 0.000996
v -0.046670 -0.018589 -0.021782
v 0.045875 -0.018589 -0.021069
v 0.013834 0.015585 -0.023917
v 0.045165 0.001345 -0.001139
v -0.048099 -0.004348 -0.002564
v -0.008933 0.014160 -0.024632
v 0.044446 0.001345 -0.019644
v -0.016768 -0.009333 0.000996
v -0.020326 0.014869 -0.009684
v -0.048099 -0.007195 -0.021782
v -0.043822 -0.007908 -0.023207
v 0.047304 -0.014314 -0.018932
v 0.043027 -0.006479 -0.022494
v 0.017392 0.015585 -0.015372
v -0.043822 -0.000792 -0.001851
v 0.040888 0.004192 -0.003989
v -0.040973 -0.017164 -0.022494
v -0.046670 -0.003636 -0.013949
v -0.017487 0.015585 -0.021069
v -0.047380 -0.005061 -0.001139
v 0.046585 -0.003636 -0.019644
v 0.046585 -0.010754 -0.001139
v 0.022379 0.009176 -0.023919
v 0.045165 -0.006479 0.000286
v -0.048099 -0.013604 -0.021069
v 0.047304 -0.018589 -0.010396
v -0.021755 0.014160 -0.003276
v 0.015973 0.015585 -0.022494
v 0.045165 -0.014314 -0.021782
v 0.040888 0.002054 -0.022494
v -0.031009 0.003479 -0.023919
v 0.045875 -0.000080 -0.001139
v -0.046670 -0.010754 -0.000426
v 0.037330 -0.018589 0.000996
v -0.048099 -0.012179 -0.002564
v 0.030924 0.000629 -0.023207
v -0.046670 -0.004348 -0.019644
v 0.047304 -0.018589 -0.019644
v 0.028076 0.010598 -0.008259
v -0.047380 -0.018589 -0.021069
v -0.047380 -0.003636 -0.008971
v 0.044446 -0.000080 -0.000426
v -0.011781 0.015585 -0.024632
v -0.043822 -0.004348 -0.023207
v -0.018906 0.011314 0.000996
v 0.045875 -0.000792 -0.019644
f 491 480 505 
f 452 453 456 
f 456 455 457 
f 452 458 459 
f 457 455 460 
f 456 457 461 
f 458 452 462 
f 453 452 467 
f 460 469 470 
f 462 452 473 
f 452 463 475 
f 463 466 475 
f 457 460 476 
f 460 470 476 
f 470 465 476 
f 458 451 478 
f 459 458 478 
f 468 459 478 
f 477 468 478 
f 464 455 479 
f 459 474 479 
f 474 464 479 
f 465 462 482 
f 454 472 482 
f 452 456 483 
f 469 460 484 
f 464 469 484 
f 456 461 485 
f 471 481 485 
f 481 456 485 
f 459 468 486 
f 474 459 486 
f 468 474 486 
f 462 473 487 
f 473 466 487 
f 461 457 488 
f 472 454 488 
f 457 476 488 
f 476 472 488 
f 466 454 489 
f 454 482 489 
f 482 462 489 
f 462 487 489 
f 487 466 489 
f 465 470 490 
f 471 480 491 
f 481 471 491 
f 456 481 491 
f 483 456 491 
f 479 455 492 
f 459 479 492 
f 456 453 493 
f 455 456 493 
f 453 467 493 
f 467 455 493 
f 455 464 494 
f 484 455 494 
f 464 484 494 
f 476 465 495 
f 472 476 495 
f 465 482 495 
f 482 472 495 
f 451 469 496 
f 478 451 496 
f 477 478 496 
f 454 480 497 
f 480 471 497 
f 485 461 497 
f 471 485 497 
f 488 454 497 
f 461 488 497 
f 473 452 498 
f 466 473 498 
f 452 475 498 
f 475 466 498 
f 460 455 499 
f 455 484 499 
f 484 460 499 
f 469 464 500 
f 464 474 500 
f 474 468 500 
f 468 477 500 
f 496 469 500 
f 477 496 500 
f 463 452 501 
f 452 483 501 
f 491 463 501 
f 483 491 501 
f 458 462 502 
f 462 465 502 
f 490 458 502 
f 465 490 502 
f 451 458 503 
f 469 451 503 
f 470 469 503 
f 458 490 503 
f 490 470 503 
f 452 459 504 
f 467 452 504 
f 455 467 504 
f 492 455 504 
f 459 492 504 
f 454 466 505 
f 466 463 505 
f 480 454 505 
f 463 491 505 
o convex_10
v -0.017482 0.015585 0.000999
v -0.011073 0.015585 -0.024632
v -0.014634 0.015585 -0.023917
v 0.012411 0.021993 -0.015372
v 0.018113 0.015585 0.000999
v -0.019620 0.021993 0.000999
v 0.018113 0.021993 0.000999
v 0.014549 0.015585 -0.022494
v -0.004669 0.021993 -0.022494
v 0.002445 0.021280 -0.023917
v -0.011786 0.021993 -0.016084
v -0.016060 0.016298 -0.022494
v 0.013123 0.016298 -0.023917
v -0.018195 0.015585 -0.010394
v -0.009651 0.019856 -0.023917
v 0.000310 0.020568 -0.024632
v -0.016769 0.021993 -0.007546
v 0.010988 0.021993 -0.017509
v 0.014549 0.016298 -0.022494
v 0.015971 0.015585 -0.016084
v 0.001732 0.015585 -0.024632
f 521 518 526 
f 508 507 506 
f 506 507 510 
f 506 510 511 
f 511 510 512 
f 509 511 512 
f 510 507 513 
f 511 509 514 
f 511 514 516 
f 508 506 519 
f 506 511 519 
f 517 508 519 
f 511 517 519 
f 507 508 520 
f 516 514 520 
f 517 516 520 
f 508 517 520 
f 514 515 521 
f 515 518 521 
f 507 520 521 
f 520 514 521 
f 511 516 522 
f 516 517 522 
f 517 511 522 
f 514 509 523 
f 515 514 523 
f 518 515 523 
f 518 523 524 
f 509 512 524 
f 513 518 524 
f 523 509 524 
f 513 524 525 
f 512 510 525 
f 510 513 525 
f 524 512 525 
f 513 507 526 
f 518 513 526 
f 507 521 526 
