o convex_0
v -0.023771 0.010104 -0.047059
v -0.001300 0.043470 -0.020504
v 0.002099 0.042787 -0.019820
v -0.023091 0.002613 -0.006197
v 0.034793 0.002613 -0.032072
v 0.022531 0.003977 -0.006197
v -0.021052 0.034611 -0.006197
v -0.002659 0.035295 -0.045695
v 0.027975 0.002609 -0.047059
v 0.013001 0.035975 -0.006197
v -0.032627 0.002613 -0.030712
v 0.024570 0.018956 -0.041607
v -0.016960 0.038019 -0.032756
v -0.025130 0.002613 -0.047059
v 0.033427 0.002613 -0.017097
v 0.007543 0.038699 -0.032756
v -0.010150 0.041427 -0.006197
v 0.030021 0.014872 -0.029352
v -0.010829 0.031211 -0.047059
v -0.031261 0.003293 -0.017097
v 0.015720 0.023040 -0.047059
v -0.008790 0.042107 -0.033432
v -0.024451 0.016232 -0.043647
v -0.020372 0.035291 -0.025272
v -0.023771 0.029163 -0.006197
v 0.017766 0.029167 -0.006197
v -0.012875 0.042107 -0.020504
v 0.010276 0.038019 -0.024592
v 0.002099 0.039379 -0.038880
v 0.003458 0.041427 -0.006197
v -0.031941 0.006700 -0.028664
v 0.032747 0.008740 -0.021180
v 0.027296 0.002609 -0.009605
v -0.015601 0.033931 -0.041607
v 0.027296 0.013508 -0.043647
v -0.008790 0.038699 -0.040927
v 0.006864 0.035295 -0.040927
v 0.002099 0.042107 -0.030028
v 0.026616 0.018956 -0.033432
v -0.032627 0.003977 -0.021864
v -0.029222 0.002613 -0.013009
v -0.015601 0.040743 -0.025948
v -0.028542 0.003293 -0.042291
v -0.008790 0.043470 -0.023904
v -0.022411 0.032571 -0.014373
v 0.006864 0.040743 -0.023904
v -0.021052 0.020316 -0.045695
v 0.000746 0.032571 -0.047059
v 0.031387 0.009420 -0.037520
v 0.024570 0.013508 -0.047059
v -0.027856 0.011464 -0.038880
v -0.018326 0.034611 -0.035476
v 0.019805 0.022360 -0.044327
v 0.022531 0.002609 -0.006197
v -0.004705 0.042107 -0.006197
v 0.030021 0.003977 -0.044327
v 0.034793 0.004653 -0.029348
v -0.014241 0.040063 -0.007561
v -0.013555 0.040063 -0.034796
v -0.003339 0.042107 -0.034112
v 0.030701 0.003293 -0.013009
v 0.004825 0.034615 -0.043647
v 0.030021 0.014872 -0.026628
v 0.010955 0.035975 -0.031392
f 39 12 64 
f 4 6 7 
f 7 6 10 
f 1 9 14 
f 9 11 14 
f 7 10 17 
f 9 1 19 
f 9 19 21 
f 4 7 25 
f 10 6 26 
f 3 2 30 
f 17 10 30 
f 26 15 32 
f 9 5 33 
f 5 15 33 
f 26 6 33 
f 8 19 36 
f 29 8 36 
f 19 34 36 
f 29 16 37 
f 2 3 38 
f 16 29 38 
f 10 18 39 
f 28 10 39 
f 11 20 40 
f 20 25 40 
f 31 11 40 
f 25 31 40 
f 20 11 41 
f 4 25 41 
f 25 20 41 
f 24 7 42 
f 13 24 42 
f 1 14 43 
f 14 11 43 
f 23 1 43 
f 27 17 44 
f 22 42 44 
f 42 27 44 
f 7 24 45 
f 25 7 45 
f 24 31 45 
f 31 25 45 
f 10 28 46 
f 28 16 46 
f 3 30 46 
f 30 10 46 
f 38 3 46 
f 16 38 46 
f 19 1 47 
f 1 23 47 
f 34 19 47 
f 23 34 47 
f 19 8 48 
f 21 19 48 
f 35 12 49 
f 39 18 49 
f 12 39 49 
f 9 21 50 
f 11 31 51 
f 31 24 51 
f 43 11 51 
f 23 43 51 
f 24 13 52 
f 13 34 52 
f 34 23 52 
f 23 51 52 
f 51 24 52 
f 16 12 53 
f 12 35 53 
f 37 16 53 
f 50 21 53 
f 35 50 53 
f 6 4 54 
f 11 9 54 
f 33 6 54 
f 9 33 54 
f 41 11 54 
f 4 41 54 
f 30 2 55 
f 17 30 55 
f 2 44 55 
f 44 17 55 
f 5 9 56 
f 49 5 56 
f 35 49 56 
f 9 50 56 
f 50 35 56 
f 15 5 57 
f 32 15 57 
f 5 49 57 
f 49 18 57 
f 7 17 58 
f 17 27 58 
f 42 7 58 
f 27 42 58 
f 34 13 59 
f 22 36 59 
f 36 34 59 
f 13 42 59 
f 42 22 59 
f 36 22 60 
f 29 36 60 
f 2 38 60 
f 38 29 60 
f 44 2 60 
f 22 44 60 
f 15 26 61 
f 33 15 61 
f 26 33 61 
f 8 29 62 
f 29 37 62 
f 48 8 62 
f 21 48 62 
f 37 53 62 
f 53 21 62 
f 18 10 63 
f 10 26 63 
f 26 32 63 
f 32 57 63 
f 57 18 63 
f 12 16 64 
f 16 28 64 
f 28 39 64 
o convex_1
v -0.003342 0.048919 0.023081
v 0.022534 0.029163 0.020361
v 0.021852 0.033248 0.023766
v -0.008108 0.002613 0.037386
v -0.023093 0.002613 -0.006197
v 0.022534 0.002613 -0.006197
v 0.003464 0.041421 -0.006197
v -0.023774 0.035972 0.017642
v -0.001979 0.033252 0.044195
v 0.011638 0.003293 0.033981
v -0.020367 0.035292 -0.006197
v -0.019685 0.017595 0.031936
v 0.015723 0.042101 0.032621
v 0.017081 0.030528 -0.006197
v 0.014360 0.046190 0.019001
v 0.008231 0.020319 0.043510
v -0.012879 0.040741 0.034661
v 0.017763 0.018959 0.033301
v -0.025819 0.025084 0.012877
v -0.012879 0.046194 0.016962
v 0.007549 0.043465 0.037386
v -0.008790 0.023048 0.042835
v -0.021730 0.012831 0.024446
v -0.023774 0.029843 -0.006197
v -0.009471 0.041421 -0.006197
v 0.001420 0.014875 0.044195
v 0.015723 0.033928 0.037386
v 0.020489 0.035972 0.012192
v -0.019685 0.029843 0.031936
v 0.002101 0.048919 0.016967
v 0.018444 0.006697 0.021041
v -0.014924 0.003293 0.028531
v 0.006186 0.002613 0.038065
v -0.005386 0.043470 0.037386
v 0.006867 0.047554 0.029891
v 0.009594 0.034612 0.042150
v -0.023774 0.019639 0.024446
v 0.010957 0.038017 -0.006197
v -0.013560 0.027124 0.040105
v -0.018327 0.042785 0.020361
v -0.006745 0.046870 0.029891
v -0.010834 0.010786 0.039430
v 0.017081 0.043465 0.016962
v 0.015041 0.002613 0.027166
v 0.021852 0.025764 0.023766
v -0.004023 0.048234 0.014242
v -0.021730 0.033252 0.027166
v 0.017081 0.030528 0.036706
v 0.009594 0.014871 0.041470
v 0.018444 0.027804 -0.006197
v -0.023093 0.002613 -0.003467
v -0.016282 0.008742 0.032616
v -0.011516 0.036657 0.038745
v 0.004823 0.027804 0.044880
v 0.009594 0.047554 0.016282
v -0.016282 0.038701 -0.006197
v -0.025133 0.031888 0.016282
v 0.001420 0.039381 0.041470
v -0.024456 0.025084 -0.004147
v 0.000057 0.042105 -0.006197
v 0.022534 0.002613 -0.004152
v 0.016404 0.044150 0.025806
v -0.018327 0.038017 0.029896
v -0.005386 0.002613 0.038745
f 90 106 128 
f 68 69 70 
f 70 69 71 
f 71 69 75 
f 70 71 78 
f 75 69 88 
f 72 75 88 
f 71 75 89 
f 73 86 90 
f 67 66 92 
f 66 70 92 
f 68 70 97 
f 98 85 99 
f 85 77 99 
f 94 65 99 
f 77 85 100 
f 91 77 100 
f 87 76 101 
f 76 93 101 
f 78 71 102 
f 86 73 103 
f 93 76 103 
f 75 72 104 
f 65 84 105 
f 81 98 105 
f 98 99 105 
f 99 65 105 
f 104 81 105 
f 84 104 105 
f 90 86 106 
f 103 76 106 
f 86 103 106 
f 67 92 107 
f 92 78 107 
f 78 102 107 
f 102 79 107 
f 82 74 108 
f 95 82 108 
f 97 70 108 
f 74 97 108 
f 66 67 109 
f 82 95 109 
f 84 65 110 
f 89 84 110 
f 65 94 110 
f 101 93 111 
f 67 77 112 
f 77 91 112 
f 100 80 112 
f 91 100 112 
f 109 67 112 
f 82 109 112 
f 74 82 113 
f 80 90 113 
f 97 74 113 
f 90 97 113 
f 112 80 113 
f 82 112 113 
f 70 78 114 
f 92 70 114 
f 78 92 114 
f 69 68 115 
f 83 69 115 
f 68 96 115 
f 96 87 115 
f 101 83 115 
f 87 101 115 
f 76 87 116 
f 96 68 116 
f 87 96 116 
f 68 106 116 
f 106 76 116 
f 98 81 117 
f 73 98 117 
f 103 73 117 
f 93 103 117 
f 73 90 118 
f 90 80 118 
f 100 73 118 
f 80 100 118 
f 99 79 119 
f 94 99 119 
f 102 71 119 
f 79 102 119 
f 89 75 120 
f 84 89 120 
f 75 104 120 
f 104 84 120 
f 72 88 121 
f 88 83 121 
f 83 101 121 
f 111 72 121 
f 101 111 121 
f 98 73 122 
f 85 98 122 
f 73 100 122 
f 100 85 122 
f 69 83 123 
f 88 69 123 
f 83 88 123 
f 71 89 124 
f 89 110 124 
f 110 94 124 
f 119 71 124 
f 94 119 124 
f 70 66 125 
f 108 70 125 
f 95 108 125 
f 66 109 125 
f 109 95 125 
f 77 67 126 
f 99 77 126 
f 79 99 126 
f 67 107 126 
f 107 79 126 
f 104 72 127 
f 81 104 127 
f 111 93 127 
f 72 111 127 
f 117 81 127 
f 93 117 127 
f 68 97 128 
f 97 90 128 
f 106 68 128 
o convex_2
v -0.022407 -0.023951 -0.047058
v 0.033431 0.002609 -0.036164
v 0.033431 -0.007611 -0.036164
v -0.031267 -0.001480 -0.036164
v 0.027978 0.002609 -0.047058
v -0.025131 0.002609 -0.047058
v -0.019000 -0.023951 -0.036164
v 0.025255 -0.021223 -0.045695
v 0.022532 -0.019862 -0.036164
v -0.012876 -0.027357 -0.040930
v -0.030583 0.002609 -0.036164
v 0.028662 -0.015096 -0.047058
v -0.029222 -0.017138 -0.036164
v -0.027860 -0.009652 -0.044333
v -0.013554 -0.025993 -0.047058
v 0.023215 -0.022587 -0.041611
v -0.021723 -0.026673 -0.041611
v 0.028662 -0.019182 -0.041611
v 0.031385 -0.011013 -0.044333
v -0.014238 -0.027357 -0.045695
v 0.022532 -0.021223 -0.047058
v -0.014238 -0.026673 -0.038888
v 0.021854 -0.022587 -0.039569
v -0.025815 -0.018501 -0.045695
v -0.031267 -0.009652 -0.036845
v -0.027860 0.000564 -0.044333
v 0.030701 -0.013732 -0.036164
v 0.023215 -0.022587 -0.044333
v -0.023769 -0.024632 -0.045015
v 0.031385 0.000561 -0.042972
v -0.025815 -0.008972 -0.047058
v 0.030023 -0.016460 -0.044333
v 0.002101 -0.022587 -0.036164
v 0.030023 -0.004886 -0.046377
v -0.024453 -0.021904 -0.036164
v -0.019684 -0.026673 -0.046377
v 0.033431 -0.000800 -0.038207
v 0.026616 -0.019862 -0.038888
v -0.031267 -0.003522 -0.037527
v 0.021170 -0.021904 -0.038207
v 0.028662 -0.018501 -0.045695
f 160 146 169 
f 131 130 132 
f 130 133 134 
f 133 129 134 
f 131 132 135 
f 131 135 137 
f 132 130 139 
f 130 134 139 
f 129 133 140 
f 135 132 141 
f 129 140 143 
f 138 145 148 
f 143 140 149 
f 148 143 149 
f 135 145 150 
f 145 138 150 
f 138 144 151 
f 150 138 151 
f 142 152 153 
f 141 132 153 
f 152 141 153 
f 139 134 154 
f 131 137 155 
f 146 131 155 
f 144 138 156 
f 136 146 156 
f 146 144 156 
f 138 148 156 
f 149 136 156 
f 148 149 156 
f 145 141 157 
f 152 129 157 
f 141 152 157 
f 133 130 158 
f 134 129 159 
f 129 152 159 
f 152 142 159 
f 154 134 159 
f 142 154 159 
f 131 146 160 
f 147 131 160 
f 140 147 160 
f 137 135 161 
f 135 150 161 
f 140 133 162 
f 147 140 162 
f 133 158 162 
f 158 147 162 
f 135 141 163 
f 145 135 163 
f 141 145 163 
f 129 143 164 
f 143 148 164 
f 148 145 164 
f 145 157 164 
f 157 129 164 
f 130 131 165 
f 131 147 165 
f 158 130 165 
f 147 158 165 
f 144 146 166 
f 151 144 166 
f 137 151 166 
f 155 137 166 
f 146 155 166 
f 132 139 167 
f 142 153 167 
f 153 132 167 
f 139 154 167 
f 154 142 167 
f 151 137 168 
f 150 151 168 
f 137 161 168 
f 161 150 168 
f 146 136 169 
f 136 149 169 
f 149 140 169 
f 140 160 169 
o convex_3
v 0.024571 -0.023945 0.005380
v -0.031266 -0.011697 -0.036163
v -0.031266 0.000563 -0.036163
v 0.034109 0.001242 -0.036163
v -0.016276 0.002609 0.012191
v -0.019689 -0.036889 -0.017088
v 0.025258 -0.019179 -0.036163
v -0.019689 -0.021904 0.012191
v 0.017760 0.002609 0.012191
v 0.002778 -0.036210 0.012191
v 0.025938 -0.031440 -0.014362
v -0.033305 0.002609 -0.023899
v -0.027180 -0.030078 -0.008242
v 0.034788 0.002609 -0.020491
v -0.016963 -0.023945 -0.036163
v 0.006183 -0.036210 -0.017770
v 0.025938 -0.015101 0.010828
v 0.035468 -0.011018 -0.026621
v -0.027180 -0.015784 0.002653
v 0.031383 -0.018500 -0.002794
v 0.006183 -0.038934 -0.005521
v -0.033991 -0.010335 -0.023222
v 0.002098 -0.030078 -0.029347
v -0.004027 -0.035527 0.012191
v -0.030579 0.002609 -0.036163
v -0.029219 -0.019863 -0.033432
v 0.014354 -0.034848 0.001972
v -0.021728 -0.008973 0.011509
v 0.021852 -0.021908 0.012191
v 0.033429 0.002609 -0.036163
v 0.027297 -0.011018 0.008101
v -0.025814 -0.033481 -0.012999
v 0.032062 -0.015101 -0.032750
v -0.031266 0.001242 -0.015044
v -0.002660 -0.038934 -0.003476
v 0.028657 -0.026670 -0.006879
v -0.029219 -0.023266 -0.005521
v -0.025134 -0.021904 -0.036163
v -0.031945 -0.017825 -0.026621
v -0.021048 -0.036206 -0.010968
v 0.008229 -0.032802 -0.023899
v -0.033305 -0.004886 -0.017770
v 0.024571 -0.031440 -0.017088
v 0.036155 -0.002845 -0.024576
v 0.004144 -0.038934 -0.010287
v -0.021728 -0.035523 -0.019128
v -0.010152 -0.031440 0.012191
v 0.003464 -0.023270 -0.036163
v 0.030703 -0.013059 0.000609
v -0.033991 -0.005569 -0.029347
v 0.033429 -0.008973 -0.036163
v 0.008909 -0.033485 0.012191
v 0.030023 -0.025308 -0.012999
v 0.011635 -0.037572 -0.004839
v -0.024454 -0.019179 0.007420
v -0.023774 -0.032802 -0.006879
v 0.026617 -0.030757 -0.010287
v 0.029343 -0.018500 0.003335
v 0.024571 -0.010335 0.012191
v -0.029219 -0.025991 -0.010287
v -0.026493 -0.032123 -0.016407
v 0.010276 -0.037572 -0.010968
v 0.032062 0.002609 -0.014362
v 0.003464 -0.032802 -0.025262
f 215 192 233 
f 171 172 173 
f 171 173 176 
f 174 177 178 
f 178 177 179 
f 174 178 181 
f 181 178 183 
f 171 176 184 
f 179 177 193 
f 173 172 194 
f 172 181 194 
f 181 183 194 
f 177 174 197 
f 178 179 198 
f 183 173 199 
f 173 194 199 
f 194 183 199 
f 174 181 203 
f 197 174 203 
f 188 197 203 
f 190 179 204 
f 179 193 204 
f 171 184 207 
f 195 171 207 
f 171 195 208 
f 201 175 209 
f 175 204 209 
f 204 193 209 
f 192 176 210 
f 181 191 211 
f 203 181 211 
f 188 203 211 
f 206 188 211 
f 191 206 211 
f 176 202 212 
f 202 180 212 
f 210 176 212 
f 185 210 212 
f 173 183 213 
f 187 173 213 
f 189 187 213 
f 175 185 214 
f 204 175 214 
f 190 204 214 
f 184 192 215 
f 175 201 215 
f 207 184 215 
f 195 207 215 
f 193 177 216 
f 184 176 217 
f 192 184 217 
f 176 192 217 
f 183 200 218 
f 213 183 218 
f 189 213 218 
f 172 171 219 
f 181 172 219 
f 191 181 219 
f 171 208 219 
f 208 191 219 
f 176 173 220 
f 173 187 220 
f 202 176 220 
f 187 202 220 
f 196 170 221 
f 179 196 221 
f 198 179 221 
f 170 198 221 
f 187 189 222 
f 180 202 222 
f 202 187 222 
f 189 205 222 
f 179 190 223 
f 196 179 223 
f 182 177 224 
f 177 197 224 
f 197 188 224 
f 206 182 224 
f 188 206 224 
f 177 182 225 
f 182 201 225 
f 209 193 225 
f 201 209 225 
f 216 177 225 
f 193 216 225 
f 170 196 226 
f 205 170 226 
f 180 222 226 
f 222 205 226 
f 196 223 226 
f 223 180 226 
f 186 198 227 
f 198 170 227 
f 200 186 227 
f 170 205 227 
f 205 189 227 
f 189 218 227 
f 218 200 227 
f 178 198 228 
f 198 186 228 
f 200 178 228 
f 186 200 228 
f 201 182 229 
f 182 206 229 
f 206 191 229 
f 191 208 229 
f 229 208 230 
f 208 195 230 
f 215 201 230 
f 195 215 230 
f 201 229 230 
f 212 180 231 
f 185 212 231 
f 214 185 231 
f 190 214 231 
f 223 190 231 
f 180 223 231 
f 183 178 232 
f 178 200 232 
f 200 183 232 
f 185 175 233 
f 210 185 233 
f 192 210 233 
f 175 215 233 
o convex_4
v 0.017085 -0.011696 0.050323
v -0.025138 -0.026671 0.025133
v -0.025138 -0.026671 0.028539
v 0.008230 -0.049149 0.027859
v 0.017765 0.002603 0.012195
v -0.014239 -0.013739 0.052364
v -0.015604 0.002609 0.012195
v -0.002659 -0.036883 0.012195
v -0.002659 -0.039608 0.051003
v 0.024574 -0.035521 0.026498
v -0.004704 0.002609 0.039429
v -0.009474 -0.047106 0.025133
v 0.013680 -0.031439 0.052364
v 0.024574 -0.014421 0.012195
v 0.024574 -0.015783 0.038068
v -0.021048 -0.017826 0.012195
v -0.020368 -0.008295 0.035343
v -0.014924 -0.035521 0.044876
v 0.015040 -0.038251 0.016965
v 0.015040 -0.002165 0.040109
v 0.006185 -0.007609 0.052364
v 0.013680 -0.044376 0.038064
v -0.019003 -0.038246 0.021731
v 0.019805 -0.021913 0.052364
v -0.001979 -0.049831 0.033298
v -0.015604 -0.021232 0.052364
v -0.014239 -0.042333 0.036703
v 0.006865 -0.048463 0.022412
v 0.007545 0.002609 0.038064
v -0.013559 -0.000802 0.037384
v -0.023773 -0.014421 0.025818
v 0.005505 -0.041657 0.048962
v 0.022529 -0.009652 0.038745
v -0.008109 -0.004203 0.048281
v -0.013559 -0.038927 0.016965
v 0.023894 -0.035521 0.031945
v 0.021850 -0.038932 0.023773
v 0.006865 -0.035526 0.012195
v -0.001299 -0.045063 0.017645
v 0.025939 -0.024628 0.030580
v -0.022413 -0.016464 0.036703
v -0.008109 -0.034845 0.052364
v -0.015604 0.002609 0.022412
v -0.023093 -0.032120 0.030584
v -0.021048 -0.009658 0.012195
v 0.023894 -0.009652 0.012879
v 0.017765 -0.034840 0.044876
v 0.015040 0.002603 0.026498
v -0.005384 -0.041657 0.047597
v 0.021850 -0.021232 0.012195
v -0.006744 -0.047787 0.022412
v 0.002101 -0.050512 0.031264
v -0.015604 -0.008295 0.046236
v 0.001421 0.000565 0.043515
v 0.010275 -0.004884 0.048281
v -0.022413 -0.031439 0.020367
v 0.019805 -0.017826 0.052364
v 0.021850 -0.036202 0.020367
v -0.019003 -0.025990 0.044195
v -0.014239 -0.028715 0.012195
v -0.001299 -0.006928 0.052364
v 0.002780 -0.043700 0.016281
v 0.020490 -0.006933 0.040109
v 0.004825 -0.037570 0.052364
f 246 275 297 
f 240 238 241 
f 241 238 247 
f 240 241 249 
f 239 246 254 
f 254 246 257 
f 246 239 259 
f 256 245 260 
f 245 258 260 
f 238 240 262 
f 240 244 262 
f 235 236 264 
f 244 263 267 
f 255 237 270 
f 237 261 270 
f 243 269 270 
f 269 255 270 
f 241 247 271 
f 268 241 272 
f 243 247 273 
f 248 257 273 
f 269 243 273 
f 257 269 273 
f 259 239 274 
f 264 236 274 
f 250 264 274 
f 246 259 275 
f 259 251 275 
f 244 240 276 
f 263 244 276 
f 250 263 276 
f 240 264 276 
f 264 250 276 
f 236 235 277 
f 260 251 277 
f 256 260 277 
f 249 235 278 
f 240 249 278 
f 235 264 278 
f 264 240 278 
f 247 238 279 
f 238 266 279 
f 266 248 279 
f 273 247 279 
f 248 273 279 
f 257 246 280 
f 246 265 280 
f 265 255 280 
f 255 269 280 
f 269 257 280 
f 238 262 281 
f 262 253 281 
f 251 260 282 
f 260 258 282 
f 265 242 282 
f 258 265 282 
f 242 275 282 
f 275 251 282 
f 271 247 283 
f 252 271 283 
f 245 256 284 
f 258 245 284 
f 256 268 284 
f 272 261 284 
f 268 272 284 
f 237 255 285 
f 261 237 285 
f 255 265 285 
f 265 258 285 
f 258 284 285 
f 284 261 285 
f 263 250 286 
f 239 267 286 
f 267 263 286 
f 274 239 286 
f 250 274 286 
f 262 244 287 
f 244 267 287 
f 234 253 288 
f 254 234 288 
f 253 262 288 
f 262 287 288 
f 287 254 288 
f 235 249 289 
f 268 256 289 
f 277 235 289 
f 256 277 289 
f 234 254 290 
f 257 248 290 
f 254 257 290 
f 248 266 290 
f 247 243 291 
f 261 252 291 
f 243 270 291 
f 270 261 291 
f 283 247 291 
f 252 283 291 
f 251 259 292 
f 259 274 292 
f 274 236 292 
f 236 277 292 
f 277 251 292 
f 249 241 293 
f 241 268 293 
f 289 249 293 
f 268 289 293 
f 239 254 294 
f 267 239 294 
f 254 287 294 
f 287 267 294 
f 252 261 295 
f 241 271 295 
f 271 252 295 
f 261 272 295 
f 272 241 295 
f 253 234 296 
f 266 238 296 
f 238 281 296 
f 281 253 296 
f 234 290 296 
f 290 266 296 
f 242 265 297 
f 265 246 297 
f 275 242 297 
o convex_5
v 0.004825 -0.009654 0.054416
v -0.016283 -0.023270 0.057139
v -0.014919 -0.025991 0.057139
v -0.008111 -0.022590 0.061906
v 0.004825 -0.036205 0.052371
v -0.013557 -0.013739 0.052371
v 0.004825 -0.026672 0.057139
v -0.007429 -0.034164 0.052371
v -0.010834 -0.028716 0.061906
v -0.013557 -0.018507 0.060542
v 0.004825 -0.008288 0.052371
v -0.007429 -0.008971 0.053054
v -0.016283 -0.020548 0.052371
v 0.004825 -0.015103 0.057139
v -0.000623 -0.036891 0.053054
v -0.013557 -0.028032 0.061224
v -0.015601 -0.017147 0.057139
v -0.008791 -0.028716 0.061906
v -0.014919 -0.022590 0.061224
v -0.010154 -0.019188 0.061224
v 0.004825 -0.036205 0.053054
v -0.007429 -0.026672 0.061906
v -0.001985 -0.009654 0.054416
v -0.010834 -0.030076 0.060542
v -0.009473 -0.032123 0.052371
v 0.004825 -0.030757 0.055777
v -0.010154 -0.010335 0.052371
v -0.013557 -0.022590 0.061906
v -0.005390 -0.035525 0.053054
f 321 313 326 
f 302 298 304 
f 303 302 305 
f 298 302 308 
f 302 303 308 
f 300 299 310 
f 303 305 310 
f 304 298 311 
f 305 302 312 
f 299 300 313 
f 307 309 314 
f 310 299 314 
f 303 310 314 
f 301 306 315 
f 299 313 316 
f 314 299 316 
f 307 314 316 
f 311 298 317 
f 301 311 317 
f 302 304 318 
f 312 302 318 
f 315 312 318 
f 304 311 319 
f 311 301 319 
f 301 315 319 
f 315 304 319 
f 298 308 320 
f 309 307 320 
f 308 309 320 
f 317 298 320 
f 307 317 320 
f 306 313 321 
f 315 306 321 
f 312 315 321 
f 300 310 322 
f 310 305 322 
f 313 300 322 
f 305 313 322 
f 304 315 323 
f 318 304 323 
f 315 318 323 
f 308 303 324 
f 309 308 324 
f 314 309 324 
f 303 314 324 
f 306 301 325 
f 313 306 325 
f 307 316 325 
f 316 313 325 
f 317 307 325 
f 301 317 325 
f 305 312 326 
f 313 305 326 
f 312 321 326 
o convex_6
v 0.020491 -0.021232 0.057820
v 0.004827 -0.036210 0.052371
v 0.005510 -0.036210 0.052371
v 0.004827 -0.008288 0.052371
v 0.011640 -0.026671 0.063268
v 0.019809 -0.017143 0.052371
v 0.017084 -0.017827 0.061223
v 0.004827 -0.015099 0.057140
v 0.014360 -0.029399 0.061906
v 0.012998 -0.030757 0.052371
v 0.004827 -0.028035 0.057140
v 0.012998 -0.019185 0.062586
v 0.011640 -0.010332 0.053054
v 0.019128 -0.023946 0.053734
v 0.017084 -0.022585 0.062586
v 0.019809 -0.017143 0.057140
v 0.017084 -0.027355 0.059861
v 0.010277 -0.030077 0.061223
v 0.004827 -0.008971 0.053734
v 0.010277 -0.022585 0.062586
v 0.009596 -0.034166 0.053054
v 0.019809 -0.021913 0.052371
v 0.004827 -0.023946 0.057820
v 0.019809 -0.021913 0.059861
v 0.004827 -0.036210 0.053054
v 0.008915 -0.028035 0.061223
v 0.013679 -0.030757 0.059861
f 335 351 353 
f 329 328 330 
f 329 330 332 
f 330 328 334 
f 329 332 336 
f 334 328 337 
f 332 330 339 
f 331 335 341 
f 333 338 341 
f 338 331 341 
f 327 332 342 
f 332 339 342 
f 339 333 342 
f 340 327 343 
f 336 340 343 
f 335 331 344 
f 330 334 345 
f 338 333 345 
f 334 338 345 
f 339 330 345 
f 333 339 345 
f 331 338 346 
f 338 334 346 
f 329 336 347 
f 332 327 348 
f 336 332 348 
f 327 340 348 
f 340 336 348 
f 334 337 349 
f 346 334 349 
f 333 341 350 
f 341 335 350 
f 327 342 350 
f 342 333 350 
f 335 343 350 
f 343 327 350 
f 328 329 351 
f 337 328 351 
f 335 344 351 
f 351 344 352 
f 344 331 352 
f 331 346 352 
f 349 337 352 
f 346 349 352 
f 337 351 352 
f 343 335 353 
f 336 343 353 
f 329 347 353 
f 347 336 353 
f 351 329 353 
