o convex_0
v -0.034657 0.009578 -0.009943
v -0.013365 -0.016875 -0.036396
v -0.013365 0.008286 -0.037689
v -0.012073 0.009578 -0.008650
v -0.035950 -0.016875 -0.023491
v -0.012073 -0.012356 -0.008650
v -0.035303 0.009578 -0.028653
v -0.035950 -0.012356 -0.008653
v -0.012073 0.009578 -0.037689
v -0.034012 -0.016227 -0.028008
v -0.035950 0.008931 -0.008653
v -0.012073 -0.016875 -0.033170
v -0.035950 0.009578 -0.028008
v -0.035950 -0.016227 -0.026717
v -0.012073 -0.016875 -0.036396
v -0.015301 -0.016875 -0.035751
v -0.030785 0.008931 -0.030589
f 3 16 17 
f 1 4 7 
f 5 6 8 
f 6 4 8 
f 4 6 9 
f 3 7 9 
f 7 4 9 
f 4 1 11 
f 5 8 11 
f 8 4 11 
f 5 2 12 
f 6 5 12 
f 9 6 12 
f 1 7 13 
f 11 1 13 
f 5 11 13 
f 10 5 14 
f 7 10 14 
f 13 7 14 
f 5 13 14 
f 2 3 15 
f 3 9 15 
f 12 2 15 
f 9 12 15 
f 3 2 16 
f 2 5 16 
f 5 10 16 
f 16 10 17 
f 7 3 17 
f 10 7 17 
o convex_1
v -0.033367 0.025067 -0.018977
v 0.002121 0.017970 -0.051884
v 0.001474 0.015389 -0.051235
v 0.005351 0.010227 -0.030593
v -0.035950 0.009581 -0.028011
v 0.005351 0.028941 -0.040912
v -0.035950 0.026356 -0.033813
v -0.035950 0.009581 -0.013812
v 0.005351 0.009581 -0.044784
v -0.035950 0.014099 -0.035106
v 0.005351 0.025067 -0.050591
v 0.005351 0.019905 -0.032531
v -0.035950 0.028941 -0.024143
v 0.002768 0.028941 -0.045429
v -0.035299 0.017970 -0.015109
v -0.035299 0.021842 -0.036392
v 0.004704 0.027004 -0.036400
v 0.003410 0.012166 -0.049946
v 0.001474 0.024423 -0.050591
v -0.035950 0.028941 -0.029304
v 0.005351 0.009581 -0.030593
v -0.035299 0.027648 -0.020919
v 0.002121 0.027648 -0.048008
v -0.035950 0.018616 -0.036392
v -0.032077 0.012166 -0.035106
v 0.005351 0.016035 -0.051884
v 0.000184 0.020551 -0.051235
v -0.035299 0.010873 -0.013812
v -0.001105 0.015389 -0.028659
v 0.004057 0.025067 -0.034462
v -0.010784 0.009581 -0.038978
v -0.030136 0.021194 -0.018333
v -0.035950 0.028293 -0.031238
v 0.004704 0.028293 -0.038330
v -0.035950 0.025067 -0.018333
v -0.010137 0.014099 -0.046074
v -0.032077 0.016035 -0.037685
v -0.030783 0.023775 -0.037685
f 44 33 55 
f 24 22 25 
f 23 21 26 
f 25 22 26 
f 22 24 27 
f 23 26 28 
f 21 23 29 
f 24 25 30 
f 23 28 31 
f 30 23 31 
f 29 23 34 
f 28 19 36 
f 24 30 37 
f 30 31 37 
f 26 21 38 
f 25 26 38 
f 18 34 39 
f 31 28 40 
f 28 36 40 
f 36 24 40 
f 27 24 41 
f 24 33 41 
f 22 27 42 
f 20 19 43 
f 19 28 43 
f 28 26 43 
f 35 20 43 
f 26 35 43 
f 36 19 44 
f 19 41 44 
f 41 33 44 
f 32 25 45 
f 38 21 45 
f 25 38 45 
f 21 29 46 
f 29 32 46 
f 45 21 46 
f 32 45 46 
f 34 18 47 
f 29 34 47 
f 26 22 48 
f 35 26 48 
f 22 42 48 
f 42 35 48 
f 18 32 49 
f 32 29 49 
f 47 18 49 
f 29 47 49 
f 24 37 50 
f 37 31 50 
f 31 40 50 
f 40 24 50 
f 23 30 51 
f 34 23 51 
f 30 39 51 
f 39 34 51 
f 30 25 52 
f 25 32 52 
f 32 18 52 
f 39 30 52 
f 18 39 52 
f 20 35 53 
f 42 27 53 
f 35 42 53 
f 19 20 54 
f 41 19 54 
f 27 41 54 
f 20 53 54 
f 53 27 54 
f 33 24 55 
f 24 36 55 
f 36 44 55 
o convex_2
v -0.024334 -0.041400 0.049429
v -0.021753 -0.034943 0.054592
v -0.021753 -0.018171 0.052656
v -0.019172 -0.029140 0.046850
v -0.026915 -0.016880 0.046204
v -0.026915 -0.035589 0.053301
v -0.020464 -0.016880 0.043622
v -0.017882 -0.016880 0.050073
v -0.018528 -0.037523 0.053301
v -0.021108 -0.034943 0.044912
v -0.028205 -0.035589 0.048140
v -0.025624 -0.016880 0.051364
v -0.025624 -0.038815 0.054592
v -0.022399 -0.031072 0.044267
v -0.028205 -0.038169 0.050719
v -0.021108 -0.041400 0.051364
v -0.017882 -0.035589 0.051364
v -0.026915 -0.016880 0.048785
v -0.025624 -0.035589 0.054592
v -0.021753 -0.040752 0.053947
v -0.026269 -0.041400 0.051364
v -0.021753 -0.038169 0.046204
v -0.017882 -0.017525 0.048785
f 63 72 78 
f 62 60 63 
f 58 57 64 
f 63 58 64 
f 62 59 65 
f 63 60 67 
f 58 63 67 
f 60 62 69 
f 62 65 69 
f 66 60 69 
f 65 66 69 
f 68 61 70 
f 63 64 72 
f 65 59 72 
f 64 71 72 
f 60 66 73 
f 61 67 73 
f 67 60 73 
f 66 70 73 
f 70 61 73 
f 57 58 74 
f 58 67 74 
f 67 61 74 
f 68 57 74 
f 61 68 74 
f 64 57 75 
f 57 68 75 
f 71 64 75 
f 71 75 76 
f 66 56 76 
f 70 66 76 
f 68 70 76 
f 56 71 76 
f 75 68 76 
f 56 66 77 
f 66 65 77 
f 71 56 77 
f 65 72 77 
f 72 71 77 
f 59 62 78 
f 62 63 78 
f 72 59 78 
o convex_3
v -0.044984 0.010222 0.019745
v -0.012077 0.010869 0.048133
v -0.012722 0.010869 0.048775
v -0.012722 -0.016875 0.047486
v -0.012077 0.009576 -0.008644
v -0.050790 -0.016875 -0.008650
v -0.012077 -0.012356 -0.008644
v -0.025627 -0.016875 0.050716
v -0.052728 0.010869 -0.008650
v -0.026272 0.010869 0.049428
v -0.042401 -0.016875 0.019098
v -0.036591 0.010869 0.036519
v -0.012077 -0.016875 0.043615
v -0.050790 0.008933 0.002971
v -0.021111 -0.016228 0.052011
v -0.035302 0.010869 -0.008644
v -0.033368 -0.016875 0.037808
v -0.048208 -0.016875 0.003618
v -0.017238 0.010869 0.050716
v -0.048208 -0.016875 -0.008650
v -0.012077 0.010869 0.033936
v -0.050790 -0.016875 -0.005420
v -0.041757 0.009576 0.026840
v -0.030789 0.010869 0.044903
v -0.023689 0.010869 0.050716
v -0.052728 0.010869 -0.004772
v -0.047563 0.010869 0.013290
v -0.040467 -0.016875 0.023610
v -0.023689 -0.016875 0.052011
v -0.034657 0.010222 0.039743
v -0.044984 -0.016875 0.012649
f 105 96 109 
f 80 81 82 
f 83 80 85 
f 84 82 86 
f 81 80 87 
f 81 87 88 
f 84 86 89 
f 88 87 90 
f 80 82 91 
f 82 84 91 
f 85 80 91 
f 82 81 93 
f 87 80 94 
f 83 87 94 
f 89 86 95 
f 84 89 96 
f 81 88 97 
f 93 81 97 
f 83 85 98 
f 87 83 98 
f 84 87 98 
f 91 84 98 
f 85 91 98 
f 80 83 99 
f 94 80 99 
f 83 94 99 
f 87 84 100 
f 84 96 100 
f 96 92 100 
f 90 79 101 
f 95 90 101 
f 86 88 102 
f 88 90 102 
f 97 88 103 
f 93 97 103 
f 90 87 104 
f 87 100 104 
f 100 92 104 
f 79 90 105 
f 92 96 105 
f 90 104 105 
f 104 92 105 
f 79 89 106 
f 89 95 106 
f 101 79 106 
f 95 101 106 
f 86 82 107 
f 88 86 107 
f 82 93 107 
f 103 88 107 
f 93 103 107 
f 95 86 108 
f 90 95 108 
f 86 102 108 
f 102 90 108 
f 89 79 109 
f 96 89 109 
f 79 105 109 
o convex_4
v -0.056600 0.047649 -0.006065
v -0.038530 0.062497 0.033942
v -0.039174 0.063141 0.033295
v -0.036597 0.049586 -0.008650
v -0.019174 0.010877 0.033942
v -0.052079 0.010877 -0.001546
v -0.038530 0.010877 0.033295
v -0.035304 0.010877 -0.008650
v -0.017886 0.044424 0.033291
v -0.048854 0.050874 0.025549
v -0.042403 0.069596 0.015222
v -0.056600 0.052167 -0.008646
v -0.053371 0.012171 -0.008646
v -0.046917 0.069596 0.018453
v -0.023048 0.052817 0.025549
v -0.055308 0.052167 0.006843
v -0.044336 0.052161 0.033942
v -0.047565 0.011521 0.013930
v -0.032727 0.046361 -0.002838
v -0.019174 0.010877 0.030064
v -0.052727 0.061198 -0.000257
v -0.020463 0.050874 0.033942
v -0.031435 0.053461 0.004258
v -0.046273 0.054099 -0.008650
v -0.053371 0.050874 0.013930
v -0.033372 0.061198 0.033942
v -0.037885 0.010877 0.033942
v -0.041755 0.069596 0.015869
v -0.046921 0.061198 -0.000257
v -0.037241 0.050874 -0.008650
v -0.043692 0.012171 0.023615
v -0.056600 0.052167 -0.000904
v -0.025625 0.053461 0.018453
v -0.024981 0.047649 0.015873
v -0.029498 0.010877 0.004904
v -0.035304 0.045068 -0.008650
v -0.040466 0.062497 0.033942
v -0.052727 0.061847 0.004262
v -0.050146 0.015395 0.008131
v -0.052079 0.052167 0.017803
v -0.052727 0.010877 -0.008646
v -0.017886 0.021201 0.033942
v -0.055308 0.050874 0.006843
v -0.050146 0.046361 0.021030
v -0.046273 0.052161 0.030715
v -0.041755 0.069596 0.017161
v -0.053371 0.016045 -0.004772
v -0.033372 0.054104 0.001677
v -0.052079 0.054104 -0.008646
v -0.047565 0.068946 0.015222
v -0.043047 0.023788 0.028776
v -0.056600 0.050874 -0.000904
f 156 152 161 
f 115 114 116 
f 114 115 117 
f 110 121 122 
f 114 111 126 
f 115 116 127 
f 114 117 129 
f 111 114 131 
f 118 124 131 
f 128 113 132 
f 113 117 133 
f 117 122 133 
f 122 121 133 
f 112 111 135 
f 111 131 135 
f 116 114 136 
f 114 126 136 
f 126 116 136 
f 120 123 137 
f 131 124 137 
f 130 120 138 
f 133 138 139 
f 132 113 139 
f 113 133 139 
f 120 137 139 
f 138 120 139 
f 127 116 140 
f 121 110 141 
f 124 118 142 
f 137 124 142 
f 132 137 142 
f 118 129 143 
f 128 132 143 
f 142 118 143 
f 132 142 143 
f 117 128 144 
f 129 117 144 
f 143 129 144 
f 128 143 144 
f 117 113 145 
f 113 128 145 
f 128 117 145 
f 111 112 146 
f 112 123 146 
f 126 111 146 
f 125 123 147 
f 130 121 147 
f 121 141 147 
f 141 125 147 
f 115 127 148 
f 127 134 148 
f 123 125 149 
f 125 134 149 
f 117 115 150 
f 122 117 150 
f 115 122 150 
f 114 129 151 
f 129 118 151 
f 131 114 151 
f 118 131 151 
f 134 125 152 
f 125 141 152 
f 115 148 152 
f 148 134 152 
f 134 127 153 
f 140 119 153 
f 127 140 153 
f 119 149 153 
f 149 134 153 
f 116 126 154 
f 146 123 154 
f 126 146 154 
f 149 119 154 
f 123 149 154 
f 123 112 155 
f 112 135 155 
f 135 131 155 
f 137 123 155 
f 131 137 155 
f 122 115 156 
f 115 152 156 
f 137 132 157 
f 132 139 157 
f 139 137 157 
f 121 130 158 
f 133 121 158 
f 130 138 158 
f 138 133 158 
f 123 120 159 
f 120 130 159 
f 147 123 159 
f 130 147 159 
f 140 116 160 
f 119 140 160 
f 116 154 160 
f 154 119 160 
f 110 122 161 
f 141 110 161 
f 152 141 161 
f 122 156 161 
o convex_5
v -0.012073 0.023135 0.055882
v -0.043694 0.048940 0.033944
v -0.043694 0.048940 0.034587
v -0.037237 0.010872 0.033944
v -0.017883 0.045070 0.033942
v -0.012073 0.010872 0.034587
v -0.012720 0.056040 0.050720
v -0.031430 0.050229 0.048782
v -0.025627 0.010872 0.050074
v -0.039819 0.062492 0.033944
v -0.017239 0.056687 0.054590
v -0.015301 0.016041 0.057173
v -0.012073 0.012165 0.053298
v -0.020464 0.050876 0.033942
v -0.032721 0.012817 0.042976
v -0.037884 0.052164 0.042976
v -0.014657 0.057980 0.048136
v -0.012073 0.019911 0.035879
v -0.034012 0.061199 0.033944
v -0.012073 0.051517 0.052007
v -0.028852 0.052811 0.050074
v -0.018530 0.011518 0.033942
v -0.015301 0.054105 0.055234
v -0.037237 0.011523 0.035879
v -0.018530 0.057980 0.053301
v -0.039819 0.061199 0.035879
v -0.012073 0.010872 0.048782
v -0.015301 0.021847 0.057173
v -0.012720 0.056040 0.050074
v -0.040465 0.050876 0.039752
v -0.034656 0.050229 0.046201
v -0.030787 0.014105 0.045557
v -0.016592 0.054105 0.055234
v -0.016592 0.012165 0.054590
v -0.043694 0.052811 0.034587
v -0.019173 0.049587 0.033942
v -0.032721 0.052811 0.047493
v -0.034656 0.010872 0.039752
v -0.012073 0.015394 0.055882
v -0.014011 0.021205 0.057173
f 173 200 201 
f 164 163 165 
f 165 167 170 
f 169 170 173 
f 167 162 174 
f 163 171 175 
f 162 167 179 
f 167 166 179 
f 175 171 180 
f 171 178 180 
f 178 175 180 
f 162 179 181 
f 165 163 183 
f 167 165 183 
f 166 167 183 
f 163 175 183 
f 175 166 183 
f 168 172 184 
f 162 181 184 
f 181 168 184 
f 164 165 185 
f 172 168 186 
f 168 178 186 
f 178 171 186 
f 182 172 186 
f 186 171 187 
f 170 167 188 
f 167 174 188 
f 169 173 189 
f 182 169 189 
f 178 168 190 
f 179 166 190 
f 168 181 190 
f 181 179 190 
f 170 169 192 
f 176 170 193 
f 191 176 193 
f 177 191 193 
f 170 192 193 
f 192 177 193 
f 172 182 194 
f 184 172 194 
f 182 189 194 
f 189 184 194 
f 173 170 195 
f 170 188 195 
f 188 174 195 
f 163 164 196 
f 171 163 196 
f 187 171 196 
f 177 187 196 
f 164 191 196 
f 191 177 196 
f 166 175 197 
f 175 178 197 
f 190 166 197 
f 178 190 197 
f 169 182 198 
f 182 186 198 
f 186 187 198 
f 187 177 198 
f 192 169 198 
f 177 192 198 
f 165 170 199 
f 170 176 199 
f 164 185 199 
f 185 165 199 
f 191 164 199 
f 176 191 199 
f 174 162 200 
f 173 195 200 
f 195 174 200 
f 162 184 201 
f 189 173 201 
f 184 189 201 
f 200 162 201 
o convex_6
v 0.016322 -0.020105 -0.022844
v 0.031809 -0.012360 0.009416
v 0.031809 -0.013006 0.009416
v 0.027289 -0.013006 0.006835
v 0.021487 -0.028493 -0.007359
v 0.015031 -0.012360 -0.022844
v 0.020196 -0.014298 -0.020262
v 0.024062 -0.028493 -0.008646
v 0.029871 -0.019460 0.009416
v 0.018260 -0.012360 -0.024134
v 0.029226 -0.013006 0.001672
v 0.017614 -0.018814 -0.024134
v 0.031164 -0.019460 0.008769
v 0.028580 -0.018814 0.009416
v 0.019550 -0.027201 -0.013165
v 0.015031 -0.018814 -0.023487
v 0.028580 -0.012360 0.009416
v 0.022132 -0.027201 -0.013165
f 209 216 219 
f 206 205 207 
f 204 203 210 
f 206 209 210 
f 207 203 211 
f 203 204 212 
f 209 208 212 
f 211 203 212 
f 208 211 212 
f 211 208 213 
f 204 210 214 
f 210 209 214 
f 212 204 214 
f 209 212 214 
f 205 206 215 
f 210 203 215 
f 206 210 215 
f 209 206 216 
f 206 207 217 
f 207 211 217 
f 213 202 217 
f 211 213 217 
f 202 216 217 
f 216 206 217 
f 203 207 218 
f 207 205 218 
f 215 203 218 
f 205 215 218 
f 208 209 219 
f 202 213 219 
f 213 208 219 
f 216 202 219 
o convex_7
v 0.031161 0.007642 0.008772
v -0.012073 -0.012360 -0.024134
v -0.012073 -0.012360 0.009413
v -0.012073 0.009581 -0.024134
v 0.018257 -0.012360 -0.024134
v -0.012073 0.009581 0.009413
v 0.031809 -0.012360 0.009419
v 0.015676 0.008934 -0.024134
v 0.025997 0.009581 0.009413
v 0.018901 0.005060 -0.023487
v 0.031161 0.005062 0.006191
v 0.012450 0.009581 -0.024134
v 0.027935 -0.012360 -0.001554
v 0.017613 0.007642 -0.024134
v 0.029228 0.008934 0.009419
v 0.020834 -0.003967 -0.018971
v 0.031809 -0.012360 0.008125
v 0.031809 0.006351 0.009419
f 236 230 237 
f 221 222 223 
f 222 221 224 
f 221 223 224 
f 223 222 225 
f 222 224 226 
f 224 223 227 
f 223 225 228 
f 227 223 231 
f 223 228 231 
f 226 224 232 
f 227 220 233 
f 224 227 233 
f 229 224 233 
f 220 230 233 
f 230 229 233 
f 225 222 234 
f 222 226 234 
f 220 227 234 
f 228 225 234 
f 227 231 234 
f 231 228 234 
f 224 229 235 
f 229 230 235 
f 232 224 235 
f 230 232 235 
f 226 232 236 
f 232 230 236 
f 230 220 237 
f 220 234 237 
f 234 226 237 
f 226 236 237 
o convex_8
v 0.020189 0.008931 0.035230
v -0.012073 -0.012356 0.009419
v 0.013738 -0.016875 0.032649
v -0.012073 0.009578 0.048139
v 0.028582 0.008931 0.009419
v -0.012073 0.009578 0.009419
v -0.012073 -0.016875 0.046846
v 0.028582 -0.012356 0.009419
v 0.028582 -0.016875 0.030064
v 0.028582 0.009578 0.031356
v 0.027933 -0.016875 0.026842
v -0.009490 -0.016875 0.046198
v 0.025999 0.009578 0.009419
v 0.027933 -0.016875 0.030712
v -0.012073 -0.016875 0.043621
v -0.009490 0.008931 0.047491
v 0.027933 0.009578 0.032004
v 0.012449 -0.016875 0.037167
f 253 249 255 
f 242 239 243 
f 239 241 243 
f 241 239 244 
f 239 242 245 
f 245 242 246 
f 244 240 246 
f 243 241 247 
f 246 242 247 
f 240 239 248 
f 239 245 248 
f 245 246 248 
f 246 240 248 
f 244 246 249 
f 242 243 250 
f 247 242 250 
f 243 247 250 
f 246 247 251 
f 249 246 251 
f 239 240 252 
f 240 244 252 
f 244 239 252 
f 241 244 253 
f 244 249 253 
f 247 241 254 
f 238 251 254 
f 251 247 254 
f 241 253 254 
f 253 238 254 
f 251 238 255 
f 249 251 255 
f 238 253 255 
o convex_9
v -0.004325 0.028293 0.048136
v 0.027934 0.009581 0.017163
v 0.027934 0.010873 0.017163
v 0.027934 0.016680 0.039748
v -0.012073 0.009581 0.048136
v -0.012073 0.018616 0.035238
v 0.028582 0.028293 0.025554
v -0.012073 0.021842 0.055883
v -0.011424 0.009581 0.033298
v -0.012073 0.028293 0.041681
v 0.028582 0.026356 0.037167
v 0.028582 0.009581 0.031361
v 0.027289 0.023775 0.021037
v -0.010135 0.013454 0.053942
v 0.028582 0.028941 0.032649
v 0.026644 0.012166 0.037812
v -0.012073 0.028941 0.048780
v -0.012073 0.025713 0.038456
v -0.010780 0.025713 0.053942
v 0.024710 0.021842 0.041037
v -0.011424 0.016035 0.055883
v 0.028582 0.017970 0.018456
v 0.026644 0.028941 0.027491
v 0.027289 0.027648 0.024266
v 0.028582 0.014099 0.038456
v 0.024710 0.017970 0.019748
v -0.012073 0.012808 0.033946
v -0.010780 0.020551 0.055883
v -0.010135 0.021194 0.035238
v -0.010135 0.012166 0.052654
v -0.012073 0.028941 0.043618
v 0.027934 0.023775 0.039100
v -0.003035 0.009581 0.044910
v -0.010135 0.022486 0.055235
v 0.028582 0.009581 0.017163
v 0.025355 0.025713 0.022973
f 273 279 291 
f 261 260 263 
f 258 257 264 
f 257 260 264 
f 261 263 265 
f 260 257 267 
f 262 266 267 
f 266 262 270 
f 256 266 270 
f 265 263 272 
f 256 270 272 
f 261 265 273 
f 266 256 274 
f 256 272 274 
f 272 263 274 
f 263 260 276 
f 262 267 277 
f 268 262 277 
f 270 262 278 
f 272 270 278 
f 262 268 279 
f 273 265 279 
f 278 262 279 
f 265 278 279 
f 267 266 280 
f 271 267 280 
f 269 271 280 
f 259 276 280 
f 276 269 280 
f 277 258 281 
f 268 277 281 
f 260 261 282 
f 258 264 282 
f 264 260 282 
f 281 258 282 
f 261 281 282 
f 259 275 283 
f 263 276 283 
f 276 259 283 
f 261 273 284 
f 273 268 284 
f 281 261 284 
f 268 281 284 
f 271 269 285 
f 276 260 285 
f 269 276 285 
f 265 272 286 
f 278 265 286 
f 272 278 286 
f 266 274 287 
f 275 259 287 
f 259 280 287 
f 280 266 287 
f 260 267 288 
f 267 271 288 
f 285 260 288 
f 271 285 288 
f 274 263 289 
f 263 283 289 
f 283 275 289 
f 287 274 289 
f 275 287 289 
f 257 258 290 
f 267 257 290 
f 258 277 290 
f 277 267 290 
f 268 273 291 
f 279 268 291 
o convex_10
v 0.028585 0.027004 0.035877
v 0.049229 0.016680 0.026201
v 0.049229 0.014746 0.026201
v 0.029231 0.008936 0.016518
v 0.028585 0.013453 0.037813
v 0.035038 0.027648 0.022326
v 0.046650 0.012163 0.030711
v 0.038263 0.025065 0.033938
v 0.028585 0.025713 0.021683
v 0.028585 0.008936 0.031359
v 0.042133 0.008936 0.021039
v 0.033746 0.017971 0.017164
v 0.048584 0.018619 0.023620
v 0.029876 0.019905 0.039104
v 0.037618 0.028292 0.029424
v 0.028585 0.028941 0.026847
v 0.033101 0.008936 0.015873
v 0.047295 0.016680 0.030711
v 0.048584 0.011518 0.023620
v 0.045359 0.010872 0.030069
v 0.035038 0.024423 0.019745
v 0.028585 0.012811 0.017164
v 0.046650 0.019257 0.029424
v 0.036974 0.028292 0.024907
v 0.040197 0.008936 0.027488
v 0.037618 0.020548 0.035877
v 0.029231 0.016036 0.039104
v 0.028585 0.023775 0.038458
v 0.030521 0.028941 0.032002
v 0.029876 0.020548 0.018458
v 0.036974 0.027648 0.032002
f 306 320 322 
f 296 292 300 
f 296 300 301 
f 301 295 302 
f 293 294 304 
f 300 292 307 
f 297 300 307 
f 302 295 308 
f 303 304 308 
f 294 293 309 
f 298 294 309 
f 294 298 310 
f 304 294 310 
f 302 308 310 
f 308 304 310 
f 298 296 311 
f 296 301 311 
f 310 298 311 
f 302 310 311 
f 300 297 312 
f 304 303 312 
f 297 304 312 
f 295 301 313 
f 301 300 313 
f 308 295 313 
f 303 308 313 
f 293 304 314 
f 304 306 314 
f 309 293 314 
f 299 309 314 
f 304 297 315 
f 306 304 315 
f 297 307 315 
f 301 302 316 
f 311 301 316 
f 302 311 316 
f 298 309 317 
f 309 299 317 
f 296 298 318 
f 298 317 318 
f 317 305 318 
f 292 296 319 
f 299 292 319 
f 305 317 319 
f 317 299 319 
f 296 318 319 
f 318 305 319 
f 307 292 320 
f 306 315 320 
f 315 307 320 
f 300 312 321 
f 312 303 321 
f 313 300 321 
f 303 313 321 
f 292 299 322 
f 299 314 322 
f 314 306 322 
f 320 292 322 
o convex_11
v -0.046275 -0.033008 -0.016394
v -0.056600 -0.038170 -0.020265
v -0.055309 -0.037525 -0.022846
v -0.054019 -0.017527 -0.019620
v -0.048212 -0.018172 -0.022846
v -0.052728 -0.017527 -0.013812
v -0.055309 -0.038815 -0.015104
v -0.050148 -0.038170 -0.024138
v -0.046275 -0.017527 -0.015749
v -0.050793 -0.041400 -0.018330
v -0.050793 -0.033653 -0.014458
v -0.046922 -0.029783 -0.020265
v -0.054664 -0.041400 -0.020265
v -0.052728 -0.017527 -0.021556
v -0.056600 -0.035590 -0.018975
v -0.047567 -0.037525 -0.017039
v -0.046275 -0.017527 -0.018330
v -0.048212 -0.033653 -0.022846
v -0.051438 -0.041400 -0.022201
v -0.047567 -0.029783 -0.015104
v -0.051438 -0.036880 -0.024138
f 336 327 343 
f 325 324 326 
f 326 328 331 
f 328 329 333 
f 324 325 335 
f 329 324 335 
f 332 329 335 
f 325 326 336 
f 326 331 336 
f 326 324 337 
f 328 326 337 
f 324 329 337 
f 329 328 337 
f 329 332 338 
f 333 329 338 
f 323 333 338 
f 331 323 339 
f 323 334 339 
f 334 327 339 
f 327 336 339 
f 336 331 339 
f 330 327 340 
f 334 323 340 
f 327 334 340 
f 323 338 340 
f 338 330 340 
f 325 330 341 
f 335 325 341 
f 332 335 341 
f 330 338 341 
f 338 332 341 
f 323 331 342 
f 331 328 342 
f 328 333 342 
f 333 323 342 
f 330 325 343 
f 327 330 343 
f 325 336 343 
o convex_12
v -0.054019 -0.016877 -0.017685
v -0.036595 -0.016877 -0.026719
v -0.036595 -0.012360 -0.026719
v -0.048211 -0.016877 -0.008652
v -0.051435 -0.012360 -0.008652
v -0.050789 -0.012360 -0.020909
v -0.035950 -0.012360 -0.023489
v -0.050789 -0.017523 -0.022198
v -0.035950 -0.016877 -0.023489
v -0.048211 -0.012360 -0.008652
v -0.052728 -0.017523 -0.013814
v -0.045626 -0.017523 -0.015750
v -0.051435 -0.016877 -0.008652
v -0.052082 -0.012360 -0.019618
f 349 351 357 
f 348 346 349 
f 345 346 350 
f 346 348 350 
f 346 345 351 
f 349 346 351 
f 345 350 352 
f 350 347 352 
f 348 347 353 
f 347 350 353 
f 350 348 353 
f 344 351 354 
f 351 345 355 
f 345 352 355 
f 352 347 355 
f 347 354 355 
f 354 351 355 
f 348 344 356 
f 347 348 356 
f 344 354 356 
f 354 347 356 
f 344 348 357 
f 348 349 357 
f 351 344 357 
o convex_13
v -0.038533 0.025062 -0.033814
v -0.035950 0.030231 -0.008650
v -0.035950 0.030231 -0.010586
v -0.035950 -0.012356 -0.008650
v -0.054661 0.030231 -0.008652
v -0.052082 -0.012356 -0.019623
v -0.035950 -0.012356 -0.026717
v -0.050791 0.016031 -0.029943
v -0.051435 -0.012356 -0.008652
v -0.035950 0.016031 -0.035753
v -0.050791 0.030231 -0.021554
v -0.035950 0.028939 -0.028654
v -0.054661 0.030231 -0.014460
v -0.050791 0.025062 -0.028654
v -0.044986 -0.012356 -0.023488
v -0.037241 0.021193 -0.035753
v -0.052082 -0.012356 -0.011879
v -0.036597 0.016031 -0.035753
v -0.035950 0.027646 -0.031880
v -0.054661 0.025062 -0.010586
v -0.050791 0.021839 -0.029943
v -0.050791 -0.012356 -0.020915
v -0.049501 0.027646 -0.026717
v -0.041760 0.030231 -0.019623
v -0.054661 0.027646 -0.014460
v -0.038533 -0.012356 -0.026072
f 372 375 383 
f 360 359 361 
f 359 360 362 
f 361 359 362 
f 360 361 364 
f 361 363 364 
f 361 362 366 
f 363 361 366 
f 360 364 367 
f 362 360 368 
f 360 367 369 
f 362 368 370 
f 370 368 371 
f 364 363 372 
f 363 366 374 
f 367 364 375 
f 372 365 375 
f 365 373 375 
f 373 367 375 
f 369 367 376 
f 368 369 376 
f 367 373 376 
f 373 358 376 
f 366 362 377 
f 362 370 377 
f 363 374 377 
f 374 366 377 
f 365 370 378 
f 370 371 378 
f 371 358 378 
f 373 365 378 
f 358 373 378 
f 363 365 379 
f 372 363 379 
f 365 372 379 
f 371 368 380 
f 358 371 380 
f 368 376 380 
f 376 358 380 
f 368 360 381 
f 360 369 381 
f 369 368 381 
f 365 363 382 
f 370 365 382 
f 377 370 382 
f 363 377 382 
f 364 372 383 
f 375 364 383 
o convex_14
v -0.041114 0.030234 -0.018974
v -0.056600 0.048942 -0.009942
v -0.056600 0.048942 -0.008650
v -0.037243 0.050235 -0.008650
v -0.048855 0.056685 -0.026717
v -0.054662 0.030234 -0.008650
v -0.050145 0.036686 -0.026073
v -0.035952 0.030234 -0.008650
v -0.044342 0.054105 -0.027361
v -0.045631 0.057331 -0.011877
v -0.053370 0.030234 -0.018330
v -0.055951 0.052169 -0.013814
v -0.037243 0.044426 -0.013814
v -0.050145 0.053459 -0.028009
v -0.044342 0.044426 -0.027361
v -0.055307 0.053459 -0.008650
v -0.044987 0.057977 -0.024782
v -0.050789 0.057977 -0.024136
v -0.037888 0.030234 -0.015104
v -0.051436 0.057331 -0.011877
v -0.050789 0.030234 -0.021555
v -0.045631 0.036043 -0.025425
v -0.050145 0.045073 -0.028009
v -0.054662 0.030880 -0.015104
v -0.046276 0.054751 -0.008650
v -0.035952 0.044426 -0.010586
v -0.044987 0.057977 -0.017685
v -0.055307 0.047009 -0.015749
v -0.044342 0.056041 -0.026717
f 409 396 412 
f 386 385 389 
f 387 386 389 
f 387 389 391 
f 389 384 391 
f 384 389 394 
f 385 386 395 
f 397 392 398 
f 386 387 399 
f 395 386 399 
f 388 397 401 
f 397 395 401 
f 395 399 401 
f 400 388 401 
f 391 384 402 
f 392 396 402 
f 384 398 402 
f 398 392 402 
f 401 399 403 
f 384 394 404 
f 394 390 404 
f 398 384 405 
f 390 398 405 
f 384 404 405 
f 404 390 405 
f 390 394 406 
f 398 390 406 
f 397 398 406 
f 389 385 407 
f 394 389 407 
f 387 393 408 
f 399 387 408 
f 393 403 408 
f 403 399 408 
f 387 391 409 
f 391 402 409 
f 402 396 409 
f 393 387 410 
f 387 400 410 
f 400 401 410 
f 403 393 410 
f 401 403 410 
f 385 395 411 
f 395 397 411 
f 406 394 411 
f 397 406 411 
f 407 385 411 
f 394 407 411 
f 396 392 412 
f 397 388 412 
f 392 397 412 
f 400 387 412 
f 388 400 412 
f 387 409 412 
o convex_15
v -0.012073 -0.016875 -0.037041
v 0.005351 0.009578 -0.024140
v 0.005351 0.009578 -0.044786
v 0.005351 -0.016875 -0.038977
v -0.012073 0.009578 -0.038332
v -0.012073 -0.012356 -0.024140
v 0.005351 -0.012356 -0.024140
v -0.012073 0.009578 -0.024140
v 0.004704 -0.012356 -0.043494
v -0.010782 -0.016875 -0.033819
v 0.002124 0.008931 -0.044139
v -0.000458 -0.016875 -0.041558
v 0.005351 -0.016875 -0.041558
f 424 421 425 
f 415 414 416 
f 414 415 417 
f 417 413 418 
f 416 414 419 
f 414 418 419 
f 414 417 420 
f 418 414 420 
f 417 418 420 
f 413 416 422 
f 418 413 422 
f 419 418 422 
f 416 419 422 
f 413 417 423 
f 417 415 423 
f 415 421 423 
f 423 421 424 
f 416 413 424 
f 413 423 424 
f 416 424 425 
f 415 416 425 
f 421 415 425 
o convex_16
v 0.008579 -0.017523 -0.047367
v 0.012448 0.008290 -0.034465
v 0.005351 0.008290 -0.034465
v 0.011804 0.003772 -0.051884
v 0.013094 -0.017523 -0.034465
v 0.018257 -0.009131 -0.053820
v 0.005351 -0.017523 -0.040918
v 0.005351 0.008290 -0.044791
v 0.011804 -0.009776 -0.055758
v 0.015029 0.008290 -0.045430
v 0.015674 -0.001390 -0.037047
v 0.005351 -0.012358 -0.034465
v 0.016965 -0.015585 -0.050593
v 0.018257 -0.003972 -0.053174
v 0.010514 -0.014940 -0.053174
v 0.015674 -0.007196 -0.037047
v 0.005351 -0.012358 -0.043500
v 0.011804 -0.003330 -0.055110
v 0.015029 -0.017523 -0.045430
v 0.016321 0.005064 -0.048657
v 0.009870 0.005064 -0.051237
v 0.017612 -0.014291 -0.050593
v 0.010514 -0.017523 -0.034465
v 0.018257 -0.009776 -0.051884
v 0.008579 0.008290 -0.047367
v 0.013738 -0.008487 -0.034465
f 441 436 451 
f 427 428 430 
f 426 430 432 
f 428 427 433 
f 432 428 433 
f 433 427 435 
f 435 427 436 
f 430 428 437 
f 428 432 437 
f 434 431 438 
f 426 432 440 
f 433 434 440 
f 438 426 440 
f 434 438 440 
f 432 433 442 
f 440 432 442 
f 433 440 442 
f 434 433 443 
f 431 434 443 
f 429 439 443 
f 439 431 443 
f 430 426 444 
f 426 438 444 
f 438 430 444 
f 435 436 445 
f 439 429 445 
f 436 439 445 
f 429 443 446 
f 443 433 446 
f 445 429 446 
f 435 445 446 
f 430 438 447 
f 438 431 447 
f 441 430 447 
f 432 430 448 
f 430 437 448 
f 437 432 448 
f 431 439 449 
f 439 436 449 
f 436 441 449 
f 447 431 449 
f 441 447 449 
f 433 435 450 
f 446 433 450 
f 435 446 450 
f 427 430 451 
f 436 427 451 
f 430 441 451 
o convex_17
v 0.010514 0.015388 -0.034462
v 0.005351 -0.012357 -0.034462
v 0.011160 -0.019457 -0.034462
v 0.005351 -0.012357 -0.024139
v 0.018257 0.005061 -0.024139
v 0.005351 0.009581 -0.024139
v 0.016965 -0.018811 -0.024139
v 0.005351 0.021842 -0.034462
v 0.014384 -0.013649 -0.033816
v 0.015029 0.004415 -0.032526
v 0.016321 0.008284 -0.024139
v 0.018257 -0.012357 -0.024784
v 0.012448 -0.020749 -0.029300
v 0.014384 -0.020749 -0.031880
v 0.006642 0.021842 -0.033816
v 0.013738 -0.006545 -0.034462
v 0.012448 0.009581 -0.024139
v 0.017612 0.006992 -0.024784
v 0.017612 0.004415 -0.026719
f 469 456 470 
f 454 453 452 
f 453 454 455 
f 453 455 457 
f 455 456 457 
f 456 455 458 
f 452 453 459 
f 453 457 459 
f 457 456 462 
f 456 458 463 
f 455 454 464 
f 458 455 464 
f 458 464 465 
f 454 460 465 
f 463 458 465 
f 460 463 465 
f 464 454 465 
f 452 459 466 
f 459 457 466 
f 454 452 467 
f 460 454 467 
f 452 461 467 
f 461 460 467 
f 457 462 468 
f 466 457 468 
f 462 466 468 
f 462 456 469 
f 452 466 469 
f 466 462 469 
f 461 452 470 
f 460 461 470 
f 456 463 470 
f 463 460 470 
f 452 469 470 
o convex_18
v 0.034390 -0.027199 0.019101
v 0.029229 0.008936 0.031360
v 0.028582 0.008936 0.031360
v 0.028582 0.008936 0.009419
v 0.034390 0.008936 0.016522
v 0.029229 -0.019459 0.009419
v 0.028582 -0.016871 0.030070
v 0.034390 -0.036882 0.025549
v 0.034390 0.008936 0.028779
v 0.032453 -0.013014 0.009419
v 0.032453 0.005061 0.009419
v 0.034390 -0.013655 0.014582
v 0.033745 -0.036882 0.024258
v 0.028582 -0.012363 0.009419
v 0.031164 -0.019459 0.009419
v 0.033745 0.007644 0.029423
v 0.029229 -0.016871 0.030070
v 0.029229 -0.020100 0.010066
v 0.033099 -0.034945 0.025549
f 477 488 489 
f 473 472 474 
f 474 472 475 
f 472 473 477 
f 473 474 477 
f 471 475 478 
f 475 472 479 
f 478 475 479 
f 476 474 480 
f 474 475 481 
f 480 474 481 
f 480 481 482 
f 475 471 482 
f 471 480 482 
f 481 475 482 
f 471 478 483 
f 474 476 484 
f 477 474 484 
f 480 471 485 
f 476 480 485 
f 471 483 485 
f 483 476 485 
f 479 472 486 
f 478 479 486 
f 472 477 487 
f 477 478 487 
f 486 472 487 
f 478 486 487 
f 476 483 488 
f 484 476 488 
f 477 484 488 
f 478 477 489 
f 483 478 489 
f 488 483 489 
o convex_19
v 0.016319 0.014744 -0.053173
v 0.006642 0.023129 -0.034465
v 0.006642 0.024423 -0.035111
v 0.005351 0.014102 -0.051239
v 0.012448 0.008290 -0.034465
v 0.005351 0.027649 -0.048012
v 0.016965 0.019905 -0.048658
v 0.005351 0.008290 -0.034465
v 0.008578 0.008290 -0.047366
v 0.010515 0.025710 -0.038982
v 0.017612 0.011520 -0.051239
v 0.011161 0.013453 -0.054466
v 0.005351 0.028294 -0.038982
v 0.011802 0.017971 -0.054466
v 0.011161 0.020548 -0.035757
v 0.008578 0.028294 -0.044145
v 0.017612 0.018615 -0.051883
v 0.015030 0.008290 -0.045431
v 0.005351 0.008290 -0.045431
v 0.005351 0.023129 -0.051239
v 0.010515 0.010872 -0.052529
v 0.005351 0.023129 -0.034465
v 0.011802 0.014744 -0.034465
v 0.006642 0.027649 -0.048012
f 503 509 513 
f 494 491 497 
f 495 493 497 
f 494 497 498 
f 496 494 500 
f 490 500 501 
f 495 497 502 
f 492 499 502 
f 490 501 503 
f 492 491 504 
f 499 492 504 
f 496 499 504 
f 499 496 505 
f 495 502 505 
f 502 499 505 
f 500 490 506 
f 496 500 506 
f 490 503 506 
f 505 496 506 
f 494 498 507 
f 500 494 507 
f 497 493 508 
f 498 497 508 
f 493 495 509 
f 501 493 509 
f 503 501 509 
f 501 500 510 
f 493 501 510 
f 507 498 510 
f 500 507 510 
f 508 493 510 
f 498 508 510 
f 491 492 511 
f 497 491 511 
f 492 502 511 
f 502 497 511 
f 491 494 512 
f 494 496 512 
f 504 491 512 
f 496 504 512 
f 495 505 513 
f 506 503 513 
f 505 506 513 
f 509 495 513 
o convex_20
v 0.042778 -0.017525 0.021681
v 0.034390 -0.039460 0.024906
v 0.035036 -0.039460 0.022972
v 0.034390 -0.016880 0.018454
v 0.036327 -0.016880 0.026843
v 0.042778 -0.040106 0.021681
v 0.043425 -0.023334 0.028779
v 0.039554 -0.039460 0.028133
v 0.037618 -0.037523 0.019100
v 0.045361 -0.020754 0.022326
v 0.034390 -0.016880 0.025552
v 0.036327 -0.041400 0.026843
v 0.040198 -0.016880 0.027487
v 0.034390 -0.028497 0.018454
v 0.040842 -0.041400 0.020390
v 0.037618 -0.016880 0.019100
v 0.043425 -0.037523 0.022972
v 0.040842 -0.020108 0.028779
v 0.040198 -0.040752 0.027487
v 0.045361 -0.020754 0.024261
v 0.036327 -0.040106 0.020390
f 528 525 534 
f 517 515 524 
f 518 517 524 
f 518 524 525 
f 524 515 525 
f 517 518 526 
f 516 515 527 
f 515 517 527 
f 517 522 527 
f 523 519 528 
f 522 517 529 
f 514 523 529 
f 526 514 529 
f 517 526 529 
f 528 522 529 
f 523 528 529 
f 519 523 530 
f 521 520 531 
f 518 525 531 
f 525 521 531 
f 526 518 531 
f 520 526 531 
f 520 521 532 
f 521 525 532 
f 528 519 532 
f 525 528 532 
f 519 530 532 
f 530 520 532 
f 523 514 533 
f 514 526 533 
f 526 520 533 
f 520 530 533 
f 530 523 533 
f 515 516 534 
f 525 515 534 
f 516 527 534 
f 527 522 534 
f 522 528 534 
o convex_21
v 0.048587 -0.004615 0.030069
v 0.034390 -0.016877 0.018456
v 0.035682 -0.016877 0.018456
v 0.034390 0.008289 0.016518
v 0.034390 0.008936 0.028777
v 0.046651 0.003771 0.022972
v 0.036327 -0.016877 0.026843
v 0.048587 -0.014295 0.023616
v 0.038263 -0.007195 0.015873
v 0.046005 -0.013651 0.030715
v 0.040199 0.008936 0.027488
v 0.034390 -0.012360 0.027488
v 0.050524 -0.005906 0.024905
v 0.042135 0.008936 0.021038
v 0.048587 -0.009130 0.031360
v 0.038263 -0.000747 0.015873
v 0.035036 -0.013001 0.015873
v 0.044715 0.003771 0.029424
v 0.044069 -0.016877 0.024261
v 0.045360 -0.015586 0.030069
v 0.046651 0.003771 0.024905
v 0.036327 0.008936 0.017164
v 0.045360 -0.016228 0.022328
v 0.050524 -0.009777 0.026195
v 0.049878 -0.003329 0.024261
v 0.047296 -0.005906 0.031360
f 552 539 560 
f 538 536 539 
f 536 537 541 
f 539 536 546 
f 536 541 546 
f 544 539 546 
f 539 545 548 
f 548 540 550 
f 537 536 551 
f 536 538 551 
f 538 550 551 
f 550 543 551 
f 545 539 552 
f 541 537 553 
f 546 541 554 
f 544 546 554 
f 549 544 554 
f 541 553 554 
f 553 542 554 
f 540 548 555 
f 548 545 555 
f 552 535 555 
f 545 552 555 
f 538 539 556 
f 539 548 556 
f 550 538 556 
f 548 550 556 
f 543 542 557 
f 537 551 557 
f 551 543 557 
f 553 537 557 
f 542 553 557 
f 547 535 558 
f 542 547 558 
f 535 549 558 
f 549 554 558 
f 554 542 558 
f 542 543 559 
f 535 547 559 
f 547 542 559 
f 543 550 559 
f 550 540 559 
f 555 535 559 
f 540 555 559 
f 539 544 560 
f 549 535 560 
f 544 549 560 
f 535 552 560 
o convex_22
v 0.009224 -0.040105 -0.048012
v 0.013093 -0.017527 -0.034463
v 0.010514 -0.017527 -0.034463
v 0.011158 -0.020752 -0.050594
v 0.015031 -0.040750 -0.044141
v 0.005996 -0.036235 -0.040918
v 0.005351 -0.017527 -0.040918
v 0.016321 -0.020752 -0.048012
v 0.013093 -0.040105 -0.039628
v 0.007932 -0.017527 -0.046722
v 0.007287 -0.041400 -0.045431
v 0.015031 -0.017527 -0.045431
v 0.015031 -0.036235 -0.046722
v 0.009224 -0.026560 -0.049948
v 0.005351 -0.022042 -0.038982
v 0.010514 -0.020107 -0.034463
v 0.007287 -0.040105 -0.041564
v 0.011158 -0.023332 -0.050594
f 574 564 578 
f 563 562 567 
f 562 565 568 
f 565 562 569 
f 567 562 570 
f 561 565 571 
f 566 567 571 
f 565 569 571 
f 568 564 572 
f 562 568 572 
f 564 570 572 
f 570 562 572 
f 565 561 573 
f 568 565 573 
f 570 564 574 
f 567 570 574 
f 561 571 574 
f 571 567 574 
f 567 566 575 
f 563 567 575 
f 562 563 576 
f 569 562 576 
f 563 575 576 
f 575 566 576 
f 566 571 577 
f 571 569 577 
f 569 576 577 
f 576 566 577 
f 564 568 578 
f 573 561 578 
f 568 573 578 
f 561 574 578 
