o convex_0
v -0.015408 -0.005734 0.046637
v -0.005540 0.007173 0.059545
v -0.005540 0.022355 0.058784
v -0.002501 -0.005734 0.043599
v -0.017688 0.026912 0.043599
v -0.002501 0.026912 0.043599
v -0.016169 0.000341 0.058027
v -0.013891 0.024633 0.057267
v -0.003261 0.000341 0.058027
v -0.017688 -0.004973 0.043599
v -0.007817 -0.003455 0.058027
v -0.002501 0.021594 0.056508
v -0.016928 0.020076 0.056508
v -0.007057 0.026151 0.056508
v -0.014649 0.004137 0.059545
v -0.017688 -0.004973 0.048916
v -0.017688 0.026912 0.047397
v -0.002501 -0.005734 0.047397
v -0.014649 0.020076 0.058784
v -0.010095 -0.001937 0.059545
v -0.002501 0.026912 0.048157
v -0.002501 0.001859 0.057267
v -0.011612 -0.003455 0.058027
v -0.016928 0.001101 0.057267
v -0.004780 0.001101 0.059545
v -0.012372 0.026151 0.056508
f 21 17 26 
f 4 5 6 
f 4 1 10 
f 5 4 10 
f 4 6 12 
f 3 12 14 
f 10 1 16 
f 5 10 16 
f 16 13 17 
f 6 5 17 
f 13 8 17 
f 5 16 17 
f 1 4 18 
f 9 11 18 
f 4 12 18 
f 2 3 19 
f 3 8 19 
f 8 13 19 
f 15 2 19 
f 13 15 19 
f 2 15 20 
f 15 7 20 
f 12 6 21 
f 14 12 21 
f 6 17 21 
f 9 18 22 
f 18 12 22 
f 16 1 23 
f 7 16 23 
f 1 18 23 
f 18 11 23 
f 11 20 23 
f 20 7 23 
f 7 15 24 
f 15 13 24 
f 16 7 24 
f 13 16 24 
f 3 2 25 
f 11 9 25 
f 12 3 25 
f 2 20 25 
f 20 11 25 
f 9 22 25 
f 22 12 25 
f 8 3 26 
f 3 14 26 
f 17 8 26 
f 14 21 26 
o convex_1
v -0.002501 -0.005737 0.043599
v 0.010406 0.004895 0.070176
v 0.009645 0.004895 0.070176
v -0.002501 0.026912 0.043599
v 0.014964 -0.004975 0.043599
v 0.014964 0.026912 0.043599
v -0.000222 0.024636 0.066375
v 0.001296 -0.001940 0.067897
v 0.013444 0.021598 0.066375
v 0.014964 -0.004216 0.059541
v 0.007370 0.027674 0.065616
v -0.000981 0.001098 0.067897
v -0.002501 0.026912 0.057262
v 0.005852 0.024636 0.068657
v 0.014203 0.027674 0.058025
v -0.001740 -0.004216 0.059541
v 0.008129 -0.002699 0.068657
v 0.013444 0.002616 0.067897
v 0.000537 0.006413 0.069417
v 0.013444 -0.004975 0.059541
v 0.014964 0.022356 0.058025
v -0.000981 0.027674 0.048160
v 0.010406 0.023877 0.068657
v -0.002501 0.003378 0.055751
v 0.000537 -0.004975 0.059541
v -0.000981 0.020839 0.067135
v 0.003575 -0.000419 0.070176
v 0.014203 -0.005737 0.046638
v 0.000537 0.020839 0.068657
v -0.001740 0.027674 0.058025
v 0.014203 0.027674 0.048160
v 0.011167 0.000340 0.069417
v 0.002816 0.026912 0.066375
v -0.002501 -0.005737 0.047397
f 54 46 60 
f 27 30 31 
f 31 30 32 
f 31 32 36 
f 30 27 39 
f 29 28 40 
f 34 38 42 
f 36 43 46 
f 36 32 47 
f 32 41 47 
f 41 35 47 
f 35 44 47 
f 44 36 47 
f 32 30 48 
f 37 41 48 
f 40 28 49 
f 37 40 49 
f 35 41 49 
f 41 37 49 
f 28 44 49 
f 44 35 49 
f 39 27 50 
f 38 39 50 
f 42 38 50 
f 34 42 51 
f 43 34 51 
f 46 43 51 
f 33 39 52 
f 39 38 52 
f 38 45 52 
f 28 29 53 
f 38 34 53 
f 34 43 53 
f 45 38 53 
f 27 31 54 
f 31 36 54 
f 36 46 54 
f 29 40 55 
f 33 52 55 
f 52 45 55 
f 53 29 55 
f 45 53 55 
f 30 39 56 
f 39 33 56 
f 48 30 56 
f 37 48 56 
f 41 32 57 
f 32 48 57 
f 48 41 57 
f 43 36 58 
f 44 28 58 
f 36 44 58 
f 28 53 58 
f 53 43 58 
f 40 37 59 
f 55 40 59 
f 33 55 59 
f 56 33 59 
f 37 56 59 
f 50 27 60 
f 42 50 60 
f 51 42 60 
f 46 51 60 
f 27 54 60 
o convex_2
v 0.010408 -0.032318 0.026134
v -0.013891 -0.036109 0.017783
v -0.013131 -0.036869 0.012467
v 0.003572 -0.048260 0.023096
v 0.011926 -0.033075 0.012467
v -0.004018 -0.020924 0.017024
v -0.010093 -0.037626 0.027651
v -0.004018 -0.045978 0.012467
v -0.007055 -0.047500 0.022335
v 0.007370 -0.023206 0.020820
v -0.011612 -0.026241 0.021577
v -0.007816 -0.024724 0.012467
v 0.000534 -0.042183 0.029170
v -0.001738 -0.028521 0.026134
v 0.008128 -0.042943 0.013228
v 0.009647 -0.042943 0.021577
v 0.006609 -0.026241 0.012467
v 0.007367 -0.039146 0.028411
v -0.013131 -0.026241 0.018542
v -0.013131 -0.036109 0.025373
v 0.009647 -0.023969 0.018542
v 0.011926 -0.030798 0.023854
v 0.000534 -0.046740 0.012467
v 0.002811 -0.031558 0.027651
v -0.004018 -0.022444 0.020820
v -0.010093 -0.044458 0.020059
v 0.002053 -0.020924 0.017024
v -0.003257 -0.042183 0.029170
v -0.008572 -0.043698 0.012467
v -0.010093 -0.033835 0.026894
v -0.001738 -0.037626 0.029170
v -0.009335 -0.022444 0.018542
v -0.002499 -0.048260 0.023854
v -0.013891 -0.030798 0.023096
v 0.006609 -0.046740 0.023096
v 0.005090 -0.024724 0.023096
v 0.011166 -0.035344 0.025373
v 0.011926 -0.035344 0.013228
v 0.005090 -0.045218 0.012467
v -0.013131 -0.033840 0.012467
v -0.010851 -0.039146 0.026894
v 0.011166 -0.027001 0.022335
v 0.011926 -0.036109 0.020820
v -0.007055 -0.025486 0.023096
v 0.004330 -0.037626 0.029170
v -0.004776 -0.048260 0.021577
v 0.008128 -0.022444 0.017783
v -0.010854 -0.023969 0.016264
v 0.003572 -0.021684 0.020059
v -0.007055 -0.041424 0.028411
v 0.008128 -0.031558 0.026894
f 84 105 111 
f 63 65 68 
f 65 63 72 
f 65 72 77 
f 68 65 83 
f 62 63 86 
f 80 62 86 
f 72 66 87 
f 77 72 87 
f 63 68 89 
f 68 69 89 
f 86 63 89 
f 69 86 89 
f 80 67 90 
f 84 74 91 
f 67 88 91 
f 88 73 91 
f 74 90 91 
f 90 67 91 
f 79 71 92 
f 85 66 92 
f 64 73 93 
f 73 88 93 
f 79 62 94 
f 71 79 94 
f 62 80 94 
f 90 71 94 
f 80 90 94 
f 73 64 95 
f 75 76 95 
f 78 73 95 
f 76 78 95 
f 74 84 96 
f 85 74 96 
f 61 78 97 
f 78 76 97 
f 82 61 97 
f 75 65 98 
f 76 75 98 
f 65 82 98 
f 65 75 99 
f 83 65 99 
f 64 83 99 
f 95 64 99 
f 75 95 99 
f 63 62 100 
f 72 63 100 
f 62 79 100 
f 67 80 101 
f 86 69 101 
f 80 86 101 
f 65 81 102 
f 81 70 102 
f 61 82 102 
f 82 65 102 
f 70 96 102 
f 97 76 103 
f 82 97 103 
f 98 82 103 
f 76 98 103 
f 74 85 104 
f 71 90 104 
f 90 74 104 
f 92 71 104 
f 85 92 104 
f 73 78 105 
f 91 73 105 
f 84 91 105 
f 69 68 106 
f 68 83 106 
f 83 64 106 
f 64 93 106 
f 93 69 106 
f 65 77 107 
f 81 65 107 
f 70 81 107 
f 77 87 107 
f 66 72 108 
f 92 66 108 
f 79 92 108 
f 72 100 108 
f 100 79 108 
f 66 85 109 
f 87 66 109 
f 96 70 109 
f 85 96 109 
f 70 107 109 
f 107 87 109 
f 88 67 110 
f 69 93 110 
f 93 88 110 
f 67 101 110 
f 101 69 110 
f 78 61 111 
f 96 84 111 
f 61 102 111 
f 102 96 111 
f 105 78 111 
o convex_3
v -0.017685 -0.005734 0.036765
v 0.014961 0.026912 0.043599
v 0.014961 -0.004973 0.043599
v 0.014961 0.026151 0.036765
v -0.017685 0.026912 0.043599
v -0.016924 0.026912 0.036765
v -0.016924 -0.005734 0.043599
v 0.014961 -0.005734 0.036765
v -0.017685 -0.004973 0.043599
v -0.017685 0.026151 0.036765
v 0.014200 0.026912 0.036765
v 0.014200 -0.005734 0.043599
f 118 119 123 
f 113 114 115 
f 114 113 116 
f 116 113 117 
f 115 112 117 
f 114 116 118 
f 115 114 119 
f 112 115 119 
f 118 112 119 
f 116 112 120 
f 112 118 120 
f 118 116 120 
f 112 116 121 
f 116 117 121 
f 117 112 121 
f 113 115 122 
f 117 113 122 
f 115 117 122 
f 114 118 123 
f 119 114 123 
o convex_4
v -0.009338 -0.066484 -0.018669
v -0.002512 -0.067243 -0.036889
v -0.002512 -0.066484 -0.036889
v 0.021798 -0.065726 -0.017911
v -0.030597 -0.064207 -0.033852
v 0.017239 -0.064207 -0.028536
v -0.027556 -0.064207 -0.019429
v 0.017998 -0.068003 -0.033092
v -0.021478 -0.067243 -0.025503
v 0.021798 -0.064207 -0.017911
v 0.009648 -0.067243 -0.018669
v 0.021798 -0.065726 -0.033092
v -0.010097 -0.068003 -0.034612
v -0.027556 -0.066484 -0.033852
v -0.006297 -0.068003 -0.024745
v 0.021798 -0.067243 -0.021707
v -0.014641 -0.067243 -0.020189
v -0.027556 -0.065726 -0.021707
v 0.006607 -0.068003 -0.036131
v 0.021798 -0.067243 -0.033092
v -0.025278 -0.064207 -0.033852
v 0.005853 -0.064207 -0.017911
f 133 130 145 
f 126 125 128 
f 129 128 130 
f 129 130 133 
f 127 124 134 
f 133 127 135 
f 129 133 135 
f 128 125 137 
f 125 136 137 
f 136 132 137 
f 136 131 138 
f 132 136 138 
f 127 134 139 
f 135 127 139 
f 134 138 139 
f 138 131 139 
f 124 130 140 
f 134 124 140 
f 132 138 140 
f 138 134 140 
f 130 128 141 
f 128 137 141 
f 137 132 141 
f 140 130 141 
f 132 140 141 
f 125 126 142 
f 126 135 142 
f 136 125 142 
f 131 136 142 
f 139 131 143 
f 135 139 143 
f 142 135 143 
f 131 142 143 
f 126 128 144 
f 128 129 144 
f 135 126 144 
f 129 135 144 
f 124 127 145 
f 130 124 145 
f 127 133 145 
o convex_5
v 0.021798 -0.004978 0.010946
v 0.003574 -0.023202 -0.015627
v 0.003574 -0.011055 -0.023982
v 0.003574 -0.004978 0.012466
v 0.021798 -0.023202 0.001830
v 0.021038 -0.004978 -0.023223
v 0.003574 -0.018646 0.012466
v 0.021798 -0.023202 -0.013350
v 0.003574 -0.004978 -0.023982
v 0.021798 -0.020162 0.012466
v 0.003574 -0.023202 0.004870
v 0.017998 -0.009534 -0.023982
v 0.021798 -0.008777 -0.022463
v 0.021798 -0.006498 0.012466
v 0.021038 -0.020924 0.011706
v 0.021798 -0.004978 -0.020943
v 0.020276 -0.008777 -0.023982
v 0.008891 -0.011055 -0.023982
f 157 147 163 
f 148 147 149 
f 149 146 151 
f 149 147 152 
f 146 150 153 
f 150 147 153 
f 148 149 154 
f 149 151 154 
f 150 146 155 
f 149 152 155 
f 147 150 156 
f 152 147 156 
f 153 147 157 
f 148 154 157 
f 146 153 158 
f 146 149 159 
f 155 146 159 
f 149 155 159 
f 150 155 160 
f 155 152 160 
f 152 156 160 
f 156 150 160 
f 151 146 161 
f 146 158 161 
f 158 151 161 
f 154 151 162 
f 153 157 162 
f 157 154 162 
f 151 158 162 
f 158 153 162 
f 147 148 163 
f 148 157 163 
o convex_6
v -0.039707 0.030709 -0.036125
v -0.032115 -0.004978 -0.030053
v -0.024523 -0.004978 -0.030053
v -0.028320 0.038305 0.012466
v -0.024523 0.029192 -0.042203
v -0.029839 -0.004978 0.008666
v -0.040466 0.007932 -0.010318
v -0.023763 0.007932 0.012466
v -0.038948 0.007932 -0.042203
v -0.023763 0.038305 -0.022463
v -0.039707 0.034500 -0.020935
v -0.024523 0.009453 -0.045242
v -0.039707 -0.001940 -0.027775
v -0.023763 0.038305 0.012466
v -0.023763 -0.004978 0.009427
v -0.039707 0.021591 -0.006524
v -0.034393 0.020837 -0.046003
v -0.035910 0.037542 -0.027013
v -0.029079 0.007932 0.012466
v -0.035910 0.001098 -0.039925
v -0.040466 0.016287 -0.039925
v -0.023763 0.007173 -0.030814
v -0.040466 0.028433 -0.013358
v -0.035151 0.032988 -0.038403
v -0.024523 0.036026 -0.033853
v -0.039707 -0.001177 -0.017908
v -0.036670 -0.004978 -0.021696
v -0.024523 -0.001940 -0.036880
v -0.024523 0.020074 -0.046003
v -0.039707 0.010970 -0.006524
v -0.034393 0.038305 -0.012596
v -0.034393 0.013253 -0.046003
v -0.038948 0.022358 -0.042964
v -0.040466 0.002619 -0.032325
v -0.029079 0.033746 0.012466
v -0.023763 -0.004978 -0.020941
v -0.036670 0.028433 -0.042203
v -0.038188 -0.002698 -0.032325
v -0.040466 0.031463 -0.029291
v -0.032115 0.005657 -0.043720
v -0.023763 0.017041 -0.034603
v -0.024523 0.003377 -0.042203
v -0.038188 0.036026 -0.029291
v -0.031358 0.037542 -0.030053
v -0.039707 0.001098 -0.013358
v -0.039707 0.030709 -0.012596
v -0.037429 0.014007 -0.045242
v -0.029839 -0.003457 -0.034608
v -0.039707 0.004894 -0.039164
v -0.026042 0.023875 -0.045242
v -0.039707 0.025396 -0.008041
v -0.028320 0.032230 -0.039925
v -0.036670 0.005657 -0.042964
v -0.029839 -0.003457 0.009427
v -0.039707 0.004894 -0.009557
v -0.032115 0.001098 -0.040681
v -0.035151 -0.004978 -0.011841
v -0.040466 0.001098 -0.023219
v -0.034393 0.038305 -0.020180
v -0.040466 0.016287 -0.008041
v -0.030599 0.028433 -0.042964
v -0.039707 0.033746 -0.017908
v -0.038188 0.031463 -0.038403
v -0.039707 0.025396 -0.040681
f 226 200 227 
f 165 166 169 
f 167 171 177 
f 173 167 177 
f 171 173 177 
f 169 166 178 
f 173 171 178 
f 171 167 182 
f 178 171 182 
f 173 178 185 
f 184 170 186 
f 173 168 188 
f 189 176 190 
f 165 169 190 
f 182 179 193 
f 167 173 194 
f 180 192 195 
f 192 175 195 
f 172 184 196 
f 170 184 197 
f 167 179 198 
f 182 167 198 
f 179 182 198 
f 178 166 199 
f 185 178 199 
f 166 191 199 
f 180 196 200 
f 190 176 201 
f 165 190 201 
f 186 174 202 
f 184 186 202 
f 195 175 203 
f 168 173 204 
f 173 185 204 
f 185 175 204 
f 192 168 204 
f 175 192 204 
f 175 185 205 
f 185 199 205 
f 199 191 205 
f 203 175 205 
f 174 194 206 
f 194 181 206 
f 164 202 206 
f 202 174 206 
f 188 187 207 
f 173 188 207 
f 187 206 207 
f 206 181 207 
f 189 169 208 
f 180 195 210 
f 172 196 210 
f 196 180 210 
f 166 165 211 
f 191 166 211 
f 165 201 211 
f 201 183 211 
f 184 172 212 
f 176 197 212 
f 197 184 212 
f 183 201 212 
f 201 176 212 
f 168 192 213 
f 192 180 213 
f 179 167 214 
f 167 209 214 
f 209 186 214 
f 187 188 215 
f 188 168 215 
f 200 187 215 
f 195 203 216 
f 210 195 216 
f 172 210 216 
f 212 172 216 
f 183 212 216 
f 169 178 217 
f 178 182 217 
f 182 193 217 
f 217 193 218 
f 193 170 218 
f 208 169 218 
f 170 208 218 
f 169 217 218 
f 205 191 219 
f 203 205 219 
f 191 211 219 
f 211 183 219 
f 183 216 219 
f 216 203 219 
f 169 189 220 
f 189 190 220 
f 190 169 220 
f 176 189 221 
f 197 176 221 
f 170 197 221 
f 208 170 221 
f 189 208 221 
f 194 173 222 
f 181 194 222 
f 173 207 222 
f 207 181 222 
f 186 170 223 
f 170 193 223 
f 193 179 223 
f 179 214 223 
f 214 186 223 
f 180 200 224 
f 168 213 224 
f 213 180 224 
f 215 168 224 
f 200 215 224 
f 174 186 225 
f 167 194 225 
f 194 174 225 
f 209 167 225 
f 186 209 225 
f 187 200 226 
f 164 206 226 
f 206 187 226 
f 196 184 227 
f 200 196 227 
f 202 164 227 
f 184 202 227 
f 164 226 227 
o convex_7
v -0.000982 0.030709 -0.025499
v -0.019963 -0.004978 -0.024739
v -0.023763 0.007173 -0.030813
v -0.023763 0.038305 0.012466
v -0.000982 -0.004978 0.012466
v -0.023763 -0.004978 0.009426
v -0.000982 0.038305 0.012466
v -0.023763 0.038305 -0.022454
v -0.006298 0.008694 -0.041447
v -0.000982 -0.004978 -0.024739
v -0.013131 0.024629 -0.042207
v -0.000982 0.038305 -0.017139
v -0.007057 0.024629 -0.042207
v -0.019963 -0.004215 0.012466
v -0.013131 0.007932 -0.041447
v -0.023763 0.017799 -0.034607
v -0.000982 0.019320 -0.033087
v -0.010096 0.038305 -0.023979
v -0.023763 -0.004978 -0.020944
v -0.023763 0.007932 0.012466
v -0.013891 0.013253 -0.042207
v -0.000982 0.014007 -0.033087
v -0.006298 0.023875 -0.042207
v -0.013891 0.023875 -0.042207
v -0.023763 0.013253 -0.033847
v -0.007057 0.007932 -0.041447
f 242 248 253 
f 229 232 233 
f 231 230 233 
f 232 228 234 
f 231 232 234 
f 230 231 235 
f 231 234 235 
f 228 232 237 
f 232 229 237 
f 234 228 239 
f 235 234 239 
f 232 231 241 
f 233 232 241 
f 229 230 242 
f 237 229 242 
f 230 235 243 
f 228 237 244 
f 238 235 245 
f 235 239 245 
f 240 238 245 
f 239 240 245 
f 230 229 246 
f 229 233 246 
f 233 230 246 
f 231 233 247 
f 241 231 247 
f 233 241 247 
f 238 240 248 
f 237 236 249 
f 244 237 249 
f 244 249 250 
f 239 228 250 
f 240 239 250 
f 228 244 250 
f 236 248 250 
f 248 240 250 
f 249 236 250 
f 235 238 251 
f 243 235 251 
f 238 248 251 
f 248 243 251 
f 242 230 252 
f 230 243 252 
f 248 242 252 
f 243 248 252 
f 236 237 253 
f 237 242 253 
f 248 236 253 
o convex_8
v 0.023316 0.020074 -0.032333
v -0.000982 -0.004978 -0.024739
v 0.002057 -0.004978 -0.024739
v 0.023316 0.038305 0.012466
v 0.023316 -0.004978 0.010941
v -0.000982 0.038305 0.012466
v -0.000221 0.038305 -0.017900
v -0.000982 -0.004978 0.012466
v 0.014963 0.007932 -0.040687
v 0.023316 -0.004978 -0.021694
v 0.023316 0.038305 -0.020185
v 0.008132 0.024629 -0.041447
v -0.000982 0.014007 -0.033093
v 0.015721 0.023875 -0.041447
v 0.008132 0.007932 -0.040687
v 0.021037 -0.002698 0.012466
v -0.000982 0.030709 -0.025499
v 0.009649 0.038305 -0.022459
v 0.023316 0.014766 -0.033093
v 0.020278 -0.004978 -0.023979
v -0.000982 0.021591 -0.032333
v 0.014963 0.024629 -0.041447
v -0.000982 0.038305 -0.017140
v 0.014963 0.013253 -0.041447
v 0.023316 0.007932 0.012466
v 0.015721 0.009453 -0.040687
f 262 277 279 
f 254 257 258 
f 255 256 258 
f 259 257 260 
f 255 258 261 
f 259 255 261 
f 257 259 261 
f 256 255 262 
f 254 258 263 
f 258 256 263 
f 257 254 264 
f 260 257 264 
f 255 259 266 
f 264 254 267 
f 262 255 268 
f 255 266 268 
f 266 265 268 
f 257 261 269 
f 261 258 269 
f 266 259 270 
f 260 264 271 
f 265 260 271 
f 254 263 272 
f 267 254 272 
f 256 262 273 
f 263 256 273 
f 262 263 273 
f 265 266 274 
f 270 265 274 
f 266 270 274 
f 264 267 275 
f 267 265 275 
f 271 264 275 
f 265 271 275 
f 259 260 276 
f 260 265 276 
f 270 259 276 
f 265 270 276 
f 265 267 277 
f 268 265 277 
f 262 268 277 
f 258 257 278 
f 257 269 278 
f 269 258 278 
f 263 262 279 
f 272 263 279 
f 267 272 279 
f 277 267 279 
o convex_9
v 0.040021 0.028433 -0.038408
v 0.025596 -0.004978 -0.027019
v 0.031671 -0.004978 -0.027019
v 0.023317 0.038305 0.012466
v 0.028633 -0.004978 0.010944
v 0.025596 0.030709 -0.039925
v 0.040021 0.011736 -0.005763
v 0.040021 0.001860 -0.036128
v 0.040021 0.035267 -0.020185
v 0.023317 -0.004978 0.010944
v 0.023317 0.038305 -0.020179
v 0.025596 0.013253 -0.043721
v 0.027115 0.038305 0.012466
v 0.040781 -0.000419 -0.019427
v 0.023317 -0.004978 -0.022459
v 0.036225 0.037542 -0.027777
v 0.041541 0.010970 -0.039161
v 0.040781 0.026912 -0.011839
v 0.034707 0.017041 -0.044485
v 0.026355 0.003377 -0.040683
v 0.023317 0.017799 -0.033848
v 0.037743 -0.004215 -0.027014
v 0.039261 0.022358 -0.004241
v 0.041541 0.029192 -0.026256
v 0.027873 0.007932 0.012466
v 0.037743 0.013253 -0.043721
v 0.025596 0.035267 -0.034606
v 0.036983 0.030709 -0.039161
v 0.041541 0.003377 -0.023981
v 0.033189 -0.000419 -0.036887
v 0.034707 0.038305 -0.011839
v 0.026355 0.023875 -0.043721
v 0.040021 0.005657 -0.008038
v 0.040021 0.030709 -0.011081
v 0.035467 -0.004978 -0.011081
v 0.040781 0.031463 -0.033848
v 0.037743 0.004140 -0.039925
v 0.039261 0.019320 -0.042957
v 0.027873 0.032988 0.012466
v 0.038503 0.014007 -0.002725
v 0.025596 -0.000419 -0.036881
v 0.031671 0.009453 -0.043721
v 0.040021 0.000340 -0.013356
v 0.041541 0.021591 -0.039161
v 0.040781 0.010215 -0.009559
v 0.023317 0.007932 0.012466
v 0.032429 0.025396 -0.042957
v 0.040781 -0.000419 -0.029294
v 0.025596 0.037542 -0.029288
v 0.036983 0.036780 -0.030052
v 0.027115 0.012491 -0.044485
v 0.027115 -0.003457 -0.032332
v 0.028633 0.007932 0.011702
v 0.040021 0.034500 -0.017147
v 0.030911 0.033746 -0.036881
v 0.038503 0.036780 -0.027014
v 0.039261 -0.003457 -0.023217
v 0.025596 0.004894 -0.040683
v 0.039261 0.026154 -0.005763
v 0.040021 0.012491 -0.042205
v 0.041541 0.004894 -0.035370
v 0.038503 0.000340 -0.036128
v 0.034707 -0.004215 -0.029294
v 0.025596 0.026154 -0.042205
f 311 291 343 
f 281 282 284 
f 281 284 289 
f 289 283 290 
f 290 283 292 
f 281 289 294 
f 289 290 294 
f 290 285 300 
f 294 290 300 
f 286 297 302 
f 289 284 304 
f 292 283 304 
f 285 290 306 
f 296 303 308 
f 290 292 310 
f 295 290 310 
f 286 284 312 
f 284 282 314 
f 282 301 314 
f 288 303 315 
f 280 307 315 
f 309 299 316 
f 305 298 317 
f 307 280 317 
f 302 292 318 
f 292 304 318 
f 284 286 319 
f 286 302 319 
f 302 318 319 
f 281 294 320 
f 299 309 320 
f 298 305 321 
f 305 316 321 
f 316 299 321 
f 312 284 322 
f 293 312 322 
f 284 314 322 
f 314 293 322 
f 303 296 323 
f 280 315 323 
f 315 303 323 
f 317 280 323 
f 297 286 324 
f 303 297 324 
f 293 308 324 
f 308 303 324 
f 286 312 324 
f 312 293 324 
f 283 289 325 
f 304 283 325 
f 289 304 325 
f 285 307 326 
f 311 285 326 
f 298 311 326 
f 317 298 326 
f 307 317 326 
f 308 293 327 
f 290 295 328 
f 306 290 328 
f 306 328 329 
f 315 307 329 
f 328 295 329 
f 299 291 330 
f 291 311 330 
f 311 298 330 
f 298 321 330 
f 321 299 330 
f 282 281 331 
f 281 320 331 
f 320 309 331 
f 304 284 332 
f 318 304 332 
f 319 318 332 
f 284 319 332 
f 303 288 333 
f 297 303 333 
f 288 310 333 
f 310 292 333 
f 292 313 333 
f 313 297 333 
f 285 306 334 
f 307 285 334 
f 306 329 334 
f 329 307 334 
f 310 288 335 
f 295 310 335 
f 288 315 335 
f 329 295 335 
f 315 329 335 
f 293 314 336 
f 314 301 336 
f 301 327 336 
f 327 293 336 
f 291 299 337 
f 300 291 337 
f 294 300 337 
f 320 294 337 
f 299 320 337 
f 292 302 338 
f 302 297 338 
f 313 292 338 
f 297 313 338 
f 296 287 339 
f 287 316 339 
f 316 305 339 
f 305 317 339 
f 323 296 339 
f 317 323 339 
f 287 296 340 
f 296 308 340 
f 327 287 340 
f 308 327 340 
f 316 287 341 
f 309 316 341 
f 287 327 341 
f 327 301 341 
f 301 282 342 
f 282 331 342 
f 331 309 342 
f 341 301 342 
f 309 341 342 
f 300 285 343 
f 291 300 343 
f 285 311 343 
o convex_10
v -0.026800 0.046657 -0.021704
v -0.004020 0.048176 0.012466
v -0.007058 0.048176 0.012466
v -0.004020 0.038305 0.012466
v -0.028316 0.038305 0.012466
v -0.009336 0.038305 -0.021704
v -0.004020 0.049693 -0.021704
v -0.034394 0.038305 -0.021704
v -0.026800 0.043622 0.012466
v -0.010855 0.049693 -0.003482
v -0.004020 0.038305 -0.016386
v -0.022997 0.046657 0.004870
v -0.034394 0.040584 -0.018664
v -0.019962 0.048936 -0.021704
v -0.004020 0.050455 -0.007272
v -0.027558 0.045897 -0.006516
v -0.022997 0.048176 -0.014108
v -0.018451 0.046657 0.012466
v -0.034394 0.039066 -0.014108
v -0.014655 0.049693 -0.021704
v -0.028316 0.041342 0.011700
v -0.011613 0.048936 0.004111
v -0.004781 0.049693 0.002592
f 365 346 366 
f 345 346 347 
f 347 346 348 
f 347 348 349 
f 345 347 350 
f 349 344 350 
f 344 349 351 
f 349 348 351 
f 348 346 352 
f 347 349 354 
f 350 347 354 
f 349 350 354 
f 344 351 356 
f 350 344 357 
f 345 350 358 
f 352 355 359 
f 344 356 359 
f 356 352 359 
f 355 353 360 
f 357 344 360 
f 353 357 360 
f 359 355 360 
f 344 359 360 
f 352 346 361 
f 355 352 361 
f 351 348 362 
f 356 351 362 
f 350 357 363 
f 357 353 363 
f 358 350 363 
f 353 358 363 
f 348 352 364 
f 352 356 364 
f 362 348 364 
f 356 362 364 
f 353 355 365 
f 361 346 365 
f 355 361 365 
f 346 345 366 
f 345 358 366 
f 358 353 366 
f 353 365 366 
o convex_11
v 0.024074 0.045137 0.010184
v -0.004020 0.048176 -0.019420
v -0.003258 0.038305 -0.017145
v 0.034707 0.038305 -0.019420
v -0.004020 0.038305 0.012460
v -0.004020 0.048176 0.012460
v 0.021037 0.048936 -0.019420
v 0.027110 0.038305 0.012460
v 0.000537 0.050455 -0.001205
v 0.034707 0.040584 -0.016386
v 0.017997 0.046657 0.012460
v -0.004020 0.049693 -0.019420
v 0.025590 0.046657 -0.003480
v 0.005093 0.038305 -0.019420
v 0.006613 0.050455 -0.006514
v 0.028630 0.045897 -0.019420
v 0.025590 0.043622 0.012460
v 0.010408 0.048936 0.004869
v -0.004020 0.050455 -0.008034
v -0.004020 0.038305 -0.016386
v 0.014968 0.049693 -0.019420
v 0.034707 0.039066 -0.012588
v 0.021795 0.047417 0.000315
v 0.005855 0.048176 0.012460
v 0.027110 0.045897 -0.004239
v 0.024074 0.048176 -0.015625
v -0.003258 0.049693 0.004869
f 390 375 393 
f 369 370 371 
f 368 371 372 
f 370 368 373 
f 371 370 374 
f 372 371 374 
f 372 374 377 
f 368 372 378 
f 373 368 378 
f 369 368 380 
f 370 369 380 
f 368 370 380 
f 370 373 382 
f 376 370 382 
f 367 377 383 
f 377 374 383 
f 381 375 384 
f 378 372 385 
f 375 381 385 
f 368 369 386 
f 371 368 386 
f 369 371 386 
f 373 378 387 
f 381 373 387 
f 378 385 387 
f 385 381 387 
f 374 370 388 
f 370 376 388 
f 383 374 388 
f 376 383 388 
f 377 367 389 
f 367 379 389 
f 384 377 389 
f 381 384 389 
f 372 377 390 
f 384 375 390 
f 377 384 390 
f 379 367 391 
f 376 382 391 
f 383 376 391 
f 367 383 391 
f 373 381 392 
f 382 373 392 
f 389 379 392 
f 381 389 392 
f 379 391 392 
f 391 382 392 
f 385 372 393 
f 375 385 393 
f 372 390 393 
o convex_12
v 0.024071 0.044370 0.014745
v -0.029078 -0.008772 0.012466
v -0.028314 -0.015602 0.012466
v -0.028314 -0.008010 0.022338
v 0.024829 -0.016365 0.022338
v -0.023760 0.043614 0.022338
v 0.027109 -0.017121 0.012466
v -0.027556 0.042089 0.012466
v 0.025593 0.039815 0.022338
v 0.026351 0.042096 0.012466
v -0.024518 -0.017883 0.020818
v 0.004331 0.048177 0.013226
v 0.024071 -0.020165 0.012466
v 0.017236 0.045126 0.022338
v -0.028314 0.032984 0.022338
v -0.024518 -0.020165 0.012466
v 0.027873 0.014755 0.017023
v 0.027109 -0.008772 0.021578
v -0.017684 0.046645 0.012466
v -0.007058 0.046645 0.020058
v -0.025276 -0.017121 0.022338
v 0.022554 -0.017883 0.021578
v -0.029078 0.033740 0.016264
v 0.027873 0.032984 0.012466
v 0.017236 0.046645 0.012466
v 0.026351 0.034496 0.022338
v 0.027873 -0.008772 0.012466
v 0.021791 -0.019402 0.017023
v -0.019200 0.045126 0.022338
v -0.029078 0.033740 0.012466
v -0.026798 0.041340 0.022338
v -0.029078 0.009450 0.018540
v -0.006294 0.048177 0.012466
v -0.025276 0.044370 0.013986
v 0.024071 0.042858 0.021578
v -0.024518 -0.020165 0.013226
v -0.027556 -0.016365 0.017781
v 0.008127 0.046645 0.020058
v 0.019516 0.045895 0.017023
v -0.029078 -0.008772 0.017023
v 0.027873 -0.008772 0.016264
v 0.027109 0.033747 0.019300
f 419 411 435 
f 397 398 399 
f 396 395 400 
f 400 395 401 
f 399 398 402 
f 400 401 403 
f 396 400 406 
f 400 398 406 
f 399 402 407 
f 397 399 408 
f 396 406 409 
f 398 400 411 
f 403 401 412 
f 398 397 414 
f 406 398 415 
f 398 414 415 
f 414 404 415 
f 400 403 417 
f 394 403 418 
f 403 412 418 
f 402 398 419 
f 398 411 419 
f 400 417 420 
f 417 410 420 
f 406 415 421 
f 415 404 421 
f 399 407 422 
f 407 413 422 
f 401 395 423 
f 395 416 423 
f 416 401 423 
f 408 399 424 
f 401 416 424 
f 416 408 424 
f 397 408 425 
f 416 395 425 
f 408 416 425 
f 413 405 426 
f 405 418 426 
f 418 412 426 
f 412 422 426 
f 422 413 426 
f 412 401 427 
f 399 422 427 
f 422 412 427 
f 424 399 427 
f 401 424 427 
f 402 403 428 
f 403 394 428 
f 407 402 428 
f 396 409 429 
f 409 406 429 
f 404 414 429 
f 421 404 429 
f 406 421 429 
f 414 397 430 
f 396 429 430 
f 429 414 430 
f 405 413 431 
f 413 407 431 
f 394 418 432 
f 418 405 432 
f 428 394 432 
f 407 428 432 
f 405 431 432 
f 431 407 432 
f 395 396 433 
f 425 395 433 
f 397 425 433 
f 396 430 433 
f 430 397 433 
f 411 400 434 
f 410 411 434 
f 400 420 434 
f 420 410 434 
f 403 402 435 
f 411 410 435 
f 417 403 435 
f 410 417 435 
f 402 419 435 
o convex_13
v 0.029391 0.036781 0.026895
v -0.031354 0.000348 0.024617
v -0.030593 -0.017119 0.023857
v 0.017999 -0.020158 0.036765
v -0.029832 0.039057 0.033727
v 0.025592 -0.014842 0.022338
v -0.030593 0.041340 0.022338
v 0.027108 0.040583 0.035246
v -0.027555 -0.020165 0.035246
v 0.017999 0.045135 0.022338
v -0.017684 0.026149 0.036765
v 0.028630 -0.020158 0.028413
v -0.030593 0.044372 0.030690
v -0.024516 -0.017119 0.022338
v 0.025592 -0.020158 0.036765
v 0.029391 0.040583 0.023857
v 0.027869 0.045135 0.030690
v 0.014960 0.026149 0.036765
v -0.029832 -0.020165 0.025375
v -0.017684 -0.005725 0.036765
v -0.019962 0.045135 0.022338
v -0.004775 0.042096 0.034486
v 0.023314 -0.017119 0.022338
v 0.027869 -0.001929 0.034486
v -0.029832 -0.004211 0.032968
v 0.009644 0.045898 0.029930
v 0.025592 0.039820 0.022338
v 0.028630 -0.019401 0.026135
v 0.027869 0.043616 0.033727
v -0.031354 0.043616 0.024617
v 0.029391 0.007183 0.028413
v -0.030593 0.036017 0.032968
v -0.019206 0.043616 0.032968
v 0.011161 0.041333 0.035246
v -0.018445 0.040576 0.034486
v -0.028316 -0.006488 0.022338
v -0.030593 -0.019401 0.026135
v -0.031354 0.002624 0.026895
v -0.031354 0.037544 0.022338
v 0.028630 0.044372 0.026135
v 0.026353 -0.008764 0.022338
v -0.029077 -0.017882 0.033727
v 0.028630 -0.020158 0.026895
v -0.019962 0.045135 0.029930
v 0.027108 -0.017875 0.035246
v 0.028630 -0.017119 0.025375
v 0.027869 0.042096 0.034486
v 0.029391 -0.000409 0.026135
v -0.000226 0.043616 0.033727
v -0.016923 0.026912 0.036765
v -0.031354 0.035261 0.027653
v -0.029832 0.042096 0.032968
v 0.012683 0.045898 0.028413
f 456 461 488 
f 441 442 445 
f 440 444 446 
f 442 441 449 
f 439 444 450 
f 446 439 450 
f 444 447 450 
f 446 450 453 
f 450 443 453 
f 438 449 454 
f 444 439 455 
f 439 446 455 
f 446 444 455 
f 445 442 456 
f 449 441 458 
f 454 449 458 
f 441 445 462 
f 445 451 462 
f 458 441 463 
f 436 451 464 
f 452 461 464 
f 456 442 465 
f 448 456 465 
f 451 436 466 
f 459 447 466 
f 444 440 467 
f 453 443 469 
f 457 468 470 
f 469 457 470 
f 449 438 471 
f 442 449 471 
f 437 438 472 
f 438 454 472 
f 454 444 472 
f 472 460 473 
f 465 437 473 
f 460 467 473 
f 437 472 473 
f 438 437 474 
f 437 465 474 
f 465 442 474 
f 471 438 474 
f 442 471 474 
f 451 445 475 
f 445 452 475 
f 464 451 475 
f 452 464 475 
f 441 462 476 
f 462 451 476 
f 444 467 477 
f 467 460 477 
f 472 444 477 
f 460 472 477 
f 447 444 478 
f 444 454 478 
f 454 458 478 
f 458 463 478 
f 456 448 479 
f 461 456 479 
f 448 468 479 
f 468 461 479 
f 450 447 480 
f 447 459 480 
f 459 450 480 
f 463 441 481 
f 441 476 481 
f 476 451 481 
f 443 450 482 
f 450 459 482 
f 436 464 482 
f 466 436 482 
f 459 466 482 
f 469 443 482 
f 464 469 482 
f 451 466 483 
f 466 447 483 
f 447 478 483 
f 478 463 483 
f 463 481 483 
f 481 451 483 
f 464 461 484 
f 468 457 484 
f 461 468 484 
f 457 469 484 
f 469 464 484 
f 440 446 485 
f 446 453 485 
f 453 469 485 
f 470 440 485 
f 469 470 485 
f 448 465 486 
f 467 448 486 
f 465 473 486 
f 473 467 486 
f 467 440 487 
f 448 467 487 
f 468 448 487 
f 440 470 487 
f 470 468 487 
f 452 445 488 
f 445 456 488 
f 461 452 488 
o convex_14
v -0.015408 -0.062686 -0.004243
v 0.003574 -0.053576 0.007148
v 0.002813 -0.053576 0.007910
v -0.022244 -0.053576 -0.023981
v 0.003574 -0.064205 -0.022457
v 0.003574 -0.053576 -0.023223
v -0.016924 -0.064205 -0.030057
v -0.022244 -0.053576 -0.001965
v 0.003574 -0.064205 -0.005001
v -0.022244 -0.064205 -0.019424
v -0.000983 -0.062686 0.001834
v -0.019965 -0.058891 -0.001203
v -0.010091 -0.061927 -0.030057
v -0.003262 -0.054336 0.007910
v -0.018446 -0.055096 -0.027017
v -0.008580 -0.064205 -0.005001
v -0.022244 -0.064205 -0.023981
v -0.021483 -0.060409 -0.004243
v -0.009335 -0.064205 -0.030057
v 0.003574 -0.062686 0.000314
v -0.020725 -0.053576 0.000314
v -0.007058 -0.055096 -0.026259
v -0.016169 -0.063446 -0.006521
v 0.003574 -0.062686 -0.023223
f 507 494 512 
f 491 490 492 
f 490 493 494 
f 492 490 494 
f 491 492 496 
f 493 490 497 
f 495 493 497 
f 495 497 498 
f 496 492 498 
f 489 499 500 
f 499 491 502 
f 500 499 502 
f 492 494 503 
f 495 492 503 
f 501 495 503 
f 498 497 504 
f 499 489 504 
f 497 499 504 
f 492 495 505 
f 495 498 505 
f 498 492 505 
f 496 498 506 
f 500 496 506 
f 489 500 506 
f 493 495 507 
f 501 494 507 
f 495 501 507 
f 490 491 508 
f 497 490 508 
f 491 499 508 
f 499 497 508 
f 491 496 509 
f 496 500 509 
f 502 491 509 
f 500 502 509 
f 494 501 510 
f 503 494 510 
f 501 503 510 
f 498 504 511 
f 504 489 511 
f 489 506 511 
f 506 498 511 
f 494 493 512 
f 493 507 512 
o convex_15
v -0.038948 -0.022443 -0.033089
v -0.029080 -0.053576 -0.024740
v -0.024522 -0.053576 -0.024740
v -0.023763 -0.022443 0.002590
v -0.023763 -0.027002 -0.042960
v -0.038189 -0.042184 -0.011837
v -0.037429 -0.044461 -0.040683
v -0.022244 -0.052814 -0.002728
v -0.023763 -0.047496 -0.039167
v -0.022244 -0.022443 -0.030053
v -0.038948 -0.023204 -0.016390
v -0.038948 -0.049017 -0.023219
v -0.029080 -0.052814 -0.004244
v -0.035151 -0.032316 -0.044485
v -0.032113 -0.027760 -0.003483
v -0.035911 -0.052055 -0.030813
v -0.022244 -0.022443 0.002590
v -0.022244 -0.052814 -0.025495
v -0.029838 -0.022443 -0.040683
v -0.024522 -0.039146 -0.044485
v -0.029838 -0.042940 -0.001967
v -0.038948 -0.038384 -0.039928
v -0.031357 -0.053576 -0.008040
v -0.038189 -0.027002 -0.040683
v -0.038948 -0.032316 -0.011837
v -0.022244 -0.036872 -0.034610
v -0.029080 -0.049775 -0.037647
v -0.032113 -0.022443 -0.005004
v -0.034391 -0.042940 -0.042960
v -0.024522 -0.052055 -0.033089
v -0.023005 -0.049017 -0.001207
v -0.038189 -0.049017 -0.034610
v -0.023763 -0.022443 -0.039923
v -0.038189 -0.038384 -0.010317
v -0.038948 -0.045981 -0.016390
v -0.022244 -0.053576 -0.003483
v -0.037429 -0.022443 -0.038402
v -0.032873 -0.027760 -0.043720
v -0.024522 -0.030796 -0.044485
v -0.026043 -0.045981 -0.041444
v -0.030597 -0.039146 -0.001967
v -0.036670 -0.052055 -0.027016
v -0.038189 -0.028522 -0.011077
v -0.030597 -0.049775 -0.004244
v -0.023763 -0.036872 -0.043720
v -0.038189 -0.036114 -0.042204
v -0.028321 -0.047496 -0.001967
v -0.035151 -0.046740 -0.039928
v -0.034391 -0.052055 -0.032329
v -0.038189 -0.049775 -0.020192
v -0.038948 -0.045981 -0.036126
v -0.029838 -0.039905 -0.044485
v -0.038948 -0.022443 -0.018671
v -0.032113 -0.053576 -0.020192
f 535 554 566 
f 513 516 522 
f 523 513 524 
f 520 522 529 
f 522 516 529 
f 522 520 530 
f 513 522 531 
f 524 513 534 
f 514 515 535 
f 534 513 536 
f 523 524 537 
f 517 522 538 
f 530 521 538 
f 522 530 538 
f 516 513 540 
f 527 516 540 
f 515 514 542 
f 530 515 542 
f 521 530 542 
f 539 521 542 
f 525 520 543 
f 529 516 543 
f 520 529 543 
f 522 517 545 
f 531 522 545 
f 517 531 545 
f 546 537 547 
f 535 518 547 
f 537 524 547 
f 518 546 547 
f 520 525 548 
f 515 530 548 
f 530 520 548 
f 535 515 548 
f 525 535 548 
f 513 531 549 
f 536 513 549 
f 536 549 550 
f 531 517 550 
f 526 536 550 
f 549 531 550 
f 532 526 551 
f 550 517 551 
f 526 550 551 
f 532 521 552 
f 521 539 552 
f 516 527 553 
f 533 516 553 
f 527 546 553 
f 524 544 554 
f 544 528 554 
f 523 537 555 
f 540 523 555 
f 527 540 555 
f 546 527 555 
f 537 546 555 
f 518 535 556 
f 535 525 556 
f 546 518 556 
f 533 553 556 
f 553 546 556 
f 521 532 557 
f 517 538 557 
f 538 521 557 
f 551 517 557 
f 532 551 557 
f 519 534 558 
f 536 526 558 
f 534 536 558 
f 541 519 558 
f 526 541 558 
f 516 533 559 
f 525 543 559 
f 543 516 559 
f 556 525 559 
f 533 556 559 
f 519 541 560 
f 544 519 560 
f 552 539 560 
f 541 552 560 
f 514 528 561 
f 542 514 561 
f 539 542 561 
f 528 544 561 
f 560 539 561 
f 544 560 561 
f 535 547 562 
f 547 524 562 
f 554 535 562 
f 524 554 562 
f 534 519 563 
f 524 534 563 
f 544 524 563 
f 519 544 563 
f 526 532 564 
f 541 526 564 
f 532 552 564 
f 552 541 564 
f 513 523 565 
f 540 513 565 
f 523 540 565 
f 528 514 566 
f 514 535 566 
f 554 528 566 
o convex_16
v -0.018446 -0.009536 -0.024742
v 0.003574 -0.004979 0.012466
v -0.019204 -0.004979 0.012466
v 0.003574 -0.022441 0.004872
v 0.003574 -0.004979 -0.023977
v -0.021485 -0.022441 -0.014110
v 0.001295 -0.022441 -0.021701
v -0.019964 -0.017125 0.012466
v -0.021485 -0.004979 -0.021701
v -0.021485 -0.022441 0.001835
v 0.003574 -0.018645 0.012466
v -0.021485 -0.004979 0.010186
v 0.003574 -0.022441 -0.015629
v -0.001747 -0.010295 -0.024742
v -0.019964 -0.004979 -0.024742
v -0.010091 -0.018645 0.012466
v -0.021485 -0.016366 0.012466
v -0.021485 -0.008776 -0.023977
v 0.003574 -0.011054 -0.023977
v -0.000226 -0.022441 -0.021701
v -0.006302 -0.022441 0.004872
v 0.000535 -0.004979 -0.024742
f 585 580 588 
f 569 568 571 
f 568 570 571 
f 570 572 573 
f 568 569 574 
f 569 571 575 
f 572 570 576 
f 575 572 576 
f 570 568 577 
f 568 574 577 
f 569 575 578 
f 575 576 578 
f 571 570 579 
f 570 573 579 
f 575 571 581 
f 580 567 581 
f 574 576 582 
f 577 574 582 
f 570 577 582 
f 574 569 583 
f 576 574 583 
f 569 578 583 
f 578 576 583 
f 567 572 584 
f 572 575 584 
f 581 567 584 
f 575 581 584 
f 571 579 585 
f 579 573 585 
f 573 580 585 
f 572 567 586 
f 573 572 586 
f 567 580 586 
f 580 573 586 
f 576 570 587 
f 570 582 587 
f 582 576 587 
f 581 571 588 
f 580 581 588 
f 571 585 588 
o convex_17
v 0.021798 -0.004980 0.010942
v 0.028631 -0.016367 -0.016384
v 0.030151 -0.016367 -0.016384
v 0.026353 -0.004980 -0.024737
v 0.028631 -0.004980 0.010942
v 0.021798 -0.016367 0.012462
v 0.021798 -0.008775 -0.023217
v 0.027112 -0.016367 0.012462
v 0.030151 -0.004980 -0.024737
v 0.021798 -0.016367 -0.013348
v 0.030151 -0.011811 0.007145
v 0.029390 -0.011811 -0.026257
v 0.021798 -0.004980 -0.021701
v 0.030151 -0.004980 -0.001205
v 0.027872 -0.006498 0.012462
v 0.029390 -0.016367 0.000311
v 0.021798 -0.006498 0.012462
f 594 603 605 
f 592 589 593 
f 590 591 594 
f 594 589 595 
f 594 591 596 
f 592 593 597 
f 590 594 598 
f 594 595 598 
f 591 597 599 
f 591 590 600 
f 595 592 600 
f 592 597 600 
f 597 591 600 
f 590 598 600 
f 598 595 600 
f 589 592 601 
f 595 589 601 
f 592 595 601 
f 597 593 602 
f 593 599 602 
f 599 597 602 
f 593 589 603 
f 594 596 603 
f 596 599 603 
f 599 593 603 
f 596 591 604 
f 591 599 604 
f 599 596 604 
f 589 594 605 
f 603 589 605 
o convex_18
v 0.033189 -0.004980 -0.008038
v 0.033947 -0.016367 -0.019426
v 0.035465 -0.016367 -0.019426
v 0.036985 -0.006498 -0.029298
v 0.030151 -0.005739 -0.024740
v 0.030151 -0.016367 -0.008038
v 0.030910 -0.013329 -0.027017
v 0.037744 -0.014847 -0.029298
v 0.030151 -0.004980 -0.006518
v 0.035465 -0.004980 -0.011834
v 0.034706 -0.016367 -0.013352
v 0.037744 -0.008775 -0.023221
v 0.036985 -0.015606 -0.020182
v 0.030151 -0.016367 -0.016389
v 0.030910 -0.004980 -0.023980
v 0.037744 -0.006498 -0.029298
v 0.033189 -0.016367 -0.010315
v 0.036225 -0.014847 -0.029298
v 0.030151 -0.009535 -0.026259
f 612 619 624 
f 607 608 611 
f 608 607 613 
f 610 611 614 
f 611 606 614 
f 614 606 615 
f 611 608 616 
f 613 617 618 
f 608 613 618 
f 616 608 618 
f 615 616 618 
f 617 615 618 
f 607 611 619 
f 611 610 619 
f 609 610 620 
f 610 614 620 
f 614 615 620 
f 620 615 621 
f 613 609 621 
f 615 617 621 
f 617 613 621 
f 609 620 621 
f 606 611 622 
f 615 606 622 
f 611 616 622 
f 616 615 622 
f 612 609 623 
f 613 607 623 
f 609 613 623 
f 607 619 623 
f 619 612 623 
f 610 609 624 
f 609 612 624 
f 619 610 624 
o convex_19
v -0.026798 -0.030036 0.029174
v -0.013891 -0.030036 0.042081
v -0.013891 -0.033073 0.042081
v -0.013891 -0.023204 0.031451
v -0.028319 -0.020165 0.034485
v -0.014651 -0.036111 0.031451
v -0.026798 -0.020165 0.025375
v -0.019208 -0.034592 0.040560
v -0.019966 -0.020165 0.036004
v -0.023002 -0.030794 0.039801
v -0.024521 -0.033830 0.029932
v -0.013891 -0.024721 0.040560
v -0.029837 -0.021683 0.025375
v -0.013891 -0.036111 0.039801
v -0.023002 -0.023204 0.038282
v -0.019208 -0.020165 0.029932
v -0.024521 -0.030794 0.037523
v -0.013891 -0.035349 0.031451
v -0.029837 -0.022445 0.027654
v -0.020726 -0.035349 0.032210
v -0.019208 -0.030036 0.041320
v -0.013891 -0.023204 0.039041
f 640 633 646 
f 626 627 628 
f 631 629 633 
f 626 628 636 
f 631 630 637 
f 629 631 637 
f 630 635 637 
f 635 625 637 
f 628 627 638 
f 627 632 638 
f 633 629 639 
f 629 634 639 
f 636 633 639 
f 628 631 640 
f 631 633 640 
f 634 629 641 
f 632 634 641 
f 635 632 641 
f 625 635 641 
f 631 628 642 
f 630 631 642 
f 628 638 642 
f 638 630 642 
f 637 625 643 
f 629 637 643 
f 625 641 643 
f 641 629 643 
f 632 635 644 
f 635 630 644 
f 630 638 644 
f 638 632 644 
f 627 626 645 
f 632 627 645 
f 634 632 645 
f 626 636 645 
f 639 634 645 
f 636 639 645 
f 636 628 646 
f 633 636 646 
f 628 640 646 
o convex_20
v 0.014206 -0.031551 0.042840
v 0.026352 -0.021684 0.026894
v 0.026352 -0.020165 0.026894
v 0.010408 -0.024721 0.032210
v 0.010408 -0.036109 0.032970
v 0.010408 -0.023202 0.040561
v 0.022556 -0.029276 0.039801
v 0.022556 -0.033830 0.031451
v 0.024834 -0.020165 0.036763
v 0.011170 -0.036109 0.040559
v 0.017242 -0.020165 0.031451
v 0.028632 -0.020925 0.027654
v 0.017244 -0.034589 0.041320
v 0.020278 -0.027760 0.041320
v 0.010408 -0.033072 0.042840
v 0.024074 -0.032312 0.032210
v 0.010408 -0.023202 0.032210
v 0.017242 -0.020165 0.036763
v 0.018762 -0.035351 0.032970
v 0.026352 -0.021684 0.035245
f 653 662 666 
f 649 648 650 
f 650 648 651 
f 650 651 652 
f 651 648 654 
f 655 649 657 
f 648 649 658 
f 654 648 658 
f 649 655 658 
f 652 647 660 
f 655 652 660 
f 653 655 660 
f 647 659 660 
f 659 653 660 
f 647 652 661 
f 652 651 661 
f 651 656 661 
f 659 647 661 
f 656 659 661 
f 654 658 662 
f 653 659 662 
f 659 654 662 
f 649 650 663 
f 650 652 663 
f 657 649 663 
f 652 657 663 
f 652 655 664 
f 657 652 664 
f 655 657 664 
f 651 654 665 
f 656 651 665 
f 654 659 665 
f 659 656 665 
f 655 653 666 
f 658 655 666 
f 662 658 666 
o convex_21
v -0.030597 -0.004980 -0.007277
v -0.035152 -0.016367 -0.022464
v -0.036672 -0.014847 -0.030815
v -0.029837 -0.013329 -0.028539
v -0.036672 -0.007257 -0.031576
v -0.029837 -0.016367 -0.009556
v -0.029837 -0.004980 -0.027016
v -0.035152 -0.004980 -0.012593
v -0.034393 -0.016367 -0.015630
v -0.029837 -0.016367 -0.020942
v -0.036672 -0.011052 -0.022464
v -0.035152 -0.015606 -0.031576
v -0.029837 -0.004980 -0.007277
v -0.035912 -0.004980 -0.023223
v -0.032116 -0.016367 -0.011075
v -0.035152 -0.007257 -0.031576
v -0.036672 -0.006498 -0.022464
f 674 680 683 
f 672 670 673 
f 667 673 674 
f 669 668 675 
f 668 672 675 
f 672 668 676 
f 670 672 676 
f 671 669 677 
f 669 675 677 
f 675 674 677 
f 668 669 678 
f 669 671 678 
f 676 668 678 
f 670 676 678 
f 667 672 679 
f 672 673 679 
f 673 667 679 
f 673 671 680 
f 674 673 680 
f 672 667 681 
f 667 674 681 
f 675 672 681 
f 674 675 681 
f 673 670 682 
f 671 673 682 
f 670 678 682 
f 678 671 682 
f 671 677 683 
f 677 674 683 
f 680 671 683 
o convex_22
v -0.032872 -0.061169 -0.023222
v -0.022245 -0.053576 -0.003480
v -0.023765 -0.053576 -0.003480
v -0.032113 -0.054336 -0.030815
v -0.022245 -0.064206 -0.023222
v -0.022245 -0.053576 -0.023980
v -0.028318 -0.064206 -0.033851
v -0.029836 -0.056612 -0.007280
v -0.029077 -0.064206 -0.019425
v -0.031354 -0.053576 -0.008796
v -0.022245 -0.058132 -0.006519
v -0.033632 -0.060409 -0.033093
v -0.033632 -0.054336 -0.022461
v -0.031354 -0.064206 -0.033851
v -0.032872 -0.053576 -0.026261
v -0.032113 -0.058132 -0.033854
v -0.022245 -0.064206 -0.019425
v -0.031354 -0.063446 -0.020944
v -0.033632 -0.055855 -0.032332
v -0.027561 -0.057373 -0.006519
v -0.032872 -0.060409 -0.020944
f 701 691 704 
f 685 688 689 
f 686 685 689 
f 689 688 690 
f 690 688 692 
f 686 689 693 
f 691 686 693 
f 685 686 694 
f 688 685 694 
f 690 692 697 
f 684 695 697 
f 689 687 698 
f 693 689 698 
f 696 693 698 
f 687 689 699 
f 689 690 699 
f 690 697 699 
f 697 695 699 
f 692 688 700 
f 688 694 700 
f 694 692 700 
f 692 691 701 
f 684 697 701 
f 697 692 701 
f 695 696 702 
f 698 687 702 
f 696 698 702 
f 687 699 702 
f 699 695 702 
f 686 691 703 
f 691 692 703 
f 694 686 703 
f 692 694 703 
f 691 693 704 
f 695 684 704 
f 693 696 704 
f 696 695 704 
f 684 701 704 
o convex_23
v -0.022242 -0.038386 -0.034612
v 0.003574 -0.023205 0.005628
v 0.003574 -0.042183 0.005628
v -0.022242 -0.033075 0.002588
v -0.006299 -0.027002 -0.036888
v -0.022242 -0.022443 -0.014876
v 0.003574 -0.045978 -0.023222
v -0.022242 -0.045978 0.001071
v 0.003574 -0.022443 -0.015630
v -0.013890 -0.042941 -0.036129
v -0.021481 -0.022443 0.001830
v -0.022242 -0.045978 -0.023981
v -0.022242 -0.023965 -0.026257
v 0.003574 -0.045978 -0.001205
v -0.013890 -0.027760 -0.038406
v -0.016167 -0.039146 0.004865
v -0.006299 -0.042941 -0.035371
v -0.002504 -0.032317 -0.033853
v 0.000534 -0.022443 -0.021700
v -0.015406 -0.045978 0.004106
v -0.007820 -0.022443 0.004865
v -0.022242 -0.029278 -0.033853
v 0.003574 -0.025484 -0.018661
v -0.009334 -0.038386 0.005628
v -0.014648 -0.028520 0.004865
v -0.012369 -0.026242 -0.036129
v -0.006299 -0.029278 -0.037647
v -0.013890 -0.042183 -0.036888
v 0.003574 -0.022443 0.004869
v -0.002504 -0.039904 -0.033094
v -0.022242 -0.023205 -0.023981
v -0.019965 -0.036868 0.004106
v -0.021481 -0.042183 -0.032331
v -0.022242 -0.035349 -0.035371
v -0.022242 -0.022443 0.001071
v -0.020723 -0.027002 0.003347
v -0.020723 -0.043701 0.003347
v 0.002052 -0.042941 0.005628
v -0.002504 -0.023965 0.005628
f 729 728 743 
f 705 708 710 
f 706 707 711 
f 708 705 712 
f 706 711 713 
f 713 710 715 
f 712 705 716 
f 711 712 716 
f 714 711 716 
f 705 710 717 
f 711 707 718 
f 712 711 718 
f 711 714 721 
f 710 713 723 
f 712 718 724 
f 713 715 725 
f 705 717 726 
f 717 719 726 
f 713 711 727 
f 722 709 727 
f 711 722 727 
f 723 713 727 
f 709 723 727 
f 707 706 728 
f 720 724 728 
f 720 728 729 
f 709 719 730 
f 719 717 730 
f 723 709 730 
f 719 709 731 
f 709 722 731 
f 721 714 732 
f 719 731 732 
f 731 721 732 
f 706 713 733 
f 725 706 733 
f 713 725 733 
f 711 721 734 
f 722 711 734 
f 721 731 734 
f 731 722 734 
f 717 710 735 
f 710 723 735 
f 730 717 735 
f 723 730 735 
f 720 729 736 
f 716 705 737 
f 714 716 737 
f 705 732 737 
f 732 714 737 
f 705 726 738 
f 726 719 738 
f 732 705 738 
f 719 732 738 
f 710 708 739 
f 715 710 739 
f 715 739 740 
f 725 715 740 
f 729 725 740 
f 708 736 740 
f 736 729 740 
f 739 708 740 
f 708 712 741 
f 712 724 741 
f 724 720 741 
f 736 708 741 
f 720 736 741 
f 718 707 742 
f 724 718 742 
f 707 728 742 
f 728 724 742 
f 706 725 743 
f 728 706 743 
f 725 729 743 
o convex_24
v -0.022244 -0.045982 0.001074
v 0.003574 -0.050537 0.012466
v 0.003574 -0.052815 0.012466
v 0.003574 -0.053575 -0.023223
v 0.003574 -0.045982 -0.023223
v -0.022244 -0.053575 -0.023977
v -0.021483 -0.053575 0.000316
v -0.022244 -0.045982 -0.023977
v 0.001294 -0.045982 0.004872
v -0.012370 -0.049779 0.010947
v -0.007058 -0.053575 0.011705
v 0.003574 -0.047502 0.010947
v -0.022244 -0.050537 0.004872
v -0.021483 -0.051297 -0.024742
v 0.003574 -0.053575 0.011705
v -0.014650 -0.048261 0.009429
v -0.010851 -0.052815 0.011705
v -0.002502 -0.045982 -0.023977
v -0.014650 -0.045982 0.004111
v -0.005542 -0.048261 0.011705
v -0.009335 -0.051297 0.012466
v 0.003574 -0.045982 -0.000445
f 752 755 765 
f 745 746 747 
f 745 747 748 
f 749 747 750 
f 744 748 751 
f 749 744 751 
f 748 744 752 
f 750 747 754 
f 745 748 755 
f 744 749 756 
f 749 750 756 
f 747 749 757 
f 749 751 757 
f 747 746 758 
f 746 754 758 
f 754 747 758 
f 744 756 759 
f 756 753 759 
f 750 754 760 
f 756 750 760 
f 753 756 760 
f 748 747 761 
f 751 748 761 
f 747 757 761 
f 757 751 761 
f 752 744 762 
f 755 752 762 
f 744 759 762 
f 762 759 763 
f 745 755 763 
f 759 753 763 
f 755 762 763 
f 746 745 764 
f 754 746 764 
f 753 760 764 
f 760 754 764 
f 745 763 764 
f 763 753 764 
f 748 752 765 
f 755 748 765 
o convex_25
v -0.036669 -0.020924 -0.037641
v -0.021486 -0.016368 0.012466
v -0.027562 -0.016368 0.012466
v -0.022247 -0.022443 0.005630
v -0.023765 -0.017127 -0.031569
v -0.023765 -0.022443 -0.039159
v -0.038946 -0.022443 -0.018665
v -0.036669 -0.017127 -0.026256
v -0.021486 -0.016368 -0.014111
v -0.026044 -0.020164 0.011702
v -0.029839 -0.016368 -0.030815
v -0.021486 -0.022443 -0.014111
v -0.038187 -0.022443 -0.036887
v -0.034391 -0.016368 -0.014111
v -0.026044 -0.020164 -0.038405
v -0.038187 -0.019405 -0.020183
v -0.035151 -0.018646 -0.035369
v -0.038187 -0.019405 -0.032333
v -0.021486 -0.018646 0.012466
v -0.032873 -0.022443 -0.006520
v -0.022247 -0.021682 -0.028533
v -0.027562 -0.017886 0.012466
v -0.030596 -0.021682 -0.039929
v -0.028321 -0.016368 0.010943
v -0.025283 -0.016368 -0.030815
f 780 776 790 
f 771 769 772 
f 768 767 774 
f 768 774 776 
f 769 771 777 
f 774 767 777 
f 771 772 778 
f 776 773 779 
f 768 776 779 
f 770 771 780 
f 779 773 781 
f 773 776 782 
f 776 780 782 
f 766 778 783 
f 778 772 783 
f 772 781 783 
f 781 773 783 
f 782 766 783 
f 773 782 783 
f 767 768 784 
f 775 769 784 
f 777 767 784 
f 769 777 784 
f 772 769 785 
f 769 775 785 
f 775 772 785 
f 771 770 786 
f 770 774 786 
f 777 771 786 
f 774 777 786 
f 772 775 787 
f 784 768 787 
f 775 784 787 
f 778 766 788 
f 771 778 788 
f 780 771 788 
f 766 782 788 
f 782 780 788 
f 768 779 789 
f 781 772 789 
f 779 781 789 
f 787 768 789 
f 772 787 789 
f 774 770 790 
f 776 774 790 
f 770 780 790 
o convex_26
v -0.004019 0.051214 -0.037651
v 0.007369 0.051973 -0.023985
v 0.000537 0.052733 -0.028540
v -0.004019 0.050455 -0.023985
v 0.007369 0.051214 -0.037651
v 0.007369 0.052733 -0.037651
v -0.004019 0.052733 -0.037651
v 0.007369 0.050455 -0.027780
v -0.004019 0.051973 -0.023985
f 797 794 799 
f 792 795 796 
f 793 792 796 
f 795 791 796 
f 793 796 797 
f 791 794 797 
f 796 791 797 
f 792 794 798 
f 794 791 798 
f 791 795 798 
f 795 792 798 
f 792 793 799 
f 794 792 799 
f 793 797 799 
o convex_27
v 0.003574 -0.063447 -0.002724
v 0.021798 -0.054335 -0.000446
v 0.021038 -0.054335 0.001072
v 0.003574 -0.054335 -0.023220
v 0.017998 -0.064207 -0.028534
v 0.003574 -0.054335 0.003351
v 0.021798 -0.054335 -0.022459
v 0.021798 -0.064207 -0.017906
v 0.003574 -0.064207 -0.022459
v 0.016482 -0.061928 -0.000446
v 0.011168 -0.061928 -0.029295
v 0.019516 -0.055095 -0.025498
v 0.021798 -0.060409 -0.004242
v 0.003574 -0.061928 0.001072
v 0.004334 -0.064207 -0.005760
v 0.008891 -0.055095 0.003351
v 0.021798 -0.064207 -0.023220
v 0.010410 -0.064207 -0.029295
v 0.017998 -0.061928 -0.029295
v 0.014962 -0.062688 -0.001206
v 0.008891 -0.055095 -0.025498
v 0.014204 -0.060409 0.001072
f 815 813 821 
f 802 801 803 
f 802 803 805 
f 803 800 805 
f 803 801 806 
f 806 801 807 
f 800 803 808 
f 804 807 808 
f 803 806 811 
f 801 802 812 
f 807 801 812 
f 802 809 812 
f 809 807 812 
f 805 800 813 
f 800 808 814 
f 808 807 814 
f 802 805 815 
f 805 813 815 
f 807 804 816 
f 806 807 816 
f 808 803 817 
f 804 808 817 
f 803 810 817 
f 817 810 818 
f 811 806 818 
f 810 811 818 
f 816 804 818 
f 806 816 818 
f 804 817 818 
f 807 809 819 
f 813 800 819 
f 809 813 819 
f 800 814 819 
f 814 807 819 
f 810 803 820 
f 803 811 820 
f 811 810 820 
f 809 802 821 
f 813 809 821 
f 802 815 821 
o convex_28
v 0.003574 -0.054335 0.007149
v 0.021798 -0.048261 0.005626
v 0.021038 -0.048261 0.006391
v 0.003574 -0.044464 -0.023223
v 0.021798 -0.054335 -0.022462
v 0.003574 -0.054335 -0.023223
v 0.021798 -0.044464 -0.023223
v 0.011929 -0.044464 0.004871
v 0.003574 -0.047502 0.010946
v 0.021798 -0.054335 0.000312
v 0.008891 -0.052815 0.012466
v 0.021798 -0.044464 0.002594
v 0.003574 -0.044464 -0.001965
v 0.011168 -0.048261 0.010946
v 0.003574 -0.053576 0.011705
v 0.020276 -0.051296 0.006391
v 0.020276 -0.044464 0.004113
v 0.011929 -0.052057 0.011705
f 831 837 839 
f 822 825 827 
f 826 822 827 
f 826 827 828 
f 823 826 828 
f 827 825 828 
f 828 825 829 
f 825 822 830 
f 822 826 831 
f 826 823 831 
f 824 823 833 
f 823 828 833 
f 828 829 833 
f 829 825 834 
f 825 830 834 
f 830 829 834 
f 830 832 835 
f 830 822 836 
f 822 831 836 
f 832 830 836 
f 831 832 836 
f 823 824 837 
f 831 823 837 
f 829 830 838 
f 824 833 838 
f 833 829 838 
f 830 835 838 
f 835 824 838 
f 832 831 839 
f 835 832 839 
f 824 835 839 
f 837 824 839 
o convex_29
v 0.021798 -0.023202 -0.013343
v 0.003574 -0.044464 -0.023223
v 0.021798 -0.044464 -0.023223
v 0.005094 -0.044464 0.012466
v 0.003574 -0.027002 -0.027771
v 0.003574 -0.026240 0.012466
v 0.021798 -0.041425 0.003351
v 0.015722 -0.027760 -0.037651
v 0.021038 -0.023962 0.003351
v 0.008891 -0.042944 -0.035370
v 0.003574 -0.023202 -0.015624
v 0.021798 -0.036869 -0.034609
v 0.011168 -0.033075 0.012466
v 0.008132 -0.027002 -0.036890
v 0.003574 -0.023202 0.005628
v 0.020276 -0.044464 0.004112
v 0.003574 -0.038386 -0.032333
v 0.021798 -0.025483 -0.027771
v 0.003574 -0.044464 0.012466
v 0.014962 -0.042944 -0.035370
v 0.021798 -0.023202 0.001830
v 0.021798 -0.042944 -0.030057
v 0.014204 -0.026240 -0.034609
v 0.021798 -0.029279 -0.033093
v 0.005854 -0.026240 0.012466
v 0.008891 -0.040665 0.012466
v 0.004334 -0.031558 -0.033854
v 0.015722 -0.041425 -0.036130
v 0.021798 -0.044464 0.002591
v 0.021038 -0.027760 0.004112
v 0.008132 -0.030798 -0.036890
v 0.003574 -0.041425 -0.030807
v 0.004334 -0.038386 -0.033854
v 0.017998 -0.023202 0.004112
f 854 864 873 
f 841 842 843 
f 844 841 845 
f 842 840 846 
f 842 841 849 
f 844 845 850 
f 840 842 851 
f 845 843 852 
f 844 850 853 
f 850 845 854 
f 840 850 854 
f 843 842 855 
f 846 852 855 
f 841 844 856 
f 840 851 857 
f 841 843 858 
f 845 841 858 
f 843 845 858 
f 842 849 859 
f 846 840 860 
f 840 854 860 
f 851 842 861 
f 842 859 861 
f 850 840 862 
f 847 853 862 
f 853 850 862 
f 840 857 862 
f 857 847 862 
f 851 847 863 
f 857 851 863 
f 847 857 863 
f 845 852 864 
f 852 848 864 
f 854 845 864 
f 852 843 865 
f 843 855 865 
f 855 852 865 
f 844 853 866 
f 856 844 866 
f 847 851 867 
f 859 849 867 
f 851 861 867 
f 861 859 867 
f 842 846 868 
f 855 842 868 
f 846 855 868 
f 852 846 869 
f 848 852 869 
f 846 860 869 
f 860 848 869 
f 853 847 870 
f 866 853 870 
f 847 867 870 
f 867 849 870 
f 849 841 871 
f 841 856 871 
f 871 856 872 
f 856 866 872 
f 870 849 872 
f 866 870 872 
f 849 871 872 
f 848 860 873 
f 860 854 873 
f 864 848 873 
o convex_30
v 0.021798 -0.066483 -0.019429
v 0.034707 -0.060411 -0.028538
v 0.034707 -0.061170 -0.028538
v 0.021798 -0.065724 -0.033095
v 0.021798 -0.060411 -0.017909
v 0.031669 -0.063448 -0.017909
v 0.030149 -0.066483 -0.031576
v 0.033188 -0.060411 -0.031576
v 0.031669 -0.060411 -0.017148
v 0.021798 -0.060411 -0.022465
v 0.024076 -0.067244 -0.033095
v 0.027875 -0.065724 -0.018667
v 0.033946 -0.063448 -0.031576
v 0.021798 -0.065724 -0.017909
v 0.021798 -0.067244 -0.021705
v 0.033188 -0.061930 -0.018667
f 879 886 889 
f 877 874 878 
f 878 875 881 
f 875 878 882 
f 877 878 883 
f 881 877 883 
f 878 881 883 
f 877 881 884 
f 880 879 885 
f 875 876 886 
f 879 880 886 
f 881 875 886 
f 880 884 886 
f 884 881 886 
f 878 874 887 
f 882 878 887 
f 879 882 887 
f 874 885 887 
f 885 879 887 
f 874 877 888 
f 877 884 888 
f 884 880 888 
f 885 874 888 
f 880 885 888 
f 876 875 889 
f 875 882 889 
f 882 879 889 
f 886 876 889 
o convex_31
v 0.021798 -0.055854 -0.002721
v 0.035466 -0.057372 -0.029297
v 0.035466 -0.058890 -0.029297
v 0.021798 -0.053576 -0.022462
v 0.021798 -0.060410 -0.022462
v 0.030909 -0.053576 -0.005762
v 0.033188 -0.060410 -0.017902
v 0.033945 -0.053576 -0.023221
v 0.033188 -0.060410 -0.031576
v 0.022558 -0.058131 -0.005002
v 0.021798 -0.053576 -0.001961
v 0.027873 -0.056613 -0.004240
v 0.033945 -0.055854 -0.030057
v 0.021798 -0.060410 -0.017143
v 0.034706 -0.054336 -0.021703
v 0.034706 -0.054336 -0.027776
v 0.033945 -0.059650 -0.018662
f 904 895 906 
f 890 893 894 
f 893 895 897 
f 891 892 898 
f 894 893 898 
f 896 894 898 
f 892 896 898 
f 893 890 900 
f 895 893 900 
f 895 900 901 
f 896 895 901 
f 890 899 901 
f 899 896 901 
f 900 890 901 
f 891 898 902 
f 898 893 902 
f 890 894 903 
f 894 896 903 
f 899 890 903 
f 896 899 903 
f 892 891 904 
f 897 895 904 
f 897 904 905 
f 893 897 905 
f 891 902 905 
f 902 893 905 
f 904 891 905 
f 896 892 906 
f 895 896 906 
f 892 904 906 
o convex_32
v 0.029393 -0.023964 -0.001209
v 0.031667 -0.053573 -0.026256
v 0.027114 -0.052813 -0.029296
v 0.038503 -0.023961 -0.038405
v 0.021800 -0.027002 -0.030813
v 0.021800 -0.052813 -0.001209
v 0.039262 -0.043703 -0.011836
v 0.021800 -0.023964 -0.000450
v 0.038503 -0.039144 -0.041444
v 0.026356 -0.038393 -0.042962
v 0.039262 -0.023961 -0.013358
v 0.021800 -0.053573 -0.022463
v 0.040022 -0.049016 -0.023221
v 0.028634 -0.053573 -0.002726
v 0.027114 -0.023964 -0.039927
v 0.040782 -0.029280 -0.037646
v 0.038503 -0.047497 -0.036887
v 0.029393 -0.038393 0.000309
v 0.038503 -0.036874 -0.008042
v 0.026356 -0.046738 -0.039168
v 0.021800 -0.036874 -0.034611
v 0.033945 -0.032318 -0.042962
v 0.037742 -0.052054 -0.021704
v 0.040782 -0.043703 -0.032331
v 0.021800 -0.028521 0.001072
v 0.040782 -0.025483 -0.030813
v 0.026356 -0.030799 -0.042962
v 0.032427 -0.025483 -0.002726
v 0.030911 -0.053573 -0.005007
v 0.023318 -0.042941 0.001072
v 0.026356 -0.051295 -0.033852
v 0.039262 -0.033077 -0.009560
v 0.038503 -0.049776 -0.033094
v 0.029393 -0.045219 -0.000450
v 0.031667 -0.041422 -0.042203
v 0.039262 -0.048257 -0.016393
v 0.040782 -0.042184 -0.036887
v 0.039262 -0.033077 -0.041444
v 0.021800 -0.023964 -0.013358
v 0.040022 -0.044460 -0.017910
v 0.029393 -0.030039 0.000309
v 0.025596 -0.046738 -0.038409
v 0.033187 -0.050535 -0.034611
v 0.033187 -0.025483 -0.040686
v 0.040022 -0.023961 -0.019428
v 0.021800 -0.053573 -0.001968
v 0.038503 -0.031555 -0.008038
v 0.031667 -0.036115 -0.001209
v 0.040022 -0.049016 -0.030054
v 0.036223 -0.052813 -0.024739
v 0.021800 -0.025483 -0.027778
v 0.021800 -0.029280 -0.033094
v 0.033187 -0.048257 -0.037651
v 0.030153 -0.049016 -0.001968
v 0.040022 -0.023961 -0.036129
v 0.027874 -0.048257 -0.000450
v 0.026356 -0.023964 -0.039168
v 0.038503 -0.042182 -0.009560
f 960 935 964 
f 911 912 914 
f 914 907 917 
f 910 914 917 
f 909 908 918 
f 912 911 918 
f 918 908 920 
f 918 911 927 
f 907 914 931 
f 914 912 931 
f 930 922 932 
f 916 927 933 
f 928 916 933 
f 917 907 934 
f 920 908 935 
f 931 912 936 
f 908 909 937 
f 909 918 937 
f 925 913 938 
f 915 923 941 
f 926 916 941 
f 928 915 941 
f 916 928 941 
f 929 919 942 
f 913 935 942 
f 935 929 942 
f 923 915 943 
f 922 930 943 
f 910 922 944 
f 928 910 944 
f 915 928 944 
f 943 915 944 
f 922 943 944 
f 914 910 945 
f 911 914 945 
f 919 930 946 
f 930 932 946 
f 938 913 946 
f 913 942 946 
f 942 919 946 
f 907 931 947 
f 934 907 947 
f 936 924 947 
f 931 936 947 
f 916 926 948 
f 918 927 948 
f 927 916 948 
f 937 918 948 
f 926 937 948 
f 908 937 949 
f 939 908 949 
f 923 939 949 
f 921 910 950 
f 910 928 950 
f 933 921 950 
f 928 933 950 
f 910 917 951 
f 917 938 951 
f 946 932 951 
f 938 946 951 
f 912 918 952 
f 920 912 952 
f 918 920 952 
f 917 934 953 
f 925 938 953 
f 938 917 953 
f 924 940 954 
f 940 925 954 
f 947 924 954 
f 934 947 954 
f 925 953 954 
f 953 934 954 
f 919 929 955 
f 930 919 955 
f 929 939 955 
f 939 923 955 
f 923 943 955 
f 943 930 955 
f 935 908 956 
f 929 935 956 
f 939 929 956 
f 908 939 956 
f 911 945 957 
f 927 911 958 
f 933 927 958 
f 937 926 959 
f 941 923 959 
f 926 941 959 
f 923 949 959 
f 949 937 959 
f 920 935 960 
f 925 940 960 
f 922 910 961 
f 932 922 961 
f 910 951 961 
f 951 932 961 
f 912 920 962 
f 936 912 962 
f 924 936 962 
f 940 924 962 
f 920 960 962 
f 960 940 962 
f 910 921 963 
f 921 933 963 
f 945 910 963 
f 911 957 963 
f 957 945 963 
f 958 911 963 
f 933 958 963 
f 913 925 964 
f 935 913 964 
f 925 960 964 
o convex_33
v 0.030910 -0.020923 -0.037648
v 0.040022 -0.023202 -0.020185
v 0.040022 -0.023961 -0.020185
v 0.021798 -0.016368 0.012466
v 0.021798 -0.023961 0.000315
v 0.037741 -0.017127 -0.027019
v 0.025598 -0.017127 -0.031573
v 0.026356 -0.023961 -0.039169
v 0.027114 -0.016368 0.012466
v 0.021798 -0.016368 -0.013352
v 0.039262 -0.023961 -0.036890
v 0.024838 -0.020165 0.012466
v 0.037741 -0.023961 -0.011077
v 0.039262 -0.018646 -0.021701
v 0.033945 -0.016368 -0.027772
v 0.021798 -0.023961 -0.013352
v 0.030910 -0.023961 -0.001964
v 0.025598 -0.021683 -0.037648
v 0.039262 -0.021683 -0.015621
v 0.034704 -0.016368 -0.012599
v 0.039262 -0.021683 -0.035368
v 0.021798 -0.020923 0.011703
v 0.030910 -0.018646 -0.034610
v 0.040022 -0.020923 -0.031573
v 0.026356 -0.016368 -0.027772
v 0.035463 -0.022442 -0.038406
f 987 985 990 
f 967 969 972 
f 969 968 974 
f 968 973 974 
f 967 972 975 
f 973 968 976 
f 973 976 977 
f 969 967 977 
f 974 973 979 
f 972 969 980 
f 969 974 980 
f 977 976 981 
f 969 977 981 
f 971 965 982 
f 965 972 982 
f 974 971 982 
f 972 980 982 
f 980 974 982 
f 967 966 983 
f 973 977 983 
f 977 967 983 
f 978 973 983 
f 966 978 983 
f 978 970 984 
f 973 978 984 
f 970 979 984 
f 979 973 984 
f 968 969 986 
f 976 968 986 
f 969 981 986 
f 981 976 986 
f 965 971 987 
f 979 970 987 
f 971 979 987 
f 970 985 987 
f 966 967 988 
f 967 975 988 
f 970 978 988 
f 978 966 988 
f 975 985 988 
f 985 970 988 
f 971 974 989 
f 979 971 989 
f 974 979 989 
f 972 965 990 
f 975 972 990 
f 985 975 990 
f 965 987 990 
o convex_34
v -0.034393 0.045898 -0.023224
v -0.034393 0.038305 -0.027022
v -0.033635 0.038305 -0.027022
v -0.032875 0.045898 -0.036891
v -0.036671 0.042102 -0.035372
v -0.031357 0.042102 -0.021704
v -0.035912 0.039065 -0.023224
v -0.032875 0.039065 -0.032333
v -0.031357 0.045898 -0.028541
v -0.031357 0.038305 -0.021704
v -0.035153 0.045898 -0.036891
v -0.035912 0.043620 -0.023985
v -0.035912 0.039065 -0.033093
v -0.031357 0.045898 -0.022464
f 999 991 1004 
f 996 991 997 
f 995 994 998 
f 994 991 999 
f 998 994 999 
f 992 993 1000 
f 997 992 1000 
f 996 997 1000 
f 993 998 1000 
f 999 996 1000 
f 998 999 1000 
f 991 994 1001 
f 994 995 1001 
f 1001 995 1002 
f 997 991 1002 
f 995 997 1002 
f 991 1001 1002 
f 993 992 1003 
f 992 997 1003 
f 997 995 1003 
f 998 993 1003 
f 995 998 1003 
f 991 996 1004 
f 996 999 1004 
o convex_35
v -0.010855 0.040584 -0.025501
v -0.009335 0.045898 -0.021705
v -0.009335 0.038305 -0.021705
v -0.031356 0.038305 -0.021705
v -0.031356 0.045898 -0.026260
v -0.028317 0.045898 -0.021705
v -0.009335 0.045898 -0.026260
v -0.031356 0.044379 -0.026260
v -0.011614 0.038305 -0.023982
v -0.031356 0.038305 -0.022464
v -0.031356 0.045898 -0.022464
f 1008 1010 1015 
f 1007 1006 1008 
f 1006 1009 1010 
f 1008 1006 1010 
f 1007 1005 1011 
f 1006 1007 1011 
f 1009 1006 1011 
f 1009 1011 1012 
f 1008 1009 1012 
f 1011 1005 1012 
f 1005 1007 1013 
f 1007 1008 1013 
f 1012 1005 1014 
f 1008 1012 1014 
f 1013 1008 1014 
f 1005 1013 1014 
f 1009 1008 1015 
f 1010 1009 1015 
o convex_36
v -0.015410 0.050454 -0.021704
v -0.026797 0.048177 -0.037651
v -0.026797 0.049695 -0.037651
v -0.004020 0.051212 -0.037651
v -0.009339 0.045898 -0.021704
v -0.033629 0.045898 -0.023223
v -0.009339 0.045898 -0.033853
v -0.004020 0.051973 -0.022465
v -0.023765 0.051213 -0.027779
v -0.034394 0.045898 -0.036887
v -0.010094 0.052733 -0.037651
v -0.004020 0.048177 -0.021704
v -0.030591 0.048936 -0.023986
v -0.032113 0.048936 -0.036132
v -0.009339 0.047419 -0.036887
v -0.013132 0.051973 -0.023986
v -0.004020 0.052733 -0.033853
v -0.026797 0.046658 -0.021704
v -0.017690 0.051973 -0.037651
v -0.034394 0.046658 -0.026261
f 1028 1029 1035 
f 1017 1018 1019 
f 1020 1021 1022 
f 1018 1017 1025 
f 1022 1021 1025 
f 1019 1018 1026 
f 1016 1020 1027 
f 1022 1019 1027 
f 1020 1022 1027 
f 1023 1016 1027 
f 1019 1023 1027 
f 1018 1025 1029 
f 1028 1024 1029 
f 1017 1019 1030 
f 1019 1022 1030 
f 1025 1017 1030 
f 1022 1025 1030 
f 1016 1023 1031 
f 1026 1024 1031 
f 1028 1016 1031 
f 1024 1028 1031 
f 1023 1019 1032 
f 1019 1026 1032 
f 1031 1023 1032 
f 1026 1031 1032 
f 1020 1016 1033 
f 1021 1020 1033 
f 1016 1028 1033 
f 1028 1021 1033 
f 1026 1018 1034 
f 1024 1026 1034 
f 1018 1029 1034 
f 1029 1024 1034 
f 1025 1021 1035 
f 1021 1028 1035 
f 1029 1025 1035 
o convex_37
v 0.002055 -0.045982 0.012466
v -0.013132 -0.036868 0.011706
v -0.009335 -0.038387 0.005632
v 0.003574 -0.026242 0.012466
v 0.003574 -0.029279 0.005632
v -0.007057 -0.025482 0.012466
v 0.003574 -0.041423 0.005632
v -0.007057 -0.031556 0.005632
v -0.005538 -0.045220 0.012466
v -0.004020 -0.042184 0.005632
v 0.003574 -0.045220 0.012466
v -0.013132 -0.034594 0.012466
v -0.002501 -0.028520 0.005632
v -0.010094 -0.030039 0.010187
v -0.009335 -0.034594 0.005632
v -0.007057 -0.044461 0.011706
f 1045 1044 1051 
f 1036 1039 1041 
f 1040 1039 1042 
f 1038 1040 1042 
f 1040 1038 1043 
f 1036 1041 1044 
f 1042 1036 1045 
f 1038 1042 1045 
f 1036 1044 1045 
f 1039 1036 1046 
f 1036 1042 1046 
f 1042 1039 1046 
f 1037 1044 1047 
f 1044 1041 1047 
f 1039 1040 1048 
f 1041 1039 1048 
f 1040 1043 1048 
f 1043 1041 1048 
f 1041 1043 1049 
f 1047 1041 1049 
f 1047 1049 1050 
f 1038 1037 1050 
f 1043 1038 1050 
f 1037 1047 1050 
f 1049 1043 1050 
f 1037 1038 1051 
f 1044 1037 1051 
f 1038 1045 1051 
o convex_38
v 0.036984 0.045139 -0.031574
v 0.024838 0.048934 -0.036130
v 0.033187 0.039064 -0.030057
v 0.024838 0.049694 -0.023984
v 0.036984 0.039064 -0.023984
v 0.033187 0.048175 -0.023984
v 0.033187 0.048934 -0.035371
v 0.036984 0.041344 -0.033852
v 0.032428 0.039064 -0.023984
v 0.027874 0.050455 -0.035371
v 0.024838 0.048175 -0.023984
v 0.036224 0.044380 -0.023984
v 0.024838 0.050455 -0.025502
v 0.037743 0.043621 -0.033852
f 1063 1056 1065 
f 1055 1056 1057 
f 1057 1052 1058 
f 1054 1053 1059 
f 1056 1054 1059 
f 1053 1058 1059 
f 1053 1054 1060 
f 1056 1055 1060 
f 1054 1056 1060 
f 1058 1053 1061 
f 1057 1058 1061 
f 1055 1053 1062 
f 1053 1060 1062 
f 1060 1055 1062 
f 1052 1057 1063 
f 1057 1056 1063 
f 1053 1055 1064 
f 1055 1057 1064 
f 1061 1053 1064 
f 1057 1061 1064 
f 1058 1052 1065 
f 1056 1059 1065 
f 1059 1058 1065 
f 1052 1063 1065 
o convex_39
v 0.036983 0.040585 -0.023222
v 0.014202 0.051973 -0.023222
v 0.014202 0.051973 -0.023982
v 0.007379 0.038305 -0.020187
v 0.024075 0.048176 -0.019427
v -0.004020 0.049692 -0.023982
v -0.004020 0.049692 -0.019427
v 0.034703 0.038306 -0.019427
v 0.032427 0.039068 -0.023982
v 0.033186 0.048174 -0.023982
v 0.009654 0.038305 -0.022463
v 0.033186 0.047415 -0.020946
v 0.007379 0.038305 -0.019427
v -0.000219 0.051973 -0.021704
v 0.009654 0.042863 -0.023982
v -0.004020 0.051973 -0.023982
v 0.015723 0.049692 -0.019427
v 0.023313 0.050453 -0.021704
v -0.004020 0.048176 -0.022463
v 0.036220 0.044379 -0.021704
f 1075 1077 1085 
f 1070 1072 1073 
f 1071 1068 1074 
f 1066 1073 1074 
f 1066 1074 1075 
f 1074 1068 1075 
f 1074 1073 1076 
f 1070 1073 1077 
f 1073 1072 1078 
f 1069 1076 1078 
f 1076 1073 1078 
f 1067 1068 1079 
f 1071 1074 1080 
f 1076 1071 1080 
f 1074 1076 1080 
f 1068 1071 1081 
f 1071 1072 1081 
f 1079 1068 1081 
f 1072 1079 1081 
f 1072 1070 1082 
f 1067 1079 1082 
f 1079 1072 1082 
f 1068 1067 1083 
f 1075 1068 1083 
f 1070 1077 1083 
f 1077 1075 1083 
f 1082 1070 1083 
f 1067 1082 1083 
f 1072 1071 1084 
f 1076 1069 1084 
f 1071 1076 1084 
f 1069 1078 1084 
f 1078 1072 1084 
f 1073 1066 1085 
f 1066 1075 1085 
f 1077 1073 1085 
o convex_40
v -0.029077 -0.004980 0.009425
v -0.029077 -0.016367 -0.023221
v -0.026800 -0.016367 -0.023221
v -0.029837 -0.004980 -0.027019
v -0.021485 -0.004980 -0.021701
v -0.021485 -0.016367 0.012466
v -0.028318 -0.016367 0.012466
v -0.021485 -0.004980 0.009425
v -0.021485 -0.016367 -0.014109
v -0.029837 -0.016367 -0.002724
v -0.021485 -0.008775 -0.024738
v -0.029837 -0.013329 -0.027779
v -0.029077 -0.007257 0.012466
v -0.029837 -0.004980 0.008668
v -0.021485 -0.007257 0.012466
v -0.026800 -0.004980 -0.027019
f 1096 1097 1101 
f 1089 1086 1090 
f 1087 1088 1091 
f 1087 1091 1092 
f 1090 1086 1093 
f 1091 1090 1093 
f 1091 1088 1094 
f 1090 1091 1094 
f 1087 1092 1095 
f 1094 1088 1096 
f 1090 1094 1096 
f 1088 1087 1097 
f 1087 1095 1097 
f 1095 1089 1097 
f 1096 1088 1097 
f 1092 1091 1098 
f 1093 1086 1098 
f 1086 1089 1099 
f 1089 1095 1099 
f 1095 1092 1099 
f 1092 1098 1099 
f 1098 1086 1099 
f 1091 1093 1100 
f 1098 1091 1100 
f 1093 1098 1100 
f 1089 1090 1101 
f 1090 1096 1101 
f 1097 1089 1101 
o convex_41
v 0.024834 0.050454 -0.023985
v 0.007372 0.051213 -0.037651
v 0.007372 0.050454 -0.036889
v 0.007372 0.051973 -0.023985
v 0.009651 0.045898 -0.023985
v 0.024834 0.048936 -0.036130
v 0.019518 0.051973 -0.036130
v 0.010409 0.045898 -0.034611
v 0.022555 0.047418 -0.023985
v 0.007372 0.052733 -0.037651
v 0.014206 0.051973 -0.023985
v 0.024834 0.051213 -0.030817
v 0.011168 0.048177 -0.036889
f 1107 1109 1114 
f 1103 1104 1105 
f 1102 1105 1106 
f 1105 1104 1106 
f 1104 1103 1109 
f 1106 1104 1109 
f 1109 1107 1110 
f 1102 1106 1110 
f 1107 1102 1110 
f 1106 1109 1110 
f 1103 1105 1111 
f 1107 1103 1111 
f 1108 1107 1111 
f 1108 1111 1112 
f 1105 1102 1112 
f 1111 1105 1112 
f 1102 1107 1113 
f 1107 1108 1113 
f 1108 1112 1113 
f 1112 1102 1113 
f 1103 1107 1114 
f 1109 1103 1114 
o convex_42
v -0.007815 -0.033832 0.042838
v 0.010405 -0.023202 0.040562
v 0.010405 -0.023202 0.032211
v -0.013889 -0.023202 0.031450
v 0.009644 -0.036870 0.032971
v -0.013889 -0.036110 0.032211
v -0.013889 -0.024723 0.040562
v 0.010405 -0.033072 0.042838
v -0.013889 -0.036110 0.039802
v 0.000534 -0.030036 0.043599
v -0.012369 -0.023202 0.039802
v 0.005090 -0.034592 0.042078
v -0.008574 -0.036870 0.032211
v -0.013889 -0.029277 0.042078
v 0.007366 -0.036870 0.035247
v -0.007815 -0.024723 0.041321
v 0.008127 -0.031555 0.043599
v 0.010405 -0.036110 0.032971
f 1122 1119 1132 
f 1116 1117 1118 
f 1118 1120 1121 
f 1117 1116 1122 
f 1121 1120 1123 
f 1116 1118 1125 
f 1118 1121 1125 
f 1122 1115 1126 
f 1115 1123 1126 
f 1118 1117 1127 
f 1117 1119 1127 
f 1120 1118 1127 
f 1123 1120 1127 
f 1123 1115 1128 
f 1121 1123 1128 
f 1115 1124 1128 
f 1119 1122 1129 
f 1122 1126 1129 
f 1126 1123 1129 
f 1127 1119 1129 
f 1123 1127 1129 
f 1124 1116 1130 
f 1116 1125 1130 
f 1125 1121 1130 
f 1121 1128 1130 
f 1128 1124 1130 
f 1122 1116 1131 
f 1115 1122 1131 
f 1116 1124 1131 
f 1124 1115 1131 
f 1119 1117 1132 
f 1117 1122 1132 
