o convex_0
v -0.051411 -0.035737 -0.036414
v 0.018014 0.018901 -0.039626
v 0.018014 0.018901 -0.040272
v 0.042448 -0.032527 -0.040272
v 0.030231 0.001532 -0.017127
v -0.048841 -0.014541 -0.017127
v 0.016087 -0.028027 -0.019703
v -0.037267 0.010532 -0.040272
v -0.007051 0.014394 -0.017127
v -0.016687 -0.051179 -0.040272
v 0.050800 -0.008106 -0.029984
v -0.059774 -0.024165 -0.040272
v -0.038552 -0.024810 -0.017127
v 0.043733 0.007966 -0.040272
v 0.043091 -0.019027 -0.022915
v -0.047557 -0.004251 -0.019703
v 0.028304 0.014394 -0.028058
v 0.008367 -0.048600 -0.038983
v -0.005124 0.018901 -0.029340
v 0.053380 -0.017099 -0.040272
v -0.028904 0.011177 -0.022915
v 0.017372 -0.024165 -0.017127
v 0.041806 -0.028672 -0.029984
v -0.039194 -0.031889 -0.022274
v 0.043733 -0.001034 -0.022915
v -0.054623 -0.008106 -0.038983
v -0.054623 -0.017737 -0.021628
v -0.017330 -0.031882 -0.020985
v 0.023165 0.009894 -0.017127
v -0.026335 0.015032 -0.040272
v 0.012233 -0.037672 -0.027417
v -0.034697 0.004111 -0.017127
v -0.039837 0.007966 -0.029982
v 0.012875 0.016321 -0.023556
v -0.038552 -0.044106 -0.039626
v -0.014760 -0.051179 -0.038983
v 0.043091 -0.010679 -0.020985
v -0.058478 -0.030599 -0.040272
v -0.051411 -0.024810 -0.022915
v 0.029589 -0.040882 -0.040272
v 0.043733 0.004111 -0.028699
v 0.030874 0.015684 -0.033840
v -0.053981 -0.011968 -0.021628
v -0.038552 -0.040244 -0.031910
v -0.051411 -0.003606 -0.031910
v 0.052085 -0.006179 -0.038342
v -0.005124 0.018256 -0.040272
v -0.028904 0.013749 -0.033199
v 0.027662 -0.013251 -0.017127
v 0.050800 -0.022244 -0.038342
v -0.058478 -0.020317 -0.031268
v -0.007051 0.017611 -0.024200
v 0.007082 0.014394 -0.017127
v 0.021226 0.016966 -0.028699
v 0.050157 -0.014534 -0.029984
v 0.032801 0.015039 -0.040272
v 0.041163 -0.026744 -0.027415
v 0.048230 -0.001034 -0.029984
v 0.044376 -0.028027 -0.031912
v -0.015403 -0.046034 -0.033840
v -0.048199 -0.030599 -0.026128
v -0.018626 -0.026099 -0.017127
v -0.055266 -0.026744 -0.029340
v -0.052696 -0.005534 -0.040272
f 26 45 64 
f 3 4 8 
f 6 5 9 
f 8 4 10 
f 8 10 12 
f 5 6 13 
f 4 3 14 
f 2 3 19 
f 4 14 20 
f 5 13 22 
f 7 22 28 
f 13 24 28 
f 9 5 29 
f 5 25 29 
f 3 8 30 
f 18 23 31 
f 7 28 31 
f 6 9 32 
f 16 6 32 
f 9 21 32 
f 32 21 33 
f 16 32 33 
f 10 18 36 
f 18 31 36 
f 35 10 36 
f 11 25 37 
f 25 5 37 
f 12 10 38 
f 35 1 38 
f 10 35 38 
f 13 6 39 
f 24 13 39 
f 6 27 39 
f 10 4 40 
f 18 10 40 
f 23 18 40 
f 17 29 41 
f 29 25 41 
f 3 2 42 
f 41 14 42 
f 17 41 42 
f 6 16 43 
f 27 6 43 
f 1 35 44 
f 36 24 44 
f 35 36 44 
f 33 8 45 
f 16 33 45 
f 43 16 45 
f 26 43 45 
f 20 14 46 
f 11 20 46 
f 19 3 47 
f 3 30 47 
f 30 19 47 
f 30 8 48 
f 19 30 48 
f 33 21 48 
f 8 33 48 
f 5 22 49 
f 22 15 49 
f 15 37 49 
f 37 5 49 
f 4 20 50 
f 26 12 51 
f 12 38 51 
f 43 26 51 
f 27 43 51 
f 21 9 52 
f 34 19 52 
f 19 48 52 
f 48 21 52 
f 9 29 53 
f 52 9 53 
f 34 52 53 
f 2 19 54 
f 29 17 54 
f 19 34 54 
f 42 2 54 
f 17 42 54 
f 53 29 54 
f 34 53 54 
f 20 11 55 
f 11 37 55 
f 37 15 55 
f 50 20 55 
f 14 3 56 
f 3 42 56 
f 42 14 56 
f 22 7 57 
f 15 22 57 
f 7 31 57 
f 31 23 57 
f 25 11 58 
f 14 41 58 
f 41 25 58 
f 46 14 58 
f 11 46 58 
f 40 4 59 
f 23 40 59 
f 4 50 59 
f 55 15 59 
f 50 55 59 
f 15 57 59 
f 57 23 59 
f 28 24 60 
f 31 28 60 
f 24 36 60 
f 36 31 60 
f 24 39 61 
f 1 44 61 
f 44 24 61 
f 22 13 62 
f 13 28 62 
f 28 22 62 
f 38 1 63 
f 39 27 63 
f 51 38 63 
f 27 51 63 
f 1 61 63 
f 61 39 63 
f 8 12 64 
f 12 26 64 
f 45 8 64 
o convex_1
v -0.039836 -0.022888 -0.017126
v 0.006448 0.015686 -0.011984
v 0.006448 0.015686 -0.012627
v 0.018015 -0.022888 -0.016483
v -0.022482 -0.020954 -0.011984
v 0.001947 0.015042 -0.017126
v 0.030229 -0.011316 -0.011984
v -0.046911 -0.007453 -0.016483
v 0.027663 0.004751 -0.017126
v -0.015407 0.010539 -0.011984
v -0.033409 0.004110 -0.017126
v 0.018015 0.014397 -0.011984
v 0.027016 -0.014526 -0.017126
v -0.025695 -0.000389 -0.011984
v 0.021876 -0.017100 -0.011984
v -0.018621 -0.025462 -0.017126
v -0.043050 -0.014530 -0.015198
v -0.008980 0.013753 -0.017126
v 0.029590 -0.004247 -0.011984
v 0.023162 0.009254 -0.017126
v -0.007061 0.014393 -0.011984
v -0.047550 -0.013886 -0.017126
v -0.034049 -0.002962 -0.013270
v -0.035976 0.000896 -0.015198
v -0.038549 -0.023528 -0.016483
v 0.018015 -0.022888 -0.017126
v -0.018621 -0.025462 -0.016483
v 0.029590 -0.011956 -0.015198
v -0.024401 -0.018385 -0.011984
v 0.027663 -0.014526 -0.011984
v -0.041123 -0.020314 -0.015840
v 0.007087 0.014397 -0.017126
v -0.019908 -0.020954 -0.011984
v 0.027016 0.006040 -0.016483
v 0.028303 0.002821 -0.017126
v -0.046263 -0.013241 -0.015840
v -0.003201 0.015042 -0.015840
v -0.046911 -0.007453 -0.017126
v 0.018015 0.014397 -0.012627
v 0.030229 -0.008098 -0.013912
v -0.033409 0.004110 -0.016483
f 88 74 105 
f 66 69 71 
f 65 70 73 
f 69 66 74 
f 70 65 75 
f 67 66 76 
f 66 71 76 
f 65 73 77 
f 69 74 78 
f 71 69 79 
f 65 77 80 
f 70 75 82 
f 76 71 83 
f 73 70 84 
f 74 66 85 
f 75 65 86 
f 78 74 87 
f 72 87 88 
f 87 74 88 
f 65 80 89 
f 68 80 90 
f 80 77 90 
f 80 68 91 
f 89 80 91 
f 69 89 91 
f 69 78 93 
f 81 69 93 
f 78 87 93 
f 87 81 93 
f 79 68 94 
f 71 79 94 
f 68 90 94 
f 90 77 94 
f 92 71 94 
f 77 92 94 
f 69 81 95 
f 86 65 95 
f 65 89 95 
f 89 69 95 
f 84 70 96 
f 68 79 97 
f 79 69 97 
f 91 68 97 
f 69 91 97 
f 83 73 98 
f 76 83 98 
f 73 84 98 
f 77 73 99 
f 73 83 99 
f 92 77 99 
f 72 86 100 
f 87 72 100 
f 81 87 100 
f 95 81 100 
f 86 95 100 
f 66 67 101 
f 67 70 101 
f 70 82 101 
f 85 66 101 
f 82 85 101 
f 72 75 102 
f 86 72 102 
f 75 86 102 
f 70 67 103 
f 67 76 103 
f 96 70 103 
f 84 96 103 
f 76 98 103 
f 98 84 103 
f 83 71 104 
f 71 92 104 
f 99 83 104 
f 92 99 104 
f 75 72 105 
f 82 75 105 
f 74 85 105 
f 85 82 105 
f 72 88 105 
o convex_2
v -0.011554 -0.022890 0.012450
v 0.011592 -0.022890 0.016312
v 0.010948 -0.022890 0.020802
v -0.000622 -0.032533 0.013736
v -0.000622 -0.023534 0.035594
v -0.001266 -0.022890 0.002161
v -0.001266 -0.029961 0.030446
v 0.005162 -0.031246 0.008592
v -0.005124 -0.031246 0.009237
v 0.002590 -0.029318 0.030446
v 0.010948 -0.022890 0.007309
v 0.001304 -0.022890 0.035594
v -0.003837 -0.028032 0.029801
v -0.008980 -0.023534 0.006020
v 0.010305 -0.023534 0.024019
v 0.004519 -0.031889 0.012450
v -0.003194 -0.031246 0.007309
v -0.008980 -0.022890 0.021443
v 0.003875 -0.029318 0.006020
v 0.010948 -0.024820 0.011809
v -0.005124 -0.031246 0.011809
v -0.011554 -0.023534 0.012450
v 0.006447 -0.023534 0.004092
v 0.002590 -0.032533 0.008592
v -0.002552 -0.023534 0.002161
v 0.003232 -0.032533 0.012450
v -0.011554 -0.023534 0.009237
v -0.005765 -0.028032 0.006020
v -0.002552 -0.032533 0.012450
v -0.003194 -0.022890 0.032377
v 0.002590 -0.024177 0.034304
v 0.001304 -0.029961 0.030446
v 0.009018 -0.026106 0.007309
f 124 128 138 
f 108 107 106 
f 106 107 111 
f 111 107 116 
f 108 106 117 
f 112 110 118 
f 106 111 119 
f 107 108 120 
f 108 117 120 
f 120 115 121 
f 117 106 123 
f 116 107 125 
f 107 120 125 
f 121 113 125 
f 120 121 125 
f 112 118 126 
f 126 118 127 
f 123 106 127 
f 118 123 127 
f 114 126 127 
f 111 116 128 
f 113 121 129 
f 124 113 129 
f 122 124 129 
f 119 111 130 
f 124 122 130 
f 111 128 130 
f 128 124 130 
f 121 115 131 
f 109 129 131 
f 129 121 131 
f 106 119 132 
f 127 106 132 
f 114 127 132 
f 122 114 133 
f 119 130 133 
f 130 122 133 
f 132 119 133 
f 114 132 133 
f 109 112 134 
f 114 122 134 
f 112 126 134 
f 126 114 134 
f 129 109 134 
f 122 129 134 
f 110 117 135 
f 118 110 135 
f 117 123 135 
f 123 118 135 
f 115 120 136 
f 120 117 136 
f 112 109 137 
f 110 112 137 
f 117 110 137 
f 109 131 137 
f 131 115 137 
f 115 136 137 
f 136 117 137 
f 113 124 138 
f 116 125 138 
f 125 113 138 
f 128 116 138 
o convex_3
v -0.023767 -0.020961 -0.010054
v 0.019302 0.027902 -0.006840
v 0.020588 0.026610 -0.006840
v 0.019948 0.015681 -0.011983
v 0.028948 -0.007454 -0.006840
v 0.029588 -0.012596 -0.011983
v -0.023121 0.002829 -0.011983
v -0.026984 -0.019029 -0.006840
v -0.019264 0.007321 -0.006840
v 0.001308 -0.020315 -0.006840
v -0.023121 -0.020961 -0.011983
v -0.008978 0.013749 -0.011983
v 0.030234 -0.002312 -0.010697
v 0.022520 -0.016460 -0.011983
v 0.014159 0.027902 -0.007483
v -0.010904 0.015036 -0.006840
v 0.027017 -0.013241 -0.009411
v 0.030234 -0.003594 -0.006840
v -0.025053 -0.002312 -0.011983
v 0.000662 -0.019674 -0.011983
v -0.025053 -0.008100 -0.006840
v 0.025091 0.016322 -0.007483
v 0.030234 -0.004881 -0.011983
v 0.002588 0.015677 -0.011983
v 0.021880 0.016968 -0.010697
v -0.016047 0.009894 -0.011983
v -0.025693 -0.018388 -0.010697
v -0.025053 -0.020315 -0.006840
v 0.018662 0.026610 -0.008125
v 0.030880 -0.008741 -0.009411
v -0.021195 0.004107 -0.006840
v 0.027663 0.007966 -0.006840
v 0.026377 -0.015169 -0.011340
v 0.017377 0.018255 -0.011340
v -0.010904 0.015036 -0.007483
v 0.000662 -0.020315 -0.008769
v -0.026984 -0.015815 -0.008125
v 0.014159 0.027902 -0.006840
f 154 140 176 
f 141 140 143 
f 142 144 145 
f 143 140 146 
f 146 140 147 
f 143 146 148 
f 145 144 149 
f 139 146 149 
f 148 139 149 
f 142 145 150 
f 149 144 152 
f 147 140 154 
f 143 148 155 
f 141 143 156 
f 145 149 157 
f 149 152 158 
f 146 147 159 
f 144 142 161 
f 160 151 161 
f 142 150 162 
f 150 153 162 
f 141 160 163 
f 161 142 163 
f 160 161 163 
f 145 147 164 
f 150 145 164 
f 149 146 165 
f 157 149 165 
f 146 139 166 
f 139 148 166 
f 148 146 166 
f 140 141 167 
f 153 140 167 
f 162 153 167 
f 141 163 167 
f 163 142 167 
f 143 155 168 
f 155 144 168 
f 156 143 168 
f 151 156 168 
f 144 161 168 
f 161 151 168 
f 147 145 169 
f 145 157 169 
f 159 147 169 
f 157 159 169 
f 141 156 170 
f 156 151 170 
f 160 141 170 
f 151 160 170 
f 152 144 171 
f 148 152 171 
f 144 155 171 
f 155 148 171 
f 142 162 172 
f 167 142 172 
f 162 167 172 
f 153 150 173 
f 154 153 173 
f 147 154 173 
f 164 147 173 
f 150 164 173 
f 148 149 174 
f 152 148 174 
f 149 158 174 
f 158 152 174 
f 146 159 175 
f 159 157 175 
f 165 146 175 
f 157 165 175 
f 140 153 176 
f 153 154 176 
o convex_4
v 0.019305 0.034324 0.030450
v -0.016054 -0.012597 0.009236
v -0.016054 -0.012597 0.011805
v 0.033447 -0.008099 0.006662
v 0.003235 0.031116 -0.004909
v 0.005162 -0.022890 0.030450
v -0.016054 0.027901 0.030450
v 0.001948 -0.020317 -0.006840
v 0.030874 0.016966 -0.003624
v 0.039235 0.002188 0.026589
v -0.016054 0.026611 -0.003624
v 0.000662 0.040760 0.015660
v -0.013481 -0.017737 0.027231
v 0.019945 0.028536 -0.006840
v -0.016054 -0.009382 -0.006840
v 0.028947 -0.005526 -0.006840
v 0.036021 0.016325 0.030450
v -0.011554 -0.022890 0.008593
v 0.012231 -0.022884 0.009236
v 0.021232 0.033035 0.009878
v -0.016054 -0.009382 0.030450
v 0.031520 -0.004884 0.030450
v -0.016054 0.032393 0.004093
v -0.006407 0.035614 0.030450
v 0.035375 0.013751 0.005377
v 0.009668 0.036256 -0.000408
v 0.033447 0.022106 0.017587
v 0.012231 -0.022242 0.024019
v -0.016054 0.011178 -0.006840
v 0.017372 0.036898 0.027877
v 0.027019 -0.013881 0.005377
v -0.009621 0.034331 0.000877
v 0.032807 -0.007451 0.021449
v -0.003834 -0.022890 0.030450
v 0.038594 0.006044 0.015021
v 0.007095 0.038823 0.030450
v 0.032161 0.019540 0.000877
v -0.014122 0.033683 0.018233
v -0.004480 -0.019675 -0.006840
v 0.014804 0.037545 0.013733
v -0.002552 -0.022890 0.001519
v 0.019305 0.032399 0.000234
v -0.010267 0.024686 -0.005551
v -0.000620 0.040760 0.018233
v 0.029593 -0.004236 -0.006840
v 0.039881 0.004761 0.022730
v -0.012194 -0.022890 0.011805
v 0.012877 0.029178 -0.006840
v 0.039235 0.000263 0.024019
v 0.033447 -0.006809 0.003450
v -0.015408 -0.015170 0.025304
v 0.037307 0.013751 0.022088
v 0.027019 0.013110 -0.006840
v 0.009022 0.039464 0.022734
v 0.036021 0.002188 0.007308
v -0.001260 0.040112 0.013087
v 0.023165 -0.009382 -0.006840
v -0.009621 -0.022890 0.022734
v 0.034734 -0.001027 0.030450
v 0.008382 -0.022884 0.004735
v 0.032161 0.023396 0.020161
v 0.007736 0.033683 -0.003624
v -0.014122 -0.019027 0.011167
v 0.030233 -0.010024 0.001519
f 207 233 240 
f 178 179 183 
f 182 177 183 
f 178 183 187 
f 178 187 191 
f 190 184 191 
f 184 190 192 
f 177 182 193 
f 183 179 197 
f 182 183 197 
f 193 182 198 
f 187 183 199 
f 183 177 200 
f 182 195 204 
f 198 182 204 
f 191 187 205 
f 190 191 205 
f 204 195 207 
f 181 187 208 
f 187 199 208 
f 198 204 209 
f 207 180 209 
f 204 207 209 
f 194 182 210 
f 182 197 210 
f 197 189 210 
f 200 177 212 
f 177 206 212 
f 185 190 213 
f 201 185 213 
f 196 203 213 
f 203 201 213 
f 199 183 214 
f 183 200 214 
f 191 184 215 
f 194 191 215 
f 202 188 216 
f 206 196 216 
f 182 194 217 
f 195 182 217 
f 215 184 217 
f 194 215 217 
f 190 202 218 
f 213 190 218 
f 196 213 218 
f 202 216 218 
f 216 196 218 
f 187 181 219 
f 205 187 219 
f 200 212 220 
f 199 214 220 
f 214 200 220 
f 192 190 221 
f 185 201 221 
f 193 186 222 
f 211 201 222 
f 191 194 223 
f 194 210 223 
f 190 205 224 
f 219 181 224 
f 205 219 224 
f 209 180 225 
f 198 209 225 
f 222 186 225 
f 211 222 225 
f 192 221 226 
f 225 180 226 
f 211 225 226 
f 179 178 227 
f 197 179 227 
f 189 197 227 
f 223 189 227 
f 203 193 228 
f 201 203 228 
f 193 222 228 
f 222 201 228 
f 190 185 229 
f 185 221 229 
f 221 190 229 
f 212 206 230 
f 216 188 230 
f 206 216 230 
f 188 220 230 
f 220 212 230 
f 201 211 231 
f 221 201 231 
f 211 226 231 
f 226 221 231 
f 188 202 232 
f 208 199 232 
f 202 208 232 
f 199 220 232 
f 220 188 232 
f 184 192 233 
f 207 184 233 
f 210 189 234 
f 189 223 234 
f 223 210 234 
f 186 193 235 
f 193 198 235 
f 225 186 235 
f 198 225 235 
f 184 207 236 
f 207 195 236 
f 195 217 236 
f 217 184 236 
f 177 193 237 
f 193 203 237 
f 203 196 237 
f 206 177 237 
f 196 206 237 
f 202 190 238 
f 181 208 238 
f 208 202 238 
f 224 181 238 
f 190 224 238 
f 178 191 239 
f 191 223 239 
f 227 178 239 
f 223 227 239 
f 180 207 240 
f 226 180 240 
f 192 226 240 
f 233 192 240 
o convex_5
v -0.009627 0.002191 0.056811
v -0.031485 0.004761 0.030450
v -0.030840 0.003473 0.030450
v -0.005124 0.035617 0.030450
v -0.005124 -0.019675 0.030450
v -0.025052 0.023396 0.040096
v -0.022482 -0.002312 0.051023
v -0.005124 0.027255 0.045235
v -0.005124 -0.007449 0.052308
v -0.015415 -0.013884 0.043311
v -0.018624 0.002835 0.056166
v -0.023124 0.024679 0.030450
v -0.022482 -0.009386 0.034956
v -0.011557 -0.011957 0.049090
v -0.005124 0.006050 0.055523
v -0.005124 -0.019031 0.040098
v -0.022482 0.025967 0.040096
v -0.005770 0.034329 0.036883
v -0.010270 -0.017743 0.030450
v -0.028267 0.018893 0.034956
v -0.016057 0.000264 0.056811
v -0.021197 -0.010669 0.040096
v -0.023124 0.000264 0.050381
v -0.019267 0.029182 0.033023
v -0.030840 0.006694 0.033665
v -0.023767 -0.003595 0.047808
v -0.014772 0.003473 0.056811
v -0.007697 0.029187 0.043311
v -0.023767 -0.006166 0.030450
v -0.022482 0.024679 0.041383
v -0.028267 0.019537 0.033023
v -0.019267 -0.005527 0.051023
v -0.015415 0.031109 0.035598
v -0.025052 0.024679 0.037526
v -0.005124 0.001552 0.056166
v -0.016700 0.004117 0.056166
v -0.008342 -0.010025 0.051023
v -0.006412 0.035617 0.030450
v -0.005770 0.018898 0.049738
v -0.031485 0.007332 0.030450
v -0.026982 0.020825 0.037526
v -0.018624 0.000264 0.056166
v -0.022482 -0.009386 0.038813
v -0.031485 0.004761 0.031738
v -0.005770 -0.019031 0.040098
v -0.011557 0.000264 0.056811
v -0.005770 0.027255 0.045235
v -0.011557 0.030470 0.040096
v -0.014130 -0.013240 0.045878
v -0.019909 0.002191 0.054878
v -0.021840 0.026611 0.031095
v -0.027625 0.017610 0.030450
v -0.021840 -0.004883 0.049090
v -0.005124 -0.018387 0.041383
f 285 256 294 
f 243 242 244 
f 243 244 245 
f 245 244 248 
f 245 248 249 
f 244 242 252 
f 249 248 255 
f 245 249 256 
f 248 244 258 
f 243 245 259 
f 253 259 262 
f 259 250 262 
f 247 263 266 
f 241 255 267 
f 261 241 267 
f 251 261 267 
f 248 258 268 
f 253 243 269 
f 243 259 269 
f 259 253 269 
f 246 251 270 
f 257 246 270 
f 268 257 270 
f 264 257 273 
f 246 257 274 
f 257 264 274 
f 255 241 275 
f 249 255 275 
f 251 267 276 
f 270 251 276 
f 261 254 277 
f 244 252 278 
f 258 244 278 
f 273 258 278 
f 264 273 278 
f 255 248 279 
f 267 255 279 
f 252 242 280 
f 265 260 280 
f 260 271 280 
f 263 246 281 
f 260 265 281 
f 265 263 281 
f 271 260 281 
f 246 274 281 
f 274 271 281 
f 261 251 282 
f 254 261 282 
f 272 254 282 
f 247 272 282 
f 243 253 283 
f 253 262 283 
f 262 266 283 
f 283 266 284 
f 242 243 284 
f 263 265 284 
f 266 263 284 
f 280 242 284 
f 265 280 284 
f 243 283 284 
f 245 256 285 
f 259 245 285 
f 250 259 285 
f 241 261 286 
f 275 241 286 
f 249 275 286 
f 277 249 286 
f 261 277 286 
f 248 268 287 
f 268 270 287 
f 276 267 287 
f 270 276 287 
f 279 248 287 
f 267 279 287 
f 257 268 288 
f 268 258 288 
f 258 273 288 
f 273 257 288 
f 254 272 289 
f 250 285 289 
f 285 254 289 
f 251 246 290 
f 263 247 290 
f 246 263 290 
f 282 251 290 
f 247 282 290 
f 252 271 291 
f 274 264 291 
f 271 274 291 
f 278 252 291 
f 264 278 291 
f 271 252 292 
f 252 280 292 
f 280 271 292 
f 262 250 293 
f 247 266 293 
f 266 262 293 
f 272 247 293 
f 250 289 293 
f 289 272 293 
f 256 249 294 
f 249 277 294 
f 277 254 294 
f 254 285 294 
o convex_6
v -0.016054 0.028541 -0.001697
v -0.030842 0.000262 0.002160
v -0.028270 -0.015171 -0.002339
v -0.016054 -0.006167 0.002804
v -0.016054 -0.008737 -0.006840
v -0.021841 0.004120 -0.006840
v -0.030842 0.014396 0.002804
v -0.016054 0.029829 0.002804
v -0.026981 -0.019029 -0.006840
v -0.024411 -0.017746 0.002160
v -0.029553 0.011826 -0.000411
v -0.016700 0.025971 -0.003624
v -0.019915 0.029187 0.000231
v -0.016054 0.010538 -0.006840
v -0.023128 -0.019029 -0.006195
v -0.030196 -0.001667 0.002804
v -0.026340 -0.019029 0.000875
v -0.019269 0.031116 0.002804
v -0.020556 0.025971 -0.001697
v -0.026981 -0.015171 -0.006840
v -0.026340 0.010538 -0.002981
v -0.023768 -0.018387 0.000875
v -0.030842 0.014396 0.002160
v -0.027627 -0.017746 -0.006195
v -0.028270 -0.015171 0.000231
v -0.023768 -0.019675 -0.006840
v -0.026340 -0.017095 0.002160
f 319 311 321 
f 295 298 299 
f 301 298 302 
f 298 295 302 
f 300 299 303 
f 295 306 307 
f 295 299 308 
f 299 300 308 
f 306 295 308 
f 300 306 308 
f 301 296 310 
f 298 301 310 
f 304 298 310 
f 301 302 312 
f 302 295 312 
f 295 307 312 
f 307 306 313 
f 300 303 314 
f 314 305 315 
f 306 300 315 
f 305 313 315 
f 313 306 315 
f 300 314 315 
f 299 298 316 
f 298 304 316 
f 309 299 316 
f 304 311 316 
f 296 301 317 
f 301 312 317 
f 312 307 317 
f 313 305 317 
f 307 313 317 
f 297 296 318 
f 303 311 318 
f 314 303 318 
f 305 314 318 
f 296 317 318 
f 317 305 318 
f 296 297 319 
f 310 296 319 
f 297 318 319 
f 318 311 319 
f 303 299 320 
f 299 309 320 
f 311 303 320 
f 309 316 320 
f 316 311 320 
f 304 310 321 
f 311 304 321 
f 310 319 321 
o convex_7
v -0.034698 -0.001030 0.008593
v -0.016054 0.027257 0.030450
v -0.016054 0.027899 0.028521
v -0.016054 -0.011960 0.009234
v -0.016054 0.031113 0.002804
v -0.021841 -0.008100 0.030450
v -0.031482 0.007972 0.029806
v -0.030840 0.015684 0.002804
v -0.025702 0.024686 0.024021
v -0.016054 -0.006814 0.002804
v -0.016054 -0.008742 0.030450
v -0.035985 0.002188 0.018232
v -0.018628 0.032402 0.004092
v -0.026982 -0.004886 0.002804
v -0.031482 -0.005529 0.013737
v -0.022485 0.025328 0.030450
v -0.029555 -0.002958 0.027233
v -0.031482 0.004116 0.030450
v -0.031482 0.001545 0.002804
v -0.035985 0.003473 0.016944
v -0.035985 -0.000383 0.017591
v -0.034056 -0.003601 0.009234
v -0.020555 -0.010670 0.011164
v -0.026982 0.018897 0.030450
v -0.035985 0.002188 0.011810
v -0.030840 -0.004243 0.022091
v -0.028911 0.018897 0.004092
v -0.016054 0.032402 0.006663
v -0.020555 -0.008742 0.030450
v -0.018628 0.032402 0.005378
v -0.025702 0.024686 0.019518
v -0.016698 -0.011960 0.011810
v -0.019915 0.030470 0.002804
v -0.020555 -0.010670 0.013093
f 353 350 355 
f 324 323 325 
f 324 325 326 
f 326 325 331 
f 329 326 331 
f 325 323 332 
f 323 327 332 
f 331 325 335 
f 329 331 335 
f 323 324 337 
f 327 323 337 
f 328 333 339 
f 327 337 339 
f 338 327 339 
f 322 329 340 
f 329 335 340 
f 330 329 341 
f 333 328 341 
f 333 341 342 
f 339 333 342 
f 338 339 342 
f 322 340 343 
f 340 335 343 
f 342 322 343 
f 336 342 343 
f 335 325 344 
f 343 335 344 
f 336 343 344 
f 337 330 345 
f 328 339 345 
f 339 337 345 
f 341 328 345 
f 330 341 345 
f 329 322 346 
f 341 329 346 
f 342 341 346 
f 322 342 346 
f 336 327 347 
f 327 338 347 
f 342 336 347 
f 338 342 347 
f 324 326 349 
f 326 334 349 
f 332 327 350 
f 327 336 350 
f 334 330 351 
f 337 324 351 
f 330 337 351 
f 324 349 351 
f 349 334 351 
f 329 330 352 
f 330 334 352 
f 348 329 352 
f 334 348 352 
f 325 332 353 
f 344 325 353 
f 332 350 353 
f 326 329 354 
f 334 326 354 
f 329 348 354 
f 348 334 354 
f 336 344 355 
f 350 336 355 
f 344 353 355 
o convex_8
v 0.017375 0.015685 0.056164
v -0.005124 -0.019673 0.030450
v -0.003836 -0.022890 0.030450
v 0.020592 0.032395 0.030450
v -0.005124 0.034972 0.036239
v -0.005124 0.002185 0.056164
v 0.016089 -0.019028 0.042667
v 0.022522 -0.008098 0.030450
v -0.001910 -0.017742 0.051665
v 0.022522 -0.000380 0.051665
v -0.005124 0.035606 0.030450
v -0.001910 0.021466 0.052307
v 0.020592 0.027254 0.045237
v 0.007735 -0.012594 0.053594
v 0.007091 0.034972 0.039453
v 0.003879 -0.022890 0.047163
v 0.004520 -0.022890 0.030450
v 0.022522 0.025968 0.033025
v 0.010947 0.038183 0.031095
v 0.014162 0.007966 0.057454
v -0.003836 -0.017742 0.049738
v 0.012236 -0.015811 0.050380
v 0.016733 -0.017096 0.033022
v -0.005124 0.027893 0.045234
v 0.022522 0.024683 0.043310
v 0.012877 -0.021598 0.043312
v 0.011591 0.010537 0.057454
v 0.002591 0.032401 0.042670
v 0.018019 0.034966 0.034309
v 0.022522 -0.006807 0.040740
v -0.005124 -0.018388 0.042028
v -0.000621 -0.022244 0.047163
v 0.022522 0.006687 0.051665
v 0.000664 -0.007459 0.054879
v 0.016089 0.003476 0.056164
v 0.003235 0.038189 0.030450
v 0.017375 0.016964 0.055521
v -0.005124 0.006687 0.055521
v -0.001265 0.034326 0.040096
v 0.019304 0.028539 0.044592
v 0.022522 0.025328 0.030450
v 0.005806 -0.021598 0.048448
v 0.015448 -0.008738 0.052310
v 0.022522 -0.002951 0.049735
v 0.021878 0.025968 0.044592
v 0.016733 -0.015811 0.030450
v 0.016733 0.015039 0.056809
v 0.003235 0.037543 0.033667
v 0.017375 0.036252 0.030450
v 0.020592 0.032395 0.034952
v 0.005806 0.025968 0.048448
v 0.016089 -0.019028 0.038169
v -0.005124 -0.006813 0.052949
v -0.004480 0.020181 0.051023
v 0.018663 0.015685 0.054882
v 0.007091 -0.022890 0.045234
v -0.001265 0.020181 0.052949
v 0.007091 -0.010669 0.054237
v 0.014162 -0.014526 0.049735
v 0.012236 -0.020953 0.045237
v 0.016733 -0.018382 0.041385
v 0.000020 0.033681 0.041383
v 0.003235 -0.019673 0.050380
v -0.002551 -0.020313 0.047806
f 387 364 419 
f 358 357 359 
f 360 357 361 
f 358 359 363 
f 359 357 366 
f 357 360 366 
f 358 363 372 
f 371 358 372 
f 365 363 373 
f 360 361 379 
f 365 373 380 
f 361 375 382 
f 374 370 384 
f 363 365 385 
f 357 358 386 
f 361 357 386 
f 358 371 387 
f 371 364 387 
f 365 380 388 
f 361 364 389 
f 375 361 389 
f 359 366 391 
f 366 360 391 
f 379 361 393 
f 361 382 393 
f 360 379 394 
f 370 383 395 
f 368 384 395 
f 384 370 395 
f 392 368 395 
f 363 359 396 
f 359 373 396 
f 373 363 396 
f 369 377 398 
f 365 390 398 
f 390 369 398 
f 385 365 399 
f 388 380 400 
f 372 363 401 
f 363 378 401 
f 378 372 401 
f 382 375 402 
f 388 356 402 
f 365 388 402 
f 390 365 402 
f 375 390 402 
f 356 392 402 
f 392 367 402 
f 370 374 403 
f 391 360 403 
f 374 391 403 
f 360 394 403 
f 394 370 403 
f 374 384 404 
f 359 391 404 
f 391 374 404 
f 373 359 405 
f 380 373 405 
f 384 368 405 
f 400 380 405 
f 368 400 405 
f 359 404 405 
f 404 384 405 
f 383 367 406 
f 367 392 406 
f 395 383 406 
f 392 395 406 
f 378 363 407 
f 372 378 407 
f 381 372 407 
f 362 381 407 
f 364 361 408 
f 376 364 408 
f 361 386 408 
f 386 376 408 
f 367 379 409 
f 379 393 409 
f 393 367 409 
f 356 388 410 
f 392 356 410 
f 368 392 410 
f 400 368 410 
f 388 400 410 
f 371 372 411 
f 372 381 411 
f 397 371 411 
f 367 393 412 
f 393 382 412 
f 402 367 412 
f 382 402 412 
f 364 369 413 
f 389 364 413 
f 375 389 413 
f 390 375 413 
f 369 390 413 
f 365 398 414 
f 398 377 414 
f 362 399 414 
f 399 365 414 
f 381 362 415 
f 377 397 415 
f 411 381 415 
f 397 411 415 
f 362 414 415 
f 414 377 415 
f 363 385 416 
f 399 362 416 
f 385 399 416 
f 362 407 416 
f 407 363 416 
f 379 367 417 
f 367 383 417 
f 383 370 417 
f 394 379 417 
f 370 394 417 
f 369 364 418 
f 364 371 418 
f 377 369 418 
f 371 397 418 
f 397 377 418 
f 364 376 419 
f 386 358 419 
f 376 386 419 
f 358 387 419 
o convex_9
v 0.032807 0.016327 0.036879
v 0.022522 -0.008102 0.030450
v 0.023165 -0.008102 0.030450
v 0.022522 -0.003599 0.042666
v 0.022522 0.025330 0.030450
v 0.034094 -0.001672 0.030450
v 0.022522 0.020182 0.042666
v 0.028310 0.002831 0.042666
v 0.036666 0.015041 0.030450
v 0.026380 0.024041 0.034310
v 0.023165 -0.006172 0.040736
v 0.036022 0.011824 0.033024
v 0.023165 0.022755 0.041379
v 0.032164 -0.004244 0.031094
v 0.025738 0.025330 0.030450
v 0.035380 0.016969 0.032380
v 0.030877 0.016327 0.038806
v 0.027667 0.000900 0.042666
v 0.034094 -0.001672 0.031094
v 0.022522 0.025330 0.035596
v 0.028310 0.005400 0.042666
v 0.031523 0.018252 0.036879
v 0.023165 0.020182 0.042666
v 0.034735 0.015041 0.034951
f 420 440 443 
f 422 421 424 
f 421 423 424 
f 422 424 425 
f 424 423 426 
f 426 423 427 
f 425 424 428 
f 421 422 430 
f 423 421 430 
f 422 425 433 
f 430 422 433 
f 428 424 434 
f 428 434 435 
f 434 429 435 
f 427 423 437 
f 423 430 437 
f 430 433 437 
f 437 433 438 
f 425 428 438 
f 431 427 438 
f 428 431 438 
f 433 425 438 
f 427 437 438 
f 424 426 439 
f 426 432 439 
f 432 429 439 
f 434 424 439 
f 429 434 439 
f 426 427 440 
f 420 436 440 
f 429 432 441 
f 420 435 441 
f 435 429 441 
f 436 420 441 
f 432 436 441 
f 432 426 442 
f 436 432 442 
f 426 440 442 
f 440 436 442 
f 427 431 443 
f 431 428 443 
f 435 420 443 
f 428 435 443 
f 440 427 443 
o convex_10
v 0.023166 -0.002315 0.042666
v 0.023166 0.006040 0.051024
v 0.024451 0.004114 0.049737
v 0.023166 0.012471 0.042666
v 0.027665 0.006040 0.042666
v 0.022522 -0.002959 0.049094
v 0.027665 0.001542 0.043309
v 0.022522 0.011828 0.047165
v 0.022522 -0.002315 0.042666
v 0.025093 -0.002315 0.046525
v 0.023166 -0.000385 0.051024
v 0.023166 0.011828 0.047165
v 0.022522 0.012471 0.042666
f 447 452 456 
f 444 447 448 
f 445 446 448 
f 444 448 450 
f 448 446 450 
f 449 445 451 
f 449 451 452 
f 447 444 452 
f 444 449 452 
f 449 444 453 
f 444 450 453 
f 453 450 454 
f 446 445 454 
f 445 449 454 
f 450 446 454 
f 449 453 454 
f 448 447 455 
f 445 448 455 
f 447 451 455 
f 451 445 455 
f 451 447 456 
f 452 451 456 
