o convex_0
v 0.010934 -0.068477 0.004953
v -0.034775 -0.034876 -0.010502
v -0.034775 -0.034876 -0.008487
v 0.026402 0.001426 0.013024
v 0.025055 -0.029496 -0.024624
v -0.024014 0.001426 -0.024624
v -0.021325 0.001426 0.013024
v -0.024691 -0.059070 -0.020589
v -0.011241 -0.065798 0.006298
v 0.020348 -0.060417 -0.020585
v 0.014970 0.001426 -0.021934
v 0.021019 -0.036216 0.013024
v -0.003851 -0.075886 -0.009157
v -0.034099 -0.020097 -0.023949
v 0.025055 -0.046970 -0.003114
v -0.026032 -0.057057 -0.001098
v -0.029392 0.001419 -0.002439
v -0.014606 -0.031524 0.013024
v -0.032757 -0.038902 -0.023949
v 0.010934 -0.072518 -0.013867
v -0.011241 -0.073858 -0.003114
v 0.018330 -0.065125 -0.001768
v 0.024384 -0.044283 -0.023946
v -0.030739 -0.029503 0.000247
v -0.003180 -0.069832 0.006298
v -0.029392 -0.001276 -0.024620
v 0.002868 0.000753 -0.024624
v 0.026402 -0.040249 -0.009828
v -0.026032 -0.060417 -0.008487
v 0.004215 -0.075212 -0.002439
v -0.015277 -0.070498 -0.014538
v 0.007575 -0.060417 -0.021259
v 0.016988 -0.040915 0.013024
v -0.029392 -0.005975 0.002937
v -0.025361 -0.048990 0.002263
v 0.025725 -0.015389 0.013024
v -0.032757 -0.027490 -0.024620
v 0.023707 -0.023457 -0.024624
v -0.031410 -0.048317 -0.018569
v -0.034099 -0.020763 -0.008487
v 0.001526 -0.071179 -0.015883
v -0.019984 -0.014042 0.013024
v -0.031410 -0.047643 -0.005129
v -0.019307 -0.064451 0.002267
v 0.024384 -0.051003 -0.018573
v -0.021325 -0.051677 -0.022601
v 0.014300 -0.070498 -0.003784
v -0.020655 -0.067138 -0.004459
v -0.033428 -0.013369 -0.019914
v 0.019677 -0.058397 0.002267
v 0.025055 -0.037555 -0.024624
v 0.025055 0.001426 0.006973
v 0.025725 -0.031516 -0.023279
v 0.021695 -0.059070 -0.004459
v 0.023707 -0.034203 0.009659
v -0.007211 -0.072518 0.002937
v 0.004886 -0.070505 0.005628
v 0.017659 -0.065798 -0.017895
v -0.034775 -0.033529 -0.020589
v 0.006904 -0.065798 -0.019240
v -0.012588 -0.033544 0.013024
v -0.029392 0.000745 -0.021934
v -0.019984 -0.059744 0.003608
v -0.030068 -0.043610 -0.001098
f 43 16 64 
f 4 6 7 
f 6 4 11 
f 4 7 12 
f 7 6 17 
f 12 7 18 
f 5 6 27 
f 6 11 27 
f 13 20 30 
f 21 13 30 
f 13 21 31 
f 23 10 32 
f 1 12 33 
f 12 18 33 
f 7 17 34 
f 3 24 34 
f 24 7 34 
f 4 12 36 
f 28 4 36 
f 15 28 36 
f 19 14 37 
f 26 6 37 
f 14 26 37 
f 4 5 38 
f 5 27 38 
f 27 11 38 
f 3 2 39 
f 19 8 39 
f 8 29 39 
f 34 17 40 
f 3 34 40 
f 20 13 41 
f 31 8 41 
f 13 31 41 
f 18 7 42 
f 7 24 42 
f 35 18 42 
f 29 16 43 
f 3 39 43 
f 39 29 43 
f 10 23 45 
f 28 15 45 
f 8 19 46 
f 19 23 46 
f 32 8 46 
f 23 32 46 
f 22 1 47 
f 30 20 47 
f 1 30 47 
f 16 29 48 
f 29 8 48 
f 8 31 48 
f 31 21 48 
f 21 44 48 
f 44 16 48 
f 26 14 49 
f 14 40 49 
f 40 17 49 
f 12 1 50 
f 1 22 50 
f 6 5 51 
f 23 19 51 
f 37 6 51 
f 19 37 51 
f 45 23 51 
f 28 45 51 
f 11 4 52 
f 4 38 52 
f 38 11 52 
f 5 4 53 
f 4 28 53 
f 51 5 53 
f 28 51 53 
f 10 45 54 
f 45 15 54 
f 15 50 54 
f 50 22 54 
f 36 12 55 
f 15 36 55 
f 12 50 55 
f 50 15 55 
f 25 9 56 
f 21 30 56 
f 9 44 56 
f 44 21 56 
f 30 1 57 
f 1 33 57 
f 33 25 57 
f 25 56 57 
f 56 30 57 
f 47 20 58 
f 22 47 58 
f 10 54 58 
f 54 22 58 
f 2 3 59 
f 14 19 59 
f 39 2 59 
f 19 39 59 
f 3 40 59 
f 40 14 59 
f 8 32 60 
f 32 10 60 
f 20 41 60 
f 41 8 60 
f 10 58 60 
f 58 20 60 
f 18 9 61 
f 9 25 61 
f 33 18 61 
f 25 33 61 
f 17 6 62 
f 6 26 62 
f 49 17 62 
f 26 49 62 
f 9 18 63 
f 35 16 63 
f 18 35 63 
f 44 9 63 
f 16 44 63 
f 24 3 64 
f 16 35 64 
f 42 24 64 
f 35 42 64 
f 3 43 64 
o convex_1
v 0.006233 0.069993 -0.011180
v -0.028725 0.001433 -0.021933
v -0.024016 0.001433 -0.024622
v 0.012283 0.001426 -0.009835
v 0.026397 0.037729 -0.023949
v -0.015952 0.059907 -0.021261
v -0.025357 0.003453 -0.009835
v 0.027071 0.055874 -0.009835
v 0.014971 0.001426 -0.021933
v -0.016625 0.054525 -0.009835
v 0.027071 0.060578 -0.019918
v -0.020654 0.043775 -0.023278
v 0.027071 0.043104 -0.009835
v -0.004520 0.069322 -0.017900
v -0.022001 0.044447 -0.017900
v 0.018333 0.018236 -0.024622
v -0.007881 0.066631 -0.009835
v 0.020348 0.053861 -0.022604
v 0.028418 0.040414 -0.019245
v 0.016986 0.068651 -0.016558
v 0.019674 0.032354 -0.024622
v 0.021021 0.065289 -0.009835
v -0.027378 0.001433 -0.013197
v 0.000183 0.001426 -0.024622
v -0.026031 0.010170 -0.024622
v 0.014971 0.001426 -0.017228
v 0.029091 0.053861 -0.021933
v -0.014605 0.062591 -0.015886
v 0.020348 0.061256 -0.020588
v -0.018640 0.046460 -0.009835
v 0.027071 0.035716 -0.023278
v -0.019981 0.052512 -0.016558
v -0.020654 0.049150 -0.021933
v 0.029091 0.051841 -0.015213
v 0.008921 0.070671 -0.016558
v 0.010936 0.069322 -0.009835
v 0.018333 0.042433 -0.023949
v -0.015278 0.057216 -0.021933
v -0.009223 0.063269 -0.020588
v -0.028725 0.002104 -0.017900
v -0.025357 0.001433 -0.009835
v -0.028046 0.004795 -0.023949
v 0.025056 0.036387 -0.009835
v -0.019981 0.031683 -0.023949
v 0.025056 0.062598 -0.012523
v 0.021021 0.066631 -0.017900
v -0.000490 0.069322 -0.009835
v -0.011916 0.065282 -0.019245
v 0.028418 0.057894 -0.017228
v -0.014605 0.059907 -0.010508
v 0.015639 0.002104 -0.019245
v 0.000851 0.070671 -0.015213
v 0.010263 0.068651 -0.017900
v 0.029091 0.045795 -0.022606
v 0.012956 0.001426 -0.010508
v -0.005193 0.069322 -0.015213
v -0.028725 0.003453 -0.021261
v 0.021695 0.024960 -0.024622
v -0.018640 0.055874 -0.021261
v -0.021322 0.046460 -0.016558
v -0.027378 0.002104 -0.013197
v -0.022001 0.014203 -0.024622
v 0.006901 0.062598 -0.020588
v 0.027071 0.055874 -0.021933
f 127 93 128 
f 71 68 72 
f 71 72 74 
f 72 68 77 
f 74 72 81 
f 80 67 85 
f 81 72 86 
f 66 67 88 
f 73 68 88 
f 67 80 88 
f 80 73 88 
f 87 66 88 
f 85 67 89 
f 68 73 90 
f 71 74 94 
f 94 74 96 
f 79 96 97 
f 72 77 98 
f 77 83 98 
f 81 86 100 
f 86 84 100 
f 99 65 100 
f 84 99 100 
f 82 69 101 
f 85 76 101 
f 69 85 101 
f 76 70 102 
f 82 101 102 
f 101 76 102 
f 102 70 103 
f 82 102 103 
f 66 87 104 
f 68 71 105 
f 71 87 105 
f 88 68 105 
f 87 88 105 
f 67 66 106 
f 89 67 106 
f 76 89 106 
f 97 76 106 
f 77 68 107 
f 83 77 107 
f 76 85 108 
f 89 76 108 
f 86 72 109 
f 86 109 110 
f 84 86 110 
f 75 93 110 
f 99 84 110 
f 109 75 110 
f 100 65 111 
f 81 100 111 
f 70 92 112 
f 92 81 112 
f 103 70 112 
f 78 103 112 
f 91 75 113 
f 72 98 113 
f 98 91 113 
f 109 72 113 
f 75 109 113 
f 74 81 114 
f 81 92 114 
f 92 96 114 
f 96 74 114 
f 90 73 115 
f 73 95 115 
f 95 83 115 
f 83 107 115 
f 107 90 115 
f 65 99 116 
f 99 78 116 
f 111 65 116 
f 78 99 117 
f 110 93 117 
f 99 110 117 
f 69 91 118 
f 95 69 118 
f 83 95 118 
f 98 83 118 
f 91 98 118 
f 68 90 119 
f 107 68 119 
f 90 107 119 
f 81 111 120 
f 78 112 120 
f 112 81 120 
f 116 78 120 
f 111 116 120 
f 79 97 121 
f 66 104 121 
f 104 79 121 
f 106 66 121 
f 97 106 121 
f 73 80 122 
f 80 85 122 
f 85 69 122 
f 95 73 122 
f 69 95 122 
f 70 76 123 
f 92 70 123 
f 96 92 123 
f 76 97 123 
f 97 96 123 
f 96 79 124 
f 94 96 124 
f 79 104 124 
f 124 104 125 
f 87 71 125 
f 71 94 125 
f 104 87 125 
f 94 124 125 
f 85 89 126 
f 108 85 126 
f 89 108 126 
f 103 78 127 
f 82 103 127 
f 78 117 127 
f 117 93 127 
f 69 82 128 
f 75 91 128 
f 91 69 128 
f 93 75 128 
f 82 127 128 
o convex_2
v -0.021330 0.039076 0.013700
v -0.001834 0.051175 0.031172
v -0.002507 0.051175 0.033189
v -0.008557 0.034368 0.026467
v -0.005868 0.051175 0.013026
v -0.014606 0.050502 0.027140
v -0.015950 0.034368 0.030501
v -0.011917 0.034368 0.013026
v -0.016624 0.051175 0.013026
v -0.001834 0.050502 0.022437
v -0.008557 0.051175 0.034535
v -0.021330 0.034368 0.018405
v -0.011917 0.034368 0.030501
v -0.021330 0.034368 0.013026
v -0.009232 0.034368 0.018405
v -0.019984 0.043107 0.017060
v -0.019311 0.035041 0.025123
v -0.003851 0.050502 0.034535
v -0.009232 0.034368 0.028484
v -0.018639 0.047812 0.013026
v -0.010574 0.035041 0.014371
v -0.014606 0.047812 0.028484
v -0.001834 0.049829 0.023780
v -0.008557 0.034368 0.021094
v -0.001834 0.050502 0.031172
v -0.004524 0.050502 0.015717
v -0.016624 0.051175 0.015717
f 148 144 155 
f 131 130 133 
f 132 135 136 
f 131 133 137 
f 133 136 137 
f 133 130 138 
f 131 137 139 
f 136 135 140 
f 135 132 141 
f 137 136 142 
f 140 129 142 
f 136 140 142 
f 132 136 143 
f 129 140 144 
f 144 140 145 
f 140 135 145 
f 134 144 145 
f 131 139 146 
f 139 135 146 
f 135 141 146 
f 146 141 147 
f 141 132 147 
f 131 146 147 
f 142 129 148 
f 137 142 148 
f 129 144 148 
f 136 133 149 
f 143 136 149 
f 138 143 149 
f 135 139 150 
f 139 134 150 
f 134 145 150 
f 145 135 150 
f 138 130 151 
f 132 143 152 
f 143 138 152 
f 151 132 152 
f 138 151 152 
f 130 131 153 
f 131 147 153 
f 147 132 153 
f 151 130 153 
f 132 151 153 
f 133 138 154 
f 149 133 154 
f 138 149 154 
f 134 139 155 
f 139 137 155 
f 144 134 155 
f 137 148 155 
o convex_3
v -0.005866 0.051175 0.013024
v 0.006232 0.060586 0.048655
v 0.003543 0.060586 0.048655
v 0.001525 0.069326 0.013024
v -0.016621 0.051850 0.014374
v 0.006232 0.063275 0.013024
v -0.001164 0.051175 0.031844
v -0.007882 0.065289 0.014374
v -0.001164 0.060586 0.046635
v -0.007882 0.051175 0.035206
v 0.006232 0.055883 0.043943
v 0.006232 0.068653 0.025130
v -0.013933 0.052522 0.026476
v 0.006232 0.058573 0.023787
v -0.001164 0.067306 0.024453
v -0.011915 0.061258 0.013024
v -0.001164 0.051175 0.024453
v 0.004214 0.063946 0.042600
v 0.002198 0.057226 0.047305
v 0.006232 0.069326 0.013024
v -0.016621 0.051175 0.013024
v -0.009226 0.058573 0.029165
v -0.013933 0.051175 0.027146
v -0.001164 0.057900 0.046635
v -0.003853 0.051175 0.016386
v -0.001835 0.068653 0.013024
v 0.003543 0.068653 0.024453
v 0.006232 0.056553 0.046635
v -0.003179 0.051175 0.035206
v -0.007882 0.063275 0.021094
v -0.005195 0.065289 0.022437
v 0.006232 0.056553 0.035206
v -0.013259 0.059243 0.013697
v 0.006232 0.063275 0.044619
v 0.000181 0.061258 0.047305
f 158 189 190 
f 156 159 161 
f 156 162 165 
f 161 157 166 
f 157 161 167 
f 161 166 169 
f 159 156 171 
f 162 156 172 
f 166 162 172 
f 157 158 174 
f 161 159 175 
f 167 161 175 
f 159 167 175 
f 156 165 176 
f 171 156 176 
f 168 164 177 
f 168 160 178 
f 164 168 178 
f 176 165 178 
f 160 176 178 
f 174 158 179 
f 165 174 179 
f 164 178 179 
f 178 165 179 
f 156 161 180 
f 161 169 180 
f 172 156 180 
f 169 172 180 
f 163 170 181 
f 159 171 181 
f 171 163 181 
f 167 159 182 
f 173 167 182 
f 170 173 182 
f 159 181 182 
f 181 170 182 
f 166 157 183 
f 157 174 183 
f 174 165 183 
f 165 162 184 
f 162 166 184 
f 183 165 184 
f 166 183 184 
f 163 171 185 
f 177 164 185 
f 171 177 185 
f 170 163 186 
f 164 170 186 
f 163 185 186 
f 185 164 186 
f 169 166 187 
f 166 172 187 
f 172 169 187 
f 160 168 188 
f 176 160 188 
f 171 176 188 
f 168 177 188 
f 177 171 188 
f 158 157 189 
f 157 167 189 
f 167 173 189 
f 189 173 190 
f 170 164 190 
f 173 170 190 
f 179 158 190 
f 164 179 190 
o convex_4
v 0.016991 0.051844 0.039243
v 0.023040 0.034368 0.013024
v 0.019009 0.048482 0.013024
v 0.027746 0.052519 0.013696
v 0.029090 0.034368 0.027812
v 0.017665 0.034368 0.028484
v 0.014301 0.052519 0.023782
v 0.025728 0.052519 0.030501
v 0.029763 0.034368 0.013024
v 0.025728 0.034368 0.033191
v 0.022369 0.052519 0.037225
v 0.029763 0.040419 0.023112
v 0.014301 0.052519 0.035878
v 0.020353 0.034368 0.033191
v 0.018336 0.052519 0.013024
v 0.018336 0.035715 0.022438
v 0.029763 0.043108 0.013024
v 0.028419 0.047141 0.025800
v 0.030436 0.034368 0.022438
v 0.028419 0.043108 0.028484
v 0.020353 0.052519 0.039243
v 0.018336 0.034368 0.031174
v 0.017665 0.051844 0.013696
v 0.020353 0.034368 0.017731
v 0.015647 0.051844 0.038568
v 0.014301 0.051844 0.023782
v 0.027746 0.052519 0.013024
v 0.027746 0.035715 0.030501
v 0.014301 0.051173 0.033191
v 0.017665 0.034368 0.026467
f 196 219 220 
f 192 195 196 
f 194 197 198 
f 192 193 199 
f 195 192 199 
f 196 195 200 
f 198 197 201 
f 201 197 203 
f 196 200 204 
f 200 191 204 
f 197 194 205 
f 199 193 205 
f 199 205 207 
f 194 198 208 
f 207 194 208 
f 202 207 208 
f 195 199 209 
f 207 202 209 
f 199 207 209 
f 198 201 210 
f 208 198 210 
f 202 208 210 
f 195 209 210 
f 209 202 210 
f 191 200 211 
f 200 201 211 
f 201 203 211 
f 203 196 212 
f 196 204 212 
f 193 192 213 
f 205 193 213 
f 197 205 213 
f 206 213 214 
f 192 196 214 
f 213 192 214 
f 204 191 215 
f 191 211 215 
f 211 203 215 
f 203 212 215 
f 212 204 215 
f 203 197 216 
f 197 213 216 
f 213 206 216 
f 205 194 217 
f 194 207 217 
f 207 205 217 
f 200 195 218 
f 201 200 218 
f 195 210 218 
f 210 201 218 
f 196 203 219 
f 203 216 219 
f 219 216 220 
f 206 214 220 
f 214 196 220 
f 216 206 220 
o convex_5
v 0.008253 0.063945 0.043273
v 0.027070 0.053192 0.018409
v 0.027070 0.052519 0.018409
v 0.006238 0.063274 0.013024
v 0.018333 0.066635 0.013024
v 0.006238 0.056553 0.046635
v 0.018333 0.059245 0.045292
v 0.017662 0.052519 0.013024
v 0.006238 0.069326 0.019078
v 0.020350 0.052519 0.039911
v 0.013631 0.067309 0.027146
v 0.024382 0.060587 0.013024
v 0.013631 0.052519 0.027146
v 0.006238 0.058570 0.025130
v 0.006238 0.060587 0.048655
v 0.025726 0.053192 0.029165
v 0.011614 0.069326 0.013024
v 0.019006 0.064619 0.024453
v 0.027070 0.052519 0.013024
v 0.015647 0.057228 0.047305
v 0.014976 0.061930 0.044619
v 0.023038 0.058570 0.029165
v 0.014302 0.052519 0.037891
v 0.006238 0.069326 0.013024
v 0.006238 0.068653 0.025130
v 0.013631 0.060587 0.047978
v 0.006238 0.056553 0.038568
v 0.009597 0.068653 0.025130
v 0.016989 0.065292 0.029165
v 0.022367 0.063274 0.014374
v 0.010941 0.063945 0.042600
v 0.014302 0.052519 0.022437
v 0.025726 0.054536 0.027146
v 0.021694 0.052519 0.038568
v 0.012285 0.057228 0.047978
v 0.006238 0.063274 0.044619
v 0.014976 0.067309 0.024453
v 0.026399 0.056553 0.013697
v 0.019006 0.057228 0.044619
f 254 236 259 
f 224 225 228 
f 224 226 229 
f 228 223 230 
f 228 225 232 
f 228 230 233 
f 226 224 234 
f 224 228 234 
f 229 226 235 
f 223 222 236 
f 225 224 237 
f 222 223 239 
f 223 228 239 
f 228 232 239 
f 238 227 242 
f 230 226 243 
f 226 233 243 
f 233 230 243 
f 224 229 244 
f 237 224 244 
f 229 237 244 
f 229 235 245 
f 240 227 246 
f 227 241 246 
f 233 226 247 
f 226 234 247 
f 237 229 248 
f 245 221 248 
f 229 245 248 
f 227 238 249 
f 231 241 249 
f 241 227 249 
f 232 225 250 
f 225 238 250 
f 242 232 250 
f 238 242 250 
f 241 231 251 
f 221 246 251 
f 246 241 251 
f 248 221 251 
f 231 248 251 
f 228 233 252 
f 234 228 252 
f 233 247 252 
f 247 234 252 
f 236 222 253 
f 227 236 253 
f 242 227 253 
f 232 242 253 
f 230 223 254 
f 223 236 254 
f 226 230 255 
f 235 226 255 
f 230 240 255 
f 246 235 255 
f 240 246 255 
f 221 245 256 
f 245 235 256 
f 246 221 256 
f 235 246 256 
f 225 237 257 
f 238 225 257 
f 248 231 257 
f 237 248 257 
f 231 249 257 
f 249 238 257 
f 222 239 258 
f 239 232 258 
f 253 222 258 
f 232 253 258 
f 236 227 259 
f 227 240 259 
f 240 230 259 
f 230 254 259 
o convex_6
v 0.016990 0.067309 -0.009834
v 0.027747 0.052519 0.013024
v 0.027747 0.051847 0.013024
v 0.006234 0.063275 0.013024
v 0.006234 0.051847 -0.009834
v 0.027073 0.051847 -0.009834
v 0.020351 0.065292 0.013024
v 0.006234 0.069326 -0.009834
v 0.006234 0.051847 0.002264
v 0.010269 0.069326 0.013024
v 0.024384 0.061930 -0.009834
v 0.018332 0.051847 0.013024
v 0.006234 0.069326 0.013024
v 0.025058 0.059918 0.011679
v 0.027073 0.055881 -0.009834
v 0.016319 0.067981 0.011003
v 0.010269 0.069326 -0.007816
v 0.021021 0.065292 -0.009834
v 0.027073 0.055881 0.009659
v 0.027747 0.053864 -0.003110
v 0.023038 0.062600 0.013024
f 273 270 280 
f 262 261 263 
f 262 264 265 
f 264 260 265 
f 263 261 266 
f 260 264 267 
f 264 263 267 
f 263 264 268 
f 264 262 268 
f 263 266 269 
f 265 260 270 
f 262 263 271 
f 268 262 271 
f 263 268 271 
f 267 263 272 
f 263 269 272 
f 269 267 272 
f 265 270 274 
f 269 266 275 
f 269 275 276 
f 260 267 276 
f 267 269 276 
f 275 260 276 
f 270 260 277 
f 266 270 277 
f 260 275 277 
f 275 266 277 
f 273 261 278 
f 270 273 278 
f 274 270 278 
f 274 278 279 
f 261 262 279 
f 262 265 279 
f 265 274 279 
f 278 261 279 
f 266 261 280 
f 270 266 280 
f 261 273 280 
o convex_7
v 0.004215 0.009499 0.041931
v -0.018638 0.014871 0.031176
v -0.018638 0.014871 0.031849
v -0.009898 -0.005295 0.032522
v 0.004215 0.000084 0.031176
v -0.013261 0.031679 0.031176
v -0.011916 0.010167 0.041931
v 0.004215 -0.005295 0.041258
v -0.004525 0.020921 0.041931
v -0.014605 0.022260 0.037897
v 0.004215 -0.006641 0.031176
v -0.010572 0.000084 0.038569
v -0.010572 0.028989 0.031176
v -0.011243 -0.003952 0.031176
v -0.015949 0.031000 0.031849
v -0.005196 -0.002605 0.040585
v -0.011916 0.018228 0.041931
v -0.017965 0.022260 0.033866
v 0.002870 -0.006641 0.039242
v -0.003852 0.017560 0.031849
v -0.011243 -0.003952 0.033866
v -0.002507 0.019571 0.041931
v -0.001163 0.000756 0.041931
v -0.018638 0.024953 0.031176
v -0.009898 -0.004619 0.035211
v 0.004215 0.009499 0.041258
v -0.007212 0.020921 0.041931
v -0.000492 -0.006641 0.031176
v 0.000181 -0.004619 0.041258
v -0.010572 0.006806 0.041931
v 0.000181 0.016213 0.041258
v -0.017965 0.014195 0.033194
v -0.015276 0.031679 0.031849
f 297 307 313 
f 285 282 286 
f 285 281 288 
f 287 281 289 
f 282 285 291 
f 285 288 291 
f 285 286 293 
f 283 282 294 
f 282 291 294 
f 287 289 297 
f 290 295 298 
f 287 297 298 
f 297 290 298 
f 291 288 299 
f 285 293 300 
f 283 294 301 
f 294 284 301 
f 289 281 302 
f 286 289 302 
f 293 286 302 
f 281 287 303 
f 288 281 303 
f 282 283 304 
f 286 282 304 
f 295 286 304 
f 283 298 304 
f 298 295 304 
f 296 292 305 
f 284 299 305 
f 292 301 305 
f 301 284 305 
f 281 285 306 
f 285 300 306 
f 300 293 306 
f 297 289 307 
f 294 291 308 
f 284 294 308 
f 299 284 308 
f 291 299 308 
f 299 288 309 
f 288 303 309 
f 296 305 309 
f 305 299 309 
f 287 292 310 
f 292 296 310 
f 303 287 310 
f 296 309 310 
f 309 303 310 
f 302 281 311 
f 293 302 311 
f 281 306 311 
f 306 293 311 
f 292 287 312 
f 298 283 312 
f 287 298 312 
f 283 301 312 
f 301 292 312 
f 289 286 313 
f 286 295 313 
f 295 290 313 
f 290 297 313 
f 307 289 313 
o convex_8
v 0.004217 0.002773 0.046638
v -0.011918 0.011507 0.041932
v -0.011918 0.011507 0.042606
v -0.004522 0.020922 0.041932
v 0.002200 0.015543 0.054705
v 0.004217 0.010169 0.041932
v -0.006538 0.006807 0.047985
v 0.000183 0.000754 0.041932
v -0.011245 0.017558 0.042606
v 0.004217 0.015543 0.052014
v 0.004217 0.010169 0.054031
v -0.008555 0.012180 0.047985
v -0.007211 0.004116 0.042606
v -0.000489 0.010169 0.053360
v -0.002506 0.002773 0.045968
v 0.004217 0.000754 0.041932
v 0.004217 0.013527 0.045294
v -0.008555 0.019576 0.043277
v -0.008555 0.008149 0.047312
v 0.000183 0.014869 0.054031
v 0.002200 0.008149 0.052686
v -0.002506 0.019576 0.041932
v -0.010571 0.007480 0.041932
v 0.004217 0.015543 0.054705
v -0.005867 0.020922 0.042606
f 318 337 338 
f 315 317 319 
f 315 319 321 
f 315 316 322 
f 317 315 322 
f 314 319 323 
f 314 323 324 
f 322 316 325 
f 324 318 327 
f 321 314 328 
f 320 326 328 
f 326 321 328 
f 319 314 329 
f 321 319 329 
f 314 321 329 
f 323 319 330 
f 325 316 332 
f 326 320 332 
f 320 327 332 
f 327 325 332 
f 322 325 333 
f 327 318 333 
f 325 327 333 
f 318 331 333 
f 331 322 333 
f 314 324 334 
f 327 320 334 
f 324 327 334 
f 328 314 334 
f 320 328 334 
f 319 317 335 
f 317 323 335 
f 330 319 335 
f 323 330 335 
f 316 315 336 
f 315 321 336 
f 321 326 336 
f 332 316 336 
f 326 332 336 
f 323 317 337 
f 318 324 337 
f 324 323 337 
f 317 322 338 
f 331 318 338 
f 322 331 338 
f 337 317 338 
o convex_9
v 0.016990 -0.019413 0.023108
v 0.004217 -0.036218 0.015715
v 0.008251 -0.037566 0.013024
v 0.004217 -0.002613 0.013024
v 0.017663 0.000074 0.013024
v 0.004217 -0.004631 0.023108
v 0.017663 -0.038905 0.013024
v 0.017663 0.003439 0.023108
v 0.004217 -0.034205 0.019746
v 0.010940 -0.027479 0.022435
v 0.004217 -0.018070 0.023108
v 0.011611 -0.034205 0.019746
v 0.004217 -0.033531 0.013024
v 0.017663 -0.035548 0.015715
v 0.013629 -0.039579 0.013697
v 0.017663 -0.018740 0.023108
v 0.016990 0.003439 0.022435
v 0.006907 -0.036892 0.017730
v 0.006235 -0.026135 0.022435
v 0.013629 -0.026135 0.022435
v 0.013629 -0.036218 0.017730
f 352 358 359 
f 341 342 343 
f 342 340 344 
f 341 343 345 
f 345 343 346 
f 344 339 346 
f 344 340 347 
f 339 344 349 
f 344 347 349 
f 348 339 349 
f 348 347 350 
f 341 340 351 
f 342 341 351 
f 340 342 351 
f 345 346 352 
f 340 341 353 
f 341 345 353 
f 346 339 354 
f 352 346 354 
f 343 342 355 
f 342 344 355 
f 346 343 355 
f 344 346 355 
f 347 340 356 
f 350 347 356 
f 340 353 356 
f 347 348 357 
f 349 347 357 
f 348 349 357 
f 339 348 358 
f 348 350 358 
f 354 339 358 
f 352 354 358 
f 345 352 359 
f 353 345 359 
f 350 356 359 
f 356 353 359 
f 358 350 359 
o convex_10
v 0.027074 -0.001943 0.016387
v 0.018335 0.004783 0.041259
v 0.017663 0.004783 0.041259
v 0.018335 -0.038234 0.013698
v 0.017663 0.000075 0.013024
v 0.027074 0.004783 0.013024
v 0.024385 0.003436 0.031174
v 0.024385 -0.023447 0.013024
v 0.017663 -0.038234 0.013024
v 0.020352 -0.036221 0.013698
v 0.017663 0.004783 0.023109
v 0.027074 0.004783 0.023109
v 0.019009 0.004109 0.040585
v 0.025728 -0.015386 0.015041
v 0.024385 0.004783 0.013024
v 0.024385 -0.023447 0.013698
v 0.026402 0.000749 0.024458
v 0.022369 0.004109 0.035204
v 0.026402 -0.008664 0.013024
v 0.018335 0.004109 0.041259
f 369 372 379 
f 362 361 365 
f 364 365 367 
f 363 362 368 
f 362 364 368 
f 364 367 368 
f 368 367 369 
f 363 368 369 
f 364 362 370 
f 362 365 370 
f 365 361 371 
f 360 365 371 
f 360 371 373 
f 365 364 374 
f 364 370 374 
f 370 365 374 
f 369 367 375 
f 366 369 375 
f 367 373 375 
f 375 373 376 
f 371 366 376 
f 373 371 376 
f 366 375 376 
f 369 366 377 
f 371 361 377 
f 366 371 377 
f 361 372 377 
f 372 369 377 
f 365 360 378 
f 367 365 378 
f 360 373 378 
f 373 367 378 
f 361 362 379 
f 362 363 379 
f 363 369 379 
f 372 361 379 
o convex_11
v 0.006234 0.001426 -0.009834
v -0.005194 0.002103 0.007646
v -0.006539 0.002103 0.007646
v -0.006539 0.047813 -0.009834
v 0.006234 0.047813 0.002265
v -0.006539 0.001426 -0.009834
v 0.006234 0.047813 -0.009834
v 0.006234 0.001426 0.002937
v -0.006539 0.047813 0.001592
v 0.006234 0.037724 0.003611
v -0.002505 0.047813 0.002265
v 0.002199 0.001426 0.004954
v 0.005561 0.045793 0.002937
v -0.006539 0.001426 0.007646
v 0.006234 0.023616 0.003611
f 391 387 394 
f 382 383 385 
f 383 380 385 
f 380 383 386 
f 384 380 386 
f 383 384 386 
f 380 384 387 
f 385 380 387 
f 383 382 388 
f 384 383 388 
f 387 384 389 
f 388 382 390 
f 384 388 390 
f 385 387 391 
f 382 381 392 
f 389 384 392 
f 381 389 392 
f 390 382 392 
f 384 390 392 
f 381 382 393 
f 382 385 393 
f 391 381 393 
f 385 391 393 
f 389 381 394 
f 387 389 394 
f 381 391 394 
o convex_12
v -0.012589 0.061931 -0.009834
v 0.006234 0.069326 -0.001094
v 0.006234 0.069326 -0.009834
v 0.006234 0.047813 -0.009834
v -0.019313 0.047813 0.002267
v 0.006234 0.047813 0.002267
v -0.007882 0.065289 0.002267
v -0.017965 0.047813 -0.009834
v 0.006234 0.068652 0.002267
v -0.004526 0.067981 -0.009834
v -0.017965 0.052520 0.001594
v -0.001836 0.068652 -0.001094
v -0.013261 0.059913 0.002267
v -0.015949 0.055885 -0.009834
v 0.000182 0.069326 -0.009834
v -0.007882 0.065961 -0.001094
v -0.019313 0.048487 -0.002439
v 0.000855 0.068652 0.002267
v -0.009228 0.065289 -0.009834
v -0.013261 0.060583 -0.000423
f 413 395 414 
f 397 396 398 
f 395 397 398 
f 398 396 400 
f 399 398 400 
f 399 400 401 
f 395 398 402 
f 398 399 402 
f 400 396 403 
f 401 400 403 
f 397 395 404 
f 399 401 407 
f 405 399 407 
f 395 402 408 
f 405 395 408 
f 396 397 409 
f 397 404 409 
f 406 396 409 
f 404 406 409 
f 401 406 410 
f 406 404 410 
f 402 399 411 
f 399 405 411 
f 408 402 411 
f 405 408 411 
f 403 396 412 
f 401 403 412 
f 396 406 412 
f 406 401 412 
f 404 395 413 
f 410 404 413 
f 410 413 414 
f 395 405 414 
f 407 401 414 
f 405 407 414 
f 401 410 414 
o convex_13
v -0.013261 0.060583 0.006301
v 0.006234 0.069326 0.013024
v 0.006234 0.069326 0.002940
v -0.007882 0.047813 0.013024
v -0.011243 0.047813 0.002267
v -0.017965 0.049159 0.013024
v 0.006234 0.062602 0.002267
v -0.019313 0.047813 0.002267
v -0.007210 0.065961 0.013024
v -0.005869 0.066635 0.002267
v 0.006234 0.063274 0.013024
v 0.000182 0.069326 0.010335
v -0.013934 0.058570 0.013024
v -0.017295 0.053194 0.002267
v -0.017965 0.047813 0.013024
v -0.010573 0.063274 0.002940
v -0.017295 0.053194 0.008988
v -0.007882 0.047813 0.011006
v 0.000855 0.068652 0.002267
v -0.001836 0.068652 0.013024
v -0.007882 0.065961 0.008316
v -0.002506 0.068652 0.006975
v -0.009900 0.063946 0.012351
f 435 430 437 
f 418 416 420 
f 417 416 421 
f 421 419 422 
f 419 418 422 
f 420 416 423 
f 421 422 424 
f 416 418 425 
f 421 416 425 
f 418 421 425 
f 416 417 426 
f 420 423 427 
f 424 422 428 
f 418 420 429 
f 422 418 429 
f 420 422 429 
f 424 428 430 
f 428 415 430 
f 422 420 431 
f 427 415 431 
f 420 427 431 
f 428 422 431 
f 415 428 431 
f 418 419 432 
f 421 418 432 
f 419 421 432 
f 417 421 433 
f 421 424 433 
f 426 417 433 
f 423 416 434 
f 416 426 434 
f 424 430 435 
f 423 434 435 
f 435 434 436 
f 433 424 436 
f 426 433 436 
f 434 426 436 
f 424 435 436 
f 415 427 437 
f 427 423 437 
f 430 415 437 
f 423 435 437 
o convex_14
v 0.006234 0.001426 -0.009834
v 0.018335 0.002102 0.008318
v 0.016988 0.002102 0.008318
v 0.018335 0.051847 -0.009834
v 0.006234 0.051847 0.002264
v 0.018335 0.001426 -0.003782
v 0.006234 0.051847 -0.009834
v 0.018335 0.051847 0.002264
v 0.006234 0.001426 0.002938
v 0.018335 0.022274 -0.009834
v 0.012956 0.001426 -0.009834
v 0.006234 0.037727 0.003609
v 0.012284 0.001426 0.006298
v 0.008251 0.047810 0.002938
v 0.006907 0.001426 0.003609
v 0.018335 0.041759 0.003609
v 0.018335 0.001426 0.008318
f 450 443 454 
f 441 439 443 
f 441 438 444 
f 438 442 444 
f 442 441 444 
f 439 441 445 
f 441 442 445 
f 442 438 446 
f 438 443 446 
f 438 441 447 
f 441 443 447 
f 447 443 448 
f 443 438 448 
f 438 447 448 
f 442 446 449 
f 446 443 450 
f 440 449 450 
f 440 439 451 
f 445 442 451 
f 449 440 451 
f 442 449 451 
f 449 446 452 
f 446 450 452 
f 450 449 452 
f 439 445 453 
f 451 439 453 
f 445 451 453 
f 439 440 454 
f 443 439 454 
f 440 450 454 
o convex_15
v -0.007886 -0.019413 0.021763
v -0.021330 0.000752 0.013024
v -0.021330 0.000752 0.014369
v 0.004217 -0.002609 0.013024
v -0.009226 -0.033531 0.013024
v 0.004217 -0.005299 0.021763
v 0.004217 -0.036221 0.017728
v -0.017291 0.001426 0.021763
v -0.014605 -0.030170 0.013696
v 0.004217 -0.032857 0.013024
v -0.003855 0.001426 0.021763
v 0.000178 -0.033531 0.019745
v 0.004217 -0.024790 0.021763
v -0.007216 0.001426 0.013024
v -0.015948 -0.007986 0.021090
v -0.007886 -0.032183 0.017728
v -0.019309 -0.014037 0.013696
v -0.013933 -0.011350 0.021763
v -0.004525 -0.035543 0.016386
v -0.017291 -0.022774 0.013024
v 0.004217 -0.036221 0.015713
v -0.021330 0.001426 0.013024
v -0.007216 -0.023445 0.021090
v -0.017291 -0.022774 0.013696
v 0.004217 -0.034198 0.019745
v -0.020657 -0.007315 0.013696
f 474 471 480 
f 456 458 459 
f 458 460 461 
f 455 460 462 
f 459 458 464 
f 458 461 464 
f 460 458 465 
f 462 460 465 
f 460 455 467 
f 461 460 467 
f 458 456 468 
f 465 458 468 
f 462 465 468 
f 455 462 472 
f 462 469 472 
f 469 463 472 
f 463 470 472 
f 463 459 473 
f 461 466 473 
f 470 463 473 
f 466 470 473 
f 456 459 474 
f 459 463 474 
f 459 464 475 
f 464 461 475 
f 473 459 475 
f 461 473 475 
f 456 457 476 
f 457 462 476 
f 468 456 476 
f 462 468 476 
f 467 455 477 
f 466 467 477 
f 470 466 477 
f 455 472 477 
f 472 470 477 
f 463 469 478 
f 469 471 478 
f 474 463 478 
f 471 474 478 
f 466 461 479 
f 461 467 479 
f 467 466 479 
f 457 456 480 
f 462 457 480 
f 469 462 480 
f 471 469 480 
f 456 474 480 
o convex_16
v -0.004524 -0.014034 0.029157
v -0.016624 0.000081 0.021764
v -0.016624 0.000081 0.022437
v 0.004217 -0.000592 0.029830
v 0.004217 -0.021431 0.021764
v 0.004217 -0.005297 0.021764
v -0.012589 0.001426 0.031174
v -0.009227 -0.018069 0.022437
v 0.004217 -0.009331 0.031174
v -0.003851 0.001426 0.021764
v -0.009900 -0.012019 0.028486
v 0.000182 0.001426 0.031174
v -0.014606 -0.008660 0.021764
v 0.004217 -0.016053 0.028486
v -0.011244 -0.003953 0.031174
v -0.005198 -0.018742 0.024453
v -0.016624 0.001426 0.021764
v -0.013262 0.000081 0.030502
v -0.007880 -0.012019 0.029830
v -0.008553 -0.018742 0.021764
v -0.013262 -0.012019 0.022437
v -0.008553 -0.018742 0.023109
v 0.004217 -0.000592 0.031174
v 0.003544 -0.021431 0.022437
v 0.000855 -0.016722 0.027813
v 0.004217 -0.001937 0.026469
f 490 484 506 
f 485 482 486 
f 484 485 486 
f 485 484 489 
f 486 482 490 
f 487 489 492 
f 484 490 492 
f 490 487 492 
f 483 482 493 
f 482 485 493 
f 489 481 494 
f 485 489 494 
f 489 487 495 
f 482 483 497 
f 490 482 497 
f 487 490 497 
f 483 493 498 
f 495 487 498 
f 491 495 498 
f 497 483 498 
f 487 497 498 
f 481 489 499 
f 489 495 499 
f 495 491 499 
f 496 481 499 
f 493 485 500 
f 498 493 501 
f 491 498 501 
f 493 500 501 
f 500 488 501 
f 499 491 502 
f 496 499 502 
f 488 500 502 
f 501 488 502 
f 491 501 502 
f 489 484 503 
f 484 492 503 
f 492 489 503 
f 485 494 504 
f 500 485 504 
f 496 502 504 
f 502 500 504 
f 494 481 505 
f 481 496 505 
f 504 494 505 
f 496 504 505 
f 484 486 506 
f 486 490 506 
o convex_17
v -0.005869 0.001426 0.015714
v -0.008561 0.020250 0.031175
v -0.005195 0.018230 0.031175
v -0.013261 0.001426 0.031175
v -0.022001 0.020250 0.013024
v -0.021329 0.001426 0.013024
v -0.019985 0.019577 0.029830
v 0.000183 0.001426 0.031175
v -0.013930 0.020250 0.013024
v -0.009903 0.012854 0.013024
v -0.019311 0.016885 0.031175
v -0.007216 0.001426 0.013024
v -0.022001 0.002771 0.013697
v -0.003851 0.015544 0.029830
v -0.022674 0.016215 0.013697
v -0.018640 0.020250 0.031175
v -0.000490 0.002771 0.029157
v -0.022674 0.010167 0.013697
v -0.007216 0.003446 0.013024
v -0.017964 0.012854 0.031175
v -0.021329 0.001426 0.014369
v -0.004524 0.017558 0.030500
f 520 516 528 
f 509 508 510 
f 507 510 512 
f 509 510 514 
f 510 507 514 
f 508 509 515 
f 511 508 515 
f 512 511 515 
f 512 515 516 
f 510 508 517 
f 507 512 518 
f 512 516 518 
f 517 513 519 
f 513 511 521 
f 508 511 522 
f 511 513 522 
f 517 508 522 
f 513 517 522 
f 514 507 523 
f 520 514 523 
f 511 512 524 
f 512 519 524 
f 519 513 524 
f 521 511 524 
f 513 521 524 
f 507 518 525 
f 518 516 525 
f 516 520 525 
f 523 507 525 
f 520 523 525 
f 510 517 526 
f 512 510 527 
f 519 512 527 
f 517 519 527 
f 510 526 527 
f 526 517 527 
f 509 514 528 
f 515 509 528 
f 516 515 528 
f 514 520 528 
o convex_18
v -0.011248 0.033695 0.030500
v -0.022002 0.020250 0.013024
v -0.013937 0.020250 0.013024
v -0.021329 0.034368 0.013024
v -0.018638 0.020250 0.031175
v -0.008556 0.020250 0.031175
v -0.010575 0.034368 0.015714
v -0.019983 0.034368 0.023777
v -0.008556 0.034368 0.025797
v -0.015950 0.033022 0.031175
v -0.021329 0.026973 0.023777
v -0.011920 0.034368 0.013024
v -0.009901 0.020250 0.023777
v -0.020657 0.021596 0.027812
v -0.009229 0.033695 0.019075
v -0.018638 0.028315 0.030500
v -0.022002 0.033695 0.013697
v -0.016623 0.034368 0.029830
v -0.008556 0.024957 0.031175
v -0.008556 0.020250 0.029157
v -0.009229 0.034368 0.028485
v -0.012590 0.026973 0.013024
v -0.021329 0.034368 0.019075
v -0.019983 0.031004 0.026469
f 551 539 552 
f 531 530 532 
f 530 531 533 
f 533 531 534 
f 535 532 536 
f 535 536 537 
f 533 534 538 
f 531 532 540 
f 532 535 540 
f 534 531 541 
f 530 533 542 
f 539 530 542 
f 535 537 543 
f 533 538 544 
f 542 533 544 
f 532 530 545 
f 530 539 545 
f 537 536 546 
f 538 529 546 
f 544 538 546 
f 534 537 547 
f 529 538 547 
f 538 534 547 
f 537 534 548 
f 534 541 548 
f 543 537 548 
f 541 543 548 
f 537 546 549 
f 546 529 549 
f 529 547 549 
f 547 537 549 
f 531 540 550 
f 540 535 550 
f 541 531 550 
f 535 543 550 
f 543 541 550 
f 536 532 551 
f 532 545 551 
f 545 539 551 
f 539 542 552 
f 542 544 552 
f 546 536 552 
f 544 546 552 
f 536 551 552 
o convex_19
v 0.017663 0.016216 0.031848
v 0.004217 -0.018739 0.023781
v 0.004217 -0.018739 0.025798
v 0.017663 -0.017397 0.023108
v 0.016317 -0.007310 0.031848
v 0.016990 0.004113 0.023108
v 0.004217 0.000078 0.031848
v 0.004217 -0.004624 0.023108
v 0.009597 -0.015381 0.030503
v 0.013629 0.014197 0.030503
v 0.013629 -0.020759 0.024453
v 0.004217 -0.007310 0.031848
v 0.017663 -0.005967 0.031848
v 0.010269 -0.020759 0.023108
v 0.017663 0.011507 0.027143
v 0.012955 -0.015381 0.029829
v 0.004217 -0.017397 0.027812
v 0.014971 0.011507 0.027812
v 0.012282 0.012854 0.031174
v 0.010940 -0.020759 0.025126
v 0.017663 0.004113 0.023108
v 0.004217 -0.018066 0.023108
v 0.017663 -0.017397 0.023781
v 0.004217 -0.002604 0.025798
f 571 560 576 
f 554 555 559 
f 557 553 559 
f 558 556 560 
f 554 559 560 
f 559 555 564 
f 557 559 564 
f 561 557 564 
f 556 553 565 
f 553 557 565 
f 555 554 566 
f 560 556 566 
f 556 563 566 
f 553 556 567 
f 562 553 567 
f 557 561 568 
f 565 557 568 
f 564 555 569 
f 561 564 569 
f 558 560 570 
f 560 562 570 
f 567 558 570 
f 562 567 570 
f 559 553 571 
f 553 562 571 
f 562 560 571 
f 555 566 572 
f 566 563 572 
f 568 561 572 
f 563 568 572 
f 569 555 572 
f 561 569 572 
f 556 558 573 
f 567 556 573 
f 558 567 573 
f 554 560 574 
f 566 554 574 
f 560 566 574 
f 563 556 575 
f 556 565 575 
f 568 563 575 
f 565 568 575 
f 560 559 576 
f 559 571 576 
o convex_20
v 0.004217 -0.007311 0.036557
v 0.004890 0.015541 0.054703
v 0.005562 0.016212 0.053358
v 0.017663 -0.007311 0.035212
v 0.016317 0.016212 0.031848
v 0.014299 0.010165 0.052014
v 0.004217 0.000756 0.031848
v 0.017663 0.018903 0.043946
v 0.007580 -0.006640 0.041262
v 0.017663 -0.005967 0.031848
v 0.004217 0.013524 0.045291
v 0.004217 0.008818 0.053358
v 0.014971 0.020250 0.039917
v 0.011611 0.014197 0.033194
v 0.004217 -0.006640 0.031848
v 0.014971 -0.008658 0.037228
v 0.017663 0.009491 0.045962
v 0.017663 0.016885 0.032523
v 0.012282 -0.006640 0.040591
v 0.004217 -0.005967 0.041262
v 0.004217 0.016212 0.052014
v 0.013629 0.014871 0.050669
v 0.013629 0.018903 0.037901
v 0.009597 0.006803 0.051340
v 0.016990 -0.007985 0.033194
v 0.008925 -0.008658 0.036557
v 0.017663 0.020250 0.041262
v 0.014971 0.020250 0.042606
v 0.004217 0.012183 0.054703
v 0.014299 0.015541 0.031848
f 599 581 606 
f 579 578 584 
f 583 581 586 
f 584 580 586 
f 583 577 587 
f 587 577 588 
f 583 587 590 
f 577 583 591 
f 583 586 591 
f 580 582 592 
f 582 580 593 
f 580 584 593 
f 584 582 593 
f 586 581 594 
f 584 586 594 
f 592 582 595 
f 585 592 595 
f 588 577 596 
f 585 588 596 
f 578 579 597 
f 587 588 597 
f 578 582 598 
f 584 578 598 
f 582 584 598 
f 590 587 599 
f 594 581 599 
f 589 594 599 
f 587 597 599 
f 597 589 599 
f 582 588 600 
f 588 585 600 
f 595 582 600 
f 585 595 600 
f 586 580 601 
f 591 586 601 
f 580 592 601 
f 601 592 602 
f 577 591 602 
f 592 585 602 
f 596 577 602 
f 585 596 602 
f 591 601 602 
f 584 594 603 
f 594 589 603 
f 579 584 604 
f 597 579 604 
f 589 597 604 
f 584 603 604 
f 603 589 604 
f 582 578 605 
f 588 582 605 
f 578 597 605 
f 597 588 605 
f 581 583 606 
f 583 590 606 
f 590 599 606 
o convex_21
v 0.020353 0.016215 0.043947
v 0.025057 0.004788 0.013024
v 0.024384 0.005460 0.013024
v 0.029091 0.021594 0.017732
v 0.019680 0.016888 0.013024
v 0.018335 0.004788 0.041932
v 0.027746 0.012855 0.033190
v 0.017663 0.020922 0.033861
v 0.017663 0.004788 0.023784
v 0.027074 0.021594 0.035205
v 0.027074 0.004788 0.023110
v 0.023043 0.021594 0.013024
v 0.017663 0.018905 0.042602
v 0.029764 0.019576 0.028492
v 0.027074 0.004788 0.013024
v 0.025057 0.009494 0.037221
v 0.017663 0.010838 0.045965
v 0.027074 0.021594 0.013024
v 0.019009 0.021594 0.037221
v 0.023043 0.014871 0.041932
v 0.024384 0.021594 0.038568
v 0.023043 0.004788 0.035205
v 0.018335 0.021594 0.028492
v 0.019680 0.011511 0.045288
v 0.029764 0.021594 0.021769
v 0.026401 0.016215 0.037221
v 0.017663 0.020922 0.031842
v 0.017663 0.004788 0.041932
v 0.019009 0.007477 0.043947
v 0.023043 0.017561 0.041932
v 0.021025 0.019576 0.013024
v 0.025729 0.004788 0.028492
f 622 628 638 
f 608 609 611 
f 609 608 615 
f 611 609 615 
f 608 612 615 
f 612 608 617 
f 608 611 618 
f 616 610 618 
f 614 615 619 
f 613 617 620 
f 620 617 621 
f 617 608 621 
f 608 618 621 
f 607 619 623 
f 619 615 623 
f 618 610 624 
f 621 618 624 
f 610 621 624 
f 616 618 625 
f 614 619 625 
f 619 607 627 
f 616 625 627 
f 625 619 627 
f 612 617 628 
f 614 625 629 
f 625 618 629 
f 607 623 630 
f 622 626 630 
f 610 616 631 
f 616 620 631 
f 620 621 631 
f 621 610 631 
f 620 616 632 
f 613 620 632 
f 622 613 632 
f 626 622 632 
f 615 614 633 
f 611 615 633 
f 629 611 633 
f 614 629 633 
f 615 612 634 
f 623 615 634 
f 623 634 635 
f 612 628 635 
f 628 622 635 
f 622 630 635 
f 630 623 635 
f 634 612 635 
f 627 607 636 
f 616 627 636 
f 607 630 636 
f 630 626 636 
f 632 616 636 
f 626 632 636 
f 618 611 637 
f 611 629 637 
f 629 618 637 
f 617 613 638 
f 613 622 638 
f 628 617 638 
o convex_22
v 0.018335 0.022267 0.035208
v 0.031108 0.027646 0.022439
v 0.030435 0.033022 0.023783
v 0.023042 0.034368 0.013024
v 0.024386 0.021594 0.013024
v 0.019008 0.034368 0.031847
v 0.026401 0.021594 0.035880
v 0.029763 0.034368 0.013024
v 0.025728 0.034368 0.033189
v 0.018335 0.033694 0.023783
v 0.029089 0.021594 0.016389
v 0.018335 0.021594 0.028483
v 0.020354 0.021594 0.037898
v 0.030435 0.022267 0.025794
v 0.022370 0.025629 0.014370
v 0.029089 0.034368 0.027813
v 0.029089 0.024285 0.013024
v 0.024386 0.022940 0.037898
v 0.023042 0.034368 0.033861
v 0.028417 0.021594 0.032520
v 0.031108 0.030333 0.018405
v 0.019008 0.022267 0.025127
v 0.018335 0.034368 0.030501
v 0.021026 0.034368 0.016389
v 0.031108 0.026302 0.021095
v 0.029763 0.028316 0.027813
v 0.027746 0.032349 0.031171
f 658 654 665 
f 643 642 646 
f 642 644 646 
f 646 644 647 
f 645 643 649 
f 643 645 650 
f 639 648 650 
f 644 639 651 
f 639 650 651 
f 650 645 651 
f 642 643 653 
f 641 646 654 
f 646 647 654 
f 643 646 655 
f 649 643 655 
f 645 647 656 
f 651 645 656 
f 651 656 657 
f 647 644 657 
f 644 651 657 
f 656 647 657 
f 645 649 658 
f 649 652 658 
f 641 640 659 
f 646 641 659 
f 655 646 659 
f 643 650 660 
f 650 648 660 
f 653 643 660 
f 648 653 660 
f 639 644 661 
f 644 642 661 
f 648 639 661 
f 648 661 662 
f 642 653 662 
f 653 648 662 
f 661 642 662 
f 640 652 663 
f 652 649 663 
f 649 655 663 
f 659 640 663 
f 655 659 663 
f 640 641 664 
f 652 640 664 
f 641 654 664 
f 658 652 664 
f 654 658 664 
f 647 645 665 
f 654 647 665 
f 645 658 665 
o convex_23
v -0.023345 0.012180 0.012350
v -0.026032 0.001426 -0.009834
v -0.027377 0.001426 -0.008489
v -0.021327 0.021594 -0.009834
v -0.006539 0.001426 0.008314
v -0.006539 0.021594 -0.009834
v -0.014610 0.021594 0.013024
v -0.006539 0.001426 -0.009834
v -0.021327 0.001426 0.013024
v -0.024687 0.020921 0.004280
v -0.007213 0.002773 0.013024
v -0.029397 0.002099 -0.002437
v -0.006539 0.021594 0.001595
v -0.022000 0.021594 0.013024
v -0.028052 0.001426 0.003609
v -0.028723 0.006133 -0.003110
v -0.010574 0.013526 0.013024
v -0.024016 0.021594 0.000253
v -0.024016 0.019575 0.008987
v -0.028052 0.009495 -0.000421
v -0.007213 0.001426 0.013024
v -0.022000 0.002099 0.013024
v -0.028723 0.002773 0.001595
v -0.023345 0.018230 0.011679
f 684 688 689 
f 667 668 669 
f 668 667 670 
f 667 669 671 
f 671 669 672 
f 670 667 673 
f 667 671 673 
f 671 670 673 
f 668 670 674 
f 672 674 676 
f 670 671 678 
f 671 672 678 
f 676 670 678 
f 672 669 679 
f 674 672 679 
f 668 674 680 
f 677 668 680 
f 669 668 681 
f 668 677 681 
f 672 676 682 
f 678 672 682 
f 676 678 682 
f 679 669 683 
f 675 679 683 
f 669 681 683 
f 679 675 684 
f 681 677 685 
f 675 683 685 
f 683 681 685 
f 684 675 685 
f 674 670 686 
f 670 676 686 
f 676 674 686 
f 679 666 687 
f 674 679 687 
f 666 680 687 
f 680 674 687 
f 677 680 688 
f 684 685 688 
f 685 677 688 
f 666 679 689 
f 680 666 689 
f 679 684 689 
f 688 680 689 
o convex_24
v 0.019008 0.001426 -0.003109
v 0.026401 0.019578 0.013024
v 0.021024 0.019578 0.013024
v 0.019008 0.019578 -0.005128
v 0.026401 0.001426 0.011005
v 0.018335 0.001426 0.008989
v 0.025730 0.018233 0.006972
v 0.018335 0.019578 0.004954
v 0.024385 0.001426 0.013024
v 0.021697 0.001426 -0.000421
v 0.019680 0.016214 0.013024
v 0.018335 0.001426 -0.003109
v 0.027074 0.004788 0.013024
v 0.018335 0.019578 -0.005128
v 0.026401 0.019578 0.009660
v 0.023712 0.001426 0.003612
v 0.019008 0.017559 0.011005
v 0.026401 0.006804 0.009660
f 705 696 707 
f 692 691 693 
f 690 694 695 
f 692 693 697 
f 691 692 698 
f 695 694 698 
f 690 693 699 
f 694 690 699 
f 693 696 699 
f 698 692 700 
f 695 698 700 
f 693 690 701 
f 690 695 701 
f 695 697 701 
f 691 698 702 
f 698 694 702 
f 697 693 703 
f 693 701 703 
f 701 697 703 
f 693 691 704 
f 696 693 704 
f 691 702 704 
f 694 699 705 
f 699 696 705 
f 692 697 706 
f 697 695 706 
f 700 692 706 
f 695 700 706 
f 702 694 707 
f 696 704 707 
f 704 702 707 
f 694 705 707 
o convex_25
v 0.026402 0.027647 -0.000421
v 0.027747 0.051844 0.013024
v 0.019007 0.051844 0.013024
v 0.027074 0.051844 -0.009834
v 0.018335 0.023614 -0.009834
v 0.021697 0.019584 0.013024
v 0.018335 0.051844 -0.009834
v 0.029091 0.024959 0.013024
v 0.018335 0.019584 0.004953
v 0.025730 0.019584 0.007643
v 0.029764 0.033697 0.006298
v 0.027074 0.043105 -0.009834
v 0.029764 0.043105 0.013024
v 0.029091 0.048481 -0.001092
v 0.019680 0.019584 -0.005126
v 0.023714 0.033025 -0.009834
v 0.018335 0.051844 0.002264
v 0.028419 0.029665 0.002935
v 0.026402 0.019584 0.013024
v 0.023041 0.020926 -0.001092
v 0.027747 0.049153 -0.009834
v 0.021024 0.019584 0.012350
v 0.028419 0.051171 -0.003782
v 0.018335 0.019584 -0.005800
v 0.029091 0.048481 0.007643
v 0.029764 0.031683 0.013024
v 0.019007 0.049153 0.013024
v 0.019007 0.023614 -0.009834
v 0.029091 0.040415 -0.000421
f 728 721 736 
f 710 709 711 
f 709 710 713 
f 710 711 714 
f 711 712 714 
f 709 713 715 
f 714 712 716 
f 713 716 717 
f 712 711 719 
f 709 715 720 
f 720 718 721 
f 717 716 722 
f 719 708 723 
f 712 719 723 
f 710 714 724 
f 716 710 724 
f 714 716 724 
f 717 708 725 
f 715 717 725 
f 718 715 725 
f 708 719 725 
f 715 713 726 
f 717 715 726 
f 713 717 726 
f 708 717 727 
f 717 722 727 
f 723 708 727 
f 719 711 728 
f 716 713 729 
f 711 709 730 
f 728 711 730 
f 721 728 730 
f 716 712 731 
f 722 716 731 
f 709 720 732 
f 720 721 732 
f 730 709 732 
f 721 730 732 
f 715 718 733 
f 720 715 733 
f 718 720 733 
f 713 710 734 
f 710 716 734 
f 729 713 734 
f 716 729 734 
f 712 723 735 
f 727 722 735 
f 723 727 735 
f 731 712 735 
f 722 731 735 
f 721 718 736 
f 718 725 736 
f 725 719 736 
f 719 728 736 
o convex_26
v -0.019310 0.047813 0.002267
v -0.024019 0.021594 0.001594
v -0.024019 0.021594 0.002267
v -0.006539 0.021594 -0.009834
v -0.006539 0.026974 0.002267
v -0.017967 0.047813 -0.009834
v -0.006539 0.047813 -0.009834
v -0.021327 0.021594 -0.009834
v -0.006539 0.047813 0.001594
v -0.006539 0.021594 0.001594
v -0.021327 0.039072 -0.002439
v -0.006539 0.041089 0.002267
v -0.020657 0.043776 -0.001094
v -0.022674 0.032353 0.002267
v -0.021327 0.022942 -0.009834
v -0.019310 0.039742 -0.009834
f 742 751 752 
f 739 738 740 
f 737 739 741 
f 741 740 743 
f 742 737 743 
f 740 742 743 
f 740 738 744 
f 742 740 744 
f 743 737 745 
f 741 743 745 
f 739 740 746 
f 740 741 746 
f 741 739 746 
f 737 741 748 
f 745 737 748 
f 741 745 748 
f 737 742 749 
f 742 747 749 
f 749 747 750 
f 739 737 750 
f 738 739 750 
f 747 738 750 
f 737 749 750 
f 744 738 751 
f 742 744 751 
f 738 747 751 
f 751 747 752 
f 747 742 752 
o convex_27
v -0.018638 0.047813 0.013024
v -0.024017 0.021594 0.002267
v -0.024017 0.021594 0.004956
v -0.007884 0.046466 0.012351
v -0.019311 0.047813 0.002267
v -0.014608 0.021594 0.013024
v -0.017294 0.021594 0.002267
v -0.011919 0.047813 0.002267
v -0.022001 0.021594 0.013024
v -0.022001 0.037055 0.011006
v -0.007884 0.047813 0.013024
v -0.022672 0.034370 0.005630
v -0.011248 0.047141 0.002940
v -0.022001 0.033700 0.013024
v -0.016622 0.021594 0.003612
v -0.013936 0.022942 0.012351
v -0.020655 0.043106 0.009661
v -0.022001 0.036380 0.002267
f 764 757 770 
f 755 754 758 
f 754 757 759 
f 758 754 759 
f 757 753 760 
f 759 757 760 
f 758 753 761 
f 755 758 761 
f 753 758 763 
f 758 756 763 
f 760 753 763 
f 754 755 764 
f 755 762 764 
f 759 760 765 
f 763 756 765 
f 760 763 765 
f 761 753 766 
f 755 761 766 
f 762 755 766 
f 753 762 766 
f 758 759 767 
f 765 756 767 
f 759 765 767 
f 756 758 768 
f 767 756 768 
f 758 767 768 
f 753 757 769 
f 762 753 769 
f 757 764 769 
f 764 762 769 
f 757 754 770 
f 754 764 770 
