o convex_0
v -0.025446 -0.015534 -0.009031
v 0.020396 -0.018294 -0.000197
v 0.020396 -0.019950 -0.000197
v 0.000509 0.000484 0.027966
v 0.004378 0.000484 -0.018974
v -0.027106 -0.031552 -0.014552
v 0.014867 -0.029893 -0.022287
v 0.011557 -0.031552 0.008080
v -0.018267 0.000484 -0.015661
v 0.019842 0.000484 0.000355
v -0.011636 -0.031552 0.005871
v -0.019922 -0.019950 -0.022839
v 0.009348 -0.000071 0.025758
v -0.008874 0.000484 0.019680
v 0.019842 -0.031552 -0.014000
v -0.024339 -0.031552 -0.005166
v -0.021577 0.000484 -0.004614
v 0.018182 -0.031552 0.002564
v 0.018736 0.000484 0.010846
v 0.017634 0.000484 -0.006270
v -0.023790 -0.031552 -0.018422
v -0.007772 -0.005042 0.021341
v 0.001062 -0.002831 0.027414
v -0.003904 0.000484 -0.020073
v -0.025446 -0.015534 -0.014552
v 0.015421 -0.027686 -0.022287
v 0.012110 -0.012223 0.019127
v -0.008874 -0.031552 0.007533
v 0.010450 -0.023819 -0.022839
v -0.022130 -0.023261 -0.022287
v 0.004926 -0.031552 -0.021183
v 0.009348 -0.027686 0.011398
v -0.013296 0.000484 -0.018974
v -0.024892 -0.016638 -0.006822
v 0.008241 0.000484 -0.016209
v -0.022684 -0.020501 -0.021735
v -0.021577 -0.000071 -0.011244
v -0.002806 -0.000623 0.026862
v 0.020396 -0.031552 -0.006822
v 0.012663 -0.005042 0.020784
v -0.027106 -0.026027 -0.011792
v 0.018736 -0.029341 -0.016766
v -0.008874 -0.002279 0.020232
v 0.018736 -0.014982 0.006981
v 0.019842 -0.000071 0.007533
v -0.020475 0.000484 -0.001853
v -0.021577 -0.006697 -0.016214
v -0.018820 -0.018846 -0.022839
v -0.026552 -0.022709 -0.015661
v -0.025999 -0.030445 -0.007927
v 0.015974 0.000484 -0.008479
v 0.010450 -0.013879 0.019127
v 0.013765 -0.031552 -0.021183
v 0.013765 -0.027686 -0.022839
v 0.019289 0.000484 -0.002405
v 0.020396 -0.022709 -0.006822
v 0.017080 -0.031552 0.004220
v -0.025999 -0.016638 -0.012344
v 0.012110 0.000484 0.021888
v -0.022684 -0.031552 -0.003510
v 0.019289 -0.031552 -0.000197
v -0.026552 -0.031552 -0.016214
v 0.003824 -0.000623 -0.019526
v -0.018267 -0.027131 -0.021183
f 30 31 64 
f 4 5 9 
f 5 4 10 
f 6 8 11 
f 4 9 14 
f 8 6 15 
f 6 11 16 
f 14 9 17 
f 8 15 18 
f 10 4 19 
f 5 10 20 
f 15 6 21 
f 13 4 23 
f 9 5 24 
f 11 8 28 
f 15 21 31 
f 30 7 31 
f 28 8 32 
f 23 28 32 
f 9 24 33 
f 17 1 34 
f 5 20 35 
f 26 5 35 
f 12 30 36 
f 9 33 36 
f 33 12 36 
f 17 9 37 
f 4 14 38 
f 22 11 38 
f 23 4 38 
f 11 28 38 
f 28 23 38 
f 2 3 39 
f 18 15 39 
f 27 18 40 
f 13 27 40 
f 34 1 41 
f 15 7 42 
f 7 26 42 
f 26 20 42 
f 16 22 43 
f 38 14 43 
f 22 38 43 
f 19 40 44 
f 40 18 44 
f 3 2 45 
f 2 10 45 
f 10 19 45 
f 44 3 45 
f 19 44 45 
f 14 17 46 
f 17 34 46 
f 34 43 46 
f 43 14 46 
f 36 25 47 
f 9 36 47 
f 37 9 47 
f 25 37 47 
f 29 12 48 
f 24 29 48 
f 12 33 48 
f 33 24 48 
f 25 36 49 
f 6 41 49 
f 6 16 50 
f 41 6 50 
f 34 41 50 
f 16 43 50 
f 43 34 50 
f 20 26 51 
f 35 20 51 
f 26 35 51 
f 13 23 52 
f 8 27 52 
f 27 13 52 
f 32 8 52 
f 23 32 52 
f 7 15 53 
f 31 7 53 
f 15 31 53 
f 26 7 54 
f 12 29 54 
f 7 30 54 
f 30 12 54 
f 10 15 55 
f 20 10 55 
f 15 42 55 
f 42 20 55 
f 10 2 56 
f 15 10 56 
f 2 39 56 
f 39 15 56 
f 8 18 57 
f 27 8 57 
f 18 27 57 
f 1 17 58 
f 17 37 58 
f 37 25 58 
f 41 1 58 
f 25 49 58 
f 49 41 58 
f 4 13 59 
f 19 4 59 
f 13 40 59 
f 40 19 59 
f 16 11 60 
f 11 22 60 
f 22 16 60 
f 39 3 61 
f 18 39 61 
f 3 44 61 
f 44 18 61 
f 21 6 62 
f 30 21 62 
f 36 30 62 
f 6 49 62 
f 49 36 62 
f 24 5 63 
f 5 26 63 
f 29 24 63 
f 26 54 63 
f 54 29 63 
f 21 30 64 
f 31 21 64 
o convex_1
v -0.025446 -0.045915 -0.009588
v -0.008326 -0.031552 0.007535
v -0.008879 -0.031552 0.007535
v -0.008326 -0.069661 -0.002961
v -0.008326 -0.031552 -0.018977
v -0.018269 -0.050336 -0.026154
v -0.027106 -0.031552 -0.014556
v -0.008326 -0.071869 -0.014003
v -0.023789 -0.043707 -0.004067
v -0.019372 -0.061927 -0.010141
v -0.013298 -0.063031 -0.001308
v -0.019924 -0.043707 -0.026710
v -0.024343 -0.031552 -0.005173
v -0.025999 -0.043707 -0.014556
v -0.008326 -0.056958 -0.017871
v -0.014403 -0.068557 -0.012900
v -0.023789 -0.031552 -0.018421
v -0.010536 -0.034873 0.006978
v -0.020475 -0.059166 -0.013449
v -0.021028 -0.050336 -0.002964
v -0.012747 -0.069661 -0.006829
v -0.008879 -0.067448 -0.000752
v -0.017166 -0.050336 -0.026154
v -0.026552 -0.039290 -0.007935
v -0.021028 -0.055298 -0.005723
v -0.027106 -0.037081 -0.015105
v -0.015508 -0.064688 -0.004620
v -0.008326 -0.067448 -0.016212
v -0.009433 -0.072425 -0.008485
v -0.010536 -0.070765 -0.014556
v -0.008326 -0.035977 0.007535
v -0.023789 -0.050885 -0.014006
v -0.016613 -0.065240 -0.014006
v -0.018269 -0.044259 -0.026710
v -0.008326 -0.039290 -0.018977
v -0.026552 -0.031552 -0.016212
v -0.022133 -0.031552 -0.002964
v -0.027106 -0.031552 -0.011793
v -0.017166 -0.065240 -0.008485
v -0.021582 -0.056958 -0.009038
v -0.023789 -0.048680 -0.006279
v -0.011089 -0.065244 -0.000752
v -0.027106 -0.039290 -0.010691
v -0.014403 -0.066900 -0.015105
v -0.008326 -0.070765 -0.015109
v -0.019924 -0.044811 -0.026710
v -0.016613 -0.057510 -0.001858
v -0.011640 -0.071317 -0.011793
v -0.018821 -0.056958 -0.003517
v -0.013852 -0.031552 -0.018974
v -0.011089 -0.069661 -0.004620
v -0.008326 -0.067448 -0.000752
v -0.018821 -0.061927 -0.014006
v -0.025999 -0.031552 -0.007935
v -0.008879 -0.035977 0.007535
v -0.023789 -0.049784 -0.015105
f 78 110 120 
f 67 66 69 
f 66 68 69 
f 67 69 71 
f 69 68 72 
f 67 71 77 
f 69 72 79 
f 71 69 81 
f 82 73 84 
f 73 77 88 
f 79 72 92 
f 87 79 92 
f 72 68 93 
f 66 67 95 
f 68 66 95 
f 65 78 96 
f 80 74 97 
f 76 69 98 
f 69 87 98 
f 69 79 99 
f 87 69 99 
f 79 87 99 
f 71 81 100 
f 81 76 100 
f 90 71 100 
f 67 77 101 
f 77 73 101 
f 82 67 101 
f 73 82 101 
f 77 71 102 
f 71 90 102 
f 74 80 103 
f 85 91 103 
f 91 89 103 
f 83 74 104 
f 65 96 104 
f 96 83 104 
f 74 103 104 
f 103 89 104 
f 84 73 105 
f 88 65 105 
f 73 88 105 
f 89 84 105 
f 65 104 105 
f 104 89 105 
f 75 91 106 
f 78 65 107 
f 65 88 107 
f 90 78 107 
f 88 102 107 
f 102 90 107 
f 70 94 108 
f 94 80 108 
f 80 97 108 
f 97 70 108 
f 70 87 109 
f 92 72 109 
f 87 92 109 
f 94 70 109 
f 72 94 109 
f 87 70 110 
f 78 90 110 
f 76 98 110 
f 98 87 110 
f 100 76 110 
f 90 100 110 
f 75 82 111 
f 82 84 111 
f 72 93 112 
f 93 85 112 
f 94 72 112 
f 80 94 112 
f 103 80 112 
f 85 103 112 
f 84 89 113 
f 91 75 113 
f 89 91 113 
f 75 111 113 
f 111 84 113 
f 69 76 114 
f 81 69 114 
f 76 81 114 
f 68 86 115 
f 91 85 115 
f 93 68 115 
f 85 93 115 
f 86 106 115 
f 106 91 115 
f 86 68 116 
f 68 95 116 
f 95 86 116 
f 74 83 117 
f 83 70 117 
f 97 74 117 
f 70 97 117 
f 88 77 118 
f 77 102 118 
f 102 88 118 
f 67 82 119 
f 82 75 119 
f 95 67 119 
f 86 95 119 
f 75 106 119 
f 106 86 119 
f 70 83 120 
f 96 78 120 
f 83 96 120 
f 110 70 120 
o convex_2
v 0.017633 -0.054195 -0.010136
v 0.009348 -0.032106 0.008639
v 0.011005 -0.031552 0.008084
v -0.008326 -0.031552 -0.018972
v -0.008326 -0.069661 -0.002410
v -0.001145 -0.068554 -0.023949
v 0.018186 -0.031552 -0.017317
v -0.008326 -0.031552 0.007529
v 0.007689 -0.068554 -0.002410
v -0.008326 -0.071872 -0.014554
v 0.018186 -0.032660 0.002008
v 0.013214 -0.031552 -0.021186
v 0.012108 -0.058612 -0.020079
v 0.007139 -0.071872 -0.012347
v -0.003354 -0.066901 0.000352
v 0.020948 -0.042052 -0.012347
v 0.009348 -0.036527 0.008639
v 0.014870 -0.057509 -0.002962
v -0.003907 -0.066901 -0.023949
v -0.000039 -0.074082 -0.009033
v 0.014870 -0.051435 -0.020631
v -0.007773 -0.035420 0.008084
v 0.011558 -0.066897 -0.013451
v 0.001617 -0.068554 -0.023949
v 0.002170 -0.069661 -0.000752
v 0.004933 -0.031552 -0.021186
v 0.020395 -0.031552 -0.006277
v 0.020395 -0.044808 -0.007380
v 0.011005 -0.068004 -0.007380
v -0.003354 -0.074082 -0.012899
v 0.011558 -0.035424 0.008084
v 0.016527 -0.055852 -0.014554
v -0.007220 -0.068004 -0.018972
v 0.008795 -0.065794 -0.001307
v 0.001617 -0.036531 0.008639
v -0.006114 -0.072975 -0.006828
v 0.005483 -0.072421 -0.006828
v -0.008326 -0.065790 -0.000203
v 0.019842 -0.035973 -0.015661
v 0.003274 -0.073525 -0.012899
v 0.014870 -0.040395 0.003666
v -0.001695 -0.072421 -0.004069
v 0.017633 -0.051989 -0.004621
v 0.011005 -0.063583 -0.001859
v 0.014870 -0.060823 -0.008481
v -0.008326 -0.072975 -0.009033
v 0.020395 -0.031552 -0.011243
v 0.013767 -0.052538 -0.021186
v 0.017633 -0.031552 0.003115
v -0.008326 -0.039291 -0.018972
v 0.005483 -0.068004 -0.000752
v 0.020395 -0.042601 -0.014006
v 0.001617 -0.066901 0.000352
v -0.007220 -0.067451 -0.000203
v 0.016529 -0.037077 0.003115
v 0.014317 -0.061926 -0.013451
v 0.007139 -0.037081 0.008639
v -0.007773 -0.031552 0.008084
v -0.008326 -0.066901 -0.016765
v -0.003907 -0.068004 -0.023949
v -0.003907 -0.070211 -0.001307
v 0.008795 -0.070215 -0.013451
v 0.012108 -0.065244 -0.005173
v 0.019289 -0.049229 -0.011795
f 152 172 184 
f 124 123 127 
f 123 124 128 
f 124 125 128 
f 125 124 130 
f 124 127 132 
f 132 127 141 
f 126 139 144 
f 139 132 144 
f 133 143 144 
f 124 132 146 
f 139 124 146 
f 132 139 146 
f 127 123 147 
f 136 147 148 
f 147 131 148 
f 126 144 150 
f 123 122 151 
f 122 137 151 
f 133 141 152 
f 151 137 154 
f 137 122 155 
f 142 135 155 
f 129 145 157 
f 149 129 157 
f 134 149 157 
f 128 125 158 
f 142 128 158 
f 141 127 159 
f 144 134 160 
f 140 150 160 
f 150 144 160 
f 134 157 160 
f 157 140 160 
f 156 140 162 
f 140 157 162 
f 157 145 162 
f 121 148 163 
f 148 131 163 
f 154 129 164 
f 151 154 164 
f 138 161 164 
f 161 151 164 
f 121 163 165 
f 163 138 165 
f 125 130 166 
f 130 150 166 
f 150 140 166 
f 156 125 166 
f 140 156 166 
f 127 147 167 
f 147 136 167 
f 159 127 167 
f 136 159 167 
f 132 141 168 
f 141 133 168 
f 144 132 168 
f 133 144 168 
f 147 123 169 
f 131 147 169 
f 123 151 169 
f 130 124 170 
f 124 139 170 
f 145 129 171 
f 129 154 171 
f 154 137 171 
f 152 141 172 
f 141 159 172 
f 159 136 172 
f 135 145 173 
f 145 171 173 
f 171 137 173 
f 135 142 174 
f 158 125 174 
f 142 158 174 
f 161 138 175 
f 151 161 175 
f 163 131 175 
f 138 163 175 
f 131 169 175 
f 169 151 175 
f 143 133 176 
f 149 143 176 
f 152 121 176 
f 133 152 176 
f 165 149 176 
f 121 165 176 
f 137 155 177 
f 155 135 177 
f 135 173 177 
f 173 137 177 
f 122 123 178 
f 123 128 178 
f 128 142 178 
f 155 122 178 
f 142 155 178 
f 153 130 179 
f 130 170 179 
f 170 153 179 
f 139 126 180 
f 126 150 180 
f 150 130 180 
f 130 153 180 
f 170 139 180 
f 153 170 180 
f 145 135 181 
f 125 156 181 
f 162 145 181 
f 156 162 181 
f 135 174 181 
f 174 125 181 
f 134 144 182 
f 144 143 182 
f 149 134 182 
f 143 149 182 
f 129 149 183 
f 164 129 183 
f 138 164 183 
f 165 138 183 
f 149 165 183 
f 136 148 184 
f 148 121 184 
f 121 152 184 
f 172 136 184 
o convex_3
v 0.013214 0.001590 0.020791
v -0.003907 0.000486 -0.020082
v -0.003907 0.002695 -0.020082
v -0.012742 0.018156 0.020235
v 0.018736 0.022023 -0.005715
v -0.016607 0.022023 -0.013453
v -0.021582 0.000486 -0.004611
v 0.017078 0.022023 0.020791
v 0.019288 0.000486 -0.002406
v -0.007771 0.000486 0.020791
v 0.009345 0.022023 -0.018422
v -0.012191 0.022023 0.020791
v -0.018265 0.000486 -0.015657
v -0.010532 0.022023 -0.018422
v 0.008242 0.000486 -0.016213
v 0.019843 0.000486 0.007532
v 0.015423 0.021470 -0.014005
v -0.017162 0.022023 -0.002402
v 0.019843 0.022023 0.014161
v -0.013294 0.000486 -0.018974
v 0.019843 0.022023 -0.001302
v -0.021582 0.001038 -0.009584
v 0.004378 0.000486 -0.018974
v 0.014872 0.000486 -0.009584
v -0.000598 0.019813 -0.019526
v 0.017633 0.000486 0.013053
v -0.009981 0.006561 0.020791
v 0.017078 0.017604 0.020791
v 0.012662 0.000486 0.020791
v -0.019372 0.011528 -0.002402
v -0.017714 0.020918 -0.006823
v -0.021027 0.000486 -0.002958
v -0.020475 0.001038 -0.012901
v 0.018185 0.000486 -0.005167
v -0.016055 0.021470 -0.014553
v 0.019843 0.000486 0.000354
v -0.012742 0.020366 0.020235
v 0.014872 0.006009 0.020791
v -0.008874 0.000486 0.019683
v 0.014321 0.022023 -0.015109
v -0.012191 0.015947 0.020791
v 0.018736 0.021470 0.018026
v -0.013849 0.022023 0.014161
v -0.002800 0.004904 -0.020082
v 0.019288 0.002695 0.010293
v -0.021582 0.001590 -0.005163
v -0.011088 0.020366 -0.018422
v -0.018265 0.001590 -0.015657
v -0.013294 0.002143 -0.018974
v 0.015975 0.021470 -0.012901
f 201 224 234 
f 189 190 192 
f 191 186 193 
f 185 192 194 
f 191 193 194 
f 190 189 195 
f 192 190 196 
f 194 192 196 
f 186 191 197 
f 190 195 198 
f 193 186 199 
f 194 193 200 
f 196 190 202 
f 189 192 203 
f 187 186 204 
f 186 197 204 
f 193 189 205 
f 189 203 205 
f 203 200 205 
f 197 191 206 
f 199 186 207 
f 193 199 208 
f 199 201 208 
f 198 195 209 
f 194 200 210 
f 194 196 211 
f 192 185 212 
f 185 194 213 
f 210 185 213 
f 194 210 213 
f 202 190 215 
f 190 206 215 
f 214 202 215 
f 191 194 216 
f 206 190 217 
f 197 206 217 
f 193 208 218 
f 208 201 218 
f 190 198 219 
f 217 190 219 
f 200 193 220 
f 193 205 220 
f 205 200 220 
f 188 196 221 
f 216 188 221 
f 191 216 221 
f 185 210 222 
f 212 185 222 
f 210 212 222 
f 194 211 223 
f 216 194 223 
f 211 216 223 
f 195 189 224 
f 201 199 224 
f 207 195 224 
f 199 207 224 
f 196 188 225 
f 211 196 225 
f 188 216 225 
f 216 211 225 
f 203 192 226 
f 192 212 226 
f 196 202 227 
f 202 214 227 
f 221 196 227 
f 214 221 227 
f 186 187 228 
f 187 198 228 
f 207 186 228 
f 195 207 228 
f 209 195 228 
f 198 209 228 
f 200 203 229 
f 210 200 229 
f 212 210 229 
f 203 226 229 
f 226 212 229 
f 206 191 230 
f 215 206 230 
f 214 215 230 
f 191 221 230 
f 221 214 230 
f 219 198 231 
f 219 231 232 
f 204 197 232 
f 197 217 232 
f 217 219 232 
f 198 187 233 
f 187 204 233 
f 231 198 233 
f 232 231 233 
f 204 232 233 
f 189 193 234 
f 193 218 234 
f 218 201 234 
f 224 189 234 
o convex_4
v -0.006115 0.000486 0.025761
v 0.019843 0.022023 0.027971
v 0.019843 0.022023 0.025761
v -0.012192 0.022023 0.020791
v -0.011085 0.022023 0.030181
v 0.012110 0.000486 0.020791
v 0.011552 0.004904 0.029628
v 0.017078 0.022023 0.020791
v -0.007771 0.000486 0.020791
v 0.018733 0.017052 0.030181
v -0.009982 0.012633 0.030181
v 0.000514 0.003800 0.030181
v -0.010534 0.005457 0.026313
v 0.002722 0.000486 0.027971
v 0.019285 0.022023 0.030181
v 0.014870 0.006561 0.020791
v 0.011552 0.001590 0.026313
v -0.007219 0.004904 0.029075
v -0.012192 0.017052 0.020791
v 0.013766 0.003247 0.024105
v -0.009982 0.003800 0.023001
v -0.009982 0.003800 0.026313
v 0.018181 0.015395 0.030181
v 0.019285 0.018156 0.028524
v 0.010448 0.000486 0.025761
v 0.017078 0.018156 0.020791
v -0.002249 0.000486 0.027419
v 0.003826 0.003800 0.030181
f 257 246 262 
f 236 237 238 
f 236 238 239 
f 238 237 242 
f 240 238 242 
f 240 235 243 
f 238 240 243 
f 244 239 245 
f 244 245 246 
f 245 239 247 
f 235 240 248 
f 236 239 249 
f 239 244 249 
f 240 242 250 
f 246 245 252 
f 239 238 253 
f 238 243 253 
f 247 239 253 
f 240 250 254 
f 251 240 254 
f 253 243 255 
f 247 253 255 
f 243 235 256 
f 245 247 256 
f 235 252 256 
f 252 245 256 
f 255 243 256 
f 247 255 256 
f 244 246 257 
f 241 251 257 
f 251 254 257 
f 257 254 258 
f 237 236 258 
f 236 249 258 
f 249 244 258 
f 250 237 258 
f 254 250 258 
f 244 257 258 
f 248 240 259 
f 241 248 259 
f 240 251 259 
f 251 241 259 
f 242 237 260 
f 237 250 260 
f 250 242 260 
f 235 248 261 
f 248 246 261 
f 252 235 261 
f 246 252 261 
f 248 241 262 
f 246 248 262 
f 241 257 262 
o convex_5
v -0.010535 0.013187 0.032394
v 0.003273 0.017053 0.047856
v -0.001146 0.017053 0.047856
v -0.000042 0.004350 0.038466
v -0.001146 0.022025 0.030181
v 0.003273 0.004350 0.030181
v -0.008878 0.022025 0.043989
v -0.011088 0.022025 0.030181
v -0.007773 0.007113 0.036257
v 0.003273 0.019262 0.041779
v -0.005562 0.016501 0.046748
v -0.009983 0.011532 0.030181
v -0.002253 0.022025 0.044539
v 0.003273 0.004904 0.038466
v -0.000042 0.014843 0.047856
v 0.003273 0.008770 0.030181
v -0.001146 0.004904 0.030181
v -0.003907 0.004904 0.037914
v -0.011088 0.017053 0.035153
v -0.008325 0.019262 0.044539
v 0.003273 0.014843 0.047856
v -0.009983 0.010978 0.034601
v -0.011088 0.022025 0.036809
v -0.008325 0.007665 0.034048
v 0.003273 0.019262 0.045093
v -0.009983 0.021471 0.041779
v -0.003907 0.014291 0.046196
v -0.005562 0.005456 0.035705
v -0.002253 0.004350 0.036809
v -0.006114 0.006007 0.037362
v -0.008325 0.022025 0.044539
f 282 273 293 
f 269 267 270 
f 267 268 270 
f 264 268 272 
f 270 268 274 
f 263 270 274 
f 265 264 275 
f 267 269 275 
f 268 264 276 
f 266 268 276 
f 264 265 277 
f 265 273 277 
f 268 267 278 
f 272 268 278 
f 267 272 278 
f 274 268 279 
f 266 277 280 
f 270 263 281 
f 271 273 282 
f 276 264 283 
f 266 276 283 
f 264 277 283 
f 277 266 283 
f 263 274 284 
f 281 263 284 
f 271 282 284 
f 269 270 285 
f 270 281 285 
f 274 279 286 
f 284 274 286 
f 271 284 286 
f 264 272 287 
f 272 267 287 
f 275 264 287 
f 267 275 287 
f 282 269 288 
f 281 284 288 
f 284 282 288 
f 269 285 288 
f 285 281 288 
f 277 273 289 
f 280 277 289 
f 286 279 290 
f 271 286 290 
f 268 266 291 
f 279 268 291 
f 266 280 291 
f 280 290 291 
f 290 279 291 
f 273 271 292 
f 289 273 292 
f 280 289 292 
f 271 290 292 
f 290 280 292 
f 273 265 293 
f 265 275 293 
f 275 269 293 
f 269 282 293 
o convex_6
v 0.017081 0.013739 0.030181
v 0.006589 0.017053 0.047856
v 0.003273 0.017053 0.047856
v 0.003273 0.004904 0.037914
v 0.007694 0.022025 0.030181
v 0.016528 0.022025 0.043989
v 0.003273 0.004350 0.030181
v 0.012110 0.007665 0.035705
v 0.018739 0.022025 0.030181
v 0.006036 0.022025 0.044539
v 0.003273 0.019262 0.041779
v 0.012110 0.017053 0.046196
v 0.017081 0.013739 0.034048
v 0.003273 0.008770 0.030181
v 0.004931 0.004904 0.037914
v 0.003826 0.014843 0.047856
v 0.016528 0.019814 0.042883
v 0.018739 0.017604 0.030734
v 0.006589 0.005456 0.030181
v 0.014871 0.022025 0.045093
v 0.008797 0.015949 0.047302
v 0.009902 0.006559 0.036809
v 0.015423 0.010978 0.031840
v 0.017634 0.021471 0.040674
v 0.013766 0.009874 0.036257
v 0.013766 0.018158 0.045645
v 0.007140 0.021471 0.045645
v 0.007694 0.005456 0.035705
f 315 308 321 
f 297 296 300 
f 298 294 300 
f 294 298 302 
f 298 299 302 
f 299 298 303 
f 300 296 304 
f 296 303 304 
f 303 298 304 
f 298 300 307 
f 300 304 307 
f 304 298 307 
f 297 300 308 
f 295 296 309 
f 296 297 309 
f 297 308 309 
f 294 302 311 
f 306 294 311 
f 300 294 312 
f 299 303 313 
f 309 308 314 
f 295 309 314 
f 313 295 314 
f 301 305 315 
f 305 314 315 
f 314 308 315 
f 294 306 316 
f 312 294 316 
f 301 312 316 
f 302 299 317 
f 299 310 317 
f 310 306 317 
f 306 311 317 
f 311 302 317 
f 306 310 318 
f 301 316 318 
f 316 306 318 
f 305 301 319 
f 310 299 319 
f 299 313 319 
f 314 305 319 
f 313 314 319 
f 301 318 319 
f 318 310 319 
f 296 295 320 
f 303 296 320 
f 295 313 320 
f 313 303 320 
f 308 300 321 
f 300 312 321 
f 312 301 321 
f 301 315 321 
o convex_7
v -0.009429 0.056819 -0.004066
v -0.009429 0.044671 -0.017321
v -0.009429 0.045777 -0.017321
v -0.003355 0.062343 0.000353
v -0.006669 0.044671 0.003116
v -0.003355 0.044671 -0.017321
v -0.003907 0.061239 -0.014558
v -0.014402 0.046330 -0.011795
v -0.009982 0.044671 0.003116
v -0.003355 0.052405 0.003116
v -0.009429 0.056819 -0.014004
v -0.013849 0.044671 -0.004066
v -0.006669 0.056268 0.003116
v -0.003355 0.059028 -0.015660
v -0.006117 0.061239 -0.008481
v -0.012744 0.051854 -0.010139
v -0.003355 0.044671 -0.011243
v -0.013849 0.044671 -0.014004
v -0.011087 0.051854 -0.001855
v -0.011087 0.052405 -0.015110
v -0.003907 0.061792 0.002010
v -0.008328 0.059028 -0.007376
v -0.003355 0.062898 -0.007928
v -0.006669 0.059028 0.000906
v -0.013849 0.046881 -0.005170
v -0.012744 0.050750 -0.014004
v -0.003907 0.062898 -0.001855
v -0.007774 0.057374 -0.015110
v -0.003355 0.060688 0.003116
v -0.006117 0.045226 0.003116
v -0.011087 0.055164 -0.011243
v -0.011640 0.053510 -0.006276
v -0.009982 0.045777 0.003116
v -0.006669 0.060136 -0.012900
f 336 344 355 
f 326 323 327 
f 323 324 327 
f 323 326 330 
f 327 325 331 
f 330 326 331 
f 323 330 333 
f 330 331 334 
f 327 324 335 
f 325 327 335 
f 326 327 338 
f 327 331 338 
f 324 323 339 
f 323 333 339 
f 333 329 339 
f 324 339 341 
f 325 335 344 
f 335 328 344 
f 340 334 345 
f 322 340 345 
f 334 342 345 
f 343 322 345 
f 329 333 346 
f 337 329 346 
f 333 340 346 
f 329 337 347 
f 339 329 347 
f 332 341 347 
f 341 339 347 
f 342 325 348 
f 336 343 348 
f 325 344 348 
f 344 336 348 
f 345 342 348 
f 343 345 348 
f 332 328 349 
f 335 324 349 
f 328 335 349 
f 341 332 349 
f 324 341 349 
f 331 325 350 
f 334 331 350 
f 325 342 350 
f 342 334 350 
f 331 326 351 
f 326 338 351 
f 338 331 351 
f 343 332 352 
f 322 343 352 
f 332 347 352 
f 347 337 352 
f 340 322 353 
f 337 346 353 
f 346 340 353 
f 322 352 353 
f 352 337 353 
f 333 330 354 
f 330 334 354 
f 340 333 354 
f 334 340 354 
f 328 332 355 
f 343 336 355 
f 332 343 355 
f 344 328 355 
o convex_8
v -0.007223 0.036387 0.040672
v -0.012744 0.033624 0.003116
v -0.012744 0.035281 0.003116
v -0.001698 0.045775 0.016927
v -0.011086 0.044669 0.023000
v -0.003908 0.033624 0.025761
v -0.009431 0.046880 0.003116
v -0.007223 0.033624 0.003116
v -0.003908 0.046880 0.031834
v -0.012744 0.033624 0.027969
v -0.005565 0.033624 0.040672
v -0.005565 0.046880 0.003672
v -0.013849 0.035281 0.014718
v -0.006117 0.046880 0.032386
v -0.001698 0.046880 0.023000
v -0.008324 0.035835 0.040120
v -0.003908 0.033624 0.033494
v -0.012190 0.040252 0.025761
v -0.012190 0.042461 0.018583
v -0.004460 0.042461 0.036255
v -0.008876 0.046880 0.023548
v -0.007223 0.041908 0.036807
v -0.008324 0.033624 0.040672
v -0.001698 0.044669 0.018031
v -0.013849 0.033624 0.018031
v -0.011638 0.039702 0.003116
v -0.005565 0.041356 0.037911
v -0.012190 0.037491 0.028517
v -0.011638 0.041908 0.025761
v -0.001698 0.046880 0.016927
f 367 370 385 
f 357 358 362 
f 361 357 363 
f 357 362 363 
f 357 361 365 
f 365 361 366 
f 359 363 367 
f 363 362 367 
f 362 364 367 
f 358 357 368 
f 364 362 369 
f 367 364 370 
f 366 361 372 
f 360 362 374 
f 373 360 374 
f 368 373 374 
f 370 364 375 
f 366 372 375 
f 372 370 375 
f 362 360 376 
f 360 369 376 
f 369 362 376 
f 371 356 377 
f 365 366 378 
f 366 356 378 
f 371 365 378 
f 356 371 378 
f 361 363 379 
f 363 359 379 
f 359 370 379 
f 372 361 379 
f 370 372 379 
f 357 365 380 
f 368 357 380 
f 373 368 380 
f 365 373 380 
f 362 358 381 
f 358 368 381 
f 374 362 381 
f 368 374 381 
f 356 366 382 
f 364 369 382 
f 366 375 382 
f 375 364 382 
f 369 377 382 
f 377 356 382 
f 365 371 383 
f 373 365 383 
f 373 383 384 
f 369 360 384 
f 360 373 384 
f 377 369 384 
f 371 377 384 
f 383 371 384 
f 359 367 385 
f 370 359 385 
o convex_9
v -0.007774 0.051299 0.003116
v 0.002721 0.056822 0.020236
v 0.000511 0.056822 0.025206
v -0.003905 0.046880 0.031281
v -0.001698 0.046880 0.015823
v -0.005011 0.056822 0.020236
v -0.001146 0.056822 0.003673
v -0.008878 0.046880 0.021892
v -0.005564 0.046880 0.003116
v -0.006115 0.056270 0.003116
v -0.006115 0.047433 0.031835
v 0.002721 0.055165 0.016376
v -0.008878 0.046880 0.003116
v -0.001146 0.046880 0.020236
v -0.002251 0.056822 0.025757
v -0.007774 0.050747 0.020787
v 0.001063 0.056270 0.009748
v 0.002721 0.055716 0.019682
v -0.005564 0.056822 0.003116
v -0.008878 0.047987 0.004224
v -0.001698 0.055716 0.003116
v 0.002721 0.056822 0.014718
v -0.006115 0.054611 0.020787
f 401 396 408 
f 387 388 389 
f 388 387 391 
f 391 387 392 
f 390 389 393 
f 390 393 394 
f 394 386 395 
f 389 388 396 
f 393 389 396 
f 390 394 397 
f 386 394 398 
f 394 393 398 
f 389 390 399 
f 390 397 399 
f 388 391 400 
f 396 388 400 
f 391 396 400 
f 393 396 401 
f 397 394 402 
f 387 389 403 
f 397 387 403 
f 389 399 403 
f 399 397 403 
f 391 392 404 
f 395 391 404 
f 394 395 404 
f 395 386 405 
f 386 398 405 
f 398 393 405 
f 393 401 405 
f 401 395 405 
f 392 402 406 
f 402 394 406 
f 404 392 406 
f 394 404 406 
f 392 387 407 
f 387 397 407 
f 402 392 407 
f 397 402 407 
f 391 395 408 
f 396 391 408 
f 395 401 408 
o convex_10
v -0.000041 0.064001 0.003116
v 0.005483 0.062345 0.027971
v 0.004930 0.063450 0.027417
v -0.004459 0.056822 0.020787
v 0.005483 0.057929 0.011955
v -0.005564 0.056822 0.003116
v 0.005483 0.065107 0.003116
v 0.001063 0.056822 0.025208
v -0.001145 0.056822 0.003116
v 0.003272 0.064554 0.021891
v 0.005483 0.060689 0.003116
v -0.003354 0.059585 0.016921
v 0.005483 0.057376 0.019682
v -0.002250 0.057376 0.025208
v -0.005012 0.059032 0.003671
v 0.003272 0.062898 0.027417
v 0.002168 0.065107 0.007537
v -0.000592 0.063450 0.007537
v 0.005483 0.064554 0.022996
v 0.003825 0.056822 0.015269
v -0.003354 0.059032 0.020234
v 0.005483 0.061241 0.027971
v -0.002250 0.060689 0.018025
f 420 429 431 
f 410 413 415 
f 414 409 415 
f 412 414 416 
f 416 414 417 
f 414 415 417 
f 415 413 419 
f 413 417 419 
f 417 415 419 
f 413 410 421 
f 412 416 422 
f 409 414 423 
f 414 412 423 
f 410 411 424 
f 411 418 424 
f 415 409 425 
f 418 425 426 
f 409 423 426 
f 425 409 426 
f 411 410 427 
f 410 415 427 
f 418 411 427 
f 415 425 427 
f 425 418 427 
f 416 417 428 
f 417 413 428 
f 413 421 428 
f 421 416 428 
f 412 422 429 
f 423 412 429 
f 420 423 429 
f 424 418 429 
f 422 424 429 
f 421 410 430 
f 416 421 430 
f 422 416 430 
f 410 424 430 
f 424 422 430 
f 423 420 431 
f 418 426 431 
f 426 423 431 
f 429 418 431 
o convex_11
v 0.009349 0.022025 -0.018422
v 0.021498 0.045223 -0.007931
v 0.015422 0.045223 -0.007931
v 0.008799 0.031969 -0.026710
v 0.005483 0.045223 -0.016769
v 0.005483 0.022025 -0.010140
v 0.017631 0.022025 -0.007931
v 0.020393 0.045223 -0.014560
v 0.015977 0.032523 -0.021736
v 0.005483 0.045223 -0.010694
v 0.005483 0.022025 -0.017321
v 0.020947 0.033624 -0.010694
v 0.010454 0.022579 -0.007931
v 0.015422 0.044667 -0.017872
v 0.007140 0.029761 -0.026157
v 0.015977 0.022025 -0.013455
v 0.008799 0.030311 -0.026710
v 0.022053 0.038041 -0.007931
v 0.005483 0.038041 -0.020633
v 0.007693 0.045223 -0.017872
v 0.020947 0.040250 -0.013455
v 0.015977 0.034725 -0.021736
v 0.018736 0.028656 -0.012905
v 0.022053 0.044117 -0.009036
v 0.005483 0.029761 -0.020633
v 0.020393 0.029761 -0.008484
v 0.007693 0.031419 -0.026710
v 0.019291 0.045223 -0.015666
v 0.014317 0.022025 -0.015113
f 432 448 460 
f 434 433 436 
f 433 434 438 
f 437 432 438 
f 436 433 439 
f 434 436 441 
f 436 437 441 
f 432 437 442 
f 437 436 442 
f 438 434 444 
f 437 438 444 
f 434 441 444 
f 441 437 444 
f 432 442 446 
f 438 432 447 
f 435 440 448 
f 432 446 448 
f 433 438 449 
f 442 436 450 
f 436 439 451 
f 445 435 451 
f 440 439 452 
f 443 440 452 
f 449 443 452 
f 439 440 453 
f 440 435 453 
f 440 443 454 
f 438 447 454 
f 447 440 454 
f 439 433 455 
f 433 449 455 
f 452 439 455 
f 449 452 455 
f 446 442 456 
f 442 450 456 
f 450 446 456 
f 449 438 457 
f 443 449 457 
f 438 454 457 
f 454 443 457 
f 435 448 458 
f 448 446 458 
f 450 436 458 
f 446 450 458 
f 451 435 458 
f 436 451 458 
f 435 445 459 
f 451 439 459 
f 445 451 459 
f 439 453 459 
f 453 435 459 
f 447 432 460 
f 440 447 460 
f 448 440 460 
o convex_12
v 0.022053 0.039696 -0.004615
v 0.011558 0.022025 -0.007931
v 0.011558 0.022025 -0.007378
v 0.015426 0.045223 -0.003513
v 0.019842 0.022025 -0.000750
v 0.022053 0.037487 -0.007931
v 0.015426 0.045223 -0.000750
v 0.015978 0.045223 -0.007931
v 0.014874 0.022025 -0.000750
v 0.018186 0.022579 -0.007931
v 0.020394 0.045223 -0.000750
v 0.022053 0.044667 -0.007931
v 0.020946 0.031969 -0.000750
v 0.021500 0.045223 -0.002961
v 0.014321 0.023131 -0.001303
v 0.020394 0.029761 -0.007931
v 0.019842 0.022025 -0.001855
f 476 466 477 
f 462 463 464 
f 463 462 465 
f 464 463 467 
f 462 464 468 
f 466 462 468 
f 464 467 468 
f 463 465 469 
f 465 467 469 
f 462 466 470 
f 467 465 471 
f 468 467 471 
f 461 466 472 
f 466 468 472 
f 466 461 473 
f 465 466 473 
f 471 465 473 
f 471 473 474 
f 468 471 474 
f 472 468 474 
f 461 472 474 
f 473 461 474 
f 467 463 475 
f 463 469 475 
f 469 467 475 
f 470 466 476 
f 470 476 477 
f 465 462 477 
f 466 465 477 
f 462 470 477 
o convex_13
v 0.007140 0.026445 0.027415
v 0.022053 0.031414 0.022443
v 0.022053 0.030310 0.022443
v 0.014872 0.023682 -0.000746
v 0.017079 0.022025 0.043429
v 0.009901 0.031967 0.037354
v 0.016527 0.031967 -0.000746
v 0.006035 0.022025 0.043981
v 0.019842 0.022025 -0.000746
v 0.019290 0.031967 0.039014
v 0.007140 0.022025 0.019141
v 0.020395 0.031967 -0.000746
v 0.019842 0.022025 0.029071
v 0.014872 0.031414 0.041774
v 0.008246 0.029757 0.028519
v 0.021499 0.025891 0.013065
v 0.019842 0.030310 0.039014
v 0.007140 0.023130 0.045094
v 0.014872 0.022025 -0.000746
v 0.007140 0.025340 0.022995
v 0.008246 0.028101 0.042325
v 0.015975 0.022579 0.044533
v 0.020395 0.022579 0.000914
v 0.009901 0.031967 0.031830
v 0.022053 0.031967 0.020245
v 0.018186 0.024235 0.042325
v 0.008246 0.029757 0.034594
v 0.015975 0.031967 0.000914
v 0.007140 0.022579 0.019141
v 0.014872 0.029205 0.042877
v 0.015424 0.027547 -0.000746
v 0.017631 0.024235 0.043429
v 0.009349 0.029205 0.042325
v 0.006035 0.022579 0.043981
v 0.020395 0.023130 0.026311
v 0.008798 0.030861 0.030174
v 0.020395 0.031967 0.035698
v 0.015975 0.031967 0.041222
f 507 509 515 
f 481 484 486 
f 482 485 486 
f 484 483 487 
f 486 485 488 
f 486 484 489 
f 484 487 489 
f 482 486 490 
f 481 486 496 
f 488 481 496 
f 486 488 496 
f 478 492 497 
f 485 482 499 
f 495 485 499 
f 486 489 500 
f 490 486 500 
f 489 493 500 
f 483 484 501 
f 479 480 502 
f 489 487 502 
f 480 493 502 
f 493 489 502 
f 482 490 503 
f 490 494 503 
f 492 478 504 
f 498 483 504 
f 497 492 505 
f 501 484 505 
f 481 488 506 
f 488 485 506 
f 505 484 506 
f 497 505 506 
f 495 499 507 
f 484 481 508 
f 481 506 508 
f 506 484 508 
f 494 487 509 
f 499 482 509 
f 482 503 509 
f 503 494 509 
f 507 499 509 
f 491 483 510 
f 483 498 510 
f 498 495 510 
f 507 491 510 
f 495 507 510 
f 485 495 511 
f 478 497 511 
f 495 498 511 
f 504 478 511 
f 498 504 511 
f 506 485 511 
f 497 506 511 
f 493 480 512 
f 480 494 512 
f 494 490 512 
f 490 500 512 
f 500 493 512 
f 483 501 513 
f 504 483 513 
f 492 504 513 
f 505 492 513 
f 501 505 513 
f 480 479 514 
f 494 480 514 
f 487 494 514 
f 479 502 514 
f 502 487 514 
f 487 483 515 
f 483 491 515 
f 491 507 515 
f 509 487 515 
o convex_14
v 0.014870 0.061791 -0.009038
v 0.005483 0.045223 -0.016767
v 0.005483 0.045223 -0.010693
v 0.021500 0.045223 -0.006826
v 0.008797 0.056822 -0.021185
v 0.005483 0.065107 -0.006826
v 0.020393 0.045223 -0.014557
v 0.018738 0.054615 -0.014008
v 0.005483 0.063447 -0.014557
v 0.005483 0.047436 -0.020081
v 0.017634 0.058476 -0.006826
v 0.015977 0.045223 -0.006826
v 0.011561 0.061791 -0.015110
v 0.015977 0.045223 -0.017319
v 0.005483 0.059031 -0.006826
v 0.005483 0.056822 -0.021185
v 0.020945 0.050749 -0.009589
v 0.010456 0.064555 -0.006826
v 0.019290 0.049645 -0.015662
v 0.016529 0.057373 -0.015110
v 0.009349 0.054615 -0.021185
v 0.009904 0.064002 -0.011246
v 0.020945 0.047985 -0.012903
v 0.021500 0.048540 -0.006826
v 0.006588 0.065107 -0.009589
v 0.009904 0.056822 -0.020633
v 0.006036 0.055165 -0.021739
v 0.007693 0.047985 -0.020081
v 0.017634 0.057925 -0.010693
v 0.014870 0.060134 -0.014008
v 0.008245 0.062894 -0.015110
v 0.019842 0.054064 -0.009038
f 523 544 547 
f 518 517 519 
f 517 518 521 
f 519 517 522 
f 517 521 524 
f 517 524 525 
f 521 519 526 
f 518 519 527 
f 519 521 527 
f 522 517 529 
f 517 525 529 
f 521 518 530 
f 518 527 530 
f 527 521 530 
f 525 524 531 
f 521 526 533 
f 526 516 533 
f 522 529 534 
f 523 534 535 
f 534 529 536 
f 516 528 537 
f 533 516 537 
f 519 522 538 
f 523 532 538 
f 534 523 538 
f 522 534 538 
f 526 519 539 
f 519 538 539 
f 538 532 539 
f 524 521 540 
f 521 533 540 
f 533 537 540 
f 520 528 541 
f 535 534 541 
f 536 520 541 
f 534 536 541 
f 531 520 542 
f 525 531 542 
f 520 536 542 
f 542 536 543 
f 529 525 543 
f 536 529 543 
f 525 542 543 
f 516 526 544 
f 523 535 544 
f 544 535 545 
f 528 516 545 
f 541 528 545 
f 535 541 545 
f 516 544 545 
f 528 520 546 
f 520 531 546 
f 531 524 546 
f 537 528 546 
f 524 540 546 
f 540 537 546 
f 532 523 547 
f 526 539 547 
f 539 532 547 
f 544 526 547 
o convex_15
v 0.015977 0.057924 0.002564
v 0.005483 0.061241 -0.006826
v 0.005483 0.061241 0.002564
v 0.014870 0.045223 -0.000198
v 0.021500 0.048538 -0.006826
v 0.013766 0.062897 -0.006826
v 0.018738 0.045223 0.002564
v 0.015977 0.045223 -0.006826
v 0.006588 0.065104 0.002564
v 0.005483 0.065660 -0.006826
v 0.015977 0.060689 -0.001855
v 0.021500 0.045223 -0.002958
v 0.019290 0.052959 -0.000198
v 0.014870 0.045223 0.002564
v 0.009349 0.064552 0.002564
v 0.019842 0.054061 -0.006826
v 0.021500 0.045223 -0.006826
v 0.011006 0.064552 -0.002958
v 0.005483 0.065104 0.002564
v 0.016529 0.060135 -0.006826
v 0.017634 0.057924 -0.001304
v 0.014318 0.061793 0.000354
v 0.020393 0.051855 -0.002958
v 0.018738 0.047988 0.002564
v 0.007140 0.065660 -0.005721
f 557 566 572 
f 550 549 551 
f 552 549 553 
f 548 550 554 
f 551 549 555 
f 549 552 555 
f 554 551 555 
f 550 548 556 
f 549 550 557 
f 553 549 557 
f 554 555 559 
f 550 551 561 
f 554 550 561 
f 551 554 561 
f 556 548 562 
f 552 553 563 
f 555 552 564 
f 552 559 564 
f 559 555 564 
f 550 556 566 
f 557 550 566 
f 553 558 567 
f 563 553 567 
f 563 567 568 
f 548 560 568 
f 567 558 568 
f 558 553 569 
f 562 548 569 
f 553 565 569 
f 565 562 569 
f 548 568 569 
f 568 558 569 
f 559 552 570 
f 560 559 570 
f 552 563 570 
f 563 568 570 
f 568 560 570 
f 548 554 571 
f 554 559 571 
f 560 548 571 
f 559 560 571 
f 553 557 572 
f 556 562 572 
f 565 553 572 
f 562 565 572 
f 566 556 572 
o convex_16
v 0.008797 0.052404 0.018028
v 0.019291 0.046328 0.013061
v 0.019291 0.045223 0.013061
v 0.017633 0.045776 0.029076
v 0.011006 0.045223 0.018028
v 0.017081 0.052404 0.002564
v 0.014872 0.045223 0.002564
v 0.017081 0.052404 0.020237
v 0.012663 0.052404 0.002564
v 0.013216 0.052404 0.025757
v 0.014319 0.045223 0.027968
v 0.018738 0.045223 0.002564
v 0.018738 0.050193 0.010853
v 0.008797 0.051851 0.016367
v 0.014319 0.045223 0.003669
v 0.009902 0.050746 0.020787
v 0.014872 0.052404 0.025207
v 0.018738 0.046881 0.019684
v 0.018738 0.047434 0.002564
v 0.018186 0.051851 0.009192
v 0.011559 0.045223 0.021340
v 0.017633 0.045223 0.029076
f 590 576 594 
f 575 577 579 
f 578 573 580 
f 573 578 581 
f 578 579 581 
f 580 573 582 
f 577 575 583 
f 576 582 583 
f 574 575 584 
f 579 578 584 
f 575 579 584 
f 577 573 586 
f 573 581 586 
f 586 581 587 
f 579 577 587 
f 581 579 587 
f 577 586 587 
f 582 573 588 
f 583 582 588 
f 576 580 589 
f 582 576 589 
f 580 582 589 
f 575 574 590 
f 580 576 590 
f 574 585 590 
f 585 580 590 
f 574 584 591 
f 584 578 591 
f 585 574 591 
f 585 591 592 
f 578 580 592 
f 580 585 592 
f 591 578 592 
f 573 577 593 
f 577 583 593 
f 588 573 593 
f 583 588 593 
f 583 575 594 
f 576 583 594 
f 575 590 594 
o convex_17
v 0.008798 0.062898 0.026865
v 0.012662 0.052404 0.002564
v 0.012110 0.052957 0.002564
v 0.012662 0.062344 0.004223
v 0.017080 0.052404 0.019685
v 0.005484 0.056824 0.019132
v 0.005484 0.065107 0.002564
v 0.012110 0.052404 0.025208
v 0.017080 0.053509 0.002564
v 0.005484 0.062344 0.027971
v 0.011006 0.063450 0.022448
v 0.005484 0.060687 0.002564
v 0.008798 0.052404 0.015268
v 0.011006 0.061239 0.027417
v 0.016528 0.055720 0.011403
v 0.005484 0.064553 0.022997
v 0.009350 0.064553 0.002564
v 0.014318 0.052404 0.025208
v 0.008798 0.052404 0.019685
v 0.005484 0.060136 0.026865
v 0.014318 0.060136 0.002564
v 0.008245 0.065107 0.007535
v 0.017633 0.052404 0.008640
v 0.017080 0.052957 0.019685
v 0.005484 0.056824 0.014718
v 0.014318 0.060136 0.006983
v 0.017633 0.053509 0.009194
v 0.009902 0.064553 0.008087
v 0.008245 0.064553 0.020234
v 0.011006 0.062898 0.025208
v 0.015423 0.056824 0.017476
v 0.017080 0.052404 0.002564
v 0.005484 0.061239 0.027971
f 614 602 627 
f 596 597 601 
f 596 599 602 
f 596 601 603 
f 601 600 604 
f 600 601 606 
f 601 597 606 
f 597 596 607 
f 596 602 607 
f 606 597 607 
f 595 604 608 
f 604 595 610 
f 601 604 610 
f 603 601 611 
f 602 599 612 
f 607 602 613 
f 600 607 613 
f 604 600 614 
f 600 613 614 
f 613 602 614 
f 611 598 615 
f 603 611 615 
f 601 610 616 
f 611 601 616 
f 599 596 617 
f 612 599 618 
f 608 612 618 
f 600 606 619 
f 607 600 619 
f 606 607 619 
f 598 605 620 
f 615 598 620 
f 609 615 620 
f 603 615 621 
f 615 609 621 
f 599 617 621 
f 617 603 621 
f 609 618 621 
f 618 599 621 
f 605 598 622 
f 598 611 622 
f 611 616 622 
f 622 616 623 
f 616 610 623 
f 605 622 623 
f 623 610 624 
f 595 608 624 
f 610 595 624 
f 608 618 624 
f 605 623 624 
f 624 618 625 
f 618 609 625 
f 620 605 625 
f 609 620 625 
f 605 624 625 
f 596 603 626 
f 617 596 626 
f 603 617 626 
f 608 604 627 
f 602 612 627 
f 612 608 627 
f 604 614 627 
o convex_18
v -0.006672 0.034175 -0.021738
v -0.016611 0.022027 -0.013455
v -0.016611 0.022027 -0.010140
v -0.014401 0.044669 -0.013455
v -0.003355 0.022027 -0.010694
v -0.003355 0.044669 -0.011246
v -0.003355 0.041353 -0.020081
v -0.013297 0.038040 -0.020634
v -0.010533 0.022027 -0.018424
v -0.014954 0.043563 -0.010140
v -0.003355 0.022027 -0.016215
v -0.005565 0.044669 -0.017871
v -0.008329 0.044669 -0.010140
v -0.005565 0.031415 -0.021738
v -0.016611 0.032521 -0.011246
v -0.012743 0.035832 -0.021185
v -0.008879 0.041907 -0.020081
v -0.006672 0.022027 -0.010140
v -0.003355 0.031969 -0.020081
v -0.003355 0.041907 -0.010694
v -0.011087 0.036936 -0.021738
v -0.010533 0.044669 -0.016767
v -0.003355 0.044669 -0.017871
v -0.011087 0.035280 -0.021738
v -0.016057 0.034726 -0.012903
f 642 631 652 
f 630 629 632 
f 633 632 634 
f 632 629 636 
f 634 632 638 
f 632 636 638 
f 631 633 639 
f 633 631 640 
f 637 630 640 
f 631 637 640 
f 628 634 641 
f 638 636 641 
f 629 630 642 
f 630 637 642 
f 637 631 642 
f 629 635 643 
f 636 629 643 
f 630 632 645 
f 640 630 645 
f 634 638 646 
f 641 634 646 
f 638 641 646 
f 632 633 647 
f 633 640 647 
f 645 632 647 
f 640 645 647 
f 634 628 648 
f 628 641 648 
f 643 635 648 
f 644 634 648 
f 635 644 648 
f 635 631 649 
f 631 639 649 
f 644 635 649 
f 639 644 649 
f 633 634 650 
f 639 633 650 
f 634 644 650 
f 644 639 650 
f 641 636 651 
f 636 643 651 
f 648 641 651 
f 643 648 651 
f 635 629 652 
f 631 635 652 
f 629 642 652 
o convex_19
v -0.016057 0.036384 -0.006272
v -0.006671 0.044669 0.003116
v -0.006671 0.044669 0.000906
v -0.005013 0.022027 0.003116
v -0.006671 0.022027 -0.010140
v -0.015504 0.022027 0.003116
v -0.008879 0.044669 -0.010140
v -0.016609 0.022027 -0.010140
v -0.013848 0.044669 -0.003512
v -0.014953 0.043563 -0.010140
v -0.010536 0.043563 0.003116
v -0.006671 0.028656 -0.010140
v -0.017162 0.022581 -0.002962
v -0.015504 0.024789 0.003116
v -0.016609 0.033623 -0.010140
v -0.005013 0.022581 0.000353
v -0.017162 0.022027 -0.009586
v -0.014401 0.044669 -0.005166
v -0.014401 0.044669 -0.010140
v -0.006118 0.022027 -0.009033
v -0.011640 0.040249 0.003116
v -0.016057 0.023685 0.002009
f 666 670 674 
f 656 654 658 
f 657 656 658 
f 654 655 659 
f 659 657 660 
f 657 658 660 
f 654 659 661 
f 659 660 662 
f 658 654 663 
f 654 661 663 
f 659 655 664 
f 657 659 664 
f 658 663 666 
f 662 660 667 
f 653 662 667 
f 665 653 667 
f 655 654 668 
f 654 656 668 
f 664 655 668 
f 660 658 669 
f 658 665 669 
f 667 660 669 
f 665 667 669 
f 661 659 670 
f 662 653 670 
f 666 661 670 
f 659 662 671 
f 670 659 671 
f 662 670 671 
f 656 657 672 
f 657 664 672 
f 668 656 672 
f 664 668 672 
f 663 661 673 
f 661 666 673 
f 666 663 673 
f 653 665 674 
f 665 658 674 
f 658 666 674 
f 670 653 674 
o convex_20
v -0.001697 0.022025 -0.018976
v 0.003273 0.024234 -0.010140
v 0.002168 0.024234 -0.010140
v 0.002168 0.045223 -0.018976
v -0.003355 0.045223 -0.011247
v 0.005483 0.045223 -0.011247
v 0.005483 0.031969 -0.020635
v -0.003355 0.041356 -0.020082
v -0.003355 0.022025 -0.010693
v 0.005483 0.022025 -0.017320
v 0.005483 0.022025 -0.010140
v 0.005483 0.045223 -0.016768
v -0.003355 0.032523 -0.020082
v 0.005483 0.037487 -0.020635
v -0.003355 0.045223 -0.017320
v -0.003355 0.022025 -0.016215
v -0.000041 0.022025 -0.018976
f 684 675 691 
f 677 676 679 
f 679 676 680 
f 678 679 680 
f 677 679 683 
f 679 682 683 
f 681 680 684 
f 683 675 684 
f 683 684 685 
f 676 677 685 
f 680 676 685 
f 677 683 685 
f 684 680 685 
f 678 680 686 
f 680 681 686 
f 681 675 687 
f 682 681 687 
f 683 682 687 
f 681 682 688 
f 682 678 688 
f 678 686 688 
f 686 681 688 
f 679 678 689 
f 682 679 689 
f 678 682 689 
f 675 683 690 
f 687 675 690 
f 683 687 690 
f 675 681 691 
f 681 684 691 
o convex_21
v -0.003355 0.059580 -0.015663
v 0.005483 0.065660 -0.005721
v 0.005483 0.065660 -0.006275
v 0.005483 0.045223 -0.016768
v -0.003355 0.045223 -0.011247
v 0.005483 0.056820 -0.021187
v -0.003355 0.062897 -0.005721
v -0.003355 0.045223 -0.017319
v 0.005483 0.045223 -0.010696
v -0.000041 0.057924 -0.020633
v 0.003273 0.063445 -0.014559
v -0.002802 0.058478 -0.005721
v 0.003273 0.046882 -0.020082
v -0.003355 0.062345 -0.012903
v 0.005483 0.061239 -0.005721
v 0.001064 0.065106 -0.007379
v 0.005483 0.063445 -0.014559
v 0.000512 0.055716 -0.021187
v 0.005483 0.047438 -0.020082
v -0.001146 0.056820 -0.020082
v -0.000593 0.050194 -0.020082
v -0.000041 0.062893 -0.014559
v 0.003273 0.045223 -0.018975
v 0.002168 0.064554 -0.011247
v -0.002249 0.064001 -0.005721
f 707 705 716 
f 694 693 695 
f 694 695 697 
f 692 696 698 
f 696 692 699 
f 695 696 699 
f 695 693 700 
f 696 695 700 
f 693 698 703 
f 698 696 703 
f 696 700 703 
f 692 698 705 
f 701 692 705 
f 700 693 706 
f 693 703 706 
f 703 700 706 
f 693 694 707 
f 694 697 708 
f 697 701 708 
f 701 702 708 
f 701 697 709 
f 697 704 709 
f 697 695 710 
f 704 697 710 
f 699 692 711 
f 692 701 711 
f 701 709 711 
f 711 709 712 
f 704 699 712 
f 709 704 712 
f 699 711 712 
f 702 701 713 
f 701 705 713 
f 695 699 714 
f 699 704 714 
f 710 695 714 
f 704 710 714 
f 707 694 715 
f 705 707 715 
f 694 708 715 
f 708 702 715 
f 702 713 715 
f 713 705 715 
f 698 693 716 
f 705 698 716 
f 693 707 716 
o convex_22
v 0.016530 0.031967 0.040675
v 0.014321 0.031967 0.011401
v 0.013217 0.044670 0.012507
v 0.022053 0.035282 0.020244
v 0.021500 0.045223 0.029626
v 0.011558 0.045223 0.020791
v 0.019290 0.045223 0.011401
v 0.020946 0.031967 0.011954
v 0.013217 0.031967 0.034044
v 0.020394 0.031967 0.037360
v 0.014874 0.045223 0.029073
v 0.012665 0.031967 0.016926
v 0.014321 0.032520 0.040122
v 0.022053 0.031967 0.021898
v 0.021500 0.043012 0.031835
v 0.011558 0.045223 0.016373
v 0.019842 0.044118 0.011401
v 0.013768 0.045223 0.011401
v 0.016530 0.037491 0.036807
v 0.021500 0.045223 0.026863
v 0.021500 0.032520 0.013613
v 0.019842 0.044118 0.031282
v 0.020394 0.031967 0.011401
v 0.019842 0.032520 0.038463
v 0.011558 0.043566 0.019135
v 0.016530 0.032520 0.040675
v 0.015426 0.045223 0.029626
f 735 738 743 
f 722 721 723 
f 717 718 724 
f 718 717 725 
f 717 724 726 
f 721 722 727 
f 718 725 728 
f 725 717 729 
f 722 725 729 
f 727 722 729 
f 726 724 730 
f 726 730 731 
f 720 721 731 
f 730 720 731 
f 719 718 732 
f 722 723 732 
f 718 728 732 
f 718 723 733 
f 718 719 734 
f 723 718 734 
f 719 732 734 
f 732 723 734 
f 721 720 736 
f 723 721 736 
f 720 733 736 
f 733 723 736 
f 720 730 737 
f 730 724 737 
f 733 720 737 
f 724 733 737 
f 731 721 738 
f 724 718 739 
f 718 733 739 
f 733 724 739 
f 717 726 740 
f 726 731 740 
f 725 722 741 
f 728 725 741 
f 722 732 741 
f 732 728 741 
f 729 717 742 
f 735 729 742 
f 731 738 742 
f 738 735 742 
f 717 740 742 
f 740 731 742 
f 721 727 743 
f 727 729 743 
f 729 735 743 
f 738 721 743 
o convex_23
v 0.000512 0.065106 -0.001303
v -0.003355 0.054061 0.002010
v -0.003355 0.054061 0.003116
v 0.005483 0.061240 0.003116
v 0.005483 0.061793 -0.005721
v -0.003355 0.062897 -0.005721
v -0.003355 0.061240 0.003116
v 0.005483 0.065660 -0.005721
v 0.005483 0.065106 0.003116
v -0.003355 0.058481 -0.005721
v -0.000041 0.064002 0.003116
v -0.002802 0.054061 0.002010
v -0.002802 0.063450 -0.000198
v -0.001146 0.064554 -0.005721
v 0.002168 0.065660 -0.002407
f 751 757 758 
f 745 746 749 
f 749 746 750 
f 746 747 750 
f 747 748 751 
f 748 749 751 
f 750 747 752 
f 747 751 752 
f 745 749 753 
f 749 748 753 
f 750 752 754 
f 752 744 754 
f 746 745 755 
f 747 746 755 
f 748 747 755 
f 745 753 755 
f 753 748 755 
f 749 750 756 
f 754 744 756 
f 750 754 756 
f 751 749 757 
f 756 744 757 
f 749 756 757 
f 744 752 758 
f 752 751 758 
f 757 744 758 
o convex_24
v -0.013847 0.031415 0.003116
v -0.003355 0.023683 0.044542
v -0.005013 0.023683 0.044542
v -0.015506 0.022025 0.003116
v -0.004460 0.022025 0.004775
v -0.003908 0.033624 0.025755
v -0.012743 0.033624 0.027965
v -0.009981 0.022025 0.041772
v -0.007222 0.033624 0.003116
v -0.008328 0.033624 0.041225
v -0.014953 0.028100 0.016927
v -0.003355 0.032519 0.038459
v -0.003355 0.022025 0.014166
v -0.014401 0.033070 0.014166
v -0.003355 0.022025 0.044542
v -0.012743 0.033624 0.003116
v -0.005013 0.022025 0.003116
v -0.014953 0.024234 0.015820
v -0.009431 0.030310 0.041772
v -0.006117 0.033624 0.041225
v -0.006670 0.033070 0.003672
v -0.008880 0.023130 0.043986
v -0.011088 0.023683 0.037360
v -0.015506 0.024234 0.003116
v -0.003355 0.033070 0.031837
v -0.011088 0.022025 0.036805
v -0.004460 0.022578 0.004775
v -0.003355 0.031415 0.040673
v -0.014953 0.030310 0.014717
f 772 782 787 
f 762 763 766 
f 762 759 767 
f 765 764 767 
f 761 760 768 
f 764 765 768 
f 766 763 771 
f 770 760 771 
f 760 761 773 
f 771 760 773 
f 766 771 773 
f 767 759 774 
f 765 767 774 
f 759 772 774 
f 772 765 774 
f 763 762 775 
f 762 767 775 
f 769 762 776 
f 768 765 777 
f 768 760 778 
f 764 768 778 
f 767 764 779 
f 775 767 779 
f 761 768 780 
f 773 761 780 
f 766 773 780 
f 777 766 780 
f 768 777 780 
f 765 769 781 
f 769 776 781 
f 766 777 781 
f 777 765 781 
f 759 762 782 
f 762 769 782 
f 772 759 782 
f 771 764 783 
f 770 771 783 
f 764 778 783 
f 778 770 783 
f 762 766 784 
f 776 762 784 
f 766 781 784 
f 781 776 784 
f 771 763 785 
f 764 771 785 
f 763 775 785 
f 779 764 785 
f 775 779 785 
f 760 770 786 
f 778 760 786 
f 770 778 786 
f 769 765 787 
f 765 772 787 
f 782 769 787 
o convex_25
v -0.000041 0.031967 0.032389
v -0.003355 0.022025 0.018582
v -0.003355 0.022578 0.018582
v -0.003355 0.022025 0.044537
v -0.003355 0.032519 0.038464
v -0.000041 0.023683 0.024659
v -0.002250 0.022025 0.043985
v -0.003355 0.032519 0.030735
v -0.000593 0.028100 0.024659
v -0.000041 0.030310 0.035702
v -0.000593 0.022025 0.023557
v -0.002250 0.030861 0.040120
v -0.000041 0.026997 0.034045
v -0.003355 0.028653 0.024659
v -0.000593 0.032519 0.035148
v -0.000593 0.022025 0.027975
f 800 794 803 
f 790 789 791 
f 790 791 792 
f 791 789 794 
f 790 792 795 
f 788 793 796 
f 793 790 796 
f 795 788 796 
f 793 788 797 
f 789 790 798 
f 790 793 798 
f 794 789 798 
f 792 791 799 
f 791 794 799 
f 794 797 799 
f 793 797 800 
f 797 794 800 
f 790 795 801 
f 796 790 801 
f 795 796 801 
f 788 795 802 
f 795 792 802 
f 797 788 802 
f 792 799 802 
f 799 797 802 
f 798 793 803 
f 794 798 803 
f 793 800 803 
o convex_26
v 0.016530 0.031967 -0.000750
v 0.019290 0.045223 0.011401
v 0.014320 0.045223 0.011401
v 0.019843 0.045223 -0.000750
v 0.019843 0.031967 0.011401
v 0.020948 0.031967 -0.000750
v 0.014873 0.031967 0.011401
v 0.014873 0.045223 0.000355
v 0.020395 0.040804 0.010848
v 0.015426 0.039145 -0.000750
v 0.020948 0.035834 0.006428
v 0.020948 0.038045 -0.000750
v 0.014873 0.031967 0.009742
v 0.020948 0.032520 0.006428
v 0.014320 0.044670 0.007534
v 0.019843 0.044670 0.011401
v 0.015426 0.045223 -0.000750
f 813 811 820 
f 806 805 807 
f 805 806 808 
f 804 807 809 
f 808 804 809 
f 804 808 810 
f 808 806 810 
f 806 807 811 
f 807 804 813 
f 812 814 815 
f 809 807 815 
f 814 809 815 
f 804 810 816 
f 813 804 816 
f 811 813 816 
f 808 809 817 
f 812 808 817 
f 809 814 817 
f 814 812 817 
f 810 806 818 
f 806 811 818 
f 816 810 818 
f 811 816 818 
f 807 805 819 
f 805 808 819 
f 808 812 819 
f 812 815 819 
f 815 807 819 
f 811 807 820 
f 807 813 820 
