o convex_0
v -0.048491 -0.023223 0.000797
v -0.005673 0.016301 0.022538
v -0.005018 0.015639 0.022538
v -0.010945 0.016301 0.000797
v 0.009482 -0.025859 0.009363
v -0.055073 -0.004123 0.022538
v -0.055735 0.016297 0.000797
v -0.006328 -0.027832 0.022538
v 0.011460 -0.017293 0.000797
v -0.053095 0.016297 0.019244
v -0.018188 -0.033109 0.000797
v -0.045197 -0.023881 0.015949
v 0.008166 -0.023223 0.022538
v -0.059690 -0.004123 0.006728
v -0.028719 -0.032446 0.010025
v -0.053757 -0.013342 0.020559
v -0.005673 0.015639 0.006728
v -0.058367 0.007736 0.016605
v -0.058367 -0.008728 0.000797
v 0.006843 -0.027174 0.022538
v -0.019512 -0.026516 0.022538
v -0.054418 -0.018614 0.010025
v -0.054418 0.004437 0.022538
v -0.017534 -0.033109 0.011340
v -0.041241 -0.028490 0.004092
v -0.057712 -0.006759 0.018584
v 0.010137 -0.021907 0.001457
v -0.059029 0.007073 0.001457
v -0.056389 0.016297 0.013972
v -0.027409 -0.032446 0.000797
v -0.043881 -0.027174 0.010025
v -0.031358 -0.027837 0.017924
v -0.004357 -0.030473 0.010025
v -0.017534 0.016301 0.022538
v -0.029380 -0.023223 0.022538
v -0.018188 -0.031130 0.016605
v -0.059029 0.010367 0.007386
v -0.049808 -0.018614 0.019244
v -0.056389 -0.013999 0.014632
v -0.050462 -0.022565 0.011995
v -0.053095 0.011683 0.021218
v -0.051124 -0.013342 0.021878
v -0.057051 0.007073 0.019901
v -0.059690 0.005100 0.010680
v -0.005673 0.016301 0.008703
v -0.003695 -0.027832 0.000797
v -0.038609 -0.029152 0.011340
v -0.053757 -0.017293 0.000797
v -0.058367 -0.002150 0.018584
v -0.037285 -0.029810 0.000797
v 0.011460 -0.017293 0.001457
v 0.008166 -0.027174 0.018584
v -0.053757 -0.017293 0.016605
v -0.051124 -0.021907 0.004751
v -0.057712 0.013003 0.000797
v 0.011460 -0.019929 0.000797
v -0.025431 -0.033109 0.004751
v -0.006328 0.015639 0.005411
v -0.059690 0.002459 0.003434
v -0.053095 -0.009390 0.022538
v -0.059690 -0.003465 0.010025
v 0.009482 -0.024543 0.014632
v -0.056389 0.012345 0.018584
v -0.045852 -0.025859 0.003434
f 40 54 64 
f 3 2 6 
f 4 1 7 
f 3 6 8 
f 1 4 9 
f 1 9 11 
f 3 8 13 
f 7 1 19 
f 13 8 20 
f 8 6 21 
f 6 2 23 
f 16 6 26 
f 1 11 30 
f 11 5 33 
f 24 11 33 
f 20 24 33 
f 2 4 34 
f 4 7 34 
f 23 2 34 
f 7 29 34 
f 29 10 34 
f 21 6 35 
f 32 21 35 
f 20 8 36 
f 8 21 36 
f 15 24 36 
f 24 20 36 
f 21 32 36 
f 32 15 36 
f 18 29 37 
f 12 32 38 
f 32 35 38 
f 14 19 39 
f 19 22 39 
f 16 26 39 
f 31 12 40 
f 12 38 40 
f 23 34 41 
f 34 10 41 
f 16 38 42 
f 38 35 42 
f 6 23 43 
f 23 41 43 
f 18 37 44 
f 2 3 45 
f 4 2 45 
f 3 9 45 
f 9 17 45 
f 5 11 46 
f 11 9 46 
f 27 5 46 
f 25 15 47 
f 12 31 47 
f 31 25 47 
f 32 12 47 
f 15 32 47 
f 19 1 48 
f 22 19 48 
f 26 6 49 
f 6 43 49 
f 43 18 49 
f 18 44 49 
f 15 25 50 
f 1 30 50 
f 30 15 50 
f 9 3 51 
f 3 13 51 
f 13 20 52 
f 33 5 52 
f 20 33 52 
f 38 16 53 
f 39 22 53 
f 16 39 53 
f 22 40 53 
f 40 38 53 
f 40 22 54 
f 48 1 54 
f 22 48 54 
f 7 19 55 
f 19 28 55 
f 29 7 55 
f 28 37 55 
f 37 29 55 
f 5 27 56 
f 46 9 56 
f 27 46 56 
f 9 51 56 
f 11 24 57 
f 24 15 57 
f 30 11 57 
f 15 30 57 
f 9 4 58 
f 17 9 58 
f 4 45 58 
f 45 17 58 
f 19 14 59 
f 28 19 59 
f 37 28 59 
f 14 44 59 
f 44 37 59 
f 6 16 60 
f 35 6 60 
f 16 42 60 
f 42 35 60 
f 14 39 61 
f 39 26 61 
f 44 14 61 
f 26 49 61 
f 49 44 61 
f 51 13 62 
f 52 5 62 
f 13 52 62 
f 5 56 62 
f 56 51 62 
f 10 29 63 
f 29 18 63 
f 41 10 63 
f 18 43 63 
f 43 41 63 
f 25 31 64 
f 31 40 64 
f 1 50 64 
f 50 25 64 
f 54 1 64 
o convex_1
v -0.029386 0.016301 -0.021601
v -0.010944 0.041995 -0.016329
v -0.010944 0.041995 -0.018964
v 0.016072 0.016301 -0.025555
v 0.016072 0.016301 -0.005134
v -0.055079 0.016963 -0.003816
v -0.000400 0.037380 -0.003814
v -0.036630 0.036723 -0.014355
v -0.027408 0.040015 -0.003816
v 0.015410 0.029475 -0.013042
v -0.016871 0.037380 -0.023576
v -0.045189 0.026185 -0.015012
v 0.016072 0.028819 -0.003814
v 0.016072 0.022232 -0.024235
v -0.047829 0.028162 -0.003816
v -0.049145 0.016301 -0.012380
v -0.001061 0.038700 -0.018964
v -0.033997 0.032111 -0.020283
v -0.022798 0.041336 -0.018304
v -0.020158 0.016301 -0.023578
v -0.003694 0.034746 -0.024235
v -0.012260 0.041336 -0.003814
v -0.009628 0.016301 -0.003814
v -0.049145 0.026185 -0.010405
v -0.037946 0.016301 -0.018964
v -0.033997 0.036064 -0.018304
v -0.055079 0.016301 -0.005134
v -0.022136 0.041336 -0.003816
v 0.014094 0.020914 -0.025555
v -0.028070 0.020258 -0.022258
v -0.032681 0.038039 -0.003816
v 0.012777 0.031452 -0.010403
v -0.003694 0.040015 -0.016329
v -0.044534 0.031452 -0.011062
v -0.016209 0.040677 -0.021599
v 0.016072 0.023552 -0.003814
v -0.032681 0.038698 -0.015012
v -0.024769 0.036064 -0.022258
v -0.051123 0.021573 -0.010405
v -0.003694 0.037380 -0.022260
v -0.043218 0.030793 -0.014355
v -0.051123 0.024868 -0.005793
v -0.036630 0.027503 -0.019624
v -0.041902 0.033426 -0.009745
v 0.008822 0.033429 -0.015670
v -0.017533 0.041995 -0.013697
v -0.006326 0.040015 -0.005134
v -0.024114 0.041336 -0.015670
v -0.024114 0.038698 -0.020941
v 0.016072 0.024209 -0.021601
v -0.026754 0.031452 -0.022258
v -0.035313 0.032770 -0.019624
v 0.001571 0.020255 -0.024895
v -0.016871 0.041995 -0.019624
f 112 110 118 
f 65 68 69 
f 69 68 77 
f 77 68 78 
f 65 69 80 
f 68 65 84 
f 77 71 86 
f 79 70 86 
f 80 69 87 
f 86 70 87 
f 77 86 87 
f 65 80 89 
f 80 76 89 
f 80 87 91 
f 87 70 91 
f 73 86 92 
f 78 68 93 
f 75 85 93 
f 85 78 93 
f 84 65 94 
f 65 89 94 
f 79 86 95 
f 86 73 95 
f 71 77 96 
f 77 74 96 
f 96 81 97 
f 67 66 97 
f 81 67 97 
f 71 96 97 
f 85 75 99 
f 69 77 100 
f 87 69 100 
f 77 87 100 
f 90 72 101 
f 83 90 101 
f 72 95 101 
f 95 73 101 
f 76 80 103 
f 88 76 103 
f 80 91 103 
f 91 88 103 
f 67 81 104 
f 81 78 104 
f 78 85 104 
f 99 67 104 
f 85 99 104 
f 76 88 105 
f 72 90 105 
f 88 98 105 
f 98 72 105 
f 70 79 106 
f 91 70 106 
f 88 91 106 
f 98 88 106 
f 79 98 106 
f 89 76 107 
f 82 94 107 
f 94 89 107 
f 95 72 108 
f 79 95 108 
f 98 79 108 
f 72 98 108 
f 96 74 109 
f 81 96 109 
f 66 67 110 
f 86 66 110 
f 92 86 110 
f 66 86 111 
f 86 71 111 
f 97 66 111 
f 71 97 111 
f 73 92 112 
f 101 73 112 
f 83 101 112 
f 92 110 112 
f 90 83 113 
f 83 99 113 
f 99 75 113 
f 102 90 113 
f 75 102 113 
f 74 77 114 
f 77 78 114 
f 78 81 114 
f 109 74 114 
f 81 109 114 
f 75 84 115 
f 94 82 115 
f 84 94 115 
f 82 102 115 
f 102 75 115 
f 102 82 116 
f 90 102 116 
f 76 105 116 
f 105 90 116 
f 107 76 116 
f 82 107 116 
f 68 84 117 
f 84 75 117 
f 93 68 117 
f 75 93 117 
f 67 99 118 
f 99 83 118 
f 110 67 118 
f 83 112 118 
o convex_2
v 0.049670 -0.021909 0.043619
v 0.048354 -0.004780 0.060748
v 0.046379 -0.004780 0.060748
v 0.054939 -0.004780 0.048232
v 0.053623 -0.019931 0.049552
v 0.041765 -0.021909 0.050868
v 0.045059 -0.021909 0.056136
v 0.048354 -0.004780 0.053500
v 0.056259 -0.010053 0.050868
v 0.048354 -0.010712 0.060089
v 0.054939 -0.018614 0.046257
v 0.046379 -0.021250 0.045598
v 0.043084 -0.019931 0.056795
v 0.052964 -0.021909 0.046257
v 0.046379 -0.017295 0.058770
v 0.055597 -0.005439 0.051527
v 0.046379 -0.004780 0.056795
v 0.052964 -0.004780 0.048893
v 0.041765 -0.019931 0.054159
v 0.042426 -0.021250 0.049552
v 0.054939 -0.015318 0.050868
v 0.055597 -0.012030 0.046914
v 0.048354 -0.017955 0.056795
v 0.049670 -0.008734 0.059430
v 0.050987 -0.021250 0.043619
f 140 129 143 
f 121 120 122 
f 124 119 125 
f 121 122 126 
f 120 121 128 
f 119 124 130 
f 124 125 131 
f 125 119 132 
f 123 125 132 
f 129 123 132 
f 128 121 133 
f 121 131 133 
f 131 125 133 
f 122 120 134 
f 127 122 134 
f 121 126 135 
f 122 119 136 
f 126 122 136 
f 119 130 136 
f 130 126 136 
f 131 121 137 
f 124 131 137 
f 121 135 137 
f 135 124 137 
f 130 124 138 
f 126 130 138 
f 124 135 138 
f 135 126 138 
f 123 129 139 
f 129 127 139 
f 122 127 140 
f 127 129 140 
f 125 123 141 
f 133 125 141 
f 128 133 141 
f 139 128 141 
f 123 139 141 
f 120 128 142 
f 134 120 142 
f 127 134 142 
f 139 127 142 
f 128 139 142 
f 119 122 143 
f 132 119 143 
f 129 132 143 
f 122 140 143 
o convex_3
v 0.007507 -0.019269 -0.015010
v 0.010802 -0.015976 0.000797
v 0.016072 0.016298 -0.005133
v 0.016072 -0.017292 -0.021598
v 0.007507 0.016298 -0.020282
v 0.016072 0.016298 -0.025555
v 0.007507 0.016298 -0.007109
v 0.016072 -0.018612 0.000797
v 0.010802 -0.013341 -0.024237
v 0.007507 -0.021247 0.000797
v 0.016072 -0.021247 -0.011066
v 0.012777 0.016298 -0.025555
v 0.015413 -0.009387 -0.024892
v 0.007507 -0.021247 -0.012379
v 0.009484 -0.015976 -0.022255
v 0.007507 -0.016634 0.000797
v 0.010802 0.016298 -0.005791
v 0.016072 -0.013999 -0.024237
v 0.016072 -0.021247 -0.007109
v 0.008826 -0.015976 -0.020940
v 0.011462 0.005758 -0.024892
v 0.016072 -0.016634 0.000797
v 0.010143 -0.016634 -0.022255
f 152 161 166 
f 148 146 149 
f 146 147 149 
f 148 144 150 
f 146 148 150 
f 147 146 151 
f 150 144 153 
f 151 145 153 
f 147 151 154 
f 148 149 155 
f 152 155 156 
f 155 149 156 
f 153 144 157 
f 154 153 157 
f 147 154 157 
f 148 152 158 
f 157 144 158 
f 145 146 159 
f 153 145 159 
f 150 153 159 
f 146 150 160 
f 159 146 160 
f 150 159 160 
f 149 147 161 
f 152 156 161 
f 156 149 161 
f 151 153 162 
f 154 151 162 
f 153 154 162 
f 144 148 163 
f 158 144 163 
f 148 158 163 
f 152 148 164 
f 148 155 164 
f 155 152 164 
f 146 145 165 
f 145 151 165 
f 151 146 165 
f 147 157 166 
f 158 152 166 
f 157 158 166 
f 161 147 166 
o convex_4
v -0.031360 0.038700 -0.003814
v -0.055076 0.016301 -0.003814
v -0.056396 0.016301 0.006728
v -0.005669 0.016301 0.022538
v -0.010282 0.016301 -0.003814
v -0.049147 0.022891 0.016608
v -0.011603 0.040677 0.001458
v -0.005669 0.022232 0.022538
v -0.008305 0.038700 -0.003814
v -0.037289 0.036064 0.005413
v -0.052439 0.016301 0.019241
v -0.049147 0.028162 0.002776
v -0.030705 0.036064 0.007386
v -0.006329 0.016301 0.006073
v -0.052439 0.024211 0.011995
v -0.050463 0.025527 -0.003814
v -0.020823 0.040677 0.002776
v -0.005669 0.030134 0.012651
v -0.020168 0.041995 -0.003151
v -0.043873 0.028162 0.013311
v -0.039921 0.035405 0.001458
v -0.047170 0.029473 0.009362
v -0.053755 0.022891 0.006728
v -0.055731 0.017619 0.014632
v -0.032681 0.038700 0.002116
v -0.016871 0.016301 0.022538
v -0.008966 0.020255 -0.003814
v -0.005669 0.026185 0.008707
v -0.012258 0.039359 0.004092
v -0.051118 0.017619 0.019241
v -0.011603 0.041336 -0.003814
v -0.040581 0.034085 -0.002494
v -0.052439 0.021575 0.015947
v -0.054415 0.018937 -0.003814
v -0.006329 0.022232 0.022538
v -0.005669 0.016301 0.010675
v -0.045850 0.028824 0.011995
v -0.033997 0.036721 0.006070
v -0.047170 0.030134 0.002776
v -0.021484 0.041336 0.001458
v -0.016871 0.017619 0.022538
f 201 196 207 
f 169 168 170 
f 168 167 171 
f 170 168 171 
f 171 167 175 
f 169 170 177 
f 170 171 180 
f 167 168 182 
f 174 170 184 
f 175 173 184 
f 176 187 188 
f 181 178 189 
f 178 182 189 
f 169 177 190 
f 189 169 190 
f 181 189 190 
f 185 167 191 
f 167 187 191 
f 187 176 191 
f 170 174 192 
f 177 170 192 
f 171 175 193 
f 180 171 193 
f 175 180 193 
f 180 175 194 
f 184 170 194 
f 175 184 194 
f 173 183 195 
f 183 174 195 
f 184 173 195 
f 174 184 195 
f 175 167 197 
f 173 175 197 
f 167 185 197 
f 185 173 197 
f 167 182 198 
f 187 167 198 
f 190 177 199 
f 181 190 199 
f 196 172 199 
f 177 196 199 
f 168 169 200 
f 182 168 200 
f 169 189 200 
f 189 182 200 
f 174 183 201 
f 183 179 201 
f 186 172 201 
f 179 186 201 
f 192 174 201 
f 172 196 201 
f 170 180 202 
f 194 170 202 
f 180 194 202 
f 172 186 203 
f 188 181 203 
f 176 188 203 
f 199 172 203 
f 181 199 203 
f 179 183 204 
f 186 179 204 
f 191 176 204 
f 176 203 204 
f 203 186 204 
f 178 181 205 
f 182 178 205 
f 181 188 205 
f 188 187 205 
f 198 182 205 
f 187 198 205 
f 183 173 206 
f 173 185 206 
f 185 191 206 
f 204 183 206 
f 191 204 206 
f 177 192 207 
f 196 177 207 
f 192 201 207 
o convex_5
v 0.074046 -0.012034 -0.015671
v 0.045718 -0.033759 -0.009745
v 0.046381 -0.035742 -0.014352
v 0.045718 0.005102 -0.020284
v 0.066141 0.005102 0.002115
v 0.046381 -0.029811 0.002115
v 0.064163 0.005102 -0.024894
v 0.058895 -0.034426 -0.024233
v 0.063506 -0.024537 0.002115
v 0.045718 0.005102 -0.001842
v 0.049012 -0.026520 -0.024894
v 0.062186 -0.035084 -0.016330
v 0.071409 0.004440 -0.021598
v 0.068775 -0.021905 -0.024233
v 0.072066 -0.003470 -0.005133
v 0.069432 -0.027174 -0.016330
v 0.068115 -0.014008 0.001454
v 0.072726 0.005102 -0.010406
v 0.056258 -0.029811 0.002115
v 0.048355 -0.037720 -0.016988
v 0.056258 0.005102 -0.024894
v 0.061526 -0.022563 -0.025555
v 0.047698 -0.034426 -0.022256
v 0.045718 -0.023884 0.002115
v 0.071409 -0.018610 -0.009087
v 0.055601 -0.037720 -0.016330
v 0.045718 -0.023884 -0.019623
v 0.064823 -0.032447 -0.022256
v 0.072066 -0.018610 -0.020942
v 0.047698 -0.034426 -0.005791
v 0.062186 0.005102 0.002115
v 0.074046 -0.002150 -0.017649
v 0.049012 -0.017294 -0.024894
v 0.068115 0.000487 0.002115
v 0.071409 -0.009397 -0.022917
v 0.073386 -0.008077 -0.009087
v 0.056918 -0.037058 -0.021598
v 0.066798 -0.028494 -0.010406
v 0.050332 -0.035742 -0.023575
v 0.060209 -0.034426 -0.011062
v 0.054941 -0.020585 -0.025555
v 0.062186 -0.031127 -0.024894
v 0.059552 -0.028490 0.002115
v 0.072726 -0.018610 -0.014352
v 0.074046 0.000487 -0.013033
v 0.072726 0.005102 -0.018962
v 0.068115 -0.027174 -0.022917
v 0.047698 -0.026520 -0.023575
v 0.073386 -0.009397 -0.020284
v 0.054283 -0.031789 -0.024894
v 0.068775 -0.022563 -0.006452
v 0.045718 -0.033759 -0.005133
v 0.070749 0.004440 -0.004475
v 0.056918 -0.035084 -0.009745
v 0.066798 -0.016636 -0.024894
v 0.066141 -0.019269 0.002115
v 0.066798 -0.031127 -0.017649
v 0.068775 -0.010055 0.001454
v 0.061526 -0.035742 -0.020284
v 0.072066 -0.012034 -0.006452
v 0.070092 -0.025858 -0.018962
v 0.068115 0.005102 -0.023575
v 0.047698 -0.037058 -0.020284
v 0.064163 -0.031789 -0.011720
f 264 245 271 
f 211 212 214 
f 212 213 216 
f 211 209 217 
f 212 211 217 
f 214 212 225 
f 216 213 226 
f 211 214 228 
f 213 212 231 
f 217 209 231 
f 210 209 234 
f 209 211 234 
f 230 210 234 
f 226 213 237 
f 227 233 237 
f 212 217 238 
f 231 212 238 
f 217 231 238 
f 211 228 240 
f 212 216 241 
f 236 221 242 
f 233 227 244 
f 230 218 246 
f 215 244 246 
f 233 219 247 
f 228 214 248 
f 214 229 248 
f 218 240 248 
f 240 228 248 
f 229 221 249 
f 235 215 249 
f 216 226 250 
f 245 216 250 
f 226 247 250 
f 232 223 251 
f 236 208 251 
f 208 243 251 
f 225 222 252 
f 208 239 252 
f 222 243 252 
f 243 208 252 
f 214 225 253 
f 225 252 253 
f 252 239 253 
f 221 236 254 
f 249 221 254 
f 235 249 254 
f 218 230 255 
f 234 211 255 
f 230 234 255 
f 211 240 255 
f 240 218 255 
f 208 236 256 
f 239 208 256 
f 242 220 256 
f 236 242 256 
f 220 253 256 
f 253 239 256 
f 215 246 257 
f 246 218 257 
f 218 248 257 
f 248 229 257 
f 249 215 257 
f 229 249 257 
f 223 232 258 
f 216 245 258 
f 245 223 258 
f 209 210 259 
f 210 227 259 
f 231 209 259 
f 213 231 259 
f 237 213 259 
f 227 237 259 
f 225 212 260 
f 222 225 260 
f 212 241 260 
f 241 222 260 
f 226 237 261 
f 237 233 261 
f 247 226 261 
f 233 247 261 
f 229 214 262 
f 221 229 262 
f 242 221 262 
f 232 224 263 
f 241 216 263 
f 216 258 263 
f 258 232 263 
f 223 245 264 
f 222 241 265 
f 263 224 265 
f 241 263 265 
f 219 233 266 
f 215 235 266 
f 244 215 266 
f 233 244 266 
f 264 219 266 
f 235 264 266 
f 224 232 267 
f 243 222 267 
f 232 251 267 
f 251 243 267 
f 222 265 267 
f 265 224 267 
f 251 223 268 
f 236 251 268 
f 235 254 268 
f 254 236 268 
f 264 235 268 
f 223 264 268 
f 220 242 269 
f 214 253 269 
f 253 220 269 
f 262 214 269 
f 242 262 269 
f 227 210 270 
f 210 230 270 
f 244 227 270 
f 230 246 270 
f 246 244 270 
f 247 219 271 
f 245 250 271 
f 250 247 271 
f 219 264 271 
o convex_6
v 0.060867 0.018936 -0.005133
v 0.038475 0.011691 -0.026872
v 0.038475 0.018934 -0.026872
v 0.034518 0.018934 0.000139
v 0.072727 0.005104 -0.011064
v 0.035180 0.005102 -0.002497
v 0.056914 0.024205 -0.022259
v 0.064162 0.005104 -0.024895
v 0.067454 0.005104 0.000139
v 0.034518 0.026183 -0.007770
v 0.034518 0.005102 -0.022259
v 0.067454 0.016957 -0.020281
v 0.043745 0.022230 0.000139
v 0.052964 0.026183 -0.020283
v 0.058234 0.020253 -0.025553
v 0.037155 0.024863 -0.019625
v 0.066795 0.017618 -0.012383
v 0.071407 0.006423 -0.020942
v 0.058234 0.024205 -0.015670
v 0.064162 0.011693 0.000139
v 0.037155 0.005102 -0.025553
v 0.034518 0.016959 -0.019625
v 0.071407 0.010374 -0.012383
v 0.034518 0.023546 0.000139
v 0.048353 0.024205 -0.007109
v 0.063504 0.018276 -0.024236
v 0.050990 0.024205 -0.023578
v 0.068116 0.011693 -0.005133
v 0.043745 0.026183 -0.020283
v 0.061529 0.022888 -0.019622
v 0.055597 0.018278 0.000139
v 0.060867 0.005104 0.000139
v 0.060209 0.005762 -0.025553
v 0.043745 0.019594 -0.026872
v 0.058892 0.022228 -0.009747
v 0.034518 0.005102 -0.003156
v 0.037817 0.020909 -0.025553
v 0.072727 0.005104 -0.018306
v 0.052306 0.025521 -0.014353
v 0.034518 0.026183 -0.011061
v 0.070749 0.012349 -0.016986
v 0.064162 0.020911 -0.015670
v 0.068116 0.005104 -0.023578
v 0.042425 0.010372 -0.026872
v 0.063504 0.018276 -0.007111
v 0.070090 0.005762 -0.003817
v 0.068774 0.012349 -0.022259
v 0.037155 0.020909 -0.024895
v 0.035838 0.025521 -0.005133
v 0.035838 0.007739 -0.024895
v 0.068116 0.016957 -0.015670
v 0.055597 0.021571 -0.025553
v 0.039792 0.021571 -0.025553
v 0.053623 0.016301 -0.026211
v 0.062846 0.015643 -0.002497
f 299 316 326 
f 277 276 280 
f 275 281 282 
f 275 280 284 
f 284 280 291 
f 276 277 292 
f 277 282 292 
f 282 281 293 
f 281 275 295 
f 275 284 295 
f 286 278 297 
f 279 286 297 
f 285 278 298 
f 291 280 299 
f 294 288 299 
f 281 285 300 
f 285 298 300 
f 278 285 301 
f 285 290 301 
f 297 278 301 
f 283 297 301 
f 284 291 302 
f 275 277 303 
f 280 275 303 
f 277 280 303 
f 286 279 304 
f 279 292 304 
f 273 274 305 
f 296 284 306 
f 302 272 306 
f 284 302 306 
f 277 275 307 
f 282 277 307 
f 275 282 307 
f 276 292 309 
f 294 276 309 
f 285 281 310 
f 290 285 310 
f 306 290 310 
f 296 306 310 
f 293 281 311 
f 281 300 311 
f 300 287 311 
f 309 289 312 
f 294 309 312 
f 283 301 313 
f 301 290 313 
f 290 306 313 
f 292 279 314 
f 279 297 314 
f 289 309 314 
f 309 292 314 
f 292 273 315 
f 304 292 315 
f 273 305 315 
f 299 288 316 
f 306 272 316 
f 288 313 316 
f 313 306 316 
f 280 276 317 
f 276 294 317 
f 299 280 317 
f 294 299 317 
f 297 283 318 
f 283 312 318 
f 312 289 318 
f 314 297 318 
f 289 314 318 
f 308 274 319 
f 287 308 319 
f 293 311 319 
f 311 287 319 
f 281 295 320 
f 295 284 320 
f 284 296 320 
f 310 281 320 
f 296 310 320 
f 274 273 321 
f 273 292 321 
f 292 282 321 
f 282 293 321 
f 319 274 321 
f 293 319 321 
f 288 294 322 
f 312 283 322 
f 294 312 322 
f 313 288 322 
f 283 313 322 
f 278 286 323 
f 298 278 323 
f 286 305 323 
f 323 305 324 
f 287 300 324 
f 300 298 324 
f 305 274 324 
f 274 308 324 
f 308 287 324 
f 298 323 324 
f 286 304 325 
f 305 286 325 
f 304 315 325 
f 315 305 325 
f 291 299 326 
f 272 302 326 
f 302 291 326 
f 316 272 326 
o convex_7
v 0.067458 0.005761 0.000139
v 0.051647 0.020913 0.008042
v 0.051647 0.020913 0.003433
v 0.050329 0.014323 0.000139
v 0.063503 0.005102 0.010021
v 0.063503 0.012350 0.008042
v 0.050329 0.018276 0.010021
v 0.058894 0.016299 0.000139
v 0.061526 0.005102 0.000139
v 0.066140 0.005761 0.010021
v 0.050329 0.020252 0.000139
v 0.060210 0.016299 0.004752
v 0.050329 0.016299 0.008042
v 0.050988 0.020252 0.010021
v 0.066799 0.005102 0.009361
v 0.062844 0.013007 0.002116
v 0.066140 0.008397 0.007385
v 0.060869 0.014323 0.008702
f 340 336 344 
f 327 330 334 
f 330 327 335 
f 331 330 335 
f 333 331 336 
f 328 329 337 
f 330 333 337 
f 329 334 337 
f 334 330 337 
f 329 328 338 
f 334 329 338 
f 330 331 339 
f 333 330 339 
f 331 333 339 
f 333 336 340 
f 328 337 340 
f 337 333 340 
f 335 327 341 
f 331 335 341 
f 336 331 341 
f 327 334 342 
f 338 332 342 
f 334 338 342 
f 332 336 343 
f 341 327 343 
f 336 341 343 
f 327 342 343 
f 342 332 343 
f 336 332 344 
f 338 328 344 
f 332 338 344 
f 328 340 344 
o convex_8
v 0.004213 -0.005442 0.055474
v 0.010143 -0.006758 0.055474
v 0.010143 -0.010051 0.055474
v -0.008961 -0.003463 0.037031
v 0.008165 -0.021909 0.037031
v -0.007644 -0.012030 0.037694
v -0.001714 -0.003463 0.037031
v 0.010143 -0.016638 0.037031
v 0.008823 -0.003463 0.053499
v -0.001056 -0.018612 0.037694
v 0.008165 -0.012030 0.054157
v 0.006848 -0.003463 0.058113
v -0.010280 -0.006101 0.037694
v 0.010143 -0.021250 0.039669
v 0.009483 -0.014659 0.051524
v 0.006188 -0.007419 0.056792
v -0.007644 -0.012030 0.037031
v -0.008961 -0.003463 0.039010
v -0.001714 -0.014659 0.041646
v 0.004871 -0.003463 0.056792
v 0.006848 -0.021250 0.038352
f 358 359 365 
f 349 348 351 
f 349 351 352 
f 346 347 352 
f 346 352 353 
f 351 348 353 
f 352 351 353 
f 347 346 356 
f 346 353 356 
f 353 348 356 
f 349 352 358 
f 352 347 358 
f 355 354 359 
f 347 355 359 
f 358 347 359 
f 355 347 360 
f 347 356 360 
f 345 357 360 
f 357 350 360 
f 348 349 361 
f 349 354 361 
f 354 350 361 
f 350 357 361 
f 357 348 361 
f 356 348 362 
f 348 357 362 
f 350 354 363 
f 354 355 363 
f 360 350 363 
f 355 360 363 
f 357 345 364 
f 360 356 364 
f 345 360 364 
f 356 362 364 
f 362 357 364 
f 354 349 365 
f 349 358 365 
f 359 354 365 
o convex_9
v 0.041105 -0.033767 0.025834
v 0.012121 -0.018615 0.035055
v 0.012121 -0.018615 0.034396
v 0.010802 -0.025862 0.031760
v 0.016072 -0.022569 0.022538
v 0.044399 -0.028496 0.034396
v 0.035175 -0.024545 0.022538
v 0.029248 -0.031789 0.034396
v 0.026613 -0.033107 0.022538
v 0.025953 -0.020594 0.035055
v 0.041761 -0.033107 0.034396
v 0.015416 -0.027178 0.022538
v 0.010143 -0.023886 0.035055
v 0.039126 -0.030472 0.022538
v 0.010143 -0.021252 0.029784
v 0.029908 -0.023228 0.022538
v 0.039126 -0.033767 0.031100
v 0.039126 -0.033767 0.022538
v 0.043736 -0.030472 0.029784
v 0.010143 -0.018615 0.033735
v 0.045059 -0.031130 0.034396
v 0.010802 -0.025862 0.029122
v 0.025953 -0.025862 0.035055
f 376 386 388 
f 370 372 374 
f 373 369 374 
f 368 367 375 
f 371 372 375 
f 370 374 377 
f 369 373 378 
f 375 367 378 
f 374 372 379 
f 370 377 380 
f 372 370 381 
f 368 375 381 
f 375 372 381 
f 373 374 382 
f 376 373 382 
f 366 376 382 
f 374 379 383 
f 366 382 383 
f 382 374 383 
f 372 371 384 
f 379 372 384 
f 366 383 384 
f 383 379 384 
f 367 368 385 
f 378 367 385 
f 370 380 385 
f 380 378 385 
f 368 381 385 
f 381 370 385 
f 371 375 386 
f 376 366 386 
f 384 371 386 
f 366 384 386 
f 374 369 387 
f 377 374 387 
f 369 378 387 
f 380 377 387 
f 378 380 387 
f 373 376 388 
f 378 373 388 
f 375 378 388 
f 386 375 388 
o convex_10
v 0.010143 -0.012029 0.054158
v 0.020024 -0.025201 0.035055
v 0.025952 -0.025201 0.035055
v 0.011461 -0.017954 0.035055
v 0.010804 -0.007417 0.052840
v 0.025952 -0.020590 0.035055
v 0.010143 -0.023224 0.036376
v 0.016731 -0.018614 0.047571
v 0.022000 -0.019272 0.042303
v 0.010143 -0.017954 0.035055
v 0.016072 -0.020590 0.044936
v 0.010804 -0.008077 0.054817
v 0.010804 -0.015322 0.051523
v 0.020683 -0.023883 0.039669
v 0.026613 -0.021248 0.035717
v 0.010804 -0.023883 0.035055
v 0.024636 -0.024541 0.037694
v 0.012780 -0.013346 0.052840
v 0.010143 -0.007417 0.052840
f 400 393 407 
f 391 390 392 
f 391 392 394 
f 392 393 394 
f 392 390 398 
f 393 392 398 
f 395 389 398 
f 389 395 401 
f 395 399 401 
f 399 396 401 
f 399 395 402 
f 396 399 402 
f 391 394 403 
f 394 393 403 
f 393 400 403 
f 400 397 403 
f 398 390 404 
f 395 398 404 
f 390 402 404 
f 402 395 404 
f 390 391 405 
f 397 396 405 
f 402 390 405 
f 396 402 405 
f 391 403 405 
f 403 397 405 
f 396 397 406 
f 400 389 406 
f 397 400 406 
f 389 401 406 
f 401 396 406 
f 398 389 407 
f 393 398 407 
f 389 400 407 
o convex_11
v -0.026093 0.009711 0.023197
v -0.034656 -0.003463 0.022538
v -0.019504 -0.003463 0.022538
v -0.019504 -0.002144 0.027808
v -0.019504 0.012349 0.022538
v -0.020164 0.002467 0.027808
v -0.033994 0.001809 0.023197
v -0.029383 -0.003463 0.025173
v -0.033336 0.003126 0.022538
v -0.019504 0.009054 0.025173
v -0.020824 -0.003463 0.027149
f 411 415 418 
f 410 409 412 
f 411 410 412 
f 413 408 414 
f 413 414 415 
f 409 410 415 
f 411 413 415 
f 414 409 415 
f 408 412 416 
f 412 409 416 
f 409 414 416 
f 414 408 416 
f 412 408 417 
f 411 412 417 
f 408 413 417 
f 413 411 417 
f 410 411 418 
f 415 410 418 
o convex_12
v -0.005670 0.020913 0.024516
v -0.019504 -0.003463 0.022538
v -0.019504 0.012347 0.022538
v -0.001058 -0.003463 0.048890
v -0.000398 -0.003463 0.022538
v -0.001058 0.022231 0.022538
v -0.000398 0.004445 0.047572
v -0.018183 -0.001486 0.031107
v -0.015550 0.017618 0.023201
v -0.016865 0.008401 0.029128
v -0.000398 0.019595 0.026492
v -0.019504 -0.003463 0.029128
v -0.001058 0.004445 0.047572
v -0.001058 0.007742 0.044278
v -0.001058 0.001150 0.048890
v -0.000398 -0.003463 0.048890
v -0.016865 0.014324 0.025174
v -0.016865 0.004445 0.031107
v -0.019504 0.005762 0.027150
v -0.010280 0.020251 0.023201
v -0.004352 0.022231 0.023201
v -0.000398 0.019595 0.022538
v -0.010280 0.020251 0.022538
f 438 439 441 
f 420 421 423 
f 422 420 423 
f 423 421 424 
f 425 423 429 
f 421 420 430 
f 420 422 430 
f 422 426 430 
f 425 429 432 
f 431 425 432 
f 427 431 432 
f 426 422 433 
f 425 431 433 
f 422 423 434 
f 423 425 434 
f 433 422 434 
f 425 433 434 
f 427 421 435 
f 431 427 435 
f 428 431 435 
f 431 428 436 
f 426 433 436 
f 433 431 436 
f 421 430 437 
f 430 426 437 
f 435 421 437 
f 428 435 437 
f 426 436 437 
f 436 428 437 
f 432 419 438 
f 427 432 438 
f 429 424 439 
f 419 432 439 
f 432 429 439 
f 438 419 439 
f 423 424 440 
f 424 429 440 
f 429 423 440 
f 424 421 441 
f 421 427 441 
f 427 438 441 
f 439 424 441 
o convex_13
v 0.002238 0.000491 0.053499
v 0.012778 0.007737 0.053499
v 0.012778 0.007078 0.053499
v 0.000261 0.007078 0.037031
v 0.002896 -0.003463 0.045597
v -0.000398 0.007737 0.045597
v 0.008825 -0.003463 0.057451
v 0.007505 0.006419 0.056792
v -0.000398 -0.003463 0.049547
v 0.012778 0.007078 0.050208
v -0.000398 -0.003463 0.042304
v 0.006190 -0.003463 0.058113
v 0.008825 -0.003463 0.054157
v -0.000398 0.007737 0.037031
v 0.010141 0.007737 0.056134
v -0.000398 0.005102 0.048231
v 0.006190 0.003783 0.057451
v 0.000261 -0.003463 0.042304
v 0.010141 0.007078 0.046914
v 0.008166 0.001808 0.058113
f 449 458 461 
f 446 448 450 
f 443 444 451 
f 444 448 451 
f 446 450 452 
f 450 447 452 
f 442 450 453 
f 450 448 453 
f 448 446 454 
f 446 451 454 
f 451 448 454 
f 447 443 455 
f 443 451 455 
f 445 452 455 
f 452 447 455 
f 443 447 456 
f 447 449 456 
f 449 447 457 
f 450 442 457 
f 447 450 457 
f 442 453 458 
f 449 457 458 
f 457 442 458 
f 451 446 459 
f 452 445 459 
f 446 452 459 
f 455 451 460 
f 445 455 460 
f 459 445 460 
f 451 459 460 
f 444 443 461 
f 448 444 461 
f 453 448 461 
f 443 456 461 
f 456 449 461 
f 458 453 461 
o convex_14
v 0.035834 0.029478 0.018584
v 0.027931 0.027501 0.007385
v 0.027931 0.028159 0.007385
v 0.023319 0.025526 0.017265
v 0.044400 0.024866 0.021219
v 0.037153 0.024866 0.008704
v 0.037153 0.029478 0.008704
v 0.023981 0.030136 0.012000
v 0.028593 0.028159 0.022538
v 0.028593 0.024866 0.022538
v 0.043738 0.027501 0.022538
v 0.024639 0.024866 0.011340
v 0.023981 0.029478 0.008704
v 0.029908 0.024866 0.007385
v 0.037811 0.028159 0.008045
v 0.034518 0.030136 0.015948
v 0.030568 0.029478 0.019901
v 0.028593 0.030136 0.008704
v 0.023981 0.026843 0.008704
v 0.044400 0.024866 0.022538
f 472 471 481 
f 469 465 470 
f 470 465 471 
f 467 466 471 
f 470 471 472 
f 471 465 473 
f 467 471 473 
f 464 463 474 
f 465 469 474 
f 463 464 475 
f 467 473 475 
f 466 467 476 
f 464 468 476 
f 472 466 476 
f 468 472 476 
f 475 464 476 
f 467 475 476 
f 472 468 477 
f 462 472 477 
f 469 470 478 
f 472 462 478 
f 470 472 478 
f 477 469 478 
f 462 477 478 
f 468 464 479 
f 464 474 479 
f 474 469 479 
f 477 468 479 
f 469 477 479 
f 473 465 480 
f 474 463 480 
f 465 474 480 
f 475 473 480 
f 463 475 480 
f 471 466 481 
f 466 472 481 
o convex_15
v 0.050988 -0.027179 0.043622
v 0.029248 -0.031130 0.034396
v 0.029248 -0.028497 0.034396
v 0.042422 -0.021909 0.055476
v 0.050988 -0.021909 0.042963
v 0.042422 -0.032450 0.034396
v 0.037154 -0.029814 0.046253
v 0.045058 -0.027838 0.034396
v 0.043079 -0.021909 0.047569
v 0.045058 -0.022569 0.055476
v 0.048349 -0.029814 0.040987
v 0.052306 -0.021909 0.046911
v 0.047692 -0.029814 0.035717
v 0.029907 -0.027838 0.034396
v 0.043079 -0.025204 0.053499
v 0.036495 -0.027838 0.047569
v 0.035179 -0.031791 0.039010
v 0.041102 -0.021909 0.053499
v 0.040452 -0.029155 0.047569
v 0.041102 -0.032450 0.036375
v 0.050329 -0.024545 0.039668
v 0.029907 -0.031791 0.035059
v 0.047033 -0.031130 0.038352
v 0.047692 -0.021909 0.043622
f 495 490 505 
f 483 484 487 
f 487 484 489 
f 485 486 490 
f 486 485 493 
f 491 482 493 
f 485 491 493 
f 487 489 494 
f 486 489 495 
f 489 484 495 
f 482 491 496 
f 491 485 496 
f 492 482 496 
f 484 483 497 
f 496 485 497 
f 488 496 497 
f 485 490 499 
f 495 484 499 
f 490 495 499 
f 484 497 499 
f 497 485 499 
f 496 488 500 
f 492 496 500 
f 488 498 501 
f 500 488 501 
f 489 486 502 
f 493 482 502 
f 486 493 502 
f 482 494 502 
f 494 489 502 
f 483 487 503 
f 497 483 503 
f 488 497 503 
f 498 488 503 
f 487 501 503 
f 501 498 503 
f 482 492 504 
f 494 482 504 
f 487 494 504 
f 492 500 504 
f 501 487 504 
f 500 501 504 
f 490 486 505 
f 486 495 505 
o convex_16
v 0.049672 0.006419 0.056136
v 0.052963 -0.004780 0.048890
v 0.052304 0.005761 0.045596
v 0.056259 0.005761 0.048890
v 0.046377 -0.004780 0.060748
v 0.046377 0.005761 0.053500
v 0.050331 -0.004780 0.058772
v 0.055598 -0.004780 0.048890
v 0.047037 -0.004780 0.055475
v 0.049013 0.001149 0.060089
v 0.056259 -0.000827 0.050868
v 0.046377 0.006419 0.057453
v 0.055598 0.006419 0.044937
v 0.048354 0.006419 0.050210
v 0.056259 -0.000168 0.046913
f 518 509 520 
f 510 507 512 
f 512 507 513 
f 508 507 514 
f 507 510 514 
f 510 511 514 
f 509 506 515 
f 510 512 515 
f 515 512 516 
f 512 513 516 
f 509 515 516 
f 511 510 517 
f 515 506 517 
f 510 515 517 
f 506 509 518 
f 517 506 518 
f 517 518 519 
f 508 514 519 
f 514 511 519 
f 511 517 519 
f 518 508 519 
f 507 508 520 
f 513 507 520 
f 509 516 520 
f 516 513 520 
f 508 518 520 
o convex_17
v 0.043742 0.013006 0.050206
v 0.056259 0.007079 0.047574
v 0.055600 0.009056 0.048231
v 0.050328 0.015643 0.039008
v 0.046377 0.015643 0.054159
v 0.045719 0.006419 0.054818
v 0.052962 0.006419 0.044939
v 0.048355 0.006419 0.057454
v 0.053622 0.015643 0.044279
v 0.043083 0.015643 0.052843
v 0.047036 0.014983 0.042303
v 0.052962 0.014983 0.039008
v 0.047696 0.010373 0.057454
v 0.045061 0.007738 0.056795
v 0.049013 0.006419 0.048888
v 0.055600 0.006419 0.044939
v 0.044402 0.014983 0.046256
v 0.045061 0.011689 0.056795
f 534 533 538 
f 522 523 528 
f 526 527 528 
f 523 522 529 
f 524 525 529 
f 525 523 529 
f 525 524 530 
f 524 527 531 
f 527 524 532 
f 529 522 532 
f 524 529 532 
f 523 525 533 
f 528 523 533 
f 521 526 534 
f 526 528 534 
f 530 521 534 
f 528 533 534 
f 527 526 535 
f 531 527 535 
f 522 528 536 
f 528 527 536 
f 532 522 536 
f 527 532 536 
f 526 521 537 
f 521 530 537 
f 530 524 537 
f 524 531 537 
f 535 526 537 
f 531 535 537 
f 525 530 538 
f 533 525 538 
f 530 534 538 
o convex_18
v 0.039130 0.026181 0.039665
v 0.053623 0.016303 0.044277
v 0.053623 0.015643 0.044277
v 0.045060 0.026181 0.022538
v 0.039130 0.022889 0.023197
v 0.043085 0.015643 0.052839
v 0.052304 0.015643 0.038349
v 0.050329 0.022889 0.037696
v 0.045718 0.017619 0.052839
v 0.039130 0.027501 0.022538
v 0.045718 0.026841 0.029128
v 0.039130 0.020914 0.044933
v 0.045718 0.015643 0.042955
v 0.041766 0.024206 0.044933
v 0.043743 0.022889 0.022538
v 0.050987 0.022230 0.035056
v 0.040449 0.022889 0.046908
v 0.043085 0.015643 0.048230
v 0.052962 0.016303 0.038349
v 0.045718 0.015643 0.054160
v 0.044402 0.027501 0.023197
v 0.050329 0.015643 0.038349
v 0.047035 0.026181 0.031106
v 0.039791 0.027501 0.029128
v 0.045060 0.023546 0.022538
f 542 557 563 
f 541 544 545 
f 540 546 547 
f 543 539 548 
f 539 543 550 
f 545 544 551 
f 547 546 552 
f 548 542 553 
f 543 548 553 
f 546 540 554 
f 539 550 555 
f 550 544 555 
f 547 552 555 
f 552 539 555 
f 550 543 556 
f 544 550 556 
f 543 551 556 
f 551 544 556 
f 540 541 557 
f 541 545 557 
f 554 540 557 
f 542 554 557 
f 541 540 558 
f 544 541 558 
f 540 547 558 
f 555 544 558 
f 547 555 558 
f 542 548 559 
f 554 542 559 
f 551 543 560 
f 545 551 560 
f 553 545 560 
f 543 553 560 
f 549 539 561 
f 552 546 561 
f 539 552 561 
f 546 554 561 
f 559 549 561 
f 554 559 561 
f 548 539 562 
f 539 549 562 
f 559 548 562 
f 549 559 562 
f 553 542 563 
f 545 553 563 
f 557 545 563 
o convex_19
v -0.055074 -0.015974 -0.003817
v -0.005010 0.016301 -0.008426
v -0.005010 0.000486 0.000797
v -0.012259 -0.027832 -0.021598
v -0.049147 0.016301 -0.012377
v -0.017531 -0.032445 0.000797
v -0.055735 0.016301 0.000797
v -0.005671 0.016301 -0.024237
v -0.035314 -0.029153 -0.018307
v -0.005010 -0.026516 -0.015013
v -0.042558 -0.027177 0.000797
v -0.030703 0.009712 -0.021598
v -0.010943 0.016301 0.000797
v -0.005010 -0.027177 0.000797
v -0.021481 -0.034426 -0.015670
v -0.043880 -0.024540 -0.015011
v -0.023459 -0.010706 -0.022916
v -0.059024 -0.002811 0.000797
v -0.037291 -0.031790 -0.011720
v -0.037947 0.016301 -0.018966
v -0.053096 -0.013338 -0.008429
v -0.055735 0.013665 -0.005133
v -0.010943 -0.021903 -0.022919
v -0.027414 -0.032445 0.000797
v -0.014893 -0.033105 -0.015670
v -0.020826 0.016301 -0.023578
v -0.025436 -0.031129 -0.020282
v -0.045852 -0.026516 -0.008429
v -0.052441 -0.019271 0.000797
v -0.010943 -0.000830 -0.024237
v -0.033336 -0.011361 -0.020282
v -0.005010 0.015641 -0.023578
v -0.026753 -0.034426 -0.015011
v -0.040586 0.001802 -0.017645
v -0.008965 -0.021903 -0.021598
v -0.057713 -0.002150 -0.003158
v -0.008304 -0.029808 -0.015013
v -0.010282 -0.030469 -0.001180
v -0.035970 -0.031129 -0.016329
v -0.058368 0.009707 0.000136
v -0.051124 -0.020582 -0.008429
v -0.022142 0.001147 -0.023578
v -0.053757 0.015641 -0.007767
v -0.024775 -0.023224 -0.021598
v -0.034653 -0.027177 -0.018966
v -0.045197 -0.026516 -0.011720
v -0.057052 -0.012022 0.000797
v -0.056391 -0.011361 -0.004476
v -0.012920 -0.022564 -0.022919
v -0.009626 -0.027832 -0.020282
v -0.038608 -0.029153 0.000797
v -0.022803 -0.033766 -0.017648
v -0.026753 -0.034426 -0.013036
v -0.053096 -0.019271 -0.003158
v -0.005010 -0.025195 -0.015670
v -0.008965 -0.009390 -0.023578
v -0.055735 0.016301 -0.003158
v -0.049147 0.012344 -0.012377
v -0.058368 0.003783 -0.001842
v -0.030047 0.016301 -0.021598
v -0.012259 -0.013998 -0.023578
v -0.014237 -0.031129 -0.018966
v -0.010282 0.014981 -0.024237
v -0.055735 -0.004127 -0.005792
f 568 621 627 
f 565 568 570 
f 569 566 570 
f 568 565 571 
f 565 566 573 
f 569 570 574 
f 566 565 576 
f 570 566 576 
f 565 570 576 
f 566 569 577 
f 573 566 577 
f 574 570 581 
f 568 571 583 
f 569 574 587 
f 569 578 588 
f 583 571 589 
f 582 574 591 
f 574 581 592 
f 591 574 592 
f 575 580 594 
f 583 575 594 
f 571 565 595 
f 565 573 595 
f 568 583 597 
f 594 579 597 
f 583 594 597 
f 573 577 600 
f 588 600 601 
f 577 569 601 
f 569 588 601 
f 600 577 601 
f 579 572 602 
f 572 590 602 
f 596 582 602 
f 581 570 603 
f 584 579 604 
f 580 575 605 
f 575 589 605 
f 599 585 606 
f 572 579 608 
f 590 572 608 
f 579 594 608 
f 594 580 608 
f 580 607 608 
f 607 590 608 
f 582 591 609 
f 579 602 609 
f 602 582 609 
f 604 579 609 
f 591 604 609 
f 592 581 610 
f 581 599 611 
f 604 564 611 
f 584 604 611 
f 564 610 611 
f 610 581 611 
f 586 567 612 
f 567 590 612 
f 607 580 612 
f 590 607 612 
f 567 586 613 
f 586 598 613 
f 573 600 613 
f 574 582 614 
f 587 574 614 
f 582 587 614 
f 588 578 615 
f 578 596 615 
f 602 590 615 
f 596 602 615 
f 578 569 616 
f 569 587 616 
f 587 582 616 
f 596 578 616 
f 582 596 616 
f 591 592 617 
f 564 604 617 
f 604 591 617 
f 610 564 617 
f 592 610 617 
f 595 573 618 
f 598 595 618 
f 573 613 618 
f 613 598 618 
f 593 571 619 
f 571 595 619 
f 598 586 619 
f 595 598 619 
f 570 568 620 
f 603 570 620 
f 585 603 620 
f 568 606 620 
f 606 585 620 
f 579 584 621 
f 568 597 621 
f 597 579 621 
f 599 581 622 
f 585 599 622 
f 581 603 622 
f 603 585 622 
f 575 583 623 
f 589 575 623 
f 583 589 623 
f 580 605 624 
f 605 593 624 
f 586 612 624 
f 612 580 624 
f 593 619 624 
f 619 586 624 
f 590 567 625 
f 600 588 625 
f 567 613 625 
f 613 600 625 
f 588 615 625 
f 615 590 625 
f 589 571 626 
f 571 593 626 
f 605 589 626 
f 593 605 626 
f 606 568 627 
f 599 606 627 
f 611 599 627 
f 584 611 627 
f 621 584 627 
o convex_20
v 0.015412 0.024207 -0.002496
v 0.000920 0.036724 -0.003155
v 0.001580 0.036065 0.001456
v -0.002373 0.030793 0.001456
v 0.015412 0.029478 0.002115
v -0.003692 0.036065 -0.003814
v 0.015412 0.029478 -0.003814
v 0.010800 0.024868 0.002115
v 0.013435 0.024868 -0.003814
v -0.001055 0.035405 0.002115
v 0.002237 0.030793 -0.003814
v 0.014095 0.030793 0.002115
v 0.015412 0.025525 0.002115
v 0.016072 0.029478 -0.003155
v 0.004214 0.035405 -0.003814
v -0.002373 0.030793 0.002115
f 635 637 643 
f 630 629 633 
f 634 628 636 
f 633 634 636 
f 635 631 636 
f 628 635 636 
f 630 633 637 
f 635 632 637 
f 631 633 638 
f 636 631 638 
f 633 636 638 
f 629 630 639 
f 630 637 639 
f 637 632 639 
f 635 628 640 
f 632 635 640 
f 628 634 641 
f 639 632 641 
f 640 628 641 
f 632 640 641 
f 633 629 642 
f 634 633 642 
f 629 639 642 
f 641 634 642 
f 639 641 642 
f 633 631 643 
f 631 635 643 
f 637 633 643 
o convex_21
v -0.005667 0.030136 0.008706
v 0.014752 0.027500 0.008044
v 0.014094 0.026839 0.011999
v -0.005667 0.016960 0.021876
v 0.010800 0.024210 0.002777
v 0.012115 0.022892 0.022538
v 0.002238 0.035407 0.002777
v 0.011460 0.018278 0.020559
v -0.003690 0.022892 0.022538
v -0.003032 0.029475 0.002777
v -0.003032 0.033428 0.008706
v 0.014752 0.024867 0.002115
v 0.014752 0.030136 0.002115
v 0.010800 0.024210 0.021876
v 0.014094 0.028818 0.010021
v -0.001714 0.034748 0.002115
v -0.005667 0.030136 0.013314
v 0.012115 0.018939 0.022538
v -0.005667 0.026839 0.007389
v 0.004215 0.016960 0.021876
v -0.005667 0.022231 0.022538
v 0.000920 0.035407 0.004094
v -0.003032 0.030791 0.002115
v 0.012775 0.026183 0.017264
v -0.005667 0.016960 0.022538
v 0.014094 0.024210 0.002777
v 0.004215 0.024210 0.021876
f 654 660 670 
f 645 655 656 
f 652 649 657 
f 646 645 658 
f 645 656 658 
f 656 650 658 
f 644 654 659 
f 656 655 659 
f 650 656 659 
f 644 647 660 
f 654 644 660 
f 645 646 661 
f 646 649 661 
f 649 652 661 
f 655 645 661 
f 651 655 661 
f 647 644 662 
f 648 647 662 
f 653 648 662 
f 647 648 663 
f 651 661 663 
f 660 647 664 
f 652 660 664 
f 661 652 664 
f 654 657 665 
f 658 650 665 
f 650 659 665 
f 659 654 665 
f 648 653 666 
f 655 648 666 
f 644 659 666 
f 659 655 666 
f 662 644 666 
f 653 662 666 
f 649 646 667 
f 657 649 667 
f 646 658 667 
f 665 657 667 
f 658 665 667 
f 647 663 668 
f 663 661 668 
f 664 647 668 
f 661 664 668 
f 648 655 669 
f 655 651 669 
f 663 648 669 
f 651 663 669 
f 652 657 670 
f 657 654 670 
f 660 652 670 
o convex_22
v 0.027930 -0.024544 -0.017649
v 0.023977 -0.018614 0.002115
v 0.031883 0.005102 -0.003156
v 0.016072 0.005102 -0.024894
v 0.031222 0.005102 -0.022917
v 0.016072 -0.018614 0.000796
v 0.031883 -0.027836 -0.003817
v 0.016072 0.005102 -0.005791
v 0.016072 -0.016637 -0.022256
v 0.027930 -0.017295 -0.024233
v 0.016072 -0.021906 -0.009745
v 0.031883 -0.024544 0.002115
v 0.031883 -0.018614 -0.018304
v 0.028588 0.005102 -0.025555
v 0.027930 -0.027836 -0.011720
v 0.022662 0.005102 -0.003817
v 0.023320 -0.013342 -0.024894
v 0.031883 -0.027178 -0.011720
v 0.031883 0.005102 -0.020942
v 0.028588 -0.021245 -0.022256
v 0.016072 -0.015980 0.000796
v 0.031883 -0.019930 0.002115
v 0.027269 -0.023883 0.002115
v 0.030563 -0.028497 -0.006452
v 0.016072 -0.002147 -0.024894
v 0.016072 -0.019272 0.000138
v 0.021345 -0.018614 0.002115
v 0.026610 -0.004123 -0.025555
v 0.025293 -0.018614 -0.024233
v 0.016072 -0.013342 -0.023575
v 0.016072 -0.017295 -0.021598
v 0.018050 0.004441 -0.004475
v 0.025954 -0.020591 -0.022917
v 0.016072 -0.021906 -0.008426
v 0.028588 0.005102 -0.003156
v 0.029246 -0.016637 -0.022917
v 0.028588 -0.000170 -0.025555
f 706 680 707 
f 674 673 675 
f 673 674 678 
f 674 676 678 
f 676 674 679 
f 676 679 681 
f 677 673 682 
f 673 677 683 
f 674 675 684 
f 673 678 686 
f 683 677 688 
f 685 671 688 
f 675 673 689 
f 673 683 689 
f 683 675 689 
f 688 671 690 
f 683 688 690 
f 678 676 691 
f 673 672 692 
f 682 673 692 
f 672 682 692 
f 682 672 693 
f 677 682 693 
f 688 677 694 
f 685 688 694 
f 677 693 694 
f 679 674 695 
f 676 681 696 
f 693 676 696 
f 694 693 696 
f 672 673 697 
f 691 676 697 
f 686 691 697 
f 693 672 697 
f 676 693 697 
f 674 684 698 
f 680 687 698 
f 695 674 698 
f 687 695 698 
f 687 680 699 
f 680 690 699 
f 679 695 700 
f 695 687 700 
f 699 679 700 
f 687 699 700 
f 681 679 701 
f 671 685 701 
f 685 681 701 
f 686 678 702 
f 678 691 702 
f 691 686 702 
f 690 671 703 
f 679 699 703 
f 699 690 703 
f 701 679 703 
f 671 701 703 
f 681 685 704 
f 685 694 704 
f 696 681 704 
f 694 696 704 
f 673 686 705 
f 697 673 705 
f 686 697 705 
f 675 683 706 
f 690 680 706 
f 683 690 706 
f 684 675 707 
f 698 684 707 
f 680 698 707 
f 675 706 707 
o convex_23
v 0.039129 -0.033101 -0.020939
v 0.032544 -0.019931 0.002115
v 0.031883 -0.019931 0.002115
v 0.036497 0.005102 -0.025553
v 0.045718 0.005102 -0.001842
v 0.045718 -0.029155 0.002115
v 0.045057 0.003778 -0.022916
v 0.031883 0.005102 -0.003156
v 0.031883 -0.029810 -0.013691
v 0.045718 -0.028491 -0.016985
v 0.031883 0.005102 -0.020279
v 0.035836 -0.025197 -0.024894
v 0.041104 -0.023221 -0.024894
v 0.041765 -0.035744 -0.015671
v 0.031883 -0.027172 -0.001839
v 0.041765 0.004442 -0.026213
v 0.045718 -0.033761 -0.005791
v 0.045718 0.005102 -0.020942
v 0.033861 -0.026516 -0.022916
v 0.041765 -0.033101 -0.021599
v 0.034520 -0.032449 -0.012376
v 0.033861 -0.025856 0.002115
v 0.045718 -0.024541 -0.018965
v 0.045718 -0.023885 0.002115
v 0.035836 -0.015977 -0.025553
v 0.031883 -0.018612 -0.018965
v 0.043081 -0.033101 -0.005133
v 0.034520 0.005102 -0.002499
v 0.043739 0.002459 -0.024894
v 0.042423 -0.035080 -0.018308
v 0.039129 -0.029810 -0.024234
v 0.034520 -0.032449 -0.015014
v 0.039788 -0.019271 -0.025553
v 0.037155 -0.003470 -0.026213
v 0.034520 -0.008736 -0.024234
v 0.033202 -0.029810 -0.005791
v 0.040446 -0.035080 -0.013034
v 0.034520 -0.028491 -0.022259
v 0.039129 -0.035080 -0.016328
v 0.043739 -0.029155 0.002115
f 729 734 747 
f 710 709 712 
f 709 710 713 
f 712 711 715 
f 710 715 716 
f 712 713 717 
f 715 711 718 
f 716 715 718 
f 710 716 722 
f 717 713 724 
f 711 712 725 
f 712 717 725 
f 723 711 725 
f 714 723 725 
f 713 710 729 
f 710 722 729 
f 725 717 730 
f 714 725 730 
f 717 727 730 
f 727 720 730 
f 712 709 731 
f 709 713 731 
f 713 712 731 
f 719 726 732 
f 716 718 733 
f 726 716 733 
f 718 726 733 
f 710 712 735 
f 715 710 735 
f 712 715 735 
f 723 714 736 
f 720 723 736 
f 714 730 736 
f 730 720 736 
f 717 724 737 
f 724 721 737 
f 708 727 737 
f 727 717 737 
f 727 708 738 
f 720 727 738 
f 728 716 739 
f 723 720 740 
f 719 732 740 
f 738 719 740 
f 720 738 740 
f 711 723 741 
f 732 711 741 
f 723 740 741 
f 740 732 741 
f 718 711 742 
f 726 718 742 
f 711 732 742 
f 732 726 742 
f 722 716 743 
f 716 728 743 
f 729 722 743 
f 734 729 743 
f 734 743 744 
f 721 724 744 
f 724 734 744 
f 743 728 744 
f 716 726 745 
f 726 719 745 
f 719 738 745 
f 738 708 745 
f 708 739 745 
f 739 716 745 
f 708 737 746 
f 737 721 746 
f 739 708 746 
f 728 739 746 
f 721 744 746 
f 744 728 746 
f 724 713 747 
f 713 729 747 
f 734 724 747 
o convex_24
v 0.043082 -0.031132 0.010020
v 0.031225 -0.019933 0.002774
v 0.031225 -0.019933 0.002115
v 0.055600 -0.025204 0.002115
v 0.045716 -0.029813 0.002115
v 0.025297 -0.023227 0.010679
v 0.055600 -0.026519 0.008043
v 0.025955 -0.023227 0.002115
v 0.025955 -0.027179 0.009362
v 0.055600 -0.030472 0.002774
v 0.031883 -0.023227 0.010679
v 0.047034 -0.030472 0.010679
v 0.024636 -0.019933 0.002115
v 0.055600 -0.030472 0.007384
v 0.025297 -0.026519 0.010679
v 0.045716 -0.026519 0.010679
v 0.045058 -0.030472 0.004092
v 0.040442 -0.028496 0.002115
v 0.055600 -0.025204 0.004092
v 0.051644 -0.031132 0.004752
v 0.055600 -0.029156 0.008703
f 763 759 768 
f 750 749 751 
f 750 751 752 
f 750 752 755 
f 752 751 757 
f 751 754 757 
f 749 753 758 
f 754 749 758 
f 758 753 759 
f 749 750 760 
f 753 749 760 
f 750 755 760 
f 757 754 761 
f 759 748 761 
f 755 756 762 
f 756 748 762 
f 748 759 762 
f 759 753 762 
f 753 760 762 
f 760 755 762 
f 754 758 763 
f 758 759 763 
f 748 756 764 
f 755 752 765 
f 756 755 765 
f 764 756 765 
f 752 764 765 
f 751 749 766 
f 749 754 766 
f 754 751 766 
f 752 757 767 
f 761 748 767 
f 757 761 767 
f 748 764 767 
f 764 752 767 
f 761 754 768 
f 759 761 768 
f 754 763 768 
o convex_25
v 0.034518 -0.033767 0.019902
v 0.024637 -0.026521 0.010679
v 0.024637 -0.023227 0.010679
v 0.047035 -0.027839 0.010679
v 0.030569 -0.023227 0.022538
v 0.016072 -0.027181 0.022538
v 0.019366 -0.031790 0.012656
v 0.038470 -0.033109 0.022538
v 0.044399 -0.031131 0.010679
v 0.016072 -0.023227 0.021877
v 0.026613 -0.033109 0.022538
v 0.029253 -0.033109 0.011340
v 0.036494 -0.025204 0.022538
v 0.031229 -0.023227 0.010679
v 0.017390 -0.022568 0.022538
v 0.020027 -0.029154 0.011340
v 0.045056 -0.026521 0.011340
v 0.028592 -0.022568 0.019902
v 0.034518 -0.033767 0.015292
v 0.028592 -0.033767 0.015292
v 0.019366 -0.031790 0.016609
v 0.027274 -0.031790 0.010679
v 0.047035 -0.029814 0.011340
v 0.038470 -0.030473 0.022538
v 0.022661 -0.031790 0.022538
v 0.047035 -0.027839 0.011340
f 792 791 794 
f 770 771 772 
f 773 774 776 
f 770 772 777 
f 775 774 778 
f 769 776 779 
f 776 774 779 
f 773 776 781 
f 772 771 782 
f 774 773 783 
f 771 778 783 
f 778 774 783 
f 771 770 784 
f 778 771 784 
f 775 778 784 
f 773 781 785 
f 772 782 785 
f 785 782 786 
f 782 771 786 
f 783 773 786 
f 771 783 786 
f 773 785 786 
f 776 769 787 
f 777 776 787 
f 780 777 787 
f 780 787 788 
f 769 779 788 
f 775 780 788 
f 787 769 788 
f 775 788 789 
f 774 775 789 
f 788 779 789 
f 770 777 790 
f 780 775 790 
f 777 780 790 
f 784 770 790 
f 775 784 790 
f 777 772 791 
f 776 777 791 
f 781 776 792 
f 776 791 792 
f 779 774 793 
f 774 789 793 
f 789 779 793 
f 772 785 794 
f 785 781 794 
f 791 772 794 
f 781 792 794 
o convex_26
v 0.067458 -0.018615 0.004751
v 0.055600 -0.030473 0.003433
v 0.055600 -0.030473 0.006726
v 0.064162 -0.014662 0.005409
v 0.067458 -0.015982 0.010021
v 0.062846 -0.026521 0.008043
v 0.055600 -0.027178 0.008703
v 0.055600 -0.025200 0.002115
v 0.067458 -0.014662 0.002115
v 0.062846 -0.025860 0.002115
v 0.066138 -0.014662 0.010021
v 0.064162 -0.014662 0.002115
v 0.058896 -0.029153 0.002115
v 0.058896 -0.028497 0.008703
v 0.066138 -0.021910 0.007385
v 0.055600 -0.025860 0.006726
v 0.060872 -0.028497 0.006726
f 800 808 811 
f 796 797 801 
f 796 801 802 
f 799 795 803 
f 802 803 804 
f 803 795 804 
f 801 799 805 
f 799 803 805 
f 803 798 805 
f 802 798 806 
f 798 803 806 
f 803 802 806 
f 796 802 807 
f 802 804 807 
f 800 799 808 
f 801 797 808 
f 799 801 808 
f 795 799 809 
f 799 800 809 
f 800 804 809 
f 804 795 809 
f 798 802 810 
f 802 801 810 
f 805 798 810 
f 801 805 810 
f 797 796 811 
f 804 800 811 
f 796 807 811 
f 807 804 811 
f 808 797 811 
o convex_27
v 0.068117 -0.012025 0.002115
v 0.066141 0.005102 0.010021
v 0.067457 0.003782 0.009361
v 0.067457 -0.014662 0.010021
v 0.062847 0.003125 0.002115
v 0.064165 -0.014662 0.004751
v 0.063506 0.004442 0.009361
v 0.066798 0.005102 0.002115
v 0.069435 -0.004122 0.007385
v 0.064165 -0.014662 0.002115
v 0.065483 -0.014662 0.009361
v 0.068776 -0.014002 0.005409
v 0.068776 -0.008073 0.010021
v 0.062847 0.005102 0.006068
v 0.068117 -0.000828 0.002115
v 0.068117 0.003125 0.006068
f 826 819 827 
f 815 813 818 
f 813 814 819 
f 812 816 819 
f 816 812 821 
f 817 816 821 
f 815 817 821 
f 817 815 822 
f 815 818 822 
f 818 817 822 
f 812 820 823 
f 821 812 823 
f 815 821 823 
f 814 813 824 
f 813 815 824 
f 820 814 824 
f 815 823 824 
f 823 820 824 
f 816 817 825 
f 818 813 825 
f 817 818 825 
f 813 819 825 
f 819 816 825 
f 812 819 826 
f 820 812 826 
f 820 826 827 
f 819 814 827 
f 814 820 827 
o convex_28
v 0.021342 0.026841 -0.011721
v 0.016072 0.005102 -0.024895
v 0.016072 0.009716 -0.025555
v 0.016072 0.028817 -0.000520
v 0.021342 0.005102 -0.004475
v 0.016072 0.005102 -0.005132
v 0.020025 0.020251 -0.023577
v 0.016072 0.024204 -0.020943
v 0.021342 0.026182 -0.000520
v 0.021342 0.005102 -0.015672
v 0.018707 0.005763 -0.023577
v 0.016072 0.019592 -0.025555
v 0.021342 0.022887 -0.018304
v 0.016731 0.029478 -0.002498
v 0.016072 0.026182 -0.000520
v 0.018049 0.013670 -0.025555
v 0.021342 0.027499 -0.001841
v 0.016072 0.025524 -0.018304
v 0.020683 0.023548 -0.000520
v 0.020025 0.016963 -0.023577
v 0.021342 0.027499 -0.010403
f 845 841 848 
f 830 829 831 
f 829 832 833 
f 831 829 833 
f 830 831 835 
f 832 828 836 
f 828 832 837 
f 832 829 837 
f 837 829 838 
f 830 835 839 
f 835 834 839 
f 835 828 840 
f 834 835 840 
f 828 837 840 
f 831 833 842 
f 836 831 842 
f 829 830 843 
f 838 829 843 
f 830 839 843 
f 839 834 843 
f 836 828 844 
f 831 836 844 
f 841 831 844 
f 835 831 845 
f 828 835 845 
f 831 841 845 
f 833 832 846 
f 832 836 846 
f 842 833 846 
f 836 842 846 
f 837 838 847 
f 834 840 847 
f 840 837 847 
f 843 834 847 
f 838 843 847 
f 844 828 848 
f 841 844 848 
f 828 845 848 
o convex_29
v 0.028588 0.026183 -0.001180
v 0.024636 0.005102 -0.025551
v 0.025296 0.011691 -0.026213
v 0.034518 0.005102 -0.020283
v 0.021342 0.005102 -0.004476
v 0.034518 0.005102 -0.003161
v 0.034518 0.026183 -0.013037
v 0.021342 0.027501 -0.009743
v 0.031223 0.019593 -0.024895
v 0.021342 0.026183 -0.000522
v 0.034518 0.024206 0.000139
v 0.022002 0.005102 -0.022257
v 0.023978 0.019593 -0.024235
v 0.023321 0.023548 0.000139
v 0.029246 0.010373 -0.026213
v 0.021342 0.023548 -0.015011
v 0.034518 0.014328 -0.020283
v 0.033859 0.018935 0.000139
v 0.027930 0.005102 -0.003161
v 0.033199 0.026183 -0.014350
v 0.021342 0.005102 -0.018307
v 0.025296 0.017617 -0.026213
v 0.028588 0.005102 -0.025551
v 0.034518 0.026183 -0.007768
v 0.023321 0.016959 -0.024235
v 0.022002 0.027501 -0.006452
v 0.027272 0.020912 -0.022914
v 0.032540 0.020912 -0.022257
v 0.022002 0.005762 -0.003818
v 0.029906 0.017617 -0.026213
f 863 870 878 
f 850 852 853 
f 853 852 854 
f 854 852 855 
f 856 853 858 
f 854 855 859 
f 849 858 859 
f 850 853 860 
f 859 858 862 
f 850 851 863 
f 853 856 864 
f 856 861 864 
f 855 852 865 
f 852 857 865 
f 854 859 866 
f 859 862 866 
f 866 862 867 
f 853 854 867 
f 854 866 867 
f 856 855 868 
f 860 853 869 
f 853 864 869 
f 864 860 869 
f 861 857 870 
f 863 851 870 
f 852 850 871 
f 850 863 871 
f 863 852 871 
f 849 859 872 
f 859 855 872 
f 851 850 873 
f 850 860 873 
f 860 864 873 
f 864 861 873 
f 870 851 873 
f 861 870 873 
f 855 856 874 
f 858 849 874 
f 856 858 874 
f 849 872 874 
f 872 855 874 
f 861 856 875 
f 857 861 875 
f 856 868 875 
f 868 857 875 
f 855 865 876 
f 865 857 876 
f 868 855 876 
f 857 868 876 
f 858 853 877 
f 862 858 877 
f 867 862 877 
f 853 867 877 
f 857 852 878 
f 852 863 878 
f 870 857 878 
o convex_30
v 0.050329 0.014984 0.000139
v 0.033862 0.025525 0.007385
v 0.037814 0.024864 0.007385
v 0.033203 0.024864 0.000139
v 0.029908 0.021571 0.007385
v 0.050329 0.021571 0.007385
v 0.049670 0.016303 0.007385
v 0.030568 0.020913 0.000139
v 0.049010 0.020913 0.000139
v 0.028589 0.023547 0.000139
v 0.048350 0.014984 0.000798
v 0.030568 0.025525 0.007385
v 0.045716 0.022888 0.004091
v 0.034520 0.018937 0.000139
v 0.050329 0.020913 0.001457
f 887 891 893 
f 880 881 882 
f 881 880 883 
f 881 883 884 
f 884 883 885 
f 879 884 885 
f 882 879 886 
f 879 882 887 
f 882 886 888 
f 886 883 888 
f 885 883 889 
f 879 885 889 
f 880 882 890 
f 883 880 890 
f 882 888 890 
f 888 883 890 
f 882 881 891 
f 881 884 891 
f 887 882 891 
f 886 879 892 
f 883 886 892 
f 889 883 892 
f 879 889 892 
f 884 879 893 
f 879 887 893 
f 891 884 893 
o convex_31
v -0.028725 -0.021907 0.022538
v -0.000402 -0.003463 0.026491
v 0.007507 -0.021907 0.026491
v 0.000260 -0.004124 0.022538
v -0.028067 -0.005443 0.025832
v 0.006845 -0.027179 0.022538
v -0.016209 -0.023226 0.026491
v -0.034648 -0.003463 0.022538
v -0.035315 -0.015321 0.023197
v -0.023452 -0.003463 0.026491
v -0.013581 -0.027179 0.023197
v 0.006845 -0.025858 0.026491
v -0.020158 -0.020589 0.026491
v 0.007507 -0.022564 0.022538
v -0.033994 -0.003463 0.023856
v -0.028067 -0.010710 0.025832
v -0.030042 -0.021250 0.023197
v -0.000402 -0.003463 0.022538
v -0.019500 -0.025858 0.022538
v -0.000402 -0.025858 0.026491
v -0.035315 -0.015321 0.022538
f 910 902 914 
f 895 896 897 
f 894 897 899 
f 896 895 900 
f 897 894 901 
f 900 895 903 
f 895 901 903 
f 899 896 905 
f 896 900 905 
f 904 899 905 
f 900 903 906 
f 897 896 907 
f 896 899 907 
f 899 897 907 
f 901 902 908 
f 898 903 908 
f 903 901 908 
f 903 898 909 
f 902 906 909 
f 906 903 909 
f 898 908 909 
f 908 902 909 
f 900 906 910 
f 906 902 910 
f 895 897 911 
f 901 895 911 
f 897 901 911 
f 894 899 912 
f 899 904 912 
f 904 900 912 
f 910 894 912 
f 900 910 912 
f 900 904 913 
f 905 900 913 
f 904 905 913 
f 901 894 914 
f 902 901 914 
f 894 910 914 
o convex_32
v -0.005015 -0.015320 0.037031
v -0.000399 -0.003463 0.027810
v -0.000399 -0.003463 0.026493
v -0.022139 -0.003463 0.026493
v 0.006190 -0.025862 0.026493
v -0.018186 -0.021246 0.027151
v 0.010143 -0.022566 0.037031
v -0.012255 -0.003463 0.037031
v -0.001716 -0.003463 0.037031
v 0.010143 -0.017295 0.035712
v 0.010143 -0.021246 0.030445
v -0.012255 -0.023884 0.026493
v -0.018840 -0.016635 0.029128
v 0.000919 -0.019931 0.037031
v 0.010143 -0.025200 0.032419
v 0.007507 -0.021246 0.026493
v -0.022139 -0.012029 0.027151
v -0.011597 -0.012029 0.035712
v -0.012255 -0.023884 0.027151
v -0.020161 -0.018611 0.026493
v 0.010143 -0.017295 0.037031
v -0.012915 -0.006758 0.036371
v 0.009482 -0.023224 0.036371
v 0.001576 -0.025862 0.027151
v -0.001716 -0.018611 0.037031
v -0.022139 -0.003463 0.027151
f 931 922 940 
f 916 917 918 
f 918 917 919 
f 916 918 922 
f 915 921 922 
f 922 921 923 
f 916 922 923 
f 917 916 924 
f 924 921 925 
f 917 924 925 
f 918 919 926 
f 921 915 928 
f 925 921 929 
f 919 925 929 
f 919 917 930 
f 917 925 930 
f 925 919 930 
f 927 920 932 
f 920 926 933 
f 928 920 933 
f 918 926 934 
f 926 920 934 
f 920 927 934 
f 931 918 934 
f 927 931 934 
f 923 921 935 
f 916 923 935 
f 924 916 935 
f 921 924 935 
f 915 922 936 
f 922 931 936 
f 931 927 936 
f 932 915 936 
f 927 932 936 
f 921 928 937 
f 929 921 937 
f 928 933 937 
f 933 929 937 
f 926 919 938 
f 919 929 938 
f 933 926 938 
f 929 933 938 
f 928 915 939 
f 920 928 939 
f 915 932 939 
f 932 920 939 
f 922 918 940 
f 918 931 940 
o convex_33
v 0.010141 0.009056 0.055478
v -0.000398 0.007737 0.036377
v -0.000398 0.009056 0.033739
v 0.012119 0.013666 0.032424
v 0.004215 0.023548 0.023199
v -0.000398 0.009713 0.043619
v 0.011459 0.022887 0.022538
v -0.000398 0.016300 0.022538
v 0.012119 0.007737 0.048230
v 0.012119 0.012351 0.052183
v 0.010801 0.017618 0.022538
v -0.000398 0.021570 0.023199
v 0.006187 0.008398 0.053501
v -0.000398 0.007737 0.044931
v 0.010801 0.023548 0.023199
v 0.000920 0.007737 0.036377
v 0.009483 0.010374 0.054156
v 0.012119 0.007737 0.054156
v 0.000920 0.013009 0.040323
v 0.012119 0.018935 0.034397
v 0.012119 0.012351 0.035058
v 0.000920 0.013009 0.027152
v -0.000398 0.021570 0.022538
v 0.008164 0.007737 0.055478
f 954 958 964 
f 943 942 946 
f 943 946 948 
f 949 944 950 
f 947 944 951 
f 948 947 951 
f 948 946 952 
f 946 942 954 
f 942 949 954 
f 953 946 954 
f 947 945 955 
f 945 950 955 
f 942 943 956 
f 949 942 956 
f 950 945 957 
f 941 950 957 
f 945 952 957 
f 950 941 958 
f 949 950 958 
f 954 949 958 
f 952 946 959 
f 946 953 959 
f 957 952 959 
f 953 957 959 
f 944 947 960 
f 950 944 960 
f 947 955 960 
f 955 950 960 
f 944 949 961 
f 951 944 961 
f 949 956 961 
f 956 951 961 
f 943 948 962 
f 948 951 962 
f 956 943 962 
f 951 956 962 
f 945 947 963 
f 947 948 963 
f 952 945 963 
f 948 952 963 
f 953 954 964 
f 941 957 964 
f 957 953 964 
f 958 941 964 
o convex_34
v 0.016072 0.018935 0.024517
v 0.028589 0.018935 0.035716
v 0.028589 0.016300 0.035716
v 0.012119 0.007737 0.053502
v 0.012780 0.020253 0.031767
v 0.028589 0.018275 0.022538
v 0.028589 0.023548 0.022538
v 0.012119 0.013009 0.033740
v 0.012119 0.012351 0.052180
v 0.024636 0.019595 0.037035
v 0.013438 0.007737 0.049546
v 0.018708 0.023548 0.022538
v 0.012119 0.019595 0.029785
v 0.018049 0.018935 0.022538
v 0.028589 0.015643 0.033740
v 0.015414 0.012351 0.050865
v 0.018708 0.023548 0.024517
v 0.017392 0.016300 0.044936
v 0.028589 0.021570 0.031103
v 0.013438 0.007737 0.052841
v 0.012119 0.014327 0.031103
v 0.012780 0.011690 0.037035
v 0.020683 0.016300 0.044272
f 974 982 987 
f 966 967 970 
f 966 970 971 
f 972 968 973 
f 968 972 975 
f 971 970 976 
f 973 969 977 
f 972 973 977 
f 976 965 977 
f 969 976 977 
f 965 976 978 
f 976 970 978 
f 970 967 979 
f 975 970 979 
f 967 966 980 
f 973 968 980 
f 976 969 981 
f 971 976 981 
f 969 973 982 
f 981 969 982 
f 974 981 982 
f 966 971 983 
f 974 966 983 
f 981 974 983 
f 971 981 983 
f 968 975 984 
f 979 967 984 
f 975 979 984 
f 967 980 984 
f 980 968 984 
f 970 972 985 
f 977 965 985 
f 972 977 985 
f 965 978 985 
f 978 970 985 
f 972 970 986 
f 970 975 986 
f 975 972 986 
f 966 974 987 
f 980 966 987 
f 973 980 987 
f 982 973 987 
o convex_35
v 0.032541 0.028160 0.027809
v 0.028589 0.016301 0.030443
v 0.029907 0.016301 0.030443
v 0.035836 0.018278 0.022538
v 0.035836 0.024205 0.034396
v 0.028589 0.027499 0.022538
v 0.035836 0.028160 0.022538
v 0.028589 0.018938 0.035055
v 0.028589 0.018278 0.022538
v 0.034517 0.027499 0.032418
v 0.029249 0.016301 0.034396
v 0.035836 0.018278 0.025833
v 0.031225 0.027499 0.028469
f 995 997 1000 
f 990 989 991 
f 991 993 994 
f 992 991 994 
f 993 988 994 
f 993 989 995 
f 991 989 996 
f 989 993 996 
f 993 991 996 
f 994 988 997 
f 992 994 997 
f 995 992 997 
f 989 990 998 
f 995 989 998 
f 992 995 998 
f 990 991 999 
f 991 992 999 
f 998 990 999 
f 992 998 999 
f 988 993 1000 
f 993 995 1000 
f 997 988 1000 
o convex_36
v 0.039129 0.025523 0.041641
v 0.035836 0.018278 0.022538
v 0.035836 0.028160 0.022538
v 0.039129 0.027500 0.022538
v 0.039129 0.019596 0.022538
v 0.038471 0.021574 0.043619
v 0.035836 0.025523 0.035712
v 0.039129 0.021574 0.043619
v 0.037812 0.026183 0.040322
v 0.036495 0.023548 0.039005
v 0.039129 0.027500 0.029787
v 0.035836 0.027500 0.031762
f 1011 1003 1012 
f 1002 1003 1004 
f 1004 1001 1005 
f 1002 1004 1005 
f 1003 1002 1007 
f 1005 1001 1008 
f 1002 1005 1008 
f 1006 1002 1008 
f 1001 1006 1008 
f 1006 1001 1009 
f 1009 1007 1010 
f 1002 1006 1010 
f 1007 1002 1010 
f 1006 1009 1010 
f 1004 1003 1011 
f 1001 1004 1011 
f 1009 1001 1011 
f 1009 1011 1012 
f 1003 1007 1012 
f 1007 1009 1012 
o convex_37
v -0.003032 -0.021906 -0.021601
v 0.007507 -0.007415 -0.005132
v 0.007507 0.016301 -0.007109
v -0.005010 -0.014000 -0.005132
v -0.005010 0.016301 -0.022919
v 0.007507 0.015639 -0.022919
v 0.007507 -0.021243 -0.012379
v -0.005010 0.016301 -0.008426
v -0.005010 -0.024542 -0.005132
v 0.002236 -0.014654 -0.024236
v -0.005010 -0.026521 -0.015670
v 0.007507 -0.017953 -0.005132
v 0.005530 0.016301 -0.024896
v 0.004213 -0.018611 -0.021601
v -0.001056 -0.008069 -0.024236
v 0.000920 0.013665 -0.024896
v -0.003032 -0.026521 -0.015014
v 0.003553 0.016301 -0.007109
v -0.003692 -0.021243 -0.021601
v -0.002374 -0.016637 -0.023576
v 0.007507 -0.014000 -0.015670
v 0.007507 -0.021243 -0.010404
v 0.002894 -0.017291 -0.023576
v -0.003032 0.016301 -0.007769
v -0.003692 -0.026521 -0.011721
v -0.005010 -0.023884 -0.017649
v 0.001577 -0.020589 -0.021601
v 0.002894 0.001807 -0.024896
v 0.004213 -0.017291 -0.022259
f 1026 1035 1041 
f 1015 1014 1018 
f 1018 1014 1019 
f 1017 1016 1020 
f 1015 1017 1020 
f 1014 1016 1021 
f 1016 1017 1021 
f 1021 1017 1023 
f 1019 1014 1024 
f 1014 1021 1024 
f 1017 1015 1025 
f 1015 1018 1025 
f 1017 1025 1028 
f 1027 1017 1028 
f 1023 1013 1029 
f 1014 1015 1030 
f 1016 1014 1030 
f 1015 1020 1030 
f 1013 1023 1031 
f 1017 1027 1032 
f 1027 1022 1032 
f 1013 1031 1032 
f 1031 1017 1032 
f 1018 1019 1033 
f 1019 1024 1034 
f 1024 1021 1034 
f 1029 1019 1034 
f 1025 1018 1035 
f 1022 1025 1035 
f 1013 1032 1035 
f 1032 1022 1035 
f 1020 1016 1036 
f 1016 1030 1036 
f 1030 1020 1036 
f 1021 1023 1037 
f 1023 1029 1037 
f 1034 1021 1037 
f 1029 1034 1037 
f 1023 1017 1038 
f 1031 1023 1038 
f 1017 1031 1038 
f 1026 1019 1039 
f 1019 1029 1039 
f 1029 1013 1039 
f 1035 1026 1039 
f 1013 1035 1039 
f 1025 1022 1040 
f 1022 1027 1040 
f 1028 1025 1040 
f 1027 1028 1040 
f 1019 1026 1041 
f 1018 1033 1041 
f 1033 1019 1041 
f 1035 1018 1041 
o convex_38
v 0.007507 -0.011372 -0.005132
v -0.005010 -0.027179 -0.001839
v -0.005010 -0.027179 0.000797
v -0.005010 -0.000827 0.000797
v 0.007507 -0.021907 0.000797
v -0.005010 -0.012690 -0.005132
v -0.003692 -0.024543 -0.005132
v 0.007507 -0.017953 -0.005132
v 0.007507 -0.016634 0.000797
v -0.004351 -0.000827 0.000138
v -0.005010 -0.024543 -0.005132
f 1047 1048 1052 
f 1043 1044 1045 
f 1044 1043 1046 
f 1045 1044 1046 
f 1043 1045 1047 
f 1046 1043 1048 
f 1047 1042 1048 
f 1042 1046 1049 
f 1048 1042 1049 
f 1046 1048 1049 
f 1046 1042 1050 
f 1045 1046 1050 
f 1042 1047 1051 
f 1047 1045 1051 
f 1050 1042 1051 
f 1045 1050 1051 
f 1043 1047 1052 
f 1048 1043 1052 
o convex_39
v 0.020029 0.024206 0.022538
v 0.029251 0.021571 0.007385
v 0.029251 0.024206 0.007385
v 0.044396 0.023547 0.022538
v 0.050326 0.016960 0.009363
v 0.018712 0.018938 0.022538
v 0.049009 0.022229 0.007385
v 0.037152 0.018279 0.022538
v 0.044396 0.024866 0.022538
v 0.037809 0.024866 0.007385
v 0.047691 0.016960 0.007385
v 0.025299 0.024866 0.011340
v 0.021346 0.024866 0.019242
v 0.050326 0.020913 0.010023
v 0.018051 0.019597 0.021878
v 0.020686 0.018938 0.019901
v 0.039127 0.018938 0.022538
v 0.027933 0.020913 0.009363
v 0.018712 0.023547 0.021878
f 1064 1067 1071 
f 1056 1053 1058 
f 1054 1055 1059 
f 1056 1058 1060 
f 1058 1057 1060 
f 1053 1056 1061 
f 1061 1059 1062 
f 1059 1055 1062 
f 1057 1058 1063 
f 1054 1059 1063 
f 1059 1057 1063 
f 1055 1054 1064 
f 1061 1062 1064 
f 1062 1055 1064 
f 1053 1061 1065 
f 1061 1064 1065 
f 1056 1057 1066 
f 1057 1059 1066 
f 1061 1056 1066 
f 1059 1061 1066 
f 1064 1054 1067 
f 1063 1058 1068 
f 1058 1067 1068 
f 1057 1056 1069 
f 1056 1060 1069 
f 1060 1057 1069 
f 1054 1063 1070 
f 1067 1054 1070 
f 1063 1068 1070 
f 1068 1067 1070 
f 1058 1053 1071 
f 1053 1065 1071 
f 1065 1064 1071 
f 1067 1058 1071 
