o convex_0
v 0.006028 -0.051403 -0.021179
v 0.000586 0.005378 0.050378
v -0.004079 0.005378 0.050378
v 0.004474 0.047374 -0.028960
v -0.028973 -0.035058 -0.031292
v -0.028973 0.044265 0.016149
v 0.023921 0.039597 0.013808
v 0.023921 -0.039726 -0.030509
v -0.028973 -0.034278 0.016149
v 0.023921 -0.023392 0.033260
v -0.028973 0.033369 -0.032067
v 0.023921 0.038037 -0.031292
v -0.002526 -0.033509 0.032485
v -0.028973 -0.003169 0.035592
v 0.016916 -0.047514 0.006036
v -0.014967 -0.049063 0.000604
v 0.022363 0.025591 0.031702
v 0.011474 0.050483 -0.005618
v -0.013414 0.049713 -0.018064
v 0.004474 0.033379 0.031702
v -0.005632 -0.005508 0.049595
v -0.028191 -0.043625 -0.016514
v 0.023921 -0.046724 -0.003286
v -0.007967 -0.044395 -0.031284
v -0.020414 -0.027281 0.031702
v 0.007586 0.047374 0.009918
v 0.023921 0.003809 0.037142
v 0.023921 0.045825 -0.017289
v -0.024303 0.013146 0.037150
v -0.009526 -0.045954 0.013034
v -0.028191 0.041156 -0.024295
v -0.015744 -0.049063 -0.021171
v 0.009139 -0.032729 0.032485
v 0.003693 -0.002399 0.050378
v 0.003693 -0.052182 -0.004835
v -0.004079 0.051273 -0.002511
v -0.012632 0.031819 0.031702
v -0.011079 0.041936 -0.032075
v 0.006804 -0.046734 0.013034
v 0.023921 -0.038947 0.016141
v -0.028973 -0.017944 0.031702
v 0.018475 -0.047514 -0.025061
v 0.003693 0.051273 -0.017289
v -0.028973 -0.042056 0.000596
v -0.028973 0.041926 0.019256
v -0.018079 -0.041286 0.016149
v 0.023140 0.045815 -0.000953
v -0.014191 0.046604 -0.027402
v -0.028973 0.045045 0.000596
v -0.000972 -0.044395 -0.031292
v 0.011474 0.031819 0.031702
v -0.007191 0.005378 0.049595
v 0.015363 -0.050613 -0.009509
v 0.016916 0.046594 -0.025844
v -0.004856 -0.052182 -0.013391
v -0.021191 -0.044395 -0.027394
v -0.004079 -0.049063 -0.027402
v 0.001363 -0.006288 0.049587
v 0.005251 0.003039 0.049587
v -0.011856 -0.031179 0.032485
v 0.023140 -0.004718 0.037925
v -0.001749 -0.051403 0.000604
v 0.023921 -0.046724 -0.018847
v -0.015744 0.020933 0.037925
f 29 52 64 
f 6 5 9 
f 8 7 10 
f 5 6 11 
f 7 8 12 
f 6 9 14 
f 3 2 20 
f 8 10 23 
f 5 11 24 
f 6 20 26 
f 10 7 27 
f 7 17 27 
f 7 12 28 
f 16 22 32 
f 2 3 34 
f 3 21 34 
f 6 26 36 
f 26 18 36 
f 3 20 37 
f 4 12 38 
f 13 30 39 
f 33 13 39 
f 23 10 40 
f 15 23 40 
f 10 33 40 
f 39 15 40 
f 33 39 40 
f 14 9 41 
f 21 14 41 
f 9 25 41 
f 25 21 41 
f 18 28 43 
f 19 36 43 
f 36 18 43 
f 9 5 44 
f 5 22 44 
f 22 16 44 
f 6 14 45 
f 20 6 45 
f 14 29 45 
f 37 20 45 
f 25 9 46 
f 16 30 46 
f 9 44 46 
f 44 16 46 
f 18 26 47 
f 26 7 47 
f 7 28 47 
f 28 18 47 
f 11 31 48 
f 31 19 48 
f 4 38 48 
f 38 11 48 
f 43 4 48 
f 19 43 48 
f 11 6 49 
f 31 11 49 
f 19 31 49 
f 6 36 49 
f 36 19 49 
f 12 8 50 
f 24 11 50 
f 38 12 50 
f 11 38 50 
f 8 42 50 
f 2 17 51 
f 17 7 51 
f 20 2 51 
f 7 26 51 
f 26 20 51 
f 21 3 52 
f 14 21 52 
f 29 14 52 
f 23 15 53 
f 35 1 53 
f 15 35 53 
f 1 42 53 
f 12 4 54 
f 28 12 54 
f 4 43 54 
f 43 28 54 
f 16 32 55 
f 1 35 55 
f 22 5 56 
f 5 24 56 
f 32 22 56 
f 32 56 57 
f 42 1 57 
f 24 50 57 
f 50 42 57 
f 1 55 57 
f 55 32 57 
f 56 24 57 
f 21 13 58 
f 33 10 58 
f 13 33 58 
f 34 21 58 
f 10 34 58 
f 17 2 59 
f 27 17 59 
f 2 34 59 
f 13 21 60 
f 21 25 60 
f 30 13 60 
f 25 46 60 
f 46 30 60 
f 10 27 61 
f 34 10 61 
f 27 59 61 
f 59 34 61 
f 30 16 62 
f 35 15 62 
f 39 30 62 
f 15 39 62 
f 16 55 62 
f 55 35 62 
f 8 23 63 
f 42 8 63 
f 23 53 63 
f 53 42 63 
f 3 37 64 
f 45 29 64 
f 37 45 64 
f 52 3 64 
o convex_1
v 0.041031 0.030265 -0.023514
v 0.024700 0.004602 0.036377
v 0.023921 0.004602 0.036377
v 0.039477 -0.024179 -0.030509
v 0.023921 0.038043 -0.031297
v 0.023921 -0.024179 -0.028959
v 0.048032 -0.016395 0.005256
v 0.023921 -0.024179 0.030925
v 0.034812 0.032602 0.011476
v 0.051924 0.006932 -0.004071
v 0.023921 0.044265 0.002156
v 0.048810 -0.005506 -0.028177
v 0.034036 0.001498 0.032482
v 0.031703 -0.024179 0.031700
v 0.047256 -0.024179 -0.015737
v 0.024700 0.023269 0.031700
v 0.045702 0.010050 0.013808
v 0.042588 0.030265 -0.004846
v 0.045702 0.013928 -0.029734
v 0.029368 0.042710 -0.018068
v 0.047256 -0.007061 0.012258
v 0.049589 0.014710 -0.021182
v 0.051924 -0.010172 -0.013398
v 0.041812 0.021706 0.013039
v 0.048810 0.018595 -0.003296
v 0.044924 -0.024179 0.004481
v 0.031703 0.011592 0.032482
v 0.037144 0.025599 -0.031297
v 0.034812 0.038818 -0.004846
v 0.023921 0.038043 0.015364
v 0.047256 -0.019506 -0.025070
v 0.051924 0.003053 -0.019618
v 0.051146 -0.004725 0.002156
v 0.024700 0.043491 -0.025070
v 0.046478 -0.005506 -0.030515
v 0.043367 0.029491 -0.014180
v 0.035590 0.033376 -0.028177
v 0.024700 -0.006287 0.036377
v 0.049589 0.009269 0.005256
v 0.050367 -0.015620 -0.004846
v 0.033257 -0.006287 0.033263
v 0.034036 -0.024179 -0.030509
v 0.044145 0.024043 0.005256
v 0.024700 0.045828 -0.007960
v 0.034812 0.035706 0.006037
v 0.036369 0.022488 0.020034
v 0.043367 -0.003176 0.019259
v 0.034812 0.038043 -0.020400
v 0.050367 -0.011728 -0.022739
v 0.049589 0.005376 -0.026627
v 0.044924 0.023269 -0.025070
v 0.048810 0.019370 -0.014955
v 0.023921 -0.022617 0.033257
v 0.051146 0.012373 -0.013398
v 0.028592 0.036488 0.013808
v 0.045702 -0.015620 0.011476
v 0.023921 -0.014839 -0.029740
v 0.026257 0.042710 0.004474
v 0.041812 0.011592 0.019259
v 0.043367 -0.023398 -0.028177
v 0.048810 0.004602 0.009144
v 0.040255 0.017040 -0.031297
v 0.023921 0.045047 -0.019625
v 0.046478 0.016265 0.008369
f 89 107 128 
f 67 69 70 
f 67 70 72 
f 70 68 72 
f 69 67 75 
f 72 68 78 
f 78 68 79 
f 67 66 80 
f 78 79 90 
f 66 77 91 
f 80 66 91 
f 75 67 94 
f 67 80 94 
f 74 87 96 
f 85 71 97 
f 87 74 97 
f 82 89 100 
f 93 82 100 
f 92 69 101 
f 69 98 101 
f 66 67 102 
f 74 89 103 
f 97 74 103 
f 79 87 104 
f 71 90 104 
f 90 79 104 
f 97 71 104 
f 87 97 104 
f 77 66 105 
f 66 102 105 
f 102 78 105 
f 68 70 106 
f 73 88 107 
f 89 82 107 
f 93 84 108 
f 82 93 109 
f 73 107 109 
f 107 82 109 
f 73 80 110 
f 88 73 110 
f 80 91 110 
f 81 77 111 
f 78 85 111 
f 77 105 111 
f 105 78 111 
f 84 93 112 
f 98 84 112 
f 100 65 112 
f 93 100 112 
f 65 101 112 
f 101 98 112 
f 87 79 113 
f 95 76 113 
f 79 95 113 
f 76 96 113 
f 96 87 113 
f 83 86 114 
f 96 76 114 
f 86 96 114 
f 76 99 114 
f 99 83 114 
f 86 83 115 
f 83 92 115 
f 65 100 115 
f 101 65 115 
f 92 101 115 
f 100 89 116 
f 86 115 116 
f 115 100 116 
f 67 72 117 
f 72 78 117 
f 102 67 117 
f 78 102 117 
f 89 74 118 
f 74 96 118 
f 96 86 118 
f 86 116 118 
f 116 89 118 
f 80 73 119 
f 94 80 119 
f 73 109 119 
f 71 85 120 
f 85 78 120 
f 90 71 120 
f 78 90 120 
f 70 69 121 
f 69 106 121 
f 106 70 121 
f 75 94 122 
f 108 75 122 
f 93 108 122 
f 109 93 122 
f 94 119 122 
f 119 109 122 
f 77 81 123 
f 81 88 123 
f 91 77 123 
f 88 110 123 
f 110 91 123 
f 79 68 124 
f 76 95 124 
f 95 79 124 
f 99 76 124 
f 68 99 124 
f 85 97 125 
f 103 81 125 
f 97 103 125 
f 81 111 125 
f 111 85 125 
f 69 92 126 
f 92 83 126 
f 83 99 126 
f 99 68 126 
f 106 69 126 
f 68 106 126 
f 69 75 127 
f 98 69 127 
f 84 98 127 
f 75 108 127 
f 108 84 127 
f 88 81 128 
f 81 103 128 
f 103 89 128 
f 107 88 128 
o convex_2
v -0.046084 -0.021840 -0.020400
v -0.028975 0.003049 0.034821
v -0.029752 0.003049 0.034821
v -0.028975 0.027937 -0.032075
v -0.028975 -0.041289 -0.022731
v -0.045306 0.027937 0.012256
v -0.040641 -0.021840 0.013814
v -0.046084 0.009264 -0.029737
v -0.028975 0.027937 0.022373
v -0.051529 -0.000845 -0.007179
v -0.029752 -0.037402 0.010704
v -0.033643 -0.027286 -0.032068
v -0.043752 0.026371 -0.018841
v -0.046863 -0.007837 0.010698
v -0.043752 -0.027286 -0.003296
v -0.028975 -0.016401 0.031704
v -0.050751 0.006153 -0.018068
v -0.044529 -0.010172 -0.031296
v -0.033643 -0.005522 0.031704
v -0.028975 -0.034291 -0.031289
v -0.034418 0.027937 -0.032068
v -0.043752 0.027937 0.016146
v -0.034418 -0.038954 -0.013400
v -0.048417 -0.017170 -0.002517
v -0.049974 -0.008613 -0.021179
v -0.039863 -0.028845 -0.026627
v -0.029752 0.017045 0.031704
v -0.049197 0.015486 -0.014958
v -0.028975 -0.042065 -0.001731
v -0.050751 0.003818 -0.000185
v -0.038309 -0.033508 0.001373
v -0.039863 0.027937 -0.027400
v -0.044529 0.003818 0.016146
v -0.033643 0.006922 0.031704
v -0.043752 0.005370 -0.032068
v -0.046863 0.017814 -0.023510
v -0.049197 -0.003956 0.006035
v -0.033643 -0.030397 0.015366
v -0.039863 -0.032732 -0.017289
v -0.050751 0.009264 -0.006400
v -0.049197 0.000707 -0.025848
v -0.043752 -0.022616 0.006814
v -0.043752 -0.017953 -0.029737
v -0.049974 -0.013283 -0.013400
v -0.045306 0.027937 -0.000958
v -0.040641 -0.016394 0.017704
v -0.029752 -0.016401 0.031704
v -0.042195 0.019373 -0.030516
v -0.050751 -0.007837 -0.003296
v -0.046863 -0.014842 0.006814
v -0.045306 -0.024951 -0.014958
v -0.036752 -0.036619 -0.004841
v -0.031309 -0.038954 -0.025068
v -0.041418 0.027937 0.018483
v -0.047640 -0.011724 -0.026627
v -0.042195 -0.006284 0.019256
v -0.035975 -0.029621 -0.030510
v -0.037529 -0.031180 0.008366
v -0.028975 -0.033508 0.016146
v -0.048417 0.001483 0.008373
v -0.029752 -0.042848 -0.009510
v -0.032864 -0.038954 0.001373
v -0.048417 0.010816 -0.025068
v -0.040641 -0.017170 -0.032068
f 185 171 192 
f 132 130 133 
f 130 132 137 
f 132 134 137 
f 130 131 144 
f 133 130 144 
f 132 133 148 
f 140 132 148 
f 134 132 149 
f 137 134 150 
f 138 145 153 
f 131 130 155 
f 130 137 155 
f 133 144 157 
f 134 149 160 
f 147 131 162 
f 131 155 162 
f 161 147 162 
f 150 161 162 
f 146 136 163 
f 149 132 163 
f 156 141 164 
f 141 160 164 
f 129 154 167 
f 145 138 168 
f 134 156 168 
f 156 145 168 
f 158 134 168 
f 138 158 168 
f 136 146 169 
f 153 145 169 
f 152 143 170 
f 143 159 170 
f 154 129 171 
f 138 153 172 
f 153 129 172 
f 156 134 173 
f 141 156 173 
f 134 160 173 
f 160 141 173 
f 144 131 175 
f 131 147 175 
f 135 166 175 
f 174 135 175 
f 147 174 175 
f 160 149 176 
f 163 136 176 
f 149 163 176 
f 164 160 176 
f 158 138 177 
f 165 158 177 
f 172 152 177 
f 138 172 177 
f 142 165 178 
f 170 135 178 
f 152 170 178 
f 135 174 178 
f 174 142 178 
f 177 152 178 
f 165 177 178 
f 143 152 179 
f 129 167 179 
f 167 143 179 
f 172 129 179 
f 152 172 179 
f 159 143 180 
f 143 167 180 
f 167 151 180 
f 148 133 181 
f 133 151 181 
f 151 167 181 
f 167 154 181 
f 137 150 182 
f 155 137 182 
f 162 155 182 
f 150 162 182 
f 129 153 183 
f 169 146 183 
f 153 169 183 
f 146 171 183 
f 171 129 183 
f 161 142 184 
f 147 161 184 
f 142 174 184 
f 174 147 184 
f 140 148 185 
f 154 171 185 
f 148 181 185 
f 181 154 185 
f 139 166 186 
f 166 135 186 
f 135 170 186 
f 170 159 186 
f 139 157 187 
f 157 144 187 
f 166 139 187 
f 144 175 187 
f 175 166 187 
f 150 134 188 
f 134 158 188 
f 142 161 188 
f 161 150 188 
f 165 142 188 
f 158 165 188 
f 151 133 189 
f 133 157 189 
f 180 151 189 
f 180 189 190 
f 157 139 190 
f 159 180 190 
f 139 186 190 
f 186 159 190 
f 189 157 190 
f 145 156 191 
f 156 164 191 
f 136 169 191 
f 169 145 191 
f 176 136 191 
f 164 176 191 
f 132 140 192 
f 163 132 192 
f 146 163 192 
f 171 146 192 
f 140 185 192 
o convex_3
v 0.032477 -0.024182 0.034813
v 0.023921 -0.046735 -0.016515
v 0.023921 -0.045956 -0.021181
v 0.023921 -0.024182 0.029366
v 0.033256 -0.024182 -0.029738
v 0.033256 -0.038957 0.042596
v 0.023921 -0.024182 -0.028957
v 0.033256 -0.040512 -0.019626
v 0.023921 -0.042845 0.009142
v 0.024700 -0.039735 -0.030519
v 0.026256 -0.032739 0.037931
v 0.033256 -0.028849 0.041815
v 0.033256 -0.034293 -0.029738
v 0.024700 -0.046735 -0.005622
v 0.032477 -0.042068 -0.007958
v 0.023921 -0.031182 0.030921
v 0.029366 -0.035847 0.041815
v 0.028589 -0.042068 -0.025072
v 0.033256 -0.024182 0.034039
v 0.030144 -0.027294 0.039486
v 0.023921 -0.033516 -0.030519
v 0.033256 -0.024961 -0.030519
v 0.027811 -0.045179 -0.014960
v 0.027811 -0.045179 -0.006403
v 0.032477 -0.038957 0.042596
v 0.023921 -0.045956 -0.000956
v 0.026256 -0.030405 0.037931
v 0.030921 -0.031959 0.042596
v 0.023921 -0.043622 -0.026628
v 0.033256 -0.038178 -0.025846
v 0.026256 -0.045179 -0.021181
v 0.027033 -0.034293 0.038705
v 0.033256 -0.041291 -0.014179
f 207 215 225 
f 195 194 196 
f 196 193 197 
f 195 196 199 
f 196 197 199 
f 197 198 200 
f 196 194 201 
f 198 197 204 
f 197 200 205 
f 196 201 208 
f 197 193 211 
f 193 204 211 
f 204 197 211 
f 193 196 212 
f 204 193 212 
f 195 199 213 
f 202 213 214 
f 199 197 214 
f 197 205 214 
f 205 202 214 
f 213 199 214 
f 206 194 215 
f 198 206 216 
f 207 198 216 
f 206 215 216 
f 215 207 216 
f 206 198 217 
f 209 201 217 
f 201 194 218 
f 194 206 218 
f 206 217 218 
f 217 201 218 
f 196 208 219 
f 208 203 219 
f 203 209 219 
f 212 196 219 
f 212 219 220 
f 198 204 220 
f 204 212 220 
f 217 198 220 
f 209 217 220 
f 219 209 220 
f 202 210 221 
f 195 213 221 
f 213 202 221 
f 205 200 222 
f 202 205 222 
f 200 210 222 
f 210 202 222 
f 194 195 223 
f 210 200 223 
f 215 194 223 
f 200 215 223 
f 195 221 223 
f 221 210 223 
f 208 201 224 
f 203 208 224 
f 201 209 224 
f 209 203 224 
f 200 198 225 
f 198 207 225 
f 215 200 225 
o convex_4
v -0.039861 0.046606 0.021596
v -0.033643 0.027937 -0.032075
v -0.033643 0.028716 -0.032075
v -0.028975 0.027937 0.021596
v -0.046083 0.027937 0.009929
v -0.028975 0.045049 0.000591
v -0.047640 0.040382 0.024709
v -0.028975 0.038827 -0.026628
v -0.040640 0.028716 -0.024293
v -0.032087 0.044270 0.024709
v -0.040640 0.042713 0.002926
v -0.028975 0.027937 -0.032075
v -0.043750 0.031051 0.024709
v -0.028975 0.045049 0.014593
v -0.045306 0.035716 0.002926
v -0.029753 0.040382 -0.023515
v -0.043750 0.045827 0.024709
v -0.035977 0.045049 0.003704
v -0.035198 0.034161 -0.026628
v -0.042973 0.040382 0.002926
v -0.045306 0.027937 -0.000965
v -0.042195 0.027937 0.019262
v -0.032087 0.035716 0.024709
v -0.047640 0.035716 0.024709
v -0.035977 0.046606 0.024709
v -0.028975 0.041158 0.020818
v -0.029753 0.034938 -0.031297
v -0.046083 0.032608 0.003704
v -0.037532 0.027937 -0.029740
v -0.029753 0.045827 0.006817
v -0.046083 0.043492 0.023931
v -0.042195 0.027937 -0.018846
v -0.044528 0.038827 0.004482
v -0.037532 0.031051 0.024709
v -0.045306 0.027937 0.014593
v -0.032865 0.037271 -0.025071
v -0.038308 0.044270 0.003704
v -0.030532 0.040382 0.023931
v -0.032865 0.045827 0.006038
f 226 255 264 
f 227 229 230 
f 231 229 233 
f 227 228 237 
f 229 227 237 
f 233 229 237 
f 235 232 238 
f 229 231 239 
f 231 233 241 
f 232 235 242 
f 242 226 243 
f 244 234 245 
f 227 230 246 
f 230 229 247 
f 229 238 247 
f 235 238 248 
f 238 232 249 
f 235 239 250 
f 226 242 250 
f 242 235 250 
f 229 239 251 
f 239 235 251 
f 237 228 252 
f 233 237 252 
f 232 240 253 
f 246 230 253 
f 230 249 253 
f 249 232 253 
f 228 227 254 
f 234 244 254 
f 227 246 254 
f 252 228 254 
f 244 252 254 
f 239 231 255 
f 226 250 255 
f 250 239 255 
f 232 242 256 
f 242 236 256 
f 236 245 256 
f 240 234 257 
f 253 240 257 
f 246 253 257 
f 234 254 257 
f 254 246 257 
f 240 232 258 
f 234 240 258 
f 245 234 258 
f 232 256 258 
f 256 245 258 
f 238 229 259 
f 229 248 259 
f 248 238 259 
f 230 247 260 
f 247 238 260 
f 249 230 260 
f 238 249 260 
f 241 233 261 
f 236 241 261 
f 245 236 261 
f 244 245 261 
f 233 252 261 
f 252 244 261 
f 241 236 262 
f 236 242 262 
f 242 243 262 
f 243 241 262 
f 248 229 263 
f 235 248 263 
f 229 251 263 
f 251 235 263 
f 231 241 264 
f 243 226 264 
f 241 243 264 
f 255 231 264 
o convex_5
v -0.041420 0.034941 0.034041
v -0.044529 0.053604 0.036375
v -0.043750 0.052825 0.037931
v -0.032088 0.043493 0.024710
v -0.047640 0.035718 0.024710
v -0.053861 0.051271 0.032489
v -0.051527 0.041162 0.039486
v -0.039865 0.042716 0.039486
v -0.036754 0.031830 0.024710
v -0.042199 0.046604 0.024710
v -0.044529 0.031830 0.026266
v -0.032088 0.036495 0.025489
v -0.054640 0.044270 0.034041
v -0.046861 0.053604 0.032489
v -0.039865 0.047381 0.039486
v -0.045305 0.046604 0.041044
v -0.053861 0.045827 0.037152
v -0.039865 0.038051 0.037152
v -0.035977 0.046604 0.024710
v -0.047640 0.041162 0.024710
v -0.034422 0.040385 0.031711
v -0.049195 0.039608 0.039486
v -0.049972 0.053604 0.034820
v -0.052306 0.040385 0.037152
v -0.053082 0.052048 0.031711
v -0.041420 0.051271 0.038708
v -0.054640 0.048937 0.032489
v -0.045305 0.040385 0.040264
v -0.035977 0.037274 0.032489
v -0.047640 0.037274 0.037152
v -0.036754 0.045047 0.035597
v -0.042973 0.031051 0.025489
v -0.036754 0.032607 0.027045
v -0.042973 0.052825 0.034820
v -0.031307 0.039608 0.025489
v -0.046861 0.034164 0.024710
f 296 275 300 
f 269 268 273 
f 268 269 274 
f 273 268 276 
f 272 279 280 
f 271 280 281 
f 268 274 283 
f 274 278 283 
f 274 269 284 
f 267 266 287 
f 266 278 287 
f 280 267 287 
f 270 281 287 
f 281 280 287 
f 281 277 288 
f 271 281 288 
f 278 274 289 
f 274 284 289 
f 287 278 289 
f 270 287 289 
f 266 267 290 
f 267 280 290 
f 280 279 290 
f 269 277 291 
f 281 270 291 
f 277 281 291 
f 284 269 291 
f 270 289 291 
f 289 284 291 
f 280 271 292 
f 272 280 292 
f 265 282 292 
f 282 272 292 
f 271 286 292 
f 272 282 293 
f 276 285 293 
f 285 272 293 
f 286 271 294 
f 288 275 294 
f 271 288 294 
f 265 292 294 
f 292 286 294 
f 279 272 295 
f 272 285 295 
f 268 290 295 
f 290 279 295 
f 265 294 296 
f 294 275 296 
f 273 276 297 
f 282 265 297 
f 276 293 297 
f 293 282 297 
f 265 296 297 
f 296 273 297 
f 278 266 298 
f 268 283 298 
f 283 278 298 
f 266 290 298 
f 290 268 298 
f 276 268 299 
f 285 276 299 
f 268 295 299 
f 295 285 299 
f 269 273 300 
f 277 269 300 
f 275 288 300 
f 288 277 300 
f 273 296 300 
o convex_6
v 0.041034 -0.047511 0.041820
v 0.041034 -0.034294 0.044933
v 0.041034 -0.032739 0.044154
v 0.033256 -0.028073 0.031709
v 0.033256 -0.039734 0.043376
v 0.043368 -0.049071 0.036377
v 0.043368 -0.035073 0.039486
v 0.033256 -0.025738 0.038708
v 0.034034 -0.024960 0.031709
v 0.043368 -0.043624 0.044154
v 0.033256 -0.039734 0.040265
v 0.033256 -0.029628 0.042599
v 0.036368 -0.038955 0.044933
v 0.043368 -0.034294 0.043376
v 0.043368 -0.043624 0.036377
v 0.042590 -0.049071 0.036377
v 0.038699 -0.029628 0.042599
v 0.037146 -0.042845 0.044154
v 0.034034 -0.033518 0.044154
f 313 302 319 
f 304 305 308 
f 306 304 309 
f 304 308 309 
f 301 306 310 
f 306 307 310 
f 305 304 311 
f 308 305 312 
f 310 302 313 
f 303 302 314 
f 307 309 314 
f 302 310 314 
f 310 307 314 
f 307 306 315 
f 306 309 315 
f 309 307 315 
f 301 305 316 
f 306 301 316 
f 304 306 316 
f 305 311 316 
f 311 304 316 
f 302 303 317 
f 309 308 317 
f 312 302 317 
f 308 312 317 
f 303 314 317 
f 314 309 317 
f 305 301 318 
f 301 310 318 
f 313 305 318 
f 310 313 318 
f 302 312 319 
f 312 305 319 
f 305 313 319 
o convex_7
v 0.048813 -0.038962 0.041042
v 0.050370 -0.057625 0.020819
v 0.052702 -0.057625 0.020819
v 0.044924 -0.051402 0.037928
v 0.043368 -0.036628 0.038710
v 0.058147 -0.049848 0.020819
v 0.055035 -0.049848 0.033264
v 0.048813 -0.052958 0.020819
v 0.044146 -0.042849 0.044155
v 0.043368 -0.049068 0.034817
v 0.053479 -0.048291 0.020819
v 0.049591 -0.052181 0.036375
v 0.044924 -0.035072 0.041821
v 0.053479 -0.044406 0.037152
v 0.056590 -0.053735 0.025491
v 0.050370 -0.045960 0.040263
v 0.051145 -0.056069 0.028602
v 0.043368 -0.046737 0.042595
v 0.057369 -0.048291 0.027821
v 0.043368 -0.035851 0.044155
v 0.056590 -0.048291 0.020819
v 0.047258 -0.039739 0.043374
v 0.058147 -0.052958 0.020819
v 0.048813 -0.056069 0.020819
v 0.044146 -0.035072 0.040263
v 0.054257 -0.055292 0.027046
v 0.045703 -0.052958 0.034817
v 0.057369 -0.048291 0.023154
v 0.051923 -0.049068 0.020819
f 330 327 348 
f 322 321 325 
f 325 321 327 
f 324 327 329 
f 325 327 330 
f 331 326 335 
f 326 333 335 
f 321 322 336 
f 329 323 337 
f 324 329 337 
f 323 331 337 
f 335 328 337 
f 331 335 337 
f 320 333 338 
f 333 326 338 
f 326 334 338 
f 324 337 339 
f 337 328 339 
f 325 330 340 
f 320 332 341 
f 333 320 341 
f 328 335 341 
f 335 333 341 
f 339 328 341 
f 332 339 341 
f 322 325 342 
f 334 322 342 
f 325 338 342 
f 338 334 342 
f 327 321 343 
f 329 327 343 
f 330 324 344 
f 339 332 344 
f 324 339 344 
f 340 330 344 
f 332 340 344 
f 326 331 345 
f 322 334 345 
f 334 326 345 
f 336 322 345 
f 331 336 345 
f 323 329 346 
f 331 323 346 
f 321 336 346 
f 336 331 346 
f 343 321 346 
f 329 343 346 
f 332 320 347 
f 320 338 347 
f 338 325 347 
f 325 340 347 
f 340 332 347 
f 327 324 348 
f 324 330 348 
o convex_8
v 0.045704 -0.051406 -0.001738
v 0.058147 -0.049850 0.020819
v 0.058147 -0.052960 0.020819
v 0.048815 -0.052960 0.020819
v 0.051145 -0.057626 0.011483
v 0.041034 -0.048293 -0.000961
v 0.054256 -0.048293 0.002153
v 0.055035 -0.048293 0.020819
v 0.050366 -0.057626 0.020819
v 0.055810 -0.053737 0.008374
v 0.041034 -0.049072 -0.004072
v 0.057367 -0.049072 0.009928
v 0.055810 -0.056071 0.016149
v 0.051924 -0.049072 0.020819
v 0.051145 -0.052960 0.002153
v 0.048036 -0.056071 0.006819
v 0.045704 -0.048293 -0.004072
v 0.048815 -0.056071 0.020819
v 0.058147 -0.052183 0.013040
v 0.053477 -0.057626 0.019260
v 0.051145 -0.055292 0.005262
v 0.049591 -0.057626 0.017703
v 0.052700 -0.049850 0.000596
f 349 365 371 
f 351 350 352 
f 355 354 356 
f 352 350 356 
f 351 352 357 
f 355 356 360 
f 356 350 360 
f 353 358 361 
f 354 352 362 
f 356 354 362 
f 352 356 362 
f 359 349 364 
f 354 355 365 
f 349 359 365 
f 359 354 365 
f 352 354 366 
f 357 352 366 
f 354 359 366 
f 350 351 367 
f 358 355 367 
f 360 350 367 
f 355 360 367 
f 351 361 367 
f 361 358 367 
f 351 357 368 
f 357 353 368 
f 361 351 368 
f 353 361 368 
f 358 353 369 
f 349 363 369 
f 363 358 369 
f 353 364 369 
f 364 349 369 
f 353 357 370 
f 364 353 370 
f 359 364 370 
f 357 366 370 
f 366 359 370 
f 355 358 371 
f 363 349 371 
f 358 363 371 
f 365 355 371 
o convex_9
v 0.041037 -0.048293 -0.005622
v 0.055814 -0.047515 0.009929
v 0.055035 -0.047515 0.010707
v 0.034812 -0.041292 -0.019629
v 0.035590 -0.041292 -0.007181
v 0.049588 -0.041292 -0.004075
v 0.053479 -0.048293 0.000593
v 0.041037 -0.048293 -0.000185
v 0.042593 -0.041292 -0.000963
v 0.037146 -0.042071 -0.019629
v 0.050364 -0.048293 0.009151
v 0.034034 -0.042071 -0.010293
v 0.049588 -0.041292 -0.000185
v 0.048810 -0.048293 -0.003300
v 0.034034 -0.042071 -0.018851
v 0.055814 -0.048293 0.006039
v 0.037924 -0.042071 -0.004075
v 0.040259 -0.048293 -0.001741
v 0.052701 -0.047515 0.010707
f 388 382 390 
f 375 376 377 
f 372 378 379 
f 377 376 380 
f 375 377 381 
f 377 378 381 
f 379 378 382 
f 376 375 383 
f 379 376 383 
f 374 373 384 
f 373 377 384 
f 377 380 384 
f 378 372 385 
f 372 381 385 
f 381 378 385 
f 381 372 386 
f 375 381 386 
f 383 375 386 
f 373 374 387 
f 377 373 387 
f 378 377 387 
f 374 382 387 
f 382 378 387 
f 376 379 388 
f 380 376 388 
f 379 382 388 
f 372 379 389 
f 379 383 389 
f 386 372 389 
f 383 386 389 
f 382 374 390 
f 374 384 390 
f 384 380 390 
f 380 388 390 
o convex_10
v 0.035590 -0.041292 -0.007187
v 0.048813 -0.040514 -0.001739
v 0.048813 -0.041292 -0.001739
v 0.034034 -0.033514 -0.028964
v 0.033256 -0.033514 0.011485
v 0.041811 -0.033514 -0.018851
v 0.033256 -0.041292 -0.019627
v 0.039479 -0.039736 -0.021183
v 0.033256 -0.038180 0.004481
v 0.038701 -0.033514 0.002149
v 0.048813 -0.041292 -0.004855
v 0.033256 -0.034292 -0.028964
v 0.041034 -0.037403 -0.021183
v 0.037145 -0.041292 -0.021183
v 0.042589 -0.034292 -0.009515
v 0.044145 -0.041292 -0.000963
v 0.034034 -0.034292 0.011485
v 0.033256 -0.040514 -0.004855
v 0.035590 -0.033514 0.009149
f 395 407 409 
f 394 395 396 
f 393 391 397 
f 395 397 399 
f 396 395 400 
f 392 393 401 
f 396 392 401 
f 393 397 401 
f 395 394 402 
f 397 395 402 
f 394 398 402 
f 394 396 403 
f 398 394 403 
f 396 401 403 
f 401 398 403 
f 401 397 404 
f 398 401 404 
f 397 402 404 
f 402 398 404 
f 392 396 405 
f 400 392 405 
f 396 400 405 
f 391 393 406 
f 399 406 407 
f 393 392 407 
f 395 399 407 
f 406 393 407 
f 397 391 408 
f 399 397 408 
f 391 406 408 
f 406 399 408 
f 392 400 409 
f 400 395 409 
f 407 392 409 
o convex_11
v 0.033256 -0.033514 0.012261
v 0.046479 -0.024179 -0.004081
v 0.046479 -0.024959 -0.004081
v 0.033256 -0.024179 -0.030519
v 0.033256 -0.024179 0.020819
v 0.037923 -0.033514 -0.025851
v 0.044922 -0.024179 -0.024293
v 0.041032 -0.033514 -0.005624
v 0.033256 -0.033514 -0.029740
v 0.041812 -0.025735 0.009920
v 0.044922 -0.028069 -0.017293
v 0.039480 -0.024959 -0.030519
v 0.039480 -0.032734 0.003698
v 0.041032 -0.033514 -0.018850
v 0.034035 -0.031180 0.015367
v 0.039480 -0.024179 0.014588
v 0.046479 -0.024959 -0.018850
v 0.044145 -0.025735 -0.025072
v 0.044145 -0.027292 0.001366
v 0.036369 -0.033514 0.009151
v 0.044145 -0.029624 -0.007961
v 0.034035 -0.025735 0.020819
v 0.037923 -0.030401 -0.028961
f 427 415 432 
f 413 410 414 
f 411 413 414 
f 413 411 416 
f 410 415 417 
f 410 413 418 
f 415 410 418 
f 412 411 419 
f 413 416 421 
f 418 413 421 
f 417 415 423 
f 411 414 425 
f 419 411 425 
f 411 412 426 
f 416 411 426 
f 420 423 426 
f 426 423 427 
f 421 416 427 
f 423 415 427 
f 416 426 427 
f 412 419 428 
f 422 417 428 
f 419 422 428 
f 410 417 429 
f 417 422 429 
f 422 419 429 
f 424 410 429 
f 419 424 429 
f 417 423 430 
f 423 420 430 
f 426 412 430 
f 420 426 430 
f 412 428 430 
f 428 417 430 
f 414 410 431 
f 410 424 431 
f 424 419 431 
f 425 414 431 
f 419 425 431 
f 415 418 432 
f 418 421 432 
f 421 427 432 
