o convex_0
v 0.031203 -0.007508 -0.020399
v -0.038015 -0.017742 -0.030629
v -0.038015 -0.017742 -0.028824
v -0.013331 0.037627 -0.021001
v 0.004114 0.037627 -0.033038
v 0.033608 -0.023157 -0.030629
v -0.010926 -0.037606 -0.020399
v 0.028189 0.020765 -0.020399
v -0.031393 0.015953 -0.020399
v -0.003101 -0.029778 -0.031232
v -0.024170 0.020169 -0.030629
v 0.011939 -0.037003 -0.020399
v 0.028189 0.015953 -0.029427
v 0.012540 0.037627 -0.020399
v -0.031393 -0.008111 -0.020399
v 0.037825 -0.017742 -0.030027
v -0.004905 0.037024 -0.033038
v 0.021567 0.009928 -0.032436
v -0.003101 -0.037003 -0.025816
v -0.022366 0.010539 -0.032436
v -0.027777 -0.026166 -0.030629
v -0.028980 0.019566 -0.026418
v 0.020966 -0.030985 -0.020399
v -0.022366 -0.029778 -0.020399
v 0.010736 0.037627 -0.029427
v -0.010926 0.037627 -0.030027
v 0.031797 0.013548 -0.020399
v 0.008323 -0.033390 -0.028824
v 0.001709 -0.001490 -0.032435
v -0.025372 -0.012923 -0.031833
v 0.036013 -0.013534 -0.024613
v 0.024581 -0.012923 -0.031833
v 0.028790 0.019566 -0.025818
v -0.036203 -0.014733 -0.024613
v -0.033798 -0.023760 -0.028824
v 0.021567 0.019566 -0.031833
v 0.002912 -0.039416 -0.021604
v 0.037216 -0.015939 -0.030629
v 0.027588 -0.026166 -0.030629
v -0.013331 0.037627 -0.020399
v -0.030784 0.015350 -0.027018
v 0.031203 0.014143 -0.025818
v -0.002500 0.025584 -0.033038
v -0.004905 -0.033390 -0.029427
v 0.033608 -0.023760 -0.028824
v 0.010135 -0.035200 -0.026419
v -0.009723 -0.035803 -0.025816
v -0.028980 0.015350 -0.029427
v -0.022366 0.018359 -0.031833
v 0.007121 -0.029182 -0.031232
v 0.009534 0.037024 -0.031232
v -0.031994 0.014151 -0.020399
v -0.038015 -0.015336 -0.030027
v -0.028980 0.020169 -0.020399
v 0.033608 -0.011724 -0.022205
v 0.037825 -0.015939 -0.030027
v -0.035001 -0.011120 -0.022807
v -0.004304 -0.039416 -0.020399
v 0.034210 -0.012930 -0.031232
v -0.031393 0.015953 -0.024613
v -0.008521 0.037627 -0.031833
v -0.035001 -0.014129 -0.031232
v 0.037216 -0.015939 -0.027018
v -0.018750 -0.033390 -0.020399
f 24 35 64 
f 7 1 8 
f 7 8 9 
f 1 7 12 
f 5 4 14 
f 9 8 14 
f 7 9 15 
f 1 12 23 
f 7 15 24 
f 5 14 25 
f 4 5 26 
f 22 4 26 
f 11 22 26 
f 8 1 27 
f 10 21 30 
f 29 10 30 
f 29 18 32 
f 14 8 33 
f 25 14 33 
f 8 27 33 
f 3 24 34 
f 3 2 35 
f 2 21 35 
f 21 7 35 
f 24 3 35 
f 18 5 36 
f 16 6 38 
f 36 13 38 
f 14 4 40 
f 9 14 40 
f 13 33 42 
f 33 27 42 
f 17 5 43 
f 5 18 43 
f 20 17 43 
f 18 29 43 
f 30 20 43 
f 29 30 43 
f 21 10 44 
f 28 19 44 
f 6 16 45 
f 23 12 45 
f 39 6 45 
f 12 39 45 
f 19 28 46 
f 12 37 46 
f 37 19 46 
f 39 12 46 
f 28 39 46 
f 7 21 47 
f 44 19 47 
f 21 44 47 
f 22 11 48 
f 41 22 48 
f 17 20 49 
f 2 48 49 
f 48 11 49 
f 10 29 50 
f 32 6 50 
f 29 32 50 
f 6 39 50 
f 39 28 50 
f 44 10 50 
f 28 44 50 
f 5 25 51 
f 33 13 51 
f 25 33 51 
f 13 36 51 
f 36 5 51 
f 15 9 52 
f 3 34 52 
f 2 3 53 
f 48 2 53 
f 41 48 53 
f 3 52 53 
f 4 22 54 
f 40 4 54 
f 9 40 54 
f 1 23 55 
f 27 1 55 
f 23 31 55 
f 31 27 55 
f 16 38 56 
f 38 13 56 
f 42 27 56 
f 13 42 56 
f 24 15 57 
f 34 24 57 
f 15 52 57 
f 52 34 57 
f 12 7 58 
f 37 12 58 
f 19 37 58 
f 7 47 58 
f 47 19 58 
f 6 32 59 
f 32 18 59 
f 18 36 59 
f 38 6 59 
f 36 38 59 
f 22 41 60 
f 52 9 60 
f 41 53 60 
f 53 52 60 
f 9 54 60 
f 54 22 60 
f 5 17 61 
f 26 5 61 
f 11 26 61 
f 49 11 61 
f 17 49 61 
f 21 2 62 
f 20 30 62 
f 30 21 62 
f 2 49 62 
f 49 20 62 
f 31 23 63 
f 27 31 63 
f 45 16 63 
f 23 45 63 
f 16 56 63 
f 56 27 63 
f 7 24 64 
f 35 7 64 
o convex_1
v 0.021572 -0.031582 -0.013173
v -0.032597 -0.003296 -0.017990
v -0.031994 -0.004499 -0.019190
v 0.012543 0.037627 -0.020399
v -0.008515 0.024385 0.012104
v -0.018148 -0.027369 0.012104
v 0.031199 0.000901 0.012104
v -0.009722 -0.038199 -0.020399
v 0.031802 0.009931 -0.020399
v -0.013331 0.037627 -0.020399
v -0.027177 0.000304 0.012104
v 0.010738 -0.029774 0.012104
v 0.001105 0.035820 0.005480
v -0.030183 0.018357 -0.020399
v -0.025976 -0.025569 -0.008360
v 0.026986 -0.022559 0.007287
v 0.022773 -0.028572 -0.020399
v 0.001105 -0.040620 -0.010163
v 0.028797 0.008729 0.012104
v -0.023568 0.020164 -0.000536
v 0.032406 -0.010519 0.001268
v -0.027177 -0.011116 0.012104
v 0.029394 0.018962 -0.019794
v -0.022964 -0.029177 -0.020399
v -0.015740 -0.035794 -0.008360
v 0.007123 -0.038804 -0.020399
v 0.012543 -0.037004 -0.007154
v 0.032406 -0.002691 -0.017389
v -0.016947 0.019559 0.012104
v -0.032597 0.011739 -0.016183
v -0.006107 -0.030977 0.012104
v 0.016152 0.020164 0.012104
v 0.021572 0.023174 -0.002945
v 0.033010 -0.000891 0.007889
v -0.001297 0.035820 0.005480
v 0.025181 -0.026764 -0.014379
v -0.031390 -0.005701 -0.006552
v 0.028193 -0.017741 0.010297
v -0.007314 -0.038804 -0.006552
v 0.001105 -0.039409 -0.005350
v -0.003101 0.037627 -0.007758
v -0.027781 -0.018944 -0.001144
v 0.019767 -0.024964 0.012104
v 0.031802 0.013547 -0.017389
v -0.021160 0.024377 -0.004147
v 0.002910 0.025587 0.012104
v -0.024165 -0.019541 0.012104
v 0.012543 0.037627 -0.018591
v -0.020556 -0.032784 -0.012572
v 0.015555 -0.035802 -0.018591
v -0.003705 -0.040620 -0.015582
v -0.025373 0.017759 -0.001144
v -0.024769 -0.027974 -0.016784
v -0.031994 0.009326 -0.020399
v -0.027781 -0.002699 0.012104
v -0.019953 0.015952 0.012104
v -0.012131 0.037627 -0.016784
v 0.006525 -0.030984 0.012104
v -0.027177 0.021972 -0.017990
v 0.032406 0.002709 0.008490
v 0.030601 -0.005104 -0.020399
v -0.013331 -0.037602 -0.014980
v 0.026389 0.021972 -0.016183
v 0.005922 -0.040015 -0.016183
f 82 115 128 
f 69 70 71 
f 72 68 73 
f 68 72 74 
f 70 69 75 
f 71 70 76 
f 74 72 78 
f 72 73 81 
f 69 71 83 
f 70 75 86 
f 73 68 87 
f 78 72 88 
f 72 81 90 
f 65 80 91 
f 75 69 93 
f 76 70 95 
f 69 83 96 
f 96 83 97 
f 77 96 97 
f 85 92 98 
f 93 69 99 
f 80 65 100 
f 65 81 100 
f 85 80 100 
f 81 92 100 
f 92 85 100 
f 94 66 101 
f 80 85 102 
f 98 71 102 
f 85 98 102 
f 70 89 103 
f 95 70 103 
f 95 103 104 
f 82 91 104 
f 103 82 104 
f 68 74 105 
f 99 77 105 
f 66 79 106 
f 101 66 106 
f 86 101 106 
f 71 76 107 
f 91 80 107 
f 76 91 107 
f 102 71 107 
f 80 102 107 
f 73 87 108 
f 87 83 108 
f 92 73 108 
f 98 92 108 
f 84 93 109 
f 93 99 109 
f 96 77 110 
f 69 96 110 
f 99 69 110 
f 77 99 110 
f 79 70 111 
f 70 86 111 
f 106 79 111 
f 86 106 111 
f 87 68 112 
f 77 97 112 
f 68 105 112 
f 105 77 112 
f 70 79 113 
f 89 70 113 
f 81 65 114 
f 90 81 114 
f 65 91 114 
f 72 90 115 
f 82 103 115 
f 78 94 116 
f 94 75 116 
f 66 67 117 
f 79 66 117 
f 67 88 117 
f 113 79 117 
f 88 113 117 
f 67 66 118 
f 88 67 118 
f 78 88 118 
f 66 94 118 
f 94 78 118 
f 86 75 119 
f 75 94 119 
f 101 86 119 
f 94 101 119 
f 75 93 120 
f 93 84 120 
f 84 116 120 
f 116 75 120 
f 105 74 121 
f 99 105 121 
f 74 109 121 
f 109 99 121 
f 91 76 122 
f 76 95 122 
f 95 104 122 
f 104 91 122 
f 74 78 123 
f 109 74 123 
f 84 109 123 
f 78 116 123 
f 116 84 123 
f 83 71 124 
f 71 98 124 
f 108 83 124 
f 98 108 124 
f 81 73 125 
f 73 92 125 
f 92 81 125 
f 88 72 126 
f 103 89 126 
f 113 88 126 
f 89 113 126 
f 72 115 126 
f 115 103 126 
f 83 87 127 
f 97 83 127 
f 87 112 127 
f 112 97 127 
f 91 82 128 
f 90 114 128 
f 114 91 128 
f 115 90 128 
o convex_2
v 0.001105 0.038231 -0.008365
v -0.004307 0.037629 -0.033038
v -0.006714 0.037629 -0.032432
v -0.002498 0.050868 -0.031831
v 0.012545 0.037629 -0.022201
v -0.004307 0.050868 -0.009568
v 0.008930 0.050868 -0.014983
v -0.012735 0.037629 -0.017993
v -0.009119 0.050868 -0.024609
v 0.007126 0.046053 -0.030628
v 0.006525 0.037629 -0.032432
v 0.008331 0.050868 -0.025812
v 0.008930 0.037629 -0.013179
v -0.010928 0.038833 -0.029423
v 0.002308 0.050868 -0.008967
v -0.009119 0.050868 -0.014382
v -0.007316 0.037629 -0.011372
v 0.010739 0.038231 -0.029423
v 0.002308 0.050868 -0.031831
v -0.012735 0.040037 -0.020998
v -0.007316 0.046655 -0.030628
v 0.012545 0.038833 -0.019198
v 0.001105 0.046053 -0.033038
v -0.001295 0.037629 -0.008365
v 0.008331 0.045451 -0.012578
v -0.009119 0.046655 -0.013179
v 0.009531 0.050265 -0.020998
v 0.005322 0.037629 -0.010170
v -0.000694 0.050868 -0.008365
v -0.009721 0.050868 -0.016790
v -0.011530 0.037629 -0.028220
v -0.007316 0.050265 -0.028821
v 0.004718 0.050868 -0.010170
v -0.004307 0.046053 -0.032432
v 0.010739 0.043046 -0.015587
v 0.004117 0.037629 -0.033038
f 151 139 164 
f 131 130 133 
f 132 134 135 
f 131 133 136 
f 134 132 137 
f 133 130 139 
f 132 135 140 
f 136 133 141 
f 135 134 143 
f 134 137 144 
f 136 141 145 
f 133 139 146 
f 139 138 146 
f 140 133 146 
f 138 140 146 
f 138 139 147 
f 132 140 147 
f 140 138 147 
f 137 142 148 
f 131 142 149 
f 141 133 150 
f 132 147 151 
f 147 139 151 
f 134 145 152 
f 145 141 152 
f 134 144 154 
f 144 136 154 
f 145 134 154 
f 136 145 154 
f 133 140 155 
f 140 135 155 
f 150 133 155 
f 135 150 155 
f 143 129 156 
f 129 152 156 
f 152 141 156 
f 141 153 156 
f 129 143 157 
f 143 134 157 
f 152 129 157 
f 134 152 157 
f 136 144 158 
f 144 137 158 
f 148 136 158 
f 137 148 158 
f 131 136 159 
f 142 131 159 
f 136 148 159 
f 148 142 159 
f 137 132 160 
f 142 137 160 
f 132 149 160 
f 149 142 160 
f 135 143 161 
f 153 135 161 
f 143 156 161 
f 156 153 161 
f 130 131 162 
f 131 149 162 
f 149 132 162 
f 151 130 162 
f 132 151 162 
f 150 135 163 
f 141 150 163 
f 153 141 163 
f 135 153 163 
f 139 130 164 
f 130 151 164 
o convex_3
v -0.005511 0.058091 -0.022198
v 0.008934 0.052075 -0.015579
v 0.008331 0.054482 -0.015579
v -0.000696 0.057489 0.005483
v -0.009123 0.050869 -0.014977
v 0.001710 0.050869 -0.031835
v 0.001109 0.062305 -0.014977
v 0.004117 0.050869 -0.009570
v -0.004307 0.060499 -0.006557
v 0.002913 0.057489 -0.026414
v 0.001710 0.060499 0.000665
v -0.006714 0.051471 -0.028825
v 0.008331 0.050869 -0.025208
v 0.005924 0.058693 -0.017384
v -0.001299 0.055685 -0.030026
v -0.008521 0.055084 -0.017987
v -0.003103 0.050869 -0.008968
v -0.001299 0.061703 -0.018589
v 0.000506 0.056287 0.004278
v -0.001899 0.059294 0.003675
v -0.001299 0.062305 -0.007762
v -0.007317 0.057489 -0.011978
v -0.009123 0.050869 -0.024003
v 0.005924 0.058091 -0.008365
v 0.008331 0.050869 -0.013771
v 0.001710 0.059294 0.003072
v -0.004307 0.060499 -0.017987
v 0.005321 0.053278 -0.028825
v 0.002313 0.061703 -0.007762
v 0.008331 0.053278 -0.022805
v 0.003516 0.059896 -0.021000
v -0.000696 0.058091 -0.027016
v -0.003706 0.050869 -0.031232
v -0.008521 0.050869 -0.013176
v -0.007317 0.053880 -0.025815
v -0.000696 0.061100 0.000665
v 0.002313 0.055084 -0.030026
v 0.005924 0.056287 -0.024003
v -0.006714 0.057489 -0.008968
v -0.000696 0.056287 0.004278
v -0.004307 0.056287 -0.027016
v 0.000506 0.050869 -0.008365
f 204 181 206 
f 169 170 172 
f 172 170 177 
f 169 172 181 
f 171 182 185 
f 180 169 186 
f 170 169 187 
f 169 180 187 
f 166 167 188 
f 167 178 188 
f 177 166 189 
f 172 177 189 
f 183 172 189 
f 168 183 190 
f 184 168 190 
f 166 188 190 
f 188 175 190 
f 183 189 190 
f 189 166 190 
f 165 180 191 
f 182 165 191 
f 173 185 191 
f 185 182 191 
f 186 173 191 
f 180 186 191 
f 177 170 192 
f 178 171 193 
f 171 185 193 
f 175 188 193 
f 188 178 193 
f 167 166 194 
f 166 177 194 
f 178 167 194 
f 177 192 194 
f 171 178 195 
f 182 171 195 
f 165 182 196 
f 182 195 196 
f 195 174 196 
f 179 170 197 
f 176 179 197 
f 170 187 197 
f 187 176 197 
f 169 181 198 
f 168 184 198 
f 180 165 199 
f 176 187 199 
f 187 180 199 
f 173 184 200 
f 185 173 200 
f 184 190 200 
f 190 175 200 
f 175 193 200 
f 193 185 200 
f 170 179 201 
f 192 170 201 
f 174 192 201 
f 179 196 201 
f 196 174 201 
f 192 174 202 
f 178 194 202 
f 194 192 202 
f 195 178 202 
f 174 195 202 
f 184 173 203 
f 173 186 203 
f 186 169 203 
f 169 198 203 
f 198 184 203 
f 183 168 204 
f 198 181 204 
f 168 198 204 
f 179 176 205 
f 165 196 205 
f 196 179 205 
f 199 165 205 
f 176 199 205 
f 181 172 206 
f 172 183 206 
f 183 204 206 
o convex_4
v 0.015555 0.020170 0.012706
v -0.015744 -0.028579 0.013310
v -0.015744 -0.028579 0.015115
v -0.015744 0.020170 0.012706
v -0.007316 0.018968 0.023540
v 0.015555 -0.017744 0.023540
v 0.015555 -0.027371 0.012104
v -0.015744 -0.016542 0.023540
v 0.015555 0.015351 0.023540
v 0.000503 0.030405 0.018121
v 0.003514 -0.025569 0.023540
v -0.015744 0.015357 0.023540
v -0.007916 0.024383 0.012104
v -0.005511 -0.030989 0.012104
v 0.007730 0.024383 0.012104
v -0.015744 -0.027377 0.012104
v 0.001707 -0.030382 0.016920
v -0.004307 -0.025569 0.023540
v -0.014537 -0.027978 0.018121
v -0.001299 0.030405 0.016318
v 0.007126 0.018962 0.023540
v 0.014951 -0.025569 0.016318
v 0.007730 -0.030382 0.013911
v -0.015744 0.020170 0.012104
v 0.015555 0.020170 0.012104
v 0.000503 0.030405 0.015718
v -0.001299 0.030405 0.017523
v -0.015141 -0.023159 0.021132
v -0.000695 0.029798 0.018724
v 0.006526 -0.027972 0.019327
v 0.005922 -0.030989 0.012104
v -0.000095 -0.029180 0.019327
v -0.003103 -0.030989 0.014512
v -0.001899 0.025585 0.012104
v 0.001106 0.030405 0.017523
f 232 216 241 
f 208 209 210 
f 207 212 213 
f 210 209 214 
f 212 211 214 
f 211 212 215 
f 212 207 215 
f 212 214 217 
f 210 214 218 
f 214 211 218 
f 209 208 220 
f 219 213 220 
f 213 219 221 
f 208 210 222 
f 220 208 222 
f 219 220 222 
f 217 214 224 
f 211 215 227 
f 215 216 227 
f 213 212 228 
f 213 228 229 
f 222 210 230 
f 219 222 230 
f 210 226 230 
f 226 219 230 
f 207 213 231 
f 213 221 231 
f 231 221 232 
f 226 216 232 
f 219 226 232 
f 210 218 233 
f 226 210 233 
f 216 226 233 
f 214 209 234 
f 224 214 234 
f 225 224 234 
f 209 225 234 
f 218 211 235 
f 211 227 235 
f 227 216 235 
f 233 218 235 
f 216 233 235 
f 212 217 236 
f 228 212 236 
f 223 229 236 
f 229 228 236 
f 220 213 237 
f 213 229 237 
f 229 223 237 
f 217 224 238 
f 224 225 238 
f 236 217 238 
f 223 236 238 
f 209 220 239 
f 225 209 239 
f 220 237 239 
f 237 223 239 
f 223 238 239 
f 238 225 239 
f 221 219 240 
f 232 221 240 
f 219 232 240 
f 215 207 241 
f 216 215 241 
f 207 231 241 
f 231 232 241 
o convex_5
v 0.021574 -0.022557 0.012104
v 0.018565 0.013550 0.027152
v 0.017964 0.018364 0.012707
v 0.030602 0.003919 0.012104
v 0.015555 -0.015335 0.027152
v 0.028796 -0.002101 0.021132
v 0.015555 -0.026776 0.012104
v 0.015555 0.019570 0.012104
v 0.015555 0.013550 0.027152
v 0.022779 -0.000899 0.027152
v 0.027591 0.008732 0.018124
v 0.030602 -0.003308 0.012104
v 0.017963 -0.013529 0.027152
v 0.020374 -0.023160 0.014514
v 0.029998 0.001510 0.019329
v 0.029998 0.006927 0.012104
v 0.027591 -0.005712 0.020528
v 0.024582 0.002109 0.025947
v 0.016158 -0.024367 0.016922
v 0.023377 -0.019549 0.012707
v 0.025182 -0.002101 0.025346
v 0.029397 -0.003308 0.018728
v 0.029397 0.004518 0.018728
v 0.026987 0.009939 0.016321
v 0.016157 0.019570 0.013309
v 0.027591 -0.004506 0.021734
f 258 263 267 
f 245 242 248 
f 248 246 249 
f 245 248 249 
f 246 243 250 
f 249 246 250 
f 243 246 251 
f 242 245 253 
f 251 246 254 
f 248 242 255 
f 253 245 256 
f 249 244 257 
f 245 249 257 
f 256 245 257 
f 243 251 259 
f 247 256 259 
f 246 248 260 
f 254 246 260 
f 248 255 260 
f 255 254 260 
f 242 253 261 
f 255 242 261 
f 258 255 261 
f 251 254 262 
f 259 251 262 
f 247 259 262 
f 256 247 263 
f 253 256 263 
f 261 253 263 
f 258 261 263 
f 252 243 264 
f 257 252 264 
f 256 257 264 
f 243 259 264 
f 259 256 264 
f 244 243 265 
f 243 252 265 
f 257 244 265 
f 252 257 265 
f 243 244 266 
f 244 249 266 
f 250 243 266 
f 249 250 266 
f 254 255 267 
f 255 258 267 
f 262 254 267 
f 247 262 267 
f 263 247 267 
o convex_6
v -0.028384 -0.006914 0.012707
v -0.015744 0.012345 0.027152
v -0.015744 0.017760 0.016921
v -0.015744 -0.028582 0.013910
v -0.025374 -0.001503 0.025346
v -0.015744 -0.015332 0.027152
v -0.019356 0.016559 0.012104
v -0.021765 -0.022553 0.016321
v -0.026578 0.005722 0.019329
v -0.015744 -0.026772 0.012104
v -0.018755 0.012345 0.027152
v -0.015744 0.019570 0.012104
v -0.027782 -0.000301 0.012104
v -0.023569 -0.020753 0.012104
v -0.027782 -0.005109 0.019329
v -0.019960 -0.010520 0.027152
v -0.027179 0.002112 0.022334
v -0.022966 0.002715 0.027152
v -0.016347 -0.026173 0.018124
v -0.027179 0.005124 0.015716
v -0.026578 -0.011727 0.016922
v -0.020560 -0.020145 0.019927
v -0.026578 -0.004506 0.022334
v -0.019357 -0.026772 0.012104
v -0.028384 -0.001503 0.015115
v -0.016347 0.019570 0.013309
v -0.027179 -0.011727 0.015115
v -0.025976 0.003917 0.023540
v -0.022364 -0.019551 0.018124
v -0.016949 -0.027974 0.015716
v -0.018755 -0.012924 0.027152
f 296 289 298 
f 270 269 271 
f 271 269 273 
f 270 271 277 
f 269 270 278 
f 273 269 278 
f 274 276 278 
f 270 277 279 
f 277 274 279 
f 274 277 280 
f 280 277 281 
f 268 280 281 
f 273 278 283 
f 272 283 285 
f 283 278 285 
f 271 273 286 
f 276 274 287 
f 274 280 287 
f 284 276 287 
f 275 286 289 
f 283 272 290 
f 272 284 290 
f 284 282 290 
f 282 288 290 
f 277 271 291 
f 281 277 291 
f 275 281 291 
f 280 268 292 
f 268 282 292 
f 282 284 292 
f 287 280 292 
f 284 287 292 
f 278 270 293 
f 274 278 293 
f 270 279 293 
f 279 274 293 
f 268 281 294 
f 281 275 294 
f 282 268 294 
f 275 288 294 
f 288 282 294 
f 278 276 295 
f 284 272 295 
f 276 284 295 
f 272 285 295 
f 285 278 295 
f 288 275 296 
f 275 289 296 
f 283 290 296 
f 290 288 296 
f 271 286 297 
f 286 275 297 
f 291 271 297 
f 275 291 297 
f 273 283 298 
f 286 273 298 
f 289 286 298 
f 283 296 298 
o convex_7
v 0.015555 -0.010524 0.041595
v -0.015744 -0.016538 0.023542
v -0.014537 -0.017741 0.023542
v 0.015555 0.015955 0.023542
v -0.015744 0.017764 0.032570
v -0.015744 -0.011120 0.041595
v 0.005922 -0.024367 0.023542
v 0.005322 0.011138 0.041595
v -0.001899 -0.029184 0.041595
v -0.015744 0.015955 0.023542
v 0.015555 -0.017139 0.023542
v 0.015555 0.018360 0.032570
v -0.000695 0.023784 0.030765
v -0.010925 0.008131 0.041595
v 0.004118 -0.027975 0.040993
v -0.004307 -0.025570 0.023542
v 0.015555 0.002111 0.041595
v -0.004911 -0.027975 0.039187
v -0.001299 0.012346 0.041595
v -0.004911 0.018967 0.023542
v -0.015744 0.002111 0.041595
v 0.003514 -0.028577 0.037382
v -0.000695 0.023784 0.029562
v -0.015744 0.018366 0.027755
v 0.015555 0.018360 0.027755
v 0.008330 0.018360 0.023542
v 0.001106 -0.028577 0.034372
v 0.011939 0.006928 0.041595
v 0.015555 -0.012328 0.038586
v 0.003514 -0.025570 0.023542
v -0.006716 -0.025570 0.039789
v -0.004911 -0.027975 0.036779
v -0.006112 0.011143 0.041595
v -0.015744 -0.016538 0.025348
v 0.006526 -0.024963 0.040993
v 0.000506 0.022576 0.031969
v -0.006716 -0.024367 0.024145
v 0.001710 -0.029184 0.041595
v -0.001299 -0.029184 0.037382
v 0.015555 -0.017139 0.024747
v -0.015744 -0.012323 0.039187
v -0.004307 -0.027975 0.041595
v -0.008520 0.018366 0.023542
v 0.014347 -0.018347 0.023542
v 0.015555 0.017759 0.033169
f 310 334 343 
f 301 300 302 
f 303 300 304 
f 301 302 305 
f 304 299 306 
f 299 304 307 
f 302 300 308 
f 300 303 308 
f 302 299 309 
f 305 302 309 
f 299 302 310 
f 304 306 312 
f 301 305 314 
f 306 299 315 
f 299 310 315 
f 312 306 317 
f 302 308 318 
f 303 304 319 
f 312 303 319 
f 304 312 319 
f 311 310 321 
f 308 303 322 
f 303 311 322 
f 311 321 322 
f 310 302 323 
f 321 310 323 
f 321 323 324 
f 302 318 324 
f 318 321 324 
f 323 302 324 
f 306 315 326 
f 309 299 327 
f 314 305 328 
f 305 320 328 
f 325 314 328 
f 320 325 328 
f 300 301 330 
f 316 300 330 
f 307 316 330 
f 311 303 331 
f 303 312 331 
f 317 311 331 
f 312 317 331 
f 304 300 332 
f 300 316 332 
f 316 329 332 
f 327 299 333 
f 310 311 334 
f 311 317 334 
f 317 306 334 
f 301 314 335 
f 330 301 335 
f 314 330 335 
f 299 307 336 
f 320 313 336 
f 333 299 336 
f 313 333 336 
f 314 325 337 
f 325 320 337 
f 330 314 337 
f 307 330 337 
f 336 307 337 
f 320 336 337 
f 309 327 338 
f 333 313 338 
f 327 333 338 
f 329 304 339 
f 304 332 339 
f 332 329 339 
f 307 304 340 
f 316 307 340 
f 304 329 340 
f 329 316 340 
f 318 308 341 
f 321 318 341 
f 308 322 341 
f 322 321 341 
f 305 309 342 
f 320 305 342 
f 313 320 342 
f 309 338 342 
f 338 313 342 
f 315 310 343 
f 306 326 343 
f 326 315 343 
f 334 306 343 
o convex_8
v 0.019166 -0.011124 0.027153
v 0.016157 -0.003902 0.045207
v 0.015555 -0.003902 0.045207
v 0.015555 0.013551 0.027153
v 0.021574 0.002115 0.027756
v 0.015555 -0.014738 0.027153
v 0.018564 0.013551 0.031367
v 0.020369 -0.004503 0.038586
v 0.016157 -0.009922 0.042197
v 0.020369 -0.000294 0.037984
v 0.015555 0.013551 0.031367
v 0.018564 0.013551 0.027153
v 0.020971 -0.006309 0.027153
v 0.018564 -0.010523 0.035580
v 0.016157 -0.000294 0.043401
v 0.020971 -0.004503 0.036181
v 0.019166 0.013551 0.030163
v 0.015555 -0.012329 0.037383
v 0.018564 -0.007513 0.040993
v 0.018564 -0.002698 0.042197
v 0.020369 -0.006912 0.036181
v 0.016157 -0.014738 0.027756
f 357 361 365 
f 346 347 349 
f 347 344 349 
f 345 346 352 
f 347 346 354 
f 350 347 354 
f 344 347 355 
f 347 350 355 
f 344 355 356 
f 355 348 356 
f 346 345 358 
f 354 346 358 
f 350 354 358 
f 348 353 359 
f 353 351 359 
f 356 348 359 
f 350 353 360 
f 353 348 360 
f 348 355 360 
f 355 350 360 
f 346 349 361 
f 352 346 361 
f 357 352 361 
f 345 352 362 
f 352 357 362 
f 353 350 363 
f 351 353 363 
f 358 345 363 
f 350 358 363 
f 345 362 363 
f 362 351 363 
f 344 356 364 
f 357 344 364 
f 359 351 364 
f 356 359 364 
f 351 362 364 
f 362 357 364 
f 349 344 365 
f 344 357 365 
f 361 349 365 
o convex_9
v 0.014952 -0.005714 0.052431
v 0.004720 -0.024368 0.041597
v 0.005926 -0.024368 0.041597
v 0.004720 0.010542 0.041597
v 0.004720 -0.015941 0.052431
v 0.015554 0.001510 0.041597
v 0.014349 0.009937 0.051828
v 0.004720 0.006328 0.052431
v 0.015554 -0.010518 0.041597
v 0.016758 0.009937 0.049422
v 0.009537 -0.015941 0.052431
v 0.010738 0.007531 0.041597
v 0.016758 0.008133 0.051829
v 0.004720 -0.024368 0.044007
v 0.004720 0.009336 0.047615
v 0.014952 -0.006913 0.052431
v 0.014349 0.007531 0.052431
v 0.014952 0.010542 0.051225
v 0.006527 0.010542 0.041597
v 0.006527 -0.023763 0.042201
v 0.008333 -0.017144 0.052431
v 0.015554 -0.010518 0.042201
f 376 385 387 
f 368 367 369 
f 369 367 370 
f 368 369 371 
f 370 366 373 
f 369 370 373 
f 368 371 374 
f 374 371 375 
f 366 370 376 
f 371 369 377 
f 375 371 377 
f 374 375 378 
f 367 368 379 
f 370 367 379 
f 369 373 380 
f 366 376 381 
f 378 366 381 
f 373 366 382 
f 372 373 382 
f 366 378 382 
f 378 372 382 
f 373 372 383 
f 372 378 383 
f 378 375 383 
f 369 380 383 
f 380 373 383 
f 377 369 384 
f 375 377 384 
f 369 383 384 
f 383 375 384 
f 368 374 385 
f 379 368 385 
f 379 385 386 
f 376 370 386 
f 370 379 386 
f 385 376 386 
f 374 378 387 
f 381 376 387 
f 378 381 387 
f 385 374 387 
o convex_10
v 0.000507 -0.029184 0.041597
v 0.000507 0.005123 0.063867
v -0.000696 0.005123 0.063867
v -0.000696 0.017163 0.042805
v 0.004720 0.011143 0.041597
v -0.003705 -0.027977 0.041597
v 0.004720 -0.015333 0.053033
v -0.003705 0.011143 0.041597
v -0.003103 -0.012924 0.057243
v 0.004720 -0.024366 0.041597
v 0.000507 -0.013528 0.059654
v 0.004720 -0.000294 0.057243
v -0.003705 0.001511 0.056643
v 0.001108 0.017163 0.045811
v 0.004720 0.008130 0.050627
v -0.001899 0.016559 0.045209
v 0.004117 -0.027373 0.042203
v 0.000507 -0.010520 0.061456
v -0.003705 0.008130 0.051228
v -0.001899 -0.010520 0.060857
v -0.003705 -0.023163 0.047620
v 0.004720 -0.008111 0.056643
v -0.001298 0.005123 0.063264
v -0.003705 -0.005711 0.057243
v -0.001298 -0.029184 0.042203
v 0.001108 -0.028580 0.042805
v 0.001710 -0.011119 0.060255
v -0.000696 -0.014131 0.059052
v -0.001298 0.017163 0.045811
v 0.004720 0.002714 0.056041
v 0.000507 0.002714 0.063867
f 414 409 418 
f 392 388 393 
f 391 392 395 
f 392 393 395 
f 388 392 397 
f 392 394 397 
f 394 392 399 
f 395 393 400 
f 390 389 401 
f 392 391 401 
f 399 392 402 
f 401 389 402 
f 392 401 402 
f 391 395 403 
f 388 397 404 
f 397 394 404 
f 394 398 404 
f 395 400 406 
f 403 395 406 
f 400 393 408 
f 407 396 408 
f 394 399 409 
f 406 400 410 
f 403 406 410 
f 407 390 410 
f 407 410 411 
f 396 407 411 
f 400 408 411 
f 408 396 411 
f 410 400 411 
f 393 388 412 
f 408 393 412 
f 388 404 413 
f 404 398 413 
f 412 388 413 
f 398 394 414 
f 405 398 414 
f 394 409 414 
f 398 405 415 
f 405 407 415 
f 407 408 415 
f 408 412 415 
f 413 398 415 
f 412 413 415 
f 390 401 416 
f 401 391 416 
f 391 403 416 
f 410 390 416 
f 403 410 416 
f 389 399 417 
f 402 389 417 
f 399 402 417 
f 389 390 418 
f 399 389 418 
f 390 407 418 
f 407 405 418 
f 409 399 418 
f 405 414 418 
o convex_11
v 0.016759 0.020172 0.034974
v 0.023379 0.020774 0.044003
v 0.022776 0.020774 0.045207
v 0.019167 0.013551 0.031967
v 0.022776 0.020774 0.026552
v 0.015555 0.013551 0.021734
v 0.017361 0.016562 0.041597
v 0.015555 0.018365 0.027153
v 0.017963 0.020774 0.043402
v 0.015555 0.013551 0.031967
v 0.019766 0.013551 0.029561
v 0.020368 0.015960 0.041597
v 0.020368 0.020774 0.025948
v 0.015555 0.018365 0.035578
v 0.016759 0.013551 0.021734
v 0.019167 0.017764 0.044606
v 0.022776 0.018967 0.043402
v 0.022776 0.020172 0.026552
v 0.015555 0.014756 0.021734
f 433 424 437 
f 421 420 423 
f 421 423 427 
f 424 422 428 
f 426 424 428 
f 422 424 429 
f 425 428 430 
f 428 422 430 
f 422 429 430 
f 426 419 431 
f 419 427 431 
f 427 423 431 
f 419 426 432 
f 427 419 432 
f 425 427 432 
f 428 425 432 
f 426 428 432 
f 429 424 433 
f 421 427 434 
f 427 425 434 
f 425 430 434 
f 434 430 435 
f 420 421 435 
f 430 429 435 
f 421 434 435 
f 435 429 436 
f 423 420 436 
f 433 423 436 
f 429 433 436 
f 420 435 436 
f 424 426 437 
f 431 423 437 
f 426 431 437 
f 423 433 437 
o convex_12
v -0.019355 -0.011726 0.027153
v -0.015744 -0.002698 0.045207
v -0.016346 -0.002698 0.045207
v -0.018754 0.012348 0.027153
v -0.015744 -0.014738 0.027153
v -0.021161 -0.000896 0.036780
v -0.015744 0.012348 0.027153
v -0.016949 -0.009921 0.041594
v -0.021763 0.002114 0.027153
v -0.021161 -0.005708 0.036181
v -0.016949 0.012348 0.031367
v -0.021763 -0.005106 0.027756
v -0.018754 0.012348 0.029562
v -0.015744 -0.012328 0.037984
v -0.018754 0.001512 0.039790
v -0.018754 -0.005708 0.042197
v -0.019355 -0.009921 0.036181
v -0.015744 0.012348 0.031367
v -0.017550 -0.014133 0.027756
v -0.015744 -0.008115 0.044001
f 453 445 457 
f 438 441 442 
f 442 441 444 
f 439 442 444 
f 441 438 446 
f 440 439 448 
f 444 441 448 
f 446 438 449 
f 443 446 449 
f 447 443 449 
f 438 447 449 
f 441 446 450 
f 446 443 450 
f 448 441 450 
f 442 439 451 
f 443 440 452 
f 440 448 452 
f 450 443 452 
f 448 450 452 
f 440 443 453 
f 443 447 453 
f 453 447 454 
f 447 438 454 
f 451 445 454 
f 445 453 454 
f 439 444 455 
f 448 439 455 
f 444 448 455 
f 438 442 456 
f 442 451 456 
f 454 438 456 
f 451 454 456 
f 439 440 457 
f 451 439 457 
f 445 451 457 
f 440 453 457 
o convex_13
v -0.003706 -0.018347 0.051233
v -0.011529 0.007531 0.061460
v -0.013335 0.007531 0.061460
v -0.003706 0.011144 0.041597
v -0.015743 -0.010523 0.041597
v -0.003706 -0.027378 0.041597
v -0.016947 0.010540 0.050024
v -0.015743 -0.006315 0.057241
v -0.003706 0.001513 0.056644
v -0.014539 0.003919 0.041597
v -0.010327 -0.014735 0.055440
v -0.003706 -0.008117 0.056644
v -0.017550 0.009334 0.050626
v -0.003706 0.008734 0.050030
v -0.010926 0.003919 0.061460
v -0.004309 -0.027378 0.042200
v -0.007921 0.009937 0.041597
v -0.015743 0.001513 0.041597
v -0.011529 0.008131 0.060857
v -0.003706 0.011144 0.043403
v -0.010327 -0.015338 0.054834
v -0.008524 0.005122 0.060254
v -0.013937 0.007531 0.060857
v -0.016947 0.010540 0.051229
v -0.012734 0.003919 0.061460
v -0.009125 -0.014735 0.055440
v -0.003706 -0.024365 0.045816
v -0.003706 -0.005711 0.057241
v -0.017550 0.008131 0.050024
v -0.015743 -0.010523 0.042200
f 465 486 487 
f 461 458 463 
f 462 461 463 
f 458 461 466 
f 461 462 467 
f 458 466 469 
f 466 461 471 
f 459 460 472 
f 462 463 473 
f 464 461 474 
f 461 467 474 
f 467 464 474 
f 467 462 475 
f 464 467 475 
f 470 464 475 
f 460 459 476 
f 476 471 477 
f 461 464 477 
f 471 461 477 
f 468 465 478 
f 466 471 479 
f 459 472 479 
f 476 459 479 
f 471 476 479 
f 465 460 480 
f 470 465 480 
f 470 480 481 
f 464 470 481 
f 460 476 481 
f 476 477 481 
f 477 464 481 
f 480 460 481 
f 460 465 482 
f 465 468 482 
f 472 460 482 
f 468 472 482 
f 458 469 483 
f 472 468 483 
f 469 472 483 
f 463 458 484 
f 473 463 484 
f 468 478 484 
f 478 473 484 
f 458 483 484 
f 483 468 484 
f 469 466 485 
f 472 469 485 
f 466 479 485 
f 479 472 485 
f 465 470 486 
f 475 462 486 
f 470 475 486 
f 462 473 487 
f 478 465 487 
f 473 478 487 
f 486 462 487 
o convex_14
v 0.015555 -0.005106 0.054238
v 0.004720 -0.014737 0.052431
v 0.007129 -0.016544 0.052431
v 0.010137 0.003919 0.061460
v 0.004720 0.005726 0.052431
v 0.012545 0.003318 0.052431
v 0.013146 0.008134 0.060857
v 0.015555 -0.006311 0.057246
v 0.004720 -0.002702 0.057848
v 0.008934 -0.014737 0.055441
v 0.013748 -0.009319 0.052431
v 0.008934 0.006929 0.060254
v 0.013146 0.008134 0.059052
v 0.005323 0.002115 0.058450
v 0.012545 0.003919 0.061460
v 0.010137 -0.014737 0.055441
v 0.004720 -0.009319 0.056043
v 0.013748 0.006929 0.058450
v 0.009537 -0.015940 0.052431
v 0.011341 0.004521 0.052431
v 0.014952 -0.005106 0.052431
f 493 505 508 
f 490 489 492 
f 490 492 493 
f 492 489 496 
f 489 490 497 
f 490 493 498 
f 488 495 498 
f 494 492 499 
f 491 494 499 
f 492 494 500 
f 496 491 501 
f 492 496 501 
f 499 492 501 
f 491 499 501 
f 494 491 502 
f 495 494 502 
f 491 497 502 
f 502 497 503 
f 497 490 503 
f 495 502 503 
f 496 489 504 
f 491 496 504 
f 489 497 504 
f 497 491 504 
f 494 495 505 
f 495 488 505 
f 493 500 505 
f 500 494 505 
f 490 498 506 
f 498 495 506 
f 503 490 506 
f 495 503 506 
f 493 492 507 
f 500 493 507 
f 492 500 507 
f 488 498 508 
f 498 493 508 
f 505 488 508 
o convex_15
v -0.022966 0.021376 0.045810
v -0.016949 0.012348 0.021734
v -0.015745 0.012348 0.021734
v -0.021161 0.021376 0.025948
v -0.015745 0.018967 0.033174
v -0.019356 0.016562 0.043402
v -0.021161 0.014757 0.031369
v -0.023568 0.020773 0.026552
v -0.015745 0.012348 0.031369
v -0.018754 0.021376 0.043402
v -0.024170 0.020773 0.044003
v -0.019356 0.012348 0.029561
v -0.015745 0.018365 0.027153
v -0.018152 0.017763 0.043402
v -0.021161 0.016562 0.042801
v -0.015745 0.014757 0.021734
v -0.024170 0.021376 0.032571
v -0.019356 0.021376 0.031967
v -0.019356 0.012348 0.027753
v -0.015745 0.017763 0.034974
f 518 522 528 
f 510 511 517 
f 511 513 517 
f 512 509 518 
f 510 517 520 
f 513 511 521 
f 509 514 522 
f 514 517 522 
f 518 509 522 
f 514 509 523 
f 517 514 523 
f 509 519 523 
f 519 515 523 
f 515 520 523 
f 520 517 523 
f 511 510 524 
f 510 516 524 
f 516 512 524 
f 521 511 524 
f 512 521 524 
f 509 512 525 
f 512 516 525 
f 516 515 525 
f 519 509 525 
f 515 519 525 
f 512 518 526 
f 518 513 526 
f 521 512 526 
f 513 521 526 
f 516 510 527 
f 515 516 527 
f 510 520 527 
f 520 515 527 
f 517 513 528 
f 513 518 528 
f 522 517 528 
o convex_16
v 0.020371 0.020775 0.026547
v 0.028194 0.029200 0.033169
v 0.027592 0.029200 0.033772
v 0.026388 0.028598 0.016317
v 0.019769 0.025589 0.033772
v 0.023381 0.020775 0.033772
v 0.028194 0.026191 0.016921
v 0.022779 0.029200 0.033169
v 0.026989 0.023784 0.023543
v 0.019166 0.020775 0.033772
v 0.019769 0.025589 0.031362
v 0.022779 0.020775 0.025947
v 0.028194 0.028598 0.016921
v 0.025184 0.021979 0.030760
v 0.026388 0.026793 0.016317
v 0.019769 0.021377 0.027751
v 0.027592 0.027394 0.033772
f 542 537 545 
f 531 533 534 
f 531 530 536 
f 530 532 536 
f 533 531 536 
f 534 533 538 
f 529 534 538 
f 536 532 539 
f 533 536 539 
f 538 533 539 
f 534 529 540 
f 535 537 540 
f 532 530 541 
f 530 535 541 
f 535 532 541 
f 534 540 542 
f 540 537 542 
f 529 532 543 
f 532 535 543 
f 540 529 543 
f 535 540 543 
f 532 529 544 
f 529 538 544 
f 539 532 544 
f 538 539 544 
f 530 531 545 
f 531 534 545 
f 535 530 545 
f 537 535 545 
f 534 542 545 
o convex_17
v 0.026390 0.032813 0.033168
v 0.025787 0.029201 0.028955
v 0.028194 0.029201 0.028955
v 0.028194 0.038229 0.019929
v 0.022777 0.030406 0.033772
v 0.030602 0.035821 0.025348
v 0.028194 0.029201 0.033168
v 0.029999 0.035821 0.019929
v 0.027592 0.035219 0.020533
v 0.028194 0.037627 0.024746
v 0.029999 0.031008 0.027752
v 0.029398 0.034015 0.030160
v 0.022777 0.029201 0.033168
v 0.029999 0.038229 0.022938
f 557 551 559 
f 547 548 552 
f 546 550 552 
f 548 547 554 
f 553 548 554 
f 549 553 554 
f 550 546 555 
f 549 550 555 
f 552 548 556 
f 548 553 556 
f 553 551 556 
f 546 552 557 
f 555 546 557 
f 552 556 557 
f 556 551 557 
f 550 549 558 
f 547 552 558 
f 552 550 558 
f 554 547 558 
f 549 554 558 
f 553 549 559 
f 551 553 559 
f 549 555 559 
f 555 557 559 
o convex_18
v 0.028797 0.035822 0.042800
v 0.017962 0.020774 0.039791
v 0.017962 0.020774 0.042199
v 0.029997 0.046051 0.034978
v 0.023979 0.021378 0.033772
v 0.023383 0.020774 0.045208
v 0.031805 0.039433 0.036783
v 0.019168 0.024390 0.033772
v 0.022780 0.028600 0.044606
v 0.031805 0.046652 0.034376
v 0.026990 0.026796 0.033772
v 0.028797 0.043041 0.039189
v 0.029997 0.034015 0.040993
v 0.032407 0.045450 0.037987
v 0.019168 0.020774 0.033772
v 0.017962 0.021378 0.042199
v 0.020370 0.021980 0.045810
v 0.033010 0.045450 0.034978
v 0.025184 0.025591 0.045208
v 0.023979 0.021378 0.044004
v 0.029997 0.046051 0.036783
v 0.028797 0.040636 0.040993
f 560 573 581 
f 562 561 565 
f 567 563 569 
f 567 569 570 
f 564 567 570 
f 570 566 572 
f 560 572 573 
f 572 566 573 
f 565 561 574 
f 564 565 574 
f 561 567 574 
f 567 564 574 
f 561 562 575 
f 567 561 575 
f 568 571 575 
f 562 565 576 
f 575 562 576 
f 568 575 576 
f 570 569 577 
f 566 570 577 
f 569 573 577 
f 573 566 577 
f 560 568 578 
f 572 560 578 
f 565 572 578 
f 576 565 578 
f 568 576 578 
f 565 564 579 
f 564 570 579 
f 572 565 579 
f 570 572 579 
f 563 567 580 
f 569 563 580 
f 573 569 580 
f 571 573 580 
f 567 575 580 
f 575 571 580 
f 568 560 581 
f 571 568 581 
f 573 571 581 
o convex_19
v -0.020561 0.023185 0.045208
v -0.033199 0.043042 0.035580
v -0.031993 0.038832 0.036783
v -0.019960 0.021376 0.034374
v -0.030790 0.046652 0.034978
v -0.024172 0.021376 0.034374
v -0.026577 0.027396 0.044604
v -0.030188 0.039432 0.041596
v -0.019358 0.023788 0.035581
v -0.024172 0.021376 0.044604
v -0.018757 0.021979 0.042799
v -0.027178 0.026195 0.034374
v -0.030790 0.035221 0.040994
v -0.029586 0.044246 0.037987
v -0.032596 0.046652 0.034376
v -0.033199 0.046049 0.037385
v -0.023571 0.027999 0.045208
v -0.019960 0.024991 0.034374
v -0.021164 0.021376 0.045810
v -0.022367 0.027999 0.044004
v -0.029586 0.041839 0.040392
f 601 595 602 
f 587 585 591 
f 585 590 592 
f 584 583 593 
f 585 587 593 
f 587 591 593 
f 593 591 594 
f 583 584 594 
f 588 589 594 
f 591 588 594 
f 584 593 594 
f 590 586 595 
f 592 590 595 
f 593 583 596 
f 583 594 597 
f 594 589 597 
f 595 586 597 
f 586 596 597 
f 596 583 597 
f 589 588 598 
f 590 585 599 
f 586 590 599 
f 585 593 599 
f 596 586 599 
f 593 596 599 
f 591 585 600 
f 588 591 600 
f 592 582 600 
f 585 592 600 
f 598 588 600 
f 582 598 600 
f 582 592 601 
f 592 595 601 
f 598 582 601 
f 598 601 602 
f 597 589 602 
f 595 597 602 
f 589 598 602 
o convex_20
v -0.028383 0.026793 0.016317
v -0.019958 0.024989 0.034374
v -0.019958 0.021376 0.034374
v -0.028986 0.029201 0.031963
v -0.024771 0.021376 0.033772
v -0.026577 0.028598 0.016920
v -0.022969 0.029201 0.034374
v -0.021163 0.021376 0.026550
v -0.027781 0.024387 0.022338
v -0.019958 0.025588 0.032568
v -0.027781 0.027395 0.034374
v -0.023570 0.021376 0.025346
v -0.028986 0.027996 0.017523
v -0.028986 0.028598 0.031963
f 606 615 616 
f 608 606 609 
f 605 604 609 
f 605 607 610 
f 603 608 610 
f 604 605 612 
f 608 609 612 
f 609 604 612 
f 605 610 612 
f 610 608 612 
f 607 605 613 
f 609 606 613 
f 605 609 613 
f 603 610 614 
f 610 607 614 
f 611 603 614 
f 607 611 614 
f 608 603 615 
f 606 608 615 
f 603 611 615 
f 615 611 616 
f 611 607 616 
f 607 613 616 
f 613 606 616 
o convex_21
v -0.028985 0.038229 0.022939
v -0.028383 0.029201 0.028954
v -0.030189 0.031008 0.027152
v -0.027781 0.032211 0.034374
v -0.022968 0.029201 0.033170
v -0.028383 0.035821 0.019929
v -0.030792 0.037627 0.024143
v -0.028985 0.029201 0.032567
v -0.022968 0.030406 0.034374
v -0.030792 0.035821 0.020533
v -0.027781 0.037627 0.021134
v -0.025978 0.029201 0.028954
v -0.030189 0.033415 0.030161
v -0.024774 0.032211 0.033771
v -0.030189 0.038229 0.019929
f 617 627 631 
f 620 617 623 
f 619 618 624 
f 618 621 624 
f 620 624 625 
f 624 621 625 
f 618 619 626 
f 622 618 626 
f 619 623 626 
f 621 622 627 
f 625 621 627 
f 621 618 628 
f 618 622 628 
f 622 621 628 
f 623 619 629 
f 620 623 629 
f 619 624 629 
f 624 620 629 
f 617 620 630 
f 620 625 630 
f 627 617 630 
f 625 627 630 
f 623 617 631 
f 622 626 631 
f 626 623 631 
f 627 622 631 
