o convex_0
v -0.016049 0.042431 -0.013826
v -0.004806 -0.044305 -0.025073
v 0.000807 -0.044305 -0.025073
v -0.008023 -0.027423 0.039981
v 0.041775 0.007093 -0.000181
v -0.030509 0.004689 -0.058813
v 0.026510 0.009506 -0.058001
v -0.044969 -0.007350 -0.003401
v -0.010427 0.026371 0.039981
v 0.016867 0.039222 -0.031504
v 0.033741 -0.027432 -0.015441
v 0.024098 0.007093 0.039981
v 0.009646 -0.027423 -0.058001
v -0.032922 -0.031444 -0.029889
v -0.040948 0.022358 -0.013033
v -0.012840 0.027979 -0.058001
v -0.029705 0.000667 0.039981
v 0.018476 0.036809 0.001415
v 0.013659 -0.022606 0.039981
v -0.029705 -0.031444 0.003020
v 0.037754 -0.011363 -0.039530
v 0.036949 0.020749 -0.029889
v -0.017657 -0.025814 -0.058001
v -0.043361 -0.008154 -0.037915
v -0.035326 0.025566 -0.037925
v 0.007233 -0.041883 -0.000993
v 0.022489 -0.036270 -0.031504
v 0.035341 -0.012971 0.008649
v 0.016072 0.020741 0.039981
v 0.013659 0.024762 -0.058813
v -0.009623 0.040831 -0.037925
v -0.016049 -0.041088 -0.003411
v -0.032118 0.026371 0.007836
v -0.025692 -0.015384 0.039981
v 0.002416 0.042440 -0.000993
v 0.032132 0.027979 -0.006612
v 0.024902 -0.033857 -0.001796
v -0.044969 0.007093 -0.032297
v 0.023293 -0.016189 -0.058001
v -0.007219 -0.039479 -0.041938
v -0.042556 -0.019397 -0.010625
v -0.043361 0.007898 0.001425
v 0.041775 -0.008958 -0.021059
v -0.024888 0.015923 0.039981
v -0.026496 -0.016180 -0.058813
v 0.040971 0.003885 -0.033902
v -0.028900 0.036005 -0.020257
v -0.017657 0.039222 0.001415
v 0.024098 -0.005741 0.039981
v 0.002416 0.027175 0.039981
v 0.005624 0.044048 -0.021059
v 0.027315 0.026371 -0.043544
v 0.004024 0.036818 -0.046764
v 0.031328 -0.025823 -0.037925
v -0.020875 -0.039479 -0.030701
v 0.012050 -0.037870 -0.041136
v -0.027300 0.028775 -0.045961
v 0.024902 0.036014 -0.019444
v -0.036131 -0.024214 -0.038718
v -0.029705 -0.035457 -0.013826
v 0.029719 0.022358 0.011057
v 0.014463 -0.041883 -0.020257
v 0.031328 -0.022614 0.007043
v -0.032922 0.014323 -0.053185
f 25 57 64 
f 9 4 12 
f 4 9 17 
f 12 4 19 
f 2 3 26 
f 19 4 26 
f 9 12 29 
f 6 16 30 
f 4 20 32 
f 2 26 32 
f 26 4 32 
f 4 17 34 
f 17 8 34 
f 20 4 34 
f 5 22 36 
f 19 26 37 
f 27 11 37 
f 24 8 38 
f 15 25 38 
f 7 21 39 
f 30 7 39 
f 3 2 40 
f 23 13 40 
f 8 24 41 
f 34 8 41 
f 20 34 41 
f 8 17 42 
f 33 15 42 
f 38 8 42 
f 15 38 42 
f 5 28 43 
f 28 11 43 
f 17 9 44 
f 9 33 44 
f 42 17 44 
f 33 42 44 
f 13 23 45 
f 24 6 45 
f 6 30 45 
f 39 13 45 
f 30 39 45 
f 21 7 46 
f 7 22 46 
f 22 5 46 
f 43 21 46 
f 5 43 46 
f 25 15 47 
f 1 31 47 
f 15 33 47 
f 47 33 48 
f 33 9 48 
f 35 1 48 
f 9 35 48 
f 1 47 48 
f 5 12 49 
f 12 19 49 
f 28 5 49 
f 9 29 50 
f 29 18 50 
f 35 9 50 
f 18 35 50 
f 31 1 51 
f 1 35 51 
f 35 18 51 
f 22 7 52 
f 7 30 52 
f 30 10 52 
f 30 16 53 
f 10 30 53 
f 16 31 53 
f 51 10 53 
f 31 51 53 
f 11 27 54 
f 39 21 54 
f 13 39 54 
f 43 11 54 
f 21 43 54 
f 2 32 55 
f 40 2 55 
f 23 40 55 
f 3 40 56 
f 40 13 56 
f 13 54 56 
f 54 27 56 
f 31 16 57 
f 25 47 57 
f 47 31 57 
f 18 36 58 
f 36 22 58 
f 10 51 58 
f 51 18 58 
f 22 52 58 
f 52 10 58 
f 14 41 59 
f 41 24 59 
f 45 23 59 
f 24 45 59 
f 55 14 59 
f 23 55 59 
f 32 20 60 
f 41 14 60 
f 20 41 60 
f 14 55 60 
f 55 32 60 
f 12 5 61 
f 29 12 61 
f 18 29 61 
f 36 18 61 
f 5 36 61 
f 26 3 62 
f 37 26 62 
f 27 37 62 
f 3 56 62 
f 56 27 62 
f 11 28 63 
f 19 37 63 
f 37 11 63 
f 49 19 63 
f 28 49 63 
f 16 6 64 
f 6 24 64 
f 24 38 64 
f 38 25 64 
f 57 16 64 
o convex_1
v 0.050610 0.008706 0.064076
v 0.041775 -0.007357 0.057652
v 0.041775 -0.007357 0.060062
v 0.058642 -0.006553 0.062471
v 0.058642 0.007904 0.057652
v 0.041775 0.007100 0.055243
v 0.058642 -0.003338 0.057652
v 0.058642 0.001476 0.065684
v 0.042579 0.003887 0.063272
v 0.042579 -0.003338 0.054439
v 0.049808 -0.003338 0.064881
v 0.058642 0.009510 0.063272
v 0.041775 0.008706 0.060864
v 0.045794 0.009510 0.059259
v 0.052215 0.003084 0.065684
v 0.041775 -0.003338 0.062471
v 0.058642 -0.006553 0.060062
v 0.043383 0.003084 0.054439
v 0.056230 -0.005751 0.064076
v 0.058642 0.009510 0.059259
v 0.042579 -0.006553 0.056046
v 0.044988 -0.006553 0.062471
v 0.058642 0.007100 0.064881
f 79 72 87 
f 67 66 68 
f 66 67 70 
f 69 68 71 
f 68 69 72 
f 66 70 74 
f 72 69 76 
f 70 67 77 
f 73 65 77 
f 65 76 78 
f 70 77 78 
f 77 65 78 
f 65 73 79 
f 75 72 79 
f 73 75 79 
f 75 73 80 
f 77 67 80 
f 73 77 80 
f 68 66 81 
f 71 68 81 
f 70 69 82 
f 69 71 82 
f 74 70 82 
f 71 74 82 
f 68 72 83 
f 72 75 83 
f 69 70 84 
f 76 69 84 
f 70 78 84 
f 78 76 84 
f 66 74 85 
f 74 71 85 
f 81 66 85 
f 71 81 85 
f 67 68 86 
f 80 67 86 
f 75 80 86 
f 68 83 86 
f 83 75 86 
f 76 65 87 
f 72 76 87 
f 65 79 87 
o convex_2
v 0.074704 0.005493 0.056847
v 0.069083 0.001479 0.046407
v 0.069083 0.008705 0.046407
v 0.058642 0.007100 0.064881
v 0.058642 -0.006554 0.060060
v 0.077917 -0.001733 0.046407
v 0.068283 -0.003340 0.061666
v 0.074704 0.011117 0.049622
v 0.058642 0.007903 0.057651
v 0.064267 0.009510 0.062470
v 0.073098 -0.004143 0.056847
v 0.072294 -0.003340 0.046407
v 0.059448 0.010312 0.060060
v 0.058642 -0.003340 0.064881
v 0.077917 0.007100 0.046407
v 0.065071 0.004689 0.064074
v 0.058642 -0.000931 0.056847
v 0.071492 0.011117 0.046407
v 0.077113 -0.000128 0.052834
v 0.075507 -0.004143 0.048818
v 0.069884 0.010312 0.058454
v 0.065071 -0.005750 0.061666
v 0.070688 0.005493 0.060865
v 0.076311 0.007903 0.052834
v 0.073902 -0.001733 0.057651
v 0.058642 -0.004143 0.057651
v 0.061858 -0.001733 0.064881
v 0.068283 -0.000931 0.062470
v 0.078719 0.002281 0.047212
f 111 106 116 
f 89 90 93 
f 92 91 96 
f 89 93 99 
f 96 91 100 
f 91 97 100 
f 91 92 101 
f 93 90 102 
f 97 91 103 
f 90 89 104 
f 96 90 104 
f 92 96 104 
f 90 96 105 
f 100 95 105 
f 96 100 105 
f 102 90 105 
f 95 102 105 
f 92 99 107 
f 99 93 107 
f 106 98 107 
f 93 106 107 
f 95 100 108 
f 100 97 108 
f 98 94 109 
f 101 92 109 
f 92 107 109 
f 107 98 109 
f 97 103 110 
f 88 108 110 
f 108 97 110 
f 102 95 111 
f 88 106 111 
f 108 88 111 
f 95 108 111 
f 94 98 112 
f 106 88 112 
f 98 106 112 
f 88 110 112 
f 89 99 113 
f 99 92 113 
f 104 89 113 
f 92 104 113 
f 91 101 114 
f 103 91 114 
f 109 94 114 
f 101 109 114 
f 110 103 115 
f 94 112 115 
f 112 110 115 
f 114 94 115 
f 103 114 115 
f 93 102 116 
f 106 93 116 
f 102 111 116 
o convex_3
v 0.045793 0.008706 -0.014636
v 0.046595 -0.004143 -0.016242
v 0.048200 -0.004143 -0.016242
v 0.045793 -0.004143 -0.005802
v 0.053020 0.003886 -0.016242
v 0.041775 0.007902 -0.005802
v 0.041775 0.000675 -0.017850
v 0.047398 0.006296 -0.005802
v 0.041775 -0.003339 -0.005802
v 0.051413 0.004690 -0.019456
v 0.053020 -0.000127 -0.016242
v 0.041775 0.004690 -0.017045
v 0.048200 -0.001733 -0.005802
v 0.051413 -0.000127 -0.019456
v 0.042579 -0.004143 -0.013028
v 0.050608 0.007098 -0.016242
v 0.044988 0.008706 -0.005802
v 0.041775 0.007902 -0.013833
v 0.045793 0.007098 -0.017850
v 0.051413 -0.002536 -0.015438
f 130 127 136 
f 118 119 120 
f 122 120 124 
f 120 122 125 
f 122 123 125 
f 126 121 127 
f 123 122 128 
f 121 124 129 
f 124 120 129 
f 127 121 129 
f 119 118 130 
f 118 123 130 
f 123 126 130 
f 126 127 130 
f 118 120 131 
f 123 118 131 
f 120 125 131 
f 125 123 131 
f 124 121 132 
f 121 126 132 
f 122 124 133 
f 132 117 133 
f 124 132 133 
f 128 122 134 
f 133 117 134 
f 122 133 134 
f 126 123 135 
f 123 128 135 
f 117 132 135 
f 132 126 135 
f 134 117 135 
f 128 134 135 
f 120 119 136 
f 129 120 136 
f 127 129 136 
f 119 130 136 
o convex_4
v 0.053823 0.007902 0.015079
v 0.042579 -0.004143 -0.005799
v 0.045792 -0.004143 -0.005799
v 0.042579 0.008706 -0.005799
v 0.041775 0.005492 0.003035
v 0.053019 -0.001733 0.015079
v 0.053823 0.003084 0.004642
v 0.046596 0.007902 -0.005799
v 0.053823 -0.003339 0.007048
v 0.041775 -0.002536 -0.000176
v 0.048200 -0.001733 -0.005799
v 0.053823 0.008706 0.010261
v 0.053019 0.006296 0.016686
v 0.053823 -0.003339 0.012669
v 0.044187 0.008706 0.001429
v 0.042579 0.000675 0.003839
v 0.041775 0.007902 -0.005799
v 0.048200 0.004690 -0.005799
v 0.043383 -0.004143 -0.000979
v 0.052216 0.002281 0.015883
v 0.047398 0.007902 0.008655
v 0.053823 0.007902 0.007851
f 154 144 158 
f 139 138 140 
f 139 140 144 
f 143 137 145 
f 139 144 147 
f 145 139 147 
f 143 145 147 
f 137 143 148 
f 144 140 148 
f 142 137 149 
f 137 142 150 
f 139 145 150 
f 145 137 150 
f 137 148 151 
f 148 140 151 
f 141 146 152 
f 146 142 152 
f 140 138 153 
f 138 146 153 
f 146 141 153 
f 151 140 153 
f 141 151 153 
f 143 147 154 
f 147 144 154 
f 138 139 155 
f 146 138 155 
f 142 146 155 
f 139 150 155 
f 150 142 155 
f 149 141 156 
f 142 149 156 
f 141 152 156 
f 152 142 156 
f 149 137 157 
f 141 149 157 
f 151 141 157 
f 137 151 157 
f 148 143 158 
f 144 148 158 
f 143 154 158 
o convex_5
v 0.065067 0.010313 0.025520
v 0.053823 -0.003341 0.008658
v 0.053823 -0.002538 0.007051
v 0.066675 -0.002538 0.022310
v 0.065869 0.001479 0.033556
v 0.053823 0.007904 0.016691
v 0.054627 0.006296 0.007051
v 0.066675 0.005494 0.019901
v 0.053823 -0.002538 0.015087
v 0.066675 0.007904 0.033556
v 0.066675 -0.002538 0.028736
v 0.054627 -0.001735 0.006247
v 0.053823 0.008707 0.011066
v 0.066675 0.009510 0.023112
v 0.053823 0.001479 0.017493
v 0.065869 0.007904 0.033556
v 0.066675 0.000675 0.019901
v 0.065869 0.010313 0.029538
v 0.057840 0.002283 0.009460
v 0.059446 -0.003341 0.019102
f 169 167 178 
f 161 160 164 
f 164 160 167 
f 162 166 168 
f 163 167 169 
f 162 168 169 
f 168 163 169 
f 160 161 170 
f 162 160 170 
f 161 165 170 
f 161 164 171 
f 165 161 171 
f 165 171 172 
f 166 165 172 
f 168 166 172 
f 171 159 172 
f 167 163 173 
f 164 167 173 
f 163 168 174 
f 173 163 174 
f 164 173 174 
f 166 162 175 
f 162 170 175 
f 159 171 176 
f 171 164 176 
f 172 159 176 
f 168 172 176 
f 164 174 176 
f 174 168 176 
f 165 166 177 
f 170 165 177 
f 166 175 177 
f 175 170 177 
f 160 162 178 
f 167 160 178 
f 162 169 178 
o convex_6
v 0.074705 0.011117 0.039175
v 0.073099 -0.003341 0.035963
v 0.073902 -0.003341 0.035963
v 0.066676 0.004689 0.020707
v 0.069086 0.007903 0.046405
v 0.078723 0.000677 0.042387
v 0.070692 -0.001733 0.046405
v 0.066676 -0.002536 0.029541
v 0.066676 0.010313 0.031148
v 0.075508 0.011117 0.046405
v 0.074705 0.003888 0.030346
v 0.067480 -0.002536 0.023117
v 0.076311 -0.003341 0.046405
v 0.069086 0.009509 0.025526
v 0.077114 0.007903 0.038373
v 0.076311 -0.000931 0.034358
v 0.066676 0.001479 0.035161
v 0.078723 0.003087 0.046405
v 0.071495 0.011117 0.046405
v 0.069889 -0.000127 0.023922
v 0.072298 -0.003341 0.046405
v 0.074705 0.009509 0.033556
v 0.066676 0.010313 0.026329
v 0.069889 0.006296 0.023922
v 0.069086 0.002282 0.046405
v 0.077114 0.003087 0.035161
v 0.077114 -0.002536 0.039980
f 181 194 205 
f 182 186 187 
f 183 185 188 
f 181 180 190 
f 180 186 190 
f 186 182 190 
f 180 181 191 
f 188 185 191 
f 179 188 193 
f 181 190 194 
f 183 187 195 
f 187 186 195 
f 191 184 196 
f 188 191 196 
f 193 188 196 
f 184 193 196 
f 187 183 197 
f 188 179 197 
f 183 188 197 
f 190 182 198 
f 194 190 198 
f 189 194 198 
f 186 180 199 
f 185 186 199 
f 180 191 199 
f 191 185 199 
f 192 179 200 
f 179 193 200 
f 182 187 201 
f 179 192 201 
f 192 182 201 
f 197 179 201 
f 187 197 201 
f 182 192 202 
f 198 182 202 
f 189 198 202 
f 192 200 202 
f 200 189 202 
f 185 183 203 
f 186 185 203 
f 183 195 203 
f 195 186 203 
f 193 184 204 
f 184 194 204 
f 194 189 204 
f 189 200 204 
f 200 193 204 
f 191 181 205 
f 184 191 205 
f 194 184 205 
o convex_7
v 0.024107 0.009510 0.056044
v 0.018482 -0.008160 0.039981
v 0.018482 -0.008160 0.044804
v 0.041775 -0.007356 0.056847
v 0.031330 0.005492 0.041590
v 0.041775 0.008704 0.060862
v 0.029727 -0.008160 0.060059
v 0.018482 0.009510 0.039986
v 0.032135 -0.000126 0.039986
v 0.041775 0.008704 0.056044
v 0.030530 0.009510 0.060862
v 0.041775 -0.002537 0.062469
v 0.030530 -0.006553 0.042394
v 0.020089 0.008704 0.051225
v 0.021697 -0.008160 0.052830
v 0.041775 -0.001731 0.053633
v 0.022499 0.009510 0.039986
v 0.023302 -0.008160 0.039981
v 0.018482 0.009510 0.047212
v 0.032135 -0.003340 0.040787
v 0.041775 -0.007356 0.060059
v 0.041775 0.006296 0.054437
v 0.041775 0.004690 0.062469
v 0.020089 -0.008160 0.050424
v 0.034545 -0.008160 0.057651
v 0.033740 0.009510 0.057648
f 222 216 231 
f 208 207 212 
f 207 208 213 
f 211 209 215 
f 206 212 216 
f 213 206 216 
f 209 211 217 
f 216 212 217 
f 212 206 220 
f 208 212 220 
f 206 219 220 
f 215 209 221 
f 207 213 222 
f 210 214 222 
f 215 210 222 
f 213 216 222 
f 212 207 223 
f 218 209 223 
f 207 222 223 
f 222 214 223 
f 206 213 224 
f 213 208 224 
f 219 206 224 
f 209 218 225 
f 221 209 225 
f 214 221 225 
f 218 223 225 
f 223 214 225 
f 209 217 226 
f 217 212 226 
f 214 210 227 
f 210 215 227 
f 221 214 227 
f 215 221 227 
f 211 216 228 
f 217 211 228 
f 216 217 228 
f 208 220 229 
f 220 219 229 
f 224 208 229 
f 219 224 229 
f 212 223 230 
f 223 209 230 
f 209 226 230 
f 226 212 230 
f 211 215 231 
f 216 211 231 
f 215 222 231 
o convex_8
v -0.008828 -0.028241 0.051226
v -0.022479 -0.019407 0.039981
v -0.022479 -0.018603 0.039981
v 0.000811 -0.023422 0.039981
v -0.017658 -0.018603 0.051226
v -0.008026 -0.027436 0.039981
v 0.000811 -0.028241 0.051226
v -0.020071 -0.023422 0.051226
v 0.000811 -0.023422 0.050423
v -0.016052 -0.018603 0.039981
v 0.000811 -0.027436 0.039981
v -0.024088 -0.018603 0.051226
v 0.000811 -0.022619 0.046405
v -0.011241 -0.026633 0.039981
v -0.017658 -0.023422 0.039981
f 233 245 246 
f 233 234 235 
f 233 235 237 
f 236 232 238 
f 232 237 238 
f 232 236 239 
f 238 235 240 
f 236 238 240 
f 235 234 241 
f 234 236 241 
f 237 235 242 
f 235 238 242 
f 238 237 242 
f 234 233 243 
f 236 234 243 
f 233 239 243 
f 239 236 243 
f 240 235 244 
f 236 240 244 
f 235 241 244 
f 241 236 244 
f 233 237 245 
f 237 232 245 
f 232 239 245 
f 245 239 246 
f 239 233 246 
o convex_9
v -0.017664 -0.030648 0.064076
v -0.024888 -0.019407 0.051226
v -0.024888 -0.018605 0.051226
v 0.000811 -0.028240 0.051226
v -0.036135 -0.018605 0.066487
v 0.000811 -0.025830 0.056849
v -0.027300 -0.029042 0.063274
v -0.010440 -0.028240 0.051226
v -0.017664 -0.018605 0.052031
v -0.040956 -0.019407 0.064076
v -0.027300 -0.026633 0.067291
v -0.006421 -0.031453 0.057655
v 0.000006 -0.029846 0.058456
v 0.000811 -0.024226 0.051226
v -0.033719 -0.026633 0.067291
v -0.021671 -0.022620 0.051226
v -0.036135 -0.025028 0.064878
v -0.026495 -0.018605 0.060862
v 0.000006 -0.027436 0.058456
v -0.018474 -0.030648 0.060060
v -0.016863 -0.025830 0.051226
v -0.040956 -0.018605 0.065682
v 0.000811 -0.024226 0.052833
v -0.022480 -0.030648 0.064878
v 0.000811 -0.029846 0.053638
v -0.024087 -0.026633 0.066487
f 259 265 272 
f 248 249 250 
f 248 250 254 
f 249 251 255 
f 249 248 256 
f 247 258 259 
f 250 249 260 
f 252 250 260 
f 249 255 260 
f 257 251 261 
f 248 254 262 
f 256 248 262 
f 256 262 263 
f 253 261 263 
f 251 252 264 
f 255 251 264 
f 252 251 265 
f 259 252 265 
f 254 258 266 
f 262 254 267 
f 263 262 267 
f 253 263 267 
f 266 253 267 
f 254 266 267 
f 251 249 268 
f 249 256 268 
f 261 251 268 
f 256 263 268 
f 263 261 268 
f 252 260 269 
f 260 255 269 
f 264 252 269 
f 255 264 269 
f 247 257 270 
f 258 247 270 
f 261 253 270 
f 257 261 270 
f 253 266 270 
f 266 258 270 
f 250 252 271 
f 254 250 271 
f 258 254 271 
f 252 259 271 
f 259 258 271 
f 251 257 272 
f 257 247 272 
f 247 259 272 
f 265 251 272 
o convex_10
v -0.016861 -0.018602 0.047210
v -0.031317 -0.007357 0.049620
v -0.031317 -0.007357 0.050423
v -0.025694 -0.002538 0.046405
v -0.024089 -0.017799 0.039981
v -0.025694 -0.002538 0.039981
v -0.024890 -0.018602 0.050423
v -0.016861 -0.017799 0.039981
v -0.027300 -0.002538 0.050423
v -0.028906 -0.002538 0.039981
v -0.018468 -0.017799 0.050423
v -0.028102 -0.010570 0.039981
v -0.031317 -0.002538 0.050423
v -0.028102 -0.014583 0.049620
v -0.023286 -0.018602 0.039981
v -0.016861 -0.017799 0.047210
f 281 283 288 
f 277 278 280 
f 278 276 280 
f 276 278 281 
f 275 279 281 
f 278 277 282 
f 281 278 282 
f 279 273 283 
f 281 279 283 
f 274 282 284 
f 282 277 284 
f 274 275 285 
f 275 281 285 
f 282 274 285 
f 281 282 285 
f 275 274 286 
f 279 275 286 
f 277 279 286 
f 274 284 286 
f 284 277 286 
f 273 279 287 
f 279 277 287 
f 280 273 287 
f 277 280 287 
f 273 280 288 
f 280 276 288 
f 276 281 288 
f 283 273 288 
o convex_11
v -0.029715 -0.018602 0.062471
v -0.032117 -0.006557 0.050423
v -0.032117 -0.002538 0.050423
v -0.044969 -0.006557 0.064879
v -0.040953 -0.018602 0.063273
v -0.018466 -0.018602 0.050423
v -0.034527 -0.002538 0.059257
v -0.024894 -0.018602 0.050423
v -0.044969 -0.002538 0.061666
v -0.044165 -0.011372 0.061666
v -0.037739 -0.017799 0.066487
v -0.042559 -0.002538 0.064879
v -0.028106 -0.002538 0.052030
v -0.019272 -0.017799 0.052835
v -0.027304 -0.017799 0.060864
v -0.028910 -0.013781 0.050423
v -0.040953 -0.018602 0.065684
v -0.027304 -0.003341 0.050423
v -0.041755 -0.016995 0.062471
f 305 298 307 
f 290 291 294 
f 289 293 294 
f 290 294 296 
f 294 293 296 
f 291 290 297 
f 295 291 297 
f 297 290 298 
f 292 297 298 
f 297 292 300 
f 295 297 300 
f 299 289 300 
f 292 299 300 
f 291 295 301 
f 301 295 302 
f 289 294 302 
f 300 289 303 
f 295 300 303 
f 302 295 303 
f 289 302 303 
f 290 296 304 
f 298 290 304 
f 293 289 305 
f 292 298 305 
f 289 299 305 
f 299 292 305 
f 294 291 306 
f 291 301 306 
f 301 302 306 
f 302 294 306 
f 296 293 307 
f 304 296 307 
f 298 304 307 
f 293 305 307 
o convex_12
v -0.025694 0.015935 0.048816
v -0.031317 -0.002538 0.048816
v -0.031317 -0.002538 0.050423
v -0.016861 0.016736 0.041588
v -0.028102 0.008705 0.039981
v -0.025694 -0.002538 0.039981
v -0.018468 0.016736 0.050423
v -0.026496 -0.002538 0.048816
v -0.023286 0.017542 0.039981
v -0.029708 0.009509 0.050423
v -0.029708 -0.002538 0.039981
v -0.031317 0.004691 0.049620
v -0.017664 0.017542 0.039981
v -0.024089 0.017542 0.050423
v -0.016861 0.016736 0.045602
v -0.027300 -0.002538 0.050423
v -0.025694 -0.002538 0.046405
v -0.025694 0.014327 0.039981
f 317 308 325 
f 310 309 313 
f 310 313 315 
f 313 312 316 
f 310 314 317 
f 313 309 318 
f 312 313 318 
f 309 310 319 
f 310 317 319 
f 317 312 319 
f 318 309 319 
f 312 318 319 
f 311 313 320 
f 313 316 320 
f 320 316 321 
f 316 308 321 
f 308 317 321 
f 317 314 321 
f 314 320 321 
f 313 311 322 
f 314 315 322 
f 311 320 322 
f 320 314 322 
f 314 310 323 
f 310 315 323 
f 315 314 323 
f 315 313 324 
f 313 322 324 
f 322 315 324 
f 308 316 325 
f 316 312 325 
f 312 317 325 
o convex_13
v -0.044969 0.005495 0.064878
v -0.018466 0.017542 0.051227
v -0.018466 0.017542 0.050423
v -0.028106 -0.002538 0.050423
v -0.030516 0.008705 0.050423
v -0.036133 0.017542 0.067291
v -0.038543 -0.002538 0.062469
v -0.039345 0.017542 0.064076
v -0.044969 -0.002538 0.061667
v -0.021683 0.016736 0.056047
v -0.024894 0.017542 0.050423
v -0.043360 0.011113 0.063272
v -0.028910 -0.002538 0.053636
v -0.032117 -0.002538 0.050423
v -0.042559 -0.002538 0.064878
v -0.032921 0.016736 0.065682
v -0.041755 0.014327 0.066486
v -0.044165 0.003891 0.061667
v -0.032117 0.003086 0.050423
v -0.034527 -0.002538 0.059258
v -0.044969 -0.002538 0.064878
v -0.026500 0.015935 0.050423
v -0.029715 0.016736 0.063272
f 345 335 348 
f 328 327 329 
f 328 329 330 
f 327 328 331 
f 331 328 333 
f 329 332 334 
f 327 331 335 
f 328 330 336 
f 333 328 336 
f 329 327 338 
f 332 329 338 
f 327 335 338 
f 330 329 339 
f 329 334 339 
f 334 332 340 
f 331 340 341 
f 340 332 341 
f 331 333 342 
f 333 337 342 
f 337 326 342 
f 334 326 343 
f 326 337 343 
f 337 330 343 
f 330 339 344 
f 339 334 344 
f 334 343 344 
f 343 330 344 
f 332 338 345 
f 338 335 345 
f 326 334 346 
f 340 331 346 
f 334 340 346 
f 331 342 346 
f 342 326 346 
f 336 330 347 
f 333 336 347 
f 337 333 347 
f 330 337 347 
f 335 331 348 
f 331 341 348 
f 341 332 348 
f 332 345 348 
o convex_14
v -0.012842 0.025573 0.050423
v -0.022479 0.017542 0.039981
v -0.024088 0.017542 0.049620
v 0.000811 0.022362 0.050423
v 0.000811 0.027181 0.039981
v -0.016052 0.023966 0.039981
v 0.000811 0.022362 0.040785
v -0.016052 0.017542 0.046405
v 0.000811 0.026377 0.050423
v -0.021678 0.020757 0.050423
v -0.005616 0.027181 0.039981
v -0.016052 0.017542 0.039981
v -0.017658 0.017542 0.050423
v -0.009632 0.026377 0.050423
f 357 359 362 
f 353 350 354 
f 353 352 355 
f 351 350 356 
f 355 352 356 
f 349 352 357 
f 352 353 357 
f 350 351 358 
f 352 349 358 
f 354 350 358 
f 349 354 358 
f 353 354 359 
f 354 349 359 
f 357 353 359 
f 350 353 360 
f 353 355 360 
f 356 350 360 
f 355 356 360 
f 351 356 361 
f 356 352 361 
f 358 351 361 
f 352 358 361 
f 349 357 362 
f 359 349 362 
o convex_15
v -0.026493 0.026376 0.064878
v -0.024084 0.017543 0.050423
v -0.024084 0.018347 0.050423
v 0.000807 0.024770 0.056851
v -0.035328 0.017543 0.067291
v -0.004817 0.027179 0.050423
v -0.017665 0.017543 0.050423
v -0.031311 0.024770 0.063272
v -0.018467 0.028786 0.059258
v -0.000800 0.027983 0.057655
v 0.000807 0.023165 0.050423
v -0.039345 0.018347 0.065682
v -0.017665 0.023967 0.050423
v -0.020872 0.017543 0.056047
v 0.000807 0.027983 0.053636
v 0.000807 0.023165 0.053636
v -0.032919 0.020756 0.067291
v -0.035328 0.022363 0.066486
v -0.032117 0.017543 0.065682
v -0.012847 0.028786 0.060059
v -0.003209 0.028786 0.055244
v -0.023282 0.027983 0.060863
v -0.038539 0.017543 0.064076
v 0.000807 0.027179 0.050423
v -0.037738 0.018347 0.063272
v -0.013648 0.025574 0.050423
f 384 371 388 
f 364 365 368 
f 367 364 369 
f 364 368 369 
f 369 368 373 
f 368 365 375 
f 365 370 375 
f 367 369 376 
f 372 366 377 
f 366 373 377 
f 373 366 378 
f 369 373 378 
f 376 369 378 
f 367 366 379 
f 372 363 379 
f 366 372 379 
f 363 370 380 
f 374 367 380 
f 370 374 380 
f 367 379 380 
f 379 363 380 
f 366 367 381 
f 367 376 381 
f 378 366 381 
f 376 378 381 
f 363 372 382 
f 368 371 383 
f 372 377 383 
f 371 382 383 
f 382 372 383 
f 370 363 384 
f 375 370 384 
f 363 382 384 
f 382 371 384 
f 364 367 385 
f 367 374 385 
f 373 368 386 
f 377 373 386 
f 368 383 386 
f 383 377 386 
f 365 364 387 
f 370 365 387 
f 374 370 387 
f 364 385 387 
f 385 374 387 
f 371 368 388 
f 368 375 388 
f 375 384 388 
o convex_16
v 0.008042 -0.025830 0.048014
v 0.021695 -0.012980 0.048014
v 0.021695 -0.013783 0.048014
v 0.001615 -0.022616 0.039981
v 0.014465 -0.021813 0.039981
v 0.001615 -0.022616 0.048014
v 0.016071 -0.012980 0.039981
v 0.000811 -0.027437 0.039981
v 0.016071 -0.012980 0.048014
v 0.020891 -0.013783 0.039981
v 0.000811 -0.027437 0.048014
v 0.013659 -0.022616 0.048014
v 0.000811 -0.022616 0.047210
v 0.009650 -0.025027 0.039981
v 0.018481 -0.017801 0.039981
v 0.000811 -0.022616 0.040785
f 396 401 404 
f 391 390 389 
f 389 390 394 
f 393 392 395 
f 392 393 396 
f 394 390 397 
f 390 395 397 
f 390 391 398 
f 395 390 398 
f 393 395 398 
f 389 394 399 
f 396 389 399 
f 391 389 400 
f 394 397 401 
f 397 395 401 
f 399 394 401 
f 396 399 401 
f 389 396 402 
f 396 393 402 
f 400 389 402 
f 393 400 402 
f 398 391 403 
f 393 398 403 
f 391 400 403 
f 400 393 403 
f 395 392 404 
f 392 396 404 
f 401 395 404 
o convex_17
v 0.006435 -0.028241 0.052030
v 0.032137 -0.012980 0.059257
v 0.032137 -0.012980 0.057650
v 0.016870 -0.012980 0.049621
v 0.000811 -0.026634 0.057650
v 0.021693 -0.023421 0.056045
v 0.019280 -0.017799 0.048014
v 0.000811 -0.023421 0.048014
v 0.025707 -0.012980 0.059257
v 0.002418 -0.029847 0.057650
v 0.003221 -0.027436 0.048014
v 0.026513 -0.018603 0.060062
v 0.021693 -0.012980 0.048014
v 0.012862 -0.023421 0.048014
v 0.000811 -0.024223 0.053637
v 0.000811 -0.029847 0.053637
v 0.014472 -0.026634 0.054439
v 0.023300 -0.022617 0.058454
v 0.018476 -0.012980 0.052835
v 0.029723 -0.016997 0.057650
v 0.027316 -0.012980 0.060062
v 0.016870 -0.012980 0.048014
f 417 412 426 
f 406 407 408 
f 406 408 413 
f 412 411 415 
f 409 414 416 
f 408 407 417 
f 407 411 417 
f 411 412 417 
f 411 410 418 
f 415 411 418 
f 408 412 419 
f 412 409 419 
f 409 412 420 
f 414 409 420 
f 412 415 420 
f 415 405 420 
f 405 415 421 
f 418 410 421 
f 415 418 421 
f 414 420 421 
f 420 405 421 
f 416 414 422 
f 421 410 422 
f 414 421 422 
f 413 408 423 
f 409 413 423 
f 408 419 423 
f 419 409 423 
f 407 406 424 
f 410 411 424 
f 411 407 424 
f 406 416 424 
f 422 410 424 
f 416 422 424 
f 406 413 425 
f 413 409 425 
f 416 406 425 
f 409 416 425 
f 412 408 426 
f 408 417 426 
o convex_18
v 0.016072 -0.012980 0.045607
v 0.033743 -0.008160 0.060062
v 0.029725 -0.008160 0.060062
v 0.022500 -0.008160 0.039981
v 0.032134 -0.012980 0.057652
v 0.020893 -0.012980 0.039981
v 0.019286 -0.008160 0.048821
v 0.024105 -0.012980 0.057652
v 0.018485 -0.008160 0.039981
v 0.033743 -0.010570 0.057652
v 0.018485 -0.012176 0.052026
v 0.032134 -0.012980 0.060062
v 0.016072 -0.012980 0.039981
v 0.020893 -0.008964 0.052832
f 437 434 440 
f 429 428 430 
f 431 427 432 
f 429 430 433 
f 427 431 434 
f 430 432 435 
f 427 433 435 
f 433 430 435 
f 430 428 436 
f 432 430 436 
f 431 432 436 
f 433 427 437 
f 427 434 437 
f 428 429 438 
f 434 431 438 
f 429 434 438 
f 436 428 438 
f 431 436 438 
f 432 427 439 
f 427 435 439 
f 435 432 439 
f 429 433 440 
f 434 429 440 
f 433 437 440 
o convex_19
v 0.033743 0.011117 0.058453
v 0.015272 0.025574 0.058453
v 0.015272 0.025574 0.056044
v 0.019287 0.009510 0.048817
v 0.029726 0.009510 0.060865
v 0.020895 0.016742 0.048817
v 0.014466 0.022359 0.059257
v 0.025710 0.020755 0.060061
v 0.014466 0.021558 0.048817
v 0.024104 0.009510 0.048817
v 0.026512 0.019950 0.057651
v 0.020091 0.009510 0.052030
v 0.014466 0.015938 0.050424
v 0.021697 0.020755 0.060865
v 0.032939 0.009510 0.060865
v 0.030530 0.015938 0.060865
v 0.032135 0.013529 0.057651
v 0.016879 0.020755 0.048817
f 443 451 458 
f 442 443 447 
f 443 442 448 
f 446 444 449 
f 447 443 449 
f 445 444 450 
f 444 446 450 
f 443 448 451 
f 444 445 452 
f 445 447 452 
f 452 447 453 
f 449 444 453 
f 447 449 453 
f 444 452 453 
f 442 447 454 
f 447 445 454 
f 448 442 454 
f 450 441 455 
f 445 450 455 
f 454 445 455 
f 451 448 456 
f 448 454 456 
f 454 455 456 
f 455 441 456 
f 441 450 457 
f 450 446 457 
f 446 451 457 
f 456 441 457 
f 451 456 457 
f 446 449 458 
f 449 443 458 
f 451 446 458 
o convex_20
v 0.000811 0.022361 0.039981
v 0.014466 0.023966 0.059258
v 0.014466 0.022361 0.059258
v 0.014466 0.015936 0.039981
v 0.008038 0.025572 0.039981
v 0.000811 0.024770 0.056847
v 0.013663 0.015936 0.048818
v 0.000811 0.027984 0.053635
v 0.014466 0.025572 0.055239
v 0.014466 0.021559 0.039981
v 0.000811 0.027179 0.039981
v 0.000811 0.022361 0.051226
v 0.005631 0.027984 0.056043
v 0.013663 0.019150 0.055239
v 0.000811 0.027984 0.056847
v 0.012859 0.026377 0.057651
v 0.000811 0.023163 0.054437
f 465 472 475 
f 460 461 462 
f 462 459 463 
f 461 460 464 
f 462 461 465 
f 459 462 465 
f 459 464 466 
f 460 462 467 
f 462 463 468 
f 467 462 468 
f 463 467 468 
f 463 459 469 
f 459 466 469 
f 464 459 470 
f 459 465 470 
f 463 469 471 
f 469 466 471 
f 461 464 472 
f 465 461 472 
f 464 460 473 
f 466 464 473 
f 471 466 473 
f 471 473 474 
f 460 467 474 
f 467 463 474 
f 463 471 474 
f 473 460 474 
f 464 470 475 
f 470 465 475 
f 472 464 475 
o convex_21
v 0.020088 0.015935 0.039981
v 0.014466 0.015135 0.039981
v 0.014466 0.015135 0.048012
v 0.024104 0.009510 0.048817
v 0.015270 0.021558 0.048817
v 0.018482 0.009510 0.039981
v 0.018482 0.009510 0.048817
v 0.014466 0.020754 0.039981
v 0.022497 0.009510 0.039981
v 0.020890 0.015935 0.048817
v 0.016877 0.019950 0.039981
v 0.017680 0.009510 0.041589
f 482 478 487 
f 477 476 481 
f 481 479 482 
f 479 480 482 
f 480 478 482 
f 476 477 483 
f 477 478 483 
f 478 480 483 
f 476 479 484 
f 481 476 484 
f 479 481 484 
f 479 476 485 
f 480 479 485 
f 480 485 486 
f 476 483 486 
f 483 480 486 
f 485 476 486 
f 478 477 487 
f 477 481 487 
f 481 482 487 
