o convex_0
v 0.050550 0.016375 -0.017881
v -0.054977 -0.008433 -0.020986
v -0.054207 -0.005325 -0.022539
v -0.015399 0.060623 -0.013224
v 0.008641 0.031906 -0.033401
v 0.010972 -0.056555 -0.013224
v 0.010972 -0.035585 -0.031849
v -0.037909 -0.042578 -0.013226
v -0.031696 0.023369 -0.031849
v 0.028820 0.051310 -0.013224
v -0.025494 -0.037139 -0.029520
v 0.045117 -0.021620 -0.024085
v -0.050325 0.028020 -0.013226
v 0.048219 -0.019301 -0.013226
v -0.016180 0.058292 -0.023313
v 0.032702 0.029574 -0.029520
v 0.000888 -0.056555 -0.023313
v 0.010972 0.059834 -0.022541
v -0.025494 -0.013861 -0.033401
v 0.025719 -0.006879 -0.033401
v -0.043342 0.038888 -0.022539
v 0.029601 -0.047229 -0.020988
v -0.032477 -0.048006 -0.020988
v 0.038904 0.040430 -0.022541
v 0.044337 0.010170 -0.027190
v -0.054207 -0.009987 -0.013226
v -0.014629 0.044327 -0.030297
v -0.042572 -0.015415 -0.028744
v -0.016960 -0.055777 -0.013224
v 0.046668 0.027243 -0.013226
v -0.046443 -0.030157 -0.022539
v -0.052656 0.018707 -0.022539
v 0.032702 -0.025506 -0.029520
v 0.015624 0.048978 -0.027968
v 0.037354 -0.039470 -0.013224
v -0.035578 0.048978 -0.013224
v -0.007646 -0.034042 -0.032625
v -0.042572 0.012502 -0.029520
v 0.051320 -0.003005 -0.021760
v 0.003209 0.062177 -0.013224
v -0.016180 0.028020 -0.033401
v -0.011528 -0.055777 -0.023313
v -0.032477 0.050532 -0.022541
v 0.031151 0.006297 -0.032625
v 0.021837 -0.043344 -0.027190
v 0.048219 0.021815 -0.022537
v 0.040455 -0.034819 -0.021764
v 0.040455 -0.010764 -0.028744
v 0.001658 0.050532 -0.028744
v -0.054977 0.009393 -0.013226
v -0.037909 0.029574 -0.028744
v 0.015624 -0.023952 -0.033401
v 0.051320 0.009393 -0.013226
v -0.034027 0.001657 -0.032625
v 0.026489 0.051310 -0.023313
v -0.005315 -0.046452 -0.028744
v -0.006095 0.062177 -0.020988
v 0.017185 -0.054223 -0.021764
v -0.049544 -0.025506 -0.013226
v -0.023163 0.042761 -0.029520
v 0.024158 -0.051892 -0.014777
v 0.021837 0.028020 -0.032625
v -0.013078 -0.057332 -0.020212
v -0.031696 -0.024729 -0.031073
f 28 54 64 
f 4 6 10 
f 19 5 20 
f 6 4 29 
f 8 23 29 
f 24 10 30 
f 2 3 31 
f 23 8 31 
f 11 23 31 
f 3 28 31 
f 3 2 32 
f 13 21 32 
f 10 6 35 
f 21 13 36 
f 29 4 36 
f 26 29 36 
f 28 3 38 
f 3 32 38 
f 14 12 39 
f 4 10 40 
f 10 18 40 
f 5 19 41 
f 27 5 41 
f 23 11 42 
f 4 15 43 
f 36 4 43 
f 21 36 43 
f 16 25 44 
f 7 33 45 
f 16 24 46 
f 25 16 46 
f 30 1 46 
f 24 30 46 
f 1 39 46 
f 39 25 46 
f 12 14 47 
f 33 12 47 
f 14 35 47 
f 35 22 47 
f 22 45 47 
f 45 33 47 
f 33 20 48 
f 12 33 48 
f 39 12 48 
f 25 39 48 
f 20 44 48 
f 44 25 48 
f 5 27 49 
f 27 15 49 
f 34 5 49 
f 18 34 49 
f 2 26 50 
f 32 2 50 
f 13 32 50 
f 36 13 50 
f 26 36 50 
f 32 21 51 
f 9 38 51 
f 38 32 51 
f 21 43 51 
f 19 20 52 
f 33 7 52 
f 20 33 52 
f 7 37 52 
f 37 19 52 
f 1 30 53 
f 30 10 53 
f 10 35 53 
f 35 14 53 
f 39 1 53 
f 14 39 53 
f 38 9 54 
f 28 38 54 
f 41 19 54 
f 9 41 54 
f 18 10 55 
f 10 24 55 
f 24 16 55 
f 16 34 55 
f 34 18 55 
f 37 7 56 
f 11 37 56 
f 42 11 56 
f 17 42 56 
f 7 45 56 
f 45 17 56 
f 15 4 57 
f 4 40 57 
f 40 18 57 
f 49 15 57 
f 18 49 57 
f 6 17 58 
f 17 45 58 
f 45 22 58 
f 26 2 59 
f 8 29 59 
f 29 26 59 
f 2 31 59 
f 31 8 59 
f 15 27 60 
f 41 9 60 
f 27 41 60 
f 43 15 60 
f 9 51 60 
f 51 43 60 
f 35 6 61 
f 22 35 61 
f 6 58 61 
f 58 22 61 
f 20 5 62 
f 5 34 62 
f 34 16 62 
f 16 44 62 
f 44 20 62 
f 17 6 63 
f 6 29 63 
f 29 23 63 
f 23 42 63 
f 42 17 63 
f 11 31 64 
f 31 28 64 
f 37 11 64 
f 19 37 64 
f 54 19 64 
o convex_1
v 0.048991 -0.018520 -0.013224
v -0.054207 -0.008435 -0.013224
v -0.053426 -0.012312 -0.013224
v 0.003991 0.043550 -0.010121
v 0.037356 -0.061989 -0.010121
v 0.005543 0.061389 -0.013224
v 0.059867 0.028017 -0.010121
v -0.049551 0.019490 -0.010121
v -0.023165 -0.052665 -0.013224
v -0.038686 -0.039475 -0.010896
v 0.046668 -0.058873 -0.012448
v -0.033260 0.050531 -0.013224
v -0.013071 0.059058 -0.010896
v 0.057533 0.021036 -0.012448
v -0.017727 -0.048002 -0.010121
v 0.051324 -0.048775 -0.010121
v 0.037356 0.042765 -0.013224
v 0.018730 0.054408 -0.010896
v -0.051874 0.023367 -0.013224
v 0.003980 -0.057327 -0.013224
v -0.039457 0.042765 -0.010896
v -0.051874 -0.014631 -0.010896
v -0.009967 -0.056554 -0.011672
v -0.043343 -0.035598 -0.013224
v 0.050543 -0.049561 -0.012448
v 0.021053 0.055954 -0.013224
v -0.054207 0.007062 -0.011672
v 0.031147 -0.046456 -0.013224
v -0.016957 0.059843 -0.013224
v 0.036585 0.041992 -0.010121
v -0.025488 0.054408 -0.010896
v 0.050543 0.014828 -0.013224
v -0.018509 -0.052665 -0.010896
v 0.059867 0.021821 -0.010896
v -0.016957 0.041207 -0.010121
v 0.000116 0.059843 -0.010896
v 0.037356 -0.061989 -0.011672
v 0.059085 0.029575 -0.010896
v -0.037134 -0.016189 -0.010121
v 0.045116 -0.061204 -0.010121
v -0.046447 0.035010 -0.012448
v -0.047217 -0.027059 -0.010896
v 0.022605 0.054408 -0.011672
v -0.012301 -0.056554 -0.013224
v -0.033260 -0.046456 -0.012448
v 0.003209 0.061401 -0.011672
v -0.048769 0.028017 -0.010896
v 0.043564 -0.061204 -0.012448
v -0.049551 -0.024728 -0.012448
v -0.053426 -0.004545 -0.010896
v -0.027051 -0.050334 -0.011672
v 0.059085 0.029575 -0.010121
v -0.010748 0.061401 -0.012448
v -0.044113 0.038888 -0.013224
v -0.052655 0.014055 -0.010896
v -0.054207 0.012509 -0.013224
v 0.014856 0.058285 -0.011672
f 110 100 121 
f 67 66 65 
f 65 66 70 
f 68 69 71 
f 69 68 72 
f 67 65 73 
f 70 66 76 
f 69 72 79 
f 71 69 80 
f 65 70 81 
f 76 66 83 
f 73 65 84 
f 66 67 86 
f 67 73 88 
f 75 65 89 
f 65 78 89 
f 80 75 89 
f 81 70 90 
f 65 75 92 
f 84 65 92 
f 70 76 93 
f 68 71 94 
f 85 72 95 
f 76 85 95 
f 93 76 95 
f 77 93 95 
f 78 65 96 
f 65 81 96 
f 81 78 96 
f 69 79 97 
f 79 74 97 
f 87 69 97 
f 71 80 98 
f 89 78 98 
f 80 89 98 
f 72 68 99 
f 68 77 99 
f 95 72 99 
f 77 95 99 
f 77 68 100 
f 68 94 100 
f 94 82 100 
f 78 81 102 
f 81 90 102 
f 71 98 102 
f 98 78 102 
f 79 72 103 
f 72 86 103 
f 80 69 104 
f 75 80 104 
f 69 101 104 
f 74 79 106 
f 88 74 106 
f 79 103 106 
f 103 86 106 
f 73 84 108 
f 87 73 108 
f 69 87 108 
f 101 69 108 
f 88 73 109 
f 74 88 109 
f 77 100 110 
f 72 85 111 
f 105 83 111 
f 85 105 111 
f 92 75 112 
f 84 92 112 
f 75 104 112 
f 104 101 112 
f 108 84 112 
f 101 108 112 
f 86 67 113 
f 67 88 113 
f 106 86 113 
f 88 106 113 
f 66 86 114 
f 86 72 114 
f 91 66 114 
f 73 87 115 
f 97 74 115 
f 87 97 115 
f 109 73 115 
f 74 109 115 
f 94 71 116 
f 82 94 116 
f 71 102 116 
f 102 90 116 
f 90 107 116 
f 107 82 116 
f 70 93 117 
f 93 77 117 
f 110 70 117 
f 77 110 117 
f 76 83 118 
f 85 76 118 
f 83 105 118 
f 105 85 118 
f 72 111 119 
f 111 83 119 
f 114 72 119 
f 91 114 119 
f 83 66 120 
f 66 91 120 
f 119 83 120 
f 91 119 120 
f 90 70 121 
f 100 82 121 
f 107 90 121 
f 82 107 121 
f 70 110 121 
o convex_2
v 0.005543 0.045104 0.001519
v -0.041018 -0.006879 -0.000033
v -0.039463 -0.008439 -0.010119
v 0.014081 -0.052670 0.001519
v 0.028049 0.028020 -0.010119
v 0.008646 -0.051900 -0.010119
v -0.024718 0.036562 -0.010119
v -0.021615 -0.053440 0.001519
v 0.028049 -0.027064 0.001519
v -0.036360 0.024139 0.001519
v 0.028049 0.029581 0.001519
v 0.028049 -0.025513 -0.010119
v -0.020067 -0.047239 -0.010119
v 0.005543 0.043544 -0.010119
v -0.013076 0.044314 0.001519
v -0.038686 0.014057 -0.010119
v 0.019510 0.038893 -0.000033
v -0.041018 0.010176 0.001519
v 0.015630 -0.049569 -0.010119
v -0.005322 0.044314 -0.010119
v 0.009423 -0.055781 0.000742
v -0.039463 -0.013870 0.001519
v -0.037131 -0.016191 -0.010119
v -0.024718 0.038113 0.001519
v -0.021615 -0.053440 -0.000033
v -0.032480 0.028020 -0.010119
v -0.040241 0.003964 -0.010119
v 0.015630 0.039663 -0.007790
v -0.016957 0.041214 -0.010119
v -0.031702 0.031131 -0.000033
v 0.012526 0.042774 0.001519
v 0.005543 -0.055000 -0.002361
v -0.008418 0.045104 -0.002361
v 0.025717 0.033452 0.001519
v -0.037908 0.020258 -0.001585
v -0.020067 0.041214 -0.000033
v -0.018512 -0.048009 -0.010119
v 0.010972 -0.055000 -0.002361
v -0.037908 -0.017741 0.000742
v -0.033257 -0.023953 -0.010119
v -0.036360 0.021039 -0.010119
v 0.006320 -0.055781 0.001519
v -0.000670 0.045104 -0.004687
v 0.028049 -0.026283 -0.009342
v 0.012526 0.040443 -0.010119
v 0.009423 0.043544 -0.003913
v -0.020838 -0.047239 -0.009342
v -0.041018 -0.000687 -0.003913
v 0.019510 0.038113 -0.003913
f 138 155 170 
f 124 126 127 
f 126 124 128 
f 125 122 129 
f 122 125 130 
f 129 122 131 
f 122 130 132 
f 130 126 132 
f 127 126 133 
f 126 130 133 
f 124 127 134 
f 126 128 135 
f 131 122 136 
f 128 124 137 
f 129 131 139 
f 130 125 140 
f 127 133 140 
f 135 128 141 
f 123 124 143 
f 139 123 143 
f 129 139 143 
f 124 134 144 
f 143 124 144 
f 131 136 145 
f 128 137 147 
f 137 124 148 
f 139 137 148 
f 141 128 150 
f 145 128 151 
f 131 145 151 
f 128 147 151 
f 147 131 151 
f 122 132 152 
f 146 127 153 
f 136 122 154 
f 141 150 154 
f 150 136 154 
f 132 126 155 
f 152 132 155 
f 138 152 155 
f 139 131 156 
f 137 139 156 
f 128 145 157 
f 145 136 157 
f 150 128 157 
f 136 150 157 
f 134 127 158 
f 127 146 158 
f 146 134 158 
f 140 125 159 
f 127 140 159 
f 125 142 159 
f 153 127 159 
f 142 153 159 
f 129 143 160 
f 143 144 160 
f 146 129 160 
f 144 146 160 
f 144 134 161 
f 146 144 161 
f 147 137 162 
f 131 147 162 
f 156 131 162 
f 137 156 162 
f 125 129 163 
f 142 125 163 
f 129 146 163 
f 153 142 163 
f 146 153 163 
f 122 135 164 
f 135 141 164 
f 154 122 164 
f 141 154 164 
f 133 130 165 
f 130 140 165 
f 140 133 165 
f 126 135 166 
f 149 126 166 
f 149 166 167 
f 135 122 167 
f 138 149 167 
f 122 152 167 
f 152 138 167 
f 166 135 167 
f 134 146 168 
f 161 134 168 
f 146 161 168 
f 124 123 169 
f 123 139 169 
f 148 124 169 
f 139 148 169 
f 126 149 170 
f 149 138 170 
f 155 126 170 
o convex_3
v 0.060643 0.025695 -0.001585
v 0.028054 -0.047226 -0.010118
v 0.028829 -0.051897 -0.010118
v 0.028054 -0.026283 0.001519
v 0.031930 0.037340 -0.010118
v 0.050552 -0.052669 -0.010120
v 0.046672 -0.057329 0.000743
v 0.028054 0.028791 0.001519
v 0.059864 0.033451 -0.010120
v 0.052881 0.047431 0.000743
v 0.033484 -0.060436 -0.000034
v 0.042793 0.048985 -0.007014
v 0.028054 0.028030 -0.010118
v 0.059864 0.034233 0.000743
v 0.041243 -0.061989 -0.010118
v 0.050552 -0.051115 -0.000032
v 0.038138 0.046649 -0.000034
v 0.054431 0.045096 -0.008567
v 0.030380 -0.055004 0.000742
v 0.060643 0.025695 -0.010120
v 0.037363 -0.009989 0.001519
v 0.031155 -0.058882 -0.009342
v 0.045897 -0.060436 -0.001585
v 0.056760 0.044324 -0.007015
v 0.051330 -0.048791 -0.008567
v 0.034259 0.040446 -0.010118
v 0.041243 0.048202 0.000742
v 0.050552 0.048985 -0.007015
v 0.050552 -0.046455 0.000743
v 0.029604 -0.055775 -0.001585
v 0.048226 -0.058100 -0.010120
v 0.059864 0.037340 -0.000808
v 0.059864 0.026466 0.000743
v 0.051330 -0.048009 -0.000808
v 0.035813 0.021817 0.001519
v 0.060643 0.035004 -0.008567
v 0.034259 0.042000 -0.003137
v 0.042018 -0.060436 0.000742
v 0.038138 0.046649 -0.007014
v 0.034259 -0.061207 -0.010118
v 0.049001 0.048985 -0.000032
v 0.057535 0.041989 0.000743
v 0.047448 -0.058882 -0.000032
v 0.028829 -0.051115 -0.002361
v 0.035813 -0.061207 -0.000034
v 0.060643 0.024913 -0.003913
v 0.031930 0.038111 -0.009342
v 0.041243 0.048202 -0.007790
v 0.043571 -0.061207 -0.000034
v 0.045119 -0.061207 -0.010118
f 193 219 220 
f 172 174 178 
f 172 178 183 
f 175 179 183 
f 176 179 190 
f 174 177 191 
f 178 174 191 
f 179 188 194 
f 176 190 195 
f 179 175 196 
f 188 179 196 
f 178 180 197 
f 187 178 197 
f 182 187 197 
f 180 194 198 
f 194 188 198 
f 177 186 199 
f 191 177 199 
f 172 173 200 
f 181 189 200 
f 173 192 200 
f 192 181 200 
f 173 172 201 
f 179 176 201 
f 172 183 201 
f 183 179 201 
f 184 171 202 
f 171 184 203 
f 184 191 203 
f 199 186 203 
f 191 199 203 
f 186 176 204 
f 176 195 204 
f 171 203 204 
f 203 186 204 
f 180 178 205 
f 178 191 205 
f 191 184 205 
f 171 190 206 
f 190 179 206 
f 179 194 206 
f 202 171 206 
f 194 202 206 
f 178 187 207 
f 177 174 208 
f 174 189 208 
f 189 181 208 
f 187 182 209 
f 207 187 209 
f 192 173 210 
f 181 192 210 
f 173 201 210 
f 201 185 210 
f 197 180 211 
f 182 197 211 
f 198 182 211 
f 180 198 211 
f 194 180 212 
f 184 202 212 
f 202 194 212 
f 180 205 212 
f 205 184 212 
f 176 186 213 
f 186 177 213 
f 201 176 213 
f 193 201 213 
f 177 208 213 
f 174 172 214 
f 189 174 214 
f 172 200 214 
f 200 189 214 
f 208 181 215 
f 181 210 215 
f 210 185 215 
f 190 171 216 
f 195 190 216 
f 171 204 216 
f 204 195 216 
f 183 178 217 
f 175 183 217 
f 196 175 217 
f 178 207 217 
f 209 196 217 
f 207 209 217 
f 188 196 218 
f 182 198 218 
f 198 188 218 
f 209 182 218 
f 196 209 218 
f 193 213 219 
f 213 208 219 
f 215 185 219 
f 208 215 219 
f 185 201 220 
f 201 193 220 
f 219 185 220 
o convex_4
v -0.002993 -0.063540 0.017041
v -0.021614 -0.054230 0.001520
v -0.021614 -0.053454 0.001520
v 0.013304 -0.053454 0.001520
v 0.011746 -0.066644 0.013936
v -0.022393 -0.065868 0.014712
v -0.020063 -0.054230 0.007730
v 0.007095 -0.056558 0.001520
v 0.010974 -0.060436 0.013159
v -0.021614 -0.062764 0.017041
v 0.012525 -0.053454 0.004626
v 0.010198 -0.066644 0.016265
v -0.004545 -0.060436 0.014712
v -0.022393 -0.053454 0.004626
v 0.011746 -0.063540 0.015489
v -0.022393 -0.065868 0.016265
v -0.021614 -0.056558 0.003849
v 0.007095 -0.066644 0.013936
v 0.010974 -0.055782 0.001520
f 225 228 239 
f 222 223 224 
f 222 224 228 
f 224 223 231 
f 221 229 233 
f 227 230 233 
f 230 221 233 
f 231 227 233 
f 229 231 233 
f 223 222 234 
f 222 226 234 
f 230 227 234 
f 231 223 234 
f 227 231 234 
f 225 224 235 
f 229 221 235 
f 224 231 235 
f 231 229 235 
f 232 225 235 
f 221 232 235 
f 221 230 236 
f 232 221 236 
f 234 226 236 
f 230 234 236 
f 226 222 237 
f 222 228 237 
f 228 226 237 
f 228 225 238 
f 226 228 238 
f 225 232 238 
f 236 226 238 
f 232 236 238 
f 224 225 239 
f 228 224 239 
o convex_5
v 0.013302 -0.048021 0.006953
v -0.021615 -0.053452 0.001520
v -0.022393 -0.053452 0.002297
v 0.013302 -0.053452 0.004624
v 0.014080 -0.048021 0.001520
v -0.020840 -0.050349 0.001520
v -0.020840 -0.053452 0.005401
v 0.013302 -0.053452 0.001520
v -0.020840 -0.052676 0.005401
v 0.006319 -0.048021 0.001520
v -0.020840 -0.050349 0.002297
v 0.011749 -0.052676 0.005401
f 240 246 251 
f 242 241 243 
f 240 243 244 
f 244 241 245 
f 241 242 245 
f 242 243 246 
f 243 241 247 
f 244 243 247 
f 241 244 247 
f 242 246 248 
f 246 240 248 
f 240 244 249 
f 244 245 249 
f 249 245 250 
f 245 242 250 
f 248 240 250 
f 242 248 250 
f 240 249 250 
f 243 240 251 
f 246 243 251 
o convex_6
v -0.063521 0.007076 0.027129
v -0.058864 -0.020083 0.023255
v -0.056540 -0.020083 0.023255
v -0.058864 -0.001460 0.009281
v -0.044899 0.000868 0.032562
v -0.066625 -0.009993 0.035664
v -0.044899 0.000868 0.016269
v -0.068954 -0.007665 0.017041
v -0.048781 -0.014650 0.033334
v -0.051112 -0.013874 0.013161
v -0.056540 0.000868 0.039541
v -0.054989 0.008631 0.021699
v -0.044899 -0.012317 0.020927
v -0.065074 -0.014650 0.014714
v -0.054213 -0.013874 0.037992
v -0.068178 0.002422 0.020927
v -0.068178 -0.000684 0.032562
v -0.065850 -0.016201 0.030228
v -0.054213 0.006301 0.034112
v -0.058864 0.006301 0.015492
v -0.053438 -0.007665 0.040322
v -0.054213 -0.008441 0.009281
v -0.044899 0.003973 0.027904
v -0.069732 -0.009217 0.026348
v -0.065850 -0.002235 0.012386
v -0.044899 -0.007665 0.033334
v -0.062746 -0.007665 0.039541
v -0.063521 0.003198 0.035664
v -0.060419 -0.017753 0.033334
v -0.053438 0.001646 0.010833
v -0.051112 -0.018529 0.027904
v -0.054989 -0.017753 0.015492
v -0.061192 -0.012317 0.010833
v -0.044899 -0.006890 0.015492
v -0.052663 0.007076 0.017822
v -0.066625 -0.016201 0.024027
v -0.064296 0.004749 0.016269
v -0.050334 -0.017753 0.020147
v -0.050334 -0.000684 0.037992
v -0.069732 -0.000684 0.025576
v -0.062746 -0.015426 0.035664
v -0.051885 -0.002235 0.010059
v -0.054989 0.007852 0.031009
v -0.065074 -0.000684 0.037217
v -0.054989 -0.019304 0.030228
v -0.064296 -0.007665 0.010833
v -0.066625 0.003973 0.030228
v -0.044899 -0.012317 0.027904
v -0.060419 -0.019304 0.019375
v -0.061968 0.007852 0.022474
v -0.061192 0.006301 0.033334
v -0.044899 0.003973 0.021699
v -0.048781 -0.009217 0.037217
v -0.068954 -0.006890 0.032562
v -0.061968 0.001646 0.011611
v -0.061968 -0.019304 0.026348
v -0.060419 -0.008441 0.040322
v -0.068178 -0.013098 0.020147
v -0.069732 -0.003011 0.020147
v -0.051885 0.007852 0.026348
v -0.054989 -0.013098 0.010833
v -0.068178 -0.013098 0.029457
v -0.058091 0.008631 0.027129
v -0.050334 -0.007665 0.010833
f 312 273 315 
f 258 256 264 
f 256 258 274 
f 270 256 274 
f 264 256 277 
f 283 265 284 
f 258 264 285 
f 264 261 285 
f 271 263 286 
f 258 281 286 
f 281 271 286 
f 276 267 288 
f 261 264 289 
f 282 254 289 
f 254 283 289 
f 283 261 289 
f 270 262 290 
f 256 270 290 
f 262 272 290 
f 277 256 290 
f 257 269 292 
f 278 257 292 
f 280 266 292 
f 269 280 292 
f 273 255 293 
f 281 258 293 
f 255 281 293 
f 258 285 293 
f 270 274 294 
f 257 278 295 
f 278 262 295 
f 279 268 295 
f 262 279 295 
f 253 254 296 
f 260 266 296 
f 266 280 296 
f 254 282 296 
f 282 260 296 
f 265 259 297 
f 255 273 297 
f 276 255 297 
f 259 276 297 
f 273 284 297 
f 284 265 297 
f 252 267 298 
f 268 279 298 
f 267 291 298 
f 291 268 298 
f 264 277 299 
f 277 260 299 
f 260 282 299 
f 289 264 299 
f 282 289 299 
f 254 253 300 
f 283 254 300 
f 265 283 300 
f 287 265 300 
f 267 252 301 
f 263 271 301 
f 288 267 301 
f 271 288 301 
f 262 270 302 
f 279 262 302 
f 270 294 302 
f 252 298 302 
f 298 279 302 
f 274 258 303 
f 258 286 303 
f 266 260 304 
f 272 266 304 
f 260 277 304 
f 290 272 304 
f 277 290 304 
f 268 291 305 
f 291 275 305 
f 257 295 305 
f 295 268 305 
f 255 276 306 
f 281 255 306 
f 271 281 306 
f 288 271 306 
f 276 288 306 
f 280 269 307 
f 269 287 307 
f 253 296 307 
f 296 280 307 
f 300 253 307 
f 287 300 307 
f 272 262 308 
f 266 272 308 
f 262 278 308 
f 278 292 308 
f 292 266 308 
f 259 265 309 
f 275 259 309 
f 265 287 309 
f 259 275 310 
f 276 259 310 
f 267 276 310 
f 291 267 310 
f 275 291 310 
f 286 263 311 
f 294 274 311 
f 274 303 311 
f 303 286 311 
f 261 283 312 
f 284 273 312 
f 283 284 312 
f 269 257 313 
f 287 269 313 
f 257 305 313 
f 305 275 313 
f 275 309 313 
f 309 287 313 
f 301 252 314 
f 263 301 314 
f 252 302 314 
f 302 294 314 
f 311 263 314 
f 294 311 314 
f 285 261 315 
f 273 293 315 
f 293 285 315 
f 261 312 315 
o convex_7
v -0.016965 0.046655 0.038769
v -0.036357 0.022599 0.001520
v -0.037135 0.022599 0.003074
v 0.006320 0.029584 0.033334
v 0.006320 0.045103 0.001524
v -0.040240 0.022599 0.039544
v 0.006320 0.022599 0.001524
v 0.006320 0.048208 0.038765
v -0.023943 0.038894 0.001520
v -0.035583 0.033465 0.036441
v -0.023943 0.022599 0.039544
v -0.007651 0.049761 0.031009
v -0.013860 0.044326 0.002299
v -0.022395 0.045103 0.034112
v 0.006320 0.033465 0.038765
v 0.006320 0.022599 0.007730
v -0.030148 0.033465 0.001520
v -0.037135 0.025705 0.040322
v 0.006320 0.049761 0.035662
v -0.005325 0.045879 0.001524
v -0.027048 0.042000 0.034887
v -0.041018 0.023376 0.033338
v -0.027048 0.040447 0.039544
v -0.034809 0.027257 0.001520
v -0.009208 0.049761 0.037215
v -0.016965 0.047432 0.031780
v 0.000885 0.048984 0.024024
v -0.010755 0.045879 0.039544
v -0.005325 0.035794 0.039544
v -0.019286 0.042000 0.002299
v 0.006320 0.031136 0.037215
v -0.020838 0.022599 0.037215
v -0.034031 0.022599 0.040322
v -0.035583 0.031913 0.039544
v -0.030926 0.038118 0.032559
v -0.038683 0.028034 0.033338
v -0.000668 0.046655 0.006177
v -0.010755 0.045879 0.006956
v -0.025491 0.038118 0.003074
v 0.003211 0.022599 0.011612
v -0.006877 0.048984 0.038769
v -0.018512 0.046655 0.037990
v -0.041018 0.023376 0.037990
v -0.012308 0.048984 0.032559
v -0.028600 0.040447 0.037990
v -0.037135 0.023376 0.003074
f 351 339 361 
f 318 317 321 
f 320 319 322 
f 321 317 322 
f 319 320 323 
f 320 322 324 
f 322 317 324 
f 321 322 326 
f 319 323 330 
f 322 319 331 
f 326 322 331 
f 324 317 332 
f 323 320 334 
f 320 324 335 
f 324 328 335 
f 318 321 337 
f 332 317 339 
f 325 332 339 
f 334 327 340 
f 334 320 342 
f 327 334 342 
f 316 338 343 
f 338 333 343 
f 330 323 344 
f 323 343 344 
f 328 324 345 
f 324 329 345 
f 341 328 345 
f 329 341 345 
f 319 330 346 
f 330 326 346 
f 326 331 347 
f 319 346 347 
f 346 326 347 
f 321 326 348 
f 326 330 348 
f 333 321 348 
f 343 333 348 
f 330 344 348 
f 344 343 348 
f 321 333 349 
f 333 338 349 
f 332 325 350 
f 325 336 350 
f 325 339 351 
f 335 327 352 
f 320 335 352 
f 342 320 352 
f 327 342 352 
f 327 335 353 
f 335 328 353 
f 329 324 354 
f 324 332 354 
f 336 329 354 
f 332 350 354 
f 350 336 354 
f 331 319 355 
f 319 347 355 
f 347 331 355 
f 323 334 356 
f 340 316 356 
f 334 340 356 
f 343 323 356 
f 316 343 356 
f 338 316 357 
f 316 340 357 
f 341 329 357 
f 337 321 358 
f 321 349 358 
f 349 325 358 
f 325 351 358 
f 351 337 358 
f 340 327 359 
f 328 341 359 
f 327 353 359 
f 353 328 359 
f 357 340 359 
f 341 357 359 
f 336 325 360 
f 329 336 360 
f 325 349 360 
f 349 338 360 
f 357 329 360 
f 338 357 360 
f 317 318 361 
f 318 337 361 
f 339 317 361 
f 337 351 361 
o convex_8
v 0.040462 -0.001462 0.026350
v 0.023395 -0.027059 0.043426
v 0.022619 -0.027059 0.043426
v 0.013307 -0.048020 0.001520
v 0.006320 0.021823 0.001520
v 0.010203 -0.004566 0.041872
v 0.033482 0.021044 0.001520
v 0.036583 0.021823 0.038767
v 0.006320 -0.045689 0.039542
v 0.025719 -0.042585 0.037216
v 0.035034 -0.014644 0.001520
v 0.006320 0.018713 0.024020
v 0.006320 -0.041806 0.001520
v 0.039686 -0.012326 0.037991
v 0.020291 0.021823 0.037987
v 0.021843 -0.047241 0.027129
v 0.036583 0.012505 0.001520
v 0.040462 0.012505 0.033336
v 0.017187 0.009401 0.041872
v 0.038134 -0.018520 0.034886
v 0.006320 -0.014644 0.039542
v 0.031154 -0.023183 0.002300
v 0.025719 -0.039481 0.041097
v 0.007099 -0.048020 0.001520
v 0.039686 0.004745 0.039546
v 0.037359 -0.003794 0.001520
v 0.035034 0.021823 0.013166
v 0.006320 -0.044910 0.040317
v 0.024943 -0.044130 0.033336
v 0.010979 -0.004566 0.042647
v 0.040462 -0.009222 0.034111
v 0.038910 -0.012326 0.039546
v 0.041242 0.006297 0.033336
v 0.006320 -0.046461 0.037991
v 0.007099 0.016388 0.027125
v 0.024167 -0.044910 0.035661
v 0.006320 0.021823 0.010061
v 0.038134 0.020264 0.032556
v 0.014083 -0.048020 0.002300
v 0.024943 -0.034819 0.042643
v 0.036583 -0.021631 0.037991
v 0.041242 0.001641 0.037991
v 0.037359 0.006297 0.001520
v 0.021843 -0.046461 0.024020
v 0.032706 0.021823 0.001520
v 0.018739 0.009401 0.041872
v 0.029599 -0.025507 0.001520
v 0.039686 0.014829 0.037991
v 0.014859 0.010180 0.039542
v 0.017963 0.021823 0.035661
v 0.021843 0.021823 0.038763
v 0.035034 -0.024735 0.034111
v 0.012531 -0.048020 0.008506
v 0.041242 -0.003794 0.034886
v 0.006320 -0.018520 0.040317
v 0.037359 -0.009995 0.010061
v 0.024943 -0.042585 0.038763
f 397 371 418 
f 365 366 368 
f 365 368 372 
f 366 370 373 
f 366 365 374 
f 370 366 374 
f 369 366 376 
f 372 368 378 
f 373 370 382 
f 372 381 383 
f 374 365 385 
f 372 378 387 
f 366 369 388 
f 378 368 388 
f 382 370 389 
f 364 363 391 
f 389 364 391 
f 375 381 392 
f 386 363 393 
f 378 379 394 
f 370 374 395 
f 374 385 395 
f 382 367 396 
f 373 382 396 
f 390 371 397 
f 377 390 397 
f 370 395 397 
f 395 377 397 
f 366 373 398 
f 376 366 398 
f 379 378 399 
f 388 369 399 
f 378 388 399 
f 385 365 400 
f 363 364 401 
f 364 389 401 
f 389 384 401 
f 393 363 401 
f 384 393 401 
f 381 375 402 
f 384 371 402 
f 393 384 402 
f 375 393 402 
f 393 375 403 
f 386 393 403 
f 362 387 404 
f 387 378 404 
f 378 394 404 
f 394 362 404 
f 390 377 405 
f 383 390 405 
f 377 400 405 
f 368 366 406 
f 366 388 406 
f 388 368 406 
f 369 380 407 
f 363 386 407 
f 386 369 407 
f 391 363 407 
f 380 391 407 
f 365 372 408 
f 372 383 408 
f 400 365 408 
f 383 405 408 
f 405 400 408 
f 369 386 409 
f 394 379 409 
f 399 369 409 
f 379 399 409 
f 386 403 409 
f 403 394 409 
f 380 376 410 
f 391 380 410 
f 367 391 410 
f 396 367 410 
f 396 410 411 
f 373 396 411 
f 398 373 411 
f 376 398 411 
f 410 376 411 
f 369 376 412 
f 380 369 412 
f 376 380 412 
f 383 381 413 
f 371 390 413 
f 390 383 413 
f 381 402 413 
f 402 371 413 
f 377 395 414 
f 395 385 414 
f 400 377 414 
f 385 400 414 
f 387 362 415 
f 375 392 415 
f 392 387 415 
f 362 394 415 
f 403 375 415 
f 394 403 415 
f 367 382 416 
f 382 389 416 
f 391 367 416 
f 389 391 416 
f 381 372 417 
f 372 387 417 
f 392 381 417 
f 387 392 417 
f 371 384 418 
f 389 370 418 
f 384 389 418 
f 370 397 418 
o convex_9
v 0.008651 0.045103 0.006179
v 0.037362 0.022600 0.034884
v 0.037362 0.021823 0.034884
v 0.006320 0.047432 0.038767
v 0.006320 0.021823 0.008509
v 0.032703 0.021823 0.001528
v 0.019516 0.021823 0.037990
v 0.022616 0.042000 0.033335
v 0.006320 0.030360 0.036437
v 0.024165 0.035018 0.001528
v 0.006320 0.021823 0.001528
v 0.006320 0.044327 0.001528
v 0.031148 0.032689 0.037990
v 0.008651 0.048985 0.034111
v 0.029598 0.033466 0.023248
v 0.035809 0.021823 0.038767
v 0.014861 0.042000 0.001528
v 0.018738 0.043550 0.038767
v 0.006320 0.033466 0.038767
v 0.031148 0.027258 0.005407
v 0.013306 0.047432 0.033335
v 0.034256 0.028808 0.033335
v 0.017189 0.021823 0.035661
v 0.028820 0.035789 0.030229
v 0.006320 0.048985 0.030229
v 0.035031 0.022600 0.015490
v 0.020291 0.038895 0.003854
v 0.021066 0.021823 0.038767
v 0.027271 0.037342 0.037990
v 0.017964 0.045103 0.034111
v 0.011753 0.047432 0.037990
v 0.021841 0.041224 0.024024
v 0.006320 0.029584 0.034884
v 0.025718 0.033466 0.001528
v 0.032703 0.029584 0.038767
f 431 447 453 
f 421 423 424 
f 423 421 425 
f 422 423 427 
f 423 422 429 
f 424 423 429 
f 428 424 429 
f 428 429 430 
f 429 422 430 
f 421 420 434 
f 425 421 434 
f 428 430 435 
f 430 419 435 
f 422 434 436 
f 422 427 437 
f 427 425 437 
f 434 422 437 
f 419 432 439 
f 435 419 439 
f 438 433 440 
f 423 425 441 
f 425 427 441 
f 431 440 442 
f 440 433 442 
f 419 430 443 
f 430 422 443 
f 422 432 443 
f 432 419 443 
f 420 421 444 
f 421 424 444 
f 424 438 444 
f 440 420 444 
f 438 440 444 
f 428 435 445 
f 425 434 446 
f 437 425 446 
f 434 437 446 
f 426 436 447 
f 442 426 447 
f 431 442 447 
f 436 426 448 
f 435 439 448 
f 432 422 449 
f 422 436 449 
f 439 432 449 
f 436 448 449 
f 448 439 449 
f 426 442 450 
f 442 428 450 
f 428 445 450 
f 445 435 450 
f 448 426 450 
f 435 448 450 
f 427 423 451 
f 423 441 451 
f 441 427 451 
f 424 428 452 
f 438 424 452 
f 433 438 452 
f 428 442 452 
f 442 433 452 
f 434 420 453 
f 436 434 453 
f 420 440 453 
f 440 431 453 
f 447 436 453 
o convex_10
v -0.009201 -0.041809 0.001520
v 0.006320 -0.030946 0.040322
v -0.009201 -0.030946 0.040322
v 0.006320 0.022599 0.001520
v 0.006320 -0.041809 0.001520
v -0.007648 0.022599 0.003074
v 0.006320 0.017157 0.024799
v -0.004543 -0.047244 0.038769
v 0.006320 -0.046465 0.038769
v -0.009201 0.016385 0.001520
v -0.009201 -0.045685 0.040322
v -0.003768 0.022599 0.010833
v 0.005544 -0.015419 0.038769
v -0.000666 -0.044134 0.010059
v 0.002438 0.020268 0.019376
v -0.007648 -0.047244 0.035662
v -0.009201 0.012501 0.008505
v 0.001663 -0.047244 0.034887
v 0.005544 -0.045685 0.040322
v 0.003215 0.022599 0.013944
v 0.005544 0.015605 0.025570
v 0.004767 -0.042582 0.001520
v -0.009201 -0.042582 0.003074
v 0.006320 -0.018523 0.039544
v -0.009201 -0.029387 0.039544
v -0.006095 0.021041 0.008505
v 0.006320 0.020261 0.020147
v -0.007648 0.022599 0.001520
v 0.005544 -0.013095 0.037990
v 0.006320 -0.046465 0.034887
v -0.003768 -0.043354 0.004627
v -0.009201 -0.046458 0.032559
f 476 469 485 
f 454 457 458 
f 457 455 458 
f 455 457 460 
f 458 455 462 
f 454 456 463 
f 457 454 463 
f 456 454 464 
f 455 456 464 
f 457 459 465 
f 461 464 469 
f 463 456 470 
f 459 463 470 
f 462 461 471 
f 461 469 471 
f 469 467 471 
f 461 462 472 
f 462 455 472 
f 455 464 472 
f 464 461 472 
f 457 465 473 
f 465 468 473 
f 460 468 474 
f 454 458 475 
f 471 467 475 
f 464 454 476 
f 454 475 476 
f 456 455 477 
f 455 460 477 
f 466 456 477 
f 468 465 478 
f 470 456 478 
f 456 474 478 
f 474 468 478 
f 465 459 479 
f 459 470 479 
f 478 465 479 
f 470 478 479 
f 460 457 480 
f 468 460 480 
f 457 473 480 
f 473 468 480 
f 459 457 481 
f 457 463 481 
f 463 459 481 
f 456 466 482 
f 474 456 482 
f 460 474 482 
f 477 460 482 
f 466 477 482 
f 458 462 483 
f 462 471 483 
f 475 458 483 
f 471 475 483 
f 467 469 484 
f 475 467 484 
f 469 476 484 
f 476 475 484 
f 469 464 485 
f 464 476 485 
o convex_11
v -0.031702 -0.030950 0.013941
v -0.009201 -0.026291 0.031006
v -0.009201 -0.027068 0.031006
v -0.040239 -0.020085 0.040320
v -0.009982 -0.046466 0.038766
v -0.009201 -0.020083 0.001520
v -0.009207 -0.041809 0.001520
v -0.036356 -0.020085 0.001520
v -0.022396 -0.020085 0.039545
v -0.025495 -0.040257 0.036438
v -0.022396 -0.037153 0.001520
v -0.009207 -0.030950 0.040320
v -0.033254 -0.032502 0.040320
v -0.039461 -0.023967 0.034888
v -0.015414 -0.042584 0.014716
v -0.009207 -0.045688 0.040320
v -0.034807 -0.020085 0.041098
v -0.034029 -0.025519 0.002299
v -0.022396 -0.039480 0.041098
v -0.009201 -0.020083 0.007731
v -0.031702 -0.034824 0.035659
v -0.019294 -0.043361 0.032556
v -0.029375 -0.031727 0.003853
v -0.017741 -0.044136 0.039545
v -0.009982 -0.046466 0.034109
v -0.014636 -0.041032 0.001520
v -0.035582 -0.030175 0.035659
v -0.040239 -0.020863 0.028678
v -0.009207 -0.027846 0.037217
v -0.020068 -0.020085 0.035659
v -0.036356 -0.021638 0.001520
v -0.027822 -0.037928 0.040320
v -0.038687 -0.021638 0.041098
v -0.027822 -0.037928 0.032556
v -0.013861 -0.045688 0.034888
v -0.009982 -0.042584 0.003853
v -0.037909 -0.026294 0.039545
v -0.023948 -0.020085 0.040320
f 505 502 523 
f 487 488 491 
f 491 488 492 
f 491 492 493 
f 489 491 493 
f 493 492 496 
f 488 487 497 
f 492 488 501 
f 488 497 501 
f 501 497 504 
f 497 502 504 
f 487 491 505 
f 491 489 505 
f 489 502 505 
f 495 496 507 
f 503 496 508 
f 486 503 508 
f 506 486 508 
f 490 501 509 
f 501 504 509 
f 495 507 509 
f 501 490 510 
f 492 501 510 
f 496 492 511 
f 507 496 511 
f 500 507 511 
f 503 486 512 
f 499 503 512 
f 486 506 512 
f 506 498 512 
f 489 493 513 
f 499 489 513 
f 497 487 514 
f 494 497 514 
f 487 505 514 
f 514 505 515 
f 505 494 515 
f 494 514 515 
f 493 496 516 
f 496 503 516 
f 503 499 516 
f 513 493 516 
f 499 513 516 
f 504 498 517 
f 506 495 517 
f 498 506 517 
f 495 509 517 
f 509 504 517 
f 502 489 518 
f 498 504 518 
f 504 502 518 
f 496 495 519 
f 495 506 519 
f 508 496 519 
f 506 508 519 
f 507 500 520 
f 490 509 520 
f 509 507 520 
f 510 490 520 
f 500 511 520 
f 520 511 521 
f 492 510 521 
f 511 492 521 
f 510 520 521 
f 489 499 522 
f 512 498 522 
f 499 512 522 
f 518 489 522 
f 498 518 522 
f 497 494 523 
f 502 497 523 
f 494 505 523 
o convex_12
v -0.043341 0.017167 0.037990
v -0.009980 0.022599 0.002299
v -0.009980 0.021823 0.002299
v -0.039461 0.014063 0.001520
v -0.026274 0.014063 0.037215
v -0.041015 0.022599 0.038769
v -0.037135 0.022599 0.001520
v -0.018518 0.014063 0.001520
v -0.021619 0.022599 0.037215
v -0.042565 0.014063 0.040322
v -0.024724 0.022599 0.039544
v -0.041015 0.014839 0.008505
v -0.030151 0.014063 0.040322
v -0.041790 0.021823 0.034887
v -0.039461 0.022599 0.040322
v -0.044119 0.014063 0.035662
v -0.020844 0.021823 0.035662
v -0.009980 0.022599 0.001520
v -0.039461 0.017943 0.003074
v -0.018518 0.014063 0.003074
f 528 531 543 
f 529 525 530 
f 528 527 531 
f 527 530 531 
f 525 529 532 
f 527 528 533 
f 529 524 533 
f 532 529 534 
f 528 532 536 
f 533 528 536 
f 532 534 536 
f 524 529 537 
f 529 530 537 
f 529 533 538 
f 534 529 538 
f 533 536 538 
f 536 534 538 
f 533 524 539 
f 527 533 539 
f 535 527 539 
f 524 537 539 
f 537 535 539 
f 526 525 540 
f 528 526 540 
f 525 532 540 
f 532 528 540 
f 525 526 541 
f 530 525 541 
f 526 531 541 
f 531 530 541 
f 530 527 542 
f 527 535 542 
f 537 530 542 
f 535 537 542 
f 526 528 543 
f 531 526 543 
o convex_13
v -0.009201 0.014063 0.002299
v -0.009201 -0.013873 0.018592
v -0.009201 -0.011546 0.017815
v -0.016185 -0.003782 0.002299
v -0.009201 -0.020083 0.001522
v -0.016185 -0.020083 0.017039
v -0.016185 -0.020083 0.001522
v -0.009978 0.010182 0.008506
v -0.009201 -0.017753 0.017039
v -0.009978 0.014063 0.001522
v -0.016185 -0.006108 0.006954
v -0.009201 -0.020083 0.009282
v -0.016185 -0.019304 0.017039
v -0.016185 -0.003782 0.001522
v -0.009201 0.010182 0.008506
v -0.009978 -0.007666 0.016262
f 546 558 559 
f 546 545 544 
f 544 545 548 
f 549 547 550 
f 548 549 550 
f 548 545 552 
f 545 549 552 
f 544 548 553 
f 548 550 553 
f 551 544 553 
f 551 553 554 
f 547 549 554 
f 553 547 554 
f 549 548 555 
f 548 552 555 
f 552 549 555 
f 549 545 556 
f 551 554 556 
f 554 549 556 
f 550 547 557 
f 547 553 557 
f 553 550 557 
f 546 544 558 
f 544 551 558 
f 558 551 559 
f 545 546 559 
f 556 545 559 
f 551 556 559 
o convex_14
v -0.044120 -0.010771 0.038766
v -0.016185 -0.019304 0.019372
v -0.016964 -0.019304 0.022468
v -0.028602 -0.003010 0.037217
v -0.041017 -0.003010 0.001520
v -0.037136 -0.020083 0.002299
v -0.016185 -0.006117 0.001520
v -0.039463 -0.020083 0.041098
v -0.016185 -0.020083 0.001520
v -0.044120 -0.003010 0.040320
v -0.023951 -0.020083 0.040320
v -0.044899 -0.011546 0.020151
v -0.022394 -0.003010 0.001520
v -0.044899 -0.003010 0.015494
v -0.041017 -0.020083 0.033335
v -0.031703 -0.003010 0.040320
v -0.021621 -0.019304 0.037991
v -0.016185 -0.008443 0.006956
v -0.039463 -0.013873 0.001520
v -0.044899 -0.003010 0.038766
v -0.041017 -0.003789 0.041098
v -0.041017 -0.007669 0.001520
v -0.041793 -0.018530 0.039545
v -0.044899 -0.012322 0.023246
v -0.016185 -0.020083 0.019372
v -0.044899 -0.008443 0.016265
v -0.036360 -0.020083 0.001520
f 578 568 586 
f 567 565 568 
f 566 561 568 
f 564 566 568 
f 563 564 569 
f 567 568 570 
f 564 563 572 
f 563 566 572 
f 566 564 572 
f 569 564 573 
f 565 567 574 
f 563 569 575 
f 575 570 576 
f 563 575 576 
f 563 576 577 
f 562 561 577 
f 561 566 577 
f 566 563 577 
f 576 562 577 
f 564 568 578 
f 565 571 578 
f 560 569 579 
f 569 573 579 
f 573 571 579 
f 569 567 580 
f 567 570 580 
f 575 569 580 
f 570 575 580 
f 573 564 581 
f 564 578 581 
f 569 560 582 
f 567 569 582 
f 574 567 582 
f 574 582 583 
f 571 565 583 
f 565 574 583 
f 560 579 583 
f 579 571 583 
f 582 560 583 
f 561 562 584 
f 568 561 584 
f 570 568 584 
f 576 570 584 
f 562 576 584 
f 571 573 585 
f 578 571 585 
f 573 581 585 
f 581 578 585 
f 568 565 586 
f 565 578 586 
o convex_15
v -0.044896 0.007077 0.038769
v -0.019292 0.014061 0.003849
v -0.019292 0.013284 0.003849
v -0.041790 0.003976 0.001520
v -0.028604 -0.003008 0.037215
v -0.022397 -0.003008 0.001520
v -0.044896 -0.003008 0.015490
v -0.042567 0.014061 0.040322
v -0.040239 0.014061 0.001520
v -0.027052 0.014061 0.037990
v -0.044119 -0.003008 0.040322
v -0.041016 -0.003008 0.001520
v -0.031709 -0.003008 0.040322
v -0.044119 0.014061 0.034112
v -0.019292 0.014061 0.001520
v -0.044896 0.002424 0.017822
v -0.030158 0.014061 0.040322
v -0.022397 -0.003008 0.004627
v -0.026277 0.013284 0.036441
v -0.044896 -0.003008 0.038769
v -0.044896 0.010181 0.037215
f 600 602 607 
f 592 591 593 
f 592 590 595 
f 594 588 595 
f 588 594 596 
f 593 591 597 
f 594 587 597 
f 590 592 598 
f 593 590 598 
f 592 593 598 
f 591 596 599 
f 594 597 599 
f 597 591 599 
f 594 595 600 
f 588 589 601 
f 589 592 601 
f 595 588 601 
f 592 595 601 
f 590 593 602 
f 593 587 602 
f 595 590 602 
f 600 595 602 
f 596 594 603 
f 599 596 603 
f 594 599 603 
f 589 591 604 
f 592 589 604 
f 591 592 604 
f 589 588 605 
f 591 589 605 
f 588 596 605 
f 596 591 605 
f 587 593 606 
f 597 587 606 
f 593 597 606 
f 587 594 607 
f 594 600 607 
f 602 587 607 
