o convex_0
v 0.022796 0.023657 -0.033938
v -0.030640 -0.016613 -0.036404
v -0.029812 -0.017440 -0.039693
v 0.027727 -0.022376 -0.033938
v 0.014572 0.028586 -0.054487
v 0.002244 -0.028953 -0.053665
v -0.018307 0.025298 -0.052842
v -0.014198 0.031046 -0.033938
v -0.003508 -0.038817 -0.033938
v 0.022796 -0.024017 -0.052842
v -0.023238 -0.018261 -0.053665
v 0.022796 0.015426 -0.054487
v -0.026525 0.012965 -0.033938
v -0.024059 0.011318 -0.054487
v 0.003066 0.035169 -0.034760
v 0.030198 -0.008396 -0.034760
v 0.002244 -0.016620 -0.055309
v -0.005974 0.032694 -0.052020
v 0.001423 -0.039644 -0.034760
v -0.029812 -0.018261 -0.033938
v -0.023238 -0.021549 -0.052020
v 0.014572 0.031874 -0.033938
v 0.010463 0.031874 -0.053665
v 0.027727 0.010498 -0.033938
v -0.014198 -0.014152 -0.055309
v -0.004330 0.013786 -0.055309
v 0.017859 -0.026485 -0.053665
v -0.021594 0.024478 -0.035582
v -0.026525 0.011318 -0.044622
v -0.001865 -0.029773 -0.052842
v 0.030198 -0.019088 -0.035582
v 0.021974 -0.026485 -0.047909
v -0.013376 0.027758 -0.053665
v 0.017859 0.026945 -0.052842
v -0.025703 0.003101 -0.052842
v 0.012928 0.004742 -0.055309
v 0.015393 -0.024844 -0.054487
v 0.023617 0.012138 -0.053665
v -0.017485 0.027758 -0.049554
v -0.009267 0.033522 -0.033938
v -0.024881 -0.019088 -0.052842
v 0.025261 0.019542 -0.034760
v -0.028168 -0.019901 -0.038871
v -0.024059 0.017901 -0.046265
v -0.030640 -0.011684 -0.035582
v -0.003508 -0.025664 -0.054487
v 0.004710 -0.037997 -0.033938
v -0.003508 0.033522 -0.050376
v 0.009647 0.034342 -0.033938
v -0.003508 -0.038817 -0.034760
v -0.019128 -0.019901 -0.054487
v 0.021974 0.019542 -0.053665
v 0.020330 -0.010044 -0.054487
v 0.026083 -0.024017 -0.039693
v -0.014198 0.030234 -0.047909
v -0.019128 0.027758 -0.033938
v -0.008445 -0.035521 -0.034760
v 0.009647 0.030234 -0.054487
v -0.020772 0.024478 -0.047087
v 0.019502 0.027766 -0.036404
v -0.020772 -0.022376 -0.052842
v 0.023617 -0.016620 -0.052020
v -0.023238 -0.022376 -0.049554
v 0.002244 0.033522 -0.050376
f 49 23 64 
f 4 1 8 
f 4 8 9 
f 9 8 13 
f 2 3 20 
f 9 13 20 
f 8 1 22 
f 1 4 24 
f 4 16 24 
f 17 25 26 
f 25 14 26 
f 19 6 27 
f 6 19 30 
f 16 4 31 
f 27 10 32 
f 19 27 32 
f 14 7 33 
f 26 14 33 
f 23 22 34 
f 5 23 34 
f 3 2 35 
f 29 14 35 
f 5 12 36 
f 17 26 36 
f 26 5 36 
f 10 27 37 
f 27 6 37 
f 17 36 37 
f 10 12 38 
f 12 24 38 
f 24 16 38 
f 16 31 38 
f 33 7 39 
f 18 33 39 
f 8 22 40 
f 14 11 41 
f 21 3 41 
f 3 35 41 
f 35 14 41 
f 1 24 42 
f 34 1 42 
f 20 3 43 
f 3 21 43 
f 7 14 44 
f 13 28 44 
f 29 13 44 
f 14 29 44 
f 2 20 45 
f 20 13 45 
f 13 29 45 
f 35 2 45 
f 29 35 45 
f 25 17 46 
f 6 30 46 
f 37 6 46 
f 17 37 46 
f 4 9 47 
f 9 19 47 
f 19 32 47 
f 23 18 48 
f 40 15 48 
f 18 40 48 
f 22 23 49 
f 15 40 49 
f 40 22 49 
f 19 9 50 
f 30 19 50 
f 11 14 51 
f 14 25 51 
f 41 11 51 
f 25 46 51 
f 46 30 51 
f 12 5 52 
f 24 12 52 
f 5 34 52 
f 42 24 52 
f 34 42 52 
f 12 10 53 
f 36 12 53 
f 10 37 53 
f 37 36 53 
f 31 4 54 
f 10 31 54 
f 32 10 54 
f 4 47 54 
f 47 32 54 
f 18 39 55 
f 40 18 55 
f 8 40 55 
f 13 8 56 
f 28 13 56 
f 8 55 56 
f 55 39 56 
f 9 20 57 
f 20 43 57 
f 50 9 57 
f 23 5 58 
f 18 23 58 
f 5 26 58 
f 33 18 58 
f 26 33 58 
f 39 7 59 
f 7 44 59 
f 44 28 59 
f 28 56 59 
f 56 39 59 
f 22 1 60 
f 1 34 60 
f 34 22 60 
f 21 41 61 
f 30 50 61 
f 50 21 61 
f 51 30 61 
f 41 51 61 
f 31 10 62 
f 10 38 62 
f 38 31 62 
f 43 21 63 
f 21 50 63 
f 57 43 63 
f 50 57 63 
f 48 15 64 
f 23 48 64 
f 15 49 64 
o convex_1
v 0.021972 0.049139 -0.004339
v -0.043792 -0.010859 -0.005162
v -0.038857 -0.018257 -0.018318
v 0.029374 -0.042104 -0.004339
v 0.031013 -0.012502 -0.033936
v -0.018299 0.028577 -0.033936
v -0.005971 -0.055257 -0.032290
v -0.033103 0.035975 -0.004339
v -0.028168 -0.043747 -0.004339
v 0.042530 0.010496 -0.004339
v 0.021972 0.025292 -0.033936
v -0.030636 -0.010859 -0.033936
v -0.001856 0.048323 -0.019137
v 0.010463 -0.056900 -0.026537
v -0.002684 -0.057727 -0.007630
v 0.037595 -0.025666 -0.017495
v -0.037210 0.019537 -0.016672
v -0.014193 0.051598 -0.005162
v 0.035128 0.027762 -0.015029
v -0.024062 -0.049502 -0.016672
v 0.010463 0.034344 -0.033936
v 0.007996 -0.052798 -0.033113
v 0.021152 0.045027 -0.015852
v 0.040882 -0.023196 -0.004339
v -0.029816 -0.018257 -0.033936
v -0.039677 -0.028124 -0.004339
v 0.037595 0.012966 -0.019137
v -0.019127 0.042557 -0.018318
v 0.014578 -0.055257 -0.008450
v -0.042964 0.013782 -0.004339
v 0.030193 -0.019911 -0.033936
v 0.006348 0.054078 -0.004339
v -0.027349 0.024476 -0.028179
v 0.035948 0.033517 -0.005162
v -0.010906 -0.055257 -0.029825
v -0.003504 0.041741 -0.028179
v 0.003062 -0.052798 -0.004339
v 0.040063 -0.011686 -0.015029
v -0.018299 -0.054430 -0.012561
v -0.002684 -0.058553 -0.028179
v 0.021972 -0.050329 -0.014207
v 0.011283 0.048323 -0.017495
v 0.027726 0.012139 -0.033936
v -0.001037 -0.044574 -0.033936
v -0.027349 0.011323 -0.033936
v 0.012931 -0.053614 -0.028179
v -0.032283 -0.030583 -0.021603
v -0.039677 0.014598 -0.014207
v 0.027726 0.039272 -0.015852
v 0.035128 -0.030594 -0.017495
v -0.032283 0.029404 -0.016672
v -0.013373 -0.051960 -0.030645
v -0.038857 0.026119 -0.006807
v 0.030193 0.021191 -0.027354
v 0.006348 -0.058553 -0.022423
v -0.008438 0.034333 -0.033936
v 0.037595 -0.031421 -0.005162
v -0.014193 0.043384 -0.021603
v -0.024882 0.042557 -0.010096
v 0.039234 0.021191 -0.010918
v -0.005152 0.054078 -0.004339
v -0.006791 -0.053614 -0.033113
v 0.035948 -0.012502 -0.024891
v 0.009644 0.044211 -0.024068
f 77 106 128 
f 68 65 72 
f 68 72 73 
f 65 68 74 
f 69 70 75 
f 70 69 76 
f 75 70 85 
f 75 85 87 
f 74 68 88 
f 67 76 89 
f 76 69 89 
f 66 67 90 
f 73 72 90 
f 84 73 90 
f 66 90 94 
f 90 72 94 
f 89 69 95 
f 72 65 96 
f 92 70 97 
f 65 74 98 
f 68 73 101 
f 73 79 101 
f 93 68 101 
f 79 93 101 
f 74 88 102 
f 88 80 102 
f 91 74 102 
f 79 73 103 
f 73 84 103 
f 84 99 103 
f 103 99 104 
f 71 86 104 
f 86 78 104 
f 99 71 104 
f 79 103 104 
f 68 93 105 
f 93 78 105 
f 65 87 106 
f 96 65 106 
f 77 96 106 
f 69 75 107 
f 91 69 107 
f 95 86 108 
f 89 95 108 
f 70 76 109 
f 97 70 109 
f 81 97 109 
f 78 86 110 
f 86 95 110 
f 105 78 110 
f 67 89 111 
f 90 67 111 
f 84 90 111 
f 67 66 112 
f 76 67 112 
f 66 94 112 
f 109 76 112 
f 81 109 112 
f 87 65 113 
f 75 87 113 
f 65 98 113 
f 98 83 113 
f 95 80 114 
f 110 95 114 
f 105 110 114 
f 97 81 115 
f 92 97 115 
f 99 84 116 
f 111 89 116 
f 84 111 116 
f 94 72 117 
f 112 94 117 
f 81 112 117 
f 72 115 117 
f 115 81 117 
f 83 91 118 
f 107 75 118 
f 91 107 118 
f 75 113 118 
f 113 83 118 
f 78 93 119 
f 93 79 119 
f 104 78 119 
f 79 104 119 
f 85 70 120 
f 100 85 120 
f 88 68 121 
f 80 88 121 
f 68 105 121 
f 114 80 121 
f 105 114 121 
f 82 77 122 
f 70 92 122 
f 92 82 122 
f 77 100 122 
f 120 70 122 
f 100 120 122 
f 72 82 123 
f 82 92 123 
f 115 72 123 
f 92 115 123 
f 74 91 124 
f 91 83 124 
f 98 74 124 
f 83 98 124 
f 82 72 125 
f 77 82 125 
f 72 96 125 
f 96 77 125 
f 86 71 126 
f 71 99 126 
f 108 86 126 
f 89 108 126 
f 116 89 126 
f 99 116 126 
f 69 91 127 
f 95 69 127 
f 80 95 127 
f 102 80 127 
f 91 102 127 
f 87 85 128 
f 85 100 128 
f 100 77 128 
f 106 87 128 
o convex_2
v 0.034300 0.037624 -0.001049
v -0.050369 -0.003455 0.001418
v -0.050369 -0.003455 0.003062
v 0.027728 -0.045390 0.004709
v 0.006348 0.049140 0.022791
v -0.002679 -0.051972 0.022791
v 0.048277 -0.005927 0.021968
v -0.015834 -0.049500 -0.004339
v -0.019130 0.049140 -0.004339
v -0.041322 0.022008 0.022791
v 0.049920 -0.010037 -0.003516
v -0.038036 -0.025653 0.022791
v 0.017859 0.051602 -0.004339
v -0.039679 -0.028939 -0.004339
v 0.036765 0.033514 0.016213
v -0.034749 0.039272 0.014567
v 0.007991 -0.051972 -0.004339
v 0.037587 -0.027302 0.022791
v -0.038857 -0.035522 0.008820
v -0.040500 0.023645 -0.004339
v -0.012548 0.054899 0.005527
v -0.049547 0.003919 0.018678
v 0.037587 -0.037994 0.011279
v 0.050751 0.003095 0.009635
v 0.033479 -0.037994 -0.004339
v -0.013369 0.048316 0.022791
v 0.039240 0.019535 0.022791
v 0.019503 0.051602 0.006350
v 0.039240 0.026931 -0.004339
v 0.004705 -0.052797 0.020324
v -0.021595 -0.048687 0.010456
v -0.007619 -0.053621 0.003062
v -0.049547 0.008029 0.007173
v 0.016216 0.045854 0.022791
v 0.004705 0.055723 0.000595
v -0.028167 -0.043752 -0.004339
v -0.048726 -0.001817 0.020324
v -0.047894 -0.009213 -0.003516
v 0.050751 0.002282 0.017034
v 0.040883 -0.033884 0.009632
v -0.026524 0.047492 0.007173
v 0.029371 0.044206 0.010456
v 0.038408 0.032690 0.006350
v -0.034749 0.034338 -0.004339
v 0.007991 -0.053621 0.003062
v -0.040500 -0.033873 0.003883
v -0.007619 0.054074 -0.004339
v -0.038857 0.032700 0.017031
v 0.049920 -0.012510 -0.001869
v 0.038408 -0.037170 0.003062
v 0.006348 0.055723 0.004709
v 0.025263 -0.045390 -0.004339
v 0.027728 0.045020 -0.004339
v -0.039679 0.030228 0.005527
v 0.050751 -0.001004 0.001418
v 0.015395 -0.050324 0.014567
v -0.001858 -0.053621 0.020324
v -0.021595 0.043382 0.022791
v -0.040500 -0.033060 0.008820
v -0.026524 0.047492 0.009632
v 0.048277 -0.008400 0.020321
v 0.022789 0.040920 0.022791
v -0.050369 0.003919 0.003062
v -0.035571 0.038448 0.009632
f 182 176 192 
f 134 133 138 
f 134 138 140 
f 136 137 141 
f 137 136 142 
f 136 141 145 
f 133 134 146 
f 137 142 148 
f 145 141 153 
f 138 133 154 
f 133 149 154 
f 133 146 155 
f 146 135 155 
f 139 153 157 
f 153 141 157 
f 146 134 158 
f 151 146 158 
f 134 140 159 
f 140 147 159 
f 136 145 160 
f 159 136 160 
f 133 155 162 
f 156 133 162 
f 142 136 164 
f 136 159 164 
f 159 147 164 
f 140 138 165 
f 150 131 165 
f 138 150 165 
f 148 142 166 
f 143 155 167 
f 155 135 167 
f 146 151 168 
f 149 137 169 
f 156 162 170 
f 157 129 171 
f 152 157 171 
f 167 152 171 
f 143 167 171 
f 129 170 171 
f 170 143 171 
f 137 148 172 
f 169 137 172 
f 160 145 173 
f 131 130 174 
f 142 164 174 
f 164 147 174 
f 130 166 174 
f 166 142 174 
f 141 137 175 
f 137 149 175 
f 163 141 175 
f 149 163 175 
f 150 138 176 
f 161 150 176 
f 153 139 177 
f 177 168 178 
f 151 132 178 
f 168 151 178 
f 153 177 178 
f 149 133 179 
f 156 141 179 
f 133 156 179 
f 141 163 179 
f 163 149 179 
f 145 153 180 
f 132 173 180 
f 173 145 180 
f 178 132 180 
f 153 178 180 
f 141 156 181 
f 129 157 181 
f 157 141 181 
f 170 129 181 
f 156 170 181 
f 148 161 182 
f 172 148 182 
f 161 176 182 
f 139 157 183 
f 157 152 183 
f 152 167 183 
f 177 139 183 
f 167 177 183 
f 132 151 184 
f 151 158 184 
f 173 132 184 
f 158 173 184 
f 158 134 185 
f 134 159 185 
f 159 160 185 
f 173 158 185 
f 160 173 185 
f 138 154 186 
f 176 138 186 
f 144 176 186 
f 147 140 187 
f 140 165 187 
f 165 131 187 
f 131 174 187 
f 174 147 187 
f 154 149 188 
f 169 144 188 
f 149 169 188 
f 186 154 188 
f 144 186 188 
f 135 146 189 
f 167 135 189 
f 146 168 189 
f 177 167 189 
f 168 177 189 
f 155 143 190 
f 162 155 190 
f 143 170 190 
f 170 162 190 
f 130 131 191 
f 131 150 191 
f 161 148 191 
f 150 161 191 
f 166 130 191 
f 148 166 191 
f 144 169 192 
f 169 172 192 
f 176 144 192 
f 172 182 192 
o convex_3
v 0.016217 0.032690 0.043344
v -0.042150 -0.000182 0.022791
v -0.038858 -0.023195 0.022791
v 0.040886 0.014603 0.022791
v 0.007179 -0.014967 0.050741
v 0.000595 -0.049510 0.022791
v -0.010085 0.049146 0.022791
v -0.017481 0.012130 0.053206
v 0.036773 -0.026478 0.031014
v -0.025707 -0.024016 0.040876
v 0.021151 0.011319 0.049919
v -0.019131 0.037625 0.038414
v -0.041321 0.020358 0.023616
v 0.016217 0.045843 0.022791
v 0.004708 -0.041273 0.035946
v -0.038037 -0.010032 0.035946
v 0.038415 -0.025657 0.022791
v 0.003066 0.035974 0.045808
v 0.003066 0.003922 0.056499
v -0.012548 -0.005098 0.054031
v -0.007614 -0.042924 0.034303
v 0.038415 -0.003466 0.033482
v 0.017859 -0.007570 0.050741
v 0.026085 0.030228 0.036768
v -0.034745 -0.028129 0.030192
v 0.003066 0.044211 0.037593
v -0.008435 -0.030582 0.043344
v -0.028990 0.020358 0.040054
v 0.005529 0.015433 0.054849
v 0.010463 -0.030592 0.042522
v -0.010085 0.035153 0.045808
v -0.026528 0.038446 0.022791
v 0.020330 0.040908 0.031838
v -0.021594 -0.003466 0.050741
v 0.025264 0.016244 0.045808
v -0.013369 0.045853 0.031838
v 0.028547 -0.031413 0.033482
v 0.035952 -0.013325 0.035950
v 0.028547 0.034332 0.026084
v -0.002688 -0.049510 0.023616
v 0.007179 0.048315 0.027727
v -0.042150 0.011319 0.026906
v -0.022415 0.014603 0.049098
v -0.010085 0.013791 0.054852
v -0.024057 0.034342 0.036771
v 0.012104 0.001450 0.054849
v 0.017038 0.023651 0.048276
v -0.019952 -0.028129 0.041697
v 0.003887 -0.005928 0.054849
v 0.040886 -0.009221 0.023616
v -0.006793 0.042560 0.040054
v -0.027349 -0.033055 0.031838
v 0.013754 0.041739 0.036768
v 0.023614 0.003101 0.048273
v -0.037208 -0.026478 0.022791
v -0.018302 0.029407 0.044983
v -0.010906 0.003101 0.055674
v 0.040057 0.017075 0.023616
v 0.005529 -0.042924 0.034303
v -0.022415 0.041739 0.026906
v -0.040500 -0.000182 0.031838
v 0.040057 0.003922 0.029370
v 0.035952 -0.028120 0.029370
v -0.024878 0.004743 0.048273
f 235 253 256 
f 195 194 196 
f 195 196 198 
f 196 194 199 
f 196 199 206 
f 198 196 209 
f 208 195 217 
f 202 208 217 
f 213 207 219 
f 215 197 222 
f 197 219 222 
f 219 207 222 
f 221 210 223 
f 199 194 224 
f 194 205 224 
f 193 216 225 
f 208 202 226 
f 202 212 226 
f 201 215 229 
f 215 222 229 
f 201 214 230 
f 215 201 230 
f 206 225 231 
f 225 216 231 
f 206 199 233 
f 225 206 233 
f 199 228 233 
f 228 218 233 
f 205 194 234 
f 220 205 234 
f 211 221 236 
f 223 200 236 
f 221 223 236 
f 205 220 237 
f 203 221 238 
f 221 211 238 
f 193 210 239 
f 216 193 239 
f 221 203 239 
f 210 221 239 
f 203 227 239 
f 227 216 239 
f 212 202 240 
f 219 212 240 
f 213 219 240 
f 197 215 241 
f 219 197 241 
f 212 219 241 
f 238 211 241 
f 215 238 241 
f 209 196 242 
f 201 209 242 
f 214 201 242 
f 210 218 243 
f 204 223 243 
f 223 210 243 
f 218 228 243 
f 228 204 243 
f 202 217 244 
f 232 213 244 
f 217 232 244 
f 240 202 244 
f 213 240 244 
f 210 193 245 
f 218 210 245 
f 193 225 245 
f 225 233 245 
f 233 218 245 
f 227 203 246 
f 214 227 246 
f 230 214 246 
f 215 230 246 
f 238 215 246 
f 203 238 246 
f 195 198 247 
f 217 195 247 
f 198 232 247 
f 232 217 247 
f 200 223 248 
f 223 204 248 
f 220 235 248 
f 235 200 248 
f 237 220 248 
f 204 237 248 
f 200 226 249 
f 226 212 249 
f 236 200 249 
f 211 236 249 
f 241 211 249 
f 212 241 249 
f 196 206 250 
f 216 227 250 
f 206 231 250 
f 231 216 250 
f 207 213 251 
f 222 207 251 
f 198 229 251 
f 229 222 251 
f 232 198 251 
f 213 232 251 
f 199 224 252 
f 224 205 252 
f 228 199 252 
f 204 228 252 
f 205 237 252 
f 237 204 252 
f 194 195 253 
f 195 208 253 
f 234 194 253 
f 220 234 253 
f 235 220 253 
f 227 214 254 
f 242 196 254 
f 214 242 254 
f 196 250 254 
f 250 227 254 
f 198 209 255 
f 209 201 255 
f 229 198 255 
f 201 229 255 
f 208 226 256 
f 226 200 256 
f 200 235 256 
f 253 208 256 
