o convex_0
v 0.044680 -0.002951 -0.017673
v -0.048672 -0.001081 -0.014564
v -0.048672 -0.001081 -0.013320
v 0.002986 0.049326 -0.011452
v 0.017293 -0.042158 -0.007094
v -0.012570 -0.022866 -0.023899
v -0.006969 0.030024 -0.023275
v -0.046176 0.031271 -0.007094
v 0.042813 0.018202 -0.007096
v -0.028754 -0.042158 -0.007094
v 0.012321 -0.044018 -0.017049
v 0.027257 0.022555 -0.022029
v 0.018541 -0.017880 -0.023899
v -0.031240 0.026908 -0.020162
v 0.039698 -0.025349 -0.008340
v -0.028125 -0.036558 -0.017049
v 0.029124 0.038740 -0.015806
v 0.017293 0.043717 -0.007094
v -0.033107 -0.003564 -0.022654
v -0.013818 0.046210 -0.016429
v 0.034725 -0.030958 -0.016428
v -0.042442 -0.027842 -0.007094
v -0.006969 -0.046521 -0.015808
v 0.044060 0.018825 -0.015808
v 0.011073 0.043707 -0.018296
v -0.039956 -0.021619 -0.017673
v -0.012570 0.046823 -0.007718
v 0.026009 0.002640 -0.023899
v 0.045927 0.000166 -0.007096
v -0.021286 0.015709 -0.023899
v -0.044929 0.016955 -0.016429
v 0.005472 -0.034065 -0.022029
v 0.029743 -0.020996 -0.021408
v 0.002357 -0.047144 -0.009585
v 0.047175 -0.006681 -0.014562
v -0.020657 -0.028466 -0.022029
v -0.031859 0.036247 -0.016429
v 0.034725 0.033764 -0.008963
v 0.009206 0.024415 -0.023899
v -0.048043 -0.002951 -0.007094
v -0.020657 -0.046521 -0.007094
v 0.036592 0.003886 -0.021408
v 0.023523 -0.040911 -0.009585
v 0.012940 0.047447 -0.015186
v -0.038708 0.005746 -0.020787
v -0.046176 -0.007304 -0.017051
v -0.016304 0.034378 -0.021408
v 0.041565 -0.020996 -0.016429
v 0.019160 -0.032819 -0.020787
v -0.023153 0.043717 -0.014566
v 0.012940 0.037494 -0.020787
v -0.005102 -0.042158 -0.018920
v -0.039337 -0.027842 -0.015186
v 0.047175 0.008239 -0.009586
v 0.018541 0.045586 -0.009585
v -0.001987 0.043717 -0.018920
v -0.023153 -0.040911 -0.016429
v -0.028125 -0.011657 -0.023275
v -0.046796 -0.012903 -0.013942
v 0.034097 -0.006681 -0.022030
v 0.045927 -0.011657 -0.008963
v 0.031610 0.030024 -0.018918
v 0.019160 -0.042781 -0.015808
v 0.007339 0.046823 -0.007094
f 18 55 64 
f 2 3 8 
f 5 8 10 
f 8 5 18 
f 10 8 22 
f 4 20 27 
f 13 6 28 
f 5 15 29 
f 18 5 29 
f 9 18 29 
f 28 6 30 
f 2 8 31 
f 6 13 32 
f 23 11 34 
f 1 24 35 
f 16 26 36 
f 6 32 36 
f 31 8 37 
f 14 31 37 
f 18 9 38 
f 9 24 38 
f 24 17 38 
f 12 28 39 
f 30 7 39 
f 28 30 39 
f 8 3 40 
f 22 8 40 
f 5 10 41 
f 34 5 41 
f 23 34 41 
f 24 1 42 
f 12 24 42 
f 28 12 42 
f 15 5 43 
f 21 15 43 
f 5 34 43 
f 20 4 44 
f 17 25 44 
f 14 30 45 
f 30 19 45 
f 31 14 45 
f 31 45 46 
f 19 26 46 
f 2 31 46 
f 45 19 46 
f 7 30 47 
f 30 14 47 
f 37 20 47 
f 14 37 47 
f 15 21 48 
f 21 33 48 
f 1 35 48 
f 32 13 49 
f 11 32 49 
f 33 21 49 
f 13 33 49 
f 8 27 50 
f 27 20 50 
f 37 8 50 
f 20 37 50 
f 25 17 51 
f 39 7 51 
f 12 39 51 
f 11 23 52 
f 32 11 52 
f 36 32 52 
f 16 10 53 
f 10 22 53 
f 26 16 53 
f 24 9 54 
f 9 29 54 
f 35 24 54 
f 18 38 55 
f 38 17 55 
f 44 4 55 
f 17 44 55 
f 20 44 56 
f 44 25 56 
f 7 47 56 
f 47 20 56 
f 25 51 56 
f 51 7 56 
f 10 16 57 
f 16 36 57 
f 41 10 57 
f 23 41 57 
f 52 23 57 
f 36 52 57 
f 26 19 58 
f 30 6 58 
f 19 30 58 
f 6 36 58 
f 36 26 58 
f 3 2 59 
f 40 3 59 
f 22 40 59 
f 2 46 59 
f 46 26 59 
f 53 22 59 
f 26 53 59 
f 13 28 60 
f 33 13 60 
f 42 1 60 
f 28 42 60 
f 48 33 60 
f 1 48 60 
f 29 15 61 
f 15 48 61 
f 48 35 61 
f 54 29 61 
f 35 54 61 
f 24 12 62 
f 17 24 62 
f 12 51 62 
f 51 17 62 
f 34 11 63 
f 21 43 63 
f 43 34 63 
f 11 49 63 
f 49 21 63 
f 8 18 64 
f 4 27 64 
f 27 8 64 
f 55 4 64 
o convex_1
v 0.054021 -0.004199 0.029004
v 0.048421 -0.007930 0.006598
v 0.048421 -0.004822 0.006598
v 0.063357 -0.007309 0.014691
v 0.048421 -0.017269 0.020911
v 0.040329 0.000779 0.020288
v 0.056509 0.003891 0.015314
v 0.040329 -0.011667 0.020911
v 0.058378 -0.016646 0.016557
v 0.060866 -0.009799 0.025269
v 0.057756 0.002646 0.022780
v 0.040329 -0.001710 0.012199
v 0.047177 -0.014157 0.009710
v 0.058378 -0.009178 0.007844
v 0.048421 -0.010422 0.028381
v 0.050910 0.002646 0.010333
v 0.059622 -0.000467 0.010333
v 0.056509 -0.014157 0.025892
v 0.049043 0.002646 0.024644
v 0.040329 -0.002956 0.024023
v 0.062111 -0.001710 0.022154
v 0.040329 -0.011044 0.013447
v 0.049043 0.004514 0.016557
v 0.051532 -0.016023 0.010333
v 0.047799 -0.017269 0.014691
v 0.062733 -0.011044 0.020911
v 0.060244 -0.014157 0.012822
v 0.048421 -0.002956 0.028381
v 0.062111 -0.000467 0.015935
v 0.055887 -0.002956 0.007221
v 0.056509 -0.017892 0.016557
v 0.059000 -0.003579 0.027135
v 0.046555 -0.013534 0.025892
v 0.057131 -0.008555 0.028381
v 0.058378 -0.016023 0.022154
v 0.040329 -0.008555 0.011579
v 0.054021 0.000156 0.027135
v 0.052154 -0.016646 0.024023
v 0.055265 -0.011044 0.007221
v 0.040329 -0.007930 0.024023
v 0.040329 0.000156 0.014068
v 0.050288 0.004514 0.020288
v 0.061489 -0.009178 0.010333
v 0.058378 -0.014780 0.010958
v 0.044686 -0.016023 0.015935
v 0.048421 -0.001087 0.007844
v 0.062111 -0.012911 0.016557
v 0.063357 -0.006689 0.020911
v 0.060866 -0.004822 0.009710
v 0.053398 -0.013534 0.027135
v 0.060866 0.001402 0.016557
v 0.047799 -0.010422 0.007221
v 0.047177 -0.007309 0.028381
v 0.055265 0.000779 0.009090
v 0.053398 -0.009799 0.029004
v 0.045308 -0.006689 0.007844
v 0.055265 -0.007930 0.006598
v 0.045308 -0.015400 0.022154
v 0.062111 -0.004822 0.024023
v 0.060866 -0.014157 0.021534
v 0.062733 -0.003579 0.013447
v 0.046555 0.000156 0.025892
v 0.053398 0.004514 0.020288
v 0.052154 -0.017892 0.020288
f 99 102 128 
f 72 70 76 
f 70 72 84 
f 72 76 86 
f 71 80 87 
f 77 88 89 
f 89 88 95 
f 85 75 96 
f 82 74 98 
f 96 65 98 
f 74 96 98 
f 95 73 99 
f 86 76 100 
f 77 86 100 
f 75 83 101 
f 92 65 101 
f 83 92 101 
f 65 96 101 
f 96 75 101 
f 97 69 102 
f 99 82 102 
f 84 72 104 
f 72 97 104 
f 97 79 104 
f 76 70 105 
f 70 87 105 
f 87 80 105 
f 70 83 106 
f 87 70 106 
f 107 91 108 
f 91 73 108 
f 73 95 108 
f 95 88 108 
f 88 103 108 
f 103 78 108 
f 78 107 108 
f 72 86 109 
f 86 77 109 
f 89 69 109 
f 77 89 109 
f 67 76 110 
f 94 67 110 
f 76 105 110 
f 105 80 110 
f 68 90 111 
f 73 91 111 
f 107 68 111 
f 91 107 111 
f 90 68 112 
f 74 90 112 
f 93 85 112 
f 78 94 113 
f 94 81 113 
f 107 78 113 
f 79 97 114 
f 102 82 114 
f 97 102 114 
f 71 75 115 
f 81 71 115 
f 75 85 115 
f 93 81 115 
f 85 93 115 
f 88 77 116 
f 77 100 116 
f 66 103 116 
f 103 88 116 
f 65 92 117 
f 92 84 117 
f 84 104 117 
f 104 79 117 
f 80 71 118 
f 71 81 118 
f 81 94 118 
f 94 110 118 
f 110 80 118 
f 98 65 119 
f 82 98 119 
f 79 114 119 
f 114 82 119 
f 65 117 119 
f 117 79 119 
f 67 66 120 
f 76 67 120 
f 100 76 120 
f 66 116 120 
f 116 100 120 
f 66 67 121 
f 67 94 121 
f 94 78 121 
f 103 66 121 
f 78 103 121 
f 69 97 122 
f 97 72 122 
f 109 69 122 
f 72 109 122 
f 96 74 123 
f 85 96 123 
f 74 112 123 
f 112 85 123 
f 74 82 124 
f 90 74 124 
f 82 99 124 
f 99 73 124 
f 111 90 124 
f 73 111 124 
f 81 93 125 
f 68 107 125 
f 112 68 125 
f 93 112 125 
f 113 81 125 
f 107 113 125 
f 83 70 126 
f 70 84 126 
f 92 83 126 
f 84 92 126 
f 75 71 127 
f 83 75 127 
f 71 87 127 
f 106 83 127 
f 87 106 127 
f 69 89 128 
f 89 95 128 
f 95 99 128 
f 102 69 128 
o convex_2
v -0.036224 0.018197 0.000374
v -0.058008 0.021938 -0.004605
v -0.057384 0.019441 -0.005227
v -0.040584 -0.045895 0.000996
v -0.033112 -0.043407 -0.007094
v -0.057384 0.026284 0.003486
v -0.040584 0.028151 -0.007094
v -0.043696 -0.037799 -0.006472
v -0.033112 -0.050872 0.000374
v -0.033112 0.010110 -0.007094
v -0.045560 0.033766 0.002241
v -0.050536 0.031883 -0.007094
v -0.033112 0.003889 0.000374
v -0.043696 -0.039666 -0.000871
v -0.051781 0.011976 0.003486
v -0.037470 -0.049628 -0.005850
v -0.056760 0.017575 0.002864
v -0.050536 0.005125 -0.007094
v -0.055515 0.031269 -0.005850
v -0.043072 0.030647 0.002241
v -0.053648 0.031269 0.003486
v -0.038715 0.026915 -0.000249
v -0.043072 -0.042776 -0.004605
v -0.047424 0.033766 -0.005850
v -0.040584 -0.040910 0.001619
v -0.035603 -0.034067 0.000996
v -0.051160 0.033766 0.000996
v -0.033112 -0.051494 -0.005849
v -0.043072 -0.034067 -0.007094
v -0.054272 0.010732 -0.006472
v -0.042451 -0.042776 0.000996
v -0.055515 0.015709 0.003486
v -0.043072 0.032514 -0.001493
v -0.035603 -0.051494 -0.000249
v -0.058008 0.026915 -0.005227
v -0.037470 0.023804 -0.005850
v -0.034981 0.016953 -0.002116
v -0.057384 0.018819 -0.001493
v -0.056139 0.030017 0.002864
v -0.040584 -0.047131 -0.003360
v -0.035603 0.010732 0.000996
v -0.051160 0.033766 -0.005850
v -0.044941 0.032514 -0.007094
v -0.040584 0.030017 0.000996
v -0.039339 -0.025358 0.001619
v -0.053648 0.032514 0.002864
v -0.051781 0.031269 0.003486
v -0.033112 0.007000 -0.000249
v -0.056760 0.017575 -0.005850
v -0.043696 -0.040288 -0.005227
v -0.041827 -0.042162 -0.006472
v -0.054272 0.030647 -0.006472
v -0.043696 -0.040288 -0.002115
v -0.034981 -0.052116 -0.004604
v -0.038093 0.023804 0.000996
f 141 176 183 
f 133 135 138 
f 137 133 138 
f 135 133 140 
f 137 138 141 
f 140 133 146 
f 134 143 149 
f 132 137 153 
f 137 141 154 
f 153 137 154 
f 139 152 155 
f 133 137 156 
f 144 133 156 
f 146 133 157 
f 146 157 158 
f 140 146 158 
f 157 136 158 
f 145 142 159 
f 132 153 159 
f 159 153 160 
f 143 134 160 
f 134 145 160 
f 153 143 160 
f 145 159 160 
f 152 139 161 
f 137 132 162 
f 131 130 163 
f 130 134 163 
f 138 135 164 
f 164 150 165 
f 138 164 165 
f 134 130 166 
f 145 134 166 
f 134 149 167 
f 163 134 167 
f 147 163 167 
f 151 144 168 
f 159 151 168 
f 132 159 168 
f 162 132 168 
f 154 141 169 
f 148 154 169 
f 140 147 170 
f 155 152 170 
f 135 140 171 
f 161 135 171 
f 152 161 171 
f 140 170 171 
f 170 152 171 
f 139 148 172 
f 135 161 172 
f 161 139 172 
f 164 135 172 
f 150 164 172 
f 148 143 173 
f 143 153 173 
f 154 148 173 
f 153 154 173 
f 149 139 174 
f 139 155 174 
f 167 149 174 
f 147 167 174 
f 170 147 174 
f 155 170 174 
f 148 139 175 
f 143 148 175 
f 149 143 175 
f 139 149 175 
f 141 138 176 
f 165 129 176 
f 138 165 176 
f 158 136 177 
f 131 163 177 
f 130 131 178 
f 166 130 178 
f 131 177 178 
f 177 136 178 
f 133 144 179 
f 144 151 179 
f 136 157 179 
f 157 133 179 
f 178 136 179 
f 151 178 179 
f 147 140 180 
f 140 158 180 
f 163 147 180 
f 158 177 180 
f 177 163 180 
f 142 145 181 
f 159 142 181 
f 151 159 181 
f 145 166 181 
f 178 151 181 
f 166 178 181 
f 156 137 182 
f 144 156 182 
f 137 162 182 
f 168 144 182 
f 162 168 182 
f 165 150 183 
f 129 165 183 
f 169 141 183 
f 148 169 183 
f 172 148 183 
f 150 172 183 
f 176 129 183 
o convex_3
v 0.037217 0.002643 0.002241
v -0.033112 -0.052734 -0.005227
v -0.030620 -0.053368 -0.005227
v 0.001123 0.039984 -0.007094
v -0.030620 0.013838 0.004108
v 0.032233 -0.016642 -0.007094
v 0.011071 -0.035313 0.004108
v 0.027256 0.033133 0.004108
v -0.033112 0.008860 -0.007094
v -0.033112 -0.050870 0.000373
v 0.027256 0.029404 -0.007094
v -0.003235 0.041223 0.004108
v -0.022531 -0.050254 -0.007094
v 0.032233 -0.019756 0.004108
v -0.033112 -0.006687 0.004108
v 0.021659 -0.029086 -0.007094
v 0.035971 0.002643 -0.007094
v -0.020039 0.025042 -0.006472
v -0.017547 -0.030950 0.004108
v -0.023777 -0.052734 -0.002115
v 0.037217 -0.006063 0.004108
v -0.025016 0.022553 0.003486
v -0.003235 0.041857 -0.000871
v 0.017921 -0.032814 0.004108
v -0.033112 -0.044028 -0.007094
v 0.035971 0.009485 0.004108
v 0.000503 0.041857 0.000996
v 0.027875 -0.025358 0.002241
v -0.027509 -0.052734 -0.000248
v 0.035345 -0.009176 -0.005849
v -0.033112 0.005132 0.004108
v -0.028748 -0.019131 0.004108
v -0.023151 -0.052109 -0.005227
v -0.004481 -0.035937 0.004108
v 0.034099 0.011349 -0.006472
v 0.027875 0.032508 0.002241
v 0.030367 -0.020371 -0.007094
v 0.034725 -0.014769 0.002241
v -0.020659 0.026915 0.004108
v -0.025016 0.019440 -0.007094
v 0.004228 0.040608 -0.001493
v 0.027256 0.032508 0.000373
v 0.017301 -0.032199 -0.003359
v -0.000123 0.039984 -0.007094
v 0.035971 -0.004199 -0.007094
v 0.025390 -0.027846 0.004108
v -0.023777 -0.052109 -0.006472
v -0.031240 -0.053368 -0.000871
v -0.002615 0.041223 -0.003359
v -0.029994 -0.051494 -0.006472
v -0.000743 0.041233 0.004108
v 0.024770 -0.026597 -0.007094
v 0.026010 0.033757 0.004108
v 0.007959 -0.035937 0.004108
v -0.023777 -0.052734 -0.003359
v -0.026263 -0.022859 0.004108
v 0.027875 0.028780 -0.006472
v 0.021032 -0.030960 0.002241
v -0.031866 -0.012914 0.004108
v -0.026263 -0.053368 -0.001493
v 0.026629 0.030653 -0.005227
v -0.024397 0.020689 -0.006472
v -0.022531 0.025042 0.002863
v -0.018167 0.026282 -0.007094
f 232 227 247 
f 188 190 191 
f 187 189 192 
f 192 185 193 
f 189 187 194 
f 188 191 195 
f 192 189 196 
f 191 190 197 
f 190 188 198 
f 192 193 198 
f 196 189 199 
f 189 194 200 
f 190 198 202 
f 191 197 204 
f 192 188 205 
f 197 190 207 
f 185 192 208 
f 192 196 208 
f 184 200 209 
f 204 184 209 
f 191 204 209 
f 187 206 210 
f 206 195 210 
f 188 192 214 
f 198 188 214 
f 192 198 214 
f 202 198 215 
f 190 202 217 
f 202 193 217 
f 200 194 218 
f 209 200 218 
f 209 218 219 
f 191 209 219 
f 199 189 220 
f 197 211 220 
f 204 197 221 
f 189 213 221 
f 213 204 221 
f 220 189 221 
f 197 220 221 
f 188 195 222 
f 205 188 222 
f 195 206 222 
f 187 192 223 
f 187 210 224 
f 191 219 225 
f 219 194 225 
f 187 224 225 
f 216 199 226 
f 187 223 227 
f 200 184 228 
f 189 200 228 
f 184 204 228 
f 213 189 228 
f 204 213 228 
f 197 207 229 
f 211 197 229 
f 196 199 230 
f 199 216 230 
f 185 186 231 
f 193 185 231 
f 212 193 231 
f 201 206 232 
f 206 187 232 
f 187 227 232 
f 186 185 233 
f 185 208 233 
f 208 196 233 
f 230 186 233 
f 196 230 233 
f 195 191 234 
f 210 195 234 
f 199 220 235 
f 220 211 235 
f 229 199 235 
f 211 229 235 
f 224 210 236 
f 191 225 236 
f 225 224 236 
f 234 191 236 
f 210 234 236 
f 193 212 237 
f 212 190 237 
f 190 217 237 
f 217 193 237 
f 207 203 238 
f 226 207 238 
f 216 226 238 
f 186 230 238 
f 230 216 238 
f 193 202 239 
f 215 193 239 
f 202 215 239 
f 218 194 240 
f 219 218 240 
f 194 219 240 
f 226 199 241 
f 207 226 241 
f 229 207 241 
f 199 229 241 
f 198 193 242 
f 193 215 242 
f 215 198 242 
f 207 190 243 
f 203 207 243 
f 190 212 243 
f 231 186 243 
f 212 231 243 
f 186 238 243 
f 238 203 243 
f 194 187 244 
f 187 225 244 
f 225 194 244 
f 192 205 245 
f 223 192 245 
f 201 223 245 
f 206 201 246 
f 205 222 246 
f 222 206 246 
f 245 205 246 
f 201 245 246 
f 223 201 247 
f 227 223 247 
f 201 232 247 
o convex_4
v 0.021655 0.031274 0.029624
v -0.025016 0.021941 0.004108
v -0.025638 0.021941 0.005978
v 0.032860 0.021941 0.028378
v 0.026633 0.033766 0.004108
v -0.009461 0.036256 0.032115
v -0.029373 0.021941 0.029003
v 0.028498 0.021941 0.004108
v -0.001370 0.036256 0.004108
v 0.027255 0.036256 0.016558
v -0.020038 0.031897 0.024642
v -0.006348 0.030030 0.033361
v -0.015054 0.030652 0.004108
v 0.012321 0.036256 0.029000
v 0.031611 0.021941 0.029624
v -0.011947 0.036256 0.025887
v 0.017920 0.036256 0.004108
v 0.027876 0.033144 0.004108
v -0.027508 0.025678 0.027757
v -0.005726 0.024431 0.031491
v -0.022524 0.025678 0.005354
v 0.025384 0.030030 0.029000
v 0.032860 0.022564 0.025266
v -0.008218 0.035632 0.032733
v -0.021903 0.030652 0.028381
v -0.030000 0.022564 0.025887
v 0.027255 0.036256 0.012203
v -0.006969 0.026922 0.032733
v -0.026259 0.026922 0.025269
v 0.031611 0.023187 0.029624
v 0.018542 0.034388 0.028378
v 0.029119 0.022564 0.004736
v -0.020038 0.027544 0.004108
v -0.025016 0.023187 0.005354
v 0.027876 0.035632 0.013446
v -0.012568 0.031897 0.004108
v -0.005726 0.022564 0.030245
v 0.027876 0.026922 0.029624
v -0.015682 0.031897 0.011579
v -0.018174 0.033144 0.027757
v 0.030990 0.021941 0.014070
v -0.029373 0.022564 0.029003
f 266 273 289 
f 250 249 251 
f 250 251 254 
f 251 249 255 
f 249 252 255 
f 252 249 256 
f 256 253 257 
f 256 249 260 
f 257 253 261 
f 254 251 262 
f 253 256 263 
f 252 256 264 
f 256 257 264 
f 255 252 265 
f 248 261 271 
f 261 253 271 
f 250 254 273 
f 252 264 274 
f 264 257 274 
f 265 252 274 
f 259 254 275 
f 262 259 275 
f 254 267 275 
f 267 262 275 
f 272 258 276 
f 266 272 276 
f 273 266 276 
f 251 257 277 
f 262 251 277 
f 259 262 277 
f 257 269 277 
f 261 248 278 
f 257 261 278 
f 269 257 278 
f 248 269 278 
f 255 265 279 
f 260 249 280 
f 276 258 280 
f 268 276 280 
f 249 250 281 
f 250 273 281 
f 276 268 281 
f 273 276 281 
f 280 249 281 
f 268 280 281 
f 257 251 282 
f 251 270 282 
f 270 265 282 
f 274 257 282 
f 265 274 282 
f 256 260 283 
f 263 256 283 
f 254 262 284 
f 267 254 284 
f 262 267 284 
f 269 248 285 
f 248 271 285 
f 271 259 285 
f 259 277 285 
f 277 269 285 
f 258 263 286 
f 260 280 286 
f 280 258 286 
f 283 260 286 
f 263 283 286 
f 253 263 287 
f 263 258 287 
f 272 253 287 
f 258 272 287 
f 251 255 288 
f 270 251 288 
f 265 270 288 
f 255 279 288 
f 279 265 288 
f 254 259 289 
f 271 253 289 
f 259 271 289 
f 253 272 289 
f 272 266 289 
f 273 254 289 
o convex_5
v 0.017926 -0.035936 0.029003
v 0.040329 -0.009801 0.022153
v 0.040329 -0.009801 0.013448
v 0.010455 -0.017894 0.005976
v 0.020415 -0.031581 0.004108
v 0.025392 -0.009801 0.029624
v 0.010455 -0.037805 0.029624
v 0.018546 -0.009801 0.004108
v 0.031612 -0.025360 0.029003
v 0.010455 -0.035314 0.004108
v 0.010455 -0.024116 0.029003
v 0.033480 -0.017894 0.004108
v 0.037215 -0.009801 0.030249
v 0.035972 -0.009801 0.004108
v 0.027877 -0.029093 0.023401
v 0.029746 -0.024116 0.006598
v 0.040329 -0.011670 0.015313
v 0.018546 -0.032825 0.030249
v 0.036595 -0.017894 0.028381
v 0.011700 -0.038430 0.027135
v 0.024146 -0.009801 0.027135
v 0.010455 -0.017894 0.004108
v 0.010455 -0.024738 0.029624
v 0.019169 -0.035314 0.024642
v 0.032857 -0.024116 0.027135
v 0.024146 -0.032203 0.029624
v 0.013569 -0.034692 0.004108
v 0.024769 -0.028471 0.004108
v 0.037215 -0.012914 0.030249
v 0.023523 -0.032825 0.025269
v 0.010455 -0.023493 0.027759
v 0.033480 -0.009801 0.030249
v 0.039083 -0.010426 0.029003
v 0.026632 -0.028471 0.030249
v 0.029123 -0.028471 0.027135
v 0.018546 -0.009801 0.005355
v 0.040329 -0.011670 0.020290
v 0.035972 -0.011670 0.004108
v 0.031612 -0.021005 0.004108
v 0.034726 -0.020383 0.029624
f 318 323 329 
f 291 292 295 
f 295 292 297 
f 296 293 299 
f 297 294 299 
f 293 296 300 
f 294 297 301 
f 291 295 302 
f 297 292 303 
f 301 297 303 
f 292 291 306 
f 290 296 309 
f 296 299 309 
f 295 297 310 
f 293 297 311 
f 299 293 311 
f 297 299 311 
f 295 300 312 
f 300 296 312 
f 296 307 312 
f 290 309 313 
f 305 306 314 
f 306 308 314 
f 296 290 315 
f 307 296 315 
f 299 294 316 
f 309 299 316 
f 294 313 316 
f 313 309 316 
f 294 301 317 
f 305 304 317 
f 302 307 318 
f 313 294 319 
f 290 313 319 
f 315 290 319 
f 294 317 319 
f 317 304 319 
f 293 300 320 
f 300 295 320 
f 310 293 320 
f 295 310 320 
f 302 295 321 
f 307 302 321 
f 295 312 321 
f 312 307 321 
f 291 302 322 
f 302 318 322 
f 318 308 322 
f 315 298 323 
f 307 315 323 
f 318 307 323 
f 304 305 324 
f 314 298 324 
f 305 314 324 
f 298 315 324 
f 315 319 324 
f 319 304 324 
f 297 293 325 
f 293 310 325 
f 310 297 325 
f 306 291 326 
f 308 306 326 
f 291 322 326 
f 322 308 326 
f 303 292 327 
f 301 303 327 
f 292 306 327 
f 306 301 327 
f 301 306 328 
f 306 305 328 
f 317 301 328 
f 305 317 328 
f 298 314 329 
f 314 308 329 
f 308 318 329 
f 323 298 329 
o convex_6
v -0.018176 -0.032825 0.029626
v -0.030623 -0.015402 0.004108
v -0.030623 -0.014780 0.004108
v -0.003238 -0.035940 0.004108
v -0.003238 -0.014780 0.004733
v -0.034357 -0.014780 0.029002
v -0.003238 -0.026605 0.029626
v -0.020659 -0.029090 0.005355
v -0.004484 -0.039053 0.029002
v -0.020037 -0.014780 0.029002
v -0.029377 -0.024742 0.025887
v -0.015066 -0.035940 0.024646
v -0.010086 -0.034695 0.004108
v -0.021908 -0.032203 0.027758
v -0.026885 -0.022250 0.004108
v -0.003238 -0.038430 0.029626
v -0.031862 -0.021627 0.027758
v -0.003238 -0.014780 0.004108
v -0.008840 -0.038430 0.026511
v -0.028131 -0.016025 0.029626
v -0.003238 -0.024740 0.027133
v -0.028755 -0.024117 0.029626
v -0.018798 -0.030338 0.004108
v -0.034357 -0.016025 0.025265
v -0.013823 -0.036563 0.029002
v -0.026885 -0.027845 0.027133
v -0.029998 -0.018515 0.007221
v -0.021908 -0.032203 0.025887
v -0.026261 -0.024117 0.007221
v -0.003238 -0.039053 0.025265
v -0.005730 -0.035940 0.004733
v -0.021283 -0.015402 0.029626
v -0.023772 -0.027845 0.012204
v -0.023772 -0.030338 0.029002
v -0.015687 -0.033450 0.011579
f 357 352 364 
f 331 332 333 
f 334 332 335 
f 333 334 336 
f 334 335 339 
f 331 333 342 
f 331 342 344 
f 336 330 345 
f 333 336 345 
f 333 332 347 
f 334 333 347 
f 332 334 347 
f 341 342 348 
f 330 336 349 
f 336 334 350 
f 334 339 350 
f 339 336 350 
f 335 346 351 
f 330 349 351 
f 349 335 351 
f 337 344 352 
f 344 342 352 
f 332 331 353 
f 335 332 353 
f 346 335 353 
f 343 341 354 
f 345 330 354 
f 338 345 354 
f 348 338 354 
f 341 348 354 
f 346 340 355 
f 351 346 355 
f 331 344 356 
f 353 331 356 
f 346 353 356 
f 341 343 357 
f 337 352 357 
f 343 355 357 
f 344 337 358 
f 340 346 358 
f 355 340 358 
f 356 344 358 
f 346 356 358 
f 333 345 359 
f 345 338 359 
f 338 348 359 
f 359 348 360 
f 342 333 360 
f 348 342 360 
f 333 359 360 
f 339 335 361 
f 336 339 361 
f 335 349 361 
f 349 336 361 
f 337 357 362 
f 357 355 362 
f 358 337 362 
f 355 358 362 
f 330 351 363 
f 354 330 363 
f 343 354 363 
f 355 343 363 
f 351 355 363 
f 342 341 364 
f 352 342 364 
f 341 357 364 
o convex_7
v 0.010455 -0.023493 0.026511
v 0.002366 -0.039675 0.027758
v -0.003238 -0.039050 0.024646
v 0.010455 -0.035317 0.004108
v -0.003238 -0.019760 0.004108
v -0.003238 -0.026606 0.029626
v 0.010455 -0.017892 0.004108
v -0.003238 -0.035939 0.004108
v 0.010455 -0.037807 0.029626
v -0.003238 -0.038428 0.029626
v -0.003238 -0.024741 0.026511
v 0.010455 -0.025361 0.029626
v 0.002988 -0.036560 0.004108
v 0.009831 -0.038428 0.024024
v 0.009831 -0.017892 0.004733
v -0.003238 -0.019760 0.005977
v 0.007342 -0.037182 0.010955
v 0.009831 -0.024116 0.028380
v -0.000748 -0.038428 0.017799
v 0.007342 -0.039050 0.029002
f 378 373 384 
f 369 367 370 
f 365 368 371 
f 368 369 371 
f 369 368 372 
f 367 369 372 
f 368 365 373 
f 373 370 374 
f 367 366 374 
f 370 367 374 
f 369 370 375 
f 373 365 376 
f 370 373 376 
f 372 368 377 
f 368 373 378 
f 365 371 379 
f 371 369 379 
f 375 365 379 
f 375 379 380 
f 369 375 380 
f 379 369 380 
f 366 377 381 
f 377 368 381 
f 378 366 381 
f 368 378 381 
f 375 370 382 
f 365 375 382 
f 376 365 382 
f 370 376 382 
f 366 367 383 
f 367 372 383 
f 377 366 383 
f 372 377 383 
f 373 374 384 
f 374 366 384 
f 366 378 384 
o convex_8
v -0.035600 -0.000462 0.014692
v -0.014441 0.021937 0.029004
v -0.029999 0.021937 0.029004
v -0.014441 0.021937 0.004108
v -0.020042 -0.014776 0.028380
v -0.014441 -0.014776 0.004108
v -0.034354 -0.014776 0.029004
v -0.033732 0.000781 0.004108
v -0.031243 -0.014776 0.004732
v -0.025646 0.021937 0.004108
v -0.035600 0.011357 0.025268
v -0.036845 -0.007930 0.028380
v -0.014441 -0.014776 0.010956
v -0.031243 0.013223 0.005354
v -0.014441 0.009489 0.027135
v -0.037469 0.002650 0.027759
v -0.032490 0.018825 0.025889
v -0.033110 -0.007308 0.004108
v -0.020667 -0.014776 0.029004
v -0.036222 -0.011042 0.025889
v -0.034978 0.010736 0.029004
v -0.032490 0.008867 0.004108
v -0.036845 -0.006061 0.024020
v -0.037469 0.002650 0.026511
v -0.031865 -0.012907 0.004108
v -0.028755 0.017578 0.004108
v -0.029999 0.021937 0.023401
v -0.034978 -0.014776 0.026511
v -0.033732 -0.007308 0.006601
v -0.033732 0.005758 0.007220
v -0.036845 0.001403 0.029004
v -0.034354 0.014470 0.028380
v -0.016932 -0.014776 0.019042
f 397 399 417 
f 387 386 388 
f 388 386 390 
f 386 387 391 
f 390 389 391 
f 388 390 392 
f 390 391 393 
f 387 388 394 
f 388 392 394 
f 390 386 397 
f 389 390 397 
f 397 386 399 
f 398 395 401 
f 392 390 402 
f 386 391 403 
f 391 389 403 
f 399 386 403 
f 389 399 403 
f 391 387 405 
f 394 392 406 
f 395 398 406 
f 404 396 407 
f 392 385 408 
f 400 395 408 
f 396 400 408 
f 385 407 408 
f 407 396 408 
f 390 393 409 
f 402 390 409 
f 398 401 410 
f 394 406 410 
f 406 398 410 
f 387 394 411 
f 401 387 411 
f 394 410 411 
f 410 401 411 
f 393 391 412 
f 391 396 412 
f 396 404 412 
f 409 393 412 
f 404 409 412 
f 385 392 413 
f 392 402 413 
f 407 385 413 
f 404 407 413 
f 402 409 413 
f 409 404 413 
f 406 392 414 
f 395 406 414 
f 392 408 414 
f 408 395 414 
f 396 391 415 
f 400 396 415 
f 391 405 415 
f 405 400 415 
f 395 400 416 
f 387 401 416 
f 401 395 416 
f 405 387 416 
f 400 405 416 
f 389 397 417 
f 399 389 417 
o convex_9
v 0.009830 0.011979 0.022779
v -0.014439 -0.014773 0.004113
v 0.006097 -0.011039 0.004108
v -0.014439 0.021934 0.004113
v -0.014439 0.009489 0.027134
v 0.010454 0.021934 0.004108
v -0.014439 0.021934 0.028379
v 0.007342 0.020069 0.027137
v 0.010454 -0.007930 0.008468
v -0.008216 -0.014773 0.008468
v 0.010454 0.021934 0.020910
v -0.003861 0.012601 0.027757
v -0.014439 -0.014773 0.009090
v 0.010454 -0.009799 0.004108
v -0.001992 -0.014773 0.004733
v -0.003861 0.021934 0.028379
v -0.013194 0.001403 0.021532
v -0.004480 0.013848 0.028379
v 0.010454 0.013848 0.023400
v 0.006719 0.016957 0.027137
v -0.003861 -0.014151 0.007846
v 0.006719 0.021934 0.025267
v 0.007964 -0.010421 0.006601
v 0.010454 0.007624 0.019665
v -0.010703 -0.012286 0.010958
v 0.004850 0.017578 0.027757
f 437 425 443 
f 420 419 421 
f 421 419 422 
f 420 421 423 
f 423 421 424 
f 421 422 424 
f 423 424 428 
f 426 423 428 
f 422 419 430 
f 419 427 430 
f 420 423 431 
f 423 426 431 
f 419 420 432 
f 427 419 432 
f 420 431 432 
f 428 424 433 
f 429 422 434 
f 422 430 434 
f 424 422 435 
f 422 429 435 
f 433 424 435 
f 428 425 436 
f 426 428 436 
f 429 418 437 
f 435 429 437 
f 418 436 437 
f 436 425 437 
f 426 429 438 
f 427 432 438 
f 425 428 439 
f 428 433 439 
f 433 425 439 
f 431 426 440 
f 432 431 440 
f 426 438 440 
f 438 432 440 
f 418 429 441 
f 429 426 441 
f 436 418 441 
f 426 436 441 
f 430 427 442 
f 429 434 442 
f 434 430 442 
f 438 429 442 
f 427 438 442 
f 425 433 443 
f 433 435 443 
f 435 437 443 
o convex_10
v 0.040329 -0.001707 0.012202
v 0.037216 -0.002953 0.030249
v 0.039706 0.003268 0.029624
v 0.019168 0.021941 0.004108
v 0.019168 -0.009801 0.004108
v 0.019168 0.021941 0.029624
v 0.030991 0.020074 0.004108
v 0.026018 -0.009801 0.029624
v 0.036592 -0.009801 0.004108
v 0.032860 0.021941 0.029003
v 0.039082 -0.009798 0.029000
v 0.037839 0.013226 0.025267
v 0.035349 0.011980 0.004108
v 0.024150 -0.009801 0.026513
v 0.040329 -0.009798 0.012824
v 0.029748 0.021941 0.004733
v 0.019168 0.018206 0.029003
v 0.019168 -0.009801 0.006598
v 0.040329 0.003268 0.027756
v 0.035349 0.017582 0.029624
v 0.035971 0.017582 0.025269
v 0.037216 0.004513 0.004108
v 0.034102 -0.009801 0.030249
v 0.040329 -0.009798 0.022780
v 0.040329 0.000782 0.015316
v 0.039706 0.007624 0.027756
v 0.032860 0.021941 0.022780
v 0.040329 -0.008555 0.011580
v 0.033481 0.016960 0.006598
v 0.032236 0.021941 0.029624
v 0.040329 -0.002328 0.028378
v 0.037216 -0.006687 0.004108
v 0.038461 0.011358 0.024645
v 0.024771 -0.009801 0.028381
v 0.037216 -0.009801 0.030249
f 458 467 478 
f 447 448 449 
f 448 447 450 
f 448 450 452 
f 451 448 452 
f 447 449 453 
f 452 450 456 
f 448 451 457 
f 450 447 459 
f 447 453 459 
f 449 448 460 
f 451 449 460 
f 457 460 461 
f 448 457 461 
f 460 448 461 
f 458 444 462 
f 445 446 463 
f 455 456 464 
f 453 463 464 
f 463 455 464 
f 452 456 465 
f 445 449 466 
f 449 451 466 
f 451 452 466 
f 458 462 467 
f 462 444 468 
f 444 465 468 
f 465 456 468 
f 446 462 469 
f 463 446 469 
f 455 463 469 
f 462 468 469 
f 450 459 470 
f 459 453 470 
f 453 464 470 
f 444 458 471 
f 458 452 471 
f 465 444 471 
f 456 450 472 
f 464 456 472 
f 450 470 472 
f 470 464 472 
f 449 445 473 
f 453 449 473 
f 445 463 473 
f 463 453 473 
f 446 454 474 
f 462 446 474 
f 454 467 474 
f 467 462 474 
f 452 465 475 
f 471 452 475 
f 465 471 475 
f 456 455 476 
f 468 456 476 
f 455 469 476 
f 469 468 476 
f 457 451 477 
f 451 460 477 
f 460 457 477 
f 446 445 478 
f 454 446 478 
f 452 458 478 
f 445 466 478 
f 466 452 478 
f 467 454 478 
o convex_11
v -0.009461 0.042479 0.023404
v -0.006973 0.036256 0.020913
v -0.006351 0.036256 0.020913
v -0.003861 0.041234 0.004731
v -0.006351 0.037501 0.028381
v -0.010706 0.036256 0.025887
v -0.003238 0.043101 0.009711
v -0.008839 0.043723 0.014688
v -0.003861 0.039368 0.004731
v -0.009461 0.036256 0.031493
v -0.005106 0.044347 0.012823
v -0.003238 0.039368 0.007846
v -0.007595 0.038123 0.030870
v -0.010706 0.039991 0.027134
v -0.009461 0.041234 0.016559
v -0.006351 0.036256 0.029002
v -0.006350 0.044347 0.010337
v -0.010083 0.042479 0.018424
v -0.008217 0.043724 0.019668
f 486 496 497 
f 480 481 484 
f 481 480 487 
f 480 484 487 
f 486 482 487 
f 484 481 488 
f 482 485 490 
f 481 487 490 
f 487 482 490 
f 483 485 491 
f 485 489 491 
f 484 488 492 
f 491 479 492 
f 488 491 492 
f 487 484 493 
f 486 487 493 
f 485 483 494 
f 488 481 494 
f 481 490 494 
f 490 485 494 
f 483 491 494 
f 491 488 494 
f 485 482 495 
f 482 486 495 
f 489 485 495 
f 484 492 496 
f 492 479 496 
f 493 484 496 
f 486 493 496 
f 479 491 497 
f 491 489 497 
f 495 486 497 
f 489 495 497 
f 496 479 497 
o convex_12
v 0.012942 0.040612 0.012199
v -0.003238 0.038123 0.004108
v -0.003238 0.041234 0.004108
v -0.003238 0.036256 0.017801
v 0.026632 0.036256 0.013442
v -0.000121 0.043724 0.014066
v 0.016052 0.036256 0.004108
v 0.027259 0.036879 0.017178
v -0.001993 0.036256 0.004108
v 0.002986 0.043724 0.012822
v 0.016052 0.036879 0.004108
v -0.003238 0.042479 0.005978
v 0.026632 0.037501 0.015309
v 0.008592 0.041857 0.015309
v -0.003238 0.036879 0.017801
v -0.001366 0.041857 0.004732
v 0.027259 0.036256 0.017178
v -0.003238 0.042479 0.009088
f 512 503 515 
f 500 499 501 
f 499 500 504 
f 502 501 504 
f 501 499 506 
f 499 504 506 
f 504 501 506 
f 504 500 508 
f 502 504 508 
f 507 498 508 
f 500 501 509 
f 503 507 509 
f 505 502 510 
f 498 507 510 
f 508 498 510 
f 502 508 510 
f 507 503 511 
f 505 510 511 
f 510 507 511 
f 501 505 512 
f 509 501 512 
f 511 503 512 
f 505 511 512 
f 508 500 513 
f 507 508 513 
f 509 507 513 
f 500 509 513 
f 501 502 514 
f 502 505 514 
f 505 501 514 
f 503 509 515 
f 509 512 515 
o convex_13
v 0.012944 0.021940 0.026511
v 0.010455 0.011984 0.004108
v 0.010455 0.021940 0.004108
v 0.019168 0.011984 0.004108
v 0.010455 0.011984 0.022155
v 0.019168 0.021940 0.029626
v 0.019168 0.021940 0.004108
v 0.019168 0.016962 0.025887
v 0.010455 0.021940 0.021531
v 0.019168 0.011984 0.011579
v 0.018545 0.018828 0.029002
v 0.015432 0.021317 0.029002
v 0.012322 0.011984 0.020909
f 525 523 528 
f 517 518 519 
f 518 517 520 
f 517 519 520 
f 518 516 521 
f 519 518 522 
f 518 521 522 
f 521 519 522 
f 519 521 523 
f 516 518 524 
f 520 516 524 
f 518 520 524 
f 520 519 525 
f 519 523 525 
f 520 523 526 
f 523 521 526 
f 516 520 527 
f 521 516 527 
f 520 526 527 
f 526 521 527 
f 523 520 528 
f 520 525 528 
o convex_14
v 0.009209 0.037500 0.028381
v -0.003859 0.036256 0.017801
v -0.004482 0.036256 0.018424
v -0.003237 0.038123 0.025891
v -0.006350 0.036256 0.029004
v 0.012322 0.036256 0.028381
v 0.006097 0.036878 0.017801
v -0.006350 0.037500 0.021537
v 0.006097 0.038123 0.027758
v 0.006097 0.036256 0.017801
v 0.011698 0.036878 0.024024
v -0.006350 0.037500 0.028381
v 0.002986 0.038123 0.024646
f 537 535 541 
f 531 530 533 
f 529 533 534 
f 533 530 534 
f 530 531 536 
f 531 533 536 
f 535 530 536 
f 534 530 538 
f 530 535 538 
f 538 535 539 
f 529 534 539 
f 537 529 539 
f 535 537 539 
f 534 538 539 
f 533 529 540 
f 532 536 540 
f 536 533 540 
f 529 537 540 
f 537 532 540 
f 536 532 541 
f 535 536 541 
f 532 537 541 
o convex_15
v 0.010455 -0.006689 0.009088
v 0.011700 0.011983 0.021535
v 0.010455 0.011983 0.021535
v 0.010455 0.011983 0.004108
v 0.019168 -0.006689 0.004108
v 0.019168 0.011983 0.004108
v 0.019168 -0.001709 0.010333
v 0.010455 -0.009178 0.004108
v 0.019168 0.011983 0.010333
v 0.019168 -0.006065 0.007222
v 0.011077 0.007003 0.019043
v 0.011077 -0.009178 0.006599
v 0.012322 0.010738 0.020911
f 552 548 554 
f 544 543 545 
f 542 544 545 
f 545 543 547 
f 546 545 547 
f 546 547 548 
f 542 545 549 
f 545 546 549 
f 547 543 550 
f 548 547 550 
f 546 548 551 
f 544 542 552 
f 543 544 552 
f 542 551 552 
f 551 548 552 
f 542 549 553 
f 549 546 553 
f 551 542 553 
f 546 551 553 
f 550 543 554 
f 548 550 554 
f 543 552 554 
