o convex_0
v -0.021508 -0.031196 -0.033027
v 0.006333 0.034349 -0.031868
v -0.001790 0.032607 -0.026648
v 0.035333 0.004176 -0.016207
v 0.048675 -0.001613 -0.035931
v -0.037755 0.008237 -0.016207
v -0.052833 0.014623 -0.035931
v 0.009806 -0.014371 -0.016207
v 0.012131 -0.032938 -0.035931
v 0.024895 0.024479 -0.016207
v 0.042877 0.019259 -0.035931
v -0.022087 0.026798 -0.016207
v -0.051087 -0.008575 -0.035931
v -0.022087 0.033183 -0.035931
v -0.022666 -0.009734 -0.016207
v 0.015035 -0.029454 -0.029546
v -0.048772 -0.005673 -0.027806
v -0.015700 -0.028301 -0.026069
v 0.044614 -0.007992 -0.031868
v 0.019097 0.032600 -0.035931
v -0.048772 0.019836 -0.031868
v 0.045771 0.012880 -0.029546
v -0.055737 0.007654 -0.032450
v -0.013964 -0.034104 -0.035931
v 0.016193 0.027380 -0.016788
v -0.022666 0.030858 -0.024331
v 0.009806 -0.033521 -0.031868
v 0.049843 0.002441 -0.032450
v -0.030789 0.021002 -0.016207
v 0.039973 0.012880 -0.021429
v 0.044035 0.018676 -0.032450
v -0.037755 0.003017 -0.016207
v 0.024895 0.027963 -0.023750
v -0.010481 -0.016696 -0.017369
v -0.051676 0.007078 -0.027227
v -0.048772 -0.010893 -0.031868
v 0.033018 0.001282 -0.016207
v -0.017447 0.028546 -0.016788
v -0.013385 -0.034104 -0.031868
v -0.045289 -0.006250 -0.025490
v -0.009324 -0.028878 -0.026069
v -0.041806 0.024479 -0.035349
v -0.030789 0.026221 -0.021429
v 0.017929 -0.030037 -0.034768
v 0.029535 0.021002 -0.016207
v 0.017929 0.033183 -0.032450
v -0.022666 0.033183 -0.032450
v 0.044614 -0.007992 -0.035931
v 0.037658 0.023320 -0.033027
v 0.049843 0.005919 -0.035931
v 0.015035 -0.027718 -0.027806
v -0.042395 0.013457 -0.021429
v 0.010395 -0.029454 -0.027806
v -0.054569 0.000123 -0.031868
v -0.055737 0.004759 -0.035931
v -0.040648 0.025062 -0.032450
v -0.033693 -0.022492 -0.035931
v -0.008166 0.034349 -0.031868
v -0.034272 -0.021916 -0.031868
v 0.019097 -0.009151 -0.016207
v 0.042299 -0.006256 -0.028387
v -0.048772 -0.000454 -0.025490
v -0.027885 -0.009734 -0.018529
v -0.053412 0.013457 -0.031868
f 35 52 64 
f 4 6 8 
f 7 5 9 
f 6 4 10 
f 5 7 11 
f 6 10 12 
f 7 9 13 
f 11 7 14 
f 8 6 15 
f 14 2 20 
f 11 14 20 
f 13 9 24 
f 2 3 25 
f 12 10 25 
f 24 9 27 
f 19 5 28 
f 6 12 29 
f 4 28 30 
f 28 22 30 
f 30 22 31 
f 15 6 32 
f 25 10 33 
f 10 31 33 
f 8 15 34 
f 15 18 34 
f 32 6 35 
f 4 8 37 
f 25 3 38 
f 12 25 38 
f 26 12 38 
f 18 1 39 
f 1 24 39 
f 24 27 39 
f 17 36 40 
f 8 34 41 
f 34 18 41 
f 18 39 41 
f 39 27 41 
f 14 7 42 
f 7 21 42 
f 12 26 43 
f 29 12 43 
f 21 29 43 
f 19 16 44 
f 16 27 44 
f 27 9 44 
f 10 4 45 
f 4 30 45 
f 31 10 45 
f 30 31 45 
f 20 2 46 
f 2 25 46 
f 25 33 46 
f 14 42 47 
f 9 5 48 
f 5 19 48 
f 44 9 48 
f 19 44 48 
f 11 20 49 
f 31 11 49 
f 33 31 49 
f 20 46 49 
f 46 33 49 
f 5 11 50 
f 28 5 50 
f 22 28 50 
f 11 31 50 
f 31 22 50 
f 16 19 51 
f 6 29 52 
f 29 21 52 
f 35 6 52 
f 27 16 53 
f 8 41 53 
f 41 27 53 
f 16 51 53 
f 51 8 53 
f 35 23 54 
f 13 36 54 
f 36 17 54 
f 7 13 55 
f 23 7 55 
f 13 54 55 
f 54 23 55 
f 42 21 56 
f 43 26 56 
f 21 43 56 
f 26 47 56 
f 47 42 56 
f 24 1 57 
f 13 24 57 
f 36 13 57 
f 3 2 58 
f 2 14 58 
f 38 3 58 
f 26 38 58 
f 14 47 58 
f 47 26 58 
f 1 18 59 
f 18 40 59 
f 40 36 59 
f 57 1 59 
f 36 57 59 
f 37 8 60 
f 8 51 60 
f 51 37 60 
f 28 4 61 
f 19 28 61 
f 4 37 61 
f 51 19 61 
f 37 51 61 
f 32 35 62 
f 40 32 62 
f 17 40 62 
f 54 17 62 
f 35 54 62 
f 18 15 63 
f 15 32 63 
f 40 18 63 
f 32 40 63 
f 21 7 64 
f 7 23 64 
f 23 35 64 
f 52 21 64 
o convex_1
v -0.001201 -0.014954 -0.016207
v -0.012806 0.027968 -0.015627
v -0.012806 0.027968 -0.016207
v 0.034758 0.010563 -0.015627
v -0.028464 0.001869 -0.008085
v 0.028377 0.012299 -0.008085
v 0.000531 -0.019601 -0.008085
v -0.036585 0.001287 -0.016207
v -0.019769 0.023326 -0.008085
v 0.023153 0.025062 -0.016207
v 0.032437 0.001287 -0.016207
v 0.019668 0.022743 -0.008085
v -0.032524 0.018101 -0.015627
v 0.026638 0.001864 -0.008085
v 0.009816 -0.014377 -0.016207
v -0.020926 -0.009734 -0.016207
v 0.016772 -0.009734 -0.008085
v -0.028464 0.011140 -0.008085
v -0.008746 -0.014954 -0.008085
v -0.027307 0.023903 -0.016207
v 0.027795 0.022161 -0.014466
v -0.016291 0.025644 -0.009826
v 0.015608 0.025644 -0.012146
v -0.037174 0.007662 -0.015627
v -0.026725 0.018101 -0.008666
v -0.009910 -0.014377 -0.016207
v 0.030698 0.005920 -0.009826
v 0.026638 0.017524 -0.008085
v 0.019668 -0.008575 -0.015627
v 0.034176 0.003024 -0.015627
v -0.001201 -0.019601 -0.008666
v 0.033012 0.015200 -0.016207
v -0.034845 0.000128 -0.015045
v 0.014451 0.026804 -0.015627
v 0.008651 -0.015536 -0.008085
v -0.019187 0.027381 -0.015627
v -0.027307 0.022161 -0.012725
v 0.022571 0.023321 -0.010406
v -0.035428 0.001869 -0.013886
v 0.031855 0.015200 -0.013305
v -0.022083 -0.009152 -0.015627
v -0.034845 0.013459 -0.016207
v 0.035340 0.006502 -0.016207
v -0.029046 0.006502 -0.008085
v -0.029628 0.000128 -0.010406
v -0.010485 0.023903 -0.008085
f 86 73 110 
f 70 69 71 
f 67 65 72 
f 69 70 73 
f 65 67 74 
f 65 74 75 
f 73 70 76 
f 70 71 78 
f 65 75 79 
f 72 65 80 
f 78 71 81 
f 69 73 82 
f 71 69 83 
f 67 72 84 
f 66 86 87 
f 86 76 87 
f 82 73 89 
f 88 82 89 
f 77 88 89 
f 80 65 90 
f 68 70 91 
f 70 78 91 
f 76 70 92 
f 79 75 93 
f 75 81 93 
f 78 81 94 
f 81 75 94 
f 91 78 94 
f 65 79 95 
f 79 71 95 
f 71 83 95 
f 90 65 95 
f 80 90 95 
f 75 74 96 
f 74 85 96 
f 67 66 98 
f 74 67 98 
f 66 87 98 
f 87 74 98 
f 71 79 99 
f 81 71 99 
f 79 93 99 
f 93 81 99 
f 66 67 100 
f 67 84 100 
f 86 66 100 
f 73 86 100 
f 84 77 101 
f 89 73 101 
f 77 89 101 
f 100 84 101 
f 73 100 101 
f 85 74 102 
f 74 87 102 
f 87 76 102 
f 76 92 102 
f 92 85 102 
f 88 72 103 
f 72 97 103 
f 70 68 104 
f 92 70 104 
f 85 92 104 
f 68 96 104 
f 96 85 104 
f 72 80 105 
f 95 83 105 
f 80 95 105 
f 97 72 105 
f 83 97 105 
f 84 72 106 
f 77 84 106 
f 72 88 106 
f 88 77 106 
f 68 91 107 
f 94 75 107 
f 91 94 107 
f 96 68 107 
f 75 96 107 
f 69 82 108 
f 82 88 108 
f 103 69 108 
f 88 103 108 
f 83 69 109 
f 97 83 109 
f 69 103 109 
f 103 97 109 
f 73 76 110 
f 76 86 110 
o convex_2
v 0.002853 -0.022498 -0.001124
v -0.013964 0.023907 -0.007505
v -0.013964 0.023907 -0.008085
v 0.026637 0.015782 -0.007505
v -0.001207 -0.020179 -0.008085
v -0.017445 0.016361 -0.001124
v 0.019674 0.016941 -0.001124
v -0.028472 0.003019 -0.008085
v 0.027215 0.003019 -0.008085
v 0.024312 0.004178 -0.001124
v -0.004104 -0.022498 -0.001124
v 0.018512 0.022743 -0.008085
v 0.000528 0.021004 -0.001124
v -0.019764 0.004762 -0.001124
v -0.024407 0.019265 -0.007505
v 0.016193 -0.009735 -0.008085
v -0.026726 0.003019 -0.005764
v 0.009815 -0.016117 -0.001124
v -0.012223 0.021004 -0.001705
v -0.002364 -0.023078 -0.004605
v 0.012134 0.020424 -0.001124
v -0.027888 0.011144 -0.007505
v 0.008653 -0.016117 -0.007505
v -0.026148 0.000120 -0.008085
v -0.014548 -0.006257 -0.001124
v -0.020926 0.022163 -0.008085
v 0.023155 0.001279 -0.001124
v 0.017350 0.022743 -0.006925
v 0.023155 0.020424 -0.008085
v -0.017445 0.021004 -0.003445
v 0.022572 0.012883 -0.001124
v -0.019764 0.009980 -0.001124
v 0.027799 0.008241 -0.006925
v -0.008169 -0.015537 -0.008085
v -0.000629 -0.024242 -0.002284
v 0.000528 -0.020179 -0.008085
v -0.027888 0.001859 -0.007505
v -0.025564 0.001859 -0.005185
v -0.021510 0.016941 -0.004025
v 0.026637 0.002439 -0.006925
v -0.027310 0.013463 -0.008085
v -0.002942 -0.023658 -0.002284
f 147 134 152 
f 116 111 117 
f 113 115 118 
f 115 113 119 
f 117 111 120 
f 111 116 121 
f 113 112 122 
f 119 113 122 
f 116 117 123 
f 121 116 124 
f 115 119 126 
f 120 111 128 
f 111 126 128 
f 123 112 129 
f 116 123 129 
f 123 117 131 
f 118 127 132 
f 126 111 133 
f 118 115 134 
f 121 124 135 
f 112 113 136 
f 113 118 136 
f 120 128 137 
f 122 112 138 
f 112 123 138 
f 131 117 138 
f 123 131 138 
f 117 114 139 
f 114 119 139 
f 119 122 139 
f 122 138 139 
f 138 117 139 
f 129 112 140 
f 116 129 140 
f 112 136 140 
f 136 125 140 
f 114 117 141 
f 117 120 141 
f 124 116 142 
f 127 124 142 
f 132 127 142 
f 119 114 143 
f 114 141 143 
f 141 120 143 
f 115 130 144 
f 134 115 144 
f 130 134 144 
f 111 121 145 
f 133 111 145 
f 133 145 146 
f 115 126 146 
f 130 115 146 
f 126 133 146 
f 145 130 146 
f 127 118 147 
f 118 134 147 
f 124 127 148 
f 121 135 148 
f 135 124 148 
f 127 147 148 
f 147 121 148 
f 125 132 149 
f 116 140 149 
f 140 125 149 
f 142 116 149 
f 132 142 149 
f 126 119 150 
f 128 126 150 
f 120 137 150 
f 137 128 150 
f 119 143 150 
f 143 120 150 
f 132 125 151 
f 118 132 151 
f 136 118 151 
f 125 136 151 
f 134 130 152 
f 145 121 152 
f 130 145 152 
f 121 147 152 
o convex_3
v 0.014456 0.018679 0.002356
v -0.019187 0.005920 -0.001124
v -0.015124 -0.005100 -0.001124
v -0.003527 -0.034095 0.004097
v 0.023738 0.003021 -0.001124
v -0.015124 0.015780 0.004097
v 0.020835 0.003021 0.004097
v -0.000044 -0.025397 -0.001124
v -0.005843 0.021001 -0.001124
v 0.001695 -0.032935 0.003516
v 0.021414 0.015202 -0.001124
v 0.004011 0.019840 0.004097
v -0.014544 -0.003939 0.004097
v -0.017448 0.015780 -0.001124
v 0.020835 0.009981 0.004097
v 0.011553 0.020423 -0.001124
v 0.013297 -0.013793 0.004097
v -0.008166 0.019840 0.004097
v 0.009233 -0.016698 -0.001124
v -0.002947 -0.024814 -0.001124
v -0.016288 0.004176 0.004097
v -0.012225 0.019840 -0.000543
v 0.017355 0.015202 0.004097
v -0.003527 -0.034095 0.003516
v -0.019187 0.009398 -0.000543
v 0.023738 0.008242 -0.000543
v 0.019095 0.017524 0.000037
v -0.000044 0.021001 0.000617
v -0.000044 -0.034679 0.004097
v 0.021414 0.014624 0.000617
v 0.014456 -0.010316 -0.001124
v -0.000624 -0.032935 0.002356
v -0.019187 0.005920 -0.000543
v 0.005170 -0.021336 -0.001124
f 162 184 186 
f 155 154 157 
f 158 156 159 
f 155 157 160 
f 157 154 161 
f 157 161 163 
f 158 159 164 
f 156 158 165 
f 161 154 166 
f 164 159 167 
f 163 161 168 
f 164 153 168 
f 159 156 169 
f 157 159 169 
f 162 157 169 
f 158 164 170 
f 160 157 171 
f 155 160 172 
f 165 158 173 
f 166 158 174 
f 161 166 174 
f 158 170 174 
f 170 161 174 
f 153 164 175 
f 164 167 175 
f 156 155 176 
f 155 172 176 
f 166 154 177 
f 158 166 177 
f 173 158 177 
f 159 157 178 
f 157 163 178 
f 167 159 178 
f 168 153 179 
f 163 168 179 
f 153 175 179 
f 168 161 180 
f 164 168 180 
f 170 164 180 
f 161 170 180 
f 169 156 181 
f 162 169 181 
f 156 176 181 
f 175 167 182 
f 178 163 182 
f 167 178 182 
f 163 179 182 
f 179 175 182 
f 157 162 183 
f 171 157 183 
f 162 171 183 
f 172 160 184 
f 176 172 184 
f 162 181 184 
f 181 176 184 
f 154 155 185 
f 155 156 185 
f 156 165 185 
f 165 173 185 
f 177 154 185 
f 173 177 185 
f 160 171 186 
f 171 162 186 
f 184 160 186 
o convex_4
v 0.019675 0.012298 0.004097
v -0.018606 -0.003364 0.012218
v -0.018029 -0.005687 0.011638
v 0.026054 -0.003364 0.012799
v -0.000626 -0.035837 0.004097
v -0.012226 0.018101 0.004097
v -0.004684 -0.039900 0.012799
v 0.005171 0.019262 0.012799
v -0.014548 -0.003941 0.004097
v -0.011068 0.015200 0.012799
v 0.003436 -0.039322 0.011058
v -0.006429 -0.039900 0.008737
v 0.012714 -0.015534 0.004097
v 0.019093 0.011720 0.012799
v 0.012714 0.017523 0.004097
v 0.005753 -0.033520 0.006419
v 0.020833 0.003017 0.004097
v -0.015707 0.013460 0.004097
v -0.018606 -0.000468 0.012799
v 0.001114 0.019846 0.004097
v 0.003436 -0.038160 0.012799
v 0.022574 -0.006843 0.009318
v -0.004107 -0.034103 0.004097
v -0.012226 -0.019019 0.006419
v -0.001204 -0.041645 0.008158
v -0.001785 0.019262 0.011638
v -0.007006 -0.038160 0.012218
v -0.016284 0.004178 0.004097
v 0.026054 -0.001040 0.012218
v 0.016771 0.014038 0.012799
v 0.003436 -0.038744 0.008158
v -0.014548 0.010559 0.012218
v -0.009323 0.019262 0.004678
v -0.008746 0.016945 0.012799
v -0.008164 -0.034103 0.007578
v 0.026054 -0.003364 0.012218
v 0.020833 0.009975 0.004097
v 0.001695 -0.034103 0.004097
v 0.016194 0.015777 0.005258
v -0.018029 -0.005687 0.012799
v -0.014548 0.015783 0.004678
v 0.010396 -0.023076 0.005258
v -0.003525 -0.041645 0.008158
v -0.000626 -0.041062 0.011638
v 0.012714 0.016361 0.012218
f 216 225 231 
f 187 191 192 
f 193 190 194 
f 192 191 195 
f 193 194 196 
f 191 187 199 
f 194 190 200 
f 187 192 201 
f 199 187 203 
f 192 195 204 
f 193 196 205 
f 194 201 206 
f 201 192 206 
f 190 193 207 
f 197 190 207 
f 199 203 208 
f 195 191 209 
f 189 195 210 
f 195 209 210 
f 194 206 212 
f 198 193 213 
f 189 188 214 
f 195 189 214 
f 204 195 214 
f 205 204 214 
f 188 205 214 
f 187 200 215 
f 200 190 215 
f 194 200 216 
f 197 211 217 
f 211 191 217 
f 205 196 218 
f 204 205 218 
f 206 192 219 
f 212 206 219 
f 212 219 220 
f 192 196 220 
f 196 194 220 
f 194 212 220 
f 219 192 220 
f 198 189 221 
f 209 198 221 
f 210 209 221 
f 189 210 221 
f 190 197 222 
f 202 208 222 
f 208 203 222 
f 215 190 222 
f 203 215 222 
f 197 217 222 
f 217 202 222 
f 203 187 223 
f 187 215 223 
f 215 203 223 
f 191 199 224 
f 217 191 224 
f 202 217 224 
f 200 187 225 
f 187 201 225 
f 216 200 225 
f 188 189 226 
f 189 198 226 
f 205 188 226 
f 193 205 226 
f 213 193 226 
f 198 213 226 
f 196 192 227 
f 192 204 227 
f 218 196 227 
f 204 218 227 
f 208 202 228 
f 199 208 228 
f 224 199 228 
f 202 224 228 
f 193 198 229 
f 209 191 229 
f 198 209 229 
f 191 211 229 
f 229 211 230 
f 207 193 230 
f 197 207 230 
f 211 197 230 
f 193 229 230 
f 201 194 231 
f 194 216 231 
f 225 201 231 
o convex_5
v 0.016776 0.017522 0.018020
v -0.016285 -0.011473 0.026720
v -0.016285 -0.011473 0.027300
v 0.001699 -0.038742 0.012802
v 0.026633 -0.010312 0.027300
v -0.015126 0.008821 0.012802
v -0.001783 0.022164 0.027300
v 0.026633 -0.002778 0.012802
v 0.001115 -0.033522 0.027300
v -0.006428 -0.037581 0.012802
v 0.004597 0.019265 0.012802
v 0.022576 0.011719 0.027300
v -0.015706 0.011713 0.027300
v 0.030695 0.006500 0.019761
v -0.016285 -0.006843 0.012802
v -0.008167 0.020997 0.018601
v -0.012808 -0.024816 0.024399
v 0.009233 0.022164 0.024979
v 0.019095 0.012302 0.012802
v 0.012131 -0.028297 0.023239
v -0.002946 -0.032939 0.027300
v 0.017356 0.017522 0.027300
v -0.016285 0.011136 0.021499
v -0.010485 0.015784 0.012802
v 0.013874 -0.025399 0.018601
v 0.004597 0.022164 0.018601
v 0.030115 0.001281 0.016280
v -0.011065 0.018099 0.027300
v -0.004685 -0.039325 0.013381
v 0.027217 -0.003361 0.027300
v 0.003438 -0.032939 0.027300
v -0.014546 -0.017859 0.019181
v 0.012131 0.019265 0.015701
v 0.024315 -0.013794 0.025560
v 0.004017 -0.036421 0.012802
v 0.030695 0.006500 0.020919
v -0.011065 -0.024238 0.027300
v 0.021997 -0.016115 0.027300
v 0.030115 0.003018 0.016280
v -0.015126 0.012880 0.019761
v 0.002279 0.022747 0.022659
v 0.007490 0.022164 0.027300
v -0.016285 0.003596 0.012802
v 0.011551 0.021003 0.020340
v 0.001115 0.019265 0.012802
v 0.017356 0.014623 0.013381
v 0.000535 -0.039325 0.013381
v -0.011644 -0.022495 0.012802
v -0.009326 0.020420 0.021499
v -0.016285 0.009981 0.027300
v 0.030695 0.002435 0.018601
v 0.017356 0.017522 0.019761
v 0.026633 -0.000463 0.012802
v -0.012224 -0.025393 0.024979
v 0.012710 -0.027720 0.020919
v 0.026633 -0.010312 0.025560
v -0.014546 0.014040 0.027300
v -0.009906 0.019843 0.019761
v -0.007008 0.021586 0.020340
v -0.008746 0.016938 0.012802
v 0.010972 -0.027137 0.026720
f 251 269 292 
f 234 236 238 
f 235 237 239 
f 236 234 240 
f 237 235 241 
f 239 237 242 
f 238 236 243 
f 234 238 244 
f 233 234 246 
f 237 241 246 
f 234 233 248 
f 239 242 250 
f 240 234 252 
f 238 243 253 
f 246 234 254 
f 242 237 255 
f 244 238 259 
f 241 235 260 
f 240 252 260 
f 243 236 261 
f 236 240 262 
f 235 251 262 
f 233 246 263 
f 248 233 263 
f 241 248 263 
f 242 257 264 
f 235 239 266 
f 239 256 266 
f 253 243 267 
f 245 253 267 
f 261 236 267 
f 243 261 267 
f 252 234 268 
f 236 262 269 
f 265 236 269 
f 251 265 269 
f 250 245 270 
f 258 239 270 
f 237 254 271 
f 255 237 271 
f 249 257 272 
f 238 253 273 
f 253 249 273 
f 272 238 273 
f 249 272 273 
f 237 246 274 
f 246 254 274 
f 254 237 274 
f 249 253 275 
f 257 249 275 
f 232 264 275 
f 264 257 275 
f 242 255 276 
f 257 242 276 
f 247 257 276 
f 232 245 277 
f 250 242 277 
f 245 250 277 
f 264 232 277 
f 242 264 277 
f 260 235 278 
f 240 260 278 
f 235 262 278 
f 262 240 278 
f 246 241 279 
f 263 246 279 
f 241 263 279 
f 259 238 280 
f 234 244 281 
f 254 234 281 
f 244 254 281 
f 245 267 282 
f 267 236 282 
f 270 245 282 
f 258 270 282 
f 245 232 283 
f 253 245 283 
f 232 275 283 
f 275 253 283 
f 239 250 284 
f 270 239 284 
f 250 270 284 
f 234 248 285 
f 248 241 285 
f 241 260 285 
f 260 252 285 
f 268 234 285 
f 252 268 285 
f 251 235 286 
f 265 251 286 
f 256 265 286 
f 235 266 286 
f 266 256 286 
f 256 239 287 
f 239 258 287 
f 236 265 287 
f 265 256 287 
f 282 236 287 
f 258 282 287 
f 254 244 288 
f 244 259 288 
f 271 254 288 
f 247 255 289 
f 255 271 289 
f 280 247 289 
f 259 280 289 
f 288 259 289 
f 271 288 289 
f 257 247 290 
f 238 272 290 
f 272 257 290 
f 280 238 290 
f 247 280 290 
f 255 247 291 
f 247 276 291 
f 276 255 291 
f 262 251 292 
f 269 262 292 
o convex_6
v -0.037754 -0.021344 0.043545
v -0.018030 -0.035843 0.060948
v -0.019191 -0.035843 0.060948
v -0.030209 -0.019603 0.054563
v -0.025574 -0.019603 0.040065
v -0.029631 -0.031782 0.047029
v -0.031952 -0.030621 0.052825
v -0.018610 -0.037581 0.057464
v -0.033689 -0.019603 0.037743
v -0.034852 -0.019603 0.052242
v -0.027894 -0.020184 0.037743
v -0.026155 -0.019603 0.046450
v -0.033689 -0.027145 0.042965
v -0.031952 -0.024245 0.055144
v -0.023831 -0.036422 0.057464
v -0.035432 -0.027145 0.049923
v -0.038334 -0.019603 0.045866
v -0.018030 -0.034682 0.059787
v -0.030209 -0.028884 0.043545
v -0.020351 -0.037581 0.060366
v -0.029631 -0.032941 0.049923
v -0.036013 -0.026565 0.046450
v -0.027894 -0.020184 0.052242
v -0.031952 -0.021344 0.055144
v -0.018030 -0.035261 0.057464
v -0.034270 -0.023664 0.040065
v -0.020351 -0.036422 0.055144
v -0.024992 -0.035843 0.053986
v -0.036591 -0.022505 0.049923
v -0.028470 -0.033522 0.055144
f 313 320 322 
f 295 294 296 
f 296 297 301 
f 296 301 302 
f 297 300 303 
f 301 297 303 
f 297 296 304 
f 299 306 308 
f 301 293 309 
f 302 301 309 
f 296 294 310 
f 297 304 310 
f 298 305 311 
f 294 295 312 
f 300 294 312 
f 295 306 312 
f 305 298 313 
f 299 308 313 
f 313 308 314 
f 293 305 314 
f 309 293 314 
f 308 309 314 
f 305 313 314 
f 304 296 315 
f 296 310 315 
f 310 304 315 
f 295 296 316 
f 296 302 316 
f 306 295 316 
f 302 306 316 
f 294 300 317 
f 300 297 317 
f 310 294 317 
f 297 310 317 
f 293 301 318 
f 301 303 318 
f 305 293 318 
f 303 311 318 
f 311 305 318 
f 303 300 319 
f 298 311 319 
f 311 303 319 
f 300 312 320 
f 312 307 320 
f 313 298 320 
f 319 300 320 
f 298 319 320 
f 306 302 321 
f 308 306 321 
f 302 309 321 
f 309 308 321 
f 306 299 322 
f 312 306 322 
f 307 312 322 
f 299 313 322 
f 320 307 322 
o convex_7
v -0.030212 -0.007418 0.033683
v -0.030212 -0.018440 0.053987
v -0.031949 -0.018440 0.053987
v -0.016870 0.005921 0.040644
v -0.016290 -0.017279 0.036005
v -0.016290 0.007664 0.027301
v -0.036593 -0.005683 0.045283
v -0.034271 -0.019601 0.037747
v -0.016870 -0.011477 0.027301
v -0.016290 -0.010319 0.047605
v -0.025573 -0.005101 0.049345
v -0.038334 -0.018440 0.042964
v -0.036593 -0.007997 0.038904
v -0.016290 -0.017858 0.041804
v -0.016290 -0.002203 0.047023
v -0.034851 -0.019601 0.052244
v -0.020351 -0.004522 0.027301
v -0.033692 -0.006839 0.049345
v -0.027888 -0.019601 0.037167
v -0.016870 0.007664 0.036587
v -0.029051 -0.019601 0.052824
v -0.034851 -0.003943 0.041224
v -0.036593 -0.012059 0.049345
v -0.035432 -0.014960 0.037167
v -0.016290 -0.015539 0.045863
v -0.016870 0.007664 0.027301
v -0.038334 -0.019601 0.045863
v -0.038334 -0.011477 0.044121
v -0.024412 -0.019601 0.040644
v -0.035432 -0.005101 0.046443
v -0.018611 0.004760 0.027301
v -0.016290 -0.011477 0.027301
v -0.016290 0.002438 0.044121
v -0.019192 -0.008579 0.027301
v -0.032532 -0.006257 0.049345
v -0.038334 -0.012059 0.041804
v -0.037171 -0.006257 0.042384
v -0.030212 -0.019601 0.053987
v -0.030212 -0.012638 0.033683
v -0.037171 -0.016700 0.049345
f 350 349 362 
f 327 328 332 
f 325 324 333 
f 327 332 336 
f 324 332 337 
f 332 328 337 
f 333 324 337 
f 328 331 339 
f 330 331 341 
f 338 330 341 
f 338 341 343 
f 338 325 345 
f 325 340 345 
f 330 334 346 
f 335 323 346 
f 336 332 347 
f 343 336 347 
f 328 339 348 
f 342 328 348 
f 335 344 348 
f 344 342 348 
f 334 330 349 
f 330 338 349 
f 345 329 350 
f 334 349 350 
f 327 336 351 
f 341 327 351 
f 336 343 351 
f 343 341 351 
f 326 342 352 
f 344 329 352 
f 342 344 352 
f 329 345 352 
f 345 340 352 
f 323 335 353 
f 339 323 353 
f 335 348 353 
f 348 339 353 
f 328 327 354 
f 331 328 354 
f 327 341 354 
f 341 331 354 
f 337 328 355 
f 333 337 355 
f 342 326 355 
f 328 342 355 
f 331 330 356 
f 339 331 356 
f 325 333 357 
f 340 325 357 
f 326 352 357 
f 352 340 357 
f 333 355 357 
f 355 326 357 
f 346 334 358 
f 335 346 358 
f 334 350 358 
f 358 350 359 
f 344 335 359 
f 329 344 359 
f 350 329 359 
f 335 358 359 
f 324 325 360 
f 332 324 360 
f 325 338 360 
f 338 343 360 
f 347 332 360 
f 343 347 360 
f 323 339 361 
f 330 346 361 
f 346 323 361 
f 356 330 361 
f 339 356 361 
f 338 345 362 
f 349 338 362 
f 345 350 362 
o convex_8
v 0.005754 0.021002 0.036005
v -0.016288 -0.017855 0.038327
v -0.016288 -0.017855 0.041221
v 0.017357 -0.020752 0.033105
v 0.005754 -0.005669 0.053987
v -0.014546 0.014037 0.027301
v -0.001784 -0.032944 0.027301
v 0.017357 0.017522 0.027301
v -0.008746 0.007655 0.048762
v 0.017357 0.004759 0.048182
v 0.002853 -0.019598 0.047023
v 0.017357 -0.017855 0.043543
v -0.016288 -0.012639 0.047023
v 0.007493 0.015197 0.048185
v -0.016288 -0.012056 0.027301
v 0.017357 -0.017855 0.027301
v -0.005848 0.020424 0.031366
v -0.016288 0.007078 0.040064
v -0.001784 0.017522 0.043541
v -0.001205 0.022167 0.027301
v -0.001784 0.002439 0.052824
v 0.002273 -0.032944 0.027884
v 0.014455 0.015780 0.041221
v 0.001693 -0.010891 0.052824
v -0.016288 -0.016118 0.045283
v 0.005754 0.009403 0.051664
v -0.016288 -0.002200 0.047023
v 0.017357 -0.008577 0.048182
v -0.009906 -0.025397 0.027301
v -0.011645 0.015780 0.034845
v -0.004106 -0.029459 0.033105
v -0.016288 0.009403 0.027301
v 0.006910 -0.013216 0.051082
v 0.001693 0.012877 0.049925
v 0.004595 -0.029459 0.033683
v 0.009232 0.021584 0.028464
v 0.012133 0.001862 0.051664
v 0.017357 -0.019598 0.041801
v -0.002947 -0.003366 0.052824
v 0.008073 0.018682 0.042964
v 0.014455 -0.023077 0.027301
v 0.017357 0.016362 0.033685
v 0.002273 0.019265 0.042384
v -0.012807 0.009403 0.042961
v 0.000534 -0.022500 0.043541
v 0.012713 0.019842 0.032523
v 0.011554 0.010563 0.049345
v -0.011068 0.018099 0.027301
v 0.009232 -0.027722 0.033103
v 0.004595 -0.001040 0.053987
v 0.000534 -0.014953 0.050502
v -0.015709 0.011718 0.033685
v 0.001693 -0.006257 0.053987
v 0.017357 0.008815 0.045283
v -0.000045 0.015780 0.047023
v -0.000625 0.021002 0.035425
v -0.006428 0.014037 0.044123
v -0.003526 0.005918 0.051664
v -0.002947 -0.032361 0.027884
v 0.009812 0.016362 0.045863
v 0.004015 -0.021912 0.044121
v -0.005848 0.018099 0.038327
v -0.000625 -0.032361 0.029624
v 0.006910 0.022167 0.027301
f 363 398 426 
f 369 368 370 
f 366 370 372 
f 366 372 374 
f 364 365 375 
f 368 369 377 
f 364 375 377 
f 369 370 378 
f 370 366 378 
f 377 375 380 
f 370 368 382 
f 375 365 387 
f 380 375 389 
f 374 372 390 
f 365 364 391 
f 364 377 391 
f 377 369 391 
f 387 365 393 
f 368 377 394 
f 377 380 394 
f 373 374 395 
f 367 386 395 
f 390 367 395 
f 374 390 395 
f 388 376 396 
f 367 390 399 
f 390 372 399 
f 374 373 400 
f 366 374 400 
f 389 375 401 
f 383 389 401 
f 378 366 403 
f 369 378 403 
f 384 369 403 
f 372 370 404 
f 402 363 405 
f 376 402 405 
f 389 371 406 
f 380 389 406 
f 373 387 407 
f 387 393 407 
f 370 398 408 
f 398 363 408 
f 363 402 408 
f 402 385 408 
f 404 370 408 
f 385 404 408 
f 376 388 409 
f 388 399 409 
f 399 372 409 
f 382 368 410 
f 379 382 410 
f 392 379 410 
f 397 384 411 
f 366 400 411 
f 400 397 411 
f 403 366 411 
f 384 403 411 
f 388 383 412 
f 367 399 412 
f 399 388 412 
f 386 375 413 
f 387 373 413 
f 375 387 413 
f 373 395 413 
f 395 386 413 
f 368 394 414 
f 394 380 414 
f 380 406 414 
f 406 392 414 
f 410 368 414 
f 392 410 414 
f 386 367 415 
f 375 386 415 
f 383 401 415 
f 401 375 415 
f 412 383 415 
f 367 412 415 
f 372 404 416 
f 404 385 416 
f 409 372 416 
f 396 376 417 
f 371 396 417 
f 405 381 417 
f 376 405 417 
f 363 382 418 
f 382 379 418 
f 381 405 418 
f 405 363 418 
f 406 371 419 
f 392 406 419 
f 371 417 419 
f 417 381 419 
f 383 388 420 
f 371 389 420 
f 389 383 420 
f 396 371 420 
f 388 396 420 
f 365 391 421 
f 391 369 421 
f 393 365 421 
f 402 376 422 
f 385 402 422 
f 376 409 422 
f 416 385 422 
f 409 416 422 
f 400 373 423 
f 397 400 423 
f 373 407 423 
f 407 397 423 
f 379 392 424 
f 418 379 424 
f 381 418 424 
f 419 381 424 
f 392 419 424 
f 369 384 425 
f 384 397 425 
f 407 393 425 
f 397 407 425 
f 421 369 425 
f 393 421 425 
f 370 382 426 
f 382 363 426 
f 398 370 426 
o convex_9
v -0.022090 0.001860 0.016281
v -0.016290 0.008243 0.027300
v -0.016290 0.009983 0.024979
v -0.016290 -0.006838 0.012800
v -0.016870 -0.010900 0.027300
v -0.024411 0.009983 0.024400
v -0.016290 0.003022 0.012800
v -0.019191 -0.008578 0.027300
v -0.023831 0.009983 0.021501
v -0.018031 -0.005676 0.012800
v -0.023830 0.004762 0.019760
v -0.016290 -0.010900 0.027300
v -0.016290 0.009983 0.022080
v -0.019773 -0.000457 0.027300
v -0.019772 0.001860 0.013960
v -0.021510 0.010565 0.022080
v -0.024411 0.007663 0.023241
f 435 437 443 
f 428 429 432 
f 431 428 434 
f 430 431 436 
f 433 430 436 
f 434 427 436 
f 431 434 436 
f 427 434 437 
f 435 427 437 
f 429 428 438 
f 431 430 438 
f 428 431 438 
f 430 433 439 
f 429 438 439 
f 438 430 439 
f 428 432 440 
f 434 428 440 
f 432 434 440 
f 427 435 441 
f 435 433 441 
f 433 436 441 
f 436 427 441 
f 432 429 442 
f 435 432 442 
f 433 435 442 
f 439 433 442 
f 429 439 442 
f 434 432 443 
f 432 435 443 
f 437 434 443 
o convex_10
v 0.027800 -0.007422 0.044700
v 0.031281 -0.024822 0.034843
v 0.034760 -0.024822 0.034843
v 0.028381 -0.003358 0.029043
v 0.041720 -0.014376 0.042964
v 0.032441 -0.024822 0.052246
v 0.027800 -0.024822 0.037748
v 0.040559 -0.023079 0.038328
v 0.027800 -0.013798 0.027882
v 0.039400 -0.012062 0.045864
v 0.039980 -0.024822 0.047603
v 0.038239 -0.012644 0.034843
v 0.027800 -0.019018 0.047023
v 0.027800 -0.002198 0.032525
v 0.039980 -0.010901 0.040064
v 0.031861 -0.014958 0.029625
v 0.033020 -0.012644 0.048182
v 0.035920 -0.023662 0.051664
v 0.029540 -0.005101 0.040641
v 0.041140 -0.024822 0.041221
v 0.041140 -0.014958 0.037748
v 0.039400 -0.021921 0.036007
v 0.027800 -0.011484 0.047023
v 0.027800 -0.024822 0.041800
v 0.027800 -0.020180 0.031364
v 0.039980 -0.017859 0.047603
v 0.039400 -0.010901 0.043544
v 0.041720 -0.023079 0.043544
v 0.037660 -0.013222 0.047603
v 0.028381 -0.002198 0.032525
v 0.035920 -0.013798 0.032525
v 0.030121 -0.009161 0.046444
v 0.033601 -0.021339 0.032525
v 0.041720 -0.019018 0.039487
v 0.034181 -0.023662 0.052246
v 0.037660 -0.024822 0.036007
f 476 465 479 
f 445 446 449 
f 445 449 450 
f 450 444 452 
f 449 446 454 
f 444 450 456 
f 452 444 457 
f 447 452 457 
f 455 447 458 
f 452 447 459 
f 449 454 461 
f 457 444 462 
f 454 446 463 
f 458 448 464 
f 455 458 464 
f 455 464 465 
f 444 456 466 
f 456 449 466 
f 450 449 467 
f 449 456 467 
f 456 450 467 
f 446 445 468 
f 445 450 468 
f 450 452 468 
f 448 453 469 
f 461 454 469 
f 453 448 470 
f 448 458 470 
f 462 453 470 
f 454 463 471 
f 448 469 471 
f 469 454 471 
f 469 453 472 
f 461 469 472 
f 447 457 473 
f 458 447 473 
f 457 462 473 
f 470 458 473 
f 462 470 473 
f 447 455 474 
f 459 447 474 
f 465 459 474 
f 455 465 474 
f 462 444 475 
f 453 462 475 
f 444 466 475 
f 466 460 475 
f 472 453 475 
f 460 472 475 
f 452 459 476 
f 459 465 476 
f 446 468 476 
f 468 452 476 
f 463 451 477 
f 464 448 477 
f 451 465 477 
f 465 464 477 
f 471 463 477 
f 448 471 477 
f 449 461 478 
f 466 449 478 
f 460 466 478 
f 472 460 478 
f 461 472 478 
f 463 446 479 
f 451 463 479 
f 465 451 479 
f 446 476 479 
o convex_11
v 0.032435 -0.035262 0.042969
v 0.041141 -0.024822 0.044708
v 0.041141 -0.025405 0.044708
v 0.017937 -0.039322 0.059208
v 0.028383 -0.024822 0.037744
v 0.032435 -0.024822 0.052824
v 0.031279 -0.037583 0.052242
v 0.019679 -0.041062 0.055143
v 0.038238 -0.025405 0.036585
v 0.034179 -0.029466 0.053403
v 0.039399 -0.030625 0.045287
v 0.030695 -0.025405 0.035423
v 0.020258 -0.041062 0.059208
v 0.029539 -0.024822 0.047602
v 0.029539 -0.038742 0.049343
v 0.035919 -0.032365 0.040647
v 0.027222 -0.038163 0.047602
v 0.017937 -0.038742 0.056886
v 0.034179 -0.026564 0.053403
v 0.036496 -0.034102 0.048181
v 0.039981 -0.025405 0.047602
v 0.035919 -0.024822 0.035423
v 0.040560 -0.027725 0.042389
v 0.028383 -0.024822 0.042389
v 0.037657 -0.030625 0.049343
v 0.018518 -0.040483 0.055722
v 0.023159 -0.041062 0.053983
v 0.034756 -0.031786 0.039488
v 0.037078 -0.033523 0.045287
v 0.031279 -0.034682 0.042389
v 0.028960 -0.037583 0.054563
f 504 489 510 
f 481 484 485 
f 485 484 493 
f 483 485 493 
f 487 491 496 
f 480 494 496 
f 483 493 497 
f 485 483 498 
f 483 492 498 
f 492 489 498 
f 486 494 499 
f 482 481 500 
f 481 485 500 
f 490 482 500 
f 485 498 500 
f 498 489 500 
f 484 481 501 
f 481 488 501 
f 491 484 501 
f 481 482 502 
f 488 481 502 
f 482 490 502 
f 495 488 502 
f 493 484 503 
f 484 497 503 
f 497 493 503 
f 486 499 504 
f 499 490 504 
f 490 500 504 
f 500 489 504 
f 491 487 505 
f 484 491 505 
f 492 483 505 
f 487 492 505 
f 497 484 505 
f 483 497 505 
f 492 487 506 
f 486 492 506 
f 494 486 506 
f 487 496 506 
f 496 494 506 
f 488 495 507 
f 495 480 507 
f 501 488 507 
f 491 501 507 
f 494 480 508 
f 480 495 508 
f 490 499 508 
f 499 494 508 
f 502 490 508 
f 495 502 508 
f 480 496 509 
f 496 491 509 
f 507 480 509 
f 491 507 509 
f 492 486 510 
f 489 492 510 
f 486 504 510 
o convex_12
v 0.027799 -0.020178 0.031366
v 0.017937 0.004762 0.047605
v 0.017357 0.004762 0.047605
v 0.017357 0.016946 0.027301
v 0.017357 -0.019601 0.029623
v 0.027799 -0.011477 0.047025
v 0.017937 -0.019601 0.042963
v 0.027799 -0.003938 0.027301
v 0.023156 0.009403 0.033103
v 0.027799 -0.024822 0.040063
v 0.017357 -0.017859 0.027301
v 0.017357 -0.009736 0.047605
v 0.027218 -0.019601 0.046445
v 0.027218 -0.000459 0.037165
v 0.017937 0.011144 0.041804
v 0.023156 0.010564 0.027301
v 0.027218 -0.013219 0.027301
v 0.027799 -0.006837 0.044121
v 0.017357 -0.020758 0.038900
v 0.019678 0.015204 0.030783
v 0.021419 0.009403 0.037742
v 0.027799 -0.001620 0.030783
v 0.027799 -0.023080 0.034844
v 0.027799 -0.023661 0.042963
v 0.017357 0.015204 0.035424
v 0.020838 -0.022500 0.037165
v 0.027799 -0.017859 0.047025
v 0.020258 -0.021919 0.041222
v 0.020838 -0.020178 0.044121
v 0.019678 0.005343 0.045284
v 0.027218 -0.024822 0.038900
v 0.027799 -0.008579 0.045862
v 0.019097 0.014043 0.035424
v 0.020838 -0.017279 0.027301
f 521 527 544 
f 513 514 515 
f 516 511 518 
f 511 516 520 
f 515 514 521 
f 514 518 521 
f 512 513 522 
f 513 515 522 
f 513 512 525 
f 518 514 526 
f 519 524 526 
f 518 511 527 
f 521 518 527 
f 516 518 528 
f 522 515 529 
f 517 522 529 
f 526 514 530 
f 519 526 530 
f 524 519 531 
f 528 524 531 
f 518 526 532 
f 526 524 532 
f 528 518 532 
f 524 528 532 
f 511 520 533 
f 521 511 533 
f 515 521 533 
f 520 516 534 
f 514 513 535 
f 513 525 535 
f 530 514 535 
f 529 515 536 
f 516 512 537 
f 512 522 537 
f 522 523 537 
f 534 516 537 
f 523 534 537 
f 517 529 538 
f 520 534 538 
f 529 536 538 
f 522 517 539 
f 523 522 539 
f 534 523 539 
f 517 538 539 
f 538 534 539 
f 525 512 540 
f 528 531 540 
f 531 525 540 
f 533 520 541 
f 515 533 541 
f 536 515 541 
f 520 538 541 
f 538 536 541 
f 512 516 542 
f 516 528 542 
f 540 512 542 
f 528 540 542 
f 519 530 543 
f 531 519 543 
f 525 531 543 
f 535 525 543 
f 530 535 543 
f 511 521 544 
f 527 511 544 
